o hand_left
v -0.026922 -0.027288 0.547245
v -0.035884 -0.034549 0.545108
v -0.035996 -0.024971 0.547902
v -0.027332 -0.018250 0.548237
v -0.056636 -0.030441 0.542547
v -0.063078 -0.026905 0.532572
v -0.056904 -0.013233 0.539645
v -0.053036 -0.019123 0.547642
v -0.025742 -0.011053 0.548089
v -0.035143 -0.017122 0.550090
v -0.023489 -0.008706 0.545042
v -0.012011 -0.004553 0.538469
v -0.016220 -0.006169 0.544293
v -0.004181 -0.001600 0.538205
v -0.009746 -0.009898 0.528778
v 0.004104 -0.005479 0.534199
v 0.001364 -0.035594 0.529591
v 0.003130 -0.047461 0.535689
v 0.016273 -0.037931 0.544803
v 0.012371 -0.026246 0.538314
v 0.010940 -0.056600 0.553834
v 0.014331 -0.045965 0.549286
v 0.002608 -0.055747 0.539444
v 0.000116 -0.064627 0.544087
v -0.026576 -0.042469 0.549388
v -0.034530 -0.049560 0.546177
v -0.034543 -0.044582 0.544494
v -0.026961 -0.037522 0.547593
v -0.028353 -0.002301 0.541368
v -0.025746 -0.007836 0.529553
v -0.021873 -0.007598 0.536526
v -0.028836 -0.004129 0.546657
v -0.054697 -0.070065 0.545363
v -0.059108 -0.077553 0.534930
v -0.059968 -0.073003 0.531164
v -0.055422 -0.067275 0.541233
v -0.064885 -0.050261 0.524814
v -0.063758 -0.059381 0.518875
v -0.062999 -0.057713 0.505423
v -0.061063 -0.047929 0.509265
v -0.065202 -0.038099 0.529278
v -0.063034 -0.035921 0.515875
v -0.060718 -0.023208 0.521586
v -0.055142 -0.008740 0.531496
v -0.055110 -0.088222 0.540954
v -0.051743 -0.084214 0.549809
v -0.016812 0.007278 0.568533
v -0.015479 0.001671 0.570770
v -0.014295 0.001339 0.569632
v -0.015488 0.006988 0.567590
v -0.036996 -0.097344 0.542268
v -0.029418 -0.098594 0.535714
v -0.034888 -0.102912 0.533475
v -0.042641 -0.100496 0.538253
v -0.029556 -0.093145 0.547538
v -0.022315 -0.092067 0.538912
v -0.015557 0.015995 0.577996
v -0.017555 0.014852 0.573205
v -0.013301 0.016084 0.572177
v -0.010063 0.016967 0.576778
v -0.019319 -0.011631 0.547938
v -0.020308 -0.020344 0.550297
v -0.006039 -0.005588 0.552590
v -0.010445 -0.010774 0.552543
v -0.011630 -0.006336 0.547644
v -0.007575 -0.002203 0.548055
v -0.009645 -0.032696 0.561003
v -0.017665 -0.039020 0.555426
v -0.017414 -0.032859 0.553151
v -0.009568 -0.024361 0.558731
v -0.018653 -0.050619 0.563604
v -0.010329 -0.043610 0.568087
v -0.011875 -0.051081 0.572103
v -0.018235 -0.054391 0.568909
v 0.004001 -0.029874 0.572926
v 0.007955 -0.027259 0.573739
v 0.006327 -0.028739 0.576583
v 0.002976 -0.033110 0.574574
v -0.039635 -0.107165 0.530270
v -0.047842 -0.102934 0.533686
v 0.004110 -0.073962 0.565632
v -0.004691 -0.079255 0.570423
v 0.003794 -0.073818 0.579688
v 0.012024 -0.069686 0.571884
v -0.023894 -0.094193 0.528083
v -0.028231 -0.100515 0.526318
v -0.012532 0.013566 0.583246
v -0.007345 0.014595 0.582514
v -0.051870 -0.025068 0.511761
v -0.048525 -0.007623 0.524137
v -0.053201 -0.039958 0.504863
v -0.052798 -0.050830 0.500795
v -0.054871 -0.058674 0.496529
v -0.006548 -0.013479 0.557192
v -0.021266 -0.029555 0.550258
v -0.026597 -0.046847 0.551782
v -0.026576 -0.069266 0.573073
v -0.034299 -0.074360 0.568113
v -0.033428 -0.064095 0.564920
v -0.026379 -0.061957 0.569543
v -0.012177 -0.077626 0.576915
v -0.016404 -0.071003 0.578991
v -0.009966 -0.067231 0.583225
v -0.004641 -0.072906 0.583008
v -0.031751 0.001800 0.536056
v -0.030590 -0.007894 0.523844
v -0.045415 -0.092844 0.546945
v -0.050374 -0.094490 0.541061
v -0.054160 -0.098440 0.534500
v -0.045691 -0.058691 0.545315
v -0.056130 -0.065240 0.538394
v -0.057130 -0.061146 0.536440
v -0.045317 -0.056460 0.543174
v -0.047034 -0.040575 0.543891
v -0.058603 -0.044110 0.538535
v -0.045902 -0.030005 0.548568
v -0.062267 -0.067757 0.525077
v -0.065474 -0.078365 0.524317
v -0.066520 -0.072124 0.517941
v -0.062752 -0.086256 0.529537
v -0.058977 -0.093375 0.533410
v -0.030933 -0.107444 0.522072
v -0.065733 -0.066332 0.511819
v -0.049756 -0.011147 0.550783
v -0.047549 -0.003919 0.553635
v -0.040447 -0.006994 0.555452
v -0.041849 -0.014264 0.553231
v 0.000930 0.002562 0.542308
v -0.005299 0.001277 0.545071
v -0.010302 -0.002564 0.542162
v -0.047163 -0.068366 0.554141
v -0.045176 -0.080430 0.557645
v -0.002712 -0.008546 0.557037
v -0.005439 0.016149 0.572659
v -0.009686 0.015389 0.568151
v -0.002095 0.007689 0.550872
v 0.003973 0.009064 0.554872
v 0.003258 -0.009399 0.561774
v -0.002712 -0.009492 0.557666
v -0.002886 -0.009783 0.558782
v 0.000926 -0.010232 0.564534
v 0.003894 -0.037082 0.580170
v 0.000708 -0.040957 0.578003
v 0.018971 -0.016700 0.550347
v 0.017657 -0.006513 0.540665
v 0.009585 -0.015457 0.532533
v -0.010282 -0.039369 0.564355
v -0.003012 -0.034406 0.569723
v -0.003175 -0.038044 0.571766
v -0.003332 -0.014254 0.560382
v 0.001138 -0.010769 0.561292
v 0.001320 -0.014332 0.563314
v -0.003527 -0.019100 0.562348
v -0.013033 -0.085251 0.561787
v -0.021486 -0.083498 0.569792
v -0.017722 0.011844 0.569630
v -0.015214 0.012410 0.568578
v -0.018178 -0.045415 0.558830
v -0.001969 -0.025106 0.526738
v -0.026931 -0.051477 0.554736
v 0.016880 -0.050953 0.575014
v 0.011326 -0.050289 0.581511
v 0.011242 -0.045621 0.584882
v 0.016340 -0.044563 0.582095
v -0.005464 -0.004333 0.576488
v -0.010366 -0.004391 0.572866
v -0.011223 -0.002348 0.573911
v -0.007743 -0.002451 0.579034
v -0.005934 -0.007111 0.553212
v -0.006971 -0.002162 0.549472
v -0.008842 -0.002694 0.551915
v -0.006536 -0.007029 0.555863
v -0.004865 0.001870 0.546480
v -0.006619 0.003064 0.549712
v -0.001296 -0.000202 0.579892
v -0.000143 0.007572 0.580803
v 0.010303 -0.000096 0.564884
v 0.006194 -0.005858 0.568095
v -0.008631 -0.072810 0.534290
v -0.010970 -0.081202 0.541335
v -0.002131 -0.073404 0.551232
v 0.007880 -0.066539 0.561000
v 0.016265 -0.058789 0.569878
v 0.020777 -0.050338 0.562095
v -0.005302 -0.079781 0.555551
v 0.011673 -0.012622 0.559214
v 0.015574 -0.006842 0.555582
v 0.016379 -0.013280 0.556326
v -0.027953 -0.056621 0.560077
v -0.013227 0.011496 0.565465
v -0.033747 -0.064447 0.498759
v -0.027388 -0.075068 0.504073
v -0.023680 -0.068045 0.507916
v -0.031265 -0.055823 0.502571
v -0.014557 -0.000579 0.568473
v -0.015453 0.005264 0.565155
v 0.000550 -0.045447 0.582734
v 0.003880 -0.041193 0.584296
v 0.005619 -0.042883 0.586150
v 0.001945 -0.047508 0.587288
v -0.013684 -0.085701 0.544328
v 0.005307 -0.068198 0.587670
v 0.013648 -0.065012 0.579640
v -0.018434 -0.087641 0.532480
v -0.015989 -0.080705 0.525972
v -0.021187 -0.086855 0.520360
v 0.022049 -0.035202 0.560611
v -0.006467 -0.065124 0.530738
v -0.014908 -0.073903 0.522526
v -0.021071 -0.080942 0.515664
v -0.024870 -0.086702 0.510901
v -0.024704 -0.092552 0.516589
v -0.002212 0.013018 0.577752
v -0.005410 0.008348 0.586006
v -0.027354 -0.099810 0.511721
v -0.027991 -0.092677 0.505790
v -0.015048 -0.065747 0.518192
v -0.016597 -0.055463 0.513631
v -0.007042 -0.057503 0.526436
v -0.007690 -0.046729 0.522439
v 0.025892 -0.029012 0.551716
v -0.021253 -0.000661 0.587639
v -0.010836 0.001268 0.585875
v -0.011097 -0.002086 0.580955
v -0.020223 -0.003929 0.584934
v -0.005623 0.001041 0.583429
v -0.010852 0.007071 0.586776
v -0.012988 -0.033779 0.518778
v 0.005414 -0.012545 0.563124
v -0.025703 -0.040810 0.509657
v -0.017101 -0.017303 0.520130
v -0.028162 -0.021785 0.514621
v -0.040364 -0.046021 0.500574
v -0.040026 -0.029497 0.506672
v -0.045228 -0.063042 0.493770
v -0.041694 -0.055554 0.497573
v -0.039655 -0.014285 0.515962
v -0.023385 0.002120 0.570981
v -0.020960 -0.002738 0.573910
v -0.036979 -0.070945 0.494418
v -0.043478 -0.021176 0.551215
v -0.037075 -0.060049 0.555064
v -0.035820 -0.056105 0.551198
v -0.038739 -0.076910 0.564290
v -0.039453 -0.065880 0.560062
v -0.025129 0.007392 0.571735
v 0.010240 -0.026986 0.574800
v 0.009674 -0.027252 0.574674
v -0.054079 -0.005964 0.544854
v -0.051672 -0.000418 0.548061
v -0.044763 0.006154 0.538651
v -0.050272 0.004115 0.542886
v -0.052773 -0.001497 0.537484
v -0.047176 0.000366 0.532350
v -0.045836 -0.060383 0.547461
v -0.045792 -0.063092 0.550413
v -0.021893 -0.089731 0.554500
v -0.029727 -0.087242 0.562739
v 0.000616 0.004318 0.545758
v 0.008826 0.001180 0.541898
v 0.007519 0.004195 0.547411
v 0.009640 0.005362 0.558245
v 0.007492 -0.011890 0.561840
v 0.009044 -0.009150 0.561929
v -0.057727 -0.053390 0.537572
v -0.045794 -0.050263 0.542128
v -0.034159 -0.012591 0.551118
v -0.033050 -0.007079 0.553098
v -0.003850 -0.026829 0.564632
v 0.019757 -0.026177 0.568814
v 0.021940 -0.021403 0.560789
v 0.002702 -0.021796 0.567531
v -0.026190 0.011182 0.579367
v -0.026140 0.009968 0.574502
v 0.013246 0.000720 0.550423
v -0.005029 -0.045029 0.576214
v 0.019846 -0.032676 0.568967
v 0.015937 -0.027327 0.574124
v -0.002654 -0.068947 0.587142
v -0.031590 -0.081380 0.499323
v -0.013222 -0.002697 0.575479
v -0.019119 -0.005377 0.578319
v -0.021798 0.003731 0.587883
v -0.023140 0.009259 0.584651
v -0.037861 -0.089026 0.555461
v -0.034790 -0.053244 0.548937
v -0.038915 -0.003230 0.525978
v -0.037670 0.004590 0.535935
v 0.006791 -0.020265 0.567649
v 0.014206 -0.056534 0.578746
v 0.021599 -0.044084 0.570716
v 0.021079 -0.037666 0.578659
v 0.019739 -0.030528 0.576351
v 0.014351 -0.025846 0.575825
v -0.027536 0.000569 0.588021
v -0.029038 0.006168 0.584958
v -0.031144 0.008418 0.579313
v -0.029907 0.007918 0.574671
v -0.027373 0.005428 0.572020
v -0.026251 -0.004001 0.587128
v -0.024575 -0.006455 0.584189
v -0.021367 -0.006473 0.578754
v -0.029233 -0.007334 0.584783
v -0.034211 -0.004796 0.584959
v -0.039364 -0.000829 0.571715
v -0.037266 0.002737 0.576403
v -0.038753 0.000138 0.576814
v -0.040853 -0.003232 0.573444
v -0.043465 -0.007391 0.571295
v -0.042233 -0.005148 0.568836
v -0.036892 -0.000734 0.581289
v -0.039878 -0.005870 0.577290
v -0.037946 -0.009018 0.579489
v -0.041117 -0.012710 0.576352
v -0.043055 -0.010067 0.574476
v -0.036351 -0.005377 0.582361
v -0.035731 0.001444 0.583049
v -0.043889 -0.009566 0.568214
v -0.044870 -0.009985 0.570514
v -0.044303 -0.012509 0.572663
v -0.044081 -0.014307 0.570137
v -0.032946 0.004926 0.573008
v -0.037818 -0.000730 0.569501
v -0.039749 -0.006168 0.567104
v -0.041590 -0.010448 0.566785
v -0.035317 -0.003640 0.567685
v -0.037275 -0.007812 0.566597
v -0.038480 -0.011709 0.566638
v -0.032634 -0.007183 0.567584
v -0.035085 -0.010227 0.567103
v -0.026350 0.000327 0.571245
v -0.028587 0.004042 0.571322
v -0.036386 -0.012366 0.566640
v -0.042389 -0.015348 0.569145
v -0.034884 -0.010374 0.581241
v -0.038487 -0.014530 0.576368
v -0.032829 -0.011675 0.580527
v -0.036599 -0.015914 0.576195
v -0.041666 -0.016694 0.573753
v -0.042642 -0.014403 0.574297
v -0.024290 0.001070 0.571815
v -0.021675 -0.003846 0.574871
v -0.023252 -0.004520 0.574385
v -0.030073 -0.010764 0.570054
v -0.023254 -0.007570 0.577748
v -0.027065 -0.009216 0.581695
v -0.031357 -0.013145 0.578091
v -0.029889 -0.013239 0.574783
v -0.034567 -0.015992 0.574567
v -0.033410 -0.015159 0.572411
v -0.033465 -0.013159 0.568899
v -0.037184 -0.016936 0.571474
v -0.039730 -0.017302 0.572922
v -0.039040 -0.015239 0.568486
v -0.035557 -0.016210 0.570768
v -0.036561 -0.014331 0.568491
v -0.006896 -0.008382 0.580320
v -0.006614 -0.013781 0.584159
v -0.003294 -0.011976 0.583429
v -0.003414 -0.007415 0.580255
v -0.003341 0.002914 0.588537
v -0.005942 0.000259 0.583161
v -0.000015 0.001920 0.582867
v 0.003699 0.002957 0.588647
v -0.000442 0.000109 0.595026
v 0.006467 -0.000740 0.594092
v 0.008591 0.001150 0.584403
v 0.003576 0.000294 0.579285
v 0.010362 -0.010153 0.563563
v 0.016229 -0.010704 0.566134
v 0.005336 -0.024854 0.572610
v 0.007370 -0.025732 0.575267
v -0.006789 -0.004206 0.580495
v -0.002426 -0.002578 0.580189
v 0.000833 -0.018099 0.588387
v -0.002551 -0.016512 0.584301
v -0.002647 -0.015839 0.586577
v -0.000509 -0.016249 0.591752
v 0.003857 -0.015096 0.564190
v 0.005113 -0.020079 0.568490
v 0.006136 -0.012216 0.563121
v 0.005805 -0.016056 0.592553
v 0.010210 -0.010885 0.593782
v 0.018837 -0.020827 0.576920
v 0.014399 -0.024359 0.579101
v -0.000274 -0.002751 0.577368
v -0.004323 -0.011939 0.580777
v -0.003564 -0.007428 0.577698
v 0.011710 -0.004170 0.589047
v 0.004529 -0.007991 0.597973
v -0.016169 -0.014224 0.598652
v -0.004187 -0.013308 0.597626
v -0.005248 -0.016509 0.593614
v -0.016392 -0.018271 0.595361
v 0.001940 -0.013382 0.596058
v -0.002416 -0.007619 0.598512
v -0.019059 -0.012606 0.581837
v -0.017919 -0.017959 0.585730
v -0.019970 -0.007934 0.581699
v 0.019501 -0.015136 0.570586
v -0.017856 -0.000768 0.589221
v -0.019574 -0.004063 0.583651
v -0.005636 -0.017130 0.588380
v -0.017051 -0.020064 0.590525
v -0.015914 -0.009583 0.599240
v -0.014896 -0.002690 0.595372
v -0.022017 -0.011039 0.598885
v -0.022577 -0.005317 0.595069
v -0.024277 -0.003379 0.588501
v -0.023369 -0.005982 0.583217
v -0.021946 -0.009295 0.581640
v -0.021337 -0.015659 0.598355
v -0.020050 -0.019150 0.595164
v -0.018646 -0.019834 0.590085
v -0.025127 -0.020011 0.595129
v -0.028362 -0.016290 0.596026
v -0.035329 -0.017918 0.577201
v -0.032751 -0.013404 0.580697
v -0.033958 -0.014488 0.582862
v -0.036342 -0.018619 0.579780
v -0.031183 -0.009097 0.585509
v -0.032429 -0.011297 0.586452
v -0.031510 -0.012755 0.591103
v -0.033861 -0.017362 0.586858
v -0.031919 -0.020467 0.590249
v -0.034906 -0.024402 0.586976
v -0.037094 -0.021614 0.583706
v -0.030946 -0.016476 0.592740
v -0.037960 -0.021758 0.578605
v -0.037506 -0.023208 0.576456
v -0.030269 -0.009784 0.593200
v -0.026300 -0.007856 0.582265
v -0.030839 -0.014125 0.578125
v -0.033287 -0.019614 0.575156
v -0.035508 -0.025448 0.575793
v -0.028115 -0.017272 0.576644
v -0.031048 -0.022059 0.574920
v -0.033027 -0.026556 0.576171
v -0.025155 -0.021177 0.577249
v -0.028667 -0.025407 0.576305
v -0.020042 -0.014142 0.581528
v -0.022784 -0.010406 0.580460
v -0.030667 -0.026879 0.576670
v -0.038604 -0.026492 0.579837
v -0.036321 -0.028533 0.578534
v -0.038505 -0.024926 0.580956
v -0.030621 -0.021903 0.591364
v -0.033611 -0.026165 0.586931
v -0.028728 -0.024265 0.590872
v -0.032442 -0.028260 0.586267
v -0.036477 -0.028409 0.583628
v -0.037248 -0.026935 0.583680
v -0.020239 -0.013195 0.582476
v -0.018762 -0.017735 0.586040
v -0.018044 -0.018318 0.585246
v -0.023764 -0.024896 0.581308
v -0.018370 -0.020670 0.589655
v -0.022183 -0.021511 0.593104
v -0.026408 -0.025591 0.589605
v -0.024535 -0.026449 0.585940
v -0.030740 -0.029572 0.585964
v -0.027981 -0.028980 0.584292
v -0.027245 -0.027822 0.579528
v -0.033584 -0.030922 0.582453
v -0.035530 -0.029787 0.583066
v -0.034176 -0.029015 0.578351
v -0.030745 -0.030416 0.581940
v -0.031000 -0.028948 0.578489
v -0.000487 -0.023458 0.591450
v -0.000362 -0.028319 0.595158
v 0.001755 -0.028057 0.594315
v 0.002197 -0.023055 0.591523
v 0.004462 -0.013654 0.597560
v 0.001695 -0.015155 0.593767
v 0.006783 -0.015139 0.592580
v 0.011053 -0.014192 0.595515
v 0.005009 -0.015685 0.603014
v 0.013934 -0.016392 0.600251
v 0.014808 -0.016214 0.592136
v 0.009348 -0.016093 0.590159
v 0.013417 -0.023650 0.579251
v 0.019043 -0.025529 0.581677
v 0.000164 -0.019009 0.591592
v 0.003698 -0.018947 0.591069
v 0.003915 -0.032764 0.599154
v 0.000849 -0.030572 0.595676
v 0.002921 -0.030939 0.598826
v 0.005228 -0.030671 0.602927
v 0.004413 -0.029078 0.578535
v 0.004073 -0.034407 0.581359
v 0.007804 -0.025372 0.578562
v 0.009848 -0.031268 0.601688
v 0.015783 -0.026649 0.601310
v 0.017088 -0.037459 0.589876
v 0.011674 -0.039982 0.589987
v 0.005003 -0.018438 0.589293
v -0.000327 -0.027170 0.591653
v 0.001142 -0.022326 0.589151
v 0.017289 -0.020849 0.596230
v 0.012218 -0.022159 0.605061
v -0.011049 -0.025397 0.610707
v 0.004732 -0.026197 0.607531
v 0.002593 -0.030396 0.604025
v -0.011066 -0.029303 0.608678
v 0.008588 -0.027368 0.605758
v 0.006017 -0.020899 0.607113
v -0.013254 -0.025532 0.594396
v -0.012362 -0.029533 0.598507
v -0.012502 -0.020942 0.594158
v 0.021132 -0.031108 0.585741
v 0.006013 -0.039663 0.587138
v -0.012027 -0.015079 0.599044
v -0.012386 -0.017823 0.595581
v 0.001172 -0.030858 0.599863
v -0.011389 -0.031268 0.604294
v -0.010084 -0.020252 0.609994
v -0.009686 -0.015525 0.604922
v -0.016331 -0.021603 0.610170
v -0.016243 -0.016715 0.605016
v -0.016665 -0.016305 0.598790
v -0.015122 -0.019526 0.595270
v -0.014322 -0.022609 0.594231
v -0.015540 -0.027244 0.610363
v -0.014240 -0.030335 0.608404
v -0.011617 -0.030870 0.604184
v -0.018527 -0.029583 0.609040
v -0.022087 -0.025341 0.607751
v -0.028134 -0.031810 0.591426
v -0.024613 -0.026906 0.593737
v -0.025113 -0.027091 0.594823
v -0.029082 -0.031660 0.592937
v -0.021961 -0.020994 0.597529
v -0.023365 -0.022704 0.597752
v -0.023619 -0.022776 0.601972
v -0.027455 -0.028269 0.599594
v -0.025256 -0.031584 0.604460
v -0.028583 -0.035393 0.601717
v -0.031057 -0.032673 0.597271
v -0.023368 -0.025891 0.605597
v -0.031286 -0.034402 0.592606
v -0.031465 -0.034697 0.590758
v -0.022265 -0.020396 0.603579
v -0.018152 -0.022030 0.594239
v -0.022588 -0.027838 0.591520
v -0.026090 -0.032694 0.589264
v -0.028578 -0.036654 0.589520
v -0.019901 -0.030674 0.591162
v -0.023597 -0.034562 0.589703
v -0.025972 -0.038009 0.590082
v -0.018257 -0.033457 0.592418
v -0.021692 -0.036583 0.591427
v -0.013166 -0.027271 0.595226
v -0.015025 -0.024477 0.593669
v -0.024107 -0.038562 0.591491
v -0.032890 -0.037477 0.594457
v -0.029975 -0.040476 0.593740
v -0.032311 -0.036055 0.595293
v -0.024272 -0.032319 0.605898
v -0.028159 -0.037457 0.602642
v -0.022338 -0.034514 0.606144
v -0.026254 -0.039265 0.602963
v -0.031159 -0.039023 0.599315
v -0.031149 -0.037845 0.599149
v -0.013508 -0.026143 0.595218
v -0.012008 -0.029492 0.599231
v -0.011409 -0.030188 0.599202
v -0.016877 -0.036838 0.596234
v -0.011626 -0.031693 0.603912
v -0.016531 -0.032590 0.607191
v -0.020054 -0.036469 0.604236
v -0.018061 -0.037933 0.600897
v -0.023906 -0.040263 0.601630
v -0.021602 -0.039983 0.599809
v -0.020542 -0.039370 0.594778
v -0.026381 -0.041373 0.598311
v -0.029221 -0.040845 0.599267
v -0.026820 -0.040995 0.593565
v -0.023998 -0.041316 0.597390
v -0.024335 -0.040787 0.593830
v 0.004309 -0.037902 0.584412
v -0.006301 -0.041190 0.600562
v -0.007321 -0.044579 0.603172
v -0.006686 -0.044157 0.603940
v -0.004932 -0.041174 0.600445
v 0.002874 -0.034838 0.604397
v -0.001275 -0.035545 0.601550
v 0.002923 -0.036303 0.600302
v 0.007162 -0.036514 0.602866
v 0.005595 -0.037481 0.608692
v 0.008823 -0.039864 0.607919
v 0.008551 -0.039401 0.600658
v 0.004694 -0.037993 0.598431
v 0.008705 -0.047501 0.586406
v 0.012212 -0.051818 0.586970
v -0.002380 -0.064357 0.592371
v -0.005951 -0.061273 0.589385
v -0.004885 -0.056519 0.597207
v -0.001630 -0.059696 0.598845
v -0.004157 -0.038022 0.600322
v -0.001643 -0.038318 0.599051
v -0.002761 -0.049437 0.610929
v -0.005875 -0.047269 0.607508
v -0.006744 -0.046876 0.607519
v -0.005268 -0.048594 0.612137
v -0.005826 -0.055930 0.587728
v -0.002558 -0.051851 0.586511
v -0.003355 -0.049593 0.590008
v -0.004881 -0.051977 0.594844
v 0.001830 -0.046575 0.588436
v 0.001957 -0.049465 0.611927
v 0.007534 -0.047229 0.610408
v 0.008102 -0.062246 0.596495
v 0.003161 -0.062177 0.598001
v 0.000420 -0.038020 0.599257
v -0.005983 -0.044217 0.603360
v -0.003960 -0.040366 0.601679
v 0.010676 -0.043614 0.604559
v 0.004526 -0.044069 0.612872
v -0.008710 -0.043390 0.616108
v -0.002988 -0.045894 0.614772
v -0.005925 -0.048251 0.611967
v -0.009975 -0.046248 0.614250
v -0.001063 -0.047241 0.614126
v 0.000740 -0.041867 0.613586
v -0.010391 -0.041876 0.601624
v -0.010861 -0.045583 0.605882
v -0.009378 -0.038563 0.600866
v 0.012412 -0.057739 0.590294
v -0.005797 -0.033384 0.605092
v -0.008353 -0.035678 0.602171
v -0.007350 -0.046838 0.607226
v -0.010891 -0.047381 0.610450
v -0.006573 -0.038632 0.615207
v -0.003447 -0.034680 0.610270
v -0.011990 -0.037402 0.614832
v -0.008448 -0.033446 0.610377
v -0.009549 -0.033913 0.603847
v -0.009662 -0.037508 0.601573
v -0.009786 -0.040776 0.601131
v -0.012835 -0.042947 0.615811
v -0.012852 -0.045640 0.614806
v -0.011789 -0.046977 0.611107
v -0.016970 -0.042560 0.614445
v -0.018079 -0.039051 0.610948
v -0.020801 -0.045329 0.599496
v -0.017299 -0.042670 0.600332
v -0.018164 -0.042177 0.601095
v -0.021502 -0.044528 0.599808
v -0.014068 -0.038162 0.602158
v -0.015910 -0.038968 0.602724
v -0.016132 -0.037284 0.606168
v -0.020516 -0.040664 0.604444
v -0.022011 -0.042683 0.609314
v -0.025207 -0.045010 0.607495
v -0.023845 -0.042743 0.603391
v -0.018832 -0.039240 0.609330
v -0.024323 -0.045447 0.599656
v -0.024719 -0.046713 0.598939
v -0.014368 -0.034934 0.607059
v -0.011391 -0.041114 0.600827
v -0.016466 -0.045183 0.599249
v -0.021082 -0.047819 0.598442
v -0.024843 -0.049211 0.599334
v -0.015076 -0.047307 0.599848
v -0.020254 -0.049972 0.598904
v -0.023764 -0.051141 0.600020
v -0.014464 -0.049849 0.602122
v -0.019525 -0.051568 0.600782
v -0.010118 -0.047082 0.603985
v -0.010423 -0.044508 0.601350
v -0.022587 -0.051902 0.601064
v -0.027495 -0.046600 0.601939
v -0.026713 -0.049647 0.602201
v -0.026924 -0.044897 0.602502
v -0.022019 -0.043498 0.610633
v -0.025745 -0.046518 0.608429
v -0.021472 -0.045432 0.611926
v -0.025132 -0.048619 0.608915
v -0.027673 -0.047494 0.605506
v -0.026955 -0.045556 0.605320
v -0.010649 -0.044423 0.603065
v -0.011341 -0.046144 0.606106
v -0.011525 -0.048298 0.608003
v -0.015389 -0.051240 0.606335
v -0.013078 -0.047776 0.612666
v -0.015469 -0.045472 0.614839
v -0.020174 -0.048062 0.612013
v -0.018156 -0.050552 0.610473
v -0.024079 -0.050524 0.608350
v -0.021782 -0.052286 0.607226
v -0.019962 -0.052846 0.604161
v -0.025674 -0.051200 0.604857
v -0.027052 -0.049861 0.605154
v -0.025446 -0.051357 0.602479
v -0.024047 -0.052260 0.604651
v -0.023406 -0.052334 0.602995
v 0.001622 -0.064593 0.593328
v -0.030669 0.010037 0.548499
v -0.028926 0.006342 0.552229
v -0.042162 0.003274 0.561608
v -0.035117 0.002698 0.561128
v -0.047497 0.006788 0.558990
v -0.047729 0.013256 0.549860
v -0.049277 0.009605 0.554041
v -0.030384 0.003933 0.557501
v -0.035025 0.013157 0.545566
v -0.042322 0.014690 0.545506
v -0.032508 0.019578 0.551047
v -0.040479 0.021259 0.550955
v -0.046566 0.020183 0.554591
v -0.048815 0.014216 0.558593
v -0.047998 0.010414 0.562028
v -0.029225 0.013605 0.554043
v -0.028354 0.009473 0.557479
v -0.031306 0.005653 0.561858
v -0.027328 0.016636 0.561881
v -0.030184 0.024662 0.567673
v -0.043853 0.029817 0.581058
v -0.045047 0.026346 0.575156
v -0.042668 0.027934 0.574707
v -0.042032 0.031403 0.579910
v -0.044037 0.025704 0.569540
v -0.041969 0.026482 0.570542
v -0.037127 0.026447 0.568354
v -0.036545 0.029333 0.573511
v -0.032139 0.025549 0.569640
v -0.030908 0.026676 0.573741
v -0.035757 0.032317 0.578424
v -0.039973 0.034078 0.582302
v -0.035240 0.034578 0.582778
v -0.041027 0.032500 0.584961
v -0.037025 0.028147 0.565896
v -0.047925 0.020344 0.566930
v -0.046912 0.023072 0.575367
v -0.044773 0.026347 0.582425
v -0.041021 0.029534 0.586484
v -0.046423 0.018710 0.576771
v -0.043415 0.022062 0.582752
v -0.039374 0.024701 0.586111
v -0.043063 0.015022 0.577688
v -0.040348 0.019282 0.582630
v -0.043787 0.008337 0.567026
v -0.048225 0.013487 0.566729
v -0.038271 0.022301 0.584856
v -0.034901 0.034052 0.585751
v -0.034828 0.030617 0.587288
v -0.028268 0.024404 0.573223
v -0.029908 0.029804 0.578235
v -0.028159 0.027341 0.579017
v -0.026892 0.020537 0.572890
v -0.027446 0.024670 0.579936
v -0.029779 0.031099 0.583356
v -0.031205 0.032565 0.581244
v -0.043718 0.006092 0.564062
v -0.037206 0.004339 0.563560
v -0.037375 0.006284 0.566230
v -0.036653 0.012679 0.576754
v -0.031378 0.007542 0.565784
v -0.027712 0.011979 0.563835
v -0.027423 0.016933 0.574044
v -0.030757 0.013697 0.575397
v -0.028873 0.021392 0.580901
v -0.031215 0.019376 0.581270
v -0.035922 0.018404 0.582478
v -0.031023 0.024649 0.584670
v -0.029529 0.028008 0.584494
v -0.034858 0.025863 0.586671
v -0.032270 0.022297 0.583811
v -0.035212 0.022566 0.584983
v -0.007555 -0.064083 0.585590
v -0.008051 -0.057691 0.583586
v -0.011613 -0.061606 0.581278
v -0.018706 -0.065230 0.577750
v -0.023075 -0.074251 0.574706
v -0.018771 -0.059334 0.573897
v -0.011270 -0.055832 0.577981
v -0.005308 -0.050479 0.581268
v -0.024236 -0.057550 0.565526
f 2 3 1
f 1 3 4
f 5 6 8
f 8 6 7
f 9 4 10
f 10 4 3
f 12 13 11
f 11 13 9
f 14 12 16
f 16 12 15
f 18 19 17
f 17 19 20
f 22 23 21
f 21 23 24
f 26 27 25
f 25 27 28
f 30 31 29
f 29 31 32
f 33 34 36
f 36 34 35
f 37 38 40
f 40 38 39
f 41 42 6
f 6 42 43
f 6 43 7
f 7 43 44
f 45 34 46
f 46 34 33
f 48 49 47
f 47 49 50
f 52 53 51
f 51 53 54
f 56 52 55
f 55 52 51
f 58 59 57
f 57 59 60
f 61 62 4
f 4 62 1
f 64 65 63
f 63 65 66
f 68 69 67
f 67 69 70
f 72 73 71
f 71 73 74
f 76 77 75
f 75 77 78
f 53 79 54
f 54 79 80
f 82 83 81
f 81 83 84
f 85 86 52
f 52 86 53
f 57 60 87
f 87 60 88
f 89 90 43
f 43 90 44
f 43 42 89
f 89 42 91
f 40 39 92
f 92 39 93
f 94 70 64
f 64 70 69
f 13 61 9
f 9 61 4
f 25 28 69
f 69 28 95
f 96 25 68
f 68 25 69
f 98 99 97
f 97 99 100
f 101 102 104
f 104 102 103
f 106 30 105
f 105 30 29
f 51 54 107
f 107 54 108
f 54 80 108
f 108 80 109
f 111 112 110
f 110 112 113
f 115 5 114
f 114 5 116
f 115 41 5
f 5 41 6
f 36 35 111
f 111 35 117
f 35 118 117
f 117 118 119
f 34 120 35
f 35 120 118
f 34 45 120
f 120 45 121
f 125 126 124
f 124 126 127
f 128 129 14
f 14 129 130
f 33 131 46
f 46 131 132
f 133 94 63
f 63 94 64
f 134 135 137
f 137 135 136
f 139 140 138
f 138 140 141
f 77 142 78
f 78 142 143
f 144 145 20
f 20 145 146
f 148 149 147
f 147 149 72
f 151 152 150
f 150 152 153
f 82 101 83
f 83 101 104
f 101 82 155
f 155 82 154
f 156 157 58
f 58 157 59
f 158 68 147
f 147 68 67
f 159 146 15
f 15 146 16
f 68 158 96
f 96 158 160
f 129 66 130
f 130 66 65
f 162 163 161
f 161 163 164
f 166 167 165
f 165 167 168
f 170 171 169
f 169 171 172
f 174 171 173
f 173 171 170
f 176 177 175
f 175 177 178
f 180 181 179
f 179 181 24
f 182 183 21
f 21 183 184
f 81 185 82
f 82 185 154
f 186 187 188
f 188 187 144
f 158 71 160
f 160 71 189
f 190 135 157
f 157 135 59
f 169 172 139
f 139 172 140
f 147 72 158
f 158 72 71
f 192 193 191
f 191 193 194
f 167 166 49
f 49 166 195
f 196 190 50
f 50 190 157
f 197 198 200
f 200 198 199
f 21 24 182
f 182 24 181
f 146 159 20
f 20 159 17
f 182 181 81
f 81 181 185
f 201 185 180
f 180 185 181
f 202 203 83
f 83 203 84
f 205 206 204
f 204 206 85
f 207 22 184
f 184 22 21
f 179 24 208
f 208 24 23
f 208 209 179
f 179 209 205
f 209 210 205
f 205 210 206
f 212 206 211
f 211 206 210
f 179 205 180
f 180 205 204
f 213 176 88
f 88 176 214
f 86 85 212
f 212 85 206
f 193 217 218
f 217 219 218
f 218 219 220
f 219 18 220
f 220 18 17
f 19 221 20
f 20 221 144
f 222 223 225
f 225 223 224
f 175 226 176
f 176 226 214
f 227 87 214
f 214 87 88
f 220 17 228
f 228 17 159
f 134 213 60
f 60 213 88
f 138 229 151
f 151 229 152
f 193 192 210
f 210 192 211
f 230 194 218
f 218 194 193
f 231 232 228
f 228 232 230
f 233 234 91
f 91 234 89
f 235 236 93
f 93 236 92
f 230 232 234
f 234 232 237
f 47 238 48
f 48 238 239
f 240 191 235
f 235 191 236
f 5 8 116
f 116 8 241
f 242 243 189
f 189 243 160
f 244 245 98
f 98 245 99
f 156 246 47
f 47 246 238
f 76 247 77
f 77 247 248
f 250 125 249
f 249 125 124
f 252 253 251
f 251 253 254
f 111 110 36
f 36 110 255
f 256 33 255
f 255 33 36
f 257 258 154
f 154 258 155
f 63 169 133
f 133 169 139
f 66 170 63
f 63 170 169
f 173 170 129
f 129 170 66
f 129 128 173
f 173 128 259
f 128 260 259
f 259 260 261
f 213 134 262
f 262 134 137
f 263 264 186
f 186 264 187
f 112 265 113
f 113 265 266
f 11 267 268
f 234 233 230
f 230 233 194
f 153 269 70
f 70 269 67
f 175 178 165
f 165 178 141
f 150 153 94
f 94 153 70
f 271 221 270
f 270 221 207
f 269 153 272
f 272 153 152
f 121 45 109
f 109 45 108
f 47 50 156
f 156 50 157
f 57 273 58
f 58 273 274
f 145 275 260
f 260 275 261
f 276 149 143
f 143 149 78
f 148 269 75
f 75 269 272
f 207 277 270
f 270 277 278
f 195 196 49
f 49 196 50
f 59 135 60
f 60 135 134
f 83 104 202
f 202 104 279
f 149 148 78
f 78 148 75
f 247 278 248
f 248 278 277
f 183 182 84
f 84 182 81
f 48 239 281
f 281 239 282
f 227 223 283
f 283 223 222
f 223 226 224
f 224 226 168
f 281 282 224
f 224 282 225
f 165 168 175
f 175 168 226
f 264 263 138
f 138 263 229
f 14 16 128
f 128 16 260
f 220 228 218
f 218 228 230
f 87 227 284
f 284 227 283
f 260 16 145
f 145 16 146
f 244 98 258
f 258 98 155
f 58 274 156
f 156 274 246
f 107 285 51
f 51 285 55
f 243 286 160
f 160 286 96
f 234 237 89
f 89 237 90
f 46 132 107
f 107 132 285
f 253 252 249
f 249 252 250
f 286 26 96
f 96 26 25
f 106 105 287
f 287 105 288
f 272 152 289
f 289 152 229
f 138 151 139
f 139 151 133
f 183 290 161
f 161 290 162
f 291 292 277
f 277 292 293
f 151 150 133
f 133 150 94
f 262 275 177
f 177 275 187
f 144 187 145
f 145 187 275
f 273 57 284
f 284 57 87
f 174 136 190
f 190 136 135
f 111 117 112
f 112 117 38
f 117 119 38
f 38 119 123
f 112 38 265
f 265 38 37
f 287 288 254
f 254 288 251
f 228 159 231
f 231 159 15
f 223 227 226
f 226 227 214
f 147 67 148
f 148 67 269
f 224 168 281
f 281 168 167
f 199 163 200
f 200 163 162
f 45 46 108
f 108 46 107
f 281 167 48
f 48 167 49
f 161 164 291
f 291 164 292
f 38 123 39
f 293 294 277
f 277 294 248
f 284 283 296
f 296 283 295
f 284 296 273
f 273 296 297
f 274 273 298
f 298 273 297
f 246 274 299
f 299 274 298
f 283 222 295
f 295 222 300
f 222 225 300
f 300 225 301
f 301 225 302
f 302 225 282
f 303 304 300
f 300 304 295
f 306 307 305
f 305 307 308
f 309 310 308
f 308 310 305
f 308 307 312
f 312 307 311
f 313 314 312
f 312 314 315
f 311 316 312
f 312 316 313
f 317 304 311
f 311 304 316
f 315 309 312
f 312 309 308
f 318 319 321
f 321 319 320
f 319 318 309
f 309 318 310
f 311 307 317
f 317 307 306
f 306 297 317
f 317 297 296
f 306 322 297
f 297 322 298
f 305 323 306
f 306 323 322
f 323 305 324
f 324 305 310
f 304 317 295
f 295 317 296
f 318 325 310
f 310 325 324
f 323 324 326
f 326 324 327
f 324 325 327
f 327 325 328
f 326 327 329
f 329 327 330
f 329 331 326
f 326 331 332
f 333 330 328
f 328 330 327
f 323 326 322
f 322 326 332
f 322 332 298
f 298 332 299
f 325 318 334
f 334 318 321
f 313 316 335
f 335 316 304
f 335 336 313
f 313 336 314
f 304 303 335
f 335 303 337
f 336 335 338
f 338 335 337
f 336 339 314
f 314 339 340
f 246 299 238
f 238 299 341
f 239 342 282
f 282 342 302
f 342 239 341
f 341 239 238
f 341 331 342
f 342 331 343
f 331 329 343
f 343 329 344
f 342 343 302
f 302 343 345
f 341 299 331
f 331 299 332
f 346 301 345
f 345 301 302
f 346 303 301
f 301 303 300
f 347 337 346
f 346 337 303
f 347 346 348
f 348 346 345
f 349 347 350
f 350 347 348
f 343 344 345
f 345 344 348
f 344 351 348
f 348 351 350
f 337 347 338
f 338 347 349
f 353 338 352
f 352 338 349
f 352 355 354
f 354 355 356
f 352 349 355
f 355 349 350
f 352 354 353
f 353 354 334
f 353 334 339
f 339 334 321
f 339 336 353
f 353 336 338
f 329 330 344
f 344 330 351
f 356 351 333
f 333 351 330
f 356 355 351
f 351 355 350
f 354 356 328
f 328 356 333
f 328 325 354
f 354 325 334
f 309 315 319
f 319 315 320
f 320 340 321
f 321 340 339
f 320 315 340
f 340 315 314
f 137 136 261
f 261 136 259
f 140 166 141
f 141 166 165
f 172 171 195
f 195 171 196
f 171 174 196
f 196 174 190
f 178 177 264
f 264 177 187
f 172 195 140
f 140 195 166
f 137 261 262
f 262 261 275
f 178 264 141
f 141 264 138
f 262 177 213
f 213 177 176
f 136 174 259
f 259 174 173
f 358 359 357
f 357 359 360
f 362 363 361
f 361 363 364
f 361 364 365
f 365 364 366
f 367 368 370
f 370 368 369
f 76 371 247
f 247 371 372
f 373 374 362
f 362 374 363
f 376 377 375
f 375 377 378
f 289 229 380
f 380 229 379
f 381 379 263
f 263 379 229
f 383 384 382
f 382 384 385
f 386 368 374
f 374 368 363
f 76 289 371
f 371 289 380
f 377 376 359
f 359 376 387
f 388 386 360
f 360 386 374
f 389 383 366
f 366 383 390
f 392 393 391
f 391 393 394
f 383 382 390
f 390 382 395
f 396 365 390
f 390 365 366
f 389 366 367
f 367 366 364
f 357 397 358
f 358 397 398
f 373 399 357
f 357 399 397
f 389 367 400
f 400 367 370
f 382 385 375
f 375 385 372
f 357 360 373
f 373 360 374
f 361 401 362
f 362 401 402
f 387 388 359
f 359 388 360
f 363 368 364
f 364 368 367
f 358 398 403
f 403 398 404
f 396 392 405
f 405 392 391
f 392 395 393
f 393 395 378
f 393 403 394
f 394 403 404
f 375 378 382
f 382 378 395
f 365 396 406
f 406 396 405
f 362 402 373
f 373 402 399
f 271 270 400
f 400 270 384
f 401 361 406
f 406 361 365
f 381 369 386
f 386 369 368
f 392 396 395
f 395 396 390
f 393 378 403
f 403 378 377
f 403 377 358
f 358 377 359
f 406 405 408
f 408 405 407
f 406 408 401
f 401 408 409
f 401 409 402
f 402 409 410
f 402 410 399
f 399 410 411
f 405 391 407
f 407 391 412
f 391 394 412
f 412 394 413
f 394 404 413
f 413 404 414
f 415 416 412
f 412 416 407
f 418 419 417
f 417 419 420
f 421 422 418
f 418 422 419
f 419 422 424
f 424 422 423
f 425 426 424
f 424 426 427
f 423 428 424
f 424 428 425
f 427 420 424
f 424 420 419
f 420 429 417
f 417 429 430
f 423 422 431
f 431 422 421
f 421 409 431
f 431 409 408
f 421 432 409
f 409 432 410
f 418 433 421
f 421 433 432
f 434 433 417
f 417 433 418
f 431 416 423
f 423 416 428
f 416 431 407
f 407 431 408
f 435 434 430
f 430 434 417
f 433 434 436
f 436 434 437
f 434 435 437
f 437 435 438
f 436 437 439
f 439 437 440
f 439 441 436
f 436 441 442
f 438 443 437
f 437 443 440
f 436 442 433
f 433 442 432
f 432 442 410
f 410 442 411
f 435 430 445
f 445 430 444
f 430 429 444
f 444 429 446
f 425 428 447
f 447 428 416
f 426 425 448
f 448 425 447
f 416 415 447
f 447 415 449
f 447 449 448
f 448 449 450
f 451 452 448
f 448 452 426
f 446 452 444
f 444 452 451
f 399 411 397
f 397 411 453
f 398 454 404
f 404 454 414
f 454 398 453
f 453 398 397
f 453 441 454
f 454 441 455
f 441 439 455
f 455 439 456
f 454 455 414
f 414 455 457
f 441 453 442
f 442 453 411
f 458 413 457
f 457 413 414
f 458 415 413
f 413 415 412
f 458 459 415
f 415 459 449
f 459 458 460
f 460 458 457
f 461 459 462
f 462 459 460
f 455 456 457
f 457 456 460
f 456 463 460
f 460 463 462
f 459 461 449
f 449 461 450
f 465 450 464
f 464 450 461
f 464 467 466
f 466 467 468
f 464 461 467
f 467 461 462
f 464 466 465
f 465 466 445
f 465 445 451
f 451 445 444
f 451 448 465
f 465 448 450
f 439 440 456
f 456 440 463
f 468 463 443
f 443 463 440
f 468 467 463
f 463 467 462
f 466 468 438
f 438 468 443
f 438 435 466
f 466 435 445
f 420 427 429
f 429 427 446
f 446 427 452
f 452 427 426
f 370 369 188
f 188 369 186
f 371 376 372
f 372 376 375
f 380 379 387
f 387 379 388
f 379 381 388
f 388 381 386
f 385 384 278
f 278 384 270
f 380 387 371
f 371 387 376
f 400 370 271
f 271 370 188
f 385 278 372
f 372 278 247
f 400 384 389
f 389 384 383
f 369 381 186
f 186 381 263
f 221 271 144
f 144 271 188
f 221 19 207
f 207 19 22
f 19 18 22
f 22 18 23
f 18 219 23
f 23 219 208
f 469 470 472
f 472 470 471
f 474 475 473
f 473 475 476
f 473 476 477
f 477 476 478
f 480 481 479
f 479 481 482
f 483 484 474
f 474 484 475
f 486 487 485
f 485 487 488
f 489 490 77
f 77 490 142
f 491 489 248
f 248 489 77
f 493 494 492
f 492 494 495
f 496 480 484
f 484 480 475
f 486 497 487
f 487 497 471
f 498 496 472
f 472 496 484
f 499 493 478
f 478 493 500
f 501 502 504
f 504 502 503
f 493 492 500
f 500 492 505
f 506 477 500
f 500 477 478
f 499 478 479
f 479 478 476
f 469 507 470
f 470 507 508
f 483 509 469
f 469 509 507
f 479 482 499
f 499 482 510
f 492 495 485
f 485 495 511
f 483 469 484
f 484 469 472
f 473 512 474
f 474 512 513
f 497 498 471
f 471 498 472
f 475 480 476
f 476 480 479
f 470 508 514
f 514 508 515
f 506 502 516
f 516 502 501
f 503 502 488
f 488 502 505
f 514 515 503
f 503 515 504
f 485 488 492
f 492 488 505
f 477 506 517
f 517 506 516
f 474 513 483
f 483 513 509
f 510 292 494
f 494 292 164
f 512 473 517
f 517 473 477
f 491 481 496
f 496 481 480
f 502 506 505
f 505 506 500
f 503 488 514
f 514 488 487
f 514 487 470
f 470 487 471
f 517 516 519
f 519 516 518
f 517 519 512
f 512 519 520
f 512 520 513
f 513 520 521
f 513 521 509
f 509 521 522
f 516 501 518
f 518 501 523
f 501 504 523
f 523 504 524
f 524 504 525
f 525 504 515
f 526 527 523
f 523 527 518
f 529 530 528
f 528 530 531
f 532 533 529
f 529 533 530
f 530 533 535
f 535 533 534
f 536 537 535
f 535 537 538
f 534 539 535
f 535 539 536
f 538 531 535
f 535 531 530
f 540 541 531
f 531 541 528
f 533 532 534
f 534 532 542
f 532 520 542
f 542 520 519
f 532 543 520
f 520 543 521
f 529 544 532
f 532 544 543
f 544 529 545
f 545 529 528
f 534 542 539
f 539 542 527
f 527 542 518
f 518 542 519
f 541 546 528
f 528 546 545
f 547 544 548
f 548 544 545
f 546 549 545
f 545 549 548
f 550 547 551
f 551 547 548
f 547 550 553
f 553 550 552
f 549 554 548
f 548 554 551
f 544 547 543
f 543 547 553
f 543 553 521
f 521 553 522
f 546 541 556
f 556 541 555
f 541 540 555
f 555 540 557
f 536 539 558
f 558 539 527
f 537 536 559
f 559 536 558
f 527 526 558
f 558 526 560
f 559 558 561
f 561 558 560
f 559 562 537
f 537 562 563
f 557 563 555
f 555 563 562
f 509 522 507
f 507 522 564
f 508 565 515
f 515 565 525
f 565 508 564
f 564 508 507
f 564 552 565
f 565 552 566
f 552 550 566
f 566 550 567
f 565 566 525
f 525 566 568
f 564 522 552
f 552 522 553
f 569 524 568
f 568 524 525
f 569 526 524
f 524 526 523
f 570 560 569
f 569 560 526
f 570 569 571
f 571 569 568
f 572 570 573
f 573 570 571
f 566 567 568
f 568 567 571
f 567 574 571
f 571 574 573
f 570 572 560
f 560 572 561
f 576 561 575
f 575 561 572
f 575 578 577
f 577 578 579
f 575 572 578
f 578 572 573
f 575 577 576
f 576 577 556
f 576 556 562
f 562 556 555
f 562 559 576
f 576 559 561
f 550 551 567
f 567 551 574
f 579 574 554
f 554 574 551
f 579 578 574
f 574 578 573
f 579 554 577
f 577 554 549
f 549 546 577
f 577 546 556
f 531 538 540
f 540 538 557
f 557 538 563
f 563 538 537
f 481 294 482
f 482 294 293
f 580 486 511
f 511 486 485
f 490 489 497
f 497 489 498
f 489 491 498
f 498 491 496
f 163 495 164
f 164 495 494
f 580 490 486
f 486 490 497
f 482 293 510
f 510 293 292
f 495 163 511
f 511 163 199
f 494 493 510
f 510 493 499
f 481 491 294
f 294 491 248
f 582 583 581
f 581 583 584
f 586 587 585
f 585 587 588
f 585 588 589
f 589 588 590
f 592 593 591
f 591 593 594
f 595 596 598
f 598 596 597
f 599 600 586
f 586 600 587
f 601 602 604
f 604 602 603
f 605 606 608
f 608 606 607
f 609 607 200
f 200 607 606
f 610 611 613
f 613 611 612
f 600 614 587
f 587 614 592
f 596 605 597
f 597 605 608
f 602 615 603
f 603 615 583
f 616 614 584
f 584 614 600
f 611 618 617
f 617 618 590
f 620 621 619
f 619 621 622
f 610 623 611
f 611 623 618
f 624 589 618
f 618 589 590
f 617 590 591
f 591 590 588
f 581 625 582
f 582 625 626
f 599 627 581
f 581 627 625
f 591 594 617
f 617 594 628
f 601 610 598
f 598 610 613
f 581 584 599
f 599 584 600
f 585 629 586
f 586 629 630
f 615 616 583
f 583 616 584
f 587 592 588
f 588 592 591
f 582 626 631
f 631 626 632
f 624 620 633
f 633 620 619
f 621 620 604
f 604 620 623
f 631 632 621
f 621 632 622
f 610 601 623
f 623 601 604
f 589 624 634
f 634 624 633
f 586 630 599
f 599 630 627
f 203 202 628
f 628 202 612
f 629 585 634
f 634 585 589
f 609 593 614
f 614 593 592
f 620 624 623
f 623 624 618
f 631 621 603
f 603 621 604
f 582 631 583
f 583 631 603
f 634 633 636
f 636 633 635
f 634 636 629
f 629 636 637
f 629 637 630
f 630 637 638
f 630 638 627
f 627 638 639
f 633 619 635
f 635 619 640
f 619 622 640
f 640 622 641
f 641 622 642
f 642 622 632
f 644 635 643
f 643 635 640
f 645 646 648
f 648 646 647
f 649 650 646
f 646 650 647
f 647 650 652
f 652 650 651
f 652 653 655
f 655 653 654
f 651 656 652
f 652 656 653
f 655 648 652
f 652 648 647
f 648 657 645
f 645 657 658
f 650 649 651
f 651 649 659
f 649 637 659
f 659 637 636
f 649 660 637
f 637 660 638
f 661 660 646
f 646 660 649
f 662 661 645
f 645 661 646
f 651 659 656
f 656 659 644
f 644 659 635
f 635 659 636
f 663 662 658
f 658 662 645
f 664 661 665
f 665 661 662
f 663 666 662
f 662 666 665
f 667 664 668
f 668 664 665
f 664 667 670
f 670 667 669
f 666 671 665
f 665 671 668
f 661 664 660
f 660 664 670
f 660 670 638
f 638 670 639
f 658 672 663
f 663 672 673
f 658 657 672
f 672 657 674
f 653 656 675
f 675 656 644
f 653 675 654
f 654 675 676
f 675 644 677
f 677 644 643
f 676 675 678
f 678 675 677
f 679 680 676
f 676 680 654
f 674 680 672
f 672 680 679
f 627 639 625
f 625 639 681
f 626 682 632
f 632 682 642
f 681 682 625
f 625 682 626
f 669 683 681
f 681 683 682
f 667 684 669
f 669 684 683
f 682 683 642
f 642 683 685
f 681 639 669
f 669 639 670
f 686 641 685
f 685 641 642
f 641 686 640
f 640 686 643
f 686 687 643
f 643 687 677
f 687 686 688
f 688 686 685
f 689 687 690
f 690 687 688
f 683 684 685
f 685 684 688
f 684 691 688
f 688 691 690
f 687 689 677
f 677 689 678
f 693 678 692
f 692 678 689
f 692 695 694
f 694 695 696
f 692 689 695
f 695 689 690
f 692 694 693
f 693 694 673
f 693 673 679
f 679 673 672
f 679 676 693
f 693 676 678
f 684 667 691
f 691 667 668
f 696 691 671
f 671 691 668
f 696 695 691
f 691 695 690
f 694 696 666
f 666 696 671
f 666 663 694
f 694 663 673
f 648 655 657
f 657 655 674
f 674 655 680
f 680 655 654
f 593 162 594
f 594 162 290
f 598 597 601
f 601 597 602
f 615 608 616
f 616 608 607
f 607 609 616
f 616 609 614
f 697 595 613
f 613 595 598
f 597 608 602
f 602 608 615
f 594 290 628
f 628 290 203
f 628 612 617
f 617 612 611
f 593 609 162
f 162 609 200
f 105 29 698
f 698 29 699
f 268 126 701
f 701 126 700
f 126 125 700
f 700 125 702
f 252 703 250
f 250 703 704
f 32 268 705
f 705 268 701
f 288 105 706
f 706 105 698
f 29 32 699
f 699 32 705
f 707 251 706
f 706 251 288
f 250 704 125
f 125 704 702
f 703 252 707
f 707 252 251
f 706 708 707
f 707 708 709
f 707 709 703
f 703 709 710
f 703 710 704
f 704 710 711
f 704 711 702
f 702 711 712
f 706 698 708
f 708 698 713
f 698 699 713
f 713 699 714
f 699 705 714
f 714 705 715
f 717 708 716
f 716 708 713
f 719 720 718
f 718 720 721
f 722 723 719
f 719 723 720
f 724 725 723
f 723 725 720
f 724 726 725
f 725 726 727
f 728 721 725
f 725 721 720
f 721 728 729
f 729 728 730
f 729 731 721
f 721 731 718
f 724 723 732
f 732 723 722
f 722 710 732
f 732 710 709
f 722 733 710
f 710 733 711
f 719 734 722
f 722 734 733
f 734 719 735
f 735 719 718
f 724 732 726
f 726 732 717
f 717 732 708
f 708 732 709
f 731 736 718
f 718 736 735
f 737 734 738
f 738 734 735
f 736 739 735
f 735 739 738
f 740 737 741
f 741 737 738
f 737 740 743
f 743 740 742
f 739 744 738
f 738 744 741
f 734 737 733
f 733 737 743
f 733 743 711
f 711 743 712
f 736 731 746
f 746 731 745
f 731 729 745
f 745 729 730
f 727 726 747
f 747 726 717
f 748 727 749
f 749 727 747
f 747 717 750
f 750 717 716
f 749 747 751
f 751 747 750
f 749 752 748
f 748 752 753
f 730 753 745
f 745 753 752
f 728 725 748
f 748 725 727
f 730 728 753
f 753 728 748
f 700 702 754
f 754 702 712
f 705 701 715
f 715 701 755
f 754 755 700
f 700 755 701
f 742 756 754
f 754 756 755
f 740 757 742
f 742 757 756
f 755 756 715
f 715 756 758
f 754 712 742
f 742 712 743
f 759 714 758
f 758 714 715
f 714 759 713
f 713 759 716
f 759 760 716
f 716 760 750
f 760 759 761
f 761 759 758
f 762 760 763
f 763 760 761
f 756 757 758
f 758 757 761
f 757 764 761
f 761 764 763
f 760 762 750
f 750 762 751
f 766 751 765
f 765 751 762
f 767 765 769
f 769 765 768
f 765 762 768
f 768 762 763
f 765 767 766
f 766 767 746
f 766 746 752
f 752 746 745
f 752 749 766
f 766 749 751
f 757 740 764
f 764 740 741
f 769 764 744
f 744 764 741
f 769 768 764
f 764 768 763
f 767 769 739
f 739 769 744
f 739 736 767
f 767 736 746
f 219 217 208
f 208 217 209
f 209 217 210
f 210 217 193
f 198 580 199
f 199 580 511
f 76 75 289
f 289 75 272
f 277 207 291
f 291 207 184
f 290 183 203
f 203 183 84
f 490 580 142
f 142 580 198
f 142 198 143
f 143 198 197
f 149 276 72
f 72 276 73
f 104 103 279
f 279 103 770
f 770 596 279
f 279 596 595
f 605 596 771
f 771 596 770
f 771 770 772
f 772 770 103
f 772 103 773
f 773 103 102
f 155 774 101
f 101 774 102
f 773 102 97
f 97 102 774
f 775 773 100
f 100 773 97
f 773 775 772
f 772 775 776
f 772 776 771
f 771 776 777
f 200 606 197
f 197 606 777
f 189 71 778
f 778 71 74
f 97 774 98
f 98 774 155
f 183 161 184
f 184 161 291
f 777 276 197
f 197 276 143
f 777 606 771
f 771 606 605
f 613 612 697
f 697 612 202
f 595 697 279
f 279 697 202
f 73 276 776
f 776 276 777
f 776 775 73
f 73 775 74
f 100 778 775
f 775 778 74
f 778 100 189
f 189 100 99
f 245 242 99
f 99 242 189
f 131 33 256
f 28 1 95
f 95 1 62
f 27 2 28
f 28 2 1
f 265 115 266
f 266 115 114
f 95 62 69
f 69 62 64
f 62 61 64
f 64 61 65
f 61 13 65
f 65 13 130
f 13 12 130
f 130 12 14
f 31 11 32
f 32 11 268
f 15 12 31
f 31 12 11
f 31 30 15
f 15 30 231
f 30 106 231
f 231 106 232
f 287 237 106
f 106 237 232
f 254 90 287
f 287 90 237
f 253 44 254
f 254 44 90
f 253 249 44
f 44 249 7
f 267 127 268
f 268 127 126
f 10 3 241
f 241 3 116
f 3 2 116
f 116 2 114
f 2 27 114
f 114 27 266
f 27 26 266
f 266 26 113
f 26 286 113
f 113 286 110
f 286 243 110
f 110 243 255
f 243 242 255
f 255 242 256
f 242 245 256
f 256 245 131
f 245 244 131
f 131 244 132
f 265 37 115
f 115 37 41
f 41 37 42
f 42 37 40
f 92 91 40
f 40 91 42
f 236 233 92
f 92 233 91
f 191 194 236
f 236 194 233
f 258 285 244
f 244 285 132
f 257 55 258
f 258 55 285
f 257 154 201
f 201 154 185
f 56 201 204
f 204 201 180
f 55 257 56
f 56 257 201
f 204 85 56
f 56 85 52
f 86 122 53
f 53 122 79
f 212 215 86
f 86 215 122
f 211 216 212
f 212 216 215
f 192 280 211
f 211 280 216
f 191 240 192
f 192 240 280
f 249 124 7
f 7 124 8
f 124 127 8
f 8 127 241
f 127 267 241
f 241 267 10
f 10 267 9
f 9 267 11
o hand_right
v -0.105122 0.174985 0.540807
v -0.113600 0.177442 0.534294
v -0.106007 0.170489 0.532800
v -0.097713 0.169371 0.538448
v -0.119603 0.170085 0.515514
v -0.117321 0.173642 0.503582
v -0.104990 0.163296 0.507591
v -0.109987 0.161621 0.517059
v -0.090464 0.166508 0.537213
v -0.099762 0.165306 0.531991
v -0.085953 0.168462 0.535875
v -0.076162 0.174843 0.541781
v -0.081734 0.169677 0.542297
v -0.070480 0.175906 0.547978
v -0.076227 0.185979 0.539498
v -0.068925 0.184137 0.553193
v -0.092815 0.202925 0.556127
v -0.103666 0.205394 0.563761
v -0.093088 0.197781 0.576831
v -0.083398 0.195053 0.567245
v -0.113738 0.199457 0.582177
v -0.101946 0.198177 0.579792
v -0.111902 0.206955 0.567385
v -0.121905 0.207454 0.570013
v -0.118656 0.181638 0.546064
v -0.126771 0.185148 0.539672
v -0.121756 0.183686 0.537638
v -0.114010 0.180198 0.543591
v -0.081630 0.166226 0.526305
v -0.081498 0.179184 0.525134
v -0.081579 0.174852 0.532008
v -0.084948 0.163010 0.529477
v -0.152630 0.189971 0.527665
v -0.156888 0.200448 0.520204
v -0.152295 0.200490 0.516451
v -0.149227 0.191263 0.524299
v -0.134289 0.191055 0.503967
v -0.138904 0.201006 0.503690
v -0.132428 0.210796 0.496442
v -0.125210 0.203351 0.497748
v -0.126283 0.181167 0.503373
v -0.119126 0.191199 0.496681
v -0.110031 0.181028 0.497918
v -0.098224 0.167778 0.502539
v -0.165698 0.203152 0.529187
v -0.164166 0.195415 0.535722
v -0.079339 0.135689 0.571374
v -0.084524 0.137755 0.573531
v -0.083267 0.141018 0.571716
v -0.078033 0.138553 0.570137
v -0.165050 0.213595 0.546652
v -0.160099 0.221945 0.549490
v -0.165354 0.224063 0.544878
v -0.168815 0.216342 0.540666
v -0.160037 0.209945 0.554513
v -0.152646 0.218450 0.555437
v -0.071582 0.132455 0.581242
v -0.072548 0.132046 0.576122
v -0.069686 0.136339 0.576051
v -0.069054 0.137668 0.581228
v -0.089354 0.168561 0.543494
v -0.098040 0.171071 0.546275
v -0.079728 0.164274 0.554939
v -0.086701 0.167330 0.553142
v -0.081543 0.168024 0.548249
v -0.075822 0.165720 0.550986
v -0.107163 0.173453 0.563738
v -0.113980 0.178282 0.555728
v -0.108066 0.176720 0.553245
v -0.099631 0.170561 0.560632
v -0.126683 0.178174 0.562081
v -0.118793 0.173942 0.569585
v -0.126970 0.174530 0.572260
v -0.131451 0.176454 0.566188
v -0.102480 0.167968 0.580164
v -0.098702 0.167694 0.583113
v -0.102544 0.165488 0.583997
v -0.106315 0.168100 0.581195
v -0.169880 0.227111 0.540299
v -0.171601 0.219272 0.534556
v -0.135264 0.197772 0.587207
v -0.145483 0.194003 0.583930
v -0.140289 0.187065 0.594526
v -0.130145 0.193552 0.596005
v -0.151183 0.227288 0.548804
v -0.157677 0.230573 0.545823
v -0.074010 0.134347 0.586666
v -0.072047 0.139553 0.586357
v -0.103995 0.192653 0.499792
v -0.091675 0.175226 0.503158
v -0.114113 0.205248 0.499537
v -0.120811 0.214278 0.500458
v -0.126230 0.221081 0.498358
v -0.088820 0.166517 0.559076
v -0.106026 0.175786 0.547735
v -0.123098 0.182205 0.548385
v -0.148858 0.178587 0.565213
v -0.154764 0.182381 0.557489
v -0.144950 0.179438 0.554037
v -0.141605 0.177279 0.561747
v -0.150127 0.185518 0.580972
v -0.147619 0.178772 0.577080
v -0.143093 0.175960 0.583657
v -0.144919 0.181144 0.589299
v -0.078609 0.167096 0.519261
v -0.082296 0.182049 0.517917
v -0.167043 0.204595 0.541331
v -0.168547 0.208188 0.534545
v -0.171243 0.213964 0.528855
v -0.139162 0.186859 0.532454
v -0.146932 0.191991 0.521835
v -0.143382 0.190811 0.519206
v -0.136280 0.187306 0.531261
v -0.123211 0.177585 0.526897
v -0.130549 0.179476 0.515753
v -0.114981 0.169120 0.527013
v -0.147053 0.201396 0.510146
v -0.156752 0.206674 0.509503
v -0.149964 0.207744 0.503745
v -0.163702 0.207991 0.516364
v -0.169025 0.210316 0.523185
v -0.163008 0.236594 0.542952
v -0.142742 0.209577 0.499712
v -0.102569 0.156277 0.518195
v -0.096592 0.150793 0.518438
v -0.095622 0.153636 0.525862
v -0.101541 0.159025 0.526614
v -0.065855 0.171972 0.555106
v -0.070533 0.167279 0.551270
v -0.075533 0.170905 0.545449
v -0.150917 0.185060 0.538093
v -0.160927 0.189769 0.544419
v -0.082304 0.164064 0.560654
v -0.067367 0.143397 0.579558
v -0.068054 0.141550 0.573855
v -0.065445 0.158609 0.562725
v -0.063782 0.160746 0.569360
v -0.082035 0.164840 0.570118
v -0.082784 0.163579 0.563091
v -0.083447 0.163285 0.565123
v -0.084784 0.163731 0.571762
v -0.111716 0.166886 0.585866
v -0.114855 0.169246 0.583044
v -0.076891 0.183422 0.576684
v -0.066520 0.185591 0.568185
v -0.074275 0.192531 0.559113
v -0.114028 0.174381 0.566602
v -0.108537 0.170214 0.574148
v -0.112262 0.170687 0.575998
v -0.089045 0.165803 0.563681
v -0.084226 0.164507 0.566537
v -0.087803 0.165278 0.569238
v -0.093794 0.167044 0.566222
v -0.151108 0.200775 0.573821
v -0.156618 0.190733 0.570897
v -0.075172 0.133445 0.572452
v -0.072994 0.136870 0.571755
v -0.120570 0.179068 0.558658
v -0.084872 0.198266 0.549033
v -0.128034 0.182386 0.550797
v -0.114042 0.182572 0.596781
v -0.118771 0.175543 0.595610
v -0.116919 0.170961 0.596239
v -0.112474 0.173955 0.598634
v -0.086349 0.150195 0.579895
v -0.086862 0.147670 0.574571
v -0.086848 0.143524 0.576345
v -0.086758 0.145083 0.582084
v -0.080055 0.162508 0.557935
v -0.074933 0.162122 0.554248
v -0.076544 0.158426 0.557652
v -0.080998 0.160463 0.561353
v -0.069569 0.162994 0.555146
v -0.070257 0.158083 0.558444
v -0.082170 0.150856 0.584948
v -0.075176 0.148975 0.587151
v -0.072746 0.165797 0.579357
v -0.080469 0.164044 0.578189
v -0.129052 0.216270 0.559526
v -0.139449 0.214730 0.563440
v -0.132585 0.206154 0.574192
v -0.125790 0.198522 0.585998
v -0.118689 0.190521 0.595722
v -0.106885 0.193140 0.592965
v -0.140797 0.205235 0.575439
v -0.080058 0.170232 0.575067
v -0.072550 0.174978 0.575561
v -0.077232 0.174729 0.577051
v -0.134584 0.180829 0.554074
v -0.071655 0.141285 0.569449
v -0.121531 0.229990 0.517980
v -0.128801 0.233981 0.528534
v -0.122785 0.228491 0.531941
v -0.114924 0.223295 0.519933
v -0.083397 0.144613 0.569410
v -0.077729 0.142199 0.567101
v -0.120400 0.168245 0.586443
v -0.116604 0.166299 0.588991
v -0.118382 0.166726 0.591810
v -0.123317 0.166772 0.590398
v -0.145435 0.213933 0.563893
v -0.137746 0.178490 0.598493
v -0.128295 0.185620 0.600192
v -0.144935 0.222286 0.554070
v -0.135851 0.224293 0.550906
v -0.141209 0.230144 0.545139
v -0.093602 0.186384 0.589417
v -0.120574 0.215514 0.557551
v -0.128630 0.223571 0.548314
v -0.134707 0.230505 0.541276
v -0.139413 0.235992 0.537001
v -0.146107 0.234902 0.541584
v -0.070632 0.145889 0.584646
v -0.077295 0.142361 0.589610
v -0.151450 0.241617 0.538508
v -0.143870 0.242027 0.533111
v -0.120585 0.222362 0.543937
v -0.111468 0.219736 0.537700
v -0.113178 0.214366 0.552932
v -0.103401 0.211310 0.547645
v -0.083851 0.191104 0.585939
v -0.089033 0.128811 0.589427
v -0.084705 0.139005 0.588997
v -0.087807 0.140481 0.584172
v -0.092056 0.130924 0.587067
v -0.083418 0.144851 0.587078
v -0.079331 0.137077 0.589937
v -0.094193 0.205327 0.537910
v -0.084298 0.165076 0.571932
v -0.102873 0.211801 0.524258
v -0.082783 0.194241 0.530510
v -0.090058 0.197147 0.519532
v -0.111105 0.216401 0.508971
v -0.099987 0.203128 0.507753
v -0.124025 0.229003 0.505676
v -0.117937 0.223301 0.508710
v -0.090011 0.188302 0.508082
v -0.086506 0.129002 0.573087
v -0.090701 0.131834 0.576229
v -0.126640 0.235676 0.514573
v -0.107432 0.163645 0.527102
v -0.139801 0.183327 0.544810
v -0.134620 0.184515 0.542837
v -0.157521 0.185108 0.552422
v -0.147430 0.181947 0.546949
v -0.081896 0.126016 0.573408
v -0.098290 0.168142 0.586152
v -0.099382 0.167108 0.585524
v -0.099223 0.156446 0.509703
v -0.094608 0.151753 0.510976
v -0.083023 0.158146 0.508786
v -0.088755 0.153885 0.507610
v -0.093078 0.160237 0.504870
v -0.087155 0.165281 0.505682
v -0.141419 0.186182 0.533772
v -0.144670 0.185458 0.535967
v -0.156236 0.205535 0.563699
v -0.160945 0.195152 0.561258
v -0.065459 0.165819 0.559205
v -0.063915 0.176809 0.561674
v -0.063865 0.169238 0.565228
v -0.066078 0.165280 0.574669
v -0.082654 0.166270 0.573525
v -0.079579 0.168756 0.574611
v -0.137520 0.185494 0.517786
v -0.130665 0.184490 0.529147
v -0.095832 0.162601 0.531357
v -0.091219 0.158227 0.530560
v -0.100995 0.169530 0.568947
v -0.090375 0.175299 0.590282
v -0.082763 0.178756 0.586160
v -0.094749 0.166864 0.574465
v -0.078686 0.122760 0.580750
v -0.079681 0.123911 0.575942
v -0.065699 0.173889 0.570866
v -0.120345 0.170619 0.578506
v -0.095699 0.177637 0.591629
v -0.095320 0.171288 0.590602
v -0.142278 0.176567 0.592087
v -0.134162 0.239543 0.524059
v -0.088498 0.139763 0.578396
v -0.092965 0.133316 0.580799
v -0.084976 0.127142 0.589517
v -0.080019 0.124912 0.586460
v -0.163546 0.198712 0.551122
v -0.130972 0.185005 0.541780
v -0.083555 0.174970 0.509974
v -0.079736 0.163627 0.513270
v -0.091295 0.167216 0.577085
v -0.121084 0.181860 0.598063
v -0.104674 0.183297 0.596524
v -0.103561 0.173464 0.599043
v -0.097932 0.169861 0.595202
v -0.097162 0.165714 0.589632
v -0.088778 0.122413 0.588384
v -0.083678 0.120716 0.585392
v -0.081603 0.119422 0.579631
v -0.082025 0.121107 0.575514
v -0.084227 0.124143 0.573388
v -0.093173 0.124276 0.588119
v -0.095545 0.126600 0.585713
v -0.095042 0.130649 0.581070
v -0.096985 0.121773 0.585177
v -0.094679 0.116720 0.584132
v -0.090790 0.114457 0.570186
v -0.087312 0.115155 0.575132
v -0.089851 0.113793 0.575233
v -0.093246 0.112792 0.571524
v -0.097457 0.111023 0.568870
v -0.095109 0.112565 0.566793
v -0.090758 0.114637 0.579951
v -0.095908 0.113053 0.575406
v -0.098954 0.114612 0.577923
v -0.102715 0.112538 0.574130
v -0.100171 0.110919 0.571954
v -0.095330 0.115220 0.581099
v -0.088701 0.115211 0.581922
v -0.099511 0.111398 0.565815
v -0.100049 0.110011 0.567799
v -0.102560 0.110307 0.569922
v -0.104200 0.111145 0.567538
v -0.084856 0.119783 0.572948
v -0.090532 0.116380 0.568311
v -0.095932 0.115381 0.565565
v -0.100236 0.113928 0.564833
v -0.093198 0.119425 0.567061
v -0.097383 0.117980 0.565556
v -0.101290 0.117025 0.565297
v -0.096557 0.122220 0.567546
v -0.099654 0.120115 0.566503
v -0.088967 0.126527 0.572892
v -0.085325 0.124203 0.572321
v -0.101829 0.119104 0.565712
v -0.105132 0.112988 0.566884
v -0.100191 0.117280 0.580295
v -0.104352 0.115176 0.574657
v -0.101419 0.119494 0.580075
v -0.105666 0.117103 0.574905
v -0.106575 0.112832 0.571438
v -0.104388 0.111674 0.571788
v -0.087928 0.127862 0.573818
v -0.092467 0.130598 0.577260
v -0.093560 0.129346 0.576487
v -0.100042 0.124393 0.570443
v -0.096662 0.128918 0.579704
v -0.098701 0.124643 0.582662
v -0.102720 0.121552 0.577991
v -0.102604 0.123674 0.575075
v -0.105587 0.119417 0.573743
v -0.104604 0.120910 0.571912
v -0.102520 0.121485 0.568536
v -0.106530 0.117598 0.570142
v -0.107038 0.114865 0.571023
v -0.104858 0.116321 0.566909
v -0.105730 0.119275 0.569823
v -0.103828 0.118645 0.567454
v -0.098002 0.139668 0.578366
v -0.103117 0.141870 0.581537
v -0.100144 0.145471 0.581557
v -0.095844 0.143480 0.578876
v -0.089371 0.133401 0.587323
v -0.091154 0.134890 0.581496
v -0.087522 0.138996 0.582577
v -0.086286 0.138579 0.589444
v -0.092006 0.135045 0.594082
v -0.089342 0.140768 0.595428
v -0.083571 0.144312 0.589492
v -0.085051 0.144521 0.582451
v -0.081515 0.164316 0.577574
v -0.079873 0.165742 0.583713
v -0.098421 0.166722 0.581457
v -0.099225 0.166863 0.585107
v -0.094614 0.137478 0.578802
v -0.091454 0.141225 0.579525
v -0.103601 0.150836 0.589030
v -0.102613 0.150149 0.583589
v -0.103617 0.146668 0.584903
v -0.104317 0.146559 0.590421
v -0.088662 0.164461 0.573750
v -0.093253 0.165855 0.577879
v -0.085081 0.164052 0.574475
v -0.100725 0.150051 0.595011
v -0.094942 0.148454 0.598380
v -0.090253 0.167569 0.594250
v -0.096065 0.166894 0.592762
v -0.088776 0.145394 0.578614
v -0.098895 0.148238 0.579453
v -0.094152 0.146850 0.577261
v -0.087473 0.146940 0.595335
v -0.096943 0.142392 0.598143
v -0.111545 0.129481 0.592626
v -0.104774 0.139476 0.595017
v -0.106935 0.141626 0.590730
v -0.114574 0.132098 0.589382
v -0.102193 0.144752 0.595356
v -0.099573 0.137055 0.596648
v -0.108719 0.130145 0.576168
v -0.113532 0.132867 0.579837
v -0.105058 0.127110 0.575900
v -0.083244 0.167548 0.589773
v -0.099276 0.123377 0.583609
v -0.101841 0.125041 0.577835
v -0.106396 0.142947 0.585679
v -0.115663 0.133465 0.584625
v -0.107589 0.127082 0.593234
v -0.100697 0.125072 0.590181
v -0.111420 0.122542 0.590611
v -0.105951 0.120515 0.587387
v -0.103810 0.119863 0.581124
v -0.104891 0.123014 0.576545
v -0.107142 0.126089 0.575376
v -0.115110 0.125122 0.590380
v -0.117370 0.128609 0.588020
v -0.116746 0.131573 0.583877
v -0.120404 0.124103 0.585366
v -0.118222 0.119548 0.585095
v -0.117315 0.119604 0.565278
v -0.113224 0.119139 0.569960
v -0.115067 0.117763 0.571343
v -0.118895 0.118228 0.567186
v -0.110064 0.117414 0.575390
v -0.112614 0.116862 0.575520
v -0.114847 0.116858 0.579957
v -0.118666 0.118005 0.574680
v -0.121752 0.119805 0.578134
v -0.125527 0.119716 0.573574
v -0.122837 0.117722 0.570127
v -0.118430 0.118302 0.581201
v -0.121993 0.118427 0.565149
v -0.122662 0.119956 0.563142
v -0.112379 0.116225 0.582554
v -0.106756 0.121930 0.574502
v -0.112651 0.121870 0.568222
v -0.117726 0.122657 0.563915
v -0.123930 0.122742 0.562896
v -0.114297 0.125881 0.567481
v -0.119174 0.125637 0.564150
v -0.124229 0.125233 0.563972
v -0.117097 0.129754 0.568649
v -0.121809 0.128595 0.565846
v -0.110400 0.130130 0.575650
v -0.107584 0.126510 0.573905
v -0.123884 0.127281 0.565228
v -0.126802 0.119317 0.565430
v -0.127658 0.122445 0.564710
v -0.125609 0.118551 0.566688
v -0.122954 0.121217 0.579416
v -0.126708 0.121561 0.573751
v -0.124374 0.123926 0.579422
v -0.128037 0.123594 0.573229
v -0.128823 0.120866 0.569377
v -0.127736 0.119626 0.569339
v -0.110156 0.129129 0.576684
v -0.114305 0.131599 0.580157
v -0.114376 0.132516 0.579402
v -0.121042 0.131212 0.572441
v -0.117598 0.131868 0.583053
v -0.120318 0.127927 0.584526
v -0.124595 0.126857 0.578953
v -0.123869 0.129886 0.576162
v -0.128697 0.125653 0.573432
v -0.126881 0.128306 0.572953
v -0.124388 0.129866 0.568981
v -0.129985 0.124665 0.568948
v -0.129662 0.122358 0.568993
v -0.127379 0.124555 0.565236
v -0.128491 0.127116 0.569550
v -0.126350 0.127278 0.566494
v -0.110647 0.143388 0.586152
v -0.115702 0.145285 0.588544
v -0.114052 0.148314 0.588931
v -0.109021 0.146578 0.586965
v -0.103311 0.138060 0.595175
v -0.104115 0.138555 0.590262
v -0.101586 0.142739 0.591500
v -0.100080 0.143440 0.596771
v -0.106812 0.137345 0.599831
v -0.102897 0.144337 0.602400
v -0.097873 0.148625 0.597554
v -0.099638 0.146893 0.591955
v -0.097888 0.161359 0.590175
v -0.097245 0.162831 0.596499
v -0.106926 0.140831 0.587339
v -0.105074 0.144346 0.588162
v -0.118117 0.150847 0.595744
v -0.116821 0.150231 0.590961
v -0.117484 0.148668 0.593139
v -0.117921 0.148174 0.597557
v -0.105847 0.162870 0.583816
v -0.111229 0.164272 0.586244
v -0.101599 0.161264 0.585680
v -0.115186 0.150813 0.601773
v -0.108773 0.150752 0.605373
v -0.110608 0.164828 0.601997
v -0.115322 0.164611 0.598146
v -0.103186 0.147229 0.588232
v -0.113146 0.149909 0.586970
v -0.107928 0.148478 0.585739
v -0.101719 0.150322 0.602590
v -0.109755 0.145090 0.604777
v -0.123986 0.128597 0.597449
v -0.116808 0.142216 0.602102
v -0.119440 0.144811 0.597340
v -0.126463 0.131473 0.595199
v -0.115593 0.146417 0.602625
v -0.111882 0.139609 0.603306
v -0.119289 0.132840 0.582570
v -0.123625 0.134271 0.585924
v -0.115063 0.131032 0.583291
v -0.102053 0.164587 0.601674
v -0.116813 0.164445 0.592012
v -0.111716 0.126345 0.588266
v -0.112948 0.128895 0.584890
v -0.118791 0.145767 0.592999
v -0.126611 0.133856 0.591100
v -0.119112 0.126621 0.598050
v -0.113194 0.126030 0.594447
v -0.122579 0.122658 0.594773
v -0.116525 0.122006 0.591124
v -0.114166 0.123822 0.585602
v -0.115130 0.128072 0.582990
v -0.117109 0.130684 0.582097
v -0.127133 0.126217 0.594456
v -0.128656 0.129545 0.592966
v -0.126575 0.133527 0.590754
v -0.129830 0.125492 0.591453
v -0.127086 0.121013 0.589260
v -0.128590 0.125619 0.571544
v -0.124069 0.125084 0.576086
v -0.124801 0.124395 0.576744
v -0.129381 0.124244 0.572365
v -0.119565 0.122707 0.581394
v -0.121576 0.122505 0.580797
v -0.123339 0.120742 0.584125
v -0.128459 0.121372 0.579391
v -0.132341 0.122939 0.584072
v -0.135776 0.123174 0.579416
v -0.132628 0.121567 0.574846
v -0.127232 0.121180 0.586852
v -0.132369 0.124016 0.570507
v -0.131981 0.124716 0.568849
v -0.121437 0.119815 0.586310
v -0.117883 0.127421 0.580394
v -0.123300 0.127943 0.575094
v -0.127819 0.128461 0.570661
v -0.132135 0.128396 0.568933
v -0.124573 0.131606 0.575685
v -0.128658 0.131181 0.571962
v -0.132570 0.130891 0.570501
v -0.126825 0.133818 0.577090
v -0.130339 0.133064 0.574029
v -0.120949 0.133688 0.582868
v -0.118592 0.131356 0.581105
v -0.132908 0.132113 0.572536
v -0.136254 0.123602 0.570754
v -0.137486 0.127630 0.571111
v -0.135175 0.123018 0.571960
v -0.133153 0.123544 0.585635
v -0.137715 0.124234 0.580063
v -0.134394 0.126065 0.586439
v -0.138637 0.126531 0.580968
v -0.138828 0.123902 0.575433
v -0.137778 0.123365 0.575512
v -0.120181 0.132814 0.582841
v -0.123803 0.134270 0.586585
v -0.124169 0.135074 0.586691
v -0.130620 0.135193 0.580456
v -0.127244 0.133940 0.590281
v -0.131030 0.129271 0.590462
v -0.134501 0.129542 0.585674
v -0.133752 0.133079 0.583607
v -0.138106 0.129347 0.580875
v -0.136371 0.131713 0.580589
v -0.133555 0.134095 0.576986
v -0.138704 0.129198 0.576635
v -0.139639 0.126351 0.576065
v -0.136730 0.130421 0.572488
v -0.137446 0.131385 0.577092
v -0.135755 0.132164 0.574021
v -0.115080 0.164570 0.588818
v -0.124242 0.146506 0.591930
v -0.128512 0.146939 0.592813
v -0.128395 0.147755 0.593203
v -0.124089 0.148357 0.591843
v -0.117715 0.146567 0.601399
v -0.118135 0.145799 0.596685
v -0.116983 0.149597 0.597516
v -0.116849 0.150497 0.602017
v -0.120999 0.147366 0.605537
v -0.120959 0.150736 0.605818
v -0.117423 0.154641 0.601572
v -0.117179 0.153768 0.596976
v -0.119347 0.170003 0.594942
v -0.121069 0.173048 0.599249
v -0.140328 0.170310 0.593830
v -0.138703 0.169684 0.588557
v -0.136755 0.161978 0.592223
v -0.138253 0.163761 0.596500
v -0.120652 0.146056 0.593551
v -0.119753 0.149116 0.593353
v -0.134529 0.149936 0.600357
v -0.132859 0.149396 0.595679
v -0.132069 0.147900 0.595399
v -0.134539 0.147677 0.599490
v -0.133877 0.168012 0.586496
v -0.128561 0.167840 0.587460
v -0.128396 0.163949 0.588005
v -0.132483 0.161054 0.589692
v -0.122985 0.165303 0.590266
v -0.132831 0.151116 0.604369
v -0.127738 0.152970 0.607296
v -0.134493 0.170348 0.603690
v -0.137498 0.167526 0.600494
v -0.119434 0.151431 0.593726
v -0.128943 0.149816 0.592754
v -0.124471 0.149593 0.592137
v -0.121360 0.154845 0.605903
v -0.127530 0.149415 0.606617
v -0.134081 0.138807 0.602292
v -0.133238 0.146029 0.603911
v -0.134850 0.146514 0.599304
v -0.135738 0.140024 0.599497
v -0.132752 0.147969 0.603699
v -0.127949 0.145811 0.606290
v -0.126478 0.141745 0.590488
v -0.131666 0.142093 0.592655
v -0.123095 0.140931 0.591301
v -0.126699 0.173768 0.602790
v -0.119893 0.138851 0.597978
v -0.120896 0.139461 0.593593
v -0.132171 0.146698 0.595249
v -0.135105 0.141381 0.595847
v -0.129371 0.137876 0.604129
v -0.122836 0.139063 0.603100
v -0.130122 0.133459 0.601143
v -0.123649 0.135031 0.600547
v -0.121100 0.136691 0.594883
v -0.122563 0.139237 0.591931
v -0.124925 0.141026 0.590462
v -0.135020 0.135306 0.599739
v -0.136580 0.137131 0.598006
v -0.135567 0.139860 0.595343
v -0.135554 0.132326 0.596815
v -0.131326 0.130332 0.595149
v -0.130279 0.132980 0.582107
v -0.127807 0.134634 0.585325
v -0.128052 0.133522 0.585844
v -0.129971 0.131944 0.582386
v -0.124600 0.135031 0.590052
v -0.125922 0.133684 0.589502
v -0.126750 0.132068 0.592792
v -0.129476 0.130162 0.588231
v -0.134200 0.128806 0.590590
v -0.135762 0.127427 0.586784
v -0.131314 0.128412 0.585105
v -0.130691 0.129988 0.593443
v -0.131340 0.129945 0.580741
v -0.131965 0.130316 0.579483
v -0.125178 0.132354 0.594963
v -0.125180 0.139003 0.588961
v -0.128814 0.136659 0.583768
v -0.131608 0.134028 0.580131
v -0.134132 0.131230 0.578727
v -0.130358 0.138719 0.584024
v -0.133312 0.135637 0.579929
v -0.135752 0.132896 0.578833
v -0.133353 0.140030 0.585049
v -0.135389 0.136630 0.581103
v -0.130955 0.142462 0.589785
v -0.127699 0.141379 0.588571
v -0.136594 0.134022 0.579886
v -0.134305 0.127302 0.580812
v -0.136595 0.129231 0.579982
v -0.133245 0.126918 0.582169
v -0.135554 0.128986 0.591269
v -0.137550 0.127484 0.586665
v -0.137658 0.130159 0.591719
v -0.139271 0.128870 0.586355
v -0.137101 0.126802 0.583141
v -0.135346 0.126624 0.584095
v -0.128989 0.141819 0.590284
v -0.132290 0.141417 0.592054
v -0.134576 0.141214 0.591978
v -0.136971 0.139123 0.587385
v -0.137174 0.138574 0.595020
v -0.137378 0.134980 0.596582
v -0.139220 0.132480 0.591192
v -0.139535 0.135667 0.589745
v -0.140130 0.130759 0.585527
v -0.140143 0.133766 0.584825
v -0.138360 0.136191 0.582999
v -0.139048 0.130301 0.581824
v -0.138556 0.128453 0.582076
v -0.137733 0.131033 0.580003
v -0.139291 0.132241 0.581874
v -0.138237 0.133152 0.580840
v -0.138720 0.171121 0.597615
v -0.073707 0.153161 0.523524
v -0.077030 0.153107 0.528215
v -0.089166 0.142503 0.524629
v -0.085699 0.146069 0.529821
v -0.088476 0.140379 0.518051
v -0.080992 0.143473 0.510502
v -0.085953 0.141870 0.512949
v -0.081337 0.150059 0.530982
v -0.072944 0.151911 0.517501
v -0.075700 0.148186 0.511590
v -0.066310 0.146015 0.521392
v -0.069467 0.141257 0.514895
v -0.074560 0.136418 0.513370
v -0.082025 0.136122 0.516018
v -0.085712 0.136010 0.519713
v -0.070905 0.148846 0.527324
v -0.075022 0.148976 0.531107
v -0.080976 0.146155 0.532551
v -0.070076 0.143958 0.533376
v -0.067660 0.134598 0.534057
v -0.075616 0.116501 0.533331
v -0.076792 0.121555 0.528713
v -0.074270 0.122107 0.529777
v -0.073161 0.117227 0.533566
v -0.074619 0.125891 0.525393
v -0.073485 0.125887 0.527479
v -0.070297 0.129767 0.529320
v -0.069716 0.125151 0.533066
v -0.068932 0.131977 0.533812
v -0.069034 0.129439 0.537425
v -0.068924 0.120823 0.536766
v -0.070935 0.115338 0.536363
v -0.068513 0.117197 0.539868
v -0.073477 0.114119 0.537674
v -0.067396 0.130260 0.527161
v -0.079543 0.128516 0.521551
v -0.080180 0.122319 0.527946
v -0.079156 0.117147 0.534069
v -0.076277 0.114845 0.539112
v -0.083676 0.124069 0.529758
v -0.081905 0.120026 0.535680
v -0.079060 0.118545 0.540525
v -0.085238 0.127172 0.533203
v -0.082457 0.123197 0.538022
v -0.087081 0.136370 0.526595
v -0.085005 0.132069 0.522382
v -0.079923 0.121208 0.540676
v -0.069610 0.115958 0.542126
v -0.072648 0.116977 0.543670
v -0.069194 0.132312 0.539216
v -0.067791 0.125420 0.540867
v -0.069038 0.127126 0.542875
v -0.071330 0.135411 0.540511
v -0.071034 0.128450 0.544352
v -0.068535 0.121612 0.544263
v -0.067488 0.121333 0.541706
v -0.087752 0.138652 0.524996
v -0.085662 0.142751 0.529671
v -0.085051 0.140954 0.530954
v -0.083622 0.132189 0.537387
v -0.080941 0.143801 0.534682
v -0.074860 0.144889 0.535123
v -0.074776 0.136400 0.541528
v -0.079417 0.135611 0.540517
v -0.074564 0.128982 0.544433
v -0.077402 0.128687 0.543325
v -0.080930 0.126056 0.541109
v -0.074435 0.123757 0.545144
v -0.071107 0.122781 0.545627
v -0.076115 0.119933 0.543801
v -0.076583 0.124950 0.543953
v -0.078251 0.122584 0.542758
v -0.140314 0.173327 0.586079
v -0.134743 0.171158 0.583020
v -0.138644 0.173684 0.579900
v -0.143622 0.175662 0.573154
v -0.151787 0.181366 0.570108
v -0.137500 0.175256 0.569611
v -0.132652 0.173057 0.577026
v -0.126755 0.169852 0.582208
v -0.135576 0.178592 0.560251
f 780 781 779
f 779 781 782
f 783 784 786
f 786 784 785
f 787 782 788
f 788 782 781
f 790 791 789
f 789 791 787
f 792 790 794
f 794 790 793
f 796 797 795
f 795 797 798
f 800 801 799
f 799 801 802
f 804 805 803
f 803 805 806
f 808 809 807
f 807 809 810
f 811 812 814
f 814 812 813
f 815 816 818
f 818 816 817
f 819 820 784
f 784 820 821
f 784 821 785
f 785 821 822
f 823 812 824
f 824 812 811
f 826 827 825
f 825 827 828
f 830 831 829
f 829 831 832
f 834 830 833
f 833 830 829
f 836 837 835
f 835 837 838
f 839 840 782
f 782 840 779
f 842 843 841
f 841 843 844
f 846 847 845
f 845 847 848
f 850 851 849
f 849 851 852
f 854 855 853
f 853 855 856
f 831 857 832
f 832 857 858
f 860 861 859
f 859 861 862
f 863 864 830
f 830 864 831
f 835 838 865
f 865 838 866
f 867 868 821
f 821 868 822
f 821 820 867
f 867 820 869
f 818 817 870
f 870 817 871
f 872 848 842
f 842 848 847
f 791 839 787
f 787 839 782
f 803 806 847
f 847 806 873
f 874 803 846
f 846 803 847
f 876 877 875
f 875 877 878
f 879 880 882
f 882 880 881
f 884 808 883
f 883 808 807
f 829 832 885
f 885 832 886
f 832 858 886
f 886 858 887
f 889 890 888
f 888 890 891
f 893 783 892
f 892 783 894
f 893 819 783
f 783 819 784
f 814 813 889
f 889 813 895
f 813 896 895
f 895 896 897
f 812 898 813
f 813 898 896
f 812 823 898
f 898 823 899
f 903 904 902
f 902 904 905
f 906 907 792
f 792 907 908
f 811 909 824
f 824 909 910
f 911 872 841
f 841 872 842
f 912 913 915
f 915 913 914
f 917 918 916
f 916 918 919
f 855 920 856
f 856 920 921
f 922 923 798
f 798 923 924
f 926 927 925
f 925 927 850
f 929 930 928
f 928 930 931
f 860 879 861
f 861 879 882
f 879 860 933
f 933 860 932
f 934 935 836
f 836 935 837
f 936 846 925
f 925 846 845
f 937 924 793
f 793 924 794
f 846 936 874
f 874 936 938
f 907 844 908
f 908 844 843
f 940 941 939
f 939 941 942
f 944 945 943
f 943 945 946
f 948 949 947
f 947 949 950
f 952 949 951
f 951 949 948
f 954 955 953
f 953 955 956
f 958 959 957
f 957 959 802
f 960 961 799
f 799 961 962
f 859 963 860
f 860 963 932
f 964 965 966
f 966 965 922
f 936 849 938
f 938 849 967
f 968 913 935
f 935 913 837
f 947 950 917
f 917 950 918
f 925 850 936
f 936 850 849
f 970 971 969
f 969 971 972
f 945 944 827
f 827 944 973
f 974 968 828
f 828 968 935
f 975 976 978
f 978 976 977
f 799 802 960
f 960 802 959
f 924 937 798
f 798 937 795
f 960 959 859
f 859 959 963
f 979 963 958
f 958 963 959
f 980 981 861
f 861 981 862
f 983 984 982
f 982 984 863
f 985 800 962
f 962 800 799
f 957 802 986
f 986 802 801
f 986 987 957
f 957 987 983
f 987 988 983
f 983 988 984
f 990 984 989
f 989 984 988
f 957 983 958
f 958 983 982
f 991 954 866
f 866 954 992
f 864 863 990
f 990 863 984
f 971 995 996
f 995 997 996
f 996 997 998
f 997 796 998
f 998 796 795
f 797 999 798
f 798 999 922
f 1000 1001 1003
f 1003 1001 1002
f 953 1004 954
f 954 1004 992
f 1005 865 992
f 992 865 866
f 998 795 1006
f 1006 795 937
f 912 991 838
f 838 991 866
f 916 1007 929
f 929 1007 930
f 971 970 988
f 988 970 989
f 1008 972 996
f 996 972 971
f 1009 1010 1006
f 1006 1010 1008
f 1011 1012 869
f 869 1012 867
f 1013 1014 871
f 871 1014 870
f 1008 1010 1012
f 1012 1010 1015
f 825 1016 826
f 826 1016 1017
f 1018 969 1013
f 1013 969 1014
f 783 786 894
f 894 786 1019
f 1020 1021 967
f 967 1021 938
f 1022 1023 876
f 876 1023 877
f 934 1024 825
f 825 1024 1016
f 854 1025 855
f 855 1025 1026
f 1028 903 1027
f 1027 903 902
f 1030 1031 1029
f 1029 1031 1032
f 889 888 814
f 814 888 1033
f 1034 811 1033
f 1033 811 814
f 1035 1036 932
f 932 1036 933
f 841 947 911
f 911 947 917
f 844 948 841
f 841 948 947
f 951 948 907
f 907 948 844
f 907 906 951
f 951 906 1037
f 906 1038 1037
f 1037 1038 1039
f 991 912 1040
f 1040 912 915
f 1041 1042 964
f 964 1042 965
f 890 1043 891
f 891 1043 1044
f 789 1045 1046
f 1012 1011 1008
f 1008 1011 972
f 931 1047 848
f 848 1047 845
f 953 956 943
f 943 956 919
f 928 931 872
f 872 931 848
f 1049 999 1048
f 1048 999 985
f 1047 931 1050
f 1050 931 930
f 899 823 887
f 887 823 886
f 825 828 934
f 934 828 935
f 835 1051 836
f 836 1051 1052
f 923 1053 1038
f 1038 1053 1039
f 1054 927 921
f 921 927 856
f 926 1047 853
f 853 1047 1050
f 985 1055 1048
f 1048 1055 1056
f 973 974 827
f 827 974 828
f 837 913 838
f 838 913 912
f 861 882 980
f 980 882 1057
f 927 926 856
f 856 926 853
f 1025 1056 1026
f 1026 1056 1055
f 961 960 862
f 862 960 859
f 826 1017 1059
f 1059 1017 1060
f 1005 1001 1061
f 1061 1001 1000
f 1001 1004 1002
f 1002 1004 946
f 1059 1060 1002
f 1002 1060 1003
f 943 946 953
f 953 946 1004
f 1042 1041 916
f 916 1041 1007
f 792 794 906
f 906 794 1038
f 998 1006 996
f 996 1006 1008
f 865 1005 1062
f 1062 1005 1061
f 1038 794 923
f 923 794 924
f 1022 876 1036
f 1036 876 933
f 836 1052 934
f 934 1052 1024
f 885 1063 829
f 829 1063 833
f 1021 1064 938
f 938 1064 874
f 1012 1015 867
f 867 1015 868
f 824 910 885
f 885 910 1063
f 1031 1030 1027
f 1027 1030 1028
f 1064 804 874
f 874 804 803
f 884 883 1065
f 1065 883 1066
f 1050 930 1067
f 1067 930 1007
f 916 929 917
f 917 929 911
f 961 1068 939
f 939 1068 940
f 1069 1070 1055
f 1055 1070 1071
f 929 928 911
f 911 928 872
f 1040 1053 955
f 955 1053 965
f 922 965 923
f 923 965 1053
f 1051 835 1062
f 1062 835 865
f 952 914 968
f 968 914 913
f 889 895 890
f 890 895 816
f 895 897 816
f 816 897 901
f 890 816 1043
f 1043 816 815
f 1065 1066 1032
f 1032 1066 1029
f 1006 937 1009
f 1009 937 793
f 1001 1005 1004
f 1004 1005 992
f 925 845 926
f 926 845 1047
f 1002 946 1059
f 1059 946 945
f 977 941 978
f 978 941 940
f 823 824 886
f 886 824 885
f 1059 945 826
f 826 945 827
f 939 942 1069
f 1069 942 1070
f 816 901 817
f 1071 1072 1055
f 1055 1072 1026
f 1062 1061 1074
f 1074 1061 1073
f 1062 1074 1051
f 1051 1074 1075
f 1052 1051 1076
f 1076 1051 1075
f 1024 1052 1077
f 1077 1052 1076
f 1061 1000 1073
f 1073 1000 1078
f 1000 1003 1078
f 1078 1003 1079
f 1079 1003 1080
f 1080 1003 1060
f 1081 1082 1078
f 1078 1082 1073
f 1084 1085 1083
f 1083 1085 1086
f 1087 1088 1086
f 1086 1088 1083
f 1086 1085 1090
f 1090 1085 1089
f 1091 1092 1090
f 1090 1092 1093
f 1089 1094 1090
f 1090 1094 1091
f 1095 1082 1089
f 1089 1082 1094
f 1093 1087 1090
f 1090 1087 1086
f 1096 1097 1099
f 1099 1097 1098
f 1097 1096 1087
f 1087 1096 1088
f 1089 1085 1095
f 1095 1085 1084
f 1084 1075 1095
f 1095 1075 1074
f 1084 1100 1075
f 1075 1100 1076
f 1083 1101 1084
f 1084 1101 1100
f 1101 1083 1102
f 1102 1083 1088
f 1082 1095 1073
f 1073 1095 1074
f 1096 1103 1088
f 1088 1103 1102
f 1101 1102 1104
f 1104 1102 1105
f 1102 1103 1105
f 1105 1103 1106
f 1104 1105 1107
f 1107 1105 1108
f 1107 1109 1104
f 1104 1109 1110
f 1111 1108 1106
f 1106 1108 1105
f 1101 1104 1100
f 1100 1104 1110
f 1100 1110 1076
f 1076 1110 1077
f 1103 1096 1112
f 1112 1096 1099
f 1091 1094 1113
f 1113 1094 1082
f 1113 1114 1091
f 1091 1114 1092
f 1082 1081 1113
f 1113 1081 1115
f 1114 1113 1116
f 1116 1113 1115
f 1114 1117 1092
f 1092 1117 1118
f 1024 1077 1016
f 1016 1077 1119
f 1017 1120 1060
f 1060 1120 1080
f 1120 1017 1119
f 1119 1017 1016
f 1119 1109 1120
f 1120 1109 1121
f 1109 1107 1121
f 1121 1107 1122
f 1120 1121 1080
f 1080 1121 1123
f 1119 1077 1109
f 1109 1077 1110
f 1124 1079 1123
f 1123 1079 1080
f 1124 1081 1079
f 1079 1081 1078
f 1125 1115 1124
f 1124 1115 1081
f 1125 1124 1126
f 1126 1124 1123
f 1127 1125 1128
f 1128 1125 1126
f 1121 1122 1123
f 1123 1122 1126
f 1122 1129 1126
f 1126 1129 1128
f 1115 1125 1116
f 1116 1125 1127
f 1131 1116 1130
f 1130 1116 1127
f 1130 1133 1132
f 1132 1133 1134
f 1130 1127 1133
f 1133 1127 1128
f 1130 1132 1131
f 1131 1132 1112
f 1131 1112 1117
f 1117 1112 1099
f 1117 1114 1131
f 1131 1114 1116
f 1107 1108 1122
f 1122 1108 1129
f 1134 1129 1111
f 1111 1129 1108
f 1134 1133 1129
f 1129 1133 1128
f 1132 1134 1106
f 1106 1134 1111
f 1106 1103 1132
f 1132 1103 1112
f 1087 1093 1097
f 1097 1093 1098
f 1098 1118 1099
f 1099 1118 1117
f 1098 1093 1118
f 1118 1093 1092
f 915 914 1039
f 1039 914 1037
f 918 944 919
f 919 944 943
f 950 949 973
f 973 949 974
f 949 952 974
f 974 952 968
f 956 955 1042
f 1042 955 965
f 950 973 918
f 918 973 944
f 915 1039 1040
f 1040 1039 1053
f 956 1042 919
f 919 1042 916
f 1040 955 991
f 991 955 954
f 914 952 1037
f 1037 952 951
f 1136 1137 1135
f 1135 1137 1138
f 1140 1141 1139
f 1139 1141 1142
f 1139 1142 1143
f 1143 1142 1144
f 1145 1146 1148
f 1148 1146 1147
f 854 1149 1025
f 1025 1149 1150
f 1151 1152 1140
f 1140 1152 1141
f 1154 1155 1153
f 1153 1155 1156
f 1067 1007 1158
f 1158 1007 1157
f 1159 1157 1041
f 1041 1157 1007
f 1161 1162 1160
f 1160 1162 1163
f 1164 1146 1152
f 1152 1146 1141
f 854 1067 1149
f 1149 1067 1158
f 1155 1154 1137
f 1137 1154 1165
f 1166 1164 1138
f 1138 1164 1152
f 1167 1161 1144
f 1144 1161 1168
f 1170 1171 1169
f 1169 1171 1172
f 1161 1160 1168
f 1168 1160 1173
f 1174 1143 1168
f 1168 1143 1144
f 1167 1144 1145
f 1145 1144 1142
f 1135 1175 1136
f 1136 1175 1176
f 1151 1177 1135
f 1135 1177 1175
f 1167 1145 1178
f 1178 1145 1148
f 1160 1163 1153
f 1153 1163 1150
f 1135 1138 1151
f 1151 1138 1152
f 1139 1179 1140
f 1140 1179 1180
f 1165 1166 1137
f 1137 1166 1138
f 1141 1146 1142
f 1142 1146 1145
f 1136 1176 1181
f 1181 1176 1182
f 1174 1170 1183
f 1183 1170 1169
f 1170 1173 1171
f 1171 1173 1156
f 1171 1181 1172
f 1172 1181 1182
f 1153 1156 1160
f 1160 1156 1173
f 1143 1174 1184
f 1184 1174 1183
f 1140 1180 1151
f 1151 1180 1177
f 1049 1048 1178
f 1178 1048 1162
f 1179 1139 1184
f 1184 1139 1143
f 1159 1147 1164
f 1164 1147 1146
f 1170 1174 1173
f 1173 1174 1168
f 1171 1156 1181
f 1181 1156 1155
f 1181 1155 1136
f 1136 1155 1137
f 1184 1183 1186
f 1186 1183 1185
f 1184 1186 1179
f 1179 1186 1187
f 1179 1187 1180
f 1180 1187 1188
f 1180 1188 1177
f 1177 1188 1189
f 1183 1169 1185
f 1185 1169 1190
f 1169 1172 1190
f 1190 1172 1191
f 1172 1182 1191
f 1191 1182 1192
f 1193 1194 1190
f 1190 1194 1185
f 1196 1197 1195
f 1195 1197 1198
f 1199 1200 1196
f 1196 1200 1197
f 1197 1200 1202
f 1202 1200 1201
f 1203 1204 1202
f 1202 1204 1205
f 1201 1206 1202
f 1202 1206 1203
f 1205 1198 1202
f 1202 1198 1197
f 1198 1207 1195
f 1195 1207 1208
f 1201 1200 1209
f 1209 1200 1199
f 1199 1187 1209
f 1209 1187 1186
f 1199 1210 1187
f 1187 1210 1188
f 1196 1211 1199
f 1199 1211 1210
f 1212 1211 1195
f 1195 1211 1196
f 1209 1194 1201
f 1201 1194 1206
f 1194 1209 1185
f 1185 1209 1186
f 1213 1212 1208
f 1208 1212 1195
f 1211 1212 1214
f 1214 1212 1215
f 1212 1213 1215
f 1215 1213 1216
f 1214 1215 1217
f 1217 1215 1218
f 1217 1219 1214
f 1214 1219 1220
f 1216 1221 1215
f 1215 1221 1218
f 1214 1220 1211
f 1211 1220 1210
f 1210 1220 1188
f 1188 1220 1189
f 1213 1208 1223
f 1223 1208 1222
f 1208 1207 1222
f 1222 1207 1224
f 1203 1206 1225
f 1225 1206 1194
f 1204 1203 1226
f 1226 1203 1225
f 1194 1193 1225
f 1225 1193 1227
f 1225 1227 1226
f 1226 1227 1228
f 1229 1230 1226
f 1226 1230 1204
f 1224 1230 1222
f 1222 1230 1229
f 1177 1189 1175
f 1175 1189 1231
f 1176 1232 1182
f 1182 1232 1192
f 1232 1176 1231
f 1231 1176 1175
f 1231 1219 1232
f 1232 1219 1233
f 1219 1217 1233
f 1233 1217 1234
f 1232 1233 1192
f 1192 1233 1235
f 1219 1231 1220
f 1220 1231 1189
f 1236 1191 1235
f 1235 1191 1192
f 1236 1193 1191
f 1191 1193 1190
f 1236 1237 1193
f 1193 1237 1227
f 1237 1236 1238
f 1238 1236 1235
f 1239 1237 1240
f 1240 1237 1238
f 1233 1234 1235
f 1235 1234 1238
f 1234 1241 1238
f 1238 1241 1240
f 1237 1239 1227
f 1227 1239 1228
f 1243 1228 1242
f 1242 1228 1239
f 1242 1245 1244
f 1244 1245 1246
f 1242 1239 1245
f 1245 1239 1240
f 1242 1244 1243
f 1243 1244 1223
f 1243 1223 1229
f 1229 1223 1222
f 1229 1226 1243
f 1243 1226 1228
f 1217 1218 1234
f 1234 1218 1241
f 1246 1241 1221
f 1221 1241 1218
f 1246 1245 1241
f 1241 1245 1240
f 1244 1246 1216
f 1216 1246 1221
f 1216 1213 1244
f 1244 1213 1223
f 1198 1205 1207
f 1207 1205 1224
f 1224 1205 1230
f 1230 1205 1204
f 1148 1147 966
f 966 1147 964
f 1149 1154 1150
f 1150 1154 1153
f 1158 1157 1165
f 1165 1157 1166
f 1157 1159 1166
f 1166 1159 1164
f 1163 1162 1056
f 1056 1162 1048
f 1158 1165 1149
f 1149 1165 1154
f 1178 1148 1049
f 1049 1148 966
f 1163 1056 1150
f 1150 1056 1025
f 1178 1162 1167
f 1167 1162 1161
f 1147 1159 964
f 964 1159 1041
f 999 1049 922
f 922 1049 966
f 999 797 985
f 985 797 800
f 797 796 800
f 800 796 801
f 796 997 801
f 801 997 986
f 1247 1248 1250
f 1250 1248 1249
f 1252 1253 1251
f 1251 1253 1254
f 1251 1254 1255
f 1255 1254 1256
f 1258 1259 1257
f 1257 1259 1260
f 1261 1262 1252
f 1252 1262 1253
f 1264 1265 1263
f 1263 1265 1266
f 1267 1268 855
f 855 1268 920
f 1269 1267 1026
f 1026 1267 855
f 1271 1272 1270
f 1270 1272 1273
f 1274 1258 1262
f 1262 1258 1253
f 1264 1275 1265
f 1265 1275 1249
f 1276 1274 1250
f 1250 1274 1262
f 1277 1271 1256
f 1256 1271 1278
f 1279 1280 1282
f 1282 1280 1281
f 1271 1270 1278
f 1278 1270 1283
f 1284 1255 1278
f 1278 1255 1256
f 1277 1256 1257
f 1257 1256 1254
f 1247 1285 1248
f 1248 1285 1286
f 1261 1287 1247
f 1247 1287 1285
f 1257 1260 1277
f 1277 1260 1288
f 1270 1273 1263
f 1263 1273 1289
f 1261 1247 1262
f 1262 1247 1250
f 1251 1290 1252
f 1252 1290 1291
f 1275 1276 1249
f 1249 1276 1250
f 1253 1258 1254
f 1254 1258 1257
f 1248 1286 1292
f 1292 1286 1293
f 1284 1280 1294
f 1294 1280 1279
f 1281 1280 1266
f 1266 1280 1283
f 1292 1293 1281
f 1281 1293 1282
f 1263 1266 1270
f 1270 1266 1283
f 1255 1284 1295
f 1295 1284 1294
f 1252 1291 1261
f 1261 1291 1287
f 1288 1070 1272
f 1272 1070 942
f 1290 1251 1295
f 1295 1251 1255
f 1269 1259 1274
f 1274 1259 1258
f 1280 1284 1283
f 1283 1284 1278
f 1281 1266 1292
f 1292 1266 1265
f 1292 1265 1248
f 1248 1265 1249
f 1295 1294 1297
f 1297 1294 1296
f 1295 1297 1290
f 1290 1297 1298
f 1290 1298 1291
f 1291 1298 1299
f 1291 1299 1287
f 1287 1299 1300
f 1294 1279 1296
f 1296 1279 1301
f 1279 1282 1301
f 1301 1282 1302
f 1302 1282 1303
f 1303 1282 1293
f 1304 1305 1301
f 1301 1305 1296
f 1307 1308 1306
f 1306 1308 1309
f 1310 1311 1307
f 1307 1311 1308
f 1308 1311 1313
f 1313 1311 1312
f 1314 1315 1313
f 1313 1315 1316
f 1312 1317 1313
f 1313 1317 1314
f 1316 1309 1313
f 1313 1309 1308
f 1318 1319 1309
f 1309 1319 1306
f 1311 1310 1312
f 1312 1310 1320
f 1310 1298 1320
f 1320 1298 1297
f 1310 1321 1298
f 1298 1321 1299
f 1307 1322 1310
f 1310 1322 1321
f 1322 1307 1323
f 1323 1307 1306
f 1312 1320 1317
f 1317 1320 1305
f 1305 1320 1296
f 1296 1320 1297
f 1319 1324 1306
f 1306 1324 1323
f 1325 1322 1326
f 1326 1322 1323
f 1324 1327 1323
f 1323 1327 1326
f 1328 1325 1329
f 1329 1325 1326
f 1325 1328 1331
f 1331 1328 1330
f 1327 1332 1326
f 1326 1332 1329
f 1322 1325 1321
f 1321 1325 1331
f 1321 1331 1299
f 1299 1331 1300
f 1324 1319 1334
f 1334 1319 1333
f 1319 1318 1333
f 1333 1318 1335
f 1314 1317 1336
f 1336 1317 1305
f 1315 1314 1337
f 1337 1314 1336
f 1305 1304 1336
f 1336 1304 1338
f 1337 1336 1339
f 1339 1336 1338
f 1337 1340 1315
f 1315 1340 1341
f 1335 1341 1333
f 1333 1341 1340
f 1287 1300 1285
f 1285 1300 1342
f 1286 1343 1293
f 1293 1343 1303
f 1343 1286 1342
f 1342 1286 1285
f 1342 1330 1343
f 1343 1330 1344
f 1330 1328 1344
f 1344 1328 1345
f 1343 1344 1303
f 1303 1344 1346
f 1342 1300 1330
f 1330 1300 1331
f 1347 1302 1346
f 1346 1302 1303
f 1347 1304 1302
f 1302 1304 1301
f 1348 1338 1347
f 1347 1338 1304
f 1348 1347 1349
f 1349 1347 1346
f 1350 1348 1351
f 1351 1348 1349
f 1344 1345 1346
f 1346 1345 1349
f 1345 1352 1349
f 1349 1352 1351
f 1348 1350 1338
f 1338 1350 1339
f 1354 1339 1353
f 1353 1339 1350
f 1353 1356 1355
f 1355 1356 1357
f 1353 1350 1356
f 1356 1350 1351
f 1353 1355 1354
f 1354 1355 1334
f 1354 1334 1340
f 1340 1334 1333
f 1340 1337 1354
f 1354 1337 1339
f 1328 1329 1345
f 1345 1329 1352
f 1357 1352 1332
f 1332 1352 1329
f 1357 1356 1352
f 1352 1356 1351
f 1357 1332 1355
f 1355 1332 1327
f 1327 1324 1355
f 1355 1324 1334
f 1309 1316 1318
f 1318 1316 1335
f 1335 1316 1341
f 1341 1316 1315
f 1259 1072 1260
f 1260 1072 1071
f 1358 1264 1289
f 1289 1264 1263
f 1268 1267 1275
f 1275 1267 1276
f 1267 1269 1276
f 1276 1269 1274
f 941 1273 942
f 942 1273 1272
f 1358 1268 1264
f 1264 1268 1275
f 1260 1071 1288
f 1288 1071 1070
f 1273 941 1289
f 1289 941 977
f 1272 1271 1288
f 1288 1271 1277
f 1259 1269 1072
f 1072 1269 1026
f 1360 1361 1359
f 1359 1361 1362
f 1364 1365 1363
f 1363 1365 1366
f 1363 1366 1367
f 1367 1366 1368
f 1370 1371 1369
f 1369 1371 1372
f 1373 1374 1376
f 1376 1374 1375
f 1377 1378 1364
f 1364 1378 1365
f 1379 1380 1382
f 1382 1380 1381
f 1383 1384 1386
f 1386 1384 1385
f 1387 1385 978
f 978 1385 1384
f 1388 1389 1391
f 1391 1389 1390
f 1378 1392 1365
f 1365 1392 1370
f 1374 1383 1375
f 1375 1383 1386
f 1380 1393 1381
f 1381 1393 1361
f 1394 1392 1362
f 1362 1392 1378
f 1389 1396 1395
f 1395 1396 1368
f 1398 1399 1397
f 1397 1399 1400
f 1388 1401 1389
f 1389 1401 1396
f 1402 1367 1396
f 1396 1367 1368
f 1395 1368 1369
f 1369 1368 1366
f 1359 1403 1360
f 1360 1403 1404
f 1377 1405 1359
f 1359 1405 1403
f 1369 1372 1395
f 1395 1372 1406
f 1379 1388 1376
f 1376 1388 1391
f 1359 1362 1377
f 1377 1362 1378
f 1363 1407 1364
f 1364 1407 1408
f 1393 1394 1361
f 1361 1394 1362
f 1365 1370 1366
f 1366 1370 1369
f 1360 1404 1409
f 1409 1404 1410
f 1402 1398 1411
f 1411 1398 1397
f 1399 1398 1382
f 1382 1398 1401
f 1409 1410 1399
f 1399 1410 1400
f 1388 1379 1401
f 1401 1379 1382
f 1367 1402 1412
f 1412 1402 1411
f 1364 1408 1377
f 1377 1408 1405
f 981 980 1406
f 1406 980 1390
f 1407 1363 1412
f 1412 1363 1367
f 1387 1371 1392
f 1392 1371 1370
f 1398 1402 1401
f 1401 1402 1396
f 1409 1399 1381
f 1381 1399 1382
f 1360 1409 1361
f 1361 1409 1381
f 1412 1411 1414
f 1414 1411 1413
f 1412 1414 1407
f 1407 1414 1415
f 1407 1415 1408
f 1408 1415 1416
f 1408 1416 1405
f 1405 1416 1417
f 1411 1397 1413
f 1413 1397 1418
f 1397 1400 1418
f 1418 1400 1419
f 1419 1400 1420
f 1420 1400 1410
f 1422 1413 1421
f 1421 1413 1418
f 1423 1424 1426
f 1426 1424 1425
f 1427 1428 1424
f 1424 1428 1425
f 1425 1428 1430
f 1430 1428 1429
f 1430 1431 1433
f 1433 1431 1432
f 1429 1434 1430
f 1430 1434 1431
f 1433 1426 1430
f 1430 1426 1425
f 1426 1435 1423
f 1423 1435 1436
f 1428 1427 1429
f 1429 1427 1437
f 1427 1415 1437
f 1437 1415 1414
f 1427 1438 1415
f 1415 1438 1416
f 1439 1438 1424
f 1424 1438 1427
f 1440 1439 1423
f 1423 1439 1424
f 1429 1437 1434
f 1434 1437 1422
f 1422 1437 1413
f 1413 1437 1414
f 1441 1440 1436
f 1436 1440 1423
f 1442 1439 1443
f 1443 1439 1440
f 1441 1444 1440
f 1440 1444 1443
f 1445 1442 1446
f 1446 1442 1443
f 1442 1445 1448
f 1448 1445 1447
f 1444 1449 1443
f 1443 1449 1446
f 1439 1442 1438
f 1438 1442 1448
f 1438 1448 1416
f 1416 1448 1417
f 1436 1450 1441
f 1441 1450 1451
f 1436 1435 1450
f 1450 1435 1452
f 1431 1434 1453
f 1453 1434 1422
f 1431 1453 1432
f 1432 1453 1454
f 1453 1422 1455
f 1455 1422 1421
f 1454 1453 1456
f 1456 1453 1455
f 1457 1458 1454
f 1454 1458 1432
f 1452 1458 1450
f 1450 1458 1457
f 1405 1417 1403
f 1403 1417 1459
f 1404 1460 1410
f 1410 1460 1420
f 1459 1460 1403
f 1403 1460 1404
f 1447 1461 1459
f 1459 1461 1460
f 1445 1462 1447
f 1447 1462 1461
f 1460 1461 1420
f 1420 1461 1463
f 1459 1417 1447
f 1447 1417 1448
f 1464 1419 1463
f 1463 1419 1420
f 1419 1464 1418
f 1418 1464 1421
f 1464 1465 1421
f 1421 1465 1455
f 1465 1464 1466
f 1466 1464 1463
f 1467 1465 1468
f 1468 1465 1466
f 1461 1462 1463
f 1463 1462 1466
f 1462 1469 1466
f 1466 1469 1468
f 1465 1467 1455
f 1455 1467 1456
f 1471 1456 1470
f 1470 1456 1467
f 1470 1473 1472
f 1472 1473 1474
f 1470 1467 1473
f 1473 1467 1468
f 1470 1472 1471
f 1471 1472 1451
f 1471 1451 1457
f 1457 1451 1450
f 1457 1454 1471
f 1471 1454 1456
f 1462 1445 1469
f 1469 1445 1446
f 1474 1469 1449
f 1449 1469 1446
f 1474 1473 1469
f 1469 1473 1468
f 1472 1474 1444
f 1444 1474 1449
f 1444 1441 1472
f 1472 1441 1451
f 1426 1433 1435
f 1435 1433 1452
f 1452 1433 1458
f 1458 1433 1432
f 1371 940 1372
f 1372 940 1068
f 1376 1375 1379
f 1379 1375 1380
f 1393 1386 1394
f 1394 1386 1385
f 1385 1387 1394
f 1394 1387 1392
f 1475 1373 1391
f 1391 1373 1376
f 1375 1386 1380
f 1380 1386 1393
f 1372 1068 1406
f 1406 1068 981
f 1406 1390 1395
f 1395 1390 1389
f 1371 1387 940
f 940 1387 978
f 883 807 1476
f 1476 807 1477
f 1046 904 1479
f 1479 904 1478
f 904 903 1478
f 1478 903 1480
f 1030 1481 1028
f 1028 1481 1482
f 810 1046 1483
f 1483 1046 1479
f 1066 883 1484
f 1484 883 1476
f 807 810 1477
f 1477 810 1483
f 1485 1029 1484
f 1484 1029 1066
f 1028 1482 903
f 903 1482 1480
f 1481 1030 1485
f 1485 1030 1029
f 1484 1486 1485
f 1485 1486 1487
f 1485 1487 1481
f 1481 1487 1488
f 1481 1488 1482
f 1482 1488 1489
f 1482 1489 1480
f 1480 1489 1490
f 1484 1476 1486
f 1486 1476 1491
f 1476 1477 1491
f 1491 1477 1492
f 1477 1483 1492
f 1492 1483 1493
f 1495 1486 1494
f 1494 1486 1491
f 1497 1498 1496
f 1496 1498 1499
f 1500 1501 1497
f 1497 1501 1498
f 1502 1503 1501
f 1501 1503 1498
f 1502 1504 1503
f 1503 1504 1505
f 1506 1499 1503
f 1503 1499 1498
f 1499 1506 1507
f 1507 1506 1508
f 1507 1509 1499
f 1499 1509 1496
f 1502 1501 1510
f 1510 1501 1500
f 1500 1488 1510
f 1510 1488 1487
f 1500 1511 1488
f 1488 1511 1489
f 1497 1512 1500
f 1500 1512 1511
f 1512 1497 1513
f 1513 1497 1496
f 1502 1510 1504
f 1504 1510 1495
f 1495 1510 1486
f 1486 1510 1487
f 1509 1514 1496
f 1496 1514 1513
f 1515 1512 1516
f 1516 1512 1513
f 1514 1517 1513
f 1513 1517 1516
f 1518 1515 1519
f 1519 1515 1516
f 1515 1518 1521
f 1521 1518 1520
f 1517 1522 1516
f 1516 1522 1519
f 1512 1515 1511
f 1511 1515 1521
f 1511 1521 1489
f 1489 1521 1490
f 1514 1509 1524
f 1524 1509 1523
f 1509 1507 1523
f 1523 1507 1508
f 1505 1504 1525
f 1525 1504 1495
f 1526 1505 1527
f 1527 1505 1525
f 1525 1495 1528
f 1528 1495 1494
f 1527 1525 1529
f 1529 1525 1528
f 1527 1530 1526
f 1526 1530 1531
f 1508 1531 1523
f 1523 1531 1530
f 1506 1503 1526
f 1526 1503 1505
f 1508 1506 1531
f 1531 1506 1526
f 1478 1480 1532
f 1532 1480 1490
f 1483 1479 1493
f 1493 1479 1533
f 1532 1533 1478
f 1478 1533 1479
f 1520 1534 1532
f 1532 1534 1533
f 1518 1535 1520
f 1520 1535 1534
f 1533 1534 1493
f 1493 1534 1536
f 1532 1490 1520
f 1520 1490 1521
f 1537 1492 1536
f 1536 1492 1493
f 1492 1537 1491
f 1491 1537 1494
f 1537 1538 1494
f 1494 1538 1528
f 1538 1537 1539
f 1539 1537 1536
f 1540 1538 1541
f 1541 1538 1539
f 1534 1535 1536
f 1536 1535 1539
f 1535 1542 1539
f 1539 1542 1541
f 1538 1540 1528
f 1528 1540 1529
f 1544 1529 1543
f 1543 1529 1540
f 1545 1543 1547
f 1547 1543 1546
f 1543 1540 1546
f 1546 1540 1541
f 1543 1545 1544
f 1544 1545 1524
f 1544 1524 1530
f 1530 1524 1523
f 1530 1527 1544
f 1544 1527 1529
f 1535 1518 1542
f 1542 1518 1519
f 1547 1542 1522
f 1522 1542 1519
f 1547 1546 1542
f 1542 1546 1541
f 1545 1547 1517
f 1517 1547 1522
f 1517 1514 1545
f 1545 1514 1524
f 997 995 986
f 986 995 987
f 987 995 988
f 988 995 971
f 976 1358 977
f 977 1358 1289
f 854 853 1067
f 1067 853 1050
f 1055 985 1069
f 1069 985 962
f 1068 961 981
f 981 961 862
f 1268 1358 920
f 920 1358 976
f 920 976 921
f 921 976 975
f 927 1054 850
f 850 1054 851
f 882 881 1057
f 1057 881 1548
f 1548 1374 1057
f 1057 1374 1373
f 1383 1374 1549
f 1549 1374 1548
f 1549 1548 1550
f 1550 1548 881
f 1550 881 1551
f 1551 881 880
f 933 1552 879
f 879 1552 880
f 1551 880 875
f 875 880 1552
f 1553 1551 878
f 878 1551 875
f 1551 1553 1550
f 1550 1553 1554
f 1550 1554 1549
f 1549 1554 1555
f 978 1384 975
f 975 1384 1555
f 967 849 1556
f 1556 849 852
f 875 1552 876
f 876 1552 933
f 961 939 962
f 962 939 1069
f 1555 1054 975
f 975 1054 921
f 1555 1384 1549
f 1549 1384 1383
f 1391 1390 1475
f 1475 1390 980
f 1373 1475 1057
f 1057 1475 980
f 851 1054 1554
f 1554 1054 1555
f 1554 1553 851
f 851 1553 852
f 878 1556 1553
f 1553 1556 852
f 1556 878 967
f 967 878 877
f 1023 1020 877
f 877 1020 967
f 909 811 1034
f 806 779 873
f 873 779 840
f 805 780 806
f 806 780 779
f 1043 893 1044
f 1044 893 892
f 873 840 847
f 847 840 842
f 840 839 842
f 842 839 843
f 839 791 843
f 843 791 908
f 791 790 908
f 908 790 792
f 809 789 810
f 810 789 1046
f 793 790 809
f 809 790 789
f 809 808 793
f 793 808 1009
f 808 884 1009
f 1009 884 1010
f 1065 1015 884
f 884 1015 1010
f 1032 868 1065
f 1065 868 1015
f 1031 822 1032
f 1032 822 868
f 1031 1027 822
f 822 1027 785
f 1045 905 1046
f 1046 905 904
f 788 781 1019
f 1019 781 894
f 781 780 894
f 894 780 892
f 780 805 892
f 892 805 1044
f 805 804 1044
f 1044 804 891
f 804 1064 891
f 891 1064 888
f 1064 1021 888
f 888 1021 1033
f 1021 1020 1033
f 1033 1020 1034
f 1020 1023 1034
f 1034 1023 909
f 1023 1022 909
f 909 1022 910
f 1043 815 893
f 893 815 819
f 819 815 820
f 820 815 818
f 870 869 818
f 818 869 820
f 1014 1011 870
f 870 1011 869
f 969 972 1014
f 1014 972 1011
f 1036 1063 1022
f 1022 1063 910
f 1035 833 1036
f 1036 833 1063
f 1035 932 979
f 979 932 963
f 834 979 982
f 982 979 958
f 833 1035 834
f 834 1035 979
f 982 863 834
f 834 863 830
f 864 900 831
f 831 900 857
f 990 993 864
f 864 993 900
f 989 994 990
f 990 994 993
f 970 1058 989
f 989 1058 994
f 969 1018 970
f 970 1018 1058
f 1027 902 785
f 785 902 786
f 902 905 786
f 786 905 1019
f 905 1045 1019
f 1019 1045 788
f 788 1045 787
f 787 1045 789
