o hand_left
v 0.058057 -0.086249 0.678769
v 0.047996 -0.086079 0.674080
v 0.053884 -0.078129 0.677567
v 0.063545 -0.078711 0.680569
v 0.035377 -0.070142 0.668980
v 0.033739 -0.063622 0.658578
v 0.045774 -0.056184 0.667261
v 0.044481 -0.062898 0.675156
v 0.069638 -0.073920 0.680964
v 0.059143 -0.072265 0.680309
v 0.073684 -0.073611 0.677373
v 0.085222 -0.077873 0.675078
v 0.079881 -0.076448 0.680374
v 0.092592 -0.080757 0.677393
v 0.085218 -0.083395 0.665152
v 0.095723 -0.089233 0.673768
v 0.076947 -0.110850 0.665465
v 0.069555 -0.121153 0.670098
v 0.082058 -0.121427 0.682033
v 0.087894 -0.110153 0.676641
v 0.065115 -0.132610 0.687401
v 0.075102 -0.126618 0.685035
v 0.063250 -0.127193 0.672446
v 0.054830 -0.132394 0.675236
v 0.047891 -0.098454 0.678977
v 0.038412 -0.098893 0.673425
v 0.042219 -0.094959 0.672522
v 0.051241 -0.094326 0.677822
v 0.074830 -0.065707 0.671838
v 0.074827 -0.071380 0.661520
v 0.076833 -0.073665 0.669032
v 0.072692 -0.066916 0.676961
v 0.010579 -0.101787 0.666066
v 0.005005 -0.104730 0.654066
v 0.008054 -0.100717 0.650944
v 0.012735 -0.099251 0.662414
v 0.019737 -0.080409 0.647490
v 0.016323 -0.088020 0.640432
v 0.020945 -0.087219 0.627472
v 0.027398 -0.081032 0.632845
v 0.026020 -0.071088 0.653643
v 0.031455 -0.070641 0.640665
v 0.039201 -0.062137 0.648171
v 0.050705 -0.053947 0.659528
v -0.000060 -0.115455 0.659109
v 0.002935 -0.114508 0.668858
v 0.104741 -0.073808 0.719996
v 0.100844 -0.077854 0.722247
v 0.100441 -0.078716 0.719844
v 0.104432 -0.074610 0.718028
v 0.007477 -0.134030 0.662296
v 0.013865 -0.139907 0.657103
v 0.007589 -0.139726 0.653348
v 0.002215 -0.132867 0.656952
v 0.014447 -0.135470 0.669348
v 0.022507 -0.139386 0.662405
v 0.116689 -0.076243 0.724244
v 0.113422 -0.072785 0.722093
v 0.114949 -0.075003 0.718591
v 0.118057 -0.079315 0.720054
v 0.073151 -0.078864 0.683115
v 0.066252 -0.085173 0.684166
v 0.086568 -0.080864 0.694095
v 0.078853 -0.083778 0.690028
v 0.081970 -0.079115 0.685703
v 0.088865 -0.077880 0.688911
v 0.063914 -0.101586 0.695004
v 0.055240 -0.101429 0.687072
v 0.059810 -0.096826 0.685781
v 0.069727 -0.095206 0.694084
v 0.045421 -0.109695 0.693217
v 0.054987 -0.109504 0.700258
v 0.048292 -0.114242 0.702884
v 0.042186 -0.112835 0.697963
v 0.073124 -0.107439 0.710057
v 0.078792 -0.107827 0.713649
v 0.076955 -0.109365 0.715808
v 0.070546 -0.109819 0.711129
v 0.002131 -0.139968 0.648788
v -0.002129 -0.131432 0.651249
v 0.046981 -0.141703 0.695451
v 0.036163 -0.140316 0.698086
v 0.043869 -0.141973 0.709321
v 0.053811 -0.143451 0.703360
v 0.022499 -0.140114 0.651285
v 0.015705 -0.142203 0.647911
v 0.116930 -0.081871 0.727092
v 0.118232 -0.084976 0.723199
v 0.046633 -0.069066 0.639347
v 0.057469 -0.057264 0.653036
v 0.038575 -0.079977 0.630936
v 0.033515 -0.088576 0.625673
v 0.028376 -0.093219 0.620065
v 0.078883 -0.088034 0.695244
v 0.059730 -0.091778 0.682658
v 0.044554 -0.101828 0.680692
v 0.025713 -0.118895 0.698303
v 0.017883 -0.117905 0.691258
v 0.025684 -0.110650 0.689805
v 0.031240 -0.113471 0.695961
v 0.030269 -0.134370 0.703424
v 0.030908 -0.126636 0.705783
v 0.037337 -0.128055 0.711941
v 0.037622 -0.135854 0.711572
v 0.075487 -0.060283 0.666655
v 0.071979 -0.068405 0.655166
v 0.002923 -0.125166 0.665976
v -0.000454 -0.123288 0.659152
v -0.004232 -0.123932 0.651557
v 0.024511 -0.098884 0.669409
v 0.014123 -0.097300 0.659920
v 0.016393 -0.093599 0.658603
v 0.026806 -0.097453 0.667863
v 0.036436 -0.084004 0.670711
v 0.026001 -0.079841 0.663278
v 0.043468 -0.075950 0.676269
v 0.010926 -0.095289 0.645453
v 0.002153 -0.101306 0.642534
v 0.006681 -0.095875 0.637051
v -0.001919 -0.109098 0.646951
v -0.004428 -0.116971 0.650369
v 0.010337 -0.145803 0.642315
v 0.012260 -0.091986 0.632040
v 0.051717 -0.058656 0.679052
v 0.058228 -0.055052 0.682673
v 0.061272 -0.061906 0.684592
v 0.055653 -0.065790 0.681845
v 0.100096 -0.082221 0.682872
v 0.094343 -0.077750 0.686150
v 0.086863 -0.077187 0.680590
v 0.015247 -0.105242 0.676177
v 0.008398 -0.115736 0.678200
v 0.086922 -0.085480 0.699052
v 0.117631 -0.081548 0.714907
v 0.114366 -0.076516 0.713760
v 0.107340 -0.079622 0.696994
v 0.111303 -0.085340 0.697693
v 0.093736 -0.092090 0.704883
v 0.090248 -0.086652 0.702480
v 0.092000 -0.087811 0.704320
v 0.094193 -0.092944 0.707879
v 0.068991 -0.114076 0.717198
v 0.063309 -0.114388 0.712938
v 0.096575 -0.107655 0.689927
v 0.102657 -0.099668 0.680400
v 0.093255 -0.100248 0.672285
v 0.058504 -0.106298 0.697201
v 0.065824 -0.106957 0.704683
v 0.063082 -0.109732 0.706172
v 0.080485 -0.090875 0.698879
v 0.087058 -0.090447 0.702399
v 0.083581 -0.093966 0.702652
v 0.076906 -0.094938 0.699679
v 0.028290 -0.139667 0.687295
v 0.021300 -0.132975 0.693885
v 0.109182 -0.071963 0.720267
v 0.109794 -0.073224 0.717639
v 0.050102 -0.106019 0.689387
v 0.081496 -0.100531 0.663315
v 0.040738 -0.105184 0.682844
v 0.068875 -0.133198 0.709490
v 0.064252 -0.129562 0.715264
v 0.067943 -0.126991 0.719483
v 0.072802 -0.130077 0.717142
v 0.100390 -0.090969 0.720695
v 0.097916 -0.085703 0.720299
v 0.099330 -0.084479 0.722244
v 0.102041 -0.089497 0.724283
v 0.090588 -0.081750 0.699203
v 0.093265 -0.077803 0.694716
v 0.095723 -0.078209 0.700455
v 0.093168 -0.082931 0.703109
v 0.099041 -0.077837 0.692174
v 0.101471 -0.077219 0.697801
v 0.106216 -0.094184 0.720580
v 0.113705 -0.092667 0.719406
v 0.107183 -0.097357 0.703721
v 0.100876 -0.096845 0.708233
v 0.045672 -0.133285 0.663074
v 0.037097 -0.138198 0.668315
v 0.046069 -0.137620 0.680560
v 0.055183 -0.138407 0.692523
v 0.063888 -0.137656 0.703563
v 0.073855 -0.133975 0.697537
v 0.038837 -0.140475 0.683311
v 0.095784 -0.099485 0.702046
v 0.101875 -0.100484 0.694512
v 0.097770 -0.103908 0.697438
v 0.035550 -0.108450 0.687138
v 0.109170 -0.074146 0.713831
v 0.040210 -0.111078 0.625208
v 0.037276 -0.123276 0.630022
v 0.043516 -0.120220 0.635410
v 0.046419 -0.106034 0.630524
v 0.098939 -0.079106 0.718217
v 0.102870 -0.074636 0.715407
v 0.059529 -0.118266 0.716758
v 0.065477 -0.117785 0.719963
v 0.065717 -0.121081 0.721677
v 0.058598 -0.121463 0.721156
v 0.031613 -0.139887 0.670094
v 0.047832 -0.139650 0.717866
v 0.056819 -0.141888 0.711650
v 0.029635 -0.138533 0.657457
v 0.037275 -0.134799 0.652552
v 0.030873 -0.136254 0.645294
v 0.085545 -0.123876 0.698283
v 0.052872 -0.128781 0.661101
v 0.043095 -0.130263 0.650366
v 0.035718 -0.131799 0.641584
v 0.030382 -0.133816 0.635453
v 0.025549 -0.138389 0.640193
v 0.117077 -0.087597 0.717509
v 0.114593 -0.090548 0.725932
v 0.020151 -0.142282 0.633952
v 0.025482 -0.136424 0.629076
v 0.049049 -0.123906 0.647299
v 0.055241 -0.114998 0.643984
v 0.058146 -0.122575 0.657918
v 0.065226 -0.113845 0.655425
v 0.092328 -0.120800 0.690244
v 0.105410 -0.082561 0.739141
v 0.107473 -0.088997 0.730607
v 0.102369 -0.087457 0.728085
v 0.101350 -0.082845 0.737599
v 0.107348 -0.091969 0.725715
v 0.113026 -0.087291 0.729927
v 0.070021 -0.100354 0.652379
v 0.089410 -0.094402 0.705911
v 0.058049 -0.097818 0.640201
v 0.076942 -0.084577 0.654183
v 0.066794 -0.081106 0.646307
v 0.045655 -0.092763 0.628169
v 0.054313 -0.079937 0.635802
v 0.033622 -0.102719 0.618480
v 0.039825 -0.099236 0.623822
v 0.061802 -0.067896 0.645736
v 0.100429 -0.071268 0.728228
v 0.097541 -0.076115 0.730046
v 0.034824 -0.114017 0.619498
v 0.050431 -0.070042 0.679604
v 0.027760 -0.105304 0.680099
v 0.032074 -0.103118 0.677131
v 0.013853 -0.117068 0.686336
v 0.021180 -0.108212 0.683699
v 0.105233 -0.068582 0.728347
v 0.082881 -0.110917 0.715586
v 0.081535 -0.111423 0.714672
v 0.052372 -0.052308 0.673136
v 0.057932 -0.049715 0.677192
v 0.068074 -0.049031 0.668741
v 0.062308 -0.047081 0.672567
v 0.057002 -0.049822 0.666233
v 0.062951 -0.051999 0.661655
v 0.022788 -0.100048 0.671126
v 0.020422 -0.102108 0.673561
v 0.020645 -0.137584 0.677976
v 0.014458 -0.130674 0.684948
v 0.104054 -0.081651 0.690090
v 0.103825 -0.089529 0.681810
v 0.107280 -0.087883 0.689923
v 0.110599 -0.092470 0.698374
v 0.093811 -0.096413 0.706201
v 0.097544 -0.096933 0.702851
v 0.020774 -0.087336 0.660917
v 0.030977 -0.092402 0.667845
v 0.062719 -0.069278 0.681010
v 0.066958 -0.066570 0.682683
v 0.071044 -0.100560 0.700615
v 0.091235 -0.118476 0.706992
v 0.096587 -0.115616 0.700507
v 0.078575 -0.100609 0.705661
v 0.111899 -0.070573 0.733356
v 0.108662 -0.068387 0.730202
v 0.106945 -0.095120 0.690179
v 0.056396 -0.113947 0.709293
v 0.084815 -0.121791 0.706440
v 0.087297 -0.116374 0.712989
v 0.041206 -0.134732 0.716689
v 0.031295 -0.125462 0.623753
v 0.099198 -0.083329 0.725506
v 0.097269 -0.080594 0.732697
v 0.109450 -0.080912 0.738567
v 0.112842 -0.076338 0.735825
v 0.008975 -0.126981 0.676151
v 0.035181 -0.101578 0.675528
v 0.067750 -0.059812 0.655931
v 0.072628 -0.054436 0.666226
v 0.082914 -0.100877 0.708539
v 0.062641 -0.135860 0.711840
v 0.077770 -0.131613 0.706409
v 0.081539 -0.128829 0.715143
v 0.085935 -0.122608 0.714935
v 0.085742 -0.115384 0.716233
v 0.106448 -0.078006 0.743037
v 0.109941 -0.073328 0.740577
v 0.109101 -0.067739 0.737643
v 0.106504 -0.066022 0.733956
v 0.103274 -0.067293 0.731077
v 0.102112 -0.079743 0.743127
v 0.098574 -0.079921 0.741051
v 0.096105 -0.079121 0.735207
v 0.098243 -0.077297 0.745171
v 0.100708 -0.073277 0.747875
v 0.098086 -0.059969 0.743332
v 0.103147 -0.063375 0.742808
v 0.101355 -0.063444 0.745114
v 0.097110 -0.060869 0.746381
v 0.092855 -0.059066 0.748979
v 0.093345 -0.057577 0.745753
v 0.102584 -0.067903 0.746389
v 0.096711 -0.064942 0.748714
v 0.094955 -0.068724 0.749723
v 0.090703 -0.065812 0.752132
v 0.092213 -0.062362 0.751501
v 0.099219 -0.070454 0.748409
v 0.104956 -0.069101 0.745641
v 0.089498 -0.057524 0.748541
v 0.090449 -0.058505 0.750713
v 0.089394 -0.061171 0.752512
v 0.086510 -0.060243 0.751733
v 0.103171 -0.063472 0.736765
v 0.096977 -0.059615 0.740924
v 0.091391 -0.058519 0.743379
v 0.087809 -0.058463 0.746407
v 0.093465 -0.061155 0.739227
v 0.089553 -0.060426 0.741963
v 0.086375 -0.060868 0.744524
v 0.090233 -0.064065 0.738630
v 0.087568 -0.062995 0.741574
v 0.098231 -0.068674 0.732244
v 0.101471 -0.065852 0.732766
v 0.085624 -0.062460 0.743239
v 0.084975 -0.061111 0.750307
v 0.094349 -0.072317 0.748831
v 0.088824 -0.068146 0.750875
v 0.092762 -0.073632 0.747452
v 0.087371 -0.069751 0.749871
v 0.086062 -0.065057 0.752839
v 0.088428 -0.063993 0.752930
v 0.099578 -0.070930 0.730085
v 0.096667 -0.075963 0.731959
v 0.095393 -0.074210 0.733679
v 0.088153 -0.068448 0.739524
v 0.094334 -0.077208 0.736836
v 0.095035 -0.077498 0.742714
v 0.090197 -0.073567 0.745709
v 0.088364 -0.072457 0.742888
v 0.086332 -0.070089 0.747492
v 0.085868 -0.069163 0.745117
v 0.085808 -0.066171 0.742515
v 0.084220 -0.066609 0.748279
v 0.084892 -0.065999 0.751135
v 0.084358 -0.062848 0.747386
v 0.084373 -0.066991 0.746351
v 0.084900 -0.064218 0.745134
v 0.092783 -0.092819 0.734407
v 0.088930 -0.097547 0.736899
v 0.092039 -0.098782 0.734457
v 0.095344 -0.094895 0.732432
v 0.105857 -0.094520 0.740267
v 0.101421 -0.091165 0.736991
v 0.105509 -0.094365 0.733875
v 0.109145 -0.099352 0.736940
v 0.105819 -0.100915 0.743767
v 0.108248 -0.105746 0.739654
v 0.109663 -0.101688 0.731210
v 0.105465 -0.096078 0.729035
v 0.098739 -0.100023 0.709612
v 0.102520 -0.105842 0.709938
v 0.083421 -0.105895 0.716691
v 0.084887 -0.109422 0.718054
v 0.096554 -0.091079 0.734875
v 0.099986 -0.093327 0.732419
v 0.089644 -0.107061 0.735236
v 0.088638 -0.101916 0.733587
v 0.089476 -0.102614 0.736379
v 0.091120 -0.106936 0.739524
v 0.090680 -0.097538 0.711010
v 0.086510 -0.101661 0.713392
v 0.094550 -0.097677 0.710294
v 0.094438 -0.111757 0.736727
v 0.101269 -0.113239 0.736549
v 0.096369 -0.117317 0.716651
v 0.090638 -0.115957 0.719160
v 0.100480 -0.093772 0.728727
v 0.091142 -0.096852 0.731969
v 0.094889 -0.093761 0.729737
v 0.107386 -0.108773 0.733131
v 0.101696 -0.109810 0.742921
v 0.088328 -0.097956 0.753759
v 0.093270 -0.105954 0.746499
v 0.089149 -0.104530 0.743580
v 0.083854 -0.097581 0.751336
v 0.095516 -0.109573 0.742148
v 0.099180 -0.105031 0.746751
v 0.084383 -0.086319 0.742750
v 0.080860 -0.091333 0.744962
v 0.088216 -0.083715 0.743186
v 0.101433 -0.113017 0.712226
v 0.097280 -0.086366 0.747986
v 0.092350 -0.083505 0.744470
v 0.087227 -0.101905 0.739536
v 0.080672 -0.095240 0.748243
v 0.092673 -0.096491 0.754226
v 0.098095 -0.092353 0.751244
v 0.089759 -0.091956 0.757478
v 0.093940 -0.087741 0.755035
v 0.093534 -0.082393 0.751082
v 0.089693 -0.081155 0.746827
v 0.086374 -0.082442 0.744911
v 0.085625 -0.093684 0.757058
v 0.081542 -0.094197 0.754410
v 0.079695 -0.093105 0.749718
v 0.079584 -0.089466 0.758446
v 0.082683 -0.086331 0.760204
v 0.076014 -0.070300 0.752910
v 0.081189 -0.073509 0.752467
v 0.080854 -0.074072 0.755031
v 0.076081 -0.071227 0.755595
v 0.086524 -0.076692 0.753921
v 0.084696 -0.076758 0.755700
v 0.084504 -0.080601 0.758472
v 0.079085 -0.077352 0.758158
v 0.077187 -0.081549 0.759783
v 0.072524 -0.078182 0.760810
v 0.074304 -0.073866 0.759521
v 0.081576 -0.082809 0.759912
v 0.072764 -0.070023 0.756623
v 0.070805 -0.069347 0.755055
v 0.087564 -0.081947 0.758582
v 0.087356 -0.078475 0.748330
v 0.079924 -0.073665 0.749579
v 0.073882 -0.070990 0.750463
v 0.068499 -0.070836 0.753661
v 0.076748 -0.075532 0.747408
v 0.071573 -0.072990 0.749265
v 0.067576 -0.073104 0.752424
v 0.073359 -0.078865 0.746658
v 0.068829 -0.076266 0.749203
v 0.081792 -0.084684 0.744495
v 0.084765 -0.080870 0.745028
v 0.067431 -0.075192 0.751184
v 0.068611 -0.071334 0.758908
v 0.066306 -0.072581 0.756781
v 0.070398 -0.071768 0.759326
v 0.076091 -0.083414 0.759870
v 0.070800 -0.079476 0.760163
v 0.073987 -0.085145 0.758827
v 0.068701 -0.080362 0.759233
v 0.067758 -0.075747 0.760450
v 0.069193 -0.074861 0.760762
v 0.083393 -0.085700 0.744684
v 0.080458 -0.090253 0.746605
v 0.079122 -0.089404 0.746442
v 0.071065 -0.083151 0.749088
v 0.078122 -0.092127 0.750297
v 0.077855 -0.091145 0.755474
v 0.072472 -0.086440 0.756718
v 0.070756 -0.085788 0.753073
v 0.067398 -0.081719 0.758089
v 0.067581 -0.082515 0.754909
v 0.067428 -0.079798 0.750881
v 0.065066 -0.077603 0.758014
v 0.066307 -0.076365 0.759620
v 0.065796 -0.074140 0.755243
v 0.065466 -0.079248 0.755542
v 0.065948 -0.076537 0.753076
v 0.077677 -0.105492 0.736284
v 0.073430 -0.109297 0.737972
v 0.074744 -0.110640 0.736218
v 0.079296 -0.107413 0.735055
v 0.088166 -0.107816 0.743240
v 0.085752 -0.104623 0.740258
v 0.088351 -0.107847 0.737478
v 0.091239 -0.112058 0.739243
v 0.086312 -0.111388 0.747429
v 0.090425 -0.117340 0.742266
v 0.092171 -0.114971 0.734594
v 0.089241 -0.109719 0.734061
v 0.086616 -0.114286 0.720518
v 0.088702 -0.120470 0.721386
v 0.081822 -0.104207 0.737652
v 0.083647 -0.106545 0.735748
v 0.071971 -0.117228 0.738577
v 0.072045 -0.112737 0.736528
v 0.072650 -0.114675 0.739207
v 0.073793 -0.117929 0.742325
v 0.076727 -0.110187 0.719154
v 0.072097 -0.114016 0.720208
v 0.081801 -0.110711 0.720114
v 0.076496 -0.121945 0.740342
v 0.083620 -0.124242 0.740019
v 0.077770 -0.128389 0.726166
v 0.072356 -0.125565 0.726157
v 0.084778 -0.107178 0.733438
v 0.074435 -0.108660 0.733944
v 0.079368 -0.106225 0.732872
v 0.089586 -0.120693 0.736625
v 0.084374 -0.120545 0.745375
v 0.069776 -0.106298 0.756939
v 0.076933 -0.117745 0.748066
v 0.072538 -0.116288 0.744312
v 0.066267 -0.106708 0.754113
v 0.078021 -0.120353 0.745251
v 0.082162 -0.116257 0.749145
v 0.068969 -0.097029 0.743849
v 0.065786 -0.101307 0.745737
v 0.073348 -0.095850 0.744598
v 0.085563 -0.126615 0.723415
v 0.069105 -0.120189 0.723930
v 0.078456 -0.096318 0.750388
v 0.076111 -0.095375 0.746687
v 0.071714 -0.113595 0.740954
v 0.064505 -0.105241 0.749939
v 0.074581 -0.104747 0.757379
v 0.078966 -0.100924 0.754474
v 0.070618 -0.100735 0.759709
v 0.074890 -0.096660 0.756826
v 0.074975 -0.092698 0.752228
v 0.072857 -0.092747 0.747910
v 0.070412 -0.093822 0.745654
v 0.065984 -0.102893 0.758438
v 0.063421 -0.103708 0.755424
v 0.064070 -0.103987 0.750299
v 0.062282 -0.100448 0.758693
v 0.065004 -0.095956 0.760567
v 0.057421 -0.082504 0.751998
v 0.062675 -0.085589 0.751884
v 0.062430 -0.085931 0.753045
v 0.057359 -0.082686 0.753744
v 0.068756 -0.088747 0.753713
v 0.066894 -0.088284 0.754569
v 0.066767 -0.090822 0.757747
v 0.060814 -0.087651 0.757846
v 0.058301 -0.093016 0.759405
v 0.054034 -0.089600 0.759170
v 0.056004 -0.084419 0.758057
v 0.063999 -0.093956 0.759745
v 0.054299 -0.081534 0.754622
v 0.053959 -0.080178 0.753282
v 0.069198 -0.092176 0.758260
v 0.069036 -0.089518 0.748764
v 0.062305 -0.085771 0.748869
v 0.057006 -0.082658 0.748840
v 0.052727 -0.081858 0.750225
v 0.060394 -0.088102 0.746435
v 0.055831 -0.085157 0.747262
v 0.052043 -0.084368 0.748637
v 0.058367 -0.090741 0.745824
v 0.054466 -0.088111 0.746947
v 0.066124 -0.095694 0.745032
v 0.067878 -0.092210 0.745928
v 0.051969 -0.086704 0.748288
v 0.051088 -0.082258 0.756557
v 0.048854 -0.084397 0.753633
v 0.052634 -0.082982 0.756966
v 0.057896 -0.094842 0.759589
v 0.052133 -0.090986 0.759211
v 0.056487 -0.096899 0.758146
v 0.050941 -0.092952 0.757794
v 0.050035 -0.087002 0.758654
v 0.051195 -0.086626 0.758711
v 0.067800 -0.096618 0.744933
v 0.065238 -0.100880 0.746584
v 0.063921 -0.099964 0.746555
v 0.055649 -0.094609 0.747307
v 0.062508 -0.102910 0.750185
v 0.060119 -0.101387 0.755570
v 0.055279 -0.097657 0.755057
v 0.054451 -0.097020 0.751244
v 0.050582 -0.093931 0.755151
v 0.051482 -0.094149 0.752402
v 0.052173 -0.091528 0.748172
v 0.048913 -0.090123 0.754301
v 0.048729 -0.088700 0.756952
v 0.049041 -0.086573 0.751279
v 0.049583 -0.091154 0.752079
v 0.049870 -0.088478 0.749805
v 0.069358 -0.117108 0.722009
v 0.056288 -0.111918 0.737249
v 0.053050 -0.114291 0.738923
v 0.053801 -0.114730 0.739269
v 0.057123 -0.112895 0.736521
v 0.066859 -0.115079 0.741297
v 0.063804 -0.111926 0.738916
v 0.066153 -0.114859 0.736803
v 0.068745 -0.118459 0.738825
v 0.066354 -0.119697 0.744437
v 0.067143 -0.122933 0.742585
v 0.067990 -0.121130 0.735872
v 0.066108 -0.117201 0.733939
v 0.063494 -0.126515 0.719926
v 0.063533 -0.132044 0.720006
v 0.044126 -0.132163 0.722285
v 0.043691 -0.127186 0.719864
v 0.046765 -0.125159 0.728267
v 0.046967 -0.129802 0.729578
v 0.060074 -0.111227 0.737526
v 0.061572 -0.112848 0.735539
v 0.052288 -0.122927 0.743953
v 0.051651 -0.118715 0.741185
v 0.051709 -0.117481 0.741871
v 0.051404 -0.120811 0.745569
v 0.047426 -0.123223 0.719254
v 0.052422 -0.121892 0.719035
v 0.053108 -0.120351 0.722667
v 0.049822 -0.121579 0.726658
v 0.058933 -0.121346 0.721863
v 0.055627 -0.126107 0.744754
v 0.061416 -0.127801 0.743604
v 0.052892 -0.137796 0.727470
v 0.049051 -0.134701 0.728626
v 0.062698 -0.114472 0.734778
v 0.053815 -0.115668 0.737856
v 0.057630 -0.113776 0.736743
v 0.066505 -0.126033 0.739045
v 0.061199 -0.124420 0.746504
v 0.052407 -0.116486 0.752062
v 0.054521 -0.121823 0.748590
v 0.050912 -0.120284 0.745752
v 0.049657 -0.116573 0.749818
v 0.055102 -0.123196 0.747399
v 0.060089 -0.121231 0.748392
v 0.052755 -0.108966 0.739542
v 0.049610 -0.112508 0.742448
v 0.055889 -0.107429 0.739578
v 0.059760 -0.136790 0.722604
v 0.061811 -0.108179 0.744385
v 0.058691 -0.106710 0.741408
v 0.051161 -0.116958 0.741996
v 0.048340 -0.115189 0.746174
v 0.057192 -0.114815 0.752339
v 0.062160 -0.112359 0.748631
v 0.054838 -0.110599 0.753507
v 0.059556 -0.108203 0.749801
v 0.058552 -0.105065 0.744140
v 0.056135 -0.105927 0.740932
v 0.053662 -0.107469 0.739458
v 0.050346 -0.113343 0.752949
v 0.048301 -0.114356 0.750907
v 0.047849 -0.114318 0.746882
v 0.048064 -0.110037 0.753460
v 0.050209 -0.105687 0.752696
v 0.043299 -0.099180 0.743182
v 0.047276 -0.100906 0.742812
v 0.047315 -0.100643 0.744015
v 0.043641 -0.098545 0.744017
v 0.052657 -0.102412 0.743959
v 0.051224 -0.101855 0.745131
v 0.052427 -0.103147 0.748451
v 0.047413 -0.100645 0.748361
v 0.044992 -0.103564 0.752262
v 0.041418 -0.101237 0.751776
v 0.043988 -0.098637 0.748610
v 0.049610 -0.104186 0.751767
v 0.041452 -0.096993 0.745129
v 0.040226 -0.096752 0.744387
v 0.054912 -0.103871 0.748946
v 0.051990 -0.104640 0.740495
v 0.045729 -0.101734 0.740752
v 0.041159 -0.099290 0.741762
v 0.038140 -0.097951 0.744025
v 0.044884 -0.103993 0.739860
v 0.039813 -0.101045 0.740985
v 0.037045 -0.099888 0.743324
v 0.043285 -0.106967 0.740385
v 0.039005 -0.103462 0.741565
v 0.048383 -0.110315 0.740127
v 0.050107 -0.107254 0.739284
v 0.037138 -0.101660 0.743321
v 0.038975 -0.096835 0.748206
v 0.036802 -0.098680 0.747067
v 0.040597 -0.096924 0.748838
v 0.044416 -0.104694 0.752939
v 0.039969 -0.102053 0.752280
v 0.043143 -0.106758 0.752943
v 0.038545 -0.103586 0.751607
v 0.038139 -0.099308 0.750795
v 0.040085 -0.098926 0.750806
v 0.050365 -0.109799 0.740040
v 0.048776 -0.112167 0.742603
v 0.046804 -0.112654 0.743456
v 0.041827 -0.109555 0.743511
v 0.046296 -0.113853 0.748106
v 0.046765 -0.112511 0.751831
v 0.041835 -0.108685 0.751375
v 0.040991 -0.110007 0.748269
v 0.037513 -0.104715 0.750007
v 0.037327 -0.106180 0.747311
v 0.037815 -0.105774 0.743908
v 0.036089 -0.101690 0.748048
v 0.036494 -0.100437 0.749445
v 0.036089 -0.100412 0.746074
v 0.036089 -0.103055 0.746650
v 0.036361 -0.102503 0.745046
v 0.046802 -0.135035 0.723523
v 0.081018 -0.054981 0.679313
v 0.079684 -0.059332 0.682728
v 0.067389 -0.053746 0.691991
v 0.072167 -0.058848 0.691306
v 0.065965 -0.047399 0.689875
v 0.070384 -0.041946 0.681479
v 0.066705 -0.043850 0.685264
v 0.076631 -0.060807 0.687780
v 0.079905 -0.049639 0.676791
v 0.075476 -0.043921 0.677173
v 0.086192 -0.047224 0.682456
v 0.081368 -0.040792 0.683153
v 0.076257 -0.038071 0.687176
v 0.070753 -0.041183 0.690791
v 0.068716 -0.044771 0.693843
v 0.084758 -0.054081 0.684756
v 0.082536 -0.058204 0.687834
v 0.077600 -0.059482 0.692076
v 0.088200 -0.054397 0.692315
v 0.091518 -0.047531 0.698992
v 0.085294 -0.036460 0.713937
v 0.081868 -0.037342 0.708001
v 0.084689 -0.037693 0.707418
v 0.087675 -0.036338 0.712704
v 0.082048 -0.037722 0.702299
v 0.084124 -0.038655 0.703182
v 0.087634 -0.041676 0.700519
v 0.090161 -0.040614 0.705639
v 0.090743 -0.045813 0.701145
v 0.092489 -0.046379 0.705032
v 0.092850 -0.039660 0.710562
v 0.091069 -0.036133 0.714966
v 0.094853 -0.038986 0.714904
v 0.089340 -0.036981 0.717587
v 0.088813 -0.040164 0.698299
v 0.075555 -0.038672 0.699528
v 0.078307 -0.038577 0.708052
v 0.082350 -0.038614 0.715062
v 0.087416 -0.039360 0.718869
v 0.075774 -0.042249 0.708927
v 0.080434 -0.042669 0.714830
v 0.085323 -0.043892 0.717905
v 0.075732 -0.047240 0.709137
v 0.080764 -0.046674 0.714110
v 0.070382 -0.049927 0.698168
v 0.070747 -0.043305 0.698703
v 0.084438 -0.046187 0.716343
v 0.094908 -0.039990 0.717698
v 0.092740 -0.042760 0.718984
v 0.092885 -0.049729 0.704107
v 0.095484 -0.045365 0.709485
v 0.095115 -0.048425 0.709917
v 0.091273 -0.053421 0.703311
v 0.093858 -0.050999 0.710528
v 0.096593 -0.045200 0.714566
v 0.096433 -0.042891 0.712774
v 0.068777 -0.051016 0.695096
v 0.072265 -0.056616 0.694003
v 0.073743 -0.055662 0.696725
v 0.078740 -0.053088 0.707376
v 0.079054 -0.058820 0.695841
v 0.084810 -0.057817 0.693881
v 0.088473 -0.055875 0.704207
v 0.083800 -0.056172 0.705556
v 0.090618 -0.052556 0.711382
v 0.087539 -0.052508 0.711840
v 0.083406 -0.050257 0.713441
v 0.091389 -0.049264 0.715539
v 0.094743 -0.047794 0.715433
v 0.089469 -0.046110 0.718030
v 0.088813 -0.050025 0.714651
v 0.086884 -0.048031 0.716140
v 0.040877 -0.127607 0.715325
v 0.044920 -0.122332 0.714353
v 0.040030 -0.122654 0.710632
v 0.033096 -0.120800 0.705005
v 0.024810 -0.124902 0.699831
v 0.037584 -0.116260 0.702079
v 0.044545 -0.118347 0.708264
v 0.051928 -0.118439 0.713515
v 0.036509 -0.111484 0.693045
f 2 3 1
f 1 3 4
f 5 6 8
f 8 6 7
f 9 4 10
f 10 4 3
f 12 13 11
f 11 13 9
f 14 12 16
f 16 12 15
f 18 19 17
f 17 19 20
f 22 23 21
f 21 23 24
f 26 27 25
f 25 27 28
f 30 31 29
f 29 31 32
f 33 34 36
f 36 34 35
f 37 38 40
f 40 38 39
f 41 42 6
f 6 42 43
f 6 43 7
f 7 43 44
f 45 34 46
f 46 34 33
f 48 49 47
f 47 49 50
f 52 53 51
f 51 53 54
f 56 52 55
f 55 52 51
f 58 59 57
f 57 59 60
f 61 62 4
f 4 62 1
f 64 65 63
f 63 65 66
f 68 69 67
f 67 69 70
f 72 73 71
f 71 73 74
f 76 77 75
f 75 77 78
f 53 79 54
f 54 79 80
f 82 83 81
f 81 83 84
f 85 86 52
f 52 86 53
f 57 60 87
f 87 60 88
f 89 90 43
f 43 90 44
f 43 42 89
f 89 42 91
f 40 39 92
f 92 39 93
f 94 70 64
f 64 70 69
f 13 61 9
f 9 61 4
f 25 28 69
f 69 28 95
f 96 25 68
f 68 25 69
f 98 99 97
f 97 99 100
f 101 102 104
f 104 102 103
f 106 30 105
f 105 30 29
f 51 54 107
f 107 54 108
f 54 80 108
f 108 80 109
f 111 112 110
f 110 112 113
f 115 5 114
f 114 5 116
f 115 41 5
f 5 41 6
f 36 35 111
f 111 35 117
f 35 118 117
f 117 118 119
f 34 120 35
f 35 120 118
f 34 45 120
f 120 45 121
f 125 126 124
f 124 126 127
f 128 129 14
f 14 129 130
f 33 131 46
f 46 131 132
f 133 94 63
f 63 94 64
f 134 135 137
f 137 135 136
f 139 140 138
f 138 140 141
f 77 142 78
f 78 142 143
f 144 145 20
f 20 145 146
f 148 149 147
f 147 149 72
f 151 152 150
f 150 152 153
f 82 101 83
f 83 101 104
f 101 82 155
f 155 82 154
f 156 157 58
f 58 157 59
f 158 68 147
f 147 68 67
f 159 146 15
f 15 146 16
f 68 158 96
f 96 158 160
f 129 66 130
f 130 66 65
f 162 163 161
f 161 163 164
f 166 167 165
f 165 167 168
f 170 171 169
f 169 171 172
f 174 171 173
f 173 171 170
f 176 177 175
f 175 177 178
f 180 181 179
f 179 181 24
f 182 183 21
f 21 183 184
f 81 185 82
f 82 185 154
f 186 187 188
f 188 187 144
f 158 71 160
f 160 71 189
f 190 135 157
f 157 135 59
f 169 172 139
f 139 172 140
f 147 72 158
f 158 72 71
f 192 193 191
f 191 193 194
f 167 166 49
f 49 166 195
f 196 190 50
f 50 190 157
f 197 198 200
f 200 198 199
f 21 24 182
f 182 24 181
f 146 159 20
f 20 159 17
f 182 181 81
f 81 181 185
f 201 185 180
f 180 185 181
f 202 203 83
f 83 203 84
f 205 206 204
f 204 206 85
f 207 22 184
f 184 22 21
f 179 24 208
f 208 24 23
f 208 209 179
f 179 209 205
f 209 210 205
f 205 210 206
f 212 206 211
f 211 206 210
f 179 205 180
f 180 205 204
f 213 176 88
f 88 176 214
f 86 85 212
f 212 85 206
f 193 217 218
f 217 219 218
f 218 219 220
f 219 18 220
f 220 18 17
f 19 221 20
f 20 221 144
f 222 223 225
f 225 223 224
f 175 226 176
f 176 226 214
f 227 87 214
f 214 87 88
f 220 17 228
f 228 17 159
f 134 213 60
f 60 213 88
f 138 229 151
f 151 229 152
f 193 192 210
f 210 192 211
f 230 194 218
f 218 194 193
f 231 232 228
f 228 232 230
f 233 234 91
f 91 234 89
f 235 236 93
f 93 236 92
f 230 232 234
f 234 232 237
f 47 238 48
f 48 238 239
f 240 191 235
f 235 191 236
f 5 8 116
f 116 8 241
f 242 243 189
f 189 243 160
f 244 245 98
f 98 245 99
f 156 246 47
f 47 246 238
f 76 247 77
f 77 247 248
f 250 125 249
f 249 125 124
f 252 253 251
f 251 253 254
f 111 110 36
f 36 110 255
f 256 33 255
f 255 33 36
f 257 258 154
f 154 258 155
f 63 169 133
f 133 169 139
f 66 170 63
f 63 170 169
f 173 170 129
f 129 170 66
f 129 128 173
f 173 128 259
f 128 260 259
f 259 260 261
f 213 134 262
f 262 134 137
f 263 264 186
f 186 264 187
f 112 265 113
f 113 265 266
f 11 267 268
f 234 233 230
f 230 233 194
f 153 269 70
f 70 269 67
f 175 178 165
f 165 178 141
f 150 153 94
f 94 153 70
f 271 221 270
f 270 221 207
f 269 153 272
f 272 153 152
f 121 45 109
f 109 45 108
f 47 50 156
f 156 50 157
f 57 273 58
f 58 273 274
f 145 275 260
f 260 275 261
f 276 149 143
f 143 149 78
f 148 269 75
f 75 269 272
f 207 277 270
f 270 277 278
f 195 196 49
f 49 196 50
f 59 135 60
f 60 135 134
f 83 104 202
f 202 104 279
f 149 148 78
f 78 148 75
f 247 278 248
f 248 278 277
f 183 182 84
f 84 182 81
f 48 239 281
f 281 239 282
f 227 223 283
f 283 223 222
f 223 226 224
f 224 226 168
f 281 282 224
f 224 282 225
f 165 168 175
f 175 168 226
f 264 263 138
f 138 263 229
f 14 16 128
f 128 16 260
f 220 228 218
f 218 228 230
f 87 227 284
f 284 227 283
f 260 16 145
f 145 16 146
f 244 98 258
f 258 98 155
f 58 274 156
f 156 274 246
f 107 285 51
f 51 285 55
f 243 286 160
f 160 286 96
f 234 237 89
f 89 237 90
f 46 132 107
f 107 132 285
f 253 252 249
f 249 252 250
f 286 26 96
f 96 26 25
f 106 105 287
f 287 105 288
f 272 152 289
f 289 152 229
f 138 151 139
f 139 151 133
f 183 290 161
f 161 290 162
f 291 292 277
f 277 292 293
f 151 150 133
f 133 150 94
f 262 275 177
f 177 275 187
f 144 187 145
f 145 187 275
f 273 57 284
f 284 57 87
f 174 136 190
f 190 136 135
f 111 117 112
f 112 117 38
f 117 119 38
f 38 119 123
f 112 38 265
f 265 38 37
f 287 288 254
f 254 288 251
f 228 159 231
f 231 159 15
f 223 227 226
f 226 227 214
f 147 67 148
f 148 67 269
f 224 168 281
f 281 168 167
f 199 163 200
f 200 163 162
f 45 46 108
f 108 46 107
f 281 167 48
f 48 167 49
f 161 164 291
f 291 164 292
f 38 123 39
f 293 294 277
f 277 294 248
f 284 283 296
f 296 283 295
f 284 296 273
f 273 296 297
f 274 273 298
f 298 273 297
f 246 274 299
f 299 274 298
f 283 222 295
f 295 222 300
f 222 225 300
f 300 225 301
f 301 225 302
f 302 225 282
f 303 304 300
f 300 304 295
f 306 307 305
f 305 307 308
f 309 310 308
f 308 310 305
f 308 307 312
f 312 307 311
f 313 314 312
f 312 314 315
f 311 316 312
f 312 316 313
f 317 304 311
f 311 304 316
f 315 309 312
f 312 309 308
f 318 319 321
f 321 319 320
f 319 318 309
f 309 318 310
f 311 307 317
f 317 307 306
f 306 297 317
f 317 297 296
f 306 322 297
f 297 322 298
f 305 323 306
f 306 323 322
f 323 305 324
f 324 305 310
f 304 317 295
f 295 317 296
f 318 325 310
f 310 325 324
f 323 324 326
f 326 324 327
f 324 325 327
f 327 325 328
f 326 327 329
f 329 327 330
f 329 331 326
f 326 331 332
f 333 330 328
f 328 330 327
f 323 326 322
f 322 326 332
f 322 332 298
f 298 332 299
f 325 318 334
f 334 318 321
f 313 316 335
f 335 316 304
f 335 336 313
f 313 336 314
f 304 303 335
f 335 303 337
f 336 335 338
f 338 335 337
f 336 339 314
f 314 339 340
f 246 299 238
f 238 299 341
f 239 342 282
f 282 342 302
f 342 239 341
f 341 239 238
f 341 331 342
f 342 331 343
f 331 329 343
f 343 329 344
f 342 343 302
f 302 343 345
f 341 299 331
f 331 299 332
f 346 301 345
f 345 301 302
f 346 303 301
f 301 303 300
f 347 337 346
f 346 337 303
f 347 346 348
f 348 346 345
f 349 347 350
f 350 347 348
f 343 344 345
f 345 344 348
f 344 351 348
f 348 351 350
f 337 347 338
f 338 347 349
f 353 338 352
f 352 338 349
f 352 355 354
f 354 355 356
f 352 349 355
f 355 349 350
f 352 354 353
f 353 354 334
f 353 334 339
f 339 334 321
f 339 336 353
f 353 336 338
f 329 330 344
f 344 330 351
f 356 351 333
f 333 351 330
f 356 355 351
f 351 355 350
f 354 356 328
f 328 356 333
f 328 325 354
f 354 325 334
f 309 315 319
f 319 315 320
f 320 340 321
f 321 340 339
f 320 315 340
f 340 315 314
f 137 136 261
f 261 136 259
f 140 166 141
f 141 166 165
f 172 171 195
f 195 171 196
f 171 174 196
f 196 174 190
f 178 177 264
f 264 177 187
f 172 195 140
f 140 195 166
f 137 261 262
f 262 261 275
f 178 264 141
f 141 264 138
f 262 177 213
f 213 177 176
f 136 174 259
f 259 174 173
f 358 359 357
f 357 359 360
f 362 363 361
f 361 363 364
f 361 364 365
f 365 364 366
f 367 368 370
f 370 368 369
f 76 371 247
f 247 371 372
f 373 374 362
f 362 374 363
f 376 377 375
f 375 377 378
f 289 229 380
f 380 229 379
f 381 379 263
f 263 379 229
f 383 384 382
f 382 384 385
f 386 368 374
f 374 368 363
f 76 289 371
f 371 289 380
f 377 376 359
f 359 376 387
f 388 386 360
f 360 386 374
f 389 383 366
f 366 383 390
f 392 393 391
f 391 393 394
f 383 382 390
f 390 382 395
f 396 365 390
f 390 365 366
f 389 366 367
f 367 366 364
f 357 397 358
f 358 397 398
f 373 399 357
f 357 399 397
f 389 367 400
f 400 367 370
f 382 385 375
f 375 385 372
f 357 360 373
f 373 360 374
f 361 401 362
f 362 401 402
f 387 388 359
f 359 388 360
f 363 368 364
f 364 368 367
f 358 398 403
f 403 398 404
f 396 392 405
f 405 392 391
f 392 395 393
f 393 395 378
f 393 403 394
f 394 403 404
f 375 378 382
f 382 378 395
f 365 396 406
f 406 396 405
f 362 402 373
f 373 402 399
f 271 270 400
f 400 270 384
f 401 361 406
f 406 361 365
f 381 369 386
f 386 369 368
f 392 396 395
f 395 396 390
f 393 378 403
f 403 378 377
f 403 377 358
f 358 377 359
f 406 405 408
f 408 405 407
f 406 408 401
f 401 408 409
f 401 409 402
f 402 409 410
f 402 410 399
f 399 410 411
f 405 391 407
f 407 391 412
f 391 394 412
f 412 394 413
f 394 404 413
f 413 404 414
f 415 416 412
f 412 416 407
f 418 419 417
f 417 419 420
f 421 422 418
f 418 422 419
f 419 422 424
f 424 422 423
f 425 426 424
f 424 426 427
f 423 428 424
f 424 428 425
f 427 420 424
f 424 420 419
f 420 429 417
f 417 429 430
f 423 422 431
f 431 422 421
f 421 409 431
f 431 409 408
f 421 432 409
f 409 432 410
f 418 433 421
f 421 433 432
f 434 433 417
f 417 433 418
f 431 416 423
f 423 416 428
f 416 431 407
f 407 431 408
f 435 434 430
f 430 434 417
f 433 434 436
f 436 434 437
f 434 435 437
f 437 435 438
f 436 437 439
f 439 437 440
f 439 441 436
f 436 441 442
f 438 443 437
f 437 443 440
f 436 442 433
f 433 442 432
f 432 442 410
f 410 442 411
f 435 430 445
f 445 430 444
f 430 429 444
f 444 429 446
f 425 428 447
f 447 428 416
f 426 425 448
f 448 425 447
f 416 415 447
f 447 415 449
f 447 449 448
f 448 449 450
f 451 452 448
f 448 452 426
f 446 452 444
f 444 452 451
f 399 411 397
f 397 411 453
f 398 454 404
f 404 454 414
f 454 398 453
f 453 398 397
f 453 441 454
f 454 441 455
f 441 439 455
f 455 439 456
f 454 455 414
f 414 455 457
f 441 453 442
f 442 453 411
f 458 413 457
f 457 413 414
f 458 415 413
f 413 415 412
f 458 459 415
f 415 459 449
f 459 458 460
f 460 458 457
f 461 459 462
f 462 459 460
f 455 456 457
f 457 456 460
f 456 463 460
f 460 463 462
f 459 461 449
f 449 461 450
f 465 450 464
f 464 450 461
f 464 467 466
f 466 467 468
f 464 461 467
f 467 461 462
f 464 466 465
f 465 466 445
f 465 445 451
f 451 445 444
f 451 448 465
f 465 448 450
f 439 440 456
f 456 440 463
f 468 463 443
f 443 463 440
f 468 467 463
f 463 467 462
f 466 468 438
f 438 468 443
f 438 435 466
f 466 435 445
f 420 427 429
f 429 427 446
f 446 427 452
f 452 427 426
f 370 369 188
f 188 369 186
f 371 376 372
f 372 376 375
f 380 379 387
f 387 379 388
f 379 381 388
f 388 381 386
f 385 384 278
f 278 384 270
f 380 387 371
f 371 387 376
f 400 370 271
f 271 370 188
f 385 278 372
f 372 278 247
f 400 384 389
f 389 384 383
f 369 381 186
f 186 381 263
f 221 271 144
f 144 271 188
f 221 19 207
f 207 19 22
f 19 18 22
f 22 18 23
f 18 219 23
f 23 219 208
f 469 470 472
f 472 470 471
f 474 475 473
f 473 475 476
f 473 476 477
f 477 476 478
f 480 481 479
f 479 481 482
f 483 484 474
f 474 484 475
f 486 487 485
f 485 487 488
f 489 490 77
f 77 490 142
f 491 489 248
f 248 489 77
f 493 494 492
f 492 494 495
f 496 480 484
f 484 480 475
f 486 497 487
f 487 497 471
f 498 496 472
f 472 496 484
f 499 493 478
f 478 493 500
f 501 502 504
f 504 502 503
f 493 492 500
f 500 492 505
f 506 477 500
f 500 477 478
f 499 478 479
f 479 478 476
f 469 507 470
f 470 507 508
f 483 509 469
f 469 509 507
f 479 482 499
f 499 482 510
f 492 495 485
f 485 495 511
f 483 469 484
f 484 469 472
f 473 512 474
f 474 512 513
f 497 498 471
f 471 498 472
f 475 480 476
f 476 480 479
f 470 508 514
f 514 508 515
f 506 502 516
f 516 502 501
f 503 502 488
f 488 502 505
f 514 515 503
f 503 515 504
f 485 488 492
f 492 488 505
f 477 506 517
f 517 506 516
f 474 513 483
f 483 513 509
f 510 292 494
f 494 292 164
f 512 473 517
f 517 473 477
f 491 481 496
f 496 481 480
f 502 506 505
f 505 506 500
f 503 488 514
f 514 488 487
f 514 487 470
f 470 487 471
f 517 516 519
f 519 516 518
f 517 519 512
f 512 519 520
f 512 520 513
f 513 520 521
f 513 521 509
f 509 521 522
f 516 501 518
f 518 501 523
f 501 504 523
f 523 504 524
f 524 504 525
f 525 504 515
f 526 527 523
f 523 527 518
f 529 530 528
f 528 530 531
f 532 533 529
f 529 533 530
f 530 533 535
f 535 533 534
f 536 537 535
f 535 537 538
f 534 539 535
f 535 539 536
f 538 531 535
f 535 531 530
f 540 541 531
f 531 541 528
f 533 532 534
f 534 532 542
f 532 520 542
f 542 520 519
f 532 543 520
f 520 543 521
f 529 544 532
f 532 544 543
f 544 529 545
f 545 529 528
f 534 542 539
f 539 542 527
f 527 542 518
f 518 542 519
f 541 546 528
f 528 546 545
f 547 544 548
f 548 544 545
f 546 549 545
f 545 549 548
f 550 547 551
f 551 547 548
f 547 550 553
f 553 550 552
f 549 554 548
f 548 554 551
f 544 547 543
f 543 547 553
f 543 553 521
f 521 553 522
f 546 541 556
f 556 541 555
f 541 540 555
f 555 540 557
f 536 539 558
f 558 539 527
f 537 536 559
f 559 536 558
f 527 526 558
f 558 526 560
f 559 558 561
f 561 558 560
f 559 562 537
f 537 562 563
f 557 563 555
f 555 563 562
f 509 522 507
f 507 522 564
f 508 565 515
f 515 565 525
f 565 508 564
f 564 508 507
f 564 552 565
f 565 552 566
f 552 550 566
f 566 550 567
f 565 566 525
f 525 566 568
f 564 522 552
f 552 522 553
f 569 524 568
f 568 524 525
f 569 526 524
f 524 526 523
f 570 560 569
f 569 560 526
f 570 569 571
f 571 569 568
f 572 570 573
f 573 570 571
f 566 567 568
f 568 567 571
f 567 574 571
f 571 574 573
f 570 572 560
f 560 572 561
f 576 561 575
f 575 561 572
f 575 578 577
f 577 578 579
f 575 572 578
f 578 572 573
f 575 577 576
f 576 577 556
f 576 556 562
f 562 556 555
f 562 559 576
f 576 559 561
f 550 551 567
f 567 551 574
f 579 574 554
f 554 574 551
f 579 578 574
f 574 578 573
f 579 554 577
f 577 554 549
f 549 546 577
f 577 546 556
f 531 538 540
f 540 538 557
f 557 538 563
f 563 538 537
f 481 294 482
f 482 294 293
f 580 486 511
f 511 486 485
f 490 489 497
f 497 489 498
f 489 491 498
f 498 491 496
f 163 495 164
f 164 495 494
f 580 490 486
f 486 490 497
f 482 293 510
f 510 293 292
f 495 163 511
f 511 163 199
f 494 493 510
f 510 493 499
f 481 491 294
f 294 491 248
f 582 583 581
f 581 583 584
f 586 587 585
f 585 587 588
f 585 588 589
f 589 588 590
f 592 593 591
f 591 593 594
f 595 596 598
f 598 596 597
f 599 600 586
f 586 600 587
f 601 602 604
f 604 602 603
f 605 606 608
f 608 606 607
f 609 607 200
f 200 607 606
f 610 611 613
f 613 611 612
f 600 614 587
f 587 614 592
f 596 605 597
f 597 605 608
f 602 615 603
f 603 615 583
f 616 614 584
f 584 614 600
f 611 618 617
f 617 618 590
f 620 621 619
f 619 621 622
f 610 623 611
f 611 623 618
f 624 589 618
f 618 589 590
f 617 590 591
f 591 590 588
f 581 625 582
f 582 625 626
f 599 627 581
f 581 627 625
f 591 594 617
f 617 594 628
f 601 610 598
f 598 610 613
f 581 584 599
f 599 584 600
f 585 629 586
f 586 629 630
f 615 616 583
f 583 616 584
f 587 592 588
f 588 592 591
f 582 626 631
f 631 626 632
f 624 620 633
f 633 620 619
f 621 620 604
f 604 620 623
f 631 632 621
f 621 632 622
f 610 601 623
f 623 601 604
f 589 624 634
f 634 624 633
f 586 630 599
f 599 630 627
f 203 202 628
f 628 202 612
f 629 585 634
f 634 585 589
f 609 593 614
f 614 593 592
f 620 624 623
f 623 624 618
f 631 621 603
f 603 621 604
f 582 631 583
f 583 631 603
f 634 633 636
f 636 633 635
f 634 636 629
f 629 636 637
f 629 637 630
f 630 637 638
f 630 638 627
f 627 638 639
f 633 619 635
f 635 619 640
f 619 622 640
f 640 622 641
f 641 622 642
f 642 622 632
f 644 635 643
f 643 635 640
f 645 646 648
f 648 646 647
f 649 650 646
f 646 650 647
f 647 650 652
f 652 650 651
f 652 653 655
f 655 653 654
f 651 656 652
f 652 656 653
f 655 648 652
f 652 648 647
f 648 657 645
f 645 657 658
f 650 649 651
f 651 649 659
f 649 637 659
f 659 637 636
f 649 660 637
f 637 660 638
f 661 660 646
f 646 660 649
f 662 661 645
f 645 661 646
f 651 659 656
f 656 659 644
f 644 659 635
f 635 659 636
f 663 662 658
f 658 662 645
f 664 661 665
f 665 661 662
f 663 666 662
f 662 666 665
f 667 664 668
f 668 664 665
f 664 667 670
f 670 667 669
f 666 671 665
f 665 671 668
f 661 664 660
f 660 664 670
f 660 670 638
f 638 670 639
f 658 672 663
f 663 672 673
f 658 657 672
f 672 657 674
f 653 656 675
f 675 656 644
f 653 675 654
f 654 675 676
f 675 644 677
f 677 644 643
f 676 675 678
f 678 675 677
f 679 680 676
f 676 680 654
f 674 680 672
f 672 680 679
f 627 639 625
f 625 639 681
f 626 682 632
f 632 682 642
f 681 682 625
f 625 682 626
f 669 683 681
f 681 683 682
f 667 684 669
f 669 684 683
f 682 683 642
f 642 683 685
f 681 639 669
f 669 639 670
f 686 641 685
f 685 641 642
f 641 686 640
f 640 686 643
f 686 687 643
f 643 687 677
f 687 686 688
f 688 686 685
f 689 687 690
f 690 687 688
f 683 684 685
f 685 684 688
f 684 691 688
f 688 691 690
f 687 689 677
f 677 689 678
f 693 678 692
f 692 678 689
f 692 695 694
f 694 695 696
f 692 689 695
f 695 689 690
f 692 694 693
f 693 694 673
f 693 673 679
f 679 673 672
f 679 676 693
f 693 676 678
f 684 667 691
f 691 667 668
f 696 691 671
f 671 691 668
f 696 695 691
f 691 695 690
f 694 696 666
f 666 696 671
f 666 663 694
f 694 663 673
f 648 655 657
f 657 655 674
f 674 655 680
f 680 655 654
f 593 162 594
f 594 162 290
f 598 597 601
f 601 597 602
f 615 608 616
f 616 608 607
f 607 609 616
f 616 609 614
f 697 595 613
f 613 595 598
f 597 608 602
f 602 608 615
f 594 290 628
f 628 290 203
f 628 612 617
f 617 612 611
f 593 609 162
f 162 609 200
f 105 29 698
f 698 29 699
f 268 126 701
f 701 126 700
f 126 125 700
f 700 125 702
f 252 703 250
f 250 703 704
f 32 268 705
f 705 268 701
f 288 105 706
f 706 105 698
f 29 32 699
f 699 32 705
f 707 251 706
f 706 251 288
f 250 704 125
f 125 704 702
f 703 252 707
f 707 252 251
f 706 708 707
f 707 708 709
f 707 709 703
f 703 709 710
f 703 710 704
f 704 710 711
f 704 711 702
f 702 711 712
f 706 698 708
f 708 698 713
f 698 699 713
f 713 699 714
f 699 705 714
f 714 705 715
f 717 708 716
f 716 708 713
f 719 720 718
f 718 720 721
f 722 723 719
f 719 723 720
f 724 725 723
f 723 725 720
f 724 726 725
f 725 726 727
f 728 721 725
f 725 721 720
f 721 728 729
f 729 728 730
f 729 731 721
f 721 731 718
f 724 723 732
f 732 723 722
f 722 710 732
f 732 710 709
f 722 733 710
f 710 733 711
f 719 734 722
f 722 734 733
f 734 719 735
f 735 719 718
f 724 732 726
f 726 732 717
f 717 732 708
f 708 732 709
f 731 736 718
f 718 736 735
f 737 734 738
f 738 734 735
f 736 739 735
f 735 739 738
f 740 737 741
f 741 737 738
f 737 740 743
f 743 740 742
f 739 744 738
f 738 744 741
f 734 737 733
f 733 737 743
f 733 743 711
f 711 743 712
f 736 731 746
f 746 731 745
f 731 729 745
f 745 729 730
f 727 726 747
f 747 726 717
f 748 727 749
f 749 727 747
f 747 717 750
f 750 717 716
f 749 747 751
f 751 747 750
f 749 752 748
f 748 752 753
f 730 753 745
f 745 753 752
f 728 725 748
f 748 725 727
f 730 728 753
f 753 728 748
f 700 702 754
f 754 702 712
f 705 701 715
f 715 701 755
f 754 755 700
f 700 755 701
f 742 756 754
f 754 756 755
f 740 757 742
f 742 757 756
f 755 756 715
f 715 756 758
f 754 712 742
f 742 712 743
f 759 714 758
f 758 714 715
f 714 759 713
f 713 759 716
f 759 760 716
f 716 760 750
f 760 759 761
f 761 759 758
f 762 760 763
f 763 760 761
f 756 757 758
f 758 757 761
f 757 764 761
f 761 764 763
f 760 762 750
f 750 762 751
f 766 751 765
f 765 751 762
f 767 765 769
f 769 765 768
f 765 762 768
f 768 762 763
f 765 767 766
f 766 767 746
f 766 746 752
f 752 746 745
f 752 749 766
f 766 749 751
f 757 740 764
f 764 740 741
f 769 764 744
f 744 764 741
f 769 768 764
f 764 768 763
f 767 769 739
f 739 769 744
f 739 736 767
f 767 736 746
f 219 217 208
f 208 217 209
f 209 217 210
f 210 217 193
f 198 580 199
f 199 580 511
f 76 75 289
f 289 75 272
f 277 207 291
f 291 207 184
f 290 183 203
f 203 183 84
f 490 580 142
f 142 580 198
f 142 198 143
f 143 198 197
f 149 276 72
f 72 276 73
f 104 103 279
f 279 103 770
f 770 596 279
f 279 596 595
f 605 596 771
f 771 596 770
f 771 770 772
f 772 770 103
f 772 103 773
f 773 103 102
f 155 774 101
f 101 774 102
f 773 102 97
f 97 102 774
f 775 773 100
f 100 773 97
f 773 775 772
f 772 775 776
f 772 776 771
f 771 776 777
f 200 606 197
f 197 606 777
f 189 71 778
f 778 71 74
f 97 774 98
f 98 774 155
f 183 161 184
f 184 161 291
f 777 276 197
f 197 276 143
f 777 606 771
f 771 606 605
f 613 612 697
f 697 612 202
f 595 697 279
f 279 697 202
f 73 276 776
f 776 276 777
f 776 775 73
f 73 775 74
f 100 778 775
f 775 778 74
f 778 100 189
f 189 100 99
f 245 242 99
f 99 242 189
f 131 33 256
f 28 1 95
f 95 1 62
f 27 2 28
f 28 2 1
f 265 115 266
f 266 115 114
f 95 62 69
f 69 62 64
f 62 61 64
f 64 61 65
f 61 13 65
f 65 13 130
f 13 12 130
f 130 12 14
f 31 11 32
f 32 11 268
f 15 12 31
f 31 12 11
f 31 30 15
f 15 30 231
f 30 106 231
f 231 106 232
f 287 237 106
f 106 237 232
f 254 90 287
f 287 90 237
f 253 44 254
f 254 44 90
f 253 249 44
f 44 249 7
f 267 127 268
f 268 127 126
f 10 3 241
f 241 3 116
f 3 2 116
f 116 2 114
f 2 27 114
f 114 27 266
f 27 26 266
f 266 26 113
f 26 286 113
f 113 286 110
f 286 243 110
f 110 243 255
f 243 242 255
f 255 242 256
f 242 245 256
f 256 245 131
f 245 244 131
f 131 244 132
f 265 37 115
f 115 37 41
f 41 37 42
f 42 37 40
f 92 91 40
f 40 91 42
f 236 233 92
f 92 233 91
f 191 194 236
f 236 194 233
f 258 285 244
f 244 285 132
f 257 55 258
f 258 55 285
f 257 154 201
f 201 154 185
f 56 201 204
f 204 201 180
f 55 257 56
f 56 257 201
f 204 85 56
f 56 85 52
f 86 122 53
f 53 122 79
f 212 215 86
f 86 215 122
f 211 216 212
f 212 216 215
f 192 280 211
f 211 280 216
f 191 240 192
f 192 240 280
f 249 124 7
f 7 124 8
f 124 127 8
f 8 127 241
f 127 267 241
f 241 267 10
f 10 267 9
f 9 267 11
o hand_right
v -0.105350 0.192721 0.562389
v -0.114779 0.194955 0.558464
v -0.108187 0.186459 0.556693
v -0.099453 0.185260 0.559599
v -0.127524 0.183428 0.547791
v -0.130959 0.182820 0.535814
v -0.118583 0.172446 0.537692
v -0.117893 0.174305 0.548024
v -0.092615 0.180601 0.556562
v -0.102410 0.179982 0.555379
v -0.087759 0.180988 0.551755
v -0.077768 0.186686 0.552930
v -0.083470 0.183187 0.557651
v -0.070851 0.188259 0.556998
v -0.077857 0.196468 0.546973
v -0.066106 0.196759 0.558426
v -0.085674 0.220333 0.562515
v -0.092631 0.227218 0.571904
v -0.078656 0.221710 0.582935
v -0.073321 0.214153 0.572508
v -0.095866 0.229245 0.593304
v -0.085895 0.224883 0.588069
v -0.098776 0.231555 0.577134
v -0.107037 0.234985 0.582394
v -0.115567 0.203317 0.569351
v -0.124999 0.206524 0.565065
v -0.121053 0.203471 0.562099
v -0.112259 0.200258 0.566105
v -0.088452 0.176217 0.539875
v -0.088837 0.187565 0.536931
v -0.085566 0.185317 0.544247
v -0.089259 0.174323 0.545104
v -0.152904 0.213275 0.561057
v -0.158545 0.221782 0.552145
v -0.155718 0.219686 0.547411
v -0.150894 0.212708 0.556642
v -0.144905 0.202942 0.534668
v -0.148260 0.213305 0.532026
v -0.144010 0.218946 0.519987
v -0.137823 0.210766 0.521649
v -0.138628 0.191732 0.535634
v -0.134216 0.197760 0.523543
v -0.127069 0.186893 0.525585
v -0.115695 0.174607 0.528941
v -0.163044 0.228872 0.561892
v -0.159978 0.223259 0.569878
v -0.086243 0.154805 0.576201
v -0.089838 0.157125 0.580204
v -0.087631 0.161265 0.578699
v -0.083998 0.158185 0.575181
v -0.154844 0.243511 0.573385
v -0.148353 0.251020 0.571396
v -0.154702 0.252817 0.568264
v -0.160269 0.245168 0.568352
v -0.147663 0.241247 0.579980
v -0.139622 0.247823 0.575482
v -0.076997 0.148117 0.582055
v -0.079475 0.149132 0.577652
v -0.075557 0.152719 0.577397
v -0.073374 0.152419 0.582111
v -0.090576 0.184120 0.562043
v -0.097458 0.189082 0.566561
v -0.078140 0.183850 0.571009
v -0.084927 0.185378 0.570624
v -0.081870 0.183889 0.564434
v -0.076294 0.182646 0.565589
v -0.099278 0.198298 0.584200
v -0.108041 0.201949 0.577609
v -0.103657 0.198497 0.574060
v -0.093818 0.193083 0.580061
v -0.117361 0.206494 0.587331
v -0.107741 0.202949 0.592962
v -0.114154 0.206080 0.597853
v -0.120368 0.207161 0.593135
v -0.089605 0.197152 0.599547
v -0.085237 0.196978 0.600720
v -0.089140 0.196522 0.603229
v -0.092856 0.198546 0.601608
v -0.160265 0.255325 0.564599
v -0.164805 0.246735 0.562830
v -0.113910 0.233974 0.605051
v -0.124976 0.231864 0.607128
v -0.116186 0.227896 0.617592
v -0.106123 0.231711 0.612616
v -0.139816 0.253820 0.566083
v -0.146582 0.257455 0.564373
v -0.077275 0.148955 0.588168
v -0.074300 0.153514 0.588042
v -0.120011 0.197219 0.520406
v -0.109561 0.180773 0.523795
v -0.127388 0.210665 0.519088
v -0.131813 0.220781 0.518711
v -0.136569 0.227727 0.516046
v -0.084623 0.187027 0.577162
v -0.103865 0.195594 0.568814
v -0.118761 0.205495 0.572640
v -0.136535 0.212751 0.597054
v -0.144517 0.215364 0.590691
v -0.137045 0.209446 0.585562
v -0.131282 0.208917 0.592136
v -0.131052 0.224175 0.609111
v -0.130768 0.216106 0.607330
v -0.123904 0.214616 0.613461
v -0.122907 0.221721 0.617013
v -0.090167 0.174979 0.532431
v -0.093139 0.188574 0.530374
v -0.159607 0.234040 0.572490
v -0.163150 0.235744 0.565734
v -0.167148 0.240061 0.559557
v -0.138973 0.208734 0.562184
v -0.149633 0.212112 0.553585
v -0.147446 0.209354 0.550726
v -0.136632 0.208106 0.560149
v -0.125963 0.194801 0.555722
v -0.137369 0.194744 0.548283
v -0.118092 0.185133 0.555632
v -0.153216 0.217457 0.539983
v -0.161781 0.224411 0.540511
v -0.157600 0.222193 0.532938
v -0.165479 0.229193 0.548281
v -0.167598 0.234528 0.555151
v -0.151943 0.263405 0.561425
v -0.152277 0.221113 0.526460
v -0.110616 0.168496 0.547452
v -0.105450 0.162271 0.545733
v -0.100024 0.166460 0.550179
v -0.104947 0.172910 0.552851
v -0.065668 0.185550 0.562766
v -0.071664 0.182497 0.562807
v -0.077057 0.184272 0.558507
v -0.147932 0.211370 0.571402
v -0.154320 0.219823 0.578489
v -0.078542 0.185502 0.576812
v -0.070305 0.157929 0.581212
v -0.072894 0.157998 0.575870
v -0.066707 0.177019 0.567125
v -0.062746 0.176627 0.573304
v -0.076248 0.186505 0.583001
v -0.079570 0.186149 0.576494
v -0.080523 0.185453 0.577149
v -0.079998 0.184275 0.583873
v -0.096265 0.200162 0.608277
v -0.099744 0.202104 0.606151
v -0.065375 0.204164 0.583508
v -0.058367 0.200251 0.571970
v -0.067718 0.207485 0.562668
v -0.104431 0.201475 0.588608
v -0.097024 0.198639 0.595059
v -0.099719 0.200430 0.597799
v -0.083338 0.187590 0.581467
v -0.078036 0.186734 0.582850
v -0.080310 0.188421 0.585994
v -0.086793 0.190214 0.584382
v -0.133254 0.236311 0.597403
v -0.140407 0.227369 0.600177
v -0.082618 0.151757 0.575432
v -0.079451 0.155141 0.574754
v -0.112930 0.204977 0.582029
v -0.081348 0.212309 0.554908
v -0.122389 0.207469 0.576279
v -0.091878 0.217956 0.612397
v -0.096933 0.212704 0.615497
v -0.095203 0.206887 0.617416
v -0.089959 0.209259 0.616470
v -0.085059 0.168886 0.588986
v -0.087629 0.168344 0.583611
v -0.089100 0.163111 0.584580
v -0.087058 0.163022 0.590066
v -0.079069 0.185301 0.570661
v -0.075769 0.182890 0.566154
v -0.078259 0.181241 0.566637
v -0.080519 0.183366 0.572126
v -0.070998 0.182315 0.563514
v -0.072507 0.179007 0.564713
v -0.079761 0.166855 0.592366
v -0.073443 0.162792 0.591766
v -0.066565 0.180688 0.586734
v -0.074620 0.181161 0.588315
v -0.116583 0.241730 0.572349
v -0.124890 0.243732 0.579626
v -0.115508 0.237335 0.589873
v -0.105649 0.232265 0.600748
v -0.096103 0.226297 0.609893
v -0.086157 0.224991 0.602753
v -0.122707 0.238659 0.593917
v -0.070034 0.194109 0.586336
v -0.063843 0.192586 0.583941
v -0.066203 0.197775 0.586514
v -0.127351 0.208431 0.581806
v -0.077238 0.159949 0.572883
v -0.123822 0.240726 0.528588
v -0.126048 0.249140 0.538775
v -0.119829 0.243681 0.541792
v -0.117872 0.233607 0.530537
v -0.086712 0.166313 0.577118
v -0.083013 0.163100 0.572764
v -0.103218 0.203394 0.611662
v -0.098977 0.201106 0.613183
v -0.098752 0.202011 0.615725
v -0.103783 0.203604 0.616895
v -0.130326 0.244444 0.582195
v -0.110809 0.221031 0.623146
v -0.102380 0.226105 0.618194
v -0.132620 0.249300 0.570486
v -0.125207 0.248223 0.564114
v -0.131682 0.253189 0.558685
v -0.076240 0.214962 0.598039
v -0.109553 0.238583 0.568203
v -0.119583 0.245188 0.559797
v -0.127086 0.250947 0.553092
v -0.132449 0.255855 0.548892
v -0.137031 0.257674 0.555440
v -0.071161 0.159579 0.587434
v -0.077163 0.156465 0.593252
v -0.142410 0.264213 0.552068
v -0.137384 0.261330 0.544762
v -0.113920 0.240988 0.553816
v -0.108233 0.234716 0.546292
v -0.104554 0.234521 0.562201
v -0.097848 0.227982 0.555464
v -0.067575 0.216041 0.590734
v -0.090770 0.145395 0.595177
v -0.085067 0.154978 0.594455
v -0.089137 0.157906 0.591422
v -0.093957 0.148271 0.594262
v -0.082628 0.160725 0.593493
v -0.080241 0.151917 0.593311
v -0.093742 0.217691 0.545654
v -0.075594 0.189357 0.586629
v -0.106626 0.221655 0.534231
v -0.087048 0.203001 0.538362
v -0.098221 0.204191 0.530376
v -0.119734 0.223184 0.522142
v -0.111877 0.208309 0.521754
v -0.130858 0.236776 0.518922
v -0.124962 0.231000 0.521698
v -0.104615 0.193321 0.523090
v -0.094279 0.148411 0.579795
v -0.096380 0.151143 0.584342
v -0.129126 0.246162 0.525205
v -0.110660 0.178533 0.554457
v -0.135357 0.209230 0.574409
v -0.131186 0.208612 0.570606
v -0.148678 0.217050 0.586094
v -0.141730 0.210273 0.579194
v -0.090668 0.144947 0.578041
v -0.084182 0.197617 0.601945
v -0.085734 0.197846 0.601899
v -0.112819 0.166128 0.538820
v -0.108387 0.161135 0.538481
v -0.100320 0.164858 0.528213
v -0.105670 0.161421 0.531860
v -0.110575 0.167745 0.530462
v -0.105272 0.171852 0.526218
v -0.140664 0.209026 0.564237
v -0.142929 0.209727 0.567420
v -0.141220 0.238919 0.588396
v -0.147552 0.229628 0.591414
v -0.065444 0.183045 0.565163
v -0.060720 0.190091 0.566996
v -0.060967 0.185138 0.570280
v -0.061822 0.179836 0.579998
v -0.073534 0.190500 0.585979
v -0.071989 0.188536 0.586075
v -0.142861 0.202576 0.549693
v -0.132165 0.203568 0.557595
v -0.098036 0.176376 0.553394
v -0.093736 0.171030 0.550478
v -0.092074 0.194871 0.588269
v -0.074972 0.203539 0.601500
v -0.068185 0.204480 0.594647
v -0.084592 0.192760 0.592219
v -0.086020 0.139884 0.583032
v -0.088335 0.142173 0.579172
v -0.059920 0.188333 0.576649
v -0.106114 0.202912 0.602960
v -0.078871 0.208478 0.603077
v -0.079965 0.200558 0.604119
v -0.118640 0.218013 0.620822
v -0.132076 0.254209 0.534580
v -0.091615 0.158545 0.586294
v -0.096552 0.151981 0.589354
v -0.087333 0.143036 0.593965
v -0.084555 0.140818 0.589166
v -0.153349 0.230612 0.582065
v -0.128154 0.207946 0.568334
v -0.099497 0.181207 0.525253
v -0.094847 0.170733 0.528584
v -0.080106 0.193779 0.593278
v -0.097121 0.220515 0.615344
v -0.083634 0.216521 0.608432
v -0.081952 0.207600 0.612679
v -0.079249 0.202938 0.607391
v -0.081661 0.197895 0.603289
v -0.091940 0.139883 0.594562
v -0.089422 0.137158 0.589719
v -0.091086 0.136195 0.583779
v -0.092842 0.138652 0.579982
v -0.094320 0.142786 0.578883
v -0.095391 0.142439 0.595719
v -0.098022 0.145197 0.594562
v -0.098863 0.149592 0.589985
v -0.099762 0.140967 0.595893
v -0.099082 0.135911 0.595099
v -0.104289 0.130310 0.583826
v -0.098711 0.131640 0.585207
v -0.100580 0.130743 0.586965
v -0.105270 0.129194 0.586717
v -0.109876 0.127334 0.587966
v -0.109504 0.128356 0.584569
v -0.098466 0.132715 0.590564
v -0.104759 0.130641 0.591028
v -0.105502 0.133079 0.594415
v -0.110289 0.130525 0.594982
v -0.109750 0.128094 0.592046
v -0.101076 0.134085 0.593958
v -0.096198 0.133274 0.590657
v -0.113286 0.127592 0.587068
v -0.112373 0.126511 0.589172
v -0.112714 0.127468 0.592357
v -0.115556 0.128226 0.591537
v -0.097517 0.135743 0.580724
v -0.105029 0.131986 0.581994
v -0.110726 0.131137 0.583722
v -0.114321 0.130128 0.586342
v -0.107503 0.135222 0.582080
v -0.111650 0.133908 0.584140
v -0.114771 0.133415 0.586646
v -0.109564 0.138552 0.583826
v -0.112718 0.136505 0.585676
v -0.099373 0.144135 0.580919
v -0.097452 0.140699 0.579388
v -0.114875 0.135554 0.586790
v -0.116477 0.130233 0.591230
v -0.105065 0.136364 0.596002
v -0.111364 0.133538 0.595731
v -0.105959 0.138545 0.595994
v -0.112171 0.135762 0.596128
v -0.114820 0.130899 0.595569
v -0.112910 0.129391 0.594654
v -0.096202 0.147120 0.580803
v -0.098160 0.149827 0.585604
v -0.100851 0.147576 0.585807
v -0.110458 0.141511 0.587471
v -0.101730 0.147718 0.590196
v -0.102131 0.143664 0.594689
v -0.108046 0.140352 0.595032
v -0.109648 0.141964 0.592471
v -0.112671 0.137861 0.594684
v -0.113052 0.138911 0.592347
v -0.113576 0.138600 0.588567
v -0.115619 0.135519 0.593325
v -0.115464 0.133023 0.594998
v -0.116374 0.133496 0.590245
v -0.115112 0.137014 0.592104
v -0.115241 0.135769 0.589390
v -0.087512 0.165613 0.595922
v -0.091787 0.168515 0.599639
v -0.089164 0.172709 0.598059
v -0.085590 0.169959 0.594870
v -0.076844 0.161497 0.603389
v -0.079876 0.161826 0.598033
v -0.076828 0.165800 0.597044
v -0.074021 0.166275 0.603384
v -0.077903 0.164204 0.609892
v -0.075423 0.169375 0.609380
v -0.071273 0.171628 0.602127
v -0.074395 0.171106 0.595616
v -0.070629 0.189861 0.588157
v -0.067354 0.191742 0.593406
v -0.085709 0.195039 0.596376
v -0.085755 0.195341 0.599625
v -0.083977 0.163624 0.595899
v -0.081222 0.167612 0.594788
v -0.090536 0.179595 0.605486
v -0.090838 0.178315 0.600040
v -0.091647 0.174440 0.602020
v -0.090992 0.175253 0.607441
v -0.078607 0.190525 0.586447
v -0.081707 0.192995 0.591892
v -0.074966 0.189776 0.586070
v -0.086306 0.179152 0.610606
v -0.079942 0.177507 0.612729
v -0.074739 0.195858 0.605763
v -0.080882 0.195541 0.605983
v -0.078912 0.171793 0.592563
v -0.088322 0.175823 0.595407
v -0.084372 0.173638 0.592426
v -0.073515 0.175097 0.608261
v -0.081952 0.171931 0.613644
v -0.095404 0.158590 0.615126
v -0.089711 0.169338 0.613027
v -0.093021 0.170296 0.609132
v -0.099553 0.159700 0.612250
v -0.087746 0.174213 0.611885
v -0.084169 0.167200 0.613842
v -0.097465 0.154216 0.599521
v -0.101381 0.157350 0.603392
v -0.093621 0.151672 0.599081
v -0.068955 0.194570 0.599602
v -0.085560 0.150990 0.605404
v -0.089705 0.150707 0.600434
v -0.094006 0.170267 0.604089
v -0.102069 0.159154 0.608018
v -0.091131 0.156741 0.615494
v -0.085375 0.154272 0.611480
v -0.094823 0.152081 0.615770
v -0.090328 0.148985 0.612221
v -0.090352 0.145959 0.606040
v -0.093590 0.146873 0.601149
v -0.096552 0.149009 0.599644
v -0.098817 0.154057 0.615527
v -0.102518 0.155678 0.612781
v -0.103593 0.156710 0.607820
v -0.104715 0.150307 0.614613
v -0.101879 0.146760 0.615412
v -0.108289 0.134716 0.602557
v -0.103060 0.137530 0.603562
v -0.103580 0.137209 0.606144
v -0.108352 0.134582 0.605388
v -0.097761 0.139767 0.606323
v -0.099758 0.139296 0.607933
v -0.100056 0.141903 0.611856
v -0.105385 0.139177 0.610187
v -0.107283 0.142684 0.613062
v -0.111951 0.139470 0.612574
v -0.110249 0.135760 0.609924
v -0.103015 0.143620 0.613834
v -0.111710 0.133303 0.605763
v -0.113602 0.133379 0.603945
v -0.096978 0.143027 0.612508
v -0.096420 0.143470 0.601615
v -0.104070 0.138759 0.600861
v -0.110197 0.136326 0.600401
v -0.115734 0.135402 0.603049
v -0.106994 0.141470 0.599323
v -0.112322 0.138752 0.599880
v -0.116480 0.138028 0.602646
v -0.110194 0.145039 0.599579
v -0.114908 0.142011 0.600825
v -0.101433 0.150872 0.599856
v -0.098631 0.147090 0.599250
v -0.116449 0.140418 0.602226
v -0.115920 0.134042 0.608172
v -0.118024 0.136103 0.606521
v -0.114136 0.134160 0.608819
v -0.108322 0.144452 0.613770
v -0.113590 0.140998 0.612405
v -0.110280 0.146520 0.613275
v -0.115581 0.142283 0.611777
v -0.116687 0.137662 0.611181
v -0.115316 0.136627 0.611236
v -0.099475 0.152179 0.600401
v -0.102511 0.155502 0.603878
v -0.104144 0.154566 0.603224
v -0.112501 0.148261 0.603185
v -0.105390 0.155682 0.607750
v -0.106136 0.152914 0.612322
v -0.111536 0.148526 0.611620
v -0.112959 0.149290 0.607897
v -0.116703 0.144026 0.611032
v -0.116255 0.145880 0.608333
v -0.116238 0.144775 0.603588
v -0.119109 0.140425 0.609403
v -0.118054 0.138624 0.610556
v -0.118369 0.138127 0.605597
v -0.118482 0.142783 0.607674
v -0.117976 0.141103 0.604413
v -0.094415 0.175434 0.611111
v -0.097667 0.178242 0.615058
v -0.096459 0.181552 0.613655
v -0.093116 0.179078 0.609876
v -0.082783 0.172825 0.616109
v -0.086068 0.171819 0.612409
v -0.083994 0.176011 0.610806
v -0.080011 0.178067 0.614143
v -0.083229 0.173617 0.621872
v -0.079701 0.180552 0.620045
v -0.077855 0.182993 0.612558
v -0.082238 0.180194 0.609236
v -0.081955 0.194150 0.604336
v -0.078002 0.196483 0.609029
v -0.090261 0.173199 0.610895
v -0.088829 0.176906 0.609477
v -0.096006 0.186173 0.621128
v -0.097432 0.184570 0.616607
v -0.097209 0.183142 0.618797
v -0.095381 0.183944 0.622667
v -0.092097 0.195143 0.603284
v -0.095374 0.197536 0.607683
v -0.087505 0.193521 0.602697
v -0.090446 0.187132 0.624619
v -0.083075 0.187330 0.624220
v -0.086409 0.200315 0.620136
v -0.092455 0.200014 0.619352
v -0.087263 0.180040 0.607898
v -0.096402 0.183243 0.611453
v -0.092646 0.181142 0.608029
v -0.078517 0.185816 0.618375
v -0.084382 0.182308 0.625305
v -0.097374 0.165040 0.631406
v -0.091264 0.179478 0.627409
v -0.096250 0.180543 0.624194
v -0.101230 0.166912 0.630126
v -0.090662 0.183465 0.626195
v -0.086016 0.177056 0.626653
v -0.101899 0.163932 0.616252
v -0.104096 0.166498 0.620685
v -0.097609 0.162564 0.615101
v -0.079316 0.199313 0.615565
v -0.096927 0.199131 0.615061
v -0.091345 0.159887 0.618639
v -0.094576 0.161114 0.615849
v -0.098031 0.180098 0.620114
v -0.103879 0.167773 0.626386
v -0.092649 0.163408 0.629951
v -0.089386 0.161572 0.624340
v -0.096281 0.158711 0.630188
v -0.092859 0.156982 0.624529
v -0.094093 0.156585 0.618517
v -0.097197 0.159293 0.615684
v -0.100003 0.161318 0.615185
v -0.101092 0.161407 0.631243
v -0.104119 0.163806 0.629929
v -0.104410 0.166940 0.625982
v -0.104791 0.159254 0.630702
v -0.102225 0.154536 0.629017
v -0.112523 0.149857 0.615178
v -0.106798 0.152154 0.616303
v -0.106850 0.151744 0.617446
v -0.112357 0.148917 0.616674
v -0.100161 0.153159 0.618577
v -0.101881 0.152464 0.619370
v -0.101364 0.152331 0.623371
v -0.107686 0.149971 0.622465
v -0.109387 0.153144 0.627518
v -0.114250 0.150639 0.625833
v -0.113044 0.147404 0.621266
v -0.103470 0.153578 0.627368
v -0.115511 0.147494 0.617000
v -0.116139 0.147373 0.615247
v -0.098719 0.152747 0.624125
v -0.100638 0.156960 0.615331
v -0.107539 0.154257 0.614175
v -0.113263 0.152032 0.613074
v -0.117505 0.150616 0.614154
v -0.109497 0.157625 0.614045
v -0.114316 0.154952 0.613589
v -0.118052 0.153527 0.614701
v -0.111416 0.160032 0.615552
v -0.115418 0.157423 0.615409
v -0.103849 0.163761 0.616741
v -0.102037 0.160788 0.614947
v -0.117885 0.155539 0.615970
v -0.118436 0.146828 0.619424
v -0.120719 0.150366 0.618941
v -0.116808 0.147016 0.619964
v -0.109583 0.154385 0.628880
v -0.115960 0.151712 0.626995
v -0.111017 0.156873 0.629275
v -0.117082 0.154101 0.627331
v -0.118703 0.149035 0.624234
v -0.117593 0.148697 0.623917
v -0.102676 0.163646 0.616778
v -0.104283 0.166262 0.621105
v -0.105186 0.166324 0.620903
v -0.113504 0.162286 0.619628
v -0.105738 0.166556 0.625658
v -0.107398 0.162017 0.629373
v -0.112553 0.159504 0.627590
v -0.113981 0.161624 0.624397
v -0.117606 0.156566 0.626004
v -0.117066 0.158632 0.624005
v -0.117136 0.159323 0.618971
v -0.119894 0.154277 0.623185
v -0.119955 0.151422 0.624260
v -0.120487 0.153556 0.618584
v -0.119365 0.156537 0.622087
v -0.119590 0.155947 0.618600
v -0.097251 0.198654 0.611673
v -0.098719 0.185664 0.623380
v -0.101642 0.186989 0.626437
v -0.101779 0.187878 0.626153
v -0.099426 0.187240 0.622338
v -0.088205 0.189399 0.625371
v -0.091024 0.186590 0.622845
v -0.090727 0.190158 0.621111
v -0.088118 0.192799 0.623673
v -0.088590 0.192337 0.629812
v -0.089189 0.194983 0.628568
v -0.089759 0.196444 0.622243
v -0.092311 0.193914 0.619182
v -0.097408 0.208938 0.614432
v -0.096203 0.213483 0.617503
v -0.115207 0.212301 0.623781
v -0.116895 0.209668 0.619741
v -0.112552 0.203138 0.624186
v -0.111359 0.206398 0.627429
v -0.094869 0.185624 0.622307
v -0.095293 0.188185 0.620280
v -0.102782 0.193696 0.633625
v -0.104248 0.191214 0.629623
v -0.103392 0.189421 0.629727
v -0.102877 0.191320 0.633961
v -0.114034 0.206536 0.616961
v -0.109426 0.205491 0.615789
v -0.108507 0.201943 0.617187
v -0.110505 0.200875 0.620606
v -0.102997 0.202998 0.615520
v -0.099232 0.196156 0.634825
v -0.093927 0.198398 0.632917
v -0.104782 0.214316 0.628442
v -0.108823 0.211107 0.628701
v -0.095756 0.190641 0.619333
v -0.103109 0.190072 0.625093
v -0.100385 0.188969 0.622143
v -0.090136 0.198518 0.627560
v -0.093532 0.195113 0.633578
v -0.098600 0.185559 0.639734
v -0.098716 0.192002 0.636902
v -0.102799 0.190415 0.634707
v -0.101738 0.185520 0.638393
v -0.099013 0.193150 0.635488
v -0.093122 0.192269 0.635297
v -0.100171 0.181311 0.626027
v -0.102990 0.183384 0.630506
v -0.096967 0.180557 0.624780
v -0.099011 0.216106 0.622638
v -0.090279 0.181566 0.628004
v -0.093647 0.180098 0.625561
v -0.103050 0.188371 0.630340
v -0.103633 0.184817 0.635012
v -0.093738 0.185038 0.638414
v -0.089658 0.184683 0.633094
v -0.095038 0.179905 0.639406
v -0.091157 0.179989 0.634216
v -0.093191 0.177835 0.628070
v -0.096425 0.179028 0.625960
v -0.099317 0.180274 0.625673
v -0.099927 0.182039 0.640705
v -0.102361 0.183166 0.639693
v -0.103832 0.183745 0.635811
v -0.101362 0.178455 0.641148
v -0.099596 0.174875 0.638339
v -0.109191 0.172012 0.629546
v -0.105340 0.173813 0.628642
v -0.105017 0.173150 0.629622
v -0.108668 0.171152 0.629980
v -0.099669 0.174904 0.628577
v -0.100909 0.173991 0.629914
v -0.098665 0.174127 0.633038
v -0.103694 0.171652 0.633492
v -0.104676 0.172920 0.638716
v -0.108360 0.170914 0.638491
v -0.107046 0.169700 0.633994
v -0.100459 0.173847 0.637190
v -0.110554 0.169306 0.631077
v -0.111974 0.169289 0.630726
v -0.095782 0.174675 0.632961
v -0.101304 0.178046 0.626442
v -0.107450 0.175264 0.627578
v -0.111712 0.172539 0.628957
v -0.114037 0.170474 0.631424
v -0.108499 0.177544 0.627778
v -0.113153 0.174325 0.629246
v -0.115194 0.172398 0.631761
v -0.109770 0.179969 0.629762
v -0.113665 0.176276 0.630808
v -0.104859 0.182874 0.629048
v -0.103509 0.180613 0.626746
v -0.115028 0.174036 0.632335
v -0.112044 0.168057 0.634526
v -0.114311 0.170107 0.634778
v -0.110305 0.167939 0.634628
v -0.105020 0.173743 0.639929
v -0.109567 0.171471 0.639641
v -0.106171 0.175573 0.641001
v -0.111030 0.173071 0.639999
v -0.111889 0.169439 0.637893
v -0.110065 0.169114 0.637223
v -0.102523 0.181645 0.627665
v -0.103719 0.182789 0.630874
v -0.105427 0.183586 0.633093
v -0.110139 0.181239 0.633953
v -0.104624 0.183549 0.638146
v -0.103106 0.181211 0.640992
v -0.107891 0.177824 0.640772
v -0.109598 0.180075 0.638749
v -0.112447 0.174586 0.639266
v -0.113383 0.176880 0.637497
v -0.113934 0.177620 0.634109
v -0.114538 0.172488 0.636871
v -0.113819 0.170876 0.637566
v -0.115243 0.171973 0.634699
v -0.114907 0.174208 0.636132
v -0.115180 0.174220 0.634421
v -0.111807 0.214077 0.625540
v -0.084093 0.161886 0.535926
v -0.084158 0.163514 0.541316
v -0.096109 0.154343 0.548360
v -0.090103 0.158406 0.549319
v -0.099611 0.150722 0.543397
v -0.098002 0.150240 0.532158
v -0.100645 0.150364 0.537486
v -0.085957 0.161857 0.546535
v -0.087035 0.158948 0.531075
v -0.092876 0.154251 0.528821
v -0.078564 0.152590 0.532367
v -0.085123 0.146566 0.530125
v -0.090477 0.142303 0.533158
v -0.095679 0.144716 0.539518
v -0.096627 0.146402 0.544412
v -0.079741 0.158094 0.538738
v -0.081167 0.159927 0.543566
v -0.085202 0.158469 0.548625
v -0.075931 0.154898 0.544789
v -0.073852 0.145863 0.547472
v -0.081949 0.130379 0.557557
v -0.084923 0.133990 0.552292
v -0.082260 0.134342 0.551865
v -0.079722 0.130674 0.556481
v -0.084470 0.136534 0.546854
v -0.082527 0.137046 0.548038
v -0.078780 0.140537 0.546597
v -0.076701 0.137232 0.551526
v -0.075377 0.143669 0.548934
v -0.073845 0.142347 0.553158
v -0.074401 0.134118 0.556048
v -0.076524 0.129241 0.558643
v -0.072673 0.131548 0.559876
v -0.078171 0.128953 0.561204
v -0.077096 0.139689 0.542921
v -0.090561 0.138558 0.545196
v -0.088187 0.134913 0.552941
v -0.084709 0.131745 0.559488
v -0.079964 0.130605 0.563298
v -0.090273 0.137646 0.555471
v -0.086200 0.135375 0.561012
v -0.081553 0.134966 0.564342
v -0.089814 0.141871 0.557974
v -0.085353 0.139144 0.562074
v -0.094131 0.148750 0.550589
v -0.094810 0.143157 0.547486
v -0.082066 0.137636 0.563863
v -0.072666 0.131300 0.562683
v -0.074608 0.133314 0.564766
v -0.072985 0.145573 0.553533
v -0.071358 0.139390 0.557195
v -0.071396 0.141801 0.558642
v -0.074058 0.149240 0.554419
v -0.072351 0.143827 0.560206
v -0.070529 0.136998 0.561795
v -0.070807 0.135779 0.559380
v -0.095140 0.150475 0.548888
v -0.090592 0.155154 0.550072
v -0.090057 0.153874 0.551279
v -0.086079 0.147455 0.558856
v -0.084691 0.156894 0.551186
v -0.079356 0.157077 0.548187
v -0.076479 0.151066 0.556472
v -0.080899 0.150817 0.558137
v -0.075347 0.145039 0.561592
v -0.078341 0.144964 0.562041
v -0.082447 0.142463 0.562827
v -0.075176 0.140365 0.564153
v -0.072086 0.138971 0.563534
v -0.077444 0.136746 0.565233
v -0.077506 0.141505 0.563646
v -0.079632 0.139261 0.564319
v -0.120150 0.212661 0.616117
v -0.116765 0.208424 0.612427
v -0.121701 0.210282 0.609354
v -0.128930 0.211180 0.603640
v -0.137125 0.217387 0.601384
v -0.124733 0.208394 0.598615
v -0.117554 0.207443 0.604832
v -0.110289 0.205094 0.609179
v -0.126173 0.208348 0.588401
f 780 781 779
f 779 781 782
f 783 784 786
f 786 784 785
f 787 782 788
f 788 782 781
f 790 791 789
f 789 791 787
f 792 790 794
f 794 790 793
f 796 797 795
f 795 797 798
f 800 801 799
f 799 801 802
f 804 805 803
f 803 805 806
f 808 809 807
f 807 809 810
f 811 812 814
f 814 812 813
f 815 816 818
f 818 816 817
f 819 820 784
f 784 820 821
f 784 821 785
f 785 821 822
f 823 812 824
f 824 812 811
f 826 827 825
f 825 827 828
f 830 831 829
f 829 831 832
f 834 830 833
f 833 830 829
f 836 837 835
f 835 837 838
f 839 840 782
f 782 840 779
f 842 843 841
f 841 843 844
f 846 847 845
f 845 847 848
f 850 851 849
f 849 851 852
f 854 855 853
f 853 855 856
f 831 857 832
f 832 857 858
f 860 861 859
f 859 861 862
f 863 864 830
f 830 864 831
f 835 838 865
f 865 838 866
f 867 868 821
f 821 868 822
f 821 820 867
f 867 820 869
f 818 817 870
f 870 817 871
f 872 848 842
f 842 848 847
f 791 839 787
f 787 839 782
f 803 806 847
f 847 806 873
f 874 803 846
f 846 803 847
f 876 877 875
f 875 877 878
f 879 880 882
f 882 880 881
f 884 808 883
f 883 808 807
f 829 832 885
f 885 832 886
f 832 858 886
f 886 858 887
f 889 890 888
f 888 890 891
f 893 783 892
f 892 783 894
f 893 819 783
f 783 819 784
f 814 813 889
f 889 813 895
f 813 896 895
f 895 896 897
f 812 898 813
f 813 898 896
f 812 823 898
f 898 823 899
f 903 904 902
f 902 904 905
f 906 907 792
f 792 907 908
f 811 909 824
f 824 909 910
f 911 872 841
f 841 872 842
f 912 913 915
f 915 913 914
f 917 918 916
f 916 918 919
f 855 920 856
f 856 920 921
f 922 923 798
f 798 923 924
f 926 927 925
f 925 927 850
f 929 930 928
f 928 930 931
f 860 879 861
f 861 879 882
f 879 860 933
f 933 860 932
f 934 935 836
f 836 935 837
f 936 846 925
f 925 846 845
f 937 924 793
f 793 924 794
f 846 936 874
f 874 936 938
f 907 844 908
f 908 844 843
f 940 941 939
f 939 941 942
f 944 945 943
f 943 945 946
f 948 949 947
f 947 949 950
f 952 949 951
f 951 949 948
f 954 955 953
f 953 955 956
f 958 959 957
f 957 959 802
f 960 961 799
f 799 961 962
f 859 963 860
f 860 963 932
f 964 965 966
f 966 965 922
f 936 849 938
f 938 849 967
f 968 913 935
f 935 913 837
f 947 950 917
f 917 950 918
f 925 850 936
f 936 850 849
f 970 971 969
f 969 971 972
f 945 944 827
f 827 944 973
f 974 968 828
f 828 968 935
f 975 976 978
f 978 976 977
f 799 802 960
f 960 802 959
f 924 937 798
f 798 937 795
f 960 959 859
f 859 959 963
f 979 963 958
f 958 963 959
f 980 981 861
f 861 981 862
f 983 984 982
f 982 984 863
f 985 800 962
f 962 800 799
f 957 802 986
f 986 802 801
f 986 987 957
f 957 987 983
f 987 988 983
f 983 988 984
f 990 984 989
f 989 984 988
f 957 983 958
f 958 983 982
f 991 954 866
f 866 954 992
f 864 863 990
f 990 863 984
f 971 995 996
f 995 997 996
f 996 997 998
f 997 796 998
f 998 796 795
f 797 999 798
f 798 999 922
f 1000 1001 1003
f 1003 1001 1002
f 953 1004 954
f 954 1004 992
f 1005 865 992
f 992 865 866
f 998 795 1006
f 1006 795 937
f 912 991 838
f 838 991 866
f 916 1007 929
f 929 1007 930
f 971 970 988
f 988 970 989
f 1008 972 996
f 996 972 971
f 1009 1010 1006
f 1006 1010 1008
f 1011 1012 869
f 869 1012 867
f 1013 1014 871
f 871 1014 870
f 1008 1010 1012
f 1012 1010 1015
f 825 1016 826
f 826 1016 1017
f 1018 969 1013
f 1013 969 1014
f 783 786 894
f 894 786 1019
f 1020 1021 967
f 967 1021 938
f 1022 1023 876
f 876 1023 877
f 934 1024 825
f 825 1024 1016
f 854 1025 855
f 855 1025 1026
f 1028 903 1027
f 1027 903 902
f 1030 1031 1029
f 1029 1031 1032
f 889 888 814
f 814 888 1033
f 1034 811 1033
f 1033 811 814
f 1035 1036 932
f 932 1036 933
f 841 947 911
f 911 947 917
f 844 948 841
f 841 948 947
f 951 948 907
f 907 948 844
f 907 906 951
f 951 906 1037
f 906 1038 1037
f 1037 1038 1039
f 991 912 1040
f 1040 912 915
f 1041 1042 964
f 964 1042 965
f 890 1043 891
f 891 1043 1044
f 789 1045 1046
f 1012 1011 1008
f 1008 1011 972
f 931 1047 848
f 848 1047 845
f 953 956 943
f 943 956 919
f 928 931 872
f 872 931 848
f 1049 999 1048
f 1048 999 985
f 1047 931 1050
f 1050 931 930
f 899 823 887
f 887 823 886
f 825 828 934
f 934 828 935
f 835 1051 836
f 836 1051 1052
f 923 1053 1038
f 1038 1053 1039
f 1054 927 921
f 921 927 856
f 926 1047 853
f 853 1047 1050
f 985 1055 1048
f 1048 1055 1056
f 973 974 827
f 827 974 828
f 837 913 838
f 838 913 912
f 861 882 980
f 980 882 1057
f 927 926 856
f 856 926 853
f 1025 1056 1026
f 1026 1056 1055
f 961 960 862
f 862 960 859
f 826 1017 1059
f 1059 1017 1060
f 1005 1001 1061
f 1061 1001 1000
f 1001 1004 1002
f 1002 1004 946
f 1059 1060 1002
f 1002 1060 1003
f 943 946 953
f 953 946 1004
f 1042 1041 916
f 916 1041 1007
f 792 794 906
f 906 794 1038
f 998 1006 996
f 996 1006 1008
f 865 1005 1062
f 1062 1005 1061
f 1038 794 923
f 923 794 924
f 1022 876 1036
f 1036 876 933
f 836 1052 934
f 934 1052 1024
f 885 1063 829
f 829 1063 833
f 1021 1064 938
f 938 1064 874
f 1012 1015 867
f 867 1015 868
f 824 910 885
f 885 910 1063
f 1031 1030 1027
f 1027 1030 1028
f 1064 804 874
f 874 804 803
f 884 883 1065
f 1065 883 1066
f 1050 930 1067
f 1067 930 1007
f 916 929 917
f 917 929 911
f 961 1068 939
f 939 1068 940
f 1069 1070 1055
f 1055 1070 1071
f 929 928 911
f 911 928 872
f 1040 1053 955
f 955 1053 965
f 922 965 923
f 923 965 1053
f 1051 835 1062
f 1062 835 865
f 952 914 968
f 968 914 913
f 889 895 890
f 890 895 816
f 895 897 816
f 816 897 901
f 890 816 1043
f 1043 816 815
f 1065 1066 1032
f 1032 1066 1029
f 1006 937 1009
f 1009 937 793
f 1001 1005 1004
f 1004 1005 992
f 925 845 926
f 926 845 1047
f 1002 946 1059
f 1059 946 945
f 977 941 978
f 978 941 940
f 823 824 886
f 886 824 885
f 1059 945 826
f 826 945 827
f 939 942 1069
f 1069 942 1070
f 816 901 817
f 1071 1072 1055
f 1055 1072 1026
f 1062 1061 1074
f 1074 1061 1073
f 1062 1074 1051
f 1051 1074 1075
f 1052 1051 1076
f 1076 1051 1075
f 1024 1052 1077
f 1077 1052 1076
f 1061 1000 1073
f 1073 1000 1078
f 1000 1003 1078
f 1078 1003 1079
f 1079 1003 1080
f 1080 1003 1060
f 1081 1082 1078
f 1078 1082 1073
f 1084 1085 1083
f 1083 1085 1086
f 1087 1088 1086
f 1086 1088 1083
f 1086 1085 1090
f 1090 1085 1089
f 1091 1092 1090
f 1090 1092 1093
f 1089 1094 1090
f 1090 1094 1091
f 1095 1082 1089
f 1089 1082 1094
f 1093 1087 1090
f 1090 1087 1086
f 1096 1097 1099
f 1099 1097 1098
f 1097 1096 1087
f 1087 1096 1088
f 1089 1085 1095
f 1095 1085 1084
f 1084 1075 1095
f 1095 1075 1074
f 1084 1100 1075
f 1075 1100 1076
f 1083 1101 1084
f 1084 1101 1100
f 1101 1083 1102
f 1102 1083 1088
f 1082 1095 1073
f 1073 1095 1074
f 1096 1103 1088
f 1088 1103 1102
f 1101 1102 1104
f 1104 1102 1105
f 1102 1103 1105
f 1105 1103 1106
f 1104 1105 1107
f 1107 1105 1108
f 1107 1109 1104
f 1104 1109 1110
f 1111 1108 1106
f 1106 1108 1105
f 1101 1104 1100
f 1100 1104 1110
f 1100 1110 1076
f 1076 1110 1077
f 1103 1096 1112
f 1112 1096 1099
f 1091 1094 1113
f 1113 1094 1082
f 1113 1114 1091
f 1091 1114 1092
f 1082 1081 1113
f 1113 1081 1115
f 1114 1113 1116
f 1116 1113 1115
f 1114 1117 1092
f 1092 1117 1118
f 1024 1077 1016
f 1016 1077 1119
f 1017 1120 1060
f 1060 1120 1080
f 1120 1017 1119
f 1119 1017 1016
f 1119 1109 1120
f 1120 1109 1121
f 1109 1107 1121
f 1121 1107 1122
f 1120 1121 1080
f 1080 1121 1123
f 1119 1077 1109
f 1109 1077 1110
f 1124 1079 1123
f 1123 1079 1080
f 1124 1081 1079
f 1079 1081 1078
f 1125 1115 1124
f 1124 1115 1081
f 1125 1124 1126
f 1126 1124 1123
f 1127 1125 1128
f 1128 1125 1126
f 1121 1122 1123
f 1123 1122 1126
f 1122 1129 1126
f 1126 1129 1128
f 1115 1125 1116
f 1116 1125 1127
f 1131 1116 1130
f 1130 1116 1127
f 1130 1133 1132
f 1132 1133 1134
f 1130 1127 1133
f 1133 1127 1128
f 1130 1132 1131
f 1131 1132 1112
f 1131 1112 1117
f 1117 1112 1099
f 1117 1114 1131
f 1131 1114 1116
f 1107 1108 1122
f 1122 1108 1129
f 1134 1129 1111
f 1111 1129 1108
f 1134 1133 1129
f 1129 1133 1128
f 1132 1134 1106
f 1106 1134 1111
f 1106 1103 1132
f 1132 1103 1112
f 1087 1093 1097
f 1097 1093 1098
f 1098 1118 1099
f 1099 1118 1117
f 1098 1093 1118
f 1118 1093 1092
f 915 914 1039
f 1039 914 1037
f 918 944 919
f 919 944 943
f 950 949 973
f 973 949 974
f 949 952 974
f 974 952 968
f 956 955 1042
f 1042 955 965
f 950 973 918
f 918 973 944
f 915 1039 1040
f 1040 1039 1053
f 956 1042 919
f 919 1042 916
f 1040 955 991
f 991 955 954
f 914 952 1037
f 1037 952 951
f 1136 1137 1135
f 1135 1137 1138
f 1140 1141 1139
f 1139 1141 1142
f 1139 1142 1143
f 1143 1142 1144
f 1145 1146 1148
f 1148 1146 1147
f 854 1149 1025
f 1025 1149 1150
f 1151 1152 1140
f 1140 1152 1141
f 1154 1155 1153
f 1153 1155 1156
f 1067 1007 1158
f 1158 1007 1157
f 1159 1157 1041
f 1041 1157 1007
f 1161 1162 1160
f 1160 1162 1163
f 1164 1146 1152
f 1152 1146 1141
f 854 1067 1149
f 1149 1067 1158
f 1155 1154 1137
f 1137 1154 1165
f 1166 1164 1138
f 1138 1164 1152
f 1167 1161 1144
f 1144 1161 1168
f 1170 1171 1169
f 1169 1171 1172
f 1161 1160 1168
f 1168 1160 1173
f 1174 1143 1168
f 1168 1143 1144
f 1167 1144 1145
f 1145 1144 1142
f 1135 1175 1136
f 1136 1175 1176
f 1151 1177 1135
f 1135 1177 1175
f 1167 1145 1178
f 1178 1145 1148
f 1160 1163 1153
f 1153 1163 1150
f 1135 1138 1151
f 1151 1138 1152
f 1139 1179 1140
f 1140 1179 1180
f 1165 1166 1137
f 1137 1166 1138
f 1141 1146 1142
f 1142 1146 1145
f 1136 1176 1181
f 1181 1176 1182
f 1174 1170 1183
f 1183 1170 1169
f 1170 1173 1171
f 1171 1173 1156
f 1171 1181 1172
f 1172 1181 1182
f 1153 1156 1160
f 1160 1156 1173
f 1143 1174 1184
f 1184 1174 1183
f 1140 1180 1151
f 1151 1180 1177
f 1049 1048 1178
f 1178 1048 1162
f 1179 1139 1184
f 1184 1139 1143
f 1159 1147 1164
f 1164 1147 1146
f 1170 1174 1173
f 1173 1174 1168
f 1171 1156 1181
f 1181 1156 1155
f 1181 1155 1136
f 1136 1155 1137
f 1184 1183 1186
f 1186 1183 1185
f 1184 1186 1179
f 1179 1186 1187
f 1179 1187 1180
f 1180 1187 1188
f 1180 1188 1177
f 1177 1188 1189
f 1183 1169 1185
f 1185 1169 1190
f 1169 1172 1190
f 1190 1172 1191
f 1172 1182 1191
f 1191 1182 1192
f 1193 1194 1190
f 1190 1194 1185
f 1196 1197 1195
f 1195 1197 1198
f 1199 1200 1196
f 1196 1200 1197
f 1197 1200 1202
f 1202 1200 1201
f 1203 1204 1202
f 1202 1204 1205
f 1201 1206 1202
f 1202 1206 1203
f 1205 1198 1202
f 1202 1198 1197
f 1198 1207 1195
f 1195 1207 1208
f 1201 1200 1209
f 1209 1200 1199
f 1199 1187 1209
f 1209 1187 1186
f 1199 1210 1187
f 1187 1210 1188
f 1196 1211 1199
f 1199 1211 1210
f 1212 1211 1195
f 1195 1211 1196
f 1209 1194 1201
f 1201 1194 1206
f 1194 1209 1185
f 1185 1209 1186
f 1213 1212 1208
f 1208 1212 1195
f 1211 1212 1214
f 1214 1212 1215
f 1212 1213 1215
f 1215 1213 1216
f 1214 1215 1217
f 1217 1215 1218
f 1217 1219 1214
f 1214 1219 1220
f 1216 1221 1215
f 1215 1221 1218
f 1214 1220 1211
f 1211 1220 1210
f 1210 1220 1188
f 1188 1220 1189
f 1213 1208 1223
f 1223 1208 1222
f 1208 1207 1222
f 1222 1207 1224
f 1203 1206 1225
f 1225 1206 1194
f 1204 1203 1226
f 1226 1203 1225
f 1194 1193 1225
f 1225 1193 1227
f 1225 1227 1226
f 1226 1227 1228
f 1229 1230 1226
f 1226 1230 1204
f 1224 1230 1222
f 1222 1230 1229
f 1177 1189 1175
f 1175 1189 1231
f 1176 1232 1182
f 1182 1232 1192
f 1232 1176 1231
f 1231 1176 1175
f 1231 1219 1232
f 1232 1219 1233
f 1219 1217 1233
f 1233 1217 1234
f 1232 1233 1192
f 1192 1233 1235
f 1219 1231 1220
f 1220 1231 1189
f 1236 1191 1235
f 1235 1191 1192
f 1236 1193 1191
f 1191 1193 1190
f 1236 1237 1193
f 1193 1237 1227
f 1237 1236 1238
f 1238 1236 1235
f 1239 1237 1240
f 1240 1237 1238
f 1233 1234 1235
f 1235 1234 1238
f 1234 1241 1238
f 1238 1241 1240
f 1237 1239 1227
f 1227 1239 1228
f 1243 1228 1242
f 1242 1228 1239
f 1242 1245 1244
f 1244 1245 1246
f 1242 1239 1245
f 1245 1239 1240
f 1242 1244 1243
f 1243 1244 1223
f 1243 1223 1229
f 1229 1223 1222
f 1229 1226 1243
f 1243 1226 1228
f 1217 1218 1234
f 1234 1218 1241
f 1246 1241 1221
f 1221 1241 1218
f 1246 1245 1241
f 1241 1245 1240
f 1244 1246 1216
f 1216 1246 1221
f 1216 1213 1244
f 1244 1213 1223
f 1198 1205 1207
f 1207 1205 1224
f 1224 1205 1230
f 1230 1205 1204
f 1148 1147 966
f 966 1147 964
f 1149 1154 1150
f 1150 1154 1153
f 1158 1157 1165
f 1165 1157 1166
f 1157 1159 1166
f 1166 1159 1164
f 1163 1162 1056
f 1056 1162 1048
f 1158 1165 1149
f 1149 1165 1154
f 1178 1148 1049
f 1049 1148 966
f 1163 1056 1150
f 1150 1056 1025
f 1178 1162 1167
f 1167 1162 1161
f 1147 1159 964
f 964 1159 1041
f 999 1049 922
f 922 1049 966
f 999 797 985
f 985 797 800
f 797 796 800
f 800 796 801
f 796 997 801
f 801 997 986
f 1247 1248 1250
f 1250 1248 1249
f 1252 1253 1251
f 1251 1253 1254
f 1251 1254 1255
f 1255 1254 1256
f 1258 1259 1257
f 1257 1259 1260
f 1261 1262 1252
f 1252 1262 1253
f 1264 1265 1263
f 1263 1265 1266
f 1267 1268 855
f 855 1268 920
f 1269 1267 1026
f 1026 1267 855
f 1271 1272 1270
f 1270 1272 1273
f 1274 1258 1262
f 1262 1258 1253
f 1264 1275 1265
f 1265 1275 1249
f 1276 1274 1250
f 1250 1274 1262
f 1277 1271 1256
f 1256 1271 1278
f 1279 1280 1282
f 1282 1280 1281
f 1271 1270 1278
f 1278 1270 1283
f 1284 1255 1278
f 1278 1255 1256
f 1277 1256 1257
f 1257 1256 1254
f 1247 1285 1248
f 1248 1285 1286
f 1261 1287 1247
f 1247 1287 1285
f 1257 1260 1277
f 1277 1260 1288
f 1270 1273 1263
f 1263 1273 1289
f 1261 1247 1262
f 1262 1247 1250
f 1251 1290 1252
f 1252 1290 1291
f 1275 1276 1249
f 1249 1276 1250
f 1253 1258 1254
f 1254 1258 1257
f 1248 1286 1292
f 1292 1286 1293
f 1284 1280 1294
f 1294 1280 1279
f 1281 1280 1266
f 1266 1280 1283
f 1292 1293 1281
f 1281 1293 1282
f 1263 1266 1270
f 1270 1266 1283
f 1255 1284 1295
f 1295 1284 1294
f 1252 1291 1261
f 1261 1291 1287
f 1288 1070 1272
f 1272 1070 942
f 1290 1251 1295
f 1295 1251 1255
f 1269 1259 1274
f 1274 1259 1258
f 1280 1284 1283
f 1283 1284 1278
f 1281 1266 1292
f 1292 1266 1265
f 1292 1265 1248
f 1248 1265 1249
f 1295 1294 1297
f 1297 1294 1296
f 1295 1297 1290
f 1290 1297 1298
f 1290 1298 1291
f 1291 1298 1299
f 1291 1299 1287
f 1287 1299 1300
f 1294 1279 1296
f 1296 1279 1301
f 1279 1282 1301
f 1301 1282 1302
f 1302 1282 1303
f 1303 1282 1293
f 1304 1305 1301
f 1301 1305 1296
f 1307 1308 1306
f 1306 1308 1309
f 1310 1311 1307
f 1307 1311 1308
f 1308 1311 1313
f 1313 1311 1312
f 1314 1315 1313
f 1313 1315 1316
f 1312 1317 1313
f 1313 1317 1314
f 1316 1309 1313
f 1313 1309 1308
f 1318 1319 1309
f 1309 1319 1306
f 1311 1310 1312
f 1312 1310 1320
f 1310 1298 1320
f 1320 1298 1297
f 1310 1321 1298
f 1298 1321 1299
f 1307 1322 1310
f 1310 1322 1321
f 1322 1307 1323
f 1323 1307 1306
f 1312 1320 1317
f 1317 1320 1305
f 1305 1320 1296
f 1296 1320 1297
f 1319 1324 1306
f 1306 1324 1323
f 1325 1322 1326
f 1326 1322 1323
f 1324 1327 1323
f 1323 1327 1326
f 1328 1325 1329
f 1329 1325 1326
f 1325 1328 1331
f 1331 1328 1330
f 1327 1332 1326
f 1326 1332 1329
f 1322 1325 1321
f 1321 1325 1331
f 1321 1331 1299
f 1299 1331 1300
f 1324 1319 1334
f 1334 1319 1333
f 1319 1318 1333
f 1333 1318 1335
f 1314 1317 1336
f 1336 1317 1305
f 1315 1314 1337
f 1337 1314 1336
f 1305 1304 1336
f 1336 1304 1338
f 1337 1336 1339
f 1339 1336 1338
f 1337 1340 1315
f 1315 1340 1341
f 1335 1341 1333
f 1333 1341 1340
f 1287 1300 1285
f 1285 1300 1342
f 1286 1343 1293
f 1293 1343 1303
f 1343 1286 1342
f 1342 1286 1285
f 1342 1330 1343
f 1343 1330 1344
f 1330 1328 1344
f 1344 1328 1345
f 1343 1344 1303
f 1303 1344 1346
f 1342 1300 1330
f 1330 1300 1331
f 1347 1302 1346
f 1346 1302 1303
f 1347 1304 1302
f 1302 1304 1301
f 1348 1338 1347
f 1347 1338 1304
f 1348 1347 1349
f 1349 1347 1346
f 1350 1348 1351
f 1351 1348 1349
f 1344 1345 1346
f 1346 1345 1349
f 1345 1352 1349
f 1349 1352 1351
f 1348 1350 1338
f 1338 1350 1339
f 1354 1339 1353
f 1353 1339 1350
f 1353 1356 1355
f 1355 1356 1357
f 1353 1350 1356
f 1356 1350 1351
f 1353 1355 1354
f 1354 1355 1334
f 1354 1334 1340
f 1340 1334 1333
f 1340 1337 1354
f 1354 1337 1339
f 1328 1329 1345
f 1345 1329 1352
f 1357 1352 1332
f 1332 1352 1329
f 1357 1356 1352
f 1352 1356 1351
f 1357 1332 1355
f 1355 1332 1327
f 1327 1324 1355
f 1355 1324 1334
f 1309 1316 1318
f 1318 1316 1335
f 1335 1316 1341
f 1341 1316 1315
f 1259 1072 1260
f 1260 1072 1071
f 1358 1264 1289
f 1289 1264 1263
f 1268 1267 1275
f 1275 1267 1276
f 1267 1269 1276
f 1276 1269 1274
f 941 1273 942
f 942 1273 1272
f 1358 1268 1264
f 1264 1268 1275
f 1260 1071 1288
f 1288 1071 1070
f 1273 941 1289
f 1289 941 977
f 1272 1271 1288
f 1288 1271 1277
f 1259 1269 1072
f 1072 1269 1026
f 1360 1361 1359
f 1359 1361 1362
f 1364 1365 1363
f 1363 1365 1366
f 1363 1366 1367
f 1367 1366 1368
f 1370 1371 1369
f 1369 1371 1372
f 1373 1374 1376
f 1376 1374 1375
f 1377 1378 1364
f 1364 1378 1365
f 1379 1380 1382
f 1382 1380 1381
f 1383 1384 1386
f 1386 1384 1385
f 1387 1385 978
f 978 1385 1384
f 1388 1389 1391
f 1391 1389 1390
f 1378 1392 1365
f 1365 1392 1370
f 1374 1383 1375
f 1375 1383 1386
f 1380 1393 1381
f 1381 1393 1361
f 1394 1392 1362
f 1362 1392 1378
f 1389 1396 1395
f 1395 1396 1368
f 1398 1399 1397
f 1397 1399 1400
f 1388 1401 1389
f 1389 1401 1396
f 1402 1367 1396
f 1396 1367 1368
f 1395 1368 1369
f 1369 1368 1366
f 1359 1403 1360
f 1360 1403 1404
f 1377 1405 1359
f 1359 1405 1403
f 1369 1372 1395
f 1395 1372 1406
f 1379 1388 1376
f 1376 1388 1391
f 1359 1362 1377
f 1377 1362 1378
f 1363 1407 1364
f 1364 1407 1408
f 1393 1394 1361
f 1361 1394 1362
f 1365 1370 1366
f 1366 1370 1369
f 1360 1404 1409
f 1409 1404 1410
f 1402 1398 1411
f 1411 1398 1397
f 1399 1398 1382
f 1382 1398 1401
f 1409 1410 1399
f 1399 1410 1400
f 1388 1379 1401
f 1401 1379 1382
f 1367 1402 1412
f 1412 1402 1411
f 1364 1408 1377
f 1377 1408 1405
f 981 980 1406
f 1406 980 1390
f 1407 1363 1412
f 1412 1363 1367
f 1387 1371 1392
f 1392 1371 1370
f 1398 1402 1401
f 1401 1402 1396
f 1409 1399 1381
f 1381 1399 1382
f 1360 1409 1361
f 1361 1409 1381
f 1412 1411 1414
f 1414 1411 1413
f 1412 1414 1407
f 1407 1414 1415
f 1407 1415 1408
f 1408 1415 1416
f 1408 1416 1405
f 1405 1416 1417
f 1411 1397 1413
f 1413 1397 1418
f 1397 1400 1418
f 1418 1400 1419
f 1419 1400 1420
f 1420 1400 1410
f 1422 1413 1421
f 1421 1413 1418
f 1423 1424 1426
f 1426 1424 1425
f 1427 1428 1424
f 1424 1428 1425
f 1425 1428 1430
f 1430 1428 1429
f 1430 1431 1433
f 1433 1431 1432
f 1429 1434 1430
f 1430 1434 1431
f 1433 1426 1430
f 1430 1426 1425
f 1426 1435 1423
f 1423 1435 1436
f 1428 1427 1429
f 1429 1427 1437
f 1427 1415 1437
f 1437 1415 1414
f 1427 1438 1415
f 1415 1438 1416
f 1439 1438 1424
f 1424 1438 1427
f 1440 1439 1423
f 1423 1439 1424
f 1429 1437 1434
f 1434 1437 1422
f 1422 1437 1413
f 1413 1437 1414
f 1441 1440 1436
f 1436 1440 1423
f 1442 1439 1443
f 1443 1439 1440
f 1441 1444 1440
f 1440 1444 1443
f 1445 1442 1446
f 1446 1442 1443
f 1442 1445 1448
f 1448 1445 1447
f 1444 1449 1443
f 1443 1449 1446
f 1439 1442 1438
f 1438 1442 1448
f 1438 1448 1416
f 1416 1448 1417
f 1436 1450 1441
f 1441 1450 1451
f 1436 1435 1450
f 1450 1435 1452
f 1431 1434 1453
f 1453 1434 1422
f 1431 1453 1432
f 1432 1453 1454
f 1453 1422 1455
f 1455 1422 1421
f 1454 1453 1456
f 1456 1453 1455
f 1457 1458 1454
f 1454 1458 1432
f 1452 1458 1450
f 1450 1458 1457
f 1405 1417 1403
f 1403 1417 1459
f 1404 1460 1410
f 1410 1460 1420
f 1459 1460 1403
f 1403 1460 1404
f 1447 1461 1459
f 1459 1461 1460
f 1445 1462 1447
f 1447 1462 1461
f 1460 1461 1420
f 1420 1461 1463
f 1459 1417 1447
f 1447 1417 1448
f 1464 1419 1463
f 1463 1419 1420
f 1419 1464 1418
f 1418 1464 1421
f 1464 1465 1421
f 1421 1465 1455
f 1465 1464 1466
f 1466 1464 1463
f 1467 1465 1468
f 1468 1465 1466
f 1461 1462 1463
f 1463 1462 1466
f 1462 1469 1466
f 1466 1469 1468
f 1465 1467 1455
f 1455 1467 1456
f 1471 1456 1470
f 1470 1456 1467
f 1470 1473 1472
f 1472 1473 1474
f 1470 1467 1473
f 1473 1467 1468
f 1470 1472 1471
f 1471 1472 1451
f 1471 1451 1457
f 1457 1451 1450
f 1457 1454 1471
f 1471 1454 1456
f 1462 1445 1469
f 1469 1445 1446
f 1474 1469 1449
f 1449 1469 1446
f 1474 1473 1469
f 1469 1473 1468
f 1472 1474 1444
f 1444 1474 1449
f 1444 1441 1472
f 1472 1441 1451
f 1426 1433 1435
f 1435 1433 1452
f 1452 1433 1458
f 1458 1433 1432
f 1371 940 1372
f 1372 940 1068
f 1376 1375 1379
f 1379 1375 1380
f 1393 1386 1394
f 1394 1386 1385
f 1385 1387 1394
f 1394 1387 1392
f 1475 1373 1391
f 1391 1373 1376
f 1375 1386 1380
f 1380 1386 1393
f 1372 1068 1406
f 1406 1068 981
f 1406 1390 1395
f 1395 1390 1389
f 1371 1387 940
f 940 1387 978
f 883 807 1476
f 1476 807 1477
f 1046 904 1479
f 1479 904 1478
f 904 903 1478
f 1478 903 1480
f 1030 1481 1028
f 1028 1481 1482
f 810 1046 1483
f 1483 1046 1479
f 1066 883 1484
f 1484 883 1476
f 807 810 1477
f 1477 810 1483
f 1485 1029 1484
f 1484 1029 1066
f 1028 1482 903
f 903 1482 1480
f 1481 1030 1485
f 1485 1030 1029
f 1484 1486 1485
f 1485 1486 1487
f 1485 1487 1481
f 1481 1487 1488
f 1481 1488 1482
f 1482 1488 1489
f 1482 1489 1480
f 1480 1489 1490
f 1484 1476 1486
f 1486 1476 1491
f 1476 1477 1491
f 1491 1477 1492
f 1477 1483 1492
f 1492 1483 1493
f 1495 1486 1494
f 1494 1486 1491
f 1497 1498 1496
f 1496 1498 1499
f 1500 1501 1497
f 1497 1501 1498
f 1502 1503 1501
f 1501 1503 1498
f 1502 1504 1503
f 1503 1504 1505
f 1506 1499 1503
f 1503 1499 1498
f 1499 1506 1507
f 1507 1506 1508
f 1507 1509 1499
f 1499 1509 1496
f 1502 1501 1510
f 1510 1501 1500
f 1500 1488 1510
f 1510 1488 1487
f 1500 1511 1488
f 1488 1511 1489
f 1497 1512 1500
f 1500 1512 1511
f 1512 1497 1513
f 1513 1497 1496
f 1502 1510 1504
f 1504 1510 1495
f 1495 1510 1486
f 1486 1510 1487
f 1509 1514 1496
f 1496 1514 1513
f 1515 1512 1516
f 1516 1512 1513
f 1514 1517 1513
f 1513 1517 1516
f 1518 1515 1519
f 1519 1515 1516
f 1515 1518 1521
f 1521 1518 1520
f 1517 1522 1516
f 1516 1522 1519
f 1512 1515 1511
f 1511 1515 1521
f 1511 1521 1489
f 1489 1521 1490
f 1514 1509 1524
f 1524 1509 1523
f 1509 1507 1523
f 1523 1507 1508
f 1505 1504 1525
f 1525 1504 1495
f 1526 1505 1527
f 1527 1505 1525
f 1525 1495 1528
f 1528 1495 1494
f 1527 1525 1529
f 1529 1525 1528
f 1527 1530 1526
f 1526 1530 1531
f 1508 1531 1523
f 1523 1531 1530
f 1506 1503 1526
f 1526 1503 1505
f 1508 1506 1531
f 1531 1506 1526
f 1478 1480 1532
f 1532 1480 1490
f 1483 1479 1493
f 1493 1479 1533
f 1532 1533 1478
f 1478 1533 1479
f 1520 1534 1532
f 1532 1534 1533
f 1518 1535 1520
f 1520 1535 1534
f 1533 1534 1493
f 1493 1534 1536
f 1532 1490 1520
f 1520 1490 1521
f 1537 1492 1536
f 1536 1492 1493
f 1492 1537 1491
f 1491 1537 1494
f 1537 1538 1494
f 1494 1538 1528
f 1538 1537 1539
f 1539 1537 1536
f 1540 1538 1541
f 1541 1538 1539
f 1534 1535 1536
f 1536 1535 1539
f 1535 1542 1539
f 1539 1542 1541
f 1538 1540 1528
f 1528 1540 1529
f 1544 1529 1543
f 1543 1529 1540
f 1545 1543 1547
f 1547 1543 1546
f 1543 1540 1546
f 1546 1540 1541
f 1543 1545 1544
f 1544 1545 1524
f 1544 1524 1530
f 1530 1524 1523
f 1530 1527 1544
f 1544 1527 1529
f 1535 1518 1542
f 1542 1518 1519
f 1547 1542 1522
f 1522 1542 1519
f 1547 1546 1542
f 1542 1546 1541
f 1545 1547 1517
f 1517 1547 1522
f 1517 1514 1545
f 1545 1514 1524
f 997 995 986
f 986 995 987
f 987 995 988
f 988 995 971
f 976 1358 977
f 977 1358 1289
f 854 853 1067
f 1067 853 1050
f 1055 985 1069
f 1069 985 962
f 1068 961 981
f 981 961 862
f 1268 1358 920
f 920 1358 976
f 920 976 921
f 921 976 975
f 927 1054 850
f 850 1054 851
f 882 881 1057
f 1057 881 1548
f 1548 1374 1057
f 1057 1374 1373
f 1383 1374 1549
f 1549 1374 1548
f 1549 1548 1550
f 1550 1548 881
f 1550 881 1551
f 1551 881 880
f 933 1552 879
f 879 1552 880
f 1551 880 875
f 875 880 1552
f 1553 1551 878
f 878 1551 875
f 1551 1553 1550
f 1550 1553 1554
f 1550 1554 1549
f 1549 1554 1555
f 978 1384 975
f 975 1384 1555
f 967 849 1556
f 1556 849 852
f 875 1552 876
f 876 1552 933
f 961 939 962
f 962 939 1069
f 1555 1054 975
f 975 1054 921
f 1555 1384 1549
f 1549 1384 1383
f 1391 1390 1475
f 1475 1390 980
f 1373 1475 1057
f 1057 1475 980
f 851 1054 1554
f 1554 1054 1555
f 1554 1553 851
f 851 1553 852
f 878 1556 1553
f 1553 1556 852
f 1556 878 967
f 967 878 877
f 1023 1020 877
f 877 1020 967
f 909 811 1034
f 806 779 873
f 873 779 840
f 805 780 806
f 806 780 779
f 1043 893 1044
f 1044 893 892
f 873 840 847
f 847 840 842
f 840 839 842
f 842 839 843
f 839 791 843
f 843 791 908
f 791 790 908
f 908 790 792
f 809 789 810
f 810 789 1046
f 793 790 809
f 809 790 789
f 809 808 793
f 793 808 1009
f 808 884 1009
f 1009 884 1010
f 1065 1015 884
f 884 1015 1010
f 1032 868 1065
f 1065 868 1015
f 1031 822 1032
f 1032 822 868
f 1031 1027 822
f 822 1027 785
f 1045 905 1046
f 1046 905 904
f 788 781 1019
f 1019 781 894
f 781 780 894
f 894 780 892
f 780 805 892
f 892 805 1044
f 805 804 1044
f 1044 804 891
f 804 1064 891
f 891 1064 888
f 1064 1021 888
f 888 1021 1033
f 1021 1020 1033
f 1033 1020 1034
f 1020 1023 1034
f 1034 1023 909
f 1023 1022 909
f 909 1022 910
f 1043 815 893
f 893 815 819
f 819 815 820
f 820 815 818
f 870 869 818
f 818 869 820
f 1014 1011 870
f 870 1011 869
f 969 972 1014
f 1014 972 1011
f 1036 1063 1022
f 1022 1063 910
f 1035 833 1036
f 1036 833 1063
f 1035 932 979
f 979 932 963
f 834 979 982
f 982 979 958
f 833 1035 834
f 834 1035 979
f 982 863 834
f 834 863 830
f 864 900 831
f 831 900 857
f 990 993 864
f 864 993 900
f 989 994 990
f 990 994 993
f 970 1058 989
f 989 1058 994
f 969 1018 970
f 970 1018 1058
f 1027 902 785
f 785 902 786
f 902 905 786
f 786 905 1019
f 905 1045 1019
f 1019 1045 788
f 788 1045 787
f 787 1045 789
