o hand_left
v 0.089095 0.031613 0.662316
v 0.079300 0.029193 0.660234
v 0.082373 0.039448 0.663719
v 0.091884 0.041235 0.664564
v 0.060074 0.037841 0.662524
v 0.051890 0.043482 0.654833
v 0.060516 0.055597 0.661048
v 0.065709 0.048743 0.667270
v 0.095320 0.049431 0.664594
v 0.085127 0.047410 0.666237
v 0.096633 0.054183 0.660476
v 0.108324 0.052217 0.654655
v 0.105114 0.049572 0.661356
v 0.116840 0.050534 0.654439
v 0.107097 0.048661 0.643883
v 0.122416 0.045173 0.648354
v 0.109697 0.018521 0.639018
v 0.107866 0.005366 0.642137
v 0.122337 0.008172 0.650498
v 0.123053 0.021536 0.647424
v 0.111615 -0.009094 0.655953
v 0.118355 0.000306 0.653306
v 0.104861 -0.002982 0.643974
v 0.099769 -0.011435 0.646956
v 0.084104 0.015548 0.661577
v 0.074410 0.012393 0.658400
v 0.076561 0.018093 0.657866
v 0.085432 0.021082 0.660884
v 0.089093 0.064788 0.656208
v 0.090778 0.057572 0.645776
v 0.096232 0.056259 0.651898
v 0.089843 0.062790 0.661352
v 0.048094 -0.000371 0.656905
v 0.040333 -0.003152 0.646180
v 0.040756 0.002179 0.643758
v 0.048153 0.003326 0.653823
v 0.043377 0.024887 0.643779
v 0.040575 0.018302 0.635831
v 0.040047 0.023249 0.622748
v 0.045239 0.030083 0.627928
v 0.047306 0.034218 0.650444
v 0.047153 0.039000 0.637071
v 0.051881 0.048155 0.644014
v 0.059984 0.060481 0.652860
v 0.040998 -0.015700 0.649036
v 0.046419 -0.015327 0.657629
v 0.113586 0.065394 0.688384
v 0.112188 0.060851 0.691882
v 0.113646 0.058501 0.688905
v 0.115024 0.063415 0.685940
v 0.054899 -0.029860 0.645110
v 0.060949 -0.031758 0.637173
v 0.054132 -0.033477 0.635185
v 0.048178 -0.030044 0.641672
v 0.063731 -0.029393 0.649743
v 0.070069 -0.028656 0.640303
v 0.123824 0.071760 0.692872
v 0.119743 0.071796 0.689741
v 0.123254 0.069851 0.686846
v 0.127495 0.069115 0.689879
v 0.101071 0.043268 0.664986
v 0.097504 0.034253 0.665941
v 0.116092 0.041680 0.669754
v 0.110082 0.038757 0.668835
v 0.109932 0.044622 0.664989
v 0.115348 0.046342 0.665598
v 0.104352 0.016292 0.672288
v 0.094093 0.014334 0.666776
v 0.096204 0.020560 0.665766
v 0.107026 0.024452 0.671801
v 0.090208 0.001950 0.672580
v 0.100881 0.004815 0.677377
v 0.097578 -0.002502 0.680364
v 0.090007 -0.002963 0.677023
v 0.119980 0.011982 0.683134
v 0.127244 0.013387 0.684993
v 0.128633 0.010218 0.686206
v 0.119556 0.008499 0.684176
v 0.047956 -0.035103 0.632119
v 0.042090 -0.029517 0.637757
v 0.100879 -0.025143 0.664930
v 0.092272 -0.029102 0.670952
v 0.102019 -0.029498 0.678410
v 0.108150 -0.025071 0.670134
v 0.066886 -0.027485 0.629696
v 0.060490 -0.031534 0.627545
v 0.126363 0.068605 0.697550
v 0.129689 0.065867 0.694732
v 0.058158 0.046886 0.632329
v 0.064944 0.061797 0.644231
v 0.053478 0.035261 0.623966
v 0.050762 0.026966 0.617946
v 0.046223 0.022109 0.612479
v 0.113417 0.033665 0.672522
v 0.093480 0.025797 0.664230
v 0.082782 0.010785 0.662991
v 0.077417 -0.014882 0.679272
v 0.067783 -0.015977 0.674429
v 0.071935 -0.006254 0.673321
v 0.079859 -0.007572 0.677276
v 0.087418 -0.027202 0.679101
v 0.086959 -0.020557 0.683570
v 0.096057 -0.020237 0.688383
v 0.096944 -0.026871 0.684955
v 0.084466 0.069322 0.651784
v 0.084453 0.058979 0.641056
v 0.049029 -0.024353 0.652015
v 0.043284 -0.022870 0.646971
v 0.037804 -0.023671 0.640602
v 0.060897 0.007250 0.657842
v 0.048096 0.005970 0.651830
v 0.048713 0.010288 0.651277
v 0.062343 0.009773 0.656433
v 0.068024 0.026253 0.660589
v 0.054656 0.025477 0.657308
v 0.072165 0.036818 0.665664
v 0.039797 0.009011 0.639611
v 0.033015 0.000766 0.637099
v 0.033449 0.008377 0.632515
v 0.033422 -0.008635 0.639930
v 0.034917 -0.017314 0.641484
v 0.055179 -0.035952 0.622555
v 0.035494 0.014947 0.627646
v 0.069965 0.056670 0.669588
v 0.072107 0.063964 0.671787
v 0.079590 0.060836 0.671657
v 0.078221 0.053036 0.669727
v 0.124025 0.050239 0.657783
v 0.118354 0.049957 0.662078
v 0.111642 0.050064 0.659586
v 0.056547 -0.003309 0.664291
v 0.054596 -0.015775 0.664776
v 0.118770 0.037655 0.673543
v 0.129786 0.065346 0.685500
v 0.124883 0.066518 0.682414
v 0.125726 0.054536 0.665401
v 0.132170 0.053240 0.668455
v 0.125175 0.037373 0.678054
v 0.118663 0.039159 0.674483
v 0.118495 0.040343 0.675783
v 0.122288 0.039159 0.681212
v 0.123912 0.002182 0.687514
v 0.116290 0.000838 0.686341
v 0.134085 0.024862 0.659594
v 0.135329 0.036867 0.652546
v 0.123785 0.034238 0.644469
v 0.101872 0.009565 0.674400
v 0.111121 0.010561 0.679775
v 0.110373 0.006712 0.681272
v 0.116707 0.031331 0.674986
v 0.122215 0.033890 0.676844
v 0.121438 0.029487 0.677289
v 0.115017 0.026536 0.675539
v 0.082396 -0.030164 0.662509
v 0.076315 -0.028249 0.672153
v 0.116197 0.069385 0.687879
v 0.118625 0.067555 0.685207
v 0.091856 0.007758 0.668891
v 0.109633 0.030619 0.638609
v 0.081218 0.005831 0.664908
v 0.122770 -0.012767 0.673898
v 0.121353 -0.013718 0.680016
v 0.126896 -0.010898 0.682673
v 0.129893 -0.011455 0.677904
v 0.120854 0.049186 0.693444
v 0.115987 0.051021 0.690747
v 0.115272 0.054397 0.693344
v 0.119717 0.053093 0.697069
v 0.116110 0.042267 0.670257
v 0.116495 0.046670 0.666532
v 0.115459 0.048490 0.668628
v 0.116146 0.044059 0.672866
v 0.119817 0.050205 0.662579
v 0.119514 0.052554 0.665362
v 0.127093 0.050835 0.694846
v 0.132166 0.056304 0.693485
v 0.135137 0.043708 0.678695
v 0.129035 0.041275 0.683487
v 0.088566 -0.013918 0.637438
v 0.084208 -0.022647 0.642892
v 0.095182 -0.020383 0.652481
v 0.105987 -0.018999 0.661166
v 0.115786 -0.016307 0.670038
v 0.121933 -0.008407 0.663018
v 0.090648 -0.026164 0.655934
v 0.133933 0.030173 0.672498
v 0.135626 0.034774 0.667891
v 0.136036 0.027167 0.666079
v 0.079102 0.000099 0.669199
v 0.119579 0.064796 0.681168
v 0.064489 0.010203 0.609612
v 0.067616 -0.002661 0.611299
v 0.073797 0.001665 0.615796
v 0.069839 0.016195 0.614613
v 0.113530 0.055519 0.686217
v 0.114603 0.060689 0.682326
v 0.116881 -0.005645 0.688860
v 0.123384 -0.003672 0.688562
v 0.125360 -0.007022 0.688083
v 0.119819 -0.010920 0.690105
v 0.080478 -0.026602 0.645308
v 0.108683 -0.029857 0.681783
v 0.113347 -0.026237 0.674401
v 0.074561 -0.024232 0.634272
v 0.078554 -0.016944 0.629030
v 0.071146 -0.019599 0.623291
v 0.131285 0.004300 0.663777
v 0.092890 -0.006665 0.635241
v 0.081501 -0.010127 0.626978
v 0.072773 -0.012975 0.619999
v 0.066798 -0.015874 0.614921
v 0.065534 -0.022781 0.619154
v 0.132136 0.061449 0.690178
v 0.129565 0.060400 0.699013
v 0.060082 -0.027368 0.613475
v 0.061314 -0.019090 0.609358
v 0.083684 -0.001459 0.624601
v 0.085065 0.009620 0.622640
v 0.094556 0.001581 0.632869
v 0.097138 0.012764 0.631436
v 0.133516 0.011180 0.656023
v 0.116159 0.065074 0.709282
v 0.122231 0.058692 0.702963
v 0.117610 0.056224 0.700415
v 0.112985 0.062338 0.708334
v 0.125035 0.054997 0.699338
v 0.125914 0.063075 0.701705
v 0.095663 0.027697 0.631088
v 0.127690 0.031398 0.678951
v 0.080053 0.026717 0.623182
v 0.096341 0.045550 0.635228
v 0.083146 0.044989 0.631052
v 0.063473 0.027633 0.616267
v 0.068047 0.041480 0.624510
v 0.053668 0.016134 0.607140
v 0.059506 0.020586 0.611736
v 0.072086 0.054961 0.634410
v 0.107202 0.067999 0.696552
v 0.107086 0.063321 0.699766
v 0.058953 0.006455 0.604653
v 0.076009 0.045594 0.667995
v 0.068928 0.000985 0.665170
v 0.071152 0.005193 0.662037
v 0.062365 -0.016069 0.670840
v 0.065156 -0.004858 0.669202
v 0.109698 0.072587 0.695445
v 0.133131 0.012073 0.684374
v 0.132875 0.010277 0.682777
v 0.064109 0.062289 0.665259
v 0.066622 0.067607 0.667502
v 0.071094 0.074395 0.656661
v 0.066753 0.072302 0.662135
v 0.063290 0.066956 0.657853
v 0.067431 0.068918 0.651493
v 0.060056 0.005211 0.659407
v 0.059289 0.002008 0.661579
v 0.072397 -0.030013 0.655929
v 0.066810 -0.027583 0.665728
v 0.125689 0.050506 0.660598
v 0.130825 0.045888 0.655634
v 0.132068 0.047439 0.661178
v 0.136066 0.047914 0.671796
v 0.131938 0.032100 0.677834
v 0.130187 0.036067 0.676957
v 0.051645 0.017258 0.654259
v 0.064946 0.016279 0.657004
v 0.086243 0.053149 0.666676
v 0.086753 0.060219 0.668019
v 0.112135 0.019063 0.676309
v 0.138463 0.009602 0.671510
v 0.140114 0.015502 0.665122
v 0.120527 0.021095 0.679414
v 0.115783 0.076069 0.700162
v 0.112220 0.075113 0.696810
v 0.136022 0.042294 0.663628
v 0.107523 -0.000452 0.685039
v 0.132855 0.003676 0.670530
v 0.137114 0.009108 0.678834
v 0.103178 -0.026872 0.687939
v 0.061079 -0.005954 0.606178
v 0.113244 0.056840 0.696796
v 0.108890 0.060565 0.703502
v 0.118780 0.068360 0.708132
v 0.119422 0.072964 0.704222
v 0.058128 -0.025200 0.659663
v 0.072945 0.008158 0.660292
v 0.074709 0.065286 0.643677
v 0.077680 0.072595 0.652385
v 0.125803 0.022192 0.681169
v 0.117770 -0.018714 0.674887
v 0.129037 -0.007779 0.668616
v 0.135412 -0.007011 0.672877
v 0.137889 0.000163 0.673726
v 0.138093 0.006353 0.678584
v 0.114819 0.070089 0.711546
v 0.115424 0.074954 0.707894
v 0.111799 0.078205 0.703973
v 0.108705 0.077248 0.700460
v 0.106851 0.073669 0.698290
v 0.112062 0.066703 0.712630
v 0.109166 0.064326 0.711397
v 0.106729 0.062074 0.705947
v 0.107860 0.067571 0.714965
v 0.108189 0.072680 0.716244
v 0.099331 0.081664 0.710750
v 0.105090 0.080716 0.709540
v 0.103953 0.080565 0.712100
v 0.099415 0.081390 0.714072
v 0.095437 0.081860 0.717416
v 0.094623 0.082349 0.713915
v 0.107174 0.077594 0.713662
v 0.101340 0.078344 0.716981
v 0.101794 0.074607 0.719006
v 0.097386 0.075964 0.722108
v 0.096923 0.079462 0.720538
v 0.105870 0.074558 0.716783
v 0.109363 0.077309 0.712644
v 0.091823 0.081502 0.717616
v 0.093455 0.081749 0.719622
v 0.094181 0.079511 0.722069
v 0.091126 0.078776 0.721945
v 0.104654 0.078951 0.703622
v 0.097981 0.080746 0.708644
v 0.093137 0.079956 0.712304
v 0.090556 0.079314 0.716167
v 0.095631 0.077350 0.708085
v 0.092362 0.077111 0.711748
v 0.090223 0.076104 0.715125
v 0.094283 0.073293 0.708808
v 0.091858 0.073961 0.712283
v 0.102970 0.070802 0.700878
v 0.104237 0.074932 0.700421
v 0.090156 0.074085 0.714350
v 0.090063 0.076902 0.721069
v 0.102764 0.071029 0.718793
v 0.096610 0.072773 0.721750
v 0.101909 0.068878 0.718095
v 0.095972 0.070458 0.721360
v 0.093212 0.074754 0.723926
v 0.094764 0.076772 0.723202
v 0.105799 0.068616 0.698591
v 0.105767 0.063829 0.701994
v 0.103278 0.065382 0.703914
v 0.094653 0.068985 0.710932
v 0.103991 0.063361 0.707811
v 0.105152 0.065261 0.713527
v 0.099559 0.067296 0.717139
v 0.097158 0.066614 0.714739
v 0.094967 0.069032 0.719385
v 0.093808 0.068969 0.717057
v 0.091982 0.070769 0.714139
v 0.091649 0.071310 0.720216
v 0.092366 0.072922 0.722700
v 0.089871 0.074337 0.718714
v 0.091718 0.070527 0.718339
v 0.090662 0.072771 0.716609
v 0.147728 0.033216 0.705057
v 0.146631 0.027584 0.708061
v 0.147101 0.026799 0.703360
v 0.148170 0.031687 0.701258
v 0.161577 0.034163 0.701783
v 0.155798 0.036533 0.702346
v 0.156806 0.034930 0.697502
v 0.162088 0.030920 0.696963
v 0.164339 0.028039 0.703274
v 0.163838 0.024672 0.698062
v 0.159809 0.029491 0.691344
v 0.153990 0.033542 0.692789
v 0.140346 0.029357 0.676868
v 0.145728 0.025305 0.674112
v 0.131882 0.017561 0.686988
v 0.134986 0.014936 0.686792
v 0.150761 0.035725 0.703605
v 0.151585 0.034406 0.699413
v 0.146371 0.017800 0.702138
v 0.143362 0.022367 0.702282
v 0.146870 0.022432 0.705523
v 0.150895 0.018573 0.706122
v 0.133135 0.028602 0.681559
v 0.131708 0.022895 0.684075
v 0.136213 0.030005 0.679654
v 0.152149 0.014845 0.700236
v 0.158017 0.015608 0.696666
v 0.146451 0.011709 0.679425
v 0.142148 0.010850 0.684250
v 0.149040 0.034234 0.695337
v 0.143374 0.027861 0.700904
v 0.144813 0.032183 0.698418
v 0.160536 0.022131 0.692340
v 0.161429 0.018500 0.702614
v 0.157817 0.025998 0.721275
v 0.157120 0.019647 0.710715
v 0.151971 0.020524 0.711334
v 0.152909 0.025891 0.722643
v 0.156426 0.016915 0.705364
v 0.161759 0.021978 0.707634
v 0.146913 0.037727 0.718831
v 0.146142 0.032146 0.721689
v 0.149816 0.040845 0.717119
v 0.147930 0.017953 0.674691
v 0.159694 0.039412 0.713983
v 0.153595 0.041633 0.715282
v 0.147628 0.023022 0.710235
v 0.148489 0.028038 0.723186
v 0.161289 0.028148 0.719128
v 0.162993 0.033496 0.714564
v 0.161018 0.031292 0.724144
v 0.162224 0.036520 0.720684
v 0.158822 0.042307 0.719518
v 0.153064 0.043462 0.719671
v 0.149450 0.041952 0.720395
v 0.157828 0.028995 0.726246
v 0.153096 0.028332 0.727280
v 0.148474 0.029837 0.725581
v 0.155150 0.031631 0.732457
v 0.158477 0.034778 0.732170
v 0.149789 0.050267 0.737418
v 0.152444 0.048304 0.732362
v 0.154187 0.047149 0.733980
v 0.151900 0.048875 0.738711
v 0.156702 0.045950 0.728263
v 0.156895 0.045159 0.730723
v 0.158651 0.040894 0.731430
v 0.155391 0.043041 0.736241
v 0.155176 0.038305 0.737387
v 0.153407 0.040370 0.742468
v 0.153786 0.045149 0.741623
v 0.157826 0.037915 0.733829
v 0.150748 0.049136 0.742155
v 0.148295 0.049699 0.742860
v 0.160453 0.040178 0.728817
v 0.152820 0.045507 0.723551
v 0.149459 0.048464 0.731497
v 0.146547 0.049685 0.737346
v 0.145695 0.048114 0.743315
v 0.145742 0.046486 0.731998
v 0.144099 0.047573 0.737774
v 0.144036 0.046026 0.742614
v 0.142874 0.042841 0.733108
v 0.142148 0.043939 0.738822
v 0.146080 0.039287 0.723424
v 0.148561 0.043320 0.722672
v 0.142876 0.044278 0.741380
v 0.149873 0.046528 0.746231
v 0.146698 0.045321 0.746311
v 0.151338 0.046403 0.745035
v 0.154452 0.036318 0.737731
v 0.151758 0.038919 0.743022
v 0.152293 0.034488 0.738149
v 0.149688 0.037836 0.743767
v 0.150332 0.041782 0.746527
v 0.151545 0.042863 0.745904
v 0.147209 0.038333 0.721455
v 0.146696 0.033163 0.723652
v 0.145687 0.033950 0.725295
v 0.143051 0.037874 0.734994
v 0.147899 0.030449 0.727700
v 0.151782 0.030307 0.731477
v 0.149682 0.033431 0.737603
v 0.145858 0.034474 0.736864
v 0.147877 0.036573 0.743607
v 0.145489 0.036551 0.741326
v 0.142414 0.039969 0.739824
v 0.146615 0.040015 0.746497
v 0.148725 0.041078 0.746920
v 0.145086 0.044065 0.745325
v 0.144852 0.039077 0.744236
v 0.143364 0.042289 0.743211
v 0.150992 0.007513 0.701330
v 0.148763 0.002831 0.704074
v 0.146702 0.002190 0.701119
v 0.149457 0.006522 0.698500
v 0.161446 0.004084 0.694714
v 0.158673 0.007752 0.696471
v 0.156827 0.006635 0.692628
v 0.158887 0.002550 0.689709
v 0.162909 -0.001020 0.696734
v 0.159374 -0.003428 0.689870
v 0.155422 0.001519 0.685361
v 0.154160 0.005958 0.689517
v 0.141650 0.005819 0.680745
v 0.143685 0.000542 0.676867
v 0.154626 0.008598 0.698813
v 0.153141 0.007729 0.695911
v 0.144118 -0.005991 0.700492
v 0.143026 -0.001405 0.701113
v 0.146699 -0.002933 0.702536
v 0.148980 -0.006783 0.702024
v 0.132882 0.007732 0.687509
v 0.129558 0.002413 0.688533
v 0.137862 0.008197 0.685232
v 0.148036 -0.009961 0.696713
v 0.152018 -0.010409 0.690495
v 0.138658 -0.011153 0.682340
v 0.134376 -0.009920 0.686520
v 0.151167 0.007805 0.693485
v 0.143625 0.003597 0.699735
v 0.147000 0.007536 0.697166
v 0.154336 -0.004675 0.685985
v 0.157333 -0.008761 0.694466
v 0.164494 -0.002623 0.715792
v 0.156138 -0.008398 0.702754
v 0.151380 -0.005821 0.705315
v 0.160581 -0.001966 0.717846
v 0.153351 -0.009617 0.699553
v 0.160475 -0.006738 0.699284
v 0.157105 0.011199 0.714705
v 0.155532 0.006300 0.716875
v 0.159944 0.012316 0.711429
v 0.142743 -0.006570 0.676968
v 0.129957 -0.005116 0.689050
v 0.166676 0.009880 0.708936
v 0.163024 0.012112 0.709916
v 0.148957 -0.002311 0.705419
v 0.156989 0.001011 0.718378
v 0.167538 -0.000967 0.712253
v 0.168641 0.004124 0.708612
v 0.169198 0.000798 0.717613
v 0.170267 0.006066 0.714210
v 0.168363 0.011755 0.714052
v 0.164183 0.013638 0.714592
v 0.160877 0.013575 0.715706
v 0.165692 -0.000906 0.720766
v 0.161937 -0.000293 0.722044
v 0.157791 0.002011 0.719790
v 0.165661 0.000585 0.725027
v 0.170203 0.003669 0.724331
v 0.167547 0.018355 0.732898
v 0.167541 0.016558 0.727265
v 0.168253 0.015627 0.727662
v 0.168862 0.017271 0.733286
v 0.169410 0.013653 0.721329
v 0.169721 0.013359 0.723286
v 0.170972 0.009536 0.723448
v 0.170702 0.011376 0.729722
v 0.168476 0.005859 0.730903
v 0.168616 0.008214 0.735588
v 0.170982 0.013266 0.734950
v 0.170150 0.005573 0.725571
v 0.169146 0.017271 0.736564
v 0.168644 0.019102 0.736977
v 0.171461 0.008494 0.721116
v 0.165265 0.015766 0.719577
v 0.164965 0.017994 0.726877
v 0.164782 0.019957 0.732573
v 0.164945 0.019253 0.737012
v 0.161258 0.017119 0.727399
v 0.161891 0.018603 0.732627
v 0.162162 0.018019 0.736616
v 0.158818 0.015031 0.728300
v 0.159704 0.016187 0.732961
v 0.158147 0.012107 0.719177
v 0.161288 0.014795 0.719010
v 0.160677 0.016331 0.735973
v 0.169269 0.015172 0.739699
v 0.165127 0.014798 0.740559
v 0.169719 0.014566 0.738131
v 0.167570 0.004218 0.730785
v 0.167316 0.006808 0.736982
v 0.164932 0.003148 0.731112
v 0.164756 0.005863 0.737202
v 0.168194 0.010027 0.739783
v 0.168819 0.010480 0.738836
v 0.157900 0.011174 0.716782
v 0.156440 0.006533 0.718414
v 0.156636 0.007579 0.720448
v 0.157304 0.010867 0.730092
v 0.157778 0.003096 0.721913
v 0.161993 0.001275 0.725916
v 0.161737 0.004086 0.731293
v 0.158868 0.006637 0.731387
v 0.162055 0.006495 0.736697
v 0.160124 0.008010 0.735189
v 0.158263 0.012527 0.734405
v 0.162769 0.009839 0.739076
v 0.165521 0.009459 0.740179
v 0.162201 0.014407 0.739341
v 0.160720 0.010349 0.737702
v 0.160328 0.013810 0.737729
v 0.128487 -0.001800 0.689325
v 0.138910 -0.017616 0.699356
v 0.137707 -0.020388 0.702259
v 0.135478 -0.021250 0.701151
v 0.135714 -0.018109 0.698225
v 0.143342 -0.022208 0.689868
v 0.142536 -0.018479 0.692772
v 0.139153 -0.019139 0.690017
v 0.139528 -0.023041 0.687075
v 0.142953 -0.027602 0.690077
v 0.139078 -0.028781 0.687991
v 0.136859 -0.023207 0.685768
v 0.136130 -0.019149 0.688629
v 0.123407 -0.016425 0.681709
v 0.122755 -0.020922 0.678241
v 0.108849 -0.026779 0.689163
v 0.108418 -0.021453 0.691748
v 0.115694 -0.022989 0.694058
v 0.115328 -0.027330 0.692446
v 0.140749 -0.017175 0.696023
v 0.137489 -0.017237 0.694377
v 0.130859 -0.030162 0.700133
v 0.130851 -0.025610 0.701674
v 0.134942 -0.024963 0.702987
v 0.135750 -0.029658 0.702939
v 0.111570 -0.016806 0.691763
v 0.114194 -0.013245 0.690805
v 0.118333 -0.014517 0.691306
v 0.117645 -0.018666 0.693644
v 0.122155 -0.012971 0.688030
v 0.131998 -0.032907 0.696867
v 0.133977 -0.033561 0.691050
v 0.116772 -0.031748 0.683925
v 0.114957 -0.030296 0.688365
v 0.135179 -0.017381 0.693031
v 0.131838 -0.021353 0.700401
v 0.133176 -0.018367 0.697751
v 0.135723 -0.029229 0.686050
v 0.138574 -0.032838 0.693432
v 0.147095 -0.030372 0.705308
v 0.140478 -0.032228 0.700929
v 0.138533 -0.029123 0.704034
v 0.144966 -0.028764 0.707440
v 0.136848 -0.032570 0.699430
v 0.142731 -0.031694 0.695709
v 0.143813 -0.016439 0.703864
v 0.142529 -0.020829 0.706852
v 0.145626 -0.015490 0.701159
v 0.120773 -0.027475 0.678344
v 0.150029 -0.019486 0.696436
v 0.148148 -0.016259 0.698934
v 0.137754 -0.024307 0.703969
v 0.143077 -0.025268 0.708187
v 0.149667 -0.029599 0.701205
v 0.150392 -0.025387 0.696341
v 0.152904 -0.027429 0.704568
v 0.153446 -0.023218 0.699877
v 0.151664 -0.016945 0.700343
v 0.148355 -0.015182 0.701778
v 0.145695 -0.015095 0.703617
v 0.149502 -0.028714 0.708199
v 0.146917 -0.027794 0.709622
v 0.144197 -0.024934 0.709349
v 0.151580 -0.026833 0.711279
v 0.154836 -0.023513 0.709851
v 0.151991 -0.011886 0.716091
v 0.151358 -0.012806 0.711968
v 0.152323 -0.013538 0.712125
v 0.153065 -0.012086 0.715979
v 0.152188 -0.014759 0.706707
v 0.153004 -0.015256 0.708328
v 0.154449 -0.018610 0.707533
v 0.155128 -0.016811 0.712701
v 0.154940 -0.021617 0.715225
v 0.155564 -0.019654 0.718920
v 0.156001 -0.015617 0.716324
v 0.155212 -0.021764 0.710561
v 0.154447 -0.011874 0.718469
v 0.153896 -0.011131 0.719565
v 0.154842 -0.019499 0.705133
v 0.148228 -0.013639 0.706318
v 0.149123 -0.011780 0.712990
v 0.150571 -0.010852 0.717903
v 0.152354 -0.011626 0.721327
v 0.146721 -0.012636 0.713261
v 0.148489 -0.011408 0.718816
v 0.150240 -0.012343 0.722007
v 0.144503 -0.014975 0.714354
v 0.146902 -0.013459 0.719273
v 0.142984 -0.017112 0.708607
v 0.145135 -0.014513 0.707388
v 0.148969 -0.013532 0.721617
v 0.155992 -0.014036 0.721330
v 0.153470 -0.014355 0.722994
v 0.156659 -0.014597 0.719883
v 0.154411 -0.022857 0.715696
v 0.154970 -0.020533 0.720258
v 0.152560 -0.024203 0.716593
v 0.153103 -0.020997 0.721300
v 0.155657 -0.017590 0.722184
v 0.156339 -0.017373 0.720377
v 0.143519 -0.016942 0.706492
v 0.143077 -0.020514 0.708025
v 0.143003 -0.021107 0.710191
v 0.144258 -0.018940 0.715770
v 0.144959 -0.025275 0.711321
v 0.148408 -0.027159 0.711749
v 0.149856 -0.024219 0.717224
v 0.146742 -0.022722 0.717270
v 0.151024 -0.020517 0.721857
v 0.148196 -0.019435 0.721356
v 0.146429 -0.016687 0.720389
v 0.151725 -0.017051 0.723369
v 0.153622 -0.017291 0.723390
v 0.151413 -0.014744 0.723242
v 0.149826 -0.016892 0.722934
v 0.149267 -0.015353 0.722496
v 0.111279 -0.029118 0.687035
v 0.087357 0.077588 0.662944
v 0.089678 0.073800 0.666117
v 0.078320 0.070696 0.677914
v 0.085193 0.070227 0.675952
v 0.072468 0.074246 0.676449
v 0.070257 0.081252 0.667696
v 0.069642 0.077276 0.672041
v 0.089144 0.071497 0.671425
v 0.082364 0.080913 0.660989
v 0.074927 0.082661 0.662320
v 0.086037 0.087701 0.666268
v 0.077849 0.089623 0.667609
v 0.072198 0.088417 0.672184
v 0.070682 0.081553 0.676171
v 0.072171 0.077483 0.679173
v 0.089528 0.080947 0.668294
v 0.090771 0.076720 0.671186
v 0.088607 0.072868 0.675887
v 0.092605 0.083621 0.675979
v 0.090741 0.091110 0.682805
v 0.079047 0.094717 0.698827
v 0.077074 0.092023 0.692662
v 0.079395 0.093551 0.692077
v 0.080756 0.096319 0.697664
v 0.077294 0.092101 0.686819
v 0.079502 0.092623 0.687551
v 0.083936 0.092779 0.684656
v 0.085289 0.094907 0.690290
v 0.089005 0.091627 0.685199
v 0.090790 0.092209 0.689433
v 0.086803 0.097247 0.695550
v 0.083160 0.098653 0.700176
v 0.087945 0.098984 0.700143
v 0.082349 0.096846 0.702740
v 0.083771 0.095028 0.682136
v 0.072888 0.087234 0.684479
v 0.075076 0.088926 0.692897
v 0.078098 0.091210 0.699980
v 0.082403 0.093721 0.703884
v 0.075582 0.084493 0.693910
v 0.079348 0.086958 0.699715
v 0.083838 0.089001 0.702792
v 0.078968 0.080685 0.694051
v 0.082347 0.084185 0.698924
v 0.076950 0.075165 0.683311
v 0.072455 0.080313 0.683951
v 0.084729 0.086801 0.701145
v 0.088596 0.098069 0.702991
v 0.088685 0.094492 0.704021
v 0.093260 0.090028 0.688238
v 0.092432 0.094656 0.694285
v 0.094166 0.092155 0.694471
v 0.094477 0.086245 0.687321
v 0.094893 0.089447 0.694977
v 0.093249 0.095331 0.699544
v 0.091657 0.097055 0.697831
v 0.076807 0.073163 0.680401
v 0.083179 0.071539 0.678696
v 0.083037 0.073172 0.681255
v 0.085205 0.078437 0.692000
v 0.088791 0.074369 0.679900
v 0.092202 0.078769 0.677682
v 0.093984 0.082618 0.688220
v 0.090813 0.079428 0.689824
v 0.093499 0.086151 0.695744
v 0.091167 0.084189 0.696215
v 0.086683 0.083255 0.698023
v 0.091919 0.088908 0.700194
v 0.093506 0.092172 0.700244
v 0.088408 0.089919 0.702843
v 0.090528 0.086773 0.699244
v 0.087765 0.086942 0.700867
v 0.101680 -0.020124 0.690459
v 0.103859 -0.013962 0.690407
v 0.096556 -0.014574 0.688188
v 0.086989 -0.014651 0.683850
v 0.078936 -0.020724 0.679426
v 0.088504 -0.008496 0.681230
v 0.098058 -0.008710 0.685834
v 0.108255 -0.007933 0.688614
v 0.082907 -0.003202 0.673843
f 2 3 1
f 1 3 4
f 5 6 8
f 8 6 7
f 9 4 10
f 10 4 3
f 12 13 11
f 11 13 9
f 14 12 16
f 16 12 15
f 18 19 17
f 17 19 20
f 22 23 21
f 21 23 24
f 26 27 25
f 25 27 28
f 30 31 29
f 29 31 32
f 33 34 36
f 36 34 35
f 37 38 40
f 40 38 39
f 41 42 6
f 6 42 43
f 6 43 7
f 7 43 44
f 45 34 46
f 46 34 33
f 48 49 47
f 47 49 50
f 52 53 51
f 51 53 54
f 56 52 55
f 55 52 51
f 58 59 57
f 57 59 60
f 61 62 4
f 4 62 1
f 64 65 63
f 63 65 66
f 68 69 67
f 67 69 70
f 72 73 71
f 71 73 74
f 76 77 75
f 75 77 78
f 53 79 54
f 54 79 80
f 82 83 81
f 81 83 84
f 85 86 52
f 52 86 53
f 57 60 87
f 87 60 88
f 89 90 43
f 43 90 44
f 43 42 89
f 89 42 91
f 40 39 92
f 92 39 93
f 94 70 64
f 64 70 69
f 13 61 9
f 9 61 4
f 25 28 69
f 69 28 95
f 96 25 68
f 68 25 69
f 98 99 97
f 97 99 100
f 101 102 104
f 104 102 103
f 106 30 105
f 105 30 29
f 51 54 107
f 107 54 108
f 54 80 108
f 108 80 109
f 111 112 110
f 110 112 113
f 115 5 114
f 114 5 116
f 115 41 5
f 5 41 6
f 36 35 111
f 111 35 117
f 35 118 117
f 117 118 119
f 34 120 35
f 35 120 118
f 34 45 120
f 120 45 121
f 125 126 124
f 124 126 127
f 128 129 14
f 14 129 130
f 33 131 46
f 46 131 132
f 133 94 63
f 63 94 64
f 134 135 137
f 137 135 136
f 139 140 138
f 138 140 141
f 77 142 78
f 78 142 143
f 144 145 20
f 20 145 146
f 148 149 147
f 147 149 72
f 151 152 150
f 150 152 153
f 82 101 83
f 83 101 104
f 101 82 155
f 155 82 154
f 156 157 58
f 58 157 59
f 158 68 147
f 147 68 67
f 159 146 15
f 15 146 16
f 68 158 96
f 96 158 160
f 129 66 130
f 130 66 65
f 162 163 161
f 161 163 164
f 166 167 165
f 165 167 168
f 170 171 169
f 169 171 172
f 174 171 173
f 173 171 170
f 176 177 175
f 175 177 178
f 180 181 179
f 179 181 24
f 182 183 21
f 21 183 184
f 81 185 82
f 82 185 154
f 186 187 188
f 188 187 144
f 158 71 160
f 160 71 189
f 190 135 157
f 157 135 59
f 169 172 139
f 139 172 140
f 147 72 158
f 158 72 71
f 192 193 191
f 191 193 194
f 167 166 49
f 49 166 195
f 196 190 50
f 50 190 157
f 197 198 200
f 200 198 199
f 21 24 182
f 182 24 181
f 146 159 20
f 20 159 17
f 182 181 81
f 81 181 185
f 201 185 180
f 180 185 181
f 202 203 83
f 83 203 84
f 205 206 204
f 204 206 85
f 207 22 184
f 184 22 21
f 179 24 208
f 208 24 23
f 208 209 179
f 179 209 205
f 209 210 205
f 205 210 206
f 212 206 211
f 211 206 210
f 179 205 180
f 180 205 204
f 213 176 88
f 88 176 214
f 86 85 212
f 212 85 206
f 193 217 218
f 217 219 218
f 218 219 220
f 219 18 220
f 220 18 17
f 19 221 20
f 20 221 144
f 222 223 225
f 225 223 224
f 175 226 176
f 176 226 214
f 227 87 214
f 214 87 88
f 220 17 228
f 228 17 159
f 134 213 60
f 60 213 88
f 138 229 151
f 151 229 152
f 193 192 210
f 210 192 211
f 230 194 218
f 218 194 193
f 231 232 228
f 228 232 230
f 233 234 91
f 91 234 89
f 235 236 93
f 93 236 92
f 230 232 234
f 234 232 237
f 47 238 48
f 48 238 239
f 240 191 235
f 235 191 236
f 5 8 116
f 116 8 241
f 242 243 189
f 189 243 160
f 244 245 98
f 98 245 99
f 156 246 47
f 47 246 238
f 76 247 77
f 77 247 248
f 250 125 249
f 249 125 124
f 252 253 251
f 251 253 254
f 111 110 36
f 36 110 255
f 256 33 255
f 255 33 36
f 257 258 154
f 154 258 155
f 63 169 133
f 133 169 139
f 66 170 63
f 63 170 169
f 173 170 129
f 129 170 66
f 129 128 173
f 173 128 259
f 128 260 259
f 259 260 261
f 213 134 262
f 262 134 137
f 263 264 186
f 186 264 187
f 112 265 113
f 113 265 266
f 11 267 268
f 234 233 230
f 230 233 194
f 153 269 70
f 70 269 67
f 175 178 165
f 165 178 141
f 150 153 94
f 94 153 70
f 271 221 270
f 270 221 207
f 269 153 272
f 272 153 152
f 121 45 109
f 109 45 108
f 47 50 156
f 156 50 157
f 57 273 58
f 58 273 274
f 145 275 260
f 260 275 261
f 276 149 143
f 143 149 78
f 148 269 75
f 75 269 272
f 207 277 270
f 270 277 278
f 195 196 49
f 49 196 50
f 59 135 60
f 60 135 134
f 83 104 202
f 202 104 279
f 149 148 78
f 78 148 75
f 247 278 248
f 248 278 277
f 183 182 84
f 84 182 81
f 48 239 281
f 281 239 282
f 227 223 283
f 283 223 222
f 223 226 224
f 224 226 168
f 281 282 224
f 224 282 225
f 165 168 175
f 175 168 226
f 264 263 138
f 138 263 229
f 14 16 128
f 128 16 260
f 220 228 218
f 218 228 230
f 87 227 284
f 284 227 283
f 260 16 145
f 145 16 146
f 244 98 258
f 258 98 155
f 58 274 156
f 156 274 246
f 107 285 51
f 51 285 55
f 243 286 160
f 160 286 96
f 234 237 89
f 89 237 90
f 46 132 107
f 107 132 285
f 253 252 249
f 249 252 250
f 286 26 96
f 96 26 25
f 106 105 287
f 287 105 288
f 272 152 289
f 289 152 229
f 138 151 139
f 139 151 133
f 183 290 161
f 161 290 162
f 291 292 277
f 277 292 293
f 151 150 133
f 133 150 94
f 262 275 177
f 177 275 187
f 144 187 145
f 145 187 275
f 273 57 284
f 284 57 87
f 174 136 190
f 190 136 135
f 111 117 112
f 112 117 38
f 117 119 38
f 38 119 123
f 112 38 265
f 265 38 37
f 287 288 254
f 254 288 251
f 228 159 231
f 231 159 15
f 223 227 226
f 226 227 214
f 147 67 148
f 148 67 269
f 224 168 281
f 281 168 167
f 199 163 200
f 200 163 162
f 45 46 108
f 108 46 107
f 281 167 48
f 48 167 49
f 161 164 291
f 291 164 292
f 38 123 39
f 293 294 277
f 277 294 248
f 284 283 296
f 296 283 295
f 284 296 273
f 273 296 297
f 274 273 298
f 298 273 297
f 246 274 299
f 299 274 298
f 283 222 295
f 295 222 300
f 222 225 300
f 300 225 301
f 301 225 302
f 302 225 282
f 303 304 300
f 300 304 295
f 306 307 305
f 305 307 308
f 309 310 308
f 308 310 305
f 308 307 312
f 312 307 311
f 313 314 312
f 312 314 315
f 311 316 312
f 312 316 313
f 317 304 311
f 311 304 316
f 315 309 312
f 312 309 308
f 318 319 321
f 321 319 320
f 319 318 309
f 309 318 310
f 311 307 317
f 317 307 306
f 306 297 317
f 317 297 296
f 306 322 297
f 297 322 298
f 305 323 306
f 306 323 322
f 323 305 324
f 324 305 310
f 304 317 295
f 295 317 296
f 318 325 310
f 310 325 324
f 323 324 326
f 326 324 327
f 324 325 327
f 327 325 328
f 326 327 329
f 329 327 330
f 329 331 326
f 326 331 332
f 333 330 328
f 328 330 327
f 323 326 322
f 322 326 332
f 322 332 298
f 298 332 299
f 325 318 334
f 334 318 321
f 313 316 335
f 335 316 304
f 335 336 313
f 313 336 314
f 304 303 335
f 335 303 337
f 336 335 338
f 338 335 337
f 336 339 314
f 314 339 340
f 246 299 238
f 238 299 341
f 239 342 282
f 282 342 302
f 342 239 341
f 341 239 238
f 341 331 342
f 342 331 343
f 331 329 343
f 343 329 344
f 342 343 302
f 302 343 345
f 341 299 331
f 331 299 332
f 346 301 345
f 345 301 302
f 346 303 301
f 301 303 300
f 347 337 346
f 346 337 303
f 347 346 348
f 348 346 345
f 349 347 350
f 350 347 348
f 343 344 345
f 345 344 348
f 344 351 348
f 348 351 350
f 337 347 338
f 338 347 349
f 353 338 352
f 352 338 349
f 352 355 354
f 354 355 356
f 352 349 355
f 355 349 350
f 352 354 353
f 353 354 334
f 353 334 339
f 339 334 321
f 339 336 353
f 353 336 338
f 329 330 344
f 344 330 351
f 356 351 333
f 333 351 330
f 356 355 351
f 351 355 350
f 354 356 328
f 328 356 333
f 328 325 354
f 354 325 334
f 309 315 319
f 319 315 320
f 320 340 321
f 321 340 339
f 320 315 340
f 340 315 314
f 137 136 261
f 261 136 259
f 140 166 141
f 141 166 165
f 172 171 195
f 195 171 196
f 171 174 196
f 196 174 190
f 178 177 264
f 264 177 187
f 172 195 140
f 140 195 166
f 137 261 262
f 262 261 275
f 178 264 141
f 141 264 138
f 262 177 213
f 213 177 176
f 136 174 259
f 259 174 173
f 358 359 357
f 357 359 360
f 362 363 361
f 361 363 364
f 361 364 365
f 365 364 366
f 367 368 370
f 370 368 369
f 76 371 247
f 247 371 372
f 373 374 362
f 362 374 363
f 376 377 375
f 375 377 378
f 289 229 380
f 380 229 379
f 381 379 263
f 263 379 229
f 383 384 382
f 382 384 385
f 386 368 374
f 374 368 363
f 76 289 371
f 371 289 380
f 377 376 359
f 359 376 387
f 388 386 360
f 360 386 374
f 389 383 366
f 366 383 390
f 392 393 391
f 391 393 394
f 383 382 390
f 390 382 395
f 396 365 390
f 390 365 366
f 389 366 367
f 367 366 364
f 357 397 358
f 358 397 398
f 373 399 357
f 357 399 397
f 389 367 400
f 400 367 370
f 382 385 375
f 375 385 372
f 357 360 373
f 373 360 374
f 361 401 362
f 362 401 402
f 387 388 359
f 359 388 360
f 363 368 364
f 364 368 367
f 358 398 403
f 403 398 404
f 396 392 405
f 405 392 391
f 392 395 393
f 393 395 378
f 393 403 394
f 394 403 404
f 375 378 382
f 382 378 395
f 365 396 406
f 406 396 405
f 362 402 373
f 373 402 399
f 271 270 400
f 400 270 384
f 401 361 406
f 406 361 365
f 381 369 386
f 386 369 368
f 392 396 395
f 395 396 390
f 393 378 403
f 403 378 377
f 403 377 358
f 358 377 359
f 406 405 408
f 408 405 407
f 406 408 401
f 401 408 409
f 401 409 402
f 402 409 410
f 402 410 399
f 399 410 411
f 405 391 407
f 407 391 412
f 391 394 412
f 412 394 413
f 394 404 413
f 413 404 414
f 415 416 412
f 412 416 407
f 418 419 417
f 417 419 420
f 421 422 418
f 418 422 419
f 419 422 424
f 424 422 423
f 425 426 424
f 424 426 427
f 423 428 424
f 424 428 425
f 427 420 424
f 424 420 419
f 420 429 417
f 417 429 430
f 423 422 431
f 431 422 421
f 421 409 431
f 431 409 408
f 421 432 409
f 409 432 410
f 418 433 421
f 421 433 432
f 434 433 417
f 417 433 418
f 431 416 423
f 423 416 428
f 416 431 407
f 407 431 408
f 435 434 430
f 430 434 417
f 433 434 436
f 436 434 437
f 434 435 437
f 437 435 438
f 436 437 439
f 439 437 440
f 439 441 436
f 436 441 442
f 438 443 437
f 437 443 440
f 436 442 433
f 433 442 432
f 432 442 410
f 410 442 411
f 435 430 445
f 445 430 444
f 430 429 444
f 444 429 446
f 425 428 447
f 447 428 416
f 426 425 448
f 448 425 447
f 416 415 447
f 447 415 449
f 447 449 448
f 448 449 450
f 451 452 448
f 448 452 426
f 446 452 444
f 444 452 451
f 399 411 397
f 397 411 453
f 398 454 404
f 404 454 414
f 454 398 453
f 453 398 397
f 453 441 454
f 454 441 455
f 441 439 455
f 455 439 456
f 454 455 414
f 414 455 457
f 441 453 442
f 442 453 411
f 458 413 457
f 457 413 414
f 458 415 413
f 413 415 412
f 458 459 415
f 415 459 449
f 459 458 460
f 460 458 457
f 461 459 462
f 462 459 460
f 455 456 457
f 457 456 460
f 456 463 460
f 460 463 462
f 459 461 449
f 449 461 450
f 465 450 464
f 464 450 461
f 464 467 466
f 466 467 468
f 464 461 467
f 467 461 462
f 464 466 465
f 465 466 445
f 465 445 451
f 451 445 444
f 451 448 465
f 465 448 450
f 439 440 456
f 456 440 463
f 468 463 443
f 443 463 440
f 468 467 463
f 463 467 462
f 466 468 438
f 438 468 443
f 438 435 466
f 466 435 445
f 420 427 429
f 429 427 446
f 446 427 452
f 452 427 426
f 370 369 188
f 188 369 186
f 371 376 372
f 372 376 375
f 380 379 387
f 387 379 388
f 379 381 388
f 388 381 386
f 385 384 278
f 278 384 270
f 380 387 371
f 371 387 376
f 400 370 271
f 271 370 188
f 385 278 372
f 372 278 247
f 400 384 389
f 389 384 383
f 369 381 186
f 186 381 263
f 221 271 144
f 144 271 188
f 221 19 207
f 207 19 22
f 19 18 22
f 22 18 23
f 18 219 23
f 23 219 208
f 469 470 472
f 472 470 471
f 474 475 473
f 473 475 476
f 473 476 477
f 477 476 478
f 480 481 479
f 479 481 482
f 483 484 474
f 474 484 475
f 486 487 485
f 485 487 488
f 489 490 77
f 77 490 142
f 491 489 248
f 248 489 77
f 493 494 492
f 492 494 495
f 496 480 484
f 484 480 475
f 486 497 487
f 487 497 471
f 498 496 472
f 472 496 484
f 499 493 478
f 478 493 500
f 501 502 504
f 504 502 503
f 493 492 500
f 500 492 505
f 506 477 500
f 500 477 478
f 499 478 479
f 479 478 476
f 469 507 470
f 470 507 508
f 483 509 469
f 469 509 507
f 479 482 499
f 499 482 510
f 492 495 485
f 485 495 511
f 483 469 484
f 484 469 472
f 473 512 474
f 474 512 513
f 497 498 471
f 471 498 472
f 475 480 476
f 476 480 479
f 470 508 514
f 514 508 515
f 506 502 516
f 516 502 501
f 503 502 488
f 488 502 505
f 514 515 503
f 503 515 504
f 485 488 492
f 492 488 505
f 477 506 517
f 517 506 516
f 474 513 483
f 483 513 509
f 510 292 494
f 494 292 164
f 512 473 517
f 517 473 477
f 491 481 496
f 496 481 480
f 502 506 505
f 505 506 500
f 503 488 514
f 514 488 487
f 514 487 470
f 470 487 471
f 517 516 519
f 519 516 518
f 517 519 512
f 512 519 520
f 512 520 513
f 513 520 521
f 513 521 509
f 509 521 522
f 516 501 518
f 518 501 523
f 501 504 523
f 523 504 524
f 524 504 525
f 525 504 515
f 526 527 523
f 523 527 518
f 529 530 528
f 528 530 531
f 532 533 529
f 529 533 530
f 530 533 535
f 535 533 534
f 536 537 535
f 535 537 538
f 534 539 535
f 535 539 536
f 538 531 535
f 535 531 530
f 540 541 531
f 531 541 528
f 533 532 534
f 534 532 542
f 532 520 542
f 542 520 519
f 532 543 520
f 520 543 521
f 529 544 532
f 532 544 543
f 544 529 545
f 545 529 528
f 534 542 539
f 539 542 527
f 527 542 518
f 518 542 519
f 541 546 528
f 528 546 545
f 547 544 548
f 548 544 545
f 546 549 545
f 545 549 548
f 550 547 551
f 551 547 548
f 547 550 553
f 553 550 552
f 549 554 548
f 548 554 551
f 544 547 543
f 543 547 553
f 543 553 521
f 521 553 522
f 546 541 556
f 556 541 555
f 541 540 555
f 555 540 557
f 536 539 558
f 558 539 527
f 537 536 559
f 559 536 558
f 527 526 558
f 558 526 560
f 559 558 561
f 561 558 560
f 559 562 537
f 537 562 563
f 557 563 555
f 555 563 562
f 509 522 507
f 507 522 564
f 508 565 515
f 515 565 525
f 565 508 564
f 564 508 507
f 564 552 565
f 565 552 566
f 552 550 566
f 566 550 567
f 565 566 525
f 525 566 568
f 564 522 552
f 552 522 553
f 569 524 568
f 568 524 525
f 569 526 524
f 524 526 523
f 570 560 569
f 569 560 526
f 570 569 571
f 571 569 568
f 572 570 573
f 573 570 571
f 566 567 568
f 568 567 571
f 567 574 571
f 571 574 573
f 570 572 560
f 560 572 561
f 576 561 575
f 575 561 572
f 575 578 577
f 577 578 579
f 575 572 578
f 578 572 573
f 575 577 576
f 576 577 556
f 576 556 562
f 562 556 555
f 562 559 576
f 576 559 561
f 550 551 567
f 567 551 574
f 579 574 554
f 554 574 551
f 579 578 574
f 574 578 573
f 579 554 577
f 577 554 549
f 549 546 577
f 577 546 556
f 531 538 540
f 540 538 557
f 557 538 563
f 563 538 537
f 481 294 482
f 482 294 293
f 580 486 511
f 511 486 485
f 490 489 497
f 497 489 498
f 489 491 498
f 498 491 496
f 163 495 164
f 164 495 494
f 580 490 486
f 486 490 497
f 482 293 510
f 510 293 292
f 495 163 511
f 511 163 199
f 494 493 510
f 510 493 499
f 481 491 294
f 294 491 248
f 582 583 581
f 581 583 584
f 586 587 585
f 585 587 588
f 585 588 589
f 589 588 590
f 592 593 591
f 591 593 594
f 595 596 598
f 598 596 597
f 599 600 586
f 586 600 587
f 601 602 604
f 604 602 603
f 605 606 608
f 608 606 607
f 609 607 200
f 200 607 606
f 610 611 613
f 613 611 612
f 600 614 587
f 587 614 592
f 596 605 597
f 597 605 608
f 602 615 603
f 603 615 583
f 616 614 584
f 584 614 600
f 611 618 617
f 617 618 590
f 620 621 619
f 619 621 622
f 610 623 611
f 611 623 618
f 624 589 618
f 618 589 590
f 617 590 591
f 591 590 588
f 581 625 582
f 582 625 626
f 599 627 581
f 581 627 625
f 591 594 617
f 617 594 628
f 601 610 598
f 598 610 613
f 581 584 599
f 599 584 600
f 585 629 586
f 586 629 630
f 615 616 583
f 583 616 584
f 587 592 588
f 588 592 591
f 582 626 631
f 631 626 632
f 624 620 633
f 633 620 619
f 621 620 604
f 604 620 623
f 631 632 621
f 621 632 622
f 610 601 623
f 623 601 604
f 589 624 634
f 634 624 633
f 586 630 599
f 599 630 627
f 203 202 628
f 628 202 612
f 629 585 634
f 634 585 589
f 609 593 614
f 614 593 592
f 620 624 623
f 623 624 618
f 631 621 603
f 603 621 604
f 582 631 583
f 583 631 603
f 634 633 636
f 636 633 635
f 634 636 629
f 629 636 637
f 629 637 630
f 630 637 638
f 630 638 627
f 627 638 639
f 633 619 635
f 635 619 640
f 619 622 640
f 640 622 641
f 641 622 642
f 642 622 632
f 644 635 643
f 643 635 640
f 645 646 648
f 648 646 647
f 649 650 646
f 646 650 647
f 647 650 652
f 652 650 651
f 652 653 655
f 655 653 654
f 651 656 652
f 652 656 653
f 655 648 652
f 652 648 647
f 648 657 645
f 645 657 658
f 650 649 651
f 651 649 659
f 649 637 659
f 659 637 636
f 649 660 637
f 637 660 638
f 661 660 646
f 646 660 649
f 662 661 645
f 645 661 646
f 651 659 656
f 656 659 644
f 644 659 635
f 635 659 636
f 663 662 658
f 658 662 645
f 664 661 665
f 665 661 662
f 663 666 662
f 662 666 665
f 667 664 668
f 668 664 665
f 664 667 670
f 670 667 669
f 666 671 665
f 665 671 668
f 661 664 660
f 660 664 670
f 660 670 638
f 638 670 639
f 658 672 663
f 663 672 673
f 658 657 672
f 672 657 674
f 653 656 675
f 675 656 644
f 653 675 654
f 654 675 676
f 675 644 677
f 677 644 643
f 676 675 678
f 678 675 677
f 679 680 676
f 676 680 654
f 674 680 672
f 672 680 679
f 627 639 625
f 625 639 681
f 626 682 632
f 632 682 642
f 681 682 625
f 625 682 626
f 669 683 681
f 681 683 682
f 667 684 669
f 669 684 683
f 682 683 642
f 642 683 685
f 681 639 669
f 669 639 670
f 686 641 685
f 685 641 642
f 641 686 640
f 640 686 643
f 686 687 643
f 643 687 677
f 687 686 688
f 688 686 685
f 689 687 690
f 690 687 688
f 683 684 685
f 685 684 688
f 684 691 688
f 688 691 690
f 687 689 677
f 677 689 678
f 693 678 692
f 692 678 689
f 692 695 694
f 694 695 696
f 692 689 695
f 695 689 690
f 692 694 693
f 693 694 673
f 693 673 679
f 679 673 672
f 679 676 693
f 693 676 678
f 684 667 691
f 691 667 668
f 696 691 671
f 671 691 668
f 696 695 691
f 691 695 690
f 694 696 666
f 666 696 671
f 666 663 694
f 694 663 673
f 648 655 657
f 657 655 674
f 674 655 680
f 680 655 654
f 593 162 594
f 594 162 290
f 598 597 601
f 601 597 602
f 615 608 616
f 616 608 607
f 607 609 616
f 616 609 614
f 697 595 613
f 613 595 598
f 597 608 602
f 602 608 615
f 594 290 628
f 628 290 203
f 628 612 617
f 617 612 611
f 593 609 162
f 162 609 200
f 105 29 698
f 698 29 699
f 268 126 701
f 701 126 700
f 126 125 700
f 700 125 702
f 252 703 250
f 250 703 704
f 32 268 705
f 705 268 701
f 288 105 706
f 706 105 698
f 29 32 699
f 699 32 705
f 707 251 706
f 706 251 288
f 250 704 125
f 125 704 702
f 703 252 707
f 707 252 251
f 706 708 707
f 707 708 709
f 707 709 703
f 703 709 710
f 703 710 704
f 704 710 711
f 704 711 702
f 702 711 712
f 706 698 708
f 708 698 713
f 698 699 713
f 713 699 714
f 699 705 714
f 714 705 715
f 717 708 716
f 716 708 713
f 719 720 718
f 718 720 721
f 722 723 719
f 719 723 720
f 724 725 723
f 723 725 720
f 724 726 725
f 725 726 727
f 728 721 725
f 725 721 720
f 721 728 729
f 729 728 730
f 729 731 721
f 721 731 718
f 724 723 732
f 732 723 722
f 722 710 732
f 732 710 709
f 722 733 710
f 710 733 711
f 719 734 722
f 722 734 733
f 734 719 735
f 735 719 718
f 724 732 726
f 726 732 717
f 717 732 708
f 708 732 709
f 731 736 718
f 718 736 735
f 737 734 738
f 738 734 735
f 736 739 735
f 735 739 738
f 740 737 741
f 741 737 738
f 737 740 743
f 743 740 742
f 739 744 738
f 738 744 741
f 734 737 733
f 733 737 743
f 733 743 711
f 711 743 712
f 736 731 746
f 746 731 745
f 731 729 745
f 745 729 730
f 727 726 747
f 747 726 717
f 748 727 749
f 749 727 747
f 747 717 750
f 750 717 716
f 749 747 751
f 751 747 750
f 749 752 748
f 748 752 753
f 730 753 745
f 745 753 752
f 728 725 748
f 748 725 727
f 730 728 753
f 753 728 748
f 700 702 754
f 754 702 712
f 705 701 715
f 715 701 755
f 754 755 700
f 700 755 701
f 742 756 754
f 754 756 755
f 740 757 742
f 742 757 756
f 755 756 715
f 715 756 758
f 754 712 742
f 742 712 743
f 759 714 758
f 758 714 715
f 714 759 713
f 713 759 716
f 759 760 716
f 716 760 750
f 760 759 761
f 761 759 758
f 762 760 763
f 763 760 761
f 756 757 758
f 758 757 761
f 757 764 761
f 761 764 763
f 760 762 750
f 750 762 751
f 766 751 765
f 765 751 762
f 767 765 769
f 769 765 768
f 765 762 768
f 768 762 763
f 765 767 766
f 766 767 746
f 766 746 752
f 752 746 745
f 752 749 766
f 766 749 751
f 757 740 764
f 764 740 741
f 769 764 744
f 744 764 741
f 769 768 764
f 764 768 763
f 767 769 739
f 739 769 744
f 739 736 767
f 767 736 746
f 219 217 208
f 208 217 209
f 209 217 210
f 210 217 193
f 198 580 199
f 199 580 511
f 76 75 289
f 289 75 272
f 277 207 291
f 291 207 184
f 290 183 203
f 203 183 84
f 490 580 142
f 142 580 198
f 142 198 143
f 143 198 197
f 149 276 72
f 72 276 73
f 104 103 279
f 279 103 770
f 770 596 279
f 279 596 595
f 605 596 771
f 771 596 770
f 771 770 772
f 772 770 103
f 772 103 773
f 773 103 102
f 155 774 101
f 101 774 102
f 773 102 97
f 97 102 774
f 775 773 100
f 100 773 97
f 773 775 772
f 772 775 776
f 772 776 771
f 771 776 777
f 200 606 197
f 197 606 777
f 189 71 778
f 778 71 74
f 97 774 98
f 98 774 155
f 183 161 184
f 184 161 291
f 777 276 197
f 197 276 143
f 777 606 771
f 771 606 605
f 613 612 697
f 697 612 202
f 595 697 279
f 279 697 202
f 73 276 776
f 776 276 777
f 776 775 73
f 73 775 74
f 100 778 775
f 775 778 74
f 778 100 189
f 189 100 99
f 245 242 99
f 99 242 189
f 131 33 256
f 28 1 95
f 95 1 62
f 27 2 28
f 28 2 1
f 265 115 266
f 266 115 114
f 95 62 69
f 69 62 64
f 62 61 64
f 64 61 65
f 61 13 65
f 65 13 130
f 13 12 130
f 130 12 14
f 31 11 32
f 32 11 268
f 15 12 31
f 31 12 11
f 31 30 15
f 15 30 231
f 30 106 231
f 231 106 232
f 287 237 106
f 106 237 232
f 254 90 287
f 287 90 237
f 253 44 254
f 254 44 90
f 253 249 44
f 44 249 7
f 267 127 268
f 268 127 126
f 10 3 241
f 241 3 116
f 3 2 116
f 116 2 114
f 2 27 114
f 114 27 266
f 27 26 266
f 266 26 113
f 26 286 113
f 113 286 110
f 286 243 110
f 110 243 255
f 243 242 255
f 255 242 256
f 242 245 256
f 256 245 131
f 245 244 131
f 131 244 132
f 265 37 115
f 115 37 41
f 41 37 42
f 42 37 40
f 92 91 40
f 40 91 42
f 236 233 92
f 92 233 91
f 191 194 236
f 236 194 233
f 258 285 244
f 244 285 132
f 257 55 258
f 258 55 285
f 257 154 201
f 201 154 185
f 56 201 204
f 204 201 180
f 55 257 56
f 56 257 201
f 204 85 56
f 56 85 52
f 86 122 53
f 53 122 79
f 212 215 86
f 86 215 122
f 211 216 212
f 212 216 215
f 192 280 211
f 211 280 216
f 191 240 192
f 192 240 280
f 249 124 7
f 7 124 8
f 124 127 8
f 8 127 241
f 127 267 241
f 241 267 10
f 10 267 9
f 9 267 11
o hand_right
v -0.181417 0.107849 0.616088
v -0.190542 0.110710 0.611237
v -0.181008 0.107416 0.607374
v -0.172803 0.106037 0.611930
v -0.195417 0.109544 0.591591
v -0.196125 0.117719 0.582432
v -0.181117 0.111378 0.582440
v -0.182950 0.104826 0.590227
v -0.164383 0.106238 0.610018
v -0.172859 0.104927 0.604871
v -0.159449 0.110939 0.609759
v -0.152895 0.115296 0.617665
v -0.157049 0.108644 0.615820
v -0.147816 0.114425 0.623825
v -0.156217 0.125863 0.620237
v -0.148456 0.119817 0.631921
v -0.175325 0.128089 0.642193
v -0.185788 0.124115 0.649758
v -0.173155 0.114625 0.657990
v -0.163822 0.118850 0.648682
v -0.192954 0.108677 0.662533
v -0.181489 0.111503 0.660517
v -0.193802 0.121866 0.653349
v -0.203357 0.118713 0.655483
v -0.195825 0.107745 0.623210
v -0.205093 0.111588 0.618759
v -0.199986 0.112512 0.616487
v -0.191162 0.108783 0.620506
v -0.156048 0.117050 0.599601
v -0.160812 0.126216 0.604221
v -0.158137 0.119814 0.608733
v -0.156715 0.111661 0.601375
v -0.232247 0.114490 0.609246
v -0.239515 0.125731 0.606998
v -0.235395 0.128499 0.603798
v -0.229580 0.117865 0.606923
v -0.216866 0.129465 0.589101
v -0.223716 0.137444 0.592957
v -0.220273 0.150776 0.590932
v -0.211545 0.145325 0.589070
v -0.206706 0.122536 0.584830
v -0.203213 0.136181 0.583209
v -0.192574 0.128673 0.580439
v -0.178045 0.119835 0.579910
v -0.248006 0.121955 0.615915
v -0.244083 0.112839 0.618468
v -0.131174 0.071324 0.626428
v -0.136160 0.069216 0.629133
v -0.137056 0.072451 0.629078
v -0.131888 0.074142 0.626715
v -0.248325 0.123529 0.636165
v -0.245281 0.130706 0.642605
v -0.251247 0.133241 0.639223
v -0.253106 0.127601 0.631902
v -0.241956 0.118146 0.641709
v -0.236749 0.126946 0.646605
v -0.120948 0.068707 0.633851
v -0.122656 0.070087 0.629081
v -0.122384 0.074625 0.631293
v -0.121195 0.073940 0.636690
v -0.164341 0.104907 0.616145
v -0.173233 0.103624 0.619430
v -0.152790 0.097254 0.625232
v -0.160836 0.099842 0.624325
v -0.156496 0.103935 0.620376
v -0.149890 0.102092 0.622366
v -0.181161 0.095544 0.635783
v -0.189657 0.101673 0.630531
v -0.183747 0.102896 0.627823
v -0.173397 0.096287 0.632024
v -0.201382 0.095567 0.635700
v -0.192006 0.090374 0.640767
v -0.199745 0.087526 0.643061
v -0.205177 0.090998 0.638402
v -0.173733 0.084315 0.647820
v -0.168868 0.082749 0.650036
v -0.170797 0.079501 0.651540
v -0.177024 0.082937 0.649205
v -0.256699 0.136780 0.636335
v -0.256964 0.132131 0.627658
v -0.212566 0.099491 0.664915
v -0.221546 0.094838 0.660121
v -0.214530 0.085404 0.665728
v -0.206736 0.093126 0.669909
v -0.237969 0.137830 0.644649
v -0.245280 0.140327 0.643202
v -0.122723 0.066593 0.639555
v -0.123264 0.071491 0.642227
v -0.189637 0.140271 0.587034
v -0.174378 0.128651 0.583386
v -0.201554 0.148806 0.591748
v -0.209750 0.154760 0.596361
v -0.216555 0.160348 0.597356
v -0.162179 0.095602 0.629345
v -0.182018 0.105055 0.622540
v -0.200083 0.106101 0.625389
v -0.222565 0.088972 0.637672
v -0.229934 0.094299 0.632276
v -0.220048 0.095709 0.628389
v -0.215572 0.091203 0.634403
v -0.224085 0.087540 0.653805
v -0.220209 0.083934 0.647881
v -0.214187 0.079177 0.652253
v -0.217269 0.080982 0.658550
v -0.155797 0.121517 0.593383
v -0.163964 0.131118 0.599069
v -0.248607 0.117585 0.627365
v -0.251505 0.123279 0.622818
v -0.255848 0.130123 0.620214
v -0.218118 0.113007 0.612635
v -0.227761 0.120069 0.605101
v -0.224310 0.120887 0.602307
v -0.215547 0.114561 0.611852
v -0.200205 0.111045 0.604570
v -0.209056 0.115047 0.595094
v -0.189199 0.105911 0.601580
v -0.231102 0.133192 0.598679
v -0.241717 0.135787 0.600150
v -0.235878 0.140834 0.595674
v -0.248180 0.132259 0.606664
v -0.253324 0.129975 0.613608
v -0.252080 0.145485 0.643123
v -0.229652 0.145905 0.593078
v -0.173665 0.102443 0.589622
v -0.165544 0.100646 0.587525
v -0.163418 0.100829 0.595240
v -0.171438 0.101952 0.598195
v -0.141632 0.110260 0.629064
v -0.145034 0.105657 0.623551
v -0.151486 0.109605 0.619259
v -0.228546 0.106150 0.616464
v -0.238826 0.104947 0.623804
v -0.154005 0.093139 0.630259
v -0.123109 0.079657 0.638001
v -0.124103 0.080217 0.632011
v -0.133534 0.097434 0.630823
v -0.131954 0.097253 0.637691
v -0.150131 0.088947 0.638979
v -0.151490 0.090591 0.632132
v -0.150290 0.089113 0.633598
v -0.150005 0.085900 0.639431
v -0.179901 0.077742 0.653300
v -0.185234 0.080866 0.651015
v -0.153714 0.106535 0.652769
v -0.145657 0.115408 0.645955
v -0.155212 0.122656 0.640618
v -0.187787 0.093345 0.638495
v -0.180747 0.087616 0.643580
v -0.184224 0.086185 0.645371
v -0.161610 0.092855 0.633226
v -0.155385 0.090476 0.635548
v -0.159538 0.090444 0.637897
v -0.166298 0.092155 0.635742
v -0.229441 0.103886 0.654651
v -0.232592 0.095092 0.647558
v -0.126341 0.071323 0.626449
v -0.126451 0.074946 0.627525
v -0.195975 0.099397 0.633261
v -0.167159 0.129405 0.634034
v -0.204722 0.103983 0.627476
v -0.188214 0.088162 0.669162
v -0.190364 0.081473 0.665559
v -0.186145 0.077420 0.665038
v -0.183234 0.080520 0.669044
v -0.142142 0.073055 0.640447
v -0.142425 0.073093 0.634586
v -0.140184 0.070430 0.634202
v -0.139642 0.069158 0.640049
v -0.149605 0.093518 0.627322
v -0.145915 0.097690 0.624170
v -0.143568 0.092830 0.625538
v -0.147521 0.090174 0.629293
v -0.140842 0.101056 0.625734
v -0.138027 0.096003 0.626489
v -0.137985 0.073873 0.645546
v -0.130696 0.075674 0.647017
v -0.139790 0.091390 0.647878
v -0.145156 0.086167 0.645434
v -0.213102 0.129096 0.649968
v -0.222457 0.123474 0.652379
v -0.213010 0.113052 0.658066
v -0.204026 0.103140 0.664781
v -0.195109 0.093757 0.669649
v -0.184547 0.100479 0.669611
v -0.220501 0.109682 0.658457
v -0.150881 0.093345 0.646574
v -0.146074 0.100734 0.648661
v -0.150688 0.098308 0.650652
v -0.210398 0.099554 0.629480
v -0.127984 0.079723 0.627841
v -0.212427 0.160736 0.619069
v -0.219511 0.157826 0.630095
v -0.212183 0.153090 0.630923
v -0.204444 0.155709 0.618026
v -0.139174 0.075029 0.628772
v -0.133916 0.077761 0.625929
v -0.189778 0.077242 0.653814
v -0.184408 0.075213 0.655906
v -0.185711 0.074135 0.659218
v -0.191375 0.073752 0.657059
v -0.227988 0.121141 0.652247
v -0.210118 0.077717 0.666772
v -0.203710 0.085581 0.671413
v -0.230313 0.132773 0.647338
v -0.222253 0.138124 0.645695
v -0.229279 0.144334 0.642918
v -0.169779 0.099664 0.664969
v -0.204898 0.131378 0.648152
v -0.215313 0.140379 0.643282
v -0.223386 0.147917 0.639856
v -0.229559 0.153333 0.638255
v -0.235407 0.148763 0.641663
v -0.125840 0.077383 0.643551
v -0.128549 0.069036 0.646056
v -0.242394 0.154596 0.641688
v -0.235581 0.159152 0.637286
v -0.207590 0.143193 0.639088
v -0.198760 0.145868 0.632591
v -0.197854 0.134229 0.643822
v -0.188143 0.136315 0.638052
v -0.162372 0.107973 0.663751
v -0.132855 0.053529 0.638140
v -0.133703 0.063092 0.643241
v -0.138042 0.064806 0.639593
v -0.136916 0.054464 0.637047
v -0.135673 0.068606 0.644538
v -0.128032 0.064083 0.643430
v -0.178723 0.137915 0.626897
v -0.154199 0.088489 0.640430
v -0.189954 0.147078 0.617152
v -0.165652 0.135138 0.615611
v -0.174739 0.140180 0.606851
v -0.200364 0.155363 0.605134
v -0.187038 0.147438 0.598515
v -0.215639 0.164602 0.607517
v -0.208326 0.159783 0.607875
v -0.174923 0.137851 0.592853
v -0.134003 0.062310 0.624183
v -0.138326 0.060754 0.628150
v -0.218910 0.165908 0.618395
v -0.179385 0.103467 0.599890
v -0.216831 0.104483 0.622113
v -0.212270 0.107676 0.621057
v -0.233707 0.098237 0.628927
v -0.223690 0.100427 0.623109
v -0.128537 0.062343 0.623191
v -0.167254 0.081732 0.654015
v -0.167701 0.081209 0.654748
v -0.173121 0.107294 0.582009
v -0.166501 0.104909 0.581074
v -0.159611 0.116349 0.580420
v -0.163358 0.110540 0.578342
v -0.170420 0.115038 0.579014
v -0.166887 0.121746 0.581313
v -0.220007 0.111327 0.613431
v -0.222785 0.108974 0.614965
v -0.236404 0.111239 0.647906
v -0.238689 0.102180 0.641002
v -0.137782 0.103987 0.630802
v -0.141043 0.112615 0.637085
v -0.137145 0.104972 0.637799
v -0.135185 0.096829 0.644176
v -0.151440 0.088699 0.643428
v -0.148583 0.091570 0.644670
v -0.217397 0.118079 0.598966
v -0.209468 0.114331 0.608999
v -0.166926 0.104816 0.603440
v -0.160052 0.104604 0.600877
v -0.173754 0.091282 0.638866
v -0.162881 0.090751 0.662563
v -0.156945 0.097331 0.661021
v -0.166456 0.087970 0.642779
v -0.122818 0.058396 0.628128
v -0.125147 0.060792 0.624474
v -0.139981 0.105152 0.644514
v -0.191673 0.082796 0.647315
v -0.168980 0.090863 0.664215
v -0.165751 0.084806 0.660127
v -0.213215 0.076486 0.659635
v -0.226339 0.163286 0.628367
v -0.139507 0.066500 0.634190
v -0.140046 0.058569 0.632730
v -0.128644 0.054499 0.637515
v -0.123911 0.056779 0.633991
v -0.242969 0.109087 0.633631
v -0.208956 0.109473 0.620454
v -0.165808 0.129365 0.588975
v -0.157363 0.120730 0.586444
v -0.162301 0.086889 0.644655
v -0.195387 0.085587 0.669289
v -0.179497 0.091725 0.670503
v -0.174807 0.082753 0.670833
v -0.168137 0.082175 0.667021
v -0.165269 0.079871 0.660668
v -0.129446 0.049664 0.633565
v -0.125166 0.052668 0.630792
v -0.123805 0.055666 0.625796
v -0.125844 0.058261 0.623103
v -0.129771 0.059930 0.622461
v -0.134124 0.048400 0.634049
v -0.137863 0.049698 0.633119
v -0.140583 0.055006 0.631527
v -0.136638 0.045811 0.629406
v -0.132183 0.044666 0.625815
v -0.131063 0.053765 0.614145
v -0.127375 0.053129 0.618973
v -0.128657 0.050829 0.617798
v -0.131900 0.050638 0.613758
v -0.135170 0.048931 0.609902
v -0.134443 0.052311 0.609595
v -0.128782 0.047991 0.621846
v -0.133387 0.047042 0.616454
v -0.136137 0.044830 0.618825
v -0.139166 0.043994 0.613933
v -0.136728 0.045647 0.611744
v -0.132638 0.045143 0.622310
v -0.127009 0.048355 0.624138
v -0.137725 0.049874 0.607327
v -0.137042 0.047586 0.607973
v -0.138853 0.045229 0.609344
v -0.141141 0.046250 0.607648
v -0.128251 0.058314 0.620429
v -0.132251 0.056228 0.613797
v -0.136861 0.054368 0.610119
v -0.139865 0.051638 0.607870
v -0.136366 0.057427 0.614182
v -0.139424 0.055209 0.611386
v -0.142237 0.052687 0.609920
v -0.140489 0.056956 0.615664
v -0.142202 0.054687 0.613030
v -0.135206 0.059818 0.623579
v -0.131009 0.060931 0.622365
v -0.143698 0.053439 0.611404
v -0.143054 0.047261 0.607984
v -0.138029 0.044305 0.622112
v -0.141726 0.044410 0.615641
v -0.140327 0.045079 0.623092
v -0.143791 0.044657 0.616767
v -0.143141 0.043739 0.611277
v -0.140662 0.044021 0.611285
v -0.134670 0.060301 0.624402
v -0.139243 0.058134 0.628466
v -0.139694 0.057208 0.627437
v -0.143913 0.054673 0.618679
v -0.141316 0.053502 0.629273
v -0.140174 0.048081 0.628816
v -0.142974 0.046924 0.622447
v -0.144607 0.050048 0.621447
v -0.145222 0.046773 0.617249
v -0.145552 0.049273 0.616888
v -0.144862 0.052773 0.614947
v -0.145864 0.047370 0.613121
v -0.144663 0.044942 0.612078
v -0.144517 0.049408 0.610103
v -0.146163 0.048986 0.614033
v -0.144731 0.051031 0.612128
v -0.154270 0.059187 0.642548
v -0.160052 0.057472 0.645172
v -0.157781 0.060759 0.647665
v -0.152865 0.061768 0.645476
v -0.143848 0.053118 0.650079
v -0.146009 0.055992 0.644915
v -0.143870 0.059492 0.649273
v -0.143488 0.057162 0.655429
v -0.146977 0.050355 0.655984
v -0.147304 0.055502 0.660559
v -0.143430 0.063728 0.657033
v -0.144386 0.065339 0.650119
v -0.149108 0.085990 0.648791
v -0.148515 0.086337 0.655480
v -0.165851 0.080830 0.648995
v -0.166574 0.079897 0.652873
v -0.150087 0.058267 0.642616
v -0.148139 0.061080 0.645953
v -0.164069 0.062305 0.653824
v -0.162553 0.063424 0.648678
v -0.161986 0.059397 0.649944
v -0.162658 0.056524 0.654741
v -0.155344 0.084498 0.643438
v -0.160789 0.083067 0.646103
v -0.151886 0.085169 0.645055
v -0.161956 0.061023 0.660106
v -0.156399 0.060916 0.664173
v -0.159461 0.081704 0.664223
v -0.164387 0.079373 0.661112
v -0.147757 0.065743 0.645902
v -0.157957 0.064114 0.645106
v -0.152971 0.065341 0.643725
v -0.148679 0.063135 0.662409
v -0.154921 0.053252 0.661919
v -0.162911 0.040093 0.646238
v -0.160646 0.048437 0.655421
v -0.163491 0.051281 0.652056
v -0.166650 0.042768 0.644359
v -0.160095 0.053947 0.659241
v -0.154908 0.048179 0.657104
v -0.159805 0.050949 0.633916
v -0.165662 0.049384 0.637284
v -0.155087 0.049983 0.632983
v -0.152703 0.085263 0.661568
v -0.148579 0.044844 0.638856
v -0.151327 0.048303 0.634211
v -0.163585 0.055209 0.648534
v -0.168122 0.046265 0.641075
v -0.158303 0.039561 0.646424
v -0.150784 0.042173 0.644764
v -0.159991 0.036893 0.640001
v -0.153811 0.039397 0.638443
v -0.150777 0.043195 0.634712
v -0.152249 0.047378 0.633235
v -0.155839 0.049373 0.633352
v -0.164233 0.037274 0.640634
v -0.167504 0.040057 0.641123
v -0.167925 0.044531 0.640081
v -0.168428 0.040103 0.635498
v -0.164626 0.038013 0.632254
v -0.160312 0.056627 0.624235
v -0.156990 0.051874 0.627103
v -0.158583 0.050011 0.625852
v -0.161792 0.054316 0.623470
v -0.154337 0.046150 0.629120
v -0.156634 0.045628 0.627659
v -0.159555 0.041397 0.628703
v -0.162666 0.047155 0.626339
v -0.166786 0.044792 0.628051
v -0.169520 0.049456 0.625074
v -0.165853 0.051696 0.623034
v -0.163694 0.041002 0.629183
v -0.164453 0.056534 0.621854
v -0.165168 0.059045 0.621928
v -0.157416 0.039077 0.630573
v -0.152554 0.048929 0.632972
v -0.156912 0.054881 0.628860
v -0.161325 0.059337 0.626064
v -0.167131 0.060571 0.623723
v -0.159536 0.057575 0.631320
v -0.163601 0.060590 0.628205
v -0.168284 0.060684 0.626151
v -0.163631 0.058260 0.634140
v -0.167284 0.060383 0.630473
v -0.159184 0.051224 0.638352
v -0.154805 0.051358 0.635671
v -0.168760 0.060406 0.628506
v -0.169261 0.056934 0.621041
v -0.170848 0.059000 0.623040
v -0.168137 0.055426 0.621434
v -0.168606 0.044251 0.629458
v -0.171148 0.050145 0.626311
v -0.170794 0.045719 0.631310
v -0.172865 0.051683 0.627352
v -0.172164 0.054129 0.623297
v -0.170826 0.053589 0.622658
v -0.160043 0.049349 0.635233
v -0.165434 0.047714 0.637867
v -0.164546 0.048974 0.640791
v -0.168613 0.055402 0.635617
v -0.167964 0.045654 0.641234
v -0.169241 0.042816 0.638259
v -0.171781 0.047626 0.633497
v -0.171489 0.051600 0.635100
v -0.174274 0.052352 0.628854
v -0.173281 0.053914 0.631463
v -0.170714 0.058179 0.632002
v -0.174431 0.056180 0.625802
v -0.173351 0.055149 0.624054
v -0.171262 0.059387 0.625088
v -0.173864 0.056620 0.628588
v -0.171337 0.059381 0.628198
v -0.166580 0.057425 0.651368
v -0.171870 0.054754 0.652833
v -0.172200 0.057311 0.655007
v -0.166616 0.058925 0.654053
v -0.157352 0.053222 0.658495
v -0.158516 0.055642 0.654543
v -0.158658 0.058473 0.658440
v -0.157901 0.057244 0.663491
v -0.159741 0.048724 0.661209
v -0.160394 0.054551 0.667990
v -0.159341 0.061915 0.666123
v -0.159485 0.061524 0.660265
v -0.164195 0.075398 0.660968
v -0.164927 0.075546 0.667433
v -0.162182 0.057287 0.652208
v -0.162248 0.059056 0.655118
v -0.178316 0.056139 0.659762
v -0.176398 0.057913 0.655646
v -0.175481 0.054383 0.657888
v -0.175290 0.051362 0.661546
v -0.171345 0.075758 0.652868
v -0.177206 0.074923 0.654671
v -0.166951 0.075105 0.655560
v -0.176220 0.055196 0.666025
v -0.170966 0.056835 0.671042
v -0.178295 0.071522 0.670645
v -0.182042 0.070810 0.665962
v -0.162102 0.061250 0.655895
v -0.172458 0.060040 0.652933
v -0.166733 0.061181 0.652725
v -0.164139 0.060328 0.670064
v -0.166643 0.050709 0.668849
v -0.169342 0.035583 0.649117
v -0.170927 0.045314 0.662394
v -0.174582 0.048074 0.658670
v -0.172826 0.037519 0.648026
v -0.172184 0.049325 0.665690
v -0.165457 0.045882 0.663593
v -0.167489 0.049636 0.640832
v -0.171863 0.046306 0.642814
v -0.162997 0.050128 0.641768
v -0.170435 0.074313 0.671863
v -0.182723 0.071978 0.659586
v -0.157774 0.045865 0.644493
v -0.160157 0.048814 0.642661
v -0.174808 0.051392 0.655832
v -0.174221 0.041531 0.645847
v -0.164167 0.036486 0.650237
v -0.158909 0.041356 0.648963
v -0.165321 0.033928 0.644392
v -0.159854 0.038880 0.642882
v -0.158757 0.044704 0.640362
v -0.161645 0.048565 0.640712
v -0.164491 0.049613 0.640946
v -0.171007 0.034214 0.645228
v -0.173446 0.036529 0.645699
v -0.173554 0.041331 0.646244
v -0.172862 0.034898 0.642322
v -0.168873 0.034883 0.638269
v -0.175618 0.050936 0.629795
v -0.170038 0.048774 0.632932
v -0.170385 0.047679 0.632749
v -0.175680 0.049219 0.629230
v -0.163711 0.044818 0.635465
v -0.165727 0.044628 0.634434
v -0.165998 0.040288 0.635073
v -0.172138 0.042577 0.631630
v -0.175350 0.038394 0.635275
v -0.179666 0.040865 0.632045
v -0.177191 0.044668 0.628328
v -0.169290 0.037007 0.636534
v -0.178806 0.049403 0.627408
v -0.179063 0.051141 0.626898
v -0.163444 0.038517 0.636549
v -0.164239 0.048960 0.638584
v -0.170578 0.051447 0.634552
v -0.176068 0.053437 0.631448
v -0.180473 0.053102 0.629707
v -0.173027 0.052575 0.637412
v -0.177539 0.053659 0.634176
v -0.181408 0.053106 0.632494
v -0.175688 0.051865 0.639562
v -0.179360 0.052501 0.636624
v -0.168921 0.049192 0.643392
v -0.166344 0.050418 0.641591
v -0.181705 0.052074 0.634658
v -0.182243 0.047490 0.626655
v -0.184659 0.048920 0.629793
v -0.180789 0.046685 0.627163
v -0.175997 0.037142 0.636552
v -0.181646 0.040171 0.632879
v -0.178018 0.037484 0.638692
v -0.183197 0.040334 0.634986
v -0.183623 0.043085 0.629552
v -0.182490 0.043180 0.629389
v -0.168134 0.048995 0.641375
v -0.171704 0.045754 0.644053
v -0.171906 0.046020 0.646453
v -0.179107 0.048649 0.642381
v -0.173863 0.041595 0.647634
v -0.175533 0.037429 0.644117
v -0.179588 0.040062 0.640798
v -0.180669 0.043851 0.642323
v -0.183792 0.042208 0.637122
v -0.183149 0.044402 0.639043
v -0.182116 0.049554 0.638908
v -0.185165 0.045084 0.634290
v -0.185098 0.043571 0.631636
v -0.184637 0.049692 0.632874
v -0.184753 0.046457 0.636419
v -0.184075 0.049876 0.635272
v -0.181074 0.073461 0.656647
v -0.183571 0.052420 0.659227
v -0.187889 0.051594 0.658878
v -0.188073 0.052342 0.659185
v -0.183998 0.054293 0.659232
v -0.179762 0.052061 0.669990
v -0.178806 0.052241 0.665309
v -0.179157 0.055976 0.666992
v -0.180303 0.055749 0.671481
v -0.184108 0.051140 0.673123
v -0.185086 0.053994 0.673836
v -0.182254 0.059741 0.671317
v -0.180795 0.060308 0.666839
v -0.189124 0.076096 0.666171
v -0.192572 0.077224 0.670320
v -0.208633 0.071408 0.659936
v -0.206762 0.072736 0.655075
v -0.201120 0.065299 0.657673
v -0.203963 0.065104 0.661681
v -0.180492 0.052531 0.661697
v -0.180638 0.055766 0.662109
v -0.195944 0.051302 0.664353
v -0.193171 0.052548 0.660372
v -0.191938 0.051063 0.660176
v -0.195060 0.049264 0.663221
v -0.201496 0.073201 0.653444
v -0.196935 0.074283 0.654499
v -0.194005 0.070659 0.655087
v -0.196551 0.066512 0.656033
v -0.189514 0.072627 0.659014
v -0.195768 0.051760 0.668798
v -0.192407 0.054005 0.673411
v -0.204665 0.069632 0.670608
v -0.205582 0.067378 0.666233
v -0.181306 0.058435 0.662598
v -0.189229 0.054786 0.658839
v -0.184806 0.055904 0.659263
v -0.186912 0.057593 0.674272
v -0.190928 0.050925 0.672343
v -0.193325 0.040669 0.665058
v -0.194634 0.047017 0.667742
v -0.195191 0.048165 0.663058
v -0.194605 0.042166 0.662233
v -0.194487 0.048926 0.667781
v -0.190293 0.047618 0.671451
v -0.184240 0.048121 0.656648
v -0.189703 0.046715 0.657340
v -0.181065 0.047959 0.658133
v -0.198592 0.074993 0.672778
v -0.179080 0.045246 0.664785
v -0.179219 0.046533 0.660585
v -0.191765 0.049934 0.660072
v -0.193518 0.044495 0.659242
v -0.189052 0.040520 0.667853
v -0.183111 0.043686 0.668832
v -0.188076 0.036438 0.664097
v -0.182508 0.039853 0.665494
v -0.179190 0.043380 0.660641
v -0.180775 0.046265 0.658237
v -0.183130 0.047788 0.656783
v -0.193163 0.037767 0.662230
v -0.194737 0.039607 0.660838
v -0.193652 0.043146 0.658854
v -0.192588 0.035456 0.658972
v -0.188049 0.035190 0.657047
v -0.188189 0.042723 0.645999
v -0.185922 0.043539 0.649701
v -0.185945 0.042301 0.649725
v -0.187691 0.041742 0.645925
v -0.182529 0.042836 0.654410
v -0.183741 0.041565 0.653255
v -0.184024 0.038669 0.655814
v -0.186508 0.038087 0.650687
v -0.190756 0.034991 0.652257
v -0.192174 0.034873 0.648249
v -0.188136 0.037350 0.647146
v -0.187506 0.035718 0.655442
v -0.188703 0.040273 0.643635
v -0.189483 0.040902 0.642517
v -0.182179 0.038347 0.658296
v -0.184029 0.046698 0.654660
v -0.187486 0.045748 0.648880
v -0.189848 0.044135 0.644402
v -0.191852 0.041576 0.642009
v -0.189430 0.047197 0.649649
v -0.191840 0.045307 0.644650
v -0.193740 0.042712 0.642612
v -0.192604 0.047338 0.650857
v -0.194023 0.045351 0.645969
v -0.190301 0.048222 0.655883
v -0.186973 0.048458 0.654755
v -0.194760 0.043200 0.643943
v -0.191096 0.037206 0.642620
v -0.193771 0.038788 0.642484
v -0.189872 0.036620 0.643843
v -0.192097 0.034566 0.652889
v -0.193952 0.034578 0.648069
v -0.194352 0.035051 0.653569
v -0.195922 0.035580 0.648221
v -0.193573 0.035345 0.644582
v -0.191763 0.035207 0.645490
v -0.187081 0.047661 0.655966
v -0.190197 0.046186 0.656685
v -0.193277 0.045508 0.657008
v -0.195867 0.044840 0.652575
v -0.195614 0.041459 0.659088
v -0.195065 0.037552 0.659469
v -0.196514 0.036964 0.653789
v -0.197659 0.040260 0.653513
v -0.197188 0.037401 0.648037
v -0.197946 0.040352 0.648423
v -0.196750 0.043599 0.647569
v -0.196255 0.038591 0.644502
v -0.195389 0.036923 0.644113
v -0.195256 0.040179 0.643062
v -0.196917 0.040261 0.645193
v -0.196133 0.041689 0.644534
v -0.207920 0.071261 0.664067
v -0.145196 0.111700 0.590050
v -0.146304 0.108598 0.594685
v -0.153149 0.095096 0.588781
v -0.150031 0.098096 0.594397
v -0.153962 0.095732 0.581999
v -0.151575 0.104334 0.575611
v -0.154181 0.099782 0.577729
v -0.147648 0.103146 0.596452
v -0.145956 0.112986 0.584051
v -0.148684 0.110395 0.577646
v -0.137031 0.110381 0.583885
v -0.139823 0.106939 0.576821
v -0.142540 0.100978 0.574193
v -0.147348 0.095972 0.577302
v -0.149022 0.092860 0.581076
v -0.139558 0.108467 0.590928
v -0.141593 0.105342 0.595004
v -0.144865 0.099665 0.596110
v -0.134305 0.103214 0.593701
v -0.127749 0.097136 0.589470
v -0.126293 0.079146 0.581583
v -0.131397 0.083656 0.580225
v -0.129129 0.085209 0.580967
v -0.124499 0.081060 0.581660
v -0.132968 0.089143 0.579119
v -0.131128 0.089166 0.580673
v -0.129510 0.093382 0.583546
v -0.125429 0.089214 0.584385
v -0.127553 0.094542 0.588223
v -0.125003 0.091560 0.590104
v -0.121326 0.085343 0.585317
v -0.120695 0.080093 0.582735
v -0.118074 0.081902 0.586180
v -0.121686 0.077273 0.583803
v -0.128453 0.095804 0.581606
v -0.139828 0.089598 0.577999
v -0.134870 0.082583 0.580619
v -0.129167 0.077435 0.583238
v -0.123678 0.075814 0.585941
v -0.137795 0.081470 0.583721
v -0.132025 0.077638 0.586557
v -0.127028 0.076696 0.589485
v -0.139036 0.082017 0.588456
v -0.132950 0.079074 0.590200
v -0.147572 0.090401 0.587355
v -0.145553 0.089236 0.581329
v -0.128873 0.078204 0.591059
v -0.117454 0.079603 0.587783
v -0.119750 0.078160 0.590227
v -0.125733 0.093113 0.593081
v -0.120755 0.088252 0.590891
v -0.121728 0.088236 0.593735
v -0.128340 0.093895 0.596060
v -0.123336 0.087679 0.596043
v -0.118224 0.083923 0.592184
v -0.118310 0.085094 0.589589
v -0.149967 0.092472 0.587232
v -0.148380 0.095452 0.592850
v -0.146257 0.093759 0.592982
v -0.138290 0.085590 0.594132
v -0.142599 0.097008 0.596798
v -0.137836 0.100900 0.596560
v -0.131199 0.092451 0.598038
v -0.135072 0.089580 0.597665
v -0.126412 0.086034 0.597038
v -0.129047 0.084524 0.596476
v -0.131698 0.081206 0.593946
v -0.123660 0.081919 0.595133
v -0.120294 0.082935 0.594439
v -0.123855 0.078431 0.592434
v -0.126446 0.081961 0.595083
v -0.127235 0.079574 0.593214
v -0.210362 0.076370 0.653746
v -0.204624 0.077218 0.650819
v -0.209763 0.080006 0.648737
v -0.215967 0.084040 0.643535
v -0.225646 0.088423 0.642966
v -0.210355 0.086835 0.640627
v -0.204249 0.082380 0.646382
v -0.196959 0.078707 0.650394
v -0.210233 0.094558 0.633934
f 780 781 779
f 779 781 782
f 783 784 786
f 786 784 785
f 787 782 788
f 788 782 781
f 790 791 789
f 789 791 787
f 792 790 794
f 794 790 793
f 796 797 795
f 795 797 798
f 800 801 799
f 799 801 802
f 804 805 803
f 803 805 806
f 808 809 807
f 807 809 810
f 811 812 814
f 814 812 813
f 815 816 818
f 818 816 817
f 819 820 784
f 784 820 821
f 784 821 785
f 785 821 822
f 823 812 824
f 824 812 811
f 826 827 825
f 825 827 828
f 830 831 829
f 829 831 832
f 834 830 833
f 833 830 829
f 836 837 835
f 835 837 838
f 839 840 782
f 782 840 779
f 842 843 841
f 841 843 844
f 846 847 845
f 845 847 848
f 850 851 849
f 849 851 852
f 854 855 853
f 853 855 856
f 831 857 832
f 832 857 858
f 860 861 859
f 859 861 862
f 863 864 830
f 830 864 831
f 835 838 865
f 865 838 866
f 867 868 821
f 821 868 822
f 821 820 867
f 867 820 869
f 818 817 870
f 870 817 871
f 872 848 842
f 842 848 847
f 791 839 787
f 787 839 782
f 803 806 847
f 847 806 873
f 874 803 846
f 846 803 847
f 876 877 875
f 875 877 878
f 879 880 882
f 882 880 881
f 884 808 883
f 883 808 807
f 829 832 885
f 885 832 886
f 832 858 886
f 886 858 887
f 889 890 888
f 888 890 891
f 893 783 892
f 892 783 894
f 893 819 783
f 783 819 784
f 814 813 889
f 889 813 895
f 813 896 895
f 895 896 897
f 812 898 813
f 813 898 896
f 812 823 898
f 898 823 899
f 903 904 902
f 902 904 905
f 906 907 792
f 792 907 908
f 811 909 824
f 824 909 910
f 911 872 841
f 841 872 842
f 912 913 915
f 915 913 914
f 917 918 916
f 916 918 919
f 855 920 856
f 856 920 921
f 922 923 798
f 798 923 924
f 926 927 925
f 925 927 850
f 929 930 928
f 928 930 931
f 860 879 861
f 861 879 882
f 879 860 933
f 933 860 932
f 934 935 836
f 836 935 837
f 936 846 925
f 925 846 845
f 937 924 793
f 793 924 794
f 846 936 874
f 874 936 938
f 907 844 908
f 908 844 843
f 940 941 939
f 939 941 942
f 944 945 943
f 943 945 946
f 948 949 947
f 947 949 950
f 952 949 951
f 951 949 948
f 954 955 953
f 953 955 956
f 958 959 957
f 957 959 802
f 960 961 799
f 799 961 962
f 859 963 860
f 860 963 932
f 964 965 966
f 966 965 922
f 936 849 938
f 938 849 967
f 968 913 935
f 935 913 837
f 947 950 917
f 917 950 918
f 925 850 936
f 936 850 849
f 970 971 969
f 969 971 972
f 945 944 827
f 827 944 973
f 974 968 828
f 828 968 935
f 975 976 978
f 978 976 977
f 799 802 960
f 960 802 959
f 924 937 798
f 798 937 795
f 960 959 859
f 859 959 963
f 979 963 958
f 958 963 959
f 980 981 861
f 861 981 862
f 983 984 982
f 982 984 863
f 985 800 962
f 962 800 799
f 957 802 986
f 986 802 801
f 986 987 957
f 957 987 983
f 987 988 983
f 983 988 984
f 990 984 989
f 989 984 988
f 957 983 958
f 958 983 982
f 991 954 866
f 866 954 992
f 864 863 990
f 990 863 984
f 971 995 996
f 995 997 996
f 996 997 998
f 997 796 998
f 998 796 795
f 797 999 798
f 798 999 922
f 1000 1001 1003
f 1003 1001 1002
f 953 1004 954
f 954 1004 992
f 1005 865 992
f 992 865 866
f 998 795 1006
f 1006 795 937
f 912 991 838
f 838 991 866
f 916 1007 929
f 929 1007 930
f 971 970 988
f 988 970 989
f 1008 972 996
f 996 972 971
f 1009 1010 1006
f 1006 1010 1008
f 1011 1012 869
f 869 1012 867
f 1013 1014 871
f 871 1014 870
f 1008 1010 1012
f 1012 1010 1015
f 825 1016 826
f 826 1016 1017
f 1018 969 1013
f 1013 969 1014
f 783 786 894
f 894 786 1019
f 1020 1021 967
f 967 1021 938
f 1022 1023 876
f 876 1023 877
f 934 1024 825
f 825 1024 1016
f 854 1025 855
f 855 1025 1026
f 1028 903 1027
f 1027 903 902
f 1030 1031 1029
f 1029 1031 1032
f 889 888 814
f 814 888 1033
f 1034 811 1033
f 1033 811 814
f 1035 1036 932
f 932 1036 933
f 841 947 911
f 911 947 917
f 844 948 841
f 841 948 947
f 951 948 907
f 907 948 844
f 907 906 951
f 951 906 1037
f 906 1038 1037
f 1037 1038 1039
f 991 912 1040
f 1040 912 915
f 1041 1042 964
f 964 1042 965
f 890 1043 891
f 891 1043 1044
f 789 1045 1046
f 1012 1011 1008
f 1008 1011 972
f 931 1047 848
f 848 1047 845
f 953 956 943
f 943 956 919
f 928 931 872
f 872 931 848
f 1049 999 1048
f 1048 999 985
f 1047 931 1050
f 1050 931 930
f 899 823 887
f 887 823 886
f 825 828 934
f 934 828 935
f 835 1051 836
f 836 1051 1052
f 923 1053 1038
f 1038 1053 1039
f 1054 927 921
f 921 927 856
f 926 1047 853
f 853 1047 1050
f 985 1055 1048
f 1048 1055 1056
f 973 974 827
f 827 974 828
f 837 913 838
f 838 913 912
f 861 882 980
f 980 882 1057
f 927 926 856
f 856 926 853
f 1025 1056 1026
f 1026 1056 1055
f 961 960 862
f 862 960 859
f 826 1017 1059
f 1059 1017 1060
f 1005 1001 1061
f 1061 1001 1000
f 1001 1004 1002
f 1002 1004 946
f 1059 1060 1002
f 1002 1060 1003
f 943 946 953
f 953 946 1004
f 1042 1041 916
f 916 1041 1007
f 792 794 906
f 906 794 1038
f 998 1006 996
f 996 1006 1008
f 865 1005 1062
f 1062 1005 1061
f 1038 794 923
f 923 794 924
f 1022 876 1036
f 1036 876 933
f 836 1052 934
f 934 1052 1024
f 885 1063 829
f 829 1063 833
f 1021 1064 938
f 938 1064 874
f 1012 1015 867
f 867 1015 868
f 824 910 885
f 885 910 1063
f 1031 1030 1027
f 1027 1030 1028
f 1064 804 874
f 874 804 803
f 884 883 1065
f 1065 883 1066
f 1050 930 1067
f 1067 930 1007
f 916 929 917
f 917 929 911
f 961 1068 939
f 939 1068 940
f 1069 1070 1055
f 1055 1070 1071
f 929 928 911
f 911 928 872
f 1040 1053 955
f 955 1053 965
f 922 965 923
f 923 965 1053
f 1051 835 1062
f 1062 835 865
f 952 914 968
f 968 914 913
f 889 895 890
f 890 895 816
f 895 897 816
f 816 897 901
f 890 816 1043
f 1043 816 815
f 1065 1066 1032
f 1032 1066 1029
f 1006 937 1009
f 1009 937 793
f 1001 1005 1004
f 1004 1005 992
f 925 845 926
f 926 845 1047
f 1002 946 1059
f 1059 946 945
f 977 941 978
f 978 941 940
f 823 824 886
f 886 824 885
f 1059 945 826
f 826 945 827
f 939 942 1069
f 1069 942 1070
f 816 901 817
f 1071 1072 1055
f 1055 1072 1026
f 1062 1061 1074
f 1074 1061 1073
f 1062 1074 1051
f 1051 1074 1075
f 1052 1051 1076
f 1076 1051 1075
f 1024 1052 1077
f 1077 1052 1076
f 1061 1000 1073
f 1073 1000 1078
f 1000 1003 1078
f 1078 1003 1079
f 1079 1003 1080
f 1080 1003 1060
f 1081 1082 1078
f 1078 1082 1073
f 1084 1085 1083
f 1083 1085 1086
f 1087 1088 1086
f 1086 1088 1083
f 1086 1085 1090
f 1090 1085 1089
f 1091 1092 1090
f 1090 1092 1093
f 1089 1094 1090
f 1090 1094 1091
f 1095 1082 1089
f 1089 1082 1094
f 1093 1087 1090
f 1090 1087 1086
f 1096 1097 1099
f 1099 1097 1098
f 1097 1096 1087
f 1087 1096 1088
f 1089 1085 1095
f 1095 1085 1084
f 1084 1075 1095
f 1095 1075 1074
f 1084 1100 1075
f 1075 1100 1076
f 1083 1101 1084
f 1084 1101 1100
f 1101 1083 1102
f 1102 1083 1088
f 1082 1095 1073
f 1073 1095 1074
f 1096 1103 1088
f 1088 1103 1102
f 1101 1102 1104
f 1104 1102 1105
f 1102 1103 1105
f 1105 1103 1106
f 1104 1105 1107
f 1107 1105 1108
f 1107 1109 1104
f 1104 1109 1110
f 1111 1108 1106
f 1106 1108 1105
f 1101 1104 1100
f 1100 1104 1110
f 1100 1110 1076
f 1076 1110 1077
f 1103 1096 1112
f 1112 1096 1099
f 1091 1094 1113
f 1113 1094 1082
f 1113 1114 1091
f 1091 1114 1092
f 1082 1081 1113
f 1113 1081 1115
f 1114 1113 1116
f 1116 1113 1115
f 1114 1117 1092
f 1092 1117 1118
f 1024 1077 1016
f 1016 1077 1119
f 1017 1120 1060
f 1060 1120 1080
f 1120 1017 1119
f 1119 1017 1016
f 1119 1109 1120
f 1120 1109 1121
f 1109 1107 1121
f 1121 1107 1122
f 1120 1121 1080
f 1080 1121 1123
f 1119 1077 1109
f 1109 1077 1110
f 1124 1079 1123
f 1123 1079 1080
f 1124 1081 1079
f 1079 1081 1078
f 1125 1115 1124
f 1124 1115 1081
f 1125 1124 1126
f 1126 1124 1123
f 1127 1125 1128
f 1128 1125 1126
f 1121 1122 1123
f 1123 1122 1126
f 1122 1129 1126
f 1126 1129 1128
f 1115 1125 1116
f 1116 1125 1127
f 1131 1116 1130
f 1130 1116 1127
f 1130 1133 1132
f 1132 1133 1134
f 1130 1127 1133
f 1133 1127 1128
f 1130 1132 1131
f 1131 1132 1112
f 1131 1112 1117
f 1117 1112 1099
f 1117 1114 1131
f 1131 1114 1116
f 1107 1108 1122
f 1122 1108 1129
f 1134 1129 1111
f 1111 1129 1108
f 1134 1133 1129
f 1129 1133 1128
f 1132 1134 1106
f 1106 1134 1111
f 1106 1103 1132
f 1132 1103 1112
f 1087 1093 1097
f 1097 1093 1098
f 1098 1118 1099
f 1099 1118 1117
f 1098 1093 1118
f 1118 1093 1092
f 915 914 1039
f 1039 914 1037
f 918 944 919
f 919 944 943
f 950 949 973
f 973 949 974
f 949 952 974
f 974 952 968
f 956 955 1042
f 1042 955 965
f 950 973 918
f 918 973 944
f 915 1039 1040
f 1040 1039 1053
f 956 1042 919
f 919 1042 916
f 1040 955 991
f 991 955 954
f 914 952 1037
f 1037 952 951
f 1136 1137 1135
f 1135 1137 1138
f 1140 1141 1139
f 1139 1141 1142
f 1139 1142 1143
f 1143 1142 1144
f 1145 1146 1148
f 1148 1146 1147
f 854 1149 1025
f 1025 1149 1150
f 1151 1152 1140
f 1140 1152 1141
f 1154 1155 1153
f 1153 1155 1156
f 1067 1007 1158
f 1158 1007 1157
f 1159 1157 1041
f 1041 1157 1007
f 1161 1162 1160
f 1160 1162 1163
f 1164 1146 1152
f 1152 1146 1141
f 854 1067 1149
f 1149 1067 1158
f 1155 1154 1137
f 1137 1154 1165
f 1166 1164 1138
f 1138 1164 1152
f 1167 1161 1144
f 1144 1161 1168
f 1170 1171 1169
f 1169 1171 1172
f 1161 1160 1168
f 1168 1160 1173
f 1174 1143 1168
f 1168 1143 1144
f 1167 1144 1145
f 1145 1144 1142
f 1135 1175 1136
f 1136 1175 1176
f 1151 1177 1135
f 1135 1177 1175
f 1167 1145 1178
f 1178 1145 1148
f 1160 1163 1153
f 1153 1163 1150
f 1135 1138 1151
f 1151 1138 1152
f 1139 1179 1140
f 1140 1179 1180
f 1165 1166 1137
f 1137 1166 1138
f 1141 1146 1142
f 1142 1146 1145
f 1136 1176 1181
f 1181 1176 1182
f 1174 1170 1183
f 1183 1170 1169
f 1170 1173 1171
f 1171 1173 1156
f 1171 1181 1172
f 1172 1181 1182
f 1153 1156 1160
f 1160 1156 1173
f 1143 1174 1184
f 1184 1174 1183
f 1140 1180 1151
f 1151 1180 1177
f 1049 1048 1178
f 1178 1048 1162
f 1179 1139 1184
f 1184 1139 1143
f 1159 1147 1164
f 1164 1147 1146
f 1170 1174 1173
f 1173 1174 1168
f 1171 1156 1181
f 1181 1156 1155
f 1181 1155 1136
f 1136 1155 1137
f 1184 1183 1186
f 1186 1183 1185
f 1184 1186 1179
f 1179 1186 1187
f 1179 1187 1180
f 1180 1187 1188
f 1180 1188 1177
f 1177 1188 1189
f 1183 1169 1185
f 1185 1169 1190
f 1169 1172 1190
f 1190 1172 1191
f 1172 1182 1191
f 1191 1182 1192
f 1193 1194 1190
f 1190 1194 1185
f 1196 1197 1195
f 1195 1197 1198
f 1199 1200 1196
f 1196 1200 1197
f 1197 1200 1202
f 1202 1200 1201
f 1203 1204 1202
f 1202 1204 1205
f 1201 1206 1202
f 1202 1206 1203
f 1205 1198 1202
f 1202 1198 1197
f 1198 1207 1195
f 1195 1207 1208
f 1201 1200 1209
f 1209 1200 1199
f 1199 1187 1209
f 1209 1187 1186
f 1199 1210 1187
f 1187 1210 1188
f 1196 1211 1199
f 1199 1211 1210
f 1212 1211 1195
f 1195 1211 1196
f 1209 1194 1201
f 1201 1194 1206
f 1194 1209 1185
f 1185 1209 1186
f 1213 1212 1208
f 1208 1212 1195
f 1211 1212 1214
f 1214 1212 1215
f 1212 1213 1215
f 1215 1213 1216
f 1214 1215 1217
f 1217 1215 1218
f 1217 1219 1214
f 1214 1219 1220
f 1216 1221 1215
f 1215 1221 1218
f 1214 1220 1211
f 1211 1220 1210
f 1210 1220 1188
f 1188 1220 1189
f 1213 1208 1223
f 1223 1208 1222
f 1208 1207 1222
f 1222 1207 1224
f 1203 1206 1225
f 1225 1206 1194
f 1204 1203 1226
f 1226 1203 1225
f 1194 1193 1225
f 1225 1193 1227
f 1225 1227 1226
f 1226 1227 1228
f 1229 1230 1226
f 1226 1230 1204
f 1224 1230 1222
f 1222 1230 1229
f 1177 1189 1175
f 1175 1189 1231
f 1176 1232 1182
f 1182 1232 1192
f 1232 1176 1231
f 1231 1176 1175
f 1231 1219 1232
f 1232 1219 1233
f 1219 1217 1233
f 1233 1217 1234
f 1232 1233 1192
f 1192 1233 1235
f 1219 1231 1220
f 1220 1231 1189
f 1236 1191 1235
f 1235 1191 1192
f 1236 1193 1191
f 1191 1193 1190
f 1236 1237 1193
f 1193 1237 1227
f 1237 1236 1238
f 1238 1236 1235
f 1239 1237 1240
f 1240 1237 1238
f 1233 1234 1235
f 1235 1234 1238
f 1234 1241 1238
f 1238 1241 1240
f 1237 1239 1227
f 1227 1239 1228
f 1243 1228 1242
f 1242 1228 1239
f 1242 1245 1244
f 1244 1245 1246
f 1242 1239 1245
f 1245 1239 1240
f 1242 1244 1243
f 1243 1244 1223
f 1243 1223 1229
f 1229 1223 1222
f 1229 1226 1243
f 1243 1226 1228
f 1217 1218 1234
f 1234 1218 1241
f 1246 1241 1221
f 1221 1241 1218
f 1246 1245 1241
f 1241 1245 1240
f 1244 1246 1216
f 1216 1246 1221
f 1216 1213 1244
f 1244 1213 1223
f 1198 1205 1207
f 1207 1205 1224
f 1224 1205 1230
f 1230 1205 1204
f 1148 1147 966
f 966 1147 964
f 1149 1154 1150
f 1150 1154 1153
f 1158 1157 1165
f 1165 1157 1166
f 1157 1159 1166
f 1166 1159 1164
f 1163 1162 1056
f 1056 1162 1048
f 1158 1165 1149
f 1149 1165 1154
f 1178 1148 1049
f 1049 1148 966
f 1163 1056 1150
f 1150 1056 1025
f 1178 1162 1167
f 1167 1162 1161
f 1147 1159 964
f 964 1159 1041
f 999 1049 922
f 922 1049 966
f 999 797 985
f 985 797 800
f 797 796 800
f 800 796 801
f 796 997 801
f 801 997 986
f 1247 1248 1250
f 1250 1248 1249
f 1252 1253 1251
f 1251 1253 1254
f 1251 1254 1255
f 1255 1254 1256
f 1258 1259 1257
f 1257 1259 1260
f 1261 1262 1252
f 1252 1262 1253
f 1264 1265 1263
f 1263 1265 1266
f 1267 1268 855
f 855 1268 920
f 1269 1267 1026
f 1026 1267 855
f 1271 1272 1270
f 1270 1272 1273
f 1274 1258 1262
f 1262 1258 1253
f 1264 1275 1265
f 1265 1275 1249
f 1276 1274 1250
f 1250 1274 1262
f 1277 1271 1256
f 1256 1271 1278
f 1279 1280 1282
f 1282 1280 1281
f 1271 1270 1278
f 1278 1270 1283
f 1284 1255 1278
f 1278 1255 1256
f 1277 1256 1257
f 1257 1256 1254
f 1247 1285 1248
f 1248 1285 1286
f 1261 1287 1247
f 1247 1287 1285
f 1257 1260 1277
f 1277 1260 1288
f 1270 1273 1263
f 1263 1273 1289
f 1261 1247 1262
f 1262 1247 1250
f 1251 1290 1252
f 1252 1290 1291
f 1275 1276 1249
f 1249 1276 1250
f 1253 1258 1254
f 1254 1258 1257
f 1248 1286 1292
f 1292 1286 1293
f 1284 1280 1294
f 1294 1280 1279
f 1281 1280 1266
f 1266 1280 1283
f 1292 1293 1281
f 1281 1293 1282
f 1263 1266 1270
f 1270 1266 1283
f 1255 1284 1295
f 1295 1284 1294
f 1252 1291 1261
f 1261 1291 1287
f 1288 1070 1272
f 1272 1070 942
f 1290 1251 1295
f 1295 1251 1255
f 1269 1259 1274
f 1274 1259 1258
f 1280 1284 1283
f 1283 1284 1278
f 1281 1266 1292
f 1292 1266 1265
f 1292 1265 1248
f 1248 1265 1249
f 1295 1294 1297
f 1297 1294 1296
f 1295 1297 1290
f 1290 1297 1298
f 1290 1298 1291
f 1291 1298 1299
f 1291 1299 1287
f 1287 1299 1300
f 1294 1279 1296
f 1296 1279 1301
f 1279 1282 1301
f 1301 1282 1302
f 1302 1282 1303
f 1303 1282 1293
f 1304 1305 1301
f 1301 1305 1296
f 1307 1308 1306
f 1306 1308 1309
f 1310 1311 1307
f 1307 1311 1308
f 1308 1311 1313
f 1313 1311 1312
f 1314 1315 1313
f 1313 1315 1316
f 1312 1317 1313
f 1313 1317 1314
f 1316 1309 1313
f 1313 1309 1308
f 1318 1319 1309
f 1309 1319 1306
f 1311 1310 1312
f 1312 1310 1320
f 1310 1298 1320
f 1320 1298 1297
f 1310 1321 1298
f 1298 1321 1299
f 1307 1322 1310
f 1310 1322 1321
f 1322 1307 1323
f 1323 1307 1306
f 1312 1320 1317
f 1317 1320 1305
f 1305 1320 1296
f 1296 1320 1297
f 1319 1324 1306
f 1306 1324 1323
f 1325 1322 1326
f 1326 1322 1323
f 1324 1327 1323
f 1323 1327 1326
f 1328 1325 1329
f 1329 1325 1326
f 1325 1328 1331
f 1331 1328 1330
f 1327 1332 1326
f 1326 1332 1329
f 1322 1325 1321
f 1321 1325 1331
f 1321 1331 1299
f 1299 1331 1300
f 1324 1319 1334
f 1334 1319 1333
f 1319 1318 1333
f 1333 1318 1335
f 1314 1317 1336
f 1336 1317 1305
f 1315 1314 1337
f 1337 1314 1336
f 1305 1304 1336
f 1336 1304 1338
f 1337 1336 1339
f 1339 1336 1338
f 1337 1340 1315
f 1315 1340 1341
f 1335 1341 1333
f 1333 1341 1340
f 1287 1300 1285
f 1285 1300 1342
f 1286 1343 1293
f 1293 1343 1303
f 1343 1286 1342
f 1342 1286 1285
f 1342 1330 1343
f 1343 1330 1344
f 1330 1328 1344
f 1344 1328 1345
f 1343 1344 1303
f 1303 1344 1346
f 1342 1300 1330
f 1330 1300 1331
f 1347 1302 1346
f 1346 1302 1303
f 1347 1304 1302
f 1302 1304 1301
f 1348 1338 1347
f 1347 1338 1304
f 1348 1347 1349
f 1349 1347 1346
f 1350 1348 1351
f 1351 1348 1349
f 1344 1345 1346
f 1346 1345 1349
f 1345 1352 1349
f 1349 1352 1351
f 1348 1350 1338
f 1338 1350 1339
f 1354 1339 1353
f 1353 1339 1350
f 1353 1356 1355
f 1355 1356 1357
f 1353 1350 1356
f 1356 1350 1351
f 1353 1355 1354
f 1354 1355 1334
f 1354 1334 1340
f 1340 1334 1333
f 1340 1337 1354
f 1354 1337 1339
f 1328 1329 1345
f 1345 1329 1352
f 1357 1352 1332
f 1332 1352 1329
f 1357 1356 1352
f 1352 1356 1351
f 1357 1332 1355
f 1355 1332 1327
f 1327 1324 1355
f 1355 1324 1334
f 1309 1316 1318
f 1318 1316 1335
f 1335 1316 1341
f 1341 1316 1315
f 1259 1072 1260
f 1260 1072 1071
f 1358 1264 1289
f 1289 1264 1263
f 1268 1267 1275
f 1275 1267 1276
f 1267 1269 1276
f 1276 1269 1274
f 941 1273 942
f 942 1273 1272
f 1358 1268 1264
f 1264 1268 1275
f 1260 1071 1288
f 1288 1071 1070
f 1273 941 1289
f 1289 941 977
f 1272 1271 1288
f 1288 1271 1277
f 1259 1269 1072
f 1072 1269 1026
f 1360 1361 1359
f 1359 1361 1362
f 1364 1365 1363
f 1363 1365 1366
f 1363 1366 1367
f 1367 1366 1368
f 1370 1371 1369
f 1369 1371 1372
f 1373 1374 1376
f 1376 1374 1375
f 1377 1378 1364
f 1364 1378 1365
f 1379 1380 1382
f 1382 1380 1381
f 1383 1384 1386
f 1386 1384 1385
f 1387 1385 978
f 978 1385 1384
f 1388 1389 1391
f 1391 1389 1390
f 1378 1392 1365
f 1365 1392 1370
f 1374 1383 1375
f 1375 1383 1386
f 1380 1393 1381
f 1381 1393 1361
f 1394 1392 1362
f 1362 1392 1378
f 1389 1396 1395
f 1395 1396 1368
f 1398 1399 1397
f 1397 1399 1400
f 1388 1401 1389
f 1389 1401 1396
f 1402 1367 1396
f 1396 1367 1368
f 1395 1368 1369
f 1369 1368 1366
f 1359 1403 1360
f 1360 1403 1404
f 1377 1405 1359
f 1359 1405 1403
f 1369 1372 1395
f 1395 1372 1406
f 1379 1388 1376
f 1376 1388 1391
f 1359 1362 1377
f 1377 1362 1378
f 1363 1407 1364
f 1364 1407 1408
f 1393 1394 1361
f 1361 1394 1362
f 1365 1370 1366
f 1366 1370 1369
f 1360 1404 1409
f 1409 1404 1410
f 1402 1398 1411
f 1411 1398 1397
f 1399 1398 1382
f 1382 1398 1401
f 1409 1410 1399
f 1399 1410 1400
f 1388 1379 1401
f 1401 1379 1382
f 1367 1402 1412
f 1412 1402 1411
f 1364 1408 1377
f 1377 1408 1405
f 981 980 1406
f 1406 980 1390
f 1407 1363 1412
f 1412 1363 1367
f 1387 1371 1392
f 1392 1371 1370
f 1398 1402 1401
f 1401 1402 1396
f 1409 1399 1381
f 1381 1399 1382
f 1360 1409 1361
f 1361 1409 1381
f 1412 1411 1414
f 1414 1411 1413
f 1412 1414 1407
f 1407 1414 1415
f 1407 1415 1408
f 1408 1415 1416
f 1408 1416 1405
f 1405 1416 1417
f 1411 1397 1413
f 1413 1397 1418
f 1397 1400 1418
f 1418 1400 1419
f 1419 1400 1420
f 1420 1400 1410
f 1422 1413 1421
f 1421 1413 1418
f 1423 1424 1426
f 1426 1424 1425
f 1427 1428 1424
f 1424 1428 1425
f 1425 1428 1430
f 1430 1428 1429
f 1430 1431 1433
f 1433 1431 1432
f 1429 1434 1430
f 1430 1434 1431
f 1433 1426 1430
f 1430 1426 1425
f 1426 1435 1423
f 1423 1435 1436
f 1428 1427 1429
f 1429 1427 1437
f 1427 1415 1437
f 1437 1415 1414
f 1427 1438 1415
f 1415 1438 1416
f 1439 1438 1424
f 1424 1438 1427
f 1440 1439 1423
f 1423 1439 1424
f 1429 1437 1434
f 1434 1437 1422
f 1422 1437 1413
f 1413 1437 1414
f 1441 1440 1436
f 1436 1440 1423
f 1442 1439 1443
f 1443 1439 1440
f 1441 1444 1440
f 1440 1444 1443
f 1445 1442 1446
f 1446 1442 1443
f 1442 1445 1448
f 1448 1445 1447
f 1444 1449 1443
f 1443 1449 1446
f 1439 1442 1438
f 1438 1442 1448
f 1438 1448 1416
f 1416 1448 1417
f 1436 1450 1441
f 1441 1450 1451
f 1436 1435 1450
f 1450 1435 1452
f 1431 1434 1453
f 1453 1434 1422
f 1431 1453 1432
f 1432 1453 1454
f 1453 1422 1455
f 1455 1422 1421
f 1454 1453 1456
f 1456 1453 1455
f 1457 1458 1454
f 1454 1458 1432
f 1452 1458 1450
f 1450 1458 1457
f 1405 1417 1403
f 1403 1417 1459
f 1404 1460 1410
f 1410 1460 1420
f 1459 1460 1403
f 1403 1460 1404
f 1447 1461 1459
f 1459 1461 1460
f 1445 1462 1447
f 1447 1462 1461
f 1460 1461 1420
f 1420 1461 1463
f 1459 1417 1447
f 1447 1417 1448
f 1464 1419 1463
f 1463 1419 1420
f 1419 1464 1418
f 1418 1464 1421
f 1464 1465 1421
f 1421 1465 1455
f 1465 1464 1466
f 1466 1464 1463
f 1467 1465 1468
f 1468 1465 1466
f 1461 1462 1463
f 1463 1462 1466
f 1462 1469 1466
f 1466 1469 1468
f 1465 1467 1455
f 1455 1467 1456
f 1471 1456 1470
f 1470 1456 1467
f 1470 1473 1472
f 1472 1473 1474
f 1470 1467 1473
f 1473 1467 1468
f 1470 1472 1471
f 1471 1472 1451
f 1471 1451 1457
f 1457 1451 1450
f 1457 1454 1471
f 1471 1454 1456
f 1462 1445 1469
f 1469 1445 1446
f 1474 1469 1449
f 1449 1469 1446
f 1474 1473 1469
f 1469 1473 1468
f 1472 1474 1444
f 1444 1474 1449
f 1444 1441 1472
f 1472 1441 1451
f 1426 1433 1435
f 1435 1433 1452
f 1452 1433 1458
f 1458 1433 1432
f 1371 940 1372
f 1372 940 1068
f 1376 1375 1379
f 1379 1375 1380
f 1393 1386 1394
f 1394 1386 1385
f 1385 1387 1394
f 1394 1387 1392
f 1475 1373 1391
f 1391 1373 1376
f 1375 1386 1380
f 1380 1386 1393
f 1372 1068 1406
f 1406 1068 981
f 1406 1390 1395
f 1395 1390 1389
f 1371 1387 940
f 940 1387 978
f 883 807 1476
f 1476 807 1477
f 1046 904 1479
f 1479 904 1478
f 904 903 1478
f 1478 903 1480
f 1030 1481 1028
f 1028 1481 1482
f 810 1046 1483
f 1483 1046 1479
f 1066 883 1484
f 1484 883 1476
f 807 810 1477
f 1477 810 1483
f 1485 1029 1484
f 1484 1029 1066
f 1028 1482 903
f 903 1482 1480
f 1481 1030 1485
f 1485 1030 1029
f 1484 1486 1485
f 1485 1486 1487
f 1485 1487 1481
f 1481 1487 1488
f 1481 1488 1482
f 1482 1488 1489
f 1482 1489 1480
f 1480 1489 1490
f 1484 1476 1486
f 1486 1476 1491
f 1476 1477 1491
f 1491 1477 1492
f 1477 1483 1492
f 1492 1483 1493
f 1495 1486 1494
f 1494 1486 1491
f 1497 1498 1496
f 1496 1498 1499
f 1500 1501 1497
f 1497 1501 1498
f 1502 1503 1501
f 1501 1503 1498
f 1502 1504 1503
f 1503 1504 1505
f 1506 1499 1503
f 1503 1499 1498
f 1499 1506 1507
f 1507 1506 1508
f 1507 1509 1499
f 1499 1509 1496
f 1502 1501 1510
f 1510 1501 1500
f 1500 1488 1510
f 1510 1488 1487
f 1500 1511 1488
f 1488 1511 1489
f 1497 1512 1500
f 1500 1512 1511
f 1512 1497 1513
f 1513 1497 1496
f 1502 1510 1504
f 1504 1510 1495
f 1495 1510 1486
f 1486 1510 1487
f 1509 1514 1496
f 1496 1514 1513
f 1515 1512 1516
f 1516 1512 1513
f 1514 1517 1513
f 1513 1517 1516
f 1518 1515 1519
f 1519 1515 1516
f 1515 1518 1521
f 1521 1518 1520
f 1517 1522 1516
f 1516 1522 1519
f 1512 1515 1511
f 1511 1515 1521
f 1511 1521 1489
f 1489 1521 1490
f 1514 1509 1524
f 1524 1509 1523
f 1509 1507 1523
f 1523 1507 1508
f 1505 1504 1525
f 1525 1504 1495
f 1526 1505 1527
f 1527 1505 1525
f 1525 1495 1528
f 1528 1495 1494
f 1527 1525 1529
f 1529 1525 1528
f 1527 1530 1526
f 1526 1530 1531
f 1508 1531 1523
f 1523 1531 1530
f 1506 1503 1526
f 1526 1503 1505
f 1508 1506 1531
f 1531 1506 1526
f 1478 1480 1532
f 1532 1480 1490
f 1483 1479 1493
f 1493 1479 1533
f 1532 1533 1478
f 1478 1533 1479
f 1520 1534 1532
f 1532 1534 1533
f 1518 1535 1520
f 1520 1535 1534
f 1533 1534 1493
f 1493 1534 1536
f 1532 1490 1520
f 1520 1490 1521
f 1537 1492 1536
f 1536 1492 1493
f 1492 1537 1491
f 1491 1537 1494
f 1537 1538 1494
f 1494 1538 1528
f 1538 1537 1539
f 1539 1537 1536
f 1540 1538 1541
f 1541 1538 1539
f 1534 1535 1536
f 1536 1535 1539
f 1535 1542 1539
f 1539 1542 1541
f 1538 1540 1528
f 1528 1540 1529
f 1544 1529 1543
f 1543 1529 1540
f 1545 1543 1547
f 1547 1543 1546
f 1543 1540 1546
f 1546 1540 1541
f 1543 1545 1544
f 1544 1545 1524
f 1544 1524 1530
f 1530 1524 1523
f 1530 1527 1544
f 1544 1527 1529
f 1535 1518 1542
f 1542 1518 1519
f 1547 1542 1522
f 1522 1542 1519
f 1547 1546 1542
f 1542 1546 1541
f 1545 1547 1517
f 1517 1547 1522
f 1517 1514 1545
f 1545 1514 1524
f 997 995 986
f 986 995 987
f 987 995 988
f 988 995 971
f 976 1358 977
f 977 1358 1289
f 854 853 1067
f 1067 853 1050
f 1055 985 1069
f 1069 985 962
f 1068 961 981
f 981 961 862
f 1268 1358 920
f 920 1358 976
f 920 976 921
f 921 976 975
f 927 1054 850
f 850 1054 851
f 882 881 1057
f 1057 881 1548
f 1548 1374 1057
f 1057 1374 1373
f 1383 1374 1549
f 1549 1374 1548
f 1549 1548 1550
f 1550 1548 881
f 1550 881 1551
f 1551 881 880
f 933 1552 879
f 879 1552 880
f 1551 880 875
f 875 880 1552
f 1553 1551 878
f 878 1551 875
f 1551 1553 1550
f 1550 1553 1554
f 1550 1554 1549
f 1549 1554 1555
f 978 1384 975
f 975 1384 1555
f 967 849 1556
f 1556 849 852
f 875 1552 876
f 876 1552 933
f 961 939 962
f 962 939 1069
f 1555 1054 975
f 975 1054 921
f 1555 1384 1549
f 1549 1384 1383
f 1391 1390 1475
f 1475 1390 980
f 1373 1475 1057
f 1057 1475 980
f 851 1054 1554
f 1554 1054 1555
f 1554 1553 851
f 851 1553 852
f 878 1556 1553
f 1553 1556 852
f 1556 878 967
f 967 878 877
f 1023 1020 877
f 877 1020 967
f 909 811 1034
f 806 779 873
f 873 779 840
f 805 780 806
f 806 780 779
f 1043 893 1044
f 1044 893 892
f 873 840 847
f 847 840 842
f 840 839 842
f 842 839 843
f 839 791 843
f 843 791 908
f 791 790 908
f 908 790 792
f 809 789 810
f 810 789 1046
f 793 790 809
f 809 790 789
f 809 808 793
f 793 808 1009
f 808 884 1009
f 1009 884 1010
f 1065 1015 884
f 884 1015 1010
f 1032 868 1065
f 1065 868 1015
f 1031 822 1032
f 1032 822 868
f 1031 1027 822
f 822 1027 785
f 1045 905 1046
f 1046 905 904
f 788 781 1019
f 1019 781 894
f 781 780 894
f 894 780 892
f 780 805 892
f 892 805 1044
f 805 804 1044
f 1044 804 891
f 804 1064 891
f 891 1064 888
f 1064 1021 888
f 888 1021 1033
f 1021 1020 1033
f 1033 1020 1034
f 1020 1023 1034
f 1034 1023 909
f 1023 1022 909
f 909 1022 910
f 1043 815 893
f 893 815 819
f 819 815 820
f 820 815 818
f 870 869 818
f 818 869 820
f 1014 1011 870
f 870 1011 869
f 969 972 1014
f 1014 972 1011
f 1036 1063 1022
f 1022 1063 910
f 1035 833 1036
f 1036 833 1063
f 1035 932 979
f 979 932 963
f 834 979 982
f 982 979 958
f 833 1035 834
f 834 1035 979
f 982 863 834
f 834 863 830
f 864 900 831
f 831 900 857
f 990 993 864
f 864 993 900
f 989 994 990
f 990 994 993
f 970 1058 989
f 989 1058 994
f 969 1018 970
f 970 1018 1058
f 1027 902 785
f 785 902 786
f 902 905 786
f 786 905 1019
f 905 1045 1019
f 1019 1045 788
f 788 1045 787
f 787 1045 789
