o hand_left
v 0.037424 -0.082049 0.687352
v 0.027290 -0.082325 0.682936
v 0.033149 -0.074210 0.686202
v 0.042747 -0.074357 0.688922
v 0.014189 -0.066882 0.678454
v 0.011847 -0.060488 0.668161
v 0.024086 -0.052751 0.676324
v 0.023495 -0.059402 0.684248
v 0.048800 -0.069440 0.689031
v 0.038439 -0.068200 0.688738
v 0.052833 -0.069209 0.685039
v 0.064195 -0.072799 0.682676
v 0.058938 -0.071488 0.688236
v 0.071586 -0.075248 0.684913
v 0.064059 -0.078350 0.672755
v 0.074957 -0.083587 0.681224
v 0.056819 -0.105964 0.673749
v 0.049947 -0.116491 0.678673
v 0.062756 -0.116162 0.690261
v 0.068052 -0.104751 0.684637
v 0.046316 -0.127868 0.696098
v 0.056049 -0.121562 0.693459
v 0.043931 -0.122740 0.681227
v 0.035779 -0.128222 0.684273
v 0.027704 -0.094575 0.687979
v 0.018089 -0.095422 0.682679
v 0.021719 -0.091369 0.681618
v 0.030862 -0.090345 0.686684
v 0.053658 -0.061698 0.679034
v 0.053176 -0.066947 0.669082
v 0.055595 -0.069191 0.676490
v 0.051868 -0.062976 0.684281
v -0.009789 -0.099427 0.676135
v -0.015573 -0.102678 0.664317
v -0.012771 -0.098574 0.661090
v -0.007843 -0.096835 0.672416
v -0.002002 -0.077793 0.657303
v -0.005316 -0.085620 0.650314
v -0.001077 -0.084762 0.637206
v 0.005256 -0.078267 0.642390
v 0.004166 -0.068209 0.663364
v 0.009122 -0.067656 0.650142
v 0.016756 -0.058862 0.657509
v 0.028512 -0.050490 0.668309
v -0.020086 -0.113544 0.669575
v -0.016861 -0.112405 0.679225
v 0.083408 -0.066347 0.723576
v 0.080122 -0.070993 0.725938
v 0.080033 -0.071714 0.724806
v 0.083333 -0.067100 0.722650
v -0.011764 -0.131788 0.672684
v -0.005300 -0.137468 0.667359
v -0.011681 -0.137554 0.663782
v -0.017210 -0.130871 0.667483
v -0.004552 -0.132888 0.679547
v 0.003456 -0.136570 0.672411
v 0.095052 -0.066050 0.729114
v 0.091392 -0.063457 0.726325
v 0.093570 -0.065622 0.723586
v 0.097392 -0.069285 0.725539
v 0.052337 -0.074076 0.691253
v 0.045694 -0.080592 0.692552
v 0.065895 -0.075719 0.702078
v 0.058354 -0.078707 0.698111
v 0.061111 -0.074030 0.693666
v 0.067818 -0.072587 0.696708
v 0.044270 -0.096957 0.703608
v 0.035382 -0.097197 0.695906
v 0.039736 -0.092440 0.694450
v 0.049807 -0.090375 0.702479
v 0.026064 -0.105775 0.702391
v 0.035806 -0.105151 0.709192
v 0.029384 -0.110107 0.712064
v 0.023089 -0.108990 0.707262
v 0.054177 -0.102375 0.718525
v 0.060025 -0.102637 0.722019
v 0.058494 -0.104224 0.724500
v 0.051770 -0.104805 0.719747
v -0.017248 -0.138040 0.659379
v -0.021758 -0.129648 0.661895
v 0.028761 -0.137519 0.704696
v 0.018012 -0.136516 0.707693
v 0.025950 -0.137836 0.718625
v 0.035707 -0.138910 0.712360
v 0.003174 -0.137397 0.661303
v -0.003627 -0.139770 0.658137
v 0.096252 -0.071422 0.732530
v 0.098754 -0.074635 0.729341
v 0.024066 -0.065577 0.648309
v 0.034993 -0.053624 0.661450
v 0.016257 -0.076789 0.640170
v 0.011436 -0.085639 0.635072
v 0.006368 -0.090538 0.629627
v 0.058717 -0.082981 0.703418
v 0.039380 -0.087435 0.691280
v 0.024549 -0.098058 0.689817
v 0.006871 -0.115640 0.708090
v -0.001187 -0.115014 0.701232
v 0.006292 -0.107504 0.699518
v 0.012124 -0.110054 0.705556
v 0.012088 -0.130779 0.713185
v 0.012554 -0.123048 0.715513
v 0.019232 -0.124148 0.721567
v 0.019657 -0.131900 0.721129
v 0.053903 -0.056258 0.673890
v 0.049983 -0.064096 0.662899
v -0.016548 -0.123072 0.676422
v -0.020179 -0.121382 0.669685
v -0.024136 -0.122232 0.662207
v 0.004089 -0.095962 0.679071
v -0.006610 -0.094844 0.669881
v -0.004534 -0.091049 0.668501
v 0.006270 -0.094448 0.677453
v 0.015637 -0.080678 0.680009
v 0.004783 -0.076895 0.672971
v 0.022789 -0.072403 0.685336
v -0.010274 -0.093072 0.655500
v -0.018869 -0.099458 0.652849
v -0.014709 -0.093899 0.647211
v -0.022516 -0.107362 0.657430
v -0.024630 -0.115296 0.660974
v -0.009005 -0.143615 0.652719
v -0.009425 -0.089838 0.642025
v 0.030857 -0.055142 0.687743
v 0.037621 -0.051619 0.690959
v 0.040876 -0.058407 0.692643
v 0.035139 -0.062096 0.690280
v 0.079025 -0.076102 0.690078
v 0.073122 -0.072084 0.693665
v 0.065802 -0.071931 0.688334
v -0.004714 -0.102619 0.686134
v -0.011101 -0.113340 0.688419
v 0.066781 -0.080256 0.707132
v 0.097441 -0.071785 0.720626
v 0.093396 -0.067329 0.719165
v 0.086188 -0.072160 0.703413
v 0.090894 -0.077334 0.704149
v 0.074459 -0.086071 0.712826
v 0.070422 -0.081055 0.710472
v 0.072376 -0.081862 0.712154
v 0.075390 -0.086557 0.715766
v 0.050776 -0.109254 0.726031
v 0.044827 -0.109643 0.721803
v 0.077079 -0.101764 0.697735
v 0.082594 -0.093498 0.687844
v 0.072916 -0.094701 0.679967
v 0.039108 -0.101847 0.705997
v 0.046664 -0.102168 0.713308
v 0.044089 -0.105025 0.714922
v 0.060560 -0.085707 0.707032
v 0.067364 -0.085086 0.710523
v 0.063849 -0.088585 0.710706
v 0.057124 -0.089796 0.707882
v 0.009884 -0.136333 0.697126
v 0.002849 -0.129873 0.703873
v 0.087335 -0.063632 0.724048
v 0.088310 -0.064780 0.722333
v 0.030491 -0.101959 0.698400
v 0.060909 -0.095524 0.671323
v 0.020926 -0.101540 0.692098
v 0.050809 -0.128307 0.718004
v 0.046363 -0.124966 0.724043
v 0.050231 -0.122466 0.728027
v 0.055044 -0.125391 0.725415
v 0.081671 -0.083445 0.727559
v 0.078485 -0.078480 0.726947
v 0.079818 -0.077495 0.727547
v 0.083117 -0.081970 0.730149
v 0.070048 -0.076258 0.707009
v 0.072127 -0.072161 0.702283
v 0.074661 -0.072060 0.707639
v 0.072844 -0.076939 0.710642
v 0.077696 -0.071625 0.699315
v 0.080090 -0.070474 0.704497
v 0.087978 -0.085887 0.727591
v 0.095323 -0.083206 0.726303
v 0.088495 -0.089544 0.711124
v 0.082514 -0.089673 0.715879
v 0.026365 -0.129579 0.672391
v 0.018127 -0.134768 0.677900
v 0.027356 -0.133712 0.689870
v 0.036727 -0.133983 0.701513
v 0.045611 -0.132745 0.712284
v 0.055320 -0.128783 0.705953
v 0.020329 -0.136803 0.692840
v 0.076241 -0.093513 0.709865
v 0.082514 -0.093956 0.702173
v 0.078245 -0.097882 0.705192
v 0.015989 -0.104962 0.696560
v 0.087861 -0.065701 0.719285
v 0.019031 -0.107904 0.634544
v 0.016714 -0.120175 0.639523
v 0.022971 -0.116838 0.644711
v 0.025161 -0.102578 0.639642
v 0.078525 -0.071764 0.724533
v 0.081760 -0.067032 0.721146
v 0.041399 -0.113768 0.725747
v 0.047508 -0.113220 0.728763
v 0.047935 -0.116667 0.730418
v 0.040801 -0.117186 0.730217
v 0.012767 -0.136643 0.679841
v 0.030132 -0.135804 0.726868
v 0.038904 -0.137543 0.720492
v 0.010407 -0.135493 0.667260
v 0.017763 -0.131511 0.662120
v 0.011229 -0.133271 0.655054
v 0.066841 -0.118355 0.706452
v 0.033335 -0.124825 0.670190
v 0.023345 -0.126773 0.659743
v 0.015799 -0.128662 0.651180
v 0.010379 -0.130930 0.645215
v 0.005853 -0.135647 0.650120
v 0.097935 -0.077719 0.723744
v 0.095760 -0.080600 0.732623
v 0.000439 -0.139792 0.644058
v 0.005409 -0.133773 0.638995
v 0.028967 -0.120217 0.656469
v 0.034701 -0.111102 0.652909
v 0.038285 -0.118452 0.666822
v 0.044951 -0.109480 0.664065
v 0.073253 -0.115063 0.698214
v 0.083077 -0.073211 0.743336
v 0.087629 -0.079933 0.736363
v 0.082694 -0.079725 0.733070
v 0.079494 -0.074552 0.741218
v 0.088585 -0.083327 0.732071
v 0.092898 -0.077300 0.735966
v 0.049115 -0.095858 0.660721
v 0.069780 -0.088793 0.713877
v 0.036681 -0.093854 0.648875
v 0.055463 -0.079886 0.662039
v 0.044943 -0.076834 0.654499
v 0.023751 -0.089337 0.637221
v 0.032072 -0.076161 0.644476
v 0.011944 -0.099854 0.627948
v 0.018117 -0.096081 0.633092
v 0.039347 -0.063947 0.653987
v 0.077757 -0.064271 0.730087
v 0.075649 -0.069538 0.732255
v 0.013620 -0.111097 0.629007
v 0.029859 -0.066288 0.688379
v 0.007892 -0.102174 0.689710
v 0.012032 -0.099853 0.686606
v -0.005381 -0.114382 0.696411
v 0.001530 -0.105294 0.693513
v 0.081950 -0.060596 0.730491
v 0.064381 -0.105610 0.723924
v 0.063157 -0.106186 0.723329
v 0.031045 -0.048893 0.681793
v 0.036916 -0.046260 0.685543
v 0.046483 -0.045320 0.676470
v 0.040950 -0.043504 0.680704
v 0.035238 -0.046342 0.674623
v 0.040936 -0.048372 0.669660
v 0.002472 -0.097184 0.680843
v 0.000261 -0.099314 0.683355
v 0.001942 -0.134661 0.688011
v -0.004306 -0.127941 0.695101
v 0.082955 -0.074941 0.696945
v 0.083128 -0.083132 0.688925
v 0.086762 -0.080839 0.696738
v 0.091020 -0.084508 0.705252
v 0.074349 -0.090524 0.714079
v 0.078592 -0.090540 0.710736
v -0.000312 -0.084588 0.670693
v 0.010265 -0.089246 0.677297
v 0.042134 -0.065244 0.689116
v 0.046495 -0.062828 0.690337
v 0.051512 -0.095621 0.709026
v 0.072670 -0.112710 0.715039
v 0.077625 -0.109606 0.708369
v 0.059182 -0.095365 0.713877
v 0.088049 -0.060628 0.736585
v 0.084972 -0.059521 0.732749
v 0.087102 -0.088111 0.697344
v 0.037694 -0.109472 0.718309
v 0.066392 -0.116330 0.714687
v 0.068922 -0.110858 0.721190
v 0.023400 -0.130834 0.726104
v 0.010654 -0.122639 0.633437
v 0.079168 -0.076525 0.729668
v 0.075859 -0.073791 0.735487
v 0.086796 -0.070799 0.743013
v 0.089686 -0.065901 0.739872
v -0.010156 -0.124561 0.686435
v 0.015029 -0.098209 0.684902
v 0.045524 -0.055945 0.663697
v 0.050949 -0.050566 0.673608
v 0.063589 -0.095518 0.716677
v 0.044639 -0.131282 0.720576
v 0.059599 -0.126469 0.714622
v 0.063649 -0.123859 0.723165
v 0.067858 -0.117477 0.723085
v 0.067579 -0.110262 0.724729
v 0.082368 -0.068138 0.746749
v 0.085277 -0.062912 0.744047
v 0.083864 -0.057934 0.740198
v 0.081791 -0.057330 0.735721
v 0.079509 -0.059624 0.732535
v 0.078520 -0.070901 0.746148
v 0.075654 -0.072145 0.743349
v 0.074279 -0.072507 0.737135
v 0.073878 -0.069401 0.746782
v 0.074631 -0.064655 0.749406
v 0.070152 -0.052891 0.742179
v 0.075935 -0.054845 0.743410
v 0.073582 -0.055230 0.745242
v 0.068616 -0.053777 0.745007
v 0.063466 -0.052948 0.746171
v 0.064432 -0.051653 0.742968
v 0.075510 -0.059077 0.747496
v 0.068596 -0.057595 0.747828
v 0.067580 -0.061619 0.748976
v 0.062213 -0.059722 0.749763
v 0.062966 -0.056064 0.748961
v 0.072377 -0.062273 0.749048
v 0.078392 -0.059618 0.747526
v 0.060038 -0.052385 0.744704
v 0.060580 -0.052890 0.747162
v 0.059731 -0.055567 0.749068
v 0.057020 -0.055523 0.747487
v 0.077402 -0.055436 0.737559
v 0.069624 -0.053053 0.739554
v 0.063439 -0.053280 0.740386
v 0.059253 -0.053934 0.742412
v 0.067066 -0.055582 0.737365
v 0.062516 -0.055730 0.738886
v 0.058969 -0.056806 0.740652
v 0.064836 -0.059301 0.736454
v 0.061350 -0.058778 0.738450
v 0.074822 -0.062071 0.732873
v 0.077185 -0.058517 0.733668
v 0.058988 -0.058662 0.739503
v 0.056170 -0.056895 0.745907
v 0.068117 -0.065319 0.748586
v 0.061370 -0.062597 0.748517
v 0.067286 -0.067123 0.747073
v 0.060660 -0.064602 0.747476
v 0.057484 -0.060173 0.749217
v 0.059408 -0.058509 0.749697
v 0.076793 -0.064108 0.731528
v 0.074762 -0.069569 0.733595
v 0.073105 -0.068075 0.734524
v 0.063727 -0.064035 0.737526
v 0.072105 -0.071001 0.737805
v 0.071484 -0.070611 0.743641
v 0.065299 -0.067878 0.744767
v 0.064016 -0.067548 0.741448
v 0.060372 -0.065410 0.745007
v 0.060314 -0.064873 0.742471
v 0.060219 -0.062237 0.739461
v 0.057357 -0.062578 0.744686
v 0.057076 -0.061551 0.747477
v 0.056804 -0.059003 0.743247
v 0.058078 -0.063073 0.742938
v 0.058222 -0.060374 0.741438
v 0.073347 -0.087521 0.740797
v 0.069889 -0.092492 0.743565
v 0.073321 -0.093256 0.741722
v 0.076349 -0.089216 0.739431
v 0.086349 -0.087521 0.747134
v 0.081691 -0.084795 0.743572
v 0.086412 -0.087786 0.740922
v 0.090364 -0.092299 0.744252
v 0.086860 -0.093656 0.751034
v 0.090044 -0.098616 0.747298
v 0.091020 -0.094727 0.738569
v 0.086374 -0.089451 0.736304
v 0.079306 -0.093891 0.717281
v 0.083403 -0.099491 0.717540
v 0.064599 -0.100579 0.724885
v 0.066320 -0.104046 0.726243
v 0.076927 -0.085321 0.741266
v 0.080824 -0.087188 0.739355
v 0.071413 -0.101377 0.743031
v 0.070026 -0.096334 0.741350
v 0.071016 -0.097246 0.743749
v 0.072956 -0.101240 0.747144
v 0.071168 -0.091863 0.718897
v 0.067312 -0.096193 0.721435
v 0.075015 -0.091782 0.718061
v 0.076548 -0.105753 0.744570
v 0.083493 -0.106767 0.744332
v 0.078133 -0.111270 0.724548
v 0.072442 -0.110260 0.727205
v 0.081245 -0.087505 0.736028
v 0.072176 -0.091098 0.739623
v 0.075684 -0.087816 0.737195
v 0.089248 -0.101961 0.740658
v 0.083703 -0.103025 0.750721
v 0.068411 -0.091815 0.760114
v 0.074614 -0.099711 0.753853
v 0.070494 -0.098956 0.750734
v 0.064090 -0.092153 0.757404
v 0.077552 -0.103333 0.749861
v 0.080409 -0.098181 0.754156
v 0.063982 -0.081563 0.747849
v 0.060894 -0.086808 0.750299
v 0.067476 -0.078491 0.748285
v 0.082784 -0.106709 0.719923
v 0.076461 -0.079742 0.753808
v 0.071475 -0.077709 0.749802
v 0.068504 -0.096874 0.746406
v 0.060889 -0.090461 0.753896
v 0.072552 -0.089847 0.760676
v 0.077715 -0.085370 0.757562
v 0.068856 -0.085447 0.763426
v 0.072701 -0.080913 0.760874
v 0.071989 -0.075951 0.756452
v 0.068407 -0.075526 0.751802
v 0.065453 -0.077375 0.749752
v 0.064979 -0.087719 0.762841
v 0.061243 -0.088934 0.759907
v 0.059677 -0.088403 0.755011
v 0.058403 -0.084303 0.763286
v 0.060923 -0.080677 0.765058
v 0.052923 -0.066311 0.755719
v 0.058503 -0.068778 0.756050
v 0.057984 -0.069203 0.758610
v 0.052844 -0.067029 0.758469
v 0.064046 -0.071062 0.758252
v 0.062078 -0.071259 0.759872
v 0.062138 -0.074875 0.762959
v 0.056377 -0.072447 0.761861
v 0.054903 -0.076735 0.763688
v 0.049754 -0.073994 0.763950
v 0.051054 -0.069581 0.762439
v 0.059388 -0.077360 0.764332
v 0.049308 -0.066226 0.759073
v 0.047444 -0.065953 0.757285
v 0.065361 -0.075764 0.763465
v 0.065615 -0.073093 0.752907
v 0.057552 -0.069305 0.753080
v 0.051157 -0.067468 0.753158
v 0.045514 -0.067861 0.755833
v 0.054870 -0.071747 0.750801
v 0.049264 -0.069863 0.751945
v 0.045032 -0.070323 0.754733
v 0.052038 -0.075579 0.750046
v 0.047001 -0.073495 0.751942
v 0.061266 -0.080241 0.749176
v 0.063670 -0.076038 0.749616
v 0.045292 -0.072500 0.753682
v 0.045158 -0.067938 0.761085
v 0.043276 -0.069663 0.758886
v 0.046937 -0.068083 0.761695
v 0.054069 -0.078730 0.763853
v 0.048297 -0.075564 0.763276
v 0.052310 -0.080803 0.762776
v 0.046436 -0.076805 0.762254
v 0.044767 -0.072295 0.762939
v 0.046027 -0.071196 0.763292
v 0.062894 -0.080971 0.749608
v 0.060365 -0.085709 0.751723
v 0.059045 -0.085132 0.751311
v 0.050097 -0.079961 0.752658
v 0.058050 -0.087692 0.755290
v 0.057191 -0.086401 0.760323
v 0.051193 -0.082446 0.760658
v 0.049763 -0.082311 0.756828
v 0.045447 -0.078414 0.761129
v 0.046048 -0.079416 0.758063
v 0.045927 -0.077060 0.753807
v 0.042611 -0.074698 0.760462
v 0.043504 -0.073175 0.762046
v 0.043139 -0.071387 0.757461
v 0.043470 -0.076450 0.758201
v 0.043824 -0.073894 0.755549
v 0.059981 -0.101931 0.744864
v 0.055894 -0.105908 0.746751
v 0.057256 -0.107104 0.745194
v 0.061715 -0.103731 0.743935
v 0.070627 -0.103639 0.751625
v 0.068034 -0.100631 0.748639
v 0.070812 -0.103852 0.745936
v 0.073864 -0.107903 0.747618
v 0.068970 -0.107250 0.755870
v 0.073369 -0.113156 0.750578
v 0.074695 -0.110635 0.742913
v 0.071633 -0.105503 0.742597
v 0.068628 -0.109415 0.729075
v 0.070827 -0.115608 0.729571
v 0.064063 -0.100415 0.746089
v 0.066019 -0.102704 0.744380
v 0.054606 -0.113507 0.747495
v 0.054555 -0.108945 0.745565
v 0.055337 -0.111222 0.748205
v 0.056671 -0.114422 0.751347
v 0.058592 -0.105356 0.728171
v 0.054070 -0.109364 0.729160
v 0.063724 -0.105878 0.728985
v 0.059270 -0.118139 0.748953
v 0.066462 -0.120265 0.748342
v 0.060241 -0.123988 0.734326
v 0.054798 -0.121276 0.734602
v 0.067128 -0.103035 0.742226
v 0.056803 -0.104746 0.743080
v 0.061685 -0.102176 0.741894
v 0.072281 -0.116482 0.744841
v 0.067459 -0.116561 0.753901
v 0.052091 -0.102766 0.765459
v 0.059871 -0.114014 0.756882
v 0.055365 -0.112855 0.753211
v 0.048679 -0.103516 0.762615
v 0.061092 -0.116601 0.754034
v 0.065022 -0.112268 0.757754
v 0.050938 -0.093912 0.751916
v 0.047975 -0.098317 0.754006
v 0.055221 -0.092403 0.752657
v 0.067887 -0.121914 0.731403
v 0.051388 -0.115836 0.732670
v 0.060292 -0.092351 0.758481
v 0.057917 -0.091689 0.754746
v 0.054391 -0.110261 0.749811
v 0.046875 -0.102259 0.758347
v 0.056828 -0.100881 0.765846
v 0.061033 -0.096856 0.762720
v 0.052504 -0.096995 0.768083
v 0.056540 -0.092650 0.764991
v 0.056454 -0.088913 0.760114
v 0.054440 -0.089401 0.755707
v 0.052169 -0.090784 0.753493
v 0.048071 -0.099708 0.766763
v 0.045748 -0.100903 0.763708
v 0.046543 -0.101255 0.758620
v 0.044253 -0.097643 0.766725
v 0.046460 -0.092762 0.768379
v 0.037728 -0.080908 0.758237
v 0.043392 -0.083309 0.758662
v 0.043115 -0.083610 0.759821
v 0.037601 -0.080997 0.759991
v 0.049781 -0.085591 0.761062
v 0.047792 -0.085262 0.761774
v 0.047818 -0.087589 0.765179
v 0.041456 -0.085164 0.764687
v 0.039496 -0.090686 0.766592
v 0.034834 -0.087864 0.765828
v 0.036228 -0.082561 0.764364
v 0.045296 -0.090894 0.767318
v 0.034356 -0.080153 0.760621
v 0.033922 -0.078956 0.759180
v 0.050420 -0.088667 0.765978
v 0.050330 -0.086678 0.756153
v 0.043188 -0.083745 0.755637
v 0.037508 -0.081335 0.755107
v 0.033064 -0.080974 0.756203
v 0.041640 -0.086453 0.753323
v 0.036712 -0.084057 0.753686
v 0.032767 -0.083650 0.754810
v 0.039911 -0.089343 0.752851
v 0.035696 -0.087163 0.753560
v 0.048126 -0.093241 0.752846
v 0.049522 -0.089629 0.753494
v 0.032990 -0.086005 0.754667
v 0.031126 -0.081122 0.762472
v 0.029326 -0.083732 0.759639
v 0.032720 -0.081616 0.763004
v 0.039288 -0.092526 0.766944
v 0.033113 -0.089447 0.765917
v 0.038146 -0.094832 0.765623
v 0.032210 -0.091636 0.764652
v 0.030554 -0.085806 0.764914
v 0.031652 -0.085297 0.764984
v 0.049791 -0.093736 0.752918
v 0.047547 -0.098153 0.754771
v 0.046308 -0.097669 0.754599
v 0.037560 -0.093469 0.754509
v 0.045059 -0.100573 0.758374
v 0.042321 -0.099024 0.763568
v 0.037161 -0.095955 0.762528
v 0.036434 -0.095725 0.758605
v 0.032087 -0.092843 0.762076
v 0.033133 -0.093178 0.759384
v 0.033746 -0.090779 0.754969
v 0.030030 -0.089355 0.760813
v 0.029547 -0.087768 0.763328
v 0.029907 -0.086039 0.757494
v 0.030917 -0.090458 0.758710
v 0.031022 -0.087925 0.756231
v 0.051475 -0.112628 0.730873
v 0.038441 -0.109003 0.747421
v 0.035295 -0.111479 0.749108
v 0.036072 -0.111938 0.749491
v 0.039327 -0.109963 0.746717
v 0.049198 -0.111999 0.751161
v 0.045967 -0.108870 0.748940
v 0.048403 -0.111715 0.746730
v 0.051165 -0.115343 0.748555
v 0.048932 -0.116757 0.754170
v 0.049784 -0.120044 0.752234
v 0.050404 -0.117890 0.745583
v 0.048401 -0.113895 0.743894
v 0.045687 -0.122380 0.729260
v 0.045794 -0.127952 0.729059
v 0.026566 -0.128526 0.731500
v 0.026008 -0.123349 0.729326
v 0.029271 -0.121741 0.737806
v 0.029501 -0.126494 0.738936
v 0.042200 -0.108231 0.747645
v 0.043739 -0.109771 0.745656
v 0.034895 -0.120352 0.753839
v 0.034124 -0.116009 0.751301
v 0.034091 -0.114808 0.752083
v 0.033930 -0.118259 0.755718
v 0.029679 -0.119259 0.728715
v 0.034557 -0.117745 0.728315
v 0.035460 -0.116427 0.732139
v 0.032261 -0.118020 0.736277
v 0.041254 -0.117275 0.731273
v 0.038292 -0.123541 0.754424
v 0.044071 -0.125112 0.753114
v 0.035430 -0.134326 0.736422
v 0.031584 -0.131336 0.737743
v 0.044976 -0.111288 0.744917
v 0.036161 -0.112774 0.748073
v 0.039975 -0.110748 0.746988
v 0.049066 -0.123036 0.748498
v 0.043873 -0.121739 0.756307
v 0.034990 -0.114011 0.762156
v 0.037169 -0.119180 0.758617
v 0.033481 -0.117697 0.755894
v 0.032193 -0.114157 0.759948
v 0.037731 -0.120651 0.757382
v 0.042702 -0.118474 0.758260
v 0.034876 -0.106281 0.749721
v 0.031892 -0.109957 0.752634
v 0.037954 -0.104643 0.749733
v 0.042197 -0.132949 0.731555
v 0.043989 -0.105290 0.754405
v 0.040753 -0.103882 0.751525
v 0.033552 -0.114273 0.752186
v 0.030758 -0.112749 0.756339
v 0.039736 -0.112183 0.762352
v 0.044568 -0.109537 0.758550
v 0.037275 -0.108048 0.763625
v 0.041853 -0.105461 0.759846
v 0.040633 -0.102280 0.754233
v 0.038178 -0.103201 0.751056
v 0.035738 -0.104818 0.749604
v 0.032860 -0.110961 0.763106
v 0.030818 -0.112025 0.761094
v 0.030302 -0.111949 0.757069
v 0.030474 -0.107734 0.763674
v 0.032420 -0.103292 0.762883
v 0.025092 -0.097083 0.753489
v 0.029144 -0.098625 0.753060
v 0.029182 -0.098365 0.754263
v 0.025413 -0.096442 0.754325
v 0.034611 -0.099887 0.754128
v 0.033158 -0.099398 0.755320
v 0.034474 -0.100645 0.758621
v 0.029337 -0.098376 0.758608
v 0.027103 -0.101420 0.762524
v 0.023415 -0.099261 0.762098
v 0.025822 -0.096531 0.758912
v 0.031739 -0.101825 0.761966
v 0.023167 -0.094994 0.755472
v 0.021919 -0.094809 0.754748
v 0.037021 -0.101267 0.759087
v 0.033978 -0.102129 0.750664
v 0.027602 -0.099516 0.751013
v 0.022934 -0.097286 0.752093
v 0.019882 -0.096098 0.754404
v 0.026836 -0.101802 0.750119
v 0.021658 -0.099096 0.751325
v 0.018870 -0.098079 0.753707
v 0.025369 -0.104845 0.750656
v 0.020961 -0.101545 0.751903
v 0.030581 -0.107940 0.750322
v 0.032172 -0.104809 0.749461
v 0.019038 -0.099843 0.753691
v 0.020719 -0.094962 0.758584
v 0.018620 -0.096903 0.757461
v 0.022357 -0.094978 0.759195
v 0.026587 -0.102571 0.763209
v 0.022010 -0.100142 0.762619
v 0.025409 -0.104683 0.763225
v 0.020649 -0.101736 0.761959
v 0.020034 -0.097482 0.761169
v 0.021961 -0.097010 0.761161
v 0.032534 -0.107276 0.750228
v 0.031072 -0.109703 0.752792
v 0.029146 -0.110346 0.753671
v 0.024064 -0.107508 0.753799
v 0.028770 -0.111594 0.758333
v 0.029245 -0.110253 0.762060
v 0.024157 -0.106662 0.761672
v 0.023319 -0.108014 0.758574
v 0.019647 -0.102902 0.760368
v 0.019487 -0.104365 0.757669
v 0.019905 -0.103921 0.754255
v 0.018059 -0.099944 0.758436
v 0.018425 -0.098680 0.759834
v 0.017972 -0.098659 0.756466
v 0.018101 -0.101301 0.757033
v 0.018324 -0.100728 0.755426
v 0.029258 -0.131435 0.732624
v 0.060137 -0.051194 0.686123
v 0.059072 -0.055617 0.689516
v 0.047371 -0.050397 0.699749
v 0.052157 -0.055427 0.698630
v 0.045735 -0.044017 0.697838
v 0.049555 -0.038308 0.689287
v 0.046142 -0.040346 0.693265
v 0.056394 -0.057234 0.694739
v 0.058824 -0.045814 0.683810
v 0.054374 -0.040144 0.684616
v 0.065492 -0.043434 0.689175
v 0.060690 -0.037011 0.690350
v 0.055817 -0.034397 0.694766
v 0.050511 -0.037690 0.698633
v 0.048697 -0.041395 0.701703
v 0.064191 -0.050375 0.691372
v 0.062200 -0.054582 0.694456
v 0.057578 -0.056011 0.698980
v 0.068118 -0.050837 0.698735
v 0.071828 -0.044111 0.705376
v 0.066469 -0.033452 0.720998
v 0.062714 -0.034200 0.715233
v 0.065493 -0.034532 0.714479
v 0.068772 -0.033298 0.719638
v 0.062558 -0.034429 0.709512
v 0.064681 -0.035385 0.710238
v 0.068025 -0.038314 0.707289
v 0.070842 -0.037389 0.712320
v 0.071168 -0.042462 0.707632
v 0.073142 -0.043124 0.711429
v 0.073821 -0.036550 0.717126
v 0.072293 -0.033132 0.721727
v 0.076080 -0.035975 0.721383
v 0.070713 -0.034043 0.724422
v 0.069071 -0.036722 0.705015
v 0.055903 -0.035323 0.707142
v 0.059165 -0.035433 0.715483
v 0.063591 -0.035631 0.722249
v 0.068861 -0.036459 0.725749
v 0.056694 -0.039140 0.716432
v 0.061678 -0.039688 0.722036
v 0.066728 -0.040978 0.724795
v 0.056684 -0.044149 0.716521
v 0.061982 -0.043684 0.721200
v 0.050709 -0.046621 0.705826
v 0.051056 -0.039980 0.706509
v 0.065766 -0.043238 0.723228
v 0.076284 -0.037053 0.724158
v 0.074183 -0.039860 0.725484
v 0.073488 -0.046446 0.710382
v 0.076384 -0.042221 0.715757
v 0.076047 -0.045292 0.716119
v 0.071842 -0.050122 0.709587
v 0.074833 -0.047879 0.716735
v 0.077790 -0.042185 0.720786
v 0.077532 -0.039830 0.719062
v 0.048911 -0.047688 0.702815
v 0.052373 -0.053238 0.701351
v 0.053979 -0.052301 0.704005
v 0.059613 -0.049943 0.714426
v 0.059227 -0.055389 0.702701
v 0.064831 -0.054306 0.700420
v 0.069108 -0.052602 0.710586
v 0.064543 -0.052951 0.712217
v 0.071654 -0.049469 0.717735
v 0.068610 -0.049441 0.718374
v 0.064588 -0.047239 0.720277
v 0.072651 -0.046281 0.721942
v 0.075991 -0.044801 0.721687
v 0.070870 -0.043194 0.724625
v 0.070040 -0.047025 0.721182
v 0.068194 -0.045075 0.722837
v 0.022908 -0.123657 0.724888
v 0.026787 -0.118272 0.723828
v 0.021713 -0.118726 0.720188
v 0.014517 -0.117189 0.714638
v 0.006226 -0.121635 0.709691
v 0.018744 -0.112537 0.711551
v 0.025980 -0.114299 0.717649
v 0.033624 -0.114193 0.722747
v 0.017230 -0.107901 0.702474
f 2 3 1
f 1 3 4
f 5 6 8
f 8 6 7
f 9 4 10
f 10 4 3
f 12 13 11
f 11 13 9
f 14 12 16
f 16 12 15
f 18 19 17
f 17 19 20
f 22 23 21
f 21 23 24
f 26 27 25
f 25 27 28
f 30 31 29
f 29 31 32
f 33 34 36
f 36 34 35
f 37 38 40
f 40 38 39
f 41 42 6
f 6 42 43
f 6 43 7
f 7 43 44
f 45 34 46
f 46 34 33
f 48 49 47
f 47 49 50
f 52 53 51
f 51 53 54
f 56 52 55
f 55 52 51
f 58 59 57
f 57 59 60
f 61 62 4
f 4 62 1
f 64 65 63
f 63 65 66
f 68 69 67
f 67 69 70
f 72 73 71
f 71 73 74
f 76 77 75
f 75 77 78
f 53 79 54
f 54 79 80
f 82 83 81
f 81 83 84
f 85 86 52
f 52 86 53
f 57 60 87
f 87 60 88
f 89 90 43
f 43 90 44
f 43 42 89
f 89 42 91
f 40 39 92
f 92 39 93
f 94 70 64
f 64 70 69
f 13 61 9
f 9 61 4
f 25 28 69
f 69 28 95
f 96 25 68
f 68 25 69
f 98 99 97
f 97 99 100
f 101 102 104
f 104 102 103
f 106 30 105
f 105 30 29
f 51 54 107
f 107 54 108
f 54 80 108
f 108 80 109
f 111 112 110
f 110 112 113
f 115 5 114
f 114 5 116
f 115 41 5
f 5 41 6
f 36 35 111
f 111 35 117
f 35 118 117
f 117 118 119
f 34 120 35
f 35 120 118
f 34 45 120
f 120 45 121
f 125 126 124
f 124 126 127
f 128 129 14
f 14 129 130
f 33 131 46
f 46 131 132
f 133 94 63
f 63 94 64
f 134 135 137
f 137 135 136
f 139 140 138
f 138 140 141
f 77 142 78
f 78 142 143
f 144 145 20
f 20 145 146
f 148 149 147
f 147 149 72
f 151 152 150
f 150 152 153
f 82 101 83
f 83 101 104
f 101 82 155
f 155 82 154
f 156 157 58
f 58 157 59
f 158 68 147
f 147 68 67
f 159 146 15
f 15 146 16
f 68 158 96
f 96 158 160
f 129 66 130
f 130 66 65
f 162 163 161
f 161 163 164
f 166 167 165
f 165 167 168
f 170 171 169
f 169 171 172
f 174 171 173
f 173 171 170
f 176 177 175
f 175 177 178
f 180 181 179
f 179 181 24
f 182 183 21
f 21 183 184
f 81 185 82
f 82 185 154
f 186 187 188
f 188 187 144
f 158 71 160
f 160 71 189
f 190 135 157
f 157 135 59
f 169 172 139
f 139 172 140
f 147 72 158
f 158 72 71
f 192 193 191
f 191 193 194
f 167 166 49
f 49 166 195
f 196 190 50
f 50 190 157
f 197 198 200
f 200 198 199
f 21 24 182
f 182 24 181
f 146 159 20
f 20 159 17
f 182 181 81
f 81 181 185
f 201 185 180
f 180 185 181
f 202 203 83
f 83 203 84
f 205 206 204
f 204 206 85
f 207 22 184
f 184 22 21
f 179 24 208
f 208 24 23
f 208 209 179
f 179 209 205
f 209 210 205
f 205 210 206
f 212 206 211
f 211 206 210
f 179 205 180
f 180 205 204
f 213 176 88
f 88 176 214
f 86 85 212
f 212 85 206
f 193 217 218
f 217 219 218
f 218 219 220
f 219 18 220
f 220 18 17
f 19 221 20
f 20 221 144
f 222 223 225
f 225 223 224
f 175 226 176
f 176 226 214
f 227 87 214
f 214 87 88
f 220 17 228
f 228 17 159
f 134 213 60
f 60 213 88
f 138 229 151
f 151 229 152
f 193 192 210
f 210 192 211
f 230 194 218
f 218 194 193
f 231 232 228
f 228 232 230
f 233 234 91
f 91 234 89
f 235 236 93
f 93 236 92
f 230 232 234
f 234 232 237
f 47 238 48
f 48 238 239
f 240 191 235
f 235 191 236
f 5 8 116
f 116 8 241
f 242 243 189
f 189 243 160
f 244 245 98
f 98 245 99
f 156 246 47
f 47 246 238
f 76 247 77
f 77 247 248
f 250 125 249
f 249 125 124
f 252 253 251
f 251 253 254
f 111 110 36
f 36 110 255
f 256 33 255
f 255 33 36
f 257 258 154
f 154 258 155
f 63 169 133
f 133 169 139
f 66 170 63
f 63 170 169
f 173 170 129
f 129 170 66
f 129 128 173
f 173 128 259
f 128 260 259
f 259 260 261
f 213 134 262
f 262 134 137
f 263 264 186
f 186 264 187
f 112 265 113
f 113 265 266
f 11 267 268
f 234 233 230
f 230 233 194
f 153 269 70
f 70 269 67
f 175 178 165
f 165 178 141
f 150 153 94
f 94 153 70
f 271 221 270
f 270 221 207
f 269 153 272
f 272 153 152
f 121 45 109
f 109 45 108
f 47 50 156
f 156 50 157
f 57 273 58
f 58 273 274
f 145 275 260
f 260 275 261
f 276 149 143
f 143 149 78
f 148 269 75
f 75 269 272
f 207 277 270
f 270 277 278
f 195 196 49
f 49 196 50
f 59 135 60
f 60 135 134
f 83 104 202
f 202 104 279
f 149 148 78
f 78 148 75
f 247 278 248
f 248 278 277
f 183 182 84
f 84 182 81
f 48 239 281
f 281 239 282
f 227 223 283
f 283 223 222
f 223 226 224
f 224 226 168
f 281 282 224
f 224 282 225
f 165 168 175
f 175 168 226
f 264 263 138
f 138 263 229
f 14 16 128
f 128 16 260
f 220 228 218
f 218 228 230
f 87 227 284
f 284 227 283
f 260 16 145
f 145 16 146
f 244 98 258
f 258 98 155
f 58 274 156
f 156 274 246
f 107 285 51
f 51 285 55
f 243 286 160
f 160 286 96
f 234 237 89
f 89 237 90
f 46 132 107
f 107 132 285
f 253 252 249
f 249 252 250
f 286 26 96
f 96 26 25
f 106 105 287
f 287 105 288
f 272 152 289
f 289 152 229
f 138 151 139
f 139 151 133
f 183 290 161
f 161 290 162
f 291 292 277
f 277 292 293
f 151 150 133
f 133 150 94
f 262 275 177
f 177 275 187
f 144 187 145
f 145 187 275
f 273 57 284
f 284 57 87
f 174 136 190
f 190 136 135
f 111 117 112
f 112 117 38
f 117 119 38
f 38 119 123
f 112 38 265
f 265 38 37
f 287 288 254
f 254 288 251
f 228 159 231
f 231 159 15
f 223 227 226
f 226 227 214
f 147 67 148
f 148 67 269
f 224 168 281
f 281 168 167
f 199 163 200
f 200 163 162
f 45 46 108
f 108 46 107
f 281 167 48
f 48 167 49
f 161 164 291
f 291 164 292
f 38 123 39
f 293 294 277
f 277 294 248
f 284 283 296
f 296 283 295
f 284 296 273
f 273 296 297
f 274 273 298
f 298 273 297
f 246 274 299
f 299 274 298
f 283 222 295
f 295 222 300
f 222 225 300
f 300 225 301
f 301 225 302
f 302 225 282
f 303 304 300
f 300 304 295
f 306 307 305
f 305 307 308
f 309 310 308
f 308 310 305
f 308 307 312
f 312 307 311
f 313 314 312
f 312 314 315
f 311 316 312
f 312 316 313
f 317 304 311
f 311 304 316
f 315 309 312
f 312 309 308
f 318 319 321
f 321 319 320
f 319 318 309
f 309 318 310
f 311 307 317
f 317 307 306
f 306 297 317
f 317 297 296
f 306 322 297
f 297 322 298
f 305 323 306
f 306 323 322
f 323 305 324
f 324 305 310
f 304 317 295
f 295 317 296
f 318 325 310
f 310 325 324
f 323 324 326
f 326 324 327
f 324 325 327
f 327 325 328
f 326 327 329
f 329 327 330
f 329 331 326
f 326 331 332
f 333 330 328
f 328 330 327
f 323 326 322
f 322 326 332
f 322 332 298
f 298 332 299
f 325 318 334
f 334 318 321
f 313 316 335
f 335 316 304
f 335 336 313
f 313 336 314
f 304 303 335
f 335 303 337
f 336 335 338
f 338 335 337
f 336 339 314
f 314 339 340
f 246 299 238
f 238 299 341
f 239 342 282
f 282 342 302
f 342 239 341
f 341 239 238
f 341 331 342
f 342 331 343
f 331 329 343
f 343 329 344
f 342 343 302
f 302 343 345
f 341 299 331
f 331 299 332
f 346 301 345
f 345 301 302
f 346 303 301
f 301 303 300
f 347 337 346
f 346 337 303
f 347 346 348
f 348 346 345
f 349 347 350
f 350 347 348
f 343 344 345
f 345 344 348
f 344 351 348
f 348 351 350
f 337 347 338
f 338 347 349
f 353 338 352
f 352 338 349
f 352 355 354
f 354 355 356
f 352 349 355
f 355 349 350
f 352 354 353
f 353 354 334
f 353 334 339
f 339 334 321
f 339 336 353
f 353 336 338
f 329 330 344
f 344 330 351
f 356 351 333
f 333 351 330
f 356 355 351
f 351 355 350
f 354 356 328
f 328 356 333
f 328 325 354
f 354 325 334
f 309 315 319
f 319 315 320
f 320 340 321
f 321 340 339
f 320 315 340
f 340 315 314
f 137 136 261
f 261 136 259
f 140 166 141
f 141 166 165
f 172 171 195
f 195 171 196
f 171 174 196
f 196 174 190
f 178 177 264
f 264 177 187
f 172 195 140
f 140 195 166
f 137 261 262
f 262 261 275
f 178 264 141
f 141 264 138
f 262 177 213
f 213 177 176
f 136 174 259
f 259 174 173
f 358 359 357
f 357 359 360
f 362 363 361
f 361 363 364
f 361 364 365
f 365 364 366
f 367 368 370
f 370 368 369
f 76 371 247
f 247 371 372
f 373 374 362
f 362 374 363
f 376 377 375
f 375 377 378
f 289 229 380
f 380 229 379
f 381 379 263
f 263 379 229
f 383 384 382
f 382 384 385
f 386 368 374
f 374 368 363
f 76 289 371
f 371 289 380
f 377 376 359
f 359 376 387
f 388 386 360
f 360 386 374
f 389 383 366
f 366 383 390
f 392 393 391
f 391 393 394
f 383 382 390
f 390 382 395
f 396 365 390
f 390 365 366
f 389 366 367
f 367 366 364
f 357 397 358
f 358 397 398
f 373 399 357
f 357 399 397
f 389 367 400
f 400 367 370
f 382 385 375
f 375 385 372
f 357 360 373
f 373 360 374
f 361 401 362
f 362 401 402
f 387 388 359
f 359 388 360
f 363 368 364
f 364 368 367
f 358 398 403
f 403 398 404
f 396 392 405
f 405 392 391
f 392 395 393
f 393 395 378
f 393 403 394
f 394 403 404
f 375 378 382
f 382 378 395
f 365 396 406
f 406 396 405
f 362 402 373
f 373 402 399
f 271 270 400
f 400 270 384
f 401 361 406
f 406 361 365
f 381 369 386
f 386 369 368
f 392 396 395
f 395 396 390
f 393 378 403
f 403 378 377
f 403 377 358
f 358 377 359
f 406 405 408
f 408 405 407
f 406 408 401
f 401 408 409
f 401 409 402
f 402 409 410
f 402 410 399
f 399 410 411
f 405 391 407
f 407 391 412
f 391 394 412
f 412 394 413
f 394 404 413
f 413 404 414
f 415 416 412
f 412 416 407
f 418 419 417
f 417 419 420
f 421 422 418
f 418 422 419
f 419 422 424
f 424 422 423
f 425 426 424
f 424 426 427
f 423 428 424
f 424 428 425
f 427 420 424
f 424 420 419
f 420 429 417
f 417 429 430
f 423 422 431
f 431 422 421
f 421 409 431
f 431 409 408
f 421 432 409
f 409 432 410
f 418 433 421
f 421 433 432
f 434 433 417
f 417 433 418
f 431 416 423
f 423 416 428
f 416 431 407
f 407 431 408
f 435 434 430
f 430 434 417
f 433 434 436
f 436 434 437
f 434 435 437
f 437 435 438
f 436 437 439
f 439 437 440
f 439 441 436
f 436 441 442
f 438 443 437
f 437 443 440
f 436 442 433
f 433 442 432
f 432 442 410
f 410 442 411
f 435 430 445
f 445 430 444
f 430 429 444
f 444 429 446
f 425 428 447
f 447 428 416
f 426 425 448
f 448 425 447
f 416 415 447
f 447 415 449
f 447 449 448
f 448 449 450
f 451 452 448
f 448 452 426
f 446 452 444
f 444 452 451
f 399 411 397
f 397 411 453
f 398 454 404
f 404 454 414
f 454 398 453
f 453 398 397
f 453 441 454
f 454 441 455
f 441 439 455
f 455 439 456
f 454 455 414
f 414 455 457
f 441 453 442
f 442 453 411
f 458 413 457
f 457 413 414
f 458 415 413
f 413 415 412
f 458 459 415
f 415 459 449
f 459 458 460
f 460 458 457
f 461 459 462
f 462 459 460
f 455 456 457
f 457 456 460
f 456 463 460
f 460 463 462
f 459 461 449
f 449 461 450
f 465 450 464
f 464 450 461
f 464 467 466
f 466 467 468
f 464 461 467
f 467 461 462
f 464 466 465
f 465 466 445
f 465 445 451
f 451 445 444
f 451 448 465
f 465 448 450
f 439 440 456
f 456 440 463
f 468 463 443
f 443 463 440
f 468 467 463
f 463 467 462
f 466 468 438
f 438 468 443
f 438 435 466
f 466 435 445
f 420 427 429
f 429 427 446
f 446 427 452
f 452 427 426
f 370 369 188
f 188 369 186
f 371 376 372
f 372 376 375
f 380 379 387
f 387 379 388
f 379 381 388
f 388 381 386
f 385 384 278
f 278 384 270
f 380 387 371
f 371 387 376
f 400 370 271
f 271 370 188
f 385 278 372
f 372 278 247
f 400 384 389
f 389 384 383
f 369 381 186
f 186 381 263
f 221 271 144
f 144 271 188
f 221 19 207
f 207 19 22
f 19 18 22
f 22 18 23
f 18 219 23
f 23 219 208
f 469 470 472
f 472 470 471
f 474 475 473
f 473 475 476
f 473 476 477
f 477 476 478
f 480 481 479
f 479 481 482
f 483 484 474
f 474 484 475
f 486 487 485
f 485 487 488
f 489 490 77
f 77 490 142
f 491 489 248
f 248 489 77
f 493 494 492
f 492 494 495
f 496 480 484
f 484 480 475
f 486 497 487
f 487 497 471
f 498 496 472
f 472 496 484
f 499 493 478
f 478 493 500
f 501 502 504
f 504 502 503
f 493 492 500
f 500 492 505
f 506 477 500
f 500 477 478
f 499 478 479
f 479 478 476
f 469 507 470
f 470 507 508
f 483 509 469
f 469 509 507
f 479 482 499
f 499 482 510
f 492 495 485
f 485 495 511
f 483 469 484
f 484 469 472
f 473 512 474
f 474 512 513
f 497 498 471
f 471 498 472
f 475 480 476
f 476 480 479
f 470 508 514
f 514 508 515
f 506 502 516
f 516 502 501
f 503 502 488
f 488 502 505
f 514 515 503
f 503 515 504
f 485 488 492
f 492 488 505
f 477 506 517
f 517 506 516
f 474 513 483
f 483 513 509
f 510 292 494
f 494 292 164
f 512 473 517
f 517 473 477
f 491 481 496
f 496 481 480
f 502 506 505
f 505 506 500
f 503 488 514
f 514 488 487
f 514 487 470
f 470 487 471
f 517 516 519
f 519 516 518
f 517 519 512
f 512 519 520
f 512 520 513
f 513 520 521
f 513 521 509
f 509 521 522
f 516 501 518
f 518 501 523
f 501 504 523
f 523 504 524
f 524 504 525
f 525 504 515
f 526 527 523
f 523 527 518
f 529 530 528
f 528 530 531
f 532 533 529
f 529 533 530
f 530 533 535
f 535 533 534
f 536 537 535
f 535 537 538
f 534 539 535
f 535 539 536
f 538 531 535
f 535 531 530
f 540 541 531
f 531 541 528
f 533 532 534
f 534 532 542
f 532 520 542
f 542 520 519
f 532 543 520
f 520 543 521
f 529 544 532
f 532 544 543
f 544 529 545
f 545 529 528
f 534 542 539
f 539 542 527
f 527 542 518
f 518 542 519
f 541 546 528
f 528 546 545
f 547 544 548
f 548 544 545
f 546 549 545
f 545 549 548
f 550 547 551
f 551 547 548
f 547 550 553
f 553 550 552
f 549 554 548
f 548 554 551
f 544 547 543
f 543 547 553
f 543 553 521
f 521 553 522
f 546 541 556
f 556 541 555
f 541 540 555
f 555 540 557
f 536 539 558
f 558 539 527
f 537 536 559
f 559 536 558
f 527 526 558
f 558 526 560
f 559 558 561
f 561 558 560
f 559 562 537
f 537 562 563
f 557 563 555
f 555 563 562
f 509 522 507
f 507 522 564
f 508 565 515
f 515 565 525
f 565 508 564
f 564 508 507
f 564 552 565
f 565 552 566
f 552 550 566
f 566 550 567
f 565 566 525
f 525 566 568
f 564 522 552
f 552 522 553
f 569 524 568
f 568 524 525
f 569 526 524
f 524 526 523
f 570 560 569
f 569 560 526
f 570 569 571
f 571 569 568
f 572 570 573
f 573 570 571
f 566 567 568
f 568 567 571
f 567 574 571
f 571 574 573
f 570 572 560
f 560 572 561
f 576 561 575
f 575 561 572
f 575 578 577
f 577 578 579
f 575 572 578
f 578 572 573
f 575 577 576
f 576 577 556
f 576 556 562
f 562 556 555
f 562 559 576
f 576 559 561
f 550 551 567
f 567 551 574
f 579 574 554
f 554 574 551
f 579 578 574
f 574 578 573
f 579 554 577
f 577 554 549
f 549 546 577
f 577 546 556
f 531 538 540
f 540 538 557
f 557 538 563
f 563 538 537
f 481 294 482
f 482 294 293
f 580 486 511
f 511 486 485
f 490 489 497
f 497 489 498
f 489 491 498
f 498 491 496
f 163 495 164
f 164 495 494
f 580 490 486
f 486 490 497
f 482 293 510
f 510 293 292
f 495 163 511
f 511 163 199
f 494 493 510
f 510 493 499
f 481 491 294
f 294 491 248
f 582 583 581
f 581 583 584
f 586 587 585
f 585 587 588
f 585 588 589
f 589 588 590
f 592 593 591
f 591 593 594
f 595 596 598
f 598 596 597
f 599 600 586
f 586 600 587
f 601 602 604
f 604 602 603
f 605 606 608
f 608 606 607
f 609 607 200
f 200 607 606
f 610 611 613
f 613 611 612
f 600 614 587
f 587 614 592
f 596 605 597
f 597 605 608
f 602 615 603
f 603 615 583
f 616 614 584
f 584 614 600
f 611 618 617
f 617 618 590
f 620 621 619
f 619 621 622
f 610 623 611
f 611 623 618
f 624 589 618
f 618 589 590
f 617 590 591
f 591 590 588
f 581 625 582
f 582 625 626
f 599 627 581
f 581 627 625
f 591 594 617
f 617 594 628
f 601 610 598
f 598 610 613
f 581 584 599
f 599 584 600
f 585 629 586
f 586 629 630
f 615 616 583
f 583 616 584
f 587 592 588
f 588 592 591
f 582 626 631
f 631 626 632
f 624 620 633
f 633 620 619
f 621 620 604
f 604 620 623
f 631 632 621
f 621 632 622
f 610 601 623
f 623 601 604
f 589 624 634
f 634 624 633
f 586 630 599
f 599 630 627
f 203 202 628
f 628 202 612
f 629 585 634
f 634 585 589
f 609 593 614
f 614 593 592
f 620 624 623
f 623 624 618
f 631 621 603
f 603 621 604
f 582 631 583
f 583 631 603
f 634 633 636
f 636 633 635
f 634 636 629
f 629 636 637
f 629 637 630
f 630 637 638
f 630 638 627
f 627 638 639
f 633 619 635
f 635 619 640
f 619 622 640
f 640 622 641
f 641 622 642
f 642 622 632
f 644 635 643
f 643 635 640
f 645 646 648
f 648 646 647
f 649 650 646
f 646 650 647
f 647 650 652
f 652 650 651
f 652 653 655
f 655 653 654
f 651 656 652
f 652 656 653
f 655 648 652
f 652 648 647
f 648 657 645
f 645 657 658
f 650 649 651
f 651 649 659
f 649 637 659
f 659 637 636
f 649 660 637
f 637 660 638
f 661 660 646
f 646 660 649
f 662 661 645
f 645 661 646
f 651 659 656
f 656 659 644
f 644 659 635
f 635 659 636
f 663 662 658
f 658 662 645
f 664 661 665
f 665 661 662
f 663 666 662
f 662 666 665
f 667 664 668
f 668 664 665
f 664 667 670
f 670 667 669
f 666 671 665
f 665 671 668
f 661 664 660
f 660 664 670
f 660 670 638
f 638 670 639
f 658 672 663
f 663 672 673
f 658 657 672
f 672 657 674
f 653 656 675
f 675 656 644
f 653 675 654
f 654 675 676
f 675 644 677
f 677 644 643
f 676 675 678
f 678 675 677
f 679 680 676
f 676 680 654
f 674 680 672
f 672 680 679
f 627 639 625
f 625 639 681
f 626 682 632
f 632 682 642
f 681 682 625
f 625 682 626
f 669 683 681
f 681 683 682
f 667 684 669
f 669 684 683
f 682 683 642
f 642 683 685
f 681 639 669
f 669 639 670
f 686 641 685
f 685 641 642
f 641 686 640
f 640 686 643
f 686 687 643
f 643 687 677
f 687 686 688
f 688 686 685
f 689 687 690
f 690 687 688
f 683 684 685
f 685 684 688
f 684 691 688
f 688 691 690
f 687 689 677
f 677 689 678
f 693 678 692
f 692 678 689
f 692 695 694
f 694 695 696
f 692 689 695
f 695 689 690
f 692 694 693
f 693 694 673
f 693 673 679
f 679 673 672
f 679 676 693
f 693 676 678
f 684 667 691
f 691 667 668
f 696 691 671
f 671 691 668
f 696 695 691
f 691 695 690
f 694 696 666
f 666 696 671
f 666 663 694
f 694 663 673
f 648 655 657
f 657 655 674
f 674 655 680
f 680 655 654
f 593 162 594
f 594 162 290
f 598 597 601
f 601 597 602
f 615 608 616
f 616 608 607
f 607 609 616
f 616 609 614
f 697 595 613
f 613 595 598
f 597 608 602
f 602 608 615
f 594 290 628
f 628 290 203
f 628 612 617
f 617 612 611
f 593 609 162
f 162 609 200
f 105 29 698
f 698 29 699
f 268 126 701
f 701 126 700
f 126 125 700
f 700 125 702
f 252 703 250
f 250 703 704
f 32 268 705
f 705 268 701
f 288 105 706
f 706 105 698
f 29 32 699
f 699 32 705
f 707 251 706
f 706 251 288
f 250 704 125
f 125 704 702
f 703 252 707
f 707 252 251
f 706 708 707
f 707 708 709
f 707 709 703
f 703 709 710
f 703 710 704
f 704 710 711
f 704 711 702
f 702 711 712
f 706 698 708
f 708 698 713
f 698 699 713
f 713 699 714
f 699 705 714
f 714 705 715
f 717 708 716
f 716 708 713
f 719 720 718
f 718 720 721
f 722 723 719
f 719 723 720
f 724 725 723
f 723 725 720
f 724 726 725
f 725 726 727
f 728 721 725
f 725 721 720
f 721 728 729
f 729 728 730
f 729 731 721
f 721 731 718
f 724 723 732
f 732 723 722
f 722 710 732
f 732 710 709
f 722 733 710
f 710 733 711
f 719 734 722
f 722 734 733
f 734 719 735
f 735 719 718
f 724 732 726
f 726 732 717
f 717 732 708
f 708 732 709
f 731 736 718
f 718 736 735
f 737 734 738
f 738 734 735
f 736 739 735
f 735 739 738
f 740 737 741
f 741 737 738
f 737 740 743
f 743 740 742
f 739 744 738
f 738 744 741
f 734 737 733
f 733 737 743
f 733 743 711
f 711 743 712
f 736 731 746
f 746 731 745
f 731 729 745
f 745 729 730
f 727 726 747
f 747 726 717
f 748 727 749
f 749 727 747
f 747 717 750
f 750 717 716
f 749 747 751
f 751 747 750
f 749 752 748
f 748 752 753
f 730 753 745
f 745 753 752
f 728 725 748
f 748 725 727
f 730 728 753
f 753 728 748
f 700 702 754
f 754 702 712
f 705 701 715
f 715 701 755
f 754 755 700
f 700 755 701
f 742 756 754
f 754 756 755
f 740 757 742
f 742 757 756
f 755 756 715
f 715 756 758
f 754 712 742
f 742 712 743
f 759 714 758
f 758 714 715
f 714 759 713
f 713 759 716
f 759 760 716
f 716 760 750
f 760 759 761
f 761 759 758
f 762 760 763
f 763 760 761
f 756 757 758
f 758 757 761
f 757 764 761
f 761 764 763
f 760 762 750
f 750 762 751
f 766 751 765
f 765 751 762
f 767 765 769
f 769 765 768
f 765 762 768
f 768 762 763
f 765 767 766
f 766 767 746
f 766 746 752
f 752 746 745
f 752 749 766
f 766 749 751
f 757 740 764
f 764 740 741
f 769 764 744
f 744 764 741
f 769 768 764
f 764 768 763
f 767 769 739
f 739 769 744
f 739 736 767
f 767 736 746
f 219 217 208
f 208 217 209
f 209 217 210
f 210 217 193
f 198 580 199
f 199 580 511
f 76 75 289
f 289 75 272
f 277 207 291
f 291 207 184
f 290 183 203
f 203 183 84
f 490 580 142
f 142 580 198
f 142 198 143
f 143 198 197
f 149 276 72
f 72 276 73
f 104 103 279
f 279 103 770
f 770 596 279
f 279 596 595
f 605 596 771
f 771 596 770
f 771 770 772
f 772 770 103
f 772 103 773
f 773 103 102
f 155 774 101
f 101 774 102
f 773 102 97
f 97 102 774
f 775 773 100
f 100 773 97
f 773 775 772
f 772 775 776
f 772 776 771
f 771 776 777
f 200 606 197
f 197 606 777
f 189 71 778
f 778 71 74
f 97 774 98
f 98 774 155
f 183 161 184
f 184 161 291
f 777 276 197
f 197 276 143
f 777 606 771
f 771 606 605
f 613 612 697
f 697 612 202
f 595 697 279
f 279 697 202
f 73 276 776
f 776 276 777
f 776 775 73
f 73 775 74
f 100 778 775
f 775 778 74
f 778 100 189
f 189 100 99
f 245 242 99
f 99 242 189
f 131 33 256
f 28 1 95
f 95 1 62
f 27 2 28
f 28 2 1
f 265 115 266
f 266 115 114
f 95 62 69
f 69 62 64
f 62 61 64
f 64 61 65
f 61 13 65
f 65 13 130
f 13 12 130
f 130 12 14
f 31 11 32
f 32 11 268
f 15 12 31
f 31 12 11
f 31 30 15
f 15 30 231
f 30 106 231
f 231 106 232
f 287 237 106
f 106 237 232
f 254 90 287
f 287 90 237
f 253 44 254
f 254 44 90
f 253 249 44
f 44 249 7
f 267 127 268
f 268 127 126
f 10 3 241
f 241 3 116
f 3 2 116
f 116 2 114
f 2 27 114
f 114 27 266
f 27 26 266
f 266 26 113
f 26 286 113
f 113 286 110
f 286 243 110
f 110 243 255
f 243 242 255
f 255 242 256
f 242 245 256
f 256 245 131
f 245 244 131
f 131 244 132
f 265 37 115
f 115 37 41
f 41 37 42
f 42 37 40
f 92 91 40
f 40 91 42
f 236 233 92
f 92 233 91
f 191 194 236
f 236 194 233
f 258 285 244
f 244 285 132
f 257 55 258
f 258 55 285
f 257 154 201
f 201 154 185
f 56 201 204
f 204 201 180
f 55 257 56
f 56 257 201
f 204 85 56
f 56 85 52
f 86 122 53
f 53 122 79
f 212 215 86
f 86 215 122
f 211 216 212
f 212 216 215
f 192 280 211
f 211 280 216
f 191 240 192
f 192 240 280
f 249 124 7
f 7 124 8
f 124 127 8
f 8 127 241
f 127 267 241
f 241 267 10
f 10 267 9
f 9 267 11
o hand_right
v -0.128285 0.187035 0.563516
v -0.137825 0.189023 0.559527
v -0.130987 0.180850 0.557524
v -0.122089 0.179938 0.560524
v -0.150018 0.177658 0.547757
v -0.153000 0.177614 0.535644
v -0.140378 0.167563 0.537400
v -0.140173 0.168851 0.547855
v -0.115097 0.175646 0.557482
v -0.125011 0.174639 0.556062
v -0.110242 0.176314 0.552939
v -0.100317 0.182594 0.554477
v -0.105942 0.178676 0.558813
v -0.093491 0.184339 0.558668
v -0.100655 0.192675 0.549051
v -0.089121 0.192951 0.560636
v -0.109805 0.215500 0.565436
v -0.117243 0.221578 0.575003
v -0.103233 0.216111 0.586015
v -0.097378 0.209341 0.575329
v -0.120912 0.222355 0.596470
v -0.110686 0.218691 0.591177
v -0.123666 0.225358 0.580329
v -0.132152 0.228145 0.585603
v -0.139040 0.196846 0.570736
v -0.148531 0.199845 0.566434
v -0.144425 0.197110 0.563422
v -0.135549 0.194096 0.567426
v -0.110503 0.171934 0.540943
v -0.111076 0.183664 0.538487
v -0.107962 0.181113 0.545766
v -0.111456 0.169717 0.546032
v -0.176631 0.205573 0.562172
v -0.182478 0.214289 0.553597
v -0.179470 0.212578 0.548814
v -0.174511 0.205338 0.557765
v -0.167665 0.197135 0.535358
v -0.171414 0.207407 0.533234
v -0.167188 0.213835 0.521625
v -0.160652 0.205884 0.522976
v -0.160975 0.186195 0.535788
v -0.156484 0.193018 0.524211
v -0.148890 0.182390 0.525804
v -0.137212 0.170283 0.528908
v -0.187470 0.220653 0.563603
v -0.184310 0.214758 0.571354
v -0.108641 0.150169 0.575899
v -0.112395 0.152306 0.579864
v -0.110193 0.156491 0.578692
v -0.106431 0.153587 0.575134
v -0.180152 0.235017 0.576016
v -0.173970 0.242892 0.574549
v -0.180332 0.244573 0.571379
v -0.185551 0.236697 0.570958
v -0.173004 0.232742 0.582646
v -0.165182 0.239875 0.578655
v -0.099584 0.143267 0.581766
v -0.101911 0.144456 0.577335
v -0.098019 0.148041 0.577368
v -0.095967 0.147527 0.582133
v -0.113121 0.179135 0.563025
v -0.120275 0.183574 0.567612
v -0.100748 0.179034 0.572117
v -0.107636 0.180240 0.571703
v -0.104408 0.179191 0.565529
v -0.098790 0.178133 0.566709
v -0.122816 0.191793 0.585622
v -0.131611 0.195394 0.579052
v -0.127012 0.192323 0.575429
v -0.117049 0.187044 0.581336
v -0.141316 0.199014 0.588782
v -0.131650 0.195624 0.594407
v -0.138309 0.198224 0.599274
v -0.144469 0.199245 0.594527
v -0.113330 0.190244 0.601011
v -0.108922 0.190246 0.602307
v -0.112732 0.189358 0.604656
v -0.116691 0.191346 0.603050
v -0.185934 0.247026 0.567731
v -0.190053 0.238353 0.565426
v -0.139364 0.225677 0.608131
v -0.150367 0.222988 0.609741
v -0.141707 0.218664 0.620123
v -0.131599 0.223292 0.615776
v -0.165475 0.246335 0.569571
v -0.172361 0.249755 0.567905
v -0.100081 0.143850 0.587889
v -0.097063 0.148332 0.588096
v -0.142064 0.193212 0.521453
v -0.131078 0.176903 0.524343
v -0.150068 0.206391 0.520635
v -0.154998 0.216284 0.520698
v -0.160062 0.223119 0.518314
v -0.107502 0.181570 0.578302
v -0.126998 0.189683 0.570052
v -0.142389 0.198709 0.574057
v -0.160947 0.203910 0.598401
v -0.168905 0.206485 0.592047
v -0.161085 0.201168 0.586769
v -0.155436 0.200561 0.593401
v -0.156190 0.214938 0.611139
v -0.155567 0.207011 0.608897
v -0.148898 0.205478 0.614881
v -0.148221 0.212344 0.618924
v -0.111920 0.171093 0.533376
v -0.115205 0.184900 0.531858
v -0.184467 0.225404 0.574534
v -0.187957 0.227304 0.567797
v -0.192032 0.231763 0.561764
v -0.162532 0.201601 0.563351
v -0.173163 0.204974 0.554695
v -0.170801 0.202497 0.551722
v -0.160133 0.201195 0.561331
v -0.149027 0.188587 0.556416
v -0.160185 0.188533 0.548631
v -0.140948 0.179213 0.556049
v -0.176717 0.210876 0.541318
v -0.185609 0.217389 0.542042
v -0.181183 0.215768 0.534450
v -0.189666 0.221585 0.549973
v -0.192151 0.226453 0.557067
v -0.177929 0.255614 0.565156
v -0.175691 0.215268 0.528036
v -0.132732 0.163264 0.547255
v -0.127378 0.157217 0.545360
v -0.122219 0.161248 0.550246
v -0.127411 0.167503 0.553133
v -0.088328 0.181531 0.564345
v -0.094156 0.178275 0.564064
v -0.099543 0.180047 0.559795
v -0.171776 0.203344 0.572512
v -0.178667 0.211126 0.579897
v -0.101320 0.180445 0.577985
v -0.092914 0.153115 0.581517
v -0.095386 0.153403 0.576114
v -0.089331 0.172812 0.568262
v -0.085472 0.172228 0.574502
v -0.099319 0.181337 0.584323
v -0.102456 0.181267 0.577723
v -0.103461 0.180601 0.578356
v -0.103036 0.179172 0.585048
v -0.120276 0.192360 0.609558
v -0.123909 0.194305 0.607495
v -0.089184 0.199098 0.585906
v -0.081813 0.196091 0.574409
v -0.091279 0.203419 0.565351
v -0.128191 0.194513 0.590071
v -0.120778 0.191662 0.596500
v -0.123613 0.193189 0.599242
v -0.106329 0.181965 0.582657
v -0.100997 0.181354 0.584090
v -0.103455 0.182626 0.587261
v -0.109983 0.184255 0.585641
v -0.158678 0.227576 0.600111
v -0.165494 0.218185 0.602238
v -0.104983 0.147166 0.575124
v -0.101855 0.150573 0.574709
v -0.136717 0.197971 0.583512
v -0.104960 0.208039 0.557583
v -0.146173 0.200325 0.577712
v -0.116966 0.210171 0.614992
v -0.121990 0.204399 0.617595
v -0.120094 0.198763 0.619155
v -0.114902 0.201442 0.618608
v -0.107958 0.163616 0.589413
v -0.110414 0.163270 0.583971
v -0.111824 0.158071 0.584607
v -0.109923 0.157744 0.590146
v -0.101822 0.180671 0.571861
v -0.098348 0.178487 0.567311
v -0.100938 0.176861 0.567722
v -0.103334 0.178723 0.573253
v -0.093586 0.178157 0.564775
v -0.095122 0.174805 0.565823
v -0.102733 0.161492 0.592837
v -0.096385 0.157491 0.592206
v -0.089636 0.175691 0.588031
v -0.097700 0.175988 0.589485
v -0.141825 0.234979 0.575705
v -0.150344 0.236232 0.582904
v -0.140841 0.229739 0.593034
v -0.130932 0.224526 0.603892
v -0.121322 0.218464 0.612918
v -0.111219 0.218039 0.605916
v -0.148171 0.230540 0.596991
v -0.093590 0.188513 0.588129
v -0.087210 0.187610 0.585791
v -0.089866 0.192337 0.588481
v -0.151280 0.200778 0.583172
v -0.099694 0.155441 0.573107
v -0.148178 0.235968 0.531797
v -0.150999 0.243719 0.542356
v -0.144592 0.238389 0.545219
v -0.141917 0.229028 0.533505
v -0.109342 0.161501 0.577425
v -0.105503 0.158535 0.573000
v -0.127696 0.195096 0.612869
v -0.123328 0.192951 0.614384
v -0.123341 0.193804 0.617003
v -0.128615 0.195003 0.617984
v -0.155855 0.236573 0.585397
v -0.136739 0.211231 0.625456
v -0.127986 0.217091 0.621150
v -0.158162 0.241911 0.573890
v -0.150593 0.241499 0.567627
v -0.157187 0.246452 0.562324
v -0.100710 0.208684 0.600820
v -0.134591 0.232362 0.571545
v -0.144759 0.238948 0.563278
v -0.152391 0.244715 0.556721
v -0.157890 0.249597 0.552670
v -0.162670 0.250863 0.559202
v -0.093945 0.154474 0.587787
v -0.100118 0.151061 0.593353
v -0.168271 0.257330 0.556061
v -0.162987 0.255060 0.548725
v -0.138801 0.235327 0.557207
v -0.132669 0.229717 0.549503
v -0.129306 0.228848 0.565442
v -0.122177 0.222972 0.558527
v -0.092017 0.210514 0.593699
v -0.113847 0.140051 0.594209
v -0.108147 0.149618 0.594152
v -0.112107 0.152638 0.591090
v -0.117060 0.142850 0.593311
v -0.105599 0.155308 0.593610
v -0.103257 0.146616 0.593049
v -0.117381 0.213363 0.548354
v -0.098908 0.183610 0.588083
v -0.130151 0.217376 0.536871
v -0.109890 0.199266 0.540603
v -0.120884 0.200435 0.532417
v -0.143054 0.219011 0.524542
v -0.134455 0.204505 0.523627
v -0.154842 0.232230 0.521787
v -0.148698 0.226592 0.524383
v -0.126566 0.189668 0.524474
v -0.116765 0.143507 0.578883
v -0.119099 0.146019 0.583436
v -0.153675 0.241332 0.528588
v -0.133321 0.172919 0.554812
v -0.159174 0.201605 0.575665
v -0.154908 0.201368 0.571926
v -0.173048 0.208216 0.587469
v -0.165678 0.202116 0.580364
v -0.113048 0.140179 0.577120
v -0.107867 0.190971 0.603767
v -0.109270 0.190916 0.603635
v -0.134543 0.161337 0.538410
v -0.130029 0.156464 0.537959
v -0.121688 0.160968 0.528250
v -0.127085 0.157228 0.531484
v -0.132037 0.163484 0.530259
v -0.126677 0.167949 0.526463
v -0.164273 0.201704 0.565383
v -0.166628 0.202134 0.568553
v -0.166608 0.230285 0.591080
v -0.172571 0.220569 0.593472
v -0.088124 0.178936 0.566583
v -0.083658 0.186026 0.568883
v -0.083812 0.180899 0.571874
v -0.084735 0.175187 0.581339
v -0.096974 0.184856 0.587639
v -0.095229 0.183333 0.587585
v -0.165946 0.196018 0.550405
v -0.155476 0.196998 0.558630
v -0.120563 0.171190 0.554098
v -0.116050 0.165975 0.551064
v -0.115537 0.188469 0.589645
v -0.098883 0.197237 0.603700
v -0.092177 0.198684 0.596955
v -0.108030 0.186459 0.593610
v -0.108524 0.135046 0.582056
v -0.110724 0.137411 0.578221
v -0.082982 0.183848 0.578412
v -0.130259 0.195108 0.604284
v -0.103002 0.201785 0.605546
v -0.103761 0.194040 0.606170
v -0.144204 0.208379 0.622457
v -0.157171 0.248731 0.538303
v -0.114402 0.153476 0.585926
v -0.119499 0.146654 0.588446
v -0.110336 0.137818 0.593017
v -0.107345 0.135768 0.588256
v -0.178238 0.221765 0.584055
v -0.151805 0.200956 0.569693
v -0.121115 0.177513 0.526213
v -0.116362 0.166911 0.529169
v -0.103633 0.187541 0.594802
v -0.122475 0.211949 0.618091
v -0.108506 0.209347 0.611233
v -0.106622 0.200306 0.615172
v -0.103375 0.195969 0.609881
v -0.105271 0.190976 0.605432
v -0.114795 0.134496 0.593181
v -0.112033 0.132114 0.588398
v -0.113347 0.131353 0.582355
v -0.115068 0.133823 0.578693
v -0.116689 0.137898 0.577759
v -0.118356 0.136782 0.594438
v -0.121051 0.139424 0.593387
v -0.121883 0.144028 0.589015
v -0.122674 0.134890 0.594357
v -0.121710 0.129928 0.593177
v -0.126146 0.124850 0.581374
v -0.120740 0.126379 0.583054
v -0.122577 0.125232 0.584666
v -0.127154 0.123457 0.584139
v -0.131693 0.121278 0.585076
v -0.131248 0.122564 0.581780
v -0.120741 0.127054 0.588479
v -0.126907 0.124623 0.588549
v -0.127918 0.126766 0.592064
v -0.132576 0.123947 0.592254
v -0.131779 0.121769 0.589191
v -0.123540 0.128031 0.591854
v -0.118589 0.127793 0.588703
v -0.135074 0.121418 0.584058
v -0.134177 0.120244 0.586120
v -0.134705 0.120967 0.589336
v -0.137562 0.121604 0.588451
v -0.119562 0.130828 0.578948
v -0.126904 0.126615 0.579614
v -0.132600 0.125340 0.581056
v -0.136240 0.123938 0.583450
v -0.129549 0.129731 0.579817
v -0.133698 0.128023 0.581620
v -0.136885 0.127170 0.583953
v -0.131844 0.132803 0.581721
v -0.134963 0.130439 0.583288
v -0.121809 0.139053 0.579705
v -0.119663 0.135833 0.577970
v -0.137125 0.129290 0.584233
v -0.138611 0.123571 0.588237
v -0.127735 0.129955 0.593894
v -0.133858 0.126830 0.593150
v -0.128749 0.132088 0.594022
v -0.134810 0.128975 0.593678
v -0.137152 0.124024 0.592675
v -0.135111 0.122708 0.591736
v -0.118760 0.142073 0.579810
v -0.121019 0.144492 0.584677
v -0.123654 0.142116 0.584729
v -0.133062 0.135440 0.585520
v -0.124731 0.141917 0.589069
v -0.125126 0.137529 0.593264
v -0.130897 0.133857 0.593099
v -0.132474 0.135568 0.590579
v -0.135374 0.131153 0.592361
v -0.135708 0.132340 0.590084
v -0.136064 0.132272 0.586272
v -0.138139 0.128744 0.590716
v -0.137901 0.126145 0.592220
v -0.138647 0.126903 0.587477
v -0.137665 0.130356 0.589623
v -0.137605 0.129296 0.586826
v -0.110835 0.159674 0.597408
v -0.115078 0.162474 0.601241
v -0.112450 0.166572 0.599792
v -0.108888 0.163960 0.596513
v -0.100178 0.155127 0.604747
v -0.103245 0.155663 0.599397
v -0.100040 0.159752 0.598576
v -0.097191 0.160103 0.604936
v -0.101192 0.157720 0.611413
v -0.098625 0.163093 0.611059
v -0.094479 0.165562 0.603796
v -0.097602 0.165141 0.597285
v -0.094251 0.184087 0.590122
v -0.091023 0.185942 0.595426
v -0.109402 0.188664 0.598375
v -0.109435 0.188955 0.601699
v -0.107334 0.157635 0.597326
v -0.104482 0.161640 0.596373
v -0.113845 0.173168 0.607383
v -0.114151 0.171982 0.601920
v -0.114931 0.168212 0.603787
v -0.114269 0.168895 0.609233
v -0.102217 0.184578 0.588392
v -0.105361 0.186838 0.593833
v -0.098576 0.183928 0.588027
v -0.109603 0.172694 0.612499
v -0.103216 0.171090 0.614565
v -0.098455 0.189621 0.607892
v -0.104561 0.189184 0.608101
v -0.102129 0.165838 0.594284
v -0.111610 0.169594 0.597229
v -0.107622 0.167576 0.594179
v -0.096760 0.168883 0.610028
v -0.105209 0.165445 0.615373
v -0.119180 0.152106 0.616423
v -0.113085 0.162726 0.614737
v -0.116360 0.163934 0.610854
v -0.123251 0.153600 0.613562
v -0.111014 0.167726 0.613656
v -0.107578 0.160508 0.615464
v -0.121092 0.148714 0.600386
v -0.124952 0.151859 0.604430
v -0.117342 0.145985 0.599847
v -0.092683 0.188599 0.601711
v -0.109390 0.144592 0.606249
v -0.113498 0.144733 0.601210
v -0.117277 0.164143 0.605772
v -0.125702 0.153481 0.609196
v -0.114972 0.150078 0.616672
v -0.109171 0.147631 0.612485
v -0.118849 0.145432 0.616664
v -0.114430 0.142418 0.612816
v -0.114421 0.139842 0.606401
v -0.117425 0.141339 0.601501
v -0.120207 0.143776 0.600135
v -0.122771 0.147680 0.616542
v -0.126232 0.149822 0.613824
v -0.127134 0.151272 0.608891
v -0.128894 0.144606 0.614881
v -0.126291 0.140693 0.615489
v -0.133018 0.131150 0.600301
v -0.127567 0.133196 0.602089
v -0.128322 0.132625 0.604579
v -0.133312 0.130708 0.603085
v -0.122246 0.134458 0.605515
v -0.124386 0.134006 0.606949
v -0.124683 0.136098 0.611252
v -0.130220 0.134237 0.608759
v -0.131998 0.137505 0.612003
v -0.136964 0.134953 0.610613
v -0.135443 0.131499 0.607567
v -0.127644 0.137857 0.613268
v -0.136827 0.129760 0.603007
v -0.138571 0.130230 0.601103
v -0.121441 0.136801 0.612350
v -0.120390 0.138446 0.601368
v -0.128303 0.134822 0.599464
v -0.134617 0.133194 0.598235
v -0.140435 0.132555 0.600359
v -0.130899 0.137981 0.598080
v -0.136479 0.135878 0.597905
v -0.140891 0.135270 0.600286
v -0.133788 0.141826 0.598625
v -0.138822 0.139237 0.599156
v -0.124734 0.146341 0.600316
v -0.122193 0.142433 0.599349
v -0.140597 0.137680 0.600219
v -0.141139 0.130605 0.605194
v -0.142913 0.133048 0.603723
v -0.139401 0.130477 0.605959
v -0.132900 0.139281 0.612921
v -0.138418 0.136641 0.610555
v -0.134684 0.141589 0.612543
v -0.140252 0.138180 0.609984
v -0.141763 0.133846 0.608616
v -0.140506 0.132703 0.608607
v -0.122991 0.147019 0.601124
v -0.125978 0.150265 0.604833
v -0.127347 0.149903 0.604015
v -0.136073 0.144791 0.602588
v -0.128760 0.150689 0.608614
v -0.129959 0.147577 0.612772
v -0.135661 0.143912 0.611086
v -0.136770 0.145274 0.607384
v -0.141169 0.140098 0.609456
v -0.140361 0.142237 0.607087
v -0.140103 0.141757 0.602221
v -0.143792 0.137027 0.607133
v -0.142991 0.135001 0.608058
v -0.142986 0.135189 0.603083
v -0.142821 0.139507 0.605817
v -0.142225 0.138229 0.602378
v -0.117770 0.168147 0.611745
v -0.121320 0.170737 0.615612
v -0.120061 0.174000 0.614429
v -0.116435 0.171769 0.610772
v -0.106494 0.165342 0.617368
v -0.109524 0.164476 0.613418
v -0.107322 0.168804 0.612148
v -0.103574 0.170767 0.615814
v -0.107341 0.165900 0.623137
v -0.103658 0.173005 0.621858
v -0.101463 0.175812 0.614535
v -0.105564 0.173058 0.610826
v -0.105471 0.187150 0.606423
v -0.101943 0.189470 0.611438
v -0.113603 0.165917 0.611697
v -0.112101 0.169700 0.610546
v -0.120235 0.178144 0.622054
v -0.121313 0.176653 0.617407
v -0.121165 0.175349 0.619577
v -0.119576 0.176008 0.623595
v -0.115578 0.187775 0.604726
v -0.119232 0.189829 0.609020
v -0.110879 0.186381 0.604399
v -0.114897 0.179135 0.625918
v -0.107519 0.179530 0.626026
v -0.111208 0.192554 0.622137
v -0.117182 0.192017 0.620979
v -0.110495 0.172849 0.609192
v -0.119943 0.175572 0.612262
v -0.115907 0.173773 0.609016
v -0.102567 0.178403 0.620425
v -0.108736 0.174433 0.626861
v -0.122225 0.156957 0.631332
v -0.115715 0.171415 0.628434
v -0.120495 0.172658 0.624959
v -0.125921 0.158997 0.629907
v -0.115057 0.175457 0.627383
v -0.110441 0.169082 0.627891
v -0.125602 0.156736 0.615780
v -0.128093 0.159062 0.620218
v -0.121246 0.155321 0.614842
v -0.103798 0.192013 0.617968
v -0.121359 0.191083 0.616390
v -0.115266 0.152351 0.618628
v -0.118293 0.153790 0.615716
v -0.122015 0.172373 0.620733
v -0.128268 0.160091 0.626022
v -0.117377 0.155316 0.630103
v -0.113711 0.153744 0.624550
v -0.121094 0.150614 0.629768
v -0.117201 0.149129 0.624202
v -0.117897 0.149275 0.618123
v -0.120727 0.152384 0.615290
v -0.123443 0.154502 0.614758
v -0.125954 0.153552 0.630625
v -0.128733 0.156183 0.629295
v -0.128609 0.159497 0.625587
v -0.129579 0.151699 0.629584
v -0.127092 0.146976 0.627712
v -0.136429 0.144686 0.612391
v -0.130593 0.146305 0.614348
v -0.130797 0.145808 0.615430
v -0.136488 0.143600 0.613805
v -0.124056 0.146450 0.617365
v -0.125941 0.145864 0.617902
v -0.125816 0.145262 0.621923
v -0.132273 0.143587 0.620136
v -0.134248 0.146363 0.625366
v -0.139175 0.144480 0.622920
v -0.137763 0.141660 0.618109
v -0.128241 0.146288 0.625839
v -0.139796 0.142426 0.613631
v -0.140253 0.142546 0.611837
v -0.123143 0.145323 0.622997
v -0.124032 0.150613 0.614527
v -0.130972 0.148688 0.612390
v -0.136782 0.147115 0.610505
v -0.141248 0.145989 0.610975
v -0.132688 0.152201 0.612425
v -0.137661 0.150040 0.611228
v -0.141621 0.148845 0.611808
v -0.134621 0.154576 0.613995
v -0.138774 0.152381 0.613199
v -0.127140 0.157260 0.616300
v -0.125218 0.154520 0.614371
v -0.141426 0.150685 0.613328
v -0.143028 0.141754 0.615672
v -0.144974 0.145508 0.615390
v -0.141457 0.141729 0.616387
v -0.134494 0.147446 0.626844
v -0.140906 0.145556 0.624024
v -0.135820 0.149978 0.627362
v -0.141891 0.147959 0.624531
v -0.143609 0.143438 0.620684
v -0.142501 0.143049 0.620446
v -0.126270 0.156677 0.616275
v -0.128114 0.159069 0.620686
v -0.128691 0.159576 0.620566
v -0.136960 0.156638 0.618134
v -0.129675 0.159463 0.625241
v -0.131913 0.154777 0.628329
v -0.137013 0.152911 0.625828
v -0.137980 0.155520 0.622766
v -0.142095 0.150591 0.623442
v -0.141219 0.152842 0.621767
v -0.140708 0.154058 0.616823
v -0.144278 0.148842 0.620161
v -0.144668 0.145892 0.620880
v -0.144441 0.148684 0.615445
v -0.143475 0.151164 0.619388
v -0.143370 0.150965 0.615832
v -0.121421 0.190702 0.612944
v -0.125404 0.176284 0.623178
v -0.128482 0.177504 0.626129
v -0.128366 0.178202 0.625957
v -0.125698 0.177819 0.622272
v -0.114828 0.179044 0.626411
v -0.117637 0.176704 0.623383
v -0.116789 0.180374 0.622094
v -0.114271 0.182596 0.625121
v -0.115388 0.181582 0.631100
v -0.115634 0.184366 0.630134
v -0.115650 0.186554 0.623844
v -0.117968 0.184420 0.620360
v -0.122461 0.200220 0.616571
v -0.121641 0.204420 0.620106
v -0.141093 0.202391 0.625224
v -0.142392 0.200182 0.620742
v -0.138399 0.193329 0.624908
v -0.137433 0.196239 0.628488
v -0.121491 0.176077 0.622435
v -0.121370 0.178765 0.620675
v -0.129604 0.183010 0.633945
v -0.130807 0.181014 0.629561
v -0.130176 0.179477 0.629547
v -0.129944 0.180914 0.634017
v -0.139247 0.197383 0.617809
v -0.134357 0.196592 0.616774
v -0.133718 0.193020 0.617960
v -0.136043 0.191455 0.621235
v -0.128034 0.194361 0.616719
v -0.126074 0.185259 0.635660
v -0.120561 0.187517 0.634380
v -0.130953 0.204071 0.630617
v -0.134971 0.200808 0.630325
v -0.121431 0.181269 0.619934
v -0.129332 0.180332 0.624993
v -0.126299 0.179429 0.622179
v -0.116403 0.188150 0.629298
v -0.120412 0.184193 0.634778
v -0.126742 0.174520 0.639326
v -0.126136 0.181160 0.637304
v -0.130130 0.180145 0.634637
v -0.129791 0.174894 0.637764
v -0.126100 0.182342 0.636028
v -0.120442 0.181201 0.636169
v -0.127521 0.172002 0.625127
v -0.130545 0.173770 0.629600
v -0.124262 0.171124 0.624045
v -0.124868 0.206488 0.625292
v -0.117743 0.171225 0.627851
v -0.121048 0.170318 0.625014
v -0.130132 0.178572 0.630053
v -0.131470 0.174730 0.634188
v -0.121797 0.173752 0.638303
v -0.117296 0.173702 0.633291
v -0.123571 0.168685 0.638467
v -0.119155 0.169090 0.633636
v -0.120767 0.167934 0.627184
v -0.123795 0.169577 0.625004
v -0.126604 0.171074 0.624663
v -0.128451 0.170938 0.639660
v -0.130762 0.172341 0.638638
v -0.131823 0.173557 0.634822
v -0.130199 0.167371 0.639385
v -0.128257 0.164094 0.636277
v -0.136854 0.162850 0.626181
v -0.132864 0.164592 0.625968
v -0.132674 0.163784 0.626879
v -0.136414 0.161912 0.626551
v -0.127206 0.165430 0.626688
v -0.128600 0.164390 0.627735
v -0.126738 0.163999 0.631061
v -0.131866 0.161710 0.630624
v -0.133421 0.162308 0.635828
v -0.137138 0.160495 0.634930
v -0.135323 0.159827 0.630488
v -0.129015 0.163249 0.634905
v -0.138482 0.160007 0.627165
v -0.139848 0.160118 0.626655
v -0.123881 0.164441 0.631361
v -0.128501 0.168915 0.624857
v -0.134782 0.166281 0.624887
v -0.139265 0.163582 0.625397
v -0.141942 0.161298 0.627273
v -0.135774 0.168578 0.625289
v -0.140666 0.165393 0.625777
v -0.143059 0.163227 0.627754
v -0.137196 0.170781 0.627445
v -0.141305 0.167142 0.627529
v -0.132184 0.173560 0.627764
v -0.130658 0.171539 0.625296
v -0.142919 0.164767 0.628563
v -0.140420 0.158365 0.630216
v -0.142640 0.160480 0.630492
v -0.138701 0.158143 0.630500
v -0.133882 0.162978 0.637099
v -0.138461 0.160951 0.636012
v -0.135084 0.164695 0.638298
v -0.139908 0.162563 0.636430
v -0.140634 0.159274 0.633743
v -0.138744 0.158947 0.633246
v -0.129908 0.172413 0.626594
v -0.131335 0.173219 0.629832
v -0.133193 0.173786 0.631855
v -0.138025 0.171490 0.631715
v -0.132926 0.172995 0.636836
v -0.131820 0.170208 0.639445
v -0.136686 0.167048 0.638192
v -0.138073 0.169644 0.636321
v -0.141174 0.164243 0.635762
v -0.141814 0.166806 0.634228
v -0.141943 0.168036 0.630932
v -0.143044 0.162575 0.632869
v -0.142464 0.160843 0.633407
v -0.143494 0.162396 0.630571
v -0.143260 0.164406 0.632338
v -0.143321 0.164668 0.630623
v -0.137827 0.204030 0.627307
v -0.105656 0.157808 0.536285
v -0.105903 0.159089 0.541784
v -0.117824 0.149254 0.547825
v -0.111969 0.153377 0.549248
v -0.121070 0.145875 0.542562
v -0.119133 0.146208 0.531422
v -0.121922 0.145902 0.536631
v -0.107820 0.157080 0.546851
v -0.108392 0.155145 0.531175
v -0.114032 0.150501 0.528484
v -0.099880 0.149038 0.532229
v -0.106194 0.143090 0.529511
v -0.111449 0.138551 0.532134
v -0.116770 0.140289 0.538477
v -0.117883 0.141580 0.543449
v -0.101225 0.153996 0.538915
v -0.102795 0.155451 0.543867
v -0.106927 0.153579 0.548739
v -0.097430 0.150573 0.544793
v -0.095135 0.141452 0.546876
v -0.102829 0.125090 0.555658
v -0.105900 0.128972 0.550669
v -0.103234 0.129422 0.550286
v -0.100598 0.125518 0.554608
v -0.105491 0.131919 0.545458
v -0.103561 0.132374 0.546698
v -0.099892 0.136068 0.545565
v -0.097731 0.132486 0.550182
v -0.096578 0.139113 0.548136
v -0.095027 0.137553 0.552214
v -0.095365 0.129135 0.554442
v -0.097365 0.124042 0.556655
v -0.093587 0.126361 0.558059
v -0.099008 0.123534 0.559189
v -0.098181 0.135531 0.541918
v -0.111613 0.133944 0.543848
v -0.109196 0.129801 0.551346
v -0.105624 0.126266 0.557662
v -0.100843 0.124981 0.561394
v -0.111371 0.132310 0.554021
v -0.107231 0.129748 0.559424
v -0.102565 0.129215 0.562736
v -0.111050 0.136352 0.556804
v -0.106509 0.133447 0.560749
v -0.115542 0.143619 0.549809
v -0.115994 0.138258 0.546350
v -0.103164 0.131899 0.562449
v -0.093566 0.125911 0.560828
v -0.095556 0.127711 0.563064
v -0.094261 0.140761 0.552849
v -0.092458 0.134391 0.555989
v -0.092572 0.136686 0.557629
v -0.095446 0.144329 0.553990
v -0.093595 0.138574 0.559337
v -0.091581 0.131703 0.560388
v -0.091826 0.130654 0.557887
v -0.116651 0.145394 0.548196
v -0.112288 0.150077 0.549807
v -0.111609 0.148766 0.550959
v -0.107500 0.141953 0.558119
v -0.106303 0.151915 0.551181
v -0.100913 0.152426 0.548282
v -0.097936 0.145949 0.556143
v -0.102386 0.145485 0.557721
v -0.096635 0.139600 0.560791
v -0.099633 0.139417 0.561212
v -0.103698 0.136774 0.561773
v -0.096328 0.134767 0.562983
v -0.093195 0.133506 0.562269
v -0.098495 0.131022 0.563776
v -0.098703 0.135881 0.562550
v -0.100766 0.133543 0.563037
v -0.145275 0.203394 0.617349
v -0.141578 0.199538 0.613481
v -0.146380 0.201483 0.610605
v -0.153438 0.202350 0.604991
v -0.161819 0.208303 0.602944
v -0.149005 0.200008 0.599936
v -0.141962 0.199071 0.606103
v -0.134795 0.196650 0.610312
v -0.150230 0.200412 0.589761
f 780 781 779
f 779 781 782
f 783 784 786
f 786 784 785
f 787 782 788
f 788 782 781
f 790 791 789
f 789 791 787
f 792 790 794
f 794 790 793
f 796 797 795
f 795 797 798
f 800 801 799
f 799 801 802
f 804 805 803
f 803 805 806
f 808 809 807
f 807 809 810
f 811 812 814
f 814 812 813
f 815 816 818
f 818 816 817
f 819 820 784
f 784 820 821
f 784 821 785
f 785 821 822
f 823 812 824
f 824 812 811
f 826 827 825
f 825 827 828
f 830 831 829
f 829 831 832
f 834 830 833
f 833 830 829
f 836 837 835
f 835 837 838
f 839 840 782
f 782 840 779
f 842 843 841
f 841 843 844
f 846 847 845
f 845 847 848
f 850 851 849
f 849 851 852
f 854 855 853
f 853 855 856
f 831 857 832
f 832 857 858
f 860 861 859
f 859 861 862
f 863 864 830
f 830 864 831
f 835 838 865
f 865 838 866
f 867 868 821
f 821 868 822
f 821 820 867
f 867 820 869
f 818 817 870
f 870 817 871
f 872 848 842
f 842 848 847
f 791 839 787
f 787 839 782
f 803 806 847
f 847 806 873
f 874 803 846
f 846 803 847
f 876 877 875
f 875 877 878
f 879 880 882
f 882 880 881
f 884 808 883
f 883 808 807
f 829 832 885
f 885 832 886
f 832 858 886
f 886 858 887
f 889 890 888
f 888 890 891
f 893 783 892
f 892 783 894
f 893 819 783
f 783 819 784
f 814 813 889
f 889 813 895
f 813 896 895
f 895 896 897
f 812 898 813
f 813 898 896
f 812 823 898
f 898 823 899
f 903 904 902
f 902 904 905
f 906 907 792
f 792 907 908
f 811 909 824
f 824 909 910
f 911 872 841
f 841 872 842
f 912 913 915
f 915 913 914
f 917 918 916
f 916 918 919
f 855 920 856
f 856 920 921
f 922 923 798
f 798 923 924
f 926 927 925
f 925 927 850
f 929 930 928
f 928 930 931
f 860 879 861
f 861 879 882
f 879 860 933
f 933 860 932
f 934 935 836
f 836 935 837
f 936 846 925
f 925 846 845
f 937 924 793
f 793 924 794
f 846 936 874
f 874 936 938
f 907 844 908
f 908 844 843
f 940 941 939
f 939 941 942
f 944 945 943
f 943 945 946
f 948 949 947
f 947 949 950
f 952 949 951
f 951 949 948
f 954 955 953
f 953 955 956
f 958 959 957
f 957 959 802
f 960 961 799
f 799 961 962
f 859 963 860
f 860 963 932
f 964 965 966
f 966 965 922
f 936 849 938
f 938 849 967
f 968 913 935
f 935 913 837
f 947 950 917
f 917 950 918
f 925 850 936
f 936 850 849
f 970 971 969
f 969 971 972
f 945 944 827
f 827 944 973
f 974 968 828
f 828 968 935
f 975 976 978
f 978 976 977
f 799 802 960
f 960 802 959
f 924 937 798
f 798 937 795
f 960 959 859
f 859 959 963
f 979 963 958
f 958 963 959
f 980 981 861
f 861 981 862
f 983 984 982
f 982 984 863
f 985 800 962
f 962 800 799
f 957 802 986
f 986 802 801
f 986 987 957
f 957 987 983
f 987 988 983
f 983 988 984
f 990 984 989
f 989 984 988
f 957 983 958
f 958 983 982
f 991 954 866
f 866 954 992
f 864 863 990
f 990 863 984
f 971 995 996
f 995 997 996
f 996 997 998
f 997 796 998
f 998 796 795
f 797 999 798
f 798 999 922
f 1000 1001 1003
f 1003 1001 1002
f 953 1004 954
f 954 1004 992
f 1005 865 992
f 992 865 866
f 998 795 1006
f 1006 795 937
f 912 991 838
f 838 991 866
f 916 1007 929
f 929 1007 930
f 971 970 988
f 988 970 989
f 1008 972 996
f 996 972 971
f 1009 1010 1006
f 1006 1010 1008
f 1011 1012 869
f 869 1012 867
f 1013 1014 871
f 871 1014 870
f 1008 1010 1012
f 1012 1010 1015
f 825 1016 826
f 826 1016 1017
f 1018 969 1013
f 1013 969 1014
f 783 786 894
f 894 786 1019
f 1020 1021 967
f 967 1021 938
f 1022 1023 876
f 876 1023 877
f 934 1024 825
f 825 1024 1016
f 854 1025 855
f 855 1025 1026
f 1028 903 1027
f 1027 903 902
f 1030 1031 1029
f 1029 1031 1032
f 889 888 814
f 814 888 1033
f 1034 811 1033
f 1033 811 814
f 1035 1036 932
f 932 1036 933
f 841 947 911
f 911 947 917
f 844 948 841
f 841 948 947
f 951 948 907
f 907 948 844
f 907 906 951
f 951 906 1037
f 906 1038 1037
f 1037 1038 1039
f 991 912 1040
f 1040 912 915
f 1041 1042 964
f 964 1042 965
f 890 1043 891
f 891 1043 1044
f 789 1045 1046
f 1012 1011 1008
f 1008 1011 972
f 931 1047 848
f 848 1047 845
f 953 956 943
f 943 956 919
f 928 931 872
f 872 931 848
f 1049 999 1048
f 1048 999 985
f 1047 931 1050
f 1050 931 930
f 899 823 887
f 887 823 886
f 825 828 934
f 934 828 935
f 835 1051 836
f 836 1051 1052
f 923 1053 1038
f 1038 1053 1039
f 1054 927 921
f 921 927 856
f 926 1047 853
f 853 1047 1050
f 985 1055 1048
f 1048 1055 1056
f 973 974 827
f 827 974 828
f 837 913 838
f 838 913 912
f 861 882 980
f 980 882 1057
f 927 926 856
f 856 926 853
f 1025 1056 1026
f 1026 1056 1055
f 961 960 862
f 862 960 859
f 826 1017 1059
f 1059 1017 1060
f 1005 1001 1061
f 1061 1001 1000
f 1001 1004 1002
f 1002 1004 946
f 1059 1060 1002
f 1002 1060 1003
f 943 946 953
f 953 946 1004
f 1042 1041 916
f 916 1041 1007
f 792 794 906
f 906 794 1038
f 998 1006 996
f 996 1006 1008
f 865 1005 1062
f 1062 1005 1061
f 1038 794 923
f 923 794 924
f 1022 876 1036
f 1036 876 933
f 836 1052 934
f 934 1052 1024
f 885 1063 829
f 829 1063 833
f 1021 1064 938
f 938 1064 874
f 1012 1015 867
f 867 1015 868
f 824 910 885
f 885 910 1063
f 1031 1030 1027
f 1027 1030 1028
f 1064 804 874
f 874 804 803
f 884 883 1065
f 1065 883 1066
f 1050 930 1067
f 1067 930 1007
f 916 929 917
f 917 929 911
f 961 1068 939
f 939 1068 940
f 1069 1070 1055
f 1055 1070 1071
f 929 928 911
f 911 928 872
f 1040 1053 955
f 955 1053 965
f 922 965 923
f 923 965 1053
f 1051 835 1062
f 1062 835 865
f 952 914 968
f 968 914 913
f 889 895 890
f 890 895 816
f 895 897 816
f 816 897 901
f 890 816 1043
f 1043 816 815
f 1065 1066 1032
f 1032 1066 1029
f 1006 937 1009
f 1009 937 793
f 1001 1005 1004
f 1004 1005 992
f 925 845 926
f 926 845 1047
f 1002 946 1059
f 1059 946 945
f 977 941 978
f 978 941 940
f 823 824 886
f 886 824 885
f 1059 945 826
f 826 945 827
f 939 942 1069
f 1069 942 1070
f 816 901 817
f 1071 1072 1055
f 1055 1072 1026
f 1062 1061 1074
f 1074 1061 1073
f 1062 1074 1051
f 1051 1074 1075
f 1052 1051 1076
f 1076 1051 1075
f 1024 1052 1077
f 1077 1052 1076
f 1061 1000 1073
f 1073 1000 1078
f 1000 1003 1078
f 1078 1003 1079
f 1079 1003 1080
f 1080 1003 1060
f 1081 1082 1078
f 1078 1082 1073
f 1084 1085 1083
f 1083 1085 1086
f 1087 1088 1086
f 1086 1088 1083
f 1086 1085 1090
f 1090 1085 1089
f 1091 1092 1090
f 1090 1092 1093
f 1089 1094 1090
f 1090 1094 1091
f 1095 1082 1089
f 1089 1082 1094
f 1093 1087 1090
f 1090 1087 1086
f 1096 1097 1099
f 1099 1097 1098
f 1097 1096 1087
f 1087 1096 1088
f 1089 1085 1095
f 1095 1085 1084
f 1084 1075 1095
f 1095 1075 1074
f 1084 1100 1075
f 1075 1100 1076
f 1083 1101 1084
f 1084 1101 1100
f 1101 1083 1102
f 1102 1083 1088
f 1082 1095 1073
f 1073 1095 1074
f 1096 1103 1088
f 1088 1103 1102
f 1101 1102 1104
f 1104 1102 1105
f 1102 1103 1105
f 1105 1103 1106
f 1104 1105 1107
f 1107 1105 1108
f 1107 1109 1104
f 1104 1109 1110
f 1111 1108 1106
f 1106 1108 1105
f 1101 1104 1100
f 1100 1104 1110
f 1100 1110 1076
f 1076 1110 1077
f 1103 1096 1112
f 1112 1096 1099
f 1091 1094 1113
f 1113 1094 1082
f 1113 1114 1091
f 1091 1114 1092
f 1082 1081 1113
f 1113 1081 1115
f 1114 1113 1116
f 1116 1113 1115
f 1114 1117 1092
f 1092 1117 1118
f 1024 1077 1016
f 1016 1077 1119
f 1017 1120 1060
f 1060 1120 1080
f 1120 1017 1119
f 1119 1017 1016
f 1119 1109 1120
f 1120 1109 1121
f 1109 1107 1121
f 1121 1107 1122
f 1120 1121 1080
f 1080 1121 1123
f 1119 1077 1109
f 1109 1077 1110
f 1124 1079 1123
f 1123 1079 1080
f 1124 1081 1079
f 1079 1081 1078
f 1125 1115 1124
f 1124 1115 1081
f 1125 1124 1126
f 1126 1124 1123
f 1127 1125 1128
f 1128 1125 1126
f 1121 1122 1123
f 1123 1122 1126
f 1122 1129 1126
f 1126 1129 1128
f 1115 1125 1116
f 1116 1125 1127
f 1131 1116 1130
f 1130 1116 1127
f 1130 1133 1132
f 1132 1133 1134
f 1130 1127 1133
f 1133 1127 1128
f 1130 1132 1131
f 1131 1132 1112
f 1131 1112 1117
f 1117 1112 1099
f 1117 1114 1131
f 1131 1114 1116
f 1107 1108 1122
f 1122 1108 1129
f 1134 1129 1111
f 1111 1129 1108
f 1134 1133 1129
f 1129 1133 1128
f 1132 1134 1106
f 1106 1134 1111
f 1106 1103 1132
f 1132 1103 1112
f 1087 1093 1097
f 1097 1093 1098
f 1098 1118 1099
f 1099 1118 1117
f 1098 1093 1118
f 1118 1093 1092
f 915 914 1039
f 1039 914 1037
f 918 944 919
f 919 944 943
f 950 949 973
f 973 949 974
f 949 952 974
f 974 952 968
f 956 955 1042
f 1042 955 965
f 950 973 918
f 918 973 944
f 915 1039 1040
f 1040 1039 1053
f 956 1042 919
f 919 1042 916
f 1040 955 991
f 991 955 954
f 914 952 1037
f 1037 952 951
f 1136 1137 1135
f 1135 1137 1138
f 1140 1141 1139
f 1139 1141 1142
f 1139 1142 1143
f 1143 1142 1144
f 1145 1146 1148
f 1148 1146 1147
f 854 1149 1025
f 1025 1149 1150
f 1151 1152 1140
f 1140 1152 1141
f 1154 1155 1153
f 1153 1155 1156
f 1067 1007 1158
f 1158 1007 1157
f 1159 1157 1041
f 1041 1157 1007
f 1161 1162 1160
f 1160 1162 1163
f 1164 1146 1152
f 1152 1146 1141
f 854 1067 1149
f 1149 1067 1158
f 1155 1154 1137
f 1137 1154 1165
f 1166 1164 1138
f 1138 1164 1152
f 1167 1161 1144
f 1144 1161 1168
f 1170 1171 1169
f 1169 1171 1172
f 1161 1160 1168
f 1168 1160 1173
f 1174 1143 1168
f 1168 1143 1144
f 1167 1144 1145
f 1145 1144 1142
f 1135 1175 1136
f 1136 1175 1176
f 1151 1177 1135
f 1135 1177 1175
f 1167 1145 1178
f 1178 1145 1148
f 1160 1163 1153
f 1153 1163 1150
f 1135 1138 1151
f 1151 1138 1152
f 1139 1179 1140
f 1140 1179 1180
f 1165 1166 1137
f 1137 1166 1138
f 1141 1146 1142
f 1142 1146 1145
f 1136 1176 1181
f 1181 1176 1182
f 1174 1170 1183
f 1183 1170 1169
f 1170 1173 1171
f 1171 1173 1156
f 1171 1181 1172
f 1172 1181 1182
f 1153 1156 1160
f 1160 1156 1173
f 1143 1174 1184
f 1184 1174 1183
f 1140 1180 1151
f 1151 1180 1177
f 1049 1048 1178
f 1178 1048 1162
f 1179 1139 1184
f 1184 1139 1143
f 1159 1147 1164
f 1164 1147 1146
f 1170 1174 1173
f 1173 1174 1168
f 1171 1156 1181
f 1181 1156 1155
f 1181 1155 1136
f 1136 1155 1137
f 1184 1183 1186
f 1186 1183 1185
f 1184 1186 1179
f 1179 1186 1187
f 1179 1187 1180
f 1180 1187 1188
f 1180 1188 1177
f 1177 1188 1189
f 1183 1169 1185
f 1185 1169 1190
f 1169 1172 1190
f 1190 1172 1191
f 1172 1182 1191
f 1191 1182 1192
f 1193 1194 1190
f 1190 1194 1185
f 1196 1197 1195
f 1195 1197 1198
f 1199 1200 1196
f 1196 1200 1197
f 1197 1200 1202
f 1202 1200 1201
f 1203 1204 1202
f 1202 1204 1205
f 1201 1206 1202
f 1202 1206 1203
f 1205 1198 1202
f 1202 1198 1197
f 1198 1207 1195
f 1195 1207 1208
f 1201 1200 1209
f 1209 1200 1199
f 1199 1187 1209
f 1209 1187 1186
f 1199 1210 1187
f 1187 1210 1188
f 1196 1211 1199
f 1199 1211 1210
f 1212 1211 1195
f 1195 1211 1196
f 1209 1194 1201
f 1201 1194 1206
f 1194 1209 1185
f 1185 1209 1186
f 1213 1212 1208
f 1208 1212 1195
f 1211 1212 1214
f 1214 1212 1215
f 1212 1213 1215
f 1215 1213 1216
f 1214 1215 1217
f 1217 1215 1218
f 1217 1219 1214
f 1214 1219 1220
f 1216 1221 1215
f 1215 1221 1218
f 1214 1220 1211
f 1211 1220 1210
f 1210 1220 1188
f 1188 1220 1189
f 1213 1208 1223
f 1223 1208 1222
f 1208 1207 1222
f 1222 1207 1224
f 1203 1206 1225
f 1225 1206 1194
f 1204 1203 1226
f 1226 1203 1225
f 1194 1193 1225
f 1225 1193 1227
f 1225 1227 1226
f 1226 1227 1228
f 1229 1230 1226
f 1226 1230 1204
f 1224 1230 1222
f 1222 1230 1229
f 1177 1189 1175
f 1175 1189 1231
f 1176 1232 1182
f 1182 1232 1192
f 1232 1176 1231
f 1231 1176 1175
f 1231 1219 1232
f 1232 1219 1233
f 1219 1217 1233
f 1233 1217 1234
f 1232 1233 1192
f 1192 1233 1235
f 1219 1231 1220
f 1220 1231 1189
f 1236 1191 1235
f 1235 1191 1192
f 1236 1193 1191
f 1191 1193 1190
f 1236 1237 1193
f 1193 1237 1227
f 1237 1236 1238
f 1238 1236 1235
f 1239 1237 1240
f 1240 1237 1238
f 1233 1234 1235
f 1235 1234 1238
f 1234 1241 1238
f 1238 1241 1240
f 1237 1239 1227
f 1227 1239 1228
f 1243 1228 1242
f 1242 1228 1239
f 1242 1245 1244
f 1244 1245 1246
f 1242 1239 1245
f 1245 1239 1240
f 1242 1244 1243
f 1243 1244 1223
f 1243 1223 1229
f 1229 1223 1222
f 1229 1226 1243
f 1243 1226 1228
f 1217 1218 1234
f 1234 1218 1241
f 1246 1241 1221
f 1221 1241 1218
f 1246 1245 1241
f 1241 1245 1240
f 1244 1246 1216
f 1216 1246 1221
f 1216 1213 1244
f 1244 1213 1223
f 1198 1205 1207
f 1207 1205 1224
f 1224 1205 1230
f 1230 1205 1204
f 1148 1147 966
f 966 1147 964
f 1149 1154 1150
f 1150 1154 1153
f 1158 1157 1165
f 1165 1157 1166
f 1157 1159 1166
f 1166 1159 1164
f 1163 1162 1056
f 1056 1162 1048
f 1158 1165 1149
f 1149 1165 1154
f 1178 1148 1049
f 1049 1148 966
f 1163 1056 1150
f 1150 1056 1025
f 1178 1162 1167
f 1167 1162 1161
f 1147 1159 964
f 964 1159 1041
f 999 1049 922
f 922 1049 966
f 999 797 985
f 985 797 800
f 797 796 800
f 800 796 801
f 796 997 801
f 801 997 986
f 1247 1248 1250
f 1250 1248 1249
f 1252 1253 1251
f 1251 1253 1254
f 1251 1254 1255
f 1255 1254 1256
f 1258 1259 1257
f 1257 1259 1260
f 1261 1262 1252
f 1252 1262 1253
f 1264 1265 1263
f 1263 1265 1266
f 1267 1268 855
f 855 1268 920
f 1269 1267 1026
f 1026 1267 855
f 1271 1272 1270
f 1270 1272 1273
f 1274 1258 1262
f 1262 1258 1253
f 1264 1275 1265
f 1265 1275 1249
f 1276 1274 1250
f 1250 1274 1262
f 1277 1271 1256
f 1256 1271 1278
f 1279 1280 1282
f 1282 1280 1281
f 1271 1270 1278
f 1278 1270 1283
f 1284 1255 1278
f 1278 1255 1256
f 1277 1256 1257
f 1257 1256 1254
f 1247 1285 1248
f 1248 1285 1286
f 1261 1287 1247
f 1247 1287 1285
f 1257 1260 1277
f 1277 1260 1288
f 1270 1273 1263
f 1263 1273 1289
f 1261 1247 1262
f 1262 1247 1250
f 1251 1290 1252
f 1252 1290 1291
f 1275 1276 1249
f 1249 1276 1250
f 1253 1258 1254
f 1254 1258 1257
f 1248 1286 1292
f 1292 1286 1293
f 1284 1280 1294
f 1294 1280 1279
f 1281 1280 1266
f 1266 1280 1283
f 1292 1293 1281
f 1281 1293 1282
f 1263 1266 1270
f 1270 1266 1283
f 1255 1284 1295
f 1295 1284 1294
f 1252 1291 1261
f 1261 1291 1287
f 1288 1070 1272
f 1272 1070 942
f 1290 1251 1295
f 1295 1251 1255
f 1269 1259 1274
f 1274 1259 1258
f 1280 1284 1283
f 1283 1284 1278
f 1281 1266 1292
f 1292 1266 1265
f 1292 1265 1248
f 1248 1265 1249
f 1295 1294 1297
f 1297 1294 1296
f 1295 1297 1290
f 1290 1297 1298
f 1290 1298 1291
f 1291 1298 1299
f 1291 1299 1287
f 1287 1299 1300
f 1294 1279 1296
f 1296 1279 1301
f 1279 1282 1301
f 1301 1282 1302
f 1302 1282 1303
f 1303 1282 1293
f 1304 1305 1301
f 1301 1305 1296
f 1307 1308 1306
f 1306 1308 1309
f 1310 1311 1307
f 1307 1311 1308
f 1308 1311 1313
f 1313 1311 1312
f 1314 1315 1313
f 1313 1315 1316
f 1312 1317 1313
f 1313 1317 1314
f 1316 1309 1313
f 1313 1309 1308
f 1318 1319 1309
f 1309 1319 1306
f 1311 1310 1312
f 1312 1310 1320
f 1310 1298 1320
f 1320 1298 1297
f 1310 1321 1298
f 1298 1321 1299
f 1307 1322 1310
f 1310 1322 1321
f 1322 1307 1323
f 1323 1307 1306
f 1312 1320 1317
f 1317 1320 1305
f 1305 1320 1296
f 1296 1320 1297
f 1319 1324 1306
f 1306 1324 1323
f 1325 1322 1326
f 1326 1322 1323
f 1324 1327 1323
f 1323 1327 1326
f 1328 1325 1329
f 1329 1325 1326
f 1325 1328 1331
f 1331 1328 1330
f 1327 1332 1326
f 1326 1332 1329
f 1322 1325 1321
f 1321 1325 1331
f 1321 1331 1299
f 1299 1331 1300
f 1324 1319 1334
f 1334 1319 1333
f 1319 1318 1333
f 1333 1318 1335
f 1314 1317 1336
f 1336 1317 1305
f 1315 1314 1337
f 1337 1314 1336
f 1305 1304 1336
f 1336 1304 1338
f 1337 1336 1339
f 1339 1336 1338
f 1337 1340 1315
f 1315 1340 1341
f 1335 1341 1333
f 1333 1341 1340
f 1287 1300 1285
f 1285 1300 1342
f 1286 1343 1293
f 1293 1343 1303
f 1343 1286 1342
f 1342 1286 1285
f 1342 1330 1343
f 1343 1330 1344
f 1330 1328 1344
f 1344 1328 1345
f 1343 1344 1303
f 1303 1344 1346
f 1342 1300 1330
f 1330 1300 1331
f 1347 1302 1346
f 1346 1302 1303
f 1347 1304 1302
f 1302 1304 1301
f 1348 1338 1347
f 1347 1338 1304
f 1348 1347 1349
f 1349 1347 1346
f 1350 1348 1351
f 1351 1348 1349
f 1344 1345 1346
f 1346 1345 1349
f 1345 1352 1349
f 1349 1352 1351
f 1348 1350 1338
f 1338 1350 1339
f 1354 1339 1353
f 1353 1339 1350
f 1353 1356 1355
f 1355 1356 1357
f 1353 1350 1356
f 1356 1350 1351
f 1353 1355 1354
f 1354 1355 1334
f 1354 1334 1340
f 1340 1334 1333
f 1340 1337 1354
f 1354 1337 1339
f 1328 1329 1345
f 1345 1329 1352
f 1357 1352 1332
f 1332 1352 1329
f 1357 1356 1352
f 1352 1356 1351
f 1357 1332 1355
f 1355 1332 1327
f 1327 1324 1355
f 1355 1324 1334
f 1309 1316 1318
f 1318 1316 1335
f 1335 1316 1341
f 1341 1316 1315
f 1259 1072 1260
f 1260 1072 1071
f 1358 1264 1289
f 1289 1264 1263
f 1268 1267 1275
f 1275 1267 1276
f 1267 1269 1276
f 1276 1269 1274
f 941 1273 942
f 942 1273 1272
f 1358 1268 1264
f 1264 1268 1275
f 1260 1071 1288
f 1288 1071 1070
f 1273 941 1289
f 1289 941 977
f 1272 1271 1288
f 1288 1271 1277
f 1259 1269 1072
f 1072 1269 1026
f 1360 1361 1359
f 1359 1361 1362
f 1364 1365 1363
f 1363 1365 1366
f 1363 1366 1367
f 1367 1366 1368
f 1370 1371 1369
f 1369 1371 1372
f 1373 1374 1376
f 1376 1374 1375
f 1377 1378 1364
f 1364 1378 1365
f 1379 1380 1382
f 1382 1380 1381
f 1383 1384 1386
f 1386 1384 1385
f 1387 1385 978
f 978 1385 1384
f 1388 1389 1391
f 1391 1389 1390
f 1378 1392 1365
f 1365 1392 1370
f 1374 1383 1375
f 1375 1383 1386
f 1380 1393 1381
f 1381 1393 1361
f 1394 1392 1362
f 1362 1392 1378
f 1389 1396 1395
f 1395 1396 1368
f 1398 1399 1397
f 1397 1399 1400
f 1388 1401 1389
f 1389 1401 1396
f 1402 1367 1396
f 1396 1367 1368
f 1395 1368 1369
f 1369 1368 1366
f 1359 1403 1360
f 1360 1403 1404
f 1377 1405 1359
f 1359 1405 1403
f 1369 1372 1395
f 1395 1372 1406
f 1379 1388 1376
f 1376 1388 1391
f 1359 1362 1377
f 1377 1362 1378
f 1363 1407 1364
f 1364 1407 1408
f 1393 1394 1361
f 1361 1394 1362
f 1365 1370 1366
f 1366 1370 1369
f 1360 1404 1409
f 1409 1404 1410
f 1402 1398 1411
f 1411 1398 1397
f 1399 1398 1382
f 1382 1398 1401
f 1409 1410 1399
f 1399 1410 1400
f 1388 1379 1401
f 1401 1379 1382
f 1367 1402 1412
f 1412 1402 1411
f 1364 1408 1377
f 1377 1408 1405
f 981 980 1406
f 1406 980 1390
f 1407 1363 1412
f 1412 1363 1367
f 1387 1371 1392
f 1392 1371 1370
f 1398 1402 1401
f 1401 1402 1396
f 1409 1399 1381
f 1381 1399 1382
f 1360 1409 1361
f 1361 1409 1381
f 1412 1411 1414
f 1414 1411 1413
f 1412 1414 1407
f 1407 1414 1415
f 1407 1415 1408
f 1408 1415 1416
f 1408 1416 1405
f 1405 1416 1417
f 1411 1397 1413
f 1413 1397 1418
f 1397 1400 1418
f 1418 1400 1419
f 1419 1400 1420
f 1420 1400 1410
f 1422 1413 1421
f 1421 1413 1418
f 1423 1424 1426
f 1426 1424 1425
f 1427 1428 1424
f 1424 1428 1425
f 1425 1428 1430
f 1430 1428 1429
f 1430 1431 1433
f 1433 1431 1432
f 1429 1434 1430
f 1430 1434 1431
f 1433 1426 1430
f 1430 1426 1425
f 1426 1435 1423
f 1423 1435 1436
f 1428 1427 1429
f 1429 1427 1437
f 1427 1415 1437
f 1437 1415 1414
f 1427 1438 1415
f 1415 1438 1416
f 1439 1438 1424
f 1424 1438 1427
f 1440 1439 1423
f 1423 1439 1424
f 1429 1437 1434
f 1434 1437 1422
f 1422 1437 1413
f 1413 1437 1414
f 1441 1440 1436
f 1436 1440 1423
f 1442 1439 1443
f 1443 1439 1440
f 1441 1444 1440
f 1440 1444 1443
f 1445 1442 1446
f 1446 1442 1443
f 1442 1445 1448
f 1448 1445 1447
f 1444 1449 1443
f 1443 1449 1446
f 1439 1442 1438
f 1438 1442 1448
f 1438 1448 1416
f 1416 1448 1417
f 1436 1450 1441
f 1441 1450 1451
f 1436 1435 1450
f 1450 1435 1452
f 1431 1434 1453
f 1453 1434 1422
f 1431 1453 1432
f 1432 1453 1454
f 1453 1422 1455
f 1455 1422 1421
f 1454 1453 1456
f 1456 1453 1455
f 1457 1458 1454
f 1454 1458 1432
f 1452 1458 1450
f 1450 1458 1457
f 1405 1417 1403
f 1403 1417 1459
f 1404 1460 1410
f 1410 1460 1420
f 1459 1460 1403
f 1403 1460 1404
f 1447 1461 1459
f 1459 1461 1460
f 1445 1462 1447
f 1447 1462 1461
f 1460 1461 1420
f 1420 1461 1463
f 1459 1417 1447
f 1447 1417 1448
f 1464 1419 1463
f 1463 1419 1420
f 1419 1464 1418
f 1418 1464 1421
f 1464 1465 1421
f 1421 1465 1455
f 1465 1464 1466
f 1466 1464 1463
f 1467 1465 1468
f 1468 1465 1466
f 1461 1462 1463
f 1463 1462 1466
f 1462 1469 1466
f 1466 1469 1468
f 1465 1467 1455
f 1455 1467 1456
f 1471 1456 1470
f 1470 1456 1467
f 1470 1473 1472
f 1472 1473 1474
f 1470 1467 1473
f 1473 1467 1468
f 1470 1472 1471
f 1471 1472 1451
f 1471 1451 1457
f 1457 1451 1450
f 1457 1454 1471
f 1471 1454 1456
f 1462 1445 1469
f 1469 1445 1446
f 1474 1469 1449
f 1449 1469 1446
f 1474 1473 1469
f 1469 1473 1468
f 1472 1474 1444
f 1444 1474 1449
f 1444 1441 1472
f 1472 1441 1451
f 1426 1433 1435
f 1435 1433 1452
f 1452 1433 1458
f 1458 1433 1432
f 1371 940 1372
f 1372 940 1068
f 1376 1375 1379
f 1379 1375 1380
f 1393 1386 1394
f 1394 1386 1385
f 1385 1387 1394
f 1394 1387 1392
f 1475 1373 1391
f 1391 1373 1376
f 1375 1386 1380
f 1380 1386 1393
f 1372 1068 1406
f 1406 1068 981
f 1406 1390 1395
f 1395 1390 1389
f 1371 1387 940
f 940 1387 978
f 883 807 1476
f 1476 807 1477
f 1046 904 1479
f 1479 904 1478
f 904 903 1478
f 1478 903 1480
f 1030 1481 1028
f 1028 1481 1482
f 810 1046 1483
f 1483 1046 1479
f 1066 883 1484
f 1484 883 1476
f 807 810 1477
f 1477 810 1483
f 1485 1029 1484
f 1484 1029 1066
f 1028 1482 903
f 903 1482 1480
f 1481 1030 1485
f 1485 1030 1029
f 1484 1486 1485
f 1485 1486 1487
f 1485 1487 1481
f 1481 1487 1488
f 1481 1488 1482
f 1482 1488 1489
f 1482 1489 1480
f 1480 1489 1490
f 1484 1476 1486
f 1486 1476 1491
f 1476 1477 1491
f 1491 1477 1492
f 1477 1483 1492
f 1492 1483 1493
f 1495 1486 1494
f 1494 1486 1491
f 1497 1498 1496
f 1496 1498 1499
f 1500 1501 1497
f 1497 1501 1498
f 1502 1503 1501
f 1501 1503 1498
f 1502 1504 1503
f 1503 1504 1505
f 1506 1499 1503
f 1503 1499 1498
f 1499 1506 1507
f 1507 1506 1508
f 1507 1509 1499
f 1499 1509 1496
f 1502 1501 1510
f 1510 1501 1500
f 1500 1488 1510
f 1510 1488 1487
f 1500 1511 1488
f 1488 1511 1489
f 1497 1512 1500
f 1500 1512 1511
f 1512 1497 1513
f 1513 1497 1496
f 1502 1510 1504
f 1504 1510 1495
f 1495 1510 1486
f 1486 1510 1487
f 1509 1514 1496
f 1496 1514 1513
f 1515 1512 1516
f 1516 1512 1513
f 1514 1517 1513
f 1513 1517 1516
f 1518 1515 1519
f 1519 1515 1516
f 1515 1518 1521
f 1521 1518 1520
f 1517 1522 1516
f 1516 1522 1519
f 1512 1515 1511
f 1511 1515 1521
f 1511 1521 1489
f 1489 1521 1490
f 1514 1509 1524
f 1524 1509 1523
f 1509 1507 1523
f 1523 1507 1508
f 1505 1504 1525
f 1525 1504 1495
f 1526 1505 1527
f 1527 1505 1525
f 1525 1495 1528
f 1528 1495 1494
f 1527 1525 1529
f 1529 1525 1528
f 1527 1530 1526
f 1526 1530 1531
f 1508 1531 1523
f 1523 1531 1530
f 1506 1503 1526
f 1526 1503 1505
f 1508 1506 1531
f 1531 1506 1526
f 1478 1480 1532
f 1532 1480 1490
f 1483 1479 1493
f 1493 1479 1533
f 1532 1533 1478
f 1478 1533 1479
f 1520 1534 1532
f 1532 1534 1533
f 1518 1535 1520
f 1520 1535 1534
f 1533 1534 1493
f 1493 1534 1536
f 1532 1490 1520
f 1520 1490 1521
f 1537 1492 1536
f 1536 1492 1493
f 1492 1537 1491
f 1491 1537 1494
f 1537 1538 1494
f 1494 1538 1528
f 1538 1537 1539
f 1539 1537 1536
f 1540 1538 1541
f 1541 1538 1539
f 1534 1535 1536
f 1536 1535 1539
f 1535 1542 1539
f 1539 1542 1541
f 1538 1540 1528
f 1528 1540 1529
f 1544 1529 1543
f 1543 1529 1540
f 1545 1543 1547
f 1547 1543 1546
f 1543 1540 1546
f 1546 1540 1541
f 1543 1545 1544
f 1544 1545 1524
f 1544 1524 1530
f 1530 1524 1523
f 1530 1527 1544
f 1544 1527 1529
f 1535 1518 1542
f 1542 1518 1519
f 1547 1542 1522
f 1522 1542 1519
f 1547 1546 1542
f 1542 1546 1541
f 1545 1547 1517
f 1517 1547 1522
f 1517 1514 1545
f 1545 1514 1524
f 997 995 986
f 986 995 987
f 987 995 988
f 988 995 971
f 976 1358 977
f 977 1358 1289
f 854 853 1067
f 1067 853 1050
f 1055 985 1069
f 1069 985 962
f 1068 961 981
f 981 961 862
f 1268 1358 920
f 920 1358 976
f 920 976 921
f 921 976 975
f 927 1054 850
f 850 1054 851
f 882 881 1057
f 1057 881 1548
f 1548 1374 1057
f 1057 1374 1373
f 1383 1374 1549
f 1549 1374 1548
f 1549 1548 1550
f 1550 1548 881
f 1550 881 1551
f 1551 881 880
f 933 1552 879
f 879 1552 880
f 1551 880 875
f 875 880 1552
f 1553 1551 878
f 878 1551 875
f 1551 1553 1550
f 1550 1553 1554
f 1550 1554 1549
f 1549 1554 1555
f 978 1384 975
f 975 1384 1555
f 967 849 1556
f 1556 849 852
f 875 1552 876
f 876 1552 933
f 961 939 962
f 962 939 1069
f 1555 1054 975
f 975 1054 921
f 1555 1384 1549
f 1549 1384 1383
f 1391 1390 1475
f 1475 1390 980
f 1373 1475 1057
f 1057 1475 980
f 851 1054 1554
f 1554 1054 1555
f 1554 1553 851
f 851 1553 852
f 878 1556 1553
f 1553 1556 852
f 1556 878 967
f 967 878 877
f 1023 1020 877
f 877 1020 967
f 909 811 1034
f 806 779 873
f 873 779 840
f 805 780 806
f 806 780 779
f 1043 893 1044
f 1044 893 892
f 873 840 847
f 847 840 842
f 840 839 842
f 842 839 843
f 839 791 843
f 843 791 908
f 791 790 908
f 908 790 792
f 809 789 810
f 810 789 1046
f 793 790 809
f 809 790 789
f 809 808 793
f 793 808 1009
f 808 884 1009
f 1009 884 1010
f 1065 1015 884
f 884 1015 1010
f 1032 868 1065
f 1065 868 1015
f 1031 822 1032
f 1032 822 868
f 1031 1027 822
f 822 1027 785
f 1045 905 1046
f 1046 905 904
f 788 781 1019
f 1019 781 894
f 781 780 894
f 894 780 892
f 780 805 892
f 892 805 1044
f 805 804 1044
f 1044 804 891
f 804 1064 891
f 891 1064 888
f 1064 1021 888
f 888 1021 1033
f 1021 1020 1033
f 1033 1020 1034
f 1020 1023 1034
f 1034 1023 909
f 1023 1022 909
f 909 1022 910
f 1043 815 893
f 893 815 819
f 819 815 820
f 820 815 818
f 870 869 818
f 818 869 820
f 1014 1011 870
f 870 1011 869
f 969 972 1014
f 1014 972 1011
f 1036 1063 1022
f 1022 1063 910
f 1035 833 1036
f 1036 833 1063
f 1035 932 979
f 979 932 963
f 834 979 982
f 982 979 958
f 833 1035 834
f 834 1035 979
f 982 863 834
f 834 863 830
f 864 900 831
f 831 900 857
f 990 993 864
f 864 993 900
f 989 994 990
f 990 994 993
f 970 1058 989
f 989 1058 994
f 969 1018 970
f 970 1018 1058
f 1027 902 785
f 785 902 786
f 902 905 786
f 786 905 1019
f 905 1045 1019
f 1019 1045 788
f 788 1045 787
f 787 1045 789
