o hand_left
v 0.088663 -0.102627 0.674618
v 0.078481 -0.102066 0.670468
v 0.084690 -0.094086 0.673609
v 0.094451 -0.095116 0.676165
v 0.065714 -0.085872 0.665899
v 0.063594 -0.079335 0.655557
v 0.076039 -0.071869 0.663488
v 0.075088 -0.078559 0.671488
v 0.100644 -0.090281 0.676233
v 0.090125 -0.088208 0.676024
v 0.104441 -0.089757 0.672434
v 0.115771 -0.094731 0.669579
v 0.110758 -0.093326 0.675157
v 0.123169 -0.098068 0.671505
v 0.115104 -0.100192 0.659633
v 0.125872 -0.106628 0.667683
v 0.106056 -0.127719 0.660137
v 0.098593 -0.137876 0.665030
v 0.111621 -0.138591 0.676295
v 0.117547 -0.127454 0.670750
v 0.094603 -0.149293 0.682357
v 0.104657 -0.143602 0.679574
v 0.092234 -0.143758 0.667624
v 0.083804 -0.148735 0.670776
v 0.078110 -0.114680 0.675218
v 0.068406 -0.114801 0.670170
v 0.072349 -0.110918 0.669149
v 0.081546 -0.110601 0.673947
v 0.105234 -0.081393 0.666764
v 0.104748 -0.087538 0.656522
v 0.107127 -0.089841 0.663952
v 0.103349 -0.082543 0.671989
v 0.040109 -0.116844 0.664172
v 0.033852 -0.119490 0.652445
v 0.036859 -0.115540 0.649216
v 0.042165 -0.114350 0.660455
v 0.048897 -0.095703 0.645323
v 0.044939 -0.103050 0.638413
v 0.048899 -0.102204 0.625219
v 0.055753 -0.096320 0.630270
v 0.055617 -0.086667 0.651120
v 0.060365 -0.086195 0.637874
v 0.068497 -0.077912 0.644862
v 0.080552 -0.069648 0.655484
v 0.028736 -0.130119 0.657638
v 0.032248 -0.129368 0.667222
v 0.138028 -0.091571 0.713947
v 0.134063 -0.095374 0.716434
v 0.133436 -0.096228 0.713791
v 0.137543 -0.092383 0.711760
v 0.035885 -0.148927 0.660260
v 0.041832 -0.154934 0.654696
v 0.035381 -0.154534 0.651271
v 0.030396 -0.147560 0.655205
v 0.043159 -0.150621 0.666933
v 0.050742 -0.154707 0.659554
v 0.150064 -0.094846 0.717264
v 0.146896 -0.091155 0.715391
v 0.148035 -0.093441 0.711660
v 0.150943 -0.097941 0.712910
v 0.104111 -0.095719 0.678240
v 0.097088 -0.101918 0.679601
v 0.117992 -0.098274 0.688426
v 0.109978 -0.100991 0.684824
v 0.113026 -0.096337 0.680362
v 0.120130 -0.095347 0.683158
v 0.094800 -0.118440 0.690401
v 0.085747 -0.117956 0.682908
v 0.090382 -0.113462 0.681430
v 0.100738 -0.112220 0.689243
v 0.076027 -0.126008 0.689481
v 0.085935 -0.126150 0.696061
v 0.079267 -0.130729 0.699015
v 0.072956 -0.129110 0.694373
v 0.104623 -0.124691 0.704933
v 0.110502 -0.125261 0.708189
v 0.108803 -0.126931 0.710573
v 0.102060 -0.127072 0.706183
v 0.029697 -0.154571 0.646995
v 0.025817 -0.145941 0.649748
v 0.076677 -0.157935 0.691212
v 0.066074 -0.156321 0.694503
v 0.074316 -0.158464 0.705247
v 0.083772 -0.159967 0.698676
v 0.050156 -0.155326 0.648444
v 0.043141 -0.157186 0.645403
v 0.150122 -0.100489 0.720052
v 0.150888 -0.103600 0.715994
v 0.075384 -0.084906 0.635718
v 0.086990 -0.073041 0.648704
v 0.066757 -0.095594 0.627785
v 0.061273 -0.103938 0.622764
v 0.055762 -0.108325 0.617393
v 0.110138 -0.105302 0.689994
v 0.090307 -0.108354 0.678364
v 0.074755 -0.117990 0.677063
v 0.056355 -0.134694 0.695478
v 0.048201 -0.133407 0.688815
v 0.056128 -0.126376 0.687041
v 0.061912 -0.129418 0.692907
v 0.060686 -0.150307 0.700227
v 0.061721 -0.142641 0.702670
v 0.068509 -0.144400 0.708605
v 0.068462 -0.152198 0.708030
v 0.105629 -0.075999 0.661465
v 0.101575 -0.084509 0.650268
v 0.031779 -0.139978 0.664246
v 0.028120 -0.137933 0.657625
v 0.023950 -0.138390 0.650232
v 0.054320 -0.114398 0.666866
v 0.043497 -0.112437 0.657925
v 0.045826 -0.108833 0.656547
v 0.056627 -0.113034 0.665253
v 0.066819 -0.099774 0.667710
v 0.056030 -0.095470 0.660799
v 0.074174 -0.091690 0.672804
v 0.039607 -0.110165 0.643644
v 0.030520 -0.115859 0.641112
v 0.034917 -0.110506 0.635457
v 0.026454 -0.123581 0.645655
v 0.023894 -0.131416 0.649122
v 0.037396 -0.160570 0.640056
v 0.040344 -0.106729 0.630199
v 0.082504 -0.074201 0.674938
v 0.089090 -0.070448 0.678162
v 0.092258 -0.077285 0.680016
v 0.086573 -0.081354 0.677593
v 0.130901 -0.100003 0.676568
v 0.125480 -0.095354 0.680113
v 0.117715 -0.094410 0.675009
v 0.045176 -0.120534 0.673995
v 0.038137 -0.130846 0.676261
v 0.118417 -0.102880 0.693352
v 0.150046 -0.100182 0.707756
v 0.147046 -0.094976 0.706769
v 0.138993 -0.097880 0.690237
v 0.142671 -0.103788 0.690833
v 0.125255 -0.109636 0.698898
v 0.121844 -0.104014 0.696580
v 0.123625 -0.105178 0.698360
v 0.125714 -0.110364 0.701902
v 0.100859 -0.131548 0.712340
v 0.094862 -0.131541 0.708374
v 0.126941 -0.125373 0.683628
v 0.132746 -0.117540 0.673931
v 0.123002 -0.117597 0.666238
v 0.089378 -0.123016 0.692838
v 0.097051 -0.123961 0.699954
v 0.094323 -0.126685 0.701588
v 0.111836 -0.108220 0.693526
v 0.118563 -0.107896 0.696708
v 0.115067 -0.111428 0.697126
v 0.108200 -0.112212 0.694475
v 0.057722 -0.155342 0.684118
v 0.051290 -0.148551 0.691134
v 0.142591 -0.090032 0.713900
v 0.142944 -0.091347 0.711030
v 0.080606 -0.122424 0.685445
v 0.110809 -0.117431 0.657858
v 0.070957 -0.121265 0.679372
v 0.099594 -0.150420 0.704128
v 0.095552 -0.146943 0.710195
v 0.099688 -0.144620 0.714231
v 0.104259 -0.147775 0.711490
v 0.132680 -0.108516 0.714507
v 0.130487 -0.103137 0.714177
v 0.132122 -0.101900 0.716280
v 0.134641 -0.107065 0.718126
v 0.122255 -0.099157 0.693239
v 0.124872 -0.095377 0.688619
v 0.127646 -0.095816 0.694199
v 0.124981 -0.100375 0.697034
v 0.130529 -0.095669 0.685785
v 0.133310 -0.095157 0.691278
v 0.138290 -0.112040 0.714083
v 0.145742 -0.111005 0.712459
v 0.138263 -0.115493 0.697171
v 0.132195 -0.114571 0.702017
v 0.074059 -0.149257 0.659101
v 0.065617 -0.153978 0.664722
v 0.075163 -0.153747 0.676483
v 0.084769 -0.154870 0.687895
v 0.093997 -0.154462 0.698454
v 0.103739 -0.150971 0.691965
v 0.068012 -0.156418 0.679573
v 0.127191 -0.117341 0.695899
v 0.132581 -0.118447 0.688123
v 0.128763 -0.121807 0.691118
v 0.065903 -0.124429 0.683896
v 0.142011 -0.092322 0.707067
v 0.067345 -0.126526 0.621781
v 0.064319 -0.138676 0.626621
v 0.070908 -0.135856 0.631717
v 0.073948 -0.121728 0.626826
v 0.131751 -0.096660 0.711954
v 0.135783 -0.092427 0.708951
v 0.091285 -0.135515 0.712359
v 0.097476 -0.135321 0.715175
v 0.097797 -0.138722 0.716777
v 0.090654 -0.138942 0.716751
v 0.060189 -0.155525 0.666759
v 0.079189 -0.156795 0.713371
v 0.087444 -0.158950 0.706655
v 0.057631 -0.154010 0.654257
v 0.065120 -0.150440 0.649007
v 0.058327 -0.151640 0.642071
v 0.115844 -0.141326 0.692261
v 0.081280 -0.144943 0.656810
v 0.070951 -0.146044 0.646574
v 0.063105 -0.147281 0.638163
v 0.057412 -0.149079 0.632293
v 0.052693 -0.153568 0.637229
v 0.149272 -0.106170 0.710404
v 0.147117 -0.108922 0.718906
v 0.046877 -0.157237 0.631234
v 0.052123 -0.151478 0.626149
v 0.076923 -0.139821 0.643273
v 0.083197 -0.131053 0.639741
v 0.086568 -0.138856 0.653430
v 0.093767 -0.130292 0.650674
v 0.122273 -0.138352 0.683932
v 0.139687 -0.100685 0.732938
v 0.140561 -0.107017 0.724104
v 0.135390 -0.105115 0.722024
v 0.135500 -0.100680 0.731751
v 0.139867 -0.109886 0.719182
v 0.146130 -0.105659 0.723052
v 0.098798 -0.116847 0.647514
v 0.121151 -0.112013 0.700126
v 0.086273 -0.113906 0.635974
v 0.106223 -0.101088 0.649066
v 0.095715 -0.097336 0.641701
v 0.073392 -0.108478 0.624609
v 0.082682 -0.095895 0.631815
v 0.060660 -0.117925 0.615467
v 0.067205 -0.114705 0.620516
v 0.090887 -0.083873 0.641300
v 0.134532 -0.088924 0.722732
v 0.131508 -0.093598 0.724684
v 0.061599 -0.129240 0.616324
v 0.081276 -0.085748 0.675678
v 0.057866 -0.120993 0.677284
v 0.062096 -0.118901 0.674127
v 0.043951 -0.132407 0.684099
v 0.051391 -0.123748 0.681183
v 0.139468 -0.086552 0.722492
v 0.114584 -0.128560 0.709837
v 0.113242 -0.129109 0.709121
v 0.082837 -0.067850 0.668947
v 0.088504 -0.065175 0.672634
v 0.098239 -0.064589 0.663693
v 0.092649 -0.062596 0.667754
v 0.087087 -0.065404 0.661790
v 0.092811 -0.067624 0.656960
v 0.052618 -0.115515 0.668634
v 0.050303 -0.117524 0.671153
v 0.049706 -0.152968 0.675215
v 0.044081 -0.145975 0.682557
v 0.135249 -0.099726 0.683509
v 0.134307 -0.107521 0.675326
v 0.138167 -0.106125 0.683251
v 0.141655 -0.110861 0.691632
v 0.125517 -0.114199 0.700222
v 0.128752 -0.114649 0.696732
v 0.050527 -0.102761 0.658694
v 0.061009 -0.108098 0.665103
v 0.093658 -0.085057 0.676494
v 0.097888 -0.082059 0.677937
v 0.102235 -0.117669 0.695662
v 0.122163 -0.136347 0.700651
v 0.127310 -0.133601 0.693994
v 0.110029 -0.117971 0.700319
v 0.146359 -0.089043 0.726891
v 0.143026 -0.086599 0.724056
v 0.137542 -0.113321 0.683576
v 0.087726 -0.130785 0.705075
v 0.115613 -0.139381 0.700359
v 0.118608 -0.134163 0.706858
v 0.072555 -0.151515 0.712979
v 0.057970 -0.140624 0.620643
v 0.132321 -0.100754 0.719752
v 0.131175 -0.098084 0.727265
v 0.143758 -0.099288 0.732088
v 0.147168 -0.094893 0.729196
v 0.038278 -0.142062 0.674082
v 0.065175 -0.117429 0.672390
v 0.097377 -0.075588 0.651115
v 0.102697 -0.070063 0.661054
v 0.114578 -0.118335 0.702961
v 0.093484 -0.153106 0.706625
v 0.108339 -0.149044 0.700514
v 0.112843 -0.146731 0.708906
v 0.117358 -0.140592 0.708619
v 0.117473 -0.133396 0.710241
v 0.141350 -0.096360 0.736803
v 0.144866 -0.091841 0.734201
v 0.144065 -0.086142 0.731507
v 0.141263 -0.084167 0.728127
v 0.137749 -0.085175 0.725494
v 0.136970 -0.097817 0.737262
v 0.133260 -0.097723 0.735556
v 0.130318 -0.096600 0.729980
v 0.133522 -0.095262 0.739781
v 0.136484 -0.091535 0.742332
v 0.134286 -0.077973 0.738711
v 0.138987 -0.081646 0.737469
v 0.137481 -0.081703 0.739942
v 0.133617 -0.078946 0.741813
v 0.129846 -0.077024 0.744972
v 0.130049 -0.075427 0.741766
v 0.138533 -0.086263 0.740871
v 0.133224 -0.083083 0.743996
v 0.131355 -0.086789 0.745053
v 0.127651 -0.083773 0.748088
v 0.129301 -0.080388 0.747422
v 0.135283 -0.088690 0.743156
v 0.140666 -0.087553 0.739833
v 0.126579 -0.075288 0.744990
v 0.127711 -0.076413 0.746998
v 0.126714 -0.079096 0.748801
v 0.123826 -0.077976 0.748401
v 0.138378 -0.081498 0.731435
v 0.132950 -0.077463 0.736461
v 0.127790 -0.076159 0.739602
v 0.124607 -0.076036 0.743033
v 0.129204 -0.078730 0.735108
v 0.125700 -0.077895 0.738335
v 0.122821 -0.078261 0.741233
v 0.125766 -0.081414 0.734773
v 0.123531 -0.080316 0.738072
v 0.132733 -0.086240 0.727212
v 0.136155 -0.083629 0.727521
v 0.121831 -0.079740 0.739981
v 0.122096 -0.078696 0.747122
v 0.130410 -0.090275 0.744076
v 0.125481 -0.085921 0.746959
v 0.128612 -0.091426 0.742843
v 0.123821 -0.087388 0.746058
v 0.123195 -0.082793 0.749365
v 0.125620 -0.081871 0.749221
v 0.133802 -0.088557 0.724732
v 0.130772 -0.093420 0.726759
v 0.129719 -0.091612 0.728766
v 0.123522 -0.085676 0.735728
v 0.128798 -0.094644 0.731929
v 0.130091 -0.095196 0.737712
v 0.125894 -0.091148 0.741423
v 0.123844 -0.089819 0.738882
v 0.122512 -0.087562 0.743799
v 0.121849 -0.086504 0.741528
v 0.121691 -0.083413 0.739077
v 0.120744 -0.084018 0.744978
v 0.121775 -0.083583 0.747763
v 0.121027 -0.080247 0.744226
v 0.120658 -0.084319 0.743025
v 0.121219 -0.081538 0.741869
v 0.126455 -0.111315 0.729210
v 0.122465 -0.115884 0.731709
v 0.125206 -0.117287 0.728813
v 0.128610 -0.113509 0.726798
v 0.139751 -0.114239 0.733947
v 0.135350 -0.110420 0.731173
v 0.138851 -0.113660 0.727568
v 0.142363 -0.119015 0.730145
v 0.139492 -0.120788 0.737108
v 0.141212 -0.125454 0.732603
v 0.142408 -0.121148 0.724332
v 0.138435 -0.115244 0.722613
v 0.130588 -0.118267 0.703340
v 0.134102 -0.124287 0.703334
v 0.115354 -0.123533 0.710958
v 0.116718 -0.127169 0.712158
v 0.130359 -0.109883 0.729467
v 0.133332 -0.112252 0.726548
v 0.122386 -0.125543 0.729266
v 0.121582 -0.120297 0.727836
v 0.122553 -0.121027 0.730751
v 0.124128 -0.125596 0.733557
v 0.122730 -0.115395 0.705170
v 0.118467 -0.119358 0.707619
v 0.126556 -0.115722 0.704288
v 0.126975 -0.130530 0.730311
v 0.133680 -0.132385 0.729694
v 0.127719 -0.135629 0.710006
v 0.122168 -0.134017 0.712813
v 0.133573 -0.112647 0.722667
v 0.124264 -0.115345 0.726242
v 0.128051 -0.112380 0.723955
v 0.139852 -0.128139 0.726135
v 0.134681 -0.129293 0.736096
v 0.123228 -0.117284 0.748586
v 0.126917 -0.125135 0.740451
v 0.122705 -0.123237 0.737944
v 0.118603 -0.116388 0.746600
v 0.128495 -0.128642 0.735770
v 0.132879 -0.124642 0.740324
v 0.119283 -0.104654 0.738776
v 0.115596 -0.109492 0.740980
v 0.123330 -0.102402 0.739027
v 0.132787 -0.131483 0.705483
v 0.132529 -0.106055 0.742811
v 0.127564 -0.102610 0.739931
v 0.120666 -0.120235 0.734251
v 0.115382 -0.113576 0.743986
v 0.127711 -0.116215 0.748800
v 0.133152 -0.112306 0.745644
v 0.125421 -0.111846 0.752524
v 0.129693 -0.107727 0.750052
v 0.129310 -0.101983 0.746513
v 0.125170 -0.100105 0.742765
v 0.121607 -0.100971 0.741094
v 0.121127 -0.113210 0.752332
v 0.116776 -0.113127 0.750064
v 0.114635 -0.111471 0.745654
v 0.115732 -0.108810 0.754780
v 0.119200 -0.106131 0.756458
v 0.113045 -0.089005 0.751941
v 0.117842 -0.092453 0.750473
v 0.117764 -0.093295 0.752982
v 0.113371 -0.090221 0.754490
v 0.123049 -0.096128 0.750852
v 0.121422 -0.096283 0.752837
v 0.121248 -0.100386 0.755159
v 0.116157 -0.096781 0.755960
v 0.114135 -0.101015 0.757318
v 0.109952 -0.097513 0.759347
v 0.111904 -0.093186 0.758333
v 0.118359 -0.102558 0.756712
v 0.110325 -0.088944 0.756081
v 0.108243 -0.087987 0.754841
v 0.124165 -0.101927 0.754705
v 0.123118 -0.097342 0.744966
v 0.116253 -0.092217 0.747773
v 0.110598 -0.089286 0.749729
v 0.105686 -0.089167 0.753597
v 0.112727 -0.093635 0.745836
v 0.108027 -0.090991 0.748633
v 0.104446 -0.091216 0.752248
v 0.109035 -0.096630 0.745159
v 0.105055 -0.094054 0.748556
v 0.116726 -0.102714 0.741161
v 0.120014 -0.099211 0.741748
v 0.103992 -0.093130 0.750815
v 0.106396 -0.090271 0.758730
v 0.103766 -0.091130 0.756782
v 0.108189 -0.090849 0.758882
v 0.112920 -0.102795 0.757342
v 0.108064 -0.098618 0.758798
v 0.110603 -0.104259 0.756400
v 0.105813 -0.099273 0.758058
v 0.105397 -0.094783 0.759894
v 0.106928 -0.094022 0.760122
v 0.118375 -0.103953 0.740863
v 0.115327 -0.108428 0.742705
v 0.113942 -0.107408 0.742927
v 0.106728 -0.100991 0.747356
v 0.113170 -0.110447 0.746593
v 0.113562 -0.110025 0.751909
v 0.108776 -0.105202 0.754367
v 0.106708 -0.104038 0.751060
v 0.104293 -0.100391 0.756916
v 0.104037 -0.100820 0.753661
v 0.103614 -0.097655 0.750004
v 0.102307 -0.096176 0.757603
v 0.103814 -0.095214 0.759182
v 0.102953 -0.092464 0.755154
v 0.102280 -0.097539 0.754926
v 0.102659 -0.094594 0.752726
v 0.111810 -0.123898 0.731823
v 0.107523 -0.127566 0.733577
v 0.108510 -0.128911 0.731452
v 0.113099 -0.125831 0.730101
v 0.122777 -0.127492 0.737439
v 0.120306 -0.123899 0.734999
v 0.122319 -0.126970 0.731687
v 0.125094 -0.131494 0.732844
v 0.121130 -0.131289 0.741505
v 0.124210 -0.136961 0.735562
v 0.125467 -0.134173 0.727942
v 0.122775 -0.128721 0.728021
v 0.118756 -0.132537 0.714457
v 0.120702 -0.138848 0.714844
v 0.116162 -0.123018 0.732872
v 0.117570 -0.125272 0.730506
v 0.105653 -0.135718 0.733526
v 0.105726 -0.131149 0.731743
v 0.106479 -0.133041 0.734326
v 0.107703 -0.136570 0.737043
v 0.108947 -0.128005 0.714040
v 0.104273 -0.131755 0.715237
v 0.114067 -0.128750 0.714618
v 0.110084 -0.140739 0.734645
v 0.117004 -0.143351 0.733544
v 0.109966 -0.146625 0.720114
v 0.104680 -0.143599 0.720633
v 0.118391 -0.125928 0.727939
v 0.108073 -0.127032 0.729199
v 0.112998 -0.124718 0.727887
v 0.122806 -0.139871 0.729864
v 0.118322 -0.140064 0.738969
v 0.106271 -0.126164 0.753217
v 0.111441 -0.137088 0.742508
v 0.106810 -0.134994 0.739366
v 0.102431 -0.126008 0.750824
v 0.112004 -0.139497 0.739431
v 0.116862 -0.136028 0.743214
v 0.104599 -0.115518 0.741391
v 0.101366 -0.119784 0.743152
v 0.109080 -0.114723 0.741718
v 0.117548 -0.144995 0.716839
v 0.101439 -0.138010 0.718859
v 0.114716 -0.116122 0.746788
v 0.112076 -0.114632 0.743506
v 0.105830 -0.131978 0.736359
v 0.100301 -0.123998 0.747069
v 0.111134 -0.124950 0.753229
v 0.115368 -0.121130 0.750296
v 0.107761 -0.121110 0.756476
v 0.111846 -0.117000 0.753606
v 0.111633 -0.112450 0.749646
v 0.109068 -0.111765 0.745735
v 0.106314 -0.112392 0.743666
v 0.102946 -0.122760 0.755687
v 0.099960 -0.122964 0.752990
v 0.099916 -0.122647 0.747788
v 0.099480 -0.120154 0.756848
v 0.102769 -0.116174 0.758895
v 0.095395 -0.101151 0.753901
v 0.100169 -0.104490 0.752413
v 0.100078 -0.104990 0.753544
v 0.095586 -0.101592 0.755583
v 0.106059 -0.108290 0.752708
v 0.104420 -0.107853 0.753919
v 0.104527 -0.110845 0.756640
v 0.099053 -0.107369 0.758205
v 0.096333 -0.112712 0.759302
v 0.092498 -0.109072 0.760307
v 0.094754 -0.103945 0.759723
v 0.101832 -0.114052 0.758560
v 0.092850 -0.100446 0.757131
v 0.092440 -0.098852 0.756091
v 0.106814 -0.112386 0.756507
v 0.105618 -0.108258 0.747728
v 0.099354 -0.104154 0.749528
v 0.094487 -0.100733 0.750855
v 0.090604 -0.099928 0.753065
v 0.096923 -0.105945 0.747118
v 0.092860 -0.102867 0.749131
v 0.089447 -0.102079 0.751224
v 0.094646 -0.108323 0.746434
v 0.091213 -0.105639 0.748582
v 0.101814 -0.113713 0.743525
v 0.103898 -0.110449 0.744729
v 0.089098 -0.104297 0.750522
v 0.089945 -0.101288 0.759428
v 0.087107 -0.102749 0.756615
v 0.091460 -0.102173 0.759436
v 0.095800 -0.114512 0.759248
v 0.090503 -0.110327 0.760446
v 0.094048 -0.116220 0.757743
v 0.088940 -0.111951 0.758930
v 0.088783 -0.106228 0.760882
v 0.089966 -0.105929 0.760799
v 0.103487 -0.115001 0.742874
v 0.100828 -0.119227 0.744310
v 0.099476 -0.117964 0.744756
v 0.091871 -0.112119 0.747749
v 0.098347 -0.121283 0.748145
v 0.096871 -0.120436 0.753993
v 0.092359 -0.116377 0.754828
v 0.091074 -0.115038 0.751391
v 0.088098 -0.112447 0.756268
v 0.088576 -0.112224 0.753425
v 0.088841 -0.109008 0.749614
v 0.086717 -0.108461 0.756330
v 0.087073 -0.107517 0.759159
v 0.086706 -0.104479 0.753946
v 0.086946 -0.109129 0.753898
v 0.087114 -0.106146 0.752064
v 0.101596 -0.134854 0.717070
v 0.090860 -0.130313 0.734245
v 0.087688 -0.132715 0.735992
v 0.088408 -0.133273 0.736091
v 0.091466 -0.131286 0.733223
v 0.101566 -0.134390 0.736721
v 0.098505 -0.130858 0.735030
v 0.100362 -0.133637 0.732344
v 0.102938 -0.137508 0.733733
v 0.101084 -0.139254 0.739424
v 0.101479 -0.142216 0.737173
v 0.101743 -0.139901 0.730672
v 0.099808 -0.135766 0.729216
v 0.095361 -0.144222 0.714812
v 0.095293 -0.149783 0.714597
v 0.076215 -0.149412 0.718250
v 0.075714 -0.144275 0.716249
v 0.079640 -0.142803 0.724396
v 0.079757 -0.147529 0.725459
v 0.094693 -0.129833 0.734157
v 0.095784 -0.131324 0.731777
v 0.086908 -0.141871 0.739973
v 0.086170 -0.137430 0.737648
v 0.086467 -0.136183 0.738577
v 0.086402 -0.139845 0.741899
v 0.079503 -0.140419 0.715568
v 0.084368 -0.139167 0.715039
v 0.085594 -0.137889 0.718644
v 0.082642 -0.139240 0.722743
v 0.091213 -0.138963 0.717371
v 0.090150 -0.145191 0.740186
v 0.095717 -0.146964 0.738360
v 0.085157 -0.155577 0.722507
v 0.081539 -0.152435 0.724099
v 0.096580 -0.132968 0.730586
v 0.088091 -0.134198 0.734413
v 0.091756 -0.132284 0.733063
v 0.100389 -0.144951 0.733633
v 0.095980 -0.143909 0.741461
v 0.088395 -0.136425 0.748835
v 0.089743 -0.141394 0.744477
v 0.085942 -0.139327 0.742258
v 0.085441 -0.136059 0.746946
v 0.090118 -0.142550 0.743089
v 0.095299 -0.141031 0.743797
v 0.087823 -0.127343 0.737432
v 0.084808 -0.131070 0.740209
v 0.091024 -0.126005 0.737281
v 0.091643 -0.154552 0.717273
v 0.097346 -0.127673 0.741244
v 0.094057 -0.125660 0.738841
v 0.085981 -0.135617 0.738911
v 0.083830 -0.134135 0.743693
v 0.093243 -0.135081 0.748780
v 0.097875 -0.132370 0.744921
v 0.091364 -0.131019 0.750759
v 0.095668 -0.128297 0.746905
v 0.094198 -0.124304 0.741906
v 0.091437 -0.124569 0.738929
v 0.088730 -0.125742 0.737567
v 0.086713 -0.133420 0.750373
v 0.084386 -0.134009 0.748441
v 0.083444 -0.133340 0.744553
v 0.084746 -0.130188 0.751685
v 0.087045 -0.125889 0.751371
v 0.079371 -0.117565 0.744122
v 0.083109 -0.119371 0.742910
v 0.083336 -0.119323 0.744115
v 0.079870 -0.117093 0.744982
v 0.088463 -0.121289 0.743010
v 0.087257 -0.120881 0.744442
v 0.088793 -0.122765 0.747308
v 0.084027 -0.120074 0.748338
v 0.081973 -0.123502 0.752024
v 0.078559 -0.120979 0.752427
v 0.080833 -0.118001 0.749381
v 0.086421 -0.124228 0.750789
v 0.077981 -0.115667 0.746631
v 0.076692 -0.115239 0.746130
v 0.091239 -0.123654 0.747335
v 0.087246 -0.122871 0.739359
v 0.081262 -0.119758 0.740996
v 0.077072 -0.117323 0.743036
v 0.074512 -0.116264 0.745896
v 0.080180 -0.121799 0.739891
v 0.075519 -0.118855 0.742191
v 0.073196 -0.117992 0.745053
v 0.078497 -0.124749 0.740140
v 0.074657 -0.121308 0.742483
v 0.083337 -0.128256 0.738560
v 0.085108 -0.125176 0.738020
v 0.073183 -0.119745 0.744757
v 0.075985 -0.115933 0.750010
v 0.073561 -0.117444 0.748932
v 0.077646 -0.116208 0.750368
v 0.081430 -0.124697 0.752574
v 0.077156 -0.121795 0.752990
v 0.080035 -0.126679 0.752408
v 0.075557 -0.123117 0.752287
v 0.075347 -0.118766 0.752258
v 0.077280 -0.118486 0.752035
v 0.085390 -0.127958 0.738177
v 0.084000 -0.130655 0.740542
v 0.082083 -0.131055 0.741618
v 0.077327 -0.127756 0.742951
v 0.082079 -0.132975 0.746049
v 0.083110 -0.132292 0.749844
v 0.078424 -0.128241 0.750745
v 0.077105 -0.128969 0.747622
v 0.074247 -0.123904 0.750698
v 0.073605 -0.124870 0.747859
v 0.073663 -0.123925 0.744551
v 0.072791 -0.120535 0.749498
v 0.073466 -0.119565 0.751003
v 0.072611 -0.118944 0.747788
v 0.072508 -0.121635 0.747914
v 0.072597 -0.120834 0.746406
v 0.078857 -0.152435 0.719165
v 0.111635 -0.070411 0.673739
v 0.110477 -0.074682 0.677304
v 0.098530 -0.068921 0.686932
v 0.103314 -0.074009 0.686164
v 0.096976 -0.062629 0.684737
v 0.101010 -0.057338 0.676029
v 0.097502 -0.059178 0.680019
v 0.107649 -0.076031 0.682506
v 0.110381 -0.065121 0.671132
v 0.105934 -0.059401 0.671553
v 0.116810 -0.062516 0.676500
v 0.111969 -0.056108 0.677193
v 0.106982 -0.053308 0.681327
v 0.101649 -0.056362 0.685234
v 0.099767 -0.059884 0.688457
v 0.115532 -0.069317 0.679033
v 0.113471 -0.073363 0.682300
v 0.108719 -0.074567 0.686754
v 0.119260 -0.069348 0.686494
v 0.122763 -0.062238 0.692841
v 0.116979 -0.050767 0.707669
v 0.113350 -0.051869 0.701892
v 0.116153 -0.052211 0.701217
v 0.119313 -0.050660 0.706347
v 0.113324 -0.052426 0.696205
v 0.115442 -0.053309 0.697035
v 0.118882 -0.056375 0.694337
v 0.121585 -0.055130 0.699328
v 0.122055 -0.060462 0.694973
v 0.123951 -0.060890 0.698812
v 0.124445 -0.053995 0.704120
v 0.122786 -0.050349 0.708479
v 0.126599 -0.053165 0.708367
v 0.121159 -0.051132 0.711187
v 0.119956 -0.054931 0.692033
v 0.106741 -0.053528 0.693712
v 0.109804 -0.053136 0.702116
v 0.114098 -0.052915 0.708967
v 0.119306 -0.053492 0.712610
v 0.107341 -0.056809 0.703198
v 0.112219 -0.056998 0.708931
v 0.117230 -0.058077 0.711860
v 0.107360 -0.061796 0.703560
v 0.112566 -0.061024 0.708322
v 0.101637 -0.064883 0.692867
v 0.101949 -0.058235 0.693203
v 0.116313 -0.060430 0.710402
v 0.126763 -0.054084 0.711191
v 0.124668 -0.056837 0.712638
v 0.124346 -0.064265 0.697971
v 0.127097 -0.059708 0.703123
v 0.126777 -0.062760 0.703660
v 0.122743 -0.067996 0.697345
v 0.125568 -0.065327 0.704393
v 0.128390 -0.059376 0.708158
v 0.128143 -0.057122 0.706301
v 0.099939 -0.066094 0.689877
v 0.103442 -0.071697 0.688801
v 0.104996 -0.070629 0.691460
v 0.110365 -0.067669 0.701861
v 0.110302 -0.073756 0.690473
v 0.115969 -0.072753 0.688280
v 0.120001 -0.070450 0.698415
v 0.115385 -0.070753 0.699946
v 0.122377 -0.066892 0.705411
v 0.119317 -0.066860 0.705981
v 0.115221 -0.064600 0.707663
v 0.123264 -0.063464 0.709440
v 0.126597 -0.061962 0.709169
v 0.121401 -0.060250 0.711903
v 0.120666 -0.064278 0.708669
v 0.118771 -0.062257 0.710167
v 0.072347 -0.144278 0.711857
v 0.076469 -0.139108 0.710778
v 0.071267 -0.139062 0.707230
v 0.064036 -0.136886 0.701834
v 0.055350 -0.140671 0.697006
v 0.068484 -0.132450 0.698714
v 0.075733 -0.134833 0.704636
v 0.083475 -0.135385 0.709552
v 0.067077 -0.127548 0.689738
f 2 3 1
f 1 3 4
f 5 6 8
f 8 6 7
f 9 4 10
f 10 4 3
f 12 13 11
f 11 13 9
f 14 12 16
f 16 12 15
f 18 19 17
f 17 19 20
f 22 23 21
f 21 23 24
f 26 27 25
f 25 27 28
f 30 31 29
f 29 31 32
f 33 34 36
f 36 34 35
f 37 38 40
f 40 38 39
f 41 42 6
f 6 42 43
f 6 43 7
f 7 43 44
f 45 34 46
f 46 34 33
f 48 49 47
f 47 49 50
f 52 53 51
f 51 53 54
f 56 52 55
f 55 52 51
f 58 59 57
f 57 59 60
f 61 62 4
f 4 62 1
f 64 65 63
f 63 65 66
f 68 69 67
f 67 69 70
f 72 73 71
f 71 73 74
f 76 77 75
f 75 77 78
f 53 79 54
f 54 79 80
f 82 83 81
f 81 83 84
f 85 86 52
f 52 86 53
f 57 60 87
f 87 60 88
f 89 90 43
f 43 90 44
f 43 42 89
f 89 42 91
f 40 39 92
f 92 39 93
f 94 70 64
f 64 70 69
f 13 61 9
f 9 61 4
f 25 28 69
f 69 28 95
f 96 25 68
f 68 25 69
f 98 99 97
f 97 99 100
f 101 102 104
f 104 102 103
f 106 30 105
f 105 30 29
f 51 54 107
f 107 54 108
f 54 80 108
f 108 80 109
f 111 112 110
f 110 112 113
f 115 5 114
f 114 5 116
f 115 41 5
f 5 41 6
f 36 35 111
f 111 35 117
f 35 118 117
f 117 118 119
f 34 120 35
f 35 120 118
f 34 45 120
f 120 45 121
f 125 126 124
f 124 126 127
f 128 129 14
f 14 129 130
f 33 131 46
f 46 131 132
f 133 94 63
f 63 94 64
f 134 135 137
f 137 135 136
f 139 140 138
f 138 140 141
f 77 142 78
f 78 142 143
f 144 145 20
f 20 145 146
f 148 149 147
f 147 149 72
f 151 152 150
f 150 152 153
f 82 101 83
f 83 101 104
f 101 82 155
f 155 82 154
f 156 157 58
f 58 157 59
f 158 68 147
f 147 68 67
f 159 146 15
f 15 146 16
f 68 158 96
f 96 158 160
f 129 66 130
f 130 66 65
f 162 163 161
f 161 163 164
f 166 167 165
f 165 167 168
f 170 171 169
f 169 171 172
f 174 171 173
f 173 171 170
f 176 177 175
f 175 177 178
f 180 181 179
f 179 181 24
f 182 183 21
f 21 183 184
f 81 185 82
f 82 185 154
f 186 187 188
f 188 187 144
f 158 71 160
f 160 71 189
f 190 135 157
f 157 135 59
f 169 172 139
f 139 172 140
f 147 72 158
f 158 72 71
f 192 193 191
f 191 193 194
f 167 166 49
f 49 166 195
f 196 190 50
f 50 190 157
f 197 198 200
f 200 198 199
f 21 24 182
f 182 24 181
f 146 159 20
f 20 159 17
f 182 181 81
f 81 181 185
f 201 185 180
f 180 185 181
f 202 203 83
f 83 203 84
f 205 206 204
f 204 206 85
f 207 22 184
f 184 22 21
f 179 24 208
f 208 24 23
f 208 209 179
f 179 209 205
f 209 210 205
f 205 210 206
f 212 206 211
f 211 206 210
f 179 205 180
f 180 205 204
f 213 176 88
f 88 176 214
f 86 85 212
f 212 85 206
f 193 217 218
f 217 219 218
f 218 219 220
f 219 18 220
f 220 18 17
f 19 221 20
f 20 221 144
f 222 223 225
f 225 223 224
f 175 226 176
f 176 226 214
f 227 87 214
f 214 87 88
f 220 17 228
f 228 17 159
f 134 213 60
f 60 213 88
f 138 229 151
f 151 229 152
f 193 192 210
f 210 192 211
f 230 194 218
f 218 194 193
f 231 232 228
f 228 232 230
f 233 234 91
f 91 234 89
f 235 236 93
f 93 236 92
f 230 232 234
f 234 232 237
f 47 238 48
f 48 238 239
f 240 191 235
f 235 191 236
f 5 8 116
f 116 8 241
f 242 243 189
f 189 243 160
f 244 245 98
f 98 245 99
f 156 246 47
f 47 246 238
f 76 247 77
f 77 247 248
f 250 125 249
f 249 125 124
f 252 253 251
f 251 253 254
f 111 110 36
f 36 110 255
f 256 33 255
f 255 33 36
f 257 258 154
f 154 258 155
f 63 169 133
f 133 169 139
f 66 170 63
f 63 170 169
f 173 170 129
f 129 170 66
f 129 128 173
f 173 128 259
f 128 260 259
f 259 260 261
f 213 134 262
f 262 134 137
f 263 264 186
f 186 264 187
f 112 265 113
f 113 265 266
f 11 267 268
f 234 233 230
f 230 233 194
f 153 269 70
f 70 269 67
f 175 178 165
f 165 178 141
f 150 153 94
f 94 153 70
f 271 221 270
f 270 221 207
f 269 153 272
f 272 153 152
f 121 45 109
f 109 45 108
f 47 50 156
f 156 50 157
f 57 273 58
f 58 273 274
f 145 275 260
f 260 275 261
f 276 149 143
f 143 149 78
f 148 269 75
f 75 269 272
f 207 277 270
f 270 277 278
f 195 196 49
f 49 196 50
f 59 135 60
f 60 135 134
f 83 104 202
f 202 104 279
f 149 148 78
f 78 148 75
f 247 278 248
f 248 278 277
f 183 182 84
f 84 182 81
f 48 239 281
f 281 239 282
f 227 223 283
f 283 223 222
f 223 226 224
f 224 226 168
f 281 282 224
f 224 282 225
f 165 168 175
f 175 168 226
f 264 263 138
f 138 263 229
f 14 16 128
f 128 16 260
f 220 228 218
f 218 228 230
f 87 227 284
f 284 227 283
f 260 16 145
f 145 16 146
f 244 98 258
f 258 98 155
f 58 274 156
f 156 274 246
f 107 285 51
f 51 285 55
f 243 286 160
f 160 286 96
f 234 237 89
f 89 237 90
f 46 132 107
f 107 132 285
f 253 252 249
f 249 252 250
f 286 26 96
f 96 26 25
f 106 105 287
f 287 105 288
f 272 152 289
f 289 152 229
f 138 151 139
f 139 151 133
f 183 290 161
f 161 290 162
f 291 292 277
f 277 292 293
f 151 150 133
f 133 150 94
f 262 275 177
f 177 275 187
f 144 187 145
f 145 187 275
f 273 57 284
f 284 57 87
f 174 136 190
f 190 136 135
f 111 117 112
f 112 117 38
f 117 119 38
f 38 119 123
f 112 38 265
f 265 38 37
f 287 288 254
f 254 288 251
f 228 159 231
f 231 159 15
f 223 227 226
f 226 227 214
f 147 67 148
f 148 67 269
f 224 168 281
f 281 168 167
f 199 163 200
f 200 163 162
f 45 46 108
f 108 46 107
f 281 167 48
f 48 167 49
f 161 164 291
f 291 164 292
f 38 123 39
f 293 294 277
f 277 294 248
f 284 283 296
f 296 283 295
f 284 296 273
f 273 296 297
f 274 273 298
f 298 273 297
f 246 274 299
f 299 274 298
f 283 222 295
f 295 222 300
f 222 225 300
f 300 225 301
f 301 225 302
f 302 225 282
f 303 304 300
f 300 304 295
f 306 307 305
f 305 307 308
f 309 310 308
f 308 310 305
f 308 307 312
f 312 307 311
f 313 314 312
f 312 314 315
f 311 316 312
f 312 316 313
f 317 304 311
f 311 304 316
f 315 309 312
f 312 309 308
f 318 319 321
f 321 319 320
f 319 318 309
f 309 318 310
f 311 307 317
f 317 307 306
f 306 297 317
f 317 297 296
f 306 322 297
f 297 322 298
f 305 323 306
f 306 323 322
f 323 305 324
f 324 305 310
f 304 317 295
f 295 317 296
f 318 325 310
f 310 325 324
f 323 324 326
f 326 324 327
f 324 325 327
f 327 325 328
f 326 327 329
f 329 327 330
f 329 331 326
f 326 331 332
f 333 330 328
f 328 330 327
f 323 326 322
f 322 326 332
f 322 332 298
f 298 332 299
f 325 318 334
f 334 318 321
f 313 316 335
f 335 316 304
f 335 336 313
f 313 336 314
f 304 303 335
f 335 303 337
f 336 335 338
f 338 335 337
f 336 339 314
f 314 339 340
f 246 299 238
f 238 299 341
f 239 342 282
f 282 342 302
f 342 239 341
f 341 239 238
f 341 331 342
f 342 331 343
f 331 329 343
f 343 329 344
f 342 343 302
f 302 343 345
f 341 299 331
f 331 299 332
f 346 301 345
f 345 301 302
f 346 303 301
f 301 303 300
f 347 337 346
f 346 337 303
f 347 346 348
f 348 346 345
f 349 347 350
f 350 347 348
f 343 344 345
f 345 344 348
f 344 351 348
f 348 351 350
f 337 347 338
f 338 347 349
f 353 338 352
f 352 338 349
f 352 355 354
f 354 355 356
f 352 349 355
f 355 349 350
f 352 354 353
f 353 354 334
f 353 334 339
f 339 334 321
f 339 336 353
f 353 336 338
f 329 330 344
f 344 330 351
f 356 351 333
f 333 351 330
f 356 355 351
f 351 355 350
f 354 356 328
f 328 356 333
f 328 325 354
f 354 325 334
f 309 315 319
f 319 315 320
f 320 340 321
f 321 340 339
f 320 315 340
f 340 315 314
f 137 136 261
f 261 136 259
f 140 166 141
f 141 166 165
f 172 171 195
f 195 171 196
f 171 174 196
f 196 174 190
f 178 177 264
f 264 177 187
f 172 195 140
f 140 195 166
f 137 261 262
f 262 261 275
f 178 264 141
f 141 264 138
f 262 177 213
f 213 177 176
f 136 174 259
f 259 174 173
f 358 359 357
f 357 359 360
f 362 363 361
f 361 363 364
f 361 364 365
f 365 364 366
f 367 368 370
f 370 368 369
f 76 371 247
f 247 371 372
f 373 374 362
f 362 374 363
f 376 377 375
f 375 377 378
f 289 229 380
f 380 229 379
f 381 379 263
f 263 379 229
f 383 384 382
f 382 384 385
f 386 368 374
f 374 368 363
f 76 289 371
f 371 289 380
f 377 376 359
f 359 376 387
f 388 386 360
f 360 386 374
f 389 383 366
f 366 383 390
f 392 393 391
f 391 393 394
f 383 382 390
f 390 382 395
f 396 365 390
f 390 365 366
f 389 366 367
f 367 366 364
f 357 397 358
f 358 397 398
f 373 399 357
f 357 399 397
f 389 367 400
f 400 367 370
f 382 385 375
f 375 385 372
f 357 360 373
f 373 360 374
f 361 401 362
f 362 401 402
f 387 388 359
f 359 388 360
f 363 368 364
f 364 368 367
f 358 398 403
f 403 398 404
f 396 392 405
f 405 392 391
f 392 395 393
f 393 395 378
f 393 403 394
f 394 403 404
f 375 378 382
f 382 378 395
f 365 396 406
f 406 396 405
f 362 402 373
f 373 402 399
f 271 270 400
f 400 270 384
f 401 361 406
f 406 361 365
f 381 369 386
f 386 369 368
f 392 396 395
f 395 396 390
f 393 378 403
f 403 378 377
f 403 377 358
f 358 377 359
f 406 405 408
f 408 405 407
f 406 408 401
f 401 408 409
f 401 409 402
f 402 409 410
f 402 410 399
f 399 410 411
f 405 391 407
f 407 391 412
f 391 394 412
f 412 394 413
f 394 404 413
f 413 404 414
f 415 416 412
f 412 416 407
f 418 419 417
f 417 419 420
f 421 422 418
f 418 422 419
f 419 422 424
f 424 422 423
f 425 426 424
f 424 426 427
f 423 428 424
f 424 428 425
f 427 420 424
f 424 420 419
f 420 429 417
f 417 429 430
f 423 422 431
f 431 422 421
f 421 409 431
f 431 409 408
f 421 432 409
f 409 432 410
f 418 433 421
f 421 433 432
f 434 433 417
f 417 433 418
f 431 416 423
f 423 416 428
f 416 431 407
f 407 431 408
f 435 434 430
f 430 434 417
f 433 434 436
f 436 434 437
f 434 435 437
f 437 435 438
f 436 437 439
f 439 437 440
f 439 441 436
f 436 441 442
f 438 443 437
f 437 443 440
f 436 442 433
f 433 442 432
f 432 442 410
f 410 442 411
f 435 430 445
f 445 430 444
f 430 429 444
f 444 429 446
f 425 428 447
f 447 428 416
f 426 425 448
f 448 425 447
f 416 415 447
f 447 415 449
f 447 449 448
f 448 449 450
f 451 452 448
f 448 452 426
f 446 452 444
f 444 452 451
f 399 411 397
f 397 411 453
f 398 454 404
f 404 454 414
f 454 398 453
f 453 398 397
f 453 441 454
f 454 441 455
f 441 439 455
f 455 439 456
f 454 455 414
f 414 455 457
f 441 453 442
f 442 453 411
f 458 413 457
f 457 413 414
f 458 415 413
f 413 415 412
f 458 459 415
f 415 459 449
f 459 458 460
f 460 458 457
f 461 459 462
f 462 459 460
f 455 456 457
f 457 456 460
f 456 463 460
f 460 463 462
f 459 461 449
f 449 461 450
f 465 450 464
f 464 450 461
f 464 467 466
f 466 467 468
f 464 461 467
f 467 461 462
f 464 466 465
f 465 466 445
f 465 445 451
f 451 445 444
f 451 448 465
f 465 448 450
f 439 440 456
f 456 440 463
f 468 463 443
f 443 463 440
f 468 467 463
f 463 467 462
f 466 468 438
f 438 468 443
f 438 435 466
f 466 435 445
f 420 427 429
f 429 427 446
f 446 427 452
f 452 427 426
f 370 369 188
f 188 369 186
f 371 376 372
f 372 376 375
f 380 379 387
f 387 379 388
f 379 381 388
f 388 381 386
f 385 384 278
f 278 384 270
f 380 387 371
f 371 387 376
f 400 370 271
f 271 370 188
f 385 278 372
f 372 278 247
f 400 384 389
f 389 384 383
f 369 381 186
f 186 381 263
f 221 271 144
f 144 271 188
f 221 19 207
f 207 19 22
f 19 18 22
f 22 18 23
f 18 219 23
f 23 219 208
f 469 470 472
f 472 470 471
f 474 475 473
f 473 475 476
f 473 476 477
f 477 476 478
f 480 481 479
f 479 481 482
f 483 484 474
f 474 484 475
f 486 487 485
f 485 487 488
f 489 490 77
f 77 490 142
f 491 489 248
f 248 489 77
f 493 494 492
f 492 494 495
f 496 480 484
f 484 480 475
f 486 497 487
f 487 497 471
f 498 496 472
f 472 496 484
f 499 493 478
f 478 493 500
f 501 502 504
f 504 502 503
f 493 492 500
f 500 492 505
f 506 477 500
f 500 477 478
f 499 478 479
f 479 478 476
f 469 507 470
f 470 507 508
f 483 509 469
f 469 509 507
f 479 482 499
f 499 482 510
f 492 495 485
f 485 495 511
f 483 469 484
f 484 469 472
f 473 512 474
f 474 512 513
f 497 498 471
f 471 498 472
f 475 480 476
f 476 480 479
f 470 508 514
f 514 508 515
f 506 502 516
f 516 502 501
f 503 502 488
f 488 502 505
f 514 515 503
f 503 515 504
f 485 488 492
f 492 488 505
f 477 506 517
f 517 506 516
f 474 513 483
f 483 513 509
f 510 292 494
f 494 292 164
f 512 473 517
f 517 473 477
f 491 481 496
f 496 481 480
f 502 506 505
f 505 506 500
f 503 488 514
f 514 488 487
f 514 487 470
f 470 487 471
f 517 516 519
f 519 516 518
f 517 519 512
f 512 519 520
f 512 520 513
f 513 520 521
f 513 521 509
f 509 521 522
f 516 501 518
f 518 501 523
f 501 504 523
f 523 504 524
f 524 504 525
f 525 504 515
f 526 527 523
f 523 527 518
f 529 530 528
f 528 530 531
f 532 533 529
f 529 533 530
f 530 533 535
f 535 533 534
f 536 537 535
f 535 537 538
f 534 539 535
f 535 539 536
f 538 531 535
f 535 531 530
f 540 541 531
f 531 541 528
f 533 532 534
f 534 532 542
f 532 520 542
f 542 520 519
f 532 543 520
f 520 543 521
f 529 544 532
f 532 544 543
f 544 529 545
f 545 529 528
f 534 542 539
f 539 542 527
f 527 542 518
f 518 542 519
f 541 546 528
f 528 546 545
f 547 544 548
f 548 544 545
f 546 549 545
f 545 549 548
f 550 547 551
f 551 547 548
f 547 550 553
f 553 550 552
f 549 554 548
f 548 554 551
f 544 547 543
f 543 547 553
f 543 553 521
f 521 553 522
f 546 541 556
f 556 541 555
f 541 540 555
f 555 540 557
f 536 539 558
f 558 539 527
f 537 536 559
f 559 536 558
f 527 526 558
f 558 526 560
f 559 558 561
f 561 558 560
f 559 562 537
f 537 562 563
f 557 563 555
f 555 563 562
f 509 522 507
f 507 522 564
f 508 565 515
f 515 565 525
f 565 508 564
f 564 508 507
f 564 552 565
f 565 552 566
f 552 550 566
f 566 550 567
f 565 566 525
f 525 566 568
f 564 522 552
f 552 522 553
f 569 524 568
f 568 524 525
f 569 526 524
f 524 526 523
f 570 560 569
f 569 560 526
f 570 569 571
f 571 569 568
f 572 570 573
f 573 570 571
f 566 567 568
f 568 567 571
f 567 574 571
f 571 574 573
f 570 572 560
f 560 572 561
f 576 561 575
f 575 561 572
f 575 578 577
f 577 578 579
f 575 572 578
f 578 572 573
f 575 577 576
f 576 577 556
f 576 556 562
f 562 556 555
f 562 559 576
f 576 559 561
f 550 551 567
f 567 551 574
f 579 574 554
f 554 574 551
f 579 578 574
f 574 578 573
f 579 554 577
f 577 554 549
f 549 546 577
f 577 546 556
f 531 538 540
f 540 538 557
f 557 538 563
f 563 538 537
f 481 294 482
f 482 294 293
f 580 486 511
f 511 486 485
f 490 489 497
f 497 489 498
f 489 491 498
f 498 491 496
f 163 495 164
f 164 495 494
f 580 490 486
f 486 490 497
f 482 293 510
f 510 293 292
f 495 163 511
f 511 163 199
f 494 493 510
f 510 493 499
f 481 491 294
f 294 491 248
f 582 583 581
f 581 583 584
f 586 587 585
f 585 587 588
f 585 588 589
f 589 588 590
f 592 593 591
f 591 593 594
f 595 596 598
f 598 596 597
f 599 600 586
f 586 600 587
f 601 602 604
f 604 602 603
f 605 606 608
f 608 606 607
f 609 607 200
f 200 607 606
f 610 611 613
f 613 611 612
f 600 614 587
f 587 614 592
f 596 605 597
f 597 605 608
f 602 615 603
f 603 615 583
f 616 614 584
f 584 614 600
f 611 618 617
f 617 618 590
f 620 621 619
f 619 621 622
f 610 623 611
f 611 623 618
f 624 589 618
f 618 589 590
f 617 590 591
f 591 590 588
f 581 625 582
f 582 625 626
f 599 627 581
f 581 627 625
f 591 594 617
f 617 594 628
f 601 610 598
f 598 610 613
f 581 584 599
f 599 584 600
f 585 629 586
f 586 629 630
f 615 616 583
f 583 616 584
f 587 592 588
f 588 592 591
f 582 626 631
f 631 626 632
f 624 620 633
f 633 620 619
f 621 620 604
f 604 620 623
f 631 632 621
f 621 632 622
f 610 601 623
f 623 601 604
f 589 624 634
f 634 624 633
f 586 630 599
f 599 630 627
f 203 202 628
f 628 202 612
f 629 585 634
f 634 585 589
f 609 593 614
f 614 593 592
f 620 624 623
f 623 624 618
f 631 621 603
f 603 621 604
f 582 631 583
f 583 631 603
f 634 633 636
f 636 633 635
f 634 636 629
f 629 636 637
f 629 637 630
f 630 637 638
f 630 638 627
f 627 638 639
f 633 619 635
f 635 619 640
f 619 622 640
f 640 622 641
f 641 622 642
f 642 622 632
f 644 635 643
f 643 635 640
f 645 646 648
f 648 646 647
f 649 650 646
f 646 650 647
f 647 650 652
f 652 650 651
f 652 653 655
f 655 653 654
f 651 656 652
f 652 656 653
f 655 648 652
f 652 648 647
f 648 657 645
f 645 657 658
f 650 649 651
f 651 649 659
f 649 637 659
f 659 637 636
f 649 660 637
f 637 660 638
f 661 660 646
f 646 660 649
f 662 661 645
f 645 661 646
f 651 659 656
f 656 659 644
f 644 659 635
f 635 659 636
f 663 662 658
f 658 662 645
f 664 661 665
f 665 661 662
f 663 666 662
f 662 666 665
f 667 664 668
f 668 664 665
f 664 667 670
f 670 667 669
f 666 671 665
f 665 671 668
f 661 664 660
f 660 664 670
f 660 670 638
f 638 670 639
f 658 672 663
f 663 672 673
f 658 657 672
f 672 657 674
f 653 656 675
f 675 656 644
f 653 675 654
f 654 675 676
f 675 644 677
f 677 644 643
f 676 675 678
f 678 675 677
f 679 680 676
f 676 680 654
f 674 680 672
f 672 680 679
f 627 639 625
f 625 639 681
f 626 682 632
f 632 682 642
f 681 682 625
f 625 682 626
f 669 683 681
f 681 683 682
f 667 684 669
f 669 684 683
f 682 683 642
f 642 683 685
f 681 639 669
f 669 639 670
f 686 641 685
f 685 641 642
f 641 686 640
f 640 686 643
f 686 687 643
f 643 687 677
f 687 686 688
f 688 686 685
f 689 687 690
f 690 687 688
f 683 684 685
f 685 684 688
f 684 691 688
f 688 691 690
f 687 689 677
f 677 689 678
f 693 678 692
f 692 678 689
f 692 695 694
f 694 695 696
f 692 689 695
f 695 689 690
f 692 694 693
f 693 694 673
f 693 673 679
f 679 673 672
f 679 676 693
f 693 676 678
f 684 667 691
f 691 667 668
f 696 691 671
f 671 691 668
f 696 695 691
f 691 695 690
f 694 696 666
f 666 696 671
f 666 663 694
f 694 663 673
f 648 655 657
f 657 655 674
f 674 655 680
f 680 655 654
f 593 162 594
f 594 162 290
f 598 597 601
f 601 597 602
f 615 608 616
f 616 608 607
f 607 609 616
f 616 609 614
f 697 595 613
f 613 595 598
f 597 608 602
f 602 608 615
f 594 290 628
f 628 290 203
f 628 612 617
f 617 612 611
f 593 609 162
f 162 609 200
f 105 29 698
f 698 29 699
f 268 126 701
f 701 126 700
f 126 125 700
f 700 125 702
f 252 703 250
f 250 703 704
f 32 268 705
f 705 268 701
f 288 105 706
f 706 105 698
f 29 32 699
f 699 32 705
f 707 251 706
f 706 251 288
f 250 704 125
f 125 704 702
f 703 252 707
f 707 252 251
f 706 708 707
f 707 708 709
f 707 709 703
f 703 709 710
f 703 710 704
f 704 710 711
f 704 711 702
f 702 711 712
f 706 698 708
f 708 698 713
f 698 699 713
f 713 699 714
f 699 705 714
f 714 705 715
f 717 708 716
f 716 708 713
f 719 720 718
f 718 720 721
f 722 723 719
f 719 723 720
f 724 725 723
f 723 725 720
f 724 726 725
f 725 726 727
f 728 721 725
f 725 721 720
f 721 728 729
f 729 728 730
f 729 731 721
f 721 731 718
f 724 723 732
f 732 723 722
f 722 710 732
f 732 710 709
f 722 733 710
f 710 733 711
f 719 734 722
f 722 734 733
f 734 719 735
f 735 719 718
f 724 732 726
f 726 732 717
f 717 732 708
f 708 732 709
f 731 736 718
f 718 736 735
f 737 734 738
f 738 734 735
f 736 739 735
f 735 739 738
f 740 737 741
f 741 737 738
f 737 740 743
f 743 740 742
f 739 744 738
f 738 744 741
f 734 737 733
f 733 737 743
f 733 743 711
f 711 743 712
f 736 731 746
f 746 731 745
f 731 729 745
f 745 729 730
f 727 726 747
f 747 726 717
f 748 727 749
f 749 727 747
f 747 717 750
f 750 717 716
f 749 747 751
f 751 747 750
f 749 752 748
f 748 752 753
f 730 753 745
f 745 753 752
f 728 725 748
f 748 725 727
f 730 728 753
f 753 728 748
f 700 702 754
f 754 702 712
f 705 701 715
f 715 701 755
f 754 755 700
f 700 755 701
f 742 756 754
f 754 756 755
f 740 757 742
f 742 757 756
f 755 756 715
f 715 756 758
f 754 712 742
f 742 712 743
f 759 714 758
f 758 714 715
f 714 759 713
f 713 759 716
f 759 760 716
f 716 760 750
f 760 759 761
f 761 759 758
f 762 760 763
f 763 760 761
f 756 757 758
f 758 757 761
f 757 764 761
f 761 764 763
f 760 762 750
f 750 762 751
f 766 751 765
f 765 751 762
f 767 765 769
f 769 765 768
f 765 762 768
f 768 762 763
f 765 767 766
f 766 767 746
f 766 746 752
f 752 746 745
f 752 749 766
f 766 749 751
f 757 740 764
f 764 740 741
f 769 764 744
f 744 764 741
f 769 768 764
f 764 768 763
f 767 769 739
f 739 769 744
f 739 736 767
f 767 736 746
f 219 217 208
f 208 217 209
f 209 217 210
f 210 217 193
f 198 580 199
f 199 580 511
f 76 75 289
f 289 75 272
f 277 207 291
f 291 207 184
f 290 183 203
f 203 183 84
f 490 580 142
f 142 580 198
f 142 198 143
f 143 198 197
f 149 276 72
f 72 276 73
f 104 103 279
f 279 103 770
f 770 596 279
f 279 596 595
f 605 596 771
f 771 596 770
f 771 770 772
f 772 770 103
f 772 103 773
f 773 103 102
f 155 774 101
f 101 774 102
f 773 102 97
f 97 102 774
f 775 773 100
f 100 773 97
f 773 775 772
f 772 775 776
f 772 776 771
f 771 776 777
f 200 606 197
f 197 606 777
f 189 71 778
f 778 71 74
f 97 774 98
f 98 774 155
f 183 161 184
f 184 161 291
f 777 276 197
f 197 276 143
f 777 606 771
f 771 606 605
f 613 612 697
f 697 612 202
f 595 697 279
f 279 697 202
f 73 276 776
f 776 276 777
f 776 775 73
f 73 775 74
f 100 778 775
f 775 778 74
f 778 100 189
f 189 100 99
f 245 242 99
f 99 242 189
f 131 33 256
f 28 1 95
f 95 1 62
f 27 2 28
f 28 2 1
f 265 115 266
f 266 115 114
f 95 62 69
f 69 62 64
f 62 61 64
f 64 61 65
f 61 13 65
f 65 13 130
f 13 12 130
f 130 12 14
f 31 11 32
f 32 11 268
f 15 12 31
f 31 12 11
f 31 30 15
f 15 30 231
f 30 106 231
f 231 106 232
f 287 237 106
f 106 237 232
f 254 90 287
f 287 90 237
f 253 44 254
f 254 44 90
f 253 249 44
f 44 249 7
f 267 127 268
f 268 127 126
f 10 3 241
f 241 3 116
f 3 2 116
f 116 2 114
f 2 27 114
f 114 27 266
f 27 26 266
f 266 26 113
f 26 286 113
f 113 286 110
f 286 243 110
f 110 243 255
f 243 242 255
f 255 242 256
f 242 245 256
f 256 245 131
f 245 244 131
f 131 244 132
f 265 37 115
f 115 37 41
f 41 37 42
f 42 37 40
f 92 91 40
f 40 91 42
f 236 233 92
f 92 233 91
f 191 194 236
f 236 194 233
f 258 285 244
f 244 285 132
f 257 55 258
f 258 55 285
f 257 154 201
f 201 154 185
f 56 201 204
f 204 201 180
f 55 257 56
f 56 257 201
f 204 85 56
f 56 85 52
f 86 122 53
f 53 122 79
f 212 215 86
f 86 215 122
f 211 216 212
f 212 216 215
f 192 280 211
f 211 280 216
f 191 240 192
f 192 240 280
f 249 124 7
f 7 124 8
f 124 127 8
f 8 127 241
f 127 267 241
f 241 267 10
f 10 267 9
f 9 267 11
o hand_right
v -0.071526 0.189306 0.562171
v -0.080969 0.191684 0.558396
v -0.074595 0.183122 0.556155
v -0.065762 0.181842 0.559011
v -0.094181 0.180872 0.547201
v -0.097673 0.180847 0.535186
v -0.085542 0.170065 0.536463
v -0.084867 0.171493 0.546900
v -0.059135 0.177211 0.555706
v -0.069067 0.176632 0.554476
v -0.054534 0.177762 0.550951
v -0.044189 0.183393 0.552268
v -0.049832 0.179793 0.556884
v -0.037132 0.184810 0.556320
v -0.044241 0.193405 0.546690
v -0.032324 0.193254 0.558022
v -0.051686 0.216873 0.563160
v -0.058520 0.223466 0.572855
v -0.044466 0.217451 0.583554
v -0.039296 0.210256 0.572791
v -0.061488 0.224737 0.594391
v -0.051610 0.220472 0.588883
v -0.064586 0.227645 0.578299
v -0.072771 0.230935 0.583762
v -0.081624 0.199796 0.569618
v -0.091044 0.203200 0.565549
v -0.087112 0.200190 0.562446
v -0.078350 0.196809 0.566237
v -0.055391 0.173294 0.539090
v -0.055512 0.184847 0.536380
v -0.052294 0.182315 0.543625
v -0.056328 0.171283 0.544236
v -0.118975 0.210284 0.562009
v -0.124636 0.219147 0.553462
v -0.121857 0.217214 0.548630
v -0.116991 0.209877 0.557565
v -0.111248 0.201031 0.535149
v -0.114545 0.211426 0.532950
v -0.110378 0.217473 0.521080
v -0.104231 0.209256 0.522357
v -0.105140 0.189826 0.535546
v -0.100744 0.196239 0.523653
v -0.093744 0.185243 0.525074
v -0.082537 0.172445 0.527778
v -0.129010 0.225902 0.563500
v -0.125916 0.219979 0.571251
v -0.052462 0.151005 0.576473
v -0.055908 0.153443 0.580557
v -0.053739 0.157477 0.578899
v -0.050230 0.154308 0.575326
v -0.120625 0.240065 0.575456
v -0.114104 0.247601 0.573684
v -0.120467 0.249550 0.570672
v -0.126081 0.241936 0.570530
v -0.113405 0.237528 0.581909
v -0.105360 0.244207 0.577581
v -0.043174 0.144202 0.582185
v -0.045752 0.145211 0.577819
v -0.041788 0.148771 0.577404
v -0.039476 0.148510 0.582072
v -0.056838 0.180655 0.561373
v -0.063632 0.185528 0.566144
v -0.044350 0.179912 0.570144
v -0.051095 0.181625 0.569943
v -0.048106 0.180294 0.563656
v -0.042547 0.178880 0.564694
v -0.065255 0.194160 0.584127
v -0.074049 0.198099 0.577751
v -0.069713 0.194743 0.574043
v -0.059860 0.189061 0.579755
v -0.083265 0.202350 0.587704
v -0.073621 0.198558 0.593110
v -0.079984 0.201561 0.598146
v -0.086225 0.202827 0.593544
v -0.055417 0.192389 0.599249
v -0.051019 0.192202 0.600374
v -0.054956 0.191639 0.602904
v -0.058638 0.193717 0.601359
v -0.126046 0.252223 0.567147
v -0.130655 0.243731 0.565105
v -0.079440 0.229184 0.606479
v -0.090515 0.227061 0.608504
v -0.081721 0.222633 0.618715
v -0.071560 0.226606 0.613916
v -0.105597 0.250540 0.568406
v -0.112353 0.254276 0.566884
v -0.043261 0.145121 0.588302
v -0.040231 0.149698 0.588010
v -0.086565 0.195632 0.520330
v -0.076274 0.178677 0.522941
v -0.093818 0.209214 0.519697
v -0.098175 0.219318 0.519767
v -0.102919 0.226347 0.517408
v -0.050726 0.183046 0.576498
v -0.069976 0.192015 0.568696
v -0.084786 0.201882 0.573010
v -0.102324 0.208368 0.597809
v -0.110334 0.211249 0.591629
v -0.102947 0.205472 0.586220
v -0.097138 0.204677 0.592708
v -0.096658 0.219338 0.610229
v -0.096468 0.211344 0.608125
v -0.089641 0.209612 0.614037
v -0.088541 0.216562 0.617893
v -0.056953 0.172264 0.531572
v -0.059759 0.186120 0.529822
v -0.125454 0.230660 0.574256
v -0.129042 0.232631 0.567594
v -0.133067 0.237194 0.561611
v -0.105030 0.205623 0.562869
v -0.115745 0.209399 0.554482
v -0.113579 0.206762 0.551510
v -0.102676 0.205057 0.560807
v -0.092221 0.191797 0.555718
v -0.103694 0.192264 0.548361
v -0.084652 0.181995 0.555069
v -0.119418 0.215266 0.541106
v -0.127954 0.222219 0.541956
v -0.123845 0.220264 0.534270
v -0.131559 0.226734 0.549929
v -0.133589 0.231828 0.557009
v -0.117702 0.260363 0.564200
v -0.118579 0.219403 0.527708
v -0.077760 0.165543 0.546038
v -0.072637 0.159328 0.544259
v -0.067322 0.163362 0.548937
v -0.072099 0.169698 0.551634
v -0.031897 0.181820 0.561988
v -0.037940 0.178764 0.561925
v -0.043352 0.180826 0.557725
v -0.113936 0.207970 0.572236
v -0.120210 0.216197 0.579685
v -0.044664 0.181435 0.576028
v -0.036394 0.153992 0.580997
v -0.039116 0.154014 0.575716
v -0.033055 0.172887 0.566591
v -0.028947 0.172536 0.572667
v -0.042223 0.182416 0.582474
v -0.045659 0.182144 0.575994
v -0.046562 0.181537 0.576795
v -0.045872 0.180442 0.583523
v -0.062110 0.195261 0.607978
v -0.065486 0.197184 0.605974
v -0.031293 0.199839 0.583302
v -0.024410 0.196370 0.571601
v -0.033836 0.203879 0.562682
v -0.070353 0.197213 0.588686
v -0.062905 0.194099 0.594944
v -0.065567 0.195810 0.597748
v -0.049394 0.183457 0.580818
v -0.044070 0.182535 0.582110
v -0.046320 0.184067 0.585354
v -0.052814 0.185988 0.583901
v -0.098861 0.231899 0.599031
v -0.106059 0.222898 0.601520
v -0.048910 0.147874 0.575644
v -0.045728 0.151200 0.574820
v -0.078885 0.200998 0.582317
v -0.047480 0.209057 0.555232
v -0.088376 0.203745 0.576748
v -0.057549 0.212650 0.612953
v -0.062748 0.207247 0.615896
v -0.061292 0.201675 0.617493
v -0.056006 0.203962 0.616693
v -0.050855 0.165197 0.588983
v -0.053568 0.164600 0.583685
v -0.055020 0.159424 0.584794
v -0.052837 0.159387 0.590232
v -0.045288 0.181269 0.570128
v -0.042081 0.178879 0.565459
v -0.044574 0.177187 0.566290
v -0.046686 0.179386 0.571806
v -0.037363 0.178285 0.562865
v -0.038888 0.174893 0.564292
v -0.045490 0.163169 0.592259
v -0.039226 0.159037 0.591557
v -0.032407 0.176796 0.586136
v -0.040395 0.177369 0.587880
v -0.082377 0.238098 0.574038
v -0.090609 0.239886 0.581456
v -0.081158 0.233074 0.591403
v -0.071197 0.227550 0.602037
v -0.061585 0.221162 0.610869
v -0.051679 0.220034 0.603627
v -0.088320 0.234299 0.595553
v -0.036067 0.189528 0.585849
v -0.029762 0.188427 0.583348
v -0.032191 0.193162 0.586055
v -0.093288 0.204536 0.582347
v -0.043524 0.155965 0.572810
v -0.089992 0.238758 0.530327
v -0.092088 0.246790 0.540829
v -0.085873 0.241188 0.543596
v -0.084056 0.231544 0.531971
v -0.052839 0.162465 0.577196
v -0.049275 0.159164 0.572794
v -0.069028 0.198307 0.611509
v -0.064933 0.196114 0.612896
v -0.064939 0.197037 0.615543
v -0.069754 0.198394 0.616740
v -0.096021 0.240538 0.584098
v -0.076673 0.215380 0.624007
v -0.067950 0.220544 0.619265
v -0.098391 0.245820 0.572583
v -0.091039 0.244933 0.566112
v -0.097531 0.250132 0.560921
v -0.041910 0.210042 0.598398
v -0.075406 0.235059 0.569717
v -0.085471 0.242025 0.561640
v -0.092996 0.248070 0.555211
v -0.098363 0.253162 0.551239
v -0.102878 0.254766 0.557886
v -0.037077 0.155740 0.587214
v -0.042931 0.152745 0.593250
v -0.108244 0.261457 0.554801
v -0.103299 0.258815 0.547353
v -0.079884 0.238016 0.555461
v -0.074284 0.231991 0.547673
v -0.070485 0.231191 0.563526
v -0.063871 0.224858 0.556499
v -0.033337 0.211402 0.591021
v -0.056736 0.141879 0.595717
v -0.050783 0.151335 0.594759
v -0.054876 0.154327 0.591785
v -0.059869 0.144847 0.594873
v -0.048347 0.157084 0.593570
v -0.046054 0.148170 0.593501
v -0.059902 0.214867 0.546290
v -0.041640 0.184846 0.586016
v -0.072837 0.219366 0.535137
v -0.053437 0.200325 0.538386
v -0.064640 0.201910 0.530508
v -0.086035 0.221501 0.523210
v -0.078302 0.206564 0.522156
v -0.097134 0.235223 0.520576
v -0.091236 0.229335 0.523093
v -0.071176 0.191299 0.522756
v -0.060476 0.144880 0.580279
v -0.062414 0.147703 0.584895
v -0.095298 0.244339 0.527186
v -0.077520 0.175306 0.553497
v -0.101347 0.205647 0.575056
v -0.097203 0.205140 0.571202
v -0.114522 0.213120 0.587138
v -0.107676 0.206554 0.579930
v -0.056980 0.141280 0.578465
v -0.049998 0.192892 0.601754
v -0.051595 0.192892 0.601783
v -0.079829 0.163483 0.537319
v -0.075389 0.158403 0.536915
v -0.067050 0.162318 0.526966
v -0.072503 0.158802 0.530370
v -0.077403 0.165304 0.529056
v -0.071973 0.169469 0.525079
v -0.106725 0.205849 0.564934
v -0.108972 0.206445 0.568154
v -0.106899 0.234869 0.590188
v -0.113263 0.225507 0.592914
v -0.031765 0.179006 0.564492
v -0.026869 0.186272 0.566329
v -0.027185 0.181065 0.569556
v -0.027840 0.175825 0.579290
v -0.039613 0.186003 0.585511
v -0.037874 0.184465 0.585535
v -0.109045 0.200029 0.550175
v -0.098242 0.200574 0.558047
v -0.065006 0.173077 0.552343
v -0.060967 0.167887 0.549433
v -0.058036 0.190539 0.587994
v -0.040648 0.198638 0.601399
v -0.033999 0.199700 0.594474
v -0.050523 0.188220 0.591772
v -0.052318 0.136135 0.583426
v -0.054668 0.138438 0.579583
v -0.025956 0.184343 0.575922
v -0.071923 0.198158 0.602990
v -0.044491 0.203217 0.603298
v -0.045685 0.195735 0.604008
v -0.084460 0.212648 0.621450
v -0.098120 0.252045 0.536873
v -0.057483 0.154969 0.586696
v -0.062465 0.148590 0.589947
v -0.053391 0.139441 0.594378
v -0.050731 0.137102 0.589516
v -0.119136 0.226853 0.583650
v -0.094184 0.204534 0.568886
v -0.066105 0.178832 0.524494
v -0.061578 0.168140 0.527573
v -0.046013 0.189116 0.592791
v -0.062786 0.214933 0.616171
v -0.049301 0.211180 0.608968
v -0.048012 0.202065 0.613057
v -0.045293 0.197319 0.607791
v -0.047740 0.192456 0.603529
v -0.058155 0.136298 0.594946
v -0.055684 0.133637 0.590046
v -0.057311 0.132802 0.584021
v -0.059013 0.135262 0.580312
v -0.060501 0.139332 0.579300
v -0.061550 0.138907 0.596268
v -0.064130 0.141767 0.595158
v -0.064853 0.146232 0.590653
v -0.066112 0.137542 0.596229
v -0.065609 0.132440 0.595153
v -0.070791 0.127765 0.583246
v -0.065173 0.128675 0.584888
v -0.067151 0.127788 0.586561
v -0.071948 0.126590 0.586042
v -0.076740 0.124978 0.587000
v -0.076168 0.126091 0.583678
v -0.065040 0.129428 0.590374
v -0.071537 0.127773 0.590466
v -0.072277 0.130074 0.593947
v -0.077297 0.127845 0.594118
v -0.076769 0.125549 0.591105
v -0.067726 0.130782 0.593768
v -0.062653 0.129861 0.590597
v -0.080114 0.125437 0.585961
v -0.079349 0.124241 0.588045
v -0.079797 0.125079 0.591244
v -0.082551 0.126005 0.590335
v -0.063713 0.132861 0.580697
v -0.071417 0.129535 0.581447
v -0.077243 0.128948 0.582893
v -0.081012 0.128032 0.585303
v -0.073779 0.132872 0.581602
v -0.078067 0.131736 0.583398
v -0.081307 0.131312 0.585752
v -0.075760 0.136214 0.583446
v -0.079062 0.134306 0.585038
v -0.065367 0.141086 0.581326
v -0.063477 0.137745 0.579601
v -0.081308 0.133450 0.586006
v -0.083391 0.128036 0.590093
v -0.071702 0.133230 0.595769
v -0.078212 0.130849 0.594986
v -0.072507 0.135475 0.595856
v -0.078921 0.133070 0.595495
v -0.081842 0.128440 0.594514
v -0.079984 0.126898 0.593611
v -0.062315 0.143677 0.581312
v -0.064179 0.146441 0.586224
v -0.066791 0.144460 0.586352
v -0.076619 0.139067 0.587228
v -0.067731 0.144516 0.590737
v -0.068383 0.140414 0.595018
v -0.074501 0.137444 0.594868
v -0.075947 0.139246 0.592303
v -0.079284 0.135248 0.594137
v -0.079524 0.136414 0.591844
v -0.079923 0.136308 0.588011
v -0.082309 0.133153 0.592502
v -0.082347 0.130590 0.594040
v -0.083055 0.131318 0.589288
v -0.081693 0.134667 0.591395
v -0.081771 0.133550 0.588604
v -0.054201 0.161282 0.595848
v -0.058321 0.164265 0.599684
v -0.055631 0.168388 0.598041
v -0.052195 0.165574 0.594764
v -0.043521 0.156769 0.603037
v -0.046646 0.157238 0.597770
v -0.043499 0.161168 0.596740
v -0.040565 0.161531 0.603000
v -0.044369 0.159456 0.609587
v -0.041769 0.164627 0.609035
v -0.037701 0.166836 0.601707
v -0.040965 0.166437 0.595262
v -0.036863 0.185171 0.587825
v -0.033465 0.186931 0.593042
v -0.051655 0.190557 0.596303
v -0.051647 0.190875 0.599610
v -0.050728 0.159185 0.595739
v -0.047891 0.163115 0.594586
v -0.056675 0.175271 0.605518
v -0.057123 0.174033 0.600074
v -0.057989 0.170154 0.602066
v -0.057209 0.170904 0.607490
v -0.044834 0.186016 0.586237
v -0.047770 0.188481 0.591714
v -0.041231 0.185192 0.585814
v -0.052356 0.174691 0.610548
v -0.045996 0.172869 0.612521
v -0.040510 0.191082 0.605590
v -0.046641 0.190929 0.605905
v -0.045524 0.167260 0.592312
v -0.054767 0.171504 0.595376
v -0.050935 0.169242 0.592299
v -0.039728 0.170324 0.607906
v -0.048139 0.167306 0.613455
v -0.062000 0.154242 0.615212
v -0.055978 0.164862 0.613079
v -0.059337 0.165972 0.609265
v -0.066146 0.155601 0.612469
v -0.053899 0.169739 0.611866
v -0.050491 0.162562 0.613713
v -0.064438 0.150311 0.599507
v -0.068211 0.153563 0.603534
v -0.060694 0.147598 0.598919
v -0.034890 0.189727 0.599315
v -0.052577 0.146443 0.605060
v -0.056812 0.146412 0.600163
v -0.060389 0.166042 0.604214
v -0.068763 0.155306 0.608263
v -0.057807 0.152214 0.615353
v -0.052176 0.149606 0.611144
v -0.061607 0.147429 0.615524
v -0.057253 0.144441 0.611738
v -0.057362 0.141723 0.605544
v -0.060522 0.143007 0.600772
v -0.063427 0.145343 0.599437
v -0.065513 0.149549 0.615528
v -0.069121 0.151553 0.612992
v -0.070254 0.152916 0.608158
v -0.071755 0.146070 0.614085
v -0.069026 0.142243 0.614616
v -0.075437 0.132116 0.599903
v -0.070093 0.134489 0.601538
v -0.070756 0.133897 0.604038
v -0.075667 0.131719 0.602696
v -0.064847 0.136067 0.604833
v -0.066907 0.135523 0.606287
v -0.067261 0.137688 0.610530
v -0.072705 0.135553 0.608171
v -0.074584 0.138770 0.611383
v -0.079438 0.135950 0.610167
v -0.077782 0.132518 0.607175
v -0.070259 0.139332 0.612545
v -0.079130 0.130608 0.602702
v -0.080919 0.130935 0.600820
v -0.064124 0.138544 0.611524
v -0.063231 0.140052 0.600682
v -0.070943 0.136035 0.598907
v -0.077169 0.134037 0.597824
v -0.082918 0.133135 0.600046
v -0.073697 0.139029 0.597515
v -0.079167 0.136614 0.597458
v -0.083512 0.135818 0.599914
v -0.076758 0.142720 0.598039
v -0.081656 0.139872 0.598664
v -0.067922 0.147777 0.599612
v -0.065237 0.143927 0.598637
v -0.083342 0.138235 0.599782
v -0.083444 0.131271 0.604930
v -0.085373 0.133576 0.603422
v -0.081697 0.131263 0.605662
v -0.075578 0.140519 0.612253
v -0.080981 0.137567 0.610078
v -0.077455 0.142740 0.611874
v -0.082888 0.138998 0.609477
v -0.084199 0.134560 0.608264
v -0.082886 0.133480 0.608262
v -0.066249 0.148570 0.600476
v -0.069234 0.151846 0.604141
v -0.070605 0.151303 0.603279
v -0.079118 0.145650 0.601955
v -0.071960 0.152090 0.607855
v -0.072968 0.148995 0.611982
v -0.078573 0.144988 0.610401
v -0.079791 0.146214 0.606707
v -0.083921 0.140856 0.608943
v -0.083254 0.142970 0.606518
v -0.083033 0.142394 0.601672
v -0.086428 0.137587 0.606739
v -0.085495 0.135632 0.607697
v -0.085566 0.135694 0.602734
v -0.085599 0.140084 0.605347
v -0.084974 0.138750 0.601944
v -0.061948 0.170680 0.610795
v -0.065178 0.173579 0.614714
v -0.063698 0.176814 0.613432
v -0.060359 0.174213 0.609709
v -0.050699 0.167247 0.616105
v -0.053897 0.166542 0.612274
v -0.051506 0.170614 0.610860
v -0.047546 0.172351 0.614375
v -0.051305 0.167928 0.621859
v -0.047287 0.174703 0.620314
v -0.045093 0.177202 0.612941
v -0.049484 0.174697 0.609428
v -0.048303 0.188624 0.604648
v -0.044426 0.190728 0.609491
v -0.057938 0.168214 0.610652
v -0.056215 0.171812 0.609392
v -0.063335 0.181284 0.620942
v -0.064687 0.179810 0.616345
v -0.064536 0.178361 0.618579
v -0.062786 0.178966 0.622539
v -0.058288 0.190190 0.603186
v -0.061619 0.192650 0.607531
v -0.053792 0.188330 0.602774
v -0.057853 0.181898 0.624631
v -0.050486 0.181711 0.624473
v -0.053061 0.194942 0.620341
v -0.059081 0.194919 0.619371
v -0.054446 0.174823 0.607914
v -0.063538 0.178474 0.611218
v -0.059764 0.176214 0.607887
v -0.045816 0.180010 0.618762
v -0.052013 0.176647 0.625469
v -0.066388 0.159956 0.630532
v -0.059184 0.174112 0.627307
v -0.063977 0.175556 0.623952
v -0.070067 0.162095 0.629179
v -0.058236 0.178133 0.626193
v -0.054067 0.171415 0.626644
v -0.070243 0.159633 0.615201
v -0.072504 0.162143 0.619633
v -0.065969 0.158061 0.614168
v -0.045855 0.193608 0.615994
v -0.063429 0.194248 0.614930
v -0.059994 0.154929 0.617851
v -0.063043 0.156434 0.614986
v -0.065625 0.175333 0.619801
v -0.072474 0.163231 0.625380
v -0.061658 0.158121 0.629228
v -0.058215 0.156305 0.623678
v -0.065503 0.153630 0.629027
v -0.061813 0.151955 0.623472
v -0.062697 0.151967 0.617450
v -0.065531 0.155014 0.614608
v -0.068235 0.157187 0.614084
v -0.070266 0.156593 0.629929
v -0.073086 0.159239 0.628626
v -0.072994 0.162528 0.624873
v -0.073997 0.154728 0.629054
v -0.071588 0.149956 0.627270
v -0.081210 0.146898 0.612411
v -0.075403 0.148697 0.614125
v -0.075563 0.148226 0.615230
v -0.081219 0.145856 0.613854
v -0.068865 0.149071 0.616935
v -0.070682 0.148467 0.617550
v -0.070468 0.148037 0.621563
v -0.076884 0.146180 0.620045
v -0.078751 0.149138 0.625188
v -0.083684 0.147070 0.622972
v -0.082354 0.144074 0.618264
v -0.072776 0.149184 0.625483
v -0.084497 0.144634 0.613829
v -0.084998 0.144682 0.612035
v -0.067836 0.148193 0.622531
v -0.068912 0.153105 0.613955
v -0.075853 0.150993 0.612099
v -0.081646 0.149256 0.610433
v -0.086062 0.148078 0.611077
v -0.077582 0.154491 0.612047
v -0.082541 0.152202 0.611070
v -0.086453 0.150972 0.611802
v -0.079472 0.156919 0.613576
v -0.083619 0.154614 0.612974
v -0.071915 0.159915 0.615585
v -0.070078 0.157022 0.613704
v -0.086246 0.152877 0.613230
v -0.087649 0.144008 0.615975
v -0.089655 0.147722 0.615591
v -0.086058 0.144032 0.616650
v -0.078968 0.150295 0.626615
v -0.085402 0.148183 0.624077
v -0.080280 0.152841 0.627073
v -0.086391 0.150610 0.624502
v -0.088137 0.145885 0.620913
v -0.087026 0.145494 0.620661
v -0.070949 0.159510 0.615633
v -0.072636 0.162024 0.620003
v -0.073347 0.162340 0.619790
v -0.081710 0.159077 0.617667
v -0.074201 0.162357 0.624481
v -0.076362 0.157740 0.627766
v -0.081526 0.155686 0.625470
v -0.082586 0.158141 0.622346
v -0.086647 0.153192 0.623320
v -0.085832 0.155367 0.621531
v -0.085473 0.156396 0.616553
v -0.088888 0.151266 0.620179
v -0.089224 0.148345 0.621028
v -0.089174 0.150910 0.615497
v -0.088126 0.153563 0.619294
v -0.088119 0.153226 0.615761
v -0.063601 0.193802 0.611490
v -0.066193 0.179877 0.622894
v -0.069155 0.181074 0.625962
v -0.069267 0.182043 0.625765
v -0.066804 0.181602 0.621983
v -0.055598 0.182967 0.625469
v -0.058466 0.180466 0.622674
v -0.057979 0.184167 0.621224
v -0.055351 0.186579 0.624035
v -0.055970 0.185631 0.630104
v -0.056462 0.188544 0.629087
v -0.056746 0.190307 0.622818
v -0.059257 0.187996 0.619562
v -0.063407 0.203167 0.615077
v -0.062175 0.207561 0.618345
v -0.081335 0.206749 0.624254
v -0.082955 0.204344 0.619955
v -0.079047 0.197550 0.624357
v -0.077852 0.200662 0.627765
v -0.062318 0.179731 0.621945
v -0.062574 0.182445 0.620129
v -0.070349 0.187500 0.633605
v -0.071762 0.185268 0.629433
v -0.070927 0.183380 0.629433
v -0.070470 0.184949 0.633851
v -0.080082 0.201272 0.617011
v -0.075373 0.200231 0.615765
v -0.074744 0.196586 0.617172
v -0.076958 0.195344 0.620697
v -0.069169 0.197533 0.615683
v -0.066752 0.189741 0.635074
v -0.061266 0.191881 0.633506
v -0.070998 0.208322 0.629217
v -0.075167 0.205242 0.629268
v -0.062823 0.184916 0.619417
v -0.070478 0.184287 0.624872
v -0.067613 0.183303 0.621968
v -0.057265 0.192225 0.628227
v -0.060969 0.188420 0.634020
v -0.066692 0.178333 0.639197
v -0.066331 0.185073 0.636941
v -0.070384 0.183876 0.634502
v -0.069790 0.178573 0.637765
v -0.066614 0.186551 0.635631
v -0.060705 0.185241 0.635478
v -0.067918 0.175417 0.625111
v -0.070812 0.177225 0.629666
v -0.064706 0.174604 0.623906
v -0.065031 0.210108 0.623543
v -0.058096 0.175001 0.627401
v -0.061454 0.173920 0.624758
v -0.070602 0.182197 0.629950
v -0.071586 0.178279 0.634273
v -0.061796 0.177679 0.637957
v -0.057523 0.177659 0.632722
v -0.063448 0.172440 0.638453
v -0.059251 0.172930 0.633420
v -0.061120 0.171499 0.627000
v -0.064243 0.173072 0.624940
v -0.067060 0.174502 0.624701
v -0.068301 0.174723 0.639807
v -0.070617 0.176067 0.638875
v -0.071857 0.177118 0.635015
v -0.069993 0.171144 0.639756
v -0.068329 0.167827 0.636541
v -0.077588 0.166889 0.627007
v -0.073555 0.168482 0.626530
v -0.073344 0.167669 0.627429
v -0.077157 0.165941 0.627358
v -0.067806 0.169108 0.626866
v -0.069208 0.168136 0.628021
v -0.067124 0.167694 0.631236
v -0.072360 0.165572 0.631121
v -0.073550 0.166230 0.636420
v -0.077366 0.164563 0.635770
v -0.075879 0.163832 0.631213
v -0.069199 0.167029 0.635226
v -0.079243 0.164119 0.628109
v -0.080645 0.164274 0.627697
v -0.064149 0.168020 0.631351
v -0.069141 0.172607 0.625105
v -0.075507 0.170239 0.625576
v -0.080042 0.167704 0.626381
v -0.082667 0.165528 0.628442
v -0.076427 0.172552 0.626022
v -0.081367 0.169549 0.626837
v -0.083690 0.167482 0.628983
v -0.077653 0.174784 0.628261
v -0.081846 0.171311 0.628614
v -0.072559 0.177278 0.628197
v -0.071228 0.175255 0.625650
v -0.083457 0.169017 0.629771
v -0.081037 0.162554 0.631296
v -0.083160 0.164750 0.631709
v -0.079300 0.162269 0.631461
v -0.073913 0.166917 0.637733
v -0.078607 0.165070 0.636937
v -0.074992 0.168669 0.638992
v -0.079970 0.166729 0.637446
v -0.080975 0.163479 0.634821
v -0.079130 0.163080 0.634205
v -0.070269 0.175823 0.626756
v -0.071577 0.176643 0.629990
v -0.073309 0.177465 0.632293
v -0.078180 0.175521 0.632591
v -0.072764 0.176785 0.637335
v -0.071556 0.174013 0.639913
v -0.076549 0.171071 0.639000
v -0.077993 0.173702 0.637227
v -0.081231 0.168442 0.636851
v -0.081904 0.171024 0.635367
v -0.082215 0.172237 0.632064
v -0.083336 0.166853 0.634091
v -0.082777 0.165106 0.634599
v -0.083955 0.166684 0.631833
v -0.083538 0.168682 0.633575
v -0.083713 0.168938 0.631862
v -0.077934 0.208349 0.626151
v -0.050959 0.158992 0.534957
v -0.051200 0.160544 0.540383
v -0.063394 0.151313 0.546957
v -0.057404 0.155350 0.548146
v -0.066748 0.147769 0.541819
v -0.064792 0.147431 0.530637
v -0.067600 0.147504 0.535884
v -0.053171 0.158836 0.545536
v -0.053776 0.156137 0.530000
v -0.059557 0.151497 0.527527
v -0.045181 0.149741 0.531470
v -0.051704 0.143678 0.528950
v -0.057141 0.139360 0.531827
v -0.062606 0.141788 0.538030
v -0.063728 0.143432 0.542895
v -0.046669 0.155250 0.537850
v -0.048283 0.157043 0.542644
v -0.052489 0.155485 0.547553
v -0.043075 0.152180 0.544031
v -0.041093 0.143217 0.546853
v -0.049538 0.127775 0.556779
v -0.052297 0.131316 0.551337
v -0.049632 0.131685 0.551021
v -0.047280 0.128084 0.555805
v -0.051623 0.133806 0.545872
v -0.049745 0.134353 0.547140
v -0.045968 0.137865 0.545820
v -0.044095 0.134618 0.550907
v -0.042698 0.141036 0.548279
v -0.041354 0.139763 0.552608
v -0.041985 0.131566 0.555586
v -0.044175 0.126699 0.558132
v -0.040416 0.129051 0.559520
v -0.045922 0.126413 0.560609
v -0.044084 0.136978 0.542149
v -0.057632 0.135736 0.543946
v -0.055579 0.132198 0.551834
v -0.052386 0.129117 0.558570
v -0.047820 0.128062 0.562602
v -0.057782 0.134908 0.554247
v -0.053969 0.132730 0.559990
v -0.049484 0.132397 0.563530
v -0.057468 0.139138 0.556742
v -0.053190 0.136502 0.561053
v -0.061493 0.145828 0.549211
v -0.062002 0.140273 0.546063
v -0.049990 0.135050 0.563002
v -0.040526 0.128827 0.562314
v -0.042569 0.130834 0.564275
v -0.040527 0.142987 0.552982
v -0.039042 0.136868 0.556800
v -0.039157 0.139275 0.558210
v -0.041652 0.146644 0.553789
v -0.040187 0.141299 0.559707
v -0.038404 0.134520 0.561458
v -0.038568 0.133285 0.559056
v -0.062413 0.147447 0.547460
v -0.057912 0.152115 0.548819
v -0.057475 0.150965 0.550022
v -0.053819 0.144744 0.557751
v -0.052136 0.154059 0.550109
v -0.046689 0.154323 0.547291
v -0.044165 0.148454 0.555730
v -0.048641 0.148162 0.557214
v -0.043245 0.142492 0.560940
v -0.046251 0.142391 0.561258
v -0.050353 0.139854 0.561900
v -0.043161 0.137849 0.563557
v -0.040043 0.136486 0.563097
v -0.045445 0.134227 0.564577
v -0.045471 0.138958 0.562932
v -0.047603 0.136703 0.563541
v -0.085977 0.207497 0.616517
v -0.082612 0.203370 0.612620
v -0.087473 0.205409 0.609760
v -0.094692 0.206530 0.604238
v -0.102844 0.212859 0.602307
v -0.090545 0.203895 0.599086
v -0.083350 0.202701 0.605135
v -0.076120 0.200103 0.609227
v -0.092060 0.204213 0.588917
f 780 781 779
f 779 781 782
f 783 784 786
f 786 784 785
f 787 782 788
f 788 782 781
f 790 791 789
f 789 791 787
f 792 790 794
f 794 790 793
f 796 797 795
f 795 797 798
f 800 801 799
f 799 801 802
f 804 805 803
f 803 805 806
f 808 809 807
f 807 809 810
f 811 812 814
f 814 812 813
f 815 816 818
f 818 816 817
f 819 820 784
f 784 820 821
f 784 821 785
f 785 821 822
f 823 812 824
f 824 812 811
f 826 827 825
f 825 827 828
f 830 831 829
f 829 831 832
f 834 830 833
f 833 830 829
f 836 837 835
f 835 837 838
f 839 840 782
f 782 840 779
f 842 843 841
f 841 843 844
f 846 847 845
f 845 847 848
f 850 851 849
f 849 851 852
f 854 855 853
f 853 855 856
f 831 857 832
f 832 857 858
f 860 861 859
f 859 861 862
f 863 864 830
f 830 864 831
f 835 838 865
f 865 838 866
f 867 868 821
f 821 868 822
f 821 820 867
f 867 820 869
f 818 817 870
f 870 817 871
f 872 848 842
f 842 848 847
f 791 839 787
f 787 839 782
f 803 806 847
f 847 806 873
f 874 803 846
f 846 803 847
f 876 877 875
f 875 877 878
f 879 880 882
f 882 880 881
f 884 808 883
f 883 808 807
f 829 832 885
f 885 832 886
f 832 858 886
f 886 858 887
f 889 890 888
f 888 890 891
f 893 783 892
f 892 783 894
f 893 819 783
f 783 819 784
f 814 813 889
f 889 813 895
f 813 896 895
f 895 896 897
f 812 898 813
f 813 898 896
f 812 823 898
f 898 823 899
f 903 904 902
f 902 904 905
f 906 907 792
f 792 907 908
f 811 909 824
f 824 909 910
f 911 872 841
f 841 872 842
f 912 913 915
f 915 913 914
f 917 918 916
f 916 918 919
f 855 920 856
f 856 920 921
f 922 923 798
f 798 923 924
f 926 927 925
f 925 927 850
f 929 930 928
f 928 930 931
f 860 879 861
f 861 879 882
f 879 860 933
f 933 860 932
f 934 935 836
f 836 935 837
f 936 846 925
f 925 846 845
f 937 924 793
f 793 924 794
f 846 936 874
f 874 936 938
f 907 844 908
f 908 844 843
f 940 941 939
f 939 941 942
f 944 945 943
f 943 945 946
f 948 949 947
f 947 949 950
f 952 949 951
f 951 949 948
f 954 955 953
f 953 955 956
f 958 959 957
f 957 959 802
f 960 961 799
f 799 961 962
f 859 963 860
f 860 963 932
f 964 965 966
f 966 965 922
f 936 849 938
f 938 849 967
f 968 913 935
f 935 913 837
f 947 950 917
f 917 950 918
f 925 850 936
f 936 850 849
f 970 971 969
f 969 971 972
f 945 944 827
f 827 944 973
f 974 968 828
f 828 968 935
f 975 976 978
f 978 976 977
f 799 802 960
f 960 802 959
f 924 937 798
f 798 937 795
f 960 959 859
f 859 959 963
f 979 963 958
f 958 963 959
f 980 981 861
f 861 981 862
f 983 984 982
f 982 984 863
f 985 800 962
f 962 800 799
f 957 802 986
f 986 802 801
f 986 987 957
f 957 987 983
f 987 988 983
f 983 988 984
f 990 984 989
f 989 984 988
f 957 983 958
f 958 983 982
f 991 954 866
f 866 954 992
f 864 863 990
f 990 863 984
f 971 995 996
f 995 997 996
f 996 997 998
f 997 796 998
f 998 796 795
f 797 999 798
f 798 999 922
f 1000 1001 1003
f 1003 1001 1002
f 953 1004 954
f 954 1004 992
f 1005 865 992
f 992 865 866
f 998 795 1006
f 1006 795 937
f 912 991 838
f 838 991 866
f 916 1007 929
f 929 1007 930
f 971 970 988
f 988 970 989
f 1008 972 996
f 996 972 971
f 1009 1010 1006
f 1006 1010 1008
f 1011 1012 869
f 869 1012 867
f 1013 1014 871
f 871 1014 870
f 1008 1010 1012
f 1012 1010 1015
f 825 1016 826
f 826 1016 1017
f 1018 969 1013
f 1013 969 1014
f 783 786 894
f 894 786 1019
f 1020 1021 967
f 967 1021 938
f 1022 1023 876
f 876 1023 877
f 934 1024 825
f 825 1024 1016
f 854 1025 855
f 855 1025 1026
f 1028 903 1027
f 1027 903 902
f 1030 1031 1029
f 1029 1031 1032
f 889 888 814
f 814 888 1033
f 1034 811 1033
f 1033 811 814
f 1035 1036 932
f 932 1036 933
f 841 947 911
f 911 947 917
f 844 948 841
f 841 948 947
f 951 948 907
f 907 948 844
f 907 906 951
f 951 906 1037
f 906 1038 1037
f 1037 1038 1039
f 991 912 1040
f 1040 912 915
f 1041 1042 964
f 964 1042 965
f 890 1043 891
f 891 1043 1044
f 789 1045 1046
f 1012 1011 1008
f 1008 1011 972
f 931 1047 848
f 848 1047 845
f 953 956 943
f 943 956 919
f 928 931 872
f 872 931 848
f 1049 999 1048
f 1048 999 985
f 1047 931 1050
f 1050 931 930
f 899 823 887
f 887 823 886
f 825 828 934
f 934 828 935
f 835 1051 836
f 836 1051 1052
f 923 1053 1038
f 1038 1053 1039
f 1054 927 921
f 921 927 856
f 926 1047 853
f 853 1047 1050
f 985 1055 1048
f 1048 1055 1056
f 973 974 827
f 827 974 828
f 837 913 838
f 838 913 912
f 861 882 980
f 980 882 1057
f 927 926 856
f 856 926 853
f 1025 1056 1026
f 1026 1056 1055
f 961 960 862
f 862 960 859
f 826 1017 1059
f 1059 1017 1060
f 1005 1001 1061
f 1061 1001 1000
f 1001 1004 1002
f 1002 1004 946
f 1059 1060 1002
f 1002 1060 1003
f 943 946 953
f 953 946 1004
f 1042 1041 916
f 916 1041 1007
f 792 794 906
f 906 794 1038
f 998 1006 996
f 996 1006 1008
f 865 1005 1062
f 1062 1005 1061
f 1038 794 923
f 923 794 924
f 1022 876 1036
f 1036 876 933
f 836 1052 934
f 934 1052 1024
f 885 1063 829
f 829 1063 833
f 1021 1064 938
f 938 1064 874
f 1012 1015 867
f 867 1015 868
f 824 910 885
f 885 910 1063
f 1031 1030 1027
f 1027 1030 1028
f 1064 804 874
f 874 804 803
f 884 883 1065
f 1065 883 1066
f 1050 930 1067
f 1067 930 1007
f 916 929 917
f 917 929 911
f 961 1068 939
f 939 1068 940
f 1069 1070 1055
f 1055 1070 1071
f 929 928 911
f 911 928 872
f 1040 1053 955
f 955 1053 965
f 922 965 923
f 923 965 1053
f 1051 835 1062
f 1062 835 865
f 952 914 968
f 968 914 913
f 889 895 890
f 890 895 816
f 895 897 816
f 816 897 901
f 890 816 1043
f 1043 816 815
f 1065 1066 1032
f 1032 1066 1029
f 1006 937 1009
f 1009 937 793
f 1001 1005 1004
f 1004 1005 992
f 925 845 926
f 926 845 1047
f 1002 946 1059
f 1059 946 945
f 977 941 978
f 978 941 940
f 823 824 886
f 886 824 885
f 1059 945 826
f 826 945 827
f 939 942 1069
f 1069 942 1070
f 816 901 817
f 1071 1072 1055
f 1055 1072 1026
f 1062 1061 1074
f 1074 1061 1073
f 1062 1074 1051
f 1051 1074 1075
f 1052 1051 1076
f 1076 1051 1075
f 1024 1052 1077
f 1077 1052 1076
f 1061 1000 1073
f 1073 1000 1078
f 1000 1003 1078
f 1078 1003 1079
f 1079 1003 1080
f 1080 1003 1060
f 1081 1082 1078
f 1078 1082 1073
f 1084 1085 1083
f 1083 1085 1086
f 1087 1088 1086
f 1086 1088 1083
f 1086 1085 1090
f 1090 1085 1089
f 1091 1092 1090
f 1090 1092 1093
f 1089 1094 1090
f 1090 1094 1091
f 1095 1082 1089
f 1089 1082 1094
f 1093 1087 1090
f 1090 1087 1086
f 1096 1097 1099
f 1099 1097 1098
f 1097 1096 1087
f 1087 1096 1088
f 1089 1085 1095
f 1095 1085 1084
f 1084 1075 1095
f 1095 1075 1074
f 1084 1100 1075
f 1075 1100 1076
f 1083 1101 1084
f 1084 1101 1100
f 1101 1083 1102
f 1102 1083 1088
f 1082 1095 1073
f 1073 1095 1074
f 1096 1103 1088
f 1088 1103 1102
f 1101 1102 1104
f 1104 1102 1105
f 1102 1103 1105
f 1105 1103 1106
f 1104 1105 1107
f 1107 1105 1108
f 1107 1109 1104
f 1104 1109 1110
f 1111 1108 1106
f 1106 1108 1105
f 1101 1104 1100
f 1100 1104 1110
f 1100 1110 1076
f 1076 1110 1077
f 1103 1096 1112
f 1112 1096 1099
f 1091 1094 1113
f 1113 1094 1082
f 1113 1114 1091
f 1091 1114 1092
f 1082 1081 1113
f 1113 1081 1115
f 1114 1113 1116
f 1116 1113 1115
f 1114 1117 1092
f 1092 1117 1118
f 1024 1077 1016
f 1016 1077 1119
f 1017 1120 1060
f 1060 1120 1080
f 1120 1017 1119
f 1119 1017 1016
f 1119 1109 1120
f 1120 1109 1121
f 1109 1107 1121
f 1121 1107 1122
f 1120 1121 1080
f 1080 1121 1123
f 1119 1077 1109
f 1109 1077 1110
f 1124 1079 1123
f 1123 1079 1080
f 1124 1081 1079
f 1079 1081 1078
f 1125 1115 1124
f 1124 1115 1081
f 1125 1124 1126
f 1126 1124 1123
f 1127 1125 1128
f 1128 1125 1126
f 1121 1122 1123
f 1123 1122 1126
f 1122 1129 1126
f 1126 1129 1128
f 1115 1125 1116
f 1116 1125 1127
f 1131 1116 1130
f 1130 1116 1127
f 1130 1133 1132
f 1132 1133 1134
f 1130 1127 1133
f 1133 1127 1128
f 1130 1132 1131
f 1131 1132 1112
f 1131 1112 1117
f 1117 1112 1099
f 1117 1114 1131
f 1131 1114 1116
f 1107 1108 1122
f 1122 1108 1129
f 1134 1129 1111
f 1111 1129 1108
f 1134 1133 1129
f 1129 1133 1128
f 1132 1134 1106
f 1106 1134 1111
f 1106 1103 1132
f 1132 1103 1112
f 1087 1093 1097
f 1097 1093 1098
f 1098 1118 1099
f 1099 1118 1117
f 1098 1093 1118
f 1118 1093 1092
f 915 914 1039
f 1039 914 1037
f 918 944 919
f 919 944 943
f 950 949 973
f 973 949 974
f 949 952 974
f 974 952 968
f 956 955 1042
f 1042 955 965
f 950 973 918
f 918 973 944
f 915 1039 1040
f 1040 1039 1053
f 956 1042 919
f 919 1042 916
f 1040 955 991
f 991 955 954
f 914 952 1037
f 1037 952 951
f 1136 1137 1135
f 1135 1137 1138
f 1140 1141 1139
f 1139 1141 1142
f 1139 1142 1143
f 1143 1142 1144
f 1145 1146 1148
f 1148 1146 1147
f 854 1149 1025
f 1025 1149 1150
f 1151 1152 1140
f 1140 1152 1141
f 1154 1155 1153
f 1153 1155 1156
f 1067 1007 1158
f 1158 1007 1157
f 1159 1157 1041
f 1041 1157 1007
f 1161 1162 1160
f 1160 1162 1163
f 1164 1146 1152
f 1152 1146 1141
f 854 1067 1149
f 1149 1067 1158
f 1155 1154 1137
f 1137 1154 1165
f 1166 1164 1138
f 1138 1164 1152
f 1167 1161 1144
f 1144 1161 1168
f 1170 1171 1169
f 1169 1171 1172
f 1161 1160 1168
f 1168 1160 1173
f 1174 1143 1168
f 1168 1143 1144
f 1167 1144 1145
f 1145 1144 1142
f 1135 1175 1136
f 1136 1175 1176
f 1151 1177 1135
f 1135 1177 1175
f 1167 1145 1178
f 1178 1145 1148
f 1160 1163 1153
f 1153 1163 1150
f 1135 1138 1151
f 1151 1138 1152
f 1139 1179 1140
f 1140 1179 1180
f 1165 1166 1137
f 1137 1166 1138
f 1141 1146 1142
f 1142 1146 1145
f 1136 1176 1181
f 1181 1176 1182
f 1174 1170 1183
f 1183 1170 1169
f 1170 1173 1171
f 1171 1173 1156
f 1171 1181 1172
f 1172 1181 1182
f 1153 1156 1160
f 1160 1156 1173
f 1143 1174 1184
f 1184 1174 1183
f 1140 1180 1151
f 1151 1180 1177
f 1049 1048 1178
f 1178 1048 1162
f 1179 1139 1184
f 1184 1139 1143
f 1159 1147 1164
f 1164 1147 1146
f 1170 1174 1173
f 1173 1174 1168
f 1171 1156 1181
f 1181 1156 1155
f 1181 1155 1136
f 1136 1155 1137
f 1184 1183 1186
f 1186 1183 1185
f 1184 1186 1179
f 1179 1186 1187
f 1179 1187 1180
f 1180 1187 1188
f 1180 1188 1177
f 1177 1188 1189
f 1183 1169 1185
f 1185 1169 1190
f 1169 1172 1190
f 1190 1172 1191
f 1172 1182 1191
f 1191 1182 1192
f 1193 1194 1190
f 1190 1194 1185
f 1196 1197 1195
f 1195 1197 1198
f 1199 1200 1196
f 1196 1200 1197
f 1197 1200 1202
f 1202 1200 1201
f 1203 1204 1202
f 1202 1204 1205
f 1201 1206 1202
f 1202 1206 1203
f 1205 1198 1202
f 1202 1198 1197
f 1198 1207 1195
f 1195 1207 1208
f 1201 1200 1209
f 1209 1200 1199
f 1199 1187 1209
f 1209 1187 1186
f 1199 1210 1187
f 1187 1210 1188
f 1196 1211 1199
f 1199 1211 1210
f 1212 1211 1195
f 1195 1211 1196
f 1209 1194 1201
f 1201 1194 1206
f 1194 1209 1185
f 1185 1209 1186
f 1213 1212 1208
f 1208 1212 1195
f 1211 1212 1214
f 1214 1212 1215
f 1212 1213 1215
f 1215 1213 1216
f 1214 1215 1217
f 1217 1215 1218
f 1217 1219 1214
f 1214 1219 1220
f 1216 1221 1215
f 1215 1221 1218
f 1214 1220 1211
f 1211 1220 1210
f 1210 1220 1188
f 1188 1220 1189
f 1213 1208 1223
f 1223 1208 1222
f 1208 1207 1222
f 1222 1207 1224
f 1203 1206 1225
f 1225 1206 1194
f 1204 1203 1226
f 1226 1203 1225
f 1194 1193 1225
f 1225 1193 1227
f 1225 1227 1226
f 1226 1227 1228
f 1229 1230 1226
f 1226 1230 1204
f 1224 1230 1222
f 1222 1230 1229
f 1177 1189 1175
f 1175 1189 1231
f 1176 1232 1182
f 1182 1232 1192
f 1232 1176 1231
f 1231 1176 1175
f 1231 1219 1232
f 1232 1219 1233
f 1219 1217 1233
f 1233 1217 1234
f 1232 1233 1192
f 1192 1233 1235
f 1219 1231 1220
f 1220 1231 1189
f 1236 1191 1235
f 1235 1191 1192
f 1236 1193 1191
f 1191 1193 1190
f 1236 1237 1193
f 1193 1237 1227
f 1237 1236 1238
f 1238 1236 1235
f 1239 1237 1240
f 1240 1237 1238
f 1233 1234 1235
f 1235 1234 1238
f 1234 1241 1238
f 1238 1241 1240
f 1237 1239 1227
f 1227 1239 1228
f 1243 1228 1242
f 1242 1228 1239
f 1242 1245 1244
f 1244 1245 1246
f 1242 1239 1245
f 1245 1239 1240
f 1242 1244 1243
f 1243 1244 1223
f 1243 1223 1229
f 1229 1223 1222
f 1229 1226 1243
f 1243 1226 1228
f 1217 1218 1234
f 1234 1218 1241
f 1246 1241 1221
f 1221 1241 1218
f 1246 1245 1241
f 1241 1245 1240
f 1244 1246 1216
f 1216 1246 1221
f 1216 1213 1244
f 1244 1213 1223
f 1198 1205 1207
f 1207 1205 1224
f 1224 1205 1230
f 1230 1205 1204
f 1148 1147 966
f 966 1147 964
f 1149 1154 1150
f 1150 1154 1153
f 1158 1157 1165
f 1165 1157 1166
f 1157 1159 1166
f 1166 1159 1164
f 1163 1162 1056
f 1056 1162 1048
f 1158 1165 1149
f 1149 1165 1154
f 1178 1148 1049
f 1049 1148 966
f 1163 1056 1150
f 1150 1056 1025
f 1178 1162 1167
f 1167 1162 1161
f 1147 1159 964
f 964 1159 1041
f 999 1049 922
f 922 1049 966
f 999 797 985
f 985 797 800
f 797 796 800
f 800 796 801
f 796 997 801
f 801 997 986
f 1247 1248 1250
f 1250 1248 1249
f 1252 1253 1251
f 1251 1253 1254
f 1251 1254 1255
f 1255 1254 1256
f 1258 1259 1257
f 1257 1259 1260
f 1261 1262 1252
f 1252 1262 1253
f 1264 1265 1263
f 1263 1265 1266
f 1267 1268 855
f 855 1268 920
f 1269 1267 1026
f 1026 1267 855
f 1271 1272 1270
f 1270 1272 1273
f 1274 1258 1262
f 1262 1258 1253
f 1264 1275 1265
f 1265 1275 1249
f 1276 1274 1250
f 1250 1274 1262
f 1277 1271 1256
f 1256 1271 1278
f 1279 1280 1282
f 1282 1280 1281
f 1271 1270 1278
f 1278 1270 1283
f 1284 1255 1278
f 1278 1255 1256
f 1277 1256 1257
f 1257 1256 1254
f 1247 1285 1248
f 1248 1285 1286
f 1261 1287 1247
f 1247 1287 1285
f 1257 1260 1277
f 1277 1260 1288
f 1270 1273 1263
f 1263 1273 1289
f 1261 1247 1262
f 1262 1247 1250
f 1251 1290 1252
f 1252 1290 1291
f 1275 1276 1249
f 1249 1276 1250
f 1253 1258 1254
f 1254 1258 1257
f 1248 1286 1292
f 1292 1286 1293
f 1284 1280 1294
f 1294 1280 1279
f 1281 1280 1266
f 1266 1280 1283
f 1292 1293 1281
f 1281 1293 1282
f 1263 1266 1270
f 1270 1266 1283
f 1255 1284 1295
f 1295 1284 1294
f 1252 1291 1261
f 1261 1291 1287
f 1288 1070 1272
f 1272 1070 942
f 1290 1251 1295
f 1295 1251 1255
f 1269 1259 1274
f 1274 1259 1258
f 1280 1284 1283
f 1283 1284 1278
f 1281 1266 1292
f 1292 1266 1265
f 1292 1265 1248
f 1248 1265 1249
f 1295 1294 1297
f 1297 1294 1296
f 1295 1297 1290
f 1290 1297 1298
f 1290 1298 1291
f 1291 1298 1299
f 1291 1299 1287
f 1287 1299 1300
f 1294 1279 1296
f 1296 1279 1301
f 1279 1282 1301
f 1301 1282 1302
f 1302 1282 1303
f 1303 1282 1293
f 1304 1305 1301
f 1301 1305 1296
f 1307 1308 1306
f 1306 1308 1309
f 1310 1311 1307
f 1307 1311 1308
f 1308 1311 1313
f 1313 1311 1312
f 1314 1315 1313
f 1313 1315 1316
f 1312 1317 1313
f 1313 1317 1314
f 1316 1309 1313
f 1313 1309 1308
f 1318 1319 1309
f 1309 1319 1306
f 1311 1310 1312
f 1312 1310 1320
f 1310 1298 1320
f 1320 1298 1297
f 1310 1321 1298
f 1298 1321 1299
f 1307 1322 1310
f 1310 1322 1321
f 1322 1307 1323
f 1323 1307 1306
f 1312 1320 1317
f 1317 1320 1305
f 1305 1320 1296
f 1296 1320 1297
f 1319 1324 1306
f 1306 1324 1323
f 1325 1322 1326
f 1326 1322 1323
f 1324 1327 1323
f 1323 1327 1326
f 1328 1325 1329
f 1329 1325 1326
f 1325 1328 1331
f 1331 1328 1330
f 1327 1332 1326
f 1326 1332 1329
f 1322 1325 1321
f 1321 1325 1331
f 1321 1331 1299
f 1299 1331 1300
f 1324 1319 1334
f 1334 1319 1333
f 1319 1318 1333
f 1333 1318 1335
f 1314 1317 1336
f 1336 1317 1305
f 1315 1314 1337
f 1337 1314 1336
f 1305 1304 1336
f 1336 1304 1338
f 1337 1336 1339
f 1339 1336 1338
f 1337 1340 1315
f 1315 1340 1341
f 1335 1341 1333
f 1333 1341 1340
f 1287 1300 1285
f 1285 1300 1342
f 1286 1343 1293
f 1293 1343 1303
f 1343 1286 1342
f 1342 1286 1285
f 1342 1330 1343
f 1343 1330 1344
f 1330 1328 1344
f 1344 1328 1345
f 1343 1344 1303
f 1303 1344 1346
f 1342 1300 1330
f 1330 1300 1331
f 1347 1302 1346
f 1346 1302 1303
f 1347 1304 1302
f 1302 1304 1301
f 1348 1338 1347
f 1347 1338 1304
f 1348 1347 1349
f 1349 1347 1346
f 1350 1348 1351
f 1351 1348 1349
f 1344 1345 1346
f 1346 1345 1349
f 1345 1352 1349
f 1349 1352 1351
f 1348 1350 1338
f 1338 1350 1339
f 1354 1339 1353
f 1353 1339 1350
f 1353 1356 1355
f 1355 1356 1357
f 1353 1350 1356
f 1356 1350 1351
f 1353 1355 1354
f 1354 1355 1334
f 1354 1334 1340
f 1340 1334 1333
f 1340 1337 1354
f 1354 1337 1339
f 1328 1329 1345
f 1345 1329 1352
f 1357 1352 1332
f 1332 1352 1329
f 1357 1356 1352
f 1352 1356 1351
f 1357 1332 1355
f 1355 1332 1327
f 1327 1324 1355
f 1355 1324 1334
f 1309 1316 1318
f 1318 1316 1335
f 1335 1316 1341
f 1341 1316 1315
f 1259 1072 1260
f 1260 1072 1071
f 1358 1264 1289
f 1289 1264 1263
f 1268 1267 1275
f 1275 1267 1276
f 1267 1269 1276
f 1276 1269 1274
f 941 1273 942
f 942 1273 1272
f 1358 1268 1264
f 1264 1268 1275
f 1260 1071 1288
f 1288 1071 1070
f 1273 941 1289
f 1289 941 977
f 1272 1271 1288
f 1288 1271 1277
f 1259 1269 1072
f 1072 1269 1026
f 1360 1361 1359
f 1359 1361 1362
f 1364 1365 1363
f 1363 1365 1366
f 1363 1366 1367
f 1367 1366 1368
f 1370 1371 1369
f 1369 1371 1372
f 1373 1374 1376
f 1376 1374 1375
f 1377 1378 1364
f 1364 1378 1365
f 1379 1380 1382
f 1382 1380 1381
f 1383 1384 1386
f 1386 1384 1385
f 1387 1385 978
f 978 1385 1384
f 1388 1389 1391
f 1391 1389 1390
f 1378 1392 1365
f 1365 1392 1370
f 1374 1383 1375
f 1375 1383 1386
f 1380 1393 1381
f 1381 1393 1361
f 1394 1392 1362
f 1362 1392 1378
f 1389 1396 1395
f 1395 1396 1368
f 1398 1399 1397
f 1397 1399 1400
f 1388 1401 1389
f 1389 1401 1396
f 1402 1367 1396
f 1396 1367 1368
f 1395 1368 1369
f 1369 1368 1366
f 1359 1403 1360
f 1360 1403 1404
f 1377 1405 1359
f 1359 1405 1403
f 1369 1372 1395
f 1395 1372 1406
f 1379 1388 1376
f 1376 1388 1391
f 1359 1362 1377
f 1377 1362 1378
f 1363 1407 1364
f 1364 1407 1408
f 1393 1394 1361
f 1361 1394 1362
f 1365 1370 1366
f 1366 1370 1369
f 1360 1404 1409
f 1409 1404 1410
f 1402 1398 1411
f 1411 1398 1397
f 1399 1398 1382
f 1382 1398 1401
f 1409 1410 1399
f 1399 1410 1400
f 1388 1379 1401
f 1401 1379 1382
f 1367 1402 1412
f 1412 1402 1411
f 1364 1408 1377
f 1377 1408 1405
f 981 980 1406
f 1406 980 1390
f 1407 1363 1412
f 1412 1363 1367
f 1387 1371 1392
f 1392 1371 1370
f 1398 1402 1401
f 1401 1402 1396
f 1409 1399 1381
f 1381 1399 1382
f 1360 1409 1361
f 1361 1409 1381
f 1412 1411 1414
f 1414 1411 1413
f 1412 1414 1407
f 1407 1414 1415
f 1407 1415 1408
f 1408 1415 1416
f 1408 1416 1405
f 1405 1416 1417
f 1411 1397 1413
f 1413 1397 1418
f 1397 1400 1418
f 1418 1400 1419
f 1419 1400 1420
f 1420 1400 1410
f 1422 1413 1421
f 1421 1413 1418
f 1423 1424 1426
f 1426 1424 1425
f 1427 1428 1424
f 1424 1428 1425
f 1425 1428 1430
f 1430 1428 1429
f 1430 1431 1433
f 1433 1431 1432
f 1429 1434 1430
f 1430 1434 1431
f 1433 1426 1430
f 1430 1426 1425
f 1426 1435 1423
f 1423 1435 1436
f 1428 1427 1429
f 1429 1427 1437
f 1427 1415 1437
f 1437 1415 1414
f 1427 1438 1415
f 1415 1438 1416
f 1439 1438 1424
f 1424 1438 1427
f 1440 1439 1423
f 1423 1439 1424
f 1429 1437 1434
f 1434 1437 1422
f 1422 1437 1413
f 1413 1437 1414
f 1441 1440 1436
f 1436 1440 1423
f 1442 1439 1443
f 1443 1439 1440
f 1441 1444 1440
f 1440 1444 1443
f 1445 1442 1446
f 1446 1442 1443
f 1442 1445 1448
f 1448 1445 1447
f 1444 1449 1443
f 1443 1449 1446
f 1439 1442 1438
f 1438 1442 1448
f 1438 1448 1416
f 1416 1448 1417
f 1436 1450 1441
f 1441 1450 1451
f 1436 1435 1450
f 1450 1435 1452
f 1431 1434 1453
f 1453 1434 1422
f 1431 1453 1432
f 1432 1453 1454
f 1453 1422 1455
f 1455 1422 1421
f 1454 1453 1456
f 1456 1453 1455
f 1457 1458 1454
f 1454 1458 1432
f 1452 1458 1450
f 1450 1458 1457
f 1405 1417 1403
f 1403 1417 1459
f 1404 1460 1410
f 1410 1460 1420
f 1459 1460 1403
f 1403 1460 1404
f 1447 1461 1459
f 1459 1461 1460
f 1445 1462 1447
f 1447 1462 1461
f 1460 1461 1420
f 1420 1461 1463
f 1459 1417 1447
f 1447 1417 1448
f 1464 1419 1463
f 1463 1419 1420
f 1419 1464 1418
f 1418 1464 1421
f 1464 1465 1421
f 1421 1465 1455
f 1465 1464 1466
f 1466 1464 1463
f 1467 1465 1468
f 1468 1465 1466
f 1461 1462 1463
f 1463 1462 1466
f 1462 1469 1466
f 1466 1469 1468
f 1465 1467 1455
f 1455 1467 1456
f 1471 1456 1470
f 1470 1456 1467
f 1470 1473 1472
f 1472 1473 1474
f 1470 1467 1473
f 1473 1467 1468
f 1470 1472 1471
f 1471 1472 1451
f 1471 1451 1457
f 1457 1451 1450
f 1457 1454 1471
f 1471 1454 1456
f 1462 1445 1469
f 1469 1445 1446
f 1474 1469 1449
f 1449 1469 1446
f 1474 1473 1469
f 1469 1473 1468
f 1472 1474 1444
f 1444 1474 1449
f 1444 1441 1472
f 1472 1441 1451
f 1426 1433 1435
f 1435 1433 1452
f 1452 1433 1458
f 1458 1433 1432
f 1371 940 1372
f 1372 940 1068
f 1376 1375 1379
f 1379 1375 1380
f 1393 1386 1394
f 1394 1386 1385
f 1385 1387 1394
f 1394 1387 1392
f 1475 1373 1391
f 1391 1373 1376
f 1375 1386 1380
f 1380 1386 1393
f 1372 1068 1406
f 1406 1068 981
f 1406 1390 1395
f 1395 1390 1389
f 1371 1387 940
f 940 1387 978
f 883 807 1476
f 1476 807 1477
f 1046 904 1479
f 1479 904 1478
f 904 903 1478
f 1478 903 1480
f 1030 1481 1028
f 1028 1481 1482
f 810 1046 1483
f 1483 1046 1479
f 1066 883 1484
f 1484 883 1476
f 807 810 1477
f 1477 810 1483
f 1485 1029 1484
f 1484 1029 1066
f 1028 1482 903
f 903 1482 1480
f 1481 1030 1485
f 1485 1030 1029
f 1484 1486 1485
f 1485 1486 1487
f 1485 1487 1481
f 1481 1487 1488
f 1481 1488 1482
f 1482 1488 1489
f 1482 1489 1480
f 1480 1489 1490
f 1484 1476 1486
f 1486 1476 1491
f 1476 1477 1491
f 1491 1477 1492
f 1477 1483 1492
f 1492 1483 1493
f 1495 1486 1494
f 1494 1486 1491
f 1497 1498 1496
f 1496 1498 1499
f 1500 1501 1497
f 1497 1501 1498
f 1502 1503 1501
f 1501 1503 1498
f 1502 1504 1503
f 1503 1504 1505
f 1506 1499 1503
f 1503 1499 1498
f 1499 1506 1507
f 1507 1506 1508
f 1507 1509 1499
f 1499 1509 1496
f 1502 1501 1510
f 1510 1501 1500
f 1500 1488 1510
f 1510 1488 1487
f 1500 1511 1488
f 1488 1511 1489
f 1497 1512 1500
f 1500 1512 1511
f 1512 1497 1513
f 1513 1497 1496
f 1502 1510 1504
f 1504 1510 1495
f 1495 1510 1486
f 1486 1510 1487
f 1509 1514 1496
f 1496 1514 1513
f 1515 1512 1516
f 1516 1512 1513
f 1514 1517 1513
f 1513 1517 1516
f 1518 1515 1519
f 1519 1515 1516
f 1515 1518 1521
f 1521 1518 1520
f 1517 1522 1516
f 1516 1522 1519
f 1512 1515 1511
f 1511 1515 1521
f 1511 1521 1489
f 1489 1521 1490
f 1514 1509 1524
f 1524 1509 1523
f 1509 1507 1523
f 1523 1507 1508
f 1505 1504 1525
f 1525 1504 1495
f 1526 1505 1527
f 1527 1505 1525
f 1525 1495 1528
f 1528 1495 1494
f 1527 1525 1529
f 1529 1525 1528
f 1527 1530 1526
f 1526 1530 1531
f 1508 1531 1523
f 1523 1531 1530
f 1506 1503 1526
f 1526 1503 1505
f 1508 1506 1531
f 1531 1506 1526
f 1478 1480 1532
f 1532 1480 1490
f 1483 1479 1493
f 1493 1479 1533
f 1532 1533 1478
f 1478 1533 1479
f 1520 1534 1532
f 1532 1534 1533
f 1518 1535 1520
f 1520 1535 1534
f 1533 1534 1493
f 1493 1534 1536
f 1532 1490 1520
f 1520 1490 1521
f 1537 1492 1536
f 1536 1492 1493
f 1492 1537 1491
f 1491 1537 1494
f 1537 1538 1494
f 1494 1538 1528
f 1538 1537 1539
f 1539 1537 1536
f 1540 1538 1541
f 1541 1538 1539
f 1534 1535 1536
f 1536 1535 1539
f 1535 1542 1539
f 1539 1542 1541
f 1538 1540 1528
f 1528 1540 1529
f 1544 1529 1543
f 1543 1529 1540
f 1545 1543 1547
f 1547 1543 1546
f 1543 1540 1546
f 1546 1540 1541
f 1543 1545 1544
f 1544 1545 1524
f 1544 1524 1530
f 1530 1524 1523
f 1530 1527 1544
f 1544 1527 1529
f 1535 1518 1542
f 1542 1518 1519
f 1547 1542 1522
f 1522 1542 1519
f 1547 1546 1542
f 1542 1546 1541
f 1545 1547 1517
f 1517 1547 1522
f 1517 1514 1545
f 1545 1514 1524
f 997 995 986
f 986 995 987
f 987 995 988
f 988 995 971
f 976 1358 977
f 977 1358 1289
f 854 853 1067
f 1067 853 1050
f 1055 985 1069
f 1069 985 962
f 1068 961 981
f 981 961 862
f 1268 1358 920
f 920 1358 976
f 920 976 921
f 921 976 975
f 927 1054 850
f 850 1054 851
f 882 881 1057
f 1057 881 1548
f 1548 1374 1057
f 1057 1374 1373
f 1383 1374 1549
f 1549 1374 1548
f 1549 1548 1550
f 1550 1548 881
f 1550 881 1551
f 1551 881 880
f 933 1552 879
f 879 1552 880
f 1551 880 875
f 875 880 1552
f 1553 1551 878
f 878 1551 875
f 1551 1553 1550
f 1550 1553 1554
f 1550 1554 1549
f 1549 1554 1555
f 978 1384 975
f 975 1384 1555
f 967 849 1556
f 1556 849 852
f 875 1552 876
f 876 1552 933
f 961 939 962
f 962 939 1069
f 1555 1054 975
f 975 1054 921
f 1555 1384 1549
f 1549 1384 1383
f 1391 1390 1475
f 1475 1390 980
f 1373 1475 1057
f 1057 1475 980
f 851 1054 1554
f 1554 1054 1555
f 1554 1553 851
f 851 1553 852
f 878 1556 1553
f 1553 1556 852
f 1556 878 967
f 967 878 877
f 1023 1020 877
f 877 1020 967
f 909 811 1034
f 806 779 873
f 873 779 840
f 805 780 806
f 806 780 779
f 1043 893 1044
f 1044 893 892
f 873 840 847
f 847 840 842
f 840 839 842
f 842 839 843
f 839 791 843
f 843 791 908
f 791 790 908
f 908 790 792
f 809 789 810
f 810 789 1046
f 793 790 809
f 809 790 789
f 809 808 793
f 793 808 1009
f 808 884 1009
f 1009 884 1010
f 1065 1015 884
f 884 1015 1010
f 1032 868 1065
f 1065 868 1015
f 1031 822 1032
f 1032 822 868
f 1031 1027 822
f 822 1027 785
f 1045 905 1046
f 1046 905 904
f 788 781 1019
f 1019 781 894
f 781 780 894
f 894 780 892
f 780 805 892
f 892 805 1044
f 805 804 1044
f 1044 804 891
f 804 1064 891
f 891 1064 888
f 1064 1021 888
f 888 1021 1033
f 1021 1020 1033
f 1033 1020 1034
f 1020 1023 1034
f 1034 1023 909
f 1023 1022 909
f 909 1022 910
f 1043 815 893
f 893 815 819
f 819 815 820
f 820 815 818
f 870 869 818
f 818 869 820
f 1014 1011 870
f 870 1011 869
f 969 972 1014
f 1014 972 1011
f 1036 1063 1022
f 1022 1063 910
f 1035 833 1036
f 1036 833 1063
f 1035 932 979
f 979 932 963
f 834 979 982
f 982 979 958
f 833 1035 834
f 834 1035 979
f 982 863 834
f 834 863 830
f 864 900 831
f 831 900 857
f 990 993 864
f 864 993 900
f 989 994 990
f 990 994 993
f 970 1058 989
f 989 1058 994
f 969 1018 970
f 970 1018 1058
f 1027 902 785
f 785 902 786
f 902 905 786
f 786 905 1019
f 905 1045 1019
f 1019 1045 788
f 788 1045 787
f 787 1045 789
