o hand_left
v -0.021938 0.173044 1.018518
v -0.022969 0.183519 1.015442
v -0.012409 0.181401 1.017971
v -0.012195 0.170015 1.020010
v -0.012727 0.203413 1.008656
v -0.008083 0.207377 0.997602
v 0.004408 0.200560 1.004401
v -0.001656 0.199478 1.013177
v -0.004503 0.166780 1.019849
v -0.004524 0.179401 1.019672
v -0.000844 0.165487 1.016381
v -0.005888 0.150222 1.012073
v -0.006963 0.154640 1.017696
v -0.008972 0.141016 1.012874
v -0.011387 0.149549 1.002028
v -0.016229 0.134930 1.009019
v -0.043039 0.150207 1.001209
v -0.055072 0.154756 1.006065
v -0.053375 0.139556 1.016960
v -0.040608 0.137063 1.011520
v -0.068310 0.153389 1.023732
v -0.059944 0.145255 1.020467
v -0.062503 0.159367 1.008895
v -0.069597 0.166061 1.012455
v -0.037407 0.180107 1.018836
v -0.039538 0.189539 1.014749
v -0.034228 0.186461 1.014069
v -0.032236 0.177757 1.017754
v 0.010259 0.171340 1.010738
v 0.000675 0.165946 1.000363
v -0.000209 0.162946 1.008041
v 0.008760 0.173039 1.015923
v -0.048561 0.217446 1.010182
v -0.052340 0.223781 0.998678
v -0.047723 0.221974 0.995386
v -0.045598 0.216103 1.006439
v -0.027015 0.214796 0.990425
v -0.034033 0.217455 0.984098
v -0.031758 0.215073 0.970634
v -0.025094 0.209382 0.975055
v -0.017409 0.211312 0.994774
v -0.015225 0.207426 0.981654
v -0.005464 0.203017 0.986823
v 0.008080 0.197023 0.996291
v -0.064094 0.225752 1.003745
v -0.062767 0.221861 1.013220
v 0.000950 0.150489 1.044947
v -0.004780 0.152043 1.046731
v -0.005564 0.150908 1.045130
v 0.000119 0.149199 1.043664
v -0.080846 0.214099 1.005055
v -0.085028 0.207328 0.998779
v -0.086122 0.213943 0.995770
v -0.080684 0.220153 1.000393
v -0.081092 0.206113 1.011191
v -0.082850 0.198336 1.003085
v 0.007178 0.145377 1.055080
v 0.007573 0.147568 1.050243
v 0.006641 0.143004 1.049115
v 0.005440 0.139863 1.053753
v -0.012000 0.159634 1.020902
v -0.020225 0.164519 1.022439
v -0.014925 0.145373 1.027022
v -0.017250 0.151628 1.026110
v -0.012014 0.150218 1.021602
v -0.010678 0.144732 1.022724
v -0.037823 0.161933 1.032189
v -0.039214 0.171398 1.025572
v -0.033589 0.168056 1.024052
v -0.030311 0.157782 1.030861
v -0.049632 0.178457 1.032351
v -0.047755 0.168296 1.037895
v -0.053999 0.173561 1.040883
v -0.053616 0.180371 1.037177
v -0.042471 0.149695 1.044708
v -0.042368 0.145052 1.045412
v -0.043656 0.148562 1.048233
v -0.045092 0.152427 1.045965
v -0.087434 0.219810 0.991859
v -0.080069 0.225455 0.995290
v -0.081891 0.168448 1.033289
v -0.082883 0.179374 1.036787
v -0.082772 0.169576 1.046995
v -0.082463 0.159141 1.040378
v -0.083211 0.199633 0.991952
v -0.086636 0.206219 0.989247
v 0.003167 0.144049 1.060045
v 0.001522 0.138866 1.059142
v -0.009495 0.193804 0.978568
v 0.007492 0.188931 0.990333
v -0.022023 0.198944 0.971661
v -0.030759 0.202579 0.967159
v -0.035801 0.207520 0.962189
v -0.022009 0.149934 1.030672
v -0.028298 0.169564 1.021402
v -0.041615 0.182502 1.020646
v -0.063294 0.195003 1.039298
v -0.063758 0.203683 1.033479
v -0.054737 0.197891 1.031453
v -0.056539 0.191137 1.036609
v -0.078360 0.186091 1.042910
v -0.070459 0.187269 1.045338
v -0.070839 0.180323 1.049881
v -0.078580 0.177462 1.049616
v 0.014760 0.173105 1.004565
v 0.001989 0.170119 0.993704
v -0.073212 0.219922 1.009756
v -0.071902 0.224472 1.003429
v -0.073174 0.229043 0.996250
v -0.042784 0.203511 1.012248
v -0.043486 0.215205 1.003900
v -0.039699 0.213512 1.002444
v -0.040861 0.201231 1.010735
v -0.024654 0.195765 1.012653
v -0.025063 0.207347 1.005386
v -0.013776 0.193623 1.016559
v -0.041916 0.220780 0.989748
v -0.049327 0.228783 0.987660
v -0.042975 0.226136 0.981857
v -0.057957 0.230548 0.992179
v -0.066328 0.230853 0.995455
v -0.091215 0.211397 0.984135
v -0.037913 0.222117 0.976275
v 0.006250 0.195683 1.016088
v 0.013554 0.193339 1.018811
v 0.009564 0.187253 1.022000
v 0.001967 0.188904 1.020039
v -0.009225 0.134572 1.017828
v -0.007993 0.140889 1.020191
v -0.007877 0.147069 1.016463
v -0.051227 0.210939 1.019518
v -0.063138 0.215100 1.021817
v -0.019413 0.144237 1.031379
v 0.002718 0.135847 1.049507
v 0.004469 0.139712 1.044875
v -0.004896 0.135307 1.027012
v -0.006864 0.129603 1.031320
v -0.023174 0.139662 1.036488
v -0.020210 0.144611 1.032072
v -0.020413 0.144895 1.033188
v -0.023017 0.142207 1.039019
v -0.050419 0.154907 1.050521
v -0.051268 0.158420 1.048168
v -0.036110 0.128129 1.024988
v -0.025722 0.123605 1.016187
v -0.028383 0.134156 1.006762
v -0.043695 0.165921 1.034732
v -0.043097 0.157744 1.040892
v -0.046422 0.159805 1.042422
v -0.024421 0.147762 1.033938
v -0.023420 0.142267 1.035578
v -0.026683 0.143895 1.037067
v -0.028732 0.150362 1.035330
v -0.083251 0.189015 1.027135
v -0.078230 0.196578 1.034815
v 0.005316 0.149101 1.046432
v 0.004649 0.146344 1.045162
v -0.044884 0.175152 1.028211
v -0.030922 0.148211 0.999346
v -0.045800 0.185266 1.023052
v -0.066977 0.148069 1.045656
v -0.064455 0.154304 1.051647
v -0.061356 0.153320 1.054993
v -0.062074 0.147708 1.053012
v -0.015415 0.145913 1.051407
v -0.012861 0.150013 1.047667
v -0.010604 0.150156 1.049101
v -0.012773 0.147326 1.054194
v -0.016277 0.145952 1.027730
v -0.011143 0.144255 1.024379
v -0.010857 0.146249 1.026827
v -0.016039 0.146569 1.030425
v -0.008257 0.140219 1.021900
v -0.006695 0.141405 1.025263
v -0.014038 0.140460 1.055201
v -0.007940 0.135739 1.056798
v -0.018601 0.129109 1.040620
v -0.021896 0.135737 1.043130
v -0.071978 0.176749 1.001294
v -0.078812 0.183400 1.007296
v -0.076942 0.172721 1.018507
v -0.076430 0.161203 1.029691
v -0.073970 0.150635 1.039800
v -0.067635 0.142433 1.033248
v -0.081442 0.178963 1.021983
v -0.029364 0.133574 1.034113
v -0.026232 0.127001 1.031122
v -0.031787 0.129449 1.031483
v -0.050277 0.189106 1.027761
v 0.002960 0.144493 1.041737
v -0.050499 0.191668 0.965298
v -0.063069 0.191475 0.969824
v -0.058858 0.185277 0.974649
v -0.044401 0.185827 0.970193
v -0.007224 0.151567 1.043525
v -0.001399 0.149418 1.040758
v -0.055526 0.161551 1.052216
v -0.054353 0.157471 1.054118
v -0.057135 0.157734 1.055702
v -0.058886 0.162412 1.056279
v -0.081735 0.188213 1.009672
v -0.077873 0.166858 1.056019
v -0.077924 0.156529 1.048963
v -0.080290 0.192189 0.997359
v -0.074849 0.186170 0.991744
v -0.077471 0.193064 0.985183
v -0.054463 0.134916 1.033372
v -0.065912 0.170956 0.998705
v -0.069102 0.181719 0.989091
v -0.071967 0.189761 0.981135
v -0.074968 0.195331 0.975546
v -0.080615 0.198447 0.980607
v -0.001986 0.134826 1.054314
v -0.005074 0.140276 1.061994
v -0.085468 0.203655 0.974836
v -0.078449 0.200341 0.969640
v -0.061530 0.177617 0.985612
v -0.051354 0.173690 0.982173
v -0.058546 0.167514 0.995178
v -0.048329 0.162665 0.992364
v -0.050308 0.127742 1.025386
v -0.005404 0.158482 1.063678
v -0.008569 0.148324 1.061707
v -0.010996 0.150136 1.056553
v -0.008691 0.159204 1.060898
v -0.011099 0.143890 1.058855
v -0.003509 0.145667 1.062985
v -0.033250 0.161163 0.989817
v -0.026730 0.139363 1.037392
v -0.033641 0.174799 0.979143
v -0.014545 0.158634 0.991997
v -0.014176 0.170286 0.984948
v -0.032089 0.189390 0.968297
v -0.017383 0.183507 0.975156
v -0.043666 0.200717 0.959702
v -0.039300 0.194488 0.964410
v -0.002023 0.179958 0.984269
v -0.000771 0.158915 1.047261
v -0.006449 0.159138 1.049884
v -0.054328 0.197143 0.960086
v -0.005167 0.190620 1.018627
v -0.048651 0.198195 1.021932
v -0.045429 0.194744 1.018646
v -0.063605 0.208429 1.029173
v -0.053100 0.203551 1.026114
v 0.004677 0.157989 1.048324
v -0.044044 0.143588 1.046384
v -0.043736 0.145345 1.046899
v 0.011705 0.198116 1.009225
v 0.017130 0.195844 1.012417
v 0.021787 0.186430 1.004165
v 0.020930 0.192822 1.007354
v 0.015361 0.195028 1.001955
v 0.015916 0.188314 0.997910
v -0.044325 0.205105 1.013933
v -0.046923 0.206853 1.016471
v -0.082328 0.198369 1.018927
v -0.076996 0.204997 1.027001
v -0.008643 0.134143 1.021640
v -0.014715 0.128017 1.017702
v -0.012286 0.128205 1.023566
v -0.013051 0.126611 1.034528
v -0.027156 0.137286 1.036606
v -0.025680 0.134398 1.036946
v -0.033050 0.210137 1.004249
v -0.034791 0.197948 1.010647
v 0.000827 0.179310 1.019956
v 0.007512 0.179128 1.021351
v -0.035597 0.154442 1.036691
v -0.046558 0.133772 1.041868
v -0.042383 0.128802 1.034899
v -0.034303 0.146562 1.040400
v 0.007969 0.157198 1.056161
v 0.007245 0.157722 1.051272
v -0.018261 0.125001 1.026423
v -0.052058 0.165228 1.045768
v -0.051517 0.137033 1.041999
v -0.046840 0.138525 1.046177
v -0.075843 0.174542 1.054180
v -0.066350 0.197658 0.964182
v -0.010068 0.152223 1.051074
v -0.009960 0.158882 1.054150
v -0.001280 0.156898 1.063990
v 0.004508 0.155575 1.061217
v -0.074075 0.212352 1.019114
v -0.043123 0.192116 1.016851
v 0.010299 0.179115 0.993620
v 0.018966 0.179205 1.002988
v -0.034667 0.142009 1.040551
v -0.070530 0.153170 1.049018
v -0.062358 0.140520 1.042708
v -0.057120 0.140381 1.051423
v -0.049690 0.138664 1.050299
v -0.043621 0.141965 1.049696
v -0.000627 0.163480 1.063706
v 0.004667 0.161638 1.061006
v 0.007892 0.161672 1.055718
v 0.007054 0.161064 1.051376
v 0.003714 0.160605 1.048650
v -0.005251 0.165040 1.063112
v -0.008302 0.164972 1.060369
v -0.010006 0.161979 1.055081
v -0.006168 0.169780 1.060375
v -0.000934 0.172168 1.059838
v 0.004767 0.171581 1.046092
v 0.006605 0.168683 1.051237
v 0.005542 0.171425 1.051316
v 0.003836 0.174433 1.047414
v 0.001904 0.178539 1.044564
v 0.002935 0.175898 1.042514
v 0.003876 0.171296 1.055994
v 0.001256 0.175899 1.051134
v -0.002315 0.176663 1.053375
v -0.003598 0.180674 1.049374
v -0.000426 0.180288 1.047468
v -0.000159 0.173846 1.056836
v 0.004866 0.169405 1.058039
v 0.000357 0.179644 1.041296
v 0.000641 0.181005 1.043372
v -0.001698 0.182338 1.045297
v -0.003270 0.182842 1.042720
v 0.005732 0.163663 1.048837
v 0.003922 0.169969 1.044027
v 0.000609 0.174278 1.040979
v -0.001732 0.178189 1.040043
v -0.000003 0.169383 1.042335
v -0.002186 0.173216 1.040655
v -0.004584 0.176469 1.040227
v -0.004442 0.169434 1.042422
v -0.005408 0.173034 1.041331
v -0.001779 0.161441 1.047937
v 0.002624 0.160705 1.047791
v -0.006397 0.175195 1.040450
v -0.005128 0.182077 1.041819
v -0.005211 0.175415 1.055542
v -0.006576 0.179709 1.049640
v -0.007604 0.174523 1.055091
v -0.008861 0.179115 1.049692
v -0.006531 0.183004 1.046381
v -0.004142 0.182435 1.046950
v -0.001601 0.160284 1.048314
v -0.007485 0.160756 1.051275
v -0.007536 0.162085 1.051059
v -0.008839 0.169950 1.045006
v -0.009980 0.164283 1.054177
v -0.009104 0.168748 1.057477
v -0.009750 0.173799 1.052721
v -0.010756 0.172123 1.049607
v -0.010202 0.177312 1.048350
v -0.010236 0.175558 1.046468
v -0.008702 0.173792 1.043129
v -0.009452 0.179352 1.044760
v -0.008163 0.181768 1.045800
v -0.007052 0.179299 1.041673
v -0.009901 0.177552 1.044366
v -0.007794 0.176830 1.042133
v -0.021880 0.153418 1.056320
v -0.027727 0.155457 1.058400
v -0.027597 0.151713 1.057286
v -0.022752 0.149841 1.055523
v -0.016184 0.145486 1.066869
v -0.015871 0.148740 1.061237
v -0.016797 0.142882 1.060371
v -0.018870 0.139233 1.066103
v -0.021749 0.144255 1.071914
v -0.024911 0.138543 1.070130
v -0.021430 0.135057 1.061884
v -0.018819 0.139412 1.056710
v -0.027661 0.134809 1.039184
v -0.031262 0.130169 1.041865
v -0.040113 0.146496 1.044092
v -0.042560 0.145589 1.046575
v -0.018558 0.151470 1.057618
v -0.019067 0.146748 1.056786
v -0.036092 0.150389 1.060772
v -0.032271 0.152320 1.057161
v -0.032041 0.152780 1.059392
v -0.034858 0.151225 1.063996
v -0.029237 0.142720 1.038209
v -0.034905 0.144076 1.041204
v -0.027531 0.139394 1.038056
v -0.037250 0.145441 1.065290
v -0.034827 0.139478 1.067863
v -0.043471 0.133431 1.050076
v -0.045157 0.139164 1.050994
v -0.019435 0.143963 1.054036
v -0.026711 0.151689 1.054858
v -0.022296 0.148871 1.053084
v -0.028451 0.134884 1.065093
v -0.031432 0.143536 1.072098
v -0.028241 0.163619 1.073754
v -0.032482 0.152963 1.071022
v -0.033541 0.155331 1.066427
v -0.030422 0.166023 1.069965
v -0.034629 0.148100 1.068785
v -0.028541 0.149104 1.073371
v -0.020846 0.167110 1.059571
v -0.027070 0.168466 1.061474
v -0.016511 0.165616 1.060640
v -0.037479 0.129702 1.045339
v -0.013601 0.159827 1.068908
v -0.013982 0.163221 1.063182
v -0.032262 0.156065 1.061377
v -0.030357 0.168186 1.065487
v -0.024505 0.161390 1.075210
v -0.018023 0.157934 1.073594
v -0.022000 0.167518 1.075449
v -0.016558 0.165068 1.074120
v -0.012609 0.165738 1.069769
v -0.013471 0.166980 1.064414
v -0.016427 0.168047 1.061706
v -0.025373 0.169599 1.074323
v -0.028251 0.171189 1.070937
v -0.028837 0.170907 1.066055
v -0.024570 0.177305 1.071147
v -0.020035 0.177075 1.072909
v -0.008970 0.182669 1.059214
v -0.009768 0.177552 1.062386
v -0.010115 0.179076 1.064498
v -0.009691 0.183863 1.061678
v -0.010343 0.173622 1.067099
v -0.010904 0.175876 1.067680
v -0.014343 0.176469 1.070946
v -0.013882 0.181166 1.066821
v -0.018290 0.182299 1.068542
v -0.017258 0.187417 1.065949
v -0.012709 0.186628 1.064539
v -0.017455 0.178818 1.071256
v -0.010008 0.187298 1.060410
v -0.010206 0.188131 1.057977
v -0.014262 0.174056 1.072736
v -0.011950 0.169454 1.063786
v -0.010593 0.176791 1.059394
v -0.010595 0.182659 1.056278
v -0.012550 0.188648 1.056025
v -0.013706 0.177348 1.056542
v -0.013426 0.183080 1.054626
v -0.015029 0.187905 1.055180
v -0.018192 0.178460 1.055220
v -0.017547 0.184099 1.054114
v -0.020352 0.169481 1.059876
v -0.015423 0.168812 1.060515
v -0.017034 0.186633 1.054677
v -0.012767 0.191346 1.060471
v -0.014901 0.191542 1.057861
v -0.012470 0.190067 1.061779
v -0.020474 0.182631 1.068495
v -0.019180 0.187919 1.064850
v -0.023038 0.183031 1.067087
v -0.020839 0.188643 1.063183
v -0.017038 0.191498 1.062424
v -0.015644 0.190879 1.063150
v -0.020867 0.168820 1.061416
v -0.026305 0.170166 1.062964
v -0.025670 0.170956 1.061565
v -0.022930 0.180256 1.057285
v -0.028229 0.172917 1.064985
v -0.027133 0.176232 1.068377
v -0.025007 0.182585 1.064942
v -0.025294 0.181969 1.060927
v -0.022740 0.188648 1.062054
v -0.023515 0.186439 1.059795
v -0.021295 0.185062 1.055682
v -0.019943 0.191692 1.059592
v -0.018216 0.191964 1.061186
v -0.016585 0.190557 1.056801
v -0.021378 0.189430 1.058242
v -0.018795 0.188459 1.055784
v -0.036764 0.159943 1.065197
v -0.042073 0.161847 1.066878
v -0.042767 0.159457 1.065392
v -0.037794 0.157107 1.064103
v -0.032595 0.151329 1.073949
v -0.031377 0.154397 1.070108
v -0.032823 0.150130 1.068150
v -0.034628 0.145921 1.071200
v -0.036163 0.151913 1.078469
v -0.039315 0.144682 1.075238
v -0.037076 0.142341 1.067609
v -0.034417 0.147272 1.065295
v -0.041486 0.143250 1.053431
v -0.045419 0.138988 1.056277
v -0.033363 0.157368 1.066953
v -0.034569 0.154166 1.065413
v -0.049535 0.158770 1.069343
v -0.045891 0.160535 1.066286
v -0.046955 0.159780 1.068906
v -0.048869 0.157842 1.072614
v -0.043601 0.152799 1.050212
v -0.048652 0.155521 1.052073
v -0.041202 0.148729 1.051491
v -0.050798 0.153069 1.072762
v -0.048689 0.146043 1.073967
v -0.057082 0.146324 1.061520
v -0.057539 0.152302 1.060395
v -0.034957 0.151985 1.063356
v -0.041611 0.159924 1.062946
v -0.037201 0.156774 1.061871
v -0.042949 0.142101 1.070696
v -0.045048 0.148598 1.077937
v -0.039431 0.170232 1.084412
v -0.046498 0.156643 1.078817
v -0.047872 0.160332 1.074246
v -0.041678 0.172844 1.081415
v -0.048432 0.153825 1.076762
v -0.042333 0.153198 1.080456
v -0.033191 0.173045 1.070518
v -0.038197 0.174257 1.072581
v -0.030092 0.169631 1.071479
v -0.051969 0.139644 1.059416
v -0.054928 0.156957 1.057020
v -0.027696 0.165596 1.077801
v -0.028246 0.167558 1.073731
v -0.046290 0.161717 1.070385
v -0.041714 0.174304 1.077103
v -0.035974 0.166630 1.085235
v -0.030906 0.163870 1.082546
v -0.033900 0.171620 1.085730
v -0.029045 0.168456 1.083072
v -0.026089 0.168933 1.078236
v -0.027194 0.170403 1.073833
v -0.029280 0.172313 1.071546
v -0.037336 0.175237 1.084272
v -0.039399 0.177184 1.081359
v -0.040278 0.175739 1.076659
v -0.036174 0.179577 1.083851
v -0.031088 0.178409 1.085493
v -0.020272 0.187400 1.075101
v -0.022366 0.181741 1.075947
v -0.022607 0.182022 1.077139
v -0.020230 0.187707 1.076835
v -0.024028 0.175567 1.078605
v -0.023948 0.177424 1.079312
v -0.026115 0.177574 1.082565
v -0.024121 0.183949 1.081869
v -0.029723 0.185537 1.083687
v -0.027033 0.190507 1.082721
v -0.021700 0.189384 1.081194
v -0.029558 0.179765 1.084527
v -0.019595 0.191053 1.077154
v -0.018491 0.191397 1.075545
v -0.026738 0.175134 1.083230
v -0.025259 0.174434 1.074019
v -0.022972 0.181607 1.072968
v -0.020912 0.187325 1.071920
v -0.020767 0.191830 1.072645
v -0.025844 0.182515 1.070517
v -0.023772 0.187726 1.070509
v -0.023564 0.191776 1.071320
v -0.028944 0.183797 1.069915
v -0.026971 0.188391 1.070372
v -0.032401 0.175333 1.070664
v -0.028394 0.174439 1.071324
v -0.025897 0.191346 1.071239
v -0.020686 0.194303 1.078725
v -0.023542 0.195666 1.075835
v -0.021045 0.192724 1.079471
v -0.031582 0.185572 1.083917
v -0.028815 0.192101 1.082619
v -0.034004 0.186209 1.082522
v -0.031115 0.192590 1.081206
v -0.025246 0.194871 1.081303
v -0.024652 0.193785 1.081505
v -0.032895 0.174054 1.070975
v -0.037530 0.175189 1.072864
v -0.036803 0.176440 1.072363
v -0.033092 0.185804 1.071556
v -0.039512 0.177568 1.076035
v -0.037990 0.181063 1.080790
v -0.035323 0.186726 1.079474
v -0.035327 0.187037 1.075538
v -0.032441 0.192266 1.078694
v -0.032792 0.190908 1.076136
v -0.030588 0.190107 1.071738
v -0.029069 0.194615 1.077216
v -0.027374 0.195529 1.079614
v -0.025931 0.194709 1.073820
v -0.030230 0.193350 1.075253
v -0.027838 0.193256 1.072715
v -0.052315 0.157205 1.054479
v -0.048173 0.173947 1.070235
v -0.051984 0.175827 1.071434
v -0.051971 0.175173 1.071459
v -0.048559 0.172982 1.069174
v -0.046452 0.163711 1.075465
v -0.044753 0.167397 1.072789
v -0.046102 0.164165 1.070686
v -0.048069 0.160812 1.073169
v -0.050837 0.162709 1.078439
v -0.052616 0.160944 1.076482
v -0.050932 0.159689 1.069864
v -0.048490 0.162710 1.067297
v -0.060021 0.158505 1.055157
v -0.064825 0.156196 1.056337
v -0.072715 0.173946 1.059908
v -0.068027 0.175403 1.056505
v -0.065333 0.175804 1.063716
v -0.068978 0.173782 1.065657
v -0.045755 0.170882 1.070946
v -0.046407 0.168822 1.068698
v -0.059693 0.173839 1.076713
v -0.056452 0.175884 1.073401
v -0.055578 0.176018 1.073635
v -0.058803 0.175135 1.077121
v -0.063153 0.173143 1.055233
v -0.060335 0.168155 1.054851
v -0.059429 0.170121 1.057645
v -0.061007 0.174337 1.061655
v -0.058131 0.164862 1.056624
v -0.060677 0.169523 1.078191
v -0.059226 0.163485 1.077564
v -0.073363 0.164186 1.064677
v -0.072281 0.169328 1.065427
v -0.047524 0.167165 1.067383
v -0.052835 0.174882 1.070079
v -0.049362 0.172321 1.068857
v -0.055375 0.159418 1.073597
v -0.057047 0.165298 1.079333
v -0.054998 0.177066 1.084573
v -0.058790 0.172176 1.080757
v -0.058819 0.175906 1.077512
v -0.056100 0.179317 1.082109
v -0.059010 0.171145 1.079488
v -0.055483 0.167479 1.081443
v -0.047147 0.178535 1.072608
v -0.051989 0.180176 1.075015
v -0.044343 0.176295 1.073033
v -0.070181 0.158036 1.059431
v -0.042844 0.170991 1.078478
v -0.042568 0.174169 1.075184
v -0.055468 0.176694 1.074039
v -0.055243 0.180620 1.078471
v -0.051435 0.173399 1.085490
v -0.046832 0.169409 1.082535
v -0.048526 0.177807 1.086459
v -0.044330 0.173362 1.083582
v -0.041622 0.174518 1.077929
v -0.043252 0.176172 1.074413
v -0.045621 0.177757 1.072655
v -0.052828 0.180944 1.085295
v -0.054516 0.182188 1.083183
v -0.054537 0.181936 1.079236
v -0.050488 0.184523 1.085266
v -0.045605 0.183722 1.084528
v -0.041896 0.189843 1.073150
v -0.042177 0.185466 1.073870
v -0.041867 0.185827 1.075045
v -0.041143 0.189949 1.073990
v -0.041676 0.180288 1.076367
v -0.041644 0.182100 1.077149
v -0.042434 0.181365 1.080760
v -0.041748 0.186850 1.079299
v -0.045222 0.189128 1.082877
v -0.044225 0.193157 1.081373
v -0.040955 0.190805 1.078599
v -0.044326 0.184515 1.083417
v -0.040384 0.192793 1.074410
v -0.040637 0.193806 1.073355
v -0.042207 0.178912 1.081776
v -0.044100 0.179522 1.073027
v -0.043583 0.186137 1.071589
v -0.042820 0.191436 1.071274
v -0.042520 0.195280 1.072625
v -0.046040 0.186029 1.070694
v -0.044975 0.191923 1.070391
v -0.044766 0.195483 1.071924
v -0.049377 0.186757 1.071156
v -0.047506 0.192104 1.070995
v -0.050727 0.181187 1.072482
v -0.047249 0.180313 1.071658
v -0.046425 0.194870 1.072101
v -0.041015 0.195941 1.076815
v -0.043575 0.197073 1.075377
v -0.040473 0.194567 1.077858
v -0.046570 0.189521 1.083515
v -0.045549 0.194395 1.081616
v -0.048977 0.190082 1.083489
v -0.047546 0.195073 1.080812
v -0.043587 0.196597 1.079415
v -0.042503 0.194911 1.079881
v -0.049106 0.180056 1.072898
v -0.051913 0.181227 1.075141
v -0.053443 0.182780 1.075667
v -0.052310 0.188123 1.074193
v -0.054789 0.183795 1.080142
v -0.053327 0.184630 1.083705
v -0.051332 0.190341 1.081864
v -0.052953 0.189949 1.078737
v -0.049030 0.195258 1.079113
v -0.050582 0.194295 1.076581
v -0.050083 0.193117 1.073259
v -0.046676 0.197053 1.076509
v -0.045290 0.197437 1.077832
v -0.045511 0.196958 1.074420
v -0.048032 0.196269 1.075287
v -0.047440 0.195779 1.073711
v -0.074000 0.170457 1.061263
v 0.025232 0.173550 1.016122
v 0.021496 0.172926 1.020465
v 0.021268 0.187786 1.027485
v 0.019512 0.180968 1.028229
v 0.025356 0.191985 1.023967
v 0.030664 0.189817 1.014625
v 0.027792 0.192505 1.018657
v 0.019585 0.175561 1.025563
v 0.028602 0.176973 1.012277
v 0.031009 0.183776 1.011065
v 0.034906 0.173752 1.017122
v 0.037530 0.181289 1.016020
v 0.037655 0.187599 1.019100
v 0.032961 0.191085 1.023306
v 0.029577 0.191444 1.027159
v 0.029055 0.171618 1.021132
v 0.025091 0.171853 1.025183
v 0.022178 0.176087 1.029467
v 0.032049 0.169737 1.028456
v 0.040686 0.171705 1.033252
v 0.049130 0.185088 1.044738
v 0.045313 0.186622 1.039202
v 0.046495 0.184004 1.038742
v 0.050310 0.182997 1.043511
v 0.043976 0.185397 1.033785
v 0.044555 0.183319 1.034931
v 0.043531 0.178335 1.033173
v 0.046840 0.177570 1.037784
v 0.042066 0.173605 1.034835
v 0.043346 0.172433 1.038675
v 0.050059 0.176582 1.042287
v 0.052778 0.180597 1.045629
v 0.052540 0.175932 1.046285
v 0.051653 0.181924 1.048360
v 0.044979 0.177787 1.030734
v 0.039064 0.189828 1.031137
v 0.042326 0.188897 1.039456
v 0.045961 0.186488 1.046313
v 0.048949 0.182407 1.050200
v 0.038155 0.189176 1.041135
v 0.041577 0.185901 1.047055
v 0.043950 0.181601 1.050382
v 0.034159 0.186616 1.042584
v 0.038398 0.183414 1.047346
v 0.026944 0.188072 1.032554
v 0.032560 0.191255 1.031394
v 0.041287 0.180907 1.049437
v 0.052341 0.175718 1.049177
v 0.049213 0.176177 1.051139
v 0.040704 0.170149 1.038671
v 0.046736 0.171124 1.042665
v 0.044173 0.169858 1.043892
v 0.036667 0.169391 1.038814
v 0.041507 0.169616 1.045130
v 0.048499 0.171063 1.047503
v 0.049887 0.172195 1.045202
v 0.024764 0.188414 1.029880
v 0.021923 0.182413 1.030359
v 0.023951 0.181948 1.032764
v 0.030736 0.180760 1.042427
v 0.024106 0.175627 1.032866
v 0.027717 0.170979 1.030797
v 0.033290 0.170539 1.040272
v 0.030694 0.174531 1.041549
v 0.038624 0.171617 1.046320
v 0.037036 0.174281 1.046719
v 0.036841 0.179194 1.047654
v 0.042549 0.173329 1.049479
v 0.045568 0.171316 1.049002
v 0.044516 0.176971 1.051071
v 0.040305 0.174965 1.048796
v 0.041136 0.177847 1.049709
v -0.069179 0.177288 1.052482
v -0.062874 0.174836 1.051075
v -0.064491 0.179228 1.048456
v -0.063914 0.186670 1.044638
v -0.069619 0.194274 1.040520
v -0.058203 0.183644 1.041481
v -0.059063 0.175916 1.045939
v -0.057079 0.168917 1.049880
v -0.053296 0.186802 1.033228
f 2 3 1
f 1 3 4
f 5 6 8
f 8 6 7
f 9 4 10
f 10 4 3
f 12 13 11
f 11 13 9
f 14 12 16
f 16 12 15
f 18 19 17
f 17 19 20
f 22 23 21
f 21 23 24
f 26 27 25
f 25 27 28
f 30 31 29
f 29 31 32
f 33 34 36
f 36 34 35
f 37 38 40
f 40 38 39
f 41 42 6
f 6 42 43
f 6 43 7
f 7 43 44
f 45 34 46
f 46 34 33
f 48 49 47
f 47 49 50
f 52 53 51
f 51 53 54
f 56 52 55
f 55 52 51
f 58 59 57
f 57 59 60
f 61 62 4
f 4 62 1
f 64 65 63
f 63 65 66
f 68 69 67
f 67 69 70
f 72 73 71
f 71 73 74
f 76 77 75
f 75 77 78
f 53 79 54
f 54 79 80
f 82 83 81
f 81 83 84
f 85 86 52
f 52 86 53
f 57 60 87
f 87 60 88
f 89 90 43
f 43 90 44
f 43 42 89
f 89 42 91
f 40 39 92
f 92 39 93
f 94 70 64
f 64 70 69
f 13 61 9
f 9 61 4
f 25 28 69
f 69 28 95
f 96 25 68
f 68 25 69
f 98 99 97
f 97 99 100
f 101 102 104
f 104 102 103
f 106 30 105
f 105 30 29
f 51 54 107
f 107 54 108
f 54 80 108
f 108 80 109
f 111 112 110
f 110 112 113
f 115 5 114
f 114 5 116
f 115 41 5
f 5 41 6
f 36 35 111
f 111 35 117
f 35 118 117
f 117 118 119
f 34 120 35
f 35 120 118
f 34 45 120
f 120 45 121
f 125 126 124
f 124 126 127
f 128 129 14
f 14 129 130
f 33 131 46
f 46 131 132
f 133 94 63
f 63 94 64
f 134 135 137
f 137 135 136
f 139 140 138
f 138 140 141
f 77 142 78
f 78 142 143
f 144 145 20
f 20 145 146
f 148 149 147
f 147 149 72
f 151 152 150
f 150 152 153
f 82 101 83
f 83 101 104
f 101 82 155
f 155 82 154
f 156 157 58
f 58 157 59
f 158 68 147
f 147 68 67
f 159 146 15
f 15 146 16
f 68 158 96
f 96 158 160
f 129 66 130
f 130 66 65
f 162 163 161
f 161 163 164
f 166 167 165
f 165 167 168
f 170 171 169
f 169 171 172
f 174 171 173
f 173 171 170
f 176 177 175
f 175 177 178
f 180 181 179
f 179 181 24
f 182 183 21
f 21 183 184
f 81 185 82
f 82 185 154
f 186 187 188
f 188 187 144
f 158 71 160
f 160 71 189
f 190 135 157
f 157 135 59
f 169 172 139
f 139 172 140
f 147 72 158
f 158 72 71
f 192 193 191
f 191 193 194
f 167 166 49
f 49 166 195
f 196 190 50
f 50 190 157
f 197 198 200
f 200 198 199
f 21 24 182
f 182 24 181
f 146 159 20
f 20 159 17
f 182 181 81
f 81 181 185
f 201 185 180
f 180 185 181
f 202 203 83
f 83 203 84
f 205 206 204
f 204 206 85
f 207 22 184
f 184 22 21
f 179 24 208
f 208 24 23
f 208 209 179
f 179 209 205
f 209 210 205
f 205 210 206
f 212 206 211
f 211 206 210
f 179 205 180
f 180 205 204
f 213 176 88
f 88 176 214
f 86 85 212
f 212 85 206
f 193 217 218
f 217 219 218
f 218 219 220
f 219 18 220
f 220 18 17
f 19 221 20
f 20 221 144
f 222 223 225
f 225 223 224
f 175 226 176
f 176 226 214
f 227 87 214
f 214 87 88
f 220 17 228
f 228 17 159
f 134 213 60
f 60 213 88
f 138 229 151
f 151 229 152
f 193 192 210
f 210 192 211
f 230 194 218
f 218 194 193
f 231 232 228
f 228 232 230
f 233 234 91
f 91 234 89
f 235 236 93
f 93 236 92
f 230 232 234
f 234 232 237
f 47 238 48
f 48 238 239
f 240 191 235
f 235 191 236
f 5 8 116
f 116 8 241
f 242 243 189
f 189 243 160
f 244 245 98
f 98 245 99
f 156 246 47
f 47 246 238
f 76 247 77
f 77 247 248
f 250 125 249
f 249 125 124
f 252 253 251
f 251 253 254
f 111 110 36
f 36 110 255
f 256 33 255
f 255 33 36
f 257 258 154
f 154 258 155
f 63 169 133
f 133 169 139
f 66 170 63
f 63 170 169
f 173 170 129
f 129 170 66
f 129 128 173
f 173 128 259
f 128 260 259
f 259 260 261
f 213 134 262
f 262 134 137
f 263 264 186
f 186 264 187
f 112 265 113
f 113 265 266
f 11 267 268
f 234 233 230
f 230 233 194
f 153 269 70
f 70 269 67
f 175 178 165
f 165 178 141
f 150 153 94
f 94 153 70
f 271 221 270
f 270 221 207
f 269 153 272
f 272 153 152
f 121 45 109
f 109 45 108
f 47 50 156
f 156 50 157
f 57 273 58
f 58 273 274
f 145 275 260
f 260 275 261
f 276 149 143
f 143 149 78
f 148 269 75
f 75 269 272
f 207 277 270
f 270 277 278
f 195 196 49
f 49 196 50
f 59 135 60
f 60 135 134
f 83 104 202
f 202 104 279
f 149 148 78
f 78 148 75
f 247 278 248
f 248 278 277
f 183 182 84
f 84 182 81
f 48 239 281
f 281 239 282
f 227 223 283
f 283 223 222
f 223 226 224
f 224 226 168
f 281 282 224
f 224 282 225
f 165 168 175
f 175 168 226
f 264 263 138
f 138 263 229
f 14 16 128
f 128 16 260
f 220 228 218
f 218 228 230
f 87 227 284
f 284 227 283
f 260 16 145
f 145 16 146
f 244 98 258
f 258 98 155
f 58 274 156
f 156 274 246
f 107 285 51
f 51 285 55
f 243 286 160
f 160 286 96
f 234 237 89
f 89 237 90
f 46 132 107
f 107 132 285
f 253 252 249
f 249 252 250
f 286 26 96
f 96 26 25
f 106 105 287
f 287 105 288
f 272 152 289
f 289 152 229
f 138 151 139
f 139 151 133
f 183 290 161
f 161 290 162
f 291 292 277
f 277 292 293
f 151 150 133
f 133 150 94
f 262 275 177
f 177 275 187
f 144 187 145
f 145 187 275
f 273 57 284
f 284 57 87
f 174 136 190
f 190 136 135
f 111 117 112
f 112 117 38
f 117 119 38
f 38 119 123
f 112 38 265
f 265 38 37
f 287 288 254
f 254 288 251
f 228 159 231
f 231 159 15
f 223 227 226
f 226 227 214
f 147 67 148
f 148 67 269
f 224 168 281
f 281 168 167
f 199 163 200
f 200 163 162
f 45 46 108
f 108 46 107
f 281 167 48
f 48 167 49
f 161 164 291
f 291 164 292
f 38 123 39
f 293 294 277
f 277 294 248
f 284 283 296
f 296 283 295
f 284 296 273
f 273 296 297
f 274 273 298
f 298 273 297
f 246 274 299
f 299 274 298
f 283 222 295
f 295 222 300
f 222 225 300
f 300 225 301
f 301 225 302
f 302 225 282
f 303 304 300
f 300 304 295
f 306 307 305
f 305 307 308
f 309 310 308
f 308 310 305
f 308 307 312
f 312 307 311
f 313 314 312
f 312 314 315
f 311 316 312
f 312 316 313
f 317 304 311
f 311 304 316
f 315 309 312
f 312 309 308
f 318 319 321
f 321 319 320
f 319 318 309
f 309 318 310
f 311 307 317
f 317 307 306
f 306 297 317
f 317 297 296
f 306 322 297
f 297 322 298
f 305 323 306
f 306 323 322
f 323 305 324
f 324 305 310
f 304 317 295
f 295 317 296
f 318 325 310
f 310 325 324
f 323 324 326
f 326 324 327
f 324 325 327
f 327 325 328
f 326 327 329
f 329 327 330
f 329 331 326
f 326 331 332
f 333 330 328
f 328 330 327
f 323 326 322
f 322 326 332
f 322 332 298
f 298 332 299
f 325 318 334
f 334 318 321
f 313 316 335
f 335 316 304
f 335 336 313
f 313 336 314
f 304 303 335
f 335 303 337
f 336 335 338
f 338 335 337
f 336 339 314
f 314 339 340
f 246 299 238
f 238 299 341
f 239 342 282
f 282 342 302
f 342 239 341
f 341 239 238
f 341 331 342
f 342 331 343
f 331 329 343
f 343 329 344
f 342 343 302
f 302 343 345
f 341 299 331
f 331 299 332
f 346 301 345
f 345 301 302
f 346 303 301
f 301 303 300
f 347 337 346
f 346 337 303
f 347 346 348
f 348 346 345
f 349 347 350
f 350 347 348
f 343 344 345
f 345 344 348
f 344 351 348
f 348 351 350
f 337 347 338
f 338 347 349
f 353 338 352
f 352 338 349
f 352 355 354
f 354 355 356
f 352 349 355
f 355 349 350
f 352 354 353
f 353 354 334
f 353 334 339
f 339 334 321
f 339 336 353
f 353 336 338
f 329 330 344
f 344 330 351
f 356 351 333
f 333 351 330
f 356 355 351
f 351 355 350
f 354 356 328
f 328 356 333
f 328 325 354
f 354 325 334
f 309 315 319
f 319 315 320
f 320 340 321
f 321 340 339
f 320 315 340
f 340 315 314
f 137 136 261
f 261 136 259
f 140 166 141
f 141 166 165
f 172 171 195
f 195 171 196
f 171 174 196
f 196 174 190
f 178 177 264
f 264 177 187
f 172 195 140
f 140 195 166
f 137 261 262
f 262 261 275
f 178 264 141
f 141 264 138
f 262 177 213
f 213 177 176
f 136 174 259
f 259 174 173
f 358 359 357
f 357 359 360
f 362 363 361
f 361 363 364
f 361 364 365
f 365 364 366
f 367 368 370
f 370 368 369
f 76 371 247
f 247 371 372
f 373 374 362
f 362 374 363
f 376 377 375
f 375 377 378
f 289 229 380
f 380 229 379
f 381 379 263
f 263 379 229
f 383 384 382
f 382 384 385
f 386 368 374
f 374 368 363
f 76 289 371
f 371 289 380
f 377 376 359
f 359 376 387
f 388 386 360
f 360 386 374
f 389 383 366
f 366 383 390
f 392 393 391
f 391 393 394
f 383 382 390
f 390 382 395
f 396 365 390
f 390 365 366
f 389 366 367
f 367 366 364
f 357 397 358
f 358 397 398
f 373 399 357
f 357 399 397
f 389 367 400
f 400 367 370
f 382 385 375
f 375 385 372
f 357 360 373
f 373 360 374
f 361 401 362
f 362 401 402
f 387 388 359
f 359 388 360
f 363 368 364
f 364 368 367
f 358 398 403
f 403 398 404
f 396 392 405
f 405 392 391
f 392 395 393
f 393 395 378
f 393 403 394
f 394 403 404
f 375 378 382
f 382 378 395
f 365 396 406
f 406 396 405
f 362 402 373
f 373 402 399
f 271 270 400
f 400 270 384
f 401 361 406
f 406 361 365
f 381 369 386
f 386 369 368
f 392 396 395
f 395 396 390
f 393 378 403
f 403 378 377
f 403 377 358
f 358 377 359
f 406 405 408
f 408 405 407
f 406 408 401
f 401 408 409
f 401 409 402
f 402 409 410
f 402 410 399
f 399 410 411
f 405 391 407
f 407 391 412
f 391 394 412
f 412 394 413
f 394 404 413
f 413 404 414
f 415 416 412
f 412 416 407
f 418 419 417
f 417 419 420
f 421 422 418
f 418 422 419
f 419 422 424
f 424 422 423
f 425 426 424
f 424 426 427
f 423 428 424
f 424 428 425
f 427 420 424
f 424 420 419
f 420 429 417
f 417 429 430
f 423 422 431
f 431 422 421
f 421 409 431
f 431 409 408
f 421 432 409
f 409 432 410
f 418 433 421
f 421 433 432
f 434 433 417
f 417 433 418
f 431 416 423
f 423 416 428
f 416 431 407
f 407 431 408
f 435 434 430
f 430 434 417
f 433 434 436
f 436 434 437
f 434 435 437
f 437 435 438
f 436 437 439
f 439 437 440
f 439 441 436
f 436 441 442
f 438 443 437
f 437 443 440
f 436 442 433
f 433 442 432
f 432 442 410
f 410 442 411
f 435 430 445
f 445 430 444
f 430 429 444
f 444 429 446
f 425 428 447
f 447 428 416
f 426 425 448
f 448 425 447
f 416 415 447
f 447 415 449
f 447 449 448
f 448 449 450
f 451 452 448
f 448 452 426
f 446 452 444
f 444 452 451
f 399 411 397
f 397 411 453
f 398 454 404
f 404 454 414
f 454 398 453
f 453 398 397
f 453 441 454
f 454 441 455
f 441 439 455
f 455 439 456
f 454 455 414
f 414 455 457
f 441 453 442
f 442 453 411
f 458 413 457
f 457 413 414
f 458 415 413
f 413 415 412
f 458 459 415
f 415 459 449
f 459 458 460
f 460 458 457
f 461 459 462
f 462 459 460
f 455 456 457
f 457 456 460
f 456 463 460
f 460 463 462
f 459 461 449
f 449 461 450
f 465 450 464
f 464 450 461
f 464 467 466
f 466 467 468
f 464 461 467
f 467 461 462
f 464 466 465
f 465 466 445
f 465 445 451
f 451 445 444
f 451 448 465
f 465 448 450
f 439 440 456
f 456 440 463
f 468 463 443
f 443 463 440
f 468 467 463
f 463 467 462
f 466 468 438
f 438 468 443
f 438 435 466
f 466 435 445
f 420 427 429
f 429 427 446
f 446 427 452
f 452 427 426
f 370 369 188
f 188 369 186
f 371 376 372
f 372 376 375
f 380 379 387
f 387 379 388
f 379 381 388
f 388 381 386
f 385 384 278
f 278 384 270
f 380 387 371
f 371 387 376
f 400 370 271
f 271 370 188
f 385 278 372
f 372 278 247
f 400 384 389
f 389 384 383
f 369 381 186
f 186 381 263
f 221 271 144
f 144 271 188
f 221 19 207
f 207 19 22
f 19 18 22
f 22 18 23
f 18 219 23
f 23 219 208
f 469 470 472
f 472 470 471
f 474 475 473
f 473 475 476
f 473 476 477
f 477 476 478
f 480 481 479
f 479 481 482
f 483 484 474
f 474 484 475
f 486 487 485
f 485 487 488
f 489 490 77
f 77 490 142
f 491 489 248
f 248 489 77
f 493 494 492
f 492 494 495
f 496 480 484
f 484 480 475
f 486 497 487
f 487 497 471
f 498 496 472
f 472 496 484
f 499 493 478
f 478 493 500
f 501 502 504
f 504 502 503
f 493 492 500
f 500 492 505
f 506 477 500
f 500 477 478
f 499 478 479
f 479 478 476
f 469 507 470
f 470 507 508
f 483 509 469
f 469 509 507
f 479 482 499
f 499 482 510
f 492 495 485
f 485 495 511
f 483 469 484
f 484 469 472
f 473 512 474
f 474 512 513
f 497 498 471
f 471 498 472
f 475 480 476
f 476 480 479
f 470 508 514
f 514 508 515
f 506 502 516
f 516 502 501
f 503 502 488
f 488 502 505
f 514 515 503
f 503 515 504
f 485 488 492
f 492 488 505
f 477 506 517
f 517 506 516
f 474 513 483
f 483 513 509
f 510 292 494
f 494 292 164
f 512 473 517
f 517 473 477
f 491 481 496
f 496 481 480
f 502 506 505
f 505 506 500
f 503 488 514
f 514 488 487
f 514 487 470
f 470 487 471
f 517 516 519
f 519 516 518
f 517 519 512
f 512 519 520
f 512 520 513
f 513 520 521
f 513 521 509
f 509 521 522
f 516 501 518
f 518 501 523
f 501 504 523
f 523 504 524
f 524 504 525
f 525 504 515
f 526 527 523
f 523 527 518
f 529 530 528
f 528 530 531
f 532 533 529
f 529 533 530
f 530 533 535
f 535 533 534
f 536 537 535
f 535 537 538
f 534 539 535
f 535 539 536
f 538 531 535
f 535 531 530
f 540 541 531
f 531 541 528
f 533 532 534
f 534 532 542
f 532 520 542
f 542 520 519
f 532 543 520
f 520 543 521
f 529 544 532
f 532 544 543
f 544 529 545
f 545 529 528
f 534 542 539
f 539 542 527
f 527 542 518
f 518 542 519
f 541 546 528
f 528 546 545
f 547 544 548
f 548 544 545
f 546 549 545
f 545 549 548
f 550 547 551
f 551 547 548
f 547 550 553
f 553 550 552
f 549 554 548
f 548 554 551
f 544 547 543
f 543 547 553
f 543 553 521
f 521 553 522
f 546 541 556
f 556 541 555
f 541 540 555
f 555 540 557
f 536 539 558
f 558 539 527
f 537 536 559
f 559 536 558
f 527 526 558
f 558 526 560
f 559 558 561
f 561 558 560
f 559 562 537
f 537 562 563
f 557 563 555
f 555 563 562
f 509 522 507
f 507 522 564
f 508 565 515
f 515 565 525
f 565 508 564
f 564 508 507
f 564 552 565
f 565 552 566
f 552 550 566
f 566 550 567
f 565 566 525
f 525 566 568
f 564 522 552
f 552 522 553
f 569 524 568
f 568 524 525
f 569 526 524
f 524 526 523
f 570 560 569
f 569 560 526
f 570 569 571
f 571 569 568
f 572 570 573
f 573 570 571
f 566 567 568
f 568 567 571
f 567 574 571
f 571 574 573
f 570 572 560
f 560 572 561
f 576 561 575
f 575 561 572
f 575 578 577
f 577 578 579
f 575 572 578
f 578 572 573
f 575 577 576
f 576 577 556
f 576 556 562
f 562 556 555
f 562 559 576
f 576 559 561
f 550 551 567
f 567 551 574
f 579 574 554
f 554 574 551
f 579 578 574
f 574 578 573
f 579 554 577
f 577 554 549
f 549 546 577
f 577 546 556
f 531 538 540
f 540 538 557
f 557 538 563
f 563 538 537
f 481 294 482
f 482 294 293
f 580 486 511
f 511 486 485
f 490 489 497
f 497 489 498
f 489 491 498
f 498 491 496
f 163 495 164
f 164 495 494
f 580 490 486
f 486 490 497
f 482 293 510
f 510 293 292
f 495 163 511
f 511 163 199
f 494 493 510
f 510 493 499
f 481 491 294
f 294 491 248
f 582 583 581
f 581 583 584
f 586 587 585
f 585 587 588
f 585 588 589
f 589 588 590
f 592 593 591
f 591 593 594
f 595 596 598
f 598 596 597
f 599 600 586
f 586 600 587
f 601 602 604
f 604 602 603
f 605 606 608
f 608 606 607
f 609 607 200
f 200 607 606
f 610 611 613
f 613 611 612
f 600 614 587
f 587 614 592
f 596 605 597
f 597 605 608
f 602 615 603
f 603 615 583
f 616 614 584
f 584 614 600
f 611 618 617
f 617 618 590
f 620 621 619
f 619 621 622
f 610 623 611
f 611 623 618
f 624 589 618
f 618 589 590
f 617 590 591
f 591 590 588
f 581 625 582
f 582 625 626
f 599 627 581
f 581 627 625
f 591 594 617
f 617 594 628
f 601 610 598
f 598 610 613
f 581 584 599
f 599 584 600
f 585 629 586
f 586 629 630
f 615 616 583
f 583 616 584
f 587 592 588
f 588 592 591
f 582 626 631
f 631 626 632
f 624 620 633
f 633 620 619
f 621 620 604
f 604 620 623
f 631 632 621
f 621 632 622
f 610 601 623
f 623 601 604
f 589 624 634
f 634 624 633
f 586 630 599
f 599 630 627
f 203 202 628
f 628 202 612
f 629 585 634
f 634 585 589
f 609 593 614
f 614 593 592
f 620 624 623
f 623 624 618
f 631 621 603
f 603 621 604
f 582 631 583
f 583 631 603
f 634 633 636
f 636 633 635
f 634 636 629
f 629 636 637
f 629 637 630
f 630 637 638
f 630 638 627
f 627 638 639
f 633 619 635
f 635 619 640
f 619 622 640
f 640 622 641
f 641 622 642
f 642 622 632
f 644 635 643
f 643 635 640
f 645 646 648
f 648 646 647
f 649 650 646
f 646 650 647
f 647 650 652
f 652 650 651
f 652 653 655
f 655 653 654
f 651 656 652
f 652 656 653
f 655 648 652
f 652 648 647
f 648 657 645
f 645 657 658
f 650 649 651
f 651 649 659
f 649 637 659
f 659 637 636
f 649 660 637
f 637 660 638
f 661 660 646
f 646 660 649
f 662 661 645
f 645 661 646
f 651 659 656
f 656 659 644
f 644 659 635
f 635 659 636
f 663 662 658
f 658 662 645
f 664 661 665
f 665 661 662
f 663 666 662
f 662 666 665
f 667 664 668
f 668 664 665
f 664 667 670
f 670 667 669
f 666 671 665
f 665 671 668
f 661 664 660
f 660 664 670
f 660 670 638
f 638 670 639
f 658 672 663
f 663 672 673
f 658 657 672
f 672 657 674
f 653 656 675
f 675 656 644
f 653 675 654
f 654 675 676
f 675 644 677
f 677 644 643
f 676 675 678
f 678 675 677
f 679 680 676
f 676 680 654
f 674 680 672
f 672 680 679
f 627 639 625
f 625 639 681
f 626 682 632
f 632 682 642
f 681 682 625
f 625 682 626
f 669 683 681
f 681 683 682
f 667 684 669
f 669 684 683
f 682 683 642
f 642 683 685
f 681 639 669
f 669 639 670
f 686 641 685
f 685 641 642
f 641 686 640
f 640 686 643
f 686 687 643
f 643 687 677
f 687 686 688
f 688 686 685
f 689 687 690
f 690 687 688
f 683 684 685
f 685 684 688
f 684 691 688
f 688 691 690
f 687 689 677
f 677 689 678
f 693 678 692
f 692 678 689
f 692 695 694
f 694 695 696
f 692 689 695
f 695 689 690
f 692 694 693
f 693 694 673
f 693 673 679
f 679 673 672
f 679 676 693
f 693 676 678
f 684 667 691
f 691 667 668
f 696 691 671
f 671 691 668
f 696 695 691
f 691 695 690
f 694 696 666
f 666 696 671
f 666 663 694
f 694 663 673
f 648 655 657
f 657 655 674
f 674 655 680
f 680 655 654
f 593 162 594
f 594 162 290
f 598 597 601
f 601 597 602
f 615 608 616
f 616 608 607
f 607 609 616
f 616 609 614
f 697 595 613
f 613 595 598
f 597 608 602
f 602 608 615
f 594 290 628
f 628 290 203
f 628 612 617
f 617 612 611
f 593 609 162
f 162 609 200
f 105 29 698
f 698 29 699
f 268 126 701
f 701 126 700
f 126 125 700
f 700 125 702
f 252 703 250
f 250 703 704
f 32 268 705
f 705 268 701
f 288 105 706
f 706 105 698
f 29 32 699
f 699 32 705
f 707 251 706
f 706 251 288
f 250 704 125
f 125 704 702
f 703 252 707
f 707 252 251
f 706 708 707
f 707 708 709
f 707 709 703
f 703 709 710
f 703 710 704
f 704 710 711
f 704 711 702
f 702 711 712
f 706 698 708
f 708 698 713
f 698 699 713
f 713 699 714
f 699 705 714
f 714 705 715
f 717 708 716
f 716 708 713
f 719 720 718
f 718 720 721
f 722 723 719
f 719 723 720
f 724 725 723
f 723 725 720
f 724 726 725
f 725 726 727
f 728 721 725
f 725 721 720
f 721 728 729
f 729 728 730
f 729 731 721
f 721 731 718
f 724 723 732
f 732 723 722
f 722 710 732
f 732 710 709
f 722 733 710
f 710 733 711
f 719 734 722
f 722 734 733
f 734 719 735
f 735 719 718
f 724 732 726
f 726 732 717
f 717 732 708
f 708 732 709
f 731 736 718
f 718 736 735
f 737 734 738
f 738 734 735
f 736 739 735
f 735 739 738
f 740 737 741
f 741 737 738
f 737 740 743
f 743 740 742
f 739 744 738
f 738 744 741
f 734 737 733
f 733 737 743
f 733 743 711
f 711 743 712
f 736 731 746
f 746 731 745
f 731 729 745
f 745 729 730
f 727 726 747
f 747 726 717
f 748 727 749
f 749 727 747
f 747 717 750
f 750 717 716
f 749 747 751
f 751 747 750
f 749 752 748
f 748 752 753
f 730 753 745
f 745 753 752
f 728 725 748
f 748 725 727
f 730 728 753
f 753 728 748
f 700 702 754
f 754 702 712
f 705 701 715
f 715 701 755
f 754 755 700
f 700 755 701
f 742 756 754
f 754 756 755
f 740 757 742
f 742 757 756
f 755 756 715
f 715 756 758
f 754 712 742
f 742 712 743
f 759 714 758
f 758 714 715
f 714 759 713
f 713 759 716
f 759 760 716
f 716 760 750
f 760 759 761
f 761 759 758
f 762 760 763
f 763 760 761
f 756 757 758
f 758 757 761
f 757 764 761
f 761 764 763
f 760 762 750
f 750 762 751
f 766 751 765
f 765 751 762
f 767 765 769
f 769 765 768
f 765 762 768
f 768 762 763
f 765 767 766
f 766 767 746
f 766 746 752
f 752 746 745
f 752 749 766
f 766 749 751
f 757 740 764
f 764 740 741
f 769 764 744
f 744 764 741
f 769 768 764
f 764 768 763
f 767 769 739
f 739 769 744
f 739 736 767
f 767 736 746
f 219 217 208
f 208 217 209
f 209 217 210
f 210 217 193
f 198 580 199
f 199 580 511
f 76 75 289
f 289 75 272
f 277 207 291
f 291 207 184
f 290 183 203
f 203 183 84
f 490 580 142
f 142 580 198
f 142 198 143
f 143 198 197
f 149 276 72
f 72 276 73
f 104 103 279
f 279 103 770
f 770 596 279
f 279 596 595
f 605 596 771
f 771 596 770
f 771 770 772
f 772 770 103
f 772 103 773
f 773 103 102
f 155 774 101
f 101 774 102
f 773 102 97
f 97 102 774
f 775 773 100
f 100 773 97
f 773 775 772
f 772 775 776
f 772 776 771
f 771 776 777
f 200 606 197
f 197 606 777
f 189 71 778
f 778 71 74
f 97 774 98
f 98 774 155
f 183 161 184
f 184 161 291
f 777 276 197
f 197 276 143
f 777 606 771
f 771 606 605
f 613 612 697
f 697 612 202
f 595 697 279
f 279 697 202
f 73 276 776
f 776 276 777
f 776 775 73
f 73 775 74
f 100 778 775
f 775 778 74
f 778 100 189
f 189 100 99
f 245 242 99
f 99 242 189
f 131 33 256
f 28 1 95
f 95 1 62
f 27 2 28
f 28 2 1
f 265 115 266
f 266 115 114
f 95 62 69
f 69 62 64
f 62 61 64
f 64 61 65
f 61 13 65
f 65 13 130
f 13 12 130
f 130 12 14
f 31 11 32
f 32 11 268
f 15 12 31
f 31 12 11
f 31 30 15
f 15 30 231
f 30 106 231
f 231 106 232
f 287 237 106
f 106 237 232
f 254 90 287
f 287 90 237
f 253 44 254
f 254 44 90
f 253 249 44
f 44 249 7
f 267 127 268
f 268 127 126
f 10 3 241
f 241 3 116
f 3 2 116
f 116 2 114
f 2 27 114
f 114 27 266
f 27 26 266
f 266 26 113
f 26 286 113
f 113 286 110
f 286 243 110
f 110 243 255
f 243 242 255
f 255 242 256
f 242 245 256
f 256 245 131
f 245 244 131
f 131 244 132
f 265 37 115
f 115 37 41
f 41 37 42
f 42 37 40
f 92 91 40
f 40 91 42
f 236 233 92
f 92 233 91
f 191 194 236
f 236 194 233
f 258 285 244
f 244 285 132
f 257 55 258
f 258 55 285
f 257 154 201
f 201 154 185
f 56 201 204
f 204 201 180
f 55 257 56
f 56 257 201
f 204 85 56
f 56 85 52
f 86 122 53
f 53 122 79
f 212 215 86
f 86 215 122
f 211 216 212
f 212 216 215
f 192 280 211
f 211 280 216
f 191 240 192
f 192 240 280
f 249 124 7
f 7 124 8
f 124 127 8
f 8 127 241
f 127 267 241
f 241 267 10
f 10 267 9
f 9 267 11
o hand_right
v 0.091450 0.466410 0.880841
v 0.087236 0.476019 0.878322
v 0.084472 0.465623 0.879595
v 0.087533 0.457622 0.881121
v 0.068928 0.478640 0.881833
v 0.058344 0.479994 0.874859
v 0.060010 0.462981 0.878393
v 0.068843 0.465074 0.884225
v 0.086272 0.449618 0.879089
v 0.082628 0.457333 0.880425
v 0.087271 0.446498 0.872830
v 0.092415 0.438849 0.869518
v 0.090417 0.441941 0.877400
v 0.097561 0.432974 0.870799
v 0.094490 0.443355 0.859230
v 0.105111 0.434696 0.865106
v 0.116625 0.460637 0.859647
v 0.125073 0.470341 0.864588
v 0.133511 0.456077 0.872958
v 0.123027 0.447997 0.867921
v 0.139534 0.475266 0.880615
v 0.136551 0.464083 0.876797
v 0.129238 0.478073 0.867477
v 0.132070 0.487348 0.871428
v 0.098941 0.480515 0.882802
v 0.094627 0.490602 0.879726
v 0.092032 0.485802 0.878074
v 0.095952 0.476115 0.881218
v 0.080536 0.442960 0.866497
v 0.080437 0.448261 0.858332
v 0.085593 0.445744 0.863979
v 0.082885 0.443966 0.871635
v 0.086336 0.518546 0.879716
v 0.084035 0.526980 0.869129
v 0.080478 0.523194 0.866168
v 0.083655 0.516254 0.876276
v 0.064051 0.504167 0.865162
v 0.068340 0.512383 0.857093
v 0.065827 0.510326 0.843126
v 0.063422 0.500685 0.848096
v 0.060048 0.492201 0.871562
v 0.057196 0.490592 0.857134
v 0.054777 0.477584 0.863649
v 0.056431 0.459979 0.870011
v 0.093618 0.534842 0.873338
v 0.096279 0.529972 0.882146
v 0.110548 0.397770 0.904720
v 0.112981 0.401468 0.908819
v 0.112108 0.404036 0.906262
v 0.110092 0.400062 0.902431
v 0.114124 0.534382 0.871135
v 0.120306 0.531651 0.863403
v 0.117087 0.538052 0.861419
v 0.109921 0.539752 0.867536
v 0.119644 0.527320 0.875883
v 0.124084 0.522519 0.866352
v 0.120091 0.390119 0.899419
v 0.114867 0.390901 0.900186
v 0.115609 0.393504 0.895968
v 0.121061 0.393355 0.895006
v 0.090666 0.448646 0.882584
v 0.094303 0.457425 0.884882
v 0.099606 0.433778 0.890567
v 0.098547 0.444083 0.887977
v 0.094156 0.440030 0.883599
v 0.096377 0.431819 0.884962
v 0.111311 0.464083 0.893362
v 0.106238 0.473397 0.888170
v 0.103166 0.467618 0.886534
v 0.107093 0.456373 0.892116
v 0.112129 0.484633 0.895139
v 0.117010 0.474564 0.899206
v 0.119763 0.482158 0.902633
v 0.115176 0.488003 0.899967
v 0.123852 0.455844 0.903614
v 0.125717 0.451735 0.904567
v 0.126121 0.455457 0.906977
v 0.124983 0.459379 0.904873
v 0.114296 0.544012 0.858397
v 0.105639 0.544263 0.863438
v 0.143706 0.494555 0.891437
v 0.139309 0.503800 0.896877
v 0.146191 0.494944 0.905356
v 0.150004 0.486938 0.896882
v 0.121907 0.524780 0.855470
v 0.120685 0.532461 0.853603
v 0.125841 0.391978 0.901236
v 0.126614 0.395358 0.897324
v 0.060144 0.477160 0.851158
v 0.058871 0.458169 0.860528
v 0.065180 0.490907 0.843822
v 0.070390 0.499974 0.838203
v 0.071883 0.507370 0.832805
v 0.103720 0.444734 0.892581
v 0.097714 0.466311 0.884271
v 0.101380 0.484564 0.884790
v 0.115457 0.505416 0.903700
v 0.110162 0.513480 0.899210
v 0.105603 0.503771 0.897077
v 0.111585 0.498660 0.900959
v 0.133024 0.506193 0.904573
v 0.126436 0.502350 0.907973
v 0.131399 0.496075 0.911683
v 0.138939 0.498475 0.910061
v 0.074156 0.441069 0.862765
v 0.074516 0.450946 0.854206
v 0.105382 0.534565 0.877472
v 0.100749 0.538198 0.872087
v 0.098066 0.543258 0.865628
v 0.088901 0.504054 0.879927
v 0.081542 0.514645 0.874073
v 0.078284 0.511215 0.873282
v 0.087758 0.501718 0.878120
v 0.081107 0.485099 0.879788
v 0.070999 0.494136 0.878380
v 0.079852 0.472585 0.882725
v 0.074806 0.519436 0.861449
v 0.076878 0.530396 0.859457
v 0.071887 0.525119 0.854089
v 0.083905 0.536311 0.863315
v 0.091260 0.541000 0.865778
v 0.120721 0.539832 0.848976
v 0.068813 0.519384 0.848570
v 0.069351 0.455679 0.884723
v 0.070529 0.447585 0.885411
v 0.078102 0.448356 0.883940
v 0.077912 0.455625 0.883338
v 0.103269 0.425726 0.873407
v 0.097819 0.427543 0.879665
v 0.092990 0.435813 0.876655
v 0.093708 0.513757 0.887619
v 0.101588 0.523703 0.889526
v 0.105073 0.433959 0.894772
v 0.120220 0.398081 0.891344
v 0.114396 0.397815 0.892387
v 0.108709 0.413450 0.882107
v 0.115483 0.413271 0.880641
v 0.114947 0.428722 0.896587
v 0.108153 0.428788 0.896252
v 0.110412 0.426123 0.896787
v 0.116626 0.425503 0.898803
v 0.129304 0.464204 0.909686
v 0.127545 0.467539 0.907582
v 0.127017 0.437117 0.879431
v 0.118690 0.431361 0.868969
v 0.113916 0.440960 0.863096
v 0.114449 0.470551 0.895977
v 0.119453 0.462885 0.900848
v 0.121392 0.466352 0.902438
v 0.107774 0.443772 0.895029
v 0.110391 0.435931 0.897142
v 0.113023 0.441847 0.896405
v 0.110693 0.448741 0.895509
v 0.133099 0.512833 0.888743
v 0.126097 0.515655 0.898154
v 0.111380 0.393828 0.901868
v 0.111371 0.396147 0.898613
v 0.109326 0.479542 0.890888
v 0.107908 0.453542 0.857398
v 0.103749 0.489011 0.887291
v 0.145419 0.467927 0.901323
v 0.141559 0.470681 0.908488
v 0.140163 0.467405 0.912410
v 0.143239 0.463470 0.909241
v 0.121768 0.411996 0.906307
v 0.116112 0.411064 0.907346
v 0.117210 0.406869 0.908863
v 0.123168 0.407205 0.908573
v 0.103354 0.427158 0.892995
v 0.099906 0.424877 0.887772
v 0.102994 0.419791 0.891094
v 0.106480 0.423069 0.894874
v 0.101899 0.420908 0.882350
v 0.104157 0.416089 0.885798
v 0.126948 0.409870 0.902507
v 0.129010 0.404907 0.896825
v 0.125259 0.419780 0.887782
v 0.122874 0.422065 0.895166
v 0.126503 0.498543 0.861949
v 0.129478 0.507406 0.868401
v 0.135373 0.496538 0.877942
v 0.142793 0.485892 0.887111
v 0.148095 0.475066 0.895494
v 0.146464 0.465022 0.888193
v 0.136235 0.503936 0.882049
v 0.121325 0.434369 0.890934
v 0.123490 0.429100 0.882860
v 0.125127 0.434205 0.886860
v 0.106149 0.494300 0.892242
v 0.109959 0.400072 0.895432
v 0.093857 0.502278 0.831026
v 0.105568 0.508601 0.834210
v 0.106211 0.500675 0.838272
v 0.092399 0.493931 0.835497
v 0.110372 0.408039 0.904878
v 0.107748 0.403916 0.900402
v 0.130371 0.471865 0.911800
v 0.132040 0.467724 0.913353
v 0.134644 0.468800 0.914854
v 0.133615 0.473448 0.915773
v 0.129635 0.512865 0.871308
v 0.146332 0.488696 0.913356
v 0.150530 0.481751 0.904486
v 0.124414 0.516440 0.859840
v 0.122200 0.508843 0.853788
v 0.119509 0.516646 0.848215
v 0.139807 0.451568 0.888337
v 0.124135 0.490486 0.859001
v 0.119356 0.502095 0.850956
v 0.116005 0.511133 0.844171
v 0.114493 0.517978 0.839325
v 0.118437 0.523308 0.844282
v 0.125952 0.400649 0.893687
v 0.130346 0.399529 0.901331
v 0.118569 0.530936 0.838998
v 0.113630 0.524658 0.833979
v 0.114656 0.494688 0.847536
v 0.107407 0.486520 0.844258
v 0.119219 0.483780 0.855612
v 0.112785 0.474569 0.852766
v 0.139042 0.444275 0.879358
v 0.127750 0.392786 0.917396
v 0.128721 0.400390 0.909399
v 0.124070 0.403736 0.911457
v 0.125418 0.396245 0.919186
v 0.128213 0.404766 0.905886
v 0.129534 0.396213 0.905317
v 0.100735 0.466257 0.850151
v 0.115914 0.436920 0.896385
v 0.090788 0.478990 0.842607
v 0.089528 0.453790 0.850878
v 0.080417 0.463349 0.847385
v 0.078648 0.490473 0.836237
v 0.071531 0.476339 0.842794
v 0.082214 0.506407 0.827860
v 0.082104 0.498689 0.832248
v 0.066710 0.462078 0.850297
v 0.111249 0.393990 0.914485
v 0.114658 0.397964 0.917326
v 0.093457 0.509284 0.826346
v 0.078794 0.462770 0.883264
v 0.098837 0.501538 0.888119
v 0.097464 0.497290 0.884452
v 0.106754 0.517753 0.895715
v 0.100325 0.508095 0.892842
v 0.111352 0.389369 0.911411
v 0.127640 0.450562 0.905458
v 0.127448 0.452878 0.905018
v 0.061708 0.453470 0.880997
v 0.063668 0.446588 0.882147
v 0.063254 0.440693 0.870284
v 0.061176 0.443121 0.876720
v 0.058320 0.450501 0.873528
v 0.060297 0.448283 0.866226
v 0.089986 0.505745 0.881747
v 0.091827 0.508261 0.884310
v 0.126041 0.520844 0.882191
v 0.119334 0.522730 0.891853
v 0.106886 0.419707 0.877941
v 0.110884 0.426471 0.870395
v 0.113757 0.420399 0.876064
v 0.121434 0.417083 0.881591
v 0.118036 0.434012 0.895018
v 0.120290 0.428535 0.892488
v 0.074589 0.503691 0.875840
v 0.084611 0.495549 0.877775
v 0.082342 0.452335 0.879258
v 0.083063 0.446905 0.878833
v 0.114278 0.456217 0.896871
v 0.135539 0.445008 0.897620
v 0.134461 0.439250 0.889684
v 0.118251 0.448659 0.899402
v 0.118373 0.384210 0.910062
v 0.113635 0.386269 0.910298
v 0.119897 0.423804 0.876348
v 0.123784 0.473675 0.906301
v 0.137532 0.451144 0.897333
v 0.132915 0.448056 0.903606
v 0.139770 0.493873 0.914275
v 0.104014 0.516100 0.829321
v 0.118174 0.404216 0.912075
v 0.119395 0.399765 0.918973
v 0.127978 0.389525 0.914360
v 0.124572 0.386013 0.910564
v 0.111748 0.527926 0.885438
v 0.096638 0.494134 0.882297
v 0.066098 0.450099 0.857388
v 0.068250 0.440603 0.864702
v 0.120777 0.445197 0.899300
v 0.146668 0.474151 0.904505
v 0.145027 0.459381 0.897469
v 0.142468 0.454897 0.906410
v 0.136683 0.449856 0.905471
v 0.129770 0.449700 0.906233
v 0.126948 0.387469 0.919998
v 0.123447 0.383521 0.916316
v 0.117147 0.382001 0.915641
v 0.112794 0.384242 0.914959
v 0.110910 0.388345 0.914948
v 0.126446 0.391184 0.922852
v 0.123994 0.394485 0.923807
v 0.119175 0.398181 0.921536
v 0.124224 0.391338 0.927132
v 0.123690 0.386040 0.927928
v 0.110134 0.381213 0.928675
v 0.114374 0.380527 0.924245
v 0.114947 0.380688 0.927066
v 0.112090 0.381037 0.931316
v 0.110569 0.381212 0.936380
v 0.107858 0.381428 0.934049
v 0.119483 0.382199 0.926340
v 0.116288 0.382834 0.932525
v 0.119030 0.385870 0.933859
v 0.116638 0.385403 0.938998
v 0.114228 0.382512 0.938062
v 0.121224 0.384982 0.929697
v 0.120993 0.381691 0.924047
v 0.107942 0.382486 0.938640
v 0.110196 0.381503 0.939354
v 0.112849 0.383010 0.940910
v 0.110667 0.384624 0.942435
v 0.111085 0.383379 0.919923
v 0.108162 0.382763 0.927876
v 0.106585 0.384308 0.933653
v 0.106898 0.385097 0.938204
v 0.107051 0.386643 0.928911
v 0.106568 0.387312 0.933625
v 0.107126 0.388396 0.937526
v 0.107673 0.390788 0.930277
v 0.107538 0.390378 0.934317
v 0.110529 0.391721 0.919294
v 0.110002 0.387775 0.917866
v 0.107358 0.390468 0.936889
v 0.110029 0.386742 0.942354
v 0.121028 0.388943 0.933080
v 0.117026 0.388665 0.939060
v 0.120654 0.391369 0.933039
v 0.117135 0.391052 0.939127
v 0.114772 0.387449 0.942795
v 0.114884 0.385241 0.941432
v 0.111625 0.393358 0.916424
v 0.115261 0.397381 0.919208
v 0.114420 0.396327 0.921527
v 0.110713 0.394483 0.931608
v 0.118052 0.397482 0.924060
v 0.121787 0.394592 0.927593
v 0.118707 0.393694 0.933633
v 0.115643 0.395405 0.933167
v 0.115705 0.392981 0.938134
v 0.113503 0.393781 0.936961
v 0.109814 0.393092 0.935644
v 0.112748 0.391680 0.940671
v 0.114118 0.389555 0.942283
v 0.109473 0.389598 0.940553
v 0.112034 0.392716 0.939176
v 0.109463 0.391184 0.938410
v 0.103875 0.435300 0.919962
v 0.106930 0.440271 0.922725
v 0.109458 0.439041 0.919126
v 0.106925 0.434779 0.916791
v 0.109462 0.423187 0.925362
v 0.105046 0.426461 0.921766
v 0.109126 0.424620 0.918008
v 0.114924 0.422145 0.921814
v 0.115595 0.425271 0.929358
v 0.120695 0.425138 0.925298
v 0.118716 0.422530 0.916886
v 0.112712 0.424899 0.913403
v 0.120035 0.432482 0.895714
v 0.126162 0.430935 0.897095
v 0.121706 0.448815 0.904479
v 0.124365 0.448874 0.906590
v 0.103610 0.431234 0.920076
v 0.107052 0.429678 0.916542
v 0.117799 0.443361 0.921813
v 0.113094 0.442819 0.918740
v 0.112318 0.442197 0.921811
v 0.116684 0.442015 0.925275
v 0.115756 0.439502 0.897159
v 0.119151 0.444184 0.900801
v 0.116775 0.435813 0.895984
v 0.122941 0.439695 0.924361
v 0.126114 0.433453 0.924697
v 0.134043 0.439779 0.906416
v 0.131174 0.444809 0.909115
v 0.109311 0.429074 0.912429
v 0.109320 0.439125 0.915907
v 0.107782 0.434597 0.913233
v 0.124315 0.426559 0.920347
v 0.122263 0.432380 0.929359
v 0.107780 0.439874 0.940775
v 0.116385 0.438473 0.932585
v 0.113692 0.442066 0.929675
v 0.105726 0.444177 0.938735
v 0.120121 0.438558 0.928334
v 0.117388 0.432543 0.932951
v 0.094627 0.440526 0.930767
v 0.098251 0.445313 0.933126
v 0.093537 0.435987 0.930955
v 0.131647 0.434001 0.900544
v 0.099292 0.427931 0.934809
v 0.094833 0.431883 0.931784
v 0.110405 0.443108 0.925793
v 0.102128 0.446524 0.936157
v 0.107887 0.435208 0.941164
v 0.105497 0.428893 0.937982
v 0.103185 0.437054 0.944624
v 0.100243 0.431695 0.942592
v 0.094427 0.430572 0.939285
v 0.091295 0.433952 0.935533
v 0.091108 0.437615 0.933750
v 0.103353 0.441433 0.944268
v 0.101916 0.445576 0.942079
v 0.099606 0.447034 0.937745
v 0.097970 0.445534 0.947226
v 0.096527 0.441612 0.949070
v 0.078147 0.442195 0.947523
v 0.082542 0.438708 0.945305
v 0.083694 0.439004 0.947681
v 0.079760 0.442202 0.949899
v 0.087583 0.434902 0.944839
v 0.087526 0.436493 0.946892
v 0.091657 0.437930 0.948587
v 0.086984 0.441586 0.950212
v 0.090646 0.444788 0.951011
v 0.086550 0.447661 0.953830
v 0.082805 0.444466 0.953401
v 0.093126 0.441323 0.949959
v 0.077980 0.444717 0.951840
v 0.076306 0.446482 0.950793
v 0.093711 0.435753 0.947636
v 0.088070 0.435085 0.938615
v 0.081512 0.440128 0.942698
v 0.077407 0.444632 0.945379
v 0.076512 0.449300 0.949485
v 0.081624 0.443888 0.940705
v 0.078151 0.447595 0.944158
v 0.077905 0.451105 0.947885
v 0.083327 0.448288 0.939779
v 0.080211 0.451358 0.943744
v 0.090993 0.442727 0.934213
v 0.088665 0.438587 0.935172
v 0.079371 0.452103 0.946188
v 0.078605 0.448913 0.954453
v 0.078370 0.451719 0.952488
v 0.079679 0.447326 0.954481
v 0.091963 0.446507 0.950847
v 0.086996 0.449829 0.953236
v 0.092611 0.449102 0.949805
v 0.086903 0.452185 0.952511
v 0.082833 0.451218 0.955026
v 0.082564 0.449502 0.955323
v 0.093136 0.441517 0.933289
v 0.096763 0.445620 0.934957
v 0.094852 0.446729 0.935523
v 0.087071 0.451784 0.941358
v 0.097887 0.448321 0.938882
v 0.098190 0.447911 0.944298
v 0.092669 0.451080 0.947679
v 0.090498 0.452687 0.944627
v 0.087329 0.453951 0.951202
v 0.087140 0.454298 0.947861
v 0.083437 0.453784 0.944698
v 0.082908 0.454600 0.952616
v 0.082686 0.452874 0.954306
v 0.079150 0.452903 0.950689
v 0.083753 0.455018 0.949711
v 0.080700 0.453807 0.947937
v 0.115783 0.455159 0.928084
v 0.119152 0.459382 0.930457
v 0.121382 0.458948 0.927615
v 0.118432 0.454342 0.925653
v 0.120025 0.443525 0.932289
v 0.116453 0.446123 0.929925
v 0.119543 0.445109 0.926787
v 0.124120 0.442421 0.928213
v 0.123415 0.444660 0.936840
v 0.129256 0.443404 0.931397
v 0.127658 0.442434 0.923751
v 0.122165 0.445016 0.923390
v 0.127977 0.448877 0.910201
v 0.134033 0.446734 0.911450
v 0.115316 0.450613 0.928392
v 0.117877 0.449740 0.925865
v 0.128976 0.462116 0.930127
v 0.124511 0.462254 0.927699
v 0.125321 0.460816 0.930921
v 0.128750 0.459526 0.933799
v 0.124326 0.458513 0.909463
v 0.127707 0.463211 0.911494
v 0.124490 0.453587 0.909841
v 0.133817 0.457710 0.931718
v 0.136343 0.450844 0.930339
v 0.141305 0.457956 0.917598
v 0.138435 0.463392 0.918018
v 0.119284 0.449352 0.923107
v 0.120692 0.459850 0.924699
v 0.118297 0.454878 0.923061
v 0.133054 0.445070 0.926305
v 0.132451 0.448809 0.935325
v 0.116444 0.455966 0.950560
v 0.128530 0.455011 0.939369
v 0.125853 0.459800 0.936817
v 0.115324 0.460115 0.949287
v 0.131655 0.455192 0.936348
v 0.127823 0.449171 0.939354
v 0.105099 0.458485 0.940099
v 0.108974 0.461954 0.942247
v 0.105133 0.454130 0.939314
v 0.139922 0.450091 0.914191
v 0.133276 0.466613 0.916101
v 0.107616 0.448049 0.943041
v 0.105544 0.450882 0.940409
v 0.123100 0.461015 0.933773
v 0.112812 0.462682 0.946257
v 0.115864 0.451309 0.949481
v 0.112614 0.447364 0.946196
v 0.112767 0.453229 0.953496
v 0.109166 0.449427 0.950492
v 0.104210 0.449403 0.947962
v 0.102161 0.452143 0.945334
v 0.101765 0.455399 0.943921
v 0.113246 0.457727 0.954366
v 0.112116 0.461204 0.952919
v 0.110882 0.462737 0.948058
v 0.110732 0.459748 0.957319
v 0.108504 0.454996 0.958829
v 0.092266 0.456430 0.961860
v 0.095548 0.454607 0.957565
v 0.096393 0.454428 0.958509
v 0.093304 0.455827 0.963124
v 0.100389 0.451364 0.954193
v 0.100116 0.452045 0.956111
v 0.103756 0.452303 0.957586
v 0.100148 0.454747 0.962285
v 0.104578 0.458763 0.963026
v 0.101138 0.459941 0.966455
v 0.096994 0.456111 0.966318
v 0.106647 0.455132 0.959613
v 0.092535 0.457123 0.965909
v 0.090532 0.457142 0.965662
v 0.105171 0.451317 0.955981
v 0.098446 0.452936 0.949961
v 0.093985 0.456050 0.955553
v 0.090332 0.458148 0.959762
v 0.089903 0.460241 0.963631
v 0.094155 0.459562 0.953989
v 0.091199 0.461020 0.958454
v 0.090678 0.462794 0.961995
v 0.095553 0.462523 0.953537
v 0.093069 0.463690 0.957877
v 0.101570 0.459478 0.945613
v 0.099238 0.456020 0.947124
v 0.092149 0.464237 0.960940
v 0.093680 0.459104 0.968875
v 0.093115 0.463071 0.967367
v 0.094775 0.458215 0.967846
v 0.105973 0.459965 0.962620
v 0.101891 0.462138 0.967172
v 0.106512 0.462530 0.961440
v 0.102256 0.464715 0.965981
v 0.098336 0.461628 0.969246
v 0.098207 0.460523 0.968716
v 0.103838 0.459031 0.943136
v 0.107413 0.462175 0.944746
v 0.105040 0.462632 0.946746
v 0.098527 0.465663 0.955032
v 0.108683 0.463559 0.949719
v 0.109394 0.462768 0.955715
v 0.105115 0.464845 0.959613
v 0.102251 0.466261 0.957677
v 0.101360 0.466524 0.963952
v 0.099982 0.466755 0.961385
v 0.095723 0.466592 0.958941
v 0.097689 0.465894 0.965728
v 0.098250 0.464264 0.968179
v 0.093250 0.465095 0.964901
v 0.097232 0.466753 0.963388
v 0.093908 0.466092 0.962630
v 0.130502 0.466046 0.913935
v 0.125424 0.466712 0.932519
v 0.126441 0.470475 0.934651
v 0.127532 0.470898 0.934030
v 0.126544 0.467689 0.930901
v 0.133805 0.458780 0.933190
v 0.129216 0.459914 0.932038
v 0.131917 0.460428 0.928739
v 0.136529 0.459605 0.929645
v 0.138006 0.461087 0.935843
v 0.140375 0.462501 0.932959
v 0.138004 0.461739 0.926633
v 0.133298 0.462291 0.925650
v 0.138351 0.469744 0.912676
v 0.143732 0.471201 0.912200
v 0.138790 0.489541 0.919716
v 0.133617 0.488974 0.917748
v 0.133606 0.484063 0.925179
v 0.138388 0.485034 0.925780
v 0.126578 0.462965 0.931794
v 0.127978 0.463721 0.928920
v 0.135513 0.475969 0.937685
v 0.130898 0.475333 0.935730
v 0.129678 0.473698 0.936637
v 0.133380 0.474829 0.939670
v 0.130778 0.484390 0.916700
v 0.131368 0.479181 0.915348
v 0.130184 0.477790 0.918950
v 0.130644 0.480383 0.923382
v 0.132459 0.472729 0.916575
v 0.139645 0.473942 0.937500
v 0.143049 0.469307 0.934785
v 0.147485 0.481987 0.921211
v 0.143606 0.484614 0.923688
v 0.129485 0.464365 0.927355
v 0.128175 0.472556 0.932580
v 0.127501 0.468670 0.930483
v 0.142407 0.464520 0.929634
v 0.140582 0.467637 0.937686
v 0.131665 0.469899 0.947631
v 0.136271 0.471699 0.942159
v 0.132353 0.474322 0.940701
v 0.129672 0.472366 0.946270
v 0.137396 0.472487 0.940160
v 0.138192 0.466392 0.940751
v 0.121462 0.466851 0.937418
v 0.123842 0.471106 0.940215
v 0.121734 0.463421 0.936856
v 0.147586 0.475964 0.914873
v 0.126702 0.458411 0.939752
v 0.123031 0.460380 0.937989
v 0.128660 0.472986 0.937590
v 0.126723 0.473047 0.943511
v 0.132713 0.465083 0.947059
v 0.131647 0.460000 0.942999
v 0.128800 0.464532 0.950068
v 0.127354 0.459992 0.946177
v 0.121862 0.459746 0.942107
v 0.120410 0.462396 0.939453
v 0.119991 0.465399 0.938331
v 0.128916 0.469834 0.949882
v 0.128015 0.472278 0.948129
v 0.125976 0.473084 0.944541
v 0.125902 0.469939 0.952295
v 0.122794 0.466181 0.952511
v 0.110602 0.471075 0.948823
v 0.113120 0.468429 0.946520
v 0.113500 0.468085 0.947625
v 0.110587 0.470323 0.949640
v 0.116677 0.464085 0.945097
v 0.116298 0.464980 0.946784
v 0.119363 0.463926 0.948872
v 0.115642 0.467211 0.951368
v 0.119157 0.469920 0.954659
v 0.115886 0.472048 0.956215
v 0.113031 0.469255 0.953388
v 0.120935 0.466236 0.952414
v 0.109158 0.471315 0.951886
v 0.108161 0.472407 0.951814
v 0.121036 0.461894 0.948305
v 0.116726 0.466080 0.941437
v 0.112296 0.470498 0.945005
v 0.109267 0.473228 0.948352
v 0.108315 0.474847 0.951866
v 0.113489 0.472324 0.943754
v 0.109874 0.475334 0.947586
v 0.109150 0.476809 0.950993
v 0.115682 0.474894 0.943694
v 0.111922 0.476968 0.947506
v 0.120020 0.471691 0.940161
v 0.117753 0.468968 0.940024
v 0.110680 0.477478 0.950343
v 0.109745 0.472836 0.955492
v 0.109976 0.475781 0.954715
v 0.110654 0.471375 0.955391
v 0.120216 0.470806 0.955028
v 0.116310 0.473580 0.956873
v 0.121492 0.472902 0.954690
v 0.116761 0.475638 0.956258
v 0.112768 0.474182 0.957177
v 0.113100 0.472336 0.956579
v 0.120583 0.469349 0.938947
v 0.122984 0.471605 0.940909
v 0.122849 0.473574 0.942592
v 0.118817 0.476726 0.945940
v 0.125883 0.474045 0.946613
v 0.126724 0.472453 0.950295
v 0.121892 0.475161 0.953105
v 0.121202 0.476953 0.950214
v 0.116558 0.477343 0.954864
v 0.116391 0.478634 0.952077
v 0.114609 0.478563 0.949116
v 0.112687 0.477550 0.954751
v 0.112484 0.476379 0.956248
v 0.110685 0.477348 0.953520
v 0.113117 0.478418 0.953069
v 0.111976 0.478224 0.951797
v 0.142477 0.487479 0.919785
v 0.077841 0.430553 0.871840
v 0.082572 0.432582 0.874502
v 0.077210 0.437060 0.889362
v 0.083003 0.435978 0.885507
v 0.070543 0.435588 0.889576
v 0.064282 0.432149 0.881238
v 0.066007 0.434674 0.885902
v 0.084920 0.434306 0.880024
v 0.071929 0.429656 0.871170
v 0.065844 0.430340 0.874758
v 0.074196 0.422455 0.874048
v 0.067613 0.423263 0.877984
v 0.065263 0.424863 0.884408
v 0.067152 0.428863 0.889509
v 0.070674 0.431061 0.892441
v 0.080499 0.425292 0.875140
v 0.084794 0.427877 0.878054
v 0.085949 0.431279 0.883707
v 0.084552 0.419634 0.879903
v 0.081690 0.410983 0.885037
v 0.074938 0.404813 0.902344
v 0.072805 0.410611 0.899246
v 0.073671 0.408648 0.897130
v 0.074967 0.403305 0.899974
v 0.071373 0.413171 0.894455
v 0.073035 0.411350 0.893903
v 0.075873 0.410850 0.889305
v 0.077137 0.406114 0.892071
v 0.080668 0.409759 0.887361
v 0.082887 0.406868 0.889322
v 0.078562 0.401347 0.894673
v 0.076422 0.399481 0.899940
v 0.079956 0.397546 0.897248
v 0.077773 0.400117 0.902975
v 0.074404 0.410512 0.887511
v 0.069523 0.420346 0.895293
v 0.073122 0.414194 0.900892
v 0.076684 0.407709 0.904399
v 0.079993 0.402082 0.904646
v 0.076154 0.417567 0.902240
v 0.079862 0.411138 0.904473
v 0.083308 0.406175 0.904132
v 0.080726 0.419685 0.901505
v 0.083319 0.412910 0.902987
v 0.077398 0.430385 0.894461
v 0.071832 0.426723 0.896088
v 0.084631 0.408599 0.902921
v 0.081950 0.396670 0.899413
v 0.084494 0.398968 0.901225
v 0.085800 0.408362 0.887797
v 0.084193 0.401961 0.891344
v 0.087175 0.403353 0.891417
v 0.088434 0.411645 0.887369
v 0.089462 0.405241 0.892194
v 0.086146 0.398738 0.894958
v 0.083251 0.398722 0.893923
v 0.076554 0.433608 0.892104
v 0.082244 0.433828 0.888340
v 0.083161 0.430736 0.890434
v 0.086250 0.420566 0.897414
v 0.087404 0.427906 0.886414
v 0.087415 0.423244 0.882087
v 0.090267 0.414705 0.889127
v 0.089797 0.418289 0.892643
v 0.090358 0.408242 0.894423
v 0.089680 0.410608 0.896471
v 0.087069 0.412488 0.900407
v 0.088992 0.404363 0.897967
v 0.088419 0.400977 0.896277
v 0.086449 0.403519 0.901619
v 0.088727 0.407272 0.898513
v 0.086898 0.407378 0.901111
v 0.132642 0.492204 0.914001
v 0.128670 0.486788 0.912746
v 0.126742 0.491816 0.910612
v 0.121386 0.498252 0.907716
v 0.121221 0.508269 0.904291
v 0.117884 0.492866 0.904471
v 0.123613 0.486368 0.907874
v 0.127102 0.478952 0.910744
v 0.110768 0.493561 0.897078
f 780 781 779
f 779 781 782
f 783 784 786
f 786 784 785
f 787 782 788
f 788 782 781
f 790 791 789
f 789 791 787
f 792 790 794
f 794 790 793
f 796 797 795
f 795 797 798
f 800 801 799
f 799 801 802
f 804 805 803
f 803 805 806
f 808 809 807
f 807 809 810
f 811 812 814
f 814 812 813
f 815 816 818
f 818 816 817
f 819 820 784
f 784 820 821
f 784 821 785
f 785 821 822
f 823 812 824
f 824 812 811
f 826 827 825
f 825 827 828
f 830 831 829
f 829 831 832
f 834 830 833
f 833 830 829
f 836 837 835
f 835 837 838
f 839 840 782
f 782 840 779
f 842 843 841
f 841 843 844
f 846 847 845
f 845 847 848
f 850 851 849
f 849 851 852
f 854 855 853
f 853 855 856
f 831 857 832
f 832 857 858
f 860 861 859
f 859 861 862
f 863 864 830
f 830 864 831
f 835 838 865
f 865 838 866
f 867 868 821
f 821 868 822
f 821 820 867
f 867 820 869
f 818 817 870
f 870 817 871
f 872 848 842
f 842 848 847
f 791 839 787
f 787 839 782
f 803 806 847
f 847 806 873
f 874 803 846
f 846 803 847
f 876 877 875
f 875 877 878
f 879 880 882
f 882 880 881
f 884 808 883
f 883 808 807
f 829 832 885
f 885 832 886
f 832 858 886
f 886 858 887
f 889 890 888
f 888 890 891
f 893 783 892
f 892 783 894
f 893 819 783
f 783 819 784
f 814 813 889
f 889 813 895
f 813 896 895
f 895 896 897
f 812 898 813
f 813 898 896
f 812 823 898
f 898 823 899
f 903 904 902
f 902 904 905
f 906 907 792
f 792 907 908
f 811 909 824
f 824 909 910
f 911 872 841
f 841 872 842
f 912 913 915
f 915 913 914
f 917 918 916
f 916 918 919
f 855 920 856
f 856 920 921
f 922 923 798
f 798 923 924
f 926 927 925
f 925 927 850
f 929 930 928
f 928 930 931
f 860 879 861
f 861 879 882
f 879 860 933
f 933 860 932
f 934 935 836
f 836 935 837
f 936 846 925
f 925 846 845
f 937 924 793
f 793 924 794
f 846 936 874
f 874 936 938
f 907 844 908
f 908 844 843
f 940 941 939
f 939 941 942
f 944 945 943
f 943 945 946
f 948 949 947
f 947 949 950
f 952 949 951
f 951 949 948
f 954 955 953
f 953 955 956
f 958 959 957
f 957 959 802
f 960 961 799
f 799 961 962
f 859 963 860
f 860 963 932
f 964 965 966
f 966 965 922
f 936 849 938
f 938 849 967
f 968 913 935
f 935 913 837
f 947 950 917
f 917 950 918
f 925 850 936
f 936 850 849
f 970 971 969
f 969 971 972
f 945 944 827
f 827 944 973
f 974 968 828
f 828 968 935
f 975 976 978
f 978 976 977
f 799 802 960
f 960 802 959
f 924 937 798
f 798 937 795
f 960 959 859
f 859 959 963
f 979 963 958
f 958 963 959
f 980 981 861
f 861 981 862
f 983 984 982
f 982 984 863
f 985 800 962
f 962 800 799
f 957 802 986
f 986 802 801
f 986 987 957
f 957 987 983
f 987 988 983
f 983 988 984
f 990 984 989
f 989 984 988
f 957 983 958
f 958 983 982
f 991 954 866
f 866 954 992
f 864 863 990
f 990 863 984
f 971 995 996
f 995 997 996
f 996 997 998
f 997 796 998
f 998 796 795
f 797 999 798
f 798 999 922
f 1000 1001 1003
f 1003 1001 1002
f 953 1004 954
f 954 1004 992
f 1005 865 992
f 992 865 866
f 998 795 1006
f 1006 795 937
f 912 991 838
f 838 991 866
f 916 1007 929
f 929 1007 930
f 971 970 988
f 988 970 989
f 1008 972 996
f 996 972 971
f 1009 1010 1006
f 1006 1010 1008
f 1011 1012 869
f 869 1012 867
f 1013 1014 871
f 871 1014 870
f 1008 1010 1012
f 1012 1010 1015
f 825 1016 826
f 826 1016 1017
f 1018 969 1013
f 1013 969 1014
f 783 786 894
f 894 786 1019
f 1020 1021 967
f 967 1021 938
f 1022 1023 876
f 876 1023 877
f 934 1024 825
f 825 1024 1016
f 854 1025 855
f 855 1025 1026
f 1028 903 1027
f 1027 903 902
f 1030 1031 1029
f 1029 1031 1032
f 889 888 814
f 814 888 1033
f 1034 811 1033
f 1033 811 814
f 1035 1036 932
f 932 1036 933
f 841 947 911
f 911 947 917
f 844 948 841
f 841 948 947
f 951 948 907
f 907 948 844
f 907 906 951
f 951 906 1037
f 906 1038 1037
f 1037 1038 1039
f 991 912 1040
f 1040 912 915
f 1041 1042 964
f 964 1042 965
f 890 1043 891
f 891 1043 1044
f 789 1045 1046
f 1012 1011 1008
f 1008 1011 972
f 931 1047 848
f 848 1047 845
f 953 956 943
f 943 956 919
f 928 931 872
f 872 931 848
f 1049 999 1048
f 1048 999 985
f 1047 931 1050
f 1050 931 930
f 899 823 887
f 887 823 886
f 825 828 934
f 934 828 935
f 835 1051 836
f 836 1051 1052
f 923 1053 1038
f 1038 1053 1039
f 1054 927 921
f 921 927 856
f 926 1047 853
f 853 1047 1050
f 985 1055 1048
f 1048 1055 1056
f 973 974 827
f 827 974 828
f 837 913 838
f 838 913 912
f 861 882 980
f 980 882 1057
f 927 926 856
f 856 926 853
f 1025 1056 1026
f 1026 1056 1055
f 961 960 862
f 862 960 859
f 826 1017 1059
f 1059 1017 1060
f 1005 1001 1061
f 1061 1001 1000
f 1001 1004 1002
f 1002 1004 946
f 1059 1060 1002
f 1002 1060 1003
f 943 946 953
f 953 946 1004
f 1042 1041 916
f 916 1041 1007
f 792 794 906
f 906 794 1038
f 998 1006 996
f 996 1006 1008
f 865 1005 1062
f 1062 1005 1061
f 1038 794 923
f 923 794 924
f 1022 876 1036
f 1036 876 933
f 836 1052 934
f 934 1052 1024
f 885 1063 829
f 829 1063 833
f 1021 1064 938
f 938 1064 874
f 1012 1015 867
f 867 1015 868
f 824 910 885
f 885 910 1063
f 1031 1030 1027
f 1027 1030 1028
f 1064 804 874
f 874 804 803
f 884 883 1065
f 1065 883 1066
f 1050 930 1067
f 1067 930 1007
f 916 929 917
f 917 929 911
f 961 1068 939
f 939 1068 940
f 1069 1070 1055
f 1055 1070 1071
f 929 928 911
f 911 928 872
f 1040 1053 955
f 955 1053 965
f 922 965 923
f 923 965 1053
f 1051 835 1062
f 1062 835 865
f 952 914 968
f 968 914 913
f 889 895 890
f 890 895 816
f 895 897 816
f 816 897 901
f 890 816 1043
f 1043 816 815
f 1065 1066 1032
f 1032 1066 1029
f 1006 937 1009
f 1009 937 793
f 1001 1005 1004
f 1004 1005 992
f 925 845 926
f 926 845 1047
f 1002 946 1059
f 1059 946 945
f 977 941 978
f 978 941 940
f 823 824 886
f 886 824 885
f 1059 945 826
f 826 945 827
f 939 942 1069
f 1069 942 1070
f 816 901 817
f 1071 1072 1055
f 1055 1072 1026
f 1062 1061 1074
f 1074 1061 1073
f 1062 1074 1051
f 1051 1074 1075
f 1052 1051 1076
f 1076 1051 1075
f 1024 1052 1077
f 1077 1052 1076
f 1061 1000 1073
f 1073 1000 1078
f 1000 1003 1078
f 1078 1003 1079
f 1079 1003 1080
f 1080 1003 1060
f 1081 1082 1078
f 1078 1082 1073
f 1084 1085 1083
f 1083 1085 1086
f 1087 1088 1086
f 1086 1088 1083
f 1086 1085 1090
f 1090 1085 1089
f 1091 1092 1090
f 1090 1092 1093
f 1089 1094 1090
f 1090 1094 1091
f 1095 1082 1089
f 1089 1082 1094
f 1093 1087 1090
f 1090 1087 1086
f 1096 1097 1099
f 1099 1097 1098
f 1097 1096 1087
f 1087 1096 1088
f 1089 1085 1095
f 1095 1085 1084
f 1084 1075 1095
f 1095 1075 1074
f 1084 1100 1075
f 1075 1100 1076
f 1083 1101 1084
f 1084 1101 1100
f 1101 1083 1102
f 1102 1083 1088
f 1082 1095 1073
f 1073 1095 1074
f 1096 1103 1088
f 1088 1103 1102
f 1101 1102 1104
f 1104 1102 1105
f 1102 1103 1105
f 1105 1103 1106
f 1104 1105 1107
f 1107 1105 1108
f 1107 1109 1104
f 1104 1109 1110
f 1111 1108 1106
f 1106 1108 1105
f 1101 1104 1100
f 1100 1104 1110
f 1100 1110 1076
f 1076 1110 1077
f 1103 1096 1112
f 1112 1096 1099
f 1091 1094 1113
f 1113 1094 1082
f 1113 1114 1091
f 1091 1114 1092
f 1082 1081 1113
f 1113 1081 1115
f 1114 1113 1116
f 1116 1113 1115
f 1114 1117 1092
f 1092 1117 1118
f 1024 1077 1016
f 1016 1077 1119
f 1017 1120 1060
f 1060 1120 1080
f 1120 1017 1119
f 1119 1017 1016
f 1119 1109 1120
f 1120 1109 1121
f 1109 1107 1121
f 1121 1107 1122
f 1120 1121 1080
f 1080 1121 1123
f 1119 1077 1109
f 1109 1077 1110
f 1124 1079 1123
f 1123 1079 1080
f 1124 1081 1079
f 1079 1081 1078
f 1125 1115 1124
f 1124 1115 1081
f 1125 1124 1126
f 1126 1124 1123
f 1127 1125 1128
f 1128 1125 1126
f 1121 1122 1123
f 1123 1122 1126
f 1122 1129 1126
f 1126 1129 1128
f 1115 1125 1116
f 1116 1125 1127
f 1131 1116 1130
f 1130 1116 1127
f 1130 1133 1132
f 1132 1133 1134
f 1130 1127 1133
f 1133 1127 1128
f 1130 1132 1131
f 1131 1132 1112
f 1131 1112 1117
f 1117 1112 1099
f 1117 1114 1131
f 1131 1114 1116
f 1107 1108 1122
f 1122 1108 1129
f 1134 1129 1111
f 1111 1129 1108
f 1134 1133 1129
f 1129 1133 1128
f 1132 1134 1106
f 1106 1134 1111
f 1106 1103 1132
f 1132 1103 1112
f 1087 1093 1097
f 1097 1093 1098
f 1098 1118 1099
f 1099 1118 1117
f 1098 1093 1118
f 1118 1093 1092
f 915 914 1039
f 1039 914 1037
f 918 944 919
f 919 944 943
f 950 949 973
f 973 949 974
f 949 952 974
f 974 952 968
f 956 955 1042
f 1042 955 965
f 950 973 918
f 918 973 944
f 915 1039 1040
f 1040 1039 1053
f 956 1042 919
f 919 1042 916
f 1040 955 991
f 991 955 954
f 914 952 1037
f 1037 952 951
f 1136 1137 1135
f 1135 1137 1138
f 1140 1141 1139
f 1139 1141 1142
f 1139 1142 1143
f 1143 1142 1144
f 1145 1146 1148
f 1148 1146 1147
f 854 1149 1025
f 1025 1149 1150
f 1151 1152 1140
f 1140 1152 1141
f 1154 1155 1153
f 1153 1155 1156
f 1067 1007 1158
f 1158 1007 1157
f 1159 1157 1041
f 1041 1157 1007
f 1161 1162 1160
f 1160 1162 1163
f 1164 1146 1152
f 1152 1146 1141
f 854 1067 1149
f 1149 1067 1158
f 1155 1154 1137
f 1137 1154 1165
f 1166 1164 1138
f 1138 1164 1152
f 1167 1161 1144
f 1144 1161 1168
f 1170 1171 1169
f 1169 1171 1172
f 1161 1160 1168
f 1168 1160 1173
f 1174 1143 1168
f 1168 1143 1144
f 1167 1144 1145
f 1145 1144 1142
f 1135 1175 1136
f 1136 1175 1176
f 1151 1177 1135
f 1135 1177 1175
f 1167 1145 1178
f 1178 1145 1148
f 1160 1163 1153
f 1153 1163 1150
f 1135 1138 1151
f 1151 1138 1152
f 1139 1179 1140
f 1140 1179 1180
f 1165 1166 1137
f 1137 1166 1138
f 1141 1146 1142
f 1142 1146 1145
f 1136 1176 1181
f 1181 1176 1182
f 1174 1170 1183
f 1183 1170 1169
f 1170 1173 1171
f 1171 1173 1156
f 1171 1181 1172
f 1172 1181 1182
f 1153 1156 1160
f 1160 1156 1173
f 1143 1174 1184
f 1184 1174 1183
f 1140 1180 1151
f 1151 1180 1177
f 1049 1048 1178
f 1178 1048 1162
f 1179 1139 1184
f 1184 1139 1143
f 1159 1147 1164
f 1164 1147 1146
f 1170 1174 1173
f 1173 1174 1168
f 1171 1156 1181
f 1181 1156 1155
f 1181 1155 1136
f 1136 1155 1137
f 1184 1183 1186
f 1186 1183 1185
f 1184 1186 1179
f 1179 1186 1187
f 1179 1187 1180
f 1180 1187 1188
f 1180 1188 1177
f 1177 1188 1189
f 1183 1169 1185
f 1185 1169 1190
f 1169 1172 1190
f 1190 1172 1191
f 1172 1182 1191
f 1191 1182 1192
f 1193 1194 1190
f 1190 1194 1185
f 1196 1197 1195
f 1195 1197 1198
f 1199 1200 1196
f 1196 1200 1197
f 1197 1200 1202
f 1202 1200 1201
f 1203 1204 1202
f 1202 1204 1205
f 1201 1206 1202
f 1202 1206 1203
f 1205 1198 1202
f 1202 1198 1197
f 1198 1207 1195
f 1195 1207 1208
f 1201 1200 1209
f 1209 1200 1199
f 1199 1187 1209
f 1209 1187 1186
f 1199 1210 1187
f 1187 1210 1188
f 1196 1211 1199
f 1199 1211 1210
f 1212 1211 1195
f 1195 1211 1196
f 1209 1194 1201
f 1201 1194 1206
f 1194 1209 1185
f 1185 1209 1186
f 1213 1212 1208
f 1208 1212 1195
f 1211 1212 1214
f 1214 1212 1215
f 1212 1213 1215
f 1215 1213 1216
f 1214 1215 1217
f 1217 1215 1218
f 1217 1219 1214
f 1214 1219 1220
f 1216 1221 1215
f 1215 1221 1218
f 1214 1220 1211
f 1211 1220 1210
f 1210 1220 1188
f 1188 1220 1189
f 1213 1208 1223
f 1223 1208 1222
f 1208 1207 1222
f 1222 1207 1224
f 1203 1206 1225
f 1225 1206 1194
f 1204 1203 1226
f 1226 1203 1225
f 1194 1193 1225
f 1225 1193 1227
f 1225 1227 1226
f 1226 1227 1228
f 1229 1230 1226
f 1226 1230 1204
f 1224 1230 1222
f 1222 1230 1229
f 1177 1189 1175
f 1175 1189 1231
f 1176 1232 1182
f 1182 1232 1192
f 1232 1176 1231
f 1231 1176 1175
f 1231 1219 1232
f 1232 1219 1233
f 1219 1217 1233
f 1233 1217 1234
f 1232 1233 1192
f 1192 1233 1235
f 1219 1231 1220
f 1220 1231 1189
f 1236 1191 1235
f 1235 1191 1192
f 1236 1193 1191
f 1191 1193 1190
f 1236 1237 1193
f 1193 1237 1227
f 1237 1236 1238
f 1238 1236 1235
f 1239 1237 1240
f 1240 1237 1238
f 1233 1234 1235
f 1235 1234 1238
f 1234 1241 1238
f 1238 1241 1240
f 1237 1239 1227
f 1227 1239 1228
f 1243 1228 1242
f 1242 1228 1239
f 1242 1245 1244
f 1244 1245 1246
f 1242 1239 1245
f 1245 1239 1240
f 1242 1244 1243
f 1243 1244 1223
f 1243 1223 1229
f 1229 1223 1222
f 1229 1226 1243
f 1243 1226 1228
f 1217 1218 1234
f 1234 1218 1241
f 1246 1241 1221
f 1221 1241 1218
f 1246 1245 1241
f 1241 1245 1240
f 1244 1246 1216
f 1216 1246 1221
f 1216 1213 1244
f 1244 1213 1223
f 1198 1205 1207
f 1207 1205 1224
f 1224 1205 1230
f 1230 1205 1204
f 1148 1147 966
f 966 1147 964
f 1149 1154 1150
f 1150 1154 1153
f 1158 1157 1165
f 1165 1157 1166
f 1157 1159 1166
f 1166 1159 1164
f 1163 1162 1056
f 1056 1162 1048
f 1158 1165 1149
f 1149 1165 1154
f 1178 1148 1049
f 1049 1148 966
f 1163 1056 1150
f 1150 1056 1025
f 1178 1162 1167
f 1167 1162 1161
f 1147 1159 964
f 964 1159 1041
f 999 1049 922
f 922 1049 966
f 999 797 985
f 985 797 800
f 797 796 800
f 800 796 801
f 796 997 801
f 801 997 986
f 1247 1248 1250
f 1250 1248 1249
f 1252 1253 1251
f 1251 1253 1254
f 1251 1254 1255
f 1255 1254 1256
f 1258 1259 1257
f 1257 1259 1260
f 1261 1262 1252
f 1252 1262 1253
f 1264 1265 1263
f 1263 1265 1266
f 1267 1268 855
f 855 1268 920
f 1269 1267 1026
f 1026 1267 855
f 1271 1272 1270
f 1270 1272 1273
f 1274 1258 1262
f 1262 1258 1253
f 1264 1275 1265
f 1265 1275 1249
f 1276 1274 1250
f 1250 1274 1262
f 1277 1271 1256
f 1256 1271 1278
f 1279 1280 1282
f 1282 1280 1281
f 1271 1270 1278
f 1278 1270 1283
f 1284 1255 1278
f 1278 1255 1256
f 1277 1256 1257
f 1257 1256 1254
f 1247 1285 1248
f 1248 1285 1286
f 1261 1287 1247
f 1247 1287 1285
f 1257 1260 1277
f 1277 1260 1288
f 1270 1273 1263
f 1263 1273 1289
f 1261 1247 1262
f 1262 1247 1250
f 1251 1290 1252
f 1252 1290 1291
f 1275 1276 1249
f 1249 1276 1250
f 1253 1258 1254
f 1254 1258 1257
f 1248 1286 1292
f 1292 1286 1293
f 1284 1280 1294
f 1294 1280 1279
f 1281 1280 1266
f 1266 1280 1283
f 1292 1293 1281
f 1281 1293 1282
f 1263 1266 1270
f 1270 1266 1283
f 1255 1284 1295
f 1295 1284 1294
f 1252 1291 1261
f 1261 1291 1287
f 1288 1070 1272
f 1272 1070 942
f 1290 1251 1295
f 1295 1251 1255
f 1269 1259 1274
f 1274 1259 1258
f 1280 1284 1283
f 1283 1284 1278
f 1281 1266 1292
f 1292 1266 1265
f 1292 1265 1248
f 1248 1265 1249
f 1295 1294 1297
f 1297 1294 1296
f 1295 1297 1290
f 1290 1297 1298
f 1290 1298 1291
f 1291 1298 1299
f 1291 1299 1287
f 1287 1299 1300
f 1294 1279 1296
f 1296 1279 1301
f 1279 1282 1301
f 1301 1282 1302
f 1302 1282 1303
f 1303 1282 1293
f 1304 1305 1301
f 1301 1305 1296
f 1307 1308 1306
f 1306 1308 1309
f 1310 1311 1307
f 1307 1311 1308
f 1308 1311 1313
f 1313 1311 1312
f 1314 1315 1313
f 1313 1315 1316
f 1312 1317 1313
f 1313 1317 1314
f 1316 1309 1313
f 1313 1309 1308
f 1318 1319 1309
f 1309 1319 1306
f 1311 1310 1312
f 1312 1310 1320
f 1310 1298 1320
f 1320 1298 1297
f 1310 1321 1298
f 1298 1321 1299
f 1307 1322 1310
f 1310 1322 1321
f 1322 1307 1323
f 1323 1307 1306
f 1312 1320 1317
f 1317 1320 1305
f 1305 1320 1296
f 1296 1320 1297
f 1319 1324 1306
f 1306 1324 1323
f 1325 1322 1326
f 1326 1322 1323
f 1324 1327 1323
f 1323 1327 1326
f 1328 1325 1329
f 1329 1325 1326
f 1325 1328 1331
f 1331 1328 1330
f 1327 1332 1326
f 1326 1332 1329
f 1322 1325 1321
f 1321 1325 1331
f 1321 1331 1299
f 1299 1331 1300
f 1324 1319 1334
f 1334 1319 1333
f 1319 1318 1333
f 1333 1318 1335
f 1314 1317 1336
f 1336 1317 1305
f 1315 1314 1337
f 1337 1314 1336
f 1305 1304 1336
f 1336 1304 1338
f 1337 1336 1339
f 1339 1336 1338
f 1337 1340 1315
f 1315 1340 1341
f 1335 1341 1333
f 1333 1341 1340
f 1287 1300 1285
f 1285 1300 1342
f 1286 1343 1293
f 1293 1343 1303
f 1343 1286 1342
f 1342 1286 1285
f 1342 1330 1343
f 1343 1330 1344
f 1330 1328 1344
f 1344 1328 1345
f 1343 1344 1303
f 1303 1344 1346
f 1342 1300 1330
f 1330 1300 1331
f 1347 1302 1346
f 1346 1302 1303
f 1347 1304 1302
f 1302 1304 1301
f 1348 1338 1347
f 1347 1338 1304
f 1348 1347 1349
f 1349 1347 1346
f 1350 1348 1351
f 1351 1348 1349
f 1344 1345 1346
f 1346 1345 1349
f 1345 1352 1349
f 1349 1352 1351
f 1348 1350 1338
f 1338 1350 1339
f 1354 1339 1353
f 1353 1339 1350
f 1353 1356 1355
f 1355 1356 1357
f 1353 1350 1356
f 1356 1350 1351
f 1353 1355 1354
f 1354 1355 1334
f 1354 1334 1340
f 1340 1334 1333
f 1340 1337 1354
f 1354 1337 1339
f 1328 1329 1345
f 1345 1329 1352
f 1357 1352 1332
f 1332 1352 1329
f 1357 1356 1352
f 1352 1356 1351
f 1357 1332 1355
f 1355 1332 1327
f 1327 1324 1355
f 1355 1324 1334
f 1309 1316 1318
f 1318 1316 1335
f 1335 1316 1341
f 1341 1316 1315
f 1259 1072 1260
f 1260 1072 1071
f 1358 1264 1289
f 1289 1264 1263
f 1268 1267 1275
f 1275 1267 1276
f 1267 1269 1276
f 1276 1269 1274
f 941 1273 942
f 942 1273 1272
f 1358 1268 1264
f 1264 1268 1275
f 1260 1071 1288
f 1288 1071 1070
f 1273 941 1289
f 1289 941 977
f 1272 1271 1288
f 1288 1271 1277
f 1259 1269 1072
f 1072 1269 1026
f 1360 1361 1359
f 1359 1361 1362
f 1364 1365 1363
f 1363 1365 1366
f 1363 1366 1367
f 1367 1366 1368
f 1370 1371 1369
f 1369 1371 1372
f 1373 1374 1376
f 1376 1374 1375
f 1377 1378 1364
f 1364 1378 1365
f 1379 1380 1382
f 1382 1380 1381
f 1383 1384 1386
f 1386 1384 1385
f 1387 1385 978
f 978 1385 1384
f 1388 1389 1391
f 1391 1389 1390
f 1378 1392 1365
f 1365 1392 1370
f 1374 1383 1375
f 1375 1383 1386
f 1380 1393 1381
f 1381 1393 1361
f 1394 1392 1362
f 1362 1392 1378
f 1389 1396 1395
f 1395 1396 1368
f 1398 1399 1397
f 1397 1399 1400
f 1388 1401 1389
f 1389 1401 1396
f 1402 1367 1396
f 1396 1367 1368
f 1395 1368 1369
f 1369 1368 1366
f 1359 1403 1360
f 1360 1403 1404
f 1377 1405 1359
f 1359 1405 1403
f 1369 1372 1395
f 1395 1372 1406
f 1379 1388 1376
f 1376 1388 1391
f 1359 1362 1377
f 1377 1362 1378
f 1363 1407 1364
f 1364 1407 1408
f 1393 1394 1361
f 1361 1394 1362
f 1365 1370 1366
f 1366 1370 1369
f 1360 1404 1409
f 1409 1404 1410
f 1402 1398 1411
f 1411 1398 1397
f 1399 1398 1382
f 1382 1398 1401
f 1409 1410 1399
f 1399 1410 1400
f 1388 1379 1401
f 1401 1379 1382
f 1367 1402 1412
f 1412 1402 1411
f 1364 1408 1377
f 1377 1408 1405
f 981 980 1406
f 1406 980 1390
f 1407 1363 1412
f 1412 1363 1367
f 1387 1371 1392
f 1392 1371 1370
f 1398 1402 1401
f 1401 1402 1396
f 1409 1399 1381
f 1381 1399 1382
f 1360 1409 1361
f 1361 1409 1381
f 1412 1411 1414
f 1414 1411 1413
f 1412 1414 1407
f 1407 1414 1415
f 1407 1415 1408
f 1408 1415 1416
f 1408 1416 1405
f 1405 1416 1417
f 1411 1397 1413
f 1413 1397 1418
f 1397 1400 1418
f 1418 1400 1419
f 1419 1400 1420
f 1420 1400 1410
f 1422 1413 1421
f 1421 1413 1418
f 1423 1424 1426
f 1426 1424 1425
f 1427 1428 1424
f 1424 1428 1425
f 1425 1428 1430
f 1430 1428 1429
f 1430 1431 1433
f 1433 1431 1432
f 1429 1434 1430
f 1430 1434 1431
f 1433 1426 1430
f 1430 1426 1425
f 1426 1435 1423
f 1423 1435 1436
f 1428 1427 1429
f 1429 1427 1437
f 1427 1415 1437
f 1437 1415 1414
f 1427 1438 1415
f 1415 1438 1416
f 1439 1438 1424
f 1424 1438 1427
f 1440 1439 1423
f 1423 1439 1424
f 1429 1437 1434
f 1434 1437 1422
f 1422 1437 1413
f 1413 1437 1414
f 1441 1440 1436
f 1436 1440 1423
f 1442 1439 1443
f 1443 1439 1440
f 1441 1444 1440
f 1440 1444 1443
f 1445 1442 1446
f 1446 1442 1443
f 1442 1445 1448
f 1448 1445 1447
f 1444 1449 1443
f 1443 1449 1446
f 1439 1442 1438
f 1438 1442 1448
f 1438 1448 1416
f 1416 1448 1417
f 1436 1450 1441
f 1441 1450 1451
f 1436 1435 1450
f 1450 1435 1452
f 1431 1434 1453
f 1453 1434 1422
f 1431 1453 1432
f 1432 1453 1454
f 1453 1422 1455
f 1455 1422 1421
f 1454 1453 1456
f 1456 1453 1455
f 1457 1458 1454
f 1454 1458 1432
f 1452 1458 1450
f 1450 1458 1457
f 1405 1417 1403
f 1403 1417 1459
f 1404 1460 1410
f 1410 1460 1420
f 1459 1460 1403
f 1403 1460 1404
f 1447 1461 1459
f 1459 1461 1460
f 1445 1462 1447
f 1447 1462 1461
f 1460 1461 1420
f 1420 1461 1463
f 1459 1417 1447
f 1447 1417 1448
f 1464 1419 1463
f 1463 1419 1420
f 1419 1464 1418
f 1418 1464 1421
f 1464 1465 1421
f 1421 1465 1455
f 1465 1464 1466
f 1466 1464 1463
f 1467 1465 1468
f 1468 1465 1466
f 1461 1462 1463
f 1463 1462 1466
f 1462 1469 1466
f 1466 1469 1468
f 1465 1467 1455
f 1455 1467 1456
f 1471 1456 1470
f 1470 1456 1467
f 1470 1473 1472
f 1472 1473 1474
f 1470 1467 1473
f 1473 1467 1468
f 1470 1472 1471
f 1471 1472 1451
f 1471 1451 1457
f 1457 1451 1450
f 1457 1454 1471
f 1471 1454 1456
f 1462 1445 1469
f 1469 1445 1446
f 1474 1469 1449
f 1449 1469 1446
f 1474 1473 1469
f 1469 1473 1468
f 1472 1474 1444
f 1444 1474 1449
f 1444 1441 1472
f 1472 1441 1451
f 1426 1433 1435
f 1435 1433 1452
f 1452 1433 1458
f 1458 1433 1432
f 1371 940 1372
f 1372 940 1068
f 1376 1375 1379
f 1379 1375 1380
f 1393 1386 1394
f 1394 1386 1385
f 1385 1387 1394
f 1394 1387 1392
f 1475 1373 1391
f 1391 1373 1376
f 1375 1386 1380
f 1380 1386 1393
f 1372 1068 1406
f 1406 1068 981
f 1406 1390 1395
f 1395 1390 1389
f 1371 1387 940
f 940 1387 978
f 883 807 1476
f 1476 807 1477
f 1046 904 1479
f 1479 904 1478
f 904 903 1478
f 1478 903 1480
f 1030 1481 1028
f 1028 1481 1482
f 810 1046 1483
f 1483 1046 1479
f 1066 883 1484
f 1484 883 1476
f 807 810 1477
f 1477 810 1483
f 1485 1029 1484
f 1484 1029 1066
f 1028 1482 903
f 903 1482 1480
f 1481 1030 1485
f 1485 1030 1029
f 1484 1486 1485
f 1485 1486 1487
f 1485 1487 1481
f 1481 1487 1488
f 1481 1488 1482
f 1482 1488 1489
f 1482 1489 1480
f 1480 1489 1490
f 1484 1476 1486
f 1486 1476 1491
f 1476 1477 1491
f 1491 1477 1492
f 1477 1483 1492
f 1492 1483 1493
f 1495 1486 1494
f 1494 1486 1491
f 1497 1498 1496
f 1496 1498 1499
f 1500 1501 1497
f 1497 1501 1498
f 1502 1503 1501
f 1501 1503 1498
f 1502 1504 1503
f 1503 1504 1505
f 1506 1499 1503
f 1503 1499 1498
f 1499 1506 1507
f 1507 1506 1508
f 1507 1509 1499
f 1499 1509 1496
f 1502 1501 1510
f 1510 1501 1500
f 1500 1488 1510
f 1510 1488 1487
f 1500 1511 1488
f 1488 1511 1489
f 1497 1512 1500
f 1500 1512 1511
f 1512 1497 1513
f 1513 1497 1496
f 1502 1510 1504
f 1504 1510 1495
f 1495 1510 1486
f 1486 1510 1487
f 1509 1514 1496
f 1496 1514 1513
f 1515 1512 1516
f 1516 1512 1513
f 1514 1517 1513
f 1513 1517 1516
f 1518 1515 1519
f 1519 1515 1516
f 1515 1518 1521
f 1521 1518 1520
f 1517 1522 1516
f 1516 1522 1519
f 1512 1515 1511
f 1511 1515 1521
f 1511 1521 1489
f 1489 1521 1490
f 1514 1509 1524
f 1524 1509 1523
f 1509 1507 1523
f 1523 1507 1508
f 1505 1504 1525
f 1525 1504 1495
f 1526 1505 1527
f 1527 1505 1525
f 1525 1495 1528
f 1528 1495 1494
f 1527 1525 1529
f 1529 1525 1528
f 1527 1530 1526
f 1526 1530 1531
f 1508 1531 1523
f 1523 1531 1530
f 1506 1503 1526
f 1526 1503 1505
f 1508 1506 1531
f 1531 1506 1526
f 1478 1480 1532
f 1532 1480 1490
f 1483 1479 1493
f 1493 1479 1533
f 1532 1533 1478
f 1478 1533 1479
f 1520 1534 1532
f 1532 1534 1533
f 1518 1535 1520
f 1520 1535 1534
f 1533 1534 1493
f 1493 1534 1536
f 1532 1490 1520
f 1520 1490 1521
f 1537 1492 1536
f 1536 1492 1493
f 1492 1537 1491
f 1491 1537 1494
f 1537 1538 1494
f 1494 1538 1528
f 1538 1537 1539
f 1539 1537 1536
f 1540 1538 1541
f 1541 1538 1539
f 1534 1535 1536
f 1536 1535 1539
f 1535 1542 1539
f 1539 1542 1541
f 1538 1540 1528
f 1528 1540 1529
f 1544 1529 1543
f 1543 1529 1540
f 1545 1543 1547
f 1547 1543 1546
f 1543 1540 1546
f 1546 1540 1541
f 1543 1545 1544
f 1544 1545 1524
f 1544 1524 1530
f 1530 1524 1523
f 1530 1527 1544
f 1544 1527 1529
f 1535 1518 1542
f 1542 1518 1519
f 1547 1542 1522
f 1522 1542 1519
f 1547 1546 1542
f 1542 1546 1541
f 1545 1547 1517
f 1517 1547 1522
f 1517 1514 1545
f 1545 1514 1524
f 997 995 986
f 986 995 987
f 987 995 988
f 988 995 971
f 976 1358 977
f 977 1358 1289
f 854 853 1067
f 1067 853 1050
f 1055 985 1069
f 1069 985 962
f 1068 961 981
f 981 961 862
f 1268 1358 920
f 920 1358 976
f 920 976 921
f 921 976 975
f 927 1054 850
f 850 1054 851
f 882 881 1057
f 1057 881 1548
f 1548 1374 1057
f 1057 1374 1373
f 1383 1374 1549
f 1549 1374 1548
f 1549 1548 1550
f 1550 1548 881
f 1550 881 1551
f 1551 881 880
f 933 1552 879
f 879 1552 880
f 1551 880 875
f 875 880 1552
f 1553 1551 878
f 878 1551 875
f 1551 1553 1550
f 1550 1553 1554
f 1550 1554 1549
f 1549 1554 1555
f 978 1384 975
f 975 1384 1555
f 967 849 1556
f 1556 849 852
f 875 1552 876
f 876 1552 933
f 961 939 962
f 962 939 1069
f 1555 1054 975
f 975 1054 921
f 1555 1384 1549
f 1549 1384 1383
f 1391 1390 1475
f 1475 1390 980
f 1373 1475 1057
f 1057 1475 980
f 851 1054 1554
f 1554 1054 1555
f 1554 1553 851
f 851 1553 852
f 878 1556 1553
f 1553 1556 852
f 1556 878 967
f 967 878 877
f 1023 1020 877
f 877 1020 967
f 909 811 1034
f 806 779 873
f 873 779 840
f 805 780 806
f 806 780 779
f 1043 893 1044
f 1044 893 892
f 873 840 847
f 847 840 842
f 840 839 842
f 842 839 843
f 839 791 843
f 843 791 908
f 791 790 908
f 908 790 792
f 809 789 810
f 810 789 1046
f 793 790 809
f 809 790 789
f 809 808 793
f 793 808 1009
f 808 884 1009
f 1009 884 1010
f 1065 1015 884
f 884 1015 1010
f 1032 868 1065
f 1065 868 1015
f 1031 822 1032
f 1032 822 868
f 1031 1027 822
f 822 1027 785
f 1045 905 1046
f 1046 905 904
f 788 781 1019
f 1019 781 894
f 781 780 894
f 894 780 892
f 780 805 892
f 892 805 1044
f 805 804 1044
f 1044 804 891
f 804 1064 891
f 891 1064 888
f 1064 1021 888
f 888 1021 1033
f 1021 1020 1033
f 1033 1020 1034
f 1020 1023 1034
f 1034 1023 909
f 1023 1022 909
f 909 1022 910
f 1043 815 893
f 893 815 819
f 819 815 820
f 820 815 818
f 870 869 818
f 818 869 820
f 1014 1011 870
f 870 1011 869
f 969 972 1014
f 1014 972 1011
f 1036 1063 1022
f 1022 1063 910
f 1035 833 1036
f 1036 833 1063
f 1035 932 979
f 979 932 963
f 834 979 982
f 982 979 958
f 833 1035 834
f 834 1035 979
f 982 863 834
f 834 863 830
f 864 900 831
f 831 900 857
f 990 993 864
f 864 993 900
f 989 994 990
f 990 994 993
f 970 1058 989
f 989 1058 994
f 969 1018 970
f 970 1018 1058
f 1027 902 785
f 785 902 786
f 902 905 786
f 786 905 1019
f 905 1045 1019
f 1019 1045 788
f 788 1045 787
f 787 1045 789
