o hand_left
v 0.012072 0.203272 1.019913
v 0.013356 0.212937 1.015712
v 0.023061 0.208540 1.019146
v 0.020875 0.198313 1.022332
v 0.027759 0.229335 1.009137
v 0.034046 0.231827 0.998368
v 0.044553 0.222784 1.006610
v 0.037606 0.223331 1.014718
v 0.027524 0.193366 1.022720
v 0.030144 0.205041 1.021438
v 0.030325 0.190891 1.019006
v 0.023387 0.177160 1.016520
v 0.023007 0.182323 1.021930
v 0.018744 0.169097 1.018339
v 0.018662 0.176741 1.006022
v 0.010695 0.164413 1.014319
v -0.011729 0.183550 1.003120
v -0.022940 0.190780 1.006453
v -0.024871 0.177178 1.018631
v -0.012603 0.171627 1.014681
v -0.037185 0.194189 1.022623
v -0.030456 0.184297 1.020953
v -0.029490 0.196986 1.008112
v -0.035335 0.205266 1.010329
v -0.001683 0.213418 1.018407
v -0.001615 0.222528 1.013225
v 0.003026 0.218294 1.013218
v 0.002989 0.209961 1.017939
v 0.041846 0.193241 1.013866
v 0.033463 0.189859 1.003212
v 0.031105 0.187710 1.010875
v 0.040129 0.195614 1.018654
v -0.004587 0.250954 1.005315
v -0.006171 0.256568 0.992980
v -0.001771 0.253585 0.990352
v -0.001685 0.248687 1.002055
v 0.017618 0.242305 0.988431
v 0.011616 0.245504 0.981055
v 0.014342 0.241292 0.968011
v 0.019461 0.235078 0.973553
v 0.025925 0.237404 0.994253
v 0.028349 0.232149 0.981385
v 0.036773 0.226534 0.987979
v 0.048202 0.218103 0.999045
v -0.017636 0.261279 0.996706
v -0.017815 0.258282 1.006559
v 0.029740 0.177142 1.058964
v 0.025013 0.180542 1.060288
v 0.023361 0.179097 1.056566
v 0.028174 0.175638 1.055836
v -0.036395 0.253240 0.997509
v -0.041381 0.246727 0.991532
v -0.040918 0.253056 0.987845
v -0.034704 0.258597 0.992356
v -0.038612 0.246166 1.004306
v -0.041321 0.238021 0.996835
v 0.030201 0.167070 1.066915
v 0.032761 0.169997 1.063480
v 0.030536 0.166383 1.060321
v 0.027315 0.163381 1.063530
v 0.018970 0.188670 1.024518
v 0.011788 0.195288 1.024970
v 0.013389 0.176256 1.032260
v 0.011939 0.182694 1.030262
v 0.017172 0.179765 1.026318
v 0.017528 0.174202 1.028297
v -0.006624 0.197280 1.033441
v -0.005641 0.206042 1.025818
v -0.000701 0.201544 1.025114
v -0.000012 0.191669 1.033221
v -0.014920 0.215619 1.030925
v -0.015468 0.205974 1.037631
v -0.020750 0.212586 1.039570
v -0.018794 0.218755 1.035183
v -0.014270 0.187796 1.046683
v -0.014659 0.183337 1.048682
v -0.015915 0.186564 1.051513
v -0.016531 0.190833 1.047595
v -0.040745 0.258589 0.983312
v -0.032677 0.263077 0.986878
v -0.048136 0.212345 1.029479
v -0.047280 0.223466 1.032004
v -0.050131 0.215067 1.042889
v -0.051048 0.204426 1.037169
v -0.040629 0.238114 0.985652
v -0.042480 0.244890 0.982048
v 0.024984 0.166742 1.070396
v 0.022169 0.163533 1.067179
v 0.031575 0.217843 0.979674
v 0.046336 0.210150 0.993299
v 0.020647 0.224340 0.971391
v 0.013086 0.228796 0.965781
v 0.009479 0.233813 0.959891
v 0.006686 0.182509 1.034558
v 0.004966 0.201675 1.022763
v -0.005454 0.216759 1.019623
v -0.025483 0.235093 1.034959
v -0.023798 0.243012 1.028272
v -0.016026 0.235424 1.027666
v -0.019492 0.229741 1.033293
v -0.042058 0.229744 1.037954
v -0.034371 0.229566 1.041090
v -0.036537 0.223240 1.046365
v -0.044612 0.222081 1.045411
v 0.047504 0.193265 1.008538
v 0.036435 0.193071 0.996560
v -0.028131 0.257989 1.002331
v -0.025488 0.261469 0.995776
v -0.025299 0.265375 0.988138
v -0.001848 0.236514 1.009233
v 0.000396 0.247159 0.999874
v 0.003917 0.244657 0.999047
v -0.000285 0.233742 1.008153
v 0.014301 0.224671 1.012195
v 0.016793 0.235730 1.004332
v 0.024182 0.220199 1.017123
v 0.004111 0.250767 0.985493
v -0.001412 0.259674 0.981915
v 0.004716 0.255287 0.977032
v -0.009834 0.263517 0.985398
v -0.018196 0.265759 0.987825
v -0.045538 0.250243 0.976082
v 0.009275 0.249815 0.972353
v 0.044158 0.217991 1.018358
v 0.049585 0.213638 1.022253
v 0.043571 0.209322 1.024627
v 0.037980 0.212716 1.021583
v 0.016744 0.163177 1.024104
v 0.019372 0.169416 1.026250
v 0.020868 0.175174 1.021655
v -0.009161 0.246147 1.014908
v -0.020134 0.252717 1.015669
v 0.008519 0.176447 1.036350
v 0.024083 0.161171 1.058250
v 0.027883 0.164465 1.054909
v 0.020188 0.162727 1.035177
v 0.016019 0.158059 1.038891
v 0.003496 0.172709 1.041870
v 0.008045 0.176539 1.037584
v 0.007819 0.176659 1.039018
v 0.003937 0.175099 1.044391
v -0.021459 0.194216 1.052419
v -0.021550 0.198035 1.048665
v -0.011227 0.163347 1.029069
v -0.001524 0.156206 1.021667
v -0.001020 0.165977 1.011260
v -0.011748 0.202556 1.035063
v -0.013204 0.195160 1.042060
v -0.016182 0.197915 1.043126
v 0.003635 0.181138 1.037796
v 0.003733 0.175764 1.040189
v 0.000483 0.178158 1.041102
v -0.000257 0.184595 1.038530
v -0.045110 0.231774 1.021501
v -0.039341 0.239012 1.028908
v 0.032509 0.173470 1.060372
v 0.030748 0.170892 1.057185
v -0.010633 0.211054 1.027565
v -0.000216 0.179132 1.002288
v -0.009172 0.220505 1.021365
v -0.039148 0.190787 1.044657
v -0.036010 0.196737 1.050647
v -0.033674 0.194680 1.054720
v -0.035643 0.189104 1.052743
v 0.010841 0.176456 1.058781
v 0.015067 0.179605 1.055979
v 0.017781 0.179951 1.059475
v 0.013847 0.177310 1.063067
v 0.012672 0.176533 1.033760
v 0.017375 0.173505 1.030831
v 0.018019 0.174835 1.034200
v 0.012786 0.176791 1.037008
v 0.019209 0.168460 1.029042
v 0.020680 0.168981 1.033297
v 0.009709 0.170565 1.061620
v 0.013032 0.163857 1.063007
v 0.003828 0.161045 1.046162
v 0.002702 0.168698 1.048390
v -0.034802 0.214783 0.998090
v -0.040602 0.223219 1.002769
v -0.041598 0.213826 1.015012
v -0.044021 0.203980 1.027041
v -0.044432 0.194525 1.038142
v -0.039416 0.184648 1.032835
v -0.045004 0.221102 1.017456
v -0.003630 0.167803 1.039627
v -0.002608 0.160688 1.036086
v -0.007162 0.164190 1.036219
v -0.013132 0.225607 1.025258
v 0.028605 0.169484 1.052200
v -0.008258 0.221353 0.963034
v -0.020918 0.223923 0.966372
v -0.018371 0.217641 0.972118
v -0.003818 0.215159 0.968947
v 0.021180 0.179264 1.052773
v 0.026486 0.175636 1.051041
v -0.025670 0.202118 1.051956
v -0.025378 0.197671 1.055058
v -0.028608 0.198118 1.056521
v -0.029234 0.203827 1.055866
v -0.042662 0.228712 1.004395
v -0.047304 0.211877 1.052114
v -0.048607 0.201640 1.046086
v -0.039635 0.230915 0.991969
v -0.035099 0.223393 0.987483
v -0.035835 0.229863 0.980094
v -0.028370 0.174340 1.034954
v -0.029839 0.207700 0.996638
v -0.030155 0.217684 0.985816
v -0.030796 0.225163 0.976909
v -0.032224 0.230531 0.970567
v -0.037502 0.235202 0.974766
v 0.018500 0.161480 1.061727
v 0.016220 0.166503 1.069012
v -0.040774 0.240570 0.968116
v -0.034189 0.235434 0.963931
v -0.023299 0.211882 0.983471
v -0.013872 0.205832 0.981301
v -0.023064 0.202569 0.994170
v -0.013822 0.195635 0.992747
v -0.024999 0.166109 1.027881
v 0.021643 0.180104 1.078622
v 0.015984 0.174648 1.071073
v 0.016174 0.179025 1.067150
v 0.020410 0.183563 1.076362
v 0.012963 0.172435 1.066604
v 0.019010 0.169765 1.072123
v 0.000765 0.191162 0.991440
v 0.000124 0.173715 1.042807
v 0.003879 0.203559 0.979563
v 0.018237 0.185337 0.994867
v 0.021602 0.196063 0.986988
v 0.009068 0.216450 0.967832
v 0.021865 0.208897 0.976210
v 0.000613 0.228293 0.957288
v 0.003313 0.222083 0.962916
v 0.035597 0.203151 0.986464
v 0.031299 0.184663 1.066610
v 0.026002 0.186701 1.067880
v -0.010534 0.226778 0.957017
v 0.031877 0.215667 1.019811
v -0.009334 0.233511 1.018753
v -0.006631 0.229171 1.016115
v -0.022422 0.247135 1.023550
v -0.012925 0.240039 1.021970
v 0.035013 0.180932 1.067643
v -0.016945 0.181401 1.050258
v -0.016879 0.182825 1.050667
v 0.050668 0.218412 1.012438
v 0.054694 0.214540 1.016632
v 0.057600 0.203815 1.009398
v 0.058272 0.210311 1.012435
v 0.054252 0.214002 1.005896
v 0.053454 0.207198 1.002065
v -0.003168 0.238542 1.010593
v -0.005542 0.241017 1.012686
v -0.041830 0.239747 1.012580
v -0.035941 0.246096 1.020453
v 0.017069 0.162596 1.028923
v 0.009800 0.158025 1.023931
v 0.011713 0.157963 1.030542
v 0.008980 0.156997 1.041112
v -0.000802 0.171041 1.042760
v -0.000356 0.168150 1.041984
v 0.009682 0.240158 1.001913
v 0.005027 0.229157 1.008978
v 0.034843 0.203801 1.021707
v 0.039713 0.202100 1.023568
v -0.006215 0.190084 1.038847
v -0.022005 0.171766 1.044507
v -0.018418 0.165654 1.038364
v -0.006696 0.182615 1.043422
v 0.034640 0.175647 1.074092
v 0.036037 0.178347 1.070190
v 0.004709 0.156586 1.032475
v -0.020917 0.204580 1.045493
v -0.025938 0.176391 1.043734
v -0.021245 0.176677 1.049197
v -0.043321 0.218947 1.050379
v -0.022487 0.229948 0.959906
v 0.019444 0.181917 1.063468
v 0.021681 0.186674 1.070622
v 0.024173 0.176629 1.079054
v 0.029393 0.173998 1.077260
v -0.031124 0.251819 1.012222
v -0.004769 0.225974 1.014777
v 0.046277 0.199713 0.997149
v 0.053204 0.197794 1.007598
v -0.007318 0.178605 1.044611
v -0.042006 0.196861 1.047209
v -0.036117 0.182094 1.042565
v -0.032588 0.180616 1.052070
v -0.025614 0.177306 1.052538
v -0.018869 0.179155 1.053471
v 0.026429 0.180746 1.082181
v 0.031500 0.178288 1.080437
v 0.036598 0.179884 1.077118
v 0.037717 0.182145 1.073365
v 0.035751 0.184320 1.070098
v 0.023820 0.184325 1.082078
v 0.022788 0.187334 1.079915
v 0.022890 0.188969 1.073661
v 0.025540 0.188582 1.084183
v 0.030102 0.187288 1.086614
v 0.042145 0.192195 1.082060
v 0.039833 0.186807 1.081612
v 0.039584 0.188363 1.083827
v 0.041246 0.192882 1.085147
v 0.042192 0.197241 1.087788
v 0.043574 0.197098 1.084494
v 0.035562 0.186427 1.085154
v 0.037310 0.192476 1.087503
v 0.033323 0.193431 1.088670
v 0.035278 0.197955 1.091151
v 0.038948 0.197157 1.090382
v 0.032509 0.189084 1.087247
v 0.034734 0.184381 1.084480
v 0.042893 0.200730 1.087319
v 0.042253 0.199588 1.089514
v 0.039484 0.200024 1.091351
v 0.039745 0.203017 1.090603
v 0.039485 0.186273 1.075557
v 0.042160 0.193242 1.079618
v 0.042134 0.198775 1.082145
v 0.041560 0.202199 1.085239
v 0.039786 0.196179 1.077858
v 0.039836 0.200098 1.080794
v 0.038881 0.203084 1.083413
v 0.036251 0.198595 1.077399
v 0.036933 0.201453 1.080473
v 0.033089 0.189163 1.070911
v 0.036654 0.186845 1.071506
v 0.037152 0.203507 1.082153
v 0.038528 0.204335 1.089206
v 0.029696 0.193374 1.087799
v 0.032617 0.199409 1.089936
v 0.028020 0.194582 1.086532
v 0.030685 0.200516 1.088970
v 0.035033 0.202563 1.091889
v 0.036574 0.200446 1.091884
v 0.031370 0.186534 1.068624
v 0.025921 0.188569 1.070339
v 0.027267 0.190887 1.072445
v 0.031671 0.199808 1.078436
v 0.024315 0.191636 1.075748
v 0.024456 0.191381 1.081834
v 0.027424 0.196988 1.084830
v 0.027999 0.198875 1.081957
v 0.030035 0.201383 1.086567
v 0.030784 0.201940 1.084143
v 0.033532 0.202543 1.081471
v 0.033013 0.204098 1.087326
v 0.033836 0.203542 1.090184
v 0.036641 0.204655 1.086329
v 0.032593 0.203827 1.085370
v 0.035343 0.203832 1.084084
v 0.005304 0.182612 1.069896
v 0.000157 0.186324 1.070770
v -0.001009 0.183283 1.067645
v 0.003401 0.180169 1.066965
v 0.003915 0.171091 1.078036
v 0.007191 0.174901 1.074053
v 0.005150 0.170913 1.070879
v 0.000347 0.167272 1.074684
v -0.002898 0.171297 1.080730
v -0.006464 0.168111 1.076651
v -0.002051 0.164814 1.069529
v 0.002975 0.168682 1.066022
v -0.002953 0.167687 1.046186
v -0.008167 0.163874 1.047791
v -0.011944 0.182623 1.049507
v -0.015117 0.181908 1.051399
v 0.007058 0.179232 1.071206
v 0.005317 0.175786 1.068227
v -0.010635 0.184065 1.067906
v -0.005660 0.185011 1.065532
v -0.005273 0.185467 1.068999
v -0.009740 0.184187 1.072049
v -0.001911 0.175835 1.045532
v -0.007190 0.179022 1.047339
v -0.001279 0.172129 1.045548
v -0.014231 0.179285 1.071017
v -0.014524 0.172621 1.072925
v -0.020414 0.170071 1.053633
v -0.020328 0.176178 1.054600
v 0.004537 0.173545 1.064104
v -0.000309 0.182877 1.064288
v 0.003445 0.179111 1.063304
v -0.009246 0.166553 1.071126
v -0.011592 0.174455 1.078145
v -0.003374 0.189268 1.087809
v -0.009419 0.182986 1.079765
v -0.007784 0.186593 1.076293
v -0.002676 0.193491 1.085206
v -0.012071 0.180462 1.075657
v -0.008075 0.177442 1.081690
v 0.009902 0.193337 1.079691
v 0.004545 0.196677 1.080395
v 0.012479 0.189757 1.080955
v -0.015022 0.164875 1.050044
v 0.009515 0.181054 1.085897
v 0.012668 0.185757 1.082505
v -0.004516 0.188062 1.072594
v 0.000129 0.196637 1.082731
v -0.001768 0.185220 1.089193
v 0.003175 0.180074 1.088175
v 0.001644 0.188745 1.092463
v 0.006164 0.184664 1.091772
v 0.012077 0.185133 1.089410
v 0.014317 0.188819 1.085723
v 0.013552 0.192161 1.083506
v 0.000084 0.192494 1.091616
v 0.000119 0.196571 1.089204
v 0.002096 0.198338 1.085022
v 0.003778 0.198648 1.094745
v 0.006383 0.195667 1.097058
v 0.023458 0.201046 1.096920
v 0.020440 0.196383 1.094712
v 0.019132 0.196459 1.096993
v 0.021736 0.200795 1.099169
v 0.016761 0.191429 1.094359
v 0.016289 0.193057 1.096192
v 0.011860 0.193491 1.097411
v 0.015082 0.198379 1.098853
v 0.010708 0.200455 1.099110
v 0.013503 0.204566 1.101988
v 0.017922 0.202473 1.102125
v 0.009458 0.196381 1.098263
v 0.022549 0.203860 1.100929
v 0.023793 0.205885 1.099859
v 0.010629 0.191014 1.096603
v 0.016618 0.190824 1.088346
v 0.021188 0.197790 1.092029
v 0.023682 0.203399 1.094599
v 0.023031 0.208428 1.098273
v 0.020217 0.201120 1.089665
v 0.022347 0.205913 1.093014
v 0.021409 0.209638 1.096396
v 0.017530 0.204724 1.088205
v 0.019488 0.208894 1.092051
v 0.011960 0.196682 1.082898
v 0.015371 0.193584 1.084509
v 0.019935 0.210056 1.094504
v 0.020672 0.207880 1.103048
v 0.020403 0.210487 1.100843
v 0.020054 0.206113 1.103123
v 0.009084 0.201774 1.098622
v 0.012606 0.206495 1.101091
v 0.007794 0.203911 1.097260
v 0.012216 0.208683 1.100058
v 0.016047 0.209061 1.103033
v 0.016715 0.207513 1.103535
v 0.010335 0.194942 1.082291
v 0.005497 0.197779 1.082808
v 0.007065 0.199408 1.083420
v 0.012942 0.207114 1.089100
v 0.003500 0.200353 1.086349
v 0.003015 0.200511 1.091561
v 0.007345 0.205609 1.094976
v 0.009218 0.207420 1.091939
v 0.011424 0.210172 1.098593
v 0.011833 0.210260 1.095305
v 0.015754 0.210458 1.092499
v 0.015364 0.212118 1.100314
v 0.015847 0.210628 1.102160
v 0.019527 0.211268 1.098885
v 0.014725 0.212040 1.097324
v 0.018088 0.211499 1.095951
v -0.009816 0.193669 1.074201
v -0.014382 0.197212 1.074365
v -0.015600 0.195489 1.071547
v -0.011382 0.191678 1.071405
v -0.012571 0.183019 1.081222
v -0.009006 0.185761 1.078908
v -0.010760 0.183047 1.075461
v -0.014887 0.179569 1.076814
v -0.017161 0.184328 1.084456
v -0.020851 0.179969 1.078861
v -0.017182 0.177150 1.072200
v -0.012425 0.181037 1.071637
v -0.017416 0.179757 1.057649
v -0.022921 0.176476 1.059122
v -0.008503 0.189695 1.076229
v -0.009967 0.187576 1.073251
v -0.024019 0.196401 1.072808
v -0.019455 0.197183 1.070963
v -0.020424 0.196968 1.073609
v -0.023938 0.195636 1.075954
v -0.016010 0.189535 1.054551
v -0.020625 0.193427 1.055202
v -0.015134 0.184975 1.056258
v -0.027795 0.191314 1.075056
v -0.028413 0.183979 1.075553
v -0.033215 0.186332 1.061970
v -0.031710 0.192278 1.061095
v -0.010791 0.185806 1.070293
v -0.014767 0.195380 1.068899
v -0.011117 0.191145 1.068835
v -0.023404 0.178635 1.073535
v -0.025599 0.185245 1.080406
v -0.016675 0.200403 1.094487
v -0.024588 0.192819 1.082449
v -0.022566 0.197254 1.078901
v -0.016305 0.204217 1.092103
v -0.026476 0.191509 1.079292
v -0.022793 0.187704 1.084579
v -0.004330 0.203047 1.085671
v -0.009132 0.205735 1.085992
v -0.003241 0.198690 1.086331
v -0.029694 0.178632 1.060695
v -0.027289 0.196191 1.058566
v -0.005200 0.193194 1.091293
v -0.003252 0.195782 1.088254
v -0.019308 0.198350 1.076248
v -0.013910 0.206377 1.088833
v -0.015102 0.195863 1.095146
v -0.010505 0.192067 1.093793
v -0.012692 0.199489 1.098330
v -0.008139 0.195652 1.096840
v -0.002870 0.196040 1.094491
v -0.001120 0.198506 1.091231
v -0.001217 0.201367 1.089130
v -0.013984 0.204052 1.097570
v -0.013462 0.207241 1.095268
v -0.012082 0.207424 1.090288
v -0.011747 0.207536 1.099898
v -0.008815 0.204016 1.102800
v 0.007022 0.209513 1.104698
v 0.004097 0.205721 1.101402
v 0.003271 0.205662 1.102353
v 0.006114 0.209169 1.106143
v 0.000141 0.200697 1.099407
v 0.000136 0.201934 1.100969
v -0.003440 0.202024 1.102414
v -0.000440 0.206448 1.106025
v -0.005515 0.209624 1.105607
v -0.002227 0.212625 1.108543
v 0.002535 0.209806 1.109369
v -0.006838 0.204716 1.103466
v 0.006778 0.211483 1.108353
v 0.008707 0.211793 1.107920
v -0.004709 0.200257 1.101272
v 0.001762 0.201374 1.094876
v 0.005373 0.206749 1.098941
v 0.008531 0.210775 1.102058
v 0.008761 0.214108 1.105011
v 0.004684 0.209476 1.096322
v 0.007209 0.212831 1.099940
v 0.007475 0.215763 1.102698
v 0.002819 0.211944 1.095039
v 0.004919 0.214801 1.098657
v -0.002130 0.205672 1.089078
v 0.000672 0.203313 1.091328
v 0.005732 0.216478 1.101324
v 0.005419 0.214104 1.110604
v 0.005239 0.217412 1.107908
v 0.004461 0.212718 1.110070
v -0.007078 0.210394 1.104893
v -0.003310 0.214783 1.108483
v -0.008039 0.212339 1.103018
v -0.004118 0.216667 1.106573
v 0.000457 0.215756 1.110538
v 0.000689 0.214539 1.110396
v -0.003741 0.204235 1.087527
v -0.008111 0.206717 1.087771
v -0.006270 0.208128 1.089119
v -0.000817 0.214812 1.095486
v -0.010242 0.209221 1.091482
v -0.011013 0.210258 1.097462
v -0.007119 0.214204 1.100487
v -0.004650 0.215544 1.097947
v -0.003627 0.217791 1.104009
v -0.002446 0.217516 1.101383
v 0.001731 0.217342 1.098867
v 0.000148 0.218595 1.105733
v 0.000024 0.217827 1.108658
v 0.004613 0.218395 1.104892
v 0.000333 0.218683 1.103172
v 0.003679 0.218416 1.102448
v -0.024210 0.195918 1.056704
v -0.019312 0.211162 1.073430
v -0.022368 0.214231 1.073634
v -0.023272 0.213599 1.072957
v -0.020278 0.210555 1.071587
v -0.022901 0.201257 1.078056
v -0.019366 0.203870 1.076222
v -0.021064 0.201555 1.073199
v -0.024494 0.199176 1.074924
v -0.027723 0.202101 1.079783
v -0.029228 0.200881 1.076926
v -0.026644 0.198716 1.071160
v -0.022967 0.200919 1.069235
v -0.031940 0.199670 1.054914
v -0.037303 0.198461 1.055163
v -0.040994 0.217665 1.056384
v -0.035706 0.218138 1.053643
v -0.034208 0.217605 1.061747
v -0.038800 0.216607 1.062893
v -0.018452 0.207441 1.074499
v -0.019385 0.205963 1.071479
v -0.032594 0.214827 1.075413
v -0.028244 0.215782 1.073201
v -0.026871 0.215605 1.074046
v -0.030934 0.215701 1.076414
v -0.031307 0.214845 1.053312
v -0.029583 0.209555 1.053565
v -0.028430 0.210945 1.056978
v -0.029938 0.215232 1.060658
v -0.028304 0.205447 1.056586
v -0.034958 0.211167 1.076564
v -0.035068 0.205041 1.076310
v -0.045220 0.208388 1.061288
v -0.043125 0.213118 1.062027
v -0.020746 0.204976 1.069478
v -0.024342 0.213803 1.071059
v -0.021444 0.210454 1.070505
v -0.031530 0.199984 1.073830
v -0.032883 0.206107 1.078544
v -0.028399 0.216367 1.085837
v -0.032552 0.213147 1.079834
v -0.030098 0.216646 1.077256
v -0.027423 0.218755 1.083749
v -0.033042 0.212165 1.078381
v -0.031459 0.207586 1.081322
v -0.016581 0.215072 1.078122
v -0.020980 0.218325 1.078839
v -0.015314 0.211940 1.079063
v -0.042616 0.201456 1.057230
v -0.018142 0.206567 1.083793
v -0.015370 0.209197 1.081323
v -0.025907 0.216265 1.075072
v -0.024819 0.219655 1.081002
v -0.027280 0.211871 1.087356
v -0.023540 0.206740 1.086152
v -0.023922 0.214500 1.090024
v -0.020372 0.209317 1.088458
v -0.015285 0.209459 1.084928
v -0.014279 0.211439 1.081601
v -0.014684 0.213874 1.079434
v -0.025543 0.218802 1.088176
v -0.025238 0.220683 1.085786
v -0.023581 0.220834 1.082262
v -0.022571 0.221151 1.090060
v -0.019055 0.218291 1.091908
v -0.006996 0.222535 1.087401
v -0.009161 0.219037 1.086140
v -0.009585 0.219006 1.087318
v -0.006911 0.222124 1.088457
v -0.012233 0.214342 1.086305
v -0.012136 0.215594 1.087616
v -0.015151 0.215201 1.089713
v -0.011857 0.219435 1.091023
v -0.015697 0.222824 1.092872
v -0.012610 0.225738 1.093757
v -0.009451 0.222332 1.092370
v -0.017096 0.218406 1.092034
v -0.005690 0.224042 1.090242
v -0.004833 0.225067 1.089709
v -0.016295 0.213301 1.089665
v -0.012196 0.214824 1.082150
v -0.008475 0.220371 1.083986
v -0.005910 0.224400 1.086162
v -0.005224 0.227267 1.088808
v -0.009800 0.221438 1.081999
v -0.006711 0.225966 1.084561
v -0.006258 0.228677 1.087186
v -0.012221 0.223529 1.080801
v -0.008904 0.227244 1.083775
v -0.016274 0.218996 1.078659
v -0.013544 0.216806 1.079707
v -0.007809 0.228897 1.086281
v -0.006567 0.226703 1.092932
v -0.007006 0.229091 1.091055
v -0.007313 0.225284 1.093437
v -0.016883 0.223707 1.092762
v -0.013238 0.227357 1.093722
v -0.018388 0.225375 1.091582
v -0.013836 0.228988 1.092323
v -0.009733 0.228364 1.093915
v -0.009850 0.226404 1.094095
v -0.016661 0.217315 1.078551
v -0.020050 0.219381 1.079545
v -0.019763 0.221298 1.080190
v -0.015624 0.225746 1.082002
v -0.022802 0.222567 1.083425
v -0.023544 0.222432 1.087284
v -0.018864 0.226680 1.089139
v -0.018156 0.227223 1.085750
v -0.013749 0.230008 1.090321
v -0.013543 0.230086 1.087218
v -0.011684 0.229108 1.084527
v -0.009880 0.230523 1.090323
v -0.009623 0.230044 1.092184
v -0.007837 0.230003 1.089298
v -0.010321 0.230612 1.088378
v -0.009161 0.230029 1.087298
v -0.043384 0.214603 1.057727
v 0.055136 0.190895 1.021670
v 0.050513 0.191736 1.025087
v 0.053321 0.206291 1.032281
v 0.049406 0.200389 1.032436
v 0.059222 0.208790 1.029806
v 0.065480 0.204601 1.021893
v 0.062766 0.208253 1.025203
v 0.048379 0.195118 1.029693
v 0.060086 0.192940 1.018779
v 0.064641 0.198594 1.018339
v 0.063960 0.187686 1.024894
v 0.069184 0.194052 1.024765
v 0.070635 0.200122 1.028076
v 0.066216 0.205235 1.031072
v 0.062277 0.206868 1.033993
v 0.056754 0.187932 1.027239
v 0.052194 0.189685 1.030197
v 0.049927 0.194870 1.033887
v 0.056800 0.185503 1.034924
v 0.063859 0.184863 1.041921
v 0.072674 0.195468 1.055903
v 0.071327 0.197790 1.049527
v 0.071619 0.194934 1.049325
v 0.073338 0.193055 1.054997
v 0.071277 0.196717 1.043856
v 0.070732 0.194669 1.045043
v 0.068622 0.190224 1.042868
v 0.069994 0.188739 1.048304
v 0.065248 0.186385 1.043903
v 0.064900 0.185142 1.047978
v 0.071256 0.187061 1.053560
v 0.074135 0.190127 1.057673
v 0.072136 0.185893 1.058093
v 0.072850 0.191918 1.060005
v 0.070604 0.188968 1.040778
v 0.069178 0.202324 1.040168
v 0.069412 0.200925 1.049047
v 0.069925 0.197957 1.056590
v 0.070098 0.193408 1.061017
v 0.065354 0.202675 1.049543
v 0.065630 0.198915 1.056065
v 0.065340 0.194330 1.059774
v 0.060522 0.201693 1.049766
v 0.061872 0.197640 1.055377
v 0.057330 0.204782 1.038446
v 0.063736 0.205845 1.038806
v 0.063001 0.194489 1.058098
v 0.071094 0.185947 1.060782
v 0.067934 0.187556 1.061765
v 0.061789 0.183859 1.047138
v 0.066342 0.183088 1.052767
v 0.063318 0.182830 1.053160
v 0.057889 0.184476 1.046132
v 0.060528 0.183557 1.053585
v 0.066560 0.182773 1.057911
v 0.068803 0.183219 1.056153
v 0.056212 0.205722 1.035450
v 0.051564 0.200995 1.035021
v 0.052551 0.200024 1.037619
v 0.055534 0.197305 1.048486
v 0.050527 0.194044 1.037434
v 0.052711 0.188349 1.036112
v 0.054873 0.186755 1.046672
v 0.053592 0.191432 1.047364
v 0.058321 0.186457 1.053984
v 0.057710 0.189506 1.054023
v 0.058956 0.194221 1.055076
v 0.061521 0.186988 1.058189
v 0.063635 0.184076 1.058518
v 0.064059 0.189858 1.060404
v 0.060283 0.189211 1.056965
v 0.061744 0.191702 1.058190
v -0.035997 0.220070 1.049453
v -0.030232 0.216310 1.048986
v -0.030516 0.220794 1.045728
v -0.028121 0.227638 1.041072
v -0.031851 0.235742 1.035663
v -0.022938 0.223272 1.038754
v -0.025663 0.216320 1.044029
v -0.025692 0.209358 1.048825
v -0.016931 0.224529 1.030644
f 2 3 1
f 1 3 4
f 5 6 8
f 8 6 7
f 9 4 10
f 10 4 3
f 12 13 11
f 11 13 9
f 14 12 16
f 16 12 15
f 18 19 17
f 17 19 20
f 22 23 21
f 21 23 24
f 26 27 25
f 25 27 28
f 30 31 29
f 29 31 32
f 33 34 36
f 36 34 35
f 37 38 40
f 40 38 39
f 41 42 6
f 6 42 43
f 6 43 7
f 7 43 44
f 45 34 46
f 46 34 33
f 48 49 47
f 47 49 50
f 52 53 51
f 51 53 54
f 56 52 55
f 55 52 51
f 58 59 57
f 57 59 60
f 61 62 4
f 4 62 1
f 64 65 63
f 63 65 66
f 68 69 67
f 67 69 70
f 72 73 71
f 71 73 74
f 76 77 75
f 75 77 78
f 53 79 54
f 54 79 80
f 82 83 81
f 81 83 84
f 85 86 52
f 52 86 53
f 57 60 87
f 87 60 88
f 89 90 43
f 43 90 44
f 43 42 89
f 89 42 91
f 40 39 92
f 92 39 93
f 94 70 64
f 64 70 69
f 13 61 9
f 9 61 4
f 25 28 69
f 69 28 95
f 96 25 68
f 68 25 69
f 98 99 97
f 97 99 100
f 101 102 104
f 104 102 103
f 106 30 105
f 105 30 29
f 51 54 107
f 107 54 108
f 54 80 108
f 108 80 109
f 111 112 110
f 110 112 113
f 115 5 114
f 114 5 116
f 115 41 5
f 5 41 6
f 36 35 111
f 111 35 117
f 35 118 117
f 117 118 119
f 34 120 35
f 35 120 118
f 34 45 120
f 120 45 121
f 125 126 124
f 124 126 127
f 128 129 14
f 14 129 130
f 33 131 46
f 46 131 132
f 133 94 63
f 63 94 64
f 134 135 137
f 137 135 136
f 139 140 138
f 138 140 141
f 77 142 78
f 78 142 143
f 144 145 20
f 20 145 146
f 148 149 147
f 147 149 72
f 151 152 150
f 150 152 153
f 82 101 83
f 83 101 104
f 101 82 155
f 155 82 154
f 156 157 58
f 58 157 59
f 158 68 147
f 147 68 67
f 159 146 15
f 15 146 16
f 68 158 96
f 96 158 160
f 129 66 130
f 130 66 65
f 162 163 161
f 161 163 164
f 166 167 165
f 165 167 168
f 170 171 169
f 169 171 172
f 174 171 173
f 173 171 170
f 176 177 175
f 175 177 178
f 180 181 179
f 179 181 24
f 182 183 21
f 21 183 184
f 81 185 82
f 82 185 154
f 186 187 188
f 188 187 144
f 158 71 160
f 160 71 189
f 190 135 157
f 157 135 59
f 169 172 139
f 139 172 140
f 147 72 158
f 158 72 71
f 192 193 191
f 191 193 194
f 167 166 49
f 49 166 195
f 196 190 50
f 50 190 157
f 197 198 200
f 200 198 199
f 21 24 182
f 182 24 181
f 146 159 20
f 20 159 17
f 182 181 81
f 81 181 185
f 201 185 180
f 180 185 181
f 202 203 83
f 83 203 84
f 205 206 204
f 204 206 85
f 207 22 184
f 184 22 21
f 179 24 208
f 208 24 23
f 208 209 179
f 179 209 205
f 209 210 205
f 205 210 206
f 212 206 211
f 211 206 210
f 179 205 180
f 180 205 204
f 213 176 88
f 88 176 214
f 86 85 212
f 212 85 206
f 193 217 218
f 217 219 218
f 218 219 220
f 219 18 220
f 220 18 17
f 19 221 20
f 20 221 144
f 222 223 225
f 225 223 224
f 175 226 176
f 176 226 214
f 227 87 214
f 214 87 88
f 220 17 228
f 228 17 159
f 134 213 60
f 60 213 88
f 138 229 151
f 151 229 152
f 193 192 210
f 210 192 211
f 230 194 218
f 218 194 193
f 231 232 228
f 228 232 230
f 233 234 91
f 91 234 89
f 235 236 93
f 93 236 92
f 230 232 234
f 234 232 237
f 47 238 48
f 48 238 239
f 240 191 235
f 235 191 236
f 5 8 116
f 116 8 241
f 242 243 189
f 189 243 160
f 244 245 98
f 98 245 99
f 156 246 47
f 47 246 238
f 76 247 77
f 77 247 248
f 250 125 249
f 249 125 124
f 252 253 251
f 251 253 254
f 111 110 36
f 36 110 255
f 256 33 255
f 255 33 36
f 257 258 154
f 154 258 155
f 63 169 133
f 133 169 139
f 66 170 63
f 63 170 169
f 173 170 129
f 129 170 66
f 129 128 173
f 173 128 259
f 128 260 259
f 259 260 261
f 213 134 262
f 262 134 137
f 263 264 186
f 186 264 187
f 112 265 113
f 113 265 266
f 11 267 268
f 234 233 230
f 230 233 194
f 153 269 70
f 70 269 67
f 175 178 165
f 165 178 141
f 150 153 94
f 94 153 70
f 271 221 270
f 270 221 207
f 269 153 272
f 272 153 152
f 121 45 109
f 109 45 108
f 47 50 156
f 156 50 157
f 57 273 58
f 58 273 274
f 145 275 260
f 260 275 261
f 276 149 143
f 143 149 78
f 148 269 75
f 75 269 272
f 207 277 270
f 270 277 278
f 195 196 49
f 49 196 50
f 59 135 60
f 60 135 134
f 83 104 202
f 202 104 279
f 149 148 78
f 78 148 75
f 247 278 248
f 248 278 277
f 183 182 84
f 84 182 81
f 48 239 281
f 281 239 282
f 227 223 283
f 283 223 222
f 223 226 224
f 224 226 168
f 281 282 224
f 224 282 225
f 165 168 175
f 175 168 226
f 264 263 138
f 138 263 229
f 14 16 128
f 128 16 260
f 220 228 218
f 218 228 230
f 87 227 284
f 284 227 283
f 260 16 145
f 145 16 146
f 244 98 258
f 258 98 155
f 58 274 156
f 156 274 246
f 107 285 51
f 51 285 55
f 243 286 160
f 160 286 96
f 234 237 89
f 89 237 90
f 46 132 107
f 107 132 285
f 253 252 249
f 249 252 250
f 286 26 96
f 96 26 25
f 106 105 287
f 287 105 288
f 272 152 289
f 289 152 229
f 138 151 139
f 139 151 133
f 183 290 161
f 161 290 162
f 291 292 277
f 277 292 293
f 151 150 133
f 133 150 94
f 262 275 177
f 177 275 187
f 144 187 145
f 145 187 275
f 273 57 284
f 284 57 87
f 174 136 190
f 190 136 135
f 111 117 112
f 112 117 38
f 117 119 38
f 38 119 123
f 112 38 265
f 265 38 37
f 287 288 254
f 254 288 251
f 228 159 231
f 231 159 15
f 223 227 226
f 226 227 214
f 147 67 148
f 148 67 269
f 224 168 281
f 281 168 167
f 199 163 200
f 200 163 162
f 45 46 108
f 108 46 107
f 281 167 48
f 48 167 49
f 161 164 291
f 291 164 292
f 38 123 39
f 293 294 277
f 277 294 248
f 284 283 296
f 296 283 295
f 284 296 273
f 273 296 297
f 274 273 298
f 298 273 297
f 246 274 299
f 299 274 298
f 283 222 295
f 295 222 300
f 222 225 300
f 300 225 301
f 301 225 302
f 302 225 282
f 303 304 300
f 300 304 295
f 306 307 305
f 305 307 308
f 309 310 308
f 308 310 305
f 308 307 312
f 312 307 311
f 313 314 312
f 312 314 315
f 311 316 312
f 312 316 313
f 317 304 311
f 311 304 316
f 315 309 312
f 312 309 308
f 318 319 321
f 321 319 320
f 319 318 309
f 309 318 310
f 311 307 317
f 317 307 306
f 306 297 317
f 317 297 296
f 306 322 297
f 297 322 298
f 305 323 306
f 306 323 322
f 323 305 324
f 324 305 310
f 304 317 295
f 295 317 296
f 318 325 310
f 310 325 324
f 323 324 326
f 326 324 327
f 324 325 327
f 327 325 328
f 326 327 329
f 329 327 330
f 329 331 326
f 326 331 332
f 333 330 328
f 328 330 327
f 323 326 322
f 322 326 332
f 322 332 298
f 298 332 299
f 325 318 334
f 334 318 321
f 313 316 335
f 335 316 304
f 335 336 313
f 313 336 314
f 304 303 335
f 335 303 337
f 336 335 338
f 338 335 337
f 336 339 314
f 314 339 340
f 246 299 238
f 238 299 341
f 239 342 282
f 282 342 302
f 342 239 341
f 341 239 238
f 341 331 342
f 342 331 343
f 331 329 343
f 343 329 344
f 342 343 302
f 302 343 345
f 341 299 331
f 331 299 332
f 346 301 345
f 345 301 302
f 346 303 301
f 301 303 300
f 347 337 346
f 346 337 303
f 347 346 348
f 348 346 345
f 349 347 350
f 350 347 348
f 343 344 345
f 345 344 348
f 344 351 348
f 348 351 350
f 337 347 338
f 338 347 349
f 353 338 352
f 352 338 349
f 352 355 354
f 354 355 356
f 352 349 355
f 355 349 350
f 352 354 353
f 353 354 334
f 353 334 339
f 339 334 321
f 339 336 353
f 353 336 338
f 329 330 344
f 344 330 351
f 356 351 333
f 333 351 330
f 356 355 351
f 351 355 350
f 354 356 328
f 328 356 333
f 328 325 354
f 354 325 334
f 309 315 319
f 319 315 320
f 320 340 321
f 321 340 339
f 320 315 340
f 340 315 314
f 137 136 261
f 261 136 259
f 140 166 141
f 141 166 165
f 172 171 195
f 195 171 196
f 171 174 196
f 196 174 190
f 178 177 264
f 264 177 187
f 172 195 140
f 140 195 166
f 137 261 262
f 262 261 275
f 178 264 141
f 141 264 138
f 262 177 213
f 213 177 176
f 136 174 259
f 259 174 173
f 358 359 357
f 357 359 360
f 362 363 361
f 361 363 364
f 361 364 365
f 365 364 366
f 367 368 370
f 370 368 369
f 76 371 247
f 247 371 372
f 373 374 362
f 362 374 363
f 376 377 375
f 375 377 378
f 289 229 380
f 380 229 379
f 381 379 263
f 263 379 229
f 383 384 382
f 382 384 385
f 386 368 374
f 374 368 363
f 76 289 371
f 371 289 380
f 377 376 359
f 359 376 387
f 388 386 360
f 360 386 374
f 389 383 366
f 366 383 390
f 392 393 391
f 391 393 394
f 383 382 390
f 390 382 395
f 396 365 390
f 390 365 366
f 389 366 367
f 367 366 364
f 357 397 358
f 358 397 398
f 373 399 357
f 357 399 397
f 389 367 400
f 400 367 370
f 382 385 375
f 375 385 372
f 357 360 373
f 373 360 374
f 361 401 362
f 362 401 402
f 387 388 359
f 359 388 360
f 363 368 364
f 364 368 367
f 358 398 403
f 403 398 404
f 396 392 405
f 405 392 391
f 392 395 393
f 393 395 378
f 393 403 394
f 394 403 404
f 375 378 382
f 382 378 395
f 365 396 406
f 406 396 405
f 362 402 373
f 373 402 399
f 271 270 400
f 400 270 384
f 401 361 406
f 406 361 365
f 381 369 386
f 386 369 368
f 392 396 395
f 395 396 390
f 393 378 403
f 403 378 377
f 403 377 358
f 358 377 359
f 406 405 408
f 408 405 407
f 406 408 401
f 401 408 409
f 401 409 402
f 402 409 410
f 402 410 399
f 399 410 411
f 405 391 407
f 407 391 412
f 391 394 412
f 412 394 413
f 394 404 413
f 413 404 414
f 415 416 412
f 412 416 407
f 418 419 417
f 417 419 420
f 421 422 418
f 418 422 419
f 419 422 424
f 424 422 423
f 425 426 424
f 424 426 427
f 423 428 424
f 424 428 425
f 427 420 424
f 424 420 419
f 420 429 417
f 417 429 430
f 423 422 431
f 431 422 421
f 421 409 431
f 431 409 408
f 421 432 409
f 409 432 410
f 418 433 421
f 421 433 432
f 434 433 417
f 417 433 418
f 431 416 423
f 423 416 428
f 416 431 407
f 407 431 408
f 435 434 430
f 430 434 417
f 433 434 436
f 436 434 437
f 434 435 437
f 437 435 438
f 436 437 439
f 439 437 440
f 439 441 436
f 436 441 442
f 438 443 437
f 437 443 440
f 436 442 433
f 433 442 432
f 432 442 410
f 410 442 411
f 435 430 445
f 445 430 444
f 430 429 444
f 444 429 446
f 425 428 447
f 447 428 416
f 426 425 448
f 448 425 447
f 416 415 447
f 447 415 449
f 447 449 448
f 448 449 450
f 451 452 448
f 448 452 426
f 446 452 444
f 444 452 451
f 399 411 397
f 397 411 453
f 398 454 404
f 404 454 414
f 454 398 453
f 453 398 397
f 453 441 454
f 454 441 455
f 441 439 455
f 455 439 456
f 454 455 414
f 414 455 457
f 441 453 442
f 442 453 411
f 458 413 457
f 457 413 414
f 458 415 413
f 413 415 412
f 458 459 415
f 415 459 449
f 459 458 460
f 460 458 457
f 461 459 462
f 462 459 460
f 455 456 457
f 457 456 460
f 456 463 460
f 460 463 462
f 459 461 449
f 449 461 450
f 465 450 464
f 464 450 461
f 464 467 466
f 466 467 468
f 464 461 467
f 467 461 462
f 464 466 465
f 465 466 445
f 465 445 451
f 451 445 444
f 451 448 465
f 465 448 450
f 439 440 456
f 456 440 463
f 468 463 443
f 443 463 440
f 468 467 463
f 463 467 462
f 466 468 438
f 438 468 443
f 438 435 466
f 466 435 445
f 420 427 429
f 429 427 446
f 446 427 452
f 452 427 426
f 370 369 188
f 188 369 186
f 371 376 372
f 372 376 375
f 380 379 387
f 387 379 388
f 379 381 388
f 388 381 386
f 385 384 278
f 278 384 270
f 380 387 371
f 371 387 376
f 400 370 271
f 271 370 188
f 385 278 372
f 372 278 247
f 400 384 389
f 389 384 383
f 369 381 186
f 186 381 263
f 221 271 144
f 144 271 188
f 221 19 207
f 207 19 22
f 19 18 22
f 22 18 23
f 18 219 23
f 23 219 208
f 469 470 472
f 472 470 471
f 474 475 473
f 473 475 476
f 473 476 477
f 477 476 478
f 480 481 479
f 479 481 482
f 483 484 474
f 474 484 475
f 486 487 485
f 485 487 488
f 489 490 77
f 77 490 142
f 491 489 248
f 248 489 77
f 493 494 492
f 492 494 495
f 496 480 484
f 484 480 475
f 486 497 487
f 487 497 471
f 498 496 472
f 472 496 484
f 499 493 478
f 478 493 500
f 501 502 504
f 504 502 503
f 493 492 500
f 500 492 505
f 506 477 500
f 500 477 478
f 499 478 479
f 479 478 476
f 469 507 470
f 470 507 508
f 483 509 469
f 469 509 507
f 479 482 499
f 499 482 510
f 492 495 485
f 485 495 511
f 483 469 484
f 484 469 472
f 473 512 474
f 474 512 513
f 497 498 471
f 471 498 472
f 475 480 476
f 476 480 479
f 470 508 514
f 514 508 515
f 506 502 516
f 516 502 501
f 503 502 488
f 488 502 505
f 514 515 503
f 503 515 504
f 485 488 492
f 492 488 505
f 477 506 517
f 517 506 516
f 474 513 483
f 483 513 509
f 510 292 494
f 494 292 164
f 512 473 517
f 517 473 477
f 491 481 496
f 496 481 480
f 502 506 505
f 505 506 500
f 503 488 514
f 514 488 487
f 514 487 470
f 470 487 471
f 517 516 519
f 519 516 518
f 517 519 512
f 512 519 520
f 512 520 513
f 513 520 521
f 513 521 509
f 509 521 522
f 516 501 518
f 518 501 523
f 501 504 523
f 523 504 524
f 524 504 525
f 525 504 515
f 526 527 523
f 523 527 518
f 529 530 528
f 528 530 531
f 532 533 529
f 529 533 530
f 530 533 535
f 535 533 534
f 536 537 535
f 535 537 538
f 534 539 535
f 535 539 536
f 538 531 535
f 535 531 530
f 540 541 531
f 531 541 528
f 533 532 534
f 534 532 542
f 532 520 542
f 542 520 519
f 532 543 520
f 520 543 521
f 529 544 532
f 532 544 543
f 544 529 545
f 545 529 528
f 534 542 539
f 539 542 527
f 527 542 518
f 518 542 519
f 541 546 528
f 528 546 545
f 547 544 548
f 548 544 545
f 546 549 545
f 545 549 548
f 550 547 551
f 551 547 548
f 547 550 553
f 553 550 552
f 549 554 548
f 548 554 551
f 544 547 543
f 543 547 553
f 543 553 521
f 521 553 522
f 546 541 556
f 556 541 555
f 541 540 555
f 555 540 557
f 536 539 558
f 558 539 527
f 537 536 559
f 559 536 558
f 527 526 558
f 558 526 560
f 559 558 561
f 561 558 560
f 559 562 537
f 537 562 563
f 557 563 555
f 555 563 562
f 509 522 507
f 507 522 564
f 508 565 515
f 515 565 525
f 565 508 564
f 564 508 507
f 564 552 565
f 565 552 566
f 552 550 566
f 566 550 567
f 565 566 525
f 525 566 568
f 564 522 552
f 552 522 553
f 569 524 568
f 568 524 525
f 569 526 524
f 524 526 523
f 570 560 569
f 569 560 526
f 570 569 571
f 571 569 568
f 572 570 573
f 573 570 571
f 566 567 568
f 568 567 571
f 567 574 571
f 571 574 573
f 570 572 560
f 560 572 561
f 576 561 575
f 575 561 572
f 575 578 577
f 577 578 579
f 575 572 578
f 578 572 573
f 575 577 576
f 576 577 556
f 576 556 562
f 562 556 555
f 562 559 576
f 576 559 561
f 550 551 567
f 567 551 574
f 579 574 554
f 554 574 551
f 579 578 574
f 574 578 573
f 579 554 577
f 577 554 549
f 549 546 577
f 577 546 556
f 531 538 540
f 540 538 557
f 557 538 563
f 563 538 537
f 481 294 482
f 482 294 293
f 580 486 511
f 511 486 485
f 490 489 497
f 497 489 498
f 489 491 498
f 498 491 496
f 163 495 164
f 164 495 494
f 580 490 486
f 486 490 497
f 482 293 510
f 510 293 292
f 495 163 511
f 511 163 199
f 494 493 510
f 510 493 499
f 481 491 294
f 294 491 248
f 582 583 581
f 581 583 584
f 586 587 585
f 585 587 588
f 585 588 589
f 589 588 590
f 592 593 591
f 591 593 594
f 595 596 598
f 598 596 597
f 599 600 586
f 586 600 587
f 601 602 604
f 604 602 603
f 605 606 608
f 608 606 607
f 609 607 200
f 200 607 606
f 610 611 613
f 613 611 612
f 600 614 587
f 587 614 592
f 596 605 597
f 597 605 608
f 602 615 603
f 603 615 583
f 616 614 584
f 584 614 600
f 611 618 617
f 617 618 590
f 620 621 619
f 619 621 622
f 610 623 611
f 611 623 618
f 624 589 618
f 618 589 590
f 617 590 591
f 591 590 588
f 581 625 582
f 582 625 626
f 599 627 581
f 581 627 625
f 591 594 617
f 617 594 628
f 601 610 598
f 598 610 613
f 581 584 599
f 599 584 600
f 585 629 586
f 586 629 630
f 615 616 583
f 583 616 584
f 587 592 588
f 588 592 591
f 582 626 631
f 631 626 632
f 624 620 633
f 633 620 619
f 621 620 604
f 604 620 623
f 631 632 621
f 621 632 622
f 610 601 623
f 623 601 604
f 589 624 634
f 634 624 633
f 586 630 599
f 599 630 627
f 203 202 628
f 628 202 612
f 629 585 634
f 634 585 589
f 609 593 614
f 614 593 592
f 620 624 623
f 623 624 618
f 631 621 603
f 603 621 604
f 582 631 583
f 583 631 603
f 634 633 636
f 636 633 635
f 634 636 629
f 629 636 637
f 629 637 630
f 630 637 638
f 630 638 627
f 627 638 639
f 633 619 635
f 635 619 640
f 619 622 640
f 640 622 641
f 641 622 642
f 642 622 632
f 644 635 643
f 643 635 640
f 645 646 648
f 648 646 647
f 649 650 646
f 646 650 647
f 647 650 652
f 652 650 651
f 652 653 655
f 655 653 654
f 651 656 652
f 652 656 653
f 655 648 652
f 652 648 647
f 648 657 645
f 645 657 658
f 650 649 651
f 651 649 659
f 649 637 659
f 659 637 636
f 649 660 637
f 637 660 638
f 661 660 646
f 646 660 649
f 662 661 645
f 645 661 646
f 651 659 656
f 656 659 644
f 644 659 635
f 635 659 636
f 663 662 658
f 658 662 645
f 664 661 665
f 665 661 662
f 663 666 662
f 662 666 665
f 667 664 668
f 668 664 665
f 664 667 670
f 670 667 669
f 666 671 665
f 665 671 668
f 661 664 660
f 660 664 670
f 660 670 638
f 638 670 639
f 658 672 663
f 663 672 673
f 658 657 672
f 672 657 674
f 653 656 675
f 675 656 644
f 653 675 654
f 654 675 676
f 675 644 677
f 677 644 643
f 676 675 678
f 678 675 677
f 679 680 676
f 676 680 654
f 674 680 672
f 672 680 679
f 627 639 625
f 625 639 681
f 626 682 632
f 632 682 642
f 681 682 625
f 625 682 626
f 669 683 681
f 681 683 682
f 667 684 669
f 669 684 683
f 682 683 642
f 642 683 685
f 681 639 669
f 669 639 670
f 686 641 685
f 685 641 642
f 641 686 640
f 640 686 643
f 686 687 643
f 643 687 677
f 687 686 688
f 688 686 685
f 689 687 690
f 690 687 688
f 683 684 685
f 685 684 688
f 684 691 688
f 688 691 690
f 687 689 677
f 677 689 678
f 693 678 692
f 692 678 689
f 692 695 694
f 694 695 696
f 692 689 695
f 695 689 690
f 692 694 693
f 693 694 673
f 693 673 679
f 679 673 672
f 679 676 693
f 693 676 678
f 684 667 691
f 691 667 668
f 696 691 671
f 671 691 668
f 696 695 691
f 691 695 690
f 694 696 666
f 666 696 671
f 666 663 694
f 694 663 673
f 648 655 657
f 657 655 674
f 674 655 680
f 680 655 654
f 593 162 594
f 594 162 290
f 598 597 601
f 601 597 602
f 615 608 616
f 616 608 607
f 607 609 616
f 616 609 614
f 697 595 613
f 613 595 598
f 597 608 602
f 602 608 615
f 594 290 628
f 628 290 203
f 628 612 617
f 617 612 611
f 593 609 162
f 162 609 200
f 105 29 698
f 698 29 699
f 268 126 701
f 701 126 700
f 126 125 700
f 700 125 702
f 252 703 250
f 250 703 704
f 32 268 705
f 705 268 701
f 288 105 706
f 706 105 698
f 29 32 699
f 699 32 705
f 707 251 706
f 706 251 288
f 250 704 125
f 125 704 702
f 703 252 707
f 707 252 251
f 706 708 707
f 707 708 709
f 707 709 703
f 703 709 710
f 703 710 704
f 704 710 711
f 704 711 702
f 702 711 712
f 706 698 708
f 708 698 713
f 698 699 713
f 713 699 714
f 699 705 714
f 714 705 715
f 717 708 716
f 716 708 713
f 719 720 718
f 718 720 721
f 722 723 719
f 719 723 720
f 724 725 723
f 723 725 720
f 724 726 725
f 725 726 727
f 728 721 725
f 725 721 720
f 721 728 729
f 729 728 730
f 729 731 721
f 721 731 718
f 724 723 732
f 732 723 722
f 722 710 732
f 732 710 709
f 722 733 710
f 710 733 711
f 719 734 722
f 722 734 733
f 734 719 735
f 735 719 718
f 724 732 726
f 726 732 717
f 717 732 708
f 708 732 709
f 731 736 718
f 718 736 735
f 737 734 738
f 738 734 735
f 736 739 735
f 735 739 738
f 740 737 741
f 741 737 738
f 737 740 743
f 743 740 742
f 739 744 738
f 738 744 741
f 734 737 733
f 733 737 743
f 733 743 711
f 711 743 712
f 736 731 746
f 746 731 745
f 731 729 745
f 745 729 730
f 727 726 747
f 747 726 717
f 748 727 749
f 749 727 747
f 747 717 750
f 750 717 716
f 749 747 751
f 751 747 750
f 749 752 748
f 748 752 753
f 730 753 745
f 745 753 752
f 728 725 748
f 748 725 727
f 730 728 753
f 753 728 748
f 700 702 754
f 754 702 712
f 705 701 715
f 715 701 755
f 754 755 700
f 700 755 701
f 742 756 754
f 754 756 755
f 740 757 742
f 742 757 756
f 755 756 715
f 715 756 758
f 754 712 742
f 742 712 743
f 759 714 758
f 758 714 715
f 714 759 713
f 713 759 716
f 759 760 716
f 716 760 750
f 760 759 761
f 761 759 758
f 762 760 763
f 763 760 761
f 756 757 758
f 758 757 761
f 757 764 761
f 761 764 763
f 760 762 750
f 750 762 751
f 766 751 765
f 765 751 762
f 767 765 769
f 769 765 768
f 765 762 768
f 768 762 763
f 765 767 766
f 766 767 746
f 766 746 752
f 752 746 745
f 752 749 766
f 766 749 751
f 757 740 764
f 764 740 741
f 769 764 744
f 744 764 741
f 769 768 764
f 764 768 763
f 767 769 739
f 739 769 744
f 739 736 767
f 767 736 746
f 219 217 208
f 208 217 209
f 209 217 210
f 210 217 193
f 198 580 199
f 199 580 511
f 76 75 289
f 289 75 272
f 277 207 291
f 291 207 184
f 290 183 203
f 203 183 84
f 490 580 142
f 142 580 198
f 142 198 143
f 143 198 197
f 149 276 72
f 72 276 73
f 104 103 279
f 279 103 770
f 770 596 279
f 279 596 595
f 605 596 771
f 771 596 770
f 771 770 772
f 772 770 103
f 772 103 773
f 773 103 102
f 155 774 101
f 101 774 102
f 773 102 97
f 97 102 774
f 775 773 100
f 100 773 97
f 773 775 772
f 772 775 776
f 772 776 771
f 771 776 777
f 200 606 197
f 197 606 777
f 189 71 778
f 778 71 74
f 97 774 98
f 98 774 155
f 183 161 184
f 184 161 291
f 777 276 197
f 197 276 143
f 777 606 771
f 771 606 605
f 613 612 697
f 697 612 202
f 595 697 279
f 279 697 202
f 73 276 776
f 776 276 777
f 776 775 73
f 73 775 74
f 100 778 775
f 775 778 74
f 778 100 189
f 189 100 99
f 245 242 99
f 99 242 189
f 131 33 256
f 28 1 95
f 95 1 62
f 27 2 28
f 28 2 1
f 265 115 266
f 266 115 114
f 95 62 69
f 69 62 64
f 62 61 64
f 64 61 65
f 61 13 65
f 65 13 130
f 13 12 130
f 130 12 14
f 31 11 32
f 32 11 268
f 15 12 31
f 31 12 11
f 31 30 15
f 15 30 231
f 30 106 231
f 231 106 232
f 287 237 106
f 106 237 232
f 254 90 287
f 287 90 237
f 253 44 254
f 254 44 90
f 253 249 44
f 44 249 7
f 267 127 268
f 268 127 126
f 10 3 241
f 241 3 116
f 3 2 116
f 116 2 114
f 2 27 114
f 114 27 266
f 27 26 266
f 266 26 113
f 26 286 113
f 113 286 110
f 286 243 110
f 110 243 255
f 243 242 255
f 255 242 256
f 242 245 256
f 256 245 131
f 245 244 131
f 131 244 132
f 265 37 115
f 115 37 41
f 41 37 42
f 42 37 40
f 92 91 40
f 40 91 42
f 236 233 92
f 92 233 91
f 191 194 236
f 236 194 233
f 258 285 244
f 244 285 132
f 257 55 258
f 258 55 285
f 257 154 201
f 201 154 185
f 56 201 204
f 204 201 180
f 55 257 56
f 56 257 201
f 204 85 56
f 56 85 52
f 86 122 53
f 53 122 79
f 212 215 86
f 86 215 122
f 211 216 212
f 212 216 215
f 192 280 211
f 211 280 216
f 191 240 192
f 192 240 280
f 249 124 7
f 7 124 8
f 124 127 8
f 8 127 241
f 127 267 241
f 241 267 10
f 10 267 9
f 9 267 11
o hand_right
v 0.090312 0.481461 0.963035
v 0.091294 0.492719 0.962795
v 0.084233 0.485192 0.964479
v 0.083002 0.475827 0.963423
v 0.076455 0.504067 0.968040
v 0.068417 0.510658 0.961764
v 0.062862 0.495115 0.964341
v 0.070804 0.491583 0.969764
v 0.078179 0.469388 0.961479
v 0.078853 0.478061 0.965352
v 0.077101 0.466127 0.955079
v 0.077977 0.458429 0.949104
v 0.077839 0.461084 0.957022
v 0.079587 0.451157 0.948463
v 0.081833 0.462679 0.939236
v 0.086903 0.449932 0.942312
v 0.109176 0.467822 0.938815
v 0.121163 0.471514 0.944189
v 0.121787 0.454036 0.949789
v 0.108716 0.452826 0.944624
v 0.136350 0.466118 0.959590
v 0.128344 0.458615 0.954541
v 0.128453 0.475716 0.947781
v 0.135337 0.481710 0.952729
v 0.103302 0.489603 0.965483
v 0.104326 0.500841 0.964277
v 0.099912 0.498360 0.962467
v 0.098678 0.487492 0.963741
v 0.068981 0.468102 0.948718
v 0.072266 0.473682 0.941325
v 0.075311 0.467827 0.946096
v 0.071253 0.466319 0.953793
v 0.110251 0.528793 0.968607
v 0.112273 0.538796 0.959516
v 0.107356 0.537695 0.956301
v 0.106807 0.528677 0.965002
v 0.084342 0.529664 0.953373
v 0.091678 0.535596 0.946397
v 0.088443 0.536913 0.932903
v 0.081967 0.528993 0.936697
v 0.075229 0.520764 0.958809
v 0.072263 0.521978 0.944798
v 0.064760 0.511289 0.950549
v 0.059281 0.495716 0.955712
v 0.124366 0.540419 0.964000
v 0.124385 0.533570 0.971787
v 0.071070 0.410451 0.972316
v 0.075156 0.411548 0.976588
v 0.076031 0.414167 0.974764
v 0.072107 0.412738 0.970701
v 0.142012 0.530756 0.960189
v 0.146052 0.526723 0.951757
v 0.146274 0.534055 0.950928
v 0.140875 0.537925 0.957715
v 0.143504 0.521304 0.963433
v 0.145047 0.516617 0.953113
v 0.074484 0.399587 0.965575
v 0.070659 0.403045 0.966827
v 0.072800 0.405261 0.962969
v 0.077128 0.402101 0.961338
v 0.081213 0.466129 0.962308
v 0.088391 0.471614 0.965015
v 0.081986 0.447665 0.966928
v 0.085700 0.457570 0.965736
v 0.080077 0.456914 0.961496
v 0.078127 0.448650 0.961524
v 0.106261 0.467944 0.972571
v 0.106266 0.479185 0.969124
v 0.100852 0.475913 0.966996
v 0.098907 0.463470 0.970637
v 0.116759 0.485011 0.977037
v 0.116223 0.473411 0.979263
v 0.122258 0.478169 0.983400
v 0.121010 0.485753 0.981995
v 0.112777 0.453391 0.980450
v 0.111670 0.448521 0.980636
v 0.114158 0.450420 0.981920
v 0.115602 0.455350 0.981789
v 0.146667 0.540969 0.948982
v 0.139283 0.544460 0.954628
v 0.149177 0.479133 0.972461
v 0.149704 0.488396 0.979281
v 0.151263 0.476073 0.986148
v 0.151006 0.468604 0.976406
v 0.144123 0.521332 0.942944
v 0.146696 0.528806 0.942248
v 0.080290 0.397597 0.967042
v 0.082836 0.399919 0.963192
v 0.069153 0.509212 0.937373
v 0.060583 0.493937 0.945681
v 0.078904 0.519766 0.930774
v 0.087470 0.526203 0.926070
v 0.092176 0.532921 0.921975
v 0.090580 0.454816 0.969884
v 0.095538 0.477725 0.965152
v 0.107322 0.491625 0.967764
v 0.129574 0.500037 0.987993
v 0.128754 0.510147 0.985136
v 0.120130 0.504265 0.982064
v 0.122951 0.496465 0.984689
v 0.145343 0.492260 0.987609
v 0.137745 0.491600 0.990896
v 0.139001 0.483382 0.993350
v 0.146669 0.481948 0.991636
v 0.062985 0.471303 0.945593
v 0.069046 0.479685 0.938187
v 0.134506 0.534012 0.967116
v 0.132175 0.540170 0.962685
v 0.132222 0.546803 0.957227
v 0.105622 0.515164 0.966542
v 0.104189 0.528695 0.962651
v 0.099771 0.527552 0.961460
v 0.103555 0.514100 0.964500
v 0.089961 0.504149 0.965542
v 0.085370 0.516774 0.965084
v 0.083134 0.493805 0.968535
v 0.100620 0.537870 0.951395
v 0.107634 0.546603 0.950978
v 0.100763 0.545234 0.945322
v 0.116575 0.547805 0.955060
v 0.125210 0.548018 0.957593
v 0.150225 0.535853 0.938685
v 0.095323 0.542586 0.939372
v 0.067425 0.482648 0.969616
v 0.063595 0.475020 0.969105
v 0.069941 0.470674 0.967137
v 0.074275 0.477431 0.968109
v 0.080695 0.442260 0.948929
v 0.077141 0.445340 0.955822
v 0.077042 0.454915 0.954705
v 0.114426 0.519947 0.975137
v 0.126074 0.524510 0.977744
v 0.086868 0.444203 0.970416
v 0.078983 0.407428 0.958458
v 0.074147 0.410352 0.960234
v 0.078300 0.428357 0.953908
v 0.083719 0.424813 0.951470
v 0.092342 0.433909 0.970040
v 0.086866 0.437780 0.970549
v 0.087173 0.434171 0.970195
v 0.091870 0.429748 0.971115
v 0.120628 0.456863 0.984837
v 0.121483 0.460945 0.985095
v 0.107103 0.439497 0.953704
v 0.096813 0.440364 0.943623
v 0.097533 0.451557 0.940113
v 0.112081 0.471643 0.975756
v 0.112725 0.461917 0.979100
v 0.116050 0.463725 0.980926
v 0.093627 0.451594 0.971795
v 0.092290 0.442782 0.972432
v 0.096948 0.447233 0.972464
v 0.098369 0.454619 0.972666
v 0.148480 0.500441 0.973016
v 0.143734 0.504675 0.983128
v 0.069508 0.407155 0.969051
v 0.070866 0.409433 0.966344
v 0.111886 0.482600 0.972391
v 0.098333 0.465779 0.936720
v 0.111488 0.493947 0.970634
v 0.137944 0.454538 0.978948
v 0.135427 0.458054 0.985926
v 0.131988 0.456574 0.988589
v 0.133420 0.452057 0.985727
v 0.088455 0.414689 0.975085
v 0.083378 0.416936 0.976731
v 0.081830 0.413073 0.977028
v 0.086872 0.409972 0.976165
v 0.081928 0.439748 0.967797
v 0.077675 0.440756 0.962828
v 0.077474 0.434495 0.964669
v 0.082237 0.434351 0.968378
v 0.077013 0.437648 0.956665
v 0.076149 0.432139 0.958668
v 0.091415 0.410751 0.970426
v 0.090133 0.406632 0.963907
v 0.095472 0.422982 0.958374
v 0.094932 0.424384 0.966103
v 0.135724 0.495530 0.945374
v 0.142592 0.500732 0.952659
v 0.142627 0.487020 0.960103
v 0.144180 0.472744 0.967145
v 0.143866 0.459603 0.973593
v 0.137894 0.452693 0.965446
v 0.146958 0.492347 0.965040
v 0.100433 0.436529 0.965334
v 0.099761 0.433104 0.955904
v 0.104142 0.435924 0.960795
v 0.116105 0.496610 0.976006
v 0.071880 0.414129 0.964169
v 0.108886 0.518668 0.917975
v 0.122125 0.518328 0.921123
v 0.118956 0.510565 0.923977
v 0.103688 0.511236 0.921226
v 0.076959 0.418243 0.974671
v 0.072384 0.417439 0.969929
v 0.125768 0.463311 0.989673
v 0.124437 0.459182 0.988810
v 0.126958 0.459986 0.989952
v 0.128890 0.463334 0.992909
v 0.145370 0.504885 0.956223
v 0.147613 0.469628 0.993883
v 0.148473 0.462923 0.983402
v 0.142391 0.512275 0.945901
v 0.136837 0.507722 0.939097
v 0.138145 0.516597 0.934910
v 0.125497 0.444353 0.963850
v 0.129847 0.490176 0.941541
v 0.131159 0.503696 0.935616
v 0.132478 0.514116 0.930458
v 0.134370 0.521468 0.926751
v 0.140329 0.523456 0.932051
v 0.085128 0.405584 0.960438
v 0.088302 0.400586 0.967466
v 0.144055 0.530784 0.927877
v 0.136755 0.528475 0.922490
v 0.123536 0.500068 0.931627
v 0.113334 0.496701 0.927821
v 0.122401 0.487252 0.937687
v 0.112390 0.482675 0.934167
v 0.121268 0.440479 0.953675
v 0.082213 0.395521 0.983124
v 0.087432 0.401748 0.975956
v 0.085497 0.406834 0.978621
v 0.082158 0.399231 0.985559
v 0.089561 0.405493 0.972814
v 0.085752 0.398401 0.971392
v 0.098113 0.480985 0.931748
v 0.096537 0.440683 0.971829
v 0.095421 0.497416 0.926509
v 0.082616 0.474969 0.932774
v 0.079488 0.487820 0.931061
v 0.090132 0.514069 0.922330
v 0.077862 0.503713 0.927962
v 0.100639 0.528145 0.916351
v 0.096929 0.520586 0.919426
v 0.068221 0.493432 0.935497
v 0.069230 0.405702 0.981384
v 0.074196 0.406668 0.984520
v 0.111826 0.525741 0.914440
v 0.077971 0.484481 0.968824
v 0.113133 0.506931 0.973535
v 0.109897 0.504497 0.969496
v 0.127781 0.515959 0.982572
v 0.117545 0.511128 0.978929
v 0.066770 0.402325 0.977767
v 0.113124 0.445898 0.980982
v 0.114526 0.447503 0.979766
v 0.060226 0.486236 0.965875
v 0.057673 0.479264 0.966276
v 0.053690 0.476991 0.953721
v 0.053655 0.479146 0.960619
v 0.056187 0.487054 0.958134
v 0.056576 0.485273 0.950351
v 0.107352 0.515753 0.968542
v 0.110162 0.516621 0.971282
v 0.146062 0.511710 0.968219
v 0.141121 0.514928 0.978437
v 0.080362 0.435010 0.951414
v 0.087465 0.439854 0.945001
v 0.086393 0.432414 0.948670
v 0.090762 0.424360 0.952337
v 0.097322 0.436622 0.969876
v 0.096591 0.431727 0.965334
v 0.093094 0.522930 0.963243
v 0.097959 0.510814 0.963752
v 0.076021 0.472796 0.963614
v 0.072987 0.467154 0.961610
v 0.105029 0.459225 0.974734
v 0.118959 0.438838 0.971550
v 0.115453 0.435666 0.963107
v 0.104679 0.450418 0.975910
v 0.069789 0.394595 0.975303
v 0.066969 0.398727 0.976133
v 0.093487 0.431844 0.948957
v 0.121556 0.468434 0.985454
v 0.123499 0.442812 0.972981
v 0.117393 0.441826 0.978213
v 0.144737 0.477074 0.995454
v 0.124291 0.526292 0.917482
v 0.080988 0.410443 0.979701
v 0.079054 0.405336 0.986134
v 0.080623 0.393274 0.979683
v 0.075884 0.392699 0.975716
v 0.136917 0.524000 0.973475
v 0.107702 0.502515 0.967049
v 0.062327 0.484296 0.941673
v 0.057797 0.474453 0.947852
v 0.104293 0.445960 0.975474
v 0.141726 0.458533 0.982421
v 0.133964 0.447540 0.974615
v 0.129559 0.444552 0.983190
v 0.122527 0.441534 0.982042
v 0.115864 0.443585 0.981898
v 0.078108 0.391221 0.984696
v 0.073426 0.390644 0.980712
v 0.067519 0.392945 0.979900
v 0.065205 0.396981 0.980066
v 0.065862 0.401200 0.981087
v 0.079755 0.393643 0.988317
v 0.079595 0.397301 0.990144
v 0.077928 0.403416 0.988872
v 0.077393 0.393749 0.992829
v 0.073641 0.389803 0.992286
v 0.059889 0.393919 0.992224
v 0.063393 0.391870 0.987696
v 0.063581 0.390945 0.990372
v 0.061012 0.392022 0.994654
v 0.059299 0.392019 0.999644
v 0.057535 0.394257 0.997517
v 0.068185 0.389583 0.989962
v 0.065248 0.390658 0.996182
v 0.069025 0.391080 0.998151
v 0.066187 0.391166 1.003061
v 0.062753 0.390559 1.001500
v 0.070785 0.389942 0.993843
v 0.069438 0.388972 0.987669
v 0.057610 0.394054 1.002208
v 0.058790 0.391834 1.002587
v 0.061566 0.391165 1.004395
v 0.060500 0.393318 1.006347
v 0.062973 0.396810 0.984342
v 0.059246 0.396477 0.991868
v 0.058172 0.397365 0.997874
v 0.058265 0.396810 1.002484
v 0.060490 0.399956 0.993837
v 0.059868 0.399718 0.998592
v 0.060430 0.399373 1.002618
v 0.063229 0.402448 0.996167
v 0.062333 0.401345 0.999986
v 0.067485 0.403499 0.985853
v 0.064842 0.401154 0.983439
v 0.061884 0.401003 1.002516
v 0.061163 0.395373 1.006864
v 0.072531 0.392448 0.998121
v 0.068334 0.393441 1.003910
v 0.073691 0.394563 0.998716
v 0.069816 0.395191 1.004592
v 0.065348 0.393053 1.007295
v 0.064376 0.391602 1.005402
v 0.069195 0.404570 0.983345
v 0.074364 0.405344 0.986676
v 0.073039 0.404446 0.988916
v 0.067633 0.403244 0.998315
v 0.076328 0.402732 0.991520
v 0.077270 0.397567 0.994169
v 0.073381 0.397424 0.999914
v 0.071938 0.400674 0.999924
v 0.069906 0.397761 1.004156
v 0.068740 0.399902 1.003250
v 0.065542 0.401829 1.001896
v 0.066411 0.397963 1.006365
v 0.066082 0.395166 1.007345
v 0.062599 0.398290 1.005810
v 0.066644 0.399511 1.005195
v 0.063786 0.399976 1.004115
v 0.089139 0.436095 0.995983
v 0.093827 0.439206 0.999394
v 0.095352 0.436791 0.996302
v 0.091435 0.434096 0.993498
v 0.089296 0.422218 1.000080
v 0.086585 0.427339 0.997077
v 0.089839 0.423857 0.993442
v 0.094268 0.419312 0.996481
v 0.095519 0.421254 1.004198
v 0.100516 0.419423 0.999936
v 0.097450 0.419515 0.990729
v 0.092478 0.424319 0.988509
v 0.099388 0.433092 0.970873
v 0.104748 0.429331 0.970982
v 0.106852 0.446138 0.981652
v 0.109865 0.444789 0.983116
v 0.087145 0.432438 0.995728
v 0.089559 0.429564 0.992668
v 0.104175 0.438176 0.998462
v 0.099346 0.439809 0.996218
v 0.099167 0.438602 0.999028
v 0.103047 0.436254 1.002343
v 0.097740 0.440775 0.974079
v 0.102509 0.443611 0.977762
v 0.097501 0.437132 0.972208
v 0.108079 0.432720 0.999773
v 0.108895 0.425864 0.998730
v 0.116164 0.433029 0.979987
v 0.115331 0.438277 0.983767
v 0.090700 0.429438 0.988644
v 0.094248 0.438054 0.993581
v 0.091108 0.434876 0.990452
v 0.104428 0.420858 0.993761
v 0.104709 0.425021 1.004637
v 0.093049 0.437571 1.016879
v 0.101135 0.432918 1.009186
v 0.100276 0.437531 1.006688
v 0.093318 0.442381 1.014950
v 0.105017 0.431328 1.004698
v 0.099785 0.427096 1.008608
v 0.082531 0.443847 1.005395
v 0.087720 0.446610 1.008449
v 0.079519 0.440200 1.005189
v 0.111485 0.429502 0.973858
v 0.080947 0.430399 1.009048
v 0.078809 0.435962 1.005953
v 0.098047 0.440140 1.002720
v 0.091486 0.446091 1.011993
v 0.091129 0.433316 1.016716
v 0.086694 0.428622 1.012579
v 0.086933 0.436761 1.020094
v 0.082255 0.433317 1.016997
v 0.077117 0.434724 1.012826
v 0.076500 0.438949 1.008691
v 0.078318 0.442170 1.007074
v 0.089189 0.440695 1.020056
v 0.090276 0.444831 1.017654
v 0.089530 0.447112 1.013064
v 0.085989 0.447210 1.021339
v 0.082430 0.444410 1.022972
v 0.067735 0.453904 1.014901
v 0.070079 0.448226 1.014529
v 0.070643 0.448425 1.017132
v 0.068596 0.453624 1.017616
v 0.072359 0.442363 1.015965
v 0.072664 0.444108 1.017862
v 0.076419 0.443560 1.020857
v 0.074043 0.449523 1.020502
v 0.078465 0.450684 1.022388
v 0.075849 0.455842 1.023231
v 0.071339 0.454854 1.021693
v 0.079034 0.446117 1.022512
v 0.067885 0.457094 1.018655
v 0.067577 0.459205 1.017118
v 0.077284 0.440192 1.020883
v 0.074105 0.441552 1.010307
v 0.070467 0.449572 1.011641
v 0.068812 0.455984 1.012507
v 0.069495 0.461277 1.015846
v 0.072885 0.452533 1.009596
v 0.071235 0.457987 1.011455
v 0.071958 0.461836 1.014735
v 0.076801 0.455393 1.009072
v 0.074969 0.460167 1.011638
v 0.081157 0.446357 1.006984
v 0.076954 0.443932 1.007205
v 0.074113 0.461650 1.013593
v 0.069799 0.460953 1.021108
v 0.071499 0.463083 1.019111
v 0.069925 0.459085 1.021495
v 0.080525 0.451444 1.022626
v 0.077440 0.457334 1.022722
v 0.082594 0.453359 1.021669
v 0.078707 0.459316 1.021927
v 0.074247 0.460979 1.022881
v 0.073133 0.459707 1.023100
v 0.081894 0.444766 1.007272
v 0.086723 0.446955 1.009756
v 0.086188 0.448237 1.009284
v 0.081366 0.456930 1.011812
v 0.088955 0.448643 1.013277
v 0.087935 0.448808 1.018411
v 0.084168 0.454723 1.019595
v 0.083900 0.456662 1.015947
v 0.080301 0.460411 1.020875
v 0.081196 0.460182 1.017696
v 0.078671 0.460917 1.013529
v 0.076636 0.463400 1.020638
v 0.075133 0.462340 1.022139
v 0.073186 0.463352 1.017657
v 0.078295 0.462791 1.018224
v 0.075623 0.462847 1.015597
v 0.105142 0.456908 0.999805
v 0.109476 0.459887 1.002670
v 0.111393 0.457845 1.001041
v 0.107117 0.454371 0.999040
v 0.102140 0.446386 1.006506
v 0.100916 0.449480 1.002850
v 0.103787 0.446099 1.001234
v 0.106178 0.442270 1.004134
v 0.104667 0.447210 1.011613
v 0.110413 0.441589 1.008277
v 0.110014 0.440123 1.000522
v 0.106313 0.444395 0.998703
v 0.113875 0.443774 0.986291
v 0.118653 0.440124 0.988496
v 0.102453 0.453353 1.000425
v 0.104586 0.450679 0.999393
v 0.118466 0.458902 1.004439
v 0.114656 0.460085 1.001353
v 0.115052 0.458741 1.004898
v 0.116781 0.456782 1.008824
v 0.113865 0.453891 0.983883
v 0.118481 0.457358 0.985999
v 0.112350 0.449286 0.984803
v 0.120859 0.453309 1.007278
v 0.120482 0.445886 1.007416
v 0.128964 0.449120 0.994148
v 0.128237 0.455104 0.993726
v 0.105543 0.449266 0.997424
v 0.110602 0.458752 0.998083
v 0.106805 0.454651 0.996586
v 0.115742 0.441071 1.003597
v 0.114860 0.446118 1.012123
v 0.101354 0.464637 1.020184
v 0.113302 0.454594 1.014543
v 0.114065 0.459145 1.010711
v 0.103150 0.468038 1.017829
v 0.116755 0.452296 1.012239
v 0.110017 0.449973 1.014811
v 0.096346 0.467744 1.005308
v 0.100588 0.469817 1.008433
v 0.094164 0.463767 1.005345
v 0.125112 0.441805 0.991446
v 0.124631 0.459515 0.991018
v 0.091926 0.458733 1.010688
v 0.092533 0.461207 1.007034
v 0.112976 0.460528 1.006769
v 0.103265 0.470156 1.013564
v 0.098733 0.460383 1.019806
v 0.094932 0.457100 1.015809
v 0.095451 0.465081 1.021496
v 0.091440 0.462083 1.017473
v 0.088572 0.463199 1.012301
v 0.089844 0.465372 1.008376
v 0.091916 0.467578 1.006567
v 0.098527 0.469083 1.021430
v 0.100389 0.471653 1.018925
v 0.101817 0.471247 1.013812
v 0.096775 0.473244 1.021785
v 0.091571 0.471341 1.022450
v 0.081091 0.481949 1.013447
v 0.083336 0.476453 1.012815
v 0.083484 0.476479 1.014057
v 0.080967 0.481737 1.015191
v 0.085240 0.469890 1.014110
v 0.084884 0.471596 1.015140
v 0.086858 0.470885 1.018649
v 0.084661 0.477096 1.019260
v 0.090013 0.478364 1.021964
v 0.087444 0.482976 1.021984
v 0.082237 0.482113 1.019882
v 0.089978 0.472737 1.021513
v 0.080246 0.484714 1.016459
v 0.079167 0.485475 1.015019
v 0.087740 0.468402 1.018931
v 0.086723 0.469921 1.009300
v 0.084058 0.477151 1.009968
v 0.081820 0.482782 1.010402
v 0.081535 0.486806 1.012465
v 0.087101 0.478851 1.008254
v 0.084747 0.483698 1.009416
v 0.084363 0.487279 1.011331
v 0.090138 0.480322 1.008363
v 0.087933 0.484505 1.009735
v 0.094248 0.471635 1.006907
v 0.090172 0.470677 1.007104
v 0.086701 0.487002 1.011291
v 0.081209 0.487374 1.019016
v 0.084126 0.489579 1.016804
v 0.081606 0.485692 1.019216
v 0.091850 0.478395 1.022461
v 0.089110 0.484579 1.022572
v 0.094363 0.479510 1.021555
v 0.091493 0.485585 1.021596
v 0.085710 0.487253 1.021859
v 0.085112 0.486206 1.021642
v 0.095502 0.469379 1.006582
v 0.099632 0.470932 1.009336
v 0.098406 0.472868 1.009423
v 0.093952 0.482069 1.010826
v 0.100708 0.473343 1.013756
v 0.098566 0.475431 1.019155
v 0.095789 0.480906 1.018830
v 0.095827 0.482286 1.015193
v 0.092932 0.486140 1.019186
v 0.093358 0.485571 1.016358
v 0.091377 0.485961 1.011762
v 0.089596 0.488477 1.018152
v 0.087852 0.488495 1.020613
v 0.086567 0.489415 1.014728
v 0.090817 0.487969 1.015984
v 0.088516 0.488502 1.013361
v 0.121897 0.459433 0.988540
v 0.117363 0.461797 1.003735
v 0.119043 0.463759 1.007332
v 0.119828 0.463215 1.007660
v 0.118921 0.461450 1.003274
v 0.118312 0.450155 1.003823
v 0.116298 0.454379 1.002062
v 0.119896 0.452640 1.000201
v 0.122694 0.448809 1.001773
v 0.121655 0.448469 1.008087
v 0.125961 0.447901 1.006913
v 0.125588 0.450122 1.000010
v 0.122274 0.453257 0.998612
v 0.131734 0.458160 0.989211
v 0.137029 0.456714 0.989343
v 0.141214 0.473295 1.000827
v 0.136985 0.475702 0.998866
v 0.133207 0.470658 1.004888
v 0.137253 0.468708 1.005715
v 0.116370 0.458354 1.002160
v 0.118646 0.457661 1.000571
v 0.126916 0.461450 1.014720
v 0.123548 0.463933 1.011872
v 0.121647 0.463750 1.011790
v 0.123590 0.462050 1.016186
v 0.132426 0.473482 0.997120
v 0.130227 0.468910 0.994603
v 0.128425 0.468384 0.997443
v 0.129350 0.469380 1.002176
v 0.128121 0.463367 0.993663
v 0.129408 0.457363 1.014638
v 0.130880 0.452076 1.011277
v 0.144026 0.462210 1.000906
v 0.141612 0.465888 1.003851
v 0.119959 0.456747 1.000350
v 0.121000 0.463668 1.007372
v 0.119498 0.460872 1.004274
v 0.130105 0.449378 1.004090
v 0.126190 0.451728 1.013523
v 0.116035 0.459352 1.019899
v 0.122261 0.457475 1.017730
v 0.122086 0.461980 1.016260
v 0.117276 0.462596 1.019033
v 0.125183 0.457556 1.016735
v 0.121627 0.452590 1.014797
v 0.113948 0.464623 1.006104
v 0.116336 0.465841 1.011112
v 0.112225 0.462108 1.004372
v 0.142213 0.458359 0.993060
v 0.110579 0.454997 1.006479
v 0.110623 0.459136 1.004678
v 0.120423 0.463784 1.011716
v 0.117509 0.465286 1.015835
v 0.113954 0.455232 1.017589
v 0.112923 0.452408 1.011390
v 0.109522 0.458115 1.018417
v 0.108523 0.455539 1.012501
v 0.107864 0.459258 1.006695
v 0.110432 0.462141 1.005171
v 0.112794 0.464340 1.005402
v 0.113179 0.461596 1.020630
v 0.115236 0.463649 1.020021
v 0.116748 0.465392 1.016446
v 0.110295 0.464320 1.021043
v 0.106461 0.464539 1.017871
v 0.107808 0.476050 1.010852
v 0.108193 0.471928 1.009271
v 0.107407 0.471733 1.010195
v 0.106799 0.475806 1.011222
v 0.107232 0.466238 1.008214
v 0.106701 0.467542 1.009725
v 0.105785 0.464879 1.012413
v 0.105263 0.470412 1.013787
v 0.106488 0.469995 1.019153
v 0.105905 0.474207 1.019604
v 0.104563 0.474172 1.014891
v 0.105917 0.465957 1.016865
v 0.105644 0.478077 1.012632
v 0.106160 0.479483 1.012531
v 0.105361 0.461971 1.011946
v 0.110958 0.466898 1.006374
v 0.110379 0.473516 1.008556
v 0.109245 0.478297 1.010697
v 0.107962 0.480861 1.013585
v 0.112895 0.473571 1.008938
v 0.111426 0.478900 1.011245
v 0.110179 0.481105 1.014122
v 0.115517 0.473504 1.011140
v 0.113356 0.478373 1.012885
v 0.116732 0.467940 1.009594
v 0.114207 0.467903 1.007045
v 0.111629 0.480257 1.014653
v 0.104752 0.479411 1.016342
v 0.107491 0.480724 1.016996
v 0.104019 0.477758 1.016113
v 0.107249 0.469790 1.020409
v 0.106765 0.474948 1.020983
v 0.109294 0.469983 1.021679
v 0.108771 0.475637 1.021596
v 0.105792 0.478188 1.019674
v 0.104879 0.476682 1.018664
v 0.115118 0.466452 1.008015
v 0.116307 0.466542 1.011518
v 0.117375 0.467493 1.013789
v 0.116547 0.472691 1.015374
v 0.116508 0.465943 1.018609
v 0.113520 0.464930 1.021172
v 0.112054 0.470746 1.021731
v 0.114916 0.471817 1.020016
v 0.110765 0.476496 1.021116
v 0.113364 0.476798 1.019488
v 0.114486 0.477598 1.016223
v 0.109689 0.479656 1.019115
v 0.107861 0.479475 1.019683
v 0.109600 0.480860 1.017063
v 0.111485 0.479459 1.018423
v 0.111717 0.479989 1.016764
v 0.143147 0.469684 1.000294
v 0.058375 0.459913 0.952859
v 0.063173 0.457981 0.955102
v 0.061700 0.461546 0.971059
v 0.065438 0.457785 0.966350
v 0.055744 0.464866 0.971885
v 0.048576 0.467937 0.964006
v 0.051597 0.467843 0.968765
v 0.065831 0.456561 0.960422
v 0.053140 0.463037 0.952827
v 0.048699 0.466737 0.957209
v 0.050124 0.455378 0.954285
v 0.045405 0.459244 0.959122
v 0.044483 0.460728 0.965947
v 0.048682 0.461726 0.971425
v 0.052866 0.460621 0.974119
v 0.056867 0.453563 0.955115
v 0.061635 0.452347 0.957747
v 0.064620 0.452966 0.963575
v 0.056289 0.445777 0.958531
v 0.048563 0.439961 0.962560
v 0.039381 0.436133 0.979486
v 0.041348 0.442449 0.977449
v 0.040837 0.440790 0.975006
v 0.038508 0.435364 0.976957
v 0.041849 0.446183 0.973257
v 0.042024 0.443891 0.972248
v 0.043925 0.442647 0.967373
v 0.042008 0.437643 0.969370
v 0.047007 0.439204 0.964824
v 0.046937 0.435194 0.966173
v 0.040135 0.432583 0.971136
v 0.037241 0.431502 0.976281
v 0.038810 0.428291 0.973003
v 0.038630 0.430648 0.979228
v 0.042551 0.443671 0.965660
v 0.044906 0.452592 0.975442
v 0.043760 0.444663 0.979627
v 0.042467 0.436921 0.981807
v 0.041556 0.430537 0.980939
v 0.048228 0.445082 0.981162
v 0.047074 0.437539 0.982055
v 0.046694 0.431709 0.980676
v 0.053137 0.443971 0.980225
v 0.050905 0.436989 0.980472
v 0.057460 0.455392 0.975111
v 0.050810 0.455833 0.976935
v 0.049242 0.432943 0.979676
v 0.039805 0.426016 0.974860
v 0.043203 0.425973 0.976712
v 0.050140 0.434869 0.964569
v 0.044929 0.430217 0.967424
v 0.048107 0.429479 0.967354
v 0.054231 0.435828 0.964336
v 0.051026 0.429382 0.968140
v 0.044420 0.425869 0.970333
v 0.042169 0.427789 0.969589
v 0.058957 0.458800 0.973375
v 0.063413 0.456130 0.968985
v 0.062094 0.452961 0.970543
v 0.057973 0.441966 0.975662
v 0.063537 0.449044 0.965756
v 0.060675 0.446359 0.960914
v 0.057507 0.436713 0.966311
v 0.059324 0.439012 0.970322
v 0.053567 0.430719 0.970650
v 0.054487 0.432565 0.973067
v 0.053571 0.434852 0.977459
v 0.050076 0.427946 0.973776
v 0.047552 0.425984 0.971710
v 0.047540 0.428207 0.977520
v 0.051655 0.430215 0.974724
v 0.050279 0.430950 0.977499
v 0.137976 0.479244 0.995087
v 0.131950 0.476755 0.993336
v 0.132876 0.482129 0.991979
v 0.131349 0.490499 0.990472
v 0.135975 0.499692 0.988502
v 0.125695 0.487999 0.986851
v 0.127566 0.479283 0.988768
v 0.126717 0.471026 0.990331
v 0.119797 0.493055 0.980282
f 780 781 779
f 779 781 782
f 783 784 786
f 786 784 785
f 787 782 788
f 788 782 781
f 790 791 789
f 789 791 787
f 792 790 794
f 794 790 793
f 796 797 795
f 795 797 798
f 800 801 799
f 799 801 802
f 804 805 803
f 803 805 806
f 808 809 807
f 807 809 810
f 811 812 814
f 814 812 813
f 815 816 818
f 818 816 817
f 819 820 784
f 784 820 821
f 784 821 785
f 785 821 822
f 823 812 824
f 824 812 811
f 826 827 825
f 825 827 828
f 830 831 829
f 829 831 832
f 834 830 833
f 833 830 829
f 836 837 835
f 835 837 838
f 839 840 782
f 782 840 779
f 842 843 841
f 841 843 844
f 846 847 845
f 845 847 848
f 850 851 849
f 849 851 852
f 854 855 853
f 853 855 856
f 831 857 832
f 832 857 858
f 860 861 859
f 859 861 862
f 863 864 830
f 830 864 831
f 835 838 865
f 865 838 866
f 867 868 821
f 821 868 822
f 821 820 867
f 867 820 869
f 818 817 870
f 870 817 871
f 872 848 842
f 842 848 847
f 791 839 787
f 787 839 782
f 803 806 847
f 847 806 873
f 874 803 846
f 846 803 847
f 876 877 875
f 875 877 878
f 879 880 882
f 882 880 881
f 884 808 883
f 883 808 807
f 829 832 885
f 885 832 886
f 832 858 886
f 886 858 887
f 889 890 888
f 888 890 891
f 893 783 892
f 892 783 894
f 893 819 783
f 783 819 784
f 814 813 889
f 889 813 895
f 813 896 895
f 895 896 897
f 812 898 813
f 813 898 896
f 812 823 898
f 898 823 899
f 903 904 902
f 902 904 905
f 906 907 792
f 792 907 908
f 811 909 824
f 824 909 910
f 911 872 841
f 841 872 842
f 912 913 915
f 915 913 914
f 917 918 916
f 916 918 919
f 855 920 856
f 856 920 921
f 922 923 798
f 798 923 924
f 926 927 925
f 925 927 850
f 929 930 928
f 928 930 931
f 860 879 861
f 861 879 882
f 879 860 933
f 933 860 932
f 934 935 836
f 836 935 837
f 936 846 925
f 925 846 845
f 937 924 793
f 793 924 794
f 846 936 874
f 874 936 938
f 907 844 908
f 908 844 843
f 940 941 939
f 939 941 942
f 944 945 943
f 943 945 946
f 948 949 947
f 947 949 950
f 952 949 951
f 951 949 948
f 954 955 953
f 953 955 956
f 958 959 957
f 957 959 802
f 960 961 799
f 799 961 962
f 859 963 860
f 860 963 932
f 964 965 966
f 966 965 922
f 936 849 938
f 938 849 967
f 968 913 935
f 935 913 837
f 947 950 917
f 917 950 918
f 925 850 936
f 936 850 849
f 970 971 969
f 969 971 972
f 945 944 827
f 827 944 973
f 974 968 828
f 828 968 935
f 975 976 978
f 978 976 977
f 799 802 960
f 960 802 959
f 924 937 798
f 798 937 795
f 960 959 859
f 859 959 963
f 979 963 958
f 958 963 959
f 980 981 861
f 861 981 862
f 983 984 982
f 982 984 863
f 985 800 962
f 962 800 799
f 957 802 986
f 986 802 801
f 986 987 957
f 957 987 983
f 987 988 983
f 983 988 984
f 990 984 989
f 989 984 988
f 957 983 958
f 958 983 982
f 991 954 866
f 866 954 992
f 864 863 990
f 990 863 984
f 971 995 996
f 995 997 996
f 996 997 998
f 997 796 998
f 998 796 795
f 797 999 798
f 798 999 922
f 1000 1001 1003
f 1003 1001 1002
f 953 1004 954
f 954 1004 992
f 1005 865 992
f 992 865 866
f 998 795 1006
f 1006 795 937
f 912 991 838
f 838 991 866
f 916 1007 929
f 929 1007 930
f 971 970 988
f 988 970 989
f 1008 972 996
f 996 972 971
f 1009 1010 1006
f 1006 1010 1008
f 1011 1012 869
f 869 1012 867
f 1013 1014 871
f 871 1014 870
f 1008 1010 1012
f 1012 1010 1015
f 825 1016 826
f 826 1016 1017
f 1018 969 1013
f 1013 969 1014
f 783 786 894
f 894 786 1019
f 1020 1021 967
f 967 1021 938
f 1022 1023 876
f 876 1023 877
f 934 1024 825
f 825 1024 1016
f 854 1025 855
f 855 1025 1026
f 1028 903 1027
f 1027 903 902
f 1030 1031 1029
f 1029 1031 1032
f 889 888 814
f 814 888 1033
f 1034 811 1033
f 1033 811 814
f 1035 1036 932
f 932 1036 933
f 841 947 911
f 911 947 917
f 844 948 841
f 841 948 947
f 951 948 907
f 907 948 844
f 907 906 951
f 951 906 1037
f 906 1038 1037
f 1037 1038 1039
f 991 912 1040
f 1040 912 915
f 1041 1042 964
f 964 1042 965
f 890 1043 891
f 891 1043 1044
f 789 1045 1046
f 1012 1011 1008
f 1008 1011 972
f 931 1047 848
f 848 1047 845
f 953 956 943
f 943 956 919
f 928 931 872
f 872 931 848
f 1049 999 1048
f 1048 999 985
f 1047 931 1050
f 1050 931 930
f 899 823 887
f 887 823 886
f 825 828 934
f 934 828 935
f 835 1051 836
f 836 1051 1052
f 923 1053 1038
f 1038 1053 1039
f 1054 927 921
f 921 927 856
f 926 1047 853
f 853 1047 1050
f 985 1055 1048
f 1048 1055 1056
f 973 974 827
f 827 974 828
f 837 913 838
f 838 913 912
f 861 882 980
f 980 882 1057
f 927 926 856
f 856 926 853
f 1025 1056 1026
f 1026 1056 1055
f 961 960 862
f 862 960 859
f 826 1017 1059
f 1059 1017 1060
f 1005 1001 1061
f 1061 1001 1000
f 1001 1004 1002
f 1002 1004 946
f 1059 1060 1002
f 1002 1060 1003
f 943 946 953
f 953 946 1004
f 1042 1041 916
f 916 1041 1007
f 792 794 906
f 906 794 1038
f 998 1006 996
f 996 1006 1008
f 865 1005 1062
f 1062 1005 1061
f 1038 794 923
f 923 794 924
f 1022 876 1036
f 1036 876 933
f 836 1052 934
f 934 1052 1024
f 885 1063 829
f 829 1063 833
f 1021 1064 938
f 938 1064 874
f 1012 1015 867
f 867 1015 868
f 824 910 885
f 885 910 1063
f 1031 1030 1027
f 1027 1030 1028
f 1064 804 874
f 874 804 803
f 884 883 1065
f 1065 883 1066
f 1050 930 1067
f 1067 930 1007
f 916 929 917
f 917 929 911
f 961 1068 939
f 939 1068 940
f 1069 1070 1055
f 1055 1070 1071
f 929 928 911
f 911 928 872
f 1040 1053 955
f 955 1053 965
f 922 965 923
f 923 965 1053
f 1051 835 1062
f 1062 835 865
f 952 914 968
f 968 914 913
f 889 895 890
f 890 895 816
f 895 897 816
f 816 897 901
f 890 816 1043
f 1043 816 815
f 1065 1066 1032
f 1032 1066 1029
f 1006 937 1009
f 1009 937 793
f 1001 1005 1004
f 1004 1005 992
f 925 845 926
f 926 845 1047
f 1002 946 1059
f 1059 946 945
f 977 941 978
f 978 941 940
f 823 824 886
f 886 824 885
f 1059 945 826
f 826 945 827
f 939 942 1069
f 1069 942 1070
f 816 901 817
f 1071 1072 1055
f 1055 1072 1026
f 1062 1061 1074
f 1074 1061 1073
f 1062 1074 1051
f 1051 1074 1075
f 1052 1051 1076
f 1076 1051 1075
f 1024 1052 1077
f 1077 1052 1076
f 1061 1000 1073
f 1073 1000 1078
f 1000 1003 1078
f 1078 1003 1079
f 1079 1003 1080
f 1080 1003 1060
f 1081 1082 1078
f 1078 1082 1073
f 1084 1085 1083
f 1083 1085 1086
f 1087 1088 1086
f 1086 1088 1083
f 1086 1085 1090
f 1090 1085 1089
f 1091 1092 1090
f 1090 1092 1093
f 1089 1094 1090
f 1090 1094 1091
f 1095 1082 1089
f 1089 1082 1094
f 1093 1087 1090
f 1090 1087 1086
f 1096 1097 1099
f 1099 1097 1098
f 1097 1096 1087
f 1087 1096 1088
f 1089 1085 1095
f 1095 1085 1084
f 1084 1075 1095
f 1095 1075 1074
f 1084 1100 1075
f 1075 1100 1076
f 1083 1101 1084
f 1084 1101 1100
f 1101 1083 1102
f 1102 1083 1088
f 1082 1095 1073
f 1073 1095 1074
f 1096 1103 1088
f 1088 1103 1102
f 1101 1102 1104
f 1104 1102 1105
f 1102 1103 1105
f 1105 1103 1106
f 1104 1105 1107
f 1107 1105 1108
f 1107 1109 1104
f 1104 1109 1110
f 1111 1108 1106
f 1106 1108 1105
f 1101 1104 1100
f 1100 1104 1110
f 1100 1110 1076
f 1076 1110 1077
f 1103 1096 1112
f 1112 1096 1099
f 1091 1094 1113
f 1113 1094 1082
f 1113 1114 1091
f 1091 1114 1092
f 1082 1081 1113
f 1113 1081 1115
f 1114 1113 1116
f 1116 1113 1115
f 1114 1117 1092
f 1092 1117 1118
f 1024 1077 1016
f 1016 1077 1119
f 1017 1120 1060
f 1060 1120 1080
f 1120 1017 1119
f 1119 1017 1016
f 1119 1109 1120
f 1120 1109 1121
f 1109 1107 1121
f 1121 1107 1122
f 1120 1121 1080
f 1080 1121 1123
f 1119 1077 1109
f 1109 1077 1110
f 1124 1079 1123
f 1123 1079 1080
f 1124 1081 1079
f 1079 1081 1078
f 1125 1115 1124
f 1124 1115 1081
f 1125 1124 1126
f 1126 1124 1123
f 1127 1125 1128
f 1128 1125 1126
f 1121 1122 1123
f 1123 1122 1126
f 1122 1129 1126
f 1126 1129 1128
f 1115 1125 1116
f 1116 1125 1127
f 1131 1116 1130
f 1130 1116 1127
f 1130 1133 1132
f 1132 1133 1134
f 1130 1127 1133
f 1133 1127 1128
f 1130 1132 1131
f 1131 1132 1112
f 1131 1112 1117
f 1117 1112 1099
f 1117 1114 1131
f 1131 1114 1116
f 1107 1108 1122
f 1122 1108 1129
f 1134 1129 1111
f 1111 1129 1108
f 1134 1133 1129
f 1129 1133 1128
f 1132 1134 1106
f 1106 1134 1111
f 1106 1103 1132
f 1132 1103 1112
f 1087 1093 1097
f 1097 1093 1098
f 1098 1118 1099
f 1099 1118 1117
f 1098 1093 1118
f 1118 1093 1092
f 915 914 1039
f 1039 914 1037
f 918 944 919
f 919 944 943
f 950 949 973
f 973 949 974
f 949 952 974
f 974 952 968
f 956 955 1042
f 1042 955 965
f 950 973 918
f 918 973 944
f 915 1039 1040
f 1040 1039 1053
f 956 1042 919
f 919 1042 916
f 1040 955 991
f 991 955 954
f 914 952 1037
f 1037 952 951
f 1136 1137 1135
f 1135 1137 1138
f 1140 1141 1139
f 1139 1141 1142
f 1139 1142 1143
f 1143 1142 1144
f 1145 1146 1148
f 1148 1146 1147
f 854 1149 1025
f 1025 1149 1150
f 1151 1152 1140
f 1140 1152 1141
f 1154 1155 1153
f 1153 1155 1156
f 1067 1007 1158
f 1158 1007 1157
f 1159 1157 1041
f 1041 1157 1007
f 1161 1162 1160
f 1160 1162 1163
f 1164 1146 1152
f 1152 1146 1141
f 854 1067 1149
f 1149 1067 1158
f 1155 1154 1137
f 1137 1154 1165
f 1166 1164 1138
f 1138 1164 1152
f 1167 1161 1144
f 1144 1161 1168
f 1170 1171 1169
f 1169 1171 1172
f 1161 1160 1168
f 1168 1160 1173
f 1174 1143 1168
f 1168 1143 1144
f 1167 1144 1145
f 1145 1144 1142
f 1135 1175 1136
f 1136 1175 1176
f 1151 1177 1135
f 1135 1177 1175
f 1167 1145 1178
f 1178 1145 1148
f 1160 1163 1153
f 1153 1163 1150
f 1135 1138 1151
f 1151 1138 1152
f 1139 1179 1140
f 1140 1179 1180
f 1165 1166 1137
f 1137 1166 1138
f 1141 1146 1142
f 1142 1146 1145
f 1136 1176 1181
f 1181 1176 1182
f 1174 1170 1183
f 1183 1170 1169
f 1170 1173 1171
f 1171 1173 1156
f 1171 1181 1172
f 1172 1181 1182
f 1153 1156 1160
f 1160 1156 1173
f 1143 1174 1184
f 1184 1174 1183
f 1140 1180 1151
f 1151 1180 1177
f 1049 1048 1178
f 1178 1048 1162
f 1179 1139 1184
f 1184 1139 1143
f 1159 1147 1164
f 1164 1147 1146
f 1170 1174 1173
f 1173 1174 1168
f 1171 1156 1181
f 1181 1156 1155
f 1181 1155 1136
f 1136 1155 1137
f 1184 1183 1186
f 1186 1183 1185
f 1184 1186 1179
f 1179 1186 1187
f 1179 1187 1180
f 1180 1187 1188
f 1180 1188 1177
f 1177 1188 1189
f 1183 1169 1185
f 1185 1169 1190
f 1169 1172 1190
f 1190 1172 1191
f 1172 1182 1191
f 1191 1182 1192
f 1193 1194 1190
f 1190 1194 1185
f 1196 1197 1195
f 1195 1197 1198
f 1199 1200 1196
f 1196 1200 1197
f 1197 1200 1202
f 1202 1200 1201
f 1203 1204 1202
f 1202 1204 1205
f 1201 1206 1202
f 1202 1206 1203
f 1205 1198 1202
f 1202 1198 1197
f 1198 1207 1195
f 1195 1207 1208
f 1201 1200 1209
f 1209 1200 1199
f 1199 1187 1209
f 1209 1187 1186
f 1199 1210 1187
f 1187 1210 1188
f 1196 1211 1199
f 1199 1211 1210
f 1212 1211 1195
f 1195 1211 1196
f 1209 1194 1201
f 1201 1194 1206
f 1194 1209 1185
f 1185 1209 1186
f 1213 1212 1208
f 1208 1212 1195
f 1211 1212 1214
f 1214 1212 1215
f 1212 1213 1215
f 1215 1213 1216
f 1214 1215 1217
f 1217 1215 1218
f 1217 1219 1214
f 1214 1219 1220
f 1216 1221 1215
f 1215 1221 1218
f 1214 1220 1211
f 1211 1220 1210
f 1210 1220 1188
f 1188 1220 1189
f 1213 1208 1223
f 1223 1208 1222
f 1208 1207 1222
f 1222 1207 1224
f 1203 1206 1225
f 1225 1206 1194
f 1204 1203 1226
f 1226 1203 1225
f 1194 1193 1225
f 1225 1193 1227
f 1225 1227 1226
f 1226 1227 1228
f 1229 1230 1226
f 1226 1230 1204
f 1224 1230 1222
f 1222 1230 1229
f 1177 1189 1175
f 1175 1189 1231
f 1176 1232 1182
f 1182 1232 1192
f 1232 1176 1231
f 1231 1176 1175
f 1231 1219 1232
f 1232 1219 1233
f 1219 1217 1233
f 1233 1217 1234
f 1232 1233 1192
f 1192 1233 1235
f 1219 1231 1220
f 1220 1231 1189
f 1236 1191 1235
f 1235 1191 1192
f 1236 1193 1191
f 1191 1193 1190
f 1236 1237 1193
f 1193 1237 1227
f 1237 1236 1238
f 1238 1236 1235
f 1239 1237 1240
f 1240 1237 1238
f 1233 1234 1235
f 1235 1234 1238
f 1234 1241 1238
f 1238 1241 1240
f 1237 1239 1227
f 1227 1239 1228
f 1243 1228 1242
f 1242 1228 1239
f 1242 1245 1244
f 1244 1245 1246
f 1242 1239 1245
f 1245 1239 1240
f 1242 1244 1243
f 1243 1244 1223
f 1243 1223 1229
f 1229 1223 1222
f 1229 1226 1243
f 1243 1226 1228
f 1217 1218 1234
f 1234 1218 1241
f 1246 1241 1221
f 1221 1241 1218
f 1246 1245 1241
f 1241 1245 1240
f 1244 1246 1216
f 1216 1246 1221
f 1216 1213 1244
f 1244 1213 1223
f 1198 1205 1207
f 1207 1205 1224
f 1224 1205 1230
f 1230 1205 1204
f 1148 1147 966
f 966 1147 964
f 1149 1154 1150
f 1150 1154 1153
f 1158 1157 1165
f 1165 1157 1166
f 1157 1159 1166
f 1166 1159 1164
f 1163 1162 1056
f 1056 1162 1048
f 1158 1165 1149
f 1149 1165 1154
f 1178 1148 1049
f 1049 1148 966
f 1163 1056 1150
f 1150 1056 1025
f 1178 1162 1167
f 1167 1162 1161
f 1147 1159 964
f 964 1159 1041
f 999 1049 922
f 922 1049 966
f 999 797 985
f 985 797 800
f 797 796 800
f 800 796 801
f 796 997 801
f 801 997 986
f 1247 1248 1250
f 1250 1248 1249
f 1252 1253 1251
f 1251 1253 1254
f 1251 1254 1255
f 1255 1254 1256
f 1258 1259 1257
f 1257 1259 1260
f 1261 1262 1252
f 1252 1262 1253
f 1264 1265 1263
f 1263 1265 1266
f 1267 1268 855
f 855 1268 920
f 1269 1267 1026
f 1026 1267 855
f 1271 1272 1270
f 1270 1272 1273
f 1274 1258 1262
f 1262 1258 1253
f 1264 1275 1265
f 1265 1275 1249
f 1276 1274 1250
f 1250 1274 1262
f 1277 1271 1256
f 1256 1271 1278
f 1279 1280 1282
f 1282 1280 1281
f 1271 1270 1278
f 1278 1270 1283
f 1284 1255 1278
f 1278 1255 1256
f 1277 1256 1257
f 1257 1256 1254
f 1247 1285 1248
f 1248 1285 1286
f 1261 1287 1247
f 1247 1287 1285
f 1257 1260 1277
f 1277 1260 1288
f 1270 1273 1263
f 1263 1273 1289
f 1261 1247 1262
f 1262 1247 1250
f 1251 1290 1252
f 1252 1290 1291
f 1275 1276 1249
f 1249 1276 1250
f 1253 1258 1254
f 1254 1258 1257
f 1248 1286 1292
f 1292 1286 1293
f 1284 1280 1294
f 1294 1280 1279
f 1281 1280 1266
f 1266 1280 1283
f 1292 1293 1281
f 1281 1293 1282
f 1263 1266 1270
f 1270 1266 1283
f 1255 1284 1295
f 1295 1284 1294
f 1252 1291 1261
f 1261 1291 1287
f 1288 1070 1272
f 1272 1070 942
f 1290 1251 1295
f 1295 1251 1255
f 1269 1259 1274
f 1274 1259 1258
f 1280 1284 1283
f 1283 1284 1278
f 1281 1266 1292
f 1292 1266 1265
f 1292 1265 1248
f 1248 1265 1249
f 1295 1294 1297
f 1297 1294 1296
f 1295 1297 1290
f 1290 1297 1298
f 1290 1298 1291
f 1291 1298 1299
f 1291 1299 1287
f 1287 1299 1300
f 1294 1279 1296
f 1296 1279 1301
f 1279 1282 1301
f 1301 1282 1302
f 1302 1282 1303
f 1303 1282 1293
f 1304 1305 1301
f 1301 1305 1296
f 1307 1308 1306
f 1306 1308 1309
f 1310 1311 1307
f 1307 1311 1308
f 1308 1311 1313
f 1313 1311 1312
f 1314 1315 1313
f 1313 1315 1316
f 1312 1317 1313
f 1313 1317 1314
f 1316 1309 1313
f 1313 1309 1308
f 1318 1319 1309
f 1309 1319 1306
f 1311 1310 1312
f 1312 1310 1320
f 1310 1298 1320
f 1320 1298 1297
f 1310 1321 1298
f 1298 1321 1299
f 1307 1322 1310
f 1310 1322 1321
f 1322 1307 1323
f 1323 1307 1306
f 1312 1320 1317
f 1317 1320 1305
f 1305 1320 1296
f 1296 1320 1297
f 1319 1324 1306
f 1306 1324 1323
f 1325 1322 1326
f 1326 1322 1323
f 1324 1327 1323
f 1323 1327 1326
f 1328 1325 1329
f 1329 1325 1326
f 1325 1328 1331
f 1331 1328 1330
f 1327 1332 1326
f 1326 1332 1329
f 1322 1325 1321
f 1321 1325 1331
f 1321 1331 1299
f 1299 1331 1300
f 1324 1319 1334
f 1334 1319 1333
f 1319 1318 1333
f 1333 1318 1335
f 1314 1317 1336
f 1336 1317 1305
f 1315 1314 1337
f 1337 1314 1336
f 1305 1304 1336
f 1336 1304 1338
f 1337 1336 1339
f 1339 1336 1338
f 1337 1340 1315
f 1315 1340 1341
f 1335 1341 1333
f 1333 1341 1340
f 1287 1300 1285
f 1285 1300 1342
f 1286 1343 1293
f 1293 1343 1303
f 1343 1286 1342
f 1342 1286 1285
f 1342 1330 1343
f 1343 1330 1344
f 1330 1328 1344
f 1344 1328 1345
f 1343 1344 1303
f 1303 1344 1346
f 1342 1300 1330
f 1330 1300 1331
f 1347 1302 1346
f 1346 1302 1303
f 1347 1304 1302
f 1302 1304 1301
f 1348 1338 1347
f 1347 1338 1304
f 1348 1347 1349
f 1349 1347 1346
f 1350 1348 1351
f 1351 1348 1349
f 1344 1345 1346
f 1346 1345 1349
f 1345 1352 1349
f 1349 1352 1351
f 1348 1350 1338
f 1338 1350 1339
f 1354 1339 1353
f 1353 1339 1350
f 1353 1356 1355
f 1355 1356 1357
f 1353 1350 1356
f 1356 1350 1351
f 1353 1355 1354
f 1354 1355 1334
f 1354 1334 1340
f 1340 1334 1333
f 1340 1337 1354
f 1354 1337 1339
f 1328 1329 1345
f 1345 1329 1352
f 1357 1352 1332
f 1332 1352 1329
f 1357 1356 1352
f 1352 1356 1351
f 1357 1332 1355
f 1355 1332 1327
f 1327 1324 1355
f 1355 1324 1334
f 1309 1316 1318
f 1318 1316 1335
f 1335 1316 1341
f 1341 1316 1315
f 1259 1072 1260
f 1260 1072 1071
f 1358 1264 1289
f 1289 1264 1263
f 1268 1267 1275
f 1275 1267 1276
f 1267 1269 1276
f 1276 1269 1274
f 941 1273 942
f 942 1273 1272
f 1358 1268 1264
f 1264 1268 1275
f 1260 1071 1288
f 1288 1071 1070
f 1273 941 1289
f 1289 941 977
f 1272 1271 1288
f 1288 1271 1277
f 1259 1269 1072
f 1072 1269 1026
f 1360 1361 1359
f 1359 1361 1362
f 1364 1365 1363
f 1363 1365 1366
f 1363 1366 1367
f 1367 1366 1368
f 1370 1371 1369
f 1369 1371 1372
f 1373 1374 1376
f 1376 1374 1375
f 1377 1378 1364
f 1364 1378 1365
f 1379 1380 1382
f 1382 1380 1381
f 1383 1384 1386
f 1386 1384 1385
f 1387 1385 978
f 978 1385 1384
f 1388 1389 1391
f 1391 1389 1390
f 1378 1392 1365
f 1365 1392 1370
f 1374 1383 1375
f 1375 1383 1386
f 1380 1393 1381
f 1381 1393 1361
f 1394 1392 1362
f 1362 1392 1378
f 1389 1396 1395
f 1395 1396 1368
f 1398 1399 1397
f 1397 1399 1400
f 1388 1401 1389
f 1389 1401 1396
f 1402 1367 1396
f 1396 1367 1368
f 1395 1368 1369
f 1369 1368 1366
f 1359 1403 1360
f 1360 1403 1404
f 1377 1405 1359
f 1359 1405 1403
f 1369 1372 1395
f 1395 1372 1406
f 1379 1388 1376
f 1376 1388 1391
f 1359 1362 1377
f 1377 1362 1378
f 1363 1407 1364
f 1364 1407 1408
f 1393 1394 1361
f 1361 1394 1362
f 1365 1370 1366
f 1366 1370 1369
f 1360 1404 1409
f 1409 1404 1410
f 1402 1398 1411
f 1411 1398 1397
f 1399 1398 1382
f 1382 1398 1401
f 1409 1410 1399
f 1399 1410 1400
f 1388 1379 1401
f 1401 1379 1382
f 1367 1402 1412
f 1412 1402 1411
f 1364 1408 1377
f 1377 1408 1405
f 981 980 1406
f 1406 980 1390
f 1407 1363 1412
f 1412 1363 1367
f 1387 1371 1392
f 1392 1371 1370
f 1398 1402 1401
f 1401 1402 1396
f 1409 1399 1381
f 1381 1399 1382
f 1360 1409 1361
f 1361 1409 1381
f 1412 1411 1414
f 1414 1411 1413
f 1412 1414 1407
f 1407 1414 1415
f 1407 1415 1408
f 1408 1415 1416
f 1408 1416 1405
f 1405 1416 1417
f 1411 1397 1413
f 1413 1397 1418
f 1397 1400 1418
f 1418 1400 1419
f 1419 1400 1420
f 1420 1400 1410
f 1422 1413 1421
f 1421 1413 1418
f 1423 1424 1426
f 1426 1424 1425
f 1427 1428 1424
f 1424 1428 1425
f 1425 1428 1430
f 1430 1428 1429
f 1430 1431 1433
f 1433 1431 1432
f 1429 1434 1430
f 1430 1434 1431
f 1433 1426 1430
f 1430 1426 1425
f 1426 1435 1423
f 1423 1435 1436
f 1428 1427 1429
f 1429 1427 1437
f 1427 1415 1437
f 1437 1415 1414
f 1427 1438 1415
f 1415 1438 1416
f 1439 1438 1424
f 1424 1438 1427
f 1440 1439 1423
f 1423 1439 1424
f 1429 1437 1434
f 1434 1437 1422
f 1422 1437 1413
f 1413 1437 1414
f 1441 1440 1436
f 1436 1440 1423
f 1442 1439 1443
f 1443 1439 1440
f 1441 1444 1440
f 1440 1444 1443
f 1445 1442 1446
f 1446 1442 1443
f 1442 1445 1448
f 1448 1445 1447
f 1444 1449 1443
f 1443 1449 1446
f 1439 1442 1438
f 1438 1442 1448
f 1438 1448 1416
f 1416 1448 1417
f 1436 1450 1441
f 1441 1450 1451
f 1436 1435 1450
f 1450 1435 1452
f 1431 1434 1453
f 1453 1434 1422
f 1431 1453 1432
f 1432 1453 1454
f 1453 1422 1455
f 1455 1422 1421
f 1454 1453 1456
f 1456 1453 1455
f 1457 1458 1454
f 1454 1458 1432
f 1452 1458 1450
f 1450 1458 1457
f 1405 1417 1403
f 1403 1417 1459
f 1404 1460 1410
f 1410 1460 1420
f 1459 1460 1403
f 1403 1460 1404
f 1447 1461 1459
f 1459 1461 1460
f 1445 1462 1447
f 1447 1462 1461
f 1460 1461 1420
f 1420 1461 1463
f 1459 1417 1447
f 1447 1417 1448
f 1464 1419 1463
f 1463 1419 1420
f 1419 1464 1418
f 1418 1464 1421
f 1464 1465 1421
f 1421 1465 1455
f 1465 1464 1466
f 1466 1464 1463
f 1467 1465 1468
f 1468 1465 1466
f 1461 1462 1463
f 1463 1462 1466
f 1462 1469 1466
f 1466 1469 1468
f 1465 1467 1455
f 1455 1467 1456
f 1471 1456 1470
f 1470 1456 1467
f 1470 1473 1472
f 1472 1473 1474
f 1470 1467 1473
f 1473 1467 1468
f 1470 1472 1471
f 1471 1472 1451
f 1471 1451 1457
f 1457 1451 1450
f 1457 1454 1471
f 1471 1454 1456
f 1462 1445 1469
f 1469 1445 1446
f 1474 1469 1449
f 1449 1469 1446
f 1474 1473 1469
f 1469 1473 1468
f 1472 1474 1444
f 1444 1474 1449
f 1444 1441 1472
f 1472 1441 1451
f 1426 1433 1435
f 1435 1433 1452
f 1452 1433 1458
f 1458 1433 1432
f 1371 940 1372
f 1372 940 1068
f 1376 1375 1379
f 1379 1375 1380
f 1393 1386 1394
f 1394 1386 1385
f 1385 1387 1394
f 1394 1387 1392
f 1475 1373 1391
f 1391 1373 1376
f 1375 1386 1380
f 1380 1386 1393
f 1372 1068 1406
f 1406 1068 981
f 1406 1390 1395
f 1395 1390 1389
f 1371 1387 940
f 940 1387 978
f 883 807 1476
f 1476 807 1477
f 1046 904 1479
f 1479 904 1478
f 904 903 1478
f 1478 903 1480
f 1030 1481 1028
f 1028 1481 1482
f 810 1046 1483
f 1483 1046 1479
f 1066 883 1484
f 1484 883 1476
f 807 810 1477
f 1477 810 1483
f 1485 1029 1484
f 1484 1029 1066
f 1028 1482 903
f 903 1482 1480
f 1481 1030 1485
f 1485 1030 1029
f 1484 1486 1485
f 1485 1486 1487
f 1485 1487 1481
f 1481 1487 1488
f 1481 1488 1482
f 1482 1488 1489
f 1482 1489 1480
f 1480 1489 1490
f 1484 1476 1486
f 1486 1476 1491
f 1476 1477 1491
f 1491 1477 1492
f 1477 1483 1492
f 1492 1483 1493
f 1495 1486 1494
f 1494 1486 1491
f 1497 1498 1496
f 1496 1498 1499
f 1500 1501 1497
f 1497 1501 1498
f 1502 1503 1501
f 1501 1503 1498
f 1502 1504 1503
f 1503 1504 1505
f 1506 1499 1503
f 1503 1499 1498
f 1499 1506 1507
f 1507 1506 1508
f 1507 1509 1499
f 1499 1509 1496
f 1502 1501 1510
f 1510 1501 1500
f 1500 1488 1510
f 1510 1488 1487
f 1500 1511 1488
f 1488 1511 1489
f 1497 1512 1500
f 1500 1512 1511
f 1512 1497 1513
f 1513 1497 1496
f 1502 1510 1504
f 1504 1510 1495
f 1495 1510 1486
f 1486 1510 1487
f 1509 1514 1496
f 1496 1514 1513
f 1515 1512 1516
f 1516 1512 1513
f 1514 1517 1513
f 1513 1517 1516
f 1518 1515 1519
f 1519 1515 1516
f 1515 1518 1521
f 1521 1518 1520
f 1517 1522 1516
f 1516 1522 1519
f 1512 1515 1511
f 1511 1515 1521
f 1511 1521 1489
f 1489 1521 1490
f 1514 1509 1524
f 1524 1509 1523
f 1509 1507 1523
f 1523 1507 1508
f 1505 1504 1525
f 1525 1504 1495
f 1526 1505 1527
f 1527 1505 1525
f 1525 1495 1528
f 1528 1495 1494
f 1527 1525 1529
f 1529 1525 1528
f 1527 1530 1526
f 1526 1530 1531
f 1508 1531 1523
f 1523 1531 1530
f 1506 1503 1526
f 1526 1503 1505
f 1508 1506 1531
f 1531 1506 1526
f 1478 1480 1532
f 1532 1480 1490
f 1483 1479 1493
f 1493 1479 1533
f 1532 1533 1478
f 1478 1533 1479
f 1520 1534 1532
f 1532 1534 1533
f 1518 1535 1520
f 1520 1535 1534
f 1533 1534 1493
f 1493 1534 1536
f 1532 1490 1520
f 1520 1490 1521
f 1537 1492 1536
f 1536 1492 1493
f 1492 1537 1491
f 1491 1537 1494
f 1537 1538 1494
f 1494 1538 1528
f 1538 1537 1539
f 1539 1537 1536
f 1540 1538 1541
f 1541 1538 1539
f 1534 1535 1536
f 1536 1535 1539
f 1535 1542 1539
f 1539 1542 1541
f 1538 1540 1528
f 1528 1540 1529
f 1544 1529 1543
f 1543 1529 1540
f 1545 1543 1547
f 1547 1543 1546
f 1543 1540 1546
f 1546 1540 1541
f 1543 1545 1544
f 1544 1545 1524
f 1544 1524 1530
f 1530 1524 1523
f 1530 1527 1544
f 1544 1527 1529
f 1535 1518 1542
f 1542 1518 1519
f 1547 1542 1522
f 1522 1542 1519
f 1547 1546 1542
f 1542 1546 1541
f 1545 1547 1517
f 1517 1547 1522
f 1517 1514 1545
f 1545 1514 1524
f 997 995 986
f 986 995 987
f 987 995 988
f 988 995 971
f 976 1358 977
f 977 1358 1289
f 854 853 1067
f 1067 853 1050
f 1055 985 1069
f 1069 985 962
f 1068 961 981
f 981 961 862
f 1268 1358 920
f 920 1358 976
f 920 976 921
f 921 976 975
f 927 1054 850
f 850 1054 851
f 882 881 1057
f 1057 881 1548
f 1548 1374 1057
f 1057 1374 1373
f 1383 1374 1549
f 1549 1374 1548
f 1549 1548 1550
f 1550 1548 881
f 1550 881 1551
f 1551 881 880
f 933 1552 879
f 879 1552 880
f 1551 880 875
f 875 880 1552
f 1553 1551 878
f 878 1551 875
f 1551 1553 1550
f 1550 1553 1554
f 1550 1554 1549
f 1549 1554 1555
f 978 1384 975
f 975 1384 1555
f 967 849 1556
f 1556 849 852
f 875 1552 876
f 876 1552 933
f 961 939 962
f 962 939 1069
f 1555 1054 975
f 975 1054 921
f 1555 1384 1549
f 1549 1384 1383
f 1391 1390 1475
f 1475 1390 980
f 1373 1475 1057
f 1057 1475 980
f 851 1054 1554
f 1554 1054 1555
f 1554 1553 851
f 851 1553 852
f 878 1556 1553
f 1553 1556 852
f 1556 878 967
f 967 878 877
f 1023 1020 877
f 877 1020 967
f 909 811 1034
f 806 779 873
f 873 779 840
f 805 780 806
f 806 780 779
f 1043 893 1044
f 1044 893 892
f 873 840 847
f 847 840 842
f 840 839 842
f 842 839 843
f 839 791 843
f 843 791 908
f 791 790 908
f 908 790 792
f 809 789 810
f 810 789 1046
f 793 790 809
f 809 790 789
f 809 808 793
f 793 808 1009
f 808 884 1009
f 1009 884 1010
f 1065 1015 884
f 884 1015 1010
f 1032 868 1065
f 1065 868 1015
f 1031 822 1032
f 1032 822 868
f 1031 1027 822
f 822 1027 785
f 1045 905 1046
f 1046 905 904
f 788 781 1019
f 1019 781 894
f 781 780 894
f 894 780 892
f 780 805 892
f 892 805 1044
f 805 804 1044
f 1044 804 891
f 804 1064 891
f 891 1064 888
f 1064 1021 888
f 888 1021 1033
f 1021 1020 1033
f 1033 1020 1034
f 1020 1023 1034
f 1034 1023 909
f 1023 1022 909
f 909 1022 910
f 1043 815 893
f 893 815 819
f 819 815 820
f 820 815 818
f 870 869 818
f 818 869 820
f 1014 1011 870
f 870 1011 869
f 969 972 1014
f 1014 972 1011
f 1036 1063 1022
f 1022 1063 910
f 1035 833 1036
f 1036 833 1063
f 1035 932 979
f 979 932 963
f 834 979 982
f 982 979 958
f 833 1035 834
f 834 1035 979
f 982 863 834
f 834 863 830
f 864 900 831
f 831 900 857
f 990 993 864
f 864 993 900
f 989 994 990
f 990 994 993
f 970 1058 989
f 989 1058 994
f 969 1018 970
f 970 1018 1058
f 1027 902 785
f 785 902 786
f 902 905 786
f 786 905 1019
f 905 1045 1019
f 1019 1045 788
f 788 1045 787
f 787 1045 789
