o hand_left
v 0.061085 0.173442 0.913620
v 0.055646 0.182660 0.912635
v 0.065885 0.180209 0.915000
v 0.070562 0.172230 0.914948
v 0.062388 0.201039 0.917225
v 0.066716 0.210748 0.910721
v 0.079878 0.201166 0.914707
v 0.073832 0.194583 0.920183
v 0.078448 0.169572 0.913761
v 0.074022 0.177631 0.916506
v 0.081793 0.168045 0.908278
v 0.084487 0.159198 0.902488
v 0.082017 0.161680 0.909971
v 0.086320 0.151481 0.902080
v 0.080257 0.160732 0.891972
v 0.082403 0.145204 0.895572
v 0.053580 0.152107 0.888626
v 0.040818 0.149944 0.892309
v 0.047819 0.133940 0.898895
v 0.060574 0.138270 0.895444
v 0.028243 0.138234 0.905953
v 0.039354 0.135334 0.902439
v 0.032070 0.150284 0.894720
v 0.022665 0.152317 0.898394
v 0.045174 0.174424 0.914122
v 0.039304 0.183596 0.912196
v 0.044813 0.183319 0.911197
v 0.050508 0.174684 0.913107
v 0.089368 0.174151 0.903366
v 0.083960 0.176124 0.894361
v 0.083465 0.169780 0.899602
v 0.087479 0.172240 0.908410
v 0.020431 0.205302 0.913777
v 0.015219 0.213072 0.903956
v 0.020391 0.214409 0.901425
v 0.023915 0.206741 0.910673
v 0.044517 0.218266 0.901171
v 0.036114 0.219866 0.893480
v 0.039974 0.222648 0.880286
v 0.048768 0.218830 0.884871
v 0.055982 0.215346 0.907292
v 0.059538 0.217790 0.893695
v 0.070834 0.212805 0.899861
v 0.084175 0.203044 0.906543
v 0.003429 0.208804 0.906888
v 0.005589 0.202845 0.914973
v 0.090772 0.152880 0.937982
v 0.084812 0.152171 0.939366
v 0.084421 0.151462 0.937816
v 0.090463 0.152046 0.936799
v -0.006856 0.192044 0.901743
v -0.007391 0.186627 0.893266
v -0.010928 0.192911 0.891955
v -0.008913 0.198844 0.898988
v -0.004142 0.183081 0.905360
v -0.001958 0.178286 0.895380
v 0.098055 0.147676 0.947384
v 0.097791 0.150953 0.943249
v 0.098474 0.147037 0.941298
v 0.098165 0.142728 0.944747
v 0.075786 0.164385 0.914575
v 0.066569 0.165738 0.916322
v 0.079717 0.150078 0.917430
v 0.074760 0.154738 0.917567
v 0.080220 0.156645 0.913650
v 0.083960 0.152214 0.913859
v 0.051597 0.154159 0.922088
v 0.046878 0.163954 0.918014
v 0.053351 0.163637 0.916719
v 0.060191 0.153766 0.921221
v 0.034067 0.164026 0.924180
v 0.039607 0.154152 0.927169
v 0.031598 0.155419 0.930127
v 0.029351 0.162660 0.928440
v 0.051522 0.137949 0.929903
v 0.053727 0.133999 0.929845
v 0.050843 0.135317 0.932788
v 0.048015 0.138804 0.931186
v -0.014256 0.198776 0.889557
v -0.010186 0.205314 0.895709
v 0.009131 0.143298 0.916162
v 0.003606 0.151277 0.922137
v 0.006818 0.139833 0.929264
v 0.011836 0.132963 0.920387
v -0.002056 0.182854 0.885209
v -0.007713 0.188139 0.883711
v 0.094556 0.144082 0.951367
v 0.094583 0.139205 0.949043
v 0.069319 0.208401 0.887331
v 0.085065 0.200086 0.897152
v 0.056058 0.212342 0.879922
v 0.046351 0.213755 0.874351
v 0.039851 0.217415 0.869401
v 0.070984 0.150167 0.920617
v 0.057447 0.167698 0.915375
v 0.040401 0.174291 0.915759
v 0.014451 0.171070 0.932331
v 0.010836 0.180272 0.929031
v 0.021470 0.179233 0.927370
v 0.022291 0.171073 0.930099
v 0.004472 0.156801 0.930554
v 0.010872 0.159878 0.934670
v 0.013188 0.152353 0.937135
v 0.007361 0.147333 0.934638
v 0.093708 0.179396 0.899899
v 0.084487 0.182910 0.890687
v -0.002756 0.198424 0.909185
v -0.003032 0.204894 0.904711
v -0.005540 0.210694 0.898936
v 0.031054 0.195424 0.913280
v 0.026442 0.207927 0.908709
v 0.030991 0.208908 0.908129
v 0.033724 0.195294 0.911715
v 0.051054 0.193207 0.914612
v 0.048533 0.206463 0.913344
v 0.062223 0.188702 0.918330
v 0.026723 0.217714 0.897372
v 0.016678 0.222108 0.895607
v 0.023985 0.224136 0.890872
v 0.007834 0.218949 0.898538
v -0.000086 0.215071 0.900026
v -0.013617 0.192582 0.879347
v 0.030672 0.224350 0.885689
v 0.081804 0.189556 0.921253
v 0.089019 0.185411 0.922291
v 0.085558 0.178618 0.920696
v 0.078274 0.181675 0.919956
v 0.089101 0.144795 0.906126
v 0.087853 0.150256 0.910588
v 0.085073 0.156322 0.907892
v 0.020064 0.195637 0.920259
v 0.007483 0.194096 0.921183
v 0.075827 0.146114 0.920344
v 0.097447 0.139745 0.939609
v 0.097947 0.145078 0.936583
v 0.092910 0.144219 0.917040
v 0.092809 0.137162 0.919102
v 0.073872 0.139047 0.923198
v 0.075037 0.145929 0.921013
v 0.074597 0.145704 0.922124
v 0.072652 0.140577 0.926290
v 0.041877 0.137428 0.935119
v 0.039829 0.140926 0.933567
v 0.067412 0.127767 0.906669
v 0.078991 0.130391 0.899076
v 0.072341 0.141478 0.891652
v 0.044465 0.154613 0.924352
v 0.047946 0.145783 0.928161
v 0.044009 0.145824 0.929496
v 0.069464 0.146334 0.922634
v 0.072600 0.141556 0.922938
v 0.068732 0.141125 0.924151
v 0.064369 0.146487 0.923799
v -0.000091 0.162445 0.915472
v 0.000723 0.168390 0.925646
v 0.095308 0.152598 0.939615
v 0.095645 0.150491 0.938172
v 0.040015 0.164253 0.920363
v 0.064560 0.155262 0.887691
v 0.035338 0.174334 0.917938
v 0.030086 0.126973 0.925540
v 0.029442 0.131214 0.933511
v 0.032336 0.130523 0.936881
v 0.034121 0.126166 0.933337
v 0.076880 0.142257 0.940547
v 0.078016 0.147861 0.938659
v 0.079735 0.148114 0.940575
v 0.078511 0.143477 0.944414
v 0.078519 0.149846 0.918125
v 0.084050 0.151154 0.915506
v 0.083460 0.152038 0.918560
v 0.078265 0.149482 0.920913
v 0.088361 0.149193 0.912632
v 0.089180 0.149562 0.916662
v 0.079796 0.136695 0.942997
v 0.087055 0.134018 0.944446
v 0.081375 0.129893 0.925200
v 0.075651 0.133876 0.928620
v 0.016895 0.164237 0.890229
v 0.007561 0.165546 0.896259
v 0.012867 0.153455 0.904393
v 0.017284 0.140174 0.911993
v 0.023101 0.128705 0.919320
v 0.032677 0.125884 0.912222
v 0.005992 0.156047 0.908348
v 0.070926 0.131917 0.918066
v 0.076227 0.128415 0.914006
v 0.070266 0.128253 0.913847
v 0.029375 0.174468 0.922475
v 0.095087 0.149857 0.934709
v 0.032643 0.197005 0.864716
v 0.021083 0.190477 0.866371
v 0.027078 0.185179 0.870089
v 0.040075 0.192950 0.869004
v 0.083041 0.152358 0.936325
v 0.089346 0.153129 0.934310
v 0.034435 0.140666 0.937344
v 0.037032 0.136976 0.938364
v 0.034279 0.135625 0.939447
v 0.030877 0.138777 0.940882
v 0.002778 0.167849 0.899138
v 0.011007 0.136433 0.937849
v 0.015794 0.129500 0.928707
v 0.003285 0.175767 0.888914
v 0.011086 0.174373 0.883147
v 0.006338 0.181479 0.878278
v 0.047564 0.124254 0.912964
v 0.024952 0.162308 0.887498
v 0.018303 0.173507 0.880642
v 0.012950 0.181970 0.874726
v 0.008341 0.187470 0.870327
v 0.001594 0.186440 0.874757
v 0.093086 0.135864 0.942944
v 0.087835 0.137447 0.951219
v -0.004526 0.191028 0.869729
v 0.003559 0.192435 0.865379
v 0.027088 0.173913 0.877828
v 0.037858 0.175710 0.875440
v 0.033231 0.163197 0.884738
v 0.044448 0.163818 0.882684
v 0.054732 0.122125 0.904218
v 0.081785 0.154013 0.957071
v 0.082004 0.143940 0.952582
v 0.079331 0.146130 0.947724
v 0.078587 0.154191 0.954073
v 0.081089 0.139654 0.948264
v 0.087640 0.142691 0.953751
v 0.057903 0.169058 0.881973
v 0.070772 0.137077 0.923430
v 0.052909 0.184831 0.875974
v 0.074450 0.171454 0.884772
v 0.071192 0.184415 0.882365
v 0.049987 0.201785 0.871140
v 0.064982 0.199037 0.878298
v 0.035528 0.209177 0.863314
v 0.041694 0.204310 0.867224
v 0.078759 0.195170 0.886678
v 0.086473 0.159399 0.941549
v 0.080996 0.157245 0.943516
v 0.027328 0.201801 0.860436
v 0.071275 0.184632 0.919431
v 0.027457 0.184853 0.919684
v 0.031948 0.184233 0.916306
v 0.009306 0.185799 0.926253
v 0.020973 0.186445 0.924150
v 0.091836 0.159983 0.943029
v 0.053115 0.131710 0.930269
v 0.052215 0.132954 0.930782
v 0.087076 0.195730 0.917701
v 0.092542 0.191454 0.919192
v 0.098358 0.189698 0.907478
v 0.096699 0.192518 0.913819
v 0.091257 0.197728 0.910398
v 0.092660 0.195066 0.903208
v 0.029000 0.195216 0.914897
v 0.025825 0.194724 0.917178
v -0.002571 0.173473 0.910371
v -0.001125 0.178602 0.920735
v 0.090265 0.143733 0.910671
v 0.086983 0.137478 0.903684
v 0.089086 0.136731 0.910249
v 0.087959 0.131487 0.919988
v 0.071497 0.135143 0.921981
v 0.073499 0.133378 0.921648
v 0.038954 0.207906 0.910733
v 0.040550 0.194852 0.911854
v 0.079107 0.175720 0.915829
v 0.084823 0.173243 0.915653
v 0.056376 0.147073 0.924833
v 0.054655 0.123422 0.922306
v 0.060748 0.122656 0.914968
v 0.060506 0.139578 0.926560
v 0.094971 0.158658 0.950897
v 0.094233 0.159908 0.946140
v 0.084520 0.130958 0.910782
v 0.036443 0.147301 0.932943
v 0.048798 0.124482 0.922332
v 0.052521 0.126312 0.928016
v 0.010461 0.144392 0.938603
v 0.015983 0.196407 0.862013
v 0.079622 0.149678 0.942944
v 0.077679 0.154931 0.947277
v 0.086181 0.153779 0.957553
v 0.092143 0.154927 0.955156
v -0.001011 0.188547 0.915800
v 0.035119 0.183535 0.914324
v 0.088912 0.190499 0.894328
v 0.096599 0.184920 0.901974
v 0.062162 0.135656 0.925795
v 0.024218 0.129039 0.929493
v 0.037562 0.123128 0.921713
v 0.041718 0.122236 0.930994
v 0.049186 0.123853 0.930989
v 0.053396 0.129133 0.932494
v 0.084251 0.160108 0.958752
v 0.090090 0.160900 0.956306
v 0.093234 0.163325 0.951462
v 0.092905 0.163179 0.946885
v 0.090156 0.162047 0.943721
v 0.079478 0.159926 0.957696
v 0.076904 0.159268 0.954553
v 0.076744 0.157196 0.948627
v 0.076924 0.164045 0.955706
v 0.080571 0.168340 0.956434
v 0.086491 0.173401 0.943839
v 0.089190 0.170341 0.948522
v 0.086998 0.172296 0.948940
v 0.084362 0.175203 0.945531
v 0.081002 0.178730 0.943333
v 0.083135 0.177310 0.940947
v 0.085415 0.170367 0.953207
v 0.081298 0.174545 0.949077
v 0.077682 0.173215 0.950899
v 0.074975 0.177228 0.947716
v 0.078070 0.178654 0.946211
v 0.080676 0.170760 0.953941
v 0.087117 0.168658 0.955012
v 0.079252 0.179849 0.940174
v 0.078847 0.180688 0.942491
v 0.076114 0.180470 0.944339
v 0.074565 0.180849 0.941731
v 0.090648 0.166079 0.945003
v 0.086466 0.172120 0.941439
v 0.081776 0.175299 0.938877
v 0.078038 0.177983 0.938439
v 0.083252 0.170442 0.939166
v 0.079720 0.173297 0.937997
v 0.076189 0.175264 0.937900
v 0.079242 0.168644 0.938617
v 0.076877 0.171656 0.938162
v 0.084909 0.161246 0.942542
v 0.089104 0.162398 0.942935
v 0.075100 0.173355 0.937636
v 0.073279 0.179579 0.940503
v 0.075564 0.170427 0.952323
v 0.072699 0.175078 0.947377
v 0.073856 0.168787 0.951369
v 0.070931 0.173600 0.946980
v 0.071445 0.178782 0.944897
v 0.073813 0.179160 0.945655
v 0.085359 0.160035 0.942671
v 0.079696 0.157784 0.944969
v 0.079277 0.158876 0.944974
v 0.075004 0.166697 0.940631
v 0.076023 0.159131 0.948118
v 0.074864 0.162621 0.952279
v 0.072320 0.167858 0.948673
v 0.072205 0.166732 0.945218
v 0.070541 0.171796 0.945169
v 0.071304 0.170686 0.942986
v 0.073541 0.170547 0.939618
v 0.070456 0.174732 0.942230
v 0.070537 0.177141 0.943879
v 0.072729 0.176391 0.939546
v 0.070837 0.173066 0.941428
v 0.073091 0.173815 0.939393
v 0.070756 0.142620 0.944226
v 0.064518 0.142122 0.946425
v 0.066304 0.138983 0.945412
v 0.071544 0.139237 0.943549
v 0.079056 0.135277 0.953505
v 0.078174 0.139585 0.948645
v 0.079494 0.133807 0.947143
v 0.078647 0.128586 0.951660
v 0.074407 0.131277 0.957954
v 0.073410 0.125050 0.954997
v 0.077689 0.125412 0.945917
v 0.078670 0.131708 0.942520
v 0.072326 0.131304 0.923475
v 0.070552 0.125128 0.923982
v 0.056459 0.136242 0.930079
v 0.054506 0.133716 0.931706
v 0.074700 0.141825 0.945341
v 0.076123 0.137558 0.944303
v 0.058806 0.134780 0.947424
v 0.061736 0.138849 0.945102
v 0.061672 0.138096 0.947179
v 0.059690 0.134735 0.951188
v 0.068156 0.138186 0.924908
v 0.062226 0.136766 0.927363
v 0.070907 0.135754 0.923897
v 0.059224 0.128592 0.950207
v 0.063478 0.123246 0.951226
v 0.057798 0.121372 0.930928
v 0.054222 0.125656 0.933401
v 0.076597 0.136360 0.941218
v 0.067243 0.140766 0.943493
v 0.072326 0.140154 0.941450
v 0.071068 0.122031 0.947991
v 0.065526 0.126997 0.957411
v 0.061211 0.147230 0.962331
v 0.061171 0.136115 0.958145
v 0.059273 0.138704 0.954017
v 0.058309 0.149137 0.958497
v 0.061082 0.130798 0.955083
v 0.066229 0.133341 0.959847
v 0.067317 0.154607 0.948449
v 0.061113 0.153383 0.950379
v 0.071855 0.154661 0.949656
v 0.064829 0.121482 0.926154
v 0.076495 0.149230 0.957530
v 0.074984 0.153000 0.952185
v 0.060070 0.140585 0.949184
v 0.057884 0.151563 0.954009
v 0.065428 0.146049 0.963926
v 0.072808 0.145086 0.961830
v 0.064788 0.152170 0.965217
v 0.071216 0.152768 0.963544
v 0.074893 0.156051 0.958713
v 0.073617 0.157463 0.953030
v 0.070736 0.157307 0.950279
v 0.060545 0.152666 0.963464
v 0.057805 0.153349 0.959415
v 0.058245 0.153681 0.954207
v 0.057729 0.158704 0.961475
v 0.061397 0.160389 0.964046
v 0.066065 0.174325 0.951497
v 0.068859 0.169407 0.953879
v 0.067520 0.169892 0.956126
v 0.064906 0.174393 0.954099
v 0.071286 0.164974 0.957929
v 0.069206 0.166261 0.958868
v 0.066397 0.163993 0.962048
v 0.063663 0.168934 0.958939
v 0.059531 0.166676 0.960399
v 0.057178 0.171705 0.958651
v 0.061113 0.174232 0.957394
v 0.062426 0.163824 0.962573
v 0.062527 0.177110 0.953427
v 0.061664 0.177944 0.951100
v 0.068340 0.161481 0.963680
v 0.072587 0.161394 0.953254
v 0.068557 0.168903 0.950744
v 0.064666 0.173809 0.948532
v 0.059399 0.177097 0.949198
v 0.065583 0.167927 0.947770
v 0.062069 0.172623 0.946889
v 0.057837 0.175102 0.948145
v 0.061295 0.166190 0.946278
v 0.058162 0.170899 0.946357
v 0.065892 0.157490 0.948599
v 0.070114 0.159473 0.949620
v 0.057009 0.172953 0.947377
v 0.057818 0.178419 0.954037
v 0.055871 0.177518 0.951455
v 0.058977 0.177478 0.955224
v 0.057670 0.165534 0.960444
v 0.055287 0.171078 0.957671
v 0.055321 0.164654 0.958871
v 0.053327 0.170865 0.956194
v 0.054555 0.175524 0.955945
v 0.056083 0.175803 0.956624
v 0.066607 0.156175 0.949501
v 0.061240 0.154576 0.951124
v 0.060715 0.155358 0.950156
v 0.056545 0.164324 0.948378
v 0.057441 0.154694 0.953737
v 0.056318 0.157173 0.958280
v 0.054042 0.163479 0.956535
v 0.053936 0.163537 0.952414
v 0.051915 0.169846 0.954877
v 0.052514 0.167995 0.952224
v 0.054796 0.169005 0.948003
v 0.052063 0.174160 0.953066
v 0.053265 0.175288 0.954751
v 0.055101 0.175869 0.950170
v 0.052237 0.171771 0.951324
v 0.054614 0.173040 0.948751
v 0.049881 0.141463 0.950086
v 0.044364 0.140681 0.952506
v 0.044902 0.138538 0.951652
v 0.050522 0.138688 0.950258
v 0.058341 0.136231 0.957789
v 0.057536 0.139272 0.954034
v 0.058243 0.134483 0.952640
v 0.058745 0.130047 0.955267
v 0.055215 0.135056 0.962461
v 0.055844 0.126555 0.958783
v 0.057919 0.126713 0.951120
v 0.058094 0.132280 0.949957
v 0.054468 0.129796 0.936922
v 0.052423 0.123890 0.937846
v 0.054165 0.140931 0.951133
v 0.054713 0.137513 0.950607
v 0.039117 0.135693 0.954459
v 0.041982 0.139272 0.952183
v 0.041082 0.136722 0.955021
v 0.040604 0.134020 0.958827
v 0.048851 0.138347 0.935720
v 0.043008 0.138206 0.937143
v 0.052573 0.135255 0.936398
v 0.040366 0.129597 0.956479
v 0.045436 0.124034 0.956584
v 0.038409 0.124298 0.942289
v 0.035561 0.129525 0.942586
v 0.055800 0.136580 0.949060
v 0.046249 0.141102 0.949559
v 0.051751 0.140205 0.948360
v 0.052558 0.123544 0.953276
v 0.048950 0.127269 0.962070
v 0.043343 0.149909 0.968890
v 0.043840 0.134332 0.964242
v 0.040492 0.136812 0.960138
v 0.039971 0.150460 0.965973
v 0.043441 0.130584 0.961924
v 0.049179 0.133372 0.964974
v 0.046673 0.154490 0.953761
v 0.041888 0.152942 0.956475
v 0.051102 0.153632 0.954559
v 0.046016 0.121114 0.939668
v 0.036318 0.135497 0.941002
v 0.055534 0.152364 0.960723
v 0.053818 0.153281 0.956701
v 0.040874 0.138573 0.956205
v 0.038993 0.151407 0.961406
v 0.048330 0.149019 0.969291
v 0.053894 0.149328 0.965862
v 0.046774 0.154931 0.970184
v 0.052341 0.155601 0.966722
v 0.054160 0.157645 0.961303
v 0.052178 0.157414 0.956944
v 0.049464 0.157003 0.954819
v 0.041618 0.154875 0.969122
v 0.038912 0.154515 0.966171
v 0.039227 0.152646 0.961353
v 0.039535 0.158659 0.968357
v 0.044106 0.161744 0.969219
v 0.043313 0.174266 0.956665
v 0.046590 0.169265 0.957859
v 0.046244 0.169402 0.959037
v 0.043225 0.174603 0.958382
v 0.050561 0.164298 0.961083
v 0.049192 0.165824 0.961557
v 0.047997 0.164560 0.965293
v 0.044154 0.169957 0.963935
v 0.039531 0.166951 0.966602
v 0.037276 0.171644 0.965058
v 0.041352 0.174883 0.962838
v 0.044165 0.163706 0.967766
v 0.041047 0.177172 0.958642
v 0.041319 0.178127 0.956984
v 0.049476 0.162376 0.966432
v 0.050325 0.162181 0.956526
v 0.046083 0.168460 0.954970
v 0.042780 0.173466 0.953628
v 0.039366 0.176407 0.954358
v 0.043220 0.166675 0.953067
v 0.040536 0.171432 0.952648
v 0.037561 0.174155 0.953406
v 0.040178 0.165171 0.952985
v 0.037961 0.169446 0.952988
v 0.044773 0.157245 0.954299
v 0.047957 0.159661 0.954412
v 0.036421 0.172104 0.953672
v 0.037908 0.178500 0.960393
v 0.034865 0.176862 0.957920
v 0.038961 0.177296 0.961104
v 0.038336 0.165633 0.967239
v 0.034964 0.171335 0.965296
v 0.036074 0.164124 0.966273
v 0.032946 0.169812 0.964350
v 0.034887 0.175472 0.963529
v 0.036083 0.175298 0.963580
v 0.045856 0.155648 0.954611
v 0.041620 0.153712 0.957062
v 0.040862 0.155044 0.956662
v 0.036020 0.163493 0.955157
v 0.038344 0.154163 0.960806
v 0.037111 0.157992 0.965360
v 0.034549 0.163183 0.963373
v 0.033970 0.163056 0.959462
v 0.032073 0.168428 0.962019
v 0.032697 0.167106 0.959514
v 0.034390 0.167885 0.954830
v 0.032325 0.172157 0.960047
v 0.032899 0.174153 0.962215
v 0.033966 0.174303 0.956232
v 0.032368 0.170397 0.958236
v 0.033777 0.171935 0.955380
v 0.038809 0.137511 0.939122
v 0.032594 0.147965 0.955985
v 0.028667 0.148694 0.957778
v 0.028705 0.147923 0.958586
v 0.032463 0.146609 0.955782
v 0.038113 0.138736 0.960562
v 0.038040 0.142994 0.957906
v 0.037713 0.138959 0.956174
v 0.037029 0.134524 0.958190
v 0.034675 0.135754 0.963895
v 0.032748 0.132340 0.962059
v 0.035027 0.133431 0.955267
v 0.036617 0.137596 0.953947
v 0.030958 0.134535 0.940111
v 0.026986 0.130735 0.939283
v 0.012991 0.143131 0.944479
v 0.017272 0.147081 0.942676
v 0.018468 0.145646 0.950743
v 0.015290 0.142124 0.951180
v 0.035831 0.145910 0.956346
v 0.035831 0.143559 0.954887
v 0.021826 0.143035 0.963935
v 0.024437 0.146677 0.961515
v 0.025174 0.147596 0.961395
v 0.022549 0.145604 0.965280
v 0.022906 0.147161 0.941918
v 0.027350 0.143813 0.940748
v 0.027446 0.144711 0.944628
v 0.023449 0.146195 0.949456
v 0.030656 0.140394 0.942962
v 0.022019 0.138246 0.964462
v 0.025070 0.132985 0.962917
v 0.014512 0.132632 0.946859
v 0.013664 0.137299 0.949096
v 0.035981 0.141728 0.955059
v 0.028466 0.147458 0.958354
v 0.032688 0.145651 0.957285
v 0.030255 0.130611 0.957733
v 0.027374 0.135937 0.966204
v 0.026904 0.148700 0.970913
v 0.024799 0.143171 0.968265
v 0.023144 0.146398 0.965234
v 0.024704 0.150175 0.968510
v 0.023593 0.141292 0.967102
v 0.029193 0.139689 0.967903
v 0.031919 0.152549 0.957590
v 0.027299 0.152380 0.960700
v 0.035282 0.151655 0.957626
v 0.020673 0.129753 0.941130
v 0.039288 0.147745 0.962766
v 0.037852 0.150568 0.959532
v 0.025541 0.148301 0.961121
v 0.024585 0.151682 0.964617
v 0.031628 0.146810 0.971195
v 0.036833 0.144831 0.967374
v 0.032707 0.151668 0.971866
v 0.037656 0.150046 0.968122
v 0.038815 0.152527 0.962010
v 0.036313 0.152942 0.958790
v 0.033395 0.153099 0.957387
v 0.027427 0.152272 0.971357
v 0.025176 0.152511 0.969340
v 0.024795 0.152402 0.965225
v 0.027824 0.156235 0.971445
v 0.032061 0.158332 0.970146
v 0.029674 0.166354 0.959658
v 0.031935 0.162614 0.959646
v 0.032146 0.162966 0.960793
v 0.030352 0.166765 0.960417
v 0.035544 0.158406 0.961146
v 0.034693 0.159870 0.962163
v 0.035117 0.158515 0.965685
v 0.032442 0.163431 0.965097
v 0.028999 0.162947 0.969277
v 0.027394 0.166794 0.968380
v 0.030806 0.167033 0.964964
v 0.032360 0.159734 0.969007
v 0.029500 0.169409 0.961242
v 0.028591 0.170245 0.960450
v 0.036785 0.156464 0.966430
v 0.033545 0.156586 0.957984
v 0.030077 0.162601 0.957666
v 0.027775 0.167348 0.958196
v 0.026166 0.170448 0.960184
v 0.028050 0.161197 0.957061
v 0.025637 0.166637 0.957624
v 0.024141 0.169440 0.959706
v 0.025062 0.159826 0.957934
v 0.023627 0.165240 0.958485
v 0.027286 0.154213 0.958212
v 0.030436 0.155486 0.957043
v 0.023197 0.167964 0.959931
v 0.027708 0.171342 0.964212
v 0.024817 0.170968 0.963262
v 0.029030 0.170390 0.964888
v 0.027927 0.162467 0.970078
v 0.025771 0.167043 0.968942
v 0.025717 0.161571 0.970307
v 0.023700 0.166549 0.968434
v 0.025757 0.170122 0.967070
v 0.027569 0.169303 0.967087
v 0.029394 0.153460 0.958055
v 0.026783 0.152992 0.960736
v 0.024815 0.153743 0.961706
v 0.022529 0.158985 0.961340
v 0.023863 0.153629 0.966550
v 0.025214 0.154851 0.970127
v 0.023427 0.160611 0.969014
v 0.021793 0.159674 0.966112
v 0.022123 0.166066 0.966977
v 0.020966 0.164683 0.964510
v 0.021446 0.164338 0.961094
v 0.022574 0.169074 0.964596
v 0.023696 0.170010 0.965830
v 0.023187 0.169882 0.962478
v 0.021713 0.167821 0.963397
v 0.022166 0.167932 0.961740
v 0.012707 0.139158 0.944646
v 0.102339 0.172617 0.909108
v 0.098739 0.168995 0.911649
v 0.096694 0.175382 0.926266
v 0.095625 0.169750 0.922382
v 0.100338 0.180999 0.926649
v 0.105765 0.185723 0.918555
v 0.102776 0.184952 0.923131
v 0.096404 0.167464 0.916998
v 0.105350 0.177791 0.908526
v 0.106928 0.183674 0.912143
v 0.111201 0.173102 0.911178
v 0.112782 0.179387 0.915170
v 0.112125 0.181999 0.921515
v 0.107783 0.181534 0.926558
v 0.104534 0.179020 0.929422
v 0.106339 0.168289 0.912217
v 0.102464 0.165267 0.915040
v 0.098969 0.165343 0.920598
v 0.110108 0.162534 0.916758
v 0.119055 0.162032 0.921788
v 0.127015 0.165698 0.938916
v 0.122435 0.169788 0.935940
v 0.123976 0.168367 0.933829
v 0.128420 0.165214 0.936581
v 0.120608 0.172134 0.931254
v 0.121729 0.169987 0.930674
v 0.121210 0.167287 0.926073
v 0.125131 0.164410 0.928751
v 0.120550 0.162524 0.924076
v 0.122414 0.159434 0.925953
v 0.128985 0.161358 0.931287
v 0.131438 0.162531 0.936497
v 0.131974 0.158684 0.933783
v 0.130356 0.161442 0.939435
v 0.122051 0.168536 0.924319
v 0.114649 0.176320 0.932113
v 0.119009 0.170727 0.937561
v 0.123738 0.165078 0.940912
v 0.127776 0.160068 0.941057
v 0.114855 0.169123 0.938832
v 0.119463 0.163387 0.940953
v 0.122839 0.158483 0.940528
v 0.111309 0.165682 0.938054
v 0.116618 0.160875 0.939451
v 0.102700 0.172629 0.931208
v 0.107985 0.176393 0.932866
v 0.120137 0.158152 0.939335
v 0.132091 0.156527 0.935824
v 0.129074 0.154937 0.937581
v 0.120008 0.157311 0.924436
v 0.126458 0.156481 0.927899
v 0.124120 0.154239 0.927953
v 0.116058 0.156039 0.923983
v 0.121572 0.152776 0.928685
v 0.128715 0.153508 0.931415
v 0.129745 0.156158 0.930462
v 0.100122 0.174580 0.928984
v 0.097924 0.169531 0.925200
v 0.100420 0.167530 0.927180
v 0.108586 0.161015 0.933949
v 0.101537 0.162734 0.923162
v 0.105803 0.161158 0.918892
v 0.112589 0.155395 0.925703
v 0.109443 0.157034 0.929188
v 0.118489 0.152946 0.930872
v 0.116544 0.154355 0.932912
v 0.115699 0.157334 0.936850
v 0.122538 0.152762 0.934350
v 0.125854 0.152156 0.932675
v 0.124200 0.154718 0.937978
v 0.119944 0.154026 0.934914
v 0.120481 0.155682 0.937498
v 0.015712 0.149494 0.939140
v 0.022533 0.150006 0.938430
v 0.019368 0.154061 0.936736
v 0.017008 0.161936 0.935098
v 0.009004 0.167739 0.932082
v 0.023576 0.162414 0.932447
v 0.025744 0.153958 0.934556
v 0.030157 0.147256 0.936835
v 0.027226 0.169600 0.926423
f 2 3 1
f 1 3 4
f 5 6 8
f 8 6 7
f 9 4 10
f 10 4 3
f 12 13 11
f 11 13 9
f 14 12 16
f 16 12 15
f 18 19 17
f 17 19 20
f 22 23 21
f 21 23 24
f 26 27 25
f 25 27 28
f 30 31 29
f 29 31 32
f 33 34 36
f 36 34 35
f 37 38 40
f 40 38 39
f 41 42 6
f 6 42 43
f 6 43 7
f 7 43 44
f 45 34 46
f 46 34 33
f 48 49 47
f 47 49 50
f 52 53 51
f 51 53 54
f 56 52 55
f 55 52 51
f 58 59 57
f 57 59 60
f 61 62 4
f 4 62 1
f 64 65 63
f 63 65 66
f 68 69 67
f 67 69 70
f 72 73 71
f 71 73 74
f 76 77 75
f 75 77 78
f 53 79 54
f 54 79 80
f 82 83 81
f 81 83 84
f 85 86 52
f 52 86 53
f 57 60 87
f 87 60 88
f 89 90 43
f 43 90 44
f 43 42 89
f 89 42 91
f 40 39 92
f 92 39 93
f 94 70 64
f 64 70 69
f 13 61 9
f 9 61 4
f 25 28 69
f 69 28 95
f 96 25 68
f 68 25 69
f 98 99 97
f 97 99 100
f 101 102 104
f 104 102 103
f 106 30 105
f 105 30 29
f 51 54 107
f 107 54 108
f 54 80 108
f 108 80 109
f 111 112 110
f 110 112 113
f 115 5 114
f 114 5 116
f 115 41 5
f 5 41 6
f 36 35 111
f 111 35 117
f 35 118 117
f 117 118 119
f 34 120 35
f 35 120 118
f 34 45 120
f 120 45 121
f 125 126 124
f 124 126 127
f 128 129 14
f 14 129 130
f 33 131 46
f 46 131 132
f 133 94 63
f 63 94 64
f 134 135 137
f 137 135 136
f 139 140 138
f 138 140 141
f 77 142 78
f 78 142 143
f 144 145 20
f 20 145 146
f 148 149 147
f 147 149 72
f 151 152 150
f 150 152 153
f 82 101 83
f 83 101 104
f 101 82 155
f 155 82 154
f 156 157 58
f 58 157 59
f 158 68 147
f 147 68 67
f 159 146 15
f 15 146 16
f 68 158 96
f 96 158 160
f 129 66 130
f 130 66 65
f 162 163 161
f 161 163 164
f 166 167 165
f 165 167 168
f 170 171 169
f 169 171 172
f 174 171 173
f 173 171 170
f 176 177 175
f 175 177 178
f 180 181 179
f 179 181 24
f 182 183 21
f 21 183 184
f 81 185 82
f 82 185 154
f 186 187 188
f 188 187 144
f 158 71 160
f 160 71 189
f 190 135 157
f 157 135 59
f 169 172 139
f 139 172 140
f 147 72 158
f 158 72 71
f 192 193 191
f 191 193 194
f 167 166 49
f 49 166 195
f 196 190 50
f 50 190 157
f 197 198 200
f 200 198 199
f 21 24 182
f 182 24 181
f 146 159 20
f 20 159 17
f 182 181 81
f 81 181 185
f 201 185 180
f 180 185 181
f 202 203 83
f 83 203 84
f 205 206 204
f 204 206 85
f 207 22 184
f 184 22 21
f 179 24 208
f 208 24 23
f 208 209 179
f 179 209 205
f 209 210 205
f 205 210 206
f 212 206 211
f 211 206 210
f 179 205 180
f 180 205 204
f 213 176 88
f 88 176 214
f 86 85 212
f 212 85 206
f 193 217 218
f 217 219 218
f 218 219 220
f 219 18 220
f 220 18 17
f 19 221 20
f 20 221 144
f 222 223 225
f 225 223 224
f 175 226 176
f 176 226 214
f 227 87 214
f 214 87 88
f 220 17 228
f 228 17 159
f 134 213 60
f 60 213 88
f 138 229 151
f 151 229 152
f 193 192 210
f 210 192 211
f 230 194 218
f 218 194 193
f 231 232 228
f 228 232 230
f 233 234 91
f 91 234 89
f 235 236 93
f 93 236 92
f 230 232 234
f 234 232 237
f 47 238 48
f 48 238 239
f 240 191 235
f 235 191 236
f 5 8 116
f 116 8 241
f 242 243 189
f 189 243 160
f 244 245 98
f 98 245 99
f 156 246 47
f 47 246 238
f 76 247 77
f 77 247 248
f 250 125 249
f 249 125 124
f 252 253 251
f 251 253 254
f 111 110 36
f 36 110 255
f 256 33 255
f 255 33 36
f 257 258 154
f 154 258 155
f 63 169 133
f 133 169 139
f 66 170 63
f 63 170 169
f 173 170 129
f 129 170 66
f 129 128 173
f 173 128 259
f 128 260 259
f 259 260 261
f 213 134 262
f 262 134 137
f 263 264 186
f 186 264 187
f 112 265 113
f 113 265 266
f 11 267 268
f 234 233 230
f 230 233 194
f 153 269 70
f 70 269 67
f 175 178 165
f 165 178 141
f 150 153 94
f 94 153 70
f 271 221 270
f 270 221 207
f 269 153 272
f 272 153 152
f 121 45 109
f 109 45 108
f 47 50 156
f 156 50 157
f 57 273 58
f 58 273 274
f 145 275 260
f 260 275 261
f 276 149 143
f 143 149 78
f 148 269 75
f 75 269 272
f 207 277 270
f 270 277 278
f 195 196 49
f 49 196 50
f 59 135 60
f 60 135 134
f 83 104 202
f 202 104 279
f 149 148 78
f 78 148 75
f 247 278 248
f 248 278 277
f 183 182 84
f 84 182 81
f 48 239 281
f 281 239 282
f 227 223 283
f 283 223 222
f 223 226 224
f 224 226 168
f 281 282 224
f 224 282 225
f 165 168 175
f 175 168 226
f 264 263 138
f 138 263 229
f 14 16 128
f 128 16 260
f 220 228 218
f 218 228 230
f 87 227 284
f 284 227 283
f 260 16 145
f 145 16 146
f 244 98 258
f 258 98 155
f 58 274 156
f 156 274 246
f 107 285 51
f 51 285 55
f 243 286 160
f 160 286 96
f 234 237 89
f 89 237 90
f 46 132 107
f 107 132 285
f 253 252 249
f 249 252 250
f 286 26 96
f 96 26 25
f 106 105 287
f 287 105 288
f 272 152 289
f 289 152 229
f 138 151 139
f 139 151 133
f 183 290 161
f 161 290 162
f 291 292 277
f 277 292 293
f 151 150 133
f 133 150 94
f 262 275 177
f 177 275 187
f 144 187 145
f 145 187 275
f 273 57 284
f 284 57 87
f 174 136 190
f 190 136 135
f 111 117 112
f 112 117 38
f 117 119 38
f 38 119 123
f 112 38 265
f 265 38 37
f 287 288 254
f 254 288 251
f 228 159 231
f 231 159 15
f 223 227 226
f 226 227 214
f 147 67 148
f 148 67 269
f 224 168 281
f 281 168 167
f 199 163 200
f 200 163 162
f 45 46 108
f 108 46 107
f 281 167 48
f 48 167 49
f 161 164 291
f 291 164 292
f 38 123 39
f 293 294 277
f 277 294 248
f 284 283 296
f 296 283 295
f 284 296 273
f 273 296 297
f 274 273 298
f 298 273 297
f 246 274 299
f 299 274 298
f 283 222 295
f 295 222 300
f 222 225 300
f 300 225 301
f 301 225 302
f 302 225 282
f 303 304 300
f 300 304 295
f 306 307 305
f 305 307 308
f 309 310 308
f 308 310 305
f 308 307 312
f 312 307 311
f 313 314 312
f 312 314 315
f 311 316 312
f 312 316 313
f 317 304 311
f 311 304 316
f 315 309 312
f 312 309 308
f 318 319 321
f 321 319 320
f 319 318 309
f 309 318 310
f 311 307 317
f 317 307 306
f 306 297 317
f 317 297 296
f 306 322 297
f 297 322 298
f 305 323 306
f 306 323 322
f 323 305 324
f 324 305 310
f 304 317 295
f 295 317 296
f 318 325 310
f 310 325 324
f 323 324 326
f 326 324 327
f 324 325 327
f 327 325 328
f 326 327 329
f 329 327 330
f 329 331 326
f 326 331 332
f 333 330 328
f 328 330 327
f 323 326 322
f 322 326 332
f 322 332 298
f 298 332 299
f 325 318 334
f 334 318 321
f 313 316 335
f 335 316 304
f 335 336 313
f 313 336 314
f 304 303 335
f 335 303 337
f 336 335 338
f 338 335 337
f 336 339 314
f 314 339 340
f 246 299 238
f 238 299 341
f 239 342 282
f 282 342 302
f 342 239 341
f 341 239 238
f 341 331 342
f 342 331 343
f 331 329 343
f 343 329 344
f 342 343 302
f 302 343 345
f 341 299 331
f 331 299 332
f 346 301 345
f 345 301 302
f 346 303 301
f 301 303 300
f 347 337 346
f 346 337 303
f 347 346 348
f 348 346 345
f 349 347 350
f 350 347 348
f 343 344 345
f 345 344 348
f 344 351 348
f 348 351 350
f 337 347 338
f 338 347 349
f 353 338 352
f 352 338 349
f 352 355 354
f 354 355 356
f 352 349 355
f 355 349 350
f 352 354 353
f 353 354 334
f 353 334 339
f 339 334 321
f 339 336 353
f 353 336 338
f 329 330 344
f 344 330 351
f 356 351 333
f 333 351 330
f 356 355 351
f 351 355 350
f 354 356 328
f 328 356 333
f 328 325 354
f 354 325 334
f 309 315 319
f 319 315 320
f 320 340 321
f 321 340 339
f 320 315 340
f 340 315 314
f 137 136 261
f 261 136 259
f 140 166 141
f 141 166 165
f 172 171 195
f 195 171 196
f 171 174 196
f 196 174 190
f 178 177 264
f 264 177 187
f 172 195 140
f 140 195 166
f 137 261 262
f 262 261 275
f 178 264 141
f 141 264 138
f 262 177 213
f 213 177 176
f 136 174 259
f 259 174 173
f 358 359 357
f 357 359 360
f 362 363 361
f 361 363 364
f 361 364 365
f 365 364 366
f 367 368 370
f 370 368 369
f 76 371 247
f 247 371 372
f 373 374 362
f 362 374 363
f 376 377 375
f 375 377 378
f 289 229 380
f 380 229 379
f 381 379 263
f 263 379 229
f 383 384 382
f 382 384 385
f 386 368 374
f 374 368 363
f 76 289 371
f 371 289 380
f 377 376 359
f 359 376 387
f 388 386 360
f 360 386 374
f 389 383 366
f 366 383 390
f 392 393 391
f 391 393 394
f 383 382 390
f 390 382 395
f 396 365 390
f 390 365 366
f 389 366 367
f 367 366 364
f 357 397 358
f 358 397 398
f 373 399 357
f 357 399 397
f 389 367 400
f 400 367 370
f 382 385 375
f 375 385 372
f 357 360 373
f 373 360 374
f 361 401 362
f 362 401 402
f 387 388 359
f 359 388 360
f 363 368 364
f 364 368 367
f 358 398 403
f 403 398 404
f 396 392 405
f 405 392 391
f 392 395 393
f 393 395 378
f 393 403 394
f 394 403 404
f 375 378 382
f 382 378 395
f 365 396 406
f 406 396 405
f 362 402 373
f 373 402 399
f 271 270 400
f 400 270 384
f 401 361 406
f 406 361 365
f 381 369 386
f 386 369 368
f 392 396 395
f 395 396 390
f 393 378 403
f 403 378 377
f 403 377 358
f 358 377 359
f 406 405 408
f 408 405 407
f 406 408 401
f 401 408 409
f 401 409 402
f 402 409 410
f 402 410 399
f 399 410 411
f 405 391 407
f 407 391 412
f 391 394 412
f 412 394 413
f 394 404 413
f 413 404 414
f 415 416 412
f 412 416 407
f 418 419 417
f 417 419 420
f 421 422 418
f 418 422 419
f 419 422 424
f 424 422 423
f 425 426 424
f 424 426 427
f 423 428 424
f 424 428 425
f 427 420 424
f 424 420 419
f 420 429 417
f 417 429 430
f 423 422 431
f 431 422 421
f 421 409 431
f 431 409 408
f 421 432 409
f 409 432 410
f 418 433 421
f 421 433 432
f 434 433 417
f 417 433 418
f 431 416 423
f 423 416 428
f 416 431 407
f 407 431 408
f 435 434 430
f 430 434 417
f 433 434 436
f 436 434 437
f 434 435 437
f 437 435 438
f 436 437 439
f 439 437 440
f 439 441 436
f 436 441 442
f 438 443 437
f 437 443 440
f 436 442 433
f 433 442 432
f 432 442 410
f 410 442 411
f 435 430 445
f 445 430 444
f 430 429 444
f 444 429 446
f 425 428 447
f 447 428 416
f 426 425 448
f 448 425 447
f 416 415 447
f 447 415 449
f 447 449 448
f 448 449 450
f 451 452 448
f 448 452 426
f 446 452 444
f 444 452 451
f 399 411 397
f 397 411 453
f 398 454 404
f 404 454 414
f 454 398 453
f 453 398 397
f 453 441 454
f 454 441 455
f 441 439 455
f 455 439 456
f 454 455 414
f 414 455 457
f 441 453 442
f 442 453 411
f 458 413 457
f 457 413 414
f 458 415 413
f 413 415 412
f 458 459 415
f 415 459 449
f 459 458 460
f 460 458 457
f 461 459 462
f 462 459 460
f 455 456 457
f 457 456 460
f 456 463 460
f 460 463 462
f 459 461 449
f 449 461 450
f 465 450 464
f 464 450 461
f 464 467 466
f 466 467 468
f 464 461 467
f 467 461 462
f 464 466 465
f 465 466 445
f 465 445 451
f 451 445 444
f 451 448 465
f 465 448 450
f 439 440 456
f 456 440 463
f 468 463 443
f 443 463 440
f 468 467 463
f 463 467 462
f 466 468 438
f 438 468 443
f 438 435 466
f 466 435 445
f 420 427 429
f 429 427 446
f 446 427 452
f 452 427 426
f 370 369 188
f 188 369 186
f 371 376 372
f 372 376 375
f 380 379 387
f 387 379 388
f 379 381 388
f 388 381 386
f 385 384 278
f 278 384 270
f 380 387 371
f 371 387 376
f 400 370 271
f 271 370 188
f 385 278 372
f 372 278 247
f 400 384 389
f 389 384 383
f 369 381 186
f 186 381 263
f 221 271 144
f 144 271 188
f 221 19 207
f 207 19 22
f 19 18 22
f 22 18 23
f 18 219 23
f 23 219 208
f 469 470 472
f 472 470 471
f 474 475 473
f 473 475 476
f 473 476 477
f 477 476 478
f 480 481 479
f 479 481 482
f 483 484 474
f 474 484 475
f 486 487 485
f 485 487 488
f 489 490 77
f 77 490 142
f 491 489 248
f 248 489 77
f 493 494 492
f 492 494 495
f 496 480 484
f 484 480 475
f 486 497 487
f 487 497 471
f 498 496 472
f 472 496 484
f 499 493 478
f 478 493 500
f 501 502 504
f 504 502 503
f 493 492 500
f 500 492 505
f 506 477 500
f 500 477 478
f 499 478 479
f 479 478 476
f 469 507 470
f 470 507 508
f 483 509 469
f 469 509 507
f 479 482 499
f 499 482 510
f 492 495 485
f 485 495 511
f 483 469 484
f 484 469 472
f 473 512 474
f 474 512 513
f 497 498 471
f 471 498 472
f 475 480 476
f 476 480 479
f 470 508 514
f 514 508 515
f 506 502 516
f 516 502 501
f 503 502 488
f 488 502 505
f 514 515 503
f 503 515 504
f 485 488 492
f 492 488 505
f 477 506 517
f 517 506 516
f 474 513 483
f 483 513 509
f 510 292 494
f 494 292 164
f 512 473 517
f 517 473 477
f 491 481 496
f 496 481 480
f 502 506 505
f 505 506 500
f 503 488 514
f 514 488 487
f 514 487 470
f 470 487 471
f 517 516 519
f 519 516 518
f 517 519 512
f 512 519 520
f 512 520 513
f 513 520 521
f 513 521 509
f 509 521 522
f 516 501 518
f 518 501 523
f 501 504 523
f 523 504 524
f 524 504 525
f 525 504 515
f 526 527 523
f 523 527 518
f 529 530 528
f 528 530 531
f 532 533 529
f 529 533 530
f 530 533 535
f 535 533 534
f 536 537 535
f 535 537 538
f 534 539 535
f 535 539 536
f 538 531 535
f 535 531 530
f 540 541 531
f 531 541 528
f 533 532 534
f 534 532 542
f 532 520 542
f 542 520 519
f 532 543 520
f 520 543 521
f 529 544 532
f 532 544 543
f 544 529 545
f 545 529 528
f 534 542 539
f 539 542 527
f 527 542 518
f 518 542 519
f 541 546 528
f 528 546 545
f 547 544 548
f 548 544 545
f 546 549 545
f 545 549 548
f 550 547 551
f 551 547 548
f 547 550 553
f 553 550 552
f 549 554 548
f 548 554 551
f 544 547 543
f 543 547 553
f 543 553 521
f 521 553 522
f 546 541 556
f 556 541 555
f 541 540 555
f 555 540 557
f 536 539 558
f 558 539 527
f 537 536 559
f 559 536 558
f 527 526 558
f 558 526 560
f 559 558 561
f 561 558 560
f 559 562 537
f 537 562 563
f 557 563 555
f 555 563 562
f 509 522 507
f 507 522 564
f 508 565 515
f 515 565 525
f 565 508 564
f 564 508 507
f 564 552 565
f 565 552 566
f 552 550 566
f 566 550 567
f 565 566 525
f 525 566 568
f 564 522 552
f 552 522 553
f 569 524 568
f 568 524 525
f 569 526 524
f 524 526 523
f 570 560 569
f 569 560 526
f 570 569 571
f 571 569 568
f 572 570 573
f 573 570 571
f 566 567 568
f 568 567 571
f 567 574 571
f 571 574 573
f 570 572 560
f 560 572 561
f 576 561 575
f 575 561 572
f 575 578 577
f 577 578 579
f 575 572 578
f 578 572 573
f 575 577 576
f 576 577 556
f 576 556 562
f 562 556 555
f 562 559 576
f 576 559 561
f 550 551 567
f 567 551 574
f 579 574 554
f 554 574 551
f 579 578 574
f 574 578 573
f 579 554 577
f 577 554 549
f 549 546 577
f 577 546 556
f 531 538 540
f 540 538 557
f 557 538 563
f 563 538 537
f 481 294 482
f 482 294 293
f 580 486 511
f 511 486 485
f 490 489 497
f 497 489 498
f 489 491 498
f 498 491 496
f 163 495 164
f 164 495 494
f 580 490 486
f 486 490 497
f 482 293 510
f 510 293 292
f 495 163 511
f 511 163 199
f 494 493 510
f 510 493 499
f 481 491 294
f 294 491 248
f 582 583 581
f 581 583 584
f 586 587 585
f 585 587 588
f 585 588 589
f 589 588 590
f 592 593 591
f 591 593 594
f 595 596 598
f 598 596 597
f 599 600 586
f 586 600 587
f 601 602 604
f 604 602 603
f 605 606 608
f 608 606 607
f 609 607 200
f 200 607 606
f 610 611 613
f 613 611 612
f 600 614 587
f 587 614 592
f 596 605 597
f 597 605 608
f 602 615 603
f 603 615 583
f 616 614 584
f 584 614 600
f 611 618 617
f 617 618 590
f 620 621 619
f 619 621 622
f 610 623 611
f 611 623 618
f 624 589 618
f 618 589 590
f 617 590 591
f 591 590 588
f 581 625 582
f 582 625 626
f 599 627 581
f 581 627 625
f 591 594 617
f 617 594 628
f 601 610 598
f 598 610 613
f 581 584 599
f 599 584 600
f 585 629 586
f 586 629 630
f 615 616 583
f 583 616 584
f 587 592 588
f 588 592 591
f 582 626 631
f 631 626 632
f 624 620 633
f 633 620 619
f 621 620 604
f 604 620 623
f 631 632 621
f 621 632 622
f 610 601 623
f 623 601 604
f 589 624 634
f 634 624 633
f 586 630 599
f 599 630 627
f 203 202 628
f 628 202 612
f 629 585 634
f 634 585 589
f 609 593 614
f 614 593 592
f 620 624 623
f 623 624 618
f 631 621 603
f 603 621 604
f 582 631 583
f 583 631 603
f 634 633 636
f 636 633 635
f 634 636 629
f 629 636 637
f 629 637 630
f 630 637 638
f 630 638 627
f 627 638 639
f 633 619 635
f 635 619 640
f 619 622 640
f 640 622 641
f 641 622 642
f 642 622 632
f 644 635 643
f 643 635 640
f 645 646 648
f 648 646 647
f 649 650 646
f 646 650 647
f 647 650 652
f 652 650 651
f 652 653 655
f 655 653 654
f 651 656 652
f 652 656 653
f 655 648 652
f 652 648 647
f 648 657 645
f 645 657 658
f 650 649 651
f 651 649 659
f 649 637 659
f 659 637 636
f 649 660 637
f 637 660 638
f 661 660 646
f 646 660 649
f 662 661 645
f 645 661 646
f 651 659 656
f 656 659 644
f 644 659 635
f 635 659 636
f 663 662 658
f 658 662 645
f 664 661 665
f 665 661 662
f 663 666 662
f 662 666 665
f 667 664 668
f 668 664 665
f 664 667 670
f 670 667 669
f 666 671 665
f 665 671 668
f 661 664 660
f 660 664 670
f 660 670 638
f 638 670 639
f 658 672 663
f 663 672 673
f 658 657 672
f 672 657 674
f 653 656 675
f 675 656 644
f 653 675 654
f 654 675 676
f 675 644 677
f 677 644 643
f 676 675 678
f 678 675 677
f 679 680 676
f 676 680 654
f 674 680 672
f 672 680 679
f 627 639 625
f 625 639 681
f 626 682 632
f 632 682 642
f 681 682 625
f 625 682 626
f 669 683 681
f 681 683 682
f 667 684 669
f 669 684 683
f 682 683 642
f 642 683 685
f 681 639 669
f 669 639 670
f 686 641 685
f 685 641 642
f 641 686 640
f 640 686 643
f 686 687 643
f 643 687 677
f 687 686 688
f 688 686 685
f 689 687 690
f 690 687 688
f 683 684 685
f 685 684 688
f 684 691 688
f 688 691 690
f 687 689 677
f 677 689 678
f 693 678 692
f 692 678 689
f 692 695 694
f 694 695 696
f 692 689 695
f 695 689 690
f 692 694 693
f 693 694 673
f 693 673 679
f 679 673 672
f 679 676 693
f 693 676 678
f 684 667 691
f 691 667 668
f 696 691 671
f 671 691 668
f 696 695 691
f 691 695 690
f 694 696 666
f 666 696 671
f 666 663 694
f 694 663 673
f 648 655 657
f 657 655 674
f 674 655 680
f 680 655 654
f 593 162 594
f 594 162 290
f 598 597 601
f 601 597 602
f 615 608 616
f 616 608 607
f 607 609 616
f 616 609 614
f 697 595 613
f 613 595 598
f 597 608 602
f 602 608 615
f 594 290 628
f 628 290 203
f 628 612 617
f 617 612 611
f 593 609 162
f 162 609 200
f 105 29 698
f 698 29 699
f 268 126 701
f 701 126 700
f 126 125 700
f 700 125 702
f 252 703 250
f 250 703 704
f 32 268 705
f 705 268 701
f 288 105 706
f 706 105 698
f 29 32 699
f 699 32 705
f 707 251 706
f 706 251 288
f 250 704 125
f 125 704 702
f 703 252 707
f 707 252 251
f 706 708 707
f 707 708 709
f 707 709 703
f 703 709 710
f 703 710 704
f 704 710 711
f 704 711 702
f 702 711 712
f 706 698 708
f 708 698 713
f 698 699 713
f 713 699 714
f 699 705 714
f 714 705 715
f 717 708 716
f 716 708 713
f 719 720 718
f 718 720 721
f 722 723 719
f 719 723 720
f 724 725 723
f 723 725 720
f 724 726 725
f 725 726 727
f 728 721 725
f 725 721 720
f 721 728 729
f 729 728 730
f 729 731 721
f 721 731 718
f 724 723 732
f 732 723 722
f 722 710 732
f 732 710 709
f 722 733 710
f 710 733 711
f 719 734 722
f 722 734 733
f 734 719 735
f 735 719 718
f 724 732 726
f 726 732 717
f 717 732 708
f 708 732 709
f 731 736 718
f 718 736 735
f 737 734 738
f 738 734 735
f 736 739 735
f 735 739 738
f 740 737 741
f 741 737 738
f 737 740 743
f 743 740 742
f 739 744 738
f 738 744 741
f 734 737 733
f 733 737 743
f 733 743 711
f 711 743 712
f 736 731 746
f 746 731 745
f 731 729 745
f 745 729 730
f 727 726 747
f 747 726 717
f 748 727 749
f 749 727 747
f 747 717 750
f 750 717 716
f 749 747 751
f 751 747 750
f 749 752 748
f 748 752 753
f 730 753 745
f 745 753 752
f 728 725 748
f 748 725 727
f 730 728 753
f 753 728 748
f 700 702 754
f 754 702 712
f 705 701 715
f 715 701 755
f 754 755 700
f 700 755 701
f 742 756 754
f 754 756 755
f 740 757 742
f 742 757 756
f 755 756 715
f 715 756 758
f 754 712 742
f 742 712 743
f 759 714 758
f 758 714 715
f 714 759 713
f 713 759 716
f 759 760 716
f 716 760 750
f 760 759 761
f 761 759 758
f 762 760 763
f 763 760 761
f 756 757 758
f 758 757 761
f 757 764 761
f 761 764 763
f 760 762 750
f 750 762 751
f 766 751 765
f 765 751 762
f 767 765 769
f 769 765 768
f 765 762 768
f 768 762 763
f 765 767 766
f 766 767 746
f 766 746 752
f 752 746 745
f 752 749 766
f 766 749 751
f 757 740 764
f 764 740 741
f 769 764 744
f 744 764 741
f 769 768 764
f 764 768 763
f 767 769 739
f 739 769 744
f 739 736 767
f 767 736 746
f 219 217 208
f 208 217 209
f 209 217 210
f 210 217 193
f 198 580 199
f 199 580 511
f 76 75 289
f 289 75 272
f 277 207 291
f 291 207 184
f 290 183 203
f 203 183 84
f 490 580 142
f 142 580 198
f 142 198 143
f 143 198 197
f 149 276 72
f 72 276 73
f 104 103 279
f 279 103 770
f 770 596 279
f 279 596 595
f 605 596 771
f 771 596 770
f 771 770 772
f 772 770 103
f 772 103 773
f 773 103 102
f 155 774 101
f 101 774 102
f 773 102 97
f 97 102 774
f 775 773 100
f 100 773 97
f 773 775 772
f 772 775 776
f 772 776 771
f 771 776 777
f 200 606 197
f 197 606 777
f 189 71 778
f 778 71 74
f 97 774 98
f 98 774 155
f 183 161 184
f 184 161 291
f 777 276 197
f 197 276 143
f 777 606 771
f 771 606 605
f 613 612 697
f 697 612 202
f 595 697 279
f 279 697 202
f 73 276 776
f 776 276 777
f 776 775 73
f 73 775 74
f 100 778 775
f 775 778 74
f 778 100 189
f 189 100 99
f 245 242 99
f 99 242 189
f 131 33 256
f 28 1 95
f 95 1 62
f 27 2 28
f 28 2 1
f 265 115 266
f 266 115 114
f 95 62 69
f 69 62 64
f 62 61 64
f 64 61 65
f 61 13 65
f 65 13 130
f 13 12 130
f 130 12 14
f 31 11 32
f 32 11 268
f 15 12 31
f 31 12 11
f 31 30 15
f 15 30 231
f 30 106 231
f 231 106 232
f 287 237 106
f 106 237 232
f 254 90 287
f 287 90 237
f 253 44 254
f 254 44 90
f 253 249 44
f 44 249 7
f 267 127 268
f 268 127 126
f 10 3 241
f 241 3 116
f 3 2 116
f 116 2 114
f 2 27 114
f 114 27 266
f 27 26 266
f 266 26 113
f 26 286 113
f 113 286 110
f 286 243 110
f 110 243 255
f 243 242 255
f 255 242 256
f 242 245 256
f 256 245 131
f 245 244 131
f 131 244 132
f 265 37 115
f 115 37 41
f 41 37 42
f 42 37 40
f 92 91 40
f 40 91 42
f 236 233 92
f 92 233 91
f 191 194 236
f 236 194 233
f 258 285 244
f 244 285 132
f 257 55 258
f 258 55 285
f 257 154 201
f 201 154 185
f 56 201 204
f 204 201 180
f 55 257 56
f 56 257 201
f 204 85 56
f 56 85 52
f 86 122 53
f 53 122 79
f 212 215 86
f 86 215 122
f 211 216 212
f 212 216 215
f 192 280 211
f 211 280 216
f 191 240 192
f 192 240 280
f 249 124 7
f 7 124 8
f 124 127 8
f 8 127 241
f 127 267 241
f 241 267 10
f 10 267 9
f 9 267 11
o hand_right
v 0.042545 0.315878 0.843907
v 0.040281 0.326345 0.840366
v 0.036131 0.317231 0.842599
v 0.037631 0.308223 0.844468
v 0.022131 0.331782 0.839990
v 0.013693 0.333062 0.830942
v 0.013061 0.316955 0.837001
v 0.020499 0.318939 0.844243
v 0.035959 0.300616 0.843445
v 0.033366 0.309449 0.844327
v 0.038057 0.296727 0.838435
v 0.041936 0.287799 0.835396
v 0.038851 0.291741 0.842102
v 0.045392 0.281085 0.837406
v 0.046503 0.290907 0.825489
v 0.053853 0.281375 0.833068
v 0.069730 0.304912 0.828151
v 0.078354 0.313656 0.834043
v 0.082681 0.299250 0.844380
v 0.072259 0.292360 0.837855
v 0.090059 0.317672 0.852273
v 0.086170 0.306871 0.848441
v 0.082936 0.320852 0.837322
v 0.086286 0.329824 0.841316
v 0.051333 0.328411 0.846166
v 0.049157 0.338780 0.841887
v 0.046293 0.334607 0.840070
v 0.048142 0.324502 0.844330
v 0.032651 0.293282 0.832061
v 0.034434 0.297571 0.822861
v 0.038016 0.295141 0.829543
v 0.034115 0.294566 0.837513
v 0.045225 0.367157 0.838923
v 0.046272 0.374955 0.827764
v 0.042816 0.371513 0.824314
v 0.042914 0.365053 0.835054
v 0.024274 0.355079 0.820613
v 0.031155 0.361813 0.813351
v 0.031089 0.358965 0.799609
v 0.026438 0.350115 0.804475
v 0.017380 0.344493 0.826775
v 0.017444 0.341578 0.812591
v 0.012435 0.329512 0.819661
v 0.011197 0.313293 0.828498
v 0.055865 0.381699 0.833375
v 0.056066 0.377199 0.842700
v 0.054823 0.250040 0.877330
v 0.057490 0.254226 0.880645
v 0.056847 0.256370 0.877749
v 0.054430 0.251869 0.874785
v 0.075976 0.378332 0.835247
v 0.082954 0.374242 0.829058
v 0.081146 0.380805 0.826196
v 0.073363 0.383898 0.830671
v 0.079410 0.370984 0.841265
v 0.084737 0.365001 0.833099
v 0.063696 0.241179 0.873296
v 0.058617 0.242346 0.874040
v 0.059320 0.243970 0.869545
v 0.064680 0.243348 0.868502
v 0.038922 0.298527 0.846324
v 0.043149 0.306666 0.848552
v 0.043897 0.282584 0.856715
v 0.044542 0.293004 0.852974
v 0.040525 0.289258 0.848306
v 0.041330 0.280503 0.850940
v 0.058855 0.311306 0.859661
v 0.056321 0.320771 0.853130
v 0.052820 0.315421 0.851213
v 0.053878 0.304212 0.858000
v 0.062354 0.331527 0.860524
v 0.064793 0.321265 0.865934
v 0.067918 0.328638 0.869366
v 0.064838 0.334796 0.865640
v 0.067508 0.301942 0.872352
v 0.068782 0.297337 0.873982
v 0.069087 0.300280 0.876652
v 0.068897 0.305236 0.873793
v 0.079895 0.386800 0.822426
v 0.070668 0.388594 0.825628
v 0.095055 0.336794 0.862793
v 0.091010 0.346792 0.866592
v 0.094631 0.338085 0.876676
v 0.099107 0.328907 0.869837
v 0.084918 0.366725 0.821990
v 0.085208 0.374277 0.819570
v 0.069501 0.243032 0.874629
v 0.070428 0.245393 0.870215
v 0.020058 0.326903 0.808599
v 0.015239 0.309993 0.819943
v 0.027675 0.339351 0.801087
v 0.034931 0.347432 0.796123
v 0.038398 0.354354 0.790932
v 0.048747 0.293201 0.858317
v 0.047835 0.314793 0.848065
v 0.053895 0.332160 0.848388
v 0.066972 0.352136 0.868467
v 0.063877 0.360395 0.862733
v 0.058453 0.351334 0.860224
v 0.062755 0.345820 0.865379
v 0.083826 0.350615 0.872676
v 0.076272 0.348059 0.874809
v 0.079189 0.341757 0.879429
v 0.087191 0.342930 0.879343
v 0.026922 0.291796 0.827414
v 0.030011 0.300386 0.817536
v 0.066400 0.380153 0.839708
v 0.063462 0.383948 0.833395
v 0.062822 0.388800 0.826336
v 0.045474 0.352734 0.840188
v 0.041002 0.363634 0.832463
v 0.037438 0.360744 0.831054
v 0.044297 0.350617 0.838231
v 0.034974 0.336615 0.839710
v 0.026645 0.346125 0.835338
v 0.031775 0.325315 0.844073
v 0.037650 0.368213 0.818664
v 0.041680 0.378547 0.816755
v 0.037090 0.373631 0.810777
v 0.048599 0.383696 0.821618
v 0.055897 0.387504 0.825264
v 0.087200 0.381147 0.814709
v 0.034295 0.367994 0.805092
v 0.020251 0.309717 0.846359
v 0.020302 0.301358 0.848303
v 0.028034 0.300881 0.848422
v 0.028768 0.308483 0.847067
v 0.049151 0.272674 0.841542
v 0.043166 0.275649 0.846628
v 0.040225 0.284903 0.841915
v 0.050166 0.362035 0.848276
v 0.058901 0.370877 0.851203
v 0.048984 0.282664 0.861367
v 0.063981 0.247148 0.864124
v 0.058207 0.247411 0.865448
v 0.052857 0.260644 0.852972
v 0.059469 0.259835 0.851274
v 0.058764 0.277234 0.864510
v 0.052631 0.277989 0.863700
v 0.055390 0.275615 0.864682
v 0.061633 0.275069 0.866483
v 0.072179 0.308962 0.879023
v 0.071682 0.313253 0.876343
v 0.072103 0.281671 0.849867
v 0.064956 0.276485 0.838529
v 0.063597 0.286387 0.832198
v 0.062348 0.317427 0.862497
v 0.065050 0.309510 0.868612
v 0.067104 0.312762 0.870361
v 0.052141 0.291880 0.861494
v 0.053830 0.284224 0.864142
v 0.056375 0.289255 0.864099
v 0.055534 0.296407 0.862407
v 0.087884 0.355900 0.857076
v 0.079810 0.360283 0.864679
v 0.055348 0.245658 0.875231
v 0.055344 0.247269 0.871754
v 0.059704 0.326585 0.856090
v 0.060925 0.298893 0.824950
v 0.056358 0.336377 0.851075
v 0.090813 0.311512 0.874197
v 0.085429 0.315392 0.880550
v 0.083179 0.312618 0.883647
v 0.086773 0.308229 0.881476
v 0.066881 0.263508 0.875925
v 0.061334 0.263060 0.877440
v 0.062180 0.259352 0.879549
v 0.068102 0.259262 0.878942
v 0.047869 0.276173 0.860773
v 0.044426 0.273399 0.855708
v 0.047704 0.268805 0.860569
v 0.051375 0.272479 0.863518
v 0.046535 0.268600 0.851451
v 0.048594 0.264174 0.856204
v 0.071744 0.260497 0.872407
v 0.073239 0.254463 0.867783
v 0.069671 0.267035 0.856649
v 0.067686 0.270848 0.863302
v 0.084315 0.340855 0.830451
v 0.087342 0.349613 0.836879
v 0.089655 0.338844 0.847874
v 0.093549 0.328073 0.858806
v 0.095488 0.317414 0.868708
v 0.094049 0.307374 0.861561
v 0.090877 0.346275 0.851650
v 0.063813 0.280154 0.861586
v 0.067370 0.274763 0.852101
v 0.068009 0.279193 0.857729
v 0.058519 0.341614 0.856091
v 0.054086 0.250384 0.868218
v 0.059174 0.346432 0.793774
v 0.070779 0.351441 0.798871
v 0.069493 0.343896 0.803329
v 0.055771 0.338606 0.798205
v 0.055415 0.259871 0.875941
v 0.052352 0.255161 0.872462
v 0.074069 0.317713 0.880670
v 0.074570 0.312989 0.882672
v 0.077184 0.314238 0.884561
v 0.076437 0.319608 0.885147
v 0.087802 0.355144 0.839468
v 0.091972 0.333706 0.885191
v 0.096801 0.324722 0.878237
v 0.085331 0.358533 0.827130
v 0.083214 0.350934 0.821167
v 0.082766 0.358540 0.814848
v 0.085659 0.294580 0.860721
v 0.081424 0.333068 0.827479
v 0.080019 0.344501 0.818175
v 0.079353 0.353304 0.810493
v 0.079781 0.359845 0.805152
v 0.083403 0.364922 0.810500
v 0.069862 0.249824 0.865657
v 0.074552 0.250043 0.873177
v 0.085642 0.371984 0.805010
v 0.080902 0.366123 0.799465
v 0.075039 0.337634 0.814292
v 0.067514 0.330207 0.810077
v 0.076367 0.326934 0.823548
v 0.069350 0.318500 0.819987
v 0.085047 0.287259 0.851791
v 0.071752 0.246621 0.890147
v 0.072909 0.252678 0.881021
v 0.068503 0.256417 0.882560
v 0.069635 0.250207 0.891622
v 0.072878 0.256109 0.876643
v 0.073455 0.247823 0.877696
v 0.057276 0.311547 0.815839
v 0.058189 0.284009 0.865713
v 0.050959 0.324407 0.805798
v 0.044895 0.300838 0.815921
v 0.038237 0.310778 0.810147
v 0.041977 0.336610 0.796405
v 0.032324 0.323817 0.802673
v 0.049102 0.351773 0.788238
v 0.047105 0.344296 0.792797
v 0.024893 0.311422 0.811022
v 0.055597 0.247612 0.887690
v 0.059081 0.251806 0.889827
v 0.060653 0.353101 0.788831
v 0.029897 0.315719 0.845982
v 0.053271 0.349405 0.850318
v 0.051986 0.345171 0.846698
v 0.061866 0.364771 0.858495
v 0.054771 0.355965 0.854886
v 0.055417 0.242683 0.885362
v 0.071534 0.295591 0.875646
v 0.071113 0.297082 0.875554
v 0.013365 0.307953 0.841202
v 0.014122 0.300903 0.843796
v 0.015034 0.293705 0.832780
v 0.012214 0.297191 0.838349
v 0.011250 0.304436 0.833544
v 0.014301 0.301086 0.827102
v 0.046473 0.354289 0.842175
v 0.048163 0.356658 0.844941
v 0.083480 0.364226 0.848941
v 0.075492 0.367639 0.856904
v 0.051507 0.266326 0.847601
v 0.056582 0.272104 0.839367
v 0.058228 0.266100 0.845825
v 0.065505 0.263410 0.851246
v 0.060669 0.280933 0.865394
v 0.064122 0.276092 0.860764
v 0.032181 0.354396 0.833088
v 0.040322 0.345421 0.837545
v 0.033124 0.304216 0.844164
v 0.033491 0.298264 0.844547
v 0.059811 0.303378 0.864049
v 0.079795 0.288610 0.868944
v 0.078463 0.283027 0.861583
v 0.061880 0.295464 0.867645
v 0.062108 0.237333 0.884540
v 0.057517 0.239458 0.884670
v 0.064429 0.269140 0.845659
v 0.069642 0.319992 0.874111
v 0.082143 0.294411 0.869515
v 0.077134 0.292335 0.874321
v 0.086159 0.339118 0.883651
v 0.071263 0.358644 0.793456
v 0.062773 0.257247 0.883230
v 0.063773 0.253651 0.891086
v 0.071798 0.243036 0.887613
v 0.068278 0.239005 0.884614
v 0.070099 0.373304 0.848965
v 0.051129 0.342070 0.844601
v 0.021683 0.301080 0.819442
v 0.020849 0.292242 0.828425
v 0.063316 0.291502 0.868625
v 0.091618 0.317904 0.878050
v 0.090501 0.302734 0.870767
v 0.086204 0.299391 0.879692
v 0.080539 0.294232 0.878701
v 0.073493 0.293931 0.878430
v 0.070786 0.241511 0.893164
v 0.067283 0.237425 0.890289
v 0.061120 0.235944 0.889985
v 0.056929 0.238023 0.889555
v 0.055155 0.242097 0.889297
v 0.070752 0.245220 0.895819
v 0.068619 0.248490 0.896819
v 0.063813 0.252194 0.894448
v 0.069037 0.245115 0.900485
v 0.068325 0.239864 0.901367
v 0.055194 0.235159 0.903264
v 0.058903 0.234557 0.898570
v 0.059734 0.234542 0.901229
v 0.057376 0.234829 0.905697
v 0.056396 0.234952 0.910840
v 0.053508 0.235279 0.908759
v 0.064114 0.236046 0.900182
v 0.061632 0.236545 0.906551
v 0.064518 0.239494 0.907681
v 0.062676 0.238997 0.912948
v 0.060174 0.236176 0.912177
v 0.066204 0.238684 0.903349
v 0.065263 0.235819 0.897965
v 0.054049 0.236228 0.913313
v 0.056339 0.235197 0.913796
v 0.059107 0.236649 0.915096
v 0.057115 0.238227 0.916885
v 0.055474 0.237423 0.894421
v 0.053193 0.236750 0.902583
v 0.052244 0.238204 0.908468
v 0.052983 0.238865 0.913006
v 0.052292 0.240676 0.903622
v 0.052288 0.241187 0.908446
v 0.053204 0.242153 0.912312
v 0.053167 0.244729 0.904925
v 0.053367 0.244192 0.909055
v 0.055249 0.245762 0.893501
v 0.054422 0.241761 0.892249
v 0.053381 0.244233 0.911680
v 0.056471 0.240377 0.916898
v 0.066420 0.242587 0.906764
v 0.063053 0.242246 0.913034
v 0.066134 0.245016 0.906758
v 0.063215 0.244653 0.913114
v 0.061212 0.240999 0.916925
v 0.061165 0.238829 0.915483
v 0.056061 0.247167 0.890081
v 0.059843 0.251339 0.892381
v 0.059263 0.250289 0.895348
v 0.056293 0.248328 0.906079
v 0.062986 0.251367 0.897671
v 0.066887 0.248354 0.901118
v 0.064338 0.247367 0.907510
v 0.061304 0.249120 0.907250
v 0.061749 0.246633 0.912233
v 0.059488 0.247448 0.911221
v 0.055740 0.246839 0.910220
v 0.059042 0.245306 0.915035
v 0.060520 0.243130 0.916495
v 0.055787 0.243268 0.915162
v 0.058223 0.246384 0.913578
v 0.055610 0.244887 0.913013
v 0.052005 0.287773 0.888454
v 0.056069 0.292446 0.890998
v 0.057324 0.289034 0.890298
v 0.054123 0.284965 0.888128
v 0.052151 0.276724 0.898004
v 0.049627 0.280011 0.892828
v 0.053474 0.275293 0.891825
v 0.057771 0.272757 0.896854
v 0.057747 0.278029 0.902918
v 0.063556 0.274817 0.900743
v 0.061401 0.271404 0.891742
v 0.056091 0.274463 0.887684
v 0.062729 0.278777 0.868714
v 0.068632 0.276428 0.870223
v 0.066561 0.295122 0.875276
v 0.069869 0.294932 0.877311
v 0.050157 0.284139 0.889471
v 0.052671 0.280246 0.888799
v 0.064977 0.292452 0.893086
v 0.060151 0.292543 0.890299
v 0.060738 0.292212 0.892355
v 0.064307 0.291807 0.896666
v 0.059442 0.286366 0.869246
v 0.063166 0.290810 0.871981
v 0.060026 0.282509 0.868656
v 0.069482 0.288386 0.896401
v 0.071241 0.281743 0.897838
v 0.078327 0.284596 0.878183
v 0.076476 0.290228 0.880048
v 0.053707 0.278992 0.886018
v 0.055466 0.289235 0.888239
v 0.053123 0.284717 0.886031
v 0.067943 0.274744 0.894493
v 0.066516 0.282478 0.903311
v 0.052817 0.297889 0.906460
v 0.061977 0.291428 0.903217
v 0.061393 0.294532 0.898992
v 0.053140 0.301434 0.902744
v 0.066313 0.288317 0.900790
v 0.060964 0.285755 0.904989
v 0.044058 0.298036 0.892275
v 0.048587 0.302237 0.894501
v 0.041287 0.294383 0.893246
v 0.074891 0.278841 0.873279
v 0.042493 0.287166 0.901125
v 0.040668 0.290752 0.895669
v 0.059833 0.295097 0.894023
v 0.051645 0.303512 0.898387
v 0.051143 0.293822 0.907978
v 0.047620 0.287530 0.905854
v 0.046433 0.297940 0.908875
v 0.042430 0.293161 0.907310
v 0.037882 0.292307 0.902509
v 0.037554 0.294512 0.897031
v 0.039359 0.297028 0.894351
v 0.048362 0.301641 0.907446
v 0.049416 0.304695 0.903787
v 0.049233 0.304875 0.898707
v 0.044408 0.307824 0.906282
v 0.041005 0.305556 0.908393
v 0.026043 0.309760 0.898443
v 0.029109 0.304722 0.899710
v 0.029454 0.305768 0.902116
v 0.026711 0.310461 0.901141
v 0.032010 0.300078 0.902803
v 0.031953 0.302341 0.904005
v 0.035530 0.303332 0.906875
v 0.032511 0.308347 0.904909
v 0.036642 0.310583 0.906293
v 0.033397 0.315305 0.905816
v 0.029083 0.313258 0.904720
v 0.037701 0.306521 0.907647
v 0.025566 0.313918 0.901132
v 0.025145 0.315351 0.898978
v 0.036694 0.300529 0.907749
v 0.034414 0.297442 0.897820
v 0.029594 0.305044 0.896620
v 0.027054 0.311073 0.895568
v 0.026873 0.317135 0.897124
v 0.031806 0.307384 0.893844
v 0.029269 0.312906 0.893976
v 0.029288 0.317642 0.895885
v 0.035326 0.310365 0.892494
v 0.032668 0.315477 0.893430
v 0.041300 0.301455 0.893162
v 0.037331 0.298836 0.894138
v 0.031481 0.317402 0.894842
v 0.026902 0.318551 0.902289
v 0.028455 0.320124 0.899693
v 0.027196 0.316949 0.903269
v 0.038513 0.311664 0.906219
v 0.034831 0.316782 0.904838
v 0.040438 0.313300 0.904830
v 0.035917 0.318503 0.903450
v 0.031244 0.319775 0.903963
v 0.030242 0.318501 0.904602
v 0.042735 0.299781 0.893776
v 0.047011 0.303194 0.895540
v 0.045827 0.304561 0.894797
v 0.039448 0.313204 0.894483
v 0.048051 0.306659 0.898482
v 0.046484 0.308546 0.903202
v 0.041962 0.314066 0.902486
v 0.041713 0.314624 0.898460
v 0.037417 0.319364 0.902052
v 0.038459 0.318229 0.899099
v 0.036100 0.317247 0.894944
v 0.033436 0.321599 0.900985
v 0.032011 0.320908 0.902794
v 0.030168 0.320149 0.898205
v 0.035260 0.320469 0.898851
v 0.032734 0.319343 0.896368
v 0.060865 0.305792 0.893566
v 0.064743 0.309946 0.895427
v 0.065821 0.308191 0.894592
v 0.062620 0.303655 0.893360
v 0.060031 0.296777 0.902916
v 0.057947 0.298823 0.898754
v 0.061396 0.295244 0.897433
v 0.064705 0.292426 0.900755
v 0.062844 0.299252 0.907497
v 0.069272 0.293565 0.904911
v 0.068449 0.290558 0.897127
v 0.063811 0.293531 0.894705
v 0.071209 0.293759 0.882635
v 0.076933 0.292124 0.885171
v 0.058690 0.302179 0.895367
v 0.061177 0.299612 0.894504
v 0.071286 0.311196 0.898608
v 0.067137 0.310866 0.895615
v 0.069311 0.310611 0.898201
v 0.071809 0.309906 0.902172
v 0.067839 0.303160 0.879431
v 0.070964 0.308069 0.881163
v 0.068080 0.298367 0.880787
v 0.075272 0.306864 0.901973
v 0.076913 0.299692 0.903420
v 0.083589 0.304280 0.890278
v 0.080879 0.309607 0.889313
v 0.061967 0.297888 0.892766
v 0.063600 0.308176 0.892331
v 0.061422 0.303147 0.891250
v 0.073835 0.293326 0.900154
v 0.072341 0.300005 0.907595
v 0.058548 0.318014 0.912189
v 0.070212 0.307855 0.907881
v 0.070351 0.311530 0.903136
v 0.060075 0.320845 0.908921
v 0.073003 0.306130 0.906269
v 0.067765 0.303187 0.909566
v 0.052274 0.317558 0.897263
v 0.056725 0.320339 0.899457
v 0.050216 0.313697 0.898534
v 0.082421 0.295962 0.888072
v 0.076016 0.312304 0.886045
v 0.048652 0.310034 0.905207
v 0.048801 0.311566 0.900966
v 0.068540 0.311858 0.899106
v 0.059823 0.321951 0.904204
v 0.056059 0.313808 0.912963
v 0.052187 0.309695 0.910227
v 0.052842 0.318869 0.913941
v 0.048578 0.315159 0.911121
v 0.045226 0.315080 0.906230
v 0.046012 0.316246 0.901842
v 0.047849 0.317932 0.899319
v 0.055793 0.322659 0.912737
v 0.057365 0.324530 0.909551
v 0.058290 0.322990 0.904562
v 0.054145 0.326852 0.912349
v 0.049080 0.325264 0.913953
v 0.037653 0.333868 0.904268
v 0.039868 0.328388 0.904544
v 0.040141 0.328680 0.905741
v 0.037702 0.334050 0.906004
v 0.041976 0.322163 0.906942
v 0.041713 0.324149 0.907656
v 0.044059 0.324147 0.910958
v 0.041891 0.330391 0.910495
v 0.047471 0.332114 0.912223
v 0.044867 0.336619 0.911559
v 0.039492 0.335403 0.910314
v 0.047446 0.326539 0.912975
v 0.037117 0.337217 0.906685
v 0.035844 0.337670 0.905230
v 0.044975 0.321668 0.911556
v 0.042881 0.321076 0.902128
v 0.040263 0.328433 0.901562
v 0.038005 0.334024 0.901025
v 0.037933 0.338378 0.902226
v 0.043070 0.329661 0.899185
v 0.040808 0.334659 0.899550
v 0.040606 0.338556 0.900692
v 0.046083 0.331015 0.898610
v 0.044002 0.335446 0.899334
v 0.050079 0.321960 0.898588
v 0.046040 0.321240 0.899456
v 0.042918 0.338241 0.900440
v 0.038315 0.340335 0.908484
v 0.040952 0.341965 0.905538
v 0.038779 0.338712 0.908973
v 0.049348 0.332204 0.912456
v 0.046583 0.338284 0.911605
v 0.051725 0.333011 0.911051
v 0.048842 0.339006 0.910168
v 0.043104 0.340767 0.910754
v 0.042492 0.339701 0.910818
v 0.051447 0.319589 0.898567
v 0.055771 0.321707 0.900448
v 0.054441 0.323691 0.900307
v 0.050075 0.333178 0.900217
v 0.057131 0.325054 0.904188
v 0.055590 0.328336 0.909135
v 0.052817 0.333745 0.907973
v 0.052400 0.334274 0.904172
v 0.050003 0.339004 0.907553
v 0.050060 0.337815 0.904897
v 0.047602 0.337247 0.900583
v 0.046526 0.341094 0.906445
v 0.045085 0.341676 0.909018
v 0.043136 0.341333 0.903277
v 0.047491 0.340106 0.904321
v 0.044925 0.340121 0.901916
v 0.073436 0.311277 0.883539
v 0.064593 0.326733 0.901075
v 0.067292 0.330069 0.902283
v 0.067067 0.329176 0.903235
v 0.065079 0.325341 0.901006
v 0.066416 0.316971 0.907521
v 0.063703 0.319718 0.904246
v 0.066512 0.316469 0.903097
v 0.069659 0.314161 0.905940
v 0.070958 0.317774 0.910848
v 0.073959 0.316270 0.909706
v 0.072911 0.314140 0.902692
v 0.069169 0.315531 0.900219
v 0.080376 0.316683 0.886348
v 0.085919 0.317449 0.886917
v 0.083657 0.336687 0.889186
v 0.078590 0.335618 0.885791
v 0.076593 0.334246 0.894349
v 0.081214 0.334759 0.896130
v 0.063464 0.323157 0.902049
v 0.064875 0.320809 0.900762
v 0.074080 0.331024 0.909209
v 0.070080 0.331093 0.905862
v 0.069878 0.331500 0.905611
v 0.073091 0.332409 0.909442
v 0.075254 0.331129 0.884481
v 0.075283 0.325551 0.883881
v 0.073190 0.326048 0.887706
v 0.073409 0.330467 0.892501
v 0.075024 0.320634 0.887251
v 0.077281 0.327710 0.910686
v 0.078906 0.321720 0.910298
v 0.090048 0.329196 0.894713
v 0.086451 0.332917 0.895606
v 0.066330 0.318845 0.900484
v 0.067347 0.328353 0.902454
v 0.065368 0.324074 0.901836
v 0.077509 0.316071 0.906061
v 0.075712 0.322828 0.912470
v 0.069457 0.333376 0.915007
v 0.074187 0.330125 0.912684
v 0.073317 0.333221 0.908982
v 0.070097 0.335544 0.912213
v 0.074955 0.328893 0.912218
v 0.072949 0.324770 0.913534
v 0.062552 0.331201 0.902045
v 0.066357 0.334455 0.904598
v 0.060575 0.328333 0.902570
v 0.090009 0.322006 0.889631
v 0.060282 0.323548 0.908560
v 0.059380 0.326114 0.904884
v 0.070072 0.332353 0.905108
v 0.069039 0.336193 0.908223
v 0.067131 0.328975 0.916092
v 0.064229 0.323647 0.913176
v 0.063332 0.331915 0.916552
v 0.060429 0.327085 0.913522
v 0.057609 0.327429 0.907406
v 0.059027 0.328912 0.903845
v 0.061026 0.330739 0.902034
v 0.066912 0.335728 0.915342
v 0.068378 0.337089 0.912972
v 0.068482 0.336744 0.908781
v 0.064081 0.338410 0.915388
v 0.059398 0.337074 0.914606
v 0.055100 0.343631 0.903564
v 0.055880 0.339333 0.903930
v 0.055574 0.339566 0.905099
v 0.054373 0.343569 0.904395
v 0.056069 0.333941 0.905988
v 0.055803 0.335686 0.906869
v 0.056640 0.334760 0.910491
v 0.055364 0.340153 0.909430
v 0.058584 0.342476 0.913228
v 0.057176 0.346328 0.912008
v 0.054208 0.343922 0.908976
v 0.058152 0.337810 0.913467
v 0.053318 0.346195 0.905039
v 0.053374 0.347347 0.904112
v 0.056781 0.332242 0.911477
v 0.058549 0.333510 0.902619
v 0.057125 0.340336 0.901719
v 0.055738 0.345478 0.901844
v 0.055038 0.349068 0.903555
v 0.059533 0.340524 0.900895
v 0.057768 0.346293 0.901026
v 0.057182 0.349597 0.902855
v 0.062755 0.341516 0.901426
v 0.060274 0.346629 0.901682
v 0.064847 0.335754 0.902086
v 0.061547 0.334563 0.901298
v 0.058886 0.349113 0.903017
v 0.053597 0.349124 0.907734
v 0.055934 0.350662 0.906455
v 0.053300 0.347606 0.908589
v 0.059769 0.342893 0.913909
v 0.058264 0.347638 0.912368
v 0.062065 0.343690 0.913874
v 0.060105 0.348574 0.911620
v 0.056081 0.349774 0.910398
v 0.055281 0.347960 0.910646
v 0.063849 0.333666 0.902136
v 0.066327 0.335290 0.904509
v 0.067294 0.337362 0.905258
v 0.065471 0.342872 0.904539
v 0.068453 0.338460 0.910008
v 0.066883 0.338902 0.913740
v 0.064320 0.344324 0.912304
v 0.065934 0.344370 0.909207
v 0.061500 0.349100 0.909980
v 0.063090 0.348552 0.907399
v 0.062702 0.347627 0.904057
v 0.058976 0.350831 0.907577
v 0.057606 0.350922 0.908920
v 0.057817 0.350823 0.905512
v 0.060359 0.350324 0.906304
v 0.059820 0.349944 0.904701
v 0.086815 0.334562 0.890696
v 0.026949 0.281452 0.838130
v 0.031513 0.283164 0.841331
v 0.024791 0.289542 0.854648
v 0.030844 0.287445 0.851879
v 0.018097 0.289004 0.853951
v 0.012778 0.285748 0.845135
v 0.014108 0.288433 0.849735
v 0.033286 0.285137 0.846975
v 0.021177 0.281273 0.836653
v 0.014907 0.283103 0.839220
v 0.022113 0.273883 0.839793
v 0.015325 0.275768 0.842922
v 0.012595 0.278055 0.848857
v 0.014388 0.282048 0.853924
v 0.017719 0.283980 0.857167
v 0.028569 0.276007 0.841582
v 0.032766 0.278300 0.844927
v 0.033584 0.281918 0.850542
v 0.031444 0.270476 0.846612
v 0.027191 0.262698 0.851741
v 0.018254 0.258458 0.868397
v 0.017032 0.264233 0.864904
v 0.017850 0.262078 0.862975
v 0.018316 0.256845 0.866118
v 0.016333 0.266625 0.859888
v 0.017818 0.264593 0.859616
v 0.021027 0.263516 0.855360
v 0.021455 0.258896 0.858384
v 0.025783 0.261777 0.853950
v 0.027453 0.258867 0.856197
v 0.022109 0.254266 0.861303
v 0.019346 0.252955 0.866343
v 0.022829 0.250570 0.864111
v 0.020483 0.253574 0.869412
v 0.019680 0.263164 0.853465
v 0.015229 0.273940 0.860112
v 0.017597 0.267842 0.866349
v 0.020092 0.261225 0.870441
v 0.022712 0.255329 0.871202
v 0.020775 0.270888 0.867778
v 0.023540 0.264278 0.870665
v 0.026411 0.258978 0.870858
v 0.025520 0.272420 0.867436
v 0.027227 0.265569 0.869460
v 0.024060 0.282808 0.859770
v 0.018120 0.279940 0.860842
v 0.028069 0.261168 0.869703
v 0.024459 0.249568 0.866394
v 0.027052 0.251599 0.868337
v 0.030628 0.259907 0.854955
v 0.027983 0.254058 0.858490
v 0.031040 0.255088 0.858829
v 0.033630 0.262806 0.854662
v 0.033437 0.256733 0.859736
v 0.029179 0.250902 0.862356
v 0.026453 0.251171 0.861091
v 0.023734 0.285855 0.857422
v 0.029706 0.285201 0.854498
v 0.030177 0.282171 0.856490
v 0.031412 0.272456 0.863975
v 0.034477 0.278682 0.853123
v 0.034427 0.273852 0.848996
v 0.035615 0.265707 0.856473
v 0.035177 0.269517 0.859735
v 0.034434 0.259699 0.861911
v 0.033836 0.262213 0.863776
v 0.031116 0.264598 0.867327
v 0.032326 0.256235 0.865386
v 0.031550 0.252898 0.863781
v 0.029420 0.255877 0.868765
v 0.032323 0.259178 0.865805
v 0.030305 0.259619 0.868171
v 0.079024 0.338167 0.882006
v 0.074616 0.333055 0.880313
v 0.074295 0.337995 0.877737
v 0.070841 0.344664 0.873795
v 0.072832 0.354205 0.869996
v 0.067286 0.339570 0.870274
v 0.071090 0.332735 0.874856
v 0.072399 0.325216 0.878665
v 0.061954 0.340631 0.861721
f 780 781 779
f 779 781 782
f 783 784 786
f 786 784 785
f 787 782 788
f 788 782 781
f 790 791 789
f 789 791 787
f 792 790 794
f 794 790 793
f 796 797 795
f 795 797 798
f 800 801 799
f 799 801 802
f 804 805 803
f 803 805 806
f 808 809 807
f 807 809 810
f 811 812 814
f 814 812 813
f 815 816 818
f 818 816 817
f 819 820 784
f 784 820 821
f 784 821 785
f 785 821 822
f 823 812 824
f 824 812 811
f 826 827 825
f 825 827 828
f 830 831 829
f 829 831 832
f 834 830 833
f 833 830 829
f 836 837 835
f 835 837 838
f 839 840 782
f 782 840 779
f 842 843 841
f 841 843 844
f 846 847 845
f 845 847 848
f 850 851 849
f 849 851 852
f 854 855 853
f 853 855 856
f 831 857 832
f 832 857 858
f 860 861 859
f 859 861 862
f 863 864 830
f 830 864 831
f 835 838 865
f 865 838 866
f 867 868 821
f 821 868 822
f 821 820 867
f 867 820 869
f 818 817 870
f 870 817 871
f 872 848 842
f 842 848 847
f 791 839 787
f 787 839 782
f 803 806 847
f 847 806 873
f 874 803 846
f 846 803 847
f 876 877 875
f 875 877 878
f 879 880 882
f 882 880 881
f 884 808 883
f 883 808 807
f 829 832 885
f 885 832 886
f 832 858 886
f 886 858 887
f 889 890 888
f 888 890 891
f 893 783 892
f 892 783 894
f 893 819 783
f 783 819 784
f 814 813 889
f 889 813 895
f 813 896 895
f 895 896 897
f 812 898 813
f 813 898 896
f 812 823 898
f 898 823 899
f 903 904 902
f 902 904 905
f 906 907 792
f 792 907 908
f 811 909 824
f 824 909 910
f 911 872 841
f 841 872 842
f 912 913 915
f 915 913 914
f 917 918 916
f 916 918 919
f 855 920 856
f 856 920 921
f 922 923 798
f 798 923 924
f 926 927 925
f 925 927 850
f 929 930 928
f 928 930 931
f 860 879 861
f 861 879 882
f 879 860 933
f 933 860 932
f 934 935 836
f 836 935 837
f 936 846 925
f 925 846 845
f 937 924 793
f 793 924 794
f 846 936 874
f 874 936 938
f 907 844 908
f 908 844 843
f 940 941 939
f 939 941 942
f 944 945 943
f 943 945 946
f 948 949 947
f 947 949 950
f 952 949 951
f 951 949 948
f 954 955 953
f 953 955 956
f 958 959 957
f 957 959 802
f 960 961 799
f 799 961 962
f 859 963 860
f 860 963 932
f 964 965 966
f 966 965 922
f 936 849 938
f 938 849 967
f 968 913 935
f 935 913 837
f 947 950 917
f 917 950 918
f 925 850 936
f 936 850 849
f 970 971 969
f 969 971 972
f 945 944 827
f 827 944 973
f 974 968 828
f 828 968 935
f 975 976 978
f 978 976 977
f 799 802 960
f 960 802 959
f 924 937 798
f 798 937 795
f 960 959 859
f 859 959 963
f 979 963 958
f 958 963 959
f 980 981 861
f 861 981 862
f 983 984 982
f 982 984 863
f 985 800 962
f 962 800 799
f 957 802 986
f 986 802 801
f 986 987 957
f 957 987 983
f 987 988 983
f 983 988 984
f 990 984 989
f 989 984 988
f 957 983 958
f 958 983 982
f 991 954 866
f 866 954 992
f 864 863 990
f 990 863 984
f 971 995 996
f 995 997 996
f 996 997 998
f 997 796 998
f 998 796 795
f 797 999 798
f 798 999 922
f 1000 1001 1003
f 1003 1001 1002
f 953 1004 954
f 954 1004 992
f 1005 865 992
f 992 865 866
f 998 795 1006
f 1006 795 937
f 912 991 838
f 838 991 866
f 916 1007 929
f 929 1007 930
f 971 970 988
f 988 970 989
f 1008 972 996
f 996 972 971
f 1009 1010 1006
f 1006 1010 1008
f 1011 1012 869
f 869 1012 867
f 1013 1014 871
f 871 1014 870
f 1008 1010 1012
f 1012 1010 1015
f 825 1016 826
f 826 1016 1017
f 1018 969 1013
f 1013 969 1014
f 783 786 894
f 894 786 1019
f 1020 1021 967
f 967 1021 938
f 1022 1023 876
f 876 1023 877
f 934 1024 825
f 825 1024 1016
f 854 1025 855
f 855 1025 1026
f 1028 903 1027
f 1027 903 902
f 1030 1031 1029
f 1029 1031 1032
f 889 888 814
f 814 888 1033
f 1034 811 1033
f 1033 811 814
f 1035 1036 932
f 932 1036 933
f 841 947 911
f 911 947 917
f 844 948 841
f 841 948 947
f 951 948 907
f 907 948 844
f 907 906 951
f 951 906 1037
f 906 1038 1037
f 1037 1038 1039
f 991 912 1040
f 1040 912 915
f 1041 1042 964
f 964 1042 965
f 890 1043 891
f 891 1043 1044
f 789 1045 1046
f 1012 1011 1008
f 1008 1011 972
f 931 1047 848
f 848 1047 845
f 953 956 943
f 943 956 919
f 928 931 872
f 872 931 848
f 1049 999 1048
f 1048 999 985
f 1047 931 1050
f 1050 931 930
f 899 823 887
f 887 823 886
f 825 828 934
f 934 828 935
f 835 1051 836
f 836 1051 1052
f 923 1053 1038
f 1038 1053 1039
f 1054 927 921
f 921 927 856
f 926 1047 853
f 853 1047 1050
f 985 1055 1048
f 1048 1055 1056
f 973 974 827
f 827 974 828
f 837 913 838
f 838 913 912
f 861 882 980
f 980 882 1057
f 927 926 856
f 856 926 853
f 1025 1056 1026
f 1026 1056 1055
f 961 960 862
f 862 960 859
f 826 1017 1059
f 1059 1017 1060
f 1005 1001 1061
f 1061 1001 1000
f 1001 1004 1002
f 1002 1004 946
f 1059 1060 1002
f 1002 1060 1003
f 943 946 953
f 953 946 1004
f 1042 1041 916
f 916 1041 1007
f 792 794 906
f 906 794 1038
f 998 1006 996
f 996 1006 1008
f 865 1005 1062
f 1062 1005 1061
f 1038 794 923
f 923 794 924
f 1022 876 1036
f 1036 876 933
f 836 1052 934
f 934 1052 1024
f 885 1063 829
f 829 1063 833
f 1021 1064 938
f 938 1064 874
f 1012 1015 867
f 867 1015 868
f 824 910 885
f 885 910 1063
f 1031 1030 1027
f 1027 1030 1028
f 1064 804 874
f 874 804 803
f 884 883 1065
f 1065 883 1066
f 1050 930 1067
f 1067 930 1007
f 916 929 917
f 917 929 911
f 961 1068 939
f 939 1068 940
f 1069 1070 1055
f 1055 1070 1071
f 929 928 911
f 911 928 872
f 1040 1053 955
f 955 1053 965
f 922 965 923
f 923 965 1053
f 1051 835 1062
f 1062 835 865
f 952 914 968
f 968 914 913
f 889 895 890
f 890 895 816
f 895 897 816
f 816 897 901
f 890 816 1043
f 1043 816 815
f 1065 1066 1032
f 1032 1066 1029
f 1006 937 1009
f 1009 937 793
f 1001 1005 1004
f 1004 1005 992
f 925 845 926
f 926 845 1047
f 1002 946 1059
f 1059 946 945
f 977 941 978
f 978 941 940
f 823 824 886
f 886 824 885
f 1059 945 826
f 826 945 827
f 939 942 1069
f 1069 942 1070
f 816 901 817
f 1071 1072 1055
f 1055 1072 1026
f 1062 1061 1074
f 1074 1061 1073
f 1062 1074 1051
f 1051 1074 1075
f 1052 1051 1076
f 1076 1051 1075
f 1024 1052 1077
f 1077 1052 1076
f 1061 1000 1073
f 1073 1000 1078
f 1000 1003 1078
f 1078 1003 1079
f 1079 1003 1080
f 1080 1003 1060
f 1081 1082 1078
f 1078 1082 1073
f 1084 1085 1083
f 1083 1085 1086
f 1087 1088 1086
f 1086 1088 1083
f 1086 1085 1090
f 1090 1085 1089
f 1091 1092 1090
f 1090 1092 1093
f 1089 1094 1090
f 1090 1094 1091
f 1095 1082 1089
f 1089 1082 1094
f 1093 1087 1090
f 1090 1087 1086
f 1096 1097 1099
f 1099 1097 1098
f 1097 1096 1087
f 1087 1096 1088
f 1089 1085 1095
f 1095 1085 1084
f 1084 1075 1095
f 1095 1075 1074
f 1084 1100 1075
f 1075 1100 1076
f 1083 1101 1084
f 1084 1101 1100
f 1101 1083 1102
f 1102 1083 1088
f 1082 1095 1073
f 1073 1095 1074
f 1096 1103 1088
f 1088 1103 1102
f 1101 1102 1104
f 1104 1102 1105
f 1102 1103 1105
f 1105 1103 1106
f 1104 1105 1107
f 1107 1105 1108
f 1107 1109 1104
f 1104 1109 1110
f 1111 1108 1106
f 1106 1108 1105
f 1101 1104 1100
f 1100 1104 1110
f 1100 1110 1076
f 1076 1110 1077
f 1103 1096 1112
f 1112 1096 1099
f 1091 1094 1113
f 1113 1094 1082
f 1113 1114 1091
f 1091 1114 1092
f 1082 1081 1113
f 1113 1081 1115
f 1114 1113 1116
f 1116 1113 1115
f 1114 1117 1092
f 1092 1117 1118
f 1024 1077 1016
f 1016 1077 1119
f 1017 1120 1060
f 1060 1120 1080
f 1120 1017 1119
f 1119 1017 1016
f 1119 1109 1120
f 1120 1109 1121
f 1109 1107 1121
f 1121 1107 1122
f 1120 1121 1080
f 1080 1121 1123
f 1119 1077 1109
f 1109 1077 1110
f 1124 1079 1123
f 1123 1079 1080
f 1124 1081 1079
f 1079 1081 1078
f 1125 1115 1124
f 1124 1115 1081
f 1125 1124 1126
f 1126 1124 1123
f 1127 1125 1128
f 1128 1125 1126
f 1121 1122 1123
f 1123 1122 1126
f 1122 1129 1126
f 1126 1129 1128
f 1115 1125 1116
f 1116 1125 1127
f 1131 1116 1130
f 1130 1116 1127
f 1130 1133 1132
f 1132 1133 1134
f 1130 1127 1133
f 1133 1127 1128
f 1130 1132 1131
f 1131 1132 1112
f 1131 1112 1117
f 1117 1112 1099
f 1117 1114 1131
f 1131 1114 1116
f 1107 1108 1122
f 1122 1108 1129
f 1134 1129 1111
f 1111 1129 1108
f 1134 1133 1129
f 1129 1133 1128
f 1132 1134 1106
f 1106 1134 1111
f 1106 1103 1132
f 1132 1103 1112
f 1087 1093 1097
f 1097 1093 1098
f 1098 1118 1099
f 1099 1118 1117
f 1098 1093 1118
f 1118 1093 1092
f 915 914 1039
f 1039 914 1037
f 918 944 919
f 919 944 943
f 950 949 973
f 973 949 974
f 949 952 974
f 974 952 968
f 956 955 1042
f 1042 955 965
f 950 973 918
f 918 973 944
f 915 1039 1040
f 1040 1039 1053
f 956 1042 919
f 919 1042 916
f 1040 955 991
f 991 955 954
f 914 952 1037
f 1037 952 951
f 1136 1137 1135
f 1135 1137 1138
f 1140 1141 1139
f 1139 1141 1142
f 1139 1142 1143
f 1143 1142 1144
f 1145 1146 1148
f 1148 1146 1147
f 854 1149 1025
f 1025 1149 1150
f 1151 1152 1140
f 1140 1152 1141
f 1154 1155 1153
f 1153 1155 1156
f 1067 1007 1158
f 1158 1007 1157
f 1159 1157 1041
f 1041 1157 1007
f 1161 1162 1160
f 1160 1162 1163
f 1164 1146 1152
f 1152 1146 1141
f 854 1067 1149
f 1149 1067 1158
f 1155 1154 1137
f 1137 1154 1165
f 1166 1164 1138
f 1138 1164 1152
f 1167 1161 1144
f 1144 1161 1168
f 1170 1171 1169
f 1169 1171 1172
f 1161 1160 1168
f 1168 1160 1173
f 1174 1143 1168
f 1168 1143 1144
f 1167 1144 1145
f 1145 1144 1142
f 1135 1175 1136
f 1136 1175 1176
f 1151 1177 1135
f 1135 1177 1175
f 1167 1145 1178
f 1178 1145 1148
f 1160 1163 1153
f 1153 1163 1150
f 1135 1138 1151
f 1151 1138 1152
f 1139 1179 1140
f 1140 1179 1180
f 1165 1166 1137
f 1137 1166 1138
f 1141 1146 1142
f 1142 1146 1145
f 1136 1176 1181
f 1181 1176 1182
f 1174 1170 1183
f 1183 1170 1169
f 1170 1173 1171
f 1171 1173 1156
f 1171 1181 1172
f 1172 1181 1182
f 1153 1156 1160
f 1160 1156 1173
f 1143 1174 1184
f 1184 1174 1183
f 1140 1180 1151
f 1151 1180 1177
f 1049 1048 1178
f 1178 1048 1162
f 1179 1139 1184
f 1184 1139 1143
f 1159 1147 1164
f 1164 1147 1146
f 1170 1174 1173
f 1173 1174 1168
f 1171 1156 1181
f 1181 1156 1155
f 1181 1155 1136
f 1136 1155 1137
f 1184 1183 1186
f 1186 1183 1185
f 1184 1186 1179
f 1179 1186 1187
f 1179 1187 1180
f 1180 1187 1188
f 1180 1188 1177
f 1177 1188 1189
f 1183 1169 1185
f 1185 1169 1190
f 1169 1172 1190
f 1190 1172 1191
f 1172 1182 1191
f 1191 1182 1192
f 1193 1194 1190
f 1190 1194 1185
f 1196 1197 1195
f 1195 1197 1198
f 1199 1200 1196
f 1196 1200 1197
f 1197 1200 1202
f 1202 1200 1201
f 1203 1204 1202
f 1202 1204 1205
f 1201 1206 1202
f 1202 1206 1203
f 1205 1198 1202
f 1202 1198 1197
f 1198 1207 1195
f 1195 1207 1208
f 1201 1200 1209
f 1209 1200 1199
f 1199 1187 1209
f 1209 1187 1186
f 1199 1210 1187
f 1187 1210 1188
f 1196 1211 1199
f 1199 1211 1210
f 1212 1211 1195
f 1195 1211 1196
f 1209 1194 1201
f 1201 1194 1206
f 1194 1209 1185
f 1185 1209 1186
f 1213 1212 1208
f 1208 1212 1195
f 1211 1212 1214
f 1214 1212 1215
f 1212 1213 1215
f 1215 1213 1216
f 1214 1215 1217
f 1217 1215 1218
f 1217 1219 1214
f 1214 1219 1220
f 1216 1221 1215
f 1215 1221 1218
f 1214 1220 1211
f 1211 1220 1210
f 1210 1220 1188
f 1188 1220 1189
f 1213 1208 1223
f 1223 1208 1222
f 1208 1207 1222
f 1222 1207 1224
f 1203 1206 1225
f 1225 1206 1194
f 1204 1203 1226
f 1226 1203 1225
f 1194 1193 1225
f 1225 1193 1227
f 1225 1227 1226
f 1226 1227 1228
f 1229 1230 1226
f 1226 1230 1204
f 1224 1230 1222
f 1222 1230 1229
f 1177 1189 1175
f 1175 1189 1231
f 1176 1232 1182
f 1182 1232 1192
f 1232 1176 1231
f 1231 1176 1175
f 1231 1219 1232
f 1232 1219 1233
f 1219 1217 1233
f 1233 1217 1234
f 1232 1233 1192
f 1192 1233 1235
f 1219 1231 1220
f 1220 1231 1189
f 1236 1191 1235
f 1235 1191 1192
f 1236 1193 1191
f 1191 1193 1190
f 1236 1237 1193
f 1193 1237 1227
f 1237 1236 1238
f 1238 1236 1235
f 1239 1237 1240
f 1240 1237 1238
f 1233 1234 1235
f 1235 1234 1238
f 1234 1241 1238
f 1238 1241 1240
f 1237 1239 1227
f 1227 1239 1228
f 1243 1228 1242
f 1242 1228 1239
f 1242 1245 1244
f 1244 1245 1246
f 1242 1239 1245
f 1245 1239 1240
f 1242 1244 1243
f 1243 1244 1223
f 1243 1223 1229
f 1229 1223 1222
f 1229 1226 1243
f 1243 1226 1228
f 1217 1218 1234
f 1234 1218 1241
f 1246 1241 1221
f 1221 1241 1218
f 1246 1245 1241
f 1241 1245 1240
f 1244 1246 1216
f 1216 1246 1221
f 1216 1213 1244
f 1244 1213 1223
f 1198 1205 1207
f 1207 1205 1224
f 1224 1205 1230
f 1230 1205 1204
f 1148 1147 966
f 966 1147 964
f 1149 1154 1150
f 1150 1154 1153
f 1158 1157 1165
f 1165 1157 1166
f 1157 1159 1166
f 1166 1159 1164
f 1163 1162 1056
f 1056 1162 1048
f 1158 1165 1149
f 1149 1165 1154
f 1178 1148 1049
f 1049 1148 966
f 1163 1056 1150
f 1150 1056 1025
f 1178 1162 1167
f 1167 1162 1161
f 1147 1159 964
f 964 1159 1041
f 999 1049 922
f 922 1049 966
f 999 797 985
f 985 797 800
f 797 796 800
f 800 796 801
f 796 997 801
f 801 997 986
f 1247 1248 1250
f 1250 1248 1249
f 1252 1253 1251
f 1251 1253 1254
f 1251 1254 1255
f 1255 1254 1256
f 1258 1259 1257
f 1257 1259 1260
f 1261 1262 1252
f 1252 1262 1253
f 1264 1265 1263
f 1263 1265 1266
f 1267 1268 855
f 855 1268 920
f 1269 1267 1026
f 1026 1267 855
f 1271 1272 1270
f 1270 1272 1273
f 1274 1258 1262
f 1262 1258 1253
f 1264 1275 1265
f 1265 1275 1249
f 1276 1274 1250
f 1250 1274 1262
f 1277 1271 1256
f 1256 1271 1278
f 1279 1280 1282
f 1282 1280 1281
f 1271 1270 1278
f 1278 1270 1283
f 1284 1255 1278
f 1278 1255 1256
f 1277 1256 1257
f 1257 1256 1254
f 1247 1285 1248
f 1248 1285 1286
f 1261 1287 1247
f 1247 1287 1285
f 1257 1260 1277
f 1277 1260 1288
f 1270 1273 1263
f 1263 1273 1289
f 1261 1247 1262
f 1262 1247 1250
f 1251 1290 1252
f 1252 1290 1291
f 1275 1276 1249
f 1249 1276 1250
f 1253 1258 1254
f 1254 1258 1257
f 1248 1286 1292
f 1292 1286 1293
f 1284 1280 1294
f 1294 1280 1279
f 1281 1280 1266
f 1266 1280 1283
f 1292 1293 1281
f 1281 1293 1282
f 1263 1266 1270
f 1270 1266 1283
f 1255 1284 1295
f 1295 1284 1294
f 1252 1291 1261
f 1261 1291 1287
f 1288 1070 1272
f 1272 1070 942
f 1290 1251 1295
f 1295 1251 1255
f 1269 1259 1274
f 1274 1259 1258
f 1280 1284 1283
f 1283 1284 1278
f 1281 1266 1292
f 1292 1266 1265
f 1292 1265 1248
f 1248 1265 1249
f 1295 1294 1297
f 1297 1294 1296
f 1295 1297 1290
f 1290 1297 1298
f 1290 1298 1291
f 1291 1298 1299
f 1291 1299 1287
f 1287 1299 1300
f 1294 1279 1296
f 1296 1279 1301
f 1279 1282 1301
f 1301 1282 1302
f 1302 1282 1303
f 1303 1282 1293
f 1304 1305 1301
f 1301 1305 1296
f 1307 1308 1306
f 1306 1308 1309
f 1310 1311 1307
f 1307 1311 1308
f 1308 1311 1313
f 1313 1311 1312
f 1314 1315 1313
f 1313 1315 1316
f 1312 1317 1313
f 1313 1317 1314
f 1316 1309 1313
f 1313 1309 1308
f 1318 1319 1309
f 1309 1319 1306
f 1311 1310 1312
f 1312 1310 1320
f 1310 1298 1320
f 1320 1298 1297
f 1310 1321 1298
f 1298 1321 1299
f 1307 1322 1310
f 1310 1322 1321
f 1322 1307 1323
f 1323 1307 1306
f 1312 1320 1317
f 1317 1320 1305
f 1305 1320 1296
f 1296 1320 1297
f 1319 1324 1306
f 1306 1324 1323
f 1325 1322 1326
f 1326 1322 1323
f 1324 1327 1323
f 1323 1327 1326
f 1328 1325 1329
f 1329 1325 1326
f 1325 1328 1331
f 1331 1328 1330
f 1327 1332 1326
f 1326 1332 1329
f 1322 1325 1321
f 1321 1325 1331
f 1321 1331 1299
f 1299 1331 1300
f 1324 1319 1334
f 1334 1319 1333
f 1319 1318 1333
f 1333 1318 1335
f 1314 1317 1336
f 1336 1317 1305
f 1315 1314 1337
f 1337 1314 1336
f 1305 1304 1336
f 1336 1304 1338
f 1337 1336 1339
f 1339 1336 1338
f 1337 1340 1315
f 1315 1340 1341
f 1335 1341 1333
f 1333 1341 1340
f 1287 1300 1285
f 1285 1300 1342
f 1286 1343 1293
f 1293 1343 1303
f 1343 1286 1342
f 1342 1286 1285
f 1342 1330 1343
f 1343 1330 1344
f 1330 1328 1344
f 1344 1328 1345
f 1343 1344 1303
f 1303 1344 1346
f 1342 1300 1330
f 1330 1300 1331
f 1347 1302 1346
f 1346 1302 1303
f 1347 1304 1302
f 1302 1304 1301
f 1348 1338 1347
f 1347 1338 1304
f 1348 1347 1349
f 1349 1347 1346
f 1350 1348 1351
f 1351 1348 1349
f 1344 1345 1346
f 1346 1345 1349
f 1345 1352 1349
f 1349 1352 1351
f 1348 1350 1338
f 1338 1350 1339
f 1354 1339 1353
f 1353 1339 1350
f 1353 1356 1355
f 1355 1356 1357
f 1353 1350 1356
f 1356 1350 1351
f 1353 1355 1354
f 1354 1355 1334
f 1354 1334 1340
f 1340 1334 1333
f 1340 1337 1354
f 1354 1337 1339
f 1328 1329 1345
f 1345 1329 1352
f 1357 1352 1332
f 1332 1352 1329
f 1357 1356 1352
f 1352 1356 1351
f 1357 1332 1355
f 1355 1332 1327
f 1327 1324 1355
f 1355 1324 1334
f 1309 1316 1318
f 1318 1316 1335
f 1335 1316 1341
f 1341 1316 1315
f 1259 1072 1260
f 1260 1072 1071
f 1358 1264 1289
f 1289 1264 1263
f 1268 1267 1275
f 1275 1267 1276
f 1267 1269 1276
f 1276 1269 1274
f 941 1273 942
f 942 1273 1272
f 1358 1268 1264
f 1264 1268 1275
f 1260 1071 1288
f 1288 1071 1070
f 1273 941 1289
f 1289 941 977
f 1272 1271 1288
f 1288 1271 1277
f 1259 1269 1072
f 1072 1269 1026
f 1360 1361 1359
f 1359 1361 1362
f 1364 1365 1363
f 1363 1365 1366
f 1363 1366 1367
f 1367 1366 1368
f 1370 1371 1369
f 1369 1371 1372
f 1373 1374 1376
f 1376 1374 1375
f 1377 1378 1364
f 1364 1378 1365
f 1379 1380 1382
f 1382 1380 1381
f 1383 1384 1386
f 1386 1384 1385
f 1387 1385 978
f 978 1385 1384
f 1388 1389 1391
f 1391 1389 1390
f 1378 1392 1365
f 1365 1392 1370
f 1374 1383 1375
f 1375 1383 1386
f 1380 1393 1381
f 1381 1393 1361
f 1394 1392 1362
f 1362 1392 1378
f 1389 1396 1395
f 1395 1396 1368
f 1398 1399 1397
f 1397 1399 1400
f 1388 1401 1389
f 1389 1401 1396
f 1402 1367 1396
f 1396 1367 1368
f 1395 1368 1369
f 1369 1368 1366
f 1359 1403 1360
f 1360 1403 1404
f 1377 1405 1359
f 1359 1405 1403
f 1369 1372 1395
f 1395 1372 1406
f 1379 1388 1376
f 1376 1388 1391
f 1359 1362 1377
f 1377 1362 1378
f 1363 1407 1364
f 1364 1407 1408
f 1393 1394 1361
f 1361 1394 1362
f 1365 1370 1366
f 1366 1370 1369
f 1360 1404 1409
f 1409 1404 1410
f 1402 1398 1411
f 1411 1398 1397
f 1399 1398 1382
f 1382 1398 1401
f 1409 1410 1399
f 1399 1410 1400
f 1388 1379 1401
f 1401 1379 1382
f 1367 1402 1412
f 1412 1402 1411
f 1364 1408 1377
f 1377 1408 1405
f 981 980 1406
f 1406 980 1390
f 1407 1363 1412
f 1412 1363 1367
f 1387 1371 1392
f 1392 1371 1370
f 1398 1402 1401
f 1401 1402 1396
f 1409 1399 1381
f 1381 1399 1382
f 1360 1409 1361
f 1361 1409 1381
f 1412 1411 1414
f 1414 1411 1413
f 1412 1414 1407
f 1407 1414 1415
f 1407 1415 1408
f 1408 1415 1416
f 1408 1416 1405
f 1405 1416 1417
f 1411 1397 1413
f 1413 1397 1418
f 1397 1400 1418
f 1418 1400 1419
f 1419 1400 1420
f 1420 1400 1410
f 1422 1413 1421
f 1421 1413 1418
f 1423 1424 1426
f 1426 1424 1425
f 1427 1428 1424
f 1424 1428 1425
f 1425 1428 1430
f 1430 1428 1429
f 1430 1431 1433
f 1433 1431 1432
f 1429 1434 1430
f 1430 1434 1431
f 1433 1426 1430
f 1430 1426 1425
f 1426 1435 1423
f 1423 1435 1436
f 1428 1427 1429
f 1429 1427 1437
f 1427 1415 1437
f 1437 1415 1414
f 1427 1438 1415
f 1415 1438 1416
f 1439 1438 1424
f 1424 1438 1427
f 1440 1439 1423
f 1423 1439 1424
f 1429 1437 1434
f 1434 1437 1422
f 1422 1437 1413
f 1413 1437 1414
f 1441 1440 1436
f 1436 1440 1423
f 1442 1439 1443
f 1443 1439 1440
f 1441 1444 1440
f 1440 1444 1443
f 1445 1442 1446
f 1446 1442 1443
f 1442 1445 1448
f 1448 1445 1447
f 1444 1449 1443
f 1443 1449 1446
f 1439 1442 1438
f 1438 1442 1448
f 1438 1448 1416
f 1416 1448 1417
f 1436 1450 1441
f 1441 1450 1451
f 1436 1435 1450
f 1450 1435 1452
f 1431 1434 1453
f 1453 1434 1422
f 1431 1453 1432
f 1432 1453 1454
f 1453 1422 1455
f 1455 1422 1421
f 1454 1453 1456
f 1456 1453 1455
f 1457 1458 1454
f 1454 1458 1432
f 1452 1458 1450
f 1450 1458 1457
f 1405 1417 1403
f 1403 1417 1459
f 1404 1460 1410
f 1410 1460 1420
f 1459 1460 1403
f 1403 1460 1404
f 1447 1461 1459
f 1459 1461 1460
f 1445 1462 1447
f 1447 1462 1461
f 1460 1461 1420
f 1420 1461 1463
f 1459 1417 1447
f 1447 1417 1448
f 1464 1419 1463
f 1463 1419 1420
f 1419 1464 1418
f 1418 1464 1421
f 1464 1465 1421
f 1421 1465 1455
f 1465 1464 1466
f 1466 1464 1463
f 1467 1465 1468
f 1468 1465 1466
f 1461 1462 1463
f 1463 1462 1466
f 1462 1469 1466
f 1466 1469 1468
f 1465 1467 1455
f 1455 1467 1456
f 1471 1456 1470
f 1470 1456 1467
f 1470 1473 1472
f 1472 1473 1474
f 1470 1467 1473
f 1473 1467 1468
f 1470 1472 1471
f 1471 1472 1451
f 1471 1451 1457
f 1457 1451 1450
f 1457 1454 1471
f 1471 1454 1456
f 1462 1445 1469
f 1469 1445 1446
f 1474 1469 1449
f 1449 1469 1446
f 1474 1473 1469
f 1469 1473 1468
f 1472 1474 1444
f 1444 1474 1449
f 1444 1441 1472
f 1472 1441 1451
f 1426 1433 1435
f 1435 1433 1452
f 1452 1433 1458
f 1458 1433 1432
f 1371 940 1372
f 1372 940 1068
f 1376 1375 1379
f 1379 1375 1380
f 1393 1386 1394
f 1394 1386 1385
f 1385 1387 1394
f 1394 1387 1392
f 1475 1373 1391
f 1391 1373 1376
f 1375 1386 1380
f 1380 1386 1393
f 1372 1068 1406
f 1406 1068 981
f 1406 1390 1395
f 1395 1390 1389
f 1371 1387 940
f 940 1387 978
f 883 807 1476
f 1476 807 1477
f 1046 904 1479
f 1479 904 1478
f 904 903 1478
f 1478 903 1480
f 1030 1481 1028
f 1028 1481 1482
f 810 1046 1483
f 1483 1046 1479
f 1066 883 1484
f 1484 883 1476
f 807 810 1477
f 1477 810 1483
f 1485 1029 1484
f 1484 1029 1066
f 1028 1482 903
f 903 1482 1480
f 1481 1030 1485
f 1485 1030 1029
f 1484 1486 1485
f 1485 1486 1487
f 1485 1487 1481
f 1481 1487 1488
f 1481 1488 1482
f 1482 1488 1489
f 1482 1489 1480
f 1480 1489 1490
f 1484 1476 1486
f 1486 1476 1491
f 1476 1477 1491
f 1491 1477 1492
f 1477 1483 1492
f 1492 1483 1493
f 1495 1486 1494
f 1494 1486 1491
f 1497 1498 1496
f 1496 1498 1499
f 1500 1501 1497
f 1497 1501 1498
f 1502 1503 1501
f 1501 1503 1498
f 1502 1504 1503
f 1503 1504 1505
f 1506 1499 1503
f 1503 1499 1498
f 1499 1506 1507
f 1507 1506 1508
f 1507 1509 1499
f 1499 1509 1496
f 1502 1501 1510
f 1510 1501 1500
f 1500 1488 1510
f 1510 1488 1487
f 1500 1511 1488
f 1488 1511 1489
f 1497 1512 1500
f 1500 1512 1511
f 1512 1497 1513
f 1513 1497 1496
f 1502 1510 1504
f 1504 1510 1495
f 1495 1510 1486
f 1486 1510 1487
f 1509 1514 1496
f 1496 1514 1513
f 1515 1512 1516
f 1516 1512 1513
f 1514 1517 1513
f 1513 1517 1516
f 1518 1515 1519
f 1519 1515 1516
f 1515 1518 1521
f 1521 1518 1520
f 1517 1522 1516
f 1516 1522 1519
f 1512 1515 1511
f 1511 1515 1521
f 1511 1521 1489
f 1489 1521 1490
f 1514 1509 1524
f 1524 1509 1523
f 1509 1507 1523
f 1523 1507 1508
f 1505 1504 1525
f 1525 1504 1495
f 1526 1505 1527
f 1527 1505 1525
f 1525 1495 1528
f 1528 1495 1494
f 1527 1525 1529
f 1529 1525 1528
f 1527 1530 1526
f 1526 1530 1531
f 1508 1531 1523
f 1523 1531 1530
f 1506 1503 1526
f 1526 1503 1505
f 1508 1506 1531
f 1531 1506 1526
f 1478 1480 1532
f 1532 1480 1490
f 1483 1479 1493
f 1493 1479 1533
f 1532 1533 1478
f 1478 1533 1479
f 1520 1534 1532
f 1532 1534 1533
f 1518 1535 1520
f 1520 1535 1534
f 1533 1534 1493
f 1493 1534 1536
f 1532 1490 1520
f 1520 1490 1521
f 1537 1492 1536
f 1536 1492 1493
f 1492 1537 1491
f 1491 1537 1494
f 1537 1538 1494
f 1494 1538 1528
f 1538 1537 1539
f 1539 1537 1536
f 1540 1538 1541
f 1541 1538 1539
f 1534 1535 1536
f 1536 1535 1539
f 1535 1542 1539
f 1539 1542 1541
f 1538 1540 1528
f 1528 1540 1529
f 1544 1529 1543
f 1543 1529 1540
f 1545 1543 1547
f 1547 1543 1546
f 1543 1540 1546
f 1546 1540 1541
f 1543 1545 1544
f 1544 1545 1524
f 1544 1524 1530
f 1530 1524 1523
f 1530 1527 1544
f 1544 1527 1529
f 1535 1518 1542
f 1542 1518 1519
f 1547 1542 1522
f 1522 1542 1519
f 1547 1546 1542
f 1542 1546 1541
f 1545 1547 1517
f 1517 1547 1522
f 1517 1514 1545
f 1545 1514 1524
f 997 995 986
f 986 995 987
f 987 995 988
f 988 995 971
f 976 1358 977
f 977 1358 1289
f 854 853 1067
f 1067 853 1050
f 1055 985 1069
f 1069 985 962
f 1068 961 981
f 981 961 862
f 1268 1358 920
f 920 1358 976
f 920 976 921
f 921 976 975
f 927 1054 850
f 850 1054 851
f 882 881 1057
f 1057 881 1548
f 1548 1374 1057
f 1057 1374 1373
f 1383 1374 1549
f 1549 1374 1548
f 1549 1548 1550
f 1550 1548 881
f 1550 881 1551
f 1551 881 880
f 933 1552 879
f 879 1552 880
f 1551 880 875
f 875 880 1552
f 1553 1551 878
f 878 1551 875
f 1551 1553 1550
f 1550 1553 1554
f 1550 1554 1549
f 1549 1554 1555
f 978 1384 975
f 975 1384 1555
f 967 849 1556
f 1556 849 852
f 875 1552 876
f 876 1552 933
f 961 939 962
f 962 939 1069
f 1555 1054 975
f 975 1054 921
f 1555 1384 1549
f 1549 1384 1383
f 1391 1390 1475
f 1475 1390 980
f 1373 1475 1057
f 1057 1475 980
f 851 1054 1554
f 1554 1054 1555
f 1554 1553 851
f 851 1553 852
f 878 1556 1553
f 1553 1556 852
f 1556 878 967
f 967 878 877
f 1023 1020 877
f 877 1020 967
f 909 811 1034
f 806 779 873
f 873 779 840
f 805 780 806
f 806 780 779
f 1043 893 1044
f 1044 893 892
f 873 840 847
f 847 840 842
f 840 839 842
f 842 839 843
f 839 791 843
f 843 791 908
f 791 790 908
f 908 790 792
f 809 789 810
f 810 789 1046
f 793 790 809
f 809 790 789
f 809 808 793
f 793 808 1009
f 808 884 1009
f 1009 884 1010
f 1065 1015 884
f 884 1015 1010
f 1032 868 1065
f 1065 868 1015
f 1031 822 1032
f 1032 822 868
f 1031 1027 822
f 822 1027 785
f 1045 905 1046
f 1046 905 904
f 788 781 1019
f 1019 781 894
f 781 780 894
f 894 780 892
f 780 805 892
f 892 805 1044
f 805 804 1044
f 1044 804 891
f 804 1064 891
f 891 1064 888
f 1064 1021 888
f 888 1021 1033
f 1021 1020 1033
f 1033 1020 1034
f 1020 1023 1034
f 1034 1023 909
f 1023 1022 909
f 909 1022 910
f 1043 815 893
f 893 815 819
f 819 815 820
f 820 815 818
f 870 869 818
f 818 869 820
f 1014 1011 870
f 870 1011 869
f 969 972 1014
f 1014 972 1011
f 1036 1063 1022
f 1022 1063 910
f 1035 833 1036
f 1036 833 1063
f 1035 932 979
f 979 932 963
f 834 979 982
f 982 979 958
f 833 1035 834
f 834 1035 979
f 982 863 834
f 834 863 830
f 864 900 831
f 831 900 857
f 990 993 864
f 864 993 900
f 989 994 990
f 990 994 993
f 970 1058 989
f 989 1058 994
f 969 1018 970
f 970 1018 1058
f 1027 902 785
f 785 902 786
f 902 905 786
f 786 905 1019
f 905 1045 1019
f 1019 1045 788
f 788 1045 787
f 787 1045 789
