o hand_left
v 0.021013 0.185367 1.030765
v 0.019221 0.195578 1.027196
v 0.028196 0.192027 1.031853
v 0.029715 0.182136 1.033913
v 0.030847 0.213715 1.026459
v 0.038623 0.218917 1.017781
v 0.048404 0.208942 1.027141
v 0.039781 0.207164 1.033355
v 0.036370 0.178055 1.034864
v 0.034962 0.188875 1.035178
v 0.038905 0.175581 1.031276
v 0.038653 0.162686 1.026899
v 0.036830 0.167386 1.032771
v 0.037541 0.154177 1.027703
v 0.035654 0.162359 1.015826
v 0.031802 0.148091 1.022176
v 0.006981 0.161763 1.009820
v -0.006007 0.165089 1.012273
v -0.005147 0.150142 1.023066
v 0.008495 0.148824 1.020286
v -0.022318 0.162409 1.026624
v -0.012801 0.155067 1.025152
v -0.014247 0.168951 1.013506
v -0.022498 0.174933 1.015535
v 0.006085 0.191481 1.028567
v 0.003889 0.201137 1.023896
v 0.009091 0.198704 1.023837
v 0.011312 0.189646 1.028297
v 0.048104 0.178294 1.028701
v 0.044764 0.177087 1.016518
v 0.041629 0.173581 1.023151
v 0.045075 0.179628 1.033265
v -0.006279 0.227980 1.018148
v -0.008131 0.234259 1.006154
v -0.002739 0.233020 1.003926
v -0.002420 0.227194 1.015110
v 0.020510 0.228411 1.004721
v 0.013935 0.230483 0.996300
v 0.019055 0.228424 0.983487
v 0.025681 0.223289 0.989624
v 0.029905 0.224422 1.012214
v 0.035008 0.221468 0.999248
v 0.044188 0.215676 1.007629
v 0.054192 0.205877 1.020129
v -0.020841 0.235069 1.008648
v -0.021181 0.231036 1.018162
v 0.040742 0.159441 1.069802
v 0.035114 0.161346 1.070692
v 0.034381 0.160075 1.067292
v 0.040106 0.158144 1.066989
v -0.036370 0.221922 1.006310
v -0.038533 0.214950 0.999236
v -0.039567 0.221539 0.996113
v -0.035785 0.228090 1.001821
v -0.037150 0.213786 1.012221
v -0.036485 0.206064 1.003840
v 0.043384 0.149493 1.077635
v 0.045262 0.153233 1.074539
v 0.044549 0.149533 1.071304
v 0.042009 0.145527 1.073932
v 0.031611 0.172571 1.035400
v 0.023208 0.177078 1.035437
v 0.030280 0.158640 1.041840
v 0.026950 0.164545 1.039907
v 0.033037 0.163602 1.036478
v 0.035125 0.158220 1.038282
v 0.004693 0.172856 1.041669
v 0.003836 0.182374 1.034908
v 0.009880 0.179581 1.034512
v 0.012673 0.169391 1.041923
v -0.008360 0.188327 1.039435
v -0.006737 0.178185 1.045267
v -0.013869 0.182820 1.046985
v -0.013392 0.189759 1.043383
v -0.001061 0.160086 1.052987
v -0.000218 0.155499 1.054420
v -0.002674 0.157820 1.057441
v -0.004192 0.162222 1.053828
v -0.040560 0.227368 0.992045
v -0.034598 0.233548 0.996989
v -0.038663 0.176084 1.033381
v -0.041270 0.186679 1.036813
v -0.042450 0.177163 1.046626
v -0.039854 0.167150 1.040113
v -0.034635 0.207599 0.992872
v -0.038007 0.213950 0.989565
v 0.038154 0.147524 1.080489
v 0.036653 0.143894 1.076963
v 0.042027 0.207821 0.997092
v 0.054811 0.199153 1.012848
v 0.030626 0.213406 0.987054
v 0.022178 0.216429 0.980328
v 0.017502 0.220781 0.974150
v 0.021687 0.162429 1.043462
v 0.015282 0.181601 1.032868
v 0.001470 0.193404 1.029579
v -0.024523 0.203516 1.043525
v -0.024592 0.212300 1.037726
v -0.014917 0.207324 1.037599
v -0.017094 0.200283 1.042269
v -0.038784 0.193518 1.043877
v -0.031826 0.195142 1.047985
v -0.032259 0.188155 1.052428
v -0.039404 0.185085 1.050343
v 0.054622 0.179696 1.024995
v 0.048124 0.181538 1.011166
v -0.030448 0.228291 1.012563
v -0.028263 0.233115 1.006679
v -0.028404 0.237711 0.999405
v 0.000206 0.214964 1.021103
v 0.000364 0.226779 1.013096
v 0.004774 0.225844 1.012592
v 0.002626 0.213325 1.019826
v 0.017979 0.207633 1.025271
v 0.019702 0.220039 1.019697
v 0.026932 0.202987 1.031778
v 0.004385 0.232712 0.999772
v -0.003340 0.239791 0.996062
v 0.004360 0.237921 0.991780
v -0.012864 0.240657 0.998646
v -0.021735 0.240140 1.000085
v -0.041869 0.218844 0.983631
v 0.010879 0.234547 0.987448
v 0.045783 0.201647 1.037603
v 0.050368 0.196780 1.041891
v 0.044517 0.191715 1.041943
v 0.039758 0.195424 1.038254
v 0.037467 0.147568 1.032983
v 0.038186 0.154189 1.036100
v 0.037810 0.160424 1.031878
v -0.010237 0.220952 1.026683
v -0.022687 0.224026 1.026465
v 0.025084 0.156915 1.045209
v 0.040433 0.143124 1.068304
v 0.043448 0.147761 1.065812
v 0.039975 0.146861 1.045380
v 0.036863 0.140712 1.047751
v 0.020465 0.150929 1.049637
v 0.024231 0.156464 1.046600
v 0.023613 0.156161 1.047985
v 0.019534 0.152776 1.052288
v -0.010226 0.163553 1.057992
v -0.011092 0.167593 1.054689
v 0.010852 0.139647 1.034115
v 0.022787 0.136355 1.027329
v 0.020983 0.146946 1.017773
v -0.001921 0.176257 1.042970
v -0.001841 0.167972 1.049135
v -0.005585 0.169640 1.049989
v 0.018828 0.159865 1.046147
v 0.020255 0.154433 1.048172
v 0.016377 0.155690 1.048788
v 0.013986 0.161953 1.046619
v -0.040794 0.196274 1.027305
v -0.038226 0.204003 1.035956
v 0.044329 0.156649 1.071447
v 0.043815 0.154214 1.068472
v -0.002580 0.185551 1.036336
v 0.018760 0.160758 1.009969
v -0.003349 0.195717 1.031100
v -0.025519 0.156302 1.048002
v -0.024718 0.162260 1.054941
v -0.022454 0.160635 1.058756
v -0.022669 0.155008 1.056224
v 0.023126 0.153914 1.067575
v 0.026558 0.158479 1.065876
v 0.028450 0.159009 1.069390
v 0.025072 0.154975 1.072350
v 0.029201 0.158286 1.043712
v 0.034972 0.157116 1.041260
v 0.034516 0.157928 1.045128
v 0.028576 0.157940 1.047022
v 0.038272 0.152924 1.039463
v 0.038857 0.153196 1.044220
v 0.023341 0.147654 1.069821
v 0.028385 0.142116 1.071393
v 0.023267 0.139151 1.052747
v 0.019555 0.145707 1.055307
v -0.023504 0.185568 1.004213
v -0.032017 0.191455 1.008704
v -0.031471 0.180824 1.019995
v -0.032095 0.169433 1.030865
v -0.030872 0.159174 1.041187
v -0.022798 0.151448 1.035784
v -0.037099 0.186544 1.022511
v 0.015710 0.144697 1.046098
v 0.018924 0.138491 1.041862
v 0.013771 0.140716 1.042025
v -0.009027 0.199029 1.034824
v 0.043033 0.153154 1.063725
v 0.003696 0.203414 0.973667
v -0.009578 0.201829 0.975427
v -0.005922 0.195949 0.980965
v 0.009186 0.198210 0.979654
v 0.032992 0.160318 1.063900
v 0.039325 0.158559 1.062748
v -0.016424 0.170047 1.057699
v -0.015234 0.165596 1.060276
v -0.018731 0.165128 1.061272
v -0.020602 0.170365 1.061152
v -0.035791 0.195931 1.010447
v -0.040311 0.174647 1.055681
v -0.038084 0.164637 1.049153
v -0.032233 0.200295 0.998717
v -0.025197 0.194915 0.994323
v -0.027006 0.201730 0.987410
v -0.009377 0.144567 1.038633
v -0.016519 0.180390 1.002917
v -0.018622 0.191051 0.992912
v -0.020487 0.199015 0.984580
v -0.022742 0.204461 0.978531
v -0.029599 0.206941 0.982317
v 0.034545 0.141461 1.070828
v 0.029789 0.144841 1.078200
v -0.033592 0.211860 0.975684
v -0.025353 0.209298 0.972055
v -0.010135 0.187712 0.991075
v 0.000828 0.184999 0.989701
v -0.008295 0.177693 1.000985
v 0.002621 0.173908 1.000245
v -0.003012 0.138436 1.031391
v 0.030463 0.159423 1.088559
v 0.027077 0.152596 1.080433
v 0.026469 0.157018 1.076578
v 0.028464 0.162422 1.086115
v 0.025219 0.149804 1.075585
v 0.031294 0.148678 1.081650
v 0.017526 0.173864 1.000355
v 0.017252 0.151062 1.050156
v 0.018515 0.188087 0.990166
v 0.034315 0.171790 1.005548
v 0.035906 0.183847 0.999492
v 0.021678 0.203271 0.980696
v 0.034956 0.197807 0.990538
v 0.010776 0.213207 0.969785
v 0.014779 0.207530 0.975345
v 0.047285 0.192686 1.002653
v 0.039447 0.166824 1.077170
v 0.033632 0.167243 1.077969
v 0.000509 0.208538 0.967795
v 0.034220 0.198460 1.035551
v -0.007077 0.208433 1.029482
v -0.002965 0.205429 1.026845
v -0.024019 0.217153 1.033548
v -0.012752 0.213257 1.032717
v 0.043986 0.164251 1.078601
v -0.002114 0.152919 1.055481
v -0.002531 0.154085 1.056361
v 0.053355 0.203598 1.033651
v 0.056496 0.199056 1.037944
v 0.062262 0.190158 1.030003
v 0.061378 0.195992 1.034120
v 0.058843 0.200688 1.027607
v 0.059836 0.194734 1.022623
v -0.001815 0.216067 1.022559
v -0.005041 0.217367 1.024563
v -0.039186 0.205792 1.019497
v -0.036281 0.212650 1.028569
v 0.037903 0.146699 1.038441
v 0.032695 0.140879 1.031411
v 0.034038 0.140621 1.038690
v 0.030175 0.137463 1.048417
v 0.017047 0.148202 1.049823
v 0.018051 0.145414 1.048641
v 0.011512 0.223099 1.016067
v 0.008760 0.210711 1.020841
v 0.038832 0.187238 1.036270
v 0.042331 0.184838 1.038844
v 0.006653 0.165474 1.046532
v -0.003574 0.142916 1.048626
v 0.002272 0.138759 1.042624
v 0.007966 0.157662 1.050423
v 0.044649 0.159008 1.085112
v 0.045487 0.162038 1.081292
v 0.027473 0.137052 1.039063
v -0.012217 0.174439 1.052186
v -0.008586 0.146150 1.047977
v -0.004790 0.147388 1.053576
v -0.037764 0.182285 1.055036
v -0.012159 0.207835 0.969254
v 0.029067 0.160966 1.073242
v 0.029252 0.165887 1.080379
v 0.033873 0.156805 1.089194
v 0.039830 0.155814 1.087821
v -0.032540 0.220413 1.021493
v -0.000152 0.203148 1.025454
v 0.055291 0.188101 1.014856
v 0.059290 0.184318 1.026192
v 0.008598 0.153479 1.051174
v -0.030378 0.161438 1.050896
v -0.019970 0.148959 1.045818
v -0.017356 0.147767 1.055701
v -0.009847 0.146343 1.057126
v -0.003951 0.149769 1.059085
v 0.034636 0.161583 1.092568
v 0.040357 0.160774 1.091231
v 0.044978 0.163814 1.088233
v 0.045669 0.166242 1.084454
v 0.043422 0.167743 1.080982
v 0.031062 0.164234 1.092179
v 0.029329 0.166767 1.089807
v 0.029426 0.168349 1.083462
v 0.031204 0.168846 1.094237
v 0.035755 0.169068 1.097037
v 0.046041 0.177442 1.093051
v 0.045553 0.171554 1.092687
v 0.044665 0.173013 1.094821
v 0.044732 0.177886 1.096033
v 0.044068 0.182408 1.098531
v 0.045694 0.182636 1.095357
v 0.041338 0.169917 1.095964
v 0.040931 0.176311 1.098136
v 0.036759 0.175999 1.099002
v 0.037018 0.180993 1.101388
v 0.040808 0.181366 1.100896
v 0.037443 0.171549 1.097743
v 0.041240 0.167681 1.095328
v 0.043693 0.185955 1.097959
v 0.043263 0.184709 1.100153
v 0.040350 0.184293 1.101769
v 0.039728 0.187219 1.100916
v 0.045862 0.170820 1.086640
v 0.045926 0.178401 1.090572
v 0.043989 0.183735 1.092843
v 0.042134 0.186892 1.095728
v 0.042900 0.180434 1.088529
v 0.041503 0.184253 1.091276
v 0.039454 0.186853 1.093682
v 0.038832 0.181628 1.087733
v 0.038345 0.184625 1.090697
v 0.039277 0.171546 1.081476
v 0.043321 0.170413 1.082382
v 0.037772 0.186689 1.092279
v 0.038272 0.188070 1.099385
v 0.033395 0.174782 1.097904
v 0.034135 0.181509 1.099934
v 0.031525 0.175385 1.096471
v 0.032030 0.181936 1.098801
v 0.035291 0.185324 1.101901
v 0.037416 0.183794 1.102089
v 0.038705 0.168587 1.079097
v 0.032710 0.168906 1.080348
v 0.033085 0.171410 1.082551
v 0.034009 0.181360 1.088394
v 0.029779 0.171261 1.085605
v 0.029497 0.171140 1.091686
v 0.030350 0.177465 1.094620
v 0.030539 0.179390 1.091708
v 0.031330 0.182508 1.096322
v 0.032059 0.183223 1.093929
v 0.034688 0.184605 1.091408
v 0.033248 0.186050 1.097148
v 0.033979 0.185844 1.100081
v 0.036601 0.187707 1.096367
v 0.033085 0.185620 1.095180
v 0.035801 0.186463 1.094076
v 0.015419 0.158974 1.076038
v 0.009267 0.161029 1.076503
v 0.009488 0.157452 1.074264
v 0.014693 0.155733 1.073929
v 0.016992 0.147889 1.085071
v 0.019267 0.152429 1.081001
v 0.018691 0.147436 1.078410
v 0.014817 0.142729 1.081976
v 0.010256 0.146141 1.087474
v 0.007961 0.141580 1.083448
v 0.013943 0.139846 1.076299
v 0.017981 0.145138 1.073409
v 0.015492 0.144210 1.052853
v 0.011379 0.139045 1.053486
v 0.002303 0.155683 1.055414
v -0.000869 0.153994 1.056759
v 0.018092 0.156373 1.077716
v 0.017750 0.152226 1.075492
v 0.000342 0.155872 1.073606
v 0.005061 0.158357 1.071949
v 0.004645 0.158434 1.075015
v 0.000543 0.155947 1.077890
v 0.014293 0.152347 1.052711
v 0.008170 0.153766 1.053819
v 0.015920 0.148939 1.052665
v -0.002172 0.150137 1.076257
v -0.000713 0.143591 1.078104
v -0.002837 0.141038 1.057706
v -0.004664 0.146802 1.058885
v 0.018256 0.150281 1.071728
v 0.010991 0.157912 1.071500
v 0.015772 0.155372 1.070875
v 0.006327 0.139365 1.076881
v 0.001073 0.146247 1.084219
v 0.004267 0.164187 1.092596
v 0.000644 0.155542 1.085408
v 0.001330 0.159273 1.081715
v 0.003868 0.168168 1.089516
v -0.000886 0.151697 1.081494
v 0.003427 0.150715 1.087716
v 0.016263 0.171207 1.084221
v 0.010097 0.172837 1.084462
v 0.019704 0.168684 1.085960
v 0.004256 0.137898 1.054723
v 0.019071 0.159931 1.091856
v 0.020928 0.165059 1.088005
v 0.004141 0.161389 1.077925
v 0.005766 0.171757 1.086702
v 0.006851 0.160877 1.094488
v 0.013127 0.157271 1.094079
v 0.008715 0.165780 1.097321
v 0.014376 0.163208 1.097356
v 0.020134 0.165275 1.095119
v 0.021463 0.169055 1.091029
v 0.019906 0.171701 1.088327
v 0.006182 0.168787 1.095855
v 0.005275 0.172409 1.092888
v 0.007051 0.174172 1.088604
v 0.007411 0.175884 1.098329
v 0.010471 0.174173 1.101161
v 0.024752 0.184861 1.101874
v 0.023693 0.179302 1.099989
v 0.022150 0.179149 1.102115
v 0.022954 0.184243 1.104000
v 0.021896 0.173385 1.099871
v 0.020680 0.174934 1.101475
v 0.016252 0.173969 1.102245
v 0.017518 0.179712 1.103446
v 0.012703 0.180207 1.103054
v 0.013637 0.185200 1.105685
v 0.018466 0.184747 1.106466
v 0.012948 0.175943 1.102556
v 0.022504 0.187520 1.105464
v 0.023124 0.189745 1.104231
v 0.016039 0.171172 1.101550
v 0.022702 0.172175 1.093864
v 0.024258 0.180613 1.097227
v 0.024462 0.186919 1.099309
v 0.021740 0.191708 1.102273
v 0.022539 0.183178 1.094400
v 0.022557 0.188667 1.097327
v 0.020036 0.192125 1.100133
v 0.019019 0.185518 1.092286
v 0.019006 0.190406 1.095767
v 0.017084 0.175613 1.087357
v 0.021070 0.173969 1.089598
v 0.018740 0.191853 1.098087
v 0.019141 0.190829 1.106919
v 0.018274 0.192962 1.104367
v 0.019141 0.188961 1.107186
v 0.010812 0.180844 1.102285
v 0.012254 0.186622 1.104492
v 0.009078 0.182277 1.100582
v 0.011269 0.188433 1.103174
v 0.014391 0.190342 1.106392
v 0.015475 0.189164 1.107150
v 0.016147 0.173217 1.086621
v 0.010638 0.174419 1.086608
v 0.011551 0.176629 1.087199
v 0.013844 0.186301 1.092486
v 0.007582 0.176630 1.089743
v 0.006466 0.177087 1.094926
v 0.008402 0.183490 1.098067
v 0.009922 0.185547 1.094987
v 0.010241 0.189419 1.101443
v 0.010999 0.189345 1.098197
v 0.014940 0.190623 1.095712
v 0.013069 0.192706 1.103228
v 0.013785 0.191655 1.105300
v 0.017428 0.193219 1.102252
v 0.012860 0.192149 1.100220
v 0.016355 0.192686 1.099194
v -0.002421 0.165057 1.080098
v -0.007867 0.167111 1.079953
v -0.008230 0.165081 1.077418
v -0.003112 0.162559 1.077728
v -0.002249 0.154367 1.087502
v 0.000441 0.157948 1.085200
v -0.000314 0.154532 1.081909
v -0.003332 0.150070 1.083128
v -0.007254 0.154413 1.090413
v -0.009231 0.148676 1.084719
v -0.004439 0.147276 1.078242
v -0.000939 0.152298 1.078098
v -0.003405 0.150410 1.063629
v -0.008017 0.145814 1.064232
v -0.000088 0.161773 1.082335
v -0.000709 0.159108 1.079651
v -0.016375 0.164060 1.077852
v -0.011972 0.166052 1.076566
v -0.013428 0.165168 1.079055
v -0.016594 0.162834 1.081316
v -0.004162 0.160427 1.060807
v -0.009709 0.162943 1.060887
v -0.002397 0.156126 1.062585
v -0.018843 0.158026 1.079698
v -0.017497 0.150776 1.080253
v -0.020902 0.152535 1.065662
v -0.020932 0.158667 1.065123
v -0.000560 0.157340 1.076936
v -0.006766 0.165622 1.075099
v -0.002145 0.162447 1.075436
v -0.010993 0.147015 1.078803
v -0.015445 0.152426 1.085800
v -0.012322 0.170540 1.099435
v -0.016751 0.160183 1.087715
v -0.015978 0.164904 1.084044
v -0.013005 0.174105 1.096732
v -0.017959 0.158157 1.084522
v -0.013652 0.155991 1.090092
v -0.000698 0.176514 1.090917
v -0.006177 0.177495 1.090788
v 0.001665 0.172848 1.092044
v -0.015281 0.146095 1.064793
v -0.017355 0.163713 1.063345
v 0.001199 0.167429 1.097412
v 0.002460 0.170274 1.094251
v -0.013062 0.166820 1.081483
v -0.011145 0.176764 1.093372
v -0.009341 0.166880 1.100508
v -0.003683 0.164778 1.099670
v -0.008775 0.171372 1.103786
v -0.003019 0.169461 1.102992
v 0.001999 0.171576 1.101105
v 0.003121 0.174216 1.097746
v 0.002286 0.176620 1.095271
v -0.011576 0.174997 1.102512
v -0.011919 0.177950 1.099895
v -0.010098 0.178334 1.095005
v -0.011116 0.179139 1.104617
v -0.007415 0.177211 1.108128
v 0.004668 0.188578 1.110856
v 0.003941 0.183789 1.107702
v 0.003078 0.183488 1.108576
v 0.003770 0.187983 1.112222
v 0.002485 0.177444 1.105918
v 0.001830 0.178751 1.107326
v -0.001692 0.177453 1.108410
v -0.001138 0.182955 1.111729
v -0.006943 0.183826 1.110480
v -0.005525 0.187973 1.113276
v -0.000213 0.187316 1.114918
v -0.005990 0.178682 1.108857
v 0.003132 0.190446 1.114218
v 0.004848 0.191482 1.114001
v -0.002037 0.175228 1.107367
v 0.004384 0.178392 1.101506
v 0.005066 0.185082 1.105307
v 0.005974 0.190190 1.108285
v 0.004415 0.193466 1.110874
v 0.003698 0.187156 1.102376
v 0.004241 0.191432 1.105839
v 0.002941 0.194361 1.108271
v 0.001219 0.188569 1.100668
v 0.001555 0.192247 1.104125
v -0.000100 0.180372 1.094865
v 0.003064 0.179490 1.097674
v 0.001272 0.194254 1.106654
v 0.000526 0.192419 1.116017
v -0.000534 0.195224 1.112971
v 0.000275 0.190747 1.115488
v -0.008577 0.183852 1.109549
v -0.007361 0.189496 1.112908
v -0.009961 0.185137 1.107395
v -0.008586 0.190805 1.110743
v -0.004643 0.191932 1.115190
v -0.003912 0.190928 1.115194
v -0.000898 0.178137 1.093065
v -0.005870 0.178941 1.092764
v -0.004854 0.181124 1.094304
v -0.003244 0.189812 1.100476
v -0.009219 0.180745 1.096243
v -0.011089 0.181748 1.101961
v -0.009477 0.187066 1.104795
v -0.007349 0.189110 1.102456
v -0.008209 0.191921 1.108154
v -0.006602 0.191983 1.105746
v -0.002360 0.193345 1.103728
v -0.005311 0.194192 1.110147
v -0.005575 0.193571 1.113078
v -0.001030 0.195742 1.109833
v -0.004790 0.194233 1.107653
v -0.001520 0.195288 1.107330
v -0.014026 0.164330 1.061924
v -0.017273 0.179686 1.080707
v -0.020948 0.181958 1.080275
v -0.021448 0.181006 1.080044
v -0.017684 0.178562 1.079286
v -0.019167 0.169455 1.085841
v -0.016084 0.172806 1.084186
v -0.016794 0.169614 1.081416
v -0.019919 0.166487 1.082756
v -0.024380 0.169120 1.086823
v -0.025372 0.167062 1.083974
v -0.021223 0.165508 1.078671
v -0.017750 0.168435 1.077394
v -0.022969 0.165612 1.061169
v -0.028056 0.163478 1.060305
v -0.035968 0.181333 1.060938
v -0.030351 0.183079 1.059056
v -0.030219 0.182365 1.067423
v -0.034858 0.180485 1.067758
v -0.015778 0.176384 1.082248
v -0.015846 0.174291 1.079639
v -0.031080 0.180169 1.081334
v -0.026627 0.182010 1.079802
v -0.025545 0.182165 1.080566
v -0.029930 0.181477 1.082403
v -0.025065 0.180873 1.059207
v -0.022170 0.176099 1.059392
v -0.021744 0.177300 1.063260
v -0.025221 0.180904 1.067070
v -0.020477 0.171818 1.063020
v -0.032888 0.176050 1.082184
v -0.031745 0.169953 1.082196
v -0.039211 0.171295 1.064981
v -0.038218 0.176303 1.066112
v -0.016502 0.172801 1.077879
v -0.022040 0.180857 1.078351
v -0.018363 0.177997 1.078556
v -0.026875 0.165606 1.080233
v -0.030213 0.171677 1.084872
v -0.029120 0.183463 1.091106
v -0.031471 0.178858 1.085460
v -0.029574 0.182630 1.082802
v -0.028451 0.185837 1.088845
v -0.031559 0.177575 1.084300
v -0.029389 0.173889 1.087499
v -0.016298 0.184804 1.084913
v -0.021397 0.186777 1.084752
v -0.014479 0.182231 1.086338
v -0.034402 0.165178 1.061386
v -0.016533 0.176774 1.091314
v -0.014189 0.179822 1.088885
v -0.025062 0.183147 1.081138
v -0.025710 0.187189 1.086324
v -0.027159 0.179611 1.093227
v -0.022106 0.175670 1.093044
v -0.025153 0.183040 1.095927
v -0.020044 0.179294 1.095458
v -0.014599 0.180784 1.092667
v -0.013620 0.182621 1.089322
v -0.014286 0.184625 1.086838
v -0.027542 0.186479 1.093388
v -0.027287 0.188205 1.090790
v -0.025106 0.188648 1.087512
v -0.025816 0.189642 1.095485
v -0.022077 0.188182 1.098260
v -0.011281 0.196059 1.095659
v -0.011943 0.192060 1.094332
v -0.012567 0.191916 1.095392
v -0.011288 0.195717 1.096740
v -0.013361 0.186651 1.094310
v -0.013928 0.187879 1.095497
v -0.017028 0.186584 1.097057
v -0.015567 0.191642 1.098553
v -0.020583 0.193618 1.099350
v -0.018815 0.197341 1.100502
v -0.014519 0.195147 1.100025
v -0.020326 0.188971 1.098700
v -0.011127 0.197935 1.098534
v -0.010527 0.199177 1.098107
v -0.017493 0.184448 1.097002
v -0.012622 0.186878 1.090194
v -0.011264 0.193465 1.092248
v -0.010582 0.198129 1.094510
v -0.011401 0.201092 1.096971
v -0.012436 0.193924 1.089966
v -0.011485 0.199302 1.092658
v -0.012456 0.202048 1.095057
v -0.015080 0.195014 1.088124
v -0.013772 0.199716 1.091341
v -0.016978 0.189194 1.085546
v -0.014006 0.188099 1.087345
v -0.013784 0.201691 1.093861
v -0.013339 0.200196 1.100752
v -0.014099 0.202273 1.098655
v -0.013695 0.198636 1.101202
v -0.021907 0.194023 1.098951
v -0.019877 0.198644 1.100212
v -0.023556 0.195054 1.097319
v -0.020631 0.199945 1.098580
v -0.017002 0.200738 1.100972
v -0.016532 0.198862 1.101270
v -0.016914 0.187233 1.085253
v -0.020921 0.188124 1.085450
v -0.021216 0.190218 1.086131
v -0.019129 0.195968 1.088430
v -0.025078 0.190614 1.088694
v -0.026510 0.190392 1.092401
v -0.023873 0.196014 1.094702
v -0.022687 0.196635 1.091478
v -0.020449 0.200883 1.096550
v -0.019620 0.200934 1.093555
v -0.017066 0.200536 1.091380
v -0.017051 0.202635 1.097259
v -0.017061 0.202310 1.099164
v -0.014791 0.202793 1.096697
v -0.017069 0.202520 1.095267
v -0.015599 0.202328 1.094484
v -0.037940 0.177806 1.061875
v 0.058041 0.175393 1.038904
v 0.052845 0.175096 1.041330
v 0.052113 0.188316 1.051080
v 0.049025 0.182192 1.049505
v 0.058017 0.191692 1.050395
v 0.066153 0.189478 1.043385
v 0.062494 0.192221 1.046635
v 0.049377 0.177377 1.045865
v 0.063152 0.178230 1.037470
v 0.066897 0.184205 1.038886
v 0.065973 0.173371 1.043687
v 0.070076 0.179933 1.045282
v 0.070079 0.185534 1.049547
v 0.065006 0.189476 1.052410
v 0.060476 0.190137 1.054700
v 0.058952 0.172122 1.044661
v 0.053738 0.172679 1.046900
v 0.050025 0.176835 1.050555
v 0.058549 0.168566 1.052292
v 0.065053 0.167536 1.060180
v 0.070922 0.176589 1.076503
v 0.069739 0.179783 1.070498
v 0.070549 0.177017 1.069901
v 0.072128 0.174444 1.075315
v 0.070267 0.179730 1.064852
v 0.070051 0.177396 1.065625
v 0.068907 0.173114 1.062587
v 0.070120 0.170889 1.067712
v 0.066102 0.168692 1.062548
v 0.065666 0.166667 1.066228
v 0.071277 0.168479 1.072685
v 0.073210 0.171227 1.077578
v 0.071965 0.166655 1.077072
v 0.071342 0.172414 1.080022
v 0.070864 0.172699 1.060779
v 0.067449 0.185634 1.061726
v 0.067229 0.182680 1.070218
v 0.067609 0.178484 1.077170
v 0.068218 0.173268 1.080883
v 0.062737 0.183730 1.070373
v 0.063155 0.178855 1.076222
v 0.063365 0.173660 1.079141
v 0.058052 0.182020 1.069726
v 0.059663 0.177193 1.074851
v 0.055461 0.186732 1.058121
v 0.061663 0.188600 1.059906
v 0.061131 0.173770 1.077209
v 0.070608 0.166098 1.079679
v 0.067025 0.167039 1.080518
v 0.062807 0.165139 1.064799
v 0.067089 0.163971 1.070747
v 0.063998 0.163198 1.070708
v 0.058907 0.165401 1.063362
v 0.061022 0.163444 1.070879
v 0.066861 0.162755 1.075795
v 0.069248 0.163835 1.074376
v 0.054445 0.187988 1.054673
v 0.050555 0.182840 1.052654
v 0.051485 0.181588 1.055813
v 0.053946 0.177245 1.067061
v 0.050540 0.175431 1.054603
v 0.053891 0.170388 1.053085
v 0.055440 0.167138 1.063748
v 0.053218 0.171416 1.064886
v 0.058240 0.165907 1.071422
v 0.057078 0.168804 1.071823
v 0.057397 0.173461 1.073674
v 0.060966 0.166136 1.076058
v 0.063611 0.163518 1.076225
v 0.062831 0.168949 1.078993
v 0.059426 0.168350 1.075013
v 0.060356 0.170801 1.076762
v -0.030987 0.185094 1.055314
v -0.024403 0.182957 1.055313
v -0.025927 0.187415 1.052406
v -0.025388 0.195008 1.048652
v -0.030801 0.202269 1.043407
v -0.018996 0.192520 1.046712
v -0.019960 0.184586 1.051025
v -0.018270 0.177394 1.055243
v -0.012866 0.196315 1.039576
f 2 3 1
f 1 3 4
f 5 6 8
f 8 6 7
f 9 4 10
f 10 4 3
f 12 13 11
f 11 13 9
f 14 12 16
f 16 12 15
f 18 19 17
f 17 19 20
f 22 23 21
f 21 23 24
f 26 27 25
f 25 27 28
f 30 31 29
f 29 31 32
f 33 34 36
f 36 34 35
f 37 38 40
f 40 38 39
f 41 42 6
f 6 42 43
f 6 43 7
f 7 43 44
f 45 34 46
f 46 34 33
f 48 49 47
f 47 49 50
f 52 53 51
f 51 53 54
f 56 52 55
f 55 52 51
f 58 59 57
f 57 59 60
f 61 62 4
f 4 62 1
f 64 65 63
f 63 65 66
f 68 69 67
f 67 69 70
f 72 73 71
f 71 73 74
f 76 77 75
f 75 77 78
f 53 79 54
f 54 79 80
f 82 83 81
f 81 83 84
f 85 86 52
f 52 86 53
f 57 60 87
f 87 60 88
f 89 90 43
f 43 90 44
f 43 42 89
f 89 42 91
f 40 39 92
f 92 39 93
f 94 70 64
f 64 70 69
f 13 61 9
f 9 61 4
f 25 28 69
f 69 28 95
f 96 25 68
f 68 25 69
f 98 99 97
f 97 99 100
f 101 102 104
f 104 102 103
f 106 30 105
f 105 30 29
f 51 54 107
f 107 54 108
f 54 80 108
f 108 80 109
f 111 112 110
f 110 112 113
f 115 5 114
f 114 5 116
f 115 41 5
f 5 41 6
f 36 35 111
f 111 35 117
f 35 118 117
f 117 118 119
f 34 120 35
f 35 120 118
f 34 45 120
f 120 45 121
f 125 126 124
f 124 126 127
f 128 129 14
f 14 129 130
f 33 131 46
f 46 131 132
f 133 94 63
f 63 94 64
f 134 135 137
f 137 135 136
f 139 140 138
f 138 140 141
f 77 142 78
f 78 142 143
f 144 145 20
f 20 145 146
f 148 149 147
f 147 149 72
f 151 152 150
f 150 152 153
f 82 101 83
f 83 101 104
f 101 82 155
f 155 82 154
f 156 157 58
f 58 157 59
f 158 68 147
f 147 68 67
f 159 146 15
f 15 146 16
f 68 158 96
f 96 158 160
f 129 66 130
f 130 66 65
f 162 163 161
f 161 163 164
f 166 167 165
f 165 167 168
f 170 171 169
f 169 171 172
f 174 171 173
f 173 171 170
f 176 177 175
f 175 177 178
f 180 181 179
f 179 181 24
f 182 183 21
f 21 183 184
f 81 185 82
f 82 185 154
f 186 187 188
f 188 187 144
f 158 71 160
f 160 71 189
f 190 135 157
f 157 135 59
f 169 172 139
f 139 172 140
f 147 72 158
f 158 72 71
f 192 193 191
f 191 193 194
f 167 166 49
f 49 166 195
f 196 190 50
f 50 190 157
f 197 198 200
f 200 198 199
f 21 24 182
f 182 24 181
f 146 159 20
f 20 159 17
f 182 181 81
f 81 181 185
f 201 185 180
f 180 185 181
f 202 203 83
f 83 203 84
f 205 206 204
f 204 206 85
f 207 22 184
f 184 22 21
f 179 24 208
f 208 24 23
f 208 209 179
f 179 209 205
f 209 210 205
f 205 210 206
f 212 206 211
f 211 206 210
f 179 205 180
f 180 205 204
f 213 176 88
f 88 176 214
f 86 85 212
f 212 85 206
f 193 217 218
f 217 219 218
f 218 219 220
f 219 18 220
f 220 18 17
f 19 221 20
f 20 221 144
f 222 223 225
f 225 223 224
f 175 226 176
f 176 226 214
f 227 87 214
f 214 87 88
f 220 17 228
f 228 17 159
f 134 213 60
f 60 213 88
f 138 229 151
f 151 229 152
f 193 192 210
f 210 192 211
f 230 194 218
f 218 194 193
f 231 232 228
f 228 232 230
f 233 234 91
f 91 234 89
f 235 236 93
f 93 236 92
f 230 232 234
f 234 232 237
f 47 238 48
f 48 238 239
f 240 191 235
f 235 191 236
f 5 8 116
f 116 8 241
f 242 243 189
f 189 243 160
f 244 245 98
f 98 245 99
f 156 246 47
f 47 246 238
f 76 247 77
f 77 247 248
f 250 125 249
f 249 125 124
f 252 253 251
f 251 253 254
f 111 110 36
f 36 110 255
f 256 33 255
f 255 33 36
f 257 258 154
f 154 258 155
f 63 169 133
f 133 169 139
f 66 170 63
f 63 170 169
f 173 170 129
f 129 170 66
f 129 128 173
f 173 128 259
f 128 260 259
f 259 260 261
f 213 134 262
f 262 134 137
f 263 264 186
f 186 264 187
f 112 265 113
f 113 265 266
f 11 267 268
f 234 233 230
f 230 233 194
f 153 269 70
f 70 269 67
f 175 178 165
f 165 178 141
f 150 153 94
f 94 153 70
f 271 221 270
f 270 221 207
f 269 153 272
f 272 153 152
f 121 45 109
f 109 45 108
f 47 50 156
f 156 50 157
f 57 273 58
f 58 273 274
f 145 275 260
f 260 275 261
f 276 149 143
f 143 149 78
f 148 269 75
f 75 269 272
f 207 277 270
f 270 277 278
f 195 196 49
f 49 196 50
f 59 135 60
f 60 135 134
f 83 104 202
f 202 104 279
f 149 148 78
f 78 148 75
f 247 278 248
f 248 278 277
f 183 182 84
f 84 182 81
f 48 239 281
f 281 239 282
f 227 223 283
f 283 223 222
f 223 226 224
f 224 226 168
f 281 282 224
f 224 282 225
f 165 168 175
f 175 168 226
f 264 263 138
f 138 263 229
f 14 16 128
f 128 16 260
f 220 228 218
f 218 228 230
f 87 227 284
f 284 227 283
f 260 16 145
f 145 16 146
f 244 98 258
f 258 98 155
f 58 274 156
f 156 274 246
f 107 285 51
f 51 285 55
f 243 286 160
f 160 286 96
f 234 237 89
f 89 237 90
f 46 132 107
f 107 132 285
f 253 252 249
f 249 252 250
f 286 26 96
f 96 26 25
f 106 105 287
f 287 105 288
f 272 152 289
f 289 152 229
f 138 151 139
f 139 151 133
f 183 290 161
f 161 290 162
f 291 292 277
f 277 292 293
f 151 150 133
f 133 150 94
f 262 275 177
f 177 275 187
f 144 187 145
f 145 187 275
f 273 57 284
f 284 57 87
f 174 136 190
f 190 136 135
f 111 117 112
f 112 117 38
f 117 119 38
f 38 119 123
f 112 38 265
f 265 38 37
f 287 288 254
f 254 288 251
f 228 159 231
f 231 159 15
f 223 227 226
f 226 227 214
f 147 67 148
f 148 67 269
f 224 168 281
f 281 168 167
f 199 163 200
f 200 163 162
f 45 46 108
f 108 46 107
f 281 167 48
f 48 167 49
f 161 164 291
f 291 164 292
f 38 123 39
f 293 294 277
f 277 294 248
f 284 283 296
f 296 283 295
f 284 296 273
f 273 296 297
f 274 273 298
f 298 273 297
f 246 274 299
f 299 274 298
f 283 222 295
f 295 222 300
f 222 225 300
f 300 225 301
f 301 225 302
f 302 225 282
f 303 304 300
f 300 304 295
f 306 307 305
f 305 307 308
f 309 310 308
f 308 310 305
f 308 307 312
f 312 307 311
f 313 314 312
f 312 314 315
f 311 316 312
f 312 316 313
f 317 304 311
f 311 304 316
f 315 309 312
f 312 309 308
f 318 319 321
f 321 319 320
f 319 318 309
f 309 318 310
f 311 307 317
f 317 307 306
f 306 297 317
f 317 297 296
f 306 322 297
f 297 322 298
f 305 323 306
f 306 323 322
f 323 305 324
f 324 305 310
f 304 317 295
f 295 317 296
f 318 325 310
f 310 325 324
f 323 324 326
f 326 324 327
f 324 325 327
f 327 325 328
f 326 327 329
f 329 327 330
f 329 331 326
f 326 331 332
f 333 330 328
f 328 330 327
f 323 326 322
f 322 326 332
f 322 332 298
f 298 332 299
f 325 318 334
f 334 318 321
f 313 316 335
f 335 316 304
f 335 336 313
f 313 336 314
f 304 303 335
f 335 303 337
f 336 335 338
f 338 335 337
f 336 339 314
f 314 339 340
f 246 299 238
f 238 299 341
f 239 342 282
f 282 342 302
f 342 239 341
f 341 239 238
f 341 331 342
f 342 331 343
f 331 329 343
f 343 329 344
f 342 343 302
f 302 343 345
f 341 299 331
f 331 299 332
f 346 301 345
f 345 301 302
f 346 303 301
f 301 303 300
f 347 337 346
f 346 337 303
f 347 346 348
f 348 346 345
f 349 347 350
f 350 347 348
f 343 344 345
f 345 344 348
f 344 351 348
f 348 351 350
f 337 347 338
f 338 347 349
f 353 338 352
f 352 338 349
f 352 355 354
f 354 355 356
f 352 349 355
f 355 349 350
f 352 354 353
f 353 354 334
f 353 334 339
f 339 334 321
f 339 336 353
f 353 336 338
f 329 330 344
f 344 330 351
f 356 351 333
f 333 351 330
f 356 355 351
f 351 355 350
f 354 356 328
f 328 356 333
f 328 325 354
f 354 325 334
f 309 315 319
f 319 315 320
f 320 340 321
f 321 340 339
f 320 315 340
f 340 315 314
f 137 136 261
f 261 136 259
f 140 166 141
f 141 166 165
f 172 171 195
f 195 171 196
f 171 174 196
f 196 174 190
f 178 177 264
f 264 177 187
f 172 195 140
f 140 195 166
f 137 261 262
f 262 261 275
f 178 264 141
f 141 264 138
f 262 177 213
f 213 177 176
f 136 174 259
f 259 174 173
f 358 359 357
f 357 359 360
f 362 363 361
f 361 363 364
f 361 364 365
f 365 364 366
f 367 368 370
f 370 368 369
f 76 371 247
f 247 371 372
f 373 374 362
f 362 374 363
f 376 377 375
f 375 377 378
f 289 229 380
f 380 229 379
f 381 379 263
f 263 379 229
f 383 384 382
f 382 384 385
f 386 368 374
f 374 368 363
f 76 289 371
f 371 289 380
f 377 376 359
f 359 376 387
f 388 386 360
f 360 386 374
f 389 383 366
f 366 383 390
f 392 393 391
f 391 393 394
f 383 382 390
f 390 382 395
f 396 365 390
f 390 365 366
f 389 366 367
f 367 366 364
f 357 397 358
f 358 397 398
f 373 399 357
f 357 399 397
f 389 367 400
f 400 367 370
f 382 385 375
f 375 385 372
f 357 360 373
f 373 360 374
f 361 401 362
f 362 401 402
f 387 388 359
f 359 388 360
f 363 368 364
f 364 368 367
f 358 398 403
f 403 398 404
f 396 392 405
f 405 392 391
f 392 395 393
f 393 395 378
f 393 403 394
f 394 403 404
f 375 378 382
f 382 378 395
f 365 396 406
f 406 396 405
f 362 402 373
f 373 402 399
f 271 270 400
f 400 270 384
f 401 361 406
f 406 361 365
f 381 369 386
f 386 369 368
f 392 396 395
f 395 396 390
f 393 378 403
f 403 378 377
f 403 377 358
f 358 377 359
f 406 405 408
f 408 405 407
f 406 408 401
f 401 408 409
f 401 409 402
f 402 409 410
f 402 410 399
f 399 410 411
f 405 391 407
f 407 391 412
f 391 394 412
f 412 394 413
f 394 404 413
f 413 404 414
f 415 416 412
f 412 416 407
f 418 419 417
f 417 419 420
f 421 422 418
f 418 422 419
f 419 422 424
f 424 422 423
f 425 426 424
f 424 426 427
f 423 428 424
f 424 428 425
f 427 420 424
f 424 420 419
f 420 429 417
f 417 429 430
f 423 422 431
f 431 422 421
f 421 409 431
f 431 409 408
f 421 432 409
f 409 432 410
f 418 433 421
f 421 433 432
f 434 433 417
f 417 433 418
f 431 416 423
f 423 416 428
f 416 431 407
f 407 431 408
f 435 434 430
f 430 434 417
f 433 434 436
f 436 434 437
f 434 435 437
f 437 435 438
f 436 437 439
f 439 437 440
f 439 441 436
f 436 441 442
f 438 443 437
f 437 443 440
f 436 442 433
f 433 442 432
f 432 442 410
f 410 442 411
f 435 430 445
f 445 430 444
f 430 429 444
f 444 429 446
f 425 428 447
f 447 428 416
f 426 425 448
f 448 425 447
f 416 415 447
f 447 415 449
f 447 449 448
f 448 449 450
f 451 452 448
f 448 452 426
f 446 452 444
f 444 452 451
f 399 411 397
f 397 411 453
f 398 454 404
f 404 454 414
f 454 398 453
f 453 398 397
f 453 441 454
f 454 441 455
f 441 439 455
f 455 439 456
f 454 455 414
f 414 455 457
f 441 453 442
f 442 453 411
f 458 413 457
f 457 413 414
f 458 415 413
f 413 415 412
f 458 459 415
f 415 459 449
f 459 458 460
f 460 458 457
f 461 459 462
f 462 459 460
f 455 456 457
f 457 456 460
f 456 463 460
f 460 463 462
f 459 461 449
f 449 461 450
f 465 450 464
f 464 450 461
f 464 467 466
f 466 467 468
f 464 461 467
f 467 461 462
f 464 466 465
f 465 466 445
f 465 445 451
f 451 445 444
f 451 448 465
f 465 448 450
f 439 440 456
f 456 440 463
f 468 463 443
f 443 463 440
f 468 467 463
f 463 467 462
f 466 468 438
f 438 468 443
f 438 435 466
f 466 435 445
f 420 427 429
f 429 427 446
f 446 427 452
f 452 427 426
f 370 369 188
f 188 369 186
f 371 376 372
f 372 376 375
f 380 379 387
f 387 379 388
f 379 381 388
f 388 381 386
f 385 384 278
f 278 384 270
f 380 387 371
f 371 387 376
f 400 370 271
f 271 370 188
f 385 278 372
f 372 278 247
f 400 384 389
f 389 384 383
f 369 381 186
f 186 381 263
f 221 271 144
f 144 271 188
f 221 19 207
f 207 19 22
f 19 18 22
f 22 18 23
f 18 219 23
f 23 219 208
f 469 470 472
f 472 470 471
f 474 475 473
f 473 475 476
f 473 476 477
f 477 476 478
f 480 481 479
f 479 481 482
f 483 484 474
f 474 484 475
f 486 487 485
f 485 487 488
f 489 490 77
f 77 490 142
f 491 489 248
f 248 489 77
f 493 494 492
f 492 494 495
f 496 480 484
f 484 480 475
f 486 497 487
f 487 497 471
f 498 496 472
f 472 496 484
f 499 493 478
f 478 493 500
f 501 502 504
f 504 502 503
f 493 492 500
f 500 492 505
f 506 477 500
f 500 477 478
f 499 478 479
f 479 478 476
f 469 507 470
f 470 507 508
f 483 509 469
f 469 509 507
f 479 482 499
f 499 482 510
f 492 495 485
f 485 495 511
f 483 469 484
f 484 469 472
f 473 512 474
f 474 512 513
f 497 498 471
f 471 498 472
f 475 480 476
f 476 480 479
f 470 508 514
f 514 508 515
f 506 502 516
f 516 502 501
f 503 502 488
f 488 502 505
f 514 515 503
f 503 515 504
f 485 488 492
f 492 488 505
f 477 506 517
f 517 506 516
f 474 513 483
f 483 513 509
f 510 292 494
f 494 292 164
f 512 473 517
f 517 473 477
f 491 481 496
f 496 481 480
f 502 506 505
f 505 506 500
f 503 488 514
f 514 488 487
f 514 487 470
f 470 487 471
f 517 516 519
f 519 516 518
f 517 519 512
f 512 519 520
f 512 520 513
f 513 520 521
f 513 521 509
f 509 521 522
f 516 501 518
f 518 501 523
f 501 504 523
f 523 504 524
f 524 504 525
f 525 504 515
f 526 527 523
f 523 527 518
f 529 530 528
f 528 530 531
f 532 533 529
f 529 533 530
f 530 533 535
f 535 533 534
f 536 537 535
f 535 537 538
f 534 539 535
f 535 539 536
f 538 531 535
f 535 531 530
f 540 541 531
f 531 541 528
f 533 532 534
f 534 532 542
f 532 520 542
f 542 520 519
f 532 543 520
f 520 543 521
f 529 544 532
f 532 544 543
f 544 529 545
f 545 529 528
f 534 542 539
f 539 542 527
f 527 542 518
f 518 542 519
f 541 546 528
f 528 546 545
f 547 544 548
f 548 544 545
f 546 549 545
f 545 549 548
f 550 547 551
f 551 547 548
f 547 550 553
f 553 550 552
f 549 554 548
f 548 554 551
f 544 547 543
f 543 547 553
f 543 553 521
f 521 553 522
f 546 541 556
f 556 541 555
f 541 540 555
f 555 540 557
f 536 539 558
f 558 539 527
f 537 536 559
f 559 536 558
f 527 526 558
f 558 526 560
f 559 558 561
f 561 558 560
f 559 562 537
f 537 562 563
f 557 563 555
f 555 563 562
f 509 522 507
f 507 522 564
f 508 565 515
f 515 565 525
f 565 508 564
f 564 508 507
f 564 552 565
f 565 552 566
f 552 550 566
f 566 550 567
f 565 566 525
f 525 566 568
f 564 522 552
f 552 522 553
f 569 524 568
f 568 524 525
f 569 526 524
f 524 526 523
f 570 560 569
f 569 560 526
f 570 569 571
f 571 569 568
f 572 570 573
f 573 570 571
f 566 567 568
f 568 567 571
f 567 574 571
f 571 574 573
f 570 572 560
f 560 572 561
f 576 561 575
f 575 561 572
f 575 578 577
f 577 578 579
f 575 572 578
f 578 572 573
f 575 577 576
f 576 577 556
f 576 556 562
f 562 556 555
f 562 559 576
f 576 559 561
f 550 551 567
f 567 551 574
f 579 574 554
f 554 574 551
f 579 578 574
f 574 578 573
f 579 554 577
f 577 554 549
f 549 546 577
f 577 546 556
f 531 538 540
f 540 538 557
f 557 538 563
f 563 538 537
f 481 294 482
f 482 294 293
f 580 486 511
f 511 486 485
f 490 489 497
f 497 489 498
f 489 491 498
f 498 491 496
f 163 495 164
f 164 495 494
f 580 490 486
f 486 490 497
f 482 293 510
f 510 293 292
f 495 163 511
f 511 163 199
f 494 493 510
f 510 493 499
f 481 491 294
f 294 491 248
f 582 583 581
f 581 583 584
f 586 587 585
f 585 587 588
f 585 588 589
f 589 588 590
f 592 593 591
f 591 593 594
f 595 596 598
f 598 596 597
f 599 600 586
f 586 600 587
f 601 602 604
f 604 602 603
f 605 606 608
f 608 606 607
f 609 607 200
f 200 607 606
f 610 611 613
f 613 611 612
f 600 614 587
f 587 614 592
f 596 605 597
f 597 605 608
f 602 615 603
f 603 615 583
f 616 614 584
f 584 614 600
f 611 618 617
f 617 618 590
f 620 621 619
f 619 621 622
f 610 623 611
f 611 623 618
f 624 589 618
f 618 589 590
f 617 590 591
f 591 590 588
f 581 625 582
f 582 625 626
f 599 627 581
f 581 627 625
f 591 594 617
f 617 594 628
f 601 610 598
f 598 610 613
f 581 584 599
f 599 584 600
f 585 629 586
f 586 629 630
f 615 616 583
f 583 616 584
f 587 592 588
f 588 592 591
f 582 626 631
f 631 626 632
f 624 620 633
f 633 620 619
f 621 620 604
f 604 620 623
f 631 632 621
f 621 632 622
f 610 601 623
f 623 601 604
f 589 624 634
f 634 624 633
f 586 630 599
f 599 630 627
f 203 202 628
f 628 202 612
f 629 585 634
f 634 585 589
f 609 593 614
f 614 593 592
f 620 624 623
f 623 624 618
f 631 621 603
f 603 621 604
f 582 631 583
f 583 631 603
f 634 633 636
f 636 633 635
f 634 636 629
f 629 636 637
f 629 637 630
f 630 637 638
f 630 638 627
f 627 638 639
f 633 619 635
f 635 619 640
f 619 622 640
f 640 622 641
f 641 622 642
f 642 622 632
f 644 635 643
f 643 635 640
f 645 646 648
f 648 646 647
f 649 650 646
f 646 650 647
f 647 650 652
f 652 650 651
f 652 653 655
f 655 653 654
f 651 656 652
f 652 656 653
f 655 648 652
f 652 648 647
f 648 657 645
f 645 657 658
f 650 649 651
f 651 649 659
f 649 637 659
f 659 637 636
f 649 660 637
f 637 660 638
f 661 660 646
f 646 660 649
f 662 661 645
f 645 661 646
f 651 659 656
f 656 659 644
f 644 659 635
f 635 659 636
f 663 662 658
f 658 662 645
f 664 661 665
f 665 661 662
f 663 666 662
f 662 666 665
f 667 664 668
f 668 664 665
f 664 667 670
f 670 667 669
f 666 671 665
f 665 671 668
f 661 664 660
f 660 664 670
f 660 670 638
f 638 670 639
f 658 672 663
f 663 672 673
f 658 657 672
f 672 657 674
f 653 656 675
f 675 656 644
f 653 675 654
f 654 675 676
f 675 644 677
f 677 644 643
f 676 675 678
f 678 675 677
f 679 680 676
f 676 680 654
f 674 680 672
f 672 680 679
f 627 639 625
f 625 639 681
f 626 682 632
f 632 682 642
f 681 682 625
f 625 682 626
f 669 683 681
f 681 683 682
f 667 684 669
f 669 684 683
f 682 683 642
f 642 683 685
f 681 639 669
f 669 639 670
f 686 641 685
f 685 641 642
f 641 686 640
f 640 686 643
f 686 687 643
f 643 687 677
f 687 686 688
f 688 686 685
f 689 687 690
f 690 687 688
f 683 684 685
f 685 684 688
f 684 691 688
f 688 691 690
f 687 689 677
f 677 689 678
f 693 678 692
f 692 678 689
f 692 695 694
f 694 695 696
f 692 689 695
f 695 689 690
f 692 694 693
f 693 694 673
f 693 673 679
f 679 673 672
f 679 676 693
f 693 676 678
f 684 667 691
f 691 667 668
f 696 691 671
f 671 691 668
f 696 695 691
f 691 695 690
f 694 696 666
f 666 696 671
f 666 663 694
f 694 663 673
f 648 655 657
f 657 655 674
f 674 655 680
f 680 655 654
f 593 162 594
f 594 162 290
f 598 597 601
f 601 597 602
f 615 608 616
f 616 608 607
f 607 609 616
f 616 609 614
f 697 595 613
f 613 595 598
f 597 608 602
f 602 608 615
f 594 290 628
f 628 290 203
f 628 612 617
f 617 612 611
f 593 609 162
f 162 609 200
f 105 29 698
f 698 29 699
f 268 126 701
f 701 126 700
f 126 125 700
f 700 125 702
f 252 703 250
f 250 703 704
f 32 268 705
f 705 268 701
f 288 105 706
f 706 105 698
f 29 32 699
f 699 32 705
f 707 251 706
f 706 251 288
f 250 704 125
f 125 704 702
f 703 252 707
f 707 252 251
f 706 708 707
f 707 708 709
f 707 709 703
f 703 709 710
f 703 710 704
f 704 710 711
f 704 711 702
f 702 711 712
f 706 698 708
f 708 698 713
f 698 699 713
f 713 699 714
f 699 705 714
f 714 705 715
f 717 708 716
f 716 708 713
f 719 720 718
f 718 720 721
f 722 723 719
f 719 723 720
f 724 725 723
f 723 725 720
f 724 726 725
f 725 726 727
f 728 721 725
f 725 721 720
f 721 728 729
f 729 728 730
f 729 731 721
f 721 731 718
f 724 723 732
f 732 723 722
f 722 710 732
f 732 710 709
f 722 733 710
f 710 733 711
f 719 734 722
f 722 734 733
f 734 719 735
f 735 719 718
f 724 732 726
f 726 732 717
f 717 732 708
f 708 732 709
f 731 736 718
f 718 736 735
f 737 734 738
f 738 734 735
f 736 739 735
f 735 739 738
f 740 737 741
f 741 737 738
f 737 740 743
f 743 740 742
f 739 744 738
f 738 744 741
f 734 737 733
f 733 737 743
f 733 743 711
f 711 743 712
f 736 731 746
f 746 731 745
f 731 729 745
f 745 729 730
f 727 726 747
f 747 726 717
f 748 727 749
f 749 727 747
f 747 717 750
f 750 717 716
f 749 747 751
f 751 747 750
f 749 752 748
f 748 752 753
f 730 753 745
f 745 753 752
f 728 725 748
f 748 725 727
f 730 728 753
f 753 728 748
f 700 702 754
f 754 702 712
f 705 701 715
f 715 701 755
f 754 755 700
f 700 755 701
f 742 756 754
f 754 756 755
f 740 757 742
f 742 757 756
f 755 756 715
f 715 756 758
f 754 712 742
f 742 712 743
f 759 714 758
f 758 714 715
f 714 759 713
f 713 759 716
f 759 760 716
f 716 760 750
f 760 759 761
f 761 759 758
f 762 760 763
f 763 760 761
f 756 757 758
f 758 757 761
f 757 764 761
f 761 764 763
f 760 762 750
f 750 762 751
f 766 751 765
f 765 751 762
f 767 765 769
f 769 765 768
f 765 762 768
f 768 762 763
f 765 767 766
f 766 767 746
f 766 746 752
f 752 746 745
f 752 749 766
f 766 749 751
f 757 740 764
f 764 740 741
f 769 764 744
f 744 764 741
f 769 768 764
f 764 768 763
f 767 769 739
f 739 769 744
f 739 736 767
f 767 736 746
f 219 217 208
f 208 217 209
f 209 217 210
f 210 217 193
f 198 580 199
f 199 580 511
f 76 75 289
f 289 75 272
f 277 207 291
f 291 207 184
f 290 183 203
f 203 183 84
f 490 580 142
f 142 580 198
f 142 198 143
f 143 198 197
f 149 276 72
f 72 276 73
f 104 103 279
f 279 103 770
f 770 596 279
f 279 596 595
f 605 596 771
f 771 596 770
f 771 770 772
f 772 770 103
f 772 103 773
f 773 103 102
f 155 774 101
f 101 774 102
f 773 102 97
f 97 102 774
f 775 773 100
f 100 773 97
f 773 775 772
f 772 775 776
f 772 776 771
f 771 776 777
f 200 606 197
f 197 606 777
f 189 71 778
f 778 71 74
f 97 774 98
f 98 774 155
f 183 161 184
f 184 161 291
f 777 276 197
f 197 276 143
f 777 606 771
f 771 606 605
f 613 612 697
f 697 612 202
f 595 697 279
f 279 697 202
f 73 276 776
f 776 276 777
f 776 775 73
f 73 775 74
f 100 778 775
f 775 778 74
f 778 100 189
f 189 100 99
f 245 242 99
f 99 242 189
f 131 33 256
f 28 1 95
f 95 1 62
f 27 2 28
f 28 2 1
f 265 115 266
f 266 115 114
f 95 62 69
f 69 62 64
f 62 61 64
f 64 61 65
f 61 13 65
f 65 13 130
f 13 12 130
f 130 12 14
f 31 11 32
f 32 11 268
f 15 12 31
f 31 12 11
f 31 30 15
f 15 30 231
f 30 106 231
f 231 106 232
f 287 237 106
f 106 237 232
f 254 90 287
f 287 90 237
f 253 44 254
f 254 44 90
f 253 249 44
f 44 249 7
f 267 127 268
f 268 127 126
f 10 3 241
f 241 3 116
f 3 2 116
f 116 2 114
f 2 27 114
f 114 27 266
f 27 26 266
f 266 26 113
f 26 286 113
f 113 286 110
f 286 243 110
f 110 243 255
f 243 242 255
f 255 242 256
f 242 245 256
f 256 245 131
f 245 244 131
f 131 244 132
f 265 37 115
f 115 37 41
f 41 37 42
f 42 37 40
f 92 91 40
f 40 91 42
f 236 233 92
f 92 233 91
f 191 194 236
f 236 194 233
f 258 285 244
f 244 285 132
f 257 55 258
f 258 55 285
f 257 154 201
f 201 154 185
f 56 201 204
f 204 201 180
f 55 257 56
f 56 257 201
f 204 85 56
f 56 85 52
f 86 122 53
f 53 122 79
f 212 215 86
f 86 215 122
f 211 216 212
f 212 216 215
f 192 280 211
f 211 280 216
f 191 240 192
f 192 240 280
f 249 124 7
f 7 124 8
f 124 127 8
f 8 127 241
f 127 267 241
f 241 267 10
f 10 267 9
f 9 267 11
o hand_right
v 0.095182 0.533483 0.927925
v 0.092649 0.542876 0.925706
v 0.088139 0.534142 0.926586
v 0.090298 0.526015 0.927756
v 0.075665 0.548815 0.927937
v 0.066756 0.551510 0.920568
v 0.064636 0.535779 0.923744
v 0.072565 0.536711 0.930180
v 0.088086 0.519282 0.925497
v 0.084995 0.526906 0.927687
v 0.088893 0.516991 0.920767
v 0.093476 0.508683 0.917102
v 0.091634 0.511623 0.923538
v 0.097567 0.502264 0.917987
v 0.096780 0.513340 0.908348
v 0.105315 0.503232 0.913860
v 0.119292 0.526704 0.910438
v 0.128063 0.534623 0.916039
v 0.133283 0.520357 0.923633
v 0.123015 0.513777 0.917681
v 0.139766 0.537243 0.932401
v 0.135997 0.527531 0.928143
v 0.132080 0.540955 0.919312
v 0.135418 0.548917 0.923594
v 0.104068 0.545629 0.931554
v 0.101699 0.555461 0.929313
v 0.098962 0.551360 0.927216
v 0.100950 0.541931 0.929511
v 0.080982 0.514323 0.916087
v 0.083604 0.519796 0.907506
v 0.087826 0.516734 0.913048
v 0.082604 0.515404 0.921049
v 0.097918 0.581428 0.929710
v 0.097938 0.590203 0.920219
v 0.093999 0.587939 0.917342
v 0.095579 0.580326 0.926268
v 0.076183 0.572763 0.914081
v 0.081740 0.580491 0.907596
v 0.080008 0.579907 0.894089
v 0.076425 0.570716 0.898143
v 0.070530 0.562270 0.918607
v 0.068971 0.561524 0.905396
v 0.064217 0.549699 0.910148
v 0.061258 0.533061 0.915645
v 0.107629 0.595469 0.924735
v 0.108450 0.590102 0.932608
v 0.107597 0.469267 0.954633
v 0.109654 0.472803 0.958503
v 0.109049 0.475511 0.955315
v 0.107425 0.471548 0.951806
v 0.125741 0.592655 0.923468
v 0.131493 0.589890 0.916478
v 0.129967 0.596295 0.914920
v 0.123348 0.598470 0.920433
v 0.128845 0.584821 0.927652
v 0.133090 0.580672 0.918990
v 0.116995 0.461927 0.949930
v 0.111978 0.462696 0.950519
v 0.112768 0.465061 0.946423
v 0.117912 0.464838 0.945945
v 0.092315 0.517467 0.928430
v 0.096453 0.524884 0.931615
v 0.097437 0.502519 0.936450
v 0.098303 0.512104 0.934606
v 0.094300 0.508938 0.929474
v 0.095095 0.500989 0.930702
v 0.112173 0.528701 0.941910
v 0.109212 0.538006 0.936965
v 0.105902 0.533159 0.934601
v 0.107421 0.522163 0.939897
v 0.115360 0.547117 0.944687
v 0.118060 0.537249 0.948535
v 0.121502 0.543594 0.952408
v 0.118169 0.549613 0.949625
v 0.121692 0.519016 0.952333
v 0.122789 0.514109 0.953807
v 0.123916 0.516282 0.956213
v 0.123206 0.521778 0.954046
v 0.128503 0.602382 0.912456
v 0.120391 0.603550 0.916803
v 0.145319 0.553218 0.943123
v 0.142213 0.561424 0.948298
v 0.146959 0.552619 0.956642
v 0.149321 0.545915 0.948546
v 0.132402 0.584006 0.908861
v 0.132843 0.591264 0.907415
v 0.122475 0.463604 0.951703
v 0.123011 0.466795 0.948097
v 0.069828 0.548804 0.899090
v 0.064036 0.530729 0.907310
v 0.077178 0.561558 0.893819
v 0.083214 0.569893 0.889507
v 0.085653 0.577082 0.884590
v 0.102517 0.511928 0.939232
v 0.101019 0.532649 0.931831
v 0.106608 0.548894 0.933975
v 0.120702 0.565405 0.953217
v 0.117221 0.573484 0.948718
v 0.111951 0.565305 0.946201
v 0.116422 0.559830 0.950297
v 0.136390 0.564008 0.955474
v 0.129799 0.561096 0.958284
v 0.133370 0.554418 0.962471
v 0.140471 0.556022 0.961124
v 0.075137 0.512966 0.911796
v 0.078662 0.522485 0.902948
v 0.117640 0.593414 0.928781
v 0.114569 0.597590 0.923971
v 0.113131 0.603563 0.918514
v 0.098324 0.568617 0.929592
v 0.093459 0.579640 0.924155
v 0.089859 0.576993 0.923300
v 0.097056 0.566682 0.928070
v 0.088184 0.552336 0.927352
v 0.080418 0.561974 0.925907
v 0.084484 0.541586 0.929645
v 0.088219 0.585853 0.912580
v 0.091836 0.595591 0.911389
v 0.086720 0.591919 0.905820
v 0.099054 0.599572 0.915507
v 0.106455 0.602449 0.918366
v 0.134331 0.598208 0.903572
v 0.083646 0.587442 0.899978
v 0.070612 0.528407 0.931159
v 0.069641 0.521237 0.933083
v 0.077110 0.520836 0.932504
v 0.078713 0.527022 0.930719
v 0.102020 0.494275 0.920927
v 0.096612 0.496749 0.925999
v 0.093240 0.505362 0.922943
v 0.103164 0.575898 0.936916
v 0.111797 0.583851 0.939438
v 0.102301 0.502321 0.940544
v 0.117155 0.468995 0.942349
v 0.111740 0.468823 0.942988
v 0.106205 0.482299 0.931198
v 0.112600 0.481891 0.930163
v 0.111234 0.497295 0.942777
v 0.105083 0.498118 0.942239
v 0.107223 0.496232 0.943531
v 0.113107 0.495655 0.945736
v 0.127243 0.524044 0.959694
v 0.126465 0.528940 0.957363
v 0.124885 0.502350 0.927664
v 0.117233 0.498529 0.918037
v 0.114454 0.508484 0.912779
v 0.115662 0.534109 0.944960
v 0.118754 0.526268 0.949749
v 0.120696 0.529015 0.951765
v 0.105988 0.510441 0.941699
v 0.107435 0.503343 0.942881
v 0.110282 0.507830 0.943702
v 0.109346 0.514536 0.942973
v 0.137953 0.570130 0.940204
v 0.131696 0.573247 0.948823
v 0.108518 0.465469 0.951967
v 0.108762 0.467687 0.948475
v 0.112609 0.543102 0.940172
v 0.111003 0.521232 0.907546
v 0.108949 0.552370 0.936801
v 0.143902 0.528728 0.951449
v 0.141089 0.530506 0.957454
v 0.138928 0.526452 0.961495
v 0.141667 0.523106 0.958168
v 0.117911 0.483330 0.954701
v 0.112502 0.482638 0.955485
v 0.113768 0.478221 0.957851
v 0.119442 0.478432 0.957749
v 0.100646 0.496600 0.939268
v 0.097735 0.494365 0.934208
v 0.100479 0.489622 0.938593
v 0.103627 0.493080 0.941905
v 0.099867 0.490106 0.929860
v 0.101725 0.485437 0.934221
v 0.122857 0.480843 0.951548
v 0.125078 0.475672 0.946698
v 0.121770 0.488684 0.936226
v 0.119178 0.491912 0.943094
v 0.132791 0.559767 0.914535
v 0.135915 0.566954 0.921024
v 0.138744 0.556403 0.930291
v 0.143253 0.546112 0.939026
v 0.146641 0.535784 0.947111
v 0.144338 0.527229 0.939707
v 0.140487 0.562584 0.934120
v 0.117803 0.499764 0.938803
v 0.120342 0.496170 0.930293
v 0.122048 0.499316 0.934409
v 0.111379 0.556698 0.941777
v 0.107502 0.471153 0.945395
v 0.105323 0.568935 0.883331
v 0.116367 0.573064 0.887430
v 0.115511 0.565188 0.890972
v 0.102884 0.560915 0.886988
v 0.107251 0.479728 0.953354
v 0.105188 0.475247 0.949584
v 0.130106 0.532129 0.961504
v 0.130546 0.526808 0.962958
v 0.133450 0.526914 0.964147
v 0.133101 0.532338 0.965420
v 0.136443 0.571380 0.923760
v 0.147048 0.546092 0.963164
v 0.150040 0.541243 0.955166
v 0.133249 0.575991 0.912837
v 0.130972 0.569755 0.906806
v 0.130112 0.577428 0.901611
v 0.137703 0.514602 0.938126
v 0.129738 0.552922 0.911308
v 0.127621 0.564256 0.903809
v 0.126212 0.573350 0.897667
v 0.126188 0.579919 0.892991
v 0.130177 0.583927 0.898144
v 0.122396 0.471461 0.944351
v 0.126500 0.470811 0.951351
v 0.131561 0.591238 0.893554
v 0.126295 0.586661 0.888286
v 0.122081 0.558242 0.900140
v 0.115080 0.551771 0.896016
v 0.124698 0.547555 0.907508
v 0.117937 0.540049 0.904133
v 0.136590 0.508050 0.928707
v 0.124153 0.464361 0.966481
v 0.124822 0.471787 0.959010
v 0.120308 0.475002 0.961080
v 0.121804 0.467480 0.968497
v 0.124292 0.475888 0.955339
v 0.125855 0.467717 0.955044
v 0.106464 0.533925 0.900892
v 0.112234 0.502659 0.944270
v 0.099261 0.547025 0.893286
v 0.094179 0.523988 0.901102
v 0.087122 0.533716 0.897256
v 0.090460 0.559571 0.887436
v 0.081119 0.547020 0.892484
v 0.095382 0.574887 0.880281
v 0.094231 0.567333 0.884200
v 0.073360 0.533586 0.898395
v 0.108426 0.464974 0.964112
v 0.111468 0.468750 0.966804
v 0.105986 0.575989 0.879393
v 0.081529 0.533091 0.930174
v 0.106185 0.564309 0.937465
v 0.104581 0.560776 0.934009
v 0.115163 0.577841 0.945351
v 0.108057 0.569829 0.941886
v 0.108570 0.460665 0.961079
v 0.125264 0.511400 0.954890
v 0.125666 0.513267 0.953878
v 0.063491 0.527132 0.927023
v 0.063573 0.520997 0.929057
v 0.064045 0.514666 0.917861
v 0.061491 0.517693 0.923611
v 0.060593 0.524452 0.919808
v 0.062939 0.521529 0.913269
v 0.099220 0.569532 0.931330
v 0.100945 0.571342 0.933725
v 0.132716 0.578102 0.933767
v 0.126515 0.580346 0.942347
v 0.104708 0.488162 0.926260
v 0.109348 0.494189 0.919006
v 0.111175 0.488173 0.924989
v 0.118255 0.485418 0.930738
v 0.114781 0.499776 0.943080
v 0.116406 0.496722 0.939403
v 0.085384 0.570059 0.924912
v 0.093380 0.561169 0.927198
v 0.083505 0.522921 0.927105
v 0.082278 0.518525 0.927843
v 0.113424 0.520925 0.945165
v 0.133447 0.507016 0.945770
v 0.132141 0.502245 0.937919
v 0.115651 0.513366 0.947691
v 0.115620 0.456093 0.959492
v 0.110883 0.457791 0.959893
v 0.117160 0.491332 0.925111
v 0.123965 0.535187 0.956160
v 0.135601 0.513376 0.945709
v 0.130830 0.509077 0.952133
v 0.141022 0.551125 0.965030
v 0.116186 0.580516 0.883194
v 0.114650 0.475396 0.961559
v 0.115938 0.470498 0.968425
v 0.124530 0.461402 0.963492
v 0.121522 0.457966 0.959958
v 0.121243 0.586105 0.936134
v 0.103742 0.558342 0.931862
v 0.069690 0.522070 0.905432
v 0.069097 0.513517 0.913229
v 0.117042 0.509568 0.948344
v 0.146358 0.534253 0.953996
v 0.143219 0.521328 0.947053
v 0.141312 0.515615 0.954355
v 0.136032 0.511001 0.952894
v 0.129384 0.510190 0.954021
v 0.123814 0.459248 0.968414
v 0.120708 0.455512 0.964868
v 0.114850 0.453654 0.964271
v 0.110437 0.455414 0.964084
v 0.108371 0.459241 0.964463
v 0.123260 0.462415 0.971481
v 0.120779 0.465246 0.972943
v 0.115844 0.468555 0.971175
v 0.121439 0.461724 0.975722
v 0.121507 0.456568 0.975763
v 0.109405 0.450254 0.976601
v 0.113052 0.450886 0.972119
v 0.113852 0.450622 0.974722
v 0.111588 0.449953 0.978932
v 0.110733 0.449198 0.983790
v 0.107701 0.449375 0.981815
v 0.117833 0.452699 0.973985
v 0.115494 0.451932 0.980055
v 0.117879 0.454905 0.981591
v 0.116325 0.453307 0.986562
v 0.114232 0.450482 0.985352
v 0.119496 0.455025 0.977407
v 0.119043 0.452767 0.971765
v 0.108281 0.449653 0.986308
v 0.110670 0.448889 0.986661
v 0.113160 0.450332 0.988233
v 0.111077 0.451261 0.990022
v 0.109266 0.453812 0.968576
v 0.107218 0.451650 0.976146
v 0.106102 0.452077 0.981950
v 0.106836 0.452092 0.986391
v 0.105873 0.455197 0.977685
v 0.105810 0.454979 0.982404
v 0.106638 0.455391 0.986253
v 0.106192 0.459042 0.979573
v 0.106501 0.457886 0.983467
v 0.107955 0.461899 0.968974
v 0.107595 0.458167 0.967177
v 0.106606 0.457507 0.985981
v 0.110125 0.453250 0.990258
v 0.119240 0.458193 0.981198
v 0.116255 0.456466 0.987098
v 0.118683 0.460440 0.981564
v 0.116126 0.458791 0.987556
v 0.114676 0.454377 0.990627
v 0.114871 0.452559 0.989005
v 0.108843 0.464022 0.966087
v 0.112098 0.467787 0.968948
v 0.111335 0.466302 0.971543
v 0.108805 0.462560 0.981312
v 0.114871 0.467344 0.974006
v 0.118933 0.464479 0.976820
v 0.116715 0.462355 0.982659
v 0.113544 0.463666 0.982623
v 0.114421 0.460679 0.986992
v 0.112093 0.461298 0.986116
v 0.108514 0.460465 0.985036
v 0.111982 0.458567 0.989371
v 0.113722 0.456412 0.990411
v 0.109070 0.456242 0.989151
v 0.111024 0.459777 0.988163
v 0.108666 0.458122 0.987365
v 0.106423 0.493835 0.970688
v 0.109549 0.498149 0.973917
v 0.111802 0.497148 0.970331
v 0.109126 0.493539 0.967710
v 0.112265 0.481223 0.973207
v 0.107774 0.484890 0.970921
v 0.111537 0.483737 0.966935
v 0.117275 0.481036 0.969323
v 0.118470 0.482511 0.976810
v 0.122998 0.483112 0.972446
v 0.119960 0.482543 0.964027
v 0.113983 0.485233 0.962044
v 0.118019 0.495703 0.944897
v 0.124001 0.493527 0.945164
v 0.119975 0.509878 0.955328
v 0.123202 0.509169 0.956977
v 0.106184 0.489770 0.970221
v 0.109276 0.488784 0.966708
v 0.119835 0.501010 0.972078
v 0.114960 0.501051 0.969858
v 0.114707 0.499834 0.973106
v 0.119285 0.498868 0.975929
v 0.114025 0.502501 0.947931
v 0.116985 0.506575 0.951443
v 0.115137 0.499126 0.946217
v 0.125059 0.497252 0.973086
v 0.128021 0.491395 0.971702
v 0.132834 0.500422 0.954114
v 0.130221 0.504907 0.957726
v 0.110740 0.489356 0.962413
v 0.110945 0.498108 0.967166
v 0.109301 0.494447 0.964275
v 0.125669 0.485718 0.966946
v 0.124931 0.489042 0.977106
v 0.111543 0.494262 0.990780
v 0.119482 0.494412 0.982381
v 0.116697 0.498407 0.980557
v 0.109558 0.498638 0.989762
v 0.122908 0.495074 0.977730
v 0.120348 0.488664 0.981225
v 0.098379 0.496623 0.981951
v 0.102070 0.500687 0.984924
v 0.097288 0.492272 0.981329
v 0.130004 0.495752 0.948252
v 0.102946 0.483990 0.983230
v 0.098478 0.488199 0.981332
v 0.113196 0.500210 0.977187
v 0.105975 0.501239 0.987865
v 0.111487 0.489809 0.990110
v 0.109021 0.484457 0.985984
v 0.107187 0.490544 0.994145
v 0.104138 0.486000 0.991141
v 0.098520 0.485444 0.988084
v 0.095438 0.489366 0.985177
v 0.095290 0.493192 0.984163
v 0.107420 0.494766 0.994702
v 0.106022 0.499094 0.993354
v 0.103702 0.501273 0.989590
v 0.102185 0.498353 0.998159
v 0.100803 0.494175 0.999242
v 0.083014 0.495322 0.997256
v 0.087185 0.492194 0.994670
v 0.088274 0.492103 0.997070
v 0.084628 0.494942 0.999659
v 0.091977 0.488633 0.993739
v 0.091940 0.489820 0.995975
v 0.095984 0.490824 0.997951
v 0.091457 0.494166 0.999969
v 0.095049 0.496983 1.001365
v 0.091025 0.499277 1.004474
v 0.087421 0.496382 1.003398
v 0.097406 0.493809 0.999887
v 0.082858 0.497025 1.001887
v 0.081184 0.498867 1.001110
v 0.098027 0.488762 0.996835
v 0.092417 0.489876 0.987977
v 0.086177 0.494047 0.992354
v 0.082219 0.498059 0.995564
v 0.081362 0.501832 1.000288
v 0.086314 0.498099 0.991062
v 0.082962 0.501144 0.994884
v 0.082748 0.503854 0.999077
v 0.088000 0.502528 0.990932
v 0.085033 0.504822 0.995173
v 0.095308 0.497998 0.985210
v 0.092988 0.493859 0.985337
v 0.084194 0.505104 0.997678
v 0.083354 0.500466 1.005057
v 0.083193 0.503544 1.003596
v 0.084347 0.498938 1.004917
v 0.096335 0.498639 1.001553
v 0.091483 0.501480 1.004281
v 0.096965 0.501415 1.001061
v 0.091427 0.503953 1.003945
v 0.087428 0.502569 1.006096
v 0.087128 0.500849 1.006045
v 0.097298 0.496965 0.984456
v 0.100866 0.500481 0.986762
v 0.099099 0.501467 0.987276
v 0.091664 0.505470 0.993200
v 0.102088 0.502367 0.990800
v 0.102415 0.501163 0.995761
v 0.097068 0.503679 0.999350
v 0.094986 0.505718 0.996615
v 0.091910 0.505903 1.003079
v 0.091713 0.506815 0.999926
v 0.088157 0.506934 0.996635
v 0.087567 0.506338 1.004369
v 0.087320 0.504320 1.005636
v 0.083921 0.505061 1.002107
v 0.088413 0.507250 1.001673
v 0.085454 0.506413 0.999678
v 0.117305 0.508591 0.975386
v 0.120007 0.512212 0.978727
v 0.122386 0.512618 0.976176
v 0.120054 0.508495 0.973424
v 0.122478 0.497403 0.976434
v 0.118950 0.500006 0.974720
v 0.122070 0.500187 0.972085
v 0.126548 0.497841 0.972928
v 0.125409 0.497465 0.980936
v 0.131161 0.498266 0.975867
v 0.129767 0.499573 0.968883
v 0.124348 0.501326 0.969314
v 0.128368 0.508507 0.957487
v 0.134397 0.506837 0.957885
v 0.117342 0.504356 0.974335
v 0.119930 0.504280 0.972397
v 0.129081 0.516073 0.978912
v 0.124846 0.516376 0.976747
v 0.125936 0.513914 0.979654
v 0.129328 0.512212 0.982234
v 0.123698 0.517174 0.958803
v 0.126843 0.521442 0.961205
v 0.124413 0.512541 0.958381
v 0.134091 0.512249 0.979472
v 0.137078 0.506747 0.976433
v 0.140747 0.516179 0.965307
v 0.137706 0.520899 0.966819
v 0.121040 0.504859 0.970148
v 0.121409 0.514421 0.973607
v 0.119616 0.509836 0.971276
v 0.134441 0.501995 0.971544
v 0.133662 0.502514 0.980751
v 0.117039 0.503359 0.995993
v 0.129250 0.506816 0.986465
v 0.126172 0.511469 0.985195
v 0.115520 0.507428 0.995819
v 0.132374 0.507974 0.983512
v 0.129020 0.501451 0.984655
v 0.106541 0.507227 0.985677
v 0.109628 0.510238 0.988949
v 0.107193 0.503480 0.983841
v 0.139828 0.509674 0.960743
v 0.132463 0.523721 0.965570
v 0.110207 0.497181 0.985873
v 0.107991 0.500259 0.984017
v 0.123566 0.513194 0.982434
v 0.112959 0.510316 0.993330
v 0.117234 0.499333 0.993694
v 0.114848 0.496341 0.989156
v 0.113643 0.499415 0.997537
v 0.110952 0.496460 0.993140
v 0.106427 0.496694 0.990058
v 0.104385 0.499935 0.988061
v 0.103729 0.503268 0.987589
v 0.113483 0.503599 0.999571
v 0.112131 0.507185 0.998952
v 0.111063 0.509680 0.994651
v 0.110455 0.504479 1.002332
v 0.108602 0.499405 1.002019
v 0.092561 0.499096 1.002241
v 0.096326 0.498653 0.998352
v 0.097078 0.498257 0.999343
v 0.093395 0.498126 1.003416
v 0.101703 0.496796 0.995408
v 0.101106 0.496901 0.997191
v 0.104352 0.496901 0.999256
v 0.100050 0.497722 1.003466
v 0.103686 0.501537 1.005887
v 0.099734 0.501565 1.008634
v 0.096313 0.497794 1.006947
v 0.106540 0.499179 1.002298
v 0.092082 0.498523 1.006162
v 0.090259 0.498636 1.005533
v 0.106186 0.496486 0.997940
v 0.100204 0.499391 0.991659
v 0.094926 0.500547 0.996582
v 0.090724 0.501170 1.000349
v 0.089530 0.502024 1.004323
v 0.094978 0.504314 0.996094
v 0.091417 0.504300 0.999972
v 0.090192 0.505001 1.003536
v 0.096092 0.507348 0.996723
v 0.093003 0.507184 1.000435
v 0.102930 0.506767 0.990029
v 0.100946 0.503109 0.990067
v 0.091624 0.506739 1.003190
v 0.092564 0.499738 1.009379
v 0.091742 0.503842 1.008922
v 0.093821 0.499061 1.008568
v 0.105048 0.502864 1.006140
v 0.100104 0.503484 1.009944
v 0.105486 0.505712 1.005861
v 0.100490 0.506206 1.009648
v 0.096511 0.502265 1.011102
v 0.096599 0.501284 1.010420
v 0.105240 0.506859 0.988161
v 0.108089 0.509636 0.990953
v 0.105765 0.509631 0.992453
v 0.098323 0.510159 0.999378
v 0.108834 0.509989 0.996009
v 0.108981 0.507741 1.001383
v 0.104117 0.508366 1.004529
v 0.101490 0.510130 1.002596
v 0.099743 0.508459 1.008100
v 0.098746 0.509399 1.005610
v 0.095041 0.509787 1.002583
v 0.096009 0.507202 1.008890
v 0.096325 0.505027 1.010770
v 0.091997 0.506478 1.007194
v 0.095828 0.508683 1.006910
v 0.092849 0.508131 1.005485
v 0.129548 0.523706 0.963636
v 0.128567 0.518814 0.975915
v 0.129100 0.521784 0.978799
v 0.130145 0.522782 0.978171
v 0.129543 0.520646 0.974554
v 0.137408 0.512528 0.974443
v 0.133025 0.513252 0.973648
v 0.135312 0.515277 0.970751
v 0.139598 0.514780 0.971454
v 0.140962 0.514343 0.977540
v 0.142788 0.516747 0.975136
v 0.140898 0.517677 0.969325
v 0.136477 0.518153 0.968338
v 0.139910 0.528930 0.958889
v 0.144975 0.530332 0.958879
v 0.139960 0.545882 0.969027
v 0.135242 0.546192 0.968173
v 0.135043 0.539024 0.972608
v 0.139408 0.539870 0.973469
v 0.130125 0.515729 0.974255
v 0.131297 0.517763 0.971726
v 0.137376 0.527213 0.982401
v 0.133127 0.526845 0.980436
v 0.131911 0.524786 0.981184
v 0.135365 0.525277 0.984143
v 0.132309 0.542310 0.966937
v 0.132176 0.538109 0.965387
v 0.131427 0.535034 0.967008
v 0.132286 0.536112 0.970479
v 0.133518 0.530785 0.963750
v 0.141256 0.525849 0.981816
v 0.144722 0.522717 0.978430
v 0.148030 0.538564 0.969403
v 0.144231 0.540304 0.971850
v 0.132661 0.519332 0.970399
v 0.130854 0.525048 0.977038
v 0.130478 0.522286 0.974316
v 0.144508 0.519499 0.973030
v 0.142618 0.520097 0.980530
v 0.134848 0.518047 0.990399
v 0.138505 0.522026 0.985765
v 0.134362 0.524271 0.985212
v 0.132508 0.520265 0.989830
v 0.139321 0.523403 0.983965
v 0.140955 0.517738 0.983151
v 0.125125 0.516423 0.980486
v 0.126879 0.519923 0.984125
v 0.125851 0.513539 0.979010
v 0.148613 0.534211 0.962696
v 0.131566 0.508893 0.980258
v 0.127654 0.510597 0.979151
v 0.130929 0.523542 0.982080
v 0.129515 0.521181 0.987545
v 0.136606 0.513988 0.988656
v 0.136117 0.510207 0.983714
v 0.133070 0.512223 0.991094
v 0.132376 0.508564 0.986447
v 0.127123 0.508486 0.982712
v 0.125063 0.511360 0.981097
v 0.124029 0.514326 0.980935
v 0.132185 0.516932 0.992411
v 0.130741 0.519445 0.991577
v 0.128596 0.520847 0.988635
v 0.129254 0.515870 0.994637
v 0.127322 0.511802 0.993821
v 0.114856 0.513550 0.992010
v 0.117608 0.512624 0.989116
v 0.118107 0.512139 0.990039
v 0.115010 0.512637 0.992497
v 0.121812 0.510284 0.986599
v 0.121381 0.510504 0.988386
v 0.124550 0.509908 0.989961
v 0.120515 0.510948 0.993195
v 0.123195 0.513347 0.996954
v 0.119787 0.513792 0.998988
v 0.117758 0.511364 0.995654
v 0.125611 0.511317 0.993824
v 0.113640 0.512467 0.994873
v 0.112542 0.513129 0.995109
v 0.126452 0.508752 0.988858
v 0.121145 0.513014 0.983873
v 0.116281 0.514608 0.988323
v 0.113144 0.515169 0.992163
v 0.112121 0.515209 0.995796
v 0.116893 0.516923 0.987698
v 0.113114 0.517465 0.991960
v 0.112334 0.517543 0.995453
v 0.118271 0.519830 0.988358
v 0.114640 0.519516 0.992350
v 0.122830 0.519242 0.984303
v 0.121387 0.516227 0.983438
v 0.113544 0.518776 0.995041
v 0.113969 0.512817 0.998642
v 0.113587 0.515642 0.998613
v 0.115175 0.511980 0.998083
v 0.123963 0.514299 0.997497
v 0.119871 0.515021 0.999962
v 0.124582 0.516606 0.997725
v 0.119697 0.517134 0.999916
v 0.116523 0.514413 1.000625
v 0.117201 0.513150 0.999446
v 0.123912 0.517902 0.982602
v 0.125929 0.519950 0.984992
v 0.125219 0.521071 0.987036
v 0.120788 0.521774 0.990868
v 0.128005 0.521072 0.990745
v 0.129310 0.518793 0.993573
v 0.124321 0.519076 0.996896
v 0.123109 0.521320 0.994764
v 0.119039 0.519006 0.999178
v 0.118406 0.520921 0.997027
v 0.116709 0.521240 0.994274
v 0.115500 0.518078 0.999166
v 0.115688 0.516532 1.000205
v 0.113742 0.517651 0.997942
v 0.115588 0.519480 0.997859
v 0.114585 0.519357 0.996607
v 0.143471 0.543867 0.968600
v 0.075763 0.502999 0.921254
v 0.080062 0.504704 0.924405
v 0.073605 0.510606 0.937571
v 0.079266 0.508671 0.934635
v 0.067112 0.510091 0.937163
v 0.061862 0.507004 0.928518
v 0.063219 0.509632 0.933215
v 0.081516 0.506679 0.929876
v 0.070098 0.503019 0.919946
v 0.064018 0.504650 0.922539
v 0.070861 0.495822 0.922779
v 0.064122 0.497669 0.925791
v 0.061343 0.499868 0.931592
v 0.063239 0.503937 0.936657
v 0.066420 0.505831 0.939901
v 0.077222 0.497968 0.924567
v 0.081195 0.500195 0.927878
v 0.081784 0.503720 0.933408
v 0.079716 0.492697 0.929805
v 0.075387 0.485430 0.934911
v 0.066455 0.481643 0.950988
v 0.065475 0.487129 0.947523
v 0.066165 0.484956 0.945633
v 0.066424 0.479990 0.948700
v 0.065005 0.489388 0.942582
v 0.066344 0.487393 0.942386
v 0.069485 0.486292 0.938387
v 0.069649 0.481783 0.941321
v 0.073980 0.484540 0.937152
v 0.075406 0.481674 0.939349
v 0.070053 0.477293 0.944159
v 0.067296 0.476172 0.948991
v 0.070576 0.473800 0.946894
v 0.068433 0.476957 0.952063
v 0.068252 0.486009 0.936289
v 0.063916 0.496238 0.942636
v 0.065978 0.490626 0.948931
v 0.068110 0.484368 0.953105
v 0.070489 0.478735 0.953914
v 0.068939 0.493587 0.950293
v 0.071407 0.487319 0.953303
v 0.074113 0.482243 0.953650
v 0.073481 0.495077 0.950030
v 0.074961 0.488535 0.952119
v 0.072435 0.504759 0.942480
v 0.066683 0.502063 0.943425
v 0.075763 0.484312 0.952486
v 0.072094 0.473102 0.949238
v 0.074616 0.475171 0.951254
v 0.078590 0.482701 0.938165
v 0.075733 0.477097 0.941596
v 0.078814 0.478151 0.942000
v 0.081456 0.485504 0.937977
v 0.081136 0.479787 0.942962
v 0.076743 0.474334 0.945507
v 0.074134 0.474347 0.944116
v 0.072287 0.507598 0.940102
v 0.078097 0.506851 0.937262
v 0.078375 0.504002 0.939249
v 0.079191 0.494976 0.946668
v 0.082572 0.500621 0.936117
v 0.082553 0.495947 0.932114
v 0.083313 0.488355 0.939708
v 0.082864 0.492068 0.942750
v 0.082119 0.482699 0.945051
v 0.081504 0.485143 0.946789
v 0.078743 0.487546 0.950104
v 0.079944 0.479469 0.948456
v 0.079091 0.476300 0.946922
v 0.077013 0.479202 0.951692
v 0.079985 0.482293 0.948779
v 0.077951 0.482771 0.951056
v 0.134411 0.550271 0.964680
v 0.130287 0.545918 0.963353
v 0.128647 0.551050 0.961130
v 0.124814 0.557936 0.957511
v 0.126114 0.567256 0.954273
v 0.120974 0.553612 0.954287
v 0.125322 0.546663 0.958091
v 0.128105 0.539121 0.960880
v 0.115091 0.555329 0.946688
f 780 781 779
f 779 781 782
f 783 784 786
f 786 784 785
f 787 782 788
f 788 782 781
f 790 791 789
f 789 791 787
f 792 790 794
f 794 790 793
f 796 797 795
f 795 797 798
f 800 801 799
f 799 801 802
f 804 805 803
f 803 805 806
f 808 809 807
f 807 809 810
f 811 812 814
f 814 812 813
f 815 816 818
f 818 816 817
f 819 820 784
f 784 820 821
f 784 821 785
f 785 821 822
f 823 812 824
f 824 812 811
f 826 827 825
f 825 827 828
f 830 831 829
f 829 831 832
f 834 830 833
f 833 830 829
f 836 837 835
f 835 837 838
f 839 840 782
f 782 840 779
f 842 843 841
f 841 843 844
f 846 847 845
f 845 847 848
f 850 851 849
f 849 851 852
f 854 855 853
f 853 855 856
f 831 857 832
f 832 857 858
f 860 861 859
f 859 861 862
f 863 864 830
f 830 864 831
f 835 838 865
f 865 838 866
f 867 868 821
f 821 868 822
f 821 820 867
f 867 820 869
f 818 817 870
f 870 817 871
f 872 848 842
f 842 848 847
f 791 839 787
f 787 839 782
f 803 806 847
f 847 806 873
f 874 803 846
f 846 803 847
f 876 877 875
f 875 877 878
f 879 880 882
f 882 880 881
f 884 808 883
f 883 808 807
f 829 832 885
f 885 832 886
f 832 858 886
f 886 858 887
f 889 890 888
f 888 890 891
f 893 783 892
f 892 783 894
f 893 819 783
f 783 819 784
f 814 813 889
f 889 813 895
f 813 896 895
f 895 896 897
f 812 898 813
f 813 898 896
f 812 823 898
f 898 823 899
f 903 904 902
f 902 904 905
f 906 907 792
f 792 907 908
f 811 909 824
f 824 909 910
f 911 872 841
f 841 872 842
f 912 913 915
f 915 913 914
f 917 918 916
f 916 918 919
f 855 920 856
f 856 920 921
f 922 923 798
f 798 923 924
f 926 927 925
f 925 927 850
f 929 930 928
f 928 930 931
f 860 879 861
f 861 879 882
f 879 860 933
f 933 860 932
f 934 935 836
f 836 935 837
f 936 846 925
f 925 846 845
f 937 924 793
f 793 924 794
f 846 936 874
f 874 936 938
f 907 844 908
f 908 844 843
f 940 941 939
f 939 941 942
f 944 945 943
f 943 945 946
f 948 949 947
f 947 949 950
f 952 949 951
f 951 949 948
f 954 955 953
f 953 955 956
f 958 959 957
f 957 959 802
f 960 961 799
f 799 961 962
f 859 963 860
f 860 963 932
f 964 965 966
f 966 965 922
f 936 849 938
f 938 849 967
f 968 913 935
f 935 913 837
f 947 950 917
f 917 950 918
f 925 850 936
f 936 850 849
f 970 971 969
f 969 971 972
f 945 944 827
f 827 944 973
f 974 968 828
f 828 968 935
f 975 976 978
f 978 976 977
f 799 802 960
f 960 802 959
f 924 937 798
f 798 937 795
f 960 959 859
f 859 959 963
f 979 963 958
f 958 963 959
f 980 981 861
f 861 981 862
f 983 984 982
f 982 984 863
f 985 800 962
f 962 800 799
f 957 802 986
f 986 802 801
f 986 987 957
f 957 987 983
f 987 988 983
f 983 988 984
f 990 984 989
f 989 984 988
f 957 983 958
f 958 983 982
f 991 954 866
f 866 954 992
f 864 863 990
f 990 863 984
f 971 995 996
f 995 997 996
f 996 997 998
f 997 796 998
f 998 796 795
f 797 999 798
f 798 999 922
f 1000 1001 1003
f 1003 1001 1002
f 953 1004 954
f 954 1004 992
f 1005 865 992
f 992 865 866
f 998 795 1006
f 1006 795 937
f 912 991 838
f 838 991 866
f 916 1007 929
f 929 1007 930
f 971 970 988
f 988 970 989
f 1008 972 996
f 996 972 971
f 1009 1010 1006
f 1006 1010 1008
f 1011 1012 869
f 869 1012 867
f 1013 1014 871
f 871 1014 870
f 1008 1010 1012
f 1012 1010 1015
f 825 1016 826
f 826 1016 1017
f 1018 969 1013
f 1013 969 1014
f 783 786 894
f 894 786 1019
f 1020 1021 967
f 967 1021 938
f 1022 1023 876
f 876 1023 877
f 934 1024 825
f 825 1024 1016
f 854 1025 855
f 855 1025 1026
f 1028 903 1027
f 1027 903 902
f 1030 1031 1029
f 1029 1031 1032
f 889 888 814
f 814 888 1033
f 1034 811 1033
f 1033 811 814
f 1035 1036 932
f 932 1036 933
f 841 947 911
f 911 947 917
f 844 948 841
f 841 948 947
f 951 948 907
f 907 948 844
f 907 906 951
f 951 906 1037
f 906 1038 1037
f 1037 1038 1039
f 991 912 1040
f 1040 912 915
f 1041 1042 964
f 964 1042 965
f 890 1043 891
f 891 1043 1044
f 789 1045 1046
f 1012 1011 1008
f 1008 1011 972
f 931 1047 848
f 848 1047 845
f 953 956 943
f 943 956 919
f 928 931 872
f 872 931 848
f 1049 999 1048
f 1048 999 985
f 1047 931 1050
f 1050 931 930
f 899 823 887
f 887 823 886
f 825 828 934
f 934 828 935
f 835 1051 836
f 836 1051 1052
f 923 1053 1038
f 1038 1053 1039
f 1054 927 921
f 921 927 856
f 926 1047 853
f 853 1047 1050
f 985 1055 1048
f 1048 1055 1056
f 973 974 827
f 827 974 828
f 837 913 838
f 838 913 912
f 861 882 980
f 980 882 1057
f 927 926 856
f 856 926 853
f 1025 1056 1026
f 1026 1056 1055
f 961 960 862
f 862 960 859
f 826 1017 1059
f 1059 1017 1060
f 1005 1001 1061
f 1061 1001 1000
f 1001 1004 1002
f 1002 1004 946
f 1059 1060 1002
f 1002 1060 1003
f 943 946 953
f 953 946 1004
f 1042 1041 916
f 916 1041 1007
f 792 794 906
f 906 794 1038
f 998 1006 996
f 996 1006 1008
f 865 1005 1062
f 1062 1005 1061
f 1038 794 923
f 923 794 924
f 1022 876 1036
f 1036 876 933
f 836 1052 934
f 934 1052 1024
f 885 1063 829
f 829 1063 833
f 1021 1064 938
f 938 1064 874
f 1012 1015 867
f 867 1015 868
f 824 910 885
f 885 910 1063
f 1031 1030 1027
f 1027 1030 1028
f 1064 804 874
f 874 804 803
f 884 883 1065
f 1065 883 1066
f 1050 930 1067
f 1067 930 1007
f 916 929 917
f 917 929 911
f 961 1068 939
f 939 1068 940
f 1069 1070 1055
f 1055 1070 1071
f 929 928 911
f 911 928 872
f 1040 1053 955
f 955 1053 965
f 922 965 923
f 923 965 1053
f 1051 835 1062
f 1062 835 865
f 952 914 968
f 968 914 913
f 889 895 890
f 890 895 816
f 895 897 816
f 816 897 901
f 890 816 1043
f 1043 816 815
f 1065 1066 1032
f 1032 1066 1029
f 1006 937 1009
f 1009 937 793
f 1001 1005 1004
f 1004 1005 992
f 925 845 926
f 926 845 1047
f 1002 946 1059
f 1059 946 945
f 977 941 978
f 978 941 940
f 823 824 886
f 886 824 885
f 1059 945 826
f 826 945 827
f 939 942 1069
f 1069 942 1070
f 816 901 817
f 1071 1072 1055
f 1055 1072 1026
f 1062 1061 1074
f 1074 1061 1073
f 1062 1074 1051
f 1051 1074 1075
f 1052 1051 1076
f 1076 1051 1075
f 1024 1052 1077
f 1077 1052 1076
f 1061 1000 1073
f 1073 1000 1078
f 1000 1003 1078
f 1078 1003 1079
f 1079 1003 1080
f 1080 1003 1060
f 1081 1082 1078
f 1078 1082 1073
f 1084 1085 1083
f 1083 1085 1086
f 1087 1088 1086
f 1086 1088 1083
f 1086 1085 1090
f 1090 1085 1089
f 1091 1092 1090
f 1090 1092 1093
f 1089 1094 1090
f 1090 1094 1091
f 1095 1082 1089
f 1089 1082 1094
f 1093 1087 1090
f 1090 1087 1086
f 1096 1097 1099
f 1099 1097 1098
f 1097 1096 1087
f 1087 1096 1088
f 1089 1085 1095
f 1095 1085 1084
f 1084 1075 1095
f 1095 1075 1074
f 1084 1100 1075
f 1075 1100 1076
f 1083 1101 1084
f 1084 1101 1100
f 1101 1083 1102
f 1102 1083 1088
f 1082 1095 1073
f 1073 1095 1074
f 1096 1103 1088
f 1088 1103 1102
f 1101 1102 1104
f 1104 1102 1105
f 1102 1103 1105
f 1105 1103 1106
f 1104 1105 1107
f 1107 1105 1108
f 1107 1109 1104
f 1104 1109 1110
f 1111 1108 1106
f 1106 1108 1105
f 1101 1104 1100
f 1100 1104 1110
f 1100 1110 1076
f 1076 1110 1077
f 1103 1096 1112
f 1112 1096 1099
f 1091 1094 1113
f 1113 1094 1082
f 1113 1114 1091
f 1091 1114 1092
f 1082 1081 1113
f 1113 1081 1115
f 1114 1113 1116
f 1116 1113 1115
f 1114 1117 1092
f 1092 1117 1118
f 1024 1077 1016
f 1016 1077 1119
f 1017 1120 1060
f 1060 1120 1080
f 1120 1017 1119
f 1119 1017 1016
f 1119 1109 1120
f 1120 1109 1121
f 1109 1107 1121
f 1121 1107 1122
f 1120 1121 1080
f 1080 1121 1123
f 1119 1077 1109
f 1109 1077 1110
f 1124 1079 1123
f 1123 1079 1080
f 1124 1081 1079
f 1079 1081 1078
f 1125 1115 1124
f 1124 1115 1081
f 1125 1124 1126
f 1126 1124 1123
f 1127 1125 1128
f 1128 1125 1126
f 1121 1122 1123
f 1123 1122 1126
f 1122 1129 1126
f 1126 1129 1128
f 1115 1125 1116
f 1116 1125 1127
f 1131 1116 1130
f 1130 1116 1127
f 1130 1133 1132
f 1132 1133 1134
f 1130 1127 1133
f 1133 1127 1128
f 1130 1132 1131
f 1131 1132 1112
f 1131 1112 1117
f 1117 1112 1099
f 1117 1114 1131
f 1131 1114 1116
f 1107 1108 1122
f 1122 1108 1129
f 1134 1129 1111
f 1111 1129 1108
f 1134 1133 1129
f 1129 1133 1128
f 1132 1134 1106
f 1106 1134 1111
f 1106 1103 1132
f 1132 1103 1112
f 1087 1093 1097
f 1097 1093 1098
f 1098 1118 1099
f 1099 1118 1117
f 1098 1093 1118
f 1118 1093 1092
f 915 914 1039
f 1039 914 1037
f 918 944 919
f 919 944 943
f 950 949 973
f 973 949 974
f 949 952 974
f 974 952 968
f 956 955 1042
f 1042 955 965
f 950 973 918
f 918 973 944
f 915 1039 1040
f 1040 1039 1053
f 956 1042 919
f 919 1042 916
f 1040 955 991
f 991 955 954
f 914 952 1037
f 1037 952 951
f 1136 1137 1135
f 1135 1137 1138
f 1140 1141 1139
f 1139 1141 1142
f 1139 1142 1143
f 1143 1142 1144
f 1145 1146 1148
f 1148 1146 1147
f 854 1149 1025
f 1025 1149 1150
f 1151 1152 1140
f 1140 1152 1141
f 1154 1155 1153
f 1153 1155 1156
f 1067 1007 1158
f 1158 1007 1157
f 1159 1157 1041
f 1041 1157 1007
f 1161 1162 1160
f 1160 1162 1163
f 1164 1146 1152
f 1152 1146 1141
f 854 1067 1149
f 1149 1067 1158
f 1155 1154 1137
f 1137 1154 1165
f 1166 1164 1138
f 1138 1164 1152
f 1167 1161 1144
f 1144 1161 1168
f 1170 1171 1169
f 1169 1171 1172
f 1161 1160 1168
f 1168 1160 1173
f 1174 1143 1168
f 1168 1143 1144
f 1167 1144 1145
f 1145 1144 1142
f 1135 1175 1136
f 1136 1175 1176
f 1151 1177 1135
f 1135 1177 1175
f 1167 1145 1178
f 1178 1145 1148
f 1160 1163 1153
f 1153 1163 1150
f 1135 1138 1151
f 1151 1138 1152
f 1139 1179 1140
f 1140 1179 1180
f 1165 1166 1137
f 1137 1166 1138
f 1141 1146 1142
f 1142 1146 1145
f 1136 1176 1181
f 1181 1176 1182
f 1174 1170 1183
f 1183 1170 1169
f 1170 1173 1171
f 1171 1173 1156
f 1171 1181 1172
f 1172 1181 1182
f 1153 1156 1160
f 1160 1156 1173
f 1143 1174 1184
f 1184 1174 1183
f 1140 1180 1151
f 1151 1180 1177
f 1049 1048 1178
f 1178 1048 1162
f 1179 1139 1184
f 1184 1139 1143
f 1159 1147 1164
f 1164 1147 1146
f 1170 1174 1173
f 1173 1174 1168
f 1171 1156 1181
f 1181 1156 1155
f 1181 1155 1136
f 1136 1155 1137
f 1184 1183 1186
f 1186 1183 1185
f 1184 1186 1179
f 1179 1186 1187
f 1179 1187 1180
f 1180 1187 1188
f 1180 1188 1177
f 1177 1188 1189
f 1183 1169 1185
f 1185 1169 1190
f 1169 1172 1190
f 1190 1172 1191
f 1172 1182 1191
f 1191 1182 1192
f 1193 1194 1190
f 1190 1194 1185
f 1196 1197 1195
f 1195 1197 1198
f 1199 1200 1196
f 1196 1200 1197
f 1197 1200 1202
f 1202 1200 1201
f 1203 1204 1202
f 1202 1204 1205
f 1201 1206 1202
f 1202 1206 1203
f 1205 1198 1202
f 1202 1198 1197
f 1198 1207 1195
f 1195 1207 1208
f 1201 1200 1209
f 1209 1200 1199
f 1199 1187 1209
f 1209 1187 1186
f 1199 1210 1187
f 1187 1210 1188
f 1196 1211 1199
f 1199 1211 1210
f 1212 1211 1195
f 1195 1211 1196
f 1209 1194 1201
f 1201 1194 1206
f 1194 1209 1185
f 1185 1209 1186
f 1213 1212 1208
f 1208 1212 1195
f 1211 1212 1214
f 1214 1212 1215
f 1212 1213 1215
f 1215 1213 1216
f 1214 1215 1217
f 1217 1215 1218
f 1217 1219 1214
f 1214 1219 1220
f 1216 1221 1215
f 1215 1221 1218
f 1214 1220 1211
f 1211 1220 1210
f 1210 1220 1188
f 1188 1220 1189
f 1213 1208 1223
f 1223 1208 1222
f 1208 1207 1222
f 1222 1207 1224
f 1203 1206 1225
f 1225 1206 1194
f 1204 1203 1226
f 1226 1203 1225
f 1194 1193 1225
f 1225 1193 1227
f 1225 1227 1226
f 1226 1227 1228
f 1229 1230 1226
f 1226 1230 1204
f 1224 1230 1222
f 1222 1230 1229
f 1177 1189 1175
f 1175 1189 1231
f 1176 1232 1182
f 1182 1232 1192
f 1232 1176 1231
f 1231 1176 1175
f 1231 1219 1232
f 1232 1219 1233
f 1219 1217 1233
f 1233 1217 1234
f 1232 1233 1192
f 1192 1233 1235
f 1219 1231 1220
f 1220 1231 1189
f 1236 1191 1235
f 1235 1191 1192
f 1236 1193 1191
f 1191 1193 1190
f 1236 1237 1193
f 1193 1237 1227
f 1237 1236 1238
f 1238 1236 1235
f 1239 1237 1240
f 1240 1237 1238
f 1233 1234 1235
f 1235 1234 1238
f 1234 1241 1238
f 1238 1241 1240
f 1237 1239 1227
f 1227 1239 1228
f 1243 1228 1242
f 1242 1228 1239
f 1242 1245 1244
f 1244 1245 1246
f 1242 1239 1245
f 1245 1239 1240
f 1242 1244 1243
f 1243 1244 1223
f 1243 1223 1229
f 1229 1223 1222
f 1229 1226 1243
f 1243 1226 1228
f 1217 1218 1234
f 1234 1218 1241
f 1246 1241 1221
f 1221 1241 1218
f 1246 1245 1241
f 1241 1245 1240
f 1244 1246 1216
f 1216 1246 1221
f 1216 1213 1244
f 1244 1213 1223
f 1198 1205 1207
f 1207 1205 1224
f 1224 1205 1230
f 1230 1205 1204
f 1148 1147 966
f 966 1147 964
f 1149 1154 1150
f 1150 1154 1153
f 1158 1157 1165
f 1165 1157 1166
f 1157 1159 1166
f 1166 1159 1164
f 1163 1162 1056
f 1056 1162 1048
f 1158 1165 1149
f 1149 1165 1154
f 1178 1148 1049
f 1049 1148 966
f 1163 1056 1150
f 1150 1056 1025
f 1178 1162 1167
f 1167 1162 1161
f 1147 1159 964
f 964 1159 1041
f 999 1049 922
f 922 1049 966
f 999 797 985
f 985 797 800
f 797 796 800
f 800 796 801
f 796 997 801
f 801 997 986
f 1247 1248 1250
f 1250 1248 1249
f 1252 1253 1251
f 1251 1253 1254
f 1251 1254 1255
f 1255 1254 1256
f 1258 1259 1257
f 1257 1259 1260
f 1261 1262 1252
f 1252 1262 1253
f 1264 1265 1263
f 1263 1265 1266
f 1267 1268 855
f 855 1268 920
f 1269 1267 1026
f 1026 1267 855
f 1271 1272 1270
f 1270 1272 1273
f 1274 1258 1262
f 1262 1258 1253
f 1264 1275 1265
f 1265 1275 1249
f 1276 1274 1250
f 1250 1274 1262
f 1277 1271 1256
f 1256 1271 1278
f 1279 1280 1282
f 1282 1280 1281
f 1271 1270 1278
f 1278 1270 1283
f 1284 1255 1278
f 1278 1255 1256
f 1277 1256 1257
f 1257 1256 1254
f 1247 1285 1248
f 1248 1285 1286
f 1261 1287 1247
f 1247 1287 1285
f 1257 1260 1277
f 1277 1260 1288
f 1270 1273 1263
f 1263 1273 1289
f 1261 1247 1262
f 1262 1247 1250
f 1251 1290 1252
f 1252 1290 1291
f 1275 1276 1249
f 1249 1276 1250
f 1253 1258 1254
f 1254 1258 1257
f 1248 1286 1292
f 1292 1286 1293
f 1284 1280 1294
f 1294 1280 1279
f 1281 1280 1266
f 1266 1280 1283
f 1292 1293 1281
f 1281 1293 1282
f 1263 1266 1270
f 1270 1266 1283
f 1255 1284 1295
f 1295 1284 1294
f 1252 1291 1261
f 1261 1291 1287
f 1288 1070 1272
f 1272 1070 942
f 1290 1251 1295
f 1295 1251 1255
f 1269 1259 1274
f 1274 1259 1258
f 1280 1284 1283
f 1283 1284 1278
f 1281 1266 1292
f 1292 1266 1265
f 1292 1265 1248
f 1248 1265 1249
f 1295 1294 1297
f 1297 1294 1296
f 1295 1297 1290
f 1290 1297 1298
f 1290 1298 1291
f 1291 1298 1299
f 1291 1299 1287
f 1287 1299 1300
f 1294 1279 1296
f 1296 1279 1301
f 1279 1282 1301
f 1301 1282 1302
f 1302 1282 1303
f 1303 1282 1293
f 1304 1305 1301
f 1301 1305 1296
f 1307 1308 1306
f 1306 1308 1309
f 1310 1311 1307
f 1307 1311 1308
f 1308 1311 1313
f 1313 1311 1312
f 1314 1315 1313
f 1313 1315 1316
f 1312 1317 1313
f 1313 1317 1314
f 1316 1309 1313
f 1313 1309 1308
f 1318 1319 1309
f 1309 1319 1306
f 1311 1310 1312
f 1312 1310 1320
f 1310 1298 1320
f 1320 1298 1297
f 1310 1321 1298
f 1298 1321 1299
f 1307 1322 1310
f 1310 1322 1321
f 1322 1307 1323
f 1323 1307 1306
f 1312 1320 1317
f 1317 1320 1305
f 1305 1320 1296
f 1296 1320 1297
f 1319 1324 1306
f 1306 1324 1323
f 1325 1322 1326
f 1326 1322 1323
f 1324 1327 1323
f 1323 1327 1326
f 1328 1325 1329
f 1329 1325 1326
f 1325 1328 1331
f 1331 1328 1330
f 1327 1332 1326
f 1326 1332 1329
f 1322 1325 1321
f 1321 1325 1331
f 1321 1331 1299
f 1299 1331 1300
f 1324 1319 1334
f 1334 1319 1333
f 1319 1318 1333
f 1333 1318 1335
f 1314 1317 1336
f 1336 1317 1305
f 1315 1314 1337
f 1337 1314 1336
f 1305 1304 1336
f 1336 1304 1338
f 1337 1336 1339
f 1339 1336 1338
f 1337 1340 1315
f 1315 1340 1341
f 1335 1341 1333
f 1333 1341 1340
f 1287 1300 1285
f 1285 1300 1342
f 1286 1343 1293
f 1293 1343 1303
f 1343 1286 1342
f 1342 1286 1285
f 1342 1330 1343
f 1343 1330 1344
f 1330 1328 1344
f 1344 1328 1345
f 1343 1344 1303
f 1303 1344 1346
f 1342 1300 1330
f 1330 1300 1331
f 1347 1302 1346
f 1346 1302 1303
f 1347 1304 1302
f 1302 1304 1301
f 1348 1338 1347
f 1347 1338 1304
f 1348 1347 1349
f 1349 1347 1346
f 1350 1348 1351
f 1351 1348 1349
f 1344 1345 1346
f 1346 1345 1349
f 1345 1352 1349
f 1349 1352 1351
f 1348 1350 1338
f 1338 1350 1339
f 1354 1339 1353
f 1353 1339 1350
f 1353 1356 1355
f 1355 1356 1357
f 1353 1350 1356
f 1356 1350 1351
f 1353 1355 1354
f 1354 1355 1334
f 1354 1334 1340
f 1340 1334 1333
f 1340 1337 1354
f 1354 1337 1339
f 1328 1329 1345
f 1345 1329 1352
f 1357 1352 1332
f 1332 1352 1329
f 1357 1356 1352
f 1352 1356 1351
f 1357 1332 1355
f 1355 1332 1327
f 1327 1324 1355
f 1355 1324 1334
f 1309 1316 1318
f 1318 1316 1335
f 1335 1316 1341
f 1341 1316 1315
f 1259 1072 1260
f 1260 1072 1071
f 1358 1264 1289
f 1289 1264 1263
f 1268 1267 1275
f 1275 1267 1276
f 1267 1269 1276
f 1276 1269 1274
f 941 1273 942
f 942 1273 1272
f 1358 1268 1264
f 1264 1268 1275
f 1260 1071 1288
f 1288 1071 1070
f 1273 941 1289
f 1289 941 977
f 1272 1271 1288
f 1288 1271 1277
f 1259 1269 1072
f 1072 1269 1026
f 1360 1361 1359
f 1359 1361 1362
f 1364 1365 1363
f 1363 1365 1366
f 1363 1366 1367
f 1367 1366 1368
f 1370 1371 1369
f 1369 1371 1372
f 1373 1374 1376
f 1376 1374 1375
f 1377 1378 1364
f 1364 1378 1365
f 1379 1380 1382
f 1382 1380 1381
f 1383 1384 1386
f 1386 1384 1385
f 1387 1385 978
f 978 1385 1384
f 1388 1389 1391
f 1391 1389 1390
f 1378 1392 1365
f 1365 1392 1370
f 1374 1383 1375
f 1375 1383 1386
f 1380 1393 1381
f 1381 1393 1361
f 1394 1392 1362
f 1362 1392 1378
f 1389 1396 1395
f 1395 1396 1368
f 1398 1399 1397
f 1397 1399 1400
f 1388 1401 1389
f 1389 1401 1396
f 1402 1367 1396
f 1396 1367 1368
f 1395 1368 1369
f 1369 1368 1366
f 1359 1403 1360
f 1360 1403 1404
f 1377 1405 1359
f 1359 1405 1403
f 1369 1372 1395
f 1395 1372 1406
f 1379 1388 1376
f 1376 1388 1391
f 1359 1362 1377
f 1377 1362 1378
f 1363 1407 1364
f 1364 1407 1408
f 1393 1394 1361
f 1361 1394 1362
f 1365 1370 1366
f 1366 1370 1369
f 1360 1404 1409
f 1409 1404 1410
f 1402 1398 1411
f 1411 1398 1397
f 1399 1398 1382
f 1382 1398 1401
f 1409 1410 1399
f 1399 1410 1400
f 1388 1379 1401
f 1401 1379 1382
f 1367 1402 1412
f 1412 1402 1411
f 1364 1408 1377
f 1377 1408 1405
f 981 980 1406
f 1406 980 1390
f 1407 1363 1412
f 1412 1363 1367
f 1387 1371 1392
f 1392 1371 1370
f 1398 1402 1401
f 1401 1402 1396
f 1409 1399 1381
f 1381 1399 1382
f 1360 1409 1361
f 1361 1409 1381
f 1412 1411 1414
f 1414 1411 1413
f 1412 1414 1407
f 1407 1414 1415
f 1407 1415 1408
f 1408 1415 1416
f 1408 1416 1405
f 1405 1416 1417
f 1411 1397 1413
f 1413 1397 1418
f 1397 1400 1418
f 1418 1400 1419
f 1419 1400 1420
f 1420 1400 1410
f 1422 1413 1421
f 1421 1413 1418
f 1423 1424 1426
f 1426 1424 1425
f 1427 1428 1424
f 1424 1428 1425
f 1425 1428 1430
f 1430 1428 1429
f 1430 1431 1433
f 1433 1431 1432
f 1429 1434 1430
f 1430 1434 1431
f 1433 1426 1430
f 1430 1426 1425
f 1426 1435 1423
f 1423 1435 1436
f 1428 1427 1429
f 1429 1427 1437
f 1427 1415 1437
f 1437 1415 1414
f 1427 1438 1415
f 1415 1438 1416
f 1439 1438 1424
f 1424 1438 1427
f 1440 1439 1423
f 1423 1439 1424
f 1429 1437 1434
f 1434 1437 1422
f 1422 1437 1413
f 1413 1437 1414
f 1441 1440 1436
f 1436 1440 1423
f 1442 1439 1443
f 1443 1439 1440
f 1441 1444 1440
f 1440 1444 1443
f 1445 1442 1446
f 1446 1442 1443
f 1442 1445 1448
f 1448 1445 1447
f 1444 1449 1443
f 1443 1449 1446
f 1439 1442 1438
f 1438 1442 1448
f 1438 1448 1416
f 1416 1448 1417
f 1436 1450 1441
f 1441 1450 1451
f 1436 1435 1450
f 1450 1435 1452
f 1431 1434 1453
f 1453 1434 1422
f 1431 1453 1432
f 1432 1453 1454
f 1453 1422 1455
f 1455 1422 1421
f 1454 1453 1456
f 1456 1453 1455
f 1457 1458 1454
f 1454 1458 1432
f 1452 1458 1450
f 1450 1458 1457
f 1405 1417 1403
f 1403 1417 1459
f 1404 1460 1410
f 1410 1460 1420
f 1459 1460 1403
f 1403 1460 1404
f 1447 1461 1459
f 1459 1461 1460
f 1445 1462 1447
f 1447 1462 1461
f 1460 1461 1420
f 1420 1461 1463
f 1459 1417 1447
f 1447 1417 1448
f 1464 1419 1463
f 1463 1419 1420
f 1419 1464 1418
f 1418 1464 1421
f 1464 1465 1421
f 1421 1465 1455
f 1465 1464 1466
f 1466 1464 1463
f 1467 1465 1468
f 1468 1465 1466
f 1461 1462 1463
f 1463 1462 1466
f 1462 1469 1466
f 1466 1469 1468
f 1465 1467 1455
f 1455 1467 1456
f 1471 1456 1470
f 1470 1456 1467
f 1470 1473 1472
f 1472 1473 1474
f 1470 1467 1473
f 1473 1467 1468
f 1470 1472 1471
f 1471 1472 1451
f 1471 1451 1457
f 1457 1451 1450
f 1457 1454 1471
f 1471 1454 1456
f 1462 1445 1469
f 1469 1445 1446
f 1474 1469 1449
f 1449 1469 1446
f 1474 1473 1469
f 1469 1473 1468
f 1472 1474 1444
f 1444 1474 1449
f 1444 1441 1472
f 1472 1441 1451
f 1426 1433 1435
f 1435 1433 1452
f 1452 1433 1458
f 1458 1433 1432
f 1371 940 1372
f 1372 940 1068
f 1376 1375 1379
f 1379 1375 1380
f 1393 1386 1394
f 1394 1386 1385
f 1385 1387 1394
f 1394 1387 1392
f 1475 1373 1391
f 1391 1373 1376
f 1375 1386 1380
f 1380 1386 1393
f 1372 1068 1406
f 1406 1068 981
f 1406 1390 1395
f 1395 1390 1389
f 1371 1387 940
f 940 1387 978
f 883 807 1476
f 1476 807 1477
f 1046 904 1479
f 1479 904 1478
f 904 903 1478
f 1478 903 1480
f 1030 1481 1028
f 1028 1481 1482
f 810 1046 1483
f 1483 1046 1479
f 1066 883 1484
f 1484 883 1476
f 807 810 1477
f 1477 810 1483
f 1485 1029 1484
f 1484 1029 1066
f 1028 1482 903
f 903 1482 1480
f 1481 1030 1485
f 1485 1030 1029
f 1484 1486 1485
f 1485 1486 1487
f 1485 1487 1481
f 1481 1487 1488
f 1481 1488 1482
f 1482 1488 1489
f 1482 1489 1480
f 1480 1489 1490
f 1484 1476 1486
f 1486 1476 1491
f 1476 1477 1491
f 1491 1477 1492
f 1477 1483 1492
f 1492 1483 1493
f 1495 1486 1494
f 1494 1486 1491
f 1497 1498 1496
f 1496 1498 1499
f 1500 1501 1497
f 1497 1501 1498
f 1502 1503 1501
f 1501 1503 1498
f 1502 1504 1503
f 1503 1504 1505
f 1506 1499 1503
f 1503 1499 1498
f 1499 1506 1507
f 1507 1506 1508
f 1507 1509 1499
f 1499 1509 1496
f 1502 1501 1510
f 1510 1501 1500
f 1500 1488 1510
f 1510 1488 1487
f 1500 1511 1488
f 1488 1511 1489
f 1497 1512 1500
f 1500 1512 1511
f 1512 1497 1513
f 1513 1497 1496
f 1502 1510 1504
f 1504 1510 1495
f 1495 1510 1486
f 1486 1510 1487
f 1509 1514 1496
f 1496 1514 1513
f 1515 1512 1516
f 1516 1512 1513
f 1514 1517 1513
f 1513 1517 1516
f 1518 1515 1519
f 1519 1515 1516
f 1515 1518 1521
f 1521 1518 1520
f 1517 1522 1516
f 1516 1522 1519
f 1512 1515 1511
f 1511 1515 1521
f 1511 1521 1489
f 1489 1521 1490
f 1514 1509 1524
f 1524 1509 1523
f 1509 1507 1523
f 1523 1507 1508
f 1505 1504 1525
f 1525 1504 1495
f 1526 1505 1527
f 1527 1505 1525
f 1525 1495 1528
f 1528 1495 1494
f 1527 1525 1529
f 1529 1525 1528
f 1527 1530 1526
f 1526 1530 1531
f 1508 1531 1523
f 1523 1531 1530
f 1506 1503 1526
f 1526 1503 1505
f 1508 1506 1531
f 1531 1506 1526
f 1478 1480 1532
f 1532 1480 1490
f 1483 1479 1493
f 1493 1479 1533
f 1532 1533 1478
f 1478 1533 1479
f 1520 1534 1532
f 1532 1534 1533
f 1518 1535 1520
f 1520 1535 1534
f 1533 1534 1493
f 1493 1534 1536
f 1532 1490 1520
f 1520 1490 1521
f 1537 1492 1536
f 1536 1492 1493
f 1492 1537 1491
f 1491 1537 1494
f 1537 1538 1494
f 1494 1538 1528
f 1538 1537 1539
f 1539 1537 1536
f 1540 1538 1541
f 1541 1538 1539
f 1534 1535 1536
f 1536 1535 1539
f 1535 1542 1539
f 1539 1542 1541
f 1538 1540 1528
f 1528 1540 1529
f 1544 1529 1543
f 1543 1529 1540
f 1545 1543 1547
f 1547 1543 1546
f 1543 1540 1546
f 1546 1540 1541
f 1543 1545 1544
f 1544 1545 1524
f 1544 1524 1530
f 1530 1524 1523
f 1530 1527 1544
f 1544 1527 1529
f 1535 1518 1542
f 1542 1518 1519
f 1547 1542 1522
f 1522 1542 1519
f 1547 1546 1542
f 1542 1546 1541
f 1545 1547 1517
f 1517 1547 1522
f 1517 1514 1545
f 1545 1514 1524
f 997 995 986
f 986 995 987
f 987 995 988
f 988 995 971
f 976 1358 977
f 977 1358 1289
f 854 853 1067
f 1067 853 1050
f 1055 985 1069
f 1069 985 962
f 1068 961 981
f 981 961 862
f 1268 1358 920
f 920 1358 976
f 920 976 921
f 921 976 975
f 927 1054 850
f 850 1054 851
f 882 881 1057
f 1057 881 1548
f 1548 1374 1057
f 1057 1374 1373
f 1383 1374 1549
f 1549 1374 1548
f 1549 1548 1550
f 1550 1548 881
f 1550 881 1551
f 1551 881 880
f 933 1552 879
f 879 1552 880
f 1551 880 875
f 875 880 1552
f 1553 1551 878
f 878 1551 875
f 1551 1553 1550
f 1550 1553 1554
f 1550 1554 1549
f 1549 1554 1555
f 978 1384 975
f 975 1384 1555
f 967 849 1556
f 1556 849 852
f 875 1552 876
f 876 1552 933
f 961 939 962
f 962 939 1069
f 1555 1054 975
f 975 1054 921
f 1555 1384 1549
f 1549 1384 1383
f 1391 1390 1475
f 1475 1390 980
f 1373 1475 1057
f 1057 1475 980
f 851 1054 1554
f 1554 1054 1555
f 1554 1553 851
f 851 1553 852
f 878 1556 1553
f 1553 1556 852
f 1556 878 967
f 967 878 877
f 1023 1020 877
f 877 1020 967
f 909 811 1034
f 806 779 873
f 873 779 840
f 805 780 806
f 806 780 779
f 1043 893 1044
f 1044 893 892
f 873 840 847
f 847 840 842
f 840 839 842
f 842 839 843
f 839 791 843
f 843 791 908
f 791 790 908
f 908 790 792
f 809 789 810
f 810 789 1046
f 793 790 809
f 809 790 789
f 809 808 793
f 793 808 1009
f 808 884 1009
f 1009 884 1010
f 1065 1015 884
f 884 1015 1010
f 1032 868 1065
f 1065 868 1015
f 1031 822 1032
f 1032 822 868
f 1031 1027 822
f 822 1027 785
f 1045 905 1046
f 1046 905 904
f 788 781 1019
f 1019 781 894
f 781 780 894
f 894 780 892
f 780 805 892
f 892 805 1044
f 805 804 1044
f 1044 804 891
f 804 1064 891
f 891 1064 888
f 1064 1021 888
f 888 1021 1033
f 1021 1020 1033
f 1033 1020 1034
f 1020 1023 1034
f 1034 1023 909
f 1023 1022 909
f 909 1022 910
f 1043 815 893
f 893 815 819
f 819 815 820
f 820 815 818
f 870 869 818
f 818 869 820
f 1014 1011 870
f 870 1011 869
f 969 972 1014
f 1014 972 1011
f 1036 1063 1022
f 1022 1063 910
f 1035 833 1036
f 1036 833 1063
f 1035 932 979
f 979 932 963
f 834 979 982
f 982 979 958
f 833 1035 834
f 834 1035 979
f 982 863 834
f 834 863 830
f 864 900 831
f 831 900 857
f 990 993 864
f 864 993 900
f 989 994 990
f 990 994 993
f 970 1058 989
f 989 1058 994
f 969 1018 970
f 970 1018 1058
f 1027 902 785
f 785 902 786
f 902 905 786
f 786 905 1019
f 905 1045 1019
f 1019 1045 788
f 788 1045 787
f 787 1045 789
