o hand_left
v 0.027815 0.202102 1.050547
v 0.028318 0.212054 1.046140
v 0.038172 0.208367 1.049548
v 0.036793 0.197735 1.052872
v 0.041976 0.228762 1.038324
v 0.047610 0.230820 1.027303
v 0.058271 0.222527 1.035511
v 0.051891 0.223158 1.043955
v 0.043726 0.193047 1.053499
v 0.045520 0.205061 1.052015
v 0.047007 0.190263 1.050217
v 0.040273 0.176254 1.047588
v 0.039836 0.181603 1.052680
v 0.036064 0.168035 1.049465
v 0.035058 0.175208 1.037382
v 0.028127 0.162674 1.046038
v 0.004320 0.180569 1.035265
v -0.007013 0.187353 1.038982
v -0.007810 0.173715 1.051641
v 0.004541 0.168707 1.047178
v -0.020689 0.190316 1.055926
v -0.013568 0.180693 1.054103
v -0.013756 0.193299 1.040869
v -0.019876 0.201346 1.043232
v 0.013744 0.211348 1.049371
v 0.013105 0.220424 1.044022
v 0.017833 0.216580 1.043890
v 0.018484 0.208172 1.048774
v 0.058514 0.193007 1.044134
v 0.049059 0.188878 1.034141
v 0.047442 0.186789 1.042058
v 0.057199 0.195294 1.049184
v 0.008447 0.248413 1.035711
v 0.005959 0.253673 1.023358
v 0.010363 0.250842 1.020541
v 0.011300 0.246231 1.032305
v 0.030201 0.240380 1.017685
v 0.023684 0.243130 1.010622
v 0.025937 0.238698 0.997681
v 0.031644 0.232795 1.003159
v 0.039149 0.235982 1.023220
v 0.041032 0.230293 1.010652
v 0.049806 0.225072 1.017130
v 0.061389 0.217740 1.027874
v -0.005515 0.257916 1.027583
v -0.005043 0.255134 1.037507
v 0.048165 0.180906 1.083364
v 0.043066 0.183870 1.084824
v 0.041643 0.182153 1.082359
v 0.046802 0.179154 1.081411
v -0.023811 0.249027 1.029520
v -0.028765 0.242163 1.023934
v -0.028793 0.248421 1.020098
v -0.022638 0.254344 1.024175
v -0.025363 0.242007 1.036560
v -0.028033 0.233587 1.029399
v 0.052139 0.173914 1.093536
v 0.053396 0.176037 1.088887
v 0.051369 0.171620 1.087303
v 0.049240 0.169081 1.091735
v 0.035647 0.187816 1.055067
v 0.028278 0.194050 1.055625
v 0.030799 0.175088 1.062754
v 0.029318 0.181486 1.061027
v 0.034372 0.178738 1.056944
v 0.034949 0.173277 1.058784
v 0.010343 0.195285 1.064863
v 0.010534 0.203916 1.057068
v 0.015624 0.199649 1.056209
v 0.017194 0.189986 1.064401
v 0.001086 0.213171 1.062447
v 0.001314 0.203654 1.069309
v -0.004156 0.210071 1.071364
v -0.002703 0.216226 1.066823
v 0.003660 0.185647 1.078621
v 0.003301 0.181252 1.080275
v 0.002399 0.184849 1.082841
v 0.001428 0.188743 1.079478
v -0.029115 0.253857 1.015449
v -0.021108 0.258798 1.018506
v -0.032051 0.208242 1.062926
v -0.031508 0.219483 1.065091
v -0.033142 0.211400 1.076328
v -0.034110 0.200391 1.071005
v -0.027896 0.233474 1.018193
v -0.030248 0.240071 1.014552
v 0.047711 0.173771 1.098094
v 0.044835 0.169390 1.096439
v 0.044561 0.215753 1.009449
v 0.059583 0.209406 1.022487
v 0.033284 0.221755 1.001231
v 0.025240 0.225915 0.995817
v 0.021067 0.230762 0.990021
v 0.024278 0.181091 1.065544
v 0.021109 0.200033 1.053613
v 0.009909 0.214513 1.050700
v -0.010162 0.232230 1.066653
v -0.009205 0.240065 1.059771
v -0.001107 0.232840 1.058906
v -0.004009 0.227129 1.064782
v -0.026255 0.226182 1.070602
v -0.018421 0.226465 1.073292
v -0.019833 0.220285 1.078690
v -0.027823 0.218737 1.078279
v 0.063410 0.193542 1.038086
v 0.051218 0.192139 1.027221
v -0.015548 0.254260 1.033820
v -0.013409 0.257718 1.027061
v -0.013793 0.261465 1.019337
v 0.012065 0.234277 1.039706
v 0.013353 0.244769 1.030000
v 0.016949 0.242453 1.028959
v 0.013679 0.231647 1.038547
v 0.028733 0.223908 1.042021
v 0.030563 0.234558 1.033622
v 0.038881 0.220120 1.046922
v 0.016136 0.248172 1.015390
v 0.009988 0.256740 1.011977
v 0.016065 0.252519 1.006861
v 0.001585 0.260269 1.015826
v -0.006739 0.262170 1.018644
v -0.033859 0.245143 1.008644
v 0.020656 0.247154 1.002076
v 0.058721 0.218144 1.047753
v 0.065258 0.214417 1.051063
v 0.060145 0.209378 1.054430
v 0.053237 0.212537 1.051967
v 0.034825 0.162421 1.055237
v 0.037017 0.168739 1.056855
v 0.038021 0.174308 1.052381
v 0.004594 0.243600 1.045630
v -0.006637 0.249663 1.046832
v 0.026106 0.175203 1.066970
v 0.045774 0.165487 1.087458
v 0.048503 0.168529 1.082861
v 0.039027 0.163466 1.064640
v 0.035905 0.158803 1.069425
v 0.021649 0.171975 1.072436
v 0.025478 0.175774 1.067527
v 0.025356 0.176259 1.068672
v 0.022201 0.174884 1.074635
v -0.003437 0.192291 1.083964
v -0.003851 0.195753 1.080654
v 0.007209 0.160982 1.061780
v 0.017018 0.154022 1.054205
v 0.016195 0.163471 1.043361
v 0.005060 0.200351 1.066637
v 0.004287 0.193044 1.073800
v 0.001258 0.195707 1.074938
v 0.021483 0.179715 1.068938
v 0.021710 0.174422 1.071205
v 0.018596 0.176695 1.072419
v 0.017542 0.183053 1.069819
v -0.030333 0.227659 1.054340
v -0.024516 0.235338 1.061279
v 0.051876 0.178294 1.085041
v 0.050379 0.175258 1.083243
v 0.005407 0.208733 1.058966
v 0.015924 0.176626 1.034132
v 0.006121 0.218117 1.052556
v -0.021061 0.187546 1.078271
v -0.017797 0.193862 1.083854
v -0.015052 0.192480 1.087612
v -0.016707 0.186837 1.086061
v 0.030356 0.178951 1.087443
v 0.033721 0.182082 1.083566
v 0.036460 0.182835 1.086022
v 0.033574 0.180649 1.090912
v 0.029702 0.175866 1.063268
v 0.034533 0.172973 1.060426
v 0.035179 0.175113 1.062762
v 0.030038 0.176775 1.066001
v 0.036759 0.168221 1.058643
v 0.038464 0.169505 1.062070
v 0.030461 0.173666 1.091527
v 0.035108 0.167918 1.093631
v 0.024122 0.161407 1.077948
v 0.022129 0.168935 1.079510
v -0.020381 0.210674 1.030773
v -0.026334 0.218933 1.035580
v -0.026308 0.209708 1.048061
v -0.027695 0.199929 1.060483
v -0.027090 0.190675 1.071875
v -0.021942 0.180790 1.066601
v -0.029924 0.216896 1.050528
v 0.014643 0.166482 1.070774
v 0.016591 0.159311 1.068458
v 0.011476 0.162445 1.068268
v 0.002126 0.223115 1.056543
v 0.048150 0.173128 1.079293
v 0.004076 0.217644 0.994289
v -0.008531 0.219773 0.998206
v -0.005405 0.213735 1.003936
v 0.009118 0.211724 1.000113
v 0.039529 0.182009 1.079635
v 0.044974 0.178697 1.077570
v -0.007801 0.199800 1.084097
v -0.007192 0.195689 1.086926
v -0.010134 0.196248 1.088499
v -0.011069 0.201497 1.088046
v -0.028574 0.224367 1.037206
v -0.029528 0.209177 1.085548
v -0.030894 0.198315 1.079974
v -0.026249 0.226462 1.024595
v -0.021592 0.219064 1.020027
v -0.022998 0.225339 1.012558
v -0.010163 0.171306 1.068344
v -0.015163 0.203796 1.029203
v -0.016477 0.213549 1.018216
v -0.017911 0.220807 1.009212
v -0.019911 0.225962 1.002848
v -0.025187 0.230472 1.007218
v 0.040735 0.165833 1.091807
v 0.038746 0.172089 1.098794
v -0.029046 0.235532 1.000640
v -0.022442 0.230616 0.996225
v -0.009485 0.208015 1.015630
v 0.000094 0.202311 1.013135
v -0.008285 0.198926 1.026483
v 0.001177 0.192375 1.024743
v -0.006838 0.162780 1.061434
v 0.043252 0.189208 1.102647
v 0.037518 0.180458 1.099046
v 0.036062 0.183223 1.093985
v 0.040589 0.191136 1.099753
v 0.034104 0.176847 1.095615
v 0.041622 0.176591 1.100489
v 0.015821 0.188454 1.023004
v 0.018088 0.172366 1.073525
v 0.017814 0.200586 1.010738
v 0.033617 0.183409 1.026176
v 0.035997 0.193980 1.017887
v 0.021936 0.213352 0.998402
v 0.035299 0.206350 1.006614
v 0.012336 0.224841 0.987981
v 0.015640 0.218784 0.993604
v 0.049220 0.201601 1.016754
v 0.048994 0.189938 1.086962
v 0.043531 0.191492 1.089097
v 0.001235 0.222860 0.988285
v 0.046743 0.215645 1.049899
v 0.005216 0.231057 1.049713
v 0.007986 0.226808 1.047024
v -0.008266 0.244144 1.054922
v 0.001482 0.237470 1.052985
v 0.053790 0.187469 1.088215
v 0.001456 0.179798 1.081681
v 0.001774 0.181294 1.082041
v 0.064659 0.219007 1.040982
v 0.069442 0.215808 1.044695
v 0.072573 0.205241 1.037165
v 0.072781 0.211871 1.039978
v 0.067879 0.214748 1.034095
v 0.067322 0.207781 1.030468
v 0.010729 0.236221 1.041132
v 0.008342 0.238603 1.043320
v -0.027884 0.235606 1.045111
v -0.021894 0.242391 1.052546
v 0.035357 0.162317 1.059157
v 0.028439 0.156845 1.055718
v 0.030728 0.157357 1.061635
v 0.029255 0.157291 1.072621
v 0.017407 0.170084 1.073118
v 0.018316 0.167286 1.073370
v 0.023040 0.238439 1.031536
v 0.019180 0.227560 1.039134
v 0.050637 0.203600 1.052571
v 0.056812 0.201829 1.054175
v 0.011329 0.188217 1.070354
v -0.002806 0.169894 1.077488
v 0.000717 0.163617 1.071245
v 0.011360 0.180822 1.075068
v 0.056103 0.185120 1.096089
v 0.055950 0.186246 1.091230
v 0.024212 0.155579 1.064546
v -0.003622 0.202221 1.077374
v -0.007249 0.173912 1.076877
v -0.002273 0.175055 1.081603
v -0.025915 0.216065 1.083189
v -0.010708 0.225576 0.991712
v 0.037880 0.185290 1.088787
v 0.039841 0.191840 1.092991
v 0.046713 0.186571 1.103203
v 0.052041 0.184071 1.100832
v -0.017751 0.248166 1.043972
v 0.009914 0.223693 1.045658
v 0.060418 0.199520 1.026550
v 0.068570 0.198609 1.036259
v 0.010535 0.176647 1.075976
v -0.024029 0.193689 1.080894
v -0.017629 0.179020 1.076359
v -0.013057 0.178616 1.085494
v -0.005919 0.175671 1.085243
v 0.000723 0.177902 1.085110
v 0.048854 0.192462 1.103757
v 0.053774 0.189795 1.101318
v 0.057356 0.189882 1.096141
v 0.056892 0.190139 1.091695
v 0.053831 0.190727 1.088732
v 0.045108 0.195297 1.103092
v 0.042585 0.196583 1.100166
v 0.040751 0.194968 1.094280
v 0.045818 0.200366 1.101497
v 0.051338 0.201194 1.102063
v 0.058930 0.202541 1.089717
v 0.058898 0.198031 1.093799
v 0.058647 0.200778 1.094562
v 0.058624 0.205078 1.091757
v 0.058480 0.210155 1.090275
v 0.059024 0.207953 1.087589
v 0.056219 0.199937 1.098692
v 0.055951 0.206182 1.095480
v 0.052396 0.207376 1.097524
v 0.053036 0.212503 1.095101
v 0.056295 0.211681 1.093429
v 0.053009 0.203210 1.099926
v 0.056246 0.197544 1.100095
v 0.057839 0.212482 1.087456
v 0.058171 0.213092 1.089867
v 0.056017 0.214502 1.091972
v 0.055060 0.216131 1.089564
v 0.057091 0.194084 1.089988
v 0.057991 0.201814 1.087292
v 0.056598 0.207563 1.085531
v 0.055639 0.212098 1.085710
v 0.054397 0.202836 1.085287
v 0.053716 0.207508 1.084743
v 0.052442 0.211339 1.085144
v 0.050218 0.204157 1.085052
v 0.050522 0.208120 1.085055
v 0.049416 0.193956 1.087849
v 0.053429 0.192270 1.087912
v 0.050363 0.210667 1.084831
v 0.053212 0.216175 1.088361
v 0.048953 0.206516 1.098852
v 0.049876 0.212481 1.094759
v 0.046576 0.206505 1.097978
v 0.047531 0.212577 1.094406
v 0.051394 0.216313 1.092815
v 0.053441 0.214920 1.093377
v 0.048729 0.191763 1.088017
v 0.043138 0.193553 1.090540
v 0.043774 0.195615 1.090559
v 0.045842 0.205315 1.087229
v 0.041617 0.197747 1.093903
v 0.043222 0.200977 1.098350
v 0.044740 0.207112 1.095446
v 0.043843 0.206682 1.091982
v 0.046001 0.211643 1.092507
v 0.045807 0.210524 1.090195
v 0.047331 0.209337 1.086686
v 0.047881 0.214262 1.089882
v 0.049585 0.215817 1.091721
v 0.050651 0.214287 1.087179
v 0.047046 0.212816 1.088927
v 0.049191 0.212121 1.086784
v 0.025773 0.185620 1.094696
v 0.020447 0.188996 1.096196
v 0.019363 0.185281 1.094508
v 0.023862 0.182422 1.093277
v 0.028223 0.176315 1.105229
v 0.029889 0.179428 1.099843
v 0.027666 0.174341 1.098363
v 0.024280 0.171259 1.103732
v 0.022129 0.176456 1.109591
v 0.017990 0.171936 1.107101
v 0.021192 0.167674 1.099305
v 0.025008 0.171286 1.094334
v 0.016298 0.167419 1.076244
v 0.011777 0.163560 1.078960
v 0.006120 0.181638 1.079687
v 0.003436 0.181152 1.082076
v 0.028355 0.182851 1.096201
v 0.026619 0.178595 1.094803
v 0.010203 0.185607 1.096818
v 0.014536 0.186593 1.093425
v 0.015189 0.187354 1.096308
v 0.011717 0.186402 1.100598
v 0.016304 0.175465 1.074740
v 0.010893 0.178168 1.077238
v 0.017356 0.171862 1.074896
v 0.007771 0.181135 1.101276
v 0.008680 0.174870 1.104086
v -0.000025 0.169468 1.086150
v -0.000557 0.175537 1.086628
v 0.025577 0.175833 1.091518
v 0.019886 0.184756 1.091510
v 0.023777 0.181135 1.090233
v 0.014173 0.169030 1.101986
v 0.012557 0.178084 1.108622
v 0.020474 0.196465 1.112320
v 0.013925 0.187314 1.108128
v 0.014032 0.190030 1.103595
v 0.019493 0.199601 1.108439
v 0.010770 0.183294 1.105315
v 0.016528 0.182526 1.110637
v 0.030288 0.198547 1.099255
v 0.024554 0.201402 1.100653
v 0.033881 0.195888 1.100677
v 0.005368 0.164377 1.082085
v 0.034117 0.189106 1.108680
v 0.035327 0.192754 1.103262
v 0.016026 0.190658 1.098799
v 0.020802 0.201829 1.104156
v 0.023221 0.193199 1.114107
v 0.028721 0.188232 1.112804
v 0.026790 0.198387 1.115230
v 0.031875 0.194748 1.114125
v 0.036713 0.194838 1.109901
v 0.036862 0.196753 1.104466
v 0.034653 0.198641 1.101615
v 0.024053 0.201381 1.113669
v 0.022322 0.203843 1.109915
v 0.022665 0.203943 1.104873
v 0.026627 0.208545 1.111863
v 0.030561 0.207218 1.114255
v 0.044312 0.213071 1.102921
v 0.042403 0.207706 1.105067
v 0.041889 0.208962 1.107335
v 0.043470 0.213968 1.105482
v 0.040606 0.203087 1.108960
v 0.040205 0.205391 1.109850
v 0.036476 0.205996 1.112770
v 0.038287 0.211215 1.109745
v 0.033820 0.212754 1.111031
v 0.035968 0.217940 1.109542
v 0.040544 0.216682 1.108543
v 0.033683 0.208760 1.113140
v 0.043849 0.217559 1.104854
v 0.044043 0.218774 1.102558
v 0.035919 0.203159 1.114209
v 0.038935 0.199675 1.104554
v 0.041904 0.207558 1.101929
v 0.043106 0.213772 1.099884
v 0.042044 0.219931 1.100505
v 0.039298 0.209053 1.098873
v 0.040593 0.214892 1.098064
v 0.039596 0.219743 1.099280
v 0.035228 0.211055 1.097226
v 0.036748 0.216619 1.097287
v 0.031397 0.201719 1.099663
v 0.035893 0.200097 1.100821
v 0.037507 0.218905 1.098356
v 0.041648 0.221926 1.105347
v 0.039880 0.222836 1.102614
v 0.041630 0.220433 1.106486
v 0.031731 0.213410 1.110865
v 0.034289 0.218924 1.108396
v 0.029509 0.214465 1.109254
v 0.032939 0.220190 1.106770
v 0.037200 0.222445 1.106902
v 0.038398 0.221500 1.107662
v 0.030652 0.200438 1.100766
v 0.025492 0.202794 1.101970
v 0.026202 0.203909 1.100958
v 0.030566 0.213262 1.099027
v 0.023444 0.205823 1.104377
v 0.024473 0.208417 1.108661
v 0.027839 0.214645 1.106854
v 0.028006 0.214721 1.102771
v 0.031267 0.220606 1.105393
v 0.030475 0.218919 1.102691
v 0.033004 0.217875 1.098643
v 0.034724 0.223466 1.103834
v 0.036253 0.223267 1.105639
v 0.038220 0.222310 1.101210
v 0.033176 0.221711 1.101957
v 0.035885 0.220767 1.099607
v 0.010293 0.195045 1.101415
v 0.005416 0.198150 1.102379
v 0.004100 0.195901 1.100537
v 0.008599 0.192482 1.099912
v 0.011152 0.185789 1.110420
v 0.013528 0.188398 1.106830
v 0.011306 0.184718 1.104581
v 0.008185 0.181147 1.107368
v 0.007300 0.187245 1.114495
v 0.002891 0.181153 1.110732
v 0.005331 0.178003 1.103564
v 0.009309 0.182157 1.101576
v 0.002645 0.178984 1.088959
v -0.002291 0.175616 1.091530
v 0.012717 0.191738 1.103528
v 0.010918 0.188925 1.101694
v -0.003445 0.196672 1.103417
v 0.000714 0.197524 1.100708
v -0.000301 0.197242 1.103472
v -0.002995 0.195917 1.106900
v 0.002762 0.188548 1.085024
v -0.001951 0.192206 1.086112
v 0.004223 0.184201 1.086825
v -0.006216 0.191556 1.106848
v -0.005847 0.184306 1.108327
v -0.012851 0.185142 1.095104
v -0.012043 0.191035 1.093608
v 0.010080 0.186803 1.099488
v 0.005122 0.195872 1.097983
v 0.008996 0.191880 1.097600
v -0.000725 0.179134 1.105896
v -0.002100 0.186216 1.112707
v 0.007680 0.205455 1.120990
v -0.001607 0.194327 1.113562
v -0.001371 0.198179 1.108929
v 0.006563 0.208497 1.117805
v -0.004024 0.192079 1.111134
v 0.001413 0.189993 1.115691
v 0.016490 0.206998 1.108084
v 0.011578 0.209230 1.109490
v 0.018588 0.203074 1.109289
v -0.008899 0.177564 1.093908
v -0.008322 0.194936 1.090242
v 0.019211 0.198707 1.115662
v 0.019652 0.200731 1.111678
v 0.000930 0.199098 1.105317
v 0.007562 0.210017 1.113519
v 0.010225 0.201280 1.122063
v 0.014968 0.197645 1.119901
v 0.013088 0.205989 1.123532
v 0.017807 0.202296 1.121310
v 0.021832 0.202564 1.116953
v 0.021688 0.204253 1.112587
v 0.020286 0.206357 1.110078
v 0.010438 0.210057 1.121952
v 0.009338 0.212366 1.118805
v 0.009120 0.211217 1.113760
v 0.012369 0.214262 1.122111
v 0.016994 0.212305 1.124388
v 0.030257 0.220571 1.116947
v 0.027590 0.215218 1.116706
v 0.027166 0.215435 1.117860
v 0.029995 0.220688 1.118678
v 0.024879 0.209136 1.118395
v 0.025040 0.210926 1.119273
v 0.022328 0.211019 1.122151
v 0.024963 0.217063 1.122428
v 0.019328 0.219120 1.123442
v 0.022442 0.223623 1.123461
v 0.027827 0.222049 1.122824
v 0.018843 0.213468 1.123769
v 0.030787 0.223829 1.119532
v 0.032216 0.224219 1.118242
v 0.021293 0.208659 1.122491
v 0.024479 0.208459 1.113521
v 0.027572 0.215429 1.113700
v 0.030270 0.220880 1.113723
v 0.030611 0.225197 1.115043
v 0.025258 0.216925 1.110979
v 0.027774 0.221761 1.111904
v 0.028157 0.225614 1.113217
v 0.022464 0.218585 1.110036
v 0.024727 0.222805 1.111281
v 0.018046 0.210236 1.109100
v 0.021809 0.209020 1.110404
v 0.025871 0.225479 1.112658
v 0.029652 0.226983 1.121271
v 0.027560 0.228930 1.118098
v 0.029026 0.225392 1.121692
v 0.017465 0.219357 1.123389
v 0.020869 0.225410 1.123274
v 0.015392 0.220412 1.121695
v 0.018925 0.226319 1.121558
v 0.024726 0.227757 1.122973
v 0.025201 0.226623 1.123122
v 0.016982 0.208407 1.108991
v 0.012350 0.210293 1.110258
v 0.013549 0.211938 1.110214
v 0.018375 0.220931 1.111149
v 0.010354 0.213203 1.113580
v 0.011379 0.216114 1.118884
v 0.014747 0.221361 1.118542
v 0.015595 0.222040 1.114793
v 0.018105 0.226445 1.118833
v 0.018191 0.225394 1.116127
v 0.021118 0.224797 1.112152
v 0.021845 0.228422 1.118275
v 0.023055 0.228844 1.121029
v 0.025587 0.228502 1.115569
v 0.021030 0.227548 1.116002
v 0.023854 0.227438 1.113958
v -0.005483 0.194622 1.087977
v -0.000339 0.211375 1.102867
v -0.003567 0.214310 1.103390
v -0.003985 0.213655 1.103436
v -0.001109 0.210416 1.101832
v -0.001911 0.201875 1.109354
v 0.000940 0.204600 1.106511
v -0.001103 0.201587 1.104567
v -0.004148 0.199150 1.107093
v -0.006644 0.202428 1.111888
v -0.008857 0.200790 1.109828
v -0.006761 0.198320 1.103751
v -0.003372 0.200388 1.101259
v -0.013485 0.197298 1.088022
v -0.018846 0.196171 1.088739
v -0.023101 0.215432 1.089009
v -0.018009 0.215742 1.085870
v -0.015827 0.215994 1.093727
v -0.020243 0.215064 1.095384
v 0.001086 0.207932 1.104198
v -0.000000 0.205883 1.102102
v -0.012610 0.214873 1.107592
v -0.008601 0.215691 1.104619
v -0.007433 0.215658 1.105086
v -0.011081 0.216037 1.108259
v -0.013466 0.212509 1.085312
v -0.011618 0.207196 1.085704
v -0.010211 0.208844 1.088811
v -0.011585 0.213475 1.092405
v -0.009982 0.203208 1.088793
v -0.014773 0.211203 1.109378
v -0.014792 0.204981 1.109688
v -0.026604 0.206650 1.094902
v -0.024507 0.211477 1.095175
v -0.001375 0.204450 1.100952
v -0.004953 0.213495 1.102001
v -0.002067 0.209998 1.101559
v -0.011629 0.199571 1.106779
v -0.012223 0.206471 1.111692
v -0.007315 0.217921 1.115978
v -0.011971 0.213711 1.112187
v -0.010653 0.216843 1.108607
v -0.007446 0.220004 1.113186
v -0.012627 0.212594 1.110952
v -0.010127 0.208479 1.113788
v 0.001979 0.215924 1.105094
v -0.002468 0.218989 1.106632
v 0.003979 0.213150 1.106112
v -0.024154 0.199358 1.090943
v 0.003403 0.208460 1.112235
v 0.004893 0.210954 1.108695
v -0.006914 0.216336 1.105469
v -0.005821 0.220592 1.109576
v -0.005028 0.213711 1.117743
v -0.001266 0.208493 1.115930
v -0.001306 0.217212 1.118721
v 0.002134 0.211892 1.116852
v 0.005828 0.211779 1.111602
v 0.005204 0.213224 1.107775
v 0.003606 0.215067 1.105531
v -0.004403 0.221014 1.116695
v -0.005357 0.222342 1.114148
v -0.004875 0.221733 1.110244
v -0.001394 0.223907 1.116884
v 0.003183 0.222042 1.117252
v 0.010506 0.226467 1.106840
v 0.009064 0.222377 1.107506
v 0.009190 0.222704 1.108708
v 0.011080 0.226436 1.107807
v 0.007765 0.217428 1.110071
v 0.008073 0.219174 1.110836
v 0.006419 0.218889 1.114198
v 0.008654 0.223897 1.112880
v 0.005152 0.227094 1.115606
v 0.007355 0.230627 1.114316
v 0.010470 0.227458 1.112318
v 0.004816 0.222463 1.116400
v 0.012369 0.229012 1.108366
v 0.012604 0.229982 1.107296
v 0.005829 0.216624 1.115246
v 0.005958 0.216889 1.106333
v 0.008382 0.223180 1.105003
v 0.010415 0.228088 1.104833
v 0.011314 0.231776 1.106205
v 0.006187 0.223527 1.103654
v 0.008666 0.228994 1.103518
v 0.009387 0.232452 1.105029
v 0.003074 0.224947 1.103379
v 0.006154 0.229733 1.103586
v 0.000098 0.219732 1.104367
v 0.003382 0.218134 1.104359
v 0.007627 0.232216 1.104881
v 0.012004 0.232295 1.110566
v 0.010167 0.233898 1.108638
v 0.011962 0.230928 1.111673
v 0.003857 0.227774 1.115935
v 0.006361 0.232105 1.114267
v 0.001694 0.228832 1.115363
v 0.004812 0.233155 1.113045
v 0.009188 0.233658 1.112551
v 0.009705 0.231823 1.113207
v 0.000842 0.218077 1.104956
v -0.002040 0.220022 1.106675
v -0.002788 0.222017 1.106854
v 0.000008 0.227043 1.105665
v -0.004627 0.223679 1.110941
v -0.003737 0.224443 1.114723
v -0.000119 0.229455 1.113273
v -0.001091 0.229212 1.109901
v 0.003804 0.233571 1.111083
v 0.002648 0.232823 1.108299
v 0.003498 0.231382 1.105223
v 0.006995 0.234628 1.109075
v 0.008115 0.234759 1.110654
v 0.008504 0.234154 1.107307
v 0.005788 0.234097 1.107601
v 0.006546 0.233405 1.106209
v -0.025286 0.212450 1.090702
v 0.073142 0.192728 1.049904
v 0.069220 0.192998 1.054097
v 0.071452 0.207988 1.060472
v 0.068451 0.201646 1.061437
v 0.076348 0.211193 1.056943
v 0.081506 0.207607 1.047936
v 0.079044 0.210986 1.051724
v 0.067645 0.196186 1.058998
v 0.077226 0.195263 1.046066
v 0.080886 0.201438 1.044672
v 0.082620 0.191314 1.051381
v 0.086623 0.198149 1.050074
v 0.087806 0.204489 1.052869
v 0.083733 0.208991 1.056701
v 0.080333 0.210143 1.060374
v 0.076393 0.190454 1.055206
v 0.072400 0.191578 1.059055
v 0.070142 0.196459 1.063008
v 0.078835 0.188465 1.062760
v 0.087603 0.189035 1.067771
v 0.098099 0.201167 1.078904
v 0.094762 0.203098 1.073200
v 0.095461 0.200283 1.072892
v 0.098916 0.198834 1.077808
v 0.093343 0.201884 1.067824
v 0.093520 0.199783 1.069066
v 0.091645 0.194996 1.067503
v 0.094648 0.193859 1.072227
v 0.089292 0.190698 1.069316
v 0.090247 0.189492 1.073229
v 0.097533 0.192514 1.076854
v 0.100858 0.196133 1.080106
v 0.099764 0.191615 1.080956
v 0.099920 0.197784 1.082744
v 0.092972 0.194111 1.065179
v 0.089365 0.207023 1.064839
v 0.092221 0.205897 1.073268
v 0.095191 0.203201 1.080316
v 0.097298 0.198840 1.084469
v 0.088105 0.207013 1.074802
v 0.090743 0.203450 1.080946
v 0.092215 0.198960 1.084526
v 0.083654 0.205286 1.076222
v 0.087143 0.201598 1.081246
v 0.077026 0.207550 1.065837
v 0.083200 0.209626 1.064782
v 0.089485 0.198712 1.083530
v 0.099450 0.191596 1.083863
v 0.096396 0.192718 1.085701
v 0.087216 0.187736 1.073237
v 0.093252 0.187778 1.077375
v 0.090451 0.187060 1.078573
v 0.083097 0.187738 1.073275
v 0.087750 0.187371 1.079735
v 0.094850 0.187633 1.082270
v 0.096488 0.188374 1.079960
v 0.074950 0.208138 1.063007
v 0.071024 0.202765 1.063613
v 0.072929 0.202089 1.066179
v 0.079210 0.200142 1.076192
v 0.071941 0.195857 1.066569
v 0.074728 0.190553 1.064865
v 0.079941 0.189553 1.074561
v 0.078070 0.194001 1.075578
v 0.085241 0.189918 1.080745
v 0.084153 0.192843 1.080974
v 0.084834 0.197750 1.081682
v 0.089343 0.191042 1.083954
v 0.091969 0.188493 1.083663
v 0.091912 0.194342 1.085443
v 0.087447 0.193019 1.083128
v 0.088771 0.195746 1.083937
v -0.018799 0.217350 1.081762
v -0.012950 0.213776 1.081024
v -0.013817 0.218058 1.077764
v -0.012101 0.224820 1.072985
v -0.016512 0.232591 1.067662
v -0.006858 0.220633 1.070494
v -0.008930 0.213722 1.075922
v -0.008220 0.206961 1.080823
v -0.001345 0.221982 1.062113
f 2 3 1
f 1 3 4
f 5 6 8
f 8 6 7
f 9 4 10
f 10 4 3
f 12 13 11
f 11 13 9
f 14 12 16
f 16 12 15
f 18 19 17
f 17 19 20
f 22 23 21
f 21 23 24
f 26 27 25
f 25 27 28
f 30 31 29
f 29 31 32
f 33 34 36
f 36 34 35
f 37 38 40
f 40 38 39
f 41 42 6
f 6 42 43
f 6 43 7
f 7 43 44
f 45 34 46
f 46 34 33
f 48 49 47
f 47 49 50
f 52 53 51
f 51 53 54
f 56 52 55
f 55 52 51
f 58 59 57
f 57 59 60
f 61 62 4
f 4 62 1
f 64 65 63
f 63 65 66
f 68 69 67
f 67 69 70
f 72 73 71
f 71 73 74
f 76 77 75
f 75 77 78
f 53 79 54
f 54 79 80
f 82 83 81
f 81 83 84
f 85 86 52
f 52 86 53
f 57 60 87
f 87 60 88
f 89 90 43
f 43 90 44
f 43 42 89
f 89 42 91
f 40 39 92
f 92 39 93
f 94 70 64
f 64 70 69
f 13 61 9
f 9 61 4
f 25 28 69
f 69 28 95
f 96 25 68
f 68 25 69
f 98 99 97
f 97 99 100
f 101 102 104
f 104 102 103
f 106 30 105
f 105 30 29
f 51 54 107
f 107 54 108
f 54 80 108
f 108 80 109
f 111 112 110
f 110 112 113
f 115 5 114
f 114 5 116
f 115 41 5
f 5 41 6
f 36 35 111
f 111 35 117
f 35 118 117
f 117 118 119
f 34 120 35
f 35 120 118
f 34 45 120
f 120 45 121
f 125 126 124
f 124 126 127
f 128 129 14
f 14 129 130
f 33 131 46
f 46 131 132
f 133 94 63
f 63 94 64
f 134 135 137
f 137 135 136
f 139 140 138
f 138 140 141
f 77 142 78
f 78 142 143
f 144 145 20
f 20 145 146
f 148 149 147
f 147 149 72
f 151 152 150
f 150 152 153
f 82 101 83
f 83 101 104
f 101 82 155
f 155 82 154
f 156 157 58
f 58 157 59
f 158 68 147
f 147 68 67
f 159 146 15
f 15 146 16
f 68 158 96
f 96 158 160
f 129 66 130
f 130 66 65
f 162 163 161
f 161 163 164
f 166 167 165
f 165 167 168
f 170 171 169
f 169 171 172
f 174 171 173
f 173 171 170
f 176 177 175
f 175 177 178
f 180 181 179
f 179 181 24
f 182 183 21
f 21 183 184
f 81 185 82
f 82 185 154
f 186 187 188
f 188 187 144
f 158 71 160
f 160 71 189
f 190 135 157
f 157 135 59
f 169 172 139
f 139 172 140
f 147 72 158
f 158 72 71
f 192 193 191
f 191 193 194
f 167 166 49
f 49 166 195
f 196 190 50
f 50 190 157
f 197 198 200
f 200 198 199
f 21 24 182
f 182 24 181
f 146 159 20
f 20 159 17
f 182 181 81
f 81 181 185
f 201 185 180
f 180 185 181
f 202 203 83
f 83 203 84
f 205 206 204
f 204 206 85
f 207 22 184
f 184 22 21
f 179 24 208
f 208 24 23
f 208 209 179
f 179 209 205
f 209 210 205
f 205 210 206
f 212 206 211
f 211 206 210
f 179 205 180
f 180 205 204
f 213 176 88
f 88 176 214
f 86 85 212
f 212 85 206
f 193 217 218
f 217 219 218
f 218 219 220
f 219 18 220
f 220 18 17
f 19 221 20
f 20 221 144
f 222 223 225
f 225 223 224
f 175 226 176
f 176 226 214
f 227 87 214
f 214 87 88
f 220 17 228
f 228 17 159
f 134 213 60
f 60 213 88
f 138 229 151
f 151 229 152
f 193 192 210
f 210 192 211
f 230 194 218
f 218 194 193
f 231 232 228
f 228 232 230
f 233 234 91
f 91 234 89
f 235 236 93
f 93 236 92
f 230 232 234
f 234 232 237
f 47 238 48
f 48 238 239
f 240 191 235
f 235 191 236
f 5 8 116
f 116 8 241
f 242 243 189
f 189 243 160
f 244 245 98
f 98 245 99
f 156 246 47
f 47 246 238
f 76 247 77
f 77 247 248
f 250 125 249
f 249 125 124
f 252 253 251
f 251 253 254
f 111 110 36
f 36 110 255
f 256 33 255
f 255 33 36
f 257 258 154
f 154 258 155
f 63 169 133
f 133 169 139
f 66 170 63
f 63 170 169
f 173 170 129
f 129 170 66
f 129 128 173
f 173 128 259
f 128 260 259
f 259 260 261
f 213 134 262
f 262 134 137
f 263 264 186
f 186 264 187
f 112 265 113
f 113 265 266
f 11 267 268
f 234 233 230
f 230 233 194
f 153 269 70
f 70 269 67
f 175 178 165
f 165 178 141
f 150 153 94
f 94 153 70
f 271 221 270
f 270 221 207
f 269 153 272
f 272 153 152
f 121 45 109
f 109 45 108
f 47 50 156
f 156 50 157
f 57 273 58
f 58 273 274
f 145 275 260
f 260 275 261
f 276 149 143
f 143 149 78
f 148 269 75
f 75 269 272
f 207 277 270
f 270 277 278
f 195 196 49
f 49 196 50
f 59 135 60
f 60 135 134
f 83 104 202
f 202 104 279
f 149 148 78
f 78 148 75
f 247 278 248
f 248 278 277
f 183 182 84
f 84 182 81
f 48 239 281
f 281 239 282
f 227 223 283
f 283 223 222
f 223 226 224
f 224 226 168
f 281 282 224
f 224 282 225
f 165 168 175
f 175 168 226
f 264 263 138
f 138 263 229
f 14 16 128
f 128 16 260
f 220 228 218
f 218 228 230
f 87 227 284
f 284 227 283
f 260 16 145
f 145 16 146
f 244 98 258
f 258 98 155
f 58 274 156
f 156 274 246
f 107 285 51
f 51 285 55
f 243 286 160
f 160 286 96
f 234 237 89
f 89 237 90
f 46 132 107
f 107 132 285
f 253 252 249
f 249 252 250
f 286 26 96
f 96 26 25
f 106 105 287
f 287 105 288
f 272 152 289
f 289 152 229
f 138 151 139
f 139 151 133
f 183 290 161
f 161 290 162
f 291 292 277
f 277 292 293
f 151 150 133
f 133 150 94
f 262 275 177
f 177 275 187
f 144 187 145
f 145 187 275
f 273 57 284
f 284 57 87
f 174 136 190
f 190 136 135
f 111 117 112
f 112 117 38
f 117 119 38
f 38 119 123
f 112 38 265
f 265 38 37
f 287 288 254
f 254 288 251
f 228 159 231
f 231 159 15
f 223 227 226
f 226 227 214
f 147 67 148
f 148 67 269
f 224 168 281
f 281 168 167
f 199 163 200
f 200 163 162
f 45 46 108
f 108 46 107
f 281 167 48
f 48 167 49
f 161 164 291
f 291 164 292
f 38 123 39
f 293 294 277
f 277 294 248
f 284 283 296
f 296 283 295
f 284 296 273
f 273 296 297
f 274 273 298
f 298 273 297
f 246 274 299
f 299 274 298
f 283 222 295
f 295 222 300
f 222 225 300
f 300 225 301
f 301 225 302
f 302 225 282
f 303 304 300
f 300 304 295
f 306 307 305
f 305 307 308
f 309 310 308
f 308 310 305
f 308 307 312
f 312 307 311
f 313 314 312
f 312 314 315
f 311 316 312
f 312 316 313
f 317 304 311
f 311 304 316
f 315 309 312
f 312 309 308
f 318 319 321
f 321 319 320
f 319 318 309
f 309 318 310
f 311 307 317
f 317 307 306
f 306 297 317
f 317 297 296
f 306 322 297
f 297 322 298
f 305 323 306
f 306 323 322
f 323 305 324
f 324 305 310
f 304 317 295
f 295 317 296
f 318 325 310
f 310 325 324
f 323 324 326
f 326 324 327
f 324 325 327
f 327 325 328
f 326 327 329
f 329 327 330
f 329 331 326
f 326 331 332
f 333 330 328
f 328 330 327
f 323 326 322
f 322 326 332
f 322 332 298
f 298 332 299
f 325 318 334
f 334 318 321
f 313 316 335
f 335 316 304
f 335 336 313
f 313 336 314
f 304 303 335
f 335 303 337
f 336 335 338
f 338 335 337
f 336 339 314
f 314 339 340
f 246 299 238
f 238 299 341
f 239 342 282
f 282 342 302
f 342 239 341
f 341 239 238
f 341 331 342
f 342 331 343
f 331 329 343
f 343 329 344
f 342 343 302
f 302 343 345
f 341 299 331
f 331 299 332
f 346 301 345
f 345 301 302
f 346 303 301
f 301 303 300
f 347 337 346
f 346 337 303
f 347 346 348
f 348 346 345
f 349 347 350
f 350 347 348
f 343 344 345
f 345 344 348
f 344 351 348
f 348 351 350
f 337 347 338
f 338 347 349
f 353 338 352
f 352 338 349
f 352 355 354
f 354 355 356
f 352 349 355
f 355 349 350
f 352 354 353
f 353 354 334
f 353 334 339
f 339 334 321
f 339 336 353
f 353 336 338
f 329 330 344
f 344 330 351
f 356 351 333
f 333 351 330
f 356 355 351
f 351 355 350
f 354 356 328
f 328 356 333
f 328 325 354
f 354 325 334
f 309 315 319
f 319 315 320
f 320 340 321
f 321 340 339
f 320 315 340
f 340 315 314
f 137 136 261
f 261 136 259
f 140 166 141
f 141 166 165
f 172 171 195
f 195 171 196
f 171 174 196
f 196 174 190
f 178 177 264
f 264 177 187
f 172 195 140
f 140 195 166
f 137 261 262
f 262 261 275
f 178 264 141
f 141 264 138
f 262 177 213
f 213 177 176
f 136 174 259
f 259 174 173
f 358 359 357
f 357 359 360
f 362 363 361
f 361 363 364
f 361 364 365
f 365 364 366
f 367 368 370
f 370 368 369
f 76 371 247
f 247 371 372
f 373 374 362
f 362 374 363
f 376 377 375
f 375 377 378
f 289 229 380
f 380 229 379
f 381 379 263
f 263 379 229
f 383 384 382
f 382 384 385
f 386 368 374
f 374 368 363
f 76 289 371
f 371 289 380
f 377 376 359
f 359 376 387
f 388 386 360
f 360 386 374
f 389 383 366
f 366 383 390
f 392 393 391
f 391 393 394
f 383 382 390
f 390 382 395
f 396 365 390
f 390 365 366
f 389 366 367
f 367 366 364
f 357 397 358
f 358 397 398
f 373 399 357
f 357 399 397
f 389 367 400
f 400 367 370
f 382 385 375
f 375 385 372
f 357 360 373
f 373 360 374
f 361 401 362
f 362 401 402
f 387 388 359
f 359 388 360
f 363 368 364
f 364 368 367
f 358 398 403
f 403 398 404
f 396 392 405
f 405 392 391
f 392 395 393
f 393 395 378
f 393 403 394
f 394 403 404
f 375 378 382
f 382 378 395
f 365 396 406
f 406 396 405
f 362 402 373
f 373 402 399
f 271 270 400
f 400 270 384
f 401 361 406
f 406 361 365
f 381 369 386
f 386 369 368
f 392 396 395
f 395 396 390
f 393 378 403
f 403 378 377
f 403 377 358
f 358 377 359
f 406 405 408
f 408 405 407
f 406 408 401
f 401 408 409
f 401 409 402
f 402 409 410
f 402 410 399
f 399 410 411
f 405 391 407
f 407 391 412
f 391 394 412
f 412 394 413
f 394 404 413
f 413 404 414
f 415 416 412
f 412 416 407
f 418 419 417
f 417 419 420
f 421 422 418
f 418 422 419
f 419 422 424
f 424 422 423
f 425 426 424
f 424 426 427
f 423 428 424
f 424 428 425
f 427 420 424
f 424 420 419
f 420 429 417
f 417 429 430
f 423 422 431
f 431 422 421
f 421 409 431
f 431 409 408
f 421 432 409
f 409 432 410
f 418 433 421
f 421 433 432
f 434 433 417
f 417 433 418
f 431 416 423
f 423 416 428
f 416 431 407
f 407 431 408
f 435 434 430
f 430 434 417
f 433 434 436
f 436 434 437
f 434 435 437
f 437 435 438
f 436 437 439
f 439 437 440
f 439 441 436
f 436 441 442
f 438 443 437
f 437 443 440
f 436 442 433
f 433 442 432
f 432 442 410
f 410 442 411
f 435 430 445
f 445 430 444
f 430 429 444
f 444 429 446
f 425 428 447
f 447 428 416
f 426 425 448
f 448 425 447
f 416 415 447
f 447 415 449
f 447 449 448
f 448 449 450
f 451 452 448
f 448 452 426
f 446 452 444
f 444 452 451
f 399 411 397
f 397 411 453
f 398 454 404
f 404 454 414
f 454 398 453
f 453 398 397
f 453 441 454
f 454 441 455
f 441 439 455
f 455 439 456
f 454 455 414
f 414 455 457
f 441 453 442
f 442 453 411
f 458 413 457
f 457 413 414
f 458 415 413
f 413 415 412
f 458 459 415
f 415 459 449
f 459 458 460
f 460 458 457
f 461 459 462
f 462 459 460
f 455 456 457
f 457 456 460
f 456 463 460
f 460 463 462
f 459 461 449
f 449 461 450
f 465 450 464
f 464 450 461
f 464 467 466
f 466 467 468
f 464 461 467
f 467 461 462
f 464 466 465
f 465 466 445
f 465 445 451
f 451 445 444
f 451 448 465
f 465 448 450
f 439 440 456
f 456 440 463
f 468 463 443
f 443 463 440
f 468 467 463
f 463 467 462
f 466 468 438
f 438 468 443
f 438 435 466
f 466 435 445
f 420 427 429
f 429 427 446
f 446 427 452
f 452 427 426
f 370 369 188
f 188 369 186
f 371 376 372
f 372 376 375
f 380 379 387
f 387 379 388
f 379 381 388
f 388 381 386
f 385 384 278
f 278 384 270
f 380 387 371
f 371 387 376
f 400 370 271
f 271 370 188
f 385 278 372
f 372 278 247
f 400 384 389
f 389 384 383
f 369 381 186
f 186 381 263
f 221 271 144
f 144 271 188
f 221 19 207
f 207 19 22
f 19 18 22
f 22 18 23
f 18 219 23
f 23 219 208
f 469 470 472
f 472 470 471
f 474 475 473
f 473 475 476
f 473 476 477
f 477 476 478
f 480 481 479
f 479 481 482
f 483 484 474
f 474 484 475
f 486 487 485
f 485 487 488
f 489 490 77
f 77 490 142
f 491 489 248
f 248 489 77
f 493 494 492
f 492 494 495
f 496 480 484
f 484 480 475
f 486 497 487
f 487 497 471
f 498 496 472
f 472 496 484
f 499 493 478
f 478 493 500
f 501 502 504
f 504 502 503
f 493 492 500
f 500 492 505
f 506 477 500
f 500 477 478
f 499 478 479
f 479 478 476
f 469 507 470
f 470 507 508
f 483 509 469
f 469 509 507
f 479 482 499
f 499 482 510
f 492 495 485
f 485 495 511
f 483 469 484
f 484 469 472
f 473 512 474
f 474 512 513
f 497 498 471
f 471 498 472
f 475 480 476
f 476 480 479
f 470 508 514
f 514 508 515
f 506 502 516
f 516 502 501
f 503 502 488
f 488 502 505
f 514 515 503
f 503 515 504
f 485 488 492
f 492 488 505
f 477 506 517
f 517 506 516
f 474 513 483
f 483 513 509
f 510 292 494
f 494 292 164
f 512 473 517
f 517 473 477
f 491 481 496
f 496 481 480
f 502 506 505
f 505 506 500
f 503 488 514
f 514 488 487
f 514 487 470
f 470 487 471
f 517 516 519
f 519 516 518
f 517 519 512
f 512 519 520
f 512 520 513
f 513 520 521
f 513 521 509
f 509 521 522
f 516 501 518
f 518 501 523
f 501 504 523
f 523 504 524
f 524 504 525
f 525 504 515
f 526 527 523
f 523 527 518
f 529 530 528
f 528 530 531
f 532 533 529
f 529 533 530
f 530 533 535
f 535 533 534
f 536 537 535
f 535 537 538
f 534 539 535
f 535 539 536
f 538 531 535
f 535 531 530
f 540 541 531
f 531 541 528
f 533 532 534
f 534 532 542
f 532 520 542
f 542 520 519
f 532 543 520
f 520 543 521
f 529 544 532
f 532 544 543
f 544 529 545
f 545 529 528
f 534 542 539
f 539 542 527
f 527 542 518
f 518 542 519
f 541 546 528
f 528 546 545
f 547 544 548
f 548 544 545
f 546 549 545
f 545 549 548
f 550 547 551
f 551 547 548
f 547 550 553
f 553 550 552
f 549 554 548
f 548 554 551
f 544 547 543
f 543 547 553
f 543 553 521
f 521 553 522
f 546 541 556
f 556 541 555
f 541 540 555
f 555 540 557
f 536 539 558
f 558 539 527
f 537 536 559
f 559 536 558
f 527 526 558
f 558 526 560
f 559 558 561
f 561 558 560
f 559 562 537
f 537 562 563
f 557 563 555
f 555 563 562
f 509 522 507
f 507 522 564
f 508 565 515
f 515 565 525
f 565 508 564
f 564 508 507
f 564 552 565
f 565 552 566
f 552 550 566
f 566 550 567
f 565 566 525
f 525 566 568
f 564 522 552
f 552 522 553
f 569 524 568
f 568 524 525
f 569 526 524
f 524 526 523
f 570 560 569
f 569 560 526
f 570 569 571
f 571 569 568
f 572 570 573
f 573 570 571
f 566 567 568
f 568 567 571
f 567 574 571
f 571 574 573
f 570 572 560
f 560 572 561
f 576 561 575
f 575 561 572
f 575 578 577
f 577 578 579
f 575 572 578
f 578 572 573
f 575 577 576
f 576 577 556
f 576 556 562
f 562 556 555
f 562 559 576
f 576 559 561
f 550 551 567
f 567 551 574
f 579 574 554
f 554 574 551
f 579 578 574
f 574 578 573
f 579 554 577
f 577 554 549
f 549 546 577
f 577 546 556
f 531 538 540
f 540 538 557
f 557 538 563
f 563 538 537
f 481 294 482
f 482 294 293
f 580 486 511
f 511 486 485
f 490 489 497
f 497 489 498
f 489 491 498
f 498 491 496
f 163 495 164
f 164 495 494
f 580 490 486
f 486 490 497
f 482 293 510
f 510 293 292
f 495 163 511
f 511 163 199
f 494 493 510
f 510 493 499
f 481 491 294
f 294 491 248
f 582 583 581
f 581 583 584
f 586 587 585
f 585 587 588
f 585 588 589
f 589 588 590
f 592 593 591
f 591 593 594
f 595 596 598
f 598 596 597
f 599 600 586
f 586 600 587
f 601 602 604
f 604 602 603
f 605 606 608
f 608 606 607
f 609 607 200
f 200 607 606
f 610 611 613
f 613 611 612
f 600 614 587
f 587 614 592
f 596 605 597
f 597 605 608
f 602 615 603
f 603 615 583
f 616 614 584
f 584 614 600
f 611 618 617
f 617 618 590
f 620 621 619
f 619 621 622
f 610 623 611
f 611 623 618
f 624 589 618
f 618 589 590
f 617 590 591
f 591 590 588
f 581 625 582
f 582 625 626
f 599 627 581
f 581 627 625
f 591 594 617
f 617 594 628
f 601 610 598
f 598 610 613
f 581 584 599
f 599 584 600
f 585 629 586
f 586 629 630
f 615 616 583
f 583 616 584
f 587 592 588
f 588 592 591
f 582 626 631
f 631 626 632
f 624 620 633
f 633 620 619
f 621 620 604
f 604 620 623
f 631 632 621
f 621 632 622
f 610 601 623
f 623 601 604
f 589 624 634
f 634 624 633
f 586 630 599
f 599 630 627
f 203 202 628
f 628 202 612
f 629 585 634
f 634 585 589
f 609 593 614
f 614 593 592
f 620 624 623
f 623 624 618
f 631 621 603
f 603 621 604
f 582 631 583
f 583 631 603
f 634 633 636
f 636 633 635
f 634 636 629
f 629 636 637
f 629 637 630
f 630 637 638
f 630 638 627
f 627 638 639
f 633 619 635
f 635 619 640
f 619 622 640
f 640 622 641
f 641 622 642
f 642 622 632
f 644 635 643
f 643 635 640
f 645 646 648
f 648 646 647
f 649 650 646
f 646 650 647
f 647 650 652
f 652 650 651
f 652 653 655
f 655 653 654
f 651 656 652
f 652 656 653
f 655 648 652
f 652 648 647
f 648 657 645
f 645 657 658
f 650 649 651
f 651 649 659
f 649 637 659
f 659 637 636
f 649 660 637
f 637 660 638
f 661 660 646
f 646 660 649
f 662 661 645
f 645 661 646
f 651 659 656
f 656 659 644
f 644 659 635
f 635 659 636
f 663 662 658
f 658 662 645
f 664 661 665
f 665 661 662
f 663 666 662
f 662 666 665
f 667 664 668
f 668 664 665
f 664 667 670
f 670 667 669
f 666 671 665
f 665 671 668
f 661 664 660
f 660 664 670
f 660 670 638
f 638 670 639
f 658 672 663
f 663 672 673
f 658 657 672
f 672 657 674
f 653 656 675
f 675 656 644
f 653 675 654
f 654 675 676
f 675 644 677
f 677 644 643
f 676 675 678
f 678 675 677
f 679 680 676
f 676 680 654
f 674 680 672
f 672 680 679
f 627 639 625
f 625 639 681
f 626 682 632
f 632 682 642
f 681 682 625
f 625 682 626
f 669 683 681
f 681 683 682
f 667 684 669
f 669 684 683
f 682 683 642
f 642 683 685
f 681 639 669
f 669 639 670
f 686 641 685
f 685 641 642
f 641 686 640
f 640 686 643
f 686 687 643
f 643 687 677
f 687 686 688
f 688 686 685
f 689 687 690
f 690 687 688
f 683 684 685
f 685 684 688
f 684 691 688
f 688 691 690
f 687 689 677
f 677 689 678
f 693 678 692
f 692 678 689
f 692 695 694
f 694 695 696
f 692 689 695
f 695 689 690
f 692 694 693
f 693 694 673
f 693 673 679
f 679 673 672
f 679 676 693
f 693 676 678
f 684 667 691
f 691 667 668
f 696 691 671
f 671 691 668
f 696 695 691
f 691 695 690
f 694 696 666
f 666 696 671
f 666 663 694
f 694 663 673
f 648 655 657
f 657 655 674
f 674 655 680
f 680 655 654
f 593 162 594
f 594 162 290
f 598 597 601
f 601 597 602
f 615 608 616
f 616 608 607
f 607 609 616
f 616 609 614
f 697 595 613
f 613 595 598
f 597 608 602
f 602 608 615
f 594 290 628
f 628 290 203
f 628 612 617
f 617 612 611
f 593 609 162
f 162 609 200
f 105 29 698
f 698 29 699
f 268 126 701
f 701 126 700
f 126 125 700
f 700 125 702
f 252 703 250
f 250 703 704
f 32 268 705
f 705 268 701
f 288 105 706
f 706 105 698
f 29 32 699
f 699 32 705
f 707 251 706
f 706 251 288
f 250 704 125
f 125 704 702
f 703 252 707
f 707 252 251
f 706 708 707
f 707 708 709
f 707 709 703
f 703 709 710
f 703 710 704
f 704 710 711
f 704 711 702
f 702 711 712
f 706 698 708
f 708 698 713
f 698 699 713
f 713 699 714
f 699 705 714
f 714 705 715
f 717 708 716
f 716 708 713
f 719 720 718
f 718 720 721
f 722 723 719
f 719 723 720
f 724 725 723
f 723 725 720
f 724 726 725
f 725 726 727
f 728 721 725
f 725 721 720
f 721 728 729
f 729 728 730
f 729 731 721
f 721 731 718
f 724 723 732
f 732 723 722
f 722 710 732
f 732 710 709
f 722 733 710
f 710 733 711
f 719 734 722
f 722 734 733
f 734 719 735
f 735 719 718
f 724 732 726
f 726 732 717
f 717 732 708
f 708 732 709
f 731 736 718
f 718 736 735
f 737 734 738
f 738 734 735
f 736 739 735
f 735 739 738
f 740 737 741
f 741 737 738
f 737 740 743
f 743 740 742
f 739 744 738
f 738 744 741
f 734 737 733
f 733 737 743
f 733 743 711
f 711 743 712
f 736 731 746
f 746 731 745
f 731 729 745
f 745 729 730
f 727 726 747
f 747 726 717
f 748 727 749
f 749 727 747
f 747 717 750
f 750 717 716
f 749 747 751
f 751 747 750
f 749 752 748
f 748 752 753
f 730 753 745
f 745 753 752
f 728 725 748
f 748 725 727
f 730 728 753
f 753 728 748
f 700 702 754
f 754 702 712
f 705 701 715
f 715 701 755
f 754 755 700
f 700 755 701
f 742 756 754
f 754 756 755
f 740 757 742
f 742 757 756
f 755 756 715
f 715 756 758
f 754 712 742
f 742 712 743
f 759 714 758
f 758 714 715
f 714 759 713
f 713 759 716
f 759 760 716
f 716 760 750
f 760 759 761
f 761 759 758
f 762 760 763
f 763 760 761
f 756 757 758
f 758 757 761
f 757 764 761
f 761 764 763
f 760 762 750
f 750 762 751
f 766 751 765
f 765 751 762
f 767 765 769
f 769 765 768
f 765 762 768
f 768 762 763
f 765 767 766
f 766 767 746
f 766 746 752
f 752 746 745
f 752 749 766
f 766 749 751
f 757 740 764
f 764 740 741
f 769 764 744
f 744 764 741
f 769 768 764
f 764 768 763
f 767 769 739
f 739 769 744
f 739 736 767
f 767 736 746
f 219 217 208
f 208 217 209
f 209 217 210
f 210 217 193
f 198 580 199
f 199 580 511
f 76 75 289
f 289 75 272
f 277 207 291
f 291 207 184
f 290 183 203
f 203 183 84
f 490 580 142
f 142 580 198
f 142 198 143
f 143 198 197
f 149 276 72
f 72 276 73
f 104 103 279
f 279 103 770
f 770 596 279
f 279 596 595
f 605 596 771
f 771 596 770
f 771 770 772
f 772 770 103
f 772 103 773
f 773 103 102
f 155 774 101
f 101 774 102
f 773 102 97
f 97 102 774
f 775 773 100
f 100 773 97
f 773 775 772
f 772 775 776
f 772 776 771
f 771 776 777
f 200 606 197
f 197 606 777
f 189 71 778
f 778 71 74
f 97 774 98
f 98 774 155
f 183 161 184
f 184 161 291
f 777 276 197
f 197 276 143
f 777 606 771
f 771 606 605
f 613 612 697
f 697 612 202
f 595 697 279
f 279 697 202
f 73 276 776
f 776 276 777
f 776 775 73
f 73 775 74
f 100 778 775
f 775 778 74
f 778 100 189
f 189 100 99
f 245 242 99
f 99 242 189
f 131 33 256
f 28 1 95
f 95 1 62
f 27 2 28
f 28 2 1
f 265 115 266
f 266 115 114
f 95 62 69
f 69 62 64
f 62 61 64
f 64 61 65
f 61 13 65
f 65 13 130
f 13 12 130
f 130 12 14
f 31 11 32
f 32 11 268
f 15 12 31
f 31 12 11
f 31 30 15
f 15 30 231
f 30 106 231
f 231 106 232
f 287 237 106
f 106 237 232
f 254 90 287
f 287 90 237
f 253 44 254
f 254 44 90
f 253 249 44
f 44 249 7
f 267 127 268
f 268 127 126
f 10 3 241
f 241 3 116
f 3 2 116
f 116 2 114
f 2 27 114
f 114 27 266
f 27 26 266
f 266 26 113
f 26 286 113
f 113 286 110
f 286 243 110
f 110 243 255
f 243 242 255
f 255 242 256
f 242 245 256
f 256 245 131
f 245 244 131
f 131 244 132
f 265 37 115
f 115 37 41
f 41 37 42
f 42 37 40
f 92 91 40
f 40 91 42
f 236 233 92
f 92 233 91
f 191 194 236
f 236 194 233
f 258 285 244
f 244 285 132
f 257 55 258
f 258 55 285
f 257 154 201
f 201 154 185
f 56 201 204
f 204 201 180
f 55 257 56
f 56 257 201
f 204 85 56
f 56 85 52
f 86 122 53
f 53 122 79
f 212 215 86
f 86 215 122
f 211 216 212
f 212 216 215
f 192 280 211
f 211 280 216
f 191 240 192
f 192 240 280
f 249 124 7
f 7 124 8
f 124 127 8
f 8 127 241
f 127 267 241
f 241 267 10
f 10 267 9
f 9 267 11
o hand_right
v 0.091373 0.437697 0.949654
v 0.094931 0.447952 0.949232
v 0.085903 0.442360 0.950483
v 0.082606 0.434050 0.950068
v 0.084045 0.462119 0.956054
v 0.077314 0.471336 0.950956
v 0.067166 0.457882 0.952944
v 0.074876 0.452185 0.957461
v 0.075916 0.429453 0.947923
v 0.078812 0.437362 0.951166
v 0.073525 0.427398 0.941684
v 0.072273 0.419602 0.936018
v 0.073558 0.421655 0.944138
v 0.072081 0.412053 0.935417
v 0.076329 0.423336 0.926058
v 0.078279 0.409301 0.928635
v 0.104282 0.421115 0.923911
v 0.117258 0.421351 0.928251
v 0.113869 0.404218 0.933374
v 0.100504 0.406487 0.929414
v 0.131860 0.411672 0.941956
v 0.121797 0.406712 0.937537
v 0.125663 0.423403 0.931206
v 0.134253 0.427223 0.935595
v 0.106494 0.442273 0.951511
v 0.110215 0.452868 0.950449
v 0.105028 0.451527 0.948840
v 0.101266 0.441452 0.950057
v 0.065165 0.431407 0.936597
v 0.069517 0.436340 0.928781
v 0.071455 0.429807 0.933191
v 0.067552 0.429225 0.941397
v 0.123480 0.478242 0.954882
v 0.127155 0.487834 0.945880
v 0.121862 0.488143 0.943179
v 0.119843 0.479111 0.951693
v 0.097257 0.486065 0.942659
v 0.105378 0.490475 0.935086
v 0.101435 0.493386 0.921824
v 0.093447 0.487196 0.926003
v 0.086610 0.479303 0.948382
v 0.082787 0.482522 0.934726
v 0.072794 0.473918 0.940296
v 0.062432 0.459909 0.945012
v 0.139613 0.486171 0.949196
v 0.138583 0.479186 0.956773
v 0.056424 0.373250 0.962192
v 0.061012 0.372739 0.965938
v 0.062463 0.375530 0.963825
v 0.057906 0.375511 0.960242
v 0.153823 0.472586 0.943463
v 0.155948 0.468062 0.934590
v 0.157953 0.475137 0.933912
v 0.154331 0.479917 0.941278
v 0.153146 0.462922 0.946332
v 0.152528 0.458481 0.935809
v 0.056058 0.362762 0.954040
v 0.053499 0.366917 0.956101
v 0.055676 0.368946 0.952140
v 0.058707 0.365014 0.949952
v 0.078710 0.425299 0.949523
v 0.087397 0.428648 0.951907
v 0.075732 0.407255 0.954173
v 0.081452 0.415745 0.952721
v 0.075455 0.416744 0.948900
v 0.071657 0.409387 0.949188
v 0.104493 0.420267 0.957867
v 0.107054 0.431298 0.954674
v 0.100799 0.429594 0.952976
v 0.096104 0.417879 0.956553
v 0.119346 0.433928 0.961658
v 0.116067 0.422743 0.963676
v 0.123461 0.425647 0.967296
v 0.124068 0.433353 0.966190
v 0.107827 0.404112 0.964947
v 0.105798 0.399177 0.965546
v 0.108407 0.400438 0.966434
v 0.111081 0.405274 0.965951
v 0.159917 0.481815 0.932099
v 0.154184 0.486779 0.938513
v 0.148729 0.420259 0.953808
v 0.152209 0.428766 0.960719
v 0.151223 0.416068 0.967072
v 0.148197 0.409350 0.957271
v 0.151945 0.463744 0.925887
v 0.156263 0.470360 0.925115
v 0.061142 0.359171 0.954620
v 0.063763 0.361521 0.951031
v 0.075503 0.471949 0.927074
v 0.062312 0.458476 0.935065
v 0.087780 0.479757 0.920357
v 0.097309 0.483854 0.915030
v 0.103154 0.489237 0.910456
v 0.085893 0.411671 0.956323
v 0.095917 0.432760 0.951603
v 0.111113 0.443117 0.953474
v 0.136496 0.444733 0.971634
v 0.138020 0.454836 0.969103
v 0.127942 0.451461 0.966754
v 0.128907 0.443096 0.968917
v 0.149731 0.433234 0.969508
v 0.142521 0.434392 0.973502
v 0.141911 0.426055 0.975573
v 0.148815 0.422714 0.973080
v 0.059557 0.435863 0.933854
v 0.067345 0.443198 0.926000
v 0.148032 0.477295 0.951158
v 0.146958 0.484037 0.947120
v 0.148209 0.490695 0.941845
v 0.115385 0.466228 0.953027
v 0.117141 0.479845 0.949688
v 0.112474 0.479795 0.949028
v 0.112913 0.465690 0.951210
v 0.096950 0.458589 0.952592
v 0.095973 0.472074 0.953467
v 0.087576 0.450288 0.954997
v 0.115009 0.490229 0.939081
v 0.123915 0.496968 0.938066
v 0.116459 0.497648 0.933113
v 0.133197 0.495687 0.941257
v 0.141796 0.493611 0.942927
v 0.161141 0.476455 0.921391
v 0.110044 0.496744 0.927648
v 0.068615 0.445004 0.957328
v 0.062915 0.438836 0.957277
v 0.068085 0.433543 0.954656
v 0.074163 0.438693 0.954777
v 0.070905 0.403099 0.936200
v 0.069157 0.406710 0.943541
v 0.071256 0.415944 0.942135
v 0.125824 0.468361 0.960761
v 0.138433 0.469732 0.962332
v 0.079940 0.402545 0.957061
v 0.061432 0.369617 0.947203
v 0.057861 0.373494 0.949579
v 0.065549 0.390162 0.942533
v 0.069416 0.385371 0.939407
v 0.082584 0.391359 0.956149
v 0.078526 0.396498 0.957339
v 0.077906 0.392982 0.957080
v 0.081294 0.387442 0.957415
v 0.116304 0.405190 0.968909
v 0.118383 0.409193 0.968809
v 0.096323 0.393577 0.938304
v 0.085554 0.397199 0.929253
v 0.088895 0.408293 0.925709
v 0.111318 0.422234 0.960555
v 0.109757 0.412502 0.963640
v 0.113575 0.413340 0.965157
v 0.088179 0.407694 0.957883
v 0.084914 0.399643 0.958451
v 0.090332 0.402652 0.958306
v 0.093527 0.409361 0.958455
v 0.153495 0.441044 0.954905
v 0.150897 0.445867 0.965518
v 0.053719 0.370893 0.958842
v 0.055378 0.373075 0.955916
v 0.113627 0.433034 0.957457
v 0.093040 0.422150 0.922566
v 0.115980 0.444182 0.955986
v 0.132240 0.399158 0.960721
v 0.131285 0.402954 0.968103
v 0.127688 0.401919 0.971169
v 0.127815 0.397210 0.967897
v 0.074506 0.373345 0.962269
v 0.070491 0.376763 0.964617
v 0.067964 0.372796 0.965331
v 0.071807 0.368629 0.963612
v 0.073979 0.399806 0.955318
v 0.069486 0.402026 0.950947
v 0.067960 0.396030 0.953112
v 0.073002 0.394517 0.956046
v 0.067188 0.399416 0.945043
v 0.065179 0.394265 0.947470
v 0.075633 0.369075 0.957166
v 0.072534 0.365864 0.950800
v 0.081058 0.380325 0.944432
v 0.081988 0.381568 0.952182
v 0.137500 0.440804 0.928545
v 0.146081 0.443765 0.935241
v 0.143282 0.430159 0.942340
v 0.141771 0.415661 0.948874
v 0.138681 0.402767 0.955012
v 0.130507 0.398134 0.947255
v 0.149253 0.433975 0.946944
v 0.090344 0.391967 0.950734
v 0.087629 0.389148 0.941144
v 0.093252 0.390729 0.945499
v 0.121581 0.445350 0.960947
v 0.057168 0.377479 0.953814
v 0.115235 0.471337 0.904451
v 0.128110 0.467418 0.906250
v 0.123338 0.460584 0.909232
v 0.108671 0.465440 0.908077
v 0.064493 0.379828 0.963468
v 0.059254 0.380300 0.959468
v 0.123523 0.410240 0.972983
v 0.120924 0.406376 0.972513
v 0.123666 0.406278 0.973489
v 0.126884 0.409404 0.976005
v 0.150129 0.446912 0.938609
v 0.146680 0.410483 0.975091
v 0.144731 0.404185 0.964439
v 0.148232 0.455284 0.928792
v 0.141128 0.452594 0.922459
v 0.144281 0.461041 0.918365
v 0.116272 0.393063 0.946589
v 0.130140 0.437288 0.925182
v 0.134329 0.450294 0.919459
v 0.137804 0.460277 0.914431
v 0.141175 0.467089 0.910723
v 0.147880 0.467263 0.915464
v 0.067092 0.366279 0.948221
v 0.069655 0.360315 0.954248
v 0.152966 0.473610 0.911118
v 0.144883 0.473468 0.906412
v 0.125720 0.448892 0.916150
v 0.114740 0.448513 0.913281
v 0.121891 0.436519 0.922007
v 0.110779 0.434842 0.919350
v 0.110177 0.391237 0.936913
v 0.064091 0.354448 0.969622
v 0.070063 0.360417 0.962595
v 0.069833 0.365366 0.966074
v 0.065223 0.357708 0.972456
v 0.072783 0.364016 0.959571
v 0.067055 0.358153 0.957989
v 0.096345 0.437246 0.918078
v 0.088483 0.396586 0.957852
v 0.097618 0.454280 0.913698
v 0.079710 0.435524 0.919882
v 0.079796 0.449057 0.918925
v 0.096551 0.471852 0.910683
v 0.082233 0.465127 0.916911
v 0.109600 0.482677 0.903839
v 0.104428 0.476315 0.907197
v 0.069711 0.457044 0.924130
v 0.054212 0.367549 0.970978
v 0.059475 0.366883 0.973445
v 0.119535 0.477541 0.900771
v 0.080024 0.443639 0.955057
v 0.121128 0.456175 0.959003
v 0.117035 0.454807 0.955238
v 0.138331 0.460815 0.966779
v 0.126920 0.458885 0.964038
v 0.050635 0.365437 0.967407
v 0.106564 0.395623 0.965613
v 0.107897 0.397274 0.964065
v 0.061778 0.450118 0.954676
v 0.057827 0.444209 0.955096
v 0.052504 0.443095 0.942994
v 0.053480 0.445087 0.949806
v 0.057101 0.452168 0.947628
v 0.056355 0.450562 0.939962
v 0.117380 0.466337 0.954814
v 0.120536 0.466383 0.957265
v 0.153597 0.452780 0.950628
v 0.150559 0.456657 0.961345
v 0.068937 0.396100 0.939414
v 0.076315 0.399034 0.931718
v 0.073606 0.392030 0.935991
v 0.076103 0.383019 0.939184
v 0.088017 0.392533 0.955704
v 0.085401 0.388324 0.950952
v 0.104891 0.476588 0.951310
v 0.106483 0.463610 0.950799
v 0.074633 0.433873 0.949812
v 0.070046 0.429587 0.948809
v 0.101282 0.412049 0.959983
v 0.109259 0.388267 0.954621
v 0.104157 0.386997 0.946587
v 0.098854 0.403549 0.961078
v 0.051258 0.357583 0.963661
v 0.049719 0.362165 0.965357
v 0.080347 0.389631 0.935249
v 0.120464 0.416348 0.969214
v 0.114891 0.391341 0.955756
v 0.109254 0.390703 0.961781
v 0.146037 0.418378 0.976972
v 0.131901 0.474742 0.902590
v 0.066570 0.369801 0.968118
v 0.063908 0.364220 0.974175
v 0.061669 0.353048 0.966200
v 0.056620 0.354146 0.962930
v 0.148372 0.466716 0.957022
v 0.114185 0.453544 0.952960
v 0.061127 0.448749 0.930467
v 0.055372 0.439967 0.936740
v 0.097584 0.399257 0.961015
v 0.137069 0.401903 0.964084
v 0.126387 0.393507 0.956438
v 0.122207 0.390773 0.965280
v 0.114596 0.389428 0.964770
v 0.108566 0.392870 0.965607
v 0.059546 0.350994 0.971265
v 0.054360 0.351962 0.968003
v 0.049121 0.355590 0.968539
v 0.047865 0.360083 0.969506
v 0.049679 0.363962 0.970763
v 0.062044 0.352571 0.974803
v 0.062919 0.355897 0.977045
v 0.062552 0.362344 0.976763
v 0.060536 0.352487 0.979508
v 0.056162 0.349376 0.979120
v 0.043670 0.355449 0.982067
v 0.046045 0.353728 0.976764
v 0.046442 0.352367 0.979198
v 0.044754 0.352991 0.983947
v 0.043813 0.352301 0.989063
v 0.042233 0.355175 0.987653
v 0.050573 0.350431 0.977784
v 0.048827 0.350732 0.984451
v 0.052863 0.350191 0.985749
v 0.050867 0.349707 0.990993
v 0.047160 0.349951 0.990004
v 0.053712 0.349679 0.981115
v 0.051296 0.350016 0.975291
v 0.042977 0.354077 0.992145
v 0.043732 0.351646 0.991970
v 0.046571 0.350179 0.993105
v 0.046272 0.352105 0.995511
v 0.046107 0.359245 0.974221
v 0.043529 0.358078 0.982190
v 0.043538 0.357995 0.988328
v 0.044217 0.356581 0.992682
v 0.045702 0.360878 0.984353
v 0.045756 0.359854 0.989049
v 0.046828 0.358691 0.992806
v 0.049173 0.362451 0.986472
v 0.048654 0.360794 0.990198
v 0.052059 0.364913 0.975647
v 0.048703 0.363385 0.973544
v 0.048526 0.360044 0.992683
v 0.047415 0.353902 0.996153
v 0.056486 0.351009 0.985298
v 0.053517 0.351440 0.991790
v 0.058067 0.352761 0.985955
v 0.055379 0.352809 0.992432
v 0.051069 0.350881 0.995520
v 0.049544 0.349955 0.993646
v 0.053952 0.366179 0.972806
v 0.059382 0.365307 0.975354
v 0.057991 0.364307 0.977831
v 0.053868 0.362124 0.987895
v 0.061165 0.361610 0.979598
v 0.061382 0.355941 0.981338
v 0.058512 0.355327 0.987580
v 0.057764 0.358684 0.988322
v 0.055896 0.355359 0.992350
v 0.055044 0.357795 0.991999
v 0.052126 0.360404 0.991545
v 0.052903 0.355675 0.995148
v 0.052199 0.352828 0.995749
v 0.049198 0.356703 0.995337
v 0.053240 0.357357 0.994186
v 0.050415 0.358466 0.993734
v 0.081766 0.388919 0.983813
v 0.087405 0.390117 0.986852
v 0.088197 0.388462 0.982851
v 0.083402 0.387420 0.980402
v 0.079110 0.374799 0.984784
v 0.077421 0.380889 0.983373
v 0.079207 0.378166 0.978671
v 0.082576 0.372116 0.979996
v 0.085266 0.371680 0.987473
v 0.088962 0.370021 0.982277
v 0.085049 0.372593 0.974077
v 0.081462 0.378877 0.973452
v 0.089082 0.388135 0.956208
v 0.093005 0.382880 0.955068
v 0.100989 0.396966 0.967270
v 0.103475 0.394440 0.968058
v 0.078998 0.385922 0.983122
v 0.080383 0.383726 0.979069
v 0.097454 0.387045 0.983445
v 0.093121 0.390307 0.982198
v 0.092574 0.388619 0.985239
v 0.096063 0.384748 0.987287
v 0.090136 0.395457 0.960387
v 0.095826 0.396400 0.963698
v 0.088616 0.392352 0.958266
v 0.099733 0.380633 0.983269
v 0.098520 0.374127 0.981066
v 0.105766 0.381909 0.962735
v 0.106804 0.386583 0.967159
v 0.081205 0.384219 0.974653
v 0.087594 0.390507 0.980078
v 0.083372 0.388909 0.977118
v 0.092318 0.371439 0.976227
v 0.095014 0.373217 0.987087
v 0.088184 0.383876 1.003322
v 0.094124 0.380198 0.993464
v 0.094025 0.385376 0.992246
v 0.089138 0.388904 1.002762
v 0.096985 0.379120 0.988331
v 0.091356 0.375066 0.991968
v 0.077974 0.394873 0.996418
v 0.083856 0.395753 0.999039
v 0.074328 0.392007 0.995790
v 0.099758 0.380672 0.957019
v 0.074139 0.381451 0.996546
v 0.072879 0.387923 0.995458
v 0.091996 0.389322 0.989530
v 0.087732 0.393537 1.001481
v 0.085423 0.380227 1.002499
v 0.079662 0.377748 0.998440
v 0.082583 0.383175 1.007229
v 0.077054 0.381468 1.004443
v 0.071835 0.384833 1.002028
v 0.071461 0.390225 0.999658
v 0.073569 0.393572 0.998782
v 0.085414 0.386489 1.007909
v 0.086882 0.391016 1.006891
v 0.086042 0.394704 1.003471
v 0.083542 0.392334 1.012232
v 0.079888 0.389693 1.013420
v 0.065857 0.402008 1.013346
v 0.067259 0.396998 1.010230
v 0.068231 0.396061 1.012513
v 0.067067 0.400582 1.015507
v 0.068871 0.391055 1.008730
v 0.069707 0.391872 1.011013
v 0.073761 0.390036 1.012617
v 0.072289 0.395531 1.015181
v 0.077069 0.395551 1.016297
v 0.075475 0.399855 1.019793
v 0.070646 0.399819 1.019059
v 0.076934 0.391482 1.014476
v 0.067099 0.403277 1.017975
v 0.066870 0.405842 1.017452
v 0.074081 0.387154 1.011176
v 0.069618 0.392253 1.002832
v 0.067410 0.399281 1.008056
v 0.066839 0.404768 1.011767
v 0.068816 0.408128 1.016684
v 0.069880 0.402540 1.006816
v 0.069301 0.406838 1.011059
v 0.071094 0.408951 1.015350
v 0.073976 0.405065 1.006588
v 0.073256 0.408523 1.011204
v 0.076750 0.397285 0.999885
v 0.072319 0.395343 1.000182
v 0.072947 0.409135 1.013767
v 0.069978 0.405625 1.021249
v 0.071599 0.408290 1.019885
v 0.069874 0.403763 1.020865
v 0.079185 0.396073 1.016336
v 0.077165 0.401350 1.019555
v 0.081332 0.397946 1.015745
v 0.078552 0.403376 1.019289
v 0.074646 0.404688 1.021864
v 0.073389 0.403496 1.021839
v 0.077563 0.395443 0.998974
v 0.082936 0.396036 1.000941
v 0.082226 0.397704 1.001552
v 0.079026 0.405096 1.008531
v 0.085507 0.396335 1.004773
v 0.085286 0.394681 1.009790
v 0.082712 0.399871 1.014054
v 0.082133 0.403060 1.011576
v 0.080068 0.404708 1.018370
v 0.080317 0.405736 1.015220
v 0.077252 0.408226 1.012338
v 0.076915 0.407687 1.020196
v 0.075579 0.406181 1.021501
v 0.073025 0.409049 1.018298
v 0.077995 0.408035 1.017398
v 0.074943 0.409306 1.015682
v 0.101662 0.405701 0.986541
v 0.106719 0.407541 0.989059
v 0.108233 0.405532 0.986717
v 0.103201 0.403104 0.984939
v 0.098101 0.394544 0.991938
v 0.096893 0.398346 0.989012
v 0.098911 0.395170 0.986556
v 0.101020 0.390647 0.988575
v 0.101276 0.394137 0.996678
v 0.105568 0.388810 0.991945
v 0.104071 0.388481 0.984314
v 0.100934 0.393504 0.983549
v 0.107121 0.393027 0.970161
v 0.111206 0.388211 0.971410
v 0.098642 0.402402 0.987014
v 0.100155 0.399779 0.985253
v 0.116080 0.404781 0.989092
v 0.112348 0.407046 0.986617
v 0.112433 0.405240 0.990079
v 0.114310 0.402477 0.993404
v 0.108974 0.403149 0.968641
v 0.114429 0.405398 0.970414
v 0.106594 0.398857 0.969377
v 0.117680 0.398563 0.991030
v 0.116049 0.391397 0.990288
v 0.123653 0.394271 0.976476
v 0.124125 0.400368 0.976656
v 0.100843 0.398599 0.982924
v 0.107780 0.406841 0.983811
v 0.103044 0.403747 0.982478
v 0.110121 0.388043 0.986669
v 0.111125 0.391829 0.995635
v 0.101285 0.409768 1.008170
v 0.111277 0.399915 0.999230
v 0.112067 0.404955 0.996083
v 0.102954 0.413501 1.006323
v 0.114016 0.397592 0.996266
v 0.107366 0.395670 0.999366
v 0.094548 0.416178 0.995544
v 0.099423 0.417246 0.998113
v 0.092095 0.412446 0.995162
v 0.118134 0.388189 0.973664
v 0.121319 0.405741 0.974775
v 0.090258 0.406668 0.999765
v 0.090492 0.409724 0.996581
v 0.110732 0.407079 0.992630
v 0.102686 0.416398 1.002653
v 0.098282 0.405977 1.007451
v 0.093681 0.403880 1.003857
v 0.096058 0.410220 1.010482
v 0.091327 0.408356 1.006957
v 0.087663 0.410608 1.003088
v 0.088133 0.413481 0.999703
v 0.089943 0.416025 0.998017
v 0.099072 0.413926 1.010877
v 0.100502 0.417034 1.008839
v 0.101057 0.417796 1.003639
v 0.097607 0.417853 1.012736
v 0.092700 0.415720 1.014017
v 0.080475 0.427186 1.011322
v 0.082585 0.422506 1.008595
v 0.082972 0.422167 1.009749
v 0.080696 0.426494 1.012913
v 0.084833 0.416207 1.007431
v 0.084692 0.417446 1.008986
v 0.087398 0.416001 1.011548
v 0.085318 0.421391 1.014470
v 0.091082 0.422242 1.016101
v 0.088547 0.426265 1.018086
v 0.083044 0.425605 1.017080
v 0.091021 0.417160 1.014012
v 0.080329 0.428837 1.015122
v 0.078904 0.429897 1.014227
v 0.088294 0.413816 1.010774
v 0.085135 0.417472 1.002652
v 0.082645 0.423965 1.006011
v 0.080460 0.428941 1.008538
v 0.080659 0.432059 1.011735
v 0.085205 0.426199 1.004182
v 0.083099 0.430298 1.007233
v 0.083140 0.433076 1.010153
v 0.088188 0.427679 1.003931
v 0.086272 0.431175 1.007002
v 0.092157 0.419848 0.998974
v 0.088068 0.418798 0.999940
v 0.085373 0.433028 1.009484
v 0.081849 0.430665 1.018030
v 0.084148 0.433618 1.015961
v 0.082305 0.429035 1.017596
v 0.092979 0.422277 1.016075
v 0.090324 0.427765 1.018711
v 0.095201 0.423684 1.014902
v 0.092406 0.429182 1.017468
v 0.086869 0.430120 1.019604
v 0.086216 0.429144 1.019223
v 0.093711 0.417681 0.997586
v 0.098258 0.418535 0.999707
v 0.096657 0.420603 1.000733
v 0.092276 0.428891 1.005892
v 0.099705 0.420056 1.004469
v 0.098748 0.420633 1.010492
v 0.095926 0.425792 1.012464
v 0.095061 0.428020 1.009528
v 0.093229 0.430474 1.015062
v 0.092896 0.430711 1.012184
v 0.089970 0.432243 1.008514
v 0.089725 0.432671 1.015598
v 0.088643 0.431855 1.018281
v 0.086003 0.434301 1.013435
v 0.090381 0.432880 1.013151
v 0.087569 0.433986 1.011422
v 0.118429 0.406497 0.972668
v 0.116540 0.411246 0.987212
v 0.118812 0.412767 0.990641
v 0.119830 0.412011 0.990792
v 0.118276 0.410582 0.986547
v 0.114805 0.399751 0.987450
v 0.113721 0.404268 0.985734
v 0.116784 0.401865 0.983621
v 0.118693 0.397497 0.985053
v 0.117816 0.397403 0.991528
v 0.121919 0.395806 0.989886
v 0.121486 0.397976 0.982961
v 0.119020 0.401929 0.981840
v 0.128146 0.404290 0.971829
v 0.132735 0.401375 0.971456
v 0.142387 0.415549 0.982671
v 0.138673 0.419015 0.981106
v 0.134592 0.415339 0.987302
v 0.137938 0.412329 0.987726
v 0.114699 0.408115 0.985759
v 0.116825 0.407014 0.984001
v 0.127055 0.408520 0.997230
v 0.124243 0.411840 0.994707
v 0.121997 0.412083 0.994758
v 0.123727 0.409875 0.998955
v 0.133550 0.418117 0.979765
v 0.129854 0.414371 0.977453
v 0.128629 0.414475 0.980411
v 0.130313 0.415297 0.984988
v 0.126598 0.409994 0.976653
v 0.128312 0.403950 0.997039
v 0.128031 0.398438 0.993661
v 0.142000 0.404237 0.982265
v 0.141074 0.408397 0.985431
v 0.117905 0.405942 0.983622
v 0.121276 0.412310 0.990526
v 0.118940 0.410026 0.987481
v 0.125936 0.396025 0.986636
v 0.123528 0.399275 0.996319
v 0.115328 0.409078 1.003451
v 0.121214 0.405792 1.000777
v 0.121876 0.410260 0.999267
v 0.117054 0.412020 1.002463
v 0.124281 0.405142 0.999420
v 0.119236 0.401152 0.998030
v 0.113321 0.414848 0.989934
v 0.116265 0.415525 0.994680
v 0.111028 0.412715 0.988380
v 0.138421 0.401305 0.974640
v 0.108102 0.406044 0.990727
v 0.108843 0.410100 0.988810
v 0.120419 0.412452 0.994879
v 0.117577 0.414641 0.999254
v 0.112325 0.405481 1.001443
v 0.110133 0.403028 0.995530
v 0.108679 0.409114 1.002483
v 0.106539 0.406978 0.996789
v 0.106133 0.410751 0.991139
v 0.108961 0.413155 0.989334
v 0.111695 0.414938 0.989325
v 0.112913 0.411905 1.004306
v 0.115246 0.413686 1.003452
v 0.116803 0.415138 0.999877
v 0.110595 0.415158 1.004956
v 0.106425 0.415774 1.002341
v 0.107729 0.427268 0.995226
v 0.107661 0.423178 0.993625
v 0.106969 0.423005 0.994622
v 0.106741 0.427100 0.995692
v 0.106224 0.417617 0.992723
v 0.105926 0.418877 0.994244
v 0.105151 0.416325 0.997018
v 0.105173 0.421805 0.998437
v 0.106976 0.421261 1.003612
v 0.106717 0.425498 1.004120
v 0.104837 0.425584 0.999606
v 0.105839 0.417280 1.001402
v 0.105905 0.429417 0.997225
v 0.106492 0.430768 0.997047
v 0.104515 0.413607 0.996646
v 0.109723 0.417882 0.990422
v 0.109816 0.424565 0.992644
v 0.109259 0.429365 0.994896
v 0.108476 0.431971 0.997890
v 0.112355 0.424336 0.992731
v 0.111538 0.429774 0.995190
v 0.110770 0.432044 0.998170
v 0.115217 0.423984 0.994570
v 0.113609 0.429038 0.996592
v 0.115981 0.418151 0.992875
v 0.113116 0.418442 0.990705
v 0.112196 0.431055 0.998535
v 0.105530 0.430755 1.000983
v 0.108390 0.431875 1.001326
v 0.104688 0.429187 1.000857
v 0.107861 0.420975 1.004735
v 0.107772 0.426148 1.005372
v 0.110078 0.420969 1.005749
v 0.109879 0.426687 1.005735
v 0.106858 0.429456 1.004187
v 0.105755 0.428040 1.003284
v 0.114613 0.416638 0.991637
v 0.116215 0.416357 0.995087
v 0.117181 0.417496 0.996969
v 0.116670 0.423041 0.998576
v 0.116610 0.416109 1.001744
v 0.113840 0.415414 1.004618
v 0.112843 0.421467 1.005399
v 0.115521 0.422283 1.003309
v 0.111864 0.427378 1.005021
v 0.114245 0.427477 1.003065
v 0.115050 0.428172 0.999729
v 0.110749 0.430626 1.003176
v 0.108990 0.430578 1.003954
v 0.110498 0.431824 1.001145
v 0.112434 0.430286 1.002262
v 0.112512 0.430786 1.000599
v 0.143157 0.411595 0.981905
v 0.053494 0.425513 0.941588
v 0.057850 0.422359 0.943600
v 0.058478 0.426562 0.959326
v 0.060894 0.422020 0.954600
v 0.053540 0.431007 0.960476
v 0.047153 0.435619 0.952888
v 0.050167 0.434799 0.957485
v 0.060595 0.420487 0.948812
v 0.049302 0.429877 0.941704
v 0.046426 0.434489 0.946193
v 0.045115 0.423813 0.943896
v 0.042268 0.428782 0.948637
v 0.042389 0.430394 0.955397
v 0.046336 0.430098 0.960471
v 0.050007 0.427921 0.963019
v 0.050587 0.419926 0.944163
v 0.055055 0.417246 0.946584
v 0.058556 0.417206 0.952164
v 0.047786 0.412830 0.947695
v 0.038678 0.409789 0.952026
v 0.029289 0.409095 0.968874
v 0.033253 0.414350 0.967018
v 0.032036 0.413048 0.964539
v 0.028029 0.408799 0.966339
v 0.034930 0.417693 0.962982
v 0.034130 0.415502 0.961922
v 0.035306 0.413712 0.956958
v 0.031770 0.409880 0.958705
v 0.036889 0.409542 0.954164
v 0.035485 0.405928 0.955253
v 0.028326 0.405874 0.960328
v 0.025501 0.405714 0.965548
v 0.025710 0.402336 0.962104
v 0.026688 0.404272 0.968393
v 0.034610 0.414999 0.955611
v 0.040270 0.422685 0.964948
v 0.036567 0.415543 0.969009
v 0.032675 0.408654 0.970942
v 0.029469 0.403040 0.969922
v 0.041066 0.414444 0.970234
v 0.037300 0.407680 0.970945
v 0.034761 0.402398 0.969421
v 0.045293 0.411847 0.969059
v 0.040670 0.405971 0.969203
v 0.053024 0.421654 0.963933
v 0.046886 0.423963 0.966038
v 0.037593 0.402732 0.968365
v 0.025908 0.399782 0.963803
v 0.029157 0.398378 0.965493
v 0.038365 0.404510 0.953560
v 0.031845 0.402053 0.956308
v 0.034624 0.400193 0.956129
v 0.042582 0.404046 0.953165
v 0.037433 0.399050 0.956785
v 0.029984 0.398114 0.959098
v 0.028498 0.400766 0.958524
v 0.055316 0.424665 0.961935
v 0.058656 0.420847 0.957399
v 0.056451 0.417807 0.959151
v 0.049060 0.408494 0.964347
v 0.056296 0.413499 0.954300
v 0.052313 0.411854 0.949648
v 0.046163 0.403738 0.954965
v 0.048989 0.405271 0.958886
v 0.040451 0.399350 0.959210
v 0.042104 0.400703 0.961609
v 0.042303 0.403104 0.966081
v 0.036279 0.397887 0.962334
v 0.033070 0.397033 0.960332
v 0.034112 0.398901 0.966160
v 0.038674 0.399458 0.963292
v 0.037737 0.400556 0.966096
v 0.140018 0.422291 0.977304
v 0.133371 0.421498 0.976120
v 0.135503 0.426468 0.974813
v 0.136012 0.434968 0.973698
v 0.142630 0.442763 0.971499
v 0.129589 0.434134 0.970603
v 0.129342 0.425180 0.972109
v 0.126528 0.417406 0.973588
v 0.124610 0.440792 0.964765
f 780 781 779
f 779 781 782
f 783 784 786
f 786 784 785
f 787 782 788
f 788 782 781
f 790 791 789
f 789 791 787
f 792 790 794
f 794 790 793
f 796 797 795
f 795 797 798
f 800 801 799
f 799 801 802
f 804 805 803
f 803 805 806
f 808 809 807
f 807 809 810
f 811 812 814
f 814 812 813
f 815 816 818
f 818 816 817
f 819 820 784
f 784 820 821
f 784 821 785
f 785 821 822
f 823 812 824
f 824 812 811
f 826 827 825
f 825 827 828
f 830 831 829
f 829 831 832
f 834 830 833
f 833 830 829
f 836 837 835
f 835 837 838
f 839 840 782
f 782 840 779
f 842 843 841
f 841 843 844
f 846 847 845
f 845 847 848
f 850 851 849
f 849 851 852
f 854 855 853
f 853 855 856
f 831 857 832
f 832 857 858
f 860 861 859
f 859 861 862
f 863 864 830
f 830 864 831
f 835 838 865
f 865 838 866
f 867 868 821
f 821 868 822
f 821 820 867
f 867 820 869
f 818 817 870
f 870 817 871
f 872 848 842
f 842 848 847
f 791 839 787
f 787 839 782
f 803 806 847
f 847 806 873
f 874 803 846
f 846 803 847
f 876 877 875
f 875 877 878
f 879 880 882
f 882 880 881
f 884 808 883
f 883 808 807
f 829 832 885
f 885 832 886
f 832 858 886
f 886 858 887
f 889 890 888
f 888 890 891
f 893 783 892
f 892 783 894
f 893 819 783
f 783 819 784
f 814 813 889
f 889 813 895
f 813 896 895
f 895 896 897
f 812 898 813
f 813 898 896
f 812 823 898
f 898 823 899
f 903 904 902
f 902 904 905
f 906 907 792
f 792 907 908
f 811 909 824
f 824 909 910
f 911 872 841
f 841 872 842
f 912 913 915
f 915 913 914
f 917 918 916
f 916 918 919
f 855 920 856
f 856 920 921
f 922 923 798
f 798 923 924
f 926 927 925
f 925 927 850
f 929 930 928
f 928 930 931
f 860 879 861
f 861 879 882
f 879 860 933
f 933 860 932
f 934 935 836
f 836 935 837
f 936 846 925
f 925 846 845
f 937 924 793
f 793 924 794
f 846 936 874
f 874 936 938
f 907 844 908
f 908 844 843
f 940 941 939
f 939 941 942
f 944 945 943
f 943 945 946
f 948 949 947
f 947 949 950
f 952 949 951
f 951 949 948
f 954 955 953
f 953 955 956
f 958 959 957
f 957 959 802
f 960 961 799
f 799 961 962
f 859 963 860
f 860 963 932
f 964 965 966
f 966 965 922
f 936 849 938
f 938 849 967
f 968 913 935
f 935 913 837
f 947 950 917
f 917 950 918
f 925 850 936
f 936 850 849
f 970 971 969
f 969 971 972
f 945 944 827
f 827 944 973
f 974 968 828
f 828 968 935
f 975 976 978
f 978 976 977
f 799 802 960
f 960 802 959
f 924 937 798
f 798 937 795
f 960 959 859
f 859 959 963
f 979 963 958
f 958 963 959
f 980 981 861
f 861 981 862
f 983 984 982
f 982 984 863
f 985 800 962
f 962 800 799
f 957 802 986
f 986 802 801
f 986 987 957
f 957 987 983
f 987 988 983
f 983 988 984
f 990 984 989
f 989 984 988
f 957 983 958
f 958 983 982
f 991 954 866
f 866 954 992
f 864 863 990
f 990 863 984
f 971 995 996
f 995 997 996
f 996 997 998
f 997 796 998
f 998 796 795
f 797 999 798
f 798 999 922
f 1000 1001 1003
f 1003 1001 1002
f 953 1004 954
f 954 1004 992
f 1005 865 992
f 992 865 866
f 998 795 1006
f 1006 795 937
f 912 991 838
f 838 991 866
f 916 1007 929
f 929 1007 930
f 971 970 988
f 988 970 989
f 1008 972 996
f 996 972 971
f 1009 1010 1006
f 1006 1010 1008
f 1011 1012 869
f 869 1012 867
f 1013 1014 871
f 871 1014 870
f 1008 1010 1012
f 1012 1010 1015
f 825 1016 826
f 826 1016 1017
f 1018 969 1013
f 1013 969 1014
f 783 786 894
f 894 786 1019
f 1020 1021 967
f 967 1021 938
f 1022 1023 876
f 876 1023 877
f 934 1024 825
f 825 1024 1016
f 854 1025 855
f 855 1025 1026
f 1028 903 1027
f 1027 903 902
f 1030 1031 1029
f 1029 1031 1032
f 889 888 814
f 814 888 1033
f 1034 811 1033
f 1033 811 814
f 1035 1036 932
f 932 1036 933
f 841 947 911
f 911 947 917
f 844 948 841
f 841 948 947
f 951 948 907
f 907 948 844
f 907 906 951
f 951 906 1037
f 906 1038 1037
f 1037 1038 1039
f 991 912 1040
f 1040 912 915
f 1041 1042 964
f 964 1042 965
f 890 1043 891
f 891 1043 1044
f 789 1045 1046
f 1012 1011 1008
f 1008 1011 972
f 931 1047 848
f 848 1047 845
f 953 956 943
f 943 956 919
f 928 931 872
f 872 931 848
f 1049 999 1048
f 1048 999 985
f 1047 931 1050
f 1050 931 930
f 899 823 887
f 887 823 886
f 825 828 934
f 934 828 935
f 835 1051 836
f 836 1051 1052
f 923 1053 1038
f 1038 1053 1039
f 1054 927 921
f 921 927 856
f 926 1047 853
f 853 1047 1050
f 985 1055 1048
f 1048 1055 1056
f 973 974 827
f 827 974 828
f 837 913 838
f 838 913 912
f 861 882 980
f 980 882 1057
f 927 926 856
f 856 926 853
f 1025 1056 1026
f 1026 1056 1055
f 961 960 862
f 862 960 859
f 826 1017 1059
f 1059 1017 1060
f 1005 1001 1061
f 1061 1001 1000
f 1001 1004 1002
f 1002 1004 946
f 1059 1060 1002
f 1002 1060 1003
f 943 946 953
f 953 946 1004
f 1042 1041 916
f 916 1041 1007
f 792 794 906
f 906 794 1038
f 998 1006 996
f 996 1006 1008
f 865 1005 1062
f 1062 1005 1061
f 1038 794 923
f 923 794 924
f 1022 876 1036
f 1036 876 933
f 836 1052 934
f 934 1052 1024
f 885 1063 829
f 829 1063 833
f 1021 1064 938
f 938 1064 874
f 1012 1015 867
f 867 1015 868
f 824 910 885
f 885 910 1063
f 1031 1030 1027
f 1027 1030 1028
f 1064 804 874
f 874 804 803
f 884 883 1065
f 1065 883 1066
f 1050 930 1067
f 1067 930 1007
f 916 929 917
f 917 929 911
f 961 1068 939
f 939 1068 940
f 1069 1070 1055
f 1055 1070 1071
f 929 928 911
f 911 928 872
f 1040 1053 955
f 955 1053 965
f 922 965 923
f 923 965 1053
f 1051 835 1062
f 1062 835 865
f 952 914 968
f 968 914 913
f 889 895 890
f 890 895 816
f 895 897 816
f 816 897 901
f 890 816 1043
f 1043 816 815
f 1065 1066 1032
f 1032 1066 1029
f 1006 937 1009
f 1009 937 793
f 1001 1005 1004
f 1004 1005 992
f 925 845 926
f 926 845 1047
f 1002 946 1059
f 1059 946 945
f 977 941 978
f 978 941 940
f 823 824 886
f 886 824 885
f 1059 945 826
f 826 945 827
f 939 942 1069
f 1069 942 1070
f 816 901 817
f 1071 1072 1055
f 1055 1072 1026
f 1062 1061 1074
f 1074 1061 1073
f 1062 1074 1051
f 1051 1074 1075
f 1052 1051 1076
f 1076 1051 1075
f 1024 1052 1077
f 1077 1052 1076
f 1061 1000 1073
f 1073 1000 1078
f 1000 1003 1078
f 1078 1003 1079
f 1079 1003 1080
f 1080 1003 1060
f 1081 1082 1078
f 1078 1082 1073
f 1084 1085 1083
f 1083 1085 1086
f 1087 1088 1086
f 1086 1088 1083
f 1086 1085 1090
f 1090 1085 1089
f 1091 1092 1090
f 1090 1092 1093
f 1089 1094 1090
f 1090 1094 1091
f 1095 1082 1089
f 1089 1082 1094
f 1093 1087 1090
f 1090 1087 1086
f 1096 1097 1099
f 1099 1097 1098
f 1097 1096 1087
f 1087 1096 1088
f 1089 1085 1095
f 1095 1085 1084
f 1084 1075 1095
f 1095 1075 1074
f 1084 1100 1075
f 1075 1100 1076
f 1083 1101 1084
f 1084 1101 1100
f 1101 1083 1102
f 1102 1083 1088
f 1082 1095 1073
f 1073 1095 1074
f 1096 1103 1088
f 1088 1103 1102
f 1101 1102 1104
f 1104 1102 1105
f 1102 1103 1105
f 1105 1103 1106
f 1104 1105 1107
f 1107 1105 1108
f 1107 1109 1104
f 1104 1109 1110
f 1111 1108 1106
f 1106 1108 1105
f 1101 1104 1100
f 1100 1104 1110
f 1100 1110 1076
f 1076 1110 1077
f 1103 1096 1112
f 1112 1096 1099
f 1091 1094 1113
f 1113 1094 1082
f 1113 1114 1091
f 1091 1114 1092
f 1082 1081 1113
f 1113 1081 1115
f 1114 1113 1116
f 1116 1113 1115
f 1114 1117 1092
f 1092 1117 1118
f 1024 1077 1016
f 1016 1077 1119
f 1017 1120 1060
f 1060 1120 1080
f 1120 1017 1119
f 1119 1017 1016
f 1119 1109 1120
f 1120 1109 1121
f 1109 1107 1121
f 1121 1107 1122
f 1120 1121 1080
f 1080 1121 1123
f 1119 1077 1109
f 1109 1077 1110
f 1124 1079 1123
f 1123 1079 1080
f 1124 1081 1079
f 1079 1081 1078
f 1125 1115 1124
f 1124 1115 1081
f 1125 1124 1126
f 1126 1124 1123
f 1127 1125 1128
f 1128 1125 1126
f 1121 1122 1123
f 1123 1122 1126
f 1122 1129 1126
f 1126 1129 1128
f 1115 1125 1116
f 1116 1125 1127
f 1131 1116 1130
f 1130 1116 1127
f 1130 1133 1132
f 1132 1133 1134
f 1130 1127 1133
f 1133 1127 1128
f 1130 1132 1131
f 1131 1132 1112
f 1131 1112 1117
f 1117 1112 1099
f 1117 1114 1131
f 1131 1114 1116
f 1107 1108 1122
f 1122 1108 1129
f 1134 1129 1111
f 1111 1129 1108
f 1134 1133 1129
f 1129 1133 1128
f 1132 1134 1106
f 1106 1134 1111
f 1106 1103 1132
f 1132 1103 1112
f 1087 1093 1097
f 1097 1093 1098
f 1098 1118 1099
f 1099 1118 1117
f 1098 1093 1118
f 1118 1093 1092
f 915 914 1039
f 1039 914 1037
f 918 944 919
f 919 944 943
f 950 949 973
f 973 949 974
f 949 952 974
f 974 952 968
f 956 955 1042
f 1042 955 965
f 950 973 918
f 918 973 944
f 915 1039 1040
f 1040 1039 1053
f 956 1042 919
f 919 1042 916
f 1040 955 991
f 991 955 954
f 914 952 1037
f 1037 952 951
f 1136 1137 1135
f 1135 1137 1138
f 1140 1141 1139
f 1139 1141 1142
f 1139 1142 1143
f 1143 1142 1144
f 1145 1146 1148
f 1148 1146 1147
f 854 1149 1025
f 1025 1149 1150
f 1151 1152 1140
f 1140 1152 1141
f 1154 1155 1153
f 1153 1155 1156
f 1067 1007 1158
f 1158 1007 1157
f 1159 1157 1041
f 1041 1157 1007
f 1161 1162 1160
f 1160 1162 1163
f 1164 1146 1152
f 1152 1146 1141
f 854 1067 1149
f 1149 1067 1158
f 1155 1154 1137
f 1137 1154 1165
f 1166 1164 1138
f 1138 1164 1152
f 1167 1161 1144
f 1144 1161 1168
f 1170 1171 1169
f 1169 1171 1172
f 1161 1160 1168
f 1168 1160 1173
f 1174 1143 1168
f 1168 1143 1144
f 1167 1144 1145
f 1145 1144 1142
f 1135 1175 1136
f 1136 1175 1176
f 1151 1177 1135
f 1135 1177 1175
f 1167 1145 1178
f 1178 1145 1148
f 1160 1163 1153
f 1153 1163 1150
f 1135 1138 1151
f 1151 1138 1152
f 1139 1179 1140
f 1140 1179 1180
f 1165 1166 1137
f 1137 1166 1138
f 1141 1146 1142
f 1142 1146 1145
f 1136 1176 1181
f 1181 1176 1182
f 1174 1170 1183
f 1183 1170 1169
f 1170 1173 1171
f 1171 1173 1156
f 1171 1181 1172
f 1172 1181 1182
f 1153 1156 1160
f 1160 1156 1173
f 1143 1174 1184
f 1184 1174 1183
f 1140 1180 1151
f 1151 1180 1177
f 1049 1048 1178
f 1178 1048 1162
f 1179 1139 1184
f 1184 1139 1143
f 1159 1147 1164
f 1164 1147 1146
f 1170 1174 1173
f 1173 1174 1168
f 1171 1156 1181
f 1181 1156 1155
f 1181 1155 1136
f 1136 1155 1137
f 1184 1183 1186
f 1186 1183 1185
f 1184 1186 1179
f 1179 1186 1187
f 1179 1187 1180
f 1180 1187 1188
f 1180 1188 1177
f 1177 1188 1189
f 1183 1169 1185
f 1185 1169 1190
f 1169 1172 1190
f 1190 1172 1191
f 1172 1182 1191
f 1191 1182 1192
f 1193 1194 1190
f 1190 1194 1185
f 1196 1197 1195
f 1195 1197 1198
f 1199 1200 1196
f 1196 1200 1197
f 1197 1200 1202
f 1202 1200 1201
f 1203 1204 1202
f 1202 1204 1205
f 1201 1206 1202
f 1202 1206 1203
f 1205 1198 1202
f 1202 1198 1197
f 1198 1207 1195
f 1195 1207 1208
f 1201 1200 1209
f 1209 1200 1199
f 1199 1187 1209
f 1209 1187 1186
f 1199 1210 1187
f 1187 1210 1188
f 1196 1211 1199
f 1199 1211 1210
f 1212 1211 1195
f 1195 1211 1196
f 1209 1194 1201
f 1201 1194 1206
f 1194 1209 1185
f 1185 1209 1186
f 1213 1212 1208
f 1208 1212 1195
f 1211 1212 1214
f 1214 1212 1215
f 1212 1213 1215
f 1215 1213 1216
f 1214 1215 1217
f 1217 1215 1218
f 1217 1219 1214
f 1214 1219 1220
f 1216 1221 1215
f 1215 1221 1218
f 1214 1220 1211
f 1211 1220 1210
f 1210 1220 1188
f 1188 1220 1189
f 1213 1208 1223
f 1223 1208 1222
f 1208 1207 1222
f 1222 1207 1224
f 1203 1206 1225
f 1225 1206 1194
f 1204 1203 1226
f 1226 1203 1225
f 1194 1193 1225
f 1225 1193 1227
f 1225 1227 1226
f 1226 1227 1228
f 1229 1230 1226
f 1226 1230 1204
f 1224 1230 1222
f 1222 1230 1229
f 1177 1189 1175
f 1175 1189 1231
f 1176 1232 1182
f 1182 1232 1192
f 1232 1176 1231
f 1231 1176 1175
f 1231 1219 1232
f 1232 1219 1233
f 1219 1217 1233
f 1233 1217 1234
f 1232 1233 1192
f 1192 1233 1235
f 1219 1231 1220
f 1220 1231 1189
f 1236 1191 1235
f 1235 1191 1192
f 1236 1193 1191
f 1191 1193 1190
f 1236 1237 1193
f 1193 1237 1227
f 1237 1236 1238
f 1238 1236 1235
f 1239 1237 1240
f 1240 1237 1238
f 1233 1234 1235
f 1235 1234 1238
f 1234 1241 1238
f 1238 1241 1240
f 1237 1239 1227
f 1227 1239 1228
f 1243 1228 1242
f 1242 1228 1239
f 1242 1245 1244
f 1244 1245 1246
f 1242 1239 1245
f 1245 1239 1240
f 1242 1244 1243
f 1243 1244 1223
f 1243 1223 1229
f 1229 1223 1222
f 1229 1226 1243
f 1243 1226 1228
f 1217 1218 1234
f 1234 1218 1241
f 1246 1241 1221
f 1221 1241 1218
f 1246 1245 1241
f 1241 1245 1240
f 1244 1246 1216
f 1216 1246 1221
f 1216 1213 1244
f 1244 1213 1223
f 1198 1205 1207
f 1207 1205 1224
f 1224 1205 1230
f 1230 1205 1204
f 1148 1147 966
f 966 1147 964
f 1149 1154 1150
f 1150 1154 1153
f 1158 1157 1165
f 1165 1157 1166
f 1157 1159 1166
f 1166 1159 1164
f 1163 1162 1056
f 1056 1162 1048
f 1158 1165 1149
f 1149 1165 1154
f 1178 1148 1049
f 1049 1148 966
f 1163 1056 1150
f 1150 1056 1025
f 1178 1162 1167
f 1167 1162 1161
f 1147 1159 964
f 964 1159 1041
f 999 1049 922
f 922 1049 966
f 999 797 985
f 985 797 800
f 797 796 800
f 800 796 801
f 796 997 801
f 801 997 986
f 1247 1248 1250
f 1250 1248 1249
f 1252 1253 1251
f 1251 1253 1254
f 1251 1254 1255
f 1255 1254 1256
f 1258 1259 1257
f 1257 1259 1260
f 1261 1262 1252
f 1252 1262 1253
f 1264 1265 1263
f 1263 1265 1266
f 1267 1268 855
f 855 1268 920
f 1269 1267 1026
f 1026 1267 855
f 1271 1272 1270
f 1270 1272 1273
f 1274 1258 1262
f 1262 1258 1253
f 1264 1275 1265
f 1265 1275 1249
f 1276 1274 1250
f 1250 1274 1262
f 1277 1271 1256
f 1256 1271 1278
f 1279 1280 1282
f 1282 1280 1281
f 1271 1270 1278
f 1278 1270 1283
f 1284 1255 1278
f 1278 1255 1256
f 1277 1256 1257
f 1257 1256 1254
f 1247 1285 1248
f 1248 1285 1286
f 1261 1287 1247
f 1247 1287 1285
f 1257 1260 1277
f 1277 1260 1288
f 1270 1273 1263
f 1263 1273 1289
f 1261 1247 1262
f 1262 1247 1250
f 1251 1290 1252
f 1252 1290 1291
f 1275 1276 1249
f 1249 1276 1250
f 1253 1258 1254
f 1254 1258 1257
f 1248 1286 1292
f 1292 1286 1293
f 1284 1280 1294
f 1294 1280 1279
f 1281 1280 1266
f 1266 1280 1283
f 1292 1293 1281
f 1281 1293 1282
f 1263 1266 1270
f 1270 1266 1283
f 1255 1284 1295
f 1295 1284 1294
f 1252 1291 1261
f 1261 1291 1287
f 1288 1070 1272
f 1272 1070 942
f 1290 1251 1295
f 1295 1251 1255
f 1269 1259 1274
f 1274 1259 1258
f 1280 1284 1283
f 1283 1284 1278
f 1281 1266 1292
f 1292 1266 1265
f 1292 1265 1248
f 1248 1265 1249
f 1295 1294 1297
f 1297 1294 1296
f 1295 1297 1290
f 1290 1297 1298
f 1290 1298 1291
f 1291 1298 1299
f 1291 1299 1287
f 1287 1299 1300
f 1294 1279 1296
f 1296 1279 1301
f 1279 1282 1301
f 1301 1282 1302
f 1302 1282 1303
f 1303 1282 1293
f 1304 1305 1301
f 1301 1305 1296
f 1307 1308 1306
f 1306 1308 1309
f 1310 1311 1307
f 1307 1311 1308
f 1308 1311 1313
f 1313 1311 1312
f 1314 1315 1313
f 1313 1315 1316
f 1312 1317 1313
f 1313 1317 1314
f 1316 1309 1313
f 1313 1309 1308
f 1318 1319 1309
f 1309 1319 1306
f 1311 1310 1312
f 1312 1310 1320
f 1310 1298 1320
f 1320 1298 1297
f 1310 1321 1298
f 1298 1321 1299
f 1307 1322 1310
f 1310 1322 1321
f 1322 1307 1323
f 1323 1307 1306
f 1312 1320 1317
f 1317 1320 1305
f 1305 1320 1296
f 1296 1320 1297
f 1319 1324 1306
f 1306 1324 1323
f 1325 1322 1326
f 1326 1322 1323
f 1324 1327 1323
f 1323 1327 1326
f 1328 1325 1329
f 1329 1325 1326
f 1325 1328 1331
f 1331 1328 1330
f 1327 1332 1326
f 1326 1332 1329
f 1322 1325 1321
f 1321 1325 1331
f 1321 1331 1299
f 1299 1331 1300
f 1324 1319 1334
f 1334 1319 1333
f 1319 1318 1333
f 1333 1318 1335
f 1314 1317 1336
f 1336 1317 1305
f 1315 1314 1337
f 1337 1314 1336
f 1305 1304 1336
f 1336 1304 1338
f 1337 1336 1339
f 1339 1336 1338
f 1337 1340 1315
f 1315 1340 1341
f 1335 1341 1333
f 1333 1341 1340
f 1287 1300 1285
f 1285 1300 1342
f 1286 1343 1293
f 1293 1343 1303
f 1343 1286 1342
f 1342 1286 1285
f 1342 1330 1343
f 1343 1330 1344
f 1330 1328 1344
f 1344 1328 1345
f 1343 1344 1303
f 1303 1344 1346
f 1342 1300 1330
f 1330 1300 1331
f 1347 1302 1346
f 1346 1302 1303
f 1347 1304 1302
f 1302 1304 1301
f 1348 1338 1347
f 1347 1338 1304
f 1348 1347 1349
f 1349 1347 1346
f 1350 1348 1351
f 1351 1348 1349
f 1344 1345 1346
f 1346 1345 1349
f 1345 1352 1349
f 1349 1352 1351
f 1348 1350 1338
f 1338 1350 1339
f 1354 1339 1353
f 1353 1339 1350
f 1353 1356 1355
f 1355 1356 1357
f 1353 1350 1356
f 1356 1350 1351
f 1353 1355 1354
f 1354 1355 1334
f 1354 1334 1340
f 1340 1334 1333
f 1340 1337 1354
f 1354 1337 1339
f 1328 1329 1345
f 1345 1329 1352
f 1357 1352 1332
f 1332 1352 1329
f 1357 1356 1352
f 1352 1356 1351
f 1357 1332 1355
f 1355 1332 1327
f 1327 1324 1355
f 1355 1324 1334
f 1309 1316 1318
f 1318 1316 1335
f 1335 1316 1341
f 1341 1316 1315
f 1259 1072 1260
f 1260 1072 1071
f 1358 1264 1289
f 1289 1264 1263
f 1268 1267 1275
f 1275 1267 1276
f 1267 1269 1276
f 1276 1269 1274
f 941 1273 942
f 942 1273 1272
f 1358 1268 1264
f 1264 1268 1275
f 1260 1071 1288
f 1288 1071 1070
f 1273 941 1289
f 1289 941 977
f 1272 1271 1288
f 1288 1271 1277
f 1259 1269 1072
f 1072 1269 1026
f 1360 1361 1359
f 1359 1361 1362
f 1364 1365 1363
f 1363 1365 1366
f 1363 1366 1367
f 1367 1366 1368
f 1370 1371 1369
f 1369 1371 1372
f 1373 1374 1376
f 1376 1374 1375
f 1377 1378 1364
f 1364 1378 1365
f 1379 1380 1382
f 1382 1380 1381
f 1383 1384 1386
f 1386 1384 1385
f 1387 1385 978
f 978 1385 1384
f 1388 1389 1391
f 1391 1389 1390
f 1378 1392 1365
f 1365 1392 1370
f 1374 1383 1375
f 1375 1383 1386
f 1380 1393 1381
f 1381 1393 1361
f 1394 1392 1362
f 1362 1392 1378
f 1389 1396 1395
f 1395 1396 1368
f 1398 1399 1397
f 1397 1399 1400
f 1388 1401 1389
f 1389 1401 1396
f 1402 1367 1396
f 1396 1367 1368
f 1395 1368 1369
f 1369 1368 1366
f 1359 1403 1360
f 1360 1403 1404
f 1377 1405 1359
f 1359 1405 1403
f 1369 1372 1395
f 1395 1372 1406
f 1379 1388 1376
f 1376 1388 1391
f 1359 1362 1377
f 1377 1362 1378
f 1363 1407 1364
f 1364 1407 1408
f 1393 1394 1361
f 1361 1394 1362
f 1365 1370 1366
f 1366 1370 1369
f 1360 1404 1409
f 1409 1404 1410
f 1402 1398 1411
f 1411 1398 1397
f 1399 1398 1382
f 1382 1398 1401
f 1409 1410 1399
f 1399 1410 1400
f 1388 1379 1401
f 1401 1379 1382
f 1367 1402 1412
f 1412 1402 1411
f 1364 1408 1377
f 1377 1408 1405
f 981 980 1406
f 1406 980 1390
f 1407 1363 1412
f 1412 1363 1367
f 1387 1371 1392
f 1392 1371 1370
f 1398 1402 1401
f 1401 1402 1396
f 1409 1399 1381
f 1381 1399 1382
f 1360 1409 1361
f 1361 1409 1381
f 1412 1411 1414
f 1414 1411 1413
f 1412 1414 1407
f 1407 1414 1415
f 1407 1415 1408
f 1408 1415 1416
f 1408 1416 1405
f 1405 1416 1417
f 1411 1397 1413
f 1413 1397 1418
f 1397 1400 1418
f 1418 1400 1419
f 1419 1400 1420
f 1420 1400 1410
f 1422 1413 1421
f 1421 1413 1418
f 1423 1424 1426
f 1426 1424 1425
f 1427 1428 1424
f 1424 1428 1425
f 1425 1428 1430
f 1430 1428 1429
f 1430 1431 1433
f 1433 1431 1432
f 1429 1434 1430
f 1430 1434 1431
f 1433 1426 1430
f 1430 1426 1425
f 1426 1435 1423
f 1423 1435 1436
f 1428 1427 1429
f 1429 1427 1437
f 1427 1415 1437
f 1437 1415 1414
f 1427 1438 1415
f 1415 1438 1416
f 1439 1438 1424
f 1424 1438 1427
f 1440 1439 1423
f 1423 1439 1424
f 1429 1437 1434
f 1434 1437 1422
f 1422 1437 1413
f 1413 1437 1414
f 1441 1440 1436
f 1436 1440 1423
f 1442 1439 1443
f 1443 1439 1440
f 1441 1444 1440
f 1440 1444 1443
f 1445 1442 1446
f 1446 1442 1443
f 1442 1445 1448
f 1448 1445 1447
f 1444 1449 1443
f 1443 1449 1446
f 1439 1442 1438
f 1438 1442 1448
f 1438 1448 1416
f 1416 1448 1417
f 1436 1450 1441
f 1441 1450 1451
f 1436 1435 1450
f 1450 1435 1452
f 1431 1434 1453
f 1453 1434 1422
f 1431 1453 1432
f 1432 1453 1454
f 1453 1422 1455
f 1455 1422 1421
f 1454 1453 1456
f 1456 1453 1455
f 1457 1458 1454
f 1454 1458 1432
f 1452 1458 1450
f 1450 1458 1457
f 1405 1417 1403
f 1403 1417 1459
f 1404 1460 1410
f 1410 1460 1420
f 1459 1460 1403
f 1403 1460 1404
f 1447 1461 1459
f 1459 1461 1460
f 1445 1462 1447
f 1447 1462 1461
f 1460 1461 1420
f 1420 1461 1463
f 1459 1417 1447
f 1447 1417 1448
f 1464 1419 1463
f 1463 1419 1420
f 1419 1464 1418
f 1418 1464 1421
f 1464 1465 1421
f 1421 1465 1455
f 1465 1464 1466
f 1466 1464 1463
f 1467 1465 1468
f 1468 1465 1466
f 1461 1462 1463
f 1463 1462 1466
f 1462 1469 1466
f 1466 1469 1468
f 1465 1467 1455
f 1455 1467 1456
f 1471 1456 1470
f 1470 1456 1467
f 1470 1473 1472
f 1472 1473 1474
f 1470 1467 1473
f 1473 1467 1468
f 1470 1472 1471
f 1471 1472 1451
f 1471 1451 1457
f 1457 1451 1450
f 1457 1454 1471
f 1471 1454 1456
f 1462 1445 1469
f 1469 1445 1446
f 1474 1469 1449
f 1449 1469 1446
f 1474 1473 1469
f 1469 1473 1468
f 1472 1474 1444
f 1444 1474 1449
f 1444 1441 1472
f 1472 1441 1451
f 1426 1433 1435
f 1435 1433 1452
f 1452 1433 1458
f 1458 1433 1432
f 1371 940 1372
f 1372 940 1068
f 1376 1375 1379
f 1379 1375 1380
f 1393 1386 1394
f 1394 1386 1385
f 1385 1387 1394
f 1394 1387 1392
f 1475 1373 1391
f 1391 1373 1376
f 1375 1386 1380
f 1380 1386 1393
f 1372 1068 1406
f 1406 1068 981
f 1406 1390 1395
f 1395 1390 1389
f 1371 1387 940
f 940 1387 978
f 883 807 1476
f 1476 807 1477
f 1046 904 1479
f 1479 904 1478
f 904 903 1478
f 1478 903 1480
f 1030 1481 1028
f 1028 1481 1482
f 810 1046 1483
f 1483 1046 1479
f 1066 883 1484
f 1484 883 1476
f 807 810 1477
f 1477 810 1483
f 1485 1029 1484
f 1484 1029 1066
f 1028 1482 903
f 903 1482 1480
f 1481 1030 1485
f 1485 1030 1029
f 1484 1486 1485
f 1485 1486 1487
f 1485 1487 1481
f 1481 1487 1488
f 1481 1488 1482
f 1482 1488 1489
f 1482 1489 1480
f 1480 1489 1490
f 1484 1476 1486
f 1486 1476 1491
f 1476 1477 1491
f 1491 1477 1492
f 1477 1483 1492
f 1492 1483 1493
f 1495 1486 1494
f 1494 1486 1491
f 1497 1498 1496
f 1496 1498 1499
f 1500 1501 1497
f 1497 1501 1498
f 1502 1503 1501
f 1501 1503 1498
f 1502 1504 1503
f 1503 1504 1505
f 1506 1499 1503
f 1503 1499 1498
f 1499 1506 1507
f 1507 1506 1508
f 1507 1509 1499
f 1499 1509 1496
f 1502 1501 1510
f 1510 1501 1500
f 1500 1488 1510
f 1510 1488 1487
f 1500 1511 1488
f 1488 1511 1489
f 1497 1512 1500
f 1500 1512 1511
f 1512 1497 1513
f 1513 1497 1496
f 1502 1510 1504
f 1504 1510 1495
f 1495 1510 1486
f 1486 1510 1487
f 1509 1514 1496
f 1496 1514 1513
f 1515 1512 1516
f 1516 1512 1513
f 1514 1517 1513
f 1513 1517 1516
f 1518 1515 1519
f 1519 1515 1516
f 1515 1518 1521
f 1521 1518 1520
f 1517 1522 1516
f 1516 1522 1519
f 1512 1515 1511
f 1511 1515 1521
f 1511 1521 1489
f 1489 1521 1490
f 1514 1509 1524
f 1524 1509 1523
f 1509 1507 1523
f 1523 1507 1508
f 1505 1504 1525
f 1525 1504 1495
f 1526 1505 1527
f 1527 1505 1525
f 1525 1495 1528
f 1528 1495 1494
f 1527 1525 1529
f 1529 1525 1528
f 1527 1530 1526
f 1526 1530 1531
f 1508 1531 1523
f 1523 1531 1530
f 1506 1503 1526
f 1526 1503 1505
f 1508 1506 1531
f 1531 1506 1526
f 1478 1480 1532
f 1532 1480 1490
f 1483 1479 1493
f 1493 1479 1533
f 1532 1533 1478
f 1478 1533 1479
f 1520 1534 1532
f 1532 1534 1533
f 1518 1535 1520
f 1520 1535 1534
f 1533 1534 1493
f 1493 1534 1536
f 1532 1490 1520
f 1520 1490 1521
f 1537 1492 1536
f 1536 1492 1493
f 1492 1537 1491
f 1491 1537 1494
f 1537 1538 1494
f 1494 1538 1528
f 1538 1537 1539
f 1539 1537 1536
f 1540 1538 1541
f 1541 1538 1539
f 1534 1535 1536
f 1536 1535 1539
f 1535 1542 1539
f 1539 1542 1541
f 1538 1540 1528
f 1528 1540 1529
f 1544 1529 1543
f 1543 1529 1540
f 1545 1543 1547
f 1547 1543 1546
f 1543 1540 1546
f 1546 1540 1541
f 1543 1545 1544
f 1544 1545 1524
f 1544 1524 1530
f 1530 1524 1523
f 1530 1527 1544
f 1544 1527 1529
f 1535 1518 1542
f 1542 1518 1519
f 1547 1542 1522
f 1522 1542 1519
f 1547 1546 1542
f 1542 1546 1541
f 1545 1547 1517
f 1517 1547 1522
f 1517 1514 1545
f 1545 1514 1524
f 997 995 986
f 986 995 987
f 987 995 988
f 988 995 971
f 976 1358 977
f 977 1358 1289
f 854 853 1067
f 1067 853 1050
f 1055 985 1069
f 1069 985 962
f 1068 961 981
f 981 961 862
f 1268 1358 920
f 920 1358 976
f 920 976 921
f 921 976 975
f 927 1054 850
f 850 1054 851
f 882 881 1057
f 1057 881 1548
f 1548 1374 1057
f 1057 1374 1373
f 1383 1374 1549
f 1549 1374 1548
f 1549 1548 1550
f 1550 1548 881
f 1550 881 1551
f 1551 881 880
f 933 1552 879
f 879 1552 880
f 1551 880 875
f 875 880 1552
f 1553 1551 878
f 878 1551 875
f 1551 1553 1550
f 1550 1553 1554
f 1550 1554 1549
f 1549 1554 1555
f 978 1384 975
f 975 1384 1555
f 967 849 1556
f 1556 849 852
f 875 1552 876
f 876 1552 933
f 961 939 962
f 962 939 1069
f 1555 1054 975
f 975 1054 921
f 1555 1384 1549
f 1549 1384 1383
f 1391 1390 1475
f 1475 1390 980
f 1373 1475 1057
f 1057 1475 980
f 851 1054 1554
f 1554 1054 1555
f 1554 1553 851
f 851 1553 852
f 878 1556 1553
f 1553 1556 852
f 1556 878 967
f 967 878 877
f 1023 1020 877
f 877 1020 967
f 909 811 1034
f 806 779 873
f 873 779 840
f 805 780 806
f 806 780 779
f 1043 893 1044
f 1044 893 892
f 873 840 847
f 847 840 842
f 840 839 842
f 842 839 843
f 839 791 843
f 843 791 908
f 791 790 908
f 908 790 792
f 809 789 810
f 810 789 1046
f 793 790 809
f 809 790 789
f 809 808 793
f 793 808 1009
f 808 884 1009
f 1009 884 1010
f 1065 1015 884
f 884 1015 1010
f 1032 868 1065
f 1065 868 1015
f 1031 822 1032
f 1032 822 868
f 1031 1027 822
f 822 1027 785
f 1045 905 1046
f 1046 905 904
f 788 781 1019
f 1019 781 894
f 781 780 894
f 894 780 892
f 780 805 892
f 892 805 1044
f 805 804 1044
f 1044 804 891
f 804 1064 891
f 891 1064 888
f 1064 1021 888
f 888 1021 1033
f 1021 1020 1033
f 1033 1020 1034
f 1020 1023 1034
f 1034 1023 909
f 1023 1022 909
f 909 1022 910
f 1043 815 893
f 893 815 819
f 819 815 820
f 820 815 818
f 870 869 818
f 818 869 820
f 1014 1011 870
f 870 1011 869
f 969 972 1014
f 1014 972 1011
f 1036 1063 1022
f 1022 1063 910
f 1035 833 1036
f 1036 833 1063
f 1035 932 979
f 979 932 963
f 834 979 982
f 982 979 958
f 833 1035 834
f 834 1035 979
f 982 863 834
f 834 863 830
f 864 900 831
f 831 900 857
f 990 993 864
f 864 993 900
f 989 994 990
f 990 994 993
f 970 1058 989
f 989 1058 994
f 969 1018 970
f 970 1018 1058
f 1027 902 785
f 785 902 786
f 902 905 786
f 786 905 1019
f 905 1045 1019
f 1019 1045 788
f 788 1045 787
f 787 1045 789
