o hand_left
v -0.044591 0.068603 0.544339
v -0.044826 0.076208 0.536392
v -0.039804 0.067159 0.533390
v -0.041097 0.059574 0.541774
v -0.041636 0.080183 0.514050
v -0.048765 0.078233 0.504063
v -0.040598 0.064839 0.505519
v -0.035091 0.069473 0.513272
v -0.039744 0.051810 0.540027
v -0.036171 0.059977 0.531474
v -0.042049 0.047954 0.538021
v -0.051724 0.041706 0.548919
v -0.045813 0.045426 0.548526
v -0.054622 0.038033 0.557182
v -0.062492 0.044923 0.548200
v -0.062058 0.040385 0.563371
v -0.072841 0.068934 0.564698
v -0.070896 0.081096 0.570381
v -0.064939 0.070944 0.583841
v -0.066675 0.059595 0.576072
v -0.059417 0.091239 0.585574
v -0.062184 0.079646 0.585259
v -0.069312 0.089734 0.572530
v -0.066347 0.099526 0.573299
v -0.046920 0.084557 0.548185
v -0.048577 0.092119 0.541085
v -0.048565 0.086303 0.539949
v -0.047058 0.079189 0.546455
v -0.042057 0.042667 0.526026
v -0.055757 0.046058 0.530076
v -0.050036 0.045357 0.535903
v -0.037325 0.045155 0.527885
v -0.047460 0.116368 0.524835
v -0.057166 0.122688 0.517830
v -0.059234 0.117881 0.515095
v -0.050309 0.113116 0.522493
v -0.059263 0.097276 0.506046
v -0.066421 0.104032 0.505638
v -0.078470 0.100048 0.500528
v -0.073945 0.091542 0.502533
v -0.053232 0.087813 0.504960
v -0.065395 0.082962 0.501142
v -0.058786 0.072793 0.501252
v -0.047757 0.059336 0.502672
v -0.055608 0.133078 0.525207
v -0.047829 0.130057 0.531076
v -0.016864 0.024308 0.577040
v -0.014634 0.029641 0.578363
v -0.017945 0.030837 0.577477
v -0.019622 0.025218 0.576500
v -0.062870 0.138304 0.543373
v -0.071731 0.136785 0.547920
v -0.072850 0.141701 0.542674
v -0.065254 0.141839 0.537137
v -0.059718 0.133547 0.551568
v -0.069769 0.129560 0.554713
v -0.017622 0.017073 0.587611
v -0.017624 0.017210 0.582463
v -0.022214 0.017789 0.583377
v -0.022768 0.018446 0.588626
v -0.043055 0.052441 0.549016
v -0.042801 0.061819 0.550828
v -0.040364 0.043497 0.562704
v -0.041802 0.051210 0.559464
v -0.044618 0.045906 0.555489
v -0.044171 0.039920 0.559490
v -0.039939 0.073759 0.566677
v -0.043759 0.080586 0.558092
v -0.044411 0.074152 0.556596
v -0.039987 0.065338 0.564771
v -0.038792 0.093280 0.561897
v -0.035946 0.085570 0.570231
v -0.033614 0.093756 0.571339
v -0.035072 0.097730 0.564809
v -0.033069 0.070028 0.582981
v -0.032316 0.066295 0.586953
v -0.030194 0.068389 0.587554
v -0.032155 0.073464 0.583479
v -0.075077 0.146235 0.537708
v -0.068142 0.144483 0.530999
v -0.050521 0.111242 0.586564
v -0.044485 0.118960 0.581109
v -0.037908 0.113543 0.591655
v -0.046683 0.106510 0.595650
v -0.079510 0.130110 0.549428
v -0.081085 0.136790 0.545666
v -0.016453 0.020503 0.592598
v -0.021416 0.022171 0.593420
v -0.070244 0.069648 0.506498
v -0.055745 0.054462 0.506180
v -0.078998 0.082155 0.506734
v -0.084833 0.090952 0.507241
v -0.089482 0.097748 0.504619
v -0.039265 0.053814 0.564947
v -0.044829 0.071060 0.551440
v -0.045835 0.089307 0.549665
v -0.032008 0.114491 0.560820
v -0.035007 0.120131 0.552597
v -0.035757 0.109566 0.550788
v -0.033514 0.106831 0.558679
v -0.035634 0.120129 0.576536
v -0.030707 0.115077 0.572544
v -0.028419 0.110929 0.579338
v -0.031859 0.115145 0.585044
v -0.045606 0.039921 0.519685
v -0.060069 0.047222 0.523639
v -0.054666 0.136524 0.536913
v -0.058634 0.138128 0.530397
v -0.064162 0.141646 0.524977
v -0.047839 0.103332 0.532068
v -0.052199 0.110856 0.520801
v -0.052824 0.106882 0.519140
v -0.049258 0.100455 0.531857
v -0.044273 0.085095 0.527438
v -0.047408 0.092006 0.516325
v -0.037898 0.075722 0.525015
v -0.062861 0.112438 0.510224
v -0.064734 0.123037 0.508072
v -0.068750 0.116251 0.503879
v -0.062799 0.130917 0.513602
v -0.062282 0.137599 0.519498
v -0.085582 0.143273 0.542527
v -0.073338 0.109561 0.501488
v -0.030876 0.061121 0.513256
v -0.026775 0.053914 0.512339
v -0.027098 0.053449 0.520215
v -0.030733 0.060597 0.522114
v -0.053406 0.033545 0.565449
v -0.047748 0.035467 0.560717
v -0.049149 0.040695 0.553572
v -0.041759 0.114679 0.534749
v -0.042146 0.126423 0.539535
v -0.037765 0.046098 0.568013
v -0.028160 0.020500 0.587942
v -0.027138 0.019529 0.582134
v -0.042878 0.026851 0.573523
v -0.044564 0.027567 0.580307
v -0.036507 0.045392 0.577808
v -0.036015 0.044397 0.570814
v -0.035024 0.043946 0.572865
v -0.033493 0.045739 0.579085
v -0.028353 0.077537 0.587179
v -0.030248 0.081953 0.583509
v -0.056832 0.051365 0.585596
v -0.063429 0.041726 0.578819
v -0.067578 0.048989 0.569367
v -0.038287 0.080862 0.568276
v -0.034712 0.075433 0.576243
v -0.033753 0.079275 0.577403
v -0.037776 0.054309 0.569425
v -0.036618 0.049050 0.573328
v -0.036968 0.053820 0.575020
v -0.037533 0.059508 0.571029
v -0.050729 0.124967 0.570969
v -0.040171 0.126441 0.566137
v -0.017643 0.019823 0.578580
v -0.021198 0.020407 0.578719
v -0.042033 0.087392 0.559805
v -0.071321 0.058689 0.558611
v -0.044150 0.094325 0.551109
v -0.041275 0.088413 0.598160
v -0.033145 0.090071 0.595187
v -0.029539 0.086161 0.596301
v -0.033796 0.083891 0.600203
v -0.021347 0.039337 0.585921
v -0.019857 0.037757 0.580534
v -0.016818 0.035427 0.581638
v -0.017072 0.036652 0.587444
v -0.037628 0.041021 0.566257
v -0.040913 0.036496 0.563410
v -0.036709 0.034850 0.566704
v -0.034996 0.039893 0.569559
v -0.044655 0.032058 0.565463
v -0.040185 0.029783 0.568516
v -0.023693 0.037001 0.591573
v -0.026266 0.030585 0.594623
v -0.041454 0.038439 0.588621
v -0.035497 0.043099 0.586012
v -0.074126 0.107494 0.562761
v -0.068952 0.117209 0.564495
v -0.061233 0.109583 0.575260
v -0.054229 0.102560 0.587059
v -0.047218 0.094905 0.596856
v -0.053981 0.084784 0.596582
v -0.057739 0.117064 0.574899
v -0.043085 0.048341 0.583343
v -0.050565 0.043691 0.584934
v -0.048923 0.048559 0.585927
v -0.040201 0.100391 0.552912
v -0.025304 0.021800 0.577297
v -0.095748 0.098906 0.525352
v -0.095591 0.108527 0.534533
v -0.091708 0.101644 0.538422
v -0.091173 0.090805 0.527986
v -0.020430 0.032761 0.575821
v -0.022544 0.026822 0.574207
v -0.027107 0.087288 0.585515
v -0.025832 0.082555 0.588913
v -0.025260 0.084618 0.591501
v -0.024023 0.090162 0.588445
v -0.066368 0.122576 0.563779
v -0.030000 0.109427 0.594947
v -0.038944 0.102912 0.599201
v -0.075885 0.123433 0.555187
v -0.080981 0.115184 0.553998
v -0.085740 0.121225 0.547994
v -0.052617 0.069562 0.595415
v -0.076263 0.099105 0.562304
v -0.082851 0.107875 0.552723
v -0.088622 0.114757 0.545490
v -0.093027 0.120263 0.541027
v -0.089265 0.126788 0.544115
v -0.027236 0.024916 0.592607
v -0.019616 0.028234 0.596108
v -0.094428 0.133464 0.540829
v -0.097935 0.125773 0.537041
v -0.084784 0.099362 0.549816
v -0.085955 0.088992 0.545373
v -0.078145 0.091205 0.559099
v -0.078935 0.080261 0.555511
v -0.060569 0.061880 0.593603
v -0.002217 0.028128 0.591848
v -0.012586 0.031832 0.593292
v -0.012553 0.034644 0.588173
v -0.002009 0.031416 0.589070
v -0.018088 0.034308 0.592867
v -0.014507 0.026627 0.595083
v -0.077021 0.067937 0.547148
v -0.036542 0.050181 0.578751
v -0.082930 0.076158 0.533388
v -0.069944 0.052430 0.539623
v -0.072823 0.058970 0.528329
v -0.087987 0.083569 0.517742
v -0.078839 0.069007 0.516647
v -0.096094 0.099218 0.512817
v -0.092288 0.092118 0.516606
v -0.066847 0.055736 0.514852
v -0.006702 0.024914 0.576650
v -0.005411 0.030103 0.578980
v -0.100032 0.105037 0.521555
v -0.033980 0.067296 0.523723
v -0.042426 0.104719 0.543217
v -0.045359 0.099933 0.542435
v -0.037536 0.122879 0.547462
v -0.038506 0.111689 0.543698
v -0.007573 0.019661 0.577600
v -0.032366 0.065280 0.590987
v -0.032879 0.065976 0.590503
v -0.034613 0.057950 0.505670
v -0.030566 0.052359 0.505823
v -0.039507 0.042583 0.506436
v -0.034868 0.047303 0.503718
v -0.040939 0.052805 0.502821
v -0.046492 0.048070 0.505598
v -0.046319 0.105507 0.532585
v -0.044339 0.108677 0.533909
v -0.055280 0.129858 0.560714
v -0.044549 0.130525 0.556424
v -0.048834 0.030584 0.570263
v -0.058264 0.035124 0.572680
v -0.051749 0.032029 0.576653
v -0.045789 0.032644 0.585291
v -0.037909 0.048273 0.581445
v -0.040636 0.045600 0.582693
v -0.050112 0.099837 0.518416
v -0.048482 0.093929 0.530622
v -0.034114 0.055683 0.529233
v -0.030912 0.050127 0.526714
v -0.037193 0.067479 0.572494
v -0.043295 0.062208 0.596997
v -0.049716 0.056121 0.594586
v -0.035545 0.061639 0.578822
v -0.006141 0.015842 0.585027
v -0.007099 0.016905 0.580268
v -0.053652 0.036674 0.581868
v -0.030834 0.087122 0.578222
v -0.043908 0.068815 0.597174
v -0.036725 0.064577 0.596171
v -0.028012 0.111762 0.587618
v -0.099897 0.114651 0.529752
v -0.012631 0.034275 0.582436
v -0.004169 0.033105 0.582976
v -0.003712 0.024155 0.592721
v -0.005831 0.018774 0.590519
v -0.048699 0.132698 0.546480
v -0.047021 0.096482 0.542208
v -0.054917 0.046580 0.513119
v -0.043718 0.040341 0.512506
v -0.035403 0.058877 0.582110
v -0.037759 0.094784 0.597787
v -0.045464 0.080265 0.600279
v -0.036909 0.075929 0.603193
v -0.036160 0.068597 0.601052
v -0.033035 0.064653 0.595944
v 0.001861 0.023525 0.590831
v -0.000444 0.018449 0.588747
v -0.001514 0.015589 0.583324
v -0.002878 0.016559 0.579183
v -0.004090 0.020013 0.576850
v 0.003607 0.027634 0.589903
v 0.003455 0.030548 0.587217
v -0.000431 0.032618 0.582658
v 0.007928 0.028004 0.586918
v 0.009742 0.022856 0.586523
v 0.009040 0.016501 0.573893
v 0.005837 0.015580 0.578839
v 0.008563 0.016189 0.578904
v 0.011956 0.017042 0.575259
v 0.016393 0.018091 0.572696
v 0.013636 0.017436 0.570606
v 0.008473 0.018173 0.583214
v 0.013556 0.019573 0.578812
v 0.014680 0.023109 0.580860
v 0.019076 0.023456 0.577374
v 0.018347 0.020229 0.575613
v 0.011369 0.021711 0.583954
v 0.006658 0.017754 0.585009
v 0.017764 0.019326 0.569556
v 0.019041 0.018904 0.571675
v 0.020616 0.021067 0.573609
v 0.021423 0.022467 0.571014
v 0.000648 0.016926 0.576520
v 0.007510 0.017491 0.571947
v 0.012325 0.019910 0.569070
v 0.016582 0.021556 0.568260
v 0.007339 0.021325 0.570291
v 0.011627 0.022766 0.568715
v 0.015221 0.024588 0.568286
v 0.007866 0.025618 0.570259
v 0.011797 0.025945 0.569215
v -0.001704 0.024627 0.575613
v -0.002409 0.020380 0.575574
v 0.014194 0.026507 0.568379
v 0.020813 0.024393 0.570084
v 0.013640 0.026246 0.582631
v 0.018479 0.026590 0.577338
v 0.013011 0.028587 0.582093
v 0.018075 0.028932 0.577221
v 0.021880 0.025862 0.574466
v 0.021000 0.023560 0.575129
v -0.004389 0.025183 0.576806
v -0.002727 0.030504 0.579378
v -0.000210 0.030113 0.578393
v 0.008923 0.029872 0.572455
v 0.002506 0.032274 0.581166
v 0.007248 0.030865 0.584230
v 0.012651 0.030664 0.579821
v 0.011168 0.031716 0.576799
v 0.016431 0.030406 0.575850
v 0.014711 0.030562 0.573962
v 0.012919 0.029124 0.570779
v 0.018578 0.029178 0.572535
v 0.020810 0.027641 0.573719
v 0.018309 0.026665 0.569679
v 0.016789 0.029807 0.572088
v 0.015903 0.027763 0.569996
v -0.008138 0.046614 0.586559
v -0.006576 0.052479 0.588670
v -0.010971 0.051736 0.589763
v -0.011949 0.046721 0.587929
v -0.007187 0.037474 0.597173
v -0.007941 0.038912 0.591172
v -0.012673 0.038319 0.593172
v -0.012388 0.038298 0.599886
v -0.006109 0.041342 0.602946
v -0.011884 0.042696 0.604945
v -0.018717 0.039252 0.599759
v -0.018376 0.039541 0.592639
v -0.037235 0.046497 0.586721
v -0.039170 0.046584 0.593115
v -0.030188 0.062859 0.587000
v -0.029971 0.063699 0.590671
v -0.008280 0.042661 0.587654
v -0.012432 0.042171 0.589281
v -0.013304 0.058917 0.595432
v -0.013458 0.056947 0.590306
v -0.009684 0.055848 0.592113
v -0.008646 0.057009 0.597455
v -0.033842 0.052078 0.581626
v -0.032315 0.057684 0.584314
v -0.035265 0.048873 0.583094
v -0.013975 0.057295 0.601875
v -0.015733 0.052346 0.606271
v -0.035112 0.057989 0.601546
v -0.031442 0.062234 0.598836
v -0.017199 0.042406 0.588151
v -0.014080 0.052212 0.587048
v -0.015576 0.047280 0.585799
v -0.018554 0.044854 0.604649
v -0.008975 0.050119 0.606247
v 0.008895 0.052050 0.597272
v -0.002463 0.054066 0.601403
v -0.003203 0.056357 0.596767
v 0.008804 0.055273 0.593433
v -0.008039 0.055072 0.602806
v -0.003554 0.048798 0.604031
v 0.005715 0.048121 0.581973
v 0.007142 0.053876 0.584407
v 0.005477 0.043549 0.582510
v -0.038871 0.051291 0.598690
v 0.005059 0.038210 0.591338
v 0.004971 0.040245 0.585111
v -0.005029 0.056230 0.591952
v 0.008471 0.056260 0.588649
v 0.008216 0.047775 0.598719
v 0.005422 0.041186 0.597320
v 0.013573 0.046606 0.595855
v 0.011326 0.041038 0.594177
v 0.010136 0.038159 0.588609
v 0.008761 0.040436 0.583570
v 0.008216 0.043895 0.581595
v 0.014440 0.050673 0.594696
v 0.013956 0.054273 0.591593
v 0.011294 0.055468 0.587478
v 0.019928 0.051963 0.589265
v 0.020991 0.047349 0.589782
v 0.022711 0.041422 0.572245
v 0.019048 0.040187 0.576920
v 0.021181 0.040462 0.578441
v 0.024637 0.041731 0.574279
v 0.016981 0.038629 0.582655
v 0.019238 0.039676 0.582597
v 0.020499 0.042248 0.586358
v 0.023545 0.043756 0.581101
v 0.024517 0.047836 0.583548
v 0.028464 0.048579 0.579354
v 0.027869 0.044441 0.576969
v 0.022324 0.045663 0.586850
v 0.027325 0.043079 0.572194
v 0.027129 0.044092 0.569826
v 0.018879 0.041146 0.588891
v 0.011504 0.039955 0.581413
v 0.017138 0.041509 0.574792
v 0.021412 0.043649 0.570162
v 0.026561 0.046874 0.568670
v 0.016176 0.045265 0.573046
v 0.020824 0.046785 0.569450
v 0.025236 0.049250 0.568909
v 0.016065 0.050036 0.572841
v 0.020992 0.050998 0.569914
v 0.008856 0.048661 0.580307
v 0.009168 0.043817 0.579767
v 0.023619 0.050964 0.569476
v 0.030699 0.046591 0.571862
v 0.029604 0.049286 0.570163
v 0.030075 0.045655 0.573357
v 0.024504 0.049937 0.584105
v 0.028289 0.050763 0.578821
v 0.024023 0.052742 0.583475
v 0.028143 0.052918 0.577651
v 0.031001 0.050158 0.574914
v 0.030885 0.048515 0.575340
v 0.008174 0.048317 0.582063
v 0.009438 0.053373 0.584378
v 0.010171 0.053608 0.582844
v 0.017811 0.054370 0.575519
v 0.012979 0.055757 0.586022
v 0.017651 0.054696 0.587839
v 0.022551 0.054961 0.582323
v 0.020463 0.056060 0.579040
v 0.027399 0.054931 0.577180
v 0.024430 0.055709 0.576102
v 0.021950 0.054305 0.572193
v 0.029662 0.053606 0.573224
v 0.030791 0.051681 0.574023
v 0.028073 0.050912 0.570030
v 0.026906 0.054769 0.573164
v 0.025459 0.052748 0.570460
v -0.007014 0.064258 0.590565
v -0.006057 0.069960 0.591127
v -0.009591 0.070314 0.591799
v -0.010520 0.064688 0.591624
v -0.005719 0.058610 0.602031
v -0.006075 0.057985 0.597102
v -0.010523 0.058277 0.598492
v -0.011456 0.059062 0.603831
v -0.003042 0.062404 0.605376
v -0.010565 0.063466 0.608079
v -0.017000 0.060042 0.604764
v -0.014946 0.058905 0.599119
v -0.028903 0.063631 0.596750
v -0.030113 0.065463 0.602928
v -0.006726 0.060459 0.593142
v -0.010380 0.060770 0.594156
v -0.009903 0.077311 0.596716
v -0.010387 0.074608 0.592616
v -0.008026 0.074610 0.594680
v -0.007046 0.076069 0.598745
v -0.027376 0.069278 0.588062
v -0.026422 0.075264 0.588800
v -0.027501 0.065400 0.591284
v -0.010694 0.076629 0.603301
v -0.013460 0.072443 0.608610
v -0.025972 0.079181 0.604269
v -0.024102 0.082036 0.599121
v -0.013790 0.060771 0.594429
v -0.011983 0.070149 0.590074
v -0.012982 0.064627 0.590551
v -0.016444 0.065522 0.608127
v -0.007847 0.070128 0.608322
v 0.012963 0.070323 0.598741
v -0.002217 0.073710 0.603691
v -0.003222 0.075477 0.598068
v 0.012189 0.072865 0.595136
v -0.006252 0.074886 0.604352
v -0.002321 0.068805 0.606724
v 0.007189 0.063935 0.585720
v 0.008159 0.069188 0.587121
v 0.006229 0.060200 0.588137
v -0.029363 0.071711 0.606452
v -0.023873 0.081629 0.592723
v 0.008289 0.057209 0.594852
v 0.006819 0.058046 0.590765
v -0.004662 0.074113 0.594205
v 0.010342 0.072870 0.590892
v 0.011927 0.066045 0.601121
v 0.009466 0.060222 0.600035
v 0.016833 0.065608 0.598137
v 0.014295 0.059794 0.597020
v 0.012402 0.056685 0.592235
v 0.010174 0.057982 0.588310
v 0.009222 0.060360 0.585924
v 0.017311 0.070059 0.595563
v 0.016053 0.072306 0.592448
v 0.011617 0.072193 0.589820
v 0.020493 0.070409 0.592324
v 0.022344 0.065278 0.593171
v 0.025462 0.058737 0.577475
v 0.021341 0.058238 0.581802
v 0.022197 0.058642 0.582593
v 0.026729 0.058906 0.578666
v 0.018251 0.057292 0.587840
v 0.019986 0.058021 0.587236
v 0.021411 0.060170 0.590243
v 0.025926 0.061009 0.585538
v 0.026255 0.066809 0.587312
v 0.029785 0.066481 0.583187
v 0.029968 0.061144 0.581460
v 0.023059 0.064292 0.591267
v 0.029459 0.059768 0.576933
v 0.029165 0.058861 0.575259
v 0.020034 0.059819 0.592414
v 0.014116 0.057669 0.585167
v 0.019232 0.058567 0.579688
v 0.023267 0.059098 0.575185
v 0.026896 0.060913 0.573202
v 0.017456 0.061503 0.577951
v 0.021712 0.061773 0.574490
v 0.025068 0.063326 0.572786
v 0.016972 0.064792 0.577462
v 0.020988 0.064941 0.574706
v 0.010160 0.064348 0.583755
v 0.011419 0.060473 0.583854
v 0.023907 0.065246 0.573481
v 0.032296 0.062229 0.576595
v 0.030472 0.065212 0.574193
v 0.031491 0.061911 0.578112
v 0.025840 0.068522 0.587933
v 0.030241 0.068728 0.582620
v 0.024637 0.070958 0.587016
v 0.028977 0.070964 0.581767
v 0.032536 0.066688 0.579322
v 0.032123 0.065704 0.579921
v 0.008748 0.064219 0.585225
v 0.009479 0.069085 0.586762
v 0.010691 0.069003 0.585310
v 0.017967 0.069435 0.578438
v 0.012971 0.072188 0.588071
v 0.018917 0.072424 0.589429
v 0.022671 0.072217 0.584601
v 0.020538 0.072118 0.581326
v 0.026803 0.071913 0.580237
v 0.024197 0.071526 0.579065
v 0.021752 0.068993 0.575576
v 0.028627 0.069802 0.577060
v 0.031267 0.068790 0.578097
v 0.027758 0.066841 0.573643
v 0.026195 0.070213 0.576440
v 0.025436 0.067882 0.573977
v -0.024953 0.079417 0.590120
v -0.004409 0.087349 0.586975
v -0.003698 0.091478 0.586597
v -0.004956 0.092059 0.587702
v -0.006731 0.088040 0.587648
v -0.004003 0.084058 0.597896
v -0.004222 0.082997 0.593289
v -0.008261 0.083116 0.594970
v -0.008239 0.084292 0.599359
v -0.002917 0.088168 0.600756
v -0.006740 0.088918 0.601882
v -0.012128 0.085552 0.599567
v -0.012159 0.084168 0.595081
v -0.027145 0.089491 0.594025
v -0.028911 0.092664 0.598190
v -0.022568 0.108796 0.589035
v -0.023296 0.105771 0.584070
v -0.016063 0.103209 0.587187
v -0.016711 0.105937 0.591227
v -0.004469 0.084464 0.589554
v -0.008025 0.084572 0.590234
v -0.004562 0.100160 0.593470
v -0.005124 0.097485 0.589363
v -0.003899 0.096005 0.588842
v -0.002423 0.099044 0.592144
v -0.023392 0.100270 0.582880
v -0.024355 0.095217 0.584769
v -0.020657 0.094551 0.584935
v -0.016566 0.098453 0.585423
v -0.022788 0.090359 0.588281
v -0.005232 0.099718 0.597818
v -0.007393 0.096048 0.602160
v -0.022582 0.105264 0.599771
v -0.019835 0.106851 0.595725
v -0.010166 0.084964 0.591036
v -0.006678 0.093271 0.587571
v -0.007694 0.088877 0.588062
v -0.010654 0.090191 0.602731
v -0.004038 0.094792 0.600924
v 0.007509 0.096434 0.592624
v -0.000188 0.098358 0.595696
v -0.000904 0.098606 0.590819
v 0.006757 0.096968 0.589589
v -0.002310 0.098558 0.596676
v -0.000438 0.094186 0.599603
v 0.002652 0.086746 0.584035
v 0.003468 0.091997 0.584412
v 0.002642 0.084027 0.586005
v -0.027677 0.098627 0.600812
v 0.004524 0.083109 0.593259
v 0.003714 0.082425 0.588912
v -0.002303 0.095325 0.587768
v 0.005128 0.095554 0.586479
v 0.007561 0.093108 0.595769
v 0.005747 0.087284 0.596957
v 0.011515 0.091878 0.593336
v 0.009258 0.086070 0.594397
v 0.007420 0.082148 0.590345
v 0.005466 0.082299 0.587030
v 0.004374 0.083905 0.584458
v 0.011204 0.095282 0.590388
v 0.009882 0.095936 0.587725
v 0.007255 0.094887 0.585181
v 0.014568 0.094023 0.587972
v 0.016092 0.089777 0.589666
v 0.017712 0.080932 0.579508
v 0.014500 0.081215 0.582180
v 0.015318 0.081569 0.583053
v 0.018428 0.080640 0.580347
v 0.011671 0.081798 0.586795
v 0.013294 0.082318 0.586702
v 0.014066 0.084827 0.589163
v 0.017972 0.083854 0.585594
v 0.019981 0.088828 0.585503
v 0.022909 0.087437 0.582689
v 0.021072 0.083064 0.583283
v 0.016866 0.088047 0.588895
v 0.021097 0.080509 0.579440
v 0.021334 0.080218 0.578086
v 0.012980 0.084924 0.590666
v 0.008265 0.081819 0.584356
v 0.013460 0.081152 0.579881
v 0.017796 0.080821 0.577134
v 0.021449 0.081580 0.576199
v 0.011793 0.082777 0.578638
v 0.016897 0.082224 0.575440
v 0.020418 0.083135 0.574671
v 0.010894 0.085810 0.577434
v 0.016113 0.084745 0.574987
v 0.005588 0.087278 0.581320
v 0.006510 0.083897 0.582351
v 0.019295 0.084575 0.574691
v 0.024254 0.082563 0.579269
v 0.023674 0.084014 0.576693
v 0.023850 0.082573 0.580818
v 0.019892 0.090272 0.585255
v 0.023386 0.088729 0.581725
v 0.019097 0.092346 0.583932
v 0.022750 0.089958 0.579988
v 0.024994 0.086132 0.579768
v 0.024212 0.085314 0.581313
v 0.004352 0.087335 0.582547
v 0.005119 0.091489 0.583284
v 0.006789 0.091493 0.581932
v 0.011791 0.089771 0.577736
v 0.009256 0.094629 0.583794
v 0.012325 0.095257 0.586087
v 0.017320 0.093175 0.581924
v 0.014841 0.092655 0.579549
v 0.021497 0.090297 0.578154
v 0.018945 0.090019 0.576422
v 0.016753 0.087968 0.575069
v 0.022876 0.087174 0.576357
v 0.024308 0.086779 0.577590
v 0.022331 0.085144 0.575453
v 0.021125 0.087537 0.575444
v 0.020262 0.086270 0.574889
v -0.023050 0.108251 0.593116
v -0.032014 0.031953 0.518829
v -0.029640 0.034808 0.523292
v -0.018265 0.044137 0.516248
v -0.020656 0.041483 0.522330
v -0.018514 0.043313 0.509520
v -0.025691 0.037509 0.503897
v -0.022175 0.041582 0.505391
v -0.024893 0.038174 0.524870
v -0.033042 0.031266 0.512847
v -0.030843 0.033449 0.506278
v -0.028433 0.023870 0.514437
v -0.025436 0.026265 0.507239
v -0.020278 0.029967 0.504439
v -0.016853 0.036066 0.506554
v -0.014484 0.039139 0.509876
v -0.027699 0.027705 0.520910
v -0.025374 0.031270 0.524700
v -0.020851 0.036242 0.525232
v -0.021778 0.024680 0.524769
v -0.014080 0.019360 0.522003
v 0.003916 0.021104 0.515040
v -0.001408 0.024706 0.512677
v -0.002442 0.022236 0.513698
v 0.002462 0.018907 0.515295
v -0.006925 0.024707 0.511172
v -0.006590 0.023138 0.512986
v -0.010471 0.020988 0.516011
v -0.005758 0.018190 0.517530
v -0.011513 0.019526 0.520860
v -0.008351 0.018113 0.523170
v -0.001266 0.015388 0.519218
v 0.004080 0.015690 0.517009
v 0.002640 0.013298 0.520705
v 0.006466 0.017479 0.518055
v -0.012281 0.019174 0.514296
v -0.009056 0.030931 0.508886
v -0.001328 0.028387 0.512564
v 0.004692 0.024512 0.516308
v 0.007261 0.020018 0.519908
v -0.001267 0.031920 0.515111
v 0.003541 0.027723 0.519048
v 0.005365 0.023562 0.522769
v -0.002443 0.033724 0.519453
v 0.001667 0.028846 0.522348
v -0.012390 0.039627 0.516401
v -0.010383 0.036917 0.511039
v 0.003377 0.025239 0.523930
v 0.004812 0.013451 0.522449
v 0.005536 0.016304 0.524592
v -0.010183 0.018898 0.525955
v -0.004390 0.014933 0.524687
v -0.004754 0.016321 0.527348
v -0.011769 0.021673 0.528410
v -0.004762 0.018369 0.529393
v 0.000207 0.013791 0.526483
v -0.000728 0.013222 0.523870
v -0.014846 0.041387 0.515625
v -0.017622 0.040187 0.521362
v -0.015607 0.038432 0.522150
v -0.006084 0.033106 0.525001
v -0.018089 0.034717 0.526565
v -0.020646 0.029068 0.527070
v -0.011214 0.025100 0.529936
v -0.009398 0.029530 0.528973
v -0.003957 0.021872 0.529927
v -0.003076 0.024685 0.528993
v -0.000337 0.027711 0.526171
v 0.000707 0.019901 0.528643
v 0.000528 0.016336 0.528440
v 0.004201 0.020506 0.526098
v 0.000042 0.022599 0.528130
v 0.002271 0.023633 0.526250
v -0.026413 0.107843 0.581822
v -0.026470 0.101390 0.579707
v -0.028157 0.105452 0.576327
v -0.029605 0.109787 0.569184
v -0.032968 0.118810 0.565297
v -0.031598 0.103455 0.566866
v -0.029769 0.099222 0.574661
v -0.027621 0.093345 0.580399
v -0.036802 0.101445 0.558500
f 2 3 1
f 1 3 4
f 5 6 8
f 8 6 7
f 9 4 10
f 10 4 3
f 12 13 11
f 11 13 9
f 14 12 16
f 16 12 15
f 18 19 17
f 17 19 20
f 22 23 21
f 21 23 24
f 26 27 25
f 25 27 28
f 30 31 29
f 29 31 32
f 33 34 36
f 36 34 35
f 37 38 40
f 40 38 39
f 41 42 6
f 6 42 43
f 6 43 7
f 7 43 44
f 45 34 46
f 46 34 33
f 48 49 47
f 47 49 50
f 52 53 51
f 51 53 54
f 56 52 55
f 55 52 51
f 58 59 57
f 57 59 60
f 61 62 4
f 4 62 1
f 64 65 63
f 63 65 66
f 68 69 67
f 67 69 70
f 72 73 71
f 71 73 74
f 76 77 75
f 75 77 78
f 53 79 54
f 54 79 80
f 82 83 81
f 81 83 84
f 85 86 52
f 52 86 53
f 57 60 87
f 87 60 88
f 89 90 43
f 43 90 44
f 43 42 89
f 89 42 91
f 40 39 92
f 92 39 93
f 94 70 64
f 64 70 69
f 13 61 9
f 9 61 4
f 25 28 69
f 69 28 95
f 96 25 68
f 68 25 69
f 98 99 97
f 97 99 100
f 101 102 104
f 104 102 103
f 106 30 105
f 105 30 29
f 51 54 107
f 107 54 108
f 54 80 108
f 108 80 109
f 111 112 110
f 110 112 113
f 115 5 114
f 114 5 116
f 115 41 5
f 5 41 6
f 36 35 111
f 111 35 117
f 35 118 117
f 117 118 119
f 34 120 35
f 35 120 118
f 34 45 120
f 120 45 121
f 125 126 124
f 124 126 127
f 128 129 14
f 14 129 130
f 33 131 46
f 46 131 132
f 133 94 63
f 63 94 64
f 134 135 137
f 137 135 136
f 139 140 138
f 138 140 141
f 77 142 78
f 78 142 143
f 144 145 20
f 20 145 146
f 148 149 147
f 147 149 72
f 151 152 150
f 150 152 153
f 82 101 83
f 83 101 104
f 101 82 155
f 155 82 154
f 156 157 58
f 58 157 59
f 158 68 147
f 147 68 67
f 159 146 15
f 15 146 16
f 68 158 96
f 96 158 160
f 129 66 130
f 130 66 65
f 162 163 161
f 161 163 164
f 166 167 165
f 165 167 168
f 170 171 169
f 169 171 172
f 174 171 173
f 173 171 170
f 176 177 175
f 175 177 178
f 180 181 179
f 179 181 24
f 182 183 21
f 21 183 184
f 81 185 82
f 82 185 154
f 186 187 188
f 188 187 144
f 158 71 160
f 160 71 189
f 190 135 157
f 157 135 59
f 169 172 139
f 139 172 140
f 147 72 158
f 158 72 71
f 192 193 191
f 191 193 194
f 167 166 49
f 49 166 195
f 196 190 50
f 50 190 157
f 197 198 200
f 200 198 199
f 21 24 182
f 182 24 181
f 146 159 20
f 20 159 17
f 182 181 81
f 81 181 185
f 201 185 180
f 180 185 181
f 202 203 83
f 83 203 84
f 205 206 204
f 204 206 85
f 207 22 184
f 184 22 21
f 179 24 208
f 208 24 23
f 208 209 179
f 179 209 205
f 209 210 205
f 205 210 206
f 212 206 211
f 211 206 210
f 179 205 180
f 180 205 204
f 213 176 88
f 88 176 214
f 86 85 212
f 212 85 206
f 193 217 218
f 217 219 218
f 218 219 220
f 219 18 220
f 220 18 17
f 19 221 20
f 20 221 144
f 222 223 225
f 225 223 224
f 175 226 176
f 176 226 214
f 227 87 214
f 214 87 88
f 220 17 228
f 228 17 159
f 134 213 60
f 60 213 88
f 138 229 151
f 151 229 152
f 193 192 210
f 210 192 211
f 230 194 218
f 218 194 193
f 231 232 228
f 228 232 230
f 233 234 91
f 91 234 89
f 235 236 93
f 93 236 92
f 230 232 234
f 234 232 237
f 47 238 48
f 48 238 239
f 240 191 235
f 235 191 236
f 5 8 116
f 116 8 241
f 242 243 189
f 189 243 160
f 244 245 98
f 98 245 99
f 156 246 47
f 47 246 238
f 76 247 77
f 77 247 248
f 250 125 249
f 249 125 124
f 252 253 251
f 251 253 254
f 111 110 36
f 36 110 255
f 256 33 255
f 255 33 36
f 257 258 154
f 154 258 155
f 63 169 133
f 133 169 139
f 66 170 63
f 63 170 169
f 173 170 129
f 129 170 66
f 129 128 173
f 173 128 259
f 128 260 259
f 259 260 261
f 213 134 262
f 262 134 137
f 263 264 186
f 186 264 187
f 112 265 113
f 113 265 266
f 11 267 268
f 234 233 230
f 230 233 194
f 153 269 70
f 70 269 67
f 175 178 165
f 165 178 141
f 150 153 94
f 94 153 70
f 271 221 270
f 270 221 207
f 269 153 272
f 272 153 152
f 121 45 109
f 109 45 108
f 47 50 156
f 156 50 157
f 57 273 58
f 58 273 274
f 145 275 260
f 260 275 261
f 276 149 143
f 143 149 78
f 148 269 75
f 75 269 272
f 207 277 270
f 270 277 278
f 195 196 49
f 49 196 50
f 59 135 60
f 60 135 134
f 83 104 202
f 202 104 279
f 149 148 78
f 78 148 75
f 247 278 248
f 248 278 277
f 183 182 84
f 84 182 81
f 48 239 281
f 281 239 282
f 227 223 283
f 283 223 222
f 223 226 224
f 224 226 168
f 281 282 224
f 224 282 225
f 165 168 175
f 175 168 226
f 264 263 138
f 138 263 229
f 14 16 128
f 128 16 260
f 220 228 218
f 218 228 230
f 87 227 284
f 284 227 283
f 260 16 145
f 145 16 146
f 244 98 258
f 258 98 155
f 58 274 156
f 156 274 246
f 107 285 51
f 51 285 55
f 243 286 160
f 160 286 96
f 234 237 89
f 89 237 90
f 46 132 107
f 107 132 285
f 253 252 249
f 249 252 250
f 286 26 96
f 96 26 25
f 106 105 287
f 287 105 288
f 272 152 289
f 289 152 229
f 138 151 139
f 139 151 133
f 183 290 161
f 161 290 162
f 291 292 277
f 277 292 293
f 151 150 133
f 133 150 94
f 262 275 177
f 177 275 187
f 144 187 145
f 145 187 275
f 273 57 284
f 284 57 87
f 174 136 190
f 190 136 135
f 111 117 112
f 112 117 38
f 117 119 38
f 38 119 123
f 112 38 265
f 265 38 37
f 287 288 254
f 254 288 251
f 228 159 231
f 231 159 15
f 223 227 226
f 226 227 214
f 147 67 148
f 148 67 269
f 224 168 281
f 281 168 167
f 199 163 200
f 200 163 162
f 45 46 108
f 108 46 107
f 281 167 48
f 48 167 49
f 161 164 291
f 291 164 292
f 38 123 39
f 293 294 277
f 277 294 248
f 284 283 296
f 296 283 295
f 284 296 273
f 273 296 297
f 274 273 298
f 298 273 297
f 246 274 299
f 299 274 298
f 283 222 295
f 295 222 300
f 222 225 300
f 300 225 301
f 301 225 302
f 302 225 282
f 303 304 300
f 300 304 295
f 306 307 305
f 305 307 308
f 309 310 308
f 308 310 305
f 308 307 312
f 312 307 311
f 313 314 312
f 312 314 315
f 311 316 312
f 312 316 313
f 317 304 311
f 311 304 316
f 315 309 312
f 312 309 308
f 318 319 321
f 321 319 320
f 319 318 309
f 309 318 310
f 311 307 317
f 317 307 306
f 306 297 317
f 317 297 296
f 306 322 297
f 297 322 298
f 305 323 306
f 306 323 322
f 323 305 324
f 324 305 310
f 304 317 295
f 295 317 296
f 318 325 310
f 310 325 324
f 323 324 326
f 326 324 327
f 324 325 327
f 327 325 328
f 326 327 329
f 329 327 330
f 329 331 326
f 326 331 332
f 333 330 328
f 328 330 327
f 323 326 322
f 322 326 332
f 322 332 298
f 298 332 299
f 325 318 334
f 334 318 321
f 313 316 335
f 335 316 304
f 335 336 313
f 313 336 314
f 304 303 335
f 335 303 337
f 336 335 338
f 338 335 337
f 336 339 314
f 314 339 340
f 246 299 238
f 238 299 341
f 239 342 282
f 282 342 302
f 342 239 341
f 341 239 238
f 341 331 342
f 342 331 343
f 331 329 343
f 343 329 344
f 342 343 302
f 302 343 345
f 341 299 331
f 331 299 332
f 346 301 345
f 345 301 302
f 346 303 301
f 301 303 300
f 347 337 346
f 346 337 303
f 347 346 348
f 348 346 345
f 349 347 350
f 350 347 348
f 343 344 345
f 345 344 348
f 344 351 348
f 348 351 350
f 337 347 338
f 338 347 349
f 353 338 352
f 352 338 349
f 352 355 354
f 354 355 356
f 352 349 355
f 355 349 350
f 352 354 353
f 353 354 334
f 353 334 339
f 339 334 321
f 339 336 353
f 353 336 338
f 329 330 344
f 344 330 351
f 356 351 333
f 333 351 330
f 356 355 351
f 351 355 350
f 354 356 328
f 328 356 333
f 328 325 354
f 354 325 334
f 309 315 319
f 319 315 320
f 320 340 321
f 321 340 339
f 320 315 340
f 340 315 314
f 137 136 261
f 261 136 259
f 140 166 141
f 141 166 165
f 172 171 195
f 195 171 196
f 171 174 196
f 196 174 190
f 178 177 264
f 264 177 187
f 172 195 140
f 140 195 166
f 137 261 262
f 262 261 275
f 178 264 141
f 141 264 138
f 262 177 213
f 213 177 176
f 136 174 259
f 259 174 173
f 358 359 357
f 357 359 360
f 362 363 361
f 361 363 364
f 361 364 365
f 365 364 366
f 367 368 370
f 370 368 369
f 76 371 247
f 247 371 372
f 373 374 362
f 362 374 363
f 376 377 375
f 375 377 378
f 289 229 380
f 380 229 379
f 381 379 263
f 263 379 229
f 383 384 382
f 382 384 385
f 386 368 374
f 374 368 363
f 76 289 371
f 371 289 380
f 377 376 359
f 359 376 387
f 388 386 360
f 360 386 374
f 389 383 366
f 366 383 390
f 392 393 391
f 391 393 394
f 383 382 390
f 390 382 395
f 396 365 390
f 390 365 366
f 389 366 367
f 367 366 364
f 357 397 358
f 358 397 398
f 373 399 357
f 357 399 397
f 389 367 400
f 400 367 370
f 382 385 375
f 375 385 372
f 357 360 373
f 373 360 374
f 361 401 362
f 362 401 402
f 387 388 359
f 359 388 360
f 363 368 364
f 364 368 367
f 358 398 403
f 403 398 404
f 396 392 405
f 405 392 391
f 392 395 393
f 393 395 378
f 393 403 394
f 394 403 404
f 375 378 382
f 382 378 395
f 365 396 406
f 406 396 405
f 362 402 373
f 373 402 399
f 271 270 400
f 400 270 384
f 401 361 406
f 406 361 365
f 381 369 386
f 386 369 368
f 392 396 395
f 395 396 390
f 393 378 403
f 403 378 377
f 403 377 358
f 358 377 359
f 406 405 408
f 408 405 407
f 406 408 401
f 401 408 409
f 401 409 402
f 402 409 410
f 402 410 399
f 399 410 411
f 405 391 407
f 407 391 412
f 391 394 412
f 412 394 413
f 394 404 413
f 413 404 414
f 415 416 412
f 412 416 407
f 418 419 417
f 417 419 420
f 421 422 418
f 418 422 419
f 419 422 424
f 424 422 423
f 425 426 424
f 424 426 427
f 423 428 424
f 424 428 425
f 427 420 424
f 424 420 419
f 420 429 417
f 417 429 430
f 423 422 431
f 431 422 421
f 421 409 431
f 431 409 408
f 421 432 409
f 409 432 410
f 418 433 421
f 421 433 432
f 434 433 417
f 417 433 418
f 431 416 423
f 423 416 428
f 416 431 407
f 407 431 408
f 435 434 430
f 430 434 417
f 433 434 436
f 436 434 437
f 434 435 437
f 437 435 438
f 436 437 439
f 439 437 440
f 439 441 436
f 436 441 442
f 438 443 437
f 437 443 440
f 436 442 433
f 433 442 432
f 432 442 410
f 410 442 411
f 435 430 445
f 445 430 444
f 430 429 444
f 444 429 446
f 425 428 447
f 447 428 416
f 426 425 448
f 448 425 447
f 416 415 447
f 447 415 449
f 447 449 448
f 448 449 450
f 451 452 448
f 448 452 426
f 446 452 444
f 444 452 451
f 399 411 397
f 397 411 453
f 398 454 404
f 404 454 414
f 454 398 453
f 453 398 397
f 453 441 454
f 454 441 455
f 441 439 455
f 455 439 456
f 454 455 414
f 414 455 457
f 441 453 442
f 442 453 411
f 458 413 457
f 457 413 414
f 458 415 413
f 413 415 412
f 458 459 415
f 415 459 449
f 459 458 460
f 460 458 457
f 461 459 462
f 462 459 460
f 455 456 457
f 457 456 460
f 456 463 460
f 460 463 462
f 459 461 449
f 449 461 450
f 465 450 464
f 464 450 461
f 464 467 466
f 466 467 468
f 464 461 467
f 467 461 462
f 464 466 465
f 465 466 445
f 465 445 451
f 451 445 444
f 451 448 465
f 465 448 450
f 439 440 456
f 456 440 463
f 468 463 443
f 443 463 440
f 468 467 463
f 463 467 462
f 466 468 438
f 438 468 443
f 438 435 466
f 466 435 445
f 420 427 429
f 429 427 446
f 446 427 452
f 452 427 426
f 370 369 188
f 188 369 186
f 371 376 372
f 372 376 375
f 380 379 387
f 387 379 388
f 379 381 388
f 388 381 386
f 385 384 278
f 278 384 270
f 380 387 371
f 371 387 376
f 400 370 271
f 271 370 188
f 385 278 372
f 372 278 247
f 400 384 389
f 389 384 383
f 369 381 186
f 186 381 263
f 221 271 144
f 144 271 188
f 221 19 207
f 207 19 22
f 19 18 22
f 22 18 23
f 18 219 23
f 23 219 208
f 469 470 472
f 472 470 471
f 474 475 473
f 473 475 476
f 473 476 477
f 477 476 478
f 480 481 479
f 479 481 482
f 483 484 474
f 474 484 475
f 486 487 485
f 485 487 488
f 489 490 77
f 77 490 142
f 491 489 248
f 248 489 77
f 493 494 492
f 492 494 495
f 496 480 484
f 484 480 475
f 486 497 487
f 487 497 471
f 498 496 472
f 472 496 484
f 499 493 478
f 478 493 500
f 501 502 504
f 504 502 503
f 493 492 500
f 500 492 505
f 506 477 500
f 500 477 478
f 499 478 479
f 479 478 476
f 469 507 470
f 470 507 508
f 483 509 469
f 469 509 507
f 479 482 499
f 499 482 510
f 492 495 485
f 485 495 511
f 483 469 484
f 484 469 472
f 473 512 474
f 474 512 513
f 497 498 471
f 471 498 472
f 475 480 476
f 476 480 479
f 470 508 514
f 514 508 515
f 506 502 516
f 516 502 501
f 503 502 488
f 488 502 505
f 514 515 503
f 503 515 504
f 485 488 492
f 492 488 505
f 477 506 517
f 517 506 516
f 474 513 483
f 483 513 509
f 510 292 494
f 494 292 164
f 512 473 517
f 517 473 477
f 491 481 496
f 496 481 480
f 502 506 505
f 505 506 500
f 503 488 514
f 514 488 487
f 514 487 470
f 470 487 471
f 517 516 519
f 519 516 518
f 517 519 512
f 512 519 520
f 512 520 513
f 513 520 521
f 513 521 509
f 509 521 522
f 516 501 518
f 518 501 523
f 501 504 523
f 523 504 524
f 524 504 525
f 525 504 515
f 526 527 523
f 523 527 518
f 529 530 528
f 528 530 531
f 532 533 529
f 529 533 530
f 530 533 535
f 535 533 534
f 536 537 535
f 535 537 538
f 534 539 535
f 535 539 536
f 538 531 535
f 535 531 530
f 540 541 531
f 531 541 528
f 533 532 534
f 534 532 542
f 532 520 542
f 542 520 519
f 532 543 520
f 520 543 521
f 529 544 532
f 532 544 543
f 544 529 545
f 545 529 528
f 534 542 539
f 539 542 527
f 527 542 518
f 518 542 519
f 541 546 528
f 528 546 545
f 547 544 548
f 548 544 545
f 546 549 545
f 545 549 548
f 550 547 551
f 551 547 548
f 547 550 553
f 553 550 552
f 549 554 548
f 548 554 551
f 544 547 543
f 543 547 553
f 543 553 521
f 521 553 522
f 546 541 556
f 556 541 555
f 541 540 555
f 555 540 557
f 536 539 558
f 558 539 527
f 537 536 559
f 559 536 558
f 527 526 558
f 558 526 560
f 559 558 561
f 561 558 560
f 559 562 537
f 537 562 563
f 557 563 555
f 555 563 562
f 509 522 507
f 507 522 564
f 508 565 515
f 515 565 525
f 565 508 564
f 564 508 507
f 564 552 565
f 565 552 566
f 552 550 566
f 566 550 567
f 565 566 525
f 525 566 568
f 564 522 552
f 552 522 553
f 569 524 568
f 568 524 525
f 569 526 524
f 524 526 523
f 570 560 569
f 569 560 526
f 570 569 571
f 571 569 568
f 572 570 573
f 573 570 571
f 566 567 568
f 568 567 571
f 567 574 571
f 571 574 573
f 570 572 560
f 560 572 561
f 576 561 575
f 575 561 572
f 575 578 577
f 577 578 579
f 575 572 578
f 578 572 573
f 575 577 576
f 576 577 556
f 576 556 562
f 562 556 555
f 562 559 576
f 576 559 561
f 550 551 567
f 567 551 574
f 579 574 554
f 554 574 551
f 579 578 574
f 574 578 573
f 579 554 577
f 577 554 549
f 549 546 577
f 577 546 556
f 531 538 540
f 540 538 557
f 557 538 563
f 563 538 537
f 481 294 482
f 482 294 293
f 580 486 511
f 511 486 485
f 490 489 497
f 497 489 498
f 489 491 498
f 498 491 496
f 163 495 164
f 164 495 494
f 580 490 486
f 486 490 497
f 482 293 510
f 510 293 292
f 495 163 511
f 511 163 199
f 494 493 510
f 510 493 499
f 481 491 294
f 294 491 248
f 582 583 581
f 581 583 584
f 586 587 585
f 585 587 588
f 585 588 589
f 589 588 590
f 592 593 591
f 591 593 594
f 595 596 598
f 598 596 597
f 599 600 586
f 586 600 587
f 601 602 604
f 604 602 603
f 605 606 608
f 608 606 607
f 609 607 200
f 200 607 606
f 610 611 613
f 613 611 612
f 600 614 587
f 587 614 592
f 596 605 597
f 597 605 608
f 602 615 603
f 603 615 583
f 616 614 584
f 584 614 600
f 611 618 617
f 617 618 590
f 620 621 619
f 619 621 622
f 610 623 611
f 611 623 618
f 624 589 618
f 618 589 590
f 617 590 591
f 591 590 588
f 581 625 582
f 582 625 626
f 599 627 581
f 581 627 625
f 591 594 617
f 617 594 628
f 601 610 598
f 598 610 613
f 581 584 599
f 599 584 600
f 585 629 586
f 586 629 630
f 615 616 583
f 583 616 584
f 587 592 588
f 588 592 591
f 582 626 631
f 631 626 632
f 624 620 633
f 633 620 619
f 621 620 604
f 604 620 623
f 631 632 621
f 621 632 622
f 610 601 623
f 623 601 604
f 589 624 634
f 634 624 633
f 586 630 599
f 599 630 627
f 203 202 628
f 628 202 612
f 629 585 634
f 634 585 589
f 609 593 614
f 614 593 592
f 620 624 623
f 623 624 618
f 631 621 603
f 603 621 604
f 582 631 583
f 583 631 603
f 634 633 636
f 636 633 635
f 634 636 629
f 629 636 637
f 629 637 630
f 630 637 638
f 630 638 627
f 627 638 639
f 633 619 635
f 635 619 640
f 619 622 640
f 640 622 641
f 641 622 642
f 642 622 632
f 644 635 643
f 643 635 640
f 645 646 648
f 648 646 647
f 649 650 646
f 646 650 647
f 647 650 652
f 652 650 651
f 652 653 655
f 655 653 654
f 651 656 652
f 652 656 653
f 655 648 652
f 652 648 647
f 648 657 645
f 645 657 658
f 650 649 651
f 651 649 659
f 649 637 659
f 659 637 636
f 649 660 637
f 637 660 638
f 661 660 646
f 646 660 649
f 662 661 645
f 645 661 646
f 651 659 656
f 656 659 644
f 644 659 635
f 635 659 636
f 663 662 658
f 658 662 645
f 664 661 665
f 665 661 662
f 663 666 662
f 662 666 665
f 667 664 668
f 668 664 665
f 664 667 670
f 670 667 669
f 666 671 665
f 665 671 668
f 661 664 660
f 660 664 670
f 660 670 638
f 638 670 639
f 658 672 663
f 663 672 673
f 658 657 672
f 672 657 674
f 653 656 675
f 675 656 644
f 653 675 654
f 654 675 676
f 675 644 677
f 677 644 643
f 676 675 678
f 678 675 677
f 679 680 676
f 676 680 654
f 674 680 672
f 672 680 679
f 627 639 625
f 625 639 681
f 626 682 632
f 632 682 642
f 681 682 625
f 625 682 626
f 669 683 681
f 681 683 682
f 667 684 669
f 669 684 683
f 682 683 642
f 642 683 685
f 681 639 669
f 669 639 670
f 686 641 685
f 685 641 642
f 641 686 640
f 640 686 643
f 686 687 643
f 643 687 677
f 687 686 688
f 688 686 685
f 689 687 690
f 690 687 688
f 683 684 685
f 685 684 688
f 684 691 688
f 688 691 690
f 687 689 677
f 677 689 678
f 693 678 692
f 692 678 689
f 692 695 694
f 694 695 696
f 692 689 695
f 695 689 690
f 692 694 693
f 693 694 673
f 693 673 679
f 679 673 672
f 679 676 693
f 693 676 678
f 684 667 691
f 691 667 668
f 696 691 671
f 671 691 668
f 696 695 691
f 691 695 690
f 694 696 666
f 666 696 671
f 666 663 694
f 694 663 673
f 648 655 657
f 657 655 674
f 674 655 680
f 680 655 654
f 593 162 594
f 594 162 290
f 598 597 601
f 601 597 602
f 615 608 616
f 616 608 607
f 607 609 616
f 616 609 614
f 697 595 613
f 613 595 598
f 597 608 602
f 602 608 615
f 594 290 628
f 628 290 203
f 628 612 617
f 617 612 611
f 593 609 162
f 162 609 200
f 105 29 698
f 698 29 699
f 268 126 701
f 701 126 700
f 126 125 700
f 700 125 702
f 252 703 250
f 250 703 704
f 32 268 705
f 705 268 701
f 288 105 706
f 706 105 698
f 29 32 699
f 699 32 705
f 707 251 706
f 706 251 288
f 250 704 125
f 125 704 702
f 703 252 707
f 707 252 251
f 706 708 707
f 707 708 709
f 707 709 703
f 703 709 710
f 703 710 704
f 704 710 711
f 704 711 702
f 702 711 712
f 706 698 708
f 708 698 713
f 698 699 713
f 713 699 714
f 699 705 714
f 714 705 715
f 717 708 716
f 716 708 713
f 719 720 718
f 718 720 721
f 722 723 719
f 719 723 720
f 724 725 723
f 723 725 720
f 724 726 725
f 725 726 727
f 728 721 725
f 725 721 720
f 721 728 729
f 729 728 730
f 729 731 721
f 721 731 718
f 724 723 732
f 732 723 722
f 722 710 732
f 732 710 709
f 722 733 710
f 710 733 711
f 719 734 722
f 722 734 733
f 734 719 735
f 735 719 718
f 724 732 726
f 726 732 717
f 717 732 708
f 708 732 709
f 731 736 718
f 718 736 735
f 737 734 738
f 738 734 735
f 736 739 735
f 735 739 738
f 740 737 741
f 741 737 738
f 737 740 743
f 743 740 742
f 739 744 738
f 738 744 741
f 734 737 733
f 733 737 743
f 733 743 711
f 711 743 712
f 736 731 746
f 746 731 745
f 731 729 745
f 745 729 730
f 727 726 747
f 747 726 717
f 748 727 749
f 749 727 747
f 747 717 750
f 750 717 716
f 749 747 751
f 751 747 750
f 749 752 748
f 748 752 753
f 730 753 745
f 745 753 752
f 728 725 748
f 748 725 727
f 730 728 753
f 753 728 748
f 700 702 754
f 754 702 712
f 705 701 715
f 715 701 755
f 754 755 700
f 700 755 701
f 742 756 754
f 754 756 755
f 740 757 742
f 742 757 756
f 755 756 715
f 715 756 758
f 754 712 742
f 742 712 743
f 759 714 758
f 758 714 715
f 714 759 713
f 713 759 716
f 759 760 716
f 716 760 750
f 760 759 761
f 761 759 758
f 762 760 763
f 763 760 761
f 756 757 758
f 758 757 761
f 757 764 761
f 761 764 763
f 760 762 750
f 750 762 751
f 766 751 765
f 765 751 762
f 767 765 769
f 769 765 768
f 765 762 768
f 768 762 763
f 765 767 766
f 766 767 746
f 766 746 752
f 752 746 745
f 752 749 766
f 766 749 751
f 757 740 764
f 764 740 741
f 769 764 744
f 744 764 741
f 769 768 764
f 764 768 763
f 767 769 739
f 739 769 744
f 739 736 767
f 767 736 746
f 219 217 208
f 208 217 209
f 209 217 210
f 210 217 193
f 198 580 199
f 199 580 511
f 76 75 289
f 289 75 272
f 277 207 291
f 291 207 184
f 290 183 203
f 203 183 84
f 490 580 142
f 142 580 198
f 142 198 143
f 143 198 197
f 149 276 72
f 72 276 73
f 104 103 279
f 279 103 770
f 770 596 279
f 279 596 595
f 605 596 771
f 771 596 770
f 771 770 772
f 772 770 103
f 772 103 773
f 773 103 102
f 155 774 101
f 101 774 102
f 773 102 97
f 97 102 774
f 775 773 100
f 100 773 97
f 773 775 772
f 772 775 776
f 772 776 771
f 771 776 777
f 200 606 197
f 197 606 777
f 189 71 778
f 778 71 74
f 97 774 98
f 98 774 155
f 183 161 184
f 184 161 291
f 777 276 197
f 197 276 143
f 777 606 771
f 771 606 605
f 613 612 697
f 697 612 202
f 595 697 279
f 279 697 202
f 73 276 776
f 776 276 777
f 776 775 73
f 73 775 74
f 100 778 775
f 775 778 74
f 778 100 189
f 189 100 99
f 245 242 99
f 99 242 189
f 131 33 256
f 28 1 95
f 95 1 62
f 27 2 28
f 28 2 1
f 265 115 266
f 266 115 114
f 95 62 69
f 69 62 64
f 62 61 64
f 64 61 65
f 61 13 65
f 65 13 130
f 13 12 130
f 130 12 14
f 31 11 32
f 32 11 268
f 15 12 31
f 31 12 11
f 31 30 15
f 15 30 231
f 30 106 231
f 231 106 232
f 287 237 106
f 106 237 232
f 254 90 287
f 287 90 237
f 253 44 254
f 254 44 90
f 253 249 44
f 44 249 7
f 267 127 268
f 268 127 126
f 10 3 241
f 241 3 116
f 3 2 116
f 116 2 114
f 2 27 114
f 114 27 266
f 27 26 266
f 266 26 113
f 26 286 113
f 113 286 110
f 286 243 110
f 110 243 255
f 243 242 255
f 255 242 256
f 242 245 256
f 256 245 131
f 245 244 131
f 131 244 132
f 265 37 115
f 115 37 41
f 41 37 42
f 42 37 40
f 92 91 40
f 40 91 42
f 236 233 92
f 92 233 91
f 191 194 236
f 236 194 233
f 258 285 244
f 244 285 132
f 257 55 258
f 258 55 285
f 257 154 201
f 201 154 185
f 56 201 204
f 204 201 180
f 55 257 56
f 56 257 201
f 204 85 56
f 56 85 52
f 86 122 53
f 53 122 79
f 212 215 86
f 86 215 122
f 211 216 212
f 212 216 215
f 192 280 211
f 211 280 216
f 191 240 192
f 192 240 280
f 249 124 7
f 7 124 8
f 124 127 8
f 8 127 241
f 127 267 241
f 241 267 10
f 10 267 9
f 9 267 11
o hand_right
v 0.171366 0.083437 0.541689
v 0.174171 0.090857 0.534359
v 0.170035 0.081222 0.531816
v 0.168778 0.074295 0.539294
v 0.174847 0.092131 0.512983
v 0.183634 0.090109 0.504742
v 0.175860 0.076402 0.506814
v 0.168980 0.080524 0.513173
v 0.168192 0.066038 0.538748
v 0.166886 0.073236 0.530501
v 0.172049 0.061462 0.539014
v 0.177189 0.056412 0.549862
v 0.171163 0.060177 0.547280
v 0.176853 0.053089 0.557721
v 0.187849 0.059684 0.551712
v 0.182304 0.055875 0.565310
v 0.192163 0.083748 0.568689
v 0.188789 0.095938 0.573268
v 0.179063 0.086432 0.584377
v 0.182813 0.074947 0.577755
v 0.173684 0.106695 0.584016
v 0.176184 0.095139 0.584864
v 0.186829 0.104627 0.574673
v 0.183993 0.114448 0.574283
v 0.172360 0.099188 0.545125
v 0.176257 0.106682 0.538536
v 0.176743 0.101098 0.537702
v 0.173068 0.093924 0.543732
v 0.177158 0.055563 0.529611
v 0.187601 0.060202 0.534078
v 0.180800 0.059304 0.538741
v 0.171757 0.057325 0.530664
v 0.180225 0.130157 0.522245
v 0.191717 0.136113 0.518234
v 0.194338 0.131221 0.516270
v 0.183532 0.126855 0.520789
v 0.195408 0.110149 0.507343
v 0.203166 0.116994 0.509142
v 0.216145 0.112627 0.508029
v 0.210633 0.104225 0.508597
v 0.188671 0.100164 0.505343
v 0.201761 0.095504 0.505055
v 0.194266 0.085311 0.504362
v 0.184014 0.071950 0.505842
v 0.188343 0.146689 0.524619
v 0.179138 0.143983 0.528073
v 0.135178 0.036444 0.571073
v 0.132044 0.041366 0.571670
v 0.135545 0.043029 0.571135
v 0.138014 0.037718 0.570841
v 0.190171 0.152305 0.543969
v 0.197296 0.150736 0.550916
v 0.199964 0.155459 0.546120
v 0.194326 0.155601 0.538628
v 0.184684 0.147850 0.550991
v 0.193306 0.143778 0.557000
v 0.135776 0.030185 0.582208
v 0.136370 0.029989 0.577133
v 0.140618 0.031275 0.578496
v 0.140374 0.032380 0.583593
v 0.168100 0.067286 0.546138
v 0.167338 0.076683 0.547213
v 0.160400 0.057978 0.558345
v 0.163347 0.066162 0.555223
v 0.167169 0.060716 0.552456
v 0.165242 0.054412 0.556489
v 0.159980 0.088882 0.561046
v 0.166270 0.095430 0.553766
v 0.167269 0.089011 0.552703
v 0.160393 0.080431 0.559438
v 0.160685 0.108240 0.555717
v 0.155332 0.100793 0.563029
v 0.152915 0.109001 0.563263
v 0.156368 0.112807 0.557351
v 0.148382 0.085693 0.574713
v 0.146085 0.081744 0.578541
v 0.144583 0.083974 0.578736
v 0.147587 0.089126 0.575036
v 0.203626 0.159790 0.541956
v 0.198926 0.157996 0.533582
v 0.165369 0.126617 0.581717
v 0.161201 0.134219 0.574702
v 0.151774 0.129301 0.582785
v 0.158978 0.122376 0.588952
v 0.204134 0.143975 0.554760
v 0.206846 0.150480 0.551475
v 0.133467 0.033678 0.586632
v 0.137986 0.036237 0.587685
v 0.205019 0.082974 0.512171
v 0.191917 0.068236 0.510901
v 0.213949 0.095056 0.514035
v 0.219993 0.103683 0.516230
v 0.225545 0.110233 0.515216
v 0.159171 0.068837 0.559618
v 0.169209 0.085872 0.548033
v 0.170913 0.103907 0.546114
v 0.155000 0.129458 0.552236
v 0.160418 0.134867 0.545109
v 0.161420 0.124260 0.543864
v 0.156886 0.121750 0.550835
v 0.154018 0.135343 0.567895
v 0.150270 0.130243 0.562956
v 0.145780 0.126139 0.568905
v 0.147686 0.130564 0.574867
v 0.181848 0.053226 0.524058
v 0.192963 0.061484 0.528691
v 0.184161 0.150483 0.535474
v 0.189868 0.151821 0.530355
v 0.196832 0.155065 0.526750
v 0.178253 0.117541 0.529337
v 0.185714 0.124579 0.519609
v 0.186538 0.120610 0.518010
v 0.179634 0.114795 0.529409
v 0.175498 0.098891 0.525299
v 0.180774 0.105079 0.514525
v 0.169658 0.088438 0.523479
v 0.198953 0.125619 0.512601
v 0.201790 0.136050 0.511127
v 0.206613 0.129102 0.508375
v 0.198556 0.144087 0.515686
v 0.196526 0.150884 0.521061
v 0.212169 0.156754 0.549678
v 0.211452 0.122271 0.507493
v 0.165398 0.071768 0.514139
v 0.162573 0.063747 0.514149
v 0.161865 0.063609 0.521959
v 0.163949 0.071586 0.522777
v 0.173336 0.048675 0.565409
v 0.168747 0.050106 0.559172
v 0.172364 0.055482 0.552458
v 0.171911 0.128831 0.530147
v 0.171189 0.140719 0.534609
v 0.156324 0.060572 0.562802
v 0.145291 0.034890 0.583681
v 0.145223 0.033392 0.577977
v 0.161165 0.041396 0.571927
v 0.161511 0.042785 0.578723
v 0.152720 0.059695 0.572573
v 0.153737 0.058255 0.565835
v 0.152280 0.057522 0.568009
v 0.149430 0.059517 0.573600
v 0.143114 0.093117 0.577644
v 0.145904 0.097613 0.574453
v 0.170648 0.067177 0.584375
v 0.178970 0.057724 0.579609
v 0.185678 0.064530 0.572026
v 0.158059 0.096026 0.561924
v 0.152162 0.090861 0.568649
v 0.150982 0.094724 0.569450
v 0.156478 0.069424 0.563551
v 0.153918 0.063867 0.567399
v 0.154180 0.069139 0.568775
v 0.156087 0.074772 0.564914
v 0.170289 0.139887 0.566917
v 0.161606 0.141382 0.559308
v 0.136439 0.032283 0.573063
v 0.139885 0.033393 0.573615
v 0.164264 0.102273 0.554767
v 0.192691 0.073631 0.562840
v 0.168986 0.108949 0.546906
v 0.152800 0.104558 0.591287
v 0.146041 0.106012 0.586539
v 0.142000 0.101902 0.586734
v 0.144967 0.099886 0.591654
v 0.136893 0.052437 0.579028
v 0.136444 0.050314 0.573705
v 0.133237 0.047676 0.574649
v 0.132578 0.049284 0.580266
v 0.156556 0.054704 0.562102
v 0.160870 0.050384 0.560364
v 0.155896 0.048212 0.563352
v 0.153261 0.053229 0.565271
v 0.164339 0.046247 0.563820
v 0.159281 0.043644 0.566270
v 0.138656 0.050823 0.585092
v 0.141517 0.045086 0.589014
v 0.156106 0.053753 0.585148
v 0.150378 0.057533 0.580954
v 0.194629 0.121919 0.566366
v 0.189418 0.131744 0.566322
v 0.178785 0.124585 0.574414
v 0.168611 0.118080 0.583575
v 0.158944 0.110978 0.590956
v 0.165222 0.100781 0.593090
v 0.175716 0.132041 0.572873
v 0.157926 0.063496 0.579312
v 0.165221 0.059394 0.582704
v 0.163096 0.064261 0.583249
v 0.164836 0.115098 0.547369
v 0.143932 0.035031 0.572807
v 0.225793 0.111889 0.537024
v 0.223273 0.121694 0.545702
v 0.218270 0.115104 0.548352
v 0.220520 0.104107 0.538207
v 0.138322 0.045135 0.569629
v 0.141191 0.039405 0.568916
v 0.142412 0.102927 0.575570
v 0.140299 0.098121 0.578590
v 0.139065 0.100043 0.580993
v 0.138763 0.105645 0.577681
v 0.187293 0.137116 0.564781
v 0.143623 0.125487 0.584399
v 0.150924 0.119455 0.590787
v 0.198864 0.137566 0.559350
v 0.203876 0.129208 0.559869
v 0.210286 0.134960 0.555410
v 0.164091 0.085570 0.592242
v 0.196607 0.113525 0.566733
v 0.205840 0.121861 0.559332
v 0.213606 0.128381 0.553992
v 0.219229 0.133621 0.550917
v 0.214874 0.140293 0.552609
v 0.143302 0.039507 0.587681
v 0.135161 0.042059 0.589692
v 0.220879 0.146720 0.550858
v 0.225150 0.138869 0.548446
v 0.208318 0.113266 0.557303
v 0.210563 0.102919 0.553501
v 0.199159 0.105544 0.564425
v 0.200783 0.094594 0.561437
v 0.172118 0.077985 0.592556
v 0.118582 0.038631 0.583974
v 0.128073 0.044214 0.585929
v 0.128132 0.046590 0.580640
v 0.118133 0.041604 0.580885
v 0.133251 0.047502 0.585921
v 0.130529 0.039524 0.588366
v 0.201537 0.082398 0.553232
v 0.152531 0.065196 0.572711
v 0.211151 0.090131 0.541244
v 0.197444 0.067011 0.545136
v 0.203093 0.073162 0.534664
v 0.220109 0.096788 0.527227
v 0.211460 0.082648 0.524165
v 0.229689 0.111788 0.525073
v 0.224753 0.104989 0.527497
v 0.200839 0.070076 0.520788
v 0.124927 0.035208 0.569699
v 0.122645 0.040209 0.571370
v 0.231123 0.117733 0.534612
v 0.166289 0.079042 0.523121
v 0.169884 0.119143 0.538643
v 0.172812 0.114335 0.538800
v 0.164414 0.137457 0.540913
v 0.166177 0.126144 0.537838
v 0.126507 0.030309 0.571172
v 0.145094 0.080421 0.582829
v 0.146515 0.081545 0.582560
v 0.170738 0.068892 0.507633
v 0.167434 0.062579 0.508302
v 0.177705 0.054558 0.510476
v 0.172738 0.058384 0.507043
v 0.178150 0.064689 0.506229
v 0.183990 0.061059 0.509968
v 0.176671 0.119622 0.529493
v 0.174464 0.122791 0.530185
v 0.177731 0.144446 0.558458
v 0.168752 0.145140 0.551274
v 0.167467 0.045390 0.569522
v 0.176076 0.050822 0.573208
v 0.168749 0.047442 0.576166
v 0.161325 0.048241 0.583308
v 0.153224 0.063046 0.576226
v 0.155793 0.060329 0.578224
v 0.183690 0.113465 0.516617
v 0.179116 0.108317 0.528220
v 0.166135 0.067774 0.529605
v 0.164996 0.061213 0.528619
v 0.155499 0.082797 0.565967
v 0.154739 0.078091 0.591983
v 0.161561 0.071997 0.591696
v 0.151889 0.077149 0.571710
v 0.124940 0.026842 0.578735
v 0.126205 0.027728 0.574004
v 0.169217 0.052497 0.581136
v 0.148025 0.102591 0.569304
v 0.155469 0.085016 0.591792
v 0.148261 0.080075 0.589170
v 0.143195 0.127295 0.576659
v 0.228885 0.127544 0.542279
v 0.128899 0.045833 0.575029
v 0.120571 0.043190 0.574917
v 0.120529 0.035050 0.585402
v 0.123610 0.029998 0.583931
v 0.175615 0.147032 0.542975
v 0.174428 0.110938 0.539102
v 0.191092 0.060974 0.518298
v 0.181306 0.053172 0.516987
v 0.150402 0.074291 0.574921
v 0.150135 0.111112 0.589827
v 0.156124 0.096525 0.594742
v 0.147250 0.092132 0.595674
v 0.147238 0.084715 0.593717
v 0.145651 0.080486 0.588119
v 0.115392 0.033543 0.583210
v 0.118494 0.028690 0.581801
v 0.120285 0.025642 0.576700
v 0.121876 0.026499 0.572563
v 0.122896 0.029927 0.570052
v 0.113218 0.037170 0.581730
v 0.113132 0.039793 0.578805
v 0.117008 0.042032 0.574329
v 0.109151 0.036662 0.578666
v 0.108057 0.031404 0.578826
v 0.109785 0.023849 0.567259
v 0.112990 0.024027 0.572227
v 0.110245 0.024222 0.572199
v 0.106810 0.024088 0.568559
v 0.102304 0.024128 0.565983
v 0.105165 0.023697 0.563958
v 0.110007 0.026681 0.576177
v 0.104848 0.026729 0.571790
v 0.103204 0.030260 0.573418
v 0.098812 0.029504 0.570086
v 0.100027 0.026231 0.568686
v 0.106669 0.029777 0.576513
v 0.111756 0.026751 0.577935
v 0.100817 0.024805 0.562778
v 0.099576 0.024410 0.564929
v 0.097682 0.026489 0.566651
v 0.096714 0.027486 0.563936
v 0.118090 0.025860 0.569847
v 0.111203 0.024859 0.565270
v 0.106136 0.026171 0.562207
v 0.101698 0.027050 0.561277
v 0.110892 0.028467 0.563258
v 0.106432 0.029040 0.561574
v 0.102616 0.030228 0.560969
v 0.109793 0.032589 0.562754
v 0.105820 0.032182 0.561702
v 0.119652 0.033737 0.568180
v 0.120789 0.029648 0.568618
v 0.103359 0.032261 0.560841
v 0.097105 0.029388 0.562832
v 0.103794 0.033683 0.574740
v 0.098962 0.032685 0.569647
v 0.104112 0.035976 0.573954
v 0.099064 0.035036 0.569243
v 0.095729 0.031135 0.566978
v 0.096914 0.029052 0.567890
v 0.122502 0.035031 0.569566
v 0.119866 0.040106 0.571464
v 0.117263 0.039121 0.570290
v 0.108100 0.036807 0.564418
v 0.114136 0.041093 0.572712
v 0.109485 0.039271 0.575793
v 0.104194 0.037815 0.571538
v 0.105554 0.038747 0.568470
v 0.100514 0.036576 0.567749
v 0.102230 0.036775 0.565860
v 0.104241 0.035291 0.562892
v 0.098584 0.034683 0.564663
v 0.096566 0.032972 0.566016
v 0.099251 0.031948 0.562137
v 0.100295 0.035510 0.564147
v 0.101480 0.033422 0.562308
v 0.122599 0.058121 0.575467
v 0.120201 0.063911 0.576693
v 0.124552 0.063890 0.578484
v 0.126254 0.058889 0.577324
v 0.120942 0.049989 0.586709
v 0.122508 0.050942 0.580790
v 0.126867 0.051094 0.583398
v 0.125448 0.051552 0.589975
v 0.118600 0.054197 0.591768
v 0.123684 0.056263 0.594448
v 0.131344 0.053064 0.591024
v 0.132387 0.052828 0.583977
v 0.151552 0.061202 0.581711
v 0.151994 0.061685 0.588439
v 0.143571 0.077083 0.578792
v 0.142516 0.077916 0.582315
v 0.122972 0.054357 0.576986
v 0.126924 0.054554 0.579207
v 0.125243 0.071671 0.583911
v 0.126603 0.069381 0.579109
v 0.122473 0.067965 0.580210
v 0.120484 0.069440 0.585158
v 0.149095 0.066304 0.575467
v 0.146612 0.072045 0.577044
v 0.150292 0.063248 0.577539
v 0.124790 0.070586 0.590467
v 0.126045 0.066208 0.595587
v 0.145477 0.073255 0.594757
v 0.142209 0.077010 0.590764
v 0.131878 0.055245 0.579067
v 0.128315 0.064577 0.576478
v 0.130390 0.059750 0.576003
v 0.129670 0.058924 0.595268
v 0.119950 0.063381 0.594522
v 0.103849 0.062438 0.583190
v 0.114169 0.066157 0.588457
v 0.115353 0.068062 0.583757
v 0.104066 0.065183 0.579003
v 0.119170 0.067921 0.590480
v 0.115287 0.061306 0.591775
v 0.109167 0.057393 0.568942
v 0.106848 0.063047 0.570494
v 0.109834 0.053016 0.570055
v 0.150158 0.066673 0.593542
v 0.109748 0.048725 0.579453
v 0.110411 0.050111 0.573092
v 0.117801 0.067711 0.579286
v 0.104800 0.065624 0.574217
v 0.104712 0.058484 0.585288
v 0.108234 0.052219 0.585015
v 0.100073 0.056649 0.582085
v 0.102914 0.051155 0.581339
v 0.104953 0.047789 0.576116
v 0.106476 0.049624 0.570906
v 0.106812 0.052832 0.568545
v 0.098980 0.060395 0.580290
v 0.099282 0.063529 0.576711
v 0.102189 0.064432 0.572711
v 0.093670 0.060297 0.574842
v 0.093072 0.055841 0.575873
v 0.091584 0.047377 0.559786
v 0.095471 0.047230 0.564359
v 0.093342 0.047491 0.565888
v 0.089644 0.047693 0.561811
v 0.097846 0.046741 0.570132
v 0.095460 0.047543 0.569963
v 0.094009 0.050456 0.573277
v 0.090643 0.050782 0.568172
v 0.089334 0.055053 0.570023
v 0.085153 0.054710 0.566097
v 0.086138 0.050335 0.564299
v 0.091854 0.053671 0.573378
v 0.086759 0.048421 0.559734
v 0.086844 0.049160 0.557260
v 0.095800 0.049945 0.575759
v 0.103356 0.048490 0.568694
v 0.097223 0.048470 0.562108
v 0.092603 0.049443 0.557446
v 0.087102 0.051811 0.555754
v 0.097773 0.052040 0.559937
v 0.092840 0.052486 0.556341
v 0.088169 0.054329 0.555624
v 0.097387 0.056684 0.559091
v 0.092256 0.056662 0.556219
v 0.105242 0.057165 0.566469
v 0.105379 0.052342 0.566601
v 0.089603 0.056263 0.555887
v 0.083007 0.051474 0.559098
v 0.083813 0.054043 0.557043
v 0.083732 0.050788 0.560690
v 0.089133 0.057173 0.570256
v 0.085075 0.056822 0.565262
v 0.089319 0.059867 0.569319
v 0.084992 0.058814 0.563842
v 0.082362 0.055389 0.561662
v 0.082640 0.053815 0.562310
v 0.106446 0.057219 0.568421
v 0.104510 0.062248 0.570037
v 0.103378 0.062158 0.568315
v 0.095291 0.061072 0.561144
v 0.100279 0.064342 0.571153
v 0.095599 0.063017 0.573124
v 0.090554 0.062022 0.567882
v 0.092492 0.062885 0.564485
v 0.085572 0.060796 0.563057
v 0.088443 0.061717 0.561792
v 0.091002 0.060078 0.558059
v 0.083374 0.058709 0.559476
v 0.082422 0.056805 0.560570
v 0.085172 0.055800 0.556631
v 0.086006 0.060132 0.559157
v 0.087605 0.057944 0.556704
v 0.121206 0.077759 0.576619
v 0.120010 0.083392 0.576423
v 0.123506 0.084169 0.577716
v 0.124635 0.078590 0.578219
v 0.118090 0.073246 0.588267
v 0.119383 0.072156 0.583588
v 0.123418 0.072860 0.585552
v 0.123214 0.074199 0.590861
v 0.114681 0.077106 0.590663
v 0.121300 0.078898 0.594325
v 0.128305 0.075526 0.592938
v 0.127594 0.073843 0.587085
v 0.141574 0.079293 0.587896
v 0.141130 0.081423 0.594131
v 0.120619 0.074251 0.579533
v 0.124068 0.074893 0.581076
v 0.122674 0.091762 0.582274
v 0.124247 0.088894 0.578574
v 0.121230 0.088596 0.579827
v 0.119424 0.090371 0.583398
v 0.142149 0.084539 0.578801
v 0.140977 0.090542 0.578988
v 0.141528 0.080746 0.582135
v 0.121899 0.091543 0.588843
v 0.123575 0.087891 0.594912
v 0.136413 0.094955 0.593706
v 0.135901 0.097494 0.588083
v 0.127479 0.075262 0.582077
v 0.126527 0.084360 0.576827
v 0.127488 0.078855 0.577853
v 0.126777 0.081127 0.595640
v 0.118406 0.085331 0.593444
v 0.099814 0.083087 0.580887
v 0.113841 0.088161 0.587541
v 0.115716 0.089332 0.582032
v 0.100875 0.085169 0.577095
v 0.117497 0.089672 0.588786
v 0.113517 0.083548 0.591123
v 0.107381 0.075676 0.569671
v 0.106145 0.080990 0.570280
v 0.108171 0.072398 0.572610
v 0.139315 0.087766 0.597074
v 0.137406 0.096822 0.581863
v 0.105294 0.070174 0.579230
v 0.107293 0.070535 0.575347
v 0.117896 0.087705 0.578711
v 0.103263 0.084817 0.573180
v 0.100661 0.079244 0.583761
v 0.103288 0.073613 0.583747
v 0.096243 0.078454 0.580427
v 0.098895 0.072844 0.580321
v 0.101074 0.069187 0.576269
v 0.103475 0.069823 0.572559
v 0.104640 0.071838 0.569966
v 0.095678 0.082275 0.577446
v 0.097009 0.084023 0.574137
v 0.101673 0.083811 0.571921
v 0.092540 0.082040 0.574047
v 0.090802 0.077110 0.575601
v 0.087776 0.067811 0.561899
v 0.091933 0.068298 0.565944
v 0.091034 0.068764 0.566676
v 0.086498 0.068080 0.563044
v 0.095098 0.068662 0.571831
v 0.093295 0.069154 0.571182
v 0.091844 0.071741 0.573695
v 0.087284 0.071472 0.569183
v 0.086811 0.077413 0.569844
v 0.083338 0.076201 0.566100
v 0.083274 0.070689 0.565447
v 0.090068 0.075839 0.573983
v 0.083763 0.068565 0.561342
v 0.084066 0.067347 0.559835
v 0.093312 0.071869 0.575669
v 0.099262 0.068589 0.569295
v 0.094007 0.068303 0.563849
v 0.089952 0.067789 0.559495
v 0.086238 0.069109 0.557425
v 0.095715 0.070933 0.561679
v 0.091413 0.070371 0.558332
v 0.088011 0.071460 0.556508
v 0.096200 0.074065 0.560691
v 0.092090 0.073542 0.557981
v 0.103427 0.075128 0.567113
v 0.102022 0.071230 0.567720
v 0.089127 0.073480 0.556778
v 0.080889 0.070823 0.560663
v 0.082602 0.073369 0.557733
v 0.081775 0.070817 0.562180
v 0.087237 0.079218 0.570118
v 0.082813 0.078319 0.565143
v 0.088443 0.081465 0.568830
v 0.084064 0.080397 0.563863
v 0.080592 0.075676 0.562489
v 0.081043 0.074800 0.563225
v 0.105295 0.075656 0.568856
v 0.104271 0.080554 0.569539
v 0.102652 0.079858 0.567771
v 0.095009 0.078584 0.560816
v 0.100102 0.083269 0.569880
v 0.094135 0.083484 0.570971
v 0.090355 0.082289 0.566287
v 0.092417 0.081589 0.563169
v 0.086182 0.081109 0.562168
v 0.088755 0.080496 0.561075
v 0.091210 0.077542 0.558076
v 0.084373 0.078393 0.559571
v 0.081805 0.077549 0.560837
v 0.085233 0.074929 0.556771
v 0.086773 0.078726 0.558836
v 0.087542 0.076066 0.556818
v 0.139174 0.094650 0.579706
v 0.119272 0.100472 0.575752
v 0.118508 0.104340 0.574437
v 0.119994 0.105556 0.575651
v 0.121841 0.101782 0.576552
v 0.117524 0.099530 0.586867
v 0.118422 0.097554 0.582731
v 0.122372 0.098380 0.584699
v 0.121643 0.100326 0.588693
v 0.115824 0.103971 0.588573
v 0.119624 0.105145 0.590038
v 0.125352 0.101730 0.589344
v 0.126169 0.099660 0.585182
v 0.140828 0.105189 0.585304
v 0.141816 0.108897 0.589359
v 0.137691 0.123864 0.577148
v 0.139313 0.120802 0.572678
v 0.131580 0.117394 0.574998
v 0.131491 0.120672 0.578731
v 0.119092 0.098203 0.578850
v 0.122775 0.098912 0.579811
v 0.118977 0.114660 0.579792
v 0.120157 0.111394 0.576388
v 0.118718 0.109548 0.575869
v 0.116752 0.112969 0.578351
v 0.139536 0.115266 0.571952
v 0.140045 0.110576 0.574142
v 0.136313 0.109051 0.574072
v 0.132374 0.112529 0.573862
v 0.137665 0.105128 0.578285
v 0.118887 0.115003 0.584099
v 0.120262 0.112264 0.589246
v 0.135488 0.121499 0.588140
v 0.133677 0.122388 0.583486
v 0.124923 0.099631 0.580722
v 0.121926 0.107074 0.575586
v 0.122985 0.102885 0.576821
v 0.123228 0.106747 0.591345
v 0.117073 0.110564 0.587765
v 0.106389 0.109739 0.577924
v 0.113891 0.112709 0.581444
v 0.115124 0.111909 0.576746
v 0.107324 0.109455 0.575012
v 0.116014 0.113383 0.582797
v 0.113623 0.109487 0.586140
v 0.111761 0.098469 0.572316
v 0.111000 0.103569 0.571412
v 0.111636 0.096381 0.574830
v 0.140070 0.115184 0.591074
v 0.109123 0.097239 0.581780
v 0.110328 0.095489 0.577915
v 0.116938 0.108225 0.574620
v 0.109176 0.107370 0.572547
v 0.106046 0.107419 0.581627
v 0.107487 0.102084 0.584198
v 0.102222 0.105835 0.579481
v 0.104113 0.100436 0.581888
v 0.105929 0.095561 0.579009
v 0.108030 0.094790 0.576013
v 0.109282 0.095620 0.573204
v 0.102802 0.108269 0.575918
v 0.104284 0.108119 0.573217
v 0.106938 0.106412 0.571100
v 0.099298 0.106630 0.573832
v 0.097430 0.103129 0.576553
v 0.095215 0.092121 0.568975
v 0.098420 0.092902 0.571380
v 0.097670 0.093488 0.572165
v 0.094514 0.092056 0.569872
v 0.101347 0.094461 0.575587
v 0.099781 0.095046 0.575432
v 0.099136 0.098112 0.577159
v 0.095203 0.096442 0.574097
v 0.093443 0.101323 0.572795
v 0.090500 0.099424 0.570505
v 0.092125 0.095260 0.572126
v 0.096532 0.101292 0.576223
v 0.091888 0.091852 0.569093
v 0.091594 0.091239 0.567882
v 0.100217 0.098460 0.578513
v 0.104788 0.093677 0.573333
v 0.099411 0.092210 0.569214
v 0.095073 0.091421 0.566765
v 0.091522 0.092098 0.565764
v 0.101173 0.093397 0.567664
v 0.096008 0.092292 0.564780
v 0.092589 0.093148 0.563874
v 0.102288 0.095949 0.565789
v 0.096968 0.094580 0.563750
v 0.107937 0.098028 0.569231
v 0.106724 0.095116 0.571034
v 0.093802 0.094492 0.563568
v 0.088902 0.093952 0.568480
v 0.089471 0.094676 0.565656
v 0.089334 0.094324 0.569912
v 0.093625 0.102637 0.572211
v 0.090099 0.100431 0.569275
v 0.094580 0.104239 0.570384
v 0.090774 0.101120 0.567289
v 0.088356 0.097551 0.568085
v 0.089130 0.097099 0.569723
v 0.109574 0.098399 0.570505
v 0.109084 0.102672 0.570219
v 0.107106 0.102257 0.568806
v 0.101715 0.099813 0.565121
v 0.104766 0.105858 0.569721
v 0.101708 0.107167 0.571747
v 0.096436 0.104383 0.568266
v 0.098870 0.103151 0.566136
v 0.092014 0.100908 0.565438
v 0.094508 0.100056 0.563840
v 0.096560 0.097692 0.563071
v 0.090440 0.097568 0.564546
v 0.089022 0.097587 0.565838
v 0.090855 0.095385 0.564190
v 0.092182 0.097584 0.563565
v 0.092964 0.096208 0.563345
v 0.137298 0.123728 0.581340
v 0.170544 0.043787 0.522510
v 0.167165 0.045998 0.526600
v 0.155133 0.052780 0.518123
v 0.157189 0.050775 0.524494
v 0.156329 0.052002 0.511579
v 0.165257 0.047803 0.507159
v 0.160763 0.050960 0.507979
v 0.161646 0.048332 0.527548
v 0.172478 0.043163 0.516798
v 0.170695 0.044819 0.510075
v 0.168702 0.036051 0.517723
v 0.166446 0.037789 0.510528
v 0.161113 0.040380 0.507039
v 0.156258 0.044993 0.508212
v 0.152920 0.047344 0.511101
v 0.166465 0.038793 0.523813
v 0.163011 0.041546 0.527370
v 0.157733 0.045533 0.527401
v 0.160566 0.033983 0.526248
v 0.155158 0.026662 0.521932
v 0.139323 0.023733 0.511740
v 0.143522 0.028911 0.510591
v 0.145067 0.026653 0.511675
v 0.141324 0.021920 0.512102
v 0.148767 0.030658 0.510261
v 0.148655 0.028762 0.511843
v 0.152354 0.027463 0.515461
v 0.148786 0.023293 0.515820
v 0.153012 0.025926 0.520350
v 0.150279 0.023441 0.521911
v 0.145289 0.019153 0.516431
v 0.140519 0.018197 0.513293
v 0.142027 0.015879 0.517051
v 0.137538 0.019219 0.514044
v 0.154406 0.026775 0.514334
v 0.149422 0.037701 0.508785
v 0.142421 0.032599 0.510772
v 0.137439 0.026757 0.513129
v 0.135774 0.021279 0.515900
v 0.141009 0.035898 0.513551
v 0.137177 0.029974 0.516289
v 0.136101 0.025029 0.519345
v 0.140993 0.037639 0.518164
v 0.138077 0.031341 0.519963
v 0.149721 0.046775 0.517081
v 0.149006 0.043798 0.511301
v 0.137276 0.027143 0.520978
v 0.139591 0.015260 0.518418
v 0.137680 0.017652 0.520627
v 0.151270 0.024543 0.525087
v 0.147391 0.019050 0.522453
v 0.146859 0.020316 0.525318
v 0.151598 0.027512 0.527929
v 0.145929 0.022148 0.527480
v 0.143143 0.016493 0.523351
v 0.144660 0.016429 0.520852
v 0.152232 0.049459 0.516901
v 0.154461 0.048837 0.523088
v 0.152245 0.046163 0.523378
v 0.143769 0.037642 0.524265
v 0.154753 0.042729 0.528035
v 0.158282 0.037678 0.528655
v 0.149933 0.030641 0.529513
v 0.147194 0.034633 0.528531
v 0.144057 0.025309 0.528096
v 0.142576 0.027909 0.527187
v 0.139642 0.030425 0.524036
v 0.140492 0.022169 0.525843
v 0.141751 0.018728 0.525410
v 0.137482 0.021997 0.522668
v 0.140414 0.025062 0.525642
v 0.138369 0.025618 0.523403
v 0.143010 0.123097 0.571062
v 0.143524 0.116671 0.569366
v 0.146284 0.120703 0.566273
v 0.150092 0.124946 0.559669
v 0.154702 0.133856 0.556638
v 0.152536 0.118592 0.558195
v 0.148250 0.114525 0.565297
v 0.144390 0.108827 0.570642
v 0.159961 0.116326 0.551721
f 780 781 779
f 779 781 782
f 783 784 786
f 786 784 785
f 787 782 788
f 788 782 781
f 790 791 789
f 789 791 787
f 792 790 794
f 794 790 793
f 796 797 795
f 795 797 798
f 800 801 799
f 799 801 802
f 804 805 803
f 803 805 806
f 808 809 807
f 807 809 810
f 811 812 814
f 814 812 813
f 815 816 818
f 818 816 817
f 819 820 784
f 784 820 821
f 784 821 785
f 785 821 822
f 823 812 824
f 824 812 811
f 826 827 825
f 825 827 828
f 830 831 829
f 829 831 832
f 834 830 833
f 833 830 829
f 836 837 835
f 835 837 838
f 839 840 782
f 782 840 779
f 842 843 841
f 841 843 844
f 846 847 845
f 845 847 848
f 850 851 849
f 849 851 852
f 854 855 853
f 853 855 856
f 831 857 832
f 832 857 858
f 860 861 859
f 859 861 862
f 863 864 830
f 830 864 831
f 835 838 865
f 865 838 866
f 867 868 821
f 821 868 822
f 821 820 867
f 867 820 869
f 818 817 870
f 870 817 871
f 872 848 842
f 842 848 847
f 791 839 787
f 787 839 782
f 803 806 847
f 847 806 873
f 874 803 846
f 846 803 847
f 876 877 875
f 875 877 878
f 879 880 882
f 882 880 881
f 884 808 883
f 883 808 807
f 829 832 885
f 885 832 886
f 832 858 886
f 886 858 887
f 889 890 888
f 888 890 891
f 893 783 892
f 892 783 894
f 893 819 783
f 783 819 784
f 814 813 889
f 889 813 895
f 813 896 895
f 895 896 897
f 812 898 813
f 813 898 896
f 812 823 898
f 898 823 899
f 903 904 902
f 902 904 905
f 906 907 792
f 792 907 908
f 811 909 824
f 824 909 910
f 911 872 841
f 841 872 842
f 912 913 915
f 915 913 914
f 917 918 916
f 916 918 919
f 855 920 856
f 856 920 921
f 922 923 798
f 798 923 924
f 926 927 925
f 925 927 850
f 929 930 928
f 928 930 931
f 860 879 861
f 861 879 882
f 879 860 933
f 933 860 932
f 934 935 836
f 836 935 837
f 936 846 925
f 925 846 845
f 937 924 793
f 793 924 794
f 846 936 874
f 874 936 938
f 907 844 908
f 908 844 843
f 940 941 939
f 939 941 942
f 944 945 943
f 943 945 946
f 948 949 947
f 947 949 950
f 952 949 951
f 951 949 948
f 954 955 953
f 953 955 956
f 958 959 957
f 957 959 802
f 960 961 799
f 799 961 962
f 859 963 860
f 860 963 932
f 964 965 966
f 966 965 922
f 936 849 938
f 938 849 967
f 968 913 935
f 935 913 837
f 947 950 917
f 917 950 918
f 925 850 936
f 936 850 849
f 970 971 969
f 969 971 972
f 945 944 827
f 827 944 973
f 974 968 828
f 828 968 935
f 975 976 978
f 978 976 977
f 799 802 960
f 960 802 959
f 924 937 798
f 798 937 795
f 960 959 859
f 859 959 963
f 979 963 958
f 958 963 959
f 980 981 861
f 861 981 862
f 983 984 982
f 982 984 863
f 985 800 962
f 962 800 799
f 957 802 986
f 986 802 801
f 986 987 957
f 957 987 983
f 987 988 983
f 983 988 984
f 990 984 989
f 989 984 988
f 957 983 958
f 958 983 982
f 991 954 866
f 866 954 992
f 864 863 990
f 990 863 984
f 971 995 996
f 995 997 996
f 996 997 998
f 997 796 998
f 998 796 795
f 797 999 798
f 798 999 922
f 1000 1001 1003
f 1003 1001 1002
f 953 1004 954
f 954 1004 992
f 1005 865 992
f 992 865 866
f 998 795 1006
f 1006 795 937
f 912 991 838
f 838 991 866
f 916 1007 929
f 929 1007 930
f 971 970 988
f 988 970 989
f 1008 972 996
f 996 972 971
f 1009 1010 1006
f 1006 1010 1008
f 1011 1012 869
f 869 1012 867
f 1013 1014 871
f 871 1014 870
f 1008 1010 1012
f 1012 1010 1015
f 825 1016 826
f 826 1016 1017
f 1018 969 1013
f 1013 969 1014
f 783 786 894
f 894 786 1019
f 1020 1021 967
f 967 1021 938
f 1022 1023 876
f 876 1023 877
f 934 1024 825
f 825 1024 1016
f 854 1025 855
f 855 1025 1026
f 1028 903 1027
f 1027 903 902
f 1030 1031 1029
f 1029 1031 1032
f 889 888 814
f 814 888 1033
f 1034 811 1033
f 1033 811 814
f 1035 1036 932
f 932 1036 933
f 841 947 911
f 911 947 917
f 844 948 841
f 841 948 947
f 951 948 907
f 907 948 844
f 907 906 951
f 951 906 1037
f 906 1038 1037
f 1037 1038 1039
f 991 912 1040
f 1040 912 915
f 1041 1042 964
f 964 1042 965
f 890 1043 891
f 891 1043 1044
f 789 1045 1046
f 1012 1011 1008
f 1008 1011 972
f 931 1047 848
f 848 1047 845
f 953 956 943
f 943 956 919
f 928 931 872
f 872 931 848
f 1049 999 1048
f 1048 999 985
f 1047 931 1050
f 1050 931 930
f 899 823 887
f 887 823 886
f 825 828 934
f 934 828 935
f 835 1051 836
f 836 1051 1052
f 923 1053 1038
f 1038 1053 1039
f 1054 927 921
f 921 927 856
f 926 1047 853
f 853 1047 1050
f 985 1055 1048
f 1048 1055 1056
f 973 974 827
f 827 974 828
f 837 913 838
f 838 913 912
f 861 882 980
f 980 882 1057
f 927 926 856
f 856 926 853
f 1025 1056 1026
f 1026 1056 1055
f 961 960 862
f 862 960 859
f 826 1017 1059
f 1059 1017 1060
f 1005 1001 1061
f 1061 1001 1000
f 1001 1004 1002
f 1002 1004 946
f 1059 1060 1002
f 1002 1060 1003
f 943 946 953
f 953 946 1004
f 1042 1041 916
f 916 1041 1007
f 792 794 906
f 906 794 1038
f 998 1006 996
f 996 1006 1008
f 865 1005 1062
f 1062 1005 1061
f 1038 794 923
f 923 794 924
f 1022 876 1036
f 1036 876 933
f 836 1052 934
f 934 1052 1024
f 885 1063 829
f 829 1063 833
f 1021 1064 938
f 938 1064 874
f 1012 1015 867
f 867 1015 868
f 824 910 885
f 885 910 1063
f 1031 1030 1027
f 1027 1030 1028
f 1064 804 874
f 874 804 803
f 884 883 1065
f 1065 883 1066
f 1050 930 1067
f 1067 930 1007
f 916 929 917
f 917 929 911
f 961 1068 939
f 939 1068 940
f 1069 1070 1055
f 1055 1070 1071
f 929 928 911
f 911 928 872
f 1040 1053 955
f 955 1053 965
f 922 965 923
f 923 965 1053
f 1051 835 1062
f 1062 835 865
f 952 914 968
f 968 914 913
f 889 895 890
f 890 895 816
f 895 897 816
f 816 897 901
f 890 816 1043
f 1043 816 815
f 1065 1066 1032
f 1032 1066 1029
f 1006 937 1009
f 1009 937 793
f 1001 1005 1004
f 1004 1005 992
f 925 845 926
f 926 845 1047
f 1002 946 1059
f 1059 946 945
f 977 941 978
f 978 941 940
f 823 824 886
f 886 824 885
f 1059 945 826
f 826 945 827
f 939 942 1069
f 1069 942 1070
f 816 901 817
f 1071 1072 1055
f 1055 1072 1026
f 1062 1061 1074
f 1074 1061 1073
f 1062 1074 1051
f 1051 1074 1075
f 1052 1051 1076
f 1076 1051 1075
f 1024 1052 1077
f 1077 1052 1076
f 1061 1000 1073
f 1073 1000 1078
f 1000 1003 1078
f 1078 1003 1079
f 1079 1003 1080
f 1080 1003 1060
f 1081 1082 1078
f 1078 1082 1073
f 1084 1085 1083
f 1083 1085 1086
f 1087 1088 1086
f 1086 1088 1083
f 1086 1085 1090
f 1090 1085 1089
f 1091 1092 1090
f 1090 1092 1093
f 1089 1094 1090
f 1090 1094 1091
f 1095 1082 1089
f 1089 1082 1094
f 1093 1087 1090
f 1090 1087 1086
f 1096 1097 1099
f 1099 1097 1098
f 1097 1096 1087
f 1087 1096 1088
f 1089 1085 1095
f 1095 1085 1084
f 1084 1075 1095
f 1095 1075 1074
f 1084 1100 1075
f 1075 1100 1076
f 1083 1101 1084
f 1084 1101 1100
f 1101 1083 1102
f 1102 1083 1088
f 1082 1095 1073
f 1073 1095 1074
f 1096 1103 1088
f 1088 1103 1102
f 1101 1102 1104
f 1104 1102 1105
f 1102 1103 1105
f 1105 1103 1106
f 1104 1105 1107
f 1107 1105 1108
f 1107 1109 1104
f 1104 1109 1110
f 1111 1108 1106
f 1106 1108 1105
f 1101 1104 1100
f 1100 1104 1110
f 1100 1110 1076
f 1076 1110 1077
f 1103 1096 1112
f 1112 1096 1099
f 1091 1094 1113
f 1113 1094 1082
f 1113 1114 1091
f 1091 1114 1092
f 1082 1081 1113
f 1113 1081 1115
f 1114 1113 1116
f 1116 1113 1115
f 1114 1117 1092
f 1092 1117 1118
f 1024 1077 1016
f 1016 1077 1119
f 1017 1120 1060
f 1060 1120 1080
f 1120 1017 1119
f 1119 1017 1016
f 1119 1109 1120
f 1120 1109 1121
f 1109 1107 1121
f 1121 1107 1122
f 1120 1121 1080
f 1080 1121 1123
f 1119 1077 1109
f 1109 1077 1110
f 1124 1079 1123
f 1123 1079 1080
f 1124 1081 1079
f 1079 1081 1078
f 1125 1115 1124
f 1124 1115 1081
f 1125 1124 1126
f 1126 1124 1123
f 1127 1125 1128
f 1128 1125 1126
f 1121 1122 1123
f 1123 1122 1126
f 1122 1129 1126
f 1126 1129 1128
f 1115 1125 1116
f 1116 1125 1127
f 1131 1116 1130
f 1130 1116 1127
f 1130 1133 1132
f 1132 1133 1134
f 1130 1127 1133
f 1133 1127 1128
f 1130 1132 1131
f 1131 1132 1112
f 1131 1112 1117
f 1117 1112 1099
f 1117 1114 1131
f 1131 1114 1116
f 1107 1108 1122
f 1122 1108 1129
f 1134 1129 1111
f 1111 1129 1108
f 1134 1133 1129
f 1129 1133 1128
f 1132 1134 1106
f 1106 1134 1111
f 1106 1103 1132
f 1132 1103 1112
f 1087 1093 1097
f 1097 1093 1098
f 1098 1118 1099
f 1099 1118 1117
f 1098 1093 1118
f 1118 1093 1092
f 915 914 1039
f 1039 914 1037
f 918 944 919
f 919 944 943
f 950 949 973
f 973 949 974
f 949 952 974
f 974 952 968
f 956 955 1042
f 1042 955 965
f 950 973 918
f 918 973 944
f 915 1039 1040
f 1040 1039 1053
f 956 1042 919
f 919 1042 916
f 1040 955 991
f 991 955 954
f 914 952 1037
f 1037 952 951
f 1136 1137 1135
f 1135 1137 1138
f 1140 1141 1139
f 1139 1141 1142
f 1139 1142 1143
f 1143 1142 1144
f 1145 1146 1148
f 1148 1146 1147
f 854 1149 1025
f 1025 1149 1150
f 1151 1152 1140
f 1140 1152 1141
f 1154 1155 1153
f 1153 1155 1156
f 1067 1007 1158
f 1158 1007 1157
f 1159 1157 1041
f 1041 1157 1007
f 1161 1162 1160
f 1160 1162 1163
f 1164 1146 1152
f 1152 1146 1141
f 854 1067 1149
f 1149 1067 1158
f 1155 1154 1137
f 1137 1154 1165
f 1166 1164 1138
f 1138 1164 1152
f 1167 1161 1144
f 1144 1161 1168
f 1170 1171 1169
f 1169 1171 1172
f 1161 1160 1168
f 1168 1160 1173
f 1174 1143 1168
f 1168 1143 1144
f 1167 1144 1145
f 1145 1144 1142
f 1135 1175 1136
f 1136 1175 1176
f 1151 1177 1135
f 1135 1177 1175
f 1167 1145 1178
f 1178 1145 1148
f 1160 1163 1153
f 1153 1163 1150
f 1135 1138 1151
f 1151 1138 1152
f 1139 1179 1140
f 1140 1179 1180
f 1165 1166 1137
f 1137 1166 1138
f 1141 1146 1142
f 1142 1146 1145
f 1136 1176 1181
f 1181 1176 1182
f 1174 1170 1183
f 1183 1170 1169
f 1170 1173 1171
f 1171 1173 1156
f 1171 1181 1172
f 1172 1181 1182
f 1153 1156 1160
f 1160 1156 1173
f 1143 1174 1184
f 1184 1174 1183
f 1140 1180 1151
f 1151 1180 1177
f 1049 1048 1178
f 1178 1048 1162
f 1179 1139 1184
f 1184 1139 1143
f 1159 1147 1164
f 1164 1147 1146
f 1170 1174 1173
f 1173 1174 1168
f 1171 1156 1181
f 1181 1156 1155
f 1181 1155 1136
f 1136 1155 1137
f 1184 1183 1186
f 1186 1183 1185
f 1184 1186 1179
f 1179 1186 1187
f 1179 1187 1180
f 1180 1187 1188
f 1180 1188 1177
f 1177 1188 1189
f 1183 1169 1185
f 1185 1169 1190
f 1169 1172 1190
f 1190 1172 1191
f 1172 1182 1191
f 1191 1182 1192
f 1193 1194 1190
f 1190 1194 1185
f 1196 1197 1195
f 1195 1197 1198
f 1199 1200 1196
f 1196 1200 1197
f 1197 1200 1202
f 1202 1200 1201
f 1203 1204 1202
f 1202 1204 1205
f 1201 1206 1202
f 1202 1206 1203
f 1205 1198 1202
f 1202 1198 1197
f 1198 1207 1195
f 1195 1207 1208
f 1201 1200 1209
f 1209 1200 1199
f 1199 1187 1209
f 1209 1187 1186
f 1199 1210 1187
f 1187 1210 1188
f 1196 1211 1199
f 1199 1211 1210
f 1212 1211 1195
f 1195 1211 1196
f 1209 1194 1201
f 1201 1194 1206
f 1194 1209 1185
f 1185 1209 1186
f 1213 1212 1208
f 1208 1212 1195
f 1211 1212 1214
f 1214 1212 1215
f 1212 1213 1215
f 1215 1213 1216
f 1214 1215 1217
f 1217 1215 1218
f 1217 1219 1214
f 1214 1219 1220
f 1216 1221 1215
f 1215 1221 1218
f 1214 1220 1211
f 1211 1220 1210
f 1210 1220 1188
f 1188 1220 1189
f 1213 1208 1223
f 1223 1208 1222
f 1208 1207 1222
f 1222 1207 1224
f 1203 1206 1225
f 1225 1206 1194
f 1204 1203 1226
f 1226 1203 1225
f 1194 1193 1225
f 1225 1193 1227
f 1225 1227 1226
f 1226 1227 1228
f 1229 1230 1226
f 1226 1230 1204
f 1224 1230 1222
f 1222 1230 1229
f 1177 1189 1175
f 1175 1189 1231
f 1176 1232 1182
f 1182 1232 1192
f 1232 1176 1231
f 1231 1176 1175
f 1231 1219 1232
f 1232 1219 1233
f 1219 1217 1233
f 1233 1217 1234
f 1232 1233 1192
f 1192 1233 1235
f 1219 1231 1220
f 1220 1231 1189
f 1236 1191 1235
f 1235 1191 1192
f 1236 1193 1191
f 1191 1193 1190
f 1236 1237 1193
f 1193 1237 1227
f 1237 1236 1238
f 1238 1236 1235
f 1239 1237 1240
f 1240 1237 1238
f 1233 1234 1235
f 1235 1234 1238
f 1234 1241 1238
f 1238 1241 1240
f 1237 1239 1227
f 1227 1239 1228
f 1243 1228 1242
f 1242 1228 1239
f 1242 1245 1244
f 1244 1245 1246
f 1242 1239 1245
f 1245 1239 1240
f 1242 1244 1243
f 1243 1244 1223
f 1243 1223 1229
f 1229 1223 1222
f 1229 1226 1243
f 1243 1226 1228
f 1217 1218 1234
f 1234 1218 1241
f 1246 1241 1221
f 1221 1241 1218
f 1246 1245 1241
f 1241 1245 1240
f 1244 1246 1216
f 1216 1246 1221
f 1216 1213 1244
f 1244 1213 1223
f 1198 1205 1207
f 1207 1205 1224
f 1224 1205 1230
f 1230 1205 1204
f 1148 1147 966
f 966 1147 964
f 1149 1154 1150
f 1150 1154 1153
f 1158 1157 1165
f 1165 1157 1166
f 1157 1159 1166
f 1166 1159 1164
f 1163 1162 1056
f 1056 1162 1048
f 1158 1165 1149
f 1149 1165 1154
f 1178 1148 1049
f 1049 1148 966
f 1163 1056 1150
f 1150 1056 1025
f 1178 1162 1167
f 1167 1162 1161
f 1147 1159 964
f 964 1159 1041
f 999 1049 922
f 922 1049 966
f 999 797 985
f 985 797 800
f 797 796 800
f 800 796 801
f 796 997 801
f 801 997 986
f 1247 1248 1250
f 1250 1248 1249
f 1252 1253 1251
f 1251 1253 1254
f 1251 1254 1255
f 1255 1254 1256
f 1258 1259 1257
f 1257 1259 1260
f 1261 1262 1252
f 1252 1262 1253
f 1264 1265 1263
f 1263 1265 1266
f 1267 1268 855
f 855 1268 920
f 1269 1267 1026
f 1026 1267 855
f 1271 1272 1270
f 1270 1272 1273
f 1274 1258 1262
f 1262 1258 1253
f 1264 1275 1265
f 1265 1275 1249
f 1276 1274 1250
f 1250 1274 1262
f 1277 1271 1256
f 1256 1271 1278
f 1279 1280 1282
f 1282 1280 1281
f 1271 1270 1278
f 1278 1270 1283
f 1284 1255 1278
f 1278 1255 1256
f 1277 1256 1257
f 1257 1256 1254
f 1247 1285 1248
f 1248 1285 1286
f 1261 1287 1247
f 1247 1287 1285
f 1257 1260 1277
f 1277 1260 1288
f 1270 1273 1263
f 1263 1273 1289
f 1261 1247 1262
f 1262 1247 1250
f 1251 1290 1252
f 1252 1290 1291
f 1275 1276 1249
f 1249 1276 1250
f 1253 1258 1254
f 1254 1258 1257
f 1248 1286 1292
f 1292 1286 1293
f 1284 1280 1294
f 1294 1280 1279
f 1281 1280 1266
f 1266 1280 1283
f 1292 1293 1281
f 1281 1293 1282
f 1263 1266 1270
f 1270 1266 1283
f 1255 1284 1295
f 1295 1284 1294
f 1252 1291 1261
f 1261 1291 1287
f 1288 1070 1272
f 1272 1070 942
f 1290 1251 1295
f 1295 1251 1255
f 1269 1259 1274
f 1274 1259 1258
f 1280 1284 1283
f 1283 1284 1278
f 1281 1266 1292
f 1292 1266 1265
f 1292 1265 1248
f 1248 1265 1249
f 1295 1294 1297
f 1297 1294 1296
f 1295 1297 1290
f 1290 1297 1298
f 1290 1298 1291
f 1291 1298 1299
f 1291 1299 1287
f 1287 1299 1300
f 1294 1279 1296
f 1296 1279 1301
f 1279 1282 1301
f 1301 1282 1302
f 1302 1282 1303
f 1303 1282 1293
f 1304 1305 1301
f 1301 1305 1296
f 1307 1308 1306
f 1306 1308 1309
f 1310 1311 1307
f 1307 1311 1308
f 1308 1311 1313
f 1313 1311 1312
f 1314 1315 1313
f 1313 1315 1316
f 1312 1317 1313
f 1313 1317 1314
f 1316 1309 1313
f 1313 1309 1308
f 1318 1319 1309
f 1309 1319 1306
f 1311 1310 1312
f 1312 1310 1320
f 1310 1298 1320
f 1320 1298 1297
f 1310 1321 1298
f 1298 1321 1299
f 1307 1322 1310
f 1310 1322 1321
f 1322 1307 1323
f 1323 1307 1306
f 1312 1320 1317
f 1317 1320 1305
f 1305 1320 1296
f 1296 1320 1297
f 1319 1324 1306
f 1306 1324 1323
f 1325 1322 1326
f 1326 1322 1323
f 1324 1327 1323
f 1323 1327 1326
f 1328 1325 1329
f 1329 1325 1326
f 1325 1328 1331
f 1331 1328 1330
f 1327 1332 1326
f 1326 1332 1329
f 1322 1325 1321
f 1321 1325 1331
f 1321 1331 1299
f 1299 1331 1300
f 1324 1319 1334
f 1334 1319 1333
f 1319 1318 1333
f 1333 1318 1335
f 1314 1317 1336
f 1336 1317 1305
f 1315 1314 1337
f 1337 1314 1336
f 1305 1304 1336
f 1336 1304 1338
f 1337 1336 1339
f 1339 1336 1338
f 1337 1340 1315
f 1315 1340 1341
f 1335 1341 1333
f 1333 1341 1340
f 1287 1300 1285
f 1285 1300 1342
f 1286 1343 1293
f 1293 1343 1303
f 1343 1286 1342
f 1342 1286 1285
f 1342 1330 1343
f 1343 1330 1344
f 1330 1328 1344
f 1344 1328 1345
f 1343 1344 1303
f 1303 1344 1346
f 1342 1300 1330
f 1330 1300 1331
f 1347 1302 1346
f 1346 1302 1303
f 1347 1304 1302
f 1302 1304 1301
f 1348 1338 1347
f 1347 1338 1304
f 1348 1347 1349
f 1349 1347 1346
f 1350 1348 1351
f 1351 1348 1349
f 1344 1345 1346
f 1346 1345 1349
f 1345 1352 1349
f 1349 1352 1351
f 1348 1350 1338
f 1338 1350 1339
f 1354 1339 1353
f 1353 1339 1350
f 1353 1356 1355
f 1355 1356 1357
f 1353 1350 1356
f 1356 1350 1351
f 1353 1355 1354
f 1354 1355 1334
f 1354 1334 1340
f 1340 1334 1333
f 1340 1337 1354
f 1354 1337 1339
f 1328 1329 1345
f 1345 1329 1352
f 1357 1352 1332
f 1332 1352 1329
f 1357 1356 1352
f 1352 1356 1351
f 1357 1332 1355
f 1355 1332 1327
f 1327 1324 1355
f 1355 1324 1334
f 1309 1316 1318
f 1318 1316 1335
f 1335 1316 1341
f 1341 1316 1315
f 1259 1072 1260
f 1260 1072 1071
f 1358 1264 1289
f 1289 1264 1263
f 1268 1267 1275
f 1275 1267 1276
f 1267 1269 1276
f 1276 1269 1274
f 941 1273 942
f 942 1273 1272
f 1358 1268 1264
f 1264 1268 1275
f 1260 1071 1288
f 1288 1071 1070
f 1273 941 1289
f 1289 941 977
f 1272 1271 1288
f 1288 1271 1277
f 1259 1269 1072
f 1072 1269 1026
f 1360 1361 1359
f 1359 1361 1362
f 1364 1365 1363
f 1363 1365 1366
f 1363 1366 1367
f 1367 1366 1368
f 1370 1371 1369
f 1369 1371 1372
f 1373 1374 1376
f 1376 1374 1375
f 1377 1378 1364
f 1364 1378 1365
f 1379 1380 1382
f 1382 1380 1381
f 1383 1384 1386
f 1386 1384 1385
f 1387 1385 978
f 978 1385 1384
f 1388 1389 1391
f 1391 1389 1390
f 1378 1392 1365
f 1365 1392 1370
f 1374 1383 1375
f 1375 1383 1386
f 1380 1393 1381
f 1381 1393 1361
f 1394 1392 1362
f 1362 1392 1378
f 1389 1396 1395
f 1395 1396 1368
f 1398 1399 1397
f 1397 1399 1400
f 1388 1401 1389
f 1389 1401 1396
f 1402 1367 1396
f 1396 1367 1368
f 1395 1368 1369
f 1369 1368 1366
f 1359 1403 1360
f 1360 1403 1404
f 1377 1405 1359
f 1359 1405 1403
f 1369 1372 1395
f 1395 1372 1406
f 1379 1388 1376
f 1376 1388 1391
f 1359 1362 1377
f 1377 1362 1378
f 1363 1407 1364
f 1364 1407 1408
f 1393 1394 1361
f 1361 1394 1362
f 1365 1370 1366
f 1366 1370 1369
f 1360 1404 1409
f 1409 1404 1410
f 1402 1398 1411
f 1411 1398 1397
f 1399 1398 1382
f 1382 1398 1401
f 1409 1410 1399
f 1399 1410 1400
f 1388 1379 1401
f 1401 1379 1382
f 1367 1402 1412
f 1412 1402 1411
f 1364 1408 1377
f 1377 1408 1405
f 981 980 1406
f 1406 980 1390
f 1407 1363 1412
f 1412 1363 1367
f 1387 1371 1392
f 1392 1371 1370
f 1398 1402 1401
f 1401 1402 1396
f 1409 1399 1381
f 1381 1399 1382
f 1360 1409 1361
f 1361 1409 1381
f 1412 1411 1414
f 1414 1411 1413
f 1412 1414 1407
f 1407 1414 1415
f 1407 1415 1408
f 1408 1415 1416
f 1408 1416 1405
f 1405 1416 1417
f 1411 1397 1413
f 1413 1397 1418
f 1397 1400 1418
f 1418 1400 1419
f 1419 1400 1420
f 1420 1400 1410
f 1422 1413 1421
f 1421 1413 1418
f 1423 1424 1426
f 1426 1424 1425
f 1427 1428 1424
f 1424 1428 1425
f 1425 1428 1430
f 1430 1428 1429
f 1430 1431 1433
f 1433 1431 1432
f 1429 1434 1430
f 1430 1434 1431
f 1433 1426 1430
f 1430 1426 1425
f 1426 1435 1423
f 1423 1435 1436
f 1428 1427 1429
f 1429 1427 1437
f 1427 1415 1437
f 1437 1415 1414
f 1427 1438 1415
f 1415 1438 1416
f 1439 1438 1424
f 1424 1438 1427
f 1440 1439 1423
f 1423 1439 1424
f 1429 1437 1434
f 1434 1437 1422
f 1422 1437 1413
f 1413 1437 1414
f 1441 1440 1436
f 1436 1440 1423
f 1442 1439 1443
f 1443 1439 1440
f 1441 1444 1440
f 1440 1444 1443
f 1445 1442 1446
f 1446 1442 1443
f 1442 1445 1448
f 1448 1445 1447
f 1444 1449 1443
f 1443 1449 1446
f 1439 1442 1438
f 1438 1442 1448
f 1438 1448 1416
f 1416 1448 1417
f 1436 1450 1441
f 1441 1450 1451
f 1436 1435 1450
f 1450 1435 1452
f 1431 1434 1453
f 1453 1434 1422
f 1431 1453 1432
f 1432 1453 1454
f 1453 1422 1455
f 1455 1422 1421
f 1454 1453 1456
f 1456 1453 1455
f 1457 1458 1454
f 1454 1458 1432
f 1452 1458 1450
f 1450 1458 1457
f 1405 1417 1403
f 1403 1417 1459
f 1404 1460 1410
f 1410 1460 1420
f 1459 1460 1403
f 1403 1460 1404
f 1447 1461 1459
f 1459 1461 1460
f 1445 1462 1447
f 1447 1462 1461
f 1460 1461 1420
f 1420 1461 1463
f 1459 1417 1447
f 1447 1417 1448
f 1464 1419 1463
f 1463 1419 1420
f 1419 1464 1418
f 1418 1464 1421
f 1464 1465 1421
f 1421 1465 1455
f 1465 1464 1466
f 1466 1464 1463
f 1467 1465 1468
f 1468 1465 1466
f 1461 1462 1463
f 1463 1462 1466
f 1462 1469 1466
f 1466 1469 1468
f 1465 1467 1455
f 1455 1467 1456
f 1471 1456 1470
f 1470 1456 1467
f 1470 1473 1472
f 1472 1473 1474
f 1470 1467 1473
f 1473 1467 1468
f 1470 1472 1471
f 1471 1472 1451
f 1471 1451 1457
f 1457 1451 1450
f 1457 1454 1471
f 1471 1454 1456
f 1462 1445 1469
f 1469 1445 1446
f 1474 1469 1449
f 1449 1469 1446
f 1474 1473 1469
f 1469 1473 1468
f 1472 1474 1444
f 1444 1474 1449
f 1444 1441 1472
f 1472 1441 1451
f 1426 1433 1435
f 1435 1433 1452
f 1452 1433 1458
f 1458 1433 1432
f 1371 940 1372
f 1372 940 1068
f 1376 1375 1379
f 1379 1375 1380
f 1393 1386 1394
f 1394 1386 1385
f 1385 1387 1394
f 1394 1387 1392
f 1475 1373 1391
f 1391 1373 1376
f 1375 1386 1380
f 1380 1386 1393
f 1372 1068 1406
f 1406 1068 981
f 1406 1390 1395
f 1395 1390 1389
f 1371 1387 940
f 940 1387 978
f 883 807 1476
f 1476 807 1477
f 1046 904 1479
f 1479 904 1478
f 904 903 1478
f 1478 903 1480
f 1030 1481 1028
f 1028 1481 1482
f 810 1046 1483
f 1483 1046 1479
f 1066 883 1484
f 1484 883 1476
f 807 810 1477
f 1477 810 1483
f 1485 1029 1484
f 1484 1029 1066
f 1028 1482 903
f 903 1482 1480
f 1481 1030 1485
f 1485 1030 1029
f 1484 1486 1485
f 1485 1486 1487
f 1485 1487 1481
f 1481 1487 1488
f 1481 1488 1482
f 1482 1488 1489
f 1482 1489 1480
f 1480 1489 1490
f 1484 1476 1486
f 1486 1476 1491
f 1476 1477 1491
f 1491 1477 1492
f 1477 1483 1492
f 1492 1483 1493
f 1495 1486 1494
f 1494 1486 1491
f 1497 1498 1496
f 1496 1498 1499
f 1500 1501 1497
f 1497 1501 1498
f 1502 1503 1501
f 1501 1503 1498
f 1502 1504 1503
f 1503 1504 1505
f 1506 1499 1503
f 1503 1499 1498
f 1499 1506 1507
f 1507 1506 1508
f 1507 1509 1499
f 1499 1509 1496
f 1502 1501 1510
f 1510 1501 1500
f 1500 1488 1510
f 1510 1488 1487
f 1500 1511 1488
f 1488 1511 1489
f 1497 1512 1500
f 1500 1512 1511
f 1512 1497 1513
f 1513 1497 1496
f 1502 1510 1504
f 1504 1510 1495
f 1495 1510 1486
f 1486 1510 1487
f 1509 1514 1496
f 1496 1514 1513
f 1515 1512 1516
f 1516 1512 1513
f 1514 1517 1513
f 1513 1517 1516
f 1518 1515 1519
f 1519 1515 1516
f 1515 1518 1521
f 1521 1518 1520
f 1517 1522 1516
f 1516 1522 1519
f 1512 1515 1511
f 1511 1515 1521
f 1511 1521 1489
f 1489 1521 1490
f 1514 1509 1524
f 1524 1509 1523
f 1509 1507 1523
f 1523 1507 1508
f 1505 1504 1525
f 1525 1504 1495
f 1526 1505 1527
f 1527 1505 1525
f 1525 1495 1528
f 1528 1495 1494
f 1527 1525 1529
f 1529 1525 1528
f 1527 1530 1526
f 1526 1530 1531
f 1508 1531 1523
f 1523 1531 1530
f 1506 1503 1526
f 1526 1503 1505
f 1508 1506 1531
f 1531 1506 1526
f 1478 1480 1532
f 1532 1480 1490
f 1483 1479 1493
f 1493 1479 1533
f 1532 1533 1478
f 1478 1533 1479
f 1520 1534 1532
f 1532 1534 1533
f 1518 1535 1520
f 1520 1535 1534
f 1533 1534 1493
f 1493 1534 1536
f 1532 1490 1520
f 1520 1490 1521
f 1537 1492 1536
f 1536 1492 1493
f 1492 1537 1491
f 1491 1537 1494
f 1537 1538 1494
f 1494 1538 1528
f 1538 1537 1539
f 1539 1537 1536
f 1540 1538 1541
f 1541 1538 1539
f 1534 1535 1536
f 1536 1535 1539
f 1535 1542 1539
f 1539 1542 1541
f 1538 1540 1528
f 1528 1540 1529
f 1544 1529 1543
f 1543 1529 1540
f 1545 1543 1547
f 1547 1543 1546
f 1543 1540 1546
f 1546 1540 1541
f 1543 1545 1544
f 1544 1545 1524
f 1544 1524 1530
f 1530 1524 1523
f 1530 1527 1544
f 1544 1527 1529
f 1535 1518 1542
f 1542 1518 1519
f 1547 1542 1522
f 1522 1542 1519
f 1547 1546 1542
f 1542 1546 1541
f 1545 1547 1517
f 1517 1547 1522
f 1517 1514 1545
f 1545 1514 1524
f 997 995 986
f 986 995 987
f 987 995 988
f 988 995 971
f 976 1358 977
f 977 1358 1289
f 854 853 1067
f 1067 853 1050
f 1055 985 1069
f 1069 985 962
f 1068 961 981
f 981 961 862
f 1268 1358 920
f 920 1358 976
f 920 976 921
f 921 976 975
f 927 1054 850
f 850 1054 851
f 882 881 1057
f 1057 881 1548
f 1548 1374 1057
f 1057 1374 1373
f 1383 1374 1549
f 1549 1374 1548
f 1549 1548 1550
f 1550 1548 881
f 1550 881 1551
f 1551 881 880
f 933 1552 879
f 879 1552 880
f 1551 880 875
f 875 880 1552
f 1553 1551 878
f 878 1551 875
f 1551 1553 1550
f 1550 1553 1554
f 1550 1554 1549
f 1549 1554 1555
f 978 1384 975
f 975 1384 1555
f 967 849 1556
f 1556 849 852
f 875 1552 876
f 876 1552 933
f 961 939 962
f 962 939 1069
f 1555 1054 975
f 975 1054 921
f 1555 1384 1549
f 1549 1384 1383
f 1391 1390 1475
f 1475 1390 980
f 1373 1475 1057
f 1057 1475 980
f 851 1054 1554
f 1554 1054 1555
f 1554 1553 851
f 851 1553 852
f 878 1556 1553
f 1553 1556 852
f 1556 878 967
f 967 878 877
f 1023 1020 877
f 877 1020 967
f 909 811 1034
f 806 779 873
f 873 779 840
f 805 780 806
f 806 780 779
f 1043 893 1044
f 1044 893 892
f 873 840 847
f 847 840 842
f 840 839 842
f 842 839 843
f 839 791 843
f 843 791 908
f 791 790 908
f 908 790 792
f 809 789 810
f 810 789 1046
f 793 790 809
f 809 790 789
f 809 808 793
f 793 808 1009
f 808 884 1009
f 1009 884 1010
f 1065 1015 884
f 884 1015 1010
f 1032 868 1065
f 1065 868 1015
f 1031 822 1032
f 1032 822 868
f 1031 1027 822
f 822 1027 785
f 1045 905 1046
f 1046 905 904
f 788 781 1019
f 1019 781 894
f 781 780 894
f 894 780 892
f 780 805 892
f 892 805 1044
f 805 804 1044
f 1044 804 891
f 804 1064 891
f 891 1064 888
f 1064 1021 888
f 888 1021 1033
f 1021 1020 1033
f 1033 1020 1034
f 1020 1023 1034
f 1034 1023 909
f 1023 1022 909
f 909 1022 910
f 1043 815 893
f 893 815 819
f 819 815 820
f 820 815 818
f 870 869 818
f 818 869 820
f 1014 1011 870
f 870 1011 869
f 969 972 1014
f 1014 972 1011
f 1036 1063 1022
f 1022 1063 910
f 1035 833 1036
f 1036 833 1063
f 1035 932 979
f 979 932 963
f 834 979 982
f 982 979 958
f 833 1035 834
f 834 1035 979
f 982 863 834
f 834 863 830
f 864 900 831
f 831 900 857
f 990 993 864
f 864 993 900
f 989 994 990
f 990 994 993
f 970 1058 989
f 989 1058 994
f 969 1018 970
f 970 1018 1058
f 1027 902 785
f 785 902 786
f 902 905 786
f 786 905 1019
f 905 1045 1019
f 1019 1045 788
f 788 1045 787
f 787 1045 789
