o hand_left
v -0.038960 0.027519 0.529280
v -0.039957 0.034315 0.520981
v -0.035831 0.024659 0.517817
v -0.036229 0.018021 0.526832
v -0.039401 0.037188 0.498379
v -0.047796 0.035455 0.489363
v -0.040378 0.021763 0.490209
v -0.033765 0.026095 0.497164
v -0.035636 0.009944 0.525339
v -0.032924 0.017130 0.515806
v -0.038855 0.005970 0.523746
v -0.046672 0.001196 0.536282
v -0.040559 0.004680 0.535053
v -0.048350 -0.001624 0.545342
v -0.057348 0.004915 0.536556
v -0.054836 0.001714 0.552085
v -0.064354 0.030649 0.552854
v -0.061329 0.043101 0.557414
v -0.054046 0.033694 0.570663
v -0.057097 0.021950 0.563916
v -0.047758 0.053800 0.570294
v -0.050878 0.042337 0.571158
v -0.059235 0.051789 0.558735
v -0.055907 0.061484 0.558431
v -0.040222 0.044045 0.532310
v -0.042506 0.051094 0.524990
v -0.042814 0.045038 0.524312
v -0.040751 0.038489 0.530989
v -0.041176 0.000178 0.511763
v -0.053558 0.004552 0.517205
v -0.047248 0.003747 0.522504
v -0.036161 0.002390 0.513117
v -0.042699 0.074231 0.506978
v -0.053004 0.080432 0.500765
v -0.055529 0.075536 0.498669
v -0.045889 0.070936 0.505286
v -0.057253 0.054587 0.491378
v -0.064221 0.061467 0.491261
v -0.077003 0.057637 0.487880
v -0.072580 0.049261 0.489927
v -0.051702 0.045075 0.490312
v -0.064553 0.040593 0.488093
v -0.058410 0.030566 0.487810
v -0.048161 0.016704 0.488242
v -0.050227 0.091236 0.507123
v -0.041880 0.088321 0.512201
v -0.008866 -0.015902 0.566982
v -0.006323 -0.010544 0.567113
v -0.009757 -0.009466 0.565853
v -0.011801 -0.015001 0.566164
v -0.055015 0.097966 0.525611
v -0.063284 0.097108 0.531306
v -0.064895 0.101696 0.525892
v -0.058046 0.101159 0.519475
v -0.051013 0.093656 0.533679
v -0.060712 0.090289 0.538311
v -0.009987 -0.020441 0.578945
v -0.010033 -0.021517 0.573888
v -0.014729 -0.020430 0.574569
v -0.015165 -0.018515 0.579580
v -0.037356 0.011719 0.534827
v -0.036514 0.021295 0.535999
v -0.032980 0.002998 0.548946
v -0.034674 0.011258 0.545193
v -0.038159 0.005622 0.541951
v -0.037420 -0.000534 0.546660
v -0.031290 0.034298 0.550541
v -0.035956 0.040676 0.542015
v -0.036984 0.034161 0.541071
v -0.031818 0.025765 0.549269
v -0.030177 0.053399 0.544259
v -0.026537 0.046162 0.552719
v -0.023838 0.054301 0.552930
v -0.025988 0.057884 0.546362
v -0.022522 0.031323 0.566077
v -0.021323 0.027674 0.570225
v -0.019142 0.029553 0.570729
v -0.021494 0.034674 0.566296
v -0.067583 0.105964 0.520921
v -0.061591 0.103489 0.513561
v -0.038191 0.073433 0.568704
v -0.032645 0.080493 0.562016
v -0.024970 0.075604 0.571940
v -0.033371 0.069230 0.577473
v -0.071014 0.090859 0.534230
v -0.072839 0.097325 0.530215
v -0.008567 -0.016037 0.583053
v -0.013500 -0.013838 0.583347
v -0.069327 0.028135 0.494463
v -0.056002 0.012422 0.492825
v -0.077368 0.040650 0.495246
v -0.082773 0.049448 0.495920
v -0.087491 0.056081 0.493419
v -0.031325 0.014068 0.550046
v -0.038153 0.030689 0.536224
v -0.038815 0.048874 0.533300
v -0.022943 0.074198 0.540815
v -0.026777 0.079383 0.532639
v -0.028065 0.068763 0.531713
v -0.024936 0.066481 0.539444
v -0.024396 0.081002 0.556334
v -0.020161 0.075509 0.552177
v -0.017158 0.071720 0.558863
v -0.019737 0.076468 0.564561
v -0.045433 -0.002514 0.505853
v -0.058525 0.005755 0.511208
v -0.047737 0.095432 0.518345
v -0.052431 0.096742 0.512264
v -0.058477 0.100096 0.507319
v -0.042524 0.061683 0.515211
v -0.048015 0.068640 0.504053
v -0.048915 0.064582 0.502854
v -0.044004 0.058781 0.515466
v -0.040099 0.042608 0.511731
v -0.044296 0.049341 0.500750
v -0.034610 0.032643 0.508915
v -0.059870 0.069945 0.494715
v -0.061697 0.080412 0.491995
v -0.066405 0.073529 0.488828
v -0.058858 0.088569 0.496666
v -0.057414 0.095615 0.501958
v -0.077492 0.103750 0.527185
v -0.071474 0.066890 0.487509
v -0.030160 0.017578 0.497103
v -0.026667 0.010192 0.496413
v -0.026322 0.009959 0.504288
v -0.029167 0.017130 0.505899
v -0.046437 -0.005403 0.554537
v -0.041203 -0.004595 0.548949
v -0.043216 0.000447 0.540935
v -0.035867 0.073005 0.516206
v -0.035299 0.085052 0.520138
v -0.029607 0.005879 0.553566
v -0.020421 -0.016196 0.578591
v -0.019718 -0.018577 0.573132
v -0.035365 -0.011807 0.564036
v -0.036469 -0.009531 0.570528
v -0.027361 0.006260 0.563367
v -0.027601 0.004075 0.556672
v -0.026412 0.003884 0.558925
v -0.024265 0.006783 0.564486
v -0.017259 0.038503 0.569223
v -0.019411 0.042986 0.565392
v -0.046502 0.014145 0.572728
v -0.054240 0.004806 0.567388
v -0.059152 0.011002 0.558036
v -0.029244 0.041428 0.551410
v -0.024855 0.036398 0.559250
v -0.023656 0.040253 0.560014
v -0.029289 0.014828 0.554282
v -0.027758 0.009495 0.558287
v -0.027854 0.014742 0.559867
v -0.028767 0.020258 0.555599
v -0.039933 0.086056 0.552369
v -0.030019 0.086786 0.546197
v -0.009910 -0.019863 0.569499
v -0.013654 -0.019043 0.569408
v -0.033829 0.047514 0.543011
v -0.064013 0.019915 0.547239
v -0.036813 0.053918 0.534163
v -0.028302 0.051252 0.580655
v -0.020534 0.052272 0.576550
v -0.017116 0.048342 0.577445
v -0.020867 0.046748 0.582116
v -0.012280 0.000988 0.572137
v -0.011214 -0.001889 0.567221
v -0.008182 -0.004142 0.568846
v -0.008199 -0.001577 0.574165
v -0.029901 0.000071 0.553091
v -0.033893 -0.004382 0.551375
v -0.029321 -0.006106 0.555168
v -0.026986 -0.000782 0.556672
v -0.037707 -0.008037 0.554789
v -0.032929 -0.010282 0.558358
v -0.014590 0.000182 0.578213
v -0.017584 -0.005075 0.582737
v -0.032069 0.002442 0.576024
v -0.025975 0.005882 0.571953
v -0.064694 0.069010 0.548392
v -0.059055 0.078611 0.548777
v -0.050284 0.071441 0.559017
v -0.042076 0.064974 0.570280
v -0.034097 0.057782 0.579589
v -0.041175 0.047996 0.580996
v -0.046640 0.078729 0.557693
v -0.033129 0.009998 0.569495
v -0.040941 0.006765 0.572090
v -0.038685 0.010834 0.572670
v -0.032488 0.059936 0.535025
v -0.018000 -0.017587 0.567877
v -0.091063 0.058804 0.514614
v -0.089468 0.068967 0.523001
v -0.085342 0.062221 0.526872
v -0.086455 0.050775 0.517226
v -0.012456 -0.007711 0.563772
v -0.015053 -0.013656 0.563644
v -0.015906 0.048351 0.566532
v -0.014478 0.043657 0.570059
v -0.013565 0.046051 0.572299
v -0.012434 0.051312 0.568711
v -0.056421 0.083809 0.547365
v -0.016934 0.071601 0.574527
v -0.025382 0.065721 0.580320
v -0.066904 0.084453 0.539969
v -0.072354 0.076347 0.540008
v -0.077640 0.082147 0.534212
v -0.040437 0.032637 0.580896
v -0.067121 0.060700 0.548802
v -0.074587 0.069047 0.539499
v -0.081005 0.075642 0.532551
v -0.085763 0.081000 0.528273
v -0.081449 0.087568 0.530399
v -0.019011 -0.010917 0.582095
v -0.011213 -0.007529 0.584508
v -0.086776 0.094202 0.527292
v -0.090958 0.086415 0.524525
v -0.077121 0.060440 0.537470
v -0.079163 0.049861 0.533938
v -0.069623 0.052684 0.546426
v -0.071194 0.041557 0.543736
v -0.048854 0.025253 0.580418
v 0.006141 -0.009694 0.580893
v -0.004003 -0.005223 0.581226
v -0.003840 -0.003590 0.575606
v 0.006413 -0.007049 0.577465
v -0.009300 -0.002518 0.579967
v -0.006185 -0.009727 0.584111
v -0.070827 0.028606 0.535955
v -0.026995 0.011101 0.563862
v -0.078148 0.036241 0.522464
v -0.065616 0.012257 0.528349
v -0.069612 0.018371 0.517042
v -0.084841 0.042966 0.507137
v -0.076564 0.028196 0.505644
v -0.092973 0.058305 0.502231
v -0.088951 0.051424 0.506007
v -0.065783 0.014457 0.502773
v 0.001332 -0.015790 0.566614
v 0.002870 -0.010277 0.567827
v -0.095596 0.064799 0.510941
v -0.031511 0.023903 0.507446
v -0.035771 0.063672 0.525395
v -0.038919 0.058945 0.525338
v -0.029844 0.081875 0.527672
v -0.031613 0.070506 0.524879
v 0.000228 -0.020679 0.568681
v -0.020933 0.026918 0.574521
v -0.021409 0.027554 0.574415
v -0.034817 0.014500 0.490054
v -0.031066 0.008628 0.490276
v -0.040479 -0.000601 0.491940
v -0.035783 0.003723 0.488654
v -0.041679 0.009648 0.488001
v -0.047234 0.005360 0.491466
v -0.040919 0.063870 0.515323
v -0.038710 0.067061 0.516131
v -0.045581 0.090423 0.542445
v -0.035456 0.090377 0.536842
v -0.041420 -0.008162 0.560150
v -0.050327 -0.002498 0.562016
v -0.043529 -0.005358 0.566377
v -0.036960 -0.003480 0.574326
v -0.028115 0.009466 0.567027
v -0.031063 0.007637 0.568515
v -0.046505 0.057350 0.502434
v -0.043558 0.051995 0.514738
v -0.031815 0.012562 0.513529
v -0.029687 0.006924 0.511153
v -0.028013 0.028313 0.556411
v -0.031400 0.025027 0.582096
v -0.038275 0.019086 0.580898
v -0.025748 0.022814 0.562896
v 0.001573 -0.022895 0.576795
v 0.000598 -0.022826 0.571895
v -0.044726 0.000152 0.570654
v -0.020430 0.047998 0.559876
v -0.031507 0.031637 0.581955
v -0.024793 0.026952 0.580258
v -0.015752 0.073173 0.566863
v -0.094149 0.074914 0.518351
v -0.003999 -0.005255 0.570093
v 0.004272 -0.006537 0.571126
v 0.004501 -0.013328 0.582600
v 0.002066 -0.018885 0.581568
v -0.040745 0.092034 0.527359
v -0.040696 0.055528 0.525576
v -0.054903 0.004600 0.499927
v -0.044310 -0.002411 0.498431
v -0.025175 0.020101 0.566319
v -0.024598 0.057431 0.579358
v -0.032393 0.043545 0.584080
v -0.023600 0.039335 0.586436
v -0.023105 0.031750 0.585226
v -0.020680 0.027026 0.580330
v 0.010101 -0.014454 0.580877
v 0.007560 -0.019841 0.579875
v 0.006362 -0.023707 0.575095
v 0.004863 -0.023544 0.570823
v 0.003671 -0.020623 0.567851
v 0.011853 -0.010644 0.579010
v 0.011662 -0.008329 0.575730
v 0.007783 -0.007182 0.570892
v 0.015989 -0.010860 0.575897
v 0.017805 -0.015960 0.576598
v 0.016818 -0.024753 0.565484
v 0.013718 -0.024648 0.570615
v 0.016453 -0.024006 0.570464
v 0.019748 -0.023923 0.566629
v 0.024122 -0.023442 0.563805
v 0.021335 -0.024519 0.561950
v 0.016437 -0.021201 0.574308
v 0.021417 -0.020734 0.569575
v 0.022570 -0.016863 0.570835
v 0.026895 -0.017258 0.567255
v 0.026142 -0.020774 0.566196
v 0.019340 -0.017589 0.574233
v 0.014649 -0.021316 0.576273
v 0.025426 -0.022888 0.560448
v 0.026750 -0.022869 0.562572
v 0.028368 -0.020369 0.564004
v 0.029087 -0.019519 0.561171
v 0.008501 -0.023784 0.568108
v 0.015274 -0.024175 0.563407
v 0.020009 -0.022416 0.559983
v 0.024217 -0.020967 0.558770
v 0.015095 -0.020788 0.560997
v 0.019301 -0.019694 0.559067
v 0.022861 -0.017995 0.558205
v 0.015607 -0.016597 0.560046
v 0.019475 -0.016481 0.558897
v 0.006188 -0.016454 0.565591
v 0.005462 -0.020574 0.566472
v 0.021835 -0.016100 0.557938
v 0.028447 -0.017830 0.559909
v 0.021563 -0.013444 0.571961
v 0.026287 -0.014193 0.566612
v 0.020916 -0.011278 0.570953
v 0.025873 -0.011938 0.566026
v 0.029612 -0.015501 0.563866
v 0.028777 -0.017618 0.564992
v 0.003555 -0.015562 0.566724
v 0.005391 -0.009880 0.568139
v 0.007779 -0.010526 0.567177
v 0.016683 -0.011989 0.561328
v 0.010531 -0.007850 0.569429
v 0.015252 -0.008624 0.572653
v 0.020514 -0.009720 0.568308
v 0.018996 -0.009302 0.565157
v 0.024210 -0.010781 0.564418
v 0.022464 -0.011003 0.562561
v 0.020613 -0.013053 0.559773
v 0.026272 -0.012653 0.561386
v 0.028526 -0.013916 0.562806
v 0.025953 -0.015686 0.559099
v 0.024489 -0.012129 0.560853
v 0.023568 -0.014545 0.559230
v 0.001972 0.006969 0.569845
v 0.003883 0.012951 0.571234
v -0.000357 0.012432 0.572811
v -0.001695 0.007322 0.571587
v 0.003768 -0.001156 0.581202
v 0.002479 -0.000288 0.575143
v -0.002166 -0.000540 0.577769
v -0.001244 0.000091 0.584448
v 0.005466 0.003274 0.586519
v -0.000115 0.005005 0.589010
v -0.007483 0.001290 0.584861
v -0.007824 0.000832 0.577741
v -0.026901 0.008056 0.572805
v -0.028188 0.008860 0.579340
v -0.019211 0.023972 0.570550
v -0.018626 0.025160 0.574142
v 0.001859 0.003143 0.571325
v -0.002201 0.002920 0.573464
v -0.001804 0.020150 0.577947
v -0.002490 0.017662 0.573098
v 0.001248 0.016716 0.574605
v 0.002817 0.018380 0.579672
v -0.023818 0.012909 0.566781
v -0.021810 0.018693 0.568588
v -0.025204 0.009944 0.568777
v -0.001929 0.019245 0.584577
v -0.003419 0.014865 0.589639
v -0.022910 0.020851 0.586121
v -0.019375 0.024620 0.582558
v -0.006979 0.003179 0.572895
v -0.003573 0.012631 0.570436
v -0.005396 0.007681 0.569864
v -0.006650 0.007371 0.589112
v 0.003175 0.012421 0.589189
v 0.020188 0.013193 0.578202
v 0.009358 0.015666 0.583289
v 0.008152 0.017544 0.578553
v 0.019589 0.016090 0.574101
v 0.003886 0.016956 0.585109
v 0.008434 0.010729 0.586524
v 0.015067 0.007846 0.563728
v 0.016770 0.013801 0.565495
v 0.014931 0.003321 0.564707
v -0.027176 0.014085 0.584407
v 0.015592 -0.001207 0.574014
v 0.014772 0.000260 0.567661
v 0.005802 0.016994 0.573990
v 0.018591 0.016623 0.569296
v 0.019685 0.009068 0.580145
v 0.016619 0.002369 0.579660
v 0.024760 0.007792 0.576774
v 0.022391 0.001991 0.575765
v 0.020548 -0.001425 0.570526
v 0.018424 0.000403 0.565494
v 0.017505 0.003663 0.563362
v 0.025321 0.011836 0.575127
v 0.024249 0.015107 0.571768
v 0.021026 0.015794 0.567893
v 0.029835 0.012881 0.569062
v 0.031203 0.008381 0.569858
v 0.030880 0.001424 0.552409
v 0.027958 0.000281 0.557620
v 0.030247 0.000798 0.558830
v 0.033028 0.001961 0.554157
v 0.026722 -0.001033 0.563698
v 0.028913 0.000153 0.563296
v 0.030512 0.003000 0.566746
v 0.032788 0.004307 0.561013
v 0.033835 0.008591 0.563084
v 0.037103 0.009253 0.558330
v 0.036435 0.004960 0.556256
v 0.032213 0.006541 0.566800
v 0.035339 0.003294 0.551651
v 0.034779 0.004157 0.549276
v 0.029258 0.001939 0.569619
v 0.021032 -0.000060 0.563000
v 0.025730 0.001357 0.555660
v 0.029202 0.003442 0.550388
v 0.033909 0.006839 0.548074
v 0.024347 0.004953 0.553820
v 0.028359 0.006505 0.549598
v 0.032502 0.009162 0.548368
v 0.023935 0.009711 0.553359
v 0.028362 0.010752 0.549820
v 0.017868 0.008405 0.561647
v 0.018330 0.003572 0.561408
v 0.030886 0.010830 0.549061
v 0.038437 0.006948 0.550691
v 0.036980 0.009484 0.549035
v 0.038071 0.006066 0.552309
v 0.033790 0.010716 0.563556
v 0.036753 0.011384 0.557726
v 0.033086 0.013452 0.562796
v 0.036362 0.013466 0.556481
v 0.038944 0.010686 0.553513
v 0.038971 0.009073 0.554034
v 0.017402 0.008094 0.563438
v 0.018831 0.013352 0.565220
v 0.019269 0.013589 0.563684
v 0.025800 0.014298 0.555557
v 0.022338 0.016102 0.566365
v 0.027268 0.015381 0.567719
v 0.031350 0.015512 0.561710
v 0.028803 0.016310 0.558649
v 0.035443 0.015398 0.556003
v 0.032318 0.015977 0.555287
v 0.029432 0.014230 0.551801
v 0.037207 0.013959 0.551859
v 0.038539 0.012144 0.552587
v 0.035361 0.011021 0.549027
v 0.034420 0.014984 0.552108
v 0.032738 0.012751 0.549710
v 0.004309 0.025802 0.571770
v 0.005243 0.031527 0.571428
v 0.001918 0.031941 0.572542
v 0.001044 0.026349 0.573273
v 0.007463 0.021703 0.583519
v 0.006379 0.020429 0.578827
v 0.002133 0.020930 0.580888
v 0.001975 0.022432 0.586160
v 0.010539 0.025943 0.585887
v 0.003414 0.027376 0.589621
v -0.003417 0.023556 0.587706
v -0.002178 0.021627 0.582024
v -0.016358 0.026098 0.580881
v -0.016762 0.028835 0.586828
v 0.005081 0.022364 0.574732
v 0.001593 0.022817 0.576257
v 0.002287 0.039471 0.576380
v 0.001294 0.036227 0.572822
v 0.003829 0.036580 0.574547
v 0.005371 0.038550 0.578204
v -0.016095 0.030398 0.571242
v -0.015077 0.036430 0.571036
v -0.015743 0.027037 0.575035
v 0.002402 0.039701 0.583066
v 0.000489 0.036346 0.589262
v -0.012594 0.042561 0.585660
v -0.011437 0.044614 0.579964
v -0.001714 0.022832 0.577008
v -0.000593 0.031469 0.571156
v -0.001482 0.026091 0.572550
v -0.002467 0.029472 0.590173
v 0.006056 0.033973 0.588511
v 0.025194 0.033161 0.576013
v 0.010865 0.036891 0.582688
v 0.008965 0.037932 0.577112
v 0.023720 0.035244 0.572331
v 0.006970 0.038118 0.583752
v 0.011327 0.032444 0.586279
v 0.017624 0.025097 0.564780
v 0.018594 0.030518 0.565450
v 0.017260 0.021646 0.567686
v -0.015615 0.035524 0.589291
v -0.012054 0.043289 0.573690
v 0.020524 0.019489 0.574215
v 0.018382 0.019815 0.570370
v 0.006994 0.036064 0.573707
v 0.021207 0.034692 0.568413
v 0.024730 0.029119 0.578921
v 0.022350 0.023143 0.578813
v 0.029316 0.028606 0.575266
v 0.026976 0.022592 0.574992
v 0.024563 0.018902 0.570816
v 0.021643 0.019704 0.567231
v 0.020128 0.021771 0.564881
v 0.029089 0.032849 0.572345
v 0.027164 0.034667 0.569306
v 0.022367 0.034034 0.567396
v 0.031669 0.033098 0.568655
v 0.033991 0.028145 0.569538
v 0.035049 0.020723 0.553955
v 0.031702 0.020223 0.558891
v 0.032635 0.020753 0.559499
v 0.036456 0.021073 0.554923
v 0.029687 0.019494 0.565430
v 0.031250 0.020306 0.564471
v 0.032958 0.022762 0.567113
v 0.036562 0.023598 0.561674
v 0.036710 0.029524 0.563028
v 0.039502 0.029168 0.558451
v 0.039861 0.023746 0.557041
v 0.034440 0.027072 0.567596
v 0.038804 0.022014 0.552757
v 0.038357 0.020968 0.551208
v 0.031982 0.022477 0.569537
v 0.025151 0.019352 0.563409
v 0.029283 0.020234 0.557115
v 0.032519 0.020740 0.552016
v 0.035641 0.022689 0.549406
v 0.027061 0.022929 0.555506
v 0.030675 0.023245 0.551413
v 0.033586 0.024920 0.549126
v 0.026263 0.026130 0.554906
v 0.029747 0.026367 0.551549
v 0.020522 0.025615 0.562235
v 0.022096 0.021882 0.562373
v 0.032395 0.026796 0.549876
v 0.041347 0.024660 0.551845
v 0.038941 0.027318 0.549589
v 0.040791 0.024395 0.553474
v 0.036281 0.031245 0.563616
v 0.039705 0.031393 0.557702
v 0.034779 0.033532 0.562750
v 0.038169 0.033480 0.556926
v 0.041602 0.029313 0.554246
v 0.041361 0.028345 0.554940
v 0.019248 0.025496 0.564003
v 0.019930 0.030527 0.564974
v 0.020972 0.030439 0.563346
v 0.027027 0.030898 0.555411
v 0.023440 0.033986 0.565499
v 0.029487 0.034737 0.565907
v 0.032373 0.034466 0.560588
v 0.029799 0.033954 0.557691
v 0.035729 0.034162 0.555680
v 0.033027 0.033488 0.554946
v 0.030300 0.030528 0.552035
v 0.037187 0.031955 0.552416
v 0.040009 0.031224 0.553108
v 0.036062 0.028692 0.549357
v 0.034681 0.032139 0.552137
v 0.033754 0.029577 0.549964
v -0.013468 0.040719 0.571571
v 0.007359 0.048372 0.565862
v 0.008015 0.052446 0.564989
v 0.006915 0.053185 0.566167
v 0.005142 0.049205 0.566724
v 0.009117 0.046174 0.576882
v 0.008323 0.044645 0.572484
v 0.004508 0.045032 0.574629
v 0.005053 0.046638 0.578838
v 0.010539 0.050558 0.579159
v 0.006847 0.051483 0.580696
v 0.001213 0.047976 0.579347
v 0.000666 0.046162 0.575050
v -0.014413 0.051579 0.575031
v -0.015671 0.055187 0.579063
v -0.010321 0.070186 0.567870
v -0.011706 0.066699 0.563271
v -0.004133 0.064311 0.565831
v -0.004281 0.067469 0.569670
v 0.007622 0.045744 0.568693
v 0.004186 0.046011 0.569768
v 0.007994 0.061835 0.571030
v 0.006953 0.058777 0.567296
v 0.008104 0.057211 0.566783
v 0.009968 0.060543 0.569568
v -0.012066 0.061084 0.562560
v -0.012960 0.056200 0.564889
v -0.009172 0.055451 0.564723
v -0.004884 0.059401 0.564553
v -0.010895 0.051662 0.568671
v 0.007844 0.061832 0.575444
v 0.006219 0.058620 0.580345
v -0.009104 0.067749 0.578853
v -0.006852 0.068882 0.574392
v 0.002150 0.046538 0.570737
v 0.005207 0.054429 0.566108
v 0.004242 0.050094 0.567132
v 0.003030 0.052888 0.581866
v 0.009425 0.057195 0.578834
v 0.019741 0.058035 0.569220
v 0.012590 0.060186 0.572893
v 0.011279 0.059951 0.568146
v 0.018602 0.058258 0.566266
v 0.010618 0.060512 0.574074
v 0.012845 0.056416 0.577168
v 0.014103 0.047474 0.562139
v 0.014832 0.052728 0.561944
v 0.014374 0.044963 0.564313
v -0.014072 0.061331 0.581056
v 0.017151 0.044758 0.571294
v 0.015835 0.043646 0.567184
v 0.009523 0.056380 0.565617
v 0.016656 0.056477 0.563504
v 0.020247 0.055043 0.572605
v 0.018755 0.049317 0.574436
v 0.023933 0.053766 0.570001
v 0.022130 0.048019 0.571590
v 0.020098 0.043649 0.567895
v 0.017774 0.043473 0.564894
v 0.016322 0.044833 0.562383
v 0.023071 0.056954 0.566867
v 0.021391 0.057344 0.564289
v 0.018580 0.055925 0.562084
v 0.026306 0.055799 0.564328
v 0.028309 0.051749 0.565983
v 0.029629 0.042882 0.555861
v 0.026686 0.042972 0.558769
v 0.027533 0.043414 0.559543
v 0.030426 0.042671 0.556637
v 0.024239 0.043419 0.563594
v 0.025795 0.044074 0.563309
v 0.026616 0.046685 0.565669
v 0.030199 0.045942 0.561812
v 0.031797 0.051057 0.561479
v 0.034479 0.049851 0.558475
v 0.033055 0.045367 0.559272
v 0.029116 0.050103 0.565136
v 0.032974 0.042736 0.555526
v 0.033144 0.042423 0.554172
v 0.025676 0.046707 0.567346
v 0.020626 0.043102 0.561553
v 0.025468 0.042766 0.556575
v 0.029536 0.042702 0.553503
v 0.032993 0.043736 0.552270
v 0.023593 0.044227 0.555497
v 0.028407 0.043975 0.551876
v 0.031730 0.045137 0.550804
v 0.022352 0.047135 0.554354
v 0.027376 0.046406 0.551471
v 0.017247 0.048205 0.558721
v 0.018531 0.044971 0.559743
v 0.030500 0.046478 0.550913
v 0.035907 0.045034 0.555063
v 0.035017 0.046356 0.552538
v 0.035620 0.045057 0.556616
v 0.031580 0.052452 0.561235
v 0.034767 0.051126 0.557464
v 0.030501 0.054400 0.559951
v 0.033893 0.052237 0.555775
v 0.036379 0.048647 0.555445
v 0.035791 0.047820 0.557037
v 0.015880 0.048092 0.560233
v 0.016396 0.052256 0.560669
v 0.018111 0.052443 0.559097
v 0.022930 0.051116 0.554518
v 0.020547 0.055877 0.560599
v 0.023775 0.056806 0.562604
v 0.028506 0.055036 0.558104
v 0.025888 0.054278 0.555981
v 0.032490 0.052423 0.554057
v 0.029850 0.051898 0.552563
v 0.027737 0.049656 0.551473
v 0.033937 0.049401 0.552222
v 0.035479 0.049166 0.553333
v 0.033498 0.047326 0.551407
v 0.032111 0.049590 0.551458
v 0.031320 0.048251 0.551002
v -0.010296 0.070060 0.572023
v -0.032555 -0.011012 0.504216
v -0.029746 -0.008111 0.508310
v -0.018481 0.000521 0.500041
v -0.020506 -0.001871 0.506389
v -0.019369 -0.000532 0.493346
v -0.027174 -0.006368 0.488428
v -0.023396 -0.002327 0.489529
v -0.024739 -0.004945 0.509333
v -0.034038 -0.011914 0.498332
v -0.032288 -0.010097 0.491438
v -0.029148 -0.019465 0.499804
v -0.026734 -0.017530 0.492139
v -0.021727 -0.014078 0.488584
v -0.018106 -0.007736 0.490175
v -0.015454 -0.004544 0.493210
v -0.027863 -0.015180 0.505990
v -0.025248 -0.011531 0.509356
v -0.020618 -0.006706 0.509310
v -0.021279 -0.018185 0.509343
v -0.013832 -0.023775 0.506111
v 0.003582 -0.022466 0.497365
v -0.002048 -0.019048 0.495359
v -0.002953 -0.021426 0.496637
v 0.002195 -0.024627 0.497925
v -0.007720 -0.019142 0.494387
v -0.007234 -0.020570 0.496258
v -0.010798 -0.022513 0.499718
v -0.005799 -0.025173 0.501006
v -0.011325 -0.023639 0.504739
v -0.007820 -0.024912 0.506844
v -0.001051 -0.027890 0.502428
v 0.004090 -0.027741 0.499659
v 0.003079 -0.029915 0.503655
v 0.006568 -0.025875 0.500306
v -0.012877 -0.024466 0.498254
v -0.009962 -0.013046 0.491947
v -0.001912 -0.015407 0.494980
v 0.004513 -0.018977 0.498290
v 0.007513 -0.023189 0.501885
v -0.001549 -0.011706 0.497317
v 0.003650 -0.015616 0.500956
v 0.005888 -0.019484 0.504726
v -0.002298 -0.009642 0.501691
v 0.002110 -0.014300 0.504401
v -0.012561 -0.003890 0.499439
v -0.011040 -0.006864 0.493941
v 0.004003 -0.017764 0.505996
v 0.005471 -0.029594 0.505162
v 0.006343 -0.026560 0.506994
v -0.009423 -0.023950 0.509721
v -0.003585 -0.027955 0.508194
v -0.003741 -0.026403 0.510772
v -0.010783 -0.021033 0.512148
v -0.003563 -0.024245 0.512660
v 0.001234 -0.028982 0.509616
v 0.000033 -0.029750 0.507160
v -0.015220 -0.002112 0.498978
v -0.017573 -0.003054 0.505046
v -0.015334 -0.004698 0.505488
v -0.005417 -0.009973 0.507620
v -0.017436 -0.008134 0.510229
v -0.019939 -0.013671 0.511258
v -0.010089 -0.017541 0.513391
v -0.008347 -0.013240 0.512025
v -0.002744 -0.020725 0.512903
v -0.001979 -0.017990 0.511715
v 0.000472 -0.015198 0.508458
v 0.001856 -0.022737 0.511286
v 0.001714 -0.026305 0.511337
v 0.005094 -0.022283 0.508355
v 0.001108 -0.020121 0.510688
v 0.003153 -0.019196 0.508526
v -0.014951 0.068735 0.561292
v -0.015465 0.062136 0.559716
v -0.017437 0.066056 0.556305
v -0.019650 0.069972 0.549127
v -0.023204 0.078840 0.545037
v -0.022109 0.063588 0.547551
v -0.019435 0.059807 0.555330
v -0.016783 0.054204 0.561164
v -0.028385 0.061231 0.540062
f 2 3 1
f 1 3 4
f 5 6 8
f 8 6 7
f 9 4 10
f 10 4 3
f 12 13 11
f 11 13 9
f 14 12 16
f 16 12 15
f 18 19 17
f 17 19 20
f 22 23 21
f 21 23 24
f 26 27 25
f 25 27 28
f 30 31 29
f 29 31 32
f 33 34 36
f 36 34 35
f 37 38 40
f 40 38 39
f 41 42 6
f 6 42 43
f 6 43 7
f 7 43 44
f 45 34 46
f 46 34 33
f 48 49 47
f 47 49 50
f 52 53 51
f 51 53 54
f 56 52 55
f 55 52 51
f 58 59 57
f 57 59 60
f 61 62 4
f 4 62 1
f 64 65 63
f 63 65 66
f 68 69 67
f 67 69 70
f 72 73 71
f 71 73 74
f 76 77 75
f 75 77 78
f 53 79 54
f 54 79 80
f 82 83 81
f 81 83 84
f 85 86 52
f 52 86 53
f 57 60 87
f 87 60 88
f 89 90 43
f 43 90 44
f 43 42 89
f 89 42 91
f 40 39 92
f 92 39 93
f 94 70 64
f 64 70 69
f 13 61 9
f 9 61 4
f 25 28 69
f 69 28 95
f 96 25 68
f 68 25 69
f 98 99 97
f 97 99 100
f 101 102 104
f 104 102 103
f 106 30 105
f 105 30 29
f 51 54 107
f 107 54 108
f 54 80 108
f 108 80 109
f 111 112 110
f 110 112 113
f 115 5 114
f 114 5 116
f 115 41 5
f 5 41 6
f 36 35 111
f 111 35 117
f 35 118 117
f 117 118 119
f 34 120 35
f 35 120 118
f 34 45 120
f 120 45 121
f 125 126 124
f 124 126 127
f 128 129 14
f 14 129 130
f 33 131 46
f 46 131 132
f 133 94 63
f 63 94 64
f 134 135 137
f 137 135 136
f 139 140 138
f 138 140 141
f 77 142 78
f 78 142 143
f 144 145 20
f 20 145 146
f 148 149 147
f 147 149 72
f 151 152 150
f 150 152 153
f 82 101 83
f 83 101 104
f 101 82 155
f 155 82 154
f 156 157 58
f 58 157 59
f 158 68 147
f 147 68 67
f 159 146 15
f 15 146 16
f 68 158 96
f 96 158 160
f 129 66 130
f 130 66 65
f 162 163 161
f 161 163 164
f 166 167 165
f 165 167 168
f 170 171 169
f 169 171 172
f 174 171 173
f 173 171 170
f 176 177 175
f 175 177 178
f 180 181 179
f 179 181 24
f 182 183 21
f 21 183 184
f 81 185 82
f 82 185 154
f 186 187 188
f 188 187 144
f 158 71 160
f 160 71 189
f 190 135 157
f 157 135 59
f 169 172 139
f 139 172 140
f 147 72 158
f 158 72 71
f 192 193 191
f 191 193 194
f 167 166 49
f 49 166 195
f 196 190 50
f 50 190 157
f 197 198 200
f 200 198 199
f 21 24 182
f 182 24 181
f 146 159 20
f 20 159 17
f 182 181 81
f 81 181 185
f 201 185 180
f 180 185 181
f 202 203 83
f 83 203 84
f 205 206 204
f 204 206 85
f 207 22 184
f 184 22 21
f 179 24 208
f 208 24 23
f 208 209 179
f 179 209 205
f 209 210 205
f 205 210 206
f 212 206 211
f 211 206 210
f 179 205 180
f 180 205 204
f 213 176 88
f 88 176 214
f 86 85 212
f 212 85 206
f 193 217 218
f 217 219 218
f 218 219 220
f 219 18 220
f 220 18 17
f 19 221 20
f 20 221 144
f 222 223 225
f 225 223 224
f 175 226 176
f 176 226 214
f 227 87 214
f 214 87 88
f 220 17 228
f 228 17 159
f 134 213 60
f 60 213 88
f 138 229 151
f 151 229 152
f 193 192 210
f 210 192 211
f 230 194 218
f 218 194 193
f 231 232 228
f 228 232 230
f 233 234 91
f 91 234 89
f 235 236 93
f 93 236 92
f 230 232 234
f 234 232 237
f 47 238 48
f 48 238 239
f 240 191 235
f 235 191 236
f 5 8 116
f 116 8 241
f 242 243 189
f 189 243 160
f 244 245 98
f 98 245 99
f 156 246 47
f 47 246 238
f 76 247 77
f 77 247 248
f 250 125 249
f 249 125 124
f 252 253 251
f 251 253 254
f 111 110 36
f 36 110 255
f 256 33 255
f 255 33 36
f 257 258 154
f 154 258 155
f 63 169 133
f 133 169 139
f 66 170 63
f 63 170 169
f 173 170 129
f 129 170 66
f 129 128 173
f 173 128 259
f 128 260 259
f 259 260 261
f 213 134 262
f 262 134 137
f 263 264 186
f 186 264 187
f 112 265 113
f 113 265 266
f 11 267 268
f 234 233 230
f 230 233 194
f 153 269 70
f 70 269 67
f 175 178 165
f 165 178 141
f 150 153 94
f 94 153 70
f 271 221 270
f 270 221 207
f 269 153 272
f 272 153 152
f 121 45 109
f 109 45 108
f 47 50 156
f 156 50 157
f 57 273 58
f 58 273 274
f 145 275 260
f 260 275 261
f 276 149 143
f 143 149 78
f 148 269 75
f 75 269 272
f 207 277 270
f 270 277 278
f 195 196 49
f 49 196 50
f 59 135 60
f 60 135 134
f 83 104 202
f 202 104 279
f 149 148 78
f 78 148 75
f 247 278 248
f 248 278 277
f 183 182 84
f 84 182 81
f 48 239 281
f 281 239 282
f 227 223 283
f 283 223 222
f 223 226 224
f 224 226 168
f 281 282 224
f 224 282 225
f 165 168 175
f 175 168 226
f 264 263 138
f 138 263 229
f 14 16 128
f 128 16 260
f 220 228 218
f 218 228 230
f 87 227 284
f 284 227 283
f 260 16 145
f 145 16 146
f 244 98 258
f 258 98 155
f 58 274 156
f 156 274 246
f 107 285 51
f 51 285 55
f 243 286 160
f 160 286 96
f 234 237 89
f 89 237 90
f 46 132 107
f 107 132 285
f 253 252 249
f 249 252 250
f 286 26 96
f 96 26 25
f 106 105 287
f 287 105 288
f 272 152 289
f 289 152 229
f 138 151 139
f 139 151 133
f 183 290 161
f 161 290 162
f 291 292 277
f 277 292 293
f 151 150 133
f 133 150 94
f 262 275 177
f 177 275 187
f 144 187 145
f 145 187 275
f 273 57 284
f 284 57 87
f 174 136 190
f 190 136 135
f 111 117 112
f 112 117 38
f 117 119 38
f 38 119 123
f 112 38 265
f 265 38 37
f 287 288 254
f 254 288 251
f 228 159 231
f 231 159 15
f 223 227 226
f 226 227 214
f 147 67 148
f 148 67 269
f 224 168 281
f 281 168 167
f 199 163 200
f 200 163 162
f 45 46 108
f 108 46 107
f 281 167 48
f 48 167 49
f 161 164 291
f 291 164 292
f 38 123 39
f 293 294 277
f 277 294 248
f 284 283 296
f 296 283 295
f 284 296 273
f 273 296 297
f 274 273 298
f 298 273 297
f 246 274 299
f 299 274 298
f 283 222 295
f 295 222 300
f 222 225 300
f 300 225 301
f 301 225 302
f 302 225 282
f 303 304 300
f 300 304 295
f 306 307 305
f 305 307 308
f 309 310 308
f 308 310 305
f 308 307 312
f 312 307 311
f 313 314 312
f 312 314 315
f 311 316 312
f 312 316 313
f 317 304 311
f 311 304 316
f 315 309 312
f 312 309 308
f 318 319 321
f 321 319 320
f 319 318 309
f 309 318 310
f 311 307 317
f 317 307 306
f 306 297 317
f 317 297 296
f 306 322 297
f 297 322 298
f 305 323 306
f 306 323 322
f 323 305 324
f 324 305 310
f 304 317 295
f 295 317 296
f 318 325 310
f 310 325 324
f 323 324 326
f 326 324 327
f 324 325 327
f 327 325 328
f 326 327 329
f 329 327 330
f 329 331 326
f 326 331 332
f 333 330 328
f 328 330 327
f 323 326 322
f 322 326 332
f 322 332 298
f 298 332 299
f 325 318 334
f 334 318 321
f 313 316 335
f 335 316 304
f 335 336 313
f 313 336 314
f 304 303 335
f 335 303 337
f 336 335 338
f 338 335 337
f 336 339 314
f 314 339 340
f 246 299 238
f 238 299 341
f 239 342 282
f 282 342 302
f 342 239 341
f 341 239 238
f 341 331 342
f 342 331 343
f 331 329 343
f 343 329 344
f 342 343 302
f 302 343 345
f 341 299 331
f 331 299 332
f 346 301 345
f 345 301 302
f 346 303 301
f 301 303 300
f 347 337 346
f 346 337 303
f 347 346 348
f 348 346 345
f 349 347 350
f 350 347 348
f 343 344 345
f 345 344 348
f 344 351 348
f 348 351 350
f 337 347 338
f 338 347 349
f 353 338 352
f 352 338 349
f 352 355 354
f 354 355 356
f 352 349 355
f 355 349 350
f 352 354 353
f 353 354 334
f 353 334 339
f 339 334 321
f 339 336 353
f 353 336 338
f 329 330 344
f 344 330 351
f 356 351 333
f 333 351 330
f 356 355 351
f 351 355 350
f 354 356 328
f 328 356 333
f 328 325 354
f 354 325 334
f 309 315 319
f 319 315 320
f 320 340 321
f 321 340 339
f 320 315 340
f 340 315 314
f 137 136 261
f 261 136 259
f 140 166 141
f 141 166 165
f 172 171 195
f 195 171 196
f 171 174 196
f 196 174 190
f 178 177 264
f 264 177 187
f 172 195 140
f 140 195 166
f 137 261 262
f 262 261 275
f 178 264 141
f 141 264 138
f 262 177 213
f 213 177 176
f 136 174 259
f 259 174 173
f 358 359 357
f 357 359 360
f 362 363 361
f 361 363 364
f 361 364 365
f 365 364 366
f 367 368 370
f 370 368 369
f 76 371 247
f 247 371 372
f 373 374 362
f 362 374 363
f 376 377 375
f 375 377 378
f 289 229 380
f 380 229 379
f 381 379 263
f 263 379 229
f 383 384 382
f 382 384 385
f 386 368 374
f 374 368 363
f 76 289 371
f 371 289 380
f 377 376 359
f 359 376 387
f 388 386 360
f 360 386 374
f 389 383 366
f 366 383 390
f 392 393 391
f 391 393 394
f 383 382 390
f 390 382 395
f 396 365 390
f 390 365 366
f 389 366 367
f 367 366 364
f 357 397 358
f 358 397 398
f 373 399 357
f 357 399 397
f 389 367 400
f 400 367 370
f 382 385 375
f 375 385 372
f 357 360 373
f 373 360 374
f 361 401 362
f 362 401 402
f 387 388 359
f 359 388 360
f 363 368 364
f 364 368 367
f 358 398 403
f 403 398 404
f 396 392 405
f 405 392 391
f 392 395 393
f 393 395 378
f 393 403 394
f 394 403 404
f 375 378 382
f 382 378 395
f 365 396 406
f 406 396 405
f 362 402 373
f 373 402 399
f 271 270 400
f 400 270 384
f 401 361 406
f 406 361 365
f 381 369 386
f 386 369 368
f 392 396 395
f 395 396 390
f 393 378 403
f 403 378 377
f 403 377 358
f 358 377 359
f 406 405 408
f 408 405 407
f 406 408 401
f 401 408 409
f 401 409 402
f 402 409 410
f 402 410 399
f 399 410 411
f 405 391 407
f 407 391 412
f 391 394 412
f 412 394 413
f 394 404 413
f 413 404 414
f 415 416 412
f 412 416 407
f 418 419 417
f 417 419 420
f 421 422 418
f 418 422 419
f 419 422 424
f 424 422 423
f 425 426 424
f 424 426 427
f 423 428 424
f 424 428 425
f 427 420 424
f 424 420 419
f 420 429 417
f 417 429 430
f 423 422 431
f 431 422 421
f 421 409 431
f 431 409 408
f 421 432 409
f 409 432 410
f 418 433 421
f 421 433 432
f 434 433 417
f 417 433 418
f 431 416 423
f 423 416 428
f 416 431 407
f 407 431 408
f 435 434 430
f 430 434 417
f 433 434 436
f 436 434 437
f 434 435 437
f 437 435 438
f 436 437 439
f 439 437 440
f 439 441 436
f 436 441 442
f 438 443 437
f 437 443 440
f 436 442 433
f 433 442 432
f 432 442 410
f 410 442 411
f 435 430 445
f 445 430 444
f 430 429 444
f 444 429 446
f 425 428 447
f 447 428 416
f 426 425 448
f 448 425 447
f 416 415 447
f 447 415 449
f 447 449 448
f 448 449 450
f 451 452 448
f 448 452 426
f 446 452 444
f 444 452 451
f 399 411 397
f 397 411 453
f 398 454 404
f 404 454 414
f 454 398 453
f 453 398 397
f 453 441 454
f 454 441 455
f 441 439 455
f 455 439 456
f 454 455 414
f 414 455 457
f 441 453 442
f 442 453 411
f 458 413 457
f 457 413 414
f 458 415 413
f 413 415 412
f 458 459 415
f 415 459 449
f 459 458 460
f 460 458 457
f 461 459 462
f 462 459 460
f 455 456 457
f 457 456 460
f 456 463 460
f 460 463 462
f 459 461 449
f 449 461 450
f 465 450 464
f 464 450 461
f 464 467 466
f 466 467 468
f 464 461 467
f 467 461 462
f 464 466 465
f 465 466 445
f 465 445 451
f 451 445 444
f 451 448 465
f 465 448 450
f 439 440 456
f 456 440 463
f 468 463 443
f 443 463 440
f 468 467 463
f 463 467 462
f 466 468 438
f 438 468 443
f 438 435 466
f 466 435 445
f 420 427 429
f 429 427 446
f 446 427 452
f 452 427 426
f 370 369 188
f 188 369 186
f 371 376 372
f 372 376 375
f 380 379 387
f 387 379 388
f 379 381 388
f 388 381 386
f 385 384 278
f 278 384 270
f 380 387 371
f 371 387 376
f 400 370 271
f 271 370 188
f 385 278 372
f 372 278 247
f 400 384 389
f 389 384 383
f 369 381 186
f 186 381 263
f 221 271 144
f 144 271 188
f 221 19 207
f 207 19 22
f 19 18 22
f 22 18 23
f 18 219 23
f 23 219 208
f 469 470 472
f 472 470 471
f 474 475 473
f 473 475 476
f 473 476 477
f 477 476 478
f 480 481 479
f 479 481 482
f 483 484 474
f 474 484 475
f 486 487 485
f 485 487 488
f 489 490 77
f 77 490 142
f 491 489 248
f 248 489 77
f 493 494 492
f 492 494 495
f 496 480 484
f 484 480 475
f 486 497 487
f 487 497 471
f 498 496 472
f 472 496 484
f 499 493 478
f 478 493 500
f 501 502 504
f 504 502 503
f 493 492 500
f 500 492 505
f 506 477 500
f 500 477 478
f 499 478 479
f 479 478 476
f 469 507 470
f 470 507 508
f 483 509 469
f 469 509 507
f 479 482 499
f 499 482 510
f 492 495 485
f 485 495 511
f 483 469 484
f 484 469 472
f 473 512 474
f 474 512 513
f 497 498 471
f 471 498 472
f 475 480 476
f 476 480 479
f 470 508 514
f 514 508 515
f 506 502 516
f 516 502 501
f 503 502 488
f 488 502 505
f 514 515 503
f 503 515 504
f 485 488 492
f 492 488 505
f 477 506 517
f 517 506 516
f 474 513 483
f 483 513 509
f 510 292 494
f 494 292 164
f 512 473 517
f 517 473 477
f 491 481 496
f 496 481 480
f 502 506 505
f 505 506 500
f 503 488 514
f 514 488 487
f 514 487 470
f 470 487 471
f 517 516 519
f 519 516 518
f 517 519 512
f 512 519 520
f 512 520 513
f 513 520 521
f 513 521 509
f 509 521 522
f 516 501 518
f 518 501 523
f 501 504 523
f 523 504 524
f 524 504 525
f 525 504 515
f 526 527 523
f 523 527 518
f 529 530 528
f 528 530 531
f 532 533 529
f 529 533 530
f 530 533 535
f 535 533 534
f 536 537 535
f 535 537 538
f 534 539 535
f 535 539 536
f 538 531 535
f 535 531 530
f 540 541 531
f 531 541 528
f 533 532 534
f 534 532 542
f 532 520 542
f 542 520 519
f 532 543 520
f 520 543 521
f 529 544 532
f 532 544 543
f 544 529 545
f 545 529 528
f 534 542 539
f 539 542 527
f 527 542 518
f 518 542 519
f 541 546 528
f 528 546 545
f 547 544 548
f 548 544 545
f 546 549 545
f 545 549 548
f 550 547 551
f 551 547 548
f 547 550 553
f 553 550 552
f 549 554 548
f 548 554 551
f 544 547 543
f 543 547 553
f 543 553 521
f 521 553 522
f 546 541 556
f 556 541 555
f 541 540 555
f 555 540 557
f 536 539 558
f 558 539 527
f 537 536 559
f 559 536 558
f 527 526 558
f 558 526 560
f 559 558 561
f 561 558 560
f 559 562 537
f 537 562 563
f 557 563 555
f 555 563 562
f 509 522 507
f 507 522 564
f 508 565 515
f 515 565 525
f 565 508 564
f 564 508 507
f 564 552 565
f 565 552 566
f 552 550 566
f 566 550 567
f 565 566 525
f 525 566 568
f 564 522 552
f 552 522 553
f 569 524 568
f 568 524 525
f 569 526 524
f 524 526 523
f 570 560 569
f 569 560 526
f 570 569 571
f 571 569 568
f 572 570 573
f 573 570 571
f 566 567 568
f 568 567 571
f 567 574 571
f 571 574 573
f 570 572 560
f 560 572 561
f 576 561 575
f 575 561 572
f 575 578 577
f 577 578 579
f 575 572 578
f 578 572 573
f 575 577 576
f 576 577 556
f 576 556 562
f 562 556 555
f 562 559 576
f 576 559 561
f 550 551 567
f 567 551 574
f 579 574 554
f 554 574 551
f 579 578 574
f 574 578 573
f 579 554 577
f 577 554 549
f 549 546 577
f 577 546 556
f 531 538 540
f 540 538 557
f 557 538 563
f 563 538 537
f 481 294 482
f 482 294 293
f 580 486 511
f 511 486 485
f 490 489 497
f 497 489 498
f 489 491 498
f 498 491 496
f 163 495 164
f 164 495 494
f 580 490 486
f 486 490 497
f 482 293 510
f 510 293 292
f 495 163 511
f 511 163 199
f 494 493 510
f 510 493 499
f 481 491 294
f 294 491 248
f 582 583 581
f 581 583 584
f 586 587 585
f 585 587 588
f 585 588 589
f 589 588 590
f 592 593 591
f 591 593 594
f 595 596 598
f 598 596 597
f 599 600 586
f 586 600 587
f 601 602 604
f 604 602 603
f 605 606 608
f 608 606 607
f 609 607 200
f 200 607 606
f 610 611 613
f 613 611 612
f 600 614 587
f 587 614 592
f 596 605 597
f 597 605 608
f 602 615 603
f 603 615 583
f 616 614 584
f 584 614 600
f 611 618 617
f 617 618 590
f 620 621 619
f 619 621 622
f 610 623 611
f 611 623 618
f 624 589 618
f 618 589 590
f 617 590 591
f 591 590 588
f 581 625 582
f 582 625 626
f 599 627 581
f 581 627 625
f 591 594 617
f 617 594 628
f 601 610 598
f 598 610 613
f 581 584 599
f 599 584 600
f 585 629 586
f 586 629 630
f 615 616 583
f 583 616 584
f 587 592 588
f 588 592 591
f 582 626 631
f 631 626 632
f 624 620 633
f 633 620 619
f 621 620 604
f 604 620 623
f 631 632 621
f 621 632 622
f 610 601 623
f 623 601 604
f 589 624 634
f 634 624 633
f 586 630 599
f 599 630 627
f 203 202 628
f 628 202 612
f 629 585 634
f 634 585 589
f 609 593 614
f 614 593 592
f 620 624 623
f 623 624 618
f 631 621 603
f 603 621 604
f 582 631 583
f 583 631 603
f 634 633 636
f 636 633 635
f 634 636 629
f 629 636 637
f 629 637 630
f 630 637 638
f 630 638 627
f 627 638 639
f 633 619 635
f 635 619 640
f 619 622 640
f 640 622 641
f 641 622 642
f 642 622 632
f 644 635 643
f 643 635 640
f 645 646 648
f 648 646 647
f 649 650 646
f 646 650 647
f 647 650 652
f 652 650 651
f 652 653 655
f 655 653 654
f 651 656 652
f 652 656 653
f 655 648 652
f 652 648 647
f 648 657 645
f 645 657 658
f 650 649 651
f 651 649 659
f 649 637 659
f 659 637 636
f 649 660 637
f 637 660 638
f 661 660 646
f 646 660 649
f 662 661 645
f 645 661 646
f 651 659 656
f 656 659 644
f 644 659 635
f 635 659 636
f 663 662 658
f 658 662 645
f 664 661 665
f 665 661 662
f 663 666 662
f 662 666 665
f 667 664 668
f 668 664 665
f 664 667 670
f 670 667 669
f 666 671 665
f 665 671 668
f 661 664 660
f 660 664 670
f 660 670 638
f 638 670 639
f 658 672 663
f 663 672 673
f 658 657 672
f 672 657 674
f 653 656 675
f 675 656 644
f 653 675 654
f 654 675 676
f 675 644 677
f 677 644 643
f 676 675 678
f 678 675 677
f 679 680 676
f 676 680 654
f 674 680 672
f 672 680 679
f 627 639 625
f 625 639 681
f 626 682 632
f 632 682 642
f 681 682 625
f 625 682 626
f 669 683 681
f 681 683 682
f 667 684 669
f 669 684 683
f 682 683 642
f 642 683 685
f 681 639 669
f 669 639 670
f 686 641 685
f 685 641 642
f 641 686 640
f 640 686 643
f 686 687 643
f 643 687 677
f 687 686 688
f 688 686 685
f 689 687 690
f 690 687 688
f 683 684 685
f 685 684 688
f 684 691 688
f 688 691 690
f 687 689 677
f 677 689 678
f 693 678 692
f 692 678 689
f 692 695 694
f 694 695 696
f 692 689 695
f 695 689 690
f 692 694 693
f 693 694 673
f 693 673 679
f 679 673 672
f 679 676 693
f 693 676 678
f 684 667 691
f 691 667 668
f 696 691 671
f 671 691 668
f 696 695 691
f 691 695 690
f 694 696 666
f 666 696 671
f 666 663 694
f 694 663 673
f 648 655 657
f 657 655 674
f 674 655 680
f 680 655 654
f 593 162 594
f 594 162 290
f 598 597 601
f 601 597 602
f 615 608 616
f 616 608 607
f 607 609 616
f 616 609 614
f 697 595 613
f 613 595 598
f 597 608 602
f 602 608 615
f 594 290 628
f 628 290 203
f 628 612 617
f 617 612 611
f 593 609 162
f 162 609 200
f 105 29 698
f 698 29 699
f 268 126 701
f 701 126 700
f 126 125 700
f 700 125 702
f 252 703 250
f 250 703 704
f 32 268 705
f 705 268 701
f 288 105 706
f 706 105 698
f 29 32 699
f 699 32 705
f 707 251 706
f 706 251 288
f 250 704 125
f 125 704 702
f 703 252 707
f 707 252 251
f 706 708 707
f 707 708 709
f 707 709 703
f 703 709 710
f 703 710 704
f 704 710 711
f 704 711 702
f 702 711 712
f 706 698 708
f 708 698 713
f 698 699 713
f 713 699 714
f 699 705 714
f 714 705 715
f 717 708 716
f 716 708 713
f 719 720 718
f 718 720 721
f 722 723 719
f 719 723 720
f 724 725 723
f 723 725 720
f 724 726 725
f 725 726 727
f 728 721 725
f 725 721 720
f 721 728 729
f 729 728 730
f 729 731 721
f 721 731 718
f 724 723 732
f 732 723 722
f 722 710 732
f 732 710 709
f 722 733 710
f 710 733 711
f 719 734 722
f 722 734 733
f 734 719 735
f 735 719 718
f 724 732 726
f 726 732 717
f 717 732 708
f 708 732 709
f 731 736 718
f 718 736 735
f 737 734 738
f 738 734 735
f 736 739 735
f 735 739 738
f 740 737 741
f 741 737 738
f 737 740 743
f 743 740 742
f 739 744 738
f 738 744 741
f 734 737 733
f 733 737 743
f 733 743 711
f 711 743 712
f 736 731 746
f 746 731 745
f 731 729 745
f 745 729 730
f 727 726 747
f 747 726 717
f 748 727 749
f 749 727 747
f 747 717 750
f 750 717 716
f 749 747 751
f 751 747 750
f 749 752 748
f 748 752 753
f 730 753 745
f 745 753 752
f 728 725 748
f 748 725 727
f 730 728 753
f 753 728 748
f 700 702 754
f 754 702 712
f 705 701 715
f 715 701 755
f 754 755 700
f 700 755 701
f 742 756 754
f 754 756 755
f 740 757 742
f 742 757 756
f 755 756 715
f 715 756 758
f 754 712 742
f 742 712 743
f 759 714 758
f 758 714 715
f 714 759 713
f 713 759 716
f 759 760 716
f 716 760 750
f 760 759 761
f 761 759 758
f 762 760 763
f 763 760 761
f 756 757 758
f 758 757 761
f 757 764 761
f 761 764 763
f 760 762 750
f 750 762 751
f 766 751 765
f 765 751 762
f 767 765 769
f 769 765 768
f 765 762 768
f 768 762 763
f 765 767 766
f 766 767 746
f 766 746 752
f 752 746 745
f 752 749 766
f 766 749 751
f 757 740 764
f 764 740 741
f 769 764 744
f 744 764 741
f 769 768 764
f 764 768 763
f 767 769 739
f 739 769 744
f 739 736 767
f 767 736 746
f 219 217 208
f 208 217 209
f 209 217 210
f 210 217 193
f 198 580 199
f 199 580 511
f 76 75 289
f 289 75 272
f 277 207 291
f 291 207 184
f 290 183 203
f 203 183 84
f 490 580 142
f 142 580 198
f 142 198 143
f 143 198 197
f 149 276 72
f 72 276 73
f 104 103 279
f 279 103 770
f 770 596 279
f 279 596 595
f 605 596 771
f 771 596 770
f 771 770 772
f 772 770 103
f 772 103 773
f 773 103 102
f 155 774 101
f 101 774 102
f 773 102 97
f 97 102 774
f 775 773 100
f 100 773 97
f 773 775 772
f 772 775 776
f 772 776 771
f 771 776 777
f 200 606 197
f 197 606 777
f 189 71 778
f 778 71 74
f 97 774 98
f 98 774 155
f 183 161 184
f 184 161 291
f 777 276 197
f 197 276 143
f 777 606 771
f 771 606 605
f 613 612 697
f 697 612 202
f 595 697 279
f 279 697 202
f 73 276 776
f 776 276 777
f 776 775 73
f 73 775 74
f 100 778 775
f 775 778 74
f 778 100 189
f 189 100 99
f 245 242 99
f 99 242 189
f 131 33 256
f 28 1 95
f 95 1 62
f 27 2 28
f 28 2 1
f 265 115 266
f 266 115 114
f 95 62 69
f 69 62 64
f 62 61 64
f 64 61 65
f 61 13 65
f 65 13 130
f 13 12 130
f 130 12 14
f 31 11 32
f 32 11 268
f 15 12 31
f 31 12 11
f 31 30 15
f 15 30 231
f 30 106 231
f 231 106 232
f 287 237 106
f 106 237 232
f 254 90 287
f 287 90 237
f 253 44 254
f 254 44 90
f 253 249 44
f 44 249 7
f 267 127 268
f 268 127 126
f 10 3 241
f 241 3 116
f 3 2 116
f 116 2 114
f 2 27 114
f 114 27 266
f 27 26 266
f 266 26 113
f 26 286 113
f 113 286 110
f 286 243 110
f 110 243 255
f 243 242 255
f 255 242 256
f 242 245 256
f 256 245 131
f 245 244 131
f 131 244 132
f 265 37 115
f 115 37 41
f 41 37 42
f 42 37 40
f 92 91 40
f 40 91 42
f 236 233 92
f 92 233 91
f 191 194 236
f 236 194 233
f 258 285 244
f 244 285 132
f 257 55 258
f 258 55 285
f 257 154 201
f 201 154 185
f 56 201 204
f 204 201 180
f 55 257 56
f 56 257 201
f 204 85 56
f 56 85 52
f 86 122 53
f 53 122 79
f 212 215 86
f 86 215 122
f 211 216 212
f 212 216 215
f 192 280 211
f 211 280 216
f 191 240 192
f 192 240 280
f 249 124 7
f 7 124 8
f 124 127 8
f 8 127 241
f 127 267 241
f 241 267 10
f 10 267 9
f 9 267 11
o hand_right
v 0.167505 0.035885 0.535832
v 0.168825 0.043543 0.528010
v 0.163608 0.034484 0.524739
v 0.163970 0.027002 0.533095
v 0.167577 0.046941 0.505784
v 0.175491 0.045376 0.497037
v 0.167412 0.032449 0.498421
v 0.161080 0.035720 0.505341
v 0.162641 0.018835 0.531660
v 0.159738 0.026688 0.522951
v 0.166180 0.014011 0.530424
v 0.173654 0.008634 0.541485
v 0.167632 0.012540 0.540356
v 0.175022 0.005175 0.549740
v 0.184575 0.011691 0.541851
v 0.181791 0.008008 0.556247
v 0.193006 0.035517 0.559304
v 0.190703 0.047692 0.564642
v 0.182839 0.038132 0.576725
v 0.185255 0.026758 0.569271
v 0.177691 0.058346 0.577797
v 0.180184 0.046803 0.577973
v 0.189096 0.056347 0.566544
v 0.186326 0.066177 0.566845
v 0.169833 0.051564 0.539763
v 0.172566 0.059080 0.532890
v 0.172537 0.053421 0.531831
v 0.170049 0.046272 0.538115
v 0.170215 0.009054 0.519080
v 0.181282 0.013192 0.523437
v 0.175034 0.011893 0.528862
v 0.164855 0.010518 0.520768
v 0.174246 0.083022 0.516544
v 0.184996 0.089004 0.510828
v 0.187263 0.084128 0.508400
v 0.177295 0.079700 0.514580
v 0.187586 0.063781 0.499568
v 0.195150 0.070100 0.499958
v 0.207557 0.065637 0.496549
v 0.202358 0.057508 0.497990
v 0.180864 0.054602 0.497999
v 0.193373 0.049563 0.495823
v 0.185918 0.040433 0.495420
v 0.175589 0.028254 0.496772
v 0.182796 0.099457 0.517903
v 0.174249 0.096724 0.522751
v 0.141500 -0.012900 0.574767
v 0.138616 -0.007892 0.576187
v 0.141106 -0.006448 0.574971
v 0.143520 -0.011709 0.573896
v 0.187812 0.104631 0.536808
v 0.195963 0.102868 0.542460
v 0.197852 0.107680 0.537393
v 0.191067 0.108019 0.530931
v 0.183507 0.100051 0.544534
v 0.192960 0.095800 0.548963
v 0.144768 -0.019275 0.585377
v 0.144060 -0.019447 0.580284
v 0.148280 -0.018146 0.580561
v 0.149565 -0.017072 0.585668
v 0.164938 0.019703 0.540343
v 0.164756 0.029052 0.541982
v 0.159240 0.009478 0.554578
v 0.162084 0.018305 0.550456
v 0.165097 0.012828 0.546844
v 0.163782 0.006007 0.551589
v 0.160174 0.040988 0.557272
v 0.165286 0.047681 0.549196
v 0.165975 0.041264 0.547836
v 0.160214 0.032558 0.555452
v 0.160222 0.060475 0.552296
v 0.156038 0.052878 0.560231
v 0.153773 0.061085 0.561001
v 0.156268 0.065021 0.554695
v 0.150693 0.037355 0.572680
v 0.148847 0.032965 0.577259
v 0.147696 0.034698 0.578347
v 0.150122 0.040611 0.573313
v 0.200823 0.112079 0.532780
v 0.194801 0.110499 0.525255
v 0.169233 0.078264 0.577390
v 0.164056 0.085985 0.571329
v 0.155965 0.081022 0.580567
v 0.163989 0.073994 0.585308
v 0.203275 0.095986 0.544987
v 0.205469 0.102545 0.541442
v 0.143776 -0.015748 0.590336
v 0.148384 -0.013358 0.590578
v 0.197268 0.036912 0.501963
v 0.183804 0.023851 0.500954
v 0.206535 0.048079 0.502856
v 0.212739 0.056389 0.504063
v 0.217854 0.062912 0.502080
v 0.158627 0.020825 0.555657
v 0.166969 0.038201 0.542794
v 0.168688 0.056298 0.541070
v 0.154241 0.081789 0.550200
v 0.158473 0.087328 0.542408
v 0.159155 0.076754 0.540807
v 0.155801 0.074109 0.548365
v 0.155869 0.087304 0.565822
v 0.151328 0.082351 0.561489
v 0.147824 0.078115 0.567865
v 0.150694 0.082417 0.573463
v 0.174306 0.007542 0.512933
v 0.185985 0.014976 0.517713
v 0.180478 0.103028 0.529375
v 0.185282 0.104450 0.523421
v 0.191592 0.107734 0.518796
v 0.173320 0.070161 0.523784
v 0.179313 0.077415 0.513129
v 0.179997 0.073516 0.511547
v 0.174637 0.067344 0.523744
v 0.169468 0.052229 0.518920
v 0.174060 0.058944 0.508269
v 0.162783 0.042549 0.516111
v 0.191319 0.078574 0.504055
v 0.193806 0.089026 0.502184
v 0.198110 0.082106 0.498579
v 0.191405 0.096988 0.507366
v 0.190327 0.103680 0.513144
v 0.210483 0.108823 0.538930
v 0.202716 0.075266 0.496796
v 0.157267 0.027142 0.506092
v 0.154403 0.019230 0.505671
v 0.154119 0.017969 0.513466
v 0.156147 0.025720 0.514630
v 0.173752 0.000465 0.558427
v 0.167857 0.001717 0.553468
v 0.169910 0.007604 0.545536
v 0.167310 0.081575 0.525656
v 0.167439 0.093358 0.530426
v 0.156105 0.011868 0.560059
v 0.154167 -0.014499 0.584397
v 0.152415 -0.016020 0.578847
v 0.164722 -0.007422 0.568934
v 0.167084 -0.005857 0.575220
v 0.155197 0.010523 0.571086
v 0.154481 0.009016 0.564562
v 0.153861 0.008022 0.567473
v 0.152790 0.009937 0.573641
v 0.146263 0.043680 0.577054
v 0.148470 0.048956 0.572928
v 0.174615 0.018939 0.577713
v 0.181937 0.009921 0.570740
v 0.186507 0.016543 0.562736
v 0.158499 0.048124 0.558600
v 0.153660 0.042798 0.566105
v 0.152687 0.046615 0.567177
v 0.156678 0.021290 0.560092
v 0.154717 0.015269 0.564853
v 0.155359 0.020902 0.565659
v 0.156761 0.026748 0.561499
v 0.171826 0.091798 0.562375
v 0.162032 0.093510 0.556333
v 0.143147 -0.017103 0.576342
v 0.146130 -0.016052 0.576000
v 0.163541 0.054512 0.550654
v 0.192004 0.025410 0.553111
v 0.166980 0.061338 0.542268
v 0.158273 0.056447 0.588259
v 0.150742 0.057759 0.584611
v 0.147022 0.053479 0.585682
v 0.150836 0.051969 0.590269
v 0.143725 0.002708 0.582552
v 0.141744 0.000453 0.577662
v 0.139860 -0.001845 0.579045
v 0.140709 -0.000191 0.584693
v 0.156444 0.005489 0.560313
v 0.160541 0.001383 0.557395
v 0.156677 -0.001165 0.562239
v 0.154364 0.003705 0.564710
v 0.165035 -0.002589 0.560062
v 0.161069 -0.005435 0.564095
v 0.147304 0.001341 0.587874
v 0.151441 -0.004320 0.590802
v 0.163052 0.004973 0.582743
v 0.156249 0.008271 0.580377
v 0.195593 0.073743 0.557501
v 0.190537 0.083590 0.558525
v 0.181293 0.076324 0.568049
v 0.172671 0.069711 0.578453
v 0.164182 0.062638 0.586941
v 0.170780 0.052580 0.587891
v 0.178087 0.083811 0.567202
v 0.161212 0.014755 0.575916
v 0.169896 0.011030 0.577342
v 0.167130 0.015855 0.578561
v 0.163021 0.067500 0.543525
v 0.149497 -0.014475 0.574326
v 0.221460 0.064069 0.523407
v 0.220471 0.073770 0.532471
v 0.215905 0.067136 0.535782
v 0.216369 0.056197 0.525406
v 0.142497 -0.004788 0.573222
v 0.145461 -0.010287 0.571546
v 0.145280 0.054313 0.574534
v 0.143793 0.048930 0.578104
v 0.143086 0.051032 0.580631
v 0.142072 0.057030 0.577036
v 0.188239 0.089000 0.557470
v 0.148090 0.077497 0.583261
v 0.156223 0.071242 0.588311
v 0.198770 0.089509 0.550239
v 0.203725 0.081115 0.549753
v 0.209369 0.086923 0.544431
v 0.169501 0.037214 0.587393
v 0.197526 0.065335 0.557354
v 0.205506 0.073770 0.548743
v 0.212354 0.080355 0.542351
v 0.217441 0.085625 0.538511
v 0.213481 0.092286 0.541031
v 0.153209 -0.009941 0.588915
v 0.145851 -0.007458 0.593270
v 0.219175 0.098713 0.538456
v 0.222922 0.090888 0.535215
v 0.207537 0.065202 0.546155
v 0.208945 0.054801 0.541935
v 0.199585 0.057391 0.554493
v 0.200506 0.046436 0.551080
v 0.177429 0.029773 0.585603
v 0.128376 -0.010463 0.591034
v 0.138036 -0.005184 0.591145
v 0.136972 -0.002723 0.585968
v 0.127471 -0.007406 0.588102
v 0.142830 -0.001930 0.589977
v 0.141023 -0.009848 0.592860
v 0.199356 0.034187 0.542629
v 0.154342 0.016532 0.570278
v 0.207155 0.041996 0.529746
v 0.193192 0.019050 0.534304
v 0.197435 0.025530 0.523575
v 0.214275 0.049060 0.514798
v 0.204907 0.035287 0.512782
v 0.223390 0.064209 0.511008
v 0.218937 0.057310 0.514257
v 0.193323 0.023987 0.509923
v 0.131712 -0.013765 0.575472
v 0.129898 -0.008692 0.577738
v 0.226364 0.069974 0.520198
v 0.158657 0.033123 0.515194
v 0.166602 0.071700 0.534184
v 0.169446 0.066846 0.533787
v 0.161751 0.089992 0.537679
v 0.162882 0.078750 0.534127
v 0.133493 -0.018783 0.576571
v 0.148819 0.031322 0.582308
v 0.150297 0.032361 0.582423
v 0.162358 0.025212 0.499155
v 0.158925 0.018783 0.499365
v 0.169298 0.010456 0.499723
v 0.164060 0.014700 0.497167
v 0.169751 0.021191 0.496967
v 0.175877 0.017115 0.499866
v 0.171810 0.072308 0.524108
v 0.169779 0.075512 0.525162
v 0.177836 0.096516 0.552948
v 0.167811 0.097415 0.547349
v 0.169639 -0.003152 0.564698
v 0.178337 0.002878 0.565360
v 0.172626 -0.000868 0.570715
v 0.167852 -0.000287 0.579516
v 0.155946 0.014170 0.574078
v 0.159774 0.011285 0.575690
v 0.177088 0.066689 0.510531
v 0.173773 0.060980 0.522467
v 0.158745 0.021062 0.521201
v 0.157753 0.014605 0.519550
v 0.156431 0.034793 0.562736
v 0.160633 0.029485 0.589378
v 0.167282 0.023478 0.587534
v 0.153662 0.028960 0.568950
v 0.133464 -0.022387 0.584310
v 0.133756 -0.021421 0.579412
v 0.174012 0.004280 0.575160
v 0.149819 0.054460 0.567591
v 0.161005 0.036741 0.589287
v 0.153466 0.031227 0.587953
v 0.146522 0.079206 0.575768
v 0.225494 0.079665 0.528293
v 0.136405 -0.003386 0.580279
v 0.128688 -0.005687 0.581742
v 0.130554 -0.014118 0.591953
v 0.133340 -0.019178 0.589673
v 0.173243 0.099457 0.538095
v 0.171014 0.063402 0.533782
v 0.183322 0.016006 0.507580
v 0.173320 0.008277 0.505838
v 0.152396 0.025784 0.572544
v 0.155218 0.062947 0.587231
v 0.162245 0.048660 0.591496
v 0.153768 0.044692 0.594606
v 0.153244 0.037117 0.593607
v 0.150531 0.032106 0.588959
v 0.124791 -0.015362 0.590903
v 0.127525 -0.020459 0.588744
v 0.128196 -0.023528 0.583319
v 0.129229 -0.022548 0.578852
v 0.129963 -0.019059 0.576221
v 0.122680 -0.011466 0.589693
v 0.122373 -0.008729 0.586734
v 0.125491 -0.006612 0.581673
v 0.118310 -0.011441 0.587161
v 0.116726 -0.016600 0.587521
v 0.116174 -0.023983 0.575460
v 0.120063 -0.024333 0.580054
v 0.117291 -0.023770 0.580375
v 0.113413 -0.023424 0.577133
v 0.108621 -0.022823 0.575094
v 0.111139 -0.023515 0.572701
v 0.117849 -0.021437 0.584470
v 0.112153 -0.020678 0.580681
v 0.111127 -0.017022 0.582570
v 0.106265 -0.017216 0.579727
v 0.106926 -0.020557 0.578116
v 0.114894 -0.017972 0.585267
v 0.119952 -0.021748 0.586097
v 0.106785 -0.021907 0.572068
v 0.105793 -0.022220 0.574367
v 0.104335 -0.020002 0.576361
v 0.103150 -0.018825 0.573790
v 0.124874 -0.022910 0.576882
v 0.117388 -0.023055 0.573292
v 0.112119 -0.021108 0.570868
v 0.107712 -0.019716 0.570508
v 0.117109 -0.019389 0.571351
v 0.112612 -0.018250 0.570224
v 0.108900 -0.016624 0.570136
v 0.116374 -0.015126 0.571001
v 0.112338 -0.015041 0.570470
v 0.126734 -0.015086 0.574915
v 0.127595 -0.019274 0.575216
v 0.109828 -0.014672 0.569963
v 0.103598 -0.016939 0.572681
v 0.112232 -0.013728 0.583908
v 0.106702 -0.014049 0.579371
v 0.112689 -0.011453 0.583082
v 0.106999 -0.011727 0.578993
v 0.102985 -0.015179 0.577037
v 0.104026 -0.017402 0.577758
v 0.129607 -0.013866 0.575837
v 0.127664 -0.008667 0.578285
v 0.125183 -0.009516 0.577484
v 0.115388 -0.010776 0.572988
v 0.122706 -0.007320 0.580428
v 0.118502 -0.008798 0.584178
v 0.112634 -0.009567 0.580656
v 0.113636 -0.008679 0.577409
v 0.108372 -0.010302 0.577327
v 0.109817 -0.010200 0.575211
v 0.111253 -0.011810 0.571937
v 0.105880 -0.011877 0.574457
v 0.103879 -0.013405 0.576023
v 0.105910 -0.014594 0.571779
v 0.107566 -0.011220 0.573724
v 0.108273 -0.013362 0.571682
v 0.127620 0.009790 0.579793
v 0.125308 0.015493 0.581828
v 0.129320 0.014676 0.583466
v 0.131085 0.009832 0.581777
v 0.127048 0.000687 0.590735
v 0.127838 0.002103 0.584612
v 0.132661 0.001685 0.587564
v 0.132142 0.001860 0.594319
v 0.125352 0.004542 0.596480
v 0.130905 0.006350 0.599329
v 0.138181 0.003412 0.594278
v 0.137833 0.003320 0.587095
v 0.155431 0.012274 0.580130
v 0.157394 0.012780 0.586654
v 0.146322 0.027825 0.578713
v 0.146148 0.028604 0.582542
v 0.128054 0.005851 0.580940
v 0.132086 0.005370 0.583299
v 0.130279 0.021943 0.588587
v 0.130538 0.019713 0.583595
v 0.127587 0.018807 0.585510
v 0.126259 0.019987 0.590771
v 0.151465 0.017252 0.574426
v 0.149122 0.022986 0.576203
v 0.153193 0.014240 0.576330
v 0.131198 0.020934 0.595209
v 0.133550 0.016549 0.599988
v 0.152133 0.024278 0.594242
v 0.147923 0.027876 0.590939
v 0.136284 0.005784 0.582452
v 0.131696 0.014846 0.580638
v 0.133956 0.010143 0.579687
v 0.137301 0.009323 0.598902
v 0.127050 0.013500 0.599970
v 0.109892 0.014161 0.588962
v 0.120292 0.016794 0.594206
v 0.121131 0.019142 0.589596
v 0.110198 0.017335 0.585056
v 0.125766 0.018141 0.596163
v 0.121761 0.011741 0.597014
v 0.114786 0.010353 0.573960
v 0.112808 0.015980 0.576260
v 0.115217 0.005813 0.574589
v 0.156639 0.017805 0.592162
v 0.115133 0.000547 0.583646
v 0.115659 0.002557 0.577356
v 0.123337 0.019238 0.584955
v 0.110948 0.018302 0.580283
v 0.110647 0.009974 0.590663
v 0.114048 0.003587 0.589635
v 0.105676 0.008958 0.587343
v 0.108067 0.003296 0.585889
v 0.109763 0.000338 0.580264
v 0.111506 0.002587 0.575228
v 0.112201 0.005999 0.573239
v 0.104940 0.013002 0.585932
v 0.105599 0.016439 0.582660
v 0.108563 0.017441 0.578725
v 0.099855 0.014140 0.580620
v 0.098734 0.009734 0.581204
v 0.096268 0.003469 0.564249
v 0.100070 0.002297 0.568721
v 0.097999 0.002668 0.570297
v 0.094383 0.003796 0.566333
v 0.102364 0.000847 0.574344
v 0.100094 0.001966 0.574325
v 0.099027 0.004617 0.577984
v 0.095721 0.005942 0.573014
v 0.094960 0.010090 0.575382
v 0.090809 0.010732 0.571511
v 0.091226 0.006516 0.569181
v 0.097275 0.008043 0.578499
v 0.091627 0.005112 0.564399
v 0.091820 0.006134 0.562037
v 0.100766 0.003561 0.580360
v 0.108077 0.002053 0.572977
v 0.101954 0.003543 0.566588
v 0.097545 0.005644 0.562158
v 0.092425 0.008898 0.560882
v 0.102948 0.007242 0.564834
v 0.098165 0.008749 0.561437
v 0.093795 0.011256 0.561045
v 0.103159 0.011977 0.564544
v 0.098109 0.012958 0.561836
v 0.110966 0.010619 0.571697
v 0.110547 0.005843 0.571289
v 0.095454 0.012948 0.561519
v 0.088302 0.008680 0.564199
v 0.089452 0.011358 0.562487
v 0.088923 0.007715 0.565684
v 0.095025 0.012167 0.575882
v 0.090999 0.012921 0.570949
v 0.095540 0.014903 0.575254
v 0.091162 0.015066 0.569798
v 0.088155 0.012294 0.567246
v 0.088225 0.010633 0.567685
v 0.112193 0.010365 0.573585
v 0.110686 0.015341 0.575813
v 0.109678 0.015554 0.574139
v 0.101615 0.016326 0.567141
v 0.106867 0.017748 0.577265
v 0.102081 0.016778 0.579184
v 0.097043 0.017027 0.574054
v 0.099066 0.018047 0.570743
v 0.092001 0.017032 0.569245
v 0.094967 0.017730 0.568055
v 0.097296 0.016255 0.564105
v 0.089599 0.015694 0.565488
v 0.088405 0.013813 0.566344
v 0.091018 0.012958 0.562275
v 0.092376 0.016798 0.565305
v 0.093689 0.014752 0.562572
v 0.125679 0.030094 0.582257
v 0.124539 0.035740 0.581783
v 0.127654 0.036206 0.582794
v 0.128712 0.030695 0.583740
v 0.122985 0.026375 0.594255
v 0.123979 0.024966 0.589587
v 0.128190 0.025619 0.591623
v 0.128489 0.027335 0.596797
v 0.119859 0.030588 0.596522
v 0.127044 0.032312 0.600127
v 0.133923 0.028640 0.597963
v 0.132441 0.026427 0.592438
v 0.146364 0.031140 0.590060
v 0.147119 0.034200 0.595858
v 0.125103 0.026773 0.585352
v 0.128461 0.027311 0.586859
v 0.127195 0.043833 0.586117
v 0.128083 0.040446 0.582691
v 0.125680 0.040868 0.584654
v 0.124187 0.042917 0.588318
v 0.145338 0.035014 0.580031
v 0.144382 0.041077 0.579664
v 0.145293 0.031776 0.584124
v 0.127437 0.044356 0.592826
v 0.129731 0.041384 0.599110
v 0.142642 0.047748 0.594427
v 0.141174 0.049488 0.588696
v 0.131647 0.027375 0.587388
v 0.129990 0.035656 0.581151
v 0.131081 0.030371 0.582770
v 0.132952 0.034653 0.600191
v 0.124117 0.038725 0.598780
v 0.104961 0.037067 0.586652
v 0.119206 0.041344 0.592937
v 0.120857 0.042267 0.587287
v 0.106137 0.039003 0.582782
v 0.122887 0.042607 0.593910
v 0.118940 0.037052 0.596662
v 0.111928 0.028806 0.575399
v 0.111066 0.034246 0.575928
v 0.112451 0.025544 0.578411
v 0.146009 0.040964 0.598143
v 0.141541 0.047880 0.582368
v 0.109463 0.023725 0.585145
v 0.111447 0.023805 0.581214
v 0.122767 0.040349 0.583930
v 0.108466 0.038398 0.578785
v 0.105607 0.033213 0.589544
v 0.107847 0.027451 0.589598
v 0.100905 0.032829 0.586316
v 0.103013 0.027024 0.586154
v 0.104740 0.023147 0.582139
v 0.107169 0.023491 0.578408
v 0.108547 0.025338 0.575788
v 0.100675 0.036684 0.583377
v 0.102175 0.038252 0.580069
v 0.106755 0.037535 0.577754
v 0.097540 0.036831 0.580055
v 0.095304 0.032094 0.581599
v 0.091141 0.023386 0.567818
v 0.095364 0.023328 0.571789
v 0.094527 0.023895 0.572530
v 0.089920 0.023787 0.568976
v 0.098609 0.023265 0.577708
v 0.096853 0.023970 0.577013
v 0.095735 0.026677 0.579612
v 0.091154 0.027002 0.575103
v 0.091369 0.032941 0.575831
v 0.087797 0.032186 0.572135
v 0.087078 0.026737 0.571441
v 0.094427 0.030960 0.579937
v 0.087252 0.024618 0.567337
v 0.087372 0.023375 0.565811
v 0.097244 0.026611 0.581635
v 0.102717 0.022703 0.575109
v 0.097393 0.023107 0.569667
v 0.093261 0.023109 0.565372
v 0.089705 0.024904 0.563394
v 0.099350 0.025560 0.567497
v 0.094991 0.025528 0.564216
v 0.091722 0.027034 0.562462
v 0.100180 0.028618 0.566545
v 0.096019 0.028606 0.563894
v 0.107569 0.028733 0.572942
v 0.105724 0.025033 0.573519
v 0.093066 0.028904 0.562734
v 0.084650 0.027206 0.566729
v 0.086613 0.029567 0.563803
v 0.085579 0.027087 0.568221
v 0.091999 0.034679 0.576127
v 0.087493 0.034363 0.571224
v 0.093430 0.036789 0.574856
v 0.088947 0.036310 0.569956
v 0.084967 0.032043 0.568606
v 0.085331 0.031106 0.569310
v 0.109618 0.029055 0.574692
v 0.109055 0.034037 0.575329
v 0.107291 0.033535 0.573606
v 0.099497 0.033238 0.566726
v 0.105122 0.037186 0.575792
v 0.099264 0.038071 0.576964
v 0.095385 0.037409 0.572292
v 0.097291 0.036482 0.569150
v 0.091101 0.036797 0.568225
v 0.093554 0.035865 0.567092
v 0.095610 0.032678 0.564027
v 0.088976 0.034319 0.565652
v 0.086362 0.033780 0.566952
v 0.089383 0.030809 0.562805
v 0.091371 0.034370 0.564877
v 0.091796 0.031662 0.562813
v 0.142837 0.045344 0.580164
v 0.122571 0.053582 0.577773
v 0.121711 0.057510 0.576655
v 0.123015 0.058486 0.577789
v 0.124960 0.054662 0.578467
v 0.121746 0.052222 0.588997
v 0.122245 0.050404 0.584683
v 0.126272 0.051093 0.586531
v 0.126053 0.052993 0.590671
v 0.120340 0.056705 0.591079
v 0.124265 0.057913 0.592405
v 0.129812 0.054324 0.590811
v 0.130015 0.052260 0.586566
v 0.144869 0.057319 0.584518
v 0.146556 0.061054 0.588304
v 0.141106 0.076024 0.577058
v 0.142001 0.072800 0.572375
v 0.134551 0.069813 0.575827
v 0.135066 0.073085 0.579540
v 0.122605 0.051210 0.580791
v 0.126164 0.051732 0.581594
v 0.122446 0.067499 0.582185
v 0.123174 0.064235 0.578600
v 0.121743 0.062483 0.578234
v 0.119996 0.065919 0.580952
v 0.142019 0.067191 0.571601
v 0.142775 0.062302 0.573551
v 0.139015 0.061064 0.574067
v 0.135082 0.064898 0.574586
v 0.140890 0.057135 0.578073
v 0.122916 0.067828 0.586511
v 0.124876 0.065028 0.591496
v 0.140397 0.073788 0.588235
v 0.137947 0.074714 0.583921
v 0.128227 0.052349 0.582342
v 0.124812 0.059862 0.577541
v 0.125899 0.055630 0.578703
v 0.128210 0.059436 0.593191
v 0.121338 0.063369 0.590351
v 0.110163 0.063040 0.581332
v 0.117565 0.065661 0.584377
v 0.118477 0.065068 0.579591
v 0.110996 0.062968 0.578310
v 0.119745 0.066257 0.585484
v 0.117743 0.062286 0.588901
v 0.115243 0.052056 0.574624
v 0.114449 0.057201 0.574095
v 0.115224 0.049801 0.576990
v 0.145236 0.067342 0.590379
v 0.113086 0.050194 0.584120
v 0.114055 0.048734 0.580061
v 0.120136 0.061405 0.577149
v 0.112704 0.060976 0.575559
v 0.110016 0.060434 0.584912
v 0.111650 0.054929 0.586991
v 0.106155 0.059036 0.582953
v 0.108020 0.053443 0.584696
v 0.109592 0.048766 0.581166
v 0.111557 0.048268 0.578026
v 0.112717 0.049344 0.575266
v 0.106667 0.061841 0.579533
v 0.108055 0.061935 0.576728
v 0.110564 0.060313 0.574314
v 0.103089 0.060560 0.577564
v 0.101215 0.056793 0.579868
v 0.098287 0.047113 0.570922
v 0.101598 0.047408 0.573276
v 0.100903 0.047919 0.574140
v 0.097623 0.046971 0.571825
v 0.104746 0.048221 0.577550
v 0.103191 0.048892 0.577487
v 0.102742 0.051703 0.579678
v 0.098654 0.050671 0.576561
v 0.097087 0.055761 0.576015
v 0.094024 0.054346 0.573609
v 0.095498 0.049932 0.574571
v 0.100253 0.055099 0.579287
v 0.094975 0.046994 0.571138
v 0.094589 0.046563 0.569877
v 0.103893 0.051814 0.581131
v 0.108053 0.047619 0.575100
v 0.102466 0.046972 0.570984
v 0.098017 0.046719 0.568641
v 0.094475 0.047698 0.567897
v 0.104203 0.048287 0.569548
v 0.098906 0.047805 0.566760
v 0.095513 0.048929 0.566126
v 0.105348 0.051023 0.567996
v 0.099929 0.050161 0.566009
v 0.111183 0.052328 0.571462
v 0.109944 0.049267 0.572935
v 0.096774 0.050241 0.565949
v 0.092071 0.049295 0.570944
v 0.092569 0.050362 0.568229
v 0.092590 0.049449 0.572385
v 0.097294 0.057111 0.575630
v 0.093617 0.055514 0.572556
v 0.098239 0.058888 0.574012
v 0.094246 0.056428 0.570664
v 0.091706 0.052924 0.571064
v 0.092520 0.052227 0.572581
v 0.112958 0.052361 0.572803
v 0.112592 0.056570 0.572980
v 0.110518 0.056558 0.571599
v 0.104918 0.054953 0.567890
v 0.108338 0.060141 0.573081
v 0.105423 0.061296 0.575428
v 0.099991 0.059260 0.571856
v 0.102265 0.058252 0.569472
v 0.095382 0.056418 0.568754
v 0.097754 0.055691 0.566950
v 0.099649 0.053358 0.565787
v 0.093635 0.053317 0.567480
v 0.092281 0.053227 0.568821
v 0.093919 0.051189 0.566814
v 0.095324 0.053384 0.566440
v 0.096020 0.052013 0.565999
v 0.141310 0.075925 0.581234
v 0.162773 -0.001477 0.510939
v 0.159898 0.000333 0.515432
v 0.147014 0.008115 0.508874
v 0.149655 0.005272 0.514798
v 0.147728 0.008176 0.502091
v 0.156089 0.004152 0.496164
v 0.151775 0.007407 0.497861
v 0.154501 0.002459 0.517050
v 0.164067 -0.001585 0.504957
v 0.161719 0.000770 0.498405
v 0.159871 -0.009205 0.505467
v 0.156963 -0.006819 0.498380
v 0.151422 -0.003691 0.495388
v 0.146960 0.001563 0.497670
v 0.144093 0.003852 0.501207
v 0.158335 -0.006411 0.512020
v 0.155478 -0.003838 0.515954
v 0.150382 0.000189 0.516853
v 0.152064 -0.011161 0.514602
v 0.145668 -0.017754 0.510328
v 0.128421 -0.018585 0.501500
v 0.133184 -0.013825 0.500266
v 0.134555 -0.016223 0.501143
v 0.130213 -0.020566 0.501676
v 0.138639 -0.012586 0.499504
v 0.138507 -0.014463 0.501047
v 0.142374 -0.016254 0.504183
v 0.138136 -0.020061 0.504817
v 0.143201 -0.018076 0.508958
v 0.140122 -0.020403 0.510701
v 0.134113 -0.023924 0.505582
v 0.128973 -0.024284 0.502763
v 0.130458 -0.026961 0.506337
v 0.126162 -0.023005 0.503713
v 0.144513 -0.017203 0.502666
v 0.139618 -0.005624 0.498273
v 0.132324 -0.010155 0.500600
v 0.126858 -0.015479 0.503061
v 0.124766 -0.020823 0.505751
v 0.131321 -0.006933 0.503658
v 0.127107 -0.012479 0.506386
v 0.125721 -0.017353 0.509332
v 0.131814 -0.005507 0.508416
v 0.128411 -0.011459 0.510106
v 0.141225 0.002738 0.507366
v 0.139789 0.000378 0.501316
v 0.127251 -0.015514 0.510972
v 0.127991 -0.027340 0.507869
v 0.126568 -0.024800 0.510245
v 0.141551 -0.019573 0.513783
v 0.136615 -0.024475 0.511378
v 0.136517 -0.023321 0.514281
v 0.142397 -0.016844 0.516720
v 0.135955 -0.021558 0.516545
v 0.132106 -0.026671 0.512540
v 0.133438 -0.026799 0.509956
v 0.143917 0.005282 0.507356
v 0.146713 0.003891 0.513253
v 0.144335 0.001592 0.513259
v 0.135128 -0.006219 0.514278
v 0.147017 -0.002237 0.517307
v 0.150205 -0.007424 0.517311
v 0.141139 -0.013733 0.518543
v 0.138638 -0.009613 0.518000
v 0.134478 -0.018302 0.517437
v 0.133196 -0.015562 0.516756
v 0.130251 -0.012727 0.513977
v 0.130319 -0.020901 0.515366
v 0.131136 -0.024407 0.514735
v 0.127030 -0.020593 0.512438
v 0.130555 -0.018093 0.515291
v 0.128361 -0.017212 0.513253
v 0.145381 0.075029 0.570296
v 0.145543 0.068579 0.568471
v 0.147842 0.072731 0.565155
v 0.150570 0.077129 0.558204
v 0.154710 0.086085 0.554661
v 0.152677 0.070799 0.556251
v 0.149551 0.066563 0.563806
v 0.146496 0.060648 0.569512
v 0.158934 0.068654 0.548636
f 780 781 779
f 779 781 782
f 783 784 786
f 786 784 785
f 787 782 788
f 788 782 781
f 790 791 789
f 789 791 787
f 792 790 794
f 794 790 793
f 796 797 795
f 795 797 798
f 800 801 799
f 799 801 802
f 804 805 803
f 803 805 806
f 808 809 807
f 807 809 810
f 811 812 814
f 814 812 813
f 815 816 818
f 818 816 817
f 819 820 784
f 784 820 821
f 784 821 785
f 785 821 822
f 823 812 824
f 824 812 811
f 826 827 825
f 825 827 828
f 830 831 829
f 829 831 832
f 834 830 833
f 833 830 829
f 836 837 835
f 835 837 838
f 839 840 782
f 782 840 779
f 842 843 841
f 841 843 844
f 846 847 845
f 845 847 848
f 850 851 849
f 849 851 852
f 854 855 853
f 853 855 856
f 831 857 832
f 832 857 858
f 860 861 859
f 859 861 862
f 863 864 830
f 830 864 831
f 835 838 865
f 865 838 866
f 867 868 821
f 821 868 822
f 821 820 867
f 867 820 869
f 818 817 870
f 870 817 871
f 872 848 842
f 842 848 847
f 791 839 787
f 787 839 782
f 803 806 847
f 847 806 873
f 874 803 846
f 846 803 847
f 876 877 875
f 875 877 878
f 879 880 882
f 882 880 881
f 884 808 883
f 883 808 807
f 829 832 885
f 885 832 886
f 832 858 886
f 886 858 887
f 889 890 888
f 888 890 891
f 893 783 892
f 892 783 894
f 893 819 783
f 783 819 784
f 814 813 889
f 889 813 895
f 813 896 895
f 895 896 897
f 812 898 813
f 813 898 896
f 812 823 898
f 898 823 899
f 903 904 902
f 902 904 905
f 906 907 792
f 792 907 908
f 811 909 824
f 824 909 910
f 911 872 841
f 841 872 842
f 912 913 915
f 915 913 914
f 917 918 916
f 916 918 919
f 855 920 856
f 856 920 921
f 922 923 798
f 798 923 924
f 926 927 925
f 925 927 850
f 929 930 928
f 928 930 931
f 860 879 861
f 861 879 882
f 879 860 933
f 933 860 932
f 934 935 836
f 836 935 837
f 936 846 925
f 925 846 845
f 937 924 793
f 793 924 794
f 846 936 874
f 874 936 938
f 907 844 908
f 908 844 843
f 940 941 939
f 939 941 942
f 944 945 943
f 943 945 946
f 948 949 947
f 947 949 950
f 952 949 951
f 951 949 948
f 954 955 953
f 953 955 956
f 958 959 957
f 957 959 802
f 960 961 799
f 799 961 962
f 859 963 860
f 860 963 932
f 964 965 966
f 966 965 922
f 936 849 938
f 938 849 967
f 968 913 935
f 935 913 837
f 947 950 917
f 917 950 918
f 925 850 936
f 936 850 849
f 970 971 969
f 969 971 972
f 945 944 827
f 827 944 973
f 974 968 828
f 828 968 935
f 975 976 978
f 978 976 977
f 799 802 960
f 960 802 959
f 924 937 798
f 798 937 795
f 960 959 859
f 859 959 963
f 979 963 958
f 958 963 959
f 980 981 861
f 861 981 862
f 983 984 982
f 982 984 863
f 985 800 962
f 962 800 799
f 957 802 986
f 986 802 801
f 986 987 957
f 957 987 983
f 987 988 983
f 983 988 984
f 990 984 989
f 989 984 988
f 957 983 958
f 958 983 982
f 991 954 866
f 866 954 992
f 864 863 990
f 990 863 984
f 971 995 996
f 995 997 996
f 996 997 998
f 997 796 998
f 998 796 795
f 797 999 798
f 798 999 922
f 1000 1001 1003
f 1003 1001 1002
f 953 1004 954
f 954 1004 992
f 1005 865 992
f 992 865 866
f 998 795 1006
f 1006 795 937
f 912 991 838
f 838 991 866
f 916 1007 929
f 929 1007 930
f 971 970 988
f 988 970 989
f 1008 972 996
f 996 972 971
f 1009 1010 1006
f 1006 1010 1008
f 1011 1012 869
f 869 1012 867
f 1013 1014 871
f 871 1014 870
f 1008 1010 1012
f 1012 1010 1015
f 825 1016 826
f 826 1016 1017
f 1018 969 1013
f 1013 969 1014
f 783 786 894
f 894 786 1019
f 1020 1021 967
f 967 1021 938
f 1022 1023 876
f 876 1023 877
f 934 1024 825
f 825 1024 1016
f 854 1025 855
f 855 1025 1026
f 1028 903 1027
f 1027 903 902
f 1030 1031 1029
f 1029 1031 1032
f 889 888 814
f 814 888 1033
f 1034 811 1033
f 1033 811 814
f 1035 1036 932
f 932 1036 933
f 841 947 911
f 911 947 917
f 844 948 841
f 841 948 947
f 951 948 907
f 907 948 844
f 907 906 951
f 951 906 1037
f 906 1038 1037
f 1037 1038 1039
f 991 912 1040
f 1040 912 915
f 1041 1042 964
f 964 1042 965
f 890 1043 891
f 891 1043 1044
f 789 1045 1046
f 1012 1011 1008
f 1008 1011 972
f 931 1047 848
f 848 1047 845
f 953 956 943
f 943 956 919
f 928 931 872
f 872 931 848
f 1049 999 1048
f 1048 999 985
f 1047 931 1050
f 1050 931 930
f 899 823 887
f 887 823 886
f 825 828 934
f 934 828 935
f 835 1051 836
f 836 1051 1052
f 923 1053 1038
f 1038 1053 1039
f 1054 927 921
f 921 927 856
f 926 1047 853
f 853 1047 1050
f 985 1055 1048
f 1048 1055 1056
f 973 974 827
f 827 974 828
f 837 913 838
f 838 913 912
f 861 882 980
f 980 882 1057
f 927 926 856
f 856 926 853
f 1025 1056 1026
f 1026 1056 1055
f 961 960 862
f 862 960 859
f 826 1017 1059
f 1059 1017 1060
f 1005 1001 1061
f 1061 1001 1000
f 1001 1004 1002
f 1002 1004 946
f 1059 1060 1002
f 1002 1060 1003
f 943 946 953
f 953 946 1004
f 1042 1041 916
f 916 1041 1007
f 792 794 906
f 906 794 1038
f 998 1006 996
f 996 1006 1008
f 865 1005 1062
f 1062 1005 1061
f 1038 794 923
f 923 794 924
f 1022 876 1036
f 1036 876 933
f 836 1052 934
f 934 1052 1024
f 885 1063 829
f 829 1063 833
f 1021 1064 938
f 938 1064 874
f 1012 1015 867
f 867 1015 868
f 824 910 885
f 885 910 1063
f 1031 1030 1027
f 1027 1030 1028
f 1064 804 874
f 874 804 803
f 884 883 1065
f 1065 883 1066
f 1050 930 1067
f 1067 930 1007
f 916 929 917
f 917 929 911
f 961 1068 939
f 939 1068 940
f 1069 1070 1055
f 1055 1070 1071
f 929 928 911
f 911 928 872
f 1040 1053 955
f 955 1053 965
f 922 965 923
f 923 965 1053
f 1051 835 1062
f 1062 835 865
f 952 914 968
f 968 914 913
f 889 895 890
f 890 895 816
f 895 897 816
f 816 897 901
f 890 816 1043
f 1043 816 815
f 1065 1066 1032
f 1032 1066 1029
f 1006 937 1009
f 1009 937 793
f 1001 1005 1004
f 1004 1005 992
f 925 845 926
f 926 845 1047
f 1002 946 1059
f 1059 946 945
f 977 941 978
f 978 941 940
f 823 824 886
f 886 824 885
f 1059 945 826
f 826 945 827
f 939 942 1069
f 1069 942 1070
f 816 901 817
f 1071 1072 1055
f 1055 1072 1026
f 1062 1061 1074
f 1074 1061 1073
f 1062 1074 1051
f 1051 1074 1075
f 1052 1051 1076
f 1076 1051 1075
f 1024 1052 1077
f 1077 1052 1076
f 1061 1000 1073
f 1073 1000 1078
f 1000 1003 1078
f 1078 1003 1079
f 1079 1003 1080
f 1080 1003 1060
f 1081 1082 1078
f 1078 1082 1073
f 1084 1085 1083
f 1083 1085 1086
f 1087 1088 1086
f 1086 1088 1083
f 1086 1085 1090
f 1090 1085 1089
f 1091 1092 1090
f 1090 1092 1093
f 1089 1094 1090
f 1090 1094 1091
f 1095 1082 1089
f 1089 1082 1094
f 1093 1087 1090
f 1090 1087 1086
f 1096 1097 1099
f 1099 1097 1098
f 1097 1096 1087
f 1087 1096 1088
f 1089 1085 1095
f 1095 1085 1084
f 1084 1075 1095
f 1095 1075 1074
f 1084 1100 1075
f 1075 1100 1076
f 1083 1101 1084
f 1084 1101 1100
f 1101 1083 1102
f 1102 1083 1088
f 1082 1095 1073
f 1073 1095 1074
f 1096 1103 1088
f 1088 1103 1102
f 1101 1102 1104
f 1104 1102 1105
f 1102 1103 1105
f 1105 1103 1106
f 1104 1105 1107
f 1107 1105 1108
f 1107 1109 1104
f 1104 1109 1110
f 1111 1108 1106
f 1106 1108 1105
f 1101 1104 1100
f 1100 1104 1110
f 1100 1110 1076
f 1076 1110 1077
f 1103 1096 1112
f 1112 1096 1099
f 1091 1094 1113
f 1113 1094 1082
f 1113 1114 1091
f 1091 1114 1092
f 1082 1081 1113
f 1113 1081 1115
f 1114 1113 1116
f 1116 1113 1115
f 1114 1117 1092
f 1092 1117 1118
f 1024 1077 1016
f 1016 1077 1119
f 1017 1120 1060
f 1060 1120 1080
f 1120 1017 1119
f 1119 1017 1016
f 1119 1109 1120
f 1120 1109 1121
f 1109 1107 1121
f 1121 1107 1122
f 1120 1121 1080
f 1080 1121 1123
f 1119 1077 1109
f 1109 1077 1110
f 1124 1079 1123
f 1123 1079 1080
f 1124 1081 1079
f 1079 1081 1078
f 1125 1115 1124
f 1124 1115 1081
f 1125 1124 1126
f 1126 1124 1123
f 1127 1125 1128
f 1128 1125 1126
f 1121 1122 1123
f 1123 1122 1126
f 1122 1129 1126
f 1126 1129 1128
f 1115 1125 1116
f 1116 1125 1127
f 1131 1116 1130
f 1130 1116 1127
f 1130 1133 1132
f 1132 1133 1134
f 1130 1127 1133
f 1133 1127 1128
f 1130 1132 1131
f 1131 1132 1112
f 1131 1112 1117
f 1117 1112 1099
f 1117 1114 1131
f 1131 1114 1116
f 1107 1108 1122
f 1122 1108 1129
f 1134 1129 1111
f 1111 1129 1108
f 1134 1133 1129
f 1129 1133 1128
f 1132 1134 1106
f 1106 1134 1111
f 1106 1103 1132
f 1132 1103 1112
f 1087 1093 1097
f 1097 1093 1098
f 1098 1118 1099
f 1099 1118 1117
f 1098 1093 1118
f 1118 1093 1092
f 915 914 1039
f 1039 914 1037
f 918 944 919
f 919 944 943
f 950 949 973
f 973 949 974
f 949 952 974
f 974 952 968
f 956 955 1042
f 1042 955 965
f 950 973 918
f 918 973 944
f 915 1039 1040
f 1040 1039 1053
f 956 1042 919
f 919 1042 916
f 1040 955 991
f 991 955 954
f 914 952 1037
f 1037 952 951
f 1136 1137 1135
f 1135 1137 1138
f 1140 1141 1139
f 1139 1141 1142
f 1139 1142 1143
f 1143 1142 1144
f 1145 1146 1148
f 1148 1146 1147
f 854 1149 1025
f 1025 1149 1150
f 1151 1152 1140
f 1140 1152 1141
f 1154 1155 1153
f 1153 1155 1156
f 1067 1007 1158
f 1158 1007 1157
f 1159 1157 1041
f 1041 1157 1007
f 1161 1162 1160
f 1160 1162 1163
f 1164 1146 1152
f 1152 1146 1141
f 854 1067 1149
f 1149 1067 1158
f 1155 1154 1137
f 1137 1154 1165
f 1166 1164 1138
f 1138 1164 1152
f 1167 1161 1144
f 1144 1161 1168
f 1170 1171 1169
f 1169 1171 1172
f 1161 1160 1168
f 1168 1160 1173
f 1174 1143 1168
f 1168 1143 1144
f 1167 1144 1145
f 1145 1144 1142
f 1135 1175 1136
f 1136 1175 1176
f 1151 1177 1135
f 1135 1177 1175
f 1167 1145 1178
f 1178 1145 1148
f 1160 1163 1153
f 1153 1163 1150
f 1135 1138 1151
f 1151 1138 1152
f 1139 1179 1140
f 1140 1179 1180
f 1165 1166 1137
f 1137 1166 1138
f 1141 1146 1142
f 1142 1146 1145
f 1136 1176 1181
f 1181 1176 1182
f 1174 1170 1183
f 1183 1170 1169
f 1170 1173 1171
f 1171 1173 1156
f 1171 1181 1172
f 1172 1181 1182
f 1153 1156 1160
f 1160 1156 1173
f 1143 1174 1184
f 1184 1174 1183
f 1140 1180 1151
f 1151 1180 1177
f 1049 1048 1178
f 1178 1048 1162
f 1179 1139 1184
f 1184 1139 1143
f 1159 1147 1164
f 1164 1147 1146
f 1170 1174 1173
f 1173 1174 1168
f 1171 1156 1181
f 1181 1156 1155
f 1181 1155 1136
f 1136 1155 1137
f 1184 1183 1186
f 1186 1183 1185
f 1184 1186 1179
f 1179 1186 1187
f 1179 1187 1180
f 1180 1187 1188
f 1180 1188 1177
f 1177 1188 1189
f 1183 1169 1185
f 1185 1169 1190
f 1169 1172 1190
f 1190 1172 1191
f 1172 1182 1191
f 1191 1182 1192
f 1193 1194 1190
f 1190 1194 1185
f 1196 1197 1195
f 1195 1197 1198
f 1199 1200 1196
f 1196 1200 1197
f 1197 1200 1202
f 1202 1200 1201
f 1203 1204 1202
f 1202 1204 1205
f 1201 1206 1202
f 1202 1206 1203
f 1205 1198 1202
f 1202 1198 1197
f 1198 1207 1195
f 1195 1207 1208
f 1201 1200 1209
f 1209 1200 1199
f 1199 1187 1209
f 1209 1187 1186
f 1199 1210 1187
f 1187 1210 1188
f 1196 1211 1199
f 1199 1211 1210
f 1212 1211 1195
f 1195 1211 1196
f 1209 1194 1201
f 1201 1194 1206
f 1194 1209 1185
f 1185 1209 1186
f 1213 1212 1208
f 1208 1212 1195
f 1211 1212 1214
f 1214 1212 1215
f 1212 1213 1215
f 1215 1213 1216
f 1214 1215 1217
f 1217 1215 1218
f 1217 1219 1214
f 1214 1219 1220
f 1216 1221 1215
f 1215 1221 1218
f 1214 1220 1211
f 1211 1220 1210
f 1210 1220 1188
f 1188 1220 1189
f 1213 1208 1223
f 1223 1208 1222
f 1208 1207 1222
f 1222 1207 1224
f 1203 1206 1225
f 1225 1206 1194
f 1204 1203 1226
f 1226 1203 1225
f 1194 1193 1225
f 1225 1193 1227
f 1225 1227 1226
f 1226 1227 1228
f 1229 1230 1226
f 1226 1230 1204
f 1224 1230 1222
f 1222 1230 1229
f 1177 1189 1175
f 1175 1189 1231
f 1176 1232 1182
f 1182 1232 1192
f 1232 1176 1231
f 1231 1176 1175
f 1231 1219 1232
f 1232 1219 1233
f 1219 1217 1233
f 1233 1217 1234
f 1232 1233 1192
f 1192 1233 1235
f 1219 1231 1220
f 1220 1231 1189
f 1236 1191 1235
f 1235 1191 1192
f 1236 1193 1191
f 1191 1193 1190
f 1236 1237 1193
f 1193 1237 1227
f 1237 1236 1238
f 1238 1236 1235
f 1239 1237 1240
f 1240 1237 1238
f 1233 1234 1235
f 1235 1234 1238
f 1234 1241 1238
f 1238 1241 1240
f 1237 1239 1227
f 1227 1239 1228
f 1243 1228 1242
f 1242 1228 1239
f 1242 1245 1244
f 1244 1245 1246
f 1242 1239 1245
f 1245 1239 1240
f 1242 1244 1243
f 1243 1244 1223
f 1243 1223 1229
f 1229 1223 1222
f 1229 1226 1243
f 1243 1226 1228
f 1217 1218 1234
f 1234 1218 1241
f 1246 1241 1221
f 1221 1241 1218
f 1246 1245 1241
f 1241 1245 1240
f 1244 1246 1216
f 1216 1246 1221
f 1216 1213 1244
f 1244 1213 1223
f 1198 1205 1207
f 1207 1205 1224
f 1224 1205 1230
f 1230 1205 1204
f 1148 1147 966
f 966 1147 964
f 1149 1154 1150
f 1150 1154 1153
f 1158 1157 1165
f 1165 1157 1166
f 1157 1159 1166
f 1166 1159 1164
f 1163 1162 1056
f 1056 1162 1048
f 1158 1165 1149
f 1149 1165 1154
f 1178 1148 1049
f 1049 1148 966
f 1163 1056 1150
f 1150 1056 1025
f 1178 1162 1167
f 1167 1162 1161
f 1147 1159 964
f 964 1159 1041
f 999 1049 922
f 922 1049 966
f 999 797 985
f 985 797 800
f 797 796 800
f 800 796 801
f 796 997 801
f 801 997 986
f 1247 1248 1250
f 1250 1248 1249
f 1252 1253 1251
f 1251 1253 1254
f 1251 1254 1255
f 1255 1254 1256
f 1258 1259 1257
f 1257 1259 1260
f 1261 1262 1252
f 1252 1262 1253
f 1264 1265 1263
f 1263 1265 1266
f 1267 1268 855
f 855 1268 920
f 1269 1267 1026
f 1026 1267 855
f 1271 1272 1270
f 1270 1272 1273
f 1274 1258 1262
f 1262 1258 1253
f 1264 1275 1265
f 1265 1275 1249
f 1276 1274 1250
f 1250 1274 1262
f 1277 1271 1256
f 1256 1271 1278
f 1279 1280 1282
f 1282 1280 1281
f 1271 1270 1278
f 1278 1270 1283
f 1284 1255 1278
f 1278 1255 1256
f 1277 1256 1257
f 1257 1256 1254
f 1247 1285 1248
f 1248 1285 1286
f 1261 1287 1247
f 1247 1287 1285
f 1257 1260 1277
f 1277 1260 1288
f 1270 1273 1263
f 1263 1273 1289
f 1261 1247 1262
f 1262 1247 1250
f 1251 1290 1252
f 1252 1290 1291
f 1275 1276 1249
f 1249 1276 1250
f 1253 1258 1254
f 1254 1258 1257
f 1248 1286 1292
f 1292 1286 1293
f 1284 1280 1294
f 1294 1280 1279
f 1281 1280 1266
f 1266 1280 1283
f 1292 1293 1281
f 1281 1293 1282
f 1263 1266 1270
f 1270 1266 1283
f 1255 1284 1295
f 1295 1284 1294
f 1252 1291 1261
f 1261 1291 1287
f 1288 1070 1272
f 1272 1070 942
f 1290 1251 1295
f 1295 1251 1255
f 1269 1259 1274
f 1274 1259 1258
f 1280 1284 1283
f 1283 1284 1278
f 1281 1266 1292
f 1292 1266 1265
f 1292 1265 1248
f 1248 1265 1249
f 1295 1294 1297
f 1297 1294 1296
f 1295 1297 1290
f 1290 1297 1298
f 1290 1298 1291
f 1291 1298 1299
f 1291 1299 1287
f 1287 1299 1300
f 1294 1279 1296
f 1296 1279 1301
f 1279 1282 1301
f 1301 1282 1302
f 1302 1282 1303
f 1303 1282 1293
f 1304 1305 1301
f 1301 1305 1296
f 1307 1308 1306
f 1306 1308 1309
f 1310 1311 1307
f 1307 1311 1308
f 1308 1311 1313
f 1313 1311 1312
f 1314 1315 1313
f 1313 1315 1316
f 1312 1317 1313
f 1313 1317 1314
f 1316 1309 1313
f 1313 1309 1308
f 1318 1319 1309
f 1309 1319 1306
f 1311 1310 1312
f 1312 1310 1320
f 1310 1298 1320
f 1320 1298 1297
f 1310 1321 1298
f 1298 1321 1299
f 1307 1322 1310
f 1310 1322 1321
f 1322 1307 1323
f 1323 1307 1306
f 1312 1320 1317
f 1317 1320 1305
f 1305 1320 1296
f 1296 1320 1297
f 1319 1324 1306
f 1306 1324 1323
f 1325 1322 1326
f 1326 1322 1323
f 1324 1327 1323
f 1323 1327 1326
f 1328 1325 1329
f 1329 1325 1326
f 1325 1328 1331
f 1331 1328 1330
f 1327 1332 1326
f 1326 1332 1329
f 1322 1325 1321
f 1321 1325 1331
f 1321 1331 1299
f 1299 1331 1300
f 1324 1319 1334
f 1334 1319 1333
f 1319 1318 1333
f 1333 1318 1335
f 1314 1317 1336
f 1336 1317 1305
f 1315 1314 1337
f 1337 1314 1336
f 1305 1304 1336
f 1336 1304 1338
f 1337 1336 1339
f 1339 1336 1338
f 1337 1340 1315
f 1315 1340 1341
f 1335 1341 1333
f 1333 1341 1340
f 1287 1300 1285
f 1285 1300 1342
f 1286 1343 1293
f 1293 1343 1303
f 1343 1286 1342
f 1342 1286 1285
f 1342 1330 1343
f 1343 1330 1344
f 1330 1328 1344
f 1344 1328 1345
f 1343 1344 1303
f 1303 1344 1346
f 1342 1300 1330
f 1330 1300 1331
f 1347 1302 1346
f 1346 1302 1303
f 1347 1304 1302
f 1302 1304 1301
f 1348 1338 1347
f 1347 1338 1304
f 1348 1347 1349
f 1349 1347 1346
f 1350 1348 1351
f 1351 1348 1349
f 1344 1345 1346
f 1346 1345 1349
f 1345 1352 1349
f 1349 1352 1351
f 1348 1350 1338
f 1338 1350 1339
f 1354 1339 1353
f 1353 1339 1350
f 1353 1356 1355
f 1355 1356 1357
f 1353 1350 1356
f 1356 1350 1351
f 1353 1355 1354
f 1354 1355 1334
f 1354 1334 1340
f 1340 1334 1333
f 1340 1337 1354
f 1354 1337 1339
f 1328 1329 1345
f 1345 1329 1352
f 1357 1352 1332
f 1332 1352 1329
f 1357 1356 1352
f 1352 1356 1351
f 1357 1332 1355
f 1355 1332 1327
f 1327 1324 1355
f 1355 1324 1334
f 1309 1316 1318
f 1318 1316 1335
f 1335 1316 1341
f 1341 1316 1315
f 1259 1072 1260
f 1260 1072 1071
f 1358 1264 1289
f 1289 1264 1263
f 1268 1267 1275
f 1275 1267 1276
f 1267 1269 1276
f 1276 1269 1274
f 941 1273 942
f 942 1273 1272
f 1358 1268 1264
f 1264 1268 1275
f 1260 1071 1288
f 1288 1071 1070
f 1273 941 1289
f 1289 941 977
f 1272 1271 1288
f 1288 1271 1277
f 1259 1269 1072
f 1072 1269 1026
f 1360 1361 1359
f 1359 1361 1362
f 1364 1365 1363
f 1363 1365 1366
f 1363 1366 1367
f 1367 1366 1368
f 1370 1371 1369
f 1369 1371 1372
f 1373 1374 1376
f 1376 1374 1375
f 1377 1378 1364
f 1364 1378 1365
f 1379 1380 1382
f 1382 1380 1381
f 1383 1384 1386
f 1386 1384 1385
f 1387 1385 978
f 978 1385 1384
f 1388 1389 1391
f 1391 1389 1390
f 1378 1392 1365
f 1365 1392 1370
f 1374 1383 1375
f 1375 1383 1386
f 1380 1393 1381
f 1381 1393 1361
f 1394 1392 1362
f 1362 1392 1378
f 1389 1396 1395
f 1395 1396 1368
f 1398 1399 1397
f 1397 1399 1400
f 1388 1401 1389
f 1389 1401 1396
f 1402 1367 1396
f 1396 1367 1368
f 1395 1368 1369
f 1369 1368 1366
f 1359 1403 1360
f 1360 1403 1404
f 1377 1405 1359
f 1359 1405 1403
f 1369 1372 1395
f 1395 1372 1406
f 1379 1388 1376
f 1376 1388 1391
f 1359 1362 1377
f 1377 1362 1378
f 1363 1407 1364
f 1364 1407 1408
f 1393 1394 1361
f 1361 1394 1362
f 1365 1370 1366
f 1366 1370 1369
f 1360 1404 1409
f 1409 1404 1410
f 1402 1398 1411
f 1411 1398 1397
f 1399 1398 1382
f 1382 1398 1401
f 1409 1410 1399
f 1399 1410 1400
f 1388 1379 1401
f 1401 1379 1382
f 1367 1402 1412
f 1412 1402 1411
f 1364 1408 1377
f 1377 1408 1405
f 981 980 1406
f 1406 980 1390
f 1407 1363 1412
f 1412 1363 1367
f 1387 1371 1392
f 1392 1371 1370
f 1398 1402 1401
f 1401 1402 1396
f 1409 1399 1381
f 1381 1399 1382
f 1360 1409 1361
f 1361 1409 1381
f 1412 1411 1414
f 1414 1411 1413
f 1412 1414 1407
f 1407 1414 1415
f 1407 1415 1408
f 1408 1415 1416
f 1408 1416 1405
f 1405 1416 1417
f 1411 1397 1413
f 1413 1397 1418
f 1397 1400 1418
f 1418 1400 1419
f 1419 1400 1420
f 1420 1400 1410
f 1422 1413 1421
f 1421 1413 1418
f 1423 1424 1426
f 1426 1424 1425
f 1427 1428 1424
f 1424 1428 1425
f 1425 1428 1430
f 1430 1428 1429
f 1430 1431 1433
f 1433 1431 1432
f 1429 1434 1430
f 1430 1434 1431
f 1433 1426 1430
f 1430 1426 1425
f 1426 1435 1423
f 1423 1435 1436
f 1428 1427 1429
f 1429 1427 1437
f 1427 1415 1437
f 1437 1415 1414
f 1427 1438 1415
f 1415 1438 1416
f 1439 1438 1424
f 1424 1438 1427
f 1440 1439 1423
f 1423 1439 1424
f 1429 1437 1434
f 1434 1437 1422
f 1422 1437 1413
f 1413 1437 1414
f 1441 1440 1436
f 1436 1440 1423
f 1442 1439 1443
f 1443 1439 1440
f 1441 1444 1440
f 1440 1444 1443
f 1445 1442 1446
f 1446 1442 1443
f 1442 1445 1448
f 1448 1445 1447
f 1444 1449 1443
f 1443 1449 1446
f 1439 1442 1438
f 1438 1442 1448
f 1438 1448 1416
f 1416 1448 1417
f 1436 1450 1441
f 1441 1450 1451
f 1436 1435 1450
f 1450 1435 1452
f 1431 1434 1453
f 1453 1434 1422
f 1431 1453 1432
f 1432 1453 1454
f 1453 1422 1455
f 1455 1422 1421
f 1454 1453 1456
f 1456 1453 1455
f 1457 1458 1454
f 1454 1458 1432
f 1452 1458 1450
f 1450 1458 1457
f 1405 1417 1403
f 1403 1417 1459
f 1404 1460 1410
f 1410 1460 1420
f 1459 1460 1403
f 1403 1460 1404
f 1447 1461 1459
f 1459 1461 1460
f 1445 1462 1447
f 1447 1462 1461
f 1460 1461 1420
f 1420 1461 1463
f 1459 1417 1447
f 1447 1417 1448
f 1464 1419 1463
f 1463 1419 1420
f 1419 1464 1418
f 1418 1464 1421
f 1464 1465 1421
f 1421 1465 1455
f 1465 1464 1466
f 1466 1464 1463
f 1467 1465 1468
f 1468 1465 1466
f 1461 1462 1463
f 1463 1462 1466
f 1462 1469 1466
f 1466 1469 1468
f 1465 1467 1455
f 1455 1467 1456
f 1471 1456 1470
f 1470 1456 1467
f 1470 1473 1472
f 1472 1473 1474
f 1470 1467 1473
f 1473 1467 1468
f 1470 1472 1471
f 1471 1472 1451
f 1471 1451 1457
f 1457 1451 1450
f 1457 1454 1471
f 1471 1454 1456
f 1462 1445 1469
f 1469 1445 1446
f 1474 1469 1449
f 1449 1469 1446
f 1474 1473 1469
f 1469 1473 1468
f 1472 1474 1444
f 1444 1474 1449
f 1444 1441 1472
f 1472 1441 1451
f 1426 1433 1435
f 1435 1433 1452
f 1452 1433 1458
f 1458 1433 1432
f 1371 940 1372
f 1372 940 1068
f 1376 1375 1379
f 1379 1375 1380
f 1393 1386 1394
f 1394 1386 1385
f 1385 1387 1394
f 1394 1387 1392
f 1475 1373 1391
f 1391 1373 1376
f 1375 1386 1380
f 1380 1386 1393
f 1372 1068 1406
f 1406 1068 981
f 1406 1390 1395
f 1395 1390 1389
f 1371 1387 940
f 940 1387 978
f 883 807 1476
f 1476 807 1477
f 1046 904 1479
f 1479 904 1478
f 904 903 1478
f 1478 903 1480
f 1030 1481 1028
f 1028 1481 1482
f 810 1046 1483
f 1483 1046 1479
f 1066 883 1484
f 1484 883 1476
f 807 810 1477
f 1477 810 1483
f 1485 1029 1484
f 1484 1029 1066
f 1028 1482 903
f 903 1482 1480
f 1481 1030 1485
f 1485 1030 1029
f 1484 1486 1485
f 1485 1486 1487
f 1485 1487 1481
f 1481 1487 1488
f 1481 1488 1482
f 1482 1488 1489
f 1482 1489 1480
f 1480 1489 1490
f 1484 1476 1486
f 1486 1476 1491
f 1476 1477 1491
f 1491 1477 1492
f 1477 1483 1492
f 1492 1483 1493
f 1495 1486 1494
f 1494 1486 1491
f 1497 1498 1496
f 1496 1498 1499
f 1500 1501 1497
f 1497 1501 1498
f 1502 1503 1501
f 1501 1503 1498
f 1502 1504 1503
f 1503 1504 1505
f 1506 1499 1503
f 1503 1499 1498
f 1499 1506 1507
f 1507 1506 1508
f 1507 1509 1499
f 1499 1509 1496
f 1502 1501 1510
f 1510 1501 1500
f 1500 1488 1510
f 1510 1488 1487
f 1500 1511 1488
f 1488 1511 1489
f 1497 1512 1500
f 1500 1512 1511
f 1512 1497 1513
f 1513 1497 1496
f 1502 1510 1504
f 1504 1510 1495
f 1495 1510 1486
f 1486 1510 1487
f 1509 1514 1496
f 1496 1514 1513
f 1515 1512 1516
f 1516 1512 1513
f 1514 1517 1513
f 1513 1517 1516
f 1518 1515 1519
f 1519 1515 1516
f 1515 1518 1521
f 1521 1518 1520
f 1517 1522 1516
f 1516 1522 1519
f 1512 1515 1511
f 1511 1515 1521
f 1511 1521 1489
f 1489 1521 1490
f 1514 1509 1524
f 1524 1509 1523
f 1509 1507 1523
f 1523 1507 1508
f 1505 1504 1525
f 1525 1504 1495
f 1526 1505 1527
f 1527 1505 1525
f 1525 1495 1528
f 1528 1495 1494
f 1527 1525 1529
f 1529 1525 1528
f 1527 1530 1526
f 1526 1530 1531
f 1508 1531 1523
f 1523 1531 1530
f 1506 1503 1526
f 1526 1503 1505
f 1508 1506 1531
f 1531 1506 1526
f 1478 1480 1532
f 1532 1480 1490
f 1483 1479 1493
f 1493 1479 1533
f 1532 1533 1478
f 1478 1533 1479
f 1520 1534 1532
f 1532 1534 1533
f 1518 1535 1520
f 1520 1535 1534
f 1533 1534 1493
f 1493 1534 1536
f 1532 1490 1520
f 1520 1490 1521
f 1537 1492 1536
f 1536 1492 1493
f 1492 1537 1491
f 1491 1537 1494
f 1537 1538 1494
f 1494 1538 1528
f 1538 1537 1539
f 1539 1537 1536
f 1540 1538 1541
f 1541 1538 1539
f 1534 1535 1536
f 1536 1535 1539
f 1535 1542 1539
f 1539 1542 1541
f 1538 1540 1528
f 1528 1540 1529
f 1544 1529 1543
f 1543 1529 1540
f 1545 1543 1547
f 1547 1543 1546
f 1543 1540 1546
f 1546 1540 1541
f 1543 1545 1544
f 1544 1545 1524
f 1544 1524 1530
f 1530 1524 1523
f 1530 1527 1544
f 1544 1527 1529
f 1535 1518 1542
f 1542 1518 1519
f 1547 1542 1522
f 1522 1542 1519
f 1547 1546 1542
f 1542 1546 1541
f 1545 1547 1517
f 1517 1547 1522
f 1517 1514 1545
f 1545 1514 1524
f 997 995 986
f 986 995 987
f 987 995 988
f 988 995 971
f 976 1358 977
f 977 1358 1289
f 854 853 1067
f 1067 853 1050
f 1055 985 1069
f 1069 985 962
f 1068 961 981
f 981 961 862
f 1268 1358 920
f 920 1358 976
f 920 976 921
f 921 976 975
f 927 1054 850
f 850 1054 851
f 882 881 1057
f 1057 881 1548
f 1548 1374 1057
f 1057 1374 1373
f 1383 1374 1549
f 1549 1374 1548
f 1549 1548 1550
f 1550 1548 881
f 1550 881 1551
f 1551 881 880
f 933 1552 879
f 879 1552 880
f 1551 880 875
f 875 880 1552
f 1553 1551 878
f 878 1551 875
f 1551 1553 1550
f 1550 1553 1554
f 1550 1554 1549
f 1549 1554 1555
f 978 1384 975
f 975 1384 1555
f 967 849 1556
f 1556 849 852
f 875 1552 876
f 876 1552 933
f 961 939 962
f 962 939 1069
f 1555 1054 975
f 975 1054 921
f 1555 1384 1549
f 1549 1384 1383
f 1391 1390 1475
f 1475 1390 980
f 1373 1475 1057
f 1057 1475 980
f 851 1054 1554
f 1554 1054 1555
f 1554 1553 851
f 851 1553 852
f 878 1556 1553
f 1553 1556 852
f 1556 878 967
f 967 878 877
f 1023 1020 877
f 877 1020 967
f 909 811 1034
f 806 779 873
f 873 779 840
f 805 780 806
f 806 780 779
f 1043 893 1044
f 1044 893 892
f 873 840 847
f 847 840 842
f 840 839 842
f 842 839 843
f 839 791 843
f 843 791 908
f 791 790 908
f 908 790 792
f 809 789 810
f 810 789 1046
f 793 790 809
f 809 790 789
f 809 808 793
f 793 808 1009
f 808 884 1009
f 1009 884 1010
f 1065 1015 884
f 884 1015 1010
f 1032 868 1065
f 1065 868 1015
f 1031 822 1032
f 1032 822 868
f 1031 1027 822
f 822 1027 785
f 1045 905 1046
f 1046 905 904
f 788 781 1019
f 1019 781 894
f 781 780 894
f 894 780 892
f 780 805 892
f 892 805 1044
f 805 804 1044
f 1044 804 891
f 804 1064 891
f 891 1064 888
f 1064 1021 888
f 888 1021 1033
f 1021 1020 1033
f 1033 1020 1034
f 1020 1023 1034
f 1034 1023 909
f 1023 1022 909
f 909 1022 910
f 1043 815 893
f 893 815 819
f 819 815 820
f 820 815 818
f 870 869 818
f 818 869 820
f 1014 1011 870
f 870 1011 869
f 969 972 1014
f 1014 972 1011
f 1036 1063 1022
f 1022 1063 910
f 1035 833 1036
f 1036 833 1063
f 1035 932 979
f 979 932 963
f 834 979 982
f 982 979 958
f 833 1035 834
f 834 1035 979
f 982 863 834
f 834 863 830
f 864 900 831
f 831 900 857
f 990 993 864
f 864 993 900
f 989 994 990
f 990 994 993
f 970 1058 989
f 989 1058 994
f 969 1018 970
f 970 1018 1058
f 1027 902 785
f 785 902 786
f 902 905 786
f 786 905 1019
f 905 1045 1019
f 1019 1045 788
f 788 1045 787
f 787 1045 789
