o hand_left
v -0.040756 0.021576 0.500151
v -0.041158 0.028398 0.492016
v -0.036579 0.018750 0.488646
v -0.037633 0.012072 0.497527
v -0.038678 0.032398 0.469756
v -0.046202 0.031468 0.460188
v -0.039012 0.017971 0.460670
v -0.032952 0.021164 0.468259
v -0.036791 0.003728 0.495610
v -0.033345 0.011061 0.486443
v -0.040159 -0.000773 0.493198
v -0.048650 -0.005225 0.505280
v -0.042386 -0.001554 0.504908
v -0.050854 -0.008000 0.514219
v -0.059403 -0.001552 0.504714
v -0.057977 -0.004652 0.520199
v -0.068048 0.023912 0.521536
v -0.065649 0.036301 0.526680
v -0.059264 0.026815 0.539708
v -0.061529 0.015202 0.532543
v -0.053400 0.046896 0.540496
v -0.056374 0.035430 0.540814
v -0.063855 0.044965 0.528397
v -0.060694 0.054705 0.528600
v -0.042608 0.038158 0.503619
v -0.044419 0.045303 0.496372
v -0.044513 0.039130 0.495521
v -0.042908 0.032569 0.502093
v -0.042695 -0.005877 0.479921
v -0.054607 -0.001214 0.485232
v -0.048693 -0.002645 0.491013
v -0.037559 -0.004274 0.481903
v -0.043588 0.069003 0.478976
v -0.053456 0.075203 0.472096
v -0.055709 0.070326 0.469694
v -0.046557 0.065697 0.476988
v -0.056453 0.049836 0.462019
v -0.063526 0.056433 0.461347
v -0.075922 0.052486 0.456755
v -0.071535 0.044308 0.458995
v -0.050554 0.040725 0.461244
v -0.063148 0.036242 0.457712
v -0.056706 0.027015 0.457488
v -0.046958 0.013771 0.457866
v -0.051398 0.085875 0.478933
v -0.043461 0.082953 0.484596
v -0.016937 -0.026606 0.544340
v -0.014005 -0.021701 0.545715
v -0.017089 -0.020016 0.543369
v -0.019649 -0.025182 0.542609
v -0.057803 0.092015 0.497119
v -0.066495 0.090881 0.502105
v -0.067728 0.095589 0.496700
v -0.060372 0.095329 0.490850
v -0.054389 0.087523 0.505345
v -0.064384 0.083905 0.509102
v -0.022771 -0.031203 0.554775
v -0.021171 -0.032141 0.549975
v -0.025688 -0.030451 0.549122
v -0.027516 -0.028672 0.553786
v -0.039272 0.005699 0.505349
v -0.038736 0.015324 0.506927
v -0.035398 -0.003513 0.520448
v -0.037290 0.005095 0.516077
v -0.040322 -0.000538 0.512322
v -0.039789 -0.006990 0.517325
v -0.034918 0.028052 0.522274
v -0.039049 0.034609 0.513551
v -0.039872 0.028096 0.512347
v -0.035171 0.019541 0.520756
v -0.033687 0.047335 0.516601
v -0.030533 0.039899 0.525153
v -0.027959 0.048032 0.525809
v -0.029736 0.051806 0.519166
v -0.027032 0.024712 0.538524
v -0.025819 0.020637 0.543357
v -0.024058 0.022742 0.544374
v -0.026207 0.028082 0.539100
v -0.070072 0.099944 0.491644
v -0.063457 0.097757 0.484737
v -0.044007 0.066526 0.540218
v -0.037970 0.073790 0.534342
v -0.030995 0.068883 0.544476
v -0.039733 0.062336 0.548821
v -0.074333 0.084434 0.504229
v -0.075926 0.090981 0.500249
v -0.022308 -0.027176 0.559407
v -0.026689 -0.024339 0.558051
v -0.068297 0.023996 0.463042
v -0.055338 0.009367 0.461470
v -0.076580 0.035703 0.463642
v -0.082188 0.044107 0.464101
v -0.086783 0.050592 0.461363
v -0.034231 0.007783 0.521446
v -0.040582 0.024710 0.507303
v -0.041381 0.043000 0.504850
v -0.026557 0.068287 0.514249
v -0.029861 0.073658 0.505911
v -0.030884 0.063076 0.504657
v -0.028312 0.060609 0.512567
v -0.029269 0.074549 0.529488
v -0.024594 0.069228 0.525727
v -0.021896 0.065156 0.532551
v -0.025049 0.069811 0.537777
v -0.046630 -0.007465 0.473418
v -0.059056 0.000698 0.478981
v -0.049918 0.089794 0.490410
v -0.054114 0.091197 0.484011
v -0.059785 0.094585 0.478687
v -0.043833 0.056187 0.486955
v -0.048521 0.063399 0.475578
v -0.049230 0.059368 0.474301
v -0.045241 0.053197 0.487094
v -0.040643 0.036996 0.483263
v -0.044078 0.044370 0.472405
v -0.034751 0.027029 0.480183
v -0.059607 0.064799 0.465301
v -0.061391 0.075281 0.462652
v -0.065699 0.068423 0.458938
v -0.059092 0.083351 0.467747
v -0.058207 0.090273 0.473320
v -0.080424 0.097407 0.497014
v -0.070528 0.061753 0.457040
v -0.029486 0.012419 0.467995
v -0.026473 0.004627 0.466847
v -0.026678 0.003324 0.474618
v -0.029051 0.010866 0.476675
v -0.050278 -0.012040 0.523548
v -0.044109 -0.011157 0.518953
v -0.045295 -0.005832 0.510525
v -0.037512 0.067632 0.488685
v -0.037485 0.079562 0.492943
v -0.032507 -0.000973 0.525891
v -0.031812 -0.025806 0.551742
v -0.029776 -0.028029 0.546689
v -0.041771 -0.019325 0.535116
v -0.044175 -0.017258 0.541196
v -0.031862 -0.001756 0.536710
v -0.031100 -0.003603 0.530144
v -0.030459 -0.004457 0.532999
v -0.029369 -0.002229 0.539040
v -0.022108 0.031787 0.543321
v -0.024138 0.036433 0.538710
v -0.051801 0.007308 0.542113
v -0.058958 -0.001740 0.535242
v -0.062766 0.004487 0.526134
v -0.033065 0.035179 0.523494
v -0.029128 0.029980 0.531575
v -0.028060 0.033820 0.532593
v -0.032608 0.008369 0.525978
v -0.031231 0.002547 0.530739
v -0.031682 0.008112 0.531662
v -0.032488 0.013855 0.527255
v -0.044653 0.079539 0.524488
v -0.034280 0.080597 0.519235
v -0.019280 -0.030422 0.546047
v -0.022867 -0.029016 0.544757
v -0.037128 0.041443 0.514902
v -0.067042 0.013303 0.515571
v -0.039553 0.048053 0.506008
v -0.035251 0.044441 0.552850
v -0.027170 0.045577 0.550005
v -0.023924 0.041343 0.551979
v -0.028458 0.039773 0.556053
v -0.020441 -0.009642 0.549170
v -0.018344 -0.012398 0.544595
v -0.015922 -0.015072 0.547061
v -0.017376 -0.012725 0.552195
v -0.033036 -0.007278 0.526006
v -0.037083 -0.011384 0.523190
v -0.033440 -0.013873 0.528235
v -0.031019 -0.008925 0.530478
v -0.041766 -0.015071 0.525795
v -0.037972 -0.017843 0.530261
v -0.024557 -0.010402 0.554178
v -0.029402 -0.015320 0.557207
v -0.040123 -0.006266 0.548129
v -0.032946 -0.003460 0.545740
v -0.068778 0.062323 0.518203
v -0.063361 0.071986 0.519295
v -0.055294 0.064700 0.529868
v -0.047915 0.058120 0.541249
v -0.040563 0.050938 0.550734
v -0.047735 0.041065 0.551223
v -0.051682 0.072027 0.529046
v -0.038129 0.002604 0.541497
v -0.046913 -0.000547 0.542367
v -0.044326 0.003880 0.543595
v -0.035415 0.054103 0.507379
v -0.026580 -0.027049 0.542276
v -0.092111 0.052614 0.482208
v -0.091402 0.062552 0.490955
v -0.087487 0.055772 0.494963
v -0.087598 0.044617 0.484974
v -0.019214 -0.017795 0.540508
v -0.022199 -0.023368 0.539322
v -0.020954 0.041754 0.540547
v -0.019730 0.036930 0.544759
v -0.019242 0.039141 0.547582
v -0.017796 0.044631 0.543520
v -0.060719 0.077240 0.518237
v -0.023612 0.065167 0.547989
v -0.032370 0.059337 0.552627
v -0.070595 0.077943 0.510100
v -0.075884 0.069755 0.509483
v -0.080783 0.075622 0.503444
v -0.046951 0.025664 0.551236
v -0.071081 0.053973 0.518200
v -0.077930 0.062437 0.508596
v -0.083883 0.069108 0.501340
v -0.088365 0.074500 0.496831
v -0.084354 0.081081 0.499473
v -0.031061 -0.020849 0.555781
v -0.024337 -0.018498 0.560352
v -0.089521 0.087710 0.496110
v -0.093325 0.079931 0.492809
v -0.080125 0.053844 0.506138
v -0.081671 0.043322 0.502164
v -0.073225 0.045989 0.515424
v -0.074349 0.034904 0.512309
v -0.054994 0.018488 0.549183
v -0.007467 -0.022951 0.563187
v -0.016297 -0.017098 0.559934
v -0.013863 -0.015377 0.554923
v -0.005533 -0.020394 0.560282
v -0.020500 -0.013698 0.557187
v -0.019874 -0.021326 0.561601
v -0.073125 0.022143 0.504141
v -0.030966 0.003927 0.536405
v -0.079495 0.030099 0.490387
v -0.067172 0.006046 0.496159
v -0.070337 0.012688 0.484854
v -0.085043 0.037300 0.474846
v -0.076488 0.023019 0.473432
v -0.092993 0.052434 0.469713
v -0.089183 0.045582 0.473636
v -0.065559 0.010233 0.470631
v -0.007101 -0.028098 0.548006
v -0.005473 -0.022945 0.549972
v -0.096434 0.058616 0.478329
v -0.031411 0.017982 0.478397
v -0.037989 0.058052 0.497615
v -0.041038 0.053269 0.497193
v -0.032584 0.076254 0.500785
v -0.033919 0.064962 0.497602
v -0.009506 -0.032749 0.549168
v -0.026267 0.019460 0.548359
v -0.027033 0.020593 0.547961
v -0.033932 0.010566 0.460457
v -0.030555 0.004261 0.460302
v -0.040764 -0.004212 0.460061
v -0.035511 0.000103 0.457765
v -0.041023 0.006543 0.457497
v -0.047157 0.002324 0.460018
v -0.042300 0.058431 0.487197
v -0.040233 0.061650 0.488235
v -0.049601 0.084108 0.514363
v -0.039062 0.084388 0.509623
v -0.046499 -0.015202 0.530307
v -0.055127 -0.009072 0.530360
v -0.049567 -0.012464 0.536137
v -0.044935 -0.011463 0.545147
v -0.032671 0.001881 0.540088
v -0.036513 -0.000607 0.541050
v -0.046643 0.052198 0.474008
v -0.044564 0.046335 0.486315
v -0.032252 0.006005 0.483745
v -0.030623 -0.000129 0.480863
v -0.031921 0.021933 0.528245
v -0.038744 0.017902 0.554342
v -0.045217 0.012007 0.552240
v -0.029967 0.016227 0.534860
v -0.011680 -0.035190 0.557008
v -0.010675 -0.034946 0.552111
v -0.051020 -0.007085 0.540281
v -0.024904 0.041578 0.533003
v -0.038655 0.024854 0.553456
v -0.031576 0.019559 0.553470
v -0.021295 0.066566 0.540557
v -0.095789 0.068547 0.486095
v -0.012250 -0.016913 0.549669
v -0.004971 -0.019528 0.553711
v -0.010070 -0.026298 0.564043
v -0.012553 -0.031394 0.561904
v -0.043620 0.086250 0.499848
v -0.042760 0.049800 0.497204
v -0.055258 0.001022 0.467761
v -0.045121 -0.006528 0.465997
v -0.029176 0.013175 0.538639
v -0.031582 0.050956 0.551903
v -0.039944 0.036694 0.555693
v -0.032133 0.032402 0.559775
v -0.031362 0.024873 0.558481
v -0.027852 0.020195 0.554119
v -0.004597 -0.027998 0.564586
v -0.007073 -0.033041 0.562483
v -0.006538 -0.036724 0.557452
v -0.006115 -0.036391 0.552908
v -0.005784 -0.033313 0.549815
v -0.001815 -0.024566 0.563716
v -0.000309 -0.022343 0.560788
v -0.001677 -0.020749 0.554823
v 0.003106 -0.025358 0.562825
v 0.003773 -0.030506 0.564170
v 0.007047 -0.039581 0.554069
v 0.001960 -0.038804 0.557034
v 0.004462 -0.038532 0.558188
v 0.009149 -0.039098 0.556507
v 0.014328 -0.039335 0.556234
v 0.012651 -0.040089 0.553214
v 0.002993 -0.035567 0.561518
v 0.009577 -0.036009 0.559914
v 0.010470 -0.032256 0.561635
v 0.015855 -0.033381 0.560755
v 0.015258 -0.036849 0.559391
v 0.005969 -0.032386 0.562904
v 0.000605 -0.035347 0.562337
v 0.017112 -0.039057 0.553966
v 0.017252 -0.039145 0.556477
v 0.018272 -0.036815 0.558603
v 0.020365 -0.036152 0.556486
v -0.001442 -0.037393 0.552358
v 0.006719 -0.038867 0.551557
v 0.012676 -0.037887 0.550935
v 0.017085 -0.037045 0.551975
v 0.008067 -0.035576 0.549461
v 0.012817 -0.035134 0.549882
v 0.016550 -0.033953 0.550889
v 0.009458 -0.031536 0.548966
v 0.013447 -0.031990 0.549868
v -0.001729 -0.029829 0.549116
v -0.003113 -0.033824 0.549547
v 0.016027 -0.031973 0.550202
v 0.020579 -0.034423 0.555110
v 0.009495 -0.028705 0.562124
v 0.016050 -0.030278 0.559919
v 0.009659 -0.026558 0.560984
v 0.016235 -0.028011 0.559215
v 0.020052 -0.032113 0.559182
v 0.018516 -0.034087 0.559728
v -0.004906 -0.028310 0.548972
v -0.003094 -0.023047 0.551243
v -0.000267 -0.024180 0.551394
v 0.010402 -0.027104 0.550670
v 0.001532 -0.021844 0.554715
v 0.004208 -0.023170 0.559769
v 0.010745 -0.025065 0.558573
v 0.010953 -0.024575 0.555134
v 0.015671 -0.026723 0.557042
v 0.014998 -0.026803 0.554568
v 0.014459 -0.028716 0.551233
v 0.018683 -0.028962 0.555410
v 0.019810 -0.030433 0.557730
v 0.019099 -0.032021 0.553213
v 0.017427 -0.028252 0.554085
v 0.017104 -0.030584 0.552185
v -0.003104 -0.003417 0.551747
v -0.001099 0.002430 0.553416
v -0.005878 0.002635 0.553377
v -0.007183 -0.002435 0.552000
v -0.006173 -0.010733 0.563283
v -0.005329 -0.010220 0.557170
v -0.010309 -0.009765 0.557880
v -0.011454 -0.008805 0.564426
v -0.005740 -0.006213 0.568559
v -0.011338 -0.003839 0.568884
v -0.017216 -0.007193 0.563077
v -0.015556 -0.007868 0.556162
v -0.032630 0.000433 0.546550
v -0.035381 0.001254 0.552794
v -0.023746 0.015902 0.545318
v -0.024014 0.016907 0.549080
v -0.004177 -0.007088 0.553252
v -0.008647 -0.006628 0.553757
v -0.008436 0.010818 0.557469
v -0.007959 0.008238 0.552663
v -0.004429 0.006799 0.555485
v -0.004397 0.008575 0.560740
v -0.028159 0.005058 0.541075
v -0.026203 0.010859 0.542799
v -0.029966 0.002178 0.542925
v -0.010484 0.010214 0.563787
v -0.013672 0.006242 0.568373
v -0.031252 0.013134 0.560248
v -0.026758 0.016568 0.557226
v -0.013179 -0.005788 0.551619
v -0.008717 0.003293 0.549925
v -0.010569 -0.001520 0.549032
v -0.017062 -0.001085 0.567256
v -0.007703 0.003252 0.569937
v 0.011644 0.001144 0.565811
v 0.000145 0.005421 0.566475
v 0.000909 0.006991 0.561554
v 0.013072 0.003631 0.561646
v -0.005265 0.007431 0.566283
v -0.002397 0.000850 0.569393
v 0.011628 -0.004869 0.550846
v 0.013438 0.000880 0.552816
v 0.010444 -0.009174 0.551911
v -0.035318 0.006553 0.558071
v 0.006918 -0.012776 0.560944
v 0.008708 -0.011851 0.554709
v 0.000305 0.006362 0.556506
v 0.014089 0.003749 0.556857
v 0.009881 -0.002650 0.567682
v 0.006372 -0.008882 0.566436
v 0.015415 -0.004755 0.566607
v 0.012824 -0.010311 0.565075
v 0.012697 -0.014024 0.559585
v 0.013123 -0.012474 0.554021
v 0.013677 -0.009410 0.551538
v 0.017182 -0.001037 0.565067
v 0.018151 0.001885 0.561357
v 0.016859 0.002495 0.556468
v 0.023902 -0.001336 0.561730
v 0.024053 -0.005758 0.563230
v 0.030734 -0.014737 0.548419
v 0.025581 -0.014835 0.551576
v 0.027099 -0.014456 0.553698
v 0.031900 -0.014303 0.550952
v 0.021439 -0.015211 0.556349
v 0.023751 -0.014345 0.556950
v 0.024020 -0.011313 0.560522
v 0.028891 -0.011078 0.556657
v 0.029516 -0.006714 0.558705
v 0.034710 -0.007092 0.556218
v 0.034396 -0.011526 0.554327
v 0.026037 -0.008039 0.561204
v 0.035299 -0.013593 0.549853
v 0.036027 -0.012930 0.547455
v 0.021443 -0.011823 0.562439
v 0.016788 -0.013613 0.553017
v 0.024687 -0.013719 0.548798
v 0.030528 -0.012773 0.545780
v 0.036256 -0.010324 0.545860
v 0.024888 -0.010228 0.546394
v 0.030655 -0.009758 0.544553
v 0.035278 -0.007823 0.545319
v 0.025511 -0.005577 0.545550
v 0.031237 -0.005558 0.544512
v 0.015865 -0.005065 0.549906
v 0.015639 -0.009872 0.550192
v 0.033825 -0.005899 0.545058
v 0.039031 -0.010475 0.550343
v 0.038926 -0.007985 0.548066
v 0.037837 -0.011128 0.551642
v 0.029612 -0.004576 0.558971
v 0.035045 -0.005011 0.555416
v 0.029772 -0.001910 0.557878
v 0.035608 -0.003055 0.554052
v 0.038791 -0.006490 0.552880
v 0.038317 -0.008040 0.553441
v 0.014197 -0.005038 0.551292
v 0.015561 0.000099 0.553253
v 0.017027 0.000062 0.552073
v 0.026838 -0.001059 0.548068
v 0.018972 0.002444 0.555724
v 0.022677 0.001271 0.559280
v 0.029072 0.000177 0.556020
v 0.028372 0.000908 0.552117
v 0.035306 -0.001114 0.553059
v 0.032998 -0.000261 0.550902
v 0.031809 -0.002050 0.546574
v 0.038533 -0.003256 0.550403
v 0.039088 -0.005110 0.551791
v 0.037770 -0.006267 0.547190
v 0.036150 -0.001879 0.549217
v 0.035442 -0.004159 0.546426
v -0.000802 0.016953 0.552963
v 0.000510 0.022581 0.552596
v -0.003190 0.023402 0.552431
v -0.004488 0.017854 0.553106
v -0.002123 0.013703 0.565350
v -0.001684 0.012122 0.560657
v -0.006131 0.012955 0.560971
v -0.007834 0.014848 0.565824
v 0.000273 0.017896 0.568383
v -0.007254 0.019927 0.569225
v -0.013320 0.016308 0.565697
v -0.010518 0.014017 0.560717
v -0.023850 0.019118 0.555681
v -0.025754 0.021849 0.561419
v -0.001363 0.013771 0.556240
v -0.005060 0.014489 0.556354
v -0.004077 0.031453 0.555999
v -0.004239 0.028211 0.552359
v -0.001775 0.028086 0.554713
v -0.001317 0.030238 0.558505
v -0.021254 0.023342 0.546284
v -0.020286 0.029426 0.546291
v -0.021765 0.019960 0.550142
v -0.005713 0.031949 0.562412
v -0.009538 0.028966 0.567854
v -0.021281 0.035369 0.561400
v -0.018795 0.037328 0.556058
v -0.008550 0.014889 0.555956
v -0.005727 0.023448 0.550431
v -0.007007 0.018028 0.551647
v -0.012848 0.022213 0.568118
v -0.004107 0.026326 0.568765
v 0.017827 0.023201 0.563966
v 0.002414 0.028608 0.564656
v 0.002627 0.029165 0.558723
v 0.018096 0.024901 0.559849
v -0.001480 0.030152 0.564293
v 0.001334 0.024401 0.568561
v 0.014357 0.014502 0.551536
v 0.015436 0.019885 0.552029
v 0.012588 0.011479 0.554332
v -0.025182 0.028468 0.564192
v -0.018025 0.036044 0.549699
v 0.013012 0.009916 0.561721
v 0.012467 0.009899 0.557369
v 0.001747 0.027161 0.555012
v 0.017183 0.024093 0.555368
v 0.015985 0.019592 0.566763
v 0.013377 0.013862 0.566328
v 0.021403 0.018524 0.565248
v 0.018860 0.012776 0.564673
v 0.018060 0.008723 0.560354
v 0.016954 0.009098 0.555948
v 0.016688 0.010897 0.552976
v 0.022857 0.022222 0.562230
v 0.022592 0.023690 0.558511
v 0.018902 0.023137 0.554885
v 0.026837 0.021833 0.560007
v 0.028032 0.017006 0.562350
v 0.035042 0.007132 0.550395
v 0.029853 0.007642 0.553108
v 0.030479 0.008196 0.554023
v 0.035907 0.007535 0.551846
v 0.025096 0.008149 0.557883
v 0.026992 0.008685 0.557717
v 0.027610 0.011448 0.560459
v 0.033293 0.011166 0.557373
v 0.033487 0.017176 0.557867
v 0.037922 0.015931 0.555298
v 0.038252 0.010369 0.554946
v 0.029187 0.015655 0.561038
v 0.039029 0.008025 0.550969
v 0.039210 0.006741 0.549528
v 0.025649 0.011620 0.562022
v 0.021900 0.007846 0.554156
v 0.028502 0.007482 0.550473
v 0.033678 0.006940 0.547493
v 0.037819 0.008293 0.546485
v 0.027517 0.009973 0.547740
v 0.032598 0.009409 0.545806
v 0.036376 0.010537 0.544978
v 0.027365 0.013048 0.546477
v 0.032038 0.012544 0.545108
v 0.018690 0.014123 0.550376
v 0.019792 0.010336 0.551633
v 0.035201 0.012544 0.544821
v 0.041956 0.010362 0.551040
v 0.041152 0.012712 0.547609
v 0.040682 0.010395 0.552226
v 0.033006 0.018980 0.557941
v 0.038687 0.018007 0.554447
v 0.032256 0.021142 0.556224
v 0.037872 0.019996 0.552764
v 0.041632 0.015316 0.552644
v 0.040999 0.014470 0.553256
v 0.016478 0.014566 0.551431
v 0.017237 0.019572 0.552045
v 0.019178 0.018960 0.550970
v 0.028390 0.017678 0.546697
v 0.020903 0.022609 0.553559
v 0.026239 0.023082 0.556459
v 0.031182 0.021798 0.553153
v 0.030150 0.020898 0.549564
v 0.036348 0.020564 0.550468
v 0.034217 0.019845 0.548685
v 0.032790 0.016625 0.545256
v 0.038857 0.017787 0.548622
v 0.040947 0.017076 0.550634
v 0.038894 0.014143 0.545858
v 0.036787 0.018015 0.547194
v 0.036672 0.015207 0.545184
v -0.018893 0.033651 0.547206
v 0.002329 0.040844 0.545626
v 0.003182 0.044767 0.544439
v 0.001582 0.045808 0.545287
v -0.000274 0.041939 0.545879
v 0.001855 0.039978 0.556936
v 0.001902 0.037952 0.552691
v -0.002362 0.038580 0.553881
v -0.002573 0.040603 0.557935
v 0.002928 0.044556 0.558918
v -0.001086 0.045580 0.559583
v -0.006437 0.041916 0.557678
v -0.006270 0.039753 0.553479
v -0.021121 0.045039 0.550147
v -0.023027 0.048870 0.553672
v -0.016229 0.063318 0.542421
v -0.016827 0.059884 0.537766
v -0.009827 0.057009 0.541908
v -0.010580 0.060444 0.545468
v 0.001990 0.038582 0.548734
v -0.001759 0.039061 0.548972
v 0.001489 0.054981 0.549395
v 0.001135 0.051601 0.545854
v 0.002647 0.049866 0.545696
v 0.003949 0.053429 0.548465
v -0.016989 0.054252 0.537207
v -0.018083 0.049522 0.539382
v -0.014364 0.048298 0.540270
v -0.010344 0.052058 0.540772
v -0.016637 0.044569 0.544233
v 0.000635 0.055396 0.553646
v -0.001741 0.052655 0.558470
v -0.016621 0.061432 0.553693
v -0.013807 0.062227 0.549564
v -0.004126 0.039722 0.549417
v -0.000318 0.047190 0.544773
v -0.001500 0.042939 0.545924
v -0.004975 0.047047 0.559983
v 0.001737 0.051094 0.557727
v 0.014018 0.050841 0.550270
v 0.006040 0.053394 0.552166
v 0.005763 0.052548 0.547311
v 0.013615 0.050582 0.547188
v 0.003742 0.053909 0.552991
v 0.005463 0.050174 0.556855
v 0.010171 0.039349 0.543651
v 0.010902 0.044511 0.542922
v 0.009923 0.037208 0.546141
v -0.021712 0.055143 0.555631
v 0.011076 0.038055 0.553478
v 0.010690 0.036331 0.549412
v 0.004542 0.048738 0.544897
v 0.012335 0.048416 0.544376
v 0.013759 0.048430 0.554003
v 0.012010 0.042981 0.556222
v 0.017955 0.047006 0.552580
v 0.015887 0.041477 0.554504
v 0.014830 0.036564 0.551180
v 0.013306 0.035818 0.547821
v 0.012514 0.036699 0.544855
v 0.017879 0.049578 0.548950
v 0.016882 0.049468 0.546010
v 0.014710 0.047664 0.543427
v 0.021719 0.048184 0.547492
v 0.023270 0.044606 0.550312
v 0.027247 0.034174 0.542640
v 0.023652 0.034653 0.544554
v 0.024244 0.035245 0.545454
v 0.027801 0.034116 0.543631
v 0.020002 0.035819 0.548342
v 0.021556 0.036489 0.548421
v 0.021742 0.039488 0.550402
v 0.026206 0.038220 0.547889
v 0.027871 0.043258 0.547122
v 0.031239 0.041652 0.545233
v 0.029619 0.037322 0.546373
v 0.024292 0.042856 0.550021
v 0.030533 0.034091 0.543268
v 0.031056 0.033556 0.542090
v 0.020417 0.039722 0.551661
v 0.017027 0.034996 0.545529
v 0.023063 0.034025 0.542210
v 0.027787 0.033591 0.540436
v 0.031426 0.034526 0.540041
v 0.021525 0.035208 0.540453
v 0.027141 0.034523 0.538373
v 0.030618 0.035609 0.538063
v 0.020607 0.037813 0.538545
v 0.026242 0.036812 0.537305
v 0.014412 0.039401 0.541133
v 0.015437 0.036453 0.542989
v 0.029401 0.036902 0.537621
v 0.033469 0.036383 0.543230
v 0.033317 0.037221 0.540382
v 0.032784 0.036660 0.544602
v 0.027719 0.044581 0.546588
v 0.031783 0.042742 0.544132
v 0.027000 0.046231 0.544720
v 0.031399 0.043504 0.542102
v 0.033854 0.040022 0.543096
v 0.032854 0.039452 0.544574
v 0.012580 0.039556 0.542193
v 0.012922 0.043807 0.542103
v 0.015099 0.043670 0.541015
v 0.021089 0.041749 0.538165
v 0.017073 0.047371 0.542467
v 0.019680 0.048740 0.545039
v 0.025529 0.046420 0.542339
v 0.023552 0.045192 0.539783
v 0.030497 0.043330 0.540067
v 0.028346 0.042441 0.538047
v 0.026585 0.039997 0.536851
v 0.032374 0.040116 0.539270
v 0.033559 0.040139 0.540774
v 0.032154 0.037928 0.538747
v 0.030817 0.040094 0.538024
v 0.030166 0.038682 0.537616
v -0.016779 0.063375 0.546582
v -0.034655 -0.016763 0.471223
v -0.031963 -0.014819 0.475917
v -0.019247 -0.006512 0.469837
v -0.022033 -0.009471 0.475612
v -0.019635 -0.006512 0.463047
v -0.027539 -0.010667 0.456817
v -0.023476 -0.007304 0.458727
v -0.026775 -0.012417 0.477765
v -0.035720 -0.016720 0.465169
v -0.033193 -0.014199 0.458795
v -0.031787 -0.024683 0.465865
v -0.028511 -0.022033 0.458898
v -0.022889 -0.018766 0.456322
v -0.018706 -0.013381 0.458990
v -0.016010 -0.011018 0.462632
v -0.030604 -0.021718 0.472647
v -0.027932 -0.018976 0.476742
v -0.022868 -0.014772 0.477801
v -0.024765 -0.026061 0.475869
v -0.017852 -0.032172 0.472255
v 0.000146 -0.032158 0.464927
v -0.004714 -0.027647 0.463179
v -0.006050 -0.030061 0.463972
v -0.001578 -0.034174 0.465001
v -0.010195 -0.026723 0.461888
v -0.010073 -0.028524 0.463497
v -0.014141 -0.030450 0.466365
v -0.009780 -0.034013 0.467440
v -0.015279 -0.032270 0.471075
v -0.012253 -0.034375 0.473122
v -0.005655 -0.037610 0.468647
v -0.000324 -0.037777 0.466286
v -0.001995 -0.040401 0.469765
v 0.002326 -0.036415 0.467430
v -0.016203 -0.031718 0.464573
v -0.011424 -0.019981 0.460391
v -0.004087 -0.024004 0.463472
v 0.001427 -0.029018 0.466532
v 0.003478 -0.034188 0.469525
v -0.003481 -0.020777 0.466444
v 0.000772 -0.026008 0.469690
v 0.002108 -0.030754 0.472866
v -0.004366 -0.019323 0.471044
v -0.000881 -0.025018 0.473200
v -0.013659 -0.011729 0.469050
v -0.011947 -0.014067 0.463271
v 0.000371 -0.028974 0.474292
v 0.000279 -0.040690 0.471470
v 0.001407 -0.038149 0.473884
v -0.013942 -0.033634 0.476035
v -0.008672 -0.038225 0.474169
v -0.008831 -0.037079 0.476994
v -0.015111 -0.030942 0.478830
v -0.008529 -0.035278 0.479247
v -0.004206 -0.040176 0.475706
v -0.005282 -0.040357 0.473058
v -0.016113 -0.009471 0.468688
v -0.019108 -0.010929 0.474360
v -0.017038 -0.013044 0.474723
v -0.008029 -0.020089 0.476617
v -0.019928 -0.016884 0.478708
v -0.023114 -0.022167 0.478624
v -0.014096 -0.027798 0.480697
v -0.011718 -0.023588 0.480207
v -0.007260 -0.031981 0.480152
v -0.006034 -0.029220 0.479507
v -0.002971 -0.026302 0.476933
v -0.002876 -0.034399 0.478505
v -0.003515 -0.037892 0.477914
v 0.000633 -0.033980 0.475899
v -0.003203 -0.031611 0.478325
v -0.000880 -0.030671 0.476482
v -0.019833 0.062113 0.535302
v -0.020110 0.055576 0.533705
v -0.021906 0.059642 0.530029
v -0.023785 0.063827 0.522700
v -0.027202 0.072785 0.518494
v -0.026022 0.057499 0.520811
v -0.023753 0.053469 0.528767
v -0.021499 0.047736 0.534998
v -0.031723 0.055303 0.512772
f 2 3 1
f 1 3 4
f 5 6 8
f 8 6 7
f 9 4 10
f 10 4 3
f 12 13 11
f 11 13 9
f 14 12 16
f 16 12 15
f 18 19 17
f 17 19 20
f 22 23 21
f 21 23 24
f 26 27 25
f 25 27 28
f 30 31 29
f 29 31 32
f 33 34 36
f 36 34 35
f 37 38 40
f 40 38 39
f 41 42 6
f 6 42 43
f 6 43 7
f 7 43 44
f 45 34 46
f 46 34 33
f 48 49 47
f 47 49 50
f 52 53 51
f 51 53 54
f 56 52 55
f 55 52 51
f 58 59 57
f 57 59 60
f 61 62 4
f 4 62 1
f 64 65 63
f 63 65 66
f 68 69 67
f 67 69 70
f 72 73 71
f 71 73 74
f 76 77 75
f 75 77 78
f 53 79 54
f 54 79 80
f 82 83 81
f 81 83 84
f 85 86 52
f 52 86 53
f 57 60 87
f 87 60 88
f 89 90 43
f 43 90 44
f 43 42 89
f 89 42 91
f 40 39 92
f 92 39 93
f 94 70 64
f 64 70 69
f 13 61 9
f 9 61 4
f 25 28 69
f 69 28 95
f 96 25 68
f 68 25 69
f 98 99 97
f 97 99 100
f 101 102 104
f 104 102 103
f 106 30 105
f 105 30 29
f 51 54 107
f 107 54 108
f 54 80 108
f 108 80 109
f 111 112 110
f 110 112 113
f 115 5 114
f 114 5 116
f 115 41 5
f 5 41 6
f 36 35 111
f 111 35 117
f 35 118 117
f 117 118 119
f 34 120 35
f 35 120 118
f 34 45 120
f 120 45 121
f 125 126 124
f 124 126 127
f 128 129 14
f 14 129 130
f 33 131 46
f 46 131 132
f 133 94 63
f 63 94 64
f 134 135 137
f 137 135 136
f 139 140 138
f 138 140 141
f 77 142 78
f 78 142 143
f 144 145 20
f 20 145 146
f 148 149 147
f 147 149 72
f 151 152 150
f 150 152 153
f 82 101 83
f 83 101 104
f 101 82 155
f 155 82 154
f 156 157 58
f 58 157 59
f 158 68 147
f 147 68 67
f 159 146 15
f 15 146 16
f 68 158 96
f 96 158 160
f 129 66 130
f 130 66 65
f 162 163 161
f 161 163 164
f 166 167 165
f 165 167 168
f 170 171 169
f 169 171 172
f 174 171 173
f 173 171 170
f 176 177 175
f 175 177 178
f 180 181 179
f 179 181 24
f 182 183 21
f 21 183 184
f 81 185 82
f 82 185 154
f 186 187 188
f 188 187 144
f 158 71 160
f 160 71 189
f 190 135 157
f 157 135 59
f 169 172 139
f 139 172 140
f 147 72 158
f 158 72 71
f 192 193 191
f 191 193 194
f 167 166 49
f 49 166 195
f 196 190 50
f 50 190 157
f 197 198 200
f 200 198 199
f 21 24 182
f 182 24 181
f 146 159 20
f 20 159 17
f 182 181 81
f 81 181 185
f 201 185 180
f 180 185 181
f 202 203 83
f 83 203 84
f 205 206 204
f 204 206 85
f 207 22 184
f 184 22 21
f 179 24 208
f 208 24 23
f 208 209 179
f 179 209 205
f 209 210 205
f 205 210 206
f 212 206 211
f 211 206 210
f 179 205 180
f 180 205 204
f 213 176 88
f 88 176 214
f 86 85 212
f 212 85 206
f 193 217 218
f 217 219 218
f 218 219 220
f 219 18 220
f 220 18 17
f 19 221 20
f 20 221 144
f 222 223 225
f 225 223 224
f 175 226 176
f 176 226 214
f 227 87 214
f 214 87 88
f 220 17 228
f 228 17 159
f 134 213 60
f 60 213 88
f 138 229 151
f 151 229 152
f 193 192 210
f 210 192 211
f 230 194 218
f 218 194 193
f 231 232 228
f 228 232 230
f 233 234 91
f 91 234 89
f 235 236 93
f 93 236 92
f 230 232 234
f 234 232 237
f 47 238 48
f 48 238 239
f 240 191 235
f 235 191 236
f 5 8 116
f 116 8 241
f 242 243 189
f 189 243 160
f 244 245 98
f 98 245 99
f 156 246 47
f 47 246 238
f 76 247 77
f 77 247 248
f 250 125 249
f 249 125 124
f 252 253 251
f 251 253 254
f 111 110 36
f 36 110 255
f 256 33 255
f 255 33 36
f 257 258 154
f 154 258 155
f 63 169 133
f 133 169 139
f 66 170 63
f 63 170 169
f 173 170 129
f 129 170 66
f 129 128 173
f 173 128 259
f 128 260 259
f 259 260 261
f 213 134 262
f 262 134 137
f 263 264 186
f 186 264 187
f 112 265 113
f 113 265 266
f 11 267 268
f 234 233 230
f 230 233 194
f 153 269 70
f 70 269 67
f 175 178 165
f 165 178 141
f 150 153 94
f 94 153 70
f 271 221 270
f 270 221 207
f 269 153 272
f 272 153 152
f 121 45 109
f 109 45 108
f 47 50 156
f 156 50 157
f 57 273 58
f 58 273 274
f 145 275 260
f 260 275 261
f 276 149 143
f 143 149 78
f 148 269 75
f 75 269 272
f 207 277 270
f 270 277 278
f 195 196 49
f 49 196 50
f 59 135 60
f 60 135 134
f 83 104 202
f 202 104 279
f 149 148 78
f 78 148 75
f 247 278 248
f 248 278 277
f 183 182 84
f 84 182 81
f 48 239 281
f 281 239 282
f 227 223 283
f 283 223 222
f 223 226 224
f 224 226 168
f 281 282 224
f 224 282 225
f 165 168 175
f 175 168 226
f 264 263 138
f 138 263 229
f 14 16 128
f 128 16 260
f 220 228 218
f 218 228 230
f 87 227 284
f 284 227 283
f 260 16 145
f 145 16 146
f 244 98 258
f 258 98 155
f 58 274 156
f 156 274 246
f 107 285 51
f 51 285 55
f 243 286 160
f 160 286 96
f 234 237 89
f 89 237 90
f 46 132 107
f 107 132 285
f 253 252 249
f 249 252 250
f 286 26 96
f 96 26 25
f 106 105 287
f 287 105 288
f 272 152 289
f 289 152 229
f 138 151 139
f 139 151 133
f 183 290 161
f 161 290 162
f 291 292 277
f 277 292 293
f 151 150 133
f 133 150 94
f 262 275 177
f 177 275 187
f 144 187 145
f 145 187 275
f 273 57 284
f 284 57 87
f 174 136 190
f 190 136 135
f 111 117 112
f 112 117 38
f 117 119 38
f 38 119 123
f 112 38 265
f 265 38 37
f 287 288 254
f 254 288 251
f 228 159 231
f 231 159 15
f 223 227 226
f 226 227 214
f 147 67 148
f 148 67 269
f 224 168 281
f 281 168 167
f 199 163 200
f 200 163 162
f 45 46 108
f 108 46 107
f 281 167 48
f 48 167 49
f 161 164 291
f 291 164 292
f 38 123 39
f 293 294 277
f 277 294 248
f 284 283 296
f 296 283 295
f 284 296 273
f 273 296 297
f 274 273 298
f 298 273 297
f 246 274 299
f 299 274 298
f 283 222 295
f 295 222 300
f 222 225 300
f 300 225 301
f 301 225 302
f 302 225 282
f 303 304 300
f 300 304 295
f 306 307 305
f 305 307 308
f 309 310 308
f 308 310 305
f 308 307 312
f 312 307 311
f 313 314 312
f 312 314 315
f 311 316 312
f 312 316 313
f 317 304 311
f 311 304 316
f 315 309 312
f 312 309 308
f 318 319 321
f 321 319 320
f 319 318 309
f 309 318 310
f 311 307 317
f 317 307 306
f 306 297 317
f 317 297 296
f 306 322 297
f 297 322 298
f 305 323 306
f 306 323 322
f 323 305 324
f 324 305 310
f 304 317 295
f 295 317 296
f 318 325 310
f 310 325 324
f 323 324 326
f 326 324 327
f 324 325 327
f 327 325 328
f 326 327 329
f 329 327 330
f 329 331 326
f 326 331 332
f 333 330 328
f 328 330 327
f 323 326 322
f 322 326 332
f 322 332 298
f 298 332 299
f 325 318 334
f 334 318 321
f 313 316 335
f 335 316 304
f 335 336 313
f 313 336 314
f 304 303 335
f 335 303 337
f 336 335 338
f 338 335 337
f 336 339 314
f 314 339 340
f 246 299 238
f 238 299 341
f 239 342 282
f 282 342 302
f 342 239 341
f 341 239 238
f 341 331 342
f 342 331 343
f 331 329 343
f 343 329 344
f 342 343 302
f 302 343 345
f 341 299 331
f 331 299 332
f 346 301 345
f 345 301 302
f 346 303 301
f 301 303 300
f 347 337 346
f 346 337 303
f 347 346 348
f 348 346 345
f 349 347 350
f 350 347 348
f 343 344 345
f 345 344 348
f 344 351 348
f 348 351 350
f 337 347 338
f 338 347 349
f 353 338 352
f 352 338 349
f 352 355 354
f 354 355 356
f 352 349 355
f 355 349 350
f 352 354 353
f 353 354 334
f 353 334 339
f 339 334 321
f 339 336 353
f 353 336 338
f 329 330 344
f 344 330 351
f 356 351 333
f 333 351 330
f 356 355 351
f 351 355 350
f 354 356 328
f 328 356 333
f 328 325 354
f 354 325 334
f 309 315 319
f 319 315 320
f 320 340 321
f 321 340 339
f 320 315 340
f 340 315 314
f 137 136 261
f 261 136 259
f 140 166 141
f 141 166 165
f 172 171 195
f 195 171 196
f 171 174 196
f 196 174 190
f 178 177 264
f 264 177 187
f 172 195 140
f 140 195 166
f 137 261 262
f 262 261 275
f 178 264 141
f 141 264 138
f 262 177 213
f 213 177 176
f 136 174 259
f 259 174 173
f 358 359 357
f 357 359 360
f 362 363 361
f 361 363 364
f 361 364 365
f 365 364 366
f 367 368 370
f 370 368 369
f 76 371 247
f 247 371 372
f 373 374 362
f 362 374 363
f 376 377 375
f 375 377 378
f 289 229 380
f 380 229 379
f 381 379 263
f 263 379 229
f 383 384 382
f 382 384 385
f 386 368 374
f 374 368 363
f 76 289 371
f 371 289 380
f 377 376 359
f 359 376 387
f 388 386 360
f 360 386 374
f 389 383 366
f 366 383 390
f 392 393 391
f 391 393 394
f 383 382 390
f 390 382 395
f 396 365 390
f 390 365 366
f 389 366 367
f 367 366 364
f 357 397 358
f 358 397 398
f 373 399 357
f 357 399 397
f 389 367 400
f 400 367 370
f 382 385 375
f 375 385 372
f 357 360 373
f 373 360 374
f 361 401 362
f 362 401 402
f 387 388 359
f 359 388 360
f 363 368 364
f 364 368 367
f 358 398 403
f 403 398 404
f 396 392 405
f 405 392 391
f 392 395 393
f 393 395 378
f 393 403 394
f 394 403 404
f 375 378 382
f 382 378 395
f 365 396 406
f 406 396 405
f 362 402 373
f 373 402 399
f 271 270 400
f 400 270 384
f 401 361 406
f 406 361 365
f 381 369 386
f 386 369 368
f 392 396 395
f 395 396 390
f 393 378 403
f 403 378 377
f 403 377 358
f 358 377 359
f 406 405 408
f 408 405 407
f 406 408 401
f 401 408 409
f 401 409 402
f 402 409 410
f 402 410 399
f 399 410 411
f 405 391 407
f 407 391 412
f 391 394 412
f 412 394 413
f 394 404 413
f 413 404 414
f 415 416 412
f 412 416 407
f 418 419 417
f 417 419 420
f 421 422 418
f 418 422 419
f 419 422 424
f 424 422 423
f 425 426 424
f 424 426 427
f 423 428 424
f 424 428 425
f 427 420 424
f 424 420 419
f 420 429 417
f 417 429 430
f 423 422 431
f 431 422 421
f 421 409 431
f 431 409 408
f 421 432 409
f 409 432 410
f 418 433 421
f 421 433 432
f 434 433 417
f 417 433 418
f 431 416 423
f 423 416 428
f 416 431 407
f 407 431 408
f 435 434 430
f 430 434 417
f 433 434 436
f 436 434 437
f 434 435 437
f 437 435 438
f 436 437 439
f 439 437 440
f 439 441 436
f 436 441 442
f 438 443 437
f 437 443 440
f 436 442 433
f 433 442 432
f 432 442 410
f 410 442 411
f 435 430 445
f 445 430 444
f 430 429 444
f 444 429 446
f 425 428 447
f 447 428 416
f 426 425 448
f 448 425 447
f 416 415 447
f 447 415 449
f 447 449 448
f 448 449 450
f 451 452 448
f 448 452 426
f 446 452 444
f 444 452 451
f 399 411 397
f 397 411 453
f 398 454 404
f 404 454 414
f 454 398 453
f 453 398 397
f 453 441 454
f 454 441 455
f 441 439 455
f 455 439 456
f 454 455 414
f 414 455 457
f 441 453 442
f 442 453 411
f 458 413 457
f 457 413 414
f 458 415 413
f 413 415 412
f 458 459 415
f 415 459 449
f 459 458 460
f 460 458 457
f 461 459 462
f 462 459 460
f 455 456 457
f 457 456 460
f 456 463 460
f 460 463 462
f 459 461 449
f 449 461 450
f 465 450 464
f 464 450 461
f 464 467 466
f 466 467 468
f 464 461 467
f 467 461 462
f 464 466 465
f 465 466 445
f 465 445 451
f 451 445 444
f 451 448 465
f 465 448 450
f 439 440 456
f 456 440 463
f 468 463 443
f 443 463 440
f 468 467 463
f 463 467 462
f 466 468 438
f 438 468 443
f 438 435 466
f 466 435 445
f 420 427 429
f 429 427 446
f 446 427 452
f 452 427 426
f 370 369 188
f 188 369 186
f 371 376 372
f 372 376 375
f 380 379 387
f 387 379 388
f 379 381 388
f 388 381 386
f 385 384 278
f 278 384 270
f 380 387 371
f 371 387 376
f 400 370 271
f 271 370 188
f 385 278 372
f 372 278 247
f 400 384 389
f 389 384 383
f 369 381 186
f 186 381 263
f 221 271 144
f 144 271 188
f 221 19 207
f 207 19 22
f 19 18 22
f 22 18 23
f 18 219 23
f 23 219 208
f 469 470 472
f 472 470 471
f 474 475 473
f 473 475 476
f 473 476 477
f 477 476 478
f 480 481 479
f 479 481 482
f 483 484 474
f 474 484 475
f 486 487 485
f 485 487 488
f 489 490 77
f 77 490 142
f 491 489 248
f 248 489 77
f 493 494 492
f 492 494 495
f 496 480 484
f 484 480 475
f 486 497 487
f 487 497 471
f 498 496 472
f 472 496 484
f 499 493 478
f 478 493 500
f 501 502 504
f 504 502 503
f 493 492 500
f 500 492 505
f 506 477 500
f 500 477 478
f 499 478 479
f 479 478 476
f 469 507 470
f 470 507 508
f 483 509 469
f 469 509 507
f 479 482 499
f 499 482 510
f 492 495 485
f 485 495 511
f 483 469 484
f 484 469 472
f 473 512 474
f 474 512 513
f 497 498 471
f 471 498 472
f 475 480 476
f 476 480 479
f 470 508 514
f 514 508 515
f 506 502 516
f 516 502 501
f 503 502 488
f 488 502 505
f 514 515 503
f 503 515 504
f 485 488 492
f 492 488 505
f 477 506 517
f 517 506 516
f 474 513 483
f 483 513 509
f 510 292 494
f 494 292 164
f 512 473 517
f 517 473 477
f 491 481 496
f 496 481 480
f 502 506 505
f 505 506 500
f 503 488 514
f 514 488 487
f 514 487 470
f 470 487 471
f 517 516 519
f 519 516 518
f 517 519 512
f 512 519 520
f 512 520 513
f 513 520 521
f 513 521 509
f 509 521 522
f 516 501 518
f 518 501 523
f 501 504 523
f 523 504 524
f 524 504 525
f 525 504 515
f 526 527 523
f 523 527 518
f 529 530 528
f 528 530 531
f 532 533 529
f 529 533 530
f 530 533 535
f 535 533 534
f 536 537 535
f 535 537 538
f 534 539 535
f 535 539 536
f 538 531 535
f 535 531 530
f 540 541 531
f 531 541 528
f 533 532 534
f 534 532 542
f 532 520 542
f 542 520 519
f 532 543 520
f 520 543 521
f 529 544 532
f 532 544 543
f 544 529 545
f 545 529 528
f 534 542 539
f 539 542 527
f 527 542 518
f 518 542 519
f 541 546 528
f 528 546 545
f 547 544 548
f 548 544 545
f 546 549 545
f 545 549 548
f 550 547 551
f 551 547 548
f 547 550 553
f 553 550 552
f 549 554 548
f 548 554 551
f 544 547 543
f 543 547 553
f 543 553 521
f 521 553 522
f 546 541 556
f 556 541 555
f 541 540 555
f 555 540 557
f 536 539 558
f 558 539 527
f 537 536 559
f 559 536 558
f 527 526 558
f 558 526 560
f 559 558 561
f 561 558 560
f 559 562 537
f 537 562 563
f 557 563 555
f 555 563 562
f 509 522 507
f 507 522 564
f 508 565 515
f 515 565 525
f 565 508 564
f 564 508 507
f 564 552 565
f 565 552 566
f 552 550 566
f 566 550 567
f 565 566 525
f 525 566 568
f 564 522 552
f 552 522 553
f 569 524 568
f 568 524 525
f 569 526 524
f 524 526 523
f 570 560 569
f 569 560 526
f 570 569 571
f 571 569 568
f 572 570 573
f 573 570 571
f 566 567 568
f 568 567 571
f 567 574 571
f 571 574 573
f 570 572 560
f 560 572 561
f 576 561 575
f 575 561 572
f 575 578 577
f 577 578 579
f 575 572 578
f 578 572 573
f 575 577 576
f 576 577 556
f 576 556 562
f 562 556 555
f 562 559 576
f 576 559 561
f 550 551 567
f 567 551 574
f 579 574 554
f 554 574 551
f 579 578 574
f 574 578 573
f 579 554 577
f 577 554 549
f 549 546 577
f 577 546 556
f 531 538 540
f 540 538 557
f 557 538 563
f 563 538 537
f 481 294 482
f 482 294 293
f 580 486 511
f 511 486 485
f 490 489 497
f 497 489 498
f 489 491 498
f 498 491 496
f 163 495 164
f 164 495 494
f 580 490 486
f 486 490 497
f 482 293 510
f 510 293 292
f 495 163 511
f 511 163 199
f 494 493 510
f 510 493 499
f 481 491 294
f 294 491 248
f 582 583 581
f 581 583 584
f 586 587 585
f 585 587 588
f 585 588 589
f 589 588 590
f 592 593 591
f 591 593 594
f 595 596 598
f 598 596 597
f 599 600 586
f 586 600 587
f 601 602 604
f 604 602 603
f 605 606 608
f 608 606 607
f 609 607 200
f 200 607 606
f 610 611 613
f 613 611 612
f 600 614 587
f 587 614 592
f 596 605 597
f 597 605 608
f 602 615 603
f 603 615 583
f 616 614 584
f 584 614 600
f 611 618 617
f 617 618 590
f 620 621 619
f 619 621 622
f 610 623 611
f 611 623 618
f 624 589 618
f 618 589 590
f 617 590 591
f 591 590 588
f 581 625 582
f 582 625 626
f 599 627 581
f 581 627 625
f 591 594 617
f 617 594 628
f 601 610 598
f 598 610 613
f 581 584 599
f 599 584 600
f 585 629 586
f 586 629 630
f 615 616 583
f 583 616 584
f 587 592 588
f 588 592 591
f 582 626 631
f 631 626 632
f 624 620 633
f 633 620 619
f 621 620 604
f 604 620 623
f 631 632 621
f 621 632 622
f 610 601 623
f 623 601 604
f 589 624 634
f 634 624 633
f 586 630 599
f 599 630 627
f 203 202 628
f 628 202 612
f 629 585 634
f 634 585 589
f 609 593 614
f 614 593 592
f 620 624 623
f 623 624 618
f 631 621 603
f 603 621 604
f 582 631 583
f 583 631 603
f 634 633 636
f 636 633 635
f 634 636 629
f 629 636 637
f 629 637 630
f 630 637 638
f 630 638 627
f 627 638 639
f 633 619 635
f 635 619 640
f 619 622 640
f 640 622 641
f 641 622 642
f 642 622 632
f 644 635 643
f 643 635 640
f 645 646 648
f 648 646 647
f 649 650 646
f 646 650 647
f 647 650 652
f 652 650 651
f 652 653 655
f 655 653 654
f 651 656 652
f 652 656 653
f 655 648 652
f 652 648 647
f 648 657 645
f 645 657 658
f 650 649 651
f 651 649 659
f 649 637 659
f 659 637 636
f 649 660 637
f 637 660 638
f 661 660 646
f 646 660 649
f 662 661 645
f 645 661 646
f 651 659 656
f 656 659 644
f 644 659 635
f 635 659 636
f 663 662 658
f 658 662 645
f 664 661 665
f 665 661 662
f 663 666 662
f 662 666 665
f 667 664 668
f 668 664 665
f 664 667 670
f 670 667 669
f 666 671 665
f 665 671 668
f 661 664 660
f 660 664 670
f 660 670 638
f 638 670 639
f 658 672 663
f 663 672 673
f 658 657 672
f 672 657 674
f 653 656 675
f 675 656 644
f 653 675 654
f 654 675 676
f 675 644 677
f 677 644 643
f 676 675 678
f 678 675 677
f 679 680 676
f 676 680 654
f 674 680 672
f 672 680 679
f 627 639 625
f 625 639 681
f 626 682 632
f 632 682 642
f 681 682 625
f 625 682 626
f 669 683 681
f 681 683 682
f 667 684 669
f 669 684 683
f 682 683 642
f 642 683 685
f 681 639 669
f 669 639 670
f 686 641 685
f 685 641 642
f 641 686 640
f 640 686 643
f 686 687 643
f 643 687 677
f 687 686 688
f 688 686 685
f 689 687 690
f 690 687 688
f 683 684 685
f 685 684 688
f 684 691 688
f 688 691 690
f 687 689 677
f 677 689 678
f 693 678 692
f 692 678 689
f 692 695 694
f 694 695 696
f 692 689 695
f 695 689 690
f 692 694 693
f 693 694 673
f 693 673 679
f 679 673 672
f 679 676 693
f 693 676 678
f 684 667 691
f 691 667 668
f 696 691 671
f 671 691 668
f 696 695 691
f 691 695 690
f 694 696 666
f 666 696 671
f 666 663 694
f 694 663 673
f 648 655 657
f 657 655 674
f 674 655 680
f 680 655 654
f 593 162 594
f 594 162 290
f 598 597 601
f 601 597 602
f 615 608 616
f 616 608 607
f 607 609 616
f 616 609 614
f 697 595 613
f 613 595 598
f 597 608 602
f 602 608 615
f 594 290 628
f 628 290 203
f 628 612 617
f 617 612 611
f 593 609 162
f 162 609 200
f 105 29 698
f 698 29 699
f 268 126 701
f 701 126 700
f 126 125 700
f 700 125 702
f 252 703 250
f 250 703 704
f 32 268 705
f 705 268 701
f 288 105 706
f 706 105 698
f 29 32 699
f 699 32 705
f 707 251 706
f 706 251 288
f 250 704 125
f 125 704 702
f 703 252 707
f 707 252 251
f 706 708 707
f 707 708 709
f 707 709 703
f 703 709 710
f 703 710 704
f 704 710 711
f 704 711 702
f 702 711 712
f 706 698 708
f 708 698 713
f 698 699 713
f 713 699 714
f 699 705 714
f 714 705 715
f 717 708 716
f 716 708 713
f 719 720 718
f 718 720 721
f 722 723 719
f 719 723 720
f 724 725 723
f 723 725 720
f 724 726 725
f 725 726 727
f 728 721 725
f 725 721 720
f 721 728 729
f 729 728 730
f 729 731 721
f 721 731 718
f 724 723 732
f 732 723 722
f 722 710 732
f 732 710 709
f 722 733 710
f 710 733 711
f 719 734 722
f 722 734 733
f 734 719 735
f 735 719 718
f 724 732 726
f 726 732 717
f 717 732 708
f 708 732 709
f 731 736 718
f 718 736 735
f 737 734 738
f 738 734 735
f 736 739 735
f 735 739 738
f 740 737 741
f 741 737 738
f 737 740 743
f 743 740 742
f 739 744 738
f 738 744 741
f 734 737 733
f 733 737 743
f 733 743 711
f 711 743 712
f 736 731 746
f 746 731 745
f 731 729 745
f 745 729 730
f 727 726 747
f 747 726 717
f 748 727 749
f 749 727 747
f 747 717 750
f 750 717 716
f 749 747 751
f 751 747 750
f 749 752 748
f 748 752 753
f 730 753 745
f 745 753 752
f 728 725 748
f 748 725 727
f 730 728 753
f 753 728 748
f 700 702 754
f 754 702 712
f 705 701 715
f 715 701 755
f 754 755 700
f 700 755 701
f 742 756 754
f 754 756 755
f 740 757 742
f 742 757 756
f 755 756 715
f 715 756 758
f 754 712 742
f 742 712 743
f 759 714 758
f 758 714 715
f 714 759 713
f 713 759 716
f 759 760 716
f 716 760 750
f 760 759 761
f 761 759 758
f 762 760 763
f 763 760 761
f 756 757 758
f 758 757 761
f 757 764 761
f 761 764 763
f 760 762 750
f 750 762 751
f 766 751 765
f 765 751 762
f 767 765 769
f 769 765 768
f 765 762 768
f 768 762 763
f 765 767 766
f 766 767 746
f 766 746 752
f 752 746 745
f 752 749 766
f 766 749 751
f 757 740 764
f 764 740 741
f 769 764 744
f 744 764 741
f 769 768 764
f 764 768 763
f 767 769 739
f 739 769 744
f 739 736 767
f 767 736 746
f 219 217 208
f 208 217 209
f 209 217 210
f 210 217 193
f 198 580 199
f 199 580 511
f 76 75 289
f 289 75 272
f 277 207 291
f 291 207 184
f 290 183 203
f 203 183 84
f 490 580 142
f 142 580 198
f 142 198 143
f 143 198 197
f 149 276 72
f 72 276 73
f 104 103 279
f 279 103 770
f 770 596 279
f 279 596 595
f 605 596 771
f 771 596 770
f 771 770 772
f 772 770 103
f 772 103 773
f 773 103 102
f 155 774 101
f 101 774 102
f 773 102 97
f 97 102 774
f 775 773 100
f 100 773 97
f 773 775 772
f 772 775 776
f 772 776 771
f 771 776 777
f 200 606 197
f 197 606 777
f 189 71 778
f 778 71 74
f 97 774 98
f 98 774 155
f 183 161 184
f 184 161 291
f 777 276 197
f 197 276 143
f 777 606 771
f 771 606 605
f 613 612 697
f 697 612 202
f 595 697 279
f 279 697 202
f 73 276 776
f 776 276 777
f 776 775 73
f 73 775 74
f 100 778 775
f 775 778 74
f 778 100 189
f 189 100 99
f 245 242 99
f 99 242 189
f 131 33 256
f 28 1 95
f 95 1 62
f 27 2 28
f 28 2 1
f 265 115 266
f 266 115 114
f 95 62 69
f 69 62 64
f 62 61 64
f 64 61 65
f 61 13 65
f 65 13 130
f 13 12 130
f 130 12 14
f 31 11 32
f 32 11 268
f 15 12 31
f 31 12 11
f 31 30 15
f 15 30 231
f 30 106 231
f 231 106 232
f 287 237 106
f 106 237 232
f 254 90 287
f 287 90 237
f 253 44 254
f 254 44 90
f 253 249 44
f 44 249 7
f 267 127 268
f 268 127 126
f 10 3 241
f 241 3 116
f 3 2 116
f 116 2 114
f 2 27 114
f 114 27 266
f 27 26 266
f 266 26 113
f 26 286 113
f 113 286 110
f 286 243 110
f 110 243 255
f 243 242 255
f 255 242 256
f 242 245 256
f 256 245 131
f 245 244 131
f 131 244 132
f 265 37 115
f 115 37 41
f 41 37 42
f 42 37 40
f 92 91 40
f 40 91 42
f 236 233 92
f 92 233 91
f 191 194 236
f 236 194 233
f 258 285 244
f 244 285 132
f 257 55 258
f 258 55 285
f 257 154 201
f 201 154 185
f 56 201 204
f 204 201 180
f 55 257 56
f 56 257 201
f 204 85 56
f 56 85 52
f 86 122 53
f 53 122 79
f 212 215 86
f 86 215 122
f 211 216 212
f 212 216 215
f 192 280 211
f 211 280 216
f 191 240 192
f 192 240 280
f 249 124 7
f 7 124 8
f 124 127 8
f 8 127 241
f 127 267 241
f 241 267 10
f 10 267 9
f 9 267 11
o hand_right
v 0.158114 0.027659 0.528471
v 0.159534 0.036873 0.521805
v 0.154486 0.028692 0.517288
v 0.154865 0.019512 0.524481
v 0.159502 0.042905 0.499916
v 0.167920 0.041995 0.491607
v 0.159549 0.029091 0.491517
v 0.152821 0.032021 0.498305
v 0.153542 0.011989 0.522181
v 0.150632 0.021356 0.514570
v 0.156729 0.007762 0.521073
v 0.164514 0.000328 0.531068
v 0.158692 0.004040 0.529902
v 0.165984 -0.004546 0.538486
v 0.175239 0.003428 0.532505
v 0.172315 -0.002536 0.545676
v 0.182519 0.024359 0.552916
v 0.179503 0.035525 0.559718
v 0.171463 0.024145 0.569656
v 0.174680 0.014037 0.560978
v 0.165445 0.043773 0.573256
v 0.168415 0.032434 0.571978
v 0.177450 0.043751 0.562723
v 0.174254 0.053334 0.564239
v 0.159757 0.042234 0.534591
v 0.162557 0.050868 0.528972
v 0.162811 0.045712 0.527097
v 0.160244 0.037389 0.532244
v 0.160470 0.004160 0.510438
v 0.172058 0.007472 0.515053
v 0.165576 0.005716 0.519901
v 0.155069 0.005675 0.511918
v 0.164015 0.076786 0.516340
v 0.174770 0.083904 0.512156
v 0.177389 0.079507 0.509179
v 0.167348 0.073899 0.514044
v 0.179230 0.060468 0.497369
v 0.186399 0.066994 0.499204
v 0.198991 0.063458 0.495987
v 0.194027 0.054872 0.495935
v 0.173018 0.051229 0.493951
v 0.185538 0.046671 0.492148
v 0.178355 0.037028 0.490262
v 0.167655 0.024712 0.490119
v 0.171762 0.093136 0.520513
v 0.163112 0.089428 0.524433
v 0.132282 -0.028335 0.557900
v 0.129003 -0.023830 0.559928
v 0.131626 -0.022010 0.559012
v 0.134430 -0.026861 0.557300
v 0.175590 0.095692 0.540206
v 0.183514 0.093424 0.546005
v 0.185441 0.098980 0.541789
v 0.178984 0.100008 0.535068
v 0.171100 0.089882 0.546926
v 0.180497 0.085387 0.551248
v 0.135647 -0.036051 0.567555
v 0.135137 -0.035474 0.562473
v 0.139314 -0.033940 0.563136
v 0.140279 -0.033594 0.568378
v 0.155974 0.010783 0.530528
v 0.155444 0.019618 0.533363
v 0.150275 -0.001897 0.542621
v 0.152879 0.007522 0.540013
v 0.156254 0.002840 0.535885
v 0.155081 -0.004664 0.539448
v 0.149663 0.028826 0.549843
v 0.154905 0.036798 0.543099
v 0.155929 0.030712 0.540889
v 0.150161 0.020761 0.546851
v 0.149128 0.048805 0.547698
v 0.144834 0.039986 0.554226
v 0.142141 0.047879 0.556025
v 0.144845 0.052798 0.550493
v 0.139397 0.022650 0.564175
v 0.137420 0.017441 0.568393
v 0.136233 0.019074 0.569617
v 0.138675 0.025756 0.565258
v 0.188447 0.104099 0.538027
v 0.182888 0.103407 0.530027
v 0.156121 0.063130 0.575106
v 0.150848 0.071400 0.569995
v 0.142499 0.064989 0.577692
v 0.150621 0.057750 0.581706
v 0.190983 0.086511 0.547937
v 0.193061 0.093587 0.545491
v 0.134199 -0.033423 0.572923
v 0.138624 -0.030723 0.573646
v 0.189243 0.032954 0.497161
v 0.175528 0.019834 0.494377
v 0.198303 0.044534 0.499769
v 0.204163 0.053121 0.502420
v 0.209071 0.060256 0.501663
v 0.149072 0.009085 0.545319
v 0.157276 0.028537 0.535550
v 0.158355 0.046631 0.536486
v 0.142335 0.069944 0.548273
v 0.146751 0.076715 0.541598
v 0.147968 0.066527 0.538588
v 0.144326 0.062684 0.545493
v 0.142868 0.073170 0.564347
v 0.138742 0.068706 0.559232
v 0.134966 0.063350 0.564667
v 0.137412 0.067019 0.570692
v 0.164821 0.002969 0.504485
v 0.177011 0.009726 0.509897
v 0.168719 0.094921 0.532220
v 0.173749 0.097359 0.526814
v 0.180137 0.101492 0.523071
v 0.163366 0.063081 0.521523
v 0.169591 0.071921 0.512342
v 0.170623 0.068345 0.510174
v 0.164886 0.060471 0.521063
v 0.160625 0.046816 0.513620
v 0.165667 0.054461 0.504099
v 0.154043 0.037867 0.509533
v 0.181956 0.074740 0.504294
v 0.184019 0.085470 0.504133
v 0.188802 0.079279 0.499825
v 0.181006 0.092513 0.510243
v 0.179339 0.098257 0.516842
v 0.197918 0.100332 0.544182
v 0.193756 0.072914 0.497339
v 0.148703 0.023622 0.498246
v 0.145551 0.015882 0.497183
v 0.144745 0.014129 0.504843
v 0.147002 0.021651 0.506565
v 0.164737 -0.010650 0.546073
v 0.159151 -0.008936 0.540961
v 0.161147 -0.001787 0.534269
v 0.156685 0.073785 0.524764
v 0.156070 0.084744 0.531149
v 0.146733 -0.000505 0.548199
v 0.144749 -0.030572 0.567805
v 0.143406 -0.031307 0.562027
v 0.155837 -0.020575 0.554396
v 0.157691 -0.019917 0.560995
v 0.145197 -0.003636 0.558760
v 0.144976 -0.004139 0.552017
v 0.144202 -0.005665 0.554638
v 0.142608 -0.004852 0.560927
v 0.134374 0.028118 0.569663
v 0.136613 0.033984 0.566090
v 0.163989 0.004710 0.567576
v 0.171941 -0.002939 0.559964
v 0.176477 0.005012 0.553387
v 0.147600 0.035623 0.552073
v 0.142566 0.029092 0.558489
v 0.141355 0.032662 0.560061
v 0.146864 0.008816 0.549669
v 0.144900 0.002074 0.553388
v 0.145197 0.007597 0.555062
v 0.146631 0.014015 0.551825
v 0.158863 0.078720 0.562591
v 0.149311 0.080933 0.556354
v 0.134184 -0.032608 0.558897
v 0.137240 -0.031292 0.558860
v 0.152788 0.043273 0.545413
v 0.182035 0.015317 0.545512
v 0.156376 0.051368 0.538291
v 0.145862 0.039648 0.582598
v 0.138464 0.041128 0.579172
v 0.134903 0.036358 0.579954
v 0.138812 0.034405 0.584297
v 0.133369 -0.013956 0.567958
v 0.131830 -0.015492 0.562666
v 0.129852 -0.018197 0.563651
v 0.130337 -0.017407 0.569502
v 0.147388 -0.006845 0.547398
v 0.151836 -0.010247 0.544167
v 0.147878 -0.013728 0.548228
v 0.145132 -0.009440 0.551271
v 0.156356 -0.014376 0.546467
v 0.152382 -0.018026 0.549683
v 0.136743 -0.015948 0.573201
v 0.141100 -0.021712 0.575474
v 0.152569 -0.010681 0.569800
v 0.145691 -0.007434 0.567513
v 0.183641 0.062456 0.556666
v 0.178120 0.071863 0.558788
v 0.168724 0.063007 0.566551
v 0.159907 0.054734 0.575201
v 0.151305 0.046321 0.581948
v 0.158374 0.036449 0.581861
v 0.165239 0.070387 0.566588
v 0.150880 0.000222 0.564703
v 0.159563 -0.003336 0.565832
v 0.156800 0.001257 0.567687
v 0.152093 0.057126 0.540186
v 0.140671 -0.029232 0.557623
v 0.211557 0.058588 0.523099
v 0.209717 0.066927 0.533369
v 0.205279 0.059723 0.535438
v 0.206686 0.050248 0.523705
v 0.133192 -0.019873 0.557530
v 0.136556 -0.024887 0.555248
v 0.133174 0.038829 0.568484
v 0.131746 0.032978 0.571577
v 0.130923 0.034530 0.574631
v 0.129793 0.040942 0.571515
v 0.175649 0.077272 0.558380
v 0.134983 0.060962 0.579709
v 0.143108 0.054617 0.584141
v 0.186506 0.079195 0.551945
v 0.191835 0.071138 0.550550
v 0.197482 0.077843 0.546441
v 0.157845 0.021177 0.579387
v 0.185939 0.054232 0.555440
v 0.193975 0.064083 0.548605
v 0.200848 0.071751 0.543617
v 0.205886 0.077690 0.540859
v 0.201520 0.083779 0.544075
v 0.143279 -0.026833 0.572875
v 0.135620 -0.025521 0.577068
v 0.207052 0.090703 0.542761
v 0.211290 0.083561 0.538656
v 0.196495 0.056051 0.544941
v 0.198512 0.046375 0.539405
v 0.188471 0.046859 0.551607
v 0.189985 0.036548 0.546762
v 0.166033 0.014522 0.576743
v 0.118502 -0.029459 0.573863
v 0.127763 -0.023555 0.575059
v 0.126671 -0.020393 0.570292
v 0.117474 -0.026036 0.571401
v 0.132371 -0.019802 0.574556
v 0.131005 -0.028214 0.576171
v 0.189546 0.025618 0.536826
v 0.144074 0.002568 0.559083
v 0.197664 0.035181 0.525662
v 0.183893 0.011779 0.526604
v 0.188446 0.019484 0.517151
v 0.205342 0.044277 0.512173
v 0.196301 0.030370 0.508116
v 0.214082 0.060534 0.510967
v 0.209753 0.052934 0.512979
v 0.184698 0.019217 0.503645
v 0.122455 -0.029980 0.558141
v 0.120243 -0.025473 0.561078
v 0.216363 0.065110 0.521033
v 0.149740 0.028787 0.507699
v 0.155974 0.062773 0.531745
v 0.159051 0.058158 0.530813
v 0.150163 0.080161 0.537499
v 0.151953 0.069607 0.532481
v 0.124550 -0.034966 0.558521
v 0.137451 0.014873 0.573385
v 0.138987 0.016231 0.573434
v 0.154152 0.021966 0.491526
v 0.150424 0.015654 0.491133
v 0.160436 0.006898 0.491518
v 0.155519 0.011506 0.488954
v 0.161499 0.017791 0.489529
v 0.167296 0.013300 0.492487
v 0.161686 0.065041 0.522125
v 0.159439 0.067958 0.523546
v 0.165155 0.084961 0.554367
v 0.155399 0.086310 0.548409
v 0.160700 -0.015457 0.551250
v 0.168930 -0.009221 0.553471
v 0.163218 -0.014028 0.557706
v 0.157853 -0.015091 0.566160
v 0.145668 -0.000348 0.562618
v 0.149441 -0.003411 0.563646
v 0.168149 0.061796 0.507880
v 0.164434 0.054643 0.518696
v 0.149378 0.016226 0.512580
v 0.148035 0.010155 0.510733
v 0.145875 0.021776 0.554161
v 0.149505 0.012644 0.580310
v 0.156367 0.007324 0.577777
v 0.142981 0.015010 0.559380
v 0.124552 -0.039755 0.565598
v 0.124919 -0.037997 0.560922
v 0.164032 -0.009561 0.562972
v 0.138070 0.040218 0.561481
v 0.149623 0.020158 0.580891
v 0.142227 0.014134 0.579056
v 0.133313 0.063338 0.572434
v 0.214684 0.073538 0.530362
v 0.126334 -0.020202 0.564550
v 0.118729 -0.023238 0.565444
v 0.120882 -0.033071 0.574315
v 0.124060 -0.037483 0.571403
v 0.161212 0.089870 0.539905
v 0.160769 0.054850 0.530398
v 0.174398 0.011498 0.500341
v 0.164049 0.004177 0.497646
v 0.141499 0.011292 0.562651
v 0.142650 0.046377 0.582213
v 0.150262 0.031628 0.584868
v 0.142312 0.026763 0.587472
v 0.142200 0.019459 0.585210
v 0.139580 0.015090 0.579856
v 0.115249 -0.034417 0.572926
v 0.118327 -0.038970 0.570089
v 0.119252 -0.041078 0.564253
v 0.120353 -0.039330 0.560006
v 0.120987 -0.035427 0.557979
v 0.112963 -0.030511 0.572217
v 0.112559 -0.027372 0.569690
v 0.115641 -0.024332 0.565104
v 0.108695 -0.030292 0.569645
v 0.107378 -0.035488 0.569247
v 0.107239 -0.041051 0.556295
v 0.111129 -0.041845 0.560825
v 0.108337 -0.041475 0.561181
v 0.104452 -0.040890 0.558001
v 0.099640 -0.040278 0.556045
v 0.102197 -0.040465 0.553596
v 0.108772 -0.039738 0.565560
v 0.103053 -0.038769 0.561897
v 0.101833 -0.035489 0.564286
v 0.096984 -0.035554 0.561446
v 0.097823 -0.038589 0.559364
v 0.105645 -0.036599 0.566820
v 0.110863 -0.040188 0.567145
v 0.097767 -0.039023 0.553183
v 0.096786 -0.039733 0.555399
v 0.095210 -0.037924 0.557698
v 0.093975 -0.036433 0.555323
v 0.115900 -0.039710 0.557947
v 0.108408 -0.039745 0.554319
v 0.103048 -0.037763 0.552167
v 0.098583 -0.036576 0.551988
v 0.107944 -0.035864 0.552947
v 0.103393 -0.034822 0.551967
v 0.099603 -0.033406 0.552086
v 0.106993 -0.031645 0.553214
v 0.102952 -0.031705 0.552672
v 0.117432 -0.031578 0.557162
v 0.118467 -0.035709 0.556874
v 0.100425 -0.031408 0.552213
v 0.094340 -0.034382 0.554524
v 0.102765 -0.032376 0.566081
v 0.097251 -0.032342 0.561557
v 0.103108 -0.030000 0.565598
v 0.097435 -0.029978 0.561517
v 0.093608 -0.033322 0.559072
v 0.094758 -0.035577 0.559465
v 0.120333 -0.030278 0.558386
v 0.118016 -0.025685 0.561523
v 0.115539 -0.026572 0.560492
v 0.105773 -0.027708 0.555798
v 0.112913 -0.024983 0.563685
v 0.108763 -0.027239 0.567106
v 0.102953 -0.027790 0.563496
v 0.103906 -0.026380 0.560440
v 0.098737 -0.028257 0.560099
v 0.100177 -0.027765 0.558034
v 0.101699 -0.028793 0.554585
v 0.096335 -0.029523 0.557028
v 0.094414 -0.031369 0.558336
v 0.096514 -0.031807 0.553987
v 0.097988 -0.028680 0.556414
v 0.098806 -0.030448 0.554088
v 0.116996 -0.008963 0.568298
v 0.114241 -0.003888 0.571156
v 0.118661 -0.004104 0.572331
v 0.120722 -0.008474 0.569916
v 0.118390 -0.019293 0.577890
v 0.118555 -0.017063 0.572031
v 0.123513 -0.017053 0.574346
v 0.123459 -0.017823 0.581039
v 0.116701 -0.016431 0.584108
v 0.122119 -0.014231 0.586614
v 0.129231 -0.015686 0.581061
v 0.128572 -0.014715 0.573978
v 0.145344 -0.003236 0.568514
v 0.147387 -0.003743 0.575108
v 0.135156 0.011640 0.569443
v 0.134979 0.011651 0.573371
v 0.117993 -0.012914 0.568903
v 0.122265 -0.012939 0.570765
v 0.119475 0.002578 0.578443
v 0.119777 0.001206 0.573160
v 0.116590 -0.000587 0.575035
v 0.115524 -0.000307 0.580475
v 0.141052 0.002338 0.563615
v 0.138313 0.007561 0.566188
v 0.142920 -0.000827 0.565035
v 0.120748 0.000672 0.584771
v 0.123690 -0.004095 0.588771
v 0.141397 0.005971 0.584338
v 0.136895 0.009691 0.581565
v 0.126604 -0.011733 0.569769
v 0.121301 -0.002945 0.569487
v 0.123850 -0.007219 0.567788
v 0.127960 -0.010712 0.586533
v 0.117664 -0.007777 0.588546
v 0.099630 -0.008306 0.579303
v 0.110212 -0.004785 0.583935
v 0.110352 -0.001836 0.579609
v 0.099130 -0.004693 0.575819
v 0.115584 -0.002879 0.585590
v 0.112497 -0.009925 0.585934
v 0.103449 -0.009675 0.563627
v 0.100987 -0.004686 0.566743
v 0.104532 -0.014148 0.563642
v 0.146302 0.000254 0.581389
v 0.106022 -0.020352 0.571892
v 0.105669 -0.017592 0.565909
v 0.112070 -0.000913 0.574863
v 0.099269 -0.003117 0.571167
v 0.101081 -0.012520 0.580375
v 0.105139 -0.018209 0.578261
v 0.095976 -0.013850 0.577389
v 0.098952 -0.018901 0.575027
v 0.100459 -0.020924 0.568955
v 0.101387 -0.017888 0.564121
v 0.101421 -0.014220 0.562540
v 0.094574 -0.009813 0.576574
v 0.094457 -0.005967 0.573723
v 0.096859 -0.004106 0.569713
v 0.088910 -0.008793 0.571839
v 0.088443 -0.013371 0.571963
v 0.085361 -0.017834 0.554464
v 0.089655 -0.018997 0.558483
v 0.087700 -0.019108 0.560237
v 0.083646 -0.018018 0.556702
v 0.092599 -0.020781 0.563709
v 0.090211 -0.019997 0.564000
v 0.089129 -0.017985 0.568056
v 0.085260 -0.016540 0.563516
v 0.084170 -0.012853 0.566456
v 0.079668 -0.012328 0.562972
v 0.080429 -0.016126 0.560085
v 0.086990 -0.014920 0.569132
v 0.080586 -0.016879 0.555143
v 0.080428 -0.015572 0.552924
v 0.091198 -0.019079 0.570179
v 0.097925 -0.018619 0.562081
v 0.091155 -0.017254 0.556390
v 0.086150 -0.015270 0.552578
v 0.080560 -0.012633 0.552094
v 0.091490 -0.013265 0.555052
v 0.086292 -0.012043 0.552220
v 0.081618 -0.010143 0.552467
v 0.091051 -0.008542 0.555361
v 0.085718 -0.007962 0.553170
v 0.099500 -0.009642 0.561698
v 0.099692 -0.014344 0.560712
v 0.083077 -0.008305 0.553044
v 0.076820 -0.013816 0.555638
v 0.077449 -0.010822 0.554211
v 0.077695 -0.014851 0.556938
v 0.084005 -0.010860 0.567226
v 0.079520 -0.010088 0.562689
v 0.084094 -0.008017 0.566905
v 0.079294 -0.007820 0.561812
v 0.076474 -0.010656 0.559132
v 0.076801 -0.012325 0.559345
v 0.100865 -0.009963 0.563437
v 0.098936 -0.005539 0.566392
v 0.097801 -0.005256 0.564846
v 0.089174 -0.004795 0.558615
v 0.095034 -0.003860 0.568438
v 0.090632 -0.005716 0.570574
v 0.085189 -0.005571 0.565880
v 0.086754 -0.003891 0.562588
v 0.079808 -0.005704 0.561467
v 0.082536 -0.004456 0.560174
v 0.084680 -0.005106 0.555907
v 0.077286 -0.006902 0.557738
v 0.076436 -0.009022 0.558421
v 0.078765 -0.009006 0.554101
v 0.079864 -0.005405 0.557508
v 0.081190 -0.006905 0.554444
v 0.114244 0.011446 0.574159
v 0.112607 0.016981 0.574462
v 0.115882 0.017734 0.575273
v 0.117428 0.012249 0.575406
v 0.112983 0.006115 0.585770
v 0.113682 0.005364 0.580912
v 0.117948 0.006223 0.582598
v 0.118523 0.007332 0.587913
v 0.109717 0.009694 0.588789
v 0.116952 0.011712 0.591921
v 0.123900 0.008992 0.588933
v 0.122169 0.007380 0.583258
v 0.135607 0.013636 0.580894
v 0.136491 0.015809 0.587107
v 0.114253 0.007751 0.576867
v 0.117677 0.008481 0.578100
v 0.115283 0.024960 0.579696
v 0.116230 0.022203 0.575785
v 0.113706 0.021928 0.577850
v 0.112338 0.023372 0.581813
v 0.133868 0.018886 0.571596
v 0.132594 0.024898 0.572184
v 0.134169 0.015049 0.575166
v 0.115867 0.024604 0.586381
v 0.118849 0.021050 0.592044
v 0.131078 0.028979 0.588013
v 0.129270 0.031438 0.582638
v 0.120944 0.008885 0.578412
v 0.118361 0.017840 0.573517
v 0.119875 0.012442 0.574296
v 0.122622 0.014514 0.592005
v 0.113426 0.017953 0.591657
v 0.093398 0.015648 0.581157
v 0.107791 0.020716 0.586592
v 0.108848 0.022399 0.580975
v 0.094051 0.018108 0.577477
v 0.111476 0.022285 0.587402
v 0.108244 0.015992 0.589792
v 0.100066 0.009426 0.568452
v 0.098735 0.014653 0.569699
v 0.101166 0.005916 0.570980
v 0.135056 0.022009 0.590507
v 0.129531 0.030872 0.576077
v 0.098994 0.003023 0.577631
v 0.100585 0.003777 0.573606
v 0.110624 0.021096 0.577273
v 0.096047 0.018179 0.573247
v 0.094656 0.011556 0.583508
v 0.097451 0.006051 0.582643
v 0.089679 0.011027 0.580642
v 0.092307 0.005491 0.579542
v 0.094054 0.002315 0.574891
v 0.096134 0.003400 0.571055
v 0.097114 0.005684 0.568622
v 0.088883 0.015218 0.578238
v 0.089984 0.017319 0.575055
v 0.094397 0.017332 0.572311
v 0.085518 0.015467 0.575205
v 0.083839 0.010352 0.576232
v 0.079472 0.003265 0.561544
v 0.083968 0.003035 0.565233
v 0.083148 0.003425 0.566090
v 0.078319 0.003401 0.562829
v 0.087621 0.002445 0.570900
v 0.085774 0.003081 0.570412
v 0.084618 0.005293 0.573456
v 0.079721 0.005827 0.569292
v 0.079478 0.011618 0.570856
v 0.075741 0.011065 0.567291
v 0.075432 0.005710 0.565861
v 0.082968 0.009366 0.574473
v 0.075472 0.004196 0.561484
v 0.075576 0.003198 0.559800
v 0.086244 0.005085 0.575387
v 0.091552 0.002645 0.567963
v 0.085841 0.003291 0.562969
v 0.081415 0.003520 0.558969
v 0.077586 0.005237 0.557474
v 0.087397 0.006202 0.561050
v 0.082839 0.006220 0.558063
v 0.079337 0.007649 0.556737
v 0.087864 0.009431 0.560487
v 0.083567 0.009399 0.558115
v 0.095621 0.009347 0.566316
v 0.094187 0.005458 0.566514
v 0.080534 0.009585 0.557196
v 0.072619 0.006602 0.561411
v 0.074154 0.009509 0.558737
v 0.073656 0.006362 0.562808
v 0.079961 0.013351 0.571371
v 0.075183 0.013302 0.566725
v 0.081088 0.015750 0.570317
v 0.076352 0.015534 0.565666
v 0.072678 0.011147 0.563947
v 0.073168 0.010164 0.564484
v 0.097734 0.009572 0.567943
v 0.096774 0.014371 0.569279
v 0.094978 0.013988 0.567669
v 0.086817 0.013928 0.561357
v 0.092690 0.017113 0.570487
v 0.086889 0.017279 0.572191
v 0.082784 0.016902 0.567734
v 0.084521 0.016600 0.564359
v 0.078314 0.016451 0.563885
v 0.080747 0.015931 0.562474
v 0.082829 0.013380 0.558858
v 0.076237 0.014169 0.561109
v 0.073785 0.013215 0.562483
v 0.076729 0.011125 0.557764
v 0.078547 0.014550 0.560197
v 0.079047 0.012188 0.557747
v 0.130866 0.028899 0.573409
v 0.110137 0.035596 0.573402
v 0.109064 0.039496 0.572397
v 0.110600 0.040647 0.573435
v 0.112697 0.036923 0.573916
v 0.109851 0.033971 0.584601
v 0.110258 0.032265 0.580248
v 0.114368 0.033169 0.581793
v 0.114169 0.034924 0.585985
v 0.108300 0.038315 0.586814
v 0.112217 0.039668 0.587887
v 0.117860 0.036403 0.586113
v 0.118117 0.034550 0.581757
v 0.132737 0.040480 0.579552
v 0.134266 0.044026 0.583564
v 0.128230 0.059555 0.573350
v 0.129224 0.056945 0.568404
v 0.122071 0.052839 0.571719
v 0.122422 0.055912 0.575623
v 0.110415 0.033163 0.576365
v 0.114079 0.033949 0.576894
v 0.110022 0.049547 0.578097
v 0.110807 0.046467 0.574401
v 0.109199 0.044557 0.574024
v 0.107426 0.047794 0.576909
v 0.129484 0.051447 0.567114
v 0.130420 0.046572 0.568485
v 0.126791 0.044697 0.569189
v 0.122826 0.048090 0.570100
v 0.128815 0.040464 0.572931
v 0.110489 0.049741 0.582383
v 0.112579 0.046850 0.587224
v 0.127587 0.056424 0.584322
v 0.125180 0.057460 0.580053
v 0.116331 0.034701 0.577507
v 0.112541 0.042249 0.573148
v 0.113879 0.038015 0.574038
v 0.115993 0.041331 0.588673
v 0.109099 0.045054 0.586149
v 0.097403 0.044326 0.577797
v 0.104961 0.047295 0.580454
v 0.105665 0.046810 0.575622
v 0.098084 0.044332 0.574744
v 0.107296 0.048015 0.581444
v 0.105453 0.043834 0.584930
v 0.102649 0.033665 0.570724
v 0.101580 0.038787 0.570289
v 0.102855 0.031372 0.573058
v 0.132603 0.050085 0.586151
v 0.101058 0.031570 0.580298
v 0.101896 0.030204 0.576178
v 0.107363 0.043297 0.573035
v 0.099742 0.042466 0.571892
v 0.097549 0.041664 0.581357
v 0.099538 0.036205 0.583295
v 0.093625 0.040065 0.579499
v 0.095879 0.034564 0.581134
v 0.097537 0.030012 0.577487
v 0.099389 0.029669 0.574246
v 0.100363 0.030843 0.571452
v 0.093847 0.042954 0.576088
v 0.095100 0.043166 0.573238
v 0.097581 0.041708 0.570718
v 0.090270 0.041506 0.574201
v 0.088707 0.037595 0.576499
v 0.086061 0.027903 0.567479
v 0.089426 0.028339 0.569755
v 0.088726 0.028800 0.570644
v 0.085433 0.027714 0.568398
v 0.092646 0.029257 0.573974
v 0.091054 0.029840 0.573950
v 0.090521 0.032592 0.576202
v 0.086397 0.031392 0.573169
v 0.084534 0.036396 0.572745
v 0.081473 0.034854 0.570396
v 0.083219 0.030514 0.571250
v 0.087830 0.035856 0.575920
v 0.082759 0.027602 0.567783
v 0.082362 0.027169 0.566525
v 0.091716 0.032755 0.577651
v 0.095885 0.028884 0.571401
v 0.090244 0.027989 0.567423
v 0.085744 0.027529 0.565193
v 0.082124 0.028323 0.564561
v 0.091847 0.029419 0.565945
v 0.086511 0.028690 0.563301
v 0.083035 0.029635 0.562780
v 0.092773 0.032246 0.564398
v 0.087365 0.031112 0.562550
v 0.098580 0.033818 0.567720
v 0.097586 0.030668 0.569184
v 0.084210 0.031019 0.562581
v 0.079718 0.029739 0.567706
v 0.080078 0.030873 0.564992
v 0.080270 0.029902 0.569140
v 0.084647 0.037765 0.572373
v 0.080965 0.036016 0.569373
v 0.085426 0.039623 0.570761
v 0.081480 0.036997 0.567480
v 0.079154 0.033342 0.567893
v 0.080050 0.032671 0.569379
v 0.100334 0.033906 0.569013
v 0.099725 0.038080 0.569255
v 0.097662 0.038007 0.567941
v 0.092102 0.036159 0.564368
v 0.095353 0.041448 0.569548
v 0.092469 0.042412 0.572002
v 0.087072 0.040135 0.568556
v 0.089318 0.039292 0.566082
v 0.082553 0.037081 0.565536
v 0.084906 0.036519 0.563647
v 0.086892 0.034304 0.562384
v 0.080950 0.033898 0.564257
v 0.079643 0.033711 0.565636
v 0.081332 0.031795 0.563546
v 0.082598 0.034079 0.563167
v 0.083356 0.032750 0.562682
v 0.128392 0.059117 0.577522
v 0.152824 -0.005497 0.501485
v 0.149787 -0.003844 0.505924
v 0.137540 0.004862 0.499255
v 0.139750 0.001547 0.505114
v 0.138632 0.005313 0.492532
v 0.147131 0.001309 0.486793
v 0.142868 0.004639 0.488474
v 0.144378 -0.001598 0.507412
v 0.154407 -0.005286 0.495601
v 0.152498 -0.002436 0.489105
v 0.149913 -0.012828 0.495423
v 0.147447 -0.009905 0.488340
v 0.142181 -0.006380 0.485273
v 0.137820 -0.001051 0.487678
v 0.134867 0.001150 0.491210
v 0.148152 -0.010319 0.502065
v 0.145197 -0.007855 0.506003
v 0.140205 -0.003683 0.506891
v 0.141586 -0.014930 0.504084
v 0.135139 -0.020967 0.499154
v 0.118291 -0.020516 0.489527
v 0.123316 -0.015922 0.488780
v 0.124538 -0.018418 0.489582
v 0.119984 -0.022578 0.489677
v 0.128860 -0.014898 0.488329
v 0.128573 -0.016839 0.489762
v 0.132209 -0.018970 0.492962
v 0.127768 -0.022604 0.493195
v 0.132723 -0.021083 0.497659
v 0.129453 -0.023355 0.499130
v 0.123539 -0.026311 0.493563
v 0.118530 -0.026288 0.490498
v 0.119722 -0.029215 0.493982
v 0.115736 -0.024939 0.491383
v 0.134401 -0.019954 0.491470
v 0.130183 -0.007944 0.487531
v 0.122594 -0.012250 0.489270
v 0.116784 -0.017436 0.491179
v 0.114338 -0.022810 0.493471
v 0.121576 -0.009166 0.492450
v 0.116998 -0.014640 0.494668
v 0.115263 -0.019591 0.497274
v 0.121893 -0.008030 0.497296
v 0.118163 -0.013889 0.498494
v 0.131653 -0.000196 0.497156
v 0.130438 -0.002139 0.490921
v 0.116790 -0.017919 0.499080
v 0.117173 -0.029564 0.495373
v 0.115751 -0.027096 0.497815
v 0.130769 -0.022765 0.502310
v 0.125737 -0.027286 0.499422
v 0.125551 -0.026291 0.502370
v 0.131587 -0.020247 0.505431
v 0.124958 -0.024635 0.504698
v 0.121086 -0.029334 0.500251
v 0.122531 -0.029381 0.497731
v 0.134421 0.002221 0.497420
v 0.136854 0.000369 0.503347
v 0.134420 -0.001806 0.503104
v 0.124885 -0.009215 0.503251
v 0.136751 -0.005961 0.507044
v 0.139736 -0.011263 0.506905
v 0.130369 -0.017194 0.507364
v 0.128068 -0.012953 0.506935
v 0.123580 -0.021374 0.505699
v 0.122448 -0.018550 0.505113
v 0.119761 -0.015445 0.502367
v 0.119415 -0.023660 0.503301
v 0.120111 -0.027153 0.502518
v 0.116286 -0.023044 0.500252
v 0.119773 -0.020871 0.503391
v 0.117718 -0.019783 0.501310
v 0.132516 0.059800 0.566638
v 0.133058 0.053690 0.564099
v 0.135375 0.058461 0.561408
v 0.138403 0.064006 0.555299
v 0.142369 0.073557 0.553267
v 0.140899 0.058134 0.552636
v 0.137458 0.052679 0.559356
v 0.134368 0.045843 0.564237
v 0.147686 0.057370 0.545170
f 780 781 779
f 779 781 782
f 783 784 786
f 786 784 785
f 787 782 788
f 788 782 781
f 790 791 789
f 789 791 787
f 792 790 794
f 794 790 793
f 796 797 795
f 795 797 798
f 800 801 799
f 799 801 802
f 804 805 803
f 803 805 806
f 808 809 807
f 807 809 810
f 811 812 814
f 814 812 813
f 815 816 818
f 818 816 817
f 819 820 784
f 784 820 821
f 784 821 785
f 785 821 822
f 823 812 824
f 824 812 811
f 826 827 825
f 825 827 828
f 830 831 829
f 829 831 832
f 834 830 833
f 833 830 829
f 836 837 835
f 835 837 838
f 839 840 782
f 782 840 779
f 842 843 841
f 841 843 844
f 846 847 845
f 845 847 848
f 850 851 849
f 849 851 852
f 854 855 853
f 853 855 856
f 831 857 832
f 832 857 858
f 860 861 859
f 859 861 862
f 863 864 830
f 830 864 831
f 835 838 865
f 865 838 866
f 867 868 821
f 821 868 822
f 821 820 867
f 867 820 869
f 818 817 870
f 870 817 871
f 872 848 842
f 842 848 847
f 791 839 787
f 787 839 782
f 803 806 847
f 847 806 873
f 874 803 846
f 846 803 847
f 876 877 875
f 875 877 878
f 879 880 882
f 882 880 881
f 884 808 883
f 883 808 807
f 829 832 885
f 885 832 886
f 832 858 886
f 886 858 887
f 889 890 888
f 888 890 891
f 893 783 892
f 892 783 894
f 893 819 783
f 783 819 784
f 814 813 889
f 889 813 895
f 813 896 895
f 895 896 897
f 812 898 813
f 813 898 896
f 812 823 898
f 898 823 899
f 903 904 902
f 902 904 905
f 906 907 792
f 792 907 908
f 811 909 824
f 824 909 910
f 911 872 841
f 841 872 842
f 912 913 915
f 915 913 914
f 917 918 916
f 916 918 919
f 855 920 856
f 856 920 921
f 922 923 798
f 798 923 924
f 926 927 925
f 925 927 850
f 929 930 928
f 928 930 931
f 860 879 861
f 861 879 882
f 879 860 933
f 933 860 932
f 934 935 836
f 836 935 837
f 936 846 925
f 925 846 845
f 937 924 793
f 793 924 794
f 846 936 874
f 874 936 938
f 907 844 908
f 908 844 843
f 940 941 939
f 939 941 942
f 944 945 943
f 943 945 946
f 948 949 947
f 947 949 950
f 952 949 951
f 951 949 948
f 954 955 953
f 953 955 956
f 958 959 957
f 957 959 802
f 960 961 799
f 799 961 962
f 859 963 860
f 860 963 932
f 964 965 966
f 966 965 922
f 936 849 938
f 938 849 967
f 968 913 935
f 935 913 837
f 947 950 917
f 917 950 918
f 925 850 936
f 936 850 849
f 970 971 969
f 969 971 972
f 945 944 827
f 827 944 973
f 974 968 828
f 828 968 935
f 975 976 978
f 978 976 977
f 799 802 960
f 960 802 959
f 924 937 798
f 798 937 795
f 960 959 859
f 859 959 963
f 979 963 958
f 958 963 959
f 980 981 861
f 861 981 862
f 983 984 982
f 982 984 863
f 985 800 962
f 962 800 799
f 957 802 986
f 986 802 801
f 986 987 957
f 957 987 983
f 987 988 983
f 983 988 984
f 990 984 989
f 989 984 988
f 957 983 958
f 958 983 982
f 991 954 866
f 866 954 992
f 864 863 990
f 990 863 984
f 971 995 996
f 995 997 996
f 996 997 998
f 997 796 998
f 998 796 795
f 797 999 798
f 798 999 922
f 1000 1001 1003
f 1003 1001 1002
f 953 1004 954
f 954 1004 992
f 1005 865 992
f 992 865 866
f 998 795 1006
f 1006 795 937
f 912 991 838
f 838 991 866
f 916 1007 929
f 929 1007 930
f 971 970 988
f 988 970 989
f 1008 972 996
f 996 972 971
f 1009 1010 1006
f 1006 1010 1008
f 1011 1012 869
f 869 1012 867
f 1013 1014 871
f 871 1014 870
f 1008 1010 1012
f 1012 1010 1015
f 825 1016 826
f 826 1016 1017
f 1018 969 1013
f 1013 969 1014
f 783 786 894
f 894 786 1019
f 1020 1021 967
f 967 1021 938
f 1022 1023 876
f 876 1023 877
f 934 1024 825
f 825 1024 1016
f 854 1025 855
f 855 1025 1026
f 1028 903 1027
f 1027 903 902
f 1030 1031 1029
f 1029 1031 1032
f 889 888 814
f 814 888 1033
f 1034 811 1033
f 1033 811 814
f 1035 1036 932
f 932 1036 933
f 841 947 911
f 911 947 917
f 844 948 841
f 841 948 947
f 951 948 907
f 907 948 844
f 907 906 951
f 951 906 1037
f 906 1038 1037
f 1037 1038 1039
f 991 912 1040
f 1040 912 915
f 1041 1042 964
f 964 1042 965
f 890 1043 891
f 891 1043 1044
f 789 1045 1046
f 1012 1011 1008
f 1008 1011 972
f 931 1047 848
f 848 1047 845
f 953 956 943
f 943 956 919
f 928 931 872
f 872 931 848
f 1049 999 1048
f 1048 999 985
f 1047 931 1050
f 1050 931 930
f 899 823 887
f 887 823 886
f 825 828 934
f 934 828 935
f 835 1051 836
f 836 1051 1052
f 923 1053 1038
f 1038 1053 1039
f 1054 927 921
f 921 927 856
f 926 1047 853
f 853 1047 1050
f 985 1055 1048
f 1048 1055 1056
f 973 974 827
f 827 974 828
f 837 913 838
f 838 913 912
f 861 882 980
f 980 882 1057
f 927 926 856
f 856 926 853
f 1025 1056 1026
f 1026 1056 1055
f 961 960 862
f 862 960 859
f 826 1017 1059
f 1059 1017 1060
f 1005 1001 1061
f 1061 1001 1000
f 1001 1004 1002
f 1002 1004 946
f 1059 1060 1002
f 1002 1060 1003
f 943 946 953
f 953 946 1004
f 1042 1041 916
f 916 1041 1007
f 792 794 906
f 906 794 1038
f 998 1006 996
f 996 1006 1008
f 865 1005 1062
f 1062 1005 1061
f 1038 794 923
f 923 794 924
f 1022 876 1036
f 1036 876 933
f 836 1052 934
f 934 1052 1024
f 885 1063 829
f 829 1063 833
f 1021 1064 938
f 938 1064 874
f 1012 1015 867
f 867 1015 868
f 824 910 885
f 885 910 1063
f 1031 1030 1027
f 1027 1030 1028
f 1064 804 874
f 874 804 803
f 884 883 1065
f 1065 883 1066
f 1050 930 1067
f 1067 930 1007
f 916 929 917
f 917 929 911
f 961 1068 939
f 939 1068 940
f 1069 1070 1055
f 1055 1070 1071
f 929 928 911
f 911 928 872
f 1040 1053 955
f 955 1053 965
f 922 965 923
f 923 965 1053
f 1051 835 1062
f 1062 835 865
f 952 914 968
f 968 914 913
f 889 895 890
f 890 895 816
f 895 897 816
f 816 897 901
f 890 816 1043
f 1043 816 815
f 1065 1066 1032
f 1032 1066 1029
f 1006 937 1009
f 1009 937 793
f 1001 1005 1004
f 1004 1005 992
f 925 845 926
f 926 845 1047
f 1002 946 1059
f 1059 946 945
f 977 941 978
f 978 941 940
f 823 824 886
f 886 824 885
f 1059 945 826
f 826 945 827
f 939 942 1069
f 1069 942 1070
f 816 901 817
f 1071 1072 1055
f 1055 1072 1026
f 1062 1061 1074
f 1074 1061 1073
f 1062 1074 1051
f 1051 1074 1075
f 1052 1051 1076
f 1076 1051 1075
f 1024 1052 1077
f 1077 1052 1076
f 1061 1000 1073
f 1073 1000 1078
f 1000 1003 1078
f 1078 1003 1079
f 1079 1003 1080
f 1080 1003 1060
f 1081 1082 1078
f 1078 1082 1073
f 1084 1085 1083
f 1083 1085 1086
f 1087 1088 1086
f 1086 1088 1083
f 1086 1085 1090
f 1090 1085 1089
f 1091 1092 1090
f 1090 1092 1093
f 1089 1094 1090
f 1090 1094 1091
f 1095 1082 1089
f 1089 1082 1094
f 1093 1087 1090
f 1090 1087 1086
f 1096 1097 1099
f 1099 1097 1098
f 1097 1096 1087
f 1087 1096 1088
f 1089 1085 1095
f 1095 1085 1084
f 1084 1075 1095
f 1095 1075 1074
f 1084 1100 1075
f 1075 1100 1076
f 1083 1101 1084
f 1084 1101 1100
f 1101 1083 1102
f 1102 1083 1088
f 1082 1095 1073
f 1073 1095 1074
f 1096 1103 1088
f 1088 1103 1102
f 1101 1102 1104
f 1104 1102 1105
f 1102 1103 1105
f 1105 1103 1106
f 1104 1105 1107
f 1107 1105 1108
f 1107 1109 1104
f 1104 1109 1110
f 1111 1108 1106
f 1106 1108 1105
f 1101 1104 1100
f 1100 1104 1110
f 1100 1110 1076
f 1076 1110 1077
f 1103 1096 1112
f 1112 1096 1099
f 1091 1094 1113
f 1113 1094 1082
f 1113 1114 1091
f 1091 1114 1092
f 1082 1081 1113
f 1113 1081 1115
f 1114 1113 1116
f 1116 1113 1115
f 1114 1117 1092
f 1092 1117 1118
f 1024 1077 1016
f 1016 1077 1119
f 1017 1120 1060
f 1060 1120 1080
f 1120 1017 1119
f 1119 1017 1016
f 1119 1109 1120
f 1120 1109 1121
f 1109 1107 1121
f 1121 1107 1122
f 1120 1121 1080
f 1080 1121 1123
f 1119 1077 1109
f 1109 1077 1110
f 1124 1079 1123
f 1123 1079 1080
f 1124 1081 1079
f 1079 1081 1078
f 1125 1115 1124
f 1124 1115 1081
f 1125 1124 1126
f 1126 1124 1123
f 1127 1125 1128
f 1128 1125 1126
f 1121 1122 1123
f 1123 1122 1126
f 1122 1129 1126
f 1126 1129 1128
f 1115 1125 1116
f 1116 1125 1127
f 1131 1116 1130
f 1130 1116 1127
f 1130 1133 1132
f 1132 1133 1134
f 1130 1127 1133
f 1133 1127 1128
f 1130 1132 1131
f 1131 1132 1112
f 1131 1112 1117
f 1117 1112 1099
f 1117 1114 1131
f 1131 1114 1116
f 1107 1108 1122
f 1122 1108 1129
f 1134 1129 1111
f 1111 1129 1108
f 1134 1133 1129
f 1129 1133 1128
f 1132 1134 1106
f 1106 1134 1111
f 1106 1103 1132
f 1132 1103 1112
f 1087 1093 1097
f 1097 1093 1098
f 1098 1118 1099
f 1099 1118 1117
f 1098 1093 1118
f 1118 1093 1092
f 915 914 1039
f 1039 914 1037
f 918 944 919
f 919 944 943
f 950 949 973
f 973 949 974
f 949 952 974
f 974 952 968
f 956 955 1042
f 1042 955 965
f 950 973 918
f 918 973 944
f 915 1039 1040
f 1040 1039 1053
f 956 1042 919
f 919 1042 916
f 1040 955 991
f 991 955 954
f 914 952 1037
f 1037 952 951
f 1136 1137 1135
f 1135 1137 1138
f 1140 1141 1139
f 1139 1141 1142
f 1139 1142 1143
f 1143 1142 1144
f 1145 1146 1148
f 1148 1146 1147
f 854 1149 1025
f 1025 1149 1150
f 1151 1152 1140
f 1140 1152 1141
f 1154 1155 1153
f 1153 1155 1156
f 1067 1007 1158
f 1158 1007 1157
f 1159 1157 1041
f 1041 1157 1007
f 1161 1162 1160
f 1160 1162 1163
f 1164 1146 1152
f 1152 1146 1141
f 854 1067 1149
f 1149 1067 1158
f 1155 1154 1137
f 1137 1154 1165
f 1166 1164 1138
f 1138 1164 1152
f 1167 1161 1144
f 1144 1161 1168
f 1170 1171 1169
f 1169 1171 1172
f 1161 1160 1168
f 1168 1160 1173
f 1174 1143 1168
f 1168 1143 1144
f 1167 1144 1145
f 1145 1144 1142
f 1135 1175 1136
f 1136 1175 1176
f 1151 1177 1135
f 1135 1177 1175
f 1167 1145 1178
f 1178 1145 1148
f 1160 1163 1153
f 1153 1163 1150
f 1135 1138 1151
f 1151 1138 1152
f 1139 1179 1140
f 1140 1179 1180
f 1165 1166 1137
f 1137 1166 1138
f 1141 1146 1142
f 1142 1146 1145
f 1136 1176 1181
f 1181 1176 1182
f 1174 1170 1183
f 1183 1170 1169
f 1170 1173 1171
f 1171 1173 1156
f 1171 1181 1172
f 1172 1181 1182
f 1153 1156 1160
f 1160 1156 1173
f 1143 1174 1184
f 1184 1174 1183
f 1140 1180 1151
f 1151 1180 1177
f 1049 1048 1178
f 1178 1048 1162
f 1179 1139 1184
f 1184 1139 1143
f 1159 1147 1164
f 1164 1147 1146
f 1170 1174 1173
f 1173 1174 1168
f 1171 1156 1181
f 1181 1156 1155
f 1181 1155 1136
f 1136 1155 1137
f 1184 1183 1186
f 1186 1183 1185
f 1184 1186 1179
f 1179 1186 1187
f 1179 1187 1180
f 1180 1187 1188
f 1180 1188 1177
f 1177 1188 1189
f 1183 1169 1185
f 1185 1169 1190
f 1169 1172 1190
f 1190 1172 1191
f 1172 1182 1191
f 1191 1182 1192
f 1193 1194 1190
f 1190 1194 1185
f 1196 1197 1195
f 1195 1197 1198
f 1199 1200 1196
f 1196 1200 1197
f 1197 1200 1202
f 1202 1200 1201
f 1203 1204 1202
f 1202 1204 1205
f 1201 1206 1202
f 1202 1206 1203
f 1205 1198 1202
f 1202 1198 1197
f 1198 1207 1195
f 1195 1207 1208
f 1201 1200 1209
f 1209 1200 1199
f 1199 1187 1209
f 1209 1187 1186
f 1199 1210 1187
f 1187 1210 1188
f 1196 1211 1199
f 1199 1211 1210
f 1212 1211 1195
f 1195 1211 1196
f 1209 1194 1201
f 1201 1194 1206
f 1194 1209 1185
f 1185 1209 1186
f 1213 1212 1208
f 1208 1212 1195
f 1211 1212 1214
f 1214 1212 1215
f 1212 1213 1215
f 1215 1213 1216
f 1214 1215 1217
f 1217 1215 1218
f 1217 1219 1214
f 1214 1219 1220
f 1216 1221 1215
f 1215 1221 1218
f 1214 1220 1211
f 1211 1220 1210
f 1210 1220 1188
f 1188 1220 1189
f 1213 1208 1223
f 1223 1208 1222
f 1208 1207 1222
f 1222 1207 1224
f 1203 1206 1225
f 1225 1206 1194
f 1204 1203 1226
f 1226 1203 1225
f 1194 1193 1225
f 1225 1193 1227
f 1225 1227 1226
f 1226 1227 1228
f 1229 1230 1226
f 1226 1230 1204
f 1224 1230 1222
f 1222 1230 1229
f 1177 1189 1175
f 1175 1189 1231
f 1176 1232 1182
f 1182 1232 1192
f 1232 1176 1231
f 1231 1176 1175
f 1231 1219 1232
f 1232 1219 1233
f 1219 1217 1233
f 1233 1217 1234
f 1232 1233 1192
f 1192 1233 1235
f 1219 1231 1220
f 1220 1231 1189
f 1236 1191 1235
f 1235 1191 1192
f 1236 1193 1191
f 1191 1193 1190
f 1236 1237 1193
f 1193 1237 1227
f 1237 1236 1238
f 1238 1236 1235
f 1239 1237 1240
f 1240 1237 1238
f 1233 1234 1235
f 1235 1234 1238
f 1234 1241 1238
f 1238 1241 1240
f 1237 1239 1227
f 1227 1239 1228
f 1243 1228 1242
f 1242 1228 1239
f 1242 1245 1244
f 1244 1245 1246
f 1242 1239 1245
f 1245 1239 1240
f 1242 1244 1243
f 1243 1244 1223
f 1243 1223 1229
f 1229 1223 1222
f 1229 1226 1243
f 1243 1226 1228
f 1217 1218 1234
f 1234 1218 1241
f 1246 1241 1221
f 1221 1241 1218
f 1246 1245 1241
f 1241 1245 1240
f 1244 1246 1216
f 1216 1246 1221
f 1216 1213 1244
f 1244 1213 1223
f 1198 1205 1207
f 1207 1205 1224
f 1224 1205 1230
f 1230 1205 1204
f 1148 1147 966
f 966 1147 964
f 1149 1154 1150
f 1150 1154 1153
f 1158 1157 1165
f 1165 1157 1166
f 1157 1159 1166
f 1166 1159 1164
f 1163 1162 1056
f 1056 1162 1048
f 1158 1165 1149
f 1149 1165 1154
f 1178 1148 1049
f 1049 1148 966
f 1163 1056 1150
f 1150 1056 1025
f 1178 1162 1167
f 1167 1162 1161
f 1147 1159 964
f 964 1159 1041
f 999 1049 922
f 922 1049 966
f 999 797 985
f 985 797 800
f 797 796 800
f 800 796 801
f 796 997 801
f 801 997 986
f 1247 1248 1250
f 1250 1248 1249
f 1252 1253 1251
f 1251 1253 1254
f 1251 1254 1255
f 1255 1254 1256
f 1258 1259 1257
f 1257 1259 1260
f 1261 1262 1252
f 1252 1262 1253
f 1264 1265 1263
f 1263 1265 1266
f 1267 1268 855
f 855 1268 920
f 1269 1267 1026
f 1026 1267 855
f 1271 1272 1270
f 1270 1272 1273
f 1274 1258 1262
f 1262 1258 1253
f 1264 1275 1265
f 1265 1275 1249
f 1276 1274 1250
f 1250 1274 1262
f 1277 1271 1256
f 1256 1271 1278
f 1279 1280 1282
f 1282 1280 1281
f 1271 1270 1278
f 1278 1270 1283
f 1284 1255 1278
f 1278 1255 1256
f 1277 1256 1257
f 1257 1256 1254
f 1247 1285 1248
f 1248 1285 1286
f 1261 1287 1247
f 1247 1287 1285
f 1257 1260 1277
f 1277 1260 1288
f 1270 1273 1263
f 1263 1273 1289
f 1261 1247 1262
f 1262 1247 1250
f 1251 1290 1252
f 1252 1290 1291
f 1275 1276 1249
f 1249 1276 1250
f 1253 1258 1254
f 1254 1258 1257
f 1248 1286 1292
f 1292 1286 1293
f 1284 1280 1294
f 1294 1280 1279
f 1281 1280 1266
f 1266 1280 1283
f 1292 1293 1281
f 1281 1293 1282
f 1263 1266 1270
f 1270 1266 1283
f 1255 1284 1295
f 1295 1284 1294
f 1252 1291 1261
f 1261 1291 1287
f 1288 1070 1272
f 1272 1070 942
f 1290 1251 1295
f 1295 1251 1255
f 1269 1259 1274
f 1274 1259 1258
f 1280 1284 1283
f 1283 1284 1278
f 1281 1266 1292
f 1292 1266 1265
f 1292 1265 1248
f 1248 1265 1249
f 1295 1294 1297
f 1297 1294 1296
f 1295 1297 1290
f 1290 1297 1298
f 1290 1298 1291
f 1291 1298 1299
f 1291 1299 1287
f 1287 1299 1300
f 1294 1279 1296
f 1296 1279 1301
f 1279 1282 1301
f 1301 1282 1302
f 1302 1282 1303
f 1303 1282 1293
f 1304 1305 1301
f 1301 1305 1296
f 1307 1308 1306
f 1306 1308 1309
f 1310 1311 1307
f 1307 1311 1308
f 1308 1311 1313
f 1313 1311 1312
f 1314 1315 1313
f 1313 1315 1316
f 1312 1317 1313
f 1313 1317 1314
f 1316 1309 1313
f 1313 1309 1308
f 1318 1319 1309
f 1309 1319 1306
f 1311 1310 1312
f 1312 1310 1320
f 1310 1298 1320
f 1320 1298 1297
f 1310 1321 1298
f 1298 1321 1299
f 1307 1322 1310
f 1310 1322 1321
f 1322 1307 1323
f 1323 1307 1306
f 1312 1320 1317
f 1317 1320 1305
f 1305 1320 1296
f 1296 1320 1297
f 1319 1324 1306
f 1306 1324 1323
f 1325 1322 1326
f 1326 1322 1323
f 1324 1327 1323
f 1323 1327 1326
f 1328 1325 1329
f 1329 1325 1326
f 1325 1328 1331
f 1331 1328 1330
f 1327 1332 1326
f 1326 1332 1329
f 1322 1325 1321
f 1321 1325 1331
f 1321 1331 1299
f 1299 1331 1300
f 1324 1319 1334
f 1334 1319 1333
f 1319 1318 1333
f 1333 1318 1335
f 1314 1317 1336
f 1336 1317 1305
f 1315 1314 1337
f 1337 1314 1336
f 1305 1304 1336
f 1336 1304 1338
f 1337 1336 1339
f 1339 1336 1338
f 1337 1340 1315
f 1315 1340 1341
f 1335 1341 1333
f 1333 1341 1340
f 1287 1300 1285
f 1285 1300 1342
f 1286 1343 1293
f 1293 1343 1303
f 1343 1286 1342
f 1342 1286 1285
f 1342 1330 1343
f 1343 1330 1344
f 1330 1328 1344
f 1344 1328 1345
f 1343 1344 1303
f 1303 1344 1346
f 1342 1300 1330
f 1330 1300 1331
f 1347 1302 1346
f 1346 1302 1303
f 1347 1304 1302
f 1302 1304 1301
f 1348 1338 1347
f 1347 1338 1304
f 1348 1347 1349
f 1349 1347 1346
f 1350 1348 1351
f 1351 1348 1349
f 1344 1345 1346
f 1346 1345 1349
f 1345 1352 1349
f 1349 1352 1351
f 1348 1350 1338
f 1338 1350 1339
f 1354 1339 1353
f 1353 1339 1350
f 1353 1356 1355
f 1355 1356 1357
f 1353 1350 1356
f 1356 1350 1351
f 1353 1355 1354
f 1354 1355 1334
f 1354 1334 1340
f 1340 1334 1333
f 1340 1337 1354
f 1354 1337 1339
f 1328 1329 1345
f 1345 1329 1352
f 1357 1352 1332
f 1332 1352 1329
f 1357 1356 1352
f 1352 1356 1351
f 1357 1332 1355
f 1355 1332 1327
f 1327 1324 1355
f 1355 1324 1334
f 1309 1316 1318
f 1318 1316 1335
f 1335 1316 1341
f 1341 1316 1315
f 1259 1072 1260
f 1260 1072 1071
f 1358 1264 1289
f 1289 1264 1263
f 1268 1267 1275
f 1275 1267 1276
f 1267 1269 1276
f 1276 1269 1274
f 941 1273 942
f 942 1273 1272
f 1358 1268 1264
f 1264 1268 1275
f 1260 1071 1288
f 1288 1071 1070
f 1273 941 1289
f 1289 941 977
f 1272 1271 1288
f 1288 1271 1277
f 1259 1269 1072
f 1072 1269 1026
f 1360 1361 1359
f 1359 1361 1362
f 1364 1365 1363
f 1363 1365 1366
f 1363 1366 1367
f 1367 1366 1368
f 1370 1371 1369
f 1369 1371 1372
f 1373 1374 1376
f 1376 1374 1375
f 1377 1378 1364
f 1364 1378 1365
f 1379 1380 1382
f 1382 1380 1381
f 1383 1384 1386
f 1386 1384 1385
f 1387 1385 978
f 978 1385 1384
f 1388 1389 1391
f 1391 1389 1390
f 1378 1392 1365
f 1365 1392 1370
f 1374 1383 1375
f 1375 1383 1386
f 1380 1393 1381
f 1381 1393 1361
f 1394 1392 1362
f 1362 1392 1378
f 1389 1396 1395
f 1395 1396 1368
f 1398 1399 1397
f 1397 1399 1400
f 1388 1401 1389
f 1389 1401 1396
f 1402 1367 1396
f 1396 1367 1368
f 1395 1368 1369
f 1369 1368 1366
f 1359 1403 1360
f 1360 1403 1404
f 1377 1405 1359
f 1359 1405 1403
f 1369 1372 1395
f 1395 1372 1406
f 1379 1388 1376
f 1376 1388 1391
f 1359 1362 1377
f 1377 1362 1378
f 1363 1407 1364
f 1364 1407 1408
f 1393 1394 1361
f 1361 1394 1362
f 1365 1370 1366
f 1366 1370 1369
f 1360 1404 1409
f 1409 1404 1410
f 1402 1398 1411
f 1411 1398 1397
f 1399 1398 1382
f 1382 1398 1401
f 1409 1410 1399
f 1399 1410 1400
f 1388 1379 1401
f 1401 1379 1382
f 1367 1402 1412
f 1412 1402 1411
f 1364 1408 1377
f 1377 1408 1405
f 981 980 1406
f 1406 980 1390
f 1407 1363 1412
f 1412 1363 1367
f 1387 1371 1392
f 1392 1371 1370
f 1398 1402 1401
f 1401 1402 1396
f 1409 1399 1381
f 1381 1399 1382
f 1360 1409 1361
f 1361 1409 1381
f 1412 1411 1414
f 1414 1411 1413
f 1412 1414 1407
f 1407 1414 1415
f 1407 1415 1408
f 1408 1415 1416
f 1408 1416 1405
f 1405 1416 1417
f 1411 1397 1413
f 1413 1397 1418
f 1397 1400 1418
f 1418 1400 1419
f 1419 1400 1420
f 1420 1400 1410
f 1422 1413 1421
f 1421 1413 1418
f 1423 1424 1426
f 1426 1424 1425
f 1427 1428 1424
f 1424 1428 1425
f 1425 1428 1430
f 1430 1428 1429
f 1430 1431 1433
f 1433 1431 1432
f 1429 1434 1430
f 1430 1434 1431
f 1433 1426 1430
f 1430 1426 1425
f 1426 1435 1423
f 1423 1435 1436
f 1428 1427 1429
f 1429 1427 1437
f 1427 1415 1437
f 1437 1415 1414
f 1427 1438 1415
f 1415 1438 1416
f 1439 1438 1424
f 1424 1438 1427
f 1440 1439 1423
f 1423 1439 1424
f 1429 1437 1434
f 1434 1437 1422
f 1422 1437 1413
f 1413 1437 1414
f 1441 1440 1436
f 1436 1440 1423
f 1442 1439 1443
f 1443 1439 1440
f 1441 1444 1440
f 1440 1444 1443
f 1445 1442 1446
f 1446 1442 1443
f 1442 1445 1448
f 1448 1445 1447
f 1444 1449 1443
f 1443 1449 1446
f 1439 1442 1438
f 1438 1442 1448
f 1438 1448 1416
f 1416 1448 1417
f 1436 1450 1441
f 1441 1450 1451
f 1436 1435 1450
f 1450 1435 1452
f 1431 1434 1453
f 1453 1434 1422
f 1431 1453 1432
f 1432 1453 1454
f 1453 1422 1455
f 1455 1422 1421
f 1454 1453 1456
f 1456 1453 1455
f 1457 1458 1454
f 1454 1458 1432
f 1452 1458 1450
f 1450 1458 1457
f 1405 1417 1403
f 1403 1417 1459
f 1404 1460 1410
f 1410 1460 1420
f 1459 1460 1403
f 1403 1460 1404
f 1447 1461 1459
f 1459 1461 1460
f 1445 1462 1447
f 1447 1462 1461
f 1460 1461 1420
f 1420 1461 1463
f 1459 1417 1447
f 1447 1417 1448
f 1464 1419 1463
f 1463 1419 1420
f 1419 1464 1418
f 1418 1464 1421
f 1464 1465 1421
f 1421 1465 1455
f 1465 1464 1466
f 1466 1464 1463
f 1467 1465 1468
f 1468 1465 1466
f 1461 1462 1463
f 1463 1462 1466
f 1462 1469 1466
f 1466 1469 1468
f 1465 1467 1455
f 1455 1467 1456
f 1471 1456 1470
f 1470 1456 1467
f 1470 1473 1472
f 1472 1473 1474
f 1470 1467 1473
f 1473 1467 1468
f 1470 1472 1471
f 1471 1472 1451
f 1471 1451 1457
f 1457 1451 1450
f 1457 1454 1471
f 1471 1454 1456
f 1462 1445 1469
f 1469 1445 1446
f 1474 1469 1449
f 1449 1469 1446
f 1474 1473 1469
f 1469 1473 1468
f 1472 1474 1444
f 1444 1474 1449
f 1444 1441 1472
f 1472 1441 1451
f 1426 1433 1435
f 1435 1433 1452
f 1452 1433 1458
f 1458 1433 1432
f 1371 940 1372
f 1372 940 1068
f 1376 1375 1379
f 1379 1375 1380
f 1393 1386 1394
f 1394 1386 1385
f 1385 1387 1394
f 1394 1387 1392
f 1475 1373 1391
f 1391 1373 1376
f 1375 1386 1380
f 1380 1386 1393
f 1372 1068 1406
f 1406 1068 981
f 1406 1390 1395
f 1395 1390 1389
f 1371 1387 940
f 940 1387 978
f 883 807 1476
f 1476 807 1477
f 1046 904 1479
f 1479 904 1478
f 904 903 1478
f 1478 903 1480
f 1030 1481 1028
f 1028 1481 1482
f 810 1046 1483
f 1483 1046 1479
f 1066 883 1484
f 1484 883 1476
f 807 810 1477
f 1477 810 1483
f 1485 1029 1484
f 1484 1029 1066
f 1028 1482 903
f 903 1482 1480
f 1481 1030 1485
f 1485 1030 1029
f 1484 1486 1485
f 1485 1486 1487
f 1485 1487 1481
f 1481 1487 1488
f 1481 1488 1482
f 1482 1488 1489
f 1482 1489 1480
f 1480 1489 1490
f 1484 1476 1486
f 1486 1476 1491
f 1476 1477 1491
f 1491 1477 1492
f 1477 1483 1492
f 1492 1483 1493
f 1495 1486 1494
f 1494 1486 1491
f 1497 1498 1496
f 1496 1498 1499
f 1500 1501 1497
f 1497 1501 1498
f 1502 1503 1501
f 1501 1503 1498
f 1502 1504 1503
f 1503 1504 1505
f 1506 1499 1503
f 1503 1499 1498
f 1499 1506 1507
f 1507 1506 1508
f 1507 1509 1499
f 1499 1509 1496
f 1502 1501 1510
f 1510 1501 1500
f 1500 1488 1510
f 1510 1488 1487
f 1500 1511 1488
f 1488 1511 1489
f 1497 1512 1500
f 1500 1512 1511
f 1512 1497 1513
f 1513 1497 1496
f 1502 1510 1504
f 1504 1510 1495
f 1495 1510 1486
f 1486 1510 1487
f 1509 1514 1496
f 1496 1514 1513
f 1515 1512 1516
f 1516 1512 1513
f 1514 1517 1513
f 1513 1517 1516
f 1518 1515 1519
f 1519 1515 1516
f 1515 1518 1521
f 1521 1518 1520
f 1517 1522 1516
f 1516 1522 1519
f 1512 1515 1511
f 1511 1515 1521
f 1511 1521 1489
f 1489 1521 1490
f 1514 1509 1524
f 1524 1509 1523
f 1509 1507 1523
f 1523 1507 1508
f 1505 1504 1525
f 1525 1504 1495
f 1526 1505 1527
f 1527 1505 1525
f 1525 1495 1528
f 1528 1495 1494
f 1527 1525 1529
f 1529 1525 1528
f 1527 1530 1526
f 1526 1530 1531
f 1508 1531 1523
f 1523 1531 1530
f 1506 1503 1526
f 1526 1503 1505
f 1508 1506 1531
f 1531 1506 1526
f 1478 1480 1532
f 1532 1480 1490
f 1483 1479 1493
f 1493 1479 1533
f 1532 1533 1478
f 1478 1533 1479
f 1520 1534 1532
f 1532 1534 1533
f 1518 1535 1520
f 1520 1535 1534
f 1533 1534 1493
f 1493 1534 1536
f 1532 1490 1520
f 1520 1490 1521
f 1537 1492 1536
f 1536 1492 1493
f 1492 1537 1491
f 1491 1537 1494
f 1537 1538 1494
f 1494 1538 1528
f 1538 1537 1539
f 1539 1537 1536
f 1540 1538 1541
f 1541 1538 1539
f 1534 1535 1536
f 1536 1535 1539
f 1535 1542 1539
f 1539 1542 1541
f 1538 1540 1528
f 1528 1540 1529
f 1544 1529 1543
f 1543 1529 1540
f 1545 1543 1547
f 1547 1543 1546
f 1543 1540 1546
f 1546 1540 1541
f 1543 1545 1544
f 1544 1545 1524
f 1544 1524 1530
f 1530 1524 1523
f 1530 1527 1544
f 1544 1527 1529
f 1535 1518 1542
f 1542 1518 1519
f 1547 1542 1522
f 1522 1542 1519
f 1547 1546 1542
f 1542 1546 1541
f 1545 1547 1517
f 1517 1547 1522
f 1517 1514 1545
f 1545 1514 1524
f 997 995 986
f 986 995 987
f 987 995 988
f 988 995 971
f 976 1358 977
f 977 1358 1289
f 854 853 1067
f 1067 853 1050
f 1055 985 1069
f 1069 985 962
f 1068 961 981
f 981 961 862
f 1268 1358 920
f 920 1358 976
f 920 976 921
f 921 976 975
f 927 1054 850
f 850 1054 851
f 882 881 1057
f 1057 881 1548
f 1548 1374 1057
f 1057 1374 1373
f 1383 1374 1549
f 1549 1374 1548
f 1549 1548 1550
f 1550 1548 881
f 1550 881 1551
f 1551 881 880
f 933 1552 879
f 879 1552 880
f 1551 880 875
f 875 880 1552
f 1553 1551 878
f 878 1551 875
f 1551 1553 1550
f 1550 1553 1554
f 1550 1554 1549
f 1549 1554 1555
f 978 1384 975
f 975 1384 1555
f 967 849 1556
f 1556 849 852
f 875 1552 876
f 876 1552 933
f 961 939 962
f 962 939 1069
f 1555 1054 975
f 975 1054 921
f 1555 1384 1549
f 1549 1384 1383
f 1391 1390 1475
f 1475 1390 980
f 1373 1475 1057
f 1057 1475 980
f 851 1054 1554
f 1554 1054 1555
f 1554 1553 851
f 851 1553 852
f 878 1556 1553
f 1553 1556 852
f 1556 878 967
f 967 878 877
f 1023 1020 877
f 877 1020 967
f 909 811 1034
f 806 779 873
f 873 779 840
f 805 780 806
f 806 780 779
f 1043 893 1044
f 1044 893 892
f 873 840 847
f 847 840 842
f 840 839 842
f 842 839 843
f 839 791 843
f 843 791 908
f 791 790 908
f 908 790 792
f 809 789 810
f 810 789 1046
f 793 790 809
f 809 790 789
f 809 808 793
f 793 808 1009
f 808 884 1009
f 1009 884 1010
f 1065 1015 884
f 884 1015 1010
f 1032 868 1065
f 1065 868 1015
f 1031 822 1032
f 1032 822 868
f 1031 1027 822
f 822 1027 785
f 1045 905 1046
f 1046 905 904
f 788 781 1019
f 1019 781 894
f 781 780 894
f 894 780 892
f 780 805 892
f 892 805 1044
f 805 804 1044
f 1044 804 891
f 804 1064 891
f 891 1064 888
f 1064 1021 888
f 888 1021 1033
f 1021 1020 1033
f 1033 1020 1034
f 1020 1023 1034
f 1034 1023 909
f 1023 1022 909
f 909 1022 910
f 1043 815 893
f 893 815 819
f 819 815 820
f 820 815 818
f 870 869 818
f 818 869 820
f 1014 1011 870
f 870 1011 869
f 969 972 1014
f 1014 972 1011
f 1036 1063 1022
f 1022 1063 910
f 1035 833 1036
f 1036 833 1063
f 1035 932 979
f 979 932 963
f 834 979 982
f 982 979 958
f 833 1035 834
f 834 1035 979
f 982 863 834
f 834 863 830
f 864 900 831
f 831 900 857
f 990 993 864
f 864 993 900
f 989 994 990
f 990 994 993
f 970 1058 989
f 989 1058 994
f 969 1018 970
f 970 1018 1058
f 1027 902 785
f 785 902 786
f 902 905 786
f 786 905 1019
f 905 1045 1019
f 1019 1045 788
f 788 1045 787
f 787 1045 789
