o hand_left
v -0.627331 0.220013 1.317580
v -0.628705 0.229163 1.314391
v -0.616740 0.229238 1.314326
v -0.616273 0.218682 1.317214
v -0.624880 0.250623 1.309431
v -0.624233 0.257438 1.298971
v -0.609193 0.255067 1.301454
v -0.611967 0.250548 1.310315
v -0.607644 0.217241 1.314619
v -0.608369 0.229460 1.313946
v -0.604316 0.217439 1.308303
v -0.608446 0.201673 1.307499
v -0.609870 0.205010 1.314455
v -0.610942 0.191850 1.310027
v -0.614775 0.201108 1.297876
v -0.618299 0.186076 1.306295
v -0.647199 0.195614 1.301950
v -0.659572 0.198094 1.307663
v -0.655143 0.184075 1.317783
v -0.642572 0.183676 1.311576
v -0.671293 0.195236 1.325427
v -0.662253 0.188419 1.321701
v -0.667368 0.201491 1.310867
v -0.675068 0.207071 1.314810
v -0.644986 0.224888 1.319950
v -0.648273 0.233494 1.316223
v -0.641687 0.230703 1.314909
v -0.639125 0.223201 1.318287
v -0.595795 0.227906 1.298734
v -0.605636 0.221085 1.292256
v -0.604654 0.216723 1.299449
v -0.596543 0.228014 1.304167
v -0.661911 0.260079 1.312776
v -0.667062 0.265973 1.301652
v -0.662419 0.264835 1.298249
v -0.658976 0.259014 1.309123
v -0.642195 0.260334 1.293343
v -0.649294 0.262362 1.286946
v -0.647465 0.261009 1.272838
v -0.640639 0.256473 1.276809
v -0.633473 0.258491 1.297456
v -0.631864 0.256757 1.283244
v -0.622984 0.256205 1.287213
v -0.607044 0.254741 1.292033
v -0.678672 0.266239 1.307255
v -0.676390 0.262428 1.316453
v -0.594985 0.178350 1.345614
v -0.600124 0.179864 1.348704
v -0.600808 0.180030 1.347055
v -0.595942 0.178337 1.344143
v -0.693411 0.252381 1.309019
v -0.696912 0.245171 1.302846
v -0.699070 0.251585 1.300083
v -0.694346 0.258434 1.304550
v -0.692061 0.244395 1.314914
v -0.693206 0.236594 1.306803
v -0.591163 0.166955 1.349884
v -0.589823 0.171372 1.347240
v -0.591919 0.168775 1.344062
v -0.594323 0.163765 1.346043
v -0.615887 0.208689 1.319360
v -0.625130 0.212109 1.322058
v -0.615329 0.193495 1.328861
v -0.620448 0.199997 1.326237
v -0.614805 0.199616 1.321146
v -0.611901 0.193296 1.323069
v -0.642264 0.206880 1.333277
v -0.645367 0.216081 1.326796
v -0.639319 0.213608 1.324864
v -0.634311 0.203876 1.331573
v -0.656316 0.221341 1.334208
v -0.652625 0.211568 1.339660
v -0.659385 0.215661 1.343157
v -0.660280 0.222517 1.339297
v -0.644455 0.194356 1.346263
v -0.642816 0.189733 1.348476
v -0.645099 0.191907 1.351133
v -0.647557 0.196113 1.347718
v -0.701349 0.257223 1.296398
v -0.694710 0.263779 1.299584
v -0.686110 0.207773 1.335761
v -0.688514 0.218040 1.339977
v -0.687308 0.207945 1.349691
v -0.685265 0.198893 1.342379
v -0.694333 0.237948 1.295805
v -0.698797 0.243981 1.293444
v -0.595686 0.163910 1.353614
v -0.598635 0.160642 1.350352
v -0.625510 0.247244 1.277982
v -0.606951 0.247799 1.284788
v -0.637642 0.248040 1.273233
v -0.645774 0.249486 1.269256
v -0.650935 0.253330 1.264383
v -0.624545 0.197753 1.331551
v -0.634163 0.215860 1.321734
v -0.649568 0.226664 1.322108
v -0.671715 0.235517 1.342019
v -0.673706 0.244152 1.336279
v -0.664211 0.239702 1.333751
v -0.664751 0.232670 1.338953
v -0.684787 0.224835 1.346178
v -0.677138 0.226723 1.348487
v -0.676438 0.219112 1.353486
v -0.683811 0.215773 1.352959
v -0.592925 0.231989 1.292641
v -0.606387 0.226402 1.286197
v -0.686515 0.259142 1.313457
v -0.686170 0.263886 1.307251
v -0.688397 0.268287 1.300311
v -0.653882 0.246657 1.314557
v -0.656887 0.258247 1.306747
v -0.652910 0.256726 1.305531
v -0.651323 0.244164 1.313191
v -0.632811 0.239475 1.313619
v -0.637720 0.251297 1.308303
v -0.620562 0.240039 1.314725
v -0.656894 0.264497 1.292652
v -0.665278 0.271549 1.290772
v -0.658957 0.269969 1.284726
v -0.673832 0.271968 1.295633
v -0.681969 0.271052 1.299265
v -0.704241 0.248503 1.288693
v -0.653770 0.266823 1.278814
v -0.602984 0.249134 1.310264
v -0.595218 0.247719 1.311007
v -0.597357 0.240445 1.312821
v -0.604227 0.240865 1.312655
v -0.611270 0.183013 1.314559
v -0.609377 0.189155 1.318884
v -0.610207 0.197350 1.314529
v -0.663192 0.253212 1.321934
v -0.675365 0.255588 1.324826
v -0.618729 0.190978 1.334040
v -0.598000 0.163391 1.341158
v -0.594954 0.168616 1.339305
v -0.605554 0.175266 1.325469
v -0.609045 0.169278 1.326740
v -0.620718 0.182033 1.338889
v -0.616957 0.187363 1.336514
v -0.616377 0.185293 1.337816
v -0.619206 0.180952 1.341979
v -0.652783 0.196621 1.353845
v -0.654602 0.200692 1.350534
v -0.637027 0.174702 1.323904
v -0.627661 0.173423 1.313285
v -0.630364 0.183635 1.305776
v -0.648479 0.209905 1.336187
v -0.646402 0.201869 1.342324
v -0.649932 0.203252 1.344147
v -0.626439 0.194854 1.334844
v -0.623066 0.188659 1.337578
v -0.628299 0.190453 1.337651
v -0.631445 0.196575 1.335905
v -0.690744 0.227404 1.330521
v -0.686630 0.235257 1.338148
v -0.591308 0.175347 1.345457
v -0.592568 0.174215 1.343092
v -0.651372 0.218875 1.329785
v -0.634846 0.196060 1.298577
v -0.654013 0.228731 1.324761
v -0.668964 0.188381 1.346768
v -0.667314 0.193493 1.353371
v -0.663401 0.191579 1.357212
v -0.663563 0.186244 1.354209
v -0.611407 0.174987 1.351867
v -0.607622 0.179440 1.350508
v -0.605897 0.178424 1.350619
v -0.609055 0.173967 1.353542
v -0.613191 0.189281 1.332346
v -0.609599 0.188845 1.327016
v -0.607503 0.186108 1.331091
v -0.611921 0.186318 1.335255
v -0.607792 0.184020 1.322879
v -0.605278 0.181521 1.326928
v -0.612068 0.168274 1.351642
v -0.608084 0.161962 1.349094
v -0.619563 0.167759 1.336308
v -0.620123 0.173233 1.341834
v -0.679492 0.217120 1.304102
v -0.686871 0.222593 1.310489
v -0.682870 0.212551 1.321256
v -0.680137 0.201663 1.331766
v -0.675917 0.191613 1.341341
v -0.668781 0.184693 1.334243
v -0.687961 0.217900 1.325010
v -0.629193 0.178702 1.334900
v -0.627570 0.172260 1.328178
v -0.632562 0.175218 1.330776
v -0.658755 0.231771 1.329722
v -0.594885 0.174374 1.339562
v -0.662522 0.235445 1.267749
v -0.674420 0.233186 1.272773
v -0.669179 0.227678 1.277264
v -0.655728 0.230745 1.272209
v -0.601901 0.181407 1.346789
v -0.597287 0.179793 1.342196
v -0.659436 0.202158 1.354955
v -0.657069 0.197619 1.357437
v -0.659610 0.196159 1.359341
v -0.662635 0.201256 1.359769
v -0.690278 0.226837 1.313040
v -0.682919 0.203275 1.357343
v -0.681737 0.195125 1.349926
v -0.690132 0.231009 1.300869
v -0.684192 0.225936 1.294938
v -0.688083 0.232378 1.288682
v -0.655182 0.178384 1.333596
v -0.672855 0.212324 1.301159
v -0.678018 0.222456 1.291981
v -0.682384 0.230000 1.284366
v -0.686404 0.235077 1.279034
v -0.692155 0.237281 1.284393
v -0.602812 0.161083 1.345339
v -0.604422 0.161967 1.354654
v -0.697913 0.241813 1.278996
v -0.690793 0.239609 1.273438
v -0.670136 0.219600 1.288137
v -0.659831 0.217405 1.284055
v -0.665328 0.210050 1.297292
v -0.654681 0.206904 1.293814
v -0.650563 0.173041 1.324994
v -0.599715 0.174866 1.366180
v -0.605439 0.169378 1.359146
v -0.607060 0.174354 1.356364
v -0.602534 0.177851 1.364611
v -0.608790 0.168251 1.355108
v -0.601599 0.165258 1.358040
v -0.639712 0.208378 1.289677
v -0.626639 0.185373 1.339258
v -0.643291 0.222174 1.279661
v -0.620468 0.210235 1.288283
v -0.623154 0.222416 1.282135
v -0.645418 0.236863 1.269883
v -0.630526 0.235178 1.274461
v -0.657521 0.245434 1.262034
v -0.652595 0.240164 1.266481
v -0.614455 0.236555 1.279364
v -0.594735 0.183945 1.352673
v -0.600215 0.183845 1.355577
v -0.667167 0.240255 1.262823
v -0.611066 0.240204 1.313821
v -0.658723 0.240976 1.323988
v -0.655132 0.238012 1.320536
v -0.674494 0.248896 1.332024
v -0.663671 0.245584 1.328411
v -0.589846 0.181277 1.352318
v -0.643597 0.186269 1.350100
v -0.644755 0.188142 1.349474
v -0.600224 0.254063 1.303646
v -0.593309 0.252409 1.305229
v -0.588623 0.246630 1.294166
v -0.589649 0.251785 1.299225
v -0.597700 0.253631 1.295273
v -0.596746 0.248269 1.289563
v -0.655751 0.248324 1.316121
v -0.658513 0.249817 1.318669
v -0.691642 0.236651 1.322486
v -0.687044 0.243770 1.330388
v -0.609899 0.178293 1.320282
v -0.617823 0.176558 1.313635
v -0.614797 0.172848 1.320538
v -0.615529 0.167080 1.329293
v -0.626336 0.181447 1.338861
v -0.624090 0.176932 1.336948
v -0.645542 0.253558 1.307236
v -0.644064 0.240829 1.312812
v -0.603322 0.231161 1.311657
v -0.597783 0.232467 1.310407
v -0.638738 0.199816 1.337643
v -0.646963 0.176197 1.342165
v -0.642906 0.172387 1.334611
v -0.636162 0.192246 1.341281
v -0.587227 0.175374 1.357687
v -0.587622 0.178792 1.354138
v -0.621275 0.170272 1.322285
v -0.656233 0.207411 1.348142
v -0.652379 0.180208 1.341931
v -0.646453 0.180394 1.348201
v -0.681384 0.211805 1.357327
v -0.678774 0.238861 1.267434
v -0.605283 0.178834 1.353041
v -0.603809 0.181941 1.359218
v -0.596261 0.172379 1.365223
v -0.591177 0.171749 1.361321
v -0.685735 0.251443 1.322574
v -0.652446 0.235708 1.318584
v -0.600972 0.238574 1.284806
v -0.590465 0.239580 1.291317
v -0.635273 0.188272 1.342591
v -0.673749 0.192322 1.349802
v -0.663602 0.181823 1.342762
v -0.658028 0.179843 1.351111
v -0.650512 0.179569 1.349836
v -0.644883 0.183699 1.350536
v -0.594664 0.177255 1.369081
v -0.589376 0.176947 1.365524
v -0.586139 0.180389 1.361221
v -0.586900 0.182721 1.357075
v -0.590133 0.184112 1.354515
v -0.598643 0.179683 1.369453
v -0.601330 0.181923 1.367307
v -0.603104 0.183532 1.361313
v -0.598996 0.184284 1.370621
v -0.593986 0.185332 1.372283
v -0.586677 0.194668 1.364361
v -0.585983 0.188616 1.364933
v -0.586808 0.190371 1.367066
v -0.587477 0.195415 1.367426
v -0.588450 0.200241 1.369275
v -0.587553 0.200206 1.365864
v -0.589057 0.186886 1.369471
v -0.590285 0.193619 1.370688
v -0.594009 0.192823 1.372588
v -0.594202 0.198292 1.373963
v -0.590815 0.199162 1.372492
v -0.592764 0.188268 1.371953
v -0.588528 0.184222 1.369221
v -0.589541 0.203631 1.368343
v -0.589290 0.202735 1.370680
v -0.591611 0.202203 1.373003
v -0.592922 0.204769 1.371936
v -0.586996 0.187419 1.359127
v -0.587506 0.195310 1.361943
v -0.589884 0.200670 1.363793
v -0.591662 0.203930 1.366505
v -0.591166 0.196724 1.360578
v -0.592702 0.200608 1.362840
v -0.594662 0.203172 1.365255
v -0.595489 0.197278 1.360601
v -0.595942 0.200434 1.363030
v -0.594561 0.187318 1.355922
v -0.590401 0.186554 1.355772
v -0.596551 0.202504 1.364384
v -0.594758 0.205095 1.370769
v -0.597194 0.190902 1.372629
v -0.597339 0.198021 1.373280
v -0.599413 0.191048 1.371607
v -0.599618 0.197944 1.372694
v -0.596536 0.202360 1.374235
v -0.594220 0.201272 1.374120
v -0.595288 0.184881 1.354349
v -0.600799 0.184494 1.357361
v -0.600273 0.186364 1.358686
v -0.599930 0.196256 1.362481
v -0.602708 0.185885 1.362468
v -0.601599 0.186129 1.368171
v -0.601294 0.192698 1.369819
v -0.602126 0.194263 1.366771
v -0.600924 0.198058 1.370478
v -0.600945 0.198538 1.367948
v -0.599269 0.199911 1.364663
v -0.599606 0.201906 1.370226
v -0.598232 0.202314 1.372819
v -0.596933 0.203955 1.368407
v -0.600139 0.201207 1.368497
v -0.597971 0.202286 1.366633
v -0.617697 0.187728 1.365284
v -0.623189 0.189363 1.368215
v -0.624086 0.186645 1.365026
v -0.619470 0.185240 1.362549
v -0.613633 0.175088 1.370450
v -0.612603 0.180492 1.366993
v -0.614477 0.176270 1.363432
v -0.617144 0.170657 1.366987
v -0.619466 0.172467 1.374517
v -0.623229 0.168955 1.370480
v -0.620113 0.168837 1.361872
v -0.617225 0.174699 1.358781
v -0.627232 0.177056 1.340953
v -0.630745 0.171539 1.342128
v -0.638521 0.188178 1.349808
v -0.640692 0.185890 1.351774
v -0.614753 0.184950 1.365337
v -0.616224 0.181486 1.362144
v -0.632905 0.184611 1.367415
v -0.629059 0.187494 1.364666
v -0.628253 0.187170 1.367643
v -0.631244 0.184010 1.371070
v -0.628485 0.185158 1.342512
v -0.633798 0.186714 1.345955
v -0.626953 0.181775 1.341393
v -0.634505 0.178432 1.369601
v -0.632817 0.171726 1.369543
v -0.642405 0.172575 1.351192
v -0.643460 0.178163 1.353903
v -0.617403 0.180073 1.358123
v -0.623834 0.187322 1.361973
v -0.619789 0.185134 1.359189
v -0.626919 0.168000 1.365164
v -0.629079 0.173185 1.374630
v -0.623083 0.188939 1.385947
v -0.628640 0.181830 1.378180
v -0.629133 0.186219 1.375297
v -0.624637 0.193408 1.383669
v -0.631515 0.179082 1.373919
v -0.625469 0.176769 1.378313
v -0.614228 0.197713 1.374792
v -0.619977 0.198760 1.377379
v -0.610363 0.195176 1.375003
v -0.636965 0.169894 1.345561
v -0.608971 0.185549 1.379272
v -0.608518 0.191351 1.376019
v -0.627580 0.189136 1.371315
v -0.623633 0.197341 1.380596
v -0.620091 0.185343 1.386336
v -0.614246 0.182165 1.382737
v -0.617918 0.189598 1.389653
v -0.611909 0.188032 1.387121
v -0.606886 0.191462 1.383032
v -0.607359 0.195958 1.378885
v -0.609840 0.198401 1.377042
v -0.621354 0.192800 1.389037
v -0.623192 0.196659 1.386286
v -0.622389 0.199142 1.381541
v -0.620812 0.198859 1.391124
v -0.616997 0.197169 1.393133
v -0.606218 0.212614 1.389755
v -0.606028 0.206739 1.388128
v -0.607081 0.206233 1.390544
v -0.607147 0.211539 1.392225
v -0.605960 0.200180 1.388197
v -0.607318 0.201399 1.390202
v -0.610881 0.199016 1.392207
v -0.610864 0.205244 1.393429
v -0.615650 0.204377 1.394329
v -0.615326 0.209706 1.396535
v -0.610598 0.210751 1.395902
v -0.614489 0.200033 1.393585
v -0.607974 0.214673 1.393906
v -0.608407 0.216969 1.392675
v -0.610384 0.195535 1.391577
v -0.606417 0.199756 1.381895
v -0.606543 0.208266 1.385447
v -0.607709 0.214497 1.387512
v -0.610799 0.218332 1.391311
v -0.609635 0.210384 1.383350
v -0.610533 0.215580 1.386285
v -0.613113 0.218159 1.389795
v -0.614182 0.211664 1.382334
v -0.614762 0.216160 1.385931
v -0.614034 0.202176 1.377533
v -0.609510 0.201322 1.378469
v -0.614833 0.217432 1.388229
v -0.611598 0.216912 1.396406
v -0.613749 0.218535 1.394360
v -0.610962 0.215097 1.396587
v -0.617793 0.204239 1.394250
v -0.617308 0.210564 1.395954
v -0.620227 0.205377 1.393182
v -0.619169 0.211992 1.395214
v -0.615888 0.214917 1.397282
v -0.614378 0.214123 1.397590
v -0.613921 0.199756 1.376550
v -0.619280 0.199942 1.378461
v -0.619540 0.201817 1.378991
v -0.619197 0.210912 1.384172
v -0.622771 0.200615 1.382499
v -0.622690 0.200176 1.388177
v -0.621838 0.206374 1.391019
v -0.621875 0.208870 1.387767
v -0.620809 0.212602 1.393868
v -0.621103 0.212673 1.390554
v -0.618576 0.215058 1.387124
v -0.618683 0.216598 1.394797
v -0.617142 0.215945 1.396511
v -0.615198 0.218459 1.392614
v -0.619610 0.215921 1.392033
v -0.616915 0.217511 1.390028
v -0.636492 0.195404 1.372753
v -0.641777 0.196750 1.374716
v -0.643125 0.195416 1.371742
v -0.638072 0.193639 1.369908
v -0.633339 0.183615 1.376785
v -0.631730 0.187868 1.374766
v -0.633587 0.185382 1.371034
v -0.635801 0.180443 1.371990
v -0.637138 0.182342 1.380987
v -0.640730 0.178045 1.374934
v -0.638295 0.178453 1.367257
v -0.635443 0.183847 1.367200
v -0.642754 0.183965 1.354242
v -0.646267 0.178539 1.355376
v -0.633358 0.192058 1.373288
v -0.634943 0.190175 1.370192
v -0.650795 0.192939 1.374263
v -0.647364 0.195755 1.372072
v -0.647445 0.194464 1.374849
v -0.649546 0.191390 1.377332
v -0.645543 0.193864 1.354043
v -0.650968 0.195393 1.356092
v -0.642784 0.189774 1.354234
v -0.651992 0.186468 1.375524
v -0.649973 0.179559 1.373975
v -0.658271 0.182580 1.362157
v -0.659154 0.188617 1.362723
v -0.635833 0.189016 1.367112
v -0.642999 0.196365 1.369005
v -0.638255 0.193981 1.367282
v -0.644088 0.177129 1.369800
v -0.646406 0.180597 1.378706
v -0.640098 0.194313 1.395413
v -0.647241 0.187222 1.382867
v -0.647908 0.192626 1.380405
v -0.641966 0.198011 1.393772
v -0.649547 0.186074 1.379661
v -0.643290 0.183076 1.383051
v -0.632163 0.203959 1.385391
v -0.637494 0.203886 1.387113
v -0.629131 0.200816 1.385019
v -0.652740 0.177403 1.358341
v -0.657055 0.194341 1.360723
v -0.627119 0.194741 1.388887
v -0.627338 0.198231 1.386307
v -0.646104 0.195444 1.377636
v -0.641420 0.201707 1.390710
v -0.636338 0.191262 1.394725
v -0.630856 0.190739 1.391634
v -0.635513 0.195006 1.399220
v -0.629874 0.195200 1.396586
v -0.626185 0.199029 1.393993
v -0.626805 0.202270 1.390956
v -0.628770 0.204490 1.389194
v -0.639552 0.197717 1.399234
v -0.641171 0.200639 1.397115
v -0.640704 0.202452 1.392187
v -0.639974 0.201088 1.401568
v -0.634997 0.200271 1.403839
v -0.627850 0.215515 1.405256
v -0.627268 0.210909 1.401742
v -0.627824 0.210304 1.402690
v -0.628198 0.214505 1.406615
v -0.626545 0.204425 1.399541
v -0.627386 0.205440 1.401191
v -0.629838 0.202668 1.402788
v -0.630783 0.207976 1.406447
v -0.636674 0.206560 1.406477
v -0.636392 0.210805 1.409169
v -0.630995 0.212195 1.409749
v -0.634176 0.202143 1.404279
v -0.629269 0.216392 1.408972
v -0.628183 0.217978 1.408690
v -0.629464 0.200380 1.401701
v -0.626128 0.206465 1.394998
v -0.627203 0.212717 1.399429
v -0.627747 0.217611 1.402817
v -0.629877 0.219870 1.406002
v -0.629943 0.214281 1.397259
v -0.630278 0.218239 1.400969
v -0.632051 0.220296 1.403902
v -0.633073 0.214765 1.396380
v -0.633391 0.218080 1.399955
v -0.632350 0.207388 1.390034
v -0.628700 0.207323 1.391892
v -0.633878 0.219624 1.402638
v -0.632040 0.217068 1.411455
v -0.634638 0.219383 1.409063
v -0.631748 0.215525 1.410727
v -0.638362 0.205933 1.405999
v -0.638650 0.211462 1.409419
v -0.640621 0.206762 1.404470
v -0.640759 0.212287 1.407856
v -0.636692 0.214598 1.411365
v -0.635676 0.214021 1.411104
v -0.632483 0.205211 1.388083
v -0.637405 0.204609 1.389188
v -0.637146 0.206455 1.390632
v -0.637718 0.214293 1.397127
v -0.640568 0.204322 1.393315
v -0.641415 0.203807 1.399310
v -0.641468 0.208981 1.402130
v -0.640739 0.211921 1.399784
v -0.641403 0.213690 1.405491
v -0.640503 0.214555 1.402906
v -0.637512 0.217606 1.400398
v -0.639183 0.216741 1.407067
v -0.638577 0.215835 1.409798
v -0.635905 0.219866 1.406222
v -0.639263 0.217211 1.404640
v -0.636700 0.219469 1.403897
v -0.654703 0.195818 1.358542
v -0.653123 0.205173 1.377559
v -0.656763 0.206685 1.379412
v -0.657319 0.205923 1.379111
v -0.654101 0.204604 1.376178
v -0.652017 0.193806 1.378674
v -0.650120 0.198094 1.377482
v -0.651880 0.195895 1.374351
v -0.654098 0.191862 1.375291
v -0.656502 0.191948 1.381153
v -0.658816 0.190733 1.378471
v -0.656719 0.191989 1.372294
v -0.654139 0.195818 1.371171
v -0.663891 0.195782 1.357511
v -0.668735 0.192842 1.357301
v -0.677699 0.209287 1.362533
v -0.673449 0.212261 1.360273
v -0.670408 0.209504 1.368473
v -0.674445 0.206893 1.369382
v -0.650903 0.202002 1.377081
v -0.651984 0.200978 1.374336
v -0.665910 0.202906 1.382587
v -0.662490 0.205948 1.380595
v -0.660860 0.206031 1.381505
v -0.664105 0.203995 1.384462
v -0.668400 0.210780 1.359229
v -0.665319 0.206769 1.358306
v -0.663521 0.206849 1.362282
v -0.665857 0.208847 1.366740
v -0.661731 0.201798 1.360723
v -0.667048 0.198497 1.382415
v -0.665704 0.193037 1.380015
v -0.678601 0.198146 1.365762
v -0.677798 0.202822 1.367719
v -0.653300 0.199936 1.372874
v -0.658710 0.206173 1.377468
v -0.655262 0.204201 1.375815
v -0.661602 0.190434 1.375210
v -0.662995 0.193979 1.382893
v -0.660094 0.202674 1.391933
v -0.663886 0.199982 1.386731
v -0.663580 0.204589 1.385130
v -0.660817 0.205669 1.390460
v -0.664725 0.199460 1.385108
v -0.660912 0.195282 1.385683
v -0.651351 0.208687 1.382063
v -0.656182 0.209366 1.384581
v -0.648803 0.206438 1.381702
v -0.674554 0.193536 1.360054
v -0.647880 0.199628 1.384808
v -0.647219 0.203650 1.382965
v -0.660189 0.206579 1.382158
v -0.659518 0.208337 1.387706
v -0.656922 0.198991 1.391625
v -0.652134 0.196718 1.387944
v -0.654379 0.201834 1.394378
v -0.649684 0.200152 1.390841
v -0.646176 0.204120 1.386894
v -0.647216 0.206792 1.384207
v -0.649250 0.208914 1.382973
v -0.658462 0.204900 1.394021
v -0.659750 0.207086 1.392196
v -0.659107 0.209025 1.388682
v -0.656819 0.207515 1.396293
v -0.652055 0.207408 1.396789
v -0.647454 0.219499 1.393257
v -0.647088 0.215904 1.391045
v -0.647106 0.215393 1.392136
v -0.646897 0.219038 1.394081
v -0.646228 0.210479 1.389753
v -0.646672 0.211291 1.391383
v -0.648006 0.208431 1.393404
v -0.648043 0.213314 1.395814
v -0.652492 0.212596 1.398825
v -0.651960 0.216425 1.400344
v -0.647907 0.216607 1.397777
v -0.650850 0.208817 1.396753
v -0.646803 0.220770 1.396291
v -0.646935 0.222193 1.396182
v -0.647596 0.206004 1.392886
v -0.647558 0.211654 1.386054
v -0.647982 0.217810 1.389477
v -0.648132 0.221846 1.392721
v -0.648820 0.223654 1.396108
v -0.650076 0.218076 1.388122
v -0.650057 0.222760 1.391827
v -0.650801 0.224324 1.395119
v -0.653417 0.218134 1.387859
v -0.652620 0.222306 1.391616
v -0.653855 0.212735 1.384451
v -0.650332 0.212674 1.384526
v -0.652272 0.223607 1.394408
v -0.648453 0.221381 1.399732
v -0.650720 0.223121 1.398821
v -0.647997 0.219798 1.399687
v -0.653836 0.212402 1.399101
v -0.653373 0.217112 1.400893
v -0.656196 0.212816 1.398623
v -0.655145 0.218128 1.400166
v -0.651506 0.220101 1.401274
v -0.650352 0.218667 1.400753
v -0.652723 0.210854 1.383382
v -0.656072 0.210357 1.385215
v -0.657263 0.211837 1.386709
v -0.656914 0.217079 1.389872
v -0.659627 0.210008 1.390527
v -0.659099 0.208464 1.394179
v -0.658014 0.213946 1.396911
v -0.658765 0.215553 1.393989
v -0.656207 0.219357 1.398716
v -0.656914 0.220261 1.395909
v -0.655604 0.221444 1.393044
v -0.653815 0.222314 1.398708
v -0.652887 0.221726 1.400244
v -0.652293 0.223602 1.397545
v -0.654661 0.222533 1.396990
v -0.653723 0.223196 1.395768
v -0.679032 0.205421 1.363212
v -0.580015 0.231804 1.301213
v -0.583762 0.229733 1.305112
v -0.585346 0.241568 1.316731
v -0.586177 0.234566 1.315010
v -0.581860 0.247320 1.314478
v -0.575940 0.249079 1.305228
v -0.579559 0.249897 1.309738
v -0.585792 0.230457 1.310585
v -0.577110 0.236837 1.298918
v -0.575343 0.244132 1.299989
v -0.568506 0.230318 1.302601
v -0.565564 0.239055 1.304734
v -0.566011 0.244090 1.310391
v -0.573341 0.246325 1.314487
v -0.577305 0.245350 1.317659
v -0.576636 0.228133 1.304826
v -0.581014 0.227513 1.307995
v -0.583818 0.230248 1.313492
v -0.576311 0.223519 1.310824
v -0.570604 0.223240 1.318297
v -0.568126 0.231645 1.336633
v -0.568818 0.235015 1.330399
v -0.567866 0.232635 1.329676
v -0.566966 0.229849 1.335477
v -0.567329 0.235568 1.324461
v -0.567722 0.233316 1.324941
v -0.568115 0.229412 1.321313
v -0.567804 0.226881 1.327227
v -0.570493 0.224874 1.320946
v -0.571453 0.222593 1.325065
v -0.567362 0.224233 1.332651
v -0.566022 0.226596 1.337882
v -0.567084 0.222178 1.337145
v -0.567814 0.227463 1.340127
v -0.564455 0.229113 1.318574
v -0.569996 0.241140 1.322366
v -0.570975 0.237596 1.330543
v -0.571165 0.233342 1.337452
v -0.570851 0.228167 1.340814
v -0.575052 0.238143 1.330950
v -0.575166 0.233459 1.336446
v -0.575139 0.228343 1.338981
v -0.579369 0.236043 1.330301
v -0.578173 0.231471 1.334847
v -0.581626 0.240456 1.321205
v -0.576098 0.243291 1.321844
v -0.576973 0.228318 1.336964
v -0.568447 0.221423 1.339420
v -0.571759 0.222178 1.339852
v -0.573672 0.220914 1.323257
v -0.570769 0.219879 1.329952
v -0.573302 0.218962 1.329557
v -0.577208 0.220734 1.321717
v -0.575985 0.218893 1.329527
v -0.571326 0.218399 1.334993
v -0.569198 0.219621 1.333942
v -0.581939 0.241551 1.319126
v -0.584138 0.235695 1.317160
v -0.584183 0.235202 1.318320
v -0.582616 0.231035 1.327326
v -0.584480 0.229487 1.315786
v -0.581094 0.225366 1.312569
v -0.580573 0.221922 1.322376
v -0.582868 0.225602 1.324198
v -0.578696 0.221007 1.330003
v -0.579950 0.223677 1.330608
v -0.580021 0.227800 1.333149
v -0.576699 0.221255 1.334939
v -0.574279 0.218880 1.335161
v -0.575501 0.223894 1.338233
v -0.578048 0.223312 1.333976
v -0.577556 0.225599 1.336086
v -0.674849 0.215439 1.356207
v -0.668417 0.213966 1.354747
v -0.670242 0.218954 1.351878
v -0.670828 0.226977 1.347471
v -0.677668 0.233967 1.343582
v -0.665025 0.224925 1.343973
v -0.664555 0.216787 1.348923
v -0.662100 0.209272 1.352892
v -0.661110 0.228956 1.335341
f 2 3 1
f 1 3 4
f 5 6 8
f 8 6 7
f 9 4 10
f 10 4 3
f 12 13 11
f 11 13 9
f 14 12 16
f 16 12 15
f 18 19 17
f 17 19 20
f 22 23 21
f 21 23 24
f 26 27 25
f 25 27 28
f 30 31 29
f 29 31 32
f 33 34 36
f 36 34 35
f 37 38 40
f 40 38 39
f 41 42 6
f 6 42 43
f 6 43 7
f 7 43 44
f 45 34 46
f 46 34 33
f 48 49 47
f 47 49 50
f 52 53 51
f 51 53 54
f 56 52 55
f 55 52 51
f 58 59 57
f 57 59 60
f 61 62 4
f 4 62 1
f 64 65 63
f 63 65 66
f 68 69 67
f 67 69 70
f 72 73 71
f 71 73 74
f 76 77 75
f 75 77 78
f 53 79 54
f 54 79 80
f 82 83 81
f 81 83 84
f 85 86 52
f 52 86 53
f 57 60 87
f 87 60 88
f 89 90 43
f 43 90 44
f 43 42 89
f 89 42 91
f 40 39 92
f 92 39 93
f 94 70 64
f 64 70 69
f 13 61 9
f 9 61 4
f 25 28 69
f 69 28 95
f 96 25 68
f 68 25 69
f 98 99 97
f 97 99 100
f 101 102 104
f 104 102 103
f 106 30 105
f 105 30 29
f 51 54 107
f 107 54 108
f 54 80 108
f 108 80 109
f 111 112 110
f 110 112 113
f 115 5 114
f 114 5 116
f 115 41 5
f 5 41 6
f 36 35 111
f 111 35 117
f 35 118 117
f 117 118 119
f 34 120 35
f 35 120 118
f 34 45 120
f 120 45 121
f 125 126 124
f 124 126 127
f 128 129 14
f 14 129 130
f 33 131 46
f 46 131 132
f 133 94 63
f 63 94 64
f 134 135 137
f 137 135 136
f 139 140 138
f 138 140 141
f 77 142 78
f 78 142 143
f 144 145 20
f 20 145 146
f 148 149 147
f 147 149 72
f 151 152 150
f 150 152 153
f 82 101 83
f 83 101 104
f 101 82 155
f 155 82 154
f 156 157 58
f 58 157 59
f 158 68 147
f 147 68 67
f 159 146 15
f 15 146 16
f 68 158 96
f 96 158 160
f 129 66 130
f 130 66 65
f 162 163 161
f 161 163 164
f 166 167 165
f 165 167 168
f 170 171 169
f 169 171 172
f 174 171 173
f 173 171 170
f 176 177 175
f 175 177 178
f 180 181 179
f 179 181 24
f 182 183 21
f 21 183 184
f 81 185 82
f 82 185 154
f 186 187 188
f 188 187 144
f 158 71 160
f 160 71 189
f 190 135 157
f 157 135 59
f 169 172 139
f 139 172 140
f 147 72 158
f 158 72 71
f 192 193 191
f 191 193 194
f 167 166 49
f 49 166 195
f 196 190 50
f 50 190 157
f 197 198 200
f 200 198 199
f 21 24 182
f 182 24 181
f 146 159 20
f 20 159 17
f 182 181 81
f 81 181 185
f 201 185 180
f 180 185 181
f 202 203 83
f 83 203 84
f 205 206 204
f 204 206 85
f 207 22 184
f 184 22 21
f 179 24 208
f 208 24 23
f 208 209 179
f 179 209 205
f 209 210 205
f 205 210 206
f 212 206 211
f 211 206 210
f 179 205 180
f 180 205 204
f 213 176 88
f 88 176 214
f 86 85 212
f 212 85 206
f 193 217 218
f 217 219 218
f 218 219 220
f 219 18 220
f 220 18 17
f 19 221 20
f 20 221 144
f 222 223 225
f 225 223 224
f 175 226 176
f 176 226 214
f 227 87 214
f 214 87 88
f 220 17 228
f 228 17 159
f 134 213 60
f 60 213 88
f 138 229 151
f 151 229 152
f 193 192 210
f 210 192 211
f 230 194 218
f 218 194 193
f 231 232 228
f 228 232 230
f 233 234 91
f 91 234 89
f 235 236 93
f 93 236 92
f 230 232 234
f 234 232 237
f 47 238 48
f 48 238 239
f 240 191 235
f 235 191 236
f 5 8 116
f 116 8 241
f 242 243 189
f 189 243 160
f 244 245 98
f 98 245 99
f 156 246 47
f 47 246 238
f 76 247 77
f 77 247 248
f 250 125 249
f 249 125 124
f 252 253 251
f 251 253 254
f 111 110 36
f 36 110 255
f 256 33 255
f 255 33 36
f 257 258 154
f 154 258 155
f 63 169 133
f 133 169 139
f 66 170 63
f 63 170 169
f 173 170 129
f 129 170 66
f 129 128 173
f 173 128 259
f 128 260 259
f 259 260 261
f 213 134 262
f 262 134 137
f 263 264 186
f 186 264 187
f 112 265 113
f 113 265 266
f 11 267 268
f 234 233 230
f 230 233 194
f 153 269 70
f 70 269 67
f 175 178 165
f 165 178 141
f 150 153 94
f 94 153 70
f 271 221 270
f 270 221 207
f 269 153 272
f 272 153 152
f 121 45 109
f 109 45 108
f 47 50 156
f 156 50 157
f 57 273 58
f 58 273 274
f 145 275 260
f 260 275 261
f 276 149 143
f 143 149 78
f 148 269 75
f 75 269 272
f 207 277 270
f 270 277 278
f 195 196 49
f 49 196 50
f 59 135 60
f 60 135 134
f 83 104 202
f 202 104 279
f 149 148 78
f 78 148 75
f 247 278 248
f 248 278 277
f 183 182 84
f 84 182 81
f 48 239 281
f 281 239 282
f 227 223 283
f 283 223 222
f 223 226 224
f 224 226 168
f 281 282 224
f 224 282 225
f 165 168 175
f 175 168 226
f 264 263 138
f 138 263 229
f 14 16 128
f 128 16 260
f 220 228 218
f 218 228 230
f 87 227 284
f 284 227 283
f 260 16 145
f 145 16 146
f 244 98 258
f 258 98 155
f 58 274 156
f 156 274 246
f 107 285 51
f 51 285 55
f 243 286 160
f 160 286 96
f 234 237 89
f 89 237 90
f 46 132 107
f 107 132 285
f 253 252 249
f 249 252 250
f 286 26 96
f 96 26 25
f 106 105 287
f 287 105 288
f 272 152 289
f 289 152 229
f 138 151 139
f 139 151 133
f 183 290 161
f 161 290 162
f 291 292 277
f 277 292 293
f 151 150 133
f 133 150 94
f 262 275 177
f 177 275 187
f 144 187 145
f 145 187 275
f 273 57 284
f 284 57 87
f 174 136 190
f 190 136 135
f 111 117 112
f 112 117 38
f 117 119 38
f 38 119 123
f 112 38 265
f 265 38 37
f 287 288 254
f 254 288 251
f 228 159 231
f 231 159 15
f 223 227 226
f 226 227 214
f 147 67 148
f 148 67 269
f 224 168 281
f 281 168 167
f 199 163 200
f 200 163 162
f 45 46 108
f 108 46 107
f 281 167 48
f 48 167 49
f 161 164 291
f 291 164 292
f 38 123 39
f 293 294 277
f 277 294 248
f 284 283 296
f 296 283 295
f 284 296 273
f 273 296 297
f 274 273 298
f 298 273 297
f 246 274 299
f 299 274 298
f 283 222 295
f 295 222 300
f 222 225 300
f 300 225 301
f 301 225 302
f 302 225 282
f 303 304 300
f 300 304 295
f 306 307 305
f 305 307 308
f 309 310 308
f 308 310 305
f 308 307 312
f 312 307 311
f 313 314 312
f 312 314 315
f 311 316 312
f 312 316 313
f 317 304 311
f 311 304 316
f 315 309 312
f 312 309 308
f 318 319 321
f 321 319 320
f 319 318 309
f 309 318 310
f 311 307 317
f 317 307 306
f 306 297 317
f 317 297 296
f 306 322 297
f 297 322 298
f 305 323 306
f 306 323 322
f 323 305 324
f 324 305 310
f 304 317 295
f 295 317 296
f 318 325 310
f 310 325 324
f 323 324 326
f 326 324 327
f 324 325 327
f 327 325 328
f 326 327 329
f 329 327 330
f 329 331 326
f 326 331 332
f 333 330 328
f 328 330 327
f 323 326 322
f 322 326 332
f 322 332 298
f 298 332 299
f 325 318 334
f 334 318 321
f 313 316 335
f 335 316 304
f 335 336 313
f 313 336 314
f 304 303 335
f 335 303 337
f 336 335 338
f 338 335 337
f 336 339 314
f 314 339 340
f 246 299 238
f 238 299 341
f 239 342 282
f 282 342 302
f 342 239 341
f 341 239 238
f 341 331 342
f 342 331 343
f 331 329 343
f 343 329 344
f 342 343 302
f 302 343 345
f 341 299 331
f 331 299 332
f 346 301 345
f 345 301 302
f 346 303 301
f 301 303 300
f 347 337 346
f 346 337 303
f 347 346 348
f 348 346 345
f 349 347 350
f 350 347 348
f 343 344 345
f 345 344 348
f 344 351 348
f 348 351 350
f 337 347 338
f 338 347 349
f 353 338 352
f 352 338 349
f 352 355 354
f 354 355 356
f 352 349 355
f 355 349 350
f 352 354 353
f 353 354 334
f 353 334 339
f 339 334 321
f 339 336 353
f 353 336 338
f 329 330 344
f 344 330 351
f 356 351 333
f 333 351 330
f 356 355 351
f 351 355 350
f 354 356 328
f 328 356 333
f 328 325 354
f 354 325 334
f 309 315 319
f 319 315 320
f 320 340 321
f 321 340 339
f 320 315 340
f 340 315 314
f 137 136 261
f 261 136 259
f 140 166 141
f 141 166 165
f 172 171 195
f 195 171 196
f 171 174 196
f 196 174 190
f 178 177 264
f 264 177 187
f 172 195 140
f 140 195 166
f 137 261 262
f 262 261 275
f 178 264 141
f 141 264 138
f 262 177 213
f 213 177 176
f 136 174 259
f 259 174 173
f 358 359 357
f 357 359 360
f 362 363 361
f 361 363 364
f 361 364 365
f 365 364 366
f 367 368 370
f 370 368 369
f 76 371 247
f 247 371 372
f 373 374 362
f 362 374 363
f 376 377 375
f 375 377 378
f 289 229 380
f 380 229 379
f 381 379 263
f 263 379 229
f 383 384 382
f 382 384 385
f 386 368 374
f 374 368 363
f 76 289 371
f 371 289 380
f 377 376 359
f 359 376 387
f 388 386 360
f 360 386 374
f 389 383 366
f 366 383 390
f 392 393 391
f 391 393 394
f 383 382 390
f 390 382 395
f 396 365 390
f 390 365 366
f 389 366 367
f 367 366 364
f 357 397 358
f 358 397 398
f 373 399 357
f 357 399 397
f 389 367 400
f 400 367 370
f 382 385 375
f 375 385 372
f 357 360 373
f 373 360 374
f 361 401 362
f 362 401 402
f 387 388 359
f 359 388 360
f 363 368 364
f 364 368 367
f 358 398 403
f 403 398 404
f 396 392 405
f 405 392 391
f 392 395 393
f 393 395 378
f 393 403 394
f 394 403 404
f 375 378 382
f 382 378 395
f 365 396 406
f 406 396 405
f 362 402 373
f 373 402 399
f 271 270 400
f 400 270 384
f 401 361 406
f 406 361 365
f 381 369 386
f 386 369 368
f 392 396 395
f 395 396 390
f 393 378 403
f 403 378 377
f 403 377 358
f 358 377 359
f 406 405 408
f 408 405 407
f 406 408 401
f 401 408 409
f 401 409 402
f 402 409 410
f 402 410 399
f 399 410 411
f 405 391 407
f 407 391 412
f 391 394 412
f 412 394 413
f 394 404 413
f 413 404 414
f 415 416 412
f 412 416 407
f 418 419 417
f 417 419 420
f 421 422 418
f 418 422 419
f 419 422 424
f 424 422 423
f 425 426 424
f 424 426 427
f 423 428 424
f 424 428 425
f 427 420 424
f 424 420 419
f 420 429 417
f 417 429 430
f 423 422 431
f 431 422 421
f 421 409 431
f 431 409 408
f 421 432 409
f 409 432 410
f 418 433 421
f 421 433 432
f 434 433 417
f 417 433 418
f 431 416 423
f 423 416 428
f 416 431 407
f 407 431 408
f 435 434 430
f 430 434 417
f 433 434 436
f 436 434 437
f 434 435 437
f 437 435 438
f 436 437 439
f 439 437 440
f 439 441 436
f 436 441 442
f 438 443 437
f 437 443 440
f 436 442 433
f 433 442 432
f 432 442 410
f 410 442 411
f 435 430 445
f 445 430 444
f 430 429 444
f 444 429 446
f 425 428 447
f 447 428 416
f 426 425 448
f 448 425 447
f 416 415 447
f 447 415 449
f 447 449 448
f 448 449 450
f 451 452 448
f 448 452 426
f 446 452 444
f 444 452 451
f 399 411 397
f 397 411 453
f 398 454 404
f 404 454 414
f 454 398 453
f 453 398 397
f 453 441 454
f 454 441 455
f 441 439 455
f 455 439 456
f 454 455 414
f 414 455 457
f 441 453 442
f 442 453 411
f 458 413 457
f 457 413 414
f 458 415 413
f 413 415 412
f 458 459 415
f 415 459 449
f 459 458 460
f 460 458 457
f 461 459 462
f 462 459 460
f 455 456 457
f 457 456 460
f 456 463 460
f 460 463 462
f 459 461 449
f 449 461 450
f 465 450 464
f 464 450 461
f 464 467 466
f 466 467 468
f 464 461 467
f 467 461 462
f 464 466 465
f 465 466 445
f 465 445 451
f 451 445 444
f 451 448 465
f 465 448 450
f 439 440 456
f 456 440 463
f 468 463 443
f 443 463 440
f 468 467 463
f 463 467 462
f 466 468 438
f 438 468 443
f 438 435 466
f 466 435 445
f 420 427 429
f 429 427 446
f 446 427 452
f 452 427 426
f 370 369 188
f 188 369 186
f 371 376 372
f 372 376 375
f 380 379 387
f 387 379 388
f 379 381 388
f 388 381 386
f 385 384 278
f 278 384 270
f 380 387 371
f 371 387 376
f 400 370 271
f 271 370 188
f 385 278 372
f 372 278 247
f 400 384 389
f 389 384 383
f 369 381 186
f 186 381 263
f 221 271 144
f 144 271 188
f 221 19 207
f 207 19 22
f 19 18 22
f 22 18 23
f 18 219 23
f 23 219 208
f 469 470 472
f 472 470 471
f 474 475 473
f 473 475 476
f 473 476 477
f 477 476 478
f 480 481 479
f 479 481 482
f 483 484 474
f 474 484 475
f 486 487 485
f 485 487 488
f 489 490 77
f 77 490 142
f 491 489 248
f 248 489 77
f 493 494 492
f 492 494 495
f 496 480 484
f 484 480 475
f 486 497 487
f 487 497 471
f 498 496 472
f 472 496 484
f 499 493 478
f 478 493 500
f 501 502 504
f 504 502 503
f 493 492 500
f 500 492 505
f 506 477 500
f 500 477 478
f 499 478 479
f 479 478 476
f 469 507 470
f 470 507 508
f 483 509 469
f 469 509 507
f 479 482 499
f 499 482 510
f 492 495 485
f 485 495 511
f 483 469 484
f 484 469 472
f 473 512 474
f 474 512 513
f 497 498 471
f 471 498 472
f 475 480 476
f 476 480 479
f 470 508 514
f 514 508 515
f 506 502 516
f 516 502 501
f 503 502 488
f 488 502 505
f 514 515 503
f 503 515 504
f 485 488 492
f 492 488 505
f 477 506 517
f 517 506 516
f 474 513 483
f 483 513 509
f 510 292 494
f 494 292 164
f 512 473 517
f 517 473 477
f 491 481 496
f 496 481 480
f 502 506 505
f 505 506 500
f 503 488 514
f 514 488 487
f 514 487 470
f 470 487 471
f 517 516 519
f 519 516 518
f 517 519 512
f 512 519 520
f 512 520 513
f 513 520 521
f 513 521 509
f 509 521 522
f 516 501 518
f 518 501 523
f 501 504 523
f 523 504 524
f 524 504 525
f 525 504 515
f 526 527 523
f 523 527 518
f 529 530 528
f 528 530 531
f 532 533 529
f 529 533 530
f 530 533 535
f 535 533 534
f 536 537 535
f 535 537 538
f 534 539 535
f 535 539 536
f 538 531 535
f 535 531 530
f 540 541 531
f 531 541 528
f 533 532 534
f 534 532 542
f 532 520 542
f 542 520 519
f 532 543 520
f 520 543 521
f 529 544 532
f 532 544 543
f 544 529 545
f 545 529 528
f 534 542 539
f 539 542 527
f 527 542 518
f 518 542 519
f 541 546 528
f 528 546 545
f 547 544 548
f 548 544 545
f 546 549 545
f 545 549 548
f 550 547 551
f 551 547 548
f 547 550 553
f 553 550 552
f 549 554 548
f 548 554 551
f 544 547 543
f 543 547 553
f 543 553 521
f 521 553 522
f 546 541 556
f 556 541 555
f 541 540 555
f 555 540 557
f 536 539 558
f 558 539 527
f 537 536 559
f 559 536 558
f 527 526 558
f 558 526 560
f 559 558 561
f 561 558 560
f 559 562 537
f 537 562 563
f 557 563 555
f 555 563 562
f 509 522 507
f 507 522 564
f 508 565 515
f 515 565 525
f 565 508 564
f 564 508 507
f 564 552 565
f 565 552 566
f 552 550 566
f 566 550 567
f 565 566 525
f 525 566 568
f 564 522 552
f 552 522 553
f 569 524 568
f 568 524 525
f 569 526 524
f 524 526 523
f 570 560 569
f 569 560 526
f 570 569 571
f 571 569 568
f 572 570 573
f 573 570 571
f 566 567 568
f 568 567 571
f 567 574 571
f 571 574 573
f 570 572 560
f 560 572 561
f 576 561 575
f 575 561 572
f 575 578 577
f 577 578 579
f 575 572 578
f 578 572 573
f 575 577 576
f 576 577 556
f 576 556 562
f 562 556 555
f 562 559 576
f 576 559 561
f 550 551 567
f 567 551 574
f 579 574 554
f 554 574 551
f 579 578 574
f 574 578 573
f 579 554 577
f 577 554 549
f 549 546 577
f 577 546 556
f 531 538 540
f 540 538 557
f 557 538 563
f 563 538 537
f 481 294 482
f 482 294 293
f 580 486 511
f 511 486 485
f 490 489 497
f 497 489 498
f 489 491 498
f 498 491 496
f 163 495 164
f 164 495 494
f 580 490 486
f 486 490 497
f 482 293 510
f 510 293 292
f 495 163 511
f 511 163 199
f 494 493 510
f 510 493 499
f 481 491 294
f 294 491 248
f 582 583 581
f 581 583 584
f 586 587 585
f 585 587 588
f 585 588 589
f 589 588 590
f 592 593 591
f 591 593 594
f 595 596 598
f 598 596 597
f 599 600 586
f 586 600 587
f 601 602 604
f 604 602 603
f 605 606 608
f 608 606 607
f 609 607 200
f 200 607 606
f 610 611 613
f 613 611 612
f 600 614 587
f 587 614 592
f 596 605 597
f 597 605 608
f 602 615 603
f 603 615 583
f 616 614 584
f 584 614 600
f 611 618 617
f 617 618 590
f 620 621 619
f 619 621 622
f 610 623 611
f 611 623 618
f 624 589 618
f 618 589 590
f 617 590 591
f 591 590 588
f 581 625 582
f 582 625 626
f 599 627 581
f 581 627 625
f 591 594 617
f 617 594 628
f 601 610 598
f 598 610 613
f 581 584 599
f 599 584 600
f 585 629 586
f 586 629 630
f 615 616 583
f 583 616 584
f 587 592 588
f 588 592 591
f 582 626 631
f 631 626 632
f 624 620 633
f 633 620 619
f 621 620 604
f 604 620 623
f 631 632 621
f 621 632 622
f 610 601 623
f 623 601 604
f 589 624 634
f 634 624 633
f 586 630 599
f 599 630 627
f 203 202 628
f 628 202 612
f 629 585 634
f 634 585 589
f 609 593 614
f 614 593 592
f 620 624 623
f 623 624 618
f 631 621 603
f 603 621 604
f 582 631 583
f 583 631 603
f 634 633 636
f 636 633 635
f 634 636 629
f 629 636 637
f 629 637 630
f 630 637 638
f 630 638 627
f 627 638 639
f 633 619 635
f 635 619 640
f 619 622 640
f 640 622 641
f 641 622 642
f 642 622 632
f 644 635 643
f 643 635 640
f 645 646 648
f 648 646 647
f 649 650 646
f 646 650 647
f 647 650 652
f 652 650 651
f 652 653 655
f 655 653 654
f 651 656 652
f 652 656 653
f 655 648 652
f 652 648 647
f 648 657 645
f 645 657 658
f 650 649 651
f 651 649 659
f 649 637 659
f 659 637 636
f 649 660 637
f 637 660 638
f 661 660 646
f 646 660 649
f 662 661 645
f 645 661 646
f 651 659 656
f 656 659 644
f 644 659 635
f 635 659 636
f 663 662 658
f 658 662 645
f 664 661 665
f 665 661 662
f 663 666 662
f 662 666 665
f 667 664 668
f 668 664 665
f 664 667 670
f 670 667 669
f 666 671 665
f 665 671 668
f 661 664 660
f 660 664 670
f 660 670 638
f 638 670 639
f 658 672 663
f 663 672 673
f 658 657 672
f 672 657 674
f 653 656 675
f 675 656 644
f 653 675 654
f 654 675 676
f 675 644 677
f 677 644 643
f 676 675 678
f 678 675 677
f 679 680 676
f 676 680 654
f 674 680 672
f 672 680 679
f 627 639 625
f 625 639 681
f 626 682 632
f 632 682 642
f 681 682 625
f 625 682 626
f 669 683 681
f 681 683 682
f 667 684 669
f 669 684 683
f 682 683 642
f 642 683 685
f 681 639 669
f 669 639 670
f 686 641 685
f 685 641 642
f 641 686 640
f 640 686 643
f 686 687 643
f 643 687 677
f 687 686 688
f 688 686 685
f 689 687 690
f 690 687 688
f 683 684 685
f 685 684 688
f 684 691 688
f 688 691 690
f 687 689 677
f 677 689 678
f 693 678 692
f 692 678 689
f 692 695 694
f 694 695 696
f 692 689 695
f 695 689 690
f 692 694 693
f 693 694 673
f 693 673 679
f 679 673 672
f 679 676 693
f 693 676 678
f 684 667 691
f 691 667 668
f 696 691 671
f 671 691 668
f 696 695 691
f 691 695 690
f 694 696 666
f 666 696 671
f 666 663 694
f 694 663 673
f 648 655 657
f 657 655 674
f 674 655 680
f 680 655 654
f 593 162 594
f 594 162 290
f 598 597 601
f 601 597 602
f 615 608 616
f 616 608 607
f 607 609 616
f 616 609 614
f 697 595 613
f 613 595 598
f 597 608 602
f 602 608 615
f 594 290 628
f 628 290 203
f 628 612 617
f 617 612 611
f 593 609 162
f 162 609 200
f 105 29 698
f 698 29 699
f 268 126 701
f 701 126 700
f 126 125 700
f 700 125 702
f 252 703 250
f 250 703 704
f 32 268 705
f 705 268 701
f 288 105 706
f 706 105 698
f 29 32 699
f 699 32 705
f 707 251 706
f 706 251 288
f 250 704 125
f 125 704 702
f 703 252 707
f 707 252 251
f 706 708 707
f 707 708 709
f 707 709 703
f 703 709 710
f 703 710 704
f 704 710 711
f 704 711 702
f 702 711 712
f 706 698 708
f 708 698 713
f 698 699 713
f 713 699 714
f 699 705 714
f 714 705 715
f 717 708 716
f 716 708 713
f 719 720 718
f 718 720 721
f 722 723 719
f 719 723 720
f 724 725 723
f 723 725 720
f 724 726 725
f 725 726 727
f 728 721 725
f 725 721 720
f 721 728 729
f 729 728 730
f 729 731 721
f 721 731 718
f 724 723 732
f 732 723 722
f 722 710 732
f 732 710 709
f 722 733 710
f 710 733 711
f 719 734 722
f 722 734 733
f 734 719 735
f 735 719 718
f 724 732 726
f 726 732 717
f 717 732 708
f 708 732 709
f 731 736 718
f 718 736 735
f 737 734 738
f 738 734 735
f 736 739 735
f 735 739 738
f 740 737 741
f 741 737 738
f 737 740 743
f 743 740 742
f 739 744 738
f 738 744 741
f 734 737 733
f 733 737 743
f 733 743 711
f 711 743 712
f 736 731 746
f 746 731 745
f 731 729 745
f 745 729 730
f 727 726 747
f 747 726 717
f 748 727 749
f 749 727 747
f 747 717 750
f 750 717 716
f 749 747 751
f 751 747 750
f 749 752 748
f 748 752 753
f 730 753 745
f 745 753 752
f 728 725 748
f 748 725 727
f 730 728 753
f 753 728 748
f 700 702 754
f 754 702 712
f 705 701 715
f 715 701 755
f 754 755 700
f 700 755 701
f 742 756 754
f 754 756 755
f 740 757 742
f 742 757 756
f 755 756 715
f 715 756 758
f 754 712 742
f 742 712 743
f 759 714 758
f 758 714 715
f 714 759 713
f 713 759 716
f 759 760 716
f 716 760 750
f 760 759 761
f 761 759 758
f 762 760 763
f 763 760 761
f 756 757 758
f 758 757 761
f 757 764 761
f 761 764 763
f 760 762 750
f 750 762 751
f 766 751 765
f 765 751 762
f 767 765 769
f 769 765 768
f 765 762 768
f 768 762 763
f 765 767 766
f 766 767 746
f 766 746 752
f 752 746 745
f 752 749 766
f 766 749 751
f 757 740 764
f 764 740 741
f 769 764 744
f 744 764 741
f 769 768 764
f 764 768 763
f 767 769 739
f 739 769 744
f 739 736 767
f 767 736 746
f 219 217 208
f 208 217 209
f 209 217 210
f 210 217 193
f 198 580 199
f 199 580 511
f 76 75 289
f 289 75 272
f 277 207 291
f 291 207 184
f 290 183 203
f 203 183 84
f 490 580 142
f 142 580 198
f 142 198 143
f 143 198 197
f 149 276 72
f 72 276 73
f 104 103 279
f 279 103 770
f 770 596 279
f 279 596 595
f 605 596 771
f 771 596 770
f 771 770 772
f 772 770 103
f 772 103 773
f 773 103 102
f 155 774 101
f 101 774 102
f 773 102 97
f 97 102 774
f 775 773 100
f 100 773 97
f 773 775 772
f 772 775 776
f 772 776 771
f 771 776 777
f 200 606 197
f 197 606 777
f 189 71 778
f 778 71 74
f 97 774 98
f 98 774 155
f 183 161 184
f 184 161 291
f 777 276 197
f 197 276 143
f 777 606 771
f 771 606 605
f 613 612 697
f 697 612 202
f 595 697 279
f 279 697 202
f 73 276 776
f 776 276 777
f 776 775 73
f 73 775 74
f 100 778 775
f 775 778 74
f 778 100 189
f 189 100 99
f 245 242 99
f 99 242 189
f 131 33 256
f 28 1 95
f 95 1 62
f 27 2 28
f 28 2 1
f 265 115 266
f 266 115 114
f 95 62 69
f 69 62 64
f 62 61 64
f 64 61 65
f 61 13 65
f 65 13 130
f 13 12 130
f 130 12 14
f 31 11 32
f 32 11 268
f 15 12 31
f 31 12 11
f 31 30 15
f 15 30 231
f 30 106 231
f 231 106 232
f 287 237 106
f 106 237 232
f 254 90 287
f 287 90 237
f 253 44 254
f 254 44 90
f 253 249 44
f 44 249 7
f 267 127 268
f 268 127 126
f 10 3 241
f 241 3 116
f 3 2 116
f 116 2 114
f 2 27 114
f 114 27 266
f 27 26 266
f 266 26 113
f 26 286 113
f 113 286 110
f 286 243 110
f 110 243 255
f 243 242 255
f 255 242 256
f 242 245 256
f 256 245 131
f 245 244 131
f 131 244 132
f 265 37 115
f 115 37 41
f 41 37 42
f 42 37 40
f 92 91 40
f 40 91 42
f 236 233 92
f 92 233 91
f 191 194 236
f 236 194 233
f 258 285 244
f 244 285 132
f 257 55 258
f 258 55 285
f 257 154 201
f 201 154 185
f 56 201 204
f 204 201 180
f 55 257 56
f 56 257 201
f 204 85 56
f 56 85 52
f 86 122 53
f 53 122 79
f 212 215 86
f 86 215 122
f 211 216 212
f 212 216 215
f 192 280 211
f 211 280 216
f 191 240 192
f 192 240 280
f 249 124 7
f 7 124 8
f 124 127 8
f 8 127 241
f 127 267 241
f 241 267 10
f 10 267 9
f 9 267 11
o hand_right
v 0.694435 0.107907 1.372776
v 0.696185 0.117210 1.370149
v 0.684557 0.117563 1.372770
v 0.683596 0.107192 1.374785
v 0.692395 0.139093 1.368408
v 0.689445 0.147313 1.359069
v 0.674855 0.144452 1.364944
v 0.680020 0.138884 1.372324
v 0.674803 0.106318 1.373945
v 0.676479 0.118044 1.374167
v 0.670992 0.107040 1.368455
v 0.672219 0.091754 1.365518
v 0.675364 0.094480 1.372303
v 0.673766 0.081781 1.366567
v 0.676056 0.091790 1.354617
v 0.679017 0.075232 1.360888
v 0.707087 0.083859 1.350693
v 0.720579 0.084633 1.353506
v 0.717095 0.069367 1.363118
v 0.703446 0.070705 1.360147
v 0.735790 0.078335 1.367680
v 0.725350 0.072786 1.365620
v 0.729262 0.086971 1.355067
v 0.738271 0.091368 1.357568
v 0.712359 0.111192 1.371442
v 0.715741 0.119978 1.367849
v 0.708944 0.117947 1.367818
v 0.706227 0.110189 1.371040
v 0.661843 0.117246 1.362994
v 0.668110 0.112121 1.353283
v 0.668987 0.107101 1.359929
v 0.664325 0.116968 1.367822
v 0.730962 0.145504 1.363824
v 0.734031 0.152236 1.352406
v 0.728621 0.151940 1.350131
v 0.727167 0.145206 1.360900
v 0.706851 0.150183 1.349851
v 0.712885 0.152136 1.342187
v 0.707765 0.152517 1.328809
v 0.701310 0.148188 1.333796
v 0.698607 0.148458 1.355651
v 0.693668 0.148443 1.342045
v 0.685046 0.147480 1.347887
v 0.669881 0.145088 1.356591
v 0.746590 0.150833 1.355049
v 0.746081 0.146146 1.364141
v 0.662944 0.079516 1.406100
v 0.668615 0.080594 1.407936
v 0.669575 0.079964 1.404680
v 0.664018 0.078653 1.403189
v 0.759735 0.135609 1.351889
v 0.760887 0.128918 1.344388
v 0.763049 0.135421 1.341800
v 0.760272 0.142072 1.347914
v 0.758965 0.127089 1.357143
v 0.757292 0.120245 1.348287
v 0.658589 0.069132 1.412196
v 0.657345 0.073388 1.409375
v 0.658466 0.069943 1.405608
v 0.660310 0.065105 1.408038
v 0.682482 0.097375 1.376097
v 0.692307 0.099836 1.376922
v 0.683202 0.082349 1.382450
v 0.687445 0.087801 1.380674
v 0.681010 0.088330 1.376896
v 0.678478 0.082894 1.378203
v 0.710770 0.091995 1.383136
v 0.713280 0.101612 1.377090
v 0.706736 0.099902 1.376434
v 0.702360 0.089927 1.383085
v 0.726173 0.105019 1.382104
v 0.722798 0.095003 1.387226
v 0.730616 0.098092 1.389325
v 0.731320 0.105253 1.386155
v 0.714456 0.077844 1.393550
v 0.712875 0.073697 1.394694
v 0.716239 0.075867 1.397340
v 0.718003 0.079373 1.394455
v 0.765041 0.141260 1.338223
v 0.760086 0.147946 1.343535
v 0.754094 0.088352 1.375233
v 0.758538 0.097957 1.379576
v 0.758316 0.086798 1.388336
v 0.753738 0.078474 1.380983
v 0.755973 0.122829 1.337517
v 0.760412 0.128714 1.334730
v 0.663251 0.066065 1.415403
v 0.664901 0.062358 1.411825
v 0.685054 0.139669 1.337583
v 0.667792 0.139065 1.348979
v 0.696531 0.140497 1.330285
v 0.703992 0.141751 1.324665
v 0.708417 0.145636 1.319042
v 0.692468 0.084655 1.384373
v 0.701337 0.102902 1.374859
v 0.717439 0.112308 1.372603
v 0.744501 0.116797 1.387312
v 0.746058 0.125841 1.382170
v 0.735747 0.122586 1.381587
v 0.736695 0.114969 1.385766
v 0.757083 0.104412 1.387080
v 0.750369 0.106822 1.391290
v 0.750031 0.098878 1.395356
v 0.756678 0.094699 1.392892
v 0.657038 0.121514 1.358605
v 0.667275 0.117985 1.347816
v 0.754833 0.142370 1.358491
v 0.753592 0.147856 1.353017
v 0.754639 0.152865 1.346191
v 0.722171 0.132819 1.366180
v 0.724503 0.144993 1.359041
v 0.720139 0.144135 1.358677
v 0.719171 0.130875 1.365203
v 0.700764 0.127475 1.369471
v 0.704995 0.139817 1.364392
v 0.689071 0.127865 1.373410
v 0.721909 0.152830 1.346039
v 0.730421 0.159210 1.342859
v 0.722727 0.158928 1.338389
v 0.739868 0.158314 1.345540
v 0.748481 0.156281 1.346995
v 0.765103 0.133302 1.329245
v 0.715991 0.156960 1.333618
v 0.671415 0.137530 1.374196
v 0.664916 0.135299 1.377047
v 0.667947 0.128293 1.377153
v 0.673510 0.129274 1.374929
v 0.674102 0.073564 1.370858
v 0.674435 0.079686 1.374949
v 0.674865 0.087048 1.371465
v 0.733540 0.137480 1.371740
v 0.746266 0.138441 1.371836
v 0.687375 0.079750 1.386325
v 0.663228 0.063289 1.402242
v 0.660896 0.068446 1.399752
v 0.670173 0.069781 1.381318
v 0.672490 0.063341 1.383575
v 0.689014 0.072724 1.390652
v 0.685979 0.078818 1.388071
v 0.685382 0.078158 1.389491
v 0.688042 0.074137 1.394210
v 0.724969 0.079423 1.398683
v 0.725979 0.082996 1.395871
v 0.699786 0.061119 1.373225
v 0.687776 0.060753 1.365701
v 0.690136 0.071928 1.357117
v 0.717792 0.094112 1.384736
v 0.716310 0.085614 1.390272
v 0.720285 0.086524 1.391298
v 0.694720 0.081478 1.386885
v 0.691711 0.076437 1.389172
v 0.696498 0.076646 1.388880
v 0.699798 0.082533 1.387190
v 0.759496 0.108319 1.370866
v 0.758098 0.115622 1.379978
v 0.658987 0.076978 1.406932
v 0.659917 0.074945 1.403501
v 0.720089 0.103520 1.378796
v 0.694535 0.085545 1.350265
v 0.722578 0.113664 1.374296
v 0.737310 0.069806 1.388423
v 0.737906 0.074794 1.395583
v 0.735131 0.073517 1.399892
v 0.733751 0.068479 1.396836
v 0.680280 0.073209 1.407374
v 0.677399 0.078081 1.405432
v 0.674836 0.078134 1.407672
v 0.677551 0.073665 1.410680
v 0.681962 0.081188 1.384430
v 0.677177 0.080833 1.380742
v 0.675651 0.080557 1.384110
v 0.680857 0.080156 1.387468
v 0.673549 0.076870 1.377445
v 0.671591 0.076118 1.381366
v 0.679421 0.066727 1.408629
v 0.674083 0.061209 1.408217
v 0.684144 0.060684 1.391697
v 0.687045 0.066758 1.396060
v 0.741206 0.102372 1.347105
v 0.750451 0.106400 1.352027
v 0.747969 0.095338 1.362432
v 0.746574 0.083209 1.372279
v 0.743453 0.072282 1.381580
v 0.734049 0.066841 1.375951
v 0.754408 0.099787 1.365346
v 0.695412 0.065905 1.384802
v 0.691097 0.060758 1.380883
v 0.697064 0.061914 1.380608
v 0.728650 0.115681 1.378237
v 0.662036 0.073975 1.398464
v 0.718502 0.126461 1.317773
v 0.730892 0.122566 1.319558
v 0.726256 0.117003 1.324630
v 0.712447 0.121872 1.323269
v 0.671780 0.080493 1.402147
v 0.665962 0.079196 1.399121
v 0.731767 0.083818 1.399176
v 0.729965 0.079798 1.401470
v 0.732790 0.078473 1.402663
v 0.735958 0.082544 1.402920
v 0.754839 0.110017 1.354087
v 0.754830 0.082263 1.396836
v 0.750997 0.074633 1.389108
v 0.752305 0.115684 1.342765
v 0.744615 0.111879 1.337969
v 0.747656 0.118710 1.331605
v 0.720020 0.062445 1.378160
v 0.733563 0.098522 1.345386
v 0.737573 0.109293 1.336247
v 0.740880 0.117344 1.328560
v 0.744116 0.122701 1.322943
v 0.751159 0.123745 1.326945
v 0.668224 0.060917 1.405982
v 0.671426 0.063091 1.414451
v 0.756013 0.128387 1.320762
v 0.747601 0.127487 1.316896
v 0.728760 0.107584 1.334135
v 0.717657 0.106817 1.332450
v 0.725129 0.097383 1.343239
v 0.713711 0.095585 1.342115
v 0.713025 0.057722 1.370594
v 0.670920 0.076294 1.425927
v 0.674348 0.070192 1.417840
v 0.676008 0.074783 1.414498
v 0.673607 0.079031 1.423826
v 0.676639 0.068237 1.413201
v 0.669858 0.066673 1.418036
v 0.698623 0.098702 1.341709
v 0.694653 0.072118 1.389563
v 0.701295 0.113460 1.332553
v 0.680157 0.101770 1.344918
v 0.682319 0.114489 1.339563
v 0.702499 0.129144 1.324090
v 0.688704 0.127791 1.331839
v 0.713453 0.137478 1.314401
v 0.709094 0.132203 1.319400
v 0.673776 0.128784 1.340452
v 0.664561 0.085696 1.413938
v 0.670288 0.085109 1.415533
v 0.722402 0.131398 1.312345
v 0.679857 0.128280 1.374605
v 0.728327 0.125504 1.373613
v 0.723754 0.123304 1.370840
v 0.746334 0.130991 1.378352
v 0.734646 0.129104 1.377154
v 0.659547 0.083643 1.414614
v 0.713833 0.071320 1.395560
v 0.715104 0.072951 1.395662
v 0.666656 0.142747 1.369476
v 0.660990 0.140180 1.372802
v 0.653361 0.135001 1.363282
v 0.655668 0.139753 1.368293
v 0.661727 0.142893 1.362391
v 0.659239 0.138038 1.356668
v 0.724488 0.134021 1.367410
v 0.727886 0.134911 1.369366
v 0.759504 0.118466 1.363801
v 0.757634 0.124986 1.373245
v 0.673707 0.070766 1.375467
v 0.678874 0.066066 1.368910
v 0.677345 0.064360 1.375604
v 0.678722 0.059838 1.385585
v 0.693812 0.069393 1.388875
v 0.690931 0.067106 1.389253
v 0.712896 0.141563 1.361737
v 0.711753 0.128350 1.366189
v 0.671842 0.119968 1.373141
v 0.667582 0.120812 1.373707
v 0.707596 0.084768 1.387429
v 0.713843 0.061564 1.388188
v 0.707676 0.058348 1.381585
v 0.705071 0.077093 1.390701
v 0.657435 0.078136 1.420546
v 0.657467 0.081476 1.416884
v 0.683220 0.060435 1.376876
v 0.727749 0.089701 1.393949
v 0.719343 0.064212 1.387193
v 0.715439 0.065657 1.393588
v 0.754635 0.090828 1.397389
v 0.734517 0.128468 1.313889
v 0.674201 0.079219 1.411273
v 0.674181 0.082927 1.418312
v 0.667166 0.074150 1.425958
v 0.661495 0.074099 1.423486
v 0.755365 0.133690 1.366757
v 0.720477 0.121498 1.369370
v 0.661936 0.129338 1.349684
v 0.654348 0.128625 1.359141
v 0.703971 0.073021 1.390928
v 0.742969 0.072940 1.390737
v 0.730321 0.064351 1.385615
v 0.726699 0.063238 1.395131
v 0.719115 0.064088 1.395541
v 0.714583 0.069001 1.397219
v 0.667078 0.078746 1.429798
v 0.661222 0.079103 1.427772
v 0.657611 0.083201 1.424572
v 0.657717 0.085792 1.420497
v 0.660454 0.086845 1.417162
v 0.671087 0.080829 1.429398
v 0.673412 0.083069 1.427002
v 0.674040 0.084889 1.420817
v 0.672048 0.085092 1.431146
v 0.667752 0.086052 1.434016
v 0.659620 0.096615 1.430112
v 0.658769 0.090686 1.429629
v 0.660071 0.091952 1.431765
v 0.661038 0.096712 1.433056
v 0.662627 0.100933 1.435641
v 0.661106 0.101599 1.432487
v 0.662566 0.088118 1.432832
v 0.664337 0.094247 1.435158
v 0.668318 0.092996 1.436003
v 0.669108 0.097870 1.438527
v 0.665512 0.099117 1.438030
v 0.666712 0.088842 1.434631
v 0.661942 0.085785 1.432224
v 0.663771 0.104327 1.435158
v 0.663902 0.102991 1.437318
v 0.666600 0.101884 1.438974
v 0.667880 0.104572 1.438152
v 0.658394 0.090356 1.423500
v 0.659991 0.097578 1.427711
v 0.663019 0.102315 1.430070
v 0.665513 0.104877 1.432977
v 0.663356 0.098985 1.425818
v 0.665564 0.102296 1.428544
v 0.668128 0.104286 1.430971
v 0.667579 0.099331 1.424999
v 0.668726 0.101990 1.427971
v 0.665066 0.090064 1.418267
v 0.660953 0.089688 1.419196
v 0.669723 0.103755 1.429602
v 0.669474 0.105022 1.436645
v 0.671291 0.091095 1.434887
v 0.672049 0.097719 1.437106
v 0.673196 0.091339 1.433450
v 0.674150 0.097699 1.435966
v 0.671739 0.101667 1.439119
v 0.669337 0.100687 1.439309
v 0.665419 0.087000 1.415783
v 0.671174 0.086139 1.417510
v 0.671020 0.088573 1.419538
v 0.672175 0.097934 1.425656
v 0.674121 0.087550 1.422633
v 0.674212 0.087078 1.428629
v 0.674787 0.093152 1.431685
v 0.675081 0.095167 1.428876
v 0.674956 0.098160 1.433540
v 0.674469 0.099106 1.431178
v 0.672253 0.101103 1.428697
v 0.673896 0.101969 1.434420
v 0.673128 0.101883 1.437323
v 0.671043 0.104369 1.433662
v 0.673972 0.101584 1.432472
v 0.671569 0.103058 1.431378
v 0.692106 0.078757 1.415916
v 0.698242 0.080067 1.417084
v 0.698355 0.077286 1.413541
v 0.693101 0.076224 1.412605
v 0.688695 0.066812 1.422658
v 0.687170 0.072072 1.419213
v 0.687698 0.068044 1.415430
v 0.690695 0.062353 1.418647
v 0.695150 0.063926 1.425203
v 0.697298 0.060225 1.420533
v 0.692149 0.059846 1.413055
v 0.689101 0.065731 1.410208
v 0.694540 0.065105 1.390383
v 0.697772 0.059458 1.391177
v 0.709032 0.074599 1.395323
v 0.711504 0.072623 1.396952
v 0.689122 0.076231 1.416873
v 0.689551 0.072828 1.413379
v 0.707559 0.074220 1.413679
v 0.703412 0.077292 1.411570
v 0.703065 0.077436 1.415053
v 0.706582 0.074179 1.417788
v 0.696994 0.072969 1.390973
v 0.703219 0.073454 1.393016
v 0.694857 0.069849 1.390424
v 0.708902 0.068092 1.416067
v 0.706525 0.061685 1.417100
v 0.711401 0.059545 1.397260
v 0.713796 0.064982 1.399161
v 0.689617 0.070976 1.408963
v 0.697696 0.077583 1.410201
v 0.692816 0.075725 1.408844
v 0.699389 0.058442 1.414642
v 0.704428 0.063870 1.422671
v 0.702812 0.079792 1.434512
v 0.705651 0.072381 1.425493
v 0.705606 0.076650 1.422403
v 0.703889 0.084287 1.431922
v 0.707170 0.069460 1.420867
v 0.702297 0.067586 1.426853
v 0.691772 0.089264 1.426391
v 0.697905 0.089960 1.427347
v 0.688061 0.086885 1.427636
v 0.704359 0.057424 1.393160
v 0.687374 0.077256 1.432039
v 0.686392 0.083100 1.429043
v 0.703197 0.079624 1.418980
v 0.702179 0.088332 1.429362
v 0.699957 0.076242 1.435814
v 0.693256 0.073487 1.434037
v 0.699256 0.080305 1.439329
v 0.692629 0.079248 1.438761
v 0.686712 0.083437 1.436290
v 0.686323 0.088282 1.432447
v 0.688289 0.090714 1.430100
v 0.702522 0.083442 1.437763
v 0.703638 0.087557 1.434814
v 0.701451 0.090430 1.430590
v 0.703204 0.088600 1.440600
v 0.700142 0.086845 1.443412
v 0.690964 0.103236 1.446503
v 0.689493 0.097883 1.444018
v 0.691204 0.096831 1.445843
v 0.692402 0.101634 1.448387
v 0.688550 0.091417 1.442906
v 0.690687 0.092169 1.444567
v 0.694342 0.089238 1.444880
v 0.695469 0.094953 1.447254
v 0.700173 0.093621 1.446306
v 0.701221 0.098298 1.449481
v 0.696676 0.099790 1.450645
v 0.698305 0.089670 1.445161
v 0.694113 0.104243 1.450260
v 0.694488 0.106700 1.449283
v 0.693239 0.086055 1.443758
v 0.686911 0.092066 1.436565
v 0.689368 0.099782 1.441563
v 0.691962 0.105360 1.444224
v 0.696522 0.108094 1.447441
v 0.691937 0.101970 1.438924
v 0.694396 0.106414 1.442350
v 0.698237 0.108052 1.445232
v 0.696062 0.103079 1.436697
v 0.698339 0.106740 1.440721
v 0.692971 0.094655 1.430187
v 0.688989 0.093899 1.432485
v 0.699287 0.107526 1.443087
v 0.698632 0.105609 1.451783
v 0.700276 0.107421 1.449411
v 0.697817 0.103833 1.451924
v 0.702137 0.093334 1.445531
v 0.703063 0.099088 1.448462
v 0.704237 0.094432 1.443951
v 0.704822 0.100446 1.447408
v 0.702721 0.103122 1.450913
v 0.701260 0.102389 1.451587
v 0.692029 0.091960 1.428335
v 0.697612 0.091601 1.428569
v 0.698521 0.093731 1.429743
v 0.701193 0.101663 1.436616
v 0.702503 0.091780 1.431912
v 0.704208 0.090287 1.437489
v 0.705169 0.095681 1.441551
v 0.704526 0.098718 1.438868
v 0.705960 0.101214 1.445646
v 0.705217 0.101920 1.442437
v 0.702112 0.105115 1.440430
v 0.704789 0.105042 1.447875
v 0.703809 0.104182 1.449923
v 0.701108 0.107594 1.447270
v 0.704718 0.104868 1.444861
v 0.701800 0.107055 1.444111
v 0.713156 0.082196 1.420604
v 0.718862 0.082607 1.421394
v 0.719431 0.081073 1.418069
v 0.713856 0.080184 1.417370
v 0.709064 0.070865 1.425162
v 0.707798 0.075356 1.423470
v 0.708441 0.072855 1.419571
v 0.709998 0.067648 1.420185
v 0.713301 0.068885 1.428527
v 0.714945 0.064514 1.422064
v 0.711146 0.065286 1.415157
v 0.709253 0.071032 1.415528
v 0.713434 0.069734 1.401344
v 0.716136 0.063832 1.401951
v 0.709736 0.079337 1.421711
v 0.710318 0.077306 1.418391
v 0.727142 0.077263 1.418875
v 0.723825 0.080683 1.417317
v 0.724098 0.079342 1.420211
v 0.726177 0.075932 1.422255
v 0.717798 0.078833 1.400096
v 0.723694 0.079461 1.401039
v 0.714463 0.075412 1.401016
v 0.727491 0.070761 1.420069
v 0.724018 0.064386 1.419125
v 0.729952 0.065911 1.405735
v 0.732002 0.071687 1.405924
v 0.710403 0.076049 1.415190
v 0.719045 0.081988 1.415257
v 0.713659 0.080485 1.414675
v 0.717031 0.063030 1.416441
v 0.721621 0.065847 1.424455
v 0.720533 0.079652 1.441999
v 0.724324 0.072214 1.428204
v 0.725220 0.077548 1.425750
v 0.722467 0.083272 1.440337
v 0.725794 0.070709 1.424666
v 0.719827 0.068654 1.429242
v 0.712256 0.090733 1.434657
v 0.717755 0.089932 1.435091
v 0.708905 0.087997 1.434703
v 0.722879 0.061695 1.403462
v 0.730528 0.077602 1.404359
v 0.707033 0.081971 1.438578
v 0.707090 0.085557 1.436197
v 0.723404 0.080618 1.423387
v 0.721852 0.087164 1.437720
v 0.716417 0.077209 1.441945
v 0.710574 0.077498 1.440267
v 0.717196 0.080283 1.446436
v 0.711407 0.081173 1.445354
v 0.707855 0.085287 1.444359
v 0.707976 0.088740 1.441865
v 0.709689 0.091104 1.439946
v 0.721194 0.082542 1.446085
v 0.722648 0.085615 1.444181
v 0.721480 0.088083 1.439804
v 0.722566 0.085209 1.448767
v 0.718255 0.084115 1.451925
v 0.712656 0.097973 1.458497
v 0.711184 0.094592 1.454207
v 0.711858 0.093750 1.454888
v 0.713174 0.096685 1.459515
v 0.709719 0.089028 1.450710
v 0.710927 0.089532 1.452376
v 0.713441 0.086540 1.452672
v 0.715381 0.090577 1.457220
v 0.720966 0.089176 1.455613
v 0.721446 0.092437 1.459215
v 0.716421 0.093634 1.461279
v 0.717871 0.085631 1.453012
v 0.714839 0.097820 1.461895
v 0.713782 0.099458 1.462261
v 0.712635 0.084914 1.451133
v 0.708383 0.091881 1.446958
v 0.710748 0.096831 1.452438
v 0.712167 0.100667 1.456699
v 0.715044 0.101902 1.459765
v 0.713008 0.098773 1.450073
v 0.714311 0.101680 1.454512
v 0.716752 0.102858 1.457381
v 0.715806 0.099355 1.448533
v 0.717088 0.101726 1.452769
v 0.713391 0.093551 1.440626
v 0.710206 0.093213 1.443429
v 0.718199 0.102551 1.455626
v 0.718072 0.097783 1.463750
v 0.720239 0.100590 1.461454
v 0.717532 0.096500 1.462713
v 0.722419 0.088721 1.454566
v 0.723764 0.092987 1.459085
v 0.724257 0.089830 1.452707
v 0.725504 0.094201 1.457253
v 0.722425 0.095409 1.462040
v 0.721320 0.094954 1.461896
v 0.713171 0.091748 1.437892
v 0.718033 0.090775 1.437798
v 0.718004 0.092518 1.439971
v 0.720294 0.098684 1.448221
v 0.721614 0.089867 1.441476
v 0.723612 0.088192 1.446868
v 0.724672 0.092453 1.450821
v 0.723570 0.095769 1.449495
v 0.725704 0.096126 1.455202
v 0.724229 0.097582 1.453214
v 0.721060 0.101154 1.452218
v 0.724043 0.098603 1.457940
v 0.723998 0.097034 1.460410
v 0.720913 0.101826 1.458644
v 0.723607 0.099666 1.455750
v 0.721156 0.102062 1.456165
v 0.727944 0.079315 1.402678
v 0.730252 0.087499 1.421951
v 0.734291 0.088616 1.423118
v 0.735031 0.087860 1.422366
v 0.731224 0.087033 1.420109
v 0.728345 0.076357 1.422984
v 0.726616 0.080741 1.422254
v 0.727684 0.078778 1.418653
v 0.729602 0.074584 1.419090
v 0.732946 0.074112 1.424593
v 0.734610 0.072916 1.421254
v 0.731493 0.074460 1.415662
v 0.729259 0.078602 1.415157
v 0.735600 0.077845 1.400436
v 0.739711 0.074215 1.399212
v 0.752069 0.088704 1.403435
v 0.747789 0.092306 1.402006
v 0.746497 0.089858 1.410456
v 0.750089 0.086605 1.410375
v 0.727660 0.084557 1.421808
v 0.728329 0.083766 1.418708
v 0.743972 0.083846 1.423958
v 0.740670 0.087341 1.422786
v 0.738979 0.087524 1.424017
v 0.742446 0.085016 1.426201
v 0.742486 0.091564 1.401933
v 0.738705 0.087819 1.401441
v 0.738232 0.088383 1.405660
v 0.741661 0.090030 1.409708
v 0.735443 0.083885 1.404248
v 0.744415 0.079371 1.423578
v 0.741874 0.074201 1.421428
v 0.751801 0.077427 1.405624
v 0.752251 0.082081 1.407883
v 0.729325 0.082789 1.416953
v 0.736348 0.088145 1.420598
v 0.732472 0.086667 1.419481
v 0.736574 0.072262 1.417552
v 0.739890 0.075351 1.424729
v 0.739444 0.083799 1.434887
v 0.742036 0.081003 1.428641
v 0.741793 0.085699 1.427310
v 0.740018 0.086786 1.433458
v 0.742703 0.080475 1.426594
v 0.738436 0.076608 1.428125
v 0.729318 0.090849 1.427400
v 0.734596 0.091081 1.428852
v 0.726607 0.088792 1.427463
v 0.745946 0.073896 1.400655
v 0.725873 0.081934 1.430435
v 0.725080 0.086040 1.428914
v 0.738134 0.088093 1.425118
v 0.738373 0.089631 1.431167
v 0.736081 0.080369 1.435121
v 0.730465 0.078648 1.432553
v 0.734410 0.083159 1.438547
v 0.728970 0.082042 1.436146
v 0.724958 0.086455 1.433311
v 0.725536 0.089173 1.430579
v 0.727387 0.091247 1.429035
v 0.738496 0.085971 1.437418
v 0.739485 0.088207 1.435443
v 0.738233 0.090423 1.432289
v 0.737659 0.088458 1.440192
v 0.733160 0.088570 1.441815
v 0.728850 0.101198 1.440317
v 0.727711 0.097864 1.438006
v 0.727932 0.097250 1.439015
v 0.728445 0.100702 1.441209
v 0.726144 0.092642 1.436567
v 0.727017 0.093269 1.438089
v 0.728552 0.090172 1.439547
v 0.729507 0.094785 1.442209
v 0.734446 0.093513 1.444068
v 0.734564 0.097201 1.445914
v 0.730071 0.097879 1.444358
v 0.732089 0.090047 1.442170
v 0.728990 0.102213 1.443486
v 0.729200 0.103628 1.443462
v 0.727835 0.087861 1.438992
v 0.726652 0.094010 1.432740
v 0.728369 0.099834 1.436425
v 0.729565 0.103529 1.439822
v 0.731134 0.104957 1.443069
v 0.730107 0.100062 1.434646
v 0.731305 0.104401 1.438587
v 0.732886 0.105606 1.441715
v 0.733278 0.099919 1.433608
v 0.733703 0.103790 1.437751
v 0.732455 0.094779 1.429745
v 0.729065 0.094929 1.430669
v 0.734093 0.104848 1.440636
v 0.731409 0.102384 1.446470
v 0.733542 0.104059 1.445216
v 0.730838 0.100860 1.446414
v 0.735799 0.093216 1.443995
v 0.736107 0.097744 1.446161
v 0.738029 0.093533 1.442993
v 0.737740 0.098718 1.445124
v 0.734613 0.100782 1.447174
v 0.733268 0.099485 1.446819
v 0.730982 0.092975 1.428703
v 0.734632 0.092129 1.429662
v 0.736191 0.093492 1.431031
v 0.737026 0.098470 1.434646
v 0.739239 0.091243 1.434067
v 0.739444 0.089437 1.437639
v 0.739480 0.094694 1.440983
v 0.739649 0.096494 1.438086
v 0.738543 0.100008 1.443568
v 0.738662 0.101116 1.440753
v 0.736837 0.102608 1.438372
v 0.736450 0.103078 1.444336
v 0.735849 0.102408 1.445991
v 0.734820 0.104554 1.443660
v 0.736901 0.103403 1.442495
v 0.735774 0.104227 1.441581
v 0.752827 0.084649 1.403603
v 0.648555 0.118993 1.370848
v 0.653416 0.116835 1.373187
v 0.658211 0.127672 1.384837
v 0.658829 0.121002 1.382281
v 0.653870 0.133178 1.384445
v 0.645430 0.135105 1.377640
v 0.650081 0.135861 1.380921
v 0.657156 0.117238 1.377848
v 0.644902 0.123842 1.370048
v 0.643343 0.130740 1.372362
v 0.638541 0.117250 1.375475
v 0.636276 0.125293 1.379007
v 0.638119 0.129882 1.384509
v 0.645872 0.131925 1.386747
v 0.650639 0.130877 1.388584
v 0.646587 0.114878 1.375199
v 0.651804 0.114055 1.376936
v 0.656272 0.116416 1.381453
v 0.647683 0.109787 1.381057
v 0.643708 0.108785 1.389724
v 0.645274 0.115695 1.408578
v 0.644793 0.119592 1.402704
v 0.643600 0.117237 1.402026
v 0.643758 0.113992 1.407563
v 0.642177 0.120618 1.397350
v 0.642542 0.118297 1.397598
v 0.642027 0.114652 1.393723
v 0.642743 0.111669 1.399179
v 0.644092 0.110090 1.392445
v 0.645722 0.107465 1.395933
v 0.643254 0.108596 1.404239
v 0.643170 0.110573 1.409795
v 0.643813 0.106172 1.408468
v 0.645515 0.111199 1.411667
v 0.638178 0.114652 1.392038
v 0.644540 0.126359 1.394953
v 0.647117 0.122139 1.402461
v 0.648558 0.117230 1.408768
v 0.648692 0.111740 1.411717
v 0.651278 0.122600 1.401875
v 0.652309 0.117341 1.406851
v 0.652555 0.111969 1.408941
v 0.655259 0.120491 1.400019
v 0.654857 0.115475 1.404439
v 0.655527 0.125810 1.390464
v 0.650358 0.128528 1.392917
v 0.653950 0.112100 1.406549
v 0.645638 0.105166 1.410353
v 0.649079 0.105771 1.410132
v 0.647510 0.105901 1.393556
v 0.645865 0.104341 1.400542
v 0.648310 0.103381 1.399521
v 0.650669 0.105832 1.391228
v 0.650978 0.103273 1.398886
v 0.647422 0.102401 1.405171
v 0.645114 0.103790 1.404704
v 0.655735 0.127184 1.388183
v 0.657562 0.121639 1.385135
v 0.657438 0.120748 1.386692
v 0.657609 0.115708 1.395947
v 0.656971 0.115193 1.383915
v 0.652757 0.111285 1.381590
v 0.654169 0.106945 1.391137
v 0.656978 0.110497 1.392559
v 0.653865 0.105282 1.398929
v 0.655352 0.107880 1.399430
v 0.656147 0.111883 1.402115
v 0.652922 0.105125 1.404169
v 0.650435 0.102797 1.404726
v 0.652533 0.107526 1.407840
v 0.654163 0.107237 1.403087
v 0.654208 0.109380 1.405399
v 0.748583 0.095321 1.397966
v 0.741803 0.094686 1.397887
v 0.743543 0.099532 1.395272
v 0.743977 0.107810 1.391883
v 0.750489 0.114519 1.387207
v 0.737275 0.106696 1.389723
v 0.737076 0.098180 1.393619
v 0.734625 0.090787 1.397252
v 0.731918 0.112030 1.382803
f 780 781 779
f 779 781 782
f 783 784 786
f 786 784 785
f 787 782 788
f 788 782 781
f 790 791 789
f 789 791 787
f 792 790 794
f 794 790 793
f 796 797 795
f 795 797 798
f 800 801 799
f 799 801 802
f 804 805 803
f 803 805 806
f 808 809 807
f 807 809 810
f 811 812 814
f 814 812 813
f 815 816 818
f 818 816 817
f 819 820 784
f 784 820 821
f 784 821 785
f 785 821 822
f 823 812 824
f 824 812 811
f 826 827 825
f 825 827 828
f 830 831 829
f 829 831 832
f 834 830 833
f 833 830 829
f 836 837 835
f 835 837 838
f 839 840 782
f 782 840 779
f 842 843 841
f 841 843 844
f 846 847 845
f 845 847 848
f 850 851 849
f 849 851 852
f 854 855 853
f 853 855 856
f 831 857 832
f 832 857 858
f 860 861 859
f 859 861 862
f 863 864 830
f 830 864 831
f 835 838 865
f 865 838 866
f 867 868 821
f 821 868 822
f 821 820 867
f 867 820 869
f 818 817 870
f 870 817 871
f 872 848 842
f 842 848 847
f 791 839 787
f 787 839 782
f 803 806 847
f 847 806 873
f 874 803 846
f 846 803 847
f 876 877 875
f 875 877 878
f 879 880 882
f 882 880 881
f 884 808 883
f 883 808 807
f 829 832 885
f 885 832 886
f 832 858 886
f 886 858 887
f 889 890 888
f 888 890 891
f 893 783 892
f 892 783 894
f 893 819 783
f 783 819 784
f 814 813 889
f 889 813 895
f 813 896 895
f 895 896 897
f 812 898 813
f 813 898 896
f 812 823 898
f 898 823 899
f 903 904 902
f 902 904 905
f 906 907 792
f 792 907 908
f 811 909 824
f 824 909 910
f 911 872 841
f 841 872 842
f 912 913 915
f 915 913 914
f 917 918 916
f 916 918 919
f 855 920 856
f 856 920 921
f 922 923 798
f 798 923 924
f 926 927 925
f 925 927 850
f 929 930 928
f 928 930 931
f 860 879 861
f 861 879 882
f 879 860 933
f 933 860 932
f 934 935 836
f 836 935 837
f 936 846 925
f 925 846 845
f 937 924 793
f 793 924 794
f 846 936 874
f 874 936 938
f 907 844 908
f 908 844 843
f 940 941 939
f 939 941 942
f 944 945 943
f 943 945 946
f 948 949 947
f 947 949 950
f 952 949 951
f 951 949 948
f 954 955 953
f 953 955 956
f 958 959 957
f 957 959 802
f 960 961 799
f 799 961 962
f 859 963 860
f 860 963 932
f 964 965 966
f 966 965 922
f 936 849 938
f 938 849 967
f 968 913 935
f 935 913 837
f 947 950 917
f 917 950 918
f 925 850 936
f 936 850 849
f 970 971 969
f 969 971 972
f 945 944 827
f 827 944 973
f 974 968 828
f 828 968 935
f 975 976 978
f 978 976 977
f 799 802 960
f 960 802 959
f 924 937 798
f 798 937 795
f 960 959 859
f 859 959 963
f 979 963 958
f 958 963 959
f 980 981 861
f 861 981 862
f 983 984 982
f 982 984 863
f 985 800 962
f 962 800 799
f 957 802 986
f 986 802 801
f 986 987 957
f 957 987 983
f 987 988 983
f 983 988 984
f 990 984 989
f 989 984 988
f 957 983 958
f 958 983 982
f 991 954 866
f 866 954 992
f 864 863 990
f 990 863 984
f 971 995 996
f 995 997 996
f 996 997 998
f 997 796 998
f 998 796 795
f 797 999 798
f 798 999 922
f 1000 1001 1003
f 1003 1001 1002
f 953 1004 954
f 954 1004 992
f 1005 865 992
f 992 865 866
f 998 795 1006
f 1006 795 937
f 912 991 838
f 838 991 866
f 916 1007 929
f 929 1007 930
f 971 970 988
f 988 970 989
f 1008 972 996
f 996 972 971
f 1009 1010 1006
f 1006 1010 1008
f 1011 1012 869
f 869 1012 867
f 1013 1014 871
f 871 1014 870
f 1008 1010 1012
f 1012 1010 1015
f 825 1016 826
f 826 1016 1017
f 1018 969 1013
f 1013 969 1014
f 783 786 894
f 894 786 1019
f 1020 1021 967
f 967 1021 938
f 1022 1023 876
f 876 1023 877
f 934 1024 825
f 825 1024 1016
f 854 1025 855
f 855 1025 1026
f 1028 903 1027
f 1027 903 902
f 1030 1031 1029
f 1029 1031 1032
f 889 888 814
f 814 888 1033
f 1034 811 1033
f 1033 811 814
f 1035 1036 932
f 932 1036 933
f 841 947 911
f 911 947 917
f 844 948 841
f 841 948 947
f 951 948 907
f 907 948 844
f 907 906 951
f 951 906 1037
f 906 1038 1037
f 1037 1038 1039
f 991 912 1040
f 1040 912 915
f 1041 1042 964
f 964 1042 965
f 890 1043 891
f 891 1043 1044
f 789 1045 1046
f 1012 1011 1008
f 1008 1011 972
f 931 1047 848
f 848 1047 845
f 953 956 943
f 943 956 919
f 928 931 872
f 872 931 848
f 1049 999 1048
f 1048 999 985
f 1047 931 1050
f 1050 931 930
f 899 823 887
f 887 823 886
f 825 828 934
f 934 828 935
f 835 1051 836
f 836 1051 1052
f 923 1053 1038
f 1038 1053 1039
f 1054 927 921
f 921 927 856
f 926 1047 853
f 853 1047 1050
f 985 1055 1048
f 1048 1055 1056
f 973 974 827
f 827 974 828
f 837 913 838
f 838 913 912
f 861 882 980
f 980 882 1057
f 927 926 856
f 856 926 853
f 1025 1056 1026
f 1026 1056 1055
f 961 960 862
f 862 960 859
f 826 1017 1059
f 1059 1017 1060
f 1005 1001 1061
f 1061 1001 1000
f 1001 1004 1002
f 1002 1004 946
f 1059 1060 1002
f 1002 1060 1003
f 943 946 953
f 953 946 1004
f 1042 1041 916
f 916 1041 1007
f 792 794 906
f 906 794 1038
f 998 1006 996
f 996 1006 1008
f 865 1005 1062
f 1062 1005 1061
f 1038 794 923
f 923 794 924
f 1022 876 1036
f 1036 876 933
f 836 1052 934
f 934 1052 1024
f 885 1063 829
f 829 1063 833
f 1021 1064 938
f 938 1064 874
f 1012 1015 867
f 867 1015 868
f 824 910 885
f 885 910 1063
f 1031 1030 1027
f 1027 1030 1028
f 1064 804 874
f 874 804 803
f 884 883 1065
f 1065 883 1066
f 1050 930 1067
f 1067 930 1007
f 916 929 917
f 917 929 911
f 961 1068 939
f 939 1068 940
f 1069 1070 1055
f 1055 1070 1071
f 929 928 911
f 911 928 872
f 1040 1053 955
f 955 1053 965
f 922 965 923
f 923 965 1053
f 1051 835 1062
f 1062 835 865
f 952 914 968
f 968 914 913
f 889 895 890
f 890 895 816
f 895 897 816
f 816 897 901
f 890 816 1043
f 1043 816 815
f 1065 1066 1032
f 1032 1066 1029
f 1006 937 1009
f 1009 937 793
f 1001 1005 1004
f 1004 1005 992
f 925 845 926
f 926 845 1047
f 1002 946 1059
f 1059 946 945
f 977 941 978
f 978 941 940
f 823 824 886
f 886 824 885
f 1059 945 826
f 826 945 827
f 939 942 1069
f 1069 942 1070
f 816 901 817
f 1071 1072 1055
f 1055 1072 1026
f 1062 1061 1074
f 1074 1061 1073
f 1062 1074 1051
f 1051 1074 1075
f 1052 1051 1076
f 1076 1051 1075
f 1024 1052 1077
f 1077 1052 1076
f 1061 1000 1073
f 1073 1000 1078
f 1000 1003 1078
f 1078 1003 1079
f 1079 1003 1080
f 1080 1003 1060
f 1081 1082 1078
f 1078 1082 1073
f 1084 1085 1083
f 1083 1085 1086
f 1087 1088 1086
f 1086 1088 1083
f 1086 1085 1090
f 1090 1085 1089
f 1091 1092 1090
f 1090 1092 1093
f 1089 1094 1090
f 1090 1094 1091
f 1095 1082 1089
f 1089 1082 1094
f 1093 1087 1090
f 1090 1087 1086
f 1096 1097 1099
f 1099 1097 1098
f 1097 1096 1087
f 1087 1096 1088
f 1089 1085 1095
f 1095 1085 1084
f 1084 1075 1095
f 1095 1075 1074
f 1084 1100 1075
f 1075 1100 1076
f 1083 1101 1084
f 1084 1101 1100
f 1101 1083 1102
f 1102 1083 1088
f 1082 1095 1073
f 1073 1095 1074
f 1096 1103 1088
f 1088 1103 1102
f 1101 1102 1104
f 1104 1102 1105
f 1102 1103 1105
f 1105 1103 1106
f 1104 1105 1107
f 1107 1105 1108
f 1107 1109 1104
f 1104 1109 1110
f 1111 1108 1106
f 1106 1108 1105
f 1101 1104 1100
f 1100 1104 1110
f 1100 1110 1076
f 1076 1110 1077
f 1103 1096 1112
f 1112 1096 1099
f 1091 1094 1113
f 1113 1094 1082
f 1113 1114 1091
f 1091 1114 1092
f 1082 1081 1113
f 1113 1081 1115
f 1114 1113 1116
f 1116 1113 1115
f 1114 1117 1092
f 1092 1117 1118
f 1024 1077 1016
f 1016 1077 1119
f 1017 1120 1060
f 1060 1120 1080
f 1120 1017 1119
f 1119 1017 1016
f 1119 1109 1120
f 1120 1109 1121
f 1109 1107 1121
f 1121 1107 1122
f 1120 1121 1080
f 1080 1121 1123
f 1119 1077 1109
f 1109 1077 1110
f 1124 1079 1123
f 1123 1079 1080
f 1124 1081 1079
f 1079 1081 1078
f 1125 1115 1124
f 1124 1115 1081
f 1125 1124 1126
f 1126 1124 1123
f 1127 1125 1128
f 1128 1125 1126
f 1121 1122 1123
f 1123 1122 1126
f 1122 1129 1126
f 1126 1129 1128
f 1115 1125 1116
f 1116 1125 1127
f 1131 1116 1130
f 1130 1116 1127
f 1130 1133 1132
f 1132 1133 1134
f 1130 1127 1133
f 1133 1127 1128
f 1130 1132 1131
f 1131 1132 1112
f 1131 1112 1117
f 1117 1112 1099
f 1117 1114 1131
f 1131 1114 1116
f 1107 1108 1122
f 1122 1108 1129
f 1134 1129 1111
f 1111 1129 1108
f 1134 1133 1129
f 1129 1133 1128
f 1132 1134 1106
f 1106 1134 1111
f 1106 1103 1132
f 1132 1103 1112
f 1087 1093 1097
f 1097 1093 1098
f 1098 1118 1099
f 1099 1118 1117
f 1098 1093 1118
f 1118 1093 1092
f 915 914 1039
f 1039 914 1037
f 918 944 919
f 919 944 943
f 950 949 973
f 973 949 974
f 949 952 974
f 974 952 968
f 956 955 1042
f 1042 955 965
f 950 973 918
f 918 973 944
f 915 1039 1040
f 1040 1039 1053
f 956 1042 919
f 919 1042 916
f 1040 955 991
f 991 955 954
f 914 952 1037
f 1037 952 951
f 1136 1137 1135
f 1135 1137 1138
f 1140 1141 1139
f 1139 1141 1142
f 1139 1142 1143
f 1143 1142 1144
f 1145 1146 1148
f 1148 1146 1147
f 854 1149 1025
f 1025 1149 1150
f 1151 1152 1140
f 1140 1152 1141
f 1154 1155 1153
f 1153 1155 1156
f 1067 1007 1158
f 1158 1007 1157
f 1159 1157 1041
f 1041 1157 1007
f 1161 1162 1160
f 1160 1162 1163
f 1164 1146 1152
f 1152 1146 1141
f 854 1067 1149
f 1149 1067 1158
f 1155 1154 1137
f 1137 1154 1165
f 1166 1164 1138
f 1138 1164 1152
f 1167 1161 1144
f 1144 1161 1168
f 1170 1171 1169
f 1169 1171 1172
f 1161 1160 1168
f 1168 1160 1173
f 1174 1143 1168
f 1168 1143 1144
f 1167 1144 1145
f 1145 1144 1142
f 1135 1175 1136
f 1136 1175 1176
f 1151 1177 1135
f 1135 1177 1175
f 1167 1145 1178
f 1178 1145 1148
f 1160 1163 1153
f 1153 1163 1150
f 1135 1138 1151
f 1151 1138 1152
f 1139 1179 1140
f 1140 1179 1180
f 1165 1166 1137
f 1137 1166 1138
f 1141 1146 1142
f 1142 1146 1145
f 1136 1176 1181
f 1181 1176 1182
f 1174 1170 1183
f 1183 1170 1169
f 1170 1173 1171
f 1171 1173 1156
f 1171 1181 1172
f 1172 1181 1182
f 1153 1156 1160
f 1160 1156 1173
f 1143 1174 1184
f 1184 1174 1183
f 1140 1180 1151
f 1151 1180 1177
f 1049 1048 1178
f 1178 1048 1162
f 1179 1139 1184
f 1184 1139 1143
f 1159 1147 1164
f 1164 1147 1146
f 1170 1174 1173
f 1173 1174 1168
f 1171 1156 1181
f 1181 1156 1155
f 1181 1155 1136
f 1136 1155 1137
f 1184 1183 1186
f 1186 1183 1185
f 1184 1186 1179
f 1179 1186 1187
f 1179 1187 1180
f 1180 1187 1188
f 1180 1188 1177
f 1177 1188 1189
f 1183 1169 1185
f 1185 1169 1190
f 1169 1172 1190
f 1190 1172 1191
f 1172 1182 1191
f 1191 1182 1192
f 1193 1194 1190
f 1190 1194 1185
f 1196 1197 1195
f 1195 1197 1198
f 1199 1200 1196
f 1196 1200 1197
f 1197 1200 1202
f 1202 1200 1201
f 1203 1204 1202
f 1202 1204 1205
f 1201 1206 1202
f 1202 1206 1203
f 1205 1198 1202
f 1202 1198 1197
f 1198 1207 1195
f 1195 1207 1208
f 1201 1200 1209
f 1209 1200 1199
f 1199 1187 1209
f 1209 1187 1186
f 1199 1210 1187
f 1187 1210 1188
f 1196 1211 1199
f 1199 1211 1210
f 1212 1211 1195
f 1195 1211 1196
f 1209 1194 1201
f 1201 1194 1206
f 1194 1209 1185
f 1185 1209 1186
f 1213 1212 1208
f 1208 1212 1195
f 1211 1212 1214
f 1214 1212 1215
f 1212 1213 1215
f 1215 1213 1216
f 1214 1215 1217
f 1217 1215 1218
f 1217 1219 1214
f 1214 1219 1220
f 1216 1221 1215
f 1215 1221 1218
f 1214 1220 1211
f 1211 1220 1210
f 1210 1220 1188
f 1188 1220 1189
f 1213 1208 1223
f 1223 1208 1222
f 1208 1207 1222
f 1222 1207 1224
f 1203 1206 1225
f 1225 1206 1194
f 1204 1203 1226
f 1226 1203 1225
f 1194 1193 1225
f 1225 1193 1227
f 1225 1227 1226
f 1226 1227 1228
f 1229 1230 1226
f 1226 1230 1204
f 1224 1230 1222
f 1222 1230 1229
f 1177 1189 1175
f 1175 1189 1231
f 1176 1232 1182
f 1182 1232 1192
f 1232 1176 1231
f 1231 1176 1175
f 1231 1219 1232
f 1232 1219 1233
f 1219 1217 1233
f 1233 1217 1234
f 1232 1233 1192
f 1192 1233 1235
f 1219 1231 1220
f 1220 1231 1189
f 1236 1191 1235
f 1235 1191 1192
f 1236 1193 1191
f 1191 1193 1190
f 1236 1237 1193
f 1193 1237 1227
f 1237 1236 1238
f 1238 1236 1235
f 1239 1237 1240
f 1240 1237 1238
f 1233 1234 1235
f 1235 1234 1238
f 1234 1241 1238
f 1238 1241 1240
f 1237 1239 1227
f 1227 1239 1228
f 1243 1228 1242
f 1242 1228 1239
f 1242 1245 1244
f 1244 1245 1246
f 1242 1239 1245
f 1245 1239 1240
f 1242 1244 1243
f 1243 1244 1223
f 1243 1223 1229
f 1229 1223 1222
f 1229 1226 1243
f 1243 1226 1228
f 1217 1218 1234
f 1234 1218 1241
f 1246 1241 1221
f 1221 1241 1218
f 1246 1245 1241
f 1241 1245 1240
f 1244 1246 1216
f 1216 1246 1221
f 1216 1213 1244
f 1244 1213 1223
f 1198 1205 1207
f 1207 1205 1224
f 1224 1205 1230
f 1230 1205 1204
f 1148 1147 966
f 966 1147 964
f 1149 1154 1150
f 1150 1154 1153
f 1158 1157 1165
f 1165 1157 1166
f 1157 1159 1166
f 1166 1159 1164
f 1163 1162 1056
f 1056 1162 1048
f 1158 1165 1149
f 1149 1165 1154
f 1178 1148 1049
f 1049 1148 966
f 1163 1056 1150
f 1150 1056 1025
f 1178 1162 1167
f 1167 1162 1161
f 1147 1159 964
f 964 1159 1041
f 999 1049 922
f 922 1049 966
f 999 797 985
f 985 797 800
f 797 796 800
f 800 796 801
f 796 997 801
f 801 997 986
f 1247 1248 1250
f 1250 1248 1249
f 1252 1253 1251
f 1251 1253 1254
f 1251 1254 1255
f 1255 1254 1256
f 1258 1259 1257
f 1257 1259 1260
f 1261 1262 1252
f 1252 1262 1253
f 1264 1265 1263
f 1263 1265 1266
f 1267 1268 855
f 855 1268 920
f 1269 1267 1026
f 1026 1267 855
f 1271 1272 1270
f 1270 1272 1273
f 1274 1258 1262
f 1262 1258 1253
f 1264 1275 1265
f 1265 1275 1249
f 1276 1274 1250
f 1250 1274 1262
f 1277 1271 1256
f 1256 1271 1278
f 1279 1280 1282
f 1282 1280 1281
f 1271 1270 1278
f 1278 1270 1283
f 1284 1255 1278
f 1278 1255 1256
f 1277 1256 1257
f 1257 1256 1254
f 1247 1285 1248
f 1248 1285 1286
f 1261 1287 1247
f 1247 1287 1285
f 1257 1260 1277
f 1277 1260 1288
f 1270 1273 1263
f 1263 1273 1289
f 1261 1247 1262
f 1262 1247 1250
f 1251 1290 1252
f 1252 1290 1291
f 1275 1276 1249
f 1249 1276 1250
f 1253 1258 1254
f 1254 1258 1257
f 1248 1286 1292
f 1292 1286 1293
f 1284 1280 1294
f 1294 1280 1279
f 1281 1280 1266
f 1266 1280 1283
f 1292 1293 1281
f 1281 1293 1282
f 1263 1266 1270
f 1270 1266 1283
f 1255 1284 1295
f 1295 1284 1294
f 1252 1291 1261
f 1261 1291 1287
f 1288 1070 1272
f 1272 1070 942
f 1290 1251 1295
f 1295 1251 1255
f 1269 1259 1274
f 1274 1259 1258
f 1280 1284 1283
f 1283 1284 1278
f 1281 1266 1292
f 1292 1266 1265
f 1292 1265 1248
f 1248 1265 1249
f 1295 1294 1297
f 1297 1294 1296
f 1295 1297 1290
f 1290 1297 1298
f 1290 1298 1291
f 1291 1298 1299
f 1291 1299 1287
f 1287 1299 1300
f 1294 1279 1296
f 1296 1279 1301
f 1279 1282 1301
f 1301 1282 1302
f 1302 1282 1303
f 1303 1282 1293
f 1304 1305 1301
f 1301 1305 1296
f 1307 1308 1306
f 1306 1308 1309
f 1310 1311 1307
f 1307 1311 1308
f 1308 1311 1313
f 1313 1311 1312
f 1314 1315 1313
f 1313 1315 1316
f 1312 1317 1313
f 1313 1317 1314
f 1316 1309 1313
f 1313 1309 1308
f 1318 1319 1309
f 1309 1319 1306
f 1311 1310 1312
f 1312 1310 1320
f 1310 1298 1320
f 1320 1298 1297
f 1310 1321 1298
f 1298 1321 1299
f 1307 1322 1310
f 1310 1322 1321
f 1322 1307 1323
f 1323 1307 1306
f 1312 1320 1317
f 1317 1320 1305
f 1305 1320 1296
f 1296 1320 1297
f 1319 1324 1306
f 1306 1324 1323
f 1325 1322 1326
f 1326 1322 1323
f 1324 1327 1323
f 1323 1327 1326
f 1328 1325 1329
f 1329 1325 1326
f 1325 1328 1331
f 1331 1328 1330
f 1327 1332 1326
f 1326 1332 1329
f 1322 1325 1321
f 1321 1325 1331
f 1321 1331 1299
f 1299 1331 1300
f 1324 1319 1334
f 1334 1319 1333
f 1319 1318 1333
f 1333 1318 1335
f 1314 1317 1336
f 1336 1317 1305
f 1315 1314 1337
f 1337 1314 1336
f 1305 1304 1336
f 1336 1304 1338
f 1337 1336 1339
f 1339 1336 1338
f 1337 1340 1315
f 1315 1340 1341
f 1335 1341 1333
f 1333 1341 1340
f 1287 1300 1285
f 1285 1300 1342
f 1286 1343 1293
f 1293 1343 1303
f 1343 1286 1342
f 1342 1286 1285
f 1342 1330 1343
f 1343 1330 1344
f 1330 1328 1344
f 1344 1328 1345
f 1343 1344 1303
f 1303 1344 1346
f 1342 1300 1330
f 1330 1300 1331
f 1347 1302 1346
f 1346 1302 1303
f 1347 1304 1302
f 1302 1304 1301
f 1348 1338 1347
f 1347 1338 1304
f 1348 1347 1349
f 1349 1347 1346
f 1350 1348 1351
f 1351 1348 1349
f 1344 1345 1346
f 1346 1345 1349
f 1345 1352 1349
f 1349 1352 1351
f 1348 1350 1338
f 1338 1350 1339
f 1354 1339 1353
f 1353 1339 1350
f 1353 1356 1355
f 1355 1356 1357
f 1353 1350 1356
f 1356 1350 1351
f 1353 1355 1354
f 1354 1355 1334
f 1354 1334 1340
f 1340 1334 1333
f 1340 1337 1354
f 1354 1337 1339
f 1328 1329 1345
f 1345 1329 1352
f 1357 1352 1332
f 1332 1352 1329
f 1357 1356 1352
f 1352 1356 1351
f 1357 1332 1355
f 1355 1332 1327
f 1327 1324 1355
f 1355 1324 1334
f 1309 1316 1318
f 1318 1316 1335
f 1335 1316 1341
f 1341 1316 1315
f 1259 1072 1260
f 1260 1072 1071
f 1358 1264 1289
f 1289 1264 1263
f 1268 1267 1275
f 1275 1267 1276
f 1267 1269 1276
f 1276 1269 1274
f 941 1273 942
f 942 1273 1272
f 1358 1268 1264
f 1264 1268 1275
f 1260 1071 1288
f 1288 1071 1070
f 1273 941 1289
f 1289 941 977
f 1272 1271 1288
f 1288 1271 1277
f 1259 1269 1072
f 1072 1269 1026
f 1360 1361 1359
f 1359 1361 1362
f 1364 1365 1363
f 1363 1365 1366
f 1363 1366 1367
f 1367 1366 1368
f 1370 1371 1369
f 1369 1371 1372
f 1373 1374 1376
f 1376 1374 1375
f 1377 1378 1364
f 1364 1378 1365
f 1379 1380 1382
f 1382 1380 1381
f 1383 1384 1386
f 1386 1384 1385
f 1387 1385 978
f 978 1385 1384
f 1388 1389 1391
f 1391 1389 1390
f 1378 1392 1365
f 1365 1392 1370
f 1374 1383 1375
f 1375 1383 1386
f 1380 1393 1381
f 1381 1393 1361
f 1394 1392 1362
f 1362 1392 1378
f 1389 1396 1395
f 1395 1396 1368
f 1398 1399 1397
f 1397 1399 1400
f 1388 1401 1389
f 1389 1401 1396
f 1402 1367 1396
f 1396 1367 1368
f 1395 1368 1369
f 1369 1368 1366
f 1359 1403 1360
f 1360 1403 1404
f 1377 1405 1359
f 1359 1405 1403
f 1369 1372 1395
f 1395 1372 1406
f 1379 1388 1376
f 1376 1388 1391
f 1359 1362 1377
f 1377 1362 1378
f 1363 1407 1364
f 1364 1407 1408
f 1393 1394 1361
f 1361 1394 1362
f 1365 1370 1366
f 1366 1370 1369
f 1360 1404 1409
f 1409 1404 1410
f 1402 1398 1411
f 1411 1398 1397
f 1399 1398 1382
f 1382 1398 1401
f 1409 1410 1399
f 1399 1410 1400
f 1388 1379 1401
f 1401 1379 1382
f 1367 1402 1412
f 1412 1402 1411
f 1364 1408 1377
f 1377 1408 1405
f 981 980 1406
f 1406 980 1390
f 1407 1363 1412
f 1412 1363 1367
f 1387 1371 1392
f 1392 1371 1370
f 1398 1402 1401
f 1401 1402 1396
f 1409 1399 1381
f 1381 1399 1382
f 1360 1409 1361
f 1361 1409 1381
f 1412 1411 1414
f 1414 1411 1413
f 1412 1414 1407
f 1407 1414 1415
f 1407 1415 1408
f 1408 1415 1416
f 1408 1416 1405
f 1405 1416 1417
f 1411 1397 1413
f 1413 1397 1418
f 1397 1400 1418
f 1418 1400 1419
f 1419 1400 1420
f 1420 1400 1410
f 1422 1413 1421
f 1421 1413 1418
f 1423 1424 1426
f 1426 1424 1425
f 1427 1428 1424
f 1424 1428 1425
f 1425 1428 1430
f 1430 1428 1429
f 1430 1431 1433
f 1433 1431 1432
f 1429 1434 1430
f 1430 1434 1431
f 1433 1426 1430
f 1430 1426 1425
f 1426 1435 1423
f 1423 1435 1436
f 1428 1427 1429
f 1429 1427 1437
f 1427 1415 1437
f 1437 1415 1414
f 1427 1438 1415
f 1415 1438 1416
f 1439 1438 1424
f 1424 1438 1427
f 1440 1439 1423
f 1423 1439 1424
f 1429 1437 1434
f 1434 1437 1422
f 1422 1437 1413
f 1413 1437 1414
f 1441 1440 1436
f 1436 1440 1423
f 1442 1439 1443
f 1443 1439 1440
f 1441 1444 1440
f 1440 1444 1443
f 1445 1442 1446
f 1446 1442 1443
f 1442 1445 1448
f 1448 1445 1447
f 1444 1449 1443
f 1443 1449 1446
f 1439 1442 1438
f 1438 1442 1448
f 1438 1448 1416
f 1416 1448 1417
f 1436 1450 1441
f 1441 1450 1451
f 1436 1435 1450
f 1450 1435 1452
f 1431 1434 1453
f 1453 1434 1422
f 1431 1453 1432
f 1432 1453 1454
f 1453 1422 1455
f 1455 1422 1421
f 1454 1453 1456
f 1456 1453 1455
f 1457 1458 1454
f 1454 1458 1432
f 1452 1458 1450
f 1450 1458 1457
f 1405 1417 1403
f 1403 1417 1459
f 1404 1460 1410
f 1410 1460 1420
f 1459 1460 1403
f 1403 1460 1404
f 1447 1461 1459
f 1459 1461 1460
f 1445 1462 1447
f 1447 1462 1461
f 1460 1461 1420
f 1420 1461 1463
f 1459 1417 1447
f 1447 1417 1448
f 1464 1419 1463
f 1463 1419 1420
f 1419 1464 1418
f 1418 1464 1421
f 1464 1465 1421
f 1421 1465 1455
f 1465 1464 1466
f 1466 1464 1463
f 1467 1465 1468
f 1468 1465 1466
f 1461 1462 1463
f 1463 1462 1466
f 1462 1469 1466
f 1466 1469 1468
f 1465 1467 1455
f 1455 1467 1456
f 1471 1456 1470
f 1470 1456 1467
f 1470 1473 1472
f 1472 1473 1474
f 1470 1467 1473
f 1473 1467 1468
f 1470 1472 1471
f 1471 1472 1451
f 1471 1451 1457
f 1457 1451 1450
f 1457 1454 1471
f 1471 1454 1456
f 1462 1445 1469
f 1469 1445 1446
f 1474 1469 1449
f 1449 1469 1446
f 1474 1473 1469
f 1469 1473 1468
f 1472 1474 1444
f 1444 1474 1449
f 1444 1441 1472
f 1472 1441 1451
f 1426 1433 1435
f 1435 1433 1452
f 1452 1433 1458
f 1458 1433 1432
f 1371 940 1372
f 1372 940 1068
f 1376 1375 1379
f 1379 1375 1380
f 1393 1386 1394
f 1394 1386 1385
f 1385 1387 1394
f 1394 1387 1392
f 1475 1373 1391
f 1391 1373 1376
f 1375 1386 1380
f 1380 1386 1393
f 1372 1068 1406
f 1406 1068 981
f 1406 1390 1395
f 1395 1390 1389
f 1371 1387 940
f 940 1387 978
f 883 807 1476
f 1476 807 1477
f 1046 904 1479
f 1479 904 1478
f 904 903 1478
f 1478 903 1480
f 1030 1481 1028
f 1028 1481 1482
f 810 1046 1483
f 1483 1046 1479
f 1066 883 1484
f 1484 883 1476
f 807 810 1477
f 1477 810 1483
f 1485 1029 1484
f 1484 1029 1066
f 1028 1482 903
f 903 1482 1480
f 1481 1030 1485
f 1485 1030 1029
f 1484 1486 1485
f 1485 1486 1487
f 1485 1487 1481
f 1481 1487 1488
f 1481 1488 1482
f 1482 1488 1489
f 1482 1489 1480
f 1480 1489 1490
f 1484 1476 1486
f 1486 1476 1491
f 1476 1477 1491
f 1491 1477 1492
f 1477 1483 1492
f 1492 1483 1493
f 1495 1486 1494
f 1494 1486 1491
f 1497 1498 1496
f 1496 1498 1499
f 1500 1501 1497
f 1497 1501 1498
f 1502 1503 1501
f 1501 1503 1498
f 1502 1504 1503
f 1503 1504 1505
f 1506 1499 1503
f 1503 1499 1498
f 1499 1506 1507
f 1507 1506 1508
f 1507 1509 1499
f 1499 1509 1496
f 1502 1501 1510
f 1510 1501 1500
f 1500 1488 1510
f 1510 1488 1487
f 1500 1511 1488
f 1488 1511 1489
f 1497 1512 1500
f 1500 1512 1511
f 1512 1497 1513
f 1513 1497 1496
f 1502 1510 1504
f 1504 1510 1495
f 1495 1510 1486
f 1486 1510 1487
f 1509 1514 1496
f 1496 1514 1513
f 1515 1512 1516
f 1516 1512 1513
f 1514 1517 1513
f 1513 1517 1516
f 1518 1515 1519
f 1519 1515 1516
f 1515 1518 1521
f 1521 1518 1520
f 1517 1522 1516
f 1516 1522 1519
f 1512 1515 1511
f 1511 1515 1521
f 1511 1521 1489
f 1489 1521 1490
f 1514 1509 1524
f 1524 1509 1523
f 1509 1507 1523
f 1523 1507 1508
f 1505 1504 1525
f 1525 1504 1495
f 1526 1505 1527
f 1527 1505 1525
f 1525 1495 1528
f 1528 1495 1494
f 1527 1525 1529
f 1529 1525 1528
f 1527 1530 1526
f 1526 1530 1531
f 1508 1531 1523
f 1523 1531 1530
f 1506 1503 1526
f 1526 1503 1505
f 1508 1506 1531
f 1531 1506 1526
f 1478 1480 1532
f 1532 1480 1490
f 1483 1479 1493
f 1493 1479 1533
f 1532 1533 1478
f 1478 1533 1479
f 1520 1534 1532
f 1532 1534 1533
f 1518 1535 1520
f 1520 1535 1534
f 1533 1534 1493
f 1493 1534 1536
f 1532 1490 1520
f 1520 1490 1521
f 1537 1492 1536
f 1536 1492 1493
f 1492 1537 1491
f 1491 1537 1494
f 1537 1538 1494
f 1494 1538 1528
f 1538 1537 1539
f 1539 1537 1536
f 1540 1538 1541
f 1541 1538 1539
f 1534 1535 1536
f 1536 1535 1539
f 1535 1542 1539
f 1539 1542 1541
f 1538 1540 1528
f 1528 1540 1529
f 1544 1529 1543
f 1543 1529 1540
f 1545 1543 1547
f 1547 1543 1546
f 1543 1540 1546
f 1546 1540 1541
f 1543 1545 1544
f 1544 1545 1524
f 1544 1524 1530
f 1530 1524 1523
f 1530 1527 1544
f 1544 1527 1529
f 1535 1518 1542
f 1542 1518 1519
f 1547 1542 1522
f 1522 1542 1519
f 1547 1546 1542
f 1542 1546 1541
f 1545 1547 1517
f 1517 1547 1522
f 1517 1514 1545
f 1545 1514 1524
f 997 995 986
f 986 995 987
f 987 995 988
f 988 995 971
f 976 1358 977
f 977 1358 1289
f 854 853 1067
f 1067 853 1050
f 1055 985 1069
f 1069 985 962
f 1068 961 981
f 981 961 862
f 1268 1358 920
f 920 1358 976
f 920 976 921
f 921 976 975
f 927 1054 850
f 850 1054 851
f 882 881 1057
f 1057 881 1548
f 1548 1374 1057
f 1057 1374 1373
f 1383 1374 1549
f 1549 1374 1548
f 1549 1548 1550
f 1550 1548 881
f 1550 881 1551
f 1551 881 880
f 933 1552 879
f 879 1552 880
f 1551 880 875
f 875 880 1552
f 1553 1551 878
f 878 1551 875
f 1551 1553 1550
f 1550 1553 1554
f 1550 1554 1549
f 1549 1554 1555
f 978 1384 975
f 975 1384 1555
f 967 849 1556
f 1556 849 852
f 875 1552 876
f 876 1552 933
f 961 939 962
f 962 939 1069
f 1555 1054 975
f 975 1054 921
f 1555 1384 1549
f 1549 1384 1383
f 1391 1390 1475
f 1475 1390 980
f 1373 1475 1057
f 1057 1475 980
f 851 1054 1554
f 1554 1054 1555
f 1554 1553 851
f 851 1553 852
f 878 1556 1553
f 1553 1556 852
f 1556 878 967
f 967 878 877
f 1023 1020 877
f 877 1020 967
f 909 811 1034
f 806 779 873
f 873 779 840
f 805 780 806
f 806 780 779
f 1043 893 1044
f 1044 893 892
f 873 840 847
f 847 840 842
f 840 839 842
f 842 839 843
f 839 791 843
f 843 791 908
f 791 790 908
f 908 790 792
f 809 789 810
f 810 789 1046
f 793 790 809
f 809 790 789
f 809 808 793
f 793 808 1009
f 808 884 1009
f 1009 884 1010
f 1065 1015 884
f 884 1015 1010
f 1032 868 1065
f 1065 868 1015
f 1031 822 1032
f 1032 822 868
f 1031 1027 822
f 822 1027 785
f 1045 905 1046
f 1046 905 904
f 788 781 1019
f 1019 781 894
f 781 780 894
f 894 780 892
f 780 805 892
f 892 805 1044
f 805 804 1044
f 1044 804 891
f 804 1064 891
f 891 1064 888
f 1064 1021 888
f 888 1021 1033
f 1021 1020 1033
f 1033 1020 1034
f 1020 1023 1034
f 1034 1023 909
f 1023 1022 909
f 909 1022 910
f 1043 815 893
f 893 815 819
f 819 815 820
f 820 815 818
f 870 869 818
f 818 869 820
f 1014 1011 870
f 870 1011 869
f 969 972 1014
f 1014 972 1011
f 1036 1063 1022
f 1022 1063 910
f 1035 833 1036
f 1036 833 1063
f 1035 932 979
f 979 932 963
f 834 979 982
f 982 979 958
f 833 1035 834
f 834 1035 979
f 982 863 834
f 834 863 830
f 864 900 831
f 831 900 857
f 990 993 864
f 864 993 900
f 989 994 990
f 990 994 993
f 970 1058 989
f 989 1058 994
f 969 1018 970
f 970 1018 1058
f 1027 902 785
f 785 902 786
f 902 905 786
f 786 905 1019
f 905 1045 1019
f 1019 1045 788
f 788 1045 787
f 787 1045 789
