o hand_left
v -0.606137 0.253107 1.328127
v -0.606656 0.262361 1.324935
v -0.594798 0.261393 1.324936
v -0.595269 0.250819 1.327833
v -0.601110 0.283414 1.319897
v -0.599601 0.290215 1.309260
v -0.584821 0.286489 1.312099
v -0.588595 0.282250 1.320996
v -0.587056 0.248661 1.325201
v -0.586701 0.260950 1.324526
v -0.584247 0.248584 1.318819
v -0.589069 0.233214 1.318130
v -0.590182 0.236640 1.325087
v -0.592275 0.223640 1.320622
v -0.595204 0.233277 1.308410
v -0.600047 0.218537 1.316758
v -0.627871 0.230631 1.312098
v -0.640055 0.234164 1.317654
v -0.637031 0.219703 1.327765
v -0.624459 0.218240 1.321729
v -0.652244 0.232235 1.335238
v -0.643778 0.224656 1.331607
v -0.647565 0.238222 1.320769
v -0.654801 0.244442 1.324637
v -0.623333 0.259515 1.330306
v -0.625792 0.268396 1.326583
v -0.619455 0.265041 1.325334
v -0.617618 0.257324 1.328710
v -0.574710 0.257953 1.310218
v -0.584241 0.252344 1.302936
v -0.584172 0.247923 1.310083
v -0.576071 0.258191 1.315446
v -0.636975 0.296096 1.323116
v -0.641420 0.302479 1.311960
v -0.636845 0.300951 1.308615
v -0.634092 0.294793 1.319497
v -0.616995 0.294721 1.303857
v -0.623822 0.297380 1.297457
v -0.621929 0.295947 1.283344
v -0.615581 0.290806 1.287286
v -0.608582 0.292111 1.307905
v -0.606878 0.290305 1.293640
v -0.597965 0.288913 1.297451
v -0.581814 0.286003 1.302860
v -0.653042 0.303744 1.317403
v -0.651242 0.299699 1.326606
v -0.577249 0.208707 1.356822
v -0.582159 0.210657 1.359979
v -0.583006 0.210992 1.358020
v -0.578342 0.208861 1.355101
v -0.668976 0.291236 1.318871
v -0.673012 0.284396 1.312603
v -0.674552 0.290991 1.309851
v -0.669306 0.297372 1.314428
v -0.668427 0.283132 1.324734
v -0.670138 0.275505 1.316557
v -0.574670 0.196781 1.360594
v -0.572872 0.201115 1.358130
v -0.575274 0.198880 1.354748
v -0.578134 0.194121 1.356588
v -0.595792 0.240810 1.329985
v -0.604714 0.245019 1.332607
v -0.596764 0.225623 1.339396
v -0.601203 0.232519 1.336776
v -0.595558 0.231668 1.331749
v -0.593286 0.225152 1.333652
v -0.622414 0.241271 1.343556
v -0.624594 0.250743 1.337093
v -0.618759 0.247754 1.335230
v -0.614734 0.237585 1.341945
v -0.635144 0.256912 1.344381
v -0.632415 0.246825 1.349817
v -0.638840 0.251483 1.353239
v -0.639064 0.258409 1.349418
v -0.625908 0.228905 1.356369
v -0.624770 0.224204 1.358483
v -0.626853 0.226619 1.361232
v -0.628842 0.230949 1.357807
v -0.676269 0.296828 1.306171
v -0.669122 0.302754 1.309493
v -0.666070 0.246006 1.345422
v -0.667600 0.256433 1.349657
v -0.667493 0.246237 1.359260
v -0.666150 0.237015 1.351976
v -0.670979 0.277010 1.305554
v -0.674857 0.283427 1.303168
v -0.579456 0.194167 1.364225
v -0.582724 0.191460 1.360780
v -0.601110 0.280283 1.288345
v -0.582086 0.279003 1.295636
v -0.613272 0.282168 1.283673
v -0.621229 0.284349 1.279684
v -0.625964 0.288660 1.274795
v -0.605569 0.230620 1.342018
v -0.613376 0.249556 1.332185
v -0.627772 0.261678 1.332412
v -0.649342 0.272354 1.352060
v -0.650475 0.281158 1.346350
v -0.641376 0.275901 1.343929
v -0.642613 0.268919 1.349077
v -0.663379 0.262849 1.355952
v -0.655627 0.264047 1.358378
v -0.655699 0.256405 1.363289
v -0.663358 0.253728 1.362623
v -0.570676 0.261519 1.304562
v -0.584097 0.257627 1.296851
v -0.661574 0.297338 1.323449
v -0.660719 0.302065 1.317279
v -0.662446 0.306682 1.310338
v -0.630190 0.282010 1.324924
v -0.632042 0.293857 1.317145
v -0.628188 0.292000 1.315965
v -0.627836 0.279311 1.323573
v -0.609854 0.273003 1.324133
v -0.613610 0.285249 1.318768
v -0.597787 0.272460 1.325333
v -0.631286 0.300155 1.303091
v -0.638988 0.307932 1.301146
v -0.632743 0.305830 1.295175
v -0.647543 0.309082 1.305889
v -0.655783 0.308872 1.309401
v -0.679809 0.288439 1.298370
v -0.627775 0.302263 1.289307
v -0.580135 0.280060 1.321223
v -0.573301 0.277380 1.322926
v -0.576652 0.270579 1.324256
v -0.582553 0.272031 1.323248
v -0.593406 0.214901 1.325098
v -0.591065 0.220843 1.329471
v -0.591115 0.229036 1.325166
v -0.638993 0.289325 1.332213
v -0.650949 0.292754 1.334949
v -0.600416 0.223404 1.344522
v -0.581880 0.194227 1.351672
v -0.578398 0.199147 1.349896
v -0.588475 0.206778 1.335915
v -0.592445 0.201100 1.337170
v -0.603131 0.214708 1.349321
v -0.598926 0.219708 1.346967
v -0.598472 0.217605 1.348266
v -0.601627 0.213510 1.352430
v -0.634145 0.231980 1.363821
v -0.635494 0.236118 1.360522
v -0.619871 0.208759 1.334119
v -0.610524 0.206680 1.323608
v -0.612238 0.217160 1.316063
v -0.628381 0.244819 1.346395
v -0.627115 0.236598 1.352497
v -0.630532 0.238282 1.354275
v -0.607753 0.227893 1.345264
v -0.604964 0.221443 1.348005
v -0.610027 0.223655 1.347996
v -0.612591 0.230040 1.346261
v -0.668851 0.266008 1.340245
v -0.664168 0.273429 1.347978
v -0.573927 0.205312 1.356523
v -0.575410 0.204407 1.353930
v -0.630373 0.254041 1.340014
v -0.615503 0.230014 1.308870
v -0.632057 0.264116 1.335015
v -0.650783 0.225151 1.356574
v -0.648795 0.230144 1.363343
v -0.645229 0.227949 1.367106
v -0.645780 0.222636 1.364077
v -0.594132 0.206844 1.362437
v -0.590021 0.210963 1.361112
v -0.588181 0.209829 1.361574
v -0.591705 0.205619 1.364358
v -0.595001 0.221323 1.342820
v -0.591420 0.220600 1.337533
v -0.589544 0.217722 1.341559
v -0.593940 0.218274 1.345717
v -0.589969 0.215676 1.333373
v -0.587681 0.212984 1.337390
v -0.595363 0.200248 1.362126
v -0.592021 0.193676 1.359487
v -0.603031 0.200411 1.346693
v -0.603116 0.205896 1.352264
v -0.658161 0.254905 1.313929
v -0.665122 0.260977 1.320244
v -0.662187 0.250558 1.331004
v -0.660584 0.239400 1.341484
v -0.657373 0.228950 1.351067
v -0.650781 0.221430 1.344039
v -0.666841 0.256320 1.334717
v -0.611880 0.212156 1.345194
v -0.610664 0.205533 1.338550
v -0.615427 0.208945 1.341057
v -0.636585 0.267539 1.339928
v -0.577828 0.204867 1.350186
v -0.639128 0.271861 1.277924
v -0.651239 0.270629 1.282772
v -0.646571 0.264654 1.287304
v -0.632845 0.266554 1.282450
v -0.584213 0.212445 1.357391
v -0.579738 0.210477 1.352840
v -0.640261 0.238006 1.364880
v -0.638396 0.233360 1.367360
v -0.641144 0.232202 1.369260
v -0.643669 0.237448 1.369703
v -0.668178 0.265492 1.322773
v -0.663772 0.241222 1.366891
v -0.663060 0.232939 1.359593
v -0.667482 0.269700 1.310633
v -0.661928 0.264151 1.304754
v -0.665144 0.270945 1.298484
v -0.637753 0.213992 1.343579
v -0.651931 0.249556 1.311050
v -0.656044 0.260155 1.301864
v -0.659616 0.268096 1.294234
v -0.663094 0.273537 1.288877
v -0.668704 0.276213 1.294170
v -0.586869 0.192360 1.355803
v -0.588326 0.193221 1.365061
v -0.673959 0.281265 1.288720
v -0.666985 0.278471 1.283249
v -0.648391 0.256634 1.298112
v -0.638269 0.253560 1.294161
v -0.644579 0.246646 1.307276
v -0.634206 0.242592 1.303928
v -0.633517 0.208220 1.335022
v -0.582249 0.204721 1.377300
v -0.588539 0.200343 1.369898
v -0.589595 0.205599 1.367378
v -0.584708 0.208091 1.375901
v -0.592014 0.199831 1.365744
v -0.585161 0.195915 1.368617
v -0.619120 0.242776 1.299984
v -0.608853 0.218502 1.349556
v -0.621313 0.256890 1.290005
v -0.599791 0.242958 1.298749
v -0.601196 0.255345 1.292638
v -0.622001 0.271740 1.280268
v -0.607293 0.268715 1.284958
v -0.633191 0.281394 1.272327
v -0.628815 0.275684 1.276802
v -0.590818 0.268558 1.289927
v -0.576308 0.213902 1.364363
v -0.581742 0.214273 1.367236
v -0.643257 0.277089 1.272965
v -0.588697 0.271900 1.324454
v -0.635655 0.276732 1.334253
v -0.632290 0.273480 1.330832
v -0.650778 0.285975 1.342117
v -0.640240 0.281738 1.338636
v -0.571763 0.210739 1.363859
v -0.625906 0.220956 1.360090
v -0.626806 0.222900 1.359641
v -0.576145 0.284522 1.315086
v -0.569993 0.281696 1.317603
v -0.564826 0.275295 1.307163
v -0.565659 0.280561 1.312148
v -0.572795 0.283691 1.307156
v -0.571985 0.278155 1.301519
v -0.631930 0.283826 1.326473
v -0.634586 0.285545 1.328991
v -0.668807 0.275341 1.332260
v -0.663712 0.281985 1.340271
v -0.592508 0.210146 1.330741
v -0.600468 0.209019 1.324080
v -0.597839 0.205117 1.330954
v -0.599078 0.199414 1.339703
v -0.608855 0.214661 1.349172
v -0.606873 0.209911 1.347358
v -0.621143 0.288189 1.317715
v -0.620891 0.275355 1.323251
v -0.582188 0.262247 1.322204
v -0.577575 0.262767 1.321484
v -0.619595 0.233897 1.347916
v -0.629873 0.211215 1.352238
v -0.626034 0.207072 1.344728
v -0.617757 0.226108 1.351519
v -0.569811 0.204308 1.368910
v -0.569823 0.207931 1.365539
v -0.604503 0.203056 1.332676
v -0.636503 0.242962 1.358193
v -0.634868 0.215571 1.352025
v -0.629176 0.215366 1.358213
v -0.661424 0.249588 1.366917
v -0.654998 0.276696 1.277408
v -0.587355 0.210016 1.364271
v -0.585508 0.212589 1.370756
v -0.579091 0.201919 1.376240
v -0.574118 0.200946 1.372359
v -0.661613 0.289552 1.332526
v -0.629789 0.270957 1.328903
v -0.576984 0.268977 1.296153
v -0.567194 0.268652 1.303856
v -0.617281 0.222069 1.352722
v -0.655250 0.229513 1.359708
v -0.645937 0.218148 1.352656
v -0.640718 0.215793 1.361151
v -0.633203 0.214883 1.360087
v -0.627284 0.218539 1.360888
v -0.577048 0.206320 1.380352
v -0.571792 0.205635 1.376833
v -0.568168 0.208987 1.372783
v -0.568632 0.211648 1.368777
v -0.571678 0.213518 1.366270
v -0.580706 0.209160 1.380840
v -0.583092 0.211832 1.378837
v -0.584614 0.214001 1.372953
v -0.580574 0.213660 1.382315
v -0.575534 0.213986 1.384099
v -0.567051 0.222946 1.377051
v -0.567097 0.216841 1.377140
v -0.567746 0.218508 1.379386
v -0.567806 0.223539 1.380159
v -0.568220 0.228268 1.382398
v -0.567284 0.228398 1.378995
v -0.570431 0.215147 1.381472
v -0.570859 0.221835 1.383235
v -0.574682 0.221338 1.385033
v -0.574238 0.226639 1.386876
v -0.570743 0.227218 1.385507
v -0.573981 0.216752 1.384020
v -0.570209 0.212487 1.381028
v -0.568892 0.231815 1.381738
v -0.568781 0.230716 1.384000
v -0.571182 0.230271 1.386263
v -0.572171 0.233045 1.385395
v -0.568152 0.216204 1.371235
v -0.567764 0.223857 1.374692
v -0.569514 0.229285 1.376958
v -0.570937 0.232498 1.379918
v -0.571206 0.225779 1.373419
v -0.572304 0.229623 1.375987
v -0.573983 0.232201 1.378590
v -0.575427 0.226830 1.373450
v -0.575540 0.229819 1.376134
v -0.575634 0.217179 1.367921
v -0.571593 0.215972 1.367778
v -0.575918 0.231831 1.377655
v -0.573940 0.233664 1.384240
v -0.578067 0.219819 1.384880
v -0.577378 0.226802 1.386145
v -0.580225 0.220302 1.383854
v -0.579640 0.227042 1.385527
v -0.576082 0.230908 1.387466
v -0.573903 0.229570 1.387284
v -0.576706 0.214852 1.366121
v -0.582203 0.214924 1.369081
v -0.581433 0.216712 1.370567
v -0.579975 0.226204 1.375205
v -0.583956 0.216259 1.374287
v -0.582904 0.215962 1.380010
v -0.581868 0.222286 1.382202
v -0.582462 0.224164 1.379292
v -0.580885 0.227477 1.383317
v -0.580807 0.228153 1.380833
v -0.578927 0.229568 1.377691
v -0.579119 0.231141 1.383400
v -0.577751 0.231177 1.386032
v -0.576194 0.232992 1.381776
v -0.579698 0.230646 1.381614
v -0.577393 0.231606 1.379863
v -0.600000 0.220572 1.376166
v -0.605382 0.222722 1.378904
v -0.606587 0.220224 1.375494
v -0.602025 0.218410 1.373201
v -0.597414 0.207547 1.381201
v -0.595744 0.212837 1.377862
v -0.597892 0.209057 1.374133
v -0.601170 0.203683 1.377544
v -0.603580 0.205502 1.385020
v -0.607477 0.202537 1.380808
v -0.604163 0.202123 1.372369
v -0.600713 0.207697 1.369348
v -0.610170 0.210539 1.351242
v -0.614140 0.205358 1.352399
v -0.620760 0.222538 1.359742
v -0.623144 0.220495 1.361699
v -0.597371 0.217506 1.376254
v -0.599134 0.214374 1.372872
v -0.615738 0.218911 1.377531
v -0.611611 0.221442 1.374838
v -0.610741 0.221090 1.378023
v -0.614117 0.218194 1.381304
v -0.610820 0.218701 1.352698
v -0.616077 0.220644 1.356013
v -0.609529 0.215221 1.351642
v -0.617862 0.212902 1.379686
v -0.616735 0.206086 1.379686
v -0.625855 0.207396 1.361222
v -0.626531 0.213060 1.363854
v -0.600417 0.213071 1.368662
v -0.606383 0.220830 1.372254
v -0.602444 0.218305 1.369630
v -0.611060 0.201873 1.375491
v -0.613059 0.207198 1.384804
v -0.605889 0.221801 1.396708
v -0.611919 0.215592 1.388476
v -0.611837 0.220065 1.385684
v -0.606822 0.226509 1.394560
v -0.614935 0.213308 1.384099
v -0.609279 0.210227 1.388639
v -0.595684 0.229915 1.386310
v -0.601325 0.231512 1.388725
v -0.592167 0.226943 1.386558
v -0.620521 0.204266 1.355722
v -0.592037 0.217084 1.390468
v -0.590820 0.222893 1.387465
v -0.609833 0.222898 1.381871
v -0.605223 0.230404 1.391722
v -0.603358 0.217858 1.397105
v -0.597781 0.214189 1.393645
v -0.600971 0.221685 1.400596
v -0.595045 0.219559 1.398300
v -0.589449 0.222635 1.394570
v -0.589212 0.227385 1.390677
v -0.591293 0.230188 1.388868
v -0.603967 0.225301 1.399972
v -0.605178 0.229521 1.397376
v -0.603827 0.232117 1.392795
v -0.602892 0.230962 1.402555
v -0.599456 0.228718 1.404592
v -0.586888 0.242980 1.403353
v -0.587234 0.237315 1.401163
v -0.588492 0.236722 1.403462
v -0.588062 0.241804 1.405669
v -0.587886 0.230810 1.400577
v -0.589238 0.232015 1.402623
v -0.593151 0.229909 1.404191
v -0.592515 0.235906 1.406058
v -0.597421 0.235523 1.406590
v -0.596655 0.240515 1.409357
v -0.591799 0.241064 1.409091
v -0.596704 0.231194 1.405466
v -0.588650 0.244827 1.407614
v -0.588769 0.247256 1.406570
v -0.593004 0.226499 1.403228
v -0.588001 0.230934 1.394181
v -0.587423 0.239091 1.398609
v -0.588033 0.245195 1.401224
v -0.590912 0.248990 1.405214
v -0.590138 0.241695 1.396559
v -0.590639 0.246683 1.399960
v -0.593135 0.249216 1.403564
v -0.594436 0.243562 1.395425
v -0.594744 0.247768 1.399429
v -0.595017 0.234528 1.389596
v -0.590706 0.233084 1.390720
v -0.594820 0.248833 1.401844
v -0.592173 0.247215 1.410125
v -0.594011 0.249241 1.408122
v -0.591737 0.245328 1.410181
v -0.599548 0.235640 1.406386
v -0.598499 0.241641 1.408762
v -0.601767 0.237115 1.405307
v -0.600155 0.243318 1.408065
v -0.596710 0.245643 1.410587
v -0.595308 0.244656 1.410906
v -0.595146 0.232039 1.388226
v -0.600511 0.232709 1.389898
v -0.600579 0.234696 1.390728
v -0.599582 0.243237 1.396890
v -0.604108 0.233612 1.393968
v -0.604424 0.232709 1.399660
v -0.603108 0.238457 1.403157
v -0.602673 0.241198 1.400150
v -0.601615 0.244228 1.406670
v -0.601683 0.244624 1.403357
v -0.598708 0.246998 1.400306
v -0.599141 0.247840 1.408099
v -0.597798 0.246870 1.409842
v -0.595349 0.249489 1.406294
v -0.599955 0.247524 1.405229
v -0.596989 0.248977 1.403530
v -0.618517 0.229783 1.383428
v -0.623726 0.231585 1.385161
v -0.625107 0.230373 1.382103
v -0.620162 0.228162 1.380454
v -0.616632 0.217723 1.387522
v -0.614562 0.221816 1.385585
v -0.616471 0.219547 1.381779
v -0.619156 0.214825 1.382655
v -0.620676 0.216788 1.391567
v -0.624386 0.212902 1.385419
v -0.621645 0.213007 1.377858
v -0.618334 0.218138 1.377871
v -0.625240 0.218693 1.364687
v -0.629214 0.213583 1.365767
v -0.615738 0.226153 1.384072
v -0.617360 0.224429 1.380876
v -0.633097 0.228514 1.384362
v -0.629381 0.231030 1.382267
v -0.629606 0.229808 1.385050
v -0.632064 0.226952 1.387435
v -0.627214 0.228753 1.364274
v -0.632546 0.230743 1.366175
v -0.624797 0.224477 1.364601
v -0.634867 0.222187 1.385619
v -0.633390 0.215134 1.384165
v -0.641050 0.218671 1.372142
v -0.641451 0.224768 1.372641
v -0.618275 0.223322 1.377731
v -0.624883 0.231243 1.379340
v -0.620288 0.228469 1.377793
v -0.627600 0.212193 1.380215
v -0.629943 0.215932 1.388959
v -0.623063 0.228826 1.405892
v -0.630363 0.222597 1.393012
v -0.630409 0.228046 1.390575
v -0.624460 0.232740 1.404294
v -0.632629 0.221670 1.389782
v -0.626809 0.218084 1.393366
v -0.613817 0.237809 1.396598
v -0.619209 0.238229 1.398004
v -0.611124 0.234396 1.396291
v -0.635849 0.213015 1.368544
v -0.638836 0.230269 1.370667
v -0.609933 0.228111 1.400119
v -0.609653 0.231630 1.397607
v -0.628256 0.230679 1.387901
v -0.623431 0.236408 1.401372
v -0.619605 0.225486 1.405316
v -0.614119 0.224485 1.402575
v -0.618767 0.228918 1.409876
v -0.613083 0.228597 1.407660
v -0.608930 0.232011 1.405581
v -0.608943 0.235361 1.402740
v -0.610523 0.237875 1.400947
v -0.622399 0.231988 1.409868
v -0.623561 0.235164 1.407857
v -0.622656 0.237116 1.403086
v -0.622671 0.235191 1.412395
v -0.618032 0.233636 1.414906
v -0.609231 0.247394 1.418165
v -0.609025 0.243156 1.414285
v -0.609704 0.242547 1.415159
v -0.609775 0.246341 1.419417
v -0.609001 0.236909 1.411540
v -0.609818 0.237867 1.413242
v -0.612682 0.235358 1.414419
v -0.613183 0.240341 1.418496
v -0.619157 0.239729 1.418040
v -0.618512 0.243577 1.421110
v -0.613058 0.244165 1.422139
v -0.617112 0.235289 1.415596
v -0.610774 0.248105 1.421848
v -0.609462 0.249558 1.421782
v -0.612473 0.233249 1.413114
v -0.607986 0.239138 1.407230
v -0.608575 0.245090 1.412153
v -0.608684 0.249675 1.415931
v -0.610735 0.251862 1.419177
v -0.610927 0.247135 1.409949
v -0.610992 0.250772 1.413993
v -0.612682 0.252762 1.416990
v -0.613872 0.248054 1.408882
v -0.614011 0.251096 1.412763
v -0.613702 0.241099 1.401839
v -0.610204 0.240470 1.403992
v -0.614471 0.252463 1.415560
v -0.613596 0.248907 1.424197
v -0.615702 0.251735 1.421874
v -0.613451 0.247414 1.423328
v -0.620855 0.239384 1.417373
v -0.620691 0.244503 1.421276
v -0.622850 0.240593 1.415751
v -0.622552 0.245735 1.419637
v -0.618497 0.247109 1.423595
v -0.617534 0.246437 1.423346
v -0.614085 0.239050 1.399563
v -0.619052 0.238997 1.400352
v -0.618547 0.240783 1.402084
v -0.618501 0.248140 1.409342
v -0.622305 0.238946 1.404431
v -0.623588 0.238171 1.410281
v -0.623228 0.243047 1.413576
v -0.621939 0.245996 1.411574
v -0.622841 0.247395 1.417376
v -0.621613 0.248328 1.414958
v -0.618129 0.251147 1.412925
v -0.620365 0.249939 1.419369
v -0.620088 0.248731 1.422025
v -0.616687 0.252650 1.419030
v -0.620199 0.250616 1.416999
v -0.617350 0.252575 1.416629
v -0.636302 0.231504 1.368527
v -0.635065 0.240833 1.388753
v -0.638648 0.242733 1.390321
v -0.639371 0.242067 1.389864
v -0.636101 0.240426 1.387205
v -0.635241 0.229461 1.389979
v -0.632820 0.233482 1.388913
v -0.634590 0.231544 1.385624
v -0.637249 0.227784 1.386430
v -0.640025 0.228133 1.392146
v -0.642236 0.227184 1.389245
v -0.639607 0.228089 1.383262
v -0.636633 0.231662 1.382282
v -0.645391 0.232255 1.367988
v -0.650472 0.229702 1.367559
v -0.658247 0.246790 1.372147
v -0.653547 0.249364 1.369960
v -0.651328 0.246497 1.378390
v -0.655685 0.244258 1.379117
v -0.633155 0.237440 1.388444
v -0.634198 0.236596 1.385566
v -0.648518 0.239966 1.392663
v -0.644712 0.242653 1.390911
v -0.643050 0.242558 1.391976
v -0.646665 0.240868 1.394674
v -0.648580 0.247432 1.369045
v -0.645819 0.243146 1.368185
v -0.644245 0.243179 1.372413
v -0.646721 0.245465 1.376910
v -0.642823 0.238046 1.371083
v -0.650014 0.235694 1.392484
v -0.648981 0.230092 1.390266
v -0.660356 0.235801 1.375382
v -0.659292 0.240438 1.377304
v -0.635525 0.235736 1.383947
v -0.640709 0.242493 1.388106
v -0.637308 0.240195 1.386674
v -0.644772 0.227043 1.385864
v -0.646410 0.230809 1.393275
v -0.643242 0.239196 1.402641
v -0.646966 0.236878 1.397048
v -0.646028 0.241416 1.395485
v -0.643483 0.242233 1.401142
v -0.647780 0.236447 1.395299
v -0.644415 0.231865 1.396265
v -0.633119 0.244118 1.393564
v -0.638026 0.245353 1.395678
v -0.630830 0.241592 1.393393
v -0.656362 0.230835 1.370000
v -0.630940 0.234746 1.396543
v -0.629668 0.238642 1.394765
v -0.642253 0.243015 1.392786
v -0.641680 0.244708 1.398520
v -0.640513 0.235185 1.402584
v -0.635723 0.232370 1.399335
v -0.637895 0.237735 1.405571
v -0.633146 0.235505 1.402447
v -0.628887 0.239010 1.398842
v -0.629370 0.241766 1.396097
v -0.631028 0.244111 1.394716
v -0.641530 0.241248 1.404898
v -0.642389 0.243571 1.402987
v -0.641245 0.245407 1.399563
v -0.639792 0.243670 1.407338
v -0.635143 0.242972 1.408250
v -0.628786 0.254404 1.405278
v -0.628685 0.250805 1.403059
v -0.628857 0.250293 1.404136
v -0.628357 0.253874 1.406139
v -0.628401 0.245323 1.401775
v -0.628877 0.246172 1.403369
v -0.630724 0.243503 1.405235
v -0.630352 0.248336 1.407695
v -0.635093 0.248169 1.410317
v -0.634216 0.251893 1.411923
v -0.629971 0.251576 1.409703
v -0.633767 0.244221 1.408339
v -0.628236 0.255570 1.408370
v -0.628178 0.256998 1.408268
v -0.630570 0.241062 1.404724
v -0.629251 0.246648 1.397989
v -0.629198 0.252805 1.401449
v -0.629118 0.256812 1.404719
v -0.629855 0.258678 1.408058
v -0.631123 0.253322 1.399925
v -0.630833 0.257961 1.403680
v -0.631648 0.259594 1.406917
v -0.634394 0.253789 1.399377
v -0.633407 0.257824 1.403247
v -0.635210 0.248473 1.395858
v -0.631741 0.247984 1.396242
v -0.633132 0.259063 1.406077
v -0.630078 0.256368 1.411665
v -0.632026 0.258380 1.410597
v -0.629823 0.254745 1.411638
v -0.636471 0.248144 1.410472
v -0.635574 0.252748 1.412358
v -0.638719 0.248850 1.409797
v -0.637137 0.253981 1.411499
v -0.633386 0.255476 1.412933
v -0.632381 0.253913 1.412490
v -0.634267 0.246454 1.394837
v -0.637811 0.246355 1.396371
v -0.638887 0.247993 1.397797
v -0.638147 0.253170 1.401066
v -0.641767 0.246481 1.401375
v -0.641743 0.244887 1.405039
v -0.640224 0.250196 1.407945
v -0.640512 0.251884 1.404987
v -0.637913 0.255334 1.409980
v -0.638259 0.256324 1.407134
v -0.636580 0.257335 1.404405
v -0.635178 0.257965 1.410214
v -0.634463 0.257262 1.411815
v -0.633416 0.259054 1.409201
v -0.635841 0.258292 1.408434
v -0.634731 0.258834 1.407304
v -0.659967 0.243063 1.372840
v -0.559130 0.259347 1.314958
v -0.563712 0.257816 1.318219
v -0.565417 0.269573 1.329940
v -0.566982 0.262822 1.327854
v -0.560785 0.274706 1.328423
v -0.553394 0.275601 1.320267
v -0.557464 0.276919 1.324181
v -0.566520 0.258769 1.323382
v -0.555267 0.263895 1.313357
v -0.552721 0.270754 1.315007
v -0.548366 0.255985 1.318000
v -0.544573 0.264100 1.321001
v -0.545183 0.268930 1.326824
v -0.552610 0.272226 1.329790
v -0.557110 0.271857 1.332274
v -0.556970 0.255087 1.318804
v -0.561870 0.255092 1.321276
v -0.565080 0.258131 1.326447
v -0.558490 0.250267 1.324411
v -0.554362 0.248824 1.332680
v -0.553870 0.256057 1.351637
v -0.552899 0.259717 1.345610
v -0.552219 0.257242 1.344912
v -0.552822 0.254139 1.350582
v -0.550305 0.260223 1.340052
v -0.551136 0.258051 1.340331
v -0.551507 0.254389 1.336449
v -0.552642 0.251640 1.342147
v -0.554465 0.250331 1.335402
v -0.556491 0.248109 1.339135
v -0.553604 0.248778 1.347380
v -0.552852 0.250691 1.352885
v -0.554459 0.246559 1.351702
v -0.554850 0.251758 1.354841
v -0.547482 0.253575 1.334311
v -0.551621 0.266215 1.337858
v -0.554610 0.262606 1.345531
v -0.556693 0.258199 1.352027
v -0.557806 0.252929 1.355053
v -0.558530 0.263808 1.345270
v -0.560370 0.259026 1.350368
v -0.561603 0.253891 1.352543
v -0.562929 0.262501 1.343788
v -0.563309 0.257637 1.348168
v -0.562754 0.267571 1.334845
v -0.557060 0.269378 1.336483
v -0.563028 0.254251 1.350253
v -0.556290 0.245950 1.353647
v -0.559455 0.247222 1.353569
v -0.558592 0.246884 1.336887
v -0.557118 0.245153 1.343869
v -0.559648 0.244688 1.343009
v -0.561777 0.247348 1.334768
v -0.562258 0.245067 1.342520
v -0.558778 0.243616 1.348633
v -0.556341 0.244506 1.348038
v -0.562455 0.268853 1.332850
v -0.565163 0.263484 1.330304
v -0.565567 0.262902 1.331299
v -0.566362 0.258236 1.340029
v -0.566342 0.257378 1.328377
v -0.563145 0.252845 1.325465
v -0.564975 0.249054 1.334927
v -0.566932 0.253015 1.336561
v -0.564631 0.247587 1.342662
v -0.565528 0.250408 1.343215
v -0.565396 0.254394 1.345964
v -0.563522 0.247320 1.347858
v -0.561595 0.244571 1.348331
v -0.562524 0.249598 1.351464
v -0.564332 0.249616 1.346814
v -0.563865 0.251707 1.349115
v -0.654506 0.252622 1.365981
v -0.648176 0.250570 1.364620
v -0.649500 0.255694 1.361795
v -0.649299 0.263746 1.357460
v -0.655434 0.271328 1.353525
v -0.643647 0.261205 1.354037
v -0.643977 0.253039 1.358923
v -0.642259 0.245325 1.362850
v -0.639262 0.264915 1.345494
f 2 3 1
f 1 3 4
f 5 6 8
f 8 6 7
f 9 4 10
f 10 4 3
f 12 13 11
f 11 13 9
f 14 12 16
f 16 12 15
f 18 19 17
f 17 19 20
f 22 23 21
f 21 23 24
f 26 27 25
f 25 27 28
f 30 31 29
f 29 31 32
f 33 34 36
f 36 34 35
f 37 38 40
f 40 38 39
f 41 42 6
f 6 42 43
f 6 43 7
f 7 43 44
f 45 34 46
f 46 34 33
f 48 49 47
f 47 49 50
f 52 53 51
f 51 53 54
f 56 52 55
f 55 52 51
f 58 59 57
f 57 59 60
f 61 62 4
f 4 62 1
f 64 65 63
f 63 65 66
f 68 69 67
f 67 69 70
f 72 73 71
f 71 73 74
f 76 77 75
f 75 77 78
f 53 79 54
f 54 79 80
f 82 83 81
f 81 83 84
f 85 86 52
f 52 86 53
f 57 60 87
f 87 60 88
f 89 90 43
f 43 90 44
f 43 42 89
f 89 42 91
f 40 39 92
f 92 39 93
f 94 70 64
f 64 70 69
f 13 61 9
f 9 61 4
f 25 28 69
f 69 28 95
f 96 25 68
f 68 25 69
f 98 99 97
f 97 99 100
f 101 102 104
f 104 102 103
f 106 30 105
f 105 30 29
f 51 54 107
f 107 54 108
f 54 80 108
f 108 80 109
f 111 112 110
f 110 112 113
f 115 5 114
f 114 5 116
f 115 41 5
f 5 41 6
f 36 35 111
f 111 35 117
f 35 118 117
f 117 118 119
f 34 120 35
f 35 120 118
f 34 45 120
f 120 45 121
f 125 126 124
f 124 126 127
f 128 129 14
f 14 129 130
f 33 131 46
f 46 131 132
f 133 94 63
f 63 94 64
f 134 135 137
f 137 135 136
f 139 140 138
f 138 140 141
f 77 142 78
f 78 142 143
f 144 145 20
f 20 145 146
f 148 149 147
f 147 149 72
f 151 152 150
f 150 152 153
f 82 101 83
f 83 101 104
f 101 82 155
f 155 82 154
f 156 157 58
f 58 157 59
f 158 68 147
f 147 68 67
f 159 146 15
f 15 146 16
f 68 158 96
f 96 158 160
f 129 66 130
f 130 66 65
f 162 163 161
f 161 163 164
f 166 167 165
f 165 167 168
f 170 171 169
f 169 171 172
f 174 171 173
f 173 171 170
f 176 177 175
f 175 177 178
f 180 181 179
f 179 181 24
f 182 183 21
f 21 183 184
f 81 185 82
f 82 185 154
f 186 187 188
f 188 187 144
f 158 71 160
f 160 71 189
f 190 135 157
f 157 135 59
f 169 172 139
f 139 172 140
f 147 72 158
f 158 72 71
f 192 193 191
f 191 193 194
f 167 166 49
f 49 166 195
f 196 190 50
f 50 190 157
f 197 198 200
f 200 198 199
f 21 24 182
f 182 24 181
f 146 159 20
f 20 159 17
f 182 181 81
f 81 181 185
f 201 185 180
f 180 185 181
f 202 203 83
f 83 203 84
f 205 206 204
f 204 206 85
f 207 22 184
f 184 22 21
f 179 24 208
f 208 24 23
f 208 209 179
f 179 209 205
f 209 210 205
f 205 210 206
f 212 206 211
f 211 206 210
f 179 205 180
f 180 205 204
f 213 176 88
f 88 176 214
f 86 85 212
f 212 85 206
f 193 217 218
f 217 219 218
f 218 219 220
f 219 18 220
f 220 18 17
f 19 221 20
f 20 221 144
f 222 223 225
f 225 223 224
f 175 226 176
f 176 226 214
f 227 87 214
f 214 87 88
f 220 17 228
f 228 17 159
f 134 213 60
f 60 213 88
f 138 229 151
f 151 229 152
f 193 192 210
f 210 192 211
f 230 194 218
f 218 194 193
f 231 232 228
f 228 232 230
f 233 234 91
f 91 234 89
f 235 236 93
f 93 236 92
f 230 232 234
f 234 232 237
f 47 238 48
f 48 238 239
f 240 191 235
f 235 191 236
f 5 8 116
f 116 8 241
f 242 243 189
f 189 243 160
f 244 245 98
f 98 245 99
f 156 246 47
f 47 246 238
f 76 247 77
f 77 247 248
f 250 125 249
f 249 125 124
f 252 253 251
f 251 253 254
f 111 110 36
f 36 110 255
f 256 33 255
f 255 33 36
f 257 258 154
f 154 258 155
f 63 169 133
f 133 169 139
f 66 170 63
f 63 170 169
f 173 170 129
f 129 170 66
f 129 128 173
f 173 128 259
f 128 260 259
f 259 260 261
f 213 134 262
f 262 134 137
f 263 264 186
f 186 264 187
f 112 265 113
f 113 265 266
f 11 267 268
f 234 233 230
f 230 233 194
f 153 269 70
f 70 269 67
f 175 178 165
f 165 178 141
f 150 153 94
f 94 153 70
f 271 221 270
f 270 221 207
f 269 153 272
f 272 153 152
f 121 45 109
f 109 45 108
f 47 50 156
f 156 50 157
f 57 273 58
f 58 273 274
f 145 275 260
f 260 275 261
f 276 149 143
f 143 149 78
f 148 269 75
f 75 269 272
f 207 277 270
f 270 277 278
f 195 196 49
f 49 196 50
f 59 135 60
f 60 135 134
f 83 104 202
f 202 104 279
f 149 148 78
f 78 148 75
f 247 278 248
f 248 278 277
f 183 182 84
f 84 182 81
f 48 239 281
f 281 239 282
f 227 223 283
f 283 223 222
f 223 226 224
f 224 226 168
f 281 282 224
f 224 282 225
f 165 168 175
f 175 168 226
f 264 263 138
f 138 263 229
f 14 16 128
f 128 16 260
f 220 228 218
f 218 228 230
f 87 227 284
f 284 227 283
f 260 16 145
f 145 16 146
f 244 98 258
f 258 98 155
f 58 274 156
f 156 274 246
f 107 285 51
f 51 285 55
f 243 286 160
f 160 286 96
f 234 237 89
f 89 237 90
f 46 132 107
f 107 132 285
f 253 252 249
f 249 252 250
f 286 26 96
f 96 26 25
f 106 105 287
f 287 105 288
f 272 152 289
f 289 152 229
f 138 151 139
f 139 151 133
f 183 290 161
f 161 290 162
f 291 292 277
f 277 292 293
f 151 150 133
f 133 150 94
f 262 275 177
f 177 275 187
f 144 187 145
f 145 187 275
f 273 57 284
f 284 57 87
f 174 136 190
f 190 136 135
f 111 117 112
f 112 117 38
f 117 119 38
f 38 119 123
f 112 38 265
f 265 38 37
f 287 288 254
f 254 288 251
f 228 159 231
f 231 159 15
f 223 227 226
f 226 227 214
f 147 67 148
f 148 67 269
f 224 168 281
f 281 168 167
f 199 163 200
f 200 163 162
f 45 46 108
f 108 46 107
f 281 167 48
f 48 167 49
f 161 164 291
f 291 164 292
f 38 123 39
f 293 294 277
f 277 294 248
f 284 283 296
f 296 283 295
f 284 296 273
f 273 296 297
f 274 273 298
f 298 273 297
f 246 274 299
f 299 274 298
f 283 222 295
f 295 222 300
f 222 225 300
f 300 225 301
f 301 225 302
f 302 225 282
f 303 304 300
f 300 304 295
f 306 307 305
f 305 307 308
f 309 310 308
f 308 310 305
f 308 307 312
f 312 307 311
f 313 314 312
f 312 314 315
f 311 316 312
f 312 316 313
f 317 304 311
f 311 304 316
f 315 309 312
f 312 309 308
f 318 319 321
f 321 319 320
f 319 318 309
f 309 318 310
f 311 307 317
f 317 307 306
f 306 297 317
f 317 297 296
f 306 322 297
f 297 322 298
f 305 323 306
f 306 323 322
f 323 305 324
f 324 305 310
f 304 317 295
f 295 317 296
f 318 325 310
f 310 325 324
f 323 324 326
f 326 324 327
f 324 325 327
f 327 325 328
f 326 327 329
f 329 327 330
f 329 331 326
f 326 331 332
f 333 330 328
f 328 330 327
f 323 326 322
f 322 326 332
f 322 332 298
f 298 332 299
f 325 318 334
f 334 318 321
f 313 316 335
f 335 316 304
f 335 336 313
f 313 336 314
f 304 303 335
f 335 303 337
f 336 335 338
f 338 335 337
f 336 339 314
f 314 339 340
f 246 299 238
f 238 299 341
f 239 342 282
f 282 342 302
f 342 239 341
f 341 239 238
f 341 331 342
f 342 331 343
f 331 329 343
f 343 329 344
f 342 343 302
f 302 343 345
f 341 299 331
f 331 299 332
f 346 301 345
f 345 301 302
f 346 303 301
f 301 303 300
f 347 337 346
f 346 337 303
f 347 346 348
f 348 346 345
f 349 347 350
f 350 347 348
f 343 344 345
f 345 344 348
f 344 351 348
f 348 351 350
f 337 347 338
f 338 347 349
f 353 338 352
f 352 338 349
f 352 355 354
f 354 355 356
f 352 349 355
f 355 349 350
f 352 354 353
f 353 354 334
f 353 334 339
f 339 334 321
f 339 336 353
f 353 336 338
f 329 330 344
f 344 330 351
f 356 351 333
f 333 351 330
f 356 355 351
f 351 355 350
f 354 356 328
f 328 356 333
f 328 325 354
f 354 325 334
f 309 315 319
f 319 315 320
f 320 340 321
f 321 340 339
f 320 315 340
f 340 315 314
f 137 136 261
f 261 136 259
f 140 166 141
f 141 166 165
f 172 171 195
f 195 171 196
f 171 174 196
f 196 174 190
f 178 177 264
f 264 177 187
f 172 195 140
f 140 195 166
f 137 261 262
f 262 261 275
f 178 264 141
f 141 264 138
f 262 177 213
f 213 177 176
f 136 174 259
f 259 174 173
f 358 359 357
f 357 359 360
f 362 363 361
f 361 363 364
f 361 364 365
f 365 364 366
f 367 368 370
f 370 368 369
f 76 371 247
f 247 371 372
f 373 374 362
f 362 374 363
f 376 377 375
f 375 377 378
f 289 229 380
f 380 229 379
f 381 379 263
f 263 379 229
f 383 384 382
f 382 384 385
f 386 368 374
f 374 368 363
f 76 289 371
f 371 289 380
f 377 376 359
f 359 376 387
f 388 386 360
f 360 386 374
f 389 383 366
f 366 383 390
f 392 393 391
f 391 393 394
f 383 382 390
f 390 382 395
f 396 365 390
f 390 365 366
f 389 366 367
f 367 366 364
f 357 397 358
f 358 397 398
f 373 399 357
f 357 399 397
f 389 367 400
f 400 367 370
f 382 385 375
f 375 385 372
f 357 360 373
f 373 360 374
f 361 401 362
f 362 401 402
f 387 388 359
f 359 388 360
f 363 368 364
f 364 368 367
f 358 398 403
f 403 398 404
f 396 392 405
f 405 392 391
f 392 395 393
f 393 395 378
f 393 403 394
f 394 403 404
f 375 378 382
f 382 378 395
f 365 396 406
f 406 396 405
f 362 402 373
f 373 402 399
f 271 270 400
f 400 270 384
f 401 361 406
f 406 361 365
f 381 369 386
f 386 369 368
f 392 396 395
f 395 396 390
f 393 378 403
f 403 378 377
f 403 377 358
f 358 377 359
f 406 405 408
f 408 405 407
f 406 408 401
f 401 408 409
f 401 409 402
f 402 409 410
f 402 410 399
f 399 410 411
f 405 391 407
f 407 391 412
f 391 394 412
f 412 394 413
f 394 404 413
f 413 404 414
f 415 416 412
f 412 416 407
f 418 419 417
f 417 419 420
f 421 422 418
f 418 422 419
f 419 422 424
f 424 422 423
f 425 426 424
f 424 426 427
f 423 428 424
f 424 428 425
f 427 420 424
f 424 420 419
f 420 429 417
f 417 429 430
f 423 422 431
f 431 422 421
f 421 409 431
f 431 409 408
f 421 432 409
f 409 432 410
f 418 433 421
f 421 433 432
f 434 433 417
f 417 433 418
f 431 416 423
f 423 416 428
f 416 431 407
f 407 431 408
f 435 434 430
f 430 434 417
f 433 434 436
f 436 434 437
f 434 435 437
f 437 435 438
f 436 437 439
f 439 437 440
f 439 441 436
f 436 441 442
f 438 443 437
f 437 443 440
f 436 442 433
f 433 442 432
f 432 442 410
f 410 442 411
f 435 430 445
f 445 430 444
f 430 429 444
f 444 429 446
f 425 428 447
f 447 428 416
f 426 425 448
f 448 425 447
f 416 415 447
f 447 415 449
f 447 449 448
f 448 449 450
f 451 452 448
f 448 452 426
f 446 452 444
f 444 452 451
f 399 411 397
f 397 411 453
f 398 454 404
f 404 454 414
f 454 398 453
f 453 398 397
f 453 441 454
f 454 441 455
f 441 439 455
f 455 439 456
f 454 455 414
f 414 455 457
f 441 453 442
f 442 453 411
f 458 413 457
f 457 413 414
f 458 415 413
f 413 415 412
f 458 459 415
f 415 459 449
f 459 458 460
f 460 458 457
f 461 459 462
f 462 459 460
f 455 456 457
f 457 456 460
f 456 463 460
f 460 463 462
f 459 461 449
f 449 461 450
f 465 450 464
f 464 450 461
f 464 467 466
f 466 467 468
f 464 461 467
f 467 461 462
f 464 466 465
f 465 466 445
f 465 445 451
f 451 445 444
f 451 448 465
f 465 448 450
f 439 440 456
f 456 440 463
f 468 463 443
f 443 463 440
f 468 467 463
f 463 467 462
f 466 468 438
f 438 468 443
f 438 435 466
f 466 435 445
f 420 427 429
f 429 427 446
f 446 427 452
f 452 427 426
f 370 369 188
f 188 369 186
f 371 376 372
f 372 376 375
f 380 379 387
f 387 379 388
f 379 381 388
f 388 381 386
f 385 384 278
f 278 384 270
f 380 387 371
f 371 387 376
f 400 370 271
f 271 370 188
f 385 278 372
f 372 278 247
f 400 384 389
f 389 384 383
f 369 381 186
f 186 381 263
f 221 271 144
f 144 271 188
f 221 19 207
f 207 19 22
f 19 18 22
f 22 18 23
f 18 219 23
f 23 219 208
f 469 470 472
f 472 470 471
f 474 475 473
f 473 475 476
f 473 476 477
f 477 476 478
f 480 481 479
f 479 481 482
f 483 484 474
f 474 484 475
f 486 487 485
f 485 487 488
f 489 490 77
f 77 490 142
f 491 489 248
f 248 489 77
f 493 494 492
f 492 494 495
f 496 480 484
f 484 480 475
f 486 497 487
f 487 497 471
f 498 496 472
f 472 496 484
f 499 493 478
f 478 493 500
f 501 502 504
f 504 502 503
f 493 492 500
f 500 492 505
f 506 477 500
f 500 477 478
f 499 478 479
f 479 478 476
f 469 507 470
f 470 507 508
f 483 509 469
f 469 509 507
f 479 482 499
f 499 482 510
f 492 495 485
f 485 495 511
f 483 469 484
f 484 469 472
f 473 512 474
f 474 512 513
f 497 498 471
f 471 498 472
f 475 480 476
f 476 480 479
f 470 508 514
f 514 508 515
f 506 502 516
f 516 502 501
f 503 502 488
f 488 502 505
f 514 515 503
f 503 515 504
f 485 488 492
f 492 488 505
f 477 506 517
f 517 506 516
f 474 513 483
f 483 513 509
f 510 292 494
f 494 292 164
f 512 473 517
f 517 473 477
f 491 481 496
f 496 481 480
f 502 506 505
f 505 506 500
f 503 488 514
f 514 488 487
f 514 487 470
f 470 487 471
f 517 516 519
f 519 516 518
f 517 519 512
f 512 519 520
f 512 520 513
f 513 520 521
f 513 521 509
f 509 521 522
f 516 501 518
f 518 501 523
f 501 504 523
f 523 504 524
f 524 504 525
f 525 504 515
f 526 527 523
f 523 527 518
f 529 530 528
f 528 530 531
f 532 533 529
f 529 533 530
f 530 533 535
f 535 533 534
f 536 537 535
f 535 537 538
f 534 539 535
f 535 539 536
f 538 531 535
f 535 531 530
f 540 541 531
f 531 541 528
f 533 532 534
f 534 532 542
f 532 520 542
f 542 520 519
f 532 543 520
f 520 543 521
f 529 544 532
f 532 544 543
f 544 529 545
f 545 529 528
f 534 542 539
f 539 542 527
f 527 542 518
f 518 542 519
f 541 546 528
f 528 546 545
f 547 544 548
f 548 544 545
f 546 549 545
f 545 549 548
f 550 547 551
f 551 547 548
f 547 550 553
f 553 550 552
f 549 554 548
f 548 554 551
f 544 547 543
f 543 547 553
f 543 553 521
f 521 553 522
f 546 541 556
f 556 541 555
f 541 540 555
f 555 540 557
f 536 539 558
f 558 539 527
f 537 536 559
f 559 536 558
f 527 526 558
f 558 526 560
f 559 558 561
f 561 558 560
f 559 562 537
f 537 562 563
f 557 563 555
f 555 563 562
f 509 522 507
f 507 522 564
f 508 565 515
f 515 565 525
f 565 508 564
f 564 508 507
f 564 552 565
f 565 552 566
f 552 550 566
f 566 550 567
f 565 566 525
f 525 566 568
f 564 522 552
f 552 522 553
f 569 524 568
f 568 524 525
f 569 526 524
f 524 526 523
f 570 560 569
f 569 560 526
f 570 569 571
f 571 569 568
f 572 570 573
f 573 570 571
f 566 567 568
f 568 567 571
f 567 574 571
f 571 574 573
f 570 572 560
f 560 572 561
f 576 561 575
f 575 561 572
f 575 578 577
f 577 578 579
f 575 572 578
f 578 572 573
f 575 577 576
f 576 577 556
f 576 556 562
f 562 556 555
f 562 559 576
f 576 559 561
f 550 551 567
f 567 551 574
f 579 574 554
f 554 574 551
f 579 578 574
f 574 578 573
f 579 554 577
f 577 554 549
f 549 546 577
f 577 546 556
f 531 538 540
f 540 538 557
f 557 538 563
f 563 538 537
f 481 294 482
f 482 294 293
f 580 486 511
f 511 486 485
f 490 489 497
f 497 489 498
f 489 491 498
f 498 491 496
f 163 495 164
f 164 495 494
f 580 490 486
f 486 490 497
f 482 293 510
f 510 293 292
f 495 163 511
f 511 163 199
f 494 493 510
f 510 493 499
f 481 491 294
f 294 491 248
f 582 583 581
f 581 583 584
f 586 587 585
f 585 587 588
f 585 588 589
f 589 588 590
f 592 593 591
f 591 593 594
f 595 596 598
f 598 596 597
f 599 600 586
f 586 600 587
f 601 602 604
f 604 602 603
f 605 606 608
f 608 606 607
f 609 607 200
f 200 607 606
f 610 611 613
f 613 611 612
f 600 614 587
f 587 614 592
f 596 605 597
f 597 605 608
f 602 615 603
f 603 615 583
f 616 614 584
f 584 614 600
f 611 618 617
f 617 618 590
f 620 621 619
f 619 621 622
f 610 623 611
f 611 623 618
f 624 589 618
f 618 589 590
f 617 590 591
f 591 590 588
f 581 625 582
f 582 625 626
f 599 627 581
f 581 627 625
f 591 594 617
f 617 594 628
f 601 610 598
f 598 610 613
f 581 584 599
f 599 584 600
f 585 629 586
f 586 629 630
f 615 616 583
f 583 616 584
f 587 592 588
f 588 592 591
f 582 626 631
f 631 626 632
f 624 620 633
f 633 620 619
f 621 620 604
f 604 620 623
f 631 632 621
f 621 632 622
f 610 601 623
f 623 601 604
f 589 624 634
f 634 624 633
f 586 630 599
f 599 630 627
f 203 202 628
f 628 202 612
f 629 585 634
f 634 585 589
f 609 593 614
f 614 593 592
f 620 624 623
f 623 624 618
f 631 621 603
f 603 621 604
f 582 631 583
f 583 631 603
f 634 633 636
f 636 633 635
f 634 636 629
f 629 636 637
f 629 637 630
f 630 637 638
f 630 638 627
f 627 638 639
f 633 619 635
f 635 619 640
f 619 622 640
f 640 622 641
f 641 622 642
f 642 622 632
f 644 635 643
f 643 635 640
f 645 646 648
f 648 646 647
f 649 650 646
f 646 650 647
f 647 650 652
f 652 650 651
f 652 653 655
f 655 653 654
f 651 656 652
f 652 656 653
f 655 648 652
f 652 648 647
f 648 657 645
f 645 657 658
f 650 649 651
f 651 649 659
f 649 637 659
f 659 637 636
f 649 660 637
f 637 660 638
f 661 660 646
f 646 660 649
f 662 661 645
f 645 661 646
f 651 659 656
f 656 659 644
f 644 659 635
f 635 659 636
f 663 662 658
f 658 662 645
f 664 661 665
f 665 661 662
f 663 666 662
f 662 666 665
f 667 664 668
f 668 664 665
f 664 667 670
f 670 667 669
f 666 671 665
f 665 671 668
f 661 664 660
f 660 664 670
f 660 670 638
f 638 670 639
f 658 672 663
f 663 672 673
f 658 657 672
f 672 657 674
f 653 656 675
f 675 656 644
f 653 675 654
f 654 675 676
f 675 644 677
f 677 644 643
f 676 675 678
f 678 675 677
f 679 680 676
f 676 680 654
f 674 680 672
f 672 680 679
f 627 639 625
f 625 639 681
f 626 682 632
f 632 682 642
f 681 682 625
f 625 682 626
f 669 683 681
f 681 683 682
f 667 684 669
f 669 684 683
f 682 683 642
f 642 683 685
f 681 639 669
f 669 639 670
f 686 641 685
f 685 641 642
f 641 686 640
f 640 686 643
f 686 687 643
f 643 687 677
f 687 686 688
f 688 686 685
f 689 687 690
f 690 687 688
f 683 684 685
f 685 684 688
f 684 691 688
f 688 691 690
f 687 689 677
f 677 689 678
f 693 678 692
f 692 678 689
f 692 695 694
f 694 695 696
f 692 689 695
f 695 689 690
f 692 694 693
f 693 694 673
f 693 673 679
f 679 673 672
f 679 676 693
f 693 676 678
f 684 667 691
f 691 667 668
f 696 691 671
f 671 691 668
f 696 695 691
f 691 695 690
f 694 696 666
f 666 696 671
f 666 663 694
f 694 663 673
f 648 655 657
f 657 655 674
f 674 655 680
f 680 655 654
f 593 162 594
f 594 162 290
f 598 597 601
f 601 597 602
f 615 608 616
f 616 608 607
f 607 609 616
f 616 609 614
f 697 595 613
f 613 595 598
f 597 608 602
f 602 608 615
f 594 290 628
f 628 290 203
f 628 612 617
f 617 612 611
f 593 609 162
f 162 609 200
f 105 29 698
f 698 29 699
f 268 126 701
f 701 126 700
f 126 125 700
f 700 125 702
f 252 703 250
f 250 703 704
f 32 268 705
f 705 268 701
f 288 105 706
f 706 105 698
f 29 32 699
f 699 32 705
f 707 251 706
f 706 251 288
f 250 704 125
f 125 704 702
f 703 252 707
f 707 252 251
f 706 708 707
f 707 708 709
f 707 709 703
f 703 709 710
f 703 710 704
f 704 710 711
f 704 711 702
f 702 711 712
f 706 698 708
f 708 698 713
f 698 699 713
f 713 699 714
f 699 705 714
f 714 705 715
f 717 708 716
f 716 708 713
f 719 720 718
f 718 720 721
f 722 723 719
f 719 723 720
f 724 725 723
f 723 725 720
f 724 726 725
f 725 726 727
f 728 721 725
f 725 721 720
f 721 728 729
f 729 728 730
f 729 731 721
f 721 731 718
f 724 723 732
f 732 723 722
f 722 710 732
f 732 710 709
f 722 733 710
f 710 733 711
f 719 734 722
f 722 734 733
f 734 719 735
f 735 719 718
f 724 732 726
f 726 732 717
f 717 732 708
f 708 732 709
f 731 736 718
f 718 736 735
f 737 734 738
f 738 734 735
f 736 739 735
f 735 739 738
f 740 737 741
f 741 737 738
f 737 740 743
f 743 740 742
f 739 744 738
f 738 744 741
f 734 737 733
f 733 737 743
f 733 743 711
f 711 743 712
f 736 731 746
f 746 731 745
f 731 729 745
f 745 729 730
f 727 726 747
f 747 726 717
f 748 727 749
f 749 727 747
f 747 717 750
f 750 717 716
f 749 747 751
f 751 747 750
f 749 752 748
f 748 752 753
f 730 753 745
f 745 753 752
f 728 725 748
f 748 725 727
f 730 728 753
f 753 728 748
f 700 702 754
f 754 702 712
f 705 701 715
f 715 701 755
f 754 755 700
f 700 755 701
f 742 756 754
f 754 756 755
f 740 757 742
f 742 757 756
f 755 756 715
f 715 756 758
f 754 712 742
f 742 712 743
f 759 714 758
f 758 714 715
f 714 759 713
f 713 759 716
f 759 760 716
f 716 760 750
f 760 759 761
f 761 759 758
f 762 760 763
f 763 760 761
f 756 757 758
f 758 757 761
f 757 764 761
f 761 764 763
f 760 762 750
f 750 762 751
f 766 751 765
f 765 751 762
f 767 765 769
f 769 765 768
f 765 762 768
f 768 762 763
f 765 767 766
f 766 767 746
f 766 746 752
f 752 746 745
f 752 749 766
f 766 749 751
f 757 740 764
f 764 740 741
f 769 764 744
f 744 764 741
f 769 768 764
f 764 768 763
f 767 769 739
f 739 769 744
f 739 736 767
f 767 736 746
f 219 217 208
f 208 217 209
f 209 217 210
f 210 217 193
f 198 580 199
f 199 580 511
f 76 75 289
f 289 75 272
f 277 207 291
f 291 207 184
f 290 183 203
f 203 183 84
f 490 580 142
f 142 580 198
f 142 198 143
f 143 198 197
f 149 276 72
f 72 276 73
f 104 103 279
f 279 103 770
f 770 596 279
f 279 596 595
f 605 596 771
f 771 596 770
f 771 770 772
f 772 770 103
f 772 103 773
f 773 103 102
f 155 774 101
f 101 774 102
f 773 102 97
f 97 102 774
f 775 773 100
f 100 773 97
f 773 775 772
f 772 775 776
f 772 776 771
f 771 776 777
f 200 606 197
f 197 606 777
f 189 71 778
f 778 71 74
f 97 774 98
f 98 774 155
f 183 161 184
f 184 161 291
f 777 276 197
f 197 276 143
f 777 606 771
f 771 606 605
f 613 612 697
f 697 612 202
f 595 697 279
f 279 697 202
f 73 276 776
f 776 276 777
f 776 775 73
f 73 775 74
f 100 778 775
f 775 778 74
f 778 100 189
f 189 100 99
f 245 242 99
f 99 242 189
f 131 33 256
f 28 1 95
f 95 1 62
f 27 2 28
f 28 2 1
f 265 115 266
f 266 115 114
f 95 62 69
f 69 62 64
f 62 61 64
f 64 61 65
f 61 13 65
f 65 13 130
f 13 12 130
f 130 12 14
f 31 11 32
f 32 11 268
f 15 12 31
f 31 12 11
f 31 30 15
f 15 30 231
f 30 106 231
f 231 106 232
f 287 237 106
f 106 237 232
f 254 90 287
f 287 90 237
f 253 44 254
f 254 44 90
f 253 249 44
f 44 249 7
f 267 127 268
f 268 127 126
f 10 3 241
f 241 3 116
f 3 2 116
f 116 2 114
f 2 27 114
f 114 27 266
f 27 26 266
f 266 26 113
f 26 286 113
f 113 286 110
f 286 243 110
f 110 243 255
f 243 242 255
f 255 242 256
f 242 245 256
f 256 245 131
f 245 244 131
f 131 244 132
f 265 37 115
f 115 37 41
f 41 37 42
f 42 37 40
f 92 91 40
f 40 91 42
f 236 233 92
f 92 233 91
f 191 194 236
f 236 194 233
f 258 285 244
f 244 285 132
f 257 55 258
f 258 55 285
f 257 154 201
f 201 154 185
f 56 201 204
f 204 201 180
f 55 257 56
f 56 257 201
f 204 85 56
f 56 85 52
f 86 122 53
f 53 122 79
f 212 215 86
f 86 215 122
f 211 216 212
f 212 216 215
f 192 280 211
f 211 280 216
f 191 240 192
f 192 240 280
f 249 124 7
f 7 124 8
f 124 127 8
f 8 127 241
f 127 267 241
f 241 267 10
f 10 267 9
f 9 267 11
o hand_right
v 0.743433 0.063588 1.412762
v 0.745635 0.072983 1.410876
v 0.734057 0.073621 1.413564
v 0.732592 0.063178 1.414716
v 0.742764 0.095074 1.410888
v 0.740197 0.104053 1.402244
v 0.725471 0.101354 1.407929
v 0.730296 0.095086 1.414852
v 0.723787 0.062746 1.413870
v 0.725975 0.074324 1.415061
v 0.720061 0.064046 1.408537
v 0.720628 0.048978 1.404288
v 0.723824 0.051051 1.411236
v 0.721719 0.038897 1.404518
v 0.724552 0.049674 1.393434
v 0.726734 0.032583 1.398379
v 0.755239 0.040801 1.388965
v 0.768731 0.040804 1.391892
v 0.764533 0.025064 1.400273
v 0.750967 0.027156 1.397354
v 0.783526 0.032922 1.405613
v 0.772905 0.027953 1.403069
v 0.777482 0.042660 1.393671
v 0.786636 0.046483 1.396550
v 0.761456 0.066208 1.411745
v 0.765237 0.075089 1.408841
v 0.758380 0.073356 1.408625
v 0.755299 0.065497 1.411241
v 0.711482 0.074885 1.403834
v 0.717559 0.070332 1.393738
v 0.718161 0.064805 1.399999
v 0.713858 0.074187 1.408674
v 0.781533 0.100174 1.406864
v 0.784984 0.107621 1.396025
v 0.779593 0.107727 1.393699
v 0.777761 0.100265 1.403900
v 0.757807 0.106897 1.393165
v 0.763956 0.109191 1.385693
v 0.758973 0.110799 1.372382
v 0.752292 0.106378 1.377015
v 0.749442 0.105070 1.398839
v 0.744588 0.106296 1.385281
v 0.735890 0.105233 1.391111
v 0.720673 0.102734 1.399587
v 0.797442 0.105489 1.398626
v 0.796649 0.100152 1.407319
v 0.711118 0.034228 1.443290
v 0.716866 0.034918 1.445130
v 0.717733 0.034453 1.442053
v 0.712096 0.033521 1.440512
v 0.809956 0.090017 1.394392
v 0.810904 0.083873 1.386412
v 0.813362 0.090452 1.384344
v 0.810805 0.096728 1.390929
v 0.808768 0.081173 1.398976
v 0.806909 0.075095 1.389614
v 0.706229 0.023873 1.449021
v 0.705208 0.028310 1.446378
v 0.706114 0.025013 1.442537
v 0.707718 0.019951 1.444722
v 0.731018 0.053349 1.415218
v 0.740916 0.055325 1.416249
v 0.731013 0.037884 1.420359
v 0.735510 0.043263 1.419032
v 0.729133 0.044343 1.415285
v 0.726348 0.038942 1.416164
v 0.758959 0.046269 1.421942
v 0.761922 0.056201 1.416654
v 0.755323 0.054822 1.415832
v 0.750476 0.044566 1.421681
v 0.774889 0.058670 1.421998
v 0.771052 0.048446 1.426340
v 0.778959 0.051027 1.428736
v 0.779996 0.058376 1.426096
v 0.761920 0.031229 1.431282
v 0.760073 0.027049 1.432151
v 0.763418 0.028677 1.435051
v 0.765538 0.032492 1.432362
v 0.815630 0.096453 1.381238
v 0.810906 0.102916 1.387014
v 0.802085 0.041565 1.414032
v 0.806885 0.050569 1.419157
v 0.806174 0.038826 1.427020
v 0.801294 0.031411 1.419013
v 0.805810 0.078535 1.379066
v 0.810517 0.084419 1.376766
v 0.710741 0.020397 1.452058
v 0.712160 0.016717 1.448380
v 0.735630 0.098245 1.380172
v 0.718401 0.097417 1.391548
v 0.747175 0.099175 1.372900
v 0.754753 0.100546 1.367406
v 0.759406 0.104656 1.362125
v 0.740357 0.039635 1.422492
v 0.750075 0.058156 1.414465
v 0.766564 0.067018 1.413015
v 0.793619 0.069240 1.428204
v 0.795600 0.078576 1.423757
v 0.785185 0.075804 1.422866
v 0.785773 0.067858 1.426472
v 0.805632 0.056450 1.427134
v 0.798998 0.058765 1.431487
v 0.798285 0.050507 1.434990
v 0.804782 0.046344 1.432217
v 0.706916 0.079616 1.399712
v 0.716991 0.076611 1.388744
v 0.805281 0.096453 1.401455
v 0.804325 0.102382 1.396414
v 0.805646 0.107844 1.390004
v 0.772209 0.087735 1.408181
v 0.775111 0.100308 1.402008
v 0.770729 0.099661 1.401544
v 0.769150 0.086001 1.407032
v 0.750666 0.083073 1.410983
v 0.755415 0.095558 1.406874
v 0.738999 0.083664 1.415001
v 0.772964 0.109208 1.389641
v 0.781759 0.115441 1.387019
v 0.774104 0.115825 1.382496
v 0.791130 0.113947 1.389682
v 0.799634 0.111446 1.391028
v 0.815444 0.089206 1.371680
v 0.767336 0.114513 1.377556
v 0.721610 0.093935 1.416619
v 0.714940 0.091796 1.419174
v 0.717732 0.084707 1.418869
v 0.723350 0.085608 1.416799
v 0.721656 0.030374 1.408176
v 0.722207 0.036157 1.412696
v 0.722997 0.043730 1.409785
v 0.783696 0.091473 1.414161
v 0.796435 0.091891 1.414404
v 0.735068 0.034818 1.424023
v 0.710468 0.018329 1.438838
v 0.708387 0.023762 1.436666
v 0.717544 0.026012 1.418412
v 0.719583 0.019320 1.420171
v 0.736455 0.027400 1.427832
v 0.733708 0.033815 1.425696
v 0.733147 0.033080 1.427052
v 0.735666 0.028592 1.431428
v 0.772251 0.031764 1.436766
v 0.773652 0.035651 1.434142
v 0.746792 0.016744 1.409611
v 0.734845 0.017447 1.402062
v 0.737746 0.029133 1.394400
v 0.766043 0.047960 1.423746
v 0.764157 0.039132 1.428621
v 0.768159 0.039782 1.429754
v 0.742454 0.036179 1.424768
v 0.739237 0.031112 1.426630
v 0.743987 0.031149 1.426430
v 0.747569 0.036995 1.425201
v 0.808365 0.061465 1.411246
v 0.807195 0.068088 1.420883
v 0.707028 0.031891 1.444057
v 0.707800 0.030039 1.440673
v 0.768785 0.057684 1.418544
v 0.742764 0.043023 1.388633
v 0.771736 0.068024 1.414836
v 0.784601 0.022663 1.425615
v 0.785275 0.026908 1.433155
v 0.782256 0.025297 1.437411
v 0.780792 0.020596 1.433873
v 0.728068 0.027060 1.444446
v 0.725402 0.032186 1.442864
v 0.722920 0.032170 1.444892
v 0.725431 0.027397 1.447667
v 0.729784 0.036630 1.422269
v 0.724972 0.036757 1.418581
v 0.723507 0.036301 1.421949
v 0.728707 0.035422 1.425222
v 0.721201 0.033211 1.415031
v 0.719250 0.032258 1.418915
v 0.726914 0.020552 1.445326
v 0.721265 0.015349 1.444655
v 0.731184 0.015565 1.427997
v 0.734395 0.021141 1.432744
v 0.790121 0.058080 1.386979
v 0.799469 0.061331 1.392249
v 0.796427 0.049676 1.401767
v 0.794433 0.036995 1.410637
v 0.790823 0.025588 1.419067
v 0.781295 0.020961 1.412941
v 0.803004 0.053607 1.405049
v 0.742426 0.020739 1.421651
v 0.738060 0.016150 1.417194
v 0.743994 0.017044 1.417090
v 0.777845 0.069477 1.418957
v 0.709786 0.029313 1.435742
v 0.768694 0.085230 1.359445
v 0.780905 0.080700 1.361003
v 0.775990 0.074968 1.365603
v 0.762387 0.080490 1.364534
v 0.719853 0.035090 1.439822
v 0.713971 0.034272 1.436723
v 0.779450 0.035892 1.437535
v 0.777254 0.031685 1.439576
v 0.779941 0.030023 1.440668
v 0.783485 0.034051 1.441236
v 0.803974 0.064593 1.394604
v 0.802555 0.033603 1.434950
v 0.798509 0.026928 1.426675
v 0.801800 0.071181 1.383729
v 0.794007 0.068080 1.378614
v 0.797388 0.075232 1.372810
v 0.767071 0.016840 1.414680
v 0.782343 0.054696 1.384927
v 0.786880 0.065932 1.376659
v 0.790591 0.074391 1.369631
v 0.794097 0.080013 1.364459
v 0.801140 0.080451 1.368570
v 0.715359 0.015472 1.442409
v 0.718764 0.016976 1.451023
v 0.806237 0.085340 1.362791
v 0.797831 0.085092 1.358819
v 0.778020 0.064763 1.374376
v 0.766900 0.064588 1.372575
v 0.773890 0.054074 1.382654
v 0.762416 0.052844 1.381338
v 0.759937 0.013073 1.406749
v 0.719056 0.029927 1.462869
v 0.722110 0.023845 1.454627
v 0.723986 0.028453 1.451424
v 0.721880 0.032575 1.460839
v 0.724255 0.021922 1.449951
v 0.717428 0.020560 1.454707
v 0.747455 0.056597 1.381116
v 0.741880 0.026647 1.426873
v 0.750788 0.071867 1.373110
v 0.729136 0.060170 1.384546
v 0.731834 0.073148 1.380176
v 0.752712 0.088087 1.365865
v 0.738793 0.086715 1.373482
v 0.764141 0.096672 1.356905
v 0.759503 0.091220 1.361457
v 0.723953 0.087639 1.382222
v 0.713105 0.040022 1.451164
v 0.718823 0.039075 1.452722
v 0.772854 0.090397 1.354438
v 0.729723 0.084369 1.416313
v 0.777975 0.079625 1.415087
v 0.773346 0.077837 1.412126
v 0.796129 0.083983 1.420337
v 0.784401 0.082678 1.418931
v 0.707977 0.038218 1.451812
v 0.760915 0.024417 1.432849
v 0.762179 0.025816 1.433080
v 0.717150 0.099592 1.412198
v 0.711259 0.097067 1.415184
v 0.703622 0.092808 1.405217
v 0.706011 0.097122 1.410589
v 0.712344 0.100400 1.405045
v 0.709746 0.096088 1.398968
v 0.774558 0.088739 1.409522
v 0.777969 0.089333 1.411564
v 0.808870 0.072079 1.404967
v 0.807194 0.077933 1.414866
v 0.721109 0.027272 1.412609
v 0.726118 0.022858 1.405670
v 0.724472 0.020731 1.412249
v 0.725677 0.015417 1.421864
v 0.740968 0.023940 1.426022
v 0.738160 0.021827 1.426017
v 0.763389 0.097167 1.404367
v 0.761656 0.083723 1.407786
v 0.721369 0.076535 1.414262
v 0.717158 0.077515 1.414899
v 0.755444 0.038880 1.425657
v 0.760743 0.015323 1.424564
v 0.754521 0.012932 1.417748
v 0.752554 0.031095 1.428323
v 0.705602 0.032653 1.457584
v 0.705795 0.036095 1.454033
v 0.730197 0.016475 1.413182
v 0.775725 0.042406 1.432721
v 0.766397 0.017808 1.423742
v 0.762397 0.018864 1.430327
v 0.802616 0.042106 1.436356
v 0.784826 0.086854 1.355825
v 0.722409 0.033106 1.448367
v 0.722622 0.036598 1.455425
v 0.715183 0.027996 1.462825
v 0.709474 0.028323 1.460365
v 0.805364 0.087170 1.409039
v 0.770013 0.076288 1.410502
v 0.712197 0.087884 1.391443
v 0.704478 0.086712 1.400662
v 0.751193 0.027097 1.428312
v 0.790383 0.025353 1.428116
v 0.777474 0.017696 1.422246
v 0.773648 0.015701 1.431551
v 0.766094 0.016702 1.431940
v 0.761597 0.021529 1.434092
v 0.715289 0.032544 1.466809
v 0.709471 0.033245 1.464770
v 0.706049 0.037565 1.461642
v 0.706285 0.040230 1.457658
v 0.709077 0.041250 1.454388
v 0.719423 0.034409 1.466500
v 0.721872 0.036570 1.464159
v 0.722607 0.038487 1.458010
v 0.720566 0.038637 1.468339
v 0.716272 0.039806 1.471177
v 0.708715 0.050828 1.467231
v 0.707552 0.044950 1.466717
v 0.708900 0.046132 1.468880
v 0.710117 0.050839 1.470185
v 0.711918 0.054975 1.472784
v 0.710446 0.055730 1.469632
v 0.711187 0.042162 1.469960
v 0.713275 0.048202 1.472305
v 0.717182 0.046746 1.473175
v 0.718217 0.051589 1.475692
v 0.714698 0.053014 1.475176
v 0.715364 0.042667 1.471798
v 0.710453 0.039851 1.469324
v 0.713233 0.058319 1.472323
v 0.713288 0.056966 1.474472
v 0.715920 0.055726 1.476132
v 0.717333 0.058356 1.475337
v 0.707209 0.044685 1.460607
v 0.709147 0.051797 1.464834
v 0.712406 0.056372 1.467225
v 0.715011 0.058802 1.470156
v 0.712600 0.053052 1.462970
v 0.714959 0.056239 1.465715
v 0.717608 0.058088 1.468164
v 0.716846 0.053188 1.462190
v 0.718108 0.055774 1.465166
v 0.713901 0.044128 1.455492
v 0.709752 0.043942 1.456345
v 0.719187 0.057484 1.466802
v 0.718959 0.058747 1.473849
v 0.720067 0.044690 1.472086
v 0.721149 0.051289 1.474297
v 0.722005 0.044843 1.470665
v 0.723258 0.051165 1.473184
v 0.721032 0.055257 1.476313
v 0.718587 0.054395 1.476477
v 0.714055 0.041191 1.453022
v 0.719796 0.039977 1.454730
v 0.719781 0.042307 1.456774
v 0.721371 0.051548 1.462871
v 0.722813 0.041085 1.459870
v 0.722849 0.040545 1.465842
v 0.723700 0.046593 1.468910
v 0.724111 0.048612 1.466107
v 0.724107 0.051602 1.470766
v 0.723683 0.052581 1.468407
v 0.721586 0.054704 1.465914
v 0.723234 0.055468 1.471643
v 0.722440 0.055409 1.474537
v 0.720510 0.058017 1.470875
v 0.723307 0.055088 1.469697
v 0.720983 0.056687 1.468592
v 0.739986 0.030688 1.453484
v 0.746183 0.031658 1.454788
v 0.746080 0.028986 1.451301
v 0.740795 0.028206 1.450252
v 0.736003 0.018504 1.459567
v 0.734743 0.024034 1.456425
v 0.735090 0.020059 1.452533
v 0.737854 0.014098 1.455365
v 0.742291 0.015206 1.461988
v 0.744335 0.011602 1.457124
v 0.739165 0.012014 1.449523
v 0.736338 0.018217 1.447183
v 0.741568 0.019329 1.427320
v 0.744614 0.013512 1.427573
v 0.756310 0.027879 1.432980
v 0.758748 0.025619 1.434387
v 0.736872 0.028249 1.454295
v 0.737115 0.024939 1.450790
v 0.755075 0.025717 1.451198
v 0.751045 0.029109 1.449410
v 0.750804 0.028900 1.452773
v 0.754165 0.025325 1.455324
v 0.744247 0.027040 1.428596
v 0.750467 0.027178 1.430605
v 0.742027 0.024033 1.427793
v 0.756248 0.019370 1.453068
v 0.753643 0.012994 1.453585
v 0.758266 0.012557 1.433502
v 0.760843 0.017724 1.435851
v 0.737043 0.023511 1.446375
v 0.745320 0.029714 1.448148
v 0.740382 0.028145 1.446642
v 0.746375 0.010223 1.450914
v 0.751597 0.014832 1.459490
v 0.750448 0.030372 1.472056
v 0.753143 0.023220 1.462840
v 0.753322 0.027648 1.459986
v 0.751752 0.034907 1.469712
v 0.754554 0.020375 1.458085
v 0.749571 0.018507 1.463876
v 0.739992 0.040673 1.464247
v 0.746157 0.041069 1.465306
v 0.736151 0.038416 1.465320
v 0.751154 0.011052 1.429304
v 0.734987 0.028633 1.469273
v 0.734296 0.034655 1.466533
v 0.751108 0.030898 1.456668
v 0.750306 0.039142 1.467330
v 0.747403 0.026930 1.473127
v 0.740634 0.024542 1.471167
v 0.746668 0.030894 1.476879
v 0.740072 0.030066 1.476080
v 0.734423 0.034487 1.473693
v 0.734321 0.039464 1.470082
v 0.736459 0.041936 1.467906
v 0.750091 0.033928 1.475586
v 0.751494 0.038067 1.472881
v 0.749618 0.041169 1.468748
v 0.750792 0.039157 1.478731
v 0.747542 0.037453 1.481368
v 0.738526 0.053819 1.484547
v 0.737094 0.048573 1.481838
v 0.738682 0.047444 1.483711
v 0.739863 0.052143 1.486438
v 0.736115 0.042192 1.480523
v 0.738160 0.042855 1.482285
v 0.741755 0.039869 1.482662
v 0.742880 0.045494 1.485200
v 0.747585 0.044109 1.484435
v 0.748586 0.048674 1.487794
v 0.744018 0.050191 1.488801
v 0.745694 0.040233 1.483117
v 0.741536 0.054673 1.488450
v 0.741978 0.057147 1.487573
v 0.740661 0.036771 1.481432
v 0.734780 0.043014 1.474198
v 0.737109 0.050544 1.479435
v 0.739654 0.055995 1.482374
v 0.744105 0.058574 1.485866
v 0.739816 0.052761 1.476977
v 0.742177 0.057074 1.480634
v 0.745907 0.058577 1.483733
v 0.744048 0.053864 1.474972
v 0.746187 0.057393 1.479188
v 0.741182 0.045633 1.468171
v 0.737058 0.044924 1.470276
v 0.747038 0.058103 1.481620
v 0.745993 0.055937 1.490206
v 0.747756 0.057804 1.487966
v 0.745157 0.054177 1.490246
v 0.749576 0.043832 1.483730
v 0.750474 0.049476 1.486867
v 0.751761 0.044923 1.482269
v 0.752281 0.050847 1.485921
v 0.750081 0.053441 1.489426
v 0.748585 0.052710 1.490014
v 0.740323 0.043083 1.466331
v 0.745900 0.042560 1.466691
v 0.746738 0.044597 1.467911
v 0.749157 0.052368 1.475066
v 0.750580 0.042507 1.470166
v 0.751984 0.040880 1.475701
v 0.752833 0.046222 1.479954
v 0.752354 0.049339 1.477342
v 0.753522 0.051642 1.484246
v 0.752926 0.052452 1.481039
v 0.749951 0.055740 1.479003
v 0.752305 0.055428 1.486551
v 0.751222 0.054517 1.488519
v 0.748680 0.058029 1.485872
v 0.752361 0.055344 1.483532
v 0.749501 0.057578 1.482733
v 0.760249 0.032255 1.458196
v 0.765943 0.032392 1.459218
v 0.766473 0.031051 1.455949
v 0.760904 0.030388 1.455044
v 0.755576 0.020863 1.461910
v 0.754546 0.025497 1.460474
v 0.755182 0.023122 1.456470
v 0.756524 0.017844 1.456738
v 0.759639 0.018525 1.465252
v 0.761269 0.014370 1.458486
v 0.757745 0.015925 1.451518
v 0.756020 0.021660 1.452360
v 0.760403 0.021772 1.438221
v 0.762998 0.015797 1.438245
v 0.756690 0.029493 1.459013
v 0.757259 0.027595 1.455698
v 0.773955 0.027146 1.456650
v 0.770741 0.030752 1.455366
v 0.771017 0.029027 1.458066
v 0.772898 0.025373 1.459934
v 0.764920 0.030941 1.438049
v 0.770823 0.031317 1.439101
v 0.761529 0.027457 1.438536
v 0.774116 0.020524 1.457240
v 0.770513 0.014334 1.455672
v 0.776748 0.017147 1.442469
v 0.778893 0.022815 1.443277
v 0.757317 0.026641 1.452525
v 0.766049 0.032368 1.453346
v 0.760664 0.031033 1.452501
v 0.763555 0.013409 1.452699
v 0.767932 0.015326 1.461178
v 0.766927 0.028420 1.479501
v 0.770765 0.021378 1.465505
v 0.771984 0.026811 1.463406
v 0.769077 0.032032 1.478061
v 0.772232 0.020002 1.461890
v 0.766130 0.017986 1.466150
v 0.759344 0.040151 1.472332
v 0.764791 0.039113 1.472951
v 0.755872 0.037533 1.472136
v 0.769651 0.013366 1.439642
v 0.777546 0.028906 1.442281
v 0.753626 0.031371 1.475654
v 0.753916 0.035078 1.473442
v 0.770365 0.030102 1.461192
v 0.768709 0.036054 1.475586
v 0.762731 0.026103 1.479180
v 0.756952 0.026672 1.477270
v 0.763374 0.029072 1.483889
v 0.757625 0.030184 1.482522
v 0.754212 0.034514 1.481437
v 0.754607 0.038065 1.479022
v 0.756511 0.040416 1.477275
v 0.767499 0.031237 1.483767
v 0.769164 0.034320 1.482025
v 0.768267 0.036930 1.477623
v 0.768739 0.033937 1.486655
v 0.764207 0.032954 1.489550
v 0.758634 0.047093 1.495886
v 0.757288 0.043743 1.491495
v 0.757891 0.042874 1.492196
v 0.759055 0.045781 1.496920
v 0.755839 0.038222 1.487903
v 0.756948 0.038688 1.489612
v 0.759355 0.035599 1.490044
v 0.761160 0.039574 1.494717
v 0.766786 0.037991 1.493428
v 0.767183 0.041251 1.497107
v 0.762086 0.042620 1.498875
v 0.763727 0.034541 1.490623
v 0.760612 0.046877 1.499419
v 0.759597 0.048550 1.499719
v 0.758636 0.033927 1.488463
v 0.754848 0.041173 1.484104
v 0.757037 0.046019 1.489716
v 0.758351 0.049797 1.494072
v 0.761078 0.050960 1.497319
v 0.759496 0.047915 1.487506
v 0.760646 0.050751 1.492022
v 0.762956 0.051853 1.495042
v 0.762422 0.048424 1.486158
v 0.763525 0.050714 1.490455
v 0.760281 0.042743 1.478150
v 0.756918 0.042509 1.480728
v 0.764496 0.051494 1.493372
v 0.763725 0.046743 1.501473
v 0.766123 0.049486 1.499327
v 0.763208 0.045468 1.500414
v 0.768295 0.037489 1.492475
v 0.769518 0.041736 1.497113
v 0.770290 0.038548 1.490750
v 0.771401 0.042887 1.495402
v 0.768093 0.044227 1.500030
v 0.766988 0.043795 1.499814
v 0.760123 0.040985 1.475465
v 0.764973 0.039813 1.475557
v 0.764912 0.041524 1.477724
v 0.766925 0.047583 1.486084
v 0.768385 0.038712 1.479356
v 0.770010 0.036923 1.484857
v 0.770916 0.041172 1.488908
v 0.770039 0.044542 1.487526
v 0.771788 0.044805 1.493371
v 0.770508 0.046317 1.491293
v 0.767516 0.049999 1.490127
v 0.770063 0.047356 1.496028
v 0.769814 0.045794 1.498500
v 0.767003 0.050686 1.496550
v 0.769798 0.048428 1.493809
v 0.767403 0.050902 1.494084
v 0.775039 0.030884 1.440759
v 0.778082 0.037147 1.460434
v 0.782112 0.037959 1.461808
v 0.782758 0.037157 1.461104
v 0.778986 0.036682 1.458659
v 0.775625 0.025998 1.460415
v 0.774158 0.030558 1.460056
v 0.775167 0.028737 1.456342
v 0.776908 0.024390 1.456380
v 0.780079 0.023337 1.461900
v 0.781824 0.022231 1.458488
v 0.778837 0.024519 1.453038
v 0.776751 0.028782 1.452949
v 0.783102 0.029347 1.438236
v 0.787139 0.025745 1.436626
v 0.799867 0.039428 1.442092
v 0.795761 0.043301 1.441087
v 0.794257 0.039951 1.449309
v 0.797778 0.036622 1.448919
v 0.775388 0.034354 1.459978
v 0.776021 0.033682 1.456896
v 0.791457 0.032577 1.462457
v 0.788299 0.036307 1.461602
v 0.786634 0.036485 1.462839
v 0.789946 0.033625 1.464893
v 0.790433 0.042754 1.440962
v 0.786543 0.039282 1.440148
v 0.785928 0.039305 1.444432
v 0.789423 0.040324 1.448573
v 0.782994 0.035002 1.442621
v 0.791781 0.028134 1.461607
v 0.789146 0.023275 1.458907
v 0.799309 0.027963 1.443297
v 0.799855 0.032339 1.446005
v 0.776946 0.032735 1.455186
v 0.784050 0.037489 1.459414
v 0.780150 0.036226 1.458138
v 0.783856 0.021921 1.454688
v 0.787090 0.024175 1.462409
v 0.786618 0.031942 1.473208
v 0.789288 0.029476 1.466884
v 0.789321 0.034273 1.465957
v 0.787396 0.035023 1.472066
v 0.790021 0.029027 1.464841
v 0.785545 0.025329 1.465851
v 0.777179 0.040169 1.466039
v 0.782386 0.039995 1.467669
v 0.774378 0.038247 1.465849
v 0.793378 0.025098 1.438018
v 0.773185 0.031182 1.468192
v 0.772676 0.035463 1.467008
v 0.785856 0.037058 1.463881
v 0.785987 0.038159 1.469976
v 0.783079 0.028684 1.473033
v 0.777492 0.027470 1.470152
v 0.781415 0.031276 1.476581
v 0.775983 0.030622 1.473895
v 0.772327 0.035414 1.471302
v 0.773126 0.038355 1.468872
v 0.775131 0.040482 1.467586
v 0.785618 0.033988 1.475908
v 0.786779 0.036366 1.474196
v 0.785797 0.038875 1.471198
v 0.784719 0.036357 1.478849
v 0.780144 0.036414 1.480288
v 0.775993 0.049186 1.479836
v 0.774959 0.046108 1.477159
v 0.775123 0.045391 1.478112
v 0.775542 0.048613 1.480660
v 0.773449 0.041086 1.475150
v 0.774233 0.041526 1.476762
v 0.775666 0.038302 1.477989
v 0.776517 0.042617 1.481132
v 0.781347 0.041124 1.483088
v 0.781395 0.044619 1.485307
v 0.776985 0.045480 1.483618
v 0.779060 0.037877 1.480744
v 0.775979 0.049894 1.483103
v 0.776201 0.051298 1.483212
v 0.774973 0.036114 1.477179
v 0.774157 0.042795 1.471488
v 0.775702 0.048199 1.475796
v 0.776748 0.051532 1.479591
v 0.778158 0.052629 1.483034
v 0.777533 0.048559 1.474111
v 0.778559 0.052486 1.478515
v 0.779987 0.053371 1.481820
v 0.780754 0.048467 1.473195
v 0.780995 0.051923 1.477728
v 0.780130 0.043701 1.468807
v 0.776684 0.043844 1.469609
v 0.781240 0.052704 1.480728
v 0.778247 0.049757 1.486202
v 0.780451 0.051517 1.485208
v 0.777668 0.048250 1.485983
v 0.782696 0.040814 1.483047
v 0.782930 0.045116 1.485673
v 0.784975 0.041185 1.482176
v 0.784621 0.046163 1.484805
v 0.781407 0.048065 1.486906
v 0.780069 0.046822 1.486372
v 0.778811 0.042063 1.467562
v 0.782413 0.040966 1.468591
v 0.783817 0.042195 1.470138
v 0.784430 0.046881 1.474257
v 0.786623 0.039636 1.473077
v 0.786621 0.037524 1.476472
v 0.786515 0.042503 1.480330
v 0.786835 0.044558 1.477614
v 0.785507 0.047576 1.483402
v 0.785761 0.048938 1.480700
v 0.784080 0.050664 1.478380
v 0.783397 0.050587 1.484370
v 0.782711 0.049774 1.485931
v 0.781808 0.052132 1.483755
v 0.783936 0.051072 1.482581
v 0.782864 0.051985 1.481690
v 0.800528 0.035353 1.441883
v 0.698375 0.076505 1.411566
v 0.703103 0.074099 1.413835
v 0.707990 0.084091 1.426237
v 0.708445 0.077560 1.423288
v 0.703815 0.089764 1.426088
v 0.695471 0.092354 1.419277
v 0.700128 0.092771 1.422677
v 0.706722 0.074129 1.418583
v 0.694841 0.081486 1.411005
v 0.693383 0.088324 1.413694
v 0.688220 0.074779 1.416115
v 0.686012 0.082753 1.420018
v 0.687860 0.087103 1.425784
v 0.695736 0.088858 1.428179
v 0.700465 0.087569 1.429986
v 0.696279 0.072287 1.415793
v 0.701411 0.071265 1.417507
v 0.705835 0.073262 1.422178
v 0.697093 0.066948 1.421585
v 0.692913 0.065693 1.430174
v 0.694397 0.071893 1.449356
v 0.694044 0.075977 1.443588
v 0.692831 0.073673 1.442811
v 0.692879 0.070249 1.448267
v 0.691507 0.077240 1.438236
v 0.691832 0.074913 1.438379
v 0.691289 0.071441 1.434369
v 0.691934 0.068246 1.439775
v 0.693312 0.066898 1.432961
v 0.694872 0.064111 1.436420
v 0.692337 0.064978 1.444768
v 0.692213 0.066765 1.450410
v 0.692806 0.062388 1.448950
v 0.694540 0.067304 1.452337
v 0.687445 0.071580 1.432614
v 0.694028 0.083026 1.436154
v 0.696405 0.078493 1.443511
v 0.697699 0.073382 1.449667
v 0.697728 0.067808 1.452437
v 0.700603 0.078898 1.443024
v 0.701481 0.073484 1.447813
v 0.701635 0.068056 1.449718
v 0.704588 0.076766 1.441143
v 0.704039 0.071637 1.445366
v 0.705146 0.082354 1.431768
v 0.699978 0.085144 1.434293
v 0.703057 0.068231 1.447345
v 0.694619 0.061304 1.450838
v 0.698072 0.061887 1.450661
v 0.696652 0.062609 1.433990
v 0.694940 0.060825 1.440961
v 0.697372 0.059863 1.439915
v 0.699839 0.062567 1.431701
v 0.700039 0.059736 1.439311
v 0.696423 0.058693 1.445558
v 0.694132 0.060121 1.445110
v 0.705456 0.083701 1.429482
v 0.707184 0.078230 1.426158
v 0.706999 0.077431 1.427767
v 0.706894 0.072066 1.436910
v 0.706443 0.072037 1.424762
v 0.702202 0.068336 1.422242
v 0.703354 0.063620 1.431703
v 0.706206 0.067032 1.433313
v 0.702959 0.061691 1.439456
v 0.704479 0.064239 1.440068
v 0.705292 0.068112 1.442917
v 0.701969 0.061377 1.444702
v 0.699443 0.059068 1.445158
v 0.701573 0.063662 1.448459
v 0.703245 0.063488 1.443706
v 0.703299 0.065552 1.446101
v 0.796709 0.046736 1.437316
v 0.789926 0.046370 1.437168
v 0.791860 0.051414 1.434916
v 0.792669 0.059951 1.432104
v 0.799494 0.066741 1.427974
v 0.785964 0.059286 1.429816
v 0.785372 0.050481 1.433109
v 0.782633 0.042851 1.436159
v 0.780910 0.065356 1.423260
f 780 781 779
f 779 781 782
f 783 784 786
f 786 784 785
f 787 782 788
f 788 782 781
f 790 791 789
f 789 791 787
f 792 790 794
f 794 790 793
f 796 797 795
f 795 797 798
f 800 801 799
f 799 801 802
f 804 805 803
f 803 805 806
f 808 809 807
f 807 809 810
f 811 812 814
f 814 812 813
f 815 816 818
f 818 816 817
f 819 820 784
f 784 820 821
f 784 821 785
f 785 821 822
f 823 812 824
f 824 812 811
f 826 827 825
f 825 827 828
f 830 831 829
f 829 831 832
f 834 830 833
f 833 830 829
f 836 837 835
f 835 837 838
f 839 840 782
f 782 840 779
f 842 843 841
f 841 843 844
f 846 847 845
f 845 847 848
f 850 851 849
f 849 851 852
f 854 855 853
f 853 855 856
f 831 857 832
f 832 857 858
f 860 861 859
f 859 861 862
f 863 864 830
f 830 864 831
f 835 838 865
f 865 838 866
f 867 868 821
f 821 868 822
f 821 820 867
f 867 820 869
f 818 817 870
f 870 817 871
f 872 848 842
f 842 848 847
f 791 839 787
f 787 839 782
f 803 806 847
f 847 806 873
f 874 803 846
f 846 803 847
f 876 877 875
f 875 877 878
f 879 880 882
f 882 880 881
f 884 808 883
f 883 808 807
f 829 832 885
f 885 832 886
f 832 858 886
f 886 858 887
f 889 890 888
f 888 890 891
f 893 783 892
f 892 783 894
f 893 819 783
f 783 819 784
f 814 813 889
f 889 813 895
f 813 896 895
f 895 896 897
f 812 898 813
f 813 898 896
f 812 823 898
f 898 823 899
f 903 904 902
f 902 904 905
f 906 907 792
f 792 907 908
f 811 909 824
f 824 909 910
f 911 872 841
f 841 872 842
f 912 913 915
f 915 913 914
f 917 918 916
f 916 918 919
f 855 920 856
f 856 920 921
f 922 923 798
f 798 923 924
f 926 927 925
f 925 927 850
f 929 930 928
f 928 930 931
f 860 879 861
f 861 879 882
f 879 860 933
f 933 860 932
f 934 935 836
f 836 935 837
f 936 846 925
f 925 846 845
f 937 924 793
f 793 924 794
f 846 936 874
f 874 936 938
f 907 844 908
f 908 844 843
f 940 941 939
f 939 941 942
f 944 945 943
f 943 945 946
f 948 949 947
f 947 949 950
f 952 949 951
f 951 949 948
f 954 955 953
f 953 955 956
f 958 959 957
f 957 959 802
f 960 961 799
f 799 961 962
f 859 963 860
f 860 963 932
f 964 965 966
f 966 965 922
f 936 849 938
f 938 849 967
f 968 913 935
f 935 913 837
f 947 950 917
f 917 950 918
f 925 850 936
f 936 850 849
f 970 971 969
f 969 971 972
f 945 944 827
f 827 944 973
f 974 968 828
f 828 968 935
f 975 976 978
f 978 976 977
f 799 802 960
f 960 802 959
f 924 937 798
f 798 937 795
f 960 959 859
f 859 959 963
f 979 963 958
f 958 963 959
f 980 981 861
f 861 981 862
f 983 984 982
f 982 984 863
f 985 800 962
f 962 800 799
f 957 802 986
f 986 802 801
f 986 987 957
f 957 987 983
f 987 988 983
f 983 988 984
f 990 984 989
f 989 984 988
f 957 983 958
f 958 983 982
f 991 954 866
f 866 954 992
f 864 863 990
f 990 863 984
f 971 995 996
f 995 997 996
f 996 997 998
f 997 796 998
f 998 796 795
f 797 999 798
f 798 999 922
f 1000 1001 1003
f 1003 1001 1002
f 953 1004 954
f 954 1004 992
f 1005 865 992
f 992 865 866
f 998 795 1006
f 1006 795 937
f 912 991 838
f 838 991 866
f 916 1007 929
f 929 1007 930
f 971 970 988
f 988 970 989
f 1008 972 996
f 996 972 971
f 1009 1010 1006
f 1006 1010 1008
f 1011 1012 869
f 869 1012 867
f 1013 1014 871
f 871 1014 870
f 1008 1010 1012
f 1012 1010 1015
f 825 1016 826
f 826 1016 1017
f 1018 969 1013
f 1013 969 1014
f 783 786 894
f 894 786 1019
f 1020 1021 967
f 967 1021 938
f 1022 1023 876
f 876 1023 877
f 934 1024 825
f 825 1024 1016
f 854 1025 855
f 855 1025 1026
f 1028 903 1027
f 1027 903 902
f 1030 1031 1029
f 1029 1031 1032
f 889 888 814
f 814 888 1033
f 1034 811 1033
f 1033 811 814
f 1035 1036 932
f 932 1036 933
f 841 947 911
f 911 947 917
f 844 948 841
f 841 948 947
f 951 948 907
f 907 948 844
f 907 906 951
f 951 906 1037
f 906 1038 1037
f 1037 1038 1039
f 991 912 1040
f 1040 912 915
f 1041 1042 964
f 964 1042 965
f 890 1043 891
f 891 1043 1044
f 789 1045 1046
f 1012 1011 1008
f 1008 1011 972
f 931 1047 848
f 848 1047 845
f 953 956 943
f 943 956 919
f 928 931 872
f 872 931 848
f 1049 999 1048
f 1048 999 985
f 1047 931 1050
f 1050 931 930
f 899 823 887
f 887 823 886
f 825 828 934
f 934 828 935
f 835 1051 836
f 836 1051 1052
f 923 1053 1038
f 1038 1053 1039
f 1054 927 921
f 921 927 856
f 926 1047 853
f 853 1047 1050
f 985 1055 1048
f 1048 1055 1056
f 973 974 827
f 827 974 828
f 837 913 838
f 838 913 912
f 861 882 980
f 980 882 1057
f 927 926 856
f 856 926 853
f 1025 1056 1026
f 1026 1056 1055
f 961 960 862
f 862 960 859
f 826 1017 1059
f 1059 1017 1060
f 1005 1001 1061
f 1061 1001 1000
f 1001 1004 1002
f 1002 1004 946
f 1059 1060 1002
f 1002 1060 1003
f 943 946 953
f 953 946 1004
f 1042 1041 916
f 916 1041 1007
f 792 794 906
f 906 794 1038
f 998 1006 996
f 996 1006 1008
f 865 1005 1062
f 1062 1005 1061
f 1038 794 923
f 923 794 924
f 1022 876 1036
f 1036 876 933
f 836 1052 934
f 934 1052 1024
f 885 1063 829
f 829 1063 833
f 1021 1064 938
f 938 1064 874
f 1012 1015 867
f 867 1015 868
f 824 910 885
f 885 910 1063
f 1031 1030 1027
f 1027 1030 1028
f 1064 804 874
f 874 804 803
f 884 883 1065
f 1065 883 1066
f 1050 930 1067
f 1067 930 1007
f 916 929 917
f 917 929 911
f 961 1068 939
f 939 1068 940
f 1069 1070 1055
f 1055 1070 1071
f 929 928 911
f 911 928 872
f 1040 1053 955
f 955 1053 965
f 922 965 923
f 923 965 1053
f 1051 835 1062
f 1062 835 865
f 952 914 968
f 968 914 913
f 889 895 890
f 890 895 816
f 895 897 816
f 816 897 901
f 890 816 1043
f 1043 816 815
f 1065 1066 1032
f 1032 1066 1029
f 1006 937 1009
f 1009 937 793
f 1001 1005 1004
f 1004 1005 992
f 925 845 926
f 926 845 1047
f 1002 946 1059
f 1059 946 945
f 977 941 978
f 978 941 940
f 823 824 886
f 886 824 885
f 1059 945 826
f 826 945 827
f 939 942 1069
f 1069 942 1070
f 816 901 817
f 1071 1072 1055
f 1055 1072 1026
f 1062 1061 1074
f 1074 1061 1073
f 1062 1074 1051
f 1051 1074 1075
f 1052 1051 1076
f 1076 1051 1075
f 1024 1052 1077
f 1077 1052 1076
f 1061 1000 1073
f 1073 1000 1078
f 1000 1003 1078
f 1078 1003 1079
f 1079 1003 1080
f 1080 1003 1060
f 1081 1082 1078
f 1078 1082 1073
f 1084 1085 1083
f 1083 1085 1086
f 1087 1088 1086
f 1086 1088 1083
f 1086 1085 1090
f 1090 1085 1089
f 1091 1092 1090
f 1090 1092 1093
f 1089 1094 1090
f 1090 1094 1091
f 1095 1082 1089
f 1089 1082 1094
f 1093 1087 1090
f 1090 1087 1086
f 1096 1097 1099
f 1099 1097 1098
f 1097 1096 1087
f 1087 1096 1088
f 1089 1085 1095
f 1095 1085 1084
f 1084 1075 1095
f 1095 1075 1074
f 1084 1100 1075
f 1075 1100 1076
f 1083 1101 1084
f 1084 1101 1100
f 1101 1083 1102
f 1102 1083 1088
f 1082 1095 1073
f 1073 1095 1074
f 1096 1103 1088
f 1088 1103 1102
f 1101 1102 1104
f 1104 1102 1105
f 1102 1103 1105
f 1105 1103 1106
f 1104 1105 1107
f 1107 1105 1108
f 1107 1109 1104
f 1104 1109 1110
f 1111 1108 1106
f 1106 1108 1105
f 1101 1104 1100
f 1100 1104 1110
f 1100 1110 1076
f 1076 1110 1077
f 1103 1096 1112
f 1112 1096 1099
f 1091 1094 1113
f 1113 1094 1082
f 1113 1114 1091
f 1091 1114 1092
f 1082 1081 1113
f 1113 1081 1115
f 1114 1113 1116
f 1116 1113 1115
f 1114 1117 1092
f 1092 1117 1118
f 1024 1077 1016
f 1016 1077 1119
f 1017 1120 1060
f 1060 1120 1080
f 1120 1017 1119
f 1119 1017 1016
f 1119 1109 1120
f 1120 1109 1121
f 1109 1107 1121
f 1121 1107 1122
f 1120 1121 1080
f 1080 1121 1123
f 1119 1077 1109
f 1109 1077 1110
f 1124 1079 1123
f 1123 1079 1080
f 1124 1081 1079
f 1079 1081 1078
f 1125 1115 1124
f 1124 1115 1081
f 1125 1124 1126
f 1126 1124 1123
f 1127 1125 1128
f 1128 1125 1126
f 1121 1122 1123
f 1123 1122 1126
f 1122 1129 1126
f 1126 1129 1128
f 1115 1125 1116
f 1116 1125 1127
f 1131 1116 1130
f 1130 1116 1127
f 1130 1133 1132
f 1132 1133 1134
f 1130 1127 1133
f 1133 1127 1128
f 1130 1132 1131
f 1131 1132 1112
f 1131 1112 1117
f 1117 1112 1099
f 1117 1114 1131
f 1131 1114 1116
f 1107 1108 1122
f 1122 1108 1129
f 1134 1129 1111
f 1111 1129 1108
f 1134 1133 1129
f 1129 1133 1128
f 1132 1134 1106
f 1106 1134 1111
f 1106 1103 1132
f 1132 1103 1112
f 1087 1093 1097
f 1097 1093 1098
f 1098 1118 1099
f 1099 1118 1117
f 1098 1093 1118
f 1118 1093 1092
f 915 914 1039
f 1039 914 1037
f 918 944 919
f 919 944 943
f 950 949 973
f 973 949 974
f 949 952 974
f 974 952 968
f 956 955 1042
f 1042 955 965
f 950 973 918
f 918 973 944
f 915 1039 1040
f 1040 1039 1053
f 956 1042 919
f 919 1042 916
f 1040 955 991
f 991 955 954
f 914 952 1037
f 1037 952 951
f 1136 1137 1135
f 1135 1137 1138
f 1140 1141 1139
f 1139 1141 1142
f 1139 1142 1143
f 1143 1142 1144
f 1145 1146 1148
f 1148 1146 1147
f 854 1149 1025
f 1025 1149 1150
f 1151 1152 1140
f 1140 1152 1141
f 1154 1155 1153
f 1153 1155 1156
f 1067 1007 1158
f 1158 1007 1157
f 1159 1157 1041
f 1041 1157 1007
f 1161 1162 1160
f 1160 1162 1163
f 1164 1146 1152
f 1152 1146 1141
f 854 1067 1149
f 1149 1067 1158
f 1155 1154 1137
f 1137 1154 1165
f 1166 1164 1138
f 1138 1164 1152
f 1167 1161 1144
f 1144 1161 1168
f 1170 1171 1169
f 1169 1171 1172
f 1161 1160 1168
f 1168 1160 1173
f 1174 1143 1168
f 1168 1143 1144
f 1167 1144 1145
f 1145 1144 1142
f 1135 1175 1136
f 1136 1175 1176
f 1151 1177 1135
f 1135 1177 1175
f 1167 1145 1178
f 1178 1145 1148
f 1160 1163 1153
f 1153 1163 1150
f 1135 1138 1151
f 1151 1138 1152
f 1139 1179 1140
f 1140 1179 1180
f 1165 1166 1137
f 1137 1166 1138
f 1141 1146 1142
f 1142 1146 1145
f 1136 1176 1181
f 1181 1176 1182
f 1174 1170 1183
f 1183 1170 1169
f 1170 1173 1171
f 1171 1173 1156
f 1171 1181 1172
f 1172 1181 1182
f 1153 1156 1160
f 1160 1156 1173
f 1143 1174 1184
f 1184 1174 1183
f 1140 1180 1151
f 1151 1180 1177
f 1049 1048 1178
f 1178 1048 1162
f 1179 1139 1184
f 1184 1139 1143
f 1159 1147 1164
f 1164 1147 1146
f 1170 1174 1173
f 1173 1174 1168
f 1171 1156 1181
f 1181 1156 1155
f 1181 1155 1136
f 1136 1155 1137
f 1184 1183 1186
f 1186 1183 1185
f 1184 1186 1179
f 1179 1186 1187
f 1179 1187 1180
f 1180 1187 1188
f 1180 1188 1177
f 1177 1188 1189
f 1183 1169 1185
f 1185 1169 1190
f 1169 1172 1190
f 1190 1172 1191
f 1172 1182 1191
f 1191 1182 1192
f 1193 1194 1190
f 1190 1194 1185
f 1196 1197 1195
f 1195 1197 1198
f 1199 1200 1196
f 1196 1200 1197
f 1197 1200 1202
f 1202 1200 1201
f 1203 1204 1202
f 1202 1204 1205
f 1201 1206 1202
f 1202 1206 1203
f 1205 1198 1202
f 1202 1198 1197
f 1198 1207 1195
f 1195 1207 1208
f 1201 1200 1209
f 1209 1200 1199
f 1199 1187 1209
f 1209 1187 1186
f 1199 1210 1187
f 1187 1210 1188
f 1196 1211 1199
f 1199 1211 1210
f 1212 1211 1195
f 1195 1211 1196
f 1209 1194 1201
f 1201 1194 1206
f 1194 1209 1185
f 1185 1209 1186
f 1213 1212 1208
f 1208 1212 1195
f 1211 1212 1214
f 1214 1212 1215
f 1212 1213 1215
f 1215 1213 1216
f 1214 1215 1217
f 1217 1215 1218
f 1217 1219 1214
f 1214 1219 1220
f 1216 1221 1215
f 1215 1221 1218
f 1214 1220 1211
f 1211 1220 1210
f 1210 1220 1188
f 1188 1220 1189
f 1213 1208 1223
f 1223 1208 1222
f 1208 1207 1222
f 1222 1207 1224
f 1203 1206 1225
f 1225 1206 1194
f 1204 1203 1226
f 1226 1203 1225
f 1194 1193 1225
f 1225 1193 1227
f 1225 1227 1226
f 1226 1227 1228
f 1229 1230 1226
f 1226 1230 1204
f 1224 1230 1222
f 1222 1230 1229
f 1177 1189 1175
f 1175 1189 1231
f 1176 1232 1182
f 1182 1232 1192
f 1232 1176 1231
f 1231 1176 1175
f 1231 1219 1232
f 1232 1219 1233
f 1219 1217 1233
f 1233 1217 1234
f 1232 1233 1192
f 1192 1233 1235
f 1219 1231 1220
f 1220 1231 1189
f 1236 1191 1235
f 1235 1191 1192
f 1236 1193 1191
f 1191 1193 1190
f 1236 1237 1193
f 1193 1237 1227
f 1237 1236 1238
f 1238 1236 1235
f 1239 1237 1240
f 1240 1237 1238
f 1233 1234 1235
f 1235 1234 1238
f 1234 1241 1238
f 1238 1241 1240
f 1237 1239 1227
f 1227 1239 1228
f 1243 1228 1242
f 1242 1228 1239
f 1242 1245 1244
f 1244 1245 1246
f 1242 1239 1245
f 1245 1239 1240
f 1242 1244 1243
f 1243 1244 1223
f 1243 1223 1229
f 1229 1223 1222
f 1229 1226 1243
f 1243 1226 1228
f 1217 1218 1234
f 1234 1218 1241
f 1246 1241 1221
f 1221 1241 1218
f 1246 1245 1241
f 1241 1245 1240
f 1244 1246 1216
f 1216 1246 1221
f 1216 1213 1244
f 1244 1213 1223
f 1198 1205 1207
f 1207 1205 1224
f 1224 1205 1230
f 1230 1205 1204
f 1148 1147 966
f 966 1147 964
f 1149 1154 1150
f 1150 1154 1153
f 1158 1157 1165
f 1165 1157 1166
f 1157 1159 1166
f 1166 1159 1164
f 1163 1162 1056
f 1056 1162 1048
f 1158 1165 1149
f 1149 1165 1154
f 1178 1148 1049
f 1049 1148 966
f 1163 1056 1150
f 1150 1056 1025
f 1178 1162 1167
f 1167 1162 1161
f 1147 1159 964
f 964 1159 1041
f 999 1049 922
f 922 1049 966
f 999 797 985
f 985 797 800
f 797 796 800
f 800 796 801
f 796 997 801
f 801 997 986
f 1247 1248 1250
f 1250 1248 1249
f 1252 1253 1251
f 1251 1253 1254
f 1251 1254 1255
f 1255 1254 1256
f 1258 1259 1257
f 1257 1259 1260
f 1261 1262 1252
f 1252 1262 1253
f 1264 1265 1263
f 1263 1265 1266
f 1267 1268 855
f 855 1268 920
f 1269 1267 1026
f 1026 1267 855
f 1271 1272 1270
f 1270 1272 1273
f 1274 1258 1262
f 1262 1258 1253
f 1264 1275 1265
f 1265 1275 1249
f 1276 1274 1250
f 1250 1274 1262
f 1277 1271 1256
f 1256 1271 1278
f 1279 1280 1282
f 1282 1280 1281
f 1271 1270 1278
f 1278 1270 1283
f 1284 1255 1278
f 1278 1255 1256
f 1277 1256 1257
f 1257 1256 1254
f 1247 1285 1248
f 1248 1285 1286
f 1261 1287 1247
f 1247 1287 1285
f 1257 1260 1277
f 1277 1260 1288
f 1270 1273 1263
f 1263 1273 1289
f 1261 1247 1262
f 1262 1247 1250
f 1251 1290 1252
f 1252 1290 1291
f 1275 1276 1249
f 1249 1276 1250
f 1253 1258 1254
f 1254 1258 1257
f 1248 1286 1292
f 1292 1286 1293
f 1284 1280 1294
f 1294 1280 1279
f 1281 1280 1266
f 1266 1280 1283
f 1292 1293 1281
f 1281 1293 1282
f 1263 1266 1270
f 1270 1266 1283
f 1255 1284 1295
f 1295 1284 1294
f 1252 1291 1261
f 1261 1291 1287
f 1288 1070 1272
f 1272 1070 942
f 1290 1251 1295
f 1295 1251 1255
f 1269 1259 1274
f 1274 1259 1258
f 1280 1284 1283
f 1283 1284 1278
f 1281 1266 1292
f 1292 1266 1265
f 1292 1265 1248
f 1248 1265 1249
f 1295 1294 1297
f 1297 1294 1296
f 1295 1297 1290
f 1290 1297 1298
f 1290 1298 1291
f 1291 1298 1299
f 1291 1299 1287
f 1287 1299 1300
f 1294 1279 1296
f 1296 1279 1301
f 1279 1282 1301
f 1301 1282 1302
f 1302 1282 1303
f 1303 1282 1293
f 1304 1305 1301
f 1301 1305 1296
f 1307 1308 1306
f 1306 1308 1309
f 1310 1311 1307
f 1307 1311 1308
f 1308 1311 1313
f 1313 1311 1312
f 1314 1315 1313
f 1313 1315 1316
f 1312 1317 1313
f 1313 1317 1314
f 1316 1309 1313
f 1313 1309 1308
f 1318 1319 1309
f 1309 1319 1306
f 1311 1310 1312
f 1312 1310 1320
f 1310 1298 1320
f 1320 1298 1297
f 1310 1321 1298
f 1298 1321 1299
f 1307 1322 1310
f 1310 1322 1321
f 1322 1307 1323
f 1323 1307 1306
f 1312 1320 1317
f 1317 1320 1305
f 1305 1320 1296
f 1296 1320 1297
f 1319 1324 1306
f 1306 1324 1323
f 1325 1322 1326
f 1326 1322 1323
f 1324 1327 1323
f 1323 1327 1326
f 1328 1325 1329
f 1329 1325 1326
f 1325 1328 1331
f 1331 1328 1330
f 1327 1332 1326
f 1326 1332 1329
f 1322 1325 1321
f 1321 1325 1331
f 1321 1331 1299
f 1299 1331 1300
f 1324 1319 1334
f 1334 1319 1333
f 1319 1318 1333
f 1333 1318 1335
f 1314 1317 1336
f 1336 1317 1305
f 1315 1314 1337
f 1337 1314 1336
f 1305 1304 1336
f 1336 1304 1338
f 1337 1336 1339
f 1339 1336 1338
f 1337 1340 1315
f 1315 1340 1341
f 1335 1341 1333
f 1333 1341 1340
f 1287 1300 1285
f 1285 1300 1342
f 1286 1343 1293
f 1293 1343 1303
f 1343 1286 1342
f 1342 1286 1285
f 1342 1330 1343
f 1343 1330 1344
f 1330 1328 1344
f 1344 1328 1345
f 1343 1344 1303
f 1303 1344 1346
f 1342 1300 1330
f 1330 1300 1331
f 1347 1302 1346
f 1346 1302 1303
f 1347 1304 1302
f 1302 1304 1301
f 1348 1338 1347
f 1347 1338 1304
f 1348 1347 1349
f 1349 1347 1346
f 1350 1348 1351
f 1351 1348 1349
f 1344 1345 1346
f 1346 1345 1349
f 1345 1352 1349
f 1349 1352 1351
f 1348 1350 1338
f 1338 1350 1339
f 1354 1339 1353
f 1353 1339 1350
f 1353 1356 1355
f 1355 1356 1357
f 1353 1350 1356
f 1356 1350 1351
f 1353 1355 1354
f 1354 1355 1334
f 1354 1334 1340
f 1340 1334 1333
f 1340 1337 1354
f 1354 1337 1339
f 1328 1329 1345
f 1345 1329 1352
f 1357 1352 1332
f 1332 1352 1329
f 1357 1356 1352
f 1352 1356 1351
f 1357 1332 1355
f 1355 1332 1327
f 1327 1324 1355
f 1355 1324 1334
f 1309 1316 1318
f 1318 1316 1335
f 1335 1316 1341
f 1341 1316 1315
f 1259 1072 1260
f 1260 1072 1071
f 1358 1264 1289
f 1289 1264 1263
f 1268 1267 1275
f 1275 1267 1276
f 1267 1269 1276
f 1276 1269 1274
f 941 1273 942
f 942 1273 1272
f 1358 1268 1264
f 1264 1268 1275
f 1260 1071 1288
f 1288 1071 1070
f 1273 941 1289
f 1289 941 977
f 1272 1271 1288
f 1288 1271 1277
f 1259 1269 1072
f 1072 1269 1026
f 1360 1361 1359
f 1359 1361 1362
f 1364 1365 1363
f 1363 1365 1366
f 1363 1366 1367
f 1367 1366 1368
f 1370 1371 1369
f 1369 1371 1372
f 1373 1374 1376
f 1376 1374 1375
f 1377 1378 1364
f 1364 1378 1365
f 1379 1380 1382
f 1382 1380 1381
f 1383 1384 1386
f 1386 1384 1385
f 1387 1385 978
f 978 1385 1384
f 1388 1389 1391
f 1391 1389 1390
f 1378 1392 1365
f 1365 1392 1370
f 1374 1383 1375
f 1375 1383 1386
f 1380 1393 1381
f 1381 1393 1361
f 1394 1392 1362
f 1362 1392 1378
f 1389 1396 1395
f 1395 1396 1368
f 1398 1399 1397
f 1397 1399 1400
f 1388 1401 1389
f 1389 1401 1396
f 1402 1367 1396
f 1396 1367 1368
f 1395 1368 1369
f 1369 1368 1366
f 1359 1403 1360
f 1360 1403 1404
f 1377 1405 1359
f 1359 1405 1403
f 1369 1372 1395
f 1395 1372 1406
f 1379 1388 1376
f 1376 1388 1391
f 1359 1362 1377
f 1377 1362 1378
f 1363 1407 1364
f 1364 1407 1408
f 1393 1394 1361
f 1361 1394 1362
f 1365 1370 1366
f 1366 1370 1369
f 1360 1404 1409
f 1409 1404 1410
f 1402 1398 1411
f 1411 1398 1397
f 1399 1398 1382
f 1382 1398 1401
f 1409 1410 1399
f 1399 1410 1400
f 1388 1379 1401
f 1401 1379 1382
f 1367 1402 1412
f 1412 1402 1411
f 1364 1408 1377
f 1377 1408 1405
f 981 980 1406
f 1406 980 1390
f 1407 1363 1412
f 1412 1363 1367
f 1387 1371 1392
f 1392 1371 1370
f 1398 1402 1401
f 1401 1402 1396
f 1409 1399 1381
f 1381 1399 1382
f 1360 1409 1361
f 1361 1409 1381
f 1412 1411 1414
f 1414 1411 1413
f 1412 1414 1407
f 1407 1414 1415
f 1407 1415 1408
f 1408 1415 1416
f 1408 1416 1405
f 1405 1416 1417
f 1411 1397 1413
f 1413 1397 1418
f 1397 1400 1418
f 1418 1400 1419
f 1419 1400 1420
f 1420 1400 1410
f 1422 1413 1421
f 1421 1413 1418
f 1423 1424 1426
f 1426 1424 1425
f 1427 1428 1424
f 1424 1428 1425
f 1425 1428 1430
f 1430 1428 1429
f 1430 1431 1433
f 1433 1431 1432
f 1429 1434 1430
f 1430 1434 1431
f 1433 1426 1430
f 1430 1426 1425
f 1426 1435 1423
f 1423 1435 1436
f 1428 1427 1429
f 1429 1427 1437
f 1427 1415 1437
f 1437 1415 1414
f 1427 1438 1415
f 1415 1438 1416
f 1439 1438 1424
f 1424 1438 1427
f 1440 1439 1423
f 1423 1439 1424
f 1429 1437 1434
f 1434 1437 1422
f 1422 1437 1413
f 1413 1437 1414
f 1441 1440 1436
f 1436 1440 1423
f 1442 1439 1443
f 1443 1439 1440
f 1441 1444 1440
f 1440 1444 1443
f 1445 1442 1446
f 1446 1442 1443
f 1442 1445 1448
f 1448 1445 1447
f 1444 1449 1443
f 1443 1449 1446
f 1439 1442 1438
f 1438 1442 1448
f 1438 1448 1416
f 1416 1448 1417
f 1436 1450 1441
f 1441 1450 1451
f 1436 1435 1450
f 1450 1435 1452
f 1431 1434 1453
f 1453 1434 1422
f 1431 1453 1432
f 1432 1453 1454
f 1453 1422 1455
f 1455 1422 1421
f 1454 1453 1456
f 1456 1453 1455
f 1457 1458 1454
f 1454 1458 1432
f 1452 1458 1450
f 1450 1458 1457
f 1405 1417 1403
f 1403 1417 1459
f 1404 1460 1410
f 1410 1460 1420
f 1459 1460 1403
f 1403 1460 1404
f 1447 1461 1459
f 1459 1461 1460
f 1445 1462 1447
f 1447 1462 1461
f 1460 1461 1420
f 1420 1461 1463
f 1459 1417 1447
f 1447 1417 1448
f 1464 1419 1463
f 1463 1419 1420
f 1419 1464 1418
f 1418 1464 1421
f 1464 1465 1421
f 1421 1465 1455
f 1465 1464 1466
f 1466 1464 1463
f 1467 1465 1468
f 1468 1465 1466
f 1461 1462 1463
f 1463 1462 1466
f 1462 1469 1466
f 1466 1469 1468
f 1465 1467 1455
f 1455 1467 1456
f 1471 1456 1470
f 1470 1456 1467
f 1470 1473 1472
f 1472 1473 1474
f 1470 1467 1473
f 1473 1467 1468
f 1470 1472 1471
f 1471 1472 1451
f 1471 1451 1457
f 1457 1451 1450
f 1457 1454 1471
f 1471 1454 1456
f 1462 1445 1469
f 1469 1445 1446
f 1474 1469 1449
f 1449 1469 1446
f 1474 1473 1469
f 1469 1473 1468
f 1472 1474 1444
f 1444 1474 1449
f 1444 1441 1472
f 1472 1441 1451
f 1426 1433 1435
f 1435 1433 1452
f 1452 1433 1458
f 1458 1433 1432
f 1371 940 1372
f 1372 940 1068
f 1376 1375 1379
f 1379 1375 1380
f 1393 1386 1394
f 1394 1386 1385
f 1385 1387 1394
f 1394 1387 1392
f 1475 1373 1391
f 1391 1373 1376
f 1375 1386 1380
f 1380 1386 1393
f 1372 1068 1406
f 1406 1068 981
f 1406 1390 1395
f 1395 1390 1389
f 1371 1387 940
f 940 1387 978
f 883 807 1476
f 1476 807 1477
f 1046 904 1479
f 1479 904 1478
f 904 903 1478
f 1478 903 1480
f 1030 1481 1028
f 1028 1481 1482
f 810 1046 1483
f 1483 1046 1479
f 1066 883 1484
f 1484 883 1476
f 807 810 1477
f 1477 810 1483
f 1485 1029 1484
f 1484 1029 1066
f 1028 1482 903
f 903 1482 1480
f 1481 1030 1485
f 1485 1030 1029
f 1484 1486 1485
f 1485 1486 1487
f 1485 1487 1481
f 1481 1487 1488
f 1481 1488 1482
f 1482 1488 1489
f 1482 1489 1480
f 1480 1489 1490
f 1484 1476 1486
f 1486 1476 1491
f 1476 1477 1491
f 1491 1477 1492
f 1477 1483 1492
f 1492 1483 1493
f 1495 1486 1494
f 1494 1486 1491
f 1497 1498 1496
f 1496 1498 1499
f 1500 1501 1497
f 1497 1501 1498
f 1502 1503 1501
f 1501 1503 1498
f 1502 1504 1503
f 1503 1504 1505
f 1506 1499 1503
f 1503 1499 1498
f 1499 1506 1507
f 1507 1506 1508
f 1507 1509 1499
f 1499 1509 1496
f 1502 1501 1510
f 1510 1501 1500
f 1500 1488 1510
f 1510 1488 1487
f 1500 1511 1488
f 1488 1511 1489
f 1497 1512 1500
f 1500 1512 1511
f 1512 1497 1513
f 1513 1497 1496
f 1502 1510 1504
f 1504 1510 1495
f 1495 1510 1486
f 1486 1510 1487
f 1509 1514 1496
f 1496 1514 1513
f 1515 1512 1516
f 1516 1512 1513
f 1514 1517 1513
f 1513 1517 1516
f 1518 1515 1519
f 1519 1515 1516
f 1515 1518 1521
f 1521 1518 1520
f 1517 1522 1516
f 1516 1522 1519
f 1512 1515 1511
f 1511 1515 1521
f 1511 1521 1489
f 1489 1521 1490
f 1514 1509 1524
f 1524 1509 1523
f 1509 1507 1523
f 1523 1507 1508
f 1505 1504 1525
f 1525 1504 1495
f 1526 1505 1527
f 1527 1505 1525
f 1525 1495 1528
f 1528 1495 1494
f 1527 1525 1529
f 1529 1525 1528
f 1527 1530 1526
f 1526 1530 1531
f 1508 1531 1523
f 1523 1531 1530
f 1506 1503 1526
f 1526 1503 1505
f 1508 1506 1531
f 1531 1506 1526
f 1478 1480 1532
f 1532 1480 1490
f 1483 1479 1493
f 1493 1479 1533
f 1532 1533 1478
f 1478 1533 1479
f 1520 1534 1532
f 1532 1534 1533
f 1518 1535 1520
f 1520 1535 1534
f 1533 1534 1493
f 1493 1534 1536
f 1532 1490 1520
f 1520 1490 1521
f 1537 1492 1536
f 1536 1492 1493
f 1492 1537 1491
f 1491 1537 1494
f 1537 1538 1494
f 1494 1538 1528
f 1538 1537 1539
f 1539 1537 1536
f 1540 1538 1541
f 1541 1538 1539
f 1534 1535 1536
f 1536 1535 1539
f 1535 1542 1539
f 1539 1542 1541
f 1538 1540 1528
f 1528 1540 1529
f 1544 1529 1543
f 1543 1529 1540
f 1545 1543 1547
f 1547 1543 1546
f 1543 1540 1546
f 1546 1540 1541
f 1543 1545 1544
f 1544 1545 1524
f 1544 1524 1530
f 1530 1524 1523
f 1530 1527 1544
f 1544 1527 1529
f 1535 1518 1542
f 1542 1518 1519
f 1547 1542 1522
f 1522 1542 1519
f 1547 1546 1542
f 1542 1546 1541
f 1545 1547 1517
f 1517 1547 1522
f 1517 1514 1545
f 1545 1514 1524
f 997 995 986
f 986 995 987
f 987 995 988
f 988 995 971
f 976 1358 977
f 977 1358 1289
f 854 853 1067
f 1067 853 1050
f 1055 985 1069
f 1069 985 962
f 1068 961 981
f 981 961 862
f 1268 1358 920
f 920 1358 976
f 920 976 921
f 921 976 975
f 927 1054 850
f 850 1054 851
f 882 881 1057
f 1057 881 1548
f 1548 1374 1057
f 1057 1374 1373
f 1383 1374 1549
f 1549 1374 1548
f 1549 1548 1550
f 1550 1548 881
f 1550 881 1551
f 1551 881 880
f 933 1552 879
f 879 1552 880
f 1551 880 875
f 875 880 1552
f 1553 1551 878
f 878 1551 875
f 1551 1553 1550
f 1550 1553 1554
f 1550 1554 1549
f 1549 1554 1555
f 978 1384 975
f 975 1384 1555
f 967 849 1556
f 1556 849 852
f 875 1552 876
f 876 1552 933
f 961 939 962
f 962 939 1069
f 1555 1054 975
f 975 1054 921
f 1555 1384 1549
f 1549 1384 1383
f 1391 1390 1475
f 1475 1390 980
f 1373 1475 1057
f 1057 1475 980
f 851 1054 1554
f 1554 1054 1555
f 1554 1553 851
f 851 1553 852
f 878 1556 1553
f 1553 1556 852
f 1556 878 967
f 967 878 877
f 1023 1020 877
f 877 1020 967
f 909 811 1034
f 806 779 873
f 873 779 840
f 805 780 806
f 806 780 779
f 1043 893 1044
f 1044 893 892
f 873 840 847
f 847 840 842
f 840 839 842
f 842 839 843
f 839 791 843
f 843 791 908
f 791 790 908
f 908 790 792
f 809 789 810
f 810 789 1046
f 793 790 809
f 809 790 789
f 809 808 793
f 793 808 1009
f 808 884 1009
f 1009 884 1010
f 1065 1015 884
f 884 1015 1010
f 1032 868 1065
f 1065 868 1015
f 1031 822 1032
f 1032 822 868
f 1031 1027 822
f 822 1027 785
f 1045 905 1046
f 1046 905 904
f 788 781 1019
f 1019 781 894
f 781 780 894
f 894 780 892
f 780 805 892
f 892 805 1044
f 805 804 1044
f 1044 804 891
f 804 1064 891
f 891 1064 888
f 1064 1021 888
f 888 1021 1033
f 1021 1020 1033
f 1033 1020 1034
f 1020 1023 1034
f 1034 1023 909
f 1023 1022 909
f 909 1022 910
f 1043 815 893
f 893 815 819
f 819 815 820
f 820 815 818
f 870 869 818
f 818 869 820
f 1014 1011 870
f 870 1011 869
f 969 972 1014
f 1014 972 1011
f 1036 1063 1022
f 1022 1063 910
f 1035 833 1036
f 1036 833 1063
f 1035 932 979
f 979 932 963
f 834 979 982
f 982 979 958
f 833 1035 834
f 834 1035 979
f 982 863 834
f 834 863 830
f 864 900 831
f 831 900 857
f 990 993 864
f 864 993 900
f 989 994 990
f 990 994 993
f 970 1058 989
f 989 1058 994
f 969 1018 970
f 970 1018 1058
f 1027 902 785
f 785 902 786
f 902 905 786
f 786 905 1019
f 905 1045 1019
f 1019 1045 788
f 788 1045 787
f 787 1045 789
