o hand_left
v -0.627029 0.239888 1.326147
v -0.628200 0.249123 1.323197
v -0.616155 0.249033 1.322830
v -0.615938 0.238414 1.325535
v -0.624110 0.270627 1.318786
v -0.623662 0.277789 1.308561
v -0.608623 0.275175 1.310489
v -0.611158 0.270350 1.319243
v -0.607297 0.236919 1.322652
v -0.607755 0.249140 1.322216
v -0.603981 0.237250 1.316085
v -0.608475 0.221603 1.315177
v -0.609793 0.224746 1.322340
v -0.611096 0.211712 1.317610
v -0.614961 0.221423 1.305612
v -0.618590 0.206165 1.313789
v -0.647426 0.216210 1.310061
v -0.659713 0.218678 1.315956
v -0.655406 0.204260 1.325648
v -0.642879 0.203919 1.319305
v -0.671368 0.215373 1.333759
v -0.662424 0.208580 1.329755
v -0.667439 0.222079 1.319322
v -0.675041 0.227633 1.323486
v -0.644660 0.244939 1.328882
v -0.647833 0.253685 1.325446
v -0.641247 0.250831 1.323986
v -0.638816 0.243217 1.327109
v -0.595524 0.248021 1.306316
v -0.605640 0.241491 1.300172
v -0.604524 0.236861 1.307190
v -0.596085 0.247904 1.311766
v -0.661163 0.280545 1.322854
v -0.666314 0.286826 1.311939
v -0.661707 0.285723 1.308479
v -0.658263 0.279539 1.319168
v -0.641561 0.281078 1.303315
v -0.648704 0.283385 1.297047
v -0.647024 0.282421 1.282848
v -0.640274 0.277674 1.286618
v -0.632873 0.279006 1.307262
v -0.631519 0.277684 1.292962
v -0.622732 0.276945 1.296743
v -0.606786 0.275210 1.300982
v -0.677882 0.287087 1.317632
v -0.675588 0.282985 1.326705
v -0.596521 0.196500 1.353784
v -0.601748 0.198119 1.356689
v -0.602293 0.198318 1.355148
v -0.597344 0.196534 1.352383
v -0.692801 0.273381 1.319111
v -0.696439 0.266400 1.312761
v -0.698529 0.272918 1.310194
v -0.693684 0.279573 1.314820
v -0.691532 0.265209 1.324770
v -0.692826 0.257663 1.316448
v -0.593194 0.184954 1.358063
v -0.591627 0.189369 1.355534
v -0.593624 0.186884 1.352288
v -0.596273 0.181918 1.354084
v -0.615749 0.228368 1.327503
v -0.624947 0.231836 1.330429
v -0.615266 0.212865 1.336677
v -0.620395 0.219551 1.334242
v -0.614743 0.219225 1.329083
v -0.611842 0.212742 1.330882
v -0.642104 0.226526 1.341656
v -0.645126 0.235948 1.335473
v -0.639119 0.233448 1.333423
v -0.634201 0.223465 1.339810
v -0.655958 0.241145 1.343104
v -0.652371 0.231173 1.348227
v -0.659064 0.235264 1.351867
v -0.659877 0.242234 1.348243
v -0.644353 0.213693 1.354205
v -0.642777 0.209088 1.356128
v -0.645090 0.211323 1.358971
v -0.647438 0.215485 1.355758
v -0.700758 0.278692 1.306687
v -0.694009 0.285066 1.310010
v -0.686024 0.227776 1.344571
v -0.688265 0.237990 1.349042
v -0.687086 0.227521 1.358499
v -0.685251 0.218552 1.350949
v -0.694006 0.259350 1.305501
v -0.698404 0.265507 1.303341
v -0.597957 0.181978 1.361563
v -0.600865 0.178827 1.358162
v -0.625525 0.268310 1.287303
v -0.606978 0.268519 1.293507
v -0.637546 0.269342 1.282821
v -0.645601 0.270998 1.278962
v -0.650687 0.275049 1.274212
v -0.624480 0.217233 1.339496
v -0.633944 0.235717 1.330307
v -0.649210 0.246717 1.331127
v -0.671135 0.255291 1.351428
v -0.673039 0.264107 1.345972
v -0.663605 0.259615 1.343243
v -0.664213 0.252449 1.348232
v -0.684398 0.244595 1.355379
v -0.676689 0.246372 1.357652
v -0.676096 0.238646 1.362367
v -0.683518 0.235293 1.361872
v -0.592840 0.252342 1.300287
v -0.606509 0.247028 1.294316
v -0.685782 0.279920 1.323691
v -0.685415 0.284836 1.317617
v -0.687630 0.289467 1.310820
v -0.653279 0.266960 1.324224
v -0.656192 0.278805 1.316776
v -0.652214 0.277258 1.315512
v -0.650729 0.264461 1.322791
v -0.632103 0.259471 1.322828
v -0.637001 0.271517 1.317969
v -0.619732 0.259826 1.323601
v -0.656222 0.285469 1.302854
v -0.664528 0.292694 1.301213
v -0.658272 0.291203 1.295080
v -0.673044 0.293086 1.306145
v -0.681170 0.292175 1.309807
v -0.703821 0.270236 1.298760
v -0.653179 0.288153 1.289034
v -0.602207 0.268821 1.318842
v -0.594431 0.267342 1.319247
v -0.596531 0.259975 1.320830
v -0.603423 0.260446 1.320960
v -0.611476 0.202626 1.322106
v -0.609417 0.208628 1.326595
v -0.610227 0.217075 1.322307
v -0.662476 0.273441 1.331819
v -0.674603 0.275894 1.334872
v -0.618794 0.210288 1.341756
v -0.599706 0.181744 1.349074
v -0.596396 0.186911 1.347473
v -0.606072 0.194250 1.333438
v -0.609815 0.188357 1.334394
v -0.621309 0.201243 1.346352
v -0.617369 0.206526 1.344218
v -0.617049 0.204392 1.345511
v -0.620240 0.200051 1.349419
v -0.652707 0.216050 1.361915
v -0.654401 0.220107 1.358746
v -0.637352 0.194539 1.331303
v -0.628083 0.193451 1.320552
v -0.630728 0.203913 1.313350
v -0.648264 0.229551 1.344690
v -0.646249 0.221324 1.350557
v -0.649751 0.222715 1.352433
v -0.626412 0.214275 1.342711
v -0.623202 0.207973 1.345194
v -0.628300 0.209793 1.345412
v -0.631398 0.216009 1.343900
v -0.690387 0.247710 1.339876
v -0.686103 0.255305 1.347682
v -0.592920 0.193402 1.353737
v -0.594048 0.192344 1.351393
v -0.651075 0.238737 1.338581
v -0.635114 0.216607 1.306542
v -0.653609 0.248768 1.333872
v -0.668870 0.207986 1.354920
v -0.667096 0.213072 1.361640
v -0.663254 0.211136 1.365395
v -0.663432 0.205843 1.362296
v -0.613230 0.193568 1.359458
v -0.609216 0.197912 1.358390
v -0.607605 0.196808 1.358453
v -0.611040 0.192406 1.361156
v -0.613401 0.208412 1.340232
v -0.609677 0.208002 1.334945
v -0.607869 0.205032 1.339201
v -0.612448 0.205305 1.343175
v -0.607960 0.203197 1.330808
v -0.605652 0.200456 1.335054
v -0.614115 0.186880 1.359043
v -0.610206 0.180480 1.356534
v -0.620824 0.186970 1.343432
v -0.621472 0.192359 1.349025
v -0.679399 0.238075 1.313093
v -0.686662 0.243459 1.319690
v -0.682739 0.233014 1.330146
v -0.680103 0.221702 1.340359
v -0.675939 0.211248 1.349612
v -0.668898 0.204507 1.342272
v -0.687747 0.238325 1.334089
v -0.629392 0.198142 1.342371
v -0.628131 0.191851 1.335370
v -0.632760 0.194803 1.338253
v -0.658280 0.251731 1.338952
v -0.596136 0.192655 1.347890
v -0.662470 0.257233 1.277152
v -0.674335 0.254986 1.282193
v -0.669143 0.249279 1.286490
v -0.655741 0.252321 1.281435
v -0.603233 0.199759 1.354995
v -0.598473 0.198084 1.350562
v -0.659157 0.221604 1.363242
v -0.656922 0.217054 1.365606
v -0.659474 0.215678 1.367504
v -0.662346 0.220742 1.368066
v -0.689999 0.247674 1.322388
v -0.682389 0.222778 1.366183
v -0.681406 0.214653 1.358451
v -0.689864 0.252209 1.310337
v -0.684036 0.247229 1.304218
v -0.687883 0.253904 1.298176
v -0.655362 0.198194 1.341313
v -0.672846 0.233281 1.309964
v -0.677933 0.243753 1.301117
v -0.682250 0.251575 1.293751
v -0.686239 0.256857 1.288595
v -0.691920 0.258982 1.294057
v -0.604789 0.179504 1.352981
v -0.606806 0.180251 1.362256
v -0.697655 0.263743 1.288833
v -0.690608 0.261605 1.283162
v -0.670122 0.240902 1.297131
v -0.659905 0.238692 1.292912
v -0.665379 0.231021 1.305974
v -0.654814 0.227839 1.302318
v -0.650905 0.192931 1.332526
v -0.602189 0.192966 1.374078
v -0.607789 0.187677 1.366797
v -0.609158 0.192722 1.364003
v -0.604866 0.196029 1.372407
v -0.611012 0.186672 1.362627
v -0.604025 0.183450 1.365788
v -0.639909 0.229252 1.298057
v -0.626705 0.204652 1.346822
v -0.643437 0.243392 1.288508
v -0.620690 0.230923 1.296361
v -0.623345 0.243328 1.290636
v -0.645474 0.258373 1.279223
v -0.630684 0.256404 1.283518
v -0.657385 0.267313 1.271681
v -0.652545 0.261856 1.275959
v -0.614653 0.257501 1.288018
v -0.596436 0.202010 1.360816
v -0.602038 0.202027 1.363506
v -0.667069 0.262242 1.272392
v -0.610241 0.259876 1.322379
v -0.658158 0.261092 1.333490
v -0.654625 0.258178 1.329932
v -0.673783 0.268982 1.341867
v -0.663018 0.265637 1.338077
v -0.591607 0.199211 1.360636
v -0.643681 0.205761 1.357653
v -0.644804 0.207695 1.357229
v -0.599632 0.274035 1.312328
v -0.592686 0.272288 1.313607
v -0.588397 0.266960 1.302136
v -0.589215 0.271911 1.307445
v -0.597390 0.273941 1.303852
v -0.596672 0.268802 1.297902
v -0.655132 0.268614 1.325826
v -0.657863 0.270076 1.328425
v -0.691188 0.257227 1.332115
v -0.686432 0.264057 1.340182
v -0.610189 0.197590 1.328057
v -0.618131 0.196326 1.321049
v -0.615229 0.192280 1.328073
v -0.616481 0.186332 1.336585
v -0.626564 0.200779 1.346346
v -0.624845 0.196270 1.344209
v -0.644824 0.273928 1.317051
v -0.643448 0.261024 1.322251
v -0.602673 0.250800 1.319706
v -0.597079 0.252099 1.318165
v -0.638639 0.219293 1.345777
v -0.647152 0.195852 1.349717
v -0.643182 0.192105 1.342072
v -0.636120 0.211591 1.349150
v -0.589356 0.193208 1.366062
v -0.589526 0.196656 1.362524
v -0.621858 0.189864 1.329502
v -0.655969 0.226873 1.356556
v -0.652426 0.199876 1.349701
v -0.646613 0.199991 1.355732
v -0.680970 0.231285 1.366138
v -0.678648 0.260869 1.277048
v -0.607123 0.197187 1.360803
v -0.605828 0.200188 1.366993
v -0.598764 0.190391 1.373238
v -0.593546 0.189654 1.369509
v -0.685051 0.271947 1.332581
v -0.651977 0.255892 1.327899
v -0.601101 0.259284 1.292986
v -0.590389 0.260004 1.299085
v -0.635230 0.207575 1.350224
v -0.673481 0.211900 1.358171
v -0.663570 0.201521 1.350726
v -0.657910 0.199505 1.359056
v -0.650417 0.199242 1.357684
v -0.644823 0.203366 1.358336
v -0.597221 0.195213 1.377216
v -0.591778 0.194812 1.373866
v -0.588289 0.198213 1.369721
v -0.588830 0.200570 1.365527
v -0.591922 0.202034 1.362827
v -0.601162 0.197732 1.377403
v -0.603705 0.200030 1.375133
v -0.605178 0.201712 1.369073
v -0.601500 0.202307 1.378550
v -0.596565 0.203251 1.380462
v -0.588724 0.212498 1.372949
v -0.588161 0.206424 1.373520
v -0.589063 0.208188 1.375620
v -0.589660 0.213245 1.375976
v -0.590637 0.218080 1.377804
v -0.589579 0.218047 1.374438
v -0.591483 0.204726 1.377893
v -0.592650 0.211478 1.379089
v -0.596476 0.210737 1.380805
v -0.596637 0.216202 1.382205
v -0.593169 0.217023 1.380900
v -0.595283 0.206163 1.380202
v -0.590979 0.202051 1.377655
v -0.591627 0.221494 1.376840
v -0.591502 0.220583 1.379182
v -0.593938 0.220076 1.381391
v -0.595157 0.222669 1.380277
v -0.588917 0.205277 1.367654
v -0.589428 0.213165 1.370501
v -0.591801 0.218558 1.372264
v -0.593654 0.221834 1.374905
v -0.592993 0.214651 1.368973
v -0.594573 0.218548 1.371179
v -0.596605 0.221132 1.373511
v -0.597304 0.215281 1.368788
v -0.597822 0.218429 1.371211
v -0.596327 0.205337 1.364072
v -0.592182 0.204494 1.364127
v -0.598461 0.220500 1.372548
v -0.596930 0.223026 1.379026
v -0.599690 0.208871 1.380682
v -0.599745 0.215986 1.381373
v -0.601851 0.209062 1.379553
v -0.601992 0.215950 1.380676
v -0.598916 0.220306 1.382390
v -0.596613 0.219182 1.382379
v -0.597046 0.202929 1.362450
v -0.602685 0.202644 1.365224
v -0.602177 0.204475 1.366570
v -0.601847 0.214323 1.370448
v -0.604795 0.204019 1.370234
v -0.603950 0.204208 1.375986
v -0.603615 0.210752 1.377689
v -0.604277 0.212347 1.374616
v -0.603190 0.216096 1.378402
v -0.603084 0.216591 1.375876
v -0.601232 0.217952 1.372682
v -0.601799 0.219921 1.378235
v -0.600544 0.220294 1.380894
v -0.599010 0.221935 1.376556
v -0.602260 0.219240 1.376479
v -0.599991 0.220294 1.374726
v -0.618321 0.207214 1.372570
v -0.623860 0.208866 1.375427
v -0.624622 0.206073 1.372384
v -0.619991 0.204633 1.369941
v -0.614260 0.194675 1.378056
v -0.613207 0.200044 1.374493
v -0.615010 0.195654 1.371021
v -0.617713 0.190071 1.374656
v -0.620158 0.192076 1.382123
v -0.623866 0.188409 1.378134
v -0.620635 0.188204 1.369525
v -0.617669 0.194020 1.366410
v -0.627419 0.196467 1.348493
v -0.631030 0.191043 1.349638
v -0.638624 0.207669 1.357293
v -0.640900 0.205454 1.359246
v -0.615365 0.204459 1.372710
v -0.616738 0.200868 1.369616
v -0.633412 0.204101 1.374830
v -0.629499 0.206937 1.372117
v -0.628840 0.206630 1.374929
v -0.631879 0.203532 1.378371
v -0.628554 0.204572 1.350075
v -0.633860 0.206146 1.353477
v -0.627077 0.201165 1.348945
v -0.635079 0.197941 1.377044
v -0.633420 0.191223 1.377059
v -0.642761 0.192184 1.358625
v -0.643796 0.197765 1.361330
v -0.617812 0.199374 1.365716
v -0.624215 0.206714 1.369494
v -0.620158 0.204471 1.366736
v -0.627505 0.187431 1.372743
v -0.629754 0.192747 1.382168
v -0.624020 0.208859 1.393080
v -0.629400 0.201530 1.385490
v -0.629893 0.205848 1.382501
v -0.625578 0.213262 1.390671
v -0.632174 0.198649 1.381290
v -0.626214 0.196485 1.385783
v -0.615099 0.217443 1.381808
v -0.620880 0.218491 1.384307
v -0.611224 0.214944 1.382130
v -0.637297 0.189481 1.353015
v -0.609809 0.205410 1.386656
v -0.609366 0.211148 1.383265
v -0.628314 0.208680 1.378466
v -0.624563 0.217130 1.387514
v -0.621019 0.205281 1.393606
v -0.615118 0.202056 1.390154
v -0.618921 0.209600 1.396831
v -0.612858 0.208041 1.394416
v -0.607794 0.211459 1.390286
v -0.608272 0.215882 1.386047
v -0.610753 0.218266 1.384124
v -0.622383 0.212768 1.396090
v -0.624218 0.216573 1.393235
v -0.623358 0.218969 1.388435
v -0.621915 0.218794 1.398142
v -0.618121 0.217176 1.400210
v -0.607492 0.232716 1.396962
v -0.607206 0.226845 1.395345
v -0.608290 0.226335 1.397750
v -0.608432 0.231640 1.399430
v -0.607054 0.220281 1.395425
v -0.608464 0.221501 1.397409
v -0.612022 0.219090 1.399368
v -0.612091 0.225306 1.400598
v -0.616883 0.224386 1.401423
v -0.616650 0.229713 1.403644
v -0.611920 0.230813 1.403078
v -0.615660 0.220061 1.400692
v -0.609319 0.234763 1.401099
v -0.609773 0.237045 1.399845
v -0.611478 0.215621 1.398749
v -0.607418 0.219792 1.389092
v -0.607709 0.228340 1.392649
v -0.608983 0.234562 1.394693
v -0.612166 0.238368 1.398444
v -0.610802 0.230399 1.390502
v -0.611803 0.235600 1.393426
v -0.614459 0.238162 1.396896
v -0.615348 0.231615 1.389418
v -0.616032 0.236127 1.393009
v -0.615006 0.222073 1.384579
v -0.610490 0.221280 1.385601
v -0.616149 0.237409 1.395308
v -0.613009 0.236960 1.403547
v -0.615157 0.238543 1.401461
v -0.612346 0.235154 1.403750
v -0.619017 0.224221 1.401316
v -0.618638 0.230544 1.403035
v -0.621450 0.225312 1.400216
v -0.620512 0.231939 1.402268
v -0.617291 0.234913 1.404378
v -0.615770 0.234137 1.404713
v -0.614835 0.219576 1.383531
v -0.620210 0.219731 1.385368
v -0.620523 0.221663 1.385961
v -0.620372 0.230811 1.391180
v -0.623784 0.220458 1.389444
v -0.623771 0.220063 1.395170
v -0.623041 0.226273 1.398026
v -0.623068 0.228748 1.394757
v -0.622135 0.232524 1.400884
v -0.622383 0.232578 1.397561
v -0.619843 0.234980 1.394155
v -0.620071 0.236544 1.401834
v -0.618549 0.235920 1.403581
v -0.616583 0.238443 1.399692
v -0.620953 0.235846 1.399056
v -0.618255 0.237465 1.397080
v -0.636731 0.215290 1.380285
v -0.642037 0.216481 1.382283
v -0.643288 0.215065 1.379421
v -0.638223 0.213401 1.377552
v -0.633142 0.203688 1.384503
v -0.631692 0.207966 1.382402
v -0.633485 0.205292 1.378720
v -0.635532 0.200296 1.379753
v -0.636880 0.202367 1.388754
v -0.640362 0.197771 1.382776
v -0.637991 0.198221 1.375045
v -0.635290 0.203681 1.374914
v -0.642636 0.203657 1.362053
v -0.646083 0.198218 1.363219
v -0.633475 0.212073 1.380859
v -0.635005 0.210045 1.377826
v -0.650752 0.212490 1.382125
v -0.647366 0.215358 1.379907
v -0.647550 0.214030 1.382586
v -0.649544 0.210908 1.385127
v -0.645546 0.213506 1.361937
v -0.650928 0.214990 1.364096
v -0.642756 0.209453 1.362058
v -0.651810 0.205987 1.383398
v -0.649638 0.199104 1.381890
v -0.658074 0.202152 1.370164
v -0.659015 0.208173 1.370788
v -0.635819 0.208827 1.374804
v -0.643047 0.216057 1.376778
v -0.638316 0.213745 1.374988
v -0.643748 0.196777 1.377652
v -0.646075 0.200237 1.386580
v -0.640244 0.214554 1.402930
v -0.647110 0.206897 1.390618
v -0.648009 0.212230 1.388075
v -0.642268 0.218151 1.401232
v -0.649359 0.205616 1.387490
v -0.643030 0.202916 1.390846
v -0.632745 0.224330 1.392715
v -0.638069 0.224067 1.394442
v -0.629593 0.221302 1.392404
v -0.652520 0.197033 1.366253
v -0.656973 0.213911 1.368822
v -0.627344 0.215382 1.396393
v -0.627693 0.218812 1.393740
v -0.646313 0.215066 1.385252
v -0.641889 0.221806 1.398099
v -0.636372 0.211661 1.402285
v -0.630906 0.211297 1.399215
v -0.635723 0.215499 1.406707
v -0.630119 0.215866 1.404091
v -0.626592 0.219767 1.401475
v -0.627308 0.222929 1.398406
v -0.629350 0.225055 1.396600
v -0.639838 0.218040 1.406701
v -0.641570 0.220868 1.404554
v -0.641180 0.222621 1.399605
v -0.640402 0.221415 1.409008
v -0.635412 0.220799 1.411292
v -0.628775 0.236219 1.412658
v -0.628055 0.231641 1.409165
v -0.628586 0.231021 1.410121
v -0.629085 0.235211 1.414025
v -0.627132 0.225183 1.406993
v -0.628001 0.226181 1.408643
v -0.630360 0.223347 1.410248
v -0.631469 0.228623 1.413884
v -0.637300 0.227021 1.413915
v -0.637150 0.231267 1.416589
v -0.631808 0.232827 1.417166
v -0.634670 0.222692 1.411737
v -0.630219 0.237063 1.416368
v -0.629179 0.238686 1.416079
v -0.629909 0.221084 1.409155
v -0.626766 0.227188 1.402440
v -0.628048 0.233430 1.406842
v -0.628737 0.238313 1.410205
v -0.630941 0.240502 1.413379
v -0.630831 0.234885 1.404655
v -0.631290 0.238844 1.408349
v -0.633127 0.240850 1.411273
v -0.633967 0.235251 1.403758
v -0.634393 0.238574 1.407330
v -0.633009 0.227829 1.397428
v -0.629354 0.227920 1.399311
v -0.634927 0.240117 1.410009
v -0.633007 0.237657 1.418844
v -0.635678 0.239873 1.416438
v -0.632667 0.236120 1.418117
v -0.638964 0.226340 1.413429
v -0.639431 0.231851 1.416832
v -0.641240 0.227077 1.411883
v -0.641563 0.232598 1.415254
v -0.637575 0.235042 1.418764
v -0.636538 0.234499 1.418505
v -0.633098 0.225614 1.395455
v -0.637986 0.224854 1.396564
v -0.637761 0.226750 1.398030
v -0.638576 0.234632 1.404515
v -0.641095 0.224530 1.400739
v -0.641923 0.224054 1.406729
v -0.642153 0.229244 1.409533
v -0.641510 0.232181 1.407177
v -0.642252 0.233965 1.412881
v -0.641365 0.234844 1.410297
v -0.638484 0.237973 1.407775
v -0.640128 0.237086 1.414450
v -0.639498 0.236214 1.417183
v -0.636958 0.240308 1.413594
v -0.640218 0.237539 1.412020
v -0.637738 0.239877 1.411268
v -0.654634 0.215389 1.366617
v -0.652453 0.225818 1.385291
v -0.656154 0.227098 1.387243
v -0.656491 0.226303 1.387113
v -0.653261 0.225125 1.384067
v -0.650500 0.214566 1.386523
v -0.648945 0.218977 1.385220
v -0.650599 0.216523 1.382225
v -0.652526 0.212366 1.383275
v -0.654815 0.212408 1.389138
v -0.657088 0.210975 1.386629
v -0.655304 0.212352 1.380312
v -0.652934 0.216262 1.379094
v -0.663351 0.215671 1.365731
v -0.668111 0.212654 1.365672
v -0.677190 0.228852 1.371445
v -0.673017 0.231839 1.368993
v -0.669846 0.229284 1.377218
v -0.673725 0.226551 1.378228
v -0.650022 0.222811 1.384790
v -0.651007 0.221602 1.382162
v -0.664596 0.222808 1.391072
v -0.661397 0.226009 1.388912
v -0.659961 0.226208 1.389627
v -0.663014 0.224036 1.392730
v -0.668012 0.230409 1.367792
v -0.664940 0.226319 1.366743
v -0.663186 0.226647 1.370710
v -0.665368 0.228710 1.375311
v -0.661406 0.221650 1.369003
v -0.665534 0.218310 1.390906
v -0.664007 0.212933 1.388419
v -0.677727 0.217690 1.374595
v -0.676985 0.222366 1.376619
v -0.652245 0.220373 1.380816
v -0.657753 0.226399 1.385586
v -0.654283 0.224550 1.383866
v -0.660001 0.210551 1.383380
v -0.661316 0.214077 1.391189
v -0.658974 0.223066 1.399826
v -0.662563 0.220059 1.394938
v -0.662683 0.224632 1.393237
v -0.660030 0.225951 1.398288
v -0.663296 0.219461 1.393442
v -0.659302 0.215597 1.393829
v -0.651088 0.229540 1.389459
v -0.655881 0.229866 1.392152
v -0.648356 0.227519 1.389058
v -0.673798 0.213266 1.368614
v -0.646749 0.220903 1.392270
v -0.646509 0.224921 1.390333
v -0.659499 0.226793 1.390111
v -0.659047 0.228658 1.395418
v -0.655482 0.219657 1.399467
v -0.650663 0.217705 1.395597
v -0.653111 0.222759 1.402054
v -0.648445 0.221442 1.398363
v -0.645446 0.225650 1.394171
v -0.646852 0.228121 1.391441
v -0.649123 0.229983 1.390226
v -0.657537 0.225400 1.401745
v -0.659104 0.227365 1.399905
v -0.658731 0.229283 1.396297
v -0.656102 0.228149 1.403877
v -0.651353 0.228646 1.404166
v -0.648515 0.241078 1.400061
v -0.647733 0.237471 1.397955
v -0.647657 0.237012 1.399065
v -0.647882 0.240722 1.400879
v -0.646192 0.232144 1.396810
v -0.646702 0.232978 1.398432
v -0.647582 0.230025 1.400592
v -0.648201 0.234966 1.402838
v -0.652424 0.233782 1.406028
v -0.652367 0.237702 1.407390
v -0.648456 0.238324 1.404674
v -0.650359 0.230181 1.404031
v -0.647958 0.242538 1.403022
v -0.648280 0.243932 1.402879
v -0.646869 0.227604 1.400145
v -0.647788 0.233026 1.393134
v -0.648925 0.239200 1.396363
v -0.649517 0.243310 1.399475
v -0.650346 0.245141 1.402825
v -0.651071 0.239165 1.395086
v -0.651566 0.243942 1.398626
v -0.652418 0.245516 1.401889
v -0.654397 0.238799 1.394958
v -0.654048 0.243164 1.398527
v -0.654201 0.233319 1.391764
v -0.650711 0.233674 1.391684
v -0.653803 0.244595 1.401255
v -0.649574 0.243059 1.406503
v -0.652077 0.244452 1.405614
v -0.648912 0.241542 1.406486
v -0.653718 0.233429 1.406365
v -0.653838 0.238221 1.407971
v -0.656116 0.233526 1.405970
v -0.655747 0.238971 1.407278
v -0.652379 0.241442 1.408186
v -0.651063 0.240148 1.407671
v -0.652753 0.231572 1.390715
v -0.655928 0.230821 1.392682
v -0.657367 0.232119 1.394178
v -0.657671 0.237377 1.397150
v -0.659397 0.230112 1.398163
v -0.658568 0.228748 1.401844
v -0.658135 0.234362 1.404316
v -0.659194 0.235764 1.401389
v -0.657004 0.240004 1.405840
v -0.657921 0.240713 1.403044
v -0.656855 0.241965 1.400098
v -0.655035 0.243248 1.405640
v -0.653992 0.242839 1.407157
v -0.653736 0.244688 1.404387
v -0.655955 0.243297 1.403956
v -0.655148 0.244041 1.402682
v -0.678428 0.224976 1.372100
v -0.579636 0.251801 1.308308
v -0.583275 0.249605 1.312224
v -0.584444 0.260987 1.324367
v -0.585343 0.254048 1.322375
v -0.581009 0.266836 1.322228
v -0.575303 0.268973 1.312875
v -0.578820 0.269611 1.317528
v -0.585117 0.250125 1.317764
v -0.576758 0.256929 1.306134
v -0.574904 0.264202 1.307431
v -0.568015 0.250131 1.309408
v -0.564903 0.258838 1.311786
v -0.565174 0.263694 1.317685
v -0.572485 0.265862 1.321996
v -0.576386 0.264788 1.325202
v -0.576194 0.248002 1.311717
v -0.580484 0.247320 1.314931
v -0.583086 0.249874 1.320590
v -0.575809 0.243191 1.317549
v -0.570005 0.242596 1.324923
v -0.567233 0.250380 1.343548
v -0.567914 0.253939 1.337404
v -0.567020 0.251575 1.336598
v -0.566131 0.248603 1.342330
v -0.566458 0.254657 1.331457
v -0.566898 0.252402 1.331857
v -0.567391 0.248635 1.328104
v -0.567101 0.245913 1.333984
v -0.569863 0.244161 1.327632
v -0.570841 0.241768 1.331728
v -0.566672 0.243089 1.339355
v -0.565232 0.245262 1.344649
v -0.566395 0.240891 1.343801
v -0.566973 0.246100 1.346935
v -0.563727 0.248355 1.325266
v -0.569042 0.260339 1.329624
v -0.570001 0.256552 1.337678
v -0.570214 0.252117 1.344464
v -0.569985 0.246850 1.347672
v -0.574054 0.257156 1.338175
v -0.574214 0.252336 1.343518
v -0.574277 0.247160 1.345897
v -0.578423 0.255151 1.337526
v -0.577274 0.250442 1.341897
v -0.580710 0.259849 1.328684
v -0.575127 0.262604 1.329303
v -0.576125 0.247223 1.343901
v -0.567755 0.240102 1.346068
v -0.571036 0.240919 1.346544
v -0.573097 0.240188 1.329882
v -0.570187 0.238899 1.336557
v -0.572726 0.238045 1.336151
v -0.576644 0.240115 1.328379
v -0.575399 0.238026 1.336146
v -0.570728 0.237277 1.341571
v -0.568592 0.238481 1.340538
v -0.580981 0.260949 1.326648
v -0.583253 0.255163 1.324501
v -0.583363 0.254742 1.325626
v -0.581789 0.250286 1.334437
v -0.583796 0.249136 1.322877
v -0.580545 0.245087 1.319441
v -0.579973 0.241336 1.329126
v -0.582173 0.244976 1.331115
v -0.578060 0.240173 1.336711
v -0.579252 0.242844 1.337413
v -0.579209 0.246866 1.340099
v -0.576023 0.240242 1.341647
v -0.573658 0.237814 1.341779
v -0.574746 0.242755 1.345012
v -0.577332 0.242346 1.340758
v -0.576777 0.244556 1.342940
v -0.674472 0.234968 1.364948
v -0.668048 0.233499 1.363371
v -0.669862 0.238494 1.360688
v -0.670348 0.246600 1.356596
v -0.677118 0.253760 1.352985
v -0.664573 0.244575 1.353003
v -0.664195 0.236326 1.357647
v -0.661741 0.228783 1.361364
v -0.660642 0.248792 1.344494
f 2 3 1
f 1 3 4
f 5 6 8
f 8 6 7
f 9 4 10
f 10 4 3
f 12 13 11
f 11 13 9
f 14 12 16
f 16 12 15
f 18 19 17
f 17 19 20
f 22 23 21
f 21 23 24
f 26 27 25
f 25 27 28
f 30 31 29
f 29 31 32
f 33 34 36
f 36 34 35
f 37 38 40
f 40 38 39
f 41 42 6
f 6 42 43
f 6 43 7
f 7 43 44
f 45 34 46
f 46 34 33
f 48 49 47
f 47 49 50
f 52 53 51
f 51 53 54
f 56 52 55
f 55 52 51
f 58 59 57
f 57 59 60
f 61 62 4
f 4 62 1
f 64 65 63
f 63 65 66
f 68 69 67
f 67 69 70
f 72 73 71
f 71 73 74
f 76 77 75
f 75 77 78
f 53 79 54
f 54 79 80
f 82 83 81
f 81 83 84
f 85 86 52
f 52 86 53
f 57 60 87
f 87 60 88
f 89 90 43
f 43 90 44
f 43 42 89
f 89 42 91
f 40 39 92
f 92 39 93
f 94 70 64
f 64 70 69
f 13 61 9
f 9 61 4
f 25 28 69
f 69 28 95
f 96 25 68
f 68 25 69
f 98 99 97
f 97 99 100
f 101 102 104
f 104 102 103
f 106 30 105
f 105 30 29
f 51 54 107
f 107 54 108
f 54 80 108
f 108 80 109
f 111 112 110
f 110 112 113
f 115 5 114
f 114 5 116
f 115 41 5
f 5 41 6
f 36 35 111
f 111 35 117
f 35 118 117
f 117 118 119
f 34 120 35
f 35 120 118
f 34 45 120
f 120 45 121
f 125 126 124
f 124 126 127
f 128 129 14
f 14 129 130
f 33 131 46
f 46 131 132
f 133 94 63
f 63 94 64
f 134 135 137
f 137 135 136
f 139 140 138
f 138 140 141
f 77 142 78
f 78 142 143
f 144 145 20
f 20 145 146
f 148 149 147
f 147 149 72
f 151 152 150
f 150 152 153
f 82 101 83
f 83 101 104
f 101 82 155
f 155 82 154
f 156 157 58
f 58 157 59
f 158 68 147
f 147 68 67
f 159 146 15
f 15 146 16
f 68 158 96
f 96 158 160
f 129 66 130
f 130 66 65
f 162 163 161
f 161 163 164
f 166 167 165
f 165 167 168
f 170 171 169
f 169 171 172
f 174 171 173
f 173 171 170
f 176 177 175
f 175 177 178
f 180 181 179
f 179 181 24
f 182 183 21
f 21 183 184
f 81 185 82
f 82 185 154
f 186 187 188
f 188 187 144
f 158 71 160
f 160 71 189
f 190 135 157
f 157 135 59
f 169 172 139
f 139 172 140
f 147 72 158
f 158 72 71
f 192 193 191
f 191 193 194
f 167 166 49
f 49 166 195
f 196 190 50
f 50 190 157
f 197 198 200
f 200 198 199
f 21 24 182
f 182 24 181
f 146 159 20
f 20 159 17
f 182 181 81
f 81 181 185
f 201 185 180
f 180 185 181
f 202 203 83
f 83 203 84
f 205 206 204
f 204 206 85
f 207 22 184
f 184 22 21
f 179 24 208
f 208 24 23
f 208 209 179
f 179 209 205
f 209 210 205
f 205 210 206
f 212 206 211
f 211 206 210
f 179 205 180
f 180 205 204
f 213 176 88
f 88 176 214
f 86 85 212
f 212 85 206
f 193 217 218
f 217 219 218
f 218 219 220
f 219 18 220
f 220 18 17
f 19 221 20
f 20 221 144
f 222 223 225
f 225 223 224
f 175 226 176
f 176 226 214
f 227 87 214
f 214 87 88
f 220 17 228
f 228 17 159
f 134 213 60
f 60 213 88
f 138 229 151
f 151 229 152
f 193 192 210
f 210 192 211
f 230 194 218
f 218 194 193
f 231 232 228
f 228 232 230
f 233 234 91
f 91 234 89
f 235 236 93
f 93 236 92
f 230 232 234
f 234 232 237
f 47 238 48
f 48 238 239
f 240 191 235
f 235 191 236
f 5 8 116
f 116 8 241
f 242 243 189
f 189 243 160
f 244 245 98
f 98 245 99
f 156 246 47
f 47 246 238
f 76 247 77
f 77 247 248
f 250 125 249
f 249 125 124
f 252 253 251
f 251 253 254
f 111 110 36
f 36 110 255
f 256 33 255
f 255 33 36
f 257 258 154
f 154 258 155
f 63 169 133
f 133 169 139
f 66 170 63
f 63 170 169
f 173 170 129
f 129 170 66
f 129 128 173
f 173 128 259
f 128 260 259
f 259 260 261
f 213 134 262
f 262 134 137
f 263 264 186
f 186 264 187
f 112 265 113
f 113 265 266
f 11 267 268
f 234 233 230
f 230 233 194
f 153 269 70
f 70 269 67
f 175 178 165
f 165 178 141
f 150 153 94
f 94 153 70
f 271 221 270
f 270 221 207
f 269 153 272
f 272 153 152
f 121 45 109
f 109 45 108
f 47 50 156
f 156 50 157
f 57 273 58
f 58 273 274
f 145 275 260
f 260 275 261
f 276 149 143
f 143 149 78
f 148 269 75
f 75 269 272
f 207 277 270
f 270 277 278
f 195 196 49
f 49 196 50
f 59 135 60
f 60 135 134
f 83 104 202
f 202 104 279
f 149 148 78
f 78 148 75
f 247 278 248
f 248 278 277
f 183 182 84
f 84 182 81
f 48 239 281
f 281 239 282
f 227 223 283
f 283 223 222
f 223 226 224
f 224 226 168
f 281 282 224
f 224 282 225
f 165 168 175
f 175 168 226
f 264 263 138
f 138 263 229
f 14 16 128
f 128 16 260
f 220 228 218
f 218 228 230
f 87 227 284
f 284 227 283
f 260 16 145
f 145 16 146
f 244 98 258
f 258 98 155
f 58 274 156
f 156 274 246
f 107 285 51
f 51 285 55
f 243 286 160
f 160 286 96
f 234 237 89
f 89 237 90
f 46 132 107
f 107 132 285
f 253 252 249
f 249 252 250
f 286 26 96
f 96 26 25
f 106 105 287
f 287 105 288
f 272 152 289
f 289 152 229
f 138 151 139
f 139 151 133
f 183 290 161
f 161 290 162
f 291 292 277
f 277 292 293
f 151 150 133
f 133 150 94
f 262 275 177
f 177 275 187
f 144 187 145
f 145 187 275
f 273 57 284
f 284 57 87
f 174 136 190
f 190 136 135
f 111 117 112
f 112 117 38
f 117 119 38
f 38 119 123
f 112 38 265
f 265 38 37
f 287 288 254
f 254 288 251
f 228 159 231
f 231 159 15
f 223 227 226
f 226 227 214
f 147 67 148
f 148 67 269
f 224 168 281
f 281 168 167
f 199 163 200
f 200 163 162
f 45 46 108
f 108 46 107
f 281 167 48
f 48 167 49
f 161 164 291
f 291 164 292
f 38 123 39
f 293 294 277
f 277 294 248
f 284 283 296
f 296 283 295
f 284 296 273
f 273 296 297
f 274 273 298
f 298 273 297
f 246 274 299
f 299 274 298
f 283 222 295
f 295 222 300
f 222 225 300
f 300 225 301
f 301 225 302
f 302 225 282
f 303 304 300
f 300 304 295
f 306 307 305
f 305 307 308
f 309 310 308
f 308 310 305
f 308 307 312
f 312 307 311
f 313 314 312
f 312 314 315
f 311 316 312
f 312 316 313
f 317 304 311
f 311 304 316
f 315 309 312
f 312 309 308
f 318 319 321
f 321 319 320
f 319 318 309
f 309 318 310
f 311 307 317
f 317 307 306
f 306 297 317
f 317 297 296
f 306 322 297
f 297 322 298
f 305 323 306
f 306 323 322
f 323 305 324
f 324 305 310
f 304 317 295
f 295 317 296
f 318 325 310
f 310 325 324
f 323 324 326
f 326 324 327
f 324 325 327
f 327 325 328
f 326 327 329
f 329 327 330
f 329 331 326
f 326 331 332
f 333 330 328
f 328 330 327
f 323 326 322
f 322 326 332
f 322 332 298
f 298 332 299
f 325 318 334
f 334 318 321
f 313 316 335
f 335 316 304
f 335 336 313
f 313 336 314
f 304 303 335
f 335 303 337
f 336 335 338
f 338 335 337
f 336 339 314
f 314 339 340
f 246 299 238
f 238 299 341
f 239 342 282
f 282 342 302
f 342 239 341
f 341 239 238
f 341 331 342
f 342 331 343
f 331 329 343
f 343 329 344
f 342 343 302
f 302 343 345
f 341 299 331
f 331 299 332
f 346 301 345
f 345 301 302
f 346 303 301
f 301 303 300
f 347 337 346
f 346 337 303
f 347 346 348
f 348 346 345
f 349 347 350
f 350 347 348
f 343 344 345
f 345 344 348
f 344 351 348
f 348 351 350
f 337 347 338
f 338 347 349
f 353 338 352
f 352 338 349
f 352 355 354
f 354 355 356
f 352 349 355
f 355 349 350
f 352 354 353
f 353 354 334
f 353 334 339
f 339 334 321
f 339 336 353
f 353 336 338
f 329 330 344
f 344 330 351
f 356 351 333
f 333 351 330
f 356 355 351
f 351 355 350
f 354 356 328
f 328 356 333
f 328 325 354
f 354 325 334
f 309 315 319
f 319 315 320
f 320 340 321
f 321 340 339
f 320 315 340
f 340 315 314
f 137 136 261
f 261 136 259
f 140 166 141
f 141 166 165
f 172 171 195
f 195 171 196
f 171 174 196
f 196 174 190
f 178 177 264
f 264 177 187
f 172 195 140
f 140 195 166
f 137 261 262
f 262 261 275
f 178 264 141
f 141 264 138
f 262 177 213
f 213 177 176
f 136 174 259
f 259 174 173
f 358 359 357
f 357 359 360
f 362 363 361
f 361 363 364
f 361 364 365
f 365 364 366
f 367 368 370
f 370 368 369
f 76 371 247
f 247 371 372
f 373 374 362
f 362 374 363
f 376 377 375
f 375 377 378
f 289 229 380
f 380 229 379
f 381 379 263
f 263 379 229
f 383 384 382
f 382 384 385
f 386 368 374
f 374 368 363
f 76 289 371
f 371 289 380
f 377 376 359
f 359 376 387
f 388 386 360
f 360 386 374
f 389 383 366
f 366 383 390
f 392 393 391
f 391 393 394
f 383 382 390
f 390 382 395
f 396 365 390
f 390 365 366
f 389 366 367
f 367 366 364
f 357 397 358
f 358 397 398
f 373 399 357
f 357 399 397
f 389 367 400
f 400 367 370
f 382 385 375
f 375 385 372
f 357 360 373
f 373 360 374
f 361 401 362
f 362 401 402
f 387 388 359
f 359 388 360
f 363 368 364
f 364 368 367
f 358 398 403
f 403 398 404
f 396 392 405
f 405 392 391
f 392 395 393
f 393 395 378
f 393 403 394
f 394 403 404
f 375 378 382
f 382 378 395
f 365 396 406
f 406 396 405
f 362 402 373
f 373 402 399
f 271 270 400
f 400 270 384
f 401 361 406
f 406 361 365
f 381 369 386
f 386 369 368
f 392 396 395
f 395 396 390
f 393 378 403
f 403 378 377
f 403 377 358
f 358 377 359
f 406 405 408
f 408 405 407
f 406 408 401
f 401 408 409
f 401 409 402
f 402 409 410
f 402 410 399
f 399 410 411
f 405 391 407
f 407 391 412
f 391 394 412
f 412 394 413
f 394 404 413
f 413 404 414
f 415 416 412
f 412 416 407
f 418 419 417
f 417 419 420
f 421 422 418
f 418 422 419
f 419 422 424
f 424 422 423
f 425 426 424
f 424 426 427
f 423 428 424
f 424 428 425
f 427 420 424
f 424 420 419
f 420 429 417
f 417 429 430
f 423 422 431
f 431 422 421
f 421 409 431
f 431 409 408
f 421 432 409
f 409 432 410
f 418 433 421
f 421 433 432
f 434 433 417
f 417 433 418
f 431 416 423
f 423 416 428
f 416 431 407
f 407 431 408
f 435 434 430
f 430 434 417
f 433 434 436
f 436 434 437
f 434 435 437
f 437 435 438
f 436 437 439
f 439 437 440
f 439 441 436
f 436 441 442
f 438 443 437
f 437 443 440
f 436 442 433
f 433 442 432
f 432 442 410
f 410 442 411
f 435 430 445
f 445 430 444
f 430 429 444
f 444 429 446
f 425 428 447
f 447 428 416
f 426 425 448
f 448 425 447
f 416 415 447
f 447 415 449
f 447 449 448
f 448 449 450
f 451 452 448
f 448 452 426
f 446 452 444
f 444 452 451
f 399 411 397
f 397 411 453
f 398 454 404
f 404 454 414
f 454 398 453
f 453 398 397
f 453 441 454
f 454 441 455
f 441 439 455
f 455 439 456
f 454 455 414
f 414 455 457
f 441 453 442
f 442 453 411
f 458 413 457
f 457 413 414
f 458 415 413
f 413 415 412
f 458 459 415
f 415 459 449
f 459 458 460
f 460 458 457
f 461 459 462
f 462 459 460
f 455 456 457
f 457 456 460
f 456 463 460
f 460 463 462
f 459 461 449
f 449 461 450
f 465 450 464
f 464 450 461
f 464 467 466
f 466 467 468
f 464 461 467
f 467 461 462
f 464 466 465
f 465 466 445
f 465 445 451
f 451 445 444
f 451 448 465
f 465 448 450
f 439 440 456
f 456 440 463
f 468 463 443
f 443 463 440
f 468 467 463
f 463 467 462
f 466 468 438
f 438 468 443
f 438 435 466
f 466 435 445
f 420 427 429
f 429 427 446
f 446 427 452
f 452 427 426
f 370 369 188
f 188 369 186
f 371 376 372
f 372 376 375
f 380 379 387
f 387 379 388
f 379 381 388
f 388 381 386
f 385 384 278
f 278 384 270
f 380 387 371
f 371 387 376
f 400 370 271
f 271 370 188
f 385 278 372
f 372 278 247
f 400 384 389
f 389 384 383
f 369 381 186
f 186 381 263
f 221 271 144
f 144 271 188
f 221 19 207
f 207 19 22
f 19 18 22
f 22 18 23
f 18 219 23
f 23 219 208
f 469 470 472
f 472 470 471
f 474 475 473
f 473 475 476
f 473 476 477
f 477 476 478
f 480 481 479
f 479 481 482
f 483 484 474
f 474 484 475
f 486 487 485
f 485 487 488
f 489 490 77
f 77 490 142
f 491 489 248
f 248 489 77
f 493 494 492
f 492 494 495
f 496 480 484
f 484 480 475
f 486 497 487
f 487 497 471
f 498 496 472
f 472 496 484
f 499 493 478
f 478 493 500
f 501 502 504
f 504 502 503
f 493 492 500
f 500 492 505
f 506 477 500
f 500 477 478
f 499 478 479
f 479 478 476
f 469 507 470
f 470 507 508
f 483 509 469
f 469 509 507
f 479 482 499
f 499 482 510
f 492 495 485
f 485 495 511
f 483 469 484
f 484 469 472
f 473 512 474
f 474 512 513
f 497 498 471
f 471 498 472
f 475 480 476
f 476 480 479
f 470 508 514
f 514 508 515
f 506 502 516
f 516 502 501
f 503 502 488
f 488 502 505
f 514 515 503
f 503 515 504
f 485 488 492
f 492 488 505
f 477 506 517
f 517 506 516
f 474 513 483
f 483 513 509
f 510 292 494
f 494 292 164
f 512 473 517
f 517 473 477
f 491 481 496
f 496 481 480
f 502 506 505
f 505 506 500
f 503 488 514
f 514 488 487
f 514 487 470
f 470 487 471
f 517 516 519
f 519 516 518
f 517 519 512
f 512 519 520
f 512 520 513
f 513 520 521
f 513 521 509
f 509 521 522
f 516 501 518
f 518 501 523
f 501 504 523
f 523 504 524
f 524 504 525
f 525 504 515
f 526 527 523
f 523 527 518
f 529 530 528
f 528 530 531
f 532 533 529
f 529 533 530
f 530 533 535
f 535 533 534
f 536 537 535
f 535 537 538
f 534 539 535
f 535 539 536
f 538 531 535
f 535 531 530
f 540 541 531
f 531 541 528
f 533 532 534
f 534 532 542
f 532 520 542
f 542 520 519
f 532 543 520
f 520 543 521
f 529 544 532
f 532 544 543
f 544 529 545
f 545 529 528
f 534 542 539
f 539 542 527
f 527 542 518
f 518 542 519
f 541 546 528
f 528 546 545
f 547 544 548
f 548 544 545
f 546 549 545
f 545 549 548
f 550 547 551
f 551 547 548
f 547 550 553
f 553 550 552
f 549 554 548
f 548 554 551
f 544 547 543
f 543 547 553
f 543 553 521
f 521 553 522
f 546 541 556
f 556 541 555
f 541 540 555
f 555 540 557
f 536 539 558
f 558 539 527
f 537 536 559
f 559 536 558
f 527 526 558
f 558 526 560
f 559 558 561
f 561 558 560
f 559 562 537
f 537 562 563
f 557 563 555
f 555 563 562
f 509 522 507
f 507 522 564
f 508 565 515
f 515 565 525
f 565 508 564
f 564 508 507
f 564 552 565
f 565 552 566
f 552 550 566
f 566 550 567
f 565 566 525
f 525 566 568
f 564 522 552
f 552 522 553
f 569 524 568
f 568 524 525
f 569 526 524
f 524 526 523
f 570 560 569
f 569 560 526
f 570 569 571
f 571 569 568
f 572 570 573
f 573 570 571
f 566 567 568
f 568 567 571
f 567 574 571
f 571 574 573
f 570 572 560
f 560 572 561
f 576 561 575
f 575 561 572
f 575 578 577
f 577 578 579
f 575 572 578
f 578 572 573
f 575 577 576
f 576 577 556
f 576 556 562
f 562 556 555
f 562 559 576
f 576 559 561
f 550 551 567
f 567 551 574
f 579 574 554
f 554 574 551
f 579 578 574
f 574 578 573
f 579 554 577
f 577 554 549
f 549 546 577
f 577 546 556
f 531 538 540
f 540 538 557
f 557 538 563
f 563 538 537
f 481 294 482
f 482 294 293
f 580 486 511
f 511 486 485
f 490 489 497
f 497 489 498
f 489 491 498
f 498 491 496
f 163 495 164
f 164 495 494
f 580 490 486
f 486 490 497
f 482 293 510
f 510 293 292
f 495 163 511
f 511 163 199
f 494 493 510
f 510 493 499
f 481 491 294
f 294 491 248
f 582 583 581
f 581 583 584
f 586 587 585
f 585 587 588
f 585 588 589
f 589 588 590
f 592 593 591
f 591 593 594
f 595 596 598
f 598 596 597
f 599 600 586
f 586 600 587
f 601 602 604
f 604 602 603
f 605 606 608
f 608 606 607
f 609 607 200
f 200 607 606
f 610 611 613
f 613 611 612
f 600 614 587
f 587 614 592
f 596 605 597
f 597 605 608
f 602 615 603
f 603 615 583
f 616 614 584
f 584 614 600
f 611 618 617
f 617 618 590
f 620 621 619
f 619 621 622
f 610 623 611
f 611 623 618
f 624 589 618
f 618 589 590
f 617 590 591
f 591 590 588
f 581 625 582
f 582 625 626
f 599 627 581
f 581 627 625
f 591 594 617
f 617 594 628
f 601 610 598
f 598 610 613
f 581 584 599
f 599 584 600
f 585 629 586
f 586 629 630
f 615 616 583
f 583 616 584
f 587 592 588
f 588 592 591
f 582 626 631
f 631 626 632
f 624 620 633
f 633 620 619
f 621 620 604
f 604 620 623
f 631 632 621
f 621 632 622
f 610 601 623
f 623 601 604
f 589 624 634
f 634 624 633
f 586 630 599
f 599 630 627
f 203 202 628
f 628 202 612
f 629 585 634
f 634 585 589
f 609 593 614
f 614 593 592
f 620 624 623
f 623 624 618
f 631 621 603
f 603 621 604
f 582 631 583
f 583 631 603
f 634 633 636
f 636 633 635
f 634 636 629
f 629 636 637
f 629 637 630
f 630 637 638
f 630 638 627
f 627 638 639
f 633 619 635
f 635 619 640
f 619 622 640
f 640 622 641
f 641 622 642
f 642 622 632
f 644 635 643
f 643 635 640
f 645 646 648
f 648 646 647
f 649 650 646
f 646 650 647
f 647 650 652
f 652 650 651
f 652 653 655
f 655 653 654
f 651 656 652
f 652 656 653
f 655 648 652
f 652 648 647
f 648 657 645
f 645 657 658
f 650 649 651
f 651 649 659
f 649 637 659
f 659 637 636
f 649 660 637
f 637 660 638
f 661 660 646
f 646 660 649
f 662 661 645
f 645 661 646
f 651 659 656
f 656 659 644
f 644 659 635
f 635 659 636
f 663 662 658
f 658 662 645
f 664 661 665
f 665 661 662
f 663 666 662
f 662 666 665
f 667 664 668
f 668 664 665
f 664 667 670
f 670 667 669
f 666 671 665
f 665 671 668
f 661 664 660
f 660 664 670
f 660 670 638
f 638 670 639
f 658 672 663
f 663 672 673
f 658 657 672
f 672 657 674
f 653 656 675
f 675 656 644
f 653 675 654
f 654 675 676
f 675 644 677
f 677 644 643
f 676 675 678
f 678 675 677
f 679 680 676
f 676 680 654
f 674 680 672
f 672 680 679
f 627 639 625
f 625 639 681
f 626 682 632
f 632 682 642
f 681 682 625
f 625 682 626
f 669 683 681
f 681 683 682
f 667 684 669
f 669 684 683
f 682 683 642
f 642 683 685
f 681 639 669
f 669 639 670
f 686 641 685
f 685 641 642
f 641 686 640
f 640 686 643
f 686 687 643
f 643 687 677
f 687 686 688
f 688 686 685
f 689 687 690
f 690 687 688
f 683 684 685
f 685 684 688
f 684 691 688
f 688 691 690
f 687 689 677
f 677 689 678
f 693 678 692
f 692 678 689
f 692 695 694
f 694 695 696
f 692 689 695
f 695 689 690
f 692 694 693
f 693 694 673
f 693 673 679
f 679 673 672
f 679 676 693
f 693 676 678
f 684 667 691
f 691 667 668
f 696 691 671
f 671 691 668
f 696 695 691
f 691 695 690
f 694 696 666
f 666 696 671
f 666 663 694
f 694 663 673
f 648 655 657
f 657 655 674
f 674 655 680
f 680 655 654
f 593 162 594
f 594 162 290
f 598 597 601
f 601 597 602
f 615 608 616
f 616 608 607
f 607 609 616
f 616 609 614
f 697 595 613
f 613 595 598
f 597 608 602
f 602 608 615
f 594 290 628
f 628 290 203
f 628 612 617
f 617 612 611
f 593 609 162
f 162 609 200
f 105 29 698
f 698 29 699
f 268 126 701
f 701 126 700
f 126 125 700
f 700 125 702
f 252 703 250
f 250 703 704
f 32 268 705
f 705 268 701
f 288 105 706
f 706 105 698
f 29 32 699
f 699 32 705
f 707 251 706
f 706 251 288
f 250 704 125
f 125 704 702
f 703 252 707
f 707 252 251
f 706 708 707
f 707 708 709
f 707 709 703
f 703 709 710
f 703 710 704
f 704 710 711
f 704 711 702
f 702 711 712
f 706 698 708
f 708 698 713
f 698 699 713
f 713 699 714
f 699 705 714
f 714 705 715
f 717 708 716
f 716 708 713
f 719 720 718
f 718 720 721
f 722 723 719
f 719 723 720
f 724 725 723
f 723 725 720
f 724 726 725
f 725 726 727
f 728 721 725
f 725 721 720
f 721 728 729
f 729 728 730
f 729 731 721
f 721 731 718
f 724 723 732
f 732 723 722
f 722 710 732
f 732 710 709
f 722 733 710
f 710 733 711
f 719 734 722
f 722 734 733
f 734 719 735
f 735 719 718
f 724 732 726
f 726 732 717
f 717 732 708
f 708 732 709
f 731 736 718
f 718 736 735
f 737 734 738
f 738 734 735
f 736 739 735
f 735 739 738
f 740 737 741
f 741 737 738
f 737 740 743
f 743 740 742
f 739 744 738
f 738 744 741
f 734 737 733
f 733 737 743
f 733 743 711
f 711 743 712
f 736 731 746
f 746 731 745
f 731 729 745
f 745 729 730
f 727 726 747
f 747 726 717
f 748 727 749
f 749 727 747
f 747 717 750
f 750 717 716
f 749 747 751
f 751 747 750
f 749 752 748
f 748 752 753
f 730 753 745
f 745 753 752
f 728 725 748
f 748 725 727
f 730 728 753
f 753 728 748
f 700 702 754
f 754 702 712
f 705 701 715
f 715 701 755
f 754 755 700
f 700 755 701
f 742 756 754
f 754 756 755
f 740 757 742
f 742 757 756
f 755 756 715
f 715 756 758
f 754 712 742
f 742 712 743
f 759 714 758
f 758 714 715
f 714 759 713
f 713 759 716
f 759 760 716
f 716 760 750
f 760 759 761
f 761 759 758
f 762 760 763
f 763 760 761
f 756 757 758
f 758 757 761
f 757 764 761
f 761 764 763
f 760 762 750
f 750 762 751
f 766 751 765
f 765 751 762
f 767 765 769
f 769 765 768
f 765 762 768
f 768 762 763
f 765 767 766
f 766 767 746
f 766 746 752
f 752 746 745
f 752 749 766
f 766 749 751
f 757 740 764
f 764 740 741
f 769 764 744
f 744 764 741
f 769 768 764
f 764 768 763
f 767 769 739
f 739 769 744
f 739 736 767
f 767 736 746
f 219 217 208
f 208 217 209
f 209 217 210
f 210 217 193
f 198 580 199
f 199 580 511
f 76 75 289
f 289 75 272
f 277 207 291
f 291 207 184
f 290 183 203
f 203 183 84
f 490 580 142
f 142 580 198
f 142 198 143
f 143 198 197
f 149 276 72
f 72 276 73
f 104 103 279
f 279 103 770
f 770 596 279
f 279 596 595
f 605 596 771
f 771 596 770
f 771 770 772
f 772 770 103
f 772 103 773
f 773 103 102
f 155 774 101
f 101 774 102
f 773 102 97
f 97 102 774
f 775 773 100
f 100 773 97
f 773 775 772
f 772 775 776
f 772 776 771
f 771 776 777
f 200 606 197
f 197 606 777
f 189 71 778
f 778 71 74
f 97 774 98
f 98 774 155
f 183 161 184
f 184 161 291
f 777 276 197
f 197 276 143
f 777 606 771
f 771 606 605
f 613 612 697
f 697 612 202
f 595 697 279
f 279 697 202
f 73 276 776
f 776 276 777
f 776 775 73
f 73 775 74
f 100 778 775
f 775 778 74
f 778 100 189
f 189 100 99
f 245 242 99
f 99 242 189
f 131 33 256
f 28 1 95
f 95 1 62
f 27 2 28
f 28 2 1
f 265 115 266
f 266 115 114
f 95 62 69
f 69 62 64
f 62 61 64
f 64 61 65
f 61 13 65
f 65 13 130
f 13 12 130
f 130 12 14
f 31 11 32
f 32 11 268
f 15 12 31
f 31 12 11
f 31 30 15
f 15 30 231
f 30 106 231
f 231 106 232
f 287 237 106
f 106 237 232
f 254 90 287
f 287 90 237
f 253 44 254
f 254 44 90
f 253 249 44
f 44 249 7
f 267 127 268
f 268 127 126
f 10 3 241
f 241 3 116
f 3 2 116
f 116 2 114
f 2 27 114
f 114 27 266
f 27 26 266
f 266 26 113
f 26 286 113
f 113 286 110
f 286 243 110
f 110 243 255
f 243 242 255
f 255 242 256
f 242 245 256
f 256 245 131
f 245 244 131
f 131 244 132
f 265 37 115
f 115 37 41
f 41 37 42
f 42 37 40
f 92 91 40
f 40 91 42
f 236 233 92
f 92 233 91
f 191 194 236
f 236 194 233
f 258 285 244
f 244 285 132
f 257 55 258
f 258 55 285
f 257 154 201
f 201 154 185
f 56 201 204
f 204 201 180
f 55 257 56
f 56 257 201
f 204 85 56
f 56 85 52
f 86 122 53
f 53 122 79
f 212 215 86
f 86 215 122
f 211 216 212
f 212 216 215
f 192 280 211
f 211 280 216
f 191 240 192
f 192 240 280
f 249 124 7
f 7 124 8
f 124 127 8
f 8 127 241
f 127 267 241
f 241 267 10
f 10 267 9
f 9 267 11
o hand_right
v 0.708304 0.098461 1.396791
v 0.710275 0.107908 1.394483
v 0.698655 0.108444 1.396978
v 0.697461 0.097885 1.398665
v 0.706708 0.130066 1.392748
v 0.703927 0.138288 1.383378
v 0.689219 0.135507 1.389059
v 0.694248 0.129963 1.396536
v 0.688699 0.097182 1.397758
v 0.690562 0.109020 1.398291
v 0.685003 0.098060 1.392378
v 0.686068 0.082710 1.388899
v 0.689098 0.085273 1.395714
v 0.687454 0.072718 1.389606
v 0.690093 0.082859 1.378071
v 0.692723 0.066231 1.383861
v 0.721069 0.074716 1.374311
v 0.734508 0.075283 1.377380
v 0.730646 0.059903 1.386563
v 0.717076 0.061446 1.383373
v 0.749347 0.068529 1.391702
v 0.738892 0.063146 1.389307
v 0.743182 0.077483 1.379165
v 0.752186 0.081716 1.381944
v 0.726236 0.101514 1.395759
v 0.729805 0.110351 1.392459
v 0.723022 0.108441 1.392319
v 0.720118 0.100605 1.395256
v 0.676070 0.108378 1.387068
v 0.682437 0.103226 1.377180
v 0.683154 0.098172 1.383814
v 0.678454 0.108121 1.391944
v 0.745376 0.135762 1.389267
v 0.748756 0.142707 1.378066
v 0.743390 0.142526 1.375668
v 0.741639 0.135582 1.386253
v 0.721619 0.141060 1.374723
v 0.727818 0.143075 1.367329
v 0.722967 0.143788 1.353896
v 0.716350 0.139403 1.358598
v 0.713203 0.139373 1.380192
v 0.708504 0.139536 1.366562
v 0.699690 0.138470 1.372126
v 0.684393 0.136088 1.380617
v 0.761241 0.141095 1.380934
v 0.760490 0.136214 1.389905
v 0.675316 0.069751 1.428161
v 0.680914 0.070541 1.430341
v 0.682004 0.070006 1.427153
v 0.676500 0.068959 1.425326
v 0.774271 0.125790 1.377699
v 0.775501 0.119253 1.370075
v 0.777791 0.125786 1.367679
v 0.774965 0.132331 1.373883
v 0.773291 0.117167 1.382744
v 0.771726 0.110540 1.373703
v 0.670208 0.059358 1.433659
v 0.669297 0.063752 1.430920
v 0.670495 0.060403 1.427115
v 0.672015 0.055429 1.429452
v 0.696151 0.087983 1.399609
v 0.705963 0.090293 1.400626
v 0.696667 0.072749 1.405628
v 0.700886 0.078217 1.403980
v 0.694572 0.078926 1.400121
v 0.692023 0.073511 1.401255
v 0.724175 0.082075 1.406974
v 0.726921 0.091796 1.401189
v 0.720377 0.090181 1.400375
v 0.715746 0.080108 1.406708
v 0.739745 0.094935 1.406541
v 0.736148 0.084846 1.411378
v 0.743950 0.087794 1.413709
v 0.744807 0.095017 1.410704
v 0.727451 0.067659 1.417173
v 0.725774 0.063454 1.418310
v 0.729000 0.065395 1.421032
v 0.730980 0.069085 1.418179
v 0.779923 0.131677 1.364275
v 0.774936 0.138302 1.369635
v 0.767575 0.078168 1.399857
v 0.772027 0.087605 1.404520
v 0.771525 0.076311 1.413018
v 0.767004 0.068237 1.405383
v 0.770660 0.113376 1.362970
v 0.775223 0.119269 1.360407
v 0.674560 0.056003 1.437004
v 0.676285 0.052382 1.433361
v 0.699811 0.130727 1.361803
v 0.682378 0.130072 1.372994
v 0.711484 0.131717 1.354777
v 0.719114 0.133091 1.349402
v 0.723726 0.137100 1.344012
v 0.705804 0.074895 1.407726
v 0.715057 0.093288 1.398786
v 0.731297 0.102540 1.397030
v 0.758085 0.106381 1.412386
v 0.759854 0.115519 1.407475
v 0.749528 0.112397 1.406610
v 0.750299 0.104677 1.410640
v 0.770495 0.093894 1.412143
v 0.763734 0.096266 1.416272
v 0.763202 0.088243 1.420173
v 0.769853 0.084096 1.417738
v 0.671376 0.112650 1.382573
v 0.681734 0.109112 1.371736
v 0.769312 0.132460 1.384350
v 0.768247 0.138080 1.378978
v 0.769492 0.143226 1.372290
v 0.736406 0.123154 1.391171
v 0.739013 0.135449 1.384323
v 0.734661 0.134672 1.383823
v 0.733424 0.121294 1.390103
v 0.714996 0.118289 1.393975
v 0.719395 0.130611 1.389017
v 0.703279 0.118867 1.397753
v 0.736771 0.143583 1.371435
v 0.745422 0.149929 1.368602
v 0.737817 0.149835 1.363963
v 0.754801 0.148863 1.371458
v 0.763359 0.146696 1.373044
v 0.780076 0.123921 1.355124
v 0.731155 0.148051 1.359010
v 0.685587 0.128672 1.398324
v 0.678974 0.126573 1.401083
v 0.681968 0.119538 1.401329
v 0.687626 0.120407 1.399177
v 0.687572 0.064499 1.393530
v 0.687987 0.070488 1.397825
v 0.688525 0.077859 1.394605
v 0.747697 0.127532 1.397053
v 0.760426 0.128339 1.397428
v 0.700682 0.069925 1.409572
v 0.675132 0.053716 1.423774
v 0.673137 0.059039 1.421378
v 0.683286 0.060678 1.403510
v 0.685266 0.054080 1.405617
v 0.701886 0.062661 1.413805
v 0.699159 0.068893 1.411311
v 0.698399 0.068174 1.412686
v 0.700669 0.063895 1.417366
v 0.737700 0.068898 1.422565
v 0.738945 0.072602 1.419823
v 0.712996 0.051573 1.396120
v 0.701100 0.051573 1.388328
v 0.703866 0.062869 1.380198
v 0.731185 0.084072 1.408764
v 0.729486 0.075468 1.414088
v 0.733447 0.076300 1.415216
v 0.707951 0.071617 1.410214
v 0.704837 0.066471 1.412423
v 0.709601 0.066757 1.412127
v 0.713012 0.072647 1.410602
v 0.773305 0.098115 1.396056
v 0.771807 0.105222 1.405301
v 0.671219 0.067350 1.428692
v 0.672249 0.065408 1.425287
v 0.733715 0.093583 1.403076
v 0.708555 0.076514 1.373762
v 0.736414 0.103796 1.398852
v 0.750415 0.059491 1.412263
v 0.750876 0.064263 1.419567
v 0.747959 0.062896 1.423750
v 0.746673 0.057926 1.420539
v 0.692259 0.062776 1.430102
v 0.689667 0.067821 1.428218
v 0.687023 0.067867 1.430339
v 0.689397 0.063187 1.433318
v 0.695379 0.071521 1.407597
v 0.690713 0.071445 1.403717
v 0.689032 0.071122 1.406976
v 0.694055 0.070406 1.410538
v 0.687049 0.067717 1.400131
v 0.684925 0.066953 1.403871
v 0.691103 0.056291 1.431071
v 0.685590 0.051008 1.430187
v 0.696414 0.050736 1.414160
v 0.699301 0.056506 1.418879
v 0.755463 0.092899 1.371794
v 0.764649 0.096706 1.376992
v 0.761822 0.085467 1.387094
v 0.760078 0.073184 1.396630
v 0.756665 0.062128 1.405630
v 0.747348 0.056884 1.399669
v 0.768245 0.089769 1.390237
v 0.708390 0.056084 1.407917
v 0.703959 0.051066 1.403602
v 0.710128 0.052221 1.403518
v 0.742425 0.105651 1.402960
v 0.674538 0.064565 1.420367
v 0.733627 0.117866 1.342555
v 0.745946 0.113809 1.344506
v 0.741141 0.108186 1.349357
v 0.727394 0.113190 1.347822
v 0.684310 0.070566 1.424764
v 0.678616 0.069603 1.421415
v 0.744687 0.073272 1.423253
v 0.742685 0.069192 1.425413
v 0.745505 0.067779 1.426618
v 0.748773 0.071857 1.427051
v 0.769033 0.100223 1.379221
v 0.767952 0.071595 1.421282
v 0.764182 0.064207 1.413344
v 0.766803 0.106163 1.367979
v 0.759169 0.102558 1.362944
v 0.762418 0.109490 1.356799
v 0.733198 0.052510 1.401472
v 0.747813 0.089180 1.369835
v 0.752134 0.100096 1.361022
v 0.755691 0.108274 1.353588
v 0.759102 0.113713 1.348159
v 0.766074 0.114584 1.352326
v 0.679844 0.051022 1.427653
v 0.682682 0.052749 1.436360
v 0.771106 0.119305 1.346349
v 0.762764 0.118591 1.342294
v 0.743346 0.098539 1.358696
v 0.732261 0.097910 1.356786
v 0.739412 0.088188 1.367494
v 0.727998 0.086537 1.366118
v 0.726293 0.048156 1.393632
v 0.682043 0.065610 1.448285
v 0.685659 0.059590 1.440208
v 0.687684 0.064209 1.437108
v 0.684944 0.068287 1.446393
v 0.688145 0.057718 1.435584
v 0.681029 0.056259 1.440023
v 0.712949 0.089762 1.365565
v 0.707654 0.062216 1.412845
v 0.715940 0.104613 1.356751
v 0.694474 0.092895 1.368642
v 0.696844 0.105625 1.363519
v 0.717464 0.120447 1.348560
v 0.703468 0.118942 1.356025
v 0.728771 0.129009 1.339323
v 0.724227 0.123625 1.344092
v 0.688410 0.119836 1.364497
v 0.676689 0.075577 1.436209
v 0.682298 0.074723 1.438099
v 0.737702 0.122893 1.337323
v 0.694028 0.119353 1.398871
v 0.742311 0.115581 1.398553
v 0.737775 0.113500 1.395646
v 0.760271 0.120749 1.403777
v 0.748595 0.119026 1.402300
v 0.671561 0.073697 1.436560
v 0.726690 0.060851 1.419188
v 0.727896 0.062396 1.419293
v 0.680936 0.133876 1.393466
v 0.675146 0.131434 1.396705
v 0.667650 0.126181 1.387102
v 0.669889 0.130983 1.392109
v 0.676126 0.133985 1.386279
v 0.673703 0.129100 1.380559
v 0.738701 0.124287 1.392468
v 0.742066 0.125086 1.394509
v 0.773586 0.108400 1.389218
v 0.771599 0.114729 1.398766
v 0.687049 0.061678 1.397903
v 0.692220 0.056985 1.391403
v 0.690477 0.055169 1.397923
v 0.691267 0.050290 1.407783
v 0.706760 0.059410 1.412146
v 0.703618 0.057052 1.412264
v 0.727362 0.132192 1.386642
v 0.726003 0.118922 1.390913
v 0.685937 0.111042 1.397312
v 0.681630 0.112008 1.397916
v 0.720825 0.074796 1.411047
v 0.726795 0.051291 1.411342
v 0.720728 0.048411 1.404555
v 0.718137 0.067083 1.414109
v 0.668908 0.068082 1.442227
v 0.669267 0.071529 1.438661
v 0.696158 0.051028 1.399298
v 0.740886 0.079326 1.418097
v 0.732349 0.053938 1.410560
v 0.728308 0.055172 1.416976
v 0.767729 0.080135 1.422086
v 0.749754 0.119793 1.339046
v 0.686244 0.068826 1.433931
v 0.685956 0.072306 1.441020
v 0.678202 0.063617 1.448036
v 0.672664 0.063831 1.445244
v 0.769571 0.123594 1.392428
v 0.734513 0.111770 1.394081
v 0.676472 0.120381 1.373661
v 0.668709 0.119747 1.383036
v 0.716958 0.063058 1.414354
v 0.756078 0.062518 1.414779
v 0.743464 0.054113 1.409175
v 0.739684 0.052674 1.418605
v 0.732081 0.053443 1.418971
v 0.727448 0.058264 1.420756
v 0.678103 0.068146 1.452015
v 0.672339 0.068713 1.449646
v 0.668997 0.072985 1.446324
v 0.669409 0.075645 1.442296
v 0.672364 0.076698 1.439155
v 0.682230 0.070108 1.451831
v 0.684751 0.072319 1.449546
v 0.685743 0.074209 1.443458
v 0.683266 0.074397 1.453571
v 0.678850 0.075505 1.456261
v 0.671248 0.086389 1.451814
v 0.670187 0.080457 1.451371
v 0.671470 0.081712 1.453562
v 0.672567 0.086478 1.454810
v 0.674208 0.090705 1.457391
v 0.672825 0.091381 1.454178
v 0.673774 0.077780 1.454799
v 0.675696 0.083923 1.457098
v 0.679596 0.082544 1.458118
v 0.680463 0.087472 1.460578
v 0.676941 0.088833 1.459923
v 0.677889 0.078393 1.456767
v 0.673040 0.075391 1.454190
v 0.675477 0.094077 1.456917
v 0.675486 0.092761 1.459093
v 0.678083 0.091599 1.460876
v 0.679477 0.094236 1.460069
v 0.670090 0.080142 1.445256
v 0.671753 0.087336 1.449424
v 0.674853 0.092022 1.451835
v 0.677320 0.094550 1.454804
v 0.675246 0.088644 1.447678
v 0.677462 0.091916 1.450416
v 0.679999 0.093851 1.452919
v 0.679523 0.088858 1.447031
v 0.680642 0.091502 1.449986
v 0.677002 0.079704 1.440414
v 0.672833 0.079435 1.441113
v 0.681633 0.093246 1.451629
v 0.681144 0.094625 1.458632
v 0.682546 0.080508 1.457173
v 0.683447 0.087186 1.459292
v 0.684528 0.080681 1.455807
v 0.685588 0.087081 1.458252
v 0.683192 0.091207 1.461226
v 0.680761 0.090309 1.461334
v 0.677423 0.076740 1.438061
v 0.683066 0.075630 1.440048
v 0.682865 0.077988 1.441943
v 0.684049 0.087293 1.447896
v 0.685794 0.076831 1.445160
v 0.685606 0.076345 1.451107
v 0.686252 0.082447 1.454080
v 0.686731 0.084442 1.451264
v 0.686513 0.087503 1.455863
v 0.686162 0.088445 1.453477
v 0.684110 0.090502 1.450878
v 0.685546 0.091372 1.456637
v 0.684658 0.091349 1.459499
v 0.682806 0.093870 1.455731
v 0.685692 0.090968 1.454707
v 0.683382 0.092515 1.453494
v 0.705090 0.067367 1.439467
v 0.711242 0.068503 1.440814
v 0.711283 0.065799 1.437298
v 0.706037 0.064867 1.436201
v 0.701273 0.055305 1.445837
v 0.699933 0.060703 1.442527
v 0.700452 0.056657 1.438657
v 0.703300 0.050827 1.441707
v 0.707633 0.052190 1.448419
v 0.709834 0.048522 1.443636
v 0.704781 0.048544 1.436004
v 0.701868 0.054597 1.433377
v 0.707516 0.054955 1.413601
v 0.710664 0.049208 1.414163
v 0.721999 0.064098 1.419166
v 0.724433 0.061943 1.420717
v 0.702021 0.064884 1.440310
v 0.702415 0.061511 1.436791
v 0.720374 0.062651 1.437473
v 0.716305 0.065884 1.435472
v 0.715978 0.065835 1.438864
v 0.719388 0.062418 1.441564
v 0.710037 0.062765 1.414586
v 0.716223 0.063152 1.416710
v 0.707880 0.059686 1.413877
v 0.721629 0.056400 1.439600
v 0.719151 0.049990 1.440313
v 0.724214 0.048818 1.420392
v 0.726637 0.054142 1.422567
v 0.702483 0.059877 1.432380
v 0.710601 0.066317 1.434065
v 0.705725 0.064589 1.432531
v 0.711998 0.046960 1.437615
v 0.716981 0.051993 1.446032
v 0.715508 0.067838 1.458296
v 0.718316 0.060456 1.449228
v 0.718441 0.064794 1.446227
v 0.716783 0.072292 1.455738
v 0.719838 0.057570 1.444491
v 0.714820 0.055717 1.450357
v 0.704874 0.077637 1.449908
v 0.711069 0.078162 1.450983
v 0.701037 0.075371 1.451069
v 0.717219 0.046965 1.416131
v 0.699987 0.065759 1.455439
v 0.699220 0.071650 1.452448
v 0.716171 0.067885 1.442782
v 0.715280 0.076392 1.453107
v 0.712479 0.064407 1.459468
v 0.705699 0.061838 1.457487
v 0.711741 0.068566 1.463127
v 0.705114 0.067654 1.462307
v 0.699428 0.071858 1.459694
v 0.699222 0.076613 1.455732
v 0.701315 0.078953 1.453389
v 0.715152 0.071581 1.461646
v 0.716468 0.075553 1.458632
v 0.714532 0.078395 1.454316
v 0.715833 0.077101 1.464201
v 0.712613 0.075510 1.467043
v 0.703351 0.092212 1.468463
v 0.701959 0.086652 1.466378
v 0.703593 0.085741 1.468332
v 0.704748 0.090750 1.470480
v 0.701054 0.080126 1.465777
v 0.703104 0.080975 1.467437
v 0.706745 0.078041 1.468103
v 0.707828 0.083993 1.469981
v 0.712552 0.082579 1.469334
v 0.713507 0.087547 1.472102
v 0.708942 0.089122 1.472973
v 0.710703 0.078510 1.468484
v 0.706397 0.093525 1.472179
v 0.706791 0.095909 1.471065
v 0.705662 0.074729 1.467246
v 0.699665 0.080406 1.459451
v 0.701914 0.088413 1.463802
v 0.704414 0.094191 1.466071
v 0.708884 0.097178 1.469201
v 0.704571 0.090444 1.461103
v 0.706915 0.095123 1.464201
v 0.710668 0.096972 1.467067
v 0.708786 0.091396 1.458943
v 0.710923 0.095327 1.462699
v 0.705980 0.082599 1.453223
v 0.701880 0.082022 1.455379
v 0.711790 0.096284 1.465007
v 0.710850 0.095032 1.473743
v 0.712568 0.096676 1.471317
v 0.710042 0.093273 1.473961
v 0.714551 0.082232 1.468647
v 0.715369 0.088264 1.471083
v 0.716718 0.083245 1.467052
v 0.717154 0.089562 1.469993
v 0.714946 0.092505 1.473189
v 0.713473 0.091825 1.473851
v 0.705167 0.080056 1.451775
v 0.710781 0.079622 1.452183
v 0.711563 0.081601 1.453028
v 0.713951 0.089956 1.459170
v 0.715471 0.079733 1.455409
v 0.716954 0.078594 1.460995
v 0.717757 0.084334 1.464606
v 0.717216 0.087192 1.461704
v 0.718384 0.090190 1.468252
v 0.717761 0.090653 1.464990
v 0.714724 0.093694 1.462654
v 0.717135 0.094199 1.470131
v 0.716069 0.093493 1.472177
v 0.713468 0.096684 1.469212
v 0.717171 0.093796 1.467151
v 0.714272 0.095908 1.466145
v 0.725803 0.070730 1.444348
v 0.731512 0.071174 1.445239
v 0.732095 0.069691 1.441942
v 0.726533 0.068767 1.441164
v 0.721679 0.059383 1.448767
v 0.720417 0.063884 1.447102
v 0.721128 0.061373 1.443167
v 0.722700 0.056166 1.443718
v 0.725906 0.057393 1.452163
v 0.727641 0.053008 1.445604
v 0.723927 0.053930 1.438629
v 0.721983 0.059651 1.439104
v 0.726279 0.058818 1.424923
v 0.729059 0.052939 1.425377
v 0.722367 0.067866 1.445391
v 0.723002 0.065861 1.442080
v 0.739779 0.066009 1.442764
v 0.736438 0.069417 1.441267
v 0.736748 0.067966 1.444108
v 0.738810 0.064525 1.446139
v 0.730513 0.068047 1.423961
v 0.736404 0.068703 1.424960
v 0.727230 0.064529 1.424763
v 0.740177 0.059464 1.443809
v 0.736784 0.053067 1.442705
v 0.742817 0.055056 1.429337
v 0.744785 0.060843 1.429706
v 0.723100 0.064680 1.438895
v 0.731666 0.070728 1.439196
v 0.726308 0.069167 1.438519
v 0.729837 0.051699 1.439911
v 0.734289 0.054374 1.448108
v 0.733031 0.068176 1.465870
v 0.736909 0.060718 1.452072
v 0.737848 0.066068 1.449638
v 0.735019 0.071743 1.464121
v 0.738418 0.059255 1.448453
v 0.732423 0.057164 1.452985
v 0.724831 0.079239 1.458067
v 0.730326 0.078423 1.458679
v 0.721433 0.076516 1.458114
v 0.735814 0.050837 1.426879
v 0.743243 0.066796 1.428284
v 0.719421 0.070530 1.462052
v 0.719580 0.074100 1.459614
v 0.736042 0.069175 1.447272
v 0.734436 0.075627 1.461402
v 0.728872 0.065693 1.465785
v 0.722972 0.066001 1.463885
v 0.729468 0.069031 1.470369
v 0.723612 0.069990 1.469010
v 0.720061 0.074257 1.467615
v 0.720384 0.077635 1.464862
v 0.722207 0.079841 1.462890
v 0.733617 0.071260 1.469909
v 0.735158 0.074211 1.467816
v 0.734067 0.076501 1.463245
v 0.734911 0.074196 1.472439
v 0.730439 0.073492 1.475561
v 0.725161 0.088467 1.480435
v 0.723583 0.084598 1.476503
v 0.724231 0.083816 1.477258
v 0.725638 0.087260 1.481572
v 0.721935 0.078671 1.473616
v 0.723135 0.079331 1.475211
v 0.725558 0.076252 1.475897
v 0.727603 0.080776 1.480001
v 0.733205 0.079002 1.478682
v 0.733780 0.082703 1.481926
v 0.728745 0.084313 1.483738
v 0.729988 0.075226 1.476427
v 0.727299 0.088638 1.483881
v 0.726312 0.090326 1.484042
v 0.724760 0.074350 1.474575
v 0.720822 0.081269 1.469551
v 0.723259 0.086692 1.474505
v 0.724802 0.090939 1.478359
v 0.727677 0.092469 1.481341
v 0.725662 0.088336 1.472032
v 0.727012 0.091655 1.476138
v 0.729460 0.093086 1.478919
v 0.728561 0.088696 1.470565
v 0.729840 0.091435 1.474490
v 0.726056 0.082292 1.463390
v 0.722806 0.082276 1.466033
v 0.730940 0.092521 1.477240
v 0.730516 0.088717 1.485819
v 0.732827 0.091191 1.483292
v 0.729952 0.087338 1.484939
v 0.734687 0.078365 1.477763
v 0.736108 0.083161 1.481803
v 0.736648 0.079235 1.475891
v 0.737941 0.084096 1.479933
v 0.734820 0.086008 1.484475
v 0.733713 0.085562 1.484351
v 0.725729 0.080313 1.460999
v 0.730625 0.079196 1.461069
v 0.730705 0.081001 1.462930
v 0.733114 0.087828 1.470373
v 0.734271 0.078332 1.464689
v 0.736131 0.077022 1.470287
v 0.737221 0.081674 1.473747
v 0.736304 0.084922 1.472032
v 0.738256 0.085790 1.477697
v 0.736924 0.087083 1.475506
v 0.733856 0.090651 1.474070
v 0.736644 0.088653 1.480098
v 0.736485 0.087371 1.482733
v 0.733591 0.092057 1.480366
v 0.736302 0.089485 1.477793
v 0.733896 0.091992 1.477890
v 0.740645 0.068546 1.426627
v 0.743164 0.076236 1.446079
v 0.747155 0.077313 1.447416
v 0.747870 0.076536 1.446742
v 0.744137 0.075727 1.444321
v 0.741120 0.065056 1.446914
v 0.739477 0.069504 1.446195
v 0.740624 0.067494 1.442635
v 0.742530 0.063240 1.443025
v 0.745665 0.062694 1.448622
v 0.747506 0.061449 1.445316
v 0.744470 0.063191 1.439689
v 0.742232 0.067350 1.439260
v 0.748618 0.067028 1.424615
v 0.752778 0.063452 1.423317
v 0.765050 0.077838 1.427984
v 0.760782 0.081498 1.426613
v 0.759379 0.078752 1.435022
v 0.763008 0.075512 1.434904
v 0.740568 0.073316 1.445823
v 0.741286 0.072490 1.442802
v 0.756757 0.072440 1.448494
v 0.753473 0.075971 1.447331
v 0.751760 0.076158 1.448550
v 0.755162 0.073601 1.450844
v 0.755452 0.080780 1.426439
v 0.751650 0.077105 1.425775
v 0.751078 0.077477 1.430046
v 0.754529 0.078929 1.434213
v 0.748312 0.072979 1.428511
v 0.757238 0.067959 1.448015
v 0.754781 0.062802 1.445694
v 0.764834 0.066489 1.429938
v 0.765231 0.071076 1.432325
v 0.742270 0.071478 1.441151
v 0.749187 0.076820 1.445049
v 0.745336 0.075305 1.443826
v 0.749565 0.060922 1.441562
v 0.752665 0.063888 1.449098
v 0.751787 0.072381 1.459328
v 0.754605 0.069556 1.453225
v 0.754467 0.074251 1.451914
v 0.752489 0.075382 1.457921
v 0.755410 0.069028 1.451152
v 0.751014 0.065204 1.452476
v 0.742123 0.079593 1.451340
v 0.747334 0.079759 1.453051
v 0.739374 0.077568 1.451288
v 0.759024 0.063083 1.424813
v 0.738390 0.070691 1.454209
v 0.737756 0.074835 1.452667
v 0.750912 0.076722 1.449587
v 0.750997 0.078275 1.455546
v 0.748333 0.068986 1.459389
v 0.742825 0.067316 1.456500
v 0.746512 0.071874 1.462727
v 0.741166 0.070755 1.459989
v 0.737378 0.075188 1.456889
v 0.738161 0.077917 1.454185
v 0.740136 0.079959 1.452731
v 0.750698 0.074644 1.461826
v 0.751833 0.076850 1.459912
v 0.750791 0.079032 1.456664
v 0.749690 0.077244 1.464502
v 0.745075 0.077417 1.465821
v 0.740879 0.090018 1.463786
v 0.739875 0.086619 1.461479
v 0.740035 0.086030 1.462518
v 0.740427 0.089542 1.464667
v 0.738396 0.081359 1.460061
v 0.739169 0.082023 1.461627
v 0.740602 0.078954 1.463241
v 0.741406 0.083643 1.465866
v 0.746225 0.082421 1.468047
v 0.746243 0.086164 1.469834
v 0.741844 0.086795 1.467998
v 0.743981 0.078907 1.466076
v 0.740833 0.091116 1.466949
v 0.741053 0.092530 1.466897
v 0.739928 0.076617 1.462675
v 0.739164 0.082669 1.456247
v 0.740640 0.088556 1.459888
v 0.741637 0.092340 1.463274
v 0.743012 0.093858 1.466586
v 0.742494 0.088756 1.458210
v 0.743455 0.093179 1.462121
v 0.744850 0.094463 1.465321
v 0.745737 0.088597 1.457379
v 0.745905 0.092561 1.461451
v 0.745177 0.083391 1.453625
v 0.741718 0.083571 1.454315
v 0.746122 0.093692 1.464334
v 0.743071 0.091371 1.470083
v 0.745286 0.093015 1.468906
v 0.742492 0.089834 1.470035
v 0.747585 0.082121 1.468071
v 0.747778 0.086715 1.470165
v 0.749873 0.082407 1.467213
v 0.749480 0.087661 1.469206
v 0.746230 0.089787 1.471017
v 0.744899 0.088474 1.470621
v 0.743776 0.081630 1.452621
v 0.747359 0.080775 1.453824
v 0.748843 0.082114 1.455201
v 0.749427 0.087174 1.458696
v 0.751667 0.079902 1.458455
v 0.751644 0.078168 1.462063
v 0.751460 0.083524 1.465270
v 0.751823 0.085266 1.462345
v 0.750381 0.088912 1.467665
v 0.750679 0.089954 1.464830
v 0.749006 0.091403 1.462299
v 0.748249 0.092013 1.468228
v 0.747543 0.091384 1.469864
v 0.746661 0.093475 1.467414
v 0.748814 0.092291 1.466406
v 0.747744 0.093095 1.465401
v 0.765831 0.073780 1.428069
v 0.662651 0.110260 1.394768
v 0.667478 0.108155 1.397194
v 0.672096 0.119157 1.408803
v 0.672735 0.112437 1.406330
v 0.667762 0.124686 1.408264
v 0.659362 0.126546 1.401335
v 0.664011 0.127337 1.404659
v 0.671129 0.108623 1.401901
v 0.658998 0.115109 1.393873
v 0.657377 0.122067 1.396076
v 0.652499 0.108429 1.399361
v 0.650108 0.116591 1.402791
v 0.651890 0.121290 1.408291
v 0.659725 0.123452 1.410499
v 0.664487 0.122453 1.412374
v 0.660671 0.106196 1.399140
v 0.665858 0.105463 1.400915
v 0.670222 0.107919 1.405468
v 0.661831 0.101201 1.405039
v 0.657921 0.100285 1.413719
v 0.659551 0.107517 1.432515
v 0.658925 0.111300 1.426560
v 0.657786 0.108923 1.425926
v 0.658083 0.105772 1.431538
v 0.656222 0.112199 1.421196
v 0.656650 0.109897 1.421462
v 0.656174 0.106197 1.417636
v 0.657045 0.103308 1.423180
v 0.658334 0.101665 1.416423
v 0.660077 0.099125 1.419978
v 0.657691 0.100321 1.428315
v 0.657602 0.102376 1.433848
v 0.658348 0.097974 1.432594
v 0.659928 0.103088 1.435693
v 0.652234 0.106091 1.415932
v 0.658451 0.117941 1.418756
v 0.661171 0.113887 1.426297
v 0.662786 0.109135 1.432680
v 0.663086 0.103711 1.435712
v 0.665309 0.114421 1.425709
v 0.666510 0.109296 1.430752
v 0.666910 0.103979 1.432919
v 0.669329 0.112360 1.423881
v 0.669076 0.107433 1.428359
v 0.669462 0.117479 1.414351
v 0.664248 0.120176 1.416723
v 0.668275 0.104094 1.430520
v 0.660207 0.097047 1.434480
v 0.663613 0.097738 1.434215
v 0.661860 0.097563 1.417607
v 0.660362 0.096083 1.424662
v 0.662796 0.095165 1.423635
v 0.664996 0.097514 1.415266
v 0.665447 0.095103 1.422986
v 0.662003 0.094253 1.429322
v 0.659671 0.095574 1.428851
v 0.669584 0.118771 1.412098
v 0.671440 0.113180 1.409137
v 0.671405 0.112409 1.410629
v 0.671746 0.107553 1.419876
v 0.671025 0.106829 1.407890
v 0.666891 0.102835 1.405571
v 0.668464 0.098690 1.415155
v 0.671200 0.102298 1.416539
v 0.668279 0.097174 1.422975
v 0.669706 0.099806 1.423431
v 0.670427 0.103842 1.426072
v 0.667398 0.097087 1.428235
v 0.664985 0.094712 1.428848
v 0.666991 0.099534 1.431874
v 0.668570 0.099202 1.427113
v 0.668591 0.101377 1.429399
v 0.761675 0.084628 1.422680
v 0.754893 0.084046 1.422456
v 0.756746 0.088948 1.419972
v 0.757355 0.097301 1.416754
v 0.764040 0.104044 1.412355
v 0.750697 0.096309 1.414430
v 0.750312 0.087705 1.418153
v 0.747704 0.080233 1.421571
v 0.745553 0.101860 1.407512
f 780 781 779
f 779 781 782
f 783 784 786
f 786 784 785
f 787 782 788
f 788 782 781
f 790 791 789
f 789 791 787
f 792 790 794
f 794 790 793
f 796 797 795
f 795 797 798
f 800 801 799
f 799 801 802
f 804 805 803
f 803 805 806
f 808 809 807
f 807 809 810
f 811 812 814
f 814 812 813
f 815 816 818
f 818 816 817
f 819 820 784
f 784 820 821
f 784 821 785
f 785 821 822
f 823 812 824
f 824 812 811
f 826 827 825
f 825 827 828
f 830 831 829
f 829 831 832
f 834 830 833
f 833 830 829
f 836 837 835
f 835 837 838
f 839 840 782
f 782 840 779
f 842 843 841
f 841 843 844
f 846 847 845
f 845 847 848
f 850 851 849
f 849 851 852
f 854 855 853
f 853 855 856
f 831 857 832
f 832 857 858
f 860 861 859
f 859 861 862
f 863 864 830
f 830 864 831
f 835 838 865
f 865 838 866
f 867 868 821
f 821 868 822
f 821 820 867
f 867 820 869
f 818 817 870
f 870 817 871
f 872 848 842
f 842 848 847
f 791 839 787
f 787 839 782
f 803 806 847
f 847 806 873
f 874 803 846
f 846 803 847
f 876 877 875
f 875 877 878
f 879 880 882
f 882 880 881
f 884 808 883
f 883 808 807
f 829 832 885
f 885 832 886
f 832 858 886
f 886 858 887
f 889 890 888
f 888 890 891
f 893 783 892
f 892 783 894
f 893 819 783
f 783 819 784
f 814 813 889
f 889 813 895
f 813 896 895
f 895 896 897
f 812 898 813
f 813 898 896
f 812 823 898
f 898 823 899
f 903 904 902
f 902 904 905
f 906 907 792
f 792 907 908
f 811 909 824
f 824 909 910
f 911 872 841
f 841 872 842
f 912 913 915
f 915 913 914
f 917 918 916
f 916 918 919
f 855 920 856
f 856 920 921
f 922 923 798
f 798 923 924
f 926 927 925
f 925 927 850
f 929 930 928
f 928 930 931
f 860 879 861
f 861 879 882
f 879 860 933
f 933 860 932
f 934 935 836
f 836 935 837
f 936 846 925
f 925 846 845
f 937 924 793
f 793 924 794
f 846 936 874
f 874 936 938
f 907 844 908
f 908 844 843
f 940 941 939
f 939 941 942
f 944 945 943
f 943 945 946
f 948 949 947
f 947 949 950
f 952 949 951
f 951 949 948
f 954 955 953
f 953 955 956
f 958 959 957
f 957 959 802
f 960 961 799
f 799 961 962
f 859 963 860
f 860 963 932
f 964 965 966
f 966 965 922
f 936 849 938
f 938 849 967
f 968 913 935
f 935 913 837
f 947 950 917
f 917 950 918
f 925 850 936
f 936 850 849
f 970 971 969
f 969 971 972
f 945 944 827
f 827 944 973
f 974 968 828
f 828 968 935
f 975 976 978
f 978 976 977
f 799 802 960
f 960 802 959
f 924 937 798
f 798 937 795
f 960 959 859
f 859 959 963
f 979 963 958
f 958 963 959
f 980 981 861
f 861 981 862
f 983 984 982
f 982 984 863
f 985 800 962
f 962 800 799
f 957 802 986
f 986 802 801
f 986 987 957
f 957 987 983
f 987 988 983
f 983 988 984
f 990 984 989
f 989 984 988
f 957 983 958
f 958 983 982
f 991 954 866
f 866 954 992
f 864 863 990
f 990 863 984
f 971 995 996
f 995 997 996
f 996 997 998
f 997 796 998
f 998 796 795
f 797 999 798
f 798 999 922
f 1000 1001 1003
f 1003 1001 1002
f 953 1004 954
f 954 1004 992
f 1005 865 992
f 992 865 866
f 998 795 1006
f 1006 795 937
f 912 991 838
f 838 991 866
f 916 1007 929
f 929 1007 930
f 971 970 988
f 988 970 989
f 1008 972 996
f 996 972 971
f 1009 1010 1006
f 1006 1010 1008
f 1011 1012 869
f 869 1012 867
f 1013 1014 871
f 871 1014 870
f 1008 1010 1012
f 1012 1010 1015
f 825 1016 826
f 826 1016 1017
f 1018 969 1013
f 1013 969 1014
f 783 786 894
f 894 786 1019
f 1020 1021 967
f 967 1021 938
f 1022 1023 876
f 876 1023 877
f 934 1024 825
f 825 1024 1016
f 854 1025 855
f 855 1025 1026
f 1028 903 1027
f 1027 903 902
f 1030 1031 1029
f 1029 1031 1032
f 889 888 814
f 814 888 1033
f 1034 811 1033
f 1033 811 814
f 1035 1036 932
f 932 1036 933
f 841 947 911
f 911 947 917
f 844 948 841
f 841 948 947
f 951 948 907
f 907 948 844
f 907 906 951
f 951 906 1037
f 906 1038 1037
f 1037 1038 1039
f 991 912 1040
f 1040 912 915
f 1041 1042 964
f 964 1042 965
f 890 1043 891
f 891 1043 1044
f 789 1045 1046
f 1012 1011 1008
f 1008 1011 972
f 931 1047 848
f 848 1047 845
f 953 956 943
f 943 956 919
f 928 931 872
f 872 931 848
f 1049 999 1048
f 1048 999 985
f 1047 931 1050
f 1050 931 930
f 899 823 887
f 887 823 886
f 825 828 934
f 934 828 935
f 835 1051 836
f 836 1051 1052
f 923 1053 1038
f 1038 1053 1039
f 1054 927 921
f 921 927 856
f 926 1047 853
f 853 1047 1050
f 985 1055 1048
f 1048 1055 1056
f 973 974 827
f 827 974 828
f 837 913 838
f 838 913 912
f 861 882 980
f 980 882 1057
f 927 926 856
f 856 926 853
f 1025 1056 1026
f 1026 1056 1055
f 961 960 862
f 862 960 859
f 826 1017 1059
f 1059 1017 1060
f 1005 1001 1061
f 1061 1001 1000
f 1001 1004 1002
f 1002 1004 946
f 1059 1060 1002
f 1002 1060 1003
f 943 946 953
f 953 946 1004
f 1042 1041 916
f 916 1041 1007
f 792 794 906
f 906 794 1038
f 998 1006 996
f 996 1006 1008
f 865 1005 1062
f 1062 1005 1061
f 1038 794 923
f 923 794 924
f 1022 876 1036
f 1036 876 933
f 836 1052 934
f 934 1052 1024
f 885 1063 829
f 829 1063 833
f 1021 1064 938
f 938 1064 874
f 1012 1015 867
f 867 1015 868
f 824 910 885
f 885 910 1063
f 1031 1030 1027
f 1027 1030 1028
f 1064 804 874
f 874 804 803
f 884 883 1065
f 1065 883 1066
f 1050 930 1067
f 1067 930 1007
f 916 929 917
f 917 929 911
f 961 1068 939
f 939 1068 940
f 1069 1070 1055
f 1055 1070 1071
f 929 928 911
f 911 928 872
f 1040 1053 955
f 955 1053 965
f 922 965 923
f 923 965 1053
f 1051 835 1062
f 1062 835 865
f 952 914 968
f 968 914 913
f 889 895 890
f 890 895 816
f 895 897 816
f 816 897 901
f 890 816 1043
f 1043 816 815
f 1065 1066 1032
f 1032 1066 1029
f 1006 937 1009
f 1009 937 793
f 1001 1005 1004
f 1004 1005 992
f 925 845 926
f 926 845 1047
f 1002 946 1059
f 1059 946 945
f 977 941 978
f 978 941 940
f 823 824 886
f 886 824 885
f 1059 945 826
f 826 945 827
f 939 942 1069
f 1069 942 1070
f 816 901 817
f 1071 1072 1055
f 1055 1072 1026
f 1062 1061 1074
f 1074 1061 1073
f 1062 1074 1051
f 1051 1074 1075
f 1052 1051 1076
f 1076 1051 1075
f 1024 1052 1077
f 1077 1052 1076
f 1061 1000 1073
f 1073 1000 1078
f 1000 1003 1078
f 1078 1003 1079
f 1079 1003 1080
f 1080 1003 1060
f 1081 1082 1078
f 1078 1082 1073
f 1084 1085 1083
f 1083 1085 1086
f 1087 1088 1086
f 1086 1088 1083
f 1086 1085 1090
f 1090 1085 1089
f 1091 1092 1090
f 1090 1092 1093
f 1089 1094 1090
f 1090 1094 1091
f 1095 1082 1089
f 1089 1082 1094
f 1093 1087 1090
f 1090 1087 1086
f 1096 1097 1099
f 1099 1097 1098
f 1097 1096 1087
f 1087 1096 1088
f 1089 1085 1095
f 1095 1085 1084
f 1084 1075 1095
f 1095 1075 1074
f 1084 1100 1075
f 1075 1100 1076
f 1083 1101 1084
f 1084 1101 1100
f 1101 1083 1102
f 1102 1083 1088
f 1082 1095 1073
f 1073 1095 1074
f 1096 1103 1088
f 1088 1103 1102
f 1101 1102 1104
f 1104 1102 1105
f 1102 1103 1105
f 1105 1103 1106
f 1104 1105 1107
f 1107 1105 1108
f 1107 1109 1104
f 1104 1109 1110
f 1111 1108 1106
f 1106 1108 1105
f 1101 1104 1100
f 1100 1104 1110
f 1100 1110 1076
f 1076 1110 1077
f 1103 1096 1112
f 1112 1096 1099
f 1091 1094 1113
f 1113 1094 1082
f 1113 1114 1091
f 1091 1114 1092
f 1082 1081 1113
f 1113 1081 1115
f 1114 1113 1116
f 1116 1113 1115
f 1114 1117 1092
f 1092 1117 1118
f 1024 1077 1016
f 1016 1077 1119
f 1017 1120 1060
f 1060 1120 1080
f 1120 1017 1119
f 1119 1017 1016
f 1119 1109 1120
f 1120 1109 1121
f 1109 1107 1121
f 1121 1107 1122
f 1120 1121 1080
f 1080 1121 1123
f 1119 1077 1109
f 1109 1077 1110
f 1124 1079 1123
f 1123 1079 1080
f 1124 1081 1079
f 1079 1081 1078
f 1125 1115 1124
f 1124 1115 1081
f 1125 1124 1126
f 1126 1124 1123
f 1127 1125 1128
f 1128 1125 1126
f 1121 1122 1123
f 1123 1122 1126
f 1122 1129 1126
f 1126 1129 1128
f 1115 1125 1116
f 1116 1125 1127
f 1131 1116 1130
f 1130 1116 1127
f 1130 1133 1132
f 1132 1133 1134
f 1130 1127 1133
f 1133 1127 1128
f 1130 1132 1131
f 1131 1132 1112
f 1131 1112 1117
f 1117 1112 1099
f 1117 1114 1131
f 1131 1114 1116
f 1107 1108 1122
f 1122 1108 1129
f 1134 1129 1111
f 1111 1129 1108
f 1134 1133 1129
f 1129 1133 1128
f 1132 1134 1106
f 1106 1134 1111
f 1106 1103 1132
f 1132 1103 1112
f 1087 1093 1097
f 1097 1093 1098
f 1098 1118 1099
f 1099 1118 1117
f 1098 1093 1118
f 1118 1093 1092
f 915 914 1039
f 1039 914 1037
f 918 944 919
f 919 944 943
f 950 949 973
f 973 949 974
f 949 952 974
f 974 952 968
f 956 955 1042
f 1042 955 965
f 950 973 918
f 918 973 944
f 915 1039 1040
f 1040 1039 1053
f 956 1042 919
f 919 1042 916
f 1040 955 991
f 991 955 954
f 914 952 1037
f 1037 952 951
f 1136 1137 1135
f 1135 1137 1138
f 1140 1141 1139
f 1139 1141 1142
f 1139 1142 1143
f 1143 1142 1144
f 1145 1146 1148
f 1148 1146 1147
f 854 1149 1025
f 1025 1149 1150
f 1151 1152 1140
f 1140 1152 1141
f 1154 1155 1153
f 1153 1155 1156
f 1067 1007 1158
f 1158 1007 1157
f 1159 1157 1041
f 1041 1157 1007
f 1161 1162 1160
f 1160 1162 1163
f 1164 1146 1152
f 1152 1146 1141
f 854 1067 1149
f 1149 1067 1158
f 1155 1154 1137
f 1137 1154 1165
f 1166 1164 1138
f 1138 1164 1152
f 1167 1161 1144
f 1144 1161 1168
f 1170 1171 1169
f 1169 1171 1172
f 1161 1160 1168
f 1168 1160 1173
f 1174 1143 1168
f 1168 1143 1144
f 1167 1144 1145
f 1145 1144 1142
f 1135 1175 1136
f 1136 1175 1176
f 1151 1177 1135
f 1135 1177 1175
f 1167 1145 1178
f 1178 1145 1148
f 1160 1163 1153
f 1153 1163 1150
f 1135 1138 1151
f 1151 1138 1152
f 1139 1179 1140
f 1140 1179 1180
f 1165 1166 1137
f 1137 1166 1138
f 1141 1146 1142
f 1142 1146 1145
f 1136 1176 1181
f 1181 1176 1182
f 1174 1170 1183
f 1183 1170 1169
f 1170 1173 1171
f 1171 1173 1156
f 1171 1181 1172
f 1172 1181 1182
f 1153 1156 1160
f 1160 1156 1173
f 1143 1174 1184
f 1184 1174 1183
f 1140 1180 1151
f 1151 1180 1177
f 1049 1048 1178
f 1178 1048 1162
f 1179 1139 1184
f 1184 1139 1143
f 1159 1147 1164
f 1164 1147 1146
f 1170 1174 1173
f 1173 1174 1168
f 1171 1156 1181
f 1181 1156 1155
f 1181 1155 1136
f 1136 1155 1137
f 1184 1183 1186
f 1186 1183 1185
f 1184 1186 1179
f 1179 1186 1187
f 1179 1187 1180
f 1180 1187 1188
f 1180 1188 1177
f 1177 1188 1189
f 1183 1169 1185
f 1185 1169 1190
f 1169 1172 1190
f 1190 1172 1191
f 1172 1182 1191
f 1191 1182 1192
f 1193 1194 1190
f 1190 1194 1185
f 1196 1197 1195
f 1195 1197 1198
f 1199 1200 1196
f 1196 1200 1197
f 1197 1200 1202
f 1202 1200 1201
f 1203 1204 1202
f 1202 1204 1205
f 1201 1206 1202
f 1202 1206 1203
f 1205 1198 1202
f 1202 1198 1197
f 1198 1207 1195
f 1195 1207 1208
f 1201 1200 1209
f 1209 1200 1199
f 1199 1187 1209
f 1209 1187 1186
f 1199 1210 1187
f 1187 1210 1188
f 1196 1211 1199
f 1199 1211 1210
f 1212 1211 1195
f 1195 1211 1196
f 1209 1194 1201
f 1201 1194 1206
f 1194 1209 1185
f 1185 1209 1186
f 1213 1212 1208
f 1208 1212 1195
f 1211 1212 1214
f 1214 1212 1215
f 1212 1213 1215
f 1215 1213 1216
f 1214 1215 1217
f 1217 1215 1218
f 1217 1219 1214
f 1214 1219 1220
f 1216 1221 1215
f 1215 1221 1218
f 1214 1220 1211
f 1211 1220 1210
f 1210 1220 1188
f 1188 1220 1189
f 1213 1208 1223
f 1223 1208 1222
f 1208 1207 1222
f 1222 1207 1224
f 1203 1206 1225
f 1225 1206 1194
f 1204 1203 1226
f 1226 1203 1225
f 1194 1193 1225
f 1225 1193 1227
f 1225 1227 1226
f 1226 1227 1228
f 1229 1230 1226
f 1226 1230 1204
f 1224 1230 1222
f 1222 1230 1229
f 1177 1189 1175
f 1175 1189 1231
f 1176 1232 1182
f 1182 1232 1192
f 1232 1176 1231
f 1231 1176 1175
f 1231 1219 1232
f 1232 1219 1233
f 1219 1217 1233
f 1233 1217 1234
f 1232 1233 1192
f 1192 1233 1235
f 1219 1231 1220
f 1220 1231 1189
f 1236 1191 1235
f 1235 1191 1192
f 1236 1193 1191
f 1191 1193 1190
f 1236 1237 1193
f 1193 1237 1227
f 1237 1236 1238
f 1238 1236 1235
f 1239 1237 1240
f 1240 1237 1238
f 1233 1234 1235
f 1235 1234 1238
f 1234 1241 1238
f 1238 1241 1240
f 1237 1239 1227
f 1227 1239 1228
f 1243 1228 1242
f 1242 1228 1239
f 1242 1245 1244
f 1244 1245 1246
f 1242 1239 1245
f 1245 1239 1240
f 1242 1244 1243
f 1243 1244 1223
f 1243 1223 1229
f 1229 1223 1222
f 1229 1226 1243
f 1243 1226 1228
f 1217 1218 1234
f 1234 1218 1241
f 1246 1241 1221
f 1221 1241 1218
f 1246 1245 1241
f 1241 1245 1240
f 1244 1246 1216
f 1216 1246 1221
f 1216 1213 1244
f 1244 1213 1223
f 1198 1205 1207
f 1207 1205 1224
f 1224 1205 1230
f 1230 1205 1204
f 1148 1147 966
f 966 1147 964
f 1149 1154 1150
f 1150 1154 1153
f 1158 1157 1165
f 1165 1157 1166
f 1157 1159 1166
f 1166 1159 1164
f 1163 1162 1056
f 1056 1162 1048
f 1158 1165 1149
f 1149 1165 1154
f 1178 1148 1049
f 1049 1148 966
f 1163 1056 1150
f 1150 1056 1025
f 1178 1162 1167
f 1167 1162 1161
f 1147 1159 964
f 964 1159 1041
f 999 1049 922
f 922 1049 966
f 999 797 985
f 985 797 800
f 797 796 800
f 800 796 801
f 796 997 801
f 801 997 986
f 1247 1248 1250
f 1250 1248 1249
f 1252 1253 1251
f 1251 1253 1254
f 1251 1254 1255
f 1255 1254 1256
f 1258 1259 1257
f 1257 1259 1260
f 1261 1262 1252
f 1252 1262 1253
f 1264 1265 1263
f 1263 1265 1266
f 1267 1268 855
f 855 1268 920
f 1269 1267 1026
f 1026 1267 855
f 1271 1272 1270
f 1270 1272 1273
f 1274 1258 1262
f 1262 1258 1253
f 1264 1275 1265
f 1265 1275 1249
f 1276 1274 1250
f 1250 1274 1262
f 1277 1271 1256
f 1256 1271 1278
f 1279 1280 1282
f 1282 1280 1281
f 1271 1270 1278
f 1278 1270 1283
f 1284 1255 1278
f 1278 1255 1256
f 1277 1256 1257
f 1257 1256 1254
f 1247 1285 1248
f 1248 1285 1286
f 1261 1287 1247
f 1247 1287 1285
f 1257 1260 1277
f 1277 1260 1288
f 1270 1273 1263
f 1263 1273 1289
f 1261 1247 1262
f 1262 1247 1250
f 1251 1290 1252
f 1252 1290 1291
f 1275 1276 1249
f 1249 1276 1250
f 1253 1258 1254
f 1254 1258 1257
f 1248 1286 1292
f 1292 1286 1293
f 1284 1280 1294
f 1294 1280 1279
f 1281 1280 1266
f 1266 1280 1283
f 1292 1293 1281
f 1281 1293 1282
f 1263 1266 1270
f 1270 1266 1283
f 1255 1284 1295
f 1295 1284 1294
f 1252 1291 1261
f 1261 1291 1287
f 1288 1070 1272
f 1272 1070 942
f 1290 1251 1295
f 1295 1251 1255
f 1269 1259 1274
f 1274 1259 1258
f 1280 1284 1283
f 1283 1284 1278
f 1281 1266 1292
f 1292 1266 1265
f 1292 1265 1248
f 1248 1265 1249
f 1295 1294 1297
f 1297 1294 1296
f 1295 1297 1290
f 1290 1297 1298
f 1290 1298 1291
f 1291 1298 1299
f 1291 1299 1287
f 1287 1299 1300
f 1294 1279 1296
f 1296 1279 1301
f 1279 1282 1301
f 1301 1282 1302
f 1302 1282 1303
f 1303 1282 1293
f 1304 1305 1301
f 1301 1305 1296
f 1307 1308 1306
f 1306 1308 1309
f 1310 1311 1307
f 1307 1311 1308
f 1308 1311 1313
f 1313 1311 1312
f 1314 1315 1313
f 1313 1315 1316
f 1312 1317 1313
f 1313 1317 1314
f 1316 1309 1313
f 1313 1309 1308
f 1318 1319 1309
f 1309 1319 1306
f 1311 1310 1312
f 1312 1310 1320
f 1310 1298 1320
f 1320 1298 1297
f 1310 1321 1298
f 1298 1321 1299
f 1307 1322 1310
f 1310 1322 1321
f 1322 1307 1323
f 1323 1307 1306
f 1312 1320 1317
f 1317 1320 1305
f 1305 1320 1296
f 1296 1320 1297
f 1319 1324 1306
f 1306 1324 1323
f 1325 1322 1326
f 1326 1322 1323
f 1324 1327 1323
f 1323 1327 1326
f 1328 1325 1329
f 1329 1325 1326
f 1325 1328 1331
f 1331 1328 1330
f 1327 1332 1326
f 1326 1332 1329
f 1322 1325 1321
f 1321 1325 1331
f 1321 1331 1299
f 1299 1331 1300
f 1324 1319 1334
f 1334 1319 1333
f 1319 1318 1333
f 1333 1318 1335
f 1314 1317 1336
f 1336 1317 1305
f 1315 1314 1337
f 1337 1314 1336
f 1305 1304 1336
f 1336 1304 1338
f 1337 1336 1339
f 1339 1336 1338
f 1337 1340 1315
f 1315 1340 1341
f 1335 1341 1333
f 1333 1341 1340
f 1287 1300 1285
f 1285 1300 1342
f 1286 1343 1293
f 1293 1343 1303
f 1343 1286 1342
f 1342 1286 1285
f 1342 1330 1343
f 1343 1330 1344
f 1330 1328 1344
f 1344 1328 1345
f 1343 1344 1303
f 1303 1344 1346
f 1342 1300 1330
f 1330 1300 1331
f 1347 1302 1346
f 1346 1302 1303
f 1347 1304 1302
f 1302 1304 1301
f 1348 1338 1347
f 1347 1338 1304
f 1348 1347 1349
f 1349 1347 1346
f 1350 1348 1351
f 1351 1348 1349
f 1344 1345 1346
f 1346 1345 1349
f 1345 1352 1349
f 1349 1352 1351
f 1348 1350 1338
f 1338 1350 1339
f 1354 1339 1353
f 1353 1339 1350
f 1353 1356 1355
f 1355 1356 1357
f 1353 1350 1356
f 1356 1350 1351
f 1353 1355 1354
f 1354 1355 1334
f 1354 1334 1340
f 1340 1334 1333
f 1340 1337 1354
f 1354 1337 1339
f 1328 1329 1345
f 1345 1329 1352
f 1357 1352 1332
f 1332 1352 1329
f 1357 1356 1352
f 1352 1356 1351
f 1357 1332 1355
f 1355 1332 1327
f 1327 1324 1355
f 1355 1324 1334
f 1309 1316 1318
f 1318 1316 1335
f 1335 1316 1341
f 1341 1316 1315
f 1259 1072 1260
f 1260 1072 1071
f 1358 1264 1289
f 1289 1264 1263
f 1268 1267 1275
f 1275 1267 1276
f 1267 1269 1276
f 1276 1269 1274
f 941 1273 942
f 942 1273 1272
f 1358 1268 1264
f 1264 1268 1275
f 1260 1071 1288
f 1288 1071 1070
f 1273 941 1289
f 1289 941 977
f 1272 1271 1288
f 1288 1271 1277
f 1259 1269 1072
f 1072 1269 1026
f 1360 1361 1359
f 1359 1361 1362
f 1364 1365 1363
f 1363 1365 1366
f 1363 1366 1367
f 1367 1366 1368
f 1370 1371 1369
f 1369 1371 1372
f 1373 1374 1376
f 1376 1374 1375
f 1377 1378 1364
f 1364 1378 1365
f 1379 1380 1382
f 1382 1380 1381
f 1383 1384 1386
f 1386 1384 1385
f 1387 1385 978
f 978 1385 1384
f 1388 1389 1391
f 1391 1389 1390
f 1378 1392 1365
f 1365 1392 1370
f 1374 1383 1375
f 1375 1383 1386
f 1380 1393 1381
f 1381 1393 1361
f 1394 1392 1362
f 1362 1392 1378
f 1389 1396 1395
f 1395 1396 1368
f 1398 1399 1397
f 1397 1399 1400
f 1388 1401 1389
f 1389 1401 1396
f 1402 1367 1396
f 1396 1367 1368
f 1395 1368 1369
f 1369 1368 1366
f 1359 1403 1360
f 1360 1403 1404
f 1377 1405 1359
f 1359 1405 1403
f 1369 1372 1395
f 1395 1372 1406
f 1379 1388 1376
f 1376 1388 1391
f 1359 1362 1377
f 1377 1362 1378
f 1363 1407 1364
f 1364 1407 1408
f 1393 1394 1361
f 1361 1394 1362
f 1365 1370 1366
f 1366 1370 1369
f 1360 1404 1409
f 1409 1404 1410
f 1402 1398 1411
f 1411 1398 1397
f 1399 1398 1382
f 1382 1398 1401
f 1409 1410 1399
f 1399 1410 1400
f 1388 1379 1401
f 1401 1379 1382
f 1367 1402 1412
f 1412 1402 1411
f 1364 1408 1377
f 1377 1408 1405
f 981 980 1406
f 1406 980 1390
f 1407 1363 1412
f 1412 1363 1367
f 1387 1371 1392
f 1392 1371 1370
f 1398 1402 1401
f 1401 1402 1396
f 1409 1399 1381
f 1381 1399 1382
f 1360 1409 1361
f 1361 1409 1381
f 1412 1411 1414
f 1414 1411 1413
f 1412 1414 1407
f 1407 1414 1415
f 1407 1415 1408
f 1408 1415 1416
f 1408 1416 1405
f 1405 1416 1417
f 1411 1397 1413
f 1413 1397 1418
f 1397 1400 1418
f 1418 1400 1419
f 1419 1400 1420
f 1420 1400 1410
f 1422 1413 1421
f 1421 1413 1418
f 1423 1424 1426
f 1426 1424 1425
f 1427 1428 1424
f 1424 1428 1425
f 1425 1428 1430
f 1430 1428 1429
f 1430 1431 1433
f 1433 1431 1432
f 1429 1434 1430
f 1430 1434 1431
f 1433 1426 1430
f 1430 1426 1425
f 1426 1435 1423
f 1423 1435 1436
f 1428 1427 1429
f 1429 1427 1437
f 1427 1415 1437
f 1437 1415 1414
f 1427 1438 1415
f 1415 1438 1416
f 1439 1438 1424
f 1424 1438 1427
f 1440 1439 1423
f 1423 1439 1424
f 1429 1437 1434
f 1434 1437 1422
f 1422 1437 1413
f 1413 1437 1414
f 1441 1440 1436
f 1436 1440 1423
f 1442 1439 1443
f 1443 1439 1440
f 1441 1444 1440
f 1440 1444 1443
f 1445 1442 1446
f 1446 1442 1443
f 1442 1445 1448
f 1448 1445 1447
f 1444 1449 1443
f 1443 1449 1446
f 1439 1442 1438
f 1438 1442 1448
f 1438 1448 1416
f 1416 1448 1417
f 1436 1450 1441
f 1441 1450 1451
f 1436 1435 1450
f 1450 1435 1452
f 1431 1434 1453
f 1453 1434 1422
f 1431 1453 1432
f 1432 1453 1454
f 1453 1422 1455
f 1455 1422 1421
f 1454 1453 1456
f 1456 1453 1455
f 1457 1458 1454
f 1454 1458 1432
f 1452 1458 1450
f 1450 1458 1457
f 1405 1417 1403
f 1403 1417 1459
f 1404 1460 1410
f 1410 1460 1420
f 1459 1460 1403
f 1403 1460 1404
f 1447 1461 1459
f 1459 1461 1460
f 1445 1462 1447
f 1447 1462 1461
f 1460 1461 1420
f 1420 1461 1463
f 1459 1417 1447
f 1447 1417 1448
f 1464 1419 1463
f 1463 1419 1420
f 1419 1464 1418
f 1418 1464 1421
f 1464 1465 1421
f 1421 1465 1455
f 1465 1464 1466
f 1466 1464 1463
f 1467 1465 1468
f 1468 1465 1466
f 1461 1462 1463
f 1463 1462 1466
f 1462 1469 1466
f 1466 1469 1468
f 1465 1467 1455
f 1455 1467 1456
f 1471 1456 1470
f 1470 1456 1467
f 1470 1473 1472
f 1472 1473 1474
f 1470 1467 1473
f 1473 1467 1468
f 1470 1472 1471
f 1471 1472 1451
f 1471 1451 1457
f 1457 1451 1450
f 1457 1454 1471
f 1471 1454 1456
f 1462 1445 1469
f 1469 1445 1446
f 1474 1469 1449
f 1449 1469 1446
f 1474 1473 1469
f 1469 1473 1468
f 1472 1474 1444
f 1444 1474 1449
f 1444 1441 1472
f 1472 1441 1451
f 1426 1433 1435
f 1435 1433 1452
f 1452 1433 1458
f 1458 1433 1432
f 1371 940 1372
f 1372 940 1068
f 1376 1375 1379
f 1379 1375 1380
f 1393 1386 1394
f 1394 1386 1385
f 1385 1387 1394
f 1394 1387 1392
f 1475 1373 1391
f 1391 1373 1376
f 1375 1386 1380
f 1380 1386 1393
f 1372 1068 1406
f 1406 1068 981
f 1406 1390 1395
f 1395 1390 1389
f 1371 1387 940
f 940 1387 978
f 883 807 1476
f 1476 807 1477
f 1046 904 1479
f 1479 904 1478
f 904 903 1478
f 1478 903 1480
f 1030 1481 1028
f 1028 1481 1482
f 810 1046 1483
f 1483 1046 1479
f 1066 883 1484
f 1484 883 1476
f 807 810 1477
f 1477 810 1483
f 1485 1029 1484
f 1484 1029 1066
f 1028 1482 903
f 903 1482 1480
f 1481 1030 1485
f 1485 1030 1029
f 1484 1486 1485
f 1485 1486 1487
f 1485 1487 1481
f 1481 1487 1488
f 1481 1488 1482
f 1482 1488 1489
f 1482 1489 1480
f 1480 1489 1490
f 1484 1476 1486
f 1486 1476 1491
f 1476 1477 1491
f 1491 1477 1492
f 1477 1483 1492
f 1492 1483 1493
f 1495 1486 1494
f 1494 1486 1491
f 1497 1498 1496
f 1496 1498 1499
f 1500 1501 1497
f 1497 1501 1498
f 1502 1503 1501
f 1501 1503 1498
f 1502 1504 1503
f 1503 1504 1505
f 1506 1499 1503
f 1503 1499 1498
f 1499 1506 1507
f 1507 1506 1508
f 1507 1509 1499
f 1499 1509 1496
f 1502 1501 1510
f 1510 1501 1500
f 1500 1488 1510
f 1510 1488 1487
f 1500 1511 1488
f 1488 1511 1489
f 1497 1512 1500
f 1500 1512 1511
f 1512 1497 1513
f 1513 1497 1496
f 1502 1510 1504
f 1504 1510 1495
f 1495 1510 1486
f 1486 1510 1487
f 1509 1514 1496
f 1496 1514 1513
f 1515 1512 1516
f 1516 1512 1513
f 1514 1517 1513
f 1513 1517 1516
f 1518 1515 1519
f 1519 1515 1516
f 1515 1518 1521
f 1521 1518 1520
f 1517 1522 1516
f 1516 1522 1519
f 1512 1515 1511
f 1511 1515 1521
f 1511 1521 1489
f 1489 1521 1490
f 1514 1509 1524
f 1524 1509 1523
f 1509 1507 1523
f 1523 1507 1508
f 1505 1504 1525
f 1525 1504 1495
f 1526 1505 1527
f 1527 1505 1525
f 1525 1495 1528
f 1528 1495 1494
f 1527 1525 1529
f 1529 1525 1528
f 1527 1530 1526
f 1526 1530 1531
f 1508 1531 1523
f 1523 1531 1530
f 1506 1503 1526
f 1526 1503 1505
f 1508 1506 1531
f 1531 1506 1526
f 1478 1480 1532
f 1532 1480 1490
f 1483 1479 1493
f 1493 1479 1533
f 1532 1533 1478
f 1478 1533 1479
f 1520 1534 1532
f 1532 1534 1533
f 1518 1535 1520
f 1520 1535 1534
f 1533 1534 1493
f 1493 1534 1536
f 1532 1490 1520
f 1520 1490 1521
f 1537 1492 1536
f 1536 1492 1493
f 1492 1537 1491
f 1491 1537 1494
f 1537 1538 1494
f 1494 1538 1528
f 1538 1537 1539
f 1539 1537 1536
f 1540 1538 1541
f 1541 1538 1539
f 1534 1535 1536
f 1536 1535 1539
f 1535 1542 1539
f 1539 1542 1541
f 1538 1540 1528
f 1528 1540 1529
f 1544 1529 1543
f 1543 1529 1540
f 1545 1543 1547
f 1547 1543 1546
f 1543 1540 1546
f 1546 1540 1541
f 1543 1545 1544
f 1544 1545 1524
f 1544 1524 1530
f 1530 1524 1523
f 1530 1527 1544
f 1544 1527 1529
f 1535 1518 1542
f 1542 1518 1519
f 1547 1542 1522
f 1522 1542 1519
f 1547 1546 1542
f 1542 1546 1541
f 1545 1547 1517
f 1517 1547 1522
f 1517 1514 1545
f 1545 1514 1524
f 997 995 986
f 986 995 987
f 987 995 988
f 988 995 971
f 976 1358 977
f 977 1358 1289
f 854 853 1067
f 1067 853 1050
f 1055 985 1069
f 1069 985 962
f 1068 961 981
f 981 961 862
f 1268 1358 920
f 920 1358 976
f 920 976 921
f 921 976 975
f 927 1054 850
f 850 1054 851
f 882 881 1057
f 1057 881 1548
f 1548 1374 1057
f 1057 1374 1373
f 1383 1374 1549
f 1549 1374 1548
f 1549 1548 1550
f 1550 1548 881
f 1550 881 1551
f 1551 881 880
f 933 1552 879
f 879 1552 880
f 1551 880 875
f 875 880 1552
f 1553 1551 878
f 878 1551 875
f 1551 1553 1550
f 1550 1553 1554
f 1550 1554 1549
f 1549 1554 1555
f 978 1384 975
f 975 1384 1555
f 967 849 1556
f 1556 849 852
f 875 1552 876
f 876 1552 933
f 961 939 962
f 962 939 1069
f 1555 1054 975
f 975 1054 921
f 1555 1384 1549
f 1549 1384 1383
f 1391 1390 1475
f 1475 1390 980
f 1373 1475 1057
f 1057 1475 980
f 851 1054 1554
f 1554 1054 1555
f 1554 1553 851
f 851 1553 852
f 878 1556 1553
f 1553 1556 852
f 1556 878 967
f 967 878 877
f 1023 1020 877
f 877 1020 967
f 909 811 1034
f 806 779 873
f 873 779 840
f 805 780 806
f 806 780 779
f 1043 893 1044
f 1044 893 892
f 873 840 847
f 847 840 842
f 840 839 842
f 842 839 843
f 839 791 843
f 843 791 908
f 791 790 908
f 908 790 792
f 809 789 810
f 810 789 1046
f 793 790 809
f 809 790 789
f 809 808 793
f 793 808 1009
f 808 884 1009
f 1009 884 1010
f 1065 1015 884
f 884 1015 1010
f 1032 868 1065
f 1065 868 1015
f 1031 822 1032
f 1032 822 868
f 1031 1027 822
f 822 1027 785
f 1045 905 1046
f 1046 905 904
f 788 781 1019
f 1019 781 894
f 781 780 894
f 894 780 892
f 780 805 892
f 892 805 1044
f 805 804 1044
f 1044 804 891
f 804 1064 891
f 891 1064 888
f 1064 1021 888
f 888 1021 1033
f 1021 1020 1033
f 1033 1020 1034
f 1020 1023 1034
f 1034 1023 909
f 1023 1022 909
f 909 1022 910
f 1043 815 893
f 893 815 819
f 819 815 820
f 820 815 818
f 870 869 818
f 818 869 820
f 1014 1011 870
f 870 1011 869
f 969 972 1014
f 1014 972 1011
f 1036 1063 1022
f 1022 1063 910
f 1035 833 1036
f 1036 833 1063
f 1035 932 979
f 979 932 963
f 834 979 982
f 982 979 958
f 833 1035 834
f 834 1035 979
f 982 863 834
f 834 863 830
f 864 900 831
f 831 900 857
f 990 993 864
f 864 993 900
f 989 994 990
f 990 994 993
f 970 1058 989
f 989 1058 994
f 969 1018 970
f 970 1018 1058
f 1027 902 785
f 785 902 786
f 902 905 786
f 786 905 1019
f 905 1045 1019
f 1019 1045 788
f 788 1045 787
f 787 1045 789
