o hand_left
v -0.605369 0.254459 1.328411
v -0.605945 0.263732 1.325290
v -0.594104 0.262811 1.325166
v -0.594508 0.252198 1.327980
v -0.600574 0.284842 1.320324
v -0.599203 0.291705 1.309703
v -0.584408 0.288045 1.312398
v -0.588093 0.283738 1.321306
v -0.586341 0.250084 1.325247
v -0.586030 0.262405 1.324672
v -0.583630 0.250067 1.318835
v -0.588409 0.234661 1.318090
v -0.589446 0.238036 1.325073
v -0.591567 0.225046 1.320554
v -0.594655 0.234776 1.308445
v -0.599373 0.219937 1.316758
v -0.627299 0.232050 1.312523
v -0.639417 0.235538 1.318262
v -0.636249 0.221018 1.328242
v -0.623750 0.219600 1.322031
v -0.651382 0.233465 1.336009
v -0.642950 0.225933 1.332209
v -0.646890 0.239567 1.321504
v -0.654081 0.245751 1.325509
v -0.622545 0.260830 1.330845
v -0.625055 0.269728 1.327207
v -0.618731 0.266382 1.325853
v -0.616847 0.258653 1.329161
v -0.574205 0.259546 1.310261
v -0.583768 0.253942 1.302990
v -0.583630 0.249468 1.310099
v -0.575545 0.259740 1.315492
v -0.636311 0.297446 1.324059
v -0.640910 0.303893 1.313000
v -0.636379 0.302388 1.309583
v -0.633476 0.296165 1.320390
v -0.616624 0.296183 1.304527
v -0.623511 0.298886 1.298223
v -0.621799 0.297544 1.284084
v -0.615398 0.292386 1.287916
v -0.608178 0.293564 1.308464
v -0.606629 0.291856 1.294163
v -0.597671 0.290485 1.297867
v -0.581449 0.287633 1.303141
v -0.652460 0.305114 1.318604
v -0.650535 0.301017 1.327761
v -0.576371 0.210267 1.356669
v -0.581314 0.212204 1.359793
v -0.582132 0.212502 1.357883
v -0.577444 0.210390 1.354978
v -0.668365 0.292583 1.320208
v -0.672475 0.285778 1.313954
v -0.674058 0.292387 1.311260
v -0.668758 0.298745 1.315806
v -0.667737 0.284443 1.326016
v -0.669543 0.276865 1.317817
v -0.573698 0.198415 1.360589
v -0.571930 0.202740 1.358078
v -0.574299 0.200444 1.354731
v -0.577128 0.195668 1.356618
v -0.594996 0.242161 1.330057
v -0.603886 0.246340 1.332812
v -0.595853 0.226936 1.339348
v -0.600314 0.233815 1.336844
v -0.594733 0.233000 1.331743
v -0.592432 0.226492 1.333579
v -0.621440 0.242508 1.343964
v -0.623712 0.252017 1.337591
v -0.617899 0.249043 1.335634
v -0.613779 0.238838 1.342229
v -0.634172 0.258136 1.345051
v -0.631366 0.248019 1.350383
v -0.637754 0.252655 1.353908
v -0.638030 0.259602 1.350145
v -0.624740 0.230071 1.356747
v -0.623570 0.225350 1.358824
v -0.625614 0.227747 1.361602
v -0.627653 0.232106 1.358230
v -0.675828 0.298245 1.307637
v -0.668644 0.304159 1.310900
v -0.665120 0.247129 1.346477
v -0.666615 0.257542 1.350772
v -0.666338 0.247224 1.360359
v -0.665098 0.238035 1.352994
v -0.670529 0.278437 1.306835
v -0.674444 0.284864 1.304538
v -0.578476 0.195783 1.364237
v -0.581704 0.192978 1.360843
v -0.600880 0.281898 1.288740
v -0.581749 0.280666 1.295869
v -0.613112 0.283773 1.284212
v -0.621127 0.285965 1.280337
v -0.625935 0.290303 1.275544
v -0.604614 0.231883 1.342117
v -0.612557 0.250869 1.332530
v -0.626959 0.262978 1.333022
v -0.648294 0.273518 1.353010
v -0.649505 0.282353 1.347378
v -0.640425 0.277122 1.344803
v -0.641592 0.270110 1.349918
v -0.662313 0.263939 1.357036
v -0.654517 0.265156 1.359352
v -0.654534 0.257487 1.364205
v -0.662197 0.254737 1.363668
v -0.570209 0.263165 1.304622
v -0.583694 0.259262 1.296944
v -0.660908 0.298664 1.324726
v -0.660138 0.303429 1.318572
v -0.661960 0.308087 1.311680
v -0.629491 0.283346 1.325685
v -0.631458 0.295240 1.318000
v -0.627627 0.293384 1.316754
v -0.627155 0.280647 1.324281
v -0.609197 0.274363 1.324585
v -0.613049 0.286622 1.319339
v -0.597150 0.273877 1.325667
v -0.630897 0.301624 1.303976
v -0.638627 0.309412 1.302184
v -0.632461 0.307349 1.296117
v -0.647119 0.310527 1.307049
v -0.655312 0.310289 1.310668
v -0.679463 0.289900 1.299835
v -0.627569 0.303822 1.290163
v -0.579658 0.281581 1.321461
v -0.572841 0.278884 1.323129
v -0.576162 0.272065 1.324415
v -0.582021 0.273529 1.323437
v -0.592608 0.216277 1.325032
v -0.590243 0.222211 1.329382
v -0.590369 0.230417 1.325105
v -0.638203 0.290619 1.333142
v -0.650128 0.294020 1.336058
v -0.599465 0.224703 1.344496
v -0.580872 0.195710 1.351693
v -0.577418 0.200650 1.349879
v -0.587549 0.208197 1.335889
v -0.591487 0.202494 1.337166
v -0.602174 0.216026 1.349309
v -0.598013 0.221058 1.346928
v -0.597587 0.218986 1.348227
v -0.600726 0.214882 1.352404
v -0.632854 0.233116 1.364319
v -0.634257 0.237280 1.361057
v -0.618988 0.210048 1.334296
v -0.609754 0.208003 1.323671
v -0.611587 0.218553 1.316201
v -0.627373 0.246035 1.346901
v -0.626016 0.237781 1.352933
v -0.629410 0.239456 1.354760
v -0.606755 0.229138 1.345377
v -0.603962 0.222707 1.348025
v -0.608976 0.224885 1.348133
v -0.611572 0.231272 1.346471
v -0.667968 0.267203 1.341431
v -0.663185 0.274590 1.349141
v -0.573017 0.206904 1.356419
v -0.574473 0.205959 1.353854
v -0.629455 0.255294 1.340606
v -0.614955 0.231466 1.309132
v -0.631210 0.265398 1.335697
v -0.649617 0.226288 1.357287
v -0.647518 0.231309 1.363999
v -0.643900 0.229116 1.367732
v -0.644495 0.223794 1.364708
v -0.593224 0.208307 1.362402
v -0.589129 0.212447 1.361053
v -0.587310 0.211324 1.361440
v -0.590816 0.207113 1.364266
v -0.594108 0.222694 1.342769
v -0.590542 0.221980 1.337465
v -0.588666 0.219148 1.341510
v -0.593062 0.219681 1.345674
v -0.589100 0.217078 1.333314
v -0.586789 0.214412 1.337349
v -0.594414 0.201695 1.362134
v -0.591015 0.195122 1.359540
v -0.602072 0.201767 1.346716
v -0.602191 0.207261 1.352269
v -0.657588 0.256285 1.314906
v -0.664471 0.262312 1.321351
v -0.661394 0.251813 1.332012
v -0.659657 0.240560 1.342420
v -0.656323 0.230031 1.351888
v -0.649792 0.222611 1.344726
v -0.666010 0.257549 1.335823
v -0.610855 0.213395 1.345306
v -0.609732 0.206829 1.338606
v -0.614449 0.210198 1.341188
v -0.635677 0.268788 1.340689
v -0.576885 0.206379 1.350139
v -0.639041 0.273476 1.278750
v -0.651090 0.272209 1.283754
v -0.646357 0.266209 1.288186
v -0.632687 0.268145 1.283157
v -0.583320 0.213951 1.357326
v -0.578833 0.211988 1.352768
v -0.638953 0.239184 1.365482
v -0.637052 0.234514 1.367919
v -0.639775 0.233369 1.369831
v -0.642276 0.238643 1.370318
v -0.667499 0.266810 1.323949
v -0.662279 0.242213 1.368031
v -0.661736 0.233950 1.360571
v -0.666960 0.271098 1.311824
v -0.661481 0.265590 1.305838
v -0.664784 0.272420 1.299652
v -0.636754 0.215207 1.344030
v -0.651392 0.250961 1.311913
v -0.655633 0.261616 1.302845
v -0.659311 0.269601 1.295311
v -0.662864 0.275072 1.290034
v -0.668405 0.277710 1.295416
v -0.585849 0.193821 1.355846
v -0.587332 0.194741 1.365113
v -0.673736 0.282790 1.290067
v -0.666834 0.280035 1.284488
v -0.648029 0.258123 1.298970
v -0.637950 0.255079 1.294864
v -0.644088 0.248081 1.308021
v -0.633753 0.244056 1.304510
v -0.632626 0.209502 1.335374
v -0.581405 0.206498 1.377170
v -0.587632 0.201962 1.369833
v -0.588733 0.207172 1.367241
v -0.583890 0.209825 1.375716
v -0.591081 0.201342 1.365715
v -0.584215 0.197541 1.368617
v -0.618696 0.244280 1.300371
v -0.607781 0.219732 1.349663
v -0.621024 0.258449 1.290501
v -0.599359 0.244518 1.298903
v -0.600852 0.256938 1.292887
v -0.621861 0.273355 1.280857
v -0.607071 0.270335 1.285355
v -0.633186 0.283048 1.273132
v -0.628740 0.277313 1.277509
v -0.590508 0.270213 1.290162
v -0.575522 0.215572 1.364125
v -0.580970 0.215923 1.366981
v -0.643243 0.278732 1.273879
v -0.588097 0.273368 1.324701
v -0.634828 0.278016 1.335060
v -0.631504 0.274786 1.331575
v -0.649863 0.287196 1.343181
v -0.639361 0.282992 1.339533
v -0.570946 0.212446 1.363672
v -0.624700 0.222072 1.360427
v -0.625597 0.224027 1.359989
v -0.575718 0.286095 1.315341
v -0.569559 0.283249 1.317834
v -0.564397 0.276946 1.307333
v -0.565231 0.282171 1.312362
v -0.572392 0.285325 1.307402
v -0.571584 0.279826 1.301721
v -0.631211 0.285158 1.327272
v -0.633835 0.286862 1.329839
v -0.668023 0.276599 1.333501
v -0.662825 0.283200 1.341483
v -0.591631 0.211537 1.330704
v -0.599654 0.210366 1.324073
v -0.596936 0.206483 1.330948
v -0.598115 0.200779 1.339712
v -0.607807 0.215895 1.349262
v -0.605924 0.211220 1.347377
v -0.620574 0.289560 1.318394
v -0.620221 0.276691 1.323844
v -0.581587 0.263742 1.322313
v -0.577045 0.264269 1.321573
v -0.618555 0.235112 1.348240
v -0.628768 0.212366 1.352559
v -0.625020 0.208282 1.344981
v -0.616657 0.227305 1.351775
v -0.568947 0.206109 1.368807
v -0.568987 0.209685 1.365390
v -0.603598 0.204393 1.332691
v -0.635327 0.244125 1.358769
v -0.633756 0.216732 1.352457
v -0.627998 0.216485 1.358552
v -0.660097 0.250596 1.367959
v -0.654924 0.278304 1.278477
v -0.586522 0.211567 1.364083
v -0.584730 0.214247 1.370512
v -0.578221 0.203707 1.376161
v -0.573233 0.202739 1.372291
v -0.660824 0.290822 1.333757
v -0.629026 0.272275 1.329597
v -0.576588 0.270654 1.296299
v -0.566746 0.270320 1.303974
v -0.616149 0.223261 1.352964
v -0.653976 0.230604 1.360486
v -0.644816 0.219316 1.353269
v -0.639479 0.216948 1.361695
v -0.631985 0.216025 1.360519
v -0.626052 0.219671 1.361240
v -0.576255 0.208176 1.380233
v -0.570961 0.207527 1.376753
v -0.567365 0.210897 1.372691
v -0.567845 0.213506 1.368631
v -0.570907 0.215289 1.366068
v -0.579941 0.210980 1.380651
v -0.582345 0.213599 1.378600
v -0.583861 0.215690 1.372676
v -0.579890 0.215463 1.382092
v -0.574888 0.215858 1.383928
v -0.566443 0.224888 1.376972
v -0.566425 0.218784 1.377069
v -0.567115 0.220450 1.379301
v -0.567234 0.225476 1.380073
v -0.567721 0.230198 1.382307
v -0.566760 0.230335 1.378909
v -0.569782 0.217064 1.381358
v -0.570296 0.223738 1.383117
v -0.574131 0.223198 1.384878
v -0.573763 0.228494 1.386734
v -0.570258 0.229115 1.385396
v -0.573372 0.218628 1.383866
v -0.569526 0.214420 1.380921
v -0.568436 0.233732 1.381637
v -0.568328 0.232637 1.383903
v -0.570743 0.232160 1.386147
v -0.571764 0.234922 1.385266
v -0.567413 0.218107 1.371139
v -0.567150 0.225776 1.374606
v -0.568986 0.231184 1.376851
v -0.570476 0.234380 1.379796
v -0.570603 0.227644 1.373296
v -0.571771 0.231480 1.375855
v -0.573507 0.234040 1.378439
v -0.574836 0.228639 1.373281
v -0.575011 0.231634 1.375968
v -0.574889 0.218953 1.367707
v -0.570830 0.217804 1.367633
v -0.575427 0.233644 1.377486
v -0.573532 0.235509 1.384091
v -0.577494 0.221642 1.384687
v -0.576902 0.228621 1.385970
v -0.579643 0.222094 1.383637
v -0.579160 0.228830 1.385325
v -0.575668 0.232737 1.387305
v -0.573466 0.231426 1.387145
v -0.575947 0.216555 1.365872
v -0.581450 0.216596 1.368803
v -0.580694 0.218431 1.370311
v -0.579388 0.227964 1.374992
v -0.583239 0.217970 1.374015
v -0.582227 0.217716 1.379764
v -0.581295 0.224047 1.381972
v -0.581887 0.225907 1.379055
v -0.580389 0.229241 1.383101
v -0.580297 0.229912 1.380615
v -0.578408 0.231344 1.377491
v -0.578672 0.232923 1.383202
v -0.577330 0.232982 1.385850
v -0.575757 0.234807 1.381604
v -0.579226 0.232416 1.381408
v -0.576920 0.233402 1.379679
v -0.598873 0.221751 1.375970
v -0.604261 0.223826 1.378772
v -0.605396 0.221268 1.375470
v -0.600855 0.219502 1.373096
v -0.596050 0.208768 1.381072
v -0.594482 0.214089 1.377679
v -0.596622 0.210161 1.374008
v -0.599808 0.204736 1.377487
v -0.602178 0.206631 1.384979
v -0.606096 0.203524 1.380848
v -0.602842 0.203144 1.372364
v -0.599453 0.208748 1.369311
v -0.609075 0.211708 1.351359
v -0.613028 0.206512 1.352525
v -0.619571 0.223645 1.360057
v -0.621947 0.221581 1.362023
v -0.596200 0.218730 1.376049
v -0.597927 0.215485 1.372732
v -0.614447 0.219871 1.377712
v -0.610350 0.222431 1.374997
v -0.609547 0.222095 1.378026
v -0.612863 0.219180 1.381351
v -0.609709 0.219865 1.352879
v -0.614925 0.221787 1.356261
v -0.608432 0.216388 1.351783
v -0.616530 0.213840 1.379873
v -0.615368 0.207025 1.379849
v -0.624655 0.208474 1.361486
v -0.625315 0.214119 1.364159
v -0.599198 0.214119 1.368642
v -0.605128 0.221851 1.372365
v -0.601216 0.219349 1.369660
v -0.609722 0.202847 1.375564
v -0.611664 0.208184 1.384907
v -0.604625 0.223086 1.396507
v -0.610594 0.216680 1.388472
v -0.610621 0.221129 1.385638
v -0.605665 0.227749 1.394309
v -0.613595 0.214292 1.384164
v -0.607883 0.211354 1.388658
v -0.594676 0.231272 1.385905
v -0.600323 0.232781 1.388360
v -0.591105 0.228372 1.386156
v -0.619378 0.205386 1.355909
v -0.590753 0.218543 1.390186
v -0.589676 0.224349 1.387103
v -0.608709 0.223957 1.381770
v -0.604168 0.231641 1.391409
v -0.602028 0.219188 1.396936
v -0.596426 0.215572 1.393462
v -0.599690 0.223101 1.400341
v -0.593739 0.221064 1.398035
v -0.588225 0.224216 1.394212
v -0.588120 0.228934 1.390272
v -0.590271 0.231679 1.388448
v -0.602760 0.226651 1.399695
v -0.604073 0.230827 1.397068
v -0.602802 0.233398 1.392445
v -0.601780 0.232311 1.402256
v -0.598295 0.230161 1.404274
v -0.586039 0.244636 1.403010
v -0.586281 0.238976 1.400810
v -0.587515 0.238357 1.403116
v -0.587170 0.243436 1.405337
v -0.586802 0.232464 1.400215
v -0.588172 0.233645 1.402270
v -0.592031 0.231469 1.403851
v -0.591504 0.237457 1.405735
v -0.596399 0.236977 1.406284
v -0.595721 0.241967 1.409070
v -0.590875 0.242612 1.408786
v -0.595601 0.232677 1.405143
v -0.587811 0.246439 1.407292
v -0.587991 0.248863 1.406243
v -0.591818 0.228081 1.402877
v -0.586953 0.232556 1.393800
v -0.586523 0.240736 1.398255
v -0.587245 0.246821 1.400887
v -0.590178 0.250549 1.404897
v -0.589303 0.243274 1.396218
v -0.589888 0.248251 1.399638
v -0.592414 0.250732 1.403257
v -0.593641 0.245050 1.395105
v -0.594014 0.249252 1.399124
v -0.594070 0.235985 1.389225
v -0.589726 0.234633 1.390340
v -0.594099 0.250316 1.401544
v -0.591374 0.248749 1.409823
v -0.593266 0.250734 1.407825
v -0.590896 0.246872 1.409881
v -0.598526 0.237052 1.406090
v -0.597594 0.243055 1.408486
v -0.600779 0.238470 1.405024
v -0.599289 0.244693 1.407796
v -0.595880 0.247084 1.410310
v -0.594453 0.246126 1.410625
v -0.594162 0.233447 1.387807
v -0.599521 0.234020 1.389512
v -0.599624 0.236044 1.390385
v -0.598767 0.244623 1.396587
v -0.603105 0.234904 1.393654
v -0.603367 0.234013 1.399373
v -0.602156 0.239779 1.402880
v -0.601794 0.242522 1.399867
v -0.600771 0.245574 1.406400
v -0.600862 0.245968 1.403084
v -0.597952 0.248400 1.400019
v -0.598365 0.249229 1.407823
v -0.596996 0.248287 1.409565
v -0.594619 0.250956 1.406001
v -0.599187 0.248898 1.404954
v -0.596262 0.250413 1.403242
v -0.617175 0.231019 1.383543
v -0.622379 0.232775 1.385326
v -0.623744 0.231522 1.382342
v -0.618812 0.229340 1.380642
v -0.615098 0.219027 1.387754
v -0.613096 0.223127 1.385751
v -0.615025 0.220760 1.381982
v -0.617651 0.216013 1.382926
v -0.619094 0.218094 1.391855
v -0.622833 0.214053 1.385776
v -0.620172 0.214155 1.378161
v -0.616902 0.219313 1.378100
v -0.623955 0.219821 1.365020
v -0.627913 0.214717 1.366158
v -0.614341 0.227434 1.384201
v -0.615979 0.225639 1.381047
v -0.631622 0.229642 1.384767
v -0.627935 0.232161 1.382626
v -0.628198 0.230943 1.385356
v -0.630600 0.228075 1.387793
v -0.625941 0.229887 1.364650
v -0.631237 0.231876 1.366637
v -0.623525 0.225605 1.364931
v -0.633346 0.223299 1.386057
v -0.631847 0.216238 1.384629
v -0.639663 0.219806 1.372710
v -0.640060 0.225904 1.373220
v -0.616892 0.224495 1.377939
v -0.623480 0.232398 1.379627
v -0.618916 0.229634 1.378014
v -0.626101 0.213312 1.380603
v -0.628362 0.217086 1.389370
v -0.621525 0.230293 1.406043
v -0.628817 0.223781 1.393339
v -0.628975 0.229204 1.390845
v -0.623002 0.234166 1.404410
v -0.631085 0.222798 1.390173
v -0.625214 0.219329 1.393707
v -0.612509 0.239327 1.396574
v -0.617900 0.239667 1.398008
v -0.609762 0.235958 1.396298
v -0.634509 0.214151 1.369029
v -0.637468 0.231411 1.371219
v -0.608445 0.229745 1.400203
v -0.608234 0.233234 1.397642
v -0.626878 0.231837 1.388124
v -0.622063 0.237819 1.401435
v -0.618015 0.227020 1.405479
v -0.612548 0.226083 1.402725
v -0.617237 0.230505 1.409993
v -0.611573 0.230268 1.407771
v -0.607503 0.233716 1.405663
v -0.607571 0.237029 1.402799
v -0.609194 0.239500 1.400980
v -0.620909 0.233496 1.409981
v -0.622133 0.236629 1.407948
v -0.621284 0.238554 1.403164
v -0.621253 0.236698 1.412480
v -0.616590 0.235241 1.414994
v -0.608027 0.249122 1.418195
v -0.607760 0.244888 1.414331
v -0.608427 0.244271 1.415211
v -0.608548 0.248068 1.419454
v -0.607644 0.238635 1.411607
v -0.608473 0.239590 1.413312
v -0.611291 0.237041 1.414499
v -0.611866 0.242025 1.418558
v -0.617824 0.241315 1.418111
v -0.617234 0.245173 1.421162
v -0.611794 0.245849 1.422183
v -0.615713 0.236907 1.415682
v -0.609576 0.249817 1.421875
v -0.608284 0.251293 1.421803
v -0.611042 0.234940 1.413192
v -0.606663 0.240849 1.407286
v -0.607345 0.246816 1.412191
v -0.607517 0.251408 1.415951
v -0.609602 0.253563 1.419191
v -0.609731 0.248809 1.409979
v -0.609846 0.252458 1.414010
v -0.611565 0.254427 1.417001
v -0.612687 0.249669 1.408903
v -0.612871 0.252725 1.412780
v -0.612414 0.242670 1.401872
v -0.608904 0.242118 1.404037
v -0.613348 0.254095 1.415575
v -0.612406 0.250579 1.424223
v -0.614561 0.253362 1.421890
v -0.612239 0.249087 1.423353
v -0.619513 0.240941 1.417442
v -0.619430 0.246063 1.421327
v -0.621526 0.242105 1.415812
v -0.621312 0.247257 1.419681
v -0.617277 0.248701 1.423631
v -0.616301 0.248047 1.423382
v -0.612784 0.240596 1.399582
v -0.617737 0.240471 1.400389
v -0.617245 0.242284 1.402130
v -0.617305 0.249681 1.409375
v -0.620956 0.240399 1.404502
v -0.622216 0.239642 1.410352
v -0.621943 0.244538 1.413628
v -0.620698 0.247492 1.411618
v -0.621631 0.248904 1.417414
v -0.620411 0.249845 1.414995
v -0.616981 0.252712 1.412948
v -0.619192 0.251488 1.419396
v -0.618895 0.250293 1.422054
v -0.615562 0.254255 1.419046
v -0.619037 0.252159 1.417025
v -0.616225 0.254165 1.416646
v -0.634957 0.232643 1.369048
v -0.632830 0.242598 1.388677
v -0.636462 0.244324 1.390367
v -0.637024 0.243609 1.390054
v -0.633767 0.242093 1.387264
v -0.632381 0.231222 1.389957
v -0.630204 0.235366 1.388785
v -0.631960 0.233254 1.385613
v -0.634405 0.229382 1.386541
v -0.637041 0.229665 1.392292
v -0.639254 0.228583 1.389559
v -0.636958 0.229620 1.383420
v -0.634156 0.233276 1.382305
v -0.643825 0.233574 1.368379
v -0.648840 0.230942 1.368158
v -0.656708 0.247879 1.373233
v -0.652163 0.250498 1.370876
v -0.649574 0.247743 1.379238
v -0.653788 0.245393 1.380127
v -0.630760 0.239305 1.388313
v -0.631789 0.238330 1.385523
v -0.645820 0.241113 1.393357
v -0.642194 0.243938 1.391407
v -0.640641 0.243936 1.392301
v -0.644090 0.242120 1.395146
v -0.647234 0.248637 1.369818
v -0.644459 0.244343 1.368881
v -0.642791 0.244507 1.372991
v -0.645048 0.246788 1.377553
v -0.641365 0.239399 1.371512
v -0.647174 0.236766 1.393201
v -0.646033 0.231227 1.390887
v -0.658409 0.236848 1.376499
v -0.657360 0.241489 1.378438
v -0.633128 0.237361 1.383979
v -0.638331 0.243923 1.388375
v -0.634929 0.241755 1.386833
v -0.641944 0.228372 1.386254
v -0.643425 0.232074 1.393746
v -0.640525 0.240645 1.402781
v -0.644224 0.238127 1.397449
v -0.643607 0.242697 1.395814
v -0.641024 0.243650 1.401252
v -0.644950 0.237642 1.395836
v -0.641454 0.233260 1.396585
v -0.631066 0.246049 1.393231
v -0.635957 0.247015 1.395541
v -0.628629 0.243663 1.392991
v -0.654593 0.232002 1.370856
v -0.628207 0.236857 1.396196
v -0.627246 0.240808 1.394343
v -0.639997 0.244447 1.392964
v -0.639470 0.246203 1.398532
v -0.637551 0.236794 1.402641
v -0.632744 0.234227 1.399186
v -0.634981 0.239516 1.405481
v -0.630250 0.237557 1.402166
v -0.626363 0.241294 1.398340
v -0.627147 0.243979 1.395583
v -0.629009 0.246187 1.394245
v -0.638888 0.242785 1.404913
v -0.639982 0.245008 1.403012
v -0.639078 0.246879 1.399511
v -0.637224 0.245307 1.407242
v -0.632502 0.244981 1.407946
v -0.627218 0.256814 1.404520
v -0.626914 0.253185 1.402356
v -0.627003 0.252687 1.403449
v -0.626717 0.256337 1.405371
v -0.626238 0.247711 1.401147
v -0.626719 0.248564 1.402749
v -0.628270 0.245783 1.404733
v -0.628193 0.250687 1.407097
v -0.632797 0.250194 1.409917
v -0.632162 0.254009 1.411421
v -0.627999 0.253990 1.409031
v -0.631237 0.246329 1.407952
v -0.626645 0.258084 1.407566
v -0.626706 0.259512 1.407443
v -0.627944 0.243328 1.404255
v -0.627348 0.248908 1.397385
v -0.627652 0.255116 1.400738
v -0.627765 0.259186 1.403938
v -0.628520 0.261055 1.407276
v -0.629668 0.255463 1.399294
v -0.629604 0.260179 1.402957
v -0.630421 0.261806 1.406199
v -0.632985 0.255670 1.398887
v -0.632171 0.259838 1.402638
v -0.633502 0.250266 1.395502
v -0.629999 0.250040 1.395730
v -0.631889 0.261147 1.405430
v -0.628414 0.258799 1.410925
v -0.630558 0.260629 1.409905
v -0.628030 0.257198 1.410910
v -0.634159 0.250065 1.410135
v -0.633564 0.254763 1.411902
v -0.636475 0.250582 1.409551
v -0.635254 0.255851 1.411092
v -0.631585 0.257669 1.412341
v -0.630476 0.256180 1.411880
v -0.632387 0.248310 1.394482
v -0.635826 0.248009 1.396166
v -0.637033 0.249556 1.397609
v -0.636611 0.254791 1.400753
v -0.639660 0.247876 1.401339
v -0.639367 0.246341 1.405024
v -0.638165 0.251779 1.407757
v -0.638714 0.253391 1.404796
v -0.636195 0.257114 1.409591
v -0.636739 0.258024 1.406753
v -0.635250 0.259119 1.403940
v -0.633677 0.259960 1.409664
v -0.632845 0.259345 1.411242
v -0.632051 0.261170 1.408561
v -0.634436 0.260202 1.407912
v -0.633417 0.260813 1.406729
v -0.658318 0.244128 1.373942
v -0.558622 0.260958 1.314993
v -0.563195 0.259384 1.318246
v -0.564930 0.271032 1.330081
v -0.566473 0.264295 1.327936
v -0.560316 0.276192 1.328599
v -0.552936 0.277179 1.320443
v -0.557005 0.278451 1.324373
v -0.566000 0.260284 1.323424
v -0.554776 0.265531 1.313432
v -0.552252 0.272383 1.315141
v -0.547841 0.257606 1.318012
v -0.544067 0.265706 1.321081
v -0.544683 0.270487 1.326948
v -0.552121 0.273733 1.329947
v -0.556619 0.273328 1.332430
v -0.556441 0.256674 1.318813
v -0.561339 0.256641 1.321287
v -0.564555 0.259623 1.326487
v -0.557933 0.251802 1.324392
v -0.553786 0.250301 1.332646
v -0.553293 0.257378 1.351664
v -0.552341 0.261090 1.345665
v -0.551655 0.258623 1.344946
v -0.552241 0.255472 1.350592
v -0.549756 0.261649 1.340109
v -0.550579 0.259473 1.340370
v -0.550943 0.255843 1.336458
v -0.552064 0.253043 1.342135
v -0.553890 0.251785 1.335382
v -0.555906 0.249525 1.339099
v -0.553010 0.250135 1.347347
v -0.552258 0.252005 1.352868
v -0.553854 0.247876 1.351653
v -0.554256 0.253050 1.354836
v -0.546920 0.255060 1.334308
v -0.551094 0.267657 1.337969
v -0.554061 0.263974 1.345614
v -0.556123 0.259508 1.352075
v -0.557216 0.254211 1.355060
v -0.557987 0.265167 1.345369
v -0.559805 0.260337 1.350428
v -0.561020 0.255181 1.352563
v -0.562384 0.263857 1.343881
v -0.562743 0.258957 1.348220
v -0.562239 0.269001 1.334975
v -0.556547 0.270814 1.336625
v -0.562449 0.255555 1.350277
v -0.555681 0.247247 1.353597
v -0.558851 0.248510 1.353532
v -0.558006 0.248313 1.336843
v -0.556519 0.246528 1.343811
v -0.559049 0.246063 1.342949
v -0.561194 0.248785 1.334731
v -0.561660 0.246438 1.342466
v -0.558169 0.244946 1.348565
v -0.555735 0.245849 1.347975
v -0.561955 0.270298 1.332985
v -0.564652 0.264942 1.330392
v -0.565044 0.264354 1.331390
v -0.565809 0.259612 1.340089
v -0.565804 0.258854 1.328424
v -0.562596 0.254356 1.325472
v -0.564398 0.250479 1.334909
v -0.566366 0.254419 1.336578
v -0.564042 0.248949 1.342633
v -0.564946 0.251762 1.343210
v -0.564822 0.255725 1.345992
v -0.562926 0.248643 1.347826
v -0.560989 0.245897 1.348274
v -0.561930 0.250895 1.351449
v -0.563744 0.250945 1.346802
v -0.563280 0.253018 1.349120
v -0.653257 0.253717 1.366857
v -0.646940 0.251717 1.365380
v -0.648328 0.256819 1.362604
v -0.648183 0.264881 1.358345
v -0.654376 0.272470 1.354548
v -0.642561 0.262368 1.354833
v -0.642825 0.254186 1.359647
v -0.641003 0.246502 1.363503
v -0.638282 0.266131 1.346269
f 2 3 1
f 1 3 4
f 5 6 8
f 8 6 7
f 9 4 10
f 10 4 3
f 12 13 11
f 11 13 9
f 14 12 16
f 16 12 15
f 18 19 17
f 17 19 20
f 22 23 21
f 21 23 24
f 26 27 25
f 25 27 28
f 30 31 29
f 29 31 32
f 33 34 36
f 36 34 35
f 37 38 40
f 40 38 39
f 41 42 6
f 6 42 43
f 6 43 7
f 7 43 44
f 45 34 46
f 46 34 33
f 48 49 47
f 47 49 50
f 52 53 51
f 51 53 54
f 56 52 55
f 55 52 51
f 58 59 57
f 57 59 60
f 61 62 4
f 4 62 1
f 64 65 63
f 63 65 66
f 68 69 67
f 67 69 70
f 72 73 71
f 71 73 74
f 76 77 75
f 75 77 78
f 53 79 54
f 54 79 80
f 82 83 81
f 81 83 84
f 85 86 52
f 52 86 53
f 57 60 87
f 87 60 88
f 89 90 43
f 43 90 44
f 43 42 89
f 89 42 91
f 40 39 92
f 92 39 93
f 94 70 64
f 64 70 69
f 13 61 9
f 9 61 4
f 25 28 69
f 69 28 95
f 96 25 68
f 68 25 69
f 98 99 97
f 97 99 100
f 101 102 104
f 104 102 103
f 106 30 105
f 105 30 29
f 51 54 107
f 107 54 108
f 54 80 108
f 108 80 109
f 111 112 110
f 110 112 113
f 115 5 114
f 114 5 116
f 115 41 5
f 5 41 6
f 36 35 111
f 111 35 117
f 35 118 117
f 117 118 119
f 34 120 35
f 35 120 118
f 34 45 120
f 120 45 121
f 125 126 124
f 124 126 127
f 128 129 14
f 14 129 130
f 33 131 46
f 46 131 132
f 133 94 63
f 63 94 64
f 134 135 137
f 137 135 136
f 139 140 138
f 138 140 141
f 77 142 78
f 78 142 143
f 144 145 20
f 20 145 146
f 148 149 147
f 147 149 72
f 151 152 150
f 150 152 153
f 82 101 83
f 83 101 104
f 101 82 155
f 155 82 154
f 156 157 58
f 58 157 59
f 158 68 147
f 147 68 67
f 159 146 15
f 15 146 16
f 68 158 96
f 96 158 160
f 129 66 130
f 130 66 65
f 162 163 161
f 161 163 164
f 166 167 165
f 165 167 168
f 170 171 169
f 169 171 172
f 174 171 173
f 173 171 170
f 176 177 175
f 175 177 178
f 180 181 179
f 179 181 24
f 182 183 21
f 21 183 184
f 81 185 82
f 82 185 154
f 186 187 188
f 188 187 144
f 158 71 160
f 160 71 189
f 190 135 157
f 157 135 59
f 169 172 139
f 139 172 140
f 147 72 158
f 158 72 71
f 192 193 191
f 191 193 194
f 167 166 49
f 49 166 195
f 196 190 50
f 50 190 157
f 197 198 200
f 200 198 199
f 21 24 182
f 182 24 181
f 146 159 20
f 20 159 17
f 182 181 81
f 81 181 185
f 201 185 180
f 180 185 181
f 202 203 83
f 83 203 84
f 205 206 204
f 204 206 85
f 207 22 184
f 184 22 21
f 179 24 208
f 208 24 23
f 208 209 179
f 179 209 205
f 209 210 205
f 205 210 206
f 212 206 211
f 211 206 210
f 179 205 180
f 180 205 204
f 213 176 88
f 88 176 214
f 86 85 212
f 212 85 206
f 193 217 218
f 217 219 218
f 218 219 220
f 219 18 220
f 220 18 17
f 19 221 20
f 20 221 144
f 222 223 225
f 225 223 224
f 175 226 176
f 176 226 214
f 227 87 214
f 214 87 88
f 220 17 228
f 228 17 159
f 134 213 60
f 60 213 88
f 138 229 151
f 151 229 152
f 193 192 210
f 210 192 211
f 230 194 218
f 218 194 193
f 231 232 228
f 228 232 230
f 233 234 91
f 91 234 89
f 235 236 93
f 93 236 92
f 230 232 234
f 234 232 237
f 47 238 48
f 48 238 239
f 240 191 235
f 235 191 236
f 5 8 116
f 116 8 241
f 242 243 189
f 189 243 160
f 244 245 98
f 98 245 99
f 156 246 47
f 47 246 238
f 76 247 77
f 77 247 248
f 250 125 249
f 249 125 124
f 252 253 251
f 251 253 254
f 111 110 36
f 36 110 255
f 256 33 255
f 255 33 36
f 257 258 154
f 154 258 155
f 63 169 133
f 133 169 139
f 66 170 63
f 63 170 169
f 173 170 129
f 129 170 66
f 129 128 173
f 173 128 259
f 128 260 259
f 259 260 261
f 213 134 262
f 262 134 137
f 263 264 186
f 186 264 187
f 112 265 113
f 113 265 266
f 11 267 268
f 234 233 230
f 230 233 194
f 153 269 70
f 70 269 67
f 175 178 165
f 165 178 141
f 150 153 94
f 94 153 70
f 271 221 270
f 270 221 207
f 269 153 272
f 272 153 152
f 121 45 109
f 109 45 108
f 47 50 156
f 156 50 157
f 57 273 58
f 58 273 274
f 145 275 260
f 260 275 261
f 276 149 143
f 143 149 78
f 148 269 75
f 75 269 272
f 207 277 270
f 270 277 278
f 195 196 49
f 49 196 50
f 59 135 60
f 60 135 134
f 83 104 202
f 202 104 279
f 149 148 78
f 78 148 75
f 247 278 248
f 248 278 277
f 183 182 84
f 84 182 81
f 48 239 281
f 281 239 282
f 227 223 283
f 283 223 222
f 223 226 224
f 224 226 168
f 281 282 224
f 224 282 225
f 165 168 175
f 175 168 226
f 264 263 138
f 138 263 229
f 14 16 128
f 128 16 260
f 220 228 218
f 218 228 230
f 87 227 284
f 284 227 283
f 260 16 145
f 145 16 146
f 244 98 258
f 258 98 155
f 58 274 156
f 156 274 246
f 107 285 51
f 51 285 55
f 243 286 160
f 160 286 96
f 234 237 89
f 89 237 90
f 46 132 107
f 107 132 285
f 253 252 249
f 249 252 250
f 286 26 96
f 96 26 25
f 106 105 287
f 287 105 288
f 272 152 289
f 289 152 229
f 138 151 139
f 139 151 133
f 183 290 161
f 161 290 162
f 291 292 277
f 277 292 293
f 151 150 133
f 133 150 94
f 262 275 177
f 177 275 187
f 144 187 145
f 145 187 275
f 273 57 284
f 284 57 87
f 174 136 190
f 190 136 135
f 111 117 112
f 112 117 38
f 117 119 38
f 38 119 123
f 112 38 265
f 265 38 37
f 287 288 254
f 254 288 251
f 228 159 231
f 231 159 15
f 223 227 226
f 226 227 214
f 147 67 148
f 148 67 269
f 224 168 281
f 281 168 167
f 199 163 200
f 200 163 162
f 45 46 108
f 108 46 107
f 281 167 48
f 48 167 49
f 161 164 291
f 291 164 292
f 38 123 39
f 293 294 277
f 277 294 248
f 284 283 296
f 296 283 295
f 284 296 273
f 273 296 297
f 274 273 298
f 298 273 297
f 246 274 299
f 299 274 298
f 283 222 295
f 295 222 300
f 222 225 300
f 300 225 301
f 301 225 302
f 302 225 282
f 303 304 300
f 300 304 295
f 306 307 305
f 305 307 308
f 309 310 308
f 308 310 305
f 308 307 312
f 312 307 311
f 313 314 312
f 312 314 315
f 311 316 312
f 312 316 313
f 317 304 311
f 311 304 316
f 315 309 312
f 312 309 308
f 318 319 321
f 321 319 320
f 319 318 309
f 309 318 310
f 311 307 317
f 317 307 306
f 306 297 317
f 317 297 296
f 306 322 297
f 297 322 298
f 305 323 306
f 306 323 322
f 323 305 324
f 324 305 310
f 304 317 295
f 295 317 296
f 318 325 310
f 310 325 324
f 323 324 326
f 326 324 327
f 324 325 327
f 327 325 328
f 326 327 329
f 329 327 330
f 329 331 326
f 326 331 332
f 333 330 328
f 328 330 327
f 323 326 322
f 322 326 332
f 322 332 298
f 298 332 299
f 325 318 334
f 334 318 321
f 313 316 335
f 335 316 304
f 335 336 313
f 313 336 314
f 304 303 335
f 335 303 337
f 336 335 338
f 338 335 337
f 336 339 314
f 314 339 340
f 246 299 238
f 238 299 341
f 239 342 282
f 282 342 302
f 342 239 341
f 341 239 238
f 341 331 342
f 342 331 343
f 331 329 343
f 343 329 344
f 342 343 302
f 302 343 345
f 341 299 331
f 331 299 332
f 346 301 345
f 345 301 302
f 346 303 301
f 301 303 300
f 347 337 346
f 346 337 303
f 347 346 348
f 348 346 345
f 349 347 350
f 350 347 348
f 343 344 345
f 345 344 348
f 344 351 348
f 348 351 350
f 337 347 338
f 338 347 349
f 353 338 352
f 352 338 349
f 352 355 354
f 354 355 356
f 352 349 355
f 355 349 350
f 352 354 353
f 353 354 334
f 353 334 339
f 339 334 321
f 339 336 353
f 353 336 338
f 329 330 344
f 344 330 351
f 356 351 333
f 333 351 330
f 356 355 351
f 351 355 350
f 354 356 328
f 328 356 333
f 328 325 354
f 354 325 334
f 309 315 319
f 319 315 320
f 320 340 321
f 321 340 339
f 320 315 340
f 340 315 314
f 137 136 261
f 261 136 259
f 140 166 141
f 141 166 165
f 172 171 195
f 195 171 196
f 171 174 196
f 196 174 190
f 178 177 264
f 264 177 187
f 172 195 140
f 140 195 166
f 137 261 262
f 262 261 275
f 178 264 141
f 141 264 138
f 262 177 213
f 213 177 176
f 136 174 259
f 259 174 173
f 358 359 357
f 357 359 360
f 362 363 361
f 361 363 364
f 361 364 365
f 365 364 366
f 367 368 370
f 370 368 369
f 76 371 247
f 247 371 372
f 373 374 362
f 362 374 363
f 376 377 375
f 375 377 378
f 289 229 380
f 380 229 379
f 381 379 263
f 263 379 229
f 383 384 382
f 382 384 385
f 386 368 374
f 374 368 363
f 76 289 371
f 371 289 380
f 377 376 359
f 359 376 387
f 388 386 360
f 360 386 374
f 389 383 366
f 366 383 390
f 392 393 391
f 391 393 394
f 383 382 390
f 390 382 395
f 396 365 390
f 390 365 366
f 389 366 367
f 367 366 364
f 357 397 358
f 358 397 398
f 373 399 357
f 357 399 397
f 389 367 400
f 400 367 370
f 382 385 375
f 375 385 372
f 357 360 373
f 373 360 374
f 361 401 362
f 362 401 402
f 387 388 359
f 359 388 360
f 363 368 364
f 364 368 367
f 358 398 403
f 403 398 404
f 396 392 405
f 405 392 391
f 392 395 393
f 393 395 378
f 393 403 394
f 394 403 404
f 375 378 382
f 382 378 395
f 365 396 406
f 406 396 405
f 362 402 373
f 373 402 399
f 271 270 400
f 400 270 384
f 401 361 406
f 406 361 365
f 381 369 386
f 386 369 368
f 392 396 395
f 395 396 390
f 393 378 403
f 403 378 377
f 403 377 358
f 358 377 359
f 406 405 408
f 408 405 407
f 406 408 401
f 401 408 409
f 401 409 402
f 402 409 410
f 402 410 399
f 399 410 411
f 405 391 407
f 407 391 412
f 391 394 412
f 412 394 413
f 394 404 413
f 413 404 414
f 415 416 412
f 412 416 407
f 418 419 417
f 417 419 420
f 421 422 418
f 418 422 419
f 419 422 424
f 424 422 423
f 425 426 424
f 424 426 427
f 423 428 424
f 424 428 425
f 427 420 424
f 424 420 419
f 420 429 417
f 417 429 430
f 423 422 431
f 431 422 421
f 421 409 431
f 431 409 408
f 421 432 409
f 409 432 410
f 418 433 421
f 421 433 432
f 434 433 417
f 417 433 418
f 431 416 423
f 423 416 428
f 416 431 407
f 407 431 408
f 435 434 430
f 430 434 417
f 433 434 436
f 436 434 437
f 434 435 437
f 437 435 438
f 436 437 439
f 439 437 440
f 439 441 436
f 436 441 442
f 438 443 437
f 437 443 440
f 436 442 433
f 433 442 432
f 432 442 410
f 410 442 411
f 435 430 445
f 445 430 444
f 430 429 444
f 444 429 446
f 425 428 447
f 447 428 416
f 426 425 448
f 448 425 447
f 416 415 447
f 447 415 449
f 447 449 448
f 448 449 450
f 451 452 448
f 448 452 426
f 446 452 444
f 444 452 451
f 399 411 397
f 397 411 453
f 398 454 404
f 404 454 414
f 454 398 453
f 453 398 397
f 453 441 454
f 454 441 455
f 441 439 455
f 455 439 456
f 454 455 414
f 414 455 457
f 441 453 442
f 442 453 411
f 458 413 457
f 457 413 414
f 458 415 413
f 413 415 412
f 458 459 415
f 415 459 449
f 459 458 460
f 460 458 457
f 461 459 462
f 462 459 460
f 455 456 457
f 457 456 460
f 456 463 460
f 460 463 462
f 459 461 449
f 449 461 450
f 465 450 464
f 464 450 461
f 464 467 466
f 466 467 468
f 464 461 467
f 467 461 462
f 464 466 465
f 465 466 445
f 465 445 451
f 451 445 444
f 451 448 465
f 465 448 450
f 439 440 456
f 456 440 463
f 468 463 443
f 443 463 440
f 468 467 463
f 463 467 462
f 466 468 438
f 438 468 443
f 438 435 466
f 466 435 445
f 420 427 429
f 429 427 446
f 446 427 452
f 452 427 426
f 370 369 188
f 188 369 186
f 371 376 372
f 372 376 375
f 380 379 387
f 387 379 388
f 379 381 388
f 388 381 386
f 385 384 278
f 278 384 270
f 380 387 371
f 371 387 376
f 400 370 271
f 271 370 188
f 385 278 372
f 372 278 247
f 400 384 389
f 389 384 383
f 369 381 186
f 186 381 263
f 221 271 144
f 144 271 188
f 221 19 207
f 207 19 22
f 19 18 22
f 22 18 23
f 18 219 23
f 23 219 208
f 469 470 472
f 472 470 471
f 474 475 473
f 473 475 476
f 473 476 477
f 477 476 478
f 480 481 479
f 479 481 482
f 483 484 474
f 474 484 475
f 486 487 485
f 485 487 488
f 489 490 77
f 77 490 142
f 491 489 248
f 248 489 77
f 493 494 492
f 492 494 495
f 496 480 484
f 484 480 475
f 486 497 487
f 487 497 471
f 498 496 472
f 472 496 484
f 499 493 478
f 478 493 500
f 501 502 504
f 504 502 503
f 493 492 500
f 500 492 505
f 506 477 500
f 500 477 478
f 499 478 479
f 479 478 476
f 469 507 470
f 470 507 508
f 483 509 469
f 469 509 507
f 479 482 499
f 499 482 510
f 492 495 485
f 485 495 511
f 483 469 484
f 484 469 472
f 473 512 474
f 474 512 513
f 497 498 471
f 471 498 472
f 475 480 476
f 476 480 479
f 470 508 514
f 514 508 515
f 506 502 516
f 516 502 501
f 503 502 488
f 488 502 505
f 514 515 503
f 503 515 504
f 485 488 492
f 492 488 505
f 477 506 517
f 517 506 516
f 474 513 483
f 483 513 509
f 510 292 494
f 494 292 164
f 512 473 517
f 517 473 477
f 491 481 496
f 496 481 480
f 502 506 505
f 505 506 500
f 503 488 514
f 514 488 487
f 514 487 470
f 470 487 471
f 517 516 519
f 519 516 518
f 517 519 512
f 512 519 520
f 512 520 513
f 513 520 521
f 513 521 509
f 509 521 522
f 516 501 518
f 518 501 523
f 501 504 523
f 523 504 524
f 524 504 525
f 525 504 515
f 526 527 523
f 523 527 518
f 529 530 528
f 528 530 531
f 532 533 529
f 529 533 530
f 530 533 535
f 535 533 534
f 536 537 535
f 535 537 538
f 534 539 535
f 535 539 536
f 538 531 535
f 535 531 530
f 540 541 531
f 531 541 528
f 533 532 534
f 534 532 542
f 532 520 542
f 542 520 519
f 532 543 520
f 520 543 521
f 529 544 532
f 532 544 543
f 544 529 545
f 545 529 528
f 534 542 539
f 539 542 527
f 527 542 518
f 518 542 519
f 541 546 528
f 528 546 545
f 547 544 548
f 548 544 545
f 546 549 545
f 545 549 548
f 550 547 551
f 551 547 548
f 547 550 553
f 553 550 552
f 549 554 548
f 548 554 551
f 544 547 543
f 543 547 553
f 543 553 521
f 521 553 522
f 546 541 556
f 556 541 555
f 541 540 555
f 555 540 557
f 536 539 558
f 558 539 527
f 537 536 559
f 559 536 558
f 527 526 558
f 558 526 560
f 559 558 561
f 561 558 560
f 559 562 537
f 537 562 563
f 557 563 555
f 555 563 562
f 509 522 507
f 507 522 564
f 508 565 515
f 515 565 525
f 565 508 564
f 564 508 507
f 564 552 565
f 565 552 566
f 552 550 566
f 566 550 567
f 565 566 525
f 525 566 568
f 564 522 552
f 552 522 553
f 569 524 568
f 568 524 525
f 569 526 524
f 524 526 523
f 570 560 569
f 569 560 526
f 570 569 571
f 571 569 568
f 572 570 573
f 573 570 571
f 566 567 568
f 568 567 571
f 567 574 571
f 571 574 573
f 570 572 560
f 560 572 561
f 576 561 575
f 575 561 572
f 575 578 577
f 577 578 579
f 575 572 578
f 578 572 573
f 575 577 576
f 576 577 556
f 576 556 562
f 562 556 555
f 562 559 576
f 576 559 561
f 550 551 567
f 567 551 574
f 579 574 554
f 554 574 551
f 579 578 574
f 574 578 573
f 579 554 577
f 577 554 549
f 549 546 577
f 577 546 556
f 531 538 540
f 540 538 557
f 557 538 563
f 563 538 537
f 481 294 482
f 482 294 293
f 580 486 511
f 511 486 485
f 490 489 497
f 497 489 498
f 489 491 498
f 498 491 496
f 163 495 164
f 164 495 494
f 580 490 486
f 486 490 497
f 482 293 510
f 510 293 292
f 495 163 511
f 511 163 199
f 494 493 510
f 510 493 499
f 481 491 294
f 294 491 248
f 582 583 581
f 581 583 584
f 586 587 585
f 585 587 588
f 585 588 589
f 589 588 590
f 592 593 591
f 591 593 594
f 595 596 598
f 598 596 597
f 599 600 586
f 586 600 587
f 601 602 604
f 604 602 603
f 605 606 608
f 608 606 607
f 609 607 200
f 200 607 606
f 610 611 613
f 613 611 612
f 600 614 587
f 587 614 592
f 596 605 597
f 597 605 608
f 602 615 603
f 603 615 583
f 616 614 584
f 584 614 600
f 611 618 617
f 617 618 590
f 620 621 619
f 619 621 622
f 610 623 611
f 611 623 618
f 624 589 618
f 618 589 590
f 617 590 591
f 591 590 588
f 581 625 582
f 582 625 626
f 599 627 581
f 581 627 625
f 591 594 617
f 617 594 628
f 601 610 598
f 598 610 613
f 581 584 599
f 599 584 600
f 585 629 586
f 586 629 630
f 615 616 583
f 583 616 584
f 587 592 588
f 588 592 591
f 582 626 631
f 631 626 632
f 624 620 633
f 633 620 619
f 621 620 604
f 604 620 623
f 631 632 621
f 621 632 622
f 610 601 623
f 623 601 604
f 589 624 634
f 634 624 633
f 586 630 599
f 599 630 627
f 203 202 628
f 628 202 612
f 629 585 634
f 634 585 589
f 609 593 614
f 614 593 592
f 620 624 623
f 623 624 618
f 631 621 603
f 603 621 604
f 582 631 583
f 583 631 603
f 634 633 636
f 636 633 635
f 634 636 629
f 629 636 637
f 629 637 630
f 630 637 638
f 630 638 627
f 627 638 639
f 633 619 635
f 635 619 640
f 619 622 640
f 640 622 641
f 641 622 642
f 642 622 632
f 644 635 643
f 643 635 640
f 645 646 648
f 648 646 647
f 649 650 646
f 646 650 647
f 647 650 652
f 652 650 651
f 652 653 655
f 655 653 654
f 651 656 652
f 652 656 653
f 655 648 652
f 652 648 647
f 648 657 645
f 645 657 658
f 650 649 651
f 651 649 659
f 649 637 659
f 659 637 636
f 649 660 637
f 637 660 638
f 661 660 646
f 646 660 649
f 662 661 645
f 645 661 646
f 651 659 656
f 656 659 644
f 644 659 635
f 635 659 636
f 663 662 658
f 658 662 645
f 664 661 665
f 665 661 662
f 663 666 662
f 662 666 665
f 667 664 668
f 668 664 665
f 664 667 670
f 670 667 669
f 666 671 665
f 665 671 668
f 661 664 660
f 660 664 670
f 660 670 638
f 638 670 639
f 658 672 663
f 663 672 673
f 658 657 672
f 672 657 674
f 653 656 675
f 675 656 644
f 653 675 654
f 654 675 676
f 675 644 677
f 677 644 643
f 676 675 678
f 678 675 677
f 679 680 676
f 676 680 654
f 674 680 672
f 672 680 679
f 627 639 625
f 625 639 681
f 626 682 632
f 632 682 642
f 681 682 625
f 625 682 626
f 669 683 681
f 681 683 682
f 667 684 669
f 669 684 683
f 682 683 642
f 642 683 685
f 681 639 669
f 669 639 670
f 686 641 685
f 685 641 642
f 641 686 640
f 640 686 643
f 686 687 643
f 643 687 677
f 687 686 688
f 688 686 685
f 689 687 690
f 690 687 688
f 683 684 685
f 685 684 688
f 684 691 688
f 688 691 690
f 687 689 677
f 677 689 678
f 693 678 692
f 692 678 689
f 692 695 694
f 694 695 696
f 692 689 695
f 695 689 690
f 692 694 693
f 693 694 673
f 693 673 679
f 679 673 672
f 679 676 693
f 693 676 678
f 684 667 691
f 691 667 668
f 696 691 671
f 671 691 668
f 696 695 691
f 691 695 690
f 694 696 666
f 666 696 671
f 666 663 694
f 694 663 673
f 648 655 657
f 657 655 674
f 674 655 680
f 680 655 654
f 593 162 594
f 594 162 290
f 598 597 601
f 601 597 602
f 615 608 616
f 616 608 607
f 607 609 616
f 616 609 614
f 697 595 613
f 613 595 598
f 597 608 602
f 602 608 615
f 594 290 628
f 628 290 203
f 628 612 617
f 617 612 611
f 593 609 162
f 162 609 200
f 105 29 698
f 698 29 699
f 268 126 701
f 701 126 700
f 126 125 700
f 700 125 702
f 252 703 250
f 250 703 704
f 32 268 705
f 705 268 701
f 288 105 706
f 706 105 698
f 29 32 699
f 699 32 705
f 707 251 706
f 706 251 288
f 250 704 125
f 125 704 702
f 703 252 707
f 707 252 251
f 706 708 707
f 707 708 709
f 707 709 703
f 703 709 710
f 703 710 704
f 704 710 711
f 704 711 702
f 702 711 712
f 706 698 708
f 708 698 713
f 698 699 713
f 713 699 714
f 699 705 714
f 714 705 715
f 717 708 716
f 716 708 713
f 719 720 718
f 718 720 721
f 722 723 719
f 719 723 720
f 724 725 723
f 723 725 720
f 724 726 725
f 725 726 727
f 728 721 725
f 725 721 720
f 721 728 729
f 729 728 730
f 729 731 721
f 721 731 718
f 724 723 732
f 732 723 722
f 722 710 732
f 732 710 709
f 722 733 710
f 710 733 711
f 719 734 722
f 722 734 733
f 734 719 735
f 735 719 718
f 724 732 726
f 726 732 717
f 717 732 708
f 708 732 709
f 731 736 718
f 718 736 735
f 737 734 738
f 738 734 735
f 736 739 735
f 735 739 738
f 740 737 741
f 741 737 738
f 737 740 743
f 743 740 742
f 739 744 738
f 738 744 741
f 734 737 733
f 733 737 743
f 733 743 711
f 711 743 712
f 736 731 746
f 746 731 745
f 731 729 745
f 745 729 730
f 727 726 747
f 747 726 717
f 748 727 749
f 749 727 747
f 747 717 750
f 750 717 716
f 749 747 751
f 751 747 750
f 749 752 748
f 748 752 753
f 730 753 745
f 745 753 752
f 728 725 748
f 748 725 727
f 730 728 753
f 753 728 748
f 700 702 754
f 754 702 712
f 705 701 715
f 715 701 755
f 754 755 700
f 700 755 701
f 742 756 754
f 754 756 755
f 740 757 742
f 742 757 756
f 755 756 715
f 715 756 758
f 754 712 742
f 742 712 743
f 759 714 758
f 758 714 715
f 714 759 713
f 713 759 716
f 759 760 716
f 716 760 750
f 760 759 761
f 761 759 758
f 762 760 763
f 763 760 761
f 756 757 758
f 758 757 761
f 757 764 761
f 761 764 763
f 760 762 750
f 750 762 751
f 766 751 765
f 765 751 762
f 767 765 769
f 769 765 768
f 765 762 768
f 768 762 763
f 765 767 766
f 766 767 746
f 766 746 752
f 752 746 745
f 752 749 766
f 766 749 751
f 757 740 764
f 764 740 741
f 769 764 744
f 744 764 741
f 769 768 764
f 764 768 763
f 767 769 739
f 739 769 744
f 739 736 767
f 767 736 746
f 219 217 208
f 208 217 209
f 209 217 210
f 210 217 193
f 198 580 199
f 199 580 511
f 76 75 289
f 289 75 272
f 277 207 291
f 291 207 184
f 290 183 203
f 203 183 84
f 490 580 142
f 142 580 198
f 142 198 143
f 143 198 197
f 149 276 72
f 72 276 73
f 104 103 279
f 279 103 770
f 770 596 279
f 279 596 595
f 605 596 771
f 771 596 770
f 771 770 772
f 772 770 103
f 772 103 773
f 773 103 102
f 155 774 101
f 101 774 102
f 773 102 97
f 97 102 774
f 775 773 100
f 100 773 97
f 773 775 772
f 772 775 776
f 772 776 771
f 771 776 777
f 200 606 197
f 197 606 777
f 189 71 778
f 778 71 74
f 97 774 98
f 98 774 155
f 183 161 184
f 184 161 291
f 777 276 197
f 197 276 143
f 777 606 771
f 771 606 605
f 613 612 697
f 697 612 202
f 595 697 279
f 279 697 202
f 73 276 776
f 776 276 777
f 776 775 73
f 73 775 74
f 100 778 775
f 775 778 74
f 778 100 189
f 189 100 99
f 245 242 99
f 99 242 189
f 131 33 256
f 28 1 95
f 95 1 62
f 27 2 28
f 28 2 1
f 265 115 266
f 266 115 114
f 95 62 69
f 69 62 64
f 62 61 64
f 64 61 65
f 61 13 65
f 65 13 130
f 13 12 130
f 130 12 14
f 31 11 32
f 32 11 268
f 15 12 31
f 31 12 11
f 31 30 15
f 15 30 231
f 30 106 231
f 231 106 232
f 287 237 106
f 106 237 232
f 254 90 287
f 287 90 237
f 253 44 254
f 254 44 90
f 253 249 44
f 44 249 7
f 267 127 268
f 268 127 126
f 10 3 241
f 241 3 116
f 3 2 116
f 116 2 114
f 2 27 114
f 114 27 266
f 27 26 266
f 266 26 113
f 26 286 113
f 113 286 110
f 286 243 110
f 110 243 255
f 243 242 255
f 255 242 256
f 242 245 256
f 256 245 131
f 245 244 131
f 131 244 132
f 265 37 115
f 115 37 41
f 41 37 42
f 42 37 40
f 92 91 40
f 40 91 42
f 236 233 92
f 92 233 91
f 191 194 236
f 236 194 233
f 258 285 244
f 244 285 132
f 257 55 258
f 258 55 285
f 257 154 201
f 201 154 185
f 56 201 204
f 204 201 180
f 55 257 56
f 56 257 201
f 204 85 56
f 56 85 52
f 86 122 53
f 53 122 79
f 212 215 86
f 86 215 122
f 211 216 212
f 212 216 215
f 192 280 211
f 211 280 216
f 191 240 192
f 192 240 280
f 249 124 7
f 7 124 8
f 124 127 8
f 8 127 241
f 127 267 241
f 241 267 10
f 10 267 9
f 9 267 11
o hand_right
v 0.745648 0.056658 1.413056
v 0.747893 0.066071 1.411291
v 0.736308 0.066800 1.413948
v 0.734793 0.056319 1.414979
v 0.745220 0.088215 1.411476
v 0.742749 0.097293 1.402898
v 0.727973 0.094686 1.408528
v 0.732743 0.088331 1.415406
v 0.726007 0.055990 1.414088
v 0.728248 0.067582 1.415412
v 0.722373 0.057403 1.408724
v 0.722799 0.042316 1.404347
v 0.725984 0.044281 1.411329
v 0.723824 0.032204 1.404470
v 0.726748 0.043102 1.393508
v 0.728804 0.025907 1.398276
v 0.757378 0.034040 1.389011
v 0.770867 0.033919 1.391962
v 0.766564 0.018058 1.400163
v 0.753012 0.020297 1.397243
v 0.785606 0.025705 1.405635
v 0.774947 0.020858 1.403015
v 0.779629 0.035696 1.393781
v 0.788804 0.039418 1.396721
v 0.763711 0.059165 1.412096
v 0.767543 0.068051 1.409312
v 0.760662 0.066363 1.409070
v 0.757543 0.058499 1.411577
v 0.713932 0.068312 1.404147
v 0.719905 0.063849 1.394003
v 0.720487 0.058258 1.400198
v 0.716326 0.067571 1.408964
v 0.784008 0.093061 1.407641
v 0.787526 0.100610 1.396891
v 0.782139 0.100776 1.394557
v 0.780240 0.093206 1.404672
v 0.760362 0.100072 1.393944
v 0.766532 0.102416 1.386527
v 0.761586 0.104213 1.373221
v 0.754877 0.099777 1.377773
v 0.751997 0.098252 1.399550
v 0.747173 0.099659 1.385993
v 0.738461 0.098618 1.391763
v 0.723173 0.096162 1.400199
v 0.799966 0.098370 1.399488
v 0.799125 0.092940 1.408122
v 0.712773 0.027647 1.442579
v 0.718485 0.028281 1.444551
v 0.719412 0.027792 1.441539
v 0.713797 0.026917 1.439873
v 0.812396 0.082867 1.395099
v 0.813316 0.076812 1.387052
v 0.815817 0.083399 1.385061
v 0.813290 0.089613 1.391713
v 0.811153 0.073975 1.399578
v 0.809264 0.068019 1.390147
v 0.707597 0.017422 1.448300
v 0.706707 0.021845 1.445588
v 0.707654 0.018510 1.441822
v 0.709139 0.013454 1.444083
v 0.733177 0.046471 1.415359
v 0.743088 0.048364 1.416433
v 0.733141 0.030933 1.420282
v 0.737622 0.036297 1.419060
v 0.731270 0.037459 1.415310
v 0.728492 0.032072 1.416089
v 0.761079 0.039129 1.422042
v 0.764111 0.049101 1.416881
v 0.757502 0.047772 1.416034
v 0.752584 0.037483 1.421748
v 0.777085 0.051434 1.422269
v 0.773181 0.041187 1.426468
v 0.781101 0.043704 1.428892
v 0.782184 0.051068 1.426365
v 0.763952 0.023972 1.431194
v 0.762096 0.019842 1.431946
v 0.765476 0.021523 1.434762
v 0.767564 0.025229 1.432262
v 0.818128 0.089422 1.382026
v 0.813436 0.095848 1.387868
v 0.804233 0.034150 1.414177
v 0.809062 0.043104 1.419377
v 0.808219 0.031313 1.427142
v 0.803351 0.023894 1.419061
v 0.808201 0.071591 1.379639
v 0.812948 0.077473 1.377412
v 0.711987 0.013917 1.451478
v 0.713450 0.010190 1.447871
v 0.738171 0.091738 1.380770
v 0.720881 0.090929 1.392115
v 0.749736 0.092649 1.373559
v 0.757323 0.094036 1.368113
v 0.762005 0.098184 1.362898
v 0.742450 0.032598 1.422492
v 0.752272 0.051154 1.414700
v 0.768824 0.059930 1.413383
v 0.795877 0.061817 1.428624
v 0.797923 0.071182 1.424302
v 0.787485 0.068491 1.423362
v 0.788019 0.060508 1.426867
v 0.807828 0.048941 1.427411
v 0.801200 0.051283 1.431765
v 0.800415 0.043067 1.435129
v 0.806882 0.038839 1.432361
v 0.709350 0.073068 1.400100
v 0.719359 0.070168 1.389076
v 0.807747 0.089252 1.402229
v 0.806836 0.095245 1.397253
v 0.808202 0.100774 1.390906
v 0.774599 0.080658 1.408806
v 0.777593 0.093282 1.402776
v 0.773207 0.092660 1.402295
v 0.771524 0.078948 1.407636
v 0.752997 0.076127 1.411511
v 0.757865 0.088606 1.407524
v 0.741330 0.076808 1.415490
v 0.775527 0.102339 1.390501
v 0.784364 0.108555 1.387968
v 0.776721 0.109036 1.383434
v 0.793722 0.106972 1.390631
v 0.802209 0.104403 1.391962
v 0.817914 0.082287 1.372388
v 0.769956 0.107821 1.378463
v 0.724075 0.087236 1.417134
v 0.717466 0.085029 1.419674
v 0.720273 0.077972 1.419277
v 0.725776 0.078927 1.417215
v 0.723728 0.023656 1.408002
v 0.724330 0.029374 1.412571
v 0.725131 0.036963 1.409789
v 0.786107 0.084266 1.414842
v 0.798850 0.084599 1.415113
v 0.737140 0.027824 1.423938
v 0.711980 0.011765 1.438276
v 0.710020 0.017213 1.436033
v 0.719521 0.019328 1.417947
v 0.721450 0.012609 1.419752
v 0.738367 0.020444 1.427666
v 0.735696 0.026894 1.425547
v 0.735069 0.026201 1.426882
v 0.737460 0.021685 1.431305
v 0.774336 0.024553 1.436538
v 0.775685 0.028340 1.434080
v 0.748761 0.009787 1.409407
v 0.736806 0.010643 1.401842
v 0.739793 0.022408 1.394273
v 0.768172 0.040757 1.423870
v 0.766225 0.031892 1.428628
v 0.770227 0.032516 1.429763
v 0.744518 0.029113 1.424732
v 0.741258 0.024064 1.426536
v 0.746025 0.024050 1.426318
v 0.749628 0.029895 1.425170
v 0.810624 0.054099 1.411608
v 0.809472 0.060636 1.421315
v 0.708632 0.025376 1.443272
v 0.709449 0.023494 1.439964
v 0.770980 0.050523 1.418797
v 0.744913 0.036355 1.388679
v 0.773998 0.060885 1.415224
v 0.786516 0.015342 1.425602
v 0.787207 0.019627 1.433192
v 0.784235 0.018127 1.437373
v 0.782720 0.013446 1.433852
v 0.729593 0.020291 1.444195
v 0.727025 0.025446 1.442540
v 0.724506 0.025459 1.444505
v 0.726889 0.020670 1.447374
v 0.731858 0.029757 1.422074
v 0.727102 0.029932 1.418359
v 0.725554 0.029546 1.421606
v 0.730689 0.028603 1.424970
v 0.723313 0.026464 1.414719
v 0.721294 0.025556 1.418484
v 0.728335 0.013803 1.445088
v 0.722623 0.008678 1.444335
v 0.732870 0.008722 1.427799
v 0.736071 0.014252 1.432609
v 0.792376 0.051128 1.387288
v 0.801737 0.054259 1.392611
v 0.798613 0.042479 1.401988
v 0.796531 0.029650 1.410728
v 0.792813 0.018145 1.419039
v 0.783267 0.013641 1.412857
v 0.805216 0.046338 1.405324
v 0.744440 0.013729 1.421326
v 0.739956 0.009221 1.417008
v 0.745989 0.010041 1.416815
v 0.780111 0.062255 1.419370
v 0.711508 0.022746 1.435122
v 0.771172 0.078736 1.360024
v 0.783348 0.074118 1.361556
v 0.778389 0.068361 1.366083
v 0.764828 0.073972 1.365048
v 0.721567 0.028412 1.439384
v 0.715740 0.027654 1.436169
v 0.781446 0.028595 1.437505
v 0.779305 0.024471 1.439429
v 0.781984 0.022908 1.440534
v 0.785472 0.026811 1.441187
v 0.806262 0.057465 1.395010
v 0.804532 0.026255 1.435186
v 0.800429 0.019497 1.426813
v 0.804138 0.064206 1.384212
v 0.796335 0.061213 1.379049
v 0.799770 0.068414 1.373332
v 0.769020 0.009707 1.414532
v 0.784580 0.047819 1.385185
v 0.789200 0.059132 1.377056
v 0.792975 0.067652 1.370132
v 0.796526 0.073311 1.365030
v 0.803563 0.073658 1.369158
v 0.716762 0.008865 1.441963
v 0.720001 0.010371 1.450665
v 0.808701 0.078580 1.363442
v 0.800302 0.078430 1.359453
v 0.780338 0.058044 1.374742
v 0.769222 0.057954 1.372919
v 0.776126 0.047278 1.382888
v 0.764647 0.046135 1.381536
v 0.761884 0.006012 1.406542
v 0.720169 0.023472 1.462389
v 0.723348 0.017235 1.454291
v 0.725361 0.021781 1.451082
v 0.723083 0.026050 1.460390
v 0.725586 0.015233 1.449675
v 0.718617 0.014014 1.454286
v 0.749706 0.049989 1.381329
v 0.743908 0.019564 1.426600
v 0.753157 0.065323 1.373501
v 0.731408 0.053674 1.384747
v 0.734194 0.066675 1.380526
v 0.755209 0.081604 1.366434
v 0.741269 0.080246 1.373991
v 0.766697 0.090235 1.357602
v 0.762022 0.084752 1.362080
v 0.726397 0.081209 1.382694
v 0.714650 0.033500 1.450395
v 0.720318 0.032490 1.452107
v 0.775371 0.083938 1.355085
v 0.732073 0.077615 1.416768
v 0.780309 0.072444 1.415622
v 0.775671 0.070717 1.412635
v 0.798490 0.076622 1.420951
v 0.786749 0.075412 1.419511
v 0.709481 0.031776 1.450944
v 0.762899 0.017338 1.432589
v 0.764215 0.018776 1.432763
v 0.719634 0.092905 1.412779
v 0.713752 0.090318 1.415764
v 0.706086 0.086148 1.405790
v 0.708477 0.090407 1.411209
v 0.714815 0.093767 1.405649
v 0.712199 0.089515 1.399527
v 0.776956 0.081639 1.410158
v 0.780369 0.082190 1.412211
v 0.811200 0.064798 1.405459
v 0.809538 0.070552 1.415423
v 0.723170 0.020548 1.412264
v 0.728139 0.016118 1.405450
v 0.726469 0.013970 1.411915
v 0.727471 0.008634 1.421561
v 0.742945 0.016940 1.425672
v 0.740020 0.014868 1.425863
v 0.765844 0.090179 1.405069
v 0.764003 0.076709 1.408353
v 0.723723 0.069874 1.414588
v 0.719659 0.070841 1.415209
v 0.757517 0.031721 1.425659
v 0.762662 0.008266 1.424397
v 0.756446 0.005916 1.417515
v 0.754586 0.023924 1.428227
v 0.706882 0.026324 1.456733
v 0.707214 0.029713 1.453141
v 0.732110 0.009655 1.412941
v 0.777794 0.035089 1.432748
v 0.768339 0.010658 1.423613
v 0.764326 0.011812 1.430140
v 0.804636 0.034717 1.436486
v 0.787315 0.080307 1.356455
v 0.723927 0.026427 1.447937
v 0.724016 0.029991 1.454937
v 0.716268 0.021598 1.462271
v 0.710622 0.021974 1.459662
v 0.807765 0.079877 1.409705
v 0.772330 0.069205 1.410990
v 0.714619 0.081392 1.391915
v 0.706927 0.080130 1.401150
v 0.753232 0.019916 1.428097
v 0.792293 0.018005 1.428237
v 0.779361 0.010461 1.422222
v 0.775515 0.008646 1.431532
v 0.767970 0.009723 1.431830
v 0.763533 0.014628 1.433839
v 0.716346 0.026213 1.466204
v 0.710588 0.026971 1.464007
v 0.707308 0.031293 1.460728
v 0.707680 0.033888 1.456705
v 0.710565 0.034820 1.453491
v 0.720519 0.028011 1.465964
v 0.723058 0.030094 1.463641
v 0.723968 0.031906 1.457482
v 0.721692 0.032251 1.467748
v 0.717351 0.033540 1.470465
v 0.710072 0.044616 1.466130
v 0.708820 0.038746 1.465701
v 0.710140 0.039947 1.467873
v 0.711409 0.044660 1.469113
v 0.713221 0.048818 1.471673
v 0.711832 0.049537 1.468476
v 0.712333 0.035958 1.469082
v 0.714473 0.042012 1.471356
v 0.718334 0.040509 1.472343
v 0.719394 0.045386 1.474787
v 0.715913 0.046859 1.474163
v 0.716478 0.036430 1.471006
v 0.711571 0.033642 1.468474
v 0.714602 0.052133 1.471179
v 0.714586 0.050820 1.473353
v 0.717159 0.049570 1.475094
v 0.718633 0.052160 1.474283
v 0.708614 0.038377 1.459593
v 0.710574 0.045534 1.463727
v 0.713856 0.050103 1.466104
v 0.716436 0.052546 1.469045
v 0.714090 0.046701 1.461922
v 0.716440 0.049901 1.464655
v 0.719065 0.051752 1.467128
v 0.718356 0.046755 1.461238
v 0.719594 0.049374 1.464188
v 0.715410 0.037631 1.454655
v 0.711241 0.037521 1.455409
v 0.720665 0.051095 1.465814
v 0.720298 0.052497 1.472828
v 0.721208 0.038383 1.471362
v 0.722351 0.045010 1.473467
v 0.723181 0.038478 1.469984
v 0.724482 0.044830 1.472407
v 0.722256 0.049020 1.475402
v 0.719795 0.048201 1.475526
v 0.715574 0.034670 1.452249
v 0.721257 0.033391 1.454112
v 0.721231 0.035736 1.456108
v 0.722837 0.045052 1.462052
v 0.724172 0.034518 1.459293
v 0.724063 0.034080 1.465267
v 0.724944 0.040169 1.468235
v 0.725452 0.042131 1.465405
v 0.725393 0.045208 1.470003
v 0.725040 0.046149 1.467617
v 0.723036 0.048260 1.465036
v 0.724565 0.049105 1.470784
v 0.723706 0.049114 1.473658
v 0.721903 0.051684 1.469905
v 0.724677 0.048687 1.468849
v 0.722406 0.050303 1.467660
v 0.741606 0.024054 1.452697
v 0.747791 0.024997 1.454103
v 0.747711 0.022251 1.450706
v 0.742438 0.021492 1.449569
v 0.737387 0.012040 1.458972
v 0.736239 0.017517 1.455692
v 0.736621 0.013437 1.451898
v 0.739288 0.007517 1.454887
v 0.743604 0.008730 1.461583
v 0.745713 0.005003 1.456810
v 0.740681 0.005344 1.449060
v 0.737937 0.011530 1.446589
v 0.743466 0.012422 1.426833
v 0.746473 0.006608 1.427164
v 0.758253 0.020872 1.432650
v 0.760648 0.018655 1.434112
v 0.738449 0.021663 1.453504
v 0.738717 0.018273 1.450098
v 0.756679 0.018943 1.450829
v 0.752703 0.022339 1.448931
v 0.752412 0.022159 1.452258
v 0.755695 0.018605 1.454942
v 0.746206 0.020112 1.428109
v 0.752423 0.020180 1.430220
v 0.743962 0.017122 1.427277
v 0.757773 0.012611 1.452806
v 0.755102 0.006267 1.453359
v 0.760045 0.005615 1.433309
v 0.762643 0.010768 1.435674
v 0.738698 0.016801 1.445725
v 0.746995 0.022971 1.447571
v 0.742068 0.021416 1.445994
v 0.747859 0.003518 1.450586
v 0.752960 0.008219 1.459252
v 0.751738 0.024099 1.471473
v 0.754522 0.016680 1.462484
v 0.754799 0.021041 1.459533
v 0.753138 0.028555 1.469021
v 0.755988 0.013701 1.457803
v 0.750884 0.012024 1.463546
v 0.741518 0.034285 1.463160
v 0.747678 0.034644 1.464324
v 0.737629 0.032098 1.464227
v 0.752960 0.004137 1.428999
v 0.736291 0.022439 1.468435
v 0.735712 0.028394 1.465517
v 0.752678 0.024231 1.456091
v 0.751779 0.032736 1.466478
v 0.748634 0.020718 1.472574
v 0.741863 0.018343 1.470531
v 0.747895 0.024805 1.476219
v 0.741292 0.024037 1.475321
v 0.735737 0.028444 1.472707
v 0.735740 0.033305 1.468919
v 0.737937 0.035676 1.466692
v 0.751380 0.027765 1.474882
v 0.752862 0.031798 1.472050
v 0.751080 0.034790 1.467788
v 0.752108 0.033098 1.477802
v 0.748802 0.031512 1.480463
v 0.739942 0.048151 1.482816
v 0.738476 0.042805 1.480319
v 0.740031 0.041734 1.482255
v 0.741239 0.046537 1.484787
v 0.737433 0.036380 1.479264
v 0.739465 0.037086 1.481022
v 0.743017 0.034064 1.481572
v 0.744183 0.039793 1.483881
v 0.748881 0.038317 1.483238
v 0.749895 0.043019 1.486398
v 0.745338 0.044637 1.487280
v 0.746959 0.034401 1.482065
v 0.742917 0.049134 1.486709
v 0.743400 0.051565 1.485740
v 0.741894 0.030912 1.480463
v 0.736189 0.036985 1.472900
v 0.738542 0.044685 1.477843
v 0.741120 0.050226 1.480571
v 0.745566 0.052894 1.484002
v 0.741307 0.046776 1.475331
v 0.743680 0.051203 1.478821
v 0.747395 0.052783 1.481896
v 0.745581 0.047746 1.473335
v 0.747715 0.051409 1.477417
v 0.742697 0.039306 1.466877
v 0.738539 0.038724 1.468943
v 0.748546 0.052206 1.479820
v 0.747368 0.050418 1.488467
v 0.749182 0.052167 1.486177
v 0.746510 0.048671 1.488567
v 0.750879 0.037981 1.482573
v 0.751803 0.043757 1.485465
v 0.753099 0.038996 1.481096
v 0.753641 0.045067 1.484490
v 0.751429 0.047838 1.487845
v 0.749919 0.047151 1.488440
v 0.741837 0.036731 1.465151
v 0.747407 0.036155 1.465625
v 0.748246 0.038192 1.466738
v 0.750677 0.046187 1.473563
v 0.752037 0.036138 1.469119
v 0.753354 0.034698 1.474720
v 0.754216 0.040190 1.478744
v 0.753809 0.043209 1.476003
v 0.754914 0.045776 1.482804
v 0.754371 0.046458 1.479559
v 0.751464 0.049699 1.477350
v 0.753716 0.049672 1.484925
v 0.752595 0.048860 1.486912
v 0.750134 0.052291 1.484089
v 0.753810 0.049460 1.481917
v 0.750988 0.051697 1.480986
v 0.762189 0.025907 1.457696
v 0.767875 0.025960 1.458777
v 0.768416 0.024533 1.455535
v 0.762845 0.023949 1.454585
v 0.757263 0.014691 1.461600
v 0.756337 0.019308 1.460050
v 0.756976 0.016837 1.456112
v 0.758219 0.011548 1.456515
v 0.761245 0.012352 1.465038
v 0.762879 0.008034 1.458386
v 0.759462 0.009493 1.451355
v 0.757831 0.015267 1.452049
v 0.762316 0.014991 1.437963
v 0.764816 0.008989 1.438139
v 0.758571 0.023232 1.458528
v 0.759142 0.021245 1.455262
v 0.775834 0.020528 1.456400
v 0.772684 0.024165 1.455008
v 0.772903 0.022471 1.457741
v 0.774703 0.018823 1.459707
v 0.767002 0.024048 1.437654
v 0.772893 0.024369 1.438784
v 0.763541 0.020651 1.438164
v 0.775876 0.013925 1.457126
v 0.772169 0.007776 1.455653
v 0.778577 0.010246 1.442454
v 0.780817 0.015889 1.443187
v 0.759211 0.020221 1.452117
v 0.768036 0.025812 1.452909
v 0.762639 0.024549 1.452034
v 0.765219 0.006907 1.452641
v 0.769534 0.008911 1.461114
v 0.768549 0.022411 1.479157
v 0.772428 0.015007 1.465355
v 0.773764 0.020369 1.463157
v 0.770776 0.025953 1.477668
v 0.773916 0.013517 1.461774
v 0.767719 0.011716 1.466019
v 0.761252 0.034120 1.471662
v 0.766673 0.032998 1.472364
v 0.757738 0.031564 1.471482
v 0.771432 0.006506 1.439640
v 0.779578 0.021963 1.442097
v 0.755343 0.025523 1.475102
v 0.755724 0.029174 1.472817
v 0.772231 0.023636 1.460851
v 0.770505 0.029929 1.475107
v 0.764313 0.020166 1.478836
v 0.758566 0.020801 1.476851
v 0.764968 0.023211 1.483485
v 0.759258 0.024403 1.482042
v 0.755942 0.028768 1.480843
v 0.756420 0.032259 1.478365
v 0.758382 0.034540 1.476589
v 0.769131 0.025293 1.483364
v 0.770867 0.028307 1.481577
v 0.770061 0.030850 1.477120
v 0.770403 0.028008 1.486201
v 0.765829 0.027165 1.489074
v 0.760479 0.041511 1.495103
v 0.759104 0.038112 1.490761
v 0.759686 0.037244 1.491484
v 0.760866 0.040211 1.496163
v 0.757582 0.032556 1.487256
v 0.758686 0.033031 1.488967
v 0.761030 0.029905 1.489475
v 0.762873 0.033929 1.494090
v 0.768478 0.032216 1.492878
v 0.768906 0.035532 1.496496
v 0.763822 0.037028 1.498197
v 0.765377 0.028775 1.490112
v 0.762424 0.041320 1.498653
v 0.761438 0.043015 1.498917
v 0.760290 0.028224 1.487919
v 0.756675 0.035454 1.483396
v 0.758911 0.040358 1.488940
v 0.760261 0.044188 1.493239
v 0.762984 0.045354 1.496486
v 0.761424 0.042166 1.486717
v 0.762591 0.045061 1.491192
v 0.764897 0.046172 1.494210
v 0.764368 0.042594 1.485384
v 0.765481 0.044941 1.489649
v 0.762186 0.036812 1.477458
v 0.758799 0.036685 1.480013
v 0.766443 0.045754 1.492560
v 0.765519 0.041162 1.500734
v 0.767984 0.043819 1.498559
v 0.764985 0.039880 1.499692
v 0.769984 0.031667 1.491947
v 0.771250 0.035970 1.496514
v 0.772013 0.032657 1.490220
v 0.773169 0.037056 1.494799
v 0.769849 0.038538 1.499370
v 0.768738 0.038124 1.499153
v 0.762019 0.035007 1.474799
v 0.766844 0.033751 1.474964
v 0.766795 0.035501 1.477097
v 0.768854 0.041668 1.485365
v 0.770197 0.032656 1.478815
v 0.771744 0.030936 1.484360
v 0.772703 0.035235 1.488336
v 0.771897 0.038596 1.486888
v 0.773609 0.038930 1.492737
v 0.772373 0.040429 1.490624
v 0.769460 0.044146 1.489368
v 0.771910 0.041558 1.495332
v 0.771611 0.040045 1.497828
v 0.768909 0.044954 1.495771
v 0.771683 0.042597 1.493094
v 0.769333 0.045121 1.493306
v 0.777097 0.023920 1.440509
v 0.780200 0.030611 1.460310
v 0.784242 0.031430 1.461646
v 0.784870 0.030588 1.460986
v 0.781083 0.030067 1.458563
v 0.777656 0.019491 1.460663
v 0.776221 0.024046 1.460158
v 0.777196 0.022088 1.456497
v 0.778905 0.017739 1.456666
v 0.782087 0.016848 1.462223
v 0.783805 0.015608 1.458827
v 0.780816 0.017762 1.453292
v 0.778755 0.022024 1.453101
v 0.785060 0.022220 1.438392
v 0.789079 0.018583 1.436866
v 0.801940 0.032189 1.442295
v 0.797795 0.036069 1.441167
v 0.796364 0.032919 1.449417
v 0.799848 0.029553 1.449090
v 0.777481 0.027827 1.459952
v 0.778087 0.027039 1.456896
v 0.793526 0.025969 1.462525
v 0.790391 0.029700 1.461569
v 0.788750 0.029936 1.462733
v 0.792048 0.027112 1.464865
v 0.792444 0.035560 1.440993
v 0.788511 0.032049 1.440161
v 0.787991 0.032222 1.444439
v 0.791520 0.033323 1.448648
v 0.785032 0.027928 1.442651
v 0.793809 0.021498 1.461789
v 0.791121 0.016593 1.459211
v 0.801282 0.020776 1.443584
v 0.801870 0.025192 1.446238
v 0.778976 0.026025 1.455230
v 0.786137 0.030855 1.459352
v 0.782213 0.029568 1.458098
v 0.785819 0.015171 1.455001
v 0.789095 0.017624 1.462675
v 0.788736 0.025765 1.473223
v 0.791364 0.023055 1.466970
v 0.791435 0.027820 1.465890
v 0.789528 0.028800 1.471985
v 0.792078 0.022515 1.464954
v 0.787581 0.018913 1.466084
v 0.779336 0.033836 1.465843
v 0.784544 0.033670 1.467454
v 0.776522 0.031929 1.465724
v 0.795321 0.017910 1.438290
v 0.775288 0.024953 1.468297
v 0.774802 0.029197 1.466978
v 0.787985 0.030565 1.463735
v 0.788134 0.031877 1.469803
v 0.785179 0.022534 1.473167
v 0.779571 0.021275 1.470362
v 0.783554 0.025239 1.476634
v 0.778100 0.024550 1.474007
v 0.774467 0.029279 1.471292
v 0.775266 0.032137 1.468774
v 0.777278 0.034214 1.467415
v 0.787760 0.027898 1.475866
v 0.788925 0.030222 1.474078
v 0.787951 0.032647 1.471013
v 0.786889 0.030358 1.478745
v 0.782324 0.030464 1.480212
v 0.778193 0.043231 1.479461
v 0.777145 0.040090 1.476867
v 0.777310 0.039396 1.477837
v 0.777742 0.042680 1.480301
v 0.775621 0.035027 1.474991
v 0.776410 0.035501 1.476586
v 0.777842 0.032309 1.477889
v 0.778710 0.036696 1.480919
v 0.783544 0.035242 1.482893
v 0.783605 0.038790 1.485022
v 0.779190 0.039618 1.483330
v 0.781243 0.031942 1.480639
v 0.778190 0.044019 1.482708
v 0.778415 0.045425 1.482781
v 0.777144 0.030118 1.477141
v 0.776311 0.036634 1.471280
v 0.777883 0.042141 1.475448
v 0.778950 0.045564 1.479154
v 0.780374 0.046744 1.482561
v 0.779708 0.042449 1.473743
v 0.780759 0.046485 1.478045
v 0.782201 0.047451 1.481321
v 0.782922 0.042323 1.472810
v 0.783189 0.045894 1.477259
v 0.782272 0.037441 1.468534
v 0.778830 0.037617 1.469358
v 0.783447 0.046751 1.480240
v 0.780469 0.043954 1.485799
v 0.782673 0.045684 1.484754
v 0.779888 0.042446 1.485620
v 0.784892 0.034928 1.482851
v 0.785142 0.039293 1.485368
v 0.787169 0.035272 1.481956
v 0.786831 0.040314 1.484465
v 0.783629 0.042274 1.486533
v 0.782286 0.041023 1.486035
v 0.780966 0.035771 1.467323
v 0.784574 0.034678 1.468359
v 0.785964 0.035955 1.469880
v 0.786595 0.040756 1.473890
v 0.788772 0.033473 1.472872
v 0.788778 0.031454 1.476323
v 0.788699 0.036536 1.480065
v 0.789008 0.038518 1.477293
v 0.787714 0.041689 1.483022
v 0.787957 0.042980 1.480284
v 0.786271 0.044646 1.477929
v 0.785614 0.044726 1.483926
v 0.784932 0.043955 1.485510
v 0.784025 0.046256 1.483279
v 0.786145 0.045164 1.482121
v 0.785073 0.046054 1.481212
v 0.802560 0.028113 1.442128
v 0.700862 0.069749 1.411974
v 0.705634 0.067346 1.414165
v 0.710575 0.077164 1.426693
v 0.711045 0.070685 1.423629
v 0.706355 0.082811 1.426665
v 0.697930 0.085444 1.419982
v 0.702620 0.085841 1.423338
v 0.709306 0.067323 1.418880
v 0.697297 0.074710 1.411535
v 0.695824 0.081486 1.414353
v 0.690735 0.067785 1.416579
v 0.688489 0.075689 1.420678
v 0.690370 0.079934 1.426529
v 0.698285 0.081742 1.428845
v 0.703044 0.080474 1.430573
v 0.698851 0.065417 1.416106
v 0.704015 0.064426 1.417746
v 0.708457 0.066386 1.422426
v 0.699846 0.059963 1.421726
v 0.695855 0.058471 1.430342
v 0.697621 0.064269 1.449640
v 0.697086 0.068474 1.443966
v 0.695898 0.066173 1.443160
v 0.696117 0.062628 1.448542
v 0.694417 0.069817 1.438686
v 0.694789 0.067495 1.438770
v 0.694228 0.064106 1.434689
v 0.695042 0.060801 1.440023
v 0.696299 0.059632 1.433147
v 0.697981 0.056796 1.436523
v 0.695606 0.057430 1.444940
v 0.695557 0.059086 1.450620
v 0.696203 0.054758 1.449054
v 0.697902 0.059621 1.452515
v 0.690314 0.064222 1.432989
v 0.696797 0.075683 1.436702
v 0.699394 0.071027 1.443909
v 0.700896 0.065809 1.449930
v 0.701078 0.060179 1.452571
v 0.703565 0.071511 1.443366
v 0.704634 0.066018 1.448016
v 0.704921 0.060557 1.449794
v 0.707549 0.069490 1.441377
v 0.707172 0.064268 1.445486
v 0.707844 0.075274 1.432179
v 0.702678 0.077932 1.434813
v 0.706292 0.060807 1.447403
v 0.698062 0.053664 1.450881
v 0.701492 0.054312 1.450654
v 0.699733 0.055377 1.434030
v 0.698202 0.053414 1.440992
v 0.700620 0.052519 1.439884
v 0.702873 0.055435 1.431687
v 0.703272 0.052450 1.439230
v 0.699806 0.051208 1.445514
v 0.697490 0.052604 1.445141
v 0.708064 0.076673 1.429953
v 0.709799 0.071286 1.426507
v 0.709689 0.070468 1.428046
v 0.709855 0.064922 1.437009
v 0.709168 0.065135 1.424912
v 0.704947 0.061431 1.422347
v 0.706367 0.056542 1.431657
v 0.709186 0.059960 1.433302
v 0.706155 0.054450 1.439366
v 0.707640 0.057008 1.440009
v 0.708439 0.060823 1.442936
v 0.705273 0.054005 1.444621
v 0.702803 0.051644 1.445069
v 0.704913 0.056197 1.448434
v 0.706491 0.056160 1.443650
v 0.706556 0.058168 1.446092
v 0.798769 0.039377 1.437415
v 0.791971 0.039054 1.437230
v 0.793984 0.044014 1.435050
v 0.794865 0.052511 1.432392
v 0.801743 0.059278 1.428365
v 0.788153 0.051909 1.430092
v 0.787493 0.043113 1.433234
v 0.784654 0.035553 1.436198
v 0.783145 0.058070 1.423622
f 780 781 779
f 779 781 782
f 783 784 786
f 786 784 785
f 787 782 788
f 788 782 781
f 790 791 789
f 789 791 787
f 792 790 794
f 794 790 793
f 796 797 795
f 795 797 798
f 800 801 799
f 799 801 802
f 804 805 803
f 803 805 806
f 808 809 807
f 807 809 810
f 811 812 814
f 814 812 813
f 815 816 818
f 818 816 817
f 819 820 784
f 784 820 821
f 784 821 785
f 785 821 822
f 823 812 824
f 824 812 811
f 826 827 825
f 825 827 828
f 830 831 829
f 829 831 832
f 834 830 833
f 833 830 829
f 836 837 835
f 835 837 838
f 839 840 782
f 782 840 779
f 842 843 841
f 841 843 844
f 846 847 845
f 845 847 848
f 850 851 849
f 849 851 852
f 854 855 853
f 853 855 856
f 831 857 832
f 832 857 858
f 860 861 859
f 859 861 862
f 863 864 830
f 830 864 831
f 835 838 865
f 865 838 866
f 867 868 821
f 821 868 822
f 821 820 867
f 867 820 869
f 818 817 870
f 870 817 871
f 872 848 842
f 842 848 847
f 791 839 787
f 787 839 782
f 803 806 847
f 847 806 873
f 874 803 846
f 846 803 847
f 876 877 875
f 875 877 878
f 879 880 882
f 882 880 881
f 884 808 883
f 883 808 807
f 829 832 885
f 885 832 886
f 832 858 886
f 886 858 887
f 889 890 888
f 888 890 891
f 893 783 892
f 892 783 894
f 893 819 783
f 783 819 784
f 814 813 889
f 889 813 895
f 813 896 895
f 895 896 897
f 812 898 813
f 813 898 896
f 812 823 898
f 898 823 899
f 903 904 902
f 902 904 905
f 906 907 792
f 792 907 908
f 811 909 824
f 824 909 910
f 911 872 841
f 841 872 842
f 912 913 915
f 915 913 914
f 917 918 916
f 916 918 919
f 855 920 856
f 856 920 921
f 922 923 798
f 798 923 924
f 926 927 925
f 925 927 850
f 929 930 928
f 928 930 931
f 860 879 861
f 861 879 882
f 879 860 933
f 933 860 932
f 934 935 836
f 836 935 837
f 936 846 925
f 925 846 845
f 937 924 793
f 793 924 794
f 846 936 874
f 874 936 938
f 907 844 908
f 908 844 843
f 940 941 939
f 939 941 942
f 944 945 943
f 943 945 946
f 948 949 947
f 947 949 950
f 952 949 951
f 951 949 948
f 954 955 953
f 953 955 956
f 958 959 957
f 957 959 802
f 960 961 799
f 799 961 962
f 859 963 860
f 860 963 932
f 964 965 966
f 966 965 922
f 936 849 938
f 938 849 967
f 968 913 935
f 935 913 837
f 947 950 917
f 917 950 918
f 925 850 936
f 936 850 849
f 970 971 969
f 969 971 972
f 945 944 827
f 827 944 973
f 974 968 828
f 828 968 935
f 975 976 978
f 978 976 977
f 799 802 960
f 960 802 959
f 924 937 798
f 798 937 795
f 960 959 859
f 859 959 963
f 979 963 958
f 958 963 959
f 980 981 861
f 861 981 862
f 983 984 982
f 982 984 863
f 985 800 962
f 962 800 799
f 957 802 986
f 986 802 801
f 986 987 957
f 957 987 983
f 987 988 983
f 983 988 984
f 990 984 989
f 989 984 988
f 957 983 958
f 958 983 982
f 991 954 866
f 866 954 992
f 864 863 990
f 990 863 984
f 971 995 996
f 995 997 996
f 996 997 998
f 997 796 998
f 998 796 795
f 797 999 798
f 798 999 922
f 1000 1001 1003
f 1003 1001 1002
f 953 1004 954
f 954 1004 992
f 1005 865 992
f 992 865 866
f 998 795 1006
f 1006 795 937
f 912 991 838
f 838 991 866
f 916 1007 929
f 929 1007 930
f 971 970 988
f 988 970 989
f 1008 972 996
f 996 972 971
f 1009 1010 1006
f 1006 1010 1008
f 1011 1012 869
f 869 1012 867
f 1013 1014 871
f 871 1014 870
f 1008 1010 1012
f 1012 1010 1015
f 825 1016 826
f 826 1016 1017
f 1018 969 1013
f 1013 969 1014
f 783 786 894
f 894 786 1019
f 1020 1021 967
f 967 1021 938
f 1022 1023 876
f 876 1023 877
f 934 1024 825
f 825 1024 1016
f 854 1025 855
f 855 1025 1026
f 1028 903 1027
f 1027 903 902
f 1030 1031 1029
f 1029 1031 1032
f 889 888 814
f 814 888 1033
f 1034 811 1033
f 1033 811 814
f 1035 1036 932
f 932 1036 933
f 841 947 911
f 911 947 917
f 844 948 841
f 841 948 947
f 951 948 907
f 907 948 844
f 907 906 951
f 951 906 1037
f 906 1038 1037
f 1037 1038 1039
f 991 912 1040
f 1040 912 915
f 1041 1042 964
f 964 1042 965
f 890 1043 891
f 891 1043 1044
f 789 1045 1046
f 1012 1011 1008
f 1008 1011 972
f 931 1047 848
f 848 1047 845
f 953 956 943
f 943 956 919
f 928 931 872
f 872 931 848
f 1049 999 1048
f 1048 999 985
f 1047 931 1050
f 1050 931 930
f 899 823 887
f 887 823 886
f 825 828 934
f 934 828 935
f 835 1051 836
f 836 1051 1052
f 923 1053 1038
f 1038 1053 1039
f 1054 927 921
f 921 927 856
f 926 1047 853
f 853 1047 1050
f 985 1055 1048
f 1048 1055 1056
f 973 974 827
f 827 974 828
f 837 913 838
f 838 913 912
f 861 882 980
f 980 882 1057
f 927 926 856
f 856 926 853
f 1025 1056 1026
f 1026 1056 1055
f 961 960 862
f 862 960 859
f 826 1017 1059
f 1059 1017 1060
f 1005 1001 1061
f 1061 1001 1000
f 1001 1004 1002
f 1002 1004 946
f 1059 1060 1002
f 1002 1060 1003
f 943 946 953
f 953 946 1004
f 1042 1041 916
f 916 1041 1007
f 792 794 906
f 906 794 1038
f 998 1006 996
f 996 1006 1008
f 865 1005 1062
f 1062 1005 1061
f 1038 794 923
f 923 794 924
f 1022 876 1036
f 1036 876 933
f 836 1052 934
f 934 1052 1024
f 885 1063 829
f 829 1063 833
f 1021 1064 938
f 938 1064 874
f 1012 1015 867
f 867 1015 868
f 824 910 885
f 885 910 1063
f 1031 1030 1027
f 1027 1030 1028
f 1064 804 874
f 874 804 803
f 884 883 1065
f 1065 883 1066
f 1050 930 1067
f 1067 930 1007
f 916 929 917
f 917 929 911
f 961 1068 939
f 939 1068 940
f 1069 1070 1055
f 1055 1070 1071
f 929 928 911
f 911 928 872
f 1040 1053 955
f 955 1053 965
f 922 965 923
f 923 965 1053
f 1051 835 1062
f 1062 835 865
f 952 914 968
f 968 914 913
f 889 895 890
f 890 895 816
f 895 897 816
f 816 897 901
f 890 816 1043
f 1043 816 815
f 1065 1066 1032
f 1032 1066 1029
f 1006 937 1009
f 1009 937 793
f 1001 1005 1004
f 1004 1005 992
f 925 845 926
f 926 845 1047
f 1002 946 1059
f 1059 946 945
f 977 941 978
f 978 941 940
f 823 824 886
f 886 824 885
f 1059 945 826
f 826 945 827
f 939 942 1069
f 1069 942 1070
f 816 901 817
f 1071 1072 1055
f 1055 1072 1026
f 1062 1061 1074
f 1074 1061 1073
f 1062 1074 1051
f 1051 1074 1075
f 1052 1051 1076
f 1076 1051 1075
f 1024 1052 1077
f 1077 1052 1076
f 1061 1000 1073
f 1073 1000 1078
f 1000 1003 1078
f 1078 1003 1079
f 1079 1003 1080
f 1080 1003 1060
f 1081 1082 1078
f 1078 1082 1073
f 1084 1085 1083
f 1083 1085 1086
f 1087 1088 1086
f 1086 1088 1083
f 1086 1085 1090
f 1090 1085 1089
f 1091 1092 1090
f 1090 1092 1093
f 1089 1094 1090
f 1090 1094 1091
f 1095 1082 1089
f 1089 1082 1094
f 1093 1087 1090
f 1090 1087 1086
f 1096 1097 1099
f 1099 1097 1098
f 1097 1096 1087
f 1087 1096 1088
f 1089 1085 1095
f 1095 1085 1084
f 1084 1075 1095
f 1095 1075 1074
f 1084 1100 1075
f 1075 1100 1076
f 1083 1101 1084
f 1084 1101 1100
f 1101 1083 1102
f 1102 1083 1088
f 1082 1095 1073
f 1073 1095 1074
f 1096 1103 1088
f 1088 1103 1102
f 1101 1102 1104
f 1104 1102 1105
f 1102 1103 1105
f 1105 1103 1106
f 1104 1105 1107
f 1107 1105 1108
f 1107 1109 1104
f 1104 1109 1110
f 1111 1108 1106
f 1106 1108 1105
f 1101 1104 1100
f 1100 1104 1110
f 1100 1110 1076
f 1076 1110 1077
f 1103 1096 1112
f 1112 1096 1099
f 1091 1094 1113
f 1113 1094 1082
f 1113 1114 1091
f 1091 1114 1092
f 1082 1081 1113
f 1113 1081 1115
f 1114 1113 1116
f 1116 1113 1115
f 1114 1117 1092
f 1092 1117 1118
f 1024 1077 1016
f 1016 1077 1119
f 1017 1120 1060
f 1060 1120 1080
f 1120 1017 1119
f 1119 1017 1016
f 1119 1109 1120
f 1120 1109 1121
f 1109 1107 1121
f 1121 1107 1122
f 1120 1121 1080
f 1080 1121 1123
f 1119 1077 1109
f 1109 1077 1110
f 1124 1079 1123
f 1123 1079 1080
f 1124 1081 1079
f 1079 1081 1078
f 1125 1115 1124
f 1124 1115 1081
f 1125 1124 1126
f 1126 1124 1123
f 1127 1125 1128
f 1128 1125 1126
f 1121 1122 1123
f 1123 1122 1126
f 1122 1129 1126
f 1126 1129 1128
f 1115 1125 1116
f 1116 1125 1127
f 1131 1116 1130
f 1130 1116 1127
f 1130 1133 1132
f 1132 1133 1134
f 1130 1127 1133
f 1133 1127 1128
f 1130 1132 1131
f 1131 1132 1112
f 1131 1112 1117
f 1117 1112 1099
f 1117 1114 1131
f 1131 1114 1116
f 1107 1108 1122
f 1122 1108 1129
f 1134 1129 1111
f 1111 1129 1108
f 1134 1133 1129
f 1129 1133 1128
f 1132 1134 1106
f 1106 1134 1111
f 1106 1103 1132
f 1132 1103 1112
f 1087 1093 1097
f 1097 1093 1098
f 1098 1118 1099
f 1099 1118 1117
f 1098 1093 1118
f 1118 1093 1092
f 915 914 1039
f 1039 914 1037
f 918 944 919
f 919 944 943
f 950 949 973
f 973 949 974
f 949 952 974
f 974 952 968
f 956 955 1042
f 1042 955 965
f 950 973 918
f 918 973 944
f 915 1039 1040
f 1040 1039 1053
f 956 1042 919
f 919 1042 916
f 1040 955 991
f 991 955 954
f 914 952 1037
f 1037 952 951
f 1136 1137 1135
f 1135 1137 1138
f 1140 1141 1139
f 1139 1141 1142
f 1139 1142 1143
f 1143 1142 1144
f 1145 1146 1148
f 1148 1146 1147
f 854 1149 1025
f 1025 1149 1150
f 1151 1152 1140
f 1140 1152 1141
f 1154 1155 1153
f 1153 1155 1156
f 1067 1007 1158
f 1158 1007 1157
f 1159 1157 1041
f 1041 1157 1007
f 1161 1162 1160
f 1160 1162 1163
f 1164 1146 1152
f 1152 1146 1141
f 854 1067 1149
f 1149 1067 1158
f 1155 1154 1137
f 1137 1154 1165
f 1166 1164 1138
f 1138 1164 1152
f 1167 1161 1144
f 1144 1161 1168
f 1170 1171 1169
f 1169 1171 1172
f 1161 1160 1168
f 1168 1160 1173
f 1174 1143 1168
f 1168 1143 1144
f 1167 1144 1145
f 1145 1144 1142
f 1135 1175 1136
f 1136 1175 1176
f 1151 1177 1135
f 1135 1177 1175
f 1167 1145 1178
f 1178 1145 1148
f 1160 1163 1153
f 1153 1163 1150
f 1135 1138 1151
f 1151 1138 1152
f 1139 1179 1140
f 1140 1179 1180
f 1165 1166 1137
f 1137 1166 1138
f 1141 1146 1142
f 1142 1146 1145
f 1136 1176 1181
f 1181 1176 1182
f 1174 1170 1183
f 1183 1170 1169
f 1170 1173 1171
f 1171 1173 1156
f 1171 1181 1172
f 1172 1181 1182
f 1153 1156 1160
f 1160 1156 1173
f 1143 1174 1184
f 1184 1174 1183
f 1140 1180 1151
f 1151 1180 1177
f 1049 1048 1178
f 1178 1048 1162
f 1179 1139 1184
f 1184 1139 1143
f 1159 1147 1164
f 1164 1147 1146
f 1170 1174 1173
f 1173 1174 1168
f 1171 1156 1181
f 1181 1156 1155
f 1181 1155 1136
f 1136 1155 1137
f 1184 1183 1186
f 1186 1183 1185
f 1184 1186 1179
f 1179 1186 1187
f 1179 1187 1180
f 1180 1187 1188
f 1180 1188 1177
f 1177 1188 1189
f 1183 1169 1185
f 1185 1169 1190
f 1169 1172 1190
f 1190 1172 1191
f 1172 1182 1191
f 1191 1182 1192
f 1193 1194 1190
f 1190 1194 1185
f 1196 1197 1195
f 1195 1197 1198
f 1199 1200 1196
f 1196 1200 1197
f 1197 1200 1202
f 1202 1200 1201
f 1203 1204 1202
f 1202 1204 1205
f 1201 1206 1202
f 1202 1206 1203
f 1205 1198 1202
f 1202 1198 1197
f 1198 1207 1195
f 1195 1207 1208
f 1201 1200 1209
f 1209 1200 1199
f 1199 1187 1209
f 1209 1187 1186
f 1199 1210 1187
f 1187 1210 1188
f 1196 1211 1199
f 1199 1211 1210
f 1212 1211 1195
f 1195 1211 1196
f 1209 1194 1201
f 1201 1194 1206
f 1194 1209 1185
f 1185 1209 1186
f 1213 1212 1208
f 1208 1212 1195
f 1211 1212 1214
f 1214 1212 1215
f 1212 1213 1215
f 1215 1213 1216
f 1214 1215 1217
f 1217 1215 1218
f 1217 1219 1214
f 1214 1219 1220
f 1216 1221 1215
f 1215 1221 1218
f 1214 1220 1211
f 1211 1220 1210
f 1210 1220 1188
f 1188 1220 1189
f 1213 1208 1223
f 1223 1208 1222
f 1208 1207 1222
f 1222 1207 1224
f 1203 1206 1225
f 1225 1206 1194
f 1204 1203 1226
f 1226 1203 1225
f 1194 1193 1225
f 1225 1193 1227
f 1225 1227 1226
f 1226 1227 1228
f 1229 1230 1226
f 1226 1230 1204
f 1224 1230 1222
f 1222 1230 1229
f 1177 1189 1175
f 1175 1189 1231
f 1176 1232 1182
f 1182 1232 1192
f 1232 1176 1231
f 1231 1176 1175
f 1231 1219 1232
f 1232 1219 1233
f 1219 1217 1233
f 1233 1217 1234
f 1232 1233 1192
f 1192 1233 1235
f 1219 1231 1220
f 1220 1231 1189
f 1236 1191 1235
f 1235 1191 1192
f 1236 1193 1191
f 1191 1193 1190
f 1236 1237 1193
f 1193 1237 1227
f 1237 1236 1238
f 1238 1236 1235
f 1239 1237 1240
f 1240 1237 1238
f 1233 1234 1235
f 1235 1234 1238
f 1234 1241 1238
f 1238 1241 1240
f 1237 1239 1227
f 1227 1239 1228
f 1243 1228 1242
f 1242 1228 1239
f 1242 1245 1244
f 1244 1245 1246
f 1242 1239 1245
f 1245 1239 1240
f 1242 1244 1243
f 1243 1244 1223
f 1243 1223 1229
f 1229 1223 1222
f 1229 1226 1243
f 1243 1226 1228
f 1217 1218 1234
f 1234 1218 1241
f 1246 1241 1221
f 1221 1241 1218
f 1246 1245 1241
f 1241 1245 1240
f 1244 1246 1216
f 1216 1246 1221
f 1216 1213 1244
f 1244 1213 1223
f 1198 1205 1207
f 1207 1205 1224
f 1224 1205 1230
f 1230 1205 1204
f 1148 1147 966
f 966 1147 964
f 1149 1154 1150
f 1150 1154 1153
f 1158 1157 1165
f 1165 1157 1166
f 1157 1159 1166
f 1166 1159 1164
f 1163 1162 1056
f 1056 1162 1048
f 1158 1165 1149
f 1149 1165 1154
f 1178 1148 1049
f 1049 1148 966
f 1163 1056 1150
f 1150 1056 1025
f 1178 1162 1167
f 1167 1162 1161
f 1147 1159 964
f 964 1159 1041
f 999 1049 922
f 922 1049 966
f 999 797 985
f 985 797 800
f 797 796 800
f 800 796 801
f 796 997 801
f 801 997 986
f 1247 1248 1250
f 1250 1248 1249
f 1252 1253 1251
f 1251 1253 1254
f 1251 1254 1255
f 1255 1254 1256
f 1258 1259 1257
f 1257 1259 1260
f 1261 1262 1252
f 1252 1262 1253
f 1264 1265 1263
f 1263 1265 1266
f 1267 1268 855
f 855 1268 920
f 1269 1267 1026
f 1026 1267 855
f 1271 1272 1270
f 1270 1272 1273
f 1274 1258 1262
f 1262 1258 1253
f 1264 1275 1265
f 1265 1275 1249
f 1276 1274 1250
f 1250 1274 1262
f 1277 1271 1256
f 1256 1271 1278
f 1279 1280 1282
f 1282 1280 1281
f 1271 1270 1278
f 1278 1270 1283
f 1284 1255 1278
f 1278 1255 1256
f 1277 1256 1257
f 1257 1256 1254
f 1247 1285 1248
f 1248 1285 1286
f 1261 1287 1247
f 1247 1287 1285
f 1257 1260 1277
f 1277 1260 1288
f 1270 1273 1263
f 1263 1273 1289
f 1261 1247 1262
f 1262 1247 1250
f 1251 1290 1252
f 1252 1290 1291
f 1275 1276 1249
f 1249 1276 1250
f 1253 1258 1254
f 1254 1258 1257
f 1248 1286 1292
f 1292 1286 1293
f 1284 1280 1294
f 1294 1280 1279
f 1281 1280 1266
f 1266 1280 1283
f 1292 1293 1281
f 1281 1293 1282
f 1263 1266 1270
f 1270 1266 1283
f 1255 1284 1295
f 1295 1284 1294
f 1252 1291 1261
f 1261 1291 1287
f 1288 1070 1272
f 1272 1070 942
f 1290 1251 1295
f 1295 1251 1255
f 1269 1259 1274
f 1274 1259 1258
f 1280 1284 1283
f 1283 1284 1278
f 1281 1266 1292
f 1292 1266 1265
f 1292 1265 1248
f 1248 1265 1249
f 1295 1294 1297
f 1297 1294 1296
f 1295 1297 1290
f 1290 1297 1298
f 1290 1298 1291
f 1291 1298 1299
f 1291 1299 1287
f 1287 1299 1300
f 1294 1279 1296
f 1296 1279 1301
f 1279 1282 1301
f 1301 1282 1302
f 1302 1282 1303
f 1303 1282 1293
f 1304 1305 1301
f 1301 1305 1296
f 1307 1308 1306
f 1306 1308 1309
f 1310 1311 1307
f 1307 1311 1308
f 1308 1311 1313
f 1313 1311 1312
f 1314 1315 1313
f 1313 1315 1316
f 1312 1317 1313
f 1313 1317 1314
f 1316 1309 1313
f 1313 1309 1308
f 1318 1319 1309
f 1309 1319 1306
f 1311 1310 1312
f 1312 1310 1320
f 1310 1298 1320
f 1320 1298 1297
f 1310 1321 1298
f 1298 1321 1299
f 1307 1322 1310
f 1310 1322 1321
f 1322 1307 1323
f 1323 1307 1306
f 1312 1320 1317
f 1317 1320 1305
f 1305 1320 1296
f 1296 1320 1297
f 1319 1324 1306
f 1306 1324 1323
f 1325 1322 1326
f 1326 1322 1323
f 1324 1327 1323
f 1323 1327 1326
f 1328 1325 1329
f 1329 1325 1326
f 1325 1328 1331
f 1331 1328 1330
f 1327 1332 1326
f 1326 1332 1329
f 1322 1325 1321
f 1321 1325 1331
f 1321 1331 1299
f 1299 1331 1300
f 1324 1319 1334
f 1334 1319 1333
f 1319 1318 1333
f 1333 1318 1335
f 1314 1317 1336
f 1336 1317 1305
f 1315 1314 1337
f 1337 1314 1336
f 1305 1304 1336
f 1336 1304 1338
f 1337 1336 1339
f 1339 1336 1338
f 1337 1340 1315
f 1315 1340 1341
f 1335 1341 1333
f 1333 1341 1340
f 1287 1300 1285
f 1285 1300 1342
f 1286 1343 1293
f 1293 1343 1303
f 1343 1286 1342
f 1342 1286 1285
f 1342 1330 1343
f 1343 1330 1344
f 1330 1328 1344
f 1344 1328 1345
f 1343 1344 1303
f 1303 1344 1346
f 1342 1300 1330
f 1330 1300 1331
f 1347 1302 1346
f 1346 1302 1303
f 1347 1304 1302
f 1302 1304 1301
f 1348 1338 1347
f 1347 1338 1304
f 1348 1347 1349
f 1349 1347 1346
f 1350 1348 1351
f 1351 1348 1349
f 1344 1345 1346
f 1346 1345 1349
f 1345 1352 1349
f 1349 1352 1351
f 1348 1350 1338
f 1338 1350 1339
f 1354 1339 1353
f 1353 1339 1350
f 1353 1356 1355
f 1355 1356 1357
f 1353 1350 1356
f 1356 1350 1351
f 1353 1355 1354
f 1354 1355 1334
f 1354 1334 1340
f 1340 1334 1333
f 1340 1337 1354
f 1354 1337 1339
f 1328 1329 1345
f 1345 1329 1352
f 1357 1352 1332
f 1332 1352 1329
f 1357 1356 1352
f 1352 1356 1351
f 1357 1332 1355
f 1355 1332 1327
f 1327 1324 1355
f 1355 1324 1334
f 1309 1316 1318
f 1318 1316 1335
f 1335 1316 1341
f 1341 1316 1315
f 1259 1072 1260
f 1260 1072 1071
f 1358 1264 1289
f 1289 1264 1263
f 1268 1267 1275
f 1275 1267 1276
f 1267 1269 1276
f 1276 1269 1274
f 941 1273 942
f 942 1273 1272
f 1358 1268 1264
f 1264 1268 1275
f 1260 1071 1288
f 1288 1071 1070
f 1273 941 1289
f 1289 941 977
f 1272 1271 1288
f 1288 1271 1277
f 1259 1269 1072
f 1072 1269 1026
f 1360 1361 1359
f 1359 1361 1362
f 1364 1365 1363
f 1363 1365 1366
f 1363 1366 1367
f 1367 1366 1368
f 1370 1371 1369
f 1369 1371 1372
f 1373 1374 1376
f 1376 1374 1375
f 1377 1378 1364
f 1364 1378 1365
f 1379 1380 1382
f 1382 1380 1381
f 1383 1384 1386
f 1386 1384 1385
f 1387 1385 978
f 978 1385 1384
f 1388 1389 1391
f 1391 1389 1390
f 1378 1392 1365
f 1365 1392 1370
f 1374 1383 1375
f 1375 1383 1386
f 1380 1393 1381
f 1381 1393 1361
f 1394 1392 1362
f 1362 1392 1378
f 1389 1396 1395
f 1395 1396 1368
f 1398 1399 1397
f 1397 1399 1400
f 1388 1401 1389
f 1389 1401 1396
f 1402 1367 1396
f 1396 1367 1368
f 1395 1368 1369
f 1369 1368 1366
f 1359 1403 1360
f 1360 1403 1404
f 1377 1405 1359
f 1359 1405 1403
f 1369 1372 1395
f 1395 1372 1406
f 1379 1388 1376
f 1376 1388 1391
f 1359 1362 1377
f 1377 1362 1378
f 1363 1407 1364
f 1364 1407 1408
f 1393 1394 1361
f 1361 1394 1362
f 1365 1370 1366
f 1366 1370 1369
f 1360 1404 1409
f 1409 1404 1410
f 1402 1398 1411
f 1411 1398 1397
f 1399 1398 1382
f 1382 1398 1401
f 1409 1410 1399
f 1399 1410 1400
f 1388 1379 1401
f 1401 1379 1382
f 1367 1402 1412
f 1412 1402 1411
f 1364 1408 1377
f 1377 1408 1405
f 981 980 1406
f 1406 980 1390
f 1407 1363 1412
f 1412 1363 1367
f 1387 1371 1392
f 1392 1371 1370
f 1398 1402 1401
f 1401 1402 1396
f 1409 1399 1381
f 1381 1399 1382
f 1360 1409 1361
f 1361 1409 1381
f 1412 1411 1414
f 1414 1411 1413
f 1412 1414 1407
f 1407 1414 1415
f 1407 1415 1408
f 1408 1415 1416
f 1408 1416 1405
f 1405 1416 1417
f 1411 1397 1413
f 1413 1397 1418
f 1397 1400 1418
f 1418 1400 1419
f 1419 1400 1420
f 1420 1400 1410
f 1422 1413 1421
f 1421 1413 1418
f 1423 1424 1426
f 1426 1424 1425
f 1427 1428 1424
f 1424 1428 1425
f 1425 1428 1430
f 1430 1428 1429
f 1430 1431 1433
f 1433 1431 1432
f 1429 1434 1430
f 1430 1434 1431
f 1433 1426 1430
f 1430 1426 1425
f 1426 1435 1423
f 1423 1435 1436
f 1428 1427 1429
f 1429 1427 1437
f 1427 1415 1437
f 1437 1415 1414
f 1427 1438 1415
f 1415 1438 1416
f 1439 1438 1424
f 1424 1438 1427
f 1440 1439 1423
f 1423 1439 1424
f 1429 1437 1434
f 1434 1437 1422
f 1422 1437 1413
f 1413 1437 1414
f 1441 1440 1436
f 1436 1440 1423
f 1442 1439 1443
f 1443 1439 1440
f 1441 1444 1440
f 1440 1444 1443
f 1445 1442 1446
f 1446 1442 1443
f 1442 1445 1448
f 1448 1445 1447
f 1444 1449 1443
f 1443 1449 1446
f 1439 1442 1438
f 1438 1442 1448
f 1438 1448 1416
f 1416 1448 1417
f 1436 1450 1441
f 1441 1450 1451
f 1436 1435 1450
f 1450 1435 1452
f 1431 1434 1453
f 1453 1434 1422
f 1431 1453 1432
f 1432 1453 1454
f 1453 1422 1455
f 1455 1422 1421
f 1454 1453 1456
f 1456 1453 1455
f 1457 1458 1454
f 1454 1458 1432
f 1452 1458 1450
f 1450 1458 1457
f 1405 1417 1403
f 1403 1417 1459
f 1404 1460 1410
f 1410 1460 1420
f 1459 1460 1403
f 1403 1460 1404
f 1447 1461 1459
f 1459 1461 1460
f 1445 1462 1447
f 1447 1462 1461
f 1460 1461 1420
f 1420 1461 1463
f 1459 1417 1447
f 1447 1417 1448
f 1464 1419 1463
f 1463 1419 1420
f 1419 1464 1418
f 1418 1464 1421
f 1464 1465 1421
f 1421 1465 1455
f 1465 1464 1466
f 1466 1464 1463
f 1467 1465 1468
f 1468 1465 1466
f 1461 1462 1463
f 1463 1462 1466
f 1462 1469 1466
f 1466 1469 1468
f 1465 1467 1455
f 1455 1467 1456
f 1471 1456 1470
f 1470 1456 1467
f 1470 1473 1472
f 1472 1473 1474
f 1470 1467 1473
f 1473 1467 1468
f 1470 1472 1471
f 1471 1472 1451
f 1471 1451 1457
f 1457 1451 1450
f 1457 1454 1471
f 1471 1454 1456
f 1462 1445 1469
f 1469 1445 1446
f 1474 1469 1449
f 1449 1469 1446
f 1474 1473 1469
f 1469 1473 1468
f 1472 1474 1444
f 1444 1474 1449
f 1444 1441 1472
f 1472 1441 1451
f 1426 1433 1435
f 1435 1433 1452
f 1452 1433 1458
f 1458 1433 1432
f 1371 940 1372
f 1372 940 1068
f 1376 1375 1379
f 1379 1375 1380
f 1393 1386 1394
f 1394 1386 1385
f 1385 1387 1394
f 1394 1387 1392
f 1475 1373 1391
f 1391 1373 1376
f 1375 1386 1380
f 1380 1386 1393
f 1372 1068 1406
f 1406 1068 981
f 1406 1390 1395
f 1395 1390 1389
f 1371 1387 940
f 940 1387 978
f 883 807 1476
f 1476 807 1477
f 1046 904 1479
f 1479 904 1478
f 904 903 1478
f 1478 903 1480
f 1030 1481 1028
f 1028 1481 1482
f 810 1046 1483
f 1483 1046 1479
f 1066 883 1484
f 1484 883 1476
f 807 810 1477
f 1477 810 1483
f 1485 1029 1484
f 1484 1029 1066
f 1028 1482 903
f 903 1482 1480
f 1481 1030 1485
f 1485 1030 1029
f 1484 1486 1485
f 1485 1486 1487
f 1485 1487 1481
f 1481 1487 1488
f 1481 1488 1482
f 1482 1488 1489
f 1482 1489 1480
f 1480 1489 1490
f 1484 1476 1486
f 1486 1476 1491
f 1476 1477 1491
f 1491 1477 1492
f 1477 1483 1492
f 1492 1483 1493
f 1495 1486 1494
f 1494 1486 1491
f 1497 1498 1496
f 1496 1498 1499
f 1500 1501 1497
f 1497 1501 1498
f 1502 1503 1501
f 1501 1503 1498
f 1502 1504 1503
f 1503 1504 1505
f 1506 1499 1503
f 1503 1499 1498
f 1499 1506 1507
f 1507 1506 1508
f 1507 1509 1499
f 1499 1509 1496
f 1502 1501 1510
f 1510 1501 1500
f 1500 1488 1510
f 1510 1488 1487
f 1500 1511 1488
f 1488 1511 1489
f 1497 1512 1500
f 1500 1512 1511
f 1512 1497 1513
f 1513 1497 1496
f 1502 1510 1504
f 1504 1510 1495
f 1495 1510 1486
f 1486 1510 1487
f 1509 1514 1496
f 1496 1514 1513
f 1515 1512 1516
f 1516 1512 1513
f 1514 1517 1513
f 1513 1517 1516
f 1518 1515 1519
f 1519 1515 1516
f 1515 1518 1521
f 1521 1518 1520
f 1517 1522 1516
f 1516 1522 1519
f 1512 1515 1511
f 1511 1515 1521
f 1511 1521 1489
f 1489 1521 1490
f 1514 1509 1524
f 1524 1509 1523
f 1509 1507 1523
f 1523 1507 1508
f 1505 1504 1525
f 1525 1504 1495
f 1526 1505 1527
f 1527 1505 1525
f 1525 1495 1528
f 1528 1495 1494
f 1527 1525 1529
f 1529 1525 1528
f 1527 1530 1526
f 1526 1530 1531
f 1508 1531 1523
f 1523 1531 1530
f 1506 1503 1526
f 1526 1503 1505
f 1508 1506 1531
f 1531 1506 1526
f 1478 1480 1532
f 1532 1480 1490
f 1483 1479 1493
f 1493 1479 1533
f 1532 1533 1478
f 1478 1533 1479
f 1520 1534 1532
f 1532 1534 1533
f 1518 1535 1520
f 1520 1535 1534
f 1533 1534 1493
f 1493 1534 1536
f 1532 1490 1520
f 1520 1490 1521
f 1537 1492 1536
f 1536 1492 1493
f 1492 1537 1491
f 1491 1537 1494
f 1537 1538 1494
f 1494 1538 1528
f 1538 1537 1539
f 1539 1537 1536
f 1540 1538 1541
f 1541 1538 1539
f 1534 1535 1536
f 1536 1535 1539
f 1535 1542 1539
f 1539 1542 1541
f 1538 1540 1528
f 1528 1540 1529
f 1544 1529 1543
f 1543 1529 1540
f 1545 1543 1547
f 1547 1543 1546
f 1543 1540 1546
f 1546 1540 1541
f 1543 1545 1544
f 1544 1545 1524
f 1544 1524 1530
f 1530 1524 1523
f 1530 1527 1544
f 1544 1527 1529
f 1535 1518 1542
f 1542 1518 1519
f 1547 1542 1522
f 1522 1542 1519
f 1547 1546 1542
f 1542 1546 1541
f 1545 1547 1517
f 1517 1547 1522
f 1517 1514 1545
f 1545 1514 1524
f 997 995 986
f 986 995 987
f 987 995 988
f 988 995 971
f 976 1358 977
f 977 1358 1289
f 854 853 1067
f 1067 853 1050
f 1055 985 1069
f 1069 985 962
f 1068 961 981
f 981 961 862
f 1268 1358 920
f 920 1358 976
f 920 976 921
f 921 976 975
f 927 1054 850
f 850 1054 851
f 882 881 1057
f 1057 881 1548
f 1548 1374 1057
f 1057 1374 1373
f 1383 1374 1549
f 1549 1374 1548
f 1549 1548 1550
f 1550 1548 881
f 1550 881 1551
f 1551 881 880
f 933 1552 879
f 879 1552 880
f 1551 880 875
f 875 880 1552
f 1553 1551 878
f 878 1551 875
f 1551 1553 1550
f 1550 1553 1554
f 1550 1554 1549
f 1549 1554 1555
f 978 1384 975
f 975 1384 1555
f 967 849 1556
f 1556 849 852
f 875 1552 876
f 876 1552 933
f 961 939 962
f 962 939 1069
f 1555 1054 975
f 975 1054 921
f 1555 1384 1549
f 1549 1384 1383
f 1391 1390 1475
f 1475 1390 980
f 1373 1475 1057
f 1057 1475 980
f 851 1054 1554
f 1554 1054 1555
f 1554 1553 851
f 851 1553 852
f 878 1556 1553
f 1553 1556 852
f 1556 878 967
f 967 878 877
f 1023 1020 877
f 877 1020 967
f 909 811 1034
f 806 779 873
f 873 779 840
f 805 780 806
f 806 780 779
f 1043 893 1044
f 1044 893 892
f 873 840 847
f 847 840 842
f 840 839 842
f 842 839 843
f 839 791 843
f 843 791 908
f 791 790 908
f 908 790 792
f 809 789 810
f 810 789 1046
f 793 790 809
f 809 790 789
f 809 808 793
f 793 808 1009
f 808 884 1009
f 1009 884 1010
f 1065 1015 884
f 884 1015 1010
f 1032 868 1065
f 1065 868 1015
f 1031 822 1032
f 1032 822 868
f 1031 1027 822
f 822 1027 785
f 1045 905 1046
f 1046 905 904
f 788 781 1019
f 1019 781 894
f 781 780 894
f 894 780 892
f 780 805 892
f 892 805 1044
f 805 804 1044
f 1044 804 891
f 804 1064 891
f 891 1064 888
f 1064 1021 888
f 888 1021 1033
f 1021 1020 1033
f 1033 1020 1034
f 1020 1023 1034
f 1034 1023 909
f 1023 1022 909
f 909 1022 910
f 1043 815 893
f 893 815 819
f 819 815 820
f 820 815 818
f 870 869 818
f 818 869 820
f 1014 1011 870
f 870 1011 869
f 969 972 1014
f 1014 972 1011
f 1036 1063 1022
f 1022 1063 910
f 1035 833 1036
f 1036 833 1063
f 1035 932 979
f 979 932 963
f 834 979 982
f 982 979 958
f 833 1035 834
f 834 1035 979
f 982 863 834
f 834 863 830
f 864 900 831
f 831 900 857
f 990 993 864
f 864 993 900
f 989 994 990
f 990 994 993
f 970 1058 989
f 989 1058 994
f 969 1018 970
f 970 1018 1058
f 1027 902 785
f 785 902 786
f 902 905 786
f 786 905 1019
f 905 1045 1019
f 1019 1045 788
f 788 1045 787
f 787 1045 789
