o hand_left
v -0.596751 0.295844 1.303264
v -0.597155 0.305049 1.300051
v -0.585261 0.303652 1.300014
v -0.585934 0.293276 1.302937
v -0.590793 0.325786 1.295304
v -0.589206 0.332672 1.284876
v -0.574534 0.328264 1.287495
v -0.578112 0.323986 1.296256
v -0.577701 0.290802 1.300257
v -0.577042 0.302855 1.299596
v -0.574865 0.290486 1.293702
v -0.580008 0.275558 1.293140
v -0.581010 0.279051 1.300189
v -0.583291 0.266173 1.295740
v -0.586211 0.275792 1.283422
v -0.591171 0.261296 1.291862
v -0.618741 0.273770 1.287302
v -0.630843 0.277472 1.292878
v -0.628001 0.263034 1.302979
v -0.615471 0.261401 1.296918
v -0.643024 0.275772 1.310450
v -0.634681 0.268054 1.306830
v -0.638290 0.281633 1.295993
v -0.645430 0.287962 1.299859
v -0.613778 0.302562 1.305505
v -0.616140 0.311496 1.301769
v -0.609897 0.308048 1.300495
v -0.608126 0.300283 1.303889
v -0.565461 0.299345 1.284477
v -0.575163 0.294461 1.277731
v -0.575032 0.289926 1.284849
v -0.566531 0.299491 1.289825
v -0.626894 0.339325 1.298311
v -0.631256 0.345763 1.287158
v -0.626703 0.344177 1.283817
v -0.624033 0.337998 1.294700
v -0.606812 0.337747 1.279155
v -0.613698 0.340474 1.272701
v -0.611848 0.338984 1.258576
v -0.605537 0.333781 1.262562
v -0.598292 0.334921 1.283340
v -0.596747 0.333146 1.269052
v -0.587839 0.331490 1.273073
v -0.572031 0.327776 1.278149
v -0.642854 0.347194 1.292608
v -0.641103 0.343129 1.301807
v -0.568921 0.249793 1.332207
v -0.573726 0.251773 1.335484
v -0.574594 0.252226 1.333532
v -0.569997 0.250059 1.330523
v -0.658958 0.334914 1.294092
v -0.663099 0.328127 1.287832
v -0.664548 0.334742 1.285081
v -0.659207 0.341050 1.289650
v -0.658508 0.326807 1.299956
v -0.660344 0.319199 1.291785
v -0.566717 0.237601 1.335373
v -0.564799 0.241981 1.333117
v -0.567250 0.240005 1.329680
v -0.570248 0.235311 1.331290
v -0.586539 0.283391 1.305144
v -0.595383 0.287776 1.307786
v -0.587569 0.268151 1.314764
v -0.591987 0.275248 1.312014
v -0.586348 0.274298 1.306985
v -0.584102 0.267657 1.308974
v -0.613079 0.284309 1.318787
v -0.615136 0.293809 1.312312
v -0.609354 0.290736 1.310442
v -0.605452 0.280512 1.317176
v -0.625584 0.300129 1.319608
v -0.622985 0.290005 1.325061
v -0.629320 0.294755 1.328500
v -0.629467 0.301683 1.324655
v -0.616678 0.271987 1.331636
v -0.615517 0.267182 1.333824
v -0.617531 0.269427 1.336479
v -0.619575 0.274001 1.333046
v -0.666185 0.340599 1.281401
v -0.658952 0.346425 1.284714
v -0.656529 0.289810 1.320627
v -0.657882 0.300229 1.324886
v -0.657855 0.290228 1.334476
v -0.656675 0.281023 1.327187
v -0.661178 0.320708 1.280784
v -0.664967 0.327179 1.278401
v -0.571549 0.235024 1.338902
v -0.574924 0.232684 1.335324
v -0.591342 0.323042 1.263770
v -0.572732 0.321001 1.270803
v -0.603381 0.325164 1.258997
v -0.611322 0.327422 1.254950
v -0.616005 0.331754 1.250028
v -0.596355 0.273402 1.317289
v -0.603969 0.292454 1.307378
v -0.618172 0.304786 1.307618
v -0.639521 0.315785 1.327291
v -0.640549 0.324600 1.321564
v -0.631546 0.319206 1.319143
v -0.632866 0.312244 1.324304
v -0.653568 0.306566 1.331195
v -0.645834 0.307607 1.333640
v -0.645908 0.299997 1.338591
v -0.653558 0.297574 1.337885
v -0.561604 0.302916 1.278712
v -0.575024 0.299825 1.271734
v -0.651467 0.340912 1.298659
v -0.650553 0.345623 1.292490
v -0.652220 0.350258 1.285551
v -0.620322 0.325183 1.300124
v -0.621992 0.337054 1.292357
v -0.618143 0.335178 1.291194
v -0.618016 0.322483 1.298775
v -0.600039 0.315736 1.299339
v -0.603493 0.328145 1.294095
v -0.587813 0.314660 1.300493
v -0.621147 0.343326 1.278306
v -0.628754 0.351177 1.276345
v -0.622540 0.348993 1.270378
v -0.637289 0.352447 1.281090
v -0.645529 0.352354 1.284608
v -0.669850 0.332258 1.273606
v -0.617624 0.345358 1.264514
v -0.569658 0.321312 1.296311
v -0.562664 0.318209 1.297501
v -0.566173 0.311513 1.298892
v -0.572209 0.313372 1.298312
v -0.584496 0.257424 1.300223
v -0.581998 0.263281 1.304721
v -0.581989 0.271551 1.300340
v -0.628997 0.332586 1.307410
v -0.640894 0.336186 1.310153
v -0.591297 0.265900 1.319877
v -0.573889 0.235706 1.326439
v -0.570253 0.240563 1.324920
v -0.579786 0.248853 1.311146
v -0.583941 0.243282 1.312145
v -0.594282 0.256998 1.324551
v -0.589961 0.261918 1.322353
v -0.589600 0.259663 1.323632
v -0.592922 0.255542 1.327610
v -0.624697 0.275002 1.338935
v -0.626116 0.279272 1.335719
v -0.611030 0.251816 1.309252
v -0.601726 0.249746 1.298678
v -0.603354 0.260159 1.291232
v -0.618990 0.287942 1.321631
v -0.617826 0.279700 1.327748
v -0.621212 0.281418 1.329527
v -0.598584 0.270678 1.320531
v -0.595904 0.264036 1.323299
v -0.600913 0.266468 1.323261
v -0.603407 0.272924 1.321506
v -0.659097 0.309742 1.315473
v -0.654310 0.317091 1.323205
v -0.565715 0.246296 1.331720
v -0.567208 0.245557 1.329145
v -0.620863 0.297189 1.315236
v -0.606465 0.272967 1.284027
v -0.622416 0.307285 1.310224
v -0.641746 0.268714 1.331768
v -0.639650 0.273560 1.338500
v -0.636104 0.271346 1.342178
v -0.636880 0.266066 1.339226
v -0.585842 0.248290 1.337536
v -0.581604 0.252309 1.336446
v -0.579815 0.251099 1.337012
v -0.583461 0.246876 1.339571
v -0.585944 0.263501 1.318284
v -0.582334 0.262813 1.312963
v -0.580601 0.259654 1.317070
v -0.585023 0.260235 1.321167
v -0.580996 0.257878 1.308742
v -0.578822 0.254978 1.312813
v -0.587286 0.241770 1.336938
v -0.584138 0.235220 1.334061
v -0.594656 0.242656 1.321451
v -0.594639 0.247983 1.327157
v -0.648658 0.298443 1.289155
v -0.655523 0.304617 1.295473
v -0.652705 0.294199 1.306228
v -0.651209 0.283110 1.316688
v -0.648139 0.272730 1.326288
v -0.641766 0.264974 1.319274
v -0.657256 0.300026 1.309940
v -0.602949 0.254789 1.320449
v -0.601971 0.248278 1.313514
v -0.606619 0.251755 1.316236
v -0.626885 0.310772 1.315140
v -0.569490 0.246228 1.325460
v -0.629421 0.315120 1.253142
v -0.641544 0.314041 1.257992
v -0.636959 0.308010 1.262521
v -0.623226 0.309753 1.257665
v -0.575706 0.253723 1.332858
v -0.571247 0.251788 1.328313
v -0.630855 0.281225 1.340069
v -0.628974 0.276537 1.342420
v -0.631811 0.275468 1.344302
v -0.634243 0.280715 1.344826
v -0.658508 0.309175 1.298000
v -0.654530 0.285220 1.341990
v -0.653957 0.276945 1.334769
v -0.657779 0.313355 1.285861
v -0.652308 0.307725 1.279981
v -0.655434 0.314558 1.273712
v -0.628855 0.257226 1.318807
v -0.642507 0.293006 1.286276
v -0.646482 0.303647 1.277088
v -0.649948 0.311629 1.269458
v -0.653353 0.317115 1.264103
v -0.658922 0.319873 1.269399
v -0.578991 0.233876 1.330408
v -0.580491 0.234387 1.339650
v -0.664109 0.324997 1.263953
v -0.657178 0.322100 1.258477
v -0.638881 0.300016 1.273334
v -0.628827 0.296821 1.269372
v -0.635201 0.289991 1.282498
v -0.624905 0.285797 1.279140
v -0.624691 0.251542 1.310183
v -0.573871 0.244972 1.352492
v -0.580412 0.241198 1.344882
v -0.581277 0.246613 1.342648
v -0.576212 0.248502 1.351287
v -0.583959 0.241039 1.340662
v -0.577184 0.236728 1.343350
v -0.609907 0.285774 1.275146
v -0.599767 0.261148 1.324892
v -0.611904 0.299959 1.265185
v -0.590722 0.285590 1.273788
v -0.591935 0.298038 1.267733
v -0.612323 0.314853 1.255508
v -0.597744 0.311601 1.260184
v -0.623347 0.324568 1.247544
v -0.619057 0.318838 1.252032
v -0.581593 0.311035 1.265077
v -0.567688 0.254562 1.339992
v -0.573074 0.255002 1.342914
v -0.633475 0.320387 1.248180
v -0.578533 0.313652 1.299554
v -0.625838 0.319951 1.309455
v -0.622531 0.316655 1.306031
v -0.640801 0.329416 1.317325
v -0.630341 0.325024 1.313840
v -0.563269 0.251262 1.339299
v -0.616727 0.263773 1.335442
v -0.617622 0.265570 1.334961
v -0.565880 0.325693 1.290025
v -0.559540 0.322530 1.292069
v -0.555235 0.316268 1.281172
v -0.555607 0.321392 1.286355
v -0.562996 0.324893 1.281858
v -0.562655 0.319518 1.276044
v -0.622027 0.326999 1.301670
v -0.624651 0.328744 1.304187
v -0.658969 0.319040 1.307485
v -0.653776 0.325615 1.315487
v -0.583662 0.252469 1.305964
v -0.591653 0.251776 1.299131
v -0.589108 0.247593 1.306020
v -0.590639 0.241733 1.314522
v -0.599888 0.257144 1.324502
v -0.598123 0.252319 1.322410
v -0.611102 0.331273 1.292957
v -0.611126 0.318427 1.298448
v -0.572304 0.303813 1.297157
v -0.567556 0.303917 1.296062
v -0.610351 0.276899 1.323160
v -0.621077 0.254137 1.327406
v -0.617322 0.249996 1.319884
v -0.608603 0.269073 1.326782
v -0.561510 0.244505 1.344018
v -0.561417 0.248295 1.340829
v -0.595853 0.245703 1.307613
v -0.627092 0.286176 1.333459
v -0.625991 0.258562 1.327311
v -0.620211 0.258241 1.333461
v -0.651776 0.293429 1.342164
v -0.645219 0.320154 1.252629
v -0.578908 0.251117 1.339760
v -0.576867 0.253280 1.346375
v -0.570822 0.242113 1.351266
v -0.565905 0.241139 1.347326
v -0.651600 0.333137 1.307738
v -0.620077 0.314103 1.304099
v -0.568075 0.310811 1.270801
v -0.557997 0.309852 1.277868
v -0.608090 0.264995 1.328073
v -0.646210 0.273206 1.334867
v -0.637102 0.261531 1.327917
v -0.632085 0.258990 1.336467
v -0.624585 0.257706 1.335554
v -0.618458 0.261078 1.336381
v -0.568572 0.246236 1.355566
v -0.563387 0.245499 1.351966
v -0.559661 0.248877 1.348041
v -0.560051 0.251745 1.344188
v -0.563038 0.253875 1.341824
v -0.572114 0.249190 1.356243
v -0.574412 0.252051 1.354398
v -0.575896 0.254555 1.348647
v -0.571774 0.253635 1.357914
v -0.566691 0.253680 1.359638
v -0.557936 0.262586 1.352820
v -0.558225 0.256489 1.352670
v -0.558778 0.258085 1.354991
v -0.558630 0.263082 1.355958
v -0.558829 0.267734 1.358385
v -0.557924 0.267963 1.354981
v -0.561572 0.254750 1.356984
v -0.561715 0.261382 1.359008
v -0.565532 0.260967 1.360835
v -0.564854 0.266178 1.362871
v -0.561357 0.266668 1.361481
v -0.565026 0.256394 1.359642
v -0.561461 0.252094 1.356432
v -0.559358 0.271332 1.357875
v -0.559269 0.270139 1.360089
v -0.561661 0.269706 1.362361
v -0.562542 0.272549 1.361615
v -0.559377 0.256147 1.346773
v -0.558637 0.263626 1.350510
v -0.560137 0.269028 1.353009
v -0.561391 0.272175 1.356110
v -0.562012 0.265743 1.349360
v -0.562920 0.269522 1.352088
v -0.564462 0.272058 1.354812
v -0.566186 0.266965 1.349493
v -0.566144 0.269843 1.352288
v -0.566841 0.257578 1.343640
v -0.562856 0.256209 1.343372
v -0.566422 0.271807 1.353889
v -0.564294 0.273290 1.360513
v -0.568978 0.259590 1.360673
v -0.567991 0.266495 1.362188
v -0.571131 0.260204 1.359698
v -0.570248 0.266851 1.361616
v -0.566512 0.270494 1.363650
v -0.564396 0.269077 1.363387
v -0.568011 0.255422 1.341791
v -0.573479 0.255570 1.344803
v -0.572631 0.257232 1.346333
v -0.570738 0.266452 1.351284
v -0.575131 0.256717 1.350057
v -0.574035 0.256133 1.355733
v -0.572711 0.262324 1.358146
v -0.573258 0.264345 1.355321
v -0.571500 0.267430 1.359444
v -0.571421 0.268203 1.356990
v -0.569520 0.269669 1.353880
v -0.569582 0.271016 1.359644
v -0.568183 0.270888 1.362253
v -0.566601 0.272810 1.358056
v -0.570202 0.270619 1.357850
v -0.567877 0.271553 1.356108
v -0.591109 0.262058 1.351637
v -0.596417 0.264344 1.354452
v -0.597649 0.261823 1.351115
v -0.593152 0.259894 1.348771
v -0.588859 0.248903 1.356566
v -0.587058 0.254177 1.353272
v -0.589329 0.250407 1.349592
v -0.592764 0.245143 1.352942
v -0.595029 0.247010 1.360414
v -0.599060 0.244156 1.356210
v -0.595773 0.243788 1.347689
v -0.592133 0.249303 1.344784
v -0.601328 0.252894 1.326622
v -0.605469 0.247795 1.327664
v -0.611500 0.265168 1.335253
v -0.613972 0.263116 1.337149
v -0.588550 0.258914 1.351689
v -0.590381 0.255798 1.348387
v -0.606780 0.260881 1.353074
v -0.602558 0.263328 1.350466
v -0.601772 0.262831 1.353645
v -0.605207 0.259991 1.356926
v -0.601698 0.261076 1.328201
v -0.606876 0.263215 1.331501
v -0.600530 0.257545 1.327112
v -0.609146 0.254914 1.355120
v -0.608260 0.248061 1.355002
v -0.617179 0.250061 1.336429
v -0.617655 0.255738 1.339139
v -0.591650 0.254679 1.344197
v -0.597335 0.262575 1.347909
v -0.593481 0.259964 1.345248
v -0.602701 0.243721 1.350767
v -0.604490 0.248948 1.360259
v -0.596709 0.263374 1.372171
v -0.603046 0.257329 1.364038
v -0.602864 0.261823 1.361284
v -0.597543 0.268106 1.370047
v -0.606173 0.255084 1.359662
v -0.600564 0.251888 1.364105
v -0.586439 0.271220 1.361622
v -0.592013 0.272974 1.364121
v -0.582995 0.268153 1.361811
v -0.611931 0.246819 1.330930
v -0.583089 0.258284 1.365714
v -0.581745 0.264069 1.362702
v -0.600841 0.264627 1.357452
v -0.595895 0.271965 1.367185
v -0.594278 0.259368 1.372505
v -0.588858 0.255547 1.368954
v -0.591669 0.263111 1.375987
v -0.585864 0.260812 1.373558
v -0.580267 0.263702 1.369728
v -0.579976 0.268430 1.365822
v -0.582017 0.271291 1.364053
v -0.594581 0.266806 1.375432
v -0.595741 0.271043 1.372852
v -0.594428 0.273599 1.368247
v -0.593260 0.272501 1.377946
v -0.589823 0.270173 1.379922
v -0.576867 0.284049 1.378127
v -0.577444 0.278362 1.376032
v -0.578653 0.277838 1.378372
v -0.578018 0.282941 1.380487
v -0.578307 0.271875 1.375567
v -0.579562 0.273140 1.377627
v -0.583495 0.271171 1.379331
v -0.582635 0.277187 1.381076
v -0.587530 0.276959 1.381753
v -0.586541 0.281976 1.384416
v -0.581684 0.282372 1.384010
v -0.586971 0.272584 1.380680
v -0.578461 0.286013 1.382398
v -0.578530 0.288430 1.381328
v -0.583474 0.267735 1.378426
v -0.578587 0.271934 1.369200
v -0.577646 0.280117 1.373461
v -0.577999 0.286275 1.375998
v -0.580654 0.290214 1.380006
v -0.580333 0.282784 1.371450
v -0.580592 0.287830 1.374782
v -0.582911 0.290487 1.378415
v -0.584603 0.284769 1.370407
v -0.584675 0.289035 1.374349
v -0.585616 0.275694 1.364776
v -0.581312 0.274136 1.365794
v -0.584653 0.290133 1.376746
v -0.581836 0.288548 1.384967
v -0.583662 0.290604 1.382988
v -0.581461 0.286651 1.385033
v -0.589660 0.277138 1.381603
v -0.588363 0.283151 1.383852
v -0.591863 0.278671 1.380563
v -0.589981 0.284873 1.383174
v -0.586402 0.287128 1.385569
v -0.585025 0.286103 1.385862
v -0.585837 0.273246 1.363504
v -0.591152 0.274089 1.365283
v -0.591150 0.276038 1.366048
v -0.589723 0.284619 1.372021
v -0.594631 0.275092 1.369384
v -0.594820 0.274263 1.375066
v -0.593227 0.280031 1.378435
v -0.592790 0.282724 1.375382
v -0.591456 0.285809 1.381816
v -0.591604 0.286163 1.378504
v -0.588640 0.288403 1.375343
v -0.588831 0.289367 1.383125
v -0.587470 0.288378 1.384838
v -0.585040 0.290868 1.381196
v -0.589734 0.289037 1.380285
v -0.586770 0.290371 1.378487
v -0.609393 0.272039 1.359018
v -0.614505 0.274176 1.360670
v -0.615938 0.273009 1.357591
v -0.611095 0.270481 1.356042
v -0.608284 0.259942 1.363263
v -0.605957 0.263874 1.361298
v -0.607953 0.261692 1.357515
v -0.610928 0.257161 1.358421
v -0.612415 0.259302 1.367271
v -0.616287 0.255595 1.361128
v -0.613476 0.255440 1.353612
v -0.609852 0.260357 1.353609
v -0.616526 0.261133 1.340285
v -0.620800 0.256262 1.341362
v -0.606850 0.268257 1.359724
v -0.608525 0.266598 1.356545
v -0.624098 0.271676 1.359694
v -0.620227 0.273948 1.357617
v -0.620502 0.272754 1.360477
v -0.623146 0.270076 1.362872
v -0.617906 0.271313 1.339613
v -0.623193 0.273595 1.341383
v -0.615738 0.266897 1.340088
v -0.626240 0.265479 1.361020
v -0.625172 0.258345 1.359677
v -0.632463 0.262058 1.347410
v -0.632538 0.268168 1.347795
v -0.609468 0.265527 1.353402
v -0.615675 0.273847 1.354777
v -0.611196 0.270785 1.353358
v -0.619503 0.255018 1.355875
v -0.621699 0.258971 1.364548
v -0.614177 0.271624 1.381440
v -0.621757 0.265721 1.368549
v -0.621434 0.271132 1.366053
v -0.615306 0.275596 1.379785
v -0.624047 0.264873 1.365278
v -0.618483 0.261000 1.368987
v -0.604289 0.279891 1.372140
v -0.609657 0.280669 1.373490
v -0.601815 0.276317 1.371897
v -0.627512 0.256089 1.344009
v -0.629599 0.273500 1.345770
v -0.601056 0.270021 1.375806
v -0.600532 0.273482 1.373259
v -0.619107 0.273591 1.363369
v -0.614016 0.279160 1.376835
v -0.610928 0.268067 1.380934
v -0.605485 0.266694 1.378257
v -0.609929 0.271485 1.385466
v -0.604253 0.270795 1.383319
v -0.599879 0.273923 1.381255
v -0.599652 0.277232 1.378377
v -0.601052 0.279814 1.376536
v -0.613365 0.274769 1.385383
v -0.614304 0.277983 1.383319
v -0.613223 0.279828 1.378544
v -0.613487 0.277995 1.387857
v -0.608981 0.276192 1.390444
v -0.599421 0.289443 1.393662
v -0.599414 0.285154 1.389833
v -0.600141 0.284599 1.390704
v -0.600044 0.288439 1.394917
v -0.599730 0.278881 1.387161
v -0.600509 0.279909 1.388840
v -0.603534 0.277586 1.390006
v -0.603792 0.282643 1.394015
v -0.609787 0.282381 1.393484
v -0.608955 0.286220 1.396512
v -0.603489 0.286494 1.397612
v -0.607978 0.277794 1.391123
v -0.600970 0.290285 1.397313
v -0.599574 0.291656 1.397251
v -0.603435 0.275452 1.388732
v -0.598524 0.280997 1.382841
v -0.598820 0.287032 1.387688
v -0.598707 0.291661 1.391413
v -0.600670 0.294002 1.394604
v -0.601019 0.289186 1.385431
v -0.600919 0.292870 1.389432
v -0.602529 0.294992 1.392381
v -0.603889 0.290266 1.384315
v -0.603898 0.293359 1.388157
v -0.604039 0.283237 1.377355
v -0.600618 0.282420 1.379560
v -0.604313 0.294783 1.390930
v -0.603774 0.291281 1.399612
v -0.605675 0.294200 1.397228
v -0.603705 0.289774 1.398759
v -0.611494 0.282127 1.392800
v -0.611077 0.287273 1.396640
v -0.613393 0.283435 1.391139
v -0.612841 0.288594 1.394963
v -0.608764 0.289768 1.398957
v -0.607839 0.289041 1.398728
v -0.604514 0.281188 1.375096
v -0.609480 0.281452 1.375830
v -0.608895 0.283217 1.377541
v -0.608511 0.290636 1.384710
v -0.612785 0.281636 1.379860
v -0.614193 0.281000 1.385697
v -0.613593 0.285882 1.388932
v -0.612100 0.288726 1.386919
v -0.612999 0.290244 1.392682
v -0.611683 0.291075 1.390273
v -0.608008 0.293658 1.388260
v -0.610402 0.292657 1.394678
v -0.610234 0.291463 1.397348
v -0.606564 0.295140 1.394363
v -0.610163 0.293298 1.392306
v -0.607196 0.295080 1.391956
v -0.626959 0.274577 1.343647
v -0.626257 0.282615 1.364631
v -0.629705 0.284805 1.366079
v -0.630518 0.284179 1.365538
v -0.627316 0.282295 1.362994
v -0.627477 0.271293 1.365784
v -0.624687 0.275089 1.364818
v -0.626492 0.273328 1.361428
v -0.629473 0.269801 1.362135
v -0.632399 0.270388 1.367803
v -0.634561 0.269613 1.364785
v -0.631680 0.270285 1.358881
v -0.628413 0.273634 1.357995
v -0.636587 0.275131 1.343380
v -0.641840 0.272909 1.342815
v -0.648750 0.290449 1.347254
v -0.643893 0.292841 1.345215
v -0.641846 0.289592 1.353568
v -0.646402 0.287653 1.354204
v -0.624651 0.279069 1.364367
v -0.625686 0.278330 1.361405
v -0.639924 0.282815 1.367965
v -0.635864 0.285193 1.366350
v -0.634206 0.284964 1.367517
v -0.638021 0.283551 1.370068
v -0.638953 0.290696 1.344354
v -0.636316 0.286401 1.343449
v -0.634716 0.286080 1.347698
v -0.637238 0.288302 1.352182
v -0.633521 0.280824 1.346407
v -0.641745 0.278695 1.367742
v -0.641090 0.273029 1.365569
v -0.651588 0.279583 1.350402
v -0.650237 0.284128 1.352320
v -0.627006 0.277626 1.359678
v -0.631811 0.284732 1.363697
v -0.628504 0.282198 1.362337
v -0.636990 0.269655 1.361346
v -0.638565 0.273530 1.368659
v -0.634961 0.281617 1.378229
v -0.638733 0.279644 1.372410
v -0.637324 0.284100 1.370935
v -0.634825 0.284668 1.376792
v -0.639528 0.279240 1.370641
v -0.636612 0.274419 1.371720
v -0.624068 0.285683 1.369715
v -0.628906 0.287343 1.371623
v -0.622047 0.282948 1.369597
v -0.647786 0.274344 1.345159
v -0.622952 0.276109 1.372641
v -0.621226 0.279878 1.370966
v -0.633348 0.285389 1.368402
v -0.632693 0.286984 1.374297
v -0.632662 0.277385 1.378236
v -0.628020 0.274171 1.375224
v -0.629966 0.279603 1.381354
v -0.625292 0.276964 1.378447
v -0.620568 0.280048 1.375141
v -0.620602 0.282877 1.372458
v -0.621925 0.285421 1.371059
v -0.633125 0.283466 1.380630
v -0.633619 0.285930 1.378740
v -0.632170 0.287702 1.375430
v -0.631240 0.285675 1.383223
v -0.626787 0.284348 1.384377
v -0.618786 0.294914 1.382233
v -0.619064 0.291440 1.379868
v -0.619357 0.290904 1.380907
v -0.618470 0.294299 1.383089
v -0.619461 0.286049 1.378362
v -0.619901 0.286862 1.379959
v -0.622179 0.284423 1.381621
v -0.621283 0.289038 1.384302
v -0.626130 0.289423 1.386686
v -0.624834 0.292920 1.388499
v -0.620564 0.292105 1.386472
v -0.625250 0.285403 1.384600
v -0.618236 0.295868 1.385394
v -0.617978 0.297271 1.385352
v -0.622307 0.282068 1.381021
v -0.619919 0.287573 1.374583
v -0.619213 0.293528 1.378320
v -0.618758 0.297344 1.381763
v -0.619401 0.299156 1.385136
v -0.620978 0.294330 1.376714
v -0.620254 0.298746 1.380687
v -0.621000 0.300349 1.383947
v -0.624124 0.295235 1.376005
v -0.622803 0.298960 1.380114
v -0.625495 0.290168 1.372178
v -0.622132 0.289235 1.372752
v -0.622498 0.300043 1.383013
v -0.620117 0.296778 1.388621
v -0.621715 0.299073 1.387557
v -0.620086 0.295149 1.388539
v -0.627503 0.289575 1.386763
v -0.626084 0.293930 1.388899
v -0.629605 0.290599 1.385992
v -0.627418 0.295396 1.388014
v -0.623578 0.296305 1.389698
v -0.622770 0.294644 1.389232
v -0.624894 0.288101 1.371075
v -0.628546 0.288336 1.372424
v -0.629329 0.290085 1.373891
v -0.627994 0.295061 1.377455
v -0.632515 0.288867 1.377252
v -0.632875 0.287187 1.380852
v -0.630796 0.292179 1.384097
v -0.630687 0.293974 1.381190
v -0.627925 0.296889 1.386509
v -0.627973 0.298008 1.383685
v -0.626052 0.298866 1.381085
v -0.624873 0.299103 1.387002
v -0.624344 0.298254 1.388606
v -0.622931 0.299968 1.386119
v -0.625390 0.299576 1.385199
v -0.624168 0.299994 1.384146
v -0.650696 0.286804 1.347923
v -0.549731 0.299913 1.288136
v -0.554157 0.298456 1.291627
v -0.554599 0.309810 1.303805
v -0.556595 0.303214 1.301605
v -0.549867 0.314806 1.302162
v -0.542968 0.315691 1.293577
v -0.546721 0.317036 1.297791
v -0.556587 0.299324 1.296982
v -0.545779 0.304335 1.286427
v -0.542830 0.311013 1.288129
v -0.538970 0.295970 1.290308
v -0.534611 0.303786 1.293339
v -0.534614 0.308424 1.299337
v -0.541677 0.311921 1.302925
v -0.546025 0.311645 1.305683
v -0.547528 0.295407 1.291668
v -0.552254 0.295526 1.294443
v -0.554985 0.298494 1.299909
v -0.548866 0.290454 1.297200
v -0.544227 0.288522 1.305101
v -0.542080 0.295012 1.324212
v -0.541377 0.298852 1.318261
v -0.540858 0.296377 1.317430
v -0.541193 0.293091 1.323018
v -0.539165 0.299457 1.312554
v -0.540066 0.297311 1.312813
v -0.540869 0.293816 1.308844
v -0.541719 0.290905 1.314510
v -0.544069 0.289926 1.307873
v -0.545922 0.287649 1.311663
v -0.542431 0.287889 1.319697
v -0.541211 0.289563 1.325199
v -0.543075 0.285543 1.323991
v -0.543020 0.290639 1.327331
v -0.537053 0.292921 1.306416
v -0.540372 0.305586 1.310673
v -0.542963 0.301814 1.318406
v -0.544775 0.297255 1.324878
v -0.545901 0.291924 1.327794
v -0.546843 0.303187 1.318468
v -0.548524 0.298294 1.323516
v -0.549824 0.293135 1.325595
v -0.551391 0.302115 1.317254
v -0.551673 0.297109 1.321484
v -0.551638 0.307505 1.308470
v -0.545764 0.309021 1.309787
v -0.551391 0.293638 1.323426
v -0.544793 0.284940 1.326045
v -0.547901 0.286346 1.326238
v -0.548230 0.286599 1.309529
v -0.546342 0.284545 1.316326
v -0.548948 0.284218 1.315631
v -0.551534 0.287274 1.307660
v -0.551568 0.284723 1.315344
v -0.547731 0.282898 1.321141
v -0.545302 0.283708 1.320403
v -0.551452 0.308840 1.306496
v -0.554570 0.303694 1.303945
v -0.554900 0.303095 1.304966
v -0.555262 0.298134 1.313598
v -0.556110 0.297722 1.301928
v -0.553321 0.293174 1.298661
v -0.554634 0.289105 1.308104
v -0.556300 0.293077 1.310007
v -0.553816 0.287332 1.315745
v -0.554547 0.290165 1.316457
v -0.554047 0.294038 1.319323
v -0.552356 0.286826 1.320837
v -0.550520 0.283982 1.321075
v -0.551007 0.288925 1.324439
v -0.553138 0.289189 1.319934
v -0.552417 0.291173 1.322266
v -0.644780 0.296169 1.341307
v -0.638529 0.293953 1.339948
v -0.639810 0.299131 1.337106
v -0.639559 0.307183 1.332717
v -0.645599 0.314863 1.328764
v -0.633982 0.304548 1.329288
v -0.634386 0.296382 1.334219
v -0.632788 0.288579 1.338143
v -0.629585 0.308189 1.320717
f 2 3 1
f 1 3 4
f 5 6 8
f 8 6 7
f 9 4 10
f 10 4 3
f 12 13 11
f 11 13 9
f 14 12 16
f 16 12 15
f 18 19 17
f 17 19 20
f 22 23 21
f 21 23 24
f 26 27 25
f 25 27 28
f 30 31 29
f 29 31 32
f 33 34 36
f 36 34 35
f 37 38 40
f 40 38 39
f 41 42 6
f 6 42 43
f 6 43 7
f 7 43 44
f 45 34 46
f 46 34 33
f 48 49 47
f 47 49 50
f 52 53 51
f 51 53 54
f 56 52 55
f 55 52 51
f 58 59 57
f 57 59 60
f 61 62 4
f 4 62 1
f 64 65 63
f 63 65 66
f 68 69 67
f 67 69 70
f 72 73 71
f 71 73 74
f 76 77 75
f 75 77 78
f 53 79 54
f 54 79 80
f 82 83 81
f 81 83 84
f 85 86 52
f 52 86 53
f 57 60 87
f 87 60 88
f 89 90 43
f 43 90 44
f 43 42 89
f 89 42 91
f 40 39 92
f 92 39 93
f 94 70 64
f 64 70 69
f 13 61 9
f 9 61 4
f 25 28 69
f 69 28 95
f 96 25 68
f 68 25 69
f 98 99 97
f 97 99 100
f 101 102 104
f 104 102 103
f 106 30 105
f 105 30 29
f 51 54 107
f 107 54 108
f 54 80 108
f 108 80 109
f 111 112 110
f 110 112 113
f 115 5 114
f 114 5 116
f 115 41 5
f 5 41 6
f 36 35 111
f 111 35 117
f 35 118 117
f 117 118 119
f 34 120 35
f 35 120 118
f 34 45 120
f 120 45 121
f 125 126 124
f 124 126 127
f 128 129 14
f 14 129 130
f 33 131 46
f 46 131 132
f 133 94 63
f 63 94 64
f 134 135 137
f 137 135 136
f 139 140 138
f 138 140 141
f 77 142 78
f 78 142 143
f 144 145 20
f 20 145 146
f 148 149 147
f 147 149 72
f 151 152 150
f 150 152 153
f 82 101 83
f 83 101 104
f 101 82 155
f 155 82 154
f 156 157 58
f 58 157 59
f 158 68 147
f 147 68 67
f 159 146 15
f 15 146 16
f 68 158 96
f 96 158 160
f 129 66 130
f 130 66 65
f 162 163 161
f 161 163 164
f 166 167 165
f 165 167 168
f 170 171 169
f 169 171 172
f 174 171 173
f 173 171 170
f 176 177 175
f 175 177 178
f 180 181 179
f 179 181 24
f 182 183 21
f 21 183 184
f 81 185 82
f 82 185 154
f 186 187 188
f 188 187 144
f 158 71 160
f 160 71 189
f 190 135 157
f 157 135 59
f 169 172 139
f 139 172 140
f 147 72 158
f 158 72 71
f 192 193 191
f 191 193 194
f 167 166 49
f 49 166 195
f 196 190 50
f 50 190 157
f 197 198 200
f 200 198 199
f 21 24 182
f 182 24 181
f 146 159 20
f 20 159 17
f 182 181 81
f 81 181 185
f 201 185 180
f 180 185 181
f 202 203 83
f 83 203 84
f 205 206 204
f 204 206 85
f 207 22 184
f 184 22 21
f 179 24 208
f 208 24 23
f 208 209 179
f 179 209 205
f 209 210 205
f 205 210 206
f 212 206 211
f 211 206 210
f 179 205 180
f 180 205 204
f 213 176 88
f 88 176 214
f 86 85 212
f 212 85 206
f 193 217 218
f 217 219 218
f 218 219 220
f 219 18 220
f 220 18 17
f 19 221 20
f 20 221 144
f 222 223 225
f 225 223 224
f 175 226 176
f 176 226 214
f 227 87 214
f 214 87 88
f 220 17 228
f 228 17 159
f 134 213 60
f 60 213 88
f 138 229 151
f 151 229 152
f 193 192 210
f 210 192 211
f 230 194 218
f 218 194 193
f 231 232 228
f 228 232 230
f 233 234 91
f 91 234 89
f 235 236 93
f 93 236 92
f 230 232 234
f 234 232 237
f 47 238 48
f 48 238 239
f 240 191 235
f 235 191 236
f 5 8 116
f 116 8 241
f 242 243 189
f 189 243 160
f 244 245 98
f 98 245 99
f 156 246 47
f 47 246 238
f 76 247 77
f 77 247 248
f 250 125 249
f 249 125 124
f 252 253 251
f 251 253 254
f 111 110 36
f 36 110 255
f 256 33 255
f 255 33 36
f 257 258 154
f 154 258 155
f 63 169 133
f 133 169 139
f 66 170 63
f 63 170 169
f 173 170 129
f 129 170 66
f 129 128 173
f 173 128 259
f 128 260 259
f 259 260 261
f 213 134 262
f 262 134 137
f 263 264 186
f 186 264 187
f 112 265 113
f 113 265 266
f 11 267 268
f 234 233 230
f 230 233 194
f 153 269 70
f 70 269 67
f 175 178 165
f 165 178 141
f 150 153 94
f 94 153 70
f 271 221 270
f 270 221 207
f 269 153 272
f 272 153 152
f 121 45 109
f 109 45 108
f 47 50 156
f 156 50 157
f 57 273 58
f 58 273 274
f 145 275 260
f 260 275 261
f 276 149 143
f 143 149 78
f 148 269 75
f 75 269 272
f 207 277 270
f 270 277 278
f 195 196 49
f 49 196 50
f 59 135 60
f 60 135 134
f 83 104 202
f 202 104 279
f 149 148 78
f 78 148 75
f 247 278 248
f 248 278 277
f 183 182 84
f 84 182 81
f 48 239 281
f 281 239 282
f 227 223 283
f 283 223 222
f 223 226 224
f 224 226 168
f 281 282 224
f 224 282 225
f 165 168 175
f 175 168 226
f 264 263 138
f 138 263 229
f 14 16 128
f 128 16 260
f 220 228 218
f 218 228 230
f 87 227 284
f 284 227 283
f 260 16 145
f 145 16 146
f 244 98 258
f 258 98 155
f 58 274 156
f 156 274 246
f 107 285 51
f 51 285 55
f 243 286 160
f 160 286 96
f 234 237 89
f 89 237 90
f 46 132 107
f 107 132 285
f 253 252 249
f 249 252 250
f 286 26 96
f 96 26 25
f 106 105 287
f 287 105 288
f 272 152 289
f 289 152 229
f 138 151 139
f 139 151 133
f 183 290 161
f 161 290 162
f 291 292 277
f 277 292 293
f 151 150 133
f 133 150 94
f 262 275 177
f 177 275 187
f 144 187 145
f 145 187 275
f 273 57 284
f 284 57 87
f 174 136 190
f 190 136 135
f 111 117 112
f 112 117 38
f 117 119 38
f 38 119 123
f 112 38 265
f 265 38 37
f 287 288 254
f 254 288 251
f 228 159 231
f 231 159 15
f 223 227 226
f 226 227 214
f 147 67 148
f 148 67 269
f 224 168 281
f 281 168 167
f 199 163 200
f 200 163 162
f 45 46 108
f 108 46 107
f 281 167 48
f 48 167 49
f 161 164 291
f 291 164 292
f 38 123 39
f 293 294 277
f 277 294 248
f 284 283 296
f 296 283 295
f 284 296 273
f 273 296 297
f 274 273 298
f 298 273 297
f 246 274 299
f 299 274 298
f 283 222 295
f 295 222 300
f 222 225 300
f 300 225 301
f 301 225 302
f 302 225 282
f 303 304 300
f 300 304 295
f 306 307 305
f 305 307 308
f 309 310 308
f 308 310 305
f 308 307 312
f 312 307 311
f 313 314 312
f 312 314 315
f 311 316 312
f 312 316 313
f 317 304 311
f 311 304 316
f 315 309 312
f 312 309 308
f 318 319 321
f 321 319 320
f 319 318 309
f 309 318 310
f 311 307 317
f 317 307 306
f 306 297 317
f 317 297 296
f 306 322 297
f 297 322 298
f 305 323 306
f 306 323 322
f 323 305 324
f 324 305 310
f 304 317 295
f 295 317 296
f 318 325 310
f 310 325 324
f 323 324 326
f 326 324 327
f 324 325 327
f 327 325 328
f 326 327 329
f 329 327 330
f 329 331 326
f 326 331 332
f 333 330 328
f 328 330 327
f 323 326 322
f 322 326 332
f 322 332 298
f 298 332 299
f 325 318 334
f 334 318 321
f 313 316 335
f 335 316 304
f 335 336 313
f 313 336 314
f 304 303 335
f 335 303 337
f 336 335 338
f 338 335 337
f 336 339 314
f 314 339 340
f 246 299 238
f 238 299 341
f 239 342 282
f 282 342 302
f 342 239 341
f 341 239 238
f 341 331 342
f 342 331 343
f 331 329 343
f 343 329 344
f 342 343 302
f 302 343 345
f 341 299 331
f 331 299 332
f 346 301 345
f 345 301 302
f 346 303 301
f 301 303 300
f 347 337 346
f 346 337 303
f 347 346 348
f 348 346 345
f 349 347 350
f 350 347 348
f 343 344 345
f 345 344 348
f 344 351 348
f 348 351 350
f 337 347 338
f 338 347 349
f 353 338 352
f 352 338 349
f 352 355 354
f 354 355 356
f 352 349 355
f 355 349 350
f 352 354 353
f 353 354 334
f 353 334 339
f 339 334 321
f 339 336 353
f 353 336 338
f 329 330 344
f 344 330 351
f 356 351 333
f 333 351 330
f 356 355 351
f 351 355 350
f 354 356 328
f 328 356 333
f 328 325 354
f 354 325 334
f 309 315 319
f 319 315 320
f 320 340 321
f 321 340 339
f 320 315 340
f 340 315 314
f 137 136 261
f 261 136 259
f 140 166 141
f 141 166 165
f 172 171 195
f 195 171 196
f 171 174 196
f 196 174 190
f 178 177 264
f 264 177 187
f 172 195 140
f 140 195 166
f 137 261 262
f 262 261 275
f 178 264 141
f 141 264 138
f 262 177 213
f 213 177 176
f 136 174 259
f 259 174 173
f 358 359 357
f 357 359 360
f 362 363 361
f 361 363 364
f 361 364 365
f 365 364 366
f 367 368 370
f 370 368 369
f 76 371 247
f 247 371 372
f 373 374 362
f 362 374 363
f 376 377 375
f 375 377 378
f 289 229 380
f 380 229 379
f 381 379 263
f 263 379 229
f 383 384 382
f 382 384 385
f 386 368 374
f 374 368 363
f 76 289 371
f 371 289 380
f 377 376 359
f 359 376 387
f 388 386 360
f 360 386 374
f 389 383 366
f 366 383 390
f 392 393 391
f 391 393 394
f 383 382 390
f 390 382 395
f 396 365 390
f 390 365 366
f 389 366 367
f 367 366 364
f 357 397 358
f 358 397 398
f 373 399 357
f 357 399 397
f 389 367 400
f 400 367 370
f 382 385 375
f 375 385 372
f 357 360 373
f 373 360 374
f 361 401 362
f 362 401 402
f 387 388 359
f 359 388 360
f 363 368 364
f 364 368 367
f 358 398 403
f 403 398 404
f 396 392 405
f 405 392 391
f 392 395 393
f 393 395 378
f 393 403 394
f 394 403 404
f 375 378 382
f 382 378 395
f 365 396 406
f 406 396 405
f 362 402 373
f 373 402 399
f 271 270 400
f 400 270 384
f 401 361 406
f 406 361 365
f 381 369 386
f 386 369 368
f 392 396 395
f 395 396 390
f 393 378 403
f 403 378 377
f 403 377 358
f 358 377 359
f 406 405 408
f 408 405 407
f 406 408 401
f 401 408 409
f 401 409 402
f 402 409 410
f 402 410 399
f 399 410 411
f 405 391 407
f 407 391 412
f 391 394 412
f 412 394 413
f 394 404 413
f 413 404 414
f 415 416 412
f 412 416 407
f 418 419 417
f 417 419 420
f 421 422 418
f 418 422 419
f 419 422 424
f 424 422 423
f 425 426 424
f 424 426 427
f 423 428 424
f 424 428 425
f 427 420 424
f 424 420 419
f 420 429 417
f 417 429 430
f 423 422 431
f 431 422 421
f 421 409 431
f 431 409 408
f 421 432 409
f 409 432 410
f 418 433 421
f 421 433 432
f 434 433 417
f 417 433 418
f 431 416 423
f 423 416 428
f 416 431 407
f 407 431 408
f 435 434 430
f 430 434 417
f 433 434 436
f 436 434 437
f 434 435 437
f 437 435 438
f 436 437 439
f 439 437 440
f 439 441 436
f 436 441 442
f 438 443 437
f 437 443 440
f 436 442 433
f 433 442 432
f 432 442 410
f 410 442 411
f 435 430 445
f 445 430 444
f 430 429 444
f 444 429 446
f 425 428 447
f 447 428 416
f 426 425 448
f 448 425 447
f 416 415 447
f 447 415 449
f 447 449 448
f 448 449 450
f 451 452 448
f 448 452 426
f 446 452 444
f 444 452 451
f 399 411 397
f 397 411 453
f 398 454 404
f 404 454 414
f 454 398 453
f 453 398 397
f 453 441 454
f 454 441 455
f 441 439 455
f 455 439 456
f 454 455 414
f 414 455 457
f 441 453 442
f 442 453 411
f 458 413 457
f 457 413 414
f 458 415 413
f 413 415 412
f 458 459 415
f 415 459 449
f 459 458 460
f 460 458 457
f 461 459 462
f 462 459 460
f 455 456 457
f 457 456 460
f 456 463 460
f 460 463 462
f 459 461 449
f 449 461 450
f 465 450 464
f 464 450 461
f 464 467 466
f 466 467 468
f 464 461 467
f 467 461 462
f 464 466 465
f 465 466 445
f 465 445 451
f 451 445 444
f 451 448 465
f 465 448 450
f 439 440 456
f 456 440 463
f 468 463 443
f 443 463 440
f 468 467 463
f 463 467 462
f 466 468 438
f 438 468 443
f 438 435 466
f 466 435 445
f 420 427 429
f 429 427 446
f 446 427 452
f 452 427 426
f 370 369 188
f 188 369 186
f 371 376 372
f 372 376 375
f 380 379 387
f 387 379 388
f 379 381 388
f 388 381 386
f 385 384 278
f 278 384 270
f 380 387 371
f 371 387 376
f 400 370 271
f 271 370 188
f 385 278 372
f 372 278 247
f 400 384 389
f 389 384 383
f 369 381 186
f 186 381 263
f 221 271 144
f 144 271 188
f 221 19 207
f 207 19 22
f 19 18 22
f 22 18 23
f 18 219 23
f 23 219 208
f 469 470 472
f 472 470 471
f 474 475 473
f 473 475 476
f 473 476 477
f 477 476 478
f 480 481 479
f 479 481 482
f 483 484 474
f 474 484 475
f 486 487 485
f 485 487 488
f 489 490 77
f 77 490 142
f 491 489 248
f 248 489 77
f 493 494 492
f 492 494 495
f 496 480 484
f 484 480 475
f 486 497 487
f 487 497 471
f 498 496 472
f 472 496 484
f 499 493 478
f 478 493 500
f 501 502 504
f 504 502 503
f 493 492 500
f 500 492 505
f 506 477 500
f 500 477 478
f 499 478 479
f 479 478 476
f 469 507 470
f 470 507 508
f 483 509 469
f 469 509 507
f 479 482 499
f 499 482 510
f 492 495 485
f 485 495 511
f 483 469 484
f 484 469 472
f 473 512 474
f 474 512 513
f 497 498 471
f 471 498 472
f 475 480 476
f 476 480 479
f 470 508 514
f 514 508 515
f 506 502 516
f 516 502 501
f 503 502 488
f 488 502 505
f 514 515 503
f 503 515 504
f 485 488 492
f 492 488 505
f 477 506 517
f 517 506 516
f 474 513 483
f 483 513 509
f 510 292 494
f 494 292 164
f 512 473 517
f 517 473 477
f 491 481 496
f 496 481 480
f 502 506 505
f 505 506 500
f 503 488 514
f 514 488 487
f 514 487 470
f 470 487 471
f 517 516 519
f 519 516 518
f 517 519 512
f 512 519 520
f 512 520 513
f 513 520 521
f 513 521 509
f 509 521 522
f 516 501 518
f 518 501 523
f 501 504 523
f 523 504 524
f 524 504 525
f 525 504 515
f 526 527 523
f 523 527 518
f 529 530 528
f 528 530 531
f 532 533 529
f 529 533 530
f 530 533 535
f 535 533 534
f 536 537 535
f 535 537 538
f 534 539 535
f 535 539 536
f 538 531 535
f 535 531 530
f 540 541 531
f 531 541 528
f 533 532 534
f 534 532 542
f 532 520 542
f 542 520 519
f 532 543 520
f 520 543 521
f 529 544 532
f 532 544 543
f 544 529 545
f 545 529 528
f 534 542 539
f 539 542 527
f 527 542 518
f 518 542 519
f 541 546 528
f 528 546 545
f 547 544 548
f 548 544 545
f 546 549 545
f 545 549 548
f 550 547 551
f 551 547 548
f 547 550 553
f 553 550 552
f 549 554 548
f 548 554 551
f 544 547 543
f 543 547 553
f 543 553 521
f 521 553 522
f 546 541 556
f 556 541 555
f 541 540 555
f 555 540 557
f 536 539 558
f 558 539 527
f 537 536 559
f 559 536 558
f 527 526 558
f 558 526 560
f 559 558 561
f 561 558 560
f 559 562 537
f 537 562 563
f 557 563 555
f 555 563 562
f 509 522 507
f 507 522 564
f 508 565 515
f 515 565 525
f 565 508 564
f 564 508 507
f 564 552 565
f 565 552 566
f 552 550 566
f 566 550 567
f 565 566 525
f 525 566 568
f 564 522 552
f 552 522 553
f 569 524 568
f 568 524 525
f 569 526 524
f 524 526 523
f 570 560 569
f 569 560 526
f 570 569 571
f 571 569 568
f 572 570 573
f 573 570 571
f 566 567 568
f 568 567 571
f 567 574 571
f 571 574 573
f 570 572 560
f 560 572 561
f 576 561 575
f 575 561 572
f 575 578 577
f 577 578 579
f 575 572 578
f 578 572 573
f 575 577 576
f 576 577 556
f 576 556 562
f 562 556 555
f 562 559 576
f 576 559 561
f 550 551 567
f 567 551 574
f 579 574 554
f 554 574 551
f 579 578 574
f 574 578 573
f 579 554 577
f 577 554 549
f 549 546 577
f 577 546 556
f 531 538 540
f 540 538 557
f 557 538 563
f 563 538 537
f 481 294 482
f 482 294 293
f 580 486 511
f 511 486 485
f 490 489 497
f 497 489 498
f 489 491 498
f 498 491 496
f 163 495 164
f 164 495 494
f 580 490 486
f 486 490 497
f 482 293 510
f 510 293 292
f 495 163 511
f 511 163 199
f 494 493 510
f 510 493 499
f 481 491 294
f 294 491 248
f 582 583 581
f 581 583 584
f 586 587 585
f 585 587 588
f 585 588 589
f 589 588 590
f 592 593 591
f 591 593 594
f 595 596 598
f 598 596 597
f 599 600 586
f 586 600 587
f 601 602 604
f 604 602 603
f 605 606 608
f 608 606 607
f 609 607 200
f 200 607 606
f 610 611 613
f 613 611 612
f 600 614 587
f 587 614 592
f 596 605 597
f 597 605 608
f 602 615 603
f 603 615 583
f 616 614 584
f 584 614 600
f 611 618 617
f 617 618 590
f 620 621 619
f 619 621 622
f 610 623 611
f 611 623 618
f 624 589 618
f 618 589 590
f 617 590 591
f 591 590 588
f 581 625 582
f 582 625 626
f 599 627 581
f 581 627 625
f 591 594 617
f 617 594 628
f 601 610 598
f 598 610 613
f 581 584 599
f 599 584 600
f 585 629 586
f 586 629 630
f 615 616 583
f 583 616 584
f 587 592 588
f 588 592 591
f 582 626 631
f 631 626 632
f 624 620 633
f 633 620 619
f 621 620 604
f 604 620 623
f 631 632 621
f 621 632 622
f 610 601 623
f 623 601 604
f 589 624 634
f 634 624 633
f 586 630 599
f 599 630 627
f 203 202 628
f 628 202 612
f 629 585 634
f 634 585 589
f 609 593 614
f 614 593 592
f 620 624 623
f 623 624 618
f 631 621 603
f 603 621 604
f 582 631 583
f 583 631 603
f 634 633 636
f 636 633 635
f 634 636 629
f 629 636 637
f 629 637 630
f 630 637 638
f 630 638 627
f 627 638 639
f 633 619 635
f 635 619 640
f 619 622 640
f 640 622 641
f 641 622 642
f 642 622 632
f 644 635 643
f 643 635 640
f 645 646 648
f 648 646 647
f 649 650 646
f 646 650 647
f 647 650 652
f 652 650 651
f 652 653 655
f 655 653 654
f 651 656 652
f 652 656 653
f 655 648 652
f 652 648 647
f 648 657 645
f 645 657 658
f 650 649 651
f 651 649 659
f 649 637 659
f 659 637 636
f 649 660 637
f 637 660 638
f 661 660 646
f 646 660 649
f 662 661 645
f 645 661 646
f 651 659 656
f 656 659 644
f 644 659 635
f 635 659 636
f 663 662 658
f 658 662 645
f 664 661 665
f 665 661 662
f 663 666 662
f 662 666 665
f 667 664 668
f 668 664 665
f 664 667 670
f 670 667 669
f 666 671 665
f 665 671 668
f 661 664 660
f 660 664 670
f 660 670 638
f 638 670 639
f 658 672 663
f 663 672 673
f 658 657 672
f 672 657 674
f 653 656 675
f 675 656 644
f 653 675 654
f 654 675 676
f 675 644 677
f 677 644 643
f 676 675 678
f 678 675 677
f 679 680 676
f 676 680 654
f 674 680 672
f 672 680 679
f 627 639 625
f 625 639 681
f 626 682 632
f 632 682 642
f 681 682 625
f 625 682 626
f 669 683 681
f 681 683 682
f 667 684 669
f 669 684 683
f 682 683 642
f 642 683 685
f 681 639 669
f 669 639 670
f 686 641 685
f 685 641 642
f 641 686 640
f 640 686 643
f 686 687 643
f 643 687 677
f 687 686 688
f 688 686 685
f 689 687 690
f 690 687 688
f 683 684 685
f 685 684 688
f 684 691 688
f 688 691 690
f 687 689 677
f 677 689 678
f 693 678 692
f 692 678 689
f 692 695 694
f 694 695 696
f 692 689 695
f 695 689 690
f 692 694 693
f 693 694 673
f 693 673 679
f 679 673 672
f 679 676 693
f 693 676 678
f 684 667 691
f 691 667 668
f 696 691 671
f 671 691 668
f 696 695 691
f 691 695 690
f 694 696 666
f 666 696 671
f 666 663 694
f 694 663 673
f 648 655 657
f 657 655 674
f 674 655 680
f 680 655 654
f 593 162 594
f 594 162 290
f 598 597 601
f 601 597 602
f 615 608 616
f 616 608 607
f 607 609 616
f 616 609 614
f 697 595 613
f 613 595 598
f 597 608 602
f 602 608 615
f 594 290 628
f 628 290 203
f 628 612 617
f 617 612 611
f 593 609 162
f 162 609 200
f 105 29 698
f 698 29 699
f 268 126 701
f 701 126 700
f 126 125 700
f 700 125 702
f 252 703 250
f 250 703 704
f 32 268 705
f 705 268 701
f 288 105 706
f 706 105 698
f 29 32 699
f 699 32 705
f 707 251 706
f 706 251 288
f 250 704 125
f 125 704 702
f 703 252 707
f 707 252 251
f 706 708 707
f 707 708 709
f 707 709 703
f 703 709 710
f 703 710 704
f 704 710 711
f 704 711 702
f 702 711 712
f 706 698 708
f 708 698 713
f 698 699 713
f 713 699 714
f 699 705 714
f 714 705 715
f 717 708 716
f 716 708 713
f 719 720 718
f 718 720 721
f 722 723 719
f 719 723 720
f 724 725 723
f 723 725 720
f 724 726 725
f 725 726 727
f 728 721 725
f 725 721 720
f 721 728 729
f 729 728 730
f 729 731 721
f 721 731 718
f 724 723 732
f 732 723 722
f 722 710 732
f 732 710 709
f 722 733 710
f 710 733 711
f 719 734 722
f 722 734 733
f 734 719 735
f 735 719 718
f 724 732 726
f 726 732 717
f 717 732 708
f 708 732 709
f 731 736 718
f 718 736 735
f 737 734 738
f 738 734 735
f 736 739 735
f 735 739 738
f 740 737 741
f 741 737 738
f 737 740 743
f 743 740 742
f 739 744 738
f 738 744 741
f 734 737 733
f 733 737 743
f 733 743 711
f 711 743 712
f 736 731 746
f 746 731 745
f 731 729 745
f 745 729 730
f 727 726 747
f 747 726 717
f 748 727 749
f 749 727 747
f 747 717 750
f 750 717 716
f 749 747 751
f 751 747 750
f 749 752 748
f 748 752 753
f 730 753 745
f 745 753 752
f 728 725 748
f 748 725 727
f 730 728 753
f 753 728 748
f 700 702 754
f 754 702 712
f 705 701 715
f 715 701 755
f 754 755 700
f 700 755 701
f 742 756 754
f 754 756 755
f 740 757 742
f 742 757 756
f 755 756 715
f 715 756 758
f 754 712 742
f 742 712 743
f 759 714 758
f 758 714 715
f 714 759 713
f 713 759 716
f 759 760 716
f 716 760 750
f 760 759 761
f 761 759 758
f 762 760 763
f 763 760 761
f 756 757 758
f 758 757 761
f 757 764 761
f 761 764 763
f 760 762 750
f 750 762 751
f 766 751 765
f 765 751 762
f 767 765 769
f 769 765 768
f 765 762 768
f 768 762 763
f 765 767 766
f 766 767 746
f 766 746 752
f 752 746 745
f 752 749 766
f 766 749 751
f 757 740 764
f 764 740 741
f 769 764 744
f 744 764 741
f 769 768 764
f 764 768 763
f 767 769 739
f 739 769 744
f 739 736 767
f 767 736 746
f 219 217 208
f 208 217 209
f 209 217 210
f 210 217 193
f 198 580 199
f 199 580 511
f 76 75 289
f 289 75 272
f 277 207 291
f 291 207 184
f 290 183 203
f 203 183 84
f 490 580 142
f 142 580 198
f 142 198 143
f 143 198 197
f 149 276 72
f 72 276 73
f 104 103 279
f 279 103 770
f 770 596 279
f 279 596 595
f 605 596 771
f 771 596 770
f 771 770 772
f 772 770 103
f 772 103 773
f 773 103 102
f 155 774 101
f 101 774 102
f 773 102 97
f 97 102 774
f 775 773 100
f 100 773 97
f 773 775 772
f 772 775 776
f 772 776 771
f 771 776 777
f 200 606 197
f 197 606 777
f 189 71 778
f 778 71 74
f 97 774 98
f 98 774 155
f 183 161 184
f 184 161 291
f 777 276 197
f 197 276 143
f 777 606 771
f 771 606 605
f 613 612 697
f 697 612 202
f 595 697 279
f 279 697 202
f 73 276 776
f 776 276 777
f 776 775 73
f 73 775 74
f 100 778 775
f 775 778 74
f 778 100 189
f 189 100 99
f 245 242 99
f 99 242 189
f 131 33 256
f 28 1 95
f 95 1 62
f 27 2 28
f 28 2 1
f 265 115 266
f 266 115 114
f 95 62 69
f 69 62 64
f 62 61 64
f 64 61 65
f 61 13 65
f 65 13 130
f 13 12 130
f 130 12 14
f 31 11 32
f 32 11 268
f 15 12 31
f 31 12 11
f 31 30 15
f 15 30 231
f 30 106 231
f 231 106 232
f 287 237 106
f 106 237 232
f 254 90 287
f 287 90 237
f 253 44 254
f 254 44 90
f 253 249 44
f 44 249 7
f 267 127 268
f 268 127 126
f 10 3 241
f 241 3 116
f 3 2 116
f 116 2 114
f 2 27 114
f 114 27 266
f 27 26 266
f 266 26 113
f 26 286 113
f 113 286 110
f 286 243 110
f 110 243 255
f 243 242 255
f 255 242 256
f 242 245 256
f 256 245 131
f 245 244 131
f 131 244 132
f 265 37 115
f 115 37 41
f 41 37 42
f 42 37 40
f 92 91 40
f 40 91 42
f 236 233 92
f 92 233 91
f 191 194 236
f 236 194 233
f 258 285 244
f 244 285 132
f 257 55 258
f 258 55 285
f 257 154 201
f 201 154 185
f 56 201 204
f 204 201 180
f 55 257 56
f 56 257 201
f 204 85 56
f 56 85 52
f 86 122 53
f 53 122 79
f 212 215 86
f 86 215 122
f 211 216 212
f 212 216 215
f 192 280 211
f 211 280 216
f 191 240 192
f 192 240 280
f 249 124 7
f 7 124 8
f 124 127 8
f 8 127 241
f 127 267 241
f 241 267 10
f 10 267 9
f 9 267 11
o hand_right
v 0.692633 0.089125 1.394178
v 0.695206 0.098520 1.392989
v 0.683704 0.099189 1.395971
v 0.681861 0.088907 1.396355
v 0.692960 0.120464 1.395112
v 0.690427 0.130392 1.387414
v 0.675683 0.127357 1.393190
v 0.680633 0.120265 1.399289
v 0.673126 0.088793 1.395561
v 0.675738 0.099945 1.397627
v 0.669603 0.090569 1.390158
v 0.669097 0.076182 1.385036
v 0.672494 0.077540 1.392136
v 0.669608 0.066216 1.384526
v 0.672700 0.077754 1.374172
v 0.674205 0.060397 1.377664
v 0.702607 0.068149 1.368155
v 0.716142 0.067308 1.370614
v 0.711496 0.051125 1.377734
v 0.697973 0.054073 1.375465
v 0.730994 0.057613 1.383060
v 0.720074 0.053359 1.380474
v 0.725020 0.068615 1.372239
v 0.734427 0.071764 1.375118
v 0.710663 0.091115 1.392858
v 0.714776 0.100076 1.390602
v 0.707888 0.098666 1.390437
v 0.704495 0.090709 1.392484
v 0.661552 0.101476 1.386636
v 0.666660 0.098303 1.376233
v 0.667407 0.092196 1.381840
v 0.664182 0.100292 1.391194
v 0.732079 0.124504 1.390275
v 0.735519 0.132724 1.380007
v 0.730066 0.133275 1.377897
v 0.728224 0.125033 1.387473
v 0.708107 0.133540 1.378130
v 0.714230 0.136158 1.370644
v 0.708927 0.139132 1.357668
v 0.702147 0.134639 1.362118
v 0.699714 0.131519 1.383902
v 0.694555 0.134175 1.370603
v 0.685770 0.132807 1.376573
v 0.670506 0.129665 1.385253
v 0.747945 0.129841 1.381970
v 0.747185 0.123796 1.390192
v 0.659571 0.056799 1.422426
v 0.665402 0.056960 1.424197
v 0.666145 0.056854 1.421385
v 0.660439 0.056446 1.419837
v 0.759620 0.114291 1.375959
v 0.760036 0.108849 1.367442
v 0.762722 0.115478 1.365874
v 0.760660 0.121243 1.373071
v 0.758184 0.105129 1.379788
v 0.755753 0.099995 1.370001
v 0.654231 0.046133 1.427058
v 0.653409 0.050908 1.424973
v 0.654062 0.048077 1.420905
v 0.655433 0.042664 1.422390
v 0.679825 0.079233 1.396177
v 0.689811 0.080728 1.397082
v 0.679149 0.063367 1.400344
v 0.683922 0.068728 1.399073
v 0.677490 0.070415 1.395656
v 0.674427 0.065035 1.396285
v 0.707569 0.070463 1.401372
v 0.710813 0.080695 1.396866
v 0.704142 0.079676 1.396158
v 0.699010 0.069148 1.401271
v 0.724043 0.082131 1.401935
v 0.719883 0.071730 1.405497
v 0.727964 0.073767 1.407816
v 0.729253 0.081266 1.405806
v 0.710016 0.054577 1.409263
v 0.707849 0.050414 1.409868
v 0.711260 0.051354 1.412865
v 0.713693 0.055529 1.410332
v 0.765162 0.121633 1.363228
v 0.760920 0.127750 1.369714
v 0.750190 0.064673 1.391567
v 0.755498 0.072998 1.397266
v 0.754522 0.060790 1.404142
v 0.749121 0.054208 1.395711
v 0.754478 0.104409 1.359841
v 0.759371 0.110271 1.357900
v 0.658611 0.042045 1.429549
v 0.659728 0.038666 1.425555
v 0.685071 0.126932 1.365068
v 0.667912 0.125249 1.376787
v 0.696586 0.128085 1.357591
v 0.704111 0.129590 1.351971
v 0.708794 0.133918 1.346890
v 0.688694 0.064602 1.402092
v 0.699025 0.083333 1.395252
v 0.715828 0.091589 1.394021
v 0.743411 0.091322 1.408376
v 0.745675 0.100914 1.404704
v 0.735124 0.098675 1.403944
v 0.735462 0.090429 1.406810
v 0.754765 0.078222 1.405766
v 0.748398 0.080428 1.410524
v 0.747376 0.072064 1.413286
v 0.753597 0.067906 1.409967
v 0.656771 0.106515 1.383336
v 0.666027 0.104989 1.371917
v 0.755457 0.120264 1.383721
v 0.754612 0.126653 1.379255
v 0.755982 0.132610 1.373308
v 0.722268 0.112440 1.390833
v 0.725519 0.125379 1.385699
v 0.721082 0.125006 1.385355
v 0.719114 0.110984 1.389647
v 0.700565 0.108377 1.393886
v 0.705615 0.121088 1.390841
v 0.688967 0.108764 1.398179
v 0.723378 0.135415 1.374238
v 0.732370 0.141450 1.371844
v 0.724599 0.142566 1.367646
v 0.741746 0.139328 1.374034
v 0.750170 0.136358 1.374855
v 0.764349 0.115282 1.353081
v 0.717627 0.141985 1.362846
v 0.672176 0.119059 1.401059
v 0.665987 0.116398 1.403547
v 0.668847 0.109490 1.402235
v 0.673847 0.110821 1.400154
v 0.669172 0.057416 1.387357
v 0.670079 0.062711 1.392581
v 0.671204 0.070503 1.390233
v 0.734074 0.115102 1.396704
v 0.746824 0.114955 1.396533
v 0.683128 0.059668 1.403629
v 0.657931 0.041681 1.416380
v 0.656097 0.047486 1.415021
v 0.664964 0.051832 1.397446
v 0.666743 0.044897 1.398164
v 0.684109 0.051391 1.406629
v 0.681620 0.058123 1.405414
v 0.680986 0.057061 1.406674
v 0.683371 0.051890 1.410283
v 0.720239 0.054088 1.414434
v 0.721932 0.058273 1.412063
v 0.693676 0.042716 1.386829
v 0.681625 0.044790 1.379637
v 0.684889 0.056894 1.373120
v 0.714777 0.071687 1.403059
v 0.712627 0.062550 1.407216
v 0.716678 0.062927 1.408251
v 0.690689 0.060829 1.403970
v 0.687206 0.055563 1.405645
v 0.691988 0.055594 1.405095
v 0.695857 0.061407 1.404225
v 0.757262 0.084444 1.390288
v 0.756690 0.090237 1.400501
v 0.655373 0.054626 1.423031
v 0.655965 0.053221 1.419664
v 0.717794 0.081713 1.398630
v 0.690323 0.070920 1.368384
v 0.721093 0.092209 1.395740
v 0.732327 0.045656 1.402068
v 0.733361 0.049265 1.410052
v 0.730444 0.047397 1.414028
v 0.728814 0.042990 1.410133
v 0.676077 0.048730 1.422854
v 0.673608 0.054145 1.422092
v 0.671261 0.053931 1.423767
v 0.673594 0.048700 1.425877
v 0.677745 0.061517 1.402475
v 0.672893 0.062379 1.398829
v 0.671408 0.061275 1.402294
v 0.676610 0.059766 1.405287
v 0.668881 0.059334 1.394938
v 0.666937 0.057860 1.398801
v 0.674650 0.042198 1.422850
v 0.668696 0.037399 1.421603
v 0.678318 0.039659 1.405129
v 0.681826 0.044362 1.410486
v 0.738133 0.084007 1.366479
v 0.747785 0.086373 1.371680
v 0.744518 0.074052 1.380245
v 0.742221 0.060754 1.388055
v 0.738377 0.048864 1.395635
v 0.728523 0.045166 1.389394
v 0.751366 0.077393 1.383622
v 0.689652 0.045462 1.399590
v 0.685077 0.041532 1.394451
v 0.691051 0.042264 1.394554
v 0.727387 0.093032 1.399755
v 0.657745 0.053053 1.414890
v 0.717126 0.114413 1.342184
v 0.729148 0.109227 1.342906
v 0.724127 0.103325 1.347158
v 0.710789 0.109529 1.347058
v 0.668114 0.057712 1.419639
v 0.662175 0.057605 1.416507
v 0.727853 0.058059 1.415238
v 0.725440 0.053714 1.416964
v 0.728258 0.051877 1.417771
v 0.731985 0.055864 1.418626
v 0.752506 0.089217 1.374151
v 0.751211 0.055301 1.411860
v 0.746495 0.049299 1.403267
v 0.750287 0.096842 1.363981
v 0.742204 0.094542 1.358889
v 0.745723 0.102036 1.353616
v 0.714128 0.041425 1.391248
v 0.730147 0.081155 1.364412
v 0.734929 0.092882 1.357002
v 0.738797 0.101770 1.350614
v 0.742394 0.107680 1.345835
v 0.749574 0.107451 1.349721
v 0.662731 0.038103 1.419442
v 0.666428 0.038257 1.428117
v 0.754708 0.112617 1.344215
v 0.746179 0.113083 1.340532
v 0.725960 0.092297 1.354933
v 0.714815 0.092776 1.353507
v 0.721608 0.081103 1.362391
v 0.710071 0.080493 1.361367
v 0.706610 0.038807 1.383214
v 0.667681 0.049997 1.441114
v 0.670264 0.044623 1.432287
v 0.672311 0.049455 1.429553
v 0.670600 0.052705 1.439315
v 0.672185 0.043063 1.427511
v 0.665409 0.041571 1.432099
v 0.695372 0.084895 1.361930
v 0.689497 0.050991 1.405405
v 0.699136 0.100700 1.355203
v 0.677411 0.088846 1.366092
v 0.680469 0.102053 1.362851
v 0.701509 0.117430 1.349402
v 0.687748 0.115929 1.357281
v 0.713011 0.126220 1.340812
v 0.708283 0.120616 1.345042
v 0.673062 0.116449 1.366386
v 0.662033 0.061603 1.430664
v 0.667741 0.060192 1.431991
v 0.721351 0.119814 1.337501
v 0.679837 0.109526 1.399647
v 0.727857 0.103473 1.396788
v 0.723068 0.102156 1.393844
v 0.746344 0.106570 1.401759
v 0.734530 0.105897 1.400659
v 0.656818 0.059997 1.431236
v 0.708642 0.047517 1.410306
v 0.709922 0.048509 1.410767
v 0.667543 0.125072 1.397558
v 0.661964 0.121985 1.400458
v 0.653790 0.118740 1.390507
v 0.656401 0.122457 1.396256
v 0.662375 0.126574 1.390818
v 0.659495 0.122937 1.384391
v 0.724689 0.113194 1.392167
v 0.728178 0.113447 1.394131
v 0.758064 0.095538 1.384949
v 0.756957 0.100555 1.395375
v 0.668494 0.053728 1.391712
v 0.673254 0.050089 1.383898
v 0.671573 0.047177 1.390431
v 0.672708 0.040594 1.399161
v 0.688436 0.048161 1.404409
v 0.685504 0.045967 1.404006
v 0.713671 0.122614 1.388205
v 0.711551 0.108988 1.390442
v 0.671443 0.102230 1.396862
v 0.667893 0.102910 1.397486
v 0.703824 0.062930 1.404558
v 0.708060 0.039187 1.401071
v 0.701561 0.037691 1.394318
v 0.700620 0.055068 1.406642
v 0.654262 0.053986 1.436420
v 0.654576 0.057767 1.433263
v 0.677153 0.042624 1.390597
v 0.724418 0.065002 1.411148
v 0.713738 0.041383 1.400474
v 0.709968 0.042152 1.407125
v 0.751428 0.063609 1.413805
v 0.733181 0.115649 1.338153
v 0.670929 0.054500 1.427069
v 0.671463 0.057245 1.434336
v 0.663710 0.048275 1.440938
v 0.657963 0.049172 1.438630
v 0.755363 0.110345 1.390453
v 0.719628 0.100906 1.392205
v 0.661565 0.115686 1.375898
v 0.654438 0.113284 1.385172
v 0.698887 0.051170 1.406423
v 0.738321 0.047953 1.404893
v 0.724960 0.041156 1.398509
v 0.721539 0.038317 1.407780
v 0.713996 0.039231 1.408733
v 0.709542 0.043811 1.411592
v 0.664088 0.052385 1.445394
v 0.658299 0.053634 1.443573
v 0.655076 0.058438 1.440998
v 0.655397 0.061490 1.437315
v 0.658190 0.062695 1.434105
v 0.668312 0.054037 1.445215
v 0.670841 0.056285 1.443081
v 0.671603 0.058822 1.437138
v 0.669694 0.057933 1.447530
v 0.665510 0.059024 1.450546
v 0.658561 0.070799 1.448051
v 0.657062 0.065104 1.446874
v 0.658485 0.065945 1.449139
v 0.659979 0.070386 1.450971
v 0.662041 0.074077 1.454005
v 0.660594 0.075273 1.450978
v 0.660555 0.061765 1.449709
v 0.663001 0.067350 1.452712
v 0.666828 0.065586 1.453348
v 0.668164 0.070020 1.456399
v 0.664726 0.071694 1.456104
v 0.664767 0.061814 1.451526
v 0.659715 0.059619 1.448812
v 0.663554 0.077364 1.453907
v 0.663544 0.075769 1.455887
v 0.666115 0.074194 1.457346
v 0.667677 0.076816 1.456843
v 0.656624 0.065539 1.440765
v 0.659023 0.072003 1.445765
v 0.662570 0.076070 1.448622
v 0.665340 0.077991 1.451776
v 0.662528 0.073254 1.443989
v 0.665097 0.075963 1.447062
v 0.667872 0.077362 1.449670
v 0.666767 0.073230 1.443162
v 0.668208 0.075384 1.446410
v 0.663217 0.065154 1.435464
v 0.659068 0.065115 1.436382
v 0.669402 0.076834 1.448217
v 0.669313 0.077282 1.455379
v 0.669581 0.063518 1.451977
v 0.671066 0.069724 1.454930
v 0.671509 0.063717 1.450554
v 0.673155 0.069610 1.453772
v 0.671200 0.073421 1.457398
v 0.668705 0.072685 1.457495
v 0.663131 0.062511 1.432626
v 0.668836 0.060809 1.434082
v 0.668996 0.062880 1.436436
v 0.671197 0.071276 1.443577
v 0.671988 0.061161 1.439332
v 0.672055 0.059957 1.445236
v 0.673288 0.065548 1.448984
v 0.673789 0.067842 1.446418
v 0.674006 0.070268 1.451400
v 0.673615 0.071531 1.449172
v 0.671626 0.074040 1.446971
v 0.673371 0.074047 1.452737
v 0.672601 0.073698 1.455622
v 0.670792 0.076815 1.452309
v 0.673402 0.073888 1.450752
v 0.671165 0.075732 1.449875
v 0.689646 0.052153 1.431670
v 0.695965 0.052791 1.432735
v 0.695412 0.050197 1.429452
v 0.690060 0.049659 1.428556
v 0.685506 0.039721 1.437374
v 0.684304 0.045531 1.434601
v 0.684237 0.041477 1.430606
v 0.686957 0.035246 1.432913
v 0.691802 0.036021 1.439288
v 0.693467 0.032426 1.434183
v 0.687844 0.033635 1.426845
v 0.685050 0.040085 1.425215
v 0.689092 0.043295 1.405331
v 0.692043 0.037438 1.404817
v 0.704197 0.051081 1.411051
v 0.706725 0.048580 1.412051
v 0.686472 0.049804 1.432532
v 0.686296 0.046487 1.429054
v 0.704178 0.046838 1.428803
v 0.700133 0.050469 1.427621
v 0.700236 0.049914 1.430584
v 0.703609 0.046079 1.432723
v 0.691951 0.050831 1.407257
v 0.698230 0.050765 1.408913
v 0.689658 0.047903 1.406271
v 0.705343 0.040304 1.430018
v 0.702612 0.033951 1.430129
v 0.705990 0.035613 1.409832
v 0.708791 0.040506 1.412526
v 0.685854 0.045396 1.424850
v 0.694320 0.051296 1.426808
v 0.689269 0.049956 1.425380
v 0.695121 0.031569 1.427623
v 0.700952 0.035374 1.436361
v 0.700995 0.050646 1.449373
v 0.702973 0.043720 1.440001
v 0.703202 0.048273 1.437343
v 0.702355 0.055210 1.447157
v 0.703967 0.040928 1.435121
v 0.699296 0.039078 1.440987
v 0.690643 0.061681 1.442525
v 0.696861 0.061778 1.443286
v 0.686776 0.059538 1.443700
v 0.698643 0.034656 1.405912
v 0.685407 0.049598 1.447334
v 0.684832 0.055783 1.444865
v 0.700989 0.051753 1.434256
v 0.700998 0.059604 1.445042
v 0.697890 0.047270 1.450472
v 0.690976 0.045194 1.448802
v 0.697414 0.051105 1.454344
v 0.690792 0.050525 1.453856
v 0.685206 0.055259 1.451916
v 0.685181 0.060383 1.448597
v 0.687348 0.062893 1.446455
v 0.700879 0.054037 1.453053
v 0.702375 0.058235 1.450530
v 0.700474 0.061590 1.446649
v 0.701887 0.058996 1.456597
v 0.698672 0.057330 1.459223
v 0.690477 0.073520 1.464083
v 0.688752 0.068606 1.460987
v 0.690341 0.067273 1.462718
v 0.691793 0.071652 1.465807
v 0.687474 0.062428 1.459191
v 0.689601 0.062882 1.460930
v 0.693084 0.059784 1.460933
v 0.694512 0.065071 1.463885
v 0.699124 0.063590 1.462836
v 0.700434 0.067764 1.466568
v 0.695953 0.069349 1.467869
v 0.697032 0.059954 1.461265
v 0.693640 0.073925 1.467960
v 0.694158 0.076436 1.467246
v 0.691847 0.056924 1.459487
v 0.685937 0.063692 1.452962
v 0.688772 0.070724 1.458724
v 0.691633 0.075796 1.462034
v 0.696284 0.077912 1.465576
v 0.691479 0.072990 1.456338
v 0.694132 0.076908 1.460293
v 0.698011 0.078026 1.463384
v 0.695673 0.074077 1.454278
v 0.698091 0.077202 1.458726
v 0.692234 0.066437 1.446826
v 0.688152 0.065754 1.449068
v 0.699050 0.077691 1.461197
v 0.698204 0.074867 1.469649
v 0.699965 0.076842 1.467488
v 0.697298 0.073145 1.469594
v 0.701069 0.063317 1.462039
v 0.702327 0.068574 1.465633
v 0.703239 0.064390 1.460583
v 0.704150 0.069940 1.464720
v 0.702177 0.072302 1.468528
v 0.700668 0.071579 1.469122
v 0.691187 0.063957 1.444751
v 0.696736 0.063212 1.444823
v 0.697728 0.065217 1.446276
v 0.700696 0.072410 1.454045
v 0.701550 0.062862 1.448256
v 0.703066 0.060838 1.453656
v 0.704281 0.065808 1.458333
v 0.703839 0.069116 1.455972
v 0.705356 0.070826 1.463054
v 0.704675 0.071913 1.459939
v 0.701768 0.075445 1.458272
v 0.704369 0.074438 1.465715
v 0.703325 0.073406 1.467655
v 0.700829 0.077206 1.465379
v 0.704317 0.074601 1.462688
v 0.701523 0.076987 1.462175
v 0.710241 0.052471 1.435973
v 0.715989 0.052445 1.436697
v 0.716198 0.051208 1.433563
v 0.710574 0.050613 1.432966
v 0.705540 0.041090 1.439637
v 0.704541 0.045781 1.438399
v 0.704841 0.043379 1.434326
v 0.706097 0.038097 1.434293
v 0.709766 0.038588 1.442641
v 0.710836 0.034458 1.435572
v 0.706965 0.036540 1.428875
v 0.705348 0.042204 1.430165
v 0.708682 0.043545 1.415882
v 0.711347 0.037648 1.415211
v 0.706680 0.049785 1.436916
v 0.706950 0.047880 1.433641
v 0.723563 0.047486 1.433692
v 0.720249 0.051133 1.432892
v 0.720841 0.049062 1.435303
v 0.722746 0.045260 1.436931
v 0.713059 0.052861 1.416184
v 0.719045 0.053175 1.416888
v 0.709769 0.049236 1.416592
v 0.723719 0.040803 1.433793
v 0.720008 0.034697 1.432088
v 0.725366 0.038772 1.418618
v 0.727517 0.044366 1.419783
v 0.706686 0.047144 1.430587
v 0.715436 0.052880 1.431302
v 0.710016 0.051551 1.430670
v 0.712864 0.033960 1.429481
v 0.717670 0.035256 1.437932
v 0.718262 0.048144 1.456517
v 0.720920 0.041159 1.442302
v 0.722180 0.046621 1.440304
v 0.720415 0.051745 1.455039
v 0.722050 0.039827 1.438619
v 0.716285 0.037897 1.443115
v 0.710557 0.060235 1.450201
v 0.716009 0.059029 1.450382
v 0.707021 0.057710 1.450206
v 0.718106 0.035193 1.415934
v 0.726045 0.050530 1.419414
v 0.704905 0.051512 1.453744
v 0.705096 0.055266 1.451598
v 0.720507 0.050006 1.438297
v 0.720010 0.055829 1.452688
v 0.714006 0.045984 1.456421
v 0.708191 0.046727 1.454984
v 0.715156 0.048726 1.461090
v 0.709414 0.049997 1.460253
v 0.706082 0.054334 1.459652
v 0.706316 0.057949 1.457389
v 0.708117 0.060351 1.455578
v 0.719260 0.050767 1.460779
v 0.720865 0.053864 1.459064
v 0.719716 0.056659 1.454876
v 0.720820 0.053234 1.463663
v 0.716537 0.052162 1.466849
v 0.711730 0.065797 1.474491
v 0.710027 0.062813 1.470018
v 0.710659 0.061888 1.470626
v 0.712193 0.064426 1.475418
v 0.708244 0.057567 1.466190
v 0.709478 0.057921 1.467851
v 0.711848 0.054791 1.467894
v 0.714048 0.058401 1.472664
v 0.719507 0.056844 1.470849
v 0.720216 0.059806 1.474679
v 0.715306 0.061106 1.476915
v 0.716211 0.053655 1.468067
v 0.713955 0.065311 1.477835
v 0.712984 0.066983 1.478328
v 0.710977 0.053277 1.466247
v 0.706987 0.060724 1.462671
v 0.709684 0.065184 1.468407
v 0.711356 0.068638 1.472885
v 0.714341 0.069509 1.475969
v 0.711986 0.067177 1.466123
v 0.713514 0.069687 1.470721
v 0.716057 0.070537 1.473616
v 0.714783 0.067718 1.464554
v 0.716255 0.069707 1.468924
v 0.711942 0.062527 1.456324
v 0.708788 0.062210 1.459192
v 0.717452 0.070280 1.471814
v 0.717199 0.064990 1.479622
v 0.719477 0.067833 1.477475
v 0.716579 0.063804 1.478506
v 0.720917 0.056399 1.469733
v 0.722559 0.060253 1.474532
v 0.722769 0.057529 1.467907
v 0.724321 0.061498 1.472740
v 0.721395 0.062526 1.477687
v 0.720263 0.062135 1.477530
v 0.711596 0.060917 1.453461
v 0.716388 0.059676 1.453141
v 0.716481 0.061303 1.455485
v 0.719212 0.066824 1.464112
v 0.719983 0.058362 1.456723
v 0.721979 0.056273 1.461952
v 0.723287 0.060237 1.466193
v 0.722347 0.063668 1.465111
v 0.724586 0.063537 1.470810
v 0.723148 0.065191 1.468958
v 0.720167 0.068974 1.468258
v 0.723102 0.065901 1.473758
v 0.723021 0.064181 1.476127
v 0.720167 0.069219 1.474734
v 0.722682 0.067121 1.471644
v 0.720381 0.069607 1.472263
v 0.723385 0.052630 1.418230
v 0.729181 0.058669 1.438711
v 0.733355 0.059234 1.439732
v 0.733733 0.058292 1.439248
v 0.729717 0.057991 1.437086
v 0.726085 0.047625 1.439017
v 0.724884 0.052310 1.438748
v 0.725347 0.050214 1.435016
v 0.726862 0.045750 1.434868
v 0.730509 0.044652 1.440098
v 0.731863 0.043258 1.436565
v 0.728525 0.045894 1.431331
v 0.726583 0.050209 1.431536
v 0.731811 0.051242 1.416082
v 0.735726 0.047718 1.414029
v 0.749025 0.060700 1.419432
v 0.744762 0.064745 1.418804
v 0.743965 0.060935 1.427005
v 0.747436 0.057553 1.426254
v 0.726320 0.056037 1.438530
v 0.726492 0.055137 1.435527
v 0.742158 0.053164 1.440081
v 0.739066 0.057058 1.439537
v 0.737706 0.057384 1.440680
v 0.741067 0.054339 1.442482
v 0.739328 0.064352 1.418835
v 0.735228 0.061044 1.417904
v 0.735011 0.060818 1.422337
v 0.739030 0.061441 1.426546
v 0.731932 0.056632 1.420503
v 0.742258 0.048700 1.439044
v 0.739235 0.044028 1.436420
v 0.748407 0.049183 1.420097
v 0.749217 0.053385 1.422997
v 0.727095 0.054016 1.433876
v 0.734693 0.058478 1.437651
v 0.730591 0.057296 1.436696
v 0.733586 0.043024 1.432441
v 0.737543 0.045006 1.440164
v 0.738558 0.053043 1.450593
v 0.740426 0.050318 1.444307
v 0.740697 0.055092 1.443308
v 0.739429 0.056061 1.449337
v 0.740881 0.049707 1.442414
v 0.736406 0.046432 1.443613
v 0.729130 0.061928 1.444211
v 0.734399 0.061377 1.445353
v 0.726223 0.060206 1.444306
v 0.742054 0.046810 1.415027
v 0.724783 0.053267 1.446847
v 0.724467 0.057566 1.445656
v 0.737215 0.058095 1.441501
v 0.738039 0.059294 1.447346
v 0.734831 0.050060 1.450780
v 0.728957 0.049256 1.448468
v 0.733698 0.052650 1.454329
v 0.728015 0.052511 1.452268
v 0.724515 0.057574 1.450050
v 0.725242 0.060442 1.447558
v 0.727239 0.062435 1.446068
v 0.737954 0.055044 1.453261
v 0.739093 0.057383 1.451425
v 0.738027 0.060004 1.448544
v 0.737524 0.057392 1.456270
v 0.733164 0.057687 1.458211
v 0.729842 0.070700 1.458575
v 0.728372 0.067812 1.455930
v 0.728577 0.067047 1.456831
v 0.729432 0.070129 1.459420
v 0.726365 0.062998 1.453930
v 0.727320 0.063304 1.455456
v 0.728651 0.059971 1.456446
v 0.730070 0.064081 1.459602
v 0.734953 0.062217 1.461011
v 0.735432 0.065605 1.463305
v 0.730951 0.066805 1.462100
v 0.732240 0.059204 1.458823
v 0.730182 0.071278 1.461834
v 0.730497 0.072656 1.461967
v 0.727750 0.057917 1.455677
v 0.726776 0.064748 1.450246
v 0.729089 0.069887 1.454564
v 0.730703 0.072987 1.458330
v 0.732501 0.073852 1.461631
v 0.730750 0.070163 1.452695
v 0.732452 0.073860 1.457101
v 0.734244 0.074527 1.460258
v 0.733829 0.069891 1.451422
v 0.734746 0.073157 1.456032
v 0.732458 0.065305 1.446906
v 0.729140 0.065643 1.448112
v 0.735326 0.073809 1.459020
v 0.732721 0.070875 1.464664
v 0.734917 0.072526 1.463518
v 0.732038 0.069431 1.464456
v 0.736248 0.061823 1.460815
v 0.737009 0.065989 1.463523
v 0.738438 0.062085 1.459700
v 0.738657 0.066964 1.462514
v 0.735812 0.068967 1.464993
v 0.734359 0.067843 1.464553
v 0.730991 0.063756 1.445651
v 0.734589 0.062350 1.446276
v 0.736143 0.063510 1.447771
v 0.737451 0.068046 1.452024
v 0.739028 0.060712 1.450365
v 0.739217 0.058507 1.453707
v 0.739834 0.063362 1.457722
v 0.739998 0.065474 1.455041
v 0.739483 0.068366 1.461068
v 0.739539 0.069802 1.458397
v 0.737765 0.071689 1.456318
v 0.737686 0.071446 1.462350
v 0.737112 0.070621 1.463945
v 0.736151 0.073098 1.461949
v 0.738066 0.071961 1.460528
v 0.736980 0.072962 1.459781
v 0.749640 0.056639 1.418992
v 0.649378 0.101664 1.395158
v 0.654298 0.099218 1.396787
v 0.659951 0.107865 1.409987
v 0.660293 0.101723 1.406250
v 0.655609 0.113413 1.410764
v 0.646590 0.116481 1.404948
v 0.651545 0.116663 1.408018
v 0.658248 0.098831 1.401262
v 0.645670 0.106529 1.395474
v 0.644216 0.113005 1.399063
v 0.639632 0.098947 1.400565
v 0.637368 0.106472 1.405524
v 0.639529 0.110360 1.411651
v 0.647698 0.112261 1.413446
v 0.652624 0.110966 1.414644
v 0.647836 0.097000 1.399226
v 0.653084 0.096055 1.400342
v 0.657775 0.097706 1.404834
v 0.649306 0.091151 1.404524
v 0.645943 0.088858 1.413310
v 0.649066 0.093377 1.432890
v 0.647897 0.097899 1.427545
v 0.646755 0.095615 1.426666
v 0.647567 0.091744 1.431800
v 0.644751 0.099485 1.422586
v 0.645221 0.097192 1.422439
v 0.644452 0.094099 1.418178
v 0.645897 0.090464 1.423249
v 0.646599 0.089848 1.416171
v 0.648693 0.086848 1.419261
v 0.647003 0.086777 1.427909
v 0.647332 0.088045 1.433712
v 0.648041 0.083844 1.431814
v 0.649790 0.088580 1.435468
v 0.640380 0.094181 1.416749
v 0.646792 0.105577 1.420969
v 0.650088 0.100548 1.427566
v 0.652288 0.095061 1.433079
v 0.652938 0.089303 1.435314
v 0.654218 0.101243 1.426794
v 0.655864 0.095549 1.430927
v 0.656540 0.090026 1.432286
v 0.658142 0.099517 1.424370
v 0.658284 0.094062 1.428091
v 0.657598 0.105856 1.415592
v 0.652517 0.108187 1.418847
v 0.657703 0.090478 1.429817
v 0.650125 0.082738 1.433435
v 0.653490 0.083598 1.432972
v 0.650283 0.085696 1.416522
v 0.649461 0.083180 1.423505
v 0.651805 0.082482 1.422128
v 0.653225 0.086054 1.413959
v 0.654386 0.082581 1.421277
v 0.651533 0.080738 1.427752
v 0.649124 0.082029 1.427652
v 0.657676 0.107285 1.413347
v 0.659285 0.102220 1.409272
v 0.659273 0.101488 1.410897
v 0.660264 0.095335 1.419493
v 0.658670 0.096435 1.407401
v 0.654415 0.092801 1.404882
v 0.656661 0.087310 1.413763
v 0.659476 0.090673 1.415473
v 0.657191 0.084693 1.421330
v 0.658615 0.087260 1.422044
v 0.659473 0.090867 1.425193
v 0.656776 0.083866 1.426628
v 0.654457 0.081360 1.427107
v 0.656629 0.085784 1.430617
v 0.657809 0.086112 1.425719
v 0.657989 0.087956 1.428300
v 0.745676 0.068283 1.415352
v 0.738844 0.068153 1.415401
v 0.741006 0.073181 1.413517
v 0.742153 0.081803 1.411468
v 0.749152 0.088615 1.407713
v 0.735361 0.081607 1.409374
v 0.734447 0.072628 1.411878
v 0.731384 0.064954 1.414370
v 0.730395 0.088423 1.403566
f 780 781 779
f 779 781 782
f 783 784 786
f 786 784 785
f 787 782 788
f 788 782 781
f 790 791 789
f 789 791 787
f 792 790 794
f 794 790 793
f 796 797 795
f 795 797 798
f 800 801 799
f 799 801 802
f 804 805 803
f 803 805 806
f 808 809 807
f 807 809 810
f 811 812 814
f 814 812 813
f 815 816 818
f 818 816 817
f 819 820 784
f 784 820 821
f 784 821 785
f 785 821 822
f 823 812 824
f 824 812 811
f 826 827 825
f 825 827 828
f 830 831 829
f 829 831 832
f 834 830 833
f 833 830 829
f 836 837 835
f 835 837 838
f 839 840 782
f 782 840 779
f 842 843 841
f 841 843 844
f 846 847 845
f 845 847 848
f 850 851 849
f 849 851 852
f 854 855 853
f 853 855 856
f 831 857 832
f 832 857 858
f 860 861 859
f 859 861 862
f 863 864 830
f 830 864 831
f 835 838 865
f 865 838 866
f 867 868 821
f 821 868 822
f 821 820 867
f 867 820 869
f 818 817 870
f 870 817 871
f 872 848 842
f 842 848 847
f 791 839 787
f 787 839 782
f 803 806 847
f 847 806 873
f 874 803 846
f 846 803 847
f 876 877 875
f 875 877 878
f 879 880 882
f 882 880 881
f 884 808 883
f 883 808 807
f 829 832 885
f 885 832 886
f 832 858 886
f 886 858 887
f 889 890 888
f 888 890 891
f 893 783 892
f 892 783 894
f 893 819 783
f 783 819 784
f 814 813 889
f 889 813 895
f 813 896 895
f 895 896 897
f 812 898 813
f 813 898 896
f 812 823 898
f 898 823 899
f 903 904 902
f 902 904 905
f 906 907 792
f 792 907 908
f 811 909 824
f 824 909 910
f 911 872 841
f 841 872 842
f 912 913 915
f 915 913 914
f 917 918 916
f 916 918 919
f 855 920 856
f 856 920 921
f 922 923 798
f 798 923 924
f 926 927 925
f 925 927 850
f 929 930 928
f 928 930 931
f 860 879 861
f 861 879 882
f 879 860 933
f 933 860 932
f 934 935 836
f 836 935 837
f 936 846 925
f 925 846 845
f 937 924 793
f 793 924 794
f 846 936 874
f 874 936 938
f 907 844 908
f 908 844 843
f 940 941 939
f 939 941 942
f 944 945 943
f 943 945 946
f 948 949 947
f 947 949 950
f 952 949 951
f 951 949 948
f 954 955 953
f 953 955 956
f 958 959 957
f 957 959 802
f 960 961 799
f 799 961 962
f 859 963 860
f 860 963 932
f 964 965 966
f 966 965 922
f 936 849 938
f 938 849 967
f 968 913 935
f 935 913 837
f 947 950 917
f 917 950 918
f 925 850 936
f 936 850 849
f 970 971 969
f 969 971 972
f 945 944 827
f 827 944 973
f 974 968 828
f 828 968 935
f 975 976 978
f 978 976 977
f 799 802 960
f 960 802 959
f 924 937 798
f 798 937 795
f 960 959 859
f 859 959 963
f 979 963 958
f 958 963 959
f 980 981 861
f 861 981 862
f 983 984 982
f 982 984 863
f 985 800 962
f 962 800 799
f 957 802 986
f 986 802 801
f 986 987 957
f 957 987 983
f 987 988 983
f 983 988 984
f 990 984 989
f 989 984 988
f 957 983 958
f 958 983 982
f 991 954 866
f 866 954 992
f 864 863 990
f 990 863 984
f 971 995 996
f 995 997 996
f 996 997 998
f 997 796 998
f 998 796 795
f 797 999 798
f 798 999 922
f 1000 1001 1003
f 1003 1001 1002
f 953 1004 954
f 954 1004 992
f 1005 865 992
f 992 865 866
f 998 795 1006
f 1006 795 937
f 912 991 838
f 838 991 866
f 916 1007 929
f 929 1007 930
f 971 970 988
f 988 970 989
f 1008 972 996
f 996 972 971
f 1009 1010 1006
f 1006 1010 1008
f 1011 1012 869
f 869 1012 867
f 1013 1014 871
f 871 1014 870
f 1008 1010 1012
f 1012 1010 1015
f 825 1016 826
f 826 1016 1017
f 1018 969 1013
f 1013 969 1014
f 783 786 894
f 894 786 1019
f 1020 1021 967
f 967 1021 938
f 1022 1023 876
f 876 1023 877
f 934 1024 825
f 825 1024 1016
f 854 1025 855
f 855 1025 1026
f 1028 903 1027
f 1027 903 902
f 1030 1031 1029
f 1029 1031 1032
f 889 888 814
f 814 888 1033
f 1034 811 1033
f 1033 811 814
f 1035 1036 932
f 932 1036 933
f 841 947 911
f 911 947 917
f 844 948 841
f 841 948 947
f 951 948 907
f 907 948 844
f 907 906 951
f 951 906 1037
f 906 1038 1037
f 1037 1038 1039
f 991 912 1040
f 1040 912 915
f 1041 1042 964
f 964 1042 965
f 890 1043 891
f 891 1043 1044
f 789 1045 1046
f 1012 1011 1008
f 1008 1011 972
f 931 1047 848
f 848 1047 845
f 953 956 943
f 943 956 919
f 928 931 872
f 872 931 848
f 1049 999 1048
f 1048 999 985
f 1047 931 1050
f 1050 931 930
f 899 823 887
f 887 823 886
f 825 828 934
f 934 828 935
f 835 1051 836
f 836 1051 1052
f 923 1053 1038
f 1038 1053 1039
f 1054 927 921
f 921 927 856
f 926 1047 853
f 853 1047 1050
f 985 1055 1048
f 1048 1055 1056
f 973 974 827
f 827 974 828
f 837 913 838
f 838 913 912
f 861 882 980
f 980 882 1057
f 927 926 856
f 856 926 853
f 1025 1056 1026
f 1026 1056 1055
f 961 960 862
f 862 960 859
f 826 1017 1059
f 1059 1017 1060
f 1005 1001 1061
f 1061 1001 1000
f 1001 1004 1002
f 1002 1004 946
f 1059 1060 1002
f 1002 1060 1003
f 943 946 953
f 953 946 1004
f 1042 1041 916
f 916 1041 1007
f 792 794 906
f 906 794 1038
f 998 1006 996
f 996 1006 1008
f 865 1005 1062
f 1062 1005 1061
f 1038 794 923
f 923 794 924
f 1022 876 1036
f 1036 876 933
f 836 1052 934
f 934 1052 1024
f 885 1063 829
f 829 1063 833
f 1021 1064 938
f 938 1064 874
f 1012 1015 867
f 867 1015 868
f 824 910 885
f 885 910 1063
f 1031 1030 1027
f 1027 1030 1028
f 1064 804 874
f 874 804 803
f 884 883 1065
f 1065 883 1066
f 1050 930 1067
f 1067 930 1007
f 916 929 917
f 917 929 911
f 961 1068 939
f 939 1068 940
f 1069 1070 1055
f 1055 1070 1071
f 929 928 911
f 911 928 872
f 1040 1053 955
f 955 1053 965
f 922 965 923
f 923 965 1053
f 1051 835 1062
f 1062 835 865
f 952 914 968
f 968 914 913
f 889 895 890
f 890 895 816
f 895 897 816
f 816 897 901
f 890 816 1043
f 1043 816 815
f 1065 1066 1032
f 1032 1066 1029
f 1006 937 1009
f 1009 937 793
f 1001 1005 1004
f 1004 1005 992
f 925 845 926
f 926 845 1047
f 1002 946 1059
f 1059 946 945
f 977 941 978
f 978 941 940
f 823 824 886
f 886 824 885
f 1059 945 826
f 826 945 827
f 939 942 1069
f 1069 942 1070
f 816 901 817
f 1071 1072 1055
f 1055 1072 1026
f 1062 1061 1074
f 1074 1061 1073
f 1062 1074 1051
f 1051 1074 1075
f 1052 1051 1076
f 1076 1051 1075
f 1024 1052 1077
f 1077 1052 1076
f 1061 1000 1073
f 1073 1000 1078
f 1000 1003 1078
f 1078 1003 1079
f 1079 1003 1080
f 1080 1003 1060
f 1081 1082 1078
f 1078 1082 1073
f 1084 1085 1083
f 1083 1085 1086
f 1087 1088 1086
f 1086 1088 1083
f 1086 1085 1090
f 1090 1085 1089
f 1091 1092 1090
f 1090 1092 1093
f 1089 1094 1090
f 1090 1094 1091
f 1095 1082 1089
f 1089 1082 1094
f 1093 1087 1090
f 1090 1087 1086
f 1096 1097 1099
f 1099 1097 1098
f 1097 1096 1087
f 1087 1096 1088
f 1089 1085 1095
f 1095 1085 1084
f 1084 1075 1095
f 1095 1075 1074
f 1084 1100 1075
f 1075 1100 1076
f 1083 1101 1084
f 1084 1101 1100
f 1101 1083 1102
f 1102 1083 1088
f 1082 1095 1073
f 1073 1095 1074
f 1096 1103 1088
f 1088 1103 1102
f 1101 1102 1104
f 1104 1102 1105
f 1102 1103 1105
f 1105 1103 1106
f 1104 1105 1107
f 1107 1105 1108
f 1107 1109 1104
f 1104 1109 1110
f 1111 1108 1106
f 1106 1108 1105
f 1101 1104 1100
f 1100 1104 1110
f 1100 1110 1076
f 1076 1110 1077
f 1103 1096 1112
f 1112 1096 1099
f 1091 1094 1113
f 1113 1094 1082
f 1113 1114 1091
f 1091 1114 1092
f 1082 1081 1113
f 1113 1081 1115
f 1114 1113 1116
f 1116 1113 1115
f 1114 1117 1092
f 1092 1117 1118
f 1024 1077 1016
f 1016 1077 1119
f 1017 1120 1060
f 1060 1120 1080
f 1120 1017 1119
f 1119 1017 1016
f 1119 1109 1120
f 1120 1109 1121
f 1109 1107 1121
f 1121 1107 1122
f 1120 1121 1080
f 1080 1121 1123
f 1119 1077 1109
f 1109 1077 1110
f 1124 1079 1123
f 1123 1079 1080
f 1124 1081 1079
f 1079 1081 1078
f 1125 1115 1124
f 1124 1115 1081
f 1125 1124 1126
f 1126 1124 1123
f 1127 1125 1128
f 1128 1125 1126
f 1121 1122 1123
f 1123 1122 1126
f 1122 1129 1126
f 1126 1129 1128
f 1115 1125 1116
f 1116 1125 1127
f 1131 1116 1130
f 1130 1116 1127
f 1130 1133 1132
f 1132 1133 1134
f 1130 1127 1133
f 1133 1127 1128
f 1130 1132 1131
f 1131 1132 1112
f 1131 1112 1117
f 1117 1112 1099
f 1117 1114 1131
f 1131 1114 1116
f 1107 1108 1122
f 1122 1108 1129
f 1134 1129 1111
f 1111 1129 1108
f 1134 1133 1129
f 1129 1133 1128
f 1132 1134 1106
f 1106 1134 1111
f 1106 1103 1132
f 1132 1103 1112
f 1087 1093 1097
f 1097 1093 1098
f 1098 1118 1099
f 1099 1118 1117
f 1098 1093 1118
f 1118 1093 1092
f 915 914 1039
f 1039 914 1037
f 918 944 919
f 919 944 943
f 950 949 973
f 973 949 974
f 949 952 974
f 974 952 968
f 956 955 1042
f 1042 955 965
f 950 973 918
f 918 973 944
f 915 1039 1040
f 1040 1039 1053
f 956 1042 919
f 919 1042 916
f 1040 955 991
f 991 955 954
f 914 952 1037
f 1037 952 951
f 1136 1137 1135
f 1135 1137 1138
f 1140 1141 1139
f 1139 1141 1142
f 1139 1142 1143
f 1143 1142 1144
f 1145 1146 1148
f 1148 1146 1147
f 854 1149 1025
f 1025 1149 1150
f 1151 1152 1140
f 1140 1152 1141
f 1154 1155 1153
f 1153 1155 1156
f 1067 1007 1158
f 1158 1007 1157
f 1159 1157 1041
f 1041 1157 1007
f 1161 1162 1160
f 1160 1162 1163
f 1164 1146 1152
f 1152 1146 1141
f 854 1067 1149
f 1149 1067 1158
f 1155 1154 1137
f 1137 1154 1165
f 1166 1164 1138
f 1138 1164 1152
f 1167 1161 1144
f 1144 1161 1168
f 1170 1171 1169
f 1169 1171 1172
f 1161 1160 1168
f 1168 1160 1173
f 1174 1143 1168
f 1168 1143 1144
f 1167 1144 1145
f 1145 1144 1142
f 1135 1175 1136
f 1136 1175 1176
f 1151 1177 1135
f 1135 1177 1175
f 1167 1145 1178
f 1178 1145 1148
f 1160 1163 1153
f 1153 1163 1150
f 1135 1138 1151
f 1151 1138 1152
f 1139 1179 1140
f 1140 1179 1180
f 1165 1166 1137
f 1137 1166 1138
f 1141 1146 1142
f 1142 1146 1145
f 1136 1176 1181
f 1181 1176 1182
f 1174 1170 1183
f 1183 1170 1169
f 1170 1173 1171
f 1171 1173 1156
f 1171 1181 1172
f 1172 1181 1182
f 1153 1156 1160
f 1160 1156 1173
f 1143 1174 1184
f 1184 1174 1183
f 1140 1180 1151
f 1151 1180 1177
f 1049 1048 1178
f 1178 1048 1162
f 1179 1139 1184
f 1184 1139 1143
f 1159 1147 1164
f 1164 1147 1146
f 1170 1174 1173
f 1173 1174 1168
f 1171 1156 1181
f 1181 1156 1155
f 1181 1155 1136
f 1136 1155 1137
f 1184 1183 1186
f 1186 1183 1185
f 1184 1186 1179
f 1179 1186 1187
f 1179 1187 1180
f 1180 1187 1188
f 1180 1188 1177
f 1177 1188 1189
f 1183 1169 1185
f 1185 1169 1190
f 1169 1172 1190
f 1190 1172 1191
f 1172 1182 1191
f 1191 1182 1192
f 1193 1194 1190
f 1190 1194 1185
f 1196 1197 1195
f 1195 1197 1198
f 1199 1200 1196
f 1196 1200 1197
f 1197 1200 1202
f 1202 1200 1201
f 1203 1204 1202
f 1202 1204 1205
f 1201 1206 1202
f 1202 1206 1203
f 1205 1198 1202
f 1202 1198 1197
f 1198 1207 1195
f 1195 1207 1208
f 1201 1200 1209
f 1209 1200 1199
f 1199 1187 1209
f 1209 1187 1186
f 1199 1210 1187
f 1187 1210 1188
f 1196 1211 1199
f 1199 1211 1210
f 1212 1211 1195
f 1195 1211 1196
f 1209 1194 1201
f 1201 1194 1206
f 1194 1209 1185
f 1185 1209 1186
f 1213 1212 1208
f 1208 1212 1195
f 1211 1212 1214
f 1214 1212 1215
f 1212 1213 1215
f 1215 1213 1216
f 1214 1215 1217
f 1217 1215 1218
f 1217 1219 1214
f 1214 1219 1220
f 1216 1221 1215
f 1215 1221 1218
f 1214 1220 1211
f 1211 1220 1210
f 1210 1220 1188
f 1188 1220 1189
f 1213 1208 1223
f 1223 1208 1222
f 1208 1207 1222
f 1222 1207 1224
f 1203 1206 1225
f 1225 1206 1194
f 1204 1203 1226
f 1226 1203 1225
f 1194 1193 1225
f 1225 1193 1227
f 1225 1227 1226
f 1226 1227 1228
f 1229 1230 1226
f 1226 1230 1204
f 1224 1230 1222
f 1222 1230 1229
f 1177 1189 1175
f 1175 1189 1231
f 1176 1232 1182
f 1182 1232 1192
f 1232 1176 1231
f 1231 1176 1175
f 1231 1219 1232
f 1232 1219 1233
f 1219 1217 1233
f 1233 1217 1234
f 1232 1233 1192
f 1192 1233 1235
f 1219 1231 1220
f 1220 1231 1189
f 1236 1191 1235
f 1235 1191 1192
f 1236 1193 1191
f 1191 1193 1190
f 1236 1237 1193
f 1193 1237 1227
f 1237 1236 1238
f 1238 1236 1235
f 1239 1237 1240
f 1240 1237 1238
f 1233 1234 1235
f 1235 1234 1238
f 1234 1241 1238
f 1238 1241 1240
f 1237 1239 1227
f 1227 1239 1228
f 1243 1228 1242
f 1242 1228 1239
f 1242 1245 1244
f 1244 1245 1246
f 1242 1239 1245
f 1245 1239 1240
f 1242 1244 1243
f 1243 1244 1223
f 1243 1223 1229
f 1229 1223 1222
f 1229 1226 1243
f 1243 1226 1228
f 1217 1218 1234
f 1234 1218 1241
f 1246 1241 1221
f 1221 1241 1218
f 1246 1245 1241
f 1241 1245 1240
f 1244 1246 1216
f 1216 1246 1221
f 1216 1213 1244
f 1244 1213 1223
f 1198 1205 1207
f 1207 1205 1224
f 1224 1205 1230
f 1230 1205 1204
f 1148 1147 966
f 966 1147 964
f 1149 1154 1150
f 1150 1154 1153
f 1158 1157 1165
f 1165 1157 1166
f 1157 1159 1166
f 1166 1159 1164
f 1163 1162 1056
f 1056 1162 1048
f 1158 1165 1149
f 1149 1165 1154
f 1178 1148 1049
f 1049 1148 966
f 1163 1056 1150
f 1150 1056 1025
f 1178 1162 1167
f 1167 1162 1161
f 1147 1159 964
f 964 1159 1041
f 999 1049 922
f 922 1049 966
f 999 797 985
f 985 797 800
f 797 796 800
f 800 796 801
f 796 997 801
f 801 997 986
f 1247 1248 1250
f 1250 1248 1249
f 1252 1253 1251
f 1251 1253 1254
f 1251 1254 1255
f 1255 1254 1256
f 1258 1259 1257
f 1257 1259 1260
f 1261 1262 1252
f 1252 1262 1253
f 1264 1265 1263
f 1263 1265 1266
f 1267 1268 855
f 855 1268 920
f 1269 1267 1026
f 1026 1267 855
f 1271 1272 1270
f 1270 1272 1273
f 1274 1258 1262
f 1262 1258 1253
f 1264 1275 1265
f 1265 1275 1249
f 1276 1274 1250
f 1250 1274 1262
f 1277 1271 1256
f 1256 1271 1278
f 1279 1280 1282
f 1282 1280 1281
f 1271 1270 1278
f 1278 1270 1283
f 1284 1255 1278
f 1278 1255 1256
f 1277 1256 1257
f 1257 1256 1254
f 1247 1285 1248
f 1248 1285 1286
f 1261 1287 1247
f 1247 1287 1285
f 1257 1260 1277
f 1277 1260 1288
f 1270 1273 1263
f 1263 1273 1289
f 1261 1247 1262
f 1262 1247 1250
f 1251 1290 1252
f 1252 1290 1291
f 1275 1276 1249
f 1249 1276 1250
f 1253 1258 1254
f 1254 1258 1257
f 1248 1286 1292
f 1292 1286 1293
f 1284 1280 1294
f 1294 1280 1279
f 1281 1280 1266
f 1266 1280 1283
f 1292 1293 1281
f 1281 1293 1282
f 1263 1266 1270
f 1270 1266 1283
f 1255 1284 1295
f 1295 1284 1294
f 1252 1291 1261
f 1261 1291 1287
f 1288 1070 1272
f 1272 1070 942
f 1290 1251 1295
f 1295 1251 1255
f 1269 1259 1274
f 1274 1259 1258
f 1280 1284 1283
f 1283 1284 1278
f 1281 1266 1292
f 1292 1266 1265
f 1292 1265 1248
f 1248 1265 1249
f 1295 1294 1297
f 1297 1294 1296
f 1295 1297 1290
f 1290 1297 1298
f 1290 1298 1291
f 1291 1298 1299
f 1291 1299 1287
f 1287 1299 1300
f 1294 1279 1296
f 1296 1279 1301
f 1279 1282 1301
f 1301 1282 1302
f 1302 1282 1303
f 1303 1282 1293
f 1304 1305 1301
f 1301 1305 1296
f 1307 1308 1306
f 1306 1308 1309
f 1310 1311 1307
f 1307 1311 1308
f 1308 1311 1313
f 1313 1311 1312
f 1314 1315 1313
f 1313 1315 1316
f 1312 1317 1313
f 1313 1317 1314
f 1316 1309 1313
f 1313 1309 1308
f 1318 1319 1309
f 1309 1319 1306
f 1311 1310 1312
f 1312 1310 1320
f 1310 1298 1320
f 1320 1298 1297
f 1310 1321 1298
f 1298 1321 1299
f 1307 1322 1310
f 1310 1322 1321
f 1322 1307 1323
f 1323 1307 1306
f 1312 1320 1317
f 1317 1320 1305
f 1305 1320 1296
f 1296 1320 1297
f 1319 1324 1306
f 1306 1324 1323
f 1325 1322 1326
f 1326 1322 1323
f 1324 1327 1323
f 1323 1327 1326
f 1328 1325 1329
f 1329 1325 1326
f 1325 1328 1331
f 1331 1328 1330
f 1327 1332 1326
f 1326 1332 1329
f 1322 1325 1321
f 1321 1325 1331
f 1321 1331 1299
f 1299 1331 1300
f 1324 1319 1334
f 1334 1319 1333
f 1319 1318 1333
f 1333 1318 1335
f 1314 1317 1336
f 1336 1317 1305
f 1315 1314 1337
f 1337 1314 1336
f 1305 1304 1336
f 1336 1304 1338
f 1337 1336 1339
f 1339 1336 1338
f 1337 1340 1315
f 1315 1340 1341
f 1335 1341 1333
f 1333 1341 1340
f 1287 1300 1285
f 1285 1300 1342
f 1286 1343 1293
f 1293 1343 1303
f 1343 1286 1342
f 1342 1286 1285
f 1342 1330 1343
f 1343 1330 1344
f 1330 1328 1344
f 1344 1328 1345
f 1343 1344 1303
f 1303 1344 1346
f 1342 1300 1330
f 1330 1300 1331
f 1347 1302 1346
f 1346 1302 1303
f 1347 1304 1302
f 1302 1304 1301
f 1348 1338 1347
f 1347 1338 1304
f 1348 1347 1349
f 1349 1347 1346
f 1350 1348 1351
f 1351 1348 1349
f 1344 1345 1346
f 1346 1345 1349
f 1345 1352 1349
f 1349 1352 1351
f 1348 1350 1338
f 1338 1350 1339
f 1354 1339 1353
f 1353 1339 1350
f 1353 1356 1355
f 1355 1356 1357
f 1353 1350 1356
f 1356 1350 1351
f 1353 1355 1354
f 1354 1355 1334
f 1354 1334 1340
f 1340 1334 1333
f 1340 1337 1354
f 1354 1337 1339
f 1328 1329 1345
f 1345 1329 1352
f 1357 1352 1332
f 1332 1352 1329
f 1357 1356 1352
f 1352 1356 1351
f 1357 1332 1355
f 1355 1332 1327
f 1327 1324 1355
f 1355 1324 1334
f 1309 1316 1318
f 1318 1316 1335
f 1335 1316 1341
f 1341 1316 1315
f 1259 1072 1260
f 1260 1072 1071
f 1358 1264 1289
f 1289 1264 1263
f 1268 1267 1275
f 1275 1267 1276
f 1267 1269 1276
f 1276 1269 1274
f 941 1273 942
f 942 1273 1272
f 1358 1268 1264
f 1264 1268 1275
f 1260 1071 1288
f 1288 1071 1070
f 1273 941 1289
f 1289 941 977
f 1272 1271 1288
f 1288 1271 1277
f 1259 1269 1072
f 1072 1269 1026
f 1360 1361 1359
f 1359 1361 1362
f 1364 1365 1363
f 1363 1365 1366
f 1363 1366 1367
f 1367 1366 1368
f 1370 1371 1369
f 1369 1371 1372
f 1373 1374 1376
f 1376 1374 1375
f 1377 1378 1364
f 1364 1378 1365
f 1379 1380 1382
f 1382 1380 1381
f 1383 1384 1386
f 1386 1384 1385
f 1387 1385 978
f 978 1385 1384
f 1388 1389 1391
f 1391 1389 1390
f 1378 1392 1365
f 1365 1392 1370
f 1374 1383 1375
f 1375 1383 1386
f 1380 1393 1381
f 1381 1393 1361
f 1394 1392 1362
f 1362 1392 1378
f 1389 1396 1395
f 1395 1396 1368
f 1398 1399 1397
f 1397 1399 1400
f 1388 1401 1389
f 1389 1401 1396
f 1402 1367 1396
f 1396 1367 1368
f 1395 1368 1369
f 1369 1368 1366
f 1359 1403 1360
f 1360 1403 1404
f 1377 1405 1359
f 1359 1405 1403
f 1369 1372 1395
f 1395 1372 1406
f 1379 1388 1376
f 1376 1388 1391
f 1359 1362 1377
f 1377 1362 1378
f 1363 1407 1364
f 1364 1407 1408
f 1393 1394 1361
f 1361 1394 1362
f 1365 1370 1366
f 1366 1370 1369
f 1360 1404 1409
f 1409 1404 1410
f 1402 1398 1411
f 1411 1398 1397
f 1399 1398 1382
f 1382 1398 1401
f 1409 1410 1399
f 1399 1410 1400
f 1388 1379 1401
f 1401 1379 1382
f 1367 1402 1412
f 1412 1402 1411
f 1364 1408 1377
f 1377 1408 1405
f 981 980 1406
f 1406 980 1390
f 1407 1363 1412
f 1412 1363 1367
f 1387 1371 1392
f 1392 1371 1370
f 1398 1402 1401
f 1401 1402 1396
f 1409 1399 1381
f 1381 1399 1382
f 1360 1409 1361
f 1361 1409 1381
f 1412 1411 1414
f 1414 1411 1413
f 1412 1414 1407
f 1407 1414 1415
f 1407 1415 1408
f 1408 1415 1416
f 1408 1416 1405
f 1405 1416 1417
f 1411 1397 1413
f 1413 1397 1418
f 1397 1400 1418
f 1418 1400 1419
f 1419 1400 1420
f 1420 1400 1410
f 1422 1413 1421
f 1421 1413 1418
f 1423 1424 1426
f 1426 1424 1425
f 1427 1428 1424
f 1424 1428 1425
f 1425 1428 1430
f 1430 1428 1429
f 1430 1431 1433
f 1433 1431 1432
f 1429 1434 1430
f 1430 1434 1431
f 1433 1426 1430
f 1430 1426 1425
f 1426 1435 1423
f 1423 1435 1436
f 1428 1427 1429
f 1429 1427 1437
f 1427 1415 1437
f 1437 1415 1414
f 1427 1438 1415
f 1415 1438 1416
f 1439 1438 1424
f 1424 1438 1427
f 1440 1439 1423
f 1423 1439 1424
f 1429 1437 1434
f 1434 1437 1422
f 1422 1437 1413
f 1413 1437 1414
f 1441 1440 1436
f 1436 1440 1423
f 1442 1439 1443
f 1443 1439 1440
f 1441 1444 1440
f 1440 1444 1443
f 1445 1442 1446
f 1446 1442 1443
f 1442 1445 1448
f 1448 1445 1447
f 1444 1449 1443
f 1443 1449 1446
f 1439 1442 1438
f 1438 1442 1448
f 1438 1448 1416
f 1416 1448 1417
f 1436 1450 1441
f 1441 1450 1451
f 1436 1435 1450
f 1450 1435 1452
f 1431 1434 1453
f 1453 1434 1422
f 1431 1453 1432
f 1432 1453 1454
f 1453 1422 1455
f 1455 1422 1421
f 1454 1453 1456
f 1456 1453 1455
f 1457 1458 1454
f 1454 1458 1432
f 1452 1458 1450
f 1450 1458 1457
f 1405 1417 1403
f 1403 1417 1459
f 1404 1460 1410
f 1410 1460 1420
f 1459 1460 1403
f 1403 1460 1404
f 1447 1461 1459
f 1459 1461 1460
f 1445 1462 1447
f 1447 1462 1461
f 1460 1461 1420
f 1420 1461 1463
f 1459 1417 1447
f 1447 1417 1448
f 1464 1419 1463
f 1463 1419 1420
f 1419 1464 1418
f 1418 1464 1421
f 1464 1465 1421
f 1421 1465 1455
f 1465 1464 1466
f 1466 1464 1463
f 1467 1465 1468
f 1468 1465 1466
f 1461 1462 1463
f 1463 1462 1466
f 1462 1469 1466
f 1466 1469 1468
f 1465 1467 1455
f 1455 1467 1456
f 1471 1456 1470
f 1470 1456 1467
f 1470 1473 1472
f 1472 1473 1474
f 1470 1467 1473
f 1473 1467 1468
f 1470 1472 1471
f 1471 1472 1451
f 1471 1451 1457
f 1457 1451 1450
f 1457 1454 1471
f 1471 1454 1456
f 1462 1445 1469
f 1469 1445 1446
f 1474 1469 1449
f 1449 1469 1446
f 1474 1473 1469
f 1469 1473 1468
f 1472 1474 1444
f 1444 1474 1449
f 1444 1441 1472
f 1472 1441 1451
f 1426 1433 1435
f 1435 1433 1452
f 1452 1433 1458
f 1458 1433 1432
f 1371 940 1372
f 1372 940 1068
f 1376 1375 1379
f 1379 1375 1380
f 1393 1386 1394
f 1394 1386 1385
f 1385 1387 1394
f 1394 1387 1392
f 1475 1373 1391
f 1391 1373 1376
f 1375 1386 1380
f 1380 1386 1393
f 1372 1068 1406
f 1406 1068 981
f 1406 1390 1395
f 1395 1390 1389
f 1371 1387 940
f 940 1387 978
f 883 807 1476
f 1476 807 1477
f 1046 904 1479
f 1479 904 1478
f 904 903 1478
f 1478 903 1480
f 1030 1481 1028
f 1028 1481 1482
f 810 1046 1483
f 1483 1046 1479
f 1066 883 1484
f 1484 883 1476
f 807 810 1477
f 1477 810 1483
f 1485 1029 1484
f 1484 1029 1066
f 1028 1482 903
f 903 1482 1480
f 1481 1030 1485
f 1485 1030 1029
f 1484 1486 1485
f 1485 1486 1487
f 1485 1487 1481
f 1481 1487 1488
f 1481 1488 1482
f 1482 1488 1489
f 1482 1489 1480
f 1480 1489 1490
f 1484 1476 1486
f 1486 1476 1491
f 1476 1477 1491
f 1491 1477 1492
f 1477 1483 1492
f 1492 1483 1493
f 1495 1486 1494
f 1494 1486 1491
f 1497 1498 1496
f 1496 1498 1499
f 1500 1501 1497
f 1497 1501 1498
f 1502 1503 1501
f 1501 1503 1498
f 1502 1504 1503
f 1503 1504 1505
f 1506 1499 1503
f 1503 1499 1498
f 1499 1506 1507
f 1507 1506 1508
f 1507 1509 1499
f 1499 1509 1496
f 1502 1501 1510
f 1510 1501 1500
f 1500 1488 1510
f 1510 1488 1487
f 1500 1511 1488
f 1488 1511 1489
f 1497 1512 1500
f 1500 1512 1511
f 1512 1497 1513
f 1513 1497 1496
f 1502 1510 1504
f 1504 1510 1495
f 1495 1510 1486
f 1486 1510 1487
f 1509 1514 1496
f 1496 1514 1513
f 1515 1512 1516
f 1516 1512 1513
f 1514 1517 1513
f 1513 1517 1516
f 1518 1515 1519
f 1519 1515 1516
f 1515 1518 1521
f 1521 1518 1520
f 1517 1522 1516
f 1516 1522 1519
f 1512 1515 1511
f 1511 1515 1521
f 1511 1521 1489
f 1489 1521 1490
f 1514 1509 1524
f 1524 1509 1523
f 1509 1507 1523
f 1523 1507 1508
f 1505 1504 1525
f 1525 1504 1495
f 1526 1505 1527
f 1527 1505 1525
f 1525 1495 1528
f 1528 1495 1494
f 1527 1525 1529
f 1529 1525 1528
f 1527 1530 1526
f 1526 1530 1531
f 1508 1531 1523
f 1523 1531 1530
f 1506 1503 1526
f 1526 1503 1505
f 1508 1506 1531
f 1531 1506 1526
f 1478 1480 1532
f 1532 1480 1490
f 1483 1479 1493
f 1493 1479 1533
f 1532 1533 1478
f 1478 1533 1479
f 1520 1534 1532
f 1532 1534 1533
f 1518 1535 1520
f 1520 1535 1534
f 1533 1534 1493
f 1493 1534 1536
f 1532 1490 1520
f 1520 1490 1521
f 1537 1492 1536
f 1536 1492 1493
f 1492 1537 1491
f 1491 1537 1494
f 1537 1538 1494
f 1494 1538 1528
f 1538 1537 1539
f 1539 1537 1536
f 1540 1538 1541
f 1541 1538 1539
f 1534 1535 1536
f 1536 1535 1539
f 1535 1542 1539
f 1539 1542 1541
f 1538 1540 1528
f 1528 1540 1529
f 1544 1529 1543
f 1543 1529 1540
f 1545 1543 1547
f 1547 1543 1546
f 1543 1540 1546
f 1546 1540 1541
f 1543 1545 1544
f 1544 1545 1524
f 1544 1524 1530
f 1530 1524 1523
f 1530 1527 1544
f 1544 1527 1529
f 1535 1518 1542
f 1542 1518 1519
f 1547 1542 1522
f 1522 1542 1519
f 1547 1546 1542
f 1542 1546 1541
f 1545 1547 1517
f 1517 1547 1522
f 1517 1514 1545
f 1545 1514 1524
f 997 995 986
f 986 995 987
f 987 995 988
f 988 995 971
f 976 1358 977
f 977 1358 1289
f 854 853 1067
f 1067 853 1050
f 1055 985 1069
f 1069 985 962
f 1068 961 981
f 981 961 862
f 1268 1358 920
f 920 1358 976
f 920 976 921
f 921 976 975
f 927 1054 850
f 850 1054 851
f 882 881 1057
f 1057 881 1548
f 1548 1374 1057
f 1057 1374 1373
f 1383 1374 1549
f 1549 1374 1548
f 1549 1548 1550
f 1550 1548 881
f 1550 881 1551
f 1551 881 880
f 933 1552 879
f 879 1552 880
f 1551 880 875
f 875 880 1552
f 1553 1551 878
f 878 1551 875
f 1551 1553 1550
f 1550 1553 1554
f 1550 1554 1549
f 1549 1554 1555
f 978 1384 975
f 975 1384 1555
f 967 849 1556
f 1556 849 852
f 875 1552 876
f 876 1552 933
f 961 939 962
f 962 939 1069
f 1555 1054 975
f 975 1054 921
f 1555 1384 1549
f 1549 1384 1383
f 1391 1390 1475
f 1475 1390 980
f 1373 1475 1057
f 1057 1475 980
f 851 1054 1554
f 1554 1054 1555
f 1554 1553 851
f 851 1553 852
f 878 1556 1553
f 1553 1556 852
f 1556 878 967
f 967 878 877
f 1023 1020 877
f 877 1020 967
f 909 811 1034
f 806 779 873
f 873 779 840
f 805 780 806
f 806 780 779
f 1043 893 1044
f 1044 893 892
f 873 840 847
f 847 840 842
f 840 839 842
f 842 839 843
f 839 791 843
f 843 791 908
f 791 790 908
f 908 790 792
f 809 789 810
f 810 789 1046
f 793 790 809
f 809 790 789
f 809 808 793
f 793 808 1009
f 808 884 1009
f 1009 884 1010
f 1065 1015 884
f 884 1015 1010
f 1032 868 1065
f 1065 868 1015
f 1031 822 1032
f 1032 822 868
f 1031 1027 822
f 822 1027 785
f 1045 905 1046
f 1046 905 904
f 788 781 1019
f 1019 781 894
f 781 780 894
f 894 780 892
f 780 805 892
f 892 805 1044
f 805 804 1044
f 1044 804 891
f 804 1064 891
f 891 1064 888
f 1064 1021 888
f 888 1021 1033
f 1021 1020 1033
f 1033 1020 1034
f 1020 1023 1034
f 1034 1023 909
f 1023 1022 909
f 909 1022 910
f 1043 815 893
f 893 815 819
f 819 815 820
f 820 815 818
f 870 869 818
f 818 869 820
f 1014 1011 870
f 870 1011 869
f 969 972 1014
f 1014 972 1011
f 1036 1063 1022
f 1022 1063 910
f 1035 833 1036
f 1036 833 1063
f 1035 932 979
f 979 932 963
f 834 979 982
f 982 979 958
f 833 1035 834
f 834 1035 979
f 982 863 834
f 834 863 830
f 864 900 831
f 831 900 857
f 990 993 864
f 864 993 900
f 989 994 990
f 990 994 993
f 970 1058 989
f 989 1058 994
f 969 1018 970
f 970 1018 1058
f 1027 902 785
f 785 902 786
f 902 905 786
f 786 905 1019
f 905 1045 1019
f 1019 1045 788
f 788 1045 787
f 787 1045 789
