o hand_left
v -0.602331 0.215434 1.299084
v -0.603843 0.224682 1.296325
v -0.591698 0.224855 1.296064
v -0.591168 0.214339 1.298625
v -0.599943 0.246333 1.292437
v -0.599532 0.253808 1.282444
v -0.584298 0.251202 1.284335
v -0.586766 0.246115 1.292912
v -0.582384 0.213094 1.295776
v -0.583202 0.225111 1.295496
v -0.579032 0.213508 1.289129
v -0.582777 0.198021 1.287933
v -0.584351 0.201051 1.295229
v -0.584921 0.188121 1.290142
v -0.589077 0.197795 1.278216
v -0.591937 0.182124 1.286046
v -0.621057 0.191239 1.281896
v -0.633553 0.192984 1.287520
v -0.628825 0.178308 1.297018
v -0.616143 0.178721 1.291009
v -0.645516 0.188585 1.304929
v -0.636135 0.182277 1.301028
v -0.641522 0.195938 1.290759
v -0.649495 0.201022 1.294849
v -0.620167 0.219658 1.301529
v -0.623703 0.228375 1.298263
v -0.617003 0.225894 1.296917
v -0.614243 0.218256 1.299870
v -0.570999 0.224263 1.279408
v -0.580681 0.218042 1.273267
v -0.579514 0.213273 1.280190
v -0.571533 0.224034 1.284872
v -0.638192 0.254580 1.295973
v -0.643347 0.260901 1.285086
v -0.638595 0.260129 1.281740
v -0.635147 0.253845 1.292365
v -0.617854 0.256773 1.276983
v -0.625126 0.258807 1.270655
v -0.623061 0.258258 1.256446
v -0.616133 0.253745 1.260234
v -0.608966 0.254947 1.281011
v -0.607369 0.253991 1.266726
v -0.598474 0.253267 1.270631
v -0.582522 0.251428 1.274815
v -0.655062 0.260452 1.290457
v -0.652815 0.256217 1.299480
v -0.569188 0.176857 1.326499
v -0.574494 0.178069 1.329411
v -0.575249 0.178128 1.327633
v -0.570160 0.176703 1.324915
v -0.669332 0.246010 1.291163
v -0.672456 0.239039 1.284535
v -0.674792 0.245517 1.282081
v -0.670400 0.252269 1.287012
v -0.667819 0.237756 1.296640
v -0.668522 0.230385 1.288093
v -0.564565 0.165938 1.331241
v -0.563527 0.170354 1.328482
v -0.565335 0.167488 1.325290
v -0.567347 0.162412 1.327414
v -0.590550 0.204394 1.300414
v -0.599936 0.207416 1.303232
v -0.589909 0.189193 1.308923
v -0.594943 0.195300 1.306799
v -0.589262 0.195347 1.301735
v -0.586304 0.189331 1.303315
v -0.617058 0.201046 1.313856
v -0.620355 0.210475 1.307858
v -0.614196 0.208318 1.305906
v -0.608978 0.198425 1.312139
v -0.631619 0.214939 1.315320
v -0.627700 0.205015 1.320263
v -0.634672 0.208681 1.323827
v -0.635720 0.215698 1.320374
v -0.619062 0.187717 1.325861
v -0.617425 0.183327 1.327387
v -0.619768 0.185483 1.330397
v -0.622201 0.189396 1.327390
v -0.677205 0.251272 1.278663
v -0.670865 0.257870 1.282339
v -0.661002 0.200113 1.315600
v -0.663836 0.210100 1.320266
v -0.662377 0.199540 1.329446
v -0.659933 0.190815 1.321749
v -0.669490 0.232314 1.277165
v -0.674125 0.238310 1.275043
v -0.568911 0.162698 1.334970
v -0.571494 0.159154 1.331727
v -0.600991 0.244828 1.260966
v -0.582632 0.244987 1.267218
v -0.612977 0.245638 1.256346
v -0.621034 0.247047 1.252347
v -0.626180 0.250965 1.247535
v -0.599095 0.192675 1.311829
v -0.609079 0.210899 1.302991
v -0.624838 0.221153 1.303692
v -0.647669 0.228111 1.323588
v -0.649857 0.236967 1.318311
v -0.640153 0.233008 1.315730
v -0.640541 0.225691 1.320511
v -0.660460 0.216718 1.326884
v -0.652920 0.218789 1.329420
v -0.652041 0.211009 1.333939
v -0.659263 0.207371 1.333138
v -0.568378 0.228702 1.273448
v -0.581617 0.223694 1.267536
v -0.662764 0.252752 1.296105
v -0.662475 0.257844 1.290173
v -0.664730 0.262548 1.283440
v -0.629714 0.241431 1.297248
v -0.632969 0.253319 1.290035
v -0.628840 0.252078 1.288864
v -0.627016 0.239169 1.295854
v -0.607980 0.234987 1.296150
v -0.613145 0.247073 1.291480
v -0.595420 0.235451 1.297004
v -0.632933 0.260335 1.276290
v -0.641559 0.267144 1.274580
v -0.635072 0.266136 1.268594
v -0.650216 0.266989 1.279275
v -0.658384 0.265589 1.282680
v -0.679642 0.242899 1.270438
v -0.629676 0.263497 1.262610
v -0.577713 0.244653 1.292422
v -0.569885 0.243147 1.292679
v -0.571974 0.235781 1.294136
v -0.578881 0.236266 1.294354
v -0.584849 0.179383 1.294623
v -0.583449 0.185525 1.299096
v -0.584482 0.193500 1.295006
v -0.639396 0.247176 1.304705
v -0.651704 0.248962 1.307483
v -0.593359 0.186495 1.313863
v -0.570880 0.161642 1.322376
v -0.568246 0.167018 1.320398
v -0.578951 0.172630 1.305718
v -0.581966 0.166348 1.307050
v -0.595133 0.177827 1.318449
v -0.591683 0.183515 1.316177
v -0.591115 0.181762 1.317471
v -0.593772 0.177276 1.321655
v -0.627694 0.189765 1.333173
v -0.629438 0.193589 1.330248
v -0.610377 0.169365 1.303117
v -0.600678 0.168642 1.292659
v -0.603879 0.179315 1.285226
v -0.623431 0.203687 1.316799
v -0.621192 0.195402 1.322465
v -0.624789 0.196583 1.324279
v -0.600943 0.189608 1.314925
v -0.597568 0.183735 1.317266
v -0.602641 0.184970 1.317456
v -0.605945 0.191033 1.316081
v -0.666216 0.219928 1.311309
v -0.662512 0.227510 1.319426
v -0.565284 0.174141 1.326524
v -0.566425 0.172813 1.324099
v -0.626509 0.212892 1.310871
v -0.608803 0.192228 1.278656
v -0.629398 0.222915 1.306365
v -0.643146 0.180941 1.325957
v -0.641811 0.185964 1.332804
v -0.638095 0.184455 1.336508
v -0.637899 0.179244 1.333439
v -0.585637 0.172363 1.332156
v -0.582226 0.177104 1.330741
v -0.580282 0.176238 1.331127
v -0.583113 0.171624 1.334115
v -0.587929 0.185750 1.312156
v -0.584072 0.185524 1.307065
v -0.582041 0.183357 1.311066
v -0.586649 0.183205 1.315073
v -0.581790 0.181018 1.302966
v -0.579276 0.178923 1.307054
v -0.585666 0.165625 1.332180
v -0.581051 0.159632 1.330019
v -0.592721 0.164033 1.316313
v -0.594008 0.169513 1.321738
v -0.654075 0.211549 1.284609
v -0.661764 0.216402 1.291136
v -0.657619 0.205860 1.301422
v -0.654704 0.194389 1.311416
v -0.650267 0.183904 1.320516
v -0.642718 0.177528 1.313297
v -0.662976 0.210833 1.305359
v -0.603106 0.173707 1.314032
v -0.600816 0.167491 1.307768
v -0.606004 0.170052 1.310043
v -0.634339 0.225510 1.311386
v -0.568684 0.172786 1.320436
v -0.637179 0.232507 1.249676
v -0.649023 0.229539 1.254313
v -0.643684 0.223972 1.258610
v -0.630377 0.227816 1.254032
v -0.576578 0.179447 1.327142
v -0.571653 0.178085 1.322783
v -0.634367 0.194781 1.334656
v -0.632051 0.190542 1.336790
v -0.634659 0.189199 1.338608
v -0.637631 0.193739 1.339314
v -0.665373 0.220382 1.293848
v -0.657817 0.194882 1.337046
v -0.656210 0.186958 1.329228
v -0.665136 0.225248 1.281929
v -0.658911 0.220721 1.275849
v -0.662916 0.227370 1.269877
v -0.628815 0.171990 1.312666
v -0.647215 0.207155 1.281542
v -0.652565 0.217625 1.272831
v -0.657060 0.225434 1.265553
v -0.661165 0.230659 1.260425
v -0.667086 0.232359 1.265778
v -0.575599 0.159085 1.326503
v -0.577504 0.160112 1.335783
v -0.672906 0.236981 1.260521
v -0.665615 0.235339 1.254996
v -0.644523 0.215260 1.268993
v -0.634160 0.213666 1.265014
v -0.639544 0.205361 1.277704
v -0.628779 0.202780 1.274260
v -0.623882 0.166867 1.303936
v -0.574095 0.173609 1.347078
v -0.579220 0.167501 1.340025
v -0.581148 0.172256 1.337059
v -0.577092 0.176326 1.345356
v -0.582398 0.165992 1.335896
v -0.575029 0.163676 1.339149
v -0.614010 0.204961 1.270409
v -0.600941 0.180109 1.318498
v -0.617996 0.219247 1.261182
v -0.595053 0.207341 1.269105
v -0.598098 0.219808 1.263652
v -0.620418 0.234405 1.252277
v -0.605738 0.232852 1.256797
v -0.632447 0.242968 1.244607
v -0.627494 0.237649 1.248898
v -0.589982 0.234139 1.261452
v -0.569512 0.182671 1.333460
v -0.575027 0.182233 1.336220
v -0.641873 0.237410 1.244910
v -0.585791 0.235618 1.295789
v -0.634531 0.235014 1.306178
v -0.630777 0.232382 1.302652
v -0.650732 0.241910 1.314316
v -0.639723 0.239189 1.310740
v -0.564436 0.180388 1.333299
v -0.618205 0.180401 1.328791
v -0.619235 0.182063 1.328745
v -0.575234 0.249962 1.286001
v -0.568228 0.248182 1.287117
v -0.564095 0.243102 1.275504
v -0.564858 0.247927 1.280925
v -0.573096 0.250035 1.277493
v -0.572415 0.245051 1.271426
v -0.631679 0.242899 1.298813
v -0.634538 0.244134 1.301357
v -0.667281 0.229600 1.303781
v -0.663076 0.236432 1.312152
v -0.583346 0.175159 1.300337
v -0.590899 0.172544 1.293502
v -0.587813 0.169343 1.300475
v -0.588357 0.163604 1.309412
v -0.600510 0.176658 1.317915
v -0.598127 0.172512 1.316535
v -0.621234 0.249138 1.290471
v -0.619536 0.236165 1.295417
v -0.578075 0.226803 1.292960
v -0.572536 0.228037 1.291350
v -0.613379 0.193865 1.317850
v -0.620626 0.170485 1.321255
v -0.616268 0.166966 1.313586
v -0.610608 0.186206 1.321033
v -0.561493 0.174867 1.338905
v -0.562069 0.178140 1.335244
v -0.594140 0.166194 1.302028
v -0.631300 0.200321 1.328326
v -0.626095 0.173731 1.321281
v -0.620629 0.174625 1.327089
v -0.656689 0.203417 1.337325
v -0.653478 0.235347 1.249202
v -0.579656 0.176771 1.333645
v -0.578543 0.180156 1.339822
v -0.570435 0.171374 1.346290
v -0.565225 0.171040 1.342554
v -0.661883 0.244583 1.304801
v -0.627982 0.230292 1.300642
v -0.576715 0.235767 1.266388
v -0.566079 0.236273 1.272337
v -0.609695 0.182197 1.321698
v -0.648094 0.184529 1.329151
v -0.637360 0.174809 1.321959
v -0.631903 0.173263 1.330528
v -0.624329 0.173362 1.329460
v -0.618990 0.177785 1.330184
v -0.569345 0.176443 1.350044
v -0.563952 0.176469 1.346649
v -0.560887 0.180066 1.342351
v -0.561716 0.182231 1.338121
v -0.564978 0.183285 1.335430
v -0.573496 0.178564 1.350241
v -0.576285 0.180542 1.347973
v -0.578012 0.181867 1.341894
v -0.574243 0.183132 1.351299
v -0.569391 0.184586 1.353084
v -0.562577 0.194317 1.345240
v -0.561455 0.188348 1.345930
v -0.562469 0.190065 1.348003
v -0.563517 0.195045 1.348270
v -0.564898 0.199803 1.350020
v -0.563907 0.199787 1.346632
v -0.564521 0.186459 1.350394
v -0.566275 0.193086 1.351476
v -0.569982 0.192037 1.353285
v -0.570618 0.197484 1.354581
v -0.567263 0.198589 1.353189
v -0.568387 0.187588 1.352746
v -0.563789 0.183853 1.350206
v -0.566216 0.203082 1.349005
v -0.565962 0.202241 1.351363
v -0.568300 0.201563 1.353633
v -0.569773 0.204006 1.352490
v -0.562203 0.186976 1.340112
v -0.563384 0.194852 1.342793
v -0.566206 0.200038 1.344493
v -0.568301 0.203189 1.347105
v -0.567096 0.195955 1.341304
v -0.568983 0.199744 1.343466
v -0.571198 0.202185 1.345786
v -0.571444 0.196175 1.341197
v -0.572203 0.199325 1.343567
v -0.569643 0.186213 1.336672
v -0.565437 0.185781 1.336669
v -0.573003 0.201363 1.344874
v -0.571596 0.204169 1.351266
v -0.573013 0.189884 1.353261
v -0.573708 0.196968 1.353814
v -0.575201 0.189845 1.352174
v -0.575957 0.196709 1.353162
v -0.573260 0.201361 1.354727
v -0.570863 0.200452 1.354694
v -0.570164 0.183635 1.335104
v -0.575691 0.182904 1.337980
v -0.575333 0.184881 1.339297
v -0.575844 0.194850 1.342968
v -0.577831 0.184291 1.343019
v -0.576904 0.184725 1.348754
v -0.577147 0.191315 1.350314
v -0.578007 0.192763 1.347221
v -0.577202 0.196688 1.350907
v -0.577186 0.197127 1.348370
v -0.575525 0.198575 1.345114
v -0.576172 0.200618 1.350637
v -0.574908 0.201166 1.353262
v -0.573610 0.202836 1.348861
v -0.576598 0.199854 1.348904
v -0.574468 0.201069 1.347085
v -0.592930 0.185230 1.343765
v -0.598604 0.186640 1.346416
v -0.599311 0.183770 1.343287
v -0.594519 0.182564 1.341040
v -0.588218 0.173193 1.349698
v -0.587441 0.178463 1.345967
v -0.588918 0.174066 1.342532
v -0.591290 0.168444 1.346334
v -0.594008 0.170390 1.353729
v -0.597370 0.166502 1.349744
v -0.594030 0.166148 1.341210
v -0.591452 0.171997 1.337867
v -0.601118 0.172673 1.319790
v -0.604357 0.167127 1.321120
v -0.613431 0.183037 1.328044
v -0.615562 0.180900 1.330099
v -0.589831 0.182663 1.344039
v -0.591009 0.179028 1.340929
v -0.608107 0.181177 1.345639
v -0.604392 0.184158 1.342788
v -0.603575 0.184101 1.345781
v -0.606460 0.180930 1.349273
v -0.602930 0.180653 1.321077
v -0.608448 0.181704 1.324405
v -0.601159 0.177390 1.320044
v -0.609268 0.175030 1.348127
v -0.607069 0.168491 1.348460
v -0.616269 0.167699 1.330007
v -0.617825 0.173206 1.332508
v -0.591990 0.177278 1.336911
v -0.599087 0.184233 1.340210
v -0.594796 0.182195 1.337651
v -0.600835 0.165002 1.344374
v -0.603630 0.170488 1.353513
v -0.599095 0.186990 1.364204
v -0.603913 0.179247 1.356550
v -0.604579 0.183451 1.353434
v -0.600810 0.191290 1.361699
v -0.606470 0.176174 1.352384
v -0.600422 0.174419 1.357089
v -0.590356 0.195897 1.353094
v -0.596203 0.196680 1.355434
v -0.586386 0.193597 1.353546
v -0.610486 0.165302 1.324478
v -0.584589 0.184226 1.358219
v -0.584371 0.189913 1.354760
v -0.603056 0.186283 1.349395
v -0.599880 0.195168 1.358540
v -0.595937 0.183568 1.364892
v -0.589793 0.180636 1.361660
v -0.594295 0.188014 1.368049
v -0.588057 0.186783 1.365901
v -0.583035 0.190497 1.361899
v -0.583587 0.194903 1.357633
v -0.586105 0.197148 1.355612
v -0.597868 0.191002 1.367145
v -0.599758 0.194740 1.364219
v -0.598816 0.197167 1.359433
v -0.597840 0.196898 1.369271
v -0.594099 0.195447 1.371471
v -0.584235 0.211586 1.369184
v -0.583540 0.205807 1.367419
v -0.584710 0.205168 1.369756
v -0.585211 0.210391 1.371583
v -0.583022 0.199261 1.367310
v -0.584599 0.200353 1.369265
v -0.588097 0.197705 1.370983
v -0.588553 0.203836 1.372413
v -0.593324 0.202627 1.372967
v -0.593488 0.207859 1.375359
v -0.588802 0.209244 1.375056
v -0.591841 0.198426 1.372161
v -0.586351 0.213393 1.373301
v -0.586887 0.215680 1.372076
v -0.587335 0.194315 1.370265
v -0.583065 0.198892 1.360903
v -0.584003 0.207328 1.364739
v -0.585726 0.213400 1.366897
v -0.589288 0.216899 1.370594
v -0.587110 0.209251 1.362500
v -0.588538 0.214302 1.365527
v -0.591495 0.216604 1.368931
v -0.591656 0.210235 1.361228
v -0.592764 0.214596 1.364915
v -0.590539 0.200842 1.356053
v -0.586062 0.200266 1.357287
v -0.593062 0.215802 1.367244
v -0.590279 0.215290 1.375628
v -0.592423 0.216803 1.373479
v -0.589513 0.213519 1.375827
v -0.595435 0.202346 1.372756
v -0.595497 0.208591 1.374685
v -0.597864 0.203321 1.371572
v -0.597418 0.209889 1.373868
v -0.594472 0.212969 1.376208
v -0.592920 0.212273 1.376601
v -0.590207 0.198251 1.354835
v -0.595620 0.198095 1.356477
v -0.596056 0.200108 1.357174
v -0.596683 0.209109 1.362711
v -0.599381 0.198661 1.360493
v -0.599613 0.198132 1.366256
v -0.599389 0.204242 1.369325
v -0.599405 0.206791 1.366119
v -0.598993 0.210421 1.372403
v -0.599086 0.210556 1.369067
v -0.596538 0.213195 1.365848
v -0.597220 0.214507 1.373559
v -0.595751 0.213923 1.375372
v -0.593759 0.216674 1.371636
v -0.597926 0.213843 1.370720
v -0.595245 0.215677 1.368916
v -0.612349 0.190688 1.352339
v -0.617782 0.191650 1.354085
v -0.618915 0.190122 1.351115
v -0.613687 0.188688 1.349481
v -0.608423 0.179298 1.356818
v -0.607085 0.183606 1.354720
v -0.608617 0.180872 1.351009
v -0.610475 0.175809 1.352057
v -0.612247 0.177843 1.360934
v -0.615300 0.173128 1.354917
v -0.612653 0.173500 1.347315
v -0.610213 0.179076 1.347164
v -0.617021 0.178287 1.334028
v -0.620212 0.172708 1.335215
v -0.608986 0.187621 1.353070
v -0.610312 0.185503 1.349967
v -0.626430 0.187165 1.353526
v -0.623120 0.190182 1.351365
v -0.623254 0.188919 1.354117
v -0.625203 0.185753 1.356619
v -0.620461 0.187914 1.333472
v -0.625997 0.189136 1.335429
v -0.617447 0.184065 1.333826
v -0.627189 0.180666 1.354914
v -0.624599 0.173912 1.353630
v -0.632710 0.176162 1.341537
v -0.634016 0.182114 1.341975
v -0.610982 0.184177 1.346900
v -0.618711 0.191025 1.348406
v -0.613766 0.188944 1.346869
v -0.618422 0.171821 1.349717
v -0.621277 0.175308 1.358413
v -0.616631 0.189853 1.374877
v -0.622764 0.181955 1.362316
v -0.623758 0.187221 1.359691
v -0.618703 0.193374 1.373109
v -0.624865 0.180531 1.359103
v -0.618502 0.178145 1.362762
v -0.609104 0.199925 1.365045
v -0.614483 0.199447 1.366520
v -0.605842 0.197037 1.364863
v -0.626714 0.171266 1.338011
v -0.632211 0.187876 1.339975
v -0.603541 0.191237 1.368945
v -0.603901 0.194638 1.366282
v -0.622090 0.190087 1.356902
v -0.618334 0.197049 1.370011
v -0.612624 0.187147 1.374397
v -0.607035 0.187022 1.371598
v -0.612385 0.190906 1.378828
v -0.606722 0.191545 1.376538
v -0.603259 0.195581 1.374213
v -0.603909 0.198731 1.371181
v -0.605927 0.200802 1.369283
v -0.616553 0.193252 1.378682
v -0.618275 0.196037 1.376494
v -0.617725 0.197895 1.371618
v -0.617429 0.196467 1.380998
v -0.612566 0.195981 1.383545
v -0.606639 0.211469 1.385787
v -0.605567 0.207080 1.382192
v -0.606126 0.206411 1.383105
v -0.606980 0.210408 1.387104
v -0.604296 0.200759 1.379865
v -0.605296 0.201664 1.381504
v -0.607625 0.198704 1.382874
v -0.609128 0.203784 1.386609
v -0.614878 0.201977 1.386252
v -0.615025 0.206095 1.389045
v -0.609790 0.207814 1.389987
v -0.611977 0.197845 1.384096
v -0.608318 0.212109 1.389426
v -0.607320 0.213779 1.389259
v -0.607005 0.196553 1.381724
v -0.603725 0.202895 1.375406
v -0.605492 0.208933 1.379937
v -0.606535 0.213656 1.383410
v -0.608998 0.215620 1.386521
v -0.608200 0.210341 1.377637
v -0.609002 0.214154 1.381428
v -0.611072 0.215974 1.384301
v -0.611275 0.210606 1.376555
v -0.612027 0.213804 1.380214
v -0.609693 0.203417 1.370008
v -0.606159 0.203589 1.372136
v -0.612765 0.215230 1.382912
v -0.611263 0.212499 1.391746
v -0.613870 0.214699 1.389260
v -0.610824 0.211011 1.390977
v -0.616477 0.201255 1.385640
v -0.617340 0.206581 1.389177
v -0.618678 0.201951 1.383977
v -0.619407 0.207310 1.387493
v -0.615716 0.209730 1.391299
v -0.614642 0.209247 1.391085
v -0.609628 0.201222 1.367904
v -0.614509 0.200281 1.368756
v -0.614404 0.202175 1.370321
v -0.615863 0.209812 1.377038
v -0.617760 0.199778 1.372803
v -0.618904 0.199096 1.378708
v -0.619526 0.204152 1.381649
v -0.618836 0.207178 1.379444
v -0.620009 0.208738 1.385133
v -0.618987 0.209738 1.382646
v -0.616096 0.213052 1.380404
v -0.618087 0.211852 1.386923
v -0.617587 0.210896 1.389649
v -0.615000 0.215208 1.386372
v -0.618050 0.212396 1.384516
v -0.615627 0.214848 1.383994
v -0.629838 0.189390 1.337808
v -0.628418 0.197561 1.357441
v -0.632123 0.198930 1.359286
v -0.632743 0.198186 1.358914
v -0.629453 0.197042 1.355998
v -0.626995 0.186261 1.358345
v -0.625195 0.190590 1.357251
v -0.626902 0.188472 1.354030
v -0.629000 0.184378 1.354864
v -0.631434 0.184250 1.360745
v -0.633697 0.183049 1.357951
v -0.631564 0.184475 1.351830
v -0.629111 0.188409 1.350839
v -0.638504 0.188340 1.337175
v -0.643201 0.185183 1.336818
v -0.652990 0.201006 1.342586
v -0.648829 0.204224 1.340377
v -0.645839 0.201429 1.348563
v -0.649765 0.198596 1.349313
v -0.626087 0.194470 1.356919
v -0.627169 0.193534 1.354118
v -0.641326 0.194833 1.362239
v -0.638000 0.198037 1.360371
v -0.636321 0.198136 1.361267
v -0.639527 0.195932 1.364131
v -0.643698 0.203015 1.339310
v -0.640435 0.199108 1.338203
v -0.638758 0.199297 1.342276
v -0.641224 0.201051 1.346876
v -0.636735 0.194411 1.340571
v -0.642274 0.190395 1.361969
v -0.640675 0.185040 1.359459
v -0.653451 0.189743 1.345323
v -0.652898 0.194401 1.347455
v -0.628453 0.192535 1.352620
v -0.634170 0.198465 1.357322
v -0.630637 0.196656 1.355633
v -0.636416 0.182688 1.354642
v -0.638037 0.186025 1.362367
v -0.635485 0.194565 1.371720
v -0.639145 0.191881 1.366365
v -0.638939 0.196524 1.364869
v -0.636248 0.197556 1.370298
v -0.640006 0.191386 1.364668
v -0.636001 0.187297 1.365266
v -0.626715 0.201007 1.362158
v -0.631607 0.201497 1.364594
v -0.624108 0.198843 1.361788
v -0.649098 0.185526 1.339491
v -0.623069 0.192023 1.364774
v -0.622464 0.196077 1.363021
v -0.635576 0.198666 1.361979
v -0.634963 0.200301 1.367631
v -0.632228 0.190990 1.371400
v -0.627307 0.188951 1.367784
v -0.629831 0.193796 1.374286
v -0.625025 0.192395 1.370866
v -0.621524 0.196586 1.367119
v -0.622571 0.199258 1.364456
v -0.624629 0.201338 1.363220
v -0.634003 0.196727 1.373872
v -0.635307 0.198914 1.372051
v -0.634619 0.200985 1.368611
v -0.632545 0.199264 1.376278
v -0.627815 0.199338 1.376934
v -0.623701 0.211746 1.373968
v -0.623091 0.208263 1.371650
v -0.623120 0.207713 1.372718
v -0.623144 0.211282 1.374789
v -0.621923 0.202932 1.370201
v -0.622466 0.203670 1.371837
v -0.623727 0.200677 1.373718
v -0.624072 0.205454 1.376282
v -0.628569 0.204412 1.379123
v -0.628269 0.208193 1.380772
v -0.624159 0.208670 1.378342
v -0.626685 0.200798 1.376985
v -0.623206 0.212927 1.377051
v -0.623397 0.214346 1.376996
v -0.623179 0.198286 1.373145
v -0.623177 0.204160 1.366501
v -0.624021 0.210181 1.370129
v -0.624467 0.214077 1.373500
v -0.625347 0.215716 1.376917
v -0.626073 0.210390 1.368722
v -0.626399 0.214937 1.372583
v -0.627319 0.216337 1.375894
v -0.629393 0.210299 1.368351
v -0.628924 0.214364 1.372271
v -0.629438 0.205006 1.364718
v -0.625934 0.205090 1.364916
v -0.628728 0.215572 1.375112
v -0.624988 0.213322 1.380449
v -0.627301 0.214986 1.379538
v -0.624462 0.211771 1.380355
v -0.629907 0.204147 1.379344
v -0.629723 0.208790 1.381297
v -0.632268 0.204474 1.378798
v -0.631513 0.209751 1.380550
v -0.628017 0.211839 1.381843
v -0.626786 0.210487 1.381302
v -0.628166 0.203162 1.363557
v -0.631538 0.202495 1.365265
v -0.632851 0.203893 1.366806
v -0.632890 0.209007 1.370200
v -0.635274 0.201837 1.370496
v -0.634795 0.200186 1.374114
v -0.634079 0.205580 1.377073
v -0.634806 0.207253 1.374192
v -0.632585 0.210984 1.379120
v -0.633245 0.211960 1.376334
v -0.631900 0.213301 1.373564
v -0.630342 0.214040 1.379296
v -0.629438 0.213437 1.380835
v -0.628852 0.215442 1.378237
v -0.631141 0.214287 1.377566
v -0.630200 0.215039 1.376405
v -0.654142 0.197051 1.343098
v -0.555235 0.227838 1.281190
v -0.558812 0.225544 1.285124
v -0.559760 0.236597 1.297515
v -0.560726 0.229723 1.295389
v -0.556344 0.242471 1.295473
v -0.550847 0.244797 1.286084
v -0.554249 0.245340 1.290806
v -0.560582 0.225915 1.290706
v -0.552408 0.232989 1.279076
v -0.550536 0.240189 1.280520
v -0.543694 0.226159 1.281905
v -0.540570 0.234732 1.284460
v -0.540712 0.239386 1.290455
v -0.547836 0.241410 1.295023
v -0.551657 0.240256 1.298305
v -0.551746 0.223905 1.284365
v -0.555977 0.223113 1.287684
v -0.558487 0.225505 1.293472
v -0.551227 0.218901 1.290006
v -0.545212 0.218085 1.297181
v -0.541847 0.225244 1.315905
v -0.542765 0.229022 1.309937
v -0.541876 0.226687 1.309019
v -0.540763 0.223517 1.314584
v -0.541525 0.229953 1.303985
v -0.541927 0.227678 1.304333
v -0.542524 0.224025 1.300478
v -0.541992 0.221107 1.306201
v -0.544971 0.219544 1.299923
v -0.545783 0.217005 1.303927
v -0.541353 0.218104 1.311421
v -0.539757 0.220104 1.316730
v -0.540907 0.215757 1.315756
v -0.541437 0.220839 1.319102
v -0.538980 0.223874 1.297558
v -0.544211 0.235675 1.302382
v -0.544879 0.231608 1.310346
v -0.544822 0.226913 1.316967
v -0.544430 0.221527 1.319968
v -0.548923 0.232165 1.310971
v -0.548859 0.227134 1.316151
v -0.548788 0.221864 1.318343
v -0.553289 0.230153 1.310381
v -0.551955 0.225283 1.314561
v -0.555880 0.235171 1.301720
v -0.550301 0.237911 1.302283
v -0.550706 0.221988 1.316413
v -0.542179 0.214868 1.318033
v -0.545454 0.215625 1.318658
v -0.548096 0.215469 1.302113
v -0.544925 0.213971 1.308596
v -0.547480 0.213107 1.308254
v -0.551695 0.215423 1.300723
v -0.550160 0.213065 1.308338
v -0.545281 0.212170 1.313551
v -0.543189 0.213437 1.312490
v -0.556245 0.236403 1.299739
v -0.558580 0.230702 1.297502
v -0.558613 0.230141 1.298614
v -0.556723 0.225381 1.307236
v -0.559093 0.224608 1.295723
v -0.555906 0.220679 1.292086
v -0.555011 0.216595 1.301609
v -0.557178 0.220167 1.303770
v -0.552820 0.215169 1.309070
v -0.554012 0.217806 1.309902
v -0.553922 0.221750 1.312710
v -0.550610 0.215075 1.313920
v -0.548214 0.212667 1.313879
v -0.549238 0.217480 1.317323
v -0.551973 0.217204 1.313152
v -0.551362 0.219342 1.315384
v -0.650317 0.207355 1.336457
v -0.643806 0.206207 1.335009
v -0.645800 0.211167 1.332436
v -0.646587 0.219336 1.328547
v -0.653602 0.226258 1.324936
v -0.640640 0.217684 1.325063
v -0.639984 0.209344 1.329489
v -0.637261 0.201829 1.333025
v -0.636700 0.222312 1.316780
f 2 3 1
f 1 3 4
f 5 6 8
f 8 6 7
f 9 4 10
f 10 4 3
f 12 13 11
f 11 13 9
f 14 12 16
f 16 12 15
f 18 19 17
f 17 19 20
f 22 23 21
f 21 23 24
f 26 27 25
f 25 27 28
f 30 31 29
f 29 31 32
f 33 34 36
f 36 34 35
f 37 38 40
f 40 38 39
f 41 42 6
f 6 42 43
f 6 43 7
f 7 43 44
f 45 34 46
f 46 34 33
f 48 49 47
f 47 49 50
f 52 53 51
f 51 53 54
f 56 52 55
f 55 52 51
f 58 59 57
f 57 59 60
f 61 62 4
f 4 62 1
f 64 65 63
f 63 65 66
f 68 69 67
f 67 69 70
f 72 73 71
f 71 73 74
f 76 77 75
f 75 77 78
f 53 79 54
f 54 79 80
f 82 83 81
f 81 83 84
f 85 86 52
f 52 86 53
f 57 60 87
f 87 60 88
f 89 90 43
f 43 90 44
f 43 42 89
f 89 42 91
f 40 39 92
f 92 39 93
f 94 70 64
f 64 70 69
f 13 61 9
f 9 61 4
f 25 28 69
f 69 28 95
f 96 25 68
f 68 25 69
f 98 99 97
f 97 99 100
f 101 102 104
f 104 102 103
f 106 30 105
f 105 30 29
f 51 54 107
f 107 54 108
f 54 80 108
f 108 80 109
f 111 112 110
f 110 112 113
f 115 5 114
f 114 5 116
f 115 41 5
f 5 41 6
f 36 35 111
f 111 35 117
f 35 118 117
f 117 118 119
f 34 120 35
f 35 120 118
f 34 45 120
f 120 45 121
f 125 126 124
f 124 126 127
f 128 129 14
f 14 129 130
f 33 131 46
f 46 131 132
f 133 94 63
f 63 94 64
f 134 135 137
f 137 135 136
f 139 140 138
f 138 140 141
f 77 142 78
f 78 142 143
f 144 145 20
f 20 145 146
f 148 149 147
f 147 149 72
f 151 152 150
f 150 152 153
f 82 101 83
f 83 101 104
f 101 82 155
f 155 82 154
f 156 157 58
f 58 157 59
f 158 68 147
f 147 68 67
f 159 146 15
f 15 146 16
f 68 158 96
f 96 158 160
f 129 66 130
f 130 66 65
f 162 163 161
f 161 163 164
f 166 167 165
f 165 167 168
f 170 171 169
f 169 171 172
f 174 171 173
f 173 171 170
f 176 177 175
f 175 177 178
f 180 181 179
f 179 181 24
f 182 183 21
f 21 183 184
f 81 185 82
f 82 185 154
f 186 187 188
f 188 187 144
f 158 71 160
f 160 71 189
f 190 135 157
f 157 135 59
f 169 172 139
f 139 172 140
f 147 72 158
f 158 72 71
f 192 193 191
f 191 193 194
f 167 166 49
f 49 166 195
f 196 190 50
f 50 190 157
f 197 198 200
f 200 198 199
f 21 24 182
f 182 24 181
f 146 159 20
f 20 159 17
f 182 181 81
f 81 181 185
f 201 185 180
f 180 185 181
f 202 203 83
f 83 203 84
f 205 206 204
f 204 206 85
f 207 22 184
f 184 22 21
f 179 24 208
f 208 24 23
f 208 209 179
f 179 209 205
f 209 210 205
f 205 210 206
f 212 206 211
f 211 206 210
f 179 205 180
f 180 205 204
f 213 176 88
f 88 176 214
f 86 85 212
f 212 85 206
f 193 217 218
f 217 219 218
f 218 219 220
f 219 18 220
f 220 18 17
f 19 221 20
f 20 221 144
f 222 223 225
f 225 223 224
f 175 226 176
f 176 226 214
f 227 87 214
f 214 87 88
f 220 17 228
f 228 17 159
f 134 213 60
f 60 213 88
f 138 229 151
f 151 229 152
f 193 192 210
f 210 192 211
f 230 194 218
f 218 194 193
f 231 232 228
f 228 232 230
f 233 234 91
f 91 234 89
f 235 236 93
f 93 236 92
f 230 232 234
f 234 232 237
f 47 238 48
f 48 238 239
f 240 191 235
f 235 191 236
f 5 8 116
f 116 8 241
f 242 243 189
f 189 243 160
f 244 245 98
f 98 245 99
f 156 246 47
f 47 246 238
f 76 247 77
f 77 247 248
f 250 125 249
f 249 125 124
f 252 253 251
f 251 253 254
f 111 110 36
f 36 110 255
f 256 33 255
f 255 33 36
f 257 258 154
f 154 258 155
f 63 169 133
f 133 169 139
f 66 170 63
f 63 170 169
f 173 170 129
f 129 170 66
f 129 128 173
f 173 128 259
f 128 260 259
f 259 260 261
f 213 134 262
f 262 134 137
f 263 264 186
f 186 264 187
f 112 265 113
f 113 265 266
f 11 267 268
f 234 233 230
f 230 233 194
f 153 269 70
f 70 269 67
f 175 178 165
f 165 178 141
f 150 153 94
f 94 153 70
f 271 221 270
f 270 221 207
f 269 153 272
f 272 153 152
f 121 45 109
f 109 45 108
f 47 50 156
f 156 50 157
f 57 273 58
f 58 273 274
f 145 275 260
f 260 275 261
f 276 149 143
f 143 149 78
f 148 269 75
f 75 269 272
f 207 277 270
f 270 277 278
f 195 196 49
f 49 196 50
f 59 135 60
f 60 135 134
f 83 104 202
f 202 104 279
f 149 148 78
f 78 148 75
f 247 278 248
f 248 278 277
f 183 182 84
f 84 182 81
f 48 239 281
f 281 239 282
f 227 223 283
f 283 223 222
f 223 226 224
f 224 226 168
f 281 282 224
f 224 282 225
f 165 168 175
f 175 168 226
f 264 263 138
f 138 263 229
f 14 16 128
f 128 16 260
f 220 228 218
f 218 228 230
f 87 227 284
f 284 227 283
f 260 16 145
f 145 16 146
f 244 98 258
f 258 98 155
f 58 274 156
f 156 274 246
f 107 285 51
f 51 285 55
f 243 286 160
f 160 286 96
f 234 237 89
f 89 237 90
f 46 132 107
f 107 132 285
f 253 252 249
f 249 252 250
f 286 26 96
f 96 26 25
f 106 105 287
f 287 105 288
f 272 152 289
f 289 152 229
f 138 151 139
f 139 151 133
f 183 290 161
f 161 290 162
f 291 292 277
f 277 292 293
f 151 150 133
f 133 150 94
f 262 275 177
f 177 275 187
f 144 187 145
f 145 187 275
f 273 57 284
f 284 57 87
f 174 136 190
f 190 136 135
f 111 117 112
f 112 117 38
f 117 119 38
f 38 119 123
f 112 38 265
f 265 38 37
f 287 288 254
f 254 288 251
f 228 159 231
f 231 159 15
f 223 227 226
f 226 227 214
f 147 67 148
f 148 67 269
f 224 168 281
f 281 168 167
f 199 163 200
f 200 163 162
f 45 46 108
f 108 46 107
f 281 167 48
f 48 167 49
f 161 164 291
f 291 164 292
f 38 123 39
f 293 294 277
f 277 294 248
f 284 283 296
f 296 283 295
f 284 296 273
f 273 296 297
f 274 273 298
f 298 273 297
f 246 274 299
f 299 274 298
f 283 222 295
f 295 222 300
f 222 225 300
f 300 225 301
f 301 225 302
f 302 225 282
f 303 304 300
f 300 304 295
f 306 307 305
f 305 307 308
f 309 310 308
f 308 310 305
f 308 307 312
f 312 307 311
f 313 314 312
f 312 314 315
f 311 316 312
f 312 316 313
f 317 304 311
f 311 304 316
f 315 309 312
f 312 309 308
f 318 319 321
f 321 319 320
f 319 318 309
f 309 318 310
f 311 307 317
f 317 307 306
f 306 297 317
f 317 297 296
f 306 322 297
f 297 322 298
f 305 323 306
f 306 323 322
f 323 305 324
f 324 305 310
f 304 317 295
f 295 317 296
f 318 325 310
f 310 325 324
f 323 324 326
f 326 324 327
f 324 325 327
f 327 325 328
f 326 327 329
f 329 327 330
f 329 331 326
f 326 331 332
f 333 330 328
f 328 330 327
f 323 326 322
f 322 326 332
f 322 332 298
f 298 332 299
f 325 318 334
f 334 318 321
f 313 316 335
f 335 316 304
f 335 336 313
f 313 336 314
f 304 303 335
f 335 303 337
f 336 335 338
f 338 335 337
f 336 339 314
f 314 339 340
f 246 299 238
f 238 299 341
f 239 342 282
f 282 342 302
f 342 239 341
f 341 239 238
f 341 331 342
f 342 331 343
f 331 329 343
f 343 329 344
f 342 343 302
f 302 343 345
f 341 299 331
f 331 299 332
f 346 301 345
f 345 301 302
f 346 303 301
f 301 303 300
f 347 337 346
f 346 337 303
f 347 346 348
f 348 346 345
f 349 347 350
f 350 347 348
f 343 344 345
f 345 344 348
f 344 351 348
f 348 351 350
f 337 347 338
f 338 347 349
f 353 338 352
f 352 338 349
f 352 355 354
f 354 355 356
f 352 349 355
f 355 349 350
f 352 354 353
f 353 354 334
f 353 334 339
f 339 334 321
f 339 336 353
f 353 336 338
f 329 330 344
f 344 330 351
f 356 351 333
f 333 351 330
f 356 355 351
f 351 355 350
f 354 356 328
f 328 356 333
f 328 325 354
f 354 325 334
f 309 315 319
f 319 315 320
f 320 340 321
f 321 340 339
f 320 315 340
f 340 315 314
f 137 136 261
f 261 136 259
f 140 166 141
f 141 166 165
f 172 171 195
f 195 171 196
f 171 174 196
f 196 174 190
f 178 177 264
f 264 177 187
f 172 195 140
f 140 195 166
f 137 261 262
f 262 261 275
f 178 264 141
f 141 264 138
f 262 177 213
f 213 177 176
f 136 174 259
f 259 174 173
f 358 359 357
f 357 359 360
f 362 363 361
f 361 363 364
f 361 364 365
f 365 364 366
f 367 368 370
f 370 368 369
f 76 371 247
f 247 371 372
f 373 374 362
f 362 374 363
f 376 377 375
f 375 377 378
f 289 229 380
f 380 229 379
f 381 379 263
f 263 379 229
f 383 384 382
f 382 384 385
f 386 368 374
f 374 368 363
f 76 289 371
f 371 289 380
f 377 376 359
f 359 376 387
f 388 386 360
f 360 386 374
f 389 383 366
f 366 383 390
f 392 393 391
f 391 393 394
f 383 382 390
f 390 382 395
f 396 365 390
f 390 365 366
f 389 366 367
f 367 366 364
f 357 397 358
f 358 397 398
f 373 399 357
f 357 399 397
f 389 367 400
f 400 367 370
f 382 385 375
f 375 385 372
f 357 360 373
f 373 360 374
f 361 401 362
f 362 401 402
f 387 388 359
f 359 388 360
f 363 368 364
f 364 368 367
f 358 398 403
f 403 398 404
f 396 392 405
f 405 392 391
f 392 395 393
f 393 395 378
f 393 403 394
f 394 403 404
f 375 378 382
f 382 378 395
f 365 396 406
f 406 396 405
f 362 402 373
f 373 402 399
f 271 270 400
f 400 270 384
f 401 361 406
f 406 361 365
f 381 369 386
f 386 369 368
f 392 396 395
f 395 396 390
f 393 378 403
f 403 378 377
f 403 377 358
f 358 377 359
f 406 405 408
f 408 405 407
f 406 408 401
f 401 408 409
f 401 409 402
f 402 409 410
f 402 410 399
f 399 410 411
f 405 391 407
f 407 391 412
f 391 394 412
f 412 394 413
f 394 404 413
f 413 404 414
f 415 416 412
f 412 416 407
f 418 419 417
f 417 419 420
f 421 422 418
f 418 422 419
f 419 422 424
f 424 422 423
f 425 426 424
f 424 426 427
f 423 428 424
f 424 428 425
f 427 420 424
f 424 420 419
f 420 429 417
f 417 429 430
f 423 422 431
f 431 422 421
f 421 409 431
f 431 409 408
f 421 432 409
f 409 432 410
f 418 433 421
f 421 433 432
f 434 433 417
f 417 433 418
f 431 416 423
f 423 416 428
f 416 431 407
f 407 431 408
f 435 434 430
f 430 434 417
f 433 434 436
f 436 434 437
f 434 435 437
f 437 435 438
f 436 437 439
f 439 437 440
f 439 441 436
f 436 441 442
f 438 443 437
f 437 443 440
f 436 442 433
f 433 442 432
f 432 442 410
f 410 442 411
f 435 430 445
f 445 430 444
f 430 429 444
f 444 429 446
f 425 428 447
f 447 428 416
f 426 425 448
f 448 425 447
f 416 415 447
f 447 415 449
f 447 449 448
f 448 449 450
f 451 452 448
f 448 452 426
f 446 452 444
f 444 452 451
f 399 411 397
f 397 411 453
f 398 454 404
f 404 454 414
f 454 398 453
f 453 398 397
f 453 441 454
f 454 441 455
f 441 439 455
f 455 439 456
f 454 455 414
f 414 455 457
f 441 453 442
f 442 453 411
f 458 413 457
f 457 413 414
f 458 415 413
f 413 415 412
f 458 459 415
f 415 459 449
f 459 458 460
f 460 458 457
f 461 459 462
f 462 459 460
f 455 456 457
f 457 456 460
f 456 463 460
f 460 463 462
f 459 461 449
f 449 461 450
f 465 450 464
f 464 450 461
f 464 467 466
f 466 467 468
f 464 461 467
f 467 461 462
f 464 466 465
f 465 466 445
f 465 445 451
f 451 445 444
f 451 448 465
f 465 448 450
f 439 440 456
f 456 440 463
f 468 463 443
f 443 463 440
f 468 467 463
f 463 467 462
f 466 468 438
f 438 468 443
f 438 435 466
f 466 435 445
f 420 427 429
f 429 427 446
f 446 427 452
f 452 427 426
f 370 369 188
f 188 369 186
f 371 376 372
f 372 376 375
f 380 379 387
f 387 379 388
f 379 381 388
f 388 381 386
f 385 384 278
f 278 384 270
f 380 387 371
f 371 387 376
f 400 370 271
f 271 370 188
f 385 278 372
f 372 278 247
f 400 384 389
f 389 384 383
f 369 381 186
f 186 381 263
f 221 271 144
f 144 271 188
f 221 19 207
f 207 19 22
f 19 18 22
f 22 18 23
f 18 219 23
f 23 219 208
f 469 470 472
f 472 470 471
f 474 475 473
f 473 475 476
f 473 476 477
f 477 476 478
f 480 481 479
f 479 481 482
f 483 484 474
f 474 484 475
f 486 487 485
f 485 487 488
f 489 490 77
f 77 490 142
f 491 489 248
f 248 489 77
f 493 494 492
f 492 494 495
f 496 480 484
f 484 480 475
f 486 497 487
f 487 497 471
f 498 496 472
f 472 496 484
f 499 493 478
f 478 493 500
f 501 502 504
f 504 502 503
f 493 492 500
f 500 492 505
f 506 477 500
f 500 477 478
f 499 478 479
f 479 478 476
f 469 507 470
f 470 507 508
f 483 509 469
f 469 509 507
f 479 482 499
f 499 482 510
f 492 495 485
f 485 495 511
f 483 469 484
f 484 469 472
f 473 512 474
f 474 512 513
f 497 498 471
f 471 498 472
f 475 480 476
f 476 480 479
f 470 508 514
f 514 508 515
f 506 502 516
f 516 502 501
f 503 502 488
f 488 502 505
f 514 515 503
f 503 515 504
f 485 488 492
f 492 488 505
f 477 506 517
f 517 506 516
f 474 513 483
f 483 513 509
f 510 292 494
f 494 292 164
f 512 473 517
f 517 473 477
f 491 481 496
f 496 481 480
f 502 506 505
f 505 506 500
f 503 488 514
f 514 488 487
f 514 487 470
f 470 487 471
f 517 516 519
f 519 516 518
f 517 519 512
f 512 519 520
f 512 520 513
f 513 520 521
f 513 521 509
f 509 521 522
f 516 501 518
f 518 501 523
f 501 504 523
f 523 504 524
f 524 504 525
f 525 504 515
f 526 527 523
f 523 527 518
f 529 530 528
f 528 530 531
f 532 533 529
f 529 533 530
f 530 533 535
f 535 533 534
f 536 537 535
f 535 537 538
f 534 539 535
f 535 539 536
f 538 531 535
f 535 531 530
f 540 541 531
f 531 541 528
f 533 532 534
f 534 532 542
f 532 520 542
f 542 520 519
f 532 543 520
f 520 543 521
f 529 544 532
f 532 544 543
f 544 529 545
f 545 529 528
f 534 542 539
f 539 542 527
f 527 542 518
f 518 542 519
f 541 546 528
f 528 546 545
f 547 544 548
f 548 544 545
f 546 549 545
f 545 549 548
f 550 547 551
f 551 547 548
f 547 550 553
f 553 550 552
f 549 554 548
f 548 554 551
f 544 547 543
f 543 547 553
f 543 553 521
f 521 553 522
f 546 541 556
f 556 541 555
f 541 540 555
f 555 540 557
f 536 539 558
f 558 539 527
f 537 536 559
f 559 536 558
f 527 526 558
f 558 526 560
f 559 558 561
f 561 558 560
f 559 562 537
f 537 562 563
f 557 563 555
f 555 563 562
f 509 522 507
f 507 522 564
f 508 565 515
f 515 565 525
f 565 508 564
f 564 508 507
f 564 552 565
f 565 552 566
f 552 550 566
f 566 550 567
f 565 566 525
f 525 566 568
f 564 522 552
f 552 522 553
f 569 524 568
f 568 524 525
f 569 526 524
f 524 526 523
f 570 560 569
f 569 560 526
f 570 569 571
f 571 569 568
f 572 570 573
f 573 570 571
f 566 567 568
f 568 567 571
f 567 574 571
f 571 574 573
f 570 572 560
f 560 572 561
f 576 561 575
f 575 561 572
f 575 578 577
f 577 578 579
f 575 572 578
f 578 572 573
f 575 577 576
f 576 577 556
f 576 556 562
f 562 556 555
f 562 559 576
f 576 559 561
f 550 551 567
f 567 551 574
f 579 574 554
f 554 574 551
f 579 578 574
f 574 578 573
f 579 554 577
f 577 554 549
f 549 546 577
f 577 546 556
f 531 538 540
f 540 538 557
f 557 538 563
f 563 538 537
f 481 294 482
f 482 294 293
f 580 486 511
f 511 486 485
f 490 489 497
f 497 489 498
f 489 491 498
f 498 491 496
f 163 495 164
f 164 495 494
f 580 490 486
f 486 490 497
f 482 293 510
f 510 293 292
f 495 163 511
f 511 163 199
f 494 493 510
f 510 493 499
f 481 491 294
f 294 491 248
f 582 583 581
f 581 583 584
f 586 587 585
f 585 587 588
f 585 588 589
f 589 588 590
f 592 593 591
f 591 593 594
f 595 596 598
f 598 596 597
f 599 600 586
f 586 600 587
f 601 602 604
f 604 602 603
f 605 606 608
f 608 606 607
f 609 607 200
f 200 607 606
f 610 611 613
f 613 611 612
f 600 614 587
f 587 614 592
f 596 605 597
f 597 605 608
f 602 615 603
f 603 615 583
f 616 614 584
f 584 614 600
f 611 618 617
f 617 618 590
f 620 621 619
f 619 621 622
f 610 623 611
f 611 623 618
f 624 589 618
f 618 589 590
f 617 590 591
f 591 590 588
f 581 625 582
f 582 625 626
f 599 627 581
f 581 627 625
f 591 594 617
f 617 594 628
f 601 610 598
f 598 610 613
f 581 584 599
f 599 584 600
f 585 629 586
f 586 629 630
f 615 616 583
f 583 616 584
f 587 592 588
f 588 592 591
f 582 626 631
f 631 626 632
f 624 620 633
f 633 620 619
f 621 620 604
f 604 620 623
f 631 632 621
f 621 632 622
f 610 601 623
f 623 601 604
f 589 624 634
f 634 624 633
f 586 630 599
f 599 630 627
f 203 202 628
f 628 202 612
f 629 585 634
f 634 585 589
f 609 593 614
f 614 593 592
f 620 624 623
f 623 624 618
f 631 621 603
f 603 621 604
f 582 631 583
f 583 631 603
f 634 633 636
f 636 633 635
f 634 636 629
f 629 636 637
f 629 637 630
f 630 637 638
f 630 638 627
f 627 638 639
f 633 619 635
f 635 619 640
f 619 622 640
f 640 622 641
f 641 622 642
f 642 622 632
f 644 635 643
f 643 635 640
f 645 646 648
f 648 646 647
f 649 650 646
f 646 650 647
f 647 650 652
f 652 650 651
f 652 653 655
f 655 653 654
f 651 656 652
f 652 656 653
f 655 648 652
f 652 648 647
f 648 657 645
f 645 657 658
f 650 649 651
f 651 649 659
f 649 637 659
f 659 637 636
f 649 660 637
f 637 660 638
f 661 660 646
f 646 660 649
f 662 661 645
f 645 661 646
f 651 659 656
f 656 659 644
f 644 659 635
f 635 659 636
f 663 662 658
f 658 662 645
f 664 661 665
f 665 661 662
f 663 666 662
f 662 666 665
f 667 664 668
f 668 664 665
f 664 667 670
f 670 667 669
f 666 671 665
f 665 671 668
f 661 664 660
f 660 664 670
f 660 670 638
f 638 670 639
f 658 672 663
f 663 672 673
f 658 657 672
f 672 657 674
f 653 656 675
f 675 656 644
f 653 675 654
f 654 675 676
f 675 644 677
f 677 644 643
f 676 675 678
f 678 675 677
f 679 680 676
f 676 680 654
f 674 680 672
f 672 680 679
f 627 639 625
f 625 639 681
f 626 682 632
f 632 682 642
f 681 682 625
f 625 682 626
f 669 683 681
f 681 683 682
f 667 684 669
f 669 684 683
f 682 683 642
f 642 683 685
f 681 639 669
f 669 639 670
f 686 641 685
f 685 641 642
f 641 686 640
f 640 686 643
f 686 687 643
f 643 687 677
f 687 686 688
f 688 686 685
f 689 687 690
f 690 687 688
f 683 684 685
f 685 684 688
f 684 691 688
f 688 691 690
f 687 689 677
f 677 689 678
f 693 678 692
f 692 678 689
f 692 695 694
f 694 695 696
f 692 689 695
f 695 689 690
f 692 694 693
f 693 694 673
f 693 673 679
f 679 673 672
f 679 676 693
f 693 676 678
f 684 667 691
f 691 667 668
f 696 691 671
f 671 691 668
f 696 695 691
f 691 695 690
f 694 696 666
f 666 696 671
f 666 663 694
f 694 663 673
f 648 655 657
f 657 655 674
f 674 655 680
f 680 655 654
f 593 162 594
f 594 162 290
f 598 597 601
f 601 597 602
f 615 608 616
f 616 608 607
f 607 609 616
f 616 609 614
f 697 595 613
f 613 595 598
f 597 608 602
f 602 608 615
f 594 290 628
f 628 290 203
f 628 612 617
f 617 612 611
f 593 609 162
f 162 609 200
f 105 29 698
f 698 29 699
f 268 126 701
f 701 126 700
f 126 125 700
f 700 125 702
f 252 703 250
f 250 703 704
f 32 268 705
f 705 268 701
f 288 105 706
f 706 105 698
f 29 32 699
f 699 32 705
f 707 251 706
f 706 251 288
f 250 704 125
f 125 704 702
f 703 252 707
f 707 252 251
f 706 708 707
f 707 708 709
f 707 709 703
f 703 709 710
f 703 710 704
f 704 710 711
f 704 711 702
f 702 711 712
f 706 698 708
f 708 698 713
f 698 699 713
f 713 699 714
f 699 705 714
f 714 705 715
f 717 708 716
f 716 708 713
f 719 720 718
f 718 720 721
f 722 723 719
f 719 723 720
f 724 725 723
f 723 725 720
f 724 726 725
f 725 726 727
f 728 721 725
f 725 721 720
f 721 728 729
f 729 728 730
f 729 731 721
f 721 731 718
f 724 723 732
f 732 723 722
f 722 710 732
f 732 710 709
f 722 733 710
f 710 733 711
f 719 734 722
f 722 734 733
f 734 719 735
f 735 719 718
f 724 732 726
f 726 732 717
f 717 732 708
f 708 732 709
f 731 736 718
f 718 736 735
f 737 734 738
f 738 734 735
f 736 739 735
f 735 739 738
f 740 737 741
f 741 737 738
f 737 740 743
f 743 740 742
f 739 744 738
f 738 744 741
f 734 737 733
f 733 737 743
f 733 743 711
f 711 743 712
f 736 731 746
f 746 731 745
f 731 729 745
f 745 729 730
f 727 726 747
f 747 726 717
f 748 727 749
f 749 727 747
f 747 717 750
f 750 717 716
f 749 747 751
f 751 747 750
f 749 752 748
f 748 752 753
f 730 753 745
f 745 753 752
f 728 725 748
f 748 725 727
f 730 728 753
f 753 728 748
f 700 702 754
f 754 702 712
f 705 701 715
f 715 701 755
f 754 755 700
f 700 755 701
f 742 756 754
f 754 756 755
f 740 757 742
f 742 757 756
f 755 756 715
f 715 756 758
f 754 712 742
f 742 712 743
f 759 714 758
f 758 714 715
f 714 759 713
f 713 759 716
f 759 760 716
f 716 760 750
f 760 759 761
f 761 759 758
f 762 760 763
f 763 760 761
f 756 757 758
f 758 757 761
f 757 764 761
f 761 764 763
f 760 762 750
f 750 762 751
f 766 751 765
f 765 751 762
f 767 765 769
f 769 765 768
f 765 762 768
f 768 762 763
f 765 767 766
f 766 767 746
f 766 746 752
f 752 746 745
f 752 749 766
f 766 749 751
f 757 740 764
f 764 740 741
f 769 764 744
f 744 764 741
f 769 768 764
f 764 768 763
f 767 769 739
f 739 769 744
f 739 736 767
f 767 736 746
f 219 217 208
f 208 217 209
f 209 217 210
f 210 217 193
f 198 580 199
f 199 580 511
f 76 75 289
f 289 75 272
f 277 207 291
f 291 207 184
f 290 183 203
f 203 183 84
f 490 580 142
f 142 580 198
f 142 198 143
f 143 198 197
f 149 276 72
f 72 276 73
f 104 103 279
f 279 103 770
f 770 596 279
f 279 596 595
f 605 596 771
f 771 596 770
f 771 770 772
f 772 770 103
f 772 103 773
f 773 103 102
f 155 774 101
f 101 774 102
f 773 102 97
f 97 102 774
f 775 773 100
f 100 773 97
f 773 775 772
f 772 775 776
f 772 776 771
f 771 776 777
f 200 606 197
f 197 606 777
f 189 71 778
f 778 71 74
f 97 774 98
f 98 774 155
f 183 161 184
f 184 161 291
f 777 276 197
f 197 276 143
f 777 606 771
f 771 606 605
f 613 612 697
f 697 612 202
f 595 697 279
f 279 697 202
f 73 276 776
f 776 276 777
f 776 775 73
f 73 775 74
f 100 778 775
f 775 778 74
f 778 100 189
f 189 100 99
f 245 242 99
f 99 242 189
f 131 33 256
f 28 1 95
f 95 1 62
f 27 2 28
f 28 2 1
f 265 115 266
f 266 115 114
f 95 62 69
f 69 62 64
f 62 61 64
f 64 61 65
f 61 13 65
f 65 13 130
f 13 12 130
f 130 12 14
f 31 11 32
f 32 11 268
f 15 12 31
f 31 12 11
f 31 30 15
f 15 30 231
f 30 106 231
f 231 106 232
f 287 237 106
f 106 237 232
f 254 90 287
f 287 90 237
f 253 44 254
f 254 44 90
f 253 249 44
f 44 249 7
f 267 127 268
f 268 127 126
f 10 3 241
f 241 3 116
f 3 2 116
f 116 2 114
f 2 27 114
f 114 27 266
f 27 26 266
f 266 26 113
f 26 286 113
f 113 286 110
f 286 243 110
f 110 243 255
f 243 242 255
f 255 242 256
f 242 245 256
f 256 245 131
f 245 244 131
f 131 244 132
f 265 37 115
f 115 37 41
f 41 37 42
f 42 37 40
f 92 91 40
f 40 91 42
f 236 233 92
f 92 233 91
f 191 194 236
f 236 194 233
f 258 285 244
f 244 285 132
f 257 55 258
f 258 55 285
f 257 154 201
f 201 154 185
f 56 201 204
f 204 201 180
f 55 257 56
f 56 257 201
f 204 85 56
f 56 85 52
f 86 122 53
f 53 122 79
f 212 215 86
f 86 215 122
f 211 216 212
f 212 216 215
f 192 280 211
f 211 280 216
f 191 240 192
f 192 240 280
f 249 124 7
f 7 124 8
f 124 127 8
f 8 127 241
f 127 267 241
f 241 267 10
f 10 267 9
f 9 267 11
o hand_right
v 0.707427 0.112897 1.342945
v 0.710568 0.121358 1.338503
v 0.699255 0.124048 1.340115
v 0.696582 0.113992 1.344228
v 0.710191 0.142655 1.330211
v 0.708705 0.147801 1.318772
v 0.694060 0.148866 1.324076
v 0.697991 0.145401 1.333206
v 0.687763 0.114244 1.343252
v 0.691251 0.126024 1.340907
v 0.683808 0.114595 1.338173
v 0.683982 0.097842 1.338181
v 0.687027 0.101663 1.344022
v 0.684543 0.087863 1.341244
v 0.688555 0.094580 1.328123
v 0.689584 0.079697 1.337842
v 0.719301 0.082802 1.328564
v 0.732577 0.083164 1.332485
v 0.726691 0.071084 1.345094
v 0.713550 0.072823 1.340384
v 0.745778 0.079324 1.349432
v 0.735007 0.074339 1.347607
v 0.741290 0.085119 1.334390
v 0.750457 0.089255 1.336742
v 0.725595 0.113993 1.342458
v 0.730135 0.121291 1.337287
v 0.723208 0.119960 1.337154
v 0.719435 0.113471 1.341751
v 0.675956 0.125272 1.329567
v 0.682824 0.115264 1.321900
v 0.682379 0.112408 1.329804
v 0.677881 0.126213 1.334632
v 0.748252 0.143716 1.328784
v 0.752996 0.147082 1.316470
v 0.747806 0.146622 1.313718
v 0.744712 0.142951 1.325570
v 0.726469 0.146164 1.311175
v 0.732989 0.145825 1.304072
v 0.729048 0.143279 1.290687
v 0.721832 0.140768 1.295868
v 0.717886 0.146782 1.316132
v 0.713797 0.143529 1.302852
v 0.705003 0.144973 1.307772
v 0.689837 0.147424 1.315489
v 0.765060 0.145406 1.320750
v 0.763273 0.143227 1.330613
v 0.672078 0.092456 1.380944
v 0.677834 0.093418 1.382716
v 0.678616 0.092419 1.379876
v 0.672980 0.091246 1.378469
v 0.776791 0.128888 1.322860
v 0.777884 0.120463 1.317381
v 0.780923 0.125908 1.313538
v 0.778334 0.134078 1.317510
v 0.774712 0.122044 1.329912
v 0.773097 0.113356 1.322855
v 0.666829 0.083816 1.388849
v 0.665954 0.087546 1.385210
v 0.666852 0.083463 1.382220
v 0.668367 0.078967 1.385502
v 0.694166 0.104500 1.347350
v 0.704084 0.106123 1.348422
v 0.692292 0.091311 1.357104
v 0.697613 0.095762 1.354285
v 0.691525 0.095949 1.349936
v 0.688044 0.091123 1.352368
v 0.721031 0.098521 1.358135
v 0.725043 0.106079 1.350261
v 0.718426 0.104794 1.349358
v 0.712478 0.097174 1.357673
v 0.737743 0.109625 1.355667
v 0.732926 0.101509 1.362628
v 0.740823 0.104419 1.364714
v 0.742519 0.110476 1.360059
v 0.722311 0.087131 1.371961
v 0.720424 0.083406 1.373760
v 0.723704 0.086166 1.376115
v 0.725897 0.088661 1.372826
v 0.783814 0.130481 1.308885
v 0.779141 0.138659 1.311835
v 0.764392 0.089387 1.356331
v 0.769404 0.099448 1.358562
v 0.767133 0.090970 1.369797
v 0.762453 0.081204 1.364323
v 0.772983 0.113251 1.311700
v 0.778229 0.117872 1.308065
v 0.671214 0.081019 1.392702
v 0.672719 0.076559 1.389854
v 0.704377 0.134515 1.300109
v 0.687062 0.139613 1.309858
v 0.716297 0.132554 1.293775
v 0.724333 0.131940 1.288862
v 0.729703 0.134096 1.283071
v 0.701901 0.093277 1.359086
v 0.713520 0.107766 1.346598
v 0.730654 0.114952 1.343826
v 0.756698 0.120855 1.359840
v 0.759613 0.128156 1.352902
v 0.749089 0.125700 1.351989
v 0.748886 0.119333 1.357937
v 0.767975 0.107754 1.364010
v 0.761197 0.111751 1.366672
v 0.759691 0.105249 1.372350
v 0.766016 0.099943 1.371893
v 0.672605 0.128701 1.323302
v 0.683355 0.119354 1.314921
v 0.772056 0.137459 1.327045
v 0.771870 0.141470 1.320291
v 0.774022 0.144501 1.312598
v 0.738007 0.132698 1.333150
v 0.742223 0.142425 1.323479
v 0.737930 0.141732 1.322768
v 0.734942 0.130753 1.332344
v 0.716631 0.130721 1.335361
v 0.722569 0.140436 1.327463
v 0.705342 0.134053 1.338117
v 0.741619 0.146873 1.308734
v 0.750977 0.151662 1.305140
v 0.743716 0.150826 1.300028
v 0.760008 0.150747 1.309002
v 0.768202 0.148481 1.311858
v 0.783830 0.120543 1.302178
v 0.737244 0.148249 1.295171
v 0.689013 0.146069 1.334898
v 0.681533 0.146829 1.337245
v 0.682727 0.139726 1.340263
v 0.689447 0.138231 1.338757
v 0.683620 0.080502 1.347199
v 0.684047 0.087467 1.349735
v 0.685766 0.094006 1.344626
v 0.749289 0.137773 1.338660
v 0.761997 0.137714 1.339924
v 0.695965 0.089305 1.361912
v 0.671128 0.076039 1.380239
v 0.669137 0.080887 1.376869
v 0.678557 0.078798 1.359001
v 0.680474 0.072710 1.362271
v 0.697163 0.082767 1.367971
v 0.694573 0.088369 1.364214
v 0.694079 0.087713 1.365835
v 0.696493 0.084339 1.371150
v 0.732582 0.089367 1.377502
v 0.734027 0.091974 1.374146
v 0.707809 0.067142 1.354714
v 0.696676 0.065922 1.346074
v 0.700674 0.074522 1.336021
v 0.728078 0.100414 1.359920
v 0.725240 0.093728 1.367134
v 0.729188 0.094576 1.368308
v 0.703618 0.090624 1.362514
v 0.699918 0.086436 1.365699
v 0.704765 0.086251 1.365809
v 0.708803 0.091269 1.363139
v 0.772159 0.107255 1.347758
v 0.770721 0.116740 1.354590
v 0.667899 0.090456 1.382146
v 0.668617 0.087947 1.379317
v 0.731842 0.107818 1.352183
v 0.706884 0.085434 1.326720
v 0.735739 0.116288 1.345687
v 0.744500 0.076433 1.371698
v 0.745037 0.083252 1.377312
v 0.741928 0.083430 1.381382
v 0.740232 0.077888 1.379640
v 0.688773 0.085695 1.384016
v 0.686172 0.090358 1.381301
v 0.683741 0.090740 1.383237
v 0.686152 0.086678 1.387063
v 0.690759 0.090236 1.360054
v 0.686110 0.089483 1.356024
v 0.684537 0.089595 1.360001
v 0.689664 0.089518 1.363457
v 0.682470 0.085006 1.353617
v 0.680325 0.084949 1.358022
v 0.687543 0.079541 1.386300
v 0.681842 0.074350 1.386719
v 0.691918 0.070802 1.370856
v 0.695142 0.077321 1.374081
v 0.755415 0.097052 1.324289
v 0.764567 0.101445 1.329077
v 0.760072 0.093514 1.341543
v 0.756582 0.084285 1.353910
v 0.751505 0.076277 1.365211
v 0.742089 0.070438 1.360049
v 0.766681 0.098035 1.343978
v 0.703133 0.075092 1.364345
v 0.698872 0.068906 1.360923
v 0.704486 0.070147 1.361490
v 0.741627 0.118753 1.349658
v 0.670604 0.086083 1.374761
v 0.737847 0.114597 1.287662
v 0.749655 0.110413 1.291690
v 0.744029 0.106674 1.297421
v 0.730776 0.111945 1.293425
v 0.680667 0.092556 1.377606
v 0.674828 0.091105 1.374680
v 0.739537 0.093322 1.377712
v 0.737327 0.090171 1.380653
v 0.739974 0.089130 1.382371
v 0.743324 0.092881 1.381956
v 0.769120 0.105109 1.330670
v 0.762250 0.089696 1.379033
v 0.758287 0.080238 1.372970
v 0.768156 0.107961 1.318095
v 0.760563 0.103687 1.313547
v 0.764832 0.108443 1.306087
v 0.727489 0.068005 1.361644
v 0.747591 0.093513 1.322721
v 0.753470 0.101308 1.311736
v 0.758245 0.106887 1.302737
v 0.762492 0.110383 1.296378
v 0.769228 0.111846 1.300756
v 0.675962 0.074010 1.384410
v 0.679266 0.077336 1.392524
v 0.775055 0.114379 1.294201
v 0.766963 0.113197 1.289770
v 0.744745 0.099812 1.309140
v 0.733690 0.099447 1.306536
v 0.739299 0.092537 1.319994
v 0.727836 0.091402 1.318135
v 0.720691 0.062062 1.354732
v 0.679663 0.092793 1.401213
v 0.682612 0.084743 1.394780
v 0.684682 0.088403 1.390586
v 0.682652 0.094688 1.398622
v 0.684855 0.081875 1.390478
v 0.677840 0.081697 1.395464
v 0.712957 0.095492 1.315677
v 0.702625 0.082182 1.367337
v 0.717769 0.106962 1.303468
v 0.694420 0.101083 1.316808
v 0.698399 0.111532 1.308579
v 0.721353 0.119697 1.291347
v 0.706757 0.121415 1.298010
v 0.734257 0.124760 1.281186
v 0.728833 0.121133 1.286782
v 0.691662 0.126393 1.305241
v 0.674133 0.099741 1.386998
v 0.679848 0.099021 1.388934
v 0.742744 0.117740 1.281665
v 0.696190 0.136062 1.338770
v 0.742716 0.127093 1.342796
v 0.738185 0.124630 1.340167
v 0.760741 0.132147 1.348017
v 0.749051 0.130960 1.346028
v 0.668884 0.098315 1.387993
v 0.721235 0.081347 1.375197
v 0.722459 0.083096 1.375091
v 0.685698 0.150329 1.327976
v 0.679314 0.150624 1.330948
v 0.671431 0.143974 1.322521
v 0.674475 0.149616 1.325936
v 0.681423 0.149017 1.320498
v 0.678325 0.143064 1.316394
v 0.740320 0.134037 1.334316
v 0.743620 0.135139 1.336371
v 0.773806 0.115319 1.338484
v 0.771792 0.124142 1.345798
v 0.682415 0.078553 1.352900
v 0.687940 0.072328 1.347236
v 0.685623 0.072082 1.354411
v 0.686487 0.069285 1.364891
v 0.701749 0.079479 1.367249
v 0.698866 0.076749 1.367712
v 0.730483 0.140597 1.325511
v 0.727408 0.129240 1.333138
v 0.686518 0.128688 1.339583
v 0.681238 0.131403 1.339593
v 0.716756 0.092873 1.363670
v 0.720448 0.070254 1.370770
v 0.714486 0.066125 1.364532
v 0.713172 0.086467 1.368397
v 0.666227 0.094429 1.395007
v 0.666573 0.096859 1.390681
v 0.691313 0.068057 1.356455
v 0.736671 0.097783 1.370834
v 0.726213 0.072113 1.369870
v 0.722247 0.075312 1.374993
v 0.763036 0.097867 1.376988
v 0.754352 0.114397 1.285194
v 0.683290 0.092256 1.386438
v 0.683577 0.097168 1.392318
v 0.675675 0.091075 1.401466
v 0.669956 0.090885 1.398830
v 0.770978 0.131114 1.337183
v 0.734869 0.122767 1.338849
v 0.679709 0.131990 1.312899
v 0.671298 0.136282 1.321105
v 0.711784 0.082568 1.369398
v 0.750123 0.079759 1.373935
v 0.737217 0.071038 1.369606
v 0.732780 0.073025 1.378617
v 0.725327 0.074556 1.377925
v 0.721272 0.080070 1.377650
v 0.675789 0.096715 1.404116
v 0.670012 0.096771 1.401646
v 0.666646 0.099916 1.397218
v 0.667026 0.101289 1.392705
v 0.669934 0.101480 1.389482
v 0.680114 0.098302 1.403439
v 0.682713 0.099576 1.400548
v 0.683602 0.099556 1.394201
v 0.681359 0.103060 1.403553
v 0.676892 0.105323 1.405609
v 0.669762 0.114120 1.396893
v 0.668312 0.108542 1.398863
v 0.669722 0.110484 1.400436
v 0.671174 0.115293 1.399592
v 0.673142 0.120129 1.400200
v 0.671669 0.119590 1.397032
v 0.671829 0.107201 1.403226
v 0.674228 0.113701 1.402755
v 0.678069 0.112630 1.404252
v 0.679294 0.118140 1.404349
v 0.675864 0.119296 1.403219
v 0.676070 0.108341 1.404820
v 0.670897 0.104674 1.403640
v 0.674524 0.123027 1.398410
v 0.674558 0.122654 1.400902
v 0.677159 0.122183 1.402945
v 0.678610 0.124221 1.401162
v 0.668138 0.106086 1.393413
v 0.670242 0.114130 1.394295
v 0.673648 0.119234 1.394591
v 0.676316 0.122602 1.396265
v 0.673778 0.114574 1.392154
v 0.676220 0.118496 1.393292
v 0.678915 0.121103 1.394806
v 0.678076 0.114344 1.391477
v 0.679384 0.117792 1.393078
v 0.674941 0.103961 1.389385
v 0.670736 0.103987 1.389936
v 0.680507 0.119959 1.393853
v 0.680249 0.124010 1.399703
v 0.680908 0.110209 1.404285
v 0.682195 0.117196 1.403322
v 0.682930 0.109756 1.402959
v 0.684315 0.116605 1.402463
v 0.682197 0.121711 1.403407
v 0.679767 0.121042 1.403855
v 0.675016 0.101049 1.388398
v 0.680803 0.100165 1.390558
v 0.680834 0.102516 1.391422
v 0.682585 0.112944 1.392911
v 0.683797 0.102344 1.394829
v 0.683756 0.103914 1.400427
v 0.684699 0.110673 1.400599
v 0.685200 0.111445 1.397186
v 0.685220 0.116063 1.400099
v 0.684861 0.116034 1.397544
v 0.682838 0.117030 1.394308
v 0.684436 0.119977 1.399197
v 0.683606 0.121106 1.401811
v 0.681795 0.122077 1.397367
v 0.684548 0.118873 1.397606
v 0.682256 0.119938 1.395874
v 0.699684 0.096545 1.390637
v 0.705865 0.097449 1.392094
v 0.705862 0.093828 1.389322
v 0.700577 0.093148 1.388178
v 0.694006 0.087748 1.399984
v 0.693536 0.091853 1.395136
v 0.693865 0.086873 1.392559
v 0.695820 0.082124 1.397389
v 0.699775 0.084984 1.403955
v 0.701846 0.079908 1.400443
v 0.697299 0.077961 1.392675
v 0.695342 0.083122 1.388062
v 0.701917 0.076292 1.369750
v 0.704275 0.070807 1.372320
v 0.717239 0.084882 1.373504
v 0.719336 0.083213 1.375849
v 0.696257 0.094803 1.391952
v 0.696526 0.090589 1.389493
v 0.714590 0.089886 1.391051
v 0.711103 0.092713 1.387758
v 0.710421 0.093881 1.391256
v 0.713228 0.091186 1.395225
v 0.705432 0.083596 1.368502
v 0.711474 0.083819 1.370993
v 0.702918 0.080757 1.368576
v 0.714861 0.084583 1.395138
v 0.711479 0.079083 1.397563
v 0.717320 0.070948 1.379576
v 0.720360 0.076288 1.380230
v 0.696705 0.087690 1.385516
v 0.705596 0.093300 1.385766
v 0.700591 0.091761 1.384469
v 0.704129 0.076193 1.395307
v 0.709233 0.083099 1.402334
v 0.709360 0.102284 1.409652
v 0.711477 0.091891 1.403357
v 0.712320 0.094989 1.399171
v 0.711475 0.105286 1.405819
v 0.712901 0.087506 1.399564
v 0.707285 0.088178 1.405443
v 0.700387 0.109380 1.397079
v 0.706750 0.109538 1.398499
v 0.696090 0.108171 1.398588
v 0.710345 0.068691 1.375438
v 0.693475 0.101085 1.405897
v 0.693644 0.105550 1.401014
v 0.710555 0.096965 1.394675
v 0.710731 0.108183 1.401587
v 0.705680 0.099923 1.411414
v 0.698484 0.097520 1.409555
v 0.705221 0.105514 1.413473
v 0.698522 0.104943 1.411914
v 0.693651 0.108061 1.407378
v 0.694157 0.110480 1.401799
v 0.696740 0.111320 1.399030
v 0.709235 0.107205 1.411468
v 0.711268 0.109011 1.407227
v 0.710067 0.109975 1.401968
v 0.710652 0.113246 1.410233
v 0.706894 0.113726 1.413410
v 0.699525 0.128510 1.401934
v 0.697487 0.122966 1.403976
v 0.698944 0.123377 1.406232
v 0.700756 0.128470 1.404502
v 0.695807 0.117619 1.407702
v 0.697831 0.119137 1.408760
v 0.701073 0.116944 1.411736
v 0.702921 0.122746 1.409041
v 0.707483 0.120976 1.410104
v 0.708934 0.126512 1.408649
v 0.704633 0.128540 1.407710
v 0.705130 0.117331 1.412145
v 0.702662 0.131620 1.404036
v 0.703328 0.132833 1.401777
v 0.699556 0.113692 1.413274
v 0.694820 0.114573 1.402417
v 0.697734 0.122901 1.400750
v 0.700866 0.128557 1.398882
v 0.705629 0.132533 1.399761
v 0.700750 0.122757 1.397544
v 0.703562 0.127963 1.397064
v 0.707449 0.130893 1.398476
v 0.705226 0.121849 1.395717
v 0.707681 0.126906 1.396283
v 0.701734 0.112594 1.397114
v 0.697383 0.113600 1.398519
v 0.708570 0.128960 1.397491
v 0.707163 0.133553 1.404680
v 0.709148 0.133233 1.402007
v 0.706182 0.132320 1.405812
v 0.709507 0.120074 1.410064
v 0.710863 0.126289 1.407625
v 0.711927 0.119838 1.408257
v 0.712830 0.126566 1.406129
v 0.710866 0.130986 1.406283
v 0.709343 0.130937 1.407011
v 0.700885 0.111276 1.397815
v 0.706568 0.110620 1.399060
v 0.707301 0.111215 1.398268
v 0.710340 0.120524 1.397571
v 0.710951 0.110598 1.401683
v 0.712019 0.112527 1.406712
v 0.713254 0.119151 1.405730
v 0.713189 0.119694 1.401582
v 0.714295 0.125918 1.404653
v 0.713917 0.124258 1.401820
v 0.711354 0.125356 1.397730
v 0.713441 0.130306 1.403249
v 0.712151 0.131085 1.405059
v 0.710111 0.131846 1.400544
v 0.713580 0.128105 1.401288
v 0.710967 0.129261 1.398848
v 0.719929 0.099570 1.395778
v 0.725632 0.099711 1.397165
v 0.726203 0.097142 1.394555
v 0.720629 0.096641 1.393476
v 0.713852 0.091110 1.403156
v 0.713372 0.094885 1.399985
v 0.714032 0.091043 1.397107
v 0.714765 0.086160 1.399465
v 0.717551 0.089901 1.407489
v 0.719071 0.083221 1.402837
v 0.716004 0.082238 1.395503
v 0.714890 0.087966 1.393915
v 0.719898 0.082119 1.381290
v 0.721830 0.076471 1.383844
v 0.715994 0.097699 1.397298
v 0.716639 0.094645 1.394862
v 0.733153 0.093163 1.397369
v 0.730394 0.096245 1.394533
v 0.730393 0.095715 1.397674
v 0.731792 0.092934 1.400939
v 0.725442 0.089990 1.378041
v 0.731251 0.090394 1.379474
v 0.721657 0.087301 1.379477
v 0.732565 0.087309 1.400441
v 0.728346 0.081327 1.401051
v 0.735507 0.078362 1.388415
v 0.738227 0.083725 1.387230
v 0.716750 0.092465 1.392263
v 0.726006 0.097337 1.391629
v 0.720569 0.096200 1.390861
v 0.721464 0.079891 1.398076
v 0.725714 0.084604 1.405511
v 0.725461 0.104218 1.417703
v 0.728881 0.091700 1.407863
v 0.730830 0.095656 1.403825
v 0.728177 0.106283 1.414890
v 0.730483 0.088816 1.404766
v 0.723883 0.089206 1.409220
v 0.719560 0.111752 1.404523
v 0.724771 0.110810 1.406502
v 0.715608 0.109702 1.405111
v 0.728151 0.074306 1.386631
v 0.737593 0.089046 1.383952
v 0.712112 0.106064 1.410665
v 0.713280 0.108294 1.407109
v 0.729640 0.098000 1.400305
v 0.728353 0.108720 1.410698
v 0.720805 0.102151 1.418068
v 0.714881 0.102180 1.414866
v 0.721096 0.107773 1.420765
v 0.715193 0.108406 1.417564
v 0.712532 0.111712 1.412756
v 0.714282 0.112994 1.408434
v 0.716802 0.113591 1.406289
v 0.726171 0.108914 1.419583
v 0.728453 0.109937 1.416483
v 0.728088 0.109547 1.411199
v 0.727464 0.112873 1.419907
v 0.722493 0.114850 1.421712
v 0.721236 0.130229 1.412743
v 0.718529 0.124699 1.412601
v 0.718962 0.124547 1.413733
v 0.721387 0.130033 1.414487
v 0.715208 0.118651 1.414470
v 0.716527 0.120058 1.415293
v 0.718020 0.117990 1.418594
v 0.721237 0.123957 1.418594
v 0.726374 0.120916 1.420298
v 0.728017 0.126019 1.419974
v 0.723455 0.129254 1.418797
v 0.722127 0.116970 1.420725
v 0.723276 0.132666 1.415422
v 0.722835 0.133989 1.414165
v 0.716765 0.115527 1.419270
v 0.715475 0.117977 1.409386
v 0.718954 0.124840 1.409596
v 0.721682 0.130373 1.409645
v 0.724799 0.133385 1.411094
v 0.721965 0.124040 1.407278
v 0.724086 0.129020 1.408103
v 0.726791 0.131752 1.409527
v 0.725171 0.123084 1.406767
v 0.726918 0.127384 1.407820
v 0.721481 0.114824 1.405772
v 0.718102 0.116498 1.406649
v 0.728181 0.129864 1.409194
v 0.726382 0.133796 1.417447
v 0.729434 0.133304 1.414567
v 0.725505 0.132360 1.417788
v 0.727743 0.119653 1.420608
v 0.730342 0.125955 1.420117
v 0.730168 0.118837 1.419238
v 0.732493 0.125055 1.418766
v 0.729870 0.130340 1.419531
v 0.728726 0.130037 1.419543
v 0.720475 0.113026 1.405636
v 0.725152 0.111317 1.407418
v 0.725838 0.112637 1.407389
v 0.729687 0.121414 1.408232
v 0.728735 0.111046 1.411097
v 0.729774 0.113440 1.416699
v 0.731662 0.118977 1.416101
v 0.732025 0.120095 1.412262
v 0.733408 0.124548 1.416116
v 0.732858 0.123910 1.413331
v 0.730794 0.125799 1.409086
v 0.732630 0.128549 1.415244
v 0.731923 0.129723 1.417905
v 0.730524 0.131480 1.412214
v 0.732723 0.127430 1.413001
v 0.730945 0.129532 1.410729
v 0.735323 0.090389 1.381583
v 0.736660 0.105320 1.395562
v 0.740548 0.106449 1.397212
v 0.741080 0.105549 1.397121
v 0.737612 0.104131 1.394463
v 0.732447 0.095715 1.400140
v 0.731795 0.099704 1.397490
v 0.733015 0.096283 1.395363
v 0.734116 0.092296 1.397662
v 0.736233 0.093628 1.403480
v 0.738406 0.090988 1.401413
v 0.736417 0.090835 1.394984
v 0.734887 0.094700 1.392749
v 0.742581 0.088303 1.380674
v 0.746264 0.084218 1.381296
v 0.759915 0.098124 1.383215
v 0.756160 0.101339 1.380125
v 0.754007 0.102094 1.388418
v 0.756951 0.098723 1.389916
v 0.733627 0.102859 1.395916
v 0.734481 0.100844 1.393774
v 0.748801 0.101702 1.402088
v 0.746293 0.104820 1.399114
v 0.744569 0.105584 1.399732
v 0.747183 0.103889 1.403512
v 0.750844 0.101021 1.379480
v 0.746616 0.097478 1.379555
v 0.746233 0.099536 1.383052
v 0.749382 0.102362 1.386842
v 0.743081 0.095039 1.382472
v 0.748616 0.097295 1.403374
v 0.745705 0.091833 1.402627
v 0.757801 0.088326 1.388474
v 0.758637 0.093430 1.389327
v 0.735384 0.099155 1.393027
v 0.742470 0.105098 1.395887
v 0.738672 0.103438 1.394660
v 0.740865 0.088888 1.398359
v 0.743308 0.094425 1.405043
v 0.742365 0.106606 1.410780
v 0.745433 0.101196 1.407187
v 0.746432 0.104819 1.404145
v 0.744027 0.108555 1.408439
v 0.746587 0.099783 1.405542
v 0.741284 0.097287 1.407260
v 0.735890 0.110262 1.398244
v 0.740714 0.110684 1.401023
v 0.732748 0.108769 1.398365
v 0.752162 0.083908 1.383714
v 0.729794 0.104032 1.403493
v 0.730413 0.107145 1.400317
v 0.743761 0.106437 1.400271
v 0.743644 0.110199 1.404738
v 0.738145 0.103944 1.411312
v 0.733029 0.101489 1.407881
v 0.736357 0.108579 1.412504
v 0.731500 0.106354 1.409088
v 0.729408 0.108991 1.403312
v 0.731462 0.110033 1.399990
v 0.734153 0.110863 1.398428
v 0.741341 0.110152 1.411654
v 0.743329 0.110929 1.409497
v 0.743374 0.111211 1.405418
v 0.740360 0.113939 1.412266
v 0.735720 0.115278 1.411566
v 0.735647 0.124541 1.401851
v 0.734140 0.120497 1.401573
v 0.733945 0.120671 1.402763
v 0.734949 0.124737 1.402679
v 0.731507 0.115574 1.402844
v 0.732155 0.117039 1.403960
v 0.732320 0.115324 1.407338
v 0.733930 0.120646 1.407112
v 0.737738 0.120450 1.411007
v 0.738501 0.124561 1.410413
v 0.734846 0.124450 1.407246
v 0.735043 0.116702 1.410613
v 0.735352 0.127369 1.403736
v 0.736006 0.128433 1.402990
v 0.731104 0.112989 1.407952
v 0.733487 0.114451 1.399387
v 0.735789 0.121033 1.399506
v 0.737183 0.126016 1.400408
v 0.738317 0.129121 1.402613
v 0.737974 0.120102 1.398640
v 0.739363 0.125807 1.399632
v 0.740455 0.128618 1.401903
v 0.741206 0.119239 1.399161
v 0.741656 0.124743 1.400216
v 0.740001 0.113237 1.398950
v 0.736623 0.114014 1.398163
v 0.741668 0.127331 1.401924
v 0.736971 0.129272 1.406775
v 0.739786 0.129590 1.405633
v 0.735934 0.128056 1.407417
v 0.738973 0.120105 1.411668
v 0.740086 0.125054 1.410884
v 0.741356 0.119629 1.411640
v 0.742167 0.125038 1.410195
v 0.739342 0.128205 1.409361
v 0.737742 0.127064 1.409388
v 0.738038 0.111915 1.398774
v 0.740952 0.111683 1.401189
v 0.742788 0.112900 1.402140
v 0.744108 0.118561 1.402255
v 0.744242 0.112552 1.406833
v 0.743035 0.113173 1.410593
v 0.743649 0.119260 1.410090
v 0.745141 0.118929 1.406992
v 0.743679 0.125022 1.408600
v 0.744860 0.124138 1.405928
v 0.744164 0.124018 1.402554
v 0.742450 0.128072 1.406610
v 0.741279 0.128638 1.408002
v 0.741522 0.128940 1.404646
v 0.743434 0.127145 1.405230
v 0.742833 0.127321 1.403638
v 0.760062 0.094309 1.384590
v 0.662269 0.133092 1.334143
v 0.666150 0.131028 1.337933
v 0.672215 0.144372 1.345718
v 0.671366 0.137220 1.345812
v 0.669556 0.150111 1.342659
v 0.662643 0.151041 1.334095
v 0.666989 0.152006 1.337754
v 0.669294 0.132433 1.342756
v 0.660056 0.137975 1.330992
v 0.660045 0.145464 1.330379
v 0.651659 0.135284 1.336902
v 0.651227 0.144338 1.336924
v 0.653636 0.150175 1.340718
v 0.661359 0.151308 1.343631
v 0.665455 0.150111 1.346632
v 0.658800 0.131404 1.339094
v 0.663390 0.130309 1.341997
v 0.667789 0.133288 1.346193
v 0.657940 0.128800 1.346318
v 0.652977 0.132014 1.353818
v 0.654270 0.145102 1.369048
v 0.655477 0.146494 1.362228
v 0.653784 0.144356 1.362174
v 0.652476 0.143492 1.368392
v 0.653818 0.145915 1.356442
v 0.653530 0.143846 1.357542
v 0.652493 0.139180 1.355131
v 0.651791 0.138417 1.361289
v 0.653395 0.134152 1.355930
v 0.653884 0.132775 1.360338
v 0.650929 0.137462 1.367077
v 0.650772 0.141371 1.371479
v 0.650373 0.136771 1.371885
v 0.652975 0.142159 1.373448
v 0.648971 0.139317 1.352854
v 0.657842 0.149676 1.352723
v 0.658399 0.148218 1.361579
v 0.657796 0.145877 1.369343
v 0.656149 0.142013 1.373946
v 0.662561 0.147560 1.361697
v 0.661626 0.144486 1.368282
v 0.660209 0.140379 1.372086
v 0.666015 0.144140 1.361505
v 0.663830 0.141370 1.367210
v 0.668679 0.145248 1.350973
v 0.664196 0.149662 1.351264
v 0.661840 0.139308 1.370123
v 0.651634 0.136204 1.374309
v 0.655103 0.135952 1.374594
v 0.655437 0.130093 1.359058
v 0.652691 0.131681 1.365651
v 0.654885 0.129928 1.365539
v 0.658696 0.128494 1.357573
v 0.657483 0.129041 1.365524
v 0.653166 0.131379 1.370864
v 0.651385 0.132929 1.369504
v 0.669400 0.145641 1.348501
v 0.670003 0.139144 1.347992
v 0.669545 0.138872 1.349652
v 0.667446 0.137802 1.359875
v 0.667944 0.132893 1.348934
v 0.663127 0.129331 1.347306
v 0.662352 0.128748 1.357801
v 0.665830 0.131927 1.358434
v 0.660773 0.130283 1.365448
v 0.662831 0.132514 1.365313
v 0.664370 0.136981 1.366564
v 0.659257 0.132324 1.370115
v 0.656200 0.130944 1.370924
v 0.659124 0.135959 1.372585
v 0.661127 0.133570 1.368645
v 0.661487 0.136367 1.370042
v 0.757561 0.102813 1.375517
v 0.750762 0.102728 1.374788
v 0.753292 0.106397 1.371359
v 0.754872 0.113398 1.366300
v 0.762427 0.118130 1.360937
v 0.748275 0.112307 1.363767
v 0.746861 0.105144 1.369426
v 0.743236 0.099347 1.374412
v 0.744100 0.116125 1.355279
f 780 781 779
f 779 781 782
f 783 784 786
f 786 784 785
f 787 782 788
f 788 782 781
f 790 791 789
f 789 791 787
f 792 790 794
f 794 790 793
f 796 797 795
f 795 797 798
f 800 801 799
f 799 801 802
f 804 805 803
f 803 805 806
f 808 809 807
f 807 809 810
f 811 812 814
f 814 812 813
f 815 816 818
f 818 816 817
f 819 820 784
f 784 820 821
f 784 821 785
f 785 821 822
f 823 812 824
f 824 812 811
f 826 827 825
f 825 827 828
f 830 831 829
f 829 831 832
f 834 830 833
f 833 830 829
f 836 837 835
f 835 837 838
f 839 840 782
f 782 840 779
f 842 843 841
f 841 843 844
f 846 847 845
f 845 847 848
f 850 851 849
f 849 851 852
f 854 855 853
f 853 855 856
f 831 857 832
f 832 857 858
f 860 861 859
f 859 861 862
f 863 864 830
f 830 864 831
f 835 838 865
f 865 838 866
f 867 868 821
f 821 868 822
f 821 820 867
f 867 820 869
f 818 817 870
f 870 817 871
f 872 848 842
f 842 848 847
f 791 839 787
f 787 839 782
f 803 806 847
f 847 806 873
f 874 803 846
f 846 803 847
f 876 877 875
f 875 877 878
f 879 880 882
f 882 880 881
f 884 808 883
f 883 808 807
f 829 832 885
f 885 832 886
f 832 858 886
f 886 858 887
f 889 890 888
f 888 890 891
f 893 783 892
f 892 783 894
f 893 819 783
f 783 819 784
f 814 813 889
f 889 813 895
f 813 896 895
f 895 896 897
f 812 898 813
f 813 898 896
f 812 823 898
f 898 823 899
f 903 904 902
f 902 904 905
f 906 907 792
f 792 907 908
f 811 909 824
f 824 909 910
f 911 872 841
f 841 872 842
f 912 913 915
f 915 913 914
f 917 918 916
f 916 918 919
f 855 920 856
f 856 920 921
f 922 923 798
f 798 923 924
f 926 927 925
f 925 927 850
f 929 930 928
f 928 930 931
f 860 879 861
f 861 879 882
f 879 860 933
f 933 860 932
f 934 935 836
f 836 935 837
f 936 846 925
f 925 846 845
f 937 924 793
f 793 924 794
f 846 936 874
f 874 936 938
f 907 844 908
f 908 844 843
f 940 941 939
f 939 941 942
f 944 945 943
f 943 945 946
f 948 949 947
f 947 949 950
f 952 949 951
f 951 949 948
f 954 955 953
f 953 955 956
f 958 959 957
f 957 959 802
f 960 961 799
f 799 961 962
f 859 963 860
f 860 963 932
f 964 965 966
f 966 965 922
f 936 849 938
f 938 849 967
f 968 913 935
f 935 913 837
f 947 950 917
f 917 950 918
f 925 850 936
f 936 850 849
f 970 971 969
f 969 971 972
f 945 944 827
f 827 944 973
f 974 968 828
f 828 968 935
f 975 976 978
f 978 976 977
f 799 802 960
f 960 802 959
f 924 937 798
f 798 937 795
f 960 959 859
f 859 959 963
f 979 963 958
f 958 963 959
f 980 981 861
f 861 981 862
f 983 984 982
f 982 984 863
f 985 800 962
f 962 800 799
f 957 802 986
f 986 802 801
f 986 987 957
f 957 987 983
f 987 988 983
f 983 988 984
f 990 984 989
f 989 984 988
f 957 983 958
f 958 983 982
f 991 954 866
f 866 954 992
f 864 863 990
f 990 863 984
f 971 995 996
f 995 997 996
f 996 997 998
f 997 796 998
f 998 796 795
f 797 999 798
f 798 999 922
f 1000 1001 1003
f 1003 1001 1002
f 953 1004 954
f 954 1004 992
f 1005 865 992
f 992 865 866
f 998 795 1006
f 1006 795 937
f 912 991 838
f 838 991 866
f 916 1007 929
f 929 1007 930
f 971 970 988
f 988 970 989
f 1008 972 996
f 996 972 971
f 1009 1010 1006
f 1006 1010 1008
f 1011 1012 869
f 869 1012 867
f 1013 1014 871
f 871 1014 870
f 1008 1010 1012
f 1012 1010 1015
f 825 1016 826
f 826 1016 1017
f 1018 969 1013
f 1013 969 1014
f 783 786 894
f 894 786 1019
f 1020 1021 967
f 967 1021 938
f 1022 1023 876
f 876 1023 877
f 934 1024 825
f 825 1024 1016
f 854 1025 855
f 855 1025 1026
f 1028 903 1027
f 1027 903 902
f 1030 1031 1029
f 1029 1031 1032
f 889 888 814
f 814 888 1033
f 1034 811 1033
f 1033 811 814
f 1035 1036 932
f 932 1036 933
f 841 947 911
f 911 947 917
f 844 948 841
f 841 948 947
f 951 948 907
f 907 948 844
f 907 906 951
f 951 906 1037
f 906 1038 1037
f 1037 1038 1039
f 991 912 1040
f 1040 912 915
f 1041 1042 964
f 964 1042 965
f 890 1043 891
f 891 1043 1044
f 789 1045 1046
f 1012 1011 1008
f 1008 1011 972
f 931 1047 848
f 848 1047 845
f 953 956 943
f 943 956 919
f 928 931 872
f 872 931 848
f 1049 999 1048
f 1048 999 985
f 1047 931 1050
f 1050 931 930
f 899 823 887
f 887 823 886
f 825 828 934
f 934 828 935
f 835 1051 836
f 836 1051 1052
f 923 1053 1038
f 1038 1053 1039
f 1054 927 921
f 921 927 856
f 926 1047 853
f 853 1047 1050
f 985 1055 1048
f 1048 1055 1056
f 973 974 827
f 827 974 828
f 837 913 838
f 838 913 912
f 861 882 980
f 980 882 1057
f 927 926 856
f 856 926 853
f 1025 1056 1026
f 1026 1056 1055
f 961 960 862
f 862 960 859
f 826 1017 1059
f 1059 1017 1060
f 1005 1001 1061
f 1061 1001 1000
f 1001 1004 1002
f 1002 1004 946
f 1059 1060 1002
f 1002 1060 1003
f 943 946 953
f 953 946 1004
f 1042 1041 916
f 916 1041 1007
f 792 794 906
f 906 794 1038
f 998 1006 996
f 996 1006 1008
f 865 1005 1062
f 1062 1005 1061
f 1038 794 923
f 923 794 924
f 1022 876 1036
f 1036 876 933
f 836 1052 934
f 934 1052 1024
f 885 1063 829
f 829 1063 833
f 1021 1064 938
f 938 1064 874
f 1012 1015 867
f 867 1015 868
f 824 910 885
f 885 910 1063
f 1031 1030 1027
f 1027 1030 1028
f 1064 804 874
f 874 804 803
f 884 883 1065
f 1065 883 1066
f 1050 930 1067
f 1067 930 1007
f 916 929 917
f 917 929 911
f 961 1068 939
f 939 1068 940
f 1069 1070 1055
f 1055 1070 1071
f 929 928 911
f 911 928 872
f 1040 1053 955
f 955 1053 965
f 922 965 923
f 923 965 1053
f 1051 835 1062
f 1062 835 865
f 952 914 968
f 968 914 913
f 889 895 890
f 890 895 816
f 895 897 816
f 816 897 901
f 890 816 1043
f 1043 816 815
f 1065 1066 1032
f 1032 1066 1029
f 1006 937 1009
f 1009 937 793
f 1001 1005 1004
f 1004 1005 992
f 925 845 926
f 926 845 1047
f 1002 946 1059
f 1059 946 945
f 977 941 978
f 978 941 940
f 823 824 886
f 886 824 885
f 1059 945 826
f 826 945 827
f 939 942 1069
f 1069 942 1070
f 816 901 817
f 1071 1072 1055
f 1055 1072 1026
f 1062 1061 1074
f 1074 1061 1073
f 1062 1074 1051
f 1051 1074 1075
f 1052 1051 1076
f 1076 1051 1075
f 1024 1052 1077
f 1077 1052 1076
f 1061 1000 1073
f 1073 1000 1078
f 1000 1003 1078
f 1078 1003 1079
f 1079 1003 1080
f 1080 1003 1060
f 1081 1082 1078
f 1078 1082 1073
f 1084 1085 1083
f 1083 1085 1086
f 1087 1088 1086
f 1086 1088 1083
f 1086 1085 1090
f 1090 1085 1089
f 1091 1092 1090
f 1090 1092 1093
f 1089 1094 1090
f 1090 1094 1091
f 1095 1082 1089
f 1089 1082 1094
f 1093 1087 1090
f 1090 1087 1086
f 1096 1097 1099
f 1099 1097 1098
f 1097 1096 1087
f 1087 1096 1088
f 1089 1085 1095
f 1095 1085 1084
f 1084 1075 1095
f 1095 1075 1074
f 1084 1100 1075
f 1075 1100 1076
f 1083 1101 1084
f 1084 1101 1100
f 1101 1083 1102
f 1102 1083 1088
f 1082 1095 1073
f 1073 1095 1074
f 1096 1103 1088
f 1088 1103 1102
f 1101 1102 1104
f 1104 1102 1105
f 1102 1103 1105
f 1105 1103 1106
f 1104 1105 1107
f 1107 1105 1108
f 1107 1109 1104
f 1104 1109 1110
f 1111 1108 1106
f 1106 1108 1105
f 1101 1104 1100
f 1100 1104 1110
f 1100 1110 1076
f 1076 1110 1077
f 1103 1096 1112
f 1112 1096 1099
f 1091 1094 1113
f 1113 1094 1082
f 1113 1114 1091
f 1091 1114 1092
f 1082 1081 1113
f 1113 1081 1115
f 1114 1113 1116
f 1116 1113 1115
f 1114 1117 1092
f 1092 1117 1118
f 1024 1077 1016
f 1016 1077 1119
f 1017 1120 1060
f 1060 1120 1080
f 1120 1017 1119
f 1119 1017 1016
f 1119 1109 1120
f 1120 1109 1121
f 1109 1107 1121
f 1121 1107 1122
f 1120 1121 1080
f 1080 1121 1123
f 1119 1077 1109
f 1109 1077 1110
f 1124 1079 1123
f 1123 1079 1080
f 1124 1081 1079
f 1079 1081 1078
f 1125 1115 1124
f 1124 1115 1081
f 1125 1124 1126
f 1126 1124 1123
f 1127 1125 1128
f 1128 1125 1126
f 1121 1122 1123
f 1123 1122 1126
f 1122 1129 1126
f 1126 1129 1128
f 1115 1125 1116
f 1116 1125 1127
f 1131 1116 1130
f 1130 1116 1127
f 1130 1133 1132
f 1132 1133 1134
f 1130 1127 1133
f 1133 1127 1128
f 1130 1132 1131
f 1131 1132 1112
f 1131 1112 1117
f 1117 1112 1099
f 1117 1114 1131
f 1131 1114 1116
f 1107 1108 1122
f 1122 1108 1129
f 1134 1129 1111
f 1111 1129 1108
f 1134 1133 1129
f 1129 1133 1128
f 1132 1134 1106
f 1106 1134 1111
f 1106 1103 1132
f 1132 1103 1112
f 1087 1093 1097
f 1097 1093 1098
f 1098 1118 1099
f 1099 1118 1117
f 1098 1093 1118
f 1118 1093 1092
f 915 914 1039
f 1039 914 1037
f 918 944 919
f 919 944 943
f 950 949 973
f 973 949 974
f 949 952 974
f 974 952 968
f 956 955 1042
f 1042 955 965
f 950 973 918
f 918 973 944
f 915 1039 1040
f 1040 1039 1053
f 956 1042 919
f 919 1042 916
f 1040 955 991
f 991 955 954
f 914 952 1037
f 1037 952 951
f 1136 1137 1135
f 1135 1137 1138
f 1140 1141 1139
f 1139 1141 1142
f 1139 1142 1143
f 1143 1142 1144
f 1145 1146 1148
f 1148 1146 1147
f 854 1149 1025
f 1025 1149 1150
f 1151 1152 1140
f 1140 1152 1141
f 1154 1155 1153
f 1153 1155 1156
f 1067 1007 1158
f 1158 1007 1157
f 1159 1157 1041
f 1041 1157 1007
f 1161 1162 1160
f 1160 1162 1163
f 1164 1146 1152
f 1152 1146 1141
f 854 1067 1149
f 1149 1067 1158
f 1155 1154 1137
f 1137 1154 1165
f 1166 1164 1138
f 1138 1164 1152
f 1167 1161 1144
f 1144 1161 1168
f 1170 1171 1169
f 1169 1171 1172
f 1161 1160 1168
f 1168 1160 1173
f 1174 1143 1168
f 1168 1143 1144
f 1167 1144 1145
f 1145 1144 1142
f 1135 1175 1136
f 1136 1175 1176
f 1151 1177 1135
f 1135 1177 1175
f 1167 1145 1178
f 1178 1145 1148
f 1160 1163 1153
f 1153 1163 1150
f 1135 1138 1151
f 1151 1138 1152
f 1139 1179 1140
f 1140 1179 1180
f 1165 1166 1137
f 1137 1166 1138
f 1141 1146 1142
f 1142 1146 1145
f 1136 1176 1181
f 1181 1176 1182
f 1174 1170 1183
f 1183 1170 1169
f 1170 1173 1171
f 1171 1173 1156
f 1171 1181 1172
f 1172 1181 1182
f 1153 1156 1160
f 1160 1156 1173
f 1143 1174 1184
f 1184 1174 1183
f 1140 1180 1151
f 1151 1180 1177
f 1049 1048 1178
f 1178 1048 1162
f 1179 1139 1184
f 1184 1139 1143
f 1159 1147 1164
f 1164 1147 1146
f 1170 1174 1173
f 1173 1174 1168
f 1171 1156 1181
f 1181 1156 1155
f 1181 1155 1136
f 1136 1155 1137
f 1184 1183 1186
f 1186 1183 1185
f 1184 1186 1179
f 1179 1186 1187
f 1179 1187 1180
f 1180 1187 1188
f 1180 1188 1177
f 1177 1188 1189
f 1183 1169 1185
f 1185 1169 1190
f 1169 1172 1190
f 1190 1172 1191
f 1172 1182 1191
f 1191 1182 1192
f 1193 1194 1190
f 1190 1194 1185
f 1196 1197 1195
f 1195 1197 1198
f 1199 1200 1196
f 1196 1200 1197
f 1197 1200 1202
f 1202 1200 1201
f 1203 1204 1202
f 1202 1204 1205
f 1201 1206 1202
f 1202 1206 1203
f 1205 1198 1202
f 1202 1198 1197
f 1198 1207 1195
f 1195 1207 1208
f 1201 1200 1209
f 1209 1200 1199
f 1199 1187 1209
f 1209 1187 1186
f 1199 1210 1187
f 1187 1210 1188
f 1196 1211 1199
f 1199 1211 1210
f 1212 1211 1195
f 1195 1211 1196
f 1209 1194 1201
f 1201 1194 1206
f 1194 1209 1185
f 1185 1209 1186
f 1213 1212 1208
f 1208 1212 1195
f 1211 1212 1214
f 1214 1212 1215
f 1212 1213 1215
f 1215 1213 1216
f 1214 1215 1217
f 1217 1215 1218
f 1217 1219 1214
f 1214 1219 1220
f 1216 1221 1215
f 1215 1221 1218
f 1214 1220 1211
f 1211 1220 1210
f 1210 1220 1188
f 1188 1220 1189
f 1213 1208 1223
f 1223 1208 1222
f 1208 1207 1222
f 1222 1207 1224
f 1203 1206 1225
f 1225 1206 1194
f 1204 1203 1226
f 1226 1203 1225
f 1194 1193 1225
f 1225 1193 1227
f 1225 1227 1226
f 1226 1227 1228
f 1229 1230 1226
f 1226 1230 1204
f 1224 1230 1222
f 1222 1230 1229
f 1177 1189 1175
f 1175 1189 1231
f 1176 1232 1182
f 1182 1232 1192
f 1232 1176 1231
f 1231 1176 1175
f 1231 1219 1232
f 1232 1219 1233
f 1219 1217 1233
f 1233 1217 1234
f 1232 1233 1192
f 1192 1233 1235
f 1219 1231 1220
f 1220 1231 1189
f 1236 1191 1235
f 1235 1191 1192
f 1236 1193 1191
f 1191 1193 1190
f 1236 1237 1193
f 1193 1237 1227
f 1237 1236 1238
f 1238 1236 1235
f 1239 1237 1240
f 1240 1237 1238
f 1233 1234 1235
f 1235 1234 1238
f 1234 1241 1238
f 1238 1241 1240
f 1237 1239 1227
f 1227 1239 1228
f 1243 1228 1242
f 1242 1228 1239
f 1242 1245 1244
f 1244 1245 1246
f 1242 1239 1245
f 1245 1239 1240
f 1242 1244 1243
f 1243 1244 1223
f 1243 1223 1229
f 1229 1223 1222
f 1229 1226 1243
f 1243 1226 1228
f 1217 1218 1234
f 1234 1218 1241
f 1246 1241 1221
f 1221 1241 1218
f 1246 1245 1241
f 1241 1245 1240
f 1244 1246 1216
f 1216 1246 1221
f 1216 1213 1244
f 1244 1213 1223
f 1198 1205 1207
f 1207 1205 1224
f 1224 1205 1230
f 1230 1205 1204
f 1148 1147 966
f 966 1147 964
f 1149 1154 1150
f 1150 1154 1153
f 1158 1157 1165
f 1165 1157 1166
f 1157 1159 1166
f 1166 1159 1164
f 1163 1162 1056
f 1056 1162 1048
f 1158 1165 1149
f 1149 1165 1154
f 1178 1148 1049
f 1049 1148 966
f 1163 1056 1150
f 1150 1056 1025
f 1178 1162 1167
f 1167 1162 1161
f 1147 1159 964
f 964 1159 1041
f 999 1049 922
f 922 1049 966
f 999 797 985
f 985 797 800
f 797 796 800
f 800 796 801
f 796 997 801
f 801 997 986
f 1247 1248 1250
f 1250 1248 1249
f 1252 1253 1251
f 1251 1253 1254
f 1251 1254 1255
f 1255 1254 1256
f 1258 1259 1257
f 1257 1259 1260
f 1261 1262 1252
f 1252 1262 1253
f 1264 1265 1263
f 1263 1265 1266
f 1267 1268 855
f 855 1268 920
f 1269 1267 1026
f 1026 1267 855
f 1271 1272 1270
f 1270 1272 1273
f 1274 1258 1262
f 1262 1258 1253
f 1264 1275 1265
f 1265 1275 1249
f 1276 1274 1250
f 1250 1274 1262
f 1277 1271 1256
f 1256 1271 1278
f 1279 1280 1282
f 1282 1280 1281
f 1271 1270 1278
f 1278 1270 1283
f 1284 1255 1278
f 1278 1255 1256
f 1277 1256 1257
f 1257 1256 1254
f 1247 1285 1248
f 1248 1285 1286
f 1261 1287 1247
f 1247 1287 1285
f 1257 1260 1277
f 1277 1260 1288
f 1270 1273 1263
f 1263 1273 1289
f 1261 1247 1262
f 1262 1247 1250
f 1251 1290 1252
f 1252 1290 1291
f 1275 1276 1249
f 1249 1276 1250
f 1253 1258 1254
f 1254 1258 1257
f 1248 1286 1292
f 1292 1286 1293
f 1284 1280 1294
f 1294 1280 1279
f 1281 1280 1266
f 1266 1280 1283
f 1292 1293 1281
f 1281 1293 1282
f 1263 1266 1270
f 1270 1266 1283
f 1255 1284 1295
f 1295 1284 1294
f 1252 1291 1261
f 1261 1291 1287
f 1288 1070 1272
f 1272 1070 942
f 1290 1251 1295
f 1295 1251 1255
f 1269 1259 1274
f 1274 1259 1258
f 1280 1284 1283
f 1283 1284 1278
f 1281 1266 1292
f 1292 1266 1265
f 1292 1265 1248
f 1248 1265 1249
f 1295 1294 1297
f 1297 1294 1296
f 1295 1297 1290
f 1290 1297 1298
f 1290 1298 1291
f 1291 1298 1299
f 1291 1299 1287
f 1287 1299 1300
f 1294 1279 1296
f 1296 1279 1301
f 1279 1282 1301
f 1301 1282 1302
f 1302 1282 1303
f 1303 1282 1293
f 1304 1305 1301
f 1301 1305 1296
f 1307 1308 1306
f 1306 1308 1309
f 1310 1311 1307
f 1307 1311 1308
f 1308 1311 1313
f 1313 1311 1312
f 1314 1315 1313
f 1313 1315 1316
f 1312 1317 1313
f 1313 1317 1314
f 1316 1309 1313
f 1313 1309 1308
f 1318 1319 1309
f 1309 1319 1306
f 1311 1310 1312
f 1312 1310 1320
f 1310 1298 1320
f 1320 1298 1297
f 1310 1321 1298
f 1298 1321 1299
f 1307 1322 1310
f 1310 1322 1321
f 1322 1307 1323
f 1323 1307 1306
f 1312 1320 1317
f 1317 1320 1305
f 1305 1320 1296
f 1296 1320 1297
f 1319 1324 1306
f 1306 1324 1323
f 1325 1322 1326
f 1326 1322 1323
f 1324 1327 1323
f 1323 1327 1326
f 1328 1325 1329
f 1329 1325 1326
f 1325 1328 1331
f 1331 1328 1330
f 1327 1332 1326
f 1326 1332 1329
f 1322 1325 1321
f 1321 1325 1331
f 1321 1331 1299
f 1299 1331 1300
f 1324 1319 1334
f 1334 1319 1333
f 1319 1318 1333
f 1333 1318 1335
f 1314 1317 1336
f 1336 1317 1305
f 1315 1314 1337
f 1337 1314 1336
f 1305 1304 1336
f 1336 1304 1338
f 1337 1336 1339
f 1339 1336 1338
f 1337 1340 1315
f 1315 1340 1341
f 1335 1341 1333
f 1333 1341 1340
f 1287 1300 1285
f 1285 1300 1342
f 1286 1343 1293
f 1293 1343 1303
f 1343 1286 1342
f 1342 1286 1285
f 1342 1330 1343
f 1343 1330 1344
f 1330 1328 1344
f 1344 1328 1345
f 1343 1344 1303
f 1303 1344 1346
f 1342 1300 1330
f 1330 1300 1331
f 1347 1302 1346
f 1346 1302 1303
f 1347 1304 1302
f 1302 1304 1301
f 1348 1338 1347
f 1347 1338 1304
f 1348 1347 1349
f 1349 1347 1346
f 1350 1348 1351
f 1351 1348 1349
f 1344 1345 1346
f 1346 1345 1349
f 1345 1352 1349
f 1349 1352 1351
f 1348 1350 1338
f 1338 1350 1339
f 1354 1339 1353
f 1353 1339 1350
f 1353 1356 1355
f 1355 1356 1357
f 1353 1350 1356
f 1356 1350 1351
f 1353 1355 1354
f 1354 1355 1334
f 1354 1334 1340
f 1340 1334 1333
f 1340 1337 1354
f 1354 1337 1339
f 1328 1329 1345
f 1345 1329 1352
f 1357 1352 1332
f 1332 1352 1329
f 1357 1356 1352
f 1352 1356 1351
f 1357 1332 1355
f 1355 1332 1327
f 1327 1324 1355
f 1355 1324 1334
f 1309 1316 1318
f 1318 1316 1335
f 1335 1316 1341
f 1341 1316 1315
f 1259 1072 1260
f 1260 1072 1071
f 1358 1264 1289
f 1289 1264 1263
f 1268 1267 1275
f 1275 1267 1276
f 1267 1269 1276
f 1276 1269 1274
f 941 1273 942
f 942 1273 1272
f 1358 1268 1264
f 1264 1268 1275
f 1260 1071 1288
f 1288 1071 1070
f 1273 941 1289
f 1289 941 977
f 1272 1271 1288
f 1288 1271 1277
f 1259 1269 1072
f 1072 1269 1026
f 1360 1361 1359
f 1359 1361 1362
f 1364 1365 1363
f 1363 1365 1366
f 1363 1366 1367
f 1367 1366 1368
f 1370 1371 1369
f 1369 1371 1372
f 1373 1374 1376
f 1376 1374 1375
f 1377 1378 1364
f 1364 1378 1365
f 1379 1380 1382
f 1382 1380 1381
f 1383 1384 1386
f 1386 1384 1385
f 1387 1385 978
f 978 1385 1384
f 1388 1389 1391
f 1391 1389 1390
f 1378 1392 1365
f 1365 1392 1370
f 1374 1383 1375
f 1375 1383 1386
f 1380 1393 1381
f 1381 1393 1361
f 1394 1392 1362
f 1362 1392 1378
f 1389 1396 1395
f 1395 1396 1368
f 1398 1399 1397
f 1397 1399 1400
f 1388 1401 1389
f 1389 1401 1396
f 1402 1367 1396
f 1396 1367 1368
f 1395 1368 1369
f 1369 1368 1366
f 1359 1403 1360
f 1360 1403 1404
f 1377 1405 1359
f 1359 1405 1403
f 1369 1372 1395
f 1395 1372 1406
f 1379 1388 1376
f 1376 1388 1391
f 1359 1362 1377
f 1377 1362 1378
f 1363 1407 1364
f 1364 1407 1408
f 1393 1394 1361
f 1361 1394 1362
f 1365 1370 1366
f 1366 1370 1369
f 1360 1404 1409
f 1409 1404 1410
f 1402 1398 1411
f 1411 1398 1397
f 1399 1398 1382
f 1382 1398 1401
f 1409 1410 1399
f 1399 1410 1400
f 1388 1379 1401
f 1401 1379 1382
f 1367 1402 1412
f 1412 1402 1411
f 1364 1408 1377
f 1377 1408 1405
f 981 980 1406
f 1406 980 1390
f 1407 1363 1412
f 1412 1363 1367
f 1387 1371 1392
f 1392 1371 1370
f 1398 1402 1401
f 1401 1402 1396
f 1409 1399 1381
f 1381 1399 1382
f 1360 1409 1361
f 1361 1409 1381
f 1412 1411 1414
f 1414 1411 1413
f 1412 1414 1407
f 1407 1414 1415
f 1407 1415 1408
f 1408 1415 1416
f 1408 1416 1405
f 1405 1416 1417
f 1411 1397 1413
f 1413 1397 1418
f 1397 1400 1418
f 1418 1400 1419
f 1419 1400 1420
f 1420 1400 1410
f 1422 1413 1421
f 1421 1413 1418
f 1423 1424 1426
f 1426 1424 1425
f 1427 1428 1424
f 1424 1428 1425
f 1425 1428 1430
f 1430 1428 1429
f 1430 1431 1433
f 1433 1431 1432
f 1429 1434 1430
f 1430 1434 1431
f 1433 1426 1430
f 1430 1426 1425
f 1426 1435 1423
f 1423 1435 1436
f 1428 1427 1429
f 1429 1427 1437
f 1427 1415 1437
f 1437 1415 1414
f 1427 1438 1415
f 1415 1438 1416
f 1439 1438 1424
f 1424 1438 1427
f 1440 1439 1423
f 1423 1439 1424
f 1429 1437 1434
f 1434 1437 1422
f 1422 1437 1413
f 1413 1437 1414
f 1441 1440 1436
f 1436 1440 1423
f 1442 1439 1443
f 1443 1439 1440
f 1441 1444 1440
f 1440 1444 1443
f 1445 1442 1446
f 1446 1442 1443
f 1442 1445 1448
f 1448 1445 1447
f 1444 1449 1443
f 1443 1449 1446
f 1439 1442 1438
f 1438 1442 1448
f 1438 1448 1416
f 1416 1448 1417
f 1436 1450 1441
f 1441 1450 1451
f 1436 1435 1450
f 1450 1435 1452
f 1431 1434 1453
f 1453 1434 1422
f 1431 1453 1432
f 1432 1453 1454
f 1453 1422 1455
f 1455 1422 1421
f 1454 1453 1456
f 1456 1453 1455
f 1457 1458 1454
f 1454 1458 1432
f 1452 1458 1450
f 1450 1458 1457
f 1405 1417 1403
f 1403 1417 1459
f 1404 1460 1410
f 1410 1460 1420
f 1459 1460 1403
f 1403 1460 1404
f 1447 1461 1459
f 1459 1461 1460
f 1445 1462 1447
f 1447 1462 1461
f 1460 1461 1420
f 1420 1461 1463
f 1459 1417 1447
f 1447 1417 1448
f 1464 1419 1463
f 1463 1419 1420
f 1419 1464 1418
f 1418 1464 1421
f 1464 1465 1421
f 1421 1465 1455
f 1465 1464 1466
f 1466 1464 1463
f 1467 1465 1468
f 1468 1465 1466
f 1461 1462 1463
f 1463 1462 1466
f 1462 1469 1466
f 1466 1469 1468
f 1465 1467 1455
f 1455 1467 1456
f 1471 1456 1470
f 1470 1456 1467
f 1470 1473 1472
f 1472 1473 1474
f 1470 1467 1473
f 1473 1467 1468
f 1470 1472 1471
f 1471 1472 1451
f 1471 1451 1457
f 1457 1451 1450
f 1457 1454 1471
f 1471 1454 1456
f 1462 1445 1469
f 1469 1445 1446
f 1474 1469 1449
f 1449 1469 1446
f 1474 1473 1469
f 1469 1473 1468
f 1472 1474 1444
f 1444 1474 1449
f 1444 1441 1472
f 1472 1441 1451
f 1426 1433 1435
f 1435 1433 1452
f 1452 1433 1458
f 1458 1433 1432
f 1371 940 1372
f 1372 940 1068
f 1376 1375 1379
f 1379 1375 1380
f 1393 1386 1394
f 1394 1386 1385
f 1385 1387 1394
f 1394 1387 1392
f 1475 1373 1391
f 1391 1373 1376
f 1375 1386 1380
f 1380 1386 1393
f 1372 1068 1406
f 1406 1068 981
f 1406 1390 1395
f 1395 1390 1389
f 1371 1387 940
f 940 1387 978
f 883 807 1476
f 1476 807 1477
f 1046 904 1479
f 1479 904 1478
f 904 903 1478
f 1478 903 1480
f 1030 1481 1028
f 1028 1481 1482
f 810 1046 1483
f 1483 1046 1479
f 1066 883 1484
f 1484 883 1476
f 807 810 1477
f 1477 810 1483
f 1485 1029 1484
f 1484 1029 1066
f 1028 1482 903
f 903 1482 1480
f 1481 1030 1485
f 1485 1030 1029
f 1484 1486 1485
f 1485 1486 1487
f 1485 1487 1481
f 1481 1487 1488
f 1481 1488 1482
f 1482 1488 1489
f 1482 1489 1480
f 1480 1489 1490
f 1484 1476 1486
f 1486 1476 1491
f 1476 1477 1491
f 1491 1477 1492
f 1477 1483 1492
f 1492 1483 1493
f 1495 1486 1494
f 1494 1486 1491
f 1497 1498 1496
f 1496 1498 1499
f 1500 1501 1497
f 1497 1501 1498
f 1502 1503 1501
f 1501 1503 1498
f 1502 1504 1503
f 1503 1504 1505
f 1506 1499 1503
f 1503 1499 1498
f 1499 1506 1507
f 1507 1506 1508
f 1507 1509 1499
f 1499 1509 1496
f 1502 1501 1510
f 1510 1501 1500
f 1500 1488 1510
f 1510 1488 1487
f 1500 1511 1488
f 1488 1511 1489
f 1497 1512 1500
f 1500 1512 1511
f 1512 1497 1513
f 1513 1497 1496
f 1502 1510 1504
f 1504 1510 1495
f 1495 1510 1486
f 1486 1510 1487
f 1509 1514 1496
f 1496 1514 1513
f 1515 1512 1516
f 1516 1512 1513
f 1514 1517 1513
f 1513 1517 1516
f 1518 1515 1519
f 1519 1515 1516
f 1515 1518 1521
f 1521 1518 1520
f 1517 1522 1516
f 1516 1522 1519
f 1512 1515 1511
f 1511 1515 1521
f 1511 1521 1489
f 1489 1521 1490
f 1514 1509 1524
f 1524 1509 1523
f 1509 1507 1523
f 1523 1507 1508
f 1505 1504 1525
f 1525 1504 1495
f 1526 1505 1527
f 1527 1505 1525
f 1525 1495 1528
f 1528 1495 1494
f 1527 1525 1529
f 1529 1525 1528
f 1527 1530 1526
f 1526 1530 1531
f 1508 1531 1523
f 1523 1531 1530
f 1506 1503 1526
f 1526 1503 1505
f 1508 1506 1531
f 1531 1506 1526
f 1478 1480 1532
f 1532 1480 1490
f 1483 1479 1493
f 1493 1479 1533
f 1532 1533 1478
f 1478 1533 1479
f 1520 1534 1532
f 1532 1534 1533
f 1518 1535 1520
f 1520 1535 1534
f 1533 1534 1493
f 1493 1534 1536
f 1532 1490 1520
f 1520 1490 1521
f 1537 1492 1536
f 1536 1492 1493
f 1492 1537 1491
f 1491 1537 1494
f 1537 1538 1494
f 1494 1538 1528
f 1538 1537 1539
f 1539 1537 1536
f 1540 1538 1541
f 1541 1538 1539
f 1534 1535 1536
f 1536 1535 1539
f 1535 1542 1539
f 1539 1542 1541
f 1538 1540 1528
f 1528 1540 1529
f 1544 1529 1543
f 1543 1529 1540
f 1545 1543 1547
f 1547 1543 1546
f 1543 1540 1546
f 1546 1540 1541
f 1543 1545 1544
f 1544 1545 1524
f 1544 1524 1530
f 1530 1524 1523
f 1530 1527 1544
f 1544 1527 1529
f 1535 1518 1542
f 1542 1518 1519
f 1547 1542 1522
f 1522 1542 1519
f 1547 1546 1542
f 1542 1546 1541
f 1545 1547 1517
f 1517 1547 1522
f 1517 1514 1545
f 1545 1514 1524
f 997 995 986
f 986 995 987
f 987 995 988
f 988 995 971
f 976 1358 977
f 977 1358 1289
f 854 853 1067
f 1067 853 1050
f 1055 985 1069
f 1069 985 962
f 1068 961 981
f 981 961 862
f 1268 1358 920
f 920 1358 976
f 920 976 921
f 921 976 975
f 927 1054 850
f 850 1054 851
f 882 881 1057
f 1057 881 1548
f 1548 1374 1057
f 1057 1374 1373
f 1383 1374 1549
f 1549 1374 1548
f 1549 1548 1550
f 1550 1548 881
f 1550 881 1551
f 1551 881 880
f 933 1552 879
f 879 1552 880
f 1551 880 875
f 875 880 1552
f 1553 1551 878
f 878 1551 875
f 1551 1553 1550
f 1550 1553 1554
f 1550 1554 1549
f 1549 1554 1555
f 978 1384 975
f 975 1384 1555
f 967 849 1556
f 1556 849 852
f 875 1552 876
f 876 1552 933
f 961 939 962
f 962 939 1069
f 1555 1054 975
f 975 1054 921
f 1555 1384 1549
f 1549 1384 1383
f 1391 1390 1475
f 1475 1390 980
f 1373 1475 1057
f 1057 1475 980
f 851 1054 1554
f 1554 1054 1555
f 1554 1553 851
f 851 1553 852
f 878 1556 1553
f 1553 1556 852
f 1556 878 967
f 967 878 877
f 1023 1020 877
f 877 1020 967
f 909 811 1034
f 806 779 873
f 873 779 840
f 805 780 806
f 806 780 779
f 1043 893 1044
f 1044 893 892
f 873 840 847
f 847 840 842
f 840 839 842
f 842 839 843
f 839 791 843
f 843 791 908
f 791 790 908
f 908 790 792
f 809 789 810
f 810 789 1046
f 793 790 809
f 809 790 789
f 809 808 793
f 793 808 1009
f 808 884 1009
f 1009 884 1010
f 1065 1015 884
f 884 1015 1010
f 1032 868 1065
f 1065 868 1015
f 1031 822 1032
f 1032 822 868
f 1031 1027 822
f 822 1027 785
f 1045 905 1046
f 1046 905 904
f 788 781 1019
f 1019 781 894
f 781 780 894
f 894 780 892
f 780 805 892
f 892 805 1044
f 805 804 1044
f 1044 804 891
f 804 1064 891
f 891 1064 888
f 1064 1021 888
f 888 1021 1033
f 1021 1020 1033
f 1033 1020 1034
f 1020 1023 1034
f 1034 1023 909
f 1023 1022 909
f 909 1022 910
f 1043 815 893
f 893 815 819
f 819 815 820
f 820 815 818
f 870 869 818
f 818 869 820
f 1014 1011 870
f 870 1011 869
f 969 972 1014
f 1014 972 1011
f 1036 1063 1022
f 1022 1063 910
f 1035 833 1036
f 1036 833 1063
f 1035 932 979
f 979 932 963
f 834 979 982
f 982 979 958
f 833 1035 834
f 834 1035 979
f 982 863 834
f 834 863 830
f 864 900 831
f 831 900 857
f 990 993 864
f 864 993 900
f 989 994 990
f 990 994 993
f 970 1058 989
f 989 1058 994
f 969 1018 970
f 970 1018 1058
f 1027 902 785
f 785 902 786
f 902 905 786
f 786 905 1019
f 905 1045 1019
f 1019 1045 788
f 788 1045 787
f 787 1045 789
