o hand_left
v -0.047462 0.140875 0.614392
v -0.051309 0.150073 0.618241
v -0.040311 0.149756 0.614893
v -0.037866 0.140694 0.610311
v -0.045288 0.170943 0.622451
v -0.046749 0.181561 0.616542
v -0.032650 0.175769 0.612194
v -0.032855 0.167626 0.618286
v -0.030710 0.139956 0.604861
v -0.031780 0.148911 0.611632
v -0.029664 0.141203 0.597998
v -0.033668 0.131153 0.590057
v -0.031923 0.131518 0.597902
v -0.034398 0.122698 0.587363
v -0.043349 0.134019 0.584056
v -0.042594 0.118191 0.583678
v -0.070743 0.123670 0.594967
v -0.079719 0.120651 0.605145
v -0.071235 0.105451 0.604428
v -0.062307 0.110232 0.594744
v -0.082908 0.108613 0.622139
v -0.076242 0.105958 0.612372
v -0.085604 0.120480 0.612268
v -0.091065 0.121934 0.621078
v -0.061615 0.141054 0.623901
v -0.066800 0.149939 0.626923
v -0.062189 0.149709 0.622838
v -0.057336 0.141580 0.619992
v -0.026061 0.152565 0.591186
v -0.037173 0.151788 0.587076
v -0.033756 0.144644 0.590160
v -0.024013 0.149741 0.595742
v -0.080294 0.171394 0.642481
v -0.089722 0.180594 0.638616
v -0.086866 0.182336 0.633674
v -0.079194 0.173167 0.638028
v -0.069110 0.186405 0.620231
v -0.079001 0.189120 0.618660
v -0.082835 0.194297 0.606195
v -0.074016 0.190114 0.604596
v -0.057378 0.184052 0.619167
v -0.061591 0.188618 0.606276
v -0.049909 0.185351 0.605671
v -0.034855 0.179188 0.603512
v -0.098074 0.175575 0.647323
v -0.092085 0.168421 0.651782
v -0.002081 0.096816 0.604116
v -0.004425 0.095448 0.609565
v -0.007239 0.096731 0.608330
v -0.004470 0.097690 0.603081
v -0.110742 0.159418 0.646742
v -0.116543 0.155234 0.639328
v -0.119694 0.161618 0.641258
v -0.113521 0.166529 0.646682
v -0.106919 0.150086 0.646792
v -0.111430 0.146780 0.636649
v 0.000885 0.085889 0.597578
v 0.001551 0.091091 0.598022
v -0.002284 0.090777 0.595278
v -0.003980 0.085570 0.594918
v -0.035352 0.132450 0.605460
v -0.042605 0.132867 0.612189
v -0.029884 0.116175 0.603724
v -0.035934 0.121835 0.606977
v -0.032925 0.124828 0.601030
v -0.029113 0.119363 0.598027
v -0.053015 0.119726 0.623829
v -0.058724 0.130116 0.624626
v -0.054068 0.130171 0.619719
v -0.046415 0.119681 0.618037
v -0.065577 0.128796 0.637244
v -0.059643 0.118481 0.635212
v -0.064087 0.118825 0.642697
v -0.066894 0.126492 0.643378
v -0.048927 0.101655 0.628592
v -0.046000 0.095407 0.627118
v -0.046907 0.094061 0.630206
v -0.051072 0.101319 0.631580
v -0.123365 0.167702 0.642084
v -0.115970 0.173382 0.645676
v -0.091522 0.111817 0.642045
v -0.091790 0.117599 0.651870
v -0.086920 0.105953 0.654090
v -0.087921 0.102886 0.642977
v -0.117142 0.152778 0.629002
v -0.122214 0.158139 0.631916
v -0.001448 0.080857 0.600589
v -0.006288 0.080630 0.598262
v -0.057330 0.181585 0.594545
v -0.038925 0.176861 0.594280
v -0.071595 0.184698 0.595382
v -0.081944 0.186413 0.596212
v -0.089317 0.190669 0.596551
v -0.037364 0.116536 0.611281
v -0.050894 0.134598 0.616864
v -0.064749 0.140611 0.628005
v -0.076152 0.134150 0.656425
v -0.080690 0.143985 0.656990
v -0.073105 0.143263 0.649330
v -0.071173 0.134557 0.650022
v -0.085726 0.120924 0.659015
v -0.077706 0.122502 0.659057
v -0.074189 0.113387 0.659001
v -0.081510 0.110697 0.659595
v -0.025776 0.159350 0.587610
v -0.039737 0.159063 0.585394
v -0.102598 0.164751 0.651323
v -0.104936 0.171855 0.648760
v -0.109873 0.178378 0.646284
v -0.072448 0.161288 0.634260
v -0.078321 0.174437 0.635008
v -0.075260 0.175206 0.631965
v -0.071190 0.160942 0.631295
v -0.054757 0.160151 0.624166
v -0.059184 0.173095 0.626583
v -0.042393 0.158763 0.621401
v -0.084040 0.186193 0.627024
v -0.092693 0.190856 0.632186
v -0.089311 0.193783 0.624349
v -0.098513 0.187042 0.639299
v -0.104450 0.182705 0.644582
v -0.129202 0.163119 0.632464
v -0.086775 0.195005 0.616281
v -0.024981 0.164608 0.614155
v -0.017852 0.163065 0.610273
v -0.019666 0.155216 0.609006
v -0.026232 0.155840 0.613034
v -0.032187 0.113874 0.586054
v -0.028596 0.117893 0.591903
v -0.031724 0.126077 0.593394
v -0.077472 0.160751 0.646599
v -0.087413 0.158830 0.654462
v -0.030988 0.110762 0.607659
v -0.009181 0.087154 0.592847
v -0.006850 0.092749 0.593247
v -0.021875 0.103774 0.588829
v -0.024746 0.097351 0.587878
v -0.030735 0.100070 0.607708
v -0.028454 0.106799 0.607347
v -0.027343 0.104422 0.607321
v -0.028316 0.098095 0.609291
v -0.053063 0.095717 0.637284
v -0.056288 0.102068 0.638673
v -0.052000 0.098005 0.597697
v -0.047646 0.103520 0.585353
v -0.053701 0.114609 0.586065
v -0.057442 0.119608 0.630004
v -0.052724 0.110036 0.630009
v -0.055074 0.109425 0.633516
v -0.037671 0.111980 0.613070
v -0.033470 0.106030 0.610778
v -0.037972 0.106301 0.613883
v -0.041812 0.111861 0.616691
v -0.098447 0.128882 0.649857
v -0.091497 0.132844 0.658587
v 0.000271 0.095119 0.600190
v -0.002622 0.095451 0.598274
v -0.062965 0.129823 0.630642
v -0.061047 0.127462 0.588495
v -0.067691 0.140196 0.632754
v -0.073224 0.092581 0.634084
v -0.069506 0.092630 0.640692
v -0.064683 0.088465 0.639894
v -0.067163 0.085902 0.634970
v -0.016451 0.089084 0.612012
v -0.013407 0.094118 0.612190
v -0.010219 0.092662 0.612254
v -0.012147 0.086909 0.612664
v -0.026524 0.111275 0.603797
v -0.025195 0.114209 0.598130
v -0.021541 0.110118 0.599487
v -0.024118 0.107411 0.604381
v -0.025079 0.112265 0.591843
v -0.020969 0.108561 0.593119
v -0.017579 0.083598 0.608315
v -0.015619 0.080555 0.601451
v -0.030952 0.089438 0.597908
v -0.029115 0.091372 0.605477
v -0.099777 0.134320 0.619402
v -0.103876 0.134484 0.629968
v -0.095378 0.122168 0.631917
v -0.088205 0.109634 0.633726
v -0.080091 0.098473 0.635058
v -0.077205 0.096698 0.622997
v -0.098373 0.123920 0.639494
v -0.039863 0.096350 0.605313
v -0.041505 0.095686 0.596307
v -0.045428 0.095253 0.601347
v -0.069885 0.139453 0.639972
v -0.006256 0.097427 0.596540
v -0.099004 0.170937 0.593966
v -0.108122 0.163942 0.601104
v -0.101424 0.158260 0.599884
v -0.090683 0.166317 0.592507
v -0.009696 0.098660 0.608283
v -0.007107 0.100327 0.602404
v -0.059459 0.099363 0.644265
v -0.056620 0.093979 0.641684
v -0.059033 0.090840 0.642773
v -0.061616 0.094706 0.647927
v -0.105917 0.136251 0.635447
v -0.083546 0.098651 0.654816
v -0.084621 0.096203 0.645247
v -0.111117 0.145353 0.627876
v -0.108066 0.145075 0.618399
v -0.114279 0.152708 0.618207
v -0.065107 0.092638 0.613663
v -0.094850 0.132971 0.612143
v -0.103544 0.144828 0.611999
v -0.110770 0.153962 0.611457
v -0.116664 0.159974 0.611376
v -0.119822 0.158044 0.618822
v -0.012220 0.082505 0.596478
v -0.009506 0.078007 0.604054
v -0.127363 0.163274 0.618993
v -0.123056 0.165552 0.610901
v -0.097837 0.145884 0.604622
v -0.089890 0.148202 0.596587
v -0.089460 0.134457 0.605191
v -0.081049 0.135644 0.597069
v -0.064325 0.094149 0.602805
v 0.003710 0.080089 0.616379
v -0.006551 0.080208 0.611794
v -0.007806 0.085523 0.614157
v 0.001820 0.083036 0.619054
v -0.012100 0.081435 0.609929
v -0.004597 0.078379 0.606522
v -0.069079 0.141376 0.589373
v -0.035382 0.100744 0.611935
v -0.075997 0.157462 0.589560
v -0.052113 0.145177 0.583040
v -0.056344 0.158146 0.585030
v -0.081096 0.175051 0.589806
v -0.064787 0.172572 0.587199
v -0.096610 0.183396 0.592950
v -0.089822 0.177960 0.591752
v -0.048460 0.170650 0.587322
v 0.004599 0.096000 0.611809
v 0.001505 0.093674 0.616384
v -0.105473 0.176326 0.594296
v -0.032929 0.156933 0.616999
v -0.072393 0.150216 0.640293
v -0.070687 0.150132 0.634764
v -0.083351 0.149916 0.656367
v -0.075034 0.151013 0.647993
v 0.007589 0.094866 0.607297
v -0.046282 0.090002 0.625845
v -0.047810 0.090778 0.626369
v -0.024668 0.172514 0.609866
v -0.018191 0.170418 0.607170
v -0.019670 0.171519 0.593617
v -0.017842 0.173271 0.600592
v -0.026185 0.176200 0.601825
v -0.028657 0.174564 0.594310
v -0.073196 0.161178 0.636903
v -0.074559 0.160430 0.640621
v -0.103049 0.140108 0.648583
v -0.095554 0.143588 0.656960
v -0.027992 0.108049 0.587496
v -0.038278 0.107783 0.583868
v -0.032347 0.102307 0.586435
v -0.029833 0.092934 0.590743
v -0.035416 0.096985 0.609041
v -0.034630 0.095964 0.604543
v -0.067801 0.173881 0.629543
v -0.065366 0.160369 0.627450
v -0.026908 0.149352 0.607682
v -0.021784 0.149805 0.603608
v -0.047766 0.112292 0.622416
v -0.054625 0.086373 0.614891
v -0.053916 0.088208 0.605911
v -0.043656 0.104353 0.620522
v 0.010421 0.087075 0.605106
v 0.009538 0.092013 0.605484
v -0.037820 0.097951 0.588596
v -0.058925 0.109413 0.641290
v -0.059973 0.089485 0.619334
v -0.050905 0.086055 0.621583
v -0.078818 0.104821 0.659813
v -0.114417 0.170387 0.601422
v -0.006808 0.091322 0.614169
v -0.000259 0.089570 0.619195
v 0.005362 0.079185 0.612382
v 0.007859 0.081545 0.607095
v -0.097949 0.154016 0.654293
v -0.069206 0.149687 0.631148
v -0.035567 0.168882 0.588019
v -0.023442 0.166289 0.588861
v -0.041648 0.099725 0.619488
v -0.077315 0.094320 0.640343
v -0.070962 0.089401 0.625081
v -0.064662 0.082694 0.626850
v -0.057714 0.083095 0.623180
v -0.050473 0.085319 0.624080
v 0.010004 0.080251 0.616195
v 0.012429 0.082592 0.611082
v 0.014435 0.088225 0.608835
v 0.013122 0.092664 0.608770
v 0.009915 0.095267 0.610366
v 0.008261 0.081178 0.620382
v 0.006304 0.084009 0.622486
v 0.002617 0.089315 0.621457
v 0.011182 0.083370 0.624005
v 0.016236 0.083232 0.621909
v 0.022518 0.095577 0.618487
v 0.020249 0.091240 0.614928
v 0.021588 0.090708 0.617350
v 0.023872 0.093662 0.620833
v 0.026499 0.095347 0.625091
v 0.025416 0.097959 0.622892
v 0.019351 0.086539 0.618125
v 0.022447 0.089920 0.623309
v 0.020229 0.087793 0.626341
v 0.023513 0.090278 0.630206
v 0.025745 0.092084 0.627637
v 0.018534 0.085379 0.622587
v 0.018210 0.085099 0.616340
v 0.026918 0.098227 0.627356
v 0.027807 0.095850 0.627723
v 0.026963 0.093618 0.630139
v 0.026777 0.096104 0.632035
v 0.016031 0.094615 0.612200
v 0.021005 0.097794 0.618293
v 0.022888 0.099765 0.623838
v 0.024620 0.099764 0.628189
v 0.018274 0.099578 0.620982
v 0.020327 0.100313 0.625329
v 0.021427 0.100088 0.629279
v 0.015409 0.099643 0.624312
v 0.017972 0.099895 0.627575
v 0.008623 0.096275 0.615710
v 0.011404 0.096218 0.612373
v 0.019297 0.100234 0.629820
v 0.025040 0.097174 0.633018
v 0.016931 0.086358 0.627513
v 0.020767 0.090521 0.631965
v 0.014862 0.087086 0.628694
v 0.018752 0.090812 0.633277
v 0.024025 0.092636 0.634285
v 0.025100 0.092076 0.631968
v 0.005922 0.095562 0.613774
v 0.002914 0.092898 0.618547
v 0.005212 0.093409 0.620332
v 0.012607 0.097385 0.627737
v 0.005064 0.090222 0.623560
v 0.008972 0.086210 0.625749
v 0.013412 0.089423 0.630137
v 0.012068 0.092724 0.630156
v 0.016743 0.092520 0.633235
v 0.015738 0.094750 0.632315
v 0.016093 0.098206 0.630381
v 0.019594 0.095317 0.634386
v 0.022067 0.093655 0.634844
v 0.021719 0.098142 0.632806
v 0.017992 0.096134 0.633529
v 0.019230 0.098341 0.631748
v -0.015148 0.082342 0.626439
v -0.018373 0.080804 0.631948
v -0.021280 0.080736 0.628347
v -0.018357 0.081936 0.623837
v -0.012565 0.070164 0.619120
v -0.011819 0.076444 0.620194
v -0.015684 0.075499 0.616319
v -0.017892 0.068931 0.616073
v -0.016249 0.064974 0.622481
v -0.022058 0.064670 0.619627
v -0.022846 0.070933 0.612866
v -0.020196 0.077726 0.613761
v -0.035987 0.090493 0.607641
v -0.039648 0.084686 0.605917
v -0.041098 0.092287 0.625053
v -0.042644 0.088599 0.625400
v -0.013163 0.080651 0.623159
v -0.016417 0.079965 0.619775
v -0.029112 0.077433 0.632104
v -0.026099 0.081937 0.630794
v -0.023742 0.078926 0.632286
v -0.025618 0.073743 0.633545
v -0.035325 0.095973 0.614336
v -0.038621 0.094646 0.619848
v -0.034732 0.094026 0.610901
v -0.031108 0.071183 0.630134
v -0.031097 0.066447 0.624948
v -0.046907 0.078122 0.617127
v -0.045749 0.080846 0.622934
v -0.019421 0.082218 0.617054
v -0.022478 0.084247 0.626838
v -0.020209 0.084949 0.622023
v -0.027952 0.067243 0.617236
v -0.024884 0.064077 0.627408
v -0.010082 0.068221 0.641013
v -0.020720 0.067683 0.635049
v -0.021131 0.072759 0.636652
v -0.010921 0.072549 0.643596
v -0.025913 0.068095 0.632068
v -0.019223 0.064550 0.630067
v -0.004801 0.083141 0.636666
v -0.008260 0.081420 0.641904
v -0.002225 0.081841 0.632960
v -0.044502 0.080042 0.609544
v -0.002106 0.072422 0.628145
v -0.001369 0.078828 0.629956
v -0.020808 0.077881 0.635685
v -0.010212 0.077429 0.644392
v -0.008343 0.066162 0.637228
v -0.005737 0.067072 0.630366
v -0.003019 0.067310 0.640285
v -0.000305 0.068349 0.634661
v 0.002701 0.073449 0.631954
v 0.002006 0.079152 0.632914
v 0.000031 0.081922 0.635209
v -0.004663 0.069045 0.643922
v -0.006187 0.072915 0.646417
v -0.007353 0.077792 0.645647
v 0.000146 0.072736 0.648885
v 0.003651 0.070968 0.646248
v 0.015652 0.084974 0.644136
v 0.012144 0.081661 0.640450
v 0.012759 0.079604 0.642009
v 0.015931 0.082497 0.645553
v 0.009463 0.076761 0.637531
v 0.010303 0.076298 0.639858
v 0.007957 0.073046 0.642382
v 0.011114 0.077087 0.645896
v 0.008090 0.075461 0.649408
v 0.011910 0.078033 0.652942
v 0.015223 0.079471 0.649620
v 0.006744 0.072744 0.646121
v 0.017660 0.083773 0.648527
v 0.017747 0.086278 0.649302
v 0.006617 0.071118 0.640307
v 0.005329 0.080042 0.634718
v 0.010839 0.084548 0.640240
v 0.014120 0.087826 0.645037
v 0.015975 0.088151 0.651048
v 0.008408 0.087317 0.642442
v 0.011946 0.089367 0.646999
v 0.013448 0.088918 0.651888
v 0.005293 0.088611 0.645900
v 0.009104 0.089843 0.650203
v -0.001794 0.083888 0.639352
v 0.001801 0.083203 0.636039
v 0.011035 0.089336 0.652007
v 0.017656 0.083719 0.653490
v 0.015813 0.086262 0.654835
v 0.017315 0.082305 0.652277
v 0.006509 0.075431 0.650924
v 0.010570 0.079072 0.654485
v 0.004592 0.076758 0.652679
v 0.009508 0.080655 0.656075
v 0.014300 0.081567 0.656165
v 0.015160 0.080833 0.654842
v -0.003028 0.082401 0.638453
v -0.006225 0.080829 0.642985
v -0.005089 0.082190 0.643767
v 0.002539 0.086577 0.650111
v -0.005785 0.078811 0.647089
v -0.002618 0.075367 0.649439
v 0.002622 0.078816 0.653355
v 0.001807 0.082799 0.652944
v 0.007875 0.081834 0.657036
v 0.005824 0.084030 0.655614
v 0.006662 0.088165 0.653136
v 0.011796 0.084380 0.657861
v 0.013496 0.082811 0.657194
v 0.013787 0.087278 0.654996
v 0.009240 0.085649 0.656817
v 0.010684 0.088194 0.654516
v -0.033246 0.075999 0.641792
v -0.036650 0.076071 0.646680
v -0.039218 0.077262 0.644583
v -0.035930 0.076617 0.639791
v -0.034465 0.064418 0.635895
v -0.031902 0.068726 0.636263
v -0.035387 0.069584 0.633361
v -0.039105 0.065670 0.632184
v -0.036978 0.060952 0.639784
v -0.043618 0.062485 0.634997
v -0.043430 0.068046 0.629191
v -0.038535 0.071450 0.631052
v -0.048012 0.082162 0.625743
v -0.053229 0.077928 0.624582
v -0.031933 0.072963 0.638555
v -0.034639 0.073676 0.636357
v -0.046674 0.075393 0.648303
v -0.043118 0.078485 0.646943
v -0.042596 0.074975 0.648190
v -0.044948 0.071157 0.649069
v -0.046471 0.090603 0.632591
v -0.050962 0.091189 0.636994
v -0.045490 0.086596 0.629241
v -0.050111 0.069943 0.645958
v -0.051776 0.065847 0.639882
v -0.061386 0.077513 0.636343
v -0.059812 0.081828 0.640497
v -0.036539 0.075197 0.634281
v -0.039619 0.080287 0.643262
v -0.036591 0.079000 0.638462
v -0.048528 0.066192 0.632817
v -0.046513 0.062221 0.641879
v -0.028979 0.060565 0.657548
v -0.042999 0.064125 0.649341
v -0.041936 0.069829 0.651243
v -0.029271 0.064572 0.659699
v -0.046541 0.065754 0.647404
v -0.041406 0.060697 0.644907
v -0.021964 0.073447 0.651488
v -0.025459 0.072800 0.655876
v -0.021358 0.071085 0.647564
v -0.059036 0.075749 0.628447
v -0.056266 0.087659 0.641495
v -0.021539 0.063613 0.645368
v -0.020930 0.068056 0.645808
v -0.040066 0.073614 0.650126
v -0.028320 0.069184 0.659369
v -0.028045 0.058212 0.653164
v -0.025296 0.059167 0.647391
v -0.023368 0.058237 0.656643
v -0.020612 0.059257 0.650831
v -0.017318 0.063613 0.648196
v -0.017464 0.068364 0.648481
v -0.018364 0.071412 0.650126
v -0.024593 0.061021 0.660825
v -0.025186 0.064782 0.662336
v -0.026472 0.069286 0.659917
v -0.021214 0.062242 0.663791
v -0.017282 0.059518 0.660902
v -0.003020 0.069718 0.660963
v -0.007413 0.068139 0.657129
v -0.007574 0.067115 0.657826
v -0.003013 0.068086 0.661674
v -0.011855 0.064444 0.653270
v -0.010929 0.064231 0.655039
v -0.013046 0.061405 0.656994
v -0.008428 0.063198 0.661431
v -0.012837 0.062760 0.665713
v -0.008405 0.064274 0.668519
v -0.003998 0.064503 0.664889
v -0.015208 0.060563 0.660989
v -0.001055 0.068281 0.664413
v 0.000223 0.069654 0.663863
v -0.014823 0.060220 0.655437
v -0.013141 0.068918 0.651415
v -0.007762 0.071085 0.656456
v -0.003351 0.072873 0.660308
v -0.001349 0.073001 0.664406
v -0.009776 0.074102 0.657915
v -0.005616 0.074831 0.661518
v -0.003744 0.074813 0.665182
v -0.011918 0.075449 0.660205
v -0.008176 0.075699 0.663436
v -0.019122 0.073579 0.654209
v -0.015869 0.072024 0.652063
v -0.006002 0.075253 0.665772
v -0.000795 0.067594 0.668165
v -0.002493 0.071200 0.669778
v -0.001847 0.066667 0.667109
v -0.014501 0.062812 0.666636
v -0.009266 0.064980 0.670651
v -0.016297 0.064718 0.667900
v -0.010992 0.066854 0.671731
v -0.004915 0.066104 0.671197
v -0.004838 0.065612 0.670050
v -0.020841 0.073069 0.652876
v -0.024269 0.072387 0.656765
v -0.022551 0.072958 0.657810
v -0.014760 0.075048 0.664184
v -0.024634 0.070070 0.661162
v -0.021920 0.065918 0.664873
v -0.016994 0.068030 0.668083
v -0.016462 0.071845 0.667292
v -0.012073 0.069482 0.671375
v -0.012740 0.071746 0.669637
v -0.010741 0.075420 0.666842
v -0.007995 0.070739 0.671553
v -0.006352 0.068253 0.672256
v -0.004829 0.073432 0.669414
v -0.009358 0.072622 0.670431
v -0.007031 0.074587 0.668656
v -0.054026 0.090259 0.640185
v -0.052958 0.076563 0.659451
v -0.054406 0.077269 0.663398
v -0.056416 0.078734 0.662857
v -0.055021 0.079075 0.658734
v -0.059647 0.069340 0.653250
v -0.055514 0.071788 0.653934
v -0.058432 0.074369 0.651813
v -0.062757 0.072180 0.651191
v -0.063955 0.067953 0.656162
v -0.067029 0.070809 0.654867
v -0.064761 0.074668 0.650103
v -0.060446 0.077198 0.650582
v -0.067850 0.089619 0.644100
v -0.073668 0.088525 0.643697
v -0.076226 0.099657 0.659197
v -0.070845 0.102270 0.658505
v -0.068205 0.094733 0.660262
v -0.072891 0.093322 0.661245
v -0.053502 0.074437 0.656218
v -0.055451 0.077283 0.654736
v -0.065856 0.079219 0.666928
v -0.061416 0.081101 0.665933
v -0.058903 0.078293 0.666290
v -0.062529 0.075975 0.668496
v -0.066432 0.101151 0.655062
v -0.064053 0.099488 0.651293
v -0.062570 0.095379 0.652308
v -0.064284 0.094454 0.657152
v -0.062234 0.092152 0.647881
v -0.069167 0.076783 0.665231
v -0.071469 0.074040 0.660138
v -0.080615 0.089843 0.655691
v -0.077747 0.092249 0.659215
v -0.057191 0.079027 0.653559
v -0.058200 0.081688 0.662552
v -0.056421 0.080876 0.658497
v -0.069635 0.073451 0.653525
v -0.068236 0.070830 0.661557
v -0.057760 0.065635 0.670882
v -0.063906 0.070809 0.667945
v -0.060506 0.074141 0.669261
v -0.056064 0.068355 0.672016
v -0.066069 0.073320 0.666787
v -0.065031 0.067897 0.663013
v -0.047974 0.072600 0.662871
v -0.050638 0.072944 0.667703
v -0.047947 0.070763 0.659933
v -0.079067 0.088016 0.647785
v -0.052180 0.064690 0.657637
v -0.048865 0.067802 0.658222
v -0.056842 0.076316 0.666854
v -0.053482 0.071261 0.671009
v -0.058299 0.062853 0.666875
v -0.056899 0.062551 0.660509
v -0.053841 0.060877 0.668620
v -0.052561 0.060852 0.662235
v -0.047968 0.064297 0.659425
v -0.046666 0.068117 0.659870
v -0.046361 0.070953 0.661562
v -0.053931 0.064061 0.672536
v -0.053143 0.066970 0.673410
v -0.051857 0.070363 0.671889
v -0.050047 0.062973 0.674067
v -0.047485 0.060335 0.670750
v -0.035148 0.066103 0.669002
v -0.038487 0.066229 0.666277
v -0.038774 0.065104 0.666746
v -0.035116 0.064978 0.668939
v -0.042959 0.064602 0.663170
v -0.042281 0.063757 0.664655
v -0.045033 0.061568 0.665948
v -0.040370 0.061649 0.668978
v -0.042658 0.060932 0.673931
v -0.038705 0.060985 0.675705
v -0.037013 0.061270 0.671119
v -0.045557 0.060334 0.670208
v -0.033134 0.063845 0.670714
v -0.032034 0.064665 0.671187
v -0.046871 0.060928 0.664602
v -0.043219 0.068744 0.662414
v -0.037604 0.068725 0.666618
v -0.033610 0.067867 0.669939
v -0.031745 0.066197 0.673032
v -0.038699 0.070958 0.667488
v -0.034002 0.069872 0.671172
v -0.032413 0.068167 0.674189
v -0.040416 0.072741 0.669902
v -0.035719 0.071019 0.672879
v -0.045997 0.073387 0.666637
v -0.044068 0.071707 0.663979
v -0.033879 0.069111 0.674677
v -0.032763 0.062059 0.674199
v -0.032579 0.064594 0.675954
v -0.033905 0.061141 0.673321
v -0.043497 0.061252 0.675116
v -0.038744 0.061492 0.677381
v -0.044478 0.062883 0.676808
v -0.038915 0.063323 0.678653
v -0.035096 0.061633 0.677086
v -0.035850 0.060857 0.675427
v -0.047015 0.072880 0.665134
v -0.049336 0.072519 0.668517
v -0.048337 0.072577 0.670360
v -0.042756 0.072234 0.673437
v -0.050433 0.069822 0.673508
v -0.050802 0.066058 0.674762
v -0.044741 0.065639 0.677440
v -0.044246 0.069065 0.676717
v -0.038701 0.065557 0.678952
v -0.038805 0.068560 0.678049
v -0.037657 0.070857 0.675750
v -0.034891 0.065726 0.678027
v -0.034618 0.063797 0.678048
v -0.033246 0.066552 0.676540
v -0.035479 0.067613 0.677701
v -0.034687 0.068479 0.676459
v -0.078667 0.096435 0.658130
v -0.011775 0.155837 0.589062
v -0.013048 0.151658 0.592432
v -0.007524 0.156353 0.607884
v -0.009473 0.150718 0.603497
v -0.005447 0.163271 0.607451
v -0.004807 0.170472 0.598250
v -0.005522 0.168355 0.603914
v -0.011588 0.149390 0.597710
v -0.009925 0.161887 0.588148
v -0.007220 0.168550 0.591527
v -0.000718 0.157169 0.585209
v 0.003019 0.164769 0.589013
v 0.005541 0.167693 0.595679
v 0.001667 0.166035 0.603500
v -0.000249 0.162611 0.607212
v -0.006131 0.152103 0.589451
v -0.008169 0.149160 0.593309
v -0.008016 0.148417 0.599831
v -0.000451 0.146320 0.591951
v 0.009567 0.145855 0.593825
v 0.022769 0.149462 0.609382
v 0.017702 0.153807 0.606801
v 0.018223 0.152113 0.604645
v 0.023167 0.148529 0.607032
v 0.014826 0.156321 0.602099
v 0.015099 0.154029 0.601499
v 0.012955 0.151418 0.597348
v 0.017386 0.147671 0.600255
v 0.011355 0.146485 0.596310
v 0.013709 0.142941 0.598682
v 0.021773 0.144035 0.602551
v 0.026003 0.145361 0.606809
v 0.025376 0.141034 0.604703
v 0.025967 0.144880 0.609978
v 0.013837 0.153076 0.593862
v 0.010588 0.160959 0.604936
v 0.015788 0.155287 0.609465
v 0.020692 0.149617 0.612540
v 0.023891 0.144154 0.612476
v 0.012633 0.153986 0.612447
v 0.016836 0.148281 0.614095
v 0.019191 0.143006 0.613563
v 0.008944 0.150475 0.613241
v 0.013596 0.145631 0.613695
v -0.000507 0.156122 0.609331
v 0.004683 0.160714 0.608785
v 0.016395 0.142742 0.613075
v 0.025899 0.139142 0.607090
v 0.023374 0.138468 0.609636
v 0.010867 0.141088 0.597803
v 0.017903 0.139409 0.600610
v 0.015621 0.137618 0.601250
v 0.007053 0.140051 0.598595
v 0.013510 0.136551 0.602724
v 0.020990 0.136356 0.603938
v 0.021860 0.138636 0.602414
v -0.003452 0.157014 0.608433
v -0.006508 0.151744 0.605189
v -0.004244 0.151410 0.606143
v 0.004953 0.145468 0.610272
v -0.005110 0.147062 0.601958
v -0.003490 0.145539 0.596338
v 0.004661 0.139737 0.601440
v 0.003542 0.141524 0.605710
v 0.011409 0.137246 0.605602
v 0.010460 0.138991 0.607968
v 0.011522 0.142063 0.611684
v 0.016235 0.136918 0.608279
v 0.018674 0.135642 0.605980
v 0.019038 0.138966 0.611237
v 0.014274 0.138428 0.609225
v 0.015746 0.140194 0.611550
v -0.072075 0.108298 0.658617
v -0.066819 0.108381 0.654325
v -0.069519 0.114753 0.655530
v -0.072609 0.124249 0.656092
v -0.080777 0.130921 0.659070
v -0.069025 0.125289 0.650135
v -0.065908 0.115550 0.649956
v -0.062478 0.106365 0.647995
v -0.069480 0.133823 0.643844
f 2 3 1
f 1 3 4
f 5 6 8
f 8 6 7
f 9 4 10
f 10 4 3
f 12 13 11
f 11 13 9
f 14 12 16
f 16 12 15
f 18 19 17
f 17 19 20
f 22 23 21
f 21 23 24
f 26 27 25
f 25 27 28
f 30 31 29
f 29 31 32
f 33 34 36
f 36 34 35
f 37 38 40
f 40 38 39
f 41 42 6
f 6 42 43
f 6 43 7
f 7 43 44
f 45 34 46
f 46 34 33
f 48 49 47
f 47 49 50
f 52 53 51
f 51 53 54
f 56 52 55
f 55 52 51
f 58 59 57
f 57 59 60
f 61 62 4
f 4 62 1
f 64 65 63
f 63 65 66
f 68 69 67
f 67 69 70
f 72 73 71
f 71 73 74
f 76 77 75
f 75 77 78
f 53 79 54
f 54 79 80
f 82 83 81
f 81 83 84
f 85 86 52
f 52 86 53
f 57 60 87
f 87 60 88
f 89 90 43
f 43 90 44
f 43 42 89
f 89 42 91
f 40 39 92
f 92 39 93
f 94 70 64
f 64 70 69
f 13 61 9
f 9 61 4
f 25 28 69
f 69 28 95
f 96 25 68
f 68 25 69
f 98 99 97
f 97 99 100
f 101 102 104
f 104 102 103
f 106 30 105
f 105 30 29
f 51 54 107
f 107 54 108
f 54 80 108
f 108 80 109
f 111 112 110
f 110 112 113
f 115 5 114
f 114 5 116
f 115 41 5
f 5 41 6
f 36 35 111
f 111 35 117
f 35 118 117
f 117 118 119
f 34 120 35
f 35 120 118
f 34 45 120
f 120 45 121
f 125 126 124
f 124 126 127
f 128 129 14
f 14 129 130
f 33 131 46
f 46 131 132
f 133 94 63
f 63 94 64
f 134 135 137
f 137 135 136
f 139 140 138
f 138 140 141
f 77 142 78
f 78 142 143
f 144 145 20
f 20 145 146
f 148 149 147
f 147 149 72
f 151 152 150
f 150 152 153
f 82 101 83
f 83 101 104
f 101 82 155
f 155 82 154
f 156 157 58
f 58 157 59
f 158 68 147
f 147 68 67
f 159 146 15
f 15 146 16
f 68 158 96
f 96 158 160
f 129 66 130
f 130 66 65
f 162 163 161
f 161 163 164
f 166 167 165
f 165 167 168
f 170 171 169
f 169 171 172
f 174 171 173
f 173 171 170
f 176 177 175
f 175 177 178
f 180 181 179
f 179 181 24
f 182 183 21
f 21 183 184
f 81 185 82
f 82 185 154
f 186 187 188
f 188 187 144
f 158 71 160
f 160 71 189
f 190 135 157
f 157 135 59
f 169 172 139
f 139 172 140
f 147 72 158
f 158 72 71
f 192 193 191
f 191 193 194
f 167 166 49
f 49 166 195
f 196 190 50
f 50 190 157
f 197 198 200
f 200 198 199
f 21 24 182
f 182 24 181
f 146 159 20
f 20 159 17
f 182 181 81
f 81 181 185
f 201 185 180
f 180 185 181
f 202 203 83
f 83 203 84
f 205 206 204
f 204 206 85
f 207 22 184
f 184 22 21
f 179 24 208
f 208 24 23
f 208 209 179
f 179 209 205
f 209 210 205
f 205 210 206
f 212 206 211
f 211 206 210
f 179 205 180
f 180 205 204
f 213 176 88
f 88 176 214
f 86 85 212
f 212 85 206
f 193 217 218
f 217 219 218
f 218 219 220
f 219 18 220
f 220 18 17
f 19 221 20
f 20 221 144
f 222 223 225
f 225 223 224
f 175 226 176
f 176 226 214
f 227 87 214
f 214 87 88
f 220 17 228
f 228 17 159
f 134 213 60
f 60 213 88
f 138 229 151
f 151 229 152
f 193 192 210
f 210 192 211
f 230 194 218
f 218 194 193
f 231 232 228
f 228 232 230
f 233 234 91
f 91 234 89
f 235 236 93
f 93 236 92
f 230 232 234
f 234 232 237
f 47 238 48
f 48 238 239
f 240 191 235
f 235 191 236
f 5 8 116
f 116 8 241
f 242 243 189
f 189 243 160
f 244 245 98
f 98 245 99
f 156 246 47
f 47 246 238
f 76 247 77
f 77 247 248
f 250 125 249
f 249 125 124
f 252 253 251
f 251 253 254
f 111 110 36
f 36 110 255
f 256 33 255
f 255 33 36
f 257 258 154
f 154 258 155
f 63 169 133
f 133 169 139
f 66 170 63
f 63 170 169
f 173 170 129
f 129 170 66
f 129 128 173
f 173 128 259
f 128 260 259
f 259 260 261
f 213 134 262
f 262 134 137
f 263 264 186
f 186 264 187
f 112 265 113
f 113 265 266
f 11 267 268
f 234 233 230
f 230 233 194
f 153 269 70
f 70 269 67
f 175 178 165
f 165 178 141
f 150 153 94
f 94 153 70
f 271 221 270
f 270 221 207
f 269 153 272
f 272 153 152
f 121 45 109
f 109 45 108
f 47 50 156
f 156 50 157
f 57 273 58
f 58 273 274
f 145 275 260
f 260 275 261
f 276 149 143
f 143 149 78
f 148 269 75
f 75 269 272
f 207 277 270
f 270 277 278
f 195 196 49
f 49 196 50
f 59 135 60
f 60 135 134
f 83 104 202
f 202 104 279
f 149 148 78
f 78 148 75
f 247 278 248
f 248 278 277
f 183 182 84
f 84 182 81
f 48 239 281
f 281 239 282
f 227 223 283
f 283 223 222
f 223 226 224
f 224 226 168
f 281 282 224
f 224 282 225
f 165 168 175
f 175 168 226
f 264 263 138
f 138 263 229
f 14 16 128
f 128 16 260
f 220 228 218
f 218 228 230
f 87 227 284
f 284 227 283
f 260 16 145
f 145 16 146
f 244 98 258
f 258 98 155
f 58 274 156
f 156 274 246
f 107 285 51
f 51 285 55
f 243 286 160
f 160 286 96
f 234 237 89
f 89 237 90
f 46 132 107
f 107 132 285
f 253 252 249
f 249 252 250
f 286 26 96
f 96 26 25
f 106 105 287
f 287 105 288
f 272 152 289
f 289 152 229
f 138 151 139
f 139 151 133
f 183 290 161
f 161 290 162
f 291 292 277
f 277 292 293
f 151 150 133
f 133 150 94
f 262 275 177
f 177 275 187
f 144 187 145
f 145 187 275
f 273 57 284
f 284 57 87
f 174 136 190
f 190 136 135
f 111 117 112
f 112 117 38
f 117 119 38
f 38 119 123
f 112 38 265
f 265 38 37
f 287 288 254
f 254 288 251
f 228 159 231
f 231 159 15
f 223 227 226
f 226 227 214
f 147 67 148
f 148 67 269
f 224 168 281
f 281 168 167
f 199 163 200
f 200 163 162
f 45 46 108
f 108 46 107
f 281 167 48
f 48 167 49
f 161 164 291
f 291 164 292
f 38 123 39
f 293 294 277
f 277 294 248
f 284 283 296
f 296 283 295
f 284 296 273
f 273 296 297
f 274 273 298
f 298 273 297
f 246 274 299
f 299 274 298
f 283 222 295
f 295 222 300
f 222 225 300
f 300 225 301
f 301 225 302
f 302 225 282
f 303 304 300
f 300 304 295
f 306 307 305
f 305 307 308
f 309 310 308
f 308 310 305
f 308 307 312
f 312 307 311
f 313 314 312
f 312 314 315
f 311 316 312
f 312 316 313
f 317 304 311
f 311 304 316
f 315 309 312
f 312 309 308
f 318 319 321
f 321 319 320
f 319 318 309
f 309 318 310
f 311 307 317
f 317 307 306
f 306 297 317
f 317 297 296
f 306 322 297
f 297 322 298
f 305 323 306
f 306 323 322
f 323 305 324
f 324 305 310
f 304 317 295
f 295 317 296
f 318 325 310
f 310 325 324
f 323 324 326
f 326 324 327
f 324 325 327
f 327 325 328
f 326 327 329
f 329 327 330
f 329 331 326
f 326 331 332
f 333 330 328
f 328 330 327
f 323 326 322
f 322 326 332
f 322 332 298
f 298 332 299
f 325 318 334
f 334 318 321
f 313 316 335
f 335 316 304
f 335 336 313
f 313 336 314
f 304 303 335
f 335 303 337
f 336 335 338
f 338 335 337
f 336 339 314
f 314 339 340
f 246 299 238
f 238 299 341
f 239 342 282
f 282 342 302
f 342 239 341
f 341 239 238
f 341 331 342
f 342 331 343
f 331 329 343
f 343 329 344
f 342 343 302
f 302 343 345
f 341 299 331
f 331 299 332
f 346 301 345
f 345 301 302
f 346 303 301
f 301 303 300
f 347 337 346
f 346 337 303
f 347 346 348
f 348 346 345
f 349 347 350
f 350 347 348
f 343 344 345
f 345 344 348
f 344 351 348
f 348 351 350
f 337 347 338
f 338 347 349
f 353 338 352
f 352 338 349
f 352 355 354
f 354 355 356
f 352 349 355
f 355 349 350
f 352 354 353
f 353 354 334
f 353 334 339
f 339 334 321
f 339 336 353
f 353 336 338
f 329 330 344
f 344 330 351
f 356 351 333
f 333 351 330
f 356 355 351
f 351 355 350
f 354 356 328
f 328 356 333
f 328 325 354
f 354 325 334
f 309 315 319
f 319 315 320
f 320 340 321
f 321 340 339
f 320 315 340
f 340 315 314
f 137 136 261
f 261 136 259
f 140 166 141
f 141 166 165
f 172 171 195
f 195 171 196
f 171 174 196
f 196 174 190
f 178 177 264
f 264 177 187
f 172 195 140
f 140 195 166
f 137 261 262
f 262 261 275
f 178 264 141
f 141 264 138
f 262 177 213
f 213 177 176
f 136 174 259
f 259 174 173
f 358 359 357
f 357 359 360
f 362 363 361
f 361 363 364
f 361 364 365
f 365 364 366
f 367 368 370
f 370 368 369
f 76 371 247
f 247 371 372
f 373 374 362
f 362 374 363
f 376 377 375
f 375 377 378
f 289 229 380
f 380 229 379
f 381 379 263
f 263 379 229
f 383 384 382
f 382 384 385
f 386 368 374
f 374 368 363
f 76 289 371
f 371 289 380
f 377 376 359
f 359 376 387
f 388 386 360
f 360 386 374
f 389 383 366
f 366 383 390
f 392 393 391
f 391 393 394
f 383 382 390
f 390 382 395
f 396 365 390
f 390 365 366
f 389 366 367
f 367 366 364
f 357 397 358
f 358 397 398
f 373 399 357
f 357 399 397
f 389 367 400
f 400 367 370
f 382 385 375
f 375 385 372
f 357 360 373
f 373 360 374
f 361 401 362
f 362 401 402
f 387 388 359
f 359 388 360
f 363 368 364
f 364 368 367
f 358 398 403
f 403 398 404
f 396 392 405
f 405 392 391
f 392 395 393
f 393 395 378
f 393 403 394
f 394 403 404
f 375 378 382
f 382 378 395
f 365 396 406
f 406 396 405
f 362 402 373
f 373 402 399
f 271 270 400
f 400 270 384
f 401 361 406
f 406 361 365
f 381 369 386
f 386 369 368
f 392 396 395
f 395 396 390
f 393 378 403
f 403 378 377
f 403 377 358
f 358 377 359
f 406 405 408
f 408 405 407
f 406 408 401
f 401 408 409
f 401 409 402
f 402 409 410
f 402 410 399
f 399 410 411
f 405 391 407
f 407 391 412
f 391 394 412
f 412 394 413
f 394 404 413
f 413 404 414
f 415 416 412
f 412 416 407
f 418 419 417
f 417 419 420
f 421 422 418
f 418 422 419
f 419 422 424
f 424 422 423
f 425 426 424
f 424 426 427
f 423 428 424
f 424 428 425
f 427 420 424
f 424 420 419
f 420 429 417
f 417 429 430
f 423 422 431
f 431 422 421
f 421 409 431
f 431 409 408
f 421 432 409
f 409 432 410
f 418 433 421
f 421 433 432
f 434 433 417
f 417 433 418
f 431 416 423
f 423 416 428
f 416 431 407
f 407 431 408
f 435 434 430
f 430 434 417
f 433 434 436
f 436 434 437
f 434 435 437
f 437 435 438
f 436 437 439
f 439 437 440
f 439 441 436
f 436 441 442
f 438 443 437
f 437 443 440
f 436 442 433
f 433 442 432
f 432 442 410
f 410 442 411
f 435 430 445
f 445 430 444
f 430 429 444
f 444 429 446
f 425 428 447
f 447 428 416
f 426 425 448
f 448 425 447
f 416 415 447
f 447 415 449
f 447 449 448
f 448 449 450
f 451 452 448
f 448 452 426
f 446 452 444
f 444 452 451
f 399 411 397
f 397 411 453
f 398 454 404
f 404 454 414
f 454 398 453
f 453 398 397
f 453 441 454
f 454 441 455
f 441 439 455
f 455 439 456
f 454 455 414
f 414 455 457
f 441 453 442
f 442 453 411
f 458 413 457
f 457 413 414
f 458 415 413
f 413 415 412
f 458 459 415
f 415 459 449
f 459 458 460
f 460 458 457
f 461 459 462
f 462 459 460
f 455 456 457
f 457 456 460
f 456 463 460
f 460 463 462
f 459 461 449
f 449 461 450
f 465 450 464
f 464 450 461
f 464 467 466
f 466 467 468
f 464 461 467
f 467 461 462
f 464 466 465
f 465 466 445
f 465 445 451
f 451 445 444
f 451 448 465
f 465 448 450
f 439 440 456
f 456 440 463
f 468 463 443
f 443 463 440
f 468 467 463
f 463 467 462
f 466 468 438
f 438 468 443
f 438 435 466
f 466 435 445
f 420 427 429
f 429 427 446
f 446 427 452
f 452 427 426
f 370 369 188
f 188 369 186
f 371 376 372
f 372 376 375
f 380 379 387
f 387 379 388
f 379 381 388
f 388 381 386
f 385 384 278
f 278 384 270
f 380 387 371
f 371 387 376
f 400 370 271
f 271 370 188
f 385 278 372
f 372 278 247
f 400 384 389
f 389 384 383
f 369 381 186
f 186 381 263
f 221 271 144
f 144 271 188
f 221 19 207
f 207 19 22
f 19 18 22
f 22 18 23
f 18 219 23
f 23 219 208
f 469 470 472
f 472 470 471
f 474 475 473
f 473 475 476
f 473 476 477
f 477 476 478
f 480 481 479
f 479 481 482
f 483 484 474
f 474 484 475
f 486 487 485
f 485 487 488
f 489 490 77
f 77 490 142
f 491 489 248
f 248 489 77
f 493 494 492
f 492 494 495
f 496 480 484
f 484 480 475
f 486 497 487
f 487 497 471
f 498 496 472
f 472 496 484
f 499 493 478
f 478 493 500
f 501 502 504
f 504 502 503
f 493 492 500
f 500 492 505
f 506 477 500
f 500 477 478
f 499 478 479
f 479 478 476
f 469 507 470
f 470 507 508
f 483 509 469
f 469 509 507
f 479 482 499
f 499 482 510
f 492 495 485
f 485 495 511
f 483 469 484
f 484 469 472
f 473 512 474
f 474 512 513
f 497 498 471
f 471 498 472
f 475 480 476
f 476 480 479
f 470 508 514
f 514 508 515
f 506 502 516
f 516 502 501
f 503 502 488
f 488 502 505
f 514 515 503
f 503 515 504
f 485 488 492
f 492 488 505
f 477 506 517
f 517 506 516
f 474 513 483
f 483 513 509
f 510 292 494
f 494 292 164
f 512 473 517
f 517 473 477
f 491 481 496
f 496 481 480
f 502 506 505
f 505 506 500
f 503 488 514
f 514 488 487
f 514 487 470
f 470 487 471
f 517 516 519
f 519 516 518
f 517 519 512
f 512 519 520
f 512 520 513
f 513 520 521
f 513 521 509
f 509 521 522
f 516 501 518
f 518 501 523
f 501 504 523
f 523 504 524
f 524 504 525
f 525 504 515
f 526 527 523
f 523 527 518
f 529 530 528
f 528 530 531
f 532 533 529
f 529 533 530
f 530 533 535
f 535 533 534
f 536 537 535
f 535 537 538
f 534 539 535
f 535 539 536
f 538 531 535
f 535 531 530
f 540 541 531
f 531 541 528
f 533 532 534
f 534 532 542
f 532 520 542
f 542 520 519
f 532 543 520
f 520 543 521
f 529 544 532
f 532 544 543
f 544 529 545
f 545 529 528
f 534 542 539
f 539 542 527
f 527 542 518
f 518 542 519
f 541 546 528
f 528 546 545
f 547 544 548
f 548 544 545
f 546 549 545
f 545 549 548
f 550 547 551
f 551 547 548
f 547 550 553
f 553 550 552
f 549 554 548
f 548 554 551
f 544 547 543
f 543 547 553
f 543 553 521
f 521 553 522
f 546 541 556
f 556 541 555
f 541 540 555
f 555 540 557
f 536 539 558
f 558 539 527
f 537 536 559
f 559 536 558
f 527 526 558
f 558 526 560
f 559 558 561
f 561 558 560
f 559 562 537
f 537 562 563
f 557 563 555
f 555 563 562
f 509 522 507
f 507 522 564
f 508 565 515
f 515 565 525
f 565 508 564
f 564 508 507
f 564 552 565
f 565 552 566
f 552 550 566
f 566 550 567
f 565 566 525
f 525 566 568
f 564 522 552
f 552 522 553
f 569 524 568
f 568 524 525
f 569 526 524
f 524 526 523
f 570 560 569
f 569 560 526
f 570 569 571
f 571 569 568
f 572 570 573
f 573 570 571
f 566 567 568
f 568 567 571
f 567 574 571
f 571 574 573
f 570 572 560
f 560 572 561
f 576 561 575
f 575 561 572
f 575 578 577
f 577 578 579
f 575 572 578
f 578 572 573
f 575 577 576
f 576 577 556
f 576 556 562
f 562 556 555
f 562 559 576
f 576 559 561
f 550 551 567
f 567 551 574
f 579 574 554
f 554 574 551
f 579 578 574
f 574 578 573
f 579 554 577
f 577 554 549
f 549 546 577
f 577 546 556
f 531 538 540
f 540 538 557
f 557 538 563
f 563 538 537
f 481 294 482
f 482 294 293
f 580 486 511
f 511 486 485
f 490 489 497
f 497 489 498
f 489 491 498
f 498 491 496
f 163 495 164
f 164 495 494
f 580 490 486
f 486 490 497
f 482 293 510
f 510 293 292
f 495 163 511
f 511 163 199
f 494 493 510
f 510 493 499
f 481 491 294
f 294 491 248
f 582 583 581
f 581 583 584
f 586 587 585
f 585 587 588
f 585 588 589
f 589 588 590
f 592 593 591
f 591 593 594
f 595 596 598
f 598 596 597
f 599 600 586
f 586 600 587
f 601 602 604
f 604 602 603
f 605 606 608
f 608 606 607
f 609 607 200
f 200 607 606
f 610 611 613
f 613 611 612
f 600 614 587
f 587 614 592
f 596 605 597
f 597 605 608
f 602 615 603
f 603 615 583
f 616 614 584
f 584 614 600
f 611 618 617
f 617 618 590
f 620 621 619
f 619 621 622
f 610 623 611
f 611 623 618
f 624 589 618
f 618 589 590
f 617 590 591
f 591 590 588
f 581 625 582
f 582 625 626
f 599 627 581
f 581 627 625
f 591 594 617
f 617 594 628
f 601 610 598
f 598 610 613
f 581 584 599
f 599 584 600
f 585 629 586
f 586 629 630
f 615 616 583
f 583 616 584
f 587 592 588
f 588 592 591
f 582 626 631
f 631 626 632
f 624 620 633
f 633 620 619
f 621 620 604
f 604 620 623
f 631 632 621
f 621 632 622
f 610 601 623
f 623 601 604
f 589 624 634
f 634 624 633
f 586 630 599
f 599 630 627
f 203 202 628
f 628 202 612
f 629 585 634
f 634 585 589
f 609 593 614
f 614 593 592
f 620 624 623
f 623 624 618
f 631 621 603
f 603 621 604
f 582 631 583
f 583 631 603
f 634 633 636
f 636 633 635
f 634 636 629
f 629 636 637
f 629 637 630
f 630 637 638
f 630 638 627
f 627 638 639
f 633 619 635
f 635 619 640
f 619 622 640
f 640 622 641
f 641 622 642
f 642 622 632
f 644 635 643
f 643 635 640
f 645 646 648
f 648 646 647
f 649 650 646
f 646 650 647
f 647 650 652
f 652 650 651
f 652 653 655
f 655 653 654
f 651 656 652
f 652 656 653
f 655 648 652
f 652 648 647
f 648 657 645
f 645 657 658
f 650 649 651
f 651 649 659
f 649 637 659
f 659 637 636
f 649 660 637
f 637 660 638
f 661 660 646
f 646 660 649
f 662 661 645
f 645 661 646
f 651 659 656
f 656 659 644
f 644 659 635
f 635 659 636
f 663 662 658
f 658 662 645
f 664 661 665
f 665 661 662
f 663 666 662
f 662 666 665
f 667 664 668
f 668 664 665
f 664 667 670
f 670 667 669
f 666 671 665
f 665 671 668
f 661 664 660
f 660 664 670
f 660 670 638
f 638 670 639
f 658 672 663
f 663 672 673
f 658 657 672
f 672 657 674
f 653 656 675
f 675 656 644
f 653 675 654
f 654 675 676
f 675 644 677
f 677 644 643
f 676 675 678
f 678 675 677
f 679 680 676
f 676 680 654
f 674 680 672
f 672 680 679
f 627 639 625
f 625 639 681
f 626 682 632
f 632 682 642
f 681 682 625
f 625 682 626
f 669 683 681
f 681 683 682
f 667 684 669
f 669 684 683
f 682 683 642
f 642 683 685
f 681 639 669
f 669 639 670
f 686 641 685
f 685 641 642
f 641 686 640
f 640 686 643
f 686 687 643
f 643 687 677
f 687 686 688
f 688 686 685
f 689 687 690
f 690 687 688
f 683 684 685
f 685 684 688
f 684 691 688
f 688 691 690
f 687 689 677
f 677 689 678
f 693 678 692
f 692 678 689
f 692 695 694
f 694 695 696
f 692 689 695
f 695 689 690
f 692 694 693
f 693 694 673
f 693 673 679
f 679 673 672
f 679 676 693
f 693 676 678
f 684 667 691
f 691 667 668
f 696 691 671
f 671 691 668
f 696 695 691
f 691 695 690
f 694 696 666
f 666 696 671
f 666 663 694
f 694 663 673
f 648 655 657
f 657 655 674
f 674 655 680
f 680 655 654
f 593 162 594
f 594 162 290
f 598 597 601
f 601 597 602
f 615 608 616
f 616 608 607
f 607 609 616
f 616 609 614
f 697 595 613
f 613 595 598
f 597 608 602
f 602 608 615
f 594 290 628
f 628 290 203
f 628 612 617
f 617 612 611
f 593 609 162
f 162 609 200
f 105 29 698
f 698 29 699
f 268 126 701
f 701 126 700
f 126 125 700
f 700 125 702
f 252 703 250
f 250 703 704
f 32 268 705
f 705 268 701
f 288 105 706
f 706 105 698
f 29 32 699
f 699 32 705
f 707 251 706
f 706 251 288
f 250 704 125
f 125 704 702
f 703 252 707
f 707 252 251
f 706 708 707
f 707 708 709
f 707 709 703
f 703 709 710
f 703 710 704
f 704 710 711
f 704 711 702
f 702 711 712
f 706 698 708
f 708 698 713
f 698 699 713
f 713 699 714
f 699 705 714
f 714 705 715
f 717 708 716
f 716 708 713
f 719 720 718
f 718 720 721
f 722 723 719
f 719 723 720
f 724 725 723
f 723 725 720
f 724 726 725
f 725 726 727
f 728 721 725
f 725 721 720
f 721 728 729
f 729 728 730
f 729 731 721
f 721 731 718
f 724 723 732
f 732 723 722
f 722 710 732
f 732 710 709
f 722 733 710
f 710 733 711
f 719 734 722
f 722 734 733
f 734 719 735
f 735 719 718
f 724 732 726
f 726 732 717
f 717 732 708
f 708 732 709
f 731 736 718
f 718 736 735
f 737 734 738
f 738 734 735
f 736 739 735
f 735 739 738
f 740 737 741
f 741 737 738
f 737 740 743
f 743 740 742
f 739 744 738
f 738 744 741
f 734 737 733
f 733 737 743
f 733 743 711
f 711 743 712
f 736 731 746
f 746 731 745
f 731 729 745
f 745 729 730
f 727 726 747
f 747 726 717
f 748 727 749
f 749 727 747
f 747 717 750
f 750 717 716
f 749 747 751
f 751 747 750
f 749 752 748
f 748 752 753
f 730 753 745
f 745 753 752
f 728 725 748
f 748 725 727
f 730 728 753
f 753 728 748
f 700 702 754
f 754 702 712
f 705 701 715
f 715 701 755
f 754 755 700
f 700 755 701
f 742 756 754
f 754 756 755
f 740 757 742
f 742 757 756
f 755 756 715
f 715 756 758
f 754 712 742
f 742 712 743
f 759 714 758
f 758 714 715
f 714 759 713
f 713 759 716
f 759 760 716
f 716 760 750
f 760 759 761
f 761 759 758
f 762 760 763
f 763 760 761
f 756 757 758
f 758 757 761
f 757 764 761
f 761 764 763
f 760 762 750
f 750 762 751
f 766 751 765
f 765 751 762
f 767 765 769
f 769 765 768
f 765 762 768
f 768 762 763
f 765 767 766
f 766 767 746
f 766 746 752
f 752 746 745
f 752 749 766
f 766 749 751
f 757 740 764
f 764 740 741
f 769 764 744
f 744 764 741
f 769 768 764
f 764 768 763
f 767 769 739
f 739 769 744
f 739 736 767
f 767 736 746
f 219 217 208
f 208 217 209
f 209 217 210
f 210 217 193
f 198 580 199
f 199 580 511
f 76 75 289
f 289 75 272
f 277 207 291
f 291 207 184
f 290 183 203
f 203 183 84
f 490 580 142
f 142 580 198
f 142 198 143
f 143 198 197
f 149 276 72
f 72 276 73
f 104 103 279
f 279 103 770
f 770 596 279
f 279 596 595
f 605 596 771
f 771 596 770
f 771 770 772
f 772 770 103
f 772 103 773
f 773 103 102
f 155 774 101
f 101 774 102
f 773 102 97
f 97 102 774
f 775 773 100
f 100 773 97
f 773 775 772
f 772 775 776
f 772 776 771
f 771 776 777
f 200 606 197
f 197 606 777
f 189 71 778
f 778 71 74
f 97 774 98
f 98 774 155
f 183 161 184
f 184 161 291
f 777 276 197
f 197 276 143
f 777 606 771
f 771 606 605
f 613 612 697
f 697 612 202
f 595 697 279
f 279 697 202
f 73 276 776
f 776 276 777
f 776 775 73
f 73 775 74
f 100 778 775
f 775 778 74
f 778 100 189
f 189 100 99
f 245 242 99
f 99 242 189
f 131 33 256
f 28 1 95
f 95 1 62
f 27 2 28
f 28 2 1
f 265 115 266
f 266 115 114
f 95 62 69
f 69 62 64
f 62 61 64
f 64 61 65
f 61 13 65
f 65 13 130
f 13 12 130
f 130 12 14
f 31 11 32
f 32 11 268
f 15 12 31
f 31 12 11
f 31 30 15
f 15 30 231
f 30 106 231
f 231 106 232
f 287 237 106
f 106 237 232
f 254 90 287
f 287 90 237
f 253 44 254
f 254 44 90
f 253 249 44
f 44 249 7
f 267 127 268
f 268 127 126
f 10 3 241
f 241 3 116
f 3 2 116
f 116 2 114
f 2 27 114
f 114 27 266
f 27 26 266
f 266 26 113
f 26 286 113
f 113 286 110
f 286 243 110
f 110 243 255
f 243 242 255
f 255 242 256
f 242 245 256
f 256 245 131
f 245 244 131
f 131 244 132
f 265 37 115
f 115 37 41
f 41 37 42
f 42 37 40
f 92 91 40
f 40 91 42
f 236 233 92
f 92 233 91
f 191 194 236
f 236 194 233
f 258 285 244
f 244 285 132
f 257 55 258
f 258 55 285
f 257 154 201
f 201 154 185
f 56 201 204
f 204 201 180
f 55 257 56
f 56 257 201
f 204 85 56
f 56 85 52
f 86 122 53
f 53 122 79
f 212 215 86
f 86 215 122
f 211 216 212
f 212 216 215
f 192 280 211
f 211 280 216
f 191 240 192
f 192 240 280
f 249 124 7
f 7 124 8
f 124 127 8
f 8 127 241
f 127 267 241
f 241 267 10
f 10 267 9
f 9 267 11
o hand_right
v 0.150882 0.074861 0.755983
v 0.146732 0.082120 0.764130
v 0.144909 0.081215 0.754066
v 0.150157 0.075437 0.746822
v 0.135123 0.099142 0.761324
v 0.138184 0.110657 0.759827
v 0.137950 0.102880 0.745428
v 0.134746 0.093788 0.748942
v 0.151928 0.074843 0.739166
v 0.144295 0.079539 0.745358
v 0.157202 0.075499 0.736483
v 0.168231 0.071932 0.732603
v 0.160511 0.071005 0.733982
v 0.172918 0.066369 0.729239
v 0.176962 0.075823 0.738909
v 0.181120 0.062307 0.733153
v 0.182274 0.063298 0.763366
v 0.178419 0.056501 0.774591
v 0.179765 0.041824 0.763269
v 0.182539 0.050618 0.752544
v 0.168839 0.037813 0.781453
v 0.174742 0.039428 0.770968
v 0.174936 0.053566 0.782513
v 0.169592 0.051516 0.791140
v 0.149002 0.071518 0.770918
v 0.146219 0.078763 0.778942
v 0.147670 0.080414 0.774168
v 0.150309 0.073557 0.766167
v 0.159086 0.083700 0.731710
v 0.167207 0.088179 0.738555
v 0.164930 0.080634 0.736704
v 0.154939 0.079685 0.732138
v 0.133929 0.092476 0.801004
v 0.139134 0.101525 0.809788
v 0.141501 0.105089 0.805647
v 0.136655 0.095938 0.798690
v 0.143244 0.115331 0.783884
v 0.148577 0.117331 0.793414
v 0.159612 0.125354 0.792799
v 0.157766 0.122502 0.782641
v 0.139449 0.113674 0.771362
v 0.151265 0.120878 0.770478
v 0.148076 0.116676 0.757727
v 0.145563 0.107916 0.743078
v 0.136883 0.093387 0.819571
v 0.132170 0.085712 0.814526
v 0.140084 0.051975 0.709215
v 0.138076 0.049717 0.714496
v 0.141203 0.049841 0.715939
v 0.142901 0.052066 0.710563
v 0.147155 0.077507 0.827015
v 0.157070 0.075582 0.828145
v 0.155329 0.080688 0.833067
v 0.146715 0.083973 0.830965
v 0.147780 0.069001 0.821738
v 0.159152 0.068879 0.820780
v 0.140582 0.042740 0.700312
v 0.140549 0.047874 0.701290
v 0.145287 0.046719 0.701658
v 0.145892 0.041112 0.700989
v 0.155342 0.070467 0.739543
v 0.152725 0.068771 0.748195
v 0.159213 0.058338 0.731108
v 0.157162 0.061017 0.737544
v 0.160258 0.065581 0.733536
v 0.162425 0.062667 0.728502
v 0.150839 0.052477 0.758722
v 0.149998 0.061363 0.766191
v 0.152124 0.063316 0.760214
v 0.152825 0.054821 0.750554
v 0.142656 0.055765 0.777123
v 0.144572 0.047441 0.769076
v 0.140216 0.045333 0.776296
v 0.138646 0.051735 0.780360
v 0.150188 0.035419 0.753559
v 0.151931 0.032693 0.749921
v 0.149646 0.031698 0.751678
v 0.148403 0.034620 0.756663
v 0.154784 0.085836 0.837942
v 0.146966 0.090535 0.834194
v 0.154962 0.033871 0.798245
v 0.145681 0.037145 0.803893
v 0.143775 0.025480 0.796854
v 0.155082 0.024326 0.792711
v 0.166618 0.076576 0.823953
v 0.165158 0.080276 0.830720
v 0.139662 0.036981 0.702881
v 0.144381 0.035122 0.703294
v 0.161775 0.116410 0.759913
v 0.155782 0.108476 0.742826
v 0.166210 0.120160 0.774600
v 0.169695 0.121204 0.785555
v 0.171690 0.124531 0.793769
v 0.155781 0.054893 0.739496
v 0.152008 0.068454 0.757483
v 0.146987 0.069567 0.775048
v 0.129856 0.053771 0.795507
v 0.128849 0.062181 0.801646
v 0.132011 0.064705 0.791609
v 0.132831 0.056715 0.788494
v 0.135853 0.039145 0.802393
v 0.131650 0.042044 0.795968
v 0.132371 0.035009 0.791398
v 0.135893 0.030127 0.796543
v 0.160372 0.090641 0.729456
v 0.167983 0.095383 0.740149
v 0.138258 0.081603 0.822873
v 0.139715 0.088905 0.825420
v 0.142412 0.095473 0.830147
v 0.139628 0.086879 0.788966
v 0.138383 0.098492 0.796970
v 0.139170 0.100929 0.793106
v 0.141465 0.088131 0.786941
v 0.140244 0.090493 0.770922
v 0.136577 0.102240 0.775880
v 0.137944 0.087415 0.759323
v 0.144745 0.111312 0.801104
v 0.143328 0.113012 0.811995
v 0.147618 0.118556 0.806398
v 0.140944 0.106711 0.819178
v 0.140280 0.100497 0.825591
v 0.166633 0.084218 0.838159
v 0.152884 0.122461 0.801066
v 0.135737 0.089857 0.740502
v 0.136595 0.087243 0.732700
v 0.140358 0.080340 0.734322
v 0.139332 0.081937 0.741922
v 0.173684 0.059926 0.724222
v 0.166894 0.062978 0.725169
v 0.165758 0.068425 0.730153
v 0.131839 0.081442 0.797943
v 0.130164 0.076301 0.809489
v 0.157577 0.052553 0.733093
v 0.151777 0.041544 0.703827
v 0.150816 0.047639 0.704236
v 0.165923 0.054879 0.715941
v 0.167951 0.047923 0.715118
v 0.158045 0.043945 0.731836
v 0.156692 0.051189 0.732129
v 0.155803 0.050035 0.731666
v 0.154546 0.043298 0.731705
v 0.145359 0.031151 0.760158
v 0.144264 0.033626 0.764362
v 0.177816 0.039082 0.741618
v 0.185002 0.047664 0.733095
v 0.185393 0.057931 0.742709
v 0.147682 0.050144 0.765163
v 0.148167 0.041885 0.759090
v 0.146372 0.040365 0.762546
v 0.155381 0.050281 0.739658
v 0.157001 0.046684 0.734951
v 0.156206 0.044868 0.738903
v 0.153913 0.048538 0.744416
v 0.147129 0.048295 0.811238
v 0.135501 0.050084 0.809569
v 0.140675 0.051207 0.704530
v 0.144424 0.050886 0.705329
v 0.146850 0.058929 0.772324
v 0.182642 0.069011 0.753634
v 0.144334 0.067480 0.779398
v 0.155475 0.021493 0.773758
v 0.147124 0.022663 0.773050
v 0.144607 0.022249 0.768786
v 0.149449 0.019359 0.767657
v 0.143511 0.038664 0.722420
v 0.142054 0.044489 0.722095
v 0.140013 0.044684 0.719513
v 0.140148 0.038592 0.719596
v 0.158040 0.056679 0.730085
v 0.161101 0.060495 0.726216
v 0.157988 0.058947 0.724673
v 0.155893 0.054556 0.728689
v 0.165719 0.060661 0.722480
v 0.162387 0.058899 0.719752
v 0.145989 0.033566 0.718851
v 0.148860 0.032134 0.711806
v 0.163845 0.036496 0.723285
v 0.157152 0.037233 0.727648
v 0.171650 0.063423 0.800904
v 0.164559 0.059878 0.808802
v 0.162403 0.047805 0.799386
v 0.161032 0.034678 0.790883
v 0.159382 0.023671 0.781811
v 0.168454 0.025607 0.773760
v 0.156906 0.046825 0.805656
v 0.165955 0.038910 0.735416
v 0.172544 0.039108 0.731529
v 0.171433 0.037090 0.737046
v 0.139405 0.064360 0.784145
v 0.148825 0.051903 0.707648
v 0.183438 0.106160 0.797499
v 0.183191 0.096653 0.807102
v 0.182641 0.092238 0.799487
v 0.182155 0.102913 0.788453
v 0.142876 0.050442 0.718445
v 0.145644 0.053658 0.713181
v 0.140112 0.030746 0.768640
v 0.141655 0.028771 0.764250
v 0.140838 0.026865 0.766312
v 0.137424 0.027517 0.770503
v 0.160404 0.059589 0.813258
v 0.138373 0.020400 0.790122
v 0.150019 0.019217 0.786990
v 0.166715 0.070385 0.816619
v 0.173397 0.073367 0.810069
v 0.174430 0.080155 0.817075
v 0.170774 0.027726 0.758773
v 0.175875 0.064923 0.793344
v 0.176816 0.075533 0.803472
v 0.178175 0.083743 0.811552
v 0.179468 0.088946 0.817958
v 0.175105 0.084546 0.823310
v 0.150410 0.035686 0.706701
v 0.142247 0.031390 0.709113
v 0.177055 0.088829 0.831100
v 0.181346 0.093854 0.824545
v 0.180157 0.079359 0.795669
v 0.182923 0.084649 0.786003
v 0.178977 0.068988 0.786136
v 0.181839 0.073326 0.775820
v 0.180717 0.031234 0.753377
v 0.126194 0.036728 0.712008
v 0.135947 0.034563 0.714511
v 0.136129 0.039190 0.718149
v 0.125658 0.039194 0.715452
v 0.140887 0.033586 0.716129
v 0.137620 0.033452 0.708941
v 0.181689 0.081407 0.763781
v 0.158466 0.041870 0.735367
v 0.180452 0.096099 0.772642
v 0.178600 0.085958 0.747907
v 0.175527 0.097259 0.753920
v 0.177813 0.112396 0.779838
v 0.173644 0.110348 0.763282
v 0.179955 0.118315 0.797506
v 0.179264 0.114122 0.789527
v 0.167187 0.106308 0.748594
v 0.129590 0.052318 0.710093
v 0.128420 0.049433 0.715067
v 0.184680 0.110590 0.804579
v 0.138348 0.084230 0.749332
v 0.137498 0.074085 0.788724
v 0.141355 0.075980 0.785018
v 0.129003 0.067629 0.804906
v 0.132028 0.072117 0.794333
v 0.130523 0.052024 0.704717
v 0.152657 0.029991 0.749441
v 0.152946 0.029983 0.750179
v 0.137448 0.098090 0.737581
v 0.137682 0.094865 0.731122
v 0.149658 0.098739 0.726334
v 0.142551 0.098742 0.727906
v 0.144100 0.103228 0.735005
v 0.152008 0.103605 0.733904
v 0.137871 0.085510 0.790425
v 0.135621 0.083323 0.792892
v 0.147197 0.059194 0.817052
v 0.135801 0.060411 0.814564
v 0.170748 0.057020 0.720781
v 0.179358 0.053963 0.725767
v 0.174391 0.050800 0.721431
v 0.168904 0.041630 0.719036
v 0.160819 0.040287 0.734051
v 0.162465 0.039500 0.731965
v 0.137865 0.101464 0.785267
v 0.142025 0.089802 0.780860
v 0.145652 0.078454 0.739898
v 0.147186 0.077153 0.733982
v 0.151733 0.046553 0.752028
v 0.163990 0.025480 0.749407
v 0.171795 0.028944 0.745145
v 0.153645 0.040406 0.746066
v 0.129708 0.044969 0.700232
v 0.130280 0.049665 0.701703
v 0.175972 0.044603 0.725144
v 0.141550 0.038405 0.769311
v 0.162837 0.024244 0.755479
v 0.157117 0.025657 0.750050
v 0.133808 0.026712 0.791966
v 0.184160 0.102091 0.814125
v 0.136230 0.044865 0.718587
v 0.127410 0.045188 0.717685
v 0.127777 0.036225 0.707973
v 0.129699 0.039155 0.702708
v 0.136382 0.070966 0.817692
v 0.143836 0.076867 0.782329
v 0.161739 0.101441 0.737605
v 0.156567 0.095589 0.727616
v 0.155795 0.037854 0.743288
v 0.151059 0.020666 0.778848
v 0.161607 0.020653 0.766865
v 0.154418 0.017287 0.760495
v 0.155494 0.019619 0.753168
v 0.153414 0.024790 0.748679
v 0.122497 0.037633 0.707385
v 0.124633 0.040229 0.702540
v 0.125193 0.045940 0.699966
v 0.125818 0.050163 0.701238
v 0.126711 0.052373 0.705012
v 0.120387 0.037993 0.711297
v 0.119911 0.040347 0.714231
v 0.123213 0.045276 0.716892
v 0.115481 0.040120 0.711127
v 0.114155 0.040686 0.705857
v 0.112992 0.053203 0.699741
v 0.117205 0.049094 0.699181
v 0.114524 0.048418 0.699361
v 0.110290 0.051167 0.699751
v 0.105268 0.052701 0.700296
v 0.107710 0.055372 0.700187
v 0.115195 0.044210 0.701348
v 0.109148 0.047293 0.702076
v 0.108042 0.044889 0.705489
v 0.102944 0.047267 0.705322
v 0.103689 0.049299 0.702158
v 0.112141 0.042721 0.704492
v 0.117228 0.043047 0.701398
v 0.103157 0.055455 0.701553
v 0.102364 0.053093 0.700822
v 0.100898 0.050717 0.702730
v 0.099350 0.053097 0.704163
v 0.121961 0.052163 0.701198
v 0.114119 0.055334 0.701059
v 0.108483 0.057011 0.702972
v 0.103832 0.056865 0.704048
v 0.113653 0.056751 0.705080
v 0.108779 0.057301 0.705971
v 0.104849 0.056929 0.707311
v 0.112667 0.056347 0.709340
v 0.108345 0.056603 0.709139
v 0.123858 0.052818 0.709416
v 0.124694 0.053267 0.705106
v 0.105650 0.056941 0.709355
v 0.099549 0.054085 0.706294
v 0.109057 0.043262 0.708760
v 0.103110 0.047324 0.708591
v 0.109327 0.043735 0.711216
v 0.103247 0.047427 0.711051
v 0.099211 0.049424 0.707456
v 0.100543 0.049023 0.705191
v 0.126926 0.052033 0.710196
v 0.125318 0.048906 0.715173
v 0.122324 0.049540 0.714668
v 0.111475 0.053800 0.713399
v 0.119750 0.046272 0.716382
v 0.115389 0.042543 0.714173
v 0.109005 0.045844 0.713470
v 0.109843 0.049001 0.714870
v 0.104459 0.048992 0.712849
v 0.105817 0.051168 0.713298
v 0.107123 0.054722 0.712134
v 0.101733 0.051883 0.711388
v 0.099911 0.050344 0.709495
v 0.101742 0.054871 0.708950
v 0.103419 0.052639 0.712266
v 0.104117 0.054978 0.710385
v 0.134825 0.035674 0.726882
v 0.132084 0.033453 0.732386
v 0.136080 0.032018 0.731997
v 0.138276 0.033882 0.727303
v 0.134742 0.024987 0.717269
v 0.135551 0.031162 0.719003
v 0.140497 0.028394 0.718941
v 0.139966 0.021407 0.718740
v 0.132758 0.018854 0.720950
v 0.138361 0.016093 0.723152
v 0.146109 0.021459 0.721116
v 0.145745 0.028663 0.721122
v 0.161752 0.035699 0.732159
v 0.163943 0.029531 0.733240
v 0.150774 0.034719 0.746443
v 0.150342 0.031277 0.747642
v 0.135556 0.034642 0.722953
v 0.139697 0.032458 0.722815
v 0.136146 0.026027 0.739224
v 0.136674 0.031154 0.737106
v 0.134052 0.029643 0.735901
v 0.132615 0.024326 0.736945
v 0.156456 0.040687 0.736499
v 0.153833 0.037479 0.741650
v 0.158992 0.039288 0.733767
v 0.137211 0.019463 0.737919
v 0.140060 0.014945 0.733494
v 0.157475 0.020834 0.743683
v 0.152561 0.023260 0.746854
v 0.143932 0.033113 0.723588
v 0.138250 0.034424 0.732388
v 0.141066 0.035630 0.727867
v 0.144747 0.016550 0.726828
v 0.133742 0.015151 0.730032
v 0.116276 0.026063 0.730040
v 0.126744 0.020867 0.733103
v 0.127530 0.025415 0.735712
v 0.116445 0.029855 0.733501
v 0.132154 0.018986 0.734829
v 0.128452 0.018132 0.728030
v 0.121742 0.041394 0.727062
v 0.119370 0.038777 0.732513
v 0.122405 0.040957 0.722466
v 0.162838 0.024105 0.737993
v 0.122515 0.032065 0.716748
v 0.122989 0.038308 0.719084
v 0.129802 0.030108 0.735957
v 0.117295 0.034645 0.734703
v 0.117305 0.024538 0.725794
v 0.121236 0.025873 0.719575
v 0.112248 0.027893 0.724475
v 0.115161 0.029736 0.718994
v 0.117211 0.035634 0.716397
v 0.119008 0.040571 0.719103
v 0.119566 0.042328 0.722703
v 0.111282 0.029115 0.728708
v 0.111952 0.032211 0.732445
v 0.115043 0.036137 0.733833
v 0.106402 0.034639 0.730030
v 0.105449 0.034332 0.725376
v 0.104805 0.052663 0.720667
v 0.108272 0.047879 0.719107
v 0.106035 0.046408 0.719314
v 0.102741 0.050671 0.720784
v 0.110193 0.042089 0.717149
v 0.107839 0.042155 0.718226
v 0.106310 0.038224 0.720470
v 0.103337 0.043505 0.722231
v 0.102174 0.040808 0.726181
v 0.098412 0.045155 0.727109
v 0.099229 0.047853 0.723148
v 0.104320 0.037535 0.723839
v 0.100084 0.052788 0.722194
v 0.100410 0.055068 0.723447
v 0.107933 0.035608 0.719159
v 0.115907 0.043075 0.718720
v 0.110277 0.049838 0.720639
v 0.106162 0.054497 0.723117
v 0.100967 0.055924 0.726365
v 0.111234 0.051251 0.724611
v 0.106678 0.054886 0.726352
v 0.102200 0.055404 0.728787
v 0.111224 0.051062 0.729457
v 0.106344 0.054062 0.730562
v 0.118355 0.043493 0.727612
v 0.118241 0.044323 0.722808
v 0.103733 0.054599 0.730514
v 0.096599 0.052978 0.725691
v 0.097722 0.054353 0.728585
v 0.097134 0.051504 0.724597
v 0.102072 0.040030 0.728228
v 0.098521 0.045471 0.729346
v 0.102490 0.040439 0.731117
v 0.098607 0.046404 0.731658
v 0.096004 0.049570 0.729001
v 0.096157 0.049273 0.727308
v 0.119296 0.041757 0.727094
v 0.117428 0.039190 0.731914
v 0.116657 0.040669 0.732373
v 0.109184 0.048109 0.733589
v 0.113544 0.037461 0.734262
v 0.108649 0.035820 0.732909
v 0.103989 0.041360 0.733456
v 0.106243 0.044494 0.734893
v 0.099367 0.046707 0.733714
v 0.102413 0.047580 0.734682
v 0.105161 0.051512 0.733662
v 0.097380 0.050876 0.732644
v 0.096228 0.050313 0.730624
v 0.099221 0.054270 0.730284
v 0.100106 0.050695 0.733905
v 0.101779 0.053533 0.732161
v 0.129914 0.031094 0.744837
v 0.126963 0.029582 0.749830
v 0.129706 0.028021 0.750487
v 0.132220 0.028767 0.745260
v 0.128275 0.021898 0.736072
v 0.129753 0.026529 0.736998
v 0.133436 0.023467 0.737810
v 0.133215 0.018081 0.737477
v 0.123998 0.018641 0.738216
v 0.130743 0.013378 0.740325
v 0.138160 0.016347 0.739831
v 0.137038 0.022198 0.739210
v 0.149411 0.023747 0.746693
v 0.150013 0.017558 0.748486
v 0.130399 0.029649 0.740573
v 0.133094 0.027232 0.741113
v 0.127489 0.023331 0.756479
v 0.128928 0.027654 0.754282
v 0.126628 0.024866 0.753667
v 0.124500 0.020689 0.753723
v 0.146644 0.032276 0.752393
v 0.144093 0.031187 0.757928
v 0.147766 0.029257 0.748501
v 0.128062 0.016746 0.755162
v 0.131339 0.011628 0.750872
v 0.142689 0.015662 0.761192
v 0.140168 0.020489 0.763888
v 0.135742 0.026653 0.741353
v 0.131695 0.030442 0.750537
v 0.134207 0.030238 0.745355
v 0.136066 0.012519 0.744776
v 0.126135 0.012509 0.746098
v 0.107698 0.027984 0.744281
v 0.119850 0.017946 0.749071
v 0.121276 0.022616 0.752571
v 0.108708 0.030414 0.747918
v 0.123592 0.015820 0.750994
v 0.121061 0.016260 0.743831
v 0.118438 0.040175 0.743265
v 0.115622 0.037776 0.747597
v 0.119672 0.038664 0.739167
v 0.147769 0.013877 0.754375
v 0.139929 0.026861 0.763627
v 0.116809 0.033883 0.733918
v 0.118980 0.037000 0.736223
v 0.123829 0.026162 0.752728
v 0.111565 0.033948 0.749590
v 0.109379 0.026688 0.739664
v 0.113696 0.028548 0.735018
v 0.104996 0.031021 0.739499
v 0.109117 0.033307 0.734835
v 0.112811 0.038207 0.733853
v 0.115710 0.040707 0.736746
v 0.116778 0.041754 0.739868
v 0.104133 0.031871 0.744593
v 0.105794 0.033584 0.747849
v 0.110789 0.034951 0.749144
v 0.101901 0.035435 0.745800
v 0.101006 0.037144 0.740495
v 0.103236 0.054719 0.741119
v 0.106299 0.049924 0.738950
v 0.105202 0.049322 0.738980
v 0.101716 0.053896 0.740713
v 0.107952 0.043874 0.735649
v 0.106301 0.044802 0.736487
v 0.103763 0.041556 0.737037
v 0.100471 0.046791 0.739664
v 0.098626 0.042980 0.744200
v 0.096445 0.047669 0.745534
v 0.097603 0.051402 0.741375
v 0.101083 0.039519 0.740318
v 0.099320 0.055821 0.742078
v 0.100098 0.057565 0.741983
v 0.104547 0.039145 0.735890
v 0.112613 0.045047 0.737419
v 0.108795 0.051132 0.740282
v 0.105816 0.056004 0.742520
v 0.102430 0.057980 0.744856
v 0.110293 0.050999 0.743895
v 0.106973 0.055126 0.745368
v 0.103845 0.056900 0.747341
v 0.110193 0.049988 0.747151
v 0.107011 0.053468 0.748241
v 0.115414 0.042694 0.744396
v 0.114916 0.044401 0.740773
v 0.104443 0.055184 0.748867
v 0.096203 0.055875 0.744328
v 0.097993 0.056285 0.748183
v 0.096692 0.054478 0.743445
v 0.098464 0.041580 0.745511
v 0.095652 0.047384 0.747747
v 0.099310 0.041088 0.748266
v 0.096551 0.046867 0.750273
v 0.094619 0.051669 0.747213
v 0.095069 0.051467 0.746104
v 0.116642 0.040930 0.743660
v 0.114392 0.038191 0.747581
v 0.113515 0.039712 0.748095
v 0.108119 0.047552 0.750998
v 0.109948 0.036635 0.749733
v 0.103809 0.036874 0.748934
v 0.101568 0.042233 0.750613
v 0.104405 0.044639 0.752053
v 0.098815 0.047293 0.751983
v 0.101683 0.047794 0.752310
v 0.105330 0.051267 0.751589
v 0.098256 0.051404 0.751282
v 0.095675 0.051556 0.749728
v 0.100433 0.055398 0.750059
v 0.100650 0.051176 0.752094
v 0.102381 0.054097 0.751013
v 0.141593 0.029529 0.761622
v 0.121042 0.025217 0.760520
v 0.118736 0.024353 0.764076
v 0.119301 0.023321 0.764072
v 0.122594 0.024582 0.761112
v 0.124617 0.015393 0.755319
v 0.123988 0.020252 0.755341
v 0.127989 0.018760 0.756395
v 0.128799 0.014124 0.756848
v 0.123014 0.011205 0.758293
v 0.126328 0.010112 0.760211
v 0.131734 0.014586 0.759802
v 0.131004 0.019168 0.758836
v 0.142302 0.022526 0.770092
v 0.143969 0.018581 0.773668
v 0.129818 0.024154 0.786886
v 0.130004 0.029261 0.784659
v 0.124993 0.024815 0.778874
v 0.125733 0.020738 0.781418
v 0.122752 0.023503 0.757476
v 0.125880 0.023046 0.758271
v 0.116971 0.015787 0.769995
v 0.117488 0.020484 0.768158
v 0.117057 0.021038 0.766977
v 0.115214 0.016866 0.768792
v 0.131454 0.031013 0.779558
v 0.134652 0.030003 0.775179
v 0.131573 0.029235 0.772963
v 0.126814 0.027139 0.774724
v 0.136148 0.027019 0.769732
v 0.119153 0.011704 0.769621
v 0.123914 0.008692 0.766980
v 0.133796 0.014145 0.783038
v 0.129449 0.017069 0.783381
v 0.127578 0.022276 0.759019
v 0.120311 0.023440 0.765257
v 0.122879 0.023864 0.761631
v 0.129741 0.010185 0.763327
v 0.120870 0.009475 0.764500
v 0.108721 0.015289 0.763669
v 0.114909 0.013109 0.767140
v 0.114426 0.017785 0.768710
v 0.108681 0.018166 0.765372
v 0.116533 0.012514 0.767619
v 0.117719 0.010632 0.762904
v 0.114775 0.027425 0.758988
v 0.112320 0.025276 0.763285
v 0.116091 0.026461 0.756016
v 0.141390 0.015279 0.778908
v 0.116195 0.019639 0.752571
v 0.116180 0.024093 0.753460
v 0.116273 0.021901 0.766767
v 0.109995 0.021949 0.765425
v 0.110516 0.013381 0.759750
v 0.114524 0.014511 0.755003
v 0.106932 0.015313 0.757844
v 0.110784 0.016936 0.753232
v 0.112538 0.022803 0.751576
v 0.113615 0.026016 0.753489
v 0.113673 0.027903 0.756140
v 0.105640 0.016881 0.762213
v 0.106155 0.019343 0.764206
v 0.108349 0.022638 0.764808
v 0.102300 0.018737 0.760772
v 0.102180 0.019019 0.755914
v 0.099446 0.031852 0.752356
v 0.103175 0.029950 0.752296
v 0.102553 0.028923 0.752060
v 0.099043 0.031129 0.751601
v 0.107089 0.026126 0.751542
v 0.105357 0.025794 0.751649
v 0.104867 0.022230 0.752491
v 0.100365 0.025163 0.752207
v 0.097604 0.022478 0.756049
v 0.094391 0.025086 0.755339
v 0.097011 0.027021 0.751778
v 0.101564 0.020432 0.754680
v 0.096311 0.031516 0.751162
v 0.095693 0.032777 0.751389
v 0.106392 0.020816 0.752116
v 0.109686 0.028749 0.753526
v 0.103519 0.032201 0.753513
v 0.098689 0.033983 0.753223
v 0.094821 0.033767 0.753324
v 0.104457 0.032771 0.755877
v 0.098810 0.034940 0.755362
v 0.095124 0.034543 0.755547
v 0.104433 0.032500 0.759256
v 0.099015 0.034273 0.757942
v 0.110373 0.029371 0.760240
v 0.110447 0.029843 0.756630
v 0.095959 0.034048 0.757082
v 0.092875 0.030127 0.752167
v 0.092483 0.031757 0.754660
v 0.093765 0.028854 0.751661
v 0.097357 0.021984 0.757357
v 0.093428 0.025214 0.756695
v 0.097380 0.022283 0.759888
v 0.093348 0.026228 0.758642
v 0.091789 0.027853 0.754871
v 0.093125 0.027052 0.753754
v 0.112339 0.028418 0.759864
v 0.110905 0.026086 0.762946
v 0.108656 0.026804 0.763303
v 0.102972 0.030175 0.762306
v 0.106073 0.023180 0.764665
v 0.103657 0.020248 0.763366
v 0.098296 0.023912 0.761979
v 0.100039 0.026646 0.763246
v 0.093920 0.027866 0.760031
v 0.095877 0.029943 0.761207
v 0.097915 0.032488 0.760545
v 0.092654 0.030689 0.757737
v 0.091720 0.029552 0.756505
v 0.093227 0.032542 0.756497
v 0.093982 0.031608 0.758883
v 0.094835 0.032867 0.758235
v 0.131676 0.020467 0.786453
v 0.153884 0.083452 0.718753
v 0.152679 0.078595 0.721032
v 0.136092 0.078869 0.722841
v 0.141901 0.074635 0.722783
v 0.133871 0.085136 0.720816
v 0.140116 0.093811 0.717079
v 0.135856 0.090722 0.719570
v 0.148021 0.074802 0.722033
v 0.152628 0.089170 0.716916
v 0.147099 0.094089 0.716193
v 0.151463 0.085257 0.709362
v 0.145504 0.090529 0.708541
v 0.138394 0.091237 0.709224
v 0.133459 0.088138 0.713774
v 0.131675 0.084039 0.716367
v 0.151730 0.079410 0.713576
v 0.149983 0.075104 0.716398
v 0.144701 0.072522 0.719208
v 0.148688 0.073415 0.708008
v 0.143905 0.073452 0.698629
v 0.125840 0.073903 0.690494
v 0.127919 0.077733 0.695897
v 0.130334 0.077109 0.694271
v 0.128227 0.074167 0.689149
v 0.131955 0.080853 0.698387
v 0.133137 0.079157 0.696995
v 0.138266 0.077742 0.697262
v 0.136138 0.074718 0.692700
v 0.141381 0.073481 0.697159
v 0.140154 0.070199 0.694547
v 0.134297 0.071748 0.688094
v 0.128799 0.072087 0.685589
v 0.132402 0.069034 0.684392
v 0.126097 0.070238 0.686313
v 0.139820 0.079803 0.696747
v 0.129739 0.083346 0.704933
v 0.125869 0.077582 0.699220
v 0.123823 0.072295 0.693459
v 0.124809 0.068129 0.688614
v 0.124903 0.074757 0.702928
v 0.124201 0.069752 0.697292
v 0.125765 0.065747 0.693191
v 0.126635 0.070827 0.705799
v 0.126393 0.067025 0.699664
v 0.131814 0.077083 0.716145
v 0.128864 0.081581 0.711661
v 0.127102 0.065164 0.695791
v 0.130728 0.066432 0.683851
v 0.129400 0.064091 0.686614
v 0.142273 0.068177 0.696658
v 0.138716 0.067417 0.689916
v 0.139346 0.064887 0.691849
v 0.143057 0.066318 0.700324
v 0.139007 0.062870 0.694006
v 0.135920 0.064013 0.686936
v 0.136279 0.066972 0.686394
v 0.133540 0.078692 0.719458
v 0.138870 0.074551 0.720618
v 0.137219 0.073117 0.717751
v 0.132068 0.066837 0.707708
v 0.142354 0.070128 0.715963
v 0.146813 0.070721 0.711822
v 0.141502 0.064643 0.703454
v 0.137667 0.064582 0.706488
v 0.136844 0.061930 0.696974
v 0.134493 0.062418 0.699035
v 0.129908 0.064132 0.700069
v 0.133283 0.061617 0.692819
v 0.135014 0.061975 0.689479
v 0.129167 0.062946 0.691377
v 0.132510 0.062198 0.695498
v 0.129496 0.063268 0.695156
v 0.132010 0.032232 0.787849
v 0.133383 0.034814 0.781702
v 0.132908 0.038294 0.786040
v 0.131218 0.045332 0.790475
v 0.130735 0.049433 0.800077
v 0.134310 0.048497 0.784920
v 0.135858 0.040803 0.780483
v 0.137179 0.035103 0.774368
v 0.137440 0.058052 0.784285
f 780 781 779
f 779 781 782
f 783 784 786
f 786 784 785
f 787 782 788
f 788 782 781
f 790 791 789
f 789 791 787
f 792 790 794
f 794 790 793
f 796 797 795
f 795 797 798
f 800 801 799
f 799 801 802
f 804 805 803
f 803 805 806
f 808 809 807
f 807 809 810
f 811 812 814
f 814 812 813
f 815 816 818
f 818 816 817
f 819 820 784
f 784 820 821
f 784 821 785
f 785 821 822
f 823 812 824
f 824 812 811
f 826 827 825
f 825 827 828
f 830 831 829
f 829 831 832
f 834 830 833
f 833 830 829
f 836 837 835
f 835 837 838
f 839 840 782
f 782 840 779
f 842 843 841
f 841 843 844
f 846 847 845
f 845 847 848
f 850 851 849
f 849 851 852
f 854 855 853
f 853 855 856
f 831 857 832
f 832 857 858
f 860 861 859
f 859 861 862
f 863 864 830
f 830 864 831
f 835 838 865
f 865 838 866
f 867 868 821
f 821 868 822
f 821 820 867
f 867 820 869
f 818 817 870
f 870 817 871
f 872 848 842
f 842 848 847
f 791 839 787
f 787 839 782
f 803 806 847
f 847 806 873
f 874 803 846
f 846 803 847
f 876 877 875
f 875 877 878
f 879 880 882
f 882 880 881
f 884 808 883
f 883 808 807
f 829 832 885
f 885 832 886
f 832 858 886
f 886 858 887
f 889 890 888
f 888 890 891
f 893 783 892
f 892 783 894
f 893 819 783
f 783 819 784
f 814 813 889
f 889 813 895
f 813 896 895
f 895 896 897
f 812 898 813
f 813 898 896
f 812 823 898
f 898 823 899
f 903 904 902
f 902 904 905
f 906 907 792
f 792 907 908
f 811 909 824
f 824 909 910
f 911 872 841
f 841 872 842
f 912 913 915
f 915 913 914
f 917 918 916
f 916 918 919
f 855 920 856
f 856 920 921
f 922 923 798
f 798 923 924
f 926 927 925
f 925 927 850
f 929 930 928
f 928 930 931
f 860 879 861
f 861 879 882
f 879 860 933
f 933 860 932
f 934 935 836
f 836 935 837
f 936 846 925
f 925 846 845
f 937 924 793
f 793 924 794
f 846 936 874
f 874 936 938
f 907 844 908
f 908 844 843
f 940 941 939
f 939 941 942
f 944 945 943
f 943 945 946
f 948 949 947
f 947 949 950
f 952 949 951
f 951 949 948
f 954 955 953
f 953 955 956
f 958 959 957
f 957 959 802
f 960 961 799
f 799 961 962
f 859 963 860
f 860 963 932
f 964 965 966
f 966 965 922
f 936 849 938
f 938 849 967
f 968 913 935
f 935 913 837
f 947 950 917
f 917 950 918
f 925 850 936
f 936 850 849
f 970 971 969
f 969 971 972
f 945 944 827
f 827 944 973
f 974 968 828
f 828 968 935
f 975 976 978
f 978 976 977
f 799 802 960
f 960 802 959
f 924 937 798
f 798 937 795
f 960 959 859
f 859 959 963
f 979 963 958
f 958 963 959
f 980 981 861
f 861 981 862
f 983 984 982
f 982 984 863
f 985 800 962
f 962 800 799
f 957 802 986
f 986 802 801
f 986 987 957
f 957 987 983
f 987 988 983
f 983 988 984
f 990 984 989
f 989 984 988
f 957 983 958
f 958 983 982
f 991 954 866
f 866 954 992
f 864 863 990
f 990 863 984
f 971 995 996
f 995 997 996
f 996 997 998
f 997 796 998
f 998 796 795
f 797 999 798
f 798 999 922
f 1000 1001 1003
f 1003 1001 1002
f 953 1004 954
f 954 1004 992
f 1005 865 992
f 992 865 866
f 998 795 1006
f 1006 795 937
f 912 991 838
f 838 991 866
f 916 1007 929
f 929 1007 930
f 971 970 988
f 988 970 989
f 1008 972 996
f 996 972 971
f 1009 1010 1006
f 1006 1010 1008
f 1011 1012 869
f 869 1012 867
f 1013 1014 871
f 871 1014 870
f 1008 1010 1012
f 1012 1010 1015
f 825 1016 826
f 826 1016 1017
f 1018 969 1013
f 1013 969 1014
f 783 786 894
f 894 786 1019
f 1020 1021 967
f 967 1021 938
f 1022 1023 876
f 876 1023 877
f 934 1024 825
f 825 1024 1016
f 854 1025 855
f 855 1025 1026
f 1028 903 1027
f 1027 903 902
f 1030 1031 1029
f 1029 1031 1032
f 889 888 814
f 814 888 1033
f 1034 811 1033
f 1033 811 814
f 1035 1036 932
f 932 1036 933
f 841 947 911
f 911 947 917
f 844 948 841
f 841 948 947
f 951 948 907
f 907 948 844
f 907 906 951
f 951 906 1037
f 906 1038 1037
f 1037 1038 1039
f 991 912 1040
f 1040 912 915
f 1041 1042 964
f 964 1042 965
f 890 1043 891
f 891 1043 1044
f 789 1045 1046
f 1012 1011 1008
f 1008 1011 972
f 931 1047 848
f 848 1047 845
f 953 956 943
f 943 956 919
f 928 931 872
f 872 931 848
f 1049 999 1048
f 1048 999 985
f 1047 931 1050
f 1050 931 930
f 899 823 887
f 887 823 886
f 825 828 934
f 934 828 935
f 835 1051 836
f 836 1051 1052
f 923 1053 1038
f 1038 1053 1039
f 1054 927 921
f 921 927 856
f 926 1047 853
f 853 1047 1050
f 985 1055 1048
f 1048 1055 1056
f 973 974 827
f 827 974 828
f 837 913 838
f 838 913 912
f 861 882 980
f 980 882 1057
f 927 926 856
f 856 926 853
f 1025 1056 1026
f 1026 1056 1055
f 961 960 862
f 862 960 859
f 826 1017 1059
f 1059 1017 1060
f 1005 1001 1061
f 1061 1001 1000
f 1001 1004 1002
f 1002 1004 946
f 1059 1060 1002
f 1002 1060 1003
f 943 946 953
f 953 946 1004
f 1042 1041 916
f 916 1041 1007
f 792 794 906
f 906 794 1038
f 998 1006 996
f 996 1006 1008
f 865 1005 1062
f 1062 1005 1061
f 1038 794 923
f 923 794 924
f 1022 876 1036
f 1036 876 933
f 836 1052 934
f 934 1052 1024
f 885 1063 829
f 829 1063 833
f 1021 1064 938
f 938 1064 874
f 1012 1015 867
f 867 1015 868
f 824 910 885
f 885 910 1063
f 1031 1030 1027
f 1027 1030 1028
f 1064 804 874
f 874 804 803
f 884 883 1065
f 1065 883 1066
f 1050 930 1067
f 1067 930 1007
f 916 929 917
f 917 929 911
f 961 1068 939
f 939 1068 940
f 1069 1070 1055
f 1055 1070 1071
f 929 928 911
f 911 928 872
f 1040 1053 955
f 955 1053 965
f 922 965 923
f 923 965 1053
f 1051 835 1062
f 1062 835 865
f 952 914 968
f 968 914 913
f 889 895 890
f 890 895 816
f 895 897 816
f 816 897 901
f 890 816 1043
f 1043 816 815
f 1065 1066 1032
f 1032 1066 1029
f 1006 937 1009
f 1009 937 793
f 1001 1005 1004
f 1004 1005 992
f 925 845 926
f 926 845 1047
f 1002 946 1059
f 1059 946 945
f 977 941 978
f 978 941 940
f 823 824 886
f 886 824 885
f 1059 945 826
f 826 945 827
f 939 942 1069
f 1069 942 1070
f 816 901 817
f 1071 1072 1055
f 1055 1072 1026
f 1062 1061 1074
f 1074 1061 1073
f 1062 1074 1051
f 1051 1074 1075
f 1052 1051 1076
f 1076 1051 1075
f 1024 1052 1077
f 1077 1052 1076
f 1061 1000 1073
f 1073 1000 1078
f 1000 1003 1078
f 1078 1003 1079
f 1079 1003 1080
f 1080 1003 1060
f 1081 1082 1078
f 1078 1082 1073
f 1084 1085 1083
f 1083 1085 1086
f 1087 1088 1086
f 1086 1088 1083
f 1086 1085 1090
f 1090 1085 1089
f 1091 1092 1090
f 1090 1092 1093
f 1089 1094 1090
f 1090 1094 1091
f 1095 1082 1089
f 1089 1082 1094
f 1093 1087 1090
f 1090 1087 1086
f 1096 1097 1099
f 1099 1097 1098
f 1097 1096 1087
f 1087 1096 1088
f 1089 1085 1095
f 1095 1085 1084
f 1084 1075 1095
f 1095 1075 1074
f 1084 1100 1075
f 1075 1100 1076
f 1083 1101 1084
f 1084 1101 1100
f 1101 1083 1102
f 1102 1083 1088
f 1082 1095 1073
f 1073 1095 1074
f 1096 1103 1088
f 1088 1103 1102
f 1101 1102 1104
f 1104 1102 1105
f 1102 1103 1105
f 1105 1103 1106
f 1104 1105 1107
f 1107 1105 1108
f 1107 1109 1104
f 1104 1109 1110
f 1111 1108 1106
f 1106 1108 1105
f 1101 1104 1100
f 1100 1104 1110
f 1100 1110 1076
f 1076 1110 1077
f 1103 1096 1112
f 1112 1096 1099
f 1091 1094 1113
f 1113 1094 1082
f 1113 1114 1091
f 1091 1114 1092
f 1082 1081 1113
f 1113 1081 1115
f 1114 1113 1116
f 1116 1113 1115
f 1114 1117 1092
f 1092 1117 1118
f 1024 1077 1016
f 1016 1077 1119
f 1017 1120 1060
f 1060 1120 1080
f 1120 1017 1119
f 1119 1017 1016
f 1119 1109 1120
f 1120 1109 1121
f 1109 1107 1121
f 1121 1107 1122
f 1120 1121 1080
f 1080 1121 1123
f 1119 1077 1109
f 1109 1077 1110
f 1124 1079 1123
f 1123 1079 1080
f 1124 1081 1079
f 1079 1081 1078
f 1125 1115 1124
f 1124 1115 1081
f 1125 1124 1126
f 1126 1124 1123
f 1127 1125 1128
f 1128 1125 1126
f 1121 1122 1123
f 1123 1122 1126
f 1122 1129 1126
f 1126 1129 1128
f 1115 1125 1116
f 1116 1125 1127
f 1131 1116 1130
f 1130 1116 1127
f 1130 1133 1132
f 1132 1133 1134
f 1130 1127 1133
f 1133 1127 1128
f 1130 1132 1131
f 1131 1132 1112
f 1131 1112 1117
f 1117 1112 1099
f 1117 1114 1131
f 1131 1114 1116
f 1107 1108 1122
f 1122 1108 1129
f 1134 1129 1111
f 1111 1129 1108
f 1134 1133 1129
f 1129 1133 1128
f 1132 1134 1106
f 1106 1134 1111
f 1106 1103 1132
f 1132 1103 1112
f 1087 1093 1097
f 1097 1093 1098
f 1098 1118 1099
f 1099 1118 1117
f 1098 1093 1118
f 1118 1093 1092
f 915 914 1039
f 1039 914 1037
f 918 944 919
f 919 944 943
f 950 949 973
f 973 949 974
f 949 952 974
f 974 952 968
f 956 955 1042
f 1042 955 965
f 950 973 918
f 918 973 944
f 915 1039 1040
f 1040 1039 1053
f 956 1042 919
f 919 1042 916
f 1040 955 991
f 991 955 954
f 914 952 1037
f 1037 952 951
f 1136 1137 1135
f 1135 1137 1138
f 1140 1141 1139
f 1139 1141 1142
f 1139 1142 1143
f 1143 1142 1144
f 1145 1146 1148
f 1148 1146 1147
f 854 1149 1025
f 1025 1149 1150
f 1151 1152 1140
f 1140 1152 1141
f 1154 1155 1153
f 1153 1155 1156
f 1067 1007 1158
f 1158 1007 1157
f 1159 1157 1041
f 1041 1157 1007
f 1161 1162 1160
f 1160 1162 1163
f 1164 1146 1152
f 1152 1146 1141
f 854 1067 1149
f 1149 1067 1158
f 1155 1154 1137
f 1137 1154 1165
f 1166 1164 1138
f 1138 1164 1152
f 1167 1161 1144
f 1144 1161 1168
f 1170 1171 1169
f 1169 1171 1172
f 1161 1160 1168
f 1168 1160 1173
f 1174 1143 1168
f 1168 1143 1144
f 1167 1144 1145
f 1145 1144 1142
f 1135 1175 1136
f 1136 1175 1176
f 1151 1177 1135
f 1135 1177 1175
f 1167 1145 1178
f 1178 1145 1148
f 1160 1163 1153
f 1153 1163 1150
f 1135 1138 1151
f 1151 1138 1152
f 1139 1179 1140
f 1140 1179 1180
f 1165 1166 1137
f 1137 1166 1138
f 1141 1146 1142
f 1142 1146 1145
f 1136 1176 1181
f 1181 1176 1182
f 1174 1170 1183
f 1183 1170 1169
f 1170 1173 1171
f 1171 1173 1156
f 1171 1181 1172
f 1172 1181 1182
f 1153 1156 1160
f 1160 1156 1173
f 1143 1174 1184
f 1184 1174 1183
f 1140 1180 1151
f 1151 1180 1177
f 1049 1048 1178
f 1178 1048 1162
f 1179 1139 1184
f 1184 1139 1143
f 1159 1147 1164
f 1164 1147 1146
f 1170 1174 1173
f 1173 1174 1168
f 1171 1156 1181
f 1181 1156 1155
f 1181 1155 1136
f 1136 1155 1137
f 1184 1183 1186
f 1186 1183 1185
f 1184 1186 1179
f 1179 1186 1187
f 1179 1187 1180
f 1180 1187 1188
f 1180 1188 1177
f 1177 1188 1189
f 1183 1169 1185
f 1185 1169 1190
f 1169 1172 1190
f 1190 1172 1191
f 1172 1182 1191
f 1191 1182 1192
f 1193 1194 1190
f 1190 1194 1185
f 1196 1197 1195
f 1195 1197 1198
f 1199 1200 1196
f 1196 1200 1197
f 1197 1200 1202
f 1202 1200 1201
f 1203 1204 1202
f 1202 1204 1205
f 1201 1206 1202
f 1202 1206 1203
f 1205 1198 1202
f 1202 1198 1197
f 1198 1207 1195
f 1195 1207 1208
f 1201 1200 1209
f 1209 1200 1199
f 1199 1187 1209
f 1209 1187 1186
f 1199 1210 1187
f 1187 1210 1188
f 1196 1211 1199
f 1199 1211 1210
f 1212 1211 1195
f 1195 1211 1196
f 1209 1194 1201
f 1201 1194 1206
f 1194 1209 1185
f 1185 1209 1186
f 1213 1212 1208
f 1208 1212 1195
f 1211 1212 1214
f 1214 1212 1215
f 1212 1213 1215
f 1215 1213 1216
f 1214 1215 1217
f 1217 1215 1218
f 1217 1219 1214
f 1214 1219 1220
f 1216 1221 1215
f 1215 1221 1218
f 1214 1220 1211
f 1211 1220 1210
f 1210 1220 1188
f 1188 1220 1189
f 1213 1208 1223
f 1223 1208 1222
f 1208 1207 1222
f 1222 1207 1224
f 1203 1206 1225
f 1225 1206 1194
f 1204 1203 1226
f 1226 1203 1225
f 1194 1193 1225
f 1225 1193 1227
f 1225 1227 1226
f 1226 1227 1228
f 1229 1230 1226
f 1226 1230 1204
f 1224 1230 1222
f 1222 1230 1229
f 1177 1189 1175
f 1175 1189 1231
f 1176 1232 1182
f 1182 1232 1192
f 1232 1176 1231
f 1231 1176 1175
f 1231 1219 1232
f 1232 1219 1233
f 1219 1217 1233
f 1233 1217 1234
f 1232 1233 1192
f 1192 1233 1235
f 1219 1231 1220
f 1220 1231 1189
f 1236 1191 1235
f 1235 1191 1192
f 1236 1193 1191
f 1191 1193 1190
f 1236 1237 1193
f 1193 1237 1227
f 1237 1236 1238
f 1238 1236 1235
f 1239 1237 1240
f 1240 1237 1238
f 1233 1234 1235
f 1235 1234 1238
f 1234 1241 1238
f 1238 1241 1240
f 1237 1239 1227
f 1227 1239 1228
f 1243 1228 1242
f 1242 1228 1239
f 1242 1245 1244
f 1244 1245 1246
f 1242 1239 1245
f 1245 1239 1240
f 1242 1244 1243
f 1243 1244 1223
f 1243 1223 1229
f 1229 1223 1222
f 1229 1226 1243
f 1243 1226 1228
f 1217 1218 1234
f 1234 1218 1241
f 1246 1241 1221
f 1221 1241 1218
f 1246 1245 1241
f 1241 1245 1240
f 1244 1246 1216
f 1216 1246 1221
f 1216 1213 1244
f 1244 1213 1223
f 1198 1205 1207
f 1207 1205 1224
f 1224 1205 1230
f 1230 1205 1204
f 1148 1147 966
f 966 1147 964
f 1149 1154 1150
f 1150 1154 1153
f 1158 1157 1165
f 1165 1157 1166
f 1157 1159 1166
f 1166 1159 1164
f 1163 1162 1056
f 1056 1162 1048
f 1158 1165 1149
f 1149 1165 1154
f 1178 1148 1049
f 1049 1148 966
f 1163 1056 1150
f 1150 1056 1025
f 1178 1162 1167
f 1167 1162 1161
f 1147 1159 964
f 964 1159 1041
f 999 1049 922
f 922 1049 966
f 999 797 985
f 985 797 800
f 797 796 800
f 800 796 801
f 796 997 801
f 801 997 986
f 1247 1248 1250
f 1250 1248 1249
f 1252 1253 1251
f 1251 1253 1254
f 1251 1254 1255
f 1255 1254 1256
f 1258 1259 1257
f 1257 1259 1260
f 1261 1262 1252
f 1252 1262 1253
f 1264 1265 1263
f 1263 1265 1266
f 1267 1268 855
f 855 1268 920
f 1269 1267 1026
f 1026 1267 855
f 1271 1272 1270
f 1270 1272 1273
f 1274 1258 1262
f 1262 1258 1253
f 1264 1275 1265
f 1265 1275 1249
f 1276 1274 1250
f 1250 1274 1262
f 1277 1271 1256
f 1256 1271 1278
f 1279 1280 1282
f 1282 1280 1281
f 1271 1270 1278
f 1278 1270 1283
f 1284 1255 1278
f 1278 1255 1256
f 1277 1256 1257
f 1257 1256 1254
f 1247 1285 1248
f 1248 1285 1286
f 1261 1287 1247
f 1247 1287 1285
f 1257 1260 1277
f 1277 1260 1288
f 1270 1273 1263
f 1263 1273 1289
f 1261 1247 1262
f 1262 1247 1250
f 1251 1290 1252
f 1252 1290 1291
f 1275 1276 1249
f 1249 1276 1250
f 1253 1258 1254
f 1254 1258 1257
f 1248 1286 1292
f 1292 1286 1293
f 1284 1280 1294
f 1294 1280 1279
f 1281 1280 1266
f 1266 1280 1283
f 1292 1293 1281
f 1281 1293 1282
f 1263 1266 1270
f 1270 1266 1283
f 1255 1284 1295
f 1295 1284 1294
f 1252 1291 1261
f 1261 1291 1287
f 1288 1070 1272
f 1272 1070 942
f 1290 1251 1295
f 1295 1251 1255
f 1269 1259 1274
f 1274 1259 1258
f 1280 1284 1283
f 1283 1284 1278
f 1281 1266 1292
f 1292 1266 1265
f 1292 1265 1248
f 1248 1265 1249
f 1295 1294 1297
f 1297 1294 1296
f 1295 1297 1290
f 1290 1297 1298
f 1290 1298 1291
f 1291 1298 1299
f 1291 1299 1287
f 1287 1299 1300
f 1294 1279 1296
f 1296 1279 1301
f 1279 1282 1301
f 1301 1282 1302
f 1302 1282 1303
f 1303 1282 1293
f 1304 1305 1301
f 1301 1305 1296
f 1307 1308 1306
f 1306 1308 1309
f 1310 1311 1307
f 1307 1311 1308
f 1308 1311 1313
f 1313 1311 1312
f 1314 1315 1313
f 1313 1315 1316
f 1312 1317 1313
f 1313 1317 1314
f 1316 1309 1313
f 1313 1309 1308
f 1318 1319 1309
f 1309 1319 1306
f 1311 1310 1312
f 1312 1310 1320
f 1310 1298 1320
f 1320 1298 1297
f 1310 1321 1298
f 1298 1321 1299
f 1307 1322 1310
f 1310 1322 1321
f 1322 1307 1323
f 1323 1307 1306
f 1312 1320 1317
f 1317 1320 1305
f 1305 1320 1296
f 1296 1320 1297
f 1319 1324 1306
f 1306 1324 1323
f 1325 1322 1326
f 1326 1322 1323
f 1324 1327 1323
f 1323 1327 1326
f 1328 1325 1329
f 1329 1325 1326
f 1325 1328 1331
f 1331 1328 1330
f 1327 1332 1326
f 1326 1332 1329
f 1322 1325 1321
f 1321 1325 1331
f 1321 1331 1299
f 1299 1331 1300
f 1324 1319 1334
f 1334 1319 1333
f 1319 1318 1333
f 1333 1318 1335
f 1314 1317 1336
f 1336 1317 1305
f 1315 1314 1337
f 1337 1314 1336
f 1305 1304 1336
f 1336 1304 1338
f 1337 1336 1339
f 1339 1336 1338
f 1337 1340 1315
f 1315 1340 1341
f 1335 1341 1333
f 1333 1341 1340
f 1287 1300 1285
f 1285 1300 1342
f 1286 1343 1293
f 1293 1343 1303
f 1343 1286 1342
f 1342 1286 1285
f 1342 1330 1343
f 1343 1330 1344
f 1330 1328 1344
f 1344 1328 1345
f 1343 1344 1303
f 1303 1344 1346
f 1342 1300 1330
f 1330 1300 1331
f 1347 1302 1346
f 1346 1302 1303
f 1347 1304 1302
f 1302 1304 1301
f 1348 1338 1347
f 1347 1338 1304
f 1348 1347 1349
f 1349 1347 1346
f 1350 1348 1351
f 1351 1348 1349
f 1344 1345 1346
f 1346 1345 1349
f 1345 1352 1349
f 1349 1352 1351
f 1348 1350 1338
f 1338 1350 1339
f 1354 1339 1353
f 1353 1339 1350
f 1353 1356 1355
f 1355 1356 1357
f 1353 1350 1356
f 1356 1350 1351
f 1353 1355 1354
f 1354 1355 1334
f 1354 1334 1340
f 1340 1334 1333
f 1340 1337 1354
f 1354 1337 1339
f 1328 1329 1345
f 1345 1329 1352
f 1357 1352 1332
f 1332 1352 1329
f 1357 1356 1352
f 1352 1356 1351
f 1357 1332 1355
f 1355 1332 1327
f 1327 1324 1355
f 1355 1324 1334
f 1309 1316 1318
f 1318 1316 1335
f 1335 1316 1341
f 1341 1316 1315
f 1259 1072 1260
f 1260 1072 1071
f 1358 1264 1289
f 1289 1264 1263
f 1268 1267 1275
f 1275 1267 1276
f 1267 1269 1276
f 1276 1269 1274
f 941 1273 942
f 942 1273 1272
f 1358 1268 1264
f 1264 1268 1275
f 1260 1071 1288
f 1288 1071 1070
f 1273 941 1289
f 1289 941 977
f 1272 1271 1288
f 1288 1271 1277
f 1259 1269 1072
f 1072 1269 1026
f 1360 1361 1359
f 1359 1361 1362
f 1364 1365 1363
f 1363 1365 1366
f 1363 1366 1367
f 1367 1366 1368
f 1370 1371 1369
f 1369 1371 1372
f 1373 1374 1376
f 1376 1374 1375
f 1377 1378 1364
f 1364 1378 1365
f 1379 1380 1382
f 1382 1380 1381
f 1383 1384 1386
f 1386 1384 1385
f 1387 1385 978
f 978 1385 1384
f 1388 1389 1391
f 1391 1389 1390
f 1378 1392 1365
f 1365 1392 1370
f 1374 1383 1375
f 1375 1383 1386
f 1380 1393 1381
f 1381 1393 1361
f 1394 1392 1362
f 1362 1392 1378
f 1389 1396 1395
f 1395 1396 1368
f 1398 1399 1397
f 1397 1399 1400
f 1388 1401 1389
f 1389 1401 1396
f 1402 1367 1396
f 1396 1367 1368
f 1395 1368 1369
f 1369 1368 1366
f 1359 1403 1360
f 1360 1403 1404
f 1377 1405 1359
f 1359 1405 1403
f 1369 1372 1395
f 1395 1372 1406
f 1379 1388 1376
f 1376 1388 1391
f 1359 1362 1377
f 1377 1362 1378
f 1363 1407 1364
f 1364 1407 1408
f 1393 1394 1361
f 1361 1394 1362
f 1365 1370 1366
f 1366 1370 1369
f 1360 1404 1409
f 1409 1404 1410
f 1402 1398 1411
f 1411 1398 1397
f 1399 1398 1382
f 1382 1398 1401
f 1409 1410 1399
f 1399 1410 1400
f 1388 1379 1401
f 1401 1379 1382
f 1367 1402 1412
f 1412 1402 1411
f 1364 1408 1377
f 1377 1408 1405
f 981 980 1406
f 1406 980 1390
f 1407 1363 1412
f 1412 1363 1367
f 1387 1371 1392
f 1392 1371 1370
f 1398 1402 1401
f 1401 1402 1396
f 1409 1399 1381
f 1381 1399 1382
f 1360 1409 1361
f 1361 1409 1381
f 1412 1411 1414
f 1414 1411 1413
f 1412 1414 1407
f 1407 1414 1415
f 1407 1415 1408
f 1408 1415 1416
f 1408 1416 1405
f 1405 1416 1417
f 1411 1397 1413
f 1413 1397 1418
f 1397 1400 1418
f 1418 1400 1419
f 1419 1400 1420
f 1420 1400 1410
f 1422 1413 1421
f 1421 1413 1418
f 1423 1424 1426
f 1426 1424 1425
f 1427 1428 1424
f 1424 1428 1425
f 1425 1428 1430
f 1430 1428 1429
f 1430 1431 1433
f 1433 1431 1432
f 1429 1434 1430
f 1430 1434 1431
f 1433 1426 1430
f 1430 1426 1425
f 1426 1435 1423
f 1423 1435 1436
f 1428 1427 1429
f 1429 1427 1437
f 1427 1415 1437
f 1437 1415 1414
f 1427 1438 1415
f 1415 1438 1416
f 1439 1438 1424
f 1424 1438 1427
f 1440 1439 1423
f 1423 1439 1424
f 1429 1437 1434
f 1434 1437 1422
f 1422 1437 1413
f 1413 1437 1414
f 1441 1440 1436
f 1436 1440 1423
f 1442 1439 1443
f 1443 1439 1440
f 1441 1444 1440
f 1440 1444 1443
f 1445 1442 1446
f 1446 1442 1443
f 1442 1445 1448
f 1448 1445 1447
f 1444 1449 1443
f 1443 1449 1446
f 1439 1442 1438
f 1438 1442 1448
f 1438 1448 1416
f 1416 1448 1417
f 1436 1450 1441
f 1441 1450 1451
f 1436 1435 1450
f 1450 1435 1452
f 1431 1434 1453
f 1453 1434 1422
f 1431 1453 1432
f 1432 1453 1454
f 1453 1422 1455
f 1455 1422 1421
f 1454 1453 1456
f 1456 1453 1455
f 1457 1458 1454
f 1454 1458 1432
f 1452 1458 1450
f 1450 1458 1457
f 1405 1417 1403
f 1403 1417 1459
f 1404 1460 1410
f 1410 1460 1420
f 1459 1460 1403
f 1403 1460 1404
f 1447 1461 1459
f 1459 1461 1460
f 1445 1462 1447
f 1447 1462 1461
f 1460 1461 1420
f 1420 1461 1463
f 1459 1417 1447
f 1447 1417 1448
f 1464 1419 1463
f 1463 1419 1420
f 1419 1464 1418
f 1418 1464 1421
f 1464 1465 1421
f 1421 1465 1455
f 1465 1464 1466
f 1466 1464 1463
f 1467 1465 1468
f 1468 1465 1466
f 1461 1462 1463
f 1463 1462 1466
f 1462 1469 1466
f 1466 1469 1468
f 1465 1467 1455
f 1455 1467 1456
f 1471 1456 1470
f 1470 1456 1467
f 1470 1473 1472
f 1472 1473 1474
f 1470 1467 1473
f 1473 1467 1468
f 1470 1472 1471
f 1471 1472 1451
f 1471 1451 1457
f 1457 1451 1450
f 1457 1454 1471
f 1471 1454 1456
f 1462 1445 1469
f 1469 1445 1446
f 1474 1469 1449
f 1449 1469 1446
f 1474 1473 1469
f 1469 1473 1468
f 1472 1474 1444
f 1444 1474 1449
f 1444 1441 1472
f 1472 1441 1451
f 1426 1433 1435
f 1435 1433 1452
f 1452 1433 1458
f 1458 1433 1432
f 1371 940 1372
f 1372 940 1068
f 1376 1375 1379
f 1379 1375 1380
f 1393 1386 1394
f 1394 1386 1385
f 1385 1387 1394
f 1394 1387 1392
f 1475 1373 1391
f 1391 1373 1376
f 1375 1386 1380
f 1380 1386 1393
f 1372 1068 1406
f 1406 1068 981
f 1406 1390 1395
f 1395 1390 1389
f 1371 1387 940
f 940 1387 978
f 883 807 1476
f 1476 807 1477
f 1046 904 1479
f 1479 904 1478
f 904 903 1478
f 1478 903 1480
f 1030 1481 1028
f 1028 1481 1482
f 810 1046 1483
f 1483 1046 1479
f 1066 883 1484
f 1484 883 1476
f 807 810 1477
f 1477 810 1483
f 1485 1029 1484
f 1484 1029 1066
f 1028 1482 903
f 903 1482 1480
f 1481 1030 1485
f 1485 1030 1029
f 1484 1486 1485
f 1485 1486 1487
f 1485 1487 1481
f 1481 1487 1488
f 1481 1488 1482
f 1482 1488 1489
f 1482 1489 1480
f 1480 1489 1490
f 1484 1476 1486
f 1486 1476 1491
f 1476 1477 1491
f 1491 1477 1492
f 1477 1483 1492
f 1492 1483 1493
f 1495 1486 1494
f 1494 1486 1491
f 1497 1498 1496
f 1496 1498 1499
f 1500 1501 1497
f 1497 1501 1498
f 1502 1503 1501
f 1501 1503 1498
f 1502 1504 1503
f 1503 1504 1505
f 1506 1499 1503
f 1503 1499 1498
f 1499 1506 1507
f 1507 1506 1508
f 1507 1509 1499
f 1499 1509 1496
f 1502 1501 1510
f 1510 1501 1500
f 1500 1488 1510
f 1510 1488 1487
f 1500 1511 1488
f 1488 1511 1489
f 1497 1512 1500
f 1500 1512 1511
f 1512 1497 1513
f 1513 1497 1496
f 1502 1510 1504
f 1504 1510 1495
f 1495 1510 1486
f 1486 1510 1487
f 1509 1514 1496
f 1496 1514 1513
f 1515 1512 1516
f 1516 1512 1513
f 1514 1517 1513
f 1513 1517 1516
f 1518 1515 1519
f 1519 1515 1516
f 1515 1518 1521
f 1521 1518 1520
f 1517 1522 1516
f 1516 1522 1519
f 1512 1515 1511
f 1511 1515 1521
f 1511 1521 1489
f 1489 1521 1490
f 1514 1509 1524
f 1524 1509 1523
f 1509 1507 1523
f 1523 1507 1508
f 1505 1504 1525
f 1525 1504 1495
f 1526 1505 1527
f 1527 1505 1525
f 1525 1495 1528
f 1528 1495 1494
f 1527 1525 1529
f 1529 1525 1528
f 1527 1530 1526
f 1526 1530 1531
f 1508 1531 1523
f 1523 1531 1530
f 1506 1503 1526
f 1526 1503 1505
f 1508 1506 1531
f 1531 1506 1526
f 1478 1480 1532
f 1532 1480 1490
f 1483 1479 1493
f 1493 1479 1533
f 1532 1533 1478
f 1478 1533 1479
f 1520 1534 1532
f 1532 1534 1533
f 1518 1535 1520
f 1520 1535 1534
f 1533 1534 1493
f 1493 1534 1536
f 1532 1490 1520
f 1520 1490 1521
f 1537 1492 1536
f 1536 1492 1493
f 1492 1537 1491
f 1491 1537 1494
f 1537 1538 1494
f 1494 1538 1528
f 1538 1537 1539
f 1539 1537 1536
f 1540 1538 1541
f 1541 1538 1539
f 1534 1535 1536
f 1536 1535 1539
f 1535 1542 1539
f 1539 1542 1541
f 1538 1540 1528
f 1528 1540 1529
f 1544 1529 1543
f 1543 1529 1540
f 1545 1543 1547
f 1547 1543 1546
f 1543 1540 1546
f 1546 1540 1541
f 1543 1545 1544
f 1544 1545 1524
f 1544 1524 1530
f 1530 1524 1523
f 1530 1527 1544
f 1544 1527 1529
f 1535 1518 1542
f 1542 1518 1519
f 1547 1542 1522
f 1522 1542 1519
f 1547 1546 1542
f 1542 1546 1541
f 1545 1547 1517
f 1517 1547 1522
f 1517 1514 1545
f 1545 1514 1524
f 997 995 986
f 986 995 987
f 987 995 988
f 988 995 971
f 976 1358 977
f 977 1358 1289
f 854 853 1067
f 1067 853 1050
f 1055 985 1069
f 1069 985 962
f 1068 961 981
f 981 961 862
f 1268 1358 920
f 920 1358 976
f 920 976 921
f 921 976 975
f 927 1054 850
f 850 1054 851
f 882 881 1057
f 1057 881 1548
f 1548 1374 1057
f 1057 1374 1373
f 1383 1374 1549
f 1549 1374 1548
f 1549 1548 1550
f 1550 1548 881
f 1550 881 1551
f 1551 881 880
f 933 1552 879
f 879 1552 880
f 1551 880 875
f 875 880 1552
f 1553 1551 878
f 878 1551 875
f 1551 1553 1550
f 1550 1553 1554
f 1550 1554 1549
f 1549 1554 1555
f 978 1384 975
f 975 1384 1555
f 967 849 1556
f 1556 849 852
f 875 1552 876
f 876 1552 933
f 961 939 962
f 962 939 1069
f 1555 1054 975
f 975 1054 921
f 1555 1384 1549
f 1549 1384 1383
f 1391 1390 1475
f 1475 1390 980
f 1373 1475 1057
f 1057 1475 980
f 851 1054 1554
f 1554 1054 1555
f 1554 1553 851
f 851 1553 852
f 878 1556 1553
f 1553 1556 852
f 1556 878 967
f 967 878 877
f 1023 1020 877
f 877 1020 967
f 909 811 1034
f 806 779 873
f 873 779 840
f 805 780 806
f 806 780 779
f 1043 893 1044
f 1044 893 892
f 873 840 847
f 847 840 842
f 840 839 842
f 842 839 843
f 839 791 843
f 843 791 908
f 791 790 908
f 908 790 792
f 809 789 810
f 810 789 1046
f 793 790 809
f 809 790 789
f 809 808 793
f 793 808 1009
f 808 884 1009
f 1009 884 1010
f 1065 1015 884
f 884 1015 1010
f 1032 868 1065
f 1065 868 1015
f 1031 822 1032
f 1032 822 868
f 1031 1027 822
f 822 1027 785
f 1045 905 1046
f 1046 905 904
f 788 781 1019
f 1019 781 894
f 781 780 894
f 894 780 892
f 780 805 892
f 892 805 1044
f 805 804 1044
f 1044 804 891
f 804 1064 891
f 891 1064 888
f 1064 1021 888
f 888 1021 1033
f 1021 1020 1033
f 1033 1020 1034
f 1020 1023 1034
f 1034 1023 909
f 1023 1022 909
f 909 1022 910
f 1043 815 893
f 893 815 819
f 819 815 820
f 820 815 818
f 870 869 818
f 818 869 820
f 1014 1011 870
f 870 1011 869
f 969 972 1014
f 1014 972 1011
f 1036 1063 1022
f 1022 1063 910
f 1035 833 1036
f 1036 833 1063
f 1035 932 979
f 979 932 963
f 834 979 982
f 982 979 958
f 833 1035 834
f 834 1035 979
f 982 863 834
f 834 863 830
f 864 900 831
f 831 900 857
f 990 993 864
f 864 993 900
f 989 994 990
f 990 994 993
f 970 1058 989
f 989 1058 994
f 969 1018 970
f 970 1018 1058
f 1027 902 785
f 785 902 786
f 902 905 786
f 786 905 1019
f 905 1045 1019
f 1019 1045 788
f 788 1045 787
f 787 1045 789
