o hand_left
v -0.027683 0.018793 0.599409
v -0.036243 0.026520 0.600534
v -0.026139 0.027097 0.598580
v -0.019063 0.020009 0.596217
v -0.034749 0.046980 0.597711
v -0.036638 0.054291 0.587781
v -0.020622 0.048817 0.587493
v -0.021768 0.043778 0.596761
v -0.012499 0.018710 0.592476
v -0.017885 0.026651 0.596820
v -0.012037 0.015903 0.587587
v -0.009295 0.006377 0.580711
v -0.008236 0.010605 0.587286
v -0.005658 -0.000410 0.579678
v -0.018178 0.003703 0.573983
v -0.011359 -0.008000 0.577447
v -0.039446 -0.010188 0.585954
v -0.047464 -0.013348 0.596568
v -0.034055 -0.023012 0.600390
v -0.026698 -0.018215 0.589715
v -0.047682 -0.020474 0.616504
v -0.039579 -0.022672 0.607866
v -0.053542 -0.013810 0.603456
v -0.060044 -0.012213 0.611469
v -0.040557 0.016841 0.607964
v -0.049446 0.023854 0.608122
v -0.045627 0.024417 0.604398
v -0.036867 0.017791 0.604164
v -0.009392 0.020278 0.580413
v -0.018469 0.018798 0.573020
v -0.014835 0.014734 0.578973
v -0.008576 0.020140 0.586111
v -0.070880 0.041557 0.616491
v -0.082566 0.044808 0.610104
v -0.080036 0.046121 0.604801
v -0.070095 0.042531 0.611604
v -0.062104 0.053971 0.590084
v -0.073010 0.051452 0.588136
v -0.077037 0.050517 0.574916
v -0.066276 0.050020 0.574427
v -0.048756 0.055523 0.589440
v -0.052603 0.053689 0.575843
v -0.038182 0.052868 0.575961
v -0.020554 0.047913 0.577988
v -0.089348 0.039656 0.620005
v -0.081645 0.036996 0.626402
v 0.036995 -0.009223 0.597699
v 0.035703 -0.011022 0.603278
v 0.032036 -0.010541 0.601954
v 0.033853 -0.009138 0.596566
v -0.094954 0.020416 0.624560
v -0.097924 0.012387 0.618849
v -0.103421 0.017309 0.618743
v -0.100157 0.025554 0.622332
v -0.087989 0.013715 0.627458
v -0.089777 0.006185 0.618857
v 0.041806 -0.019269 0.590725
v 0.041198 -0.014053 0.591129
v 0.037095 -0.015426 0.588725
v 0.036947 -0.020816 0.588583
v -0.011859 0.013298 0.593423
v -0.019051 0.013325 0.599387
v 0.001088 0.000738 0.596831
v -0.007596 0.004930 0.597701
v -0.005516 0.006836 0.591398
v 0.000827 0.002574 0.590372
v -0.024395 0.001433 0.614320
v -0.033652 0.008544 0.611938
v -0.028942 0.008978 0.607242
v -0.017610 0.002277 0.608776
v -0.040921 0.008358 0.624401
v -0.031395 0.001034 0.625552
v -0.036533 0.001778 0.632567
v -0.041986 0.007607 0.630940
v -0.013992 -0.011258 0.624376
v -0.008781 -0.016939 0.624734
v -0.009919 -0.017320 0.628060
v -0.016451 -0.011673 0.627256
v -0.109163 0.021456 0.617692
v -0.104860 0.030325 0.619287
v -0.058998 -0.015652 0.634732
v -0.062575 -0.007805 0.642168
v -0.053614 -0.015747 0.648076
v -0.052244 -0.022128 0.638433
v -0.096428 0.007047 0.609792
v -0.103418 0.010614 0.610956
v 0.041252 -0.024622 0.593936
v 0.036326 -0.025841 0.592229
v -0.043675 0.044003 0.566981
v -0.022770 0.041828 0.570189
v -0.060066 0.043277 0.566909
v -0.071588 0.041195 0.567546
v -0.080674 0.041983 0.566848
v -0.007091 0.000833 0.603510
v -0.027642 0.013180 0.603233
v -0.043548 0.016394 0.612007
v -0.054832 0.014434 0.641141
v -0.062682 0.021451 0.638743
v -0.054553 0.021598 0.631572
v -0.049657 0.014920 0.634855
v -0.059071 -0.000386 0.647823
v -0.052355 0.004281 0.647225
v -0.045863 -0.002291 0.649875
v -0.051363 -0.007683 0.651535
v -0.008234 0.024414 0.574234
v -0.021455 0.023803 0.568251
v -0.089929 0.029559 0.627199
v -0.094449 0.034145 0.622591
v -0.101166 0.037239 0.618268
v -0.059386 0.033958 0.611534
v -0.069454 0.043439 0.608217
v -0.066560 0.044990 0.604873
v -0.058205 0.033853 0.608668
v -0.043025 0.036697 0.602607
v -0.049630 0.048168 0.600089
v -0.030887 0.035889 0.601866
v -0.077994 0.048961 0.597149
v -0.088424 0.050776 0.600841
v -0.085463 0.052455 0.592441
v -0.093152 0.047220 0.608839
v -0.097588 0.042641 0.615255
v -0.111778 0.012424 0.610015
v -0.082588 0.052248 0.584406
v -0.013149 0.040521 0.595576
v -0.005433 0.037671 0.594517
v -0.007395 0.030314 0.596730
v -0.014480 0.032251 0.598209
v 0.000158 -0.006565 0.580041
v 0.001971 -0.000268 0.584874
v -0.004636 0.005618 0.584147
v -0.064752 0.034447 0.623668
v -0.074076 0.031162 0.631857
v 0.002008 -0.003989 0.601920
v 0.031436 -0.020876 0.587135
v 0.031949 -0.015012 0.587135
v 0.013740 -0.010426 0.583331
v 0.013341 -0.017411 0.583048
v 0.007204 -0.014481 0.603683
v 0.006494 -0.007636 0.602125
v 0.008948 -0.009760 0.601985
v 0.010658 -0.015653 0.604419
v -0.016815 -0.015693 0.634426
v -0.022389 -0.010721 0.633756
v -0.012513 -0.024078 0.595743
v -0.010024 -0.020706 0.582274
v -0.020133 -0.014101 0.580643
v -0.029158 0.001383 0.620256
v -0.021140 -0.005107 0.623163
v -0.023559 -0.005564 0.626659
v -0.005746 -0.002924 0.606520
v 0.001275 -0.008266 0.606029
v -0.003621 -0.007759 0.608981
v -0.010123 -0.003234 0.609883
v -0.072677 -0.000872 0.636827
v -0.068715 0.007850 0.643813
v 0.039220 -0.010408 0.593511
v 0.035726 -0.010979 0.591676
v -0.038140 0.008370 0.617785
v -0.031792 -0.005516 0.579003
v -0.046588 0.016250 0.616682
v -0.033975 -0.027252 0.632951
v -0.031117 -0.023363 0.639103
v -0.025218 -0.025325 0.639746
v -0.026083 -0.030202 0.636038
v 0.025513 -0.019968 0.606564
v 0.026662 -0.014283 0.606281
v 0.030828 -0.015074 0.606231
v 0.030642 -0.021007 0.606879
v 0.006593 -0.003343 0.597916
v 0.006752 -0.000956 0.591747
v 0.011967 -0.003397 0.593362
v 0.010703 -0.006248 0.598563
v 0.007728 -0.003732 0.585779
v 0.012979 -0.005218 0.587132
v 0.025883 -0.025696 0.603105
v 0.027931 -0.028521 0.596206
v 0.010958 -0.025669 0.593983
v 0.012380 -0.022391 0.600989
v -0.072509 -0.005190 0.606154
v -0.077504 -0.003620 0.616205
v -0.065283 -0.010657 0.621780
v -0.054138 -0.018532 0.627361
v -0.042682 -0.024980 0.632017
v -0.038119 -0.028431 0.620956
v -0.069556 -0.008145 0.628499
v -0.000046 -0.021323 0.603485
v -0.001366 -0.023473 0.593779
v -0.005251 -0.024522 0.599975
v -0.049127 0.016822 0.623802
v 0.031186 -0.010189 0.590117
v -0.082501 0.020006 0.570595
v -0.089218 0.012308 0.579713
v -0.080808 0.009600 0.580208
v -0.072852 0.018827 0.570464
v 0.028175 -0.009105 0.601930
v 0.029823 -0.007231 0.595839
v -0.024949 -0.012275 0.639971
v -0.019924 -0.016891 0.639292
v -0.021194 -0.020134 0.641385
v -0.025421 -0.015684 0.644963
v -0.080649 -0.001300 0.620908
v -0.046597 -0.020017 0.651716
v -0.046121 -0.025608 0.643023
v -0.087987 0.002544 0.610945
v -0.084040 0.000760 0.601980
v -0.092586 0.004993 0.599513
v -0.024651 -0.029584 0.612762
v -0.066682 -0.006520 0.599603
v -0.079089 0.000456 0.595914
v -0.089086 0.005507 0.592669
v -0.096746 0.008470 0.590806
v -0.099747 0.007698 0.598513
v 0.030222 -0.025985 0.591107
v 0.034529 -0.029012 0.598101
v -0.108663 0.009405 0.597144
v -0.104660 0.010745 0.588703
v -0.073427 0.001476 0.588505
v -0.066161 0.004338 0.580033
v -0.061537 -0.005101 0.592471
v -0.053458 -0.003135 0.584311
v -0.023701 -0.029862 0.601872
v 0.048141 -0.024385 0.608629
v 0.037605 -0.026285 0.605307
v 0.035418 -0.021434 0.608006
v 0.045939 -0.021877 0.611574
v 0.031822 -0.026341 0.604106
v 0.039428 -0.027671 0.599881
v -0.044097 0.003855 0.575421
v 0.002085 -0.013620 0.608902
v -0.055814 0.015559 0.570392
v -0.029486 0.009847 0.569211
v -0.037101 0.020358 0.566545
v -0.065975 0.029495 0.564873
v -0.048677 0.031462 0.563351
v -0.084644 0.031591 0.565762
v -0.075905 0.029258 0.566090
v -0.031472 0.032791 0.564961
v 0.045013 -0.008688 0.604687
v 0.043037 -0.011591 0.609422
v -0.090575 0.022242 0.569373
v -0.021372 0.033893 0.599885
v -0.055505 0.025416 0.620833
v -0.053397 0.024501 0.615568
v -0.067245 0.025448 0.636365
v -0.059044 0.027256 0.627953
v 0.047624 -0.009145 0.599874
v -0.007858 -0.023170 0.624703
v -0.009494 -0.021996 0.625302
v -0.011565 0.045481 0.588367
v -0.004844 0.042513 0.588419
v -0.003410 0.037085 0.576219
v -0.003165 0.041954 0.581638
v -0.011048 0.044968 0.579588
v -0.011821 0.039949 0.573470
v -0.060058 0.033936 0.614200
v -0.061316 0.033625 0.618035
v -0.080935 0.006920 0.632205
v -0.076229 0.015286 0.639017
v 0.006592 -0.009254 0.582015
v -0.003090 -0.014094 0.579150
v 0.004734 -0.016087 0.581801
v 0.010464 -0.022983 0.586612
v 0.003769 -0.018860 0.607084
v 0.005378 -0.020021 0.601050
v -0.058851 0.046554 0.602846
v -0.052898 0.034972 0.605164
v -0.013492 0.025370 0.594993
v -0.008424 0.023437 0.593718
v -0.016478 -0.003385 0.615242
v -0.014048 -0.032581 0.614670
v -0.012736 -0.032945 0.606007
v -0.009153 -0.009357 0.615896
v 0.051842 -0.016205 0.597115
v 0.049929 -0.011519 0.597743
v 0.001299 -0.021717 0.585077
v -0.028067 -0.004698 0.634002
v -0.019483 -0.029339 0.619071
v -0.011218 -0.029517 0.621140
v -0.046236 -0.011253 0.653676
v -0.097450 0.015599 0.578104
v 0.035013 -0.015573 0.608003
v 0.042522 -0.015967 0.612232
v 0.049569 -0.025009 0.604489
v 0.050843 -0.022221 0.599140
v -0.081988 0.022787 0.633289
v -0.051629 0.023734 0.612242
v -0.017646 0.032150 0.568576
v -0.006035 0.030386 0.573537
v -0.004639 -0.013579 0.616515
v -0.038541 -0.025556 0.638600
v -0.029902 -0.031740 0.625274
v -0.021737 -0.034755 0.629442
v -0.015121 -0.033174 0.625692
v -0.009388 -0.028290 0.625467
v 0.054021 -0.023227 0.607985
v 0.055531 -0.020388 0.602679
v 0.056239 -0.014365 0.600614
v 0.053963 -0.010163 0.600782
v 0.050337 -0.008265 0.602637
v 0.052416 -0.022516 0.612247
v 0.050121 -0.020049 0.614568
v 0.045485 -0.015511 0.614009
v 0.054905 -0.019997 0.615693
v 0.059726 -0.019445 0.613363
v 0.064005 -0.006342 0.610083
v 0.062103 -0.010847 0.606517
v 0.063617 -0.011219 0.608854
v 0.065742 -0.008110 0.612264
v 0.068445 -0.006257 0.616366
v 0.066851 -0.003736 0.614369
v 0.062015 -0.015654 0.609564
v 0.065008 -0.012098 0.614632
v 0.063307 -0.014607 0.617686
v 0.066560 -0.011925 0.621403
v 0.068362 -0.009717 0.618782
v 0.061663 -0.017042 0.613979
v 0.061070 -0.017209 0.607750
v 0.068611 -0.003459 0.618713
v 0.069867 -0.005687 0.618918
v 0.069535 -0.008139 0.621260
v 0.069084 -0.005794 0.623259
v 0.057215 -0.007971 0.604189
v 0.062187 -0.004404 0.610098
v 0.064179 -0.002396 0.615553
v 0.066176 -0.002341 0.619748
v 0.059458 -0.003136 0.612998
v 0.061677 -0.002293 0.617210
v 0.063062 -0.002507 0.621054
v 0.056829 -0.003556 0.616475
v 0.059560 -0.003096 0.619569
v 0.049745 -0.007425 0.608117
v 0.052332 -0.007046 0.604719
v 0.060991 -0.002693 0.621721
v 0.067260 -0.005062 0.624353
v 0.060322 -0.016482 0.618973
v 0.063913 -0.012127 0.623348
v 0.058281 -0.016069 0.620271
v 0.061959 -0.012140 0.624771
v 0.067010 -0.009706 0.625516
v 0.068032 -0.010016 0.623132
v 0.046693 -0.008779 0.606375
v 0.044791 -0.011957 0.611213
v 0.047229 -0.010882 0.612830
v 0.054629 -0.006286 0.619934
v 0.047818 -0.014143 0.615927
v 0.052437 -0.017580 0.617667
v 0.056648 -0.014052 0.621895
v 0.054883 -0.011009 0.622167
v 0.059745 -0.010746 0.624913
v 0.058380 -0.008639 0.624175
v 0.058132 -0.005127 0.622388
v 0.062257 -0.007672 0.626002
v 0.064959 -0.008990 0.626236
v 0.063855 -0.004535 0.624429
v 0.060513 -0.007051 0.625278
v 0.061303 -0.004635 0.623552
v 0.016267 -0.026062 0.628015
v 0.012583 -0.027487 0.633700
v 0.013963 -0.030219 0.631156
v 0.017091 -0.029328 0.626382
v 0.026373 -0.036595 0.626894
v 0.024092 -0.030735 0.625497
v 0.023453 -0.036074 0.621993
v 0.023560 -0.042526 0.623945
v 0.024640 -0.041700 0.631511
v 0.020598 -0.047246 0.628172
v 0.019226 -0.042923 0.619478
v 0.020161 -0.035350 0.618964
v 0.004392 -0.026548 0.608276
v 0.002004 -0.033411 0.607618
v -0.003219 -0.021085 0.623925
v -0.004446 -0.025082 0.624885
v 0.020055 -0.027180 0.625917
v 0.020729 -0.031073 0.623393
v 0.007970 -0.033403 0.635404
v 0.010502 -0.028755 0.633748
v 0.010894 -0.031516 0.635151
v 0.010766 -0.036302 0.638044
v 0.003181 -0.019174 0.613299
v -0.000554 -0.019220 0.618556
v 0.004584 -0.022080 0.610652
v 0.007429 -0.040512 0.634961
v 0.009447 -0.046391 0.631240
v -0.005908 -0.038546 0.618992
v -0.006246 -0.034022 0.623849
v 0.019388 -0.030144 0.621090
v 0.014669 -0.026635 0.629940
v 0.017476 -0.026532 0.625206
v 0.013861 -0.046715 0.623896
v 0.016151 -0.046065 0.635524
v 0.021133 -0.027922 0.647666
v 0.015879 -0.037301 0.642132
v 0.012516 -0.033395 0.641410
v 0.016973 -0.024790 0.647408
v 0.012808 -0.041598 0.638194
v 0.019913 -0.040519 0.638806
v 0.018529 -0.016302 0.635477
v 0.014732 -0.018094 0.640794
v 0.022757 -0.016665 0.633219
v -0.002710 -0.038309 0.611725
v 0.029893 -0.024628 0.634346
v 0.026353 -0.019139 0.632493
v 0.010378 -0.029936 0.638098
v 0.014272 -0.021003 0.645165
v 0.024965 -0.029623 0.645528
v 0.028903 -0.029902 0.638811
v 0.027312 -0.024069 0.648197
v 0.030960 -0.023281 0.642561
v 0.031289 -0.018884 0.637262
v 0.026918 -0.015800 0.634536
v 0.022924 -0.014983 0.634663
v 0.023159 -0.022940 0.650141
v 0.018570 -0.021085 0.649425
v 0.015418 -0.019186 0.645624
v 0.021181 -0.016172 0.651730
v 0.026016 -0.015330 0.651142
v 0.023850 0.001081 0.640560
v 0.026441 -0.004508 0.639688
v 0.027105 -0.004489 0.642292
v 0.024756 0.000578 0.643252
v 0.030004 -0.009950 0.640337
v 0.029418 -0.008809 0.642617
v 0.029058 -0.011625 0.646609
v 0.025936 -0.005878 0.646898
v 0.023450 -0.008133 0.650579
v 0.021589 -0.002604 0.651611
v 0.024132 -0.000116 0.648251
v 0.026485 -0.011654 0.649756
v 0.023136 0.003567 0.644768
v 0.021136 0.004985 0.643830
v 0.031088 -0.014593 0.646146
v 0.027054 -0.012316 0.635728
v 0.023966 -0.004208 0.637593
v 0.020696 0.001358 0.639374
v 0.018041 0.004763 0.643973
v 0.019569 -0.004238 0.637432
v 0.017443 0.000772 0.639874
v 0.015777 0.003189 0.644071
v 0.015075 -0.005301 0.639202
v 0.013885 -0.000506 0.642046
v 0.018157 -0.014551 0.636723
v 0.022380 -0.013080 0.634661
v 0.014191 0.001331 0.643839
v 0.020400 0.005027 0.648669
v 0.017083 0.004908 0.648088
v 0.021814 0.003744 0.648585
v 0.021885 -0.009143 0.651789
v 0.019427 -0.002860 0.652136
v 0.018924 -0.009488 0.652220
v 0.016968 -0.002564 0.652430
v 0.018687 0.001982 0.651962
v 0.020294 0.001988 0.651410
v 0.019123 -0.015702 0.636912
v 0.015808 -0.017484 0.641508
v 0.014936 -0.016763 0.641217
v 0.012629 -0.007337 0.643877
v 0.014800 -0.018155 0.645978
v 0.017615 -0.016818 0.650248
v 0.016131 -0.009974 0.651351
v 0.013247 -0.008903 0.648487
v 0.014837 -0.003137 0.652402
v 0.013074 -0.004353 0.649872
v 0.012116 -0.002514 0.645370
v 0.014673 0.001531 0.651511
v 0.016913 0.002137 0.651990
v 0.015316 0.003661 0.647519
v 0.013103 -0.000400 0.649869
v 0.013393 0.001269 0.646510
v 0.002899 -0.022065 0.643952
v -0.000829 -0.022358 0.648830
v -0.001658 -0.023860 0.647310
v 0.002289 -0.024451 0.643003
v 0.010911 -0.032114 0.644458
v 0.009933 -0.027613 0.642502
v 0.007770 -0.031346 0.639835
v 0.007478 -0.036607 0.640738
v 0.009945 -0.034321 0.649817
v 0.005230 -0.040503 0.644739
v 0.003499 -0.038024 0.637156
v 0.005384 -0.032294 0.637191
v -0.005852 -0.029525 0.628432
v -0.008877 -0.035492 0.629170
v 0.006642 -0.024121 0.642381
v 0.005338 -0.026840 0.640763
v -0.006306 -0.026641 0.652144
v -0.004151 -0.023034 0.649364
v -0.003885 -0.025968 0.651911
v -0.003644 -0.029784 0.654731
v -0.008671 -0.019238 0.631654
v -0.013415 -0.018969 0.635706
v -0.005945 -0.023531 0.629958
v -0.006466 -0.033431 0.652155
v -0.004687 -0.039911 0.648413
v -0.017857 -0.034907 0.640536
v -0.018604 -0.029219 0.642794
v 0.004729 -0.027311 0.638590
v -0.001288 -0.021261 0.645116
v 0.002433 -0.022742 0.640912
v -0.000861 -0.040729 0.641490
v 0.001698 -0.039385 0.651573
v 0.009592 -0.021107 0.665141
v 0.001268 -0.032838 0.657392
v -0.002267 -0.028094 0.656412
v 0.005761 -0.018663 0.664746
v -0.001429 -0.034943 0.655117
v 0.005535 -0.035394 0.654885
v 0.007467 -0.011433 0.651923
v 0.004116 -0.012834 0.656464
v 0.011100 -0.013528 0.649915
v -0.013922 -0.038213 0.633708
v -0.017536 -0.022505 0.641446
v 0.016970 -0.018206 0.652164
v 0.014135 -0.015341 0.650079
v -0.002903 -0.024932 0.653377
v 0.003297 -0.015651 0.661767
v 0.013507 -0.023177 0.662468
v 0.016658 -0.022713 0.656580
v 0.015090 -0.017865 0.665502
v 0.018400 -0.016993 0.659661
v 0.018203 -0.013304 0.654637
v 0.014437 -0.011355 0.652139
v 0.011108 -0.010316 0.651837
v 0.010281 -0.016453 0.667488
v 0.006605 -0.015064 0.666460
v 0.003978 -0.014805 0.661918
v 0.009659 -0.012351 0.668864
v 0.014982 -0.010764 0.667728
v 0.012888 0.005760 0.660704
v 0.014437 0.000087 0.658734
v 0.014720 -0.000180 0.659914
v 0.013711 0.005401 0.662242
v 0.017517 -0.006462 0.658005
v 0.017107 -0.004975 0.659527
v 0.017417 -0.007370 0.662956
v 0.015469 -0.001170 0.665211
v 0.011792 -0.004120 0.669299
v 0.010851 0.001197 0.670352
v 0.014337 0.004298 0.666979
v 0.015061 -0.008405 0.666937
v 0.012941 0.008072 0.664242
v 0.012735 0.009520 0.662977
v 0.018447 -0.010123 0.662566
v 0.014403 -0.006569 0.653933
v 0.012387 0.000566 0.656466
v 0.010770 0.006269 0.658371
v 0.009307 0.009312 0.661525
v 0.008484 0.000210 0.656111
v 0.007745 0.005195 0.658361
v 0.006594 0.007935 0.661262
v 0.005383 -0.000553 0.657414
v 0.005053 0.003730 0.659627
v 0.007026 -0.009038 0.654108
v 0.010543 -0.007546 0.652958
v 0.005044 0.006156 0.661654
v 0.011627 0.009194 0.667735
v 0.007392 0.009196 0.667057
v 0.012408 0.007647 0.667458
v 0.010642 -0.005353 0.670211
v 0.008952 0.001246 0.671770
v 0.007772 -0.005927 0.670356
v 0.006306 0.000594 0.671796
v 0.009520 0.005753 0.671303
v 0.010466 0.005350 0.670637
v 0.007568 -0.010661 0.653389
v 0.004449 -0.012553 0.657324
v 0.004063 -0.011256 0.657733
v 0.002311 -0.002199 0.661135
v 0.003544 -0.013236 0.662316
v 0.006009 -0.011336 0.667623
v 0.004809 -0.005387 0.668623
v 0.002453 -0.003886 0.665712
v 0.004013 0.000381 0.670067
v 0.002861 0.000001 0.667384
v 0.002381 0.002217 0.662782
v 0.004611 0.004506 0.669161
v 0.006810 0.005407 0.671063
v 0.004970 0.007636 0.665607
v 0.003178 0.003577 0.667260
v 0.003589 0.005820 0.664486
v -0.016206 -0.019849 0.639166
v -0.010993 -0.016798 0.659982
v -0.013305 -0.016414 0.663692
v -0.013838 -0.017270 0.663513
v -0.012363 -0.017473 0.659055
v -0.008112 -0.028021 0.657244
v -0.007629 -0.023019 0.656762
v -0.010350 -0.025241 0.654215
v -0.011564 -0.030095 0.654754
v -0.010739 -0.031639 0.660761
v -0.014297 -0.033166 0.659395
v -0.015048 -0.029875 0.653421
v -0.013433 -0.025296 0.652488
v -0.027644 -0.023228 0.643122
v -0.031956 -0.027026 0.643876
v -0.040826 -0.014142 0.655285
v -0.037825 -0.009675 0.653021
v -0.031312 -0.013619 0.657779
v -0.034397 -0.017085 0.659712
v -0.008980 -0.019326 0.657789
v -0.010951 -0.020269 0.655705
v -0.020023 -0.022608 0.668962
v -0.017924 -0.018569 0.666627
v -0.015708 -0.018353 0.667364
v -0.016880 -0.021607 0.671060
v -0.033224 -0.009518 0.649782
v -0.029945 -0.011379 0.646675
v -0.026714 -0.012977 0.648933
v -0.027750 -0.012934 0.654244
v -0.024777 -0.017234 0.645620
v -0.020931 -0.027174 0.668270
v -0.020443 -0.032035 0.664372
v -0.038723 -0.025694 0.656273
v -0.037709 -0.021294 0.658700
v -0.012394 -0.021397 0.654665
v -0.015836 -0.017021 0.662378
v -0.013237 -0.018061 0.658893
v -0.018544 -0.032974 0.657494
v -0.015947 -0.031358 0.666475
v -0.009035 -0.022870 0.674922
v -0.014610 -0.025910 0.671827
v -0.015818 -0.021214 0.671477
v -0.011114 -0.019904 0.674836
v -0.016835 -0.026440 0.670699
v -0.012323 -0.029622 0.668081
v -0.008485 -0.013745 0.663223
v -0.011170 -0.014550 0.668161
v -0.006093 -0.015239 0.661071
v -0.036386 -0.028554 0.648712
v -0.002450 -0.022098 0.661412
v -0.003716 -0.017717 0.660706
v -0.014735 -0.017872 0.667764
v -0.012130 -0.016632 0.672463
v -0.005829 -0.025617 0.671851
v -0.003879 -0.026429 0.665305
v -0.002440 -0.021855 0.673452
v -0.000676 -0.022803 0.667036
v -0.001163 -0.018032 0.662408
v -0.004345 -0.015369 0.661555
v -0.007207 -0.013780 0.662214
v -0.006661 -0.019766 0.676319
v -0.009179 -0.018032 0.676199
v -0.011208 -0.016118 0.673203
v -0.004505 -0.016258 0.677279
v -0.000690 -0.015007 0.674231
v -0.003428 -0.002848 0.668777
v -0.003354 -0.006744 0.666675
v -0.002509 -0.006998 0.667567
v -0.002381 -0.003004 0.669128
v -0.001718 -0.012045 0.664924
v -0.001278 -0.010992 0.666563
v -0.000035 -0.013790 0.668873
v -0.000170 -0.008478 0.671006
v -0.001334 -0.009708 0.676271
v -0.001223 -0.005478 0.677325
v 0.000145 -0.004789 0.672647
v -0.000267 -0.013357 0.673423
v -0.001465 -0.000786 0.670844
v -0.002185 0.000515 0.670885
v 0.000700 -0.016360 0.667991
v -0.005552 -0.011627 0.663165
v -0.005732 -0.005386 0.666118
v -0.005147 -0.000834 0.668877
v -0.004144 0.001491 0.672072
v -0.008302 -0.005740 0.666464
v -0.007435 -0.000623 0.669471
v -0.006412 0.001357 0.672630
v -0.010950 -0.006458 0.668611
v -0.009313 -0.001601 0.671028
v -0.011544 -0.011999 0.666507
v -0.008967 -0.011228 0.663977
v -0.007759 0.000272 0.673036
v -0.000718 0.000181 0.674700
v -0.003630 0.001051 0.675475
v 0.000239 -0.001308 0.674309
v -0.002078 -0.010177 0.677493
v -0.002178 -0.005039 0.678797
v -0.004145 -0.010455 0.678785
v -0.004282 -0.004692 0.679478
v -0.001602 -0.001538 0.677885
v -0.000480 -0.002772 0.676717
v -0.009979 -0.012868 0.665223
v -0.011139 -0.013868 0.668731
v -0.012166 -0.013277 0.670736
v -0.011868 -0.007945 0.672701
v -0.010930 -0.015299 0.675057
v -0.007786 -0.016166 0.677428
v -0.007006 -0.010084 0.678811
v -0.010027 -0.009187 0.677154
v -0.006412 -0.004073 0.679053
v -0.009052 -0.003923 0.677382
v -0.010346 -0.002877 0.674229
v -0.005704 -0.000550 0.677455
v -0.003842 -0.000551 0.678027
v -0.005767 0.000878 0.675525
v -0.007492 -0.000910 0.676696
v -0.007802 -0.000236 0.675095
v -0.041211 -0.018267 0.655594
v 0.004718 0.021937 0.581064
v 0.003007 0.019353 0.585813
v 0.004942 0.030814 0.597851
v 0.003871 0.023821 0.596572
v 0.007178 0.036660 0.594757
v 0.008810 0.038551 0.583802
v 0.007534 0.039312 0.589372
v 0.003169 0.019740 0.591981
v 0.006344 0.026858 0.577805
v 0.007968 0.034059 0.578386
v 0.014420 0.023477 0.579233
v 0.016369 0.031390 0.579945
v 0.017441 0.036608 0.584814
v 0.014188 0.037961 0.591413
v 0.012286 0.036428 0.596031
v 0.010347 0.019380 0.583945
v 0.008102 0.017646 0.588783
v 0.006778 0.019662 0.595009
v 0.016354 0.015939 0.589006
v 0.026388 0.017762 0.590926
v 0.038233 0.028585 0.602736
v 0.032508 0.030963 0.599531
v 0.033528 0.028736 0.597903
v 0.038975 0.027073 0.600596
v 0.029245 0.031117 0.594787
v 0.030268 0.028873 0.594887
v 0.028847 0.024521 0.592064
v 0.033743 0.022943 0.594947
v 0.028255 0.019285 0.592559
v 0.031025 0.017232 0.595259
v 0.038591 0.021201 0.597567
v 0.042265 0.024583 0.600953
v 0.042555 0.019811 0.600139
v 0.042177 0.024985 0.604246
v 0.029212 0.024987 0.589221
v 0.023486 0.035407 0.595758
v 0.029774 0.032642 0.601621
v 0.035810 0.029060 0.605746
v 0.040242 0.024535 0.606973
v 0.026451 0.031724 0.604778
v 0.032008 0.027521 0.607768
v 0.035622 0.022857 0.608593
v 0.023304 0.028127 0.606618
v 0.029222 0.024458 0.608341
v 0.012429 0.031096 0.600578
v 0.017274 0.035627 0.598785
v 0.032806 0.021982 0.608422
v 0.043446 0.018795 0.602906
v 0.041112 0.018269 0.605860
v 0.028567 0.014642 0.595368
v 0.035812 0.015357 0.597390
v 0.033850 0.013357 0.598901
v 0.024845 0.013253 0.596625
v 0.031826 0.012374 0.600830
v 0.039320 0.014143 0.601173
v 0.039748 0.016087 0.598925
v 0.008990 0.031684 0.599001
v 0.006725 0.025271 0.598201
v 0.009745 0.024786 0.599618
v 0.020254 0.021934 0.605652
v 0.010226 0.018865 0.597487
v 0.013083 0.015726 0.592946
v 0.022182 0.013421 0.599438
v 0.020119 0.016365 0.602809
v 0.029459 0.013504 0.603528
v 0.028005 0.015692 0.605285
v 0.028031 0.020079 0.607747
v 0.034278 0.014906 0.605659
v 0.037076 0.013556 0.603591
v 0.036584 0.018300 0.607593
v 0.031867 0.016269 0.606302
v 0.032874 0.018936 0.607778
v -0.041821 -0.005639 0.651007
v -0.036620 -0.004559 0.646744
v -0.041695 -0.000117 0.645976
v -0.047946 0.007041 0.643776
v -0.058220 0.010511 0.644698
v -0.044314 0.007664 0.637736
v -0.037937 0.000392 0.640391
v -0.030982 -0.006369 0.641296
v -0.047122 0.013157 0.629191
f 2 3 1
f 1 3 4
f 5 6 8
f 8 6 7
f 9 4 10
f 10 4 3
f 12 13 11
f 11 13 9
f 14 12 16
f 16 12 15
f 18 19 17
f 17 19 20
f 22 23 21
f 21 23 24
f 26 27 25
f 25 27 28
f 30 31 29
f 29 31 32
f 33 34 36
f 36 34 35
f 37 38 40
f 40 38 39
f 41 42 6
f 6 42 43
f 6 43 7
f 7 43 44
f 45 34 46
f 46 34 33
f 48 49 47
f 47 49 50
f 52 53 51
f 51 53 54
f 56 52 55
f 55 52 51
f 58 59 57
f 57 59 60
f 61 62 4
f 4 62 1
f 64 65 63
f 63 65 66
f 68 69 67
f 67 69 70
f 72 73 71
f 71 73 74
f 76 77 75
f 75 77 78
f 53 79 54
f 54 79 80
f 82 83 81
f 81 83 84
f 85 86 52
f 52 86 53
f 57 60 87
f 87 60 88
f 89 90 43
f 43 90 44
f 43 42 89
f 89 42 91
f 40 39 92
f 92 39 93
f 94 70 64
f 64 70 69
f 13 61 9
f 9 61 4
f 25 28 69
f 69 28 95
f 96 25 68
f 68 25 69
f 98 99 97
f 97 99 100
f 101 102 104
f 104 102 103
f 106 30 105
f 105 30 29
f 51 54 107
f 107 54 108
f 54 80 108
f 108 80 109
f 111 112 110
f 110 112 113
f 115 5 114
f 114 5 116
f 115 41 5
f 5 41 6
f 36 35 111
f 111 35 117
f 35 118 117
f 117 118 119
f 34 120 35
f 35 120 118
f 34 45 120
f 120 45 121
f 125 126 124
f 124 126 127
f 128 129 14
f 14 129 130
f 33 131 46
f 46 131 132
f 133 94 63
f 63 94 64
f 134 135 137
f 137 135 136
f 139 140 138
f 138 140 141
f 77 142 78
f 78 142 143
f 144 145 20
f 20 145 146
f 148 149 147
f 147 149 72
f 151 152 150
f 150 152 153
f 82 101 83
f 83 101 104
f 101 82 155
f 155 82 154
f 156 157 58
f 58 157 59
f 158 68 147
f 147 68 67
f 159 146 15
f 15 146 16
f 68 158 96
f 96 158 160
f 129 66 130
f 130 66 65
f 162 163 161
f 161 163 164
f 166 167 165
f 165 167 168
f 170 171 169
f 169 171 172
f 174 171 173
f 173 171 170
f 176 177 175
f 175 177 178
f 180 181 179
f 179 181 24
f 182 183 21
f 21 183 184
f 81 185 82
f 82 185 154
f 186 187 188
f 188 187 144
f 158 71 160
f 160 71 189
f 190 135 157
f 157 135 59
f 169 172 139
f 139 172 140
f 147 72 158
f 158 72 71
f 192 193 191
f 191 193 194
f 167 166 49
f 49 166 195
f 196 190 50
f 50 190 157
f 197 198 200
f 200 198 199
f 21 24 182
f 182 24 181
f 146 159 20
f 20 159 17
f 182 181 81
f 81 181 185
f 201 185 180
f 180 185 181
f 202 203 83
f 83 203 84
f 205 206 204
f 204 206 85
f 207 22 184
f 184 22 21
f 179 24 208
f 208 24 23
f 208 209 179
f 179 209 205
f 209 210 205
f 205 210 206
f 212 206 211
f 211 206 210
f 179 205 180
f 180 205 204
f 213 176 88
f 88 176 214
f 86 85 212
f 212 85 206
f 193 217 218
f 217 219 218
f 218 219 220
f 219 18 220
f 220 18 17
f 19 221 20
f 20 221 144
f 222 223 225
f 225 223 224
f 175 226 176
f 176 226 214
f 227 87 214
f 214 87 88
f 220 17 228
f 228 17 159
f 134 213 60
f 60 213 88
f 138 229 151
f 151 229 152
f 193 192 210
f 210 192 211
f 230 194 218
f 218 194 193
f 231 232 228
f 228 232 230
f 233 234 91
f 91 234 89
f 235 236 93
f 93 236 92
f 230 232 234
f 234 232 237
f 47 238 48
f 48 238 239
f 240 191 235
f 235 191 236
f 5 8 116
f 116 8 241
f 242 243 189
f 189 243 160
f 244 245 98
f 98 245 99
f 156 246 47
f 47 246 238
f 76 247 77
f 77 247 248
f 250 125 249
f 249 125 124
f 252 253 251
f 251 253 254
f 111 110 36
f 36 110 255
f 256 33 255
f 255 33 36
f 257 258 154
f 154 258 155
f 63 169 133
f 133 169 139
f 66 170 63
f 63 170 169
f 173 170 129
f 129 170 66
f 129 128 173
f 173 128 259
f 128 260 259
f 259 260 261
f 213 134 262
f 262 134 137
f 263 264 186
f 186 264 187
f 112 265 113
f 113 265 266
f 11 267 268
f 234 233 230
f 230 233 194
f 153 269 70
f 70 269 67
f 175 178 165
f 165 178 141
f 150 153 94
f 94 153 70
f 271 221 270
f 270 221 207
f 269 153 272
f 272 153 152
f 121 45 109
f 109 45 108
f 47 50 156
f 156 50 157
f 57 273 58
f 58 273 274
f 145 275 260
f 260 275 261
f 276 149 143
f 143 149 78
f 148 269 75
f 75 269 272
f 207 277 270
f 270 277 278
f 195 196 49
f 49 196 50
f 59 135 60
f 60 135 134
f 83 104 202
f 202 104 279
f 149 148 78
f 78 148 75
f 247 278 248
f 248 278 277
f 183 182 84
f 84 182 81
f 48 239 281
f 281 239 282
f 227 223 283
f 283 223 222
f 223 226 224
f 224 226 168
f 281 282 224
f 224 282 225
f 165 168 175
f 175 168 226
f 264 263 138
f 138 263 229
f 14 16 128
f 128 16 260
f 220 228 218
f 218 228 230
f 87 227 284
f 284 227 283
f 260 16 145
f 145 16 146
f 244 98 258
f 258 98 155
f 58 274 156
f 156 274 246
f 107 285 51
f 51 285 55
f 243 286 160
f 160 286 96
f 234 237 89
f 89 237 90
f 46 132 107
f 107 132 285
f 253 252 249
f 249 252 250
f 286 26 96
f 96 26 25
f 106 105 287
f 287 105 288
f 272 152 289
f 289 152 229
f 138 151 139
f 139 151 133
f 183 290 161
f 161 290 162
f 291 292 277
f 277 292 293
f 151 150 133
f 133 150 94
f 262 275 177
f 177 275 187
f 144 187 145
f 145 187 275
f 273 57 284
f 284 57 87
f 174 136 190
f 190 136 135
f 111 117 112
f 112 117 38
f 117 119 38
f 38 119 123
f 112 38 265
f 265 38 37
f 287 288 254
f 254 288 251
f 228 159 231
f 231 159 15
f 223 227 226
f 226 227 214
f 147 67 148
f 148 67 269
f 224 168 281
f 281 168 167
f 199 163 200
f 200 163 162
f 45 46 108
f 108 46 107
f 281 167 48
f 48 167 49
f 161 164 291
f 291 164 292
f 38 123 39
f 293 294 277
f 277 294 248
f 284 283 296
f 296 283 295
f 284 296 273
f 273 296 297
f 274 273 298
f 298 273 297
f 246 274 299
f 299 274 298
f 283 222 295
f 295 222 300
f 222 225 300
f 300 225 301
f 301 225 302
f 302 225 282
f 303 304 300
f 300 304 295
f 306 307 305
f 305 307 308
f 309 310 308
f 308 310 305
f 308 307 312
f 312 307 311
f 313 314 312
f 312 314 315
f 311 316 312
f 312 316 313
f 317 304 311
f 311 304 316
f 315 309 312
f 312 309 308
f 318 319 321
f 321 319 320
f 319 318 309
f 309 318 310
f 311 307 317
f 317 307 306
f 306 297 317
f 317 297 296
f 306 322 297
f 297 322 298
f 305 323 306
f 306 323 322
f 323 305 324
f 324 305 310
f 304 317 295
f 295 317 296
f 318 325 310
f 310 325 324
f 323 324 326
f 326 324 327
f 324 325 327
f 327 325 328
f 326 327 329
f 329 327 330
f 329 331 326
f 326 331 332
f 333 330 328
f 328 330 327
f 323 326 322
f 322 326 332
f 322 332 298
f 298 332 299
f 325 318 334
f 334 318 321
f 313 316 335
f 335 316 304
f 335 336 313
f 313 336 314
f 304 303 335
f 335 303 337
f 336 335 338
f 338 335 337
f 336 339 314
f 314 339 340
f 246 299 238
f 238 299 341
f 239 342 282
f 282 342 302
f 342 239 341
f 341 239 238
f 341 331 342
f 342 331 343
f 331 329 343
f 343 329 344
f 342 343 302
f 302 343 345
f 341 299 331
f 331 299 332
f 346 301 345
f 345 301 302
f 346 303 301
f 301 303 300
f 347 337 346
f 346 337 303
f 347 346 348
f 348 346 345
f 349 347 350
f 350 347 348
f 343 344 345
f 345 344 348
f 344 351 348
f 348 351 350
f 337 347 338
f 338 347 349
f 353 338 352
f 352 338 349
f 352 355 354
f 354 355 356
f 352 349 355
f 355 349 350
f 352 354 353
f 353 354 334
f 353 334 339
f 339 334 321
f 339 336 353
f 353 336 338
f 329 330 344
f 344 330 351
f 356 351 333
f 333 351 330
f 356 355 351
f 351 355 350
f 354 356 328
f 328 356 333
f 328 325 354
f 354 325 334
f 309 315 319
f 319 315 320
f 320 340 321
f 321 340 339
f 320 315 340
f 340 315 314
f 137 136 261
f 261 136 259
f 140 166 141
f 141 166 165
f 172 171 195
f 195 171 196
f 171 174 196
f 196 174 190
f 178 177 264
f 264 177 187
f 172 195 140
f 140 195 166
f 137 261 262
f 262 261 275
f 178 264 141
f 141 264 138
f 262 177 213
f 213 177 176
f 136 174 259
f 259 174 173
f 358 359 357
f 357 359 360
f 362 363 361
f 361 363 364
f 361 364 365
f 365 364 366
f 367 368 370
f 370 368 369
f 76 371 247
f 247 371 372
f 373 374 362
f 362 374 363
f 376 377 375
f 375 377 378
f 289 229 380
f 380 229 379
f 381 379 263
f 263 379 229
f 383 384 382
f 382 384 385
f 386 368 374
f 374 368 363
f 76 289 371
f 371 289 380
f 377 376 359
f 359 376 387
f 388 386 360
f 360 386 374
f 389 383 366
f 366 383 390
f 392 393 391
f 391 393 394
f 383 382 390
f 390 382 395
f 396 365 390
f 390 365 366
f 389 366 367
f 367 366 364
f 357 397 358
f 358 397 398
f 373 399 357
f 357 399 397
f 389 367 400
f 400 367 370
f 382 385 375
f 375 385 372
f 357 360 373
f 373 360 374
f 361 401 362
f 362 401 402
f 387 388 359
f 359 388 360
f 363 368 364
f 364 368 367
f 358 398 403
f 403 398 404
f 396 392 405
f 405 392 391
f 392 395 393
f 393 395 378
f 393 403 394
f 394 403 404
f 375 378 382
f 382 378 395
f 365 396 406
f 406 396 405
f 362 402 373
f 373 402 399
f 271 270 400
f 400 270 384
f 401 361 406
f 406 361 365
f 381 369 386
f 386 369 368
f 392 396 395
f 395 396 390
f 393 378 403
f 403 378 377
f 403 377 358
f 358 377 359
f 406 405 408
f 408 405 407
f 406 408 401
f 401 408 409
f 401 409 402
f 402 409 410
f 402 410 399
f 399 410 411
f 405 391 407
f 407 391 412
f 391 394 412
f 412 394 413
f 394 404 413
f 413 404 414
f 415 416 412
f 412 416 407
f 418 419 417
f 417 419 420
f 421 422 418
f 418 422 419
f 419 422 424
f 424 422 423
f 425 426 424
f 424 426 427
f 423 428 424
f 424 428 425
f 427 420 424
f 424 420 419
f 420 429 417
f 417 429 430
f 423 422 431
f 431 422 421
f 421 409 431
f 431 409 408
f 421 432 409
f 409 432 410
f 418 433 421
f 421 433 432
f 434 433 417
f 417 433 418
f 431 416 423
f 423 416 428
f 416 431 407
f 407 431 408
f 435 434 430
f 430 434 417
f 433 434 436
f 436 434 437
f 434 435 437
f 437 435 438
f 436 437 439
f 439 437 440
f 439 441 436
f 436 441 442
f 438 443 437
f 437 443 440
f 436 442 433
f 433 442 432
f 432 442 410
f 410 442 411
f 435 430 445
f 445 430 444
f 430 429 444
f 444 429 446
f 425 428 447
f 447 428 416
f 426 425 448
f 448 425 447
f 416 415 447
f 447 415 449
f 447 449 448
f 448 449 450
f 451 452 448
f 448 452 426
f 446 452 444
f 444 452 451
f 399 411 397
f 397 411 453
f 398 454 404
f 404 454 414
f 454 398 453
f 453 398 397
f 453 441 454
f 454 441 455
f 441 439 455
f 455 439 456
f 454 455 414
f 414 455 457
f 441 453 442
f 442 453 411
f 458 413 457
f 457 413 414
f 458 415 413
f 413 415 412
f 458 459 415
f 415 459 449
f 459 458 460
f 460 458 457
f 461 459 462
f 462 459 460
f 455 456 457
f 457 456 460
f 456 463 460
f 460 463 462
f 459 461 449
f 449 461 450
f 465 450 464
f 464 450 461
f 464 467 466
f 466 467 468
f 464 461 467
f 467 461 462
f 464 466 465
f 465 466 445
f 465 445 451
f 451 445 444
f 451 448 465
f 465 448 450
f 439 440 456
f 456 440 463
f 468 463 443
f 443 463 440
f 468 467 463
f 463 467 462
f 466 468 438
f 438 468 443
f 438 435 466
f 466 435 445
f 420 427 429
f 429 427 446
f 446 427 452
f 452 427 426
f 370 369 188
f 188 369 186
f 371 376 372
f 372 376 375
f 380 379 387
f 387 379 388
f 379 381 388
f 388 381 386
f 385 384 278
f 278 384 270
f 380 387 371
f 371 387 376
f 400 370 271
f 271 370 188
f 385 278 372
f 372 278 247
f 400 384 389
f 389 384 383
f 369 381 186
f 186 381 263
f 221 271 144
f 144 271 188
f 221 19 207
f 207 19 22
f 19 18 22
f 22 18 23
f 18 219 23
f 23 219 208
f 469 470 472
f 472 470 471
f 474 475 473
f 473 475 476
f 473 476 477
f 477 476 478
f 480 481 479
f 479 481 482
f 483 484 474
f 474 484 475
f 486 487 485
f 485 487 488
f 489 490 77
f 77 490 142
f 491 489 248
f 248 489 77
f 493 494 492
f 492 494 495
f 496 480 484
f 484 480 475
f 486 497 487
f 487 497 471
f 498 496 472
f 472 496 484
f 499 493 478
f 478 493 500
f 501 502 504
f 504 502 503
f 493 492 500
f 500 492 505
f 506 477 500
f 500 477 478
f 499 478 479
f 479 478 476
f 469 507 470
f 470 507 508
f 483 509 469
f 469 509 507
f 479 482 499
f 499 482 510
f 492 495 485
f 485 495 511
f 483 469 484
f 484 469 472
f 473 512 474
f 474 512 513
f 497 498 471
f 471 498 472
f 475 480 476
f 476 480 479
f 470 508 514
f 514 508 515
f 506 502 516
f 516 502 501
f 503 502 488
f 488 502 505
f 514 515 503
f 503 515 504
f 485 488 492
f 492 488 505
f 477 506 517
f 517 506 516
f 474 513 483
f 483 513 509
f 510 292 494
f 494 292 164
f 512 473 517
f 517 473 477
f 491 481 496
f 496 481 480
f 502 506 505
f 505 506 500
f 503 488 514
f 514 488 487
f 514 487 470
f 470 487 471
f 517 516 519
f 519 516 518
f 517 519 512
f 512 519 520
f 512 520 513
f 513 520 521
f 513 521 509
f 509 521 522
f 516 501 518
f 518 501 523
f 501 504 523
f 523 504 524
f 524 504 525
f 525 504 515
f 526 527 523
f 523 527 518
f 529 530 528
f 528 530 531
f 532 533 529
f 529 533 530
f 530 533 535
f 535 533 534
f 536 537 535
f 535 537 538
f 534 539 535
f 535 539 536
f 538 531 535
f 535 531 530
f 540 541 531
f 531 541 528
f 533 532 534
f 534 532 542
f 532 520 542
f 542 520 519
f 532 543 520
f 520 543 521
f 529 544 532
f 532 544 543
f 544 529 545
f 545 529 528
f 534 542 539
f 539 542 527
f 527 542 518
f 518 542 519
f 541 546 528
f 528 546 545
f 547 544 548
f 548 544 545
f 546 549 545
f 545 549 548
f 550 547 551
f 551 547 548
f 547 550 553
f 553 550 552
f 549 554 548
f 548 554 551
f 544 547 543
f 543 547 553
f 543 553 521
f 521 553 522
f 546 541 556
f 556 541 555
f 541 540 555
f 555 540 557
f 536 539 558
f 558 539 527
f 537 536 559
f 559 536 558
f 527 526 558
f 558 526 560
f 559 558 561
f 561 558 560
f 559 562 537
f 537 562 563
f 557 563 555
f 555 563 562
f 509 522 507
f 507 522 564
f 508 565 515
f 515 565 525
f 565 508 564
f 564 508 507
f 564 552 565
f 565 552 566
f 552 550 566
f 566 550 567
f 565 566 525
f 525 566 568
f 564 522 552
f 552 522 553
f 569 524 568
f 568 524 525
f 569 526 524
f 524 526 523
f 570 560 569
f 569 560 526
f 570 569 571
f 571 569 568
f 572 570 573
f 573 570 571
f 566 567 568
f 568 567 571
f 567 574 571
f 571 574 573
f 570 572 560
f 560 572 561
f 576 561 575
f 575 561 572
f 575 578 577
f 577 578 579
f 575 572 578
f 578 572 573
f 575 577 576
f 576 577 556
f 576 556 562
f 562 556 555
f 562 559 576
f 576 559 561
f 550 551 567
f 567 551 574
f 579 574 554
f 554 574 551
f 579 578 574
f 574 578 573
f 579 554 577
f 577 554 549
f 549 546 577
f 577 546 556
f 531 538 540
f 540 538 557
f 557 538 563
f 563 538 537
f 481 294 482
f 482 294 293
f 580 486 511
f 511 486 485
f 490 489 497
f 497 489 498
f 489 491 498
f 498 491 496
f 163 495 164
f 164 495 494
f 580 490 486
f 486 490 497
f 482 293 510
f 510 293 292
f 495 163 511
f 511 163 199
f 494 493 510
f 510 493 499
f 481 491 294
f 294 491 248
f 582 583 581
f 581 583 584
f 586 587 585
f 585 587 588
f 585 588 589
f 589 588 590
f 592 593 591
f 591 593 594
f 595 596 598
f 598 596 597
f 599 600 586
f 586 600 587
f 601 602 604
f 604 602 603
f 605 606 608
f 608 606 607
f 609 607 200
f 200 607 606
f 610 611 613
f 613 611 612
f 600 614 587
f 587 614 592
f 596 605 597
f 597 605 608
f 602 615 603
f 603 615 583
f 616 614 584
f 584 614 600
f 611 618 617
f 617 618 590
f 620 621 619
f 619 621 622
f 610 623 611
f 611 623 618
f 624 589 618
f 618 589 590
f 617 590 591
f 591 590 588
f 581 625 582
f 582 625 626
f 599 627 581
f 581 627 625
f 591 594 617
f 617 594 628
f 601 610 598
f 598 610 613
f 581 584 599
f 599 584 600
f 585 629 586
f 586 629 630
f 615 616 583
f 583 616 584
f 587 592 588
f 588 592 591
f 582 626 631
f 631 626 632
f 624 620 633
f 633 620 619
f 621 620 604
f 604 620 623
f 631 632 621
f 621 632 622
f 610 601 623
f 623 601 604
f 589 624 634
f 634 624 633
f 586 630 599
f 599 630 627
f 203 202 628
f 628 202 612
f 629 585 634
f 634 585 589
f 609 593 614
f 614 593 592
f 620 624 623
f 623 624 618
f 631 621 603
f 603 621 604
f 582 631 583
f 583 631 603
f 634 633 636
f 636 633 635
f 634 636 629
f 629 636 637
f 629 637 630
f 630 637 638
f 630 638 627
f 627 638 639
f 633 619 635
f 635 619 640
f 619 622 640
f 640 622 641
f 641 622 642
f 642 622 632
f 644 635 643
f 643 635 640
f 645 646 648
f 648 646 647
f 649 650 646
f 646 650 647
f 647 650 652
f 652 650 651
f 652 653 655
f 655 653 654
f 651 656 652
f 652 656 653
f 655 648 652
f 652 648 647
f 648 657 645
f 645 657 658
f 650 649 651
f 651 649 659
f 649 637 659
f 659 637 636
f 649 660 637
f 637 660 638
f 661 660 646
f 646 660 649
f 662 661 645
f 645 661 646
f 651 659 656
f 656 659 644
f 644 659 635
f 635 659 636
f 663 662 658
f 658 662 645
f 664 661 665
f 665 661 662
f 663 666 662
f 662 666 665
f 667 664 668
f 668 664 665
f 664 667 670
f 670 667 669
f 666 671 665
f 665 671 668
f 661 664 660
f 660 664 670
f 660 670 638
f 638 670 639
f 658 672 663
f 663 672 673
f 658 657 672
f 672 657 674
f 653 656 675
f 675 656 644
f 653 675 654
f 654 675 676
f 675 644 677
f 677 644 643
f 676 675 678
f 678 675 677
f 679 680 676
f 676 680 654
f 674 680 672
f 672 680 679
f 627 639 625
f 625 639 681
f 626 682 632
f 632 682 642
f 681 682 625
f 625 682 626
f 669 683 681
f 681 683 682
f 667 684 669
f 669 684 683
f 682 683 642
f 642 683 685
f 681 639 669
f 669 639 670
f 686 641 685
f 685 641 642
f 641 686 640
f 640 686 643
f 686 687 643
f 643 687 677
f 687 686 688
f 688 686 685
f 689 687 690
f 690 687 688
f 683 684 685
f 685 684 688
f 684 691 688
f 688 691 690
f 687 689 677
f 677 689 678
f 693 678 692
f 692 678 689
f 692 695 694
f 694 695 696
f 692 689 695
f 695 689 690
f 692 694 693
f 693 694 673
f 693 673 679
f 679 673 672
f 679 676 693
f 693 676 678
f 684 667 691
f 691 667 668
f 696 691 671
f 671 691 668
f 696 695 691
f 691 695 690
f 694 696 666
f 666 696 671
f 666 663 694
f 694 663 673
f 648 655 657
f 657 655 674
f 674 655 680
f 680 655 654
f 593 162 594
f 594 162 290
f 598 597 601
f 601 597 602
f 615 608 616
f 616 608 607
f 607 609 616
f 616 609 614
f 697 595 613
f 613 595 598
f 597 608 602
f 602 608 615
f 594 290 628
f 628 290 203
f 628 612 617
f 617 612 611
f 593 609 162
f 162 609 200
f 105 29 698
f 698 29 699
f 268 126 701
f 701 126 700
f 126 125 700
f 700 125 702
f 252 703 250
f 250 703 704
f 32 268 705
f 705 268 701
f 288 105 706
f 706 105 698
f 29 32 699
f 699 32 705
f 707 251 706
f 706 251 288
f 250 704 125
f 125 704 702
f 703 252 707
f 707 252 251
f 706 708 707
f 707 708 709
f 707 709 703
f 703 709 710
f 703 710 704
f 704 710 711
f 704 711 702
f 702 711 712
f 706 698 708
f 708 698 713
f 698 699 713
f 713 699 714
f 699 705 714
f 714 705 715
f 717 708 716
f 716 708 713
f 719 720 718
f 718 720 721
f 722 723 719
f 719 723 720
f 724 725 723
f 723 725 720
f 724 726 725
f 725 726 727
f 728 721 725
f 725 721 720
f 721 728 729
f 729 728 730
f 729 731 721
f 721 731 718
f 724 723 732
f 732 723 722
f 722 710 732
f 732 710 709
f 722 733 710
f 710 733 711
f 719 734 722
f 722 734 733
f 734 719 735
f 735 719 718
f 724 732 726
f 726 732 717
f 717 732 708
f 708 732 709
f 731 736 718
f 718 736 735
f 737 734 738
f 738 734 735
f 736 739 735
f 735 739 738
f 740 737 741
f 741 737 738
f 737 740 743
f 743 740 742
f 739 744 738
f 738 744 741
f 734 737 733
f 733 737 743
f 733 743 711
f 711 743 712
f 736 731 746
f 746 731 745
f 731 729 745
f 745 729 730
f 727 726 747
f 747 726 717
f 748 727 749
f 749 727 747
f 747 717 750
f 750 717 716
f 749 747 751
f 751 747 750
f 749 752 748
f 748 752 753
f 730 753 745
f 745 753 752
f 728 725 748
f 748 725 727
f 730 728 753
f 753 728 748
f 700 702 754
f 754 702 712
f 705 701 715
f 715 701 755
f 754 755 700
f 700 755 701
f 742 756 754
f 754 756 755
f 740 757 742
f 742 757 756
f 755 756 715
f 715 756 758
f 754 712 742
f 742 712 743
f 759 714 758
f 758 714 715
f 714 759 713
f 713 759 716
f 759 760 716
f 716 760 750
f 760 759 761
f 761 759 758
f 762 760 763
f 763 760 761
f 756 757 758
f 758 757 761
f 757 764 761
f 761 764 763
f 760 762 750
f 750 762 751
f 766 751 765
f 765 751 762
f 767 765 769
f 769 765 768
f 765 762 768
f 768 762 763
f 765 767 766
f 766 767 746
f 766 746 752
f 752 746 745
f 752 749 766
f 766 749 751
f 757 740 764
f 764 740 741
f 769 764 744
f 744 764 741
f 769 768 764
f 764 768 763
f 767 769 739
f 739 769 744
f 739 736 767
f 767 736 746
f 219 217 208
f 208 217 209
f 209 217 210
f 210 217 193
f 198 580 199
f 199 580 511
f 76 75 289
f 289 75 272
f 277 207 291
f 291 207 184
f 290 183 203
f 203 183 84
f 490 580 142
f 142 580 198
f 142 198 143
f 143 198 197
f 149 276 72
f 72 276 73
f 104 103 279
f 279 103 770
f 770 596 279
f 279 596 595
f 605 596 771
f 771 596 770
f 771 770 772
f 772 770 103
f 772 103 773
f 773 103 102
f 155 774 101
f 101 774 102
f 773 102 97
f 97 102 774
f 775 773 100
f 100 773 97
f 773 775 772
f 772 775 776
f 772 776 771
f 771 776 777
f 200 606 197
f 197 606 777
f 189 71 778
f 778 71 74
f 97 774 98
f 98 774 155
f 183 161 184
f 184 161 291
f 777 276 197
f 197 276 143
f 777 606 771
f 771 606 605
f 613 612 697
f 697 612 202
f 595 697 279
f 279 697 202
f 73 276 776
f 776 276 777
f 776 775 73
f 73 775 74
f 100 778 775
f 775 778 74
f 778 100 189
f 189 100 99
f 245 242 99
f 99 242 189
f 131 33 256
f 28 1 95
f 95 1 62
f 27 2 28
f 28 2 1
f 265 115 266
f 266 115 114
f 95 62 69
f 69 62 64
f 62 61 64
f 64 61 65
f 61 13 65
f 65 13 130
f 13 12 130
f 130 12 14
f 31 11 32
f 32 11 268
f 15 12 31
f 31 12 11
f 31 30 15
f 15 30 231
f 30 106 231
f 231 106 232
f 287 237 106
f 106 237 232
f 254 90 287
f 287 90 237
f 253 44 254
f 254 44 90
f 253 249 44
f 44 249 7
f 267 127 268
f 268 127 126
f 10 3 241
f 241 3 116
f 3 2 116
f 116 2 114
f 2 27 114
f 114 27 266
f 27 26 266
f 266 26 113
f 26 286 113
f 113 286 110
f 286 243 110
f 110 243 255
f 243 242 255
f 255 242 256
f 242 245 256
f 256 245 131
f 245 244 131
f 131 244 132
f 265 37 115
f 115 37 41
f 41 37 42
f 42 37 40
f 92 91 40
f 40 91 42
f 236 233 92
f 92 233 91
f 191 194 236
f 236 194 233
f 258 285 244
f 244 285 132
f 257 55 258
f 258 55 285
f 257 154 201
f 201 154 185
f 56 201 204
f 204 201 180
f 55 257 56
f 56 257 201
f 204 85 56
f 56 85 52
f 86 122 53
f 53 122 79
f 212 215 86
f 86 215 122
f 211 216 212
f 212 216 215
f 192 280 211
f 211 280 216
f 191 240 192
f 192 240 280
f 249 124 7
f 7 124 8
f 124 127 8
f 8 127 241
f 127 267 241
f 241 267 10
f 10 267 9
f 9 267 11
o hand_right
v 0.186268 0.059040 0.449576
v 0.179873 0.064095 0.459197
v 0.176913 0.062687 0.450406
v 0.184158 0.059582 0.441279
v 0.162832 0.077391 0.458436
v 0.162604 0.089208 0.455793
v 0.162798 0.080511 0.441470
v 0.162062 0.071488 0.446963
v 0.184522 0.059473 0.434845
v 0.175468 0.060890 0.442823
v 0.187774 0.060299 0.433450
v 0.200783 0.062584 0.426371
v 0.194508 0.059706 0.427423
v 0.207520 0.060354 0.421546
v 0.208038 0.068804 0.432131
v 0.216289 0.060039 0.425822
v 0.220322 0.059836 0.454444
v 0.220092 0.051539 0.465122
v 0.225362 0.039796 0.452843
v 0.223844 0.049627 0.443084
v 0.218509 0.030415 0.470682
v 0.222498 0.034955 0.460252
v 0.218529 0.047013 0.472830
v 0.214912 0.042562 0.481405
v 0.187245 0.054626 0.463607
v 0.182498 0.059949 0.472398
v 0.182701 0.062383 0.468094
v 0.187273 0.057237 0.459168
v 0.185342 0.063989 0.428522
v 0.194072 0.074235 0.433151
v 0.193582 0.066710 0.432341
v 0.182174 0.059722 0.430601
v 0.167506 0.066664 0.495721
v 0.169575 0.076407 0.505022
v 0.170257 0.080898 0.501091
v 0.168669 0.071165 0.493582
v 0.167243 0.093182 0.479875
v 0.171913 0.095913 0.489427
v 0.179059 0.107187 0.489032
v 0.177916 0.104585 0.478444
v 0.163452 0.091774 0.467407
v 0.172091 0.101842 0.465854
v 0.170273 0.097296 0.451949
v 0.168556 0.086288 0.436665
v 0.171067 0.067405 0.514175
v 0.169186 0.058871 0.508691
v 0.203100 0.026529 0.389604
v 0.202175 0.022239 0.393758
v 0.202831 0.024793 0.396107
v 0.203771 0.028623 0.391705
v 0.186880 0.056021 0.519951
v 0.196863 0.057831 0.520583
v 0.193672 0.061609 0.525953
v 0.184345 0.061599 0.524419
v 0.190248 0.048703 0.513986
v 0.200799 0.052853 0.512639
v 0.214152 0.024307 0.383322
v 0.209592 0.026845 0.383372
v 0.212465 0.029815 0.385816
v 0.217443 0.027434 0.386583
v 0.190875 0.057532 0.432410
v 0.189957 0.054683 0.440753
v 0.198629 0.046511 0.419539
v 0.196102 0.049656 0.428751
v 0.196631 0.055137 0.424853
v 0.200017 0.052548 0.417753
v 0.195127 0.038357 0.449666
v 0.191606 0.045863 0.457927
v 0.192429 0.048803 0.452083
v 0.195574 0.041710 0.441570
v 0.187528 0.037298 0.468625
v 0.191827 0.030767 0.459834
v 0.189001 0.026798 0.467018
v 0.185476 0.031891 0.471662
v 0.200050 0.022682 0.442876
v 0.202441 0.019855 0.438490
v 0.200758 0.017967 0.441021
v 0.199199 0.020984 0.446083
v 0.191583 0.065870 0.531240
v 0.182375 0.067565 0.528152
v 0.208247 0.020359 0.487536
v 0.198813 0.019640 0.493690
v 0.200879 0.008709 0.485991
v 0.211560 0.011931 0.481322
v 0.205107 0.062547 0.516168
v 0.202804 0.065008 0.523253
v 0.217400 0.019704 0.386138
v 0.220489 0.022541 0.389372
v 0.183172 0.100771 0.453252
v 0.178007 0.089003 0.435066
v 0.186612 0.105757 0.469118
v 0.189794 0.107456 0.480633
v 0.190642 0.110761 0.489433
v 0.197045 0.043095 0.429883
v 0.190175 0.053651 0.449909
v 0.186388 0.051828 0.467572
v 0.177511 0.029614 0.487229
v 0.173889 0.036644 0.494055
v 0.175281 0.040757 0.484166
v 0.178765 0.033861 0.480382
v 0.188838 0.017948 0.492714
v 0.183474 0.019464 0.486716
v 0.186401 0.013699 0.481654
v 0.191812 0.010162 0.486317
v 0.185016 0.070038 0.424441
v 0.193138 0.081226 0.433713
v 0.176867 0.056786 0.516460
v 0.175699 0.063929 0.519536
v 0.176092 0.070714 0.524678
v 0.174133 0.064584 0.483147
v 0.169298 0.074438 0.491989
v 0.169011 0.077514 0.488324
v 0.175247 0.066811 0.481286
v 0.171187 0.070352 0.467152
v 0.164597 0.080184 0.472078
v 0.168383 0.066645 0.457002
v 0.170853 0.088273 0.496881
v 0.169446 0.088475 0.507999
v 0.171105 0.095575 0.502695
v 0.169954 0.081291 0.514725
v 0.171995 0.074871 0.520623
v 0.203184 0.068743 0.530924
v 0.174230 0.101468 0.497487
v 0.162410 0.066980 0.438967
v 0.162715 0.062610 0.431865
v 0.167765 0.057391 0.434756
v 0.167780 0.060661 0.441549
v 0.212700 0.055857 0.415269
v 0.204776 0.054920 0.414964
v 0.200305 0.059765 0.422090
v 0.169408 0.055818 0.491848
v 0.170446 0.049719 0.502974
v 0.200292 0.039929 0.420608
v 0.219134 0.031070 0.390762
v 0.213793 0.033653 0.389588
v 0.213862 0.046116 0.403260
v 0.220134 0.043330 0.404360
v 0.207936 0.031784 0.417649
v 0.203022 0.036266 0.417036
v 0.204833 0.034191 0.415389
v 0.208768 0.028933 0.415831
v 0.197635 0.015752 0.449750
v 0.196321 0.018229 0.453844
v 0.223782 0.038579 0.431403
v 0.225937 0.050823 0.425336
v 0.222353 0.057202 0.434602
v 0.193468 0.034647 0.456032
v 0.196481 0.027526 0.449200
v 0.195669 0.025257 0.452613
v 0.198758 0.038584 0.429548
v 0.202251 0.034944 0.422969
v 0.201691 0.034046 0.428308
v 0.198557 0.036547 0.434690
v 0.196544 0.029974 0.501856
v 0.184993 0.027427 0.500746
v 0.205693 0.027867 0.385780
v 0.207342 0.030463 0.387902
v 0.189965 0.042070 0.463955
v 0.217561 0.065199 0.445489
v 0.184967 0.048644 0.471815
v 0.212106 0.010962 0.462116
v 0.203567 0.008727 0.461910
v 0.201940 0.007216 0.458066
v 0.207753 0.006547 0.456508
v 0.210109 0.019275 0.404690
v 0.205139 0.021588 0.402757
v 0.204982 0.020086 0.399749
v 0.209846 0.016808 0.400962
v 0.201323 0.041485 0.414779
v 0.202168 0.047500 0.412168
v 0.203150 0.042511 0.408168
v 0.203259 0.037702 0.411844
v 0.207365 0.050158 0.409258
v 0.207632 0.045912 0.404939
v 0.216645 0.019027 0.403548
v 0.221960 0.021986 0.398841
v 0.222602 0.032190 0.412291
v 0.216294 0.027792 0.413899
v 0.213129 0.053689 0.491997
v 0.208352 0.047279 0.499808
v 0.210140 0.035915 0.489540
v 0.213074 0.023890 0.480061
v 0.214990 0.013759 0.470123
v 0.222158 0.019751 0.462062
v 0.205811 0.032573 0.495867
v 0.213581 0.031190 0.423009
v 0.221958 0.037747 0.421562
v 0.219186 0.033035 0.425672
v 0.181826 0.043634 0.476453
v 0.208350 0.033937 0.391053
v 0.208333 0.097814 0.491492
v 0.212099 0.088347 0.500441
v 0.212750 0.084525 0.492496
v 0.207890 0.094773 0.482080
v 0.202443 0.026566 0.398708
v 0.203358 0.031492 0.394446
v 0.193935 0.013854 0.458167
v 0.195743 0.012074 0.453969
v 0.196087 0.009455 0.456359
v 0.192750 0.009560 0.460263
v 0.204886 0.045192 0.504353
v 0.197326 0.002591 0.479649
v 0.208281 0.005666 0.475496
v 0.207013 0.057309 0.508366
v 0.211717 0.062957 0.501863
v 0.210629 0.069186 0.509349
v 0.222657 0.023841 0.447239
v 0.216009 0.057129 0.484458
v 0.213675 0.066649 0.495357
v 0.212448 0.074247 0.504017
v 0.212133 0.079143 0.510769
v 0.210020 0.073113 0.515884
v 0.221873 0.026193 0.394172
v 0.220451 0.017360 0.394187
v 0.210735 0.077316 0.523917
v 0.212474 0.083973 0.517657
v 0.214880 0.071923 0.487786
v 0.214956 0.078329 0.478376
v 0.216922 0.062496 0.477522
v 0.217299 0.068128 0.467494
v 0.229395 0.032006 0.442567
v 0.208546 0.006009 0.387799
v 0.213687 0.012234 0.394981
v 0.208688 0.013868 0.397624
v 0.205345 0.006247 0.390708
v 0.215530 0.015593 0.399215
v 0.217241 0.014541 0.391017
v 0.213299 0.075623 0.456117
v 0.204810 0.030632 0.423203
v 0.207807 0.088177 0.465572
v 0.207211 0.078095 0.441027
v 0.201215 0.087207 0.447099
v 0.200276 0.102214 0.473689
v 0.196235 0.098714 0.456529
v 0.200681 0.107800 0.492524
v 0.201286 0.104064 0.483954
v 0.190280 0.091527 0.440960
v 0.197923 0.018166 0.386357
v 0.198329 0.014275 0.390732
v 0.208234 0.101966 0.498955
v 0.167985 0.063342 0.448127
v 0.176786 0.051677 0.481885
v 0.179442 0.055119 0.478239
v 0.172245 0.041537 0.497741
v 0.172763 0.047464 0.487486
v 0.200262 0.020132 0.381836
v 0.205517 0.016653 0.437836
v 0.204591 0.017341 0.439387
v 0.162041 0.074180 0.433943
v 0.162164 0.069397 0.428288
v 0.172510 0.073481 0.421087
v 0.165792 0.072860 0.423543
v 0.167014 0.079394 0.429120
v 0.174419 0.080664 0.426799
v 0.173067 0.062399 0.484504
v 0.171924 0.059297 0.486848
v 0.192995 0.039705 0.508540
v 0.181818 0.036772 0.506552
v 0.214048 0.050689 0.409334
v 0.220385 0.054169 0.417864
v 0.220391 0.048356 0.411431
v 0.223635 0.039365 0.409170
v 0.208872 0.028961 0.421173
v 0.214399 0.031729 0.418922
v 0.166991 0.078481 0.480888
v 0.174490 0.069380 0.475821
v 0.175237 0.059186 0.438849
v 0.175278 0.056022 0.434215
v 0.197582 0.033586 0.442356
v 0.219364 0.018872 0.437975
v 0.224284 0.025296 0.433810
v 0.201156 0.028866 0.435584
v 0.206890 0.016585 0.377895
v 0.202947 0.019379 0.379183
v 0.224260 0.044677 0.416255
v 0.192365 0.021343 0.459388
v 0.216529 0.017496 0.443753
v 0.212729 0.015587 0.438497
v 0.190871 0.006736 0.481832
v 0.211429 0.093302 0.507848
v 0.203844 0.016970 0.397276
v 0.200649 0.010368 0.393126
v 0.210925 0.007961 0.384694
v 0.211023 0.012628 0.380635
v 0.178697 0.046563 0.510506
v 0.181241 0.057050 0.475587
v 0.184895 0.082187 0.429798
v 0.179866 0.072351 0.421976
v 0.203260 0.026552 0.431803
v 0.207997 0.007915 0.467357
v 0.217762 0.013090 0.454983
v 0.212520 0.006790 0.448925
v 0.211295 0.009142 0.441575
v 0.206451 0.012537 0.437824
v 0.207166 0.004209 0.382375
v 0.207193 0.008647 0.378041
v 0.203061 0.012691 0.375430
v 0.199712 0.015785 0.376887
v 0.197751 0.017221 0.380686
v 0.204633 0.002390 0.385726
v 0.201723 0.003074 0.388399
v 0.198849 0.007976 0.391435
v 0.200475 -0.000094 0.384786
v 0.200580 -0.000629 0.379462
v 0.190617 0.005759 0.371909
v 0.196457 0.007125 0.372600
v 0.195435 0.004478 0.372501
v 0.190858 0.002434 0.371773
v 0.186923 -0.000982 0.371165
v 0.185936 0.002493 0.371152
v 0.199013 0.002659 0.374997
v 0.193166 -0.000805 0.374238
v 0.193977 -0.003318 0.377635
v 0.189485 -0.006346 0.376198
v 0.188703 -0.004332 0.372998
v 0.198047 -0.000964 0.377685
v 0.201298 0.003756 0.375244
v 0.183318 -0.001404 0.371695
v 0.184998 -0.003268 0.371090
v 0.185968 -0.005976 0.372906
v 0.182974 -0.006076 0.373864
v 0.195763 0.012676 0.375168
v 0.189190 0.007631 0.373177
v 0.184525 0.003671 0.373806
v 0.182130 -0.000346 0.374113
v 0.187005 0.007554 0.376735
v 0.183912 0.003787 0.376745
v 0.182002 0.000213 0.377454
v 0.185952 0.006200 0.380759
v 0.183662 0.002783 0.379842
v 0.194287 0.013998 0.383563
v 0.195319 0.015213 0.379528
v 0.182073 0.000691 0.379569
v 0.181998 -0.005555 0.375873
v 0.195249 -0.003604 0.381141
v 0.188969 -0.006491 0.379448
v 0.194492 -0.003272 0.383450
v 0.188491 -0.006495 0.381825
v 0.185453 -0.008476 0.377421
v 0.186820 -0.007438 0.375431
v 0.196859 0.016095 0.385713
v 0.197390 0.012050 0.390143
v 0.195168 0.010251 0.388590
v 0.186785 0.003520 0.384767
v 0.196305 0.006171 0.390094
v 0.197762 0.000887 0.387442
v 0.192166 -0.002649 0.385310
v 0.189658 -0.000473 0.386459
v 0.187489 -0.004811 0.383573
v 0.186220 -0.002578 0.384034
v 0.184129 0.000504 0.382760
v 0.184018 -0.005413 0.381411
v 0.184705 -0.007589 0.379429
v 0.181932 -0.003597 0.378744
v 0.184059 -0.003696 0.382452
v 0.182757 -0.001711 0.380530
v 0.191589 0.002747 0.413553
v 0.190994 -0.000093 0.419310
v 0.194623 0.002708 0.419584
v 0.195059 0.005028 0.414681
v 0.201455 -0.004475 0.406133
v 0.196822 -0.000002 0.406697
v 0.201771 0.002575 0.407271
v 0.207046 -0.002216 0.408078
v 0.204606 -0.009215 0.410872
v 0.209686 -0.006318 0.413349
v 0.210872 0.001916 0.410199
v 0.205335 0.006532 0.409393
v 0.212151 0.023701 0.419847
v 0.217979 0.020324 0.421177
v 0.202625 0.017798 0.433960
v 0.205005 0.014865 0.435332
v 0.193442 0.002337 0.409951
v 0.197722 0.004776 0.410480
v 0.199006 -0.000396 0.427547
v 0.195835 0.003285 0.424840
v 0.194792 -0.000076 0.423699
v 0.197929 -0.004236 0.425619
v 0.204583 0.024895 0.423763
v 0.203546 0.021785 0.429193
v 0.207624 0.024791 0.421122
v 0.204643 -0.004093 0.427051
v 0.210325 -0.005615 0.423321
v 0.218147 0.010690 0.432301
v 0.212377 0.010118 0.435210
v 0.200552 0.008503 0.411345
v 0.195032 0.006284 0.419893
v 0.196425 0.008639 0.415288
v 0.212951 -0.002028 0.416370
v 0.206684 -0.009781 0.420285
v 0.188492 -0.017637 0.418381
v 0.197910 -0.011478 0.422318
v 0.194349 -0.007940 0.424032
v 0.184857 -0.015087 0.420963
v 0.202005 -0.008079 0.424425
v 0.201802 -0.012360 0.417840
v 0.179259 -0.005464 0.412461
v 0.179210 -0.008212 0.418193
v 0.180773 -0.005659 0.408111
v 0.220669 0.015548 0.426427
v 0.189145 -0.010878 0.404307
v 0.183901 -0.006908 0.405360
v 0.191805 -0.003501 0.423395
v 0.181133 -0.011825 0.421093
v 0.191046 -0.018230 0.414571
v 0.193064 -0.015081 0.408276
v 0.185946 -0.020654 0.412962
v 0.186831 -0.018097 0.407140
v 0.183253 -0.013591 0.403305
v 0.179424 -0.009371 0.404881
v 0.177521 -0.007621 0.407978
v 0.183671 -0.020282 0.416767
v 0.180569 -0.017821 0.419643
v 0.178587 -0.013070 0.420024
v 0.176692 -0.022271 0.416775
v 0.177386 -0.023717 0.412494
v 0.162119 -0.018540 0.403493
v 0.167976 -0.017137 0.403138
v 0.168392 -0.019721 0.403717
v 0.163072 -0.021198 0.404029
v 0.174302 -0.017579 0.402648
v 0.173052 -0.019624 0.403729
v 0.175404 -0.022160 0.406875
v 0.169331 -0.022997 0.407226
v 0.170433 -0.024554 0.411746
v 0.165058 -0.026594 0.411578
v 0.163819 -0.025319 0.407016
v 0.174568 -0.023879 0.410306
v 0.159931 -0.022816 0.404909
v 0.157770 -0.021503 0.405635
v 0.178493 -0.021635 0.406286
v 0.175577 -0.011611 0.403876
v 0.166782 -0.014415 0.404161
v 0.160531 -0.016378 0.405442
v 0.156615 -0.020361 0.408263
v 0.165148 -0.012607 0.407665
v 0.159724 -0.015433 0.408466
v 0.157020 -0.019143 0.410728
v 0.164290 -0.012163 0.412362
v 0.159423 -0.015551 0.412733
v 0.174521 -0.008060 0.412357
v 0.174713 -0.008465 0.407551
v 0.157937 -0.017822 0.412570
v 0.157743 -0.025632 0.408332
v 0.156342 -0.023752 0.410823
v 0.159492 -0.025833 0.407570
v 0.170613 -0.024695 0.413891
v 0.164326 -0.026154 0.413697
v 0.169892 -0.023877 0.416548
v 0.163072 -0.025484 0.415733
v 0.159865 -0.027108 0.412403
v 0.160549 -0.027282 0.410792
v 0.177096 -0.007489 0.412354
v 0.177535 -0.009757 0.417528
v 0.175306 -0.010186 0.417580
v 0.165224 -0.014563 0.417031
v 0.176389 -0.014115 0.420136
v 0.176021 -0.019533 0.419248
v 0.169203 -0.021893 0.418533
v 0.167034 -0.018504 0.419151
v 0.162652 -0.024353 0.417611
v 0.162826 -0.021081 0.418272
v 0.160592 -0.017220 0.416315
v 0.158455 -0.024862 0.415605
v 0.158948 -0.026416 0.413811
v 0.156607 -0.022189 0.412484
v 0.159370 -0.022232 0.416821
v 0.157823 -0.019847 0.414441
v 0.179885 0.002215 0.433008
v 0.178757 0.000844 0.438586
v 0.182178 0.003012 0.439985
v 0.183471 0.004170 0.434357
v 0.187627 -0.007047 0.427906
v 0.184750 -0.002980 0.427105
v 0.188498 -0.000960 0.428212
v 0.192463 -0.004735 0.429300
v 0.187241 -0.011658 0.431290
v 0.193655 -0.008889 0.433718
v 0.197195 -0.002705 0.430929
v 0.192417 0.000968 0.429551
v 0.202833 0.009632 0.436155
v 0.207027 0.004709 0.437569
v 0.182106 0.000293 0.429405
v 0.185426 0.002195 0.430416
v 0.185515 -0.001653 0.447523
v 0.183837 0.002466 0.445173
v 0.182273 -0.000682 0.444115
v 0.183793 -0.004570 0.445602
v 0.197282 0.015904 0.442327
v 0.196223 0.013992 0.448123
v 0.198985 0.013592 0.438222
v 0.189786 -0.006557 0.446803
v 0.195516 -0.008877 0.442844
v 0.203523 0.000061 0.450991
v 0.199004 0.003180 0.454015
v 0.188588 0.004162 0.431248
v 0.184084 0.005852 0.440885
v 0.185485 0.006575 0.435262
v 0.198136 -0.006322 0.436208
v 0.191115 -0.011299 0.439975
v 0.170149 -0.018348 0.435237
v 0.183462 -0.011454 0.442544
v 0.180122 -0.006699 0.443895
v 0.167462 -0.015472 0.437332
v 0.186698 -0.009492 0.444533
v 0.186479 -0.013511 0.437717
v 0.166157 -0.004908 0.428659
v 0.165416 -0.006774 0.433793
v 0.169355 -0.005633 0.425605
v 0.207945 0.000659 0.443595
v 0.195428 0.008528 0.454044
v 0.173262 -0.011645 0.423150
v 0.171248 -0.007776 0.423705
v 0.178982 -0.002746 0.442567
v 0.165702 -0.011194 0.437212
v 0.173335 -0.018969 0.431590
v 0.175400 -0.016330 0.426317
v 0.168225 -0.020468 0.430179
v 0.170302 -0.017736 0.424947
v 0.168613 -0.013268 0.421459
v 0.166850 -0.009248 0.422229
v 0.165137 -0.006974 0.424307
v 0.165019 -0.019669 0.433730
v 0.162796 -0.016838 0.435490
v 0.163656 -0.011667 0.435905
v 0.160445 -0.020354 0.432815
v 0.161421 -0.022226 0.427742
v 0.149720 -0.016436 0.416960
v 0.155259 -0.015215 0.418382
v 0.155322 -0.016425 0.418751
v 0.149961 -0.018175 0.417132
v 0.161783 -0.015793 0.419724
v 0.160245 -0.017042 0.419839
v 0.161177 -0.019852 0.422396
v 0.155025 -0.021211 0.421076
v 0.154474 -0.022521 0.426982
v 0.149684 -0.023280 0.424985
v 0.149893 -0.022461 0.419417
v 0.159890 -0.021892 0.426221
v 0.147008 -0.019586 0.417085
v 0.146099 -0.018383 0.415834
v 0.163505 -0.019639 0.422938
v 0.161969 -0.010880 0.420093
v 0.154621 -0.012291 0.418560
v 0.148876 -0.013268 0.417135
v 0.144983 -0.015376 0.417748
v 0.153373 -0.009879 0.421304
v 0.148315 -0.011621 0.419850
v 0.144821 -0.013592 0.420305
v 0.152399 -0.009203 0.424447
v 0.147944 -0.011141 0.423100
v 0.161646 -0.006681 0.427175
v 0.161864 -0.007884 0.423048
v 0.145353 -0.012987 0.422501
v 0.144612 -0.021819 0.418881
v 0.142694 -0.018999 0.421471
v 0.146332 -0.021952 0.419080
v 0.154673 -0.022481 0.428883
v 0.148290 -0.023396 0.426955
v 0.153948 -0.020926 0.431229
v 0.147579 -0.021808 0.429148
v 0.145287 -0.023536 0.423808
v 0.146263 -0.023493 0.423035
v 0.164162 -0.006115 0.428211
v 0.163568 -0.007835 0.432961
v 0.161133 -0.008144 0.431797
v 0.151231 -0.010713 0.428753
v 0.161013 -0.011790 0.434929
v 0.158583 -0.017442 0.434289
v 0.152752 -0.017971 0.432155
v 0.151365 -0.014449 0.431540
v 0.147193 -0.019134 0.430056
v 0.147751 -0.016291 0.429760
v 0.146985 -0.012307 0.426955
v 0.144436 -0.018985 0.426896
v 0.144268 -0.021786 0.425751
v 0.143055 -0.016403 0.423358
v 0.145064 -0.016577 0.427533
v 0.144183 -0.014585 0.424839
v 0.195299 0.011540 0.451995
v 0.175866 -0.001471 0.451223
v 0.174273 -0.002518 0.454936
v 0.176101 -0.002619 0.455997
v 0.178150 -0.000598 0.452666
v 0.183437 -0.009337 0.447744
v 0.180815 -0.005477 0.446944
v 0.185000 -0.004175 0.448099
v 0.187587 -0.007830 0.449016
v 0.183566 -0.013056 0.451160
v 0.187181 -0.011674 0.452863
v 0.190461 -0.005922 0.451345
v 0.187860 -0.002117 0.450299
v 0.198047 0.006125 0.459826
v 0.201493 0.003135 0.463013
v 0.187878 0.003143 0.477420
v 0.186013 0.008322 0.474994
v 0.182465 0.002012 0.470316
v 0.185016 -0.001517 0.472870
v 0.178207 -0.002786 0.448458
v 0.181458 -0.001011 0.449617
v 0.178047 -0.009200 0.463529
v 0.176295 -0.005071 0.461330
v 0.175315 -0.005079 0.459437
v 0.175846 -0.009222 0.461797
v 0.186389 0.010618 0.469766
v 0.189463 0.010971 0.465058
v 0.186489 0.008845 0.463519
v 0.182650 0.004881 0.465989
v 0.190959 0.008326 0.459951
v 0.181450 -0.012076 0.463019
v 0.186612 -0.013247 0.459844
v 0.195203 -0.004652 0.473263
v 0.190171 -0.003496 0.474274
v 0.183567 -0.000296 0.450749
v 0.177102 -0.001746 0.457804
v 0.178969 -0.000357 0.453957
v 0.190508 -0.010317 0.455144
v 0.183551 -0.013957 0.457808
v 0.168934 -0.015201 0.456216
v 0.176521 -0.012974 0.460321
v 0.173698 -0.008932 0.460788
v 0.167223 -0.012691 0.456683
v 0.178848 -0.012664 0.461137
v 0.180067 -0.014935 0.456297
v 0.168193 -0.004158 0.448106
v 0.166874 -0.005857 0.452875
v 0.170186 -0.005085 0.445671
v 0.201073 -0.000986 0.468246
v 0.174033 -0.011422 0.444537
v 0.171798 -0.007603 0.443933
v 0.173303 -0.005083 0.458152
v 0.166507 -0.009152 0.455687
v 0.171670 -0.016885 0.453266
v 0.174730 -0.015642 0.448156
v 0.167897 -0.018097 0.451108
v 0.171183 -0.016212 0.446097
v 0.170299 -0.011606 0.442450
v 0.169157 -0.007972 0.442744
v 0.167594 -0.005608 0.444335
v 0.165255 -0.016408 0.454033
v 0.163989 -0.013653 0.454671
v 0.163961 -0.009771 0.454193
v 0.161662 -0.017460 0.451586
v 0.163156 -0.019456 0.447352
v 0.156685 -0.013543 0.436707
v 0.160371 -0.012621 0.438269
v 0.160567 -0.013837 0.438514
v 0.157042 -0.014589 0.436339
v 0.165303 -0.013123 0.440344
v 0.164314 -0.014493 0.440409
v 0.165074 -0.016924 0.442981
v 0.160543 -0.017787 0.440364
v 0.157993 -0.019981 0.444594
v 0.154654 -0.020433 0.442022
v 0.157327 -0.018742 0.438402
v 0.162569 -0.019432 0.445290
v 0.154983 -0.016129 0.435367
v 0.153854 -0.015473 0.434816
v 0.166624 -0.016857 0.443541
v 0.165461 -0.008843 0.440909
v 0.159217 -0.010402 0.438140
v 0.154849 -0.012190 0.436223
v 0.151977 -0.014624 0.435824
v 0.158846 -0.008479 0.439986
v 0.153645 -0.010622 0.437551
v 0.150922 -0.013065 0.437379
v 0.157714 -0.007318 0.442960
v 0.153142 -0.009990 0.440148
v 0.163598 -0.005292 0.446538
v 0.164595 -0.006394 0.443143
v 0.151225 -0.012367 0.439069
v 0.152598 -0.018787 0.436466
v 0.150482 -0.016997 0.437628
v 0.154030 -0.019374 0.436820
v 0.157483 -0.019916 0.446006
v 0.153287 -0.020363 0.443000
v 0.156343 -0.018578 0.448035
v 0.151949 -0.018925 0.444079
v 0.151606 -0.020140 0.439782
v 0.153475 -0.020310 0.439430
v 0.165497 -0.004783 0.447425
v 0.164716 -0.006352 0.451502
v 0.162452 -0.007027 0.450428
v 0.156490 -0.008559 0.446551
v 0.161561 -0.010547 0.452971
v 0.161335 -0.014526 0.453042
v 0.155673 -0.015907 0.448944
v 0.155432 -0.012396 0.448713
v 0.151144 -0.016813 0.444449
v 0.151325 -0.013685 0.444555
v 0.152068 -0.010905 0.443038
v 0.149847 -0.016526 0.440823
v 0.150123 -0.018372 0.440261
v 0.150005 -0.015307 0.438914
v 0.150025 -0.014608 0.441486
v 0.150416 -0.013436 0.440458
v 0.190875 0.000284 0.476764
v 0.179072 0.057752 0.416265
v 0.179153 0.053500 0.420079
v 0.163312 0.051444 0.424272
v 0.169714 0.048515 0.424663
v 0.159720 0.056095 0.420837
v 0.163717 0.064048 0.414441
v 0.160464 0.061224 0.418053
v 0.175509 0.049373 0.423095
v 0.176510 0.062286 0.413368
v 0.170182 0.065443 0.412435
v 0.176112 0.056500 0.407438
v 0.169083 0.059778 0.406381
v 0.162302 0.058840 0.407872
v 0.158695 0.056127 0.413134
v 0.157950 0.052673 0.416772
v 0.178230 0.052105 0.412611
v 0.177760 0.048272 0.416852
v 0.173278 0.045606 0.421035
v 0.176893 0.044514 0.409565
v 0.171792 0.040762 0.401453
v 0.154223 0.034471 0.395949
v 0.155200 0.039977 0.399930
v 0.157598 0.039647 0.398174
v 0.156343 0.035067 0.394265
v 0.158254 0.044567 0.401026
v 0.159746 0.042888 0.399902
v 0.165126 0.042927 0.399847
v 0.163852 0.038624 0.396440
v 0.169358 0.039861 0.400322
v 0.169113 0.036015 0.398835
v 0.162805 0.034296 0.393081
v 0.157450 0.032466 0.391348
v 0.161701 0.030420 0.390532
v 0.155559 0.030169 0.392826
v 0.165927 0.044955 0.398642
v 0.155971 0.048257 0.406941
v 0.153631 0.040259 0.403496
v 0.153073 0.033243 0.399457
v 0.155108 0.028439 0.395650
v 0.153805 0.038556 0.407819
v 0.154373 0.032136 0.403711
v 0.156897 0.027789 0.400474
v 0.156649 0.036270 0.411276
v 0.157311 0.030960 0.406355
v 0.159966 0.046348 0.418740
v 0.155996 0.048421 0.413715
v 0.158409 0.028344 0.402963
v 0.160998 0.027504 0.390750
v 0.160604 0.025602 0.394039
v 0.171789 0.035187 0.401049
v 0.168461 0.032039 0.395235
v 0.169845 0.030322 0.397595
v 0.173264 0.034657 0.404909
v 0.170254 0.028923 0.400224
v 0.166713 0.027471 0.393571
v 0.166079 0.030141 0.392354
v 0.161110 0.049219 0.421045
v 0.167208 0.046868 0.422672
v 0.166317 0.044196 0.420505
v 0.162921 0.034526 0.413458
v 0.172095 0.042041 0.418936
v 0.176125 0.042563 0.414172
v 0.172459 0.033521 0.408562
v 0.168950 0.033417 0.412072
v 0.168606 0.028251 0.403567
v 0.166321 0.028615 0.405736
v 0.161488 0.029288 0.406998
v 0.165221 0.025977 0.400083
v 0.166618 0.025960 0.396592
v 0.160896 0.025696 0.398906
v 0.164379 0.027014 0.402666
v 0.161222 0.027105 0.402457
v 0.186828 0.011326 0.477982
v 0.186814 0.014559 0.471883
v 0.185367 0.017175 0.476480
v 0.181531 0.022657 0.481499
v 0.180199 0.025661 0.491406
v 0.182906 0.027038 0.476095
v 0.186852 0.020837 0.470992
v 0.189854 0.016515 0.464369
v 0.182307 0.037055 0.476139
f 780 781 779
f 779 781 782
f 783 784 786
f 786 784 785
f 787 782 788
f 788 782 781
f 790 791 789
f 789 791 787
f 792 790 794
f 794 790 793
f 796 797 795
f 795 797 798
f 800 801 799
f 799 801 802
f 804 805 803
f 803 805 806
f 808 809 807
f 807 809 810
f 811 812 814
f 814 812 813
f 815 816 818
f 818 816 817
f 819 820 784
f 784 820 821
f 784 821 785
f 785 821 822
f 823 812 824
f 824 812 811
f 826 827 825
f 825 827 828
f 830 831 829
f 829 831 832
f 834 830 833
f 833 830 829
f 836 837 835
f 835 837 838
f 839 840 782
f 782 840 779
f 842 843 841
f 841 843 844
f 846 847 845
f 845 847 848
f 850 851 849
f 849 851 852
f 854 855 853
f 853 855 856
f 831 857 832
f 832 857 858
f 860 861 859
f 859 861 862
f 863 864 830
f 830 864 831
f 835 838 865
f 865 838 866
f 867 868 821
f 821 868 822
f 821 820 867
f 867 820 869
f 818 817 870
f 870 817 871
f 872 848 842
f 842 848 847
f 791 839 787
f 787 839 782
f 803 806 847
f 847 806 873
f 874 803 846
f 846 803 847
f 876 877 875
f 875 877 878
f 879 880 882
f 882 880 881
f 884 808 883
f 883 808 807
f 829 832 885
f 885 832 886
f 832 858 886
f 886 858 887
f 889 890 888
f 888 890 891
f 893 783 892
f 892 783 894
f 893 819 783
f 783 819 784
f 814 813 889
f 889 813 895
f 813 896 895
f 895 896 897
f 812 898 813
f 813 898 896
f 812 823 898
f 898 823 899
f 903 904 902
f 902 904 905
f 906 907 792
f 792 907 908
f 811 909 824
f 824 909 910
f 911 872 841
f 841 872 842
f 912 913 915
f 915 913 914
f 917 918 916
f 916 918 919
f 855 920 856
f 856 920 921
f 922 923 798
f 798 923 924
f 926 927 925
f 925 927 850
f 929 930 928
f 928 930 931
f 860 879 861
f 861 879 882
f 879 860 933
f 933 860 932
f 934 935 836
f 836 935 837
f 936 846 925
f 925 846 845
f 937 924 793
f 793 924 794
f 846 936 874
f 874 936 938
f 907 844 908
f 908 844 843
f 940 941 939
f 939 941 942
f 944 945 943
f 943 945 946
f 948 949 947
f 947 949 950
f 952 949 951
f 951 949 948
f 954 955 953
f 953 955 956
f 958 959 957
f 957 959 802
f 960 961 799
f 799 961 962
f 859 963 860
f 860 963 932
f 964 965 966
f 966 965 922
f 936 849 938
f 938 849 967
f 968 913 935
f 935 913 837
f 947 950 917
f 917 950 918
f 925 850 936
f 936 850 849
f 970 971 969
f 969 971 972
f 945 944 827
f 827 944 973
f 974 968 828
f 828 968 935
f 975 976 978
f 978 976 977
f 799 802 960
f 960 802 959
f 924 937 798
f 798 937 795
f 960 959 859
f 859 959 963
f 979 963 958
f 958 963 959
f 980 981 861
f 861 981 862
f 983 984 982
f 982 984 863
f 985 800 962
f 962 800 799
f 957 802 986
f 986 802 801
f 986 987 957
f 957 987 983
f 987 988 983
f 983 988 984
f 990 984 989
f 989 984 988
f 957 983 958
f 958 983 982
f 991 954 866
f 866 954 992
f 864 863 990
f 990 863 984
f 971 995 996
f 995 997 996
f 996 997 998
f 997 796 998
f 998 796 795
f 797 999 798
f 798 999 922
f 1000 1001 1003
f 1003 1001 1002
f 953 1004 954
f 954 1004 992
f 1005 865 992
f 992 865 866
f 998 795 1006
f 1006 795 937
f 912 991 838
f 838 991 866
f 916 1007 929
f 929 1007 930
f 971 970 988
f 988 970 989
f 1008 972 996
f 996 972 971
f 1009 1010 1006
f 1006 1010 1008
f 1011 1012 869
f 869 1012 867
f 1013 1014 871
f 871 1014 870
f 1008 1010 1012
f 1012 1010 1015
f 825 1016 826
f 826 1016 1017
f 1018 969 1013
f 1013 969 1014
f 783 786 894
f 894 786 1019
f 1020 1021 967
f 967 1021 938
f 1022 1023 876
f 876 1023 877
f 934 1024 825
f 825 1024 1016
f 854 1025 855
f 855 1025 1026
f 1028 903 1027
f 1027 903 902
f 1030 1031 1029
f 1029 1031 1032
f 889 888 814
f 814 888 1033
f 1034 811 1033
f 1033 811 814
f 1035 1036 932
f 932 1036 933
f 841 947 911
f 911 947 917
f 844 948 841
f 841 948 947
f 951 948 907
f 907 948 844
f 907 906 951
f 951 906 1037
f 906 1038 1037
f 1037 1038 1039
f 991 912 1040
f 1040 912 915
f 1041 1042 964
f 964 1042 965
f 890 1043 891
f 891 1043 1044
f 789 1045 1046
f 1012 1011 1008
f 1008 1011 972
f 931 1047 848
f 848 1047 845
f 953 956 943
f 943 956 919
f 928 931 872
f 872 931 848
f 1049 999 1048
f 1048 999 985
f 1047 931 1050
f 1050 931 930
f 899 823 887
f 887 823 886
f 825 828 934
f 934 828 935
f 835 1051 836
f 836 1051 1052
f 923 1053 1038
f 1038 1053 1039
f 1054 927 921
f 921 927 856
f 926 1047 853
f 853 1047 1050
f 985 1055 1048
f 1048 1055 1056
f 973 974 827
f 827 974 828
f 837 913 838
f 838 913 912
f 861 882 980
f 980 882 1057
f 927 926 856
f 856 926 853
f 1025 1056 1026
f 1026 1056 1055
f 961 960 862
f 862 960 859
f 826 1017 1059
f 1059 1017 1060
f 1005 1001 1061
f 1061 1001 1000
f 1001 1004 1002
f 1002 1004 946
f 1059 1060 1002
f 1002 1060 1003
f 943 946 953
f 953 946 1004
f 1042 1041 916
f 916 1041 1007
f 792 794 906
f 906 794 1038
f 998 1006 996
f 996 1006 1008
f 865 1005 1062
f 1062 1005 1061
f 1038 794 923
f 923 794 924
f 1022 876 1036
f 1036 876 933
f 836 1052 934
f 934 1052 1024
f 885 1063 829
f 829 1063 833
f 1021 1064 938
f 938 1064 874
f 1012 1015 867
f 867 1015 868
f 824 910 885
f 885 910 1063
f 1031 1030 1027
f 1027 1030 1028
f 1064 804 874
f 874 804 803
f 884 883 1065
f 1065 883 1066
f 1050 930 1067
f 1067 930 1007
f 916 929 917
f 917 929 911
f 961 1068 939
f 939 1068 940
f 1069 1070 1055
f 1055 1070 1071
f 929 928 911
f 911 928 872
f 1040 1053 955
f 955 1053 965
f 922 965 923
f 923 965 1053
f 1051 835 1062
f 1062 835 865
f 952 914 968
f 968 914 913
f 889 895 890
f 890 895 816
f 895 897 816
f 816 897 901
f 890 816 1043
f 1043 816 815
f 1065 1066 1032
f 1032 1066 1029
f 1006 937 1009
f 1009 937 793
f 1001 1005 1004
f 1004 1005 992
f 925 845 926
f 926 845 1047
f 1002 946 1059
f 1059 946 945
f 977 941 978
f 978 941 940
f 823 824 886
f 886 824 885
f 1059 945 826
f 826 945 827
f 939 942 1069
f 1069 942 1070
f 816 901 817
f 1071 1072 1055
f 1055 1072 1026
f 1062 1061 1074
f 1074 1061 1073
f 1062 1074 1051
f 1051 1074 1075
f 1052 1051 1076
f 1076 1051 1075
f 1024 1052 1077
f 1077 1052 1076
f 1061 1000 1073
f 1073 1000 1078
f 1000 1003 1078
f 1078 1003 1079
f 1079 1003 1080
f 1080 1003 1060
f 1081 1082 1078
f 1078 1082 1073
f 1084 1085 1083
f 1083 1085 1086
f 1087 1088 1086
f 1086 1088 1083
f 1086 1085 1090
f 1090 1085 1089
f 1091 1092 1090
f 1090 1092 1093
f 1089 1094 1090
f 1090 1094 1091
f 1095 1082 1089
f 1089 1082 1094
f 1093 1087 1090
f 1090 1087 1086
f 1096 1097 1099
f 1099 1097 1098
f 1097 1096 1087
f 1087 1096 1088
f 1089 1085 1095
f 1095 1085 1084
f 1084 1075 1095
f 1095 1075 1074
f 1084 1100 1075
f 1075 1100 1076
f 1083 1101 1084
f 1084 1101 1100
f 1101 1083 1102
f 1102 1083 1088
f 1082 1095 1073
f 1073 1095 1074
f 1096 1103 1088
f 1088 1103 1102
f 1101 1102 1104
f 1104 1102 1105
f 1102 1103 1105
f 1105 1103 1106
f 1104 1105 1107
f 1107 1105 1108
f 1107 1109 1104
f 1104 1109 1110
f 1111 1108 1106
f 1106 1108 1105
f 1101 1104 1100
f 1100 1104 1110
f 1100 1110 1076
f 1076 1110 1077
f 1103 1096 1112
f 1112 1096 1099
f 1091 1094 1113
f 1113 1094 1082
f 1113 1114 1091
f 1091 1114 1092
f 1082 1081 1113
f 1113 1081 1115
f 1114 1113 1116
f 1116 1113 1115
f 1114 1117 1092
f 1092 1117 1118
f 1024 1077 1016
f 1016 1077 1119
f 1017 1120 1060
f 1060 1120 1080
f 1120 1017 1119
f 1119 1017 1016
f 1119 1109 1120
f 1120 1109 1121
f 1109 1107 1121
f 1121 1107 1122
f 1120 1121 1080
f 1080 1121 1123
f 1119 1077 1109
f 1109 1077 1110
f 1124 1079 1123
f 1123 1079 1080
f 1124 1081 1079
f 1079 1081 1078
f 1125 1115 1124
f 1124 1115 1081
f 1125 1124 1126
f 1126 1124 1123
f 1127 1125 1128
f 1128 1125 1126
f 1121 1122 1123
f 1123 1122 1126
f 1122 1129 1126
f 1126 1129 1128
f 1115 1125 1116
f 1116 1125 1127
f 1131 1116 1130
f 1130 1116 1127
f 1130 1133 1132
f 1132 1133 1134
f 1130 1127 1133
f 1133 1127 1128
f 1130 1132 1131
f 1131 1132 1112
f 1131 1112 1117
f 1117 1112 1099
f 1117 1114 1131
f 1131 1114 1116
f 1107 1108 1122
f 1122 1108 1129
f 1134 1129 1111
f 1111 1129 1108
f 1134 1133 1129
f 1129 1133 1128
f 1132 1134 1106
f 1106 1134 1111
f 1106 1103 1132
f 1132 1103 1112
f 1087 1093 1097
f 1097 1093 1098
f 1098 1118 1099
f 1099 1118 1117
f 1098 1093 1118
f 1118 1093 1092
f 915 914 1039
f 1039 914 1037
f 918 944 919
f 919 944 943
f 950 949 973
f 973 949 974
f 949 952 974
f 974 952 968
f 956 955 1042
f 1042 955 965
f 950 973 918
f 918 973 944
f 915 1039 1040
f 1040 1039 1053
f 956 1042 919
f 919 1042 916
f 1040 955 991
f 991 955 954
f 914 952 1037
f 1037 952 951
f 1136 1137 1135
f 1135 1137 1138
f 1140 1141 1139
f 1139 1141 1142
f 1139 1142 1143
f 1143 1142 1144
f 1145 1146 1148
f 1148 1146 1147
f 854 1149 1025
f 1025 1149 1150
f 1151 1152 1140
f 1140 1152 1141
f 1154 1155 1153
f 1153 1155 1156
f 1067 1007 1158
f 1158 1007 1157
f 1159 1157 1041
f 1041 1157 1007
f 1161 1162 1160
f 1160 1162 1163
f 1164 1146 1152
f 1152 1146 1141
f 854 1067 1149
f 1149 1067 1158
f 1155 1154 1137
f 1137 1154 1165
f 1166 1164 1138
f 1138 1164 1152
f 1167 1161 1144
f 1144 1161 1168
f 1170 1171 1169
f 1169 1171 1172
f 1161 1160 1168
f 1168 1160 1173
f 1174 1143 1168
f 1168 1143 1144
f 1167 1144 1145
f 1145 1144 1142
f 1135 1175 1136
f 1136 1175 1176
f 1151 1177 1135
f 1135 1177 1175
f 1167 1145 1178
f 1178 1145 1148
f 1160 1163 1153
f 1153 1163 1150
f 1135 1138 1151
f 1151 1138 1152
f 1139 1179 1140
f 1140 1179 1180
f 1165 1166 1137
f 1137 1166 1138
f 1141 1146 1142
f 1142 1146 1145
f 1136 1176 1181
f 1181 1176 1182
f 1174 1170 1183
f 1183 1170 1169
f 1170 1173 1171
f 1171 1173 1156
f 1171 1181 1172
f 1172 1181 1182
f 1153 1156 1160
f 1160 1156 1173
f 1143 1174 1184
f 1184 1174 1183
f 1140 1180 1151
f 1151 1180 1177
f 1049 1048 1178
f 1178 1048 1162
f 1179 1139 1184
f 1184 1139 1143
f 1159 1147 1164
f 1164 1147 1146
f 1170 1174 1173
f 1173 1174 1168
f 1171 1156 1181
f 1181 1156 1155
f 1181 1155 1136
f 1136 1155 1137
f 1184 1183 1186
f 1186 1183 1185
f 1184 1186 1179
f 1179 1186 1187
f 1179 1187 1180
f 1180 1187 1188
f 1180 1188 1177
f 1177 1188 1189
f 1183 1169 1185
f 1185 1169 1190
f 1169 1172 1190
f 1190 1172 1191
f 1172 1182 1191
f 1191 1182 1192
f 1193 1194 1190
f 1190 1194 1185
f 1196 1197 1195
f 1195 1197 1198
f 1199 1200 1196
f 1196 1200 1197
f 1197 1200 1202
f 1202 1200 1201
f 1203 1204 1202
f 1202 1204 1205
f 1201 1206 1202
f 1202 1206 1203
f 1205 1198 1202
f 1202 1198 1197
f 1198 1207 1195
f 1195 1207 1208
f 1201 1200 1209
f 1209 1200 1199
f 1199 1187 1209
f 1209 1187 1186
f 1199 1210 1187
f 1187 1210 1188
f 1196 1211 1199
f 1199 1211 1210
f 1212 1211 1195
f 1195 1211 1196
f 1209 1194 1201
f 1201 1194 1206
f 1194 1209 1185
f 1185 1209 1186
f 1213 1212 1208
f 1208 1212 1195
f 1211 1212 1214
f 1214 1212 1215
f 1212 1213 1215
f 1215 1213 1216
f 1214 1215 1217
f 1217 1215 1218
f 1217 1219 1214
f 1214 1219 1220
f 1216 1221 1215
f 1215 1221 1218
f 1214 1220 1211
f 1211 1220 1210
f 1210 1220 1188
f 1188 1220 1189
f 1213 1208 1223
f 1223 1208 1222
f 1208 1207 1222
f 1222 1207 1224
f 1203 1206 1225
f 1225 1206 1194
f 1204 1203 1226
f 1226 1203 1225
f 1194 1193 1225
f 1225 1193 1227
f 1225 1227 1226
f 1226 1227 1228
f 1229 1230 1226
f 1226 1230 1204
f 1224 1230 1222
f 1222 1230 1229
f 1177 1189 1175
f 1175 1189 1231
f 1176 1232 1182
f 1182 1232 1192
f 1232 1176 1231
f 1231 1176 1175
f 1231 1219 1232
f 1232 1219 1233
f 1219 1217 1233
f 1233 1217 1234
f 1232 1233 1192
f 1192 1233 1235
f 1219 1231 1220
f 1220 1231 1189
f 1236 1191 1235
f 1235 1191 1192
f 1236 1193 1191
f 1191 1193 1190
f 1236 1237 1193
f 1193 1237 1227
f 1237 1236 1238
f 1238 1236 1235
f 1239 1237 1240
f 1240 1237 1238
f 1233 1234 1235
f 1235 1234 1238
f 1234 1241 1238
f 1238 1241 1240
f 1237 1239 1227
f 1227 1239 1228
f 1243 1228 1242
f 1242 1228 1239
f 1242 1245 1244
f 1244 1245 1246
f 1242 1239 1245
f 1245 1239 1240
f 1242 1244 1243
f 1243 1244 1223
f 1243 1223 1229
f 1229 1223 1222
f 1229 1226 1243
f 1243 1226 1228
f 1217 1218 1234
f 1234 1218 1241
f 1246 1241 1221
f 1221 1241 1218
f 1246 1245 1241
f 1241 1245 1240
f 1244 1246 1216
f 1216 1246 1221
f 1216 1213 1244
f 1244 1213 1223
f 1198 1205 1207
f 1207 1205 1224
f 1224 1205 1230
f 1230 1205 1204
f 1148 1147 966
f 966 1147 964
f 1149 1154 1150
f 1150 1154 1153
f 1158 1157 1165
f 1165 1157 1166
f 1157 1159 1166
f 1166 1159 1164
f 1163 1162 1056
f 1056 1162 1048
f 1158 1165 1149
f 1149 1165 1154
f 1178 1148 1049
f 1049 1148 966
f 1163 1056 1150
f 1150 1056 1025
f 1178 1162 1167
f 1167 1162 1161
f 1147 1159 964
f 964 1159 1041
f 999 1049 922
f 922 1049 966
f 999 797 985
f 985 797 800
f 797 796 800
f 800 796 801
f 796 997 801
f 801 997 986
f 1247 1248 1250
f 1250 1248 1249
f 1252 1253 1251
f 1251 1253 1254
f 1251 1254 1255
f 1255 1254 1256
f 1258 1259 1257
f 1257 1259 1260
f 1261 1262 1252
f 1252 1262 1253
f 1264 1265 1263
f 1263 1265 1266
f 1267 1268 855
f 855 1268 920
f 1269 1267 1026
f 1026 1267 855
f 1271 1272 1270
f 1270 1272 1273
f 1274 1258 1262
f 1262 1258 1253
f 1264 1275 1265
f 1265 1275 1249
f 1276 1274 1250
f 1250 1274 1262
f 1277 1271 1256
f 1256 1271 1278
f 1279 1280 1282
f 1282 1280 1281
f 1271 1270 1278
f 1278 1270 1283
f 1284 1255 1278
f 1278 1255 1256
f 1277 1256 1257
f 1257 1256 1254
f 1247 1285 1248
f 1248 1285 1286
f 1261 1287 1247
f 1247 1287 1285
f 1257 1260 1277
f 1277 1260 1288
f 1270 1273 1263
f 1263 1273 1289
f 1261 1247 1262
f 1262 1247 1250
f 1251 1290 1252
f 1252 1290 1291
f 1275 1276 1249
f 1249 1276 1250
f 1253 1258 1254
f 1254 1258 1257
f 1248 1286 1292
f 1292 1286 1293
f 1284 1280 1294
f 1294 1280 1279
f 1281 1280 1266
f 1266 1280 1283
f 1292 1293 1281
f 1281 1293 1282
f 1263 1266 1270
f 1270 1266 1283
f 1255 1284 1295
f 1295 1284 1294
f 1252 1291 1261
f 1261 1291 1287
f 1288 1070 1272
f 1272 1070 942
f 1290 1251 1295
f 1295 1251 1255
f 1269 1259 1274
f 1274 1259 1258
f 1280 1284 1283
f 1283 1284 1278
f 1281 1266 1292
f 1292 1266 1265
f 1292 1265 1248
f 1248 1265 1249
f 1295 1294 1297
f 1297 1294 1296
f 1295 1297 1290
f 1290 1297 1298
f 1290 1298 1291
f 1291 1298 1299
f 1291 1299 1287
f 1287 1299 1300
f 1294 1279 1296
f 1296 1279 1301
f 1279 1282 1301
f 1301 1282 1302
f 1302 1282 1303
f 1303 1282 1293
f 1304 1305 1301
f 1301 1305 1296
f 1307 1308 1306
f 1306 1308 1309
f 1310 1311 1307
f 1307 1311 1308
f 1308 1311 1313
f 1313 1311 1312
f 1314 1315 1313
f 1313 1315 1316
f 1312 1317 1313
f 1313 1317 1314
f 1316 1309 1313
f 1313 1309 1308
f 1318 1319 1309
f 1309 1319 1306
f 1311 1310 1312
f 1312 1310 1320
f 1310 1298 1320
f 1320 1298 1297
f 1310 1321 1298
f 1298 1321 1299
f 1307 1322 1310
f 1310 1322 1321
f 1322 1307 1323
f 1323 1307 1306
f 1312 1320 1317
f 1317 1320 1305
f 1305 1320 1296
f 1296 1320 1297
f 1319 1324 1306
f 1306 1324 1323
f 1325 1322 1326
f 1326 1322 1323
f 1324 1327 1323
f 1323 1327 1326
f 1328 1325 1329
f 1329 1325 1326
f 1325 1328 1331
f 1331 1328 1330
f 1327 1332 1326
f 1326 1332 1329
f 1322 1325 1321
f 1321 1325 1331
f 1321 1331 1299
f 1299 1331 1300
f 1324 1319 1334
f 1334 1319 1333
f 1319 1318 1333
f 1333 1318 1335
f 1314 1317 1336
f 1336 1317 1305
f 1315 1314 1337
f 1337 1314 1336
f 1305 1304 1336
f 1336 1304 1338
f 1337 1336 1339
f 1339 1336 1338
f 1337 1340 1315
f 1315 1340 1341
f 1335 1341 1333
f 1333 1341 1340
f 1287 1300 1285
f 1285 1300 1342
f 1286 1343 1293
f 1293 1343 1303
f 1343 1286 1342
f 1342 1286 1285
f 1342 1330 1343
f 1343 1330 1344
f 1330 1328 1344
f 1344 1328 1345
f 1343 1344 1303
f 1303 1344 1346
f 1342 1300 1330
f 1330 1300 1331
f 1347 1302 1346
f 1346 1302 1303
f 1347 1304 1302
f 1302 1304 1301
f 1348 1338 1347
f 1347 1338 1304
f 1348 1347 1349
f 1349 1347 1346
f 1350 1348 1351
f 1351 1348 1349
f 1344 1345 1346
f 1346 1345 1349
f 1345 1352 1349
f 1349 1352 1351
f 1348 1350 1338
f 1338 1350 1339
f 1354 1339 1353
f 1353 1339 1350
f 1353 1356 1355
f 1355 1356 1357
f 1353 1350 1356
f 1356 1350 1351
f 1353 1355 1354
f 1354 1355 1334
f 1354 1334 1340
f 1340 1334 1333
f 1340 1337 1354
f 1354 1337 1339
f 1328 1329 1345
f 1345 1329 1352
f 1357 1352 1332
f 1332 1352 1329
f 1357 1356 1352
f 1352 1356 1351
f 1357 1332 1355
f 1355 1332 1327
f 1327 1324 1355
f 1355 1324 1334
f 1309 1316 1318
f 1318 1316 1335
f 1335 1316 1341
f 1341 1316 1315
f 1259 1072 1260
f 1260 1072 1071
f 1358 1264 1289
f 1289 1264 1263
f 1268 1267 1275
f 1275 1267 1276
f 1267 1269 1276
f 1276 1269 1274
f 941 1273 942
f 942 1273 1272
f 1358 1268 1264
f 1264 1268 1275
f 1260 1071 1288
f 1288 1071 1070
f 1273 941 1289
f 1289 941 977
f 1272 1271 1288
f 1288 1271 1277
f 1259 1269 1072
f 1072 1269 1026
f 1360 1361 1359
f 1359 1361 1362
f 1364 1365 1363
f 1363 1365 1366
f 1363 1366 1367
f 1367 1366 1368
f 1370 1371 1369
f 1369 1371 1372
f 1373 1374 1376
f 1376 1374 1375
f 1377 1378 1364
f 1364 1378 1365
f 1379 1380 1382
f 1382 1380 1381
f 1383 1384 1386
f 1386 1384 1385
f 1387 1385 978
f 978 1385 1384
f 1388 1389 1391
f 1391 1389 1390
f 1378 1392 1365
f 1365 1392 1370
f 1374 1383 1375
f 1375 1383 1386
f 1380 1393 1381
f 1381 1393 1361
f 1394 1392 1362
f 1362 1392 1378
f 1389 1396 1395
f 1395 1396 1368
f 1398 1399 1397
f 1397 1399 1400
f 1388 1401 1389
f 1389 1401 1396
f 1402 1367 1396
f 1396 1367 1368
f 1395 1368 1369
f 1369 1368 1366
f 1359 1403 1360
f 1360 1403 1404
f 1377 1405 1359
f 1359 1405 1403
f 1369 1372 1395
f 1395 1372 1406
f 1379 1388 1376
f 1376 1388 1391
f 1359 1362 1377
f 1377 1362 1378
f 1363 1407 1364
f 1364 1407 1408
f 1393 1394 1361
f 1361 1394 1362
f 1365 1370 1366
f 1366 1370 1369
f 1360 1404 1409
f 1409 1404 1410
f 1402 1398 1411
f 1411 1398 1397
f 1399 1398 1382
f 1382 1398 1401
f 1409 1410 1399
f 1399 1410 1400
f 1388 1379 1401
f 1401 1379 1382
f 1367 1402 1412
f 1412 1402 1411
f 1364 1408 1377
f 1377 1408 1405
f 981 980 1406
f 1406 980 1390
f 1407 1363 1412
f 1412 1363 1367
f 1387 1371 1392
f 1392 1371 1370
f 1398 1402 1401
f 1401 1402 1396
f 1409 1399 1381
f 1381 1399 1382
f 1360 1409 1361
f 1361 1409 1381
f 1412 1411 1414
f 1414 1411 1413
f 1412 1414 1407
f 1407 1414 1415
f 1407 1415 1408
f 1408 1415 1416
f 1408 1416 1405
f 1405 1416 1417
f 1411 1397 1413
f 1413 1397 1418
f 1397 1400 1418
f 1418 1400 1419
f 1419 1400 1420
f 1420 1400 1410
f 1422 1413 1421
f 1421 1413 1418
f 1423 1424 1426
f 1426 1424 1425
f 1427 1428 1424
f 1424 1428 1425
f 1425 1428 1430
f 1430 1428 1429
f 1430 1431 1433
f 1433 1431 1432
f 1429 1434 1430
f 1430 1434 1431
f 1433 1426 1430
f 1430 1426 1425
f 1426 1435 1423
f 1423 1435 1436
f 1428 1427 1429
f 1429 1427 1437
f 1427 1415 1437
f 1437 1415 1414
f 1427 1438 1415
f 1415 1438 1416
f 1439 1438 1424
f 1424 1438 1427
f 1440 1439 1423
f 1423 1439 1424
f 1429 1437 1434
f 1434 1437 1422
f 1422 1437 1413
f 1413 1437 1414
f 1441 1440 1436
f 1436 1440 1423
f 1442 1439 1443
f 1443 1439 1440
f 1441 1444 1440
f 1440 1444 1443
f 1445 1442 1446
f 1446 1442 1443
f 1442 1445 1448
f 1448 1445 1447
f 1444 1449 1443
f 1443 1449 1446
f 1439 1442 1438
f 1438 1442 1448
f 1438 1448 1416
f 1416 1448 1417
f 1436 1450 1441
f 1441 1450 1451
f 1436 1435 1450
f 1450 1435 1452
f 1431 1434 1453
f 1453 1434 1422
f 1431 1453 1432
f 1432 1453 1454
f 1453 1422 1455
f 1455 1422 1421
f 1454 1453 1456
f 1456 1453 1455
f 1457 1458 1454
f 1454 1458 1432
f 1452 1458 1450
f 1450 1458 1457
f 1405 1417 1403
f 1403 1417 1459
f 1404 1460 1410
f 1410 1460 1420
f 1459 1460 1403
f 1403 1460 1404
f 1447 1461 1459
f 1459 1461 1460
f 1445 1462 1447
f 1447 1462 1461
f 1460 1461 1420
f 1420 1461 1463
f 1459 1417 1447
f 1447 1417 1448
f 1464 1419 1463
f 1463 1419 1420
f 1419 1464 1418
f 1418 1464 1421
f 1464 1465 1421
f 1421 1465 1455
f 1465 1464 1466
f 1466 1464 1463
f 1467 1465 1468
f 1468 1465 1466
f 1461 1462 1463
f 1463 1462 1466
f 1462 1469 1466
f 1466 1469 1468
f 1465 1467 1455
f 1455 1467 1456
f 1471 1456 1470
f 1470 1456 1467
f 1470 1473 1472
f 1472 1473 1474
f 1470 1467 1473
f 1473 1467 1468
f 1470 1472 1471
f 1471 1472 1451
f 1471 1451 1457
f 1457 1451 1450
f 1457 1454 1471
f 1471 1454 1456
f 1462 1445 1469
f 1469 1445 1446
f 1474 1469 1449
f 1449 1469 1446
f 1474 1473 1469
f 1469 1473 1468
f 1472 1474 1444
f 1444 1474 1449
f 1444 1441 1472
f 1472 1441 1451
f 1426 1433 1435
f 1435 1433 1452
f 1452 1433 1458
f 1458 1433 1432
f 1371 940 1372
f 1372 940 1068
f 1376 1375 1379
f 1379 1375 1380
f 1393 1386 1394
f 1394 1386 1385
f 1385 1387 1394
f 1394 1387 1392
f 1475 1373 1391
f 1391 1373 1376
f 1375 1386 1380
f 1380 1386 1393
f 1372 1068 1406
f 1406 1068 981
f 1406 1390 1395
f 1395 1390 1389
f 1371 1387 940
f 940 1387 978
f 883 807 1476
f 1476 807 1477
f 1046 904 1479
f 1479 904 1478
f 904 903 1478
f 1478 903 1480
f 1030 1481 1028
f 1028 1481 1482
f 810 1046 1483
f 1483 1046 1479
f 1066 883 1484
f 1484 883 1476
f 807 810 1477
f 1477 810 1483
f 1485 1029 1484
f 1484 1029 1066
f 1028 1482 903
f 903 1482 1480
f 1481 1030 1485
f 1485 1030 1029
f 1484 1486 1485
f 1485 1486 1487
f 1485 1487 1481
f 1481 1487 1488
f 1481 1488 1482
f 1482 1488 1489
f 1482 1489 1480
f 1480 1489 1490
f 1484 1476 1486
f 1486 1476 1491
f 1476 1477 1491
f 1491 1477 1492
f 1477 1483 1492
f 1492 1483 1493
f 1495 1486 1494
f 1494 1486 1491
f 1497 1498 1496
f 1496 1498 1499
f 1500 1501 1497
f 1497 1501 1498
f 1502 1503 1501
f 1501 1503 1498
f 1502 1504 1503
f 1503 1504 1505
f 1506 1499 1503
f 1503 1499 1498
f 1499 1506 1507
f 1507 1506 1508
f 1507 1509 1499
f 1499 1509 1496
f 1502 1501 1510
f 1510 1501 1500
f 1500 1488 1510
f 1510 1488 1487
f 1500 1511 1488
f 1488 1511 1489
f 1497 1512 1500
f 1500 1512 1511
f 1512 1497 1513
f 1513 1497 1496
f 1502 1510 1504
f 1504 1510 1495
f 1495 1510 1486
f 1486 1510 1487
f 1509 1514 1496
f 1496 1514 1513
f 1515 1512 1516
f 1516 1512 1513
f 1514 1517 1513
f 1513 1517 1516
f 1518 1515 1519
f 1519 1515 1516
f 1515 1518 1521
f 1521 1518 1520
f 1517 1522 1516
f 1516 1522 1519
f 1512 1515 1511
f 1511 1515 1521
f 1511 1521 1489
f 1489 1521 1490
f 1514 1509 1524
f 1524 1509 1523
f 1509 1507 1523
f 1523 1507 1508
f 1505 1504 1525
f 1525 1504 1495
f 1526 1505 1527
f 1527 1505 1525
f 1525 1495 1528
f 1528 1495 1494
f 1527 1525 1529
f 1529 1525 1528
f 1527 1530 1526
f 1526 1530 1531
f 1508 1531 1523
f 1523 1531 1530
f 1506 1503 1526
f 1526 1503 1505
f 1508 1506 1531
f 1531 1506 1526
f 1478 1480 1532
f 1532 1480 1490
f 1483 1479 1493
f 1493 1479 1533
f 1532 1533 1478
f 1478 1533 1479
f 1520 1534 1532
f 1532 1534 1533
f 1518 1535 1520
f 1520 1535 1534
f 1533 1534 1493
f 1493 1534 1536
f 1532 1490 1520
f 1520 1490 1521
f 1537 1492 1536
f 1536 1492 1493
f 1492 1537 1491
f 1491 1537 1494
f 1537 1538 1494
f 1494 1538 1528
f 1538 1537 1539
f 1539 1537 1536
f 1540 1538 1541
f 1541 1538 1539
f 1534 1535 1536
f 1536 1535 1539
f 1535 1542 1539
f 1539 1542 1541
f 1538 1540 1528
f 1528 1540 1529
f 1544 1529 1543
f 1543 1529 1540
f 1545 1543 1547
f 1547 1543 1546
f 1543 1540 1546
f 1546 1540 1541
f 1543 1545 1544
f 1544 1545 1524
f 1544 1524 1530
f 1530 1524 1523
f 1530 1527 1544
f 1544 1527 1529
f 1535 1518 1542
f 1542 1518 1519
f 1547 1542 1522
f 1522 1542 1519
f 1547 1546 1542
f 1542 1546 1541
f 1545 1547 1517
f 1517 1547 1522
f 1517 1514 1545
f 1545 1514 1524
f 997 995 986
f 986 995 987
f 987 995 988
f 988 995 971
f 976 1358 977
f 977 1358 1289
f 854 853 1067
f 1067 853 1050
f 1055 985 1069
f 1069 985 962
f 1068 961 981
f 981 961 862
f 1268 1358 920
f 920 1358 976
f 920 976 921
f 921 976 975
f 927 1054 850
f 850 1054 851
f 882 881 1057
f 1057 881 1548
f 1548 1374 1057
f 1057 1374 1373
f 1383 1374 1549
f 1549 1374 1548
f 1549 1548 1550
f 1550 1548 881
f 1550 881 1551
f 1551 881 880
f 933 1552 879
f 879 1552 880
f 1551 880 875
f 875 880 1552
f 1553 1551 878
f 878 1551 875
f 1551 1553 1550
f 1550 1553 1554
f 1550 1554 1549
f 1549 1554 1555
f 978 1384 975
f 975 1384 1555
f 967 849 1556
f 1556 849 852
f 875 1552 876
f 876 1552 933
f 961 939 962
f 962 939 1069
f 1555 1054 975
f 975 1054 921
f 1555 1384 1549
f 1549 1384 1383
f 1391 1390 1475
f 1475 1390 980
f 1373 1475 1057
f 1057 1475 980
f 851 1054 1554
f 1554 1054 1555
f 1554 1553 851
f 851 1553 852
f 878 1556 1553
f 1553 1556 852
f 1556 878 967
f 967 878 877
f 1023 1020 877
f 877 1020 967
f 909 811 1034
f 806 779 873
f 873 779 840
f 805 780 806
f 806 780 779
f 1043 893 1044
f 1044 893 892
f 873 840 847
f 847 840 842
f 840 839 842
f 842 839 843
f 839 791 843
f 843 791 908
f 791 790 908
f 908 790 792
f 809 789 810
f 810 789 1046
f 793 790 809
f 809 790 789
f 809 808 793
f 793 808 1009
f 808 884 1009
f 1009 884 1010
f 1065 1015 884
f 884 1015 1010
f 1032 868 1065
f 1065 868 1015
f 1031 822 1032
f 1032 822 868
f 1031 1027 822
f 822 1027 785
f 1045 905 1046
f 1046 905 904
f 788 781 1019
f 1019 781 894
f 781 780 894
f 894 780 892
f 780 805 892
f 892 805 1044
f 805 804 1044
f 1044 804 891
f 804 1064 891
f 891 1064 888
f 1064 1021 888
f 888 1021 1033
f 1021 1020 1033
f 1033 1020 1034
f 1020 1023 1034
f 1034 1023 909
f 1023 1022 909
f 909 1022 910
f 1043 815 893
f 893 815 819
f 819 815 820
f 820 815 818
f 870 869 818
f 818 869 820
f 1014 1011 870
f 870 1011 869
f 969 972 1014
f 1014 972 1011
f 1036 1063 1022
f 1022 1063 910
f 1035 833 1036
f 1036 833 1063
f 1035 932 979
f 979 932 963
f 834 979 982
f 982 979 958
f 833 1035 834
f 834 1035 979
f 982 863 834
f 834 863 830
f 864 900 831
f 831 900 857
f 990 993 864
f 864 993 900
f 989 994 990
f 990 994 993
f 970 1058 989
f 989 1058 994
f 969 1018 970
f 970 1018 1058
f 1027 902 785
f 785 902 786
f 902 905 786
f 786 905 1019
f 905 1045 1019
f 1019 1045 788
f 788 1045 787
f 787 1045 789
