o hand_left
v -0.182650 -0.096811 0.748589
v -0.192297 -0.094255 0.745169
v -0.183907 -0.086926 0.745393
v -0.174835 -0.090418 0.747762
v -0.202619 -0.076852 0.738136
v -0.205633 -0.072542 0.726979
v -0.191540 -0.065967 0.730636
v -0.191412 -0.070192 0.740056
v -0.167273 -0.086594 0.745762
v -0.176869 -0.081614 0.745520
v -0.163335 -0.086489 0.740611
v -0.155071 -0.096272 0.739163
v -0.159043 -0.093105 0.745123
v -0.149054 -0.101708 0.741706
v -0.158354 -0.103268 0.730691
v -0.148682 -0.111350 0.739682
v -0.173918 -0.128185 0.738676
v -0.183002 -0.135063 0.746177
v -0.169199 -0.137084 0.756464
v -0.161405 -0.129066 0.748289
v -0.187573 -0.141624 0.765738
v -0.176801 -0.139411 0.761185
v -0.190255 -0.138539 0.750394
v -0.199227 -0.140493 0.755094
v -0.196047 -0.105840 0.752708
v -0.205834 -0.104421 0.748604
v -0.200851 -0.101808 0.746524
v -0.191748 -0.102982 0.750325
v -0.162863 -0.077982 0.730529
v -0.166238 -0.088015 0.724448
v -0.162549 -0.088973 0.731915
v -0.163273 -0.077363 0.736209
v -0.234605 -0.100243 0.745097
v -0.242667 -0.103338 0.734615
v -0.239194 -0.100981 0.730455
v -0.232409 -0.099163 0.740883
v -0.223664 -0.086504 0.721907
v -0.229857 -0.093437 0.716855
v -0.227498 -0.095986 0.703361
v -0.219176 -0.091444 0.706606
v -0.214890 -0.078719 0.725162
v -0.212175 -0.081852 0.711620
v -0.202855 -0.074627 0.715729
v -0.189109 -0.066681 0.721550
v -0.249528 -0.111149 0.742279
v -0.244826 -0.109564 0.751236
v -0.127793 -0.085768 0.778755
v -0.131325 -0.087827 0.783096
v -0.132933 -0.089610 0.780327
v -0.128999 -0.087479 0.776501
v -0.246782 -0.130366 0.748270
v -0.243124 -0.138646 0.743678
v -0.249668 -0.137242 0.740711
v -0.252361 -0.128593 0.743440
v -0.239335 -0.132580 0.754614
v -0.233885 -0.139796 0.747735
v -0.115800 -0.090397 0.780183
v -0.118859 -0.086833 0.777954
v -0.119090 -0.090478 0.774755
v -0.116608 -0.094755 0.776843
v -0.165909 -0.093591 0.749521
v -0.174088 -0.097630 0.752829
v -0.152952 -0.098468 0.759211
v -0.161062 -0.099359 0.756930
v -0.157664 -0.096578 0.751263
v -0.150933 -0.097067 0.753151
v -0.179105 -0.110912 0.767157
v -0.188617 -0.109515 0.760377
v -0.183225 -0.106691 0.757636
v -0.172060 -0.106738 0.764282
v -0.199084 -0.113478 0.769210
v -0.188768 -0.114914 0.774992
v -0.195898 -0.117058 0.779381
v -0.202181 -0.114763 0.774888
v -0.169488 -0.116913 0.782188
v -0.163595 -0.118337 0.785278
v -0.165430 -0.118871 0.787567
v -0.172382 -0.118201 0.784003
v -0.255664 -0.136600 0.736944
v -0.257035 -0.126890 0.738096
v -0.205841 -0.143656 0.777373
v -0.215329 -0.138867 0.781192
v -0.206407 -0.141579 0.791507
v -0.198537 -0.146237 0.784494
v -0.235915 -0.142307 0.737058
v -0.243495 -0.142850 0.734980
v -0.115709 -0.094802 0.784597
v -0.116873 -0.098968 0.781457
v -0.198547 -0.084603 0.707677
v -0.184510 -0.072743 0.714852
v -0.209258 -0.094122 0.703274
v -0.216557 -0.101390 0.700531
v -0.223283 -0.104978 0.696528
v -0.161358 -0.102668 0.762995
v -0.182361 -0.102312 0.753526
v -0.199906 -0.107816 0.755456
v -0.219382 -0.115624 0.778303
v -0.227770 -0.113514 0.772052
v -0.218665 -0.109206 0.768282
v -0.213080 -0.112506 0.774287
v -0.218336 -0.130792 0.785966
v -0.215147 -0.123309 0.786735
v -0.208109 -0.125981 0.792720
v -0.210137 -0.133608 0.793625
v -0.163873 -0.074315 0.723767
v -0.170471 -0.086005 0.718107
v -0.248160 -0.120065 0.750582
v -0.251987 -0.118412 0.743948
v -0.256987 -0.119149 0.737113
v -0.219783 -0.101160 0.746378
v -0.230923 -0.098246 0.738013
v -0.227917 -0.095824 0.735904
v -0.217206 -0.100833 0.744515
v -0.203311 -0.090067 0.743214
v -0.214355 -0.085239 0.736659
v -0.193799 -0.082320 0.744983
v -0.235947 -0.097701 0.723767
v -0.246377 -0.101122 0.723028
v -0.241557 -0.098224 0.716085
v -0.251588 -0.106584 0.729359
v -0.255511 -0.112725 0.734569
v -0.250474 -0.145565 0.730875
v -0.236074 -0.097025 0.709756
v -0.182797 -0.066253 0.740814
v -0.175504 -0.061983 0.740897
v -0.171757 -0.068307 0.743927
v -0.178487 -0.072954 0.744693
v -0.142131 -0.104505 0.746440
v -0.146188 -0.098502 0.749478
v -0.153168 -0.096512 0.744986
v -0.229417 -0.103242 0.755067
v -0.238393 -0.110827 0.759938
v -0.152765 -0.101761 0.765102
v -0.119034 -0.098365 0.772949
v -0.121482 -0.093398 0.770786
v -0.133107 -0.100473 0.757046
v -0.129969 -0.106360 0.759197
v -0.146526 -0.107506 0.771339
v -0.149266 -0.102138 0.767836
v -0.147303 -0.102561 0.769445
v -0.145095 -0.106444 0.774306
v -0.173814 -0.121127 0.790980
v -0.180036 -0.120390 0.787761
v -0.150398 -0.127118 0.760000
v -0.143700 -0.122802 0.748344
v -0.154115 -0.121637 0.741051
v -0.185111 -0.113416 0.770905
v -0.177107 -0.115007 0.777543
v -0.180171 -0.116596 0.779948
v -0.159970 -0.105133 0.766941
v -0.153060 -0.105789 0.769610
v -0.157373 -0.108323 0.770816
v -0.164285 -0.107699 0.768853
v -0.224388 -0.137594 0.771375
v -0.228112 -0.128251 0.777285
v -0.123249 -0.085307 0.777198
v -0.123869 -0.087825 0.774462
v -0.194316 -0.111984 0.764173
v -0.167013 -0.119788 0.733675
v -0.204071 -0.109530 0.758672
v -0.180187 -0.140232 0.786874
v -0.182446 -0.135191 0.792229
v -0.177065 -0.132992 0.795556
v -0.173700 -0.137475 0.793079
v -0.135254 -0.100977 0.784696
v -0.136965 -0.095763 0.782794
v -0.134278 -0.093798 0.784824
v -0.132025 -0.098489 0.787718
v -0.148911 -0.098589 0.763069
v -0.146494 -0.096642 0.757376
v -0.143310 -0.095631 0.761770
v -0.145826 -0.098651 0.766363
v -0.141557 -0.098372 0.753731
v -0.138221 -0.096689 0.757891
v -0.130243 -0.105266 0.784551
v -0.123365 -0.106201 0.781423
v -0.134188 -0.114483 0.769769
v -0.139014 -0.111040 0.774970
v -0.210136 -0.140668 0.744495
v -0.218741 -0.141952 0.751567
v -0.208095 -0.141971 0.762302
v -0.197754 -0.143433 0.772939
v -0.187432 -0.143577 0.782499
v -0.177982 -0.143794 0.774817
v -0.215261 -0.142104 0.766392
v -0.147809 -0.116780 0.769606
v -0.142468 -0.120063 0.762605
v -0.147619 -0.122486 0.765882
v -0.209150 -0.110410 0.764115
v -0.126028 -0.090011 0.770853
v -0.215737 -0.124311 0.703789
v -0.220889 -0.134163 0.711255
v -0.213274 -0.132224 0.715184
v -0.207727 -0.120522 0.707256
v -0.135632 -0.090792 0.778221
v -0.131774 -0.088426 0.773504
v -0.183743 -0.122805 0.792874
v -0.177305 -0.123489 0.794900
v -0.177238 -0.126447 0.797077
v -0.184266 -0.125424 0.797904
v -0.224105 -0.141647 0.754260
v -0.199448 -0.140727 0.798209
v -0.193383 -0.145465 0.791371
v -0.227699 -0.141889 0.741926
v -0.220244 -0.141389 0.735524
v -0.227907 -0.142080 0.729482
v -0.163950 -0.137787 0.772370
v -0.202406 -0.138858 0.740850
v -0.213864 -0.139146 0.731817
v -0.222724 -0.139878 0.724414
v -0.229335 -0.141234 0.719456
v -0.234372 -0.143381 0.725556
v -0.119924 -0.102946 0.777501
v -0.120293 -0.102376 0.786450
v -0.241568 -0.146472 0.720883
v -0.235736 -0.143289 0.714340
v -0.207016 -0.135384 0.726868
v -0.199314 -0.129307 0.721127
v -0.196252 -0.135059 0.735902
v -0.187576 -0.129251 0.730873
v -0.157832 -0.138211 0.763359
v -0.121510 -0.089618 0.798916
v -0.124400 -0.097996 0.792223
v -0.129678 -0.095715 0.790992
v -0.125869 -0.089155 0.798859
v -0.127073 -0.101859 0.788503
v -0.119224 -0.098069 0.789617
v -0.179900 -0.118142 0.724401
v -0.151831 -0.109787 0.773173
v -0.192989 -0.114431 0.713508
v -0.168809 -0.104029 0.721327
v -0.179611 -0.099507 0.714262
v -0.205831 -0.108380 0.702344
v -0.193695 -0.097235 0.705586
v -0.220953 -0.115626 0.696294
v -0.213432 -0.113397 0.700114
v -0.182782 -0.085480 0.710593
v -0.128180 -0.080191 0.787380
v -0.130998 -0.083534 0.791253
v -0.222528 -0.126404 0.699418
v -0.185162 -0.077126 0.745092
v -0.216871 -0.106323 0.757503
v -0.212624 -0.105991 0.753709
v -0.232213 -0.112352 0.767510
v -0.223317 -0.106577 0.762314
v -0.123329 -0.078942 0.785267
v -0.159905 -0.121693 0.787225
v -0.161779 -0.122115 0.786025
v -0.183939 -0.061696 0.733148
v -0.177701 -0.058459 0.734317
v -0.170759 -0.061404 0.723279
v -0.175074 -0.057853 0.727867
v -0.181781 -0.061847 0.724667
v -0.177584 -0.066001 0.719413
v -0.221609 -0.101390 0.748343
v -0.224086 -0.102208 0.751326
v -0.232592 -0.134924 0.762727
v -0.235488 -0.125508 0.768833
v -0.137766 -0.103546 0.752033
v -0.140391 -0.112885 0.746886
v -0.135782 -0.110262 0.753388
v -0.131435 -0.112571 0.762586
v -0.148076 -0.112359 0.773120
v -0.144116 -0.113219 0.770311
v -0.221544 -0.091017 0.736492
v -0.211430 -0.097317 0.743130
v -0.172254 -0.078370 0.744061
v -0.166918 -0.074334 0.742608
v -0.171154 -0.111158 0.771622
v -0.155444 -0.132331 0.779335
v -0.150789 -0.132272 0.771618
v -0.163281 -0.112664 0.775727
v -0.115778 -0.081415 0.788430
v -0.119513 -0.079226 0.785869
v -0.137182 -0.116864 0.756216
v -0.187026 -0.118265 0.784845
v -0.162909 -0.134278 0.779623
v -0.157372 -0.128335 0.785370
v -0.204993 -0.133764 0.798098
v -0.228185 -0.135492 0.706270
v -0.132674 -0.091584 0.788236
v -0.131035 -0.087047 0.795036
v -0.117705 -0.089255 0.796804
v -0.114851 -0.086492 0.792124
v -0.241177 -0.121882 0.760144
v -0.209460 -0.105704 0.751507
v -0.174541 -0.075958 0.715734
v -0.167057 -0.068028 0.721673
v -0.159060 -0.113912 0.778111
v -0.186273 -0.141342 0.789752
v -0.171912 -0.141654 0.782312
v -0.165655 -0.138964 0.789207
v -0.160246 -0.134150 0.786821
v -0.158523 -0.126952 0.786784
v -0.118389 -0.084956 0.800871
v -0.115353 -0.081886 0.796386
v -0.116449 -0.076968 0.792541
v -0.119891 -0.075410 0.789543
v -0.124058 -0.076433 0.788207
v -0.122533 -0.085421 0.802769
v -0.126546 -0.085086 0.802136
v -0.130863 -0.084806 0.797400
v -0.124777 -0.081936 0.805306
v -0.120834 -0.078406 0.805915
v -0.122472 -0.065836 0.799858
v -0.118902 -0.070471 0.798335
v -0.119544 -0.069738 0.801000
v -0.122218 -0.066010 0.803132
v -0.124466 -0.062841 0.806638
v -0.125142 -0.062003 0.803226
v -0.118791 -0.074098 0.802676
v -0.122330 -0.069457 0.806269
v -0.124154 -0.072448 0.808704
v -0.126232 -0.068295 0.811844
v -0.124520 -0.065469 0.809898
v -0.121358 -0.075352 0.806286
v -0.117280 -0.075886 0.801527
v -0.127315 -0.060614 0.807146
v -0.125729 -0.061468 0.808958
v -0.126351 -0.063507 0.811571
v -0.129072 -0.062026 0.811734
v -0.121331 -0.071517 0.792831
v -0.124369 -0.065590 0.798045
v -0.128014 -0.062763 0.802077
v -0.129860 -0.061394 0.806102
v -0.128422 -0.066429 0.798152
v -0.130547 -0.064329 0.801929
v -0.132350 -0.063569 0.805500
v -0.132037 -0.068449 0.799464
v -0.132928 -0.066309 0.802886
v -0.128408 -0.076001 0.791532
v -0.124836 -0.074038 0.790285
v -0.133833 -0.065064 0.804991
v -0.131155 -0.062697 0.811214
v -0.125767 -0.075793 0.808908
v -0.128896 -0.070185 0.811943
v -0.127948 -0.076811 0.808563
v -0.130912 -0.071473 0.811931
v -0.129882 -0.066324 0.814029
v -0.127546 -0.065887 0.812984
v -0.128330 -0.079153 0.789400
v -0.131077 -0.082686 0.793411
v -0.131318 -0.080203 0.795208
v -0.134297 -0.071909 0.802035
v -0.131547 -0.082225 0.799196
v -0.128601 -0.081734 0.804350
v -0.130886 -0.076367 0.807968
v -0.133457 -0.075258 0.805885
v -0.132857 -0.071881 0.810254
v -0.134085 -0.071208 0.808074
v -0.134666 -0.068748 0.805091
v -0.133722 -0.067945 0.810966
v -0.131810 -0.067150 0.813136
v -0.133276 -0.064553 0.809250
v -0.134456 -0.068622 0.809257
v -0.133997 -0.066303 0.807344
v -0.140518 -0.100903 0.799329
v -0.144560 -0.103583 0.803671
v -0.143450 -0.106490 0.800478
v -0.139992 -0.104168 0.796975
v -0.127298 -0.105767 0.801929
v -0.131444 -0.101833 0.799082
v -0.130072 -0.106364 0.795833
v -0.127007 -0.111576 0.799136
v -0.128002 -0.111093 0.806815
v -0.128663 -0.116721 0.803494
v -0.128671 -0.115178 0.794335
v -0.131976 -0.109320 0.791559
v -0.143845 -0.116307 0.775768
v -0.141265 -0.122642 0.776985
v -0.157992 -0.116647 0.786927
v -0.156846 -0.119824 0.788932
v -0.136501 -0.100515 0.798395
v -0.135319 -0.104169 0.795544
v -0.147467 -0.113929 0.803687
v -0.147842 -0.109285 0.800743
v -0.146043 -0.108879 0.803946
v -0.144625 -0.112862 0.807620
v -0.150745 -0.111822 0.777913
v -0.154934 -0.114268 0.782156
v -0.147284 -0.112922 0.776520
v -0.143505 -0.119174 0.805451
v -0.137470 -0.122424 0.804303
v -0.147837 -0.130218 0.787716
v -0.152332 -0.126953 0.790861
v -0.136282 -0.105858 0.791583
v -0.144959 -0.105687 0.797205
v -0.141344 -0.104248 0.793590
v -0.131705 -0.120652 0.798648
v -0.134573 -0.118089 0.809097
v -0.139372 -0.101276 0.820154
v -0.139795 -0.111467 0.813628
v -0.144065 -0.109159 0.811566
v -0.144101 -0.099690 0.819071
v -0.140448 -0.116174 0.809855
v -0.134052 -0.112486 0.812179
v -0.143227 -0.090476 0.808375
v -0.147106 -0.093584 0.812557
v -0.138887 -0.089338 0.807101
v -0.143203 -0.128455 0.781340
v -0.129930 -0.094256 0.809626
v -0.134702 -0.090388 0.807064
v -0.146349 -0.106577 0.807682
v -0.147286 -0.096772 0.816543
v -0.134889 -0.101306 0.819037
v -0.129817 -0.099659 0.813835
v -0.135118 -0.095671 0.821818
v -0.130994 -0.093534 0.817384
v -0.131135 -0.088935 0.812596
v -0.135648 -0.086975 0.809438
v -0.139639 -0.087246 0.808910
v -0.139439 -0.095896 0.823018
v -0.144138 -0.095292 0.821844
v -0.147091 -0.094227 0.817755
v -0.143189 -0.089622 0.824995
v -0.138856 -0.087579 0.825024
v -0.142697 -0.071357 0.816010
v -0.139113 -0.076222 0.815000
v -0.138705 -0.076262 0.817620
v -0.142004 -0.071872 0.818716
v -0.134747 -0.080850 0.815706
v -0.135797 -0.080016 0.817877
v -0.136137 -0.083128 0.821477
v -0.140191 -0.078242 0.821823
v -0.142564 -0.081229 0.824898
v -0.145457 -0.076320 0.826243
v -0.143055 -0.073139 0.823487
v -0.138929 -0.083933 0.824162
v -0.144297 -0.069435 0.820262
v -0.146389 -0.068316 0.819173
v -0.133733 -0.085459 0.821088
v -0.136438 -0.083537 0.810739
v -0.141281 -0.076312 0.812690
v -0.145646 -0.071570 0.814471
v -0.149368 -0.069061 0.818863
v -0.145424 -0.077210 0.811984
v -0.148712 -0.072769 0.814465
v -0.151273 -0.071017 0.818517
v -0.149697 -0.079203 0.813022
v -0.152148 -0.074845 0.815959
v -0.144553 -0.087833 0.810245
v -0.140592 -0.085280 0.808979
v -0.152424 -0.073081 0.817915
v -0.147639 -0.068855 0.823834
v -0.150794 -0.069472 0.822791
v -0.146022 -0.069841 0.823839
v -0.144066 -0.082568 0.825741
v -0.147597 -0.076998 0.826422
v -0.146835 -0.083557 0.825749
v -0.150062 -0.077194 0.826338
v -0.149160 -0.072424 0.826581
v -0.147513 -0.072074 0.826263
v -0.143343 -0.089268 0.810310
v -0.146654 -0.092223 0.813990
v -0.147666 -0.091003 0.813940
v -0.152175 -0.082023 0.816983
v -0.148046 -0.092662 0.818457
v -0.146246 -0.090962 0.823084
v -0.149295 -0.084512 0.824514
v -0.151878 -0.083802 0.821424
v -0.152014 -0.078149 0.825975
v -0.153160 -0.079400 0.823165
v -0.153868 -0.077390 0.818780
v -0.152948 -0.073517 0.825518
v -0.150927 -0.072589 0.826362
v -0.152223 -0.070952 0.821880
v -0.153902 -0.075530 0.823511
v -0.153511 -0.073534 0.820412
v -0.156311 -0.111676 0.806876
v -0.160914 -0.113637 0.810018
v -0.161194 -0.115731 0.807662
v -0.156445 -0.114213 0.804899
v -0.145696 -0.117860 0.810617
v -0.147589 -0.113946 0.808158
v -0.147601 -0.117711 0.805008
v -0.145892 -0.122733 0.806419
v -0.147188 -0.120538 0.815556
v -0.147524 -0.127347 0.810292
v -0.147294 -0.126274 0.802176
v -0.148559 -0.120275 0.801666
v -0.156356 -0.125588 0.790110
v -0.155539 -0.132037 0.791589
v -0.151721 -0.112097 0.806844
v -0.151886 -0.114908 0.804461
v -0.165117 -0.121734 0.811411
v -0.164536 -0.117700 0.808706
v -0.163421 -0.118718 0.811581
v -0.162563 -0.122047 0.814569
v -0.164940 -0.119133 0.790460
v -0.169930 -0.121427 0.793121
v -0.160042 -0.120828 0.790278
v -0.161743 -0.127475 0.812835
v -0.156030 -0.131923 0.810994
v -0.166126 -0.135981 0.800235
v -0.170540 -0.131761 0.800860
v -0.152136 -0.116445 0.801774
v -0.161995 -0.114799 0.804967
v -0.157065 -0.113964 0.802408
v -0.150579 -0.130671 0.805713
v -0.153007 -0.128265 0.815240
v -0.156179 -0.109970 0.829340
v -0.157581 -0.122910 0.819598
v -0.162070 -0.119780 0.817087
v -0.160286 -0.108909 0.827835
v -0.158743 -0.125821 0.816779
v -0.152000 -0.123543 0.818959
v -0.157745 -0.100710 0.816291
v -0.161472 -0.103425 0.819557
v -0.153276 -0.101348 0.815408
v -0.159255 -0.136823 0.795482
v -0.173011 -0.126040 0.798369
v -0.147066 -0.103879 0.819180
v -0.150026 -0.102031 0.816411
v -0.162941 -0.116936 0.813845
v -0.162628 -0.106712 0.824314
v -0.151240 -0.110436 0.828065
v -0.146956 -0.108468 0.823411
v -0.152269 -0.105199 0.831077
v -0.147984 -0.102997 0.826412
v -0.148060 -0.099257 0.821470
v -0.151507 -0.098472 0.818091
v -0.154790 -0.098504 0.816943
v -0.157634 -0.105420 0.831577
v -0.161180 -0.105132 0.829637
v -0.162475 -0.105546 0.824621
v -0.159810 -0.101738 0.832652
v -0.155147 -0.098615 0.832973
v -0.160147 -0.083351 0.825253
v -0.156561 -0.088209 0.823975
v -0.156517 -0.088432 0.825180
v -0.159673 -0.083503 0.826953
v -0.151627 -0.093347 0.824274
v -0.152844 -0.092266 0.825581
v -0.152738 -0.094530 0.828991
v -0.156886 -0.089364 0.830468
v -0.160441 -0.093415 0.833483
v -0.163133 -0.088632 0.834098
v -0.159993 -0.084541 0.831689
v -0.155592 -0.096408 0.832183
v -0.161679 -0.081250 0.828558
v -0.161972 -0.079906 0.827231
v -0.150832 -0.096647 0.828977
v -0.153412 -0.094212 0.819624
v -0.157984 -0.088270 0.821268
v -0.161629 -0.083406 0.822458
v -0.164667 -0.081022 0.824946
v -0.161314 -0.089741 0.819901
v -0.164054 -0.085297 0.821674
v -0.166665 -0.083127 0.824024
v -0.164244 -0.091405 0.820344
v -0.166398 -0.087522 0.822210
v -0.159476 -0.098721 0.817927
v -0.156386 -0.096258 0.817697
v -0.167655 -0.085285 0.824055
v -0.164115 -0.080701 0.831487
v -0.167805 -0.081891 0.829724
v -0.162858 -0.081918 0.831511
v -0.161362 -0.094949 0.834065
v -0.165263 -0.089204 0.834909
v -0.163833 -0.096320 0.833443
v -0.167473 -0.090589 0.834235
v -0.165955 -0.084700 0.834462
v -0.164787 -0.084786 0.834117
v -0.158328 -0.099990 0.817489
v -0.161535 -0.103011 0.820402
v -0.162395 -0.101895 0.820620
v -0.167522 -0.094012 0.823106
v -0.163471 -0.104108 0.824852
v -0.163150 -0.101813 0.830513
v -0.166237 -0.096607 0.830999
v -0.168082 -0.095755 0.827552
v -0.169025 -0.091394 0.831989
v -0.169289 -0.092003 0.829153
v -0.169194 -0.089860 0.824572
v -0.169500 -0.087253 0.831162
v -0.168257 -0.085813 0.833521
v -0.169180 -0.084037 0.827758
v -0.170034 -0.088495 0.829002
v -0.169604 -0.086142 0.826389
v -0.172700 -0.123431 0.795954
v -0.175738 -0.116045 0.811690
v -0.178643 -0.116689 0.814796
v -0.179042 -0.117930 0.814411
v -0.176836 -0.117525 0.810499
v -0.167278 -0.124015 0.811478
v -0.169143 -0.119693 0.810139
v -0.170071 -0.122986 0.807609
v -0.168746 -0.127501 0.808873
v -0.168398 -0.127929 0.815167
v -0.170393 -0.131008 0.813358
v -0.171178 -0.129383 0.807013
v -0.172251 -0.124888 0.805482
v -0.181384 -0.132195 0.794852
v -0.182441 -0.137738 0.795451
v -0.199726 -0.132374 0.802087
v -0.199541 -0.127457 0.799824
v -0.193778 -0.126194 0.806381
v -0.194509 -0.130632 0.808056
v -0.172315 -0.117247 0.810287
v -0.173445 -0.119188 0.808013
v -0.182809 -0.125503 0.819583
v -0.182881 -0.121277 0.816999
v -0.180888 -0.119579 0.817925
v -0.180924 -0.122663 0.821714
v -0.195249 -0.124768 0.798163
v -0.190618 -0.124615 0.796909
v -0.188273 -0.123491 0.799667
v -0.190580 -0.123648 0.803840
v -0.183580 -0.125768 0.797639
v -0.180744 -0.129540 0.819663
v -0.176717 -0.133334 0.816920
v -0.191736 -0.140025 0.805472
v -0.194232 -0.135933 0.807184
v -0.174220 -0.121013 0.807007
v -0.181033 -0.119071 0.813074
v -0.177876 -0.118695 0.810385
v -0.173035 -0.133430 0.811015
v -0.174117 -0.130245 0.819291
v -0.174022 -0.118919 0.827517
v -0.176877 -0.124858 0.823803
v -0.180053 -0.121432 0.822503
v -0.177010 -0.117323 0.826645
v -0.178371 -0.126563 0.822221
v -0.172179 -0.126996 0.821334
v -0.175092 -0.111453 0.815150
v -0.178111 -0.113159 0.819501
v -0.171922 -0.111761 0.813704
v -0.186310 -0.141231 0.799254
v -0.165777 -0.115896 0.815778
v -0.168622 -0.112759 0.814101
v -0.180019 -0.118345 0.818639
v -0.178822 -0.115164 0.823732
v -0.169425 -0.119968 0.825660
v -0.165852 -0.119997 0.820053
v -0.168615 -0.115048 0.827182
v -0.165184 -0.115257 0.821612
v -0.166599 -0.111642 0.816438
v -0.170193 -0.110762 0.814609
v -0.173482 -0.110591 0.814496
v -0.173626 -0.114888 0.828816
v -0.176512 -0.114446 0.827951
v -0.178458 -0.113883 0.824542
v -0.173522 -0.110785 0.829673
v -0.169874 -0.108309 0.827467
v -0.175223 -0.098351 0.820113
v -0.173346 -0.101995 0.818629
v -0.172678 -0.101884 0.819672
v -0.174287 -0.098070 0.820647
v -0.169683 -0.106336 0.817997
v -0.169978 -0.105170 0.819499
v -0.168492 -0.107136 0.822327
v -0.170885 -0.102223 0.823638
v -0.172737 -0.103519 0.828604
v -0.174316 -0.099517 0.829074
v -0.172231 -0.098625 0.824779
v -0.169847 -0.106632 0.826571
v -0.174628 -0.095619 0.822195
v -0.175717 -0.094694 0.821905
v -0.166843 -0.109134 0.821977
v -0.172763 -0.107554 0.815455
v -0.175766 -0.101682 0.817447
v -0.177445 -0.097157 0.819607
v -0.178067 -0.094484 0.822539
v -0.177985 -0.103023 0.817329
v -0.179715 -0.097810 0.819694
v -0.180216 -0.095435 0.822643
v -0.180576 -0.104623 0.818914
v -0.181401 -0.099386 0.820947
v -0.178659 -0.110246 0.817454
v -0.176063 -0.108588 0.815515
v -0.181116 -0.096947 0.822922
v -0.175168 -0.094285 0.825887
v -0.178254 -0.094505 0.825955
v -0.173743 -0.095302 0.825908
v -0.173540 -0.104185 0.829649
v -0.175660 -0.099413 0.830215
v -0.175618 -0.105188 0.830494
v -0.177833 -0.099836 0.830391
v -0.176116 -0.096009 0.829018
v -0.174435 -0.096787 0.828258
v -0.176958 -0.110848 0.816673
v -0.178382 -0.112210 0.820017
v -0.179766 -0.111556 0.821511
v -0.181826 -0.106154 0.822760
v -0.178959 -0.112600 0.826081
v -0.176443 -0.112003 0.829069
v -0.178253 -0.105952 0.829836
v -0.180815 -0.106366 0.827494
v -0.179855 -0.100098 0.829480
v -0.181854 -0.101036 0.827311
v -0.182627 -0.100767 0.823931
v -0.180038 -0.096657 0.827656
v -0.178498 -0.095933 0.828576
v -0.180123 -0.095482 0.825607
v -0.181339 -0.097703 0.826607
v -0.181469 -0.097308 0.824935
v -0.197661 -0.135844 0.802945
v -0.154902 -0.064893 0.730763
v -0.154968 -0.067792 0.735671
v -0.163696 -0.058231 0.745726
v -0.159228 -0.063722 0.745318
v -0.165983 -0.052805 0.742192
v -0.164731 -0.050652 0.731460
v -0.166952 -0.050971 0.736665
v -0.156138 -0.067190 0.741501
v -0.156967 -0.060451 0.726993
v -0.161212 -0.054420 0.726705
v -0.148953 -0.056952 0.728990
v -0.153489 -0.050138 0.729005
v -0.157094 -0.045808 0.733285
v -0.161116 -0.047182 0.739386
v -0.161952 -0.049410 0.743965
v -0.149521 -0.062642 0.733912
v -0.150566 -0.065275 0.738698
v -0.153789 -0.064570 0.744461
v -0.143875 -0.060950 0.739561
v -0.138782 -0.052703 0.742292
v -0.140132 -0.037020 0.754098
v -0.145255 -0.039375 0.750074
v -0.142778 -0.040152 0.748810
v -0.138283 -0.037518 0.752238
v -0.146881 -0.041509 0.744978
v -0.144640 -0.042320 0.745457
v -0.142127 -0.046337 0.742965
v -0.138119 -0.043981 0.746497
v -0.138914 -0.050339 0.743918
v -0.136032 -0.049832 0.747088
v -0.134029 -0.041815 0.749823
v -0.134354 -0.036950 0.753175
v -0.130769 -0.040029 0.752893
v -0.135139 -0.036772 0.756305
v -0.141662 -0.045679 0.740029
v -0.153866 -0.042621 0.744771
v -0.148576 -0.040156 0.751589
v -0.142527 -0.038402 0.756691
v -0.136521 -0.038429 0.758808
v -0.150627 -0.043074 0.754333
v -0.144362 -0.042100 0.758374
v -0.138749 -0.042780 0.760047
v -0.150526 -0.047700 0.756172
v -0.144218 -0.046125 0.758924
v -0.158947 -0.053112 0.748945
v -0.158586 -0.046794 0.747095
v -0.140051 -0.045336 0.759657
v -0.129823 -0.040120 0.755680
v -0.131423 -0.042120 0.758370
v -0.135890 -0.053309 0.747214
v -0.131810 -0.047782 0.749867
v -0.131975 -0.050481 0.751343
v -0.137602 -0.056887 0.748191
v -0.132933 -0.052595 0.753103
v -0.129162 -0.046149 0.754029
v -0.129914 -0.044518 0.751744
v -0.161337 -0.054842 0.747140
v -0.158253 -0.060738 0.746929
v -0.156086 -0.059232 0.748478
v -0.148142 -0.054040 0.755584
v -0.151332 -0.063021 0.747081
v -0.146561 -0.063303 0.743178
v -0.139915 -0.058646 0.750661
v -0.143895 -0.058031 0.753402
v -0.135705 -0.053479 0.755356
v -0.138472 -0.052990 0.756693
v -0.141888 -0.049971 0.758678
v -0.133709 -0.049161 0.757788
v -0.130593 -0.048144 0.756200
v -0.134775 -0.045242 0.759596
v -0.136417 -0.049896 0.758023
v -0.137794 -0.047375 0.759312
v -0.203829 -0.126695 0.795723
v -0.198869 -0.122909 0.793362
v -0.204423 -0.121717 0.790043
v -0.211671 -0.118566 0.784536
v -0.221584 -0.120763 0.781152
v -0.206739 -0.116025 0.780203
v -0.199519 -0.119181 0.786189
v -0.191543 -0.121171 0.790708
v -0.208043 -0.112605 0.770420
f 2 3 1
f 1 3 4
f 5 6 8
f 8 6 7
f 9 4 10
f 10 4 3
f 12 13 11
f 11 13 9
f 14 12 16
f 16 12 15
f 18 19 17
f 17 19 20
f 22 23 21
f 21 23 24
f 26 27 25
f 25 27 28
f 30 31 29
f 29 31 32
f 33 34 36
f 36 34 35
f 37 38 40
f 40 38 39
f 41 42 6
f 6 42 43
f 6 43 7
f 7 43 44
f 45 34 46
f 46 34 33
f 48 49 47
f 47 49 50
f 52 53 51
f 51 53 54
f 56 52 55
f 55 52 51
f 58 59 57
f 57 59 60
f 61 62 4
f 4 62 1
f 64 65 63
f 63 65 66
f 68 69 67
f 67 69 70
f 72 73 71
f 71 73 74
f 76 77 75
f 75 77 78
f 53 79 54
f 54 79 80
f 82 83 81
f 81 83 84
f 85 86 52
f 52 86 53
f 57 60 87
f 87 60 88
f 89 90 43
f 43 90 44
f 43 42 89
f 89 42 91
f 40 39 92
f 92 39 93
f 94 70 64
f 64 70 69
f 13 61 9
f 9 61 4
f 25 28 69
f 69 28 95
f 96 25 68
f 68 25 69
f 98 99 97
f 97 99 100
f 101 102 104
f 104 102 103
f 106 30 105
f 105 30 29
f 51 54 107
f 107 54 108
f 54 80 108
f 108 80 109
f 111 112 110
f 110 112 113
f 115 5 114
f 114 5 116
f 115 41 5
f 5 41 6
f 36 35 111
f 111 35 117
f 35 118 117
f 117 118 119
f 34 120 35
f 35 120 118
f 34 45 120
f 120 45 121
f 125 126 124
f 124 126 127
f 128 129 14
f 14 129 130
f 33 131 46
f 46 131 132
f 133 94 63
f 63 94 64
f 134 135 137
f 137 135 136
f 139 140 138
f 138 140 141
f 77 142 78
f 78 142 143
f 144 145 20
f 20 145 146
f 148 149 147
f 147 149 72
f 151 152 150
f 150 152 153
f 82 101 83
f 83 101 104
f 101 82 155
f 155 82 154
f 156 157 58
f 58 157 59
f 158 68 147
f 147 68 67
f 159 146 15
f 15 146 16
f 68 158 96
f 96 158 160
f 129 66 130
f 130 66 65
f 162 163 161
f 161 163 164
f 166 167 165
f 165 167 168
f 170 171 169
f 169 171 172
f 174 171 173
f 173 171 170
f 176 177 175
f 175 177 178
f 180 181 179
f 179 181 24
f 182 183 21
f 21 183 184
f 81 185 82
f 82 185 154
f 186 187 188
f 188 187 144
f 158 71 160
f 160 71 189
f 190 135 157
f 157 135 59
f 169 172 139
f 139 172 140
f 147 72 158
f 158 72 71
f 192 193 191
f 191 193 194
f 167 166 49
f 49 166 195
f 196 190 50
f 50 190 157
f 197 198 200
f 200 198 199
f 21 24 182
f 182 24 181
f 146 159 20
f 20 159 17
f 182 181 81
f 81 181 185
f 201 185 180
f 180 185 181
f 202 203 83
f 83 203 84
f 205 206 204
f 204 206 85
f 207 22 184
f 184 22 21
f 179 24 208
f 208 24 23
f 208 209 179
f 179 209 205
f 209 210 205
f 205 210 206
f 212 206 211
f 211 206 210
f 179 205 180
f 180 205 204
f 213 176 88
f 88 176 214
f 86 85 212
f 212 85 206
f 193 217 218
f 217 219 218
f 218 219 220
f 219 18 220
f 220 18 17
f 19 221 20
f 20 221 144
f 222 223 225
f 225 223 224
f 175 226 176
f 176 226 214
f 227 87 214
f 214 87 88
f 220 17 228
f 228 17 159
f 134 213 60
f 60 213 88
f 138 229 151
f 151 229 152
f 193 192 210
f 210 192 211
f 230 194 218
f 218 194 193
f 231 232 228
f 228 232 230
f 233 234 91
f 91 234 89
f 235 236 93
f 93 236 92
f 230 232 234
f 234 232 237
f 47 238 48
f 48 238 239
f 240 191 235
f 235 191 236
f 5 8 116
f 116 8 241
f 242 243 189
f 189 243 160
f 244 245 98
f 98 245 99
f 156 246 47
f 47 246 238
f 76 247 77
f 77 247 248
f 250 125 249
f 249 125 124
f 252 253 251
f 251 253 254
f 111 110 36
f 36 110 255
f 256 33 255
f 255 33 36
f 257 258 154
f 154 258 155
f 63 169 133
f 133 169 139
f 66 170 63
f 63 170 169
f 173 170 129
f 129 170 66
f 129 128 173
f 173 128 259
f 128 260 259
f 259 260 261
f 213 134 262
f 262 134 137
f 263 264 186
f 186 264 187
f 112 265 113
f 113 265 266
f 11 267 268
f 234 233 230
f 230 233 194
f 153 269 70
f 70 269 67
f 175 178 165
f 165 178 141
f 150 153 94
f 94 153 70
f 271 221 270
f 270 221 207
f 269 153 272
f 272 153 152
f 121 45 109
f 109 45 108
f 47 50 156
f 156 50 157
f 57 273 58
f 58 273 274
f 145 275 260
f 260 275 261
f 276 149 143
f 143 149 78
f 148 269 75
f 75 269 272
f 207 277 270
f 270 277 278
f 195 196 49
f 49 196 50
f 59 135 60
f 60 135 134
f 83 104 202
f 202 104 279
f 149 148 78
f 78 148 75
f 247 278 248
f 248 278 277
f 183 182 84
f 84 182 81
f 48 239 281
f 281 239 282
f 227 223 283
f 283 223 222
f 223 226 224
f 224 226 168
f 281 282 224
f 224 282 225
f 165 168 175
f 175 168 226
f 264 263 138
f 138 263 229
f 14 16 128
f 128 16 260
f 220 228 218
f 218 228 230
f 87 227 284
f 284 227 283
f 260 16 145
f 145 16 146
f 244 98 258
f 258 98 155
f 58 274 156
f 156 274 246
f 107 285 51
f 51 285 55
f 243 286 160
f 160 286 96
f 234 237 89
f 89 237 90
f 46 132 107
f 107 132 285
f 253 252 249
f 249 252 250
f 286 26 96
f 96 26 25
f 106 105 287
f 287 105 288
f 272 152 289
f 289 152 229
f 138 151 139
f 139 151 133
f 183 290 161
f 161 290 162
f 291 292 277
f 277 292 293
f 151 150 133
f 133 150 94
f 262 275 177
f 177 275 187
f 144 187 145
f 145 187 275
f 273 57 284
f 284 57 87
f 174 136 190
f 190 136 135
f 111 117 112
f 112 117 38
f 117 119 38
f 38 119 123
f 112 38 265
f 265 38 37
f 287 288 254
f 254 288 251
f 228 159 231
f 231 159 15
f 223 227 226
f 226 227 214
f 147 67 148
f 148 67 269
f 224 168 281
f 281 168 167
f 199 163 200
f 200 163 162
f 45 46 108
f 108 46 107
f 281 167 48
f 48 167 49
f 161 164 291
f 291 164 292
f 38 123 39
f 293 294 277
f 277 294 248
f 284 283 296
f 296 283 295
f 284 296 273
f 273 296 297
f 274 273 298
f 298 273 297
f 246 274 299
f 299 274 298
f 283 222 295
f 295 222 300
f 222 225 300
f 300 225 301
f 301 225 302
f 302 225 282
f 303 304 300
f 300 304 295
f 306 307 305
f 305 307 308
f 309 310 308
f 308 310 305
f 308 307 312
f 312 307 311
f 313 314 312
f 312 314 315
f 311 316 312
f 312 316 313
f 317 304 311
f 311 304 316
f 315 309 312
f 312 309 308
f 318 319 321
f 321 319 320
f 319 318 309
f 309 318 310
f 311 307 317
f 317 307 306
f 306 297 317
f 317 297 296
f 306 322 297
f 297 322 298
f 305 323 306
f 306 323 322
f 323 305 324
f 324 305 310
f 304 317 295
f 295 317 296
f 318 325 310
f 310 325 324
f 323 324 326
f 326 324 327
f 324 325 327
f 327 325 328
f 326 327 329
f 329 327 330
f 329 331 326
f 326 331 332
f 333 330 328
f 328 330 327
f 323 326 322
f 322 326 332
f 322 332 298
f 298 332 299
f 325 318 334
f 334 318 321
f 313 316 335
f 335 316 304
f 335 336 313
f 313 336 314
f 304 303 335
f 335 303 337
f 336 335 338
f 338 335 337
f 336 339 314
f 314 339 340
f 246 299 238
f 238 299 341
f 239 342 282
f 282 342 302
f 342 239 341
f 341 239 238
f 341 331 342
f 342 331 343
f 331 329 343
f 343 329 344
f 342 343 302
f 302 343 345
f 341 299 331
f 331 299 332
f 346 301 345
f 345 301 302
f 346 303 301
f 301 303 300
f 347 337 346
f 346 337 303
f 347 346 348
f 348 346 345
f 349 347 350
f 350 347 348
f 343 344 345
f 345 344 348
f 344 351 348
f 348 351 350
f 337 347 338
f 338 347 349
f 353 338 352
f 352 338 349
f 352 355 354
f 354 355 356
f 352 349 355
f 355 349 350
f 352 354 353
f 353 354 334
f 353 334 339
f 339 334 321
f 339 336 353
f 353 336 338
f 329 330 344
f 344 330 351
f 356 351 333
f 333 351 330
f 356 355 351
f 351 355 350
f 354 356 328
f 328 356 333
f 328 325 354
f 354 325 334
f 309 315 319
f 319 315 320
f 320 340 321
f 321 340 339
f 320 315 340
f 340 315 314
f 137 136 261
f 261 136 259
f 140 166 141
f 141 166 165
f 172 171 195
f 195 171 196
f 171 174 196
f 196 174 190
f 178 177 264
f 264 177 187
f 172 195 140
f 140 195 166
f 137 261 262
f 262 261 275
f 178 264 141
f 141 264 138
f 262 177 213
f 213 177 176
f 136 174 259
f 259 174 173
f 358 359 357
f 357 359 360
f 362 363 361
f 361 363 364
f 361 364 365
f 365 364 366
f 367 368 370
f 370 368 369
f 76 371 247
f 247 371 372
f 373 374 362
f 362 374 363
f 376 377 375
f 375 377 378
f 289 229 380
f 380 229 379
f 381 379 263
f 263 379 229
f 383 384 382
f 382 384 385
f 386 368 374
f 374 368 363
f 76 289 371
f 371 289 380
f 377 376 359
f 359 376 387
f 388 386 360
f 360 386 374
f 389 383 366
f 366 383 390
f 392 393 391
f 391 393 394
f 383 382 390
f 390 382 395
f 396 365 390
f 390 365 366
f 389 366 367
f 367 366 364
f 357 397 358
f 358 397 398
f 373 399 357
f 357 399 397
f 389 367 400
f 400 367 370
f 382 385 375
f 375 385 372
f 357 360 373
f 373 360 374
f 361 401 362
f 362 401 402
f 387 388 359
f 359 388 360
f 363 368 364
f 364 368 367
f 358 398 403
f 403 398 404
f 396 392 405
f 405 392 391
f 392 395 393
f 393 395 378
f 393 403 394
f 394 403 404
f 375 378 382
f 382 378 395
f 365 396 406
f 406 396 405
f 362 402 373
f 373 402 399
f 271 270 400
f 400 270 384
f 401 361 406
f 406 361 365
f 381 369 386
f 386 369 368
f 392 396 395
f 395 396 390
f 393 378 403
f 403 378 377
f 403 377 358
f 358 377 359
f 406 405 408
f 408 405 407
f 406 408 401
f 401 408 409
f 401 409 402
f 402 409 410
f 402 410 399
f 399 410 411
f 405 391 407
f 407 391 412
f 391 394 412
f 412 394 413
f 394 404 413
f 413 404 414
f 415 416 412
f 412 416 407
f 418 419 417
f 417 419 420
f 421 422 418
f 418 422 419
f 419 422 424
f 424 422 423
f 425 426 424
f 424 426 427
f 423 428 424
f 424 428 425
f 427 420 424
f 424 420 419
f 420 429 417
f 417 429 430
f 423 422 431
f 431 422 421
f 421 409 431
f 431 409 408
f 421 432 409
f 409 432 410
f 418 433 421
f 421 433 432
f 434 433 417
f 417 433 418
f 431 416 423
f 423 416 428
f 416 431 407
f 407 431 408
f 435 434 430
f 430 434 417
f 433 434 436
f 436 434 437
f 434 435 437
f 437 435 438
f 436 437 439
f 439 437 440
f 439 441 436
f 436 441 442
f 438 443 437
f 437 443 440
f 436 442 433
f 433 442 432
f 432 442 410
f 410 442 411
f 435 430 445
f 445 430 444
f 430 429 444
f 444 429 446
f 425 428 447
f 447 428 416
f 426 425 448
f 448 425 447
f 416 415 447
f 447 415 449
f 447 449 448
f 448 449 450
f 451 452 448
f 448 452 426
f 446 452 444
f 444 452 451
f 399 411 397
f 397 411 453
f 398 454 404
f 404 454 414
f 454 398 453
f 453 398 397
f 453 441 454
f 454 441 455
f 441 439 455
f 455 439 456
f 454 455 414
f 414 455 457
f 441 453 442
f 442 453 411
f 458 413 457
f 457 413 414
f 458 415 413
f 413 415 412
f 458 459 415
f 415 459 449
f 459 458 460
f 460 458 457
f 461 459 462
f 462 459 460
f 455 456 457
f 457 456 460
f 456 463 460
f 460 463 462
f 459 461 449
f 449 461 450
f 465 450 464
f 464 450 461
f 464 467 466
f 466 467 468
f 464 461 467
f 467 461 462
f 464 466 465
f 465 466 445
f 465 445 451
f 451 445 444
f 451 448 465
f 465 448 450
f 439 440 456
f 456 440 463
f 468 463 443
f 443 463 440
f 468 467 463
f 463 467 462
f 466 468 438
f 438 468 443
f 438 435 466
f 466 435 445
f 420 427 429
f 429 427 446
f 446 427 452
f 452 427 426
f 370 369 188
f 188 369 186
f 371 376 372
f 372 376 375
f 380 379 387
f 387 379 388
f 379 381 388
f 388 381 386
f 385 384 278
f 278 384 270
f 380 387 371
f 371 387 376
f 400 370 271
f 271 370 188
f 385 278 372
f 372 278 247
f 400 384 389
f 389 384 383
f 369 381 186
f 186 381 263
f 221 271 144
f 144 271 188
f 221 19 207
f 207 19 22
f 19 18 22
f 22 18 23
f 18 219 23
f 23 219 208
f 469 470 472
f 472 470 471
f 474 475 473
f 473 475 476
f 473 476 477
f 477 476 478
f 480 481 479
f 479 481 482
f 483 484 474
f 474 484 475
f 486 487 485
f 485 487 488
f 489 490 77
f 77 490 142
f 491 489 248
f 248 489 77
f 493 494 492
f 492 494 495
f 496 480 484
f 484 480 475
f 486 497 487
f 487 497 471
f 498 496 472
f 472 496 484
f 499 493 478
f 478 493 500
f 501 502 504
f 504 502 503
f 493 492 500
f 500 492 505
f 506 477 500
f 500 477 478
f 499 478 479
f 479 478 476
f 469 507 470
f 470 507 508
f 483 509 469
f 469 509 507
f 479 482 499
f 499 482 510
f 492 495 485
f 485 495 511
f 483 469 484
f 484 469 472
f 473 512 474
f 474 512 513
f 497 498 471
f 471 498 472
f 475 480 476
f 476 480 479
f 470 508 514
f 514 508 515
f 506 502 516
f 516 502 501
f 503 502 488
f 488 502 505
f 514 515 503
f 503 515 504
f 485 488 492
f 492 488 505
f 477 506 517
f 517 506 516
f 474 513 483
f 483 513 509
f 510 292 494
f 494 292 164
f 512 473 517
f 517 473 477
f 491 481 496
f 496 481 480
f 502 506 505
f 505 506 500
f 503 488 514
f 514 488 487
f 514 487 470
f 470 487 471
f 517 516 519
f 519 516 518
f 517 519 512
f 512 519 520
f 512 520 513
f 513 520 521
f 513 521 509
f 509 521 522
f 516 501 518
f 518 501 523
f 501 504 523
f 523 504 524
f 524 504 525
f 525 504 515
f 526 527 523
f 523 527 518
f 529 530 528
f 528 530 531
f 532 533 529
f 529 533 530
f 530 533 535
f 535 533 534
f 536 537 535
f 535 537 538
f 534 539 535
f 535 539 536
f 538 531 535
f 535 531 530
f 540 541 531
f 531 541 528
f 533 532 534
f 534 532 542
f 532 520 542
f 542 520 519
f 532 543 520
f 520 543 521
f 529 544 532
f 532 544 543
f 544 529 545
f 545 529 528
f 534 542 539
f 539 542 527
f 527 542 518
f 518 542 519
f 541 546 528
f 528 546 545
f 547 544 548
f 548 544 545
f 546 549 545
f 545 549 548
f 550 547 551
f 551 547 548
f 547 550 553
f 553 550 552
f 549 554 548
f 548 554 551
f 544 547 543
f 543 547 553
f 543 553 521
f 521 553 522
f 546 541 556
f 556 541 555
f 541 540 555
f 555 540 557
f 536 539 558
f 558 539 527
f 537 536 559
f 559 536 558
f 527 526 558
f 558 526 560
f 559 558 561
f 561 558 560
f 559 562 537
f 537 562 563
f 557 563 555
f 555 563 562
f 509 522 507
f 507 522 564
f 508 565 515
f 515 565 525
f 565 508 564
f 564 508 507
f 564 552 565
f 565 552 566
f 552 550 566
f 566 550 567
f 565 566 525
f 525 566 568
f 564 522 552
f 552 522 553
f 569 524 568
f 568 524 525
f 569 526 524
f 524 526 523
f 570 560 569
f 569 560 526
f 570 569 571
f 571 569 568
f 572 570 573
f 573 570 571
f 566 567 568
f 568 567 571
f 567 574 571
f 571 574 573
f 570 572 560
f 560 572 561
f 576 561 575
f 575 561 572
f 575 578 577
f 577 578 579
f 575 572 578
f 578 572 573
f 575 577 576
f 576 577 556
f 576 556 562
f 562 556 555
f 562 559 576
f 576 559 561
f 550 551 567
f 567 551 574
f 579 574 554
f 554 574 551
f 579 578 574
f 574 578 573
f 579 554 577
f 577 554 549
f 549 546 577
f 577 546 556
f 531 538 540
f 540 538 557
f 557 538 563
f 563 538 537
f 481 294 482
f 482 294 293
f 580 486 511
f 511 486 485
f 490 489 497
f 497 489 498
f 489 491 498
f 498 491 496
f 163 495 164
f 164 495 494
f 580 490 486
f 486 490 497
f 482 293 510
f 510 293 292
f 495 163 511
f 511 163 199
f 494 493 510
f 510 493 499
f 481 491 294
f 294 491 248
f 582 583 581
f 581 583 584
f 586 587 585
f 585 587 588
f 585 588 589
f 589 588 590
f 592 593 591
f 591 593 594
f 595 596 598
f 598 596 597
f 599 600 586
f 586 600 587
f 601 602 604
f 604 602 603
f 605 606 608
f 608 606 607
f 609 607 200
f 200 607 606
f 610 611 613
f 613 611 612
f 600 614 587
f 587 614 592
f 596 605 597
f 597 605 608
f 602 615 603
f 603 615 583
f 616 614 584
f 584 614 600
f 611 618 617
f 617 618 590
f 620 621 619
f 619 621 622
f 610 623 611
f 611 623 618
f 624 589 618
f 618 589 590
f 617 590 591
f 591 590 588
f 581 625 582
f 582 625 626
f 599 627 581
f 581 627 625
f 591 594 617
f 617 594 628
f 601 610 598
f 598 610 613
f 581 584 599
f 599 584 600
f 585 629 586
f 586 629 630
f 615 616 583
f 583 616 584
f 587 592 588
f 588 592 591
f 582 626 631
f 631 626 632
f 624 620 633
f 633 620 619
f 621 620 604
f 604 620 623
f 631 632 621
f 621 632 622
f 610 601 623
f 623 601 604
f 589 624 634
f 634 624 633
f 586 630 599
f 599 630 627
f 203 202 628
f 628 202 612
f 629 585 634
f 634 585 589
f 609 593 614
f 614 593 592
f 620 624 623
f 623 624 618
f 631 621 603
f 603 621 604
f 582 631 583
f 583 631 603
f 634 633 636
f 636 633 635
f 634 636 629
f 629 636 637
f 629 637 630
f 630 637 638
f 630 638 627
f 627 638 639
f 633 619 635
f 635 619 640
f 619 622 640
f 640 622 641
f 641 622 642
f 642 622 632
f 644 635 643
f 643 635 640
f 645 646 648
f 648 646 647
f 649 650 646
f 646 650 647
f 647 650 652
f 652 650 651
f 652 653 655
f 655 653 654
f 651 656 652
f 652 656 653
f 655 648 652
f 652 648 647
f 648 657 645
f 645 657 658
f 650 649 651
f 651 649 659
f 649 637 659
f 659 637 636
f 649 660 637
f 637 660 638
f 661 660 646
f 646 660 649
f 662 661 645
f 645 661 646
f 651 659 656
f 656 659 644
f 644 659 635
f 635 659 636
f 663 662 658
f 658 662 645
f 664 661 665
f 665 661 662
f 663 666 662
f 662 666 665
f 667 664 668
f 668 664 665
f 664 667 670
f 670 667 669
f 666 671 665
f 665 671 668
f 661 664 660
f 660 664 670
f 660 670 638
f 638 670 639
f 658 672 663
f 663 672 673
f 658 657 672
f 672 657 674
f 653 656 675
f 675 656 644
f 653 675 654
f 654 675 676
f 675 644 677
f 677 644 643
f 676 675 678
f 678 675 677
f 679 680 676
f 676 680 654
f 674 680 672
f 672 680 679
f 627 639 625
f 625 639 681
f 626 682 632
f 632 682 642
f 681 682 625
f 625 682 626
f 669 683 681
f 681 683 682
f 667 684 669
f 669 684 683
f 682 683 642
f 642 683 685
f 681 639 669
f 669 639 670
f 686 641 685
f 685 641 642
f 641 686 640
f 640 686 643
f 686 687 643
f 643 687 677
f 687 686 688
f 688 686 685
f 689 687 690
f 690 687 688
f 683 684 685
f 685 684 688
f 684 691 688
f 688 691 690
f 687 689 677
f 677 689 678
f 693 678 692
f 692 678 689
f 692 695 694
f 694 695 696
f 692 689 695
f 695 689 690
f 692 694 693
f 693 694 673
f 693 673 679
f 679 673 672
f 679 676 693
f 693 676 678
f 684 667 691
f 691 667 668
f 696 691 671
f 671 691 668
f 696 695 691
f 691 695 690
f 694 696 666
f 666 696 671
f 666 663 694
f 694 663 673
f 648 655 657
f 657 655 674
f 674 655 680
f 680 655 654
f 593 162 594
f 594 162 290
f 598 597 601
f 601 597 602
f 615 608 616
f 616 608 607
f 607 609 616
f 616 609 614
f 697 595 613
f 613 595 598
f 597 608 602
f 602 608 615
f 594 290 628
f 628 290 203
f 628 612 617
f 617 612 611
f 593 609 162
f 162 609 200
f 105 29 698
f 698 29 699
f 268 126 701
f 701 126 700
f 126 125 700
f 700 125 702
f 252 703 250
f 250 703 704
f 32 268 705
f 705 268 701
f 288 105 706
f 706 105 698
f 29 32 699
f 699 32 705
f 707 251 706
f 706 251 288
f 250 704 125
f 125 704 702
f 703 252 707
f 707 252 251
f 706 708 707
f 707 708 709
f 707 709 703
f 703 709 710
f 703 710 704
f 704 710 711
f 704 711 702
f 702 711 712
f 706 698 708
f 708 698 713
f 698 699 713
f 713 699 714
f 699 705 714
f 714 705 715
f 717 708 716
f 716 708 713
f 719 720 718
f 718 720 721
f 722 723 719
f 719 723 720
f 724 725 723
f 723 725 720
f 724 726 725
f 725 726 727
f 728 721 725
f 725 721 720
f 721 728 729
f 729 728 730
f 729 731 721
f 721 731 718
f 724 723 732
f 732 723 722
f 722 710 732
f 732 710 709
f 722 733 710
f 710 733 711
f 719 734 722
f 722 734 733
f 734 719 735
f 735 719 718
f 724 732 726
f 726 732 717
f 717 732 708
f 708 732 709
f 731 736 718
f 718 736 735
f 737 734 738
f 738 734 735
f 736 739 735
f 735 739 738
f 740 737 741
f 741 737 738
f 737 740 743
f 743 740 742
f 739 744 738
f 738 744 741
f 734 737 733
f 733 737 743
f 733 743 711
f 711 743 712
f 736 731 746
f 746 731 745
f 731 729 745
f 745 729 730
f 727 726 747
f 747 726 717
f 748 727 749
f 749 727 747
f 747 717 750
f 750 717 716
f 749 747 751
f 751 747 750
f 749 752 748
f 748 752 753
f 730 753 745
f 745 753 752
f 728 725 748
f 748 725 727
f 730 728 753
f 753 728 748
f 700 702 754
f 754 702 712
f 705 701 715
f 715 701 755
f 754 755 700
f 700 755 701
f 742 756 754
f 754 756 755
f 740 757 742
f 742 757 756
f 755 756 715
f 715 756 758
f 754 712 742
f 742 712 743
f 759 714 758
f 758 714 715
f 714 759 713
f 713 759 716
f 759 760 716
f 716 760 750
f 760 759 761
f 761 759 758
f 762 760 763
f 763 760 761
f 756 757 758
f 758 757 761
f 757 764 761
f 761 764 763
f 760 762 750
f 750 762 751
f 766 751 765
f 765 751 762
f 767 765 769
f 769 765 768
f 765 762 768
f 768 762 763
f 765 767 766
f 766 767 746
f 766 746 752
f 752 746 745
f 752 749 766
f 766 749 751
f 757 740 764
f 764 740 741
f 769 764 744
f 744 764 741
f 769 768 764
f 764 768 763
f 767 769 739
f 739 769 744
f 739 736 767
f 767 736 746
f 219 217 208
f 208 217 209
f 209 217 210
f 210 217 193
f 198 580 199
f 199 580 511
f 76 75 289
f 289 75 272
f 277 207 291
f 291 207 184
f 290 183 203
f 203 183 84
f 490 580 142
f 142 580 198
f 142 198 143
f 143 198 197
f 149 276 72
f 72 276 73
f 104 103 279
f 279 103 770
f 770 596 279
f 279 596 595
f 605 596 771
f 771 596 770
f 771 770 772
f 772 770 103
f 772 103 773
f 773 103 102
f 155 774 101
f 101 774 102
f 773 102 97
f 97 102 774
f 775 773 100
f 100 773 97
f 773 775 772
f 772 775 776
f 772 776 771
f 771 776 777
f 200 606 197
f 197 606 777
f 189 71 778
f 778 71 74
f 97 774 98
f 98 774 155
f 183 161 184
f 184 161 291
f 777 276 197
f 197 276 143
f 777 606 771
f 771 606 605
f 613 612 697
f 697 612 202
f 595 697 279
f 279 697 202
f 73 276 776
f 776 276 777
f 776 775 73
f 73 775 74
f 100 778 775
f 775 778 74
f 778 100 189
f 189 100 99
f 245 242 99
f 99 242 189
f 131 33 256
f 28 1 95
f 95 1 62
f 27 2 28
f 28 2 1
f 265 115 266
f 266 115 114
f 95 62 69
f 69 62 64
f 62 61 64
f 64 61 65
f 61 13 65
f 65 13 130
f 13 12 130
f 130 12 14
f 31 11 32
f 32 11 268
f 15 12 31
f 31 12 11
f 31 30 15
f 15 30 231
f 30 106 231
f 231 106 232
f 287 237 106
f 106 237 232
f 254 90 287
f 287 90 237
f 253 44 254
f 254 44 90
f 253 249 44
f 44 249 7
f 267 127 268
f 268 127 126
f 10 3 241
f 241 3 116
f 3 2 116
f 116 2 114
f 2 27 114
f 114 27 266
f 27 26 266
f 266 26 113
f 26 286 113
f 113 286 110
f 286 243 110
f 110 243 255
f 243 242 255
f 255 242 256
f 242 245 256
f 256 245 131
f 245 244 131
f 131 244 132
f 265 37 115
f 115 37 41
f 41 37 42
f 42 37 40
f 92 91 40
f 40 91 42
f 236 233 92
f 92 233 91
f 191 194 236
f 236 194 233
f 258 285 244
f 244 285 132
f 257 55 258
f 258 55 285
f 257 154 201
f 201 154 185
f 56 201 204
f 204 201 180
f 55 257 56
f 56 257 201
f 204 85 56
f 56 85 52
f 86 122 53
f 53 122 79
f 212 215 86
f 86 215 122
f 211 216 212
f 212 216 215
f 192 280 211
f 211 280 216
f 191 240 192
f 192 240 280
f 249 124 7
f 7 124 8
f 124 127 8
f 8 127 241
f 127 267 241
f 241 267 10
f 10 267 9
f 9 267 11
o hand_right
v -0.082024 0.142808 0.813709
v -0.092447 0.140457 0.810846
v -0.083996 0.134497 0.808479
v -0.074300 0.137962 0.810391
v -0.102015 0.125328 0.798823
v -0.105044 0.124716 0.786831
v -0.090002 0.118975 0.788080
v -0.090326 0.119805 0.798553
v -0.067118 0.135845 0.807211
v -0.076796 0.130295 0.806756
v -0.063863 0.137642 0.803211
v -0.055861 0.148395 0.802742
v -0.058897 0.143065 0.807079
v -0.049571 0.153376 0.805519
v -0.060393 0.157467 0.797559
v -0.049721 0.163160 0.806892
v -0.076157 0.176513 0.813758
v -0.084450 0.179541 0.824010
v -0.069074 0.179821 0.832932
v -0.062188 0.175679 0.821665
v -0.086234 0.179119 0.845347
v -0.076107 0.179581 0.838980
v -0.091210 0.180654 0.829972
v -0.099488 0.180032 0.836092
v -0.094808 0.148439 0.821683
v -0.105119 0.147382 0.818446
v -0.100685 0.146154 0.815166
v -0.090876 0.147020 0.818121
v -0.062870 0.132741 0.792775
v -0.067486 0.144235 0.788907
v -0.063598 0.142933 0.796059
v -0.063278 0.130213 0.797894
v -0.133526 0.141582 0.817004
v -0.143164 0.147078 0.809211
v -0.140210 0.146605 0.804092
v -0.131946 0.142164 0.812354
v -0.125039 0.137438 0.788879
v -0.132371 0.145008 0.787506
v -0.132026 0.152079 0.775729
v -0.122812 0.147571 0.776177
v -0.115174 0.129924 0.788012
v -0.114031 0.137705 0.776521
v -0.102873 0.130776 0.776971
v -0.087542 0.122795 0.779826
v -0.149270 0.151190 0.819786
v -0.143256 0.147227 0.827069
v -0.027168 0.126407 0.836639
v -0.031018 0.126902 0.841105
v -0.032758 0.129688 0.838642
v -0.028452 0.128908 0.834646
v -0.146899 0.167550 0.831593
v -0.144466 0.177179 0.829671
v -0.151263 0.176157 0.827178
v -0.152995 0.166875 0.827125
v -0.138800 0.168382 0.837433
v -0.134839 0.177928 0.832810
v -0.015766 0.131324 0.840010
v -0.018381 0.128330 0.836717
v -0.018726 0.132744 0.834523
v -0.016707 0.136295 0.837932
v -0.064992 0.141332 0.811549
v -0.072741 0.143119 0.816678
v -0.051237 0.144199 0.819586
v -0.059299 0.144865 0.819264
v -0.056537 0.144509 0.812758
v -0.049720 0.144957 0.813645
v -0.076350 0.150375 0.834814
v -0.086566 0.150209 0.829157
v -0.081496 0.149030 0.825073
v -0.069565 0.148144 0.829919
v -0.095904 0.149932 0.839868
v -0.085067 0.150610 0.844496
v -0.091683 0.150447 0.850019
v -0.098275 0.148975 0.845895
v -0.065325 0.152364 0.849087
v -0.060078 0.153230 0.850949
v -0.061720 0.152038 0.853982
v -0.068165 0.152429 0.851651
v -0.157698 0.176152 0.824139
v -0.158296 0.166523 0.822098
v -0.102921 0.175186 0.858987
v -0.111578 0.168447 0.861653
v -0.101333 0.167888 0.870996
v -0.094538 0.175934 0.865733
v -0.138542 0.183532 0.823921
v -0.146349 0.183933 0.823023
v -0.016244 0.134247 0.845451
v -0.017588 0.138954 0.843476
v -0.100262 0.143219 0.772825
v -0.083783 0.131110 0.775570
v -0.113008 0.152345 0.772765
v -0.121600 0.159266 0.773567
v -0.129335 0.163218 0.771940
v -0.059024 0.146011 0.825781
v -0.081025 0.146371 0.819761
v -0.098287 0.148973 0.825307
v -0.114808 0.146863 0.851391
v -0.123769 0.146013 0.845899
v -0.115066 0.144116 0.839844
v -0.108962 0.145875 0.845855
v -0.113557 0.158845 0.863551
v -0.110049 0.151854 0.861235
v -0.102758 0.152947 0.866374
v -0.104692 0.159466 0.870310
v -0.063503 0.131539 0.785193
v -0.071768 0.144042 0.782396
v -0.147267 0.156989 0.830412
v -0.151898 0.157206 0.824098
v -0.157909 0.159590 0.818553
v -0.118956 0.143563 0.816681
v -0.130883 0.142385 0.809087
v -0.128148 0.141125 0.805767
v -0.116860 0.144125 0.814419
v -0.103603 0.135858 0.808154
v -0.114398 0.132220 0.800914
v -0.093728 0.129206 0.807163
v -0.137746 0.146083 0.796256
v -0.148363 0.148436 0.798064
v -0.144408 0.148529 0.790027
v -0.152932 0.150901 0.806431
v -0.156420 0.154547 0.813822
v -0.154003 0.187091 0.820922
v -0.139806 0.150057 0.783087
v -0.081480 0.116642 0.798131
v -0.073981 0.113096 0.797035
v -0.070910 0.118316 0.802172
v -0.077997 0.122090 0.804213
v -0.042005 0.154659 0.810208
v -0.045515 0.147785 0.810779
v -0.053011 0.146987 0.806910
v -0.127160 0.141667 0.826762
v -0.135770 0.146256 0.834907
v -0.051036 0.145471 0.826029
v -0.019167 0.140847 0.835029
v -0.021167 0.136657 0.831336
v -0.032537 0.147282 0.819022
v -0.029687 0.152337 0.823026
v -0.045873 0.149453 0.833755
v -0.048620 0.145397 0.828628
v -0.047314 0.145535 0.830513
v -0.045594 0.147941 0.836478
v -0.069677 0.152003 0.858966
v -0.075498 0.152317 0.856568
v -0.049468 0.170924 0.830573
v -0.043939 0.171483 0.817949
v -0.055549 0.171892 0.811858
v -0.081909 0.150883 0.839816
v -0.073242 0.151144 0.845475
v -0.076094 0.151515 0.848529
v -0.057390 0.147156 0.830117
v -0.050981 0.147737 0.831691
v -0.054384 0.149082 0.834473
v -0.061370 0.148390 0.833515
v -0.121910 0.169427 0.853148
v -0.124236 0.158236 0.855831
v -0.022559 0.126752 0.835294
v -0.023271 0.130100 0.833144
v -0.091810 0.150677 0.834151
v -0.069504 0.171020 0.805846
v -0.102029 0.149072 0.829343
v -0.076122 0.170761 0.863393
v -0.077772 0.163411 0.866548
v -0.072759 0.160237 0.868158
v -0.069573 0.165393 0.867341
v -0.036143 0.139574 0.845713
v -0.037493 0.135088 0.842234
v -0.034634 0.132329 0.844058
v -0.032864 0.136098 0.848251
v -0.048068 0.143416 0.823054
v -0.045490 0.143361 0.817183
v -0.042764 0.141092 0.821373
v -0.045583 0.142636 0.826524
v -0.040902 0.146252 0.814608
v -0.037568 0.143348 0.818397
v -0.031328 0.143822 0.847109
v -0.024374 0.145832 0.844896
v -0.034655 0.157144 0.835265
v -0.039768 0.152268 0.838951
v -0.111894 0.182403 0.827425
v -0.119443 0.180385 0.835444
v -0.107279 0.178192 0.844369
v -0.095369 0.177305 0.853850
v -0.083667 0.175475 0.861667
v -0.075257 0.179258 0.853567
v -0.113826 0.176202 0.849040
v -0.045963 0.157634 0.835407
v -0.041766 0.163983 0.830173
v -0.045801 0.163963 0.834137
v -0.106328 0.147590 0.835286
v -0.025524 0.133288 0.830071
v -0.122220 0.179797 0.784468
v -0.126942 0.186007 0.795382
v -0.118704 0.183717 0.797511
v -0.113430 0.175985 0.785489
v -0.035672 0.131717 0.836540
v -0.031359 0.130840 0.831696
v -0.078833 0.151974 0.862258
v -0.072807 0.152098 0.863812
v -0.072954 0.153712 0.866918
v -0.079236 0.151956 0.867564
v -0.124343 0.178641 0.838473
v -0.094096 0.163492 0.876057
v -0.088632 0.171977 0.871126
v -0.129697 0.182428 0.827399
v -0.123239 0.184854 0.820410
v -0.131726 0.186666 0.815877
v -0.061794 0.175344 0.847297
v -0.104685 0.182707 0.822518
v -0.117341 0.184661 0.815464
v -0.127215 0.186814 0.809812
v -0.134546 0.189016 0.806406
v -0.138763 0.188488 0.813393
v -0.020582 0.143893 0.840595
v -0.021432 0.140724 0.848859
v -0.146730 0.192167 0.810913
v -0.141731 0.191948 0.803064
v -0.111068 0.183493 0.808782
v -0.103847 0.180533 0.800517
v -0.099093 0.181408 0.815892
v -0.090885 0.178560 0.808290
v -0.056448 0.179834 0.838617
v -0.021992 0.125254 0.857330
v -0.025518 0.134703 0.852897
v -0.030483 0.132395 0.850841
v -0.026196 0.124251 0.856961
v -0.028180 0.139360 0.850232
v -0.020228 0.135862 0.850769
v -0.083400 0.171117 0.797977
v -0.049147 0.150001 0.836229
v -0.097350 0.169841 0.787853
v -0.071721 0.160129 0.790133
v -0.082638 0.157102 0.782889
v -0.110976 0.166427 0.776514
v -0.097121 0.156293 0.774930
v -0.127846 0.173536 0.775113
v -0.119525 0.171004 0.776999
v -0.084060 0.144799 0.775564
v -0.027010 0.118462 0.843697
v -0.030290 0.120293 0.848039
v -0.129752 0.182454 0.781902
v -0.084898 0.125341 0.805712
v -0.114638 0.145089 0.828624
v -0.111007 0.146461 0.824483
v -0.128701 0.145906 0.841802
v -0.120313 0.143082 0.833949
v -0.022083 0.118342 0.841594
v -0.057439 0.155535 0.853624
v -0.058644 0.155533 0.853436
v -0.082048 0.114708 0.789313
v -0.075754 0.111869 0.789590
v -0.068979 0.118985 0.780577
v -0.073037 0.113792 0.783464
v -0.079850 0.117800 0.781496
v -0.076027 0.123787 0.778128
v -0.120372 0.142957 0.818892
v -0.122380 0.142490 0.822293
v -0.131128 0.168751 0.845086
v -0.132532 0.157566 0.847904
v -0.037343 0.151750 0.814908
v -0.040335 0.162379 0.813315
v -0.035514 0.157718 0.818315
v -0.031483 0.157357 0.827943
v -0.046247 0.152403 0.836983
v -0.043809 0.155355 0.834950
v -0.121710 0.137054 0.803789
v -0.111571 0.141846 0.811205
v -0.072267 0.128081 0.804967
v -0.066659 0.124888 0.803001
v -0.067913 0.150073 0.838042
v -0.053359 0.167717 0.850663
v -0.049352 0.170761 0.843168
v -0.059716 0.151017 0.841216
v -0.015039 0.120755 0.845636
v -0.018387 0.118877 0.842426
v -0.037073 0.163229 0.822987
v -0.082413 0.150727 0.854174
v -0.059711 0.168945 0.852662
v -0.055190 0.162120 0.854542
v -0.099425 0.157586 0.873433
v -0.134952 0.188104 0.792030
v -0.032903 0.128966 0.846942
v -0.030864 0.122611 0.852508
v -0.018114 0.125897 0.855479
v -0.014791 0.124726 0.850541
v -0.139147 0.156315 0.839175
v -0.108229 0.147245 0.821975
v -0.074173 0.134737 0.777764
v -0.065895 0.126023 0.781429
v -0.055590 0.151981 0.842602
v -0.081717 0.169539 0.867345
v -0.068412 0.174038 0.858909
v -0.061752 0.168299 0.863811
v -0.056486 0.165041 0.859343
v -0.055076 0.158751 0.856139
v -0.018270 0.120894 0.858165
v -0.014770 0.119457 0.853369
v -0.015048 0.115511 0.848494
v -0.018175 0.114173 0.845158
v -0.022440 0.114937 0.843911
v -0.022337 0.120261 0.859978
v -0.026158 0.119442 0.859234
v -0.030368 0.119686 0.854416
v -0.023720 0.115946 0.861719
v -0.019248 0.113151 0.861575
v -0.018501 0.102194 0.853181
v -0.016042 0.107599 0.852682
v -0.016381 0.106234 0.855085
v -0.018105 0.101725 0.856418
v -0.019492 0.097564 0.859202
v -0.020174 0.097357 0.855683
v -0.016489 0.110153 0.857618
v -0.018796 0.104341 0.860168
v -0.021071 0.106333 0.863168
v -0.022083 0.101373 0.865426
v -0.019921 0.099407 0.862929
v -0.019074 0.110116 0.861365
v -0.015549 0.112302 0.856908
v -0.021835 0.094818 0.859238
v -0.020349 0.095565 0.861188
v -0.021241 0.096869 0.864164
v -0.023615 0.094877 0.864029
v -0.018753 0.109406 0.847473
v -0.020375 0.102018 0.851335
v -0.023191 0.097794 0.854704
v -0.024533 0.095291 0.858373
v -0.024501 0.102087 0.851570
v -0.025968 0.098851 0.854885
v -0.027418 0.097008 0.858226
v -0.028349 0.103076 0.853268
v -0.028634 0.100080 0.856219
v -0.026562 0.112934 0.846975
v -0.022706 0.111858 0.845444
v -0.029182 0.098241 0.858031
v -0.025825 0.095230 0.863645
v -0.023327 0.109146 0.864027
v -0.025086 0.102602 0.865908
v -0.025646 0.109782 0.863902
v -0.027329 0.103448 0.866146
v -0.025165 0.098332 0.867175
v -0.022825 0.098602 0.866044
v -0.027017 0.116722 0.845485
v -0.030251 0.118662 0.850066
v -0.030082 0.115559 0.851398
v -0.031129 0.105344 0.856495
v -0.030568 0.116491 0.855740
v -0.027403 0.115311 0.860766
v -0.028441 0.108952 0.863241
v -0.030814 0.107871 0.860959
v -0.029381 0.103831 0.864569
v -0.030527 0.103416 0.862280
v -0.030729 0.101585 0.858868
v -0.029406 0.099753 0.864480
v -0.027279 0.098923 0.866454
v -0.028364 0.096974 0.862099
v -0.030323 0.100626 0.862925
v -0.029495 0.098907 0.860582
v -0.039775 0.130850 0.858709
v -0.044238 0.132009 0.863187
v -0.043644 0.135921 0.860830
v -0.039824 0.134732 0.857159
v -0.027219 0.135158 0.863541
v -0.030899 0.132213 0.859332
v -0.030030 0.137152 0.857403
v -0.027313 0.141150 0.862343
v -0.028574 0.138751 0.869654
v -0.029492 0.144724 0.867853
v -0.028725 0.146175 0.858926
v -0.031671 0.141668 0.854146
v -0.042169 0.154402 0.841080
v -0.039933 0.159709 0.844628
v -0.056423 0.151308 0.851106
v -0.055767 0.153514 0.854247
v -0.035750 0.130963 0.858013
v -0.035081 0.135247 0.856185
v -0.048057 0.142447 0.866118
v -0.048160 0.139150 0.861682
v -0.046386 0.137133 0.864746
v -0.045435 0.139857 0.869509
v -0.048915 0.149536 0.841264
v -0.052950 0.150656 0.845987
v -0.045529 0.151047 0.840435
v -0.044179 0.146597 0.869698
v -0.038097 0.149830 0.870062
v -0.046820 0.163191 0.857151
v -0.051446 0.159305 0.858777
v -0.035923 0.138518 0.852703
v -0.045074 0.136910 0.857311
v -0.041154 0.136577 0.853739
v -0.032023 0.149894 0.864549
v -0.035681 0.144398 0.873213
v -0.039432 0.125580 0.879159
v -0.040649 0.137052 0.875256
v -0.044592 0.135204 0.872316
v -0.043945 0.123871 0.877479
v -0.041585 0.142319 0.872964
v -0.034880 0.138591 0.874682
v -0.041839 0.117770 0.865013
v -0.046061 0.119302 0.869570
v -0.037415 0.117417 0.863737
v -0.042095 0.163521 0.850602
v -0.029111 0.122270 0.867819
v -0.033392 0.118833 0.864138
v -0.046388 0.133585 0.867749
v -0.046669 0.121352 0.874170
v -0.034946 0.126281 0.878378
v -0.029623 0.126360 0.873315
v -0.034462 0.120342 0.879581
v -0.030132 0.119808 0.874894
v -0.029809 0.116477 0.869003
v -0.034124 0.114779 0.865418
v -0.038100 0.114658 0.864909
v -0.038812 0.119773 0.880674
v -0.043436 0.118873 0.879276
v -0.046264 0.118485 0.874905
v -0.041528 0.112798 0.881236
v -0.036985 0.111391 0.880787
v -0.039011 0.097075 0.868519
v -0.036146 0.102498 0.868523
v -0.035643 0.102024 0.871093
v -0.038251 0.097055 0.871253
v -0.032365 0.107456 0.870171
v -0.033247 0.106019 0.872118
v -0.033851 0.108188 0.876310
v -0.037183 0.102813 0.875648
v -0.039835 0.104717 0.879308
v -0.041961 0.099251 0.879619
v -0.039258 0.097104 0.876210
v -0.036615 0.108021 0.879124
v -0.040125 0.094045 0.872275
v -0.042109 0.092928 0.870991
v -0.031792 0.110883 0.876454
v -0.034568 0.110963 0.865911
v -0.038401 0.102825 0.866330
v -0.042028 0.097225 0.867115
v -0.045169 0.093297 0.870884
v -0.042647 0.103301 0.865899
v -0.045213 0.097958 0.867407
v -0.047338 0.094998 0.870993
v -0.047089 0.104418 0.867392
v -0.048825 0.099161 0.869341
v -0.043173 0.114197 0.866384
v -0.038963 0.112525 0.864613
v -0.048780 0.096964 0.870870
v -0.043200 0.092255 0.875674
v -0.046455 0.092633 0.874830
v -0.041720 0.093418 0.875883
v -0.041454 0.105617 0.880443
v -0.044163 0.099564 0.879982
v -0.044307 0.106202 0.880720
v -0.046630 0.099434 0.879986
v -0.045076 0.094883 0.879171
v -0.043401 0.094846 0.878765
v -0.042032 0.115875 0.866584
v -0.045607 0.117497 0.870740
v -0.046540 0.116036 0.870674
v -0.049751 0.105942 0.871871
v -0.046987 0.116573 0.875474
v -0.044790 0.114095 0.879697
v -0.046912 0.107067 0.879760
v -0.049499 0.106721 0.876613
v -0.048701 0.100171 0.879832
v -0.050123 0.101841 0.877375
v -0.050734 0.100764 0.872665
v -0.049017 0.095652 0.878390
v -0.046858 0.094845 0.879008
v -0.048119 0.094064 0.874277
v -0.050320 0.097908 0.876880
v -0.049803 0.096709 0.873416
v -0.052271 0.135115 0.868431
v -0.056866 0.135785 0.871984
v -0.057552 0.138884 0.870271
v -0.052942 0.138477 0.866970
v -0.041788 0.140280 0.873891
v -0.043566 0.137264 0.870294
v -0.044030 0.141695 0.868363
v -0.042367 0.146002 0.871451
v -0.043149 0.141133 0.879477
v -0.044088 0.148846 0.876837
v -0.043709 0.150986 0.869007
v -0.045071 0.145647 0.866202
v -0.052972 0.155811 0.858451
v -0.051755 0.160903 0.862493
v -0.047653 0.135760 0.868535
v -0.048271 0.139291 0.866878
v -0.061115 0.143566 0.876505
v -0.060817 0.140903 0.872401
v -0.059641 0.140270 0.875064
v -0.058875 0.142360 0.878871
v -0.061715 0.150287 0.856637
v -0.066354 0.151111 0.860467
v -0.056859 0.151683 0.856780
v -0.057563 0.148163 0.879880
v -0.051880 0.152850 0.879602
v -0.061918 0.160952 0.872545
v -0.066488 0.156921 0.871702
v -0.048774 0.142191 0.864881
v -0.058540 0.139719 0.867663
v -0.053775 0.139818 0.864744
v -0.046693 0.153641 0.874135
v -0.049366 0.147996 0.881789
v -0.050640 0.126523 0.889508
v -0.053557 0.141582 0.884111
v -0.057932 0.139199 0.880713
v -0.054720 0.125634 0.887871
v -0.055102 0.145148 0.882420
v -0.047909 0.142662 0.883728
v -0.052261 0.121612 0.874435
v -0.055962 0.122855 0.878433
v -0.047918 0.122889 0.873630
v -0.055164 0.163593 0.868248
v -0.069240 0.152832 0.867438
v -0.041692 0.124644 0.877734
v -0.044691 0.123508 0.874669
v -0.058781 0.137502 0.876721
v -0.057051 0.124438 0.883948
v -0.045800 0.127773 0.888354
v -0.041619 0.127669 0.883197
v -0.046206 0.121862 0.889435
v -0.042015 0.121693 0.884184
v -0.042135 0.119733 0.878297
v -0.045766 0.119723 0.875004
v -0.049121 0.119763 0.874078
v -0.051576 0.121361 0.890113
v -0.055233 0.121322 0.888329
v -0.056888 0.123209 0.883806
v -0.053333 0.117305 0.890005
v -0.048396 0.114767 0.889155
v -0.052444 0.102485 0.876991
v -0.049413 0.107859 0.877326
v -0.049310 0.107689 0.878532
v -0.051880 0.102119 0.878630
v -0.044981 0.113050 0.879130
v -0.045995 0.111553 0.880075
v -0.045889 0.112529 0.884010
v -0.049418 0.106774 0.883828
v -0.053126 0.109185 0.888137
v -0.055318 0.104154 0.887207
v -0.051983 0.101467 0.883451
v -0.048679 0.112953 0.887730
v -0.053564 0.099244 0.879427
v -0.053821 0.098412 0.877746
v -0.044180 0.114634 0.884600
v -0.047162 0.115191 0.875130
v -0.051012 0.108655 0.874844
v -0.054110 0.103313 0.874450
v -0.056741 0.099916 0.876048
v -0.054538 0.110123 0.874133
v -0.056738 0.105074 0.874404
v -0.058975 0.101972 0.875956
v -0.057585 0.111201 0.875186
v -0.059241 0.106719 0.875715
v -0.053750 0.119265 0.875206
v -0.050438 0.117416 0.874071
v -0.060156 0.103876 0.876742
v -0.055740 0.097492 0.882063
v -0.059622 0.098786 0.880917
v -0.054601 0.098737 0.882468
v -0.054146 0.110319 0.889219
v -0.057437 0.104193 0.888210
v -0.056773 0.111531 0.889151
v -0.059796 0.105472 0.888084
v -0.057740 0.100024 0.886267
v -0.056612 0.100346 0.885955
v -0.052749 0.120570 0.875203
v -0.055987 0.122217 0.879024
v -0.056737 0.121098 0.878861
v -0.060912 0.112400 0.878750
v -0.057742 0.121694 0.883572
v -0.056827 0.117719 0.888150
v -0.059352 0.112351 0.887017
v -0.061353 0.112503 0.883534
v -0.061549 0.106809 0.886286
v -0.062078 0.108310 0.883845
v -0.062074 0.107830 0.878813
v -0.061707 0.103143 0.884132
v -0.060181 0.101133 0.885820
v -0.061310 0.101304 0.879841
v -0.062499 0.104976 0.882540
v -0.062013 0.103691 0.879282
v -0.068947 0.151607 0.864126
v -0.069530 0.136260 0.875489
v -0.072903 0.136025 0.878185
v -0.073004 0.137113 0.878140
v -0.070284 0.137897 0.874667
v -0.061208 0.143281 0.879447
v -0.062732 0.139984 0.876283
v -0.063254 0.143832 0.874892
v -0.062027 0.147010 0.878013
v -0.062898 0.145233 0.884076
v -0.064201 0.148133 0.882992
v -0.064663 0.150040 0.876602
v -0.065730 0.146993 0.873119
v -0.076244 0.159083 0.867585
v -0.077444 0.163371 0.870823
v -0.094167 0.153895 0.876019
v -0.094308 0.151041 0.871469
v -0.087803 0.146957 0.876045
v -0.088392 0.150111 0.879599
v -0.065910 0.137753 0.875070
v -0.066691 0.140475 0.873290
v -0.076653 0.141352 0.885973
v -0.076636 0.138877 0.881667
v -0.075318 0.137528 0.881636
v -0.075832 0.138987 0.886099
v -0.090181 0.149715 0.868334
v -0.085425 0.150863 0.866856
v -0.083112 0.148251 0.868448
v -0.084758 0.146030 0.872351
v -0.078476 0.151775 0.867280
v -0.074498 0.144835 0.887805
v -0.070279 0.149135 0.886871
v -0.085912 0.159873 0.881493
v -0.088180 0.155299 0.881250
v -0.067592 0.142765 0.872589
v -0.074711 0.138668 0.877243
v -0.071343 0.139173 0.874581
v -0.066386 0.151352 0.881979
v -0.068666 0.145984 0.887458
v -0.070275 0.133457 0.891326
v -0.072785 0.140444 0.889342
v -0.075766 0.137732 0.886455
v -0.072934 0.132247 0.889589
v -0.073130 0.141954 0.888360
v -0.067589 0.142926 0.888690
v -0.069157 0.130538 0.877457
v -0.072848 0.130761 0.881581
v -0.065814 0.131349 0.876695
v -0.081159 0.164246 0.876126
v -0.060248 0.134532 0.880979
v -0.062593 0.132171 0.877862
v -0.075000 0.136263 0.881969
v -0.074183 0.131257 0.885997
v -0.065585 0.135051 0.890766
v -0.061128 0.136811 0.886334
v -0.064777 0.130038 0.890641
v -0.060507 0.132162 0.886180
v -0.060809 0.130659 0.880147
v -0.063910 0.130272 0.877527
v -0.067111 0.129968 0.876784
v -0.069753 0.129075 0.891273
v -0.072407 0.128816 0.889831
v -0.073856 0.129400 0.886266
v -0.069386 0.124935 0.890722
v -0.065053 0.123779 0.888756
v -0.067032 0.116484 0.877604
v -0.065705 0.120607 0.877841
v -0.065174 0.120236 0.878916
v -0.066128 0.116138 0.878179
v -0.062942 0.125248 0.879479
v -0.063180 0.123679 0.880445
v -0.062634 0.124630 0.883975
v -0.064164 0.119348 0.883061
v -0.066979 0.118530 0.887636
v -0.067777 0.114427 0.886397
v -0.064908 0.115413 0.882625
v -0.064480 0.122522 0.887414
v -0.066232 0.113275 0.878725
v -0.067058 0.112418 0.877912
v -0.061483 0.126615 0.884529
v -0.065696 0.126974 0.876864
v -0.067753 0.120480 0.876145
v -0.068846 0.115327 0.876286
v -0.069382 0.111737 0.877944
v -0.070126 0.121559 0.876000
v -0.071190 0.115650 0.876093
v -0.071682 0.112321 0.877894
v -0.073183 0.122222 0.877390
v -0.073317 0.116489 0.877406
v -0.072194 0.128302 0.878335
v -0.069065 0.127638 0.876581
v -0.072868 0.113532 0.878475
v -0.067073 0.110683 0.881541
v -0.070105 0.110475 0.881020
v -0.065911 0.111754 0.882206
v -0.068088 0.118704 0.888613
v -0.069247 0.113786 0.887112
v -0.070463 0.119120 0.889264
v -0.071468 0.113853 0.886933
v -0.068819 0.111001 0.884787
v -0.067229 0.112191 0.884697
v -0.070869 0.129331 0.878257
v -0.072985 0.129439 0.881626
v -0.074202 0.128026 0.882297
v -0.075311 0.122150 0.881109
v -0.074316 0.127435 0.886890
v -0.072275 0.126035 0.889920
v -0.073010 0.119803 0.888295
v -0.075138 0.120769 0.885692
v -0.073334 0.114203 0.885743
v -0.075075 0.115638 0.883614
v -0.075238 0.116538 0.880291
v -0.072527 0.111633 0.882914
v -0.071042 0.110808 0.883846
v -0.072051 0.111294 0.880636
v -0.073820 0.112842 0.882010
v -0.073601 0.113082 0.880337
v -0.091949 0.156759 0.878117
v -0.053757 0.120985 0.789504
v -0.053987 0.121877 0.795128
v -0.062121 0.108854 0.800709
v -0.058087 0.114342 0.802492
v -0.063936 0.104953 0.795449
v -0.062534 0.107093 0.784797
v -0.064734 0.105260 0.789640
v -0.055171 0.119118 0.800348
v -0.055487 0.118173 0.784337
v -0.059283 0.112483 0.781805
v -0.047834 0.114670 0.785275
v -0.051942 0.108358 0.782735
v -0.055252 0.102649 0.785042
v -0.058999 0.101206 0.790917
v -0.059891 0.101417 0.795938
v -0.048307 0.117950 0.791761
v -0.049361 0.118525 0.797245
v -0.052570 0.115625 0.802266
v -0.042477 0.114409 0.796259
v -0.036890 0.106021 0.795355
v -0.037070 0.087069 0.799701
v -0.042482 0.090480 0.797227
v -0.040074 0.091816 0.796255
v -0.035324 0.088345 0.798073
v -0.044437 0.094343 0.793584
v -0.042160 0.094976 0.794221
v -0.039877 0.099765 0.793491
v -0.035651 0.096500 0.795437
v -0.036760 0.103240 0.795808
v -0.033726 0.101753 0.798270
v -0.031350 0.093474 0.797350
v -0.031358 0.087708 0.798498
v -0.027904 0.090831 0.799279
v -0.031962 0.086301 0.801370
v -0.039614 0.100318 0.790826
v -0.051525 0.095210 0.794063
v -0.045794 0.090532 0.799079
v -0.039366 0.087283 0.802747
v -0.033226 0.086781 0.804390
v -0.047849 0.092099 0.802812
v -0.041261 0.089957 0.805837
v -0.035550 0.090201 0.807365
v -0.047859 0.095645 0.806304
v -0.041268 0.093434 0.807931
v -0.057016 0.103070 0.801931
v -0.056342 0.097946 0.797819
v -0.036986 0.092632 0.808095
v -0.026797 0.089884 0.801823
v -0.028261 0.090579 0.805204
v -0.033696 0.104891 0.799819
v -0.029286 0.099052 0.799696
v -0.029457 0.100941 0.802194
v -0.035512 0.107708 0.802209
v -0.030411 0.102148 0.804720
v -0.026385 0.096081 0.802723
v -0.027220 0.095433 0.799989
v -0.059613 0.105314 0.800862
v -0.056886 0.111011 0.802961
v -0.054397 0.109038 0.803912
v -0.045791 0.101817 0.808224
v -0.049751 0.113272 0.804079
v -0.045041 0.115171 0.800522
v -0.037805 0.108282 0.805257
v -0.041709 0.106513 0.807667
v -0.033104 0.101944 0.807270
v -0.035796 0.100847 0.808415
v -0.039070 0.097157 0.809159
v -0.030811 0.097157 0.807642
v -0.027753 0.096993 0.805607
v -0.031643 0.092806 0.807753
v -0.033562 0.097612 0.808288
v -0.034784 0.094738 0.808496
v -0.098386 0.152484 0.868463
v -0.093651 0.150392 0.864273
v -0.099212 0.150310 0.861981
v -0.106631 0.148423 0.857146
v -0.116888 0.150597 0.856023
v -0.102163 0.147961 0.851711
v -0.094632 0.149804 0.857134
v -0.086508 0.150507 0.860582
v -0.104523 0.147750 0.841733
f 780 781 779
f 779 781 782
f 783 784 786
f 786 784 785
f 787 782 788
f 788 782 781
f 790 791 789
f 789 791 787
f 792 790 794
f 794 790 793
f 796 797 795
f 795 797 798
f 800 801 799
f 799 801 802
f 804 805 803
f 803 805 806
f 808 809 807
f 807 809 810
f 811 812 814
f 814 812 813
f 815 816 818
f 818 816 817
f 819 820 784
f 784 820 821
f 784 821 785
f 785 821 822
f 823 812 824
f 824 812 811
f 826 827 825
f 825 827 828
f 830 831 829
f 829 831 832
f 834 830 833
f 833 830 829
f 836 837 835
f 835 837 838
f 839 840 782
f 782 840 779
f 842 843 841
f 841 843 844
f 846 847 845
f 845 847 848
f 850 851 849
f 849 851 852
f 854 855 853
f 853 855 856
f 831 857 832
f 832 857 858
f 860 861 859
f 859 861 862
f 863 864 830
f 830 864 831
f 835 838 865
f 865 838 866
f 867 868 821
f 821 868 822
f 821 820 867
f 867 820 869
f 818 817 870
f 870 817 871
f 872 848 842
f 842 848 847
f 791 839 787
f 787 839 782
f 803 806 847
f 847 806 873
f 874 803 846
f 846 803 847
f 876 877 875
f 875 877 878
f 879 880 882
f 882 880 881
f 884 808 883
f 883 808 807
f 829 832 885
f 885 832 886
f 832 858 886
f 886 858 887
f 889 890 888
f 888 890 891
f 893 783 892
f 892 783 894
f 893 819 783
f 783 819 784
f 814 813 889
f 889 813 895
f 813 896 895
f 895 896 897
f 812 898 813
f 813 898 896
f 812 823 898
f 898 823 899
f 903 904 902
f 902 904 905
f 906 907 792
f 792 907 908
f 811 909 824
f 824 909 910
f 911 872 841
f 841 872 842
f 912 913 915
f 915 913 914
f 917 918 916
f 916 918 919
f 855 920 856
f 856 920 921
f 922 923 798
f 798 923 924
f 926 927 925
f 925 927 850
f 929 930 928
f 928 930 931
f 860 879 861
f 861 879 882
f 879 860 933
f 933 860 932
f 934 935 836
f 836 935 837
f 936 846 925
f 925 846 845
f 937 924 793
f 793 924 794
f 846 936 874
f 874 936 938
f 907 844 908
f 908 844 843
f 940 941 939
f 939 941 942
f 944 945 943
f 943 945 946
f 948 949 947
f 947 949 950
f 952 949 951
f 951 949 948
f 954 955 953
f 953 955 956
f 958 959 957
f 957 959 802
f 960 961 799
f 799 961 962
f 859 963 860
f 860 963 932
f 964 965 966
f 966 965 922
f 936 849 938
f 938 849 967
f 968 913 935
f 935 913 837
f 947 950 917
f 917 950 918
f 925 850 936
f 936 850 849
f 970 971 969
f 969 971 972
f 945 944 827
f 827 944 973
f 974 968 828
f 828 968 935
f 975 976 978
f 978 976 977
f 799 802 960
f 960 802 959
f 924 937 798
f 798 937 795
f 960 959 859
f 859 959 963
f 979 963 958
f 958 963 959
f 980 981 861
f 861 981 862
f 983 984 982
f 982 984 863
f 985 800 962
f 962 800 799
f 957 802 986
f 986 802 801
f 986 987 957
f 957 987 983
f 987 988 983
f 983 988 984
f 990 984 989
f 989 984 988
f 957 983 958
f 958 983 982
f 991 954 866
f 866 954 992
f 864 863 990
f 990 863 984
f 971 995 996
f 995 997 996
f 996 997 998
f 997 796 998
f 998 796 795
f 797 999 798
f 798 999 922
f 1000 1001 1003
f 1003 1001 1002
f 953 1004 954
f 954 1004 992
f 1005 865 992
f 992 865 866
f 998 795 1006
f 1006 795 937
f 912 991 838
f 838 991 866
f 916 1007 929
f 929 1007 930
f 971 970 988
f 988 970 989
f 1008 972 996
f 996 972 971
f 1009 1010 1006
f 1006 1010 1008
f 1011 1012 869
f 869 1012 867
f 1013 1014 871
f 871 1014 870
f 1008 1010 1012
f 1012 1010 1015
f 825 1016 826
f 826 1016 1017
f 1018 969 1013
f 1013 969 1014
f 783 786 894
f 894 786 1019
f 1020 1021 967
f 967 1021 938
f 1022 1023 876
f 876 1023 877
f 934 1024 825
f 825 1024 1016
f 854 1025 855
f 855 1025 1026
f 1028 903 1027
f 1027 903 902
f 1030 1031 1029
f 1029 1031 1032
f 889 888 814
f 814 888 1033
f 1034 811 1033
f 1033 811 814
f 1035 1036 932
f 932 1036 933
f 841 947 911
f 911 947 917
f 844 948 841
f 841 948 947
f 951 948 907
f 907 948 844
f 907 906 951
f 951 906 1037
f 906 1038 1037
f 1037 1038 1039
f 991 912 1040
f 1040 912 915
f 1041 1042 964
f 964 1042 965
f 890 1043 891
f 891 1043 1044
f 789 1045 1046
f 1012 1011 1008
f 1008 1011 972
f 931 1047 848
f 848 1047 845
f 953 956 943
f 943 956 919
f 928 931 872
f 872 931 848
f 1049 999 1048
f 1048 999 985
f 1047 931 1050
f 1050 931 930
f 899 823 887
f 887 823 886
f 825 828 934
f 934 828 935
f 835 1051 836
f 836 1051 1052
f 923 1053 1038
f 1038 1053 1039
f 1054 927 921
f 921 927 856
f 926 1047 853
f 853 1047 1050
f 985 1055 1048
f 1048 1055 1056
f 973 974 827
f 827 974 828
f 837 913 838
f 838 913 912
f 861 882 980
f 980 882 1057
f 927 926 856
f 856 926 853
f 1025 1056 1026
f 1026 1056 1055
f 961 960 862
f 862 960 859
f 826 1017 1059
f 1059 1017 1060
f 1005 1001 1061
f 1061 1001 1000
f 1001 1004 1002
f 1002 1004 946
f 1059 1060 1002
f 1002 1060 1003
f 943 946 953
f 953 946 1004
f 1042 1041 916
f 916 1041 1007
f 792 794 906
f 906 794 1038
f 998 1006 996
f 996 1006 1008
f 865 1005 1062
f 1062 1005 1061
f 1038 794 923
f 923 794 924
f 1022 876 1036
f 1036 876 933
f 836 1052 934
f 934 1052 1024
f 885 1063 829
f 829 1063 833
f 1021 1064 938
f 938 1064 874
f 1012 1015 867
f 867 1015 868
f 824 910 885
f 885 910 1063
f 1031 1030 1027
f 1027 1030 1028
f 1064 804 874
f 874 804 803
f 884 883 1065
f 1065 883 1066
f 1050 930 1067
f 1067 930 1007
f 916 929 917
f 917 929 911
f 961 1068 939
f 939 1068 940
f 1069 1070 1055
f 1055 1070 1071
f 929 928 911
f 911 928 872
f 1040 1053 955
f 955 1053 965
f 922 965 923
f 923 965 1053
f 1051 835 1062
f 1062 835 865
f 952 914 968
f 968 914 913
f 889 895 890
f 890 895 816
f 895 897 816
f 816 897 901
f 890 816 1043
f 1043 816 815
f 1065 1066 1032
f 1032 1066 1029
f 1006 937 1009
f 1009 937 793
f 1001 1005 1004
f 1004 1005 992
f 925 845 926
f 926 845 1047
f 1002 946 1059
f 1059 946 945
f 977 941 978
f 978 941 940
f 823 824 886
f 886 824 885
f 1059 945 826
f 826 945 827
f 939 942 1069
f 1069 942 1070
f 816 901 817
f 1071 1072 1055
f 1055 1072 1026
f 1062 1061 1074
f 1074 1061 1073
f 1062 1074 1051
f 1051 1074 1075
f 1052 1051 1076
f 1076 1051 1075
f 1024 1052 1077
f 1077 1052 1076
f 1061 1000 1073
f 1073 1000 1078
f 1000 1003 1078
f 1078 1003 1079
f 1079 1003 1080
f 1080 1003 1060
f 1081 1082 1078
f 1078 1082 1073
f 1084 1085 1083
f 1083 1085 1086
f 1087 1088 1086
f 1086 1088 1083
f 1086 1085 1090
f 1090 1085 1089
f 1091 1092 1090
f 1090 1092 1093
f 1089 1094 1090
f 1090 1094 1091
f 1095 1082 1089
f 1089 1082 1094
f 1093 1087 1090
f 1090 1087 1086
f 1096 1097 1099
f 1099 1097 1098
f 1097 1096 1087
f 1087 1096 1088
f 1089 1085 1095
f 1095 1085 1084
f 1084 1075 1095
f 1095 1075 1074
f 1084 1100 1075
f 1075 1100 1076
f 1083 1101 1084
f 1084 1101 1100
f 1101 1083 1102
f 1102 1083 1088
f 1082 1095 1073
f 1073 1095 1074
f 1096 1103 1088
f 1088 1103 1102
f 1101 1102 1104
f 1104 1102 1105
f 1102 1103 1105
f 1105 1103 1106
f 1104 1105 1107
f 1107 1105 1108
f 1107 1109 1104
f 1104 1109 1110
f 1111 1108 1106
f 1106 1108 1105
f 1101 1104 1100
f 1100 1104 1110
f 1100 1110 1076
f 1076 1110 1077
f 1103 1096 1112
f 1112 1096 1099
f 1091 1094 1113
f 1113 1094 1082
f 1113 1114 1091
f 1091 1114 1092
f 1082 1081 1113
f 1113 1081 1115
f 1114 1113 1116
f 1116 1113 1115
f 1114 1117 1092
f 1092 1117 1118
f 1024 1077 1016
f 1016 1077 1119
f 1017 1120 1060
f 1060 1120 1080
f 1120 1017 1119
f 1119 1017 1016
f 1119 1109 1120
f 1120 1109 1121
f 1109 1107 1121
f 1121 1107 1122
f 1120 1121 1080
f 1080 1121 1123
f 1119 1077 1109
f 1109 1077 1110
f 1124 1079 1123
f 1123 1079 1080
f 1124 1081 1079
f 1079 1081 1078
f 1125 1115 1124
f 1124 1115 1081
f 1125 1124 1126
f 1126 1124 1123
f 1127 1125 1128
f 1128 1125 1126
f 1121 1122 1123
f 1123 1122 1126
f 1122 1129 1126
f 1126 1129 1128
f 1115 1125 1116
f 1116 1125 1127
f 1131 1116 1130
f 1130 1116 1127
f 1130 1133 1132
f 1132 1133 1134
f 1130 1127 1133
f 1133 1127 1128
f 1130 1132 1131
f 1131 1132 1112
f 1131 1112 1117
f 1117 1112 1099
f 1117 1114 1131
f 1131 1114 1116
f 1107 1108 1122
f 1122 1108 1129
f 1134 1129 1111
f 1111 1129 1108
f 1134 1133 1129
f 1129 1133 1128
f 1132 1134 1106
f 1106 1134 1111
f 1106 1103 1132
f 1132 1103 1112
f 1087 1093 1097
f 1097 1093 1098
f 1098 1118 1099
f 1099 1118 1117
f 1098 1093 1118
f 1118 1093 1092
f 915 914 1039
f 1039 914 1037
f 918 944 919
f 919 944 943
f 950 949 973
f 973 949 974
f 949 952 974
f 974 952 968
f 956 955 1042
f 1042 955 965
f 950 973 918
f 918 973 944
f 915 1039 1040
f 1040 1039 1053
f 956 1042 919
f 919 1042 916
f 1040 955 991
f 991 955 954
f 914 952 1037
f 1037 952 951
f 1136 1137 1135
f 1135 1137 1138
f 1140 1141 1139
f 1139 1141 1142
f 1139 1142 1143
f 1143 1142 1144
f 1145 1146 1148
f 1148 1146 1147
f 854 1149 1025
f 1025 1149 1150
f 1151 1152 1140
f 1140 1152 1141
f 1154 1155 1153
f 1153 1155 1156
f 1067 1007 1158
f 1158 1007 1157
f 1159 1157 1041
f 1041 1157 1007
f 1161 1162 1160
f 1160 1162 1163
f 1164 1146 1152
f 1152 1146 1141
f 854 1067 1149
f 1149 1067 1158
f 1155 1154 1137
f 1137 1154 1165
f 1166 1164 1138
f 1138 1164 1152
f 1167 1161 1144
f 1144 1161 1168
f 1170 1171 1169
f 1169 1171 1172
f 1161 1160 1168
f 1168 1160 1173
f 1174 1143 1168
f 1168 1143 1144
f 1167 1144 1145
f 1145 1144 1142
f 1135 1175 1136
f 1136 1175 1176
f 1151 1177 1135
f 1135 1177 1175
f 1167 1145 1178
f 1178 1145 1148
f 1160 1163 1153
f 1153 1163 1150
f 1135 1138 1151
f 1151 1138 1152
f 1139 1179 1140
f 1140 1179 1180
f 1165 1166 1137
f 1137 1166 1138
f 1141 1146 1142
f 1142 1146 1145
f 1136 1176 1181
f 1181 1176 1182
f 1174 1170 1183
f 1183 1170 1169
f 1170 1173 1171
f 1171 1173 1156
f 1171 1181 1172
f 1172 1181 1182
f 1153 1156 1160
f 1160 1156 1173
f 1143 1174 1184
f 1184 1174 1183
f 1140 1180 1151
f 1151 1180 1177
f 1049 1048 1178
f 1178 1048 1162
f 1179 1139 1184
f 1184 1139 1143
f 1159 1147 1164
f 1164 1147 1146
f 1170 1174 1173
f 1173 1174 1168
f 1171 1156 1181
f 1181 1156 1155
f 1181 1155 1136
f 1136 1155 1137
f 1184 1183 1186
f 1186 1183 1185
f 1184 1186 1179
f 1179 1186 1187
f 1179 1187 1180
f 1180 1187 1188
f 1180 1188 1177
f 1177 1188 1189
f 1183 1169 1185
f 1185 1169 1190
f 1169 1172 1190
f 1190 1172 1191
f 1172 1182 1191
f 1191 1182 1192
f 1193 1194 1190
f 1190 1194 1185
f 1196 1197 1195
f 1195 1197 1198
f 1199 1200 1196
f 1196 1200 1197
f 1197 1200 1202
f 1202 1200 1201
f 1203 1204 1202
f 1202 1204 1205
f 1201 1206 1202
f 1202 1206 1203
f 1205 1198 1202
f 1202 1198 1197
f 1198 1207 1195
f 1195 1207 1208
f 1201 1200 1209
f 1209 1200 1199
f 1199 1187 1209
f 1209 1187 1186
f 1199 1210 1187
f 1187 1210 1188
f 1196 1211 1199
f 1199 1211 1210
f 1212 1211 1195
f 1195 1211 1196
f 1209 1194 1201
f 1201 1194 1206
f 1194 1209 1185
f 1185 1209 1186
f 1213 1212 1208
f 1208 1212 1195
f 1211 1212 1214
f 1214 1212 1215
f 1212 1213 1215
f 1215 1213 1216
f 1214 1215 1217
f 1217 1215 1218
f 1217 1219 1214
f 1214 1219 1220
f 1216 1221 1215
f 1215 1221 1218
f 1214 1220 1211
f 1211 1220 1210
f 1210 1220 1188
f 1188 1220 1189
f 1213 1208 1223
f 1223 1208 1222
f 1208 1207 1222
f 1222 1207 1224
f 1203 1206 1225
f 1225 1206 1194
f 1204 1203 1226
f 1226 1203 1225
f 1194 1193 1225
f 1225 1193 1227
f 1225 1227 1226
f 1226 1227 1228
f 1229 1230 1226
f 1226 1230 1204
f 1224 1230 1222
f 1222 1230 1229
f 1177 1189 1175
f 1175 1189 1231
f 1176 1232 1182
f 1182 1232 1192
f 1232 1176 1231
f 1231 1176 1175
f 1231 1219 1232
f 1232 1219 1233
f 1219 1217 1233
f 1233 1217 1234
f 1232 1233 1192
f 1192 1233 1235
f 1219 1231 1220
f 1220 1231 1189
f 1236 1191 1235
f 1235 1191 1192
f 1236 1193 1191
f 1191 1193 1190
f 1236 1237 1193
f 1193 1237 1227
f 1237 1236 1238
f 1238 1236 1235
f 1239 1237 1240
f 1240 1237 1238
f 1233 1234 1235
f 1235 1234 1238
f 1234 1241 1238
f 1238 1241 1240
f 1237 1239 1227
f 1227 1239 1228
f 1243 1228 1242
f 1242 1228 1239
f 1242 1245 1244
f 1244 1245 1246
f 1242 1239 1245
f 1245 1239 1240
f 1242 1244 1243
f 1243 1244 1223
f 1243 1223 1229
f 1229 1223 1222
f 1229 1226 1243
f 1243 1226 1228
f 1217 1218 1234
f 1234 1218 1241
f 1246 1241 1221
f 1221 1241 1218
f 1246 1245 1241
f 1241 1245 1240
f 1244 1246 1216
f 1216 1246 1221
f 1216 1213 1244
f 1244 1213 1223
f 1198 1205 1207
f 1207 1205 1224
f 1224 1205 1230
f 1230 1205 1204
f 1148 1147 966
f 966 1147 964
f 1149 1154 1150
f 1150 1154 1153
f 1158 1157 1165
f 1165 1157 1166
f 1157 1159 1166
f 1166 1159 1164
f 1163 1162 1056
f 1056 1162 1048
f 1158 1165 1149
f 1149 1165 1154
f 1178 1148 1049
f 1049 1148 966
f 1163 1056 1150
f 1150 1056 1025
f 1178 1162 1167
f 1167 1162 1161
f 1147 1159 964
f 964 1159 1041
f 999 1049 922
f 922 1049 966
f 999 797 985
f 985 797 800
f 797 796 800
f 800 796 801
f 796 997 801
f 801 997 986
f 1247 1248 1250
f 1250 1248 1249
f 1252 1253 1251
f 1251 1253 1254
f 1251 1254 1255
f 1255 1254 1256
f 1258 1259 1257
f 1257 1259 1260
f 1261 1262 1252
f 1252 1262 1253
f 1264 1265 1263
f 1263 1265 1266
f 1267 1268 855
f 855 1268 920
f 1269 1267 1026
f 1026 1267 855
f 1271 1272 1270
f 1270 1272 1273
f 1274 1258 1262
f 1262 1258 1253
f 1264 1275 1265
f 1265 1275 1249
f 1276 1274 1250
f 1250 1274 1262
f 1277 1271 1256
f 1256 1271 1278
f 1279 1280 1282
f 1282 1280 1281
f 1271 1270 1278
f 1278 1270 1283
f 1284 1255 1278
f 1278 1255 1256
f 1277 1256 1257
f 1257 1256 1254
f 1247 1285 1248
f 1248 1285 1286
f 1261 1287 1247
f 1247 1287 1285
f 1257 1260 1277
f 1277 1260 1288
f 1270 1273 1263
f 1263 1273 1289
f 1261 1247 1262
f 1262 1247 1250
f 1251 1290 1252
f 1252 1290 1291
f 1275 1276 1249
f 1249 1276 1250
f 1253 1258 1254
f 1254 1258 1257
f 1248 1286 1292
f 1292 1286 1293
f 1284 1280 1294
f 1294 1280 1279
f 1281 1280 1266
f 1266 1280 1283
f 1292 1293 1281
f 1281 1293 1282
f 1263 1266 1270
f 1270 1266 1283
f 1255 1284 1295
f 1295 1284 1294
f 1252 1291 1261
f 1261 1291 1287
f 1288 1070 1272
f 1272 1070 942
f 1290 1251 1295
f 1295 1251 1255
f 1269 1259 1274
f 1274 1259 1258
f 1280 1284 1283
f 1283 1284 1278
f 1281 1266 1292
f 1292 1266 1265
f 1292 1265 1248
f 1248 1265 1249
f 1295 1294 1297
f 1297 1294 1296
f 1295 1297 1290
f 1290 1297 1298
f 1290 1298 1291
f 1291 1298 1299
f 1291 1299 1287
f 1287 1299 1300
f 1294 1279 1296
f 1296 1279 1301
f 1279 1282 1301
f 1301 1282 1302
f 1302 1282 1303
f 1303 1282 1293
f 1304 1305 1301
f 1301 1305 1296
f 1307 1308 1306
f 1306 1308 1309
f 1310 1311 1307
f 1307 1311 1308
f 1308 1311 1313
f 1313 1311 1312
f 1314 1315 1313
f 1313 1315 1316
f 1312 1317 1313
f 1313 1317 1314
f 1316 1309 1313
f 1313 1309 1308
f 1318 1319 1309
f 1309 1319 1306
f 1311 1310 1312
f 1312 1310 1320
f 1310 1298 1320
f 1320 1298 1297
f 1310 1321 1298
f 1298 1321 1299
f 1307 1322 1310
f 1310 1322 1321
f 1322 1307 1323
f 1323 1307 1306
f 1312 1320 1317
f 1317 1320 1305
f 1305 1320 1296
f 1296 1320 1297
f 1319 1324 1306
f 1306 1324 1323
f 1325 1322 1326
f 1326 1322 1323
f 1324 1327 1323
f 1323 1327 1326
f 1328 1325 1329
f 1329 1325 1326
f 1325 1328 1331
f 1331 1328 1330
f 1327 1332 1326
f 1326 1332 1329
f 1322 1325 1321
f 1321 1325 1331
f 1321 1331 1299
f 1299 1331 1300
f 1324 1319 1334
f 1334 1319 1333
f 1319 1318 1333
f 1333 1318 1335
f 1314 1317 1336
f 1336 1317 1305
f 1315 1314 1337
f 1337 1314 1336
f 1305 1304 1336
f 1336 1304 1338
f 1337 1336 1339
f 1339 1336 1338
f 1337 1340 1315
f 1315 1340 1341
f 1335 1341 1333
f 1333 1341 1340
f 1287 1300 1285
f 1285 1300 1342
f 1286 1343 1293
f 1293 1343 1303
f 1343 1286 1342
f 1342 1286 1285
f 1342 1330 1343
f 1343 1330 1344
f 1330 1328 1344
f 1344 1328 1345
f 1343 1344 1303
f 1303 1344 1346
f 1342 1300 1330
f 1330 1300 1331
f 1347 1302 1346
f 1346 1302 1303
f 1347 1304 1302
f 1302 1304 1301
f 1348 1338 1347
f 1347 1338 1304
f 1348 1347 1349
f 1349 1347 1346
f 1350 1348 1351
f 1351 1348 1349
f 1344 1345 1346
f 1346 1345 1349
f 1345 1352 1349
f 1349 1352 1351
f 1348 1350 1338
f 1338 1350 1339
f 1354 1339 1353
f 1353 1339 1350
f 1353 1356 1355
f 1355 1356 1357
f 1353 1350 1356
f 1356 1350 1351
f 1353 1355 1354
f 1354 1355 1334
f 1354 1334 1340
f 1340 1334 1333
f 1340 1337 1354
f 1354 1337 1339
f 1328 1329 1345
f 1345 1329 1352
f 1357 1352 1332
f 1332 1352 1329
f 1357 1356 1352
f 1352 1356 1351
f 1357 1332 1355
f 1355 1332 1327
f 1327 1324 1355
f 1355 1324 1334
f 1309 1316 1318
f 1318 1316 1335
f 1335 1316 1341
f 1341 1316 1315
f 1259 1072 1260
f 1260 1072 1071
f 1358 1264 1289
f 1289 1264 1263
f 1268 1267 1275
f 1275 1267 1276
f 1267 1269 1276
f 1276 1269 1274
f 941 1273 942
f 942 1273 1272
f 1358 1268 1264
f 1264 1268 1275
f 1260 1071 1288
f 1288 1071 1070
f 1273 941 1289
f 1289 941 977
f 1272 1271 1288
f 1288 1271 1277
f 1259 1269 1072
f 1072 1269 1026
f 1360 1361 1359
f 1359 1361 1362
f 1364 1365 1363
f 1363 1365 1366
f 1363 1366 1367
f 1367 1366 1368
f 1370 1371 1369
f 1369 1371 1372
f 1373 1374 1376
f 1376 1374 1375
f 1377 1378 1364
f 1364 1378 1365
f 1379 1380 1382
f 1382 1380 1381
f 1383 1384 1386
f 1386 1384 1385
f 1387 1385 978
f 978 1385 1384
f 1388 1389 1391
f 1391 1389 1390
f 1378 1392 1365
f 1365 1392 1370
f 1374 1383 1375
f 1375 1383 1386
f 1380 1393 1381
f 1381 1393 1361
f 1394 1392 1362
f 1362 1392 1378
f 1389 1396 1395
f 1395 1396 1368
f 1398 1399 1397
f 1397 1399 1400
f 1388 1401 1389
f 1389 1401 1396
f 1402 1367 1396
f 1396 1367 1368
f 1395 1368 1369
f 1369 1368 1366
f 1359 1403 1360
f 1360 1403 1404
f 1377 1405 1359
f 1359 1405 1403
f 1369 1372 1395
f 1395 1372 1406
f 1379 1388 1376
f 1376 1388 1391
f 1359 1362 1377
f 1377 1362 1378
f 1363 1407 1364
f 1364 1407 1408
f 1393 1394 1361
f 1361 1394 1362
f 1365 1370 1366
f 1366 1370 1369
f 1360 1404 1409
f 1409 1404 1410
f 1402 1398 1411
f 1411 1398 1397
f 1399 1398 1382
f 1382 1398 1401
f 1409 1410 1399
f 1399 1410 1400
f 1388 1379 1401
f 1401 1379 1382
f 1367 1402 1412
f 1412 1402 1411
f 1364 1408 1377
f 1377 1408 1405
f 981 980 1406
f 1406 980 1390
f 1407 1363 1412
f 1412 1363 1367
f 1387 1371 1392
f 1392 1371 1370
f 1398 1402 1401
f 1401 1402 1396
f 1409 1399 1381
f 1381 1399 1382
f 1360 1409 1361
f 1361 1409 1381
f 1412 1411 1414
f 1414 1411 1413
f 1412 1414 1407
f 1407 1414 1415
f 1407 1415 1408
f 1408 1415 1416
f 1408 1416 1405
f 1405 1416 1417
f 1411 1397 1413
f 1413 1397 1418
f 1397 1400 1418
f 1418 1400 1419
f 1419 1400 1420
f 1420 1400 1410
f 1422 1413 1421
f 1421 1413 1418
f 1423 1424 1426
f 1426 1424 1425
f 1427 1428 1424
f 1424 1428 1425
f 1425 1428 1430
f 1430 1428 1429
f 1430 1431 1433
f 1433 1431 1432
f 1429 1434 1430
f 1430 1434 1431
f 1433 1426 1430
f 1430 1426 1425
f 1426 1435 1423
f 1423 1435 1436
f 1428 1427 1429
f 1429 1427 1437
f 1427 1415 1437
f 1437 1415 1414
f 1427 1438 1415
f 1415 1438 1416
f 1439 1438 1424
f 1424 1438 1427
f 1440 1439 1423
f 1423 1439 1424
f 1429 1437 1434
f 1434 1437 1422
f 1422 1437 1413
f 1413 1437 1414
f 1441 1440 1436
f 1436 1440 1423
f 1442 1439 1443
f 1443 1439 1440
f 1441 1444 1440
f 1440 1444 1443
f 1445 1442 1446
f 1446 1442 1443
f 1442 1445 1448
f 1448 1445 1447
f 1444 1449 1443
f 1443 1449 1446
f 1439 1442 1438
f 1438 1442 1448
f 1438 1448 1416
f 1416 1448 1417
f 1436 1450 1441
f 1441 1450 1451
f 1436 1435 1450
f 1450 1435 1452
f 1431 1434 1453
f 1453 1434 1422
f 1431 1453 1432
f 1432 1453 1454
f 1453 1422 1455
f 1455 1422 1421
f 1454 1453 1456
f 1456 1453 1455
f 1457 1458 1454
f 1454 1458 1432
f 1452 1458 1450
f 1450 1458 1457
f 1405 1417 1403
f 1403 1417 1459
f 1404 1460 1410
f 1410 1460 1420
f 1459 1460 1403
f 1403 1460 1404
f 1447 1461 1459
f 1459 1461 1460
f 1445 1462 1447
f 1447 1462 1461
f 1460 1461 1420
f 1420 1461 1463
f 1459 1417 1447
f 1447 1417 1448
f 1464 1419 1463
f 1463 1419 1420
f 1419 1464 1418
f 1418 1464 1421
f 1464 1465 1421
f 1421 1465 1455
f 1465 1464 1466
f 1466 1464 1463
f 1467 1465 1468
f 1468 1465 1466
f 1461 1462 1463
f 1463 1462 1466
f 1462 1469 1466
f 1466 1469 1468
f 1465 1467 1455
f 1455 1467 1456
f 1471 1456 1470
f 1470 1456 1467
f 1470 1473 1472
f 1472 1473 1474
f 1470 1467 1473
f 1473 1467 1468
f 1470 1472 1471
f 1471 1472 1451
f 1471 1451 1457
f 1457 1451 1450
f 1457 1454 1471
f 1471 1454 1456
f 1462 1445 1469
f 1469 1445 1446
f 1474 1469 1449
f 1449 1469 1446
f 1474 1473 1469
f 1469 1473 1468
f 1472 1474 1444
f 1444 1474 1449
f 1444 1441 1472
f 1472 1441 1451
f 1426 1433 1435
f 1435 1433 1452
f 1452 1433 1458
f 1458 1433 1432
f 1371 940 1372
f 1372 940 1068
f 1376 1375 1379
f 1379 1375 1380
f 1393 1386 1394
f 1394 1386 1385
f 1385 1387 1394
f 1394 1387 1392
f 1475 1373 1391
f 1391 1373 1376
f 1375 1386 1380
f 1380 1386 1393
f 1372 1068 1406
f 1406 1068 981
f 1406 1390 1395
f 1395 1390 1389
f 1371 1387 940
f 940 1387 978
f 883 807 1476
f 1476 807 1477
f 1046 904 1479
f 1479 904 1478
f 904 903 1478
f 1478 903 1480
f 1030 1481 1028
f 1028 1481 1482
f 810 1046 1483
f 1483 1046 1479
f 1066 883 1484
f 1484 883 1476
f 807 810 1477
f 1477 810 1483
f 1485 1029 1484
f 1484 1029 1066
f 1028 1482 903
f 903 1482 1480
f 1481 1030 1485
f 1485 1030 1029
f 1484 1486 1485
f 1485 1486 1487
f 1485 1487 1481
f 1481 1487 1488
f 1481 1488 1482
f 1482 1488 1489
f 1482 1489 1480
f 1480 1489 1490
f 1484 1476 1486
f 1486 1476 1491
f 1476 1477 1491
f 1491 1477 1492
f 1477 1483 1492
f 1492 1483 1493
f 1495 1486 1494
f 1494 1486 1491
f 1497 1498 1496
f 1496 1498 1499
f 1500 1501 1497
f 1497 1501 1498
f 1502 1503 1501
f 1501 1503 1498
f 1502 1504 1503
f 1503 1504 1505
f 1506 1499 1503
f 1503 1499 1498
f 1499 1506 1507
f 1507 1506 1508
f 1507 1509 1499
f 1499 1509 1496
f 1502 1501 1510
f 1510 1501 1500
f 1500 1488 1510
f 1510 1488 1487
f 1500 1511 1488
f 1488 1511 1489
f 1497 1512 1500
f 1500 1512 1511
f 1512 1497 1513
f 1513 1497 1496
f 1502 1510 1504
f 1504 1510 1495
f 1495 1510 1486
f 1486 1510 1487
f 1509 1514 1496
f 1496 1514 1513
f 1515 1512 1516
f 1516 1512 1513
f 1514 1517 1513
f 1513 1517 1516
f 1518 1515 1519
f 1519 1515 1516
f 1515 1518 1521
f 1521 1518 1520
f 1517 1522 1516
f 1516 1522 1519
f 1512 1515 1511
f 1511 1515 1521
f 1511 1521 1489
f 1489 1521 1490
f 1514 1509 1524
f 1524 1509 1523
f 1509 1507 1523
f 1523 1507 1508
f 1505 1504 1525
f 1525 1504 1495
f 1526 1505 1527
f 1527 1505 1525
f 1525 1495 1528
f 1528 1495 1494
f 1527 1525 1529
f 1529 1525 1528
f 1527 1530 1526
f 1526 1530 1531
f 1508 1531 1523
f 1523 1531 1530
f 1506 1503 1526
f 1526 1503 1505
f 1508 1506 1531
f 1531 1506 1526
f 1478 1480 1532
f 1532 1480 1490
f 1483 1479 1493
f 1493 1479 1533
f 1532 1533 1478
f 1478 1533 1479
f 1520 1534 1532
f 1532 1534 1533
f 1518 1535 1520
f 1520 1535 1534
f 1533 1534 1493
f 1493 1534 1536
f 1532 1490 1520
f 1520 1490 1521
f 1537 1492 1536
f 1536 1492 1493
f 1492 1537 1491
f 1491 1537 1494
f 1537 1538 1494
f 1494 1538 1528
f 1538 1537 1539
f 1539 1537 1536
f 1540 1538 1541
f 1541 1538 1539
f 1534 1535 1536
f 1536 1535 1539
f 1535 1542 1539
f 1539 1542 1541
f 1538 1540 1528
f 1528 1540 1529
f 1544 1529 1543
f 1543 1529 1540
f 1545 1543 1547
f 1547 1543 1546
f 1543 1540 1546
f 1546 1540 1541
f 1543 1545 1544
f 1544 1545 1524
f 1544 1524 1530
f 1530 1524 1523
f 1530 1527 1544
f 1544 1527 1529
f 1535 1518 1542
f 1542 1518 1519
f 1547 1542 1522
f 1522 1542 1519
f 1547 1546 1542
f 1542 1546 1541
f 1545 1547 1517
f 1517 1547 1522
f 1517 1514 1545
f 1545 1514 1524
f 997 995 986
f 986 995 987
f 987 995 988
f 988 995 971
f 976 1358 977
f 977 1358 1289
f 854 853 1067
f 1067 853 1050
f 1055 985 1069
f 1069 985 962
f 1068 961 981
f 981 961 862
f 1268 1358 920
f 920 1358 976
f 920 976 921
f 921 976 975
f 927 1054 850
f 850 1054 851
f 882 881 1057
f 1057 881 1548
f 1548 1374 1057
f 1057 1374 1373
f 1383 1374 1549
f 1549 1374 1548
f 1549 1548 1550
f 1550 1548 881
f 1550 881 1551
f 1551 881 880
f 933 1552 879
f 879 1552 880
f 1551 880 875
f 875 880 1552
f 1553 1551 878
f 878 1551 875
f 1551 1553 1550
f 1550 1553 1554
f 1550 1554 1549
f 1549 1554 1555
f 978 1384 975
f 975 1384 1555
f 967 849 1556
f 1556 849 852
f 875 1552 876
f 876 1552 933
f 961 939 962
f 962 939 1069
f 1555 1054 975
f 975 1054 921
f 1555 1384 1549
f 1549 1384 1383
f 1391 1390 1475
f 1475 1390 980
f 1373 1475 1057
f 1057 1475 980
f 851 1054 1554
f 1554 1054 1555
f 1554 1553 851
f 851 1553 852
f 878 1556 1553
f 1553 1556 852
f 1556 878 967
f 967 878 877
f 1023 1020 877
f 877 1020 967
f 909 811 1034
f 806 779 873
f 873 779 840
f 805 780 806
f 806 780 779
f 1043 893 1044
f 1044 893 892
f 873 840 847
f 847 840 842
f 840 839 842
f 842 839 843
f 839 791 843
f 843 791 908
f 791 790 908
f 908 790 792
f 809 789 810
f 810 789 1046
f 793 790 809
f 809 790 789
f 809 808 793
f 793 808 1009
f 808 884 1009
f 1009 884 1010
f 1065 1015 884
f 884 1015 1010
f 1032 868 1065
f 1065 868 1015
f 1031 822 1032
f 1032 822 868
f 1031 1027 822
f 822 1027 785
f 1045 905 1046
f 1046 905 904
f 788 781 1019
f 1019 781 894
f 781 780 894
f 894 780 892
f 780 805 892
f 892 805 1044
f 805 804 1044
f 1044 804 891
f 804 1064 891
f 891 1064 888
f 1064 1021 888
f 888 1021 1033
f 1021 1020 1033
f 1033 1020 1034
f 1020 1023 1034
f 1034 1023 909
f 1023 1022 909
f 909 1022 910
f 1043 815 893
f 893 815 819
f 819 815 820
f 820 815 818
f 870 869 818
f 818 869 820
f 1014 1011 870
f 870 1011 869
f 969 972 1014
f 1014 972 1011
f 1036 1063 1022
f 1022 1063 910
f 1035 833 1036
f 1036 833 1063
f 1035 932 979
f 979 932 963
f 834 979 982
f 982 979 958
f 833 1035 834
f 834 1035 979
f 982 863 834
f 834 863 830
f 864 900 831
f 831 900 857
f 990 993 864
f 864 993 900
f 989 994 990
f 990 994 993
f 970 1058 989
f 989 1058 994
f 969 1018 970
f 970 1018 1058
f 1027 902 785
f 785 902 786
f 902 905 786
f 786 905 1019
f 905 1045 1019
f 1019 1045 788
f 788 1045 787
f 787 1045 789
