o hand_left
v -0.088940 -0.279216 0.887379
v -0.099638 -0.281756 0.888849
v -0.093691 -0.273238 0.890133
v -0.084651 -0.270900 0.887610
v -0.113718 -0.269455 0.896273
v -0.122378 -0.262331 0.891054
v -0.108448 -0.253412 0.892546
v -0.103351 -0.261180 0.897397
v -0.079891 -0.264737 0.885538
v -0.088212 -0.266589 0.890716
v -0.078224 -0.262588 0.880055
v -0.070791 -0.262814 0.871659
v -0.072257 -0.263622 0.879402
v -0.063472 -0.263478 0.869206
v -0.075694 -0.266828 0.862284
v -0.061476 -0.270025 0.862405
v -0.077225 -0.294953 0.860397
v -0.078467 -0.307403 0.865421
v -0.062027 -0.305024 0.868501
v -0.062249 -0.292184 0.863856
v -0.070625 -0.321091 0.878856
v -0.064961 -0.312331 0.873230
v -0.081027 -0.315287 0.869059
v -0.085195 -0.323038 0.874423
v -0.094527 -0.293577 0.890032
v -0.105326 -0.296294 0.890471
v -0.103735 -0.291428 0.888652
v -0.093409 -0.288602 0.888328
v -0.081992 -0.254013 0.876224
v -0.087618 -0.258504 0.867560
v -0.080959 -0.260822 0.871667
v -0.079913 -0.256196 0.881096
v -0.130887 -0.306610 0.898642
v -0.141730 -0.309771 0.891143
v -0.141887 -0.304680 0.888097
v -0.131820 -0.303117 0.895276
v -0.138289 -0.281053 0.885132
v -0.143860 -0.288754 0.878914
v -0.147870 -0.285184 0.866171
v -0.140685 -0.277837 0.868931
v -0.130773 -0.270928 0.889403
v -0.134441 -0.267511 0.876120
v -0.124858 -0.258217 0.880270
v -0.110173 -0.249054 0.884384
v -0.140813 -0.322029 0.895082
v -0.132940 -0.321306 0.901568
v -0.033712 -0.252481 0.898895
v -0.033797 -0.257365 0.902423
v -0.035195 -0.258565 0.900453
v -0.034658 -0.253518 0.897294
v -0.129555 -0.337673 0.888715
v -0.126420 -0.340765 0.879560
v -0.133607 -0.342083 0.879955
v -0.137040 -0.337589 0.887539
v -0.119664 -0.337595 0.890298
v -0.116610 -0.338185 0.879357
v -0.021546 -0.249556 0.895444
v -0.026482 -0.247955 0.895911
v -0.026392 -0.249829 0.891910
v -0.021786 -0.252402 0.890917
v -0.075696 -0.268106 0.884852
v -0.079432 -0.276122 0.887851
v -0.058712 -0.267205 0.886266
v -0.066273 -0.271604 0.886368
v -0.067298 -0.265993 0.882314
v -0.060661 -0.263191 0.881575
v -0.071777 -0.293367 0.893736
v -0.083340 -0.294996 0.891939
v -0.081378 -0.289140 0.889641
v -0.068934 -0.285475 0.891566
v -0.085883 -0.306480 0.899971
v -0.074156 -0.304109 0.900759
v -0.076878 -0.310905 0.905281
v -0.085002 -0.310954 0.904736
v -0.053903 -0.297820 0.899766
v -0.046260 -0.296965 0.899228
v -0.045084 -0.299866 0.900835
v -0.054435 -0.301058 0.901266
v -0.140527 -0.343451 0.879134
v -0.144044 -0.336910 0.885640
v -0.078431 -0.335912 0.892479
v -0.085285 -0.338325 0.900981
v -0.072735 -0.339148 0.905199
v -0.068868 -0.336335 0.894877
v -0.122939 -0.337689 0.870193
v -0.129888 -0.341374 0.870564
v -0.017690 -0.254202 0.897022
v -0.017999 -0.257166 0.892708
v -0.123578 -0.261631 0.867152
v -0.108780 -0.249461 0.874441
v -0.133205 -0.273184 0.861835
v -0.138772 -0.282346 0.857800
v -0.145225 -0.287777 0.854606
v -0.062291 -0.276223 0.889523
v -0.084262 -0.284096 0.888428
v -0.095471 -0.297955 0.892322
v -0.096774 -0.321646 0.912148
v -0.107384 -0.322322 0.910809
v -0.103362 -0.313017 0.907383
v -0.094749 -0.314660 0.908718
v -0.087580 -0.335177 0.909974
v -0.086739 -0.328019 0.913590
v -0.077221 -0.328153 0.914955
v -0.076620 -0.335385 0.912290
v -0.086162 -0.248357 0.873323
v -0.094360 -0.255972 0.865074
v -0.132668 -0.331062 0.896451
v -0.139650 -0.329561 0.893259
v -0.146922 -0.330477 0.888978
v -0.118613 -0.299981 0.894732
v -0.132590 -0.300528 0.893117
v -0.132319 -0.296094 0.891983
v -0.118124 -0.297733 0.892706
v -0.110719 -0.282642 0.893173
v -0.123914 -0.280511 0.894530
v -0.102285 -0.273949 0.895417
v -0.143857 -0.297983 0.883686
v -0.151332 -0.306114 0.884284
v -0.151969 -0.298954 0.878946
v -0.150529 -0.315226 0.887928
v -0.149058 -0.323821 0.889951
v -0.136727 -0.345772 0.867980
v -0.151205 -0.292983 0.873026
v -0.095829 -0.255616 0.897174
v -0.089661 -0.250263 0.897006
v -0.084477 -0.255779 0.894709
v -0.089729 -0.261583 0.894983
v -0.054709 -0.262913 0.869446
v -0.058218 -0.261002 0.876367
v -0.066768 -0.262197 0.875900
v -0.120626 -0.309584 0.903335
v -0.122931 -0.321811 0.905831
v -0.054437 -0.271692 0.889034
v -0.024166 -0.255021 0.886630
v -0.028985 -0.251774 0.888181
v -0.042877 -0.258077 0.877379
v -0.037526 -0.261892 0.874884
v -0.044044 -0.275146 0.888745
v -0.049911 -0.271193 0.889866
v -0.047364 -0.271196 0.890284
v -0.041927 -0.274886 0.891223
v -0.049709 -0.307047 0.904704
v -0.057737 -0.307914 0.905342
v -0.047922 -0.288742 0.870714
v -0.049937 -0.278254 0.861856
v -0.062256 -0.280848 0.859822
v -0.073844 -0.299695 0.897195
v -0.063394 -0.298919 0.899300
v -0.063978 -0.302545 0.901296
v -0.058299 -0.278750 0.890901
v -0.051017 -0.276518 0.890488
v -0.052973 -0.281069 0.891578
v -0.059970 -0.283664 0.892371
v -0.097711 -0.339078 0.896465
v -0.100468 -0.335685 0.907235
v -0.030966 -0.249049 0.896860
v -0.031353 -0.250272 0.894201
v -0.085151 -0.301164 0.895343
v -0.076820 -0.283711 0.858737
v -0.096576 -0.302522 0.895199
v -0.054464 -0.323715 0.893468
v -0.054271 -0.323119 0.900930
v -0.048468 -0.320611 0.901613
v -0.046575 -0.322028 0.895946
v -0.030676 -0.269750 0.899190
v -0.034637 -0.265907 0.900998
v -0.032624 -0.264022 0.902279
v -0.027598 -0.267345 0.901758
v -0.053136 -0.266551 0.887980
v -0.054755 -0.261868 0.883802
v -0.050077 -0.261064 0.886832
v -0.048884 -0.266308 0.889545
v -0.052071 -0.259610 0.878469
v -0.047661 -0.258004 0.881655
v -0.025197 -0.270500 0.895497
v -0.020768 -0.266359 0.890740
v -0.033137 -0.274240 0.880102
v -0.035363 -0.275845 0.887404
v -0.099132 -0.325394 0.869203
v -0.101954 -0.333229 0.876694
v -0.088120 -0.331163 0.882026
v -0.074465 -0.330190 0.886654
v -0.061837 -0.327816 0.891389
v -0.058329 -0.320692 0.882149
v -0.091645 -0.336305 0.887330
v -0.042360 -0.282590 0.882245
v -0.042053 -0.280148 0.873885
v -0.043143 -0.286042 0.876207
v -0.097533 -0.307649 0.900563
v -0.033700 -0.251501 0.891410
v -0.129577 -0.301769 0.847518
v -0.126769 -0.314822 0.849654
v -0.119308 -0.310620 0.851498
v -0.122614 -0.295666 0.849882
v -0.037338 -0.259607 0.899722
v -0.037443 -0.254211 0.896024
v -0.057274 -0.313728 0.908849
v -0.050347 -0.312411 0.907048
v -0.048659 -0.316012 0.906657
v -0.054406 -0.318435 0.911019
v -0.104931 -0.336658 0.880589
v -0.064470 -0.338397 0.908437
v -0.061635 -0.336377 0.899032
v -0.114022 -0.334692 0.871778
v -0.111526 -0.328284 0.864744
v -0.120521 -0.330814 0.861912
v -0.049250 -0.308331 0.878751
v -0.095399 -0.318736 0.864962
v -0.109045 -0.321954 0.861099
v -0.119681 -0.324687 0.857525
v -0.127084 -0.327542 0.854884
v -0.127297 -0.333893 0.860077
v -0.021046 -0.260592 0.888169
v -0.017061 -0.263373 0.896062
v -0.134488 -0.338511 0.856909
v -0.134191 -0.330785 0.851682
v -0.107298 -0.313771 0.857147
v -0.106096 -0.303052 0.853547
v -0.094210 -0.310908 0.861236
v -0.091721 -0.300209 0.857757
v -0.049630 -0.302371 0.869865
v -0.018952 -0.257502 0.913269
v -0.019920 -0.263996 0.904108
v -0.025675 -0.264821 0.905125
v -0.022618 -0.259730 0.914252
v -0.021943 -0.267430 0.899645
v -0.016901 -0.260316 0.900655
v -0.092347 -0.285778 0.856175
v -0.045910 -0.279962 0.890647
v -0.109483 -0.285530 0.853579
v -0.088510 -0.269226 0.857692
v -0.101831 -0.268103 0.857927
v -0.127133 -0.282925 0.852124
v -0.118123 -0.269191 0.856969
v -0.140242 -0.295066 0.847879
v -0.132952 -0.290410 0.849896
v -0.108236 -0.257285 0.863628
v -0.033411 -0.250926 0.908471
v -0.032495 -0.256284 0.910937
v -0.136569 -0.305578 0.844972
v -0.095081 -0.267002 0.895320
v -0.108436 -0.306283 0.899836
v -0.107202 -0.302577 0.895732
v -0.113635 -0.322259 0.909158
v -0.110985 -0.311417 0.905454
v -0.030956 -0.246515 0.906292
v -0.040812 -0.298965 0.896970
v -0.041837 -0.300591 0.896379
v -0.100584 -0.248667 0.894178
v -0.094763 -0.244982 0.894490
v -0.093145 -0.240251 0.882102
v -0.095336 -0.240799 0.888966
v -0.102347 -0.244225 0.886888
v -0.100622 -0.243889 0.879246
v -0.118643 -0.301808 0.896686
v -0.118659 -0.304755 0.899335
v -0.109430 -0.338524 0.893458
v -0.111515 -0.334680 0.904170
v -0.048414 -0.261238 0.873175
v -0.050729 -0.268420 0.864854
v -0.044224 -0.265922 0.870024
v -0.035219 -0.268750 0.874647
v -0.041715 -0.280393 0.887568
v -0.040983 -0.278140 0.884076
v -0.128581 -0.288984 0.893328
v -0.115804 -0.291706 0.891813
v -0.084672 -0.262646 0.889587
v -0.080439 -0.258179 0.888840
v -0.062980 -0.290841 0.894832
v -0.039723 -0.303016 0.883115
v -0.040106 -0.297907 0.875806
v -0.053874 -0.289185 0.894972
v -0.022593 -0.244829 0.906590
v -0.027549 -0.244666 0.906031
v -0.042076 -0.272852 0.869088
v -0.066271 -0.308991 0.906414
v -0.045210 -0.308248 0.885194
v -0.038774 -0.302749 0.890679
v -0.070263 -0.334770 0.914068
v -0.134738 -0.318017 0.847206
v -0.031106 -0.262599 0.905330
v -0.029293 -0.260073 0.912734
v -0.017099 -0.254396 0.910796
v -0.018040 -0.249217 0.907360
v -0.121619 -0.331996 0.900928
v -0.106031 -0.300017 0.893190
v -0.099128 -0.249219 0.869951
v -0.090024 -0.243730 0.876022
v -0.048126 -0.288457 0.894916
v -0.057695 -0.328919 0.897574
v -0.049864 -0.319583 0.885999
v -0.041993 -0.318485 0.889179
v -0.039035 -0.311466 0.888497
v -0.037672 -0.304848 0.892266
v -0.018206 -0.252128 0.916514
v -0.019178 -0.247027 0.913255
v -0.023884 -0.243069 0.911877
v -0.028345 -0.243192 0.910561
v -0.031613 -0.246061 0.909932
v -0.020235 -0.255485 0.918939
v -0.023677 -0.257587 0.919267
v -0.029057 -0.258939 0.915927
v -0.022810 -0.254602 0.923146
v -0.021613 -0.249434 0.924240
v -0.032120 -0.239977 0.923403
v -0.027390 -0.240868 0.919762
v -0.027282 -0.241159 0.922564
v -0.030676 -0.240516 0.926285
v -0.032965 -0.240247 0.930998
v -0.035107 -0.239403 0.928303
v -0.023656 -0.244249 0.922444
v -0.027743 -0.243725 0.927973
v -0.026587 -0.247544 0.929471
v -0.029512 -0.246362 0.934126
v -0.030465 -0.242846 0.933049
v -0.023610 -0.247479 0.925779
v -0.021953 -0.244501 0.920499
v -0.036188 -0.240451 0.932731
v -0.033899 -0.240438 0.933812
v -0.032385 -0.242844 0.935560
v -0.035185 -0.243443 0.936707
v -0.030542 -0.242179 0.914843
v -0.034375 -0.240626 0.922157
v -0.037308 -0.241563 0.927464
v -0.038084 -0.242428 0.931945
v -0.036973 -0.243865 0.922643
v -0.038439 -0.244308 0.927194
v -0.038971 -0.245527 0.931026
v -0.038101 -0.247909 0.923763
v -0.038782 -0.247483 0.927767
v -0.033801 -0.249627 0.913536
v -0.032686 -0.245692 0.912284
v -0.039465 -0.247521 0.930267
v -0.036597 -0.245141 0.936393
v -0.025823 -0.251137 0.928766
v -0.030418 -0.249460 0.933982
v -0.027015 -0.253274 0.928490
v -0.031194 -0.251713 0.933896
v -0.032634 -0.247580 0.937425
v -0.031493 -0.245618 0.936208
v -0.033151 -0.250986 0.910680
v -0.031923 -0.256458 0.913314
v -0.032385 -0.255395 0.915802
v -0.036970 -0.252450 0.925259
v -0.030011 -0.257860 0.918702
v -0.026192 -0.256697 0.923009
v -0.029742 -0.254697 0.928581
v -0.033063 -0.255096 0.927479
v -0.033035 -0.252962 0.932553
v -0.035085 -0.252831 0.930993
v -0.037959 -0.250832 0.929204
v -0.035675 -0.250668 0.934715
v -0.033921 -0.249240 0.936653
v -0.037830 -0.247532 0.934271
v -0.036450 -0.251360 0.933050
v -0.038053 -0.248964 0.932021
v -0.022818 -0.279593 0.908244
v -0.022926 -0.285179 0.911844
v -0.021952 -0.285594 0.907599
v -0.021656 -0.280907 0.904678
v -0.009298 -0.277878 0.903236
v -0.015220 -0.275772 0.904538
v -0.013695 -0.277834 0.899018
v -0.008348 -0.281785 0.897921
v -0.005779 -0.283827 0.904651
v -0.005950 -0.288024 0.899186
v -0.011795 -0.283554 0.892979
v -0.017130 -0.279130 0.895534
v -0.035044 -0.283287 0.885210
v -0.031079 -0.287898 0.881432
v -0.040559 -0.293476 0.898942
v -0.037839 -0.296459 0.898034
v -0.020149 -0.276853 0.906324
v -0.018732 -0.278118 0.901958
v -0.022360 -0.293958 0.908051
v -0.025013 -0.289210 0.908755
v -0.021885 -0.289944 0.910065
v -0.017673 -0.293651 0.910336
v -0.040489 -0.283144 0.892054
v -0.041432 -0.288363 0.895637
v -0.038045 -0.282191 0.889040
v -0.017250 -0.297444 0.904912
v -0.012372 -0.297160 0.899853
v -0.029361 -0.301113 0.887630
v -0.032019 -0.301355 0.893590
v -0.021222 -0.278104 0.899202
v -0.025117 -0.283636 0.907022
v -0.024457 -0.279586 0.903649
v -0.011026 -0.291062 0.894318
v -0.007640 -0.293736 0.904967
v -0.011631 -0.285062 0.924079
v -0.011643 -0.291964 0.914197
v -0.016788 -0.291628 0.915220
v -0.016525 -0.285768 0.925463
v -0.012327 -0.295096 0.908646
v -0.007621 -0.289550 0.910377
v -0.024207 -0.274888 0.920689
v -0.024180 -0.280516 0.923916
v -0.021709 -0.271452 0.918776
v -0.029179 -0.295367 0.882047
v -0.011570 -0.271847 0.915610
v -0.017966 -0.270274 0.916903
v -0.021475 -0.289719 0.914141
v -0.021324 -0.284266 0.925777
v -0.008498 -0.282642 0.921659
v -0.007601 -0.277410 0.916455
v -0.009075 -0.279074 0.926672
v -0.008664 -0.273870 0.922787
v -0.012820 -0.268683 0.921126
v -0.018758 -0.268431 0.920937
v -0.022160 -0.270483 0.921586
v -0.012040 -0.281774 0.928872
v -0.016727 -0.283149 0.929655
v -0.021503 -0.282424 0.927706
v -0.015715 -0.279334 0.934586
v -0.012833 -0.275645 0.934318
v -0.025093 -0.261696 0.937511
v -0.021480 -0.263372 0.932901
v -0.019757 -0.264126 0.934768
v -0.022925 -0.262643 0.939099
v -0.016364 -0.265067 0.929427
v -0.016288 -0.265714 0.931935
v -0.013799 -0.269556 0.933108
v -0.018049 -0.267824 0.937429
v -0.017496 -0.272461 0.938913
v -0.020310 -0.270498 0.943603
v -0.020750 -0.265788 0.942449
v -0.014336 -0.272532 0.935654
v -0.024540 -0.262408 0.942381
v -0.027115 -0.262271 0.942809
v -0.011464 -0.270037 0.930707
v -0.019673 -0.266385 0.924516
v -0.024385 -0.263773 0.931768
v -0.028174 -0.262868 0.937166
v -0.029412 -0.264305 0.943119
v -0.027776 -0.266368 0.932074
v -0.030243 -0.265392 0.937512
v -0.030564 -0.266707 0.942416
v -0.030062 -0.270466 0.933172
v -0.031589 -0.269295 0.938648
v -0.025223 -0.273699 0.924367
v -0.023426 -0.269303 0.923493
v -0.031229 -0.268717 0.941210
v -0.025401 -0.264917 0.946543
v -0.028276 -0.266701 0.946395
v -0.023816 -0.264837 0.945499
v -0.017846 -0.274550 0.939321
v -0.021708 -0.272201 0.944086
v -0.019726 -0.276731 0.939691
v -0.023622 -0.273617 0.944725
v -0.024093 -0.269465 0.947218
v -0.023049 -0.268218 0.946636
v -0.023854 -0.274335 0.922874
v -0.023668 -0.279456 0.925440
v -0.024840 -0.278987 0.926592
v -0.029141 -0.275278 0.935477
v -0.022266 -0.281984 0.929392
v -0.018753 -0.281280 0.933416
v -0.022054 -0.278296 0.938997
v -0.025957 -0.278019 0.937841
v -0.025127 -0.275217 0.944505
v -0.027209 -0.275828 0.942017
v -0.030699 -0.273124 0.939977
v -0.027367 -0.271915 0.946972
v -0.025569 -0.270440 0.947511
v -0.029493 -0.268291 0.945352
v -0.028650 -0.273300 0.944639
v -0.030594 -0.270482 0.943229
v -0.025836 -0.302856 0.912531
v -0.027361 -0.307607 0.915867
v -0.028144 -0.308466 0.913494
v -0.025805 -0.304295 0.910221
v -0.014331 -0.304929 0.907536
v -0.017866 -0.301652 0.908547
v -0.018659 -0.303807 0.904249
v -0.015983 -0.307754 0.901900
v -0.012432 -0.309552 0.910393
v -0.014666 -0.313491 0.902608
v -0.019368 -0.309200 0.897759
v -0.020896 -0.304577 0.901358
v -0.033672 -0.305223 0.894164
v -0.032372 -0.310962 0.890868
v -0.022256 -0.301263 0.910306
v -0.022617 -0.302863 0.907401
v -0.029476 -0.315671 0.914857
v -0.030531 -0.310916 0.914911
v -0.027583 -0.313357 0.915681
v -0.024609 -0.316953 0.915746
v -0.041164 -0.302399 0.902057
v -0.044178 -0.307356 0.904421
v -0.036784 -0.302399 0.898824
v -0.025756 -0.319853 0.911076
v -0.021853 -0.320829 0.904624
v -0.036787 -0.321907 0.898655
v -0.040261 -0.320138 0.903410
v -0.023749 -0.302608 0.905249
v -0.030304 -0.306023 0.912904
v -0.027524 -0.302484 0.909337
v -0.020183 -0.315522 0.899143
v -0.016173 -0.318338 0.908241
v -0.014211 -0.309163 0.930125
v -0.018112 -0.317385 0.916633
v -0.023540 -0.315767 0.918409
v -0.018583 -0.309417 0.931193
v -0.020018 -0.319150 0.913374
v -0.014059 -0.315302 0.913449
v -0.024280 -0.297317 0.925703
v -0.025078 -0.302394 0.928183
v -0.021000 -0.295687 0.923021
v -0.033499 -0.317976 0.892067
v -0.043917 -0.314875 0.906116
v -0.013421 -0.296662 0.922232
v -0.017647 -0.295259 0.922195
v -0.026494 -0.312655 0.917820
v -0.022863 -0.307293 0.930608
v -0.010913 -0.306985 0.927004
v -0.010299 -0.301963 0.922936
v -0.010964 -0.304477 0.932654
v -0.010445 -0.299131 0.928948
v -0.013663 -0.294144 0.927556
v -0.018301 -0.293454 0.926772
v -0.021641 -0.294361 0.927029
v -0.014797 -0.307088 0.934954
v -0.018789 -0.307515 0.935011
v -0.022578 -0.306325 0.931593
v -0.016504 -0.305587 0.938699
v -0.012989 -0.301249 0.938951
v -0.022940 -0.287861 0.944597
v -0.020363 -0.289595 0.939427
v -0.019608 -0.290274 0.940134
v -0.021580 -0.288508 0.945491
v -0.015666 -0.291866 0.934620
v -0.016038 -0.291971 0.936693
v -0.013765 -0.295276 0.937648
v -0.016841 -0.293538 0.943353
v -0.017576 -0.299522 0.944420
v -0.019866 -0.297195 0.948632
v -0.019070 -0.291622 0.948198
v -0.014068 -0.299322 0.939901
v -0.022480 -0.288361 0.948702
v -0.023607 -0.286783 0.948743
v -0.012081 -0.296272 0.935603
v -0.019556 -0.291146 0.931488
v -0.023009 -0.289027 0.938092
v -0.025753 -0.287207 0.943236
v -0.026972 -0.287795 0.947578
v -0.026294 -0.291012 0.937590
v -0.027961 -0.289401 0.942540
v -0.028938 -0.289851 0.946478
v -0.028197 -0.293767 0.937995
v -0.029310 -0.292391 0.942486
v -0.024823 -0.296661 0.929694
v -0.022740 -0.293235 0.930018
v -0.029518 -0.291957 0.945596
v -0.022826 -0.290287 0.951989
v -0.026705 -0.291968 0.951528
v -0.021711 -0.290742 0.950714
v -0.017829 -0.301387 0.944246
v -0.021052 -0.298922 0.949715
v -0.020002 -0.303255 0.943936
v -0.023094 -0.300658 0.949287
v -0.022250 -0.295545 0.952310
v -0.021519 -0.294935 0.951548
v -0.024004 -0.297363 0.927696
v -0.024616 -0.302251 0.929447
v -0.025319 -0.301519 0.930987
v -0.028967 -0.298320 0.939691
v -0.023468 -0.305539 0.933177
v -0.020368 -0.306022 0.938389
v -0.023266 -0.303375 0.943028
v -0.026710 -0.301879 0.941918
v -0.025555 -0.300932 0.947902
v -0.027257 -0.300144 0.945700
v -0.030013 -0.296393 0.943821
v -0.026768 -0.297486 0.949963
v -0.024570 -0.296947 0.951920
v -0.028758 -0.293297 0.949473
v -0.028297 -0.297676 0.947972
v -0.029697 -0.294481 0.947452
v -0.045114 -0.311384 0.906094
v -0.041207 -0.315814 0.925858
v -0.042413 -0.318712 0.928744
v -0.042614 -0.319812 0.927829
v -0.042330 -0.316991 0.924327
v -0.032341 -0.319322 0.919142
v -0.035331 -0.315855 0.920930
v -0.036534 -0.317830 0.917231
v -0.034084 -0.321656 0.915351
v -0.031135 -0.324589 0.920223
v -0.033083 -0.327188 0.917406
v -0.036744 -0.323147 0.913481
v -0.039041 -0.319136 0.915111
v -0.051539 -0.322934 0.904991
v -0.051456 -0.328140 0.902766
v -0.064362 -0.333371 0.915610
v -0.065935 -0.327985 0.916697
v -0.058195 -0.327793 0.920305
v -0.057447 -0.332508 0.919554
v -0.038516 -0.315013 0.923215
v -0.040016 -0.316080 0.920579
v -0.042691 -0.329675 0.928567
v -0.044451 -0.325037 0.928916
v -0.042519 -0.323377 0.930224
v -0.040430 -0.327609 0.931553
v -0.063489 -0.323174 0.915448
v -0.060431 -0.320209 0.913155
v -0.056940 -0.320069 0.914720
v -0.056978 -0.323311 0.918708
v -0.053351 -0.319181 0.910553
v -0.040221 -0.332374 0.925876
v -0.037115 -0.332933 0.920585
v -0.054651 -0.338152 0.911853
v -0.056797 -0.336377 0.916020
v -0.040815 -0.317299 0.918890
v -0.044750 -0.320812 0.926601
v -0.043064 -0.318082 0.923713
v -0.036197 -0.329027 0.914855
v -0.034074 -0.330479 0.923646
v -0.032682 -0.324581 0.936307
v -0.035706 -0.328825 0.930930
v -0.039636 -0.326542 0.932602
v -0.035936 -0.323861 0.937270
v -0.037301 -0.330195 0.929126
v -0.032164 -0.327874 0.926602
v -0.039932 -0.313137 0.931158
v -0.040570 -0.317542 0.934356
v -0.037651 -0.311685 0.929048
v -0.052246 -0.334361 0.904904
v -0.030656 -0.313893 0.926841
v -0.034377 -0.311540 0.927962
v -0.041757 -0.322273 0.931239
v -0.039095 -0.321340 0.936673
v -0.029206 -0.323048 0.933144
v -0.028244 -0.319194 0.927976
v -0.028544 -0.319642 0.936672
v -0.027809 -0.315760 0.931662
v -0.031694 -0.310800 0.930239
v -0.035701 -0.310360 0.930192
v -0.038734 -0.311213 0.931034
v -0.032298 -0.321909 0.939270
v -0.035395 -0.321987 0.939593
v -0.038672 -0.320510 0.937903
v -0.032320 -0.319108 0.942301
v -0.030007 -0.314950 0.941245
v -0.038349 -0.304581 0.943664
v -0.037157 -0.306108 0.939836
v -0.036120 -0.306407 0.940427
v -0.037292 -0.304370 0.943924
v -0.033977 -0.308160 0.935642
v -0.033630 -0.308153 0.937471
v -0.031042 -0.310794 0.937906
v -0.032830 -0.308338 0.942526
v -0.032395 -0.312592 0.945881
v -0.033769 -0.310143 0.949098
v -0.033711 -0.306510 0.945913
v -0.030454 -0.313113 0.941634
v -0.037037 -0.303397 0.946618
v -0.038156 -0.302804 0.947300
v -0.029663 -0.311673 0.936055
v -0.037690 -0.308634 0.933826
v -0.039802 -0.305882 0.939870
v -0.040569 -0.303978 0.944682
v -0.039989 -0.303665 0.948583
v -0.041757 -0.307549 0.939564
v -0.042560 -0.305189 0.945019
v -0.041873 -0.305070 0.948729
v -0.043385 -0.310429 0.940412
v -0.043484 -0.307637 0.945409
v -0.042050 -0.313631 0.935083
v -0.040531 -0.310508 0.934050
v -0.042477 -0.306686 0.948242
v -0.036028 -0.304529 0.950219
v -0.038753 -0.305593 0.951088
v -0.034741 -0.304945 0.949200
v -0.032647 -0.313888 0.946420
v -0.034497 -0.311046 0.950358
v -0.034178 -0.315738 0.946984
v -0.036380 -0.312066 0.950863
v -0.035513 -0.307857 0.951716
v -0.034327 -0.307583 0.950184
v -0.041010 -0.313603 0.933396
v -0.040709 -0.317003 0.935431
v -0.041319 -0.317233 0.937453
v -0.042878 -0.314051 0.942533
v -0.038645 -0.320171 0.939976
v -0.035162 -0.320551 0.941833
v -0.036788 -0.316691 0.946730
v -0.040023 -0.316459 0.945493
v -0.038571 -0.312347 0.950641
v -0.041222 -0.312443 0.949068
v -0.043299 -0.310666 0.947030
v -0.039578 -0.308714 0.951510
v -0.037836 -0.308222 0.952155
v -0.040532 -0.306709 0.950776
v -0.041147 -0.309321 0.950485
v -0.041964 -0.308158 0.949562
v -0.061585 -0.335823 0.913893
v -0.075910 -0.242861 0.881292
v -0.073292 -0.247147 0.883670
v -0.078325 -0.246583 0.899349
v -0.073615 -0.249408 0.894928
v -0.082704 -0.241372 0.899971
v -0.086493 -0.234763 0.891816
v -0.086131 -0.237793 0.896643
v -0.071856 -0.249436 0.889096
v -0.079985 -0.238309 0.881001
v -0.084816 -0.234657 0.885055
v -0.073656 -0.234109 0.883671
v -0.078931 -0.230399 0.887783
v -0.081433 -0.229874 0.894358
v -0.082140 -0.234219 0.899718
v -0.080464 -0.238091 0.902532
v -0.070600 -0.240197 0.884704
v -0.068689 -0.244548 0.887482
v -0.069280 -0.247696 0.893114
v -0.063610 -0.237685 0.889321
v -0.060307 -0.228730 0.893841
v -0.061046 -0.219002 0.910753
v -0.066305 -0.222422 0.907939
v -0.064509 -0.221477 0.905742
v -0.060168 -0.217915 0.908351
v -0.069186 -0.223788 0.903374
v -0.066835 -0.223361 0.902649
v -0.064544 -0.224852 0.898082
v -0.060477 -0.221791 0.900672
v -0.060180 -0.227002 0.896127
v -0.056515 -0.225954 0.898000
v -0.056312 -0.218732 0.903052
v -0.056678 -0.215715 0.908219
v -0.052760 -0.216403 0.905477
v -0.055962 -0.216913 0.911288
v -0.065641 -0.223875 0.896257
v -0.074827 -0.228355 0.904820
v -0.068138 -0.225337 0.909901
v -0.061388 -0.222225 0.913027
v -0.055409 -0.219758 0.913057
v -0.067674 -0.229819 0.911507
v -0.060891 -0.226859 0.913322
v -0.055241 -0.225055 0.912761
v -0.065301 -0.234341 0.910859
v -0.059218 -0.230452 0.911965
v -0.074548 -0.241292 0.904308
v -0.076753 -0.234903 0.905991
v -0.055662 -0.227829 0.911680
v -0.050617 -0.216864 0.907692
v -0.050041 -0.220207 0.909616
v -0.055255 -0.229009 0.896548
v -0.052379 -0.222795 0.899888
v -0.050921 -0.225741 0.900001
v -0.055193 -0.233223 0.896278
v -0.050251 -0.228561 0.900867
v -0.048736 -0.221287 0.903374
v -0.050992 -0.219537 0.902291
v -0.077244 -0.243610 0.902067
v -0.073156 -0.247308 0.898033
v -0.070659 -0.245215 0.900182
v -0.061631 -0.238507 0.906720
v -0.065998 -0.245578 0.896008
v -0.063465 -0.242082 0.891621
v -0.055564 -0.236647 0.898183
v -0.057838 -0.239024 0.901879
v -0.051266 -0.231400 0.903207
v -0.053146 -0.232773 0.905352
v -0.056140 -0.232483 0.909354
v -0.049860 -0.227361 0.906603
v -0.048301 -0.224388 0.904796
v -0.051243 -0.224988 0.910188
v -0.051777 -0.229460 0.907246
v -0.053195 -0.228328 0.909844
v -0.071882 -0.327631 0.915649
v -0.069926 -0.321395 0.914233
v -0.076700 -0.322261 0.913951
v -0.086448 -0.321905 0.913270
v -0.095524 -0.327689 0.912369
v -0.085491 -0.316014 0.909686
v -0.075500 -0.316596 0.910741
v -0.065713 -0.315628 0.910756
v -0.092688 -0.310861 0.904069
f 2 3 1
f 1 3 4
f 5 6 8
f 8 6 7
f 9 4 10
f 10 4 3
f 12 13 11
f 11 13 9
f 14 12 16
f 16 12 15
f 18 19 17
f 17 19 20
f 22 23 21
f 21 23 24
f 26 27 25
f 25 27 28
f 30 31 29
f 29 31 32
f 33 34 36
f 36 34 35
f 37 38 40
f 40 38 39
f 41 42 6
f 6 42 43
f 6 43 7
f 7 43 44
f 45 34 46
f 46 34 33
f 48 49 47
f 47 49 50
f 52 53 51
f 51 53 54
f 56 52 55
f 55 52 51
f 58 59 57
f 57 59 60
f 61 62 4
f 4 62 1
f 64 65 63
f 63 65 66
f 68 69 67
f 67 69 70
f 72 73 71
f 71 73 74
f 76 77 75
f 75 77 78
f 53 79 54
f 54 79 80
f 82 83 81
f 81 83 84
f 85 86 52
f 52 86 53
f 57 60 87
f 87 60 88
f 89 90 43
f 43 90 44
f 43 42 89
f 89 42 91
f 40 39 92
f 92 39 93
f 94 70 64
f 64 70 69
f 13 61 9
f 9 61 4
f 25 28 69
f 69 28 95
f 96 25 68
f 68 25 69
f 98 99 97
f 97 99 100
f 101 102 104
f 104 102 103
f 106 30 105
f 105 30 29
f 51 54 107
f 107 54 108
f 54 80 108
f 108 80 109
f 111 112 110
f 110 112 113
f 115 5 114
f 114 5 116
f 115 41 5
f 5 41 6
f 36 35 111
f 111 35 117
f 35 118 117
f 117 118 119
f 34 120 35
f 35 120 118
f 34 45 120
f 120 45 121
f 125 126 124
f 124 126 127
f 128 129 14
f 14 129 130
f 33 131 46
f 46 131 132
f 133 94 63
f 63 94 64
f 134 135 137
f 137 135 136
f 139 140 138
f 138 140 141
f 77 142 78
f 78 142 143
f 144 145 20
f 20 145 146
f 148 149 147
f 147 149 72
f 151 152 150
f 150 152 153
f 82 101 83
f 83 101 104
f 101 82 155
f 155 82 154
f 156 157 58
f 58 157 59
f 158 68 147
f 147 68 67
f 159 146 15
f 15 146 16
f 68 158 96
f 96 158 160
f 129 66 130
f 130 66 65
f 162 163 161
f 161 163 164
f 166 167 165
f 165 167 168
f 170 171 169
f 169 171 172
f 174 171 173
f 173 171 170
f 176 177 175
f 175 177 178
f 180 181 179
f 179 181 24
f 182 183 21
f 21 183 184
f 81 185 82
f 82 185 154
f 186 187 188
f 188 187 144
f 158 71 160
f 160 71 189
f 190 135 157
f 157 135 59
f 169 172 139
f 139 172 140
f 147 72 158
f 158 72 71
f 192 193 191
f 191 193 194
f 167 166 49
f 49 166 195
f 196 190 50
f 50 190 157
f 197 198 200
f 200 198 199
f 21 24 182
f 182 24 181
f 146 159 20
f 20 159 17
f 182 181 81
f 81 181 185
f 201 185 180
f 180 185 181
f 202 203 83
f 83 203 84
f 205 206 204
f 204 206 85
f 207 22 184
f 184 22 21
f 179 24 208
f 208 24 23
f 208 209 179
f 179 209 205
f 209 210 205
f 205 210 206
f 212 206 211
f 211 206 210
f 179 205 180
f 180 205 204
f 213 176 88
f 88 176 214
f 86 85 212
f 212 85 206
f 193 217 218
f 217 219 218
f 218 219 220
f 219 18 220
f 220 18 17
f 19 221 20
f 20 221 144
f 222 223 225
f 225 223 224
f 175 226 176
f 176 226 214
f 227 87 214
f 214 87 88
f 220 17 228
f 228 17 159
f 134 213 60
f 60 213 88
f 138 229 151
f 151 229 152
f 193 192 210
f 210 192 211
f 230 194 218
f 218 194 193
f 231 232 228
f 228 232 230
f 233 234 91
f 91 234 89
f 235 236 93
f 93 236 92
f 230 232 234
f 234 232 237
f 47 238 48
f 48 238 239
f 240 191 235
f 235 191 236
f 5 8 116
f 116 8 241
f 242 243 189
f 189 243 160
f 244 245 98
f 98 245 99
f 156 246 47
f 47 246 238
f 76 247 77
f 77 247 248
f 250 125 249
f 249 125 124
f 252 253 251
f 251 253 254
f 111 110 36
f 36 110 255
f 256 33 255
f 255 33 36
f 257 258 154
f 154 258 155
f 63 169 133
f 133 169 139
f 66 170 63
f 63 170 169
f 173 170 129
f 129 170 66
f 129 128 173
f 173 128 259
f 128 260 259
f 259 260 261
f 213 134 262
f 262 134 137
f 263 264 186
f 186 264 187
f 112 265 113
f 113 265 266
f 11 267 268
f 234 233 230
f 230 233 194
f 153 269 70
f 70 269 67
f 175 178 165
f 165 178 141
f 150 153 94
f 94 153 70
f 271 221 270
f 270 221 207
f 269 153 272
f 272 153 152
f 121 45 109
f 109 45 108
f 47 50 156
f 156 50 157
f 57 273 58
f 58 273 274
f 145 275 260
f 260 275 261
f 276 149 143
f 143 149 78
f 148 269 75
f 75 269 272
f 207 277 270
f 270 277 278
f 195 196 49
f 49 196 50
f 59 135 60
f 60 135 134
f 83 104 202
f 202 104 279
f 149 148 78
f 78 148 75
f 247 278 248
f 248 278 277
f 183 182 84
f 84 182 81
f 48 239 281
f 281 239 282
f 227 223 283
f 283 223 222
f 223 226 224
f 224 226 168
f 281 282 224
f 224 282 225
f 165 168 175
f 175 168 226
f 264 263 138
f 138 263 229
f 14 16 128
f 128 16 260
f 220 228 218
f 218 228 230
f 87 227 284
f 284 227 283
f 260 16 145
f 145 16 146
f 244 98 258
f 258 98 155
f 58 274 156
f 156 274 246
f 107 285 51
f 51 285 55
f 243 286 160
f 160 286 96
f 234 237 89
f 89 237 90
f 46 132 107
f 107 132 285
f 253 252 249
f 249 252 250
f 286 26 96
f 96 26 25
f 106 105 287
f 287 105 288
f 272 152 289
f 289 152 229
f 138 151 139
f 139 151 133
f 183 290 161
f 161 290 162
f 291 292 277
f 277 292 293
f 151 150 133
f 133 150 94
f 262 275 177
f 177 275 187
f 144 187 145
f 145 187 275
f 273 57 284
f 284 57 87
f 174 136 190
f 190 136 135
f 111 117 112
f 112 117 38
f 117 119 38
f 38 119 123
f 112 38 265
f 265 38 37
f 287 288 254
f 254 288 251
f 228 159 231
f 231 159 15
f 223 227 226
f 226 227 214
f 147 67 148
f 148 67 269
f 224 168 281
f 281 168 167
f 199 163 200
f 200 163 162
f 45 46 108
f 108 46 107
f 281 167 48
f 48 167 49
f 161 164 291
f 291 164 292
f 38 123 39
f 293 294 277
f 277 294 248
f 284 283 296
f 296 283 295
f 284 296 273
f 273 296 297
f 274 273 298
f 298 273 297
f 246 274 299
f 299 274 298
f 283 222 295
f 295 222 300
f 222 225 300
f 300 225 301
f 301 225 302
f 302 225 282
f 303 304 300
f 300 304 295
f 306 307 305
f 305 307 308
f 309 310 308
f 308 310 305
f 308 307 312
f 312 307 311
f 313 314 312
f 312 314 315
f 311 316 312
f 312 316 313
f 317 304 311
f 311 304 316
f 315 309 312
f 312 309 308
f 318 319 321
f 321 319 320
f 319 318 309
f 309 318 310
f 311 307 317
f 317 307 306
f 306 297 317
f 317 297 296
f 306 322 297
f 297 322 298
f 305 323 306
f 306 323 322
f 323 305 324
f 324 305 310
f 304 317 295
f 295 317 296
f 318 325 310
f 310 325 324
f 323 324 326
f 326 324 327
f 324 325 327
f 327 325 328
f 326 327 329
f 329 327 330
f 329 331 326
f 326 331 332
f 333 330 328
f 328 330 327
f 323 326 322
f 322 326 332
f 322 332 298
f 298 332 299
f 325 318 334
f 334 318 321
f 313 316 335
f 335 316 304
f 335 336 313
f 313 336 314
f 304 303 335
f 335 303 337
f 336 335 338
f 338 335 337
f 336 339 314
f 314 339 340
f 246 299 238
f 238 299 341
f 239 342 282
f 282 342 302
f 342 239 341
f 341 239 238
f 341 331 342
f 342 331 343
f 331 329 343
f 343 329 344
f 342 343 302
f 302 343 345
f 341 299 331
f 331 299 332
f 346 301 345
f 345 301 302
f 346 303 301
f 301 303 300
f 347 337 346
f 346 337 303
f 347 346 348
f 348 346 345
f 349 347 350
f 350 347 348
f 343 344 345
f 345 344 348
f 344 351 348
f 348 351 350
f 337 347 338
f 338 347 349
f 353 338 352
f 352 338 349
f 352 355 354
f 354 355 356
f 352 349 355
f 355 349 350
f 352 354 353
f 353 354 334
f 353 334 339
f 339 334 321
f 339 336 353
f 353 336 338
f 329 330 344
f 344 330 351
f 356 351 333
f 333 351 330
f 356 355 351
f 351 355 350
f 354 356 328
f 328 356 333
f 328 325 354
f 354 325 334
f 309 315 319
f 319 315 320
f 320 340 321
f 321 340 339
f 320 315 340
f 340 315 314
f 137 136 261
f 261 136 259
f 140 166 141
f 141 166 165
f 172 171 195
f 195 171 196
f 171 174 196
f 196 174 190
f 178 177 264
f 264 177 187
f 172 195 140
f 140 195 166
f 137 261 262
f 262 261 275
f 178 264 141
f 141 264 138
f 262 177 213
f 213 177 176
f 136 174 259
f 259 174 173
f 358 359 357
f 357 359 360
f 362 363 361
f 361 363 364
f 361 364 365
f 365 364 366
f 367 368 370
f 370 368 369
f 76 371 247
f 247 371 372
f 373 374 362
f 362 374 363
f 376 377 375
f 375 377 378
f 289 229 380
f 380 229 379
f 381 379 263
f 263 379 229
f 383 384 382
f 382 384 385
f 386 368 374
f 374 368 363
f 76 289 371
f 371 289 380
f 377 376 359
f 359 376 387
f 388 386 360
f 360 386 374
f 389 383 366
f 366 383 390
f 392 393 391
f 391 393 394
f 383 382 390
f 390 382 395
f 396 365 390
f 390 365 366
f 389 366 367
f 367 366 364
f 357 397 358
f 358 397 398
f 373 399 357
f 357 399 397
f 389 367 400
f 400 367 370
f 382 385 375
f 375 385 372
f 357 360 373
f 373 360 374
f 361 401 362
f 362 401 402
f 387 388 359
f 359 388 360
f 363 368 364
f 364 368 367
f 358 398 403
f 403 398 404
f 396 392 405
f 405 392 391
f 392 395 393
f 393 395 378
f 393 403 394
f 394 403 404
f 375 378 382
f 382 378 395
f 365 396 406
f 406 396 405
f 362 402 373
f 373 402 399
f 271 270 400
f 400 270 384
f 401 361 406
f 406 361 365
f 381 369 386
f 386 369 368
f 392 396 395
f 395 396 390
f 393 378 403
f 403 378 377
f 403 377 358
f 358 377 359
f 406 405 408
f 408 405 407
f 406 408 401
f 401 408 409
f 401 409 402
f 402 409 410
f 402 410 399
f 399 410 411
f 405 391 407
f 407 391 412
f 391 394 412
f 412 394 413
f 394 404 413
f 413 404 414
f 415 416 412
f 412 416 407
f 418 419 417
f 417 419 420
f 421 422 418
f 418 422 419
f 419 422 424
f 424 422 423
f 425 426 424
f 424 426 427
f 423 428 424
f 424 428 425
f 427 420 424
f 424 420 419
f 420 429 417
f 417 429 430
f 423 422 431
f 431 422 421
f 421 409 431
f 431 409 408
f 421 432 409
f 409 432 410
f 418 433 421
f 421 433 432
f 434 433 417
f 417 433 418
f 431 416 423
f 423 416 428
f 416 431 407
f 407 431 408
f 435 434 430
f 430 434 417
f 433 434 436
f 436 434 437
f 434 435 437
f 437 435 438
f 436 437 439
f 439 437 440
f 439 441 436
f 436 441 442
f 438 443 437
f 437 443 440
f 436 442 433
f 433 442 432
f 432 442 410
f 410 442 411
f 435 430 445
f 445 430 444
f 430 429 444
f 444 429 446
f 425 428 447
f 447 428 416
f 426 425 448
f 448 425 447
f 416 415 447
f 447 415 449
f 447 449 448
f 448 449 450
f 451 452 448
f 448 452 426
f 446 452 444
f 444 452 451
f 399 411 397
f 397 411 453
f 398 454 404
f 404 454 414
f 454 398 453
f 453 398 397
f 453 441 454
f 454 441 455
f 441 439 455
f 455 439 456
f 454 455 414
f 414 455 457
f 441 453 442
f 442 453 411
f 458 413 457
f 457 413 414
f 458 415 413
f 413 415 412
f 458 459 415
f 415 459 449
f 459 458 460
f 460 458 457
f 461 459 462
f 462 459 460
f 455 456 457
f 457 456 460
f 456 463 460
f 460 463 462
f 459 461 449
f 449 461 450
f 465 450 464
f 464 450 461
f 464 467 466
f 466 467 468
f 464 461 467
f 467 461 462
f 464 466 465
f 465 466 445
f 465 445 451
f 451 445 444
f 451 448 465
f 465 448 450
f 439 440 456
f 456 440 463
f 468 463 443
f 443 463 440
f 468 467 463
f 463 467 462
f 466 468 438
f 438 468 443
f 438 435 466
f 466 435 445
f 420 427 429
f 429 427 446
f 446 427 452
f 452 427 426
f 370 369 188
f 188 369 186
f 371 376 372
f 372 376 375
f 380 379 387
f 387 379 388
f 379 381 388
f 388 381 386
f 385 384 278
f 278 384 270
f 380 387 371
f 371 387 376
f 400 370 271
f 271 370 188
f 385 278 372
f 372 278 247
f 400 384 389
f 389 384 383
f 369 381 186
f 186 381 263
f 221 271 144
f 144 271 188
f 221 19 207
f 207 19 22
f 19 18 22
f 22 18 23
f 18 219 23
f 23 219 208
f 469 470 472
f 472 470 471
f 474 475 473
f 473 475 476
f 473 476 477
f 477 476 478
f 480 481 479
f 479 481 482
f 483 484 474
f 474 484 475
f 486 487 485
f 485 487 488
f 489 490 77
f 77 490 142
f 491 489 248
f 248 489 77
f 493 494 492
f 492 494 495
f 496 480 484
f 484 480 475
f 486 497 487
f 487 497 471
f 498 496 472
f 472 496 484
f 499 493 478
f 478 493 500
f 501 502 504
f 504 502 503
f 493 492 500
f 500 492 505
f 506 477 500
f 500 477 478
f 499 478 479
f 479 478 476
f 469 507 470
f 470 507 508
f 483 509 469
f 469 509 507
f 479 482 499
f 499 482 510
f 492 495 485
f 485 495 511
f 483 469 484
f 484 469 472
f 473 512 474
f 474 512 513
f 497 498 471
f 471 498 472
f 475 480 476
f 476 480 479
f 470 508 514
f 514 508 515
f 506 502 516
f 516 502 501
f 503 502 488
f 488 502 505
f 514 515 503
f 503 515 504
f 485 488 492
f 492 488 505
f 477 506 517
f 517 506 516
f 474 513 483
f 483 513 509
f 510 292 494
f 494 292 164
f 512 473 517
f 517 473 477
f 491 481 496
f 496 481 480
f 502 506 505
f 505 506 500
f 503 488 514
f 514 488 487
f 514 487 470
f 470 487 471
f 517 516 519
f 519 516 518
f 517 519 512
f 512 519 520
f 512 520 513
f 513 520 521
f 513 521 509
f 509 521 522
f 516 501 518
f 518 501 523
f 501 504 523
f 523 504 524
f 524 504 525
f 525 504 515
f 526 527 523
f 523 527 518
f 529 530 528
f 528 530 531
f 532 533 529
f 529 533 530
f 530 533 535
f 535 533 534
f 536 537 535
f 535 537 538
f 534 539 535
f 535 539 536
f 538 531 535
f 535 531 530
f 540 541 531
f 531 541 528
f 533 532 534
f 534 532 542
f 532 520 542
f 542 520 519
f 532 543 520
f 520 543 521
f 529 544 532
f 532 544 543
f 544 529 545
f 545 529 528
f 534 542 539
f 539 542 527
f 527 542 518
f 518 542 519
f 541 546 528
f 528 546 545
f 547 544 548
f 548 544 545
f 546 549 545
f 545 549 548
f 550 547 551
f 551 547 548
f 547 550 553
f 553 550 552
f 549 554 548
f 548 554 551
f 544 547 543
f 543 547 553
f 543 553 521
f 521 553 522
f 546 541 556
f 556 541 555
f 541 540 555
f 555 540 557
f 536 539 558
f 558 539 527
f 537 536 559
f 559 536 558
f 527 526 558
f 558 526 560
f 559 558 561
f 561 558 560
f 559 562 537
f 537 562 563
f 557 563 555
f 555 563 562
f 509 522 507
f 507 522 564
f 508 565 515
f 515 565 525
f 565 508 564
f 564 508 507
f 564 552 565
f 565 552 566
f 552 550 566
f 566 550 567
f 565 566 525
f 525 566 568
f 564 522 552
f 552 522 553
f 569 524 568
f 568 524 525
f 569 526 524
f 524 526 523
f 570 560 569
f 569 560 526
f 570 569 571
f 571 569 568
f 572 570 573
f 573 570 571
f 566 567 568
f 568 567 571
f 567 574 571
f 571 574 573
f 570 572 560
f 560 572 561
f 576 561 575
f 575 561 572
f 575 578 577
f 577 578 579
f 575 572 578
f 578 572 573
f 575 577 576
f 576 577 556
f 576 556 562
f 562 556 555
f 562 559 576
f 576 559 561
f 550 551 567
f 567 551 574
f 579 574 554
f 554 574 551
f 579 578 574
f 574 578 573
f 579 554 577
f 577 554 549
f 549 546 577
f 577 546 556
f 531 538 540
f 540 538 557
f 557 538 563
f 563 538 537
f 481 294 482
f 482 294 293
f 580 486 511
f 511 486 485
f 490 489 497
f 497 489 498
f 489 491 498
f 498 491 496
f 163 495 164
f 164 495 494
f 580 490 486
f 486 490 497
f 482 293 510
f 510 293 292
f 495 163 511
f 511 163 199
f 494 493 510
f 510 493 499
f 481 491 294
f 294 491 248
f 582 583 581
f 581 583 584
f 586 587 585
f 585 587 588
f 585 588 589
f 589 588 590
f 592 593 591
f 591 593 594
f 595 596 598
f 598 596 597
f 599 600 586
f 586 600 587
f 601 602 604
f 604 602 603
f 605 606 608
f 608 606 607
f 609 607 200
f 200 607 606
f 610 611 613
f 613 611 612
f 600 614 587
f 587 614 592
f 596 605 597
f 597 605 608
f 602 615 603
f 603 615 583
f 616 614 584
f 584 614 600
f 611 618 617
f 617 618 590
f 620 621 619
f 619 621 622
f 610 623 611
f 611 623 618
f 624 589 618
f 618 589 590
f 617 590 591
f 591 590 588
f 581 625 582
f 582 625 626
f 599 627 581
f 581 627 625
f 591 594 617
f 617 594 628
f 601 610 598
f 598 610 613
f 581 584 599
f 599 584 600
f 585 629 586
f 586 629 630
f 615 616 583
f 583 616 584
f 587 592 588
f 588 592 591
f 582 626 631
f 631 626 632
f 624 620 633
f 633 620 619
f 621 620 604
f 604 620 623
f 631 632 621
f 621 632 622
f 610 601 623
f 623 601 604
f 589 624 634
f 634 624 633
f 586 630 599
f 599 630 627
f 203 202 628
f 628 202 612
f 629 585 634
f 634 585 589
f 609 593 614
f 614 593 592
f 620 624 623
f 623 624 618
f 631 621 603
f 603 621 604
f 582 631 583
f 583 631 603
f 634 633 636
f 636 633 635
f 634 636 629
f 629 636 637
f 629 637 630
f 630 637 638
f 630 638 627
f 627 638 639
f 633 619 635
f 635 619 640
f 619 622 640
f 640 622 641
f 641 622 642
f 642 622 632
f 644 635 643
f 643 635 640
f 645 646 648
f 648 646 647
f 649 650 646
f 646 650 647
f 647 650 652
f 652 650 651
f 652 653 655
f 655 653 654
f 651 656 652
f 652 656 653
f 655 648 652
f 652 648 647
f 648 657 645
f 645 657 658
f 650 649 651
f 651 649 659
f 649 637 659
f 659 637 636
f 649 660 637
f 637 660 638
f 661 660 646
f 646 660 649
f 662 661 645
f 645 661 646
f 651 659 656
f 656 659 644
f 644 659 635
f 635 659 636
f 663 662 658
f 658 662 645
f 664 661 665
f 665 661 662
f 663 666 662
f 662 666 665
f 667 664 668
f 668 664 665
f 664 667 670
f 670 667 669
f 666 671 665
f 665 671 668
f 661 664 660
f 660 664 670
f 660 670 638
f 638 670 639
f 658 672 663
f 663 672 673
f 658 657 672
f 672 657 674
f 653 656 675
f 675 656 644
f 653 675 654
f 654 675 676
f 675 644 677
f 677 644 643
f 676 675 678
f 678 675 677
f 679 680 676
f 676 680 654
f 674 680 672
f 672 680 679
f 627 639 625
f 625 639 681
f 626 682 632
f 632 682 642
f 681 682 625
f 625 682 626
f 669 683 681
f 681 683 682
f 667 684 669
f 669 684 683
f 682 683 642
f 642 683 685
f 681 639 669
f 669 639 670
f 686 641 685
f 685 641 642
f 641 686 640
f 640 686 643
f 686 687 643
f 643 687 677
f 687 686 688
f 688 686 685
f 689 687 690
f 690 687 688
f 683 684 685
f 685 684 688
f 684 691 688
f 688 691 690
f 687 689 677
f 677 689 678
f 693 678 692
f 692 678 689
f 692 695 694
f 694 695 696
f 692 689 695
f 695 689 690
f 692 694 693
f 693 694 673
f 693 673 679
f 679 673 672
f 679 676 693
f 693 676 678
f 684 667 691
f 691 667 668
f 696 691 671
f 671 691 668
f 696 695 691
f 691 695 690
f 694 696 666
f 666 696 671
f 666 663 694
f 694 663 673
f 648 655 657
f 657 655 674
f 674 655 680
f 680 655 654
f 593 162 594
f 594 162 290
f 598 597 601
f 601 597 602
f 615 608 616
f 616 608 607
f 607 609 616
f 616 609 614
f 697 595 613
f 613 595 598
f 597 608 602
f 602 608 615
f 594 290 628
f 628 290 203
f 628 612 617
f 617 612 611
f 593 609 162
f 162 609 200
f 105 29 698
f 698 29 699
f 268 126 701
f 701 126 700
f 126 125 700
f 700 125 702
f 252 703 250
f 250 703 704
f 32 268 705
f 705 268 701
f 288 105 706
f 706 105 698
f 29 32 699
f 699 32 705
f 707 251 706
f 706 251 288
f 250 704 125
f 125 704 702
f 703 252 707
f 707 252 251
f 706 708 707
f 707 708 709
f 707 709 703
f 703 709 710
f 703 710 704
f 704 710 711
f 704 711 702
f 702 711 712
f 706 698 708
f 708 698 713
f 698 699 713
f 713 699 714
f 699 705 714
f 714 705 715
f 717 708 716
f 716 708 713
f 719 720 718
f 718 720 721
f 722 723 719
f 719 723 720
f 724 725 723
f 723 725 720
f 724 726 725
f 725 726 727
f 728 721 725
f 725 721 720
f 721 728 729
f 729 728 730
f 729 731 721
f 721 731 718
f 724 723 732
f 732 723 722
f 722 710 732
f 732 710 709
f 722 733 710
f 710 733 711
f 719 734 722
f 722 734 733
f 734 719 735
f 735 719 718
f 724 732 726
f 726 732 717
f 717 732 708
f 708 732 709
f 731 736 718
f 718 736 735
f 737 734 738
f 738 734 735
f 736 739 735
f 735 739 738
f 740 737 741
f 741 737 738
f 737 740 743
f 743 740 742
f 739 744 738
f 738 744 741
f 734 737 733
f 733 737 743
f 733 743 711
f 711 743 712
f 736 731 746
f 746 731 745
f 731 729 745
f 745 729 730
f 727 726 747
f 747 726 717
f 748 727 749
f 749 727 747
f 747 717 750
f 750 717 716
f 749 747 751
f 751 747 750
f 749 752 748
f 748 752 753
f 730 753 745
f 745 753 752
f 728 725 748
f 748 725 727
f 730 728 753
f 753 728 748
f 700 702 754
f 754 702 712
f 705 701 715
f 715 701 755
f 754 755 700
f 700 755 701
f 742 756 754
f 754 756 755
f 740 757 742
f 742 757 756
f 755 756 715
f 715 756 758
f 754 712 742
f 742 712 743
f 759 714 758
f 758 714 715
f 714 759 713
f 713 759 716
f 759 760 716
f 716 760 750
f 760 759 761
f 761 759 758
f 762 760 763
f 763 760 761
f 756 757 758
f 758 757 761
f 757 764 761
f 761 764 763
f 760 762 750
f 750 762 751
f 766 751 765
f 765 751 762
f 767 765 769
f 769 765 768
f 765 762 768
f 768 762 763
f 765 767 766
f 766 767 746
f 766 746 752
f 752 746 745
f 752 749 766
f 766 749 751
f 757 740 764
f 764 740 741
f 769 764 744
f 744 764 741
f 769 768 764
f 764 768 763
f 767 769 739
f 739 769 744
f 739 736 767
f 767 736 746
f 219 217 208
f 208 217 209
f 209 217 210
f 210 217 193
f 198 580 199
f 199 580 511
f 76 75 289
f 289 75 272
f 277 207 291
f 291 207 184
f 290 183 203
f 203 183 84
f 490 580 142
f 142 580 198
f 142 198 143
f 143 198 197
f 149 276 72
f 72 276 73
f 104 103 279
f 279 103 770
f 770 596 279
f 279 596 595
f 605 596 771
f 771 596 770
f 771 770 772
f 772 770 103
f 772 103 773
f 773 103 102
f 155 774 101
f 101 774 102
f 773 102 97
f 97 102 774
f 775 773 100
f 100 773 97
f 773 775 772
f 772 775 776
f 772 776 771
f 771 776 777
f 200 606 197
f 197 606 777
f 189 71 778
f 778 71 74
f 97 774 98
f 98 774 155
f 183 161 184
f 184 161 291
f 777 276 197
f 197 276 143
f 777 606 771
f 771 606 605
f 613 612 697
f 697 612 202
f 595 697 279
f 279 697 202
f 73 276 776
f 776 276 777
f 776 775 73
f 73 775 74
f 100 778 775
f 775 778 74
f 778 100 189
f 189 100 99
f 245 242 99
f 99 242 189
f 131 33 256
f 28 1 95
f 95 1 62
f 27 2 28
f 28 2 1
f 265 115 266
f 266 115 114
f 95 62 69
f 69 62 64
f 62 61 64
f 64 61 65
f 61 13 65
f 65 13 130
f 13 12 130
f 130 12 14
f 31 11 32
f 32 11 268
f 15 12 31
f 31 12 11
f 31 30 15
f 15 30 231
f 30 106 231
f 231 106 232
f 287 237 106
f 106 237 232
f 254 90 287
f 287 90 237
f 253 44 254
f 254 44 90
f 253 249 44
f 44 249 7
f 267 127 268
f 268 127 126
f 10 3 241
f 241 3 116
f 3 2 116
f 116 2 114
f 2 27 114
f 114 27 266
f 27 26 266
f 266 26 113
f 26 286 113
f 113 286 110
f 286 243 110
f 110 243 255
f 243 242 255
f 255 242 256
f 242 245 256
f 256 245 131
f 245 244 131
f 131 244 132
f 265 37 115
f 115 37 41
f 41 37 42
f 42 37 40
f 92 91 40
f 40 91 42
f 236 233 92
f 92 233 91
f 191 194 236
f 236 194 233
f 258 285 244
f 244 285 132
f 257 55 258
f 258 55 285
f 257 154 201
f 201 154 185
f 56 201 204
f 204 201 180
f 55 257 56
f 56 257 201
f 204 85 56
f 56 85 52
f 86 122 53
f 53 122 79
f 212 215 86
f 86 215 122
f 211 216 212
f 212 216 215
f 192 280 211
f 211 280 216
f 191 240 192
f 192 240 280
f 249 124 7
f 7 124 8
f 124 127 8
f 8 127 241
f 127 267 241
f 241 267 10
f 10 267 9
f 9 267 11
o hand_right
v -0.059733 0.103048 0.865947
v -0.070457 0.103899 0.866859
v -0.066121 0.093905 0.868272
v -0.055625 0.093856 0.866041
v -0.089018 0.091839 0.869468
v -0.096906 0.086535 0.861549
v -0.085985 0.075351 0.864652
v -0.081546 0.081557 0.871691
v -0.051714 0.086842 0.864330
v -0.062321 0.086365 0.869015
v -0.050902 0.084089 0.859681
v -0.040316 0.088394 0.851183
v -0.042175 0.088872 0.858291
v -0.032108 0.091182 0.849030
v -0.044325 0.093576 0.841811
v -0.030452 0.099024 0.843364
v -0.047086 0.124090 0.841846
v -0.049804 0.135924 0.847980
v -0.033338 0.134407 0.852308
v -0.032613 0.121954 0.846405
v -0.043320 0.148946 0.863549
v -0.036902 0.141001 0.857517
v -0.053213 0.143141 0.852231
v -0.058334 0.149933 0.858013
v -0.066836 0.117796 0.869152
v -0.077287 0.119563 0.868881
v -0.074589 0.114571 0.866934
v -0.064917 0.112825 0.867171
v -0.056386 0.074188 0.855411
v -0.058321 0.081969 0.845263
v -0.052348 0.083420 0.850848
v -0.055481 0.075611 0.860846
v -0.104875 0.127153 0.875358
v -0.115216 0.130423 0.867212
v -0.114612 0.125828 0.863533
v -0.104999 0.124179 0.871453
v -0.109054 0.104953 0.856851
v -0.114275 0.111958 0.851722
v -0.117032 0.109548 0.838402
v -0.109867 0.103099 0.840514
v -0.103076 0.095461 0.860045
v -0.104806 0.093287 0.846338
v -0.097608 0.083940 0.850003
v -0.086201 0.072145 0.855733
v -0.115671 0.142117 0.872621
v -0.108427 0.141142 0.879783
v 0.008271 0.088086 0.876229
v 0.007474 0.092613 0.879972
v 0.004356 0.093044 0.877830
v 0.005816 0.088584 0.874328
v -0.105234 0.159238 0.869338
v -0.101564 0.163616 0.860986
v -0.108834 0.164368 0.860775
v -0.112551 0.158755 0.867397
v -0.095564 0.159782 0.871898
v -0.091583 0.161837 0.861500
v 0.018316 0.090480 0.868495
v 0.015062 0.086937 0.870399
v 0.012731 0.088417 0.866542
v 0.015333 0.092632 0.864541
v -0.045911 0.093405 0.863387
v -0.050322 0.101360 0.866685
v -0.027305 0.094177 0.866174
v -0.036713 0.098308 0.865950
v -0.036763 0.092625 0.861393
v -0.028565 0.090488 0.860834
v -0.044877 0.118943 0.874920
v -0.056257 0.119929 0.872223
v -0.053540 0.114453 0.869551
v -0.041151 0.111563 0.872210
v -0.060570 0.130149 0.881136
v -0.048932 0.128648 0.882644
v -0.052791 0.134713 0.887438
v -0.060609 0.134108 0.886351
v -0.028913 0.123628 0.882776
v -0.022248 0.123223 0.883068
v -0.023209 0.125525 0.886047
v -0.030387 0.126715 0.884631
v -0.115752 0.165334 0.859426
v -0.119298 0.157820 0.864740
v -0.053517 0.162002 0.877958
v -0.061804 0.162753 0.885565
v -0.048881 0.163996 0.891023
v -0.042895 0.163232 0.880943
v -0.097004 0.161990 0.851764
v -0.104235 0.165093 0.851820
v 0.020209 0.096317 0.869259
v 0.016884 0.098520 0.865704
v -0.093390 0.088472 0.838237
v -0.082112 0.073458 0.846689
v -0.101583 0.100314 0.833557
v -0.106977 0.108912 0.830521
v -0.113507 0.113724 0.827697
v -0.033427 0.102781 0.870024
v -0.055752 0.109164 0.867583
v -0.068488 0.121878 0.871765
v -0.073763 0.143103 0.893736
v -0.084068 0.143101 0.891559
v -0.079061 0.134450 0.887516
v -0.070897 0.136594 0.889790
v -0.065098 0.158211 0.893794
v -0.064556 0.150486 0.896567
v -0.055858 0.151475 0.898371
v -0.054294 0.159346 0.896779
v -0.060152 0.069248 0.850892
v -0.064726 0.080090 0.841179
v -0.108462 0.151501 0.875877
v -0.114971 0.149902 0.871828
v -0.121920 0.150831 0.866997
v -0.091208 0.122068 0.871968
v -0.105128 0.122028 0.868834
v -0.104064 0.118208 0.866969
v -0.089768 0.120226 0.869732
v -0.082511 0.104626 0.869364
v -0.096001 0.103747 0.867777
v -0.077086 0.094246 0.872006
v -0.115468 0.119907 0.857988
v -0.123829 0.126980 0.859024
v -0.123349 0.120622 0.852740
v -0.124134 0.135582 0.863817
v -0.123574 0.143951 0.866962
v -0.111150 0.169293 0.849088
v -0.121556 0.115623 0.846136
v -0.075399 0.074715 0.872434
v -0.070125 0.068616 0.873145
v -0.064159 0.073670 0.873056
v -0.068312 0.079804 0.872670
v -0.022279 0.092581 0.849028
v -0.025430 0.089260 0.855468
v -0.035632 0.089053 0.854926
v -0.095453 0.130236 0.881435
v -0.098957 0.141898 0.885092
v -0.023694 0.098981 0.869553
v 0.011404 0.094291 0.861247
v 0.008816 0.089457 0.863480
v -0.007359 0.091482 0.855388
v -0.004082 0.096843 0.852662
v -0.013595 0.105022 0.869341
v -0.017856 0.099951 0.869931
v -0.014625 0.101066 0.869934
v -0.010614 0.106146 0.870642
v -0.028647 0.131908 0.890444
v -0.035181 0.132744 0.888992
v -0.018979 0.118653 0.853888
v -0.020502 0.109304 0.843897
v -0.031682 0.110663 0.841795
v -0.047829 0.124675 0.878772
v -0.037801 0.124370 0.881656
v -0.039093 0.127724 0.883846
v -0.029803 0.105501 0.871948
v -0.021684 0.104073 0.871713
v -0.024800 0.108159 0.873176
v -0.032175 0.110266 0.873654
v -0.074174 0.162604 0.880206
v -0.077815 0.157579 0.890154
v 0.011229 0.086057 0.873001
v 0.008940 0.086897 0.870148
v -0.058923 0.125489 0.876073
v -0.045614 0.112492 0.839401
v -0.070276 0.125972 0.875015
v -0.029050 0.149714 0.880775
v -0.031101 0.147294 0.888910
v -0.026341 0.144542 0.891104
v -0.022622 0.146204 0.886107
v 0.003321 0.105104 0.876120
v 0.001544 0.100097 0.878235
v 0.005091 0.099071 0.879498
v 0.007895 0.104018 0.877921
v -0.019583 0.094871 0.867559
v -0.020421 0.090406 0.862733
v -0.014048 0.091118 0.865516
v -0.014380 0.096105 0.868671
v -0.017059 0.089719 0.857168
v -0.011259 0.089518 0.860025
v 0.006914 0.107765 0.871336
v 0.010952 0.105845 0.865210
v -0.003455 0.109244 0.858299
v -0.005320 0.109351 0.865938
v -0.072139 0.151792 0.851745
v -0.076257 0.158434 0.859760
v -0.062482 0.156992 0.866114
v -0.048390 0.156898 0.871947
v -0.035214 0.155158 0.877246
v -0.030550 0.149048 0.867856
v -0.066962 0.161274 0.871598
v -0.013230 0.111721 0.865758
v -0.012921 0.111559 0.855220
v -0.013793 0.115383 0.860254
v -0.072190 0.130345 0.880790
v 0.005427 0.087479 0.867421
v -0.098437 0.129149 0.824341
v -0.097027 0.141803 0.828366
v -0.089368 0.137953 0.830442
v -0.091047 0.123420 0.826609
v 0.000915 0.093416 0.876827
v 0.002095 0.088456 0.872859
v -0.036194 0.137528 0.893606
v -0.029726 0.136339 0.894033
v -0.028267 0.139679 0.895084
v -0.034620 0.141291 0.897786
v -0.079866 0.161159 0.863723
v -0.041315 0.160759 0.896863
v -0.036119 0.160652 0.886904
v -0.088024 0.159485 0.853900
v -0.084377 0.154217 0.846460
v -0.093274 0.156432 0.843035
v -0.022008 0.136843 0.864286
v -0.067535 0.145977 0.847168
v -0.081059 0.148612 0.842358
v -0.091540 0.151000 0.838071
v -0.098887 0.153644 0.835037
v -0.100094 0.159231 0.840885
v 0.012294 0.100582 0.862500
v 0.016297 0.104475 0.869008
v -0.107316 0.163701 0.837564
v -0.105915 0.156757 0.831529
v -0.078297 0.141157 0.837656
v -0.075648 0.131119 0.832969
v -0.065405 0.138759 0.842692
v -0.061647 0.128724 0.838295
v -0.020920 0.132185 0.854471
v 0.024103 0.100018 0.884409
v 0.016696 0.104410 0.877230
v 0.012048 0.102840 0.880426
v 0.020649 0.100454 0.887058
v 0.011935 0.106318 0.874137
v 0.019546 0.102182 0.872689
v -0.060715 0.114026 0.835295
v -0.017360 0.107796 0.873075
v -0.077264 0.113472 0.830607
v -0.056585 0.096119 0.835869
v -0.069872 0.094849 0.834060
v -0.094676 0.110849 0.826448
v -0.085961 0.096807 0.830560
v -0.108534 0.121838 0.822701
v -0.100964 0.117781 0.824715
v -0.078079 0.082817 0.837296
v 0.013649 0.087651 0.885253
v 0.013019 0.092913 0.887648
v -0.105554 0.132643 0.821621
v -0.071938 0.086033 0.872509
v -0.082726 0.128272 0.878832
v -0.080691 0.125178 0.874498
v -0.090074 0.142707 0.889347
v -0.086251 0.132509 0.884706
v 0.016580 0.084607 0.881891
v -0.017640 0.126035 0.882165
v -0.019789 0.126501 0.882633
v -0.079789 0.068989 0.867384
v -0.074710 0.064290 0.868707
v -0.070121 0.060763 0.856735
v -0.074040 0.060722 0.862800
v -0.079930 0.065613 0.859366
v -0.076145 0.065906 0.852522
v -0.091977 0.123551 0.874119
v -0.092680 0.126096 0.877098
v -0.085685 0.161278 0.876117
v -0.088444 0.155937 0.886047
v -0.014238 0.092866 0.852088
v -0.019472 0.099578 0.845158
v -0.011658 0.098790 0.849256
v -0.004151 0.103879 0.852773
v -0.012863 0.109422 0.870761
v -0.011527 0.109105 0.864693
v -0.099916 0.111669 0.867495
v -0.086527 0.114390 0.868388
v -0.060729 0.081518 0.868460
v -0.058166 0.076432 0.868539
v -0.036109 0.116892 0.876521
v -0.013581 0.131684 0.869196
v -0.012304 0.127660 0.861553
v -0.027054 0.115736 0.877298
v 0.024105 0.086802 0.878659
v 0.019976 0.084399 0.880111
v -0.011600 0.105814 0.848981
v -0.042821 0.133306 0.889106
v -0.019117 0.135035 0.872144
v -0.014596 0.130557 0.876625
v -0.048855 0.157778 0.899506
v -0.104990 0.144696 0.825532
v 0.008661 0.098551 0.882269
v 0.014627 0.097733 0.888414
v 0.026056 0.097929 0.881150
v 0.026279 0.092725 0.877993
v -0.098001 0.152741 0.881551
v -0.078912 0.122995 0.871839
v -0.071509 0.072220 0.844655
v -0.065244 0.064492 0.852150
v -0.021561 0.115224 0.877680
v -0.032515 0.153413 0.885650
v -0.023343 0.145993 0.874079
v -0.016332 0.142711 0.880499
v -0.013873 0.135555 0.879445
v -0.014968 0.128941 0.881974
v 0.028384 0.096160 0.886255
v 0.028665 0.090945 0.883306
v 0.026228 0.085201 0.883830
v 0.022174 0.083122 0.884687
v 0.018006 0.084143 0.885714
v 0.026415 0.098377 0.889617
v 0.023076 0.098676 0.891727
v 0.016841 0.097051 0.891274
v 0.027027 0.097017 0.894315
v 0.030830 0.093327 0.894033
v 0.027714 0.080232 0.897283
v 0.028725 0.082734 0.892007
v 0.030063 0.083406 0.894304
v 0.029978 0.081787 0.899033
v 0.030998 0.081173 0.904075
v 0.028451 0.079056 0.902789
v 0.031021 0.087740 0.892829
v 0.031338 0.086176 0.899391
v 0.031093 0.090236 0.900592
v 0.032145 0.088582 0.905769
v 0.032612 0.084908 0.904855
v 0.031212 0.091003 0.896007
v 0.031085 0.088480 0.890531
v 0.029512 0.080130 0.907171
v 0.031723 0.081336 0.906907
v 0.032571 0.084404 0.907907
v 0.030875 0.083790 0.910386
v 0.023335 0.081683 0.889439
v 0.025168 0.079584 0.897413
v 0.025431 0.079798 0.903474
v 0.026818 0.080849 0.907738
v 0.022012 0.081252 0.899495
v 0.023196 0.081616 0.904163
v 0.024232 0.082963 0.907841
v 0.019861 0.084377 0.901519
v 0.021724 0.084260 0.905244
v 0.016606 0.086492 0.890547
v 0.018776 0.083412 0.888590
v 0.022544 0.084324 0.907728
v 0.028883 0.084562 0.911039
v 0.029487 0.093546 0.900120
v 0.029905 0.090795 0.906583
v 0.027505 0.094770 0.900756
v 0.028192 0.092353 0.907210
v 0.031078 0.088677 0.910291
v 0.032212 0.087323 0.908401
v 0.014914 0.087883 0.887433
v 0.014595 0.093392 0.889876
v 0.016048 0.092370 0.892582
v 0.019266 0.088985 0.902870
v 0.018066 0.095965 0.894317
v 0.023613 0.097292 0.896099
v 0.024978 0.094769 0.902379
v 0.021879 0.093411 0.903154
v 0.025591 0.092364 0.907146
v 0.023394 0.091041 0.906837
v 0.021426 0.087721 0.906509
v 0.025989 0.089480 0.909997
v 0.028935 0.089378 0.910534
v 0.025752 0.085705 0.910265
v 0.024242 0.089454 0.909054
v 0.023734 0.086496 0.908677
v 0.000759 0.111112 0.896842
v -0.001268 0.116607 0.899890
v 0.000264 0.117119 0.895982
v 0.002078 0.112559 0.893477
v 0.015032 0.112406 0.894847
v 0.009518 0.109010 0.895006
v 0.011532 0.111137 0.889767
v 0.016215 0.116157 0.889523
v 0.016811 0.119197 0.896504
v 0.016891 0.122919 0.890889
v 0.013806 0.117301 0.883945
v 0.009037 0.111912 0.885400
v -0.006498 0.113116 0.871080
v -0.002849 0.118456 0.868416
v -0.016425 0.121446 0.883446
v -0.014414 0.125029 0.883170
v 0.004238 0.109049 0.895695
v 0.006035 0.110462 0.891521
v -0.001524 0.125538 0.895957
v -0.003267 0.120335 0.896203
v -0.000988 0.121480 0.898084
v 0.002099 0.126052 0.898977
v -0.012991 0.111708 0.876612
v -0.015513 0.116412 0.879903
v -0.009870 0.111395 0.874142
v 0.003399 0.129856 0.893824
v 0.009234 0.130492 0.889998
v -0.004681 0.131420 0.874757
v -0.008643 0.131031 0.879902
v 0.004527 0.110153 0.888097
v -0.001945 0.114813 0.894700
v 0.000170 0.110960 0.891678
v 0.012856 0.124805 0.885137
v 0.012907 0.128239 0.895925
v 0.007024 0.119867 0.914098
v 0.007451 0.125992 0.903949
v 0.002404 0.124519 0.903897
v 0.001883 0.119435 0.914491
v 0.007244 0.128587 0.898407
v 0.012663 0.124505 0.901361
v -0.002051 0.106842 0.909372
v -0.003846 0.112396 0.912030
v 0.001473 0.104060 0.908273
v -0.002427 0.126054 0.869465
v 0.011732 0.106716 0.906980
v 0.005695 0.103753 0.907206
v -0.001367 0.121489 0.902069
v -0.002387 0.116790 0.914045
v 0.011105 0.118251 0.912562
v 0.014155 0.113194 0.908119
v 0.010480 0.114998 0.917488
v 0.012724 0.109768 0.914247
v 0.010006 0.103467 0.912340
v 0.004321 0.101834 0.911314
v 0.000501 0.103044 0.911257
v 0.006540 0.117031 0.918890
v 0.001528 0.117211 0.918805
v -0.002561 0.115132 0.916133
v 0.003040 0.114302 0.924235
v 0.006647 0.111435 0.924697
v -0.002468 0.095414 0.928536
v 0.001157 0.097389 0.924060
v 0.002434 0.098727 0.925979
v -0.000724 0.096933 0.930207
v 0.006165 0.099868 0.920796
v 0.005757 0.100787 0.923246
v 0.007177 0.105171 0.924166
v 0.003056 0.102925 0.928345
v 0.002351 0.107695 0.929271
v -0.000376 0.105599 0.933962
v 0.000381 0.100809 0.933359
v 0.005725 0.108186 0.926261
v -0.002561 0.096662 0.933361
v -0.005098 0.096022 0.933543
v 0.009609 0.105975 0.921910
v 0.003246 0.099906 0.915327
v -0.001590 0.097039 0.922604
v -0.005652 0.095850 0.927774
v -0.007790 0.097511 0.933396
v -0.005452 0.098838 0.922275
v -0.008221 0.097859 0.927633
v -0.009362 0.099511 0.932314
v -0.008678 0.102385 0.922653
v -0.010509 0.101426 0.928162
v -0.003716 0.105676 0.913651
v -0.000876 0.101809 0.913538
v -0.010315 0.101189 0.930823
v -0.004387 0.099324 0.937098
v -0.007542 0.100403 0.936471
v -0.002690 0.099486 0.936242
v 0.001533 0.109666 0.929398
v -0.002143 0.106995 0.934135
v -0.000761 0.111394 0.929340
v -0.004354 0.108025 0.934440
v -0.004168 0.104114 0.937370
v -0.002805 0.103077 0.937036
v -0.002266 0.106397 0.911800
v -0.003583 0.111553 0.913797
v -0.004795 0.111063 0.915268
v -0.009119 0.107446 0.924412
v -0.003322 0.114824 0.918004
v -0.000160 0.115364 0.922581
v -0.003257 0.112308 0.928238
v -0.006845 0.111052 0.926746
v -0.006155 0.109169 0.933842
v -0.008035 0.109048 0.931106
v -0.010602 0.105447 0.929091
v -0.007854 0.105708 0.936482
v -0.005847 0.104754 0.937394
v -0.008968 0.101569 0.935135
v -0.009148 0.106533 0.933888
v -0.010285 0.103236 0.932660
v -0.012660 0.121729 0.906842
v -0.014986 0.126498 0.909217
v -0.015204 0.127575 0.906217
v -0.012439 0.123207 0.903843
v 0.000110 0.123312 0.905983
v -0.003723 0.120122 0.905789
v -0.003370 0.122079 0.901409
v 0.000371 0.125913 0.900284
v 0.001313 0.127866 0.909342
v 0.001731 0.131729 0.901917
v -0.000819 0.128051 0.895139
v -0.004271 0.123536 0.897396
v -0.012533 0.127713 0.885699
v -0.008988 0.133087 0.884215
v -0.008478 0.120015 0.906032
v -0.008307 0.121546 0.902629
v -0.015276 0.135646 0.907501
v -0.017084 0.131161 0.906756
v -0.014877 0.132389 0.908652
v -0.012027 0.135739 0.909705
v -0.022277 0.126550 0.889606
v -0.024910 0.131478 0.891974
v -0.017487 0.125648 0.888156
v -0.009794 0.139239 0.905852
v -0.003766 0.139628 0.901564
v -0.014377 0.144007 0.891733
v -0.019587 0.142731 0.894831
v -0.008787 0.122069 0.899547
v -0.017064 0.126371 0.904328
v -0.013837 0.122552 0.901790
v -0.001039 0.134339 0.896783
v -0.001184 0.136675 0.906467
v -0.005541 0.128405 0.927140
v -0.005860 0.135928 0.912934
v -0.011666 0.134455 0.912800
v -0.010032 0.128637 0.927152
v -0.006631 0.137840 0.909570
v -0.000846 0.133669 0.911507
v -0.014377 0.116531 0.921536
v -0.015727 0.121715 0.923131
v -0.010635 0.114812 0.919909
v -0.009405 0.140007 0.886167
v -0.024491 0.138354 0.895507
v -0.003222 0.115706 0.921107
v -0.007235 0.114275 0.920044
v -0.014421 0.131442 0.911356
v -0.014058 0.126530 0.925711
v -0.001771 0.125995 0.925271
v -0.000254 0.120859 0.922208
v -0.003091 0.124410 0.930700
v -0.001830 0.118983 0.928106
v -0.004400 0.113885 0.927052
v -0.008455 0.112779 0.925604
v -0.011832 0.113483 0.924992
v -0.006947 0.126930 0.932043
v -0.010860 0.127072 0.931468
v -0.013977 0.125485 0.927558
v -0.009057 0.126030 0.935770
v -0.005380 0.122183 0.937142
v -0.013577 0.109278 0.944061
v -0.011178 0.110462 0.938959
v -0.010511 0.111300 0.939621
v -0.012363 0.110132 0.944943
v -0.006683 0.112461 0.934255
v -0.007136 0.112909 0.936224
v -0.005408 0.116442 0.936784
v -0.008423 0.115307 0.942373
v -0.009882 0.121134 0.942391
v -0.011944 0.119281 0.946631
v -0.010441 0.113938 0.947160
v -0.006279 0.120639 0.938305
v -0.013364 0.110484 0.947964
v -0.014293 0.108763 0.948216
v -0.003962 0.117025 0.934796
v -0.009910 0.110790 0.930909
v -0.013541 0.109415 0.937569
v -0.016248 0.108036 0.942681
v -0.017647 0.109234 0.946717
v -0.016882 0.110915 0.936451
v -0.018625 0.109846 0.941497
v -0.019815 0.110795 0.945188
v -0.019006 0.113410 0.936096
v -0.020275 0.112588 0.940795
v -0.015315 0.115541 0.927141
v -0.012961 0.112366 0.928571
v -0.020610 0.112581 0.943948
v -0.014091 0.112859 0.950764
v -0.018080 0.113936 0.949817
v -0.013010 0.113224 0.949446
v -0.010371 0.122845 0.941827
v -0.013400 0.121031 0.947332
v -0.012638 0.124326 0.940931
v -0.015645 0.122366 0.946410
v -0.014204 0.118074 0.950216
v -0.013379 0.117400 0.949630
v -0.014438 0.116528 0.924452
v -0.015553 0.121355 0.925456
v -0.016392 0.120269 0.927693
v -0.020285 0.117794 0.937051
v -0.015083 0.124506 0.929577
v -0.012730 0.125956 0.934954
v -0.015692 0.123895 0.939779
v -0.018646 0.121769 0.938758
v -0.017996 0.122102 0.944866
v -0.019327 0.120659 0.942769
v -0.021495 0.116464 0.941425
v -0.018793 0.118938 0.947376
v -0.016695 0.119050 0.949458
v -0.020199 0.114593 0.947550
v -0.020179 0.118576 0.945331
v -0.021181 0.115261 0.945321
v -0.025761 0.135236 0.894269
v -0.032554 0.132565 0.917501
v -0.034104 0.136261 0.919048
v -0.033307 0.136677 0.918362
v -0.032357 0.133137 0.915746
v -0.021197 0.133349 0.915369
v -0.025228 0.130716 0.915708
v -0.024185 0.131859 0.911710
v -0.020494 0.134558 0.911353
v -0.019676 0.138219 0.916728
v -0.019506 0.139550 0.913520
v -0.021941 0.136831 0.907816
v -0.025554 0.133778 0.907888
v -0.031499 0.143629 0.894136
v -0.029627 0.148728 0.893163
v -0.044340 0.155050 0.903735
v -0.047036 0.150081 0.902312
v -0.041690 0.148270 0.909196
v -0.039572 0.152612 0.909282
v -0.029245 0.130810 0.916420
v -0.029076 0.131330 0.913052
v -0.030532 0.145634 0.920161
v -0.033494 0.141686 0.919309
v -0.033356 0.140536 0.920023
v -0.031152 0.144408 0.921641
v -0.045050 0.145342 0.900697
v -0.040923 0.142805 0.898426
v -0.039829 0.141643 0.902186
v -0.040936 0.143823 0.907280
v -0.035457 0.140759 0.898954
v -0.026569 0.147212 0.918585
v -0.021967 0.146130 0.914808
v -0.033115 0.157722 0.903051
v -0.036725 0.156371 0.906383
v -0.028842 0.132521 0.910799
v -0.034092 0.137645 0.916656
v -0.032300 0.134179 0.914787
v -0.020283 0.141811 0.910119
v -0.021977 0.144127 0.917649
v -0.027659 0.142275 0.929196
v -0.027228 0.145495 0.922410
v -0.032050 0.144177 0.922497
v -0.030910 0.141980 0.928944
v -0.026702 0.145547 0.920974
v -0.022342 0.143074 0.920716
v -0.034079 0.130844 0.923984
v -0.035054 0.135852 0.925664
v -0.031462 0.128853 0.923192
v -0.030111 0.154264 0.896167
v -0.023990 0.129997 0.923748
v -0.028076 0.128124 0.923533
v -0.034022 0.140115 0.920970
v -0.033819 0.139747 0.927593
v -0.023681 0.140050 0.928151
v -0.021382 0.135091 0.925096
v -0.024657 0.137843 0.931974
v -0.022776 0.132805 0.928815
v -0.026230 0.127923 0.927220
v -0.029779 0.127393 0.925844
v -0.032820 0.128354 0.925391
v -0.028529 0.140481 0.932589
v -0.031564 0.140543 0.931768
v -0.034286 0.138899 0.929463
v -0.029621 0.138549 0.936085
v -0.026900 0.134645 0.936853
v -0.034935 0.124114 0.939584
v -0.033041 0.124979 0.935978
v -0.032141 0.125483 0.936648
v -0.033942 0.123992 0.940102
v -0.029217 0.126474 0.932361
v -0.029162 0.126914 0.934045
v -0.026999 0.129810 0.934545
v -0.029557 0.128112 0.938929
v -0.030102 0.132941 0.941274
v -0.032018 0.131003 0.944476
v -0.031064 0.126860 0.942265
v -0.027270 0.132850 0.937589
v -0.034259 0.123622 0.942856
v -0.035449 0.123056 0.943359
v -0.025591 0.130221 0.933151
v -0.032195 0.126165 0.929467
v -0.035478 0.124499 0.935406
v -0.037194 0.123516 0.940137
v -0.037495 0.124017 0.943936
v -0.037268 0.125914 0.934160
v -0.039247 0.124583 0.939705
v -0.039448 0.125237 0.943343
v -0.039131 0.128697 0.933754
v -0.040286 0.126992 0.939204
v -0.036650 0.130969 0.927900
v -0.034835 0.127856 0.928296
v -0.039907 0.126686 0.942340
v -0.034164 0.125536 0.946125
v -0.037009 0.126469 0.946154
v -0.032771 0.125864 0.945411
v -0.030573 0.134270 0.941350
v -0.033060 0.132045 0.945230
v -0.032358 0.136046 0.940987
v -0.035067 0.132919 0.945027
v -0.034166 0.129111 0.946969
v -0.032707 0.128643 0.945847
v -0.035536 0.131141 0.926142
v -0.035654 0.135155 0.927171
v -0.036675 0.135090 0.929273
v -0.039352 0.132603 0.934875
v -0.034976 0.138551 0.931718
v -0.032197 0.139521 0.934361
v -0.034797 0.136568 0.939749
v -0.037502 0.135719 0.937762
v -0.037135 0.132930 0.944213
v -0.039267 0.132406 0.942050
v -0.040623 0.130180 0.940026
v -0.038049 0.129501 0.945653
v -0.036507 0.129325 0.946774
v -0.038669 0.127350 0.945174
v -0.039338 0.129721 0.944162
v -0.039824 0.128382 0.943352
v -0.040771 0.156994 0.903153
v -0.052927 0.061048 0.860516
v -0.050957 0.065041 0.863948
v -0.059974 0.063354 0.877746
v -0.054165 0.066253 0.874943
v -0.064570 0.058355 0.876646
v -0.066335 0.052611 0.867299
v -0.067155 0.055317 0.872256
v -0.050971 0.066769 0.869760
v -0.057007 0.056802 0.858851
v -0.062915 0.053085 0.861182
v -0.050969 0.051521 0.862087
v -0.057389 0.047422 0.864631
v -0.061487 0.046348 0.870356
v -0.063550 0.050873 0.875748
v -0.062625 0.054563 0.879216
v -0.048500 0.057951 0.864515
v -0.047507 0.062077 0.868035
v -0.049508 0.064643 0.873735
v -0.042864 0.055419 0.870454
v -0.040701 0.046644 0.875398
v -0.045594 0.036635 0.891602
v -0.050034 0.039824 0.887386
v -0.047716 0.039090 0.885782
v -0.044061 0.035748 0.889565
v -0.051643 0.041061 0.882080
v -0.049210 0.040904 0.882067
v -0.045896 0.042628 0.878289
v -0.042505 0.039798 0.882100
v -0.041295 0.045023 0.877704
v -0.038245 0.044151 0.880667
v -0.038991 0.036972 0.885642
v -0.040556 0.033773 0.890426
v -0.036127 0.034791 0.888950
v -0.040780 0.034828 0.893534
v -0.046354 0.041274 0.875851
v -0.057600 0.045039 0.882077
v -0.052459 0.042377 0.888837
v -0.046745 0.039608 0.893782
v -0.040927 0.037573 0.895442
v -0.052668 0.046629 0.890659
v -0.046617 0.044112 0.894312
v -0.040986 0.042718 0.895334
v -0.050426 0.051170 0.890855
v -0.044810 0.047745 0.893538
v -0.057474 0.057725 0.882582
v -0.059913 0.051391 0.883116
v -0.041228 0.045421 0.894218
v -0.034730 0.035260 0.891604
v -0.034929 0.038471 0.893614
v -0.036786 0.047200 0.879635
v -0.034657 0.041260 0.883707
v -0.033481 0.044144 0.884228
v -0.036816 0.051333 0.879492
v -0.033220 0.046882 0.885275
v -0.032072 0.039830 0.888044
v -0.033802 0.038070 0.886400
v -0.059382 0.060033 0.880173
v -0.054432 0.063898 0.877633
v -0.052777 0.061846 0.879835
v -0.045942 0.055540 0.888017
v -0.047316 0.062626 0.876978
v -0.043646 0.059641 0.873092
v -0.037803 0.054550 0.881359
v -0.041066 0.056522 0.884389
v -0.034959 0.049490 0.887282
v -0.037395 0.050631 0.888857
v -0.041273 0.050008 0.891898
v -0.034350 0.045507 0.890892
v -0.032218 0.042802 0.889550
v -0.036507 0.043014 0.893926
v -0.036447 0.047395 0.891016
v -0.038437 0.046131 0.893128
v -0.051364 0.150611 0.899590
v -0.049243 0.144401 0.897619
v -0.055039 0.145247 0.896768
v -0.063901 0.144135 0.895676
v -0.072964 0.149341 0.894659
v -0.062101 0.138587 0.891628
v -0.052896 0.139863 0.893218
v -0.044203 0.138881 0.894217
v -0.068071 0.133503 0.885023
f 780 781 779
f 779 781 782
f 783 784 786
f 786 784 785
f 787 782 788
f 788 782 781
f 790 791 789
f 789 791 787
f 792 790 794
f 794 790 793
f 796 797 795
f 795 797 798
f 800 801 799
f 799 801 802
f 804 805 803
f 803 805 806
f 808 809 807
f 807 809 810
f 811 812 814
f 814 812 813
f 815 816 818
f 818 816 817
f 819 820 784
f 784 820 821
f 784 821 785
f 785 821 822
f 823 812 824
f 824 812 811
f 826 827 825
f 825 827 828
f 830 831 829
f 829 831 832
f 834 830 833
f 833 830 829
f 836 837 835
f 835 837 838
f 839 840 782
f 782 840 779
f 842 843 841
f 841 843 844
f 846 847 845
f 845 847 848
f 850 851 849
f 849 851 852
f 854 855 853
f 853 855 856
f 831 857 832
f 832 857 858
f 860 861 859
f 859 861 862
f 863 864 830
f 830 864 831
f 835 838 865
f 865 838 866
f 867 868 821
f 821 868 822
f 821 820 867
f 867 820 869
f 818 817 870
f 870 817 871
f 872 848 842
f 842 848 847
f 791 839 787
f 787 839 782
f 803 806 847
f 847 806 873
f 874 803 846
f 846 803 847
f 876 877 875
f 875 877 878
f 879 880 882
f 882 880 881
f 884 808 883
f 883 808 807
f 829 832 885
f 885 832 886
f 832 858 886
f 886 858 887
f 889 890 888
f 888 890 891
f 893 783 892
f 892 783 894
f 893 819 783
f 783 819 784
f 814 813 889
f 889 813 895
f 813 896 895
f 895 896 897
f 812 898 813
f 813 898 896
f 812 823 898
f 898 823 899
f 903 904 902
f 902 904 905
f 906 907 792
f 792 907 908
f 811 909 824
f 824 909 910
f 911 872 841
f 841 872 842
f 912 913 915
f 915 913 914
f 917 918 916
f 916 918 919
f 855 920 856
f 856 920 921
f 922 923 798
f 798 923 924
f 926 927 925
f 925 927 850
f 929 930 928
f 928 930 931
f 860 879 861
f 861 879 882
f 879 860 933
f 933 860 932
f 934 935 836
f 836 935 837
f 936 846 925
f 925 846 845
f 937 924 793
f 793 924 794
f 846 936 874
f 874 936 938
f 907 844 908
f 908 844 843
f 940 941 939
f 939 941 942
f 944 945 943
f 943 945 946
f 948 949 947
f 947 949 950
f 952 949 951
f 951 949 948
f 954 955 953
f 953 955 956
f 958 959 957
f 957 959 802
f 960 961 799
f 799 961 962
f 859 963 860
f 860 963 932
f 964 965 966
f 966 965 922
f 936 849 938
f 938 849 967
f 968 913 935
f 935 913 837
f 947 950 917
f 917 950 918
f 925 850 936
f 936 850 849
f 970 971 969
f 969 971 972
f 945 944 827
f 827 944 973
f 974 968 828
f 828 968 935
f 975 976 978
f 978 976 977
f 799 802 960
f 960 802 959
f 924 937 798
f 798 937 795
f 960 959 859
f 859 959 963
f 979 963 958
f 958 963 959
f 980 981 861
f 861 981 862
f 983 984 982
f 982 984 863
f 985 800 962
f 962 800 799
f 957 802 986
f 986 802 801
f 986 987 957
f 957 987 983
f 987 988 983
f 983 988 984
f 990 984 989
f 989 984 988
f 957 983 958
f 958 983 982
f 991 954 866
f 866 954 992
f 864 863 990
f 990 863 984
f 971 995 996
f 995 997 996
f 996 997 998
f 997 796 998
f 998 796 795
f 797 999 798
f 798 999 922
f 1000 1001 1003
f 1003 1001 1002
f 953 1004 954
f 954 1004 992
f 1005 865 992
f 992 865 866
f 998 795 1006
f 1006 795 937
f 912 991 838
f 838 991 866
f 916 1007 929
f 929 1007 930
f 971 970 988
f 988 970 989
f 1008 972 996
f 996 972 971
f 1009 1010 1006
f 1006 1010 1008
f 1011 1012 869
f 869 1012 867
f 1013 1014 871
f 871 1014 870
f 1008 1010 1012
f 1012 1010 1015
f 825 1016 826
f 826 1016 1017
f 1018 969 1013
f 1013 969 1014
f 783 786 894
f 894 786 1019
f 1020 1021 967
f 967 1021 938
f 1022 1023 876
f 876 1023 877
f 934 1024 825
f 825 1024 1016
f 854 1025 855
f 855 1025 1026
f 1028 903 1027
f 1027 903 902
f 1030 1031 1029
f 1029 1031 1032
f 889 888 814
f 814 888 1033
f 1034 811 1033
f 1033 811 814
f 1035 1036 932
f 932 1036 933
f 841 947 911
f 911 947 917
f 844 948 841
f 841 948 947
f 951 948 907
f 907 948 844
f 907 906 951
f 951 906 1037
f 906 1038 1037
f 1037 1038 1039
f 991 912 1040
f 1040 912 915
f 1041 1042 964
f 964 1042 965
f 890 1043 891
f 891 1043 1044
f 789 1045 1046
f 1012 1011 1008
f 1008 1011 972
f 931 1047 848
f 848 1047 845
f 953 956 943
f 943 956 919
f 928 931 872
f 872 931 848
f 1049 999 1048
f 1048 999 985
f 1047 931 1050
f 1050 931 930
f 899 823 887
f 887 823 886
f 825 828 934
f 934 828 935
f 835 1051 836
f 836 1051 1052
f 923 1053 1038
f 1038 1053 1039
f 1054 927 921
f 921 927 856
f 926 1047 853
f 853 1047 1050
f 985 1055 1048
f 1048 1055 1056
f 973 974 827
f 827 974 828
f 837 913 838
f 838 913 912
f 861 882 980
f 980 882 1057
f 927 926 856
f 856 926 853
f 1025 1056 1026
f 1026 1056 1055
f 961 960 862
f 862 960 859
f 826 1017 1059
f 1059 1017 1060
f 1005 1001 1061
f 1061 1001 1000
f 1001 1004 1002
f 1002 1004 946
f 1059 1060 1002
f 1002 1060 1003
f 943 946 953
f 953 946 1004
f 1042 1041 916
f 916 1041 1007
f 792 794 906
f 906 794 1038
f 998 1006 996
f 996 1006 1008
f 865 1005 1062
f 1062 1005 1061
f 1038 794 923
f 923 794 924
f 1022 876 1036
f 1036 876 933
f 836 1052 934
f 934 1052 1024
f 885 1063 829
f 829 1063 833
f 1021 1064 938
f 938 1064 874
f 1012 1015 867
f 867 1015 868
f 824 910 885
f 885 910 1063
f 1031 1030 1027
f 1027 1030 1028
f 1064 804 874
f 874 804 803
f 884 883 1065
f 1065 883 1066
f 1050 930 1067
f 1067 930 1007
f 916 929 917
f 917 929 911
f 961 1068 939
f 939 1068 940
f 1069 1070 1055
f 1055 1070 1071
f 929 928 911
f 911 928 872
f 1040 1053 955
f 955 1053 965
f 922 965 923
f 923 965 1053
f 1051 835 1062
f 1062 835 865
f 952 914 968
f 968 914 913
f 889 895 890
f 890 895 816
f 895 897 816
f 816 897 901
f 890 816 1043
f 1043 816 815
f 1065 1066 1032
f 1032 1066 1029
f 1006 937 1009
f 1009 937 793
f 1001 1005 1004
f 1004 1005 992
f 925 845 926
f 926 845 1047
f 1002 946 1059
f 1059 946 945
f 977 941 978
f 978 941 940
f 823 824 886
f 886 824 885
f 1059 945 826
f 826 945 827
f 939 942 1069
f 1069 942 1070
f 816 901 817
f 1071 1072 1055
f 1055 1072 1026
f 1062 1061 1074
f 1074 1061 1073
f 1062 1074 1051
f 1051 1074 1075
f 1052 1051 1076
f 1076 1051 1075
f 1024 1052 1077
f 1077 1052 1076
f 1061 1000 1073
f 1073 1000 1078
f 1000 1003 1078
f 1078 1003 1079
f 1079 1003 1080
f 1080 1003 1060
f 1081 1082 1078
f 1078 1082 1073
f 1084 1085 1083
f 1083 1085 1086
f 1087 1088 1086
f 1086 1088 1083
f 1086 1085 1090
f 1090 1085 1089
f 1091 1092 1090
f 1090 1092 1093
f 1089 1094 1090
f 1090 1094 1091
f 1095 1082 1089
f 1089 1082 1094
f 1093 1087 1090
f 1090 1087 1086
f 1096 1097 1099
f 1099 1097 1098
f 1097 1096 1087
f 1087 1096 1088
f 1089 1085 1095
f 1095 1085 1084
f 1084 1075 1095
f 1095 1075 1074
f 1084 1100 1075
f 1075 1100 1076
f 1083 1101 1084
f 1084 1101 1100
f 1101 1083 1102
f 1102 1083 1088
f 1082 1095 1073
f 1073 1095 1074
f 1096 1103 1088
f 1088 1103 1102
f 1101 1102 1104
f 1104 1102 1105
f 1102 1103 1105
f 1105 1103 1106
f 1104 1105 1107
f 1107 1105 1108
f 1107 1109 1104
f 1104 1109 1110
f 1111 1108 1106
f 1106 1108 1105
f 1101 1104 1100
f 1100 1104 1110
f 1100 1110 1076
f 1076 1110 1077
f 1103 1096 1112
f 1112 1096 1099
f 1091 1094 1113
f 1113 1094 1082
f 1113 1114 1091
f 1091 1114 1092
f 1082 1081 1113
f 1113 1081 1115
f 1114 1113 1116
f 1116 1113 1115
f 1114 1117 1092
f 1092 1117 1118
f 1024 1077 1016
f 1016 1077 1119
f 1017 1120 1060
f 1060 1120 1080
f 1120 1017 1119
f 1119 1017 1016
f 1119 1109 1120
f 1120 1109 1121
f 1109 1107 1121
f 1121 1107 1122
f 1120 1121 1080
f 1080 1121 1123
f 1119 1077 1109
f 1109 1077 1110
f 1124 1079 1123
f 1123 1079 1080
f 1124 1081 1079
f 1079 1081 1078
f 1125 1115 1124
f 1124 1115 1081
f 1125 1124 1126
f 1126 1124 1123
f 1127 1125 1128
f 1128 1125 1126
f 1121 1122 1123
f 1123 1122 1126
f 1122 1129 1126
f 1126 1129 1128
f 1115 1125 1116
f 1116 1125 1127
f 1131 1116 1130
f 1130 1116 1127
f 1130 1133 1132
f 1132 1133 1134
f 1130 1127 1133
f 1133 1127 1128
f 1130 1132 1131
f 1131 1132 1112
f 1131 1112 1117
f 1117 1112 1099
f 1117 1114 1131
f 1131 1114 1116
f 1107 1108 1122
f 1122 1108 1129
f 1134 1129 1111
f 1111 1129 1108
f 1134 1133 1129
f 1129 1133 1128
f 1132 1134 1106
f 1106 1134 1111
f 1106 1103 1132
f 1132 1103 1112
f 1087 1093 1097
f 1097 1093 1098
f 1098 1118 1099
f 1099 1118 1117
f 1098 1093 1118
f 1118 1093 1092
f 915 914 1039
f 1039 914 1037
f 918 944 919
f 919 944 943
f 950 949 973
f 973 949 974
f 949 952 974
f 974 952 968
f 956 955 1042
f 1042 955 965
f 950 973 918
f 918 973 944
f 915 1039 1040
f 1040 1039 1053
f 956 1042 919
f 919 1042 916
f 1040 955 991
f 991 955 954
f 914 952 1037
f 1037 952 951
f 1136 1137 1135
f 1135 1137 1138
f 1140 1141 1139
f 1139 1141 1142
f 1139 1142 1143
f 1143 1142 1144
f 1145 1146 1148
f 1148 1146 1147
f 854 1149 1025
f 1025 1149 1150
f 1151 1152 1140
f 1140 1152 1141
f 1154 1155 1153
f 1153 1155 1156
f 1067 1007 1158
f 1158 1007 1157
f 1159 1157 1041
f 1041 1157 1007
f 1161 1162 1160
f 1160 1162 1163
f 1164 1146 1152
f 1152 1146 1141
f 854 1067 1149
f 1149 1067 1158
f 1155 1154 1137
f 1137 1154 1165
f 1166 1164 1138
f 1138 1164 1152
f 1167 1161 1144
f 1144 1161 1168
f 1170 1171 1169
f 1169 1171 1172
f 1161 1160 1168
f 1168 1160 1173
f 1174 1143 1168
f 1168 1143 1144
f 1167 1144 1145
f 1145 1144 1142
f 1135 1175 1136
f 1136 1175 1176
f 1151 1177 1135
f 1135 1177 1175
f 1167 1145 1178
f 1178 1145 1148
f 1160 1163 1153
f 1153 1163 1150
f 1135 1138 1151
f 1151 1138 1152
f 1139 1179 1140
f 1140 1179 1180
f 1165 1166 1137
f 1137 1166 1138
f 1141 1146 1142
f 1142 1146 1145
f 1136 1176 1181
f 1181 1176 1182
f 1174 1170 1183
f 1183 1170 1169
f 1170 1173 1171
f 1171 1173 1156
f 1171 1181 1172
f 1172 1181 1182
f 1153 1156 1160
f 1160 1156 1173
f 1143 1174 1184
f 1184 1174 1183
f 1140 1180 1151
f 1151 1180 1177
f 1049 1048 1178
f 1178 1048 1162
f 1179 1139 1184
f 1184 1139 1143
f 1159 1147 1164
f 1164 1147 1146
f 1170 1174 1173
f 1173 1174 1168
f 1171 1156 1181
f 1181 1156 1155
f 1181 1155 1136
f 1136 1155 1137
f 1184 1183 1186
f 1186 1183 1185
f 1184 1186 1179
f 1179 1186 1187
f 1179 1187 1180
f 1180 1187 1188
f 1180 1188 1177
f 1177 1188 1189
f 1183 1169 1185
f 1185 1169 1190
f 1169 1172 1190
f 1190 1172 1191
f 1172 1182 1191
f 1191 1182 1192
f 1193 1194 1190
f 1190 1194 1185
f 1196 1197 1195
f 1195 1197 1198
f 1199 1200 1196
f 1196 1200 1197
f 1197 1200 1202
f 1202 1200 1201
f 1203 1204 1202
f 1202 1204 1205
f 1201 1206 1202
f 1202 1206 1203
f 1205 1198 1202
f 1202 1198 1197
f 1198 1207 1195
f 1195 1207 1208
f 1201 1200 1209
f 1209 1200 1199
f 1199 1187 1209
f 1209 1187 1186
f 1199 1210 1187
f 1187 1210 1188
f 1196 1211 1199
f 1199 1211 1210
f 1212 1211 1195
f 1195 1211 1196
f 1209 1194 1201
f 1201 1194 1206
f 1194 1209 1185
f 1185 1209 1186
f 1213 1212 1208
f 1208 1212 1195
f 1211 1212 1214
f 1214 1212 1215
f 1212 1213 1215
f 1215 1213 1216
f 1214 1215 1217
f 1217 1215 1218
f 1217 1219 1214
f 1214 1219 1220
f 1216 1221 1215
f 1215 1221 1218
f 1214 1220 1211
f 1211 1220 1210
f 1210 1220 1188
f 1188 1220 1189
f 1213 1208 1223
f 1223 1208 1222
f 1208 1207 1222
f 1222 1207 1224
f 1203 1206 1225
f 1225 1206 1194
f 1204 1203 1226
f 1226 1203 1225
f 1194 1193 1225
f 1225 1193 1227
f 1225 1227 1226
f 1226 1227 1228
f 1229 1230 1226
f 1226 1230 1204
f 1224 1230 1222
f 1222 1230 1229
f 1177 1189 1175
f 1175 1189 1231
f 1176 1232 1182
f 1182 1232 1192
f 1232 1176 1231
f 1231 1176 1175
f 1231 1219 1232
f 1232 1219 1233
f 1219 1217 1233
f 1233 1217 1234
f 1232 1233 1192
f 1192 1233 1235
f 1219 1231 1220
f 1220 1231 1189
f 1236 1191 1235
f 1235 1191 1192
f 1236 1193 1191
f 1191 1193 1190
f 1236 1237 1193
f 1193 1237 1227
f 1237 1236 1238
f 1238 1236 1235
f 1239 1237 1240
f 1240 1237 1238
f 1233 1234 1235
f 1235 1234 1238
f 1234 1241 1238
f 1238 1241 1240
f 1237 1239 1227
f 1227 1239 1228
f 1243 1228 1242
f 1242 1228 1239
f 1242 1245 1244
f 1244 1245 1246
f 1242 1239 1245
f 1245 1239 1240
f 1242 1244 1243
f 1243 1244 1223
f 1243 1223 1229
f 1229 1223 1222
f 1229 1226 1243
f 1243 1226 1228
f 1217 1218 1234
f 1234 1218 1241
f 1246 1241 1221
f 1221 1241 1218
f 1246 1245 1241
f 1241 1245 1240
f 1244 1246 1216
f 1216 1246 1221
f 1216 1213 1244
f 1244 1213 1223
f 1198 1205 1207
f 1207 1205 1224
f 1224 1205 1230
f 1230 1205 1204
f 1148 1147 966
f 966 1147 964
f 1149 1154 1150
f 1150 1154 1153
f 1158 1157 1165
f 1165 1157 1166
f 1157 1159 1166
f 1166 1159 1164
f 1163 1162 1056
f 1056 1162 1048
f 1158 1165 1149
f 1149 1165 1154
f 1178 1148 1049
f 1049 1148 966
f 1163 1056 1150
f 1150 1056 1025
f 1178 1162 1167
f 1167 1162 1161
f 1147 1159 964
f 964 1159 1041
f 999 1049 922
f 922 1049 966
f 999 797 985
f 985 797 800
f 797 796 800
f 800 796 801
f 796 997 801
f 801 997 986
f 1247 1248 1250
f 1250 1248 1249
f 1252 1253 1251
f 1251 1253 1254
f 1251 1254 1255
f 1255 1254 1256
f 1258 1259 1257
f 1257 1259 1260
f 1261 1262 1252
f 1252 1262 1253
f 1264 1265 1263
f 1263 1265 1266
f 1267 1268 855
f 855 1268 920
f 1269 1267 1026
f 1026 1267 855
f 1271 1272 1270
f 1270 1272 1273
f 1274 1258 1262
f 1262 1258 1253
f 1264 1275 1265
f 1265 1275 1249
f 1276 1274 1250
f 1250 1274 1262
f 1277 1271 1256
f 1256 1271 1278
f 1279 1280 1282
f 1282 1280 1281
f 1271 1270 1278
f 1278 1270 1283
f 1284 1255 1278
f 1278 1255 1256
f 1277 1256 1257
f 1257 1256 1254
f 1247 1285 1248
f 1248 1285 1286
f 1261 1287 1247
f 1247 1287 1285
f 1257 1260 1277
f 1277 1260 1288
f 1270 1273 1263
f 1263 1273 1289
f 1261 1247 1262
f 1262 1247 1250
f 1251 1290 1252
f 1252 1290 1291
f 1275 1276 1249
f 1249 1276 1250
f 1253 1258 1254
f 1254 1258 1257
f 1248 1286 1292
f 1292 1286 1293
f 1284 1280 1294
f 1294 1280 1279
f 1281 1280 1266
f 1266 1280 1283
f 1292 1293 1281
f 1281 1293 1282
f 1263 1266 1270
f 1270 1266 1283
f 1255 1284 1295
f 1295 1284 1294
f 1252 1291 1261
f 1261 1291 1287
f 1288 1070 1272
f 1272 1070 942
f 1290 1251 1295
f 1295 1251 1255
f 1269 1259 1274
f 1274 1259 1258
f 1280 1284 1283
f 1283 1284 1278
f 1281 1266 1292
f 1292 1266 1265
f 1292 1265 1248
f 1248 1265 1249
f 1295 1294 1297
f 1297 1294 1296
f 1295 1297 1290
f 1290 1297 1298
f 1290 1298 1291
f 1291 1298 1299
f 1291 1299 1287
f 1287 1299 1300
f 1294 1279 1296
f 1296 1279 1301
f 1279 1282 1301
f 1301 1282 1302
f 1302 1282 1303
f 1303 1282 1293
f 1304 1305 1301
f 1301 1305 1296
f 1307 1308 1306
f 1306 1308 1309
f 1310 1311 1307
f 1307 1311 1308
f 1308 1311 1313
f 1313 1311 1312
f 1314 1315 1313
f 1313 1315 1316
f 1312 1317 1313
f 1313 1317 1314
f 1316 1309 1313
f 1313 1309 1308
f 1318 1319 1309
f 1309 1319 1306
f 1311 1310 1312
f 1312 1310 1320
f 1310 1298 1320
f 1320 1298 1297
f 1310 1321 1298
f 1298 1321 1299
f 1307 1322 1310
f 1310 1322 1321
f 1322 1307 1323
f 1323 1307 1306
f 1312 1320 1317
f 1317 1320 1305
f 1305 1320 1296
f 1296 1320 1297
f 1319 1324 1306
f 1306 1324 1323
f 1325 1322 1326
f 1326 1322 1323
f 1324 1327 1323
f 1323 1327 1326
f 1328 1325 1329
f 1329 1325 1326
f 1325 1328 1331
f 1331 1328 1330
f 1327 1332 1326
f 1326 1332 1329
f 1322 1325 1321
f 1321 1325 1331
f 1321 1331 1299
f 1299 1331 1300
f 1324 1319 1334
f 1334 1319 1333
f 1319 1318 1333
f 1333 1318 1335
f 1314 1317 1336
f 1336 1317 1305
f 1315 1314 1337
f 1337 1314 1336
f 1305 1304 1336
f 1336 1304 1338
f 1337 1336 1339
f 1339 1336 1338
f 1337 1340 1315
f 1315 1340 1341
f 1335 1341 1333
f 1333 1341 1340
f 1287 1300 1285
f 1285 1300 1342
f 1286 1343 1293
f 1293 1343 1303
f 1343 1286 1342
f 1342 1286 1285
f 1342 1330 1343
f 1343 1330 1344
f 1330 1328 1344
f 1344 1328 1345
f 1343 1344 1303
f 1303 1344 1346
f 1342 1300 1330
f 1330 1300 1331
f 1347 1302 1346
f 1346 1302 1303
f 1347 1304 1302
f 1302 1304 1301
f 1348 1338 1347
f 1347 1338 1304
f 1348 1347 1349
f 1349 1347 1346
f 1350 1348 1351
f 1351 1348 1349
f 1344 1345 1346
f 1346 1345 1349
f 1345 1352 1349
f 1349 1352 1351
f 1348 1350 1338
f 1338 1350 1339
f 1354 1339 1353
f 1353 1339 1350
f 1353 1356 1355
f 1355 1356 1357
f 1353 1350 1356
f 1356 1350 1351
f 1353 1355 1354
f 1354 1355 1334
f 1354 1334 1340
f 1340 1334 1333
f 1340 1337 1354
f 1354 1337 1339
f 1328 1329 1345
f 1345 1329 1352
f 1357 1352 1332
f 1332 1352 1329
f 1357 1356 1352
f 1352 1356 1351
f 1357 1332 1355
f 1355 1332 1327
f 1327 1324 1355
f 1355 1324 1334
f 1309 1316 1318
f 1318 1316 1335
f 1335 1316 1341
f 1341 1316 1315
f 1259 1072 1260
f 1260 1072 1071
f 1358 1264 1289
f 1289 1264 1263
f 1268 1267 1275
f 1275 1267 1276
f 1267 1269 1276
f 1276 1269 1274
f 941 1273 942
f 942 1273 1272
f 1358 1268 1264
f 1264 1268 1275
f 1260 1071 1288
f 1288 1071 1070
f 1273 941 1289
f 1289 941 977
f 1272 1271 1288
f 1288 1271 1277
f 1259 1269 1072
f 1072 1269 1026
f 1360 1361 1359
f 1359 1361 1362
f 1364 1365 1363
f 1363 1365 1366
f 1363 1366 1367
f 1367 1366 1368
f 1370 1371 1369
f 1369 1371 1372
f 1373 1374 1376
f 1376 1374 1375
f 1377 1378 1364
f 1364 1378 1365
f 1379 1380 1382
f 1382 1380 1381
f 1383 1384 1386
f 1386 1384 1385
f 1387 1385 978
f 978 1385 1384
f 1388 1389 1391
f 1391 1389 1390
f 1378 1392 1365
f 1365 1392 1370
f 1374 1383 1375
f 1375 1383 1386
f 1380 1393 1381
f 1381 1393 1361
f 1394 1392 1362
f 1362 1392 1378
f 1389 1396 1395
f 1395 1396 1368
f 1398 1399 1397
f 1397 1399 1400
f 1388 1401 1389
f 1389 1401 1396
f 1402 1367 1396
f 1396 1367 1368
f 1395 1368 1369
f 1369 1368 1366
f 1359 1403 1360
f 1360 1403 1404
f 1377 1405 1359
f 1359 1405 1403
f 1369 1372 1395
f 1395 1372 1406
f 1379 1388 1376
f 1376 1388 1391
f 1359 1362 1377
f 1377 1362 1378
f 1363 1407 1364
f 1364 1407 1408
f 1393 1394 1361
f 1361 1394 1362
f 1365 1370 1366
f 1366 1370 1369
f 1360 1404 1409
f 1409 1404 1410
f 1402 1398 1411
f 1411 1398 1397
f 1399 1398 1382
f 1382 1398 1401
f 1409 1410 1399
f 1399 1410 1400
f 1388 1379 1401
f 1401 1379 1382
f 1367 1402 1412
f 1412 1402 1411
f 1364 1408 1377
f 1377 1408 1405
f 981 980 1406
f 1406 980 1390
f 1407 1363 1412
f 1412 1363 1367
f 1387 1371 1392
f 1392 1371 1370
f 1398 1402 1401
f 1401 1402 1396
f 1409 1399 1381
f 1381 1399 1382
f 1360 1409 1361
f 1361 1409 1381
f 1412 1411 1414
f 1414 1411 1413
f 1412 1414 1407
f 1407 1414 1415
f 1407 1415 1408
f 1408 1415 1416
f 1408 1416 1405
f 1405 1416 1417
f 1411 1397 1413
f 1413 1397 1418
f 1397 1400 1418
f 1418 1400 1419
f 1419 1400 1420
f 1420 1400 1410
f 1422 1413 1421
f 1421 1413 1418
f 1423 1424 1426
f 1426 1424 1425
f 1427 1428 1424
f 1424 1428 1425
f 1425 1428 1430
f 1430 1428 1429
f 1430 1431 1433
f 1433 1431 1432
f 1429 1434 1430
f 1430 1434 1431
f 1433 1426 1430
f 1430 1426 1425
f 1426 1435 1423
f 1423 1435 1436
f 1428 1427 1429
f 1429 1427 1437
f 1427 1415 1437
f 1437 1415 1414
f 1427 1438 1415
f 1415 1438 1416
f 1439 1438 1424
f 1424 1438 1427
f 1440 1439 1423
f 1423 1439 1424
f 1429 1437 1434
f 1434 1437 1422
f 1422 1437 1413
f 1413 1437 1414
f 1441 1440 1436
f 1436 1440 1423
f 1442 1439 1443
f 1443 1439 1440
f 1441 1444 1440
f 1440 1444 1443
f 1445 1442 1446
f 1446 1442 1443
f 1442 1445 1448
f 1448 1445 1447
f 1444 1449 1443
f 1443 1449 1446
f 1439 1442 1438
f 1438 1442 1448
f 1438 1448 1416
f 1416 1448 1417
f 1436 1450 1441
f 1441 1450 1451
f 1436 1435 1450
f 1450 1435 1452
f 1431 1434 1453
f 1453 1434 1422
f 1431 1453 1432
f 1432 1453 1454
f 1453 1422 1455
f 1455 1422 1421
f 1454 1453 1456
f 1456 1453 1455
f 1457 1458 1454
f 1454 1458 1432
f 1452 1458 1450
f 1450 1458 1457
f 1405 1417 1403
f 1403 1417 1459
f 1404 1460 1410
f 1410 1460 1420
f 1459 1460 1403
f 1403 1460 1404
f 1447 1461 1459
f 1459 1461 1460
f 1445 1462 1447
f 1447 1462 1461
f 1460 1461 1420
f 1420 1461 1463
f 1459 1417 1447
f 1447 1417 1448
f 1464 1419 1463
f 1463 1419 1420
f 1419 1464 1418
f 1418 1464 1421
f 1464 1465 1421
f 1421 1465 1455
f 1465 1464 1466
f 1466 1464 1463
f 1467 1465 1468
f 1468 1465 1466
f 1461 1462 1463
f 1463 1462 1466
f 1462 1469 1466
f 1466 1469 1468
f 1465 1467 1455
f 1455 1467 1456
f 1471 1456 1470
f 1470 1456 1467
f 1470 1473 1472
f 1472 1473 1474
f 1470 1467 1473
f 1473 1467 1468
f 1470 1472 1471
f 1471 1472 1451
f 1471 1451 1457
f 1457 1451 1450
f 1457 1454 1471
f 1471 1454 1456
f 1462 1445 1469
f 1469 1445 1446
f 1474 1469 1449
f 1449 1469 1446
f 1474 1473 1469
f 1469 1473 1468
f 1472 1474 1444
f 1444 1474 1449
f 1444 1441 1472
f 1472 1441 1451
f 1426 1433 1435
f 1435 1433 1452
f 1452 1433 1458
f 1458 1433 1432
f 1371 940 1372
f 1372 940 1068
f 1376 1375 1379
f 1379 1375 1380
f 1393 1386 1394
f 1394 1386 1385
f 1385 1387 1394
f 1394 1387 1392
f 1475 1373 1391
f 1391 1373 1376
f 1375 1386 1380
f 1380 1386 1393
f 1372 1068 1406
f 1406 1068 981
f 1406 1390 1395
f 1395 1390 1389
f 1371 1387 940
f 940 1387 978
f 883 807 1476
f 1476 807 1477
f 1046 904 1479
f 1479 904 1478
f 904 903 1478
f 1478 903 1480
f 1030 1481 1028
f 1028 1481 1482
f 810 1046 1483
f 1483 1046 1479
f 1066 883 1484
f 1484 883 1476
f 807 810 1477
f 1477 810 1483
f 1485 1029 1484
f 1484 1029 1066
f 1028 1482 903
f 903 1482 1480
f 1481 1030 1485
f 1485 1030 1029
f 1484 1486 1485
f 1485 1486 1487
f 1485 1487 1481
f 1481 1487 1488
f 1481 1488 1482
f 1482 1488 1489
f 1482 1489 1480
f 1480 1489 1490
f 1484 1476 1486
f 1486 1476 1491
f 1476 1477 1491
f 1491 1477 1492
f 1477 1483 1492
f 1492 1483 1493
f 1495 1486 1494
f 1494 1486 1491
f 1497 1498 1496
f 1496 1498 1499
f 1500 1501 1497
f 1497 1501 1498
f 1502 1503 1501
f 1501 1503 1498
f 1502 1504 1503
f 1503 1504 1505
f 1506 1499 1503
f 1503 1499 1498
f 1499 1506 1507
f 1507 1506 1508
f 1507 1509 1499
f 1499 1509 1496
f 1502 1501 1510
f 1510 1501 1500
f 1500 1488 1510
f 1510 1488 1487
f 1500 1511 1488
f 1488 1511 1489
f 1497 1512 1500
f 1500 1512 1511
f 1512 1497 1513
f 1513 1497 1496
f 1502 1510 1504
f 1504 1510 1495
f 1495 1510 1486
f 1486 1510 1487
f 1509 1514 1496
f 1496 1514 1513
f 1515 1512 1516
f 1516 1512 1513
f 1514 1517 1513
f 1513 1517 1516
f 1518 1515 1519
f 1519 1515 1516
f 1515 1518 1521
f 1521 1518 1520
f 1517 1522 1516
f 1516 1522 1519
f 1512 1515 1511
f 1511 1515 1521
f 1511 1521 1489
f 1489 1521 1490
f 1514 1509 1524
f 1524 1509 1523
f 1509 1507 1523
f 1523 1507 1508
f 1505 1504 1525
f 1525 1504 1495
f 1526 1505 1527
f 1527 1505 1525
f 1525 1495 1528
f 1528 1495 1494
f 1527 1525 1529
f 1529 1525 1528
f 1527 1530 1526
f 1526 1530 1531
f 1508 1531 1523
f 1523 1531 1530
f 1506 1503 1526
f 1526 1503 1505
f 1508 1506 1531
f 1531 1506 1526
f 1478 1480 1532
f 1532 1480 1490
f 1483 1479 1493
f 1493 1479 1533
f 1532 1533 1478
f 1478 1533 1479
f 1520 1534 1532
f 1532 1534 1533
f 1518 1535 1520
f 1520 1535 1534
f 1533 1534 1493
f 1493 1534 1536
f 1532 1490 1520
f 1520 1490 1521
f 1537 1492 1536
f 1536 1492 1493
f 1492 1537 1491
f 1491 1537 1494
f 1537 1538 1494
f 1494 1538 1528
f 1538 1537 1539
f 1539 1537 1536
f 1540 1538 1541
f 1541 1538 1539
f 1534 1535 1536
f 1536 1535 1539
f 1535 1542 1539
f 1539 1542 1541
f 1538 1540 1528
f 1528 1540 1529
f 1544 1529 1543
f 1543 1529 1540
f 1545 1543 1547
f 1547 1543 1546
f 1543 1540 1546
f 1546 1540 1541
f 1543 1545 1544
f 1544 1545 1524
f 1544 1524 1530
f 1530 1524 1523
f 1530 1527 1544
f 1544 1527 1529
f 1535 1518 1542
f 1542 1518 1519
f 1547 1542 1522
f 1522 1542 1519
f 1547 1546 1542
f 1542 1546 1541
f 1545 1547 1517
f 1517 1547 1522
f 1517 1514 1545
f 1545 1514 1524
f 997 995 986
f 986 995 987
f 987 995 988
f 988 995 971
f 976 1358 977
f 977 1358 1289
f 854 853 1067
f 1067 853 1050
f 1055 985 1069
f 1069 985 962
f 1068 961 981
f 981 961 862
f 1268 1358 920
f 920 1358 976
f 920 976 921
f 921 976 975
f 927 1054 850
f 850 1054 851
f 882 881 1057
f 1057 881 1548
f 1548 1374 1057
f 1057 1374 1373
f 1383 1374 1549
f 1549 1374 1548
f 1549 1548 1550
f 1550 1548 881
f 1550 881 1551
f 1551 881 880
f 933 1552 879
f 879 1552 880
f 1551 880 875
f 875 880 1552
f 1553 1551 878
f 878 1551 875
f 1551 1553 1550
f 1550 1553 1554
f 1550 1554 1549
f 1549 1554 1555
f 978 1384 975
f 975 1384 1555
f 967 849 1556
f 1556 849 852
f 875 1552 876
f 876 1552 933
f 961 939 962
f 962 939 1069
f 1555 1054 975
f 975 1054 921
f 1555 1384 1549
f 1549 1384 1383
f 1391 1390 1475
f 1475 1390 980
f 1373 1475 1057
f 1057 1475 980
f 851 1054 1554
f 1554 1054 1555
f 1554 1553 851
f 851 1553 852
f 878 1556 1553
f 1553 1556 852
f 1556 878 967
f 967 878 877
f 1023 1020 877
f 877 1020 967
f 909 811 1034
f 806 779 873
f 873 779 840
f 805 780 806
f 806 780 779
f 1043 893 1044
f 1044 893 892
f 873 840 847
f 847 840 842
f 840 839 842
f 842 839 843
f 839 791 843
f 843 791 908
f 791 790 908
f 908 790 792
f 809 789 810
f 810 789 1046
f 793 790 809
f 809 790 789
f 809 808 793
f 793 808 1009
f 808 884 1009
f 1009 884 1010
f 1065 1015 884
f 884 1015 1010
f 1032 868 1065
f 1065 868 1015
f 1031 822 1032
f 1032 822 868
f 1031 1027 822
f 822 1027 785
f 1045 905 1046
f 1046 905 904
f 788 781 1019
f 1019 781 894
f 781 780 894
f 894 780 892
f 780 805 892
f 892 805 1044
f 805 804 1044
f 1044 804 891
f 804 1064 891
f 891 1064 888
f 1064 1021 888
f 888 1021 1033
f 1021 1020 1033
f 1033 1020 1034
f 1020 1023 1034
f 1034 1023 909
f 1023 1022 909
f 909 1022 910
f 1043 815 893
f 893 815 819
f 819 815 820
f 820 815 818
f 870 869 818
f 818 869 820
f 1014 1011 870
f 870 1011 869
f 969 972 1014
f 1014 972 1011
f 1036 1063 1022
f 1022 1063 910
f 1035 833 1036
f 1036 833 1063
f 1035 932 979
f 979 932 963
f 834 979 982
f 982 979 958
f 833 1035 834
f 834 1035 979
f 982 863 834
f 834 863 830
f 864 900 831
f 831 900 857
f 990 993 864
f 864 993 900
f 989 994 990
f 990 994 993
f 970 1058 989
f 989 1058 994
f 969 1018 970
f 970 1018 1058
f 1027 902 785
f 785 902 786
f 902 905 786
f 786 905 1019
f 905 1045 1019
f 1019 1045 788
f 788 1045 787
f 787 1045 789
