o hand_left
v -0.292763 -0.254019 0.741412
v -0.301048 -0.251399 0.735540
v -0.292892 -0.243409 0.735389
v -0.284544 -0.247513 0.740826
v -0.310329 -0.236490 0.721598
v -0.310979 -0.235507 0.709440
v -0.298677 -0.227163 0.713379
v -0.300319 -0.228460 0.723359
v -0.276631 -0.243356 0.739281
v -0.286155 -0.237545 0.735303
v -0.271769 -0.242955 0.734435
v -0.263996 -0.255334 0.737807
v -0.268919 -0.251473 0.742243
v -0.259219 -0.261393 0.742901
v -0.265854 -0.264031 0.730482
v -0.258844 -0.271413 0.743083
v -0.284870 -0.287836 0.739885
v -0.295958 -0.292804 0.746310
v -0.284605 -0.293592 0.759926
v -0.274607 -0.287514 0.752249
v -0.304979 -0.295323 0.765529
v -0.293298 -0.294527 0.763148
v -0.304226 -0.295059 0.749392
v -0.314123 -0.295659 0.752266
v -0.307653 -0.262186 0.744108
v -0.315993 -0.261181 0.737914
v -0.310201 -0.258964 0.736694
v -0.302588 -0.259856 0.742306
v -0.269801 -0.235186 0.721269
v -0.271646 -0.248653 0.718780
v -0.269401 -0.247468 0.726858
v -0.271197 -0.232976 0.726483
v -0.343200 -0.256755 0.727149
v -0.349117 -0.261575 0.715892
v -0.344637 -0.260298 0.712259
v -0.340012 -0.256725 0.723472
v -0.326787 -0.249633 0.704767
v -0.332073 -0.256585 0.699930
v -0.327205 -0.261745 0.687946
v -0.319602 -0.257378 0.691993
v -0.319092 -0.242006 0.707757
v -0.313710 -0.247829 0.696202
v -0.306075 -0.240293 0.699923
v -0.294694 -0.230178 0.705436
v -0.358070 -0.267388 0.723170
v -0.355245 -0.264208 0.732493
v -0.246289 -0.235391 0.777053
v -0.250136 -0.235894 0.781434
v -0.251764 -0.239148 0.778744
v -0.247386 -0.238243 0.775001
v -0.358261 -0.285102 0.733137
v -0.354416 -0.294268 0.731114
v -0.360049 -0.293236 0.726552
v -0.362532 -0.284117 0.726936
v -0.352532 -0.286306 0.741289
v -0.346368 -0.294958 0.737277
v -0.234788 -0.239943 0.780603
v -0.237467 -0.237104 0.777255
v -0.237582 -0.241582 0.775207
v -0.235601 -0.244875 0.778651
v -0.276587 -0.251486 0.745263
v -0.285574 -0.254784 0.747487
v -0.267237 -0.256026 0.758261
v -0.274054 -0.256586 0.754606
v -0.269413 -0.255074 0.749394
v -0.263887 -0.255716 0.752602
v -0.294714 -0.265058 0.762533
v -0.302424 -0.264635 0.753713
v -0.296326 -0.262598 0.751776
v -0.286906 -0.261843 0.760552
v -0.314807 -0.266284 0.760558
v -0.306113 -0.267005 0.768595
v -0.314168 -0.267905 0.771571
v -0.319131 -0.266266 0.765519
v -0.289244 -0.268562 0.779947
v -0.284833 -0.269300 0.783962
v -0.287424 -0.268963 0.785173
v -0.292696 -0.269182 0.781099
v -0.365047 -0.293131 0.721490
v -0.365823 -0.283342 0.720460
v -0.325504 -0.293946 0.772739
v -0.335166 -0.288069 0.773216
v -0.328798 -0.288457 0.785478
v -0.320022 -0.295105 0.781688
v -0.346309 -0.299473 0.727080
v -0.353300 -0.300122 0.723504
v -0.235251 -0.242687 0.786081
v -0.236670 -0.247427 0.784045
v -0.300056 -0.251512 0.695772
v -0.288491 -0.237457 0.701731
v -0.309591 -0.261330 0.691546
v -0.316441 -0.268308 0.688778
v -0.322392 -0.272025 0.684106
v -0.275953 -0.258768 0.760982
v -0.294182 -0.259039 0.747241
v -0.312215 -0.263461 0.746208
v -0.336674 -0.265708 0.765140
v -0.343348 -0.264574 0.756939
v -0.333326 -0.261478 0.754538
v -0.329430 -0.263720 0.762114
v -0.338481 -0.278999 0.775520
v -0.334970 -0.271648 0.775511
v -0.329591 -0.273088 0.783079
v -0.332297 -0.280110 0.785015
v -0.270006 -0.233742 0.713544
v -0.274717 -0.248580 0.711396
v -0.359233 -0.274496 0.733105
v -0.361428 -0.274064 0.725590
v -0.364923 -0.275967 0.718072
v -0.328887 -0.258068 0.732058
v -0.337816 -0.256592 0.720963
v -0.334162 -0.255022 0.719274
v -0.325747 -0.258297 0.730991
v -0.311377 -0.247918 0.730273
v -0.320811 -0.245454 0.720586
v -0.302934 -0.239040 0.731289
v -0.339762 -0.258754 0.706010
v -0.350109 -0.261604 0.703558
v -0.343704 -0.260428 0.697439
v -0.356980 -0.265448 0.709489
v -0.362411 -0.270247 0.714759
v -0.359465 -0.303331 0.718535
v -0.336933 -0.260814 0.692356
v -0.292154 -0.223351 0.724452
v -0.285185 -0.217975 0.724154
v -0.281350 -0.222489 0.729406
v -0.288187 -0.228041 0.730887
v -0.254170 -0.263582 0.749325
v -0.258652 -0.257479 0.750220
v -0.263660 -0.255880 0.744220
v -0.340516 -0.257868 0.738393
v -0.350918 -0.263949 0.742490
v -0.268524 -0.257891 0.764552
v -0.237459 -0.249519 0.775856
v -0.239476 -0.245575 0.772127
v -0.248555 -0.257275 0.758978
v -0.245705 -0.262057 0.763287
v -0.264264 -0.261529 0.772601
v -0.266103 -0.257326 0.767477
v -0.264540 -0.256951 0.769222
v -0.263160 -0.259035 0.775314
v -0.296418 -0.270049 0.787332
v -0.301188 -0.270216 0.783421
v -0.266266 -0.283593 0.765653
v -0.256445 -0.281735 0.755150
v -0.265109 -0.281524 0.745312
v -0.301560 -0.266510 0.765243
v -0.295340 -0.267142 0.773583
v -0.298999 -0.268067 0.775449
v -0.275675 -0.260372 0.765471
v -0.269827 -0.260734 0.769637
v -0.274353 -0.262878 0.770164
v -0.280437 -0.262223 0.766757
v -0.341879 -0.288501 0.761618
v -0.345996 -0.277967 0.764642
v -0.241665 -0.235651 0.775771
v -0.242148 -0.239237 0.773729
v -0.308978 -0.266042 0.756530
v -0.276198 -0.280472 0.735021
v -0.317104 -0.264319 0.748668
v -0.302170 -0.289357 0.786998
v -0.305206 -0.283121 0.790211
v -0.300740 -0.279507 0.794078
v -0.297095 -0.284232 0.793657
v -0.255020 -0.249350 0.785376
v -0.256482 -0.245041 0.781743
v -0.253742 -0.241733 0.784111
v -0.251925 -0.245342 0.788376
v -0.264955 -0.255148 0.762060
v -0.261391 -0.254451 0.756755
v -0.259542 -0.252073 0.760532
v -0.262714 -0.253910 0.765381
v -0.256002 -0.256571 0.754286
v -0.253830 -0.253741 0.757870
v -0.249992 -0.253220 0.787082
v -0.242838 -0.254831 0.785269
v -0.251389 -0.267098 0.774952
v -0.257078 -0.262589 0.778221
v -0.322596 -0.297461 0.739661
v -0.332575 -0.296936 0.744747
v -0.324405 -0.295293 0.757452
v -0.316594 -0.295081 0.770384
v -0.308516 -0.293785 0.781919
v -0.297502 -0.296120 0.777021
v -0.332288 -0.294272 0.759769
v -0.266296 -0.271334 0.772203
v -0.258507 -0.275498 0.768378
v -0.265215 -0.277546 0.770363
v -0.323279 -0.263877 0.752900
v -0.243901 -0.242529 0.770536
v -0.318133 -0.289513 0.696416
v -0.325574 -0.297343 0.704220
v -0.318797 -0.294973 0.709334
v -0.310684 -0.285497 0.700874
v -0.254580 -0.241677 0.776116
v -0.249990 -0.240486 0.771685
v -0.305979 -0.270992 0.787853
v -0.300564 -0.270949 0.791055
v -0.301005 -0.272841 0.793699
v -0.307605 -0.271992 0.792753
v -0.338354 -0.295877 0.746069
v -0.323684 -0.285745 0.793146
v -0.316689 -0.292681 0.789111
v -0.339289 -0.298417 0.733496
v -0.330641 -0.299524 0.728940
v -0.336900 -0.301101 0.721578
v -0.283151 -0.290910 0.776410
v -0.314146 -0.296737 0.737555
v -0.323460 -0.298341 0.726394
v -0.330606 -0.300183 0.717471
v -0.336120 -0.302246 0.711511
v -0.342483 -0.302910 0.716626
v -0.239031 -0.252637 0.781265
v -0.240437 -0.249437 0.789272
v -0.348769 -0.306593 0.711137
v -0.341450 -0.305036 0.705581
v -0.315433 -0.295944 0.722477
v -0.306117 -0.291478 0.717643
v -0.306783 -0.294266 0.733473
v -0.296725 -0.289914 0.729535
v -0.274772 -0.293776 0.769740
v -0.241032 -0.233816 0.797709
v -0.244609 -0.243463 0.793258
v -0.249580 -0.241231 0.791197
v -0.245238 -0.232824 0.797410
v -0.247138 -0.248396 0.790488
v -0.239213 -0.244511 0.791198
v -0.286756 -0.280333 0.723021
v -0.270253 -0.264122 0.773313
v -0.296963 -0.278695 0.709084
v -0.274187 -0.266568 0.719495
v -0.283128 -0.263729 0.709500
v -0.306847 -0.275088 0.694345
v -0.295097 -0.263832 0.697727
v -0.320947 -0.282383 0.686427
v -0.314204 -0.279923 0.691401
v -0.285359 -0.250738 0.701785
v -0.246151 -0.227123 0.784243
v -0.249397 -0.228960 0.788532
v -0.324037 -0.292110 0.691078
v -0.294775 -0.233042 0.731413
v -0.329042 -0.260898 0.744112
v -0.324029 -0.261499 0.741407
v -0.346620 -0.264172 0.751401
v -0.336378 -0.259920 0.747310
v -0.241283 -0.226934 0.782137
v -0.282323 -0.271354 0.786895
v -0.283855 -0.272174 0.784841
v -0.292332 -0.221429 0.715601
v -0.286771 -0.217007 0.716649
v -0.278129 -0.222175 0.708035
v -0.283400 -0.218176 0.710744
v -0.288877 -0.223828 0.707990
v -0.283517 -0.228826 0.704900
v -0.331244 -0.257761 0.733430
v -0.334428 -0.257832 0.735820
v -0.347858 -0.287277 0.751010
v -0.351182 -0.276687 0.754426
v -0.251853 -0.261705 0.754548
v -0.252794 -0.271868 0.752008
v -0.250089 -0.267826 0.757937
v -0.247507 -0.267158 0.768106
v -0.267073 -0.266189 0.774173
v -0.261695 -0.267045 0.773541
v -0.327732 -0.250701 0.720342
v -0.319366 -0.255298 0.730390
v -0.281576 -0.233479 0.733420
v -0.275974 -0.228328 0.731014
v -0.287958 -0.264814 0.768564
v -0.276579 -0.282845 0.783579
v -0.270188 -0.284931 0.777214
v -0.281412 -0.265886 0.774410
v -0.234222 -0.229223 0.786153
v -0.237602 -0.227397 0.782964
v -0.251831 -0.273450 0.762305
v -0.306862 -0.268404 0.778835
v -0.283752 -0.285488 0.782519
v -0.279666 -0.277672 0.787718
v -0.328310 -0.279031 0.790281
v -0.331752 -0.299351 0.698074
v -0.252019 -0.237888 0.787252
v -0.249910 -0.231234 0.792984
v -0.237145 -0.234411 0.795893
v -0.233801 -0.233164 0.791072
v -0.354594 -0.274636 0.744155
v -0.320394 -0.261774 0.740007
v -0.278928 -0.239158 0.705034
v -0.273536 -0.228285 0.709076
v -0.278386 -0.267104 0.777401
v -0.308952 -0.289618 0.788370
v -0.293211 -0.291667 0.784980
v -0.288463 -0.286512 0.791950
v -0.282581 -0.282716 0.789061
v -0.280879 -0.276047 0.786876
v -0.237298 -0.229438 0.798425
v -0.233922 -0.227980 0.793741
v -0.234303 -0.224044 0.788933
v -0.237417 -0.222638 0.785758
v -0.241680 -0.223393 0.784580
v -0.241192 -0.228799 0.800397
v -0.244950 -0.227952 0.799860
v -0.249296 -0.228166 0.795126
v -0.242261 -0.224479 0.802355
v -0.237779 -0.221772 0.801999
v -0.237026 -0.210778 0.793948
v -0.234862 -0.216202 0.793213
v -0.234960 -0.214899 0.795594
v -0.236388 -0.210395 0.797142
v -0.237412 -0.206290 0.800099
v -0.238312 -0.205985 0.796643
v -0.235109 -0.218832 0.798028
v -0.236959 -0.213059 0.800837
v -0.239115 -0.215027 0.803923
v -0.239758 -0.210146 0.806371
v -0.237671 -0.208205 0.803788
v -0.237428 -0.218797 0.801892
v -0.234430 -0.220903 0.797292
v -0.239637 -0.203504 0.800338
v -0.238056 -0.204336 0.802173
v -0.238811 -0.205691 0.805149
v -0.241115 -0.203621 0.805211
v -0.237854 -0.217914 0.788106
v -0.238987 -0.210524 0.792211
v -0.241395 -0.206314 0.795838
v -0.242397 -0.203860 0.799630
v -0.243089 -0.210523 0.792647
v -0.244177 -0.207299 0.796148
v -0.245340 -0.205477 0.799603
v -0.246827 -0.211449 0.794538
v -0.246790 -0.208474 0.797590
v -0.245678 -0.221398 0.787854
v -0.241896 -0.220325 0.786178
v -0.247161 -0.206637 0.799472
v -0.243357 -0.203894 0.804946
v -0.241453 -0.217756 0.804822
v -0.242794 -0.211251 0.806982
v -0.243778 -0.218325 0.804828
v -0.245064 -0.212027 0.807331
v -0.242611 -0.207065 0.808367
v -0.240348 -0.207393 0.807084
v -0.246179 -0.225243 0.786164
v -0.249304 -0.227157 0.790795
v -0.249036 -0.223964 0.792372
v -0.249491 -0.213654 0.797860
v -0.249347 -0.224880 0.796730
v -0.245909 -0.223787 0.801661
v -0.246558 -0.217420 0.804362
v -0.249002 -0.216246 0.802240
v -0.247211 -0.212333 0.805868
v -0.248455 -0.211840 0.803645
v -0.248782 -0.209958 0.800303
v -0.247069 -0.208264 0.805883
v -0.244793 -0.207557 0.807747
v -0.246056 -0.205495 0.803513
v -0.248107 -0.209087 0.804357
v -0.247346 -0.207359 0.802014
v -0.264107 -0.244635 0.795946
v -0.269198 -0.245766 0.799641
v -0.268769 -0.249765 0.796917
v -0.264404 -0.248505 0.793937
v -0.252637 -0.249872 0.802033
v -0.255541 -0.246627 0.797587
v -0.254896 -0.251181 0.795380
v -0.252941 -0.255397 0.800448
v -0.254921 -0.253512 0.807612
v -0.255882 -0.259076 0.805402
v -0.253867 -0.260259 0.796866
v -0.256151 -0.255672 0.791793
v -0.264240 -0.268600 0.777483
v -0.262266 -0.273946 0.781139
v -0.280474 -0.266497 0.785271
v -0.279963 -0.268500 0.788253
v -0.260051 -0.244985 0.795782
v -0.259605 -0.249123 0.793633
v -0.274020 -0.256657 0.801300
v -0.273543 -0.253357 0.796877
v -0.271957 -0.250999 0.800457
v -0.271727 -0.253926 0.805181
v -0.271298 -0.264186 0.776835
v -0.276189 -0.265638 0.780970
v -0.267695 -0.265397 0.776394
v -0.270633 -0.260807 0.805311
v -0.264667 -0.264071 0.806491
v -0.271169 -0.277829 0.792180
v -0.276097 -0.274043 0.793290
v -0.260182 -0.252462 0.789761
v -0.269960 -0.251138 0.792975
v -0.265554 -0.250658 0.790079
v -0.257872 -0.264006 0.801923
v -0.262669 -0.258887 0.809915
v -0.265728 -0.240699 0.816439
v -0.267462 -0.251770 0.811587
v -0.270827 -0.249438 0.808340
v -0.269684 -0.238386 0.814529
v -0.268485 -0.256639 0.809030
v -0.261701 -0.253578 0.811689
v -0.265695 -0.231397 0.803517
v -0.270621 -0.232797 0.807282
v -0.261169 -0.231430 0.802746
v -0.265277 -0.277906 0.786473
v -0.253997 -0.237375 0.807129
v -0.257409 -0.233277 0.803360
v -0.271928 -0.247357 0.803780
v -0.271745 -0.235230 0.811491
v -0.261281 -0.241618 0.816097
v -0.255375 -0.241671 0.812010
v -0.260643 -0.235765 0.817694
v -0.255730 -0.235532 0.814159
v -0.254188 -0.232040 0.809305
v -0.257463 -0.229460 0.805534
v -0.261311 -0.228635 0.804523
v -0.264577 -0.234764 0.818397
v -0.268714 -0.233066 0.816949
v -0.271003 -0.232013 0.812716
v -0.266262 -0.226924 0.819491
v -0.261632 -0.226216 0.819613
v -0.257821 -0.211647 0.809594
v -0.256561 -0.217519 0.809326
v -0.256267 -0.217364 0.811931
v -0.257566 -0.212014 0.812387
v -0.254613 -0.223163 0.810916
v -0.255294 -0.221711 0.812764
v -0.257209 -0.223849 0.816433
v -0.258940 -0.218012 0.815930
v -0.262485 -0.219428 0.818906
v -0.263205 -0.213762 0.819723
v -0.259473 -0.212171 0.817066
v -0.260231 -0.223202 0.818746
v -0.258823 -0.208772 0.813491
v -0.260181 -0.207083 0.812058
v -0.256144 -0.226585 0.816424
v -0.256781 -0.225960 0.806251
v -0.258415 -0.217192 0.806826
v -0.260484 -0.210933 0.807744
v -0.263163 -0.206603 0.811409
v -0.262444 -0.216632 0.805728
v -0.263738 -0.210847 0.807423
v -0.265651 -0.207683 0.810952
v -0.267133 -0.216686 0.806402
v -0.267806 -0.211217 0.808570
v -0.265837 -0.227384 0.805124
v -0.261124 -0.226476 0.804133
v -0.267471 -0.209177 0.810339
v -0.261909 -0.206508 0.816556
v -0.264952 -0.205921 0.815136
v -0.260850 -0.208028 0.816831
v -0.264499 -0.219872 0.819569
v -0.265481 -0.213500 0.819638
v -0.267376 -0.219865 0.819347
v -0.267788 -0.212760 0.819167
v -0.265026 -0.208777 0.819309
v -0.263331 -0.209129 0.819197
v -0.265525 -0.229490 0.805671
v -0.269876 -0.230777 0.809035
v -0.270078 -0.228694 0.808600
v -0.270791 -0.217791 0.810066
v -0.271281 -0.229329 0.813078
v -0.269445 -0.227515 0.817460
v -0.269888 -0.220000 0.817919
v -0.271657 -0.218854 0.814523
v -0.269940 -0.212926 0.818646
v -0.271198 -0.213970 0.815804
v -0.270639 -0.212459 0.811256
v -0.268845 -0.208377 0.817809
v -0.266689 -0.208257 0.818856
v -0.266783 -0.206817 0.814149
v -0.270347 -0.210093 0.815806
v -0.268874 -0.208837 0.812684
v -0.280451 -0.253239 0.801348
v -0.285666 -0.254045 0.803838
v -0.286178 -0.257098 0.801628
v -0.280980 -0.256490 0.799368
v -0.271425 -0.259664 0.808090
v -0.272374 -0.256194 0.804574
v -0.272564 -0.260161 0.802127
v -0.271627 -0.264816 0.805014
v -0.273786 -0.260981 0.813154
v -0.274432 -0.268082 0.809599
v -0.272492 -0.269534 0.801939
v -0.273257 -0.263903 0.799482
v -0.279411 -0.273429 0.789448
v -0.278816 -0.278873 0.793216
v -0.275988 -0.254235 0.802247
v -0.276358 -0.257457 0.800140
v -0.291088 -0.262641 0.806496
v -0.290040 -0.259623 0.802739
v -0.289196 -0.258896 0.805750
v -0.289277 -0.261370 0.809388
v -0.287831 -0.267863 0.786587
v -0.293157 -0.269196 0.789114
v -0.283000 -0.269148 0.787493
v -0.288279 -0.267530 0.810116
v -0.282610 -0.272257 0.810465
v -0.290733 -0.279953 0.800927
v -0.295189 -0.275973 0.799440
v -0.276612 -0.260227 0.797767
v -0.286848 -0.258046 0.798713
v -0.281539 -0.257825 0.796837
v -0.276392 -0.272571 0.806088
v -0.280587 -0.267638 0.813523
v -0.282092 -0.246659 0.822789
v -0.285064 -0.261208 0.815592
v -0.288542 -0.258148 0.811728
v -0.285682 -0.244974 0.820659
v -0.286353 -0.264610 0.813333
v -0.279421 -0.262647 0.816207
v -0.280426 -0.240301 0.808765
v -0.284927 -0.241384 0.811764
v -0.276193 -0.242204 0.808550
v -0.283179 -0.282113 0.797936
v -0.297191 -0.271620 0.795016
v -0.271108 -0.245328 0.813470
v -0.273301 -0.243463 0.810048
v -0.288535 -0.256069 0.807884
v -0.287117 -0.243218 0.816696
v -0.277382 -0.248557 0.822454
v -0.272314 -0.248666 0.818409
v -0.277148 -0.243068 0.823625
v -0.272091 -0.243548 0.819504
v -0.270788 -0.241316 0.814171
v -0.273547 -0.240180 0.810371
v -0.276671 -0.239273 0.808891
v -0.282154 -0.241268 0.823391
v -0.285435 -0.240186 0.821183
v -0.286670 -0.241465 0.816437
v -0.282941 -0.236809 0.823494
v -0.277539 -0.235662 0.823916
v -0.274952 -0.222033 0.813138
v -0.273923 -0.228081 0.813389
v -0.273978 -0.228022 0.814616
v -0.274625 -0.221902 0.814880
v -0.271849 -0.234420 0.815247
v -0.272465 -0.232821 0.816210
v -0.273539 -0.233937 0.819849
v -0.274900 -0.227377 0.819846
v -0.279990 -0.228747 0.822991
v -0.280210 -0.223110 0.822369
v -0.275511 -0.221446 0.819659
v -0.276997 -0.233745 0.822834
v -0.275483 -0.218669 0.815658
v -0.275124 -0.217743 0.814003
v -0.272770 -0.236386 0.820319
v -0.273637 -0.235649 0.810815
v -0.275142 -0.228259 0.810601
v -0.276260 -0.222192 0.810227
v -0.277971 -0.218194 0.811666
v -0.278658 -0.228609 0.809008
v -0.279229 -0.223074 0.809480
v -0.280674 -0.219478 0.810924
v -0.282039 -0.228830 0.809291
v -0.282317 -0.223964 0.810079
v -0.281038 -0.237811 0.809141
v -0.277069 -0.236866 0.808858
v -0.282508 -0.220954 0.811233
v -0.277507 -0.216446 0.817978
v -0.281287 -0.216385 0.815980
v -0.276885 -0.218016 0.818487
v -0.281534 -0.229592 0.823631
v -0.282462 -0.222544 0.822887
v -0.284284 -0.230015 0.822882
v -0.285010 -0.223066 0.822102
v -0.281016 -0.218338 0.821428
v -0.279968 -0.219009 0.821327
v -0.280644 -0.239254 0.809265
v -0.284777 -0.240418 0.812162
v -0.284969 -0.238971 0.811856
v -0.286148 -0.229126 0.812002
v -0.286979 -0.239500 0.816115
v -0.285961 -0.236105 0.821109
v -0.286442 -0.229941 0.820270
v -0.287610 -0.229353 0.816517
v -0.286633 -0.223769 0.819876
v -0.287037 -0.224940 0.817239
v -0.285877 -0.224270 0.812420
v -0.285219 -0.220039 0.818209
v -0.283552 -0.218628 0.820365
v -0.283413 -0.218223 0.814329
v -0.286156 -0.221532 0.816304
v -0.284670 -0.220312 0.813380
v -0.296395 -0.270114 0.792016
v -0.297954 -0.261998 0.805985
v -0.301660 -0.261097 0.807853
v -0.302911 -0.262645 0.807020
v -0.299723 -0.263579 0.804219
v -0.293131 -0.271653 0.809979
v -0.292870 -0.267637 0.807408
v -0.294338 -0.270727 0.804834
v -0.294766 -0.274665 0.807349
v -0.296303 -0.273659 0.813621
v -0.298352 -0.276099 0.811368
v -0.296867 -0.276713 0.805094
v -0.296458 -0.272816 0.802251
v -0.304278 -0.280517 0.791854
v -0.306281 -0.285475 0.793537
v -0.323885 -0.276493 0.794835
v -0.322854 -0.272546 0.791527
v -0.317711 -0.270217 0.798235
v -0.319525 -0.273955 0.800608
v -0.294881 -0.264424 0.806045
v -0.296394 -0.266443 0.803326
v -0.310154 -0.267725 0.811852
v -0.308473 -0.264523 0.808604
v -0.306117 -0.262940 0.809745
v -0.308015 -0.264994 0.813550
v -0.318065 -0.270637 0.790314
v -0.313362 -0.271223 0.790238
v -0.311032 -0.269580 0.792834
v -0.313729 -0.268643 0.796036
v -0.306200 -0.272795 0.792434
v -0.309164 -0.271647 0.813509
v -0.305522 -0.276511 0.813095
v -0.317968 -0.283928 0.801166
v -0.320040 -0.279277 0.801102
v -0.297649 -0.268250 0.801956
v -0.305168 -0.263780 0.805285
v -0.301469 -0.264586 0.803448
v -0.300437 -0.278627 0.809312
v -0.303254 -0.273740 0.815101
v -0.301397 -0.261011 0.821864
v -0.305625 -0.267137 0.817461
v -0.306764 -0.263203 0.814728
v -0.302859 -0.258686 0.819976
v -0.306958 -0.268964 0.815624
v -0.301265 -0.271010 0.817450
v -0.295553 -0.256743 0.809837
v -0.300151 -0.256227 0.812820
v -0.292568 -0.258582 0.809680
v -0.311518 -0.287434 0.797034
v -0.289731 -0.264118 0.814238
v -0.290211 -0.260678 0.811297
v -0.304607 -0.261303 0.810954
v -0.302714 -0.256872 0.816583
v -0.297513 -0.264037 0.822030
v -0.292681 -0.266607 0.818522
v -0.295113 -0.259489 0.823279
v -0.290589 -0.262601 0.819609
v -0.288677 -0.260553 0.814257
v -0.290552 -0.258655 0.811135
v -0.293111 -0.257018 0.809768
v -0.299321 -0.256787 0.822953
v -0.301156 -0.255339 0.821077
v -0.301713 -0.254946 0.817348
v -0.297421 -0.252898 0.823253
v -0.292582 -0.253496 0.822692
v -0.288010 -0.245311 0.812900
v -0.288549 -0.249641 0.812711
v -0.288237 -0.249617 0.813947
v -0.287239 -0.245416 0.813735
v -0.288427 -0.255117 0.814140
v -0.288308 -0.253701 0.815301
v -0.289287 -0.254992 0.818596
v -0.288251 -0.249479 0.818317
v -0.291763 -0.247800 0.822121
v -0.290431 -0.243612 0.821505
v -0.287179 -0.245530 0.818446
v -0.291110 -0.252508 0.821798
v -0.286355 -0.242793 0.814744
v -0.286517 -0.241626 0.813895
v -0.289231 -0.257214 0.819009
v -0.290733 -0.255326 0.810651
v -0.289786 -0.248571 0.810616
v -0.288768 -0.243428 0.811400
v -0.288297 -0.240023 0.813475
v -0.292264 -0.248547 0.809680
v -0.290910 -0.242725 0.810576
v -0.290557 -0.239586 0.812772
v -0.295624 -0.247949 0.810128
v -0.293501 -0.242662 0.811163
v -0.297449 -0.253926 0.810246
v -0.293892 -0.254493 0.809455
v -0.292250 -0.240213 0.812823
v -0.286895 -0.240237 0.817676
v -0.289329 -0.238717 0.816466
v -0.286485 -0.241742 0.818422
v -0.293137 -0.247534 0.822752
v -0.291708 -0.242436 0.821947
v -0.295610 -0.246944 0.822723
v -0.293645 -0.241537 0.821219
v -0.289518 -0.239942 0.820309
v -0.288547 -0.241709 0.820408
v -0.296722 -0.255165 0.810450
v -0.299660 -0.254771 0.813218
v -0.300306 -0.253122 0.813643
v -0.298582 -0.247213 0.813163
v -0.301504 -0.252907 0.817991
v -0.300088 -0.252675 0.821584
v -0.297808 -0.246468 0.821005
v -0.299246 -0.246318 0.817796
v -0.295081 -0.241015 0.819540
v -0.296529 -0.241478 0.816804
v -0.296056 -0.242036 0.813422
v -0.292492 -0.238850 0.817493
v -0.291131 -0.238774 0.818898
v -0.291263 -0.238629 0.815480
v -0.293844 -0.239359 0.816088
v -0.293257 -0.239590 0.814499
v -0.322380 -0.279866 0.796870
v -0.262738 -0.220313 0.717178
v -0.262770 -0.221645 0.722927
v -0.272990 -0.210744 0.728806
v -0.268171 -0.215524 0.730437
v -0.275384 -0.206954 0.723871
v -0.273774 -0.208474 0.713433
v -0.276188 -0.207239 0.718171
v -0.264507 -0.219576 0.728345
v -0.264962 -0.217656 0.712108
v -0.269671 -0.212759 0.710073
v -0.257935 -0.213728 0.712553
v -0.262882 -0.207942 0.710929
v -0.266623 -0.203165 0.714026
v -0.269844 -0.202357 0.719958
v -0.270462 -0.202862 0.724901
v -0.257367 -0.217353 0.718779
v -0.258034 -0.218404 0.724465
v -0.261483 -0.216211 0.729865
v -0.251801 -0.214538 0.722549
v -0.247166 -0.205838 0.721927
v -0.248496 -0.187682 0.727789
v -0.253950 -0.191134 0.725717
v -0.251557 -0.192157 0.724288
v -0.246894 -0.188640 0.725768
v -0.255988 -0.194784 0.722017
v -0.253533 -0.195203 0.722328
v -0.250879 -0.199772 0.720941
v -0.246839 -0.196447 0.722373
v -0.247216 -0.203167 0.722438
v -0.244179 -0.201806 0.724476
v -0.242720 -0.193392 0.723970
v -0.243038 -0.187887 0.725686
v -0.239391 -0.190797 0.725671
v -0.243300 -0.186886 0.728756
v -0.250843 -0.199923 0.718497
v -0.262965 -0.196488 0.723000
v -0.257060 -0.191850 0.727872
v -0.250340 -0.188525 0.731001
v -0.244035 -0.187743 0.731831
v -0.258561 -0.193971 0.731472
v -0.251716 -0.191630 0.733943
v -0.245783 -0.191557 0.734662
v -0.257955 -0.197711 0.734526
v -0.251293 -0.195206 0.735614
v -0.267107 -0.205115 0.730399
v -0.267081 -0.199861 0.726739
v -0.247005 -0.194113 0.735335
v -0.237973 -0.190068 0.727988
v -0.238767 -0.191169 0.731464
v -0.243649 -0.204999 0.725789
v -0.239897 -0.199013 0.725378
v -0.239562 -0.201066 0.727764
v -0.244943 -0.208142 0.728102
v -0.240100 -0.202602 0.730297
v -0.236939 -0.196161 0.728227
v -0.238232 -0.195307 0.725746
v -0.269763 -0.207014 0.729330
v -0.266459 -0.212305 0.730956
v -0.263621 -0.210814 0.731736
v -0.255313 -0.203739 0.735726
v -0.258449 -0.214665 0.731250
v -0.253842 -0.215863 0.727049
v -0.246828 -0.209210 0.731366
v -0.250716 -0.208050 0.734339
v -0.242498 -0.202816 0.733176
v -0.245132 -0.202053 0.734753
v -0.248661 -0.198788 0.736271
v -0.240532 -0.198017 0.733603
v -0.237787 -0.197459 0.731185
v -0.241631 -0.193833 0.734229
v -0.243238 -0.198719 0.734591
v -0.244615 -0.196034 0.735190
v -0.326094 -0.273077 0.786870
v -0.320501 -0.270234 0.784918
v -0.325105 -0.269770 0.780540
v -0.330732 -0.267608 0.773292
v -0.339838 -0.270082 0.768330
v -0.324799 -0.266226 0.769787
v -0.319315 -0.268398 0.777530
v -0.312721 -0.269575 0.783789
v -0.323716 -0.264803 0.759567
f 2 3 1
f 1 3 4
f 5 6 8
f 8 6 7
f 9 4 10
f 10 4 3
f 12 13 11
f 11 13 9
f 14 12 16
f 16 12 15
f 18 19 17
f 17 19 20
f 22 23 21
f 21 23 24
f 26 27 25
f 25 27 28
f 30 31 29
f 29 31 32
f 33 34 36
f 36 34 35
f 37 38 40
f 40 38 39
f 41 42 6
f 6 42 43
f 6 43 7
f 7 43 44
f 45 34 46
f 46 34 33
f 48 49 47
f 47 49 50
f 52 53 51
f 51 53 54
f 56 52 55
f 55 52 51
f 58 59 57
f 57 59 60
f 61 62 4
f 4 62 1
f 64 65 63
f 63 65 66
f 68 69 67
f 67 69 70
f 72 73 71
f 71 73 74
f 76 77 75
f 75 77 78
f 53 79 54
f 54 79 80
f 82 83 81
f 81 83 84
f 85 86 52
f 52 86 53
f 57 60 87
f 87 60 88
f 89 90 43
f 43 90 44
f 43 42 89
f 89 42 91
f 40 39 92
f 92 39 93
f 94 70 64
f 64 70 69
f 13 61 9
f 9 61 4
f 25 28 69
f 69 28 95
f 96 25 68
f 68 25 69
f 98 99 97
f 97 99 100
f 101 102 104
f 104 102 103
f 106 30 105
f 105 30 29
f 51 54 107
f 107 54 108
f 54 80 108
f 108 80 109
f 111 112 110
f 110 112 113
f 115 5 114
f 114 5 116
f 115 41 5
f 5 41 6
f 36 35 111
f 111 35 117
f 35 118 117
f 117 118 119
f 34 120 35
f 35 120 118
f 34 45 120
f 120 45 121
f 125 126 124
f 124 126 127
f 128 129 14
f 14 129 130
f 33 131 46
f 46 131 132
f 133 94 63
f 63 94 64
f 134 135 137
f 137 135 136
f 139 140 138
f 138 140 141
f 77 142 78
f 78 142 143
f 144 145 20
f 20 145 146
f 148 149 147
f 147 149 72
f 151 152 150
f 150 152 153
f 82 101 83
f 83 101 104
f 101 82 155
f 155 82 154
f 156 157 58
f 58 157 59
f 158 68 147
f 147 68 67
f 159 146 15
f 15 146 16
f 68 158 96
f 96 158 160
f 129 66 130
f 130 66 65
f 162 163 161
f 161 163 164
f 166 167 165
f 165 167 168
f 170 171 169
f 169 171 172
f 174 171 173
f 173 171 170
f 176 177 175
f 175 177 178
f 180 181 179
f 179 181 24
f 182 183 21
f 21 183 184
f 81 185 82
f 82 185 154
f 186 187 188
f 188 187 144
f 158 71 160
f 160 71 189
f 190 135 157
f 157 135 59
f 169 172 139
f 139 172 140
f 147 72 158
f 158 72 71
f 192 193 191
f 191 193 194
f 167 166 49
f 49 166 195
f 196 190 50
f 50 190 157
f 197 198 200
f 200 198 199
f 21 24 182
f 182 24 181
f 146 159 20
f 20 159 17
f 182 181 81
f 81 181 185
f 201 185 180
f 180 185 181
f 202 203 83
f 83 203 84
f 205 206 204
f 204 206 85
f 207 22 184
f 184 22 21
f 179 24 208
f 208 24 23
f 208 209 179
f 179 209 205
f 209 210 205
f 205 210 206
f 212 206 211
f 211 206 210
f 179 205 180
f 180 205 204
f 213 176 88
f 88 176 214
f 86 85 212
f 212 85 206
f 193 217 218
f 217 219 218
f 218 219 220
f 219 18 220
f 220 18 17
f 19 221 20
f 20 221 144
f 222 223 225
f 225 223 224
f 175 226 176
f 176 226 214
f 227 87 214
f 214 87 88
f 220 17 228
f 228 17 159
f 134 213 60
f 60 213 88
f 138 229 151
f 151 229 152
f 193 192 210
f 210 192 211
f 230 194 218
f 218 194 193
f 231 232 228
f 228 232 230
f 233 234 91
f 91 234 89
f 235 236 93
f 93 236 92
f 230 232 234
f 234 232 237
f 47 238 48
f 48 238 239
f 240 191 235
f 235 191 236
f 5 8 116
f 116 8 241
f 242 243 189
f 189 243 160
f 244 245 98
f 98 245 99
f 156 246 47
f 47 246 238
f 76 247 77
f 77 247 248
f 250 125 249
f 249 125 124
f 252 253 251
f 251 253 254
f 111 110 36
f 36 110 255
f 256 33 255
f 255 33 36
f 257 258 154
f 154 258 155
f 63 169 133
f 133 169 139
f 66 170 63
f 63 170 169
f 173 170 129
f 129 170 66
f 129 128 173
f 173 128 259
f 128 260 259
f 259 260 261
f 213 134 262
f 262 134 137
f 263 264 186
f 186 264 187
f 112 265 113
f 113 265 266
f 11 267 268
f 234 233 230
f 230 233 194
f 153 269 70
f 70 269 67
f 175 178 165
f 165 178 141
f 150 153 94
f 94 153 70
f 271 221 270
f 270 221 207
f 269 153 272
f 272 153 152
f 121 45 109
f 109 45 108
f 47 50 156
f 156 50 157
f 57 273 58
f 58 273 274
f 145 275 260
f 260 275 261
f 276 149 143
f 143 149 78
f 148 269 75
f 75 269 272
f 207 277 270
f 270 277 278
f 195 196 49
f 49 196 50
f 59 135 60
f 60 135 134
f 83 104 202
f 202 104 279
f 149 148 78
f 78 148 75
f 247 278 248
f 248 278 277
f 183 182 84
f 84 182 81
f 48 239 281
f 281 239 282
f 227 223 283
f 283 223 222
f 223 226 224
f 224 226 168
f 281 282 224
f 224 282 225
f 165 168 175
f 175 168 226
f 264 263 138
f 138 263 229
f 14 16 128
f 128 16 260
f 220 228 218
f 218 228 230
f 87 227 284
f 284 227 283
f 260 16 145
f 145 16 146
f 244 98 258
f 258 98 155
f 58 274 156
f 156 274 246
f 107 285 51
f 51 285 55
f 243 286 160
f 160 286 96
f 234 237 89
f 89 237 90
f 46 132 107
f 107 132 285
f 253 252 249
f 249 252 250
f 286 26 96
f 96 26 25
f 106 105 287
f 287 105 288
f 272 152 289
f 289 152 229
f 138 151 139
f 139 151 133
f 183 290 161
f 161 290 162
f 291 292 277
f 277 292 293
f 151 150 133
f 133 150 94
f 262 275 177
f 177 275 187
f 144 187 145
f 145 187 275
f 273 57 284
f 284 57 87
f 174 136 190
f 190 136 135
f 111 117 112
f 112 117 38
f 117 119 38
f 38 119 123
f 112 38 265
f 265 38 37
f 287 288 254
f 254 288 251
f 228 159 231
f 231 159 15
f 223 227 226
f 226 227 214
f 147 67 148
f 148 67 269
f 224 168 281
f 281 168 167
f 199 163 200
f 200 163 162
f 45 46 108
f 108 46 107
f 281 167 48
f 48 167 49
f 161 164 291
f 291 164 292
f 38 123 39
f 293 294 277
f 277 294 248
f 284 283 296
f 296 283 295
f 284 296 273
f 273 296 297
f 274 273 298
f 298 273 297
f 246 274 299
f 299 274 298
f 283 222 295
f 295 222 300
f 222 225 300
f 300 225 301
f 301 225 302
f 302 225 282
f 303 304 300
f 300 304 295
f 306 307 305
f 305 307 308
f 309 310 308
f 308 310 305
f 308 307 312
f 312 307 311
f 313 314 312
f 312 314 315
f 311 316 312
f 312 316 313
f 317 304 311
f 311 304 316
f 315 309 312
f 312 309 308
f 318 319 321
f 321 319 320
f 319 318 309
f 309 318 310
f 311 307 317
f 317 307 306
f 306 297 317
f 317 297 296
f 306 322 297
f 297 322 298
f 305 323 306
f 306 323 322
f 323 305 324
f 324 305 310
f 304 317 295
f 295 317 296
f 318 325 310
f 310 325 324
f 323 324 326
f 326 324 327
f 324 325 327
f 327 325 328
f 326 327 329
f 329 327 330
f 329 331 326
f 326 331 332
f 333 330 328
f 328 330 327
f 323 326 322
f 322 326 332
f 322 332 298
f 298 332 299
f 325 318 334
f 334 318 321
f 313 316 335
f 335 316 304
f 335 336 313
f 313 336 314
f 304 303 335
f 335 303 337
f 336 335 338
f 338 335 337
f 336 339 314
f 314 339 340
f 246 299 238
f 238 299 341
f 239 342 282
f 282 342 302
f 342 239 341
f 341 239 238
f 341 331 342
f 342 331 343
f 331 329 343
f 343 329 344
f 342 343 302
f 302 343 345
f 341 299 331
f 331 299 332
f 346 301 345
f 345 301 302
f 346 303 301
f 301 303 300
f 347 337 346
f 346 337 303
f 347 346 348
f 348 346 345
f 349 347 350
f 350 347 348
f 343 344 345
f 345 344 348
f 344 351 348
f 348 351 350
f 337 347 338
f 338 347 349
f 353 338 352
f 352 338 349
f 352 355 354
f 354 355 356
f 352 349 355
f 355 349 350
f 352 354 353
f 353 354 334
f 353 334 339
f 339 334 321
f 339 336 353
f 353 336 338
f 329 330 344
f 344 330 351
f 356 351 333
f 333 351 330
f 356 355 351
f 351 355 350
f 354 356 328
f 328 356 333
f 328 325 354
f 354 325 334
f 309 315 319
f 319 315 320
f 320 340 321
f 321 340 339
f 320 315 340
f 340 315 314
f 137 136 261
f 261 136 259
f 140 166 141
f 141 166 165
f 172 171 195
f 195 171 196
f 171 174 196
f 196 174 190
f 178 177 264
f 264 177 187
f 172 195 140
f 140 195 166
f 137 261 262
f 262 261 275
f 178 264 141
f 141 264 138
f 262 177 213
f 213 177 176
f 136 174 259
f 259 174 173
f 358 359 357
f 357 359 360
f 362 363 361
f 361 363 364
f 361 364 365
f 365 364 366
f 367 368 370
f 370 368 369
f 76 371 247
f 247 371 372
f 373 374 362
f 362 374 363
f 376 377 375
f 375 377 378
f 289 229 380
f 380 229 379
f 381 379 263
f 263 379 229
f 383 384 382
f 382 384 385
f 386 368 374
f 374 368 363
f 76 289 371
f 371 289 380
f 377 376 359
f 359 376 387
f 388 386 360
f 360 386 374
f 389 383 366
f 366 383 390
f 392 393 391
f 391 393 394
f 383 382 390
f 390 382 395
f 396 365 390
f 390 365 366
f 389 366 367
f 367 366 364
f 357 397 358
f 358 397 398
f 373 399 357
f 357 399 397
f 389 367 400
f 400 367 370
f 382 385 375
f 375 385 372
f 357 360 373
f 373 360 374
f 361 401 362
f 362 401 402
f 387 388 359
f 359 388 360
f 363 368 364
f 364 368 367
f 358 398 403
f 403 398 404
f 396 392 405
f 405 392 391
f 392 395 393
f 393 395 378
f 393 403 394
f 394 403 404
f 375 378 382
f 382 378 395
f 365 396 406
f 406 396 405
f 362 402 373
f 373 402 399
f 271 270 400
f 400 270 384
f 401 361 406
f 406 361 365
f 381 369 386
f 386 369 368
f 392 396 395
f 395 396 390
f 393 378 403
f 403 378 377
f 403 377 358
f 358 377 359
f 406 405 408
f 408 405 407
f 406 408 401
f 401 408 409
f 401 409 402
f 402 409 410
f 402 410 399
f 399 410 411
f 405 391 407
f 407 391 412
f 391 394 412
f 412 394 413
f 394 404 413
f 413 404 414
f 415 416 412
f 412 416 407
f 418 419 417
f 417 419 420
f 421 422 418
f 418 422 419
f 419 422 424
f 424 422 423
f 425 426 424
f 424 426 427
f 423 428 424
f 424 428 425
f 427 420 424
f 424 420 419
f 420 429 417
f 417 429 430
f 423 422 431
f 431 422 421
f 421 409 431
f 431 409 408
f 421 432 409
f 409 432 410
f 418 433 421
f 421 433 432
f 434 433 417
f 417 433 418
f 431 416 423
f 423 416 428
f 416 431 407
f 407 431 408
f 435 434 430
f 430 434 417
f 433 434 436
f 436 434 437
f 434 435 437
f 437 435 438
f 436 437 439
f 439 437 440
f 439 441 436
f 436 441 442
f 438 443 437
f 437 443 440
f 436 442 433
f 433 442 432
f 432 442 410
f 410 442 411
f 435 430 445
f 445 430 444
f 430 429 444
f 444 429 446
f 425 428 447
f 447 428 416
f 426 425 448
f 448 425 447
f 416 415 447
f 447 415 449
f 447 449 448
f 448 449 450
f 451 452 448
f 448 452 426
f 446 452 444
f 444 452 451
f 399 411 397
f 397 411 453
f 398 454 404
f 404 454 414
f 454 398 453
f 453 398 397
f 453 441 454
f 454 441 455
f 441 439 455
f 455 439 456
f 454 455 414
f 414 455 457
f 441 453 442
f 442 453 411
f 458 413 457
f 457 413 414
f 458 415 413
f 413 415 412
f 458 459 415
f 415 459 449
f 459 458 460
f 460 458 457
f 461 459 462
f 462 459 460
f 455 456 457
f 457 456 460
f 456 463 460
f 460 463 462
f 459 461 449
f 449 461 450
f 465 450 464
f 464 450 461
f 464 467 466
f 466 467 468
f 464 461 467
f 467 461 462
f 464 466 465
f 465 466 445
f 465 445 451
f 451 445 444
f 451 448 465
f 465 448 450
f 439 440 456
f 456 440 463
f 468 463 443
f 443 463 440
f 468 467 463
f 463 467 462
f 466 468 438
f 438 468 443
f 438 435 466
f 466 435 445
f 420 427 429
f 429 427 446
f 446 427 452
f 452 427 426
f 370 369 188
f 188 369 186
f 371 376 372
f 372 376 375
f 380 379 387
f 387 379 388
f 379 381 388
f 388 381 386
f 385 384 278
f 278 384 270
f 380 387 371
f 371 387 376
f 400 370 271
f 271 370 188
f 385 278 372
f 372 278 247
f 400 384 389
f 389 384 383
f 369 381 186
f 186 381 263
f 221 271 144
f 144 271 188
f 221 19 207
f 207 19 22
f 19 18 22
f 22 18 23
f 18 219 23
f 23 219 208
f 469 470 472
f 472 470 471
f 474 475 473
f 473 475 476
f 473 476 477
f 477 476 478
f 480 481 479
f 479 481 482
f 483 484 474
f 474 484 475
f 486 487 485
f 485 487 488
f 489 490 77
f 77 490 142
f 491 489 248
f 248 489 77
f 493 494 492
f 492 494 495
f 496 480 484
f 484 480 475
f 486 497 487
f 487 497 471
f 498 496 472
f 472 496 484
f 499 493 478
f 478 493 500
f 501 502 504
f 504 502 503
f 493 492 500
f 500 492 505
f 506 477 500
f 500 477 478
f 499 478 479
f 479 478 476
f 469 507 470
f 470 507 508
f 483 509 469
f 469 509 507
f 479 482 499
f 499 482 510
f 492 495 485
f 485 495 511
f 483 469 484
f 484 469 472
f 473 512 474
f 474 512 513
f 497 498 471
f 471 498 472
f 475 480 476
f 476 480 479
f 470 508 514
f 514 508 515
f 506 502 516
f 516 502 501
f 503 502 488
f 488 502 505
f 514 515 503
f 503 515 504
f 485 488 492
f 492 488 505
f 477 506 517
f 517 506 516
f 474 513 483
f 483 513 509
f 510 292 494
f 494 292 164
f 512 473 517
f 517 473 477
f 491 481 496
f 496 481 480
f 502 506 505
f 505 506 500
f 503 488 514
f 514 488 487
f 514 487 470
f 470 487 471
f 517 516 519
f 519 516 518
f 517 519 512
f 512 519 520
f 512 520 513
f 513 520 521
f 513 521 509
f 509 521 522
f 516 501 518
f 518 501 523
f 501 504 523
f 523 504 524
f 524 504 525
f 525 504 515
f 526 527 523
f 523 527 518
f 529 530 528
f 528 530 531
f 532 533 529
f 529 533 530
f 530 533 535
f 535 533 534
f 536 537 535
f 535 537 538
f 534 539 535
f 535 539 536
f 538 531 535
f 535 531 530
f 540 541 531
f 531 541 528
f 533 532 534
f 534 532 542
f 532 520 542
f 542 520 519
f 532 543 520
f 520 543 521
f 529 544 532
f 532 544 543
f 544 529 545
f 545 529 528
f 534 542 539
f 539 542 527
f 527 542 518
f 518 542 519
f 541 546 528
f 528 546 545
f 547 544 548
f 548 544 545
f 546 549 545
f 545 549 548
f 550 547 551
f 551 547 548
f 547 550 553
f 553 550 552
f 549 554 548
f 548 554 551
f 544 547 543
f 543 547 553
f 543 553 521
f 521 553 522
f 546 541 556
f 556 541 555
f 541 540 555
f 555 540 557
f 536 539 558
f 558 539 527
f 537 536 559
f 559 536 558
f 527 526 558
f 558 526 560
f 559 558 561
f 561 558 560
f 559 562 537
f 537 562 563
f 557 563 555
f 555 563 562
f 509 522 507
f 507 522 564
f 508 565 515
f 515 565 525
f 565 508 564
f 564 508 507
f 564 552 565
f 565 552 566
f 552 550 566
f 566 550 567
f 565 566 525
f 525 566 568
f 564 522 552
f 552 522 553
f 569 524 568
f 568 524 525
f 569 526 524
f 524 526 523
f 570 560 569
f 569 560 526
f 570 569 571
f 571 569 568
f 572 570 573
f 573 570 571
f 566 567 568
f 568 567 571
f 567 574 571
f 571 574 573
f 570 572 560
f 560 572 561
f 576 561 575
f 575 561 572
f 575 578 577
f 577 578 579
f 575 572 578
f 578 572 573
f 575 577 576
f 576 577 556
f 576 556 562
f 562 556 555
f 562 559 576
f 576 559 561
f 550 551 567
f 567 551 574
f 579 574 554
f 554 574 551
f 579 578 574
f 574 578 573
f 579 554 577
f 577 554 549
f 549 546 577
f 577 546 556
f 531 538 540
f 540 538 557
f 557 538 563
f 563 538 537
f 481 294 482
f 482 294 293
f 580 486 511
f 511 486 485
f 490 489 497
f 497 489 498
f 489 491 498
f 498 491 496
f 163 495 164
f 164 495 494
f 580 490 486
f 486 490 497
f 482 293 510
f 510 293 292
f 495 163 511
f 511 163 199
f 494 493 510
f 510 493 499
f 481 491 294
f 294 491 248
f 582 583 581
f 581 583 584
f 586 587 585
f 585 587 588
f 585 588 589
f 589 588 590
f 592 593 591
f 591 593 594
f 595 596 598
f 598 596 597
f 599 600 586
f 586 600 587
f 601 602 604
f 604 602 603
f 605 606 608
f 608 606 607
f 609 607 200
f 200 607 606
f 610 611 613
f 613 611 612
f 600 614 587
f 587 614 592
f 596 605 597
f 597 605 608
f 602 615 603
f 603 615 583
f 616 614 584
f 584 614 600
f 611 618 617
f 617 618 590
f 620 621 619
f 619 621 622
f 610 623 611
f 611 623 618
f 624 589 618
f 618 589 590
f 617 590 591
f 591 590 588
f 581 625 582
f 582 625 626
f 599 627 581
f 581 627 625
f 591 594 617
f 617 594 628
f 601 610 598
f 598 610 613
f 581 584 599
f 599 584 600
f 585 629 586
f 586 629 630
f 615 616 583
f 583 616 584
f 587 592 588
f 588 592 591
f 582 626 631
f 631 626 632
f 624 620 633
f 633 620 619
f 621 620 604
f 604 620 623
f 631 632 621
f 621 632 622
f 610 601 623
f 623 601 604
f 589 624 634
f 634 624 633
f 586 630 599
f 599 630 627
f 203 202 628
f 628 202 612
f 629 585 634
f 634 585 589
f 609 593 614
f 614 593 592
f 620 624 623
f 623 624 618
f 631 621 603
f 603 621 604
f 582 631 583
f 583 631 603
f 634 633 636
f 636 633 635
f 634 636 629
f 629 636 637
f 629 637 630
f 630 637 638
f 630 638 627
f 627 638 639
f 633 619 635
f 635 619 640
f 619 622 640
f 640 622 641
f 641 622 642
f 642 622 632
f 644 635 643
f 643 635 640
f 645 646 648
f 648 646 647
f 649 650 646
f 646 650 647
f 647 650 652
f 652 650 651
f 652 653 655
f 655 653 654
f 651 656 652
f 652 656 653
f 655 648 652
f 652 648 647
f 648 657 645
f 645 657 658
f 650 649 651
f 651 649 659
f 649 637 659
f 659 637 636
f 649 660 637
f 637 660 638
f 661 660 646
f 646 660 649
f 662 661 645
f 645 661 646
f 651 659 656
f 656 659 644
f 644 659 635
f 635 659 636
f 663 662 658
f 658 662 645
f 664 661 665
f 665 661 662
f 663 666 662
f 662 666 665
f 667 664 668
f 668 664 665
f 664 667 670
f 670 667 669
f 666 671 665
f 665 671 668
f 661 664 660
f 660 664 670
f 660 670 638
f 638 670 639
f 658 672 663
f 663 672 673
f 658 657 672
f 672 657 674
f 653 656 675
f 675 656 644
f 653 675 654
f 654 675 676
f 675 644 677
f 677 644 643
f 676 675 678
f 678 675 677
f 679 680 676
f 676 680 654
f 674 680 672
f 672 680 679
f 627 639 625
f 625 639 681
f 626 682 632
f 632 682 642
f 681 682 625
f 625 682 626
f 669 683 681
f 681 683 682
f 667 684 669
f 669 684 683
f 682 683 642
f 642 683 685
f 681 639 669
f 669 639 670
f 686 641 685
f 685 641 642
f 641 686 640
f 640 686 643
f 686 687 643
f 643 687 677
f 687 686 688
f 688 686 685
f 689 687 690
f 690 687 688
f 683 684 685
f 685 684 688
f 684 691 688
f 688 691 690
f 687 689 677
f 677 689 678
f 693 678 692
f 692 678 689
f 692 695 694
f 694 695 696
f 692 689 695
f 695 689 690
f 692 694 693
f 693 694 673
f 693 673 679
f 679 673 672
f 679 676 693
f 693 676 678
f 684 667 691
f 691 667 668
f 696 691 671
f 671 691 668
f 696 695 691
f 691 695 690
f 694 696 666
f 666 696 671
f 666 663 694
f 694 663 673
f 648 655 657
f 657 655 674
f 674 655 680
f 680 655 654
f 593 162 594
f 594 162 290
f 598 597 601
f 601 597 602
f 615 608 616
f 616 608 607
f 607 609 616
f 616 609 614
f 697 595 613
f 613 595 598
f 597 608 602
f 602 608 615
f 594 290 628
f 628 290 203
f 628 612 617
f 617 612 611
f 593 609 162
f 162 609 200
f 105 29 698
f 698 29 699
f 268 126 701
f 701 126 700
f 126 125 700
f 700 125 702
f 252 703 250
f 250 703 704
f 32 268 705
f 705 268 701
f 288 105 706
f 706 105 698
f 29 32 699
f 699 32 705
f 707 251 706
f 706 251 288
f 250 704 125
f 125 704 702
f 703 252 707
f 707 252 251
f 706 708 707
f 707 708 709
f 707 709 703
f 703 709 710
f 703 710 704
f 704 710 711
f 704 711 702
f 702 711 712
f 706 698 708
f 708 698 713
f 698 699 713
f 713 699 714
f 699 705 714
f 714 705 715
f 717 708 716
f 716 708 713
f 719 720 718
f 718 720 721
f 722 723 719
f 719 723 720
f 724 725 723
f 723 725 720
f 724 726 725
f 725 726 727
f 728 721 725
f 725 721 720
f 721 728 729
f 729 728 730
f 729 731 721
f 721 731 718
f 724 723 732
f 732 723 722
f 722 710 732
f 732 710 709
f 722 733 710
f 710 733 711
f 719 734 722
f 722 734 733
f 734 719 735
f 735 719 718
f 724 732 726
f 726 732 717
f 717 732 708
f 708 732 709
f 731 736 718
f 718 736 735
f 737 734 738
f 738 734 735
f 736 739 735
f 735 739 738
f 740 737 741
f 741 737 738
f 737 740 743
f 743 740 742
f 739 744 738
f 738 744 741
f 734 737 733
f 733 737 743
f 733 743 711
f 711 743 712
f 736 731 746
f 746 731 745
f 731 729 745
f 745 729 730
f 727 726 747
f 747 726 717
f 748 727 749
f 749 727 747
f 747 717 750
f 750 717 716
f 749 747 751
f 751 747 750
f 749 752 748
f 748 752 753
f 730 753 745
f 745 753 752
f 728 725 748
f 748 725 727
f 730 728 753
f 753 728 748
f 700 702 754
f 754 702 712
f 705 701 715
f 715 701 755
f 754 755 700
f 700 755 701
f 742 756 754
f 754 756 755
f 740 757 742
f 742 757 756
f 755 756 715
f 715 756 758
f 754 712 742
f 742 712 743
f 759 714 758
f 758 714 715
f 714 759 713
f 713 759 716
f 759 760 716
f 716 760 750
f 760 759 761
f 761 759 758
f 762 760 763
f 763 760 761
f 756 757 758
f 758 757 761
f 757 764 761
f 761 764 763
f 760 762 750
f 750 762 751
f 766 751 765
f 765 751 762
f 767 765 769
f 769 765 768
f 765 762 768
f 768 762 763
f 765 767 766
f 766 767 746
f 766 746 752
f 752 746 745
f 752 749 766
f 766 749 751
f 757 740 764
f 764 740 741
f 769 764 744
f 744 764 741
f 769 768 764
f 764 768 763
f 767 769 739
f 739 769 744
f 739 736 767
f 767 736 746
f 219 217 208
f 208 217 209
f 209 217 210
f 210 217 193
f 198 580 199
f 199 580 511
f 76 75 289
f 289 75 272
f 277 207 291
f 291 207 184
f 290 183 203
f 203 183 84
f 490 580 142
f 142 580 198
f 142 198 143
f 143 198 197
f 149 276 72
f 72 276 73
f 104 103 279
f 279 103 770
f 770 596 279
f 279 596 595
f 605 596 771
f 771 596 770
f 771 770 772
f 772 770 103
f 772 103 773
f 773 103 102
f 155 774 101
f 101 774 102
f 773 102 97
f 97 102 774
f 775 773 100
f 100 773 97
f 773 775 772
f 772 775 776
f 772 776 771
f 771 776 777
f 200 606 197
f 197 606 777
f 189 71 778
f 778 71 74
f 97 774 98
f 98 774 155
f 183 161 184
f 184 161 291
f 777 276 197
f 197 276 143
f 777 606 771
f 771 606 605
f 613 612 697
f 697 612 202
f 595 697 279
f 279 697 202
f 73 276 776
f 776 276 777
f 776 775 73
f 73 775 74
f 100 778 775
f 775 778 74
f 778 100 189
f 189 100 99
f 245 242 99
f 99 242 189
f 131 33 256
f 28 1 95
f 95 1 62
f 27 2 28
f 28 2 1
f 265 115 266
f 266 115 114
f 95 62 69
f 69 62 64
f 62 61 64
f 64 61 65
f 61 13 65
f 65 13 130
f 13 12 130
f 130 12 14
f 31 11 32
f 32 11 268
f 15 12 31
f 31 12 11
f 31 30 15
f 15 30 231
f 30 106 231
f 231 106 232
f 287 237 106
f 106 237 232
f 254 90 287
f 287 90 237
f 253 44 254
f 254 44 90
f 253 249 44
f 44 249 7
f 267 127 268
f 268 127 126
f 10 3 241
f 241 3 116
f 3 2 116
f 116 2 114
f 2 27 114
f 114 27 266
f 27 26 266
f 266 26 113
f 26 286 113
f 113 286 110
f 286 243 110
f 110 243 255
f 243 242 255
f 255 242 256
f 242 245 256
f 256 245 131
f 245 244 131
f 131 244 132
f 265 37 115
f 115 37 41
f 41 37 42
f 42 37 40
f 92 91 40
f 40 91 42
f 236 233 92
f 92 233 91
f 191 194 236
f 236 194 233
f 258 285 244
f 244 285 132
f 257 55 258
f 258 55 285
f 257 154 201
f 201 154 185
f 56 201 204
f 204 201 180
f 55 257 56
f 56 257 201
f 204 85 56
f 56 85 52
f 86 122 53
f 53 122 79
f 212 215 86
f 86 215 122
f 211 216 212
f 212 216 215
f 192 280 211
f 211 280 216
f 191 240 192
f 192 240 280
f 249 124 7
f 7 124 8
f 124 127 8
f 8 127 241
f 127 267 241
f 241 267 10
f 10 267 9
f 9 267 11
o hand_right
v -0.208271 0.135743 0.833796
v -0.218827 0.133949 0.832544
v -0.210429 0.127234 0.831064
v -0.201071 0.129742 0.831171
v -0.229162 0.116858 0.827520
v -0.234252 0.112828 0.817271
v -0.219099 0.107451 0.818081
v -0.216988 0.111375 0.827165
v -0.193977 0.126714 0.827641
v -0.203025 0.122467 0.829720
v -0.190849 0.128050 0.821786
v -0.183239 0.135880 0.818740
v -0.185917 0.131991 0.825125
v -0.176511 0.140121 0.820063
v -0.188153 0.143293 0.811535
v -0.176918 0.149641 0.818511
v -0.200505 0.166879 0.823751
v -0.207268 0.173478 0.833409
v -0.191728 0.174166 0.840306
v -0.186513 0.166450 0.830188
v -0.206925 0.179038 0.853834
v -0.197730 0.176589 0.846769
v -0.213168 0.176927 0.839321
v -0.220707 0.178899 0.846033
v -0.219735 0.144369 0.841102
v -0.230434 0.143509 0.839156
v -0.226477 0.141069 0.835899
v -0.216345 0.141682 0.837702
v -0.191979 0.122023 0.811553
v -0.197179 0.130097 0.806599
v -0.192016 0.130915 0.813098
v -0.190896 0.121322 0.817237
v -0.259102 0.140360 0.841955
v -0.269116 0.144363 0.833753
v -0.266791 0.142153 0.828786
v -0.258019 0.139414 0.837262
v -0.253982 0.127229 0.816179
v -0.261003 0.134972 0.812987
v -0.261482 0.138431 0.799587
v -0.252689 0.133226 0.800701
v -0.244337 0.118869 0.817269
v -0.244583 0.122921 0.803689
v -0.233976 0.115439 0.805847
v -0.218823 0.108816 0.808858
v -0.273717 0.151876 0.843154
v -0.267239 0.149555 0.850720
v -0.141569 0.132508 0.853546
v -0.144314 0.134563 0.858389
v -0.146976 0.135275 0.855870
v -0.143676 0.133292 0.851434
v -0.268914 0.170576 0.849447
v -0.266033 0.178992 0.844619
v -0.273117 0.177982 0.843124
v -0.275491 0.169278 0.845912
v -0.260183 0.172189 0.854072
v -0.256094 0.179625 0.846565
v -0.131532 0.140077 0.850579
v -0.133855 0.135496 0.849924
v -0.135839 0.138067 0.846485
v -0.134324 0.143150 0.847133
v -0.191653 0.131875 0.830786
v -0.198738 0.135695 0.835942
v -0.174871 0.134827 0.837697
v -0.184793 0.136357 0.837098
v -0.182638 0.133761 0.830730
v -0.174322 0.133877 0.831234
v -0.199758 0.147938 0.851619
v -0.210574 0.147270 0.847082
v -0.206086 0.144489 0.843088
v -0.193681 0.143728 0.847059
v -0.218670 0.150968 0.858160
v -0.207321 0.151772 0.861512
v -0.213277 0.153822 0.867376
v -0.220416 0.151974 0.864387
v -0.186744 0.152348 0.864198
v -0.180074 0.153587 0.865821
v -0.181543 0.154217 0.868850
v -0.189158 0.153805 0.866715
v -0.279826 0.177758 0.840781
v -0.281316 0.168051 0.841679
v -0.221987 0.180916 0.869485
v -0.230631 0.176106 0.874749
v -0.219758 0.177232 0.882934
v -0.213128 0.182618 0.875002
v -0.260345 0.182852 0.836788
v -0.268155 0.183751 0.836489
v -0.131640 0.145173 0.854085
v -0.134809 0.148050 0.850921
v -0.231828 0.125980 0.797274
v -0.216329 0.115290 0.801450
v -0.243376 0.135717 0.795343
v -0.251094 0.143556 0.794620
v -0.258486 0.147748 0.792473
v -0.183487 0.139062 0.843221
v -0.206412 0.140467 0.838685
v -0.222733 0.146231 0.844725
v -0.236375 0.153139 0.871602
v -0.245935 0.151695 0.867357
v -0.238105 0.147342 0.861423
v -0.231253 0.150085 0.866134
v -0.233018 0.167716 0.879544
v -0.230238 0.160105 0.879111
v -0.222395 0.161807 0.883044
v -0.223603 0.169305 0.885009
v -0.194285 0.118400 0.805291
v -0.202562 0.128248 0.801407
v -0.270153 0.160203 0.851414
v -0.275419 0.159091 0.845737
v -0.281814 0.160398 0.840281
v -0.244592 0.140677 0.839859
v -0.257321 0.138548 0.834047
v -0.255052 0.136034 0.831116
v -0.242740 0.140331 0.837380
v -0.229959 0.129734 0.832733
v -0.241825 0.124818 0.828423
v -0.219635 0.122679 0.832588
v -0.265273 0.139120 0.821336
v -0.275398 0.143018 0.823194
v -0.272365 0.140420 0.815196
v -0.278830 0.148193 0.830830
v -0.281217 0.154105 0.837111
v -0.275748 0.186927 0.834221
v -0.268466 0.139449 0.807764
v -0.207947 0.108626 0.826225
v -0.200110 0.105712 0.824638
v -0.196300 0.112197 0.826854
v -0.203346 0.115399 0.829180
v -0.167706 0.142862 0.823099
v -0.170403 0.136193 0.826740
v -0.179732 0.134459 0.823747
v -0.251711 0.142558 0.850679
v -0.259025 0.150074 0.857832
v -0.173375 0.138275 0.843439
v -0.138041 0.145265 0.843782
v -0.139383 0.139525 0.843120
v -0.154108 0.141460 0.832347
v -0.152230 0.148045 0.832909
v -0.165881 0.145885 0.848093
v -0.168495 0.140217 0.845646
v -0.165963 0.141861 0.846966
v -0.163850 0.146835 0.850629
v -0.189081 0.156231 0.874114
v -0.195879 0.155797 0.872010
v -0.173289 0.163497 0.838587
v -0.170577 0.159719 0.825616
v -0.181699 0.159571 0.821591
v -0.204692 0.150397 0.856704
v -0.195362 0.151255 0.861419
v -0.197793 0.152824 0.864451
v -0.181109 0.141394 0.846850
v -0.173196 0.142201 0.847852
v -0.177337 0.144338 0.850205
v -0.184939 0.144129 0.849830
v -0.241681 0.175798 0.867271
v -0.244458 0.166143 0.873293
v -0.137635 0.132801 0.850761
v -0.139537 0.134352 0.847978
v -0.215189 0.149660 0.852151
v -0.195417 0.158891 0.817068
v -0.225987 0.147840 0.848866
v -0.195407 0.175688 0.872612
v -0.196863 0.169739 0.878248
v -0.191287 0.167705 0.880044
v -0.188265 0.172468 0.877184
v -0.151311 0.146320 0.858852
v -0.151809 0.140644 0.858266
v -0.148380 0.139901 0.859907
v -0.146965 0.145481 0.861264
v -0.168282 0.136453 0.841155
v -0.167056 0.134560 0.834944
v -0.161784 0.135237 0.839381
v -0.164061 0.138129 0.844017
v -0.162990 0.137218 0.830631
v -0.157877 0.136877 0.834645
v -0.147960 0.151529 0.856703
v -0.142575 0.153430 0.851704
v -0.156246 0.156524 0.842875
v -0.159167 0.152841 0.849195
v -0.233681 0.180044 0.838173
v -0.240410 0.181137 0.847043
v -0.227618 0.180246 0.855126
v -0.215047 0.180690 0.863304
v -0.202908 0.179758 0.870298
v -0.195564 0.180251 0.860567
v -0.233682 0.180332 0.860703
v -0.166974 0.153647 0.847377
v -0.165473 0.158095 0.838349
v -0.168149 0.159216 0.843857
v -0.229695 0.148521 0.855328
v -0.142605 0.135326 0.844880
v -0.248851 0.166475 0.798889
v -0.251814 0.176002 0.807877
v -0.243611 0.173583 0.809856
v -0.240425 0.162216 0.800200
v -0.150143 0.135335 0.854249
v -0.146905 0.133045 0.849132
v -0.198589 0.157604 0.877757
v -0.191821 0.158220 0.878801
v -0.191458 0.161077 0.881263
v -0.198404 0.159422 0.883036
v -0.245040 0.180815 0.850845
v -0.212704 0.174251 0.888554
v -0.207059 0.180076 0.881027
v -0.251283 0.181893 0.839663
v -0.245482 0.181594 0.831748
v -0.254252 0.182903 0.827627
v -0.182939 0.173826 0.854454
v -0.227069 0.178224 0.832794
v -0.240200 0.179419 0.826586
v -0.250438 0.180883 0.821415
v -0.257917 0.182751 0.818157
v -0.261369 0.184633 0.825334
v -0.139288 0.150349 0.847608
v -0.137707 0.151608 0.856021
v -0.269280 0.188231 0.822582
v -0.265202 0.185313 0.814735
v -0.234805 0.175786 0.820023
v -0.228886 0.169885 0.812348
v -0.222369 0.174555 0.826388
v -0.215345 0.168864 0.819242
v -0.179578 0.174328 0.844149
v -0.131722 0.142176 0.869938
v -0.138693 0.147851 0.863307
v -0.143144 0.144131 0.864133
v -0.135569 0.140648 0.871364
v -0.143225 0.150004 0.860010
v -0.134595 0.148557 0.859261
v -0.209868 0.158207 0.810703
v -0.170299 0.145932 0.851495
v -0.224993 0.155431 0.802674
v -0.200230 0.144796 0.804685
v -0.212157 0.140772 0.799929
v -0.239989 0.150134 0.794304
v -0.227558 0.138766 0.794448
v -0.255889 0.158406 0.792293
v -0.247777 0.155608 0.794147
v -0.216036 0.127544 0.796981
v -0.137943 0.129057 0.862657
v -0.140535 0.132371 0.866663
v -0.256344 0.169067 0.796309
v -0.210371 0.118303 0.830981
v -0.238855 0.145100 0.850400
v -0.235625 0.144891 0.845740
v -0.251287 0.150950 0.863903
v -0.244036 0.145234 0.856543
v -0.133683 0.128567 0.859354
v -0.176225 0.157566 0.867016
v -0.178249 0.157703 0.866824
v -0.210476 0.104406 0.818902
v -0.203520 0.102161 0.818673
v -0.199883 0.105685 0.806433
v -0.202624 0.101884 0.811871
v -0.210338 0.105035 0.810244
v -0.207920 0.109579 0.804259
v -0.245773 0.140892 0.842245
v -0.247410 0.141614 0.845779
v -0.251724 0.173878 0.860589
v -0.253594 0.164154 0.866640
v -0.160597 0.142843 0.828095
v -0.166680 0.150957 0.823173
v -0.159561 0.149716 0.828591
v -0.154459 0.154132 0.835713
v -0.166370 0.149439 0.850939
v -0.164627 0.151989 0.846123
v -0.248977 0.130897 0.829998
v -0.237846 0.136773 0.834544
v -0.198128 0.120383 0.827159
v -0.192567 0.118212 0.824418
v -0.190977 0.147573 0.854190
v -0.173513 0.169258 0.858575
v -0.170474 0.169468 0.850353
v -0.182132 0.148453 0.856476
v -0.126695 0.133461 0.859588
v -0.130113 0.129895 0.858687
v -0.161637 0.156025 0.831052
v -0.203474 0.154283 0.870597
v -0.180318 0.170004 0.861193
v -0.174448 0.164722 0.864565
v -0.218340 0.168096 0.888087
v -0.259965 0.177857 0.804758
v -0.145366 0.138901 0.863079
v -0.140631 0.136506 0.869708
v -0.128677 0.142276 0.866826
v -0.126380 0.139303 0.862011
v -0.261193 0.161206 0.859261
v -0.233108 0.144661 0.842869
v -0.206711 0.119306 0.800136
v -0.197235 0.112316 0.804043
v -0.176785 0.149257 0.857884
v -0.200698 0.175868 0.877611
v -0.188262 0.177295 0.866421
v -0.180973 0.174078 0.872014
v -0.176060 0.169340 0.868607
v -0.174592 0.162210 0.867918
v -0.126909 0.138934 0.871354
v -0.124434 0.135828 0.866696
v -0.124975 0.130101 0.864132
v -0.128364 0.127094 0.862749
v -0.132807 0.126691 0.862757
v -0.130197 0.138825 0.874479
v -0.133863 0.137391 0.875321
v -0.139028 0.134973 0.872366
v -0.130294 0.135557 0.878123
v -0.125485 0.133320 0.877739
v -0.124800 0.119804 0.874339
v -0.123521 0.124674 0.871105
v -0.123042 0.124435 0.873846
v -0.123628 0.120771 0.877238
v -0.123593 0.118048 0.881675
v -0.124961 0.116321 0.878871
v -0.123245 0.129074 0.874585
v -0.123888 0.124671 0.879730
v -0.125724 0.127562 0.882247
v -0.125342 0.123879 0.886409
v -0.123501 0.121227 0.884363
v -0.124853 0.130426 0.878657
v -0.122846 0.130844 0.872831
v -0.125297 0.115378 0.883424
v -0.123599 0.116984 0.884428
v -0.124032 0.119326 0.886788
v -0.125944 0.117293 0.888087
v -0.127637 0.123846 0.866711
v -0.126966 0.118682 0.873349
v -0.128130 0.116045 0.878721
v -0.128139 0.115215 0.883264
v -0.130856 0.118492 0.874743
v -0.130940 0.116842 0.879270
v -0.131238 0.116481 0.883304
v -0.134327 0.119790 0.876971
v -0.133406 0.118318 0.880736
v -0.135731 0.126055 0.867362
v -0.132287 0.124787 0.865204
v -0.133203 0.117383 0.883166
v -0.128176 0.117268 0.888261
v -0.128170 0.130334 0.882582
v -0.128301 0.124985 0.887203
v -0.130544 0.130679 0.882917
v -0.130522 0.125689 0.887752
v -0.127339 0.121613 0.889964
v -0.125430 0.121557 0.888218
v -0.137196 0.128481 0.864844
v -0.139681 0.132024 0.869013
v -0.138590 0.130079 0.871225
v -0.136677 0.123027 0.879714
v -0.138256 0.132799 0.874760
v -0.133940 0.134226 0.878608
v -0.133224 0.129399 0.883454
v -0.135804 0.127243 0.882557
v -0.132903 0.125203 0.886826
v -0.134436 0.123771 0.885315
v -0.135083 0.120655 0.883075
v -0.132219 0.121454 0.888286
v -0.129596 0.121690 0.889714
v -0.131260 0.118011 0.886971
v -0.133608 0.121521 0.886878
v -0.133031 0.119038 0.885236
v -0.153233 0.141460 0.877845
v -0.156951 0.144149 0.882492
v -0.156392 0.146824 0.879017
v -0.153181 0.144550 0.875244
v -0.140452 0.148021 0.878160
v -0.144415 0.143329 0.876276
v -0.143842 0.147760 0.872524
v -0.141079 0.153604 0.874905
v -0.141143 0.153708 0.882600
v -0.142750 0.158956 0.878974
v -0.143683 0.156454 0.870143
v -0.146553 0.149964 0.868427
v -0.161317 0.154031 0.853695
v -0.159219 0.160729 0.854232
v -0.173807 0.153039 0.866511
v -0.172805 0.156639 0.868128
v -0.149335 0.141380 0.876387
v -0.148772 0.144895 0.873159
v -0.160866 0.153879 0.882043
v -0.160976 0.148917 0.879691
v -0.158850 0.149244 0.882574
v -0.157461 0.153718 0.885622
v -0.167390 0.148725 0.856853
v -0.171344 0.150623 0.861389
v -0.164198 0.150315 0.855090
v -0.157472 0.159769 0.882722
v -0.152106 0.163614 0.880476
v -0.165084 0.168344 0.865158
v -0.168919 0.164598 0.868885
v -0.150353 0.146022 0.869390
v -0.158093 0.145326 0.876150
v -0.154840 0.143973 0.872209
v -0.146833 0.161973 0.874317
v -0.148075 0.160191 0.885173
v -0.149566 0.144065 0.898114
v -0.151908 0.153434 0.890951
v -0.156112 0.150505 0.889715
v -0.154229 0.141857 0.897764
v -0.153477 0.157703 0.886888
v -0.146592 0.154934 0.888628
v -0.153635 0.131814 0.887719
v -0.157199 0.134893 0.892121
v -0.149392 0.131037 0.886003
v -0.161090 0.166810 0.858527
v -0.140796 0.137173 0.886931
v -0.145385 0.132565 0.885350
v -0.158587 0.147353 0.886430
v -0.157323 0.138371 0.895834
v -0.145255 0.144591 0.896466
v -0.140792 0.143030 0.890711
v -0.144475 0.139534 0.899732
v -0.140732 0.137153 0.894890
v -0.141121 0.131765 0.890408
v -0.145902 0.128982 0.888114
v -0.149889 0.128820 0.888096
v -0.148821 0.139444 0.901411
v -0.153593 0.138099 0.900789
v -0.156823 0.136128 0.897075
v -0.151308 0.133637 0.904591
v -0.146832 0.132110 0.904325
v -0.150482 0.114111 0.899120
v -0.147557 0.118891 0.896644
v -0.146817 0.119496 0.899132
v -0.149392 0.115145 0.901538
v -0.143537 0.123906 0.895688
v -0.144235 0.123449 0.898180
v -0.144293 0.127157 0.901155
v -0.147662 0.122124 0.903141
v -0.149871 0.125506 0.905948
v -0.151968 0.120761 0.908644
v -0.149717 0.117242 0.906151
v -0.146705 0.128300 0.904095
v -0.151134 0.112911 0.903882
v -0.153298 0.111531 0.903367
v -0.142131 0.129623 0.899922
v -0.146282 0.125476 0.890490
v -0.150039 0.118419 0.894757
v -0.153629 0.113876 0.898100
v -0.156330 0.112063 0.903441
v -0.154309 0.118925 0.894616
v -0.156734 0.114881 0.898420
v -0.158444 0.113800 0.903091
v -0.158549 0.120812 0.895969
v -0.160069 0.116991 0.900079
v -0.154759 0.128968 0.890503
v -0.150801 0.126603 0.889128
v -0.159863 0.115637 0.902344
v -0.153802 0.112871 0.908028
v -0.157115 0.113143 0.907438
v -0.152262 0.113906 0.907604
v -0.151291 0.126899 0.906792
v -0.154085 0.121346 0.909100
v -0.154081 0.127678 0.907113
v -0.156522 0.121411 0.909456
v -0.155157 0.116821 0.910355
v -0.153546 0.116506 0.909827
v -0.153614 0.130569 0.889658
v -0.156607 0.133698 0.893410
v -0.157587 0.132490 0.894088
v -0.160637 0.124160 0.899714
v -0.157467 0.134924 0.898330
v -0.154712 0.134304 0.903031
v -0.156754 0.128222 0.906140
v -0.159726 0.126790 0.903701
v -0.158582 0.122141 0.909183
v -0.160280 0.122773 0.906418
v -0.161500 0.119930 0.902650
v -0.159134 0.117506 0.909714
v -0.156944 0.116856 0.910400
v -0.158809 0.114334 0.906533
v -0.160577 0.119035 0.907578
v -0.160546 0.116509 0.904866
v -0.169199 0.145692 0.887549
v -0.173371 0.147583 0.891161
v -0.174149 0.149721 0.888773
v -0.169838 0.148244 0.885377
v -0.158350 0.152302 0.889767
v -0.160427 0.148285 0.887622
v -0.161073 0.151897 0.884453
v -0.159304 0.156980 0.885650
v -0.159198 0.155005 0.894839
v -0.160540 0.161530 0.889774
v -0.161252 0.160613 0.881702
v -0.162543 0.154589 0.881232
v -0.171900 0.160521 0.871067
v -0.170714 0.166886 0.872637
v -0.164652 0.146280 0.886922
v -0.165336 0.149029 0.884416
v -0.177508 0.155927 0.893166
v -0.177375 0.151978 0.890343
v -0.175850 0.152675 0.892963
v -0.174710 0.155987 0.895746
v -0.180532 0.154296 0.872251
v -0.184974 0.156489 0.875834
v -0.175666 0.155895 0.871494
v -0.173943 0.161588 0.894213
v -0.168604 0.166067 0.891681
v -0.179909 0.170615 0.882838
v -0.184265 0.166377 0.884005
v -0.166102 0.150758 0.881718
v -0.175427 0.149161 0.886204
v -0.170922 0.148319 0.882980
v -0.163976 0.164922 0.885746
v -0.165261 0.162366 0.895312
v -0.165464 0.144910 0.909937
v -0.169067 0.157146 0.900044
v -0.173710 0.153790 0.898209
v -0.169666 0.143516 0.909114
v -0.170711 0.159852 0.897533
v -0.163576 0.157923 0.898752
v -0.168520 0.134700 0.898008
v -0.171877 0.137549 0.901473
v -0.164340 0.135447 0.896516
v -0.173756 0.171568 0.877183
v -0.187194 0.160800 0.881793
v -0.157870 0.138365 0.899286
v -0.161025 0.136244 0.897035
v -0.174920 0.150868 0.895179
v -0.172420 0.140982 0.906124
v -0.160901 0.145341 0.907985
v -0.157322 0.143183 0.903118
v -0.161336 0.140615 0.911691
v -0.157854 0.138023 0.906938
v -0.158332 0.133595 0.902772
v -0.161903 0.132197 0.900099
v -0.165281 0.131977 0.899305
v -0.166243 0.140679 0.913074
v -0.169950 0.139880 0.911733
v -0.172065 0.139598 0.906914
v -0.167976 0.137172 0.915155
v -0.163139 0.134421 0.915223
v -0.167197 0.117950 0.911845
v -0.164705 0.122519 0.908950
v -0.164467 0.122985 0.910074
v -0.166457 0.118465 0.913338
v -0.160624 0.127895 0.907321
v -0.161419 0.127037 0.909025
v -0.161050 0.129943 0.911806
v -0.164110 0.125038 0.914984
v -0.167533 0.129292 0.917686
v -0.169342 0.124754 0.919674
v -0.166150 0.120567 0.917673
v -0.163495 0.132195 0.915018
v -0.167825 0.116621 0.915714
v -0.168139 0.114959 0.914783
v -0.159581 0.132018 0.910975
v -0.163015 0.127636 0.902927
v -0.166488 0.121885 0.906632
v -0.169120 0.117198 0.909404
v -0.171291 0.115336 0.912889
v -0.170097 0.122818 0.905645
v -0.171858 0.118684 0.908735
v -0.173687 0.116956 0.911914
v -0.173009 0.124368 0.906197
v -0.174317 0.120798 0.909197
v -0.169604 0.131673 0.901181
v -0.166366 0.129215 0.901142
v -0.174930 0.118927 0.911654
v -0.169614 0.116624 0.919062
v -0.173640 0.117064 0.917803
v -0.168578 0.117914 0.918536
v -0.168525 0.130836 0.918063
v -0.171359 0.125340 0.920753
v -0.171154 0.131893 0.917589
v -0.173818 0.126363 0.920173
v -0.171448 0.121003 0.921357
v -0.170387 0.121058 0.920773
v -0.168793 0.133626 0.899939
v -0.171722 0.136721 0.902873
v -0.172349 0.134956 0.903768
v -0.175950 0.127096 0.908916
v -0.172869 0.137748 0.907735
v -0.171468 0.136584 0.913572
v -0.173859 0.131454 0.915625
v -0.175962 0.129675 0.912873
v -0.175800 0.126494 0.918154
v -0.176489 0.126342 0.915356
v -0.176908 0.123275 0.911448
v -0.175777 0.122325 0.918309
v -0.174014 0.121642 0.920622
v -0.175610 0.118479 0.915734
v -0.176793 0.122939 0.916092
v -0.176538 0.120110 0.914042
v -0.187250 0.158333 0.879207
v -0.191081 0.146045 0.897952
v -0.194453 0.147349 0.900299
v -0.194190 0.148341 0.899947
v -0.191393 0.147365 0.896592
v -0.181820 0.152825 0.899585
v -0.183818 0.148843 0.897737
v -0.183576 0.152009 0.894974
v -0.181871 0.155885 0.896782
v -0.183221 0.156550 0.903082
v -0.183830 0.159026 0.900881
v -0.184156 0.158587 0.894123
v -0.185687 0.154657 0.891921
v -0.195475 0.165639 0.881738
v -0.196312 0.170850 0.883383
v -0.213283 0.165313 0.891334
v -0.213672 0.160975 0.887760
v -0.207517 0.158300 0.893680
v -0.207813 0.162532 0.896105
v -0.187293 0.146758 0.897254
v -0.187501 0.148769 0.894533
v -0.196918 0.155571 0.905586
v -0.197294 0.151709 0.902435
v -0.196381 0.150387 0.902868
v -0.196649 0.153488 0.906407
v -0.209741 0.158397 0.884948
v -0.204985 0.158548 0.882938
v -0.202754 0.156527 0.885553
v -0.204653 0.155902 0.890406
v -0.197941 0.159036 0.883391
v -0.194327 0.159205 0.906073
v -0.189599 0.162235 0.903791
v -0.204468 0.172038 0.894706
v -0.207123 0.167928 0.895941
v -0.188006 0.150806 0.892875
v -0.195544 0.149662 0.898443
v -0.192070 0.148646 0.895871
v -0.185554 0.161941 0.898627
v -0.188563 0.159369 0.905519
v -0.192451 0.149944 0.913453
v -0.193739 0.155733 0.908851
v -0.197089 0.152525 0.907022
v -0.195131 0.148451 0.912151
v -0.193495 0.156675 0.907578
v -0.188230 0.156994 0.907773
v -0.191641 0.141250 0.902251
v -0.195236 0.143685 0.905545
v -0.188285 0.141272 0.901503
v -0.199578 0.173815 0.888238
v -0.182476 0.145150 0.904594
v -0.185017 0.142056 0.902486
v -0.196521 0.149332 0.903520
v -0.196410 0.146176 0.909203
v -0.187729 0.150545 0.912745
v -0.183031 0.149495 0.908572
v -0.187608 0.146279 0.914805
v -0.183184 0.145194 0.910418
v -0.183590 0.140977 0.905821
v -0.186440 0.139846 0.903360
v -0.189554 0.139581 0.902499
v -0.192482 0.146344 0.915313
v -0.195099 0.145655 0.913780
v -0.196425 0.144559 0.910251
v -0.192673 0.142575 0.916979
v -0.188477 0.140201 0.916544
v -0.190849 0.128041 0.911175
v -0.189193 0.131417 0.909232
v -0.188727 0.131705 0.910339
v -0.189989 0.128010 0.911893
v -0.186120 0.135937 0.908250
v -0.186496 0.135263 0.909865
v -0.185985 0.137937 0.912334
v -0.187930 0.133261 0.914316
v -0.190929 0.135362 0.918302
v -0.192046 0.131411 0.919416
v -0.189021 0.129891 0.916000
v -0.188029 0.138343 0.916171
v -0.190373 0.126029 0.913895
v -0.191214 0.124912 0.913643
v -0.184726 0.139675 0.911850
v -0.188424 0.136230 0.904804
v -0.191104 0.130517 0.907726
v -0.192648 0.126481 0.910587
v -0.193545 0.124567 0.913867
v -0.193272 0.131588 0.906790
v -0.194919 0.126803 0.910046
v -0.195769 0.125146 0.913296
v -0.196225 0.133201 0.907208
v -0.196948 0.128468 0.910442
v -0.194590 0.138907 0.904456
v -0.191536 0.137077 0.903813
v -0.196794 0.126604 0.912998
v -0.191523 0.125604 0.917537
v -0.194487 0.125321 0.917009
v -0.190354 0.126755 0.917573
v -0.191989 0.136137 0.918862
v -0.193540 0.131394 0.920198
v -0.194338 0.137032 0.918868
v -0.195702 0.131481 0.919789
v -0.193304 0.127810 0.919883
v -0.191668 0.128612 0.919253
v -0.193368 0.140142 0.903599
v -0.195524 0.142363 0.906240
v -0.196710 0.141118 0.907576
v -0.198400 0.135397 0.909986
v -0.197070 0.143027 0.911761
v -0.195314 0.143315 0.915281
v -0.196674 0.137253 0.917374
v -0.198522 0.136775 0.914479
v -0.197457 0.131228 0.918451
v -0.198917 0.131323 0.915737
v -0.198872 0.130277 0.912548
v -0.196801 0.127508 0.917681
v -0.195460 0.127269 0.919033
v -0.196286 0.125934 0.916064
v -0.197909 0.128072 0.916143
v -0.197622 0.127335 0.914676
v -0.210854 0.168486 0.892516
v -0.183339 0.110519 0.810013
v -0.181980 0.113419 0.814720
v -0.186735 0.103440 0.826655
v -0.183015 0.109194 0.825208
v -0.189492 0.097951 0.823851
v -0.191375 0.096273 0.813224
v -0.191859 0.096166 0.818769
v -0.181319 0.112808 0.820745
v -0.186050 0.106094 0.806839
v -0.189686 0.100008 0.807758
v -0.178601 0.103088 0.807280
v -0.182418 0.096585 0.808429
v -0.184215 0.092190 0.813485
v -0.185692 0.092567 0.820023
v -0.185076 0.094520 0.824597
v -0.177161 0.108242 0.811612
v -0.176441 0.110863 0.816541
v -0.177755 0.110175 0.822936
v -0.169755 0.106130 0.814767
v -0.163791 0.097700 0.814420
v -0.160397 0.081190 0.823698
v -0.166636 0.083723 0.822694
v -0.164863 0.084596 0.820455
v -0.159495 0.081783 0.821138
v -0.170136 0.086277 0.819259
v -0.167812 0.086964 0.818642
v -0.166411 0.091203 0.815697
v -0.161559 0.088649 0.816534
v -0.163067 0.095198 0.815421
v -0.159255 0.094547 0.816696
v -0.156615 0.086290 0.817304
v -0.155625 0.081213 0.820111
v -0.152446 0.084326 0.818418
v -0.154970 0.080882 0.823359
v -0.167219 0.090984 0.813605
v -0.176772 0.087588 0.822205
v -0.169086 0.084614 0.825639
v -0.161437 0.082585 0.827200
v -0.155059 0.082417 0.826340
v -0.169861 0.087528 0.829222
v -0.162349 0.086282 0.829821
v -0.156499 0.086807 0.828799
v -0.169033 0.092117 0.831150
v -0.161989 0.090299 0.830604
v -0.180392 0.098033 0.828363
v -0.180420 0.091593 0.826259
v -0.157834 0.089425 0.829280
v -0.150347 0.084240 0.820564
v -0.150491 0.086102 0.823935
v -0.159003 0.098073 0.817146
v -0.154349 0.092330 0.816887
v -0.153771 0.095022 0.818628
v -0.160172 0.101602 0.819077
v -0.153870 0.097062 0.820870
v -0.150223 0.090459 0.819303
v -0.151969 0.088928 0.817383
v -0.183798 0.100031 0.827397
v -0.181243 0.106183 0.826436
v -0.177951 0.104402 0.827268
v -0.167146 0.098598 0.830136
v -0.173842 0.108299 0.824370
v -0.170711 0.108554 0.818996
v -0.161337 0.103295 0.822431
v -0.163978 0.102652 0.826599
v -0.155429 0.097831 0.824241
v -0.157416 0.097280 0.826631
v -0.159872 0.094156 0.829685
v -0.152647 0.093334 0.825093
v -0.150526 0.092358 0.822127
v -0.152933 0.089238 0.826816
v -0.155037 0.094099 0.826616
v -0.155813 0.091474 0.828124
v -0.217872 0.161582 0.884840
v -0.213606 0.157940 0.881117
v -0.219452 0.157751 0.879407
v -0.227508 0.155393 0.875951
v -0.237677 0.158176 0.875095
v -0.223697 0.153006 0.870552
v -0.215444 0.155461 0.874599
v -0.206803 0.156373 0.877097
v -0.227172 0.150290 0.861284
f 780 781 779
f 779 781 782
f 783 784 786
f 786 784 785
f 787 782 788
f 788 782 781
f 790 791 789
f 789 791 787
f 792 790 794
f 794 790 793
f 796 797 795
f 795 797 798
f 800 801 799
f 799 801 802
f 804 805 803
f 803 805 806
f 808 809 807
f 807 809 810
f 811 812 814
f 814 812 813
f 815 816 818
f 818 816 817
f 819 820 784
f 784 820 821
f 784 821 785
f 785 821 822
f 823 812 824
f 824 812 811
f 826 827 825
f 825 827 828
f 830 831 829
f 829 831 832
f 834 830 833
f 833 830 829
f 836 837 835
f 835 837 838
f 839 840 782
f 782 840 779
f 842 843 841
f 841 843 844
f 846 847 845
f 845 847 848
f 850 851 849
f 849 851 852
f 854 855 853
f 853 855 856
f 831 857 832
f 832 857 858
f 860 861 859
f 859 861 862
f 863 864 830
f 830 864 831
f 835 838 865
f 865 838 866
f 867 868 821
f 821 868 822
f 821 820 867
f 867 820 869
f 818 817 870
f 870 817 871
f 872 848 842
f 842 848 847
f 791 839 787
f 787 839 782
f 803 806 847
f 847 806 873
f 874 803 846
f 846 803 847
f 876 877 875
f 875 877 878
f 879 880 882
f 882 880 881
f 884 808 883
f 883 808 807
f 829 832 885
f 885 832 886
f 832 858 886
f 886 858 887
f 889 890 888
f 888 890 891
f 893 783 892
f 892 783 894
f 893 819 783
f 783 819 784
f 814 813 889
f 889 813 895
f 813 896 895
f 895 896 897
f 812 898 813
f 813 898 896
f 812 823 898
f 898 823 899
f 903 904 902
f 902 904 905
f 906 907 792
f 792 907 908
f 811 909 824
f 824 909 910
f 911 872 841
f 841 872 842
f 912 913 915
f 915 913 914
f 917 918 916
f 916 918 919
f 855 920 856
f 856 920 921
f 922 923 798
f 798 923 924
f 926 927 925
f 925 927 850
f 929 930 928
f 928 930 931
f 860 879 861
f 861 879 882
f 879 860 933
f 933 860 932
f 934 935 836
f 836 935 837
f 936 846 925
f 925 846 845
f 937 924 793
f 793 924 794
f 846 936 874
f 874 936 938
f 907 844 908
f 908 844 843
f 940 941 939
f 939 941 942
f 944 945 943
f 943 945 946
f 948 949 947
f 947 949 950
f 952 949 951
f 951 949 948
f 954 955 953
f 953 955 956
f 958 959 957
f 957 959 802
f 960 961 799
f 799 961 962
f 859 963 860
f 860 963 932
f 964 965 966
f 966 965 922
f 936 849 938
f 938 849 967
f 968 913 935
f 935 913 837
f 947 950 917
f 917 950 918
f 925 850 936
f 936 850 849
f 970 971 969
f 969 971 972
f 945 944 827
f 827 944 973
f 974 968 828
f 828 968 935
f 975 976 978
f 978 976 977
f 799 802 960
f 960 802 959
f 924 937 798
f 798 937 795
f 960 959 859
f 859 959 963
f 979 963 958
f 958 963 959
f 980 981 861
f 861 981 862
f 983 984 982
f 982 984 863
f 985 800 962
f 962 800 799
f 957 802 986
f 986 802 801
f 986 987 957
f 957 987 983
f 987 988 983
f 983 988 984
f 990 984 989
f 989 984 988
f 957 983 958
f 958 983 982
f 991 954 866
f 866 954 992
f 864 863 990
f 990 863 984
f 971 995 996
f 995 997 996
f 996 997 998
f 997 796 998
f 998 796 795
f 797 999 798
f 798 999 922
f 1000 1001 1003
f 1003 1001 1002
f 953 1004 954
f 954 1004 992
f 1005 865 992
f 992 865 866
f 998 795 1006
f 1006 795 937
f 912 991 838
f 838 991 866
f 916 1007 929
f 929 1007 930
f 971 970 988
f 988 970 989
f 1008 972 996
f 996 972 971
f 1009 1010 1006
f 1006 1010 1008
f 1011 1012 869
f 869 1012 867
f 1013 1014 871
f 871 1014 870
f 1008 1010 1012
f 1012 1010 1015
f 825 1016 826
f 826 1016 1017
f 1018 969 1013
f 1013 969 1014
f 783 786 894
f 894 786 1019
f 1020 1021 967
f 967 1021 938
f 1022 1023 876
f 876 1023 877
f 934 1024 825
f 825 1024 1016
f 854 1025 855
f 855 1025 1026
f 1028 903 1027
f 1027 903 902
f 1030 1031 1029
f 1029 1031 1032
f 889 888 814
f 814 888 1033
f 1034 811 1033
f 1033 811 814
f 1035 1036 932
f 932 1036 933
f 841 947 911
f 911 947 917
f 844 948 841
f 841 948 947
f 951 948 907
f 907 948 844
f 907 906 951
f 951 906 1037
f 906 1038 1037
f 1037 1038 1039
f 991 912 1040
f 1040 912 915
f 1041 1042 964
f 964 1042 965
f 890 1043 891
f 891 1043 1044
f 789 1045 1046
f 1012 1011 1008
f 1008 1011 972
f 931 1047 848
f 848 1047 845
f 953 956 943
f 943 956 919
f 928 931 872
f 872 931 848
f 1049 999 1048
f 1048 999 985
f 1047 931 1050
f 1050 931 930
f 899 823 887
f 887 823 886
f 825 828 934
f 934 828 935
f 835 1051 836
f 836 1051 1052
f 923 1053 1038
f 1038 1053 1039
f 1054 927 921
f 921 927 856
f 926 1047 853
f 853 1047 1050
f 985 1055 1048
f 1048 1055 1056
f 973 974 827
f 827 974 828
f 837 913 838
f 838 913 912
f 861 882 980
f 980 882 1057
f 927 926 856
f 856 926 853
f 1025 1056 1026
f 1026 1056 1055
f 961 960 862
f 862 960 859
f 826 1017 1059
f 1059 1017 1060
f 1005 1001 1061
f 1061 1001 1000
f 1001 1004 1002
f 1002 1004 946
f 1059 1060 1002
f 1002 1060 1003
f 943 946 953
f 953 946 1004
f 1042 1041 916
f 916 1041 1007
f 792 794 906
f 906 794 1038
f 998 1006 996
f 996 1006 1008
f 865 1005 1062
f 1062 1005 1061
f 1038 794 923
f 923 794 924
f 1022 876 1036
f 1036 876 933
f 836 1052 934
f 934 1052 1024
f 885 1063 829
f 829 1063 833
f 1021 1064 938
f 938 1064 874
f 1012 1015 867
f 867 1015 868
f 824 910 885
f 885 910 1063
f 1031 1030 1027
f 1027 1030 1028
f 1064 804 874
f 874 804 803
f 884 883 1065
f 1065 883 1066
f 1050 930 1067
f 1067 930 1007
f 916 929 917
f 917 929 911
f 961 1068 939
f 939 1068 940
f 1069 1070 1055
f 1055 1070 1071
f 929 928 911
f 911 928 872
f 1040 1053 955
f 955 1053 965
f 922 965 923
f 923 965 1053
f 1051 835 1062
f 1062 835 865
f 952 914 968
f 968 914 913
f 889 895 890
f 890 895 816
f 895 897 816
f 816 897 901
f 890 816 1043
f 1043 816 815
f 1065 1066 1032
f 1032 1066 1029
f 1006 937 1009
f 1009 937 793
f 1001 1005 1004
f 1004 1005 992
f 925 845 926
f 926 845 1047
f 1002 946 1059
f 1059 946 945
f 977 941 978
f 978 941 940
f 823 824 886
f 886 824 885
f 1059 945 826
f 826 945 827
f 939 942 1069
f 1069 942 1070
f 816 901 817
f 1071 1072 1055
f 1055 1072 1026
f 1062 1061 1074
f 1074 1061 1073
f 1062 1074 1051
f 1051 1074 1075
f 1052 1051 1076
f 1076 1051 1075
f 1024 1052 1077
f 1077 1052 1076
f 1061 1000 1073
f 1073 1000 1078
f 1000 1003 1078
f 1078 1003 1079
f 1079 1003 1080
f 1080 1003 1060
f 1081 1082 1078
f 1078 1082 1073
f 1084 1085 1083
f 1083 1085 1086
f 1087 1088 1086
f 1086 1088 1083
f 1086 1085 1090
f 1090 1085 1089
f 1091 1092 1090
f 1090 1092 1093
f 1089 1094 1090
f 1090 1094 1091
f 1095 1082 1089
f 1089 1082 1094
f 1093 1087 1090
f 1090 1087 1086
f 1096 1097 1099
f 1099 1097 1098
f 1097 1096 1087
f 1087 1096 1088
f 1089 1085 1095
f 1095 1085 1084
f 1084 1075 1095
f 1095 1075 1074
f 1084 1100 1075
f 1075 1100 1076
f 1083 1101 1084
f 1084 1101 1100
f 1101 1083 1102
f 1102 1083 1088
f 1082 1095 1073
f 1073 1095 1074
f 1096 1103 1088
f 1088 1103 1102
f 1101 1102 1104
f 1104 1102 1105
f 1102 1103 1105
f 1105 1103 1106
f 1104 1105 1107
f 1107 1105 1108
f 1107 1109 1104
f 1104 1109 1110
f 1111 1108 1106
f 1106 1108 1105
f 1101 1104 1100
f 1100 1104 1110
f 1100 1110 1076
f 1076 1110 1077
f 1103 1096 1112
f 1112 1096 1099
f 1091 1094 1113
f 1113 1094 1082
f 1113 1114 1091
f 1091 1114 1092
f 1082 1081 1113
f 1113 1081 1115
f 1114 1113 1116
f 1116 1113 1115
f 1114 1117 1092
f 1092 1117 1118
f 1024 1077 1016
f 1016 1077 1119
f 1017 1120 1060
f 1060 1120 1080
f 1120 1017 1119
f 1119 1017 1016
f 1119 1109 1120
f 1120 1109 1121
f 1109 1107 1121
f 1121 1107 1122
f 1120 1121 1080
f 1080 1121 1123
f 1119 1077 1109
f 1109 1077 1110
f 1124 1079 1123
f 1123 1079 1080
f 1124 1081 1079
f 1079 1081 1078
f 1125 1115 1124
f 1124 1115 1081
f 1125 1124 1126
f 1126 1124 1123
f 1127 1125 1128
f 1128 1125 1126
f 1121 1122 1123
f 1123 1122 1126
f 1122 1129 1126
f 1126 1129 1128
f 1115 1125 1116
f 1116 1125 1127
f 1131 1116 1130
f 1130 1116 1127
f 1130 1133 1132
f 1132 1133 1134
f 1130 1127 1133
f 1133 1127 1128
f 1130 1132 1131
f 1131 1132 1112
f 1131 1112 1117
f 1117 1112 1099
f 1117 1114 1131
f 1131 1114 1116
f 1107 1108 1122
f 1122 1108 1129
f 1134 1129 1111
f 1111 1129 1108
f 1134 1133 1129
f 1129 1133 1128
f 1132 1134 1106
f 1106 1134 1111
f 1106 1103 1132
f 1132 1103 1112
f 1087 1093 1097
f 1097 1093 1098
f 1098 1118 1099
f 1099 1118 1117
f 1098 1093 1118
f 1118 1093 1092
f 915 914 1039
f 1039 914 1037
f 918 944 919
f 919 944 943
f 950 949 973
f 973 949 974
f 949 952 974
f 974 952 968
f 956 955 1042
f 1042 955 965
f 950 973 918
f 918 973 944
f 915 1039 1040
f 1040 1039 1053
f 956 1042 919
f 919 1042 916
f 1040 955 991
f 991 955 954
f 914 952 1037
f 1037 952 951
f 1136 1137 1135
f 1135 1137 1138
f 1140 1141 1139
f 1139 1141 1142
f 1139 1142 1143
f 1143 1142 1144
f 1145 1146 1148
f 1148 1146 1147
f 854 1149 1025
f 1025 1149 1150
f 1151 1152 1140
f 1140 1152 1141
f 1154 1155 1153
f 1153 1155 1156
f 1067 1007 1158
f 1158 1007 1157
f 1159 1157 1041
f 1041 1157 1007
f 1161 1162 1160
f 1160 1162 1163
f 1164 1146 1152
f 1152 1146 1141
f 854 1067 1149
f 1149 1067 1158
f 1155 1154 1137
f 1137 1154 1165
f 1166 1164 1138
f 1138 1164 1152
f 1167 1161 1144
f 1144 1161 1168
f 1170 1171 1169
f 1169 1171 1172
f 1161 1160 1168
f 1168 1160 1173
f 1174 1143 1168
f 1168 1143 1144
f 1167 1144 1145
f 1145 1144 1142
f 1135 1175 1136
f 1136 1175 1176
f 1151 1177 1135
f 1135 1177 1175
f 1167 1145 1178
f 1178 1145 1148
f 1160 1163 1153
f 1153 1163 1150
f 1135 1138 1151
f 1151 1138 1152
f 1139 1179 1140
f 1140 1179 1180
f 1165 1166 1137
f 1137 1166 1138
f 1141 1146 1142
f 1142 1146 1145
f 1136 1176 1181
f 1181 1176 1182
f 1174 1170 1183
f 1183 1170 1169
f 1170 1173 1171
f 1171 1173 1156
f 1171 1181 1172
f 1172 1181 1182
f 1153 1156 1160
f 1160 1156 1173
f 1143 1174 1184
f 1184 1174 1183
f 1140 1180 1151
f 1151 1180 1177
f 1049 1048 1178
f 1178 1048 1162
f 1179 1139 1184
f 1184 1139 1143
f 1159 1147 1164
f 1164 1147 1146
f 1170 1174 1173
f 1173 1174 1168
f 1171 1156 1181
f 1181 1156 1155
f 1181 1155 1136
f 1136 1155 1137
f 1184 1183 1186
f 1186 1183 1185
f 1184 1186 1179
f 1179 1186 1187
f 1179 1187 1180
f 1180 1187 1188
f 1180 1188 1177
f 1177 1188 1189
f 1183 1169 1185
f 1185 1169 1190
f 1169 1172 1190
f 1190 1172 1191
f 1172 1182 1191
f 1191 1182 1192
f 1193 1194 1190
f 1190 1194 1185
f 1196 1197 1195
f 1195 1197 1198
f 1199 1200 1196
f 1196 1200 1197
f 1197 1200 1202
f 1202 1200 1201
f 1203 1204 1202
f 1202 1204 1205
f 1201 1206 1202
f 1202 1206 1203
f 1205 1198 1202
f 1202 1198 1197
f 1198 1207 1195
f 1195 1207 1208
f 1201 1200 1209
f 1209 1200 1199
f 1199 1187 1209
f 1209 1187 1186
f 1199 1210 1187
f 1187 1210 1188
f 1196 1211 1199
f 1199 1211 1210
f 1212 1211 1195
f 1195 1211 1196
f 1209 1194 1201
f 1201 1194 1206
f 1194 1209 1185
f 1185 1209 1186
f 1213 1212 1208
f 1208 1212 1195
f 1211 1212 1214
f 1214 1212 1215
f 1212 1213 1215
f 1215 1213 1216
f 1214 1215 1217
f 1217 1215 1218
f 1217 1219 1214
f 1214 1219 1220
f 1216 1221 1215
f 1215 1221 1218
f 1214 1220 1211
f 1211 1220 1210
f 1210 1220 1188
f 1188 1220 1189
f 1213 1208 1223
f 1223 1208 1222
f 1208 1207 1222
f 1222 1207 1224
f 1203 1206 1225
f 1225 1206 1194
f 1204 1203 1226
f 1226 1203 1225
f 1194 1193 1225
f 1225 1193 1227
f 1225 1227 1226
f 1226 1227 1228
f 1229 1230 1226
f 1226 1230 1204
f 1224 1230 1222
f 1222 1230 1229
f 1177 1189 1175
f 1175 1189 1231
f 1176 1232 1182
f 1182 1232 1192
f 1232 1176 1231
f 1231 1176 1175
f 1231 1219 1232
f 1232 1219 1233
f 1219 1217 1233
f 1233 1217 1234
f 1232 1233 1192
f 1192 1233 1235
f 1219 1231 1220
f 1220 1231 1189
f 1236 1191 1235
f 1235 1191 1192
f 1236 1193 1191
f 1191 1193 1190
f 1236 1237 1193
f 1193 1237 1227
f 1237 1236 1238
f 1238 1236 1235
f 1239 1237 1240
f 1240 1237 1238
f 1233 1234 1235
f 1235 1234 1238
f 1234 1241 1238
f 1238 1241 1240
f 1237 1239 1227
f 1227 1239 1228
f 1243 1228 1242
f 1242 1228 1239
f 1242 1245 1244
f 1244 1245 1246
f 1242 1239 1245
f 1245 1239 1240
f 1242 1244 1243
f 1243 1244 1223
f 1243 1223 1229
f 1229 1223 1222
f 1229 1226 1243
f 1243 1226 1228
f 1217 1218 1234
f 1234 1218 1241
f 1246 1241 1221
f 1221 1241 1218
f 1246 1245 1241
f 1241 1245 1240
f 1244 1246 1216
f 1216 1246 1221
f 1216 1213 1244
f 1244 1213 1223
f 1198 1205 1207
f 1207 1205 1224
f 1224 1205 1230
f 1230 1205 1204
f 1148 1147 966
f 966 1147 964
f 1149 1154 1150
f 1150 1154 1153
f 1158 1157 1165
f 1165 1157 1166
f 1157 1159 1166
f 1166 1159 1164
f 1163 1162 1056
f 1056 1162 1048
f 1158 1165 1149
f 1149 1165 1154
f 1178 1148 1049
f 1049 1148 966
f 1163 1056 1150
f 1150 1056 1025
f 1178 1162 1167
f 1167 1162 1161
f 1147 1159 964
f 964 1159 1041
f 999 1049 922
f 922 1049 966
f 999 797 985
f 985 797 800
f 797 796 800
f 800 796 801
f 796 997 801
f 801 997 986
f 1247 1248 1250
f 1250 1248 1249
f 1252 1253 1251
f 1251 1253 1254
f 1251 1254 1255
f 1255 1254 1256
f 1258 1259 1257
f 1257 1259 1260
f 1261 1262 1252
f 1252 1262 1253
f 1264 1265 1263
f 1263 1265 1266
f 1267 1268 855
f 855 1268 920
f 1269 1267 1026
f 1026 1267 855
f 1271 1272 1270
f 1270 1272 1273
f 1274 1258 1262
f 1262 1258 1253
f 1264 1275 1265
f 1265 1275 1249
f 1276 1274 1250
f 1250 1274 1262
f 1277 1271 1256
f 1256 1271 1278
f 1279 1280 1282
f 1282 1280 1281
f 1271 1270 1278
f 1278 1270 1283
f 1284 1255 1278
f 1278 1255 1256
f 1277 1256 1257
f 1257 1256 1254
f 1247 1285 1248
f 1248 1285 1286
f 1261 1287 1247
f 1247 1287 1285
f 1257 1260 1277
f 1277 1260 1288
f 1270 1273 1263
f 1263 1273 1289
f 1261 1247 1262
f 1262 1247 1250
f 1251 1290 1252
f 1252 1290 1291
f 1275 1276 1249
f 1249 1276 1250
f 1253 1258 1254
f 1254 1258 1257
f 1248 1286 1292
f 1292 1286 1293
f 1284 1280 1294
f 1294 1280 1279
f 1281 1280 1266
f 1266 1280 1283
f 1292 1293 1281
f 1281 1293 1282
f 1263 1266 1270
f 1270 1266 1283
f 1255 1284 1295
f 1295 1284 1294
f 1252 1291 1261
f 1261 1291 1287
f 1288 1070 1272
f 1272 1070 942
f 1290 1251 1295
f 1295 1251 1255
f 1269 1259 1274
f 1274 1259 1258
f 1280 1284 1283
f 1283 1284 1278
f 1281 1266 1292
f 1292 1266 1265
f 1292 1265 1248
f 1248 1265 1249
f 1295 1294 1297
f 1297 1294 1296
f 1295 1297 1290
f 1290 1297 1298
f 1290 1298 1291
f 1291 1298 1299
f 1291 1299 1287
f 1287 1299 1300
f 1294 1279 1296
f 1296 1279 1301
f 1279 1282 1301
f 1301 1282 1302
f 1302 1282 1303
f 1303 1282 1293
f 1304 1305 1301
f 1301 1305 1296
f 1307 1308 1306
f 1306 1308 1309
f 1310 1311 1307
f 1307 1311 1308
f 1308 1311 1313
f 1313 1311 1312
f 1314 1315 1313
f 1313 1315 1316
f 1312 1317 1313
f 1313 1317 1314
f 1316 1309 1313
f 1313 1309 1308
f 1318 1319 1309
f 1309 1319 1306
f 1311 1310 1312
f 1312 1310 1320
f 1310 1298 1320
f 1320 1298 1297
f 1310 1321 1298
f 1298 1321 1299
f 1307 1322 1310
f 1310 1322 1321
f 1322 1307 1323
f 1323 1307 1306
f 1312 1320 1317
f 1317 1320 1305
f 1305 1320 1296
f 1296 1320 1297
f 1319 1324 1306
f 1306 1324 1323
f 1325 1322 1326
f 1326 1322 1323
f 1324 1327 1323
f 1323 1327 1326
f 1328 1325 1329
f 1329 1325 1326
f 1325 1328 1331
f 1331 1328 1330
f 1327 1332 1326
f 1326 1332 1329
f 1322 1325 1321
f 1321 1325 1331
f 1321 1331 1299
f 1299 1331 1300
f 1324 1319 1334
f 1334 1319 1333
f 1319 1318 1333
f 1333 1318 1335
f 1314 1317 1336
f 1336 1317 1305
f 1315 1314 1337
f 1337 1314 1336
f 1305 1304 1336
f 1336 1304 1338
f 1337 1336 1339
f 1339 1336 1338
f 1337 1340 1315
f 1315 1340 1341
f 1335 1341 1333
f 1333 1341 1340
f 1287 1300 1285
f 1285 1300 1342
f 1286 1343 1293
f 1293 1343 1303
f 1343 1286 1342
f 1342 1286 1285
f 1342 1330 1343
f 1343 1330 1344
f 1330 1328 1344
f 1344 1328 1345
f 1343 1344 1303
f 1303 1344 1346
f 1342 1300 1330
f 1330 1300 1331
f 1347 1302 1346
f 1346 1302 1303
f 1347 1304 1302
f 1302 1304 1301
f 1348 1338 1347
f 1347 1338 1304
f 1348 1347 1349
f 1349 1347 1346
f 1350 1348 1351
f 1351 1348 1349
f 1344 1345 1346
f 1346 1345 1349
f 1345 1352 1349
f 1349 1352 1351
f 1348 1350 1338
f 1338 1350 1339
f 1354 1339 1353
f 1353 1339 1350
f 1353 1356 1355
f 1355 1356 1357
f 1353 1350 1356
f 1356 1350 1351
f 1353 1355 1354
f 1354 1355 1334
f 1354 1334 1340
f 1340 1334 1333
f 1340 1337 1354
f 1354 1337 1339
f 1328 1329 1345
f 1345 1329 1352
f 1357 1352 1332
f 1332 1352 1329
f 1357 1356 1352
f 1352 1356 1351
f 1357 1332 1355
f 1355 1332 1327
f 1327 1324 1355
f 1355 1324 1334
f 1309 1316 1318
f 1318 1316 1335
f 1335 1316 1341
f 1341 1316 1315
f 1259 1072 1260
f 1260 1072 1071
f 1358 1264 1289
f 1289 1264 1263
f 1268 1267 1275
f 1275 1267 1276
f 1267 1269 1276
f 1276 1269 1274
f 941 1273 942
f 942 1273 1272
f 1358 1268 1264
f 1264 1268 1275
f 1260 1071 1288
f 1288 1071 1070
f 1273 941 1289
f 1289 941 977
f 1272 1271 1288
f 1288 1271 1277
f 1259 1269 1072
f 1072 1269 1026
f 1360 1361 1359
f 1359 1361 1362
f 1364 1365 1363
f 1363 1365 1366
f 1363 1366 1367
f 1367 1366 1368
f 1370 1371 1369
f 1369 1371 1372
f 1373 1374 1376
f 1376 1374 1375
f 1377 1378 1364
f 1364 1378 1365
f 1379 1380 1382
f 1382 1380 1381
f 1383 1384 1386
f 1386 1384 1385
f 1387 1385 978
f 978 1385 1384
f 1388 1389 1391
f 1391 1389 1390
f 1378 1392 1365
f 1365 1392 1370
f 1374 1383 1375
f 1375 1383 1386
f 1380 1393 1381
f 1381 1393 1361
f 1394 1392 1362
f 1362 1392 1378
f 1389 1396 1395
f 1395 1396 1368
f 1398 1399 1397
f 1397 1399 1400
f 1388 1401 1389
f 1389 1401 1396
f 1402 1367 1396
f 1396 1367 1368
f 1395 1368 1369
f 1369 1368 1366
f 1359 1403 1360
f 1360 1403 1404
f 1377 1405 1359
f 1359 1405 1403
f 1369 1372 1395
f 1395 1372 1406
f 1379 1388 1376
f 1376 1388 1391
f 1359 1362 1377
f 1377 1362 1378
f 1363 1407 1364
f 1364 1407 1408
f 1393 1394 1361
f 1361 1394 1362
f 1365 1370 1366
f 1366 1370 1369
f 1360 1404 1409
f 1409 1404 1410
f 1402 1398 1411
f 1411 1398 1397
f 1399 1398 1382
f 1382 1398 1401
f 1409 1410 1399
f 1399 1410 1400
f 1388 1379 1401
f 1401 1379 1382
f 1367 1402 1412
f 1412 1402 1411
f 1364 1408 1377
f 1377 1408 1405
f 981 980 1406
f 1406 980 1390
f 1407 1363 1412
f 1412 1363 1367
f 1387 1371 1392
f 1392 1371 1370
f 1398 1402 1401
f 1401 1402 1396
f 1409 1399 1381
f 1381 1399 1382
f 1360 1409 1361
f 1361 1409 1381
f 1412 1411 1414
f 1414 1411 1413
f 1412 1414 1407
f 1407 1414 1415
f 1407 1415 1408
f 1408 1415 1416
f 1408 1416 1405
f 1405 1416 1417
f 1411 1397 1413
f 1413 1397 1418
f 1397 1400 1418
f 1418 1400 1419
f 1419 1400 1420
f 1420 1400 1410
f 1422 1413 1421
f 1421 1413 1418
f 1423 1424 1426
f 1426 1424 1425
f 1427 1428 1424
f 1424 1428 1425
f 1425 1428 1430
f 1430 1428 1429
f 1430 1431 1433
f 1433 1431 1432
f 1429 1434 1430
f 1430 1434 1431
f 1433 1426 1430
f 1430 1426 1425
f 1426 1435 1423
f 1423 1435 1436
f 1428 1427 1429
f 1429 1427 1437
f 1427 1415 1437
f 1437 1415 1414
f 1427 1438 1415
f 1415 1438 1416
f 1439 1438 1424
f 1424 1438 1427
f 1440 1439 1423
f 1423 1439 1424
f 1429 1437 1434
f 1434 1437 1422
f 1422 1437 1413
f 1413 1437 1414
f 1441 1440 1436
f 1436 1440 1423
f 1442 1439 1443
f 1443 1439 1440
f 1441 1444 1440
f 1440 1444 1443
f 1445 1442 1446
f 1446 1442 1443
f 1442 1445 1448
f 1448 1445 1447
f 1444 1449 1443
f 1443 1449 1446
f 1439 1442 1438
f 1438 1442 1448
f 1438 1448 1416
f 1416 1448 1417
f 1436 1450 1441
f 1441 1450 1451
f 1436 1435 1450
f 1450 1435 1452
f 1431 1434 1453
f 1453 1434 1422
f 1431 1453 1432
f 1432 1453 1454
f 1453 1422 1455
f 1455 1422 1421
f 1454 1453 1456
f 1456 1453 1455
f 1457 1458 1454
f 1454 1458 1432
f 1452 1458 1450
f 1450 1458 1457
f 1405 1417 1403
f 1403 1417 1459
f 1404 1460 1410
f 1410 1460 1420
f 1459 1460 1403
f 1403 1460 1404
f 1447 1461 1459
f 1459 1461 1460
f 1445 1462 1447
f 1447 1462 1461
f 1460 1461 1420
f 1420 1461 1463
f 1459 1417 1447
f 1447 1417 1448
f 1464 1419 1463
f 1463 1419 1420
f 1419 1464 1418
f 1418 1464 1421
f 1464 1465 1421
f 1421 1465 1455
f 1465 1464 1466
f 1466 1464 1463
f 1467 1465 1468
f 1468 1465 1466
f 1461 1462 1463
f 1463 1462 1466
f 1462 1469 1466
f 1466 1469 1468
f 1465 1467 1455
f 1455 1467 1456
f 1471 1456 1470
f 1470 1456 1467
f 1470 1473 1472
f 1472 1473 1474
f 1470 1467 1473
f 1473 1467 1468
f 1470 1472 1471
f 1471 1472 1451
f 1471 1451 1457
f 1457 1451 1450
f 1457 1454 1471
f 1471 1454 1456
f 1462 1445 1469
f 1469 1445 1446
f 1474 1469 1449
f 1449 1469 1446
f 1474 1473 1469
f 1469 1473 1468
f 1472 1474 1444
f 1444 1474 1449
f 1444 1441 1472
f 1472 1441 1451
f 1426 1433 1435
f 1435 1433 1452
f 1452 1433 1458
f 1458 1433 1432
f 1371 940 1372
f 1372 940 1068
f 1376 1375 1379
f 1379 1375 1380
f 1393 1386 1394
f 1394 1386 1385
f 1385 1387 1394
f 1394 1387 1392
f 1475 1373 1391
f 1391 1373 1376
f 1375 1386 1380
f 1380 1386 1393
f 1372 1068 1406
f 1406 1068 981
f 1406 1390 1395
f 1395 1390 1389
f 1371 1387 940
f 940 1387 978
f 883 807 1476
f 1476 807 1477
f 1046 904 1479
f 1479 904 1478
f 904 903 1478
f 1478 903 1480
f 1030 1481 1028
f 1028 1481 1482
f 810 1046 1483
f 1483 1046 1479
f 1066 883 1484
f 1484 883 1476
f 807 810 1477
f 1477 810 1483
f 1485 1029 1484
f 1484 1029 1066
f 1028 1482 903
f 903 1482 1480
f 1481 1030 1485
f 1485 1030 1029
f 1484 1486 1485
f 1485 1486 1487
f 1485 1487 1481
f 1481 1487 1488
f 1481 1488 1482
f 1482 1488 1489
f 1482 1489 1480
f 1480 1489 1490
f 1484 1476 1486
f 1486 1476 1491
f 1476 1477 1491
f 1491 1477 1492
f 1477 1483 1492
f 1492 1483 1493
f 1495 1486 1494
f 1494 1486 1491
f 1497 1498 1496
f 1496 1498 1499
f 1500 1501 1497
f 1497 1501 1498
f 1502 1503 1501
f 1501 1503 1498
f 1502 1504 1503
f 1503 1504 1505
f 1506 1499 1503
f 1503 1499 1498
f 1499 1506 1507
f 1507 1506 1508
f 1507 1509 1499
f 1499 1509 1496
f 1502 1501 1510
f 1510 1501 1500
f 1500 1488 1510
f 1510 1488 1487
f 1500 1511 1488
f 1488 1511 1489
f 1497 1512 1500
f 1500 1512 1511
f 1512 1497 1513
f 1513 1497 1496
f 1502 1510 1504
f 1504 1510 1495
f 1495 1510 1486
f 1486 1510 1487
f 1509 1514 1496
f 1496 1514 1513
f 1515 1512 1516
f 1516 1512 1513
f 1514 1517 1513
f 1513 1517 1516
f 1518 1515 1519
f 1519 1515 1516
f 1515 1518 1521
f 1521 1518 1520
f 1517 1522 1516
f 1516 1522 1519
f 1512 1515 1511
f 1511 1515 1521
f 1511 1521 1489
f 1489 1521 1490
f 1514 1509 1524
f 1524 1509 1523
f 1509 1507 1523
f 1523 1507 1508
f 1505 1504 1525
f 1525 1504 1495
f 1526 1505 1527
f 1527 1505 1525
f 1525 1495 1528
f 1528 1495 1494
f 1527 1525 1529
f 1529 1525 1528
f 1527 1530 1526
f 1526 1530 1531
f 1508 1531 1523
f 1523 1531 1530
f 1506 1503 1526
f 1526 1503 1505
f 1508 1506 1531
f 1531 1506 1526
f 1478 1480 1532
f 1532 1480 1490
f 1483 1479 1493
f 1493 1479 1533
f 1532 1533 1478
f 1478 1533 1479
f 1520 1534 1532
f 1532 1534 1533
f 1518 1535 1520
f 1520 1535 1534
f 1533 1534 1493
f 1493 1534 1536
f 1532 1490 1520
f 1520 1490 1521
f 1537 1492 1536
f 1536 1492 1493
f 1492 1537 1491
f 1491 1537 1494
f 1537 1538 1494
f 1494 1538 1528
f 1538 1537 1539
f 1539 1537 1536
f 1540 1538 1541
f 1541 1538 1539
f 1534 1535 1536
f 1536 1535 1539
f 1535 1542 1539
f 1539 1542 1541
f 1538 1540 1528
f 1528 1540 1529
f 1544 1529 1543
f 1543 1529 1540
f 1545 1543 1547
f 1547 1543 1546
f 1543 1540 1546
f 1546 1540 1541
f 1543 1545 1544
f 1544 1545 1524
f 1544 1524 1530
f 1530 1524 1523
f 1530 1527 1544
f 1544 1527 1529
f 1535 1518 1542
f 1542 1518 1519
f 1547 1542 1522
f 1522 1542 1519
f 1547 1546 1542
f 1542 1546 1541
f 1545 1547 1517
f 1517 1547 1522
f 1517 1514 1545
f 1545 1514 1524
f 997 995 986
f 986 995 987
f 987 995 988
f 988 995 971
f 976 1358 977
f 977 1358 1289
f 854 853 1067
f 1067 853 1050
f 1055 985 1069
f 1069 985 962
f 1068 961 981
f 981 961 862
f 1268 1358 920
f 920 1358 976
f 920 976 921
f 921 976 975
f 927 1054 850
f 850 1054 851
f 882 881 1057
f 1057 881 1548
f 1548 1374 1057
f 1057 1374 1373
f 1383 1374 1549
f 1549 1374 1548
f 1549 1548 1550
f 1550 1548 881
f 1550 881 1551
f 1551 881 880
f 933 1552 879
f 879 1552 880
f 1551 880 875
f 875 880 1552
f 1553 1551 878
f 878 1551 875
f 1551 1553 1550
f 1550 1553 1554
f 1550 1554 1549
f 1549 1554 1555
f 978 1384 975
f 975 1384 1555
f 967 849 1556
f 1556 849 852
f 875 1552 876
f 876 1552 933
f 961 939 962
f 962 939 1069
f 1555 1054 975
f 975 1054 921
f 1555 1384 1549
f 1549 1384 1383
f 1391 1390 1475
f 1475 1390 980
f 1373 1475 1057
f 1057 1475 980
f 851 1054 1554
f 1554 1054 1555
f 1554 1553 851
f 851 1553 852
f 878 1556 1553
f 1553 1556 852
f 1556 878 967
f 967 878 877
f 1023 1020 877
f 877 1020 967
f 909 811 1034
f 806 779 873
f 873 779 840
f 805 780 806
f 806 780 779
f 1043 893 1044
f 1044 893 892
f 873 840 847
f 847 840 842
f 840 839 842
f 842 839 843
f 839 791 843
f 843 791 908
f 791 790 908
f 908 790 792
f 809 789 810
f 810 789 1046
f 793 790 809
f 809 790 789
f 809 808 793
f 793 808 1009
f 808 884 1009
f 1009 884 1010
f 1065 1015 884
f 884 1015 1010
f 1032 868 1065
f 1065 868 1015
f 1031 822 1032
f 1032 822 868
f 1031 1027 822
f 822 1027 785
f 1045 905 1046
f 1046 905 904
f 788 781 1019
f 1019 781 894
f 781 780 894
f 894 780 892
f 780 805 892
f 892 805 1044
f 805 804 1044
f 1044 804 891
f 804 1064 891
f 891 1064 888
f 1064 1021 888
f 888 1021 1033
f 1021 1020 1033
f 1033 1020 1034
f 1020 1023 1034
f 1034 1023 909
f 1023 1022 909
f 909 1022 910
f 1043 815 893
f 893 815 819
f 819 815 820
f 820 815 818
f 870 869 818
f 818 869 820
f 1014 1011 870
f 870 1011 869
f 969 972 1014
f 1014 972 1011
f 1036 1063 1022
f 1022 1063 910
f 1035 833 1036
f 1036 833 1063
f 1035 932 979
f 979 932 963
f 834 979 982
f 982 979 958
f 833 1035 834
f 834 1035 979
f 982 863 834
f 834 863 830
f 864 900 831
f 831 900 857
f 990 993 864
f 864 993 900
f 989 994 990
f 990 994 993
f 970 1058 989
f 989 1058 994
f 969 1018 970
f 970 1018 1058
f 1027 902 785
f 785 902 786
f 902 905 786
f 786 905 1019
f 905 1045 1019
f 1019 1045 788
f 788 1045 787
f 787 1045 789
