o hand_left
v -0.235846 -0.169445 0.736714
v -0.244645 -0.166718 0.732052
v -0.235339 -0.160446 0.732844
v -0.227336 -0.163875 0.736407
v -0.252076 -0.148941 0.724559
v -0.253994 -0.144332 0.713272
v -0.239511 -0.139283 0.717849
v -0.240210 -0.143590 0.727203
v -0.218935 -0.160930 0.734892
v -0.227602 -0.155901 0.733469
v -0.213969 -0.161362 0.729741
v -0.207143 -0.171090 0.730019
v -0.211615 -0.167365 0.735678
v -0.202032 -0.176442 0.733750
v -0.210096 -0.178068 0.721412
v -0.202106 -0.186064 0.732028
v -0.228117 -0.201264 0.729009
v -0.238333 -0.207317 0.735700
v -0.225948 -0.209673 0.747511
v -0.216808 -0.202455 0.740018
v -0.245524 -0.212799 0.754705
v -0.234183 -0.211396 0.751378
v -0.246208 -0.210228 0.739151
v -0.255759 -0.211497 0.742835
v -0.250258 -0.177254 0.739822
v -0.259454 -0.175455 0.734528
v -0.254093 -0.173315 0.732816
v -0.245552 -0.174801 0.737766
v -0.211857 -0.153191 0.718657
v -0.215872 -0.163004 0.713427
v -0.212751 -0.164024 0.721148
v -0.212342 -0.152506 0.724388
v -0.287303 -0.169781 0.727755
v -0.294304 -0.172781 0.716521
v -0.290263 -0.170742 0.712745
v -0.284607 -0.168938 0.723826
v -0.272904 -0.156996 0.706060
v -0.279065 -0.163957 0.700304
v -0.275383 -0.167175 0.687154
v -0.267202 -0.162862 0.691317
v -0.263735 -0.149691 0.710442
v -0.260127 -0.153364 0.697122
v -0.250745 -0.146719 0.702293
v -0.236891 -0.140138 0.708891
v -0.302434 -0.179923 0.723562
v -0.298683 -0.178298 0.732939
v -0.183192 -0.161419 0.776159
v -0.186938 -0.163128 0.780311
v -0.188861 -0.164930 0.776794
v -0.184537 -0.163168 0.773305
v -0.301522 -0.199034 0.730368
v -0.297870 -0.207669 0.726470
v -0.303946 -0.206007 0.722740
v -0.306409 -0.197127 0.724890
v -0.294972 -0.201416 0.737576
v -0.289226 -0.209180 0.731581
v -0.172047 -0.167948 0.777216
v -0.174538 -0.163868 0.775234
v -0.175166 -0.167252 0.771744
v -0.173437 -0.171706 0.773732
v -0.219128 -0.167084 0.739527
v -0.227952 -0.170389 0.742122
v -0.207781 -0.172053 0.751141
v -0.215618 -0.172568 0.747846
v -0.211399 -0.170231 0.742470
v -0.204966 -0.170928 0.745309
v -0.235365 -0.182699 0.756325
v -0.243956 -0.181024 0.748453
v -0.238137 -0.178625 0.746237
v -0.227809 -0.179031 0.754150
v -0.255555 -0.184075 0.756160
v -0.246053 -0.185858 0.763147
v -0.253725 -0.187425 0.766789
v -0.259332 -0.184978 0.761499
v -0.227847 -0.188805 0.772552
v -0.222462 -0.190709 0.776342
v -0.224555 -0.190934 0.778496
v -0.231016 -0.189837 0.774158
v -0.309431 -0.205166 0.718299
v -0.310340 -0.195357 0.719004
v -0.265003 -0.213283 0.764203
v -0.274552 -0.207881 0.766875
v -0.267021 -0.210557 0.778204
v -0.258836 -0.215789 0.772117
v -0.290191 -0.211964 0.720824
v -0.297511 -0.212155 0.717915
v -0.172599 -0.172412 0.781403
v -0.174649 -0.175891 0.777961
v -0.246718 -0.157113 0.694546
v -0.232520 -0.146571 0.702335
v -0.257436 -0.166064 0.689253
v -0.264716 -0.173141 0.685802
v -0.271035 -0.176646 0.681047
v -0.216788 -0.175626 0.753941
v -0.236550 -0.174503 0.742060
v -0.254503 -0.178894 0.742206
v -0.276825 -0.184744 0.762930
v -0.284333 -0.182413 0.755674
v -0.274622 -0.178777 0.752854
v -0.269943 -0.182152 0.759576
v -0.277550 -0.199519 0.771085
v -0.273987 -0.192252 0.772057
v -0.267713 -0.195031 0.779035
v -0.270353 -0.202364 0.779804
v -0.212566 -0.149548 0.711776
v -0.219623 -0.160822 0.706765
v -0.302540 -0.188599 0.732208
v -0.305491 -0.186972 0.725142
v -0.309722 -0.187673 0.717812
v -0.272842 -0.171438 0.730737
v -0.282777 -0.168150 0.721161
v -0.279404 -0.165859 0.719422
v -0.270073 -0.171282 0.729160
v -0.254750 -0.161891 0.729246
v -0.264801 -0.156122 0.721850
v -0.244260 -0.155323 0.731790
v -0.286130 -0.167789 0.706451
v -0.296560 -0.170753 0.704549
v -0.290844 -0.168339 0.698146
v -0.302756 -0.175705 0.710382
v -0.307594 -0.181434 0.715276
v -0.304134 -0.214619 0.713122
v -0.284632 -0.167648 0.692469
v -0.231153 -0.140404 0.728372
v -0.223499 -0.136456 0.728518
v -0.220087 -0.142954 0.731556
v -0.227542 -0.147474 0.732374
v -0.195862 -0.179126 0.739696
v -0.199895 -0.172797 0.742213
v -0.206154 -0.170813 0.736565
v -0.283449 -0.172715 0.738321
v -0.293353 -0.179603 0.742345
v -0.208502 -0.175311 0.757055
v -0.175884 -0.174736 0.769699
v -0.177551 -0.169594 0.767674
v -0.188090 -0.175201 0.752099
v -0.185610 -0.181294 0.754388
v -0.203547 -0.181515 0.764150
v -0.205534 -0.176126 0.760368
v -0.203804 -0.176785 0.762342
v -0.202437 -0.180850 0.767316
v -0.233292 -0.192682 0.781132
v -0.239112 -0.191542 0.777209
v -0.207030 -0.200618 0.752843
v -0.198798 -0.197122 0.741820
v -0.208365 -0.195849 0.733234
v -0.241887 -0.184723 0.759444
v -0.234782 -0.186530 0.767019
v -0.238180 -0.187859 0.769143
v -0.216004 -0.178047 0.758089
v -0.209556 -0.179192 0.761528
v -0.214072 -0.181224 0.762370
v -0.220660 -0.180265 0.759612
v -0.282338 -0.206563 0.756056
v -0.286135 -0.196846 0.761250
v -0.178628 -0.161608 0.774592
v -0.179479 -0.164106 0.771439
v -0.250178 -0.183034 0.751651
v -0.220268 -0.193584 0.724335
v -0.259094 -0.180258 0.744983
v -0.240396 -0.211378 0.776405
v -0.242838 -0.206414 0.781179
v -0.237418 -0.204513 0.785201
v -0.234138 -0.209136 0.783117
v -0.193129 -0.176270 0.779625
v -0.194225 -0.170887 0.777819
v -0.190949 -0.169081 0.781046
v -0.189405 -0.174108 0.783660
v -0.204379 -0.172548 0.755763
v -0.201135 -0.170680 0.750394
v -0.198486 -0.169920 0.755528
v -0.201719 -0.172904 0.759632
v -0.195908 -0.172657 0.747497
v -0.193024 -0.171139 0.752386
v -0.188485 -0.180949 0.779574
v -0.181564 -0.182535 0.776918
v -0.191443 -0.189414 0.763855
v -0.196686 -0.185726 0.768549
v -0.265371 -0.211470 0.731093
v -0.274776 -0.212013 0.737167
v -0.265452 -0.212188 0.749011
v -0.256540 -0.213748 0.760720
v -0.247490 -0.214088 0.771361
v -0.237221 -0.215111 0.764790
v -0.273010 -0.211759 0.752260
v -0.205097 -0.190047 0.762645
v -0.199059 -0.194109 0.756013
v -0.204704 -0.195760 0.758987
v -0.264790 -0.180657 0.749839
v -0.181690 -0.165797 0.767493
v -0.265464 -0.196233 0.689573
v -0.271920 -0.205570 0.696684
v -0.264712 -0.203910 0.701393
v -0.257793 -0.192719 0.693792
v -0.192134 -0.165964 0.773595
v -0.187507 -0.163737 0.769618
v -0.243361 -0.193720 0.781940
v -0.237170 -0.194912 0.784644
v -0.237335 -0.197938 0.786778
v -0.244334 -0.196418 0.786762
v -0.280375 -0.211311 0.739216
v -0.260665 -0.210251 0.785482
v -0.254599 -0.215466 0.779372
v -0.282565 -0.211826 0.726579
v -0.274422 -0.211970 0.721060
v -0.281382 -0.212453 0.714209
v -0.222548 -0.210128 0.763815
v -0.257186 -0.210230 0.728307
v -0.267544 -0.210216 0.718045
v -0.275542 -0.210720 0.709705
v -0.281623 -0.211880 0.704066
v -0.287433 -0.213527 0.709611
v -0.177633 -0.179436 0.773765
v -0.178414 -0.179300 0.782333
v -0.294230 -0.216375 0.704238
v -0.287521 -0.213754 0.698314
v -0.259976 -0.207013 0.713806
v -0.251435 -0.201550 0.708746
v -0.250305 -0.206959 0.723990
v -0.240838 -0.201826 0.719773
v -0.215459 -0.211100 0.755625
v -0.177074 -0.167803 0.795746
v -0.181763 -0.174929 0.788375
v -0.186576 -0.171687 0.787547
v -0.181247 -0.166473 0.796008
v -0.184919 -0.178146 0.784244
v -0.176542 -0.175608 0.785764
v -0.231999 -0.191482 0.713636
v -0.209100 -0.182963 0.765507
v -0.243722 -0.187262 0.701281
v -0.219674 -0.178472 0.710997
v -0.229533 -0.173419 0.702793
v -0.254870 -0.180682 0.688832
v -0.242640 -0.170169 0.692924
v -0.269288 -0.187518 0.681311
v -0.262254 -0.185468 0.685913
v -0.231446 -0.159374 0.698409
v -0.182059 -0.156318 0.785686
v -0.185357 -0.159342 0.789241
v -0.271780 -0.198137 0.684523
v -0.234968 -0.151109 0.732444
v -0.271469 -0.176396 0.742261
v -0.266822 -0.176441 0.738955
v -0.288165 -0.181183 0.750613
v -0.278413 -0.176116 0.746311
v -0.177195 -0.155774 0.783535
v -0.219204 -0.194311 0.778729
v -0.220966 -0.194403 0.777275
v -0.231854 -0.135675 0.720664
v -0.225582 -0.132902 0.721955
v -0.218925 -0.136304 0.710950
v -0.223071 -0.132625 0.715502
v -0.229699 -0.135966 0.712238
v -0.225732 -0.140388 0.707006
v -0.274861 -0.171530 0.732489
v -0.277686 -0.172112 0.735189
v -0.289334 -0.203803 0.746461
v -0.292342 -0.194039 0.751925
v -0.192188 -0.178001 0.746269
v -0.194666 -0.187393 0.740586
v -0.190711 -0.184747 0.747809
v -0.187740 -0.187487 0.757290
v -0.205604 -0.185714 0.766039
v -0.201330 -0.187306 0.763353
v -0.272668 -0.161352 0.720720
v -0.263827 -0.168224 0.728340
v -0.222121 -0.153183 0.732194
v -0.215772 -0.149289 0.730584
v -0.227987 -0.183231 0.761680
v -0.214419 -0.205058 0.771543
v -0.209011 -0.205234 0.764544
v -0.220725 -0.185061 0.766703
v -0.170184 -0.159908 0.786144
v -0.173501 -0.156797 0.783961
v -0.192813 -0.191331 0.750288
v -0.245594 -0.188982 0.773357
v -0.222172 -0.206541 0.770813
v -0.216766 -0.201065 0.777176
v -0.265564 -0.202801 0.784940
v -0.278671 -0.206671 0.690940
v -0.188822 -0.166935 0.785180
v -0.185952 -0.163056 0.792658
v -0.173282 -0.167994 0.793618
v -0.169977 -0.165395 0.789333
v -0.296796 -0.190448 0.742548
v -0.263433 -0.176412 0.737097
v -0.223108 -0.150533 0.703490
v -0.215479 -0.143042 0.709466
v -0.216964 -0.186595 0.769636
v -0.247034 -0.212207 0.778283
v -0.231774 -0.213369 0.772695
v -0.225943 -0.211090 0.779862
v -0.220176 -0.206523 0.777875
v -0.218092 -0.199398 0.778071
v -0.173007 -0.164138 0.797835
v -0.169616 -0.161366 0.793719
v -0.169862 -0.155988 0.790540
v -0.172928 -0.153376 0.788108
v -0.177248 -0.153357 0.786941
v -0.176867 -0.163958 0.800051
v -0.180638 -0.162730 0.799922
v -0.185058 -0.161014 0.795567
v -0.177824 -0.160496 0.803305
v -0.173176 -0.158075 0.803774
v -0.172030 -0.144993 0.799655
v -0.170065 -0.149995 0.797168
v -0.170140 -0.149533 0.799857
v -0.171424 -0.145700 0.802778
v -0.172293 -0.142715 0.806907
v -0.173133 -0.141250 0.803766
v -0.170426 -0.154068 0.800877
v -0.172094 -0.149407 0.805424
v -0.174329 -0.152177 0.807730
v -0.174803 -0.148282 0.811614
v -0.172640 -0.145701 0.809780
v -0.172759 -0.155189 0.804592
v -0.169725 -0.155869 0.799479
v -0.174372 -0.140041 0.808064
v -0.172858 -0.141492 0.809507
v -0.173681 -0.143698 0.811888
v -0.175879 -0.141674 0.812622
v -0.173159 -0.149741 0.791894
v -0.173965 -0.144069 0.798153
v -0.176206 -0.141144 0.802960
v -0.177124 -0.140019 0.807327
v -0.178045 -0.143988 0.798660
v -0.179028 -0.142036 0.802974
v -0.180129 -0.141403 0.806825
v -0.181836 -0.145285 0.800203
v -0.181694 -0.143501 0.803998
v -0.181108 -0.152409 0.790785
v -0.177321 -0.151096 0.789414
v -0.181997 -0.142383 0.806352
v -0.178101 -0.141747 0.812324
v -0.176760 -0.154971 0.807740
v -0.177862 -0.149415 0.811868
v -0.179118 -0.155392 0.807602
v -0.180149 -0.150163 0.811991
v -0.177523 -0.145890 0.814508
v -0.175288 -0.145873 0.813181
v -0.181874 -0.155311 0.788024
v -0.185061 -0.158534 0.791846
v -0.184573 -0.156188 0.794281
v -0.184604 -0.148368 0.802647
v -0.184923 -0.158533 0.798067
v -0.181473 -0.159382 0.802927
v -0.181857 -0.154229 0.807492
v -0.184236 -0.152286 0.805923
v -0.182293 -0.149864 0.810555
v -0.183510 -0.148609 0.808646
v -0.183752 -0.145720 0.806101
v -0.181983 -0.146027 0.811856
v -0.179694 -0.146064 0.813802
v -0.180852 -0.142675 0.810505
v -0.183053 -0.146256 0.810186
v -0.182213 -0.143887 0.808521
v -0.199982 -0.174117 0.794533
v -0.204614 -0.176681 0.798210
v -0.203877 -0.179517 0.794592
v -0.199921 -0.177221 0.791694
v -0.187650 -0.180445 0.797653
v -0.191127 -0.176003 0.794813
v -0.190198 -0.180049 0.791259
v -0.187792 -0.185676 0.794408
v -0.189273 -0.185924 0.801961
v -0.190230 -0.190916 0.798166
v -0.189102 -0.188972 0.789449
v -0.191819 -0.182882 0.786606
v -0.201983 -0.189503 0.769393
v -0.199732 -0.195920 0.770839
v -0.217240 -0.189523 0.778695
v -0.216405 -0.192755 0.780792
v -0.195920 -0.174117 0.793935
v -0.195166 -0.177540 0.790715
v -0.208649 -0.187180 0.796813
v -0.208531 -0.182460 0.793961
v -0.206835 -0.181917 0.797709
v -0.206074 -0.186244 0.801158
v -0.208916 -0.184878 0.770695
v -0.213594 -0.187235 0.774334
v -0.205379 -0.186020 0.769770
v -0.205102 -0.192596 0.798741
v -0.199153 -0.196085 0.798102
v -0.207679 -0.203359 0.780587
v -0.212367 -0.200004 0.783176
v -0.195958 -0.179194 0.786303
v -0.205212 -0.178943 0.790840
v -0.201159 -0.177507 0.787782
v -0.192749 -0.194372 0.793230
v -0.196625 -0.192294 0.803098
v -0.200101 -0.176560 0.815241
v -0.201457 -0.185898 0.807607
v -0.205263 -0.182939 0.805497
v -0.204444 -0.174220 0.814237
v -0.202417 -0.190010 0.803536
v -0.195715 -0.187351 0.806556
v -0.201884 -0.164118 0.805054
v -0.206362 -0.167038 0.808626
v -0.197411 -0.163473 0.804060
v -0.202334 -0.201679 0.774904
v -0.189379 -0.169763 0.806259
v -0.193440 -0.165065 0.803991
v -0.206941 -0.179731 0.801814
v -0.207051 -0.170605 0.812140
v -0.195634 -0.176998 0.814328
v -0.190114 -0.175444 0.809812
v -0.195153 -0.171729 0.817557
v -0.190615 -0.169929 0.813699
v -0.189845 -0.165026 0.809666
v -0.193794 -0.162001 0.806815
v -0.197779 -0.161477 0.806248
v -0.199296 -0.171392 0.818709
v -0.203770 -0.169914 0.817782
v -0.206480 -0.168022 0.813958
v -0.201860 -0.164517 0.821619
v -0.197281 -0.163256 0.821753
v -0.197067 -0.146009 0.814926
v -0.194760 -0.151392 0.813289
v -0.194335 -0.151785 0.815862
v -0.196531 -0.146945 0.817546
v -0.191644 -0.156866 0.813438
v -0.192458 -0.156035 0.815643
v -0.193601 -0.159310 0.818844
v -0.196412 -0.153803 0.819774
v -0.199419 -0.156477 0.822515
v -0.201087 -0.151270 0.824549
v -0.197952 -0.148461 0.822148
v -0.196511 -0.159753 0.821413
v -0.198230 -0.144267 0.819404
v -0.199980 -0.142585 0.818470
v -0.191917 -0.161909 0.818190
v -0.193763 -0.158715 0.808322
v -0.196862 -0.150800 0.811017
v -0.199969 -0.145391 0.813414
v -0.203046 -0.142556 0.818102
v -0.201052 -0.150701 0.810268
v -0.203218 -0.145839 0.813290
v -0.205344 -0.143958 0.817543
v -0.205637 -0.151767 0.811131
v -0.207055 -0.147205 0.814547
v -0.202593 -0.161238 0.807380
v -0.198157 -0.159392 0.806390
v -0.206932 -0.145607 0.816707
v -0.201386 -0.143328 0.823050
v -0.204589 -0.143046 0.821965
v -0.200057 -0.144651 0.822921
v -0.201231 -0.157472 0.823185
v -0.203350 -0.151436 0.824648
v -0.204117 -0.157874 0.823114
v -0.205787 -0.151046 0.824517
v -0.203779 -0.146700 0.825371
v -0.202079 -0.146705 0.825087
v -0.201798 -0.163058 0.807366
v -0.205695 -0.165739 0.810558
v -0.206329 -0.164043 0.810670
v -0.208739 -0.154342 0.814699
v -0.207085 -0.165979 0.814947
v -0.205102 -0.165068 0.819628
v -0.206707 -0.158128 0.821822
v -0.208980 -0.156558 0.818865
v -0.207911 -0.151485 0.824083
v -0.209248 -0.152110 0.821156
v -0.209378 -0.149543 0.817046
v -0.207714 -0.146727 0.824214
v -0.205535 -0.146417 0.825142
v -0.206315 -0.144036 0.820900
v -0.209076 -0.148225 0.821976
v -0.208148 -0.146059 0.819139
v -0.215799 -0.184375 0.798801
v -0.220779 -0.186030 0.801427
v -0.221128 -0.187976 0.798871
v -0.216123 -0.186748 0.796509
v -0.206155 -0.191952 0.802890
v -0.207450 -0.187681 0.800574
v -0.207600 -0.191115 0.797148
v -0.206452 -0.196386 0.798378
v -0.208237 -0.194735 0.807527
v -0.208814 -0.201017 0.801938
v -0.207776 -0.199665 0.793913
v -0.208547 -0.193517 0.793559
v -0.216044 -0.198164 0.781417
v -0.215680 -0.204714 0.782810
v -0.211267 -0.185320 0.799102
v -0.211584 -0.187885 0.796424
v -0.225689 -0.194043 0.802132
v -0.224683 -0.189990 0.799636
v -0.223864 -0.190931 0.802477
v -0.223575 -0.194448 0.805265
v -0.224226 -0.191214 0.781376
v -0.229516 -0.193241 0.783623
v -0.219426 -0.193183 0.781490
v -0.222854 -0.200067 0.803591
v -0.217388 -0.204900 0.801978
v -0.226910 -0.208143 0.790739
v -0.231088 -0.203655 0.791111
v -0.211862 -0.189411 0.793555
v -0.221731 -0.187165 0.796136
v -0.216621 -0.186588 0.793946
v -0.211551 -0.203910 0.797106
v -0.214697 -0.201618 0.806414
v -0.216967 -0.184071 0.821214
v -0.219114 -0.196198 0.810565
v -0.223059 -0.192441 0.807959
v -0.220828 -0.182319 0.819630
v -0.220316 -0.198719 0.807605
v -0.213552 -0.197421 0.810350
v -0.216607 -0.173914 0.809088
v -0.220851 -0.176305 0.811846
v -0.212207 -0.175150 0.808376
v -0.219859 -0.209347 0.786405
v -0.233087 -0.197764 0.788503
v -0.206611 -0.178834 0.812264
v -0.209122 -0.176385 0.809476
v -0.223382 -0.189319 0.804881
v -0.222663 -0.179666 0.816232
v -0.212103 -0.185170 0.820222
v -0.207313 -0.183576 0.816115
v -0.212531 -0.180137 0.823279
v -0.207697 -0.178531 0.819114
v -0.206895 -0.174608 0.814586
v -0.209925 -0.172953 0.811198
v -0.213153 -0.172254 0.809933
v -0.217773 -0.179307 0.823565
v -0.221189 -0.178221 0.821624
v -0.222347 -0.178189 0.816614
v -0.219304 -0.175284 0.824907
v -0.214165 -0.173267 0.825663
v -0.215005 -0.156855 0.819322
v -0.212706 -0.162303 0.817749
v -0.212736 -0.162616 0.818940
v -0.214639 -0.157197 0.821019
v -0.209213 -0.168391 0.817706
v -0.210162 -0.167219 0.819088
v -0.210771 -0.169617 0.822246
v -0.213544 -0.163781 0.824105
v -0.218076 -0.167056 0.826632
v -0.219516 -0.161778 0.827641
v -0.215397 -0.158428 0.825663
v -0.214088 -0.171006 0.825141
v -0.216113 -0.154646 0.822735
v -0.216020 -0.153187 0.821472
v -0.209448 -0.172001 0.822017
v -0.210895 -0.168554 0.813015
v -0.213978 -0.161870 0.815017
v -0.216356 -0.156372 0.816474
v -0.218811 -0.153496 0.819053
v -0.217453 -0.162442 0.813389
v -0.219119 -0.157589 0.815463
v -0.221217 -0.155011 0.817903
v -0.220690 -0.163431 0.813564
v -0.221931 -0.159241 0.815732
v -0.217737 -0.171589 0.810685
v -0.214121 -0.169793 0.810783
v -0.222690 -0.156859 0.817722
v -0.218452 -0.153721 0.825601
v -0.222246 -0.153863 0.823647
v -0.217515 -0.155212 0.825583
v -0.219369 -0.168362 0.827000
v -0.221786 -0.161883 0.828306
v -0.222021 -0.169100 0.826151
v -0.224216 -0.162667 0.827404
v -0.221329 -0.157302 0.828217
v -0.220183 -0.157655 0.827912
v -0.216999 -0.173103 0.810217
v -0.220814 -0.175661 0.812701
v -0.221330 -0.174206 0.812969
v -0.224534 -0.165354 0.816010
v -0.223016 -0.176365 0.816935
v -0.222469 -0.174500 0.822724
v -0.224276 -0.168678 0.823644
v -0.225685 -0.167215 0.820238
v -0.225785 -0.162960 0.825053
v -0.226034 -0.163306 0.822177
v -0.225258 -0.160974 0.817805
v -0.225225 -0.158742 0.824586
v -0.223794 -0.157773 0.827091
v -0.224012 -0.155490 0.821476
v -0.225922 -0.159710 0.822313
v -0.224856 -0.157369 0.819920
v -0.232548 -0.195131 0.786190
v -0.233575 -0.189002 0.800608
v -0.236832 -0.189282 0.803402
v -0.237432 -0.190390 0.802816
v -0.234884 -0.190136 0.799176
v -0.226752 -0.198415 0.800500
v -0.227644 -0.193786 0.799274
v -0.228978 -0.196596 0.796463
v -0.228511 -0.201229 0.797659
v -0.228877 -0.202099 0.803894
v -0.231073 -0.204392 0.801817
v -0.231204 -0.202712 0.795579
v -0.231555 -0.198108 0.793989
v -0.241722 -0.204133 0.783075
v -0.243401 -0.209480 0.783676
v -0.260348 -0.201909 0.789206
v -0.259598 -0.197081 0.787150
v -0.253761 -0.196406 0.793620
v -0.255100 -0.200632 0.795296
v -0.230320 -0.190766 0.799363
v -0.231688 -0.192299 0.796787
v -0.242797 -0.197322 0.807377
v -0.242060 -0.193139 0.804862
v -0.239824 -0.191844 0.805999
v -0.240696 -0.195020 0.809503
v -0.255006 -0.194842 0.785916
v -0.250477 -0.195038 0.785154
v -0.247843 -0.194404 0.787645
v -0.250207 -0.194307 0.791290
v -0.243320 -0.197227 0.785860
v -0.241374 -0.201568 0.807498
v -0.237805 -0.205828 0.804938
v -0.253476 -0.210282 0.793060
v -0.255498 -0.205862 0.794540
v -0.232986 -0.193899 0.795480
v -0.239700 -0.191212 0.801145
v -0.236477 -0.191103 0.798684
v -0.233759 -0.206329 0.799547
v -0.235122 -0.203412 0.807290
v -0.233789 -0.193139 0.816235
v -0.237504 -0.198124 0.811762
v -0.239851 -0.194016 0.810490
v -0.236251 -0.190887 0.815309
v -0.238856 -0.199264 0.810049
v -0.233001 -0.200997 0.809631
v -0.232173 -0.184804 0.804611
v -0.235862 -0.186126 0.808546
v -0.229027 -0.185706 0.803367
v -0.247868 -0.212403 0.787311
v -0.224090 -0.191202 0.805531
v -0.226032 -0.187421 0.803894
v -0.238871 -0.190818 0.806937
v -0.237308 -0.188225 0.812497
v -0.229395 -0.195041 0.814680
v -0.225375 -0.195434 0.809468
v -0.227716 -0.190574 0.816660
v -0.223912 -0.191157 0.811383
v -0.224027 -0.187026 0.806495
v -0.227118 -0.185203 0.804501
v -0.230253 -0.184243 0.804171
v -0.232628 -0.189360 0.817945
v -0.235249 -0.188190 0.816917
v -0.236732 -0.186968 0.813476
v -0.231683 -0.185465 0.819186
v -0.227336 -0.183876 0.817525
v -0.229209 -0.172366 0.810740
v -0.228219 -0.176258 0.809075
v -0.227633 -0.176410 0.810166
v -0.228276 -0.172375 0.811355
v -0.225770 -0.181343 0.808325
v -0.225872 -0.180277 0.809896
v -0.225227 -0.182735 0.812633
v -0.226366 -0.177481 0.814204
v -0.228936 -0.178574 0.818888
v -0.229452 -0.174331 0.819600
v -0.226824 -0.173737 0.815563
v -0.226773 -0.182201 0.816793
v -0.228109 -0.170036 0.813089
v -0.228888 -0.168843 0.812800
v -0.224147 -0.184994 0.812215
v -0.228795 -0.181554 0.805459
v -0.230343 -0.175249 0.807757
v -0.230980 -0.170607 0.810185
v -0.231147 -0.168074 0.813285
v -0.232810 -0.175969 0.807355
v -0.233344 -0.170648 0.810049
v -0.233477 -0.168428 0.813152
v -0.235859 -0.176953 0.808582
v -0.235488 -0.171822 0.811032
v -0.235329 -0.182824 0.806748
v -0.232230 -0.181737 0.805183
v -0.234753 -0.169677 0.813233
v -0.228617 -0.168868 0.816827
v -0.231644 -0.168266 0.816661
v -0.227522 -0.170216 0.816864
v -0.229985 -0.179078 0.819799
v -0.230823 -0.173960 0.820643
v -0.232335 -0.179565 0.820391
v -0.233040 -0.173803 0.820621
v -0.230262 -0.170481 0.819724
v -0.228782 -0.171619 0.819015
v -0.233876 -0.183830 0.806046
v -0.235890 -0.185081 0.809156
v -0.237115 -0.184109 0.810570
v -0.237809 -0.178368 0.812151
v -0.237022 -0.185608 0.815042
v -0.234731 -0.185863 0.818238
v -0.234990 -0.179574 0.819454
v -0.237327 -0.179152 0.816888
v -0.234970 -0.173468 0.819543
v -0.236926 -0.173703 0.817151
v -0.237294 -0.173026 0.813770
v -0.234076 -0.169983 0.818035
v -0.232493 -0.169751 0.819123
v -0.233663 -0.168698 0.816097
v -0.235502 -0.170580 0.816801
v -0.235371 -0.170061 0.815168
v -0.258701 -0.205578 0.790196
v -0.203162 -0.140216 0.718224
v -0.202891 -0.143033 0.723277
v -0.210809 -0.133085 0.733212
v -0.206636 -0.138679 0.732850
v -0.213015 -0.127749 0.729793
v -0.212465 -0.126330 0.719083
v -0.214264 -0.126207 0.724315
v -0.203787 -0.142328 0.729190
v -0.205321 -0.135954 0.714349
v -0.209368 -0.130051 0.714222
v -0.198056 -0.132872 0.715771
v -0.202362 -0.126485 0.716021
v -0.205368 -0.122217 0.720498
v -0.208146 -0.122644 0.726633
v -0.208482 -0.124444 0.731301
v -0.197461 -0.138000 0.720614
v -0.197836 -0.140486 0.725741
v -0.200612 -0.139624 0.731724
v -0.191191 -0.136067 0.724983
v -0.185676 -0.127634 0.726051
v -0.184958 -0.111231 0.736025
v -0.190780 -0.113800 0.733615
v -0.188551 -0.114619 0.731824
v -0.183526 -0.111790 0.733731
v -0.193349 -0.116359 0.729387
v -0.190933 -0.116997 0.729362
v -0.188791 -0.121228 0.726768
v -0.184347 -0.118604 0.728672
v -0.185364 -0.125138 0.727193
v -0.182024 -0.124466 0.729288
v -0.179821 -0.116230 0.730597
v -0.179579 -0.111218 0.733574
v -0.176118 -0.114271 0.732617
v -0.179627 -0.110926 0.736844
v -0.188999 -0.120924 0.724431
v -0.200404 -0.117803 0.730607
v -0.193807 -0.114771 0.735848
v -0.186704 -0.112673 0.739140
v -0.180307 -0.112462 0.739702
v -0.195293 -0.117651 0.739055
v -0.188136 -0.116348 0.741419
v -0.182189 -0.116806 0.741719
v -0.194829 -0.122138 0.741098
v -0.187900 -0.120303 0.742206
v -0.204958 -0.127999 0.735916
v -0.204676 -0.121804 0.733742
v -0.183563 -0.119406 0.741867
v -0.174530 -0.114189 0.735052
v -0.175307 -0.116053 0.738259
v -0.181753 -0.127948 0.729769
v -0.177401 -0.122212 0.730553
v -0.177143 -0.124847 0.732359
v -0.183212 -0.131488 0.731375
v -0.177678 -0.126905 0.734502
v -0.174005 -0.120305 0.733801
v -0.175335 -0.118796 0.731620
v -0.207827 -0.129765 0.734425
v -0.204973 -0.135720 0.734243
v -0.202031 -0.134200 0.735487
v -0.192630 -0.128504 0.740575
v -0.197292 -0.138089 0.733655
v -0.193048 -0.138419 0.729032
v -0.185027 -0.133200 0.734404
v -0.188590 -0.132569 0.737859
v -0.179924 -0.127686 0.737428
v -0.182399 -0.127166 0.739324
v -0.185547 -0.124112 0.741790
v -0.177518 -0.123207 0.738864
v -0.174842 -0.122221 0.736451
v -0.178247 -0.119177 0.740517
v -0.180188 -0.123984 0.739833
v -0.181320 -0.121406 0.741144
v -0.263721 -0.195993 0.782607
v -0.258362 -0.192670 0.780744
v -0.263550 -0.191167 0.776678
v -0.270020 -0.187851 0.770139
v -0.279636 -0.189609 0.765662
v -0.264509 -0.185775 0.766319
v -0.258158 -0.189092 0.773293
v -0.250796 -0.191542 0.778839
v -0.264521 -0.182672 0.756308
f 2 3 1
f 1 3 4
f 5 6 8
f 8 6 7
f 9 4 10
f 10 4 3
f 12 13 11
f 11 13 9
f 14 12 16
f 16 12 15
f 18 19 17
f 17 19 20
f 22 23 21
f 21 23 24
f 26 27 25
f 25 27 28
f 30 31 29
f 29 31 32
f 33 34 36
f 36 34 35
f 37 38 40
f 40 38 39
f 41 42 6
f 6 42 43
f 6 43 7
f 7 43 44
f 45 34 46
f 46 34 33
f 48 49 47
f 47 49 50
f 52 53 51
f 51 53 54
f 56 52 55
f 55 52 51
f 58 59 57
f 57 59 60
f 61 62 4
f 4 62 1
f 64 65 63
f 63 65 66
f 68 69 67
f 67 69 70
f 72 73 71
f 71 73 74
f 76 77 75
f 75 77 78
f 53 79 54
f 54 79 80
f 82 83 81
f 81 83 84
f 85 86 52
f 52 86 53
f 57 60 87
f 87 60 88
f 89 90 43
f 43 90 44
f 43 42 89
f 89 42 91
f 40 39 92
f 92 39 93
f 94 70 64
f 64 70 69
f 13 61 9
f 9 61 4
f 25 28 69
f 69 28 95
f 96 25 68
f 68 25 69
f 98 99 97
f 97 99 100
f 101 102 104
f 104 102 103
f 106 30 105
f 105 30 29
f 51 54 107
f 107 54 108
f 54 80 108
f 108 80 109
f 111 112 110
f 110 112 113
f 115 5 114
f 114 5 116
f 115 41 5
f 5 41 6
f 36 35 111
f 111 35 117
f 35 118 117
f 117 118 119
f 34 120 35
f 35 120 118
f 34 45 120
f 120 45 121
f 125 126 124
f 124 126 127
f 128 129 14
f 14 129 130
f 33 131 46
f 46 131 132
f 133 94 63
f 63 94 64
f 134 135 137
f 137 135 136
f 139 140 138
f 138 140 141
f 77 142 78
f 78 142 143
f 144 145 20
f 20 145 146
f 148 149 147
f 147 149 72
f 151 152 150
f 150 152 153
f 82 101 83
f 83 101 104
f 101 82 155
f 155 82 154
f 156 157 58
f 58 157 59
f 158 68 147
f 147 68 67
f 159 146 15
f 15 146 16
f 68 158 96
f 96 158 160
f 129 66 130
f 130 66 65
f 162 163 161
f 161 163 164
f 166 167 165
f 165 167 168
f 170 171 169
f 169 171 172
f 174 171 173
f 173 171 170
f 176 177 175
f 175 177 178
f 180 181 179
f 179 181 24
f 182 183 21
f 21 183 184
f 81 185 82
f 82 185 154
f 186 187 188
f 188 187 144
f 158 71 160
f 160 71 189
f 190 135 157
f 157 135 59
f 169 172 139
f 139 172 140
f 147 72 158
f 158 72 71
f 192 193 191
f 191 193 194
f 167 166 49
f 49 166 195
f 196 190 50
f 50 190 157
f 197 198 200
f 200 198 199
f 21 24 182
f 182 24 181
f 146 159 20
f 20 159 17
f 182 181 81
f 81 181 185
f 201 185 180
f 180 185 181
f 202 203 83
f 83 203 84
f 205 206 204
f 204 206 85
f 207 22 184
f 184 22 21
f 179 24 208
f 208 24 23
f 208 209 179
f 179 209 205
f 209 210 205
f 205 210 206
f 212 206 211
f 211 206 210
f 179 205 180
f 180 205 204
f 213 176 88
f 88 176 214
f 86 85 212
f 212 85 206
f 193 217 218
f 217 219 218
f 218 219 220
f 219 18 220
f 220 18 17
f 19 221 20
f 20 221 144
f 222 223 225
f 225 223 224
f 175 226 176
f 176 226 214
f 227 87 214
f 214 87 88
f 220 17 228
f 228 17 159
f 134 213 60
f 60 213 88
f 138 229 151
f 151 229 152
f 193 192 210
f 210 192 211
f 230 194 218
f 218 194 193
f 231 232 228
f 228 232 230
f 233 234 91
f 91 234 89
f 235 236 93
f 93 236 92
f 230 232 234
f 234 232 237
f 47 238 48
f 48 238 239
f 240 191 235
f 235 191 236
f 5 8 116
f 116 8 241
f 242 243 189
f 189 243 160
f 244 245 98
f 98 245 99
f 156 246 47
f 47 246 238
f 76 247 77
f 77 247 248
f 250 125 249
f 249 125 124
f 252 253 251
f 251 253 254
f 111 110 36
f 36 110 255
f 256 33 255
f 255 33 36
f 257 258 154
f 154 258 155
f 63 169 133
f 133 169 139
f 66 170 63
f 63 170 169
f 173 170 129
f 129 170 66
f 129 128 173
f 173 128 259
f 128 260 259
f 259 260 261
f 213 134 262
f 262 134 137
f 263 264 186
f 186 264 187
f 112 265 113
f 113 265 266
f 11 267 268
f 234 233 230
f 230 233 194
f 153 269 70
f 70 269 67
f 175 178 165
f 165 178 141
f 150 153 94
f 94 153 70
f 271 221 270
f 270 221 207
f 269 153 272
f 272 153 152
f 121 45 109
f 109 45 108
f 47 50 156
f 156 50 157
f 57 273 58
f 58 273 274
f 145 275 260
f 260 275 261
f 276 149 143
f 143 149 78
f 148 269 75
f 75 269 272
f 207 277 270
f 270 277 278
f 195 196 49
f 49 196 50
f 59 135 60
f 60 135 134
f 83 104 202
f 202 104 279
f 149 148 78
f 78 148 75
f 247 278 248
f 248 278 277
f 183 182 84
f 84 182 81
f 48 239 281
f 281 239 282
f 227 223 283
f 283 223 222
f 223 226 224
f 224 226 168
f 281 282 224
f 224 282 225
f 165 168 175
f 175 168 226
f 264 263 138
f 138 263 229
f 14 16 128
f 128 16 260
f 220 228 218
f 218 228 230
f 87 227 284
f 284 227 283
f 260 16 145
f 145 16 146
f 244 98 258
f 258 98 155
f 58 274 156
f 156 274 246
f 107 285 51
f 51 285 55
f 243 286 160
f 160 286 96
f 234 237 89
f 89 237 90
f 46 132 107
f 107 132 285
f 253 252 249
f 249 252 250
f 286 26 96
f 96 26 25
f 106 105 287
f 287 105 288
f 272 152 289
f 289 152 229
f 138 151 139
f 139 151 133
f 183 290 161
f 161 290 162
f 291 292 277
f 277 292 293
f 151 150 133
f 133 150 94
f 262 275 177
f 177 275 187
f 144 187 145
f 145 187 275
f 273 57 284
f 284 57 87
f 174 136 190
f 190 136 135
f 111 117 112
f 112 117 38
f 117 119 38
f 38 119 123
f 112 38 265
f 265 38 37
f 287 288 254
f 254 288 251
f 228 159 231
f 231 159 15
f 223 227 226
f 226 227 214
f 147 67 148
f 148 67 269
f 224 168 281
f 281 168 167
f 199 163 200
f 200 163 162
f 45 46 108
f 108 46 107
f 281 167 48
f 48 167 49
f 161 164 291
f 291 164 292
f 38 123 39
f 293 294 277
f 277 294 248
f 284 283 296
f 296 283 295
f 284 296 273
f 273 296 297
f 274 273 298
f 298 273 297
f 246 274 299
f 299 274 298
f 283 222 295
f 295 222 300
f 222 225 300
f 300 225 301
f 301 225 302
f 302 225 282
f 303 304 300
f 300 304 295
f 306 307 305
f 305 307 308
f 309 310 308
f 308 310 305
f 308 307 312
f 312 307 311
f 313 314 312
f 312 314 315
f 311 316 312
f 312 316 313
f 317 304 311
f 311 304 316
f 315 309 312
f 312 309 308
f 318 319 321
f 321 319 320
f 319 318 309
f 309 318 310
f 311 307 317
f 317 307 306
f 306 297 317
f 317 297 296
f 306 322 297
f 297 322 298
f 305 323 306
f 306 323 322
f 323 305 324
f 324 305 310
f 304 317 295
f 295 317 296
f 318 325 310
f 310 325 324
f 323 324 326
f 326 324 327
f 324 325 327
f 327 325 328
f 326 327 329
f 329 327 330
f 329 331 326
f 326 331 332
f 333 330 328
f 328 330 327
f 323 326 322
f 322 326 332
f 322 332 298
f 298 332 299
f 325 318 334
f 334 318 321
f 313 316 335
f 335 316 304
f 335 336 313
f 313 336 314
f 304 303 335
f 335 303 337
f 336 335 338
f 338 335 337
f 336 339 314
f 314 339 340
f 246 299 238
f 238 299 341
f 239 342 282
f 282 342 302
f 342 239 341
f 341 239 238
f 341 331 342
f 342 331 343
f 331 329 343
f 343 329 344
f 342 343 302
f 302 343 345
f 341 299 331
f 331 299 332
f 346 301 345
f 345 301 302
f 346 303 301
f 301 303 300
f 347 337 346
f 346 337 303
f 347 346 348
f 348 346 345
f 349 347 350
f 350 347 348
f 343 344 345
f 345 344 348
f 344 351 348
f 348 351 350
f 337 347 338
f 338 347 349
f 353 338 352
f 352 338 349
f 352 355 354
f 354 355 356
f 352 349 355
f 355 349 350
f 352 354 353
f 353 354 334
f 353 334 339
f 339 334 321
f 339 336 353
f 353 336 338
f 329 330 344
f 344 330 351
f 356 351 333
f 333 351 330
f 356 355 351
f 351 355 350
f 354 356 328
f 328 356 333
f 328 325 354
f 354 325 334
f 309 315 319
f 319 315 320
f 320 340 321
f 321 340 339
f 320 315 340
f 340 315 314
f 137 136 261
f 261 136 259
f 140 166 141
f 141 166 165
f 172 171 195
f 195 171 196
f 171 174 196
f 196 174 190
f 178 177 264
f 264 177 187
f 172 195 140
f 140 195 166
f 137 261 262
f 262 261 275
f 178 264 141
f 141 264 138
f 262 177 213
f 213 177 176
f 136 174 259
f 259 174 173
f 358 359 357
f 357 359 360
f 362 363 361
f 361 363 364
f 361 364 365
f 365 364 366
f 367 368 370
f 370 368 369
f 76 371 247
f 247 371 372
f 373 374 362
f 362 374 363
f 376 377 375
f 375 377 378
f 289 229 380
f 380 229 379
f 381 379 263
f 263 379 229
f 383 384 382
f 382 384 385
f 386 368 374
f 374 368 363
f 76 289 371
f 371 289 380
f 377 376 359
f 359 376 387
f 388 386 360
f 360 386 374
f 389 383 366
f 366 383 390
f 392 393 391
f 391 393 394
f 383 382 390
f 390 382 395
f 396 365 390
f 390 365 366
f 389 366 367
f 367 366 364
f 357 397 358
f 358 397 398
f 373 399 357
f 357 399 397
f 389 367 400
f 400 367 370
f 382 385 375
f 375 385 372
f 357 360 373
f 373 360 374
f 361 401 362
f 362 401 402
f 387 388 359
f 359 388 360
f 363 368 364
f 364 368 367
f 358 398 403
f 403 398 404
f 396 392 405
f 405 392 391
f 392 395 393
f 393 395 378
f 393 403 394
f 394 403 404
f 375 378 382
f 382 378 395
f 365 396 406
f 406 396 405
f 362 402 373
f 373 402 399
f 271 270 400
f 400 270 384
f 401 361 406
f 406 361 365
f 381 369 386
f 386 369 368
f 392 396 395
f 395 396 390
f 393 378 403
f 403 378 377
f 403 377 358
f 358 377 359
f 406 405 408
f 408 405 407
f 406 408 401
f 401 408 409
f 401 409 402
f 402 409 410
f 402 410 399
f 399 410 411
f 405 391 407
f 407 391 412
f 391 394 412
f 412 394 413
f 394 404 413
f 413 404 414
f 415 416 412
f 412 416 407
f 418 419 417
f 417 419 420
f 421 422 418
f 418 422 419
f 419 422 424
f 424 422 423
f 425 426 424
f 424 426 427
f 423 428 424
f 424 428 425
f 427 420 424
f 424 420 419
f 420 429 417
f 417 429 430
f 423 422 431
f 431 422 421
f 421 409 431
f 431 409 408
f 421 432 409
f 409 432 410
f 418 433 421
f 421 433 432
f 434 433 417
f 417 433 418
f 431 416 423
f 423 416 428
f 416 431 407
f 407 431 408
f 435 434 430
f 430 434 417
f 433 434 436
f 436 434 437
f 434 435 437
f 437 435 438
f 436 437 439
f 439 437 440
f 439 441 436
f 436 441 442
f 438 443 437
f 437 443 440
f 436 442 433
f 433 442 432
f 432 442 410
f 410 442 411
f 435 430 445
f 445 430 444
f 430 429 444
f 444 429 446
f 425 428 447
f 447 428 416
f 426 425 448
f 448 425 447
f 416 415 447
f 447 415 449
f 447 449 448
f 448 449 450
f 451 452 448
f 448 452 426
f 446 452 444
f 444 452 451
f 399 411 397
f 397 411 453
f 398 454 404
f 404 454 414
f 454 398 453
f 453 398 397
f 453 441 454
f 454 441 455
f 441 439 455
f 455 439 456
f 454 455 414
f 414 455 457
f 441 453 442
f 442 453 411
f 458 413 457
f 457 413 414
f 458 415 413
f 413 415 412
f 458 459 415
f 415 459 449
f 459 458 460
f 460 458 457
f 461 459 462
f 462 459 460
f 455 456 457
f 457 456 460
f 456 463 460
f 460 463 462
f 459 461 449
f 449 461 450
f 465 450 464
f 464 450 461
f 464 467 466
f 466 467 468
f 464 461 467
f 467 461 462
f 464 466 465
f 465 466 445
f 465 445 451
f 451 445 444
f 451 448 465
f 465 448 450
f 439 440 456
f 456 440 463
f 468 463 443
f 443 463 440
f 468 467 463
f 463 467 462
f 466 468 438
f 438 468 443
f 438 435 466
f 466 435 445
f 420 427 429
f 429 427 446
f 446 427 452
f 452 427 426
f 370 369 188
f 188 369 186
f 371 376 372
f 372 376 375
f 380 379 387
f 387 379 388
f 379 381 388
f 388 381 386
f 385 384 278
f 278 384 270
f 380 387 371
f 371 387 376
f 400 370 271
f 271 370 188
f 385 278 372
f 372 278 247
f 400 384 389
f 389 384 383
f 369 381 186
f 186 381 263
f 221 271 144
f 144 271 188
f 221 19 207
f 207 19 22
f 19 18 22
f 22 18 23
f 18 219 23
f 23 219 208
f 469 470 472
f 472 470 471
f 474 475 473
f 473 475 476
f 473 476 477
f 477 476 478
f 480 481 479
f 479 481 482
f 483 484 474
f 474 484 475
f 486 487 485
f 485 487 488
f 489 490 77
f 77 490 142
f 491 489 248
f 248 489 77
f 493 494 492
f 492 494 495
f 496 480 484
f 484 480 475
f 486 497 487
f 487 497 471
f 498 496 472
f 472 496 484
f 499 493 478
f 478 493 500
f 501 502 504
f 504 502 503
f 493 492 500
f 500 492 505
f 506 477 500
f 500 477 478
f 499 478 479
f 479 478 476
f 469 507 470
f 470 507 508
f 483 509 469
f 469 509 507
f 479 482 499
f 499 482 510
f 492 495 485
f 485 495 511
f 483 469 484
f 484 469 472
f 473 512 474
f 474 512 513
f 497 498 471
f 471 498 472
f 475 480 476
f 476 480 479
f 470 508 514
f 514 508 515
f 506 502 516
f 516 502 501
f 503 502 488
f 488 502 505
f 514 515 503
f 503 515 504
f 485 488 492
f 492 488 505
f 477 506 517
f 517 506 516
f 474 513 483
f 483 513 509
f 510 292 494
f 494 292 164
f 512 473 517
f 517 473 477
f 491 481 496
f 496 481 480
f 502 506 505
f 505 506 500
f 503 488 514
f 514 488 487
f 514 487 470
f 470 487 471
f 517 516 519
f 519 516 518
f 517 519 512
f 512 519 520
f 512 520 513
f 513 520 521
f 513 521 509
f 509 521 522
f 516 501 518
f 518 501 523
f 501 504 523
f 523 504 524
f 524 504 525
f 525 504 515
f 526 527 523
f 523 527 518
f 529 530 528
f 528 530 531
f 532 533 529
f 529 533 530
f 530 533 535
f 535 533 534
f 536 537 535
f 535 537 538
f 534 539 535
f 535 539 536
f 538 531 535
f 535 531 530
f 540 541 531
f 531 541 528
f 533 532 534
f 534 532 542
f 532 520 542
f 542 520 519
f 532 543 520
f 520 543 521
f 529 544 532
f 532 544 543
f 544 529 545
f 545 529 528
f 534 542 539
f 539 542 527
f 527 542 518
f 518 542 519
f 541 546 528
f 528 546 545
f 547 544 548
f 548 544 545
f 546 549 545
f 545 549 548
f 550 547 551
f 551 547 548
f 547 550 553
f 553 550 552
f 549 554 548
f 548 554 551
f 544 547 543
f 543 547 553
f 543 553 521
f 521 553 522
f 546 541 556
f 556 541 555
f 541 540 555
f 555 540 557
f 536 539 558
f 558 539 527
f 537 536 559
f 559 536 558
f 527 526 558
f 558 526 560
f 559 558 561
f 561 558 560
f 559 562 537
f 537 562 563
f 557 563 555
f 555 563 562
f 509 522 507
f 507 522 564
f 508 565 515
f 515 565 525
f 565 508 564
f 564 508 507
f 564 552 565
f 565 552 566
f 552 550 566
f 566 550 567
f 565 566 525
f 525 566 568
f 564 522 552
f 552 522 553
f 569 524 568
f 568 524 525
f 569 526 524
f 524 526 523
f 570 560 569
f 569 560 526
f 570 569 571
f 571 569 568
f 572 570 573
f 573 570 571
f 566 567 568
f 568 567 571
f 567 574 571
f 571 574 573
f 570 572 560
f 560 572 561
f 576 561 575
f 575 561 572
f 575 578 577
f 577 578 579
f 575 572 578
f 578 572 573
f 575 577 576
f 576 577 556
f 576 556 562
f 562 556 555
f 562 559 576
f 576 559 561
f 550 551 567
f 567 551 574
f 579 574 554
f 554 574 551
f 579 578 574
f 574 578 573
f 579 554 577
f 577 554 549
f 549 546 577
f 577 546 556
f 531 538 540
f 540 538 557
f 557 538 563
f 563 538 537
f 481 294 482
f 482 294 293
f 580 486 511
f 511 486 485
f 490 489 497
f 497 489 498
f 489 491 498
f 498 491 496
f 163 495 164
f 164 495 494
f 580 490 486
f 486 490 497
f 482 293 510
f 510 293 292
f 495 163 511
f 511 163 199
f 494 493 510
f 510 493 499
f 481 491 294
f 294 491 248
f 582 583 581
f 581 583 584
f 586 587 585
f 585 587 588
f 585 588 589
f 589 588 590
f 592 593 591
f 591 593 594
f 595 596 598
f 598 596 597
f 599 600 586
f 586 600 587
f 601 602 604
f 604 602 603
f 605 606 608
f 608 606 607
f 609 607 200
f 200 607 606
f 610 611 613
f 613 611 612
f 600 614 587
f 587 614 592
f 596 605 597
f 597 605 608
f 602 615 603
f 603 615 583
f 616 614 584
f 584 614 600
f 611 618 617
f 617 618 590
f 620 621 619
f 619 621 622
f 610 623 611
f 611 623 618
f 624 589 618
f 618 589 590
f 617 590 591
f 591 590 588
f 581 625 582
f 582 625 626
f 599 627 581
f 581 627 625
f 591 594 617
f 617 594 628
f 601 610 598
f 598 610 613
f 581 584 599
f 599 584 600
f 585 629 586
f 586 629 630
f 615 616 583
f 583 616 584
f 587 592 588
f 588 592 591
f 582 626 631
f 631 626 632
f 624 620 633
f 633 620 619
f 621 620 604
f 604 620 623
f 631 632 621
f 621 632 622
f 610 601 623
f 623 601 604
f 589 624 634
f 634 624 633
f 586 630 599
f 599 630 627
f 203 202 628
f 628 202 612
f 629 585 634
f 634 585 589
f 609 593 614
f 614 593 592
f 620 624 623
f 623 624 618
f 631 621 603
f 603 621 604
f 582 631 583
f 583 631 603
f 634 633 636
f 636 633 635
f 634 636 629
f 629 636 637
f 629 637 630
f 630 637 638
f 630 638 627
f 627 638 639
f 633 619 635
f 635 619 640
f 619 622 640
f 640 622 641
f 641 622 642
f 642 622 632
f 644 635 643
f 643 635 640
f 645 646 648
f 648 646 647
f 649 650 646
f 646 650 647
f 647 650 652
f 652 650 651
f 652 653 655
f 655 653 654
f 651 656 652
f 652 656 653
f 655 648 652
f 652 648 647
f 648 657 645
f 645 657 658
f 650 649 651
f 651 649 659
f 649 637 659
f 659 637 636
f 649 660 637
f 637 660 638
f 661 660 646
f 646 660 649
f 662 661 645
f 645 661 646
f 651 659 656
f 656 659 644
f 644 659 635
f 635 659 636
f 663 662 658
f 658 662 645
f 664 661 665
f 665 661 662
f 663 666 662
f 662 666 665
f 667 664 668
f 668 664 665
f 664 667 670
f 670 667 669
f 666 671 665
f 665 671 668
f 661 664 660
f 660 664 670
f 660 670 638
f 638 670 639
f 658 672 663
f 663 672 673
f 658 657 672
f 672 657 674
f 653 656 675
f 675 656 644
f 653 675 654
f 654 675 676
f 675 644 677
f 677 644 643
f 676 675 678
f 678 675 677
f 679 680 676
f 676 680 654
f 674 680 672
f 672 680 679
f 627 639 625
f 625 639 681
f 626 682 632
f 632 682 642
f 681 682 625
f 625 682 626
f 669 683 681
f 681 683 682
f 667 684 669
f 669 684 683
f 682 683 642
f 642 683 685
f 681 639 669
f 669 639 670
f 686 641 685
f 685 641 642
f 641 686 640
f 640 686 643
f 686 687 643
f 643 687 677
f 687 686 688
f 688 686 685
f 689 687 690
f 690 687 688
f 683 684 685
f 685 684 688
f 684 691 688
f 688 691 690
f 687 689 677
f 677 689 678
f 693 678 692
f 692 678 689
f 692 695 694
f 694 695 696
f 692 689 695
f 695 689 690
f 692 694 693
f 693 694 673
f 693 673 679
f 679 673 672
f 679 676 693
f 693 676 678
f 684 667 691
f 691 667 668
f 696 691 671
f 671 691 668
f 696 695 691
f 691 695 690
f 694 696 666
f 666 696 671
f 666 663 694
f 694 663 673
f 648 655 657
f 657 655 674
f 674 655 680
f 680 655 654
f 593 162 594
f 594 162 290
f 598 597 601
f 601 597 602
f 615 608 616
f 616 608 607
f 607 609 616
f 616 609 614
f 697 595 613
f 613 595 598
f 597 608 602
f 602 608 615
f 594 290 628
f 628 290 203
f 628 612 617
f 617 612 611
f 593 609 162
f 162 609 200
f 105 29 698
f 698 29 699
f 268 126 701
f 701 126 700
f 126 125 700
f 700 125 702
f 252 703 250
f 250 703 704
f 32 268 705
f 705 268 701
f 288 105 706
f 706 105 698
f 29 32 699
f 699 32 705
f 707 251 706
f 706 251 288
f 250 704 125
f 125 704 702
f 703 252 707
f 707 252 251
f 706 708 707
f 707 708 709
f 707 709 703
f 703 709 710
f 703 710 704
f 704 710 711
f 704 711 702
f 702 711 712
f 706 698 708
f 708 698 713
f 698 699 713
f 713 699 714
f 699 705 714
f 714 705 715
f 717 708 716
f 716 708 713
f 719 720 718
f 718 720 721
f 722 723 719
f 719 723 720
f 724 725 723
f 723 725 720
f 724 726 725
f 725 726 727
f 728 721 725
f 725 721 720
f 721 728 729
f 729 728 730
f 729 731 721
f 721 731 718
f 724 723 732
f 732 723 722
f 722 710 732
f 732 710 709
f 722 733 710
f 710 733 711
f 719 734 722
f 722 734 733
f 734 719 735
f 735 719 718
f 724 732 726
f 726 732 717
f 717 732 708
f 708 732 709
f 731 736 718
f 718 736 735
f 737 734 738
f 738 734 735
f 736 739 735
f 735 739 738
f 740 737 741
f 741 737 738
f 737 740 743
f 743 740 742
f 739 744 738
f 738 744 741
f 734 737 733
f 733 737 743
f 733 743 711
f 711 743 712
f 736 731 746
f 746 731 745
f 731 729 745
f 745 729 730
f 727 726 747
f 747 726 717
f 748 727 749
f 749 727 747
f 747 717 750
f 750 717 716
f 749 747 751
f 751 747 750
f 749 752 748
f 748 752 753
f 730 753 745
f 745 753 752
f 728 725 748
f 748 725 727
f 730 728 753
f 753 728 748
f 700 702 754
f 754 702 712
f 705 701 715
f 715 701 755
f 754 755 700
f 700 755 701
f 742 756 754
f 754 756 755
f 740 757 742
f 742 757 756
f 755 756 715
f 715 756 758
f 754 712 742
f 742 712 743
f 759 714 758
f 758 714 715
f 714 759 713
f 713 759 716
f 759 760 716
f 716 760 750
f 760 759 761
f 761 759 758
f 762 760 763
f 763 760 761
f 756 757 758
f 758 757 761
f 757 764 761
f 761 764 763
f 760 762 750
f 750 762 751
f 766 751 765
f 765 751 762
f 767 765 769
f 769 765 768
f 765 762 768
f 768 762 763
f 765 767 766
f 766 767 746
f 766 746 752
f 752 746 745
f 752 749 766
f 766 749 751
f 757 740 764
f 764 740 741
f 769 764 744
f 744 764 741
f 769 768 764
f 764 768 763
f 767 769 739
f 739 769 744
f 739 736 767
f 767 736 746
f 219 217 208
f 208 217 209
f 209 217 210
f 210 217 193
f 198 580 199
f 199 580 511
f 76 75 289
f 289 75 272
f 277 207 291
f 291 207 184
f 290 183 203
f 203 183 84
f 490 580 142
f 142 580 198
f 142 198 143
f 143 198 197
f 149 276 72
f 72 276 73
f 104 103 279
f 279 103 770
f 770 596 279
f 279 596 595
f 605 596 771
f 771 596 770
f 771 770 772
f 772 770 103
f 772 103 773
f 773 103 102
f 155 774 101
f 101 774 102
f 773 102 97
f 97 102 774
f 775 773 100
f 100 773 97
f 773 775 772
f 772 775 776
f 772 776 771
f 771 776 777
f 200 606 197
f 197 606 777
f 189 71 778
f 778 71 74
f 97 774 98
f 98 774 155
f 183 161 184
f 184 161 291
f 777 276 197
f 197 276 143
f 777 606 771
f 771 606 605
f 613 612 697
f 697 612 202
f 595 697 279
f 279 697 202
f 73 276 776
f 776 276 777
f 776 775 73
f 73 775 74
f 100 778 775
f 775 778 74
f 778 100 189
f 189 100 99
f 245 242 99
f 99 242 189
f 131 33 256
f 28 1 95
f 95 1 62
f 27 2 28
f 28 2 1
f 265 115 266
f 266 115 114
f 95 62 69
f 69 62 64
f 62 61 64
f 64 61 65
f 61 13 65
f 65 13 130
f 13 12 130
f 130 12 14
f 31 11 32
f 32 11 268
f 15 12 31
f 31 12 11
f 31 30 15
f 15 30 231
f 30 106 231
f 231 106 232
f 287 237 106
f 106 237 232
f 254 90 287
f 287 90 237
f 253 44 254
f 254 44 90
f 253 249 44
f 44 249 7
f 267 127 268
f 268 127 126
f 10 3 241
f 241 3 116
f 3 2 116
f 116 2 114
f 2 27 114
f 114 27 266
f 27 26 266
f 266 26 113
f 26 286 113
f 113 286 110
f 286 243 110
f 110 243 255
f 243 242 255
f 255 242 256
f 242 245 256
f 256 245 131
f 245 244 131
f 131 244 132
f 265 37 115
f 115 37 41
f 41 37 42
f 42 37 40
f 92 91 40
f 40 91 42
f 236 233 92
f 92 233 91
f 191 194 236
f 236 194 233
f 258 285 244
f 244 285 132
f 257 55 258
f 258 55 285
f 257 154 201
f 201 154 185
f 56 201 204
f 204 201 180
f 55 257 56
f 56 257 201
f 204 85 56
f 56 85 52
f 86 122 53
f 53 122 79
f 212 215 86
f 86 215 122
f 211 216 212
f 212 216 215
f 192 280 211
f 211 280 216
f 191 240 192
f 192 240 280
f 249 124 7
f 7 124 8
f 124 127 8
f 8 127 241
f 127 267 241
f 241 267 10
f 10 267 9
f 9 267 11
o hand_right
v -0.110054 0.090375 0.821910
v -0.120667 0.092187 0.824519
v -0.115273 0.083307 0.823252
v -0.106072 0.082131 0.819632
v -0.135902 0.078655 0.828165
v -0.144752 0.073693 0.821054
v -0.131309 0.063979 0.819891
v -0.126247 0.069793 0.826923
v -0.101963 0.076745 0.815903
v -0.110470 0.076608 0.821863
v -0.101077 0.076587 0.810444
v -0.093042 0.079341 0.801728
v -0.094126 0.077813 0.809174
v -0.085526 0.080786 0.799066
v -0.098202 0.086006 0.794151
v -0.084125 0.089211 0.794606
v -0.099400 0.113782 0.800332
v -0.100339 0.124194 0.808814
v -0.083831 0.121001 0.810338
v -0.084565 0.110085 0.802198
v -0.091617 0.133368 0.825290
v -0.086370 0.126605 0.817088
v -0.102646 0.130631 0.814712
v -0.106492 0.136425 0.822301
v -0.115439 0.103521 0.828798
v -0.126073 0.105935 0.830420
v -0.124486 0.101744 0.827219
v -0.114373 0.099228 0.825685
v -0.104745 0.069823 0.805036
v -0.110366 0.076232 0.797293
v -0.103820 0.077325 0.801958
v -0.102995 0.070634 0.810423
v -0.151301 0.113267 0.842294
v -0.162392 0.118464 0.836550
v -0.162711 0.114549 0.832112
v -0.152369 0.110971 0.838050
v -0.159625 0.093418 0.821680
v -0.165200 0.102367 0.818464
v -0.169781 0.102734 0.805479
v -0.162669 0.095076 0.805473
v -0.152555 0.082602 0.822304
v -0.156560 0.083216 0.808771
v -0.147340 0.072868 0.809520
v -0.132746 0.062146 0.810747
v -0.161194 0.128967 0.843912
v -0.153103 0.126358 0.849552
v -0.044349 0.067150 0.821678
v -0.044078 0.070859 0.826242
v -0.047412 0.072199 0.824448
v -0.046901 0.068378 0.820053
v -0.150100 0.145843 0.842084
v -0.147330 0.151541 0.834169
v -0.154472 0.152657 0.835237
v -0.157616 0.146088 0.841259
v -0.140173 0.145348 0.843160
v -0.137563 0.149187 0.832803
v -0.034852 0.069671 0.813293
v -0.038418 0.066314 0.814921
v -0.040820 0.068808 0.811679
v -0.037833 0.072880 0.810275
v -0.097139 0.080568 0.815653
v -0.100627 0.087457 0.820988
v -0.079040 0.079068 0.815851
v -0.087529 0.083592 0.817686
v -0.088648 0.079185 0.812226
v -0.081215 0.076602 0.810233
v -0.092661 0.102345 0.831337
v -0.104241 0.104376 0.830584
v -0.102404 0.099463 0.826597
v -0.089948 0.095459 0.826824
v -0.106386 0.112929 0.841733
v -0.094706 0.110523 0.841275
v -0.097219 0.115668 0.847687
v -0.105303 0.115802 0.847549
v -0.074779 0.104890 0.837541
v -0.067447 0.104466 0.836527
v -0.066510 0.106389 0.839538
v -0.075343 0.107541 0.840069
v -0.161404 0.154181 0.835164
v -0.164698 0.145980 0.839552
v -0.098757 0.143511 0.843041
v -0.105332 0.143234 0.852080
v -0.092485 0.142875 0.855739
v -0.088872 0.143339 0.844915
v -0.144261 0.151440 0.824194
v -0.151151 0.154817 0.825931
v -0.032012 0.074875 0.814902
v -0.035427 0.078113 0.812351
v -0.146028 0.079955 0.798125
v -0.131120 0.065427 0.801522
v -0.155486 0.092825 0.796924
v -0.161040 0.102680 0.796185
v -0.167563 0.108681 0.795158
v -0.083390 0.087000 0.821905
v -0.105341 0.094955 0.824073
v -0.116287 0.107024 0.832308
v -0.116648 0.123768 0.858271
v -0.127247 0.124746 0.857640
v -0.123463 0.116886 0.851441
v -0.114827 0.118112 0.852844
v -0.107375 0.137503 0.859809
v -0.106550 0.129566 0.861094
v -0.097134 0.129445 0.861952
v -0.096346 0.137208 0.861521
v -0.108345 0.065045 0.800473
v -0.116968 0.074429 0.794080
v -0.152936 0.137204 0.847577
v -0.160037 0.136700 0.844380
v -0.167485 0.138835 0.840922
v -0.139163 0.108207 0.836049
v -0.153215 0.109195 0.835210
v -0.152986 0.105423 0.832688
v -0.138672 0.106704 0.833380
v -0.131860 0.091979 0.829144
v -0.145127 0.090009 0.829955
v -0.124243 0.082603 0.828725
v -0.164898 0.109564 0.825918
v -0.172289 0.117001 0.829322
v -0.173203 0.111811 0.822085
v -0.171265 0.124583 0.835511
v -0.169636 0.132184 0.839944
v -0.158046 0.159761 0.825078
v -0.172734 0.107942 0.814591
v -0.118991 0.064413 0.825221
v -0.112355 0.059971 0.823730
v -0.107749 0.066137 0.823477
v -0.113129 0.070679 0.824997
v -0.076086 0.080687 0.798238
v -0.078863 0.076371 0.804413
v -0.088465 0.077448 0.805061
v -0.140861 0.114731 0.847265
v -0.142951 0.125630 0.853378
v -0.074661 0.082912 0.819481
v -0.041692 0.075593 0.807769
v -0.044734 0.070844 0.809344
v -0.061349 0.076077 0.803117
v -0.057550 0.081412 0.801036
v -0.064263 0.087944 0.819185
v -0.069159 0.083230 0.819536
v -0.066033 0.083913 0.819531
v -0.061312 0.088268 0.820703
v -0.070908 0.112118 0.845469
v -0.078581 0.112907 0.846083
v -0.070189 0.104772 0.806911
v -0.073331 0.097577 0.795656
v -0.084965 0.100422 0.795397
v -0.094551 0.107353 0.836582
v -0.084100 0.106041 0.837894
v -0.084628 0.108936 0.840874
v -0.079316 0.089121 0.823736
v -0.071720 0.087380 0.822128
v -0.073927 0.091277 0.824776
v -0.080952 0.093518 0.826664
v -0.117965 0.145126 0.848555
v -0.120354 0.138625 0.857922
v -0.042071 0.065445 0.817777
v -0.044434 0.067168 0.815322
v -0.105874 0.109238 0.835725
v -0.099150 0.103414 0.795578
v -0.117247 0.110519 0.836450
v -0.074799 0.131314 0.839355
v -0.074517 0.128340 0.846591
v -0.069027 0.125687 0.846542
v -0.066976 0.128452 0.841341
v -0.047123 0.084422 0.824881
v -0.049454 0.079390 0.826273
v -0.045674 0.077627 0.827108
v -0.042310 0.082354 0.826105
v -0.071780 0.078820 0.816647
v -0.073539 0.075345 0.811342
v -0.067212 0.074813 0.813631
v -0.066595 0.079229 0.817536
v -0.070922 0.075298 0.805460
v -0.065121 0.073832 0.807718
v -0.043532 0.087412 0.820299
v -0.040275 0.086153 0.813586
v -0.054790 0.092522 0.808483
v -0.055962 0.091525 0.816232
v -0.120628 0.140148 0.818608
v -0.123072 0.145363 0.828194
v -0.109008 0.141925 0.832072
v -0.095040 0.139743 0.835598
v -0.082060 0.136191 0.838746
v -0.078993 0.132011 0.827667
v -0.112281 0.145235 0.838806
v -0.063550 0.095638 0.816152
v -0.064446 0.096872 0.806331
v -0.064721 0.100377 0.811421
v -0.117953 0.113810 0.843121
v -0.048063 0.068595 0.813180
v -0.152101 0.124089 0.792074
v -0.149125 0.135846 0.797933
v -0.141608 0.131304 0.798106
v -0.145023 0.117614 0.792163
v -0.051128 0.073233 0.823812
v -0.050855 0.068958 0.818992
v -0.078037 0.117330 0.851208
v -0.071315 0.116475 0.849331
v -0.069532 0.120018 0.850099
v -0.075042 0.121003 0.854887
v -0.125859 0.147442 0.833053
v -0.084137 0.140798 0.858388
v -0.081413 0.141731 0.848685
v -0.135318 0.148147 0.824447
v -0.133167 0.144164 0.815732
v -0.142236 0.147405 0.814153
v -0.070554 0.120956 0.820496
v -0.117140 0.135082 0.812431
v -0.130893 0.139242 0.810262
v -0.141637 0.142885 0.808109
v -0.149115 0.146381 0.806753
v -0.149060 0.150865 0.813611
v -0.039875 0.081372 0.809975
v -0.034820 0.083386 0.816565
v -0.156327 0.156197 0.812277
v -0.156320 0.150410 0.804972
v -0.129387 0.132632 0.803977
v -0.128348 0.123511 0.797275
v -0.116183 0.128725 0.806504
v -0.113899 0.119569 0.799909
v -0.071496 0.117898 0.810241
v -0.026062 0.074955 0.829683
v -0.033542 0.081650 0.824494
v -0.037992 0.080080 0.827938
v -0.029101 0.075260 0.832818
v -0.038325 0.084784 0.822329
v -0.031514 0.080003 0.819277
v -0.114608 0.106152 0.794212
v -0.066739 0.090720 0.823402
v -0.131728 0.106760 0.792165
v -0.111048 0.089630 0.790771
v -0.124264 0.088495 0.790933
v -0.149503 0.104909 0.790528
v -0.140496 0.090202 0.790714
v -0.162792 0.117584 0.790806
v -0.155424 0.112625 0.790961
v -0.130677 0.076255 0.793328
v -0.038029 0.064133 0.829682
v -0.037631 0.068793 0.833053
v -0.159184 0.128433 0.791111
v -0.117781 0.075611 0.826703
v -0.128856 0.112679 0.842451
v -0.127795 0.110386 0.837383
v -0.133543 0.125131 0.856309
v -0.131143 0.115886 0.849444
v -0.035978 0.061503 0.825469
v -0.062282 0.107252 0.834940
v -0.063387 0.108213 0.835588
v -0.123169 0.058811 0.820094
v -0.116847 0.055460 0.819506
v -0.114525 0.054752 0.806539
v -0.116886 0.053061 0.813104
v -0.124347 0.056707 0.811791
v -0.122323 0.058732 0.804541
v -0.139171 0.109345 0.838490
v -0.139089 0.111343 0.841916
v -0.129817 0.145375 0.846034
v -0.131509 0.138486 0.855178
v -0.068204 0.078953 0.800656
v -0.073040 0.087629 0.795279
v -0.065180 0.084868 0.798589
v -0.056638 0.088309 0.802268
v -0.062592 0.092381 0.820559
v -0.062242 0.092538 0.815133
v -0.149339 0.098380 0.831586
v -0.136430 0.101224 0.830620
v -0.107773 0.073287 0.819945
v -0.103859 0.070259 0.818487
v -0.083869 0.099635 0.831250
v -0.061180 0.114854 0.822638
v -0.061816 0.111996 0.814418
v -0.074793 0.098036 0.830470
v -0.028585 0.063338 0.821690
v -0.032860 0.061233 0.823233
v -0.064295 0.091912 0.799394
v -0.086758 0.113584 0.847697
v -0.066185 0.118536 0.826724
v -0.060315 0.112613 0.829716
v -0.090108 0.135963 0.862770
v -0.157159 0.139594 0.796903
v -0.041781 0.075983 0.829401
v -0.035257 0.073091 0.834453
v -0.024770 0.073355 0.825861
v -0.025612 0.068931 0.821812
v -0.141744 0.136810 0.851697
v -0.126715 0.108694 0.834147
v -0.121043 0.066507 0.797200
v -0.111705 0.059778 0.801822
v -0.069099 0.097474 0.829959
v -0.077650 0.134941 0.845090
v -0.070446 0.129209 0.830925
v -0.062304 0.126510 0.833931
v -0.059581 0.119740 0.831504
v -0.058841 0.112493 0.833463
v -0.022215 0.070386 0.830174
v -0.022970 0.065883 0.826302
v -0.026098 0.060477 0.826118
v -0.030294 0.058755 0.827144
v -0.034159 0.060044 0.828895
v -0.023475 0.072070 0.834115
v -0.026467 0.072310 0.836692
v -0.032868 0.071541 0.836817
v -0.022499 0.069760 0.838331
v -0.019275 0.065843 0.836837
v -0.023566 0.052785 0.838038
v -0.022924 0.056178 0.833237
v -0.021240 0.056232 0.835388
v -0.020914 0.053715 0.839683
v -0.019333 0.052007 0.844302
v -0.022286 0.050467 0.843049
v -0.019943 0.060644 0.834617
v -0.018976 0.057780 0.840631
v -0.018550 0.061520 0.842579
v -0.017037 0.058779 0.847130
v -0.017161 0.055328 0.845498
v -0.018940 0.063163 0.838262
v -0.020072 0.061808 0.832531
v -0.020537 0.050535 0.847336
v -0.018234 0.051533 0.846969
v -0.016872 0.054238 0.848371
v -0.018309 0.053325 0.850920
v -0.028696 0.056235 0.831330
v -0.026137 0.052402 0.838419
v -0.025073 0.051374 0.844296
v -0.023024 0.051408 0.848417
v -0.028766 0.053944 0.841203
v -0.026948 0.053241 0.845626
v -0.025284 0.053710 0.849290
v -0.030226 0.056805 0.844054
v -0.027922 0.055749 0.847377
v -0.034603 0.061430 0.834230
v -0.033081 0.058586 0.831472
v -0.026783 0.055228 0.849680
v -0.020093 0.054159 0.851984
v -0.019778 0.064994 0.842968
v -0.018862 0.060999 0.848666
v -0.021489 0.066256 0.844096
v -0.020277 0.062565 0.849814
v -0.017494 0.058085 0.851695
v -0.016787 0.057023 0.849440
v -0.036489 0.063693 0.831667
v -0.035751 0.068552 0.835093
v -0.034128 0.066783 0.837369
v -0.030047 0.061069 0.846301
v -0.031452 0.069707 0.839429
v -0.025588 0.070037 0.840606
v -0.023759 0.066198 0.846043
v -0.026878 0.065048 0.847004
v -0.022841 0.062857 0.850136
v -0.025212 0.061855 0.849918
v -0.027610 0.058893 0.849284
v -0.022445 0.059445 0.852316
v -0.019490 0.058939 0.852380
v -0.023127 0.055742 0.851917
v -0.024290 0.059785 0.851651
v -0.025215 0.057034 0.850821
v -0.042005 0.087197 0.842226
v -0.042563 0.091985 0.846666
v -0.042563 0.093431 0.842484
v -0.041945 0.089388 0.838858
v -0.029015 0.088468 0.836078
v -0.034484 0.085306 0.837321
v -0.034164 0.088322 0.832317
v -0.029288 0.093076 0.831573
v -0.026251 0.094670 0.838315
v -0.027621 0.099330 0.833863
v -0.032891 0.095488 0.827253
v -0.037710 0.090241 0.828988
v -0.055958 0.095628 0.819655
v -0.052298 0.101125 0.817042
v -0.061775 0.102043 0.835251
v -0.059267 0.105345 0.835053
v -0.039247 0.085347 0.839679
v -0.038928 0.087602 0.835488
v -0.043548 0.101892 0.844255
v -0.045825 0.096908 0.844001
v -0.042663 0.097262 0.845632
v -0.038985 0.101416 0.846325
v -0.061268 0.093657 0.826220
v -0.062439 0.097801 0.830815
v -0.058797 0.093564 0.823128
v -0.038881 0.106229 0.841705
v -0.034215 0.107326 0.836618
v -0.051103 0.112640 0.825904
v -0.053754 0.111425 0.831700
v -0.041571 0.088214 0.832473
v -0.045635 0.091833 0.841202
v -0.044781 0.088569 0.837143
v -0.032575 0.102565 0.830031
v -0.029396 0.103727 0.840625
v -0.029718 0.092082 0.857728
v -0.032209 0.100154 0.849275
v -0.037129 0.098802 0.850582
v -0.034443 0.091625 0.859771
v -0.033977 0.103831 0.844736
v -0.028189 0.099070 0.844941
v -0.040773 0.080386 0.854155
v -0.041161 0.085274 0.858220
v -0.038051 0.077856 0.851434
v -0.050712 0.108327 0.819325
v -0.028661 0.080579 0.847229
v -0.034483 0.077723 0.848948
v -0.041512 0.096264 0.849605
v -0.038778 0.089151 0.860352
v -0.026512 0.090753 0.854642
v -0.025479 0.086639 0.848652
v -0.025699 0.086610 0.858705
v -0.025100 0.082133 0.853988
v -0.028808 0.076352 0.852017
v -0.034593 0.075003 0.852812
v -0.038077 0.076214 0.854351
v -0.028744 0.088343 0.861755
v -0.033439 0.088560 0.863503
v -0.038352 0.087092 0.862110
v -0.030289 0.084587 0.867400
v -0.026994 0.081667 0.865982
v -0.035309 0.065229 0.869840
v -0.033395 0.068057 0.864796
v -0.031415 0.068972 0.866328
v -0.032968 0.066363 0.871009
v -0.029706 0.071130 0.860440
v -0.029148 0.071534 0.863002
v -0.027167 0.075632 0.864143
v -0.029667 0.072599 0.869043
v -0.029638 0.077086 0.871036
v -0.030640 0.074092 0.875929
v -0.030512 0.069520 0.874204
v -0.027542 0.078167 0.867142
v -0.033564 0.065467 0.874509
v -0.035912 0.064817 0.875483
v -0.025647 0.076878 0.861352
v -0.034365 0.072299 0.856513
v -0.036495 0.068034 0.864405
v -0.038510 0.065830 0.870392
v -0.038357 0.066311 0.876612
v -0.040065 0.069884 0.865849
v -0.040797 0.067831 0.871577
v -0.040057 0.068494 0.876575
v -0.042659 0.073286 0.868032
v -0.042468 0.071220 0.873559
v -0.041002 0.078330 0.858574
v -0.038689 0.074556 0.856728
v -0.041350 0.070442 0.875877
v -0.033720 0.067325 0.879081
v -0.036801 0.068518 0.879866
v -0.032432 0.067649 0.877712
v -0.030205 0.078992 0.871818
v -0.032118 0.075429 0.876994
v -0.032223 0.080705 0.872921
v -0.033989 0.076383 0.878271
v -0.033054 0.071961 0.880149
v -0.031981 0.071007 0.879152
v -0.040235 0.079412 0.856435
v -0.040390 0.084061 0.859670
v -0.041027 0.083279 0.861440
v -0.042057 0.077878 0.870735
v -0.038397 0.086397 0.864109
v -0.033771 0.085976 0.867254
v -0.034864 0.081835 0.872998
v -0.038829 0.080925 0.872709
v -0.035794 0.077629 0.878596
v -0.038531 0.078071 0.876764
v -0.041913 0.074965 0.875190
v -0.036688 0.073711 0.880983
v -0.034563 0.072586 0.880904
v -0.038521 0.069935 0.879389
v -0.038760 0.075049 0.879243
v -0.040508 0.072073 0.877923
v -0.047821 0.104478 0.854259
v -0.049903 0.108466 0.858035
v -0.050871 0.109612 0.855655
v -0.048354 0.106157 0.851889
v -0.036156 0.108226 0.850373
v -0.039457 0.104499 0.850677
v -0.040506 0.107103 0.846670
v -0.037862 0.111622 0.845170
v -0.034693 0.112485 0.854034
v -0.036834 0.117349 0.847214
v -0.040935 0.113881 0.841056
v -0.042776 0.108541 0.843514
v -0.055011 0.111809 0.835813
v -0.053137 0.118028 0.834045
v -0.043885 0.103565 0.852107
v -0.044726 0.105464 0.849210
v -0.051810 0.116947 0.858217
v -0.052981 0.112346 0.857357
v -0.050520 0.114075 0.858693
v -0.047900 0.117733 0.859470
v -0.062975 0.107947 0.842271
v -0.065723 0.112282 0.845736
v -0.058531 0.108337 0.839406
v -0.047765 0.121749 0.855613
v -0.043457 0.123924 0.849890
v -0.057370 0.127088 0.844049
v -0.061150 0.124479 0.848135
v -0.046048 0.105946 0.846691
v -0.052911 0.107907 0.854353
v -0.050081 0.105099 0.850384
v -0.041607 0.119835 0.843659
v -0.038887 0.120970 0.853348
v -0.036746 0.109538 0.873070
v -0.041347 0.118734 0.860745
v -0.046755 0.116452 0.861896
v -0.041142 0.109222 0.874067
v -0.043195 0.120718 0.858031
v -0.036821 0.117523 0.857674
v -0.045597 0.097430 0.867403
v -0.046963 0.102111 0.870231
v -0.042158 0.096444 0.864711
v -0.053931 0.124618 0.836864
v -0.065138 0.119037 0.849387
v -0.034729 0.098154 0.864322
v -0.038769 0.096375 0.863978
v -0.049411 0.113196 0.860739
v -0.045211 0.106804 0.873186
v -0.033271 0.107969 0.869953
v -0.032106 0.103536 0.865622
v -0.033117 0.105184 0.875297
v -0.032067 0.100337 0.871394
v -0.034580 0.095168 0.869793
v -0.038933 0.093957 0.868962
v -0.042382 0.094418 0.869196
v -0.036976 0.107093 0.877781
v -0.040961 0.106975 0.877920
v -0.044680 0.105675 0.874437
v -0.038350 0.105270 0.881523
v -0.034302 0.101496 0.881462
v -0.041338 0.086800 0.886818
v -0.039590 0.089100 0.881704
v -0.038885 0.089850 0.882409
v -0.040044 0.087574 0.887670
v -0.035757 0.092242 0.876847
v -0.035980 0.092249 0.878928
v -0.034239 0.095758 0.879930
v -0.036511 0.093368 0.885606
v -0.038108 0.099037 0.887004
v -0.039594 0.096249 0.891106
v -0.037916 0.090959 0.890345
v -0.035016 0.099563 0.882384
v -0.040646 0.087222 0.890854
v -0.041486 0.085457 0.890882
v -0.032974 0.096929 0.877882
v -0.039528 0.091044 0.873807
v -0.042140 0.088187 0.880489
v -0.044116 0.085724 0.885598
v -0.045030 0.085990 0.889977
v -0.045683 0.089661 0.880228
v -0.046686 0.087574 0.885144
v -0.047402 0.087711 0.889105
v -0.047933 0.092047 0.880777
v -0.048495 0.090301 0.885281
v -0.045635 0.095904 0.872203
v -0.043009 0.092761 0.872458
v -0.048395 0.089688 0.888368
v -0.041047 0.088946 0.894191
v -0.045157 0.089973 0.894039
v -0.040152 0.089624 0.892856
v -0.038690 0.100814 0.886905
v -0.040970 0.097730 0.892339
v -0.041119 0.102313 0.886730
v -0.043321 0.099108 0.892068
v -0.041346 0.094172 0.894729
v -0.040591 0.093697 0.893906
v -0.045146 0.097157 0.869881
v -0.046332 0.101692 0.871970
v -0.046775 0.100458 0.873819
v -0.049237 0.096202 0.882748
v -0.045368 0.104469 0.876214
v -0.042174 0.105110 0.881330
v -0.044349 0.101942 0.885985
v -0.047453 0.099913 0.884991
v -0.045869 0.099026 0.890846
v -0.047500 0.097998 0.888712
v -0.049728 0.093984 0.886842
v -0.046284 0.095373 0.892767
v -0.043912 0.095161 0.894537
v -0.047564 0.090979 0.892225
v -0.047943 0.095363 0.890898
v -0.048845 0.092039 0.890333
v -0.066464 0.115768 0.848389
v -0.060657 0.113973 0.871420
v -0.062584 0.116803 0.874030
v -0.062567 0.117514 0.873154
v -0.061611 0.114695 0.869849
v -0.051637 0.118628 0.865759
v -0.054303 0.114780 0.867020
v -0.055323 0.116449 0.863309
v -0.052930 0.120307 0.862181
v -0.051262 0.123760 0.867292
v -0.052760 0.125311 0.864730
v -0.056009 0.122130 0.859921
v -0.058531 0.118047 0.860602
v -0.071874 0.126148 0.850658
v -0.071500 0.131764 0.849941
v -0.084315 0.133805 0.863854
v -0.086221 0.128430 0.863236
v -0.078388 0.126874 0.866879
v -0.077434 0.131683 0.867363
v -0.057617 0.113503 0.869020
v -0.059050 0.114247 0.866079
v -0.062713 0.126936 0.875028
v -0.064502 0.122294 0.874493
v -0.063161 0.120971 0.875389
v -0.061748 0.125219 0.876867
v -0.084007 0.124144 0.860615
v -0.080977 0.122102 0.857428
v -0.077501 0.121031 0.859309
v -0.077300 0.122875 0.864212
v -0.073887 0.121189 0.855133
v -0.060125 0.129824 0.872800
v -0.056735 0.130632 0.867880
v -0.074274 0.138983 0.861292
v -0.076566 0.136325 0.864855
v -0.060361 0.115536 0.864027
v -0.064733 0.118489 0.871650
v -0.062803 0.115714 0.868832
v -0.055200 0.127358 0.862448
v -0.054890 0.128485 0.870222
v -0.054751 0.124232 0.882232
v -0.057929 0.127624 0.876576
v -0.061756 0.124761 0.877961
v -0.057789 0.122983 0.882963
v -0.058403 0.127922 0.875055
v -0.053549 0.127137 0.872906
v -0.059327 0.111682 0.877161
v -0.060979 0.115998 0.880049
v -0.056699 0.110626 0.875242
v -0.072016 0.137088 0.853750
v -0.050075 0.113990 0.873542
v -0.053347 0.110989 0.874366
v -0.062907 0.120343 0.876470
v -0.060320 0.120000 0.882229
v -0.050860 0.123383 0.879501
v -0.048672 0.119635 0.874824
v -0.049852 0.120500 0.883054
v -0.048023 0.116643 0.878466
v -0.050645 0.111012 0.877120
v -0.054339 0.109709 0.876830
v -0.057497 0.109877 0.877477
v -0.054027 0.121985 0.885298
v -0.057098 0.121376 0.885432
v -0.059909 0.119178 0.883717
v -0.053511 0.119537 0.888493
v -0.050140 0.116156 0.887785
v -0.055464 0.104141 0.890775
v -0.054699 0.105694 0.886928
v -0.053776 0.106294 0.887467
v -0.054384 0.104198 0.891025
v -0.052161 0.108248 0.882681
v -0.051819 0.108471 0.884441
v -0.050047 0.111693 0.884770
v -0.051146 0.109135 0.889429
v -0.051845 0.113522 0.892522
v -0.052561 0.110978 0.895806
v -0.051553 0.107330 0.892849
v -0.050066 0.114298 0.888286
v -0.053912 0.103500 0.893726
v -0.054820 0.102670 0.894431
v -0.048981 0.112662 0.882987
v -0.055763 0.107648 0.880733
v -0.057141 0.104794 0.886953
v -0.057409 0.103041 0.891806
v -0.056795 0.103119 0.895648
v -0.059419 0.105900 0.886501
v -0.059643 0.103704 0.892072
v -0.058987 0.103964 0.895737
v -0.061741 0.108288 0.887100
v -0.061161 0.105864 0.892274
v -0.061224 0.111455 0.881427
v -0.058921 0.108791 0.880707
v -0.059952 0.105360 0.895134
v -0.053272 0.105067 0.897178
v -0.056143 0.105419 0.898010
v -0.052172 0.105738 0.896172
v -0.052455 0.114715 0.892948
v -0.053507 0.111716 0.896970
v -0.054468 0.116124 0.893366
v -0.055592 0.112210 0.897411
v -0.053645 0.108474 0.898486
v -0.052458 0.108426 0.896985
v -0.060382 0.111754 0.879533
v -0.060995 0.115301 0.881296
v -0.061545 0.115243 0.883483
v -0.062248 0.111984 0.888917
v -0.059829 0.118844 0.885908
v -0.056616 0.120161 0.887812
v -0.057204 0.116318 0.892994
v -0.060203 0.115172 0.891719
v -0.057764 0.111893 0.897175
v -0.060301 0.111196 0.895591
v -0.061784 0.108884 0.893663
v -0.057755 0.108214 0.898249
v -0.055965 0.108236 0.898912
v -0.058129 0.106017 0.897638
v -0.059408 0.108323 0.897194
v -0.059870 0.106964 0.896347
v -0.081380 0.136561 0.862895
v -0.097451 0.058326 0.806974
v -0.095290 0.062120 0.810575
v -0.100229 0.056851 0.825327
v -0.095926 0.061289 0.822051
v -0.103890 0.051230 0.824323
v -0.106892 0.046963 0.814649
v -0.106864 0.048473 0.820053
v -0.094165 0.063127 0.816555
v -0.100985 0.053736 0.805382
v -0.105287 0.048807 0.808212
v -0.094148 0.049775 0.806771
v -0.098831 0.044555 0.809727
v -0.100959 0.042021 0.815886
v -0.101969 0.044493 0.822097
v -0.100737 0.047544 0.825902
v -0.091711 0.055611 0.809379
v -0.090236 0.059342 0.813328
v -0.091145 0.060739 0.819665
v -0.084396 0.053058 0.813075
v -0.079868 0.043858 0.815008
v -0.078672 0.030085 0.828530
v -0.084435 0.033349 0.826867
v -0.082658 0.033257 0.824467
v -0.077806 0.029791 0.825906
v -0.087656 0.035459 0.822894
v -0.085298 0.035544 0.822074
v -0.083400 0.038495 0.818065
v -0.078948 0.035440 0.819595
v -0.079458 0.041629 0.816693
v -0.075681 0.040657 0.818109
v -0.074387 0.032494 0.820971
v -0.074117 0.028242 0.825093
v -0.070511 0.030155 0.822591
v -0.073378 0.028688 0.828333
v -0.084413 0.037873 0.816095
v -0.093768 0.038669 0.825486
v -0.086524 0.035408 0.829512
v -0.079281 0.032538 0.831551
v -0.073071 0.030992 0.830783
v -0.086582 0.039304 0.832202
v -0.079389 0.036932 0.833063
v -0.073600 0.036110 0.831931
v -0.084874 0.044065 0.832775
v -0.078292 0.040911 0.832705
v -0.095234 0.051005 0.828516
v -0.096470 0.044250 0.828331
v -0.074434 0.038972 0.831661
v -0.068339 0.030293 0.824739
v -0.068034 0.033027 0.827478
v -0.074852 0.044100 0.817545
v -0.071157 0.037718 0.818934
v -0.070060 0.040668 0.819843
v -0.075325 0.048188 0.818424
v -0.069703 0.043226 0.821431
v -0.067239 0.035861 0.821788
v -0.069312 0.034184 0.820338
v -0.098341 0.053362 0.827025
v -0.094899 0.058526 0.824247
v -0.091954 0.056370 0.825636
v -0.081983 0.049611 0.829946
v -0.087488 0.058503 0.821686
v -0.084695 0.056690 0.816453
v -0.076020 0.050911 0.821183
v -0.078452 0.051908 0.825391
v -0.070935 0.045168 0.824459
v -0.072858 0.045654 0.826914
v -0.075618 0.043942 0.830726
v -0.068885 0.040625 0.826557
v -0.067096 0.038494 0.823983
v -0.069772 0.037246 0.829361
v -0.071020 0.042196 0.827793
v -0.072149 0.040249 0.829986
v -0.091933 0.128682 0.862250
v -0.090169 0.123101 0.858972
v -0.096739 0.124019 0.859229
v -0.106351 0.123767 0.858970
v -0.115330 0.129503 0.860213
v -0.105580 0.119174 0.853772
v -0.095680 0.119523 0.854461
v -0.086158 0.118572 0.853788
v -0.112977 0.115870 0.847209
f 780 781 779
f 779 781 782
f 783 784 786
f 786 784 785
f 787 782 788
f 788 782 781
f 790 791 789
f 789 791 787
f 792 790 794
f 794 790 793
f 796 797 795
f 795 797 798
f 800 801 799
f 799 801 802
f 804 805 803
f 803 805 806
f 808 809 807
f 807 809 810
f 811 812 814
f 814 812 813
f 815 816 818
f 818 816 817
f 819 820 784
f 784 820 821
f 784 821 785
f 785 821 822
f 823 812 824
f 824 812 811
f 826 827 825
f 825 827 828
f 830 831 829
f 829 831 832
f 834 830 833
f 833 830 829
f 836 837 835
f 835 837 838
f 839 840 782
f 782 840 779
f 842 843 841
f 841 843 844
f 846 847 845
f 845 847 848
f 850 851 849
f 849 851 852
f 854 855 853
f 853 855 856
f 831 857 832
f 832 857 858
f 860 861 859
f 859 861 862
f 863 864 830
f 830 864 831
f 835 838 865
f 865 838 866
f 867 868 821
f 821 868 822
f 821 820 867
f 867 820 869
f 818 817 870
f 870 817 871
f 872 848 842
f 842 848 847
f 791 839 787
f 787 839 782
f 803 806 847
f 847 806 873
f 874 803 846
f 846 803 847
f 876 877 875
f 875 877 878
f 879 880 882
f 882 880 881
f 884 808 883
f 883 808 807
f 829 832 885
f 885 832 886
f 832 858 886
f 886 858 887
f 889 890 888
f 888 890 891
f 893 783 892
f 892 783 894
f 893 819 783
f 783 819 784
f 814 813 889
f 889 813 895
f 813 896 895
f 895 896 897
f 812 898 813
f 813 898 896
f 812 823 898
f 898 823 899
f 903 904 902
f 902 904 905
f 906 907 792
f 792 907 908
f 811 909 824
f 824 909 910
f 911 872 841
f 841 872 842
f 912 913 915
f 915 913 914
f 917 918 916
f 916 918 919
f 855 920 856
f 856 920 921
f 922 923 798
f 798 923 924
f 926 927 925
f 925 927 850
f 929 930 928
f 928 930 931
f 860 879 861
f 861 879 882
f 879 860 933
f 933 860 932
f 934 935 836
f 836 935 837
f 936 846 925
f 925 846 845
f 937 924 793
f 793 924 794
f 846 936 874
f 874 936 938
f 907 844 908
f 908 844 843
f 940 941 939
f 939 941 942
f 944 945 943
f 943 945 946
f 948 949 947
f 947 949 950
f 952 949 951
f 951 949 948
f 954 955 953
f 953 955 956
f 958 959 957
f 957 959 802
f 960 961 799
f 799 961 962
f 859 963 860
f 860 963 932
f 964 965 966
f 966 965 922
f 936 849 938
f 938 849 967
f 968 913 935
f 935 913 837
f 947 950 917
f 917 950 918
f 925 850 936
f 936 850 849
f 970 971 969
f 969 971 972
f 945 944 827
f 827 944 973
f 974 968 828
f 828 968 935
f 975 976 978
f 978 976 977
f 799 802 960
f 960 802 959
f 924 937 798
f 798 937 795
f 960 959 859
f 859 959 963
f 979 963 958
f 958 963 959
f 980 981 861
f 861 981 862
f 983 984 982
f 982 984 863
f 985 800 962
f 962 800 799
f 957 802 986
f 986 802 801
f 986 987 957
f 957 987 983
f 987 988 983
f 983 988 984
f 990 984 989
f 989 984 988
f 957 983 958
f 958 983 982
f 991 954 866
f 866 954 992
f 864 863 990
f 990 863 984
f 971 995 996
f 995 997 996
f 996 997 998
f 997 796 998
f 998 796 795
f 797 999 798
f 798 999 922
f 1000 1001 1003
f 1003 1001 1002
f 953 1004 954
f 954 1004 992
f 1005 865 992
f 992 865 866
f 998 795 1006
f 1006 795 937
f 912 991 838
f 838 991 866
f 916 1007 929
f 929 1007 930
f 971 970 988
f 988 970 989
f 1008 972 996
f 996 972 971
f 1009 1010 1006
f 1006 1010 1008
f 1011 1012 869
f 869 1012 867
f 1013 1014 871
f 871 1014 870
f 1008 1010 1012
f 1012 1010 1015
f 825 1016 826
f 826 1016 1017
f 1018 969 1013
f 1013 969 1014
f 783 786 894
f 894 786 1019
f 1020 1021 967
f 967 1021 938
f 1022 1023 876
f 876 1023 877
f 934 1024 825
f 825 1024 1016
f 854 1025 855
f 855 1025 1026
f 1028 903 1027
f 1027 903 902
f 1030 1031 1029
f 1029 1031 1032
f 889 888 814
f 814 888 1033
f 1034 811 1033
f 1033 811 814
f 1035 1036 932
f 932 1036 933
f 841 947 911
f 911 947 917
f 844 948 841
f 841 948 947
f 951 948 907
f 907 948 844
f 907 906 951
f 951 906 1037
f 906 1038 1037
f 1037 1038 1039
f 991 912 1040
f 1040 912 915
f 1041 1042 964
f 964 1042 965
f 890 1043 891
f 891 1043 1044
f 789 1045 1046
f 1012 1011 1008
f 1008 1011 972
f 931 1047 848
f 848 1047 845
f 953 956 943
f 943 956 919
f 928 931 872
f 872 931 848
f 1049 999 1048
f 1048 999 985
f 1047 931 1050
f 1050 931 930
f 899 823 887
f 887 823 886
f 825 828 934
f 934 828 935
f 835 1051 836
f 836 1051 1052
f 923 1053 1038
f 1038 1053 1039
f 1054 927 921
f 921 927 856
f 926 1047 853
f 853 1047 1050
f 985 1055 1048
f 1048 1055 1056
f 973 974 827
f 827 974 828
f 837 913 838
f 838 913 912
f 861 882 980
f 980 882 1057
f 927 926 856
f 856 926 853
f 1025 1056 1026
f 1026 1056 1055
f 961 960 862
f 862 960 859
f 826 1017 1059
f 1059 1017 1060
f 1005 1001 1061
f 1061 1001 1000
f 1001 1004 1002
f 1002 1004 946
f 1059 1060 1002
f 1002 1060 1003
f 943 946 953
f 953 946 1004
f 1042 1041 916
f 916 1041 1007
f 792 794 906
f 906 794 1038
f 998 1006 996
f 996 1006 1008
f 865 1005 1062
f 1062 1005 1061
f 1038 794 923
f 923 794 924
f 1022 876 1036
f 1036 876 933
f 836 1052 934
f 934 1052 1024
f 885 1063 829
f 829 1063 833
f 1021 1064 938
f 938 1064 874
f 1012 1015 867
f 867 1015 868
f 824 910 885
f 885 910 1063
f 1031 1030 1027
f 1027 1030 1028
f 1064 804 874
f 874 804 803
f 884 883 1065
f 1065 883 1066
f 1050 930 1067
f 1067 930 1007
f 916 929 917
f 917 929 911
f 961 1068 939
f 939 1068 940
f 1069 1070 1055
f 1055 1070 1071
f 929 928 911
f 911 928 872
f 1040 1053 955
f 955 1053 965
f 922 965 923
f 923 965 1053
f 1051 835 1062
f 1062 835 865
f 952 914 968
f 968 914 913
f 889 895 890
f 890 895 816
f 895 897 816
f 816 897 901
f 890 816 1043
f 1043 816 815
f 1065 1066 1032
f 1032 1066 1029
f 1006 937 1009
f 1009 937 793
f 1001 1005 1004
f 1004 1005 992
f 925 845 926
f 926 845 1047
f 1002 946 1059
f 1059 946 945
f 977 941 978
f 978 941 940
f 823 824 886
f 886 824 885
f 1059 945 826
f 826 945 827
f 939 942 1069
f 1069 942 1070
f 816 901 817
f 1071 1072 1055
f 1055 1072 1026
f 1062 1061 1074
f 1074 1061 1073
f 1062 1074 1051
f 1051 1074 1075
f 1052 1051 1076
f 1076 1051 1075
f 1024 1052 1077
f 1077 1052 1076
f 1061 1000 1073
f 1073 1000 1078
f 1000 1003 1078
f 1078 1003 1079
f 1079 1003 1080
f 1080 1003 1060
f 1081 1082 1078
f 1078 1082 1073
f 1084 1085 1083
f 1083 1085 1086
f 1087 1088 1086
f 1086 1088 1083
f 1086 1085 1090
f 1090 1085 1089
f 1091 1092 1090
f 1090 1092 1093
f 1089 1094 1090
f 1090 1094 1091
f 1095 1082 1089
f 1089 1082 1094
f 1093 1087 1090
f 1090 1087 1086
f 1096 1097 1099
f 1099 1097 1098
f 1097 1096 1087
f 1087 1096 1088
f 1089 1085 1095
f 1095 1085 1084
f 1084 1075 1095
f 1095 1075 1074
f 1084 1100 1075
f 1075 1100 1076
f 1083 1101 1084
f 1084 1101 1100
f 1101 1083 1102
f 1102 1083 1088
f 1082 1095 1073
f 1073 1095 1074
f 1096 1103 1088
f 1088 1103 1102
f 1101 1102 1104
f 1104 1102 1105
f 1102 1103 1105
f 1105 1103 1106
f 1104 1105 1107
f 1107 1105 1108
f 1107 1109 1104
f 1104 1109 1110
f 1111 1108 1106
f 1106 1108 1105
f 1101 1104 1100
f 1100 1104 1110
f 1100 1110 1076
f 1076 1110 1077
f 1103 1096 1112
f 1112 1096 1099
f 1091 1094 1113
f 1113 1094 1082
f 1113 1114 1091
f 1091 1114 1092
f 1082 1081 1113
f 1113 1081 1115
f 1114 1113 1116
f 1116 1113 1115
f 1114 1117 1092
f 1092 1117 1118
f 1024 1077 1016
f 1016 1077 1119
f 1017 1120 1060
f 1060 1120 1080
f 1120 1017 1119
f 1119 1017 1016
f 1119 1109 1120
f 1120 1109 1121
f 1109 1107 1121
f 1121 1107 1122
f 1120 1121 1080
f 1080 1121 1123
f 1119 1077 1109
f 1109 1077 1110
f 1124 1079 1123
f 1123 1079 1080
f 1124 1081 1079
f 1079 1081 1078
f 1125 1115 1124
f 1124 1115 1081
f 1125 1124 1126
f 1126 1124 1123
f 1127 1125 1128
f 1128 1125 1126
f 1121 1122 1123
f 1123 1122 1126
f 1122 1129 1126
f 1126 1129 1128
f 1115 1125 1116
f 1116 1125 1127
f 1131 1116 1130
f 1130 1116 1127
f 1130 1133 1132
f 1132 1133 1134
f 1130 1127 1133
f 1133 1127 1128
f 1130 1132 1131
f 1131 1132 1112
f 1131 1112 1117
f 1117 1112 1099
f 1117 1114 1131
f 1131 1114 1116
f 1107 1108 1122
f 1122 1108 1129
f 1134 1129 1111
f 1111 1129 1108
f 1134 1133 1129
f 1129 1133 1128
f 1132 1134 1106
f 1106 1134 1111
f 1106 1103 1132
f 1132 1103 1112
f 1087 1093 1097
f 1097 1093 1098
f 1098 1118 1099
f 1099 1118 1117
f 1098 1093 1118
f 1118 1093 1092
f 915 914 1039
f 1039 914 1037
f 918 944 919
f 919 944 943
f 950 949 973
f 973 949 974
f 949 952 974
f 974 952 968
f 956 955 1042
f 1042 955 965
f 950 973 918
f 918 973 944
f 915 1039 1040
f 1040 1039 1053
f 956 1042 919
f 919 1042 916
f 1040 955 991
f 991 955 954
f 914 952 1037
f 1037 952 951
f 1136 1137 1135
f 1135 1137 1138
f 1140 1141 1139
f 1139 1141 1142
f 1139 1142 1143
f 1143 1142 1144
f 1145 1146 1148
f 1148 1146 1147
f 854 1149 1025
f 1025 1149 1150
f 1151 1152 1140
f 1140 1152 1141
f 1154 1155 1153
f 1153 1155 1156
f 1067 1007 1158
f 1158 1007 1157
f 1159 1157 1041
f 1041 1157 1007
f 1161 1162 1160
f 1160 1162 1163
f 1164 1146 1152
f 1152 1146 1141
f 854 1067 1149
f 1149 1067 1158
f 1155 1154 1137
f 1137 1154 1165
f 1166 1164 1138
f 1138 1164 1152
f 1167 1161 1144
f 1144 1161 1168
f 1170 1171 1169
f 1169 1171 1172
f 1161 1160 1168
f 1168 1160 1173
f 1174 1143 1168
f 1168 1143 1144
f 1167 1144 1145
f 1145 1144 1142
f 1135 1175 1136
f 1136 1175 1176
f 1151 1177 1135
f 1135 1177 1175
f 1167 1145 1178
f 1178 1145 1148
f 1160 1163 1153
f 1153 1163 1150
f 1135 1138 1151
f 1151 1138 1152
f 1139 1179 1140
f 1140 1179 1180
f 1165 1166 1137
f 1137 1166 1138
f 1141 1146 1142
f 1142 1146 1145
f 1136 1176 1181
f 1181 1176 1182
f 1174 1170 1183
f 1183 1170 1169
f 1170 1173 1171
f 1171 1173 1156
f 1171 1181 1172
f 1172 1181 1182
f 1153 1156 1160
f 1160 1156 1173
f 1143 1174 1184
f 1184 1174 1183
f 1140 1180 1151
f 1151 1180 1177
f 1049 1048 1178
f 1178 1048 1162
f 1179 1139 1184
f 1184 1139 1143
f 1159 1147 1164
f 1164 1147 1146
f 1170 1174 1173
f 1173 1174 1168
f 1171 1156 1181
f 1181 1156 1155
f 1181 1155 1136
f 1136 1155 1137
f 1184 1183 1186
f 1186 1183 1185
f 1184 1186 1179
f 1179 1186 1187
f 1179 1187 1180
f 1180 1187 1188
f 1180 1188 1177
f 1177 1188 1189
f 1183 1169 1185
f 1185 1169 1190
f 1169 1172 1190
f 1190 1172 1191
f 1172 1182 1191
f 1191 1182 1192
f 1193 1194 1190
f 1190 1194 1185
f 1196 1197 1195
f 1195 1197 1198
f 1199 1200 1196
f 1196 1200 1197
f 1197 1200 1202
f 1202 1200 1201
f 1203 1204 1202
f 1202 1204 1205
f 1201 1206 1202
f 1202 1206 1203
f 1205 1198 1202
f 1202 1198 1197
f 1198 1207 1195
f 1195 1207 1208
f 1201 1200 1209
f 1209 1200 1199
f 1199 1187 1209
f 1209 1187 1186
f 1199 1210 1187
f 1187 1210 1188
f 1196 1211 1199
f 1199 1211 1210
f 1212 1211 1195
f 1195 1211 1196
f 1209 1194 1201
f 1201 1194 1206
f 1194 1209 1185
f 1185 1209 1186
f 1213 1212 1208
f 1208 1212 1195
f 1211 1212 1214
f 1214 1212 1215
f 1212 1213 1215
f 1215 1213 1216
f 1214 1215 1217
f 1217 1215 1218
f 1217 1219 1214
f 1214 1219 1220
f 1216 1221 1215
f 1215 1221 1218
f 1214 1220 1211
f 1211 1220 1210
f 1210 1220 1188
f 1188 1220 1189
f 1213 1208 1223
f 1223 1208 1222
f 1208 1207 1222
f 1222 1207 1224
f 1203 1206 1225
f 1225 1206 1194
f 1204 1203 1226
f 1226 1203 1225
f 1194 1193 1225
f 1225 1193 1227
f 1225 1227 1226
f 1226 1227 1228
f 1229 1230 1226
f 1226 1230 1204
f 1224 1230 1222
f 1222 1230 1229
f 1177 1189 1175
f 1175 1189 1231
f 1176 1232 1182
f 1182 1232 1192
f 1232 1176 1231
f 1231 1176 1175
f 1231 1219 1232
f 1232 1219 1233
f 1219 1217 1233
f 1233 1217 1234
f 1232 1233 1192
f 1192 1233 1235
f 1219 1231 1220
f 1220 1231 1189
f 1236 1191 1235
f 1235 1191 1192
f 1236 1193 1191
f 1191 1193 1190
f 1236 1237 1193
f 1193 1237 1227
f 1237 1236 1238
f 1238 1236 1235
f 1239 1237 1240
f 1240 1237 1238
f 1233 1234 1235
f 1235 1234 1238
f 1234 1241 1238
f 1238 1241 1240
f 1237 1239 1227
f 1227 1239 1228
f 1243 1228 1242
f 1242 1228 1239
f 1242 1245 1244
f 1244 1245 1246
f 1242 1239 1245
f 1245 1239 1240
f 1242 1244 1243
f 1243 1244 1223
f 1243 1223 1229
f 1229 1223 1222
f 1229 1226 1243
f 1243 1226 1228
f 1217 1218 1234
f 1234 1218 1241
f 1246 1241 1221
f 1221 1241 1218
f 1246 1245 1241
f 1241 1245 1240
f 1244 1246 1216
f 1216 1246 1221
f 1216 1213 1244
f 1244 1213 1223
f 1198 1205 1207
f 1207 1205 1224
f 1224 1205 1230
f 1230 1205 1204
f 1148 1147 966
f 966 1147 964
f 1149 1154 1150
f 1150 1154 1153
f 1158 1157 1165
f 1165 1157 1166
f 1157 1159 1166
f 1166 1159 1164
f 1163 1162 1056
f 1056 1162 1048
f 1158 1165 1149
f 1149 1165 1154
f 1178 1148 1049
f 1049 1148 966
f 1163 1056 1150
f 1150 1056 1025
f 1178 1162 1167
f 1167 1162 1161
f 1147 1159 964
f 964 1159 1041
f 999 1049 922
f 922 1049 966
f 999 797 985
f 985 797 800
f 797 796 800
f 800 796 801
f 796 997 801
f 801 997 986
f 1247 1248 1250
f 1250 1248 1249
f 1252 1253 1251
f 1251 1253 1254
f 1251 1254 1255
f 1255 1254 1256
f 1258 1259 1257
f 1257 1259 1260
f 1261 1262 1252
f 1252 1262 1253
f 1264 1265 1263
f 1263 1265 1266
f 1267 1268 855
f 855 1268 920
f 1269 1267 1026
f 1026 1267 855
f 1271 1272 1270
f 1270 1272 1273
f 1274 1258 1262
f 1262 1258 1253
f 1264 1275 1265
f 1265 1275 1249
f 1276 1274 1250
f 1250 1274 1262
f 1277 1271 1256
f 1256 1271 1278
f 1279 1280 1282
f 1282 1280 1281
f 1271 1270 1278
f 1278 1270 1283
f 1284 1255 1278
f 1278 1255 1256
f 1277 1256 1257
f 1257 1256 1254
f 1247 1285 1248
f 1248 1285 1286
f 1261 1287 1247
f 1247 1287 1285
f 1257 1260 1277
f 1277 1260 1288
f 1270 1273 1263
f 1263 1273 1289
f 1261 1247 1262
f 1262 1247 1250
f 1251 1290 1252
f 1252 1290 1291
f 1275 1276 1249
f 1249 1276 1250
f 1253 1258 1254
f 1254 1258 1257
f 1248 1286 1292
f 1292 1286 1293
f 1284 1280 1294
f 1294 1280 1279
f 1281 1280 1266
f 1266 1280 1283
f 1292 1293 1281
f 1281 1293 1282
f 1263 1266 1270
f 1270 1266 1283
f 1255 1284 1295
f 1295 1284 1294
f 1252 1291 1261
f 1261 1291 1287
f 1288 1070 1272
f 1272 1070 942
f 1290 1251 1295
f 1295 1251 1255
f 1269 1259 1274
f 1274 1259 1258
f 1280 1284 1283
f 1283 1284 1278
f 1281 1266 1292
f 1292 1266 1265
f 1292 1265 1248
f 1248 1265 1249
f 1295 1294 1297
f 1297 1294 1296
f 1295 1297 1290
f 1290 1297 1298
f 1290 1298 1291
f 1291 1298 1299
f 1291 1299 1287
f 1287 1299 1300
f 1294 1279 1296
f 1296 1279 1301
f 1279 1282 1301
f 1301 1282 1302
f 1302 1282 1303
f 1303 1282 1293
f 1304 1305 1301
f 1301 1305 1296
f 1307 1308 1306
f 1306 1308 1309
f 1310 1311 1307
f 1307 1311 1308
f 1308 1311 1313
f 1313 1311 1312
f 1314 1315 1313
f 1313 1315 1316
f 1312 1317 1313
f 1313 1317 1314
f 1316 1309 1313
f 1313 1309 1308
f 1318 1319 1309
f 1309 1319 1306
f 1311 1310 1312
f 1312 1310 1320
f 1310 1298 1320
f 1320 1298 1297
f 1310 1321 1298
f 1298 1321 1299
f 1307 1322 1310
f 1310 1322 1321
f 1322 1307 1323
f 1323 1307 1306
f 1312 1320 1317
f 1317 1320 1305
f 1305 1320 1296
f 1296 1320 1297
f 1319 1324 1306
f 1306 1324 1323
f 1325 1322 1326
f 1326 1322 1323
f 1324 1327 1323
f 1323 1327 1326
f 1328 1325 1329
f 1329 1325 1326
f 1325 1328 1331
f 1331 1328 1330
f 1327 1332 1326
f 1326 1332 1329
f 1322 1325 1321
f 1321 1325 1331
f 1321 1331 1299
f 1299 1331 1300
f 1324 1319 1334
f 1334 1319 1333
f 1319 1318 1333
f 1333 1318 1335
f 1314 1317 1336
f 1336 1317 1305
f 1315 1314 1337
f 1337 1314 1336
f 1305 1304 1336
f 1336 1304 1338
f 1337 1336 1339
f 1339 1336 1338
f 1337 1340 1315
f 1315 1340 1341
f 1335 1341 1333
f 1333 1341 1340
f 1287 1300 1285
f 1285 1300 1342
f 1286 1343 1293
f 1293 1343 1303
f 1343 1286 1342
f 1342 1286 1285
f 1342 1330 1343
f 1343 1330 1344
f 1330 1328 1344
f 1344 1328 1345
f 1343 1344 1303
f 1303 1344 1346
f 1342 1300 1330
f 1330 1300 1331
f 1347 1302 1346
f 1346 1302 1303
f 1347 1304 1302
f 1302 1304 1301
f 1348 1338 1347
f 1347 1338 1304
f 1348 1347 1349
f 1349 1347 1346
f 1350 1348 1351
f 1351 1348 1349
f 1344 1345 1346
f 1346 1345 1349
f 1345 1352 1349
f 1349 1352 1351
f 1348 1350 1338
f 1338 1350 1339
f 1354 1339 1353
f 1353 1339 1350
f 1353 1356 1355
f 1355 1356 1357
f 1353 1350 1356
f 1356 1350 1351
f 1353 1355 1354
f 1354 1355 1334
f 1354 1334 1340
f 1340 1334 1333
f 1340 1337 1354
f 1354 1337 1339
f 1328 1329 1345
f 1345 1329 1352
f 1357 1352 1332
f 1332 1352 1329
f 1357 1356 1352
f 1352 1356 1351
f 1357 1332 1355
f 1355 1332 1327
f 1327 1324 1355
f 1355 1324 1334
f 1309 1316 1318
f 1318 1316 1335
f 1335 1316 1341
f 1341 1316 1315
f 1259 1072 1260
f 1260 1072 1071
f 1358 1264 1289
f 1289 1264 1263
f 1268 1267 1275
f 1275 1267 1276
f 1267 1269 1276
f 1276 1269 1274
f 941 1273 942
f 942 1273 1272
f 1358 1268 1264
f 1264 1268 1275
f 1260 1071 1288
f 1288 1071 1070
f 1273 941 1289
f 1289 941 977
f 1272 1271 1288
f 1288 1271 1277
f 1259 1269 1072
f 1072 1269 1026
f 1360 1361 1359
f 1359 1361 1362
f 1364 1365 1363
f 1363 1365 1366
f 1363 1366 1367
f 1367 1366 1368
f 1370 1371 1369
f 1369 1371 1372
f 1373 1374 1376
f 1376 1374 1375
f 1377 1378 1364
f 1364 1378 1365
f 1379 1380 1382
f 1382 1380 1381
f 1383 1384 1386
f 1386 1384 1385
f 1387 1385 978
f 978 1385 1384
f 1388 1389 1391
f 1391 1389 1390
f 1378 1392 1365
f 1365 1392 1370
f 1374 1383 1375
f 1375 1383 1386
f 1380 1393 1381
f 1381 1393 1361
f 1394 1392 1362
f 1362 1392 1378
f 1389 1396 1395
f 1395 1396 1368
f 1398 1399 1397
f 1397 1399 1400
f 1388 1401 1389
f 1389 1401 1396
f 1402 1367 1396
f 1396 1367 1368
f 1395 1368 1369
f 1369 1368 1366
f 1359 1403 1360
f 1360 1403 1404
f 1377 1405 1359
f 1359 1405 1403
f 1369 1372 1395
f 1395 1372 1406
f 1379 1388 1376
f 1376 1388 1391
f 1359 1362 1377
f 1377 1362 1378
f 1363 1407 1364
f 1364 1407 1408
f 1393 1394 1361
f 1361 1394 1362
f 1365 1370 1366
f 1366 1370 1369
f 1360 1404 1409
f 1409 1404 1410
f 1402 1398 1411
f 1411 1398 1397
f 1399 1398 1382
f 1382 1398 1401
f 1409 1410 1399
f 1399 1410 1400
f 1388 1379 1401
f 1401 1379 1382
f 1367 1402 1412
f 1412 1402 1411
f 1364 1408 1377
f 1377 1408 1405
f 981 980 1406
f 1406 980 1390
f 1407 1363 1412
f 1412 1363 1367
f 1387 1371 1392
f 1392 1371 1370
f 1398 1402 1401
f 1401 1402 1396
f 1409 1399 1381
f 1381 1399 1382
f 1360 1409 1361
f 1361 1409 1381
f 1412 1411 1414
f 1414 1411 1413
f 1412 1414 1407
f 1407 1414 1415
f 1407 1415 1408
f 1408 1415 1416
f 1408 1416 1405
f 1405 1416 1417
f 1411 1397 1413
f 1413 1397 1418
f 1397 1400 1418
f 1418 1400 1419
f 1419 1400 1420
f 1420 1400 1410
f 1422 1413 1421
f 1421 1413 1418
f 1423 1424 1426
f 1426 1424 1425
f 1427 1428 1424
f 1424 1428 1425
f 1425 1428 1430
f 1430 1428 1429
f 1430 1431 1433
f 1433 1431 1432
f 1429 1434 1430
f 1430 1434 1431
f 1433 1426 1430
f 1430 1426 1425
f 1426 1435 1423
f 1423 1435 1436
f 1428 1427 1429
f 1429 1427 1437
f 1427 1415 1437
f 1437 1415 1414
f 1427 1438 1415
f 1415 1438 1416
f 1439 1438 1424
f 1424 1438 1427
f 1440 1439 1423
f 1423 1439 1424
f 1429 1437 1434
f 1434 1437 1422
f 1422 1437 1413
f 1413 1437 1414
f 1441 1440 1436
f 1436 1440 1423
f 1442 1439 1443
f 1443 1439 1440
f 1441 1444 1440
f 1440 1444 1443
f 1445 1442 1446
f 1446 1442 1443
f 1442 1445 1448
f 1448 1445 1447
f 1444 1449 1443
f 1443 1449 1446
f 1439 1442 1438
f 1438 1442 1448
f 1438 1448 1416
f 1416 1448 1417
f 1436 1450 1441
f 1441 1450 1451
f 1436 1435 1450
f 1450 1435 1452
f 1431 1434 1453
f 1453 1434 1422
f 1431 1453 1432
f 1432 1453 1454
f 1453 1422 1455
f 1455 1422 1421
f 1454 1453 1456
f 1456 1453 1455
f 1457 1458 1454
f 1454 1458 1432
f 1452 1458 1450
f 1450 1458 1457
f 1405 1417 1403
f 1403 1417 1459
f 1404 1460 1410
f 1410 1460 1420
f 1459 1460 1403
f 1403 1460 1404
f 1447 1461 1459
f 1459 1461 1460
f 1445 1462 1447
f 1447 1462 1461
f 1460 1461 1420
f 1420 1461 1463
f 1459 1417 1447
f 1447 1417 1448
f 1464 1419 1463
f 1463 1419 1420
f 1419 1464 1418
f 1418 1464 1421
f 1464 1465 1421
f 1421 1465 1455
f 1465 1464 1466
f 1466 1464 1463
f 1467 1465 1468
f 1468 1465 1466
f 1461 1462 1463
f 1463 1462 1466
f 1462 1469 1466
f 1466 1469 1468
f 1465 1467 1455
f 1455 1467 1456
f 1471 1456 1470
f 1470 1456 1467
f 1470 1473 1472
f 1472 1473 1474
f 1470 1467 1473
f 1473 1467 1468
f 1470 1472 1471
f 1471 1472 1451
f 1471 1451 1457
f 1457 1451 1450
f 1457 1454 1471
f 1471 1454 1456
f 1462 1445 1469
f 1469 1445 1446
f 1474 1469 1449
f 1449 1469 1446
f 1474 1473 1469
f 1469 1473 1468
f 1472 1474 1444
f 1444 1474 1449
f 1444 1441 1472
f 1472 1441 1451
f 1426 1433 1435
f 1435 1433 1452
f 1452 1433 1458
f 1458 1433 1432
f 1371 940 1372
f 1372 940 1068
f 1376 1375 1379
f 1379 1375 1380
f 1393 1386 1394
f 1394 1386 1385
f 1385 1387 1394
f 1394 1387 1392
f 1475 1373 1391
f 1391 1373 1376
f 1375 1386 1380
f 1380 1386 1393
f 1372 1068 1406
f 1406 1068 981
f 1406 1390 1395
f 1395 1390 1389
f 1371 1387 940
f 940 1387 978
f 883 807 1476
f 1476 807 1477
f 1046 904 1479
f 1479 904 1478
f 904 903 1478
f 1478 903 1480
f 1030 1481 1028
f 1028 1481 1482
f 810 1046 1483
f 1483 1046 1479
f 1066 883 1484
f 1484 883 1476
f 807 810 1477
f 1477 810 1483
f 1485 1029 1484
f 1484 1029 1066
f 1028 1482 903
f 903 1482 1480
f 1481 1030 1485
f 1485 1030 1029
f 1484 1486 1485
f 1485 1486 1487
f 1485 1487 1481
f 1481 1487 1488
f 1481 1488 1482
f 1482 1488 1489
f 1482 1489 1480
f 1480 1489 1490
f 1484 1476 1486
f 1486 1476 1491
f 1476 1477 1491
f 1491 1477 1492
f 1477 1483 1492
f 1492 1483 1493
f 1495 1486 1494
f 1494 1486 1491
f 1497 1498 1496
f 1496 1498 1499
f 1500 1501 1497
f 1497 1501 1498
f 1502 1503 1501
f 1501 1503 1498
f 1502 1504 1503
f 1503 1504 1505
f 1506 1499 1503
f 1503 1499 1498
f 1499 1506 1507
f 1507 1506 1508
f 1507 1509 1499
f 1499 1509 1496
f 1502 1501 1510
f 1510 1501 1500
f 1500 1488 1510
f 1510 1488 1487
f 1500 1511 1488
f 1488 1511 1489
f 1497 1512 1500
f 1500 1512 1511
f 1512 1497 1513
f 1513 1497 1496
f 1502 1510 1504
f 1504 1510 1495
f 1495 1510 1486
f 1486 1510 1487
f 1509 1514 1496
f 1496 1514 1513
f 1515 1512 1516
f 1516 1512 1513
f 1514 1517 1513
f 1513 1517 1516
f 1518 1515 1519
f 1519 1515 1516
f 1515 1518 1521
f 1521 1518 1520
f 1517 1522 1516
f 1516 1522 1519
f 1512 1515 1511
f 1511 1515 1521
f 1511 1521 1489
f 1489 1521 1490
f 1514 1509 1524
f 1524 1509 1523
f 1509 1507 1523
f 1523 1507 1508
f 1505 1504 1525
f 1525 1504 1495
f 1526 1505 1527
f 1527 1505 1525
f 1525 1495 1528
f 1528 1495 1494
f 1527 1525 1529
f 1529 1525 1528
f 1527 1530 1526
f 1526 1530 1531
f 1508 1531 1523
f 1523 1531 1530
f 1506 1503 1526
f 1526 1503 1505
f 1508 1506 1531
f 1531 1506 1526
f 1478 1480 1532
f 1532 1480 1490
f 1483 1479 1493
f 1493 1479 1533
f 1532 1533 1478
f 1478 1533 1479
f 1520 1534 1532
f 1532 1534 1533
f 1518 1535 1520
f 1520 1535 1534
f 1533 1534 1493
f 1493 1534 1536
f 1532 1490 1520
f 1520 1490 1521
f 1537 1492 1536
f 1536 1492 1493
f 1492 1537 1491
f 1491 1537 1494
f 1537 1538 1494
f 1494 1538 1528
f 1538 1537 1539
f 1539 1537 1536
f 1540 1538 1541
f 1541 1538 1539
f 1534 1535 1536
f 1536 1535 1539
f 1535 1542 1539
f 1539 1542 1541
f 1538 1540 1528
f 1528 1540 1529
f 1544 1529 1543
f 1543 1529 1540
f 1545 1543 1547
f 1547 1543 1546
f 1543 1540 1546
f 1546 1540 1541
f 1543 1545 1544
f 1544 1545 1524
f 1544 1524 1530
f 1530 1524 1523
f 1530 1527 1544
f 1544 1527 1529
f 1535 1518 1542
f 1542 1518 1519
f 1547 1542 1522
f 1522 1542 1519
f 1547 1546 1542
f 1542 1546 1541
f 1545 1547 1517
f 1517 1547 1522
f 1517 1514 1545
f 1545 1514 1524
f 997 995 986
f 986 995 987
f 987 995 988
f 988 995 971
f 976 1358 977
f 977 1358 1289
f 854 853 1067
f 1067 853 1050
f 1055 985 1069
f 1069 985 962
f 1068 961 981
f 981 961 862
f 1268 1358 920
f 920 1358 976
f 920 976 921
f 921 976 975
f 927 1054 850
f 850 1054 851
f 882 881 1057
f 1057 881 1548
f 1548 1374 1057
f 1057 1374 1373
f 1383 1374 1549
f 1549 1374 1548
f 1549 1548 1550
f 1550 1548 881
f 1550 881 1551
f 1551 881 880
f 933 1552 879
f 879 1552 880
f 1551 880 875
f 875 880 1552
f 1553 1551 878
f 878 1551 875
f 1551 1553 1550
f 1550 1553 1554
f 1550 1554 1549
f 1549 1554 1555
f 978 1384 975
f 975 1384 1555
f 967 849 1556
f 1556 849 852
f 875 1552 876
f 876 1552 933
f 961 939 962
f 962 939 1069
f 1555 1054 975
f 975 1054 921
f 1555 1384 1549
f 1549 1384 1383
f 1391 1390 1475
f 1475 1390 980
f 1373 1475 1057
f 1057 1475 980
f 851 1054 1554
f 1554 1054 1555
f 1554 1553 851
f 851 1553 852
f 878 1556 1553
f 1553 1556 852
f 1556 878 967
f 967 878 877
f 1023 1020 877
f 877 1020 967
f 909 811 1034
f 806 779 873
f 873 779 840
f 805 780 806
f 806 780 779
f 1043 893 1044
f 1044 893 892
f 873 840 847
f 847 840 842
f 840 839 842
f 842 839 843
f 839 791 843
f 843 791 908
f 791 790 908
f 908 790 792
f 809 789 810
f 810 789 1046
f 793 790 809
f 809 790 789
f 809 808 793
f 793 808 1009
f 808 884 1009
f 1009 884 1010
f 1065 1015 884
f 884 1015 1010
f 1032 868 1065
f 1065 868 1015
f 1031 822 1032
f 1032 822 868
f 1031 1027 822
f 822 1027 785
f 1045 905 1046
f 1046 905 904
f 788 781 1019
f 1019 781 894
f 781 780 894
f 894 780 892
f 780 805 892
f 892 805 1044
f 805 804 1044
f 1044 804 891
f 804 1064 891
f 891 1064 888
f 1064 1021 888
f 888 1021 1033
f 1021 1020 1033
f 1033 1020 1034
f 1020 1023 1034
f 1034 1023 909
f 1023 1022 909
f 909 1022 910
f 1043 815 893
f 893 815 819
f 819 815 820
f 820 815 818
f 870 869 818
f 818 869 820
f 1014 1011 870
f 870 1011 869
f 969 972 1014
f 1014 972 1011
f 1036 1063 1022
f 1022 1063 910
f 1035 833 1036
f 1036 833 1063
f 1035 932 979
f 979 932 963
f 834 979 982
f 982 979 958
f 833 1035 834
f 834 1035 979
f 982 863 834
f 834 863 830
f 864 900 831
f 831 900 857
f 990 993 864
f 864 993 900
f 989 994 990
f 990 994 993
f 970 1058 989
f 989 1058 994
f 969 1018 970
f 970 1018 1058
f 1027 902 785
f 785 902 786
f 902 905 786
f 786 905 1019
f 905 1045 1019
f 1019 1045 788
f 788 1045 787
f 787 1045 789
