o hand_left
v -0.141266 -0.052296 0.880357
v -0.151915 -0.050841 0.877952
v -0.143511 -0.044613 0.878186
v -0.134093 -0.046347 0.879160
v -0.160989 -0.033331 0.873582
v -0.164181 -0.027702 0.862971
v -0.148373 -0.022963 0.866868
v -0.148718 -0.028330 0.875805
v -0.127222 -0.043637 0.876948
v -0.136478 -0.040241 0.878324
v -0.124446 -0.045632 0.872124
v -0.114989 -0.051427 0.868769
v -0.118332 -0.047756 0.874929
v -0.107868 -0.054906 0.870260
v -0.118697 -0.058047 0.860374
v -0.107606 -0.064192 0.867779
v -0.131099 -0.081890 0.868664
v -0.138705 -0.089427 0.876880
v -0.123985 -0.090457 0.885514
v -0.117785 -0.081825 0.876776
v -0.140810 -0.096559 0.896551
v -0.130816 -0.093462 0.890939
v -0.145181 -0.093501 0.881726
v -0.153428 -0.096194 0.887282
v -0.153018 -0.061468 0.885531
v -0.163626 -0.060652 0.882361
v -0.159628 -0.057932 0.879722
v -0.149453 -0.058473 0.882755
v -0.123038 -0.040323 0.864806
v -0.127187 -0.045531 0.856377
v -0.123831 -0.047442 0.863415
v -0.123903 -0.040452 0.870380
v -0.192349 -0.058411 0.882151
v -0.201225 -0.061884 0.872498
v -0.198414 -0.059140 0.868051
v -0.190804 -0.056955 0.877699
v -0.184448 -0.042053 0.858431
v -0.191013 -0.050030 0.853784
v -0.189813 -0.052344 0.840150
v -0.181158 -0.046790 0.842688
v -0.174725 -0.033552 0.861330
v -0.173160 -0.036234 0.847397
v -0.161787 -0.028754 0.851404
v -0.145548 -0.022958 0.857828
v -0.206666 -0.070324 0.880610
v -0.201162 -0.068586 0.889070
v -0.080976 -0.046565 0.908056
v -0.084673 -0.049532 0.911826
v -0.086143 -0.050144 0.909382
v -0.082168 -0.047279 0.906000
v -0.201972 -0.089409 0.885746
v -0.198255 -0.097309 0.880573
v -0.205158 -0.096319 0.878343
v -0.208139 -0.087946 0.881574
v -0.193762 -0.091208 0.891217
v -0.188582 -0.097874 0.883612
v -0.069231 -0.051947 0.908379
v -0.072099 -0.047765 0.907070
v -0.072505 -0.050441 0.903253
v -0.070229 -0.055441 0.904082
v -0.124432 -0.047803 0.879757
v -0.131863 -0.052026 0.883671
v -0.108749 -0.050653 0.888260
v -0.118071 -0.052380 0.886385
v -0.115368 -0.049282 0.880577
v -0.107443 -0.049086 0.882070
v -0.134157 -0.065497 0.898052
v -0.144424 -0.064672 0.892323
v -0.139619 -0.061459 0.889111
v -0.127745 -0.060760 0.894591
v -0.153601 -0.069550 0.902077
v -0.142643 -0.070342 0.906728
v -0.149112 -0.073061 0.911759
v -0.155986 -0.071157 0.908005
v -0.122464 -0.071061 0.911833
v -0.116002 -0.072569 0.914164
v -0.117319 -0.073362 0.916904
v -0.125012 -0.072637 0.914076
v -0.211548 -0.096035 0.875240
v -0.213458 -0.086476 0.876795
v -0.157384 -0.100192 0.910061
v -0.166700 -0.096209 0.914961
v -0.156536 -0.098213 0.924315
v -0.149275 -0.102197 0.916360
v -0.191553 -0.100311 0.873142
v -0.199254 -0.101352 0.871851
v -0.069362 -0.057431 0.911532
v -0.070491 -0.060863 0.907554
v -0.158986 -0.038396 0.842275
v -0.142159 -0.028595 0.850425
v -0.170980 -0.048372 0.838213
v -0.178672 -0.056557 0.835949
v -0.185753 -0.060939 0.832594
v -0.117409 -0.055612 0.892321
v -0.139633 -0.057108 0.885046
v -0.156307 -0.063713 0.888635
v -0.172643 -0.073319 0.913157
v -0.181769 -0.071704 0.907879
v -0.173430 -0.066683 0.903307
v -0.167027 -0.069684 0.908600
v -0.169742 -0.088462 0.920235
v -0.167033 -0.080800 0.920872
v -0.159239 -0.082934 0.925992
v -0.160578 -0.090616 0.926947
v -0.122315 -0.035822 0.858905
v -0.130789 -0.042676 0.850546
v -0.203808 -0.079284 0.888474
v -0.208421 -0.077777 0.882323
v -0.214050 -0.078737 0.876025
v -0.177829 -0.058110 0.881676
v -0.189808 -0.055694 0.874648
v -0.187367 -0.052676 0.872212
v -0.175882 -0.057397 0.879390
v -0.163003 -0.046603 0.877243
v -0.173997 -0.040778 0.872072
v -0.152647 -0.040403 0.879271
v -0.196149 -0.055277 0.861127
v -0.206273 -0.059717 0.861427
v -0.202422 -0.056276 0.854115
v -0.210391 -0.065669 0.868105
v -0.213301 -0.072174 0.873520
v -0.206423 -0.104477 0.868420
v -0.197721 -0.054491 0.847329
v -0.139861 -0.026160 0.876779
v -0.131737 -0.024764 0.877962
v -0.130538 -0.032095 0.879972
v -0.137352 -0.033830 0.879424
v -0.099368 -0.057027 0.874176
v -0.102946 -0.050822 0.877988
v -0.111722 -0.049543 0.874017
v -0.185906 -0.061255 0.891453
v -0.193772 -0.069556 0.897017
v -0.107856 -0.054564 0.893811
v -0.072890 -0.057766 0.899589
v -0.075038 -0.052097 0.898865
v -0.087544 -0.054704 0.885532
v -0.084950 -0.061136 0.885913
v -0.100944 -0.062080 0.898807
v -0.103565 -0.056395 0.896536
v -0.101375 -0.057919 0.898034
v -0.099336 -0.063090 0.901567
v -0.125042 -0.076170 0.921272
v -0.132017 -0.075395 0.918662
v -0.105697 -0.079227 0.886986
v -0.101258 -0.074315 0.874735
v -0.112282 -0.074296 0.869307
v -0.139551 -0.068504 0.902331
v -0.130761 -0.069612 0.908086
v -0.133433 -0.071472 0.910778
v -0.115422 -0.058185 0.896002
v -0.107948 -0.058888 0.897861
v -0.112122 -0.061359 0.899554
v -0.119403 -0.061233 0.898323
v -0.176814 -0.095451 0.906179
v -0.180533 -0.086523 0.912700
v -0.076396 -0.045899 0.906673
v -0.077098 -0.047369 0.903772
v -0.149506 -0.067621 0.896618
v -0.125681 -0.073441 0.863310
v -0.159952 -0.065775 0.892224
v -0.131346 -0.095363 0.916679
v -0.133272 -0.090729 0.922326
v -0.127210 -0.088793 0.925006
v -0.124067 -0.093072 0.921836
v -0.088887 -0.061944 0.911551
v -0.090073 -0.056261 0.911185
v -0.087705 -0.055337 0.912681
v -0.085783 -0.060826 0.914305
v -0.103129 -0.052142 0.892494
v -0.101171 -0.049516 0.886746
v -0.096937 -0.050066 0.891798
v -0.099540 -0.053680 0.895770
v -0.096422 -0.051359 0.882846
v -0.092190 -0.050808 0.887561
v -0.084360 -0.066563 0.910029
v -0.077623 -0.067212 0.906361
v -0.089540 -0.071078 0.894544
v -0.093856 -0.068515 0.900509
v -0.165324 -0.096966 0.877890
v -0.173014 -0.099005 0.885783
v -0.161334 -0.098451 0.895340
v -0.149924 -0.099288 0.904780
v -0.138818 -0.098798 0.913189
v -0.130453 -0.098060 0.904375
v -0.167981 -0.099182 0.900153
v -0.101875 -0.069423 0.897283
v -0.098114 -0.073176 0.888272
v -0.101976 -0.074677 0.893149
v -0.164345 -0.067121 0.898142
v -0.079228 -0.048477 0.900137
v -0.176312 -0.080120 0.838429
v -0.179955 -0.090583 0.846145
v -0.172139 -0.088161 0.849293
v -0.168268 -0.075738 0.841102
v -0.088348 -0.050329 0.907963
v -0.084606 -0.047191 0.903559
v -0.134977 -0.078202 0.923950
v -0.127942 -0.079029 0.925300
v -0.127356 -0.082285 0.927153
v -0.134735 -0.081112 0.928717
v -0.178064 -0.099142 0.889026
v -0.148991 -0.096592 0.930474
v -0.143576 -0.101070 0.922825
v -0.182918 -0.099402 0.877135
v -0.176240 -0.098243 0.870008
v -0.184429 -0.099361 0.864782
v -0.116986 -0.091230 0.900528
v -0.158177 -0.094531 0.873509
v -0.170464 -0.095473 0.865719
v -0.179980 -0.096693 0.859263
v -0.186969 -0.098417 0.854987
v -0.191168 -0.101039 0.861518
v -0.073991 -0.063323 0.902962
v -0.074187 -0.065130 0.911867
v -0.198587 -0.104541 0.857535
v -0.193719 -0.100819 0.850511
v -0.164463 -0.091128 0.860188
v -0.157953 -0.084369 0.853795
v -0.152878 -0.090202 0.868053
v -0.145291 -0.083722 0.862297
v -0.112048 -0.090754 0.890880
v -0.075517 -0.055201 0.926872
v -0.078270 -0.061935 0.918537
v -0.083455 -0.059218 0.917738
v -0.079888 -0.054750 0.926811
v -0.081098 -0.064592 0.914173
v -0.073101 -0.061617 0.915949
v -0.139365 -0.072331 0.855400
v -0.105965 -0.062762 0.901541
v -0.153512 -0.068908 0.845949
v -0.129658 -0.058807 0.851972
v -0.140634 -0.054140 0.846165
v -0.167396 -0.062897 0.836368
v -0.154972 -0.051325 0.839026
v -0.182819 -0.071607 0.831781
v -0.175037 -0.068682 0.834821
v -0.142815 -0.040484 0.844161
v -0.081807 -0.043223 0.917203
v -0.084782 -0.047424 0.920291
v -0.183361 -0.082688 0.834758
v -0.143746 -0.036378 0.879515
v -0.173025 -0.063467 0.892469
v -0.169322 -0.062751 0.888232
v -0.186736 -0.070780 0.903861
v -0.178858 -0.064282 0.897931
v -0.076809 -0.041584 0.915533
v -0.111875 -0.076294 0.915426
v -0.113725 -0.076525 0.914618
v -0.139262 -0.020941 0.870003
v -0.131944 -0.019905 0.872064
v -0.124961 -0.023025 0.861242
v -0.128386 -0.019002 0.866199
v -0.136314 -0.020553 0.861798
v -0.132875 -0.024818 0.856164
v -0.179159 -0.058637 0.883936
v -0.181117 -0.059753 0.887197
v -0.186052 -0.093220 0.898513
v -0.188932 -0.084163 0.905147
v -0.093155 -0.056499 0.880183
v -0.097679 -0.064889 0.873676
v -0.091510 -0.063264 0.880233
v -0.086941 -0.067733 0.887847
v -0.102041 -0.065625 0.901125
v -0.098974 -0.067840 0.896584
v -0.181368 -0.047127 0.872284
v -0.170982 -0.053473 0.877406
v -0.132224 -0.038842 0.877361
v -0.127373 -0.038172 0.877225
v -0.125741 -0.065216 0.901673
v -0.107821 -0.086185 0.906443
v -0.104079 -0.085221 0.898664
v -0.117283 -0.066213 0.904906
v -0.069413 -0.044791 0.918299
v -0.073012 -0.042052 0.916186
v -0.093329 -0.070053 0.881793
v -0.139605 -0.073680 0.916313
v -0.115444 -0.088203 0.907418
v -0.109325 -0.082793 0.912658
v -0.154959 -0.090190 0.930928
v -0.187623 -0.092338 0.841917
v -0.086286 -0.054421 0.915959
v -0.084962 -0.051768 0.923317
v -0.071729 -0.054352 0.924864
v -0.068715 -0.050598 0.920838
v -0.195745 -0.080785 0.897203
v -0.166552 -0.062201 0.885681
v -0.132375 -0.033895 0.850771
v -0.123316 -0.029665 0.858328
v -0.112530 -0.067274 0.906905
v -0.137100 -0.096762 0.920297
v -0.123668 -0.096247 0.910901
v -0.116722 -0.094062 0.916639
v -0.111922 -0.088814 0.913930
v -0.110301 -0.081523 0.914417
v -0.072421 -0.050558 0.929756
v -0.069443 -0.046750 0.925892
v -0.070447 -0.041329 0.922765
v -0.073715 -0.039320 0.920087
v -0.077810 -0.039987 0.918684
v -0.076553 -0.051536 0.931619
v -0.080561 -0.051249 0.930956
v -0.084794 -0.050226 0.926210
v -0.079011 -0.048374 0.934627
v -0.075249 -0.044606 0.935693
v -0.077671 -0.031512 0.930641
v -0.073656 -0.035699 0.928872
v -0.074425 -0.035290 0.931581
v -0.077563 -0.032001 0.933872
v -0.080286 -0.029345 0.937501
v -0.080807 -0.028190 0.934192
v -0.073383 -0.039765 0.932918
v -0.077566 -0.035732 0.936692
v -0.079270 -0.039047 0.938758
v -0.081945 -0.035320 0.942047
v -0.080362 -0.032253 0.940467
v -0.076040 -0.041545 0.936306
v -0.071685 -0.041390 0.931656
v -0.083303 -0.027318 0.938058
v -0.081783 -0.028267 0.939844
v -0.082439 -0.030566 0.942180
v -0.085222 -0.029255 0.942341
v -0.075775 -0.036260 0.923312
v -0.079516 -0.031122 0.928771
v -0.083585 -0.028943 0.932826
v -0.085748 -0.028085 0.936826
v -0.083553 -0.032175 0.928608
v -0.086022 -0.030604 0.932393
v -0.088049 -0.030331 0.935894
v -0.087089 -0.034527 0.929570
v -0.088299 -0.032825 0.933050
v -0.082439 -0.040747 0.921600
v -0.078965 -0.038529 0.920486
v -0.089424 -0.031865 0.935165
v -0.087236 -0.029938 0.941697
v -0.080616 -0.042536 0.938623
v -0.084425 -0.037373 0.941835
v -0.082745 -0.043675 0.938113
v -0.086330 -0.038785 0.941657
v -0.085850 -0.033775 0.944174
v -0.083531 -0.033119 0.943286
v -0.082098 -0.042902 0.919336
v -0.084955 -0.047314 0.922641
v -0.085267 -0.045599 0.924626
v -0.089232 -0.038428 0.931682
v -0.085532 -0.048163 0.928310
v -0.082862 -0.048235 0.933508
v -0.085726 -0.043313 0.937381
v -0.088287 -0.042114 0.935265
v -0.088182 -0.039127 0.939872
v -0.089339 -0.038312 0.937715
v -0.089968 -0.035601 0.934923
v -0.089381 -0.035312 0.940837
v -0.087636 -0.034615 0.943141
v -0.089101 -0.031737 0.939468
v -0.090004 -0.035868 0.939072
v -0.089594 -0.033336 0.937393
v -0.093849 -0.057478 0.928735
v -0.097383 -0.061221 0.932751
v -0.095938 -0.063217 0.929300
v -0.092930 -0.060157 0.925960
v -0.080141 -0.061634 0.930070
v -0.084771 -0.057619 0.928067
v -0.082899 -0.061548 0.924024
v -0.079166 -0.066997 0.926320
v -0.080160 -0.067793 0.934023
v -0.080215 -0.073004 0.929936
v -0.080666 -0.069986 0.921313
v -0.084497 -0.063952 0.919632
v -0.097145 -0.069317 0.903847
v -0.094182 -0.075629 0.904115
v -0.110348 -0.071447 0.915609
v -0.108911 -0.074960 0.917091
v -0.089959 -0.056613 0.927752
v -0.088337 -0.059645 0.924287
v -0.098931 -0.071200 0.931837
v -0.099695 -0.066157 0.929723
v -0.098182 -0.066389 0.932411
v -0.096383 -0.070811 0.935330
v -0.104078 -0.065367 0.906858
v -0.107887 -0.068325 0.910924
v -0.100645 -0.066208 0.905225
v -0.094599 -0.076465 0.932529
v -0.088449 -0.079185 0.930601
v -0.099575 -0.084848 0.914069
v -0.104009 -0.082194 0.917748
v -0.088976 -0.060808 0.920444
v -0.097202 -0.061864 0.926637
v -0.093944 -0.059719 0.922995
v -0.083127 -0.076277 0.924941
v -0.085819 -0.075524 0.935608
v -0.091786 -0.061286 0.948811
v -0.091599 -0.070168 0.941087
v -0.096140 -0.067980 0.939580
v -0.096574 -0.059963 0.948280
v -0.091896 -0.074106 0.936798
v -0.085863 -0.070431 0.939369
v -0.097210 -0.049152 0.939536
v -0.100642 -0.053255 0.943229
v -0.093091 -0.047441 0.938264
v -0.095512 -0.082128 0.907858
v -0.083626 -0.051903 0.939516
v -0.088849 -0.048093 0.937840
v -0.098810 -0.065052 0.936228
v -0.100175 -0.057007 0.946630
v -0.087467 -0.060654 0.947509
v -0.082792 -0.057741 0.942720
v -0.087761 -0.055411 0.950896
v -0.084076 -0.052663 0.946877
v -0.084647 -0.047820 0.943139
v -0.089318 -0.045663 0.940766
v -0.093424 -0.045974 0.940540
v -0.091635 -0.055970 0.952444
v -0.096374 -0.055568 0.952054
v -0.099836 -0.054338 0.948643
v -0.095448 -0.049627 0.955782
v -0.091260 -0.047353 0.955469
v -0.094747 -0.030648 0.948743
v -0.091660 -0.035547 0.946914
v -0.090917 -0.035780 0.949425
v -0.093843 -0.031416 0.951316
v -0.087620 -0.040292 0.946852
v -0.088354 -0.039573 0.949058
v -0.088636 -0.042928 0.952342
v -0.092379 -0.038086 0.953460
v -0.094569 -0.041197 0.956461
v -0.097008 -0.036352 0.958680
v -0.094634 -0.033078 0.956016
v -0.091183 -0.043856 0.955118
v -0.095872 -0.029072 0.953303
v -0.097951 -0.027759 0.952511
v -0.086643 -0.045088 0.951606
v -0.089690 -0.042649 0.942044
v -0.094018 -0.035426 0.944821
v -0.097834 -0.030622 0.947477
v -0.100994 -0.028282 0.952394
v -0.098178 -0.036133 0.944416
v -0.100947 -0.031651 0.947609
v -0.103030 -0.030077 0.952022
v -0.102378 -0.038013 0.945674
v -0.104354 -0.033660 0.949174
v -0.097901 -0.046917 0.941823
v -0.094002 -0.044186 0.940463
v -0.104354 -0.031994 0.951318
v -0.098844 -0.028633 0.957186
v -0.102121 -0.028943 0.956354
v -0.097332 -0.029697 0.956946
v -0.096136 -0.042469 0.957258
v -0.099207 -0.036922 0.958936
v -0.098870 -0.043455 0.957434
v -0.101675 -0.036981 0.958964
v -0.100424 -0.032320 0.959688
v -0.098779 -0.032018 0.959271
v -0.096869 -0.048442 0.941963
v -0.099894 -0.051925 0.945317
v -0.100724 -0.050361 0.945368
v -0.104658 -0.041058 0.949471
v -0.100730 -0.052312 0.949666
v -0.098672 -0.050911 0.954076
v -0.101473 -0.044224 0.956387
v -0.104216 -0.043172 0.953617
v -0.103717 -0.037816 0.958743
v -0.105133 -0.038721 0.955940
v -0.106038 -0.036312 0.951848
v -0.104372 -0.033064 0.958858
v -0.102212 -0.032360 0.959595
v -0.103715 -0.030248 0.955438
v -0.105612 -0.034832 0.956739
v -0.105289 -0.032599 0.953837
v -0.104155 -0.068463 0.935909
v -0.108507 -0.070708 0.939133
v -0.109283 -0.072240 0.936441
v -0.104952 -0.070424 0.933322
v -0.093676 -0.076045 0.937082
v -0.095491 -0.071523 0.935689
v -0.096231 -0.074425 0.931795
v -0.094672 -0.079795 0.932022
v -0.094773 -0.079561 0.941592
v -0.096154 -0.085026 0.935416
v -0.096673 -0.082597 0.927531
v -0.097792 -0.076446 0.928083
v -0.107568 -0.080493 0.917370
v -0.106542 -0.087138 0.917911
v -0.099573 -0.069206 0.935282
v -0.100439 -0.071332 0.932252
v -0.112614 -0.079084 0.939844
v -0.112350 -0.074747 0.937755
v -0.111110 -0.075783 0.940102
v -0.110215 -0.079581 0.942229
v -0.116005 -0.074156 0.919807
v -0.120542 -0.076801 0.922922
v -0.111147 -0.075797 0.918707
v -0.109264 -0.085035 0.939937
v -0.104036 -0.089336 0.936724
v -0.115480 -0.092168 0.927656
v -0.119725 -0.088022 0.929395
v -0.101280 -0.072606 0.929246
v -0.110395 -0.071322 0.934051
v -0.105954 -0.070163 0.930938
v -0.099455 -0.087456 0.930922
v -0.101020 -0.086396 0.940814
v -0.101166 -0.071338 0.958015
v -0.104790 -0.081982 0.946306
v -0.109304 -0.078157 0.944997
v -0.105337 -0.069663 0.957422
v -0.106425 -0.083993 0.943348
v -0.099324 -0.082898 0.944928
v -0.103447 -0.059793 0.947538
v -0.107002 -0.062713 0.950700
v -0.099173 -0.060687 0.945846
v -0.109528 -0.092425 0.921789
v -0.122647 -0.082045 0.927928
v -0.092767 -0.064552 0.948048
v -0.095883 -0.061908 0.946150
v -0.110270 -0.074609 0.942513
v -0.107856 -0.066748 0.954824
v -0.096493 -0.072092 0.956007
v -0.092579 -0.069751 0.951284
v -0.096418 -0.067423 0.959481
v -0.092426 -0.065238 0.954638
v -0.092692 -0.061019 0.950449
v -0.096493 -0.059197 0.947903
v -0.099960 -0.058478 0.947445
v -0.101674 -0.066810 0.960766
v -0.105486 -0.065783 0.959672
v -0.107571 -0.065358 0.955110
v -0.103065 -0.063075 0.962658
v -0.097926 -0.060910 0.962624
v -0.100710 -0.044146 0.957496
v -0.098444 -0.049486 0.955282
v -0.098247 -0.049865 0.956433
v -0.100032 -0.044548 0.959090
v -0.094702 -0.055395 0.954242
v -0.095455 -0.054375 0.955850
v -0.095367 -0.056930 0.958921
v -0.098025 -0.051274 0.961607
v -0.101896 -0.054897 0.964750
v -0.103377 -0.049606 0.966320
v -0.099848 -0.045957 0.963757
v -0.098053 -0.058641 0.962277
v -0.101289 -0.042068 0.961151
v -0.101504 -0.040574 0.959952
v -0.093934 -0.059201 0.958291
v -0.097304 -0.055409 0.950007
v -0.100242 -0.049001 0.952841
v -0.102589 -0.043644 0.954983
v -0.104676 -0.040925 0.958063
v -0.103936 -0.049639 0.951808
v -0.105431 -0.044947 0.954415
v -0.107172 -0.042535 0.957317
v -0.107072 -0.050756 0.952524
v -0.108074 -0.046732 0.955113
v -0.104395 -0.058390 0.948929
v -0.100867 -0.056588 0.948333
v -0.108567 -0.044465 0.957330
v -0.103102 -0.041325 0.964435
v -0.107189 -0.041585 0.963206
v -0.102102 -0.042766 0.964208
v -0.103044 -0.056272 0.965274
v -0.105486 -0.049843 0.967361
v -0.105784 -0.057068 0.964879
v -0.107994 -0.050702 0.966881
v -0.105277 -0.045129 0.967403
v -0.104187 -0.045440 0.966893
v -0.103667 -0.059350 0.948495
v -0.106851 -0.062367 0.951354
v -0.107381 -0.061367 0.951579
v -0.110367 -0.053032 0.955526
v -0.108235 -0.063854 0.955548
v -0.106673 -0.062334 0.961217
v -0.108507 -0.056651 0.962851
v -0.110650 -0.055141 0.959809
v -0.109950 -0.051000 0.964833
v -0.110760 -0.051283 0.962043
v -0.110897 -0.048742 0.957693
v -0.109711 -0.046690 0.964481
v -0.107877 -0.045698 0.966728
v -0.109243 -0.043268 0.961326
v -0.110780 -0.047642 0.962325
v -0.110268 -0.045165 0.959874
v -0.122815 -0.079160 0.925862
v -0.124804 -0.070211 0.941177
v -0.127576 -0.071415 0.944245
v -0.127497 -0.072392 0.943787
v -0.125472 -0.071450 0.939885
v -0.115749 -0.077564 0.940094
v -0.117978 -0.073308 0.939113
v -0.118532 -0.076361 0.936301
v -0.116740 -0.080662 0.937347
v -0.116488 -0.081679 0.943563
v -0.117945 -0.084280 0.941682
v -0.119482 -0.082895 0.935390
v -0.121096 -0.078580 0.933888
v -0.132099 -0.087667 0.924503
v -0.132765 -0.093068 0.925414
v -0.149339 -0.088190 0.934397
v -0.149822 -0.083448 0.932090
v -0.143133 -0.081586 0.937599
v -0.143293 -0.085932 0.939444
v -0.121350 -0.071066 0.939576
v -0.122211 -0.072865 0.937004
v -0.129916 -0.080123 0.949067
v -0.130562 -0.075928 0.946440
v -0.129069 -0.074451 0.947121
v -0.128754 -0.077758 0.950595
v -0.145944 -0.080588 0.929979
v -0.141420 -0.080272 0.928349
v -0.138813 -0.079037 0.930419
v -0.140487 -0.079012 0.934594
v -0.134282 -0.081297 0.927664
v -0.127556 -0.083979 0.948816
v -0.123545 -0.087252 0.945592
v -0.140383 -0.095194 0.936751
v -0.142812 -0.091186 0.938674
v -0.123068 -0.074797 0.935700
v -0.129356 -0.073611 0.942353
v -0.126504 -0.072740 0.939508
v -0.120436 -0.086839 0.939670
v -0.121523 -0.084384 0.947536
v -0.122508 -0.074476 0.956451
v -0.125104 -0.080182 0.952260
v -0.128625 -0.076828 0.951385
v -0.125555 -0.072945 0.955883
v -0.125739 -0.081340 0.950827
v -0.120239 -0.081736 0.949656
v -0.124454 -0.065917 0.945140
v -0.127187 -0.068226 0.949363
v -0.121323 -0.065963 0.943552
v -0.135846 -0.096456 0.929901
v -0.114895 -0.070011 0.944977
v -0.117943 -0.066846 0.943691
v -0.128823 -0.073459 0.947893
v -0.127586 -0.070658 0.953329
v -0.117977 -0.075149 0.954395
v -0.114556 -0.074439 0.948841
v -0.117340 -0.070480 0.956212
v -0.114083 -0.070043 0.950547
v -0.115756 -0.066223 0.945890
v -0.119393 -0.065150 0.944303
v -0.122698 -0.064951 0.944341
v -0.122125 -0.070444 0.958092
v -0.125051 -0.069919 0.957401
v -0.127217 -0.069155 0.954242
v -0.122032 -0.066406 0.959238
v -0.118271 -0.064019 0.957180
v -0.122882 -0.053093 0.950707
v -0.121391 -0.056780 0.948934
v -0.120653 -0.056813 0.949954
v -0.121893 -0.052910 0.951213
v -0.118173 -0.061330 0.947926
v -0.118249 -0.060319 0.949493
v -0.116910 -0.062556 0.952123
v -0.118802 -0.057565 0.953835
v -0.120622 -0.059029 0.958750
v -0.121815 -0.054890 0.959542
v -0.119767 -0.053902 0.955257
v -0.118064 -0.062260 0.956412
v -0.121975 -0.050535 0.952929
v -0.122993 -0.049523 0.952713
v -0.115579 -0.064466 0.951576
v -0.121391 -0.062158 0.945378
v -0.123768 -0.056219 0.947841
v -0.124987 -0.051721 0.950343
v -0.125286 -0.049191 0.953439
v -0.126095 -0.057423 0.947679
v -0.127314 -0.052224 0.950450
v -0.127526 -0.049995 0.953556
v -0.128773 -0.058959 0.949191
v -0.129092 -0.053778 0.951648
v -0.127405 -0.064732 0.947313
v -0.124740 -0.063041 0.945454
v -0.128527 -0.051470 0.953770
v -0.122293 -0.049412 0.956689
v -0.125385 -0.049382 0.956849
v -0.120970 -0.050526 0.956616
v -0.121475 -0.059716 0.959753
v -0.123120 -0.054771 0.960724
v -0.123632 -0.060644 0.960583
v -0.125327 -0.055032 0.960932
v -0.123303 -0.051237 0.959757
v -0.121715 -0.052094 0.958889
v -0.126071 -0.065434 0.946618
v -0.127376 -0.067158 0.949957
v -0.128504 -0.066341 0.951332
v -0.130053 -0.060664 0.952923
v -0.127607 -0.067693 0.955675
v -0.124994 -0.067417 0.958589
v -0.126309 -0.061182 0.959884
v -0.128924 -0.061256 0.957549
v -0.127395 -0.055098 0.960053
v -0.129502 -0.055747 0.957856
v -0.130353 -0.055226 0.954543
v -0.127309 -0.051510 0.958477
v -0.125686 -0.050957 0.959395
v -0.127340 -0.050215 0.956501
v -0.128722 -0.052400 0.957388
v -0.128859 -0.051910 0.955752
v -0.146935 -0.091504 0.934993
v -0.111297 -0.032383 0.868546
v -0.113362 -0.035958 0.872555
v -0.119830 -0.026422 0.884311
v -0.117549 -0.032976 0.882748
v -0.119383 -0.019869 0.882033
v -0.115490 -0.016054 0.872509
v -0.118676 -0.016688 0.877167
v -0.115332 -0.036356 0.878289
v -0.111052 -0.026896 0.866104
v -0.112813 -0.019859 0.867202
v -0.101664 -0.027841 0.869307
v -0.103153 -0.019499 0.871170
v -0.105535 -0.015173 0.876435
v -0.111608 -0.016405 0.881441
v -0.114238 -0.019117 0.885041
v -0.106158 -0.033772 0.872299
v -0.109253 -0.036682 0.875966
v -0.112916 -0.035895 0.881586
v -0.102125 -0.036709 0.878501
v -0.095427 -0.032979 0.884592
v -0.093881 -0.022424 0.901466
v -0.097951 -0.020792 0.895992
v -0.095859 -0.022322 0.894923
v -0.092042 -0.023313 0.899890
v -0.098592 -0.020333 0.890113
v -0.097292 -0.022291 0.890593
v -0.096093 -0.026183 0.887113
v -0.092859 -0.027235 0.892144
v -0.095319 -0.031327 0.887046
v -0.093682 -0.033194 0.890804
v -0.089561 -0.028397 0.896812
v -0.088770 -0.025075 0.901640
v -0.087004 -0.029352 0.900847
v -0.090246 -0.025265 0.904414
v -0.094131 -0.024868 0.884263
v -0.104742 -0.017666 0.888675
v -0.101394 -0.020075 0.896684
v -0.097197 -0.022909 0.903044
v -0.092874 -0.026507 0.905900
v -0.105037 -0.022093 0.897945
v -0.100735 -0.025400 0.903008
v -0.096875 -0.029218 0.905153
v -0.107371 -0.026424 0.898074
v -0.102386 -0.028946 0.902072
v -0.114339 -0.025067 0.888890
v -0.111103 -0.019483 0.889044
v -0.098863 -0.030565 0.903658
v -0.087073 -0.030570 0.903461
v -0.090056 -0.032004 0.904885
v -0.094962 -0.036130 0.889611
v -0.090208 -0.034360 0.894924
v -0.091843 -0.036788 0.895213
v -0.098115 -0.038502 0.888971
v -0.094003 -0.038471 0.895890
v -0.088545 -0.035366 0.899785
v -0.087834 -0.033131 0.898219
v -0.116414 -0.024847 0.886684
v -0.115827 -0.031198 0.884963
v -0.114169 -0.031367 0.886649
v -0.107718 -0.032717 0.895629
v -0.111371 -0.036456 0.884407
v -0.106518 -0.038092 0.880948
v -0.101446 -0.039431 0.890365
v -0.105240 -0.037602 0.892659
v -0.097339 -0.038350 0.897209
v -0.099837 -0.036884 0.898230
v -0.101967 -0.033220 0.900747
v -0.094656 -0.036403 0.901388
v -0.091190 -0.036786 0.900793
v -0.094499 -0.033127 0.904364
v -0.097258 -0.035687 0.900928
v -0.097765 -0.033264 0.902885
v -0.154598 -0.083233 0.928504
v -0.150205 -0.079129 0.925724
v -0.156164 -0.078429 0.923046
v -0.164140 -0.075793 0.918455
v -0.174175 -0.078652 0.916070
v -0.159868 -0.072833 0.913717
v -0.151859 -0.075520 0.918803
v -0.143283 -0.076914 0.922464
v -0.162427 -0.069350 0.904233
f 2 3 1
f 1 3 4
f 5 6 8
f 8 6 7
f 9 4 10
f 10 4 3
f 12 13 11
f 11 13 9
f 14 12 16
f 16 12 15
f 18 19 17
f 17 19 20
f 22 23 21
f 21 23 24
f 26 27 25
f 25 27 28
f 30 31 29
f 29 31 32
f 33 34 36
f 36 34 35
f 37 38 40
f 40 38 39
f 41 42 6
f 6 42 43
f 6 43 7
f 7 43 44
f 45 34 46
f 46 34 33
f 48 49 47
f 47 49 50
f 52 53 51
f 51 53 54
f 56 52 55
f 55 52 51
f 58 59 57
f 57 59 60
f 61 62 4
f 4 62 1
f 64 65 63
f 63 65 66
f 68 69 67
f 67 69 70
f 72 73 71
f 71 73 74
f 76 77 75
f 75 77 78
f 53 79 54
f 54 79 80
f 82 83 81
f 81 83 84
f 85 86 52
f 52 86 53
f 57 60 87
f 87 60 88
f 89 90 43
f 43 90 44
f 43 42 89
f 89 42 91
f 40 39 92
f 92 39 93
f 94 70 64
f 64 70 69
f 13 61 9
f 9 61 4
f 25 28 69
f 69 28 95
f 96 25 68
f 68 25 69
f 98 99 97
f 97 99 100
f 101 102 104
f 104 102 103
f 106 30 105
f 105 30 29
f 51 54 107
f 107 54 108
f 54 80 108
f 108 80 109
f 111 112 110
f 110 112 113
f 115 5 114
f 114 5 116
f 115 41 5
f 5 41 6
f 36 35 111
f 111 35 117
f 35 118 117
f 117 118 119
f 34 120 35
f 35 120 118
f 34 45 120
f 120 45 121
f 125 126 124
f 124 126 127
f 128 129 14
f 14 129 130
f 33 131 46
f 46 131 132
f 133 94 63
f 63 94 64
f 134 135 137
f 137 135 136
f 139 140 138
f 138 140 141
f 77 142 78
f 78 142 143
f 144 145 20
f 20 145 146
f 148 149 147
f 147 149 72
f 151 152 150
f 150 152 153
f 82 101 83
f 83 101 104
f 101 82 155
f 155 82 154
f 156 157 58
f 58 157 59
f 158 68 147
f 147 68 67
f 159 146 15
f 15 146 16
f 68 158 96
f 96 158 160
f 129 66 130
f 130 66 65
f 162 163 161
f 161 163 164
f 166 167 165
f 165 167 168
f 170 171 169
f 169 171 172
f 174 171 173
f 173 171 170
f 176 177 175
f 175 177 178
f 180 181 179
f 179 181 24
f 182 183 21
f 21 183 184
f 81 185 82
f 82 185 154
f 186 187 188
f 188 187 144
f 158 71 160
f 160 71 189
f 190 135 157
f 157 135 59
f 169 172 139
f 139 172 140
f 147 72 158
f 158 72 71
f 192 193 191
f 191 193 194
f 167 166 49
f 49 166 195
f 196 190 50
f 50 190 157
f 197 198 200
f 200 198 199
f 21 24 182
f 182 24 181
f 146 159 20
f 20 159 17
f 182 181 81
f 81 181 185
f 201 185 180
f 180 185 181
f 202 203 83
f 83 203 84
f 205 206 204
f 204 206 85
f 207 22 184
f 184 22 21
f 179 24 208
f 208 24 23
f 208 209 179
f 179 209 205
f 209 210 205
f 205 210 206
f 212 206 211
f 211 206 210
f 179 205 180
f 180 205 204
f 213 176 88
f 88 176 214
f 86 85 212
f 212 85 206
f 193 217 218
f 217 219 218
f 218 219 220
f 219 18 220
f 220 18 17
f 19 221 20
f 20 221 144
f 222 223 225
f 225 223 224
f 175 226 176
f 176 226 214
f 227 87 214
f 214 87 88
f 220 17 228
f 228 17 159
f 134 213 60
f 60 213 88
f 138 229 151
f 151 229 152
f 193 192 210
f 210 192 211
f 230 194 218
f 218 194 193
f 231 232 228
f 228 232 230
f 233 234 91
f 91 234 89
f 235 236 93
f 93 236 92
f 230 232 234
f 234 232 237
f 47 238 48
f 48 238 239
f 240 191 235
f 235 191 236
f 5 8 116
f 116 8 241
f 242 243 189
f 189 243 160
f 244 245 98
f 98 245 99
f 156 246 47
f 47 246 238
f 76 247 77
f 77 247 248
f 250 125 249
f 249 125 124
f 252 253 251
f 251 253 254
f 111 110 36
f 36 110 255
f 256 33 255
f 255 33 36
f 257 258 154
f 154 258 155
f 63 169 133
f 133 169 139
f 66 170 63
f 63 170 169
f 173 170 129
f 129 170 66
f 129 128 173
f 173 128 259
f 128 260 259
f 259 260 261
f 213 134 262
f 262 134 137
f 263 264 186
f 186 264 187
f 112 265 113
f 113 265 266
f 11 267 268
f 234 233 230
f 230 233 194
f 153 269 70
f 70 269 67
f 175 178 165
f 165 178 141
f 150 153 94
f 94 153 70
f 271 221 270
f 270 221 207
f 269 153 272
f 272 153 152
f 121 45 109
f 109 45 108
f 47 50 156
f 156 50 157
f 57 273 58
f 58 273 274
f 145 275 260
f 260 275 261
f 276 149 143
f 143 149 78
f 148 269 75
f 75 269 272
f 207 277 270
f 270 277 278
f 195 196 49
f 49 196 50
f 59 135 60
f 60 135 134
f 83 104 202
f 202 104 279
f 149 148 78
f 78 148 75
f 247 278 248
f 248 278 277
f 183 182 84
f 84 182 81
f 48 239 281
f 281 239 282
f 227 223 283
f 283 223 222
f 223 226 224
f 224 226 168
f 281 282 224
f 224 282 225
f 165 168 175
f 175 168 226
f 264 263 138
f 138 263 229
f 14 16 128
f 128 16 260
f 220 228 218
f 218 228 230
f 87 227 284
f 284 227 283
f 260 16 145
f 145 16 146
f 244 98 258
f 258 98 155
f 58 274 156
f 156 274 246
f 107 285 51
f 51 285 55
f 243 286 160
f 160 286 96
f 234 237 89
f 89 237 90
f 46 132 107
f 107 132 285
f 253 252 249
f 249 252 250
f 286 26 96
f 96 26 25
f 106 105 287
f 287 105 288
f 272 152 289
f 289 152 229
f 138 151 139
f 139 151 133
f 183 290 161
f 161 290 162
f 291 292 277
f 277 292 293
f 151 150 133
f 133 150 94
f 262 275 177
f 177 275 187
f 144 187 145
f 145 187 275
f 273 57 284
f 284 57 87
f 174 136 190
f 190 136 135
f 111 117 112
f 112 117 38
f 117 119 38
f 38 119 123
f 112 38 265
f 265 38 37
f 287 288 254
f 254 288 251
f 228 159 231
f 231 159 15
f 223 227 226
f 226 227 214
f 147 67 148
f 148 67 269
f 224 168 281
f 281 168 167
f 199 163 200
f 200 163 162
f 45 46 108
f 108 46 107
f 281 167 48
f 48 167 49
f 161 164 291
f 291 164 292
f 38 123 39
f 293 294 277
f 277 294 248
f 284 283 296
f 296 283 295
f 284 296 273
f 273 296 297
f 274 273 298
f 298 273 297
f 246 274 299
f 299 274 298
f 283 222 295
f 295 222 300
f 222 225 300
f 300 225 301
f 301 225 302
f 302 225 282
f 303 304 300
f 300 304 295
f 306 307 305
f 305 307 308
f 309 310 308
f 308 310 305
f 308 307 312
f 312 307 311
f 313 314 312
f 312 314 315
f 311 316 312
f 312 316 313
f 317 304 311
f 311 304 316
f 315 309 312
f 312 309 308
f 318 319 321
f 321 319 320
f 319 318 309
f 309 318 310
f 311 307 317
f 317 307 306
f 306 297 317
f 317 297 296
f 306 322 297
f 297 322 298
f 305 323 306
f 306 323 322
f 323 305 324
f 324 305 310
f 304 317 295
f 295 317 296
f 318 325 310
f 310 325 324
f 323 324 326
f 326 324 327
f 324 325 327
f 327 325 328
f 326 327 329
f 329 327 330
f 329 331 326
f 326 331 332
f 333 330 328
f 328 330 327
f 323 326 322
f 322 326 332
f 322 332 298
f 298 332 299
f 325 318 334
f 334 318 321
f 313 316 335
f 335 316 304
f 335 336 313
f 313 336 314
f 304 303 335
f 335 303 337
f 336 335 338
f 338 335 337
f 336 339 314
f 314 339 340
f 246 299 238
f 238 299 341
f 239 342 282
f 282 342 302
f 342 239 341
f 341 239 238
f 341 331 342
f 342 331 343
f 331 329 343
f 343 329 344
f 342 343 302
f 302 343 345
f 341 299 331
f 331 299 332
f 346 301 345
f 345 301 302
f 346 303 301
f 301 303 300
f 347 337 346
f 346 337 303
f 347 346 348
f 348 346 345
f 349 347 350
f 350 347 348
f 343 344 345
f 345 344 348
f 344 351 348
f 348 351 350
f 337 347 338
f 338 347 349
f 353 338 352
f 352 338 349
f 352 355 354
f 354 355 356
f 352 349 355
f 355 349 350
f 352 354 353
f 353 354 334
f 353 334 339
f 339 334 321
f 339 336 353
f 353 336 338
f 329 330 344
f 344 330 351
f 356 351 333
f 333 351 330
f 356 355 351
f 351 355 350
f 354 356 328
f 328 356 333
f 328 325 354
f 354 325 334
f 309 315 319
f 319 315 320
f 320 340 321
f 321 340 339
f 320 315 340
f 340 315 314
f 137 136 261
f 261 136 259
f 140 166 141
f 141 166 165
f 172 171 195
f 195 171 196
f 171 174 196
f 196 174 190
f 178 177 264
f 264 177 187
f 172 195 140
f 140 195 166
f 137 261 262
f 262 261 275
f 178 264 141
f 141 264 138
f 262 177 213
f 213 177 176
f 136 174 259
f 259 174 173
f 358 359 357
f 357 359 360
f 362 363 361
f 361 363 364
f 361 364 365
f 365 364 366
f 367 368 370
f 370 368 369
f 76 371 247
f 247 371 372
f 373 374 362
f 362 374 363
f 376 377 375
f 375 377 378
f 289 229 380
f 380 229 379
f 381 379 263
f 263 379 229
f 383 384 382
f 382 384 385
f 386 368 374
f 374 368 363
f 76 289 371
f 371 289 380
f 377 376 359
f 359 376 387
f 388 386 360
f 360 386 374
f 389 383 366
f 366 383 390
f 392 393 391
f 391 393 394
f 383 382 390
f 390 382 395
f 396 365 390
f 390 365 366
f 389 366 367
f 367 366 364
f 357 397 358
f 358 397 398
f 373 399 357
f 357 399 397
f 389 367 400
f 400 367 370
f 382 385 375
f 375 385 372
f 357 360 373
f 373 360 374
f 361 401 362
f 362 401 402
f 387 388 359
f 359 388 360
f 363 368 364
f 364 368 367
f 358 398 403
f 403 398 404
f 396 392 405
f 405 392 391
f 392 395 393
f 393 395 378
f 393 403 394
f 394 403 404
f 375 378 382
f 382 378 395
f 365 396 406
f 406 396 405
f 362 402 373
f 373 402 399
f 271 270 400
f 400 270 384
f 401 361 406
f 406 361 365
f 381 369 386
f 386 369 368
f 392 396 395
f 395 396 390
f 393 378 403
f 403 378 377
f 403 377 358
f 358 377 359
f 406 405 408
f 408 405 407
f 406 408 401
f 401 408 409
f 401 409 402
f 402 409 410
f 402 410 399
f 399 410 411
f 405 391 407
f 407 391 412
f 391 394 412
f 412 394 413
f 394 404 413
f 413 404 414
f 415 416 412
f 412 416 407
f 418 419 417
f 417 419 420
f 421 422 418
f 418 422 419
f 419 422 424
f 424 422 423
f 425 426 424
f 424 426 427
f 423 428 424
f 424 428 425
f 427 420 424
f 424 420 419
f 420 429 417
f 417 429 430
f 423 422 431
f 431 422 421
f 421 409 431
f 431 409 408
f 421 432 409
f 409 432 410
f 418 433 421
f 421 433 432
f 434 433 417
f 417 433 418
f 431 416 423
f 423 416 428
f 416 431 407
f 407 431 408
f 435 434 430
f 430 434 417
f 433 434 436
f 436 434 437
f 434 435 437
f 437 435 438
f 436 437 439
f 439 437 440
f 439 441 436
f 436 441 442
f 438 443 437
f 437 443 440
f 436 442 433
f 433 442 432
f 432 442 410
f 410 442 411
f 435 430 445
f 445 430 444
f 430 429 444
f 444 429 446
f 425 428 447
f 447 428 416
f 426 425 448
f 448 425 447
f 416 415 447
f 447 415 449
f 447 449 448
f 448 449 450
f 451 452 448
f 448 452 426
f 446 452 444
f 444 452 451
f 399 411 397
f 397 411 453
f 398 454 404
f 404 454 414
f 454 398 453
f 453 398 397
f 453 441 454
f 454 441 455
f 441 439 455
f 455 439 456
f 454 455 414
f 414 455 457
f 441 453 442
f 442 453 411
f 458 413 457
f 457 413 414
f 458 415 413
f 413 415 412
f 458 459 415
f 415 459 449
f 459 458 460
f 460 458 457
f 461 459 462
f 462 459 460
f 455 456 457
f 457 456 460
f 456 463 460
f 460 463 462
f 459 461 449
f 449 461 450
f 465 450 464
f 464 450 461
f 464 467 466
f 466 467 468
f 464 461 467
f 467 461 462
f 464 466 465
f 465 466 445
f 465 445 451
f 451 445 444
f 451 448 465
f 465 448 450
f 439 440 456
f 456 440 463
f 468 463 443
f 443 463 440
f 468 467 463
f 463 467 462
f 466 468 438
f 438 468 443
f 438 435 466
f 466 435 445
f 420 427 429
f 429 427 446
f 446 427 452
f 452 427 426
f 370 369 188
f 188 369 186
f 371 376 372
f 372 376 375
f 380 379 387
f 387 379 388
f 379 381 388
f 388 381 386
f 385 384 278
f 278 384 270
f 380 387 371
f 371 387 376
f 400 370 271
f 271 370 188
f 385 278 372
f 372 278 247
f 400 384 389
f 389 384 383
f 369 381 186
f 186 381 263
f 221 271 144
f 144 271 188
f 221 19 207
f 207 19 22
f 19 18 22
f 22 18 23
f 18 219 23
f 23 219 208
f 469 470 472
f 472 470 471
f 474 475 473
f 473 475 476
f 473 476 477
f 477 476 478
f 480 481 479
f 479 481 482
f 483 484 474
f 474 484 475
f 486 487 485
f 485 487 488
f 489 490 77
f 77 490 142
f 491 489 248
f 248 489 77
f 493 494 492
f 492 494 495
f 496 480 484
f 484 480 475
f 486 497 487
f 487 497 471
f 498 496 472
f 472 496 484
f 499 493 478
f 478 493 500
f 501 502 504
f 504 502 503
f 493 492 500
f 500 492 505
f 506 477 500
f 500 477 478
f 499 478 479
f 479 478 476
f 469 507 470
f 470 507 508
f 483 509 469
f 469 509 507
f 479 482 499
f 499 482 510
f 492 495 485
f 485 495 511
f 483 469 484
f 484 469 472
f 473 512 474
f 474 512 513
f 497 498 471
f 471 498 472
f 475 480 476
f 476 480 479
f 470 508 514
f 514 508 515
f 506 502 516
f 516 502 501
f 503 502 488
f 488 502 505
f 514 515 503
f 503 515 504
f 485 488 492
f 492 488 505
f 477 506 517
f 517 506 516
f 474 513 483
f 483 513 509
f 510 292 494
f 494 292 164
f 512 473 517
f 517 473 477
f 491 481 496
f 496 481 480
f 502 506 505
f 505 506 500
f 503 488 514
f 514 488 487
f 514 487 470
f 470 487 471
f 517 516 519
f 519 516 518
f 517 519 512
f 512 519 520
f 512 520 513
f 513 520 521
f 513 521 509
f 509 521 522
f 516 501 518
f 518 501 523
f 501 504 523
f 523 504 524
f 524 504 525
f 525 504 515
f 526 527 523
f 523 527 518
f 529 530 528
f 528 530 531
f 532 533 529
f 529 533 530
f 530 533 535
f 535 533 534
f 536 537 535
f 535 537 538
f 534 539 535
f 535 539 536
f 538 531 535
f 535 531 530
f 540 541 531
f 531 541 528
f 533 532 534
f 534 532 542
f 532 520 542
f 542 520 519
f 532 543 520
f 520 543 521
f 529 544 532
f 532 544 543
f 544 529 545
f 545 529 528
f 534 542 539
f 539 542 527
f 527 542 518
f 518 542 519
f 541 546 528
f 528 546 545
f 547 544 548
f 548 544 545
f 546 549 545
f 545 549 548
f 550 547 551
f 551 547 548
f 547 550 553
f 553 550 552
f 549 554 548
f 548 554 551
f 544 547 543
f 543 547 553
f 543 553 521
f 521 553 522
f 546 541 556
f 556 541 555
f 541 540 555
f 555 540 557
f 536 539 558
f 558 539 527
f 537 536 559
f 559 536 558
f 527 526 558
f 558 526 560
f 559 558 561
f 561 558 560
f 559 562 537
f 537 562 563
f 557 563 555
f 555 563 562
f 509 522 507
f 507 522 564
f 508 565 515
f 515 565 525
f 565 508 564
f 564 508 507
f 564 552 565
f 565 552 566
f 552 550 566
f 566 550 567
f 565 566 525
f 525 566 568
f 564 522 552
f 552 522 553
f 569 524 568
f 568 524 525
f 569 526 524
f 524 526 523
f 570 560 569
f 569 560 526
f 570 569 571
f 571 569 568
f 572 570 573
f 573 570 571
f 566 567 568
f 568 567 571
f 567 574 571
f 571 574 573
f 570 572 560
f 560 572 561
f 576 561 575
f 575 561 572
f 575 578 577
f 577 578 579
f 575 572 578
f 578 572 573
f 575 577 576
f 576 577 556
f 576 556 562
f 562 556 555
f 562 559 576
f 576 559 561
f 550 551 567
f 567 551 574
f 579 574 554
f 554 574 551
f 579 578 574
f 574 578 573
f 579 554 577
f 577 554 549
f 549 546 577
f 577 546 556
f 531 538 540
f 540 538 557
f 557 538 563
f 563 538 537
f 481 294 482
f 482 294 293
f 580 486 511
f 511 486 485
f 490 489 497
f 497 489 498
f 489 491 498
f 498 491 496
f 163 495 164
f 164 495 494
f 580 490 486
f 486 490 497
f 482 293 510
f 510 293 292
f 495 163 511
f 511 163 199
f 494 493 510
f 510 493 499
f 481 491 294
f 294 491 248
f 582 583 581
f 581 583 584
f 586 587 585
f 585 587 588
f 585 588 589
f 589 588 590
f 592 593 591
f 591 593 594
f 595 596 598
f 598 596 597
f 599 600 586
f 586 600 587
f 601 602 604
f 604 602 603
f 605 606 608
f 608 606 607
f 609 607 200
f 200 607 606
f 610 611 613
f 613 611 612
f 600 614 587
f 587 614 592
f 596 605 597
f 597 605 608
f 602 615 603
f 603 615 583
f 616 614 584
f 584 614 600
f 611 618 617
f 617 618 590
f 620 621 619
f 619 621 622
f 610 623 611
f 611 623 618
f 624 589 618
f 618 589 590
f 617 590 591
f 591 590 588
f 581 625 582
f 582 625 626
f 599 627 581
f 581 627 625
f 591 594 617
f 617 594 628
f 601 610 598
f 598 610 613
f 581 584 599
f 599 584 600
f 585 629 586
f 586 629 630
f 615 616 583
f 583 616 584
f 587 592 588
f 588 592 591
f 582 626 631
f 631 626 632
f 624 620 633
f 633 620 619
f 621 620 604
f 604 620 623
f 631 632 621
f 621 632 622
f 610 601 623
f 623 601 604
f 589 624 634
f 634 624 633
f 586 630 599
f 599 630 627
f 203 202 628
f 628 202 612
f 629 585 634
f 634 585 589
f 609 593 614
f 614 593 592
f 620 624 623
f 623 624 618
f 631 621 603
f 603 621 604
f 582 631 583
f 583 631 603
f 634 633 636
f 636 633 635
f 634 636 629
f 629 636 637
f 629 637 630
f 630 637 638
f 630 638 627
f 627 638 639
f 633 619 635
f 635 619 640
f 619 622 640
f 640 622 641
f 641 622 642
f 642 622 632
f 644 635 643
f 643 635 640
f 645 646 648
f 648 646 647
f 649 650 646
f 646 650 647
f 647 650 652
f 652 650 651
f 652 653 655
f 655 653 654
f 651 656 652
f 652 656 653
f 655 648 652
f 652 648 647
f 648 657 645
f 645 657 658
f 650 649 651
f 651 649 659
f 649 637 659
f 659 637 636
f 649 660 637
f 637 660 638
f 661 660 646
f 646 660 649
f 662 661 645
f 645 661 646
f 651 659 656
f 656 659 644
f 644 659 635
f 635 659 636
f 663 662 658
f 658 662 645
f 664 661 665
f 665 661 662
f 663 666 662
f 662 666 665
f 667 664 668
f 668 664 665
f 664 667 670
f 670 667 669
f 666 671 665
f 665 671 668
f 661 664 660
f 660 664 670
f 660 670 638
f 638 670 639
f 658 672 663
f 663 672 673
f 658 657 672
f 672 657 674
f 653 656 675
f 675 656 644
f 653 675 654
f 654 675 676
f 675 644 677
f 677 644 643
f 676 675 678
f 678 675 677
f 679 680 676
f 676 680 654
f 674 680 672
f 672 680 679
f 627 639 625
f 625 639 681
f 626 682 632
f 632 682 642
f 681 682 625
f 625 682 626
f 669 683 681
f 681 683 682
f 667 684 669
f 669 684 683
f 682 683 642
f 642 683 685
f 681 639 669
f 669 639 670
f 686 641 685
f 685 641 642
f 641 686 640
f 640 686 643
f 686 687 643
f 643 687 677
f 687 686 688
f 688 686 685
f 689 687 690
f 690 687 688
f 683 684 685
f 685 684 688
f 684 691 688
f 688 691 690
f 687 689 677
f 677 689 678
f 693 678 692
f 692 678 689
f 692 695 694
f 694 695 696
f 692 689 695
f 695 689 690
f 692 694 693
f 693 694 673
f 693 673 679
f 679 673 672
f 679 676 693
f 693 676 678
f 684 667 691
f 691 667 668
f 696 691 671
f 671 691 668
f 696 695 691
f 691 695 690
f 694 696 666
f 666 696 671
f 666 663 694
f 694 663 673
f 648 655 657
f 657 655 674
f 674 655 680
f 680 655 654
f 593 162 594
f 594 162 290
f 598 597 601
f 601 597 602
f 615 608 616
f 616 608 607
f 607 609 616
f 616 609 614
f 697 595 613
f 613 595 598
f 597 608 602
f 602 608 615
f 594 290 628
f 628 290 203
f 628 612 617
f 617 612 611
f 593 609 162
f 162 609 200
f 105 29 698
f 698 29 699
f 268 126 701
f 701 126 700
f 126 125 700
f 700 125 702
f 252 703 250
f 250 703 704
f 32 268 705
f 705 268 701
f 288 105 706
f 706 105 698
f 29 32 699
f 699 32 705
f 707 251 706
f 706 251 288
f 250 704 125
f 125 704 702
f 703 252 707
f 707 252 251
f 706 708 707
f 707 708 709
f 707 709 703
f 703 709 710
f 703 710 704
f 704 710 711
f 704 711 702
f 702 711 712
f 706 698 708
f 708 698 713
f 698 699 713
f 713 699 714
f 699 705 714
f 714 705 715
f 717 708 716
f 716 708 713
f 719 720 718
f 718 720 721
f 722 723 719
f 719 723 720
f 724 725 723
f 723 725 720
f 724 726 725
f 725 726 727
f 728 721 725
f 725 721 720
f 721 728 729
f 729 728 730
f 729 731 721
f 721 731 718
f 724 723 732
f 732 723 722
f 722 710 732
f 732 710 709
f 722 733 710
f 710 733 711
f 719 734 722
f 722 734 733
f 734 719 735
f 735 719 718
f 724 732 726
f 726 732 717
f 717 732 708
f 708 732 709
f 731 736 718
f 718 736 735
f 737 734 738
f 738 734 735
f 736 739 735
f 735 739 738
f 740 737 741
f 741 737 738
f 737 740 743
f 743 740 742
f 739 744 738
f 738 744 741
f 734 737 733
f 733 737 743
f 733 743 711
f 711 743 712
f 736 731 746
f 746 731 745
f 731 729 745
f 745 729 730
f 727 726 747
f 747 726 717
f 748 727 749
f 749 727 747
f 747 717 750
f 750 717 716
f 749 747 751
f 751 747 750
f 749 752 748
f 748 752 753
f 730 753 745
f 745 753 752
f 728 725 748
f 748 725 727
f 730 728 753
f 753 728 748
f 700 702 754
f 754 702 712
f 705 701 715
f 715 701 755
f 754 755 700
f 700 755 701
f 742 756 754
f 754 756 755
f 740 757 742
f 742 757 756
f 755 756 715
f 715 756 758
f 754 712 742
f 742 712 743
f 759 714 758
f 758 714 715
f 714 759 713
f 713 759 716
f 759 760 716
f 716 760 750
f 760 759 761
f 761 759 758
f 762 760 763
f 763 760 761
f 756 757 758
f 758 757 761
f 757 764 761
f 761 764 763
f 760 762 750
f 750 762 751
f 766 751 765
f 765 751 762
f 767 765 769
f 769 765 768
f 765 762 768
f 768 762 763
f 765 767 766
f 766 767 746
f 766 746 752
f 752 746 745
f 752 749 766
f 766 749 751
f 757 740 764
f 764 740 741
f 769 764 744
f 744 764 741
f 769 768 764
f 764 768 763
f 767 769 739
f 739 769 744
f 739 736 767
f 767 736 746
f 219 217 208
f 208 217 209
f 209 217 210
f 210 217 193
f 198 580 199
f 199 580 511
f 76 75 289
f 289 75 272
f 277 207 291
f 291 207 184
f 290 183 203
f 203 183 84
f 490 580 142
f 142 580 198
f 142 198 143
f 143 198 197
f 149 276 72
f 72 276 73
f 104 103 279
f 279 103 770
f 770 596 279
f 279 596 595
f 605 596 771
f 771 596 770
f 771 770 772
f 772 770 103
f 772 103 773
f 773 103 102
f 155 774 101
f 101 774 102
f 773 102 97
f 97 102 774
f 775 773 100
f 100 773 97
f 773 775 772
f 772 775 776
f 772 776 771
f 771 776 777
f 200 606 197
f 197 606 777
f 189 71 778
f 778 71 74
f 97 774 98
f 98 774 155
f 183 161 184
f 184 161 291
f 777 276 197
f 197 276 143
f 777 606 771
f 771 606 605
f 613 612 697
f 697 612 202
f 595 697 279
f 279 697 202
f 73 276 776
f 776 276 777
f 776 775 73
f 73 775 74
f 100 778 775
f 775 778 74
f 778 100 189
f 189 100 99
f 245 242 99
f 99 242 189
f 131 33 256
f 28 1 95
f 95 1 62
f 27 2 28
f 28 2 1
f 265 115 266
f 266 115 114
f 95 62 69
f 69 62 64
f 62 61 64
f 64 61 65
f 61 13 65
f 65 13 130
f 13 12 130
f 130 12 14
f 31 11 32
f 32 11 268
f 15 12 31
f 31 12 11
f 31 30 15
f 15 30 231
f 30 106 231
f 231 106 232
f 287 237 106
f 106 237 232
f 254 90 287
f 287 90 237
f 253 44 254
f 254 44 90
f 253 249 44
f 44 249 7
f 267 127 268
f 268 127 126
f 10 3 241
f 241 3 116
f 3 2 116
f 116 2 114
f 2 27 114
f 114 27 266
f 27 26 266
f 266 26 113
f 26 286 113
f 113 286 110
f 286 243 110
f 110 243 255
f 243 242 255
f 255 242 256
f 242 245 256
f 256 245 131
f 245 244 131
f 131 244 132
f 265 37 115
f 115 37 41
f 41 37 42
f 42 37 40
f 92 91 40
f 40 91 42
f 236 233 92
f 92 233 91
f 191 194 236
f 236 194 233
f 258 285 244
f 244 285 132
f 257 55 258
f 258 55 285
f 257 154 201
f 201 154 185
f 56 201 204
f 204 201 180
f 55 257 56
f 56 257 201
f 204 85 56
f 56 85 52
f 86 122 53
f 53 122 79
f 212 215 86
f 86 215 122
f 211 216 212
f 212 216 215
f 192 280 211
f 211 280 216
f 191 240 192
f 192 240 280
f 249 124 7
f 7 124 8
f 124 127 8
f 8 127 241
f 127 267 241
f 241 267 10
f 10 267 9
f 9 267 11
o hand_right
v -0.082962 0.036676 0.934087
v -0.090075 0.035416 0.927633
v -0.084100 0.024982 0.928722
v -0.076737 0.027601 0.934866
v -0.103220 0.022264 0.916954
v -0.105476 0.019723 0.905292
v -0.096345 0.008266 0.909618
v -0.095939 0.011325 0.919097
v -0.069932 0.020731 0.933723
v -0.079305 0.017202 0.929312
v -0.064813 0.017960 0.927753
v -0.055288 0.027750 0.932357
v -0.061456 0.026596 0.937619
v -0.049496 0.032919 0.938597
v -0.054360 0.035079 0.923355
v -0.047264 0.042238 0.936557
v -0.065367 0.065316 0.928176
v -0.074433 0.074806 0.932252
v -0.065353 0.073849 0.946144
v -0.057533 0.063629 0.941026
v -0.083640 0.083492 0.948744
v -0.073002 0.078404 0.948094
v -0.081519 0.080205 0.933725
v -0.090740 0.084547 0.935069
v -0.095131 0.049949 0.934018
v -0.102566 0.050380 0.927046
v -0.097246 0.045976 0.926900
v -0.090804 0.045675 0.933182
v -0.065593 0.008287 0.913517
v -0.063939 0.020642 0.911147
v -0.061718 0.020111 0.919353
v -0.066866 0.007402 0.919050
v -0.129094 0.052928 0.913678
v -0.132218 0.056877 0.901090
v -0.128228 0.053502 0.898462
v -0.125832 0.051116 0.910714
v -0.114840 0.036490 0.896286
v -0.117097 0.043581 0.889248
v -0.110073 0.044385 0.876882
v -0.104985 0.039007 0.882617
v -0.110631 0.028023 0.901895
v -0.103748 0.029464 0.889352
v -0.100444 0.021043 0.894856
v -0.092949 0.008771 0.900804
v -0.139117 0.066631 0.905940
v -0.138201 0.064749 0.915900
v -0.039003 0.037471 0.988476
v -0.043939 0.040347 0.990194
v -0.044595 0.040279 0.986909
v -0.039481 0.037481 0.985793
v -0.133997 0.085122 0.912513
v -0.127153 0.091962 0.909475
v -0.132476 0.091852 0.904467
v -0.137912 0.084289 0.906099
v -0.128786 0.086046 0.920995
v -0.119807 0.091281 0.916434
v -0.028646 0.044937 0.990263
v -0.030462 0.040159 0.989479
v -0.029888 0.041612 0.985247
v -0.028656 0.046885 0.985353
v -0.069229 0.029830 0.940498
v -0.077036 0.036461 0.941350
v -0.057907 0.032451 0.956897
v -0.066285 0.035464 0.950205
v -0.061512 0.030879 0.946055
v -0.054171 0.030202 0.951759
v -0.083531 0.052202 0.953502
v -0.090244 0.052519 0.943811
v -0.085052 0.048235 0.943065
v -0.077168 0.046280 0.953264
v -0.101731 0.059478 0.948514
v -0.093948 0.058936 0.957541
v -0.101360 0.062969 0.959213
v -0.106123 0.061883 0.952781
v -0.078091 0.056630 0.971243
v -0.072611 0.057599 0.976317
v -0.075138 0.059415 0.978396
v -0.080963 0.059121 0.972148
v -0.136855 0.092290 0.898899
v -0.140818 0.083265 0.899503
v -0.103456 0.090650 0.953592
v -0.114423 0.088500 0.954009
v -0.109357 0.089754 0.966511
v -0.098857 0.091835 0.962580
v -0.117510 0.093359 0.905735
v -0.123600 0.095446 0.901204
v -0.030435 0.050675 0.991713
v -0.030816 0.052612 0.986856
v -0.091193 0.028668 0.888641
v -0.085329 0.013055 0.895648
v -0.095443 0.039736 0.882694
v -0.098519 0.047489 0.878000
v -0.101973 0.051644 0.871868
v -0.067775 0.039006 0.956001
v -0.083772 0.043245 0.939375
v -0.099203 0.053082 0.935278
v -0.122693 0.066907 0.950028
v -0.128730 0.066308 0.941266
v -0.120242 0.059784 0.940864
v -0.116375 0.062167 0.948437
v -0.120693 0.081754 0.957490
v -0.119838 0.073915 0.959367
v -0.114813 0.075205 0.967315
v -0.115265 0.083034 0.967317
v -0.067153 0.005831 0.906173
v -0.067389 0.020356 0.903808
v -0.138472 0.075632 0.914180
v -0.140152 0.074367 0.906675
v -0.142314 0.075666 0.898588
v -0.115383 0.050522 0.920408
v -0.123621 0.049757 0.908796
v -0.120487 0.046721 0.908254
v -0.112004 0.049389 0.919976
v -0.100107 0.034598 0.923144
v -0.110425 0.033973 0.913844
v -0.094175 0.023357 0.925442
v -0.123845 0.049211 0.893500
v -0.132354 0.054594 0.888985
v -0.126378 0.050187 0.884122
v -0.137876 0.061596 0.893149
v -0.141687 0.068888 0.896699
v -0.127950 0.099332 0.894984
v -0.119562 0.047389 0.879991
v -0.089573 0.004116 0.920023
v -0.084544 -0.002795 0.919845
v -0.078932 0.001124 0.923833
v -0.083474 0.008148 0.925003
v -0.042721 0.036672 0.947020
v -0.047870 0.031149 0.949613
v -0.055230 0.028970 0.940858
v -0.127029 0.055429 0.924760
v -0.134972 0.065199 0.926261
v -0.059068 0.036820 0.961989
v -0.029437 0.047822 0.980243
v -0.030594 0.041897 0.980458
v -0.036130 0.039799 0.963843
v -0.034502 0.046421 0.963577
v -0.054192 0.045445 0.968576
v -0.055668 0.039612 0.966256
v -0.054159 0.042144 0.968466
v -0.054176 0.048091 0.971160
v -0.083430 0.063855 0.978633
v -0.088582 0.063404 0.973075
v -0.051798 0.060199 0.955286
v -0.044207 0.053661 0.945887
v -0.050751 0.053911 0.936493
v -0.089637 0.056313 0.954958
v -0.084170 0.056447 0.964064
v -0.087335 0.058961 0.965304
v -0.067141 0.041636 0.960167
v -0.060765 0.041456 0.965148
v -0.065003 0.044673 0.965047
v -0.071260 0.045727 0.960407
v -0.119616 0.088712 0.941779
v -0.127233 0.080997 0.946053
v -0.034176 0.037407 0.988540
v -0.034029 0.037992 0.985222
v -0.096090 0.056537 0.945424
v -0.059536 0.054703 0.925250
v -0.103674 0.055991 0.936866
v -0.084035 0.082657 0.970707
v -0.088955 0.079074 0.975387
v -0.084917 0.077202 0.980008
v -0.080030 0.080671 0.978185
v -0.048939 0.051335 0.984255
v -0.049340 0.045707 0.985100
v -0.047748 0.045651 0.988045
v -0.046972 0.051540 0.988517
v -0.053221 0.035105 0.963640
v -0.049030 0.032044 0.959487
v -0.046723 0.034547 0.966465
v -0.051063 0.038110 0.968143
v -0.042932 0.034088 0.957880
v -0.040776 0.035543 0.964635
v -0.044677 0.056193 0.983065
v -0.037242 0.057278 0.981768
v -0.042902 0.056574 0.966778
v -0.049247 0.054207 0.970952
v -0.096990 0.086432 0.921486
v -0.106842 0.090206 0.925184
v -0.100817 0.088583 0.938818
v -0.094785 0.088245 0.952110
v -0.088792 0.086489 0.964431
v -0.077723 0.083775 0.960092
v -0.108612 0.090656 0.940220
v -0.052389 0.052260 0.967523
v -0.046813 0.054956 0.958882
v -0.050547 0.056903 0.963098
v -0.109900 0.058448 0.940235
v -0.034507 0.038014 0.981182
v -0.092659 0.068863 0.881329
v -0.097277 0.080019 0.886601
v -0.092110 0.076719 0.892904
v -0.087599 0.063803 0.887304
v -0.045935 0.039732 0.984402
v -0.040569 0.036529 0.982739
v -0.092976 0.067281 0.976391
v -0.087258 0.067666 0.980613
v -0.087172 0.071242 0.982348
v -0.094513 0.070914 0.980725
v -0.112668 0.091328 0.925876
v -0.105820 0.088365 0.974901
v -0.096907 0.090847 0.970823
v -0.111759 0.091460 0.913100
v -0.102975 0.088767 0.909641
v -0.107757 0.090736 0.901361
v -0.065246 0.074789 0.962583
v -0.089199 0.082615 0.920703
v -0.096487 0.084836 0.908334
v -0.101900 0.087004 0.898362
v -0.105950 0.089442 0.891449
v -0.112045 0.093151 0.895467
v -0.032329 0.053581 0.981187
v -0.035937 0.057066 0.988317
v -0.116311 0.097417 0.888634
v -0.109601 0.092483 0.884461
v -0.089535 0.079216 0.906021
v -0.082162 0.071152 0.903212
v -0.082899 0.077114 0.918163
v -0.074773 0.069049 0.916351
v -0.057581 0.072445 0.955502
v -0.040169 0.051091 1.004686
v -0.041476 0.054840 0.994214
v -0.045756 0.051003 0.993122
v -0.044216 0.049634 1.004051
v -0.042906 0.055942 0.988611
v -0.035705 0.054938 0.993254
v -0.068489 0.055707 0.912253
v -0.059072 0.045764 0.970139
v -0.078073 0.054881 0.897657
v -0.061052 0.038212 0.910977
v -0.070433 0.036681 0.900784
v -0.087985 0.051994 0.883148
v -0.081913 0.038664 0.888741
v -0.097057 0.061173 0.872448
v -0.092325 0.057922 0.878622
v -0.077751 0.024276 0.893944
v -0.041665 0.036219 0.998351
v -0.045935 0.040116 0.999291
v -0.096806 0.071991 0.874889
v -0.088162 0.014889 0.925694
v -0.115651 0.055733 0.931385
v -0.110510 0.054129 0.929338
v -0.131531 0.065853 0.935480
v -0.123111 0.057830 0.933662
v -0.036314 0.035341 0.998327
v -0.068732 0.061653 0.978678
v -0.070508 0.061970 0.977824
v -0.091590 0.001177 0.911793
v -0.087308 -0.004425 0.912783
v -0.078787 -0.003406 0.902610
v -0.084548 -0.005337 0.906472
v -0.088734 0.001306 0.903523
v -0.082707 0.003948 0.899168
v -0.117941 0.051350 0.921310
v -0.121137 0.052932 0.923104
v -0.124815 0.087372 0.930896
v -0.131767 0.079410 0.935608
v -0.039177 0.039117 0.956162
v -0.040861 0.044887 0.946979
v -0.038041 0.046020 0.955836
v -0.037529 0.052668 0.962888
v -0.054694 0.049058 0.971308
v -0.051416 0.051048 0.966366
v -0.115506 0.040799 0.911237
v -0.106273 0.044248 0.920983
v -0.075773 0.011625 0.926924
v -0.072050 0.005144 0.924164
v -0.077708 0.050822 0.960547
v -0.059826 0.070870 0.970964
v -0.053330 0.068853 0.965890
v -0.071281 0.050634 0.967396
v -0.030546 0.040670 1.001400
v -0.032976 0.036758 0.999578
v -0.040362 0.052211 0.955221
v -0.094764 0.062543 0.967557
v -0.067106 0.072457 0.969487
v -0.064467 0.067894 0.976013
v -0.112184 0.082504 0.973142
v -0.101953 0.082569 0.879433
v -0.047299 0.045517 0.992212
v -0.047551 0.044787 1.000760
v -0.035924 0.050688 1.003895
v -0.031367 0.046887 1.002193
v -0.134900 0.076542 0.925523
v -0.106838 0.052876 0.928413
v -0.075277 0.012183 0.897711
v -0.072605 0.001272 0.902249
v -0.067034 0.051011 0.971856
v -0.090732 0.085214 0.971723
v -0.074551 0.081931 0.968749
v -0.071142 0.080036 0.976865
v -0.066627 0.073873 0.977473
v -0.066736 0.066692 0.979515
v -0.036972 0.048178 1.009178
v -0.032705 0.044504 1.007456
v -0.031960 0.038460 1.006116
v -0.034080 0.035103 1.004035
v -0.037814 0.034365 1.001909
v -0.041302 0.048712 1.010239
v -0.044875 0.047372 1.009401
v -0.047808 0.044115 1.004635
v -0.043263 0.046091 1.014181
v -0.039037 0.043777 1.016580
v -0.037582 0.029957 1.016171
v -0.034606 0.034187 1.013320
v -0.035445 0.034438 1.015911
v -0.037896 0.031417 1.019071
v -0.040276 0.029492 1.023272
v -0.040156 0.027305 1.020486
v -0.035737 0.039114 1.015743
v -0.039141 0.035636 1.020456
v -0.041794 0.038850 1.021257
v -0.043826 0.035901 1.025501
v -0.041381 0.033032 1.025077
v -0.039046 0.041103 1.018209
v -0.034633 0.040557 1.014179
v -0.042768 0.027109 1.024319
v -0.041715 0.028905 1.025752
v -0.043161 0.031554 1.027136
v -0.045550 0.029698 1.027649
v -0.035919 0.032626 1.007698
v -0.039011 0.028587 1.014400
v -0.042853 0.026876 1.018798
v -0.045167 0.026787 1.022806
v -0.043106 0.028545 1.013609
v -0.045507 0.027657 1.017727
v -0.047783 0.027947 1.021076
v -0.047102 0.030145 1.013593
v -0.048264 0.029301 1.017511
v -0.042918 0.034810 1.003953
v -0.038950 0.033192 1.003957
v -0.049387 0.028739 1.019821
v -0.047591 0.029592 1.026727
v -0.043930 0.041591 1.019897
v -0.046703 0.037006 1.024530
v -0.046156 0.041979 1.018965
v -0.048869 0.037761 1.023810
v -0.047464 0.034179 1.027881
v -0.044957 0.033905 1.027310
v -0.042473 0.036268 1.000805
v -0.046712 0.040478 1.002147
v -0.047123 0.039342 1.005032
v -0.050339 0.033715 1.014255
v -0.048502 0.042611 1.007748
v -0.046721 0.044807 1.012991
v -0.048833 0.040727 1.018257
v -0.050721 0.038372 1.016497
v -0.050509 0.037071 1.021897
v -0.051126 0.035377 1.020056
v -0.050756 0.031930 1.018295
v -0.050861 0.033598 1.024063
v -0.049278 0.034138 1.026544
v -0.049563 0.030030 1.023955
v -0.051367 0.033413 1.022151
v -0.050160 0.030721 1.021421
v -0.056352 0.049091 1.005162
v -0.061199 0.053184 1.006361
v -0.059118 0.054334 1.002329
v -0.055048 0.050876 1.001557
v -0.044112 0.055660 1.008461
v -0.047544 0.050577 1.006832
v -0.045136 0.052937 1.002439
v -0.042682 0.059224 1.003680
v -0.045763 0.062408 1.009808
v -0.045044 0.065612 1.004452
v -0.042277 0.060402 0.997953
v -0.045224 0.053807 0.997015
v -0.050242 0.054095 0.976084
v -0.047194 0.060599 0.976215
v -0.067269 0.057091 0.980274
v -0.066307 0.060960 0.981390
v -0.052290 0.048637 1.005612
v -0.050208 0.050558 1.001717
v -0.063070 0.062223 1.000162
v -0.063038 0.056773 0.999502
v -0.062341 0.057880 1.003448
v -0.061668 0.063179 1.005041
v -0.058065 0.050063 0.976489
v -0.063341 0.053164 0.977685
v -0.054164 0.051031 0.976528
v -0.059339 0.067871 1.000675
v -0.052975 0.070675 1.000321
v -0.055910 0.071212 0.980437
v -0.061749 0.068674 0.982241
v -0.049739 0.050447 0.997093
v -0.059646 0.052212 0.998891
v -0.055304 0.049572 0.997716
v -0.045851 0.067006 0.998419
v -0.052104 0.069093 1.006685
v -0.060086 0.059618 1.022411
v -0.058657 0.065203 1.011920
v -0.062354 0.061839 1.010284
v -0.064410 0.057235 1.021472
v -0.058074 0.067424 1.006559
v -0.052697 0.065848 1.011773
v -0.061627 0.044243 1.017773
v -0.066213 0.048535 1.018834
v -0.057203 0.043068 1.018121
v -0.049594 0.067862 0.977567
v -0.048967 0.049427 1.019439
v -0.053122 0.044358 1.018314
v -0.063759 0.057550 1.007821
v -0.067034 0.053207 1.020465
v -0.055527 0.059525 1.022439
v -0.049577 0.056097 1.020320
v -0.056150 0.056100 1.027264
v -0.051290 0.052693 1.025495
v -0.050497 0.046444 1.023911
v -0.054315 0.042672 1.021860
v -0.058197 0.042098 1.020829
v -0.060440 0.056395 1.027594
v -0.064860 0.054795 1.026533
v -0.067107 0.051569 1.023324
v -0.063999 0.051671 1.032624
v -0.059731 0.050383 1.034056
v -0.060342 0.032124 1.035883
v -0.057353 0.036040 1.032364
v -0.057213 0.037538 1.034524
v -0.060004 0.034097 1.037891
v -0.053738 0.040856 1.030518
v -0.054936 0.041123 1.032701
v -0.056153 0.045476 1.033870
v -0.059535 0.041164 1.036751
v -0.062590 0.044867 1.037466
v -0.064947 0.041300 1.041429
v -0.061806 0.037609 1.041077
v -0.059282 0.047141 1.035447
v -0.062163 0.032658 1.040477
v -0.063966 0.030834 1.040088
v -0.054194 0.047415 1.032416
v -0.054930 0.040335 1.024746
v -0.059196 0.034623 1.030267
v -0.063083 0.031044 1.034357
v -0.066940 0.030762 1.039286
v -0.063218 0.034396 1.028967
v -0.066208 0.031511 1.033537
v -0.069000 0.031821 1.037807
v -0.067711 0.035897 1.028523
v -0.070002 0.033407 1.033417
v -0.063180 0.042524 1.021233
v -0.058902 0.040280 1.021953
v -0.070301 0.032949 1.036085
v -0.065817 0.033619 1.043608
v -0.068870 0.033003 1.042247
v -0.064344 0.034674 1.043144
v -0.064349 0.046093 1.037329
v -0.067187 0.041578 1.041090
v -0.067096 0.046580 1.036631
v -0.069603 0.041280 1.040754
v -0.068145 0.037755 1.043798
v -0.066417 0.037564 1.043828
v -0.062108 0.044138 1.020353
v -0.066070 0.048044 1.021333
v -0.066969 0.046610 1.022293
v -0.070939 0.039865 1.029987
v -0.068080 0.050247 1.025150
v -0.066852 0.051443 1.030116
v -0.069439 0.046336 1.034964
v -0.071462 0.043717 1.032668
v -0.071588 0.041525 1.039799
v -0.072471 0.040794 1.036717
v -0.072346 0.036675 1.034208
v -0.071865 0.037378 1.042087
v -0.069873 0.037461 1.043421
v -0.070350 0.033451 1.040590
v -0.072784 0.037732 1.039221
v -0.071743 0.034499 1.037834
v -0.071654 0.057511 1.004591
v -0.076637 0.060405 1.005289
v -0.076332 0.061571 1.001893
v -0.071287 0.058969 1.001320
v -0.061762 0.065134 1.008062
v -0.063300 0.060500 1.006949
v -0.062436 0.062348 1.002811
v -0.060666 0.067583 1.002707
v -0.064039 0.069470 1.011044
v -0.062836 0.073252 1.004075
v -0.060399 0.069571 0.997369
v -0.062274 0.063725 0.998516
v -0.065858 0.066051 0.983844
v -0.064047 0.072587 0.983762
v -0.067155 0.058139 1.005524
v -0.066646 0.059520 1.002118
v -0.080238 0.069338 1.001611
v -0.079743 0.064710 1.000516
v -0.079099 0.065826 1.003674
v -0.078749 0.069882 1.005270
v -0.075281 0.060911 0.982463
v -0.080281 0.064530 0.982608
v -0.070298 0.061946 0.983849
v -0.076568 0.074945 1.002291
v -0.070082 0.078223 1.000866
v -0.075401 0.080158 0.987072
v -0.080575 0.076721 0.987144
v -0.066268 0.060227 0.998708
v -0.076787 0.060611 0.998822
v -0.071542 0.058488 0.998461
v -0.063723 0.074991 0.998248
v -0.069126 0.076006 1.006518
v -0.075921 0.065147 1.025263
v -0.075032 0.072809 1.010869
v -0.078923 0.068671 1.008860
v -0.079669 0.063090 1.023842
v -0.075347 0.074300 1.007103
v -0.069301 0.073408 1.011593
v -0.075156 0.051328 1.018108
v -0.079400 0.054797 1.018866
v -0.070676 0.051970 1.017761
v -0.067514 0.078794 0.984859
v -0.083468 0.070815 0.985253
v -0.065407 0.056469 1.021026
v -0.067681 0.053315 1.018896
v -0.079219 0.064813 1.006907
v -0.081319 0.059508 1.021384
v -0.070997 0.065465 1.024878
v -0.066005 0.062252 1.022753
v -0.072543 0.062263 1.029335
v -0.067576 0.058982 1.027148
v -0.066549 0.053512 1.025021
v -0.069022 0.050714 1.022293
v -0.072056 0.049652 1.020839
v -0.077566 0.061857 1.029276
v -0.080746 0.060086 1.027542
v -0.081285 0.058041 1.022806
v -0.079625 0.058864 1.032132
v -0.074859 0.057356 1.034433
v -0.075521 0.040390 1.036846
v -0.073004 0.044220 1.033096
v -0.073114 0.045069 1.033993
v -0.075297 0.041473 1.038198
v -0.069450 0.049431 1.030523
v -0.070510 0.049106 1.032177
v -0.071378 0.052655 1.033659
v -0.074431 0.048577 1.037747
v -0.078991 0.052554 1.037788
v -0.080640 0.048596 1.041024
v -0.076503 0.044836 1.041464
v -0.074844 0.055209 1.035090
v -0.077031 0.040201 1.040721
v -0.076849 0.038292 1.040365
v -0.070081 0.054489 1.032428
v -0.070401 0.047371 1.026157
v -0.073956 0.042545 1.030820
v -0.076588 0.038511 1.034455
v -0.079364 0.037377 1.037809
v -0.077149 0.042278 1.028693
v -0.079174 0.039065 1.032662
v -0.081573 0.038054 1.035772
v -0.080253 0.043245 1.027891
v -0.081892 0.040612 1.031711
v -0.076585 0.049222 1.021414
v -0.073179 0.047544 1.023093
v -0.082930 0.039498 1.034523
v -0.079660 0.040831 1.043328
v -0.083191 0.039935 1.041127
v -0.078678 0.042109 1.042643
v -0.080252 0.053834 1.037266
v -0.082975 0.049002 1.041271
v -0.082691 0.054076 1.035782
v -0.085244 0.049187 1.039745
v -0.082638 0.045137 1.043451
v -0.081448 0.045275 1.043152
v -0.075785 0.050793 1.019884
v -0.079592 0.054160 1.020462
v -0.080207 0.052506 1.021786
v -0.084093 0.045971 1.028668
v -0.082152 0.056202 1.024140
v -0.082426 0.057162 1.030157
v -0.084598 0.052501 1.033559
v -0.085575 0.049586 1.031234
v -0.086518 0.048269 1.037396
v -0.086342 0.047121 1.034757
v -0.085260 0.043011 1.032254
v -0.086034 0.044464 1.039152
v -0.084950 0.044915 1.041927
v -0.084659 0.040173 1.038273
v -0.086416 0.044149 1.036653
v -0.085251 0.040976 1.035895
v -0.083202 0.067605 0.983726
v -0.094609 0.062723 1.001169
v -0.098408 0.064498 1.001622
v -0.098179 0.065729 1.000430
v -0.094618 0.063794 0.998867
v -0.086042 0.070181 1.003466
v -0.087586 0.065747 1.002498
v -0.086343 0.067679 0.998902
v -0.084977 0.072002 0.999859
v -0.088205 0.074670 1.004932
v -0.087859 0.076252 1.001752
v -0.085683 0.073710 0.996206
v -0.086956 0.069261 0.994776
v -0.089875 0.076638 0.979143
v -0.089981 0.082236 0.978979
v -0.109053 0.080815 0.978486
v -0.109001 0.075523 0.976749
v -0.106322 0.074341 0.984841
v -0.106875 0.079047 0.985792
v -0.090800 0.063403 1.001601
v -0.090164 0.064433 0.998129
v -0.102069 0.074781 1.001264
v -0.101839 0.070133 0.999669
v -0.101041 0.068551 1.001522
v -0.102087 0.072639 1.003495
v -0.104963 0.071940 0.976959
v -0.100335 0.070768 0.977496
v -0.099254 0.069864 0.981029
v -0.103011 0.070894 0.983999
v -0.093842 0.070966 0.980919
v -0.099433 0.078253 1.001765
v -0.093875 0.080372 1.000980
v -0.101564 0.087342 0.984149
v -0.105253 0.084015 0.984774
v -0.090121 0.065907 0.995641
v -0.099081 0.066850 0.997715
v -0.095301 0.064987 0.997056
v -0.088167 0.078326 0.998650
v -0.093746 0.078145 1.003872
v -0.100522 0.071113 1.013414
v -0.099916 0.075327 1.006309
v -0.102603 0.071406 1.004791
v -0.102539 0.068946 1.012159
v -0.099337 0.076182 1.004611
v -0.094278 0.076560 1.006914
v -0.096374 0.059281 1.007418
v -0.100740 0.062300 1.008196
v -0.093015 0.059478 1.007768
v -0.094105 0.086825 0.980979
v -0.088546 0.064841 1.010770
v -0.090230 0.060933 1.009299
v -0.101246 0.067296 1.003041
v -0.102850 0.065751 1.010084
v -0.095982 0.071975 1.014036
v -0.090229 0.070077 1.012495
v -0.096557 0.068789 1.017510
v -0.090860 0.066860 1.015446
v -0.089573 0.061562 1.012995
v -0.091342 0.059118 1.010536
v -0.093981 0.057974 1.009039
v -0.101068 0.068201 1.016691
v -0.102946 0.066521 1.014949
v -0.103151 0.064148 1.011947
v -0.101615 0.065082 1.019597
v -0.097264 0.063936 1.021360
v -0.095546 0.050444 1.021226
v -0.094015 0.053258 1.018503
v -0.093935 0.054064 1.019461
v -0.094937 0.050887 1.022080
v -0.091695 0.057799 1.016498
v -0.092361 0.057769 1.018085
v -0.093186 0.061090 1.019263
v -0.094738 0.057052 1.022516
v -0.099162 0.059433 1.024469
v -0.099822 0.055933 1.026892
v -0.095648 0.054279 1.025199
v -0.096329 0.062240 1.021978
v -0.095572 0.049692 1.024575
v -0.096083 0.048376 1.024575
v -0.092289 0.062579 1.018448
v -0.092735 0.056249 1.012739
v -0.095113 0.051447 1.017084
v -0.096744 0.048385 1.020908
v -0.098255 0.047532 1.024364
v -0.097001 0.051525 1.015233
v -0.098753 0.047873 1.019729
v -0.100278 0.047256 1.023084
v -0.100131 0.052317 1.014150
v -0.101053 0.048981 1.018881
v -0.098740 0.057065 1.009628
v -0.095419 0.055936 1.010684
v -0.101376 0.048209 1.021975
v -0.097706 0.050235 1.027669
v -0.100257 0.048974 1.026640
v -0.096839 0.051590 1.027536
v -0.100491 0.060035 1.024349
v -0.101475 0.055778 1.027211
v -0.102865 0.060194 1.023354
v -0.103382 0.055104 1.026286
v -0.100509 0.052504 1.028467
v -0.098911 0.053454 1.027968
v -0.097916 0.058244 1.008700
v -0.101063 0.060972 1.009571
v -0.102063 0.059709 1.010927
v -0.103389 0.054631 1.015102
v -0.103919 0.062667 1.013669
v -0.103493 0.064505 1.017082
v -0.104490 0.059230 1.021276
v -0.105116 0.057313 1.018430
v -0.104534 0.053942 1.024736
v -0.104991 0.052705 1.021916
v -0.103790 0.050742 1.019523
v -0.103013 0.050539 1.025788
v -0.102157 0.051148 1.027415
v -0.101739 0.048745 1.025103
v -0.103643 0.050222 1.023902
v -0.102791 0.049177 1.022960
v -0.106847 0.083964 0.979992
v -0.063584 -0.007494 0.911094
v -0.062875 -0.005318 0.916379
v -0.075441 -0.011599 0.924633
v -0.069191 -0.008341 0.925111
v -0.079352 -0.015249 0.920398
v -0.078206 -0.016498 0.909589
v -0.080513 -0.015909 0.914684
v -0.064680 -0.005991 0.921995
v -0.066943 -0.010307 0.906654
v -0.073157 -0.014030 0.905472
v -0.061199 -0.016777 0.908340
v -0.067992 -0.021113 0.907428
v -0.073230 -0.024046 0.911054
v -0.076721 -0.021999 0.917128
v -0.076958 -0.020187 0.921915
v -0.059720 -0.012009 0.913894
v -0.059957 -0.009723 0.918977
v -0.063631 -0.009690 0.924520
v -0.055583 -0.016336 0.919256
v -0.054307 -0.026128 0.920940
v -0.062322 -0.041152 0.930501
v -0.065903 -0.036546 0.926854
v -0.063259 -0.036686 0.925687
v -0.060340 -0.041228 0.928701
v -0.066281 -0.033381 0.922114
v -0.063930 -0.033609 0.922694
v -0.059893 -0.030664 0.920763
v -0.057344 -0.034781 0.923863
v -0.055425 -0.028412 0.922200
v -0.053158 -0.030347 0.925208
v -0.054634 -0.038723 0.926832
v -0.057012 -0.043373 0.929522
v -0.052522 -0.041959 0.929617
v -0.057940 -0.043567 0.932608
v -0.059570 -0.031103 0.917878
v -0.072224 -0.029536 0.921988
v -0.068708 -0.034643 0.928435
v -0.064076 -0.039209 0.933237
v -0.058659 -0.041809 0.935301
v -0.069589 -0.031473 0.931485
v -0.064403 -0.035303 0.935359
v -0.059062 -0.037115 0.937077
v -0.067799 -0.027521 0.933875
v -0.062746 -0.031770 0.936403
v -0.073083 -0.018487 0.927344
v -0.075051 -0.024158 0.924728
v -0.059248 -0.034230 0.937020
v -0.051742 -0.042566 0.932353
v -0.052521 -0.040440 0.935295
v -0.051658 -0.027270 0.925802
v -0.050234 -0.034187 0.927622
v -0.049396 -0.031849 0.929454
v -0.051878 -0.023447 0.927223
v -0.049536 -0.029739 0.931476
v -0.048676 -0.037185 0.931506
v -0.049904 -0.038107 0.929043
v -0.074544 -0.015807 0.925724
v -0.069433 -0.011642 0.926346
v -0.068003 -0.014016 0.927726
v -0.063127 -0.022628 0.934125
v -0.062027 -0.012296 0.926890
v -0.057288 -0.013518 0.923093
v -0.053439 -0.021193 0.929888
v -0.057505 -0.020449 0.932498
v -0.051844 -0.028094 0.933822
v -0.054641 -0.027590 0.935082
v -0.059085 -0.029179 0.936660
v -0.051820 -0.033081 0.935644
v -0.049297 -0.035054 0.933923
v -0.054421 -0.036420 0.936927
v -0.054041 -0.031357 0.935983
v -0.056353 -0.033245 0.936928
v -0.111758 0.075182 0.971620
v -0.107246 0.070280 0.971235
v -0.111534 0.070146 0.966205
v -0.117061 0.068424 0.958535
v -0.124415 0.072566 0.951932
v -0.111739 0.064533 0.956198
v -0.106398 0.066336 0.964351
v -0.100038 0.066924 0.971450
v -0.110473 0.060814 0.946545
f 780 781 779
f 779 781 782
f 783 784 786
f 786 784 785
f 787 782 788
f 788 782 781
f 790 791 789
f 789 791 787
f 792 790 794
f 794 790 793
f 796 797 795
f 795 797 798
f 800 801 799
f 799 801 802
f 804 805 803
f 803 805 806
f 808 809 807
f 807 809 810
f 811 812 814
f 814 812 813
f 815 816 818
f 818 816 817
f 819 820 784
f 784 820 821
f 784 821 785
f 785 821 822
f 823 812 824
f 824 812 811
f 826 827 825
f 825 827 828
f 830 831 829
f 829 831 832
f 834 830 833
f 833 830 829
f 836 837 835
f 835 837 838
f 839 840 782
f 782 840 779
f 842 843 841
f 841 843 844
f 846 847 845
f 845 847 848
f 850 851 849
f 849 851 852
f 854 855 853
f 853 855 856
f 831 857 832
f 832 857 858
f 860 861 859
f 859 861 862
f 863 864 830
f 830 864 831
f 835 838 865
f 865 838 866
f 867 868 821
f 821 868 822
f 821 820 867
f 867 820 869
f 818 817 870
f 870 817 871
f 872 848 842
f 842 848 847
f 791 839 787
f 787 839 782
f 803 806 847
f 847 806 873
f 874 803 846
f 846 803 847
f 876 877 875
f 875 877 878
f 879 880 882
f 882 880 881
f 884 808 883
f 883 808 807
f 829 832 885
f 885 832 886
f 832 858 886
f 886 858 887
f 889 890 888
f 888 890 891
f 893 783 892
f 892 783 894
f 893 819 783
f 783 819 784
f 814 813 889
f 889 813 895
f 813 896 895
f 895 896 897
f 812 898 813
f 813 898 896
f 812 823 898
f 898 823 899
f 903 904 902
f 902 904 905
f 906 907 792
f 792 907 908
f 811 909 824
f 824 909 910
f 911 872 841
f 841 872 842
f 912 913 915
f 915 913 914
f 917 918 916
f 916 918 919
f 855 920 856
f 856 920 921
f 922 923 798
f 798 923 924
f 926 927 925
f 925 927 850
f 929 930 928
f 928 930 931
f 860 879 861
f 861 879 882
f 879 860 933
f 933 860 932
f 934 935 836
f 836 935 837
f 936 846 925
f 925 846 845
f 937 924 793
f 793 924 794
f 846 936 874
f 874 936 938
f 907 844 908
f 908 844 843
f 940 941 939
f 939 941 942
f 944 945 943
f 943 945 946
f 948 949 947
f 947 949 950
f 952 949 951
f 951 949 948
f 954 955 953
f 953 955 956
f 958 959 957
f 957 959 802
f 960 961 799
f 799 961 962
f 859 963 860
f 860 963 932
f 964 965 966
f 966 965 922
f 936 849 938
f 938 849 967
f 968 913 935
f 935 913 837
f 947 950 917
f 917 950 918
f 925 850 936
f 936 850 849
f 970 971 969
f 969 971 972
f 945 944 827
f 827 944 973
f 974 968 828
f 828 968 935
f 975 976 978
f 978 976 977
f 799 802 960
f 960 802 959
f 924 937 798
f 798 937 795
f 960 959 859
f 859 959 963
f 979 963 958
f 958 963 959
f 980 981 861
f 861 981 862
f 983 984 982
f 982 984 863
f 985 800 962
f 962 800 799
f 957 802 986
f 986 802 801
f 986 987 957
f 957 987 983
f 987 988 983
f 983 988 984
f 990 984 989
f 989 984 988
f 957 983 958
f 958 983 982
f 991 954 866
f 866 954 992
f 864 863 990
f 990 863 984
f 971 995 996
f 995 997 996
f 996 997 998
f 997 796 998
f 998 796 795
f 797 999 798
f 798 999 922
f 1000 1001 1003
f 1003 1001 1002
f 953 1004 954
f 954 1004 992
f 1005 865 992
f 992 865 866
f 998 795 1006
f 1006 795 937
f 912 991 838
f 838 991 866
f 916 1007 929
f 929 1007 930
f 971 970 988
f 988 970 989
f 1008 972 996
f 996 972 971
f 1009 1010 1006
f 1006 1010 1008
f 1011 1012 869
f 869 1012 867
f 1013 1014 871
f 871 1014 870
f 1008 1010 1012
f 1012 1010 1015
f 825 1016 826
f 826 1016 1017
f 1018 969 1013
f 1013 969 1014
f 783 786 894
f 894 786 1019
f 1020 1021 967
f 967 1021 938
f 1022 1023 876
f 876 1023 877
f 934 1024 825
f 825 1024 1016
f 854 1025 855
f 855 1025 1026
f 1028 903 1027
f 1027 903 902
f 1030 1031 1029
f 1029 1031 1032
f 889 888 814
f 814 888 1033
f 1034 811 1033
f 1033 811 814
f 1035 1036 932
f 932 1036 933
f 841 947 911
f 911 947 917
f 844 948 841
f 841 948 947
f 951 948 907
f 907 948 844
f 907 906 951
f 951 906 1037
f 906 1038 1037
f 1037 1038 1039
f 991 912 1040
f 1040 912 915
f 1041 1042 964
f 964 1042 965
f 890 1043 891
f 891 1043 1044
f 789 1045 1046
f 1012 1011 1008
f 1008 1011 972
f 931 1047 848
f 848 1047 845
f 953 956 943
f 943 956 919
f 928 931 872
f 872 931 848
f 1049 999 1048
f 1048 999 985
f 1047 931 1050
f 1050 931 930
f 899 823 887
f 887 823 886
f 825 828 934
f 934 828 935
f 835 1051 836
f 836 1051 1052
f 923 1053 1038
f 1038 1053 1039
f 1054 927 921
f 921 927 856
f 926 1047 853
f 853 1047 1050
f 985 1055 1048
f 1048 1055 1056
f 973 974 827
f 827 974 828
f 837 913 838
f 838 913 912
f 861 882 980
f 980 882 1057
f 927 926 856
f 856 926 853
f 1025 1056 1026
f 1026 1056 1055
f 961 960 862
f 862 960 859
f 826 1017 1059
f 1059 1017 1060
f 1005 1001 1061
f 1061 1001 1000
f 1001 1004 1002
f 1002 1004 946
f 1059 1060 1002
f 1002 1060 1003
f 943 946 953
f 953 946 1004
f 1042 1041 916
f 916 1041 1007
f 792 794 906
f 906 794 1038
f 998 1006 996
f 996 1006 1008
f 865 1005 1062
f 1062 1005 1061
f 1038 794 923
f 923 794 924
f 1022 876 1036
f 1036 876 933
f 836 1052 934
f 934 1052 1024
f 885 1063 829
f 829 1063 833
f 1021 1064 938
f 938 1064 874
f 1012 1015 867
f 867 1015 868
f 824 910 885
f 885 910 1063
f 1031 1030 1027
f 1027 1030 1028
f 1064 804 874
f 874 804 803
f 884 883 1065
f 1065 883 1066
f 1050 930 1067
f 1067 930 1007
f 916 929 917
f 917 929 911
f 961 1068 939
f 939 1068 940
f 1069 1070 1055
f 1055 1070 1071
f 929 928 911
f 911 928 872
f 1040 1053 955
f 955 1053 965
f 922 965 923
f 923 965 1053
f 1051 835 1062
f 1062 835 865
f 952 914 968
f 968 914 913
f 889 895 890
f 890 895 816
f 895 897 816
f 816 897 901
f 890 816 1043
f 1043 816 815
f 1065 1066 1032
f 1032 1066 1029
f 1006 937 1009
f 1009 937 793
f 1001 1005 1004
f 1004 1005 992
f 925 845 926
f 926 845 1047
f 1002 946 1059
f 1059 946 945
f 977 941 978
f 978 941 940
f 823 824 886
f 886 824 885
f 1059 945 826
f 826 945 827
f 939 942 1069
f 1069 942 1070
f 816 901 817
f 1071 1072 1055
f 1055 1072 1026
f 1062 1061 1074
f 1074 1061 1073
f 1062 1074 1051
f 1051 1074 1075
f 1052 1051 1076
f 1076 1051 1075
f 1024 1052 1077
f 1077 1052 1076
f 1061 1000 1073
f 1073 1000 1078
f 1000 1003 1078
f 1078 1003 1079
f 1079 1003 1080
f 1080 1003 1060
f 1081 1082 1078
f 1078 1082 1073
f 1084 1085 1083
f 1083 1085 1086
f 1087 1088 1086
f 1086 1088 1083
f 1086 1085 1090
f 1090 1085 1089
f 1091 1092 1090
f 1090 1092 1093
f 1089 1094 1090
f 1090 1094 1091
f 1095 1082 1089
f 1089 1082 1094
f 1093 1087 1090
f 1090 1087 1086
f 1096 1097 1099
f 1099 1097 1098
f 1097 1096 1087
f 1087 1096 1088
f 1089 1085 1095
f 1095 1085 1084
f 1084 1075 1095
f 1095 1075 1074
f 1084 1100 1075
f 1075 1100 1076
f 1083 1101 1084
f 1084 1101 1100
f 1101 1083 1102
f 1102 1083 1088
f 1082 1095 1073
f 1073 1095 1074
f 1096 1103 1088
f 1088 1103 1102
f 1101 1102 1104
f 1104 1102 1105
f 1102 1103 1105
f 1105 1103 1106
f 1104 1105 1107
f 1107 1105 1108
f 1107 1109 1104
f 1104 1109 1110
f 1111 1108 1106
f 1106 1108 1105
f 1101 1104 1100
f 1100 1104 1110
f 1100 1110 1076
f 1076 1110 1077
f 1103 1096 1112
f 1112 1096 1099
f 1091 1094 1113
f 1113 1094 1082
f 1113 1114 1091
f 1091 1114 1092
f 1082 1081 1113
f 1113 1081 1115
f 1114 1113 1116
f 1116 1113 1115
f 1114 1117 1092
f 1092 1117 1118
f 1024 1077 1016
f 1016 1077 1119
f 1017 1120 1060
f 1060 1120 1080
f 1120 1017 1119
f 1119 1017 1016
f 1119 1109 1120
f 1120 1109 1121
f 1109 1107 1121
f 1121 1107 1122
f 1120 1121 1080
f 1080 1121 1123
f 1119 1077 1109
f 1109 1077 1110
f 1124 1079 1123
f 1123 1079 1080
f 1124 1081 1079
f 1079 1081 1078
f 1125 1115 1124
f 1124 1115 1081
f 1125 1124 1126
f 1126 1124 1123
f 1127 1125 1128
f 1128 1125 1126
f 1121 1122 1123
f 1123 1122 1126
f 1122 1129 1126
f 1126 1129 1128
f 1115 1125 1116
f 1116 1125 1127
f 1131 1116 1130
f 1130 1116 1127
f 1130 1133 1132
f 1132 1133 1134
f 1130 1127 1133
f 1133 1127 1128
f 1130 1132 1131
f 1131 1132 1112
f 1131 1112 1117
f 1117 1112 1099
f 1117 1114 1131
f 1131 1114 1116
f 1107 1108 1122
f 1122 1108 1129
f 1134 1129 1111
f 1111 1129 1108
f 1134 1133 1129
f 1129 1133 1128
f 1132 1134 1106
f 1106 1134 1111
f 1106 1103 1132
f 1132 1103 1112
f 1087 1093 1097
f 1097 1093 1098
f 1098 1118 1099
f 1099 1118 1117
f 1098 1093 1118
f 1118 1093 1092
f 915 914 1039
f 1039 914 1037
f 918 944 919
f 919 944 943
f 950 949 973
f 973 949 974
f 949 952 974
f 974 952 968
f 956 955 1042
f 1042 955 965
f 950 973 918
f 918 973 944
f 915 1039 1040
f 1040 1039 1053
f 956 1042 919
f 919 1042 916
f 1040 955 991
f 991 955 954
f 914 952 1037
f 1037 952 951
f 1136 1137 1135
f 1135 1137 1138
f 1140 1141 1139
f 1139 1141 1142
f 1139 1142 1143
f 1143 1142 1144
f 1145 1146 1148
f 1148 1146 1147
f 854 1149 1025
f 1025 1149 1150
f 1151 1152 1140
f 1140 1152 1141
f 1154 1155 1153
f 1153 1155 1156
f 1067 1007 1158
f 1158 1007 1157
f 1159 1157 1041
f 1041 1157 1007
f 1161 1162 1160
f 1160 1162 1163
f 1164 1146 1152
f 1152 1146 1141
f 854 1067 1149
f 1149 1067 1158
f 1155 1154 1137
f 1137 1154 1165
f 1166 1164 1138
f 1138 1164 1152
f 1167 1161 1144
f 1144 1161 1168
f 1170 1171 1169
f 1169 1171 1172
f 1161 1160 1168
f 1168 1160 1173
f 1174 1143 1168
f 1168 1143 1144
f 1167 1144 1145
f 1145 1144 1142
f 1135 1175 1136
f 1136 1175 1176
f 1151 1177 1135
f 1135 1177 1175
f 1167 1145 1178
f 1178 1145 1148
f 1160 1163 1153
f 1153 1163 1150
f 1135 1138 1151
f 1151 1138 1152
f 1139 1179 1140
f 1140 1179 1180
f 1165 1166 1137
f 1137 1166 1138
f 1141 1146 1142
f 1142 1146 1145
f 1136 1176 1181
f 1181 1176 1182
f 1174 1170 1183
f 1183 1170 1169
f 1170 1173 1171
f 1171 1173 1156
f 1171 1181 1172
f 1172 1181 1182
f 1153 1156 1160
f 1160 1156 1173
f 1143 1174 1184
f 1184 1174 1183
f 1140 1180 1151
f 1151 1180 1177
f 1049 1048 1178
f 1178 1048 1162
f 1179 1139 1184
f 1184 1139 1143
f 1159 1147 1164
f 1164 1147 1146
f 1170 1174 1173
f 1173 1174 1168
f 1171 1156 1181
f 1181 1156 1155
f 1181 1155 1136
f 1136 1155 1137
f 1184 1183 1186
f 1186 1183 1185
f 1184 1186 1179
f 1179 1186 1187
f 1179 1187 1180
f 1180 1187 1188
f 1180 1188 1177
f 1177 1188 1189
f 1183 1169 1185
f 1185 1169 1190
f 1169 1172 1190
f 1190 1172 1191
f 1172 1182 1191
f 1191 1182 1192
f 1193 1194 1190
f 1190 1194 1185
f 1196 1197 1195
f 1195 1197 1198
f 1199 1200 1196
f 1196 1200 1197
f 1197 1200 1202
f 1202 1200 1201
f 1203 1204 1202
f 1202 1204 1205
f 1201 1206 1202
f 1202 1206 1203
f 1205 1198 1202
f 1202 1198 1197
f 1198 1207 1195
f 1195 1207 1208
f 1201 1200 1209
f 1209 1200 1199
f 1199 1187 1209
f 1209 1187 1186
f 1199 1210 1187
f 1187 1210 1188
f 1196 1211 1199
f 1199 1211 1210
f 1212 1211 1195
f 1195 1211 1196
f 1209 1194 1201
f 1201 1194 1206
f 1194 1209 1185
f 1185 1209 1186
f 1213 1212 1208
f 1208 1212 1195
f 1211 1212 1214
f 1214 1212 1215
f 1212 1213 1215
f 1215 1213 1216
f 1214 1215 1217
f 1217 1215 1218
f 1217 1219 1214
f 1214 1219 1220
f 1216 1221 1215
f 1215 1221 1218
f 1214 1220 1211
f 1211 1220 1210
f 1210 1220 1188
f 1188 1220 1189
f 1213 1208 1223
f 1223 1208 1222
f 1208 1207 1222
f 1222 1207 1224
f 1203 1206 1225
f 1225 1206 1194
f 1204 1203 1226
f 1226 1203 1225
f 1194 1193 1225
f 1225 1193 1227
f 1225 1227 1226
f 1226 1227 1228
f 1229 1230 1226
f 1226 1230 1204
f 1224 1230 1222
f 1222 1230 1229
f 1177 1189 1175
f 1175 1189 1231
f 1176 1232 1182
f 1182 1232 1192
f 1232 1176 1231
f 1231 1176 1175
f 1231 1219 1232
f 1232 1219 1233
f 1219 1217 1233
f 1233 1217 1234
f 1232 1233 1192
f 1192 1233 1235
f 1219 1231 1220
f 1220 1231 1189
f 1236 1191 1235
f 1235 1191 1192
f 1236 1193 1191
f 1191 1193 1190
f 1236 1237 1193
f 1193 1237 1227
f 1237 1236 1238
f 1238 1236 1235
f 1239 1237 1240
f 1240 1237 1238
f 1233 1234 1235
f 1235 1234 1238
f 1234 1241 1238
f 1238 1241 1240
f 1237 1239 1227
f 1227 1239 1228
f 1243 1228 1242
f 1242 1228 1239
f 1242 1245 1244
f 1244 1245 1246
f 1242 1239 1245
f 1245 1239 1240
f 1242 1244 1243
f 1243 1244 1223
f 1243 1223 1229
f 1229 1223 1222
f 1229 1226 1243
f 1243 1226 1228
f 1217 1218 1234
f 1234 1218 1241
f 1246 1241 1221
f 1221 1241 1218
f 1246 1245 1241
f 1241 1245 1240
f 1244 1246 1216
f 1216 1246 1221
f 1216 1213 1244
f 1244 1213 1223
f 1198 1205 1207
f 1207 1205 1224
f 1224 1205 1230
f 1230 1205 1204
f 1148 1147 966
f 966 1147 964
f 1149 1154 1150
f 1150 1154 1153
f 1158 1157 1165
f 1165 1157 1166
f 1157 1159 1166
f 1166 1159 1164
f 1163 1162 1056
f 1056 1162 1048
f 1158 1165 1149
f 1149 1165 1154
f 1178 1148 1049
f 1049 1148 966
f 1163 1056 1150
f 1150 1056 1025
f 1178 1162 1167
f 1167 1162 1161
f 1147 1159 964
f 964 1159 1041
f 999 1049 922
f 922 1049 966
f 999 797 985
f 985 797 800
f 797 796 800
f 800 796 801
f 796 997 801
f 801 997 986
f 1247 1248 1250
f 1250 1248 1249
f 1252 1253 1251
f 1251 1253 1254
f 1251 1254 1255
f 1255 1254 1256
f 1258 1259 1257
f 1257 1259 1260
f 1261 1262 1252
f 1252 1262 1253
f 1264 1265 1263
f 1263 1265 1266
f 1267 1268 855
f 855 1268 920
f 1269 1267 1026
f 1026 1267 855
f 1271 1272 1270
f 1270 1272 1273
f 1274 1258 1262
f 1262 1258 1253
f 1264 1275 1265
f 1265 1275 1249
f 1276 1274 1250
f 1250 1274 1262
f 1277 1271 1256
f 1256 1271 1278
f 1279 1280 1282
f 1282 1280 1281
f 1271 1270 1278
f 1278 1270 1283
f 1284 1255 1278
f 1278 1255 1256
f 1277 1256 1257
f 1257 1256 1254
f 1247 1285 1248
f 1248 1285 1286
f 1261 1287 1247
f 1247 1287 1285
f 1257 1260 1277
f 1277 1260 1288
f 1270 1273 1263
f 1263 1273 1289
f 1261 1247 1262
f 1262 1247 1250
f 1251 1290 1252
f 1252 1290 1291
f 1275 1276 1249
f 1249 1276 1250
f 1253 1258 1254
f 1254 1258 1257
f 1248 1286 1292
f 1292 1286 1293
f 1284 1280 1294
f 1294 1280 1279
f 1281 1280 1266
f 1266 1280 1283
f 1292 1293 1281
f 1281 1293 1282
f 1263 1266 1270
f 1270 1266 1283
f 1255 1284 1295
f 1295 1284 1294
f 1252 1291 1261
f 1261 1291 1287
f 1288 1070 1272
f 1272 1070 942
f 1290 1251 1295
f 1295 1251 1255
f 1269 1259 1274
f 1274 1259 1258
f 1280 1284 1283
f 1283 1284 1278
f 1281 1266 1292
f 1292 1266 1265
f 1292 1265 1248
f 1248 1265 1249
f 1295 1294 1297
f 1297 1294 1296
f 1295 1297 1290
f 1290 1297 1298
f 1290 1298 1291
f 1291 1298 1299
f 1291 1299 1287
f 1287 1299 1300
f 1294 1279 1296
f 1296 1279 1301
f 1279 1282 1301
f 1301 1282 1302
f 1302 1282 1303
f 1303 1282 1293
f 1304 1305 1301
f 1301 1305 1296
f 1307 1308 1306
f 1306 1308 1309
f 1310 1311 1307
f 1307 1311 1308
f 1308 1311 1313
f 1313 1311 1312
f 1314 1315 1313
f 1313 1315 1316
f 1312 1317 1313
f 1313 1317 1314
f 1316 1309 1313
f 1313 1309 1308
f 1318 1319 1309
f 1309 1319 1306
f 1311 1310 1312
f 1312 1310 1320
f 1310 1298 1320
f 1320 1298 1297
f 1310 1321 1298
f 1298 1321 1299
f 1307 1322 1310
f 1310 1322 1321
f 1322 1307 1323
f 1323 1307 1306
f 1312 1320 1317
f 1317 1320 1305
f 1305 1320 1296
f 1296 1320 1297
f 1319 1324 1306
f 1306 1324 1323
f 1325 1322 1326
f 1326 1322 1323
f 1324 1327 1323
f 1323 1327 1326
f 1328 1325 1329
f 1329 1325 1326
f 1325 1328 1331
f 1331 1328 1330
f 1327 1332 1326
f 1326 1332 1329
f 1322 1325 1321
f 1321 1325 1331
f 1321 1331 1299
f 1299 1331 1300
f 1324 1319 1334
f 1334 1319 1333
f 1319 1318 1333
f 1333 1318 1335
f 1314 1317 1336
f 1336 1317 1305
f 1315 1314 1337
f 1337 1314 1336
f 1305 1304 1336
f 1336 1304 1338
f 1337 1336 1339
f 1339 1336 1338
f 1337 1340 1315
f 1315 1340 1341
f 1335 1341 1333
f 1333 1341 1340
f 1287 1300 1285
f 1285 1300 1342
f 1286 1343 1293
f 1293 1343 1303
f 1343 1286 1342
f 1342 1286 1285
f 1342 1330 1343
f 1343 1330 1344
f 1330 1328 1344
f 1344 1328 1345
f 1343 1344 1303
f 1303 1344 1346
f 1342 1300 1330
f 1330 1300 1331
f 1347 1302 1346
f 1346 1302 1303
f 1347 1304 1302
f 1302 1304 1301
f 1348 1338 1347
f 1347 1338 1304
f 1348 1347 1349
f 1349 1347 1346
f 1350 1348 1351
f 1351 1348 1349
f 1344 1345 1346
f 1346 1345 1349
f 1345 1352 1349
f 1349 1352 1351
f 1348 1350 1338
f 1338 1350 1339
f 1354 1339 1353
f 1353 1339 1350
f 1353 1356 1355
f 1355 1356 1357
f 1353 1350 1356
f 1356 1350 1351
f 1353 1355 1354
f 1354 1355 1334
f 1354 1334 1340
f 1340 1334 1333
f 1340 1337 1354
f 1354 1337 1339
f 1328 1329 1345
f 1345 1329 1352
f 1357 1352 1332
f 1332 1352 1329
f 1357 1356 1352
f 1352 1356 1351
f 1357 1332 1355
f 1355 1332 1327
f 1327 1324 1355
f 1355 1324 1334
f 1309 1316 1318
f 1318 1316 1335
f 1335 1316 1341
f 1341 1316 1315
f 1259 1072 1260
f 1260 1072 1071
f 1358 1264 1289
f 1289 1264 1263
f 1268 1267 1275
f 1275 1267 1276
f 1267 1269 1276
f 1276 1269 1274
f 941 1273 942
f 942 1273 1272
f 1358 1268 1264
f 1264 1268 1275
f 1260 1071 1288
f 1288 1071 1070
f 1273 941 1289
f 1289 941 977
f 1272 1271 1288
f 1288 1271 1277
f 1259 1269 1072
f 1072 1269 1026
f 1360 1361 1359
f 1359 1361 1362
f 1364 1365 1363
f 1363 1365 1366
f 1363 1366 1367
f 1367 1366 1368
f 1370 1371 1369
f 1369 1371 1372
f 1373 1374 1376
f 1376 1374 1375
f 1377 1378 1364
f 1364 1378 1365
f 1379 1380 1382
f 1382 1380 1381
f 1383 1384 1386
f 1386 1384 1385
f 1387 1385 978
f 978 1385 1384
f 1388 1389 1391
f 1391 1389 1390
f 1378 1392 1365
f 1365 1392 1370
f 1374 1383 1375
f 1375 1383 1386
f 1380 1393 1381
f 1381 1393 1361
f 1394 1392 1362
f 1362 1392 1378
f 1389 1396 1395
f 1395 1396 1368
f 1398 1399 1397
f 1397 1399 1400
f 1388 1401 1389
f 1389 1401 1396
f 1402 1367 1396
f 1396 1367 1368
f 1395 1368 1369
f 1369 1368 1366
f 1359 1403 1360
f 1360 1403 1404
f 1377 1405 1359
f 1359 1405 1403
f 1369 1372 1395
f 1395 1372 1406
f 1379 1388 1376
f 1376 1388 1391
f 1359 1362 1377
f 1377 1362 1378
f 1363 1407 1364
f 1364 1407 1408
f 1393 1394 1361
f 1361 1394 1362
f 1365 1370 1366
f 1366 1370 1369
f 1360 1404 1409
f 1409 1404 1410
f 1402 1398 1411
f 1411 1398 1397
f 1399 1398 1382
f 1382 1398 1401
f 1409 1410 1399
f 1399 1410 1400
f 1388 1379 1401
f 1401 1379 1382
f 1367 1402 1412
f 1412 1402 1411
f 1364 1408 1377
f 1377 1408 1405
f 981 980 1406
f 1406 980 1390
f 1407 1363 1412
f 1412 1363 1367
f 1387 1371 1392
f 1392 1371 1370
f 1398 1402 1401
f 1401 1402 1396
f 1409 1399 1381
f 1381 1399 1382
f 1360 1409 1361
f 1361 1409 1381
f 1412 1411 1414
f 1414 1411 1413
f 1412 1414 1407
f 1407 1414 1415
f 1407 1415 1408
f 1408 1415 1416
f 1408 1416 1405
f 1405 1416 1417
f 1411 1397 1413
f 1413 1397 1418
f 1397 1400 1418
f 1418 1400 1419
f 1419 1400 1420
f 1420 1400 1410
f 1422 1413 1421
f 1421 1413 1418
f 1423 1424 1426
f 1426 1424 1425
f 1427 1428 1424
f 1424 1428 1425
f 1425 1428 1430
f 1430 1428 1429
f 1430 1431 1433
f 1433 1431 1432
f 1429 1434 1430
f 1430 1434 1431
f 1433 1426 1430
f 1430 1426 1425
f 1426 1435 1423
f 1423 1435 1436
f 1428 1427 1429
f 1429 1427 1437
f 1427 1415 1437
f 1437 1415 1414
f 1427 1438 1415
f 1415 1438 1416
f 1439 1438 1424
f 1424 1438 1427
f 1440 1439 1423
f 1423 1439 1424
f 1429 1437 1434
f 1434 1437 1422
f 1422 1437 1413
f 1413 1437 1414
f 1441 1440 1436
f 1436 1440 1423
f 1442 1439 1443
f 1443 1439 1440
f 1441 1444 1440
f 1440 1444 1443
f 1445 1442 1446
f 1446 1442 1443
f 1442 1445 1448
f 1448 1445 1447
f 1444 1449 1443
f 1443 1449 1446
f 1439 1442 1438
f 1438 1442 1448
f 1438 1448 1416
f 1416 1448 1417
f 1436 1450 1441
f 1441 1450 1451
f 1436 1435 1450
f 1450 1435 1452
f 1431 1434 1453
f 1453 1434 1422
f 1431 1453 1432
f 1432 1453 1454
f 1453 1422 1455
f 1455 1422 1421
f 1454 1453 1456
f 1456 1453 1455
f 1457 1458 1454
f 1454 1458 1432
f 1452 1458 1450
f 1450 1458 1457
f 1405 1417 1403
f 1403 1417 1459
f 1404 1460 1410
f 1410 1460 1420
f 1459 1460 1403
f 1403 1460 1404
f 1447 1461 1459
f 1459 1461 1460
f 1445 1462 1447
f 1447 1462 1461
f 1460 1461 1420
f 1420 1461 1463
f 1459 1417 1447
f 1447 1417 1448
f 1464 1419 1463
f 1463 1419 1420
f 1419 1464 1418
f 1418 1464 1421
f 1464 1465 1421
f 1421 1465 1455
f 1465 1464 1466
f 1466 1464 1463
f 1467 1465 1468
f 1468 1465 1466
f 1461 1462 1463
f 1463 1462 1466
f 1462 1469 1466
f 1466 1469 1468
f 1465 1467 1455
f 1455 1467 1456
f 1471 1456 1470
f 1470 1456 1467
f 1470 1473 1472
f 1472 1473 1474
f 1470 1467 1473
f 1473 1467 1468
f 1470 1472 1471
f 1471 1472 1451
f 1471 1451 1457
f 1457 1451 1450
f 1457 1454 1471
f 1471 1454 1456
f 1462 1445 1469
f 1469 1445 1446
f 1474 1469 1449
f 1449 1469 1446
f 1474 1473 1469
f 1469 1473 1468
f 1472 1474 1444
f 1444 1474 1449
f 1444 1441 1472
f 1472 1441 1451
f 1426 1433 1435
f 1435 1433 1452
f 1452 1433 1458
f 1458 1433 1432
f 1371 940 1372
f 1372 940 1068
f 1376 1375 1379
f 1379 1375 1380
f 1393 1386 1394
f 1394 1386 1385
f 1385 1387 1394
f 1394 1387 1392
f 1475 1373 1391
f 1391 1373 1376
f 1375 1386 1380
f 1380 1386 1393
f 1372 1068 1406
f 1406 1068 981
f 1406 1390 1395
f 1395 1390 1389
f 1371 1387 940
f 940 1387 978
f 883 807 1476
f 1476 807 1477
f 1046 904 1479
f 1479 904 1478
f 904 903 1478
f 1478 903 1480
f 1030 1481 1028
f 1028 1481 1482
f 810 1046 1483
f 1483 1046 1479
f 1066 883 1484
f 1484 883 1476
f 807 810 1477
f 1477 810 1483
f 1485 1029 1484
f 1484 1029 1066
f 1028 1482 903
f 903 1482 1480
f 1481 1030 1485
f 1485 1030 1029
f 1484 1486 1485
f 1485 1486 1487
f 1485 1487 1481
f 1481 1487 1488
f 1481 1488 1482
f 1482 1488 1489
f 1482 1489 1480
f 1480 1489 1490
f 1484 1476 1486
f 1486 1476 1491
f 1476 1477 1491
f 1491 1477 1492
f 1477 1483 1492
f 1492 1483 1493
f 1495 1486 1494
f 1494 1486 1491
f 1497 1498 1496
f 1496 1498 1499
f 1500 1501 1497
f 1497 1501 1498
f 1502 1503 1501
f 1501 1503 1498
f 1502 1504 1503
f 1503 1504 1505
f 1506 1499 1503
f 1503 1499 1498
f 1499 1506 1507
f 1507 1506 1508
f 1507 1509 1499
f 1499 1509 1496
f 1502 1501 1510
f 1510 1501 1500
f 1500 1488 1510
f 1510 1488 1487
f 1500 1511 1488
f 1488 1511 1489
f 1497 1512 1500
f 1500 1512 1511
f 1512 1497 1513
f 1513 1497 1496
f 1502 1510 1504
f 1504 1510 1495
f 1495 1510 1486
f 1486 1510 1487
f 1509 1514 1496
f 1496 1514 1513
f 1515 1512 1516
f 1516 1512 1513
f 1514 1517 1513
f 1513 1517 1516
f 1518 1515 1519
f 1519 1515 1516
f 1515 1518 1521
f 1521 1518 1520
f 1517 1522 1516
f 1516 1522 1519
f 1512 1515 1511
f 1511 1515 1521
f 1511 1521 1489
f 1489 1521 1490
f 1514 1509 1524
f 1524 1509 1523
f 1509 1507 1523
f 1523 1507 1508
f 1505 1504 1525
f 1525 1504 1495
f 1526 1505 1527
f 1527 1505 1525
f 1525 1495 1528
f 1528 1495 1494
f 1527 1525 1529
f 1529 1525 1528
f 1527 1530 1526
f 1526 1530 1531
f 1508 1531 1523
f 1523 1531 1530
f 1506 1503 1526
f 1526 1503 1505
f 1508 1506 1531
f 1531 1506 1526
f 1478 1480 1532
f 1532 1480 1490
f 1483 1479 1493
f 1493 1479 1533
f 1532 1533 1478
f 1478 1533 1479
f 1520 1534 1532
f 1532 1534 1533
f 1518 1535 1520
f 1520 1535 1534
f 1533 1534 1493
f 1493 1534 1536
f 1532 1490 1520
f 1520 1490 1521
f 1537 1492 1536
f 1536 1492 1493
f 1492 1537 1491
f 1491 1537 1494
f 1537 1538 1494
f 1494 1538 1528
f 1538 1537 1539
f 1539 1537 1536
f 1540 1538 1541
f 1541 1538 1539
f 1534 1535 1536
f 1536 1535 1539
f 1535 1542 1539
f 1539 1542 1541
f 1538 1540 1528
f 1528 1540 1529
f 1544 1529 1543
f 1543 1529 1540
f 1545 1543 1547
f 1547 1543 1546
f 1543 1540 1546
f 1546 1540 1541
f 1543 1545 1544
f 1544 1545 1524
f 1544 1524 1530
f 1530 1524 1523
f 1530 1527 1544
f 1544 1527 1529
f 1535 1518 1542
f 1542 1518 1519
f 1547 1542 1522
f 1522 1542 1519
f 1547 1546 1542
f 1542 1546 1541
f 1545 1547 1517
f 1517 1547 1522
f 1517 1514 1545
f 1545 1514 1524
f 997 995 986
f 986 995 987
f 987 995 988
f 988 995 971
f 976 1358 977
f 977 1358 1289
f 854 853 1067
f 1067 853 1050
f 1055 985 1069
f 1069 985 962
f 1068 961 981
f 981 961 862
f 1268 1358 920
f 920 1358 976
f 920 976 921
f 921 976 975
f 927 1054 850
f 850 1054 851
f 882 881 1057
f 1057 881 1548
f 1548 1374 1057
f 1057 1374 1373
f 1383 1374 1549
f 1549 1374 1548
f 1549 1548 1550
f 1550 1548 881
f 1550 881 1551
f 1551 881 880
f 933 1552 879
f 879 1552 880
f 1551 880 875
f 875 880 1552
f 1553 1551 878
f 878 1551 875
f 1551 1553 1550
f 1550 1553 1554
f 1550 1554 1549
f 1549 1554 1555
f 978 1384 975
f 975 1384 1555
f 967 849 1556
f 1556 849 852
f 875 1552 876
f 876 1552 933
f 961 939 962
f 962 939 1069
f 1555 1054 975
f 975 1054 921
f 1555 1384 1549
f 1549 1384 1383
f 1391 1390 1475
f 1475 1390 980
f 1373 1475 1057
f 1057 1475 980
f 851 1054 1554
f 1554 1054 1555
f 1554 1553 851
f 851 1553 852
f 878 1556 1553
f 1553 1556 852
f 1556 878 967
f 967 878 877
f 1023 1020 877
f 877 1020 967
f 909 811 1034
f 806 779 873
f 873 779 840
f 805 780 806
f 806 780 779
f 1043 893 1044
f 1044 893 892
f 873 840 847
f 847 840 842
f 840 839 842
f 842 839 843
f 839 791 843
f 843 791 908
f 791 790 908
f 908 790 792
f 809 789 810
f 810 789 1046
f 793 790 809
f 809 790 789
f 809 808 793
f 793 808 1009
f 808 884 1009
f 1009 884 1010
f 1065 1015 884
f 884 1015 1010
f 1032 868 1065
f 1065 868 1015
f 1031 822 1032
f 1032 822 868
f 1031 1027 822
f 822 1027 785
f 1045 905 1046
f 1046 905 904
f 788 781 1019
f 1019 781 894
f 781 780 894
f 894 780 892
f 780 805 892
f 892 805 1044
f 805 804 1044
f 1044 804 891
f 804 1064 891
f 891 1064 888
f 1064 1021 888
f 888 1021 1033
f 1021 1020 1033
f 1033 1020 1034
f 1020 1023 1034
f 1034 1023 909
f 1023 1022 909
f 909 1022 910
f 1043 815 893
f 893 815 819
f 819 815 820
f 820 815 818
f 870 869 818
f 818 869 820
f 1014 1011 870
f 870 1011 869
f 969 972 1014
f 1014 972 1011
f 1036 1063 1022
f 1022 1063 910
f 1035 833 1036
f 1036 833 1063
f 1035 932 979
f 979 932 963
f 834 979 982
f 982 979 958
f 833 1035 834
f 834 1035 979
f 982 863 834
f 834 863 830
f 864 900 831
f 831 900 857
f 990 993 864
f 864 993 900
f 989 994 990
f 990 994 993
f 970 1058 989
f 989 1058 994
f 969 1018 970
f 970 1018 1058
f 1027 902 785
f 785 902 786
f 902 905 786
f 786 905 1019
f 905 1045 1019
f 1019 1045 788
f 788 1045 787
f 787 1045 789
