o hand_left
v -0.184296 -0.094474 0.744782
v -0.193673 -0.092459 0.740885
v -0.185358 -0.084850 0.741064
v -0.176585 -0.087797 0.743978
v -0.204264 -0.075653 0.733698
v -0.207446 -0.071480 0.722512
v -0.193624 -0.064301 0.726115
v -0.193265 -0.068517 0.735523
v -0.168966 -0.083726 0.741929
v -0.178452 -0.079276 0.741152
v -0.164783 -0.083541 0.736545
v -0.156410 -0.092837 0.736055
v -0.160727 -0.089758 0.742012
v -0.150366 -0.097902 0.739201
v -0.159203 -0.100040 0.727565
v -0.149635 -0.107513 0.737316
v -0.174009 -0.125463 0.735816
v -0.183052 -0.132651 0.743094
v -0.169685 -0.133834 0.753891
v -0.161926 -0.125602 0.745905
v -0.188161 -0.139103 0.762487
v -0.177335 -0.136470 0.758343
v -0.190300 -0.136403 0.747063
v -0.199358 -0.138700 0.751425
v -0.197580 -0.104006 0.748697
v -0.207218 -0.103091 0.744177
v -0.202181 -0.100300 0.742189
v -0.193281 -0.100994 0.746389
v -0.164509 -0.075097 0.725821
v -0.167462 -0.085287 0.720335
v -0.163815 -0.086027 0.727866
v -0.164908 -0.074486 0.731509
v -0.236021 -0.100254 0.739529
v -0.243512 -0.103824 0.728781
v -0.239987 -0.101354 0.724750
v -0.233704 -0.099123 0.735424
v -0.224774 -0.086185 0.716865
v -0.230499 -0.093496 0.711556
v -0.227532 -0.096112 0.698116
v -0.219597 -0.091145 0.701659
v -0.216415 -0.078039 0.720482
v -0.213304 -0.081151 0.706923
v -0.204579 -0.073468 0.711287
v -0.191273 -0.064899 0.717002
v -0.250322 -0.111845 0.736269
v -0.246059 -0.109952 0.745375
v -0.129988 -0.081909 0.778106
v -0.133510 -0.084036 0.782388
v -0.135121 -0.085816 0.779449
v -0.131159 -0.083611 0.775717
v -0.246967 -0.130845 0.742616
v -0.242764 -0.139011 0.738288
v -0.249241 -0.137936 0.735049
v -0.252422 -0.129383 0.737551
v -0.239686 -0.132636 0.749274
v -0.233651 -0.139690 0.742717
v -0.118011 -0.086656 0.779395
v -0.121054 -0.083031 0.777262
v -0.121276 -0.086584 0.773964
v -0.118852 -0.090875 0.775971
v -0.167805 -0.090464 0.746354
v -0.175984 -0.094812 0.749503
v -0.154970 -0.094516 0.756954
v -0.163102 -0.095852 0.754242
v -0.159561 -0.092967 0.748624
v -0.152771 -0.093107 0.750906
v -0.181030 -0.108113 0.763922
v -0.190320 -0.107237 0.756738
v -0.184947 -0.104207 0.754158
v -0.174067 -0.103658 0.761273
v -0.200941 -0.111566 0.765212
v -0.190805 -0.112449 0.771438
v -0.197992 -0.114857 0.775587
v -0.204197 -0.112921 0.770791
v -0.171709 -0.113501 0.779495
v -0.165732 -0.114795 0.782925
v -0.167619 -0.115436 0.785124
v -0.174590 -0.114932 0.781226
v -0.255104 -0.137609 0.731042
v -0.256947 -0.127954 0.732007
v -0.206723 -0.141812 0.773424
v -0.216543 -0.137432 0.776858
v -0.207953 -0.139623 0.787540
v -0.199679 -0.143918 0.780833
v -0.235139 -0.142425 0.732006
v -0.242600 -0.143331 0.729641
v -0.117943 -0.091120 0.783709
v -0.119234 -0.095161 0.780444
v -0.199762 -0.083290 0.703310
v -0.186448 -0.070791 0.710322
v -0.209702 -0.093373 0.698779
v -0.216414 -0.101028 0.695826
v -0.222700 -0.104999 0.691549
v -0.163489 -0.099080 0.760374
v -0.184093 -0.099849 0.749980
v -0.201465 -0.106121 0.751338
v -0.221465 -0.114511 0.773522
v -0.229689 -0.112863 0.766900
v -0.220641 -0.108205 0.763440
v -0.215154 -0.111172 0.769719
v -0.220066 -0.129468 0.781423
v -0.217217 -0.121862 0.782244
v -0.210260 -0.124142 0.788611
v -0.212040 -0.131811 0.789477
v -0.165719 -0.071495 0.719020
v -0.171737 -0.083495 0.713903
v -0.248894 -0.120591 0.744732
v -0.252521 -0.119190 0.737935
v -0.257204 -0.120231 0.730923
v -0.221209 -0.100486 0.741432
v -0.232144 -0.098164 0.732642
v -0.229141 -0.095607 0.730686
v -0.218532 -0.100058 0.739689
v -0.204589 -0.088831 0.738753
v -0.215786 -0.084488 0.732016
v -0.195183 -0.080741 0.740513
v -0.236643 -0.097984 0.718201
v -0.246859 -0.101899 0.717043
v -0.241911 -0.098857 0.710270
v -0.252066 -0.107524 0.723228
v -0.255917 -0.113777 0.728357
v -0.249282 -0.146404 0.725303
v -0.236246 -0.097488 0.704149
v -0.184772 -0.064197 0.736155
v -0.177634 -0.059610 0.736122
v -0.173606 -0.065770 0.739096
v -0.180177 -0.070730 0.739988
v -0.143447 -0.100387 0.744428
v -0.147790 -0.094460 0.747356
v -0.154786 -0.092818 0.742366
v -0.231110 -0.102898 0.749725
v -0.239929 -0.110818 0.754337
v -0.154848 -0.097806 0.762887
v -0.121171 -0.094358 0.772026
v -0.123569 -0.089371 0.769965
v -0.134684 -0.096222 0.755787
v -0.131556 -0.102094 0.757901
v -0.148538 -0.103491 0.769415
v -0.151274 -0.098203 0.765859
v -0.149267 -0.098671 0.767595
v -0.147150 -0.102592 0.772442
v -0.176016 -0.118032 0.788230
v -0.182251 -0.117450 0.784745
v -0.151494 -0.123032 0.757995
v -0.144645 -0.118577 0.746476
v -0.154728 -0.117972 0.738752
v -0.187063 -0.110841 0.767469
v -0.179256 -0.111980 0.774469
v -0.182329 -0.113684 0.776789
v -0.162133 -0.101456 0.764412
v -0.155214 -0.101833 0.767387
v -0.159539 -0.104494 0.768471
v -0.166427 -0.104211 0.766183
v -0.225229 -0.136724 0.766671
v -0.229590 -0.127505 0.772313
v -0.125438 -0.081446 0.776549
v -0.126027 -0.083929 0.773709
v -0.196049 -0.109919 0.760344
v -0.167328 -0.116840 0.730813
v -0.205677 -0.107987 0.754415
v -0.181641 -0.137319 0.783845
v -0.184240 -0.132489 0.789037
v -0.178931 -0.130173 0.792553
v -0.175361 -0.134527 0.790176
v -0.137582 -0.097293 0.783326
v -0.139278 -0.092063 0.781527
v -0.136522 -0.090097 0.783838
v -0.134292 -0.094849 0.786605
v -0.150806 -0.094605 0.761144
v -0.148263 -0.092574 0.755498
v -0.145090 -0.091600 0.760200
v -0.147718 -0.094713 0.764638
v -0.143108 -0.094212 0.752069
v -0.139861 -0.092522 0.756516
v -0.132558 -0.101554 0.783144
v -0.125644 -0.102424 0.780108
v -0.135982 -0.110441 0.768097
v -0.141024 -0.107118 0.773185
v -0.209790 -0.139515 0.740423
v -0.218604 -0.141100 0.747166
v -0.208432 -0.140479 0.758295
v -0.198523 -0.141292 0.769303
v -0.188652 -0.140823 0.779252
v -0.178930 -0.140686 0.771914
v -0.215730 -0.140884 0.762102
v -0.149461 -0.112632 0.767771
v -0.143922 -0.115867 0.760717
v -0.149004 -0.118328 0.763986
v -0.210924 -0.109030 0.759668
v -0.128111 -0.086006 0.770023
v -0.214539 -0.123911 0.699322
v -0.219485 -0.133908 0.706708
v -0.212136 -0.131579 0.710907
v -0.206922 -0.119711 0.703042
v -0.137885 -0.087001 0.777101
v -0.133915 -0.084499 0.772578
v -0.185995 -0.120071 0.789738
v -0.179526 -0.120606 0.791981
v -0.179366 -0.123633 0.794130
v -0.186510 -0.122824 0.794721
v -0.224075 -0.141004 0.749639
v -0.201221 -0.138646 0.794414
v -0.194853 -0.143066 0.787846
v -0.227153 -0.141575 0.737185
v -0.219478 -0.140815 0.731076
v -0.226852 -0.141926 0.724749
v -0.164995 -0.134198 0.769952
v -0.202009 -0.137402 0.737063
v -0.213062 -0.138328 0.727594
v -0.221575 -0.139551 0.719859
v -0.227916 -0.141262 0.714663
v -0.233092 -0.143562 0.720589
v -0.122156 -0.099061 0.776402
v -0.122633 -0.098724 0.785262
v -0.239952 -0.147028 0.715679
v -0.234012 -0.143662 0.709328
v -0.206199 -0.134316 0.722870
v -0.198610 -0.127956 0.717327
v -0.195841 -0.133389 0.732312
v -0.187263 -0.127250 0.727528
v -0.158660 -0.134305 0.761147
v -0.123522 -0.086318 0.798117
v -0.126636 -0.094509 0.791163
v -0.131891 -0.092133 0.790045
v -0.127884 -0.085807 0.798149
v -0.129355 -0.098259 0.787297
v -0.121449 -0.094534 0.788545
v -0.179934 -0.115889 0.721043
v -0.153927 -0.105762 0.771177
v -0.192865 -0.112873 0.709646
v -0.169383 -0.101368 0.717831
v -0.180245 -0.097377 0.710391
v -0.205578 -0.107516 0.698066
v -0.194270 -0.095755 0.701426
v -0.219848 -0.115561 0.691517
v -0.212689 -0.112926 0.695615
v -0.184090 -0.083494 0.706263
v -0.130230 -0.076494 0.786992
v -0.133047 -0.079916 0.790769
v -0.221016 -0.126368 0.694713
v -0.186719 -0.075198 0.740515
v -0.218546 -0.105380 0.752697
v -0.214165 -0.104906 0.749066
v -0.233997 -0.111964 0.762166
v -0.225165 -0.105864 0.757252
v -0.125404 -0.075221 0.784883
v -0.161849 -0.118169 0.784988
v -0.163763 -0.118606 0.783685
v -0.186188 -0.059689 0.728502
v -0.180075 -0.056203 0.729582
v -0.173202 -0.058895 0.718462
v -0.177587 -0.055526 0.723099
v -0.184152 -0.059759 0.719999
v -0.179859 -0.063754 0.714709
v -0.223120 -0.100780 0.743306
v -0.225683 -0.101672 0.746187
v -0.233179 -0.134555 0.757673
v -0.236735 -0.125216 0.763534
v -0.139153 -0.099302 0.750483
v -0.141514 -0.108672 0.745047
v -0.137081 -0.105963 0.751872
v -0.133030 -0.108366 0.761101
v -0.149995 -0.108285 0.771311
v -0.145953 -0.109138 0.768389
v -0.222884 -0.090509 0.731523
v -0.212707 -0.096329 0.738490
v -0.173847 -0.075876 0.739516
v -0.168585 -0.071609 0.737830
v -0.173254 -0.107932 0.768722
v -0.156777 -0.128656 0.777102
v -0.151920 -0.128328 0.769625
v -0.165463 -0.109035 0.773197
v -0.117851 -0.077839 0.787901
v -0.121590 -0.075544 0.785448
v -0.138470 -0.112615 0.754549
v -0.189272 -0.115613 0.781473
v -0.164353 -0.130748 0.777121
v -0.159009 -0.124768 0.783080
v -0.206993 -0.131815 0.794185
v -0.226506 -0.135626 0.701457
v -0.134866 -0.087901 0.787425
v -0.133070 -0.083528 0.794446
v -0.119736 -0.085919 0.795995
v -0.116883 -0.083027 0.791435
v -0.242227 -0.121972 0.754582
v -0.210923 -0.104502 0.746979
v -0.176373 -0.073595 0.711111
v -0.169244 -0.065338 0.716833
v -0.161199 -0.110112 0.775895
v -0.187834 -0.138740 0.786412
v -0.173168 -0.138467 0.779531
v -0.167194 -0.135739 0.786494
v -0.161906 -0.130702 0.784308
v -0.160398 -0.123426 0.784444
v -0.120318 -0.081701 0.800129
v -0.117358 -0.078550 0.795758
v -0.118495 -0.073545 0.792088
v -0.121934 -0.071846 0.789252
v -0.126117 -0.072768 0.787971
v -0.124360 -0.082182 0.802147
v -0.128355 -0.081795 0.801663
v -0.132784 -0.081331 0.797017
v -0.126419 -0.078750 0.804906
v -0.122431 -0.075284 0.805450
v -0.124057 -0.062575 0.799884
v -0.120665 -0.067197 0.798095
v -0.121159 -0.066534 0.800770
v -0.123659 -0.062848 0.803123
v -0.125685 -0.059768 0.806809
v -0.126488 -0.058817 0.803464
v -0.120434 -0.070938 0.802278
v -0.123708 -0.066376 0.806140
v -0.125475 -0.069399 0.808561
v -0.127327 -0.065336 0.811907
v -0.125648 -0.062486 0.809975
v -0.122854 -0.072257 0.805940
v -0.119064 -0.072693 0.801063
v -0.128457 -0.057530 0.807497
v -0.126816 -0.058459 0.809211
v -0.127365 -0.060568 0.811768
v -0.130040 -0.059055 0.812091
v -0.123280 -0.068070 0.792655
v -0.126011 -0.062247 0.798155
v -0.129413 -0.059499 0.802413
v -0.131054 -0.058230 0.806542
v -0.130060 -0.063044 0.798382
v -0.131966 -0.061020 0.802317
v -0.133597 -0.060340 0.805974
v -0.133630 -0.065050 0.799777
v -0.134330 -0.062989 0.803303
v -0.130389 -0.072445 0.791453
v -0.126859 -0.070483 0.790135
v -0.135130 -0.061790 0.805477
v -0.132148 -0.059673 0.811639
v -0.127147 -0.072712 0.808724
v -0.130023 -0.067171 0.812054
v -0.129347 -0.073689 0.808448
v -0.132062 -0.068427 0.812091
v -0.130838 -0.063387 0.814292
v -0.128545 -0.062957 0.813159
v -0.130370 -0.075493 0.789127
v -0.133073 -0.079103 0.793096
v -0.133228 -0.076687 0.795099
v -0.135846 -0.068532 0.802330
v -0.133360 -0.078798 0.799044
v -0.130245 -0.078490 0.804118
v -0.132288 -0.073193 0.807989
v -0.134907 -0.071988 0.806041
v -0.134074 -0.068761 0.810481
v -0.135365 -0.068004 0.808369
v -0.136021 -0.065462 0.805492
v -0.134828 -0.064842 0.811345
v -0.132813 -0.064148 0.813454
v -0.134387 -0.061421 0.809717
v -0.135643 -0.065460 0.809648
v -0.135215 -0.063099 0.807789
v -0.143124 -0.097223 0.798314
v -0.147146 -0.100131 0.802523
v -0.145922 -0.102938 0.799229
v -0.142480 -0.100415 0.795857
v -0.129817 -0.101847 0.800900
v -0.134024 -0.097938 0.798138
v -0.132503 -0.102318 0.794786
v -0.129357 -0.107532 0.797962
v -0.130436 -0.107299 0.805599
v -0.130916 -0.112829 0.802124
v -0.130822 -0.111021 0.793054
v -0.134274 -0.105182 0.790403
v -0.145628 -0.112165 0.774170
v -0.142805 -0.118456 0.775313
v -0.160033 -0.113127 0.784893
v -0.158772 -0.116334 0.786853
v -0.139104 -0.096708 0.797436
v -0.137798 -0.100244 0.794498
v -0.149803 -0.110569 0.802079
v -0.150284 -0.105855 0.799273
v -0.148497 -0.105483 0.802592
v -0.147000 -0.109536 0.806159
v -0.152759 -0.107946 0.776172
v -0.157000 -0.110553 0.780222
v -0.149212 -0.108904 0.774901
v -0.145724 -0.115754 0.803759
v -0.139580 -0.118806 0.802627
v -0.149363 -0.126467 0.785680
v -0.154050 -0.123385 0.788738
v -0.138693 -0.101837 0.790453
v -0.147462 -0.102087 0.795892
v -0.143835 -0.100437 0.792403
v -0.133754 -0.116697 0.797157
v -0.136849 -0.114540 0.807582
v -0.142091 -0.098176 0.819076
v -0.142263 -0.108198 0.812259
v -0.146567 -0.105921 0.810236
v -0.146835 -0.096651 0.818027
v -0.142763 -0.112813 0.808343
v -0.136484 -0.109032 0.810822
v -0.146113 -0.087109 0.807655
v -0.149955 -0.090414 0.811713
v -0.141795 -0.085848 0.806435
v -0.144625 -0.124455 0.779523
v -0.132761 -0.090658 0.808850
v -0.137595 -0.086811 0.806382
v -0.148890 -0.103278 0.806421
v -0.150070 -0.093722 0.815596
v -0.137611 -0.098072 0.817974
v -0.132549 -0.096160 0.812886
v -0.137918 -0.092506 0.820890
v -0.133830 -0.090204 0.816546
v -0.134031 -0.085511 0.811912
v -0.138563 -0.083542 0.808822
v -0.142555 -0.083855 0.808291
v -0.142211 -0.092831 0.822093
v -0.146918 -0.092283 0.820964
v -0.149905 -0.091176 0.816927
v -0.146062 -0.086604 0.824242
v -0.141760 -0.084489 0.824296
v -0.145743 -0.068157 0.815625
v -0.142123 -0.072971 0.814517
v -0.141704 -0.073051 0.817132
v -0.145045 -0.068717 0.818320
v -0.137721 -0.077561 0.815136
v -0.138771 -0.076777 0.817314
v -0.139087 -0.079958 0.820851
v -0.143191 -0.075129 0.821286
v -0.145530 -0.078192 0.824305
v -0.148468 -0.073338 0.825755
v -0.146092 -0.070086 0.823062
v -0.141868 -0.080839 0.823515
v -0.147363 -0.066334 0.819915
v -0.149461 -0.065211 0.818849
v -0.136675 -0.082243 0.820423
v -0.139377 -0.080177 0.810145
v -0.144292 -0.073042 0.812208
v -0.148691 -0.068370 0.814084
v -0.152434 -0.065972 0.818523
v -0.148422 -0.073967 0.811486
v -0.151748 -0.069593 0.814052
v -0.154321 -0.067935 0.818137
v -0.152672 -0.076018 0.812489
v -0.155164 -0.071726 0.815503
v -0.147446 -0.084565 0.809572
v -0.143512 -0.081932 0.808353
v -0.155455 -0.069995 0.817493
v -0.150708 -0.065848 0.823495
v -0.153858 -0.066467 0.822437
v -0.149087 -0.066822 0.823478
v -0.147024 -0.079557 0.825117
v -0.150604 -0.074036 0.825916
v -0.149780 -0.080579 0.825107
v -0.153067 -0.074250 0.825820
v -0.152205 -0.069479 0.826166
v -0.150561 -0.069108 0.825856
v -0.146226 -0.085980 0.809643
v -0.149506 -0.089072 0.813229
v -0.150521 -0.087846 0.813194
v -0.155122 -0.078935 0.816389
v -0.150879 -0.089592 0.817670
v -0.149106 -0.087953 0.822309
v -0.152233 -0.081535 0.823860
v -0.154820 -0.080793 0.820786
v -0.155012 -0.075216 0.825445
v -0.156146 -0.076421 0.822613
v -0.156867 -0.074335 0.818270
v -0.155985 -0.070578 0.825083
v -0.153970 -0.069653 0.825943
v -0.155275 -0.067941 0.821498
v -0.156922 -0.072561 0.823036
v -0.156542 -0.070504 0.819979
v -0.158972 -0.108549 0.804831
v -0.163603 -0.110684 0.807816
v -0.163755 -0.112697 0.805439
v -0.158985 -0.111015 0.802823
v -0.148306 -0.114560 0.808735
v -0.150232 -0.110635 0.806308
v -0.150058 -0.114334 0.803075
v -0.148259 -0.119348 0.804417
v -0.149864 -0.117377 0.813577
v -0.149868 -0.124087 0.808163
v -0.149467 -0.122814 0.800069
v -0.150874 -0.116826 0.799654
v -0.158313 -0.122078 0.787830
v -0.157357 -0.128554 0.789190
v -0.154370 -0.108858 0.804919
v -0.154404 -0.111607 0.802479
v -0.167591 -0.118855 0.808975
v -0.167050 -0.114760 0.806376
v -0.166002 -0.115815 0.809245
v -0.165138 -0.119185 0.812182
v -0.167087 -0.115820 0.788085
v -0.172090 -0.118309 0.790554
v -0.162126 -0.117402 0.788014
v -0.164114 -0.124551 0.810364
v -0.158250 -0.128847 0.808584
v -0.167988 -0.132955 0.797519
v -0.172522 -0.128853 0.798093
v -0.154551 -0.113078 0.799760
v -0.164502 -0.111717 0.802755
v -0.159543 -0.110715 0.800328
v -0.152715 -0.127366 0.803446
v -0.155455 -0.125205 0.812966
v -0.159526 -0.107306 0.827296
v -0.160287 -0.120081 0.817289
v -0.164794 -0.117019 0.814724
v -0.163623 -0.106324 0.825700
v -0.161283 -0.122924 0.814402
v -0.154681 -0.120568 0.816789
v -0.160981 -0.097850 0.814391
v -0.164726 -0.100719 0.817500
v -0.156467 -0.098360 0.813623
v -0.161009 -0.133526 0.792906
v -0.175107 -0.123137 0.795604
v -0.150289 -0.100816 0.817521
v -0.153223 -0.098987 0.814703
v -0.165648 -0.114121 0.811521
v -0.165927 -0.104129 0.822160
v -0.154541 -0.107629 0.826154
v -0.150178 -0.105475 0.821663
v -0.155776 -0.102472 0.829201
v -0.151405 -0.100106 0.824700
v -0.151434 -0.096309 0.819821
v -0.154813 -0.095550 0.816361
v -0.158070 -0.095630 0.815126
v -0.161155 -0.102815 0.829537
v -0.164661 -0.102585 0.827513
v -0.165806 -0.102956 0.822472
v -0.163448 -0.099199 0.830598
v -0.158867 -0.095984 0.831098
v -0.163971 -0.080730 0.823420
v -0.160246 -0.085503 0.822201
v -0.160230 -0.085738 0.823404
v -0.163544 -0.080888 0.825132
v -0.155210 -0.090540 0.822582
v -0.156488 -0.089502 0.823868
v -0.156435 -0.091800 0.827249
v -0.160733 -0.086735 0.828667
v -0.164288 -0.090892 0.831529
v -0.167100 -0.086158 0.832123
v -0.163980 -0.081978 0.829849
v -0.159340 -0.093776 0.830331
v -0.165645 -0.078689 0.826698
v -0.165929 -0.077338 0.825373
v -0.154480 -0.093875 0.827258
v -0.156848 -0.091390 0.817881
v -0.161589 -0.085565 0.819452
v -0.165370 -0.080787 0.820583
v -0.168531 -0.078487 0.823000
v -0.164845 -0.087087 0.817965
v -0.167731 -0.082720 0.819706
v -0.170455 -0.080625 0.821999
v -0.167753 -0.088816 0.818301
v -0.170041 -0.084998 0.820149
v -0.162769 -0.095991 0.815962
v -0.159722 -0.093467 0.815841
v -0.171399 -0.082805 0.821980
v -0.168177 -0.078216 0.829557
v -0.171790 -0.079464 0.827675
v -0.166894 -0.079408 0.829609
v -0.165194 -0.092452 0.832062
v -0.169243 -0.086783 0.832860
v -0.167615 -0.093865 0.831350
v -0.171400 -0.088206 0.832105
v -0.170019 -0.082279 0.832440
v -0.168837 -0.082340 0.832131
v -0.161596 -0.097189 0.815560
v -0.164810 -0.100333 0.818331
v -0.165689 -0.099264 0.818523
v -0.171052 -0.091525 0.820938
v -0.166836 -0.101554 0.822685
v -0.166728 -0.099321 0.828371
v -0.169940 -0.094176 0.828835
v -0.171704 -0.093331 0.825344
v -0.172866 -0.089023 0.829806
v -0.173035 -0.089610 0.826958
v -0.172853 -0.087419 0.822403
v -0.173409 -0.084877 0.829010
v -0.172269 -0.083431 0.831419
v -0.173059 -0.081621 0.825648
v -0.173851 -0.086113 0.826822
v -0.173396 -0.083725 0.824246
v -0.174856 -0.120457 0.793257
v -0.178193 -0.113472 0.808623
v -0.181125 -0.114224 0.811680
v -0.181476 -0.115451 0.811278
v -0.179230 -0.114946 0.807402
v -0.169555 -0.121261 0.808398
v -0.171503 -0.116957 0.807101
v -0.172313 -0.120236 0.804524
v -0.170901 -0.124743 0.805746
v -0.170641 -0.125264 0.812019
v -0.172534 -0.128348 0.810172
v -0.173283 -0.126662 0.803864
v -0.174446 -0.122172 0.802353
v -0.183340 -0.129645 0.791527
v -0.184247 -0.135219 0.792079
v -0.201816 -0.130360 0.798246
v -0.201717 -0.125406 0.796105
v -0.196086 -0.124026 0.802694
v -0.196737 -0.128465 0.804351
v -0.174730 -0.114581 0.807247
v -0.175778 -0.116513 0.804937
v -0.185157 -0.123166 0.816266
v -0.185288 -0.118916 0.813721
v -0.183330 -0.117184 0.814741
v -0.183352 -0.120315 0.818488
v -0.197472 -0.122580 0.794605
v -0.192877 -0.122212 0.793521
v -0.190529 -0.121148 0.796219
v -0.192914 -0.121400 0.800240
v -0.185743 -0.123273 0.794294
v -0.183011 -0.127161 0.816339
v -0.178873 -0.130844 0.813634
v -0.193695 -0.137758 0.801838
v -0.196324 -0.133732 0.803491
v -0.176532 -0.118352 0.803895
v -0.183444 -0.116636 0.809849
v -0.180289 -0.116146 0.807226
v -0.175100 -0.130792 0.807811
v -0.176358 -0.127732 0.816068
v -0.176630 -0.116581 0.824410
v -0.179296 -0.122484 0.820592
v -0.182533 -0.119111 0.819300
v -0.179649 -0.115043 0.823523
v -0.180721 -0.124168 0.818986
v -0.174526 -0.124489 0.818157
v -0.177728 -0.108949 0.812134
v -0.180758 -0.110790 0.816424
v -0.174536 -0.109161 0.810724
v -0.188088 -0.138832 0.795788
v -0.168324 -0.113183 0.812808
v -0.171223 -0.110088 0.811148
v -0.182515 -0.115965 0.815480
v -0.181476 -0.112877 0.820617
v -0.171986 -0.117495 0.822591
v -0.168354 -0.117356 0.817021
v -0.171307 -0.112591 0.824198
v -0.167820 -0.112628 0.818663
v -0.169270 -0.108950 0.813527
v -0.172865 -0.108133 0.811672
v -0.176153 -0.108044 0.811521
v -0.176349 -0.112589 0.825774
v -0.179235 -0.112208 0.824882
v -0.181152 -0.111628 0.821451
v -0.176353 -0.108509 0.826704
v -0.172760 -0.105889 0.824578
v -0.178345 -0.095971 0.817352
v -0.176343 -0.099527 0.815821
v -0.175691 -0.099415 0.816873
v -0.177424 -0.095674 0.817902
v -0.172541 -0.103742 0.815145
v -0.172890 -0.102611 0.816666
v -0.171368 -0.104584 0.819473
v -0.173926 -0.099774 0.820849
v -0.175786 -0.101218 0.825771
v -0.177491 -0.097281 0.826297
v -0.175395 -0.096245 0.822042
v -0.172780 -0.104200 0.823713
v -0.177855 -0.093265 0.819492
v -0.178968 -0.092367 0.819208
v -0.169646 -0.106532 0.819104
v -0.175559 -0.105002 0.812552
v -0.178761 -0.099263 0.814621
v -0.180598 -0.094833 0.816845
v -0.181329 -0.092238 0.819821
v -0.180938 -0.100664 0.814457
v -0.182847 -0.095553 0.816896
v -0.183449 -0.093253 0.819884
v -0.183495 -0.102368 0.815987
v -0.184497 -0.097201 0.818103
v -0.181391 -0.107892 0.814442
v -0.178829 -0.106129 0.812558
v -0.184305 -0.094796 0.820125
v -0.178471 -0.092018 0.823202
v -0.181548 -0.092333 0.823233
v -0.177018 -0.092994 0.823218
v -0.176575 -0.101925 0.826796
v -0.178847 -0.097238 0.827427
v -0.178627 -0.103004 0.827600
v -0.181007 -0.097729 0.827572
v -0.179396 -0.093831 0.826289
v -0.177686 -0.094543 0.825533
v -0.179644 -0.108424 0.813652
v -0.181065 -0.109874 0.816950
v -0.182496 -0.109303 0.818458
v -0.184734 -0.104006 0.819793
v -0.181705 -0.110411 0.823025
v -0.179234 -0.109798 0.826051
v -0.181232 -0.103831 0.826905
v -0.183761 -0.104278 0.824533
v -0.183010 -0.098033 0.826636
v -0.184959 -0.098988 0.824432
v -0.185708 -0.098677 0.821049
v -0.183281 -0.094568 0.824874
v -0.181774 -0.093817 0.825823
v -0.183383 -0.093356 0.822848
v -0.184540 -0.095631 0.823794
v -0.184666 -0.095207 0.822127
v -0.199683 -0.133767 0.799151
v -0.157057 -0.061642 0.725651
v -0.156868 -0.064537 0.730592
v -0.165764 -0.055347 0.740751
v -0.161105 -0.060645 0.740279
v -0.168326 -0.050040 0.737280
v -0.167438 -0.047954 0.726551
v -0.169502 -0.048305 0.731784
v -0.157950 -0.063993 0.736451
v -0.159404 -0.057334 0.721900
v -0.163893 -0.051539 0.721719
v -0.151620 -0.053568 0.723646
v -0.156423 -0.047037 0.723802
v -0.160040 -0.042898 0.728185
v -0.163699 -0.044300 0.734362
v -0.164292 -0.046493 0.738969
v -0.151665 -0.059190 0.728568
v -0.152420 -0.061854 0.733431
v -0.155520 -0.061274 0.739290
v -0.145915 -0.057267 0.733935
v -0.141073 -0.048795 0.736385
v -0.142566 -0.033108 0.748030
v -0.147778 -0.035706 0.744318
v -0.145323 -0.036374 0.742927
v -0.140787 -0.033527 0.746066
v -0.149548 -0.037960 0.739355
v -0.147236 -0.038644 0.739727
v -0.144647 -0.042577 0.737156
v -0.140597 -0.040012 0.740383
v -0.141209 -0.046420 0.737957
v -0.138217 -0.045771 0.740917
v -0.136468 -0.037649 0.743441
v -0.136855 -0.032793 0.746769
v -0.133162 -0.035707 0.746307
v -0.137481 -0.032644 0.749941
v -0.144365 -0.041942 0.734290
v -0.156499 -0.039431 0.739451
v -0.150999 -0.036670 0.745986
v -0.144759 -0.034614 0.750738
v -0.138643 -0.034347 0.752522
v -0.152793 -0.039676 0.748815
v -0.146352 -0.038388 0.752523
v -0.140618 -0.038791 0.753896
v -0.152412 -0.044271 0.750661
v -0.146018 -0.042391 0.753083
v -0.160981 -0.050073 0.743830
v -0.160927 -0.043777 0.741949
v -0.141836 -0.041406 0.753593
v -0.132060 -0.035737 0.749023
v -0.133403 -0.037791 0.751821
v -0.137907 -0.049239 0.741082
v -0.133962 -0.043513 0.743404
v -0.133926 -0.046210 0.744927
v -0.139415 -0.052887 0.742167
v -0.134703 -0.048362 0.746754
v -0.131195 -0.041735 0.747395
v -0.132145 -0.040152 0.745142
v -0.163397 -0.051880 0.742114
v -0.160101 -0.057637 0.741846
v -0.157847 -0.056068 0.743310
v -0.149801 -0.050499 0.750013
v -0.152955 -0.059663 0.741759
v -0.148312 -0.059740 0.737659
v -0.141537 -0.054746 0.744755
v -0.145445 -0.054310 0.747668
v -0.137323 -0.049356 0.749155
v -0.140047 -0.048988 0.750628
v -0.143525 -0.046124 0.752757
v -0.135398 -0.044938 0.751425
v -0.132415 -0.043786 0.749659
v -0.136546 -0.041060 0.753251
v -0.138073 -0.045798 0.751812
v -0.139496 -0.043335 0.753142
v -0.206022 -0.124709 0.791831
v -0.201144 -0.120750 0.789646
v -0.206672 -0.119769 0.786035
v -0.213871 -0.117017 0.780123
v -0.223552 -0.119693 0.776356
v -0.208895 -0.114318 0.775951
v -0.201756 -0.117065 0.782327
v -0.193831 -0.118735 0.787240
v -0.209968 -0.111091 0.766052
f 2 3 1
f 1 3 4
f 5 6 8
f 8 6 7
f 9 4 10
f 10 4 3
f 12 13 11
f 11 13 9
f 14 12 16
f 16 12 15
f 18 19 17
f 17 19 20
f 22 23 21
f 21 23 24
f 26 27 25
f 25 27 28
f 30 31 29
f 29 31 32
f 33 34 36
f 36 34 35
f 37 38 40
f 40 38 39
f 41 42 6
f 6 42 43
f 6 43 7
f 7 43 44
f 45 34 46
f 46 34 33
f 48 49 47
f 47 49 50
f 52 53 51
f 51 53 54
f 56 52 55
f 55 52 51
f 58 59 57
f 57 59 60
f 61 62 4
f 4 62 1
f 64 65 63
f 63 65 66
f 68 69 67
f 67 69 70
f 72 73 71
f 71 73 74
f 76 77 75
f 75 77 78
f 53 79 54
f 54 79 80
f 82 83 81
f 81 83 84
f 85 86 52
f 52 86 53
f 57 60 87
f 87 60 88
f 89 90 43
f 43 90 44
f 43 42 89
f 89 42 91
f 40 39 92
f 92 39 93
f 94 70 64
f 64 70 69
f 13 61 9
f 9 61 4
f 25 28 69
f 69 28 95
f 96 25 68
f 68 25 69
f 98 99 97
f 97 99 100
f 101 102 104
f 104 102 103
f 106 30 105
f 105 30 29
f 51 54 107
f 107 54 108
f 54 80 108
f 108 80 109
f 111 112 110
f 110 112 113
f 115 5 114
f 114 5 116
f 115 41 5
f 5 41 6
f 36 35 111
f 111 35 117
f 35 118 117
f 117 118 119
f 34 120 35
f 35 120 118
f 34 45 120
f 120 45 121
f 125 126 124
f 124 126 127
f 128 129 14
f 14 129 130
f 33 131 46
f 46 131 132
f 133 94 63
f 63 94 64
f 134 135 137
f 137 135 136
f 139 140 138
f 138 140 141
f 77 142 78
f 78 142 143
f 144 145 20
f 20 145 146
f 148 149 147
f 147 149 72
f 151 152 150
f 150 152 153
f 82 101 83
f 83 101 104
f 101 82 155
f 155 82 154
f 156 157 58
f 58 157 59
f 158 68 147
f 147 68 67
f 159 146 15
f 15 146 16
f 68 158 96
f 96 158 160
f 129 66 130
f 130 66 65
f 162 163 161
f 161 163 164
f 166 167 165
f 165 167 168
f 170 171 169
f 169 171 172
f 174 171 173
f 173 171 170
f 176 177 175
f 175 177 178
f 180 181 179
f 179 181 24
f 182 183 21
f 21 183 184
f 81 185 82
f 82 185 154
f 186 187 188
f 188 187 144
f 158 71 160
f 160 71 189
f 190 135 157
f 157 135 59
f 169 172 139
f 139 172 140
f 147 72 158
f 158 72 71
f 192 193 191
f 191 193 194
f 167 166 49
f 49 166 195
f 196 190 50
f 50 190 157
f 197 198 200
f 200 198 199
f 21 24 182
f 182 24 181
f 146 159 20
f 20 159 17
f 182 181 81
f 81 181 185
f 201 185 180
f 180 185 181
f 202 203 83
f 83 203 84
f 205 206 204
f 204 206 85
f 207 22 184
f 184 22 21
f 179 24 208
f 208 24 23
f 208 209 179
f 179 209 205
f 209 210 205
f 205 210 206
f 212 206 211
f 211 206 210
f 179 205 180
f 180 205 204
f 213 176 88
f 88 176 214
f 86 85 212
f 212 85 206
f 193 217 218
f 217 219 218
f 218 219 220
f 219 18 220
f 220 18 17
f 19 221 20
f 20 221 144
f 222 223 225
f 225 223 224
f 175 226 176
f 176 226 214
f 227 87 214
f 214 87 88
f 220 17 228
f 228 17 159
f 134 213 60
f 60 213 88
f 138 229 151
f 151 229 152
f 193 192 210
f 210 192 211
f 230 194 218
f 218 194 193
f 231 232 228
f 228 232 230
f 233 234 91
f 91 234 89
f 235 236 93
f 93 236 92
f 230 232 234
f 234 232 237
f 47 238 48
f 48 238 239
f 240 191 235
f 235 191 236
f 5 8 116
f 116 8 241
f 242 243 189
f 189 243 160
f 244 245 98
f 98 245 99
f 156 246 47
f 47 246 238
f 76 247 77
f 77 247 248
f 250 125 249
f 249 125 124
f 252 253 251
f 251 253 254
f 111 110 36
f 36 110 255
f 256 33 255
f 255 33 36
f 257 258 154
f 154 258 155
f 63 169 133
f 133 169 139
f 66 170 63
f 63 170 169
f 173 170 129
f 129 170 66
f 129 128 173
f 173 128 259
f 128 260 259
f 259 260 261
f 213 134 262
f 262 134 137
f 263 264 186
f 186 264 187
f 112 265 113
f 113 265 266
f 11 267 268
f 234 233 230
f 230 233 194
f 153 269 70
f 70 269 67
f 175 178 165
f 165 178 141
f 150 153 94
f 94 153 70
f 271 221 270
f 270 221 207
f 269 153 272
f 272 153 152
f 121 45 109
f 109 45 108
f 47 50 156
f 156 50 157
f 57 273 58
f 58 273 274
f 145 275 260
f 260 275 261
f 276 149 143
f 143 149 78
f 148 269 75
f 75 269 272
f 207 277 270
f 270 277 278
f 195 196 49
f 49 196 50
f 59 135 60
f 60 135 134
f 83 104 202
f 202 104 279
f 149 148 78
f 78 148 75
f 247 278 248
f 248 278 277
f 183 182 84
f 84 182 81
f 48 239 281
f 281 239 282
f 227 223 283
f 283 223 222
f 223 226 224
f 224 226 168
f 281 282 224
f 224 282 225
f 165 168 175
f 175 168 226
f 264 263 138
f 138 263 229
f 14 16 128
f 128 16 260
f 220 228 218
f 218 228 230
f 87 227 284
f 284 227 283
f 260 16 145
f 145 16 146
f 244 98 258
f 258 98 155
f 58 274 156
f 156 274 246
f 107 285 51
f 51 285 55
f 243 286 160
f 160 286 96
f 234 237 89
f 89 237 90
f 46 132 107
f 107 132 285
f 253 252 249
f 249 252 250
f 286 26 96
f 96 26 25
f 106 105 287
f 287 105 288
f 272 152 289
f 289 152 229
f 138 151 139
f 139 151 133
f 183 290 161
f 161 290 162
f 291 292 277
f 277 292 293
f 151 150 133
f 133 150 94
f 262 275 177
f 177 275 187
f 144 187 145
f 145 187 275
f 273 57 284
f 284 57 87
f 174 136 190
f 190 136 135
f 111 117 112
f 112 117 38
f 117 119 38
f 38 119 123
f 112 38 265
f 265 38 37
f 287 288 254
f 254 288 251
f 228 159 231
f 231 159 15
f 223 227 226
f 226 227 214
f 147 67 148
f 148 67 269
f 224 168 281
f 281 168 167
f 199 163 200
f 200 163 162
f 45 46 108
f 108 46 107
f 281 167 48
f 48 167 49
f 161 164 291
f 291 164 292
f 38 123 39
f 293 294 277
f 277 294 248
f 284 283 296
f 296 283 295
f 284 296 273
f 273 296 297
f 274 273 298
f 298 273 297
f 246 274 299
f 299 274 298
f 283 222 295
f 295 222 300
f 222 225 300
f 300 225 301
f 301 225 302
f 302 225 282
f 303 304 300
f 300 304 295
f 306 307 305
f 305 307 308
f 309 310 308
f 308 310 305
f 308 307 312
f 312 307 311
f 313 314 312
f 312 314 315
f 311 316 312
f 312 316 313
f 317 304 311
f 311 304 316
f 315 309 312
f 312 309 308
f 318 319 321
f 321 319 320
f 319 318 309
f 309 318 310
f 311 307 317
f 317 307 306
f 306 297 317
f 317 297 296
f 306 322 297
f 297 322 298
f 305 323 306
f 306 323 322
f 323 305 324
f 324 305 310
f 304 317 295
f 295 317 296
f 318 325 310
f 310 325 324
f 323 324 326
f 326 324 327
f 324 325 327
f 327 325 328
f 326 327 329
f 329 327 330
f 329 331 326
f 326 331 332
f 333 330 328
f 328 330 327
f 323 326 322
f 322 326 332
f 322 332 298
f 298 332 299
f 325 318 334
f 334 318 321
f 313 316 335
f 335 316 304
f 335 336 313
f 313 336 314
f 304 303 335
f 335 303 337
f 336 335 338
f 338 335 337
f 336 339 314
f 314 339 340
f 246 299 238
f 238 299 341
f 239 342 282
f 282 342 302
f 342 239 341
f 341 239 238
f 341 331 342
f 342 331 343
f 331 329 343
f 343 329 344
f 342 343 302
f 302 343 345
f 341 299 331
f 331 299 332
f 346 301 345
f 345 301 302
f 346 303 301
f 301 303 300
f 347 337 346
f 346 337 303
f 347 346 348
f 348 346 345
f 349 347 350
f 350 347 348
f 343 344 345
f 345 344 348
f 344 351 348
f 348 351 350
f 337 347 338
f 338 347 349
f 353 338 352
f 352 338 349
f 352 355 354
f 354 355 356
f 352 349 355
f 355 349 350
f 352 354 353
f 353 354 334
f 353 334 339
f 339 334 321
f 339 336 353
f 353 336 338
f 329 330 344
f 344 330 351
f 356 351 333
f 333 351 330
f 356 355 351
f 351 355 350
f 354 356 328
f 328 356 333
f 328 325 354
f 354 325 334
f 309 315 319
f 319 315 320
f 320 340 321
f 321 340 339
f 320 315 340
f 340 315 314
f 137 136 261
f 261 136 259
f 140 166 141
f 141 166 165
f 172 171 195
f 195 171 196
f 171 174 196
f 196 174 190
f 178 177 264
f 264 177 187
f 172 195 140
f 140 195 166
f 137 261 262
f 262 261 275
f 178 264 141
f 141 264 138
f 262 177 213
f 213 177 176
f 136 174 259
f 259 174 173
f 358 359 357
f 357 359 360
f 362 363 361
f 361 363 364
f 361 364 365
f 365 364 366
f 367 368 370
f 370 368 369
f 76 371 247
f 247 371 372
f 373 374 362
f 362 374 363
f 376 377 375
f 375 377 378
f 289 229 380
f 380 229 379
f 381 379 263
f 263 379 229
f 383 384 382
f 382 384 385
f 386 368 374
f 374 368 363
f 76 289 371
f 371 289 380
f 377 376 359
f 359 376 387
f 388 386 360
f 360 386 374
f 389 383 366
f 366 383 390
f 392 393 391
f 391 393 394
f 383 382 390
f 390 382 395
f 396 365 390
f 390 365 366
f 389 366 367
f 367 366 364
f 357 397 358
f 358 397 398
f 373 399 357
f 357 399 397
f 389 367 400
f 400 367 370
f 382 385 375
f 375 385 372
f 357 360 373
f 373 360 374
f 361 401 362
f 362 401 402
f 387 388 359
f 359 388 360
f 363 368 364
f 364 368 367
f 358 398 403
f 403 398 404
f 396 392 405
f 405 392 391
f 392 395 393
f 393 395 378
f 393 403 394
f 394 403 404
f 375 378 382
f 382 378 395
f 365 396 406
f 406 396 405
f 362 402 373
f 373 402 399
f 271 270 400
f 400 270 384
f 401 361 406
f 406 361 365
f 381 369 386
f 386 369 368
f 392 396 395
f 395 396 390
f 393 378 403
f 403 378 377
f 403 377 358
f 358 377 359
f 406 405 408
f 408 405 407
f 406 408 401
f 401 408 409
f 401 409 402
f 402 409 410
f 402 410 399
f 399 410 411
f 405 391 407
f 407 391 412
f 391 394 412
f 412 394 413
f 394 404 413
f 413 404 414
f 415 416 412
f 412 416 407
f 418 419 417
f 417 419 420
f 421 422 418
f 418 422 419
f 419 422 424
f 424 422 423
f 425 426 424
f 424 426 427
f 423 428 424
f 424 428 425
f 427 420 424
f 424 420 419
f 420 429 417
f 417 429 430
f 423 422 431
f 431 422 421
f 421 409 431
f 431 409 408
f 421 432 409
f 409 432 410
f 418 433 421
f 421 433 432
f 434 433 417
f 417 433 418
f 431 416 423
f 423 416 428
f 416 431 407
f 407 431 408
f 435 434 430
f 430 434 417
f 433 434 436
f 436 434 437
f 434 435 437
f 437 435 438
f 436 437 439
f 439 437 440
f 439 441 436
f 436 441 442
f 438 443 437
f 437 443 440
f 436 442 433
f 433 442 432
f 432 442 410
f 410 442 411
f 435 430 445
f 445 430 444
f 430 429 444
f 444 429 446
f 425 428 447
f 447 428 416
f 426 425 448
f 448 425 447
f 416 415 447
f 447 415 449
f 447 449 448
f 448 449 450
f 451 452 448
f 448 452 426
f 446 452 444
f 444 452 451
f 399 411 397
f 397 411 453
f 398 454 404
f 404 454 414
f 454 398 453
f 453 398 397
f 453 441 454
f 454 441 455
f 441 439 455
f 455 439 456
f 454 455 414
f 414 455 457
f 441 453 442
f 442 453 411
f 458 413 457
f 457 413 414
f 458 415 413
f 413 415 412
f 458 459 415
f 415 459 449
f 459 458 460
f 460 458 457
f 461 459 462
f 462 459 460
f 455 456 457
f 457 456 460
f 456 463 460
f 460 463 462
f 459 461 449
f 449 461 450
f 465 450 464
f 464 450 461
f 464 467 466
f 466 467 468
f 464 461 467
f 467 461 462
f 464 466 465
f 465 466 445
f 465 445 451
f 451 445 444
f 451 448 465
f 465 448 450
f 439 440 456
f 456 440 463
f 468 463 443
f 443 463 440
f 468 467 463
f 463 467 462
f 466 468 438
f 438 468 443
f 438 435 466
f 466 435 445
f 420 427 429
f 429 427 446
f 446 427 452
f 452 427 426
f 370 369 188
f 188 369 186
f 371 376 372
f 372 376 375
f 380 379 387
f 387 379 388
f 379 381 388
f 388 381 386
f 385 384 278
f 278 384 270
f 380 387 371
f 371 387 376
f 400 370 271
f 271 370 188
f 385 278 372
f 372 278 247
f 400 384 389
f 389 384 383
f 369 381 186
f 186 381 263
f 221 271 144
f 144 271 188
f 221 19 207
f 207 19 22
f 19 18 22
f 22 18 23
f 18 219 23
f 23 219 208
f 469 470 472
f 472 470 471
f 474 475 473
f 473 475 476
f 473 476 477
f 477 476 478
f 480 481 479
f 479 481 482
f 483 484 474
f 474 484 475
f 486 487 485
f 485 487 488
f 489 490 77
f 77 490 142
f 491 489 248
f 248 489 77
f 493 494 492
f 492 494 495
f 496 480 484
f 484 480 475
f 486 497 487
f 487 497 471
f 498 496 472
f 472 496 484
f 499 493 478
f 478 493 500
f 501 502 504
f 504 502 503
f 493 492 500
f 500 492 505
f 506 477 500
f 500 477 478
f 499 478 479
f 479 478 476
f 469 507 470
f 470 507 508
f 483 509 469
f 469 509 507
f 479 482 499
f 499 482 510
f 492 495 485
f 485 495 511
f 483 469 484
f 484 469 472
f 473 512 474
f 474 512 513
f 497 498 471
f 471 498 472
f 475 480 476
f 476 480 479
f 470 508 514
f 514 508 515
f 506 502 516
f 516 502 501
f 503 502 488
f 488 502 505
f 514 515 503
f 503 515 504
f 485 488 492
f 492 488 505
f 477 506 517
f 517 506 516
f 474 513 483
f 483 513 509
f 510 292 494
f 494 292 164
f 512 473 517
f 517 473 477
f 491 481 496
f 496 481 480
f 502 506 505
f 505 506 500
f 503 488 514
f 514 488 487
f 514 487 470
f 470 487 471
f 517 516 519
f 519 516 518
f 517 519 512
f 512 519 520
f 512 520 513
f 513 520 521
f 513 521 509
f 509 521 522
f 516 501 518
f 518 501 523
f 501 504 523
f 523 504 524
f 524 504 525
f 525 504 515
f 526 527 523
f 523 527 518
f 529 530 528
f 528 530 531
f 532 533 529
f 529 533 530
f 530 533 535
f 535 533 534
f 536 537 535
f 535 537 538
f 534 539 535
f 535 539 536
f 538 531 535
f 535 531 530
f 540 541 531
f 531 541 528
f 533 532 534
f 534 532 542
f 532 520 542
f 542 520 519
f 532 543 520
f 520 543 521
f 529 544 532
f 532 544 543
f 544 529 545
f 545 529 528
f 534 542 539
f 539 542 527
f 527 542 518
f 518 542 519
f 541 546 528
f 528 546 545
f 547 544 548
f 548 544 545
f 546 549 545
f 545 549 548
f 550 547 551
f 551 547 548
f 547 550 553
f 553 550 552
f 549 554 548
f 548 554 551
f 544 547 543
f 543 547 553
f 543 553 521
f 521 553 522
f 546 541 556
f 556 541 555
f 541 540 555
f 555 540 557
f 536 539 558
f 558 539 527
f 537 536 559
f 559 536 558
f 527 526 558
f 558 526 560
f 559 558 561
f 561 558 560
f 559 562 537
f 537 562 563
f 557 563 555
f 555 563 562
f 509 522 507
f 507 522 564
f 508 565 515
f 515 565 525
f 565 508 564
f 564 508 507
f 564 552 565
f 565 552 566
f 552 550 566
f 566 550 567
f 565 566 525
f 525 566 568
f 564 522 552
f 552 522 553
f 569 524 568
f 568 524 525
f 569 526 524
f 524 526 523
f 570 560 569
f 569 560 526
f 570 569 571
f 571 569 568
f 572 570 573
f 573 570 571
f 566 567 568
f 568 567 571
f 567 574 571
f 571 574 573
f 570 572 560
f 560 572 561
f 576 561 575
f 575 561 572
f 575 578 577
f 577 578 579
f 575 572 578
f 578 572 573
f 575 577 576
f 576 577 556
f 576 556 562
f 562 556 555
f 562 559 576
f 576 559 561
f 550 551 567
f 567 551 574
f 579 574 554
f 554 574 551
f 579 578 574
f 574 578 573
f 579 554 577
f 577 554 549
f 549 546 577
f 577 546 556
f 531 538 540
f 540 538 557
f 557 538 563
f 563 538 537
f 481 294 482
f 482 294 293
f 580 486 511
f 511 486 485
f 490 489 497
f 497 489 498
f 489 491 498
f 498 491 496
f 163 495 164
f 164 495 494
f 580 490 486
f 486 490 497
f 482 293 510
f 510 293 292
f 495 163 511
f 511 163 199
f 494 493 510
f 510 493 499
f 481 491 294
f 294 491 248
f 582 583 581
f 581 583 584
f 586 587 585
f 585 587 588
f 585 588 589
f 589 588 590
f 592 593 591
f 591 593 594
f 595 596 598
f 598 596 597
f 599 600 586
f 586 600 587
f 601 602 604
f 604 602 603
f 605 606 608
f 608 606 607
f 609 607 200
f 200 607 606
f 610 611 613
f 613 611 612
f 600 614 587
f 587 614 592
f 596 605 597
f 597 605 608
f 602 615 603
f 603 615 583
f 616 614 584
f 584 614 600
f 611 618 617
f 617 618 590
f 620 621 619
f 619 621 622
f 610 623 611
f 611 623 618
f 624 589 618
f 618 589 590
f 617 590 591
f 591 590 588
f 581 625 582
f 582 625 626
f 599 627 581
f 581 627 625
f 591 594 617
f 617 594 628
f 601 610 598
f 598 610 613
f 581 584 599
f 599 584 600
f 585 629 586
f 586 629 630
f 615 616 583
f 583 616 584
f 587 592 588
f 588 592 591
f 582 626 631
f 631 626 632
f 624 620 633
f 633 620 619
f 621 620 604
f 604 620 623
f 631 632 621
f 621 632 622
f 610 601 623
f 623 601 604
f 589 624 634
f 634 624 633
f 586 630 599
f 599 630 627
f 203 202 628
f 628 202 612
f 629 585 634
f 634 585 589
f 609 593 614
f 614 593 592
f 620 624 623
f 623 624 618
f 631 621 603
f 603 621 604
f 582 631 583
f 583 631 603
f 634 633 636
f 636 633 635
f 634 636 629
f 629 636 637
f 629 637 630
f 630 637 638
f 630 638 627
f 627 638 639
f 633 619 635
f 635 619 640
f 619 622 640
f 640 622 641
f 641 622 642
f 642 622 632
f 644 635 643
f 643 635 640
f 645 646 648
f 648 646 647
f 649 650 646
f 646 650 647
f 647 650 652
f 652 650 651
f 652 653 655
f 655 653 654
f 651 656 652
f 652 656 653
f 655 648 652
f 652 648 647
f 648 657 645
f 645 657 658
f 650 649 651
f 651 649 659
f 649 637 659
f 659 637 636
f 649 660 637
f 637 660 638
f 661 660 646
f 646 660 649
f 662 661 645
f 645 661 646
f 651 659 656
f 656 659 644
f 644 659 635
f 635 659 636
f 663 662 658
f 658 662 645
f 664 661 665
f 665 661 662
f 663 666 662
f 662 666 665
f 667 664 668
f 668 664 665
f 664 667 670
f 670 667 669
f 666 671 665
f 665 671 668
f 661 664 660
f 660 664 670
f 660 670 638
f 638 670 639
f 658 672 663
f 663 672 673
f 658 657 672
f 672 657 674
f 653 656 675
f 675 656 644
f 653 675 654
f 654 675 676
f 675 644 677
f 677 644 643
f 676 675 678
f 678 675 677
f 679 680 676
f 676 680 654
f 674 680 672
f 672 680 679
f 627 639 625
f 625 639 681
f 626 682 632
f 632 682 642
f 681 682 625
f 625 682 626
f 669 683 681
f 681 683 682
f 667 684 669
f 669 684 683
f 682 683 642
f 642 683 685
f 681 639 669
f 669 639 670
f 686 641 685
f 685 641 642
f 641 686 640
f 640 686 643
f 686 687 643
f 643 687 677
f 687 686 688
f 688 686 685
f 689 687 690
f 690 687 688
f 683 684 685
f 685 684 688
f 684 691 688
f 688 691 690
f 687 689 677
f 677 689 678
f 693 678 692
f 692 678 689
f 692 695 694
f 694 695 696
f 692 689 695
f 695 689 690
f 692 694 693
f 693 694 673
f 693 673 679
f 679 673 672
f 679 676 693
f 693 676 678
f 684 667 691
f 691 667 668
f 696 691 671
f 671 691 668
f 696 695 691
f 691 695 690
f 694 696 666
f 666 696 671
f 666 663 694
f 694 663 673
f 648 655 657
f 657 655 674
f 674 655 680
f 680 655 654
f 593 162 594
f 594 162 290
f 598 597 601
f 601 597 602
f 615 608 616
f 616 608 607
f 607 609 616
f 616 609 614
f 697 595 613
f 613 595 598
f 597 608 602
f 602 608 615
f 594 290 628
f 628 290 203
f 628 612 617
f 617 612 611
f 593 609 162
f 162 609 200
f 105 29 698
f 698 29 699
f 268 126 701
f 701 126 700
f 126 125 700
f 700 125 702
f 252 703 250
f 250 703 704
f 32 268 705
f 705 268 701
f 288 105 706
f 706 105 698
f 29 32 699
f 699 32 705
f 707 251 706
f 706 251 288
f 250 704 125
f 125 704 702
f 703 252 707
f 707 252 251
f 706 708 707
f 707 708 709
f 707 709 703
f 703 709 710
f 703 710 704
f 704 710 711
f 704 711 702
f 702 711 712
f 706 698 708
f 708 698 713
f 698 699 713
f 713 699 714
f 699 705 714
f 714 705 715
f 717 708 716
f 716 708 713
f 719 720 718
f 718 720 721
f 722 723 719
f 719 723 720
f 724 725 723
f 723 725 720
f 724 726 725
f 725 726 727
f 728 721 725
f 725 721 720
f 721 728 729
f 729 728 730
f 729 731 721
f 721 731 718
f 724 723 732
f 732 723 722
f 722 710 732
f 732 710 709
f 722 733 710
f 710 733 711
f 719 734 722
f 722 734 733
f 734 719 735
f 735 719 718
f 724 732 726
f 726 732 717
f 717 732 708
f 708 732 709
f 731 736 718
f 718 736 735
f 737 734 738
f 738 734 735
f 736 739 735
f 735 739 738
f 740 737 741
f 741 737 738
f 737 740 743
f 743 740 742
f 739 744 738
f 738 744 741
f 734 737 733
f 733 737 743
f 733 743 711
f 711 743 712
f 736 731 746
f 746 731 745
f 731 729 745
f 745 729 730
f 727 726 747
f 747 726 717
f 748 727 749
f 749 727 747
f 747 717 750
f 750 717 716
f 749 747 751
f 751 747 750
f 749 752 748
f 748 752 753
f 730 753 745
f 745 753 752
f 728 725 748
f 748 725 727
f 730 728 753
f 753 728 748
f 700 702 754
f 754 702 712
f 705 701 715
f 715 701 755
f 754 755 700
f 700 755 701
f 742 756 754
f 754 756 755
f 740 757 742
f 742 757 756
f 755 756 715
f 715 756 758
f 754 712 742
f 742 712 743
f 759 714 758
f 758 714 715
f 714 759 713
f 713 759 716
f 759 760 716
f 716 760 750
f 760 759 761
f 761 759 758
f 762 760 763
f 763 760 761
f 756 757 758
f 758 757 761
f 757 764 761
f 761 764 763
f 760 762 750
f 750 762 751
f 766 751 765
f 765 751 762
f 767 765 769
f 769 765 768
f 765 762 768
f 768 762 763
f 765 767 766
f 766 767 746
f 766 746 752
f 752 746 745
f 752 749 766
f 766 749 751
f 757 740 764
f 764 740 741
f 769 764 744
f 744 764 741
f 769 768 764
f 764 768 763
f 767 769 739
f 739 769 744
f 739 736 767
f 767 736 746
f 219 217 208
f 208 217 209
f 209 217 210
f 210 217 193
f 198 580 199
f 199 580 511
f 76 75 289
f 289 75 272
f 277 207 291
f 291 207 184
f 290 183 203
f 203 183 84
f 490 580 142
f 142 580 198
f 142 198 143
f 143 198 197
f 149 276 72
f 72 276 73
f 104 103 279
f 279 103 770
f 770 596 279
f 279 596 595
f 605 596 771
f 771 596 770
f 771 770 772
f 772 770 103
f 772 103 773
f 773 103 102
f 155 774 101
f 101 774 102
f 773 102 97
f 97 102 774
f 775 773 100
f 100 773 97
f 773 775 772
f 772 775 776
f 772 776 771
f 771 776 777
f 200 606 197
f 197 606 777
f 189 71 778
f 778 71 74
f 97 774 98
f 98 774 155
f 183 161 184
f 184 161 291
f 777 276 197
f 197 276 143
f 777 606 771
f 771 606 605
f 613 612 697
f 697 612 202
f 595 697 279
f 279 697 202
f 73 276 776
f 776 276 777
f 776 775 73
f 73 775 74
f 100 778 775
f 775 778 74
f 778 100 189
f 189 100 99
f 245 242 99
f 99 242 189
f 131 33 256
f 28 1 95
f 95 1 62
f 27 2 28
f 28 2 1
f 265 115 266
f 266 115 114
f 95 62 69
f 69 62 64
f 62 61 64
f 64 61 65
f 61 13 65
f 65 13 130
f 13 12 130
f 130 12 14
f 31 11 32
f 32 11 268
f 15 12 31
f 31 12 11
f 31 30 15
f 15 30 231
f 30 106 231
f 231 106 232
f 287 237 106
f 106 237 232
f 254 90 287
f 287 90 237
f 253 44 254
f 254 44 90
f 253 249 44
f 44 249 7
f 267 127 268
f 268 127 126
f 10 3 241
f 241 3 116
f 3 2 116
f 116 2 114
f 2 27 114
f 114 27 266
f 27 26 266
f 266 26 113
f 26 286 113
f 113 286 110
f 286 243 110
f 110 243 255
f 243 242 255
f 255 242 256
f 242 245 256
f 256 245 131
f 245 244 131
f 131 244 132
f 265 37 115
f 115 37 41
f 41 37 42
f 42 37 40
f 92 91 40
f 40 91 42
f 236 233 92
f 92 233 91
f 191 194 236
f 236 194 233
f 258 285 244
f 244 285 132
f 257 55 258
f 258 55 285
f 257 154 201
f 201 154 185
f 56 201 204
f 204 201 180
f 55 257 56
f 56 257 201
f 204 85 56
f 56 85 52
f 86 122 53
f 53 122 79
f 212 215 86
f 86 215 122
f 211 216 212
f 212 216 215
f 192 280 211
f 211 280 216
f 191 240 192
f 192 240 280
f 249 124 7
f 7 124 8
f 124 127 8
f 8 127 241
f 127 267 241
f 241 267 10
f 10 267 9
f 9 267 11
o hand_right
v -0.082603 0.139267 0.811733
v -0.093222 0.137539 0.809231
v -0.084924 0.131562 0.806647
v -0.075171 0.134323 0.808153
v -0.103175 0.122757 0.797746
v -0.106596 0.122110 0.785826
v -0.091419 0.116186 0.786714
v -0.091459 0.117153 0.797208
v -0.068133 0.132242 0.804796
v -0.077836 0.127330 0.804743
v -0.064962 0.134368 0.800839
v -0.056572 0.144149 0.799975
v -0.059697 0.138740 0.804355
v -0.049976 0.148503 0.802495
v -0.060899 0.153421 0.794986
v -0.049431 0.158248 0.803948
v -0.075085 0.172492 0.811866
v -0.082843 0.175757 0.822441
v -0.067104 0.175265 0.830852
v -0.060776 0.170962 0.819330
v -0.083889 0.175198 0.843830
v -0.073968 0.175265 0.837121
v -0.089337 0.177117 0.828651
v -0.097420 0.176816 0.835056
v -0.094778 0.145201 0.820209
v -0.105292 0.144660 0.817307
v -0.101107 0.143333 0.813833
v -0.091081 0.143689 0.816484
v -0.064205 0.129970 0.790718
v -0.068754 0.140997 0.786649
v -0.064747 0.139655 0.793697
v -0.064572 0.127531 0.795866
v -0.133896 0.140185 0.816877
v -0.143534 0.146203 0.809484
v -0.140794 0.145628 0.804258
v -0.132475 0.140711 0.812170
v -0.126496 0.135586 0.788432
v -0.133616 0.143669 0.787389
v -0.133357 0.150888 0.775672
v -0.124294 0.145851 0.775742
v -0.116749 0.127596 0.787262
v -0.115773 0.135451 0.775723
v -0.104588 0.128060 0.775850
v -0.089071 0.119871 0.778356
v -0.149061 0.150491 0.820303
v -0.142984 0.146182 0.827334
v -0.030769 0.117266 0.831071
v -0.034339 0.118107 0.835710
v -0.035794 0.121336 0.833358
v -0.031783 0.120168 0.829168
v -0.145504 0.166602 0.832152
v -0.142691 0.176126 0.830225
v -0.149613 0.175448 0.827970
v -0.151781 0.166258 0.827901
v -0.137172 0.166996 0.837705
v -0.132933 0.176393 0.833023
v -0.018691 0.120410 0.834146
v -0.021812 0.117955 0.830846
v -0.021621 0.122579 0.828806
v -0.018980 0.125624 0.832284
v -0.065715 0.137034 0.808986
v -0.073185 0.139008 0.814379
v -0.052002 0.139313 0.816479
v -0.059611 0.140103 0.816501
v -0.057155 0.139794 0.809928
v -0.050653 0.139934 0.810520
v -0.075781 0.146136 0.832691
v -0.086181 0.146495 0.827405
v -0.081331 0.145140 0.823128
v -0.069297 0.143650 0.827531
v -0.095132 0.146547 0.838447
v -0.084121 0.146674 0.842690
v -0.090532 0.146773 0.848460
v -0.097329 0.145648 0.844555
v -0.064218 0.147538 0.846701
v -0.058964 0.148180 0.848509
v -0.060679 0.146880 0.851432
v -0.066998 0.147650 0.849315
v -0.156146 0.175774 0.825163
v -0.157267 0.166204 0.823064
v -0.100252 0.171963 0.858043
v -0.109131 0.165615 0.860994
v -0.098514 0.164629 0.870010
v -0.091546 0.172349 0.864509
v -0.136681 0.182255 0.824320
v -0.144489 0.183028 0.823705
v -0.018540 0.123134 0.839721
v -0.019261 0.128084 0.837976
v -0.101911 0.140473 0.771575
v -0.085393 0.128093 0.773926
v -0.114419 0.150134 0.772004
v -0.122709 0.157533 0.773176
v -0.130307 0.161952 0.771868
v -0.059054 0.141221 0.823022
v -0.081190 0.142553 0.817779
v -0.098079 0.145845 0.823967
v -0.113734 0.144263 0.850631
v -0.122918 0.143881 0.845449
v -0.114533 0.141637 0.839064
v -0.108142 0.143052 0.844874
v -0.111483 0.156107 0.862886
v -0.108386 0.148966 0.860375
v -0.100843 0.149748 0.865339
v -0.102304 0.156368 0.869410
v -0.064881 0.128670 0.783179
v -0.073145 0.140857 0.780250
v -0.146411 0.156083 0.830898
v -0.151248 0.156580 0.824756
v -0.157333 0.159297 0.819450
v -0.119330 0.141455 0.816014
v -0.131536 0.140875 0.808859
v -0.128993 0.139442 0.805413
v -0.117344 0.141913 0.813649
v -0.104497 0.133318 0.806962
v -0.115583 0.129881 0.800089
v -0.094608 0.126638 0.805786
v -0.138645 0.145011 0.796330
v -0.149057 0.147909 0.798546
v -0.145391 0.147878 0.790375
v -0.153203 0.150506 0.807088
v -0.156251 0.154238 0.814628
v -0.152055 0.186562 0.821907
v -0.140970 0.149243 0.783291
v -0.082649 0.113978 0.796592
v -0.075131 0.110514 0.795521
v -0.072096 0.115844 0.800530
v -0.079087 0.119523 0.802498
v -0.042461 0.148870 0.806831
v -0.046479 0.142399 0.807481
v -0.053721 0.142244 0.803990
v -0.127186 0.139882 0.826402
v -0.135278 0.144787 0.834890
v -0.051546 0.140480 0.822891
v -0.020982 0.130734 0.829653
v -0.023702 0.127104 0.825838
v -0.034232 0.140151 0.814448
v -0.030475 0.144527 0.818581
v -0.046177 0.143611 0.830314
v -0.049591 0.140097 0.825142
v -0.048414 0.139892 0.826828
v -0.046089 0.141682 0.832830
v -0.068356 0.147213 0.856788
v -0.074131 0.147855 0.854560
v -0.047977 0.165373 0.827809
v -0.042542 0.165747 0.815036
v -0.054619 0.167141 0.809169
v -0.081124 0.146848 0.837896
v -0.072272 0.146663 0.843257
v -0.074996 0.147126 0.846419
v -0.057243 0.142203 0.827299
v -0.050991 0.142549 0.828623
v -0.054082 0.143888 0.831576
v -0.061015 0.143485 0.830834
v -0.119707 0.167110 0.852830
v -0.122457 0.156016 0.855505
v -0.026214 0.117040 0.829551
v -0.026546 0.120707 0.827502
v -0.091214 0.147155 0.832590
v -0.069026 0.166919 0.803636
v -0.101662 0.146077 0.828138
v -0.073435 0.166225 0.861435
v -0.075337 0.158981 0.864643
v -0.070348 0.155479 0.866086
v -0.066909 0.160434 0.865051
v -0.037486 0.131275 0.841072
v -0.039641 0.127254 0.837392
v -0.037066 0.123908 0.838976
v -0.034643 0.127159 0.843256
v -0.049610 0.138285 0.819460
v -0.047214 0.138032 0.813540
v -0.045101 0.135305 0.817171
v -0.047384 0.136972 0.822590
v -0.042647 0.140388 0.810665
v -0.039814 0.136976 0.813936
v -0.032028 0.134682 0.842447
v -0.024953 0.135816 0.840011
v -0.034085 0.149263 0.831399
v -0.039595 0.144925 0.835211
v -0.110005 0.179847 0.826856
v -0.117354 0.178102 0.835123
v -0.104996 0.175262 0.843591
v -0.092794 0.173760 0.852648
v -0.080860 0.171363 0.860030
v -0.072588 0.174735 0.851627
v -0.111463 0.173536 0.848482
v -0.045633 0.151890 0.832148
v -0.040707 0.157526 0.827012
v -0.044950 0.158177 0.830957
v -0.105810 0.144739 0.834221
v -0.028566 0.124493 0.824587
v -0.121986 0.178129 0.784265
v -0.126000 0.184468 0.795403
v -0.117814 0.181770 0.797212
v -0.113386 0.173881 0.784920
v -0.038602 0.124031 0.831434
v -0.034644 0.122817 0.826345
v -0.077218 0.147651 0.860410
v -0.071160 0.147435 0.861789
v -0.070988 0.149009 0.864881
v -0.077340 0.147630 0.865803
v -0.122222 0.176558 0.838313
v -0.091085 0.159954 0.874720
v -0.085503 0.168147 0.869585
v -0.127780 0.180703 0.827469
v -0.121466 0.182894 0.820273
v -0.130015 0.185147 0.816062
v -0.059581 0.170211 0.844889
v -0.102964 0.179866 0.821697
v -0.115761 0.182477 0.815117
v -0.125718 0.185144 0.809841
v -0.133055 0.187721 0.806718
v -0.137042 0.187322 0.813847
v -0.021686 0.133604 0.835446
v -0.022630 0.130085 0.843571
v -0.144911 0.191393 0.811686
v -0.140209 0.191019 0.803660
v -0.109790 0.181085 0.808204
v -0.103057 0.177873 0.799640
v -0.097677 0.178376 0.814863
v -0.089907 0.175240 0.806938
v -0.054203 0.174549 0.836146
v -0.024990 0.114590 0.851513
v -0.027362 0.124543 0.847535
v -0.032686 0.123045 0.845626
v -0.029306 0.114205 0.851288
v -0.029460 0.129621 0.845173
v -0.022044 0.125041 0.845253
v -0.083237 0.167661 0.796261
v -0.049125 0.144629 0.833100
v -0.097623 0.167030 0.786613
v -0.072396 0.156540 0.787944
v -0.083642 0.153921 0.781048
v -0.111727 0.164205 0.775761
v -0.098371 0.153528 0.773605
v -0.128225 0.172217 0.775068
v -0.119997 0.169227 0.776618
v -0.085587 0.141772 0.773782
v -0.031465 0.109085 0.837943
v -0.034271 0.111199 0.842469
v -0.129456 0.181179 0.782001
v -0.085861 0.122733 0.804111
v -0.114465 0.142695 0.827838
v -0.110937 0.143937 0.823573
v -0.127992 0.144042 0.841525
v -0.120029 0.140906 0.833350
v -0.026702 0.108362 0.835625
v -0.056114 0.150137 0.851024
v -0.057495 0.150132 0.850672
v -0.083306 0.111924 0.787844
v -0.076923 0.109139 0.788119
v -0.070262 0.116131 0.778942
v -0.074246 0.110944 0.781944
v -0.081186 0.114893 0.779962
v -0.077430 0.120833 0.776467
v -0.120654 0.140917 0.818292
v -0.122539 0.140522 0.821769
v -0.129225 0.166932 0.845084
v -0.131053 0.155798 0.847861
v -0.038461 0.145353 0.810900
v -0.039972 0.156227 0.810008
v -0.035755 0.150924 0.814406
v -0.031284 0.149480 0.823874
v -0.046253 0.146703 0.833578
v -0.043468 0.149075 0.831619
v -0.122772 0.135029 0.803172
v -0.112296 0.139440 0.810217
v -0.073378 0.125307 0.802949
v -0.067891 0.122375 0.801119
v -0.067273 0.145431 0.835623
v -0.051422 0.161833 0.847884
v -0.047605 0.164788 0.840175
v -0.058988 0.145992 0.838546
v -0.019248 0.109606 0.839426
v -0.022952 0.108343 0.836305
v -0.036366 0.156323 0.819462
v -0.081130 0.146593 0.852318
v -0.057726 0.163576 0.850032
v -0.053346 0.156395 0.851891
v -0.096921 0.154296 0.872362
v -0.134015 0.186972 0.792358
v -0.035685 0.120158 0.841704
v -0.034337 0.113408 0.847019
v -0.021123 0.114752 0.849546
v -0.018225 0.113321 0.844444
v -0.138026 0.154942 0.839360
v -0.108235 0.144619 0.820964
v -0.075649 0.131733 0.775879
v -0.067253 0.123183 0.779595
v -0.054965 0.146896 0.839903
v -0.078900 0.165358 0.865544
v -0.065778 0.169094 0.856597
v -0.059175 0.162920 0.861004
v -0.054469 0.159410 0.856136
v -0.053698 0.153076 0.852852
v -0.021903 0.109807 0.852129
v -0.018822 0.107988 0.847164
v -0.019881 0.104226 0.842263
v -0.023323 0.103455 0.839000
v -0.027474 0.104905 0.837909
v -0.025967 0.109709 0.854037
v -0.029889 0.109461 0.853424
v -0.034199 0.110413 0.848787
v -0.027868 0.105682 0.855791
v -0.023844 0.102332 0.855499
v -0.024862 0.091443 0.847143
v -0.021740 0.096477 0.846540
v -0.022174 0.095158 0.848948
v -0.024398 0.090912 0.850360
v -0.026185 0.086966 0.853208
v -0.027048 0.086870 0.849720
v -0.021669 0.099041 0.851461
v -0.024580 0.093586 0.854117
v -0.026445 0.095853 0.857202
v -0.027969 0.091078 0.859533
v -0.026192 0.088842 0.856947
v -0.024074 0.099334 0.855297
v -0.020483 0.101023 0.850716
v -0.028871 0.084574 0.853351
v -0.027210 0.085100 0.855236
v -0.027779 0.086508 0.858247
v -0.030410 0.084864 0.858218
v -0.024391 0.098681 0.841412
v -0.026811 0.091546 0.845382
v -0.030009 0.087728 0.848875
v -0.031510 0.085424 0.852603
v -0.030864 0.092180 0.845780
v -0.032602 0.089157 0.849170
v -0.034142 0.087514 0.852572
v -0.034470 0.093673 0.847621
v -0.035022 0.090727 0.850602
v -0.031688 0.103307 0.841153
v -0.028065 0.101703 0.839523
v -0.035726 0.088973 0.852446
v -0.032563 0.085532 0.857920
v -0.028279 0.098928 0.858131
v -0.030769 0.092696 0.860137
v -0.030483 0.099866 0.858089
v -0.032871 0.093834 0.860452
v -0.031347 0.088485 0.861422
v -0.029034 0.088433 0.860194
v -0.031673 0.107287 0.839696
v -0.034401 0.109520 0.844426
v -0.034625 0.106315 0.845723
v -0.036781 0.096269 0.850948
v -0.034804 0.107244 0.850089
v -0.031617 0.105576 0.854995
v -0.033373 0.099432 0.857554
v -0.035956 0.098700 0.855382
v -0.034910 0.094504 0.858957
v -0.036199 0.094257 0.856717
v -0.036782 0.092490 0.853326
v -0.035476 0.090478 0.858892
v -0.033397 0.089361 0.860783
v -0.034916 0.087598 0.856478
v -0.036329 0.091473 0.857367
v -0.035843 0.089670 0.855001
v -0.040070 0.123613 0.853647
v -0.044067 0.125002 0.858449
v -0.043579 0.128943 0.856029
v -0.040165 0.127586 0.852045
v -0.026951 0.127006 0.857490
v -0.031139 0.124396 0.853535
v -0.030208 0.129312 0.851504
v -0.026738 0.133013 0.856308
v -0.027590 0.130628 0.863757
v -0.028228 0.136641 0.862099
v -0.027964 0.138241 0.853306
v -0.031624 0.134165 0.848616
v -0.041982 0.148247 0.837146
v -0.039069 0.153213 0.840660
v -0.055594 0.145965 0.848308
v -0.054525 0.147908 0.851420
v -0.036142 0.123497 0.852641
v -0.035456 0.127836 0.850695
v -0.046871 0.135672 0.862011
v -0.047581 0.132598 0.857459
v -0.045833 0.130268 0.860211
v -0.044364 0.132826 0.864917
v -0.049043 0.143960 0.837778
v -0.052538 0.145264 0.842937
v -0.045659 0.145197 0.836665
v -0.042379 0.139346 0.865368
v -0.036049 0.142087 0.865342
v -0.044696 0.156642 0.853830
v -0.049419 0.153086 0.855763
v -0.036213 0.131411 0.847424
v -0.045067 0.130331 0.852750
v -0.041485 0.129845 0.848847
v -0.030474 0.141941 0.859335
v -0.033976 0.136563 0.867966
v -0.038464 0.118184 0.874118
v -0.039266 0.129659 0.870254
v -0.043534 0.128128 0.867606
v -0.043193 0.116769 0.872793
v -0.040104 0.134899 0.868094
v -0.033455 0.130786 0.869294
v -0.042447 0.110551 0.860254
v -0.046180 0.112337 0.865107
v -0.038173 0.109925 0.858649
v -0.040494 0.156871 0.846881
v -0.029282 0.114224 0.862037
v -0.034050 0.111090 0.858722
v -0.045745 0.126656 0.863184
v -0.046302 0.114419 0.869719
v -0.034009 0.118591 0.873020
v -0.029100 0.118325 0.867570
v -0.033862 0.112682 0.874218
v -0.029932 0.111835 0.869246
v -0.030283 0.108438 0.863363
v -0.034962 0.106980 0.860138
v -0.038963 0.107098 0.859932
v -0.038140 0.112393 0.875625
v -0.042899 0.111747 0.874594
v -0.046059 0.111506 0.870447
v -0.041165 0.105609 0.876541
v -0.036782 0.103940 0.875770
v -0.040474 0.089505 0.864131
v -0.037362 0.094766 0.863754
v -0.036677 0.094322 0.866288
v -0.039489 0.089496 0.866792
v -0.033221 0.099557 0.864958
v -0.034022 0.098206 0.867006
v -0.034184 0.100487 0.871165
v -0.037793 0.095284 0.870929
v -0.040049 0.097409 0.874728
v -0.042390 0.092072 0.875374
v -0.040076 0.089708 0.871820
v -0.036712 0.100531 0.874190
v -0.041413 0.086614 0.868048
v -0.043556 0.085583 0.866956
v -0.032007 0.103065 0.871065
v -0.035570 0.103127 0.860785
v -0.039762 0.095179 0.861747
v -0.043581 0.089791 0.862974
v -0.046591 0.086113 0.867083
v -0.043991 0.095883 0.861647
v -0.046686 0.090700 0.863501
v -0.048658 0.087930 0.867320
v -0.048228 0.097266 0.863455
v -0.050064 0.092135 0.865678
v -0.043917 0.106864 0.861840
v -0.039962 0.104926 0.859797
v -0.050005 0.089966 0.867258
v -0.044287 0.085070 0.871734
v -0.047579 0.085605 0.871142
v -0.042731 0.086152 0.871795
v -0.041523 0.098414 0.875961
v -0.044538 0.092508 0.875907
v -0.044299 0.099163 0.876451
v -0.046999 0.092515 0.876113
v -0.045739 0.087870 0.875305
v -0.044101 0.087733 0.874768
v -0.042674 0.108575 0.861867
v -0.045795 0.110451 0.866259
v -0.046819 0.108959 0.866330
v -0.050439 0.099024 0.868071
v -0.046848 0.109593 0.871135
v -0.044456 0.107056 0.875244
v -0.046918 0.100150 0.875676
v -0.049759 0.099884 0.872757
v -0.049037 0.093360 0.876093
v -0.050565 0.095051 0.873709
v -0.051608 0.093908 0.869094
v -0.049691 0.088836 0.874810
v -0.047531 0.087926 0.875283
v -0.049212 0.087111 0.870683
v -0.050997 0.091125 0.873345
v -0.050827 0.089823 0.869885
v -0.051507 0.129158 0.864849
v -0.055815 0.130161 0.868658
v -0.056458 0.133265 0.866926
v -0.052149 0.132559 0.863322
v -0.040396 0.133792 0.869550
v -0.042571 0.130803 0.866131
v -0.042931 0.135250 0.864102
v -0.040797 0.139515 0.866998
v -0.041340 0.134824 0.875206
v -0.041986 0.142514 0.872498
v -0.041942 0.144553 0.864610
v -0.043860 0.139293 0.861946
v -0.051660 0.149995 0.854860
v -0.049805 0.154974 0.858808
v -0.046840 0.129518 0.864667
v -0.047427 0.133097 0.862929
v -0.059131 0.138219 0.873439
v -0.059305 0.135527 0.869351
v -0.058109 0.134812 0.871840
v -0.056992 0.136904 0.875531
v -0.060797 0.145024 0.853823
v -0.065066 0.146084 0.857974
v -0.055896 0.146121 0.853543
v -0.055068 0.142600 0.876512
v -0.049119 0.146916 0.875799
v -0.059099 0.155534 0.869652
v -0.063959 0.151792 0.869163
v -0.047888 0.136093 0.860929
v -0.057505 0.134208 0.864438
v -0.053011 0.134025 0.861172
v -0.044331 0.147390 0.869955
v -0.046973 0.141989 0.877787
v -0.048996 0.120943 0.886077
v -0.051361 0.135976 0.880452
v -0.056090 0.133816 0.877383
v -0.053227 0.120292 0.884729
v -0.052831 0.139520 0.878810
v -0.045687 0.136709 0.879714
v -0.051927 0.115815 0.871273
v -0.055268 0.117382 0.875464
v -0.047567 0.116788 0.870159
v -0.052562 0.157808 0.864836
v -0.067274 0.147915 0.865121
v -0.040978 0.118223 0.873801
v -0.044244 0.117219 0.870970
v -0.057289 0.132078 0.873483
v -0.055885 0.119164 0.880997
v -0.044168 0.121848 0.884586
v -0.040352 0.121358 0.879171
v -0.044869 0.115995 0.885826
v -0.041046 0.115445 0.880317
v -0.041688 0.113392 0.874496
v -0.045536 0.113561 0.871453
v -0.048938 0.113799 0.870750
v -0.050218 0.115868 0.886854
v -0.053983 0.116040 0.885314
v -0.055809 0.117942 0.880873
v -0.052241 0.111943 0.886954
v -0.047547 0.109065 0.885847
v -0.053216 0.096887 0.874233
v -0.049807 0.102051 0.874269
v -0.049637 0.101896 0.875468
v -0.052572 0.096510 0.875840
v -0.044918 0.106955 0.875664
v -0.045971 0.105551 0.876715
v -0.045540 0.106578 0.880609
v -0.049458 0.101072 0.880779
v -0.052707 0.103800 0.885268
v -0.055294 0.098903 0.884584
v -0.052401 0.095936 0.880670
v -0.048048 0.107254 0.884493
v -0.054393 0.093763 0.876797
v -0.054815 0.092928 0.875152
v -0.043648 0.108565 0.881029
v -0.047218 0.109175 0.871775
v -0.051511 0.102916 0.871877
v -0.054986 0.097790 0.871791
v -0.057732 0.094601 0.873615
v -0.054971 0.104609 0.871361
v -0.057486 0.099725 0.871876
v -0.059822 0.096804 0.873628
v -0.057867 0.105904 0.872583
v -0.059783 0.101556 0.873311
v -0.053508 0.113662 0.872188
v -0.050405 0.111591 0.870879
v -0.060818 0.098797 0.874452
v -0.056505 0.092201 0.879599
v -0.060359 0.093739 0.878680
v -0.055259 0.093369 0.879908
v -0.053576 0.105016 0.886389
v -0.057336 0.099102 0.885717
v -0.056116 0.106401 0.886463
v -0.059606 0.100537 0.885717
v -0.058050 0.094926 0.883875
v -0.056925 0.095166 0.883488
v -0.052429 0.114849 0.872093
v -0.055291 0.116790 0.876074
v -0.056118 0.115763 0.875986
v -0.060868 0.107390 0.876330
v -0.056770 0.116509 0.880731
v -0.055821 0.112562 0.885326
v -0.058772 0.107362 0.884483
v -0.060987 0.107598 0.881130
v -0.061378 0.101964 0.884008
v -0.061969 0.103464 0.881579
v -0.062326 0.102908 0.876566
v -0.061929 0.098280 0.881941
v -0.060434 0.096192 0.883566
v -0.061939 0.096355 0.877668
v -0.062698 0.100142 0.880368
v -0.062513 0.098778 0.877111
v -0.067324 0.146702 0.861812
v -0.067957 0.131319 0.872978
v -0.071156 0.131327 0.875899
v -0.071243 0.132388 0.875791
v -0.068727 0.132934 0.872125
v -0.059072 0.138032 0.876139
v -0.060947 0.134732 0.873188
v -0.061415 0.138525 0.871718
v -0.059819 0.141686 0.874664
v -0.060362 0.140178 0.880804
v -0.061600 0.143005 0.879718
v -0.062415 0.144825 0.873378
v -0.063894 0.141802 0.870027
v -0.074102 0.154549 0.865244
v -0.074816 0.158920 0.868530
v -0.091674 0.150367 0.874701
v -0.092212 0.147511 0.870212
v -0.085749 0.143062 0.874439
v -0.085933 0.146254 0.877993
v -0.064302 0.132626 0.872262
v -0.065115 0.135315 0.870438
v -0.074138 0.136948 0.883711
v -0.074556 0.134416 0.879467
v -0.073303 0.133003 0.879404
v -0.073452 0.134589 0.883833
v -0.088349 0.145979 0.866910
v -0.083628 0.146884 0.865260
v -0.081416 0.144123 0.866710
v -0.082998 0.141968 0.870603
v -0.076719 0.147363 0.865256
v -0.071676 0.140339 0.885313
v -0.067325 0.144385 0.883986
v -0.082784 0.155878 0.879653
v -0.085326 0.151435 0.879591
v -0.066007 0.137655 0.869717
v -0.072967 0.134045 0.874935
v -0.069798 0.134297 0.872046
v -0.063658 0.146265 0.878824
v -0.065862 0.141229 0.884508
v -0.067764 0.129022 0.888922
v -0.070102 0.136020 0.886867
v -0.073399 0.133378 0.884271
v -0.070608 0.127907 0.887412
v -0.070447 0.137451 0.885819
v -0.064837 0.138231 0.885792
v -0.067728 0.125740 0.875087
v -0.071125 0.126237 0.879456
v -0.064401 0.126364 0.874063
v -0.078149 0.159978 0.874001
v -0.058398 0.129387 0.877853
v -0.061068 0.127060 0.874981
v -0.072992 0.131763 0.879797
v -0.072150 0.126900 0.883946
v -0.063030 0.130380 0.887984
v -0.058816 0.131850 0.883185
v -0.062474 0.125283 0.887943
v -0.058420 0.127181 0.883149
v -0.059229 0.125583 0.877169
v -0.062560 0.125302 0.874801
v -0.065825 0.125151 0.874310
v -0.067486 0.124594 0.888959
v -0.070250 0.124458 0.887748
v -0.071902 0.125060 0.884273
v -0.067368 0.120427 0.888465
v -0.063289 0.119004 0.886138
v -0.066684 0.111848 0.875260
v -0.065053 0.115879 0.875349
v -0.064464 0.115468 0.876381
v -0.065764 0.111443 0.875767
v -0.061832 0.120331 0.876709
v -0.062113 0.118768 0.877705
v -0.061205 0.119700 0.881174
v -0.063177 0.114520 0.880437
v -0.065653 0.113906 0.885239
v -0.066842 0.109860 0.884110
v -0.064232 0.110639 0.880104
v -0.062917 0.117715 0.884769
v -0.066022 0.108589 0.876345
v -0.066974 0.107786 0.875611
v -0.059847 0.121641 0.881619
v -0.064695 0.122198 0.874319
v -0.067255 0.115880 0.873829
v -0.068690 0.110808 0.874104
v -0.069338 0.107258 0.875834
v -0.069564 0.117095 0.873865
v -0.071015 0.111282 0.874101
v -0.071586 0.107995 0.875970
v -0.072448 0.117941 0.875505
v -0.072969 0.112249 0.875574
v -0.070968 0.123877 0.876315
v -0.068045 0.123037 0.874302
v -0.072643 0.109276 0.876632
v -0.066808 0.106055 0.879247
v -0.069887 0.106059 0.878976
v -0.065514 0.107052 0.879805
v -0.066669 0.114148 0.886310
v -0.068294 0.109316 0.884954
v -0.068944 0.114709 0.887159
v -0.070514 0.109531 0.884964
v -0.068255 0.106504 0.882622
v -0.066592 0.107583 0.882396
v -0.069497 0.124729 0.876084
v -0.071345 0.124966 0.879561
v -0.072659 0.123718 0.880424
v -0.074268 0.118007 0.879407
v -0.072448 0.123182 0.885041
v -0.070255 0.121683 0.887913
v -0.071527 0.115540 0.886415
v -0.073810 0.116628 0.883992
v -0.072447 0.109998 0.883930
v -0.074269 0.111536 0.881945
v -0.074644 0.112430 0.878621
v -0.072062 0.107378 0.881055
v -0.070563 0.106457 0.881868
v -0.071803 0.106998 0.878744
v -0.073344 0.108664 0.880254
v -0.073248 0.108881 0.878559
v -0.089195 0.153115 0.876657
v -0.054981 0.118443 0.787725
v -0.055241 0.119463 0.793329
v -0.063229 0.106502 0.799256
v -0.059258 0.112083 0.800898
v -0.064989 0.102452 0.794078
v -0.063586 0.104333 0.783377
v -0.065780 0.102605 0.788265
v -0.056403 0.116832 0.798623
v -0.056674 0.115492 0.782644
v -0.060400 0.109698 0.780259
v -0.048892 0.112116 0.783658
v -0.052913 0.105645 0.781261
v -0.056154 0.099941 0.783706
v -0.059953 0.098642 0.789639
v -0.060878 0.098985 0.794657
v -0.049497 0.115578 0.790082
v -0.050601 0.116288 0.795543
v -0.053785 0.113465 0.800634
v -0.043655 0.112277 0.794744
v -0.037961 0.103953 0.794166
v -0.037942 0.085127 0.799142
v -0.043364 0.088392 0.796478
v -0.040968 0.089732 0.795501
v -0.036196 0.086379 0.797507
v -0.045323 0.092113 0.792670
v -0.043073 0.092805 0.793326
v -0.040855 0.097601 0.792471
v -0.036606 0.094447 0.794606
v -0.037818 0.101186 0.794725
v -0.034795 0.099808 0.797293
v -0.032287 0.091535 0.796689
v -0.032226 0.085805 0.798014
v -0.028829 0.088999 0.798753
v -0.032849 0.084475 0.800912
v -0.040548 0.098075 0.789736
v -0.052410 0.092871 0.793030
v -0.046690 0.088436 0.798278
v -0.040280 0.085386 0.802143
v -0.034164 0.085025 0.803895
v -0.048806 0.090072 0.801933
v -0.042247 0.088116 0.805121
v -0.036570 0.088491 0.806727
v -0.048904 0.093716 0.805318
v -0.042324 0.091654 0.807105
v -0.058066 0.100853 0.800632
v -0.057297 0.095636 0.796667
v -0.038045 0.090921 0.807358
v -0.027747 0.088145 0.801337
v -0.029272 0.088919 0.804665
v -0.034827 0.102992 0.798735
v -0.030341 0.097209 0.798884
v -0.030572 0.099168 0.801308
v -0.036706 0.105851 0.801010
v -0.031572 0.100435 0.803776
v -0.027440 0.094370 0.802044
v -0.028226 0.093630 0.799326
v -0.060671 0.103009 0.799495
v -0.058029 0.108797 0.801448
v -0.055555 0.106909 0.802455
v -0.046938 0.099968 0.807070
v -0.050988 0.111220 0.802532
v -0.046286 0.113104 0.798964
v -0.039036 0.106476 0.804009
v -0.042931 0.104711 0.806421
v -0.034291 0.100267 0.806289
v -0.036978 0.099164 0.807430
v -0.040198 0.095446 0.808245
v -0.031943 0.095525 0.806850
v -0.028859 0.095347 0.804872
v -0.032716 0.091168 0.807090
v -0.034700 0.095957 0.807440
v -0.035884 0.093072 0.807723
v -0.096403 0.149122 0.867304
v -0.091957 0.146804 0.862922
v -0.097604 0.146936 0.860763
v -0.105288 0.145401 0.856124
v -0.115468 0.148051 0.855376
v -0.101048 0.144769 0.850511
v -0.093242 0.146229 0.855715
v -0.084984 0.146564 0.858931
v -0.103770 0.144753 0.840605
f 780 781 779
f 779 781 782
f 783 784 786
f 786 784 785
f 787 782 788
f 788 782 781
f 790 791 789
f 789 791 787
f 792 790 794
f 794 790 793
f 796 797 795
f 795 797 798
f 800 801 799
f 799 801 802
f 804 805 803
f 803 805 806
f 808 809 807
f 807 809 810
f 811 812 814
f 814 812 813
f 815 816 818
f 818 816 817
f 819 820 784
f 784 820 821
f 784 821 785
f 785 821 822
f 823 812 824
f 824 812 811
f 826 827 825
f 825 827 828
f 830 831 829
f 829 831 832
f 834 830 833
f 833 830 829
f 836 837 835
f 835 837 838
f 839 840 782
f 782 840 779
f 842 843 841
f 841 843 844
f 846 847 845
f 845 847 848
f 850 851 849
f 849 851 852
f 854 855 853
f 853 855 856
f 831 857 832
f 832 857 858
f 860 861 859
f 859 861 862
f 863 864 830
f 830 864 831
f 835 838 865
f 865 838 866
f 867 868 821
f 821 868 822
f 821 820 867
f 867 820 869
f 818 817 870
f 870 817 871
f 872 848 842
f 842 848 847
f 791 839 787
f 787 839 782
f 803 806 847
f 847 806 873
f 874 803 846
f 846 803 847
f 876 877 875
f 875 877 878
f 879 880 882
f 882 880 881
f 884 808 883
f 883 808 807
f 829 832 885
f 885 832 886
f 832 858 886
f 886 858 887
f 889 890 888
f 888 890 891
f 893 783 892
f 892 783 894
f 893 819 783
f 783 819 784
f 814 813 889
f 889 813 895
f 813 896 895
f 895 896 897
f 812 898 813
f 813 898 896
f 812 823 898
f 898 823 899
f 903 904 902
f 902 904 905
f 906 907 792
f 792 907 908
f 811 909 824
f 824 909 910
f 911 872 841
f 841 872 842
f 912 913 915
f 915 913 914
f 917 918 916
f 916 918 919
f 855 920 856
f 856 920 921
f 922 923 798
f 798 923 924
f 926 927 925
f 925 927 850
f 929 930 928
f 928 930 931
f 860 879 861
f 861 879 882
f 879 860 933
f 933 860 932
f 934 935 836
f 836 935 837
f 936 846 925
f 925 846 845
f 937 924 793
f 793 924 794
f 846 936 874
f 874 936 938
f 907 844 908
f 908 844 843
f 940 941 939
f 939 941 942
f 944 945 943
f 943 945 946
f 948 949 947
f 947 949 950
f 952 949 951
f 951 949 948
f 954 955 953
f 953 955 956
f 958 959 957
f 957 959 802
f 960 961 799
f 799 961 962
f 859 963 860
f 860 963 932
f 964 965 966
f 966 965 922
f 936 849 938
f 938 849 967
f 968 913 935
f 935 913 837
f 947 950 917
f 917 950 918
f 925 850 936
f 936 850 849
f 970 971 969
f 969 971 972
f 945 944 827
f 827 944 973
f 974 968 828
f 828 968 935
f 975 976 978
f 978 976 977
f 799 802 960
f 960 802 959
f 924 937 798
f 798 937 795
f 960 959 859
f 859 959 963
f 979 963 958
f 958 963 959
f 980 981 861
f 861 981 862
f 983 984 982
f 982 984 863
f 985 800 962
f 962 800 799
f 957 802 986
f 986 802 801
f 986 987 957
f 957 987 983
f 987 988 983
f 983 988 984
f 990 984 989
f 989 984 988
f 957 983 958
f 958 983 982
f 991 954 866
f 866 954 992
f 864 863 990
f 990 863 984
f 971 995 996
f 995 997 996
f 996 997 998
f 997 796 998
f 998 796 795
f 797 999 798
f 798 999 922
f 1000 1001 1003
f 1003 1001 1002
f 953 1004 954
f 954 1004 992
f 1005 865 992
f 992 865 866
f 998 795 1006
f 1006 795 937
f 912 991 838
f 838 991 866
f 916 1007 929
f 929 1007 930
f 971 970 988
f 988 970 989
f 1008 972 996
f 996 972 971
f 1009 1010 1006
f 1006 1010 1008
f 1011 1012 869
f 869 1012 867
f 1013 1014 871
f 871 1014 870
f 1008 1010 1012
f 1012 1010 1015
f 825 1016 826
f 826 1016 1017
f 1018 969 1013
f 1013 969 1014
f 783 786 894
f 894 786 1019
f 1020 1021 967
f 967 1021 938
f 1022 1023 876
f 876 1023 877
f 934 1024 825
f 825 1024 1016
f 854 1025 855
f 855 1025 1026
f 1028 903 1027
f 1027 903 902
f 1030 1031 1029
f 1029 1031 1032
f 889 888 814
f 814 888 1033
f 1034 811 1033
f 1033 811 814
f 1035 1036 932
f 932 1036 933
f 841 947 911
f 911 947 917
f 844 948 841
f 841 948 947
f 951 948 907
f 907 948 844
f 907 906 951
f 951 906 1037
f 906 1038 1037
f 1037 1038 1039
f 991 912 1040
f 1040 912 915
f 1041 1042 964
f 964 1042 965
f 890 1043 891
f 891 1043 1044
f 789 1045 1046
f 1012 1011 1008
f 1008 1011 972
f 931 1047 848
f 848 1047 845
f 953 956 943
f 943 956 919
f 928 931 872
f 872 931 848
f 1049 999 1048
f 1048 999 985
f 1047 931 1050
f 1050 931 930
f 899 823 887
f 887 823 886
f 825 828 934
f 934 828 935
f 835 1051 836
f 836 1051 1052
f 923 1053 1038
f 1038 1053 1039
f 1054 927 921
f 921 927 856
f 926 1047 853
f 853 1047 1050
f 985 1055 1048
f 1048 1055 1056
f 973 974 827
f 827 974 828
f 837 913 838
f 838 913 912
f 861 882 980
f 980 882 1057
f 927 926 856
f 856 926 853
f 1025 1056 1026
f 1026 1056 1055
f 961 960 862
f 862 960 859
f 826 1017 1059
f 1059 1017 1060
f 1005 1001 1061
f 1061 1001 1000
f 1001 1004 1002
f 1002 1004 946
f 1059 1060 1002
f 1002 1060 1003
f 943 946 953
f 953 946 1004
f 1042 1041 916
f 916 1041 1007
f 792 794 906
f 906 794 1038
f 998 1006 996
f 996 1006 1008
f 865 1005 1062
f 1062 1005 1061
f 1038 794 923
f 923 794 924
f 1022 876 1036
f 1036 876 933
f 836 1052 934
f 934 1052 1024
f 885 1063 829
f 829 1063 833
f 1021 1064 938
f 938 1064 874
f 1012 1015 867
f 867 1015 868
f 824 910 885
f 885 910 1063
f 1031 1030 1027
f 1027 1030 1028
f 1064 804 874
f 874 804 803
f 884 883 1065
f 1065 883 1066
f 1050 930 1067
f 1067 930 1007
f 916 929 917
f 917 929 911
f 961 1068 939
f 939 1068 940
f 1069 1070 1055
f 1055 1070 1071
f 929 928 911
f 911 928 872
f 1040 1053 955
f 955 1053 965
f 922 965 923
f 923 965 1053
f 1051 835 1062
f 1062 835 865
f 952 914 968
f 968 914 913
f 889 895 890
f 890 895 816
f 895 897 816
f 816 897 901
f 890 816 1043
f 1043 816 815
f 1065 1066 1032
f 1032 1066 1029
f 1006 937 1009
f 1009 937 793
f 1001 1005 1004
f 1004 1005 992
f 925 845 926
f 926 845 1047
f 1002 946 1059
f 1059 946 945
f 977 941 978
f 978 941 940
f 823 824 886
f 886 824 885
f 1059 945 826
f 826 945 827
f 939 942 1069
f 1069 942 1070
f 816 901 817
f 1071 1072 1055
f 1055 1072 1026
f 1062 1061 1074
f 1074 1061 1073
f 1062 1074 1051
f 1051 1074 1075
f 1052 1051 1076
f 1076 1051 1075
f 1024 1052 1077
f 1077 1052 1076
f 1061 1000 1073
f 1073 1000 1078
f 1000 1003 1078
f 1078 1003 1079
f 1079 1003 1080
f 1080 1003 1060
f 1081 1082 1078
f 1078 1082 1073
f 1084 1085 1083
f 1083 1085 1086
f 1087 1088 1086
f 1086 1088 1083
f 1086 1085 1090
f 1090 1085 1089
f 1091 1092 1090
f 1090 1092 1093
f 1089 1094 1090
f 1090 1094 1091
f 1095 1082 1089
f 1089 1082 1094
f 1093 1087 1090
f 1090 1087 1086
f 1096 1097 1099
f 1099 1097 1098
f 1097 1096 1087
f 1087 1096 1088
f 1089 1085 1095
f 1095 1085 1084
f 1084 1075 1095
f 1095 1075 1074
f 1084 1100 1075
f 1075 1100 1076
f 1083 1101 1084
f 1084 1101 1100
f 1101 1083 1102
f 1102 1083 1088
f 1082 1095 1073
f 1073 1095 1074
f 1096 1103 1088
f 1088 1103 1102
f 1101 1102 1104
f 1104 1102 1105
f 1102 1103 1105
f 1105 1103 1106
f 1104 1105 1107
f 1107 1105 1108
f 1107 1109 1104
f 1104 1109 1110
f 1111 1108 1106
f 1106 1108 1105
f 1101 1104 1100
f 1100 1104 1110
f 1100 1110 1076
f 1076 1110 1077
f 1103 1096 1112
f 1112 1096 1099
f 1091 1094 1113
f 1113 1094 1082
f 1113 1114 1091
f 1091 1114 1092
f 1082 1081 1113
f 1113 1081 1115
f 1114 1113 1116
f 1116 1113 1115
f 1114 1117 1092
f 1092 1117 1118
f 1024 1077 1016
f 1016 1077 1119
f 1017 1120 1060
f 1060 1120 1080
f 1120 1017 1119
f 1119 1017 1016
f 1119 1109 1120
f 1120 1109 1121
f 1109 1107 1121
f 1121 1107 1122
f 1120 1121 1080
f 1080 1121 1123
f 1119 1077 1109
f 1109 1077 1110
f 1124 1079 1123
f 1123 1079 1080
f 1124 1081 1079
f 1079 1081 1078
f 1125 1115 1124
f 1124 1115 1081
f 1125 1124 1126
f 1126 1124 1123
f 1127 1125 1128
f 1128 1125 1126
f 1121 1122 1123
f 1123 1122 1126
f 1122 1129 1126
f 1126 1129 1128
f 1115 1125 1116
f 1116 1125 1127
f 1131 1116 1130
f 1130 1116 1127
f 1130 1133 1132
f 1132 1133 1134
f 1130 1127 1133
f 1133 1127 1128
f 1130 1132 1131
f 1131 1132 1112
f 1131 1112 1117
f 1117 1112 1099
f 1117 1114 1131
f 1131 1114 1116
f 1107 1108 1122
f 1122 1108 1129
f 1134 1129 1111
f 1111 1129 1108
f 1134 1133 1129
f 1129 1133 1128
f 1132 1134 1106
f 1106 1134 1111
f 1106 1103 1132
f 1132 1103 1112
f 1087 1093 1097
f 1097 1093 1098
f 1098 1118 1099
f 1099 1118 1117
f 1098 1093 1118
f 1118 1093 1092
f 915 914 1039
f 1039 914 1037
f 918 944 919
f 919 944 943
f 950 949 973
f 973 949 974
f 949 952 974
f 974 952 968
f 956 955 1042
f 1042 955 965
f 950 973 918
f 918 973 944
f 915 1039 1040
f 1040 1039 1053
f 956 1042 919
f 919 1042 916
f 1040 955 991
f 991 955 954
f 914 952 1037
f 1037 952 951
f 1136 1137 1135
f 1135 1137 1138
f 1140 1141 1139
f 1139 1141 1142
f 1139 1142 1143
f 1143 1142 1144
f 1145 1146 1148
f 1148 1146 1147
f 854 1149 1025
f 1025 1149 1150
f 1151 1152 1140
f 1140 1152 1141
f 1154 1155 1153
f 1153 1155 1156
f 1067 1007 1158
f 1158 1007 1157
f 1159 1157 1041
f 1041 1157 1007
f 1161 1162 1160
f 1160 1162 1163
f 1164 1146 1152
f 1152 1146 1141
f 854 1067 1149
f 1149 1067 1158
f 1155 1154 1137
f 1137 1154 1165
f 1166 1164 1138
f 1138 1164 1152
f 1167 1161 1144
f 1144 1161 1168
f 1170 1171 1169
f 1169 1171 1172
f 1161 1160 1168
f 1168 1160 1173
f 1174 1143 1168
f 1168 1143 1144
f 1167 1144 1145
f 1145 1144 1142
f 1135 1175 1136
f 1136 1175 1176
f 1151 1177 1135
f 1135 1177 1175
f 1167 1145 1178
f 1178 1145 1148
f 1160 1163 1153
f 1153 1163 1150
f 1135 1138 1151
f 1151 1138 1152
f 1139 1179 1140
f 1140 1179 1180
f 1165 1166 1137
f 1137 1166 1138
f 1141 1146 1142
f 1142 1146 1145
f 1136 1176 1181
f 1181 1176 1182
f 1174 1170 1183
f 1183 1170 1169
f 1170 1173 1171
f 1171 1173 1156
f 1171 1181 1172
f 1172 1181 1182
f 1153 1156 1160
f 1160 1156 1173
f 1143 1174 1184
f 1184 1174 1183
f 1140 1180 1151
f 1151 1180 1177
f 1049 1048 1178
f 1178 1048 1162
f 1179 1139 1184
f 1184 1139 1143
f 1159 1147 1164
f 1164 1147 1146
f 1170 1174 1173
f 1173 1174 1168
f 1171 1156 1181
f 1181 1156 1155
f 1181 1155 1136
f 1136 1155 1137
f 1184 1183 1186
f 1186 1183 1185
f 1184 1186 1179
f 1179 1186 1187
f 1179 1187 1180
f 1180 1187 1188
f 1180 1188 1177
f 1177 1188 1189
f 1183 1169 1185
f 1185 1169 1190
f 1169 1172 1190
f 1190 1172 1191
f 1172 1182 1191
f 1191 1182 1192
f 1193 1194 1190
f 1190 1194 1185
f 1196 1197 1195
f 1195 1197 1198
f 1199 1200 1196
f 1196 1200 1197
f 1197 1200 1202
f 1202 1200 1201
f 1203 1204 1202
f 1202 1204 1205
f 1201 1206 1202
f 1202 1206 1203
f 1205 1198 1202
f 1202 1198 1197
f 1198 1207 1195
f 1195 1207 1208
f 1201 1200 1209
f 1209 1200 1199
f 1199 1187 1209
f 1209 1187 1186
f 1199 1210 1187
f 1187 1210 1188
f 1196 1211 1199
f 1199 1211 1210
f 1212 1211 1195
f 1195 1211 1196
f 1209 1194 1201
f 1201 1194 1206
f 1194 1209 1185
f 1185 1209 1186
f 1213 1212 1208
f 1208 1212 1195
f 1211 1212 1214
f 1214 1212 1215
f 1212 1213 1215
f 1215 1213 1216
f 1214 1215 1217
f 1217 1215 1218
f 1217 1219 1214
f 1214 1219 1220
f 1216 1221 1215
f 1215 1221 1218
f 1214 1220 1211
f 1211 1220 1210
f 1210 1220 1188
f 1188 1220 1189
f 1213 1208 1223
f 1223 1208 1222
f 1208 1207 1222
f 1222 1207 1224
f 1203 1206 1225
f 1225 1206 1194
f 1204 1203 1226
f 1226 1203 1225
f 1194 1193 1225
f 1225 1193 1227
f 1225 1227 1226
f 1226 1227 1228
f 1229 1230 1226
f 1226 1230 1204
f 1224 1230 1222
f 1222 1230 1229
f 1177 1189 1175
f 1175 1189 1231
f 1176 1232 1182
f 1182 1232 1192
f 1232 1176 1231
f 1231 1176 1175
f 1231 1219 1232
f 1232 1219 1233
f 1219 1217 1233
f 1233 1217 1234
f 1232 1233 1192
f 1192 1233 1235
f 1219 1231 1220
f 1220 1231 1189
f 1236 1191 1235
f 1235 1191 1192
f 1236 1193 1191
f 1191 1193 1190
f 1236 1237 1193
f 1193 1237 1227
f 1237 1236 1238
f 1238 1236 1235
f 1239 1237 1240
f 1240 1237 1238
f 1233 1234 1235
f 1235 1234 1238
f 1234 1241 1238
f 1238 1241 1240
f 1237 1239 1227
f 1227 1239 1228
f 1243 1228 1242
f 1242 1228 1239
f 1242 1245 1244
f 1244 1245 1246
f 1242 1239 1245
f 1245 1239 1240
f 1242 1244 1243
f 1243 1244 1223
f 1243 1223 1229
f 1229 1223 1222
f 1229 1226 1243
f 1243 1226 1228
f 1217 1218 1234
f 1234 1218 1241
f 1246 1241 1221
f 1221 1241 1218
f 1246 1245 1241
f 1241 1245 1240
f 1244 1246 1216
f 1216 1246 1221
f 1216 1213 1244
f 1244 1213 1223
f 1198 1205 1207
f 1207 1205 1224
f 1224 1205 1230
f 1230 1205 1204
f 1148 1147 966
f 966 1147 964
f 1149 1154 1150
f 1150 1154 1153
f 1158 1157 1165
f 1165 1157 1166
f 1157 1159 1166
f 1166 1159 1164
f 1163 1162 1056
f 1056 1162 1048
f 1158 1165 1149
f 1149 1165 1154
f 1178 1148 1049
f 1049 1148 966
f 1163 1056 1150
f 1150 1056 1025
f 1178 1162 1167
f 1167 1162 1161
f 1147 1159 964
f 964 1159 1041
f 999 1049 922
f 922 1049 966
f 999 797 985
f 985 797 800
f 797 796 800
f 800 796 801
f 796 997 801
f 801 997 986
f 1247 1248 1250
f 1250 1248 1249
f 1252 1253 1251
f 1251 1253 1254
f 1251 1254 1255
f 1255 1254 1256
f 1258 1259 1257
f 1257 1259 1260
f 1261 1262 1252
f 1252 1262 1253
f 1264 1265 1263
f 1263 1265 1266
f 1267 1268 855
f 855 1268 920
f 1269 1267 1026
f 1026 1267 855
f 1271 1272 1270
f 1270 1272 1273
f 1274 1258 1262
f 1262 1258 1253
f 1264 1275 1265
f 1265 1275 1249
f 1276 1274 1250
f 1250 1274 1262
f 1277 1271 1256
f 1256 1271 1278
f 1279 1280 1282
f 1282 1280 1281
f 1271 1270 1278
f 1278 1270 1283
f 1284 1255 1278
f 1278 1255 1256
f 1277 1256 1257
f 1257 1256 1254
f 1247 1285 1248
f 1248 1285 1286
f 1261 1287 1247
f 1247 1287 1285
f 1257 1260 1277
f 1277 1260 1288
f 1270 1273 1263
f 1263 1273 1289
f 1261 1247 1262
f 1262 1247 1250
f 1251 1290 1252
f 1252 1290 1291
f 1275 1276 1249
f 1249 1276 1250
f 1253 1258 1254
f 1254 1258 1257
f 1248 1286 1292
f 1292 1286 1293
f 1284 1280 1294
f 1294 1280 1279
f 1281 1280 1266
f 1266 1280 1283
f 1292 1293 1281
f 1281 1293 1282
f 1263 1266 1270
f 1270 1266 1283
f 1255 1284 1295
f 1295 1284 1294
f 1252 1291 1261
f 1261 1291 1287
f 1288 1070 1272
f 1272 1070 942
f 1290 1251 1295
f 1295 1251 1255
f 1269 1259 1274
f 1274 1259 1258
f 1280 1284 1283
f 1283 1284 1278
f 1281 1266 1292
f 1292 1266 1265
f 1292 1265 1248
f 1248 1265 1249
f 1295 1294 1297
f 1297 1294 1296
f 1295 1297 1290
f 1290 1297 1298
f 1290 1298 1291
f 1291 1298 1299
f 1291 1299 1287
f 1287 1299 1300
f 1294 1279 1296
f 1296 1279 1301
f 1279 1282 1301
f 1301 1282 1302
f 1302 1282 1303
f 1303 1282 1293
f 1304 1305 1301
f 1301 1305 1296
f 1307 1308 1306
f 1306 1308 1309
f 1310 1311 1307
f 1307 1311 1308
f 1308 1311 1313
f 1313 1311 1312
f 1314 1315 1313
f 1313 1315 1316
f 1312 1317 1313
f 1313 1317 1314
f 1316 1309 1313
f 1313 1309 1308
f 1318 1319 1309
f 1309 1319 1306
f 1311 1310 1312
f 1312 1310 1320
f 1310 1298 1320
f 1320 1298 1297
f 1310 1321 1298
f 1298 1321 1299
f 1307 1322 1310
f 1310 1322 1321
f 1322 1307 1323
f 1323 1307 1306
f 1312 1320 1317
f 1317 1320 1305
f 1305 1320 1296
f 1296 1320 1297
f 1319 1324 1306
f 1306 1324 1323
f 1325 1322 1326
f 1326 1322 1323
f 1324 1327 1323
f 1323 1327 1326
f 1328 1325 1329
f 1329 1325 1326
f 1325 1328 1331
f 1331 1328 1330
f 1327 1332 1326
f 1326 1332 1329
f 1322 1325 1321
f 1321 1325 1331
f 1321 1331 1299
f 1299 1331 1300
f 1324 1319 1334
f 1334 1319 1333
f 1319 1318 1333
f 1333 1318 1335
f 1314 1317 1336
f 1336 1317 1305
f 1315 1314 1337
f 1337 1314 1336
f 1305 1304 1336
f 1336 1304 1338
f 1337 1336 1339
f 1339 1336 1338
f 1337 1340 1315
f 1315 1340 1341
f 1335 1341 1333
f 1333 1341 1340
f 1287 1300 1285
f 1285 1300 1342
f 1286 1343 1293
f 1293 1343 1303
f 1343 1286 1342
f 1342 1286 1285
f 1342 1330 1343
f 1343 1330 1344
f 1330 1328 1344
f 1344 1328 1345
f 1343 1344 1303
f 1303 1344 1346
f 1342 1300 1330
f 1330 1300 1331
f 1347 1302 1346
f 1346 1302 1303
f 1347 1304 1302
f 1302 1304 1301
f 1348 1338 1347
f 1347 1338 1304
f 1348 1347 1349
f 1349 1347 1346
f 1350 1348 1351
f 1351 1348 1349
f 1344 1345 1346
f 1346 1345 1349
f 1345 1352 1349
f 1349 1352 1351
f 1348 1350 1338
f 1338 1350 1339
f 1354 1339 1353
f 1353 1339 1350
f 1353 1356 1355
f 1355 1356 1357
f 1353 1350 1356
f 1356 1350 1351
f 1353 1355 1354
f 1354 1355 1334
f 1354 1334 1340
f 1340 1334 1333
f 1340 1337 1354
f 1354 1337 1339
f 1328 1329 1345
f 1345 1329 1352
f 1357 1352 1332
f 1332 1352 1329
f 1357 1356 1352
f 1352 1356 1351
f 1357 1332 1355
f 1355 1332 1327
f 1327 1324 1355
f 1355 1324 1334
f 1309 1316 1318
f 1318 1316 1335
f 1335 1316 1341
f 1341 1316 1315
f 1259 1072 1260
f 1260 1072 1071
f 1358 1264 1289
f 1289 1264 1263
f 1268 1267 1275
f 1275 1267 1276
f 1267 1269 1276
f 1276 1269 1274
f 941 1273 942
f 942 1273 1272
f 1358 1268 1264
f 1264 1268 1275
f 1260 1071 1288
f 1288 1071 1070
f 1273 941 1289
f 1289 941 977
f 1272 1271 1288
f 1288 1271 1277
f 1259 1269 1072
f 1072 1269 1026
f 1360 1361 1359
f 1359 1361 1362
f 1364 1365 1363
f 1363 1365 1366
f 1363 1366 1367
f 1367 1366 1368
f 1370 1371 1369
f 1369 1371 1372
f 1373 1374 1376
f 1376 1374 1375
f 1377 1378 1364
f 1364 1378 1365
f 1379 1380 1382
f 1382 1380 1381
f 1383 1384 1386
f 1386 1384 1385
f 1387 1385 978
f 978 1385 1384
f 1388 1389 1391
f 1391 1389 1390
f 1378 1392 1365
f 1365 1392 1370
f 1374 1383 1375
f 1375 1383 1386
f 1380 1393 1381
f 1381 1393 1361
f 1394 1392 1362
f 1362 1392 1378
f 1389 1396 1395
f 1395 1396 1368
f 1398 1399 1397
f 1397 1399 1400
f 1388 1401 1389
f 1389 1401 1396
f 1402 1367 1396
f 1396 1367 1368
f 1395 1368 1369
f 1369 1368 1366
f 1359 1403 1360
f 1360 1403 1404
f 1377 1405 1359
f 1359 1405 1403
f 1369 1372 1395
f 1395 1372 1406
f 1379 1388 1376
f 1376 1388 1391
f 1359 1362 1377
f 1377 1362 1378
f 1363 1407 1364
f 1364 1407 1408
f 1393 1394 1361
f 1361 1394 1362
f 1365 1370 1366
f 1366 1370 1369
f 1360 1404 1409
f 1409 1404 1410
f 1402 1398 1411
f 1411 1398 1397
f 1399 1398 1382
f 1382 1398 1401
f 1409 1410 1399
f 1399 1410 1400
f 1388 1379 1401
f 1401 1379 1382
f 1367 1402 1412
f 1412 1402 1411
f 1364 1408 1377
f 1377 1408 1405
f 981 980 1406
f 1406 980 1390
f 1407 1363 1412
f 1412 1363 1367
f 1387 1371 1392
f 1392 1371 1370
f 1398 1402 1401
f 1401 1402 1396
f 1409 1399 1381
f 1381 1399 1382
f 1360 1409 1361
f 1361 1409 1381
f 1412 1411 1414
f 1414 1411 1413
f 1412 1414 1407
f 1407 1414 1415
f 1407 1415 1408
f 1408 1415 1416
f 1408 1416 1405
f 1405 1416 1417
f 1411 1397 1413
f 1413 1397 1418
f 1397 1400 1418
f 1418 1400 1419
f 1419 1400 1420
f 1420 1400 1410
f 1422 1413 1421
f 1421 1413 1418
f 1423 1424 1426
f 1426 1424 1425
f 1427 1428 1424
f 1424 1428 1425
f 1425 1428 1430
f 1430 1428 1429
f 1430 1431 1433
f 1433 1431 1432
f 1429 1434 1430
f 1430 1434 1431
f 1433 1426 1430
f 1430 1426 1425
f 1426 1435 1423
f 1423 1435 1436
f 1428 1427 1429
f 1429 1427 1437
f 1427 1415 1437
f 1437 1415 1414
f 1427 1438 1415
f 1415 1438 1416
f 1439 1438 1424
f 1424 1438 1427
f 1440 1439 1423
f 1423 1439 1424
f 1429 1437 1434
f 1434 1437 1422
f 1422 1437 1413
f 1413 1437 1414
f 1441 1440 1436
f 1436 1440 1423
f 1442 1439 1443
f 1443 1439 1440
f 1441 1444 1440
f 1440 1444 1443
f 1445 1442 1446
f 1446 1442 1443
f 1442 1445 1448
f 1448 1445 1447
f 1444 1449 1443
f 1443 1449 1446
f 1439 1442 1438
f 1438 1442 1448
f 1438 1448 1416
f 1416 1448 1417
f 1436 1450 1441
f 1441 1450 1451
f 1436 1435 1450
f 1450 1435 1452
f 1431 1434 1453
f 1453 1434 1422
f 1431 1453 1432
f 1432 1453 1454
f 1453 1422 1455
f 1455 1422 1421
f 1454 1453 1456
f 1456 1453 1455
f 1457 1458 1454
f 1454 1458 1432
f 1452 1458 1450
f 1450 1458 1457
f 1405 1417 1403
f 1403 1417 1459
f 1404 1460 1410
f 1410 1460 1420
f 1459 1460 1403
f 1403 1460 1404
f 1447 1461 1459
f 1459 1461 1460
f 1445 1462 1447
f 1447 1462 1461
f 1460 1461 1420
f 1420 1461 1463
f 1459 1417 1447
f 1447 1417 1448
f 1464 1419 1463
f 1463 1419 1420
f 1419 1464 1418
f 1418 1464 1421
f 1464 1465 1421
f 1421 1465 1455
f 1465 1464 1466
f 1466 1464 1463
f 1467 1465 1468
f 1468 1465 1466
f 1461 1462 1463
f 1463 1462 1466
f 1462 1469 1466
f 1466 1469 1468
f 1465 1467 1455
f 1455 1467 1456
f 1471 1456 1470
f 1470 1456 1467
f 1470 1473 1472
f 1472 1473 1474
f 1470 1467 1473
f 1473 1467 1468
f 1470 1472 1471
f 1471 1472 1451
f 1471 1451 1457
f 1457 1451 1450
f 1457 1454 1471
f 1471 1454 1456
f 1462 1445 1469
f 1469 1445 1446
f 1474 1469 1449
f 1449 1469 1446
f 1474 1473 1469
f 1469 1473 1468
f 1472 1474 1444
f 1444 1474 1449
f 1444 1441 1472
f 1472 1441 1451
f 1426 1433 1435
f 1435 1433 1452
f 1452 1433 1458
f 1458 1433 1432
f 1371 940 1372
f 1372 940 1068
f 1376 1375 1379
f 1379 1375 1380
f 1393 1386 1394
f 1394 1386 1385
f 1385 1387 1394
f 1394 1387 1392
f 1475 1373 1391
f 1391 1373 1376
f 1375 1386 1380
f 1380 1386 1393
f 1372 1068 1406
f 1406 1068 981
f 1406 1390 1395
f 1395 1390 1389
f 1371 1387 940
f 940 1387 978
f 883 807 1476
f 1476 807 1477
f 1046 904 1479
f 1479 904 1478
f 904 903 1478
f 1478 903 1480
f 1030 1481 1028
f 1028 1481 1482
f 810 1046 1483
f 1483 1046 1479
f 1066 883 1484
f 1484 883 1476
f 807 810 1477
f 1477 810 1483
f 1485 1029 1484
f 1484 1029 1066
f 1028 1482 903
f 903 1482 1480
f 1481 1030 1485
f 1485 1030 1029
f 1484 1486 1485
f 1485 1486 1487
f 1485 1487 1481
f 1481 1487 1488
f 1481 1488 1482
f 1482 1488 1489
f 1482 1489 1480
f 1480 1489 1490
f 1484 1476 1486
f 1486 1476 1491
f 1476 1477 1491
f 1491 1477 1492
f 1477 1483 1492
f 1492 1483 1493
f 1495 1486 1494
f 1494 1486 1491
f 1497 1498 1496
f 1496 1498 1499
f 1500 1501 1497
f 1497 1501 1498
f 1502 1503 1501
f 1501 1503 1498
f 1502 1504 1503
f 1503 1504 1505
f 1506 1499 1503
f 1503 1499 1498
f 1499 1506 1507
f 1507 1506 1508
f 1507 1509 1499
f 1499 1509 1496
f 1502 1501 1510
f 1510 1501 1500
f 1500 1488 1510
f 1510 1488 1487
f 1500 1511 1488
f 1488 1511 1489
f 1497 1512 1500
f 1500 1512 1511
f 1512 1497 1513
f 1513 1497 1496
f 1502 1510 1504
f 1504 1510 1495
f 1495 1510 1486
f 1486 1510 1487
f 1509 1514 1496
f 1496 1514 1513
f 1515 1512 1516
f 1516 1512 1513
f 1514 1517 1513
f 1513 1517 1516
f 1518 1515 1519
f 1519 1515 1516
f 1515 1518 1521
f 1521 1518 1520
f 1517 1522 1516
f 1516 1522 1519
f 1512 1515 1511
f 1511 1515 1521
f 1511 1521 1489
f 1489 1521 1490
f 1514 1509 1524
f 1524 1509 1523
f 1509 1507 1523
f 1523 1507 1508
f 1505 1504 1525
f 1525 1504 1495
f 1526 1505 1527
f 1527 1505 1525
f 1525 1495 1528
f 1528 1495 1494
f 1527 1525 1529
f 1529 1525 1528
f 1527 1530 1526
f 1526 1530 1531
f 1508 1531 1523
f 1523 1531 1530
f 1506 1503 1526
f 1526 1503 1505
f 1508 1506 1531
f 1531 1506 1526
f 1478 1480 1532
f 1532 1480 1490
f 1483 1479 1493
f 1493 1479 1533
f 1532 1533 1478
f 1478 1533 1479
f 1520 1534 1532
f 1532 1534 1533
f 1518 1535 1520
f 1520 1535 1534
f 1533 1534 1493
f 1493 1534 1536
f 1532 1490 1520
f 1520 1490 1521
f 1537 1492 1536
f 1536 1492 1493
f 1492 1537 1491
f 1491 1537 1494
f 1537 1538 1494
f 1494 1538 1528
f 1538 1537 1539
f 1539 1537 1536
f 1540 1538 1541
f 1541 1538 1539
f 1534 1535 1536
f 1536 1535 1539
f 1535 1542 1539
f 1539 1542 1541
f 1538 1540 1528
f 1528 1540 1529
f 1544 1529 1543
f 1543 1529 1540
f 1545 1543 1547
f 1547 1543 1546
f 1543 1540 1546
f 1546 1540 1541
f 1543 1545 1544
f 1544 1545 1524
f 1544 1524 1530
f 1530 1524 1523
f 1530 1527 1544
f 1544 1527 1529
f 1535 1518 1542
f 1542 1518 1519
f 1547 1542 1522
f 1522 1542 1519
f 1547 1546 1542
f 1542 1546 1541
f 1545 1547 1517
f 1517 1547 1522
f 1517 1514 1545
f 1545 1514 1524
f 997 995 986
f 986 995 987
f 987 995 988
f 988 995 971
f 976 1358 977
f 977 1358 1289
f 854 853 1067
f 1067 853 1050
f 1055 985 1069
f 1069 985 962
f 1068 961 981
f 981 961 862
f 1268 1358 920
f 920 1358 976
f 920 976 921
f 921 976 975
f 927 1054 850
f 850 1054 851
f 882 881 1057
f 1057 881 1548
f 1548 1374 1057
f 1057 1374 1373
f 1383 1374 1549
f 1549 1374 1548
f 1549 1548 1550
f 1550 1548 881
f 1550 881 1551
f 1551 881 880
f 933 1552 879
f 879 1552 880
f 1551 880 875
f 875 880 1552
f 1553 1551 878
f 878 1551 875
f 1551 1553 1550
f 1550 1553 1554
f 1550 1554 1549
f 1549 1554 1555
f 978 1384 975
f 975 1384 1555
f 967 849 1556
f 1556 849 852
f 875 1552 876
f 876 1552 933
f 961 939 962
f 962 939 1069
f 1555 1054 975
f 975 1054 921
f 1555 1384 1549
f 1549 1384 1383
f 1391 1390 1475
f 1475 1390 980
f 1373 1475 1057
f 1057 1475 980
f 851 1054 1554
f 1554 1054 1555
f 1554 1553 851
f 851 1553 852
f 878 1556 1553
f 1553 1556 852
f 1556 878 967
f 967 878 877
f 1023 1020 877
f 877 1020 967
f 909 811 1034
f 806 779 873
f 873 779 840
f 805 780 806
f 806 780 779
f 1043 893 1044
f 1044 893 892
f 873 840 847
f 847 840 842
f 840 839 842
f 842 839 843
f 839 791 843
f 843 791 908
f 791 790 908
f 908 790 792
f 809 789 810
f 810 789 1046
f 793 790 809
f 809 790 789
f 809 808 793
f 793 808 1009
f 808 884 1009
f 1009 884 1010
f 1065 1015 884
f 884 1015 1010
f 1032 868 1065
f 1065 868 1015
f 1031 822 1032
f 1032 822 868
f 1031 1027 822
f 822 1027 785
f 1045 905 1046
f 1046 905 904
f 788 781 1019
f 1019 781 894
f 781 780 894
f 894 780 892
f 780 805 892
f 892 805 1044
f 805 804 1044
f 1044 804 891
f 804 1064 891
f 891 1064 888
f 1064 1021 888
f 888 1021 1033
f 1021 1020 1033
f 1033 1020 1034
f 1020 1023 1034
f 1034 1023 909
f 1023 1022 909
f 909 1022 910
f 1043 815 893
f 893 815 819
f 819 815 820
f 820 815 818
f 870 869 818
f 818 869 820
f 1014 1011 870
f 870 1011 869
f 969 972 1014
f 1014 972 1011
f 1036 1063 1022
f 1022 1063 910
f 1035 833 1036
f 1036 833 1063
f 1035 932 979
f 979 932 963
f 834 979 982
f 982 979 958
f 833 1035 834
f 834 1035 979
f 982 863 834
f 834 863 830
f 864 900 831
f 831 900 857
f 990 993 864
f 864 993 900
f 989 994 990
f 990 994 993
f 970 1058 989
f 989 1058 994
f 969 1018 970
f 970 1018 1058
f 1027 902 785
f 785 902 786
f 902 905 786
f 786 905 1019
f 905 1045 1019
f 1019 1045 788
f 788 1045 787
f 787 1045 789
