o hand_left
v -0.166101 -0.082613 0.816098
v -0.174814 -0.079017 0.811191
v -0.165825 -0.072909 0.812913
v -0.157649 -0.077274 0.816618
v -0.181516 -0.060496 0.802869
v -0.181818 -0.055705 0.791369
v -0.167592 -0.050979 0.797730
v -0.170134 -0.055319 0.806900
v -0.149782 -0.074597 0.815932
v -0.158552 -0.068621 0.814255
v -0.145665 -0.075421 0.811769
v -0.137762 -0.085551 0.811338
v -0.142070 -0.081774 0.816519
v -0.132549 -0.091448 0.814694
v -0.140452 -0.092060 0.802340
v -0.133408 -0.100929 0.812462
v -0.159630 -0.114641 0.807096
v -0.170477 -0.120398 0.812950
v -0.158986 -0.123703 0.825062
v -0.149186 -0.116711 0.818352
v -0.178828 -0.126235 0.831327
v -0.167353 -0.125235 0.828531
v -0.178628 -0.123017 0.815911
v -0.188379 -0.123914 0.819113
v -0.180849 -0.089935 0.817901
v -0.189676 -0.087393 0.812295
v -0.184233 -0.085402 0.811041
v -0.175961 -0.087617 0.816264
v -0.142183 -0.067745 0.803306
v -0.145297 -0.076406 0.795499
v -0.143484 -0.077918 0.803447
v -0.143982 -0.067165 0.808680
v -0.216789 -0.079881 0.804426
v -0.223392 -0.082019 0.792763
v -0.219057 -0.080083 0.789238
v -0.213853 -0.079053 0.800615
v -0.200694 -0.067359 0.783403
v -0.206849 -0.073629 0.777381
v -0.202702 -0.076473 0.764391
v -0.194441 -0.072879 0.768925
v -0.191538 -0.060641 0.788058
v -0.187015 -0.064073 0.775052
v -0.177199 -0.057982 0.780702
v -0.163186 -0.051822 0.789380
v -0.232234 -0.088963 0.799118
v -0.228856 -0.087936 0.808721
v -0.113158 -0.087064 0.860489
v -0.117950 -0.088523 0.863627
v -0.119578 -0.089083 0.859737
v -0.114461 -0.087756 0.857210
v -0.232713 -0.108362 0.805124
v -0.229360 -0.117023 0.801023
v -0.235147 -0.114862 0.797094
v -0.237215 -0.105953 0.799515
v -0.226666 -0.111418 0.812517
v -0.221073 -0.119239 0.806456
v -0.104283 -0.096303 0.861470
v -0.105296 -0.091412 0.860164
v -0.106073 -0.093789 0.855888
v -0.105730 -0.099046 0.856950
v -0.149396 -0.081306 0.819733
v -0.158395 -0.084333 0.821644
v -0.137550 -0.087262 0.831655
v -0.146295 -0.087377 0.827763
v -0.141544 -0.084917 0.822790
v -0.134410 -0.086299 0.826058
v -0.167067 -0.096889 0.834798
v -0.175174 -0.094419 0.826605
v -0.169136 -0.092245 0.824795
v -0.159209 -0.093560 0.833156
v -0.187291 -0.097126 0.833614
v -0.178245 -0.099731 0.840946
v -0.186178 -0.101026 0.844120
v -0.191373 -0.098037 0.838715
v -0.160583 -0.103875 0.851222
v -0.155155 -0.106388 0.855354
v -0.157567 -0.106864 0.857355
v -0.163863 -0.104955 0.852564
v -0.240356 -0.113527 0.792447
v -0.240754 -0.103721 0.793539
v -0.198726 -0.126269 0.840020
v -0.208071 -0.120445 0.842418
v -0.201233 -0.124288 0.853965
v -0.192992 -0.129711 0.848133
v -0.221670 -0.121515 0.795553
v -0.228840 -0.121165 0.792307
v -0.106660 -0.101242 0.864374
v -0.108497 -0.103678 0.860028
v -0.173060 -0.068393 0.773336
v -0.158307 -0.058381 0.783599
v -0.184386 -0.076669 0.767132
v -0.192108 -0.083093 0.763184
v -0.198550 -0.085919 0.758136
v -0.147848 -0.090468 0.833624
v -0.167154 -0.088016 0.820937
v -0.185280 -0.091440 0.819981
v -0.208885 -0.096886 0.839353
v -0.215878 -0.093817 0.831892
v -0.205857 -0.090613 0.829679
v -0.201709 -0.094532 0.836438
v -0.210832 -0.112087 0.846813
v -0.206957 -0.105024 0.848214
v -0.201316 -0.108555 0.855195
v -0.204317 -0.115943 0.855627
v -0.140653 -0.063884 0.796801
v -0.147654 -0.073735 0.788524
v -0.233236 -0.097969 0.807370
v -0.235749 -0.095886 0.800252
v -0.239655 -0.096041 0.792711
v -0.202606 -0.082503 0.807961
v -0.211845 -0.078297 0.798012
v -0.208294 -0.076202 0.796410
v -0.199790 -0.082454 0.806490
v -0.184790 -0.073485 0.807536
v -0.193827 -0.067222 0.799373
v -0.174885 -0.067178 0.811031
v -0.214434 -0.077188 0.783189
v -0.224941 -0.079395 0.780786
v -0.218782 -0.077081 0.774735
v -0.231683 -0.084203 0.786123
v -0.237063 -0.089836 0.790545
v -0.235349 -0.123046 0.787112
v -0.212267 -0.076533 0.769368
v -0.161487 -0.052636 0.809373
v -0.153920 -0.050060 0.811540
v -0.152535 -0.056992 0.814904
v -0.159463 -0.060031 0.813598
v -0.126243 -0.095772 0.820691
v -0.129367 -0.088893 0.823265
v -0.136260 -0.085603 0.817328
v -0.213620 -0.083458 0.815037
v -0.224069 -0.089929 0.818302
v -0.138911 -0.090784 0.837290
v -0.108153 -0.100811 0.852164
v -0.108254 -0.095015 0.851037
v -0.117711 -0.095867 0.834599
v -0.117051 -0.102581 0.836002
v -0.135195 -0.098792 0.844118
v -0.135841 -0.092761 0.840930
v -0.134421 -0.094370 0.843085
v -0.134628 -0.099310 0.847385
v -0.166623 -0.108090 0.859347
v -0.172211 -0.106264 0.855048
v -0.140101 -0.116099 0.831395
v -0.131759 -0.112661 0.820968
v -0.140290 -0.110282 0.812708
v -0.173841 -0.098673 0.837511
v -0.167200 -0.101143 0.845353
v -0.170763 -0.102390 0.847225
v -0.147405 -0.093180 0.837702
v -0.140919 -0.094841 0.841340
v -0.145791 -0.096800 0.842042
v -0.152353 -0.095411 0.838934
v -0.215245 -0.118106 0.831320
v -0.218748 -0.108400 0.836743
v -0.108561 -0.088101 0.859542
v -0.109485 -0.089548 0.855763
v -0.181648 -0.096205 0.829416
v -0.151219 -0.107168 0.803455
v -0.190067 -0.092654 0.822475
v -0.174731 -0.125959 0.853230
v -0.177200 -0.120784 0.858354
v -0.172006 -0.119789 0.862419
v -0.168898 -0.124698 0.860169
v -0.126423 -0.099468 0.860328
v -0.125896 -0.093779 0.859519
v -0.123206 -0.093277 0.862750
v -0.123368 -0.098905 0.864406
v -0.133438 -0.089156 0.836932
v -0.129613 -0.087588 0.831864
v -0.126787 -0.088504 0.837824
v -0.131090 -0.090949 0.841168
v -0.124546 -0.090699 0.829396
v -0.121503 -0.090784 0.835096
v -0.123151 -0.105141 0.859719
v -0.116517 -0.107997 0.857362
v -0.125714 -0.110128 0.843460
v -0.130510 -0.105764 0.848151
v -0.197392 -0.122866 0.806959
v -0.207090 -0.123129 0.812571
v -0.198369 -0.124347 0.824823
v -0.190117 -0.126929 0.836867
v -0.181548 -0.128203 0.847869
v -0.171217 -0.129338 0.841584
v -0.206039 -0.123649 0.827744
v -0.136928 -0.107050 0.842175
v -0.132366 -0.111404 0.834880
v -0.137190 -0.112489 0.838042
v -0.196006 -0.092928 0.827039
v -0.111358 -0.090374 0.851228
v -0.194564 -0.106020 0.766169
v -0.201931 -0.115209 0.772569
v -0.194860 -0.114166 0.777673
v -0.186811 -0.103185 0.770910
v -0.122118 -0.088942 0.856485
v -0.116709 -0.087330 0.853250
v -0.176965 -0.108341 0.859396
v -0.170978 -0.110179 0.862458
v -0.171625 -0.113323 0.864451
v -0.178647 -0.111083 0.864181
v -0.212732 -0.122199 0.814394
v -0.195215 -0.124314 0.861628
v -0.188826 -0.129604 0.855731
v -0.214336 -0.122053 0.801652
v -0.205959 -0.122437 0.796510
v -0.212596 -0.122239 0.789332
v -0.156310 -0.125171 0.841441
v -0.189035 -0.121973 0.804602
v -0.198862 -0.120955 0.793888
v -0.206462 -0.120664 0.785177
v -0.212319 -0.121241 0.779222
v -0.218468 -0.122773 0.784420
v -0.111504 -0.105527 0.855091
v -0.113766 -0.106525 0.863288
v -0.225145 -0.125003 0.778624
v -0.218028 -0.122534 0.773132
v -0.190936 -0.118021 0.790142
v -0.181786 -0.112886 0.785780
v -0.181791 -0.118921 0.800750
v -0.171838 -0.114167 0.797252
v -0.149330 -0.125910 0.833276
v -0.112798 -0.098255 0.878722
v -0.117254 -0.102402 0.869555
v -0.120963 -0.097961 0.868774
v -0.116464 -0.095950 0.878733
v -0.120139 -0.103995 0.864660
v -0.112008 -0.103950 0.867590
v -0.162063 -0.104081 0.792286
v -0.140520 -0.099288 0.845469
v -0.172651 -0.098857 0.779518
v -0.149135 -0.091570 0.791360
v -0.157832 -0.085706 0.782708
v -0.182678 -0.091316 0.766556
v -0.169818 -0.081678 0.771920
v -0.197481 -0.096792 0.758094
v -0.190422 -0.095431 0.763073
v -0.158043 -0.071352 0.779015
v -0.112902 -0.084302 0.870995
v -0.117417 -0.086957 0.873315
v -0.200780 -0.107318 0.760757
v -0.166105 -0.063162 0.812676
v -0.202065 -0.087980 0.819358
v -0.197274 -0.088154 0.816276
v -0.219383 -0.092151 0.826725
v -0.209172 -0.087469 0.823096
v -0.107737 -0.084657 0.869669
v -0.152153 -0.110763 0.857568
v -0.154161 -0.110651 0.856174
v -0.159815 -0.047926 0.802065
v -0.153505 -0.046123 0.804930
v -0.144617 -0.050248 0.795956
v -0.149188 -0.045946 0.799497
v -0.155603 -0.048319 0.794452
v -0.151039 -0.053082 0.790214
v -0.204706 -0.082534 0.809639
v -0.207687 -0.083060 0.812195
v -0.221608 -0.114511 0.821542
v -0.224326 -0.104822 0.827283
v -0.122029 -0.096650 0.827964
v -0.126283 -0.104216 0.820863
v -0.122132 -0.103648 0.828788
v -0.120924 -0.108305 0.837658
v -0.137169 -0.102908 0.845945
v -0.134096 -0.104986 0.842693
v -0.201582 -0.072128 0.798040
v -0.193562 -0.079626 0.806047
v -0.153956 -0.066257 0.813828
v -0.148631 -0.063713 0.814195
v -0.159976 -0.098003 0.840503
v -0.148142 -0.121997 0.849428
v -0.142460 -0.122270 0.842691
v -0.152970 -0.100398 0.845875
v -0.102575 -0.090845 0.872131
v -0.104566 -0.086651 0.870312
v -0.125723 -0.109704 0.830069
v -0.178453 -0.103251 0.850957
v -0.155968 -0.122148 0.848678
v -0.150370 -0.117850 0.855301
v -0.199948 -0.116759 0.860845
v -0.208454 -0.115681 0.766483
v -0.121543 -0.092503 0.867231
v -0.119497 -0.090898 0.875675
v -0.108852 -0.099057 0.877128
v -0.104317 -0.096639 0.873996
v -0.228112 -0.100575 0.817874
v -0.193805 -0.088240 0.814593
v -0.149109 -0.063293 0.786540
v -0.141964 -0.057290 0.794722
v -0.149015 -0.102237 0.849179
v -0.181249 -0.126286 0.855232
v -0.166105 -0.128404 0.849745
v -0.160658 -0.127152 0.857314
v -0.154392 -0.122920 0.856191
v -0.151808 -0.116019 0.857131
v -0.108445 -0.096411 0.882046
v -0.103782 -0.093887 0.879213
v -0.102092 -0.088139 0.877462
v -0.103980 -0.084362 0.875372
v -0.107907 -0.082988 0.873646
v -0.112483 -0.095625 0.883712
v -0.115720 -0.093440 0.883440
v -0.118739 -0.089761 0.879111
v -0.113039 -0.092858 0.887639
v -0.108123 -0.092004 0.889260
v -0.102963 -0.079340 0.888956
v -0.101931 -0.083980 0.885441
v -0.102352 -0.084139 0.888143
v -0.103085 -0.080890 0.891851
v -0.103880 -0.078816 0.896525
v -0.103798 -0.076498 0.893784
v -0.103968 -0.088476 0.887889
v -0.105141 -0.084732 0.893323
v -0.108386 -0.087190 0.894551
v -0.108519 -0.084364 0.899283
v -0.105472 -0.082162 0.898446
v -0.107121 -0.089689 0.890885
v -0.103565 -0.089975 0.886140
v -0.105423 -0.076002 0.898118
v -0.104575 -0.078123 0.899287
v -0.106328 -0.080493 0.900904
v -0.108063 -0.078135 0.901931
v -0.103871 -0.081707 0.880035
v -0.104327 -0.077611 0.887512
v -0.106578 -0.075354 0.892677
v -0.107931 -0.075035 0.897096
v -0.108302 -0.076507 0.887541
v -0.109500 -0.075397 0.892142
v -0.111062 -0.075355 0.895911
v -0.112511 -0.076998 0.888252
v -0.112590 -0.076224 0.892441
v -0.112006 -0.081775 0.877217
v -0.107773 -0.081301 0.876768
v -0.113001 -0.075624 0.894994
v -0.110174 -0.077496 0.901361
v -0.111415 -0.089067 0.893543
v -0.111781 -0.084582 0.898899
v -0.113733 -0.088762 0.893025
v -0.114178 -0.084640 0.898549
v -0.111027 -0.082022 0.902432
v -0.108640 -0.082353 0.901391
v -0.112975 -0.083815 0.873610
v -0.117474 -0.086723 0.876115
v -0.116863 -0.085065 0.879205
v -0.116343 -0.079605 0.889499
v -0.118435 -0.087952 0.882226
v -0.116155 -0.090754 0.887159
v -0.116037 -0.086902 0.892925
v -0.117556 -0.084083 0.891654
v -0.115904 -0.083433 0.896999
v -0.116421 -0.081491 0.895356
v -0.115476 -0.078160 0.893660
v -0.114877 -0.080256 0.899334
v -0.113041 -0.081390 0.901458
v -0.112717 -0.077156 0.899049
v -0.115655 -0.079784 0.897529
v -0.113973 -0.077445 0.896656
v -0.130424 -0.096098 0.876419
v -0.135509 -0.098472 0.879575
v -0.134980 -0.100816 0.875641
v -0.130659 -0.098768 0.873130
v -0.119330 -0.104773 0.878732
v -0.121983 -0.099384 0.876546
v -0.121428 -0.103085 0.872385
v -0.119963 -0.109515 0.874713
v -0.121969 -0.110599 0.882100
v -0.123359 -0.114885 0.877649
v -0.121450 -0.111950 0.869523
v -0.123117 -0.105152 0.867502
v -0.133623 -0.108010 0.849356
v -0.132244 -0.114901 0.850120
v -0.149175 -0.106357 0.858166
v -0.148815 -0.109949 0.859878
v -0.126413 -0.096641 0.875894
v -0.125955 -0.099731 0.872141
v -0.140758 -0.107923 0.876784
v -0.139789 -0.102929 0.874653
v -0.138390 -0.103177 0.878298
v -0.138475 -0.108027 0.881025
v -0.139950 -0.102380 0.850907
v -0.145172 -0.104134 0.854101
v -0.136526 -0.104070 0.850044
v -0.138186 -0.114086 0.877961
v -0.132842 -0.118432 0.876970
v -0.141602 -0.122046 0.858681
v -0.145920 -0.118091 0.861445
v -0.126644 -0.100829 0.867664
v -0.135848 -0.099604 0.872098
v -0.131543 -0.098467 0.869287
v -0.126025 -0.117182 0.872514
v -0.130129 -0.115829 0.882255
v -0.131927 -0.101736 0.896328
v -0.134220 -0.109386 0.887447
v -0.137449 -0.105594 0.885729
v -0.135801 -0.098555 0.895613
v -0.135547 -0.112626 0.882855
v -0.128736 -0.111591 0.886364
v -0.131337 -0.087650 0.888334
v -0.136285 -0.090366 0.891267
v -0.126804 -0.087603 0.887576
v -0.135769 -0.120767 0.853467
v -0.119921 -0.095454 0.888866
v -0.123128 -0.089841 0.887319
v -0.138470 -0.101655 0.882583
v -0.137678 -0.094251 0.894105
v -0.127548 -0.102851 0.895535
v -0.121684 -0.101524 0.891491
v -0.126585 -0.098509 0.899491
v -0.121556 -0.096741 0.896191
v -0.119852 -0.091140 0.893056
v -0.123193 -0.086960 0.890815
v -0.126997 -0.085670 0.890304
v -0.130730 -0.097642 0.900523
v -0.134820 -0.095152 0.899820
v -0.136894 -0.092091 0.896319
v -0.132096 -0.091579 0.904901
v -0.127502 -0.091193 0.905371
v -0.123976 -0.073218 0.903900
v -0.122601 -0.078180 0.900722
v -0.122371 -0.079352 0.903078
v -0.123643 -0.074908 0.906160
v -0.120488 -0.083936 0.899186
v -0.121279 -0.083604 0.901583
v -0.123096 -0.087336 0.903706
v -0.124818 -0.082011 0.906320
v -0.128385 -0.084762 0.908165
v -0.129102 -0.080238 0.911735
v -0.125403 -0.077451 0.910217
v -0.126121 -0.087993 0.906066
v -0.124886 -0.072662 0.908768
v -0.126346 -0.070540 0.908339
v -0.121910 -0.089861 0.902266
v -0.122694 -0.083986 0.893567
v -0.124490 -0.076699 0.898722
v -0.126686 -0.071769 0.902667
v -0.129355 -0.069917 0.908026
v -0.128565 -0.075746 0.898069
v -0.129943 -0.071632 0.902470
v -0.131849 -0.070686 0.907121
v -0.133271 -0.076208 0.898631
v -0.133996 -0.072606 0.903312
v -0.131746 -0.084663 0.891882
v -0.127062 -0.083441 0.891470
v -0.133667 -0.071725 0.905869
v -0.127974 -0.072316 0.912589
v -0.131067 -0.071230 0.911645
v -0.126839 -0.073748 0.912103
v -0.130340 -0.085564 0.908544
v -0.131376 -0.080045 0.911834
v -0.133205 -0.085479 0.908396
v -0.133715 -0.079268 0.911860
v -0.130992 -0.075771 0.913920
v -0.129279 -0.075981 0.913636
v -0.131251 -0.086710 0.890915
v -0.135587 -0.089342 0.893415
v -0.135990 -0.087523 0.894332
v -0.136877 -0.079056 0.901296
v -0.137216 -0.090318 0.897995
v -0.135260 -0.091044 0.902906
v -0.135716 -0.084941 0.907090
v -0.137587 -0.082284 0.904705
v -0.135854 -0.079171 0.911264
v -0.137171 -0.078704 0.908269
v -0.136731 -0.075118 0.905057
v -0.134843 -0.074809 0.912768
v -0.132681 -0.075149 0.913774
v -0.132915 -0.071562 0.910351
v -0.136365 -0.075347 0.910194
v -0.135009 -0.072651 0.908086
v -0.149087 -0.103018 0.880308
v -0.154454 -0.104212 0.882231
v -0.155051 -0.105792 0.879157
v -0.149721 -0.104945 0.877361
v -0.141096 -0.112665 0.883706
v -0.141513 -0.107941 0.882023
v -0.141946 -0.110591 0.878099
v -0.141681 -0.116121 0.878638
v -0.143908 -0.115731 0.887713
v -0.145026 -0.120732 0.881339
v -0.142996 -0.118731 0.873721
v -0.142945 -0.112495 0.874086
v -0.149944 -0.115245 0.860873
v -0.150239 -0.121935 0.861629
v -0.144797 -0.104778 0.880738
v -0.145334 -0.106750 0.877536
v -0.160750 -0.111920 0.881085
v -0.159159 -0.107788 0.879150
v -0.158463 -0.108774 0.882089
v -0.158932 -0.112559 0.884301
v -0.157470 -0.107582 0.860630
v -0.163117 -0.109289 0.862262
v -0.152862 -0.109984 0.861064
v -0.158733 -0.118318 0.882079
v -0.153787 -0.123569 0.880272
v -0.162389 -0.124961 0.868185
v -0.166181 -0.120079 0.868639
v -0.145744 -0.107991 0.874292
v -0.155607 -0.104994 0.876253
v -0.150231 -0.104718 0.874616
v -0.147471 -0.122774 0.876084
v -0.151269 -0.121097 0.885178
v -0.151666 -0.106279 0.902505
v -0.155168 -0.115757 0.889692
v -0.158182 -0.110998 0.887504
v -0.154996 -0.103537 0.901159
v -0.156560 -0.117557 0.886338
v -0.149801 -0.117888 0.889696
v -0.148679 -0.094338 0.892736
v -0.153467 -0.096374 0.894701
v -0.144578 -0.096218 0.891980
v -0.155107 -0.126477 0.864380
v -0.167479 -0.113801 0.866438
v -0.140072 -0.101468 0.895348
v -0.141854 -0.098151 0.892969
v -0.157773 -0.107468 0.884960
v -0.156088 -0.100019 0.898277
v -0.147062 -0.107997 0.901564
v -0.141822 -0.106593 0.898187
v -0.146949 -0.103765 0.905555
v -0.141700 -0.102283 0.902126
v -0.139791 -0.097674 0.898752
v -0.142042 -0.094801 0.895777
v -0.144952 -0.093245 0.894519
v -0.151788 -0.102058 0.905939
v -0.154729 -0.099857 0.904215
v -0.155508 -0.098542 0.899247
v -0.152627 -0.098186 0.908274
v -0.147304 -0.097529 0.909663
v -0.144022 -0.080568 0.908184
v -0.142916 -0.085642 0.905165
v -0.143082 -0.086243 0.906235
v -0.143847 -0.081407 0.909721
v -0.140911 -0.092022 0.903481
v -0.141651 -0.091113 0.905127
v -0.143013 -0.094020 0.907466
v -0.144528 -0.088534 0.910827
v -0.149809 -0.091224 0.912243
v -0.150107 -0.086354 0.914648
v -0.145227 -0.083664 0.913790
v -0.146725 -0.095336 0.909799
v -0.144868 -0.079231 0.912061
v -0.144350 -0.077535 0.911262
v -0.142285 -0.096382 0.906574
v -0.142109 -0.090634 0.898873
v -0.143829 -0.084244 0.902660
v -0.145009 -0.079012 0.905551
v -0.146960 -0.076545 0.908820
v -0.147193 -0.083609 0.900871
v -0.147892 -0.079262 0.904198
v -0.149546 -0.077077 0.907231
v -0.150537 -0.083905 0.900661
v -0.150998 -0.080258 0.903921
v -0.149219 -0.091646 0.895435
v -0.145317 -0.090640 0.896262
v -0.151358 -0.078391 0.906497
v -0.147164 -0.078654 0.915013
v -0.150726 -0.077385 0.913035
v -0.146578 -0.080250 0.914561
v -0.151381 -0.092246 0.912177
v -0.152406 -0.086123 0.915221
v -0.154031 -0.092153 0.911070
v -0.154873 -0.086056 0.914049
v -0.150946 -0.082033 0.916430
v -0.149871 -0.082522 0.916052
v -0.148934 -0.093479 0.894312
v -0.153307 -0.095640 0.896005
v -0.153405 -0.093845 0.896900
v -0.154779 -0.085441 0.902422
v -0.155759 -0.096468 0.900180
v -0.155303 -0.096228 0.906282
v -0.155899 -0.090607 0.908747
v -0.156612 -0.088030 0.905906
v -0.156269 -0.085335 0.911689
v -0.156292 -0.084812 0.908841
v -0.154722 -0.081642 0.905349
v -0.154748 -0.081450 0.912464
v -0.153364 -0.081580 0.915156
v -0.152626 -0.077857 0.910465
v -0.155436 -0.081560 0.910003
v -0.153728 -0.078969 0.908410
v -0.166520 -0.111072 0.864405
v -0.171142 -0.102326 0.880415
v -0.174760 -0.102954 0.882575
v -0.175104 -0.104197 0.881847
v -0.172049 -0.103561 0.878713
v -0.163901 -0.111423 0.881044
v -0.164845 -0.106805 0.879864
v -0.165437 -0.109530 0.876660
v -0.164854 -0.114123 0.877752
v -0.166268 -0.115262 0.883929
v -0.167768 -0.117540 0.881299
v -0.167130 -0.115753 0.875102
v -0.167563 -0.111137 0.873631
v -0.176259 -0.117690 0.861071
v -0.177864 -0.123085 0.861374
v -0.195202 -0.116037 0.865570
v -0.194160 -0.111131 0.863513
v -0.189384 -0.110580 0.870794
v -0.190798 -0.114933 0.872201
v -0.167655 -0.103882 0.879655
v -0.168431 -0.105422 0.876707
v -0.180474 -0.111675 0.885418
v -0.179664 -0.107339 0.883192
v -0.177864 -0.105993 0.884486
v -0.179030 -0.109427 0.887592
v -0.189417 -0.108956 0.862624
v -0.184653 -0.109332 0.862159
v -0.182716 -0.108520 0.865186
v -0.185635 -0.108322 0.868877
v -0.178126 -0.111208 0.863785
v -0.178800 -0.115821 0.885532
v -0.174633 -0.119660 0.883306
v -0.188549 -0.124482 0.869784
v -0.190888 -0.120213 0.871199
v -0.169374 -0.107088 0.875078
v -0.176964 -0.105092 0.879919
v -0.173374 -0.104647 0.877936
v -0.169866 -0.119601 0.878604
v -0.172659 -0.117237 0.885970
v -0.173551 -0.107286 0.895503
v -0.176314 -0.112361 0.890031
v -0.178626 -0.108212 0.888651
v -0.175747 -0.104975 0.894414
v -0.176997 -0.113558 0.888261
v -0.171334 -0.114900 0.888678
v -0.170308 -0.097971 0.885296
v -0.174501 -0.099690 0.888348
v -0.167040 -0.098798 0.884542
v -0.182452 -0.126163 0.864530
v -0.162467 -0.104420 0.887101
v -0.164122 -0.100534 0.885404
v -0.177277 -0.104777 0.885571
v -0.176385 -0.102142 0.891746
v -0.169080 -0.109020 0.894652
v -0.164188 -0.108875 0.890483
v -0.167847 -0.104919 0.897138
v -0.163152 -0.104854 0.892713
v -0.162390 -0.100466 0.888444
v -0.164883 -0.098329 0.886137
v -0.167844 -0.097146 0.885358
v -0.172560 -0.103644 0.897735
v -0.174875 -0.102164 0.896357
v -0.175862 -0.100573 0.892963
v -0.171752 -0.099893 0.899524
v -0.167022 -0.098810 0.899084
v -0.165624 -0.086320 0.893962
v -0.165021 -0.090057 0.891934
v -0.164649 -0.090487 0.893052
v -0.164797 -0.086556 0.894696
v -0.163396 -0.095305 0.890872
v -0.163548 -0.094578 0.892514
v -0.163872 -0.097342 0.894909
v -0.164364 -0.092263 0.897026
v -0.167899 -0.093429 0.900975
v -0.167791 -0.089268 0.902228
v -0.164398 -0.088685 0.898833
v -0.166003 -0.097146 0.898750
v -0.164578 -0.084535 0.896755
v -0.165079 -0.083213 0.896500
v -0.163207 -0.099374 0.894374
v -0.165741 -0.094766 0.887446
v -0.166604 -0.088602 0.890436
v -0.166917 -0.084282 0.893387
v -0.167224 -0.082178 0.896723
v -0.169029 -0.088938 0.889469
v -0.169208 -0.083922 0.892831
v -0.169548 -0.082104 0.896144
v -0.172365 -0.089597 0.889888
v -0.171664 -0.084895 0.893218
v -0.172516 -0.095446 0.887148
v -0.169024 -0.094570 0.886476
v -0.170978 -0.083170 0.895822
v -0.165568 -0.083794 0.900436
v -0.168358 -0.082639 0.899891
v -0.164756 -0.085268 0.900467
v -0.169178 -0.093868 0.901551
v -0.169253 -0.088813 0.903038
v -0.171699 -0.094040 0.901580
v -0.171374 -0.088260 0.902639
v -0.167956 -0.085403 0.902772
v -0.166584 -0.086670 0.902138
v -0.171692 -0.096747 0.886535
v -0.174390 -0.098399 0.889156
v -0.175204 -0.097033 0.890328
v -0.175130 -0.091098 0.892690
v -0.176057 -0.098907 0.894391
v -0.174478 -0.099782 0.897868
v -0.174015 -0.093536 0.900075
v -0.175647 -0.092470 0.897175
v -0.172994 -0.087492 0.901281
v -0.174423 -0.087121 0.898541
v -0.174075 -0.086060 0.895330
v -0.171252 -0.084074 0.900551
v -0.169886 -0.084247 0.901920
v -0.170282 -0.082694 0.898928
v -0.172490 -0.084279 0.898990
v -0.171990 -0.083640 0.897512
v -0.193652 -0.119709 0.866646
v -0.132475 -0.057174 0.806977
v -0.134431 -0.060067 0.811504
v -0.143702 -0.049159 0.819539
v -0.140475 -0.055413 0.819966
v -0.143740 -0.043341 0.815927
v -0.139169 -0.041471 0.806126
v -0.142721 -0.041330 0.810501
v -0.137115 -0.059356 0.816890
v -0.132529 -0.052436 0.803135
v -0.135297 -0.045763 0.802205
v -0.125229 -0.050555 0.807555
v -0.128208 -0.043108 0.806760
v -0.131963 -0.038212 0.810182
v -0.137538 -0.038712 0.814822
v -0.139997 -0.040742 0.818848
v -0.127983 -0.056012 0.811717
v -0.130756 -0.058492 0.815923
v -0.135304 -0.057289 0.820619
v -0.123814 -0.055369 0.818839
v -0.118110 -0.048210 0.823210
v -0.119499 -0.032540 0.834912
v -0.123774 -0.033900 0.829662
v -0.121214 -0.035122 0.829024
v -0.117332 -0.033363 0.833544
v -0.124420 -0.035708 0.824280
v -0.122529 -0.036907 0.825259
v -0.120224 -0.041329 0.823319
v -0.116874 -0.039752 0.827768
v -0.118147 -0.045865 0.824846
v -0.116111 -0.045908 0.828607
v -0.113427 -0.038374 0.832059
v -0.113728 -0.033530 0.835445
v -0.110785 -0.037220 0.835916
v -0.115263 -0.033225 0.838302
v -0.119013 -0.040801 0.820732
v -0.131250 -0.035538 0.822241
v -0.127498 -0.034095 0.830251
v -0.122709 -0.033499 0.836750
v -0.117520 -0.034619 0.840298
v -0.130715 -0.036622 0.832228
v -0.125569 -0.036823 0.837735
v -0.120760 -0.038518 0.840724
v -0.131950 -0.041203 0.833785
v -0.126324 -0.040814 0.838108
v -0.139157 -0.044941 0.824272
v -0.137111 -0.038756 0.822977
v -0.122376 -0.040800 0.839900
v -0.110619 -0.037491 0.838866
v -0.113201 -0.039183 0.840994
v -0.116664 -0.049367 0.828612
v -0.112406 -0.044672 0.832406
v -0.113449 -0.047322 0.833683
v -0.119217 -0.052572 0.828942
v -0.115211 -0.049236 0.835047
v -0.110654 -0.043567 0.837171
v -0.110480 -0.041806 0.834829
v -0.141336 -0.046260 0.821713
v -0.139501 -0.052691 0.821978
v -0.137488 -0.051546 0.824253
v -0.130714 -0.047890 0.833503
v -0.133261 -0.056158 0.823965
v -0.127712 -0.057263 0.821469
v -0.122400 -0.053893 0.830638
v -0.126813 -0.052582 0.832290
v -0.118603 -0.049608 0.836489
v -0.121499 -0.048623 0.837103
v -0.124737 -0.045025 0.838283
v -0.116523 -0.045727 0.839536
v -0.112950 -0.045281 0.838826
v -0.117286 -0.041664 0.841189
v -0.119310 -0.045961 0.839047
v -0.120492 -0.043222 0.840052
v -0.197665 -0.109803 0.858826
v -0.191990 -0.106585 0.857364
v -0.196775 -0.104700 0.853217
v -0.202650 -0.100708 0.846677
v -0.212092 -0.101731 0.841729
v -0.196830 -0.098754 0.843224
v -0.191053 -0.102723 0.850240
v -0.184160 -0.105679 0.855961
v -0.196168 -0.095224 0.833409
f 2 3 1
f 1 3 4
f 5 6 8
f 8 6 7
f 9 4 10
f 10 4 3
f 12 13 11
f 11 13 9
f 14 12 16
f 16 12 15
f 18 19 17
f 17 19 20
f 22 23 21
f 21 23 24
f 26 27 25
f 25 27 28
f 30 31 29
f 29 31 32
f 33 34 36
f 36 34 35
f 37 38 40
f 40 38 39
f 41 42 6
f 6 42 43
f 6 43 7
f 7 43 44
f 45 34 46
f 46 34 33
f 48 49 47
f 47 49 50
f 52 53 51
f 51 53 54
f 56 52 55
f 55 52 51
f 58 59 57
f 57 59 60
f 61 62 4
f 4 62 1
f 64 65 63
f 63 65 66
f 68 69 67
f 67 69 70
f 72 73 71
f 71 73 74
f 76 77 75
f 75 77 78
f 53 79 54
f 54 79 80
f 82 83 81
f 81 83 84
f 85 86 52
f 52 86 53
f 57 60 87
f 87 60 88
f 89 90 43
f 43 90 44
f 43 42 89
f 89 42 91
f 40 39 92
f 92 39 93
f 94 70 64
f 64 70 69
f 13 61 9
f 9 61 4
f 25 28 69
f 69 28 95
f 96 25 68
f 68 25 69
f 98 99 97
f 97 99 100
f 101 102 104
f 104 102 103
f 106 30 105
f 105 30 29
f 51 54 107
f 107 54 108
f 54 80 108
f 108 80 109
f 111 112 110
f 110 112 113
f 115 5 114
f 114 5 116
f 115 41 5
f 5 41 6
f 36 35 111
f 111 35 117
f 35 118 117
f 117 118 119
f 34 120 35
f 35 120 118
f 34 45 120
f 120 45 121
f 125 126 124
f 124 126 127
f 128 129 14
f 14 129 130
f 33 131 46
f 46 131 132
f 133 94 63
f 63 94 64
f 134 135 137
f 137 135 136
f 139 140 138
f 138 140 141
f 77 142 78
f 78 142 143
f 144 145 20
f 20 145 146
f 148 149 147
f 147 149 72
f 151 152 150
f 150 152 153
f 82 101 83
f 83 101 104
f 101 82 155
f 155 82 154
f 156 157 58
f 58 157 59
f 158 68 147
f 147 68 67
f 159 146 15
f 15 146 16
f 68 158 96
f 96 158 160
f 129 66 130
f 130 66 65
f 162 163 161
f 161 163 164
f 166 167 165
f 165 167 168
f 170 171 169
f 169 171 172
f 174 171 173
f 173 171 170
f 176 177 175
f 175 177 178
f 180 181 179
f 179 181 24
f 182 183 21
f 21 183 184
f 81 185 82
f 82 185 154
f 186 187 188
f 188 187 144
f 158 71 160
f 160 71 189
f 190 135 157
f 157 135 59
f 169 172 139
f 139 172 140
f 147 72 158
f 158 72 71
f 192 193 191
f 191 193 194
f 167 166 49
f 49 166 195
f 196 190 50
f 50 190 157
f 197 198 200
f 200 198 199
f 21 24 182
f 182 24 181
f 146 159 20
f 20 159 17
f 182 181 81
f 81 181 185
f 201 185 180
f 180 185 181
f 202 203 83
f 83 203 84
f 205 206 204
f 204 206 85
f 207 22 184
f 184 22 21
f 179 24 208
f 208 24 23
f 208 209 179
f 179 209 205
f 209 210 205
f 205 210 206
f 212 206 211
f 211 206 210
f 179 205 180
f 180 205 204
f 213 176 88
f 88 176 214
f 86 85 212
f 212 85 206
f 193 217 218
f 217 219 218
f 218 219 220
f 219 18 220
f 220 18 17
f 19 221 20
f 20 221 144
f 222 223 225
f 225 223 224
f 175 226 176
f 176 226 214
f 227 87 214
f 214 87 88
f 220 17 228
f 228 17 159
f 134 213 60
f 60 213 88
f 138 229 151
f 151 229 152
f 193 192 210
f 210 192 211
f 230 194 218
f 218 194 193
f 231 232 228
f 228 232 230
f 233 234 91
f 91 234 89
f 235 236 93
f 93 236 92
f 230 232 234
f 234 232 237
f 47 238 48
f 48 238 239
f 240 191 235
f 235 191 236
f 5 8 116
f 116 8 241
f 242 243 189
f 189 243 160
f 244 245 98
f 98 245 99
f 156 246 47
f 47 246 238
f 76 247 77
f 77 247 248
f 250 125 249
f 249 125 124
f 252 253 251
f 251 253 254
f 111 110 36
f 36 110 255
f 256 33 255
f 255 33 36
f 257 258 154
f 154 258 155
f 63 169 133
f 133 169 139
f 66 170 63
f 63 170 169
f 173 170 129
f 129 170 66
f 129 128 173
f 173 128 259
f 128 260 259
f 259 260 261
f 213 134 262
f 262 134 137
f 263 264 186
f 186 264 187
f 112 265 113
f 113 265 266
f 11 267 268
f 234 233 230
f 230 233 194
f 153 269 70
f 70 269 67
f 175 178 165
f 165 178 141
f 150 153 94
f 94 153 70
f 271 221 270
f 270 221 207
f 269 153 272
f 272 153 152
f 121 45 109
f 109 45 108
f 47 50 156
f 156 50 157
f 57 273 58
f 58 273 274
f 145 275 260
f 260 275 261
f 276 149 143
f 143 149 78
f 148 269 75
f 75 269 272
f 207 277 270
f 270 277 278
f 195 196 49
f 49 196 50
f 59 135 60
f 60 135 134
f 83 104 202
f 202 104 279
f 149 148 78
f 78 148 75
f 247 278 248
f 248 278 277
f 183 182 84
f 84 182 81
f 48 239 281
f 281 239 282
f 227 223 283
f 283 223 222
f 223 226 224
f 224 226 168
f 281 282 224
f 224 282 225
f 165 168 175
f 175 168 226
f 264 263 138
f 138 263 229
f 14 16 128
f 128 16 260
f 220 228 218
f 218 228 230
f 87 227 284
f 284 227 283
f 260 16 145
f 145 16 146
f 244 98 258
f 258 98 155
f 58 274 156
f 156 274 246
f 107 285 51
f 51 285 55
f 243 286 160
f 160 286 96
f 234 237 89
f 89 237 90
f 46 132 107
f 107 132 285
f 253 252 249
f 249 252 250
f 286 26 96
f 96 26 25
f 106 105 287
f 287 105 288
f 272 152 289
f 289 152 229
f 138 151 139
f 139 151 133
f 183 290 161
f 161 290 162
f 291 292 277
f 277 292 293
f 151 150 133
f 133 150 94
f 262 275 177
f 177 275 187
f 144 187 145
f 145 187 275
f 273 57 284
f 284 57 87
f 174 136 190
f 190 136 135
f 111 117 112
f 112 117 38
f 117 119 38
f 38 119 123
f 112 38 265
f 265 38 37
f 287 288 254
f 254 288 251
f 228 159 231
f 231 159 15
f 223 227 226
f 226 227 214
f 147 67 148
f 148 67 269
f 224 168 281
f 281 168 167
f 199 163 200
f 200 163 162
f 45 46 108
f 108 46 107
f 281 167 48
f 48 167 49
f 161 164 291
f 291 164 292
f 38 123 39
f 293 294 277
f 277 294 248
f 284 283 296
f 296 283 295
f 284 296 273
f 273 296 297
f 274 273 298
f 298 273 297
f 246 274 299
f 299 274 298
f 283 222 295
f 295 222 300
f 222 225 300
f 300 225 301
f 301 225 302
f 302 225 282
f 303 304 300
f 300 304 295
f 306 307 305
f 305 307 308
f 309 310 308
f 308 310 305
f 308 307 312
f 312 307 311
f 313 314 312
f 312 314 315
f 311 316 312
f 312 316 313
f 317 304 311
f 311 304 316
f 315 309 312
f 312 309 308
f 318 319 321
f 321 319 320
f 319 318 309
f 309 318 310
f 311 307 317
f 317 307 306
f 306 297 317
f 317 297 296
f 306 322 297
f 297 322 298
f 305 323 306
f 306 323 322
f 323 305 324
f 324 305 310
f 304 317 295
f 295 317 296
f 318 325 310
f 310 325 324
f 323 324 326
f 326 324 327
f 324 325 327
f 327 325 328
f 326 327 329
f 329 327 330
f 329 331 326
f 326 331 332
f 333 330 328
f 328 330 327
f 323 326 322
f 322 326 332
f 322 332 298
f 298 332 299
f 325 318 334
f 334 318 321
f 313 316 335
f 335 316 304
f 335 336 313
f 313 336 314
f 304 303 335
f 335 303 337
f 336 335 338
f 338 335 337
f 336 339 314
f 314 339 340
f 246 299 238
f 238 299 341
f 239 342 282
f 282 342 302
f 342 239 341
f 341 239 238
f 341 331 342
f 342 331 343
f 331 329 343
f 343 329 344
f 342 343 302
f 302 343 345
f 341 299 331
f 331 299 332
f 346 301 345
f 345 301 302
f 346 303 301
f 301 303 300
f 347 337 346
f 346 337 303
f 347 346 348
f 348 346 345
f 349 347 350
f 350 347 348
f 343 344 345
f 345 344 348
f 344 351 348
f 348 351 350
f 337 347 338
f 338 347 349
f 353 338 352
f 352 338 349
f 352 355 354
f 354 355 356
f 352 349 355
f 355 349 350
f 352 354 353
f 353 354 334
f 353 334 339
f 339 334 321
f 339 336 353
f 353 336 338
f 329 330 344
f 344 330 351
f 356 351 333
f 333 351 330
f 356 355 351
f 351 355 350
f 354 356 328
f 328 356 333
f 328 325 354
f 354 325 334
f 309 315 319
f 319 315 320
f 320 340 321
f 321 340 339
f 320 315 340
f 340 315 314
f 137 136 261
f 261 136 259
f 140 166 141
f 141 166 165
f 172 171 195
f 195 171 196
f 171 174 196
f 196 174 190
f 178 177 264
f 264 177 187
f 172 195 140
f 140 195 166
f 137 261 262
f 262 261 275
f 178 264 141
f 141 264 138
f 262 177 213
f 213 177 176
f 136 174 259
f 259 174 173
f 358 359 357
f 357 359 360
f 362 363 361
f 361 363 364
f 361 364 365
f 365 364 366
f 367 368 370
f 370 368 369
f 76 371 247
f 247 371 372
f 373 374 362
f 362 374 363
f 376 377 375
f 375 377 378
f 289 229 380
f 380 229 379
f 381 379 263
f 263 379 229
f 383 384 382
f 382 384 385
f 386 368 374
f 374 368 363
f 76 289 371
f 371 289 380
f 377 376 359
f 359 376 387
f 388 386 360
f 360 386 374
f 389 383 366
f 366 383 390
f 392 393 391
f 391 393 394
f 383 382 390
f 390 382 395
f 396 365 390
f 390 365 366
f 389 366 367
f 367 366 364
f 357 397 358
f 358 397 398
f 373 399 357
f 357 399 397
f 389 367 400
f 400 367 370
f 382 385 375
f 375 385 372
f 357 360 373
f 373 360 374
f 361 401 362
f 362 401 402
f 387 388 359
f 359 388 360
f 363 368 364
f 364 368 367
f 358 398 403
f 403 398 404
f 396 392 405
f 405 392 391
f 392 395 393
f 393 395 378
f 393 403 394
f 394 403 404
f 375 378 382
f 382 378 395
f 365 396 406
f 406 396 405
f 362 402 373
f 373 402 399
f 271 270 400
f 400 270 384
f 401 361 406
f 406 361 365
f 381 369 386
f 386 369 368
f 392 396 395
f 395 396 390
f 393 378 403
f 403 378 377
f 403 377 358
f 358 377 359
f 406 405 408
f 408 405 407
f 406 408 401
f 401 408 409
f 401 409 402
f 402 409 410
f 402 410 399
f 399 410 411
f 405 391 407
f 407 391 412
f 391 394 412
f 412 394 413
f 394 404 413
f 413 404 414
f 415 416 412
f 412 416 407
f 418 419 417
f 417 419 420
f 421 422 418
f 418 422 419
f 419 422 424
f 424 422 423
f 425 426 424
f 424 426 427
f 423 428 424
f 424 428 425
f 427 420 424
f 424 420 419
f 420 429 417
f 417 429 430
f 423 422 431
f 431 422 421
f 421 409 431
f 431 409 408
f 421 432 409
f 409 432 410
f 418 433 421
f 421 433 432
f 434 433 417
f 417 433 418
f 431 416 423
f 423 416 428
f 416 431 407
f 407 431 408
f 435 434 430
f 430 434 417
f 433 434 436
f 436 434 437
f 434 435 437
f 437 435 438
f 436 437 439
f 439 437 440
f 439 441 436
f 436 441 442
f 438 443 437
f 437 443 440
f 436 442 433
f 433 442 432
f 432 442 410
f 410 442 411
f 435 430 445
f 445 430 444
f 430 429 444
f 444 429 446
f 425 428 447
f 447 428 416
f 426 425 448
f 448 425 447
f 416 415 447
f 447 415 449
f 447 449 448
f 448 449 450
f 451 452 448
f 448 452 426
f 446 452 444
f 444 452 451
f 399 411 397
f 397 411 453
f 398 454 404
f 404 454 414
f 454 398 453
f 453 398 397
f 453 441 454
f 454 441 455
f 441 439 455
f 455 439 456
f 454 455 414
f 414 455 457
f 441 453 442
f 442 453 411
f 458 413 457
f 457 413 414
f 458 415 413
f 413 415 412
f 458 459 415
f 415 459 449
f 459 458 460
f 460 458 457
f 461 459 462
f 462 459 460
f 455 456 457
f 457 456 460
f 456 463 460
f 460 463 462
f 459 461 449
f 449 461 450
f 465 450 464
f 464 450 461
f 464 467 466
f 466 467 468
f 464 461 467
f 467 461 462
f 464 466 465
f 465 466 445
f 465 445 451
f 451 445 444
f 451 448 465
f 465 448 450
f 439 440 456
f 456 440 463
f 468 463 443
f 443 463 440
f 468 467 463
f 463 467 462
f 466 468 438
f 438 468 443
f 438 435 466
f 466 435 445
f 420 427 429
f 429 427 446
f 446 427 452
f 452 427 426
f 370 369 188
f 188 369 186
f 371 376 372
f 372 376 375
f 380 379 387
f 387 379 388
f 379 381 388
f 388 381 386
f 385 384 278
f 278 384 270
f 380 387 371
f 371 387 376
f 400 370 271
f 271 370 188
f 385 278 372
f 372 278 247
f 400 384 389
f 389 384 383
f 369 381 186
f 186 381 263
f 221 271 144
f 144 271 188
f 221 19 207
f 207 19 22
f 19 18 22
f 22 18 23
f 18 219 23
f 23 219 208
f 469 470 472
f 472 470 471
f 474 475 473
f 473 475 476
f 473 476 477
f 477 476 478
f 480 481 479
f 479 481 482
f 483 484 474
f 474 484 475
f 486 487 485
f 485 487 488
f 489 490 77
f 77 490 142
f 491 489 248
f 248 489 77
f 493 494 492
f 492 494 495
f 496 480 484
f 484 480 475
f 486 497 487
f 487 497 471
f 498 496 472
f 472 496 484
f 499 493 478
f 478 493 500
f 501 502 504
f 504 502 503
f 493 492 500
f 500 492 505
f 506 477 500
f 500 477 478
f 499 478 479
f 479 478 476
f 469 507 470
f 470 507 508
f 483 509 469
f 469 509 507
f 479 482 499
f 499 482 510
f 492 495 485
f 485 495 511
f 483 469 484
f 484 469 472
f 473 512 474
f 474 512 513
f 497 498 471
f 471 498 472
f 475 480 476
f 476 480 479
f 470 508 514
f 514 508 515
f 506 502 516
f 516 502 501
f 503 502 488
f 488 502 505
f 514 515 503
f 503 515 504
f 485 488 492
f 492 488 505
f 477 506 517
f 517 506 516
f 474 513 483
f 483 513 509
f 510 292 494
f 494 292 164
f 512 473 517
f 517 473 477
f 491 481 496
f 496 481 480
f 502 506 505
f 505 506 500
f 503 488 514
f 514 488 487
f 514 487 470
f 470 487 471
f 517 516 519
f 519 516 518
f 517 519 512
f 512 519 520
f 512 520 513
f 513 520 521
f 513 521 509
f 509 521 522
f 516 501 518
f 518 501 523
f 501 504 523
f 523 504 524
f 524 504 525
f 525 504 515
f 526 527 523
f 523 527 518
f 529 530 528
f 528 530 531
f 532 533 529
f 529 533 530
f 530 533 535
f 535 533 534
f 536 537 535
f 535 537 538
f 534 539 535
f 535 539 536
f 538 531 535
f 535 531 530
f 540 541 531
f 531 541 528
f 533 532 534
f 534 532 542
f 532 520 542
f 542 520 519
f 532 543 520
f 520 543 521
f 529 544 532
f 532 544 543
f 544 529 545
f 545 529 528
f 534 542 539
f 539 542 527
f 527 542 518
f 518 542 519
f 541 546 528
f 528 546 545
f 547 544 548
f 548 544 545
f 546 549 545
f 545 549 548
f 550 547 551
f 551 547 548
f 547 550 553
f 553 550 552
f 549 554 548
f 548 554 551
f 544 547 543
f 543 547 553
f 543 553 521
f 521 553 522
f 546 541 556
f 556 541 555
f 541 540 555
f 555 540 557
f 536 539 558
f 558 539 527
f 537 536 559
f 559 536 558
f 527 526 558
f 558 526 560
f 559 558 561
f 561 558 560
f 559 562 537
f 537 562 563
f 557 563 555
f 555 563 562
f 509 522 507
f 507 522 564
f 508 565 515
f 515 565 525
f 565 508 564
f 564 508 507
f 564 552 565
f 565 552 566
f 552 550 566
f 566 550 567
f 565 566 525
f 525 566 568
f 564 522 552
f 552 522 553
f 569 524 568
f 568 524 525
f 569 526 524
f 524 526 523
f 570 560 569
f 569 560 526
f 570 569 571
f 571 569 568
f 572 570 573
f 573 570 571
f 566 567 568
f 568 567 571
f 567 574 571
f 571 574 573
f 570 572 560
f 560 572 561
f 576 561 575
f 575 561 572
f 575 578 577
f 577 578 579
f 575 572 578
f 578 572 573
f 575 577 576
f 576 577 556
f 576 556 562
f 562 556 555
f 562 559 576
f 576 559 561
f 550 551 567
f 567 551 574
f 579 574 554
f 554 574 551
f 579 578 574
f 574 578 573
f 579 554 577
f 577 554 549
f 549 546 577
f 577 546 556
f 531 538 540
f 540 538 557
f 557 538 563
f 563 538 537
f 481 294 482
f 482 294 293
f 580 486 511
f 511 486 485
f 490 489 497
f 497 489 498
f 489 491 498
f 498 491 496
f 163 495 164
f 164 495 494
f 580 490 486
f 486 490 497
f 482 293 510
f 510 293 292
f 495 163 511
f 511 163 199
f 494 493 510
f 510 493 499
f 481 491 294
f 294 491 248
f 582 583 581
f 581 583 584
f 586 587 585
f 585 587 588
f 585 588 589
f 589 588 590
f 592 593 591
f 591 593 594
f 595 596 598
f 598 596 597
f 599 600 586
f 586 600 587
f 601 602 604
f 604 602 603
f 605 606 608
f 608 606 607
f 609 607 200
f 200 607 606
f 610 611 613
f 613 611 612
f 600 614 587
f 587 614 592
f 596 605 597
f 597 605 608
f 602 615 603
f 603 615 583
f 616 614 584
f 584 614 600
f 611 618 617
f 617 618 590
f 620 621 619
f 619 621 622
f 610 623 611
f 611 623 618
f 624 589 618
f 618 589 590
f 617 590 591
f 591 590 588
f 581 625 582
f 582 625 626
f 599 627 581
f 581 627 625
f 591 594 617
f 617 594 628
f 601 610 598
f 598 610 613
f 581 584 599
f 599 584 600
f 585 629 586
f 586 629 630
f 615 616 583
f 583 616 584
f 587 592 588
f 588 592 591
f 582 626 631
f 631 626 632
f 624 620 633
f 633 620 619
f 621 620 604
f 604 620 623
f 631 632 621
f 621 632 622
f 610 601 623
f 623 601 604
f 589 624 634
f 634 624 633
f 586 630 599
f 599 630 627
f 203 202 628
f 628 202 612
f 629 585 634
f 634 585 589
f 609 593 614
f 614 593 592
f 620 624 623
f 623 624 618
f 631 621 603
f 603 621 604
f 582 631 583
f 583 631 603
f 634 633 636
f 636 633 635
f 634 636 629
f 629 636 637
f 629 637 630
f 630 637 638
f 630 638 627
f 627 638 639
f 633 619 635
f 635 619 640
f 619 622 640
f 640 622 641
f 641 622 642
f 642 622 632
f 644 635 643
f 643 635 640
f 645 646 648
f 648 646 647
f 649 650 646
f 646 650 647
f 647 650 652
f 652 650 651
f 652 653 655
f 655 653 654
f 651 656 652
f 652 656 653
f 655 648 652
f 652 648 647
f 648 657 645
f 645 657 658
f 650 649 651
f 651 649 659
f 649 637 659
f 659 637 636
f 649 660 637
f 637 660 638
f 661 660 646
f 646 660 649
f 662 661 645
f 645 661 646
f 651 659 656
f 656 659 644
f 644 659 635
f 635 659 636
f 663 662 658
f 658 662 645
f 664 661 665
f 665 661 662
f 663 666 662
f 662 666 665
f 667 664 668
f 668 664 665
f 664 667 670
f 670 667 669
f 666 671 665
f 665 671 668
f 661 664 660
f 660 664 670
f 660 670 638
f 638 670 639
f 658 672 663
f 663 672 673
f 658 657 672
f 672 657 674
f 653 656 675
f 675 656 644
f 653 675 654
f 654 675 676
f 675 644 677
f 677 644 643
f 676 675 678
f 678 675 677
f 679 680 676
f 676 680 654
f 674 680 672
f 672 680 679
f 627 639 625
f 625 639 681
f 626 682 632
f 632 682 642
f 681 682 625
f 625 682 626
f 669 683 681
f 681 683 682
f 667 684 669
f 669 684 683
f 682 683 642
f 642 683 685
f 681 639 669
f 669 639 670
f 686 641 685
f 685 641 642
f 641 686 640
f 640 686 643
f 686 687 643
f 643 687 677
f 687 686 688
f 688 686 685
f 689 687 690
f 690 687 688
f 683 684 685
f 685 684 688
f 684 691 688
f 688 691 690
f 687 689 677
f 677 689 678
f 693 678 692
f 692 678 689
f 692 695 694
f 694 695 696
f 692 689 695
f 695 689 690
f 692 694 693
f 693 694 673
f 693 673 679
f 679 673 672
f 679 676 693
f 693 676 678
f 684 667 691
f 691 667 668
f 696 691 671
f 671 691 668
f 696 695 691
f 691 695 690
f 694 696 666
f 666 696 671
f 666 663 694
f 694 663 673
f 648 655 657
f 657 655 674
f 674 655 680
f 680 655 654
f 593 162 594
f 594 162 290
f 598 597 601
f 601 597 602
f 615 608 616
f 616 608 607
f 607 609 616
f 616 609 614
f 697 595 613
f 613 595 598
f 597 608 602
f 602 608 615
f 594 290 628
f 628 290 203
f 628 612 617
f 617 612 611
f 593 609 162
f 162 609 200
f 105 29 698
f 698 29 699
f 268 126 701
f 701 126 700
f 126 125 700
f 700 125 702
f 252 703 250
f 250 703 704
f 32 268 705
f 705 268 701
f 288 105 706
f 706 105 698
f 29 32 699
f 699 32 705
f 707 251 706
f 706 251 288
f 250 704 125
f 125 704 702
f 703 252 707
f 707 252 251
f 706 708 707
f 707 708 709
f 707 709 703
f 703 709 710
f 703 710 704
f 704 710 711
f 704 711 702
f 702 711 712
f 706 698 708
f 708 698 713
f 698 699 713
f 713 699 714
f 699 705 714
f 714 705 715
f 717 708 716
f 716 708 713
f 719 720 718
f 718 720 721
f 722 723 719
f 719 723 720
f 724 725 723
f 723 725 720
f 724 726 725
f 725 726 727
f 728 721 725
f 725 721 720
f 721 728 729
f 729 728 730
f 729 731 721
f 721 731 718
f 724 723 732
f 732 723 722
f 722 710 732
f 732 710 709
f 722 733 710
f 710 733 711
f 719 734 722
f 722 734 733
f 734 719 735
f 735 719 718
f 724 732 726
f 726 732 717
f 717 732 708
f 708 732 709
f 731 736 718
f 718 736 735
f 737 734 738
f 738 734 735
f 736 739 735
f 735 739 738
f 740 737 741
f 741 737 738
f 737 740 743
f 743 740 742
f 739 744 738
f 738 744 741
f 734 737 733
f 733 737 743
f 733 743 711
f 711 743 712
f 736 731 746
f 746 731 745
f 731 729 745
f 745 729 730
f 727 726 747
f 747 726 717
f 748 727 749
f 749 727 747
f 747 717 750
f 750 717 716
f 749 747 751
f 751 747 750
f 749 752 748
f 748 752 753
f 730 753 745
f 745 753 752
f 728 725 748
f 748 725 727
f 730 728 753
f 753 728 748
f 700 702 754
f 754 702 712
f 705 701 715
f 715 701 755
f 754 755 700
f 700 755 701
f 742 756 754
f 754 756 755
f 740 757 742
f 742 757 756
f 755 756 715
f 715 756 758
f 754 712 742
f 742 712 743
f 759 714 758
f 758 714 715
f 714 759 713
f 713 759 716
f 759 760 716
f 716 760 750
f 760 759 761
f 761 759 758
f 762 760 763
f 763 760 761
f 756 757 758
f 758 757 761
f 757 764 761
f 761 764 763
f 760 762 750
f 750 762 751
f 766 751 765
f 765 751 762
f 767 765 769
f 769 765 768
f 765 762 768
f 768 762 763
f 765 767 766
f 766 767 746
f 766 746 752
f 752 746 745
f 752 749 766
f 766 749 751
f 757 740 764
f 764 740 741
f 769 764 744
f 744 764 741
f 769 768 764
f 764 768 763
f 767 769 739
f 739 769 744
f 739 736 767
f 767 736 746
f 219 217 208
f 208 217 209
f 209 217 210
f 210 217 193
f 198 580 199
f 199 580 511
f 76 75 289
f 289 75 272
f 277 207 291
f 291 207 184
f 290 183 203
f 203 183 84
f 490 580 142
f 142 580 198
f 142 198 143
f 143 198 197
f 149 276 72
f 72 276 73
f 104 103 279
f 279 103 770
f 770 596 279
f 279 596 595
f 605 596 771
f 771 596 770
f 771 770 772
f 772 770 103
f 772 103 773
f 773 103 102
f 155 774 101
f 101 774 102
f 773 102 97
f 97 102 774
f 775 773 100
f 100 773 97
f 773 775 772
f 772 775 776
f 772 776 771
f 771 776 777
f 200 606 197
f 197 606 777
f 189 71 778
f 778 71 74
f 97 774 98
f 98 774 155
f 183 161 184
f 184 161 291
f 777 276 197
f 197 276 143
f 777 606 771
f 771 606 605
f 613 612 697
f 697 612 202
f 595 697 279
f 279 697 202
f 73 276 776
f 776 276 777
f 776 775 73
f 73 775 74
f 100 778 775
f 775 778 74
f 778 100 189
f 189 100 99
f 245 242 99
f 99 242 189
f 131 33 256
f 28 1 95
f 95 1 62
f 27 2 28
f 28 2 1
f 265 115 266
f 266 115 114
f 95 62 69
f 69 62 64
f 62 61 64
f 64 61 65
f 61 13 65
f 65 13 130
f 13 12 130
f 130 12 14
f 31 11 32
f 32 11 268
f 15 12 31
f 31 12 11
f 31 30 15
f 15 30 231
f 30 106 231
f 231 106 232
f 287 237 106
f 106 237 232
f 254 90 287
f 287 90 237
f 253 44 254
f 254 44 90
f 253 249 44
f 44 249 7
f 267 127 268
f 268 127 126
f 10 3 241
f 241 3 116
f 3 2 116
f 116 2 114
f 2 27 114
f 114 27 266
f 27 26 266
f 266 26 113
f 26 286 113
f 113 286 110
f 286 243 110
f 110 243 255
f 243 242 255
f 255 242 256
f 242 245 256
f 256 245 131
f 245 244 131
f 131 244 132
f 265 37 115
f 115 37 41
f 41 37 42
f 42 37 40
f 92 91 40
f 40 91 42
f 236 233 92
f 92 233 91
f 191 194 236
f 236 194 233
f 258 285 244
f 244 285 132
f 257 55 258
f 258 55 285
f 257 154 201
f 201 154 185
f 56 201 204
f 204 201 180
f 55 257 56
f 56 257 201
f 204 85 56
f 56 85 52
f 86 122 53
f 53 122 79
f 212 215 86
f 86 215 122
f 211 216 212
f 212 216 215
f 192 280 211
f 211 280 216
f 191 240 192
f 192 240 280
f 249 124 7
f 7 124 8
f 124 127 8
f 8 127 241
f 127 267 241
f 241 267 10
f 10 267 9
f 9 267 11
o hand_right
v -0.102748 0.129853 0.883673
v -0.111819 0.127110 0.879600
v -0.104856 0.117967 0.880181
v -0.095521 0.122070 0.883574
v -0.125246 0.111335 0.870977
v -0.128143 0.107832 0.859554
v -0.116764 0.098321 0.863431
v -0.116500 0.102084 0.872979
v -0.088654 0.116350 0.881915
v -0.099186 0.111177 0.880470
v -0.084988 0.113888 0.876653
v -0.075105 0.125686 0.876318
v -0.079631 0.123864 0.882184
v -0.068594 0.132173 0.879512
v -0.077128 0.132663 0.867333
v -0.067569 0.141791 0.877073
v -0.091624 0.160947 0.872850
v -0.100941 0.168915 0.879047
v -0.087772 0.170944 0.890476
v -0.079940 0.161789 0.883423
v -0.106514 0.177216 0.897869
v -0.095582 0.173979 0.894357
v -0.108299 0.173062 0.882390
v -0.117488 0.175829 0.886159
v -0.116157 0.140729 0.886068
v -0.125259 0.139543 0.881348
v -0.119854 0.136184 0.880055
v -0.111658 0.137267 0.884322
v -0.086351 0.102949 0.865667
v -0.086557 0.115784 0.860228
v -0.083287 0.116059 0.868015
v -0.087286 0.102222 0.871280
v -0.154181 0.136872 0.875276
v -0.161106 0.139710 0.863949
v -0.157399 0.136976 0.860279
v -0.151573 0.135519 0.871419
v -0.142220 0.122602 0.853765
v -0.147327 0.128792 0.847968
v -0.143832 0.130208 0.834518
v -0.136326 0.125949 0.838587
v -0.135310 0.114997 0.857561
v -0.131206 0.117005 0.844261
v -0.124366 0.109434 0.848532
v -0.113786 0.098615 0.854449
v -0.168109 0.148336 0.870488
v -0.164329 0.147051 0.879900
v -0.054622 0.128029 0.925143
v -0.059457 0.130771 0.927407
v -0.060148 0.131510 0.924283
v -0.055122 0.128773 0.922524
v -0.164805 0.167712 0.875587
v -0.160298 0.175455 0.870871
v -0.166623 0.174232 0.867414
v -0.170039 0.165940 0.870394
v -0.157843 0.169950 0.882433
v -0.151403 0.176376 0.875680
v -0.043947 0.134185 0.928851
v -0.046000 0.129830 0.926912
v -0.045231 0.132349 0.923025
v -0.043625 0.137392 0.924435
v -0.086667 0.125877 0.886122
v -0.094827 0.131028 0.888579
v -0.073772 0.131042 0.896876
v -0.082167 0.132508 0.893668
v -0.078210 0.128809 0.888542
v -0.071026 0.129127 0.891423
v -0.100467 0.145913 0.901535
v -0.109377 0.144578 0.894070
v -0.103904 0.141238 0.892030
v -0.093461 0.141180 0.899580
v -0.120327 0.149659 0.901617
v -0.110542 0.150964 0.908124
v -0.117919 0.153810 0.911633
v -0.123851 0.151503 0.906851
v -0.092047 0.152370 0.916479
v -0.087064 0.153626 0.919535
v -0.089945 0.153880 0.922158
v -0.095279 0.153835 0.918068
v -0.172307 0.173676 0.863174
v -0.174340 0.164151 0.864765
v -0.125675 0.181251 0.907692
v -0.135834 0.177222 0.910700
v -0.127302 0.180289 0.921690
v -0.118353 0.184260 0.915366
v -0.152358 0.178306 0.864744
v -0.159672 0.179128 0.861954
v -0.045406 0.139622 0.931587
v -0.045328 0.142773 0.927414
v -0.117714 0.118196 0.841061
v -0.107312 0.103643 0.848417
v -0.126317 0.128207 0.835975
v -0.132505 0.135189 0.832410
v -0.138545 0.138472 0.827654
v -0.082867 0.136150 0.899260
v -0.102841 0.136404 0.888303
v -0.120204 0.143147 0.888289
v -0.141179 0.153583 0.908666
v -0.149043 0.151503 0.901888
v -0.139927 0.146414 0.899197
v -0.134747 0.149812 0.905428
v -0.139830 0.169542 0.915535
v -0.137308 0.161808 0.916893
v -0.130833 0.164679 0.923068
v -0.132075 0.172715 0.923629
v -0.087855 0.099897 0.858573
v -0.090736 0.114517 0.853466
v -0.166953 0.157673 0.878347
v -0.170272 0.155814 0.871510
v -0.174654 0.156378 0.864243
v -0.139153 0.137166 0.878045
v -0.149773 0.134496 0.868831
v -0.146533 0.132103 0.867230
v -0.136074 0.136671 0.876644
v -0.123067 0.124311 0.876786
v -0.134273 0.121430 0.869338
v -0.115898 0.114511 0.878608
v -0.153718 0.133341 0.854136
v -0.163938 0.136972 0.852232
v -0.158704 0.133476 0.845909
v -0.169355 0.143066 0.857755
v -0.173341 0.149731 0.862219
v -0.166101 0.181955 0.857098
v -0.152777 0.131689 0.840128
v -0.109336 0.095972 0.873878
v -0.103834 0.089718 0.873876
v -0.098659 0.094580 0.877511
v -0.103728 0.101247 0.878397
v -0.061311 0.136004 0.885716
v -0.065734 0.130218 0.888534
v -0.073233 0.127643 0.882683
v -0.149774 0.140180 0.885475
v -0.158658 0.148538 0.889064
v -0.074482 0.135076 0.902136
v -0.044743 0.139495 0.919171
v -0.046305 0.133759 0.917949
v -0.053641 0.135352 0.900665
v -0.051419 0.141887 0.901691
v -0.070143 0.142894 0.908254
v -0.071947 0.137001 0.905534
v -0.070830 0.138694 0.907503
v -0.070293 0.144098 0.911287
v -0.098324 0.157051 0.924880
v -0.103193 0.156750 0.920921
v -0.070269 0.159938 0.895892
v -0.063021 0.154534 0.885256
v -0.072585 0.152959 0.877382
v -0.106622 0.148983 0.904538
v -0.099205 0.150580 0.911630
v -0.102429 0.152487 0.913594
v -0.081805 0.138879 0.903094
v -0.075475 0.139589 0.905937
v -0.079386 0.142299 0.907027
v -0.086099 0.141996 0.904703
v -0.144129 0.175483 0.900176
v -0.148941 0.166672 0.906207
v -0.049820 0.127660 0.925280
v -0.049604 0.129098 0.922085
v -0.115231 0.147584 0.897159
v -0.084745 0.151307 0.869003
v -0.124545 0.145291 0.890992
v -0.101009 0.176169 0.919571
v -0.104626 0.171250 0.925012
v -0.100389 0.168690 0.929008
v -0.095980 0.172397 0.926651
v -0.063926 0.143395 0.924629
v -0.064777 0.137663 0.924063
v -0.062937 0.136669 0.926709
v -0.061843 0.142242 0.928635
v -0.070261 0.132602 0.902056
v -0.066632 0.129812 0.897384
v -0.064485 0.130633 0.903504
v -0.068308 0.134362 0.906216
v -0.061132 0.131508 0.895101
v -0.058634 0.131391 0.901131
v -0.059262 0.148066 0.924584
v -0.051747 0.148859 0.923436
v -0.058752 0.152130 0.907749
v -0.064932 0.149677 0.912014
v -0.127466 0.175838 0.874586
v -0.136550 0.178027 0.880759
v -0.126817 0.178323 0.892439
v -0.117133 0.180162 0.904038
v -0.107305 0.180573 0.914454
v -0.097253 0.179372 0.907654
v -0.134327 0.179117 0.895844
v -0.069872 0.149874 0.906543
v -0.063906 0.153876 0.899150
v -0.068480 0.154918 0.902752
v -0.130032 0.146802 0.895871
v -0.050569 0.130016 0.917820
v -0.130491 0.157444 0.834547
v -0.135694 0.167857 0.840917
v -0.128532 0.165775 0.845640
v -0.122982 0.153558 0.838973
v -0.061909 0.131746 0.921853
v -0.056774 0.128604 0.919208
v -0.107352 0.159478 0.925494
v -0.101822 0.159711 0.928487
v -0.101882 0.162567 0.930668
v -0.108488 0.162100 0.930543
v -0.142141 0.178176 0.882971
v -0.120764 0.178188 0.929243
v -0.113499 0.182542 0.922726
v -0.144637 0.177761 0.870359
v -0.136710 0.176473 0.864704
v -0.143765 0.177204 0.857960
v -0.083999 0.171883 0.906655
v -0.119582 0.173384 0.871766
v -0.130182 0.173682 0.861722
v -0.138315 0.174419 0.853518
v -0.144384 0.175826 0.847912
v -0.149785 0.178602 0.853395
v -0.047106 0.145055 0.921746
v -0.050334 0.146987 0.929968
v -0.156354 0.181786 0.847929
v -0.150189 0.177902 0.842132
v -0.123173 0.169265 0.857634
v -0.115271 0.162471 0.853033
v -0.113262 0.168941 0.867621
v -0.104492 0.162337 0.863772
v -0.076738 0.171743 0.898360
v -0.055669 0.137601 0.944113
v -0.056299 0.143721 0.934934
v -0.060780 0.140578 0.932809
v -0.059761 0.136651 0.942962
v -0.057502 0.146223 0.929886
v -0.050529 0.143705 0.934163
v -0.096821 0.150035 0.858703
v -0.074510 0.143596 0.909696
v -0.109127 0.146837 0.846901
v -0.086677 0.133889 0.857054
v -0.097355 0.130278 0.849180
v -0.121523 0.141573 0.834888
v -0.110996 0.129691 0.839392
v -0.135562 0.148703 0.827083
v -0.128534 0.146549 0.831700
v -0.102456 0.116184 0.844985
v -0.057902 0.124796 0.934267
v -0.061934 0.128715 0.936007
v -0.136777 0.159539 0.829453
v -0.108956 0.107342 0.878818
v -0.137312 0.142724 0.888866
v -0.132707 0.141920 0.885543
v -0.153110 0.150254 0.897059
v -0.144158 0.143641 0.893029
v -0.052619 0.123568 0.934177
v -0.084234 0.156677 0.921719
v -0.086265 0.156283 0.920869
v -0.111196 0.092076 0.865892
v -0.106499 0.087334 0.866972
v -0.098280 0.088858 0.856534
v -0.103728 0.086478 0.860615
v -0.108655 0.091978 0.857537
v -0.103152 0.095065 0.852799
v -0.141379 0.137550 0.879676
v -0.144175 0.138643 0.882307
v -0.151719 0.172538 0.890985
v -0.155690 0.163674 0.897333
v -0.057299 0.136646 0.893518
v -0.059464 0.144607 0.885693
v -0.055776 0.143597 0.893912
v -0.053992 0.148543 0.902493
v -0.071248 0.146105 0.910033
v -0.067790 0.148771 0.906640
v -0.140444 0.127326 0.868605
v -0.130066 0.132692 0.876099
v -0.095875 0.106012 0.878814
v -0.092111 0.099544 0.877106
v -0.092950 0.146031 0.906587
v -0.077381 0.165952 0.914624
v -0.071846 0.165103 0.907645
v -0.085424 0.147338 0.911119
v -0.046697 0.127524 0.938618
v -0.049289 0.124381 0.935814
v -0.057873 0.150501 0.894460
v -0.109647 0.154865 0.917582
v -0.084242 0.167895 0.914208
v -0.080738 0.162765 0.920125
v -0.127365 0.172348 0.928421
v -0.142451 0.169253 0.835236
v -0.062582 0.135579 0.930556
v -0.063311 0.133041 0.938498
v -0.051423 0.137109 0.943409
v -0.047130 0.133471 0.940865
v -0.160779 0.159725 0.888386
v -0.129279 0.141291 0.883711
v -0.097122 0.104339 0.850027
v -0.092689 0.094337 0.855705
v -0.081597 0.148510 0.913366
v -0.107002 0.177633 0.922047
v -0.092272 0.176150 0.915790
v -0.087394 0.172213 0.923674
v -0.082724 0.166426 0.922000
v -0.082656 0.159309 0.922212
v -0.053024 0.133678 0.947998
v -0.048915 0.129979 0.945675
v -0.048666 0.124270 0.943116
v -0.050938 0.121680 0.940041
v -0.054508 0.121861 0.937471
v -0.057394 0.134291 0.948763
v -0.060979 0.133497 0.947388
v -0.063816 0.131604 0.941860
v -0.059854 0.131325 0.951842
v -0.056091 0.128328 0.954085
v -0.055712 0.114769 0.951440
v -0.052189 0.119135 0.949530
v -0.053248 0.119015 0.952063
v -0.056127 0.115751 0.954530
v -0.058932 0.113398 0.958206
v -0.058818 0.111705 0.955077
v -0.053135 0.123649 0.952653
v -0.057097 0.119789 0.956522
v -0.059527 0.123074 0.957698
v -0.062039 0.119720 0.961303
v -0.059823 0.116705 0.960533
v -0.056435 0.125499 0.955206
v -0.051777 0.125183 0.951447
v -0.061708 0.111156 0.958673
v -0.060594 0.112566 0.960466
v -0.061870 0.115104 0.962215
v -0.064474 0.113455 0.962253
v -0.053185 0.118667 0.943550
v -0.057111 0.113906 0.949372
v -0.061394 0.111878 0.953187
v -0.063997 0.111375 0.956975
v -0.061095 0.114412 0.948342
v -0.063871 0.113111 0.952111
v -0.066363 0.113074 0.955318
v -0.064926 0.116371 0.948335
v -0.066454 0.115029 0.952001
v -0.059699 0.122156 0.939588
v -0.055898 0.120214 0.939686
v -0.067778 0.114226 0.954127
v -0.066428 0.113749 0.961175
v -0.061318 0.126166 0.956679
v -0.064750 0.121261 0.960367
v -0.063391 0.126897 0.955678
v -0.066778 0.122322 0.959625
v -0.065978 0.118030 0.963143
v -0.063455 0.117585 0.962696
v -0.058911 0.124377 0.936594
v -0.062850 0.128540 0.938653
v -0.063558 0.126780 0.941294
v -0.067868 0.120071 0.949405
v -0.064859 0.129615 0.944511
v -0.063267 0.130641 0.950228
v -0.066081 0.126082 0.954621
v -0.068033 0.124279 0.952380
v -0.068306 0.122137 0.957515
v -0.068945 0.120847 0.955367
v -0.068749 0.117732 0.953068
v -0.069123 0.118445 0.959047
v -0.067695 0.118403 0.961692
v -0.068150 0.114834 0.958401
v -0.069488 0.118624 0.957090
v -0.068495 0.115986 0.955983
v -0.070723 0.135339 0.940158
v -0.075256 0.138930 0.942889
v -0.073870 0.141180 0.939076
v -0.070039 0.138036 0.936925
v -0.058077 0.140259 0.944137
v -0.061851 0.136047 0.941283
v -0.060022 0.139336 0.937431
v -0.057000 0.144892 0.940387
v -0.059332 0.146400 0.947620
v -0.059022 0.150876 0.943331
v -0.057162 0.147934 0.935196
v -0.060420 0.142098 0.932461
v -0.067394 0.148962 0.913863
v -0.064523 0.154983 0.915184
v -0.083078 0.151982 0.921700
v -0.082237 0.155231 0.923680
v -0.066721 0.134754 0.940055
v -0.065199 0.137602 0.936500
v -0.077400 0.149881 0.940319
v -0.077668 0.144969 0.937797
v -0.076658 0.144373 0.941594
v -0.075702 0.148906 0.944648
v -0.074905 0.145489 0.914859
v -0.079277 0.148856 0.917912
v -0.071228 0.146083 0.914128
v -0.073213 0.154765 0.942247
v -0.066745 0.157186 0.942100
v -0.072003 0.164223 0.923696
v -0.077364 0.161933 0.925989
v -0.065010 0.139100 0.931911
v -0.074645 0.140705 0.935326
v -0.070553 0.138393 0.932880
v -0.060263 0.154113 0.938134
v -0.065624 0.153684 0.947310
v -0.072520 0.140593 0.960156
v -0.071871 0.148762 0.951477
v -0.075803 0.146106 0.949245
v -0.076971 0.138611 0.959104
v -0.071833 0.152288 0.947122
v -0.065895 0.149283 0.951144
v -0.075106 0.127110 0.951940
v -0.079394 0.130964 0.954562
v -0.070739 0.125853 0.951480
v -0.066599 0.161234 0.918602
v -0.062197 0.131418 0.953543
v -0.066624 0.126970 0.951532
v -0.077498 0.142675 0.945822
v -0.079813 0.135027 0.957433
v -0.068007 0.140390 0.959730
v -0.062418 0.137560 0.956286
v -0.068387 0.135818 0.963371
v -0.063850 0.133068 0.960386
v -0.063420 0.127568 0.957253
v -0.067459 0.124443 0.954799
v -0.071462 0.124118 0.954133
v -0.072462 0.136021 0.964280
v -0.076980 0.134777 0.963495
v -0.079683 0.132571 0.959914
v -0.075512 0.130049 0.968481
v -0.071161 0.128447 0.968956
v -0.071320 0.110521 0.966372
v -0.068914 0.115268 0.963549
v -0.068441 0.116178 0.965973
v -0.070708 0.111941 0.968747
v -0.065676 0.120490 0.962506
v -0.066519 0.120140 0.964810
v -0.067620 0.123985 0.967166
v -0.070521 0.119034 0.969293
v -0.073450 0.122320 0.971306
v -0.075189 0.117849 0.974582
v -0.072093 0.114495 0.972910
v -0.070492 0.125087 0.969489
v -0.072482 0.109851 0.971163
v -0.074305 0.108099 0.970577
v -0.066018 0.126193 0.965989
v -0.067602 0.121476 0.957002
v -0.071021 0.114379 0.961414
v -0.074241 0.109749 0.965002
v -0.077365 0.108084 0.970181
v -0.075159 0.114356 0.960632
v -0.077447 0.110271 0.964733
v -0.079618 0.109387 0.969286
v -0.079649 0.115746 0.961178
v -0.081228 0.111976 0.965572
v -0.076207 0.124297 0.955197
v -0.071891 0.122035 0.954791
v -0.081149 0.110841 0.968076
v -0.075667 0.109864 0.974892
v -0.078884 0.109448 0.973839
v -0.074285 0.111062 0.974509
v -0.075243 0.123437 0.971699
v -0.077471 0.118099 0.974617
v -0.078044 0.124016 0.971499
v -0.079909 0.117789 0.974510
v -0.077999 0.113715 0.976401
v -0.076273 0.113596 0.976159
v -0.075320 0.126238 0.954643
v -0.079045 0.129714 0.957023
v -0.079775 0.127856 0.957712
v -0.082659 0.119079 0.963952
v -0.080464 0.130569 0.961511
v -0.078654 0.130429 0.966381
v -0.080586 0.124113 0.970139
v -0.082862 0.122087 0.967539
v -0.082014 0.118183 0.973917
v -0.083293 0.118186 0.970886
v -0.083473 0.114828 0.967437
v -0.081932 0.113591 0.975153
v -0.079765 0.113443 0.976192
v -0.080588 0.110225 0.972546
v -0.083238 0.114593 0.972591
v -0.082357 0.111849 0.970328
v -0.086150 0.143826 0.944080
v -0.090692 0.146866 0.946010
v -0.090566 0.148785 0.942973
v -0.085975 0.146094 0.941075
v -0.075186 0.149514 0.948107
v -0.077315 0.145381 0.946144
v -0.076652 0.148179 0.942325
v -0.074294 0.153143 0.943251
v -0.076696 0.153201 0.952292
v -0.075740 0.158494 0.946330
v -0.074249 0.156434 0.938630
v -0.076624 0.150714 0.938417
v -0.081489 0.157221 0.925750
v -0.079324 0.163319 0.927229
v -0.081511 0.143790 0.944660
v -0.081223 0.146046 0.941433
v -0.093279 0.156538 0.945700
v -0.093348 0.152233 0.943388
v -0.092619 0.152651 0.946146
v -0.091717 0.156187 0.948557
v -0.091058 0.153233 0.925221
v -0.095632 0.156475 0.927389
v -0.086084 0.153617 0.925537
v -0.089031 0.161528 0.947157
v -0.082412 0.164488 0.945720
v -0.089745 0.169828 0.934453
v -0.095059 0.166700 0.934726
v -0.080940 0.147719 0.938219
v -0.091128 0.148563 0.940133
v -0.086317 0.146430 0.938340
v -0.076837 0.161668 0.941426
v -0.081426 0.161000 0.950133
v -0.087676 0.146767 0.966469
v -0.087126 0.157407 0.954176
v -0.091647 0.154286 0.951688
v -0.091770 0.145547 0.965012
v -0.087696 0.159765 0.950989
v -0.081324 0.157330 0.954372
v -0.089260 0.135139 0.956172
v -0.092947 0.138699 0.958245
v -0.084738 0.135388 0.955473
v -0.082318 0.168950 0.930578
v -0.098383 0.161638 0.932254
v -0.078633 0.138400 0.959050
v -0.081503 0.136120 0.956523
v -0.092534 0.150983 0.948944
v -0.094043 0.142869 0.961985
v -0.082748 0.146713 0.965620
v -0.078355 0.143629 0.962172
v -0.084236 0.142531 0.969209
v -0.079841 0.139484 0.965649
v -0.079728 0.134749 0.961985
v -0.082859 0.133063 0.958907
v -0.086147 0.132727 0.957645
v -0.089377 0.142634 0.969555
v -0.092926 0.141762 0.967787
v -0.094102 0.141155 0.962800
v -0.091565 0.139189 0.971669
v -0.086845 0.136616 0.972922
v -0.089676 0.119763 0.970327
v -0.086869 0.124337 0.967637
v -0.086811 0.124892 0.968742
v -0.089227 0.120371 0.971911
v -0.082784 0.129674 0.966314
v -0.083778 0.129016 0.967915
v -0.084062 0.132013 0.970454
v -0.087384 0.127205 0.973499
v -0.091384 0.131458 0.975203
v -0.093369 0.126809 0.977325
v -0.089745 0.122655 0.976164
v -0.087068 0.134386 0.972929
v -0.090956 0.118513 0.974113
v -0.091061 0.116816 0.973182
v -0.082565 0.133972 0.969684
v -0.084386 0.129130 0.961680
v -0.088210 0.123533 0.965065
v -0.091147 0.118859 0.967621
v -0.093839 0.116987 0.970742
v -0.091566 0.124232 0.963292
v -0.093750 0.120189 0.966346
v -0.096065 0.118502 0.969256
v -0.094602 0.125685 0.963164
v -0.096308 0.122218 0.966198
v -0.090685 0.132768 0.958472
v -0.087371 0.130422 0.959133
v -0.097300 0.120413 0.968652
v -0.093308 0.118553 0.977061
v -0.097074 0.118756 0.975081
v -0.092204 0.119868 0.976720
v -0.092501 0.132955 0.975231
v -0.095607 0.127350 0.977917
v -0.095008 0.133866 0.974167
v -0.097927 0.128226 0.976779
v -0.095671 0.122904 0.978806
v -0.094495 0.123022 0.978448
v -0.089797 0.134357 0.957561
v -0.093082 0.137860 0.959414
v -0.093798 0.136210 0.960121
v -0.098037 0.128491 0.965101
v -0.095084 0.139259 0.963571
v -0.094766 0.138456 0.969635
v -0.097289 0.133247 0.971786
v -0.098864 0.131304 0.968781
v -0.099471 0.128221 0.974404
v -0.099679 0.127960 0.971529
v -0.099305 0.124711 0.967797
v -0.099414 0.123994 0.974885
v -0.098082 0.123420 0.977548
v -0.098679 0.120056 0.972598
v -0.100014 0.124530 0.972453
v -0.099315 0.121637 0.970651
v -0.098231 0.159011 0.929937
v -0.103878 0.149390 0.946233
v -0.107174 0.151321 0.948165
v -0.107041 0.152377 0.947417
v -0.104283 0.150545 0.944467
v -0.094221 0.155779 0.946728
v -0.096444 0.151662 0.945662
v -0.096094 0.154081 0.942313
v -0.094114 0.158073 0.943423
v -0.095380 0.160103 0.949407
v -0.095888 0.162020 0.946732
v -0.095892 0.160423 0.940436
v -0.097786 0.156332 0.938863
v -0.104657 0.166692 0.927079
v -0.104591 0.172251 0.927728
v -0.123001 0.169893 0.933318
v -0.123396 0.165206 0.930694
v -0.118959 0.162818 0.938004
v -0.118850 0.167354 0.939524
v -0.100037 0.149728 0.945495
v -0.100234 0.151186 0.942327
v -0.109462 0.160894 0.951218
v -0.110132 0.156593 0.948899
v -0.109172 0.155090 0.949783
v -0.109255 0.158804 0.952604
v -0.119500 0.162042 0.929411
v -0.114587 0.161654 0.928674
v -0.113474 0.159688 0.931861
v -0.116141 0.159695 0.935826
v -0.108441 0.161120 0.930188
v -0.106476 0.164230 0.951212
v -0.101379 0.166299 0.948746
v -0.113867 0.175993 0.936978
v -0.117305 0.172543 0.938555
v -0.100693 0.152963 0.940423
v -0.108387 0.153681 0.945533
v -0.105198 0.151909 0.943535
v -0.097052 0.164573 0.944162
v -0.100647 0.163739 0.950937
v -0.104982 0.155876 0.960800
v -0.106048 0.161102 0.954822
v -0.109557 0.157757 0.953618
v -0.107693 0.154250 0.959845
v -0.105901 0.161889 0.953258
v -0.100388 0.161834 0.953673
v -0.104420 0.145398 0.951520
v -0.107966 0.148508 0.954280
v -0.101027 0.145188 0.950800
v -0.108034 0.176123 0.931213
v -0.095056 0.149429 0.953116
v -0.097706 0.146059 0.951606
v -0.109172 0.153972 0.950867
v -0.109079 0.151622 0.957394
v -0.100218 0.156204 0.960018
v -0.095470 0.154362 0.956158
v -0.100271 0.152123 0.962778
v -0.095662 0.150545 0.958515
v -0.096021 0.146007 0.954588
v -0.098953 0.144428 0.952374
v -0.102118 0.143997 0.951614
v -0.105076 0.152177 0.963376
v -0.107665 0.151293 0.962070
v -0.109049 0.149857 0.958794
v -0.105298 0.148450 0.965390
v -0.100941 0.146316 0.965124
v -0.102254 0.133604 0.960645
v -0.100829 0.137012 0.958460
v -0.100360 0.137412 0.959564
v -0.101384 0.133670 0.961374
v -0.098089 0.141687 0.957205
v -0.098380 0.141137 0.958869
v -0.098132 0.143994 0.961118
v -0.099729 0.139262 0.963457
v -0.102920 0.141362 0.967289
v -0.103734 0.137316 0.968741
v -0.100546 0.135844 0.965435
v -0.100258 0.144462 0.964912
v -0.101637 0.131747 0.963526
v -0.102423 0.130576 0.963310
v -0.097097 0.145677 0.960485
v -0.100467 0.141513 0.953762
v -0.102673 0.135897 0.957004
v -0.103963 0.131905 0.960138
v -0.104745 0.130076 0.963544
v -0.104953 0.136728 0.955966
v -0.106277 0.132048 0.959555
v -0.107031 0.130498 0.962936
v -0.108056 0.138136 0.956280
v -0.108450 0.133565 0.959856
v -0.106902 0.143736 0.953291
v -0.103701 0.142033 0.952740
v -0.108179 0.131848 0.962550
v -0.102784 0.131425 0.967201
v -0.105757 0.130905 0.966666
v -0.101664 0.132663 0.967195
v -0.104104 0.142104 0.967803
v -0.105275 0.137249 0.969534
v -0.106541 0.142845 0.967777
v -0.107470 0.137165 0.969124
v -0.104760 0.133619 0.969438
v -0.103136 0.134507 0.968773
v -0.105933 0.144714 0.952718
v -0.108176 0.147174 0.955194
v -0.109203 0.146070 0.956353
v -0.110449 0.140348 0.958950
v -0.109628 0.148272 0.960250
v -0.107932 0.148901 0.963691
v -0.108889 0.142804 0.966241
v -0.110678 0.141999 0.963344
v -0.109216 0.136725 0.967769
v -0.110672 0.136564 0.965020
v -0.110554 0.135317 0.961868
v -0.108266 0.132973 0.967227
v -0.106901 0.132889 0.968607
v -0.107621 0.131348 0.965679
v -0.109422 0.133384 0.965636
v -0.109068 0.132594 0.964199
v -0.120387 0.172959 0.934302
v -0.082874 0.087555 0.865193
v -0.082350 0.089833 0.870366
v -0.094414 0.082565 0.878794
v -0.088474 0.086360 0.879221
v -0.097956 0.078482 0.874641
v -0.096602 0.077156 0.863777
v -0.098986 0.077577 0.868901
v -0.084115 0.089016 0.876010
v -0.085906 0.084342 0.860801
v -0.091758 0.080020 0.859620
v -0.080258 0.078426 0.862993
v -0.086616 0.073774 0.861900
v -0.091779 0.070517 0.865388
v -0.095457 0.072174 0.871305
v -0.095859 0.073970 0.876074
v -0.079046 0.083133 0.868413
v -0.079435 0.085370 0.873470
v -0.083141 0.085286 0.878906
v -0.074810 0.078564 0.873927
v -0.072998 0.068619 0.875288
v -0.080377 0.052853 0.884080
v -0.084110 0.057466 0.880619
v -0.081426 0.057465 0.879467
v -0.078355 0.052903 0.882279
v -0.084588 0.060813 0.876083
v -0.082213 0.060631 0.876631
v -0.078289 0.063791 0.874863
v -0.075583 0.059661 0.877758
v -0.073932 0.066192 0.876425
v -0.071580 0.064222 0.879330
v -0.072711 0.055687 0.880535
v -0.074948 0.050826 0.883037
v -0.070477 0.052395 0.883207
v -0.075919 0.050494 0.886140
v -0.077999 0.063582 0.872163
v -0.090736 0.064501 0.876097
v -0.087031 0.059243 0.882286
v -0.082243 0.054668 0.886898
v -0.076734 0.052153 0.888901
v -0.088086 0.062343 0.885483
v -0.082733 0.058532 0.889191
v -0.077328 0.056836 0.890874
v -0.086475 0.066346 0.888028
v -0.081228 0.062129 0.890404
v -0.092177 0.075639 0.881602
v -0.093872 0.069776 0.878906
v -0.077627 0.059745 0.890938
v -0.069716 0.051714 0.885992
v -0.070622 0.053736 0.889039
v -0.070235 0.067381 0.880067
v -0.068490 0.060374 0.881594
v -0.067761 0.062732 0.883547
v -0.070657 0.071179 0.881627
v -0.068020 0.064780 0.885663
v -0.066827 0.057289 0.885395
v -0.067987 0.056394 0.882842
v -0.093712 0.078519 0.879890
v -0.088820 0.083039 0.880586
v -0.087346 0.080413 0.882138
v -0.082006 0.071473 0.888470
v -0.081433 0.082344 0.881438
v -0.076602 0.081283 0.877747
v -0.072365 0.073326 0.884339
v -0.076480 0.073877 0.886951
v -0.070425 0.066287 0.888068
v -0.073261 0.066661 0.889323
v -0.077670 0.064854 0.890785
v -0.070205 0.061198 0.889702
v -0.067574 0.059336 0.887911
v -0.072694 0.057685 0.890816
v -0.072495 0.062855 0.890091
v -0.074749 0.060836 0.890931
v -0.126943 0.165098 0.926232
v -0.122168 0.160735 0.924444
v -0.127216 0.159790 0.920909
v -0.133966 0.156577 0.915277
v -0.143294 0.159101 0.910987
v -0.128807 0.153400 0.911581
v -0.122093 0.156633 0.917734
v -0.114712 0.158197 0.922618
v -0.129386 0.149362 0.902061
f 780 781 779
f 779 781 782
f 783 784 786
f 786 784 785
f 787 782 788
f 788 782 781
f 790 791 789
f 789 791 787
f 792 790 794
f 794 790 793
f 796 797 795
f 795 797 798
f 800 801 799
f 799 801 802
f 804 805 803
f 803 805 806
f 808 809 807
f 807 809 810
f 811 812 814
f 814 812 813
f 815 816 818
f 818 816 817
f 819 820 784
f 784 820 821
f 784 821 785
f 785 821 822
f 823 812 824
f 824 812 811
f 826 827 825
f 825 827 828
f 830 831 829
f 829 831 832
f 834 830 833
f 833 830 829
f 836 837 835
f 835 837 838
f 839 840 782
f 782 840 779
f 842 843 841
f 841 843 844
f 846 847 845
f 845 847 848
f 850 851 849
f 849 851 852
f 854 855 853
f 853 855 856
f 831 857 832
f 832 857 858
f 860 861 859
f 859 861 862
f 863 864 830
f 830 864 831
f 835 838 865
f 865 838 866
f 867 868 821
f 821 868 822
f 821 820 867
f 867 820 869
f 818 817 870
f 870 817 871
f 872 848 842
f 842 848 847
f 791 839 787
f 787 839 782
f 803 806 847
f 847 806 873
f 874 803 846
f 846 803 847
f 876 877 875
f 875 877 878
f 879 880 882
f 882 880 881
f 884 808 883
f 883 808 807
f 829 832 885
f 885 832 886
f 832 858 886
f 886 858 887
f 889 890 888
f 888 890 891
f 893 783 892
f 892 783 894
f 893 819 783
f 783 819 784
f 814 813 889
f 889 813 895
f 813 896 895
f 895 896 897
f 812 898 813
f 813 898 896
f 812 823 898
f 898 823 899
f 903 904 902
f 902 904 905
f 906 907 792
f 792 907 908
f 811 909 824
f 824 909 910
f 911 872 841
f 841 872 842
f 912 913 915
f 915 913 914
f 917 918 916
f 916 918 919
f 855 920 856
f 856 920 921
f 922 923 798
f 798 923 924
f 926 927 925
f 925 927 850
f 929 930 928
f 928 930 931
f 860 879 861
f 861 879 882
f 879 860 933
f 933 860 932
f 934 935 836
f 836 935 837
f 936 846 925
f 925 846 845
f 937 924 793
f 793 924 794
f 846 936 874
f 874 936 938
f 907 844 908
f 908 844 843
f 940 941 939
f 939 941 942
f 944 945 943
f 943 945 946
f 948 949 947
f 947 949 950
f 952 949 951
f 951 949 948
f 954 955 953
f 953 955 956
f 958 959 957
f 957 959 802
f 960 961 799
f 799 961 962
f 859 963 860
f 860 963 932
f 964 965 966
f 966 965 922
f 936 849 938
f 938 849 967
f 968 913 935
f 935 913 837
f 947 950 917
f 917 950 918
f 925 850 936
f 936 850 849
f 970 971 969
f 969 971 972
f 945 944 827
f 827 944 973
f 974 968 828
f 828 968 935
f 975 976 978
f 978 976 977
f 799 802 960
f 960 802 959
f 924 937 798
f 798 937 795
f 960 959 859
f 859 959 963
f 979 963 958
f 958 963 959
f 980 981 861
f 861 981 862
f 983 984 982
f 982 984 863
f 985 800 962
f 962 800 799
f 957 802 986
f 986 802 801
f 986 987 957
f 957 987 983
f 987 988 983
f 983 988 984
f 990 984 989
f 989 984 988
f 957 983 958
f 958 983 982
f 991 954 866
f 866 954 992
f 864 863 990
f 990 863 984
f 971 995 996
f 995 997 996
f 996 997 998
f 997 796 998
f 998 796 795
f 797 999 798
f 798 999 922
f 1000 1001 1003
f 1003 1001 1002
f 953 1004 954
f 954 1004 992
f 1005 865 992
f 992 865 866
f 998 795 1006
f 1006 795 937
f 912 991 838
f 838 991 866
f 916 1007 929
f 929 1007 930
f 971 970 988
f 988 970 989
f 1008 972 996
f 996 972 971
f 1009 1010 1006
f 1006 1010 1008
f 1011 1012 869
f 869 1012 867
f 1013 1014 871
f 871 1014 870
f 1008 1010 1012
f 1012 1010 1015
f 825 1016 826
f 826 1016 1017
f 1018 969 1013
f 1013 969 1014
f 783 786 894
f 894 786 1019
f 1020 1021 967
f 967 1021 938
f 1022 1023 876
f 876 1023 877
f 934 1024 825
f 825 1024 1016
f 854 1025 855
f 855 1025 1026
f 1028 903 1027
f 1027 903 902
f 1030 1031 1029
f 1029 1031 1032
f 889 888 814
f 814 888 1033
f 1034 811 1033
f 1033 811 814
f 1035 1036 932
f 932 1036 933
f 841 947 911
f 911 947 917
f 844 948 841
f 841 948 947
f 951 948 907
f 907 948 844
f 907 906 951
f 951 906 1037
f 906 1038 1037
f 1037 1038 1039
f 991 912 1040
f 1040 912 915
f 1041 1042 964
f 964 1042 965
f 890 1043 891
f 891 1043 1044
f 789 1045 1046
f 1012 1011 1008
f 1008 1011 972
f 931 1047 848
f 848 1047 845
f 953 956 943
f 943 956 919
f 928 931 872
f 872 931 848
f 1049 999 1048
f 1048 999 985
f 1047 931 1050
f 1050 931 930
f 899 823 887
f 887 823 886
f 825 828 934
f 934 828 935
f 835 1051 836
f 836 1051 1052
f 923 1053 1038
f 1038 1053 1039
f 1054 927 921
f 921 927 856
f 926 1047 853
f 853 1047 1050
f 985 1055 1048
f 1048 1055 1056
f 973 974 827
f 827 974 828
f 837 913 838
f 838 913 912
f 861 882 980
f 980 882 1057
f 927 926 856
f 856 926 853
f 1025 1056 1026
f 1026 1056 1055
f 961 960 862
f 862 960 859
f 826 1017 1059
f 1059 1017 1060
f 1005 1001 1061
f 1061 1001 1000
f 1001 1004 1002
f 1002 1004 946
f 1059 1060 1002
f 1002 1060 1003
f 943 946 953
f 953 946 1004
f 1042 1041 916
f 916 1041 1007
f 792 794 906
f 906 794 1038
f 998 1006 996
f 996 1006 1008
f 865 1005 1062
f 1062 1005 1061
f 1038 794 923
f 923 794 924
f 1022 876 1036
f 1036 876 933
f 836 1052 934
f 934 1052 1024
f 885 1063 829
f 829 1063 833
f 1021 1064 938
f 938 1064 874
f 1012 1015 867
f 867 1015 868
f 824 910 885
f 885 910 1063
f 1031 1030 1027
f 1027 1030 1028
f 1064 804 874
f 874 804 803
f 884 883 1065
f 1065 883 1066
f 1050 930 1067
f 1067 930 1007
f 916 929 917
f 917 929 911
f 961 1068 939
f 939 1068 940
f 1069 1070 1055
f 1055 1070 1071
f 929 928 911
f 911 928 872
f 1040 1053 955
f 955 1053 965
f 922 965 923
f 923 965 1053
f 1051 835 1062
f 1062 835 865
f 952 914 968
f 968 914 913
f 889 895 890
f 890 895 816
f 895 897 816
f 816 897 901
f 890 816 1043
f 1043 816 815
f 1065 1066 1032
f 1032 1066 1029
f 1006 937 1009
f 1009 937 793
f 1001 1005 1004
f 1004 1005 992
f 925 845 926
f 926 845 1047
f 1002 946 1059
f 1059 946 945
f 977 941 978
f 978 941 940
f 823 824 886
f 886 824 885
f 1059 945 826
f 826 945 827
f 939 942 1069
f 1069 942 1070
f 816 901 817
f 1071 1072 1055
f 1055 1072 1026
f 1062 1061 1074
f 1074 1061 1073
f 1062 1074 1051
f 1051 1074 1075
f 1052 1051 1076
f 1076 1051 1075
f 1024 1052 1077
f 1077 1052 1076
f 1061 1000 1073
f 1073 1000 1078
f 1000 1003 1078
f 1078 1003 1079
f 1079 1003 1080
f 1080 1003 1060
f 1081 1082 1078
f 1078 1082 1073
f 1084 1085 1083
f 1083 1085 1086
f 1087 1088 1086
f 1086 1088 1083
f 1086 1085 1090
f 1090 1085 1089
f 1091 1092 1090
f 1090 1092 1093
f 1089 1094 1090
f 1090 1094 1091
f 1095 1082 1089
f 1089 1082 1094
f 1093 1087 1090
f 1090 1087 1086
f 1096 1097 1099
f 1099 1097 1098
f 1097 1096 1087
f 1087 1096 1088
f 1089 1085 1095
f 1095 1085 1084
f 1084 1075 1095
f 1095 1075 1074
f 1084 1100 1075
f 1075 1100 1076
f 1083 1101 1084
f 1084 1101 1100
f 1101 1083 1102
f 1102 1083 1088
f 1082 1095 1073
f 1073 1095 1074
f 1096 1103 1088
f 1088 1103 1102
f 1101 1102 1104
f 1104 1102 1105
f 1102 1103 1105
f 1105 1103 1106
f 1104 1105 1107
f 1107 1105 1108
f 1107 1109 1104
f 1104 1109 1110
f 1111 1108 1106
f 1106 1108 1105
f 1101 1104 1100
f 1100 1104 1110
f 1100 1110 1076
f 1076 1110 1077
f 1103 1096 1112
f 1112 1096 1099
f 1091 1094 1113
f 1113 1094 1082
f 1113 1114 1091
f 1091 1114 1092
f 1082 1081 1113
f 1113 1081 1115
f 1114 1113 1116
f 1116 1113 1115
f 1114 1117 1092
f 1092 1117 1118
f 1024 1077 1016
f 1016 1077 1119
f 1017 1120 1060
f 1060 1120 1080
f 1120 1017 1119
f 1119 1017 1016
f 1119 1109 1120
f 1120 1109 1121
f 1109 1107 1121
f 1121 1107 1122
f 1120 1121 1080
f 1080 1121 1123
f 1119 1077 1109
f 1109 1077 1110
f 1124 1079 1123
f 1123 1079 1080
f 1124 1081 1079
f 1079 1081 1078
f 1125 1115 1124
f 1124 1115 1081
f 1125 1124 1126
f 1126 1124 1123
f 1127 1125 1128
f 1128 1125 1126
f 1121 1122 1123
f 1123 1122 1126
f 1122 1129 1126
f 1126 1129 1128
f 1115 1125 1116
f 1116 1125 1127
f 1131 1116 1130
f 1130 1116 1127
f 1130 1133 1132
f 1132 1133 1134
f 1130 1127 1133
f 1133 1127 1128
f 1130 1132 1131
f 1131 1132 1112
f 1131 1112 1117
f 1117 1112 1099
f 1117 1114 1131
f 1131 1114 1116
f 1107 1108 1122
f 1122 1108 1129
f 1134 1129 1111
f 1111 1129 1108
f 1134 1133 1129
f 1129 1133 1128
f 1132 1134 1106
f 1106 1134 1111
f 1106 1103 1132
f 1132 1103 1112
f 1087 1093 1097
f 1097 1093 1098
f 1098 1118 1099
f 1099 1118 1117
f 1098 1093 1118
f 1118 1093 1092
f 915 914 1039
f 1039 914 1037
f 918 944 919
f 919 944 943
f 950 949 973
f 973 949 974
f 949 952 974
f 974 952 968
f 956 955 1042
f 1042 955 965
f 950 973 918
f 918 973 944
f 915 1039 1040
f 1040 1039 1053
f 956 1042 919
f 919 1042 916
f 1040 955 991
f 991 955 954
f 914 952 1037
f 1037 952 951
f 1136 1137 1135
f 1135 1137 1138
f 1140 1141 1139
f 1139 1141 1142
f 1139 1142 1143
f 1143 1142 1144
f 1145 1146 1148
f 1148 1146 1147
f 854 1149 1025
f 1025 1149 1150
f 1151 1152 1140
f 1140 1152 1141
f 1154 1155 1153
f 1153 1155 1156
f 1067 1007 1158
f 1158 1007 1157
f 1159 1157 1041
f 1041 1157 1007
f 1161 1162 1160
f 1160 1162 1163
f 1164 1146 1152
f 1152 1146 1141
f 854 1067 1149
f 1149 1067 1158
f 1155 1154 1137
f 1137 1154 1165
f 1166 1164 1138
f 1138 1164 1152
f 1167 1161 1144
f 1144 1161 1168
f 1170 1171 1169
f 1169 1171 1172
f 1161 1160 1168
f 1168 1160 1173
f 1174 1143 1168
f 1168 1143 1144
f 1167 1144 1145
f 1145 1144 1142
f 1135 1175 1136
f 1136 1175 1176
f 1151 1177 1135
f 1135 1177 1175
f 1167 1145 1178
f 1178 1145 1148
f 1160 1163 1153
f 1153 1163 1150
f 1135 1138 1151
f 1151 1138 1152
f 1139 1179 1140
f 1140 1179 1180
f 1165 1166 1137
f 1137 1166 1138
f 1141 1146 1142
f 1142 1146 1145
f 1136 1176 1181
f 1181 1176 1182
f 1174 1170 1183
f 1183 1170 1169
f 1170 1173 1171
f 1171 1173 1156
f 1171 1181 1172
f 1172 1181 1182
f 1153 1156 1160
f 1160 1156 1173
f 1143 1174 1184
f 1184 1174 1183
f 1140 1180 1151
f 1151 1180 1177
f 1049 1048 1178
f 1178 1048 1162
f 1179 1139 1184
f 1184 1139 1143
f 1159 1147 1164
f 1164 1147 1146
f 1170 1174 1173
f 1173 1174 1168
f 1171 1156 1181
f 1181 1156 1155
f 1181 1155 1136
f 1136 1155 1137
f 1184 1183 1186
f 1186 1183 1185
f 1184 1186 1179
f 1179 1186 1187
f 1179 1187 1180
f 1180 1187 1188
f 1180 1188 1177
f 1177 1188 1189
f 1183 1169 1185
f 1185 1169 1190
f 1169 1172 1190
f 1190 1172 1191
f 1172 1182 1191
f 1191 1182 1192
f 1193 1194 1190
f 1190 1194 1185
f 1196 1197 1195
f 1195 1197 1198
f 1199 1200 1196
f 1196 1200 1197
f 1197 1200 1202
f 1202 1200 1201
f 1203 1204 1202
f 1202 1204 1205
f 1201 1206 1202
f 1202 1206 1203
f 1205 1198 1202
f 1202 1198 1197
f 1198 1207 1195
f 1195 1207 1208
f 1201 1200 1209
f 1209 1200 1199
f 1199 1187 1209
f 1209 1187 1186
f 1199 1210 1187
f 1187 1210 1188
f 1196 1211 1199
f 1199 1211 1210
f 1212 1211 1195
f 1195 1211 1196
f 1209 1194 1201
f 1201 1194 1206
f 1194 1209 1185
f 1185 1209 1186
f 1213 1212 1208
f 1208 1212 1195
f 1211 1212 1214
f 1214 1212 1215
f 1212 1213 1215
f 1215 1213 1216
f 1214 1215 1217
f 1217 1215 1218
f 1217 1219 1214
f 1214 1219 1220
f 1216 1221 1215
f 1215 1221 1218
f 1214 1220 1211
f 1211 1220 1210
f 1210 1220 1188
f 1188 1220 1189
f 1213 1208 1223
f 1223 1208 1222
f 1208 1207 1222
f 1222 1207 1224
f 1203 1206 1225
f 1225 1206 1194
f 1204 1203 1226
f 1226 1203 1225
f 1194 1193 1225
f 1225 1193 1227
f 1225 1227 1226
f 1226 1227 1228
f 1229 1230 1226
f 1226 1230 1204
f 1224 1230 1222
f 1222 1230 1229
f 1177 1189 1175
f 1175 1189 1231
f 1176 1232 1182
f 1182 1232 1192
f 1232 1176 1231
f 1231 1176 1175
f 1231 1219 1232
f 1232 1219 1233
f 1219 1217 1233
f 1233 1217 1234
f 1232 1233 1192
f 1192 1233 1235
f 1219 1231 1220
f 1220 1231 1189
f 1236 1191 1235
f 1235 1191 1192
f 1236 1193 1191
f 1191 1193 1190
f 1236 1237 1193
f 1193 1237 1227
f 1237 1236 1238
f 1238 1236 1235
f 1239 1237 1240
f 1240 1237 1238
f 1233 1234 1235
f 1235 1234 1238
f 1234 1241 1238
f 1238 1241 1240
f 1237 1239 1227
f 1227 1239 1228
f 1243 1228 1242
f 1242 1228 1239
f 1242 1245 1244
f 1244 1245 1246
f 1242 1239 1245
f 1245 1239 1240
f 1242 1244 1243
f 1243 1244 1223
f 1243 1223 1229
f 1229 1223 1222
f 1229 1226 1243
f 1243 1226 1228
f 1217 1218 1234
f 1234 1218 1241
f 1246 1241 1221
f 1221 1241 1218
f 1246 1245 1241
f 1241 1245 1240
f 1244 1246 1216
f 1216 1246 1221
f 1216 1213 1244
f 1244 1213 1223
f 1198 1205 1207
f 1207 1205 1224
f 1224 1205 1230
f 1230 1205 1204
f 1148 1147 966
f 966 1147 964
f 1149 1154 1150
f 1150 1154 1153
f 1158 1157 1165
f 1165 1157 1166
f 1157 1159 1166
f 1166 1159 1164
f 1163 1162 1056
f 1056 1162 1048
f 1158 1165 1149
f 1149 1165 1154
f 1178 1148 1049
f 1049 1148 966
f 1163 1056 1150
f 1150 1056 1025
f 1178 1162 1167
f 1167 1162 1161
f 1147 1159 964
f 964 1159 1041
f 999 1049 922
f 922 1049 966
f 999 797 985
f 985 797 800
f 797 796 800
f 800 796 801
f 796 997 801
f 801 997 986
f 1247 1248 1250
f 1250 1248 1249
f 1252 1253 1251
f 1251 1253 1254
f 1251 1254 1255
f 1255 1254 1256
f 1258 1259 1257
f 1257 1259 1260
f 1261 1262 1252
f 1252 1262 1253
f 1264 1265 1263
f 1263 1265 1266
f 1267 1268 855
f 855 1268 920
f 1269 1267 1026
f 1026 1267 855
f 1271 1272 1270
f 1270 1272 1273
f 1274 1258 1262
f 1262 1258 1253
f 1264 1275 1265
f 1265 1275 1249
f 1276 1274 1250
f 1250 1274 1262
f 1277 1271 1256
f 1256 1271 1278
f 1279 1280 1282
f 1282 1280 1281
f 1271 1270 1278
f 1278 1270 1283
f 1284 1255 1278
f 1278 1255 1256
f 1277 1256 1257
f 1257 1256 1254
f 1247 1285 1248
f 1248 1285 1286
f 1261 1287 1247
f 1247 1287 1285
f 1257 1260 1277
f 1277 1260 1288
f 1270 1273 1263
f 1263 1273 1289
f 1261 1247 1262
f 1262 1247 1250
f 1251 1290 1252
f 1252 1290 1291
f 1275 1276 1249
f 1249 1276 1250
f 1253 1258 1254
f 1254 1258 1257
f 1248 1286 1292
f 1292 1286 1293
f 1284 1280 1294
f 1294 1280 1279
f 1281 1280 1266
f 1266 1280 1283
f 1292 1293 1281
f 1281 1293 1282
f 1263 1266 1270
f 1270 1266 1283
f 1255 1284 1295
f 1295 1284 1294
f 1252 1291 1261
f 1261 1291 1287
f 1288 1070 1272
f 1272 1070 942
f 1290 1251 1295
f 1295 1251 1255
f 1269 1259 1274
f 1274 1259 1258
f 1280 1284 1283
f 1283 1284 1278
f 1281 1266 1292
f 1292 1266 1265
f 1292 1265 1248
f 1248 1265 1249
f 1295 1294 1297
f 1297 1294 1296
f 1295 1297 1290
f 1290 1297 1298
f 1290 1298 1291
f 1291 1298 1299
f 1291 1299 1287
f 1287 1299 1300
f 1294 1279 1296
f 1296 1279 1301
f 1279 1282 1301
f 1301 1282 1302
f 1302 1282 1303
f 1303 1282 1293
f 1304 1305 1301
f 1301 1305 1296
f 1307 1308 1306
f 1306 1308 1309
f 1310 1311 1307
f 1307 1311 1308
f 1308 1311 1313
f 1313 1311 1312
f 1314 1315 1313
f 1313 1315 1316
f 1312 1317 1313
f 1313 1317 1314
f 1316 1309 1313
f 1313 1309 1308
f 1318 1319 1309
f 1309 1319 1306
f 1311 1310 1312
f 1312 1310 1320
f 1310 1298 1320
f 1320 1298 1297
f 1310 1321 1298
f 1298 1321 1299
f 1307 1322 1310
f 1310 1322 1321
f 1322 1307 1323
f 1323 1307 1306
f 1312 1320 1317
f 1317 1320 1305
f 1305 1320 1296
f 1296 1320 1297
f 1319 1324 1306
f 1306 1324 1323
f 1325 1322 1326
f 1326 1322 1323
f 1324 1327 1323
f 1323 1327 1326
f 1328 1325 1329
f 1329 1325 1326
f 1325 1328 1331
f 1331 1328 1330
f 1327 1332 1326
f 1326 1332 1329
f 1322 1325 1321
f 1321 1325 1331
f 1321 1331 1299
f 1299 1331 1300
f 1324 1319 1334
f 1334 1319 1333
f 1319 1318 1333
f 1333 1318 1335
f 1314 1317 1336
f 1336 1317 1305
f 1315 1314 1337
f 1337 1314 1336
f 1305 1304 1336
f 1336 1304 1338
f 1337 1336 1339
f 1339 1336 1338
f 1337 1340 1315
f 1315 1340 1341
f 1335 1341 1333
f 1333 1341 1340
f 1287 1300 1285
f 1285 1300 1342
f 1286 1343 1293
f 1293 1343 1303
f 1343 1286 1342
f 1342 1286 1285
f 1342 1330 1343
f 1343 1330 1344
f 1330 1328 1344
f 1344 1328 1345
f 1343 1344 1303
f 1303 1344 1346
f 1342 1300 1330
f 1330 1300 1331
f 1347 1302 1346
f 1346 1302 1303
f 1347 1304 1302
f 1302 1304 1301
f 1348 1338 1347
f 1347 1338 1304
f 1348 1347 1349
f 1349 1347 1346
f 1350 1348 1351
f 1351 1348 1349
f 1344 1345 1346
f 1346 1345 1349
f 1345 1352 1349
f 1349 1352 1351
f 1348 1350 1338
f 1338 1350 1339
f 1354 1339 1353
f 1353 1339 1350
f 1353 1356 1355
f 1355 1356 1357
f 1353 1350 1356
f 1356 1350 1351
f 1353 1355 1354
f 1354 1355 1334
f 1354 1334 1340
f 1340 1334 1333
f 1340 1337 1354
f 1354 1337 1339
f 1328 1329 1345
f 1345 1329 1352
f 1357 1352 1332
f 1332 1352 1329
f 1357 1356 1352
f 1352 1356 1351
f 1357 1332 1355
f 1355 1332 1327
f 1327 1324 1355
f 1355 1324 1334
f 1309 1316 1318
f 1318 1316 1335
f 1335 1316 1341
f 1341 1316 1315
f 1259 1072 1260
f 1260 1072 1071
f 1358 1264 1289
f 1289 1264 1263
f 1268 1267 1275
f 1275 1267 1276
f 1267 1269 1276
f 1276 1269 1274
f 941 1273 942
f 942 1273 1272
f 1358 1268 1264
f 1264 1268 1275
f 1260 1071 1288
f 1288 1071 1070
f 1273 941 1289
f 1289 941 977
f 1272 1271 1288
f 1288 1271 1277
f 1259 1269 1072
f 1072 1269 1026
f 1360 1361 1359
f 1359 1361 1362
f 1364 1365 1363
f 1363 1365 1366
f 1363 1366 1367
f 1367 1366 1368
f 1370 1371 1369
f 1369 1371 1372
f 1373 1374 1376
f 1376 1374 1375
f 1377 1378 1364
f 1364 1378 1365
f 1379 1380 1382
f 1382 1380 1381
f 1383 1384 1386
f 1386 1384 1385
f 1387 1385 978
f 978 1385 1384
f 1388 1389 1391
f 1391 1389 1390
f 1378 1392 1365
f 1365 1392 1370
f 1374 1383 1375
f 1375 1383 1386
f 1380 1393 1381
f 1381 1393 1361
f 1394 1392 1362
f 1362 1392 1378
f 1389 1396 1395
f 1395 1396 1368
f 1398 1399 1397
f 1397 1399 1400
f 1388 1401 1389
f 1389 1401 1396
f 1402 1367 1396
f 1396 1367 1368
f 1395 1368 1369
f 1369 1368 1366
f 1359 1403 1360
f 1360 1403 1404
f 1377 1405 1359
f 1359 1405 1403
f 1369 1372 1395
f 1395 1372 1406
f 1379 1388 1376
f 1376 1388 1391
f 1359 1362 1377
f 1377 1362 1378
f 1363 1407 1364
f 1364 1407 1408
f 1393 1394 1361
f 1361 1394 1362
f 1365 1370 1366
f 1366 1370 1369
f 1360 1404 1409
f 1409 1404 1410
f 1402 1398 1411
f 1411 1398 1397
f 1399 1398 1382
f 1382 1398 1401
f 1409 1410 1399
f 1399 1410 1400
f 1388 1379 1401
f 1401 1379 1382
f 1367 1402 1412
f 1412 1402 1411
f 1364 1408 1377
f 1377 1408 1405
f 981 980 1406
f 1406 980 1390
f 1407 1363 1412
f 1412 1363 1367
f 1387 1371 1392
f 1392 1371 1370
f 1398 1402 1401
f 1401 1402 1396
f 1409 1399 1381
f 1381 1399 1382
f 1360 1409 1361
f 1361 1409 1381
f 1412 1411 1414
f 1414 1411 1413
f 1412 1414 1407
f 1407 1414 1415
f 1407 1415 1408
f 1408 1415 1416
f 1408 1416 1405
f 1405 1416 1417
f 1411 1397 1413
f 1413 1397 1418
f 1397 1400 1418
f 1418 1400 1419
f 1419 1400 1420
f 1420 1400 1410
f 1422 1413 1421
f 1421 1413 1418
f 1423 1424 1426
f 1426 1424 1425
f 1427 1428 1424
f 1424 1428 1425
f 1425 1428 1430
f 1430 1428 1429
f 1430 1431 1433
f 1433 1431 1432
f 1429 1434 1430
f 1430 1434 1431
f 1433 1426 1430
f 1430 1426 1425
f 1426 1435 1423
f 1423 1435 1436
f 1428 1427 1429
f 1429 1427 1437
f 1427 1415 1437
f 1437 1415 1414
f 1427 1438 1415
f 1415 1438 1416
f 1439 1438 1424
f 1424 1438 1427
f 1440 1439 1423
f 1423 1439 1424
f 1429 1437 1434
f 1434 1437 1422
f 1422 1437 1413
f 1413 1437 1414
f 1441 1440 1436
f 1436 1440 1423
f 1442 1439 1443
f 1443 1439 1440
f 1441 1444 1440
f 1440 1444 1443
f 1445 1442 1446
f 1446 1442 1443
f 1442 1445 1448
f 1448 1445 1447
f 1444 1449 1443
f 1443 1449 1446
f 1439 1442 1438
f 1438 1442 1448
f 1438 1448 1416
f 1416 1448 1417
f 1436 1450 1441
f 1441 1450 1451
f 1436 1435 1450
f 1450 1435 1452
f 1431 1434 1453
f 1453 1434 1422
f 1431 1453 1432
f 1432 1453 1454
f 1453 1422 1455
f 1455 1422 1421
f 1454 1453 1456
f 1456 1453 1455
f 1457 1458 1454
f 1454 1458 1432
f 1452 1458 1450
f 1450 1458 1457
f 1405 1417 1403
f 1403 1417 1459
f 1404 1460 1410
f 1410 1460 1420
f 1459 1460 1403
f 1403 1460 1404
f 1447 1461 1459
f 1459 1461 1460
f 1445 1462 1447
f 1447 1462 1461
f 1460 1461 1420
f 1420 1461 1463
f 1459 1417 1447
f 1447 1417 1448
f 1464 1419 1463
f 1463 1419 1420
f 1419 1464 1418
f 1418 1464 1421
f 1464 1465 1421
f 1421 1465 1455
f 1465 1464 1466
f 1466 1464 1463
f 1467 1465 1468
f 1468 1465 1466
f 1461 1462 1463
f 1463 1462 1466
f 1462 1469 1466
f 1466 1469 1468
f 1465 1467 1455
f 1455 1467 1456
f 1471 1456 1470
f 1470 1456 1467
f 1470 1473 1472
f 1472 1473 1474
f 1470 1467 1473
f 1473 1467 1468
f 1470 1472 1471
f 1471 1472 1451
f 1471 1451 1457
f 1457 1451 1450
f 1457 1454 1471
f 1471 1454 1456
f 1462 1445 1469
f 1469 1445 1446
f 1474 1469 1449
f 1449 1469 1446
f 1474 1473 1469
f 1469 1473 1468
f 1472 1474 1444
f 1444 1474 1449
f 1444 1441 1472
f 1472 1441 1451
f 1426 1433 1435
f 1435 1433 1452
f 1452 1433 1458
f 1458 1433 1432
f 1371 940 1372
f 1372 940 1068
f 1376 1375 1379
f 1379 1375 1380
f 1393 1386 1394
f 1394 1386 1385
f 1385 1387 1394
f 1394 1387 1392
f 1475 1373 1391
f 1391 1373 1376
f 1375 1386 1380
f 1380 1386 1393
f 1372 1068 1406
f 1406 1068 981
f 1406 1390 1395
f 1395 1390 1389
f 1371 1387 940
f 940 1387 978
f 883 807 1476
f 1476 807 1477
f 1046 904 1479
f 1479 904 1478
f 904 903 1478
f 1478 903 1480
f 1030 1481 1028
f 1028 1481 1482
f 810 1046 1483
f 1483 1046 1479
f 1066 883 1484
f 1484 883 1476
f 807 810 1477
f 1477 810 1483
f 1485 1029 1484
f 1484 1029 1066
f 1028 1482 903
f 903 1482 1480
f 1481 1030 1485
f 1485 1030 1029
f 1484 1486 1485
f 1485 1486 1487
f 1485 1487 1481
f 1481 1487 1488
f 1481 1488 1482
f 1482 1488 1489
f 1482 1489 1480
f 1480 1489 1490
f 1484 1476 1486
f 1486 1476 1491
f 1476 1477 1491
f 1491 1477 1492
f 1477 1483 1492
f 1492 1483 1493
f 1495 1486 1494
f 1494 1486 1491
f 1497 1498 1496
f 1496 1498 1499
f 1500 1501 1497
f 1497 1501 1498
f 1502 1503 1501
f 1501 1503 1498
f 1502 1504 1503
f 1503 1504 1505
f 1506 1499 1503
f 1503 1499 1498
f 1499 1506 1507
f 1507 1506 1508
f 1507 1509 1499
f 1499 1509 1496
f 1502 1501 1510
f 1510 1501 1500
f 1500 1488 1510
f 1510 1488 1487
f 1500 1511 1488
f 1488 1511 1489
f 1497 1512 1500
f 1500 1512 1511
f 1512 1497 1513
f 1513 1497 1496
f 1502 1510 1504
f 1504 1510 1495
f 1495 1510 1486
f 1486 1510 1487
f 1509 1514 1496
f 1496 1514 1513
f 1515 1512 1516
f 1516 1512 1513
f 1514 1517 1513
f 1513 1517 1516
f 1518 1515 1519
f 1519 1515 1516
f 1515 1518 1521
f 1521 1518 1520
f 1517 1522 1516
f 1516 1522 1519
f 1512 1515 1511
f 1511 1515 1521
f 1511 1521 1489
f 1489 1521 1490
f 1514 1509 1524
f 1524 1509 1523
f 1509 1507 1523
f 1523 1507 1508
f 1505 1504 1525
f 1525 1504 1495
f 1526 1505 1527
f 1527 1505 1525
f 1525 1495 1528
f 1528 1495 1494
f 1527 1525 1529
f 1529 1525 1528
f 1527 1530 1526
f 1526 1530 1531
f 1508 1531 1523
f 1523 1531 1530
f 1506 1503 1526
f 1526 1503 1505
f 1508 1506 1531
f 1531 1506 1526
f 1478 1480 1532
f 1532 1480 1490
f 1483 1479 1493
f 1493 1479 1533
f 1532 1533 1478
f 1478 1533 1479
f 1520 1534 1532
f 1532 1534 1533
f 1518 1535 1520
f 1520 1535 1534
f 1533 1534 1493
f 1493 1534 1536
f 1532 1490 1520
f 1520 1490 1521
f 1537 1492 1536
f 1536 1492 1493
f 1492 1537 1491
f 1491 1537 1494
f 1537 1538 1494
f 1494 1538 1528
f 1538 1537 1539
f 1539 1537 1536
f 1540 1538 1541
f 1541 1538 1539
f 1534 1535 1536
f 1536 1535 1539
f 1535 1542 1539
f 1539 1542 1541
f 1538 1540 1528
f 1528 1540 1529
f 1544 1529 1543
f 1543 1529 1540
f 1545 1543 1547
f 1547 1543 1546
f 1543 1540 1546
f 1546 1540 1541
f 1543 1545 1544
f 1544 1545 1524
f 1544 1524 1530
f 1530 1524 1523
f 1530 1527 1544
f 1544 1527 1529
f 1535 1518 1542
f 1542 1518 1519
f 1547 1542 1522
f 1522 1542 1519
f 1547 1546 1542
f 1542 1546 1541
f 1545 1547 1517
f 1517 1547 1522
f 1517 1514 1545
f 1545 1514 1524
f 997 995 986
f 986 995 987
f 987 995 988
f 988 995 971
f 976 1358 977
f 977 1358 1289
f 854 853 1067
f 1067 853 1050
f 1055 985 1069
f 1069 985 962
f 1068 961 981
f 981 961 862
f 1268 1358 920
f 920 1358 976
f 920 976 921
f 921 976 975
f 927 1054 850
f 850 1054 851
f 882 881 1057
f 1057 881 1548
f 1548 1374 1057
f 1057 1374 1373
f 1383 1374 1549
f 1549 1374 1548
f 1549 1548 1550
f 1550 1548 881
f 1550 881 1551
f 1551 881 880
f 933 1552 879
f 879 1552 880
f 1551 880 875
f 875 880 1552
f 1553 1551 878
f 878 1551 875
f 1551 1553 1550
f 1550 1553 1554
f 1550 1554 1549
f 1549 1554 1555
f 978 1384 975
f 975 1384 1555
f 967 849 1556
f 1556 849 852
f 875 1552 876
f 876 1552 933
f 961 939 962
f 962 939 1069
f 1555 1054 975
f 975 1054 921
f 1555 1384 1549
f 1549 1384 1383
f 1391 1390 1475
f 1475 1390 980
f 1373 1475 1057
f 1057 1475 980
f 851 1054 1554
f 1554 1054 1555
f 1554 1553 851
f 851 1553 852
f 878 1556 1553
f 1553 1556 852
f 1556 878 967
f 967 878 877
f 1023 1020 877
f 877 1020 967
f 909 811 1034
f 806 779 873
f 873 779 840
f 805 780 806
f 806 780 779
f 1043 893 1044
f 1044 893 892
f 873 840 847
f 847 840 842
f 840 839 842
f 842 839 843
f 839 791 843
f 843 791 908
f 791 790 908
f 908 790 792
f 809 789 810
f 810 789 1046
f 793 790 809
f 809 790 789
f 809 808 793
f 793 808 1009
f 808 884 1009
f 1009 884 1010
f 1065 1015 884
f 884 1015 1010
f 1032 868 1065
f 1065 868 1015
f 1031 822 1032
f 1032 822 868
f 1031 1027 822
f 822 1027 785
f 1045 905 1046
f 1046 905 904
f 788 781 1019
f 1019 781 894
f 781 780 894
f 894 780 892
f 780 805 892
f 892 805 1044
f 805 804 1044
f 1044 804 891
f 804 1064 891
f 891 1064 888
f 1064 1021 888
f 888 1021 1033
f 1021 1020 1033
f 1033 1020 1034
f 1020 1023 1034
f 1034 1023 909
f 1023 1022 909
f 909 1022 910
f 1043 815 893
f 893 815 819
f 819 815 820
f 820 815 818
f 870 869 818
f 818 869 820
f 1014 1011 870
f 870 1011 869
f 969 972 1014
f 1014 972 1011
f 1036 1063 1022
f 1022 1063 910
f 1035 833 1036
f 1036 833 1063
f 1035 932 979
f 979 932 963
f 834 979 982
f 982 979 958
f 833 1035 834
f 834 1035 979
f 982 863 834
f 834 863 830
f 864 900 831
f 831 900 857
f 990 993 864
f 864 993 900
f 989 994 990
f 990 994 993
f 970 1058 989
f 989 1058 994
f 969 1018 970
f 970 1018 1058
f 1027 902 785
f 785 902 786
f 902 905 786
f 786 905 1019
f 905 1045 1019
f 1019 1045 788
f 788 1045 787
f 787 1045 789
