o hand_left
v -0.094862 -0.270697 0.883777
v -0.105566 -0.274095 0.885716
v -0.099104 -0.266503 0.887156
v -0.090595 -0.262886 0.884522
v -0.117077 -0.262983 0.896295
v -0.125847 -0.254794 0.893347
v -0.110863 -0.247023 0.893920
v -0.105741 -0.255789 0.896845
v -0.085763 -0.257019 0.882528
v -0.093058 -0.260460 0.887780
v -0.084085 -0.254719 0.876877
v -0.078156 -0.252313 0.868548
v -0.079016 -0.253946 0.876401
v -0.071262 -0.251802 0.865673
v -0.083835 -0.254954 0.859245
v -0.069604 -0.257066 0.857855
v -0.085098 -0.281505 0.854056
v -0.085539 -0.294509 0.857361
v -0.068818 -0.292103 0.859215
v -0.069736 -0.278764 0.856472
v -0.076243 -0.309689 0.867965
v -0.071233 -0.300093 0.863135
v -0.087587 -0.302915 0.860045
v -0.091085 -0.311486 0.864592
v -0.099643 -0.284975 0.885065
v -0.110517 -0.288125 0.886099
v -0.109521 -0.283186 0.884805
v -0.098940 -0.279903 0.883950
v -0.087066 -0.246511 0.874225
v -0.094393 -0.248775 0.866285
v -0.087519 -0.251735 0.869197
v -0.084524 -0.249455 0.878396
v -0.134659 -0.300358 0.894947
v -0.146072 -0.302824 0.888066
v -0.146651 -0.297334 0.885847
v -0.136061 -0.296398 0.892278
v -0.143603 -0.272774 0.886608
v -0.149786 -0.280042 0.879582
v -0.154954 -0.274937 0.867844
v -0.147479 -0.267577 0.871184
v -0.135177 -0.262975 0.891631
v -0.140160 -0.257873 0.879330
v -0.129284 -0.249095 0.883629
v -0.113248 -0.241400 0.886782
v -0.144502 -0.315472 0.890076
v -0.136072 -0.315391 0.895865
v -0.043958 -0.242451 0.894731
v -0.043794 -0.247838 0.897566
v -0.044602 -0.248843 0.895906
v -0.044462 -0.243338 0.893419
v -0.133533 -0.329617 0.880523
v -0.131199 -0.331260 0.870772
v -0.138283 -0.332883 0.871615
v -0.141093 -0.329644 0.880048
v -0.123544 -0.329389 0.881213
v -0.121517 -0.328317 0.870068
v -0.031973 -0.237777 0.893184
v -0.037111 -0.236797 0.893286
v -0.036346 -0.238066 0.889309
v -0.031342 -0.239980 0.888386
v -0.081956 -0.258843 0.881688
v -0.085243 -0.267065 0.883965
v -0.065378 -0.257258 0.881771
v -0.072348 -0.261772 0.882010
v -0.073910 -0.255878 0.878800
v -0.067784 -0.252783 0.877894
v -0.076575 -0.284427 0.886705
v -0.088210 -0.286196 0.885744
v -0.086644 -0.280043 0.884130
v -0.074148 -0.276218 0.885443
v -0.089708 -0.298777 0.892236
v -0.078007 -0.296117 0.892315
v -0.080102 -0.303557 0.896071
v -0.088264 -0.303837 0.896221
v -0.058065 -0.289143 0.890441
v -0.050520 -0.287686 0.889562
v -0.049222 -0.290614 0.890092
v -0.058408 -0.292490 0.891410
v -0.145214 -0.334373 0.871226
v -0.148256 -0.328957 0.878900
v -0.082552 -0.326326 0.880049
v -0.088448 -0.330184 0.888738
v -0.075811 -0.330956 0.891887
v -0.073092 -0.326617 0.881749
v -0.128684 -0.326756 0.861673
v -0.135479 -0.330708 0.862128
v -0.027663 -0.242204 0.894494
v -0.026909 -0.244443 0.889878
v -0.129903 -0.250686 0.870066
v -0.113359 -0.240380 0.876777
v -0.140587 -0.261506 0.864210
v -0.146651 -0.270405 0.859283
v -0.153371 -0.275752 0.855782
v -0.067998 -0.266616 0.884098
v -0.089806 -0.275082 0.883885
v -0.100202 -0.289624 0.886784
v -0.099053 -0.315860 0.903046
v -0.109745 -0.316741 0.902553
v -0.106266 -0.306928 0.900154
v -0.097513 -0.308418 0.900476
v -0.089896 -0.328440 0.898262
v -0.088780 -0.321886 0.902759
v -0.079064 -0.321710 0.903386
v -0.078829 -0.328351 0.899774
v -0.091200 -0.240379 0.872722
v -0.101155 -0.245816 0.865029
v -0.136059 -0.324295 0.889384
v -0.143341 -0.322615 0.887082
v -0.150957 -0.323176 0.883378
v -0.123213 -0.292728 0.891033
v -0.137165 -0.293475 0.890670
v -0.137204 -0.288762 0.890317
v -0.123217 -0.290144 0.889394
v -0.115939 -0.275588 0.891109
v -0.128516 -0.273267 0.894504
v -0.106413 -0.268046 0.893125
v -0.149199 -0.290047 0.882748
v -0.156352 -0.298582 0.882692
v -0.157646 -0.290734 0.878569
v -0.155000 -0.308082 0.884879
v -0.153146 -0.316812 0.885492
v -0.142426 -0.334940 0.859556
v -0.157559 -0.283930 0.873590
v -0.097859 -0.250780 0.896258
v -0.091478 -0.245675 0.896049
v -0.086996 -0.251054 0.892225
v -0.092612 -0.256767 0.892383
v -0.062785 -0.250634 0.865611
v -0.065915 -0.249870 0.872910
v -0.074018 -0.251488 0.872831
v -0.123916 -0.303599 0.898202
v -0.125698 -0.316123 0.899094
v -0.060866 -0.261827 0.883650
v -0.033240 -0.242176 0.883661
v -0.038505 -0.239654 0.885316
v -0.051745 -0.245786 0.873669
v -0.045998 -0.248794 0.870790
v -0.050884 -0.264472 0.882554
v -0.056950 -0.261032 0.884462
v -0.054734 -0.260847 0.884910
v -0.048967 -0.264189 0.885412
v -0.053214 -0.298475 0.893269
v -0.061050 -0.299959 0.894721
v -0.054866 -0.275967 0.862561
v -0.057606 -0.264239 0.855516
v -0.070398 -0.267125 0.853899
v -0.078150 -0.291244 0.889395
v -0.067563 -0.290428 0.890639
v -0.067851 -0.294303 0.892144
v -0.063882 -0.269157 0.884786
v -0.057053 -0.266614 0.884203
v -0.058563 -0.271431 0.884658
v -0.065237 -0.274252 0.885693
v -0.101132 -0.330854 0.885171
v -0.102921 -0.329144 0.896521
v -0.041482 -0.238484 0.893520
v -0.041366 -0.239330 0.891087
v -0.089545 -0.292841 0.888372
v -0.085163 -0.270395 0.853834
v -0.100909 -0.294581 0.889057
v -0.058721 -0.313888 0.880564
v -0.057820 -0.314363 0.887586
v -0.051819 -0.311563 0.888356
v -0.050475 -0.312250 0.882615
v -0.038590 -0.259161 0.894055
v -0.043013 -0.255915 0.896165
v -0.041551 -0.254242 0.897170
v -0.036136 -0.256998 0.896700
v -0.060618 -0.256471 0.883273
v -0.062586 -0.251437 0.879880
v -0.058512 -0.250608 0.882761
v -0.056779 -0.256056 0.884810
v -0.060488 -0.248288 0.874775
v -0.056492 -0.246705 0.877922
v -0.032847 -0.258907 0.890608
v -0.028627 -0.253620 0.886714
v -0.040372 -0.261392 0.874600
v -0.042326 -0.264156 0.881626
v -0.105376 -0.313580 0.860353
v -0.107309 -0.322493 0.866856
v -0.093131 -0.320678 0.871193
v -0.079237 -0.319834 0.874728
v -0.066400 -0.317731 0.878736
v -0.063689 -0.309452 0.870226
v -0.096029 -0.326620 0.876004
v -0.049382 -0.271253 0.874238
v -0.049118 -0.267433 0.867066
v -0.050267 -0.274011 0.867841
v -0.101230 -0.300443 0.893685
v -0.043358 -0.240263 0.888386
v -0.138244 -0.288150 0.845199
v -0.134947 -0.301332 0.845111
v -0.127461 -0.297158 0.846877
v -0.131260 -0.282143 0.847825
v -0.046309 -0.249698 0.895620
v -0.046905 -0.243931 0.892492
v -0.059962 -0.306148 0.897249
v -0.053377 -0.304135 0.894915
v -0.051583 -0.307475 0.893883
v -0.056736 -0.310889 0.898187
v -0.109830 -0.326539 0.870466
v -0.067409 -0.330686 0.894235
v -0.065751 -0.327341 0.885006
v -0.119734 -0.323692 0.862871
v -0.118056 -0.316259 0.856647
v -0.127213 -0.318685 0.854297
v -0.055094 -0.296543 0.867788
v -0.102203 -0.306258 0.856800
v -0.116072 -0.309388 0.853752
v -0.126929 -0.311967 0.850790
v -0.134478 -0.314682 0.848437
v -0.134057 -0.321715 0.852649
v -0.029496 -0.247545 0.884715
v -0.025534 -0.251033 0.892628
v -0.141404 -0.326093 0.849501
v -0.141776 -0.317691 0.845447
v -0.114890 -0.300665 0.850892
v -0.114349 -0.289492 0.848808
v -0.101543 -0.297942 0.854156
v -0.099676 -0.286798 0.852043
v -0.056191 -0.289444 0.859860
v -0.030693 -0.248135 0.910009
v -0.029430 -0.253223 0.900195
v -0.035140 -0.254800 0.900296
v -0.034159 -0.250808 0.910168
v -0.030362 -0.256166 0.895197
v -0.026494 -0.248779 0.897584
v -0.100857 -0.272531 0.852515
v -0.052155 -0.269912 0.883213
v -0.118130 -0.272298 0.851686
v -0.096922 -0.256932 0.855677
v -0.109983 -0.256001 0.857459
v -0.135671 -0.269776 0.852465
v -0.126071 -0.256774 0.858280
v -0.148940 -0.281917 0.847532
v -0.141583 -0.277216 0.849627
v -0.114920 -0.246437 0.865131
v -0.045113 -0.242250 0.903981
v -0.043859 -0.247828 0.905906
v -0.145341 -0.291849 0.842735
v -0.098561 -0.261806 0.892801
v -0.112210 -0.299389 0.894146
v -0.111507 -0.295099 0.890536
v -0.116127 -0.316687 0.901482
v -0.114078 -0.305355 0.899161
v -0.042925 -0.237320 0.902713
v -0.045159 -0.288721 0.886755
v -0.046414 -0.290552 0.885241
v -0.102468 -0.243127 0.895063
v -0.096521 -0.239807 0.895104
v -0.096260 -0.233332 0.883351
v -0.097544 -0.234785 0.890336
v -0.104896 -0.237530 0.888820
v -0.104244 -0.236123 0.881120
v -0.122848 -0.294863 0.892641
v -0.122464 -0.298179 0.894796
v -0.113056 -0.330354 0.883294
v -0.114214 -0.328159 0.894594
v -0.056953 -0.248907 0.869219
v -0.058772 -0.255033 0.860134
v -0.052525 -0.252807 0.865388
v -0.043060 -0.255417 0.869761
v -0.048540 -0.269502 0.879774
v -0.047829 -0.266675 0.877533
v -0.133527 -0.281672 0.892497
v -0.121363 -0.284041 0.889214
v -0.088868 -0.256959 0.886478
v -0.084051 -0.252679 0.885671
v -0.067783 -0.281810 0.887347
v -0.045264 -0.291108 0.872629
v -0.046602 -0.285151 0.865815
v -0.058802 -0.279941 0.886916
v -0.034884 -0.234907 0.904337
v -0.039725 -0.235135 0.903138
v -0.049810 -0.259369 0.863562
v -0.069420 -0.301476 0.896499
v -0.050573 -0.297329 0.873728
v -0.043402 -0.291619 0.880150
v -0.072208 -0.327817 0.901000
v -0.143031 -0.304435 0.842945
v -0.040787 -0.253201 0.900072
v -0.040491 -0.251547 0.907668
v -0.028937 -0.244541 0.908153
v -0.030051 -0.238981 0.905173
v -0.124624 -0.325441 0.892675
v -0.110711 -0.292175 0.888303
v -0.104515 -0.240036 0.871094
v -0.094229 -0.236119 0.876437
v -0.053290 -0.279024 0.886488
v -0.061887 -0.319760 0.883904
v -0.054872 -0.308776 0.873430
v -0.046795 -0.307845 0.875912
v -0.044317 -0.300670 0.875552
v -0.042823 -0.294248 0.879740
v -0.031067 -0.243116 0.913949
v -0.032130 -0.237707 0.911081
v -0.036933 -0.233955 0.909393
v -0.041136 -0.234322 0.907407
v -0.043986 -0.237404 0.906034
v -0.033054 -0.246998 0.915631
v -0.036274 -0.249438 0.915128
v -0.040893 -0.250847 0.910851
v -0.036467 -0.246852 0.919431
v -0.036094 -0.241698 0.921289
v -0.047488 -0.233228 0.919290
v -0.042028 -0.233135 0.916593
v -0.042412 -0.233801 0.919365
v -0.046567 -0.234013 0.922352
v -0.049803 -0.234621 0.926492
v -0.051464 -0.233623 0.923518
v -0.038433 -0.236486 0.919681
v -0.043636 -0.237134 0.924285
v -0.042332 -0.241005 0.925565
v -0.046335 -0.240756 0.929587
v -0.047474 -0.237244 0.928725
v -0.038646 -0.240145 0.922614
v -0.036315 -0.236293 0.918015
v -0.053301 -0.235349 0.927502
v -0.051270 -0.235276 0.929022
v -0.049870 -0.237750 0.930788
v -0.052771 -0.238742 0.931272
v -0.044088 -0.234104 0.911098
v -0.049409 -0.233914 0.917545
v -0.053227 -0.235846 0.922006
v -0.054784 -0.237373 0.926127
v -0.051695 -0.237435 0.917170
v -0.053979 -0.238638 0.921222
v -0.055102 -0.240408 0.924717
v -0.052543 -0.241707 0.917610
v -0.054045 -0.241897 0.921384
v -0.046248 -0.241656 0.908569
v -0.045373 -0.237468 0.907908
v -0.055198 -0.242334 0.923665
v -0.053917 -0.240513 0.930511
v -0.040974 -0.244400 0.924672
v -0.046789 -0.243878 0.928934
v -0.041844 -0.246617 0.923927
v -0.047251 -0.246165 0.928462
v -0.049915 -0.242686 0.932035
v -0.048791 -0.240491 0.931290
v -0.045083 -0.242552 0.906031
v -0.043618 -0.248264 0.908142
v -0.044559 -0.247577 0.910383
v -0.051158 -0.246313 0.918810
v -0.042426 -0.250175 0.913363
v -0.039577 -0.249226 0.918395
v -0.044400 -0.248297 0.923293
v -0.047414 -0.248863 0.921490
v -0.048665 -0.247406 0.926652
v -0.050384 -0.247276 0.924733
v -0.053113 -0.245325 0.922610
v -0.051975 -0.245674 0.928450
v -0.050814 -0.244347 0.930850
v -0.054388 -0.242713 0.927913
v -0.052331 -0.246217 0.926605
v -0.053992 -0.243855 0.925525
v -0.029733 -0.267595 0.897686
v -0.028785 -0.273289 0.901058
v -0.027611 -0.273107 0.896978
v -0.028194 -0.268328 0.894188
v -0.016778 -0.263328 0.892641
v -0.022945 -0.262328 0.894129
v -0.021021 -0.263804 0.888444
v -0.015168 -0.266798 0.887049
v -0.012258 -0.268635 0.893725
v -0.011722 -0.272624 0.887952
v -0.018619 -0.268842 0.882170
v -0.024393 -0.265325 0.885195
v -0.042220 -0.271256 0.876146
v -0.038108 -0.275083 0.871768
v -0.045215 -0.283084 0.889532
v -0.042255 -0.285549 0.888255
v -0.027601 -0.264324 0.895879
v -0.025872 -0.264959 0.891514
v -0.026677 -0.281295 0.897295
v -0.029904 -0.276996 0.898376
v -0.026810 -0.277532 0.899227
v -0.022067 -0.280524 0.899256
v -0.046949 -0.272301 0.883427
v -0.046864 -0.277922 0.886701
v -0.044997 -0.270808 0.880261
v -0.021293 -0.283902 0.893739
v -0.016803 -0.282700 0.888446
v -0.034341 -0.288371 0.877012
v -0.036295 -0.289350 0.883171
v -0.028348 -0.265049 0.889099
v -0.030875 -0.271384 0.896932
v -0.031027 -0.267147 0.893674
v -0.016733 -0.276257 0.883099
v -0.012335 -0.278754 0.893601
v -0.017767 -0.271754 0.913221
v -0.016515 -0.278083 0.903084
v -0.021604 -0.278724 0.904147
v -0.022441 -0.273408 0.914521
v -0.016652 -0.280991 0.897336
v -0.013046 -0.274837 0.899319
v -0.032003 -0.263902 0.910119
v -0.030950 -0.269606 0.913096
v -0.030176 -0.259971 0.908385
v -0.035394 -0.282227 0.871743
v -0.020121 -0.258362 0.905301
v -0.026703 -0.258035 0.906612
v -0.026567 -0.277641 0.903128
v -0.027447 -0.272854 0.914842
v -0.015155 -0.268692 0.910918
v -0.015230 -0.263147 0.905921
v -0.016379 -0.265410 0.916115
v -0.016913 -0.260088 0.912418
v -0.021887 -0.255721 0.910888
v -0.027748 -0.256572 0.910586
v -0.030718 -0.259262 0.911095
v -0.018782 -0.268705 0.918176
v -0.023109 -0.270999 0.918808
v -0.027910 -0.271135 0.916821
v -0.023054 -0.267213 0.923903
v -0.020928 -0.263001 0.923832
v -0.035803 -0.251785 0.926867
v -0.031760 -0.252586 0.922368
v -0.029988 -0.253048 0.924281
v -0.033551 -0.252364 0.928513
v -0.026293 -0.253148 0.919080
v -0.026173 -0.253841 0.921559
v -0.023017 -0.257174 0.922734
v -0.027710 -0.256457 0.926908
v -0.026311 -0.260937 0.928308
v -0.029649 -0.259715 0.932924
v -0.030951 -0.255150 0.931866
v -0.023062 -0.260279 0.925183
v -0.035312 -0.252554 0.931729
v -0.037875 -0.252914 0.932063
v -0.020540 -0.257110 0.920430
v -0.029114 -0.254900 0.914060
v -0.034507 -0.253493 0.921116
v -0.038595 -0.253511 0.926371
v -0.039752 -0.255356 0.932234
v -0.037356 -0.256693 0.921227
v -0.040160 -0.256394 0.926571
v -0.040395 -0.257907 0.931426
v -0.038845 -0.261192 0.922135
v -0.040766 -0.260517 0.927560
v -0.033143 -0.263139 0.913546
v -0.032213 -0.258433 0.912843
v -0.040617 -0.259966 0.930145
v -0.035832 -0.255307 0.935792
v -0.038306 -0.257594 0.935490
v -0.034261 -0.254901 0.934809
v -0.026268 -0.263070 0.928650
v -0.030714 -0.261666 0.933301
v -0.027713 -0.265589 0.928892
v -0.032349 -0.263435 0.933826
v -0.033707 -0.259537 0.936403
v -0.032905 -0.258101 0.935892
v -0.031654 -0.263419 0.912232
v -0.030563 -0.268533 0.914627
v -0.031813 -0.268346 0.915636
v -0.037080 -0.265824 0.924365
v -0.028794 -0.270900 0.918432
v -0.025630 -0.269676 0.922562
v -0.029675 -0.267555 0.928077
v -0.033525 -0.267990 0.926779
v -0.033500 -0.265293 0.933525
v -0.035335 -0.266210 0.930947
v -0.039207 -0.264155 0.928834
v -0.036434 -0.262555 0.935981
v -0.034976 -0.260781 0.936616
v -0.039153 -0.259351 0.934361
v -0.037340 -0.264085 0.933568
v -0.039732 -0.261642 0.932147
v -0.030125 -0.293414 0.897995
v -0.030641 -0.298549 0.901211
v -0.031124 -0.299311 0.899021
v -0.029565 -0.294722 0.895795
v -0.018841 -0.293380 0.892311
v -0.022765 -0.290781 0.893683
v -0.023291 -0.292885 0.889242
v -0.020338 -0.296218 0.886507
v -0.016143 -0.297811 0.894794
v -0.018279 -0.301626 0.886662
v -0.023874 -0.297694 0.882670
v -0.025482 -0.293587 0.886674
v -0.038696 -0.294571 0.880943
v -0.037456 -0.299969 0.877130
v -0.027053 -0.291134 0.895675
v -0.027017 -0.292681 0.892776
v -0.031582 -0.306312 0.900284
v -0.033015 -0.301606 0.900715
v -0.029824 -0.304204 0.900885
v -0.026363 -0.307365 0.900564
v -0.045317 -0.292849 0.889999
v -0.047790 -0.298189 0.892188
v -0.041391 -0.292307 0.886218
v -0.027984 -0.309833 0.895876
v -0.024642 -0.309963 0.888980
v -0.040283 -0.311746 0.884467
v -0.043305 -0.310610 0.889649
v -0.028021 -0.292157 0.890943
v -0.033356 -0.296617 0.899042
v -0.031304 -0.292630 0.895403
v -0.024011 -0.304158 0.883683
v -0.018670 -0.306953 0.892202
v -0.017251 -0.298664 0.914807
v -0.020065 -0.306778 0.900966
v -0.025511 -0.306180 0.903122
v -0.021473 -0.299748 0.915915
v -0.021856 -0.308608 0.897622
v -0.016696 -0.303909 0.897660
v -0.029352 -0.288465 0.911018
v -0.029154 -0.293725 0.913337
v -0.026462 -0.286140 0.908352
v -0.038015 -0.307107 0.877905
v -0.046927 -0.305813 0.893128
v -0.018836 -0.285771 0.907342
v -0.023249 -0.285120 0.907471
v -0.028930 -0.303537 0.902826
v -0.026074 -0.298351 0.915492
v -0.014445 -0.295804 0.911672
v -0.014853 -0.290540 0.907737
v -0.014842 -0.293504 0.917490
v -0.015362 -0.287938 0.913920
v -0.019506 -0.283591 0.912625
v -0.024259 -0.283793 0.911845
v -0.027342 -0.285322 0.912097
v -0.018200 -0.296955 0.919652
v -0.022026 -0.298154 0.919620
v -0.025955 -0.297482 0.916277
v -0.020205 -0.295940 0.923344
v -0.017630 -0.290978 0.923808
v -0.030574 -0.280144 0.929552
v -0.027417 -0.281055 0.924403
v -0.026568 -0.281601 0.925111
v -0.029136 -0.280548 0.930474
v -0.022117 -0.282092 0.919659
v -0.022545 -0.282332 0.921742
v -0.019624 -0.285148 0.922667
v -0.023266 -0.284338 0.928344
v -0.022725 -0.290407 0.929193
v -0.025679 -0.288801 0.933418
v -0.026110 -0.283156 0.933197
v -0.019132 -0.289278 0.924789
v -0.030195 -0.280711 0.933672
v -0.031632 -0.279422 0.933719
v -0.017632 -0.285746 0.920611
v -0.026041 -0.282107 0.916449
v -0.030105 -0.281007 0.922983
v -0.033396 -0.280054 0.928100
v -0.034664 -0.281063 0.932378
v -0.032901 -0.283616 0.922317
v -0.035062 -0.282628 0.927245
v -0.036082 -0.283445 0.931135
v -0.034208 -0.286738 0.922604
v -0.035739 -0.285832 0.927061
v -0.030032 -0.288439 0.914515
v -0.028725 -0.284720 0.914892
v -0.036147 -0.285600 0.930163
v -0.030249 -0.282798 0.936905
v -0.033652 -0.285254 0.936223
v -0.029009 -0.282952 0.935673
v -0.022552 -0.292282 0.928968
v -0.026496 -0.290772 0.934400
v -0.024283 -0.294564 0.928557
v -0.028083 -0.292888 0.933864
v -0.028541 -0.287827 0.937084
v -0.027930 -0.287057 0.936370
v -0.029068 -0.288672 0.912759
v -0.028716 -0.293701 0.914318
v -0.029536 -0.293393 0.915608
v -0.034055 -0.291498 0.924105
v -0.026954 -0.297099 0.917670
v -0.023915 -0.297168 0.922926
v -0.027447 -0.295346 0.927528
v -0.031145 -0.294612 0.926320
v -0.030386 -0.293629 0.932372
v -0.032159 -0.293169 0.930123
v -0.035602 -0.289989 0.928238
v -0.032423 -0.290611 0.934488
v -0.030467 -0.289680 0.936558
v -0.035271 -0.286916 0.934027
v -0.033807 -0.291054 0.932429
v -0.035846 -0.288196 0.931938
v -0.048323 -0.302414 0.893563
v -0.040990 -0.310326 0.908786
v -0.041480 -0.313192 0.911898
v -0.041995 -0.314419 0.911083
v -0.042483 -0.311616 0.907541
v -0.033643 -0.313604 0.900354
v -0.036266 -0.310226 0.902799
v -0.038164 -0.312295 0.899415
v -0.036158 -0.316121 0.896927
v -0.032125 -0.318904 0.901011
v -0.034693 -0.321748 0.898574
v -0.039006 -0.317341 0.895636
v -0.040795 -0.313363 0.897912
v -0.054528 -0.315332 0.890453
v -0.055023 -0.320276 0.887745
v -0.066097 -0.326657 0.901761
v -0.067272 -0.321474 0.903771
v -0.059062 -0.321594 0.905881
v -0.058614 -0.326166 0.904635
v -0.038920 -0.309473 0.905658
v -0.040876 -0.310640 0.903461
v -0.042249 -0.324272 0.911449
v -0.043769 -0.319651 0.912349
v -0.041346 -0.317985 0.913470
v -0.038941 -0.322203 0.914356
v -0.064906 -0.316540 0.902827
v -0.062334 -0.313212 0.900720
v -0.058471 -0.313296 0.901254
v -0.057996 -0.317021 0.904546
v -0.055476 -0.311929 0.896682
v -0.040392 -0.326963 0.908252
v -0.038369 -0.327505 0.902405
v -0.057325 -0.331181 0.896251
v -0.058712 -0.329694 0.900820
v -0.041865 -0.311672 0.902047
v -0.044350 -0.315343 0.910289
v -0.043265 -0.312582 0.907157
v -0.038536 -0.323379 0.896553
v -0.034282 -0.325028 0.905070
v -0.030187 -0.318611 0.917361
v -0.034040 -0.323044 0.912755
v -0.037585 -0.320918 0.915142
v -0.033289 -0.318095 0.918939
v -0.036421 -0.324773 0.911240
v -0.031630 -0.322040 0.907705
v -0.038994 -0.307667 0.913462
v -0.038748 -0.312044 0.916825
v -0.037231 -0.306090 0.910956
v -0.055773 -0.326783 0.889310
v -0.030677 -0.307922 0.907427
v -0.034248 -0.305806 0.909284
v -0.040144 -0.316720 0.914223
v -0.036679 -0.315757 0.918928
v -0.027467 -0.316861 0.913499
v -0.027863 -0.313095 0.908052
v -0.026376 -0.313210 0.916939
v -0.026863 -0.309514 0.911648
v -0.031380 -0.304863 0.910857
v -0.035421 -0.304820 0.911574
v -0.038174 -0.305946 0.912947
v -0.029510 -0.315811 0.920241
v -0.032434 -0.316200 0.921111
v -0.036058 -0.315010 0.919932
v -0.029322 -0.312880 0.923189
v -0.027853 -0.308436 0.921712
v -0.037287 -0.299411 0.925156
v -0.036353 -0.300821 0.921165
v -0.035226 -0.300949 0.921645
v -0.036248 -0.299063 0.925290
v -0.033429 -0.302456 0.916547
v -0.032892 -0.302347 0.918383
v -0.029876 -0.304578 0.918444
v -0.031440 -0.302316 0.923317
v -0.029957 -0.306392 0.926610
v -0.031272 -0.304123 0.930010
v -0.032155 -0.300582 0.926825
v -0.028526 -0.306703 0.922139
v -0.035810 -0.297998 0.927952
v -0.036919 -0.297572 0.928785
v -0.028551 -0.305346 0.916301
v -0.037282 -0.303504 0.915354
v -0.039015 -0.301000 0.921578
v -0.039461 -0.299128 0.926480
v -0.038455 -0.298655 0.930315
v -0.040757 -0.302910 0.921598
v -0.041193 -0.300602 0.927089
v -0.040063 -0.300314 0.930704
v -0.041809 -0.305966 0.922745
v -0.041700 -0.303120 0.927652
v -0.040691 -0.308953 0.917465
v -0.039824 -0.305701 0.916104
v -0.040506 -0.301998 0.930331
v -0.034197 -0.298885 0.931446
v -0.036624 -0.300338 0.932648
v -0.032973 -0.299121 0.930241
v -0.029924 -0.307702 0.927217
v -0.031691 -0.305101 0.931386
v -0.031042 -0.309717 0.928020
v -0.033311 -0.306388 0.932146
v -0.033012 -0.302074 0.932863
v -0.032052 -0.301656 0.931183
v -0.039745 -0.308497 0.915744
v -0.038795 -0.311672 0.917797
v -0.039118 -0.312298 0.919815
v -0.040465 -0.309442 0.924874
v -0.035693 -0.314856 0.921929
v -0.031952 -0.314734 0.923243
v -0.033491 -0.311074 0.928200
v -0.036881 -0.311367 0.927461
v -0.035449 -0.306989 0.932225
v -0.038246 -0.307528 0.931043
v -0.040845 -0.306081 0.929288
v -0.036912 -0.303532 0.933197
v -0.035192 -0.302772 0.933607
v -0.038256 -0.301698 0.932591
v -0.038489 -0.304390 0.932401
v -0.039596 -0.303361 0.931589
v -0.063699 -0.328901 0.899397
v -0.079489 -0.236675 0.879722
v -0.076977 -0.241376 0.881137
v -0.079913 -0.242803 0.897300
v -0.075994 -0.245175 0.891906
v -0.083845 -0.237511 0.899230
v -0.088135 -0.229447 0.892707
v -0.087415 -0.233265 0.896957
v -0.075036 -0.244439 0.885933
v -0.083214 -0.231890 0.880636
v -0.087279 -0.228506 0.885793
v -0.076123 -0.228253 0.882822
v -0.080621 -0.224753 0.888161
v -0.082350 -0.224992 0.895052
v -0.082840 -0.230339 0.899808
v -0.081151 -0.234754 0.901786
v -0.073613 -0.234860 0.882684
v -0.071834 -0.239656 0.884575
v -0.071961 -0.243509 0.889777
v -0.065937 -0.233614 0.886706
v -0.061346 -0.225845 0.892111
v -0.059355 -0.219087 0.910462
v -0.065209 -0.221479 0.907692
v -0.063552 -0.220389 0.905492
v -0.058592 -0.217750 0.908186
v -0.068677 -0.221754 0.903271
v -0.066393 -0.221492 0.902363
v -0.064767 -0.222407 0.897385
v -0.060083 -0.220269 0.900054
v -0.060854 -0.224609 0.894675
v -0.056886 -0.224253 0.896351
v -0.055357 -0.218075 0.902462
v -0.054890 -0.215902 0.908049
v -0.051335 -0.216517 0.904838
v -0.054039 -0.217607 0.910800
v -0.065959 -0.220880 0.895740
v -0.074550 -0.225883 0.904699
v -0.067132 -0.224406 0.909427
v -0.059835 -0.222531 0.912292
v -0.053656 -0.220723 0.912058
v -0.066964 -0.229061 0.910328
v -0.059801 -0.227136 0.911846
v -0.054080 -0.225850 0.910962
v -0.065120 -0.233598 0.908761
v -0.058633 -0.230584 0.909778
v -0.075426 -0.238564 0.902340
v -0.076912 -0.232392 0.905165
v -0.054885 -0.228332 0.909515
v -0.049072 -0.217528 0.906717
v -0.048726 -0.221149 0.908025
v -0.056119 -0.227096 0.894297
v -0.052241 -0.221901 0.898308
v -0.051129 -0.224904 0.897793
v -0.056513 -0.231173 0.893388
v -0.050689 -0.227842 0.898140
v -0.048135 -0.221329 0.901585
v -0.050256 -0.219243 0.901033
v -0.078401 -0.240332 0.900190
v -0.075108 -0.243607 0.895195
v -0.072421 -0.242053 0.897259
v -0.062296 -0.237316 0.903635
v -0.068361 -0.242148 0.892559
v -0.066021 -0.238302 0.888419
v -0.057032 -0.234766 0.894810
v -0.059123 -0.237428 0.898367
v -0.051770 -0.230883 0.900118
v -0.053563 -0.232383 0.902231
v -0.056069 -0.232438 0.906546
v -0.049621 -0.227635 0.903948
v -0.047921 -0.224610 0.902458
v -0.050386 -0.225777 0.907995
v -0.051667 -0.229585 0.904465
v -0.052691 -0.228773 0.907362
v -0.073551 -0.321121 0.903618
v -0.071806 -0.314802 0.902846
v -0.078723 -0.315880 0.903105
v -0.088626 -0.315855 0.903245
v -0.097663 -0.321788 0.902315
v -0.088147 -0.309536 0.900444
v -0.077997 -0.309872 0.900576
v -0.068121 -0.308618 0.899753
v -0.095993 -0.303933 0.896251
f 2 3 1
f 1 3 4
f 5 6 8
f 8 6 7
f 9 4 10
f 10 4 3
f 12 13 11
f 11 13 9
f 14 12 16
f 16 12 15
f 18 19 17
f 17 19 20
f 22 23 21
f 21 23 24
f 26 27 25
f 25 27 28
f 30 31 29
f 29 31 32
f 33 34 36
f 36 34 35
f 37 38 40
f 40 38 39
f 41 42 6
f 6 42 43
f 6 43 7
f 7 43 44
f 45 34 46
f 46 34 33
f 48 49 47
f 47 49 50
f 52 53 51
f 51 53 54
f 56 52 55
f 55 52 51
f 58 59 57
f 57 59 60
f 61 62 4
f 4 62 1
f 64 65 63
f 63 65 66
f 68 69 67
f 67 69 70
f 72 73 71
f 71 73 74
f 76 77 75
f 75 77 78
f 53 79 54
f 54 79 80
f 82 83 81
f 81 83 84
f 85 86 52
f 52 86 53
f 57 60 87
f 87 60 88
f 89 90 43
f 43 90 44
f 43 42 89
f 89 42 91
f 40 39 92
f 92 39 93
f 94 70 64
f 64 70 69
f 13 61 9
f 9 61 4
f 25 28 69
f 69 28 95
f 96 25 68
f 68 25 69
f 98 99 97
f 97 99 100
f 101 102 104
f 104 102 103
f 106 30 105
f 105 30 29
f 51 54 107
f 107 54 108
f 54 80 108
f 108 80 109
f 111 112 110
f 110 112 113
f 115 5 114
f 114 5 116
f 115 41 5
f 5 41 6
f 36 35 111
f 111 35 117
f 35 118 117
f 117 118 119
f 34 120 35
f 35 120 118
f 34 45 120
f 120 45 121
f 125 126 124
f 124 126 127
f 128 129 14
f 14 129 130
f 33 131 46
f 46 131 132
f 133 94 63
f 63 94 64
f 134 135 137
f 137 135 136
f 139 140 138
f 138 140 141
f 77 142 78
f 78 142 143
f 144 145 20
f 20 145 146
f 148 149 147
f 147 149 72
f 151 152 150
f 150 152 153
f 82 101 83
f 83 101 104
f 101 82 155
f 155 82 154
f 156 157 58
f 58 157 59
f 158 68 147
f 147 68 67
f 159 146 15
f 15 146 16
f 68 158 96
f 96 158 160
f 129 66 130
f 130 66 65
f 162 163 161
f 161 163 164
f 166 167 165
f 165 167 168
f 170 171 169
f 169 171 172
f 174 171 173
f 173 171 170
f 176 177 175
f 175 177 178
f 180 181 179
f 179 181 24
f 182 183 21
f 21 183 184
f 81 185 82
f 82 185 154
f 186 187 188
f 188 187 144
f 158 71 160
f 160 71 189
f 190 135 157
f 157 135 59
f 169 172 139
f 139 172 140
f 147 72 158
f 158 72 71
f 192 193 191
f 191 193 194
f 167 166 49
f 49 166 195
f 196 190 50
f 50 190 157
f 197 198 200
f 200 198 199
f 21 24 182
f 182 24 181
f 146 159 20
f 20 159 17
f 182 181 81
f 81 181 185
f 201 185 180
f 180 185 181
f 202 203 83
f 83 203 84
f 205 206 204
f 204 206 85
f 207 22 184
f 184 22 21
f 179 24 208
f 208 24 23
f 208 209 179
f 179 209 205
f 209 210 205
f 205 210 206
f 212 206 211
f 211 206 210
f 179 205 180
f 180 205 204
f 213 176 88
f 88 176 214
f 86 85 212
f 212 85 206
f 193 217 218
f 217 219 218
f 218 219 220
f 219 18 220
f 220 18 17
f 19 221 20
f 20 221 144
f 222 223 225
f 225 223 224
f 175 226 176
f 176 226 214
f 227 87 214
f 214 87 88
f 220 17 228
f 228 17 159
f 134 213 60
f 60 213 88
f 138 229 151
f 151 229 152
f 193 192 210
f 210 192 211
f 230 194 218
f 218 194 193
f 231 232 228
f 228 232 230
f 233 234 91
f 91 234 89
f 235 236 93
f 93 236 92
f 230 232 234
f 234 232 237
f 47 238 48
f 48 238 239
f 240 191 235
f 235 191 236
f 5 8 116
f 116 8 241
f 242 243 189
f 189 243 160
f 244 245 98
f 98 245 99
f 156 246 47
f 47 246 238
f 76 247 77
f 77 247 248
f 250 125 249
f 249 125 124
f 252 253 251
f 251 253 254
f 111 110 36
f 36 110 255
f 256 33 255
f 255 33 36
f 257 258 154
f 154 258 155
f 63 169 133
f 133 169 139
f 66 170 63
f 63 170 169
f 173 170 129
f 129 170 66
f 129 128 173
f 173 128 259
f 128 260 259
f 259 260 261
f 213 134 262
f 262 134 137
f 263 264 186
f 186 264 187
f 112 265 113
f 113 265 266
f 11 267 268
f 234 233 230
f 230 233 194
f 153 269 70
f 70 269 67
f 175 178 165
f 165 178 141
f 150 153 94
f 94 153 70
f 271 221 270
f 270 221 207
f 269 153 272
f 272 153 152
f 121 45 109
f 109 45 108
f 47 50 156
f 156 50 157
f 57 273 58
f 58 273 274
f 145 275 260
f 260 275 261
f 276 149 143
f 143 149 78
f 148 269 75
f 75 269 272
f 207 277 270
f 270 277 278
f 195 196 49
f 49 196 50
f 59 135 60
f 60 135 134
f 83 104 202
f 202 104 279
f 149 148 78
f 78 148 75
f 247 278 248
f 248 278 277
f 183 182 84
f 84 182 81
f 48 239 281
f 281 239 282
f 227 223 283
f 283 223 222
f 223 226 224
f 224 226 168
f 281 282 224
f 224 282 225
f 165 168 175
f 175 168 226
f 264 263 138
f 138 263 229
f 14 16 128
f 128 16 260
f 220 228 218
f 218 228 230
f 87 227 284
f 284 227 283
f 260 16 145
f 145 16 146
f 244 98 258
f 258 98 155
f 58 274 156
f 156 274 246
f 107 285 51
f 51 285 55
f 243 286 160
f 160 286 96
f 234 237 89
f 89 237 90
f 46 132 107
f 107 132 285
f 253 252 249
f 249 252 250
f 286 26 96
f 96 26 25
f 106 105 287
f 287 105 288
f 272 152 289
f 289 152 229
f 138 151 139
f 139 151 133
f 183 290 161
f 161 290 162
f 291 292 277
f 277 292 293
f 151 150 133
f 133 150 94
f 262 275 177
f 177 275 187
f 144 187 145
f 145 187 275
f 273 57 284
f 284 57 87
f 174 136 190
f 190 136 135
f 111 117 112
f 112 117 38
f 117 119 38
f 38 119 123
f 112 38 265
f 265 38 37
f 287 288 254
f 254 288 251
f 228 159 231
f 231 159 15
f 223 227 226
f 226 227 214
f 147 67 148
f 148 67 269
f 224 168 281
f 281 168 167
f 199 163 200
f 200 163 162
f 45 46 108
f 108 46 107
f 281 167 48
f 48 167 49
f 161 164 291
f 291 164 292
f 38 123 39
f 293 294 277
f 277 294 248
f 284 283 296
f 296 283 295
f 284 296 273
f 273 296 297
f 274 273 298
f 298 273 297
f 246 274 299
f 299 274 298
f 283 222 295
f 295 222 300
f 222 225 300
f 300 225 301
f 301 225 302
f 302 225 282
f 303 304 300
f 300 304 295
f 306 307 305
f 305 307 308
f 309 310 308
f 308 310 305
f 308 307 312
f 312 307 311
f 313 314 312
f 312 314 315
f 311 316 312
f 312 316 313
f 317 304 311
f 311 304 316
f 315 309 312
f 312 309 308
f 318 319 321
f 321 319 320
f 319 318 309
f 309 318 310
f 311 307 317
f 317 307 306
f 306 297 317
f 317 297 296
f 306 322 297
f 297 322 298
f 305 323 306
f 306 323 322
f 323 305 324
f 324 305 310
f 304 317 295
f 295 317 296
f 318 325 310
f 310 325 324
f 323 324 326
f 326 324 327
f 324 325 327
f 327 325 328
f 326 327 329
f 329 327 330
f 329 331 326
f 326 331 332
f 333 330 328
f 328 330 327
f 323 326 322
f 322 326 332
f 322 332 298
f 298 332 299
f 325 318 334
f 334 318 321
f 313 316 335
f 335 316 304
f 335 336 313
f 313 336 314
f 304 303 335
f 335 303 337
f 336 335 338
f 338 335 337
f 336 339 314
f 314 339 340
f 246 299 238
f 238 299 341
f 239 342 282
f 282 342 302
f 342 239 341
f 341 239 238
f 341 331 342
f 342 331 343
f 331 329 343
f 343 329 344
f 342 343 302
f 302 343 345
f 341 299 331
f 331 299 332
f 346 301 345
f 345 301 302
f 346 303 301
f 301 303 300
f 347 337 346
f 346 337 303
f 347 346 348
f 348 346 345
f 349 347 350
f 350 347 348
f 343 344 345
f 345 344 348
f 344 351 348
f 348 351 350
f 337 347 338
f 338 347 349
f 353 338 352
f 352 338 349
f 352 355 354
f 354 355 356
f 352 349 355
f 355 349 350
f 352 354 353
f 353 354 334
f 353 334 339
f 339 334 321
f 339 336 353
f 353 336 338
f 329 330 344
f 344 330 351
f 356 351 333
f 333 351 330
f 356 355 351
f 351 355 350
f 354 356 328
f 328 356 333
f 328 325 354
f 354 325 334
f 309 315 319
f 319 315 320
f 320 340 321
f 321 340 339
f 320 315 340
f 340 315 314
f 137 136 261
f 261 136 259
f 140 166 141
f 141 166 165
f 172 171 195
f 195 171 196
f 171 174 196
f 196 174 190
f 178 177 264
f 264 177 187
f 172 195 140
f 140 195 166
f 137 261 262
f 262 261 275
f 178 264 141
f 141 264 138
f 262 177 213
f 213 177 176
f 136 174 259
f 259 174 173
f 358 359 357
f 357 359 360
f 362 363 361
f 361 363 364
f 361 364 365
f 365 364 366
f 367 368 370
f 370 368 369
f 76 371 247
f 247 371 372
f 373 374 362
f 362 374 363
f 376 377 375
f 375 377 378
f 289 229 380
f 380 229 379
f 381 379 263
f 263 379 229
f 383 384 382
f 382 384 385
f 386 368 374
f 374 368 363
f 76 289 371
f 371 289 380
f 377 376 359
f 359 376 387
f 388 386 360
f 360 386 374
f 389 383 366
f 366 383 390
f 392 393 391
f 391 393 394
f 383 382 390
f 390 382 395
f 396 365 390
f 390 365 366
f 389 366 367
f 367 366 364
f 357 397 358
f 358 397 398
f 373 399 357
f 357 399 397
f 389 367 400
f 400 367 370
f 382 385 375
f 375 385 372
f 357 360 373
f 373 360 374
f 361 401 362
f 362 401 402
f 387 388 359
f 359 388 360
f 363 368 364
f 364 368 367
f 358 398 403
f 403 398 404
f 396 392 405
f 405 392 391
f 392 395 393
f 393 395 378
f 393 403 394
f 394 403 404
f 375 378 382
f 382 378 395
f 365 396 406
f 406 396 405
f 362 402 373
f 373 402 399
f 271 270 400
f 400 270 384
f 401 361 406
f 406 361 365
f 381 369 386
f 386 369 368
f 392 396 395
f 395 396 390
f 393 378 403
f 403 378 377
f 403 377 358
f 358 377 359
f 406 405 408
f 408 405 407
f 406 408 401
f 401 408 409
f 401 409 402
f 402 409 410
f 402 410 399
f 399 410 411
f 405 391 407
f 407 391 412
f 391 394 412
f 412 394 413
f 394 404 413
f 413 404 414
f 415 416 412
f 412 416 407
f 418 419 417
f 417 419 420
f 421 422 418
f 418 422 419
f 419 422 424
f 424 422 423
f 425 426 424
f 424 426 427
f 423 428 424
f 424 428 425
f 427 420 424
f 424 420 419
f 420 429 417
f 417 429 430
f 423 422 431
f 431 422 421
f 421 409 431
f 431 409 408
f 421 432 409
f 409 432 410
f 418 433 421
f 421 433 432
f 434 433 417
f 417 433 418
f 431 416 423
f 423 416 428
f 416 431 407
f 407 431 408
f 435 434 430
f 430 434 417
f 433 434 436
f 436 434 437
f 434 435 437
f 437 435 438
f 436 437 439
f 439 437 440
f 439 441 436
f 436 441 442
f 438 443 437
f 437 443 440
f 436 442 433
f 433 442 432
f 432 442 410
f 410 442 411
f 435 430 445
f 445 430 444
f 430 429 444
f 444 429 446
f 425 428 447
f 447 428 416
f 426 425 448
f 448 425 447
f 416 415 447
f 447 415 449
f 447 449 448
f 448 449 450
f 451 452 448
f 448 452 426
f 446 452 444
f 444 452 451
f 399 411 397
f 397 411 453
f 398 454 404
f 404 454 414
f 454 398 453
f 453 398 397
f 453 441 454
f 454 441 455
f 441 439 455
f 455 439 456
f 454 455 414
f 414 455 457
f 441 453 442
f 442 453 411
f 458 413 457
f 457 413 414
f 458 415 413
f 413 415 412
f 458 459 415
f 415 459 449
f 459 458 460
f 460 458 457
f 461 459 462
f 462 459 460
f 455 456 457
f 457 456 460
f 456 463 460
f 460 463 462
f 459 461 449
f 449 461 450
f 465 450 464
f 464 450 461
f 464 467 466
f 466 467 468
f 464 461 467
f 467 461 462
f 464 466 465
f 465 466 445
f 465 445 451
f 451 445 444
f 451 448 465
f 465 448 450
f 439 440 456
f 456 440 463
f 468 463 443
f 443 463 440
f 468 467 463
f 463 467 462
f 466 468 438
f 438 468 443
f 438 435 466
f 466 435 445
f 420 427 429
f 429 427 446
f 446 427 452
f 452 427 426
f 370 369 188
f 188 369 186
f 371 376 372
f 372 376 375
f 380 379 387
f 387 379 388
f 379 381 388
f 388 381 386
f 385 384 278
f 278 384 270
f 380 387 371
f 371 387 376
f 400 370 271
f 271 370 188
f 385 278 372
f 372 278 247
f 400 384 389
f 389 384 383
f 369 381 186
f 186 381 263
f 221 271 144
f 144 271 188
f 221 19 207
f 207 19 22
f 19 18 22
f 22 18 23
f 18 219 23
f 23 219 208
f 469 470 472
f 472 470 471
f 474 475 473
f 473 475 476
f 473 476 477
f 477 476 478
f 480 481 479
f 479 481 482
f 483 484 474
f 474 484 475
f 486 487 485
f 485 487 488
f 489 490 77
f 77 490 142
f 491 489 248
f 248 489 77
f 493 494 492
f 492 494 495
f 496 480 484
f 484 480 475
f 486 497 487
f 487 497 471
f 498 496 472
f 472 496 484
f 499 493 478
f 478 493 500
f 501 502 504
f 504 502 503
f 493 492 500
f 500 492 505
f 506 477 500
f 500 477 478
f 499 478 479
f 479 478 476
f 469 507 470
f 470 507 508
f 483 509 469
f 469 509 507
f 479 482 499
f 499 482 510
f 492 495 485
f 485 495 511
f 483 469 484
f 484 469 472
f 473 512 474
f 474 512 513
f 497 498 471
f 471 498 472
f 475 480 476
f 476 480 479
f 470 508 514
f 514 508 515
f 506 502 516
f 516 502 501
f 503 502 488
f 488 502 505
f 514 515 503
f 503 515 504
f 485 488 492
f 492 488 505
f 477 506 517
f 517 506 516
f 474 513 483
f 483 513 509
f 510 292 494
f 494 292 164
f 512 473 517
f 517 473 477
f 491 481 496
f 496 481 480
f 502 506 505
f 505 506 500
f 503 488 514
f 514 488 487
f 514 487 470
f 470 487 471
f 517 516 519
f 519 516 518
f 517 519 512
f 512 519 520
f 512 520 513
f 513 520 521
f 513 521 509
f 509 521 522
f 516 501 518
f 518 501 523
f 501 504 523
f 523 504 524
f 524 504 525
f 525 504 515
f 526 527 523
f 523 527 518
f 529 530 528
f 528 530 531
f 532 533 529
f 529 533 530
f 530 533 535
f 535 533 534
f 536 537 535
f 535 537 538
f 534 539 535
f 535 539 536
f 538 531 535
f 535 531 530
f 540 541 531
f 531 541 528
f 533 532 534
f 534 532 542
f 532 520 542
f 542 520 519
f 532 543 520
f 520 543 521
f 529 544 532
f 532 544 543
f 544 529 545
f 545 529 528
f 534 542 539
f 539 542 527
f 527 542 518
f 518 542 519
f 541 546 528
f 528 546 545
f 547 544 548
f 548 544 545
f 546 549 545
f 545 549 548
f 550 547 551
f 551 547 548
f 547 550 553
f 553 550 552
f 549 554 548
f 548 554 551
f 544 547 543
f 543 547 553
f 543 553 521
f 521 553 522
f 546 541 556
f 556 541 555
f 541 540 555
f 555 540 557
f 536 539 558
f 558 539 527
f 537 536 559
f 559 536 558
f 527 526 558
f 558 526 560
f 559 558 561
f 561 558 560
f 559 562 537
f 537 562 563
f 557 563 555
f 555 563 562
f 509 522 507
f 507 522 564
f 508 565 515
f 515 565 525
f 565 508 564
f 564 508 507
f 564 552 565
f 565 552 566
f 552 550 566
f 566 550 567
f 565 566 525
f 525 566 568
f 564 522 552
f 552 522 553
f 569 524 568
f 568 524 525
f 569 526 524
f 524 526 523
f 570 560 569
f 569 560 526
f 570 569 571
f 571 569 568
f 572 570 573
f 573 570 571
f 566 567 568
f 568 567 571
f 567 574 571
f 571 574 573
f 570 572 560
f 560 572 561
f 576 561 575
f 575 561 572
f 575 578 577
f 577 578 579
f 575 572 578
f 578 572 573
f 575 577 576
f 576 577 556
f 576 556 562
f 562 556 555
f 562 559 576
f 576 559 561
f 550 551 567
f 567 551 574
f 579 574 554
f 554 574 551
f 579 578 574
f 574 578 573
f 579 554 577
f 577 554 549
f 549 546 577
f 577 546 556
f 531 538 540
f 540 538 557
f 557 538 563
f 563 538 537
f 481 294 482
f 482 294 293
f 580 486 511
f 511 486 485
f 490 489 497
f 497 489 498
f 489 491 498
f 498 491 496
f 163 495 164
f 164 495 494
f 580 490 486
f 486 490 497
f 482 293 510
f 510 293 292
f 495 163 511
f 511 163 199
f 494 493 510
f 510 493 499
f 481 491 294
f 294 491 248
f 582 583 581
f 581 583 584
f 586 587 585
f 585 587 588
f 585 588 589
f 589 588 590
f 592 593 591
f 591 593 594
f 595 596 598
f 598 596 597
f 599 600 586
f 586 600 587
f 601 602 604
f 604 602 603
f 605 606 608
f 608 606 607
f 609 607 200
f 200 607 606
f 610 611 613
f 613 611 612
f 600 614 587
f 587 614 592
f 596 605 597
f 597 605 608
f 602 615 603
f 603 615 583
f 616 614 584
f 584 614 600
f 611 618 617
f 617 618 590
f 620 621 619
f 619 621 622
f 610 623 611
f 611 623 618
f 624 589 618
f 618 589 590
f 617 590 591
f 591 590 588
f 581 625 582
f 582 625 626
f 599 627 581
f 581 627 625
f 591 594 617
f 617 594 628
f 601 610 598
f 598 610 613
f 581 584 599
f 599 584 600
f 585 629 586
f 586 629 630
f 615 616 583
f 583 616 584
f 587 592 588
f 588 592 591
f 582 626 631
f 631 626 632
f 624 620 633
f 633 620 619
f 621 620 604
f 604 620 623
f 631 632 621
f 621 632 622
f 610 601 623
f 623 601 604
f 589 624 634
f 634 624 633
f 586 630 599
f 599 630 627
f 203 202 628
f 628 202 612
f 629 585 634
f 634 585 589
f 609 593 614
f 614 593 592
f 620 624 623
f 623 624 618
f 631 621 603
f 603 621 604
f 582 631 583
f 583 631 603
f 634 633 636
f 636 633 635
f 634 636 629
f 629 636 637
f 629 637 630
f 630 637 638
f 630 638 627
f 627 638 639
f 633 619 635
f 635 619 640
f 619 622 640
f 640 622 641
f 641 622 642
f 642 622 632
f 644 635 643
f 643 635 640
f 645 646 648
f 648 646 647
f 649 650 646
f 646 650 647
f 647 650 652
f 652 650 651
f 652 653 655
f 655 653 654
f 651 656 652
f 652 656 653
f 655 648 652
f 652 648 647
f 648 657 645
f 645 657 658
f 650 649 651
f 651 649 659
f 649 637 659
f 659 637 636
f 649 660 637
f 637 660 638
f 661 660 646
f 646 660 649
f 662 661 645
f 645 661 646
f 651 659 656
f 656 659 644
f 644 659 635
f 635 659 636
f 663 662 658
f 658 662 645
f 664 661 665
f 665 661 662
f 663 666 662
f 662 666 665
f 667 664 668
f 668 664 665
f 664 667 670
f 670 667 669
f 666 671 665
f 665 671 668
f 661 664 660
f 660 664 670
f 660 670 638
f 638 670 639
f 658 672 663
f 663 672 673
f 658 657 672
f 672 657 674
f 653 656 675
f 675 656 644
f 653 675 654
f 654 675 676
f 675 644 677
f 677 644 643
f 676 675 678
f 678 675 677
f 679 680 676
f 676 680 654
f 674 680 672
f 672 680 679
f 627 639 625
f 625 639 681
f 626 682 632
f 632 682 642
f 681 682 625
f 625 682 626
f 669 683 681
f 681 683 682
f 667 684 669
f 669 684 683
f 682 683 642
f 642 683 685
f 681 639 669
f 669 639 670
f 686 641 685
f 685 641 642
f 641 686 640
f 640 686 643
f 686 687 643
f 643 687 677
f 687 686 688
f 688 686 685
f 689 687 690
f 690 687 688
f 683 684 685
f 685 684 688
f 684 691 688
f 688 691 690
f 687 689 677
f 677 689 678
f 693 678 692
f 692 678 689
f 692 695 694
f 694 695 696
f 692 689 695
f 695 689 690
f 692 694 693
f 693 694 673
f 693 673 679
f 679 673 672
f 679 676 693
f 693 676 678
f 684 667 691
f 691 667 668
f 696 691 671
f 671 691 668
f 696 695 691
f 691 695 690
f 694 696 666
f 666 696 671
f 666 663 694
f 694 663 673
f 648 655 657
f 657 655 674
f 674 655 680
f 680 655 654
f 593 162 594
f 594 162 290
f 598 597 601
f 601 597 602
f 615 608 616
f 616 608 607
f 607 609 616
f 616 609 614
f 697 595 613
f 613 595 598
f 597 608 602
f 602 608 615
f 594 290 628
f 628 290 203
f 628 612 617
f 617 612 611
f 593 609 162
f 162 609 200
f 105 29 698
f 698 29 699
f 268 126 701
f 701 126 700
f 126 125 700
f 700 125 702
f 252 703 250
f 250 703 704
f 32 268 705
f 705 268 701
f 288 105 706
f 706 105 698
f 29 32 699
f 699 32 705
f 707 251 706
f 706 251 288
f 250 704 125
f 125 704 702
f 703 252 707
f 707 252 251
f 706 708 707
f 707 708 709
f 707 709 703
f 703 709 710
f 703 710 704
f 704 710 711
f 704 711 702
f 702 711 712
f 706 698 708
f 708 698 713
f 698 699 713
f 713 699 714
f 699 705 714
f 714 705 715
f 717 708 716
f 716 708 713
f 719 720 718
f 718 720 721
f 722 723 719
f 719 723 720
f 724 725 723
f 723 725 720
f 724 726 725
f 725 726 727
f 728 721 725
f 725 721 720
f 721 728 729
f 729 728 730
f 729 731 721
f 721 731 718
f 724 723 732
f 732 723 722
f 722 710 732
f 732 710 709
f 722 733 710
f 710 733 711
f 719 734 722
f 722 734 733
f 734 719 735
f 735 719 718
f 724 732 726
f 726 732 717
f 717 732 708
f 708 732 709
f 731 736 718
f 718 736 735
f 737 734 738
f 738 734 735
f 736 739 735
f 735 739 738
f 740 737 741
f 741 737 738
f 737 740 743
f 743 740 742
f 739 744 738
f 738 744 741
f 734 737 733
f 733 737 743
f 733 743 711
f 711 743 712
f 736 731 746
f 746 731 745
f 731 729 745
f 745 729 730
f 727 726 747
f 747 726 717
f 748 727 749
f 749 727 747
f 747 717 750
f 750 717 716
f 749 747 751
f 751 747 750
f 749 752 748
f 748 752 753
f 730 753 745
f 745 753 752
f 728 725 748
f 748 725 727
f 730 728 753
f 753 728 748
f 700 702 754
f 754 702 712
f 705 701 715
f 715 701 755
f 754 755 700
f 700 755 701
f 742 756 754
f 754 756 755
f 740 757 742
f 742 757 756
f 755 756 715
f 715 756 758
f 754 712 742
f 742 712 743
f 759 714 758
f 758 714 715
f 714 759 713
f 713 759 716
f 759 760 716
f 716 760 750
f 760 759 761
f 761 759 758
f 762 760 763
f 763 760 761
f 756 757 758
f 758 757 761
f 757 764 761
f 761 764 763
f 760 762 750
f 750 762 751
f 766 751 765
f 765 751 762
f 767 765 769
f 769 765 768
f 765 762 768
f 768 762 763
f 765 767 766
f 766 767 746
f 766 746 752
f 752 746 745
f 752 749 766
f 766 749 751
f 757 740 764
f 764 740 741
f 769 764 744
f 744 764 741
f 769 768 764
f 764 768 763
f 767 769 739
f 739 769 744
f 739 736 767
f 767 736 746
f 219 217 208
f 208 217 209
f 209 217 210
f 210 217 193
f 198 580 199
f 199 580 511
f 76 75 289
f 289 75 272
f 277 207 291
f 291 207 184
f 290 183 203
f 203 183 84
f 490 580 142
f 142 580 198
f 142 198 143
f 143 198 197
f 149 276 72
f 72 276 73
f 104 103 279
f 279 103 770
f 770 596 279
f 279 596 595
f 605 596 771
f 771 596 770
f 771 770 772
f 772 770 103
f 772 103 773
f 773 103 102
f 155 774 101
f 101 774 102
f 773 102 97
f 97 102 774
f 775 773 100
f 100 773 97
f 773 775 772
f 772 775 776
f 772 776 771
f 771 776 777
f 200 606 197
f 197 606 777
f 189 71 778
f 778 71 74
f 97 774 98
f 98 774 155
f 183 161 184
f 184 161 291
f 777 276 197
f 197 276 143
f 777 606 771
f 771 606 605
f 613 612 697
f 697 612 202
f 595 697 279
f 279 697 202
f 73 276 776
f 776 276 777
f 776 775 73
f 73 775 74
f 100 778 775
f 775 778 74
f 778 100 189
f 189 100 99
f 245 242 99
f 99 242 189
f 131 33 256
f 28 1 95
f 95 1 62
f 27 2 28
f 28 2 1
f 265 115 266
f 266 115 114
f 95 62 69
f 69 62 64
f 62 61 64
f 64 61 65
f 61 13 65
f 65 13 130
f 13 12 130
f 130 12 14
f 31 11 32
f 32 11 268
f 15 12 31
f 31 12 11
f 31 30 15
f 15 30 231
f 30 106 231
f 231 106 232
f 287 237 106
f 106 237 232
f 254 90 287
f 287 90 237
f 253 44 254
f 254 44 90
f 253 249 44
f 44 249 7
f 267 127 268
f 268 127 126
f 10 3 241
f 241 3 116
f 3 2 116
f 116 2 114
f 2 27 114
f 114 27 266
f 27 26 266
f 266 26 113
f 26 286 113
f 113 286 110
f 286 243 110
f 110 243 255
f 243 242 255
f 255 242 256
f 242 245 256
f 256 245 131
f 245 244 131
f 131 244 132
f 265 37 115
f 115 37 41
f 41 37 42
f 42 37 40
f 92 91 40
f 40 91 42
f 236 233 92
f 92 233 91
f 191 194 236
f 236 194 233
f 258 285 244
f 244 285 132
f 257 55 258
f 258 55 285
f 257 154 201
f 201 154 185
f 56 201 204
f 204 201 180
f 55 257 56
f 56 257 201
f 204 85 56
f 56 85 52
f 86 122 53
f 53 122 79
f 212 215 86
f 86 215 122
f 211 216 212
f 212 216 215
f 192 280 211
f 211 280 216
f 191 240 192
f 192 240 280
f 249 124 7
f 7 124 8
f 124 127 8
f 8 127 241
f 127 267 241
f 241 267 10
f 10 267 9
f 9 267 11
o hand_right
v -0.058068 0.094553 0.866465
v -0.068764 0.095542 0.867343
v -0.064613 0.085514 0.869162
v -0.054097 0.085286 0.866940
v -0.087588 0.083922 0.870417
v -0.095571 0.078419 0.862707
v -0.084897 0.067136 0.866294
v -0.080375 0.073575 0.873083
v -0.050341 0.078131 0.865520
v -0.060995 0.077947 0.870211
v -0.049653 0.075178 0.861012
v -0.038908 0.079028 0.852328
v -0.040733 0.079843 0.859403
v -0.030630 0.081658 0.850046
v -0.042858 0.083864 0.842749
v -0.028883 0.089245 0.844058
v -0.045200 0.114448 0.841483
v -0.047769 0.126572 0.847110
v -0.031293 0.125056 0.851484
v -0.030740 0.112344 0.846119
v -0.041088 0.140183 0.862108
v -0.034770 0.131909 0.856414
v -0.051086 0.134005 0.851052
v -0.056119 0.141097 0.856543
v -0.064995 0.109555 0.869044
v -0.075408 0.111426 0.868707
v -0.072752 0.106301 0.866974
v -0.063131 0.104467 0.867276
v -0.055316 0.065151 0.857235
v -0.057077 0.072530 0.846696
v -0.051099 0.074147 0.852227
v -0.054430 0.066814 0.862600
v -0.102917 0.119625 0.874867
v -0.113228 0.122667 0.866594
v -0.112680 0.117914 0.863113
v -0.103072 0.116492 0.871092
v -0.107371 0.096756 0.857295
v -0.112512 0.103574 0.851894
v -0.115327 0.100629 0.838686
v -0.108245 0.094208 0.841049
v -0.101550 0.087365 0.860857
v -0.103333 0.084615 0.847255
v -0.096321 0.075329 0.851279
v -0.085143 0.063518 0.857527
v -0.113540 0.134586 0.871502
v -0.106301 0.133830 0.878696
v 0.009908 0.079275 0.877244
v 0.009175 0.083921 0.880841
v 0.006012 0.084322 0.878677
v 0.007421 0.079736 0.875323
v -0.102905 0.151428 0.867487
v -0.099192 0.155402 0.858956
v -0.106453 0.156230 0.858716
v -0.110229 0.150949 0.865573
v -0.093226 0.151967 0.870018
v -0.089231 0.153528 0.859539
v 0.019879 0.081352 0.869336
v 0.016628 0.077896 0.871387
v 0.014273 0.079256 0.867502
v 0.016883 0.083380 0.865347
v -0.044381 0.084655 0.864305
v -0.048683 0.092816 0.867269
v -0.025747 0.085338 0.867029
v -0.035112 0.089590 0.866655
v -0.035236 0.083704 0.862337
v -0.027052 0.081450 0.861843
v -0.043024 0.110694 0.874744
v -0.054394 0.111699 0.872015
v -0.051743 0.106078 0.869577
v -0.039389 0.103160 0.872348
v -0.058579 0.122339 0.880486
v -0.046960 0.120767 0.882046
v -0.050744 0.127076 0.886578
v -0.058567 0.126516 0.885527
v -0.027022 0.115478 0.882356
v -0.020420 0.114933 0.882653
v -0.021324 0.117411 0.885522
v -0.028453 0.118671 0.884075
v -0.113361 0.157221 0.857330
v -0.116990 0.149982 0.862961
v -0.051135 0.153949 0.875958
v -0.059414 0.155117 0.883526
v -0.046475 0.156417 0.888938
v -0.040493 0.155170 0.878892
v -0.094661 0.153332 0.849809
v -0.101855 0.156519 0.849736
v 0.021812 0.087193 0.869895
v 0.018467 0.089288 0.866302
v -0.092027 0.079282 0.839357
v -0.081003 0.064370 0.848462
v -0.100022 0.091046 0.834210
v -0.105296 0.099556 0.830831
v -0.111768 0.104306 0.827814
v -0.031773 0.094192 0.870534
v -0.054017 0.100726 0.867837
v -0.066600 0.113769 0.871482
v -0.071605 0.135974 0.892531
v -0.081910 0.136002 0.890364
v -0.077010 0.127126 0.886689
v -0.068820 0.129268 0.888865
v -0.062759 0.150966 0.891943
v -0.062311 0.143359 0.895040
v -0.053609 0.144309 0.896798
v -0.051946 0.152081 0.894881
v -0.059106 0.060045 0.852921
v -0.063497 0.070548 0.842676
v -0.106218 0.144015 0.874352
v -0.112749 0.142322 0.870378
v -0.119693 0.143127 0.865516
v -0.089294 0.114237 0.871691
v -0.103220 0.114238 0.868566
v -0.102190 0.110338 0.866862
v -0.087856 0.112283 0.869536
v -0.080798 0.096563 0.869811
v -0.094309 0.095853 0.868251
v -0.075603 0.086193 0.872873
v -0.113607 0.111781 0.857825
v -0.121891 0.118981 0.858566
v -0.121492 0.112359 0.852557
v -0.122090 0.127783 0.862990
v -0.121428 0.136271 0.865775
v -0.108723 0.160682 0.846832
v -0.119767 0.107066 0.846167
v -0.074391 0.066643 0.874127
v -0.069208 0.060538 0.875139
v -0.063208 0.065520 0.874855
v -0.067247 0.071635 0.874153
v -0.020760 0.082994 0.849956
v -0.023938 0.079965 0.856522
v -0.034167 0.079830 0.856024
v -0.093456 0.122852 0.880803
v -0.096818 0.134700 0.883963
v -0.022084 0.090229 0.870214
v 0.012964 0.084954 0.862021
v 0.010360 0.080221 0.864430
v -0.005811 0.082069 0.856298
v -0.002503 0.087306 0.853383
v -0.011914 0.096143 0.869760
v -0.016236 0.091126 0.870546
v -0.012992 0.092204 0.870507
v -0.008942 0.097276 0.871033
v -0.026709 0.124034 0.889634
v -0.033186 0.124925 0.888164
v -0.017129 0.109218 0.853722
v -0.018798 0.099481 0.844152
v -0.029964 0.100833 0.841996
v -0.045906 0.116620 0.878348
v -0.035884 0.116314 0.881229
v -0.037136 0.119774 0.883272
v -0.028117 0.096947 0.872339
v -0.020016 0.095387 0.872166
v -0.023071 0.099585 0.873434
v -0.030428 0.101816 0.873837
v -0.071792 0.154890 0.878185
v -0.075485 0.150334 0.888340
v 0.012819 0.077123 0.874056
v 0.010501 0.077888 0.871182
v -0.056991 0.117448 0.875625
v -0.043878 0.102716 0.839534
v -0.068337 0.118020 0.874556
v -0.026835 0.141490 0.879317
v -0.028943 0.139414 0.887524
v -0.024313 0.136672 0.889878
v -0.020545 0.138103 0.884870
v 0.005019 0.096326 0.876533
v 0.003217 0.091408 0.878825
v 0.006796 0.090396 0.880137
v 0.009616 0.095263 0.878370
v -0.018006 0.085977 0.868359
v -0.018890 0.081348 0.863704
v -0.012490 0.082103 0.866438
v -0.012783 0.087199 0.869417
v -0.015537 0.080427 0.858158
v -0.009718 0.080294 0.861004
v 0.008604 0.098789 0.871641
v 0.012594 0.096632 0.865567
v -0.001774 0.099887 0.858570
v -0.003630 0.100271 0.866213
v -0.069915 0.142849 0.850210
v -0.073946 0.149875 0.857937
v -0.060176 0.148544 0.864338
v -0.046065 0.148536 0.870165
v -0.032901 0.146873 0.875529
v -0.028285 0.140332 0.866410
v -0.064601 0.153109 0.869639
v -0.011414 0.102716 0.865852
v -0.011166 0.102151 0.855378
v -0.011931 0.106172 0.860221
v -0.070195 0.122657 0.880140
v 0.006978 0.078404 0.868447
v -0.096514 0.119382 0.823807
v -0.094949 0.132171 0.827291
v -0.087332 0.128323 0.829525
v -0.089189 0.113670 0.826313
v 0.002534 0.084691 0.877651
v 0.003675 0.079589 0.873859
v -0.034164 0.129896 0.892588
v -0.027775 0.128610 0.893059
v -0.026330 0.131970 0.894000
v -0.032589 0.133779 0.896602
v -0.077519 0.152809 0.861783
v -0.038972 0.153314 0.894948
v -0.033767 0.152749 0.884971
v -0.085708 0.150813 0.852045
v -0.082131 0.145191 0.844834
v -0.091006 0.147363 0.841323
v -0.019926 0.127868 0.863361
v -0.065384 0.136791 0.845882
v -0.078884 0.139378 0.840972
v -0.089342 0.141705 0.836593
v -0.096661 0.144305 0.833453
v -0.097796 0.150149 0.839059
v 0.013893 0.091277 0.863048
v 0.017941 0.095354 0.869388
v -0.104968 0.154559 0.835554
v -0.103656 0.147349 0.829819
v -0.076216 0.131697 0.836591
v -0.073688 0.121438 0.832333
v -0.063346 0.129363 0.841716
v -0.059711 0.119103 0.837748
v -0.018882 0.122806 0.853721
v 0.025877 0.091379 0.884835
v 0.018401 0.095565 0.877609
v 0.013791 0.094125 0.880912
v 0.022483 0.091906 0.887531
v 0.013639 0.097403 0.874475
v 0.021199 0.093171 0.873113
v -0.058965 0.104262 0.835375
v -0.015602 0.099091 0.873329
v -0.075526 0.103724 0.830722
v -0.055096 0.086302 0.836704
v -0.068406 0.085130 0.834946
v -0.092976 0.101169 0.826677
v -0.084467 0.087187 0.831365
v -0.106702 0.112133 0.822480
v -0.099179 0.108085 0.824659
v -0.076808 0.073306 0.838670
v 0.015450 0.079091 0.886235
v 0.014866 0.084416 0.888470
v -0.103593 0.122839 0.820944
v -0.070680 0.077908 0.873718
v -0.080754 0.120628 0.878279
v -0.078756 0.117326 0.874080
v -0.087921 0.135585 0.888174
v -0.084224 0.125152 0.883969
v 0.018311 0.075932 0.882934
v -0.015831 0.117666 0.881670
v -0.017884 0.118223 0.882107
v -0.078819 0.060761 0.869324
v -0.073803 0.056069 0.870877
v -0.069185 0.051961 0.859115
v -0.073136 0.052232 0.865148
v -0.078964 0.057026 0.861474
v -0.075138 0.056962 0.854651
v -0.090057 0.115820 0.873776
v -0.090734 0.118498 0.876644
v -0.083324 0.153527 0.874163
v -0.086137 0.148645 0.884313
v -0.012696 0.083365 0.852967
v -0.017881 0.089826 0.845806
v -0.010066 0.089167 0.849917
v -0.002517 0.094340 0.853243
v -0.011081 0.100595 0.870961
v -0.009803 0.100042 0.864957
v -0.098108 0.103785 0.867655
v -0.084665 0.106347 0.868436
v -0.059582 0.073065 0.869878
v -0.057157 0.068008 0.870231
v -0.034281 0.108605 0.876420
v -0.011649 0.122824 0.868513
v -0.010369 0.118504 0.861006
v -0.025243 0.107358 0.877230
v 0.025777 0.078001 0.879518
v 0.021674 0.075655 0.881111
v -0.009942 0.096166 0.849378
v -0.040800 0.125613 0.888287
v -0.017040 0.126350 0.871332
v -0.012738 0.121968 0.875993
v -0.046538 0.150544 0.897689
v -0.102881 0.135036 0.824340
v 0.010414 0.089919 0.882929
v 0.016493 0.089242 0.889063
v 0.027774 0.089186 0.881616
v 0.027958 0.083887 0.878634
v -0.095736 0.145372 0.879963
v -0.077001 0.115008 0.871516
v -0.070384 0.062869 0.846519
v -0.064257 0.055409 0.854388
v -0.019763 0.106728 0.877602
v -0.030248 0.145425 0.884009
v -0.021148 0.137433 0.872827
v -0.014230 0.134340 0.879489
v -0.011802 0.127136 0.878727
v -0.012983 0.120622 0.881459
v 0.030175 0.087554 0.886698
v 0.030395 0.082275 0.883915
v 0.027970 0.076558 0.884652
v 0.023960 0.074518 0.885672
v 0.019822 0.075580 0.886760
v 0.028314 0.089880 0.890032
v 0.025051 0.090255 0.892212
v 0.018803 0.088640 0.891944
v 0.029089 0.088638 0.894757
v 0.032860 0.084914 0.894474
v 0.029823 0.071941 0.898164
v 0.030676 0.074293 0.892805
v 0.032090 0.075016 0.895031
v 0.032151 0.073530 0.899799
v 0.033326 0.073054 0.904819
v 0.030730 0.070916 0.903668
v 0.033011 0.079302 0.893420
v 0.033531 0.077920 0.899998
v 0.033335 0.082010 0.901096
v 0.034543 0.080500 0.906277
v 0.034971 0.076801 0.905447
v 0.033311 0.082647 0.896494
v 0.032990 0.079986 0.891125
v 0.031930 0.072105 0.907982
v 0.034138 0.073294 0.907618
v 0.035023 0.076383 0.908508
v 0.033404 0.075843 0.911055
v 0.025216 0.073200 0.890411
v 0.027278 0.071308 0.898383
v 0.027730 0.071690 0.904421
v 0.029255 0.072849 0.908612
v 0.024185 0.073050 0.900503
v 0.025524 0.073534 0.905125
v 0.026679 0.074974 0.908733
v 0.022112 0.076240 0.902498
v 0.024094 0.076212 0.906175
v 0.018542 0.078081 0.891545
v 0.020646 0.074928 0.889625
v 0.024991 0.076336 0.908636
v 0.031432 0.076640 0.911749
v 0.031721 0.085311 0.900585
v 0.032333 0.082739 0.907101
v 0.029766 0.086564 0.901244
v 0.030643 0.084323 0.907738
v 0.033616 0.080722 0.910826
v 0.034687 0.079314 0.908935
v 0.016775 0.079378 0.888414
v 0.016520 0.084954 0.890702
v 0.018053 0.084009 0.893431
v 0.021573 0.080880 0.903747
v 0.020131 0.087636 0.895019
v 0.025739 0.088984 0.896624
v 0.027289 0.086621 0.902939
v 0.024209 0.085300 0.903836
v 0.028039 0.084343 0.907749
v 0.025831 0.083021 0.907537
v 0.023845 0.079704 0.907357
v 0.028519 0.081536 0.910666
v 0.031481 0.081437 0.911115
v 0.028280 0.077772 0.911039
v 0.026742 0.081492 0.909773
v 0.026216 0.078528 0.909489
v 0.002392 0.103278 0.897069
v 0.000324 0.108871 0.899903
v 0.001891 0.109256 0.895981
v 0.003741 0.104612 0.893664
v 0.016679 0.104538 0.895149
v 0.011172 0.101140 0.895380
v 0.013227 0.103081 0.890097
v 0.017896 0.108094 0.889717
v 0.018426 0.111375 0.896583
v 0.018544 0.114893 0.890845
v 0.015518 0.109019 0.884071
v 0.010753 0.103678 0.885678
v -0.004670 0.104303 0.871162
v -0.001011 0.109544 0.868338
v -0.014689 0.113088 0.883136
v -0.012692 0.116667 0.882746
v 0.005886 0.101185 0.896024
v 0.007717 0.102457 0.891825
v 0.000063 0.117663 0.895622
v -0.001672 0.112469 0.896043
v 0.000607 0.113684 0.897916
v 0.003681 0.118290 0.898673
v -0.011199 0.103093 0.876706
v -0.013743 0.107918 0.879797
v -0.008059 0.102696 0.874260
v 0.004997 0.121908 0.893378
v 0.010865 0.122411 0.889585
v -0.002887 0.122745 0.874170
v -0.006900 0.122545 0.879301
v 0.006224 0.102010 0.888397
v -0.000324 0.106898 0.894758
v 0.001830 0.102940 0.891902
v 0.014540 0.116556 0.884974
v 0.014506 0.120385 0.895638
v 0.008517 0.112622 0.914038
v 0.008990 0.118410 0.903690
v 0.003947 0.116922 0.903655
v 0.003382 0.112184 0.914427
v 0.008826 0.120815 0.898057
v 0.014226 0.116845 0.901196
v -0.000489 0.099423 0.909735
v -0.002319 0.105054 0.912193
v 0.003046 0.096619 0.908745
v -0.000595 0.117176 0.869094
v 0.013300 0.099264 0.907408
v 0.007271 0.096289 0.907706
v 0.000197 0.113821 0.901910
v -0.000876 0.109515 0.914063
v 0.012606 0.110965 0.912577
v 0.015698 0.105775 0.908341
v 0.011987 0.107856 0.917591
v 0.014263 0.102548 0.914525
v 0.011579 0.096190 0.912815
v 0.005909 0.094506 0.911841
v 0.002082 0.095699 0.911749
v 0.008049 0.109915 0.918926
v 0.003042 0.110084 0.918840
v -0.001038 0.107919 0.916235
v 0.004553 0.107317 0.924377
v 0.008165 0.104470 0.924921
v -0.000843 0.088524 0.929213
v 0.002762 0.090396 0.924679
v 0.004036 0.091789 0.926559
v 0.000894 0.090097 0.930841
v 0.007751 0.092810 0.921346
v 0.007340 0.093790 0.923768
v 0.008732 0.098204 0.924566
v 0.004627 0.096055 0.928806
v 0.003897 0.100844 0.929602
v 0.001189 0.098866 0.934358
v 0.001975 0.094066 0.933885
v 0.007265 0.101266 0.926576
v -0.000940 0.089904 0.934004
v -0.003472 0.089254 0.934207
v 0.011151 0.098959 0.922293
v 0.004841 0.092688 0.915881
v 0.000017 0.089994 0.923233
v -0.004031 0.088923 0.928443
v -0.006174 0.090721 0.934023
v -0.003853 0.091763 0.922857
v -0.006613 0.090911 0.928249
v -0.007760 0.092680 0.932887
v -0.007096 0.095300 0.923141
v -0.008922 0.094476 0.928681
v -0.002147 0.098382 0.914042
v 0.000711 0.094522 0.914040
v -0.008725 0.094311 0.931352
v -0.002778 0.092655 0.937670
v -0.005942 0.093696 0.937018
v -0.001085 0.092804 0.936808
v 0.003064 0.102811 0.929676
v -0.000589 0.100254 0.934494
v 0.000764 0.104527 0.929570
v -0.002806 0.101277 0.934770
v -0.002591 0.097451 0.937811
v -0.001222 0.096413 0.937504
v -0.000697 0.099062 0.912182
v -0.002045 0.104269 0.914013
v -0.003253 0.103808 0.915503
v -0.007566 0.100403 0.924758
v -0.001801 0.107648 0.918133
v 0.001351 0.108323 0.922692
v -0.001737 0.105399 0.928445
v -0.005317 0.104083 0.926990
v -0.004615 0.102395 0.934144
v -0.006496 0.102188 0.931414
v -0.009041 0.098519 0.929500
v -0.006290 0.098997 0.936884
v -0.004275 0.098080 0.937819
v -0.007377 0.094816 0.935652
v -0.007592 0.099743 0.934268
v -0.008707 0.096406 0.933132
v -0.011287 0.114361 0.906467
v -0.013547 0.119244 0.908693
v -0.013626 0.120240 0.905695
v -0.010882 0.115756 0.903498
v 0.001523 0.115597 0.905904
v -0.002383 0.112511 0.905673
v -0.001826 0.114365 0.901281
v 0.002016 0.118075 0.900165
v 0.002746 0.120187 0.909192
v 0.003472 0.123875 0.901662
v 0.000955 0.120087 0.894944
v -0.002608 0.115709 0.897252
v -0.010594 0.119533 0.885287
v -0.006987 0.124819 0.883691
v -0.007146 0.112524 0.905792
v -0.006789 0.113970 0.902406
v -0.013657 0.128286 0.906775
v -0.015507 0.123795 0.906122
v -0.013264 0.125109 0.908012
v -0.010343 0.128425 0.909065
v -0.020424 0.118582 0.889060
v -0.023039 0.123618 0.891220
v -0.015618 0.117594 0.887718
v -0.008091 0.131745 0.905125
v -0.001973 0.131906 0.900951
v -0.012423 0.136050 0.890726
v -0.017688 0.134938 0.893780
v -0.007173 0.114371 0.899355
v -0.015492 0.118933 0.903849
v -0.012259 0.114994 0.901484
v 0.000777 0.126426 0.896387
v 0.000566 0.129013 0.906018
v -0.004661 0.121209 0.926786
v -0.004306 0.128516 0.912447
v -0.010138 0.127189 0.912199
v -0.009145 0.121548 0.926672
v -0.004910 0.130376 0.908985
v 0.000666 0.126096 0.911184
v -0.013599 0.109464 0.921102
v -0.014873 0.114701 0.922589
v -0.009849 0.107633 0.919599
v -0.007391 0.131805 0.885393
v -0.022628 0.130629 0.894532
v -0.002445 0.108386 0.920986
v -0.006462 0.107027 0.919832
v -0.012927 0.124222 0.910740
v -0.013171 0.119518 0.925146
v -0.000889 0.118696 0.925050
v 0.000606 0.113486 0.922098
v -0.002413 0.117193 0.930452
v -0.001180 0.111715 0.927938
v -0.003825 0.106659 0.926851
v -0.007867 0.105621 0.925299
v -0.011213 0.106390 0.924593
v -0.006263 0.119802 0.931663
v -0.010156 0.120028 0.930983
v -0.013185 0.118470 0.926994
v -0.008507 0.118952 0.935350
v -0.004949 0.115043 0.936851
v -0.013600 0.102312 0.943595
v -0.011025 0.103428 0.938558
v -0.010359 0.104255 0.939234
v -0.012396 0.103147 0.944510
v -0.006355 0.105321 0.933982
v -0.006854 0.105781 0.935929
v -0.005077 0.109286 0.936526
v -0.008275 0.108232 0.942032
v -0.009621 0.114086 0.941980
v -0.011845 0.112291 0.946178
v -0.010465 0.106922 0.946773
v -0.005911 0.113503 0.937998
v -0.013483 0.103528 0.947502
v -0.014455 0.101826 0.947730
v -0.003561 0.109847 0.934579
v -0.009518 0.103701 0.930552
v -0.013368 0.102422 0.937102
v -0.016254 0.101119 0.942138
v -0.017753 0.102357 0.946129
v -0.016647 0.103978 0.935877
v -0.018559 0.102969 0.940876
v -0.019841 0.103956 0.944528
v -0.018715 0.106514 0.935450
v -0.020133 0.105739 0.940115
v -0.014715 0.108538 0.926612
v -0.012471 0.105318 0.928121
v -0.020562 0.105753 0.943258
v -0.014248 0.105925 0.950272
v -0.018186 0.107077 0.949203
v -0.013118 0.106265 0.948988
v -0.010061 0.115804 0.941395
v -0.013289 0.114071 0.946828
v -0.012272 0.117326 0.940426
v -0.015479 0.115444 0.945833
v -0.014241 0.111138 0.949706
v -0.013409 0.110448 0.949146
v -0.013740 0.109486 0.923966
v -0.014782 0.114350 0.924890
v -0.015712 0.113294 0.927099
v -0.019932 0.110932 0.936347
v -0.014378 0.117522 0.928992
v -0.012157 0.118950 0.934432
v -0.015299 0.116951 0.939186
v -0.018267 0.114886 0.938083
v -0.017785 0.115221 0.944217
v -0.019084 0.113800 0.942085
v -0.021293 0.109643 0.940692
v -0.018723 0.112084 0.946721
v -0.016688 0.112161 0.948868
v -0.020221 0.107768 0.946867
v -0.020053 0.111743 0.944632
v -0.021121 0.108449 0.944604
v -0.023894 0.127469 0.893376
v -0.030722 0.125729 0.916340
v -0.032193 0.129476 0.917850
v -0.031373 0.129858 0.917199
v -0.030477 0.126269 0.914615
v -0.019329 0.126203 0.914259
v -0.023438 0.123674 0.914622
v -0.022326 0.124759 0.910631
v -0.018571 0.127396 0.910216
v -0.017680 0.131080 0.915536
v -0.017455 0.132446 0.912303
v -0.019956 0.129614 0.906680
v -0.023604 0.126604 0.906838
v -0.029364 0.135979 0.892865
v -0.027434 0.141019 0.891710
v -0.042070 0.147919 0.902062
v -0.044828 0.142947 0.900821
v -0.039511 0.141304 0.907771
v -0.037334 0.145609 0.907702
v -0.027452 0.123880 0.915305
v -0.027226 0.124345 0.911975
v -0.028445 0.138824 0.918848
v -0.031467 0.134898 0.918085
v -0.031338 0.133743 0.918831
v -0.029058 0.137607 0.920428
v -0.042906 0.138120 0.899391
v -0.038819 0.135429 0.897208
v -0.037756 0.134398 0.901002
v -0.038811 0.136785 0.906005
v -0.033387 0.133340 0.897790
v -0.024451 0.140316 0.917241
v -0.019846 0.139103 0.913491
v -0.030819 0.150418 0.901291
v -0.034439 0.149226 0.904678
v -0.026908 0.125485 0.909771
v -0.032119 0.130794 0.915512
v -0.030349 0.127289 0.913714
v -0.018229 0.134669 0.908828
v -0.019862 0.137112 0.916434
v -0.025662 0.135446 0.927971
v -0.025080 0.138577 0.921210
v -0.029927 0.137393 0.921261
v -0.028939 0.135267 0.927666
v -0.024586 0.138666 0.919744
v -0.020271 0.136021 0.919538
v -0.032393 0.124167 0.922712
v -0.033235 0.129220 0.924362
v -0.029828 0.122076 0.921974
v -0.027862 0.146675 0.894507
v -0.022318 0.122976 0.922615
v -0.026472 0.121245 0.922369
v -0.032007 0.133352 0.919749
v -0.031916 0.133108 0.926290
v -0.021729 0.133063 0.926982
v -0.019561 0.128010 0.923941
v -0.022857 0.130884 0.930809
v -0.021106 0.125770 0.927686
v -0.024735 0.120998 0.926045
v -0.028293 0.120612 0.924605
v -0.031284 0.121699 0.924088
v -0.026661 0.133697 0.931336
v -0.029674 0.133885 0.930456
v -0.032410 0.132322 0.928102
v -0.027905 0.131828 0.934796
v -0.025408 0.127788 0.935633
v -0.034040 0.117701 0.938186
v -0.031991 0.118439 0.934624
v -0.031094 0.118905 0.935323
v -0.033072 0.117540 0.938735
v -0.027979 0.119713 0.931105
v -0.027968 0.120159 0.932797
v -0.025670 0.122949 0.933336
v -0.028451 0.121423 0.937663
v -0.028827 0.126293 0.939961
v -0.030937 0.124483 0.943122
v -0.030121 0.120279 0.940967
v -0.025893 0.126026 0.936361
v -0.033491 0.117208 0.941487
v -0.034724 0.116707 0.941960
v -0.024171 0.123298 0.931966
v -0.030897 0.119533 0.928145
v -0.034440 0.118076 0.933988
v -0.036350 0.117220 0.938680
v -0.036742 0.117769 0.942475
v -0.036130 0.119564 0.932695
v -0.038334 0.118382 0.938185
v -0.038612 0.119078 0.941817
v -0.037845 0.122436 0.932235
v -0.039245 0.120832 0.937649
v -0.035091 0.124531 0.926478
v -0.033438 0.121337 0.926914
v -0.038977 0.120537 0.940796
v -0.033400 0.119143 0.944755
v -0.036199 0.120216 0.944691
v -0.031967 0.119396 0.944076
v -0.029231 0.127643 0.940022
v -0.031947 0.125582 0.943845
v -0.030908 0.129501 0.939609
v -0.033900 0.126554 0.943581
v -0.033252 0.122722 0.945572
v -0.031781 0.122174 0.944496
v -0.033903 0.124602 0.924782
v -0.033882 0.128601 0.925806
v -0.034960 0.128654 0.927847
v -0.037903 0.126365 0.933345
v -0.033150 0.132059 0.930316
v -0.030392 0.132920 0.933020
v -0.033286 0.130144 0.938317
v -0.035980 0.129419 0.936270
v -0.035941 0.126662 0.942713
v -0.038038 0.126231 0.940498
v -0.039449 0.124049 0.938450
v -0.037075 0.123292 0.944143
v -0.035576 0.123048 0.945309
v -0.037788 0.121167 0.943661
v -0.038308 0.123564 0.942617
v -0.038838 0.122239 0.941803
v -0.038480 0.149788 0.901400
v -0.052012 0.052232 0.862972
v -0.050014 0.056361 0.866234
v -0.059132 0.055410 0.880032
v -0.053284 0.058122 0.877141
v -0.063760 0.050408 0.879135
v -0.065522 0.044285 0.870048
v -0.066343 0.047208 0.874870
v -0.050048 0.058366 0.871966
v -0.056125 0.047966 0.861474
v -0.062074 0.044437 0.863939
v -0.050193 0.042803 0.864990
v -0.056659 0.038913 0.867674
v -0.060786 0.038150 0.873418
v -0.062814 0.042897 0.878584
v -0.061869 0.046719 0.881891
v -0.047642 0.049279 0.867132
v -0.046609 0.053554 0.870475
v -0.048616 0.056405 0.876041
v -0.042061 0.046951 0.873203
v -0.040023 0.038372 0.878533
v -0.045089 0.029129 0.895112
v -0.049477 0.032193 0.890759
v -0.047164 0.031356 0.889193
v -0.043563 0.028130 0.893116
v -0.051056 0.033226 0.885407
v -0.048623 0.033030 0.885410
v -0.045272 0.034548 0.881574
v -0.041934 0.031833 0.885495
v -0.040639 0.036853 0.880897
v -0.037610 0.036068 0.883890
v -0.038469 0.029114 0.889154
v -0.040088 0.026148 0.894064
v -0.035645 0.027041 0.892554
v -0.040302 0.027343 0.897124
v -0.045743 0.033109 0.879212
v -0.056961 0.037287 0.885202
v -0.051871 0.034849 0.892086
v -0.046201 0.032215 0.897154
v -0.040413 0.030170 0.898912
v -0.052030 0.039183 0.893715
v -0.046016 0.036739 0.897487
v -0.040404 0.035309 0.898582
v -0.049734 0.043699 0.893718
v -0.044163 0.040312 0.896562
v -0.056696 0.049976 0.885139
v -0.059203 0.043700 0.885942
v -0.040609 0.037968 0.897351
v -0.034245 0.027604 0.895188
v -0.034399 0.030902 0.897061
v -0.036108 0.039053 0.882737
v -0.034069 0.033257 0.887049
v -0.032855 0.036149 0.887453
v -0.036084 0.043179 0.882416
v -0.032559 0.038929 0.888383
v -0.031515 0.031981 0.891446
v -0.033267 0.030174 0.889874
v -0.058578 0.052195 0.882614
v -0.053576 0.055894 0.879932
v -0.051932 0.053919 0.882238
v -0.045191 0.047887 0.890712
v -0.046442 0.054505 0.879375
v -0.042791 0.051298 0.875642
v -0.037035 0.046491 0.884137
v -0.040285 0.048643 0.887064
v -0.034268 0.041647 0.890272
v -0.036693 0.042890 0.891789
v -0.040592 0.042454 0.894840
v -0.033718 0.037812 0.894045
v -0.031621 0.035020 0.892824
v -0.035916 0.035480 0.897175
v -0.035793 0.039735 0.894084
v -0.037805 0.038590 0.896239
v -0.049134 0.143430 0.898056
v -0.047094 0.137120 0.896341
v -0.052868 0.138015 0.895454
v -0.061733 0.136969 0.894419
v -0.070730 0.142235 0.893187
v -0.060002 0.131233 0.890609
v -0.050789 0.132463 0.892131
v -0.042126 0.131399 0.893165
v -0.066035 0.125944 0.884232
f 780 781 779
f 779 781 782
f 783 784 786
f 786 784 785
f 787 782 788
f 788 782 781
f 790 791 789
f 789 791 787
f 792 790 794
f 794 790 793
f 796 797 795
f 795 797 798
f 800 801 799
f 799 801 802
f 804 805 803
f 803 805 806
f 808 809 807
f 807 809 810
f 811 812 814
f 814 812 813
f 815 816 818
f 818 816 817
f 819 820 784
f 784 820 821
f 784 821 785
f 785 821 822
f 823 812 824
f 824 812 811
f 826 827 825
f 825 827 828
f 830 831 829
f 829 831 832
f 834 830 833
f 833 830 829
f 836 837 835
f 835 837 838
f 839 840 782
f 782 840 779
f 842 843 841
f 841 843 844
f 846 847 845
f 845 847 848
f 850 851 849
f 849 851 852
f 854 855 853
f 853 855 856
f 831 857 832
f 832 857 858
f 860 861 859
f 859 861 862
f 863 864 830
f 830 864 831
f 835 838 865
f 865 838 866
f 867 868 821
f 821 868 822
f 821 820 867
f 867 820 869
f 818 817 870
f 870 817 871
f 872 848 842
f 842 848 847
f 791 839 787
f 787 839 782
f 803 806 847
f 847 806 873
f 874 803 846
f 846 803 847
f 876 877 875
f 875 877 878
f 879 880 882
f 882 880 881
f 884 808 883
f 883 808 807
f 829 832 885
f 885 832 886
f 832 858 886
f 886 858 887
f 889 890 888
f 888 890 891
f 893 783 892
f 892 783 894
f 893 819 783
f 783 819 784
f 814 813 889
f 889 813 895
f 813 896 895
f 895 896 897
f 812 898 813
f 813 898 896
f 812 823 898
f 898 823 899
f 903 904 902
f 902 904 905
f 906 907 792
f 792 907 908
f 811 909 824
f 824 909 910
f 911 872 841
f 841 872 842
f 912 913 915
f 915 913 914
f 917 918 916
f 916 918 919
f 855 920 856
f 856 920 921
f 922 923 798
f 798 923 924
f 926 927 925
f 925 927 850
f 929 930 928
f 928 930 931
f 860 879 861
f 861 879 882
f 879 860 933
f 933 860 932
f 934 935 836
f 836 935 837
f 936 846 925
f 925 846 845
f 937 924 793
f 793 924 794
f 846 936 874
f 874 936 938
f 907 844 908
f 908 844 843
f 940 941 939
f 939 941 942
f 944 945 943
f 943 945 946
f 948 949 947
f 947 949 950
f 952 949 951
f 951 949 948
f 954 955 953
f 953 955 956
f 958 959 957
f 957 959 802
f 960 961 799
f 799 961 962
f 859 963 860
f 860 963 932
f 964 965 966
f 966 965 922
f 936 849 938
f 938 849 967
f 968 913 935
f 935 913 837
f 947 950 917
f 917 950 918
f 925 850 936
f 936 850 849
f 970 971 969
f 969 971 972
f 945 944 827
f 827 944 973
f 974 968 828
f 828 968 935
f 975 976 978
f 978 976 977
f 799 802 960
f 960 802 959
f 924 937 798
f 798 937 795
f 960 959 859
f 859 959 963
f 979 963 958
f 958 963 959
f 980 981 861
f 861 981 862
f 983 984 982
f 982 984 863
f 985 800 962
f 962 800 799
f 957 802 986
f 986 802 801
f 986 987 957
f 957 987 983
f 987 988 983
f 983 988 984
f 990 984 989
f 989 984 988
f 957 983 958
f 958 983 982
f 991 954 866
f 866 954 992
f 864 863 990
f 990 863 984
f 971 995 996
f 995 997 996
f 996 997 998
f 997 796 998
f 998 796 795
f 797 999 798
f 798 999 922
f 1000 1001 1003
f 1003 1001 1002
f 953 1004 954
f 954 1004 992
f 1005 865 992
f 992 865 866
f 998 795 1006
f 1006 795 937
f 912 991 838
f 838 991 866
f 916 1007 929
f 929 1007 930
f 971 970 988
f 988 970 989
f 1008 972 996
f 996 972 971
f 1009 1010 1006
f 1006 1010 1008
f 1011 1012 869
f 869 1012 867
f 1013 1014 871
f 871 1014 870
f 1008 1010 1012
f 1012 1010 1015
f 825 1016 826
f 826 1016 1017
f 1018 969 1013
f 1013 969 1014
f 783 786 894
f 894 786 1019
f 1020 1021 967
f 967 1021 938
f 1022 1023 876
f 876 1023 877
f 934 1024 825
f 825 1024 1016
f 854 1025 855
f 855 1025 1026
f 1028 903 1027
f 1027 903 902
f 1030 1031 1029
f 1029 1031 1032
f 889 888 814
f 814 888 1033
f 1034 811 1033
f 1033 811 814
f 1035 1036 932
f 932 1036 933
f 841 947 911
f 911 947 917
f 844 948 841
f 841 948 947
f 951 948 907
f 907 948 844
f 907 906 951
f 951 906 1037
f 906 1038 1037
f 1037 1038 1039
f 991 912 1040
f 1040 912 915
f 1041 1042 964
f 964 1042 965
f 890 1043 891
f 891 1043 1044
f 789 1045 1046
f 1012 1011 1008
f 1008 1011 972
f 931 1047 848
f 848 1047 845
f 953 956 943
f 943 956 919
f 928 931 872
f 872 931 848
f 1049 999 1048
f 1048 999 985
f 1047 931 1050
f 1050 931 930
f 899 823 887
f 887 823 886
f 825 828 934
f 934 828 935
f 835 1051 836
f 836 1051 1052
f 923 1053 1038
f 1038 1053 1039
f 1054 927 921
f 921 927 856
f 926 1047 853
f 853 1047 1050
f 985 1055 1048
f 1048 1055 1056
f 973 974 827
f 827 974 828
f 837 913 838
f 838 913 912
f 861 882 980
f 980 882 1057
f 927 926 856
f 856 926 853
f 1025 1056 1026
f 1026 1056 1055
f 961 960 862
f 862 960 859
f 826 1017 1059
f 1059 1017 1060
f 1005 1001 1061
f 1061 1001 1000
f 1001 1004 1002
f 1002 1004 946
f 1059 1060 1002
f 1002 1060 1003
f 943 946 953
f 953 946 1004
f 1042 1041 916
f 916 1041 1007
f 792 794 906
f 906 794 1038
f 998 1006 996
f 996 1006 1008
f 865 1005 1062
f 1062 1005 1061
f 1038 794 923
f 923 794 924
f 1022 876 1036
f 1036 876 933
f 836 1052 934
f 934 1052 1024
f 885 1063 829
f 829 1063 833
f 1021 1064 938
f 938 1064 874
f 1012 1015 867
f 867 1015 868
f 824 910 885
f 885 910 1063
f 1031 1030 1027
f 1027 1030 1028
f 1064 804 874
f 874 804 803
f 884 883 1065
f 1065 883 1066
f 1050 930 1067
f 1067 930 1007
f 916 929 917
f 917 929 911
f 961 1068 939
f 939 1068 940
f 1069 1070 1055
f 1055 1070 1071
f 929 928 911
f 911 928 872
f 1040 1053 955
f 955 1053 965
f 922 965 923
f 923 965 1053
f 1051 835 1062
f 1062 835 865
f 952 914 968
f 968 914 913
f 889 895 890
f 890 895 816
f 895 897 816
f 816 897 901
f 890 816 1043
f 1043 816 815
f 1065 1066 1032
f 1032 1066 1029
f 1006 937 1009
f 1009 937 793
f 1001 1005 1004
f 1004 1005 992
f 925 845 926
f 926 845 1047
f 1002 946 1059
f 1059 946 945
f 977 941 978
f 978 941 940
f 823 824 886
f 886 824 885
f 1059 945 826
f 826 945 827
f 939 942 1069
f 1069 942 1070
f 816 901 817
f 1071 1072 1055
f 1055 1072 1026
f 1062 1061 1074
f 1074 1061 1073
f 1062 1074 1051
f 1051 1074 1075
f 1052 1051 1076
f 1076 1051 1075
f 1024 1052 1077
f 1077 1052 1076
f 1061 1000 1073
f 1073 1000 1078
f 1000 1003 1078
f 1078 1003 1079
f 1079 1003 1080
f 1080 1003 1060
f 1081 1082 1078
f 1078 1082 1073
f 1084 1085 1083
f 1083 1085 1086
f 1087 1088 1086
f 1086 1088 1083
f 1086 1085 1090
f 1090 1085 1089
f 1091 1092 1090
f 1090 1092 1093
f 1089 1094 1090
f 1090 1094 1091
f 1095 1082 1089
f 1089 1082 1094
f 1093 1087 1090
f 1090 1087 1086
f 1096 1097 1099
f 1099 1097 1098
f 1097 1096 1087
f 1087 1096 1088
f 1089 1085 1095
f 1095 1085 1084
f 1084 1075 1095
f 1095 1075 1074
f 1084 1100 1075
f 1075 1100 1076
f 1083 1101 1084
f 1084 1101 1100
f 1101 1083 1102
f 1102 1083 1088
f 1082 1095 1073
f 1073 1095 1074
f 1096 1103 1088
f 1088 1103 1102
f 1101 1102 1104
f 1104 1102 1105
f 1102 1103 1105
f 1105 1103 1106
f 1104 1105 1107
f 1107 1105 1108
f 1107 1109 1104
f 1104 1109 1110
f 1111 1108 1106
f 1106 1108 1105
f 1101 1104 1100
f 1100 1104 1110
f 1100 1110 1076
f 1076 1110 1077
f 1103 1096 1112
f 1112 1096 1099
f 1091 1094 1113
f 1113 1094 1082
f 1113 1114 1091
f 1091 1114 1092
f 1082 1081 1113
f 1113 1081 1115
f 1114 1113 1116
f 1116 1113 1115
f 1114 1117 1092
f 1092 1117 1118
f 1024 1077 1016
f 1016 1077 1119
f 1017 1120 1060
f 1060 1120 1080
f 1120 1017 1119
f 1119 1017 1016
f 1119 1109 1120
f 1120 1109 1121
f 1109 1107 1121
f 1121 1107 1122
f 1120 1121 1080
f 1080 1121 1123
f 1119 1077 1109
f 1109 1077 1110
f 1124 1079 1123
f 1123 1079 1080
f 1124 1081 1079
f 1079 1081 1078
f 1125 1115 1124
f 1124 1115 1081
f 1125 1124 1126
f 1126 1124 1123
f 1127 1125 1128
f 1128 1125 1126
f 1121 1122 1123
f 1123 1122 1126
f 1122 1129 1126
f 1126 1129 1128
f 1115 1125 1116
f 1116 1125 1127
f 1131 1116 1130
f 1130 1116 1127
f 1130 1133 1132
f 1132 1133 1134
f 1130 1127 1133
f 1133 1127 1128
f 1130 1132 1131
f 1131 1132 1112
f 1131 1112 1117
f 1117 1112 1099
f 1117 1114 1131
f 1131 1114 1116
f 1107 1108 1122
f 1122 1108 1129
f 1134 1129 1111
f 1111 1129 1108
f 1134 1133 1129
f 1129 1133 1128
f 1132 1134 1106
f 1106 1134 1111
f 1106 1103 1132
f 1132 1103 1112
f 1087 1093 1097
f 1097 1093 1098
f 1098 1118 1099
f 1099 1118 1117
f 1098 1093 1118
f 1118 1093 1092
f 915 914 1039
f 1039 914 1037
f 918 944 919
f 919 944 943
f 950 949 973
f 973 949 974
f 949 952 974
f 974 952 968
f 956 955 1042
f 1042 955 965
f 950 973 918
f 918 973 944
f 915 1039 1040
f 1040 1039 1053
f 956 1042 919
f 919 1042 916
f 1040 955 991
f 991 955 954
f 914 952 1037
f 1037 952 951
f 1136 1137 1135
f 1135 1137 1138
f 1140 1141 1139
f 1139 1141 1142
f 1139 1142 1143
f 1143 1142 1144
f 1145 1146 1148
f 1148 1146 1147
f 854 1149 1025
f 1025 1149 1150
f 1151 1152 1140
f 1140 1152 1141
f 1154 1155 1153
f 1153 1155 1156
f 1067 1007 1158
f 1158 1007 1157
f 1159 1157 1041
f 1041 1157 1007
f 1161 1162 1160
f 1160 1162 1163
f 1164 1146 1152
f 1152 1146 1141
f 854 1067 1149
f 1149 1067 1158
f 1155 1154 1137
f 1137 1154 1165
f 1166 1164 1138
f 1138 1164 1152
f 1167 1161 1144
f 1144 1161 1168
f 1170 1171 1169
f 1169 1171 1172
f 1161 1160 1168
f 1168 1160 1173
f 1174 1143 1168
f 1168 1143 1144
f 1167 1144 1145
f 1145 1144 1142
f 1135 1175 1136
f 1136 1175 1176
f 1151 1177 1135
f 1135 1177 1175
f 1167 1145 1178
f 1178 1145 1148
f 1160 1163 1153
f 1153 1163 1150
f 1135 1138 1151
f 1151 1138 1152
f 1139 1179 1140
f 1140 1179 1180
f 1165 1166 1137
f 1137 1166 1138
f 1141 1146 1142
f 1142 1146 1145
f 1136 1176 1181
f 1181 1176 1182
f 1174 1170 1183
f 1183 1170 1169
f 1170 1173 1171
f 1171 1173 1156
f 1171 1181 1172
f 1172 1181 1182
f 1153 1156 1160
f 1160 1156 1173
f 1143 1174 1184
f 1184 1174 1183
f 1140 1180 1151
f 1151 1180 1177
f 1049 1048 1178
f 1178 1048 1162
f 1179 1139 1184
f 1184 1139 1143
f 1159 1147 1164
f 1164 1147 1146
f 1170 1174 1173
f 1173 1174 1168
f 1171 1156 1181
f 1181 1156 1155
f 1181 1155 1136
f 1136 1155 1137
f 1184 1183 1186
f 1186 1183 1185
f 1184 1186 1179
f 1179 1186 1187
f 1179 1187 1180
f 1180 1187 1188
f 1180 1188 1177
f 1177 1188 1189
f 1183 1169 1185
f 1185 1169 1190
f 1169 1172 1190
f 1190 1172 1191
f 1172 1182 1191
f 1191 1182 1192
f 1193 1194 1190
f 1190 1194 1185
f 1196 1197 1195
f 1195 1197 1198
f 1199 1200 1196
f 1196 1200 1197
f 1197 1200 1202
f 1202 1200 1201
f 1203 1204 1202
f 1202 1204 1205
f 1201 1206 1202
f 1202 1206 1203
f 1205 1198 1202
f 1202 1198 1197
f 1198 1207 1195
f 1195 1207 1208
f 1201 1200 1209
f 1209 1200 1199
f 1199 1187 1209
f 1209 1187 1186
f 1199 1210 1187
f 1187 1210 1188
f 1196 1211 1199
f 1199 1211 1210
f 1212 1211 1195
f 1195 1211 1196
f 1209 1194 1201
f 1201 1194 1206
f 1194 1209 1185
f 1185 1209 1186
f 1213 1212 1208
f 1208 1212 1195
f 1211 1212 1214
f 1214 1212 1215
f 1212 1213 1215
f 1215 1213 1216
f 1214 1215 1217
f 1217 1215 1218
f 1217 1219 1214
f 1214 1219 1220
f 1216 1221 1215
f 1215 1221 1218
f 1214 1220 1211
f 1211 1220 1210
f 1210 1220 1188
f 1188 1220 1189
f 1213 1208 1223
f 1223 1208 1222
f 1208 1207 1222
f 1222 1207 1224
f 1203 1206 1225
f 1225 1206 1194
f 1204 1203 1226
f 1226 1203 1225
f 1194 1193 1225
f 1225 1193 1227
f 1225 1227 1226
f 1226 1227 1228
f 1229 1230 1226
f 1226 1230 1204
f 1224 1230 1222
f 1222 1230 1229
f 1177 1189 1175
f 1175 1189 1231
f 1176 1232 1182
f 1182 1232 1192
f 1232 1176 1231
f 1231 1176 1175
f 1231 1219 1232
f 1232 1219 1233
f 1219 1217 1233
f 1233 1217 1234
f 1232 1233 1192
f 1192 1233 1235
f 1219 1231 1220
f 1220 1231 1189
f 1236 1191 1235
f 1235 1191 1192
f 1236 1193 1191
f 1191 1193 1190
f 1236 1237 1193
f 1193 1237 1227
f 1237 1236 1238
f 1238 1236 1235
f 1239 1237 1240
f 1240 1237 1238
f 1233 1234 1235
f 1235 1234 1238
f 1234 1241 1238
f 1238 1241 1240
f 1237 1239 1227
f 1227 1239 1228
f 1243 1228 1242
f 1242 1228 1239
f 1242 1245 1244
f 1244 1245 1246
f 1242 1239 1245
f 1245 1239 1240
f 1242 1244 1243
f 1243 1244 1223
f 1243 1223 1229
f 1229 1223 1222
f 1229 1226 1243
f 1243 1226 1228
f 1217 1218 1234
f 1234 1218 1241
f 1246 1241 1221
f 1221 1241 1218
f 1246 1245 1241
f 1241 1245 1240
f 1244 1246 1216
f 1216 1246 1221
f 1216 1213 1244
f 1244 1213 1223
f 1198 1205 1207
f 1207 1205 1224
f 1224 1205 1230
f 1230 1205 1204
f 1148 1147 966
f 966 1147 964
f 1149 1154 1150
f 1150 1154 1153
f 1158 1157 1165
f 1165 1157 1166
f 1157 1159 1166
f 1166 1159 1164
f 1163 1162 1056
f 1056 1162 1048
f 1158 1165 1149
f 1149 1165 1154
f 1178 1148 1049
f 1049 1148 966
f 1163 1056 1150
f 1150 1056 1025
f 1178 1162 1167
f 1167 1162 1161
f 1147 1159 964
f 964 1159 1041
f 999 1049 922
f 922 1049 966
f 999 797 985
f 985 797 800
f 797 796 800
f 800 796 801
f 796 997 801
f 801 997 986
f 1247 1248 1250
f 1250 1248 1249
f 1252 1253 1251
f 1251 1253 1254
f 1251 1254 1255
f 1255 1254 1256
f 1258 1259 1257
f 1257 1259 1260
f 1261 1262 1252
f 1252 1262 1253
f 1264 1265 1263
f 1263 1265 1266
f 1267 1268 855
f 855 1268 920
f 1269 1267 1026
f 1026 1267 855
f 1271 1272 1270
f 1270 1272 1273
f 1274 1258 1262
f 1262 1258 1253
f 1264 1275 1265
f 1265 1275 1249
f 1276 1274 1250
f 1250 1274 1262
f 1277 1271 1256
f 1256 1271 1278
f 1279 1280 1282
f 1282 1280 1281
f 1271 1270 1278
f 1278 1270 1283
f 1284 1255 1278
f 1278 1255 1256
f 1277 1256 1257
f 1257 1256 1254
f 1247 1285 1248
f 1248 1285 1286
f 1261 1287 1247
f 1247 1287 1285
f 1257 1260 1277
f 1277 1260 1288
f 1270 1273 1263
f 1263 1273 1289
f 1261 1247 1262
f 1262 1247 1250
f 1251 1290 1252
f 1252 1290 1291
f 1275 1276 1249
f 1249 1276 1250
f 1253 1258 1254
f 1254 1258 1257
f 1248 1286 1292
f 1292 1286 1293
f 1284 1280 1294
f 1294 1280 1279
f 1281 1280 1266
f 1266 1280 1283
f 1292 1293 1281
f 1281 1293 1282
f 1263 1266 1270
f 1270 1266 1283
f 1255 1284 1295
f 1295 1284 1294
f 1252 1291 1261
f 1261 1291 1287
f 1288 1070 1272
f 1272 1070 942
f 1290 1251 1295
f 1295 1251 1255
f 1269 1259 1274
f 1274 1259 1258
f 1280 1284 1283
f 1283 1284 1278
f 1281 1266 1292
f 1292 1266 1265
f 1292 1265 1248
f 1248 1265 1249
f 1295 1294 1297
f 1297 1294 1296
f 1295 1297 1290
f 1290 1297 1298
f 1290 1298 1291
f 1291 1298 1299
f 1291 1299 1287
f 1287 1299 1300
f 1294 1279 1296
f 1296 1279 1301
f 1279 1282 1301
f 1301 1282 1302
f 1302 1282 1303
f 1303 1282 1293
f 1304 1305 1301
f 1301 1305 1296
f 1307 1308 1306
f 1306 1308 1309
f 1310 1311 1307
f 1307 1311 1308
f 1308 1311 1313
f 1313 1311 1312
f 1314 1315 1313
f 1313 1315 1316
f 1312 1317 1313
f 1313 1317 1314
f 1316 1309 1313
f 1313 1309 1308
f 1318 1319 1309
f 1309 1319 1306
f 1311 1310 1312
f 1312 1310 1320
f 1310 1298 1320
f 1320 1298 1297
f 1310 1321 1298
f 1298 1321 1299
f 1307 1322 1310
f 1310 1322 1321
f 1322 1307 1323
f 1323 1307 1306
f 1312 1320 1317
f 1317 1320 1305
f 1305 1320 1296
f 1296 1320 1297
f 1319 1324 1306
f 1306 1324 1323
f 1325 1322 1326
f 1326 1322 1323
f 1324 1327 1323
f 1323 1327 1326
f 1328 1325 1329
f 1329 1325 1326
f 1325 1328 1331
f 1331 1328 1330
f 1327 1332 1326
f 1326 1332 1329
f 1322 1325 1321
f 1321 1325 1331
f 1321 1331 1299
f 1299 1331 1300
f 1324 1319 1334
f 1334 1319 1333
f 1319 1318 1333
f 1333 1318 1335
f 1314 1317 1336
f 1336 1317 1305
f 1315 1314 1337
f 1337 1314 1336
f 1305 1304 1336
f 1336 1304 1338
f 1337 1336 1339
f 1339 1336 1338
f 1337 1340 1315
f 1315 1340 1341
f 1335 1341 1333
f 1333 1341 1340
f 1287 1300 1285
f 1285 1300 1342
f 1286 1343 1293
f 1293 1343 1303
f 1343 1286 1342
f 1342 1286 1285
f 1342 1330 1343
f 1343 1330 1344
f 1330 1328 1344
f 1344 1328 1345
f 1343 1344 1303
f 1303 1344 1346
f 1342 1300 1330
f 1330 1300 1331
f 1347 1302 1346
f 1346 1302 1303
f 1347 1304 1302
f 1302 1304 1301
f 1348 1338 1347
f 1347 1338 1304
f 1348 1347 1349
f 1349 1347 1346
f 1350 1348 1351
f 1351 1348 1349
f 1344 1345 1346
f 1346 1345 1349
f 1345 1352 1349
f 1349 1352 1351
f 1348 1350 1338
f 1338 1350 1339
f 1354 1339 1353
f 1353 1339 1350
f 1353 1356 1355
f 1355 1356 1357
f 1353 1350 1356
f 1356 1350 1351
f 1353 1355 1354
f 1354 1355 1334
f 1354 1334 1340
f 1340 1334 1333
f 1340 1337 1354
f 1354 1337 1339
f 1328 1329 1345
f 1345 1329 1352
f 1357 1352 1332
f 1332 1352 1329
f 1357 1356 1352
f 1352 1356 1351
f 1357 1332 1355
f 1355 1332 1327
f 1327 1324 1355
f 1355 1324 1334
f 1309 1316 1318
f 1318 1316 1335
f 1335 1316 1341
f 1341 1316 1315
f 1259 1072 1260
f 1260 1072 1071
f 1358 1264 1289
f 1289 1264 1263
f 1268 1267 1275
f 1275 1267 1276
f 1267 1269 1276
f 1276 1269 1274
f 941 1273 942
f 942 1273 1272
f 1358 1268 1264
f 1264 1268 1275
f 1260 1071 1288
f 1288 1071 1070
f 1273 941 1289
f 1289 941 977
f 1272 1271 1288
f 1288 1271 1277
f 1259 1269 1072
f 1072 1269 1026
f 1360 1361 1359
f 1359 1361 1362
f 1364 1365 1363
f 1363 1365 1366
f 1363 1366 1367
f 1367 1366 1368
f 1370 1371 1369
f 1369 1371 1372
f 1373 1374 1376
f 1376 1374 1375
f 1377 1378 1364
f 1364 1378 1365
f 1379 1380 1382
f 1382 1380 1381
f 1383 1384 1386
f 1386 1384 1385
f 1387 1385 978
f 978 1385 1384
f 1388 1389 1391
f 1391 1389 1390
f 1378 1392 1365
f 1365 1392 1370
f 1374 1383 1375
f 1375 1383 1386
f 1380 1393 1381
f 1381 1393 1361
f 1394 1392 1362
f 1362 1392 1378
f 1389 1396 1395
f 1395 1396 1368
f 1398 1399 1397
f 1397 1399 1400
f 1388 1401 1389
f 1389 1401 1396
f 1402 1367 1396
f 1396 1367 1368
f 1395 1368 1369
f 1369 1368 1366
f 1359 1403 1360
f 1360 1403 1404
f 1377 1405 1359
f 1359 1405 1403
f 1369 1372 1395
f 1395 1372 1406
f 1379 1388 1376
f 1376 1388 1391
f 1359 1362 1377
f 1377 1362 1378
f 1363 1407 1364
f 1364 1407 1408
f 1393 1394 1361
f 1361 1394 1362
f 1365 1370 1366
f 1366 1370 1369
f 1360 1404 1409
f 1409 1404 1410
f 1402 1398 1411
f 1411 1398 1397
f 1399 1398 1382
f 1382 1398 1401
f 1409 1410 1399
f 1399 1410 1400
f 1388 1379 1401
f 1401 1379 1382
f 1367 1402 1412
f 1412 1402 1411
f 1364 1408 1377
f 1377 1408 1405
f 981 980 1406
f 1406 980 1390
f 1407 1363 1412
f 1412 1363 1367
f 1387 1371 1392
f 1392 1371 1370
f 1398 1402 1401
f 1401 1402 1396
f 1409 1399 1381
f 1381 1399 1382
f 1360 1409 1361
f 1361 1409 1381
f 1412 1411 1414
f 1414 1411 1413
f 1412 1414 1407
f 1407 1414 1415
f 1407 1415 1408
f 1408 1415 1416
f 1408 1416 1405
f 1405 1416 1417
f 1411 1397 1413
f 1413 1397 1418
f 1397 1400 1418
f 1418 1400 1419
f 1419 1400 1420
f 1420 1400 1410
f 1422 1413 1421
f 1421 1413 1418
f 1423 1424 1426
f 1426 1424 1425
f 1427 1428 1424
f 1424 1428 1425
f 1425 1428 1430
f 1430 1428 1429
f 1430 1431 1433
f 1433 1431 1432
f 1429 1434 1430
f 1430 1434 1431
f 1433 1426 1430
f 1430 1426 1425
f 1426 1435 1423
f 1423 1435 1436
f 1428 1427 1429
f 1429 1427 1437
f 1427 1415 1437
f 1437 1415 1414
f 1427 1438 1415
f 1415 1438 1416
f 1439 1438 1424
f 1424 1438 1427
f 1440 1439 1423
f 1423 1439 1424
f 1429 1437 1434
f 1434 1437 1422
f 1422 1437 1413
f 1413 1437 1414
f 1441 1440 1436
f 1436 1440 1423
f 1442 1439 1443
f 1443 1439 1440
f 1441 1444 1440
f 1440 1444 1443
f 1445 1442 1446
f 1446 1442 1443
f 1442 1445 1448
f 1448 1445 1447
f 1444 1449 1443
f 1443 1449 1446
f 1439 1442 1438
f 1438 1442 1448
f 1438 1448 1416
f 1416 1448 1417
f 1436 1450 1441
f 1441 1450 1451
f 1436 1435 1450
f 1450 1435 1452
f 1431 1434 1453
f 1453 1434 1422
f 1431 1453 1432
f 1432 1453 1454
f 1453 1422 1455
f 1455 1422 1421
f 1454 1453 1456
f 1456 1453 1455
f 1457 1458 1454
f 1454 1458 1432
f 1452 1458 1450
f 1450 1458 1457
f 1405 1417 1403
f 1403 1417 1459
f 1404 1460 1410
f 1410 1460 1420
f 1459 1460 1403
f 1403 1460 1404
f 1447 1461 1459
f 1459 1461 1460
f 1445 1462 1447
f 1447 1462 1461
f 1460 1461 1420
f 1420 1461 1463
f 1459 1417 1447
f 1447 1417 1448
f 1464 1419 1463
f 1463 1419 1420
f 1419 1464 1418
f 1418 1464 1421
f 1464 1465 1421
f 1421 1465 1455
f 1465 1464 1466
f 1466 1464 1463
f 1467 1465 1468
f 1468 1465 1466
f 1461 1462 1463
f 1463 1462 1466
f 1462 1469 1466
f 1466 1469 1468
f 1465 1467 1455
f 1455 1467 1456
f 1471 1456 1470
f 1470 1456 1467
f 1470 1473 1472
f 1472 1473 1474
f 1470 1467 1473
f 1473 1467 1468
f 1470 1472 1471
f 1471 1472 1451
f 1471 1451 1457
f 1457 1451 1450
f 1457 1454 1471
f 1471 1454 1456
f 1462 1445 1469
f 1469 1445 1446
f 1474 1469 1449
f 1449 1469 1446
f 1474 1473 1469
f 1469 1473 1468
f 1472 1474 1444
f 1444 1474 1449
f 1444 1441 1472
f 1472 1441 1451
f 1426 1433 1435
f 1435 1433 1452
f 1452 1433 1458
f 1458 1433 1432
f 1371 940 1372
f 1372 940 1068
f 1376 1375 1379
f 1379 1375 1380
f 1393 1386 1394
f 1394 1386 1385
f 1385 1387 1394
f 1394 1387 1392
f 1475 1373 1391
f 1391 1373 1376
f 1375 1386 1380
f 1380 1386 1393
f 1372 1068 1406
f 1406 1068 981
f 1406 1390 1395
f 1395 1390 1389
f 1371 1387 940
f 940 1387 978
f 883 807 1476
f 1476 807 1477
f 1046 904 1479
f 1479 904 1478
f 904 903 1478
f 1478 903 1480
f 1030 1481 1028
f 1028 1481 1482
f 810 1046 1483
f 1483 1046 1479
f 1066 883 1484
f 1484 883 1476
f 807 810 1477
f 1477 810 1483
f 1485 1029 1484
f 1484 1029 1066
f 1028 1482 903
f 903 1482 1480
f 1481 1030 1485
f 1485 1030 1029
f 1484 1486 1485
f 1485 1486 1487
f 1485 1487 1481
f 1481 1487 1488
f 1481 1488 1482
f 1482 1488 1489
f 1482 1489 1480
f 1480 1489 1490
f 1484 1476 1486
f 1486 1476 1491
f 1476 1477 1491
f 1491 1477 1492
f 1477 1483 1492
f 1492 1483 1493
f 1495 1486 1494
f 1494 1486 1491
f 1497 1498 1496
f 1496 1498 1499
f 1500 1501 1497
f 1497 1501 1498
f 1502 1503 1501
f 1501 1503 1498
f 1502 1504 1503
f 1503 1504 1505
f 1506 1499 1503
f 1503 1499 1498
f 1499 1506 1507
f 1507 1506 1508
f 1507 1509 1499
f 1499 1509 1496
f 1502 1501 1510
f 1510 1501 1500
f 1500 1488 1510
f 1510 1488 1487
f 1500 1511 1488
f 1488 1511 1489
f 1497 1512 1500
f 1500 1512 1511
f 1512 1497 1513
f 1513 1497 1496
f 1502 1510 1504
f 1504 1510 1495
f 1495 1510 1486
f 1486 1510 1487
f 1509 1514 1496
f 1496 1514 1513
f 1515 1512 1516
f 1516 1512 1513
f 1514 1517 1513
f 1513 1517 1516
f 1518 1515 1519
f 1519 1515 1516
f 1515 1518 1521
f 1521 1518 1520
f 1517 1522 1516
f 1516 1522 1519
f 1512 1515 1511
f 1511 1515 1521
f 1511 1521 1489
f 1489 1521 1490
f 1514 1509 1524
f 1524 1509 1523
f 1509 1507 1523
f 1523 1507 1508
f 1505 1504 1525
f 1525 1504 1495
f 1526 1505 1527
f 1527 1505 1525
f 1525 1495 1528
f 1528 1495 1494
f 1527 1525 1529
f 1529 1525 1528
f 1527 1530 1526
f 1526 1530 1531
f 1508 1531 1523
f 1523 1531 1530
f 1506 1503 1526
f 1526 1503 1505
f 1508 1506 1531
f 1531 1506 1526
f 1478 1480 1532
f 1532 1480 1490
f 1483 1479 1493
f 1493 1479 1533
f 1532 1533 1478
f 1478 1533 1479
f 1520 1534 1532
f 1532 1534 1533
f 1518 1535 1520
f 1520 1535 1534
f 1533 1534 1493
f 1493 1534 1536
f 1532 1490 1520
f 1520 1490 1521
f 1537 1492 1536
f 1536 1492 1493
f 1492 1537 1491
f 1491 1537 1494
f 1537 1538 1494
f 1494 1538 1528
f 1538 1537 1539
f 1539 1537 1536
f 1540 1538 1541
f 1541 1538 1539
f 1534 1535 1536
f 1536 1535 1539
f 1535 1542 1539
f 1539 1542 1541
f 1538 1540 1528
f 1528 1540 1529
f 1544 1529 1543
f 1543 1529 1540
f 1545 1543 1547
f 1547 1543 1546
f 1543 1540 1546
f 1546 1540 1541
f 1543 1545 1544
f 1544 1545 1524
f 1544 1524 1530
f 1530 1524 1523
f 1530 1527 1544
f 1544 1527 1529
f 1535 1518 1542
f 1542 1518 1519
f 1547 1542 1522
f 1522 1542 1519
f 1547 1546 1542
f 1542 1546 1541
f 1545 1547 1517
f 1517 1547 1522
f 1517 1514 1545
f 1545 1514 1524
f 997 995 986
f 986 995 987
f 987 995 988
f 988 995 971
f 976 1358 977
f 977 1358 1289
f 854 853 1067
f 1067 853 1050
f 1055 985 1069
f 1069 985 962
f 1068 961 981
f 981 961 862
f 1268 1358 920
f 920 1358 976
f 920 976 921
f 921 976 975
f 927 1054 850
f 850 1054 851
f 882 881 1057
f 1057 881 1548
f 1548 1374 1057
f 1057 1374 1373
f 1383 1374 1549
f 1549 1374 1548
f 1549 1548 1550
f 1550 1548 881
f 1550 881 1551
f 1551 881 880
f 933 1552 879
f 879 1552 880
f 1551 880 875
f 875 880 1552
f 1553 1551 878
f 878 1551 875
f 1551 1553 1550
f 1550 1553 1554
f 1550 1554 1549
f 1549 1554 1555
f 978 1384 975
f 975 1384 1555
f 967 849 1556
f 1556 849 852
f 875 1552 876
f 876 1552 933
f 961 939 962
f 962 939 1069
f 1555 1054 975
f 975 1054 921
f 1555 1384 1549
f 1549 1384 1383
f 1391 1390 1475
f 1475 1390 980
f 1373 1475 1057
f 1057 1475 980
f 851 1054 1554
f 1554 1054 1555
f 1554 1553 851
f 851 1553 852
f 878 1556 1553
f 1553 1556 852
f 1556 878 967
f 967 878 877
f 1023 1020 877
f 877 1020 967
f 909 811 1034
f 806 779 873
f 873 779 840
f 805 780 806
f 806 780 779
f 1043 893 1044
f 1044 893 892
f 873 840 847
f 847 840 842
f 840 839 842
f 842 839 843
f 839 791 843
f 843 791 908
f 791 790 908
f 908 790 792
f 809 789 810
f 810 789 1046
f 793 790 809
f 809 790 789
f 809 808 793
f 793 808 1009
f 808 884 1009
f 1009 884 1010
f 1065 1015 884
f 884 1015 1010
f 1032 868 1065
f 1065 868 1015
f 1031 822 1032
f 1032 822 868
f 1031 1027 822
f 822 1027 785
f 1045 905 1046
f 1046 905 904
f 788 781 1019
f 1019 781 894
f 781 780 894
f 894 780 892
f 780 805 892
f 892 805 1044
f 805 804 1044
f 1044 804 891
f 804 1064 891
f 891 1064 888
f 1064 1021 888
f 888 1021 1033
f 1021 1020 1033
f 1033 1020 1034
f 1020 1023 1034
f 1034 1023 909
f 1023 1022 909
f 909 1022 910
f 1043 815 893
f 893 815 819
f 819 815 820
f 820 815 818
f 870 869 818
f 818 869 820
f 1014 1011 870
f 870 1011 869
f 969 972 1014
f 1014 972 1011
f 1036 1063 1022
f 1022 1063 910
f 1035 833 1036
f 1036 833 1063
f 1035 932 979
f 979 932 963
f 834 979 982
f 982 979 958
f 833 1035 834
f 834 1035 979
f 982 863 834
f 834 863 830
f 864 900 831
f 831 900 857
f 990 993 864
f 864 993 900
f 989 994 990
f 990 994 993
f 970 1058 989
f 989 1058 994
f 969 1018 970
f 970 1018 1058
f 1027 902 785
f 785 902 786
f 902 905 786
f 786 905 1019
f 905 1045 1019
f 1019 1045 788
f 788 1045 787
f 787 1045 789
