o hand_left
v 0.036462 -0.025200 0.825985
v 0.026242 -0.026973 0.822414
v 0.032603 -0.018787 0.823954
v 0.041638 -0.017358 0.825999
v 0.013056 -0.012603 0.819149
v 0.008902 -0.006648 0.808878
v 0.022482 0.001966 0.814617
v 0.023162 -0.004663 0.822925
v 0.047743 -0.012481 0.824724
v 0.038097 -0.012640 0.825142
v 0.051679 -0.012722 0.820152
v 0.062275 -0.014819 0.817429
v 0.057291 -0.013148 0.823581
v 0.069839 -0.016039 0.819479
v 0.061573 -0.021211 0.808115
v 0.073896 -0.024276 0.816379
v 0.056728 -0.048297 0.813121
v 0.051376 -0.058783 0.819742
v 0.065333 -0.056347 0.830057
v 0.069038 -0.045154 0.822894
v 0.050521 -0.068820 0.838472
v 0.059401 -0.061971 0.834360
v 0.046204 -0.065279 0.823431
v 0.038866 -0.071133 0.827732
v 0.027853 -0.038040 0.829112
v 0.017761 -0.040217 0.824767
v 0.020854 -0.036105 0.822770
v 0.030457 -0.033779 0.826996
v 0.052100 -0.005901 0.813575
v 0.050188 -0.011594 0.804355
v 0.053507 -0.013168 0.811519
v 0.050997 -0.007008 0.819029
v -0.010055 -0.047161 0.821506
v -0.016548 -0.052013 0.810592
v -0.014442 -0.047968 0.806780
v -0.008739 -0.044718 0.817429
v -0.005979 -0.025874 0.800789
v -0.009323 -0.035089 0.794545
v -0.006321 -0.035237 0.780890
v -0.000095 -0.027460 0.784988
v 0.000568 -0.015121 0.805669
v 0.003826 -0.015429 0.791667
v 0.012217 -0.005383 0.797536
v 0.025651 0.004290 0.806002
v -0.019589 -0.062706 0.817218
v -0.015616 -0.060393 0.826418
v 0.082252 0.002763 0.862602
v 0.079402 -0.000999 0.866111
v 0.078825 -0.002973 0.862727
v 0.082036 0.000997 0.859768
v -0.009272 -0.079844 0.821117
v -0.002767 -0.085451 0.815707
v -0.009429 -0.086423 0.812763
v -0.015237 -0.079883 0.816369
v -0.001387 -0.079699 0.827369
v 0.006308 -0.083340 0.819814
v 0.095120 0.002154 0.864762
v 0.091123 0.004808 0.862739
v 0.092479 0.001981 0.858966
v 0.096165 -0.001294 0.860872
v 0.050989 -0.015623 0.827776
v 0.044957 -0.022329 0.830509
v 0.064841 -0.014899 0.836898
v 0.057835 -0.018788 0.834643
v 0.059807 -0.014512 0.829349
v 0.066150 -0.012205 0.831309
v 0.046010 -0.037479 0.843298
v 0.036498 -0.039205 0.836545
v 0.040238 -0.034261 0.834216
v 0.050786 -0.030575 0.841030
v 0.028625 -0.047912 0.844670
v 0.038873 -0.045820 0.850412
v 0.033214 -0.051033 0.854341
v 0.026409 -0.050902 0.850094
v 0.057594 -0.040769 0.857498
v 0.063368 -0.040183 0.860317
v 0.061683 -0.041470 0.862933
v 0.055385 -0.043244 0.859174
v -0.015306 -0.087801 0.808948
v -0.020363 -0.079592 0.811130
v 0.034643 -0.079099 0.849537
v 0.024058 -0.078755 0.853486
v 0.033268 -0.078389 0.863656
v 0.042556 -0.079218 0.856575
v 0.005128 -0.085230 0.808866
v -0.001700 -0.088475 0.806579
v 0.096483 -0.002561 0.868521
v 0.097034 -0.006011 0.864823
v 0.018319 -0.012481 0.787854
v 0.031058 0.000999 0.798367
v 0.010258 -0.025165 0.781648
v 0.005803 -0.035108 0.777732
v 0.000873 -0.041153 0.773070
v 0.059012 -0.022484 0.840174
v 0.039130 -0.029681 0.830566
v 0.025237 -0.041577 0.831608
v 0.010978 -0.058827 0.853100
v 0.002267 -0.059545 0.847016
v 0.008849 -0.051597 0.843906
v 0.015447 -0.053051 0.849570
v 0.018111 -0.073021 0.859006
v 0.018040 -0.065040 0.860591
v 0.025404 -0.065064 0.866074
v 0.026591 -0.072801 0.866277
v 0.051558 -0.000690 0.808083
v 0.046134 -0.009241 0.798395
v -0.014559 -0.071231 0.824541
v -0.018936 -0.070498 0.818025
v -0.023408 -0.072393 0.811014
v 0.003557 -0.042184 0.822746
v -0.007985 -0.042793 0.814665
v -0.006498 -0.038774 0.812870
v 0.005306 -0.040573 0.820754
v 0.014656 -0.026247 0.821096
v 0.002699 -0.023227 0.815577
v 0.022856 -0.017776 0.824691
v -0.013042 -0.042691 0.800604
v -0.021137 -0.050184 0.799237
v -0.018040 -0.044797 0.792786
v -0.023603 -0.057935 0.804815
v -0.024660 -0.065662 0.809230
v -0.007163 -0.093281 0.802039
v -0.013643 -0.040765 0.786796
v 0.030933 0.000245 0.824917
v 0.037894 0.004402 0.827046
v 0.041496 -0.002314 0.828405
v 0.035552 -0.006793 0.826945
v 0.077280 -0.015329 0.824576
v 0.071102 -0.011545 0.827876
v 0.063952 -0.012790 0.823234
v -0.003774 -0.048960 0.831228
v -0.008935 -0.059954 0.835080
v 0.066186 -0.018695 0.842238
v 0.095043 -0.004675 0.855986
v 0.091112 -0.000713 0.854255
v 0.083316 -0.008844 0.837302
v 0.088466 -0.013341 0.838955
v 0.073612 -0.022785 0.848261
v 0.068916 -0.018550 0.845099
v 0.070580 -0.018714 0.846934
v 0.073854 -0.022327 0.851426
v 0.054849 -0.047178 0.865876
v 0.049159 -0.048577 0.862403
v 0.078742 -0.040015 0.835034
v 0.083229 -0.032428 0.824205
v 0.072723 -0.035391 0.816441
v 0.041557 -0.042554 0.846616
v 0.049742 -0.041579 0.853125
v 0.047572 -0.044489 0.855241
v 0.061298 -0.024646 0.843857
v 0.067618 -0.023017 0.846307
v 0.065059 -0.026881 0.847505
v 0.058437 -0.028875 0.845586
v 0.014931 -0.080246 0.843766
v 0.007924 -0.073768 0.850577
v 0.086498 0.004924 0.861677
v 0.087103 0.002782 0.858380
v 0.032309 -0.044117 0.839929
v 0.059579 -0.038035 0.809003
v 0.022173 -0.045127 0.834552
v 0.057074 -0.066601 0.859784
v 0.052738 -0.063148 0.865788
v 0.056573 -0.059595 0.869341
v 0.061563 -0.062018 0.866582
v 0.080218 -0.015288 0.864524
v 0.076676 -0.010891 0.863179
v 0.078842 -0.008111 0.866408
v 0.082512 -0.012100 0.868813
v 0.067974 -0.014327 0.840996
v 0.069661 -0.010614 0.835969
v 0.071755 -0.009362 0.841096
v 0.070457 -0.013991 0.844769
v 0.074889 -0.009780 0.832843
v 0.077060 -0.007611 0.837951
v 0.086591 -0.017207 0.864464
v 0.093587 -0.015010 0.862323
v 0.087425 -0.024410 0.847332
v 0.081229 -0.024205 0.852301
v 0.028505 -0.074409 0.816946
v 0.021269 -0.079751 0.823686
v 0.031479 -0.076782 0.834596
v 0.042005 -0.075215 0.845302
v 0.051878 -0.072250 0.854982
v 0.060662 -0.068001 0.847472
v 0.025018 -0.080179 0.838511
v 0.076915 -0.030493 0.846005
v 0.082924 -0.030974 0.838784
v 0.079466 -0.035004 0.841721
v 0.017987 -0.048519 0.839782
v 0.085509 0.000695 0.854133
v 0.015639 -0.057050 0.778143
v 0.015048 -0.069027 0.784397
v 0.021379 -0.064695 0.788655
v 0.021502 -0.050695 0.782143
v 0.076209 -0.005081 0.859638
v 0.079309 -0.000478 0.856087
v 0.046579 -0.052546 0.867065
v 0.052530 -0.051036 0.869453
v 0.053604 -0.054010 0.871441
v 0.046816 -0.055487 0.871852
v 0.016275 -0.081908 0.826302
v 0.038226 -0.075094 0.871074
v 0.046491 -0.076722 0.864041
v 0.012684 -0.082147 0.813921
v 0.019178 -0.078042 0.807741
v 0.012196 -0.081006 0.801509
v 0.070821 -0.056435 0.845905
v 0.034810 -0.069301 0.813665
v 0.024084 -0.073082 0.804421
v 0.015983 -0.076416 0.796805
v 0.010260 -0.079695 0.791609
v 0.006643 -0.084310 0.797332
v 0.095763 -0.010054 0.859682
v 0.094940 -0.011319 0.868559
v 0.001118 -0.089483 0.792187
v 0.005052 -0.083555 0.786150
v 0.028781 -0.066430 0.800039
v 0.033134 -0.057197 0.795082
v 0.038833 -0.062875 0.809266
v 0.044304 -0.053671 0.805012
v 0.076584 -0.053534 0.837018
v 0.088749 -0.002427 0.882325
v 0.088943 -0.009915 0.874116
v 0.083236 -0.009228 0.872778
v 0.084418 -0.003192 0.882022
v 0.088390 -0.013608 0.869705
v 0.094097 -0.007761 0.872235
v 0.046659 -0.040284 0.799726
v 0.070564 -0.026250 0.849903
v 0.032725 -0.040278 0.789156
v 0.051942 -0.024293 0.798503
v 0.040328 -0.022535 0.791994
v 0.018400 -0.037646 0.778773
v 0.026237 -0.023191 0.783770
v 0.007231 -0.050258 0.771591
v 0.013294 -0.045378 0.775823
v 0.034364 -0.009915 0.790982
v 0.079836 0.006630 0.872350
v 0.078025 0.001999 0.875215
v 0.010165 -0.061262 0.773431
v 0.030106 -0.011509 0.826078
v 0.009035 -0.047098 0.833511
v 0.012627 -0.044728 0.829792
v -0.002402 -0.059728 0.842563
v 0.003357 -0.050385 0.838192
v 0.084091 0.009592 0.870962
v 0.067753 -0.042171 0.862100
v 0.066175 -0.042732 0.861373
v 0.030083 0.006567 0.818890
v 0.036201 0.009545 0.821651
v 0.044301 0.010252 0.811248
v 0.039390 0.012146 0.816117
v 0.033018 0.009049 0.811122
v 0.037966 0.006900 0.805462
v 0.002327 -0.043421 0.824785
v 0.000601 -0.045505 0.827690
v 0.006029 -0.080129 0.835321
v -0.000189 -0.073289 0.842383
v 0.080523 -0.012712 0.831032
v 0.082268 -0.021803 0.824335
v 0.085040 -0.018079 0.831728
v 0.089546 -0.020174 0.841026
v 0.074744 -0.027212 0.849916
v 0.078125 -0.026924 0.846866
v -0.002555 -0.031560 0.814230
v 0.008878 -0.035075 0.819698
v 0.041960 -0.009784 0.824917
v 0.046649 -0.006841 0.825602
v 0.053566 -0.035056 0.847814
v 0.076274 -0.048868 0.853578
v 0.080408 -0.046050 0.846193
v 0.061518 -0.033737 0.851792
v 0.091939 0.008896 0.874296
v 0.087767 0.010347 0.871853
v 0.086425 -0.025156 0.833343
v 0.041949 -0.049170 0.859642
v 0.070421 -0.053258 0.853746
v 0.072771 -0.046888 0.859704
v 0.030782 -0.070948 0.870725
v 0.008726 -0.072579 0.779135
v 0.079151 -0.005855 0.870438
v 0.078940 -0.001989 0.878262
v 0.092397 -0.000611 0.880773
v 0.094414 0.003729 0.877114
v -0.007127 -0.071239 0.834021
v 0.015261 -0.043013 0.827619
v 0.041845 -0.000953 0.799140
v 0.048444 0.004946 0.807998
v 0.065865 -0.033420 0.853950
v 0.051545 -0.069969 0.863001
v 0.065262 -0.063999 0.855433
v 0.069592 -0.059463 0.863154
v 0.072549 -0.052530 0.861706
v 0.071002 -0.045422 0.862443
v 0.090410 0.002242 0.885329
v 0.092459 0.006913 0.881996
v 0.089940 0.011966 0.879319
v 0.086187 0.013153 0.876514
v 0.082521 0.011283 0.874575
v 0.086641 0.000339 0.886813
v 0.082757 -0.000307 0.886120
v 0.078473 -0.000198 0.881245
v 0.083865 0.002252 0.890109
v 0.086754 0.006321 0.891658
v 0.082028 0.019012 0.889349
v 0.086358 0.015944 0.886639
v 0.085786 0.015830 0.889328
v 0.082599 0.018106 0.892441
v 0.080064 0.019594 0.896711
v 0.078904 0.021057 0.893648
v 0.087575 0.011542 0.889731
v 0.083516 0.014067 0.894476
v 0.082648 0.010208 0.896046
v 0.080094 0.012698 0.900266
v 0.080937 0.016291 0.899126
v 0.085704 0.008844 0.892855
v 0.089179 0.010571 0.888272
v 0.076854 0.020768 0.897817
v 0.078755 0.019933 0.899323
v 0.078889 0.017185 0.901273
v 0.075908 0.017807 0.901868
v 0.084002 0.015708 0.880900
v 0.080045 0.019184 0.887654
v 0.076249 0.019868 0.892356
v 0.074510 0.019637 0.896626
v 0.076389 0.017314 0.887476
v 0.074204 0.017790 0.891795
v 0.072576 0.017141 0.895470
v 0.073527 0.014184 0.888197
v 0.072455 0.015112 0.892176
v 0.078328 0.009912 0.878025
v 0.081201 0.013005 0.877554
v 0.071451 0.015519 0.894579
v 0.074027 0.016763 0.901172
v 0.081821 0.006676 0.895312
v 0.077910 0.010259 0.899877
v 0.079973 0.005286 0.894716
v 0.076236 0.008551 0.899508
v 0.076315 0.013012 0.902952
v 0.078399 0.014304 0.902026
v 0.079271 0.007288 0.874749
v 0.077642 0.002481 0.877760
v 0.076757 0.004464 0.880514
v 0.072331 0.009797 0.889774
v 0.077197 0.001617 0.883943
v 0.080197 0.001622 0.889243
v 0.077048 0.005068 0.894294
v 0.074187 0.005952 0.892591
v 0.074355 0.008094 0.897765
v 0.072855 0.008978 0.895832
v 0.071509 0.011852 0.893633
v 0.072693 0.011330 0.899563
v 0.074539 0.011985 0.901869
v 0.072211 0.015024 0.898814
v 0.072021 0.010956 0.897703
v 0.071772 0.013706 0.896490
v 0.076498 -0.017904 0.879161
v 0.073693 -0.022631 0.882603
v 0.075842 -0.024469 0.879023
v 0.078199 -0.020342 0.876344
v 0.090519 -0.017844 0.882094
v 0.085240 -0.015321 0.879518
v 0.088103 -0.018220 0.875814
v 0.092891 -0.022340 0.878547
v 0.091806 -0.023718 0.886004
v 0.093308 -0.028356 0.881828
v 0.092859 -0.025371 0.873026
v 0.087534 -0.020930 0.870884
v 0.080185 -0.029280 0.852882
v 0.085040 -0.034168 0.853471
v 0.067322 -0.037127 0.862375
v 0.069512 -0.039953 0.864033
v 0.080084 -0.015868 0.878635
v 0.082471 -0.018244 0.875404
v 0.074963 -0.033507 0.880425
v 0.072793 -0.028961 0.878171
v 0.074343 -0.028225 0.881838
v 0.077184 -0.031914 0.884935
v 0.072095 -0.028318 0.854928
v 0.069306 -0.032919 0.858299
v 0.075689 -0.027705 0.853759
v 0.080676 -0.036915 0.881762
v 0.087541 -0.037203 0.880743
v 0.081994 -0.045431 0.862320
v 0.076490 -0.044875 0.865368
v 0.082181 -0.019525 0.870991
v 0.074029 -0.023954 0.875535
v 0.076851 -0.020528 0.872651
v 0.092206 -0.032260 0.876081
v 0.088401 -0.033002 0.886493
v 0.077516 -0.021496 0.899491
v 0.081023 -0.029818 0.891376
v 0.076222 -0.028863 0.889390
v 0.072521 -0.021357 0.898354
v 0.082288 -0.033713 0.887014
v 0.086788 -0.028356 0.890339
v 0.070077 -0.010539 0.889944
v 0.067584 -0.015440 0.893145
v 0.073754 -0.007830 0.889247
v 0.085559 -0.040905 0.856776
v 0.083860 -0.009836 0.891452
v 0.078058 -0.007430 0.889288
v 0.073126 -0.026653 0.885924
v 0.068561 -0.019156 0.896309
v 0.081827 -0.019843 0.898923
v 0.085980 -0.015575 0.894647
v 0.079050 -0.016000 0.902623
v 0.082328 -0.011411 0.899557
v 0.080449 -0.005899 0.896068
v 0.075500 -0.004615 0.893115
v 0.071859 -0.005945 0.892096
v 0.075069 -0.017819 0.903125
v 0.070396 -0.018166 0.901771
v 0.067426 -0.016894 0.897824
v 0.070008 -0.014359 0.906767
v 0.073304 -0.011488 0.907823
v 0.065137 0.004885 0.906894
v 0.069574 0.002135 0.903936
v 0.070209 0.001111 0.906288
v 0.066232 0.003564 0.909170
v 0.074896 -0.000967 0.902578
v 0.073837 -0.001430 0.904917
v 0.074539 -0.005641 0.906743
v 0.069775 -0.002716 0.909226
v 0.068537 -0.007259 0.910535
v 0.064910 -0.004493 0.913948
v 0.066159 0.000140 0.912982
v 0.072377 -0.008232 0.908729
v 0.063664 0.004319 0.911606
v 0.061227 0.005091 0.910978
v 0.077137 -0.006725 0.905298
v 0.073710 -0.001872 0.896512
v 0.067416 0.002340 0.901718
v 0.062283 0.004473 0.905318
v 0.058569 0.003692 0.910251
v 0.063740 0.000633 0.900531
v 0.059725 0.002544 0.904699
v 0.057225 0.001606 0.909019
v 0.060318 -0.002681 0.900436
v 0.057133 -0.000836 0.904983
v 0.067233 -0.007725 0.893681
v 0.070185 -0.003984 0.893846
v 0.056605 -0.000223 0.907535
v 0.060701 0.002264 0.914982
v 0.057750 0.001223 0.913612
v 0.062555 0.001919 0.914664
v 0.067514 -0.009135 0.910661
v 0.063043 -0.005787 0.913775
v 0.065249 -0.010776 0.910137
v 0.060767 -0.006677 0.913520
v 0.060478 -0.002455 0.915886
v 0.061955 -0.001511 0.915845
v 0.069058 -0.009273 0.892412
v 0.067107 -0.013982 0.894833
v 0.065445 -0.012681 0.895689
v 0.059031 -0.007338 0.902579
v 0.065871 -0.015846 0.899219
v 0.067424 -0.015643 0.904423
v 0.063130 -0.011733 0.908459
v 0.060263 -0.010597 0.905872
v 0.059122 -0.007844 0.912577
v 0.058108 -0.008014 0.909414
v 0.056477 -0.004656 0.906322
v 0.057043 -0.004031 0.914190
v 0.058805 -0.003034 0.915505
v 0.056671 -0.000067 0.912073
v 0.056467 -0.005139 0.911432
v 0.055968 -0.002000 0.909543
v 0.065247 -0.033157 0.884395
v 0.061911 -0.037340 0.886781
v 0.062650 -0.039050 0.884144
v 0.066347 -0.035257 0.882029
v 0.077421 -0.034674 0.888405
v 0.074080 -0.031644 0.886229
v 0.075819 -0.034538 0.882695
v 0.079518 -0.038491 0.883744
v 0.077093 -0.038401 0.892861
v 0.079897 -0.043858 0.886949
v 0.080001 -0.041730 0.879040
v 0.076252 -0.036852 0.878992
v 0.072148 -0.043578 0.866245
v 0.075647 -0.049131 0.867189
v 0.069558 -0.031572 0.884765
v 0.070768 -0.033831 0.882009
v 0.061669 -0.046683 0.886887
v 0.060497 -0.042483 0.884663
v 0.061827 -0.043218 0.887487
v 0.063941 -0.046226 0.890146
v 0.061674 -0.041692 0.866294
v 0.058087 -0.046140 0.868386
v 0.066765 -0.041022 0.866434
v 0.067177 -0.050491 0.888053
v 0.074317 -0.051727 0.886346
v 0.067439 -0.058334 0.874382
v 0.061597 -0.056550 0.875060
v 0.071338 -0.035030 0.879107
v 0.061639 -0.038310 0.881481
v 0.065788 -0.035081 0.879502
v 0.078842 -0.047552 0.881786
v 0.075232 -0.047745 0.891175
v 0.064247 -0.035016 0.906955
v 0.068628 -0.045575 0.895420
v 0.063315 -0.044289 0.892908
v 0.060064 -0.035438 0.905315
v 0.068940 -0.048251 0.892352
v 0.073964 -0.043643 0.895347
v 0.058790 -0.025039 0.895703
v 0.056627 -0.029707 0.897965
v 0.063024 -0.023601 0.895185
v 0.074208 -0.055507 0.870227
v 0.056997 -0.052207 0.872998
v 0.069535 -0.023927 0.899146
v 0.066194 -0.022961 0.896409
v 0.061403 -0.041689 0.889978
v 0.056974 -0.033835 0.902021
v 0.068708 -0.033025 0.906082
v 0.071616 -0.028662 0.902486
v 0.065494 -0.029870 0.910102
v 0.068073 -0.025145 0.906673
v 0.066302 -0.020588 0.903122
v 0.063016 -0.020276 0.899873
v 0.060091 -0.021359 0.898289
v 0.061082 -0.032271 0.910334
v 0.057681 -0.032851 0.908271
v 0.056469 -0.032531 0.903123
v 0.057612 -0.030371 0.912407
v 0.060586 -0.025933 0.913961
v 0.050160 -0.012288 0.912106
v 0.054784 -0.014674 0.909223
v 0.055042 -0.015220 0.910313
v 0.050835 -0.012761 0.913655
v 0.061021 -0.017422 0.907819
v 0.059682 -0.017337 0.909418
v 0.060909 -0.020384 0.911776
v 0.055572 -0.017989 0.914852
v 0.054057 -0.023763 0.916075
v 0.050184 -0.020946 0.918214
v 0.051436 -0.015479 0.917615
v 0.059292 -0.024085 0.914012
v 0.048480 -0.012238 0.915906
v 0.047586 -0.010665 0.915159
v 0.063228 -0.021437 0.910984
v 0.059495 -0.017197 0.903047
v 0.053278 -0.014331 0.906664
v 0.048466 -0.011847 0.909397
v 0.045230 -0.011886 0.912556
v 0.050673 -0.016438 0.904748
v 0.046810 -0.014162 0.907921
v 0.043970 -0.014101 0.910825
v 0.048754 -0.019144 0.904382
v 0.045534 -0.017161 0.907504
v 0.055861 -0.023213 0.899201
v 0.057572 -0.019626 0.900306
v 0.043786 -0.016293 0.910011
v 0.046422 -0.013738 0.918728
v 0.043230 -0.015505 0.916528
v 0.048003 -0.014342 0.918265
v 0.053821 -0.025626 0.915975
v 0.048503 -0.022549 0.918719
v 0.052068 -0.027546 0.914750
v 0.046863 -0.024347 0.917438
v 0.046429 -0.018903 0.919903
v 0.047480 -0.018368 0.919567
v 0.057699 -0.024503 0.897799
v 0.056077 -0.029062 0.899587
v 0.054521 -0.027790 0.900647
v 0.046996 -0.023330 0.905985
v 0.054733 -0.031301 0.904032
v 0.054538 -0.030939 0.910146
v 0.049789 -0.027830 0.912301
v 0.047564 -0.026492 0.909432
v 0.045462 -0.024823 0.915016
v 0.045207 -0.024312 0.912179
v 0.044022 -0.020902 0.908745
v 0.043608 -0.021157 0.915773
v 0.044534 -0.020364 0.918513
v 0.042401 -0.017096 0.913876
v 0.043309 -0.021608 0.913308
v 0.042552 -0.018537 0.911788
v 0.056323 -0.049434 0.870840
v 0.048259 -0.044786 0.889205
v 0.045281 -0.047254 0.891162
v 0.045765 -0.048198 0.890829
v 0.048403 -0.046113 0.887814
v 0.059078 -0.048512 0.891057
v 0.055983 -0.045102 0.889448
v 0.057379 -0.047888 0.886508
v 0.060143 -0.051516 0.887900
v 0.058792 -0.053127 0.893979
v 0.059064 -0.055988 0.891486
v 0.059014 -0.054114 0.885000
v 0.056552 -0.050300 0.883392
v 0.052349 -0.060116 0.870093
v 0.053174 -0.065653 0.870355
v 0.034324 -0.067719 0.875398
v 0.032877 -0.062937 0.872907
v 0.037118 -0.060094 0.880444
v 0.037954 -0.064703 0.881856
v 0.052099 -0.044185 0.888823
v 0.052667 -0.045878 0.886135
v 0.044769 -0.057045 0.894888
v 0.043495 -0.052864 0.892443
v 0.044109 -0.051136 0.893429
v 0.044533 -0.054653 0.896723
v 0.035985 -0.058623 0.871575
v 0.040581 -0.056789 0.870577
v 0.041865 -0.054888 0.873995
v 0.039409 -0.056225 0.878349
v 0.047512 -0.055167 0.872465
v 0.048288 -0.059898 0.895193
v 0.053964 -0.061178 0.893209
v 0.044364 -0.072188 0.879268
v 0.040357 -0.069449 0.880774
v 0.053028 -0.047661 0.884632
v 0.044933 -0.049612 0.889101
v 0.048213 -0.047394 0.887270
v 0.058254 -0.058930 0.888420
v 0.054178 -0.058057 0.895920
v 0.047085 -0.050697 0.904248
v 0.048126 -0.055896 0.899344
v 0.044134 -0.053773 0.897417
v 0.044107 -0.050149 0.902651
v 0.048368 -0.057094 0.897774
v 0.053718 -0.055332 0.898484
v 0.045720 -0.041097 0.893474
v 0.042919 -0.044921 0.896243
v 0.048892 -0.039838 0.893108
v 0.050445 -0.070708 0.873642
v 0.055382 -0.041711 0.896592
v 0.052075 -0.039524 0.894445
v 0.043834 -0.050141 0.894119
v 0.042332 -0.048077 0.899648
v 0.051805 -0.049484 0.903980
v 0.056079 -0.046484 0.900181
v 0.050246 -0.045669 0.906398
v 0.054046 -0.042524 0.902610
v 0.052212 -0.038055 0.898180
v 0.049379 -0.037994 0.895411
v 0.046559 -0.038961 0.894179
v 0.045663 -0.047902 0.906170
v 0.043141 -0.048205 0.904307
v 0.041804 -0.047159 0.900638
v 0.043916 -0.044921 0.908134
v 0.046349 -0.040730 0.908312
v 0.038176 -0.031048 0.903565
v 0.041540 -0.032758 0.901581
v 0.041963 -0.032915 0.902714
v 0.038835 -0.030711 0.904390
v 0.046708 -0.034846 0.900617
v 0.045783 -0.034658 0.902227
v 0.047551 -0.037012 0.904553
v 0.043218 -0.034369 0.906622
v 0.041534 -0.038276 0.910031
v 0.038419 -0.035734 0.911259
v 0.040373 -0.032388 0.908369
v 0.045720 -0.038951 0.908090
v 0.037322 -0.029522 0.906475
v 0.036012 -0.028946 0.906251
v 0.049828 -0.037894 0.904152
v 0.045106 -0.035815 0.896919
v 0.039481 -0.032760 0.899931
v 0.035811 -0.030536 0.902897
v 0.033797 -0.029864 0.906211
v 0.038242 -0.034612 0.898695
v 0.034078 -0.031869 0.902075
v 0.032259 -0.031385 0.905322
v 0.036537 -0.037532 0.898667
v 0.033197 -0.034359 0.902088
v 0.041119 -0.041013 0.895685
v 0.042891 -0.037916 0.895511
v 0.032163 -0.033097 0.904775
v 0.035864 -0.030275 0.910000
v 0.033224 -0.031481 0.909132
v 0.037491 -0.030672 0.910050
v 0.041026 -0.039524 0.910427
v 0.037088 -0.036575 0.911873
v 0.039501 -0.041444 0.910096
v 0.035333 -0.037696 0.911205
v 0.035398 -0.033408 0.911886
v 0.037262 -0.033170 0.911386
v 0.043224 -0.041140 0.894737
v 0.042068 -0.044219 0.896872
v 0.040186 -0.044256 0.898294
v 0.035667 -0.040887 0.901020
v 0.040547 -0.046760 0.902377
v 0.042041 -0.046661 0.906097
v 0.037669 -0.042645 0.908392
v 0.035981 -0.042802 0.905384
v 0.033776 -0.038175 0.909719
v 0.032722 -0.038629 0.906874
v 0.032412 -0.037220 0.903810
v 0.032391 -0.034606 0.909317
v 0.033325 -0.033921 0.910835
v 0.032067 -0.032764 0.907928
v 0.031832 -0.035420 0.907631
v 0.031757 -0.034413 0.906280
v 0.037519 -0.070230 0.876388
v 0.059741 0.005486 0.818981
v 0.059397 0.001130 0.822790
v 0.049259 0.006526 0.834228
v 0.053912 0.001559 0.832664
v 0.047200 0.012729 0.832390
v 0.049300 0.017864 0.823122
v 0.046696 0.016036 0.827642
v 0.057550 -0.000396 0.828406
v 0.057818 0.010620 0.816582
v 0.053349 0.016034 0.817831
v 0.065156 0.013343 0.820184
v 0.060325 0.019437 0.821954
v 0.056327 0.021914 0.827077
v 0.052255 0.018884 0.832022
v 0.051197 0.015417 0.835616
v 0.064843 0.006552 0.822968
v 0.063639 0.002366 0.826710
v 0.059862 0.001054 0.832114
v 0.070062 0.006339 0.829037
v 0.074640 0.013425 0.834487
v 0.072141 0.024564 0.850311
v 0.067203 0.023415 0.845630
v 0.069785 0.023201 0.844273
v 0.074072 0.024796 0.848430
v 0.065828 0.022902 0.840112
v 0.068145 0.022111 0.840435
v 0.070989 0.019140 0.836938
v 0.074758 0.020499 0.840995
v 0.074398 0.015189 0.836676
v 0.077135 0.014796 0.839817
v 0.078610 0.021675 0.844891
v 0.077935 0.025182 0.849562
v 0.081661 0.022515 0.848423
v 0.077093 0.024272 0.852564
v 0.071462 0.020642 0.834561
v 0.058865 0.021565 0.839082
v 0.063842 0.021941 0.846587
v 0.069768 0.022234 0.852173
v 0.075782 0.021822 0.854364
v 0.061834 0.018194 0.848078
v 0.068040 0.018094 0.852485
v 0.073712 0.017192 0.854054
v 0.062074 0.013263 0.848340
v 0.068324 0.014134 0.851725
v 0.053999 0.010279 0.839312
v 0.054279 0.016804 0.839575
v 0.072506 0.014832 0.852834
v 0.082608 0.021590 0.851025
v 0.081117 0.018738 0.852927
v 0.077465 0.011440 0.838903
v 0.081191 0.016080 0.843116
v 0.081142 0.013017 0.843714
v 0.075888 0.007651 0.838630
v 0.080239 0.010370 0.844684
v 0.083655 0.016423 0.847628
v 0.082828 0.018683 0.845955
v 0.051681 0.009263 0.836902
v 0.054950 0.003791 0.835156
v 0.057236 0.004650 0.837224
v 0.064722 0.007522 0.845941
v 0.062342 0.001603 0.835032
v 0.067392 0.002785 0.831529
v 0.073559 0.005055 0.840297
v 0.069358 0.004575 0.842854
v 0.077431 0.008686 0.846441
v 0.074582 0.008593 0.847750
v 0.070877 0.010655 0.850419
v 0.079180 0.012110 0.850112
v 0.082292 0.013739 0.849019
v 0.077879 0.015210 0.853003
v 0.076445 0.011202 0.850016
v 0.074912 0.013127 0.851950
v 0.029362 -0.063984 0.868941
v 0.032535 -0.058393 0.867002
v 0.027180 -0.059550 0.863962
v 0.019338 -0.059106 0.859006
v 0.011056 -0.064709 0.855293
v 0.022813 -0.054402 0.855101
v 0.030748 -0.055004 0.860605
v 0.038775 -0.053833 0.864871
v 0.020038 -0.050764 0.845811
f 2 3 1
f 1 3 4
f 5 6 8
f 8 6 7
f 9 4 10
f 10 4 3
f 12 13 11
f 11 13 9
f 14 12 16
f 16 12 15
f 18 19 17
f 17 19 20
f 22 23 21
f 21 23 24
f 26 27 25
f 25 27 28
f 30 31 29
f 29 31 32
f 33 34 36
f 36 34 35
f 37 38 40
f 40 38 39
f 41 42 6
f 6 42 43
f 6 43 7
f 7 43 44
f 45 34 46
f 46 34 33
f 48 49 47
f 47 49 50
f 52 53 51
f 51 53 54
f 56 52 55
f 55 52 51
f 58 59 57
f 57 59 60
f 61 62 4
f 4 62 1
f 64 65 63
f 63 65 66
f 68 69 67
f 67 69 70
f 72 73 71
f 71 73 74
f 76 77 75
f 75 77 78
f 53 79 54
f 54 79 80
f 82 83 81
f 81 83 84
f 85 86 52
f 52 86 53
f 57 60 87
f 87 60 88
f 89 90 43
f 43 90 44
f 43 42 89
f 89 42 91
f 40 39 92
f 92 39 93
f 94 70 64
f 64 70 69
f 13 61 9
f 9 61 4
f 25 28 69
f 69 28 95
f 96 25 68
f 68 25 69
f 98 99 97
f 97 99 100
f 101 102 104
f 104 102 103
f 106 30 105
f 105 30 29
f 51 54 107
f 107 54 108
f 54 80 108
f 108 80 109
f 111 112 110
f 110 112 113
f 115 5 114
f 114 5 116
f 115 41 5
f 5 41 6
f 36 35 111
f 111 35 117
f 35 118 117
f 117 118 119
f 34 120 35
f 35 120 118
f 34 45 120
f 120 45 121
f 125 126 124
f 124 126 127
f 128 129 14
f 14 129 130
f 33 131 46
f 46 131 132
f 133 94 63
f 63 94 64
f 134 135 137
f 137 135 136
f 139 140 138
f 138 140 141
f 77 142 78
f 78 142 143
f 144 145 20
f 20 145 146
f 148 149 147
f 147 149 72
f 151 152 150
f 150 152 153
f 82 101 83
f 83 101 104
f 101 82 155
f 155 82 154
f 156 157 58
f 58 157 59
f 158 68 147
f 147 68 67
f 159 146 15
f 15 146 16
f 68 158 96
f 96 158 160
f 129 66 130
f 130 66 65
f 162 163 161
f 161 163 164
f 166 167 165
f 165 167 168
f 170 171 169
f 169 171 172
f 174 171 173
f 173 171 170
f 176 177 175
f 175 177 178
f 180 181 179
f 179 181 24
f 182 183 21
f 21 183 184
f 81 185 82
f 82 185 154
f 186 187 188
f 188 187 144
f 158 71 160
f 160 71 189
f 190 135 157
f 157 135 59
f 169 172 139
f 139 172 140
f 147 72 158
f 158 72 71
f 192 193 191
f 191 193 194
f 167 166 49
f 49 166 195
f 196 190 50
f 50 190 157
f 197 198 200
f 200 198 199
f 21 24 182
f 182 24 181
f 146 159 20
f 20 159 17
f 182 181 81
f 81 181 185
f 201 185 180
f 180 185 181
f 202 203 83
f 83 203 84
f 205 206 204
f 204 206 85
f 207 22 184
f 184 22 21
f 179 24 208
f 208 24 23
f 208 209 179
f 179 209 205
f 209 210 205
f 205 210 206
f 212 206 211
f 211 206 210
f 179 205 180
f 180 205 204
f 213 176 88
f 88 176 214
f 86 85 212
f 212 85 206
f 193 217 218
f 217 219 218
f 218 219 220
f 219 18 220
f 220 18 17
f 19 221 20
f 20 221 144
f 222 223 225
f 225 223 224
f 175 226 176
f 176 226 214
f 227 87 214
f 214 87 88
f 220 17 228
f 228 17 159
f 134 213 60
f 60 213 88
f 138 229 151
f 151 229 152
f 193 192 210
f 210 192 211
f 230 194 218
f 218 194 193
f 231 232 228
f 228 232 230
f 233 234 91
f 91 234 89
f 235 236 93
f 93 236 92
f 230 232 234
f 234 232 237
f 47 238 48
f 48 238 239
f 240 191 235
f 235 191 236
f 5 8 116
f 116 8 241
f 242 243 189
f 189 243 160
f 244 245 98
f 98 245 99
f 156 246 47
f 47 246 238
f 76 247 77
f 77 247 248
f 250 125 249
f 249 125 124
f 252 253 251
f 251 253 254
f 111 110 36
f 36 110 255
f 256 33 255
f 255 33 36
f 257 258 154
f 154 258 155
f 63 169 133
f 133 169 139
f 66 170 63
f 63 170 169
f 173 170 129
f 129 170 66
f 129 128 173
f 173 128 259
f 128 260 259
f 259 260 261
f 213 134 262
f 262 134 137
f 263 264 186
f 186 264 187
f 112 265 113
f 113 265 266
f 11 267 268
f 234 233 230
f 230 233 194
f 153 269 70
f 70 269 67
f 175 178 165
f 165 178 141
f 150 153 94
f 94 153 70
f 271 221 270
f 270 221 207
f 269 153 272
f 272 153 152
f 121 45 109
f 109 45 108
f 47 50 156
f 156 50 157
f 57 273 58
f 58 273 274
f 145 275 260
f 260 275 261
f 276 149 143
f 143 149 78
f 148 269 75
f 75 269 272
f 207 277 270
f 270 277 278
f 195 196 49
f 49 196 50
f 59 135 60
f 60 135 134
f 83 104 202
f 202 104 279
f 149 148 78
f 78 148 75
f 247 278 248
f 248 278 277
f 183 182 84
f 84 182 81
f 48 239 281
f 281 239 282
f 227 223 283
f 283 223 222
f 223 226 224
f 224 226 168
f 281 282 224
f 224 282 225
f 165 168 175
f 175 168 226
f 264 263 138
f 138 263 229
f 14 16 128
f 128 16 260
f 220 228 218
f 218 228 230
f 87 227 284
f 284 227 283
f 260 16 145
f 145 16 146
f 244 98 258
f 258 98 155
f 58 274 156
f 156 274 246
f 107 285 51
f 51 285 55
f 243 286 160
f 160 286 96
f 234 237 89
f 89 237 90
f 46 132 107
f 107 132 285
f 253 252 249
f 249 252 250
f 286 26 96
f 96 26 25
f 106 105 287
f 287 105 288
f 272 152 289
f 289 152 229
f 138 151 139
f 139 151 133
f 183 290 161
f 161 290 162
f 291 292 277
f 277 292 293
f 151 150 133
f 133 150 94
f 262 275 177
f 177 275 187
f 144 187 145
f 145 187 275
f 273 57 284
f 284 57 87
f 174 136 190
f 190 136 135
f 111 117 112
f 112 117 38
f 117 119 38
f 38 119 123
f 112 38 265
f 265 38 37
f 287 288 254
f 254 288 251
f 228 159 231
f 231 159 15
f 223 227 226
f 226 227 214
f 147 67 148
f 148 67 269
f 224 168 281
f 281 168 167
f 199 163 200
f 200 163 162
f 45 46 108
f 108 46 107
f 281 167 48
f 48 167 49
f 161 164 291
f 291 164 292
f 38 123 39
f 293 294 277
f 277 294 248
f 284 283 296
f 296 283 295
f 284 296 273
f 273 296 297
f 274 273 298
f 298 273 297
f 246 274 299
f 299 274 298
f 283 222 295
f 295 222 300
f 222 225 300
f 300 225 301
f 301 225 302
f 302 225 282
f 303 304 300
f 300 304 295
f 306 307 305
f 305 307 308
f 309 310 308
f 308 310 305
f 308 307 312
f 312 307 311
f 313 314 312
f 312 314 315
f 311 316 312
f 312 316 313
f 317 304 311
f 311 304 316
f 315 309 312
f 312 309 308
f 318 319 321
f 321 319 320
f 319 318 309
f 309 318 310
f 311 307 317
f 317 307 306
f 306 297 317
f 317 297 296
f 306 322 297
f 297 322 298
f 305 323 306
f 306 323 322
f 323 305 324
f 324 305 310
f 304 317 295
f 295 317 296
f 318 325 310
f 310 325 324
f 323 324 326
f 326 324 327
f 324 325 327
f 327 325 328
f 326 327 329
f 329 327 330
f 329 331 326
f 326 331 332
f 333 330 328
f 328 330 327
f 323 326 322
f 322 326 332
f 322 332 298
f 298 332 299
f 325 318 334
f 334 318 321
f 313 316 335
f 335 316 304
f 335 336 313
f 313 336 314
f 304 303 335
f 335 303 337
f 336 335 338
f 338 335 337
f 336 339 314
f 314 339 340
f 246 299 238
f 238 299 341
f 239 342 282
f 282 342 302
f 342 239 341
f 341 239 238
f 341 331 342
f 342 331 343
f 331 329 343
f 343 329 344
f 342 343 302
f 302 343 345
f 341 299 331
f 331 299 332
f 346 301 345
f 345 301 302
f 346 303 301
f 301 303 300
f 347 337 346
f 346 337 303
f 347 346 348
f 348 346 345
f 349 347 350
f 350 347 348
f 343 344 345
f 345 344 348
f 344 351 348
f 348 351 350
f 337 347 338
f 338 347 349
f 353 338 352
f 352 338 349
f 352 355 354
f 354 355 356
f 352 349 355
f 355 349 350
f 352 354 353
f 353 354 334
f 353 334 339
f 339 334 321
f 339 336 353
f 353 336 338
f 329 330 344
f 344 330 351
f 356 351 333
f 333 351 330
f 356 355 351
f 351 355 350
f 354 356 328
f 328 356 333
f 328 325 354
f 354 325 334
f 309 315 319
f 319 315 320
f 320 340 321
f 321 340 339
f 320 315 340
f 340 315 314
f 137 136 261
f 261 136 259
f 140 166 141
f 141 166 165
f 172 171 195
f 195 171 196
f 171 174 196
f 196 174 190
f 178 177 264
f 264 177 187
f 172 195 140
f 140 195 166
f 137 261 262
f 262 261 275
f 178 264 141
f 141 264 138
f 262 177 213
f 213 177 176
f 136 174 259
f 259 174 173
f 358 359 357
f 357 359 360
f 362 363 361
f 361 363 364
f 361 364 365
f 365 364 366
f 367 368 370
f 370 368 369
f 76 371 247
f 247 371 372
f 373 374 362
f 362 374 363
f 376 377 375
f 375 377 378
f 289 229 380
f 380 229 379
f 381 379 263
f 263 379 229
f 383 384 382
f 382 384 385
f 386 368 374
f 374 368 363
f 76 289 371
f 371 289 380
f 377 376 359
f 359 376 387
f 388 386 360
f 360 386 374
f 389 383 366
f 366 383 390
f 392 393 391
f 391 393 394
f 383 382 390
f 390 382 395
f 396 365 390
f 390 365 366
f 389 366 367
f 367 366 364
f 357 397 358
f 358 397 398
f 373 399 357
f 357 399 397
f 389 367 400
f 400 367 370
f 382 385 375
f 375 385 372
f 357 360 373
f 373 360 374
f 361 401 362
f 362 401 402
f 387 388 359
f 359 388 360
f 363 368 364
f 364 368 367
f 358 398 403
f 403 398 404
f 396 392 405
f 405 392 391
f 392 395 393
f 393 395 378
f 393 403 394
f 394 403 404
f 375 378 382
f 382 378 395
f 365 396 406
f 406 396 405
f 362 402 373
f 373 402 399
f 271 270 400
f 400 270 384
f 401 361 406
f 406 361 365
f 381 369 386
f 386 369 368
f 392 396 395
f 395 396 390
f 393 378 403
f 403 378 377
f 403 377 358
f 358 377 359
f 406 405 408
f 408 405 407
f 406 408 401
f 401 408 409
f 401 409 402
f 402 409 410
f 402 410 399
f 399 410 411
f 405 391 407
f 407 391 412
f 391 394 412
f 412 394 413
f 394 404 413
f 413 404 414
f 415 416 412
f 412 416 407
f 418 419 417
f 417 419 420
f 421 422 418
f 418 422 419
f 419 422 424
f 424 422 423
f 425 426 424
f 424 426 427
f 423 428 424
f 424 428 425
f 427 420 424
f 424 420 419
f 420 429 417
f 417 429 430
f 423 422 431
f 431 422 421
f 421 409 431
f 431 409 408
f 421 432 409
f 409 432 410
f 418 433 421
f 421 433 432
f 434 433 417
f 417 433 418
f 431 416 423
f 423 416 428
f 416 431 407
f 407 431 408
f 435 434 430
f 430 434 417
f 433 434 436
f 436 434 437
f 434 435 437
f 437 435 438
f 436 437 439
f 439 437 440
f 439 441 436
f 436 441 442
f 438 443 437
f 437 443 440
f 436 442 433
f 433 442 432
f 432 442 410
f 410 442 411
f 435 430 445
f 445 430 444
f 430 429 444
f 444 429 446
f 425 428 447
f 447 428 416
f 426 425 448
f 448 425 447
f 416 415 447
f 447 415 449
f 447 449 448
f 448 449 450
f 451 452 448
f 448 452 426
f 446 452 444
f 444 452 451
f 399 411 397
f 397 411 453
f 398 454 404
f 404 454 414
f 454 398 453
f 453 398 397
f 453 441 454
f 454 441 455
f 441 439 455
f 455 439 456
f 454 455 414
f 414 455 457
f 441 453 442
f 442 453 411
f 458 413 457
f 457 413 414
f 458 415 413
f 413 415 412
f 458 459 415
f 415 459 449
f 459 458 460
f 460 458 457
f 461 459 462
f 462 459 460
f 455 456 457
f 457 456 460
f 456 463 460
f 460 463 462
f 459 461 449
f 449 461 450
f 465 450 464
f 464 450 461
f 464 467 466
f 466 467 468
f 464 461 467
f 467 461 462
f 464 466 465
f 465 466 445
f 465 445 451
f 451 445 444
f 451 448 465
f 465 448 450
f 439 440 456
f 456 440 463
f 468 463 443
f 443 463 440
f 468 467 463
f 463 467 462
f 466 468 438
f 438 468 443
f 438 435 466
f 466 435 445
f 420 427 429
f 429 427 446
f 446 427 452
f 452 427 426
f 370 369 188
f 188 369 186
f 371 376 372
f 372 376 375
f 380 379 387
f 387 379 388
f 379 381 388
f 388 381 386
f 385 384 278
f 278 384 270
f 380 387 371
f 371 387 376
f 400 370 271
f 271 370 188
f 385 278 372
f 372 278 247
f 400 384 389
f 389 384 383
f 369 381 186
f 186 381 263
f 221 271 144
f 144 271 188
f 221 19 207
f 207 19 22
f 19 18 22
f 22 18 23
f 18 219 23
f 23 219 208
f 469 470 472
f 472 470 471
f 474 475 473
f 473 475 476
f 473 476 477
f 477 476 478
f 480 481 479
f 479 481 482
f 483 484 474
f 474 484 475
f 486 487 485
f 485 487 488
f 489 490 77
f 77 490 142
f 491 489 248
f 248 489 77
f 493 494 492
f 492 494 495
f 496 480 484
f 484 480 475
f 486 497 487
f 487 497 471
f 498 496 472
f 472 496 484
f 499 493 478
f 478 493 500
f 501 502 504
f 504 502 503
f 493 492 500
f 500 492 505
f 506 477 500
f 500 477 478
f 499 478 479
f 479 478 476
f 469 507 470
f 470 507 508
f 483 509 469
f 469 509 507
f 479 482 499
f 499 482 510
f 492 495 485
f 485 495 511
f 483 469 484
f 484 469 472
f 473 512 474
f 474 512 513
f 497 498 471
f 471 498 472
f 475 480 476
f 476 480 479
f 470 508 514
f 514 508 515
f 506 502 516
f 516 502 501
f 503 502 488
f 488 502 505
f 514 515 503
f 503 515 504
f 485 488 492
f 492 488 505
f 477 506 517
f 517 506 516
f 474 513 483
f 483 513 509
f 510 292 494
f 494 292 164
f 512 473 517
f 517 473 477
f 491 481 496
f 496 481 480
f 502 506 505
f 505 506 500
f 503 488 514
f 514 488 487
f 514 487 470
f 470 487 471
f 517 516 519
f 519 516 518
f 517 519 512
f 512 519 520
f 512 520 513
f 513 520 521
f 513 521 509
f 509 521 522
f 516 501 518
f 518 501 523
f 501 504 523
f 523 504 524
f 524 504 525
f 525 504 515
f 526 527 523
f 523 527 518
f 529 530 528
f 528 530 531
f 532 533 529
f 529 533 530
f 530 533 535
f 535 533 534
f 536 537 535
f 535 537 538
f 534 539 535
f 535 539 536
f 538 531 535
f 535 531 530
f 540 541 531
f 531 541 528
f 533 532 534
f 534 532 542
f 532 520 542
f 542 520 519
f 532 543 520
f 520 543 521
f 529 544 532
f 532 544 543
f 544 529 545
f 545 529 528
f 534 542 539
f 539 542 527
f 527 542 518
f 518 542 519
f 541 546 528
f 528 546 545
f 547 544 548
f 548 544 545
f 546 549 545
f 545 549 548
f 550 547 551
f 551 547 548
f 547 550 553
f 553 550 552
f 549 554 548
f 548 554 551
f 544 547 543
f 543 547 553
f 543 553 521
f 521 553 522
f 546 541 556
f 556 541 555
f 541 540 555
f 555 540 557
f 536 539 558
f 558 539 527
f 537 536 559
f 559 536 558
f 527 526 558
f 558 526 560
f 559 558 561
f 561 558 560
f 559 562 537
f 537 562 563
f 557 563 555
f 555 563 562
f 509 522 507
f 507 522 564
f 508 565 515
f 515 565 525
f 565 508 564
f 564 508 507
f 564 552 565
f 565 552 566
f 552 550 566
f 566 550 567
f 565 566 525
f 525 566 568
f 564 522 552
f 552 522 553
f 569 524 568
f 568 524 525
f 569 526 524
f 524 526 523
f 570 560 569
f 569 560 526
f 570 569 571
f 571 569 568
f 572 570 573
f 573 570 571
f 566 567 568
f 568 567 571
f 567 574 571
f 571 574 573
f 570 572 560
f 560 572 561
f 576 561 575
f 575 561 572
f 575 578 577
f 577 578 579
f 575 572 578
f 578 572 573
f 575 577 576
f 576 577 556
f 576 556 562
f 562 556 555
f 562 559 576
f 576 559 561
f 550 551 567
f 567 551 574
f 579 574 554
f 554 574 551
f 579 578 574
f 574 578 573
f 579 554 577
f 577 554 549
f 549 546 577
f 577 546 556
f 531 538 540
f 540 538 557
f 557 538 563
f 563 538 537
f 481 294 482
f 482 294 293
f 580 486 511
f 511 486 485
f 490 489 497
f 497 489 498
f 489 491 498
f 498 491 496
f 163 495 164
f 164 495 494
f 580 490 486
f 486 490 497
f 482 293 510
f 510 293 292
f 495 163 511
f 511 163 199
f 494 493 510
f 510 493 499
f 481 491 294
f 294 491 248
f 582 583 581
f 581 583 584
f 586 587 585
f 585 587 588
f 585 588 589
f 589 588 590
f 592 593 591
f 591 593 594
f 595 596 598
f 598 596 597
f 599 600 586
f 586 600 587
f 601 602 604
f 604 602 603
f 605 606 608
f 608 606 607
f 609 607 200
f 200 607 606
f 610 611 613
f 613 611 612
f 600 614 587
f 587 614 592
f 596 605 597
f 597 605 608
f 602 615 603
f 603 615 583
f 616 614 584
f 584 614 600
f 611 618 617
f 617 618 590
f 620 621 619
f 619 621 622
f 610 623 611
f 611 623 618
f 624 589 618
f 618 589 590
f 617 590 591
f 591 590 588
f 581 625 582
f 582 625 626
f 599 627 581
f 581 627 625
f 591 594 617
f 617 594 628
f 601 610 598
f 598 610 613
f 581 584 599
f 599 584 600
f 585 629 586
f 586 629 630
f 615 616 583
f 583 616 584
f 587 592 588
f 588 592 591
f 582 626 631
f 631 626 632
f 624 620 633
f 633 620 619
f 621 620 604
f 604 620 623
f 631 632 621
f 621 632 622
f 610 601 623
f 623 601 604
f 589 624 634
f 634 624 633
f 586 630 599
f 599 630 627
f 203 202 628
f 628 202 612
f 629 585 634
f 634 585 589
f 609 593 614
f 614 593 592
f 620 624 623
f 623 624 618
f 631 621 603
f 603 621 604
f 582 631 583
f 583 631 603
f 634 633 636
f 636 633 635
f 634 636 629
f 629 636 637
f 629 637 630
f 630 637 638
f 630 638 627
f 627 638 639
f 633 619 635
f 635 619 640
f 619 622 640
f 640 622 641
f 641 622 642
f 642 622 632
f 644 635 643
f 643 635 640
f 645 646 648
f 648 646 647
f 649 650 646
f 646 650 647
f 647 650 652
f 652 650 651
f 652 653 655
f 655 653 654
f 651 656 652
f 652 656 653
f 655 648 652
f 652 648 647
f 648 657 645
f 645 657 658
f 650 649 651
f 651 649 659
f 649 637 659
f 659 637 636
f 649 660 637
f 637 660 638
f 661 660 646
f 646 660 649
f 662 661 645
f 645 661 646
f 651 659 656
f 656 659 644
f 644 659 635
f 635 659 636
f 663 662 658
f 658 662 645
f 664 661 665
f 665 661 662
f 663 666 662
f 662 666 665
f 667 664 668
f 668 664 665
f 664 667 670
f 670 667 669
f 666 671 665
f 665 671 668
f 661 664 660
f 660 664 670
f 660 670 638
f 638 670 639
f 658 672 663
f 663 672 673
f 658 657 672
f 672 657 674
f 653 656 675
f 675 656 644
f 653 675 654
f 654 675 676
f 675 644 677
f 677 644 643
f 676 675 678
f 678 675 677
f 679 680 676
f 676 680 654
f 674 680 672
f 672 680 679
f 627 639 625
f 625 639 681
f 626 682 632
f 632 682 642
f 681 682 625
f 625 682 626
f 669 683 681
f 681 683 682
f 667 684 669
f 669 684 683
f 682 683 642
f 642 683 685
f 681 639 669
f 669 639 670
f 686 641 685
f 685 641 642
f 641 686 640
f 640 686 643
f 686 687 643
f 643 687 677
f 687 686 688
f 688 686 685
f 689 687 690
f 690 687 688
f 683 684 685
f 685 684 688
f 684 691 688
f 688 691 690
f 687 689 677
f 677 689 678
f 693 678 692
f 692 678 689
f 692 695 694
f 694 695 696
f 692 689 695
f 695 689 690
f 692 694 693
f 693 694 673
f 693 673 679
f 679 673 672
f 679 676 693
f 693 676 678
f 684 667 691
f 691 667 668
f 696 691 671
f 671 691 668
f 696 695 691
f 691 695 690
f 694 696 666
f 666 696 671
f 666 663 694
f 694 663 673
f 648 655 657
f 657 655 674
f 674 655 680
f 680 655 654
f 593 162 594
f 594 162 290
f 598 597 601
f 601 597 602
f 615 608 616
f 616 608 607
f 607 609 616
f 616 609 614
f 697 595 613
f 613 595 598
f 597 608 602
f 602 608 615
f 594 290 628
f 628 290 203
f 628 612 617
f 617 612 611
f 593 609 162
f 162 609 200
f 105 29 698
f 698 29 699
f 268 126 701
f 701 126 700
f 126 125 700
f 700 125 702
f 252 703 250
f 250 703 704
f 32 268 705
f 705 268 701
f 288 105 706
f 706 105 698
f 29 32 699
f 699 32 705
f 707 251 706
f 706 251 288
f 250 704 125
f 125 704 702
f 703 252 707
f 707 252 251
f 706 708 707
f 707 708 709
f 707 709 703
f 703 709 710
f 703 710 704
f 704 710 711
f 704 711 702
f 702 711 712
f 706 698 708
f 708 698 713
f 698 699 713
f 713 699 714
f 699 705 714
f 714 705 715
f 717 708 716
f 716 708 713
f 719 720 718
f 718 720 721
f 722 723 719
f 719 723 720
f 724 725 723
f 723 725 720
f 724 726 725
f 725 726 727
f 728 721 725
f 725 721 720
f 721 728 729
f 729 728 730
f 729 731 721
f 721 731 718
f 724 723 732
f 732 723 722
f 722 710 732
f 732 710 709
f 722 733 710
f 710 733 711
f 719 734 722
f 722 734 733
f 734 719 735
f 735 719 718
f 724 732 726
f 726 732 717
f 717 732 708
f 708 732 709
f 731 736 718
f 718 736 735
f 737 734 738
f 738 734 735
f 736 739 735
f 735 739 738
f 740 737 741
f 741 737 738
f 737 740 743
f 743 740 742
f 739 744 738
f 738 744 741
f 734 737 733
f 733 737 743
f 733 743 711
f 711 743 712
f 736 731 746
f 746 731 745
f 731 729 745
f 745 729 730
f 727 726 747
f 747 726 717
f 748 727 749
f 749 727 747
f 747 717 750
f 750 717 716
f 749 747 751
f 751 747 750
f 749 752 748
f 748 752 753
f 730 753 745
f 745 753 752
f 728 725 748
f 748 725 727
f 730 728 753
f 753 728 748
f 700 702 754
f 754 702 712
f 705 701 715
f 715 701 755
f 754 755 700
f 700 755 701
f 742 756 754
f 754 756 755
f 740 757 742
f 742 757 756
f 755 756 715
f 715 756 758
f 754 712 742
f 742 712 743
f 759 714 758
f 758 714 715
f 714 759 713
f 713 759 716
f 759 760 716
f 716 760 750
f 760 759 761
f 761 759 758
f 762 760 763
f 763 760 761
f 756 757 758
f 758 757 761
f 757 764 761
f 761 764 763
f 760 762 750
f 750 762 751
f 766 751 765
f 765 751 762
f 767 765 769
f 769 765 768
f 765 762 768
f 768 762 763
f 765 767 766
f 766 767 746
f 766 746 752
f 752 746 745
f 752 749 766
f 766 749 751
f 757 740 764
f 764 740 741
f 769 764 744
f 744 764 741
f 769 768 764
f 764 768 763
f 767 769 739
f 739 769 744
f 739 736 767
f 767 736 746
f 219 217 208
f 208 217 209
f 209 217 210
f 210 217 193
f 198 580 199
f 199 580 511
f 76 75 289
f 289 75 272
f 277 207 291
f 291 207 184
f 290 183 203
f 203 183 84
f 490 580 142
f 142 580 198
f 142 198 143
f 143 198 197
f 149 276 72
f 72 276 73
f 104 103 279
f 279 103 770
f 770 596 279
f 279 596 595
f 605 596 771
f 771 596 770
f 771 770 772
f 772 770 103
f 772 103 773
f 773 103 102
f 155 774 101
f 101 774 102
f 773 102 97
f 97 102 774
f 775 773 100
f 100 773 97
f 773 775 772
f 772 775 776
f 772 776 771
f 771 776 777
f 200 606 197
f 197 606 777
f 189 71 778
f 778 71 74
f 97 774 98
f 98 774 155
f 183 161 184
f 184 161 291
f 777 276 197
f 197 276 143
f 777 606 771
f 771 606 605
f 613 612 697
f 697 612 202
f 595 697 279
f 279 697 202
f 73 276 776
f 776 276 777
f 776 775 73
f 73 775 74
f 100 778 775
f 775 778 74
f 778 100 189
f 189 100 99
f 245 242 99
f 99 242 189
f 131 33 256
f 28 1 95
f 95 1 62
f 27 2 28
f 28 2 1
f 265 115 266
f 266 115 114
f 95 62 69
f 69 62 64
f 62 61 64
f 64 61 65
f 61 13 65
f 65 13 130
f 13 12 130
f 130 12 14
f 31 11 32
f 32 11 268
f 15 12 31
f 31 12 11
f 31 30 15
f 15 30 231
f 30 106 231
f 231 106 232
f 287 237 106
f 106 237 232
f 254 90 287
f 287 90 237
f 253 44 254
f 254 44 90
f 253 249 44
f 44 249 7
f 267 127 268
f 268 127 126
f 10 3 241
f 241 3 116
f 3 2 116
f 116 2 114
f 2 27 114
f 114 27 266
f 27 26 266
f 266 26 113
f 26 286 113
f 113 286 110
f 286 243 110
f 110 243 255
f 243 242 255
f 255 242 256
f 242 245 256
f 256 245 131
f 245 244 131
f 131 244 132
f 265 37 115
f 115 37 41
f 41 37 42
f 42 37 40
f 92 91 40
f 40 91 42
f 236 233 92
f 92 233 91
f 191 194 236
f 236 194 233
f 258 285 244
f 244 285 132
f 257 55 258
f 258 55 285
f 257 154 201
f 201 154 185
f 56 201 204
f 204 201 180
f 55 257 56
f 56 257 201
f 204 85 56
f 56 85 52
f 86 122 53
f 53 122 79
f 212 215 86
f 86 215 122
f 211 216 212
f 212 216 215
f 192 280 211
f 211 280 216
f 191 240 192
f 192 240 280
f 249 124 7
f 7 124 8
f 124 127 8
f 8 127 241
f 127 267 241
f 241 267 10
f 10 267 9
f 9 267 11
o hand_right
v 0.047488 0.072158 0.863378
v 0.037844 0.071607 0.858435
v 0.043097 0.062086 0.859937
v 0.053075 0.063704 0.863907
v 0.023822 0.057558 0.847826
v 0.022637 0.053873 0.835901
v 0.032807 0.043203 0.842435
v 0.031199 0.047762 0.851819
v 0.058788 0.057879 0.863267
v 0.047522 0.055104 0.861039
v 0.062262 0.056638 0.859446
v 0.074788 0.064265 0.859057
v 0.069407 0.062554 0.863965
v 0.082224 0.068390 0.862268
v 0.075112 0.071578 0.850186
v 0.085432 0.077669 0.860290
v 0.065943 0.100579 0.854611
v 0.057831 0.109958 0.860441
v 0.070931 0.109566 0.873649
v 0.077051 0.099083 0.866441
v 0.053069 0.119326 0.880151
v 0.063444 0.113840 0.877215
v 0.051085 0.115369 0.863494
v 0.042309 0.119829 0.866728
v 0.036429 0.084697 0.864860
v 0.027401 0.085401 0.859313
v 0.031828 0.081439 0.858261
v 0.040215 0.080682 0.863362
v 0.062003 0.047348 0.851440
v 0.064146 0.057874 0.843329
v 0.065833 0.058278 0.851426
v 0.059495 0.047441 0.856550
v -0.000670 0.088250 0.850804
v -0.005906 0.092722 0.839005
v -0.002454 0.089397 0.835471
v 0.001910 0.086469 0.846978
v 0.010497 0.071677 0.829136
v 0.007072 0.079386 0.823415
v 0.012124 0.080617 0.810542
v 0.018544 0.074489 0.815014
v 0.016116 0.062237 0.833134
v 0.022170 0.063859 0.820596
v 0.028660 0.054503 0.825639
v 0.038092 0.042376 0.834529
v -0.011714 0.102401 0.845353
v -0.009130 0.100138 0.855098
v 0.091907 0.055584 0.906446
v 0.087791 0.059189 0.908978
v 0.087398 0.060382 0.905813
v 0.091733 0.056786 0.903809
v -0.005304 0.120821 0.851643
v 0.001035 0.127645 0.847608
v -0.005071 0.127729 0.843545
v -0.010287 0.120177 0.845893
v 0.001292 0.121694 0.859202
v 0.009494 0.126826 0.853225
v 0.103624 0.058428 0.911167
v 0.100659 0.054967 0.908607
v 0.102205 0.057779 0.904946
v 0.104915 0.062061 0.907057
v 0.062601 0.065081 0.866936
v 0.055371 0.071325 0.868733
v 0.075188 0.067178 0.878331
v 0.067773 0.070150 0.874682
v 0.071306 0.066097 0.869831
v 0.077922 0.064926 0.872975
v 0.051584 0.086489 0.881515
v 0.043218 0.086982 0.873439
v 0.048142 0.082755 0.871730
v 0.057770 0.080530 0.879942
v 0.032661 0.093872 0.880163
v 0.041961 0.093309 0.887235
v 0.034799 0.097422 0.889982
v 0.029015 0.096230 0.885036
v 0.059990 0.091070 0.896556
v 0.064243 0.091620 0.898230
v 0.060603 0.092360 0.899370
v 0.056793 0.092823 0.897556
v -0.010368 0.128382 0.838795
v -0.014345 0.119384 0.839806
v 0.033529 0.126821 0.888313
v 0.022319 0.124431 0.889501
v 0.029895 0.124501 0.901178
v 0.041155 0.128116 0.897177
v 0.009919 0.129091 0.842283
v 0.003173 0.131338 0.838898
v 0.103422 0.063689 0.914587
v 0.104368 0.067252 0.910699
v 0.037054 0.062595 0.819322
v 0.045863 0.046576 0.829733
v 0.029675 0.074600 0.813321
v 0.024691 0.083197 0.809493
v 0.019573 0.088003 0.804496
v 0.067231 0.073728 0.880303
v 0.048538 0.078005 0.867978
v 0.032757 0.087697 0.866836
v 0.012197 0.101584 0.885682
v 0.004744 0.101189 0.878441
v 0.012960 0.094375 0.876220
v 0.018090 0.096609 0.882798
v 0.016111 0.117269 0.893298
v 0.016671 0.108990 0.894103
v 0.022354 0.109993 0.899706
v 0.023082 0.118129 0.901318
v 0.062540 0.043350 0.844862
v 0.061434 0.056511 0.836081
v -0.009544 0.111246 0.853800
v -0.012532 0.110206 0.846557
v -0.016055 0.111794 0.838892
v 0.013626 0.085581 0.854637
v 0.003642 0.085125 0.844367
v 0.006368 0.082067 0.842716
v 0.016400 0.084584 0.853274
v 0.026314 0.070423 0.853947
v 0.016092 0.068711 0.845002
v 0.031883 0.060340 0.857018
v 0.001037 0.085186 0.829365
v -0.008093 0.090922 0.826884
v -0.003011 0.086634 0.820837
v -0.012779 0.097800 0.832234
v -0.015803 0.105023 0.836658
v -0.002165 0.135474 0.833640
v 0.003000 0.083842 0.815493
v 0.037497 0.041411 0.854598
v 0.042893 0.035605 0.857326
v 0.046570 0.041220 0.861339
v 0.041884 0.047087 0.859624
v 0.089316 0.069913 0.868441
v 0.083490 0.065040 0.870556
v 0.076464 0.064535 0.864642
v 0.003356 0.090422 0.861545
v -0.004127 0.100313 0.864812
v 0.074831 0.070969 0.883844
v 0.104365 0.065056 0.901841
v 0.101554 0.060081 0.899825
v 0.095276 0.065731 0.882347
v 0.099022 0.071384 0.884295
v 0.080252 0.077016 0.890694
v 0.077497 0.071726 0.887426
v 0.078976 0.072652 0.889463
v 0.080609 0.077296 0.893953
v 0.052501 0.097129 0.900646
v 0.049305 0.096898 0.899250
v 0.084962 0.094688 0.879821
v 0.092096 0.088444 0.869100
v 0.082900 0.089373 0.860450
v 0.045816 0.090641 0.884054
v 0.052807 0.090681 0.891507
v 0.049749 0.093071 0.893047
v 0.068399 0.076060 0.884265
v 0.074498 0.075405 0.887813
v 0.071250 0.078927 0.888214
v 0.064695 0.079835 0.885542
v 0.014548 0.124503 0.878359
v 0.007472 0.116377 0.883424
v 0.096486 0.054034 0.906627
v 0.097218 0.055833 0.903500
v 0.037723 0.090968 0.876108
v 0.071090 0.090228 0.851122
v 0.028645 0.090517 0.869264
v 0.054597 0.114255 0.902069
v 0.048189 0.109118 0.905858
v 0.048919 0.106393 0.907356
v 0.054209 0.108578 0.907312
v 0.086366 0.072833 0.907489
v 0.084150 0.067587 0.906058
v 0.085824 0.065717 0.908896
v 0.088110 0.070572 0.911573
v 0.078332 0.067366 0.883493
v 0.081567 0.064138 0.878756
v 0.083358 0.063609 0.884521
v 0.080416 0.067917 0.887645
v 0.087445 0.064549 0.876649
v 0.089387 0.063098 0.882255
v 0.092087 0.076134 0.908163
v 0.099641 0.075226 0.907247
v 0.094097 0.082387 0.891635
v 0.087313 0.081121 0.895461
v 0.033215 0.121862 0.854143
v 0.024152 0.125629 0.859670
v 0.033098 0.124075 0.872377
v 0.042515 0.123997 0.885525
v 0.051615 0.121891 0.897132
v 0.062187 0.119177 0.891698
v 0.025402 0.126201 0.875161
v 0.081285 0.084462 0.888294
v 0.089637 0.086837 0.883309
v 0.084373 0.088632 0.886161
v 0.023075 0.092941 0.873721
v 0.096472 0.057528 0.899057
v 0.030296 0.105187 0.812966
v 0.026511 0.116312 0.819392
v 0.032704 0.112777 0.824612
v 0.036591 0.099754 0.817826
v 0.085570 0.061475 0.903032
v 0.089970 0.057495 0.900100
v 0.044301 0.099257 0.902967
v 0.048050 0.099361 0.904008
v 0.045797 0.101677 0.905298
v 0.041700 0.101593 0.906632
v 0.018409 0.126820 0.861456
v 0.031915 0.118820 0.909519
v 0.043173 0.122305 0.905339
v 0.016926 0.126973 0.848542
v 0.024974 0.124328 0.843484
v 0.018762 0.126541 0.836177
v 0.072643 0.108289 0.890852
v 0.040727 0.117964 0.851846
v 0.031130 0.120414 0.840913
v 0.023993 0.122881 0.832064
v 0.018823 0.125585 0.826026
v 0.013558 0.129192 0.831175
v 0.103302 0.070654 0.905180
v 0.100398 0.072153 0.913687
v 0.008222 0.133714 0.825332
v 0.014075 0.128896 0.819893
v 0.037558 0.114877 0.837191
v 0.044458 0.106862 0.832943
v 0.046467 0.112484 0.847971
v 0.054172 0.104491 0.844517
v 0.081577 0.107813 0.883400
v 0.092394 0.062882 0.926714
v 0.093802 0.069967 0.918304
v 0.088741 0.068377 0.915676
v 0.088261 0.063280 0.925237
v 0.093251 0.073183 0.913397
v 0.099379 0.068541 0.917631
v 0.059870 0.091306 0.839750
v 0.075859 0.079486 0.890238
v 0.048395 0.090459 0.826754
v 0.067137 0.074417 0.839141
v 0.057244 0.072349 0.830095
v 0.036564 0.087409 0.813295
v 0.045094 0.073619 0.818787
v 0.024399 0.097664 0.804671
v 0.030603 0.093929 0.809720
v 0.051751 0.058853 0.826004
v 0.087487 0.052356 0.914911
v 0.084503 0.057036 0.917095
v 0.024966 0.108619 0.807473
v 0.037629 0.052896 0.858615
v 0.015762 0.090456 0.866022
v 0.020382 0.088859 0.863032
v 0.000950 0.100831 0.873332
v 0.008855 0.092596 0.869680
v 0.092322 0.049770 0.914837
v 0.065224 0.093560 0.899829
v 0.063547 0.093414 0.898943
v 0.037956 0.036721 0.847087
v 0.042469 0.032054 0.850518
v 0.053327 0.032341 0.842912
v 0.047004 0.030180 0.845589
v 0.042848 0.035549 0.839990
v 0.049498 0.038148 0.836666
v 0.011539 0.086327 0.856224
v 0.008840 0.087890 0.858749
v 0.007153 0.123116 0.868409
v 0.001015 0.114838 0.874020
v 0.092542 0.068726 0.875625
v 0.093024 0.077804 0.868894
v 0.095701 0.075092 0.876725
v 0.098123 0.078378 0.885973
v 0.078654 0.080841 0.890620
v 0.084087 0.082312 0.889894
v 0.011094 0.076011 0.844187
v 0.021164 0.079666 0.852847
v 0.049953 0.050805 0.860706
v 0.053106 0.045931 0.861444
v 0.058602 0.085142 0.887003
v 0.074925 0.099764 0.897780
v 0.081684 0.098406 0.891331
v 0.065891 0.084943 0.891940
v 0.098858 0.051475 0.920049
v 0.095702 0.049481 0.916704
v 0.095316 0.082284 0.878120
v 0.042550 0.096477 0.895936
v 0.070132 0.103111 0.898519
v 0.069536 0.097758 0.901019
v 0.025702 0.115282 0.905601
v 0.020672 0.119128 0.813237
v 0.085831 0.064274 0.912717
v 0.084139 0.061327 0.920146
v 0.096408 0.061297 0.926045
v 0.099797 0.057015 0.923069
v -0.004001 0.111941 0.864473
v 0.023738 0.087684 0.861451
v 0.055978 0.046957 0.833917
v 0.058752 0.037694 0.842451
v 0.069939 0.085876 0.893219
v 0.048141 0.115647 0.905059
v 0.063398 0.112109 0.900482
v 0.062355 0.105402 0.907500
v 0.066244 0.098816 0.905994
v 0.065097 0.092818 0.902991
v 0.093498 0.057850 0.930147
v 0.096784 0.053490 0.927302
v 0.095780 0.048319 0.923774
v 0.093221 0.046915 0.920119
v 0.090026 0.048346 0.917498
v 0.089273 0.059589 0.930662
v 0.085703 0.060039 0.928803
v 0.083074 0.059755 0.922924
v 0.085519 0.057052 0.932673
v 0.088025 0.052730 0.934692
v 0.084948 0.040182 0.928923
v 0.089941 0.043531 0.928504
v 0.088376 0.043349 0.930823
v 0.084214 0.040744 0.932050
v 0.080170 0.038730 0.934686
v 0.080422 0.037601 0.931345
v 0.089740 0.047594 0.932488
v 0.084064 0.044496 0.934806
v 0.082453 0.048120 0.936368
v 0.078385 0.045050 0.938697
v 0.079784 0.041695 0.937567
v 0.086597 0.049915 0.934982
v 0.091924 0.048832 0.931854
v 0.076837 0.037326 0.934304
v 0.077919 0.038022 0.936470
v 0.077061 0.040476 0.938569
v 0.074167 0.039711 0.937888
v 0.089734 0.044315 0.922557
v 0.083704 0.040085 0.926598
v 0.078353 0.038802 0.929261
v 0.075039 0.038484 0.932446
v 0.080179 0.041845 0.925287
v 0.076504 0.040863 0.928181
v 0.073552 0.041067 0.930941
v 0.077016 0.044822 0.925227
v 0.074577 0.043471 0.928192
v 0.084894 0.049916 0.918974
v 0.088045 0.047065 0.918933
v 0.072749 0.042792 0.929879
v 0.072599 0.040733 0.936710
v 0.081834 0.051771 0.935910
v 0.076459 0.047501 0.937823
v 0.080197 0.053249 0.934840
v 0.074969 0.049222 0.937124
v 0.073849 0.044311 0.939571
v 0.076170 0.043218 0.939378
v 0.086422 0.052044 0.916888
v 0.083533 0.056909 0.919348
v 0.082209 0.055244 0.921171
v 0.075082 0.049089 0.926705
v 0.081299 0.057892 0.924698
v 0.082248 0.057603 0.930490
v 0.077567 0.053420 0.933280
v 0.075572 0.052644 0.930487
v 0.073825 0.049838 0.934883
v 0.073221 0.049177 0.932459
v 0.072966 0.046553 0.929552
v 0.071761 0.046342 0.935385
v 0.072614 0.045418 0.938083
v 0.071792 0.042750 0.934081
v 0.071791 0.046946 0.933525
v 0.072208 0.044343 0.931985
v 0.063078 0.066106 0.910742
v 0.058958 0.070611 0.912809
v 0.062322 0.072737 0.910936
v 0.065782 0.068859 0.909229
v 0.073014 0.064246 0.920691
v 0.070077 0.062642 0.915219
v 0.074437 0.065771 0.913711
v 0.077134 0.068973 0.919433
v 0.072027 0.069719 0.925636
v 0.075612 0.074654 0.923494
v 0.080161 0.073086 0.915598
v 0.077107 0.069504 0.910126
v 0.080190 0.081574 0.893678
v 0.083256 0.086048 0.897201
v 0.064348 0.088940 0.897862
v 0.064402 0.091333 0.900608
v 0.066300 0.063914 0.911889
v 0.070029 0.066578 0.910405
v 0.060820 0.081653 0.914327
v 0.060474 0.077757 0.910335
v 0.059715 0.076258 0.913306
v 0.060266 0.079335 0.917907
v 0.072227 0.080759 0.891851
v 0.068584 0.085151 0.894900
v 0.076001 0.080202 0.892077
v 0.064955 0.084010 0.919094
v 0.071287 0.083651 0.921861
v 0.075621 0.095612 0.905849
v 0.069463 0.095212 0.906046
v 0.072655 0.068682 0.907161
v 0.063052 0.073108 0.907679
v 0.067165 0.069936 0.906007
v 0.077818 0.079354 0.919207
v 0.068822 0.078893 0.925679
v 0.052484 0.067814 0.929269
v 0.060133 0.076174 0.925235
v 0.057274 0.076015 0.920797
v 0.048976 0.068457 0.925592
v 0.063299 0.080212 0.922651
v 0.065355 0.074172 0.927407
v 0.051251 0.058709 0.915636
v 0.047598 0.063631 0.917655
v 0.054566 0.055601 0.916648
v 0.081504 0.091708 0.901278
v 0.061776 0.056027 0.924250
v 0.058082 0.054602 0.918942
v 0.056705 0.074360 0.915911
v 0.046774 0.066975 0.921379
v 0.056269 0.065618 0.930817
v 0.061963 0.061198 0.928847
v 0.051727 0.061585 0.931852
v 0.055982 0.057031 0.930328
v 0.056225 0.052278 0.925674
v 0.053879 0.052000 0.920308
v 0.051520 0.053946 0.917689
v 0.048258 0.063864 0.930457
v 0.045265 0.065115 0.926879
v 0.044948 0.064777 0.921823
v 0.041671 0.060553 0.929545
v 0.043672 0.056996 0.931737
v 0.037738 0.042381 0.922004
v 0.043093 0.044884 0.923161
v 0.042138 0.045382 0.925579
v 0.037179 0.043158 0.924682
v 0.048071 0.047318 0.926157
v 0.045843 0.047528 0.927393
v 0.045289 0.051236 0.930240
v 0.039964 0.048726 0.928365
v 0.038187 0.053085 0.929710
v 0.033180 0.050359 0.929283
v 0.034735 0.045871 0.928206
v 0.042357 0.053744 0.931010
v 0.033633 0.042390 0.924721
v 0.032110 0.042063 0.922624
v 0.048235 0.052141 0.931097
v 0.050746 0.049294 0.921099
v 0.042744 0.045329 0.920069
v 0.036474 0.043441 0.919135
v 0.030474 0.043901 0.920771
v 0.040572 0.047711 0.917285
v 0.034852 0.045784 0.917519
v 0.030208 0.046327 0.919493
v 0.037948 0.051484 0.915895
v 0.032655 0.049406 0.916947
v 0.047331 0.056402 0.916407
v 0.049551 0.052239 0.917416
v 0.030663 0.048456 0.918410
v 0.029212 0.044201 0.925920
v 0.027743 0.045835 0.923341
v 0.030865 0.044365 0.926838
v 0.037305 0.055067 0.929618
v 0.031844 0.051907 0.928306
v 0.035828 0.057104 0.928190
v 0.030216 0.053113 0.926912
v 0.028502 0.048644 0.927507
v 0.029673 0.047550 0.928138
v 0.049146 0.057598 0.917037
v 0.046271 0.062262 0.918713
v 0.044759 0.061256 0.917982
v 0.035596 0.055891 0.917879
v 0.043006 0.063797 0.921640
v 0.041097 0.062579 0.926408
v 0.035160 0.058649 0.925829
v 0.034499 0.058371 0.921834
v 0.029476 0.054665 0.925521
v 0.030640 0.055537 0.922555
v 0.031289 0.053015 0.918439
v 0.026831 0.050938 0.924556
v 0.027418 0.049488 0.926363
v 0.027868 0.047503 0.921828
v 0.028091 0.052585 0.922384
v 0.028897 0.049925 0.919940
v 0.044627 0.076979 0.909822
v 0.040781 0.081137 0.911275
v 0.043372 0.083502 0.910435
v 0.047406 0.079532 0.909434
v 0.051598 0.073902 0.920266
v 0.050296 0.072679 0.915593
v 0.053820 0.075730 0.915049
v 0.056037 0.077928 0.919555
v 0.048740 0.076085 0.924777
v 0.054422 0.081827 0.924089
v 0.059671 0.082064 0.918054
v 0.056810 0.078847 0.913777
v 0.062846 0.089501 0.905725
v 0.064741 0.093217 0.910670
v 0.047695 0.074272 0.911915
v 0.050603 0.076829 0.911403
v 0.041006 0.090190 0.915118
v 0.041395 0.087179 0.911028
v 0.040814 0.086694 0.914068
v 0.040852 0.088223 0.918328
v 0.055199 0.091066 0.899147
v 0.050699 0.094941 0.900626
v 0.058833 0.088922 0.901548
v 0.044558 0.091719 0.920527
v 0.051104 0.091008 0.923765
v 0.053304 0.102149 0.914043
v 0.048147 0.101903 0.910707
v 0.053118 0.078659 0.910216
v 0.044292 0.083915 0.907769
v 0.048668 0.080332 0.907381
v 0.057223 0.086975 0.921634
v 0.048695 0.085821 0.926024
v 0.030153 0.072130 0.926458
v 0.040755 0.084470 0.924561
v 0.038178 0.085319 0.919218
v 0.027715 0.073796 0.923074
v 0.043188 0.087946 0.923573
v 0.044934 0.081138 0.926820
v 0.032557 0.067337 0.911672
v 0.029423 0.071436 0.913769
v 0.036354 0.065362 0.913095
v 0.061366 0.098736 0.914188
v 0.045735 0.099473 0.905505
v 0.039261 0.063205 0.919799
v 0.038221 0.063800 0.915540
v 0.038505 0.084300 0.915008
v 0.027249 0.073920 0.918410
v 0.034278 0.069687 0.927661
v 0.038824 0.066072 0.925179
v 0.029670 0.066269 0.927472
v 0.034072 0.062564 0.924885
v 0.034974 0.059713 0.919719
v 0.034197 0.060837 0.915385
v 0.032585 0.062762 0.912922
v 0.025769 0.068951 0.926013
v 0.024017 0.070602 0.922801
v 0.026032 0.072223 0.918216
v 0.021829 0.066803 0.924999
v 0.023810 0.061848 0.926408
v 0.018045 0.050370 0.915193
v 0.023066 0.053242 0.916252
v 0.022640 0.053366 0.917425
v 0.017686 0.050224 0.916896
v 0.028501 0.055818 0.919390
v 0.026638 0.055339 0.919922
v 0.025913 0.057317 0.923281
v 0.020236 0.054423 0.922055
v 0.017606 0.059558 0.923932
v 0.013585 0.056434 0.922614
v 0.015649 0.051410 0.921136
v 0.022963 0.060182 0.925241
v 0.014586 0.049179 0.917141
v 0.014473 0.048034 0.915564
v 0.028017 0.058370 0.924153
v 0.029955 0.057302 0.914895
v 0.023291 0.053899 0.913354
v 0.018183 0.051028 0.912022
v 0.013815 0.050254 0.912664
v 0.022004 0.056723 0.911066
v 0.017354 0.053822 0.910685
v 0.013448 0.053005 0.911326
v 0.020327 0.059577 0.910536
v 0.016178 0.056886 0.910571
v 0.028539 0.064679 0.911837
v 0.029717 0.060683 0.912480
v 0.013468 0.055343 0.911268
v 0.011175 0.049799 0.918624
v 0.009543 0.052440 0.915711
v 0.012647 0.050395 0.919343
v 0.017230 0.061376 0.924258
v 0.011718 0.057923 0.922528
v 0.016279 0.063743 0.922925
v 0.010890 0.060164 0.921142
v 0.009849 0.054231 0.921138
v 0.010966 0.053760 0.921316
v 0.030620 0.066247 0.912261
v 0.027983 0.070188 0.914220
v 0.026193 0.068628 0.913633
v 0.017516 0.063094 0.912109
v 0.024088 0.070783 0.917415
v 0.020507 0.068381 0.921796
v 0.015755 0.065006 0.919884
v 0.015694 0.064896 0.916032
v 0.011043 0.061533 0.918663
v 0.012471 0.062024 0.916197
v 0.013810 0.060076 0.911849
v 0.009547 0.057956 0.917089
v 0.008890 0.056213 0.919446
v 0.010112 0.054883 0.913714
v 0.010620 0.059239 0.915179
v 0.011214 0.056934 0.912643
v 0.047312 0.097567 0.902729
v 0.027051 0.087315 0.917104
v 0.024194 0.090483 0.917899
v 0.024989 0.090824 0.918419
v 0.028370 0.088217 0.916694
v 0.035145 0.086836 0.925351
v 0.033019 0.084921 0.921457
v 0.036533 0.087088 0.920683
v 0.038462 0.089242 0.924211
v 0.034113 0.090688 0.928811
v 0.036451 0.093126 0.927688
v 0.039994 0.092548 0.921779
v 0.038354 0.089976 0.918287
v 0.043486 0.103170 0.908650
v 0.044384 0.108151 0.910993
v 0.025733 0.111968 0.910597
v 0.026657 0.107188 0.906090
v 0.024184 0.104273 0.912789
v 0.024647 0.108046 0.915684
v 0.030151 0.085460 0.918625
v 0.032771 0.086859 0.917354
v 0.023120 0.097991 0.924689
v 0.022732 0.094885 0.920712
v 0.022844 0.093920 0.920527
v 0.022055 0.096723 0.924381
v 0.030396 0.103125 0.904592
v 0.035955 0.101597 0.904891
v 0.033161 0.100172 0.907060
v 0.027049 0.100517 0.910648
v 0.038116 0.100086 0.907416
v 0.026539 0.099453 0.927465
v 0.032625 0.099069 0.928609
v 0.033133 0.114093 0.917906
v 0.028261 0.112089 0.917070
v 0.034366 0.088267 0.916869
v 0.025293 0.091866 0.917610
v 0.028785 0.089036 0.916873
v 0.038379 0.096502 0.925754
v 0.030772 0.096344 0.929411
v 0.018523 0.091395 0.930118
v 0.023601 0.096681 0.928278
v 0.021052 0.096322 0.924024
v 0.016917 0.091939 0.927238
v 0.024991 0.097326 0.927889
v 0.028291 0.094168 0.930364
v 0.021491 0.084107 0.918272
v 0.018521 0.088293 0.920124
v 0.024018 0.081974 0.919296
v 0.040902 0.112667 0.914154
v 0.027628 0.081299 0.926019
v 0.025798 0.080503 0.921935
v 0.021951 0.093390 0.920284
v 0.016794 0.090980 0.923417
v 0.022141 0.088846 0.932012
v 0.027054 0.085033 0.930546
v 0.018821 0.085451 0.932040
v 0.023687 0.081762 0.930250
v 0.024208 0.078759 0.924837
v 0.023403 0.079642 0.921081
v 0.021879 0.081417 0.918803
v 0.015554 0.088518 0.930192
v 0.014538 0.089615 0.927467
v 0.015337 0.089648 0.923606
v 0.012574 0.085640 0.929946
v 0.014333 0.081170 0.930768
v 0.010341 0.072831 0.920831
v 0.014198 0.074541 0.921373
v 0.013956 0.074479 0.922590
v 0.010428 0.072270 0.921811
v 0.018873 0.076317 0.923786
v 0.017353 0.075997 0.924646
v 0.017417 0.077830 0.927836
v 0.012757 0.075227 0.926713
v 0.009410 0.078715 0.929182
v 0.006120 0.076202 0.928044
v 0.009422 0.073156 0.926255
v 0.013972 0.079386 0.930014
v 0.008007 0.070909 0.922457
v 0.007095 0.070538 0.921423
v 0.019247 0.078464 0.928661
v 0.019709 0.077963 0.920027
v 0.013507 0.074998 0.918915
v 0.008829 0.072702 0.918910
v 0.005323 0.071694 0.920334
v 0.013252 0.077186 0.917505
v 0.007890 0.074351 0.917501
v 0.004552 0.073529 0.919028
v 0.011920 0.080274 0.916982
v 0.007173 0.076911 0.917438
v 0.017381 0.083916 0.917723
v 0.018797 0.080562 0.918029
v 0.004788 0.075312 0.918838
v 0.004837 0.071257 0.924616
v 0.003143 0.072841 0.922641
v 0.006110 0.071446 0.925658
v 0.008760 0.080000 0.929387
v 0.004682 0.077109 0.927917
v 0.007703 0.082160 0.928572
v 0.003608 0.078506 0.926567
v 0.003315 0.074092 0.926429
v 0.005123 0.073728 0.927040
v 0.019142 0.084254 0.918087
v 0.017250 0.087397 0.920004
v 0.015169 0.087007 0.920004
v 0.009881 0.083353 0.918928
v 0.013296 0.088704 0.923848
v 0.012349 0.087841 0.927596
v 0.007277 0.083771 0.926315
v 0.007690 0.084514 0.922931
v 0.003211 0.079386 0.924548
v 0.004021 0.080358 0.921721
v 0.005517 0.079508 0.918830
v 0.002314 0.076002 0.922868
v 0.002211 0.074983 0.924503
v 0.002887 0.074443 0.921247
v 0.002841 0.077137 0.921322
v 0.003576 0.076386 0.920028
v 0.028185 0.113759 0.913070
v 0.066544 0.032494 0.855465
v 0.065289 0.036135 0.859895
v 0.051656 0.029892 0.866589
v 0.057051 0.034430 0.867518
v 0.049717 0.024474 0.862860
v 0.054118 0.020761 0.853663
v 0.050347 0.022200 0.857549
v 0.061940 0.036781 0.864970
v 0.064902 0.028106 0.851574
v 0.059791 0.023103 0.850282
v 0.071706 0.023813 0.856179
v 0.065970 0.017757 0.855408
v 0.060486 0.014899 0.858741
v 0.054986 0.017974 0.862887
v 0.053051 0.020953 0.866647
v 0.070477 0.030429 0.860047
v 0.068266 0.033979 0.864004
v 0.063087 0.034544 0.868439
v 0.073553 0.029894 0.867013
v 0.075664 0.022215 0.872588
v 0.067644 0.009881 0.885546
v 0.064601 0.011711 0.879604
v 0.067418 0.011940 0.879188
v 0.070015 0.009789 0.884409
v 0.065189 0.012752 0.873916
v 0.067203 0.013465 0.875086
v 0.071086 0.016601 0.873020
v 0.073198 0.014717 0.878079
v 0.074457 0.020341 0.874373
v 0.075933 0.020308 0.878359
v 0.075437 0.013043 0.882971
v 0.073240 0.009144 0.886720
v 0.077091 0.011740 0.887205
v 0.071528 0.009727 0.889301
v 0.072562 0.015043 0.870471
v 0.059120 0.014383 0.870936
v 0.061220 0.013099 0.879613
v 0.064860 0.011988 0.886810
v 0.069744 0.011963 0.890838
v 0.058974 0.016606 0.880868
v 0.063219 0.016025 0.887045
v 0.068002 0.016540 0.890452
v 0.059227 0.021372 0.881862
v 0.063857 0.019952 0.886909
v 0.054803 0.025527 0.871709
v 0.054772 0.019238 0.870844
v 0.067344 0.019008 0.889204
v 0.077163 0.012311 0.889948
v 0.075220 0.014926 0.891517
v 0.076682 0.023634 0.877990
v 0.078540 0.018566 0.882704
v 0.078386 0.021429 0.883575
v 0.075443 0.027454 0.877700
v 0.077312 0.023936 0.884491
v 0.079320 0.017622 0.887675
v 0.079036 0.015670 0.885642
v 0.053380 0.026613 0.869260
v 0.057318 0.031776 0.869582
v 0.058755 0.030950 0.871533
v 0.062662 0.027108 0.881232
v 0.064312 0.033977 0.871318
v 0.070138 0.033107 0.869166
v 0.072817 0.029891 0.878916
v 0.068079 0.030207 0.880104
v 0.074170 0.025495 0.885418
v 0.071083 0.025557 0.885754
v 0.066739 0.023407 0.886898
v 0.074482 0.021690 0.889028
v 0.077682 0.020121 0.888827
v 0.072245 0.018447 0.890970
v 0.071991 0.022676 0.888170
v 0.069880 0.020673 0.889294
v 0.025142 0.108497 0.902402
v 0.029472 0.103301 0.900525
v 0.025342 0.104481 0.897603
v 0.019094 0.103022 0.892532
v 0.011021 0.107534 0.887991
v 0.023998 0.098945 0.889214
v 0.030375 0.100622 0.895046
v 0.036947 0.099427 0.899750
v 0.023605 0.095236 0.879911
f 780 781 779
f 779 781 782
f 783 784 786
f 786 784 785
f 787 782 788
f 788 782 781
f 790 791 789
f 789 791 787
f 792 790 794
f 794 790 793
f 796 797 795
f 795 797 798
f 800 801 799
f 799 801 802
f 804 805 803
f 803 805 806
f 808 809 807
f 807 809 810
f 811 812 814
f 814 812 813
f 815 816 818
f 818 816 817
f 819 820 784
f 784 820 821
f 784 821 785
f 785 821 822
f 823 812 824
f 824 812 811
f 826 827 825
f 825 827 828
f 830 831 829
f 829 831 832
f 834 830 833
f 833 830 829
f 836 837 835
f 835 837 838
f 839 840 782
f 782 840 779
f 842 843 841
f 841 843 844
f 846 847 845
f 845 847 848
f 850 851 849
f 849 851 852
f 854 855 853
f 853 855 856
f 831 857 832
f 832 857 858
f 860 861 859
f 859 861 862
f 863 864 830
f 830 864 831
f 835 838 865
f 865 838 866
f 867 868 821
f 821 868 822
f 821 820 867
f 867 820 869
f 818 817 870
f 870 817 871
f 872 848 842
f 842 848 847
f 791 839 787
f 787 839 782
f 803 806 847
f 847 806 873
f 874 803 846
f 846 803 847
f 876 877 875
f 875 877 878
f 879 880 882
f 882 880 881
f 884 808 883
f 883 808 807
f 829 832 885
f 885 832 886
f 832 858 886
f 886 858 887
f 889 890 888
f 888 890 891
f 893 783 892
f 892 783 894
f 893 819 783
f 783 819 784
f 814 813 889
f 889 813 895
f 813 896 895
f 895 896 897
f 812 898 813
f 813 898 896
f 812 823 898
f 898 823 899
f 903 904 902
f 902 904 905
f 906 907 792
f 792 907 908
f 811 909 824
f 824 909 910
f 911 872 841
f 841 872 842
f 912 913 915
f 915 913 914
f 917 918 916
f 916 918 919
f 855 920 856
f 856 920 921
f 922 923 798
f 798 923 924
f 926 927 925
f 925 927 850
f 929 930 928
f 928 930 931
f 860 879 861
f 861 879 882
f 879 860 933
f 933 860 932
f 934 935 836
f 836 935 837
f 936 846 925
f 925 846 845
f 937 924 793
f 793 924 794
f 846 936 874
f 874 936 938
f 907 844 908
f 908 844 843
f 940 941 939
f 939 941 942
f 944 945 943
f 943 945 946
f 948 949 947
f 947 949 950
f 952 949 951
f 951 949 948
f 954 955 953
f 953 955 956
f 958 959 957
f 957 959 802
f 960 961 799
f 799 961 962
f 859 963 860
f 860 963 932
f 964 965 966
f 966 965 922
f 936 849 938
f 938 849 967
f 968 913 935
f 935 913 837
f 947 950 917
f 917 950 918
f 925 850 936
f 936 850 849
f 970 971 969
f 969 971 972
f 945 944 827
f 827 944 973
f 974 968 828
f 828 968 935
f 975 976 978
f 978 976 977
f 799 802 960
f 960 802 959
f 924 937 798
f 798 937 795
f 960 959 859
f 859 959 963
f 979 963 958
f 958 963 959
f 980 981 861
f 861 981 862
f 983 984 982
f 982 984 863
f 985 800 962
f 962 800 799
f 957 802 986
f 986 802 801
f 986 987 957
f 957 987 983
f 987 988 983
f 983 988 984
f 990 984 989
f 989 984 988
f 957 983 958
f 958 983 982
f 991 954 866
f 866 954 992
f 864 863 990
f 990 863 984
f 971 995 996
f 995 997 996
f 996 997 998
f 997 796 998
f 998 796 795
f 797 999 798
f 798 999 922
f 1000 1001 1003
f 1003 1001 1002
f 953 1004 954
f 954 1004 992
f 1005 865 992
f 992 865 866
f 998 795 1006
f 1006 795 937
f 912 991 838
f 838 991 866
f 916 1007 929
f 929 1007 930
f 971 970 988
f 988 970 989
f 1008 972 996
f 996 972 971
f 1009 1010 1006
f 1006 1010 1008
f 1011 1012 869
f 869 1012 867
f 1013 1014 871
f 871 1014 870
f 1008 1010 1012
f 1012 1010 1015
f 825 1016 826
f 826 1016 1017
f 1018 969 1013
f 1013 969 1014
f 783 786 894
f 894 786 1019
f 1020 1021 967
f 967 1021 938
f 1022 1023 876
f 876 1023 877
f 934 1024 825
f 825 1024 1016
f 854 1025 855
f 855 1025 1026
f 1028 903 1027
f 1027 903 902
f 1030 1031 1029
f 1029 1031 1032
f 889 888 814
f 814 888 1033
f 1034 811 1033
f 1033 811 814
f 1035 1036 932
f 932 1036 933
f 841 947 911
f 911 947 917
f 844 948 841
f 841 948 947
f 951 948 907
f 907 948 844
f 907 906 951
f 951 906 1037
f 906 1038 1037
f 1037 1038 1039
f 991 912 1040
f 1040 912 915
f 1041 1042 964
f 964 1042 965
f 890 1043 891
f 891 1043 1044
f 789 1045 1046
f 1012 1011 1008
f 1008 1011 972
f 931 1047 848
f 848 1047 845
f 953 956 943
f 943 956 919
f 928 931 872
f 872 931 848
f 1049 999 1048
f 1048 999 985
f 1047 931 1050
f 1050 931 930
f 899 823 887
f 887 823 886
f 825 828 934
f 934 828 935
f 835 1051 836
f 836 1051 1052
f 923 1053 1038
f 1038 1053 1039
f 1054 927 921
f 921 927 856
f 926 1047 853
f 853 1047 1050
f 985 1055 1048
f 1048 1055 1056
f 973 974 827
f 827 974 828
f 837 913 838
f 838 913 912
f 861 882 980
f 980 882 1057
f 927 926 856
f 856 926 853
f 1025 1056 1026
f 1026 1056 1055
f 961 960 862
f 862 960 859
f 826 1017 1059
f 1059 1017 1060
f 1005 1001 1061
f 1061 1001 1000
f 1001 1004 1002
f 1002 1004 946
f 1059 1060 1002
f 1002 1060 1003
f 943 946 953
f 953 946 1004
f 1042 1041 916
f 916 1041 1007
f 792 794 906
f 906 794 1038
f 998 1006 996
f 996 1006 1008
f 865 1005 1062
f 1062 1005 1061
f 1038 794 923
f 923 794 924
f 1022 876 1036
f 1036 876 933
f 836 1052 934
f 934 1052 1024
f 885 1063 829
f 829 1063 833
f 1021 1064 938
f 938 1064 874
f 1012 1015 867
f 867 1015 868
f 824 910 885
f 885 910 1063
f 1031 1030 1027
f 1027 1030 1028
f 1064 804 874
f 874 804 803
f 884 883 1065
f 1065 883 1066
f 1050 930 1067
f 1067 930 1007
f 916 929 917
f 917 929 911
f 961 1068 939
f 939 1068 940
f 1069 1070 1055
f 1055 1070 1071
f 929 928 911
f 911 928 872
f 1040 1053 955
f 955 1053 965
f 922 965 923
f 923 965 1053
f 1051 835 1062
f 1062 835 865
f 952 914 968
f 968 914 913
f 889 895 890
f 890 895 816
f 895 897 816
f 816 897 901
f 890 816 1043
f 1043 816 815
f 1065 1066 1032
f 1032 1066 1029
f 1006 937 1009
f 1009 937 793
f 1001 1005 1004
f 1004 1005 992
f 925 845 926
f 926 845 1047
f 1002 946 1059
f 1059 946 945
f 977 941 978
f 978 941 940
f 823 824 886
f 886 824 885
f 1059 945 826
f 826 945 827
f 939 942 1069
f 1069 942 1070
f 816 901 817
f 1071 1072 1055
f 1055 1072 1026
f 1062 1061 1074
f 1074 1061 1073
f 1062 1074 1051
f 1051 1074 1075
f 1052 1051 1076
f 1076 1051 1075
f 1024 1052 1077
f 1077 1052 1076
f 1061 1000 1073
f 1073 1000 1078
f 1000 1003 1078
f 1078 1003 1079
f 1079 1003 1080
f 1080 1003 1060
f 1081 1082 1078
f 1078 1082 1073
f 1084 1085 1083
f 1083 1085 1086
f 1087 1088 1086
f 1086 1088 1083
f 1086 1085 1090
f 1090 1085 1089
f 1091 1092 1090
f 1090 1092 1093
f 1089 1094 1090
f 1090 1094 1091
f 1095 1082 1089
f 1089 1082 1094
f 1093 1087 1090
f 1090 1087 1086
f 1096 1097 1099
f 1099 1097 1098
f 1097 1096 1087
f 1087 1096 1088
f 1089 1085 1095
f 1095 1085 1084
f 1084 1075 1095
f 1095 1075 1074
f 1084 1100 1075
f 1075 1100 1076
f 1083 1101 1084
f 1084 1101 1100
f 1101 1083 1102
f 1102 1083 1088
f 1082 1095 1073
f 1073 1095 1074
f 1096 1103 1088
f 1088 1103 1102
f 1101 1102 1104
f 1104 1102 1105
f 1102 1103 1105
f 1105 1103 1106
f 1104 1105 1107
f 1107 1105 1108
f 1107 1109 1104
f 1104 1109 1110
f 1111 1108 1106
f 1106 1108 1105
f 1101 1104 1100
f 1100 1104 1110
f 1100 1110 1076
f 1076 1110 1077
f 1103 1096 1112
f 1112 1096 1099
f 1091 1094 1113
f 1113 1094 1082
f 1113 1114 1091
f 1091 1114 1092
f 1082 1081 1113
f 1113 1081 1115
f 1114 1113 1116
f 1116 1113 1115
f 1114 1117 1092
f 1092 1117 1118
f 1024 1077 1016
f 1016 1077 1119
f 1017 1120 1060
f 1060 1120 1080
f 1120 1017 1119
f 1119 1017 1016
f 1119 1109 1120
f 1120 1109 1121
f 1109 1107 1121
f 1121 1107 1122
f 1120 1121 1080
f 1080 1121 1123
f 1119 1077 1109
f 1109 1077 1110
f 1124 1079 1123
f 1123 1079 1080
f 1124 1081 1079
f 1079 1081 1078
f 1125 1115 1124
f 1124 1115 1081
f 1125 1124 1126
f 1126 1124 1123
f 1127 1125 1128
f 1128 1125 1126
f 1121 1122 1123
f 1123 1122 1126
f 1122 1129 1126
f 1126 1129 1128
f 1115 1125 1116
f 1116 1125 1127
f 1131 1116 1130
f 1130 1116 1127
f 1130 1133 1132
f 1132 1133 1134
f 1130 1127 1133
f 1133 1127 1128
f 1130 1132 1131
f 1131 1132 1112
f 1131 1112 1117
f 1117 1112 1099
f 1117 1114 1131
f 1131 1114 1116
f 1107 1108 1122
f 1122 1108 1129
f 1134 1129 1111
f 1111 1129 1108
f 1134 1133 1129
f 1129 1133 1128
f 1132 1134 1106
f 1106 1134 1111
f 1106 1103 1132
f 1132 1103 1112
f 1087 1093 1097
f 1097 1093 1098
f 1098 1118 1099
f 1099 1118 1117
f 1098 1093 1118
f 1118 1093 1092
f 915 914 1039
f 1039 914 1037
f 918 944 919
f 919 944 943
f 950 949 973
f 973 949 974
f 949 952 974
f 974 952 968
f 956 955 1042
f 1042 955 965
f 950 973 918
f 918 973 944
f 915 1039 1040
f 1040 1039 1053
f 956 1042 919
f 919 1042 916
f 1040 955 991
f 991 955 954
f 914 952 1037
f 1037 952 951
f 1136 1137 1135
f 1135 1137 1138
f 1140 1141 1139
f 1139 1141 1142
f 1139 1142 1143
f 1143 1142 1144
f 1145 1146 1148
f 1148 1146 1147
f 854 1149 1025
f 1025 1149 1150
f 1151 1152 1140
f 1140 1152 1141
f 1154 1155 1153
f 1153 1155 1156
f 1067 1007 1158
f 1158 1007 1157
f 1159 1157 1041
f 1041 1157 1007
f 1161 1162 1160
f 1160 1162 1163
f 1164 1146 1152
f 1152 1146 1141
f 854 1067 1149
f 1149 1067 1158
f 1155 1154 1137
f 1137 1154 1165
f 1166 1164 1138
f 1138 1164 1152
f 1167 1161 1144
f 1144 1161 1168
f 1170 1171 1169
f 1169 1171 1172
f 1161 1160 1168
f 1168 1160 1173
f 1174 1143 1168
f 1168 1143 1144
f 1167 1144 1145
f 1145 1144 1142
f 1135 1175 1136
f 1136 1175 1176
f 1151 1177 1135
f 1135 1177 1175
f 1167 1145 1178
f 1178 1145 1148
f 1160 1163 1153
f 1153 1163 1150
f 1135 1138 1151
f 1151 1138 1152
f 1139 1179 1140
f 1140 1179 1180
f 1165 1166 1137
f 1137 1166 1138
f 1141 1146 1142
f 1142 1146 1145
f 1136 1176 1181
f 1181 1176 1182
f 1174 1170 1183
f 1183 1170 1169
f 1170 1173 1171
f 1171 1173 1156
f 1171 1181 1172
f 1172 1181 1182
f 1153 1156 1160
f 1160 1156 1173
f 1143 1174 1184
f 1184 1174 1183
f 1140 1180 1151
f 1151 1180 1177
f 1049 1048 1178
f 1178 1048 1162
f 1179 1139 1184
f 1184 1139 1143
f 1159 1147 1164
f 1164 1147 1146
f 1170 1174 1173
f 1173 1174 1168
f 1171 1156 1181
f 1181 1156 1155
f 1181 1155 1136
f 1136 1155 1137
f 1184 1183 1186
f 1186 1183 1185
f 1184 1186 1179
f 1179 1186 1187
f 1179 1187 1180
f 1180 1187 1188
f 1180 1188 1177
f 1177 1188 1189
f 1183 1169 1185
f 1185 1169 1190
f 1169 1172 1190
f 1190 1172 1191
f 1172 1182 1191
f 1191 1182 1192
f 1193 1194 1190
f 1190 1194 1185
f 1196 1197 1195
f 1195 1197 1198
f 1199 1200 1196
f 1196 1200 1197
f 1197 1200 1202
f 1202 1200 1201
f 1203 1204 1202
f 1202 1204 1205
f 1201 1206 1202
f 1202 1206 1203
f 1205 1198 1202
f 1202 1198 1197
f 1198 1207 1195
f 1195 1207 1208
f 1201 1200 1209
f 1209 1200 1199
f 1199 1187 1209
f 1209 1187 1186
f 1199 1210 1187
f 1187 1210 1188
f 1196 1211 1199
f 1199 1211 1210
f 1212 1211 1195
f 1195 1211 1196
f 1209 1194 1201
f 1201 1194 1206
f 1194 1209 1185
f 1185 1209 1186
f 1213 1212 1208
f 1208 1212 1195
f 1211 1212 1214
f 1214 1212 1215
f 1212 1213 1215
f 1215 1213 1216
f 1214 1215 1217
f 1217 1215 1218
f 1217 1219 1214
f 1214 1219 1220
f 1216 1221 1215
f 1215 1221 1218
f 1214 1220 1211
f 1211 1220 1210
f 1210 1220 1188
f 1188 1220 1189
f 1213 1208 1223
f 1223 1208 1222
f 1208 1207 1222
f 1222 1207 1224
f 1203 1206 1225
f 1225 1206 1194
f 1204 1203 1226
f 1226 1203 1225
f 1194 1193 1225
f 1225 1193 1227
f 1225 1227 1226
f 1226 1227 1228
f 1229 1230 1226
f 1226 1230 1204
f 1224 1230 1222
f 1222 1230 1229
f 1177 1189 1175
f 1175 1189 1231
f 1176 1232 1182
f 1182 1232 1192
f 1232 1176 1231
f 1231 1176 1175
f 1231 1219 1232
f 1232 1219 1233
f 1219 1217 1233
f 1233 1217 1234
f 1232 1233 1192
f 1192 1233 1235
f 1219 1231 1220
f 1220 1231 1189
f 1236 1191 1235
f 1235 1191 1192
f 1236 1193 1191
f 1191 1193 1190
f 1236 1237 1193
f 1193 1237 1227
f 1237 1236 1238
f 1238 1236 1235
f 1239 1237 1240
f 1240 1237 1238
f 1233 1234 1235
f 1235 1234 1238
f 1234 1241 1238
f 1238 1241 1240
f 1237 1239 1227
f 1227 1239 1228
f 1243 1228 1242
f 1242 1228 1239
f 1242 1245 1244
f 1244 1245 1246
f 1242 1239 1245
f 1245 1239 1240
f 1242 1244 1243
f 1243 1244 1223
f 1243 1223 1229
f 1229 1223 1222
f 1229 1226 1243
f 1243 1226 1228
f 1217 1218 1234
f 1234 1218 1241
f 1246 1241 1221
f 1221 1241 1218
f 1246 1245 1241
f 1241 1245 1240
f 1244 1246 1216
f 1216 1246 1221
f 1216 1213 1244
f 1244 1213 1223
f 1198 1205 1207
f 1207 1205 1224
f 1224 1205 1230
f 1230 1205 1204
f 1148 1147 966
f 966 1147 964
f 1149 1154 1150
f 1150 1154 1153
f 1158 1157 1165
f 1165 1157 1166
f 1157 1159 1166
f 1166 1159 1164
f 1163 1162 1056
f 1056 1162 1048
f 1158 1165 1149
f 1149 1165 1154
f 1178 1148 1049
f 1049 1148 966
f 1163 1056 1150
f 1150 1056 1025
f 1178 1162 1167
f 1167 1162 1161
f 1147 1159 964
f 964 1159 1041
f 999 1049 922
f 922 1049 966
f 999 797 985
f 985 797 800
f 797 796 800
f 800 796 801
f 796 997 801
f 801 997 986
f 1247 1248 1250
f 1250 1248 1249
f 1252 1253 1251
f 1251 1253 1254
f 1251 1254 1255
f 1255 1254 1256
f 1258 1259 1257
f 1257 1259 1260
f 1261 1262 1252
f 1252 1262 1253
f 1264 1265 1263
f 1263 1265 1266
f 1267 1268 855
f 855 1268 920
f 1269 1267 1026
f 1026 1267 855
f 1271 1272 1270
f 1270 1272 1273
f 1274 1258 1262
f 1262 1258 1253
f 1264 1275 1265
f 1265 1275 1249
f 1276 1274 1250
f 1250 1274 1262
f 1277 1271 1256
f 1256 1271 1278
f 1279 1280 1282
f 1282 1280 1281
f 1271 1270 1278
f 1278 1270 1283
f 1284 1255 1278
f 1278 1255 1256
f 1277 1256 1257
f 1257 1256 1254
f 1247 1285 1248
f 1248 1285 1286
f 1261 1287 1247
f 1247 1287 1285
f 1257 1260 1277
f 1277 1260 1288
f 1270 1273 1263
f 1263 1273 1289
f 1261 1247 1262
f 1262 1247 1250
f 1251 1290 1252
f 1252 1290 1291
f 1275 1276 1249
f 1249 1276 1250
f 1253 1258 1254
f 1254 1258 1257
f 1248 1286 1292
f 1292 1286 1293
f 1284 1280 1294
f 1294 1280 1279
f 1281 1280 1266
f 1266 1280 1283
f 1292 1293 1281
f 1281 1293 1282
f 1263 1266 1270
f 1270 1266 1283
f 1255 1284 1295
f 1295 1284 1294
f 1252 1291 1261
f 1261 1291 1287
f 1288 1070 1272
f 1272 1070 942
f 1290 1251 1295
f 1295 1251 1255
f 1269 1259 1274
f 1274 1259 1258
f 1280 1284 1283
f 1283 1284 1278
f 1281 1266 1292
f 1292 1266 1265
f 1292 1265 1248
f 1248 1265 1249
f 1295 1294 1297
f 1297 1294 1296
f 1295 1297 1290
f 1290 1297 1298
f 1290 1298 1291
f 1291 1298 1299
f 1291 1299 1287
f 1287 1299 1300
f 1294 1279 1296
f 1296 1279 1301
f 1279 1282 1301
f 1301 1282 1302
f 1302 1282 1303
f 1303 1282 1293
f 1304 1305 1301
f 1301 1305 1296
f 1307 1308 1306
f 1306 1308 1309
f 1310 1311 1307
f 1307 1311 1308
f 1308 1311 1313
f 1313 1311 1312
f 1314 1315 1313
f 1313 1315 1316
f 1312 1317 1313
f 1313 1317 1314
f 1316 1309 1313
f 1313 1309 1308
f 1318 1319 1309
f 1309 1319 1306
f 1311 1310 1312
f 1312 1310 1320
f 1310 1298 1320
f 1320 1298 1297
f 1310 1321 1298
f 1298 1321 1299
f 1307 1322 1310
f 1310 1322 1321
f 1322 1307 1323
f 1323 1307 1306
f 1312 1320 1317
f 1317 1320 1305
f 1305 1320 1296
f 1296 1320 1297
f 1319 1324 1306
f 1306 1324 1323
f 1325 1322 1326
f 1326 1322 1323
f 1324 1327 1323
f 1323 1327 1326
f 1328 1325 1329
f 1329 1325 1326
f 1325 1328 1331
f 1331 1328 1330
f 1327 1332 1326
f 1326 1332 1329
f 1322 1325 1321
f 1321 1325 1331
f 1321 1331 1299
f 1299 1331 1300
f 1324 1319 1334
f 1334 1319 1333
f 1319 1318 1333
f 1333 1318 1335
f 1314 1317 1336
f 1336 1317 1305
f 1315 1314 1337
f 1337 1314 1336
f 1305 1304 1336
f 1336 1304 1338
f 1337 1336 1339
f 1339 1336 1338
f 1337 1340 1315
f 1315 1340 1341
f 1335 1341 1333
f 1333 1341 1340
f 1287 1300 1285
f 1285 1300 1342
f 1286 1343 1293
f 1293 1343 1303
f 1343 1286 1342
f 1342 1286 1285
f 1342 1330 1343
f 1343 1330 1344
f 1330 1328 1344
f 1344 1328 1345
f 1343 1344 1303
f 1303 1344 1346
f 1342 1300 1330
f 1330 1300 1331
f 1347 1302 1346
f 1346 1302 1303
f 1347 1304 1302
f 1302 1304 1301
f 1348 1338 1347
f 1347 1338 1304
f 1348 1347 1349
f 1349 1347 1346
f 1350 1348 1351
f 1351 1348 1349
f 1344 1345 1346
f 1346 1345 1349
f 1345 1352 1349
f 1349 1352 1351
f 1348 1350 1338
f 1338 1350 1339
f 1354 1339 1353
f 1353 1339 1350
f 1353 1356 1355
f 1355 1356 1357
f 1353 1350 1356
f 1356 1350 1351
f 1353 1355 1354
f 1354 1355 1334
f 1354 1334 1340
f 1340 1334 1333
f 1340 1337 1354
f 1354 1337 1339
f 1328 1329 1345
f 1345 1329 1352
f 1357 1352 1332
f 1332 1352 1329
f 1357 1356 1352
f 1352 1356 1351
f 1357 1332 1355
f 1355 1332 1327
f 1327 1324 1355
f 1355 1324 1334
f 1309 1316 1318
f 1318 1316 1335
f 1335 1316 1341
f 1341 1316 1315
f 1259 1072 1260
f 1260 1072 1071
f 1358 1264 1289
f 1289 1264 1263
f 1268 1267 1275
f 1275 1267 1276
f 1267 1269 1276
f 1276 1269 1274
f 941 1273 942
f 942 1273 1272
f 1358 1268 1264
f 1264 1268 1275
f 1260 1071 1288
f 1288 1071 1070
f 1273 941 1289
f 1289 941 977
f 1272 1271 1288
f 1288 1271 1277
f 1259 1269 1072
f 1072 1269 1026
f 1360 1361 1359
f 1359 1361 1362
f 1364 1365 1363
f 1363 1365 1366
f 1363 1366 1367
f 1367 1366 1368
f 1370 1371 1369
f 1369 1371 1372
f 1373 1374 1376
f 1376 1374 1375
f 1377 1378 1364
f 1364 1378 1365
f 1379 1380 1382
f 1382 1380 1381
f 1383 1384 1386
f 1386 1384 1385
f 1387 1385 978
f 978 1385 1384
f 1388 1389 1391
f 1391 1389 1390
f 1378 1392 1365
f 1365 1392 1370
f 1374 1383 1375
f 1375 1383 1386
f 1380 1393 1381
f 1381 1393 1361
f 1394 1392 1362
f 1362 1392 1378
f 1389 1396 1395
f 1395 1396 1368
f 1398 1399 1397
f 1397 1399 1400
f 1388 1401 1389
f 1389 1401 1396
f 1402 1367 1396
f 1396 1367 1368
f 1395 1368 1369
f 1369 1368 1366
f 1359 1403 1360
f 1360 1403 1404
f 1377 1405 1359
f 1359 1405 1403
f 1369 1372 1395
f 1395 1372 1406
f 1379 1388 1376
f 1376 1388 1391
f 1359 1362 1377
f 1377 1362 1378
f 1363 1407 1364
f 1364 1407 1408
f 1393 1394 1361
f 1361 1394 1362
f 1365 1370 1366
f 1366 1370 1369
f 1360 1404 1409
f 1409 1404 1410
f 1402 1398 1411
f 1411 1398 1397
f 1399 1398 1382
f 1382 1398 1401
f 1409 1410 1399
f 1399 1410 1400
f 1388 1379 1401
f 1401 1379 1382
f 1367 1402 1412
f 1412 1402 1411
f 1364 1408 1377
f 1377 1408 1405
f 981 980 1406
f 1406 980 1390
f 1407 1363 1412
f 1412 1363 1367
f 1387 1371 1392
f 1392 1371 1370
f 1398 1402 1401
f 1401 1402 1396
f 1409 1399 1381
f 1381 1399 1382
f 1360 1409 1361
f 1361 1409 1381
f 1412 1411 1414
f 1414 1411 1413
f 1412 1414 1407
f 1407 1414 1415
f 1407 1415 1408
f 1408 1415 1416
f 1408 1416 1405
f 1405 1416 1417
f 1411 1397 1413
f 1413 1397 1418
f 1397 1400 1418
f 1418 1400 1419
f 1419 1400 1420
f 1420 1400 1410
f 1422 1413 1421
f 1421 1413 1418
f 1423 1424 1426
f 1426 1424 1425
f 1427 1428 1424
f 1424 1428 1425
f 1425 1428 1430
f 1430 1428 1429
f 1430 1431 1433
f 1433 1431 1432
f 1429 1434 1430
f 1430 1434 1431
f 1433 1426 1430
f 1430 1426 1425
f 1426 1435 1423
f 1423 1435 1436
f 1428 1427 1429
f 1429 1427 1437
f 1427 1415 1437
f 1437 1415 1414
f 1427 1438 1415
f 1415 1438 1416
f 1439 1438 1424
f 1424 1438 1427
f 1440 1439 1423
f 1423 1439 1424
f 1429 1437 1434
f 1434 1437 1422
f 1422 1437 1413
f 1413 1437 1414
f 1441 1440 1436
f 1436 1440 1423
f 1442 1439 1443
f 1443 1439 1440
f 1441 1444 1440
f 1440 1444 1443
f 1445 1442 1446
f 1446 1442 1443
f 1442 1445 1448
f 1448 1445 1447
f 1444 1449 1443
f 1443 1449 1446
f 1439 1442 1438
f 1438 1442 1448
f 1438 1448 1416
f 1416 1448 1417
f 1436 1450 1441
f 1441 1450 1451
f 1436 1435 1450
f 1450 1435 1452
f 1431 1434 1453
f 1453 1434 1422
f 1431 1453 1432
f 1432 1453 1454
f 1453 1422 1455
f 1455 1422 1421
f 1454 1453 1456
f 1456 1453 1455
f 1457 1458 1454
f 1454 1458 1432
f 1452 1458 1450
f 1450 1458 1457
f 1405 1417 1403
f 1403 1417 1459
f 1404 1460 1410
f 1410 1460 1420
f 1459 1460 1403
f 1403 1460 1404
f 1447 1461 1459
f 1459 1461 1460
f 1445 1462 1447
f 1447 1462 1461
f 1460 1461 1420
f 1420 1461 1463
f 1459 1417 1447
f 1447 1417 1448
f 1464 1419 1463
f 1463 1419 1420
f 1419 1464 1418
f 1418 1464 1421
f 1464 1465 1421
f 1421 1465 1455
f 1465 1464 1466
f 1466 1464 1463
f 1467 1465 1468
f 1468 1465 1466
f 1461 1462 1463
f 1463 1462 1466
f 1462 1469 1466
f 1466 1469 1468
f 1465 1467 1455
f 1455 1467 1456
f 1471 1456 1470
f 1470 1456 1467
f 1470 1473 1472
f 1472 1473 1474
f 1470 1467 1473
f 1473 1467 1468
f 1470 1472 1471
f 1471 1472 1451
f 1471 1451 1457
f 1457 1451 1450
f 1457 1454 1471
f 1471 1454 1456
f 1462 1445 1469
f 1469 1445 1446
f 1474 1469 1449
f 1449 1469 1446
f 1474 1473 1469
f 1469 1473 1468
f 1472 1474 1444
f 1444 1474 1449
f 1444 1441 1472
f 1472 1441 1451
f 1426 1433 1435
f 1435 1433 1452
f 1452 1433 1458
f 1458 1433 1432
f 1371 940 1372
f 1372 940 1068
f 1376 1375 1379
f 1379 1375 1380
f 1393 1386 1394
f 1394 1386 1385
f 1385 1387 1394
f 1394 1387 1392
f 1475 1373 1391
f 1391 1373 1376
f 1375 1386 1380
f 1380 1386 1393
f 1372 1068 1406
f 1406 1068 981
f 1406 1390 1395
f 1395 1390 1389
f 1371 1387 940
f 940 1387 978
f 883 807 1476
f 1476 807 1477
f 1046 904 1479
f 1479 904 1478
f 904 903 1478
f 1478 903 1480
f 1030 1481 1028
f 1028 1481 1482
f 810 1046 1483
f 1483 1046 1479
f 1066 883 1484
f 1484 883 1476
f 807 810 1477
f 1477 810 1483
f 1485 1029 1484
f 1484 1029 1066
f 1028 1482 903
f 903 1482 1480
f 1481 1030 1485
f 1485 1030 1029
f 1484 1486 1485
f 1485 1486 1487
f 1485 1487 1481
f 1481 1487 1488
f 1481 1488 1482
f 1482 1488 1489
f 1482 1489 1480
f 1480 1489 1490
f 1484 1476 1486
f 1486 1476 1491
f 1476 1477 1491
f 1491 1477 1492
f 1477 1483 1492
f 1492 1483 1493
f 1495 1486 1494
f 1494 1486 1491
f 1497 1498 1496
f 1496 1498 1499
f 1500 1501 1497
f 1497 1501 1498
f 1502 1503 1501
f 1501 1503 1498
f 1502 1504 1503
f 1503 1504 1505
f 1506 1499 1503
f 1503 1499 1498
f 1499 1506 1507
f 1507 1506 1508
f 1507 1509 1499
f 1499 1509 1496
f 1502 1501 1510
f 1510 1501 1500
f 1500 1488 1510
f 1510 1488 1487
f 1500 1511 1488
f 1488 1511 1489
f 1497 1512 1500
f 1500 1512 1511
f 1512 1497 1513
f 1513 1497 1496
f 1502 1510 1504
f 1504 1510 1495
f 1495 1510 1486
f 1486 1510 1487
f 1509 1514 1496
f 1496 1514 1513
f 1515 1512 1516
f 1516 1512 1513
f 1514 1517 1513
f 1513 1517 1516
f 1518 1515 1519
f 1519 1515 1516
f 1515 1518 1521
f 1521 1518 1520
f 1517 1522 1516
f 1516 1522 1519
f 1512 1515 1511
f 1511 1515 1521
f 1511 1521 1489
f 1489 1521 1490
f 1514 1509 1524
f 1524 1509 1523
f 1509 1507 1523
f 1523 1507 1508
f 1505 1504 1525
f 1525 1504 1495
f 1526 1505 1527
f 1527 1505 1525
f 1525 1495 1528
f 1528 1495 1494
f 1527 1525 1529
f 1529 1525 1528
f 1527 1530 1526
f 1526 1530 1531
f 1508 1531 1523
f 1523 1531 1530
f 1506 1503 1526
f 1526 1503 1505
f 1508 1506 1531
f 1531 1506 1526
f 1478 1480 1532
f 1532 1480 1490
f 1483 1479 1493
f 1493 1479 1533
f 1532 1533 1478
f 1478 1533 1479
f 1520 1534 1532
f 1532 1534 1533
f 1518 1535 1520
f 1520 1535 1534
f 1533 1534 1493
f 1493 1534 1536
f 1532 1490 1520
f 1520 1490 1521
f 1537 1492 1536
f 1536 1492 1493
f 1492 1537 1491
f 1491 1537 1494
f 1537 1538 1494
f 1494 1538 1528
f 1538 1537 1539
f 1539 1537 1536
f 1540 1538 1541
f 1541 1538 1539
f 1534 1535 1536
f 1536 1535 1539
f 1535 1542 1539
f 1539 1542 1541
f 1538 1540 1528
f 1528 1540 1529
f 1544 1529 1543
f 1543 1529 1540
f 1545 1543 1547
f 1547 1543 1546
f 1543 1540 1546
f 1546 1540 1541
f 1543 1545 1544
f 1544 1545 1524
f 1544 1524 1530
f 1530 1524 1523
f 1530 1527 1544
f 1544 1527 1529
f 1535 1518 1542
f 1542 1518 1519
f 1547 1542 1522
f 1522 1542 1519
f 1547 1546 1542
f 1542 1546 1541
f 1545 1547 1517
f 1517 1547 1522
f 1517 1514 1545
f 1545 1514 1524
f 997 995 986
f 986 995 987
f 987 995 988
f 988 995 971
f 976 1358 977
f 977 1358 1289
f 854 853 1067
f 1067 853 1050
f 1055 985 1069
f 1069 985 962
f 1068 961 981
f 981 961 862
f 1268 1358 920
f 920 1358 976
f 920 976 921
f 921 976 975
f 927 1054 850
f 850 1054 851
f 882 881 1057
f 1057 881 1548
f 1548 1374 1057
f 1057 1374 1373
f 1383 1374 1549
f 1549 1374 1548
f 1549 1548 1550
f 1550 1548 881
f 1550 881 1551
f 1551 881 880
f 933 1552 879
f 879 1552 880
f 1551 880 875
f 875 880 1552
f 1553 1551 878
f 878 1551 875
f 1551 1553 1550
f 1550 1553 1554
f 1550 1554 1549
f 1549 1554 1555
f 978 1384 975
f 975 1384 1555
f 967 849 1556
f 1556 849 852
f 875 1552 876
f 876 1552 933
f 961 939 962
f 962 939 1069
f 1555 1054 975
f 975 1054 921
f 1555 1384 1549
f 1549 1384 1383
f 1391 1390 1475
f 1475 1390 980
f 1373 1475 1057
f 1057 1475 980
f 851 1054 1554
f 1554 1054 1555
f 1554 1553 851
f 851 1553 852
f 878 1556 1553
f 1553 1556 852
f 1556 878 967
f 967 878 877
f 1023 1020 877
f 877 1020 967
f 909 811 1034
f 806 779 873
f 873 779 840
f 805 780 806
f 806 780 779
f 1043 893 1044
f 1044 893 892
f 873 840 847
f 847 840 842
f 840 839 842
f 842 839 843
f 839 791 843
f 843 791 908
f 791 790 908
f 908 790 792
f 809 789 810
f 810 789 1046
f 793 790 809
f 809 790 789
f 809 808 793
f 793 808 1009
f 808 884 1009
f 1009 884 1010
f 1065 1015 884
f 884 1015 1010
f 1032 868 1065
f 1065 868 1015
f 1031 822 1032
f 1032 822 868
f 1031 1027 822
f 822 1027 785
f 1045 905 1046
f 1046 905 904
f 788 781 1019
f 1019 781 894
f 781 780 894
f 894 780 892
f 780 805 892
f 892 805 1044
f 805 804 1044
f 1044 804 891
f 804 1064 891
f 891 1064 888
f 1064 1021 888
f 888 1021 1033
f 1021 1020 1033
f 1033 1020 1034
f 1020 1023 1034
f 1034 1023 909
f 1023 1022 909
f 909 1022 910
f 1043 815 893
f 893 815 819
f 819 815 820
f 820 815 818
f 870 869 818
f 818 869 820
f 1014 1011 870
f 870 1011 869
f 969 972 1014
f 1014 972 1011
f 1036 1063 1022
f 1022 1063 910
f 1035 833 1036
f 1036 833 1063
f 1035 932 979
f 979 932 963
f 834 979 982
f 982 979 958
f 833 1035 834
f 834 1035 979
f 982 863 834
f 834 863 830
f 864 900 831
f 831 900 857
f 990 993 864
f 864 993 900
f 989 994 990
f 990 994 993
f 970 1058 989
f 989 1058 994
f 969 1018 970
f 970 1018 1058
f 1027 902 785
f 785 902 786
f 902 905 786
f 786 905 1019
f 905 1045 1019
f 1019 1045 788
f 788 1045 787
f 787 1045 789
