o hand_left
v -0.006419 -0.048072 0.992444
v -0.016723 -0.050254 0.989707
v -0.010978 -0.041531 0.991484
v -0.001903 -0.039733 0.992816
v -0.031517 -0.036944 0.989114
v -0.037275 -0.030609 0.979929
v -0.024071 -0.021177 0.985157
v -0.021831 -0.028284 0.992641
v 0.003567 -0.034134 0.991430
v -0.005970 -0.034960 0.992727
v 0.006831 -0.033636 0.986262
v 0.017433 -0.034613 0.982575
v 0.013023 -0.034070 0.989390
v 0.025280 -0.035389 0.983875
v 0.016272 -0.040120 0.972697
v 0.029748 -0.042874 0.979515
v 0.014229 -0.068102 0.975364
v 0.010375 -0.079642 0.981301
v 0.025397 -0.077150 0.990577
v 0.027383 -0.064932 0.984285
v 0.012433 -0.091649 0.998964
v 0.020314 -0.083631 0.994805
v 0.006095 -0.086897 0.984752
v -0.000308 -0.093773 0.989062
v -0.013724 -0.061978 0.994933
v -0.023963 -0.064552 0.991362
v -0.021335 -0.059959 0.989572
v -0.011644 -0.057284 0.993072
v 0.005814 -0.026442 0.980125
v 0.003475 -0.031126 0.970841
v 0.007698 -0.033111 0.977418
v 0.005403 -0.028125 0.985487
v -0.051431 -0.073541 0.989892
v -0.058595 -0.077831 0.979148
v -0.057190 -0.073265 0.975615
v -0.050698 -0.070614 0.986001
v -0.051065 -0.050193 0.971224
v -0.054294 -0.058910 0.964385
v -0.052687 -0.057439 0.950553
v -0.046731 -0.049656 0.954846
v -0.045033 -0.039498 0.976591
v -0.043223 -0.038127 0.962366
v -0.035343 -0.028001 0.968479
v -0.022064 -0.017907 0.976477
v -0.060137 -0.089353 0.984838
v -0.055458 -0.087630 0.993848
v 0.034794 -0.023738 1.020915
v 0.033103 -0.029317 1.023157
v 0.033236 -0.029739 1.022517
v 0.035074 -0.024293 1.020357
v -0.048207 -0.105851 0.985931
v -0.041869 -0.110302 0.979378
v -0.048696 -0.111548 0.976955
v -0.054597 -0.105928 0.981758
v -0.039768 -0.105674 0.991423
v -0.032614 -0.107845 0.982852
v 0.044994 -0.019545 1.027641
v 0.040955 -0.018319 1.024370
v 0.044103 -0.019677 1.021978
v 0.048780 -0.021966 1.024375
v 0.007408 -0.037564 0.993885
v 0.002213 -0.045044 0.996415
v 0.021804 -0.037016 1.001864
v 0.015101 -0.040930 0.999691
v 0.016172 -0.035998 0.994784
v 0.022271 -0.033505 0.996518
v 0.005637 -0.061329 1.007308
v -0.004337 -0.063167 1.001340
v -0.001220 -0.057700 0.999229
v 0.009625 -0.053845 1.005367
v -0.010690 -0.073304 1.009153
v -0.000113 -0.070946 1.014078
v -0.004953 -0.077018 1.017901
v -0.012130 -0.077007 1.014391
v 0.018650 -0.064988 1.019759
v 0.024036 -0.064034 1.021869
v 0.022371 -0.065727 1.024768
v 0.016695 -0.067782 1.021368
v -0.054806 -0.113041 0.973559
v -0.060235 -0.105561 0.977062
v -0.001595 -0.104399 1.010224
v -0.011830 -0.105320 1.015061
v -0.001578 -0.105200 1.024387
v 0.007235 -0.104606 1.016485
v -0.034738 -0.108716 0.971914
v -0.041489 -0.112294 0.969911
v 0.047721 -0.024260 1.031394
v 0.051643 -0.026599 1.028543
v -0.029645 -0.033538 0.957547
v -0.017249 -0.019983 0.968080
v -0.037049 -0.046209 0.950830
v -0.041015 -0.056009 0.946324
v -0.045882 -0.061911 0.941534
v 0.017094 -0.045113 1.004638
v -0.003013 -0.052866 0.996222
v -0.015822 -0.065975 0.997256
v -0.026519 -0.086509 1.017954
v -0.035709 -0.087348 1.012681
v -0.030106 -0.078563 1.009844
v -0.022892 -0.080020 1.014667
v -0.017674 -0.100679 1.021645
v -0.018266 -0.092894 1.024028
v -0.010449 -0.092898 1.028720
v -0.008504 -0.100525 1.028072
v 0.004357 -0.020807 0.975341
v -0.001323 -0.028599 0.965625
v -0.053767 -0.098106 0.990729
v -0.058817 -0.097107 0.984746
v -0.063817 -0.098673 0.977999
v -0.038122 -0.067559 0.990442
v -0.050349 -0.068383 0.983406
v -0.049321 -0.064121 0.981930
v -0.036642 -0.065619 0.988507
v -0.028403 -0.050486 0.989538
v -0.041130 -0.048214 0.985424
v -0.020709 -0.041466 0.993180
v -0.056805 -0.067322 0.969933
v -0.064425 -0.075283 0.968511
v -0.062398 -0.069043 0.962412
v -0.065726 -0.083735 0.973429
v -0.065748 -0.091927 0.977066
v -0.046996 -0.117082 0.965392
v -0.058935 -0.064083 0.956501
v -0.014394 -0.022989 0.994235
v -0.007528 -0.018700 0.995949
v -0.003407 -0.025228 0.996257
v -0.008996 -0.029609 0.995066
v 0.032868 -0.034395 0.988479
v 0.026689 -0.031849 0.992797
v 0.019535 -0.033200 0.988533
v -0.044100 -0.075751 0.998752
v -0.047997 -0.087494 1.001863
v 0.024056 -0.041295 1.006564
v 0.049696 -0.024428 1.019313
v 0.044542 -0.021379 1.017544
v 0.038450 -0.028421 1.001415
v 0.044601 -0.032003 1.002201
v 0.032445 -0.045367 1.011231
v 0.026954 -0.041530 1.009185
v 0.028583 -0.041915 1.010593
v 0.032924 -0.045623 1.014193
v 0.016453 -0.072431 1.027617
v 0.011221 -0.073978 1.024475
v 0.037900 -0.060140 0.995999
v 0.040710 -0.050826 0.985551
v 0.029590 -0.054154 0.978473
v 0.001932 -0.067086 1.010442
v 0.010600 -0.066072 1.016173
v 0.008846 -0.069351 1.018134
v 0.019870 -0.047424 1.007819
v 0.026322 -0.045742 1.009881
v 0.024098 -0.049623 1.010750
v 0.017505 -0.051958 1.009325
v -0.021824 -0.106538 1.006112
v -0.028617 -0.101370 1.014169
v 0.037485 -0.019841 1.021678
v 0.039022 -0.020502 1.020306
v -0.007790 -0.068743 1.004536
v 0.015846 -0.057191 0.972083
v -0.018307 -0.070055 1.000070
v 0.020786 -0.090658 1.019975
v 0.016529 -0.088130 1.026744
v 0.019580 -0.084559 1.030424
v 0.024570 -0.085923 1.027216
v 0.037921 -0.040516 1.026021
v 0.033338 -0.036643 1.025191
v 0.034692 -0.035372 1.025373
v 0.038992 -0.038704 1.028348
v 0.024949 -0.037022 1.005806
v 0.025650 -0.032400 1.001199
v 0.027480 -0.031770 1.006007
v 0.027355 -0.037042 1.009088
v 0.030277 -0.030405 0.997749
v 0.032108 -0.028649 1.002628
v 0.044749 -0.040901 1.026377
v 0.051045 -0.035984 1.025390
v 0.046162 -0.044553 1.009447
v 0.040662 -0.046548 1.014349
v -0.011508 -0.096810 0.978954
v -0.017614 -0.103407 0.985713
v -0.006525 -0.100723 0.995921
v 0.005093 -0.099422 1.005800
v 0.015916 -0.096650 1.014832
v 0.023669 -0.090819 1.007191
v -0.012318 -0.105059 1.000018
v 0.035792 -0.051973 1.007757
v 0.041755 -0.050884 1.000343
v 0.038492 -0.055680 1.003200
v -0.021689 -0.074306 1.005261
v 0.038677 -0.021496 1.017469
v -0.029498 -0.076856 0.943546
v -0.028557 -0.089376 0.948515
v -0.022175 -0.084968 0.952626
v -0.023764 -0.070463 0.947656
v 0.031338 -0.030146 1.022685
v 0.033175 -0.024635 1.019219
v 0.009323 -0.078538 1.028982
v 0.014795 -0.076719 1.031086
v 0.016063 -0.079695 1.032796
v 0.010109 -0.081800 1.033577
v -0.022154 -0.106245 0.988531
v 0.003665 -0.101910 1.031977
v 0.011621 -0.102151 1.023976
v -0.026964 -0.105515 0.976568
v -0.021448 -0.100270 0.970299
v -0.028781 -0.103184 0.964442
v 0.032206 -0.078121 1.006026
v -0.005964 -0.090872 0.975677
v -0.017281 -0.094605 0.967093
v -0.025839 -0.097842 0.959932
v -0.031786 -0.101071 0.954952
v -0.034452 -0.106528 0.960449
v 0.051950 -0.029916 1.022691
v 0.050358 -0.033270 1.031850
v -0.040050 -0.111624 0.955298
v -0.037200 -0.104808 0.949600
v -0.013559 -0.087176 0.963035
v -0.010422 -0.077168 0.958722
v -0.002896 -0.083717 0.971634
v 0.001420 -0.073696 0.967897
v 0.037332 -0.074095 0.996954
v 0.034500 -0.030334 1.041000
v 0.042009 -0.035269 1.034849
v 0.037721 -0.036808 1.030987
v 0.032099 -0.033126 1.038540
v 0.044385 -0.038234 1.030725
v 0.046113 -0.030987 1.034888
v 0.002196 -0.059638 0.963860
v 0.029541 -0.048763 1.012458
v -0.012730 -0.059844 0.954673
v 0.005905 -0.043073 0.963754
v -0.006440 -0.041751 0.958582
v -0.028229 -0.057533 0.945963
v -0.021205 -0.042990 0.951679
v -0.039020 -0.070211 0.938538
v -0.032963 -0.065310 0.942696
v -0.013744 -0.029721 0.959384
v 0.028001 -0.024402 1.026206
v 0.027887 -0.030188 1.028566
v -0.035081 -0.081022 0.938923
v -0.013943 -0.034555 0.994432
v -0.031299 -0.073030 1.000041
v -0.028274 -0.069992 0.996294
v -0.040774 -0.087471 1.008691
v -0.036216 -0.077253 1.004834
v 0.030369 -0.019361 1.026900
v 0.028101 -0.065664 1.023314
v 0.026512 -0.066246 1.023015
v -0.016332 -0.016397 0.988951
v -0.010048 -0.013162 0.991308
v -0.003109 -0.010826 0.980263
v -0.007558 -0.009721 0.985843
v -0.014373 -0.013004 0.981167
v -0.009922 -0.014199 0.974826
v -0.039086 -0.069090 0.992420
v -0.040370 -0.071593 0.995222
v -0.031555 -0.106298 0.998576
v -0.037542 -0.100739 1.006866
v 0.036057 -0.032150 0.995034
v 0.038471 -0.040157 0.987013
v 0.041379 -0.036795 0.994617
v 0.046920 -0.038937 1.003336
v 0.033586 -0.049338 1.011949
v 0.037403 -0.048742 1.009036
v -0.045791 -0.056784 0.983680
v -0.033550 -0.059730 0.987744
v -0.002522 -0.031764 0.992186
v 0.001741 -0.028923 0.992442
v 0.013398 -0.058746 1.011296
v 0.036819 -0.070547 1.014267
v 0.040366 -0.066842 1.006666
v 0.021520 -0.057130 1.014567
v 0.034890 -0.016942 1.033665
v 0.032284 -0.017210 1.029430
v 0.043932 -0.043780 0.995215
v 0.004035 -0.074933 1.022452
v 0.031902 -0.075312 1.014589
v 0.033324 -0.069533 1.020677
v -0.004162 -0.098631 1.032342
v -0.035084 -0.092918 0.943495
v 0.033721 -0.034971 1.027036
v 0.029294 -0.034055 1.032237
v 0.036945 -0.026648 1.040899
v 0.038052 -0.021066 1.037631
v -0.045438 -0.098432 0.999441
v -0.025988 -0.067841 0.994096
v -0.006207 -0.021041 0.967508
v 0.000923 -0.015500 0.976022
v 0.025793 -0.056572 1.016038
v 0.015981 -0.094800 1.023332
v 0.028161 -0.086594 1.015534
v 0.031936 -0.081841 1.023914
v 0.033887 -0.074496 1.022905
v 0.031371 -0.067847 1.024065
v 0.031086 -0.025724 1.043826
v 0.031725 -0.020006 1.040893
v 0.029009 -0.016515 1.036229
v 0.027741 -0.016974 1.031525
v 0.027204 -0.020009 1.028373
v 0.028945 -0.029886 1.043219
v 0.027479 -0.032458 1.040322
v 0.027341 -0.033656 1.033898
v 0.024294 -0.030693 1.043278
v 0.022445 -0.025985 1.045192
v 0.014319 -0.018385 1.036120
v 0.020077 -0.017343 1.038110
v 0.017959 -0.018546 1.039717
v 0.012995 -0.019598 1.038866
v 0.007959 -0.021139 1.039475
v 0.008644 -0.019838 1.036240
v 0.021079 -0.020836 1.042614
v 0.014326 -0.022680 1.042157
v 0.015052 -0.026573 1.043809
v 0.009425 -0.027320 1.043897
v 0.008562 -0.023823 1.042614
v 0.019534 -0.024934 1.044346
v 0.023698 -0.020096 1.043007
v 0.004937 -0.022375 1.037677
v 0.005292 -0.022337 1.040194
v 0.005540 -0.024898 1.042356
v 0.003375 -0.026278 1.040593
v 0.022611 -0.017580 1.032588
v 0.014303 -0.018981 1.033533
v 0.008875 -0.021961 1.033881
v 0.005260 -0.024301 1.035603
v 0.013561 -0.022570 1.031502
v 0.009412 -0.024657 1.032678
v 0.006571 -0.027097 1.034254
v 0.013426 -0.026927 1.030955
v 0.009857 -0.027902 1.032570
v 0.024115 -0.024752 1.028654
v 0.024518 -0.020542 1.029151
v 0.007599 -0.028827 1.033365
v 0.003484 -0.028003 1.039189
v 0.017228 -0.029613 1.043964
v 0.010142 -0.030348 1.042987
v 0.017523 -0.031709 1.042696
v 0.010565 -0.032544 1.042196
v 0.005607 -0.029982 1.043023
v 0.006470 -0.027572 1.043391
v 0.026862 -0.025173 1.027514
v 0.027051 -0.030988 1.030012
v 0.024969 -0.030707 1.030996
v 0.014452 -0.031512 1.032569
v 0.024843 -0.033547 1.034551
v 0.023271 -0.033125 1.040196
v 0.016474 -0.033490 1.040386
v 0.015684 -0.034077 1.036976
v 0.011062 -0.033593 1.039874
v 0.011142 -0.033352 1.037293
v 0.010344 -0.031380 1.033945
v 0.007220 -0.032544 1.038900
v 0.006118 -0.031521 1.041478
v 0.005342 -0.029807 1.036924
v 0.008334 -0.032808 1.037312
v 0.007466 -0.030504 1.035462
v 0.031459 -0.044955 1.035867
v 0.029602 -0.050588 1.039004
v 0.032857 -0.049999 1.037836
v 0.034683 -0.045472 1.035054
v 0.043259 -0.040303 1.042910
v 0.038185 -0.039415 1.038764
v 0.043802 -0.040933 1.036598
v 0.048924 -0.043796 1.040549
v 0.045543 -0.045909 1.047528
v 0.050400 -0.049901 1.044298
v 0.050411 -0.046540 1.035182
v 0.044566 -0.042948 1.032376
v 0.038750 -0.050769 1.014495
v 0.043881 -0.055135 1.014920
v 0.026951 -0.060709 1.023692
v 0.029240 -0.063540 1.025238
v 0.034082 -0.041695 1.036282
v 0.038402 -0.042178 1.034788
v 0.033404 -0.058145 1.040726
v 0.030749 -0.053779 1.038561
v 0.031910 -0.054413 1.040183
v 0.034664 -0.057467 1.043968
v 0.030642 -0.050830 1.016704
v 0.028524 -0.055961 1.019899
v 0.034168 -0.049790 1.015393
v 0.039569 -0.060688 1.042640
v 0.046534 -0.059656 1.042450
v 0.042137 -0.067269 1.023282
v 0.036704 -0.067751 1.026342
v 0.039189 -0.042582 1.031976
v 0.031363 -0.048208 1.036306
v 0.033896 -0.044301 1.033352
v 0.050699 -0.053853 1.038016
v 0.045296 -0.055659 1.048211
v 0.026392 -0.050058 1.055234
v 0.035416 -0.055347 1.050240
v 0.031619 -0.056216 1.046784
v 0.022773 -0.052008 1.052085
v 0.039500 -0.057836 1.046981
v 0.040378 -0.052003 1.050913
v 0.019982 -0.042395 1.041736
v 0.018734 -0.048288 1.044344
v 0.022124 -0.038270 1.042310
v 0.045053 -0.061928 1.017817
v 0.030423 -0.036050 1.048775
v 0.025470 -0.036073 1.044169
v 0.029481 -0.055130 1.042136
v 0.019592 -0.051624 1.048123
v 0.029563 -0.046763 1.056203
v 0.033248 -0.040857 1.053120
v 0.024017 -0.044666 1.058189
v 0.025947 -0.038756 1.056081
v 0.023655 -0.034277 1.051366
v 0.020670 -0.035086 1.046205
v 0.018985 -0.037848 1.043785
v 0.021423 -0.048211 1.057032
v 0.018687 -0.050502 1.053595
v 0.017606 -0.050245 1.048530
v 0.014451 -0.047984 1.056988
v 0.015137 -0.044008 1.059169
v 0.001910 -0.033591 1.051024
v 0.007953 -0.033457 1.051348
v 0.007657 -0.034361 1.053821
v 0.002137 -0.034512 1.053721
v 0.013953 -0.033381 1.053491
v 0.012218 -0.034599 1.055026
v 0.013799 -0.038116 1.057717
v 0.007627 -0.038202 1.056801
v 0.008181 -0.042900 1.058108
v 0.002461 -0.042645 1.058516
v 0.001676 -0.037931 1.057491
v 0.012403 -0.041669 1.058770
v -0.001356 -0.035363 1.054298
v -0.003132 -0.035797 1.052410
v 0.017062 -0.037569 1.058118
v 0.016473 -0.034001 1.047845
v 0.007389 -0.034029 1.048320
v 0.000866 -0.035140 1.048307
v -0.003977 -0.038233 1.050709
v 0.006104 -0.037153 1.045720
v 0.000254 -0.038003 1.046830
v -0.003316 -0.040559 1.049373
v 0.005244 -0.041724 1.044473
v -0.000168 -0.042252 1.046388
v 0.015759 -0.041853 1.043211
v 0.016143 -0.037189 1.044166
v -0.002125 -0.042291 1.048146
v -0.004297 -0.038964 1.055998
v -0.005173 -0.041151 1.053552
v -0.002641 -0.038333 1.056722
v 0.008299 -0.045046 1.058064
v 0.001840 -0.044645 1.057669
v 0.007646 -0.047525 1.056737
v 0.000747 -0.046506 1.056488
v -0.002699 -0.043243 1.057501
v -0.002065 -0.041716 1.058029
v 0.018073 -0.042067 1.043304
v 0.017514 -0.047422 1.045297
v 0.015734 -0.047317 1.044898
v 0.005385 -0.046706 1.046534
v 0.015783 -0.050347 1.048658
v 0.014302 -0.050055 1.053864
v 0.007417 -0.049204 1.054404
v 0.006121 -0.049320 1.050541
v 0.000604 -0.048218 1.055090
v 0.001607 -0.048528 1.051940
v 0.000464 -0.046065 1.047892
v -0.003504 -0.046100 1.054660
v -0.003416 -0.044517 1.056454
v -0.004525 -0.042619 1.051956
v -0.001958 -0.047048 1.052268
v -0.002799 -0.044365 1.049840
v 0.021848 -0.061299 1.043728
v 0.019837 -0.066424 1.046161
v 0.021492 -0.066982 1.044678
v 0.024183 -0.062302 1.042816
v 0.032464 -0.057858 1.049954
v 0.028748 -0.056441 1.046921
v 0.032603 -0.058522 1.044227
v 0.037119 -0.060826 1.046004
v 0.032556 -0.061485 1.054567
v 0.038888 -0.065586 1.049435
v 0.038765 -0.063438 1.041448
v 0.033926 -0.060010 1.040918
v 0.032086 -0.066034 1.028147
v 0.036368 -0.070882 1.028961
v 0.024954 -0.058106 1.044606
v 0.027707 -0.059601 1.042877
v 0.021700 -0.073479 1.047966
v 0.019764 -0.069397 1.045727
v 0.021522 -0.071237 1.048159
v 0.024156 -0.073420 1.051410
v 0.021499 -0.066176 1.028169
v 0.018793 -0.071215 1.030064
v 0.026332 -0.064686 1.028308
v 0.027859 -0.075821 1.049333
v 0.035270 -0.074952 1.048353
v 0.029777 -0.081983 1.035498
v 0.023804 -0.081440 1.036230
v 0.028831 -0.059600 1.040696
v 0.020033 -0.064934 1.042663
v 0.023475 -0.060910 1.040782
v 0.038953 -0.069578 1.044055
v 0.034939 -0.070776 1.053406
v 0.015676 -0.063729 1.065013
v 0.027148 -0.071270 1.056578
v 0.022466 -0.072427 1.053129
v 0.012832 -0.066092 1.062412
v 0.029172 -0.073385 1.053934
v 0.031125 -0.067488 1.057031
v 0.010196 -0.057287 1.051014
v 0.009590 -0.062409 1.053516
v 0.013367 -0.054015 1.051428
v 0.035964 -0.077592 1.031606
v 0.018674 -0.077780 1.034424
v 0.018028 -0.051332 1.056959
v 0.015504 -0.052020 1.053326
v 0.020391 -0.070743 1.049626
v 0.010471 -0.066074 1.058162
v 0.019032 -0.059920 1.064953
v 0.020856 -0.054743 1.061373
v 0.013471 -0.058338 1.067472
v 0.014794 -0.052900 1.063944
v 0.012659 -0.049851 1.059026
v 0.010895 -0.051365 1.054817
v 0.009468 -0.053751 1.052755
v 0.010781 -0.062787 1.066688
v 0.009099 -0.065028 1.063808
v 0.009676 -0.065284 1.058598
v 0.006438 -0.062773 1.066983
v 0.006201 -0.057337 1.068362
v -0.007894 -0.051368 1.059273
v -0.001800 -0.050863 1.059017
v -0.001807 -0.051197 1.060208
v -0.007793 -0.051416 1.061032
v 0.005116 -0.049841 1.060704
v 0.003246 -0.050421 1.061631
v 0.004698 -0.052320 1.065016
v -0.002053 -0.053145 1.065217
v -0.001006 -0.058849 1.067290
v -0.006397 -0.058560 1.067049
v -0.007796 -0.053274 1.065510
v 0.004211 -0.056312 1.067416
v -0.010926 -0.052168 1.062050
v -0.012031 -0.051355 1.060677
v 0.007556 -0.052057 1.065506
v 0.005706 -0.050687 1.055726
v -0.002062 -0.051460 1.056041
v -0.008213 -0.051965 1.056156
v -0.012139 -0.053686 1.057791
v -0.002354 -0.054698 1.053913
v -0.007773 -0.054831 1.054820
v -0.011296 -0.056263 1.056391
v -0.002517 -0.058070 1.053616
v -0.007204 -0.058065 1.054785
v 0.006779 -0.057710 1.052590
v 0.006231 -0.053818 1.053180
v -0.010019 -0.058248 1.056191
v -0.013096 -0.054472 1.064250
v -0.013740 -0.057745 1.061599
v -0.011396 -0.054147 1.064573
v -0.000280 -0.060562 1.067647
v -0.007157 -0.060769 1.067335
v -0.000299 -0.063196 1.066450
v -0.007046 -0.063205 1.066145
v -0.011131 -0.058798 1.066678
v -0.010413 -0.057817 1.066612
v 0.008860 -0.057540 1.052370
v 0.008957 -0.062357 1.054512
v 0.007325 -0.062383 1.054564
v -0.002528 -0.062689 1.055506
v 0.007860 -0.065314 1.058530
v 0.005140 -0.064981 1.063997
v -0.000930 -0.064768 1.063474
v -0.002067 -0.065014 1.059682
v -0.006863 -0.064445 1.063582
v -0.006068 -0.064311 1.060787
v -0.007103 -0.062098 1.056356
v -0.010391 -0.062347 1.062599
v -0.011273 -0.061081 1.065182
v -0.012403 -0.059603 1.059358
v -0.009331 -0.062984 1.060394
v -0.010691 -0.060801 1.057940
v 0.017633 -0.074919 1.032384
v 0.008164 -0.073202 1.051141
v 0.006231 -0.076528 1.053263
v 0.007210 -0.076550 1.053607
v 0.009240 -0.073731 1.050351
v 0.019791 -0.072780 1.052873
v 0.015451 -0.070761 1.051325
v 0.018279 -0.072818 1.048680
v 0.022231 -0.075424 1.049925
v 0.021456 -0.077415 1.055722
v 0.022903 -0.080258 1.053679
v 0.021719 -0.078309 1.046994
v 0.018478 -0.075046 1.045741
v 0.015867 -0.084956 1.031734
v 0.017342 -0.090394 1.031480
v -0.000760 -0.095374 1.037371
v -0.002850 -0.090598 1.035209
v 0.001237 -0.087906 1.043333
v 0.002866 -0.092431 1.044348
v 0.011494 -0.071307 1.050727
v 0.013132 -0.072314 1.048484
v 0.009307 -0.084594 1.058096
v 0.006945 -0.080698 1.055769
v 0.006652 -0.079835 1.056394
v 0.008103 -0.083146 1.059897
v -0.000388 -0.085850 1.033970
v 0.004038 -0.083544 1.032719
v 0.004965 -0.081682 1.036578
v 0.002969 -0.083647 1.041318
v 0.010578 -0.081203 1.034739
v 0.013537 -0.086740 1.057928
v 0.019165 -0.086692 1.055478
v 0.010075 -0.098726 1.040608
v 0.005884 -0.096692 1.042708
v 0.014759 -0.073410 1.047514
v 0.007408 -0.077164 1.052201
v 0.010274 -0.074170 1.050563
v 0.022399 -0.083520 1.050012
v 0.018527 -0.083538 1.058643
v 0.008966 -0.079153 1.066012
v 0.011883 -0.083222 1.062057
v 0.007496 -0.082998 1.060032
v 0.006028 -0.080221 1.064268
v 0.012687 -0.084255 1.060816
v 0.016769 -0.080878 1.060790
v 0.004321 -0.071917 1.054022
v 0.003183 -0.076334 1.057255
v 0.006678 -0.069380 1.053569
v 0.015343 -0.095986 1.034478
v 0.013281 -0.068067 1.057136
v 0.009343 -0.067754 1.054909
v 0.005949 -0.079709 1.056480
v 0.003622 -0.079337 1.060988
v 0.012861 -0.075921 1.065475
v 0.015856 -0.071938 1.060965
v 0.009563 -0.072807 1.067417
v 0.012181 -0.068949 1.063008
v 0.008892 -0.066280 1.057800
v 0.006420 -0.068006 1.055019
v 0.004470 -0.070354 1.053920
v 0.006381 -0.077128 1.067464
v 0.004528 -0.078843 1.065733
v 0.003230 -0.078874 1.061787
v 0.003345 -0.074947 1.068729
v 0.003278 -0.070112 1.067840
v -0.007638 -0.067503 1.060378
v -0.003471 -0.067317 1.059079
v -0.003306 -0.067050 1.060266
v -0.007420 -0.066775 1.061176
v 0.002190 -0.066287 1.058979
v 0.000890 -0.066408 1.060461
v 0.003259 -0.066974 1.063391
v -0.002262 -0.066921 1.064498
v -0.002276 -0.070533 1.068604
v -0.006493 -0.070027 1.069008
v -0.006064 -0.066634 1.065561
v 0.001925 -0.069082 1.067147
v -0.009765 -0.066318 1.062819
v -0.011135 -0.066641 1.062377
v 0.005966 -0.066526 1.063353
v 0.001788 -0.068654 1.055555
v -0.004954 -0.068787 1.057320
v -0.009819 -0.068559 1.059419
v -0.012556 -0.068645 1.062362
v -0.004954 -0.071191 1.056463
v -0.010440 -0.070730 1.058812
v -0.012853 -0.070864 1.061754
v -0.004995 -0.074546 1.057097
v -0.009995 -0.073243 1.059363
v 0.000825 -0.075277 1.055504
v 0.000927 -0.071822 1.054546
v -0.012014 -0.072423 1.061597
v -0.011337 -0.067210 1.066359
v -0.012718 -0.069841 1.065559
v -0.009718 -0.066571 1.066623
v -0.002156 -0.071773 1.069309
v -0.007316 -0.071375 1.069744
v -0.002413 -0.074170 1.069412
v -0.008060 -0.073384 1.069263
v -0.010422 -0.069748 1.068871
v -0.008862 -0.068557 1.068504
v 0.002457 -0.073740 1.054930
v 0.002406 -0.076470 1.057527
v 0.001076 -0.077947 1.058861
v -0.004493 -0.077450 1.060277
v 0.002148 -0.079268 1.063524
v 0.002847 -0.077798 1.067216
v -0.003113 -0.076528 1.068040
v -0.003992 -0.078165 1.065097
v -0.008857 -0.074874 1.067836
v -0.009005 -0.076341 1.065142
v -0.009509 -0.075806 1.061741
v -0.011831 -0.072830 1.066433
v -0.011695 -0.071503 1.067810
v -0.012837 -0.071722 1.064606
v -0.011570 -0.074085 1.064972
v -0.011939 -0.073495 1.063389
v 0.002731 -0.097562 1.037967
v 0.013278 -0.015520 0.985874
v 0.013297 -0.020264 0.989092
v 0.004050 -0.016732 1.002115
v 0.008782 -0.021252 0.999486
v 0.001559 -0.010371 1.001160
v 0.002798 -0.003767 0.992517
v 0.000561 -0.006414 0.996949
v 0.012044 -0.022462 0.994598
v 0.011027 -0.010148 0.984390
v 0.006487 -0.004936 0.986675
v 0.019184 -0.007472 0.987876
v 0.014314 -0.001419 0.990854
v 0.010527 0.000448 0.996581
v 0.006361 -0.003793 1.001261
v 0.005535 -0.007882 1.004346
v 0.018582 -0.014885 0.989743
v 0.017534 -0.019463 0.992841
v 0.014225 -0.021487 0.998299
v 0.024088 -0.016025 0.995682
v 0.028818 -0.009973 1.002114
v 0.026625 -0.001633 1.019969
v 0.021713 -0.001844 1.015009
v 0.024235 -0.001957 1.013651
v 0.028540 -0.001239 1.018188
v 0.020326 -0.001314 1.009369
v 0.022542 -0.002300 1.009524
v 0.025225 -0.004685 1.005536
v 0.029055 -0.004293 1.010062
v 0.028491 -0.008679 1.004693
v 0.031245 -0.009732 1.007962
v 0.032974 -0.003951 1.014282
v 0.032429 -0.001180 1.019505
v 0.036081 -0.003803 1.018017
v 0.031525 -0.002442 1.022319
v 0.025837 -0.002554 1.003117
v 0.013417 -0.002173 1.008396
v 0.018381 -0.003201 1.015858
v 0.024163 -0.004027 1.021538
v 0.030068 -0.005062 1.023708
v 0.016317 -0.007034 1.016878
v 0.022352 -0.008064 1.021246
v 0.027897 -0.009470 1.022693
v 0.016474 -0.011981 1.016404
v 0.022587 -0.011885 1.019873
v 0.008568 -0.013459 1.007266
v 0.008769 -0.006990 1.008418
v 0.026681 -0.011544 1.021094
v 0.036932 -0.005166 1.020487
v 0.035252 -0.008157 1.021849
v 0.031473 -0.012844 1.006445
v 0.035300 -0.009246 1.011646
v 0.035147 -0.012286 1.011676
v 0.029829 -0.016467 1.005580
v 0.034181 -0.014959 1.012202
v 0.037770 -0.009730 1.016240
v 0.037069 -0.007242 1.014944
v 0.006312 -0.014191 1.004879
v 0.009617 -0.019286 1.002158
v 0.011594 -0.018654 1.004167
v 0.019053 -0.017317 1.013071
v 0.016447 -0.021333 1.001308
v 0.021296 -0.019791 0.997798
v 0.027492 -0.019163 1.006877
v 0.023435 -0.019862 1.009449
v 0.031351 -0.016769 1.013656
v 0.028532 -0.016947 1.014948
v 0.025006 -0.015184 1.017972
v 0.033144 -0.014087 1.017939
v 0.036297 -0.012480 1.017159
v 0.031920 -0.011463 1.021326
v 0.030457 -0.014829 1.017676
v 0.028978 -0.013198 1.019942
v -0.006435 -0.091700 1.031298
v -0.003963 -0.085645 1.029653
v -0.009371 -0.087000 1.027018
v -0.017625 -0.086694 1.022968
v -0.025753 -0.092583 1.019484
v -0.014934 -0.081310 1.019284
v -0.006508 -0.081815 1.023854
v 0.001638 -0.080287 1.027431
v -0.018887 -0.076974 1.010779
f 2 3 1
f 1 3 4
f 5 6 8
f 8 6 7
f 9 4 10
f 10 4 3
f 12 13 11
f 11 13 9
f 14 12 16
f 16 12 15
f 18 19 17
f 17 19 20
f 22 23 21
f 21 23 24
f 26 27 25
f 25 27 28
f 30 31 29
f 29 31 32
f 33 34 36
f 36 34 35
f 37 38 40
f 40 38 39
f 41 42 6
f 6 42 43
f 6 43 7
f 7 43 44
f 45 34 46
f 46 34 33
f 48 49 47
f 47 49 50
f 52 53 51
f 51 53 54
f 56 52 55
f 55 52 51
f 58 59 57
f 57 59 60
f 61 62 4
f 4 62 1
f 64 65 63
f 63 65 66
f 68 69 67
f 67 69 70
f 72 73 71
f 71 73 74
f 76 77 75
f 75 77 78
f 53 79 54
f 54 79 80
f 82 83 81
f 81 83 84
f 85 86 52
f 52 86 53
f 57 60 87
f 87 60 88
f 89 90 43
f 43 90 44
f 43 42 89
f 89 42 91
f 40 39 92
f 92 39 93
f 94 70 64
f 64 70 69
f 13 61 9
f 9 61 4
f 25 28 69
f 69 28 95
f 96 25 68
f 68 25 69
f 98 99 97
f 97 99 100
f 101 102 104
f 104 102 103
f 106 30 105
f 105 30 29
f 51 54 107
f 107 54 108
f 54 80 108
f 108 80 109
f 111 112 110
f 110 112 113
f 115 5 114
f 114 5 116
f 115 41 5
f 5 41 6
f 36 35 111
f 111 35 117
f 35 118 117
f 117 118 119
f 34 120 35
f 35 120 118
f 34 45 120
f 120 45 121
f 125 126 124
f 124 126 127
f 128 129 14
f 14 129 130
f 33 131 46
f 46 131 132
f 133 94 63
f 63 94 64
f 134 135 137
f 137 135 136
f 139 140 138
f 138 140 141
f 77 142 78
f 78 142 143
f 144 145 20
f 20 145 146
f 148 149 147
f 147 149 72
f 151 152 150
f 150 152 153
f 82 101 83
f 83 101 104
f 101 82 155
f 155 82 154
f 156 157 58
f 58 157 59
f 158 68 147
f 147 68 67
f 159 146 15
f 15 146 16
f 68 158 96
f 96 158 160
f 129 66 130
f 130 66 65
f 162 163 161
f 161 163 164
f 166 167 165
f 165 167 168
f 170 171 169
f 169 171 172
f 174 171 173
f 173 171 170
f 176 177 175
f 175 177 178
f 180 181 179
f 179 181 24
f 182 183 21
f 21 183 184
f 81 185 82
f 82 185 154
f 186 187 188
f 188 187 144
f 158 71 160
f 160 71 189
f 190 135 157
f 157 135 59
f 169 172 139
f 139 172 140
f 147 72 158
f 158 72 71
f 192 193 191
f 191 193 194
f 167 166 49
f 49 166 195
f 196 190 50
f 50 190 157
f 197 198 200
f 200 198 199
f 21 24 182
f 182 24 181
f 146 159 20
f 20 159 17
f 182 181 81
f 81 181 185
f 201 185 180
f 180 185 181
f 202 203 83
f 83 203 84
f 205 206 204
f 204 206 85
f 207 22 184
f 184 22 21
f 179 24 208
f 208 24 23
f 208 209 179
f 179 209 205
f 209 210 205
f 205 210 206
f 212 206 211
f 211 206 210
f 179 205 180
f 180 205 204
f 213 176 88
f 88 176 214
f 86 85 212
f 212 85 206
f 193 217 218
f 217 219 218
f 218 219 220
f 219 18 220
f 220 18 17
f 19 221 20
f 20 221 144
f 222 223 225
f 225 223 224
f 175 226 176
f 176 226 214
f 227 87 214
f 214 87 88
f 220 17 228
f 228 17 159
f 134 213 60
f 60 213 88
f 138 229 151
f 151 229 152
f 193 192 210
f 210 192 211
f 230 194 218
f 218 194 193
f 231 232 228
f 228 232 230
f 233 234 91
f 91 234 89
f 235 236 93
f 93 236 92
f 230 232 234
f 234 232 237
f 47 238 48
f 48 238 239
f 240 191 235
f 235 191 236
f 5 8 116
f 116 8 241
f 242 243 189
f 189 243 160
f 244 245 98
f 98 245 99
f 156 246 47
f 47 246 238
f 76 247 77
f 77 247 248
f 250 125 249
f 249 125 124
f 252 253 251
f 251 253 254
f 111 110 36
f 36 110 255
f 256 33 255
f 255 33 36
f 257 258 154
f 154 258 155
f 63 169 133
f 133 169 139
f 66 170 63
f 63 170 169
f 173 170 129
f 129 170 66
f 129 128 173
f 173 128 259
f 128 260 259
f 259 260 261
f 213 134 262
f 262 134 137
f 263 264 186
f 186 264 187
f 112 265 113
f 113 265 266
f 11 267 268
f 234 233 230
f 230 233 194
f 153 269 70
f 70 269 67
f 175 178 165
f 165 178 141
f 150 153 94
f 94 153 70
f 271 221 270
f 270 221 207
f 269 153 272
f 272 153 152
f 121 45 109
f 109 45 108
f 47 50 156
f 156 50 157
f 57 273 58
f 58 273 274
f 145 275 260
f 260 275 261
f 276 149 143
f 143 149 78
f 148 269 75
f 75 269 272
f 207 277 270
f 270 277 278
f 195 196 49
f 49 196 50
f 59 135 60
f 60 135 134
f 83 104 202
f 202 104 279
f 149 148 78
f 78 148 75
f 247 278 248
f 248 278 277
f 183 182 84
f 84 182 81
f 48 239 281
f 281 239 282
f 227 223 283
f 283 223 222
f 223 226 224
f 224 226 168
f 281 282 224
f 224 282 225
f 165 168 175
f 175 168 226
f 264 263 138
f 138 263 229
f 14 16 128
f 128 16 260
f 220 228 218
f 218 228 230
f 87 227 284
f 284 227 283
f 260 16 145
f 145 16 146
f 244 98 258
f 258 98 155
f 58 274 156
f 156 274 246
f 107 285 51
f 51 285 55
f 243 286 160
f 160 286 96
f 234 237 89
f 89 237 90
f 46 132 107
f 107 132 285
f 253 252 249
f 249 252 250
f 286 26 96
f 96 26 25
f 106 105 287
f 287 105 288
f 272 152 289
f 289 152 229
f 138 151 139
f 139 151 133
f 183 290 161
f 161 290 162
f 291 292 277
f 277 292 293
f 151 150 133
f 133 150 94
f 262 275 177
f 177 275 187
f 144 187 145
f 145 187 275
f 273 57 284
f 284 57 87
f 174 136 190
f 190 136 135
f 111 117 112
f 112 117 38
f 117 119 38
f 38 119 123
f 112 38 265
f 265 38 37
f 287 288 254
f 254 288 251
f 228 159 231
f 231 159 15
f 223 227 226
f 226 227 214
f 147 67 148
f 148 67 269
f 224 168 281
f 281 168 167
f 199 163 200
f 200 163 162
f 45 46 108
f 108 46 107
f 281 167 48
f 48 167 49
f 161 164 291
f 291 164 292
f 38 123 39
f 293 294 277
f 277 294 248
f 284 283 296
f 296 283 295
f 284 296 273
f 273 296 297
f 274 273 298
f 298 273 297
f 246 274 299
f 299 274 298
f 283 222 295
f 295 222 300
f 222 225 300
f 300 225 301
f 301 225 302
f 302 225 282
f 303 304 300
f 300 304 295
f 306 307 305
f 305 307 308
f 309 310 308
f 308 310 305
f 308 307 312
f 312 307 311
f 313 314 312
f 312 314 315
f 311 316 312
f 312 316 313
f 317 304 311
f 311 304 316
f 315 309 312
f 312 309 308
f 318 319 321
f 321 319 320
f 319 318 309
f 309 318 310
f 311 307 317
f 317 307 306
f 306 297 317
f 317 297 296
f 306 322 297
f 297 322 298
f 305 323 306
f 306 323 322
f 323 305 324
f 324 305 310
f 304 317 295
f 295 317 296
f 318 325 310
f 310 325 324
f 323 324 326
f 326 324 327
f 324 325 327
f 327 325 328
f 326 327 329
f 329 327 330
f 329 331 326
f 326 331 332
f 333 330 328
f 328 330 327
f 323 326 322
f 322 326 332
f 322 332 298
f 298 332 299
f 325 318 334
f 334 318 321
f 313 316 335
f 335 316 304
f 335 336 313
f 313 336 314
f 304 303 335
f 335 303 337
f 336 335 338
f 338 335 337
f 336 339 314
f 314 339 340
f 246 299 238
f 238 299 341
f 239 342 282
f 282 342 302
f 342 239 341
f 341 239 238
f 341 331 342
f 342 331 343
f 331 329 343
f 343 329 344
f 342 343 302
f 302 343 345
f 341 299 331
f 331 299 332
f 346 301 345
f 345 301 302
f 346 303 301
f 301 303 300
f 347 337 346
f 346 337 303
f 347 346 348
f 348 346 345
f 349 347 350
f 350 347 348
f 343 344 345
f 345 344 348
f 344 351 348
f 348 351 350
f 337 347 338
f 338 347 349
f 353 338 352
f 352 338 349
f 352 355 354
f 354 355 356
f 352 349 355
f 355 349 350
f 352 354 353
f 353 354 334
f 353 334 339
f 339 334 321
f 339 336 353
f 353 336 338
f 329 330 344
f 344 330 351
f 356 351 333
f 333 351 330
f 356 355 351
f 351 355 350
f 354 356 328
f 328 356 333
f 328 325 354
f 354 325 334
f 309 315 319
f 319 315 320
f 320 340 321
f 321 340 339
f 320 315 340
f 340 315 314
f 137 136 261
f 261 136 259
f 140 166 141
f 141 166 165
f 172 171 195
f 195 171 196
f 171 174 196
f 196 174 190
f 178 177 264
f 264 177 187
f 172 195 140
f 140 195 166
f 137 261 262
f 262 261 275
f 178 264 141
f 141 264 138
f 262 177 213
f 213 177 176
f 136 174 259
f 259 174 173
f 358 359 357
f 357 359 360
f 362 363 361
f 361 363 364
f 361 364 365
f 365 364 366
f 367 368 370
f 370 368 369
f 76 371 247
f 247 371 372
f 373 374 362
f 362 374 363
f 376 377 375
f 375 377 378
f 289 229 380
f 380 229 379
f 381 379 263
f 263 379 229
f 383 384 382
f 382 384 385
f 386 368 374
f 374 368 363
f 76 289 371
f 371 289 380
f 377 376 359
f 359 376 387
f 388 386 360
f 360 386 374
f 389 383 366
f 366 383 390
f 392 393 391
f 391 393 394
f 383 382 390
f 390 382 395
f 396 365 390
f 390 365 366
f 389 366 367
f 367 366 364
f 357 397 358
f 358 397 398
f 373 399 357
f 357 399 397
f 389 367 400
f 400 367 370
f 382 385 375
f 375 385 372
f 357 360 373
f 373 360 374
f 361 401 362
f 362 401 402
f 387 388 359
f 359 388 360
f 363 368 364
f 364 368 367
f 358 398 403
f 403 398 404
f 396 392 405
f 405 392 391
f 392 395 393
f 393 395 378
f 393 403 394
f 394 403 404
f 375 378 382
f 382 378 395
f 365 396 406
f 406 396 405
f 362 402 373
f 373 402 399
f 271 270 400
f 400 270 384
f 401 361 406
f 406 361 365
f 381 369 386
f 386 369 368
f 392 396 395
f 395 396 390
f 393 378 403
f 403 378 377
f 403 377 358
f 358 377 359
f 406 405 408
f 408 405 407
f 406 408 401
f 401 408 409
f 401 409 402
f 402 409 410
f 402 410 399
f 399 410 411
f 405 391 407
f 407 391 412
f 391 394 412
f 412 394 413
f 394 404 413
f 413 404 414
f 415 416 412
f 412 416 407
f 418 419 417
f 417 419 420
f 421 422 418
f 418 422 419
f 419 422 424
f 424 422 423
f 425 426 424
f 424 426 427
f 423 428 424
f 424 428 425
f 427 420 424
f 424 420 419
f 420 429 417
f 417 429 430
f 423 422 431
f 431 422 421
f 421 409 431
f 431 409 408
f 421 432 409
f 409 432 410
f 418 433 421
f 421 433 432
f 434 433 417
f 417 433 418
f 431 416 423
f 423 416 428
f 416 431 407
f 407 431 408
f 435 434 430
f 430 434 417
f 433 434 436
f 436 434 437
f 434 435 437
f 437 435 438
f 436 437 439
f 439 437 440
f 439 441 436
f 436 441 442
f 438 443 437
f 437 443 440
f 436 442 433
f 433 442 432
f 432 442 410
f 410 442 411
f 435 430 445
f 445 430 444
f 430 429 444
f 444 429 446
f 425 428 447
f 447 428 416
f 426 425 448
f 448 425 447
f 416 415 447
f 447 415 449
f 447 449 448
f 448 449 450
f 451 452 448
f 448 452 426
f 446 452 444
f 444 452 451
f 399 411 397
f 397 411 453
f 398 454 404
f 404 454 414
f 454 398 453
f 453 398 397
f 453 441 454
f 454 441 455
f 441 439 455
f 455 439 456
f 454 455 414
f 414 455 457
f 441 453 442
f 442 453 411
f 458 413 457
f 457 413 414
f 458 415 413
f 413 415 412
f 458 459 415
f 415 459 449
f 459 458 460
f 460 458 457
f 461 459 462
f 462 459 460
f 455 456 457
f 457 456 460
f 456 463 460
f 460 463 462
f 459 461 449
f 449 461 450
f 465 450 464
f 464 450 461
f 464 467 466
f 466 467 468
f 464 461 467
f 467 461 462
f 464 466 465
f 465 466 445
f 465 445 451
f 451 445 444
f 451 448 465
f 465 448 450
f 439 440 456
f 456 440 463
f 468 463 443
f 443 463 440
f 468 467 463
f 463 467 462
f 466 468 438
f 438 468 443
f 438 435 466
f 466 435 445
f 420 427 429
f 429 427 446
f 446 427 452
f 452 427 426
f 370 369 188
f 188 369 186
f 371 376 372
f 372 376 375
f 380 379 387
f 387 379 388
f 379 381 388
f 388 381 386
f 385 384 278
f 278 384 270
f 380 387 371
f 371 387 376
f 400 370 271
f 271 370 188
f 385 278 372
f 372 278 247
f 400 384 389
f 389 384 383
f 369 381 186
f 186 381 263
f 221 271 144
f 144 271 188
f 221 19 207
f 207 19 22
f 19 18 22
f 22 18 23
f 18 219 23
f 23 219 208
f 469 470 472
f 472 470 471
f 474 475 473
f 473 475 476
f 473 476 477
f 477 476 478
f 480 481 479
f 479 481 482
f 483 484 474
f 474 484 475
f 486 487 485
f 485 487 488
f 489 490 77
f 77 490 142
f 491 489 248
f 248 489 77
f 493 494 492
f 492 494 495
f 496 480 484
f 484 480 475
f 486 497 487
f 487 497 471
f 498 496 472
f 472 496 484
f 499 493 478
f 478 493 500
f 501 502 504
f 504 502 503
f 493 492 500
f 500 492 505
f 506 477 500
f 500 477 478
f 499 478 479
f 479 478 476
f 469 507 470
f 470 507 508
f 483 509 469
f 469 509 507
f 479 482 499
f 499 482 510
f 492 495 485
f 485 495 511
f 483 469 484
f 484 469 472
f 473 512 474
f 474 512 513
f 497 498 471
f 471 498 472
f 475 480 476
f 476 480 479
f 470 508 514
f 514 508 515
f 506 502 516
f 516 502 501
f 503 502 488
f 488 502 505
f 514 515 503
f 503 515 504
f 485 488 492
f 492 488 505
f 477 506 517
f 517 506 516
f 474 513 483
f 483 513 509
f 510 292 494
f 494 292 164
f 512 473 517
f 517 473 477
f 491 481 496
f 496 481 480
f 502 506 505
f 505 506 500
f 503 488 514
f 514 488 487
f 514 487 470
f 470 487 471
f 517 516 519
f 519 516 518
f 517 519 512
f 512 519 520
f 512 520 513
f 513 520 521
f 513 521 509
f 509 521 522
f 516 501 518
f 518 501 523
f 501 504 523
f 523 504 524
f 524 504 525
f 525 504 515
f 526 527 523
f 523 527 518
f 529 530 528
f 528 530 531
f 532 533 529
f 529 533 530
f 530 533 535
f 535 533 534
f 536 537 535
f 535 537 538
f 534 539 535
f 535 539 536
f 538 531 535
f 535 531 530
f 540 541 531
f 531 541 528
f 533 532 534
f 534 532 542
f 532 520 542
f 542 520 519
f 532 543 520
f 520 543 521
f 529 544 532
f 532 544 543
f 544 529 545
f 545 529 528
f 534 542 539
f 539 542 527
f 527 542 518
f 518 542 519
f 541 546 528
f 528 546 545
f 547 544 548
f 548 544 545
f 546 549 545
f 545 549 548
f 550 547 551
f 551 547 548
f 547 550 553
f 553 550 552
f 549 554 548
f 548 554 551
f 544 547 543
f 543 547 553
f 543 553 521
f 521 553 522
f 546 541 556
f 556 541 555
f 541 540 555
f 555 540 557
f 536 539 558
f 558 539 527
f 537 536 559
f 559 536 558
f 527 526 558
f 558 526 560
f 559 558 561
f 561 558 560
f 559 562 537
f 537 562 563
f 557 563 555
f 555 563 562
f 509 522 507
f 507 522 564
f 508 565 515
f 515 565 525
f 565 508 564
f 564 508 507
f 564 552 565
f 565 552 566
f 552 550 566
f 566 550 567
f 565 566 525
f 525 566 568
f 564 522 552
f 552 522 553
f 569 524 568
f 568 524 525
f 569 526 524
f 524 526 523
f 570 560 569
f 569 560 526
f 570 569 571
f 571 569 568
f 572 570 573
f 573 570 571
f 566 567 568
f 568 567 571
f 567 574 571
f 571 574 573
f 570 572 560
f 560 572 561
f 576 561 575
f 575 561 572
f 575 578 577
f 577 578 579
f 575 572 578
f 578 572 573
f 575 577 576
f 576 577 556
f 576 556 562
f 562 556 555
f 562 559 576
f 576 559 561
f 550 551 567
f 567 551 574
f 579 574 554
f 554 574 551
f 579 578 574
f 574 578 573
f 579 554 577
f 577 554 549
f 549 546 577
f 577 546 556
f 531 538 540
f 540 538 557
f 557 538 563
f 563 538 537
f 481 294 482
f 482 294 293
f 580 486 511
f 511 486 485
f 490 489 497
f 497 489 498
f 489 491 498
f 498 491 496
f 163 495 164
f 164 495 494
f 580 490 486
f 486 490 497
f 482 293 510
f 510 293 292
f 495 163 511
f 511 163 199
f 494 493 510
f 510 493 499
f 481 491 294
f 294 491 248
f 582 583 581
f 581 583 584
f 586 587 585
f 585 587 588
f 585 588 589
f 589 588 590
f 592 593 591
f 591 593 594
f 595 596 598
f 598 596 597
f 599 600 586
f 586 600 587
f 601 602 604
f 604 602 603
f 605 606 608
f 608 606 607
f 609 607 200
f 200 607 606
f 610 611 613
f 613 611 612
f 600 614 587
f 587 614 592
f 596 605 597
f 597 605 608
f 602 615 603
f 603 615 583
f 616 614 584
f 584 614 600
f 611 618 617
f 617 618 590
f 620 621 619
f 619 621 622
f 610 623 611
f 611 623 618
f 624 589 618
f 618 589 590
f 617 590 591
f 591 590 588
f 581 625 582
f 582 625 626
f 599 627 581
f 581 627 625
f 591 594 617
f 617 594 628
f 601 610 598
f 598 610 613
f 581 584 599
f 599 584 600
f 585 629 586
f 586 629 630
f 615 616 583
f 583 616 584
f 587 592 588
f 588 592 591
f 582 626 631
f 631 626 632
f 624 620 633
f 633 620 619
f 621 620 604
f 604 620 623
f 631 632 621
f 621 632 622
f 610 601 623
f 623 601 604
f 589 624 634
f 634 624 633
f 586 630 599
f 599 630 627
f 203 202 628
f 628 202 612
f 629 585 634
f 634 585 589
f 609 593 614
f 614 593 592
f 620 624 623
f 623 624 618
f 631 621 603
f 603 621 604
f 582 631 583
f 583 631 603
f 634 633 636
f 636 633 635
f 634 636 629
f 629 636 637
f 629 637 630
f 630 637 638
f 630 638 627
f 627 638 639
f 633 619 635
f 635 619 640
f 619 622 640
f 640 622 641
f 641 622 642
f 642 622 632
f 644 635 643
f 643 635 640
f 645 646 648
f 648 646 647
f 649 650 646
f 646 650 647
f 647 650 652
f 652 650 651
f 652 653 655
f 655 653 654
f 651 656 652
f 652 656 653
f 655 648 652
f 652 648 647
f 648 657 645
f 645 657 658
f 650 649 651
f 651 649 659
f 649 637 659
f 659 637 636
f 649 660 637
f 637 660 638
f 661 660 646
f 646 660 649
f 662 661 645
f 645 661 646
f 651 659 656
f 656 659 644
f 644 659 635
f 635 659 636
f 663 662 658
f 658 662 645
f 664 661 665
f 665 661 662
f 663 666 662
f 662 666 665
f 667 664 668
f 668 664 665
f 664 667 670
f 670 667 669
f 666 671 665
f 665 671 668
f 661 664 660
f 660 664 670
f 660 670 638
f 638 670 639
f 658 672 663
f 663 672 673
f 658 657 672
f 672 657 674
f 653 656 675
f 675 656 644
f 653 675 654
f 654 675 676
f 675 644 677
f 677 644 643
f 676 675 678
f 678 675 677
f 679 680 676
f 676 680 654
f 674 680 672
f 672 680 679
f 627 639 625
f 625 639 681
f 626 682 632
f 632 682 642
f 681 682 625
f 625 682 626
f 669 683 681
f 681 683 682
f 667 684 669
f 669 684 683
f 682 683 642
f 642 683 685
f 681 639 669
f 669 639 670
f 686 641 685
f 685 641 642
f 641 686 640
f 640 686 643
f 686 687 643
f 643 687 677
f 687 686 688
f 688 686 685
f 689 687 690
f 690 687 688
f 683 684 685
f 685 684 688
f 684 691 688
f 688 691 690
f 687 689 677
f 677 689 678
f 693 678 692
f 692 678 689
f 692 695 694
f 694 695 696
f 692 689 695
f 695 689 690
f 692 694 693
f 693 694 673
f 693 673 679
f 679 673 672
f 679 676 693
f 693 676 678
f 684 667 691
f 691 667 668
f 696 691 671
f 671 691 668
f 696 695 691
f 691 695 690
f 694 696 666
f 666 696 671
f 666 663 694
f 694 663 673
f 648 655 657
f 657 655 674
f 674 655 680
f 680 655 654
f 593 162 594
f 594 162 290
f 598 597 601
f 601 597 602
f 615 608 616
f 616 608 607
f 607 609 616
f 616 609 614
f 697 595 613
f 613 595 598
f 597 608 602
f 602 608 615
f 594 290 628
f 628 290 203
f 628 612 617
f 617 612 611
f 593 609 162
f 162 609 200
f 105 29 698
f 698 29 699
f 268 126 701
f 701 126 700
f 126 125 700
f 700 125 702
f 252 703 250
f 250 703 704
f 32 268 705
f 705 268 701
f 288 105 706
f 706 105 698
f 29 32 699
f 699 32 705
f 707 251 706
f 706 251 288
f 250 704 125
f 125 704 702
f 703 252 707
f 707 252 251
f 706 708 707
f 707 708 709
f 707 709 703
f 703 709 710
f 703 710 704
f 704 710 711
f 704 711 702
f 702 711 712
f 706 698 708
f 708 698 713
f 698 699 713
f 713 699 714
f 699 705 714
f 714 705 715
f 717 708 716
f 716 708 713
f 719 720 718
f 718 720 721
f 722 723 719
f 719 723 720
f 724 725 723
f 723 725 720
f 724 726 725
f 725 726 727
f 728 721 725
f 725 721 720
f 721 728 729
f 729 728 730
f 729 731 721
f 721 731 718
f 724 723 732
f 732 723 722
f 722 710 732
f 732 710 709
f 722 733 710
f 710 733 711
f 719 734 722
f 722 734 733
f 734 719 735
f 735 719 718
f 724 732 726
f 726 732 717
f 717 732 708
f 708 732 709
f 731 736 718
f 718 736 735
f 737 734 738
f 738 734 735
f 736 739 735
f 735 739 738
f 740 737 741
f 741 737 738
f 737 740 743
f 743 740 742
f 739 744 738
f 738 744 741
f 734 737 733
f 733 737 743
f 733 743 711
f 711 743 712
f 736 731 746
f 746 731 745
f 731 729 745
f 745 729 730
f 727 726 747
f 747 726 717
f 748 727 749
f 749 727 747
f 747 717 750
f 750 717 716
f 749 747 751
f 751 747 750
f 749 752 748
f 748 752 753
f 730 753 745
f 745 753 752
f 728 725 748
f 748 725 727
f 730 728 753
f 753 728 748
f 700 702 754
f 754 702 712
f 705 701 715
f 715 701 755
f 754 755 700
f 700 755 701
f 742 756 754
f 754 756 755
f 740 757 742
f 742 757 756
f 755 756 715
f 715 756 758
f 754 712 742
f 742 712 743
f 759 714 758
f 758 714 715
f 714 759 713
f 713 759 716
f 759 760 716
f 716 760 750
f 760 759 761
f 761 759 758
f 762 760 763
f 763 760 761
f 756 757 758
f 758 757 761
f 757 764 761
f 761 764 763
f 760 762 750
f 750 762 751
f 766 751 765
f 765 751 762
f 767 765 769
f 769 765 768
f 765 762 768
f 768 762 763
f 765 767 766
f 766 767 746
f 766 746 752
f 752 746 745
f 752 749 766
f 766 749 751
f 757 740 764
f 764 740 741
f 769 764 744
f 744 764 741
f 769 768 764
f 764 768 763
f 767 769 739
f 739 769 744
f 739 736 767
f 767 736 746
f 219 217 208
f 208 217 209
f 209 217 210
f 210 217 193
f 198 580 199
f 199 580 511
f 76 75 289
f 289 75 272
f 277 207 291
f 291 207 184
f 290 183 203
f 203 183 84
f 490 580 142
f 142 580 198
f 142 198 143
f 143 198 197
f 149 276 72
f 72 276 73
f 104 103 279
f 279 103 770
f 770 596 279
f 279 596 595
f 605 596 771
f 771 596 770
f 771 770 772
f 772 770 103
f 772 103 773
f 773 103 102
f 155 774 101
f 101 774 102
f 773 102 97
f 97 102 774
f 775 773 100
f 100 773 97
f 773 775 772
f 772 775 776
f 772 776 771
f 771 776 777
f 200 606 197
f 197 606 777
f 189 71 778
f 778 71 74
f 97 774 98
f 98 774 155
f 183 161 184
f 184 161 291
f 777 276 197
f 197 276 143
f 777 606 771
f 771 606 605
f 613 612 697
f 697 612 202
f 595 697 279
f 279 697 202
f 73 276 776
f 776 276 777
f 776 775 73
f 73 775 74
f 100 778 775
f 775 778 74
f 778 100 189
f 189 100 99
f 245 242 99
f 99 242 189
f 131 33 256
f 28 1 95
f 95 1 62
f 27 2 28
f 28 2 1
f 265 115 266
f 266 115 114
f 95 62 69
f 69 62 64
f 62 61 64
f 64 61 65
f 61 13 65
f 65 13 130
f 13 12 130
f 130 12 14
f 31 11 32
f 32 11 268
f 15 12 31
f 31 12 11
f 31 30 15
f 15 30 231
f 30 106 231
f 231 106 232
f 287 237 106
f 106 237 232
f 254 90 287
f 287 90 237
f 253 44 254
f 254 44 90
f 253 249 44
f 44 249 7
f 267 127 268
f 268 127 126
f 10 3 241
f 241 3 116
f 3 2 116
f 116 2 114
f 2 27 114
f 114 27 266
f 27 26 266
f 266 26 113
f 26 286 113
f 113 286 110
f 286 243 110
f 110 243 255
f 243 242 255
f 255 242 256
f 242 245 256
f 256 245 131
f 245 244 131
f 131 244 132
f 265 37 115
f 115 37 41
f 41 37 42
f 42 37 40
f 92 91 40
f 40 91 42
f 236 233 92
f 92 233 91
f 191 194 236
f 236 194 233
f 258 285 244
f 244 285 132
f 257 55 258
f 258 55 285
f 257 154 201
f 201 154 185
f 56 201 204
f 204 201 180
f 55 257 56
f 56 257 201
f 204 85 56
f 56 85 52
f 86 122 53
f 53 122 79
f 212 215 86
f 86 215 122
f 211 216 212
f 212 216 215
f 192 280 211
f 211 280 216
f 191 240 192
f 192 240 280
f 249 124 7
f 7 124 8
f 124 127 8
f 8 127 241
f 127 267 241
f 241 267 10
f 10 267 9
f 9 267 11
o hand_right
v 0.018985 0.080013 0.996244
v 0.009666 0.084964 0.994394
v 0.010597 0.074098 0.995386
v 0.019846 0.070063 0.996016
v -0.010987 0.079393 0.991749
v -0.018247 0.077049 0.981751
v -0.011666 0.062449 0.986008
v -0.007254 0.067007 0.994381
v 0.021981 0.062501 0.994182
v 0.011775 0.065834 0.995909
v 0.023572 0.060713 0.989158
v 0.036070 0.059841 0.984582
v 0.032223 0.060649 0.991316
v 0.044698 0.058919 0.985178
v 0.036883 0.066301 0.975112
v 0.051553 0.064981 0.981250
v 0.044937 0.094690 0.978994
v 0.044978 0.106562 0.985752
v 0.059014 0.098802 0.994183
v 0.056882 0.087022 0.987085
v 0.051244 0.116008 1.004138
v 0.056168 0.106236 0.999058
v 0.043231 0.114552 0.989896
v 0.039381 0.122745 0.994962
v 0.016731 0.096057 0.999594
v 0.008006 0.101749 0.996845
v 0.009190 0.096304 0.994893
v 0.017245 0.090858 0.997467
v 0.017955 0.054273 0.982810
v 0.019847 0.061224 0.973371
v 0.024359 0.060747 0.980211
v 0.017827 0.055482 0.988308
v -0.015586 0.119089 0.997010
v -0.021321 0.126188 0.986882
v -0.021420 0.121722 0.982966
v -0.015745 0.116409 0.992884
v -0.022499 0.099602 0.975938
v -0.023060 0.108604 0.970270
v -0.022498 0.107685 0.956373
v -0.019162 0.098687 0.959607
v -0.021022 0.087991 0.979716
v -0.019773 0.087002 0.965573
v -0.017023 0.074961 0.970041
v -0.010652 0.059442 0.976970
v -0.019009 0.137145 0.993373
v -0.014917 0.133405 1.002045
v 0.049754 0.037955 1.025106
v 0.048965 0.043002 1.028289
v 0.049158 0.044741 1.024931
v 0.050180 0.039543 1.022212
v -0.002540 0.149143 0.994983
v 0.004713 0.151897 0.988394
v -0.001441 0.155347 0.986412
v -0.008692 0.151491 0.991163
v 0.005559 0.145959 1.000005
v 0.012835 0.146464 0.991236
v 0.061248 0.032897 1.027894
v 0.056541 0.032111 1.025795
v 0.059133 0.033938 1.021809
v 0.064128 0.035483 1.023608
v 0.028662 0.065902 0.996091
v 0.026442 0.074732 0.999259
v 0.042607 0.061002 1.002220
v 0.037598 0.066983 1.001343
v 0.036917 0.062181 0.996050
v 0.042025 0.057974 0.996801
v 0.035142 0.088736 1.010757
v 0.026094 0.093940 1.005492
v 0.027330 0.087918 1.002897
v 0.036537 0.080569 1.008141
v 0.023412 0.104933 1.014222
v 0.032832 0.099141 1.018394
v 0.030256 0.106169 1.022819
v 0.023362 0.108568 1.019720
v 0.049042 0.087637 1.022571
v 0.053570 0.085431 1.024157
v 0.051670 0.087435 1.027384
v 0.047795 0.090752 1.024457
v -0.006864 0.158890 0.983449
v -0.014276 0.153219 0.986749
v 0.042275 0.131849 1.016762
v 0.032931 0.135645 1.022153
v 0.043547 0.131935 1.030657
v 0.051485 0.128927 1.022369
v 0.010852 0.148769 0.980479
v 0.005503 0.154373 0.979055
v 0.064667 0.036883 1.031389
v 0.067244 0.039499 1.027471
v -0.008947 0.078428 0.959895
v -0.004547 0.059840 0.969121
v -0.011009 0.092997 0.954725
v -0.011719 0.103316 0.951312
v -0.014778 0.110425 0.947390
v 0.040830 0.070059 1.006352
v 0.024039 0.083932 0.999771
v 0.015986 0.100383 1.002217
v 0.012796 0.121793 1.024613
v 0.004195 0.125769 1.019873
v 0.006669 0.115868 1.016205
v 0.014102 0.114712 1.020745
v 0.026054 0.132559 1.028714
v 0.022988 0.125092 1.030607
v 0.030824 0.122730 1.034775
v 0.035466 0.129549 1.034455
v 0.014533 0.050276 0.977371
v 0.014503 0.061288 0.967822
v -0.010087 0.143099 0.999518
v -0.015326 0.144134 0.993734
v -0.019779 0.147692 0.987373
v -0.004445 0.109228 0.996636
v -0.015988 0.114464 0.990110
v -0.016057 0.110438 0.988210
v -0.003332 0.107037 0.994609
v -0.001459 0.089702 0.994218
v -0.013868 0.093371 0.989663
v 0.000388 0.077940 0.996777
v -0.022861 0.116558 0.976775
v -0.027883 0.126381 0.976358
v -0.028009 0.120353 0.969714
v -0.026402 0.134420 0.981910
v -0.023728 0.141923 0.986067
v 0.001638 0.160924 0.975172
v -0.026386 0.115080 0.963260
v -0.003483 0.058773 0.995554
v 0.000324 0.051894 0.997018
v 0.006870 0.055765 0.998388
v 0.004249 0.061981 0.997433
v 0.052229 0.056093 0.989082
v 0.045594 0.055206 0.992940
v 0.038765 0.058555 0.989691
v -0.007768 0.118295 1.005650
v -0.007701 0.130432 1.009683
v 0.045663 0.063918 1.007163
v 0.065043 0.039068 1.018472
v 0.059609 0.037053 1.016633
v 0.056156 0.048214 1.000144
v 0.062829 0.050181 1.001794
v 0.053754 0.064981 1.012048
v 0.047584 0.062677 1.009312
v 0.048877 0.062255 1.010832
v 0.053504 0.064253 1.015290
v 0.048534 0.095543 1.031016
v 0.044738 0.098210 1.028205
v 0.065340 0.078577 0.998199
v 0.065118 0.069735 0.987344
v 0.055230 0.076046 0.980714
v 0.033479 0.095093 1.014441
v 0.041535 0.091118 1.019580
v 0.040907 0.094650 1.021816
v 0.044146 0.071188 1.009545
v 0.049145 0.067338 1.010983
v 0.048956 0.071981 1.012333
v 0.043506 0.076135 1.011513
v 0.023344 0.140286 1.013809
v 0.015435 0.136853 1.021869
v 0.052471 0.034028 1.024523
v 0.053894 0.035577 1.021039
v 0.024624 0.100047 1.009197
v 0.042831 0.083577 0.975232
v 0.014949 0.104810 1.005385
v 0.059114 0.110531 1.024530
v 0.054212 0.109231 1.031572
v 0.055618 0.104926 1.034813
v 0.060703 0.104364 1.031344
v 0.056258 0.055086 1.027424
v 0.051145 0.052473 1.025986
v 0.051430 0.049513 1.028452
v 0.056408 0.051711 1.030925
v 0.044814 0.059288 1.005233
v 0.044627 0.055296 1.000293
v 0.045843 0.053297 1.004609
v 0.046688 0.058003 1.008522
v 0.048667 0.052501 0.996617
v 0.049905 0.049646 1.001060
v 0.062833 0.054166 1.027368
v 0.068120 0.049084 1.025187
v 0.066685 0.060677 1.010706
v 0.061097 0.063040 1.015973
v 0.029398 0.129822 0.985602
v 0.025827 0.137462 0.993059
v 0.035866 0.130796 1.002512
v 0.046948 0.125267 1.011738
v 0.056830 0.118458 1.019942
v 0.061895 0.110844 1.011714
v 0.031768 0.136396 1.007182
v 0.059668 0.071406 1.008776
v 0.065355 0.068700 1.002174
v 0.063792 0.073847 1.004693
v 0.013203 0.109528 1.010978
v 0.053993 0.038215 1.016482
v 0.005365 0.119137 0.949800
v 0.010187 0.130291 0.955533
v 0.014982 0.123795 0.959054
v 0.009080 0.111011 0.953192
v 0.048232 0.047307 1.022360
v 0.048964 0.041933 1.018518
v 0.044494 0.102883 1.033144
v 0.048572 0.099676 1.035006
v 0.050533 0.101915 1.037053
v 0.046311 0.105591 1.038178
v 0.022426 0.141334 0.996295
v 0.048234 0.126059 1.037225
v 0.055262 0.123980 1.029107
v 0.017348 0.142998 0.984540
v 0.020806 0.136790 0.977686
v 0.014656 0.142280 0.972372
v 0.065668 0.096273 1.009535
v 0.032725 0.122714 0.981687
v 0.022900 0.130358 0.973923
v 0.015642 0.136618 0.967386
v 0.010940 0.141906 0.962893
v 0.010227 0.147493 0.968884
v 0.067963 0.043609 1.022279
v 0.067289 0.045407 1.031199
v 0.006363 0.154404 0.964392
v 0.006837 0.147499 0.958107
v 0.024013 0.122447 0.969210
v 0.023963 0.112259 0.964132
v 0.033314 0.115238 0.977040
v 0.034281 0.104606 0.972493
v 0.069646 0.091475 1.000152
v 0.057074 0.041509 1.045050
v 0.061171 0.047156 1.036612
v 0.055910 0.049138 1.034841
v 0.053806 0.044319 1.044380
v 0.062241 0.050520 1.032039
v 0.064695 0.042827 1.035098
v 0.030564 0.090884 0.967763
v 0.053226 0.069998 1.013217
v 0.016515 0.096696 0.959124
v 0.027974 0.073248 0.966770
v 0.015874 0.076755 0.961702
v 0.001006 0.100648 0.950642
v 0.002681 0.084240 0.955013
v -0.005863 0.116185 0.944751
v -0.001355 0.109498 0.948177
v 0.003808 0.068055 0.961547
v 0.045393 0.037081 1.034551
v 0.046077 0.042322 1.037173
v 0.001148 0.125110 0.945762
v 0.002692 0.068582 0.997302
v 0.003588 0.111643 1.006163
v 0.005478 0.108065 1.002126
v -0.000683 0.127744 1.016155
v 0.000344 0.116854 1.011425
v 0.047653 0.032240 1.033600
v 0.056987 0.085566 1.025623
v 0.055137 0.086553 1.025577
v -0.007597 0.054361 0.989393
v -0.003813 0.048485 0.991545
v 0.002592 0.044171 0.980725
v -0.002505 0.044718 0.985869
v -0.006580 0.051147 0.981343
v -0.001393 0.050693 0.975455
v -0.005102 0.110849 0.998696
v -0.005593 0.113440 1.001696
v 0.013741 0.143513 1.006765
v 0.006508 0.139456 1.014990
v 0.054831 0.053006 0.994443
v 0.059653 0.060387 0.988109
v 0.061282 0.056219 0.994819
v 0.066680 0.056027 1.004043
v 0.056310 0.069303 1.012501
v 0.059492 0.067155 1.010486
v -0.014874 0.102569 0.989106
v -0.002121 0.100420 0.993401
v 0.012310 0.061393 0.995009
v 0.013875 0.057045 0.995208
v 0.041829 0.083681 1.014113
v 0.066623 0.086960 1.017351
v 0.068808 0.082886 1.009117
v 0.049123 0.079585 1.016790
v 0.054510 0.029337 1.037496
v 0.050372 0.029885 1.034800
v 0.065550 0.061998 0.996486
v 0.038227 0.101201 1.026688
v 0.063936 0.092961 1.017973
v 0.063119 0.087083 1.023589
v 0.039422 0.126141 1.038111
v 0.004975 0.136040 0.951112
v 0.050877 0.047814 1.032355
v 0.048696 0.045643 1.040182
v 0.059286 0.038008 1.043759
v 0.058992 0.032924 1.040310
v -0.001918 0.140213 1.007838
v 0.007004 0.105424 0.999743
v 0.005956 0.055826 0.969165
v 0.008764 0.046889 0.977304
v 0.053038 0.078327 1.017554
v 0.056365 0.115590 1.028321
v 0.064347 0.104369 1.019593
v 0.065759 0.097904 1.027475
v 0.064541 0.090444 1.025848
v 0.059463 0.085642 1.026568
v 0.055763 0.036579 1.048235
v 0.055279 0.031411 1.045087
v 0.050770 0.028155 1.042133
v 0.047231 0.028850 1.039134
v 0.045183 0.032147 1.037012
v 0.053542 0.040267 1.049515
v 0.050669 0.042792 1.048530
v 0.047313 0.044662 1.043311
v 0.049804 0.040050 1.052608
v 0.049842 0.035016 1.054230
v 0.039233 0.026788 1.050863
v 0.044796 0.026941 1.048755
v 0.044122 0.027399 1.051386
v 0.039868 0.027322 1.054030
v 0.036429 0.027584 1.057908
v 0.035043 0.026884 1.054703
v 0.047891 0.030057 1.052186
v 0.042565 0.030280 1.056330
v 0.043729 0.034042 1.057965
v 0.039696 0.033469 1.061705
v 0.038618 0.029983 1.060509
v 0.047429 0.033438 1.055217
v 0.049920 0.030040 1.050910
v 0.032985 0.028341 1.058606
v 0.034840 0.028079 1.060323
v 0.036162 0.030384 1.062364
v 0.033270 0.031442 1.062628
v 0.043577 0.028226 1.042898
v 0.037632 0.027641 1.048957
v 0.033555 0.029253 1.053172
v 0.031724 0.030497 1.057224
v 0.035566 0.031186 1.048479
v 0.032993 0.032087 1.052481
v 0.031570 0.033603 1.055969
v 0.034770 0.035388 1.049034
v 0.032927 0.035298 1.052791
v 0.042188 0.036000 1.039892
v 0.042988 0.031835 1.039469
v 0.031589 0.035561 1.055028
v 0.032299 0.033300 1.061814
v 0.045044 0.037458 1.057331
v 0.039229 0.036669 1.061199
v 0.044313 0.039645 1.056626
v 0.038799 0.038995 1.060757
v 0.036030 0.035289 1.063933
v 0.037201 0.033086 1.063168
v 0.044478 0.037251 1.036933
v 0.045426 0.042520 1.039790
v 0.043557 0.041605 1.042344
v 0.035959 0.039807 1.050645
v 0.045129 0.043920 1.045859
v 0.047122 0.042516 1.051393
v 0.041998 0.041391 1.055881
v 0.039295 0.042125 1.053823
v 0.037652 0.040351 1.058851
v 0.036150 0.040359 1.056737
v 0.033721 0.038602 1.054273
v 0.034297 0.038545 1.060285
v 0.035225 0.037055 1.062729
v 0.032003 0.035670 1.059338
v 0.034145 0.039190 1.058400
v 0.032611 0.036960 1.057045
v 0.049687 0.058652 1.039932
v 0.049465 0.064072 1.043349
v 0.051759 0.065229 1.039479
v 0.051858 0.060532 1.036705
v 0.061846 0.052036 1.042671
v 0.056073 0.052353 1.039997
v 0.059391 0.053781 1.036043
v 0.065746 0.054866 1.038955
v 0.065820 0.056705 1.046635
v 0.069052 0.060016 1.042468
v 0.067733 0.057782 1.033907
v 0.061087 0.056652 1.031261
v 0.060690 0.068617 1.014374
v 0.067016 0.070507 1.015383
v 0.053775 0.081663 1.024830
v 0.056564 0.082990 1.026828
v 0.051893 0.055305 1.039306
v 0.054716 0.056647 1.035648
v 0.056182 0.073555 1.041836
v 0.052222 0.070829 1.039019
v 0.052499 0.069070 1.042512
v 0.056632 0.071009 1.045654
v 0.053347 0.071791 1.016620
v 0.053776 0.077014 1.020569
v 0.056020 0.069509 1.015135
v 0.062686 0.073310 1.043489
v 0.068728 0.070054 1.042629
v 0.069614 0.081203 1.025398
v 0.064767 0.083436 1.028610
v 0.055810 0.058161 1.031122
v 0.050858 0.066078 1.035905
v 0.051703 0.061753 1.032803
v 0.070472 0.063787 1.037569
v 0.066978 0.066268 1.047429
v 0.053220 0.061477 1.060675
v 0.059428 0.067152 1.052035
v 0.054742 0.068569 1.050087
v 0.048649 0.063654 1.059794
v 0.061793 0.070024 1.047835
v 0.063776 0.063085 1.051128
v 0.041087 0.055064 1.051852
v 0.041302 0.060516 1.055029
v 0.043065 0.050990 1.051041
v 0.070330 0.075751 1.019156
v 0.053001 0.048076 1.052647
v 0.046685 0.048647 1.050827
v 0.050911 0.067877 1.046727
v 0.044030 0.063417 1.058022
v 0.056250 0.058018 1.059991
v 0.057689 0.052252 1.055693
v 0.052441 0.055793 1.063818
v 0.053014 0.050233 1.060621
v 0.048493 0.046168 1.057313
v 0.043270 0.047351 1.054820
v 0.040559 0.050208 1.054107
v 0.049765 0.059251 1.064562
v 0.045662 0.061726 1.063582
v 0.042101 0.061978 1.059859
v 0.044138 0.058303 1.068793
v 0.045823 0.054181 1.069565
v 0.030966 0.043380 1.069761
v 0.035843 0.043851 1.066295
v 0.037118 0.044409 1.068559
v 0.032766 0.043944 1.071897
v 0.041868 0.044193 1.064337
v 0.041355 0.045044 1.066766
v 0.044087 0.048405 1.068456
v 0.038798 0.047910 1.071474
v 0.039889 0.052493 1.072823
v 0.035765 0.051575 1.076659
v 0.034653 0.046913 1.075633
v 0.043566 0.051648 1.070591
v 0.030400 0.044378 1.074601
v 0.027841 0.044855 1.074237
v 0.046768 0.048243 1.066760
v 0.040655 0.045718 1.058390
v 0.033630 0.044752 1.064300
v 0.028488 0.045132 1.068483
v 0.026061 0.047327 1.073778
v 0.031061 0.048019 1.063466
v 0.027049 0.048029 1.068102
v 0.025697 0.049836 1.072657
v 0.029556 0.052545 1.063673
v 0.026329 0.052199 1.068595
v 0.037369 0.054011 1.056079
v 0.038277 0.049311 1.056044
v 0.025838 0.051796 1.071215
v 0.029071 0.047446 1.078233
v 0.026805 0.049764 1.077173
v 0.030832 0.046913 1.077715
v 0.039861 0.054627 1.073033
v 0.034693 0.053587 1.076674
v 0.038591 0.057152 1.072726
v 0.033071 0.055429 1.076649
v 0.031117 0.051711 1.079089
v 0.031990 0.050202 1.078906
v 0.039599 0.054469 1.054505
v 0.040232 0.059526 1.056931
v 0.038253 0.059204 1.058148
v 0.030768 0.057208 1.065861
v 0.040417 0.061754 1.061588
v 0.042219 0.060698 1.066695
v 0.036993 0.059044 1.071270
v 0.033680 0.059438 1.068987
v 0.032050 0.057242 1.075856
v 0.030919 0.057979 1.072810
v 0.027638 0.055839 1.069944
v 0.028633 0.054728 1.077733
v 0.029865 0.052995 1.078882
v 0.026283 0.051461 1.075735
v 0.028352 0.056083 1.075039
v 0.026292 0.053591 1.073254
v 0.047905 0.077872 1.050118
v 0.047501 0.083269 1.052204
v 0.048644 0.084620 1.048901
v 0.049402 0.079374 1.046790
v 0.059886 0.073323 1.052437
v 0.055166 0.072242 1.051047
v 0.057130 0.073739 1.047005
v 0.062473 0.075258 1.047333
v 0.062221 0.076799 1.056436
v 0.065833 0.079830 1.050060
v 0.064457 0.077479 1.042508
v 0.058635 0.075480 1.042942
v 0.058965 0.083412 1.030237
v 0.065077 0.085820 1.031084
v 0.050991 0.074374 1.050183
v 0.052493 0.075748 1.046714
v 0.052987 0.091924 1.051219
v 0.049381 0.089127 1.049220
v 0.050607 0.088711 1.051924
v 0.054154 0.090363 1.053951
v 0.049761 0.087987 1.030826
v 0.049383 0.093519 1.033264
v 0.053246 0.084491 1.030635
v 0.059638 0.092008 1.051882
v 0.065951 0.088957 1.049561
v 0.063779 0.098115 1.038635
v 0.058007 0.100052 1.039719
v 0.053555 0.076701 1.043337
v 0.047756 0.085010 1.046093
v 0.049091 0.079934 1.044041
v 0.066982 0.082876 1.045082
v 0.064601 0.085727 1.054106
v 0.052738 0.080461 1.072350
v 0.058737 0.087475 1.058953
v 0.053101 0.088769 1.057296
v 0.048891 0.082640 1.071553
v 0.059715 0.089645 1.055701
v 0.062514 0.083003 1.058584
v 0.041181 0.073816 1.064029
v 0.041832 0.079019 1.065885
v 0.044105 0.070641 1.062867
v 0.067610 0.091884 1.034223
v 0.051834 0.099137 1.038100
v 0.050765 0.068099 1.065452
v 0.046845 0.068668 1.063535
v 0.049725 0.087327 1.054955
v 0.044820 0.082535 1.069183
v 0.055526 0.076669 1.071011
v 0.055377 0.071349 1.067740
v 0.052383 0.075534 1.075650
v 0.051959 0.070144 1.072544
v 0.047733 0.066692 1.070232
v 0.043979 0.067585 1.067973
v 0.041402 0.069745 1.066957
v 0.049600 0.079407 1.076631
v 0.046271 0.081278 1.075462
v 0.043804 0.081475 1.070819
v 0.046389 0.079107 1.079840
v 0.047827 0.073969 1.081193
v 0.033862 0.065050 1.084298
v 0.037707 0.065592 1.079961
v 0.038489 0.066005 1.080854
v 0.035085 0.065242 1.085524
v 0.043508 0.065894 1.076513
v 0.042924 0.066345 1.078411
v 0.045657 0.068762 1.079879
v 0.041296 0.068485 1.084623
v 0.042263 0.074399 1.085406
v 0.038677 0.073187 1.088932
v 0.037781 0.067649 1.088740
v 0.046199 0.072797 1.081914
v 0.033578 0.065684 1.088363
v 0.032021 0.064525 1.088107
v 0.047568 0.068841 1.078310
v 0.040755 0.066089 1.072422
v 0.035504 0.065770 1.077998
v 0.031343 0.065227 1.082255
v 0.029564 0.066493 1.086141
v 0.033358 0.068618 1.076564
v 0.030207 0.067954 1.080999
v 0.028633 0.068968 1.084554
v 0.032493 0.071819 1.076296
v 0.029957 0.071192 1.080513
v 0.038645 0.073005 1.068656
v 0.039172 0.068987 1.069873
v 0.028920 0.071039 1.083529
v 0.033180 0.067874 1.091390
v 0.030267 0.070622 1.089958
v 0.034617 0.067854 1.090408
v 0.042609 0.076213 1.085079
v 0.037865 0.075321 1.089645
v 0.041359 0.078587 1.084063
v 0.036591 0.077538 1.088576
v 0.035251 0.072686 1.091812
v 0.035893 0.071792 1.091277
v 0.040403 0.073673 1.066522
v 0.041217 0.078490 1.067961
v 0.039487 0.077710 1.069747
v 0.032865 0.076279 1.077747
v 0.041867 0.080881 1.072470
v 0.043280 0.080721 1.078423
v 0.038736 0.079602 1.082319
v 0.035479 0.079065 1.080398
v 0.034780 0.078424 1.086595
v 0.033519 0.077939 1.084046
v 0.030262 0.075172 1.081600
v 0.032197 0.075692 1.088361
v 0.033604 0.074689 1.090801
v 0.029203 0.072337 1.087480
v 0.031320 0.076155 1.086038
v 0.029149 0.073573 1.085244
v 0.049829 0.097169 1.035917
v 0.043222 0.096050 1.058200
v 0.042665 0.100050 1.059839
v 0.043283 0.100506 1.059091
v 0.043412 0.096871 1.056448
v 0.054377 0.093251 1.057218
v 0.049749 0.091962 1.057029
v 0.051201 0.093041 1.053403
v 0.055566 0.094482 1.053597
v 0.057155 0.097448 1.058948
v 0.057734 0.098949 1.056081
v 0.055430 0.097027 1.050309
v 0.051017 0.095323 1.049728
v 0.051429 0.105870 1.035838
v 0.055386 0.110009 1.035446
v 0.041802 0.121710 1.042637
v 0.037775 0.118155 1.040483
v 0.040672 0.114339 1.048339
v 0.044169 0.117842 1.049054
v 0.045929 0.093316 1.057314
v 0.046291 0.094062 1.054144
v 0.048165 0.108522 1.061331
v 0.044291 0.105722 1.059954
v 0.044144 0.104194 1.060974
v 0.047160 0.107166 1.063062
v 0.038155 0.112999 1.039008
v 0.041387 0.109313 1.037464
v 0.041245 0.107341 1.041602
v 0.040138 0.109799 1.046484
v 0.045485 0.104727 1.039586
v 0.052599 0.108706 1.060520
v 0.057195 0.106139 1.057465
v 0.053275 0.120260 1.044524
v 0.048717 0.120405 1.046967
v 0.046954 0.095241 1.052009
v 0.042891 0.102027 1.057165
v 0.043626 0.098093 1.055423
v 0.058196 0.101312 1.053020
v 0.056292 0.104065 1.060121
v 0.049766 0.103463 1.071022
v 0.051569 0.106645 1.064604
v 0.046636 0.106883 1.064075
v 0.046597 0.104424 1.070297
v 0.051743 0.106926 1.062971
v 0.055655 0.102796 1.063133
v 0.040804 0.094889 1.063791
v 0.041193 0.099978 1.065915
v 0.042705 0.092034 1.063146
v 0.056291 0.115613 1.038397
v 0.050052 0.090482 1.064662
v 0.045606 0.090174 1.063839
v 0.043708 0.103650 1.062041
v 0.043265 0.103346 1.068388
v 0.053008 0.099850 1.070201
v 0.053999 0.094517 1.066675
v 0.050538 0.097751 1.073820
v 0.051258 0.092669 1.070165
v 0.046436 0.089388 1.067416
v 0.043161 0.090516 1.065449
v 0.040870 0.092689 1.064654
v 0.047697 0.101973 1.074072
v 0.045223 0.103362 1.072821
v 0.042577 0.102844 1.069863
v 0.045349 0.100434 1.077040
v 0.045602 0.095596 1.077565
v 0.033115 0.090578 1.076681
v 0.036192 0.090312 1.073751
v 0.036949 0.090331 1.074718
v 0.033753 0.090030 1.077410
v 0.041241 0.089600 1.071379
v 0.040844 0.090005 1.073133
v 0.044000 0.091423 1.074515
v 0.039730 0.091320 1.077930
v 0.040928 0.095827 1.080744
v 0.037473 0.095180 1.083110
v 0.036911 0.091066 1.080622
v 0.044248 0.094286 1.077864
v 0.032508 0.089872 1.079965
v 0.031087 0.089999 1.080109
v 0.046149 0.091056 1.073475
v 0.039246 0.090927 1.067996
v 0.033989 0.091185 1.072582
v 0.030706 0.091236 1.076613
v 0.029594 0.091866 1.080325
v 0.033388 0.093312 1.071271
v 0.029593 0.093174 1.075907
v 0.028712 0.093870 1.079491
v 0.033202 0.096693 1.071011
v 0.029913 0.095771 1.075614
v 0.037823 0.097322 1.066587
v 0.037873 0.093729 1.066688
v 0.029217 0.095370 1.078653
v 0.032560 0.091517 1.083492
v 0.030597 0.093778 1.082931
v 0.034141 0.091064 1.083164
v 0.041138 0.097236 1.080973
v 0.036868 0.096628 1.083792
v 0.040603 0.099635 1.080598
v 0.035680 0.098415 1.083290
v 0.034037 0.094642 1.084768
v 0.035392 0.093488 1.083994
v 0.039296 0.096329 1.065390
v 0.040328 0.099802 1.066945
v 0.039204 0.100863 1.068630
v 0.034576 0.100260 1.072780
v 0.041758 0.103200 1.071892
v 0.043989 0.102700 1.075148
v 0.039098 0.101433 1.079101
v 0.036890 0.102132 1.076520
v 0.034159 0.099462 1.082071
v 0.032687 0.100139 1.079458
v 0.030946 0.098806 1.076856
v 0.031291 0.096942 1.082671
v 0.032198 0.096011 1.084078
v 0.029833 0.095366 1.081761
v 0.030717 0.097795 1.081003
v 0.029846 0.096835 1.079919
v 0.045944 0.122262 1.043000
v 0.018656 0.040797 0.987846
v 0.020301 0.044753 0.991604
v 0.008660 0.044761 1.003501
v 0.015290 0.046813 1.001798
v 0.003715 0.040284 1.001508
v 0.003068 0.034312 0.992153
v 0.001634 0.037441 0.996753
v 0.019410 0.046782 0.997281
v 0.014446 0.037069 0.985558
v 0.007725 0.034206 0.986786
v 0.020070 0.030671 0.989617
v 0.012555 0.027075 0.991286
v 0.007389 0.026636 0.996342
v 0.004747 0.032244 1.001076
v 0.005374 0.036128 1.004516
v 0.022351 0.037614 0.992291
v 0.022909 0.041931 0.995765
v 0.020083 0.044804 1.001092
v 0.026736 0.035673 0.999099
v 0.027295 0.027744 1.005244
v 0.018795 0.020240 1.021580
v 0.015408 0.022831 1.016061
v 0.017917 0.021933 1.015071
v 0.020638 0.019174 1.020056
v 0.014908 0.023256 1.010263
v 0.017258 0.023205 1.010793
v 0.021287 0.024382 1.007511
v 0.023759 0.022161 1.012510
v 0.026001 0.026624 1.007628
v 0.028344 0.026192 1.011400
v 0.026388 0.019916 1.017182
v 0.023835 0.017356 1.021911
v 0.028460 0.018212 1.021295
v 0.023047 0.018709 1.024700
v 0.021331 0.022297 1.004850
v 0.009269 0.027040 1.008677
v 0.012855 0.025380 1.016716
v 0.017302 0.023328 1.023145
v 0.022582 0.021613 1.026188
v 0.012465 0.029653 1.018019
v 0.017459 0.027733 1.023173
v 0.022700 0.026551 1.025490
v 0.014806 0.034072 1.018225
v 0.019553 0.031148 1.022359
v 0.010047 0.039448 1.008524
v 0.007173 0.033460 1.008842
v 0.022796 0.029017 1.024029
v 0.029319 0.018959 1.024018
v 0.028804 0.022298 1.025469
v 0.030118 0.028964 1.010293
v 0.031106 0.023823 1.015574
v 0.032236 0.026610 1.015927
v 0.030344 0.032968 1.009679
v 0.032410 0.029371 1.016652
v 0.032704 0.022940 1.020499
v 0.031291 0.021079 1.018821
v 0.008840 0.041350 1.005993
v 0.014482 0.044591 1.004251
v 0.015417 0.042975 1.006385
v 0.019972 0.037921 1.015932
v 0.021286 0.043405 1.004428
v 0.025463 0.040142 1.001343
v 0.029186 0.036299 1.011021
v 0.025492 0.038513 1.013185
v 0.030420 0.032136 1.017937
v 0.027773 0.033433 1.018867
v 0.023413 0.033169 1.021190
v 0.030119 0.028727 1.022083
v 0.032372 0.025974 1.021544
v 0.027330 0.026715 1.024920
v 0.028122 0.030546 1.021564
v 0.025721 0.029597 1.023404
v 0.034429 0.120366 1.036980
v 0.034568 0.113851 1.034890
v 0.029689 0.116678 1.032704
v 0.021500 0.118976 1.029145
v 0.015528 0.127274 1.026477
v 0.022205 0.113220 1.024991
v 0.030541 0.110936 1.029087
v 0.037860 0.106930 1.032055
v 0.016840 0.110837 1.016483
f 780 781 779
f 779 781 782
f 783 784 786
f 786 784 785
f 787 782 788
f 788 782 781
f 790 791 789
f 789 791 787
f 792 790 794
f 794 790 793
f 796 797 795
f 795 797 798
f 800 801 799
f 799 801 802
f 804 805 803
f 803 805 806
f 808 809 807
f 807 809 810
f 811 812 814
f 814 812 813
f 815 816 818
f 818 816 817
f 819 820 784
f 784 820 821
f 784 821 785
f 785 821 822
f 823 812 824
f 824 812 811
f 826 827 825
f 825 827 828
f 830 831 829
f 829 831 832
f 834 830 833
f 833 830 829
f 836 837 835
f 835 837 838
f 839 840 782
f 782 840 779
f 842 843 841
f 841 843 844
f 846 847 845
f 845 847 848
f 850 851 849
f 849 851 852
f 854 855 853
f 853 855 856
f 831 857 832
f 832 857 858
f 860 861 859
f 859 861 862
f 863 864 830
f 830 864 831
f 835 838 865
f 865 838 866
f 867 868 821
f 821 868 822
f 821 820 867
f 867 820 869
f 818 817 870
f 870 817 871
f 872 848 842
f 842 848 847
f 791 839 787
f 787 839 782
f 803 806 847
f 847 806 873
f 874 803 846
f 846 803 847
f 876 877 875
f 875 877 878
f 879 880 882
f 882 880 881
f 884 808 883
f 883 808 807
f 829 832 885
f 885 832 886
f 832 858 886
f 886 858 887
f 889 890 888
f 888 890 891
f 893 783 892
f 892 783 894
f 893 819 783
f 783 819 784
f 814 813 889
f 889 813 895
f 813 896 895
f 895 896 897
f 812 898 813
f 813 898 896
f 812 823 898
f 898 823 899
f 903 904 902
f 902 904 905
f 906 907 792
f 792 907 908
f 811 909 824
f 824 909 910
f 911 872 841
f 841 872 842
f 912 913 915
f 915 913 914
f 917 918 916
f 916 918 919
f 855 920 856
f 856 920 921
f 922 923 798
f 798 923 924
f 926 927 925
f 925 927 850
f 929 930 928
f 928 930 931
f 860 879 861
f 861 879 882
f 879 860 933
f 933 860 932
f 934 935 836
f 836 935 837
f 936 846 925
f 925 846 845
f 937 924 793
f 793 924 794
f 846 936 874
f 874 936 938
f 907 844 908
f 908 844 843
f 940 941 939
f 939 941 942
f 944 945 943
f 943 945 946
f 948 949 947
f 947 949 950
f 952 949 951
f 951 949 948
f 954 955 953
f 953 955 956
f 958 959 957
f 957 959 802
f 960 961 799
f 799 961 962
f 859 963 860
f 860 963 932
f 964 965 966
f 966 965 922
f 936 849 938
f 938 849 967
f 968 913 935
f 935 913 837
f 947 950 917
f 917 950 918
f 925 850 936
f 936 850 849
f 970 971 969
f 969 971 972
f 945 944 827
f 827 944 973
f 974 968 828
f 828 968 935
f 975 976 978
f 978 976 977
f 799 802 960
f 960 802 959
f 924 937 798
f 798 937 795
f 960 959 859
f 859 959 963
f 979 963 958
f 958 963 959
f 980 981 861
f 861 981 862
f 983 984 982
f 982 984 863
f 985 800 962
f 962 800 799
f 957 802 986
f 986 802 801
f 986 987 957
f 957 987 983
f 987 988 983
f 983 988 984
f 990 984 989
f 989 984 988
f 957 983 958
f 958 983 982
f 991 954 866
f 866 954 992
f 864 863 990
f 990 863 984
f 971 995 996
f 995 997 996
f 996 997 998
f 997 796 998
f 998 796 795
f 797 999 798
f 798 999 922
f 1000 1001 1003
f 1003 1001 1002
f 953 1004 954
f 954 1004 992
f 1005 865 992
f 992 865 866
f 998 795 1006
f 1006 795 937
f 912 991 838
f 838 991 866
f 916 1007 929
f 929 1007 930
f 971 970 988
f 988 970 989
f 1008 972 996
f 996 972 971
f 1009 1010 1006
f 1006 1010 1008
f 1011 1012 869
f 869 1012 867
f 1013 1014 871
f 871 1014 870
f 1008 1010 1012
f 1012 1010 1015
f 825 1016 826
f 826 1016 1017
f 1018 969 1013
f 1013 969 1014
f 783 786 894
f 894 786 1019
f 1020 1021 967
f 967 1021 938
f 1022 1023 876
f 876 1023 877
f 934 1024 825
f 825 1024 1016
f 854 1025 855
f 855 1025 1026
f 1028 903 1027
f 1027 903 902
f 1030 1031 1029
f 1029 1031 1032
f 889 888 814
f 814 888 1033
f 1034 811 1033
f 1033 811 814
f 1035 1036 932
f 932 1036 933
f 841 947 911
f 911 947 917
f 844 948 841
f 841 948 947
f 951 948 907
f 907 948 844
f 907 906 951
f 951 906 1037
f 906 1038 1037
f 1037 1038 1039
f 991 912 1040
f 1040 912 915
f 1041 1042 964
f 964 1042 965
f 890 1043 891
f 891 1043 1044
f 789 1045 1046
f 1012 1011 1008
f 1008 1011 972
f 931 1047 848
f 848 1047 845
f 953 956 943
f 943 956 919
f 928 931 872
f 872 931 848
f 1049 999 1048
f 1048 999 985
f 1047 931 1050
f 1050 931 930
f 899 823 887
f 887 823 886
f 825 828 934
f 934 828 935
f 835 1051 836
f 836 1051 1052
f 923 1053 1038
f 1038 1053 1039
f 1054 927 921
f 921 927 856
f 926 1047 853
f 853 1047 1050
f 985 1055 1048
f 1048 1055 1056
f 973 974 827
f 827 974 828
f 837 913 838
f 838 913 912
f 861 882 980
f 980 882 1057
f 927 926 856
f 856 926 853
f 1025 1056 1026
f 1026 1056 1055
f 961 960 862
f 862 960 859
f 826 1017 1059
f 1059 1017 1060
f 1005 1001 1061
f 1061 1001 1000
f 1001 1004 1002
f 1002 1004 946
f 1059 1060 1002
f 1002 1060 1003
f 943 946 953
f 953 946 1004
f 1042 1041 916
f 916 1041 1007
f 792 794 906
f 906 794 1038
f 998 1006 996
f 996 1006 1008
f 865 1005 1062
f 1062 1005 1061
f 1038 794 923
f 923 794 924
f 1022 876 1036
f 1036 876 933
f 836 1052 934
f 934 1052 1024
f 885 1063 829
f 829 1063 833
f 1021 1064 938
f 938 1064 874
f 1012 1015 867
f 867 1015 868
f 824 910 885
f 885 910 1063
f 1031 1030 1027
f 1027 1030 1028
f 1064 804 874
f 874 804 803
f 884 883 1065
f 1065 883 1066
f 1050 930 1067
f 1067 930 1007
f 916 929 917
f 917 929 911
f 961 1068 939
f 939 1068 940
f 1069 1070 1055
f 1055 1070 1071
f 929 928 911
f 911 928 872
f 1040 1053 955
f 955 1053 965
f 922 965 923
f 923 965 1053
f 1051 835 1062
f 1062 835 865
f 952 914 968
f 968 914 913
f 889 895 890
f 890 895 816
f 895 897 816
f 816 897 901
f 890 816 1043
f 1043 816 815
f 1065 1066 1032
f 1032 1066 1029
f 1006 937 1009
f 1009 937 793
f 1001 1005 1004
f 1004 1005 992
f 925 845 926
f 926 845 1047
f 1002 946 1059
f 1059 946 945
f 977 941 978
f 978 941 940
f 823 824 886
f 886 824 885
f 1059 945 826
f 826 945 827
f 939 942 1069
f 1069 942 1070
f 816 901 817
f 1071 1072 1055
f 1055 1072 1026
f 1062 1061 1074
f 1074 1061 1073
f 1062 1074 1051
f 1051 1074 1075
f 1052 1051 1076
f 1076 1051 1075
f 1024 1052 1077
f 1077 1052 1076
f 1061 1000 1073
f 1073 1000 1078
f 1000 1003 1078
f 1078 1003 1079
f 1079 1003 1080
f 1080 1003 1060
f 1081 1082 1078
f 1078 1082 1073
f 1084 1085 1083
f 1083 1085 1086
f 1087 1088 1086
f 1086 1088 1083
f 1086 1085 1090
f 1090 1085 1089
f 1091 1092 1090
f 1090 1092 1093
f 1089 1094 1090
f 1090 1094 1091
f 1095 1082 1089
f 1089 1082 1094
f 1093 1087 1090
f 1090 1087 1086
f 1096 1097 1099
f 1099 1097 1098
f 1097 1096 1087
f 1087 1096 1088
f 1089 1085 1095
f 1095 1085 1084
f 1084 1075 1095
f 1095 1075 1074
f 1084 1100 1075
f 1075 1100 1076
f 1083 1101 1084
f 1084 1101 1100
f 1101 1083 1102
f 1102 1083 1088
f 1082 1095 1073
f 1073 1095 1074
f 1096 1103 1088
f 1088 1103 1102
f 1101 1102 1104
f 1104 1102 1105
f 1102 1103 1105
f 1105 1103 1106
f 1104 1105 1107
f 1107 1105 1108
f 1107 1109 1104
f 1104 1109 1110
f 1111 1108 1106
f 1106 1108 1105
f 1101 1104 1100
f 1100 1104 1110
f 1100 1110 1076
f 1076 1110 1077
f 1103 1096 1112
f 1112 1096 1099
f 1091 1094 1113
f 1113 1094 1082
f 1113 1114 1091
f 1091 1114 1092
f 1082 1081 1113
f 1113 1081 1115
f 1114 1113 1116
f 1116 1113 1115
f 1114 1117 1092
f 1092 1117 1118
f 1024 1077 1016
f 1016 1077 1119
f 1017 1120 1060
f 1060 1120 1080
f 1120 1017 1119
f 1119 1017 1016
f 1119 1109 1120
f 1120 1109 1121
f 1109 1107 1121
f 1121 1107 1122
f 1120 1121 1080
f 1080 1121 1123
f 1119 1077 1109
f 1109 1077 1110
f 1124 1079 1123
f 1123 1079 1080
f 1124 1081 1079
f 1079 1081 1078
f 1125 1115 1124
f 1124 1115 1081
f 1125 1124 1126
f 1126 1124 1123
f 1127 1125 1128
f 1128 1125 1126
f 1121 1122 1123
f 1123 1122 1126
f 1122 1129 1126
f 1126 1129 1128
f 1115 1125 1116
f 1116 1125 1127
f 1131 1116 1130
f 1130 1116 1127
f 1130 1133 1132
f 1132 1133 1134
f 1130 1127 1133
f 1133 1127 1128
f 1130 1132 1131
f 1131 1132 1112
f 1131 1112 1117
f 1117 1112 1099
f 1117 1114 1131
f 1131 1114 1116
f 1107 1108 1122
f 1122 1108 1129
f 1134 1129 1111
f 1111 1129 1108
f 1134 1133 1129
f 1129 1133 1128
f 1132 1134 1106
f 1106 1134 1111
f 1106 1103 1132
f 1132 1103 1112
f 1087 1093 1097
f 1097 1093 1098
f 1098 1118 1099
f 1099 1118 1117
f 1098 1093 1118
f 1118 1093 1092
f 915 914 1039
f 1039 914 1037
f 918 944 919
f 919 944 943
f 950 949 973
f 973 949 974
f 949 952 974
f 974 952 968
f 956 955 1042
f 1042 955 965
f 950 973 918
f 918 973 944
f 915 1039 1040
f 1040 1039 1053
f 956 1042 919
f 919 1042 916
f 1040 955 991
f 991 955 954
f 914 952 1037
f 1037 952 951
f 1136 1137 1135
f 1135 1137 1138
f 1140 1141 1139
f 1139 1141 1142
f 1139 1142 1143
f 1143 1142 1144
f 1145 1146 1148
f 1148 1146 1147
f 854 1149 1025
f 1025 1149 1150
f 1151 1152 1140
f 1140 1152 1141
f 1154 1155 1153
f 1153 1155 1156
f 1067 1007 1158
f 1158 1007 1157
f 1159 1157 1041
f 1041 1157 1007
f 1161 1162 1160
f 1160 1162 1163
f 1164 1146 1152
f 1152 1146 1141
f 854 1067 1149
f 1149 1067 1158
f 1155 1154 1137
f 1137 1154 1165
f 1166 1164 1138
f 1138 1164 1152
f 1167 1161 1144
f 1144 1161 1168
f 1170 1171 1169
f 1169 1171 1172
f 1161 1160 1168
f 1168 1160 1173
f 1174 1143 1168
f 1168 1143 1144
f 1167 1144 1145
f 1145 1144 1142
f 1135 1175 1136
f 1136 1175 1176
f 1151 1177 1135
f 1135 1177 1175
f 1167 1145 1178
f 1178 1145 1148
f 1160 1163 1153
f 1153 1163 1150
f 1135 1138 1151
f 1151 1138 1152
f 1139 1179 1140
f 1140 1179 1180
f 1165 1166 1137
f 1137 1166 1138
f 1141 1146 1142
f 1142 1146 1145
f 1136 1176 1181
f 1181 1176 1182
f 1174 1170 1183
f 1183 1170 1169
f 1170 1173 1171
f 1171 1173 1156
f 1171 1181 1172
f 1172 1181 1182
f 1153 1156 1160
f 1160 1156 1173
f 1143 1174 1184
f 1184 1174 1183
f 1140 1180 1151
f 1151 1180 1177
f 1049 1048 1178
f 1178 1048 1162
f 1179 1139 1184
f 1184 1139 1143
f 1159 1147 1164
f 1164 1147 1146
f 1170 1174 1173
f 1173 1174 1168
f 1171 1156 1181
f 1181 1156 1155
f 1181 1155 1136
f 1136 1155 1137
f 1184 1183 1186
f 1186 1183 1185
f 1184 1186 1179
f 1179 1186 1187
f 1179 1187 1180
f 1180 1187 1188
f 1180 1188 1177
f 1177 1188 1189
f 1183 1169 1185
f 1185 1169 1190
f 1169 1172 1190
f 1190 1172 1191
f 1172 1182 1191
f 1191 1182 1192
f 1193 1194 1190
f 1190 1194 1185
f 1196 1197 1195
f 1195 1197 1198
f 1199 1200 1196
f 1196 1200 1197
f 1197 1200 1202
f 1202 1200 1201
f 1203 1204 1202
f 1202 1204 1205
f 1201 1206 1202
f 1202 1206 1203
f 1205 1198 1202
f 1202 1198 1197
f 1198 1207 1195
f 1195 1207 1208
f 1201 1200 1209
f 1209 1200 1199
f 1199 1187 1209
f 1209 1187 1186
f 1199 1210 1187
f 1187 1210 1188
f 1196 1211 1199
f 1199 1211 1210
f 1212 1211 1195
f 1195 1211 1196
f 1209 1194 1201
f 1201 1194 1206
f 1194 1209 1185
f 1185 1209 1186
f 1213 1212 1208
f 1208 1212 1195
f 1211 1212 1214
f 1214 1212 1215
f 1212 1213 1215
f 1215 1213 1216
f 1214 1215 1217
f 1217 1215 1218
f 1217 1219 1214
f 1214 1219 1220
f 1216 1221 1215
f 1215 1221 1218
f 1214 1220 1211
f 1211 1220 1210
f 1210 1220 1188
f 1188 1220 1189
f 1213 1208 1223
f 1223 1208 1222
f 1208 1207 1222
f 1222 1207 1224
f 1203 1206 1225
f 1225 1206 1194
f 1204 1203 1226
f 1226 1203 1225
f 1194 1193 1225
f 1225 1193 1227
f 1225 1227 1226
f 1226 1227 1228
f 1229 1230 1226
f 1226 1230 1204
f 1224 1230 1222
f 1222 1230 1229
f 1177 1189 1175
f 1175 1189 1231
f 1176 1232 1182
f 1182 1232 1192
f 1232 1176 1231
f 1231 1176 1175
f 1231 1219 1232
f 1232 1219 1233
f 1219 1217 1233
f 1233 1217 1234
f 1232 1233 1192
f 1192 1233 1235
f 1219 1231 1220
f 1220 1231 1189
f 1236 1191 1235
f 1235 1191 1192
f 1236 1193 1191
f 1191 1193 1190
f 1236 1237 1193
f 1193 1237 1227
f 1237 1236 1238
f 1238 1236 1235
f 1239 1237 1240
f 1240 1237 1238
f 1233 1234 1235
f 1235 1234 1238
f 1234 1241 1238
f 1238 1241 1240
f 1237 1239 1227
f 1227 1239 1228
f 1243 1228 1242
f 1242 1228 1239
f 1242 1245 1244
f 1244 1245 1246
f 1242 1239 1245
f 1245 1239 1240
f 1242 1244 1243
f 1243 1244 1223
f 1243 1223 1229
f 1229 1223 1222
f 1229 1226 1243
f 1243 1226 1228
f 1217 1218 1234
f 1234 1218 1241
f 1246 1241 1221
f 1221 1241 1218
f 1246 1245 1241
f 1241 1245 1240
f 1244 1246 1216
f 1216 1246 1221
f 1216 1213 1244
f 1244 1213 1223
f 1198 1205 1207
f 1207 1205 1224
f 1224 1205 1230
f 1230 1205 1204
f 1148 1147 966
f 966 1147 964
f 1149 1154 1150
f 1150 1154 1153
f 1158 1157 1165
f 1165 1157 1166
f 1157 1159 1166
f 1166 1159 1164
f 1163 1162 1056
f 1056 1162 1048
f 1158 1165 1149
f 1149 1165 1154
f 1178 1148 1049
f 1049 1148 966
f 1163 1056 1150
f 1150 1056 1025
f 1178 1162 1167
f 1167 1162 1161
f 1147 1159 964
f 964 1159 1041
f 999 1049 922
f 922 1049 966
f 999 797 985
f 985 797 800
f 797 796 800
f 800 796 801
f 796 997 801
f 801 997 986
f 1247 1248 1250
f 1250 1248 1249
f 1252 1253 1251
f 1251 1253 1254
f 1251 1254 1255
f 1255 1254 1256
f 1258 1259 1257
f 1257 1259 1260
f 1261 1262 1252
f 1252 1262 1253
f 1264 1265 1263
f 1263 1265 1266
f 1267 1268 855
f 855 1268 920
f 1269 1267 1026
f 1026 1267 855
f 1271 1272 1270
f 1270 1272 1273
f 1274 1258 1262
f 1262 1258 1253
f 1264 1275 1265
f 1265 1275 1249
f 1276 1274 1250
f 1250 1274 1262
f 1277 1271 1256
f 1256 1271 1278
f 1279 1280 1282
f 1282 1280 1281
f 1271 1270 1278
f 1278 1270 1283
f 1284 1255 1278
f 1278 1255 1256
f 1277 1256 1257
f 1257 1256 1254
f 1247 1285 1248
f 1248 1285 1286
f 1261 1287 1247
f 1247 1287 1285
f 1257 1260 1277
f 1277 1260 1288
f 1270 1273 1263
f 1263 1273 1289
f 1261 1247 1262
f 1262 1247 1250
f 1251 1290 1252
f 1252 1290 1291
f 1275 1276 1249
f 1249 1276 1250
f 1253 1258 1254
f 1254 1258 1257
f 1248 1286 1292
f 1292 1286 1293
f 1284 1280 1294
f 1294 1280 1279
f 1281 1280 1266
f 1266 1280 1283
f 1292 1293 1281
f 1281 1293 1282
f 1263 1266 1270
f 1270 1266 1283
f 1255 1284 1295
f 1295 1284 1294
f 1252 1291 1261
f 1261 1291 1287
f 1288 1070 1272
f 1272 1070 942
f 1290 1251 1295
f 1295 1251 1255
f 1269 1259 1274
f 1274 1259 1258
f 1280 1284 1283
f 1283 1284 1278
f 1281 1266 1292
f 1292 1266 1265
f 1292 1265 1248
f 1248 1265 1249
f 1295 1294 1297
f 1297 1294 1296
f 1295 1297 1290
f 1290 1297 1298
f 1290 1298 1291
f 1291 1298 1299
f 1291 1299 1287
f 1287 1299 1300
f 1294 1279 1296
f 1296 1279 1301
f 1279 1282 1301
f 1301 1282 1302
f 1302 1282 1303
f 1303 1282 1293
f 1304 1305 1301
f 1301 1305 1296
f 1307 1308 1306
f 1306 1308 1309
f 1310 1311 1307
f 1307 1311 1308
f 1308 1311 1313
f 1313 1311 1312
f 1314 1315 1313
f 1313 1315 1316
f 1312 1317 1313
f 1313 1317 1314
f 1316 1309 1313
f 1313 1309 1308
f 1318 1319 1309
f 1309 1319 1306
f 1311 1310 1312
f 1312 1310 1320
f 1310 1298 1320
f 1320 1298 1297
f 1310 1321 1298
f 1298 1321 1299
f 1307 1322 1310
f 1310 1322 1321
f 1322 1307 1323
f 1323 1307 1306
f 1312 1320 1317
f 1317 1320 1305
f 1305 1320 1296
f 1296 1320 1297
f 1319 1324 1306
f 1306 1324 1323
f 1325 1322 1326
f 1326 1322 1323
f 1324 1327 1323
f 1323 1327 1326
f 1328 1325 1329
f 1329 1325 1326
f 1325 1328 1331
f 1331 1328 1330
f 1327 1332 1326
f 1326 1332 1329
f 1322 1325 1321
f 1321 1325 1331
f 1321 1331 1299
f 1299 1331 1300
f 1324 1319 1334
f 1334 1319 1333
f 1319 1318 1333
f 1333 1318 1335
f 1314 1317 1336
f 1336 1317 1305
f 1315 1314 1337
f 1337 1314 1336
f 1305 1304 1336
f 1336 1304 1338
f 1337 1336 1339
f 1339 1336 1338
f 1337 1340 1315
f 1315 1340 1341
f 1335 1341 1333
f 1333 1341 1340
f 1287 1300 1285
f 1285 1300 1342
f 1286 1343 1293
f 1293 1343 1303
f 1343 1286 1342
f 1342 1286 1285
f 1342 1330 1343
f 1343 1330 1344
f 1330 1328 1344
f 1344 1328 1345
f 1343 1344 1303
f 1303 1344 1346
f 1342 1300 1330
f 1330 1300 1331
f 1347 1302 1346
f 1346 1302 1303
f 1347 1304 1302
f 1302 1304 1301
f 1348 1338 1347
f 1347 1338 1304
f 1348 1347 1349
f 1349 1347 1346
f 1350 1348 1351
f 1351 1348 1349
f 1344 1345 1346
f 1346 1345 1349
f 1345 1352 1349
f 1349 1352 1351
f 1348 1350 1338
f 1338 1350 1339
f 1354 1339 1353
f 1353 1339 1350
f 1353 1356 1355
f 1355 1356 1357
f 1353 1350 1356
f 1356 1350 1351
f 1353 1355 1354
f 1354 1355 1334
f 1354 1334 1340
f 1340 1334 1333
f 1340 1337 1354
f 1354 1337 1339
f 1328 1329 1345
f 1345 1329 1352
f 1357 1352 1332
f 1332 1352 1329
f 1357 1356 1352
f 1352 1356 1351
f 1357 1332 1355
f 1355 1332 1327
f 1327 1324 1355
f 1355 1324 1334
f 1309 1316 1318
f 1318 1316 1335
f 1335 1316 1341
f 1341 1316 1315
f 1259 1072 1260
f 1260 1072 1071
f 1358 1264 1289
f 1289 1264 1263
f 1268 1267 1275
f 1275 1267 1276
f 1267 1269 1276
f 1276 1269 1274
f 941 1273 942
f 942 1273 1272
f 1358 1268 1264
f 1264 1268 1275
f 1260 1071 1288
f 1288 1071 1070
f 1273 941 1289
f 1289 941 977
f 1272 1271 1288
f 1288 1271 1277
f 1259 1269 1072
f 1072 1269 1026
f 1360 1361 1359
f 1359 1361 1362
f 1364 1365 1363
f 1363 1365 1366
f 1363 1366 1367
f 1367 1366 1368
f 1370 1371 1369
f 1369 1371 1372
f 1373 1374 1376
f 1376 1374 1375
f 1377 1378 1364
f 1364 1378 1365
f 1379 1380 1382
f 1382 1380 1381
f 1383 1384 1386
f 1386 1384 1385
f 1387 1385 978
f 978 1385 1384
f 1388 1389 1391
f 1391 1389 1390
f 1378 1392 1365
f 1365 1392 1370
f 1374 1383 1375
f 1375 1383 1386
f 1380 1393 1381
f 1381 1393 1361
f 1394 1392 1362
f 1362 1392 1378
f 1389 1396 1395
f 1395 1396 1368
f 1398 1399 1397
f 1397 1399 1400
f 1388 1401 1389
f 1389 1401 1396
f 1402 1367 1396
f 1396 1367 1368
f 1395 1368 1369
f 1369 1368 1366
f 1359 1403 1360
f 1360 1403 1404
f 1377 1405 1359
f 1359 1405 1403
f 1369 1372 1395
f 1395 1372 1406
f 1379 1388 1376
f 1376 1388 1391
f 1359 1362 1377
f 1377 1362 1378
f 1363 1407 1364
f 1364 1407 1408
f 1393 1394 1361
f 1361 1394 1362
f 1365 1370 1366
f 1366 1370 1369
f 1360 1404 1409
f 1409 1404 1410
f 1402 1398 1411
f 1411 1398 1397
f 1399 1398 1382
f 1382 1398 1401
f 1409 1410 1399
f 1399 1410 1400
f 1388 1379 1401
f 1401 1379 1382
f 1367 1402 1412
f 1412 1402 1411
f 1364 1408 1377
f 1377 1408 1405
f 981 980 1406
f 1406 980 1390
f 1407 1363 1412
f 1412 1363 1367
f 1387 1371 1392
f 1392 1371 1370
f 1398 1402 1401
f 1401 1402 1396
f 1409 1399 1381
f 1381 1399 1382
f 1360 1409 1361
f 1361 1409 1381
f 1412 1411 1414
f 1414 1411 1413
f 1412 1414 1407
f 1407 1414 1415
f 1407 1415 1408
f 1408 1415 1416
f 1408 1416 1405
f 1405 1416 1417
f 1411 1397 1413
f 1413 1397 1418
f 1397 1400 1418
f 1418 1400 1419
f 1419 1400 1420
f 1420 1400 1410
f 1422 1413 1421
f 1421 1413 1418
f 1423 1424 1426
f 1426 1424 1425
f 1427 1428 1424
f 1424 1428 1425
f 1425 1428 1430
f 1430 1428 1429
f 1430 1431 1433
f 1433 1431 1432
f 1429 1434 1430
f 1430 1434 1431
f 1433 1426 1430
f 1430 1426 1425
f 1426 1435 1423
f 1423 1435 1436
f 1428 1427 1429
f 1429 1427 1437
f 1427 1415 1437
f 1437 1415 1414
f 1427 1438 1415
f 1415 1438 1416
f 1439 1438 1424
f 1424 1438 1427
f 1440 1439 1423
f 1423 1439 1424
f 1429 1437 1434
f 1434 1437 1422
f 1422 1437 1413
f 1413 1437 1414
f 1441 1440 1436
f 1436 1440 1423
f 1442 1439 1443
f 1443 1439 1440
f 1441 1444 1440
f 1440 1444 1443
f 1445 1442 1446
f 1446 1442 1443
f 1442 1445 1448
f 1448 1445 1447
f 1444 1449 1443
f 1443 1449 1446
f 1439 1442 1438
f 1438 1442 1448
f 1438 1448 1416
f 1416 1448 1417
f 1436 1450 1441
f 1441 1450 1451
f 1436 1435 1450
f 1450 1435 1452
f 1431 1434 1453
f 1453 1434 1422
f 1431 1453 1432
f 1432 1453 1454
f 1453 1422 1455
f 1455 1422 1421
f 1454 1453 1456
f 1456 1453 1455
f 1457 1458 1454
f 1454 1458 1432
f 1452 1458 1450
f 1450 1458 1457
f 1405 1417 1403
f 1403 1417 1459
f 1404 1460 1410
f 1410 1460 1420
f 1459 1460 1403
f 1403 1460 1404
f 1447 1461 1459
f 1459 1461 1460
f 1445 1462 1447
f 1447 1462 1461
f 1460 1461 1420
f 1420 1461 1463
f 1459 1417 1447
f 1447 1417 1448
f 1464 1419 1463
f 1463 1419 1420
f 1419 1464 1418
f 1418 1464 1421
f 1464 1465 1421
f 1421 1465 1455
f 1465 1464 1466
f 1466 1464 1463
f 1467 1465 1468
f 1468 1465 1466
f 1461 1462 1463
f 1463 1462 1466
f 1462 1469 1466
f 1466 1469 1468
f 1465 1467 1455
f 1455 1467 1456
f 1471 1456 1470
f 1470 1456 1467
f 1470 1473 1472
f 1472 1473 1474
f 1470 1467 1473
f 1473 1467 1468
f 1470 1472 1471
f 1471 1472 1451
f 1471 1451 1457
f 1457 1451 1450
f 1457 1454 1471
f 1471 1454 1456
f 1462 1445 1469
f 1469 1445 1446
f 1474 1469 1449
f 1449 1469 1446
f 1474 1473 1469
f 1469 1473 1468
f 1472 1474 1444
f 1444 1474 1449
f 1444 1441 1472
f 1472 1441 1451
f 1426 1433 1435
f 1435 1433 1452
f 1452 1433 1458
f 1458 1433 1432
f 1371 940 1372
f 1372 940 1068
f 1376 1375 1379
f 1379 1375 1380
f 1393 1386 1394
f 1394 1386 1385
f 1385 1387 1394
f 1394 1387 1392
f 1475 1373 1391
f 1391 1373 1376
f 1375 1386 1380
f 1380 1386 1393
f 1372 1068 1406
f 1406 1068 981
f 1406 1390 1395
f 1395 1390 1389
f 1371 1387 940
f 940 1387 978
f 883 807 1476
f 1476 807 1477
f 1046 904 1479
f 1479 904 1478
f 904 903 1478
f 1478 903 1480
f 1030 1481 1028
f 1028 1481 1482
f 810 1046 1483
f 1483 1046 1479
f 1066 883 1484
f 1484 883 1476
f 807 810 1477
f 1477 810 1483
f 1485 1029 1484
f 1484 1029 1066
f 1028 1482 903
f 903 1482 1480
f 1481 1030 1485
f 1485 1030 1029
f 1484 1486 1485
f 1485 1486 1487
f 1485 1487 1481
f 1481 1487 1488
f 1481 1488 1482
f 1482 1488 1489
f 1482 1489 1480
f 1480 1489 1490
f 1484 1476 1486
f 1486 1476 1491
f 1476 1477 1491
f 1491 1477 1492
f 1477 1483 1492
f 1492 1483 1493
f 1495 1486 1494
f 1494 1486 1491
f 1497 1498 1496
f 1496 1498 1499
f 1500 1501 1497
f 1497 1501 1498
f 1502 1503 1501
f 1501 1503 1498
f 1502 1504 1503
f 1503 1504 1505
f 1506 1499 1503
f 1503 1499 1498
f 1499 1506 1507
f 1507 1506 1508
f 1507 1509 1499
f 1499 1509 1496
f 1502 1501 1510
f 1510 1501 1500
f 1500 1488 1510
f 1510 1488 1487
f 1500 1511 1488
f 1488 1511 1489
f 1497 1512 1500
f 1500 1512 1511
f 1512 1497 1513
f 1513 1497 1496
f 1502 1510 1504
f 1504 1510 1495
f 1495 1510 1486
f 1486 1510 1487
f 1509 1514 1496
f 1496 1514 1513
f 1515 1512 1516
f 1516 1512 1513
f 1514 1517 1513
f 1513 1517 1516
f 1518 1515 1519
f 1519 1515 1516
f 1515 1518 1521
f 1521 1518 1520
f 1517 1522 1516
f 1516 1522 1519
f 1512 1515 1511
f 1511 1515 1521
f 1511 1521 1489
f 1489 1521 1490
f 1514 1509 1524
f 1524 1509 1523
f 1509 1507 1523
f 1523 1507 1508
f 1505 1504 1525
f 1525 1504 1495
f 1526 1505 1527
f 1527 1505 1525
f 1525 1495 1528
f 1528 1495 1494
f 1527 1525 1529
f 1529 1525 1528
f 1527 1530 1526
f 1526 1530 1531
f 1508 1531 1523
f 1523 1531 1530
f 1506 1503 1526
f 1526 1503 1505
f 1508 1506 1531
f 1531 1506 1526
f 1478 1480 1532
f 1532 1480 1490
f 1483 1479 1493
f 1493 1479 1533
f 1532 1533 1478
f 1478 1533 1479
f 1520 1534 1532
f 1532 1534 1533
f 1518 1535 1520
f 1520 1535 1534
f 1533 1534 1493
f 1493 1534 1536
f 1532 1490 1520
f 1520 1490 1521
f 1537 1492 1536
f 1536 1492 1493
f 1492 1537 1491
f 1491 1537 1494
f 1537 1538 1494
f 1494 1538 1528
f 1538 1537 1539
f 1539 1537 1536
f 1540 1538 1541
f 1541 1538 1539
f 1534 1535 1536
f 1536 1535 1539
f 1535 1542 1539
f 1539 1542 1541
f 1538 1540 1528
f 1528 1540 1529
f 1544 1529 1543
f 1543 1529 1540
f 1545 1543 1547
f 1547 1543 1546
f 1543 1540 1546
f 1546 1540 1541
f 1543 1545 1544
f 1544 1545 1524
f 1544 1524 1530
f 1530 1524 1523
f 1530 1527 1544
f 1544 1527 1529
f 1535 1518 1542
f 1542 1518 1519
f 1547 1542 1522
f 1522 1542 1519
f 1547 1546 1542
f 1542 1546 1541
f 1545 1547 1517
f 1517 1547 1522
f 1517 1514 1545
f 1545 1514 1524
f 997 995 986
f 986 995 987
f 987 995 988
f 988 995 971
f 976 1358 977
f 977 1358 1289
f 854 853 1067
f 1067 853 1050
f 1055 985 1069
f 1069 985 962
f 1068 961 981
f 981 961 862
f 1268 1358 920
f 920 1358 976
f 920 976 921
f 921 976 975
f 927 1054 850
f 850 1054 851
f 882 881 1057
f 1057 881 1548
f 1548 1374 1057
f 1057 1374 1373
f 1383 1374 1549
f 1549 1374 1548
f 1549 1548 1550
f 1550 1548 881
f 1550 881 1551
f 1551 881 880
f 933 1552 879
f 879 1552 880
f 1551 880 875
f 875 880 1552
f 1553 1551 878
f 878 1551 875
f 1551 1553 1550
f 1550 1553 1554
f 1550 1554 1549
f 1549 1554 1555
f 978 1384 975
f 975 1384 1555
f 967 849 1556
f 1556 849 852
f 875 1552 876
f 876 1552 933
f 961 939 962
f 962 939 1069
f 1555 1054 975
f 975 1054 921
f 1555 1384 1549
f 1549 1384 1383
f 1391 1390 1475
f 1475 1390 980
f 1373 1475 1057
f 1057 1475 980
f 851 1054 1554
f 1554 1054 1555
f 1554 1553 851
f 851 1553 852
f 878 1556 1553
f 1553 1556 852
f 1556 878 967
f 967 878 877
f 1023 1020 877
f 877 1020 967
f 909 811 1034
f 806 779 873
f 873 779 840
f 805 780 806
f 806 780 779
f 1043 893 1044
f 1044 893 892
f 873 840 847
f 847 840 842
f 840 839 842
f 842 839 843
f 839 791 843
f 843 791 908
f 791 790 908
f 908 790 792
f 809 789 810
f 810 789 1046
f 793 790 809
f 809 790 789
f 809 808 793
f 793 808 1009
f 808 884 1009
f 1009 884 1010
f 1065 1015 884
f 884 1015 1010
f 1032 868 1065
f 1065 868 1015
f 1031 822 1032
f 1032 822 868
f 1031 1027 822
f 822 1027 785
f 1045 905 1046
f 1046 905 904
f 788 781 1019
f 1019 781 894
f 781 780 894
f 894 780 892
f 780 805 892
f 892 805 1044
f 805 804 1044
f 1044 804 891
f 804 1064 891
f 891 1064 888
f 1064 1021 888
f 888 1021 1033
f 1021 1020 1033
f 1033 1020 1034
f 1020 1023 1034
f 1034 1023 909
f 1023 1022 909
f 909 1022 910
f 1043 815 893
f 893 815 819
f 819 815 820
f 820 815 818
f 870 869 818
f 818 869 820
f 1014 1011 870
f 870 1011 869
f 969 972 1014
f 1014 972 1011
f 1036 1063 1022
f 1022 1063 910
f 1035 833 1036
f 1036 833 1063
f 1035 932 979
f 979 932 963
f 834 979 982
f 982 979 958
f 833 1035 834
f 834 1035 979
f 982 863 834
f 834 863 830
f 864 900 831
f 831 900 857
f 990 993 864
f 864 993 900
f 989 994 990
f 990 994 993
f 970 1058 989
f 989 1058 994
f 969 1018 970
f 970 1018 1058
f 1027 902 785
f 785 902 786
f 902 905 786
f 786 905 1019
f 905 1045 1019
f 1019 1045 788
f 788 1045 787
f 787 1045 789
