o hand_left
v 0.073291 -0.035986 0.812784
v 0.063112 -0.037930 0.809236
v 0.068963 -0.029405 0.811373
v 0.078043 -0.027840 0.813371
v 0.048941 -0.024103 0.806893
v 0.044344 -0.017914 0.797055
v 0.057311 -0.008935 0.803248
v 0.058628 -0.015803 0.811119
v 0.083892 -0.022467 0.812435
v 0.074176 -0.022971 0.812984
v 0.087825 -0.022097 0.807684
v 0.098489 -0.023708 0.804762
v 0.093484 -0.022781 0.811071
v 0.106097 -0.024828 0.806639
v 0.098031 -0.029505 0.795009
v 0.110682 -0.032609 0.802979
v 0.094591 -0.057266 0.798183
v 0.089777 -0.068433 0.804100
v 0.103903 -0.066131 0.814539
v 0.106985 -0.054269 0.808125
v 0.089664 -0.079813 0.822182
v 0.098198 -0.072284 0.818484
v 0.084936 -0.075403 0.807382
v 0.077920 -0.081880 0.811327
v 0.065328 -0.049481 0.815000
v 0.055336 -0.051827 0.810610
v 0.058241 -0.047418 0.808928
v 0.067722 -0.044948 0.813192
v 0.087549 -0.014874 0.801161
v 0.085864 -0.020116 0.791890
v 0.089479 -0.021941 0.798905
v 0.086723 -0.016302 0.806585
v 0.027802 -0.059857 0.807016
v 0.021439 -0.064268 0.795831
v 0.023324 -0.059886 0.792282
v 0.028977 -0.057096 0.803099
v 0.030662 -0.037252 0.787658
v 0.027739 -0.046064 0.780856
v 0.030619 -0.045126 0.767223
v 0.036473 -0.037426 0.771787
v 0.036582 -0.026585 0.793226
v 0.039758 -0.025816 0.779239
v 0.047433 -0.015850 0.785777
v 0.060134 -0.006128 0.794673
v 0.018966 -0.075515 0.801737
v 0.022910 -0.073641 0.811057
v 0.114427 -0.006589 0.849073
v 0.112182 -0.010843 0.852535
v 0.111805 -0.012825 0.849000
v 0.114380 -0.008333 0.846150
v 0.030113 -0.092373 0.804408
v 0.036822 -0.097281 0.798588
v 0.030187 -0.098368 0.795621
v 0.024112 -0.092373 0.799699
v 0.038043 -0.092290 0.810611
v 0.045827 -0.095029 0.802778
v 0.127126 -0.005332 0.851142
v 0.122810 -0.003238 0.849180
v 0.124546 -0.005846 0.845333
v 0.128660 -0.008725 0.847076
v 0.087351 -0.025917 0.815096
v 0.081687 -0.033097 0.817366
v 0.101038 -0.025591 0.823958
v 0.094415 -0.029344 0.821595
v 0.096098 -0.024692 0.816603
v 0.102102 -0.022407 0.818549
v 0.083559 -0.049051 0.829028
v 0.074077 -0.050753 0.822253
v 0.077566 -0.045488 0.820250
v 0.087982 -0.041795 0.827198
v 0.066693 -0.060360 0.829811
v 0.076884 -0.058194 0.835592
v 0.071509 -0.063951 0.839179
v 0.064669 -0.063827 0.835023
v 0.095398 -0.052833 0.842817
v 0.100903 -0.052138 0.845528
v 0.099280 -0.053472 0.848061
v 0.093244 -0.055426 0.844325
v 0.024346 -0.099763 0.791754
v 0.018926 -0.091973 0.794519
v 0.074416 -0.091685 0.832617
v 0.063815 -0.092141 0.836606
v 0.073383 -0.092160 0.846780
v 0.082671 -0.092017 0.839604
v 0.044633 -0.096220 0.791732
v 0.037946 -0.099625 0.789266
v 0.129149 -0.009944 0.854792
v 0.130203 -0.013399 0.850881
v 0.053951 -0.021960 0.775577
v 0.065646 -0.008660 0.786782
v 0.046675 -0.034463 0.768535
v 0.042713 -0.044250 0.763992
v 0.038028 -0.050137 0.758999
v 0.095824 -0.033408 0.826857
v 0.076216 -0.040715 0.816949
v 0.062894 -0.053304 0.817254
v 0.049670 -0.072689 0.837598
v 0.040943 -0.073385 0.831551
v 0.047107 -0.064914 0.828938
v 0.053817 -0.066452 0.834437
v 0.057631 -0.087076 0.842509
v 0.057139 -0.079178 0.844593
v 0.064597 -0.079389 0.849996
v 0.066349 -0.087143 0.849744
v 0.086464 -0.009453 0.796006
v 0.081542 -0.017705 0.786173
v 0.024459 -0.084270 0.808443
v 0.019990 -0.083307 0.802012
v 0.015546 -0.084934 0.794910
v 0.041217 -0.054345 0.808521
v 0.029630 -0.054973 0.800459
v 0.030930 -0.050817 0.798919
v 0.042906 -0.052539 0.806647
v 0.051432 -0.037723 0.807967
v 0.039272 -0.035110 0.802609
v 0.059081 -0.028905 0.812127
v 0.024433 -0.054169 0.786450
v 0.016669 -0.061899 0.784644
v 0.019457 -0.055957 0.778546
v 0.014617 -0.070115 0.789704
v 0.013964 -0.078163 0.793592
v 0.032673 -0.104370 0.784442
v 0.023609 -0.051331 0.772809
v 0.066148 -0.010707 0.813328
v 0.072942 -0.006296 0.815454
v 0.077081 -0.012801 0.816422
v 0.071364 -0.017406 0.814963
v 0.113234 -0.024082 0.811581
v 0.106852 -0.021096 0.815121
v 0.100073 -0.022250 0.810626
v 0.034249 -0.062009 0.816558
v 0.029648 -0.073482 0.819691
v 0.102619 -0.029555 0.829084
v 0.128498 -0.012242 0.842290
v 0.124036 -0.008758 0.840577
v 0.118083 -0.017685 0.823783
v 0.123728 -0.021578 0.825477
v 0.110080 -0.033117 0.834803
v 0.105075 -0.029181 0.831783
v 0.106593 -0.029090 0.833489
v 0.110217 -0.032358 0.837993
v 0.092763 -0.059645 0.850690
v 0.087258 -0.061227 0.847224
v 0.116527 -0.049475 0.820636
v 0.120674 -0.040805 0.810295
v 0.110167 -0.043811 0.802263
v 0.079379 -0.054547 0.832018
v 0.087564 -0.053649 0.838493
v 0.085529 -0.056782 0.840412
v 0.098211 -0.035671 0.830365
v 0.104383 -0.033925 0.832925
v 0.102044 -0.037975 0.833734
v 0.095561 -0.040068 0.831780
v 0.054578 -0.093261 0.826846
v 0.047325 -0.087586 0.834112
v 0.118252 -0.003792 0.848162
v 0.119122 -0.005812 0.844794
v 0.070152 -0.056076 0.825318
v 0.096943 -0.046561 0.794769
v 0.060024 -0.057186 0.819967
v 0.096204 -0.078578 0.843679
v 0.091587 -0.075646 0.849874
v 0.095013 -0.071987 0.853694
v 0.100172 -0.073944 0.850852
v 0.115247 -0.024784 0.850855
v 0.111204 -0.020793 0.849509
v 0.112470 -0.017972 0.852587
v 0.116617 -0.021491 0.854956
v 0.103684 -0.024998 0.827747
v 0.105043 -0.020947 0.822912
v 0.106646 -0.019588 0.827664
v 0.105890 -0.024386 0.831331
v 0.110025 -0.019423 0.819649
v 0.111712 -0.017189 0.824449
v 0.121751 -0.025916 0.850798
v 0.128306 -0.022752 0.848619
v 0.123880 -0.032783 0.833944
v 0.117739 -0.033365 0.838920
v 0.067579 -0.084890 0.800391
v 0.060662 -0.091016 0.806799
v 0.070878 -0.088347 0.817838
v 0.081548 -0.087091 0.828615
v 0.091518 -0.084380 0.838429
v 0.099940 -0.079141 0.831226
v 0.064610 -0.092327 0.821555
v 0.113572 -0.040808 0.831828
v 0.120091 -0.040043 0.825110
v 0.116571 -0.044811 0.827479
v 0.056047 -0.061124 0.824978
v 0.118397 -0.008091 0.840457
v 0.053562 -0.065581 0.762921
v 0.053568 -0.077953 0.768355
v 0.059734 -0.073627 0.772860
v 0.059180 -0.059250 0.767307
v 0.110058 -0.015009 0.845985
v 0.112465 -0.010077 0.842400
v 0.084822 -0.065583 0.851669
v 0.090586 -0.063755 0.854119
v 0.091729 -0.066676 0.855941
v 0.085134 -0.068721 0.856323
v 0.055794 -0.093587 0.809296
v 0.078424 -0.088721 0.854550
v 0.086696 -0.089459 0.847235
v 0.052086 -0.093133 0.796942
v 0.058325 -0.088317 0.791015
v 0.051427 -0.091177 0.784636
v 0.109413 -0.066965 0.830428
v 0.073610 -0.079278 0.797423
v 0.062967 -0.082919 0.788006
v 0.054953 -0.086107 0.780230
v 0.049343 -0.089295 0.774858
v 0.045999 -0.094454 0.780275
v 0.129793 -0.017520 0.845883
v 0.128764 -0.018986 0.854671
v 0.040676 -0.099525 0.774823
v 0.044273 -0.093022 0.769180
v 0.067310 -0.075772 0.784055
v 0.071209 -0.066033 0.779718
v 0.077292 -0.072384 0.793441
v 0.082305 -0.062661 0.789791
v 0.115290 -0.063272 0.821805
v 0.121448 -0.011073 0.868838
v 0.122796 -0.018331 0.860461
v 0.117100 -0.018498 0.859088
v 0.117362 -0.012574 0.868512
v 0.122589 -0.022185 0.855843
v 0.127508 -0.015462 0.858564
v 0.084015 -0.048807 0.785444
v 0.107201 -0.037301 0.835918
v 0.070003 -0.048797 0.774968
v 0.088420 -0.032416 0.785283
v 0.076645 -0.030879 0.778978
v 0.055440 -0.046226 0.764819
v 0.062541 -0.031811 0.770751
v 0.044781 -0.058775 0.756891
v 0.050667 -0.053942 0.761396
v 0.069706 -0.018707 0.778812
v 0.111286 -0.003556 0.858862
v 0.110290 -0.008483 0.861692
v 0.048236 -0.069709 0.757969
v 0.066095 -0.022250 0.813912
v 0.046982 -0.059701 0.818883
v 0.050432 -0.056912 0.815316
v 0.036242 -0.073469 0.827129
v 0.041509 -0.063570 0.823362
v 0.114959 0.000112 0.857509
v 0.105098 -0.053765 0.847273
v 0.103758 -0.054322 0.846469
v 0.064707 -0.004266 0.807586
v 0.070767 -0.000986 0.810347
v 0.078551 0.000850 0.799770
v 0.073651 0.002162 0.804895
v 0.067320 -0.001247 0.799840
v 0.072263 -0.002757 0.793943
v 0.040038 -0.055764 0.810470
v 0.038426 -0.058116 0.813236
v 0.045563 -0.092938 0.818476
v 0.039096 -0.086888 0.826025
v 0.115907 -0.021668 0.817685
v 0.118717 -0.030180 0.810952
v 0.120955 -0.026613 0.818224
v 0.125565 -0.028293 0.827576
v 0.111148 -0.037824 0.835796
v 0.114933 -0.036715 0.833338
v 0.034518 -0.043573 0.800726
v 0.046208 -0.046812 0.805971
v 0.077982 -0.019823 0.812763
v 0.082516 -0.016738 0.813283
v 0.091039 -0.046617 0.833620
v 0.113984 -0.059199 0.838805
v 0.118009 -0.055768 0.831453
v 0.098917 -0.045246 0.837577
v 0.122687 0.000732 0.860868
v 0.118397 0.001465 0.858421
v 0.123064 -0.033527 0.819805
v 0.080150 -0.062024 0.844501
v 0.108774 -0.064199 0.838548
v 0.110365 -0.057872 0.844970
v 0.070552 -0.085298 0.854329
v 0.047370 -0.081437 0.762903
v 0.112614 -0.015729 0.856768
v 0.111842 -0.012274 0.864713
v 0.124700 -0.008641 0.867298
v 0.125951 -0.003973 0.863661
v 0.031977 -0.084577 0.817860
v 0.052974 -0.054930 0.813258
v 0.076535 -0.009954 0.787251
v 0.082961 -0.004044 0.796148
v 0.103089 -0.045008 0.839521
v 0.091117 -0.082344 0.846644
v 0.104188 -0.075247 0.839554
v 0.108075 -0.070755 0.847648
v 0.110664 -0.063645 0.846462
v 0.108710 -0.056675 0.847392
v 0.122252 -0.006132 0.871869
v 0.123417 -0.001166 0.868589
v 0.120078 0.003402 0.865929
v 0.116212 0.003898 0.863155
v 0.112975 0.001406 0.861199
v 0.118925 -0.008707 0.873366
v 0.115262 -0.010035 0.872697
v 0.111047 -0.010689 0.867808
v 0.115906 -0.007241 0.876746
v 0.117993 -0.002689 0.878276
v 0.111081 0.008945 0.876035
v 0.115857 0.006707 0.873280
v 0.115354 0.006504 0.875983
v 0.111846 0.008172 0.879137
v 0.109115 0.009173 0.883435
v 0.107681 0.010386 0.880368
v 0.117873 0.002607 0.876377
v 0.113478 0.004362 0.881164
v 0.113327 0.000402 0.882740
v 0.110401 0.002383 0.886985
v 0.110579 0.006072 0.885838
v 0.116547 -0.000387 0.879513
v 0.119556 0.001912 0.874888
v 0.105744 0.009738 0.884565
v 0.107785 0.009263 0.886058
v 0.108421 0.006580 0.888008
v 0.105371 0.006661 0.888644
v 0.113578 0.006035 0.867535
v 0.109087 0.008747 0.874333
v 0.105266 0.008728 0.879076
v 0.103622 0.008197 0.883380
v 0.105826 0.006226 0.874162
v 0.103623 0.006308 0.878526
v 0.102161 0.005384 0.882229
v 0.103595 0.002621 0.874903
v 0.102391 0.003355 0.878918
v 0.109070 -0.000756 0.864655
v 0.111324 0.002844 0.864187
v 0.101337 0.003584 0.881342
v 0.103683 0.005288 0.887958
v 0.113137 -0.003226 0.882008
v 0.108679 -0.000409 0.886612
v 0.111571 -0.004938 0.881420
v 0.107336 -0.002397 0.886250
v 0.106638 0.002011 0.889717
v 0.108459 0.003657 0.888762
v 0.110521 -0.003113 0.861334
v 0.109767 -0.008180 0.864329
v 0.108510 -0.006409 0.867137
v 0.103213 -0.001907 0.876497
v 0.109463 -0.009120 0.870574
v 0.112430 -0.008534 0.875906
v 0.108733 -0.005692 0.881013
v 0.105751 -0.005351 0.879313
v 0.105552 -0.003197 0.884510
v 0.103909 -0.002604 0.882578
v 0.102050 -0.000020 0.880387
v 0.103341 -0.000309 0.886338
v 0.105057 0.000674 0.888640
v 0.102198 0.003241 0.885592
v 0.102736 -0.000803 0.884468
v 0.101990 0.001860 0.883255
v 0.109670 -0.029249 0.863801
v 0.107261 -0.034344 0.867032
v 0.109950 -0.035693 0.863815
v 0.111969 -0.031328 0.861232
v 0.123288 -0.027362 0.867962
v 0.117906 -0.025519 0.864918
v 0.121627 -0.028008 0.861442
v 0.126748 -0.031527 0.864592
v 0.125056 -0.033163 0.872004
v 0.127662 -0.037568 0.867974
v 0.127468 -0.034542 0.859092
v 0.121847 -0.030675 0.856583
v 0.116205 -0.039448 0.838456
v 0.121351 -0.043881 0.839154
v 0.103973 -0.048790 0.847535
v 0.106251 -0.051412 0.849253
v 0.112965 -0.026768 0.863582
v 0.116048 -0.028723 0.860573
v 0.110154 -0.044654 0.865512
v 0.107668 -0.040326 0.863129
v 0.108731 -0.039676 0.866487
v 0.111707 -0.043048 0.869803
v 0.108077 -0.039327 0.840342
v 0.105766 -0.044317 0.843633
v 0.111584 -0.038332 0.839197
v 0.116127 -0.047427 0.867207
v 0.123035 -0.046934 0.866611
v 0.119062 -0.055530 0.847864
v 0.113534 -0.055631 0.850804
v 0.116416 -0.029882 0.856370
v 0.108516 -0.035142 0.860573
v 0.111127 -0.031429 0.857765
v 0.127383 -0.041527 0.862123
v 0.122900 -0.042757 0.872338
v 0.109254 -0.033041 0.884120
v 0.114608 -0.040614 0.876486
v 0.109931 -0.040327 0.874048
v 0.104415 -0.033617 0.882509
v 0.116800 -0.044201 0.872282
v 0.120195 -0.038400 0.876005
v 0.101249 -0.023173 0.873779
v 0.099216 -0.028422 0.876761
v 0.104541 -0.019959 0.873429
v 0.122289 -0.050532 0.842374
v 0.114622 -0.020508 0.876608
v 0.108736 -0.018946 0.873888
v 0.106926 -0.038510 0.870272
v 0.100382 -0.031997 0.880057
v 0.113323 -0.030805 0.883945
v 0.117223 -0.025962 0.880044
v 0.109875 -0.027284 0.887332
v 0.112695 -0.022290 0.884426
v 0.110338 -0.017073 0.880622
v 0.105499 -0.016582 0.877251
v 0.102176 -0.018449 0.875974
v 0.106135 -0.029694 0.887539
v 0.101680 -0.030768 0.885782
v 0.098882 -0.029966 0.881531
v 0.100360 -0.026909 0.890713
v 0.103102 -0.023510 0.891938
v 0.092512 -0.008587 0.889729
v 0.097589 -0.010680 0.887232
v 0.098166 -0.011541 0.889672
v 0.093597 -0.009659 0.892140
v 0.103474 -0.012934 0.886430
v 0.102282 -0.013513 0.888690
v 0.103477 -0.017522 0.890732
v 0.098077 -0.015319 0.892717
v 0.097431 -0.019972 0.894090
v 0.093102 -0.017705 0.897111
v 0.093712 -0.012961 0.896068
v 0.101573 -0.020379 0.892626
v 0.090727 -0.009247 0.894339
v 0.088262 -0.008882 0.893485
v 0.106380 -0.018243 0.889575
v 0.102968 -0.014143 0.880330
v 0.095616 -0.010879 0.884836
v 0.089895 -0.009493 0.887945
v 0.085917 -0.010695 0.892604
v 0.092351 -0.013175 0.883420
v 0.087719 -0.011810 0.887197
v 0.085014 -0.012998 0.891349
v 0.089496 -0.016993 0.883178
v 0.085653 -0.015541 0.887404
v 0.097724 -0.021017 0.877179
v 0.100048 -0.016838 0.877464
v 0.084809 -0.014945 0.889891
v 0.087823 -0.011640 0.897548
v 0.085188 -0.013161 0.895991
v 0.089731 -0.011702 0.897398
v 0.096710 -0.021983 0.894205
v 0.091476 -0.019277 0.896837
v 0.094773 -0.023980 0.893570
v 0.089388 -0.020519 0.896441
v 0.088239 -0.016314 0.898622
v 0.089560 -0.015156 0.898660
v 0.099867 -0.022161 0.876099
v 0.098421 -0.027111 0.878424
v 0.096543 -0.026181 0.879189
v 0.088760 -0.021760 0.885394
v 0.097133 -0.029200 0.882862
v 0.098202 -0.028640 0.888211
v 0.092974 -0.025315 0.891773
v 0.090188 -0.024710 0.888909
v 0.088026 -0.021952 0.895416
v 0.087323 -0.022371 0.892189
v 0.085474 -0.019386 0.888840
v 0.085241 -0.018449 0.896714
v 0.086710 -0.017154 0.898130
v 0.084453 -0.014649 0.894419
v 0.085082 -0.019717 0.893963
v 0.084277 -0.016743 0.891912
v 0.101101 -0.046139 0.868924
v 0.098109 -0.050708 0.871109
v 0.099209 -0.052108 0.868663
v 0.102613 -0.047963 0.866770
v 0.113087 -0.046347 0.873684
v 0.109552 -0.043660 0.871342
v 0.111920 -0.046302 0.867874
v 0.115964 -0.049854 0.869049
v 0.112882 -0.050193 0.878067
v 0.116769 -0.055224 0.872208
v 0.116932 -0.052853 0.864309
v 0.112745 -0.048374 0.864169
v 0.109637 -0.054910 0.851228
v 0.113438 -0.060231 0.852139
v 0.105161 -0.044066 0.869584
v 0.106833 -0.046115 0.866935
v 0.098802 -0.059587 0.871412
v 0.097384 -0.055397 0.869255
v 0.098645 -0.056404 0.871924
v 0.100944 -0.059263 0.874660
v 0.099070 -0.053735 0.851193
v 0.095762 -0.058440 0.853115
v 0.104088 -0.052749 0.851384
v 0.104583 -0.062960 0.872655
v 0.111893 -0.063501 0.871248
v 0.105676 -0.070166 0.858938
v 0.099728 -0.068823 0.859559
v 0.107698 -0.047034 0.864137
v 0.098252 -0.051058 0.866173
v 0.102175 -0.047521 0.864350
v 0.116197 -0.058852 0.866906
v 0.112259 -0.059618 0.876172
v 0.098574 -0.048569 0.891226
v 0.105193 -0.058295 0.880074
v 0.099930 -0.057639 0.877243
v 0.094618 -0.049525 0.889248
v 0.106028 -0.060793 0.877020
v 0.110234 -0.055790 0.880319
v 0.092866 -0.039252 0.879479
v 0.091106 -0.044156 0.881623
v 0.096955 -0.037279 0.879298
v 0.112331 -0.066761 0.854991
v 0.094922 -0.064724 0.857559
v 0.103189 -0.036850 0.883756
v 0.099947 -0.036285 0.880759
v 0.097916 -0.055182 0.874225
v 0.091638 -0.048297 0.885705
v 0.102872 -0.046060 0.890701
v 0.105553 -0.041346 0.887275
v 0.098938 -0.043202 0.894358
v 0.101317 -0.038199 0.891030
v 0.099364 -0.033947 0.887136
v 0.096319 -0.034121 0.883553
v 0.093673 -0.035574 0.881778
v 0.094759 -0.046157 0.894168
v 0.091660 -0.047217 0.891809
v 0.090937 -0.047098 0.886582
v 0.090860 -0.044604 0.895787
v 0.093109 -0.039788 0.897472
v 0.081225 -0.027584 0.893738
v 0.086506 -0.029457 0.891558
v 0.086698 -0.029937 0.892687
v 0.081759 -0.027927 0.895378
v 0.093218 -0.031412 0.891020
v 0.091685 -0.031454 0.892446
v 0.092992 -0.034247 0.895079
v 0.087008 -0.032452 0.897402
v 0.086080 -0.038347 0.898728
v 0.081570 -0.035954 0.900281
v 0.082188 -0.030384 0.899538
v 0.091583 -0.038065 0.897282
v 0.079053 -0.027601 0.897304
v 0.078071 -0.026197 0.896369
v 0.095564 -0.035042 0.894630
v 0.092191 -0.031571 0.886104
v 0.085273 -0.029402 0.888811
v 0.079846 -0.027478 0.890835
v 0.076225 -0.027795 0.893568
v 0.083172 -0.031874 0.886700
v 0.078680 -0.030026 0.889286
v 0.075488 -0.030222 0.891828
v 0.081616 -0.034816 0.886261
v 0.077834 -0.033173 0.888885
v 0.089666 -0.038037 0.882238
v 0.090843 -0.034265 0.883291
v 0.075689 -0.032459 0.891119
v 0.076835 -0.029234 0.899942
v 0.074178 -0.031483 0.897476
v 0.078531 -0.029644 0.899727
v 0.086084 -0.040229 0.898703
v 0.080046 -0.037733 0.900655
v 0.084716 -0.042396 0.897392
v 0.078813 -0.039768 0.899302
v 0.077335 -0.034308 0.901404
v 0.078359 -0.033670 0.901173
v 0.091669 -0.038944 0.881241
v 0.090466 -0.043688 0.882982
v 0.088773 -0.042747 0.883708
v 0.080210 -0.039202 0.887846
v 0.089040 -0.046159 0.887201
v 0.088117 -0.045651 0.893244
v 0.082782 -0.043067 0.894706
v 0.080743 -0.042168 0.891502
v 0.077797 -0.040513 0.896754
v 0.077820 -0.040184 0.893873
v 0.076661 -0.037065 0.890137
v 0.075378 -0.037087 0.897091
v 0.075836 -0.036058 0.899884
v 0.073921 -0.033285 0.894830
v 0.075456 -0.037682 0.894628
v 0.074527 -0.034785 0.892860
v 0.094156 -0.061914 0.855466
v 0.083969 -0.058347 0.872947
v 0.081605 -0.061301 0.875076
v 0.082408 -0.061841 0.875000
v 0.084608 -0.059369 0.871802
v 0.095475 -0.059717 0.874571
v 0.091595 -0.057073 0.873009
v 0.093723 -0.059527 0.870203
v 0.097230 -0.062584 0.871524
v 0.096317 -0.064312 0.877551
v 0.097198 -0.067221 0.875259
v 0.096478 -0.065381 0.868713
v 0.093424 -0.061980 0.867239
v 0.090657 -0.072302 0.854015
v 0.092154 -0.077696 0.854093
v 0.073812 -0.081972 0.859387
v 0.071909 -0.077301 0.857049
v 0.075643 -0.074369 0.864903
v 0.077126 -0.078816 0.866137
v 0.087583 -0.056998 0.872463
v 0.088696 -0.058429 0.869959
v 0.083294 -0.070436 0.879363
v 0.081255 -0.066508 0.876939
v 0.081418 -0.064977 0.877764
v 0.082540 -0.068315 0.881191
v 0.074557 -0.072717 0.855888
v 0.079057 -0.070463 0.854974
v 0.079807 -0.068604 0.858511
v 0.077463 -0.070265 0.862874
v 0.085365 -0.068278 0.856848
v 0.087301 -0.072755 0.879465
v 0.093020 -0.073169 0.877216
v 0.084407 -0.085346 0.863057
v 0.080136 -0.083177 0.864827
v 0.089632 -0.059998 0.868739
v 0.082049 -0.063091 0.873435
v 0.084946 -0.060454 0.871625
v 0.096683 -0.070353 0.872039
v 0.092744 -0.069961 0.880052
v 0.084230 -0.063814 0.888083
v 0.086355 -0.068804 0.883579
v 0.081976 -0.067719 0.881675
v 0.081123 -0.064111 0.886517
v 0.086857 -0.069978 0.882140
v 0.091647 -0.067193 0.882425
v 0.080626 -0.055543 0.876671
v 0.078762 -0.059707 0.879786
v 0.083454 -0.053591 0.876164
v 0.090036 -0.083026 0.857204
v 0.090324 -0.053720 0.879550
v 0.086499 -0.052515 0.877402
v 0.080858 -0.064324 0.878228
v 0.078852 -0.062717 0.883414
v 0.088625 -0.061525 0.887556
v 0.092166 -0.057997 0.883318
v 0.086143 -0.057884 0.889660
v 0.089344 -0.054383 0.885408
v 0.086628 -0.050940 0.880584
v 0.083731 -0.051789 0.877900
v 0.081172 -0.053506 0.876831
v 0.082096 -0.061093 0.889789
v 0.079715 -0.062151 0.888082
v 0.078248 -0.061843 0.884335
v 0.079631 -0.058267 0.891327
v 0.081138 -0.053634 0.890878
v 0.071391 -0.046549 0.884717
v 0.075173 -0.047778 0.883036
v 0.075556 -0.047686 0.884203
v 0.071921 -0.045985 0.885517
v 0.080718 -0.048862 0.882463
v 0.079694 -0.048640 0.884033
v 0.081814 -0.050256 0.886674
v 0.076878 -0.048311 0.888313
v 0.075843 -0.052007 0.892189
v 0.072163 -0.050009 0.893044
v 0.073566 -0.046722 0.889768
v 0.080185 -0.052057 0.890405
v 0.070061 -0.044853 0.887406
v 0.068664 -0.044622 0.887061
v 0.084259 -0.050730 0.886398
v 0.079407 -0.050639 0.878924
v 0.073216 -0.048450 0.881350
v 0.068983 -0.046665 0.883922
v 0.066664 -0.045984 0.887089
v 0.072386 -0.050672 0.880346
v 0.067599 -0.048446 0.883251
v 0.065534 -0.047924 0.886388
v 0.071266 -0.053871 0.880721
v 0.067202 -0.051033 0.883602
v 0.076484 -0.056683 0.878445
v 0.077615 -0.053315 0.877798
v 0.065781 -0.049675 0.886075
v 0.068570 -0.045410 0.890995
v 0.066271 -0.047278 0.890216
v 0.070279 -0.045428 0.891149
v 0.075568 -0.053284 0.892766
v 0.070981 -0.051040 0.893759
v 0.074489 -0.055498 0.892716
v 0.069524 -0.052603 0.893226
v 0.068648 -0.048307 0.893291
v 0.070481 -0.047731 0.892825
v 0.078404 -0.056316 0.877763
v 0.077856 -0.059274 0.880281
v 0.076108 -0.059695 0.881565
v 0.070953 -0.057015 0.883567
v 0.076895 -0.061507 0.885923
v 0.078205 -0.060618 0.889595
v 0.072992 -0.057295 0.891182
v 0.071475 -0.058220 0.888195
v 0.068171 -0.053605 0.891778
v 0.067364 -0.054662 0.888994
v 0.066891 -0.053756 0.885722
v 0.066076 -0.050476 0.890831
v 0.066772 -0.049399 0.892265
v 0.065450 -0.048936 0.889171
v 0.065782 -0.051620 0.889259
v 0.065570 -0.050832 0.887763
v 0.077253 -0.084157 0.860206
v 0.094376 -0.003461 0.806936
v 0.094287 -0.008000 0.810426
v 0.084060 -0.003860 0.822456
v 0.089031 -0.008435 0.820480
v 0.081543 0.002350 0.820959
v 0.083266 0.008381 0.812007
v 0.080784 0.006011 0.816440
v 0.092678 -0.009879 0.815955
v 0.092152 0.001768 0.804932
v 0.087381 0.006992 0.806547
v 0.099699 0.004792 0.808850
v 0.094542 0.010756 0.811028
v 0.090336 0.012847 0.816307
v 0.086105 0.008990 0.820995
v 0.085189 0.005132 0.824300
v 0.099362 -0.002365 0.811166
v 0.098279 -0.006767 0.814508
v 0.094638 -0.008569 0.819809
v 0.104522 -0.002765 0.817518
v 0.108689 0.004035 0.823672
v 0.105228 0.013778 0.840477
v 0.100574 0.012890 0.835384
v 0.103188 0.012806 0.834153
v 0.107225 0.014146 0.838745
v 0.099454 0.012833 0.829710
v 0.101729 0.012014 0.830053
v 0.104742 0.009431 0.826438
v 0.108312 0.010447 0.830979
v 0.108236 0.005558 0.826072
v 0.110867 0.004946 0.829465
v 0.111989 0.011372 0.835262
v 0.111036 0.014527 0.840191
v 0.114891 0.012001 0.839078
v 0.110051 0.013426 0.843069
v 0.105329 0.011264 0.824008
v 0.092608 0.011491 0.828428
v 0.097243 0.011380 0.836159
v 0.102805 0.011347 0.842104
v 0.108666 0.010838 0.844607
v 0.095288 0.007503 0.837362
v 0.101194 0.007178 0.842055
v 0.106749 0.006219 0.843858
v 0.095682 0.002540 0.837284
v 0.101656 0.003268 0.841020
v 0.088223 -0.000066 0.827791
v 0.088150 0.006489 0.828515
v 0.105698 0.003945 0.842390
v 0.115690 0.010886 0.841696
v 0.114106 0.007902 0.843253
v 0.111309 0.001709 0.828252
v 0.114722 0.005986 0.833207
v 0.114709 0.002920 0.833509
v 0.109860 -0.002067 0.827615
v 0.113835 0.000228 0.834220
v 0.116980 0.006015 0.837913
v 0.116217 0.008367 0.836371
v 0.086080 -0.001095 0.825255
v 0.089684 -0.006272 0.823121
v 0.091637 -0.005379 0.825302
v 0.098646 -0.002927 0.834533
v 0.096802 -0.008048 0.822988
v 0.101825 -0.006513 0.819708
v 0.107560 -0.004788 0.828996
v 0.103366 -0.005515 0.831385
v 0.111009 -0.001621 0.835695
v 0.108127 -0.001853 0.836860
v 0.104333 -0.000046 0.839532
v 0.112474 0.001516 0.839785
v 0.115593 0.003247 0.839006
v 0.110957 0.004356 0.842865
v 0.109820 0.000594 0.839465
v 0.108149 0.002333 0.841498
v 0.068496 -0.078309 0.852886
v 0.071263 -0.072369 0.851290
v 0.065996 -0.073529 0.848211
v 0.058095 -0.073026 0.843397
v 0.050067 -0.078735 0.839388
v 0.061292 -0.067858 0.839793
v 0.069287 -0.068512 0.845144
v 0.077176 -0.067198 0.849417
v 0.058257 -0.063686 0.830817
f 2 3 1
f 1 3 4
f 5 6 8
f 8 6 7
f 9 4 10
f 10 4 3
f 12 13 11
f 11 13 9
f 14 12 16
f 16 12 15
f 18 19 17
f 17 19 20
f 22 23 21
f 21 23 24
f 26 27 25
f 25 27 28
f 30 31 29
f 29 31 32
f 33 34 36
f 36 34 35
f 37 38 40
f 40 38 39
f 41 42 6
f 6 42 43
f 6 43 7
f 7 43 44
f 45 34 46
f 46 34 33
f 48 49 47
f 47 49 50
f 52 53 51
f 51 53 54
f 56 52 55
f 55 52 51
f 58 59 57
f 57 59 60
f 61 62 4
f 4 62 1
f 64 65 63
f 63 65 66
f 68 69 67
f 67 69 70
f 72 73 71
f 71 73 74
f 76 77 75
f 75 77 78
f 53 79 54
f 54 79 80
f 82 83 81
f 81 83 84
f 85 86 52
f 52 86 53
f 57 60 87
f 87 60 88
f 89 90 43
f 43 90 44
f 43 42 89
f 89 42 91
f 40 39 92
f 92 39 93
f 94 70 64
f 64 70 69
f 13 61 9
f 9 61 4
f 25 28 69
f 69 28 95
f 96 25 68
f 68 25 69
f 98 99 97
f 97 99 100
f 101 102 104
f 104 102 103
f 106 30 105
f 105 30 29
f 51 54 107
f 107 54 108
f 54 80 108
f 108 80 109
f 111 112 110
f 110 112 113
f 115 5 114
f 114 5 116
f 115 41 5
f 5 41 6
f 36 35 111
f 111 35 117
f 35 118 117
f 117 118 119
f 34 120 35
f 35 120 118
f 34 45 120
f 120 45 121
f 125 126 124
f 124 126 127
f 128 129 14
f 14 129 130
f 33 131 46
f 46 131 132
f 133 94 63
f 63 94 64
f 134 135 137
f 137 135 136
f 139 140 138
f 138 140 141
f 77 142 78
f 78 142 143
f 144 145 20
f 20 145 146
f 148 149 147
f 147 149 72
f 151 152 150
f 150 152 153
f 82 101 83
f 83 101 104
f 101 82 155
f 155 82 154
f 156 157 58
f 58 157 59
f 158 68 147
f 147 68 67
f 159 146 15
f 15 146 16
f 68 158 96
f 96 158 160
f 129 66 130
f 130 66 65
f 162 163 161
f 161 163 164
f 166 167 165
f 165 167 168
f 170 171 169
f 169 171 172
f 174 171 173
f 173 171 170
f 176 177 175
f 175 177 178
f 180 181 179
f 179 181 24
f 182 183 21
f 21 183 184
f 81 185 82
f 82 185 154
f 186 187 188
f 188 187 144
f 158 71 160
f 160 71 189
f 190 135 157
f 157 135 59
f 169 172 139
f 139 172 140
f 147 72 158
f 158 72 71
f 192 193 191
f 191 193 194
f 167 166 49
f 49 166 195
f 196 190 50
f 50 190 157
f 197 198 200
f 200 198 199
f 21 24 182
f 182 24 181
f 146 159 20
f 20 159 17
f 182 181 81
f 81 181 185
f 201 185 180
f 180 185 181
f 202 203 83
f 83 203 84
f 205 206 204
f 204 206 85
f 207 22 184
f 184 22 21
f 179 24 208
f 208 24 23
f 208 209 179
f 179 209 205
f 209 210 205
f 205 210 206
f 212 206 211
f 211 206 210
f 179 205 180
f 180 205 204
f 213 176 88
f 88 176 214
f 86 85 212
f 212 85 206
f 193 217 218
f 217 219 218
f 218 219 220
f 219 18 220
f 220 18 17
f 19 221 20
f 20 221 144
f 222 223 225
f 225 223 224
f 175 226 176
f 176 226 214
f 227 87 214
f 214 87 88
f 220 17 228
f 228 17 159
f 134 213 60
f 60 213 88
f 138 229 151
f 151 229 152
f 193 192 210
f 210 192 211
f 230 194 218
f 218 194 193
f 231 232 228
f 228 232 230
f 233 234 91
f 91 234 89
f 235 236 93
f 93 236 92
f 230 232 234
f 234 232 237
f 47 238 48
f 48 238 239
f 240 191 235
f 235 191 236
f 5 8 116
f 116 8 241
f 242 243 189
f 189 243 160
f 244 245 98
f 98 245 99
f 156 246 47
f 47 246 238
f 76 247 77
f 77 247 248
f 250 125 249
f 249 125 124
f 252 253 251
f 251 253 254
f 111 110 36
f 36 110 255
f 256 33 255
f 255 33 36
f 257 258 154
f 154 258 155
f 63 169 133
f 133 169 139
f 66 170 63
f 63 170 169
f 173 170 129
f 129 170 66
f 129 128 173
f 173 128 259
f 128 260 259
f 259 260 261
f 213 134 262
f 262 134 137
f 263 264 186
f 186 264 187
f 112 265 113
f 113 265 266
f 11 267 268
f 234 233 230
f 230 233 194
f 153 269 70
f 70 269 67
f 175 178 165
f 165 178 141
f 150 153 94
f 94 153 70
f 271 221 270
f 270 221 207
f 269 153 272
f 272 153 152
f 121 45 109
f 109 45 108
f 47 50 156
f 156 50 157
f 57 273 58
f 58 273 274
f 145 275 260
f 260 275 261
f 276 149 143
f 143 149 78
f 148 269 75
f 75 269 272
f 207 277 270
f 270 277 278
f 195 196 49
f 49 196 50
f 59 135 60
f 60 135 134
f 83 104 202
f 202 104 279
f 149 148 78
f 78 148 75
f 247 278 248
f 248 278 277
f 183 182 84
f 84 182 81
f 48 239 281
f 281 239 282
f 227 223 283
f 283 223 222
f 223 226 224
f 224 226 168
f 281 282 224
f 224 282 225
f 165 168 175
f 175 168 226
f 264 263 138
f 138 263 229
f 14 16 128
f 128 16 260
f 220 228 218
f 218 228 230
f 87 227 284
f 284 227 283
f 260 16 145
f 145 16 146
f 244 98 258
f 258 98 155
f 58 274 156
f 156 274 246
f 107 285 51
f 51 285 55
f 243 286 160
f 160 286 96
f 234 237 89
f 89 237 90
f 46 132 107
f 107 132 285
f 253 252 249
f 249 252 250
f 286 26 96
f 96 26 25
f 106 105 287
f 287 105 288
f 272 152 289
f 289 152 229
f 138 151 139
f 139 151 133
f 183 290 161
f 161 290 162
f 291 292 277
f 277 292 293
f 151 150 133
f 133 150 94
f 262 275 177
f 177 275 187
f 144 187 145
f 145 187 275
f 273 57 284
f 284 57 87
f 174 136 190
f 190 136 135
f 111 117 112
f 112 117 38
f 117 119 38
f 38 119 123
f 112 38 265
f 265 38 37
f 287 288 254
f 254 288 251
f 228 159 231
f 231 159 15
f 223 227 226
f 226 227 214
f 147 67 148
f 148 67 269
f 224 168 281
f 281 168 167
f 199 163 200
f 200 163 162
f 45 46 108
f 108 46 107
f 281 167 48
f 48 167 49
f 161 164 291
f 291 164 292
f 38 123 39
f 293 294 277
f 277 294 248
f 284 283 296
f 296 283 295
f 284 296 273
f 273 296 297
f 274 273 298
f 298 273 297
f 246 274 299
f 299 274 298
f 283 222 295
f 295 222 300
f 222 225 300
f 300 225 301
f 301 225 302
f 302 225 282
f 303 304 300
f 300 304 295
f 306 307 305
f 305 307 308
f 309 310 308
f 308 310 305
f 308 307 312
f 312 307 311
f 313 314 312
f 312 314 315
f 311 316 312
f 312 316 313
f 317 304 311
f 311 304 316
f 315 309 312
f 312 309 308
f 318 319 321
f 321 319 320
f 319 318 309
f 309 318 310
f 311 307 317
f 317 307 306
f 306 297 317
f 317 297 296
f 306 322 297
f 297 322 298
f 305 323 306
f 306 323 322
f 323 305 324
f 324 305 310
f 304 317 295
f 295 317 296
f 318 325 310
f 310 325 324
f 323 324 326
f 326 324 327
f 324 325 327
f 327 325 328
f 326 327 329
f 329 327 330
f 329 331 326
f 326 331 332
f 333 330 328
f 328 330 327
f 323 326 322
f 322 326 332
f 322 332 298
f 298 332 299
f 325 318 334
f 334 318 321
f 313 316 335
f 335 316 304
f 335 336 313
f 313 336 314
f 304 303 335
f 335 303 337
f 336 335 338
f 338 335 337
f 336 339 314
f 314 339 340
f 246 299 238
f 238 299 341
f 239 342 282
f 282 342 302
f 342 239 341
f 341 239 238
f 341 331 342
f 342 331 343
f 331 329 343
f 343 329 344
f 342 343 302
f 302 343 345
f 341 299 331
f 331 299 332
f 346 301 345
f 345 301 302
f 346 303 301
f 301 303 300
f 347 337 346
f 346 337 303
f 347 346 348
f 348 346 345
f 349 347 350
f 350 347 348
f 343 344 345
f 345 344 348
f 344 351 348
f 348 351 350
f 337 347 338
f 338 347 349
f 353 338 352
f 352 338 349
f 352 355 354
f 354 355 356
f 352 349 355
f 355 349 350
f 352 354 353
f 353 354 334
f 353 334 339
f 339 334 321
f 339 336 353
f 353 336 338
f 329 330 344
f 344 330 351
f 356 351 333
f 333 351 330
f 356 355 351
f 351 355 350
f 354 356 328
f 328 356 333
f 328 325 354
f 354 325 334
f 309 315 319
f 319 315 320
f 320 340 321
f 321 340 339
f 320 315 340
f 340 315 314
f 137 136 261
f 261 136 259
f 140 166 141
f 141 166 165
f 172 171 195
f 195 171 196
f 171 174 196
f 196 174 190
f 178 177 264
f 264 177 187
f 172 195 140
f 140 195 166
f 137 261 262
f 262 261 275
f 178 264 141
f 141 264 138
f 262 177 213
f 213 177 176
f 136 174 259
f 259 174 173
f 358 359 357
f 357 359 360
f 362 363 361
f 361 363 364
f 361 364 365
f 365 364 366
f 367 368 370
f 370 368 369
f 76 371 247
f 247 371 372
f 373 374 362
f 362 374 363
f 376 377 375
f 375 377 378
f 289 229 380
f 380 229 379
f 381 379 263
f 263 379 229
f 383 384 382
f 382 384 385
f 386 368 374
f 374 368 363
f 76 289 371
f 371 289 380
f 377 376 359
f 359 376 387
f 388 386 360
f 360 386 374
f 389 383 366
f 366 383 390
f 392 393 391
f 391 393 394
f 383 382 390
f 390 382 395
f 396 365 390
f 390 365 366
f 389 366 367
f 367 366 364
f 357 397 358
f 358 397 398
f 373 399 357
f 357 399 397
f 389 367 400
f 400 367 370
f 382 385 375
f 375 385 372
f 357 360 373
f 373 360 374
f 361 401 362
f 362 401 402
f 387 388 359
f 359 388 360
f 363 368 364
f 364 368 367
f 358 398 403
f 403 398 404
f 396 392 405
f 405 392 391
f 392 395 393
f 393 395 378
f 393 403 394
f 394 403 404
f 375 378 382
f 382 378 395
f 365 396 406
f 406 396 405
f 362 402 373
f 373 402 399
f 271 270 400
f 400 270 384
f 401 361 406
f 406 361 365
f 381 369 386
f 386 369 368
f 392 396 395
f 395 396 390
f 393 378 403
f 403 378 377
f 403 377 358
f 358 377 359
f 406 405 408
f 408 405 407
f 406 408 401
f 401 408 409
f 401 409 402
f 402 409 410
f 402 410 399
f 399 410 411
f 405 391 407
f 407 391 412
f 391 394 412
f 412 394 413
f 394 404 413
f 413 404 414
f 415 416 412
f 412 416 407
f 418 419 417
f 417 419 420
f 421 422 418
f 418 422 419
f 419 422 424
f 424 422 423
f 425 426 424
f 424 426 427
f 423 428 424
f 424 428 425
f 427 420 424
f 424 420 419
f 420 429 417
f 417 429 430
f 423 422 431
f 431 422 421
f 421 409 431
f 431 409 408
f 421 432 409
f 409 432 410
f 418 433 421
f 421 433 432
f 434 433 417
f 417 433 418
f 431 416 423
f 423 416 428
f 416 431 407
f 407 431 408
f 435 434 430
f 430 434 417
f 433 434 436
f 436 434 437
f 434 435 437
f 437 435 438
f 436 437 439
f 439 437 440
f 439 441 436
f 436 441 442
f 438 443 437
f 437 443 440
f 436 442 433
f 433 442 432
f 432 442 410
f 410 442 411
f 435 430 445
f 445 430 444
f 430 429 444
f 444 429 446
f 425 428 447
f 447 428 416
f 426 425 448
f 448 425 447
f 416 415 447
f 447 415 449
f 447 449 448
f 448 449 450
f 451 452 448
f 448 452 426
f 446 452 444
f 444 452 451
f 399 411 397
f 397 411 453
f 398 454 404
f 404 454 414
f 454 398 453
f 453 398 397
f 453 441 454
f 454 441 455
f 441 439 455
f 455 439 456
f 454 455 414
f 414 455 457
f 441 453 442
f 442 453 411
f 458 413 457
f 457 413 414
f 458 415 413
f 413 415 412
f 458 459 415
f 415 459 449
f 459 458 460
f 460 458 457
f 461 459 462
f 462 459 460
f 455 456 457
f 457 456 460
f 456 463 460
f 460 463 462
f 459 461 449
f 449 461 450
f 465 450 464
f 464 450 461
f 464 467 466
f 466 467 468
f 464 461 467
f 467 461 462
f 464 466 465
f 465 466 445
f 465 445 451
f 451 445 444
f 451 448 465
f 465 448 450
f 439 440 456
f 456 440 463
f 468 463 443
f 443 463 440
f 468 467 463
f 463 467 462
f 466 468 438
f 438 468 443
f 438 435 466
f 466 435 445
f 420 427 429
f 429 427 446
f 446 427 452
f 452 427 426
f 370 369 188
f 188 369 186
f 371 376 372
f 372 376 375
f 380 379 387
f 387 379 388
f 379 381 388
f 388 381 386
f 385 384 278
f 278 384 270
f 380 387 371
f 371 387 376
f 400 370 271
f 271 370 188
f 385 278 372
f 372 278 247
f 400 384 389
f 389 384 383
f 369 381 186
f 186 381 263
f 221 271 144
f 144 271 188
f 221 19 207
f 207 19 22
f 19 18 22
f 22 18 23
f 18 219 23
f 23 219 208
f 469 470 472
f 472 470 471
f 474 475 473
f 473 475 476
f 473 476 477
f 477 476 478
f 480 481 479
f 479 481 482
f 483 484 474
f 474 484 475
f 486 487 485
f 485 487 488
f 489 490 77
f 77 490 142
f 491 489 248
f 248 489 77
f 493 494 492
f 492 494 495
f 496 480 484
f 484 480 475
f 486 497 487
f 487 497 471
f 498 496 472
f 472 496 484
f 499 493 478
f 478 493 500
f 501 502 504
f 504 502 503
f 493 492 500
f 500 492 505
f 506 477 500
f 500 477 478
f 499 478 479
f 479 478 476
f 469 507 470
f 470 507 508
f 483 509 469
f 469 509 507
f 479 482 499
f 499 482 510
f 492 495 485
f 485 495 511
f 483 469 484
f 484 469 472
f 473 512 474
f 474 512 513
f 497 498 471
f 471 498 472
f 475 480 476
f 476 480 479
f 470 508 514
f 514 508 515
f 506 502 516
f 516 502 501
f 503 502 488
f 488 502 505
f 514 515 503
f 503 515 504
f 485 488 492
f 492 488 505
f 477 506 517
f 517 506 516
f 474 513 483
f 483 513 509
f 510 292 494
f 494 292 164
f 512 473 517
f 517 473 477
f 491 481 496
f 496 481 480
f 502 506 505
f 505 506 500
f 503 488 514
f 514 488 487
f 514 487 470
f 470 487 471
f 517 516 519
f 519 516 518
f 517 519 512
f 512 519 520
f 512 520 513
f 513 520 521
f 513 521 509
f 509 521 522
f 516 501 518
f 518 501 523
f 501 504 523
f 523 504 524
f 524 504 525
f 525 504 515
f 526 527 523
f 523 527 518
f 529 530 528
f 528 530 531
f 532 533 529
f 529 533 530
f 530 533 535
f 535 533 534
f 536 537 535
f 535 537 538
f 534 539 535
f 535 539 536
f 538 531 535
f 535 531 530
f 540 541 531
f 531 541 528
f 533 532 534
f 534 532 542
f 532 520 542
f 542 520 519
f 532 543 520
f 520 543 521
f 529 544 532
f 532 544 543
f 544 529 545
f 545 529 528
f 534 542 539
f 539 542 527
f 527 542 518
f 518 542 519
f 541 546 528
f 528 546 545
f 547 544 548
f 548 544 545
f 546 549 545
f 545 549 548
f 550 547 551
f 551 547 548
f 547 550 553
f 553 550 552
f 549 554 548
f 548 554 551
f 544 547 543
f 543 547 553
f 543 553 521
f 521 553 522
f 546 541 556
f 556 541 555
f 541 540 555
f 555 540 557
f 536 539 558
f 558 539 527
f 537 536 559
f 559 536 558
f 527 526 558
f 558 526 560
f 559 558 561
f 561 558 560
f 559 562 537
f 537 562 563
f 557 563 555
f 555 563 562
f 509 522 507
f 507 522 564
f 508 565 515
f 515 565 525
f 565 508 564
f 564 508 507
f 564 552 565
f 565 552 566
f 552 550 566
f 566 550 567
f 565 566 525
f 525 566 568
f 564 522 552
f 552 522 553
f 569 524 568
f 568 524 525
f 569 526 524
f 524 526 523
f 570 560 569
f 569 560 526
f 570 569 571
f 571 569 568
f 572 570 573
f 573 570 571
f 566 567 568
f 568 567 571
f 567 574 571
f 571 574 573
f 570 572 560
f 560 572 561
f 576 561 575
f 575 561 572
f 575 578 577
f 577 578 579
f 575 572 578
f 578 572 573
f 575 577 576
f 576 577 556
f 576 556 562
f 562 556 555
f 562 559 576
f 576 559 561
f 550 551 567
f 567 551 574
f 579 574 554
f 554 574 551
f 579 578 574
f 574 578 573
f 579 554 577
f 577 554 549
f 549 546 577
f 577 546 556
f 531 538 540
f 540 538 557
f 557 538 563
f 563 538 537
f 481 294 482
f 482 294 293
f 580 486 511
f 511 486 485
f 490 489 497
f 497 489 498
f 489 491 498
f 498 491 496
f 163 495 164
f 164 495 494
f 580 490 486
f 486 490 497
f 482 293 510
f 510 293 292
f 495 163 511
f 511 163 199
f 494 493 510
f 510 493 499
f 481 491 294
f 294 491 248
f 582 583 581
f 581 583 584
f 586 587 585
f 585 587 588
f 585 588 589
f 589 588 590
f 592 593 591
f 591 593 594
f 595 596 598
f 598 596 597
f 599 600 586
f 586 600 587
f 601 602 604
f 604 602 603
f 605 606 608
f 608 606 607
f 609 607 200
f 200 607 606
f 610 611 613
f 613 611 612
f 600 614 587
f 587 614 592
f 596 605 597
f 597 605 608
f 602 615 603
f 603 615 583
f 616 614 584
f 584 614 600
f 611 618 617
f 617 618 590
f 620 621 619
f 619 621 622
f 610 623 611
f 611 623 618
f 624 589 618
f 618 589 590
f 617 590 591
f 591 590 588
f 581 625 582
f 582 625 626
f 599 627 581
f 581 627 625
f 591 594 617
f 617 594 628
f 601 610 598
f 598 610 613
f 581 584 599
f 599 584 600
f 585 629 586
f 586 629 630
f 615 616 583
f 583 616 584
f 587 592 588
f 588 592 591
f 582 626 631
f 631 626 632
f 624 620 633
f 633 620 619
f 621 620 604
f 604 620 623
f 631 632 621
f 621 632 622
f 610 601 623
f 623 601 604
f 589 624 634
f 634 624 633
f 586 630 599
f 599 630 627
f 203 202 628
f 628 202 612
f 629 585 634
f 634 585 589
f 609 593 614
f 614 593 592
f 620 624 623
f 623 624 618
f 631 621 603
f 603 621 604
f 582 631 583
f 583 631 603
f 634 633 636
f 636 633 635
f 634 636 629
f 629 636 637
f 629 637 630
f 630 637 638
f 630 638 627
f 627 638 639
f 633 619 635
f 635 619 640
f 619 622 640
f 640 622 641
f 641 622 642
f 642 622 632
f 644 635 643
f 643 635 640
f 645 646 648
f 648 646 647
f 649 650 646
f 646 650 647
f 647 650 652
f 652 650 651
f 652 653 655
f 655 653 654
f 651 656 652
f 652 656 653
f 655 648 652
f 652 648 647
f 648 657 645
f 645 657 658
f 650 649 651
f 651 649 659
f 649 637 659
f 659 637 636
f 649 660 637
f 637 660 638
f 661 660 646
f 646 660 649
f 662 661 645
f 645 661 646
f 651 659 656
f 656 659 644
f 644 659 635
f 635 659 636
f 663 662 658
f 658 662 645
f 664 661 665
f 665 661 662
f 663 666 662
f 662 666 665
f 667 664 668
f 668 664 665
f 664 667 670
f 670 667 669
f 666 671 665
f 665 671 668
f 661 664 660
f 660 664 670
f 660 670 638
f 638 670 639
f 658 672 663
f 663 672 673
f 658 657 672
f 672 657 674
f 653 656 675
f 675 656 644
f 653 675 654
f 654 675 676
f 675 644 677
f 677 644 643
f 676 675 678
f 678 675 677
f 679 680 676
f 676 680 654
f 674 680 672
f 672 680 679
f 627 639 625
f 625 639 681
f 626 682 632
f 632 682 642
f 681 682 625
f 625 682 626
f 669 683 681
f 681 683 682
f 667 684 669
f 669 684 683
f 682 683 642
f 642 683 685
f 681 639 669
f 669 639 670
f 686 641 685
f 685 641 642
f 641 686 640
f 640 686 643
f 686 687 643
f 643 687 677
f 687 686 688
f 688 686 685
f 689 687 690
f 690 687 688
f 683 684 685
f 685 684 688
f 684 691 688
f 688 691 690
f 687 689 677
f 677 689 678
f 693 678 692
f 692 678 689
f 692 695 694
f 694 695 696
f 692 689 695
f 695 689 690
f 692 694 693
f 693 694 673
f 693 673 679
f 679 673 672
f 679 676 693
f 693 676 678
f 684 667 691
f 691 667 668
f 696 691 671
f 671 691 668
f 696 695 691
f 691 695 690
f 694 696 666
f 666 696 671
f 666 663 694
f 694 663 673
f 648 655 657
f 657 655 674
f 674 655 680
f 680 655 654
f 593 162 594
f 594 162 290
f 598 597 601
f 601 597 602
f 615 608 616
f 616 608 607
f 607 609 616
f 616 609 614
f 697 595 613
f 613 595 598
f 597 608 602
f 602 608 615
f 594 290 628
f 628 290 203
f 628 612 617
f 617 612 611
f 593 609 162
f 162 609 200
f 105 29 698
f 698 29 699
f 268 126 701
f 701 126 700
f 126 125 700
f 700 125 702
f 252 703 250
f 250 703 704
f 32 268 705
f 705 268 701
f 288 105 706
f 706 105 698
f 29 32 699
f 699 32 705
f 707 251 706
f 706 251 288
f 250 704 125
f 125 704 702
f 703 252 707
f 707 252 251
f 706 708 707
f 707 708 709
f 707 709 703
f 703 709 710
f 703 710 704
f 704 710 711
f 704 711 702
f 702 711 712
f 706 698 708
f 708 698 713
f 698 699 713
f 713 699 714
f 699 705 714
f 714 705 715
f 717 708 716
f 716 708 713
f 719 720 718
f 718 720 721
f 722 723 719
f 719 723 720
f 724 725 723
f 723 725 720
f 724 726 725
f 725 726 727
f 728 721 725
f 725 721 720
f 721 728 729
f 729 728 730
f 729 731 721
f 721 731 718
f 724 723 732
f 732 723 722
f 722 710 732
f 732 710 709
f 722 733 710
f 710 733 711
f 719 734 722
f 722 734 733
f 734 719 735
f 735 719 718
f 724 732 726
f 726 732 717
f 717 732 708
f 708 732 709
f 731 736 718
f 718 736 735
f 737 734 738
f 738 734 735
f 736 739 735
f 735 739 738
f 740 737 741
f 741 737 738
f 737 740 743
f 743 740 742
f 739 744 738
f 738 744 741
f 734 737 733
f 733 737 743
f 733 743 711
f 711 743 712
f 736 731 746
f 746 731 745
f 731 729 745
f 745 729 730
f 727 726 747
f 747 726 717
f 748 727 749
f 749 727 747
f 747 717 750
f 750 717 716
f 749 747 751
f 751 747 750
f 749 752 748
f 748 752 753
f 730 753 745
f 745 753 752
f 728 725 748
f 748 725 727
f 730 728 753
f 753 728 748
f 700 702 754
f 754 702 712
f 705 701 715
f 715 701 755
f 754 755 700
f 700 755 701
f 742 756 754
f 754 756 755
f 740 757 742
f 742 757 756
f 755 756 715
f 715 756 758
f 754 712 742
f 742 712 743
f 759 714 758
f 758 714 715
f 714 759 713
f 713 759 716
f 759 760 716
f 716 760 750
f 760 759 761
f 761 759 758
f 762 760 763
f 763 760 761
f 756 757 758
f 758 757 761
f 757 764 761
f 761 764 763
f 760 762 750
f 750 762 751
f 766 751 765
f 765 751 762
f 767 765 769
f 769 765 768
f 765 762 768
f 768 762 763
f 765 767 766
f 766 767 746
f 766 746 752
f 752 746 745
f 752 749 766
f 766 749 751
f 757 740 764
f 764 740 741
f 769 764 744
f 744 764 741
f 769 768 764
f 764 768 763
f 767 769 739
f 739 769 744
f 739 736 767
f 767 736 746
f 219 217 208
f 208 217 209
f 209 217 210
f 210 217 193
f 198 580 199
f 199 580 511
f 76 75 289
f 289 75 272
f 277 207 291
f 291 207 184
f 290 183 203
f 203 183 84
f 490 580 142
f 142 580 198
f 142 198 143
f 143 198 197
f 149 276 72
f 72 276 73
f 104 103 279
f 279 103 770
f 770 596 279
f 279 596 595
f 605 596 771
f 771 596 770
f 771 770 772
f 772 770 103
f 772 103 773
f 773 103 102
f 155 774 101
f 101 774 102
f 773 102 97
f 97 102 774
f 775 773 100
f 100 773 97
f 773 775 772
f 772 775 776
f 772 776 771
f 771 776 777
f 200 606 197
f 197 606 777
f 189 71 778
f 778 71 74
f 97 774 98
f 98 774 155
f 183 161 184
f 184 161 291
f 777 276 197
f 197 276 143
f 777 606 771
f 771 606 605
f 613 612 697
f 697 612 202
f 595 697 279
f 279 697 202
f 73 276 776
f 776 276 777
f 776 775 73
f 73 775 74
f 100 778 775
f 775 778 74
f 778 100 189
f 189 100 99
f 245 242 99
f 99 242 189
f 131 33 256
f 28 1 95
f 95 1 62
f 27 2 28
f 28 2 1
f 265 115 266
f 266 115 114
f 95 62 69
f 69 62 64
f 62 61 64
f 64 61 65
f 61 13 65
f 65 13 130
f 13 12 130
f 130 12 14
f 31 11 32
f 32 11 268
f 15 12 31
f 31 12 11
f 31 30 15
f 15 30 231
f 30 106 231
f 231 106 232
f 287 237 106
f 106 237 232
f 254 90 287
f 287 90 237
f 253 44 254
f 254 44 90
f 253 249 44
f 44 249 7
f 267 127 268
f 268 127 126
f 10 3 241
f 241 3 116
f 3 2 116
f 116 2 114
f 2 27 114
f 114 27 266
f 27 26 266
f 266 26 113
f 26 286 113
f 113 286 110
f 286 243 110
f 110 243 255
f 243 242 255
f 255 242 256
f 242 245 256
f 256 245 131
f 245 244 131
f 131 244 132
f 265 37 115
f 115 37 41
f 41 37 42
f 42 37 40
f 92 91 40
f 40 91 42
f 236 233 92
f 92 233 91
f 191 194 236
f 236 194 233
f 258 285 244
f 244 285 132
f 257 55 258
f 258 55 285
f 257 154 201
f 201 154 185
f 56 201 204
f 204 201 180
f 55 257 56
f 56 257 201
f 204 85 56
f 56 85 52
f 86 122 53
f 53 122 79
f 212 215 86
f 86 215 122
f 211 216 212
f 212 216 215
f 192 280 211
f 211 280 216
f 191 240 192
f 192 240 280
f 249 124 7
f 7 124 8
f 124 127 8
f 8 127 241
f 127 267 241
f 241 267 10
f 10 267 9
f 9 267 11
o hand_right
v 0.088814 0.070874 0.851179
v 0.078769 0.070560 0.847464
v 0.083901 0.060731 0.848058
v 0.094193 0.062170 0.850848
v 0.062932 0.057226 0.838712
v 0.059879 0.053828 0.827043
v 0.070430 0.042539 0.831904
v 0.070398 0.046925 0.841397
v 0.099544 0.056211 0.849232
v 0.088128 0.053580 0.848345
v 0.102248 0.055292 0.844619
v 0.114961 0.062316 0.843147
v 0.110242 0.060681 0.848840
v 0.122855 0.066142 0.845615
v 0.114318 0.069693 0.834301
v 0.126100 0.075345 0.843298
v 0.106765 0.098927 0.840373
v 0.099719 0.108510 0.847229
v 0.114304 0.107629 0.858689
v 0.119199 0.097024 0.850737
v 0.097739 0.117875 0.867435
v 0.107471 0.112103 0.863189
v 0.093572 0.114094 0.851122
v 0.085410 0.118787 0.855445
v 0.078309 0.083833 0.854162
v 0.068742 0.084826 0.849798
v 0.072978 0.080686 0.848182
v 0.081797 0.079686 0.852172
v 0.100700 0.046666 0.836558
v 0.101932 0.056503 0.828333
v 0.104697 0.056926 0.836130
v 0.098858 0.046849 0.841912
v 0.039863 0.088589 0.844836
v 0.033338 0.093299 0.833793
v 0.036231 0.089907 0.829853
v 0.041914 0.086774 0.840735
v 0.047743 0.072003 0.821962
v 0.043877 0.079784 0.816704
v 0.047288 0.080969 0.803245
v 0.053972 0.074680 0.806826
v 0.053448 0.062465 0.825214
v 0.057801 0.063968 0.811872
v 0.064351 0.054324 0.815968
v 0.074568 0.041696 0.823319
v 0.028648 0.103094 0.840852
v 0.032351 0.100684 0.850193
v 0.137086 0.051205 0.887762
v 0.133706 0.055055 0.890949
v 0.132893 0.056380 0.887722
v 0.136572 0.052554 0.885036
v 0.036333 0.121274 0.846375
v 0.042324 0.127941 0.841614
v 0.035767 0.128233 0.838337
v 0.030659 0.120818 0.841283
v 0.043836 0.121903 0.853066
v 0.051385 0.126834 0.846138
v 0.149536 0.053174 0.890521
v 0.145983 0.049953 0.888447
v 0.147119 0.052802 0.884535
v 0.150423 0.056873 0.886223
v 0.103961 0.063382 0.852791
v 0.097197 0.069850 0.855557
v 0.117730 0.065295 0.862679
v 0.110152 0.068352 0.859964
v 0.112902 0.064252 0.854664
v 0.119654 0.062948 0.856948
v 0.095433 0.085071 0.868819
v 0.086151 0.085869 0.861845
v 0.090706 0.081505 0.859517
v 0.101198 0.078949 0.866468
v 0.076714 0.093015 0.869851
v 0.086796 0.092130 0.875707
v 0.080149 0.096445 0.879328
v 0.073768 0.095451 0.875144
v 0.105704 0.089265 0.882749
v 0.110123 0.089590 0.884007
v 0.106728 0.090560 0.885448
v 0.102741 0.091132 0.884119
v 0.029944 0.129077 0.834283
v 0.025856 0.120191 0.835742
v 0.079656 0.125981 0.878038
v 0.068583 0.123953 0.880586
v 0.077706 0.123741 0.891273
v 0.088502 0.127035 0.885905
v 0.050519 0.129169 0.835235
v 0.043476 0.131637 0.832720
v 0.150252 0.058399 0.893969
v 0.150804 0.062008 0.889950
v 0.072084 0.062198 0.808555
v 0.081664 0.045735 0.817538
v 0.064637 0.074519 0.803740
v 0.059609 0.083248 0.800639
v 0.054124 0.088194 0.796346
v 0.110427 0.071952 0.865671
v 0.090512 0.076753 0.855710
v 0.074984 0.086935 0.856593
v 0.057330 0.101313 0.877900
v 0.049032 0.101178 0.871644
v 0.056703 0.094127 0.868387
v 0.062668 0.096169 0.874284
v 0.062669 0.116947 0.885074
v 0.063047 0.108606 0.885736
v 0.069422 0.109496 0.890605
v 0.070701 0.117641 0.892210
v 0.100472 0.042541 0.830129
v 0.098326 0.055175 0.821541
v 0.032108 0.111809 0.849002
v 0.028217 0.110912 0.842179
v 0.023821 0.112659 0.835017
v 0.054498 0.085475 0.846898
v 0.043287 0.085412 0.837950
v 0.045730 0.082309 0.836003
v 0.057116 0.084402 0.845235
v 0.066819 0.069851 0.844585
v 0.055359 0.068727 0.837084
v 0.072401 0.059415 0.846649
v 0.038813 0.085663 0.823367
v 0.029612 0.091653 0.822034
v 0.033773 0.087273 0.815388
v 0.025830 0.098625 0.827950
v 0.023592 0.105899 0.832742
v 0.037653 0.135968 0.828181
v 0.038987 0.084366 0.809318
v 0.076805 0.040525 0.843126
v 0.082687 0.035175 0.845261
v 0.086633 0.040886 0.848596
v 0.081898 0.046016 0.847329
v 0.130534 0.067335 0.850839
v 0.124824 0.062777 0.853741
v 0.117325 0.062508 0.848760
v 0.045245 0.090559 0.855001
v 0.038519 0.100644 0.859214
v 0.118276 0.069002 0.868268
v 0.149390 0.060155 0.881249
v 0.145978 0.055443 0.879551
v 0.137764 0.062447 0.863437
v 0.142137 0.067751 0.865037
v 0.124916 0.074451 0.874455
v 0.121423 0.069434 0.871446
v 0.123234 0.070076 0.873237
v 0.125823 0.074350 0.877632
v 0.098972 0.095542 0.887739
v 0.095623 0.095404 0.886745
v 0.128617 0.092332 0.863055
v 0.134220 0.085851 0.851468
v 0.123994 0.087149 0.843919
v 0.090149 0.089371 0.872067
v 0.097997 0.089146 0.878597
v 0.095223 0.091616 0.880506
v 0.112162 0.074200 0.869474
v 0.118682 0.073346 0.872312
v 0.115533 0.076906 0.873033
v 0.108736 0.078012 0.871168
v 0.059458 0.124236 0.870463
v 0.052817 0.116278 0.876325
v 0.141501 0.049346 0.887182
v 0.141845 0.051250 0.883857
v 0.081148 0.089992 0.865190
v 0.111108 0.088419 0.836111
v 0.071286 0.089856 0.859524
v 0.101798 0.112558 0.888955
v 0.095670 0.107665 0.893400
v 0.096498 0.104821 0.894845
v 0.101866 0.106820 0.894177
v 0.133111 0.068823 0.889894
v 0.130353 0.063784 0.888624
v 0.132178 0.061694 0.891125
v 0.135146 0.066311 0.893503
v 0.121392 0.065187 0.867284
v 0.123751 0.061908 0.862069
v 0.126179 0.061010 0.867337
v 0.124039 0.065354 0.871035
v 0.129254 0.061979 0.859066
v 0.131755 0.060193 0.864137
v 0.139064 0.071719 0.889763
v 0.146281 0.070376 0.887619
v 0.139100 0.078645 0.873507
v 0.132922 0.077609 0.878285
v 0.074884 0.121177 0.844088
v 0.066693 0.125165 0.850713
v 0.077111 0.123271 0.862217
v 0.088121 0.122854 0.874126
v 0.098577 0.120400 0.884479
v 0.108197 0.117360 0.877740
v 0.069885 0.125613 0.865950
v 0.125770 0.082109 0.871918
v 0.133599 0.084040 0.865962
v 0.128636 0.086314 0.869361
v 0.066383 0.092410 0.864648
v 0.140699 0.053281 0.879469
v 0.066357 0.104941 0.803511
v 0.063756 0.116102 0.810407
v 0.070439 0.112347 0.814804
v 0.073018 0.099301 0.807522
v 0.130859 0.057751 0.885184
v 0.134460 0.053628 0.881480
v 0.091148 0.097886 0.891052
v 0.095005 0.097863 0.891636
v 0.092983 0.100204 0.893165
v 0.089042 0.100362 0.894997
v 0.061252 0.126513 0.853206
v 0.080720 0.117600 0.899402
v 0.091448 0.120750 0.893661
v 0.058182 0.126799 0.840570
v 0.065460 0.123962 0.834541
v 0.058458 0.126412 0.828068
v 0.118102 0.106205 0.875515
v 0.081932 0.117079 0.840859
v 0.071131 0.119892 0.831209
v 0.063029 0.122635 0.823323
v 0.057232 0.125537 0.817984
v 0.052756 0.129252 0.823761
v 0.149224 0.065663 0.884853
v 0.147668 0.067034 0.893636
v 0.046874 0.133974 0.818644
v 0.051861 0.129032 0.812501
v 0.076880 0.114201 0.826694
v 0.082946 0.106023 0.821578
v 0.086981 0.111464 0.836276
v 0.093954 0.103270 0.831846
v 0.125982 0.105524 0.866990
v 0.141367 0.058142 0.907785
v 0.141835 0.065192 0.899263
v 0.136321 0.064018 0.897485
v 0.137102 0.058870 0.907018
v 0.140661 0.068534 0.894525
v 0.147098 0.063422 0.897695
v 0.098570 0.089926 0.826241
v 0.120412 0.077255 0.874556
v 0.085486 0.089565 0.814783
v 0.105017 0.072811 0.824311
v 0.093962 0.071097 0.816603
v 0.071930 0.087064 0.802938
v 0.080465 0.072953 0.807082
v 0.059244 0.097679 0.795970
v 0.065867 0.093753 0.800188
v 0.087339 0.057836 0.813011
v 0.133831 0.048227 0.896947
v 0.131619 0.053081 0.899603
v 0.060503 0.108561 0.798736
v 0.077950 0.051642 0.847171
v 0.058110 0.090196 0.857908
v 0.062287 0.088485 0.854366
v 0.044626 0.100958 0.867042
v 0.051770 0.092513 0.862401
v 0.138360 0.045288 0.896059
v 0.111474 0.091452 0.885520
v 0.109671 0.091543 0.884621
v 0.076361 0.036012 0.835765
v 0.081565 0.031467 0.838682
v 0.091362 0.031678 0.829799
v 0.085488 0.029451 0.833360
v 0.080379 0.034804 0.828138
v 0.086535 0.037351 0.823923
v 0.052605 0.086271 0.848705
v 0.050267 0.087891 0.851538
v 0.050835 0.123102 0.861487
v 0.045194 0.114962 0.867783
v 0.134409 0.065862 0.857378
v 0.134598 0.075086 0.850922
v 0.138063 0.072021 0.858190
v 0.141979 0.074702 0.867134
v 0.123409 0.078472 0.874613
v 0.128914 0.079501 0.873254
v 0.050489 0.076124 0.836884
v 0.061760 0.079323 0.844227
v 0.090177 0.049451 0.847317
v 0.093109 0.045459 0.847585
v 0.103024 0.083475 0.873392
v 0.121055 0.097586 0.882130
v 0.126917 0.096128 0.874872
v 0.110838 0.083020 0.877402
v 0.145729 0.046415 0.900116
v 0.141942 0.044715 0.897333
v 0.138305 0.079175 0.859906
v 0.088524 0.095215 0.884262
v 0.116404 0.101071 0.883388
v 0.116067 0.095582 0.886100
v 0.073813 0.114563 0.896192
v 0.057285 0.119133 0.805036
v 0.132736 0.060175 0.895000
v 0.132078 0.057324 0.902681
v 0.145082 0.056285 0.906475
v 0.147580 0.051821 0.902971
v 0.038947 0.112267 0.858914
v 0.065402 0.087218 0.852378
v 0.092524 0.045992 0.820246
v 0.096531 0.036979 0.828374
v 0.114980 0.083753 0.878271
v 0.095931 0.114046 0.892657
v 0.110249 0.110181 0.886255
v 0.109921 0.103437 0.893288
v 0.113417 0.096797 0.891208
v 0.111725 0.090895 0.888306
v 0.142653 0.053040 0.910980
v 0.145044 0.048461 0.907670
v 0.143023 0.043421 0.904406
v 0.139777 0.042256 0.901242
v 0.136340 0.043983 0.899155
v 0.138747 0.055076 0.912194
v 0.134973 0.055811 0.910996
v 0.131361 0.055796 0.905641
v 0.135280 0.052839 0.914895
v 0.137768 0.048362 0.916481
v 0.132822 0.036093 0.911670
v 0.137844 0.039072 0.910251
v 0.136746 0.039004 0.912816
v 0.132748 0.036708 0.914874
v 0.129176 0.035005 0.918276
v 0.128693 0.033864 0.914960
v 0.138679 0.043135 0.914106
v 0.133393 0.040467 0.917531
v 0.132372 0.044204 0.919308
v 0.128658 0.041460 0.922448
v 0.129573 0.038000 0.921128
v 0.136258 0.045682 0.917103
v 0.140735 0.044205 0.913059
v 0.125745 0.033866 0.918560
v 0.127275 0.034478 0.920472
v 0.127025 0.036997 0.922656
v 0.124000 0.036454 0.922556
v 0.136610 0.039871 0.904402
v 0.131170 0.036100 0.909620
v 0.126366 0.035225 0.913284
v 0.123718 0.035160 0.917055
v 0.127617 0.038128 0.908958
v 0.124511 0.037422 0.912540
v 0.122166 0.037845 0.915812
v 0.124740 0.041333 0.909443
v 0.122819 0.040163 0.912866
v 0.131657 0.045872 0.901598
v 0.134511 0.042771 0.901071
v 0.121304 0.039619 0.914891
v 0.122319 0.037597 0.921670
v 0.131926 0.047882 0.918897
v 0.126768 0.044043 0.921911
v 0.130240 0.049470 0.918129
v 0.125297 0.045869 0.921466
v 0.124340 0.041070 0.924191
v 0.126503 0.039801 0.923577
v 0.133018 0.047965 0.899134
v 0.130983 0.052989 0.902042
v 0.129826 0.051358 0.904186
v 0.123430 0.045717 0.911189
v 0.129767 0.054042 0.907800
v 0.131741 0.053649 0.913365
v 0.127398 0.049844 0.917100
v 0.124871 0.049224 0.914746
v 0.123803 0.046569 0.919465
v 0.122707 0.045951 0.917205
v 0.121721 0.043354 0.914450
v 0.121636 0.043243 0.920427
v 0.122920 0.042265 0.922936
v 0.121165 0.039660 0.919202
v 0.121360 0.043838 0.918574
v 0.121286 0.041213 0.917031
v 0.110726 0.063820 0.896795
v 0.107081 0.068431 0.899400
v 0.110096 0.070477 0.896927
v 0.113192 0.066557 0.894735
v 0.122083 0.061956 0.905100
v 0.118284 0.060305 0.900160
v 0.122462 0.063392 0.897875
v 0.126136 0.066619 0.903128
v 0.121995 0.067604 0.910058
v 0.125327 0.072444 0.907352
v 0.128615 0.070673 0.899014
v 0.124741 0.067111 0.894053
v 0.125488 0.079223 0.877430
v 0.129121 0.083646 0.880486
v 0.110395 0.086709 0.883857
v 0.110932 0.089087 0.886555
v 0.114042 0.061612 0.897460
v 0.117597 0.064250 0.895275
v 0.109348 0.079396 0.900642
v 0.108383 0.075487 0.896757
v 0.107978 0.074072 0.899653
v 0.109260 0.077229 0.904037
v 0.117306 0.078492 0.876767
v 0.114117 0.082897 0.880310
v 0.121086 0.077894 0.876446
v 0.114187 0.081718 0.904721
v 0.120859 0.081312 0.906538
v 0.122904 0.093260 0.890142
v 0.116803 0.092894 0.891215
v 0.119884 0.066336 0.891790
v 0.110492 0.070814 0.893746
v 0.114285 0.067620 0.891466
v 0.126896 0.076965 0.902955
v 0.118941 0.076755 0.910506
v 0.103191 0.066228 0.916775
v 0.110252 0.074218 0.911380
v 0.106747 0.074060 0.907427
v 0.099163 0.066895 0.913664
v 0.112986 0.078102 0.908238
v 0.115694 0.072150 0.912798
v 0.099620 0.056873 0.903707
v 0.096469 0.061929 0.906158
v 0.102971 0.053703 0.904274
v 0.128056 0.089327 0.884793
v 0.111319 0.054086 0.910647
v 0.106792 0.052662 0.906019
v 0.105408 0.072312 0.902733
v 0.096302 0.065376 0.909874
v 0.107125 0.063980 0.917792
v 0.112336 0.059375 0.915059
v 0.102750 0.060119 0.919639
v 0.106585 0.055394 0.917558
v 0.105945 0.050504 0.912990
v 0.102727 0.050192 0.908072
v 0.100021 0.052146 0.905820
v 0.099140 0.062480 0.918733
v 0.095627 0.063729 0.915628
v 0.094503 0.063268 0.910668
v 0.092471 0.059365 0.919074
v 0.094714 0.055806 0.920997
v 0.086704 0.041164 0.912902
v 0.092259 0.043502 0.913021
v 0.091753 0.044099 0.915554
v 0.086648 0.042012 0.915618
v 0.097782 0.045833 0.915024
v 0.095794 0.046158 0.916622
v 0.095861 0.049947 0.919409
v 0.090212 0.047571 0.918596
v 0.088827 0.052028 0.920085
v 0.083741 0.049459 0.920645
v 0.084949 0.044889 0.919451
v 0.093190 0.052578 0.920604
v 0.083142 0.041365 0.916310
v 0.081265 0.041054 0.914514
v 0.098951 0.050778 0.919713
v 0.099614 0.047600 0.909494
v 0.091394 0.043897 0.910027
v 0.084991 0.042210 0.910271
v 0.079389 0.042909 0.912924
v 0.088844 0.046296 0.907598
v 0.083185 0.044572 0.908900
v 0.078974 0.045315 0.911641
v 0.086135 0.050125 0.906576
v 0.081032 0.048252 0.908611
v 0.095664 0.054715 0.905233
v 0.097897 0.050509 0.905983
v 0.079295 0.047403 0.910433
v 0.079058 0.043362 0.918215
v 0.077211 0.044992 0.915885
v 0.080851 0.043483 0.918834
v 0.088008 0.054034 0.920094
v 0.082300 0.051031 0.919875
v 0.086371 0.056088 0.918893
v 0.080490 0.052268 0.918761
v 0.078770 0.047867 0.919782
v 0.080004 0.046745 0.920232
v 0.097672 0.055849 0.905435
v 0.095253 0.060634 0.907435
v 0.093545 0.059688 0.907081
v 0.084303 0.054656 0.908802
v 0.092516 0.062376 0.910920
v 0.091419 0.061332 0.916031
v 0.085352 0.057602 0.916643
v 0.083995 0.057260 0.912829
v 0.079571 0.053807 0.917463
v 0.080224 0.054573 0.914310
v 0.080064 0.051937 0.910217
v 0.076686 0.050153 0.917090
v 0.077529 0.048724 0.918816
v 0.077118 0.046623 0.914321
v 0.077595 0.051708 0.914681
v 0.077875 0.048967 0.912208
v 0.091881 0.075117 0.897776
v 0.088384 0.079377 0.899666
v 0.090868 0.081755 0.898374
v 0.094635 0.077699 0.896844
v 0.100286 0.072141 0.907177
v 0.098291 0.070842 0.902767
v 0.101705 0.073818 0.901594
v 0.104588 0.076041 0.905714
v 0.098165 0.074447 0.912021
v 0.103664 0.080029 0.910387
v 0.108083 0.080070 0.903739
v 0.104591 0.076902 0.899891
v 0.109760 0.087585 0.891223
v 0.112400 0.091173 0.895926
v 0.095189 0.072401 0.899477
v 0.098034 0.074938 0.898416
v 0.089401 0.088573 0.903416
v 0.089149 0.085589 0.899291
v 0.088915 0.085025 0.902311
v 0.089577 0.086619 0.906468
v 0.101360 0.089438 0.885766
v 0.097179 0.093384 0.887858
v 0.105222 0.087164 0.887620
v 0.093678 0.090002 0.908282
v 0.100592 0.089152 0.910579
v 0.101724 0.100301 0.900873
v 0.096145 0.100219 0.898228
v 0.100442 0.076806 0.896851
v 0.091505 0.082288 0.895650
v 0.095687 0.078600 0.894654
v 0.106258 0.085002 0.907639
v 0.098365 0.084142 0.913057
v 0.080134 0.070860 0.916659
v 0.090371 0.082987 0.912729
v 0.087048 0.083746 0.907808
v 0.077189 0.072422 0.913662
v 0.092608 0.086369 0.911363
v 0.094792 0.079604 0.914473
v 0.080002 0.065522 0.901935
v 0.077335 0.069774 0.904323
v 0.083931 0.063550 0.902799
v 0.109658 0.096713 0.899930
v 0.092987 0.097936 0.893365
v 0.087804 0.061575 0.909016
v 0.086131 0.062027 0.904965
v 0.086737 0.082636 0.903629
v 0.075969 0.072400 0.909143
v 0.084313 0.068380 0.917247
v 0.088281 0.064600 0.914261
v 0.079713 0.065174 0.918016
v 0.083485 0.061281 0.914961
v 0.083430 0.058131 0.909976
v 0.081971 0.058974 0.905844
v 0.080003 0.060796 0.903570
v 0.075701 0.067781 0.917188
v 0.073426 0.069247 0.914260
v 0.074611 0.070607 0.909322
v 0.071626 0.065668 0.917093
v 0.073794 0.060807 0.918462
v 0.066127 0.048582 0.909711
v 0.071169 0.051478 0.909484
v 0.070981 0.051685 0.910713
v 0.066108 0.048558 0.911453
v 0.077044 0.054261 0.911242
v 0.075330 0.053833 0.912189
v 0.075255 0.056075 0.915421
v 0.069522 0.053146 0.915604
v 0.067292 0.058428 0.917511
v 0.063180 0.055266 0.917293
v 0.064945 0.050128 0.915885
v 0.072740 0.059100 0.917672
v 0.063154 0.047601 0.912403
v 0.062741 0.046317 0.910977
v 0.077442 0.057161 0.915697
v 0.077669 0.055350 0.906476
v 0.070839 0.051899 0.906572
v 0.065631 0.048966 0.906515
v 0.061514 0.048315 0.908096
v 0.069150 0.054553 0.904363
v 0.064544 0.051663 0.905143
v 0.060870 0.050949 0.906614
v 0.067443 0.057386 0.903924
v 0.063373 0.054728 0.904999
v 0.075833 0.062591 0.903157
v 0.077045 0.058578 0.903900
v 0.060862 0.053262 0.906344
v 0.060123 0.048392 0.914470
v 0.057943 0.050801 0.911721
v 0.061706 0.049036 0.914814
v 0.066989 0.060272 0.917728
v 0.061324 0.056774 0.917452
v 0.065827 0.062542 0.916402
v 0.060239 0.058911 0.916048
v 0.059292 0.053031 0.916795
v 0.060420 0.052551 0.916780
v 0.078042 0.064346 0.903022
v 0.075818 0.068397 0.905161
v 0.073849 0.066648 0.905043
v 0.064993 0.060982 0.905717
v 0.072479 0.069039 0.908989
v 0.069771 0.067002 0.914097
v 0.064745 0.063551 0.913442
v 0.063970 0.063099 0.909731
v 0.059900 0.060064 0.913482
v 0.060835 0.060295 0.910759
v 0.061293 0.058000 0.906429
v 0.058172 0.056388 0.912565
v 0.058005 0.054874 0.915146
v 0.058072 0.053043 0.909441
v 0.058843 0.057481 0.910381
v 0.058925 0.054977 0.907989
v 0.094144 0.096046 0.890404
v 0.074581 0.086183 0.905752
v 0.072195 0.089562 0.907086
v 0.073092 0.089769 0.907512
v 0.075909 0.086972 0.905183
v 0.083670 0.084572 0.912696
v 0.080881 0.083053 0.909073
v 0.084441 0.084949 0.907860
v 0.086990 0.086672 0.911167
v 0.083445 0.088269 0.916417
v 0.085812 0.090434 0.915026
v 0.088487 0.090077 0.908657
v 0.086184 0.087911 0.905282
v 0.090890 0.101716 0.896012
v 0.092460 0.106385 0.898496
v 0.074283 0.111281 0.901265
v 0.074420 0.106584 0.896577
v 0.072381 0.103714 0.903095
v 0.073524 0.107077 0.906025
v 0.077689 0.083984 0.906718
v 0.080248 0.085243 0.905101
v 0.072764 0.096479 0.914392
v 0.071570 0.093724 0.910332
v 0.071587 0.092923 0.910015
v 0.071632 0.095555 0.914028
v 0.077702 0.102479 0.894507
v 0.083172 0.100598 0.894006
v 0.080377 0.099657 0.896296
v 0.074661 0.100043 0.900401
v 0.085203 0.099269 0.895719
v 0.076671 0.097466 0.916697
v 0.082778 0.096540 0.916855
v 0.082710 0.112301 0.907285
v 0.077625 0.110687 0.907085
v 0.081892 0.086601 0.904385
v 0.073403 0.090769 0.906718
v 0.076440 0.087791 0.905291
v 0.087754 0.093739 0.913077
v 0.080849 0.094067 0.917678
v 0.068442 0.090379 0.920004
v 0.073697 0.095280 0.917590
v 0.070507 0.095359 0.913744
v 0.066494 0.091149 0.917436
v 0.075067 0.095638 0.917089
v 0.078362 0.092225 0.918913
v 0.068898 0.083315 0.907712
v 0.066663 0.087674 0.910094
v 0.071344 0.080945 0.908280
v 0.089746 0.110751 0.902339
v 0.075818 0.079717 0.914357
v 0.073362 0.079218 0.910577
v 0.070593 0.092548 0.909844
v 0.065728 0.090352 0.913676
v 0.072024 0.087492 0.921271
v 0.076241 0.083292 0.919025
v 0.068466 0.084448 0.921779
v 0.072598 0.080385 0.919201
v 0.072000 0.077498 0.913758
v 0.070737 0.078526 0.910201
v 0.069046 0.080469 0.908209
v 0.065270 0.087806 0.920517
v 0.063947 0.089047 0.917985
v 0.064121 0.089119 0.914049
v 0.062031 0.085208 0.920762
v 0.063503 0.080601 0.921315
v 0.057251 0.072742 0.912184
v 0.061251 0.074130 0.912072
v 0.061221 0.074069 0.913311
v 0.057459 0.072155 0.913131
v 0.066372 0.075493 0.913660
v 0.065017 0.075288 0.914769
v 0.065745 0.077063 0.917903
v 0.060795 0.074854 0.917575
v 0.058208 0.078561 0.920576
v 0.054600 0.076336 0.919996
v 0.057290 0.073065 0.917673
v 0.062875 0.078855 0.920637
v 0.055088 0.070989 0.914170
v 0.053992 0.070703 0.913306
v 0.067697 0.077517 0.918387
v 0.066741 0.077115 0.909815
v 0.060212 0.074670 0.909771
v 0.055446 0.072757 0.910549
v 0.052172 0.072016 0.912536
v 0.059925 0.076895 0.908429
v 0.054426 0.074496 0.909317
v 0.051344 0.073923 0.911376
v 0.058807 0.080089 0.908128
v 0.053938 0.077112 0.909378
v 0.064641 0.083283 0.907924
v 0.065775 0.079816 0.908008
v 0.051703 0.075687 0.911158
v 0.052377 0.071564 0.916824
v 0.050513 0.073300 0.915172
v 0.053806 0.071639 0.917632
v 0.057716 0.079891 0.920878
v 0.053250 0.077356 0.920109
v 0.056726 0.082149 0.920235
v 0.052087 0.078850 0.918954
v 0.051419 0.074483 0.918873
v 0.053260 0.073969 0.919162
v 0.066508 0.083546 0.907947
v 0.065254 0.086827 0.910170
v 0.063127 0.086521 0.910526
v 0.057402 0.083291 0.910367
v 0.062036 0.088303 0.914616
v 0.061635 0.087454 0.918465
v 0.056085 0.083814 0.918071
v 0.056008 0.084564 0.914666
v 0.051436 0.079786 0.917029
v 0.051848 0.080725 0.914108
v 0.052773 0.079807 0.911021
v 0.050002 0.076512 0.915535
v 0.050088 0.075484 0.917163
v 0.050167 0.074939 0.913845
v 0.050357 0.077621 0.913922
v 0.050803 0.076836 0.912528
v 0.077140 0.112744 0.903328
v 0.106030 0.032582 0.840557
v 0.105132 0.036427 0.844873
v 0.092556 0.030276 0.853604
v 0.097885 0.034998 0.853600
v 0.090400 0.024575 0.850378
v 0.093909 0.020350 0.840973
v 0.090531 0.021965 0.845176
v 0.102365 0.037289 0.850280
v 0.104125 0.027922 0.837199
v 0.099076 0.022692 0.836824
v 0.111732 0.024030 0.841465
v 0.106159 0.017598 0.841697
v 0.101132 0.014702 0.845801
v 0.095793 0.018054 0.850234
v 0.094121 0.021283 0.853944
v 0.110438 0.030961 0.844936
v 0.108476 0.034710 0.848790
v 0.103795 0.035388 0.853715
v 0.114164 0.031029 0.851772
v 0.117083 0.023910 0.857748
v 0.110675 0.012393 0.872435
v 0.107150 0.013585 0.866557
v 0.109891 0.013919 0.865914
v 0.112944 0.012338 0.871151
v 0.107264 0.014139 0.860725
v 0.109297 0.015069 0.861658
v 0.112818 0.018166 0.859020
v 0.115373 0.016861 0.864177
v 0.116058 0.022169 0.859822
v 0.117818 0.022550 0.863779
v 0.118054 0.015717 0.869086
v 0.116355 0.012029 0.873319
v 0.120091 0.014847 0.873330
v 0.114793 0.012716 0.875961
v 0.114223 0.016399 0.856352
v 0.100910 0.015188 0.858206
v 0.103727 0.014750 0.866769
v 0.107866 0.014417 0.873765
v 0.112981 0.014980 0.877432
v 0.101404 0.018231 0.867963
v 0.106052 0.018367 0.873823
v 0.110991 0.019415 0.876820
v 0.101498 0.023086 0.868572
v 0.106497 0.022310 0.873332
v 0.096173 0.026234 0.858598
v 0.096314 0.019860 0.858174
v 0.110142 0.021732 0.875425
v 0.120299 0.015656 0.876032
v 0.118300 0.018282 0.877486
v 0.118363 0.025851 0.863045
v 0.120793 0.021333 0.868140
v 0.120553 0.024233 0.868747
v 0.116923 0.029564 0.862544
v 0.119428 0.026734 0.869528
v 0.121983 0.020855 0.873140
v 0.121679 0.018735 0.871299
v 0.094544 0.027151 0.856202
v 0.098327 0.032483 0.855732
v 0.099804 0.031789 0.857590
v 0.104616 0.028896 0.867202
v 0.105129 0.035000 0.856589
v 0.110742 0.034237 0.853969
v 0.114292 0.031950 0.863778
v 0.109701 0.032125 0.865355
v 0.116300 0.028213 0.870557
v 0.113262 0.028149 0.871125
v 0.109177 0.025883 0.872797
v 0.117045 0.024753 0.874480
v 0.120292 0.023341 0.874187
v 0.115121 0.021583 0.876858
v 0.114485 0.025533 0.873729
v 0.112565 0.023532 0.875188
v 0.072472 0.107883 0.892918
v 0.076315 0.102530 0.890464
v 0.071916 0.103822 0.888081
v 0.065057 0.102530 0.883840
v 0.056635 0.107306 0.880367
v 0.069386 0.098301 0.879917
v 0.076472 0.099777 0.884895
v 0.083483 0.098322 0.888728
v 0.067740 0.094648 0.870731
f 780 781 779
f 779 781 782
f 783 784 786
f 786 784 785
f 787 782 788
f 788 782 781
f 790 791 789
f 789 791 787
f 792 790 794
f 794 790 793
f 796 797 795
f 795 797 798
f 800 801 799
f 799 801 802
f 804 805 803
f 803 805 806
f 808 809 807
f 807 809 810
f 811 812 814
f 814 812 813
f 815 816 818
f 818 816 817
f 819 820 784
f 784 820 821
f 784 821 785
f 785 821 822
f 823 812 824
f 824 812 811
f 826 827 825
f 825 827 828
f 830 831 829
f 829 831 832
f 834 830 833
f 833 830 829
f 836 837 835
f 835 837 838
f 839 840 782
f 782 840 779
f 842 843 841
f 841 843 844
f 846 847 845
f 845 847 848
f 850 851 849
f 849 851 852
f 854 855 853
f 853 855 856
f 831 857 832
f 832 857 858
f 860 861 859
f 859 861 862
f 863 864 830
f 830 864 831
f 835 838 865
f 865 838 866
f 867 868 821
f 821 868 822
f 821 820 867
f 867 820 869
f 818 817 870
f 870 817 871
f 872 848 842
f 842 848 847
f 791 839 787
f 787 839 782
f 803 806 847
f 847 806 873
f 874 803 846
f 846 803 847
f 876 877 875
f 875 877 878
f 879 880 882
f 882 880 881
f 884 808 883
f 883 808 807
f 829 832 885
f 885 832 886
f 832 858 886
f 886 858 887
f 889 890 888
f 888 890 891
f 893 783 892
f 892 783 894
f 893 819 783
f 783 819 784
f 814 813 889
f 889 813 895
f 813 896 895
f 895 896 897
f 812 898 813
f 813 898 896
f 812 823 898
f 898 823 899
f 903 904 902
f 902 904 905
f 906 907 792
f 792 907 908
f 811 909 824
f 824 909 910
f 911 872 841
f 841 872 842
f 912 913 915
f 915 913 914
f 917 918 916
f 916 918 919
f 855 920 856
f 856 920 921
f 922 923 798
f 798 923 924
f 926 927 925
f 925 927 850
f 929 930 928
f 928 930 931
f 860 879 861
f 861 879 882
f 879 860 933
f 933 860 932
f 934 935 836
f 836 935 837
f 936 846 925
f 925 846 845
f 937 924 793
f 793 924 794
f 846 936 874
f 874 936 938
f 907 844 908
f 908 844 843
f 940 941 939
f 939 941 942
f 944 945 943
f 943 945 946
f 948 949 947
f 947 949 950
f 952 949 951
f 951 949 948
f 954 955 953
f 953 955 956
f 958 959 957
f 957 959 802
f 960 961 799
f 799 961 962
f 859 963 860
f 860 963 932
f 964 965 966
f 966 965 922
f 936 849 938
f 938 849 967
f 968 913 935
f 935 913 837
f 947 950 917
f 917 950 918
f 925 850 936
f 936 850 849
f 970 971 969
f 969 971 972
f 945 944 827
f 827 944 973
f 974 968 828
f 828 968 935
f 975 976 978
f 978 976 977
f 799 802 960
f 960 802 959
f 924 937 798
f 798 937 795
f 960 959 859
f 859 959 963
f 979 963 958
f 958 963 959
f 980 981 861
f 861 981 862
f 983 984 982
f 982 984 863
f 985 800 962
f 962 800 799
f 957 802 986
f 986 802 801
f 986 987 957
f 957 987 983
f 987 988 983
f 983 988 984
f 990 984 989
f 989 984 988
f 957 983 958
f 958 983 982
f 991 954 866
f 866 954 992
f 864 863 990
f 990 863 984
f 971 995 996
f 995 997 996
f 996 997 998
f 997 796 998
f 998 796 795
f 797 999 798
f 798 999 922
f 1000 1001 1003
f 1003 1001 1002
f 953 1004 954
f 954 1004 992
f 1005 865 992
f 992 865 866
f 998 795 1006
f 1006 795 937
f 912 991 838
f 838 991 866
f 916 1007 929
f 929 1007 930
f 971 970 988
f 988 970 989
f 1008 972 996
f 996 972 971
f 1009 1010 1006
f 1006 1010 1008
f 1011 1012 869
f 869 1012 867
f 1013 1014 871
f 871 1014 870
f 1008 1010 1012
f 1012 1010 1015
f 825 1016 826
f 826 1016 1017
f 1018 969 1013
f 1013 969 1014
f 783 786 894
f 894 786 1019
f 1020 1021 967
f 967 1021 938
f 1022 1023 876
f 876 1023 877
f 934 1024 825
f 825 1024 1016
f 854 1025 855
f 855 1025 1026
f 1028 903 1027
f 1027 903 902
f 1030 1031 1029
f 1029 1031 1032
f 889 888 814
f 814 888 1033
f 1034 811 1033
f 1033 811 814
f 1035 1036 932
f 932 1036 933
f 841 947 911
f 911 947 917
f 844 948 841
f 841 948 947
f 951 948 907
f 907 948 844
f 907 906 951
f 951 906 1037
f 906 1038 1037
f 1037 1038 1039
f 991 912 1040
f 1040 912 915
f 1041 1042 964
f 964 1042 965
f 890 1043 891
f 891 1043 1044
f 789 1045 1046
f 1012 1011 1008
f 1008 1011 972
f 931 1047 848
f 848 1047 845
f 953 956 943
f 943 956 919
f 928 931 872
f 872 931 848
f 1049 999 1048
f 1048 999 985
f 1047 931 1050
f 1050 931 930
f 899 823 887
f 887 823 886
f 825 828 934
f 934 828 935
f 835 1051 836
f 836 1051 1052
f 923 1053 1038
f 1038 1053 1039
f 1054 927 921
f 921 927 856
f 926 1047 853
f 853 1047 1050
f 985 1055 1048
f 1048 1055 1056
f 973 974 827
f 827 974 828
f 837 913 838
f 838 913 912
f 861 882 980
f 980 882 1057
f 927 926 856
f 856 926 853
f 1025 1056 1026
f 1026 1056 1055
f 961 960 862
f 862 960 859
f 826 1017 1059
f 1059 1017 1060
f 1005 1001 1061
f 1061 1001 1000
f 1001 1004 1002
f 1002 1004 946
f 1059 1060 1002
f 1002 1060 1003
f 943 946 953
f 953 946 1004
f 1042 1041 916
f 916 1041 1007
f 792 794 906
f 906 794 1038
f 998 1006 996
f 996 1006 1008
f 865 1005 1062
f 1062 1005 1061
f 1038 794 923
f 923 794 924
f 1022 876 1036
f 1036 876 933
f 836 1052 934
f 934 1052 1024
f 885 1063 829
f 829 1063 833
f 1021 1064 938
f 938 1064 874
f 1012 1015 867
f 867 1015 868
f 824 910 885
f 885 910 1063
f 1031 1030 1027
f 1027 1030 1028
f 1064 804 874
f 874 804 803
f 884 883 1065
f 1065 883 1066
f 1050 930 1067
f 1067 930 1007
f 916 929 917
f 917 929 911
f 961 1068 939
f 939 1068 940
f 1069 1070 1055
f 1055 1070 1071
f 929 928 911
f 911 928 872
f 1040 1053 955
f 955 1053 965
f 922 965 923
f 923 965 1053
f 1051 835 1062
f 1062 835 865
f 952 914 968
f 968 914 913
f 889 895 890
f 890 895 816
f 895 897 816
f 816 897 901
f 890 816 1043
f 1043 816 815
f 1065 1066 1032
f 1032 1066 1029
f 1006 937 1009
f 1009 937 793
f 1001 1005 1004
f 1004 1005 992
f 925 845 926
f 926 845 1047
f 1002 946 1059
f 1059 946 945
f 977 941 978
f 978 941 940
f 823 824 886
f 886 824 885
f 1059 945 826
f 826 945 827
f 939 942 1069
f 1069 942 1070
f 816 901 817
f 1071 1072 1055
f 1055 1072 1026
f 1062 1061 1074
f 1074 1061 1073
f 1062 1074 1051
f 1051 1074 1075
f 1052 1051 1076
f 1076 1051 1075
f 1024 1052 1077
f 1077 1052 1076
f 1061 1000 1073
f 1073 1000 1078
f 1000 1003 1078
f 1078 1003 1079
f 1079 1003 1080
f 1080 1003 1060
f 1081 1082 1078
f 1078 1082 1073
f 1084 1085 1083
f 1083 1085 1086
f 1087 1088 1086
f 1086 1088 1083
f 1086 1085 1090
f 1090 1085 1089
f 1091 1092 1090
f 1090 1092 1093
f 1089 1094 1090
f 1090 1094 1091
f 1095 1082 1089
f 1089 1082 1094
f 1093 1087 1090
f 1090 1087 1086
f 1096 1097 1099
f 1099 1097 1098
f 1097 1096 1087
f 1087 1096 1088
f 1089 1085 1095
f 1095 1085 1084
f 1084 1075 1095
f 1095 1075 1074
f 1084 1100 1075
f 1075 1100 1076
f 1083 1101 1084
f 1084 1101 1100
f 1101 1083 1102
f 1102 1083 1088
f 1082 1095 1073
f 1073 1095 1074
f 1096 1103 1088
f 1088 1103 1102
f 1101 1102 1104
f 1104 1102 1105
f 1102 1103 1105
f 1105 1103 1106
f 1104 1105 1107
f 1107 1105 1108
f 1107 1109 1104
f 1104 1109 1110
f 1111 1108 1106
f 1106 1108 1105
f 1101 1104 1100
f 1100 1104 1110
f 1100 1110 1076
f 1076 1110 1077
f 1103 1096 1112
f 1112 1096 1099
f 1091 1094 1113
f 1113 1094 1082
f 1113 1114 1091
f 1091 1114 1092
f 1082 1081 1113
f 1113 1081 1115
f 1114 1113 1116
f 1116 1113 1115
f 1114 1117 1092
f 1092 1117 1118
f 1024 1077 1016
f 1016 1077 1119
f 1017 1120 1060
f 1060 1120 1080
f 1120 1017 1119
f 1119 1017 1016
f 1119 1109 1120
f 1120 1109 1121
f 1109 1107 1121
f 1121 1107 1122
f 1120 1121 1080
f 1080 1121 1123
f 1119 1077 1109
f 1109 1077 1110
f 1124 1079 1123
f 1123 1079 1080
f 1124 1081 1079
f 1079 1081 1078
f 1125 1115 1124
f 1124 1115 1081
f 1125 1124 1126
f 1126 1124 1123
f 1127 1125 1128
f 1128 1125 1126
f 1121 1122 1123
f 1123 1122 1126
f 1122 1129 1126
f 1126 1129 1128
f 1115 1125 1116
f 1116 1125 1127
f 1131 1116 1130
f 1130 1116 1127
f 1130 1133 1132
f 1132 1133 1134
f 1130 1127 1133
f 1133 1127 1128
f 1130 1132 1131
f 1131 1132 1112
f 1131 1112 1117
f 1117 1112 1099
f 1117 1114 1131
f 1131 1114 1116
f 1107 1108 1122
f 1122 1108 1129
f 1134 1129 1111
f 1111 1129 1108
f 1134 1133 1129
f 1129 1133 1128
f 1132 1134 1106
f 1106 1134 1111
f 1106 1103 1132
f 1132 1103 1112
f 1087 1093 1097
f 1097 1093 1098
f 1098 1118 1099
f 1099 1118 1117
f 1098 1093 1118
f 1118 1093 1092
f 915 914 1039
f 1039 914 1037
f 918 944 919
f 919 944 943
f 950 949 973
f 973 949 974
f 949 952 974
f 974 952 968
f 956 955 1042
f 1042 955 965
f 950 973 918
f 918 973 944
f 915 1039 1040
f 1040 1039 1053
f 956 1042 919
f 919 1042 916
f 1040 955 991
f 991 955 954
f 914 952 1037
f 1037 952 951
f 1136 1137 1135
f 1135 1137 1138
f 1140 1141 1139
f 1139 1141 1142
f 1139 1142 1143
f 1143 1142 1144
f 1145 1146 1148
f 1148 1146 1147
f 854 1149 1025
f 1025 1149 1150
f 1151 1152 1140
f 1140 1152 1141
f 1154 1155 1153
f 1153 1155 1156
f 1067 1007 1158
f 1158 1007 1157
f 1159 1157 1041
f 1041 1157 1007
f 1161 1162 1160
f 1160 1162 1163
f 1164 1146 1152
f 1152 1146 1141
f 854 1067 1149
f 1149 1067 1158
f 1155 1154 1137
f 1137 1154 1165
f 1166 1164 1138
f 1138 1164 1152
f 1167 1161 1144
f 1144 1161 1168
f 1170 1171 1169
f 1169 1171 1172
f 1161 1160 1168
f 1168 1160 1173
f 1174 1143 1168
f 1168 1143 1144
f 1167 1144 1145
f 1145 1144 1142
f 1135 1175 1136
f 1136 1175 1176
f 1151 1177 1135
f 1135 1177 1175
f 1167 1145 1178
f 1178 1145 1148
f 1160 1163 1153
f 1153 1163 1150
f 1135 1138 1151
f 1151 1138 1152
f 1139 1179 1140
f 1140 1179 1180
f 1165 1166 1137
f 1137 1166 1138
f 1141 1146 1142
f 1142 1146 1145
f 1136 1176 1181
f 1181 1176 1182
f 1174 1170 1183
f 1183 1170 1169
f 1170 1173 1171
f 1171 1173 1156
f 1171 1181 1172
f 1172 1181 1182
f 1153 1156 1160
f 1160 1156 1173
f 1143 1174 1184
f 1184 1174 1183
f 1140 1180 1151
f 1151 1180 1177
f 1049 1048 1178
f 1178 1048 1162
f 1179 1139 1184
f 1184 1139 1143
f 1159 1147 1164
f 1164 1147 1146
f 1170 1174 1173
f 1173 1174 1168
f 1171 1156 1181
f 1181 1156 1155
f 1181 1155 1136
f 1136 1155 1137
f 1184 1183 1186
f 1186 1183 1185
f 1184 1186 1179
f 1179 1186 1187
f 1179 1187 1180
f 1180 1187 1188
f 1180 1188 1177
f 1177 1188 1189
f 1183 1169 1185
f 1185 1169 1190
f 1169 1172 1190
f 1190 1172 1191
f 1172 1182 1191
f 1191 1182 1192
f 1193 1194 1190
f 1190 1194 1185
f 1196 1197 1195
f 1195 1197 1198
f 1199 1200 1196
f 1196 1200 1197
f 1197 1200 1202
f 1202 1200 1201
f 1203 1204 1202
f 1202 1204 1205
f 1201 1206 1202
f 1202 1206 1203
f 1205 1198 1202
f 1202 1198 1197
f 1198 1207 1195
f 1195 1207 1208
f 1201 1200 1209
f 1209 1200 1199
f 1199 1187 1209
f 1209 1187 1186
f 1199 1210 1187
f 1187 1210 1188
f 1196 1211 1199
f 1199 1211 1210
f 1212 1211 1195
f 1195 1211 1196
f 1209 1194 1201
f 1201 1194 1206
f 1194 1209 1185
f 1185 1209 1186
f 1213 1212 1208
f 1208 1212 1195
f 1211 1212 1214
f 1214 1212 1215
f 1212 1213 1215
f 1215 1213 1216
f 1214 1215 1217
f 1217 1215 1218
f 1217 1219 1214
f 1214 1219 1220
f 1216 1221 1215
f 1215 1221 1218
f 1214 1220 1211
f 1211 1220 1210
f 1210 1220 1188
f 1188 1220 1189
f 1213 1208 1223
f 1223 1208 1222
f 1208 1207 1222
f 1222 1207 1224
f 1203 1206 1225
f 1225 1206 1194
f 1204 1203 1226
f 1226 1203 1225
f 1194 1193 1225
f 1225 1193 1227
f 1225 1227 1226
f 1226 1227 1228
f 1229 1230 1226
f 1226 1230 1204
f 1224 1230 1222
f 1222 1230 1229
f 1177 1189 1175
f 1175 1189 1231
f 1176 1232 1182
f 1182 1232 1192
f 1232 1176 1231
f 1231 1176 1175
f 1231 1219 1232
f 1232 1219 1233
f 1219 1217 1233
f 1233 1217 1234
f 1232 1233 1192
f 1192 1233 1235
f 1219 1231 1220
f 1220 1231 1189
f 1236 1191 1235
f 1235 1191 1192
f 1236 1193 1191
f 1191 1193 1190
f 1236 1237 1193
f 1193 1237 1227
f 1237 1236 1238
f 1238 1236 1235
f 1239 1237 1240
f 1240 1237 1238
f 1233 1234 1235
f 1235 1234 1238
f 1234 1241 1238
f 1238 1241 1240
f 1237 1239 1227
f 1227 1239 1228
f 1243 1228 1242
f 1242 1228 1239
f 1242 1245 1244
f 1244 1245 1246
f 1242 1239 1245
f 1245 1239 1240
f 1242 1244 1243
f 1243 1244 1223
f 1243 1223 1229
f 1229 1223 1222
f 1229 1226 1243
f 1243 1226 1228
f 1217 1218 1234
f 1234 1218 1241
f 1246 1241 1221
f 1221 1241 1218
f 1246 1245 1241
f 1241 1245 1240
f 1244 1246 1216
f 1216 1246 1221
f 1216 1213 1244
f 1244 1213 1223
f 1198 1205 1207
f 1207 1205 1224
f 1224 1205 1230
f 1230 1205 1204
f 1148 1147 966
f 966 1147 964
f 1149 1154 1150
f 1150 1154 1153
f 1158 1157 1165
f 1165 1157 1166
f 1157 1159 1166
f 1166 1159 1164
f 1163 1162 1056
f 1056 1162 1048
f 1158 1165 1149
f 1149 1165 1154
f 1178 1148 1049
f 1049 1148 966
f 1163 1056 1150
f 1150 1056 1025
f 1178 1162 1167
f 1167 1162 1161
f 1147 1159 964
f 964 1159 1041
f 999 1049 922
f 922 1049 966
f 999 797 985
f 985 797 800
f 797 796 800
f 800 796 801
f 796 997 801
f 801 997 986
f 1247 1248 1250
f 1250 1248 1249
f 1252 1253 1251
f 1251 1253 1254
f 1251 1254 1255
f 1255 1254 1256
f 1258 1259 1257
f 1257 1259 1260
f 1261 1262 1252
f 1252 1262 1253
f 1264 1265 1263
f 1263 1265 1266
f 1267 1268 855
f 855 1268 920
f 1269 1267 1026
f 1026 1267 855
f 1271 1272 1270
f 1270 1272 1273
f 1274 1258 1262
f 1262 1258 1253
f 1264 1275 1265
f 1265 1275 1249
f 1276 1274 1250
f 1250 1274 1262
f 1277 1271 1256
f 1256 1271 1278
f 1279 1280 1282
f 1282 1280 1281
f 1271 1270 1278
f 1278 1270 1283
f 1284 1255 1278
f 1278 1255 1256
f 1277 1256 1257
f 1257 1256 1254
f 1247 1285 1248
f 1248 1285 1286
f 1261 1287 1247
f 1247 1287 1285
f 1257 1260 1277
f 1277 1260 1288
f 1270 1273 1263
f 1263 1273 1289
f 1261 1247 1262
f 1262 1247 1250
f 1251 1290 1252
f 1252 1290 1291
f 1275 1276 1249
f 1249 1276 1250
f 1253 1258 1254
f 1254 1258 1257
f 1248 1286 1292
f 1292 1286 1293
f 1284 1280 1294
f 1294 1280 1279
f 1281 1280 1266
f 1266 1280 1283
f 1292 1293 1281
f 1281 1293 1282
f 1263 1266 1270
f 1270 1266 1283
f 1255 1284 1295
f 1295 1284 1294
f 1252 1291 1261
f 1261 1291 1287
f 1288 1070 1272
f 1272 1070 942
f 1290 1251 1295
f 1295 1251 1255
f 1269 1259 1274
f 1274 1259 1258
f 1280 1284 1283
f 1283 1284 1278
f 1281 1266 1292
f 1292 1266 1265
f 1292 1265 1248
f 1248 1265 1249
f 1295 1294 1297
f 1297 1294 1296
f 1295 1297 1290
f 1290 1297 1298
f 1290 1298 1291
f 1291 1298 1299
f 1291 1299 1287
f 1287 1299 1300
f 1294 1279 1296
f 1296 1279 1301
f 1279 1282 1301
f 1301 1282 1302
f 1302 1282 1303
f 1303 1282 1293
f 1304 1305 1301
f 1301 1305 1296
f 1307 1308 1306
f 1306 1308 1309
f 1310 1311 1307
f 1307 1311 1308
f 1308 1311 1313
f 1313 1311 1312
f 1314 1315 1313
f 1313 1315 1316
f 1312 1317 1313
f 1313 1317 1314
f 1316 1309 1313
f 1313 1309 1308
f 1318 1319 1309
f 1309 1319 1306
f 1311 1310 1312
f 1312 1310 1320
f 1310 1298 1320
f 1320 1298 1297
f 1310 1321 1298
f 1298 1321 1299
f 1307 1322 1310
f 1310 1322 1321
f 1322 1307 1323
f 1323 1307 1306
f 1312 1320 1317
f 1317 1320 1305
f 1305 1320 1296
f 1296 1320 1297
f 1319 1324 1306
f 1306 1324 1323
f 1325 1322 1326
f 1326 1322 1323
f 1324 1327 1323
f 1323 1327 1326
f 1328 1325 1329
f 1329 1325 1326
f 1325 1328 1331
f 1331 1328 1330
f 1327 1332 1326
f 1326 1332 1329
f 1322 1325 1321
f 1321 1325 1331
f 1321 1331 1299
f 1299 1331 1300
f 1324 1319 1334
f 1334 1319 1333
f 1319 1318 1333
f 1333 1318 1335
f 1314 1317 1336
f 1336 1317 1305
f 1315 1314 1337
f 1337 1314 1336
f 1305 1304 1336
f 1336 1304 1338
f 1337 1336 1339
f 1339 1336 1338
f 1337 1340 1315
f 1315 1340 1341
f 1335 1341 1333
f 1333 1341 1340
f 1287 1300 1285
f 1285 1300 1342
f 1286 1343 1293
f 1293 1343 1303
f 1343 1286 1342
f 1342 1286 1285
f 1342 1330 1343
f 1343 1330 1344
f 1330 1328 1344
f 1344 1328 1345
f 1343 1344 1303
f 1303 1344 1346
f 1342 1300 1330
f 1330 1300 1331
f 1347 1302 1346
f 1346 1302 1303
f 1347 1304 1302
f 1302 1304 1301
f 1348 1338 1347
f 1347 1338 1304
f 1348 1347 1349
f 1349 1347 1346
f 1350 1348 1351
f 1351 1348 1349
f 1344 1345 1346
f 1346 1345 1349
f 1345 1352 1349
f 1349 1352 1351
f 1348 1350 1338
f 1338 1350 1339
f 1354 1339 1353
f 1353 1339 1350
f 1353 1356 1355
f 1355 1356 1357
f 1353 1350 1356
f 1356 1350 1351
f 1353 1355 1354
f 1354 1355 1334
f 1354 1334 1340
f 1340 1334 1333
f 1340 1337 1354
f 1354 1337 1339
f 1328 1329 1345
f 1345 1329 1352
f 1357 1352 1332
f 1332 1352 1329
f 1357 1356 1352
f 1352 1356 1351
f 1357 1332 1355
f 1355 1332 1327
f 1327 1324 1355
f 1355 1324 1334
f 1309 1316 1318
f 1318 1316 1335
f 1335 1316 1341
f 1341 1316 1315
f 1259 1072 1260
f 1260 1072 1071
f 1358 1264 1289
f 1289 1264 1263
f 1268 1267 1275
f 1275 1267 1276
f 1267 1269 1276
f 1276 1269 1274
f 941 1273 942
f 942 1273 1272
f 1358 1268 1264
f 1264 1268 1275
f 1260 1071 1288
f 1288 1071 1070
f 1273 941 1289
f 1289 941 977
f 1272 1271 1288
f 1288 1271 1277
f 1259 1269 1072
f 1072 1269 1026
f 1360 1361 1359
f 1359 1361 1362
f 1364 1365 1363
f 1363 1365 1366
f 1363 1366 1367
f 1367 1366 1368
f 1370 1371 1369
f 1369 1371 1372
f 1373 1374 1376
f 1376 1374 1375
f 1377 1378 1364
f 1364 1378 1365
f 1379 1380 1382
f 1382 1380 1381
f 1383 1384 1386
f 1386 1384 1385
f 1387 1385 978
f 978 1385 1384
f 1388 1389 1391
f 1391 1389 1390
f 1378 1392 1365
f 1365 1392 1370
f 1374 1383 1375
f 1375 1383 1386
f 1380 1393 1381
f 1381 1393 1361
f 1394 1392 1362
f 1362 1392 1378
f 1389 1396 1395
f 1395 1396 1368
f 1398 1399 1397
f 1397 1399 1400
f 1388 1401 1389
f 1389 1401 1396
f 1402 1367 1396
f 1396 1367 1368
f 1395 1368 1369
f 1369 1368 1366
f 1359 1403 1360
f 1360 1403 1404
f 1377 1405 1359
f 1359 1405 1403
f 1369 1372 1395
f 1395 1372 1406
f 1379 1388 1376
f 1376 1388 1391
f 1359 1362 1377
f 1377 1362 1378
f 1363 1407 1364
f 1364 1407 1408
f 1393 1394 1361
f 1361 1394 1362
f 1365 1370 1366
f 1366 1370 1369
f 1360 1404 1409
f 1409 1404 1410
f 1402 1398 1411
f 1411 1398 1397
f 1399 1398 1382
f 1382 1398 1401
f 1409 1410 1399
f 1399 1410 1400
f 1388 1379 1401
f 1401 1379 1382
f 1367 1402 1412
f 1412 1402 1411
f 1364 1408 1377
f 1377 1408 1405
f 981 980 1406
f 1406 980 1390
f 1407 1363 1412
f 1412 1363 1367
f 1387 1371 1392
f 1392 1371 1370
f 1398 1402 1401
f 1401 1402 1396
f 1409 1399 1381
f 1381 1399 1382
f 1360 1409 1361
f 1361 1409 1381
f 1412 1411 1414
f 1414 1411 1413
f 1412 1414 1407
f 1407 1414 1415
f 1407 1415 1408
f 1408 1415 1416
f 1408 1416 1405
f 1405 1416 1417
f 1411 1397 1413
f 1413 1397 1418
f 1397 1400 1418
f 1418 1400 1419
f 1419 1400 1420
f 1420 1400 1410
f 1422 1413 1421
f 1421 1413 1418
f 1423 1424 1426
f 1426 1424 1425
f 1427 1428 1424
f 1424 1428 1425
f 1425 1428 1430
f 1430 1428 1429
f 1430 1431 1433
f 1433 1431 1432
f 1429 1434 1430
f 1430 1434 1431
f 1433 1426 1430
f 1430 1426 1425
f 1426 1435 1423
f 1423 1435 1436
f 1428 1427 1429
f 1429 1427 1437
f 1427 1415 1437
f 1437 1415 1414
f 1427 1438 1415
f 1415 1438 1416
f 1439 1438 1424
f 1424 1438 1427
f 1440 1439 1423
f 1423 1439 1424
f 1429 1437 1434
f 1434 1437 1422
f 1422 1437 1413
f 1413 1437 1414
f 1441 1440 1436
f 1436 1440 1423
f 1442 1439 1443
f 1443 1439 1440
f 1441 1444 1440
f 1440 1444 1443
f 1445 1442 1446
f 1446 1442 1443
f 1442 1445 1448
f 1448 1445 1447
f 1444 1449 1443
f 1443 1449 1446
f 1439 1442 1438
f 1438 1442 1448
f 1438 1448 1416
f 1416 1448 1417
f 1436 1450 1441
f 1441 1450 1451
f 1436 1435 1450
f 1450 1435 1452
f 1431 1434 1453
f 1453 1434 1422
f 1431 1453 1432
f 1432 1453 1454
f 1453 1422 1455
f 1455 1422 1421
f 1454 1453 1456
f 1456 1453 1455
f 1457 1458 1454
f 1454 1458 1432
f 1452 1458 1450
f 1450 1458 1457
f 1405 1417 1403
f 1403 1417 1459
f 1404 1460 1410
f 1410 1460 1420
f 1459 1460 1403
f 1403 1460 1404
f 1447 1461 1459
f 1459 1461 1460
f 1445 1462 1447
f 1447 1462 1461
f 1460 1461 1420
f 1420 1461 1463
f 1459 1417 1447
f 1447 1417 1448
f 1464 1419 1463
f 1463 1419 1420
f 1419 1464 1418
f 1418 1464 1421
f 1464 1465 1421
f 1421 1465 1455
f 1465 1464 1466
f 1466 1464 1463
f 1467 1465 1468
f 1468 1465 1466
f 1461 1462 1463
f 1463 1462 1466
f 1462 1469 1466
f 1466 1469 1468
f 1465 1467 1455
f 1455 1467 1456
f 1471 1456 1470
f 1470 1456 1467
f 1470 1473 1472
f 1472 1473 1474
f 1470 1467 1473
f 1473 1467 1468
f 1470 1472 1471
f 1471 1472 1451
f 1471 1451 1457
f 1457 1451 1450
f 1457 1454 1471
f 1471 1454 1456
f 1462 1445 1469
f 1469 1445 1446
f 1474 1469 1449
f 1449 1469 1446
f 1474 1473 1469
f 1469 1473 1468
f 1472 1474 1444
f 1444 1474 1449
f 1444 1441 1472
f 1472 1441 1451
f 1426 1433 1435
f 1435 1433 1452
f 1452 1433 1458
f 1458 1433 1432
f 1371 940 1372
f 1372 940 1068
f 1376 1375 1379
f 1379 1375 1380
f 1393 1386 1394
f 1394 1386 1385
f 1385 1387 1394
f 1394 1387 1392
f 1475 1373 1391
f 1391 1373 1376
f 1375 1386 1380
f 1380 1386 1393
f 1372 1068 1406
f 1406 1068 981
f 1406 1390 1395
f 1395 1390 1389
f 1371 1387 940
f 940 1387 978
f 883 807 1476
f 1476 807 1477
f 1046 904 1479
f 1479 904 1478
f 904 903 1478
f 1478 903 1480
f 1030 1481 1028
f 1028 1481 1482
f 810 1046 1483
f 1483 1046 1479
f 1066 883 1484
f 1484 883 1476
f 807 810 1477
f 1477 810 1483
f 1485 1029 1484
f 1484 1029 1066
f 1028 1482 903
f 903 1482 1480
f 1481 1030 1485
f 1485 1030 1029
f 1484 1486 1485
f 1485 1486 1487
f 1485 1487 1481
f 1481 1487 1488
f 1481 1488 1482
f 1482 1488 1489
f 1482 1489 1480
f 1480 1489 1490
f 1484 1476 1486
f 1486 1476 1491
f 1476 1477 1491
f 1491 1477 1492
f 1477 1483 1492
f 1492 1483 1493
f 1495 1486 1494
f 1494 1486 1491
f 1497 1498 1496
f 1496 1498 1499
f 1500 1501 1497
f 1497 1501 1498
f 1502 1503 1501
f 1501 1503 1498
f 1502 1504 1503
f 1503 1504 1505
f 1506 1499 1503
f 1503 1499 1498
f 1499 1506 1507
f 1507 1506 1508
f 1507 1509 1499
f 1499 1509 1496
f 1502 1501 1510
f 1510 1501 1500
f 1500 1488 1510
f 1510 1488 1487
f 1500 1511 1488
f 1488 1511 1489
f 1497 1512 1500
f 1500 1512 1511
f 1512 1497 1513
f 1513 1497 1496
f 1502 1510 1504
f 1504 1510 1495
f 1495 1510 1486
f 1486 1510 1487
f 1509 1514 1496
f 1496 1514 1513
f 1515 1512 1516
f 1516 1512 1513
f 1514 1517 1513
f 1513 1517 1516
f 1518 1515 1519
f 1519 1515 1516
f 1515 1518 1521
f 1521 1518 1520
f 1517 1522 1516
f 1516 1522 1519
f 1512 1515 1511
f 1511 1515 1521
f 1511 1521 1489
f 1489 1521 1490
f 1514 1509 1524
f 1524 1509 1523
f 1509 1507 1523
f 1523 1507 1508
f 1505 1504 1525
f 1525 1504 1495
f 1526 1505 1527
f 1527 1505 1525
f 1525 1495 1528
f 1528 1495 1494
f 1527 1525 1529
f 1529 1525 1528
f 1527 1530 1526
f 1526 1530 1531
f 1508 1531 1523
f 1523 1531 1530
f 1506 1503 1526
f 1526 1503 1505
f 1508 1506 1531
f 1531 1506 1526
f 1478 1480 1532
f 1532 1480 1490
f 1483 1479 1493
f 1493 1479 1533
f 1532 1533 1478
f 1478 1533 1479
f 1520 1534 1532
f 1532 1534 1533
f 1518 1535 1520
f 1520 1535 1534
f 1533 1534 1493
f 1493 1534 1536
f 1532 1490 1520
f 1520 1490 1521
f 1537 1492 1536
f 1536 1492 1493
f 1492 1537 1491
f 1491 1537 1494
f 1537 1538 1494
f 1494 1538 1528
f 1538 1537 1539
f 1539 1537 1536
f 1540 1538 1541
f 1541 1538 1539
f 1534 1535 1536
f 1536 1535 1539
f 1535 1542 1539
f 1539 1542 1541
f 1538 1540 1528
f 1528 1540 1529
f 1544 1529 1543
f 1543 1529 1540
f 1545 1543 1547
f 1547 1543 1546
f 1543 1540 1546
f 1546 1540 1541
f 1543 1545 1544
f 1544 1545 1524
f 1544 1524 1530
f 1530 1524 1523
f 1530 1527 1544
f 1544 1527 1529
f 1535 1518 1542
f 1542 1518 1519
f 1547 1542 1522
f 1522 1542 1519
f 1547 1546 1542
f 1542 1546 1541
f 1545 1547 1517
f 1517 1547 1522
f 1517 1514 1545
f 1545 1514 1524
f 997 995 986
f 986 995 987
f 987 995 988
f 988 995 971
f 976 1358 977
f 977 1358 1289
f 854 853 1067
f 1067 853 1050
f 1055 985 1069
f 1069 985 962
f 1068 961 981
f 981 961 862
f 1268 1358 920
f 920 1358 976
f 920 976 921
f 921 976 975
f 927 1054 850
f 850 1054 851
f 882 881 1057
f 1057 881 1548
f 1548 1374 1057
f 1057 1374 1373
f 1383 1374 1549
f 1549 1374 1548
f 1549 1548 1550
f 1550 1548 881
f 1550 881 1551
f 1551 881 880
f 933 1552 879
f 879 1552 880
f 1551 880 875
f 875 880 1552
f 1553 1551 878
f 878 1551 875
f 1551 1553 1550
f 1550 1553 1554
f 1550 1554 1549
f 1549 1554 1555
f 978 1384 975
f 975 1384 1555
f 967 849 1556
f 1556 849 852
f 875 1552 876
f 876 1552 933
f 961 939 962
f 962 939 1069
f 1555 1054 975
f 975 1054 921
f 1555 1384 1549
f 1549 1384 1383
f 1391 1390 1475
f 1475 1390 980
f 1373 1475 1057
f 1057 1475 980
f 851 1054 1554
f 1554 1054 1555
f 1554 1553 851
f 851 1553 852
f 878 1556 1553
f 1553 1556 852
f 1556 878 967
f 967 878 877
f 1023 1020 877
f 877 1020 967
f 909 811 1034
f 806 779 873
f 873 779 840
f 805 780 806
f 806 780 779
f 1043 893 1044
f 1044 893 892
f 873 840 847
f 847 840 842
f 840 839 842
f 842 839 843
f 839 791 843
f 843 791 908
f 791 790 908
f 908 790 792
f 809 789 810
f 810 789 1046
f 793 790 809
f 809 790 789
f 809 808 793
f 793 808 1009
f 808 884 1009
f 1009 884 1010
f 1065 1015 884
f 884 1015 1010
f 1032 868 1065
f 1065 868 1015
f 1031 822 1032
f 1032 822 868
f 1031 1027 822
f 822 1027 785
f 1045 905 1046
f 1046 905 904
f 788 781 1019
f 1019 781 894
f 781 780 894
f 894 780 892
f 780 805 892
f 892 805 1044
f 805 804 1044
f 1044 804 891
f 804 1064 891
f 891 1064 888
f 1064 1021 888
f 888 1021 1033
f 1021 1020 1033
f 1033 1020 1034
f 1020 1023 1034
f 1034 1023 909
f 1023 1022 909
f 909 1022 910
f 1043 815 893
f 893 815 819
f 819 815 820
f 820 815 818
f 870 869 818
f 818 869 820
f 1014 1011 870
f 870 1011 869
f 969 972 1014
f 1014 972 1011
f 1036 1063 1022
f 1022 1063 910
f 1035 833 1036
f 1036 833 1063
f 1035 932 979
f 979 932 963
f 834 979 982
f 982 979 958
f 833 1035 834
f 834 1035 979
f 982 863 834
f 834 863 830
f 864 900 831
f 831 900 857
f 990 993 864
f 864 993 900
f 989 994 990
f 990 994 993
f 970 1058 989
f 989 1058 994
f 969 1018 970
f 970 1018 1058
f 1027 902 785
f 785 902 786
f 902 905 786
f 786 905 1019
f 905 1045 1019
f 1019 1045 788
f 788 1045 787
f 787 1045 789
