o hand_left
v -0.089614 -0.072383 0.954610
v -0.099962 -0.076242 0.952494
v -0.094955 -0.067753 0.955343
v -0.086290 -0.064021 0.956006
v -0.115442 -0.065242 0.956270
v -0.122825 -0.058094 0.949222
v -0.109669 -0.048628 0.954735
v -0.105821 -0.056708 0.960366
v -0.081525 -0.057925 0.955216
v -0.090225 -0.061107 0.957412
v -0.078350 -0.056364 0.950105
v -0.069128 -0.054157 0.945050
v -0.072827 -0.055113 0.952185
v -0.061366 -0.053384 0.945313
v -0.070708 -0.058078 0.934609
v -0.056885 -0.059365 0.939339
v -0.068746 -0.085268 0.932468
v -0.070057 -0.097957 0.936706
v -0.055777 -0.094082 0.944704
v -0.055946 -0.081174 0.940385
v -0.065397 -0.111358 0.951595
v -0.059171 -0.101873 0.948154
v -0.072734 -0.106230 0.939230
v -0.077525 -0.114589 0.942924
v -0.094159 -0.087045 0.955458
v -0.104412 -0.090861 0.952426
v -0.103030 -0.085888 0.951128
v -0.093191 -0.081983 0.954181
v -0.080194 -0.049019 0.945562
v -0.083753 -0.051881 0.935843
v -0.078591 -0.054249 0.941466
v -0.079605 -0.051593 0.950596
v -0.129872 -0.103993 0.952394
v -0.137602 -0.107812 0.941922
v -0.137392 -0.102595 0.939073
v -0.130186 -0.100407 0.948987
v -0.135623 -0.078055 0.938291
v -0.138293 -0.086272 0.930262
v -0.138606 -0.082519 0.916888
v -0.133353 -0.074402 0.921961
v -0.130260 -0.067273 0.945018
v -0.130329 -0.063514 0.931167
v -0.122523 -0.053361 0.938349
v -0.109121 -0.043716 0.946707
v -0.136615 -0.120125 0.945765
v -0.131126 -0.118959 0.954327
v -0.037100 -0.043131 0.988236
v -0.038042 -0.048069 0.991221
v -0.039889 -0.049245 0.987438
v -0.038386 -0.044129 0.984998
v -0.122279 -0.134243 0.942852
v -0.116201 -0.136590 0.935031
v -0.123013 -0.138621 0.933206
v -0.129043 -0.134833 0.939450
v -0.113385 -0.133275 0.947398
v -0.107102 -0.133058 0.937860
v -0.024612 -0.042122 0.984966
v -0.029163 -0.039750 0.985543
v -0.029299 -0.041173 0.980884
v -0.025065 -0.044191 0.980190
v -0.077358 -0.059817 0.956518
v -0.081012 -0.068181 0.958236
v -0.061660 -0.056575 0.963239
v -0.068529 -0.062095 0.960983
v -0.068825 -0.056345 0.956871
v -0.062343 -0.052580 0.958352
v -0.073599 -0.084725 0.966022
v -0.083888 -0.087403 0.960737
v -0.081989 -0.081292 0.959232
v -0.071094 -0.076489 0.964940
v -0.087462 -0.099438 0.967483
v -0.076790 -0.095948 0.971908
v -0.079966 -0.103131 0.975391
v -0.087544 -0.104009 0.972273
v -0.057853 -0.087858 0.977081
v -0.050384 -0.086445 0.978763
v -0.050067 -0.089243 0.980506
v -0.058472 -0.091301 0.978307
v -0.129181 -0.140626 0.930284
v -0.135183 -0.134754 0.935513
v -0.075614 -0.127160 0.961974
v -0.084280 -0.130700 0.968168
v -0.074131 -0.130292 0.975743
v -0.067828 -0.126608 0.967116
v -0.110395 -0.132744 0.927199
v -0.116723 -0.137108 0.925398
v -0.021634 -0.047330 0.986327
v -0.022588 -0.049589 0.981814
v -0.117753 -0.056193 0.925925
v -0.105346 -0.043639 0.937494
v -0.124636 -0.068541 0.917654
v -0.127830 -0.078264 0.911814
v -0.132373 -0.084309 0.906575
v -0.065238 -0.066358 0.965070
v -0.084942 -0.076554 0.957232
v -0.095234 -0.091579 0.957302
v -0.099853 -0.116087 0.975579
v -0.109495 -0.117790 0.970979
v -0.105604 -0.108031 0.969077
v -0.097616 -0.108839 0.973013
v -0.089337 -0.128242 0.976172
v -0.090138 -0.121274 0.980074
v -0.081338 -0.120327 0.984506
v -0.079845 -0.127218 0.981805
v -0.083062 -0.043015 0.942072
v -0.089436 -0.049312 0.931739
v -0.128298 -0.128360 0.949391
v -0.134146 -0.127400 0.944248
v -0.139622 -0.128800 0.937926
v -0.117906 -0.095963 0.952478
v -0.130612 -0.097741 0.946775
v -0.130606 -0.093131 0.945942
v -0.117253 -0.093542 0.950705
v -0.111484 -0.078140 0.953536
v -0.124617 -0.076733 0.951458
v -0.104011 -0.069409 0.958098
v -0.138708 -0.095838 0.934466
v -0.145026 -0.104777 0.932535
v -0.144809 -0.097432 0.927410
v -0.144376 -0.113945 0.936090
v -0.142668 -0.122450 0.938322
v -0.121962 -0.142037 0.920769
v -0.142958 -0.091103 0.922143
v -0.098559 -0.051117 0.962244
v -0.092093 -0.046227 0.963942
v -0.087030 -0.052002 0.962606
v -0.092382 -0.057125 0.961223
v -0.052759 -0.051791 0.948672
v -0.058425 -0.050182 0.954202
v -0.066690 -0.052503 0.950819
v -0.121179 -0.106166 0.959956
v -0.122826 -0.118649 0.961447
v -0.058143 -0.061003 0.966941
v -0.027177 -0.046285 0.975378
v -0.031662 -0.042731 0.976375
v -0.043197 -0.047305 0.961126
v -0.037535 -0.051095 0.959844
v -0.048047 -0.064537 0.969693
v -0.054073 -0.060795 0.969162
v -0.051584 -0.061116 0.970475
v -0.046760 -0.065047 0.972609
v -0.054559 -0.097215 0.982641
v -0.061808 -0.098861 0.981042
v -0.044934 -0.076631 0.951331
v -0.045115 -0.066176 0.942442
v -0.055910 -0.069927 0.936592
v -0.075916 -0.091378 0.968621
v -0.066660 -0.089723 0.973826
v -0.067381 -0.093509 0.975534
v -0.061597 -0.068616 0.967547
v -0.054990 -0.065783 0.969207
v -0.056416 -0.070570 0.969882
v -0.062993 -0.073853 0.968473
v -0.094381 -0.132681 0.960003
v -0.100546 -0.130124 0.969522
v -0.033772 -0.040121 0.986453
v -0.034443 -0.041206 0.982538
v -0.085961 -0.093868 0.963353
v -0.069145 -0.074150 0.931017
v -0.096642 -0.096382 0.959632
v -0.053953 -0.113124 0.969906
v -0.055687 -0.113316 0.976678
v -0.050390 -0.109979 0.979098
v -0.046941 -0.110584 0.974240
v -0.037051 -0.061060 0.984591
v -0.041069 -0.057125 0.985866
v -0.038197 -0.055099 0.989140
v -0.033707 -0.058875 0.988705
v -0.056586 -0.055965 0.966804
v -0.057005 -0.051010 0.962633
v -0.052916 -0.050633 0.967491
v -0.052672 -0.056126 0.969873
v -0.052728 -0.048558 0.958753
v -0.048981 -0.047327 0.963769
v -0.031094 -0.061794 0.981786
v -0.025593 -0.057985 0.978135
v -0.034995 -0.063786 0.964350
v -0.039407 -0.065810 0.970751
v -0.088862 -0.118074 0.933694
v -0.092975 -0.126498 0.939863
v -0.081806 -0.123263 0.949180
v -0.070622 -0.121055 0.957684
v -0.060534 -0.117545 0.966076
v -0.054772 -0.109840 0.958407
v -0.086199 -0.128919 0.953106
v -0.043602 -0.070693 0.964330
v -0.041286 -0.068340 0.955952
v -0.042299 -0.073666 0.958113
v -0.098594 -0.101821 0.964392
v -0.036899 -0.042323 0.978485
v -0.113842 -0.096459 0.904231
v -0.110343 -0.109321 0.906867
v -0.104278 -0.104510 0.910959
v -0.108677 -0.089793 0.908735
v -0.043150 -0.050773 0.984553
v -0.041834 -0.044978 0.981843
v -0.061348 -0.104854 0.984230
v -0.054788 -0.102777 0.984352
v -0.052491 -0.106003 0.984346
v -0.058406 -0.109609 0.986521
v -0.096602 -0.130385 0.942612
v -0.067390 -0.129723 0.979990
v -0.062322 -0.126879 0.972303
v -0.102732 -0.128958 0.931463
v -0.098939 -0.121978 0.925618
v -0.106364 -0.125234 0.920159
v -0.046444 -0.096493 0.958137
v -0.084740 -0.110883 0.930897
v -0.096161 -0.115254 0.923005
v -0.104893 -0.118841 0.916321
v -0.110851 -0.122266 0.911537
v -0.111923 -0.128869 0.916310
v -0.024920 -0.052254 0.976649
v -0.022661 -0.055934 0.984144
v -0.117296 -0.134024 0.911015
v -0.116277 -0.126042 0.906255
v -0.094190 -0.106752 0.919911
v -0.093243 -0.095772 0.917051
v -0.083328 -0.102803 0.927851
v -0.081126 -0.091757 0.925476
v -0.044924 -0.090154 0.949792
v -0.022736 -0.052061 1.001153
v -0.025861 -0.057004 0.991722
v -0.031551 -0.056943 0.993050
v -0.026636 -0.053356 1.002552
v -0.027932 -0.059522 0.986837
v -0.022047 -0.053612 0.988744
v -0.082942 -0.077515 0.923860
v -0.049601 -0.068966 0.971231
v -0.098543 -0.078670 0.916332
v -0.081341 -0.061240 0.926373
v -0.094122 -0.061068 0.922831
v -0.115095 -0.077462 0.909849
v -0.109226 -0.063150 0.917409
v -0.124800 -0.090837 0.901471
v -0.119060 -0.085507 0.905762
v -0.102187 -0.050938 0.926748
v -0.035050 -0.042311 0.999127
v -0.035325 -0.047670 1.000924
v -0.119253 -0.100839 0.899583
v -0.097380 -0.062363 0.960039
v -0.108912 -0.101514 0.960378
v -0.106939 -0.097525 0.956862
v -0.114949 -0.118280 0.967466
v -0.112463 -0.107126 0.964913
v -0.032015 -0.038475 0.997088
v -0.044479 -0.087697 0.977978
v -0.045947 -0.089081 0.977134
v -0.102008 -0.043913 0.958574
v -0.095998 -0.040464 0.960658
v -0.091051 -0.035290 0.949481
v -0.094851 -0.035921 0.955569
v -0.101580 -0.039010 0.951401
v -0.097963 -0.038432 0.944497
v -0.118203 -0.097918 0.954316
v -0.118639 -0.100986 0.956800
v -0.104552 -0.133272 0.953535
v -0.110170 -0.130181 0.963190
v -0.047545 -0.049911 0.954871
v -0.047195 -0.056649 0.945507
v -0.042517 -0.054286 0.952879
v -0.035298 -0.057860 0.959391
v -0.044745 -0.068969 0.969620
v -0.043703 -0.067192 0.965917
v -0.128220 -0.085639 0.948619
v -0.115522 -0.087304 0.950629
v -0.086544 -0.057636 0.957256
v -0.082050 -0.054158 0.957705
v -0.065827 -0.081410 0.969797
v -0.039037 -0.090521 0.964826
v -0.037884 -0.085085 0.958175
v -0.057348 -0.078925 0.972719
v -0.023609 -0.038792 0.996455
v -0.028406 -0.037413 0.996559
v -0.040087 -0.061089 0.951880
v -0.070226 -0.100427 0.979713
v -0.044942 -0.096166 0.965146
v -0.040355 -0.090630 0.972133
v -0.074058 -0.126440 0.985050
v -0.116828 -0.113165 0.902045
v -0.036283 -0.053789 0.993621
v -0.033104 -0.052031 1.001977
v -0.020190 -0.049393 0.998875
v -0.019994 -0.044003 0.996322
v -0.119040 -0.128430 0.957027
v -0.105388 -0.094743 0.954807
v -0.094618 -0.043242 0.935562
v -0.086932 -0.038552 0.944084
v -0.051838 -0.077852 0.974418
v -0.058300 -0.119111 0.972167
v -0.047863 -0.107980 0.964260
v -0.041474 -0.105813 0.969076
v -0.039755 -0.098285 0.969655
v -0.040672 -0.092092 0.974118
v -0.019982 -0.048036 1.004189
v -0.019716 -0.042582 1.001922
v -0.023141 -0.037436 1.002234
v -0.027636 -0.036164 1.002060
v -0.031734 -0.038021 1.001544
v -0.022370 -0.050778 1.006626
v -0.025916 -0.051803 1.007730
v -0.031994 -0.051153 1.005604
v -0.022797 -0.049981 1.011345
v -0.019618 -0.045959 1.012300
v -0.024554 -0.033987 1.016197
v -0.022427 -0.035720 1.011019
v -0.021436 -0.036466 1.013409
v -0.022375 -0.035439 1.018169
v -0.022181 -0.035352 1.023319
v -0.024824 -0.033444 1.021799
v -0.019795 -0.040429 1.011732
v -0.020583 -0.039648 1.018288
v -0.020502 -0.043837 1.018987
v -0.020321 -0.042800 1.024363
v -0.020184 -0.038959 1.023949
v -0.019710 -0.043971 1.014477
v -0.019389 -0.040883 1.009608
v -0.024297 -0.034957 1.026152
v -0.021873 -0.035822 1.026180
v -0.020742 -0.038892 1.026957
v -0.022933 -0.038848 1.029160
v -0.027389 -0.034993 1.007333
v -0.027146 -0.033721 1.015826
v -0.027789 -0.034681 1.021765
v -0.026940 -0.036104 1.026087
v -0.030373 -0.036029 1.016962
v -0.029822 -0.036844 1.021778
v -0.029216 -0.038507 1.025459
v -0.032380 -0.039617 1.018137
v -0.031105 -0.039740 1.022258
v -0.033665 -0.040811 1.005983
v -0.031461 -0.037244 1.005110
v -0.030667 -0.040009 1.024884
v -0.024929 -0.039962 1.029283
v -0.021663 -0.047172 1.017882
v -0.022429 -0.045340 1.024546
v -0.023523 -0.048652 1.017953
v -0.024070 -0.047147 1.024645
v -0.022062 -0.043647 1.028584
v -0.020787 -0.041897 1.027072
v -0.034429 -0.042351 1.001878
v -0.034390 -0.047899 1.003792
v -0.033763 -0.046807 1.007338
v -0.032579 -0.044327 1.018916
v -0.031623 -0.050228 1.009254
v -0.026270 -0.050958 1.012272
v -0.026203 -0.049205 1.019019
v -0.029522 -0.048385 1.019274
v -0.026599 -0.047470 1.024039
v -0.028885 -0.046380 1.023433
v -0.031164 -0.043318 1.023084
v -0.026992 -0.044994 1.027239
v -0.024180 -0.044631 1.028345
v -0.027756 -0.041343 1.027836
v -0.028565 -0.045027 1.025936
v -0.029390 -0.042143 1.025795
v -0.025201 -0.065895 0.998375
v -0.026110 -0.071569 1.001124
v -0.028135 -0.072282 0.996383
v -0.027173 -0.067299 0.994455
v -0.013186 -0.066037 0.991203
v -0.018255 -0.063168 0.993434
v -0.019595 -0.064153 0.988899
v -0.014637 -0.068358 0.986657
v -0.010882 -0.072534 0.991467
v -0.013131 -0.074916 0.986854
v -0.017240 -0.069680 0.981878
v -0.022748 -0.065667 0.984334
v -0.037333 -0.070778 0.969327
v -0.032030 -0.074563 0.966220
v -0.044982 -0.082566 0.980166
v -0.041807 -0.084984 0.979780
v -0.022558 -0.063677 0.996180
v -0.024049 -0.064685 0.991856
v -0.028834 -0.081780 0.994326
v -0.031838 -0.077196 0.994934
v -0.027749 -0.076810 0.998184
v -0.024190 -0.080999 0.997520
v -0.044249 -0.071778 0.974406
v -0.045491 -0.077353 0.977104
v -0.041265 -0.070309 0.972402
v -0.023447 -0.084447 0.991410
v -0.018154 -0.083625 0.987020
v -0.030576 -0.087900 0.971536
v -0.034570 -0.088763 0.976632
v -0.027306 -0.065046 0.987670
v -0.032208 -0.071760 0.993622
v -0.031076 -0.067327 0.991199
v -0.016232 -0.076977 0.982660
v -0.014655 -0.081385 0.991490
v -0.011053 -0.076135 1.009546
v -0.016606 -0.080901 0.999756
v -0.021099 -0.079510 1.002013
v -0.014924 -0.075682 1.012753
v -0.019218 -0.082929 0.995432
v -0.012602 -0.078820 0.995677
v -0.019427 -0.062954 1.012643
v -0.020017 -0.068529 1.015174
v -0.016935 -0.060165 1.010105
v -0.029522 -0.081815 0.966779
v -0.009536 -0.062490 1.003205
v -0.014168 -0.059685 1.006889
v -0.024999 -0.076355 1.002652
v -0.018077 -0.072983 1.015242
v -0.008176 -0.074339 1.006425
v -0.007170 -0.068837 1.002132
v -0.006370 -0.072064 1.011174
v -0.005363 -0.066801 1.007911
v -0.007690 -0.060375 1.008736
v -0.012236 -0.058329 1.011622
v -0.015357 -0.059279 1.013931
v -0.008712 -0.073984 1.014211
v -0.012332 -0.073994 1.017384
v -0.016704 -0.071512 1.018008
v -0.006902 -0.072188 1.020929
v -0.003629 -0.069729 1.019276
v -0.002483 -0.054662 1.028970
v -0.003922 -0.055987 1.023319
v -0.001967 -0.057760 1.023546
v -0.000443 -0.056635 1.028715
v -0.003682 -0.058240 1.017437
v -0.002371 -0.059522 1.019343
v -0.001935 -0.064037 1.018803
v -0.000983 -0.062393 1.024501
v -0.001997 -0.067081 1.025343
v 0.000303 -0.065955 1.030465
v 0.001618 -0.061270 1.029746
v -0.002148 -0.067186 1.021030
v 0.000702 -0.056938 1.032137
v -0.000738 -0.056056 1.034167
v -0.002438 -0.064461 1.015863
v -0.009583 -0.056979 1.015439
v -0.006739 -0.055133 1.024232
v -0.005248 -0.054592 1.030727
v -0.003012 -0.057120 1.035972
v -0.009967 -0.056410 1.026567
v -0.007549 -0.056181 1.032358
v -0.005345 -0.058612 1.036277
v -0.012652 -0.059485 1.028908
v -0.009620 -0.059405 1.034161
v -0.016988 -0.061597 1.018499
v -0.014177 -0.058118 1.016793
v -0.007468 -0.059754 1.035876
v 0.001501 -0.060157 1.035795
v -0.001350 -0.060657 1.037668
v 0.002015 -0.060321 1.033957
v -0.002987 -0.068837 1.025992
v -0.001133 -0.067127 1.031840
v -0.004973 -0.070249 1.027357
v -0.002708 -0.067889 1.033565
v 0.000615 -0.064898 1.035571
v 0.001603 -0.063977 1.034394
v -0.017747 -0.062553 1.015591
v -0.018394 -0.067755 1.017377
v -0.017783 -0.066914 1.019990
v -0.013042 -0.064496 1.030083
v -0.015628 -0.071066 1.020680
v -0.010422 -0.072667 1.021835
v -0.007640 -0.070580 1.028287
v -0.010764 -0.068663 1.029849
v -0.004667 -0.068612 1.034401
v -0.007819 -0.067599 1.033913
v -0.010047 -0.063393 1.034620
v -0.002953 -0.065734 1.037623
v -0.000687 -0.065305 1.036793
v -0.003573 -0.061300 1.037761
v -0.005904 -0.065735 1.036763
v -0.006667 -0.062147 1.036964
v -0.026952 -0.088026 0.998957
v -0.029585 -0.092461 1.001599
v -0.032633 -0.092903 0.998607
v -0.029892 -0.088513 0.995980
v -0.017678 -0.092668 0.990996
v -0.019758 -0.088664 0.993194
v -0.022447 -0.088949 0.989823
v -0.020890 -0.093221 0.986588
v -0.016524 -0.097990 0.992638
v -0.020827 -0.099367 0.986906
v -0.024024 -0.094179 0.982230
v -0.025393 -0.089615 0.986369
v -0.037492 -0.091714 0.976864
v -0.034504 -0.096788 0.973267
v -0.023370 -0.087412 0.996038
v -0.025947 -0.087603 0.993213
v -0.034803 -0.102241 0.997065
v -0.036249 -0.097744 0.997693
v -0.032697 -0.098165 0.999898
v -0.031037 -0.102042 0.999238
v -0.046626 -0.090964 0.982724
v -0.049334 -0.096478 0.983979
v -0.041719 -0.089810 0.980861
v -0.030755 -0.105964 0.993484
v -0.026779 -0.106202 0.987289
v -0.038482 -0.108794 0.978950
v -0.043138 -0.107903 0.982965
v -0.028605 -0.087771 0.990270
v -0.036027 -0.092643 0.996258
v -0.032850 -0.088356 0.993856
v -0.024656 -0.100415 0.982906
v -0.022942 -0.104621 0.991371
v -0.012360 -0.100939 1.010548
v -0.023862 -0.104537 0.999161
v -0.027841 -0.101396 1.002284
v -0.015474 -0.099754 1.013476
v -0.026957 -0.105363 0.996648
v -0.019403 -0.103440 0.995188
v -0.016939 -0.086451 1.011771
v -0.019100 -0.091042 1.013888
v -0.014744 -0.085644 1.008010
v -0.034589 -0.103985 0.973599
v -0.048172 -0.103697 0.985147
v -0.009253 -0.089027 1.004182
v -0.012123 -0.086250 1.005900
v -0.029720 -0.097614 1.002728
v -0.018247 -0.096380 1.014828
v -0.009833 -0.099621 1.006693
v -0.008343 -0.094816 1.003285
v -0.007202 -0.098775 1.011333
v -0.005761 -0.093897 1.007989
v -0.006062 -0.088175 1.008454
v -0.009048 -0.085475 1.010049
v -0.011867 -0.084846 1.012056
v -0.009665 -0.099859 1.015180
v -0.012475 -0.098528 1.017607
v -0.016478 -0.095393 1.016614
v -0.007840 -0.098867 1.019369
v -0.003141 -0.097190 1.017232
v 0.002840 -0.083920 1.025354
v -0.000042 -0.084996 1.020494
v 0.000520 -0.086117 1.020563
v 0.003871 -0.085326 1.025219
v -0.001831 -0.087560 1.014613
v -0.000771 -0.088244 1.016195
v -0.000900 -0.092096 1.016043
v 0.002091 -0.091050 1.021600
v -0.001147 -0.095622 1.023698
v 0.001681 -0.094021 1.027697
v 0.005089 -0.089946 1.025996
v -0.002013 -0.095748 1.018339
v 0.005359 -0.085809 1.028033
v 0.005655 -0.083903 1.028551
v -0.001888 -0.092662 1.013940
v -0.005378 -0.084266 1.014287
v -0.001991 -0.082894 1.021044
v 0.000764 -0.081496 1.026150
v 0.002454 -0.082731 1.030065
v -0.005341 -0.082640 1.022852
v -0.002198 -0.081937 1.027364
v -0.000565 -0.082995 1.030863
v -0.007891 -0.083931 1.024509
v -0.004789 -0.083574 1.028530
v -0.013339 -0.085748 1.016114
v -0.009531 -0.084008 1.014965
v -0.002641 -0.084018 1.030927
v 0.005996 -0.088143 1.030846
v 0.002601 -0.087331 1.033302
v 0.005563 -0.088688 1.029225
v -0.002601 -0.096783 1.023976
v 0.000577 -0.095096 1.029558
v -0.005197 -0.096966 1.025178
v -0.001968 -0.095129 1.030764
v 0.003477 -0.092673 1.031543
v 0.003821 -0.092312 1.030396
v -0.015180 -0.086622 1.013848
v -0.017184 -0.090780 1.015734
v -0.015506 -0.089606 1.017903
v -0.009653 -0.087469 1.026776
v -0.015152 -0.094197 1.018986
v -0.010501 -0.097297 1.021374
v -0.007582 -0.095171 1.026447
v -0.009167 -0.091955 1.027458
v -0.004318 -0.093660 1.031296
v -0.006023 -0.091453 1.030558
v -0.006554 -0.086638 1.030487
v -0.001624 -0.091043 1.033069
v 0.001070 -0.092378 1.033009
v -0.000542 -0.086649 1.033428
v -0.003779 -0.089777 1.032566
v -0.003028 -0.086440 1.032701
v -0.049948 -0.100653 0.985074
v -0.041142 -0.112632 1.003308
v -0.043769 -0.114954 1.005508
v -0.045904 -0.115859 1.003459
v -0.044211 -0.112932 1.001049
v -0.034956 -0.118827 0.995945
v -0.035915 -0.114719 0.998089
v -0.038524 -0.114654 0.994359
v -0.037444 -0.118679 0.992225
v -0.036059 -0.123773 0.996662
v -0.038695 -0.123812 0.993494
v -0.040014 -0.118937 0.989634
v -0.041682 -0.114669 0.991553
v -0.053631 -0.114703 0.980246
v -0.053340 -0.119682 0.977396
v -0.068608 -0.125313 0.987001
v -0.070004 -0.119856 0.988674
v -0.063071 -0.120121 0.992416
v -0.062901 -0.124745 0.991354
v -0.038309 -0.112769 1.000685
v -0.041357 -0.112247 0.997749
v -0.050218 -0.125159 1.001655
v -0.050546 -0.120477 1.002664
v -0.047653 -0.119343 1.004801
v -0.047528 -0.123938 1.004801
v -0.067226 -0.115027 0.988396
v -0.064351 -0.111803 0.987088
v -0.060400 -0.112106 0.988728
v -0.061324 -0.115653 0.991813
v -0.056206 -0.110719 0.985756
v -0.048097 -0.127907 0.999172
v -0.044330 -0.128494 0.994604
v -0.059333 -0.130008 0.983999
v -0.062186 -0.128243 0.987697
v -0.043646 -0.112431 0.995376
v -0.049181 -0.116315 1.001526
v -0.046869 -0.113327 0.999448
v -0.040761 -0.124672 0.990789
v -0.041863 -0.127576 0.997575
v -0.037879 -0.126164 1.011615
v -0.043763 -0.126790 1.004653
v -0.045737 -0.123032 1.007255
v -0.039253 -0.123912 1.013193
v -0.045413 -0.127152 1.002212
v -0.039490 -0.127364 1.000702
v -0.035430 -0.112679 1.010406
v -0.038811 -0.116073 1.012563
v -0.033062 -0.112664 1.008159
v -0.054764 -0.126197 0.978486
v -0.029628 -0.118251 1.004636
v -0.030523 -0.114327 1.006452
v -0.045301 -0.118469 1.007061
v -0.039834 -0.120231 1.013507
v -0.034769 -0.126781 1.008589
v -0.031020 -0.123776 1.004784
v -0.031934 -0.126411 1.012308
v -0.028539 -0.123023 1.008353
v -0.027215 -0.117101 1.008644
v -0.029048 -0.113942 1.009477
v -0.031395 -0.112391 1.011018
v -0.035307 -0.125837 1.015138
v -0.037093 -0.123502 1.016287
v -0.038259 -0.119864 1.015968
v -0.032647 -0.125366 1.018698
v -0.028023 -0.125281 1.017190
v -0.021670 -0.114570 1.022868
v -0.023358 -0.114793 1.019157
v -0.023040 -0.115987 1.019098
v -0.020888 -0.115357 1.022592
v -0.024756 -0.116636 1.014267
v -0.024265 -0.117737 1.015467
v -0.025366 -0.121154 1.014961
v -0.022880 -0.120315 1.019533
v -0.025668 -0.123981 1.022362
v -0.023342 -0.122901 1.025644
v -0.020862 -0.119980 1.022763
v -0.026314 -0.124231 1.017761
v -0.019377 -0.116111 1.024757
v -0.019172 -0.115176 1.025803
v -0.025760 -0.121599 1.013206
v -0.027169 -0.113217 1.013753
v -0.024254 -0.112671 1.020149
v -0.021839 -0.112970 1.024590
v -0.020464 -0.114711 1.027649
v -0.026744 -0.111856 1.020444
v -0.023735 -0.112098 1.025711
v -0.022522 -0.113932 1.028633
v -0.029904 -0.112147 1.021586
v -0.026326 -0.112714 1.026257
v -0.033669 -0.112601 1.015619
v -0.030217 -0.112096 1.014534
v -0.024339 -0.114128 1.028324
v -0.019209 -0.118754 1.027390
v -0.021050 -0.117508 1.029383
v -0.019253 -0.119562 1.026049
v -0.026894 -0.124523 1.022892
v -0.024223 -0.123175 1.027016
v -0.029273 -0.124217 1.023980
v -0.025824 -0.122287 1.028261
v -0.021543 -0.121370 1.028569
v -0.021142 -0.121529 1.026730
v -0.034494 -0.112688 1.013425
v -0.037280 -0.115731 1.014620
v -0.036267 -0.115714 1.017061
v -0.032486 -0.114802 1.022999
v -0.037027 -0.119908 1.018399
v -0.035307 -0.123423 1.018913
v -0.031286 -0.122283 1.024502
v -0.032693 -0.119094 1.024466
v -0.027099 -0.120545 1.028913
v -0.028614 -0.117856 1.028494
v -0.028507 -0.114772 1.027470
v -0.024083 -0.118496 1.030065
v -0.022764 -0.119895 1.029924
v -0.022923 -0.116559 1.029769
v -0.025522 -0.117121 1.029766
v -0.025117 -0.115645 1.029256
v -0.065649 -0.127754 0.985580
v -0.074027 -0.038716 0.952510
v -0.072576 -0.043575 0.954987
v -0.080784 -0.043581 0.969150
v -0.075612 -0.046684 0.965563
v -0.084529 -0.037857 0.969334
v -0.085639 -0.030281 0.961416
v -0.086723 -0.033697 0.965758
v -0.072686 -0.046547 0.960291
v -0.077395 -0.033759 0.951879
v -0.082539 -0.029900 0.955202
v -0.070658 -0.030280 0.955702
v -0.076230 -0.026087 0.959359
v -0.079821 -0.025717 0.965420
v -0.082215 -0.030635 0.969958
v -0.081719 -0.034980 0.972611
v -0.068910 -0.037175 0.956661
v -0.068338 -0.042086 0.959257
v -0.070523 -0.045495 0.964444
v -0.062665 -0.036684 0.962463
v -0.058989 -0.029355 0.968783
v -0.061492 -0.022010 0.986814
v -0.066620 -0.023796 0.982530
v -0.064302 -0.023037 0.980881
v -0.059980 -0.020914 0.984824
v -0.068707 -0.023836 0.977257
v -0.066247 -0.023936 0.977085
v -0.063392 -0.025321 0.972779
v -0.059436 -0.023625 0.976637
v -0.059182 -0.028085 0.971342
v -0.055877 -0.028148 0.974070
v -0.055370 -0.021950 0.980264
v -0.056188 -0.019564 0.985670
v -0.052038 -0.020796 0.983615
v -0.056326 -0.021188 0.988555
v -0.063809 -0.023577 0.970776
v -0.075204 -0.027061 0.976917
v -0.069294 -0.026351 0.983630
v -0.062880 -0.025246 0.988462
v -0.056691 -0.024234 0.989933
v -0.069986 -0.030857 0.984586
v -0.063347 -0.029791 0.988114
v -0.057473 -0.029260 0.988868
v -0.068399 -0.035591 0.983730
v -0.062128 -0.033409 0.986523
v -0.076950 -0.039473 0.974913
v -0.078355 -0.033111 0.976842
v -0.058175 -0.031675 0.987303
v -0.050500 -0.021912 0.985997
v -0.050960 -0.025432 0.987420
v -0.054904 -0.031128 0.972401
v -0.051739 -0.026290 0.977189
v -0.050915 -0.029374 0.977094
v -0.055516 -0.035153 0.971504
v -0.050953 -0.032311 0.977595
v -0.048687 -0.026022 0.981448
v -0.050310 -0.023774 0.980314
v -0.079374 -0.040928 0.972215
v -0.075198 -0.044881 0.968659
v -0.072968 -0.043575 0.971122
v -0.064766 -0.039873 0.979781
v -0.067747 -0.044490 0.967778
v -0.063845 -0.041240 0.964262
v -0.056835 -0.038569 0.972805
v -0.060216 -0.040717 0.975658
v -0.052916 -0.035055 0.979246
v -0.055399 -0.036200 0.980797
v -0.059015 -0.035735 0.984217
v -0.051526 -0.031903 0.983424
v -0.049122 -0.029228 0.982400
v -0.053130 -0.029780 0.987042
v -0.053885 -0.033548 0.983396
v -0.055553 -0.032475 0.985860
v -0.076123 -0.119566 0.986673
v -0.074239 -0.113280 0.986025
v -0.080984 -0.114608 0.983834
v -0.090304 -0.115286 0.979925
v -0.098144 -0.121915 0.976123
v -0.088931 -0.109263 0.976849
v -0.079518 -0.108864 0.981121
v -0.069797 -0.107322 0.983869
v -0.094675 -0.104665 0.969227
f 2 3 1
f 1 3 4
f 5 6 8
f 8 6 7
f 9 4 10
f 10 4 3
f 12 13 11
f 11 13 9
f 14 12 16
f 16 12 15
f 18 19 17
f 17 19 20
f 22 23 21
f 21 23 24
f 26 27 25
f 25 27 28
f 30 31 29
f 29 31 32
f 33 34 36
f 36 34 35
f 37 38 40
f 40 38 39
f 41 42 6
f 6 42 43
f 6 43 7
f 7 43 44
f 45 34 46
f 46 34 33
f 48 49 47
f 47 49 50
f 52 53 51
f 51 53 54
f 56 52 55
f 55 52 51
f 58 59 57
f 57 59 60
f 61 62 4
f 4 62 1
f 64 65 63
f 63 65 66
f 68 69 67
f 67 69 70
f 72 73 71
f 71 73 74
f 76 77 75
f 75 77 78
f 53 79 54
f 54 79 80
f 82 83 81
f 81 83 84
f 85 86 52
f 52 86 53
f 57 60 87
f 87 60 88
f 89 90 43
f 43 90 44
f 43 42 89
f 89 42 91
f 40 39 92
f 92 39 93
f 94 70 64
f 64 70 69
f 13 61 9
f 9 61 4
f 25 28 69
f 69 28 95
f 96 25 68
f 68 25 69
f 98 99 97
f 97 99 100
f 101 102 104
f 104 102 103
f 106 30 105
f 105 30 29
f 51 54 107
f 107 54 108
f 54 80 108
f 108 80 109
f 111 112 110
f 110 112 113
f 115 5 114
f 114 5 116
f 115 41 5
f 5 41 6
f 36 35 111
f 111 35 117
f 35 118 117
f 117 118 119
f 34 120 35
f 35 120 118
f 34 45 120
f 120 45 121
f 125 126 124
f 124 126 127
f 128 129 14
f 14 129 130
f 33 131 46
f 46 131 132
f 133 94 63
f 63 94 64
f 134 135 137
f 137 135 136
f 139 140 138
f 138 140 141
f 77 142 78
f 78 142 143
f 144 145 20
f 20 145 146
f 148 149 147
f 147 149 72
f 151 152 150
f 150 152 153
f 82 101 83
f 83 101 104
f 101 82 155
f 155 82 154
f 156 157 58
f 58 157 59
f 158 68 147
f 147 68 67
f 159 146 15
f 15 146 16
f 68 158 96
f 96 158 160
f 129 66 130
f 130 66 65
f 162 163 161
f 161 163 164
f 166 167 165
f 165 167 168
f 170 171 169
f 169 171 172
f 174 171 173
f 173 171 170
f 176 177 175
f 175 177 178
f 180 181 179
f 179 181 24
f 182 183 21
f 21 183 184
f 81 185 82
f 82 185 154
f 186 187 188
f 188 187 144
f 158 71 160
f 160 71 189
f 190 135 157
f 157 135 59
f 169 172 139
f 139 172 140
f 147 72 158
f 158 72 71
f 192 193 191
f 191 193 194
f 167 166 49
f 49 166 195
f 196 190 50
f 50 190 157
f 197 198 200
f 200 198 199
f 21 24 182
f 182 24 181
f 146 159 20
f 20 159 17
f 182 181 81
f 81 181 185
f 201 185 180
f 180 185 181
f 202 203 83
f 83 203 84
f 205 206 204
f 204 206 85
f 207 22 184
f 184 22 21
f 179 24 208
f 208 24 23
f 208 209 179
f 179 209 205
f 209 210 205
f 205 210 206
f 212 206 211
f 211 206 210
f 179 205 180
f 180 205 204
f 213 176 88
f 88 176 214
f 86 85 212
f 212 85 206
f 193 217 218
f 217 219 218
f 218 219 220
f 219 18 220
f 220 18 17
f 19 221 20
f 20 221 144
f 222 223 225
f 225 223 224
f 175 226 176
f 176 226 214
f 227 87 214
f 214 87 88
f 220 17 228
f 228 17 159
f 134 213 60
f 60 213 88
f 138 229 151
f 151 229 152
f 193 192 210
f 210 192 211
f 230 194 218
f 218 194 193
f 231 232 228
f 228 232 230
f 233 234 91
f 91 234 89
f 235 236 93
f 93 236 92
f 230 232 234
f 234 232 237
f 47 238 48
f 48 238 239
f 240 191 235
f 235 191 236
f 5 8 116
f 116 8 241
f 242 243 189
f 189 243 160
f 244 245 98
f 98 245 99
f 156 246 47
f 47 246 238
f 76 247 77
f 77 247 248
f 250 125 249
f 249 125 124
f 252 253 251
f 251 253 254
f 111 110 36
f 36 110 255
f 256 33 255
f 255 33 36
f 257 258 154
f 154 258 155
f 63 169 133
f 133 169 139
f 66 170 63
f 63 170 169
f 173 170 129
f 129 170 66
f 129 128 173
f 173 128 259
f 128 260 259
f 259 260 261
f 213 134 262
f 262 134 137
f 263 264 186
f 186 264 187
f 112 265 113
f 113 265 266
f 11 267 268
f 234 233 230
f 230 233 194
f 153 269 70
f 70 269 67
f 175 178 165
f 165 178 141
f 150 153 94
f 94 153 70
f 271 221 270
f 270 221 207
f 269 153 272
f 272 153 152
f 121 45 109
f 109 45 108
f 47 50 156
f 156 50 157
f 57 273 58
f 58 273 274
f 145 275 260
f 260 275 261
f 276 149 143
f 143 149 78
f 148 269 75
f 75 269 272
f 207 277 270
f 270 277 278
f 195 196 49
f 49 196 50
f 59 135 60
f 60 135 134
f 83 104 202
f 202 104 279
f 149 148 78
f 78 148 75
f 247 278 248
f 248 278 277
f 183 182 84
f 84 182 81
f 48 239 281
f 281 239 282
f 227 223 283
f 283 223 222
f 223 226 224
f 224 226 168
f 281 282 224
f 224 282 225
f 165 168 175
f 175 168 226
f 264 263 138
f 138 263 229
f 14 16 128
f 128 16 260
f 220 228 218
f 218 228 230
f 87 227 284
f 284 227 283
f 260 16 145
f 145 16 146
f 244 98 258
f 258 98 155
f 58 274 156
f 156 274 246
f 107 285 51
f 51 285 55
f 243 286 160
f 160 286 96
f 234 237 89
f 89 237 90
f 46 132 107
f 107 132 285
f 253 252 249
f 249 252 250
f 286 26 96
f 96 26 25
f 106 105 287
f 287 105 288
f 272 152 289
f 289 152 229
f 138 151 139
f 139 151 133
f 183 290 161
f 161 290 162
f 291 292 277
f 277 292 293
f 151 150 133
f 133 150 94
f 262 275 177
f 177 275 187
f 144 187 145
f 145 187 275
f 273 57 284
f 284 57 87
f 174 136 190
f 190 136 135
f 111 117 112
f 112 117 38
f 117 119 38
f 38 119 123
f 112 38 265
f 265 38 37
f 287 288 254
f 254 288 251
f 228 159 231
f 231 159 15
f 223 227 226
f 226 227 214
f 147 67 148
f 148 67 269
f 224 168 281
f 281 168 167
f 199 163 200
f 200 163 162
f 45 46 108
f 108 46 107
f 281 167 48
f 48 167 49
f 161 164 291
f 291 164 292
f 38 123 39
f 293 294 277
f 277 294 248
f 284 283 296
f 296 283 295
f 284 296 273
f 273 296 297
f 274 273 298
f 298 273 297
f 246 274 299
f 299 274 298
f 283 222 295
f 295 222 300
f 222 225 300
f 300 225 301
f 301 225 302
f 302 225 282
f 303 304 300
f 300 304 295
f 306 307 305
f 305 307 308
f 309 310 308
f 308 310 305
f 308 307 312
f 312 307 311
f 313 314 312
f 312 314 315
f 311 316 312
f 312 316 313
f 317 304 311
f 311 304 316
f 315 309 312
f 312 309 308
f 318 319 321
f 321 319 320
f 319 318 309
f 309 318 310
f 311 307 317
f 317 307 306
f 306 297 317
f 317 297 296
f 306 322 297
f 297 322 298
f 305 323 306
f 306 323 322
f 323 305 324
f 324 305 310
f 304 317 295
f 295 317 296
f 318 325 310
f 310 325 324
f 323 324 326
f 326 324 327
f 324 325 327
f 327 325 328
f 326 327 329
f 329 327 330
f 329 331 326
f 326 331 332
f 333 330 328
f 328 330 327
f 323 326 322
f 322 326 332
f 322 332 298
f 298 332 299
f 325 318 334
f 334 318 321
f 313 316 335
f 335 316 304
f 335 336 313
f 313 336 314
f 304 303 335
f 335 303 337
f 336 335 338
f 338 335 337
f 336 339 314
f 314 339 340
f 246 299 238
f 238 299 341
f 239 342 282
f 282 342 302
f 342 239 341
f 341 239 238
f 341 331 342
f 342 331 343
f 331 329 343
f 343 329 344
f 342 343 302
f 302 343 345
f 341 299 331
f 331 299 332
f 346 301 345
f 345 301 302
f 346 303 301
f 301 303 300
f 347 337 346
f 346 337 303
f 347 346 348
f 348 346 345
f 349 347 350
f 350 347 348
f 343 344 345
f 345 344 348
f 344 351 348
f 348 351 350
f 337 347 338
f 338 347 349
f 353 338 352
f 352 338 349
f 352 355 354
f 354 355 356
f 352 349 355
f 355 349 350
f 352 354 353
f 353 354 334
f 353 334 339
f 339 334 321
f 339 336 353
f 353 336 338
f 329 330 344
f 344 330 351
f 356 351 333
f 333 351 330
f 356 355 351
f 351 355 350
f 354 356 328
f 328 356 333
f 328 325 354
f 354 325 334
f 309 315 319
f 319 315 320
f 320 340 321
f 321 340 339
f 320 315 340
f 340 315 314
f 137 136 261
f 261 136 259
f 140 166 141
f 141 166 165
f 172 171 195
f 195 171 196
f 171 174 196
f 196 174 190
f 178 177 264
f 264 177 187
f 172 195 140
f 140 195 166
f 137 261 262
f 262 261 275
f 178 264 141
f 141 264 138
f 262 177 213
f 213 177 176
f 136 174 259
f 259 174 173
f 358 359 357
f 357 359 360
f 362 363 361
f 361 363 364
f 361 364 365
f 365 364 366
f 367 368 370
f 370 368 369
f 76 371 247
f 247 371 372
f 373 374 362
f 362 374 363
f 376 377 375
f 375 377 378
f 289 229 380
f 380 229 379
f 381 379 263
f 263 379 229
f 383 384 382
f 382 384 385
f 386 368 374
f 374 368 363
f 76 289 371
f 371 289 380
f 377 376 359
f 359 376 387
f 388 386 360
f 360 386 374
f 389 383 366
f 366 383 390
f 392 393 391
f 391 393 394
f 383 382 390
f 390 382 395
f 396 365 390
f 390 365 366
f 389 366 367
f 367 366 364
f 357 397 358
f 358 397 398
f 373 399 357
f 357 399 397
f 389 367 400
f 400 367 370
f 382 385 375
f 375 385 372
f 357 360 373
f 373 360 374
f 361 401 362
f 362 401 402
f 387 388 359
f 359 388 360
f 363 368 364
f 364 368 367
f 358 398 403
f 403 398 404
f 396 392 405
f 405 392 391
f 392 395 393
f 393 395 378
f 393 403 394
f 394 403 404
f 375 378 382
f 382 378 395
f 365 396 406
f 406 396 405
f 362 402 373
f 373 402 399
f 271 270 400
f 400 270 384
f 401 361 406
f 406 361 365
f 381 369 386
f 386 369 368
f 392 396 395
f 395 396 390
f 393 378 403
f 403 378 377
f 403 377 358
f 358 377 359
f 406 405 408
f 408 405 407
f 406 408 401
f 401 408 409
f 401 409 402
f 402 409 410
f 402 410 399
f 399 410 411
f 405 391 407
f 407 391 412
f 391 394 412
f 412 394 413
f 394 404 413
f 413 404 414
f 415 416 412
f 412 416 407
f 418 419 417
f 417 419 420
f 421 422 418
f 418 422 419
f 419 422 424
f 424 422 423
f 425 426 424
f 424 426 427
f 423 428 424
f 424 428 425
f 427 420 424
f 424 420 419
f 420 429 417
f 417 429 430
f 423 422 431
f 431 422 421
f 421 409 431
f 431 409 408
f 421 432 409
f 409 432 410
f 418 433 421
f 421 433 432
f 434 433 417
f 417 433 418
f 431 416 423
f 423 416 428
f 416 431 407
f 407 431 408
f 435 434 430
f 430 434 417
f 433 434 436
f 436 434 437
f 434 435 437
f 437 435 438
f 436 437 439
f 439 437 440
f 439 441 436
f 436 441 442
f 438 443 437
f 437 443 440
f 436 442 433
f 433 442 432
f 432 442 410
f 410 442 411
f 435 430 445
f 445 430 444
f 430 429 444
f 444 429 446
f 425 428 447
f 447 428 416
f 426 425 448
f 448 425 447
f 416 415 447
f 447 415 449
f 447 449 448
f 448 449 450
f 451 452 448
f 448 452 426
f 446 452 444
f 444 452 451
f 399 411 397
f 397 411 453
f 398 454 404
f 404 454 414
f 454 398 453
f 453 398 397
f 453 441 454
f 454 441 455
f 441 439 455
f 455 439 456
f 454 455 414
f 414 455 457
f 441 453 442
f 442 453 411
f 458 413 457
f 457 413 414
f 458 415 413
f 413 415 412
f 458 459 415
f 415 459 449
f 459 458 460
f 460 458 457
f 461 459 462
f 462 459 460
f 455 456 457
f 457 456 460
f 456 463 460
f 460 463 462
f 459 461 449
f 449 461 450
f 465 450 464
f 464 450 461
f 464 467 466
f 466 467 468
f 464 461 467
f 467 461 462
f 464 466 465
f 465 466 445
f 465 445 451
f 451 445 444
f 451 448 465
f 465 448 450
f 439 440 456
f 456 440 463
f 468 463 443
f 443 463 440
f 468 467 463
f 463 467 462
f 466 468 438
f 438 468 443
f 438 435 466
f 466 435 445
f 420 427 429
f 429 427 446
f 446 427 452
f 452 427 426
f 370 369 188
f 188 369 186
f 371 376 372
f 372 376 375
f 380 379 387
f 387 379 388
f 379 381 388
f 388 381 386
f 385 384 278
f 278 384 270
f 380 387 371
f 371 387 376
f 400 370 271
f 271 370 188
f 385 278 372
f 372 278 247
f 400 384 389
f 389 384 383
f 369 381 186
f 186 381 263
f 221 271 144
f 144 271 188
f 221 19 207
f 207 19 22
f 19 18 22
f 22 18 23
f 18 219 23
f 23 219 208
f 469 470 472
f 472 470 471
f 474 475 473
f 473 475 476
f 473 476 477
f 477 476 478
f 480 481 479
f 479 481 482
f 483 484 474
f 474 484 475
f 486 487 485
f 485 487 488
f 489 490 77
f 77 490 142
f 491 489 248
f 248 489 77
f 493 494 492
f 492 494 495
f 496 480 484
f 484 480 475
f 486 497 487
f 487 497 471
f 498 496 472
f 472 496 484
f 499 493 478
f 478 493 500
f 501 502 504
f 504 502 503
f 493 492 500
f 500 492 505
f 506 477 500
f 500 477 478
f 499 478 479
f 479 478 476
f 469 507 470
f 470 507 508
f 483 509 469
f 469 509 507
f 479 482 499
f 499 482 510
f 492 495 485
f 485 495 511
f 483 469 484
f 484 469 472
f 473 512 474
f 474 512 513
f 497 498 471
f 471 498 472
f 475 480 476
f 476 480 479
f 470 508 514
f 514 508 515
f 506 502 516
f 516 502 501
f 503 502 488
f 488 502 505
f 514 515 503
f 503 515 504
f 485 488 492
f 492 488 505
f 477 506 517
f 517 506 516
f 474 513 483
f 483 513 509
f 510 292 494
f 494 292 164
f 512 473 517
f 517 473 477
f 491 481 496
f 496 481 480
f 502 506 505
f 505 506 500
f 503 488 514
f 514 488 487
f 514 487 470
f 470 487 471
f 517 516 519
f 519 516 518
f 517 519 512
f 512 519 520
f 512 520 513
f 513 520 521
f 513 521 509
f 509 521 522
f 516 501 518
f 518 501 523
f 501 504 523
f 523 504 524
f 524 504 525
f 525 504 515
f 526 527 523
f 523 527 518
f 529 530 528
f 528 530 531
f 532 533 529
f 529 533 530
f 530 533 535
f 535 533 534
f 536 537 535
f 535 537 538
f 534 539 535
f 535 539 536
f 538 531 535
f 535 531 530
f 540 541 531
f 531 541 528
f 533 532 534
f 534 532 542
f 532 520 542
f 542 520 519
f 532 543 520
f 520 543 521
f 529 544 532
f 532 544 543
f 544 529 545
f 545 529 528
f 534 542 539
f 539 542 527
f 527 542 518
f 518 542 519
f 541 546 528
f 528 546 545
f 547 544 548
f 548 544 545
f 546 549 545
f 545 549 548
f 550 547 551
f 551 547 548
f 547 550 553
f 553 550 552
f 549 554 548
f 548 554 551
f 544 547 543
f 543 547 553
f 543 553 521
f 521 553 522
f 546 541 556
f 556 541 555
f 541 540 555
f 555 540 557
f 536 539 558
f 558 539 527
f 537 536 559
f 559 536 558
f 527 526 558
f 558 526 560
f 559 558 561
f 561 558 560
f 559 562 537
f 537 562 563
f 557 563 555
f 555 563 562
f 509 522 507
f 507 522 564
f 508 565 515
f 515 565 525
f 565 508 564
f 564 508 507
f 564 552 565
f 565 552 566
f 552 550 566
f 566 550 567
f 565 566 525
f 525 566 568
f 564 522 552
f 552 522 553
f 569 524 568
f 568 524 525
f 569 526 524
f 524 526 523
f 570 560 569
f 569 560 526
f 570 569 571
f 571 569 568
f 572 570 573
f 573 570 571
f 566 567 568
f 568 567 571
f 567 574 571
f 571 574 573
f 570 572 560
f 560 572 561
f 576 561 575
f 575 561 572
f 575 578 577
f 577 578 579
f 575 572 578
f 578 572 573
f 575 577 576
f 576 577 556
f 576 556 562
f 562 556 555
f 562 559 576
f 576 559 561
f 550 551 567
f 567 551 574
f 579 574 554
f 554 574 551
f 579 578 574
f 574 578 573
f 579 554 577
f 577 554 549
f 549 546 577
f 577 546 556
f 531 538 540
f 540 538 557
f 557 538 563
f 563 538 537
f 481 294 482
f 482 294 293
f 580 486 511
f 511 486 485
f 490 489 497
f 497 489 498
f 489 491 498
f 498 491 496
f 163 495 164
f 164 495 494
f 580 490 486
f 486 490 497
f 482 293 510
f 510 293 292
f 495 163 511
f 511 163 199
f 494 493 510
f 510 493 499
f 481 491 294
f 294 491 248
f 582 583 581
f 581 583 584
f 586 587 585
f 585 587 588
f 585 588 589
f 589 588 590
f 592 593 591
f 591 593 594
f 595 596 598
f 598 596 597
f 599 600 586
f 586 600 587
f 601 602 604
f 604 602 603
f 605 606 608
f 608 606 607
f 609 607 200
f 200 607 606
f 610 611 613
f 613 611 612
f 600 614 587
f 587 614 592
f 596 605 597
f 597 605 608
f 602 615 603
f 603 615 583
f 616 614 584
f 584 614 600
f 611 618 617
f 617 618 590
f 620 621 619
f 619 621 622
f 610 623 611
f 611 623 618
f 624 589 618
f 618 589 590
f 617 590 591
f 591 590 588
f 581 625 582
f 582 625 626
f 599 627 581
f 581 627 625
f 591 594 617
f 617 594 628
f 601 610 598
f 598 610 613
f 581 584 599
f 599 584 600
f 585 629 586
f 586 629 630
f 615 616 583
f 583 616 584
f 587 592 588
f 588 592 591
f 582 626 631
f 631 626 632
f 624 620 633
f 633 620 619
f 621 620 604
f 604 620 623
f 631 632 621
f 621 632 622
f 610 601 623
f 623 601 604
f 589 624 634
f 634 624 633
f 586 630 599
f 599 630 627
f 203 202 628
f 628 202 612
f 629 585 634
f 634 585 589
f 609 593 614
f 614 593 592
f 620 624 623
f 623 624 618
f 631 621 603
f 603 621 604
f 582 631 583
f 583 631 603
f 634 633 636
f 636 633 635
f 634 636 629
f 629 636 637
f 629 637 630
f 630 637 638
f 630 638 627
f 627 638 639
f 633 619 635
f 635 619 640
f 619 622 640
f 640 622 641
f 641 622 642
f 642 622 632
f 644 635 643
f 643 635 640
f 645 646 648
f 648 646 647
f 649 650 646
f 646 650 647
f 647 650 652
f 652 650 651
f 652 653 655
f 655 653 654
f 651 656 652
f 652 656 653
f 655 648 652
f 652 648 647
f 648 657 645
f 645 657 658
f 650 649 651
f 651 649 659
f 649 637 659
f 659 637 636
f 649 660 637
f 637 660 638
f 661 660 646
f 646 660 649
f 662 661 645
f 645 661 646
f 651 659 656
f 656 659 644
f 644 659 635
f 635 659 636
f 663 662 658
f 658 662 645
f 664 661 665
f 665 661 662
f 663 666 662
f 662 666 665
f 667 664 668
f 668 664 665
f 664 667 670
f 670 667 669
f 666 671 665
f 665 671 668
f 661 664 660
f 660 664 670
f 660 670 638
f 638 670 639
f 658 672 663
f 663 672 673
f 658 657 672
f 672 657 674
f 653 656 675
f 675 656 644
f 653 675 654
f 654 675 676
f 675 644 677
f 677 644 643
f 676 675 678
f 678 675 677
f 679 680 676
f 676 680 654
f 674 680 672
f 672 680 679
f 627 639 625
f 625 639 681
f 626 682 632
f 632 682 642
f 681 682 625
f 625 682 626
f 669 683 681
f 681 683 682
f 667 684 669
f 669 684 683
f 682 683 642
f 642 683 685
f 681 639 669
f 669 639 670
f 686 641 685
f 685 641 642
f 641 686 640
f 640 686 643
f 686 687 643
f 643 687 677
f 687 686 688
f 688 686 685
f 689 687 690
f 690 687 688
f 683 684 685
f 685 684 688
f 684 691 688
f 688 691 690
f 687 689 677
f 677 689 678
f 693 678 692
f 692 678 689
f 692 695 694
f 694 695 696
f 692 689 695
f 695 689 690
f 692 694 693
f 693 694 673
f 693 673 679
f 679 673 672
f 679 676 693
f 693 676 678
f 684 667 691
f 691 667 668
f 696 691 671
f 671 691 668
f 696 695 691
f 691 695 690
f 694 696 666
f 666 696 671
f 666 663 694
f 694 663 673
f 648 655 657
f 657 655 674
f 674 655 680
f 680 655 654
f 593 162 594
f 594 162 290
f 598 597 601
f 601 597 602
f 615 608 616
f 616 608 607
f 607 609 616
f 616 609 614
f 697 595 613
f 613 595 598
f 597 608 602
f 602 608 615
f 594 290 628
f 628 290 203
f 628 612 617
f 617 612 611
f 593 609 162
f 162 609 200
f 105 29 698
f 698 29 699
f 268 126 701
f 701 126 700
f 126 125 700
f 700 125 702
f 252 703 250
f 250 703 704
f 32 268 705
f 705 268 701
f 288 105 706
f 706 105 698
f 29 32 699
f 699 32 705
f 707 251 706
f 706 251 288
f 250 704 125
f 125 704 702
f 703 252 707
f 707 252 251
f 706 708 707
f 707 708 709
f 707 709 703
f 703 709 710
f 703 710 704
f 704 710 711
f 704 711 702
f 702 711 712
f 706 698 708
f 708 698 713
f 698 699 713
f 713 699 714
f 699 705 714
f 714 705 715
f 717 708 716
f 716 708 713
f 719 720 718
f 718 720 721
f 722 723 719
f 719 723 720
f 724 725 723
f 723 725 720
f 724 726 725
f 725 726 727
f 728 721 725
f 725 721 720
f 721 728 729
f 729 728 730
f 729 731 721
f 721 731 718
f 724 723 732
f 732 723 722
f 722 710 732
f 732 710 709
f 722 733 710
f 710 733 711
f 719 734 722
f 722 734 733
f 734 719 735
f 735 719 718
f 724 732 726
f 726 732 717
f 717 732 708
f 708 732 709
f 731 736 718
f 718 736 735
f 737 734 738
f 738 734 735
f 736 739 735
f 735 739 738
f 740 737 741
f 741 737 738
f 737 740 743
f 743 740 742
f 739 744 738
f 738 744 741
f 734 737 733
f 733 737 743
f 733 743 711
f 711 743 712
f 736 731 746
f 746 731 745
f 731 729 745
f 745 729 730
f 727 726 747
f 747 726 717
f 748 727 749
f 749 727 747
f 747 717 750
f 750 717 716
f 749 747 751
f 751 747 750
f 749 752 748
f 748 752 753
f 730 753 745
f 745 753 752
f 728 725 748
f 748 725 727
f 730 728 753
f 753 728 748
f 700 702 754
f 754 702 712
f 705 701 715
f 715 701 755
f 754 755 700
f 700 755 701
f 742 756 754
f 754 756 755
f 740 757 742
f 742 757 756
f 755 756 715
f 715 756 758
f 754 712 742
f 742 712 743
f 759 714 758
f 758 714 715
f 714 759 713
f 713 759 716
f 759 760 716
f 716 760 750
f 760 759 761
f 761 759 758
f 762 760 763
f 763 760 761
f 756 757 758
f 758 757 761
f 757 764 761
f 761 764 763
f 760 762 750
f 750 762 751
f 766 751 765
f 765 751 762
f 767 765 769
f 769 765 768
f 765 762 768
f 768 762 763
f 765 767 766
f 766 767 746
f 766 746 752
f 752 746 745
f 752 749 766
f 766 749 751
f 757 740 764
f 764 740 741
f 769 764 744
f 744 764 741
f 769 768 764
f 764 768 763
f 767 769 739
f 739 769 744
f 739 736 767
f 767 736 746
f 219 217 208
f 208 217 209
f 209 217 210
f 210 217 193
f 198 580 199
f 199 580 511
f 76 75 289
f 289 75 272
f 277 207 291
f 291 207 184
f 290 183 203
f 203 183 84
f 490 580 142
f 142 580 198
f 142 198 143
f 143 198 197
f 149 276 72
f 72 276 73
f 104 103 279
f 279 103 770
f 770 596 279
f 279 596 595
f 605 596 771
f 771 596 770
f 771 770 772
f 772 770 103
f 772 103 773
f 773 103 102
f 155 774 101
f 101 774 102
f 773 102 97
f 97 102 774
f 775 773 100
f 100 773 97
f 773 775 772
f 772 775 776
f 772 776 771
f 771 776 777
f 200 606 197
f 197 606 777
f 189 71 778
f 778 71 74
f 97 774 98
f 98 774 155
f 183 161 184
f 184 161 291
f 777 276 197
f 197 276 143
f 777 606 771
f 771 606 605
f 613 612 697
f 697 612 202
f 595 697 279
f 279 697 202
f 73 276 776
f 776 276 777
f 776 775 73
f 73 775 74
f 100 778 775
f 775 778 74
f 778 100 189
f 189 100 99
f 245 242 99
f 99 242 189
f 131 33 256
f 28 1 95
f 95 1 62
f 27 2 28
f 28 2 1
f 265 115 266
f 266 115 114
f 95 62 69
f 69 62 64
f 62 61 64
f 64 61 65
f 61 13 65
f 65 13 130
f 13 12 130
f 130 12 14
f 31 11 32
f 32 11 268
f 15 12 31
f 31 12 11
f 31 30 15
f 15 30 231
f 30 106 231
f 231 106 232
f 287 237 106
f 106 237 232
f 254 90 287
f 287 90 237
f 253 44 254
f 254 44 90
f 253 249 44
f 44 249 7
f 267 127 268
f 268 127 126
f 10 3 241
f 241 3 116
f 3 2 116
f 116 2 114
f 2 27 114
f 114 27 266
f 27 26 266
f 266 26 113
f 26 286 113
f 113 286 110
f 286 243 110
f 110 243 255
f 243 242 255
f 255 242 256
f 242 245 256
f 256 245 131
f 245 244 131
f 131 244 132
f 265 37 115
f 115 37 41
f 41 37 42
f 42 37 40
f 92 91 40
f 40 91 42
f 236 233 92
f 92 233 91
f 191 194 236
f 236 194 233
f 258 285 244
f 244 285 132
f 257 55 258
f 258 55 285
f 257 154 201
f 201 154 185
f 56 201 204
f 204 201 180
f 55 257 56
f 56 257 201
f 204 85 56
f 56 85 52
f 86 122 53
f 53 122 79
f 212 215 86
f 86 215 122
f 211 216 212
f 212 216 215
f 192 280 211
f 211 280 216
f 191 240 192
f 192 240 280
f 249 124 7
f 7 124 8
f 124 127 8
f 8 127 241
f 127 267 241
f 241 267 10
f 10 267 9
f 9 267 11
o hand_right
v -0.065142 0.091364 0.970013
v -0.074408 0.096568 0.968354
v -0.071798 0.086225 0.969928
v -0.063606 0.081848 0.970289
v -0.092956 0.088982 0.969912
v -0.101585 0.085144 0.961737
v -0.092112 0.071821 0.965787
v -0.086543 0.077413 0.972638
v -0.060541 0.074538 0.968545
v -0.069152 0.078144 0.970909
v -0.058352 0.072639 0.962886
v -0.048477 0.070735 0.958131
v -0.051850 0.071685 0.965434
v -0.040594 0.069333 0.958544
v -0.049114 0.076298 0.948213
v -0.035299 0.075487 0.953417
v -0.041891 0.103963 0.949624
v -0.041267 0.116220 0.955370
v -0.028235 0.109114 0.962969
v -0.030394 0.096977 0.957106
v -0.035033 0.126857 0.971898
v -0.030349 0.116941 0.967322
v -0.042657 0.124492 0.958886
v -0.046157 0.133033 0.963542
v -0.067338 0.107024 0.972591
v -0.076497 0.112674 0.970038
v -0.075617 0.107415 0.968230
v -0.067057 0.101872 0.970727
v -0.062964 0.066275 0.956591
v -0.064432 0.071653 0.947853
v -0.058961 0.071960 0.953875
v -0.061979 0.067771 0.961967
v -0.099772 0.129792 0.971215
v -0.106473 0.136024 0.961175
v -0.106961 0.131237 0.957711
v -0.100431 0.126764 0.967412
v -0.108925 0.107791 0.953588
v -0.110041 0.116794 0.946783
v -0.110691 0.114757 0.932980
v -0.107074 0.105744 0.936933
v -0.106133 0.095984 0.958775
v -0.106630 0.094044 0.944520
v -0.102140 0.082186 0.950239
v -0.092593 0.068385 0.956927
v -0.103613 0.147465 0.966489
v -0.098683 0.144445 0.974923
v -0.013657 0.049848 0.996821
v -0.013374 0.054476 1.000479
v -0.015840 0.056219 0.997171
v -0.015458 0.051416 0.993907
v -0.087170 0.159455 0.965488
v -0.080554 0.161699 0.958038
v -0.086892 0.164984 0.956431
v -0.093643 0.161517 0.962142
v -0.078698 0.156527 0.969938
v -0.072224 0.156440 0.960488
v -0.002204 0.048065 0.991204
v -0.006848 0.046065 0.992299
v -0.007688 0.048260 0.987875
v -0.003316 0.051063 0.986727
v -0.055360 0.076959 0.970389
v -0.057535 0.085850 0.973125
v -0.039775 0.070633 0.977235
v -0.046240 0.077747 0.975321
v -0.047377 0.072438 0.970550
v -0.041130 0.067442 0.971654
v -0.047834 0.100293 0.982932
v -0.057398 0.105178 0.977945
v -0.056415 0.099031 0.975707
v -0.046631 0.091936 0.980899
v -0.059216 0.116777 0.986050
v -0.049392 0.111140 0.990095
v -0.051476 0.118322 0.994382
v -0.058701 0.120751 0.991336
v -0.032104 0.099556 0.994452
v -0.024763 0.096976 0.995919
v -0.024302 0.099414 0.998139
v -0.032245 0.102924 0.996112
v -0.092568 0.168276 0.953747
v -0.099591 0.162879 0.958185
v -0.042758 0.142867 0.983994
v -0.050911 0.147071 0.990504
v -0.040862 0.144291 0.998012
v -0.035130 0.140504 0.989041
v -0.075158 0.157933 0.949820
v -0.080652 0.163421 0.948519
v 0.001592 0.052753 0.992586
v -0.000032 0.055939 0.988510
v -0.096168 0.085411 0.938396
v -0.088381 0.068745 0.947910
v -0.099559 0.099469 0.931947
v -0.100636 0.109768 0.927413
v -0.103910 0.116732 0.923003
v -0.042393 0.080928 0.980090
v -0.059994 0.094962 0.973122
v -0.067791 0.111472 0.974959
v -0.069003 0.134216 0.995986
v -0.078098 0.137958 0.991539
v -0.075771 0.127947 0.988505
v -0.067882 0.127022 0.992580
v -0.056542 0.144533 0.998111
v -0.058622 0.137325 1.001128
v -0.050073 0.134636 1.005449
v -0.047208 0.141551 1.003585
v -0.067082 0.061778 0.952190
v -0.070503 0.071045 0.943317
v -0.094216 0.153829 0.971181
v -0.099960 0.154412 0.965905
v -0.104974 0.157440 0.959775
v -0.088959 0.119985 0.970541
v -0.101076 0.124552 0.964911
v -0.101538 0.120269 0.963509
v -0.088325 0.117693 0.968574
v -0.085277 0.100636 0.969423
v -0.098426 0.102836 0.966778
v -0.080853 0.089360 0.972587
v -0.109107 0.125492 0.952266
v -0.113987 0.135358 0.951400
v -0.114775 0.128772 0.945385
v -0.112015 0.143819 0.956078
v -0.108995 0.151621 0.959334
v -0.084908 0.169617 0.944525
v -0.113791 0.122940 0.939342
v -0.081288 0.069919 0.973475
v -0.076411 0.063588 0.974174
v -0.070030 0.068061 0.973875
v -0.073698 0.073993 0.973466
v -0.031944 0.066525 0.961243
v -0.037571 0.064959 0.966879
v -0.045928 0.068738 0.963936
v -0.091134 0.129663 0.979078
v -0.090797 0.142020 0.982047
v -0.035450 0.073862 0.981495
v -0.005379 0.054138 0.982686
v -0.010071 0.050829 0.983842
v -0.021676 0.059324 0.971584
v -0.015805 0.062696 0.970295
v -0.024350 0.075247 0.984151
v -0.030579 0.072296 0.983385
v -0.027604 0.071860 0.984398
v -0.022147 0.074747 0.986603
v -0.027510 0.107715 1.001238
v -0.034401 0.110613 0.999729
v -0.020633 0.089475 0.967512
v -0.022879 0.080623 0.957234
v -0.032384 0.086248 0.952125
v -0.049157 0.106882 0.986304
v -0.040459 0.103151 0.991364
v -0.040614 0.106816 0.993502
v -0.038434 0.082252 0.982818
v -0.031861 0.077928 0.984297
v -0.033041 0.083106 0.985329
v -0.039110 0.087615 0.984176
v -0.060411 0.151466 0.982535
v -0.067212 0.148813 0.991643
v -0.011128 0.046773 0.994108
v -0.012420 0.048525 0.990423
v -0.058498 0.111550 0.981299
v -0.044230 0.093017 0.946871
v -0.068503 0.116136 0.977838
v -0.023911 0.124557 0.990422
v -0.025684 0.124244 0.997167
v -0.021133 0.119893 0.999162
v -0.017560 0.120383 0.994324
v -0.011801 0.067835 0.995806
v -0.016013 0.064077 0.996980
v -0.013228 0.061531 0.999392
v -0.008523 0.064933 0.998758
v -0.033727 0.068272 0.980362
v -0.035099 0.064266 0.975321
v -0.030298 0.062341 0.979571
v -0.029240 0.067201 0.982914
v -0.031198 0.061951 0.970622
v -0.027139 0.059402 0.974868
v -0.006353 0.068549 0.992154
v -0.002049 0.064991 0.986968
v -0.011434 0.073919 0.976736
v -0.014981 0.075080 0.983866
v -0.056471 0.139348 0.954682
v -0.059365 0.147541 0.961792
v -0.049137 0.141513 0.970740
v -0.038717 0.136554 0.979039
v -0.029518 0.130504 0.987051
v -0.025150 0.122779 0.978581
v -0.052716 0.147294 0.975310
v -0.019926 0.081800 0.979957
v -0.018059 0.080388 0.970538
v -0.018357 0.085247 0.974051
v -0.069704 0.121245 0.983190
v -0.014880 0.050577 0.986601
v -0.083610 0.125742 0.922466
v -0.078169 0.137387 0.926693
v -0.073101 0.131188 0.930243
v -0.079711 0.117913 0.926147
v -0.019028 0.058275 0.994879
v -0.018874 0.053038 0.991058
v -0.033053 0.116114 1.003619
v -0.026847 0.112997 1.003574
v -0.023995 0.115793 1.003911
v -0.029327 0.120023 1.006500
v -0.062444 0.151596 0.964985
v -0.034066 0.141916 1.002009
v -0.029574 0.139099 0.994199
v -0.068343 0.152493 0.953666
v -0.065527 0.145731 0.947049
v -0.072109 0.150788 0.941929
v -0.019000 0.108352 0.976656
v -0.053481 0.131957 0.951070
v -0.063799 0.138989 0.943662
v -0.071591 0.144713 0.937354
v -0.076716 0.149610 0.932932
v -0.076882 0.155693 0.938500
v -0.002358 0.059583 0.984468
v 0.001009 0.061717 0.991795
v -0.081206 0.162207 0.933867
v -0.081299 0.154790 0.928143
v -0.063127 0.130685 0.939565
v -0.063796 0.120132 0.935357
v -0.053289 0.124135 0.947067
v -0.052784 0.113208 0.943365
v -0.018613 0.102830 0.967644
v 0.003966 0.055404 1.008012
v -0.000140 0.061858 0.999861
v -0.005503 0.062301 1.002180
v 0.000529 0.057137 1.010088
v -0.003204 0.065314 0.995954
v 0.002523 0.058532 0.995889
v -0.056947 0.099499 0.939973
v -0.026272 0.080290 0.986656
v -0.071895 0.104349 0.932375
v -0.058861 0.082405 0.940254
v -0.071469 0.085160 0.936436
v -0.088224 0.107144 0.925546
v -0.085731 0.091299 0.931133
v -0.095242 0.122343 0.918862
v -0.090601 0.115856 0.922470
v -0.082560 0.076495 0.938535
v -0.010105 0.047722 1.006937
v -0.009202 0.052901 1.009284
v -0.088119 0.131390 0.918357
v -0.076712 0.080341 0.973336
v -0.079773 0.123060 0.979070
v -0.078301 0.119222 0.975139
v -0.083286 0.139745 0.988063
v -0.082538 0.128633 0.984197
v -0.008015 0.043716 1.004045
v -0.018586 0.097508 0.995104
v -0.020172 0.099002 0.994662
v -0.086218 0.064725 0.968564
v -0.081377 0.059508 0.969897
v -0.077256 0.055101 0.957994
v -0.081073 0.055578 0.964171
v -0.086675 0.061127 0.960601
v -0.082972 0.060757 0.953704
v -0.089218 0.121733 0.972543
v -0.089338 0.124531 0.975354
v -0.070192 0.154384 0.976105
v -0.076532 0.151113 0.985275
v -0.026172 0.063385 0.966545
v -0.025951 0.071358 0.958552
v -0.020796 0.067525 0.964884
v -0.012852 0.069122 0.970881
v -0.021206 0.079703 0.985038
v -0.019891 0.077862 0.980380
v -0.100236 0.112315 0.965159
v -0.087269 0.111127 0.967779
v -0.067141 0.073719 0.969822
v -0.064275 0.069573 0.969360
v -0.040806 0.095336 0.986357
v -0.012578 0.100712 0.982238
v -0.012330 0.095864 0.975263
v -0.032858 0.091188 0.989072
v 0.000221 0.042963 1.002100
v -0.004701 0.042240 1.002818
v -0.017733 0.073976 0.964958
v -0.042448 0.113612 0.998467
v -0.017729 0.107007 0.983494
v -0.013924 0.100349 0.989393
v -0.041544 0.139502 1.006698
v -0.083788 0.142767 0.922346
v -0.010464 0.059600 1.003182
v -0.006151 0.056819 1.010407
v 0.005631 0.052646 1.005091
v 0.004529 0.047639 1.001933
v -0.085372 0.151528 0.978879
v -0.077079 0.116444 0.972806
v -0.077874 0.065894 0.945893
v -0.072240 0.058137 0.953204
v -0.027433 0.089150 0.990726
v -0.027019 0.130832 0.993263
v -0.018802 0.119092 0.984140
v -0.012937 0.115286 0.988583
v -0.012550 0.107547 0.988265
v -0.014604 0.101204 0.992035
v 0.006318 0.050561 1.010334
v 0.005288 0.045419 1.007416
v 0.000978 0.040882 1.007603
v -0.003665 0.040352 1.007848
v -0.007367 0.042824 1.008152
v 0.004699 0.053398 1.013351
v 0.001420 0.054868 1.014971
v -0.004842 0.055438 1.013586
v 0.004270 0.052162 1.018024
v 0.006710 0.047509 1.018238
v -0.000534 0.036218 1.021178
v 0.001731 0.038090 1.016057
v 0.002937 0.038398 1.018468
v 0.001925 0.037045 1.023153
v 0.002235 0.036325 1.028255
v -0.000732 0.035096 1.026711
v 0.005310 0.042152 1.017098
v 0.004536 0.040800 1.023614
v 0.005448 0.044786 1.024754
v 0.005508 0.043091 1.029994
v 0.004888 0.039393 1.029164
v 0.006179 0.045299 1.020226
v 0.005828 0.042731 1.014880
v 0.000201 0.035961 1.031156
v 0.002707 0.036372 1.031136
v 0.004411 0.039055 1.032188
v 0.002348 0.039141 1.034465
v -0.003437 0.038699 1.012825
v -0.003138 0.036444 1.021008
v -0.003400 0.036801 1.027036
v -0.002161 0.037538 1.031401
v -0.005791 0.039110 1.022675
v -0.004991 0.039266 1.027441
v -0.003948 0.040359 1.031201
v -0.007053 0.042834 1.024397
v -0.005671 0.042275 1.028329
v -0.008478 0.045507 1.012916
v -0.007123 0.041796 1.011356
v -0.005096 0.042164 1.030888
v 0.000648 0.040550 1.034853
v 0.004974 0.048399 1.024087
v 0.003977 0.045934 1.030560
v 0.003428 0.050187 1.024475
v 0.002755 0.047973 1.030973
v 0.004090 0.043713 1.034359
v 0.004946 0.041976 1.032615
v -0.009187 0.047469 1.009377
v -0.007950 0.052763 1.011800
v -0.007351 0.051293 1.014871
v -0.006309 0.047419 1.025651
v -0.004489 0.054093 1.016866
v 0.000999 0.053594 1.019364
v 0.000913 0.051061 1.025790
v -0.002502 0.050803 1.026213
v 0.000323 0.048804 1.030603
v -0.002143 0.048231 1.030057
v -0.004994 0.045691 1.029529
v -0.000460 0.046066 1.033496
v 0.002242 0.045064 1.034360
v -0.001887 0.042577 1.033751
v -0.002026 0.046546 1.032350
v -0.003395 0.043897 1.031947
v -0.002137 0.072236 1.013231
v -0.002057 0.077838 1.016319
v -0.004003 0.079083 1.011720
v -0.003898 0.074131 1.009475
v 0.009639 0.070872 1.005779
v 0.004228 0.068696 1.007978
v 0.002988 0.070172 1.003501
v 0.008437 0.073734 1.001353
v 0.012920 0.076957 1.006322
v 0.010922 0.079973 1.001878
v 0.006060 0.075693 0.996737
v 0.000069 0.072400 0.999140
v -0.013763 0.080575 0.984946
v -0.007948 0.083754 0.981987
v -0.019615 0.092558 0.996778
v -0.016046 0.094557 0.996454
v 0.000081 0.069742 1.010848
v -0.001279 0.071212 1.006618
v -0.003273 0.088662 1.010252
v -0.006917 0.084554 1.010707
v -0.002900 0.083398 1.013755
v 0.001241 0.087033 1.013210
v -0.020533 0.082226 0.990220
v -0.020982 0.087720 0.993325
v -0.017726 0.080471 0.988079
v 0.002373 0.090676 1.007309
v 0.007370 0.089326 1.002724
v -0.004458 0.096362 0.988141
v -0.008294 0.097476 0.993322
v -0.004462 0.072288 1.002586
v -0.008138 0.079307 1.009099
v -0.007761 0.074883 1.006368
v 0.008212 0.082701 0.997930
v 0.010522 0.086284 1.006926
v 0.013828 0.079666 1.024742
v 0.008874 0.085661 1.015248
v 0.004217 0.084904 1.017527
v 0.009814 0.079770 1.027951
v 0.006396 0.088273 1.011060
v 0.012369 0.083171 1.010984
v 0.003042 0.067830 1.027018
v 0.003447 0.073354 1.029820
v 0.005063 0.064734 1.024351
v -0.004336 0.090521 0.983023
v 0.012879 0.066075 1.017554
v 0.007781 0.063924 1.021132
v -0.000161 0.082359 1.018049
v 0.006084 0.077496 1.030200
v 0.016351 0.077552 1.021469
v 0.016252 0.072099 1.016797
v 0.017991 0.074750 1.025993
v 0.017833 0.069330 1.022515
v 0.014146 0.063246 1.023087
v 0.009037 0.062058 1.025838
v 0.006088 0.063536 1.028044
v 0.015818 0.077066 1.029194
v 0.011953 0.077612 1.032226
v 0.007040 0.075837 1.032661
v 0.016695 0.074813 1.035723
v 0.019584 0.071776 1.034055
v 0.015869 0.056590 1.043891
v 0.015411 0.058144 1.038082
v 0.017665 0.059497 1.038527
v 0.018311 0.058057 1.043837
v 0.016813 0.060234 1.032165
v 0.018166 0.061270 1.034213
v 0.019764 0.065597 1.033703
v 0.019705 0.063773 1.039569
v 0.019731 0.068608 1.040403
v 0.021067 0.066942 1.045747
v 0.021275 0.062076 1.045109
v 0.020085 0.068765 1.035983
v 0.019142 0.058077 1.047374
v 0.017369 0.057591 1.049257
v 0.019879 0.066156 1.030503
v 0.010934 0.060231 1.029874
v 0.012403 0.057916 1.038807
v 0.013012 0.057165 1.045416
v 0.015274 0.059180 1.050857
v 0.009340 0.059916 1.040955
v 0.011016 0.059270 1.046878
v 0.013353 0.061184 1.050978
v 0.007211 0.063587 1.043128
v 0.009632 0.062929 1.048544
v 0.004566 0.066323 1.032642
v 0.006642 0.062338 1.031014
v 0.011618 0.062806 1.050404
v 0.020327 0.061052 1.051135
v 0.017549 0.062235 1.052732
v 0.021015 0.061075 1.049349
v 0.019177 0.070595 1.040944
v 0.019863 0.068430 1.046987
v 0.017455 0.072427 1.042238
v 0.018409 0.069571 1.048600
v 0.020632 0.065852 1.050863
v 0.021446 0.064729 1.049773
v 0.004287 0.067129 1.029825
v 0.004656 0.072364 1.031767
v 0.004855 0.071755 1.034178
v 0.007979 0.068649 1.044353
v 0.007814 0.075461 1.035045
v 0.013261 0.075985 1.036469
v 0.014866 0.073381 1.042993
v 0.011229 0.072232 1.044324
v 0.016628 0.070736 1.049279
v 0.013384 0.070530 1.048521
v 0.010158 0.066952 1.048997
v 0.017249 0.067535 1.052583
v 0.019388 0.066563 1.051969
v 0.015563 0.063385 1.052635
v 0.014506 0.068252 1.051486
v 0.012872 0.064949 1.051580
v -0.002728 0.092470 1.016269
v -0.004455 0.097118 1.019325
v -0.007156 0.098410 1.016392
v -0.005290 0.093830 1.013362
v 0.007683 0.095622 1.009084
v 0.004709 0.091989 1.010805
v 0.002254 0.093303 1.007385
v 0.004756 0.097435 1.004641
v 0.009839 0.100455 1.011300
v 0.006045 0.103376 1.005552
v 0.001950 0.099421 1.000322
v -0.000378 0.094856 1.003997
v -0.011676 0.099947 0.994764
v -0.007752 0.104746 0.991677
v 0.000777 0.091324 1.013403
v -0.001565 0.092398 1.010567
v -0.007451 0.107946 1.015973
v -0.009718 0.103731 1.016146
v -0.006223 0.103439 1.018220
v -0.003755 0.106953 1.017967
v -0.020847 0.100245 1.000663
v -0.022537 0.106034 1.002524
v -0.016223 0.098453 0.998607
v -0.002689 0.111193 1.012739
v 0.001391 0.111251 1.006583
v -0.009564 0.116726 0.998661
v -0.014361 0.116299 1.002632
v -0.003957 0.093303 1.007694
v -0.010429 0.098825 1.014185
v -0.008083 0.094288 1.011334
v 0.002492 0.105591 1.001615
v 0.004889 0.108498 1.010509
v 0.013842 0.101332 1.029540
v 0.003896 0.107894 1.018198
v -0.000859 0.105460 1.020898
v 0.010189 0.100769 1.032025
v 0.000994 0.109570 1.015744
v 0.008129 0.106151 1.014291
v 0.005735 0.087906 1.029248
v 0.004580 0.092829 1.031575
v 0.008079 0.086737 1.025705
v -0.006528 0.111802 0.992778
v -0.020099 0.112829 1.004417
v 0.014604 0.088801 1.022614
v 0.010988 0.086756 1.023918
v -0.003543 0.102102 1.020952
v 0.006531 0.097926 1.032958
v 0.016382 0.099508 1.025785
v 0.016863 0.094419 1.022135
v 0.018565 0.097926 1.030814
v 0.019070 0.092629 1.027601
v 0.017171 0.087044 1.027921
v 0.013247 0.085264 1.028985
v 0.010079 0.085391 1.030442
v 0.015752 0.099798 1.034268
v 0.012233 0.099214 1.036046
v 0.007741 0.096977 1.034504
v 0.016361 0.098677 1.038465
v 0.020754 0.095581 1.037242
v 0.020278 0.081749 1.046720
v 0.019094 0.083128 1.041223
v 0.019862 0.084095 1.041438
v 0.021616 0.082856 1.046794
v 0.019663 0.085619 1.034977
v 0.020377 0.086124 1.036823
v 0.021491 0.089910 1.036547
v 0.022487 0.088530 1.042749
v 0.020343 0.094048 1.043985
v 0.021419 0.092050 1.048521
v 0.023822 0.087039 1.047750
v 0.020982 0.093985 1.038548
v 0.022489 0.083155 1.049870
v 0.022168 0.081338 1.050490
v 0.021417 0.090584 1.034212
v 0.015417 0.083301 1.033979
v 0.016579 0.081626 1.041368
v 0.017550 0.080041 1.047028
v 0.018537 0.081131 1.051216
v 0.013013 0.082497 1.042456
v 0.014672 0.081354 1.047531
v 0.015670 0.082239 1.051297
v 0.010695 0.084574 1.043559
v 0.012476 0.083732 1.048090
v 0.008105 0.086909 1.034321
v 0.011357 0.084260 1.033900
v 0.014020 0.083810 1.050856
v 0.023115 0.085508 1.052737
v 0.019190 0.085834 1.054308
v 0.023188 0.085982 1.051076
v 0.019354 0.095633 1.043921
v 0.020351 0.093543 1.050043
v 0.016763 0.096655 1.044592
v 0.017794 0.094415 1.050665
v 0.021839 0.090605 1.052680
v 0.022287 0.090066 1.051687
v 0.007163 0.087902 1.031689
v 0.006032 0.092534 1.033419
v 0.006775 0.091411 1.035665
v 0.009459 0.088709 1.045359
v 0.008164 0.095885 1.036744
v 0.012938 0.097965 1.039896
v 0.013713 0.095650 1.045366
v 0.011091 0.092992 1.046090
v 0.015077 0.093675 1.050721
v 0.013018 0.091958 1.049676
v 0.011211 0.087384 1.049550
v 0.016380 0.090546 1.053040
v 0.019251 0.091105 1.053548
v 0.016080 0.086021 1.053702
v 0.014150 0.089859 1.052135
v 0.013906 0.086416 1.052470
v -0.022395 0.110138 1.004051
v -0.012944 0.116905 1.023186
v -0.014994 0.119786 1.025516
v -0.016628 0.121027 1.023871
v -0.015638 0.117845 1.021287
v -0.005214 0.121590 1.016142
v -0.007198 0.117746 1.018068
v -0.009597 0.118529 1.014590
v -0.007528 0.122247 1.012745
v -0.005164 0.126678 1.017080
v -0.007573 0.127421 1.014368
v -0.010022 0.123376 1.010334
v -0.012744 0.119536 1.011881
v -0.024052 0.124123 1.000500
v -0.022494 0.129222 0.998240
v -0.036411 0.137055 1.008407
v -0.038927 0.131920 1.009572
v -0.032362 0.130211 1.013384
v -0.031081 0.134794 1.012839
v -0.010094 0.116387 1.020549
v -0.013002 0.116688 1.017834
v -0.018418 0.131156 1.022977
v -0.019960 0.126619 1.023564
v -0.017518 0.124755 1.025455
v -0.016336 0.129173 1.025827
v -0.037189 0.126722 1.008789
v -0.034886 0.123191 1.007221
v -0.031209 0.122361 1.008828
v -0.031592 0.125555 1.012281
v -0.027408 0.120441 1.005719
v -0.015644 0.133451 1.020655
v -0.011836 0.133309 1.016081
v -0.026144 0.139801 1.005958
v -0.029437 0.138423 1.009540
v -0.015189 0.117600 1.015587
v -0.019710 0.122338 1.022014
v -0.018143 0.118996 1.019799
v -0.009266 0.128968 1.011973
v -0.009833 0.131587 1.018737
v -0.006728 0.129252 1.031802
v -0.011917 0.131333 1.025472
v -0.014932 0.128127 1.027810
v -0.009014 0.127499 1.033183
v -0.013413 0.131830 1.023476
v -0.007570 0.130875 1.021508
v -0.008499 0.115469 1.029633
v -0.010820 0.119718 1.032015
v -0.006042 0.114727 1.027472
v -0.022496 0.135651 1.000070
v -0.000761 0.119116 1.024343
v -0.002984 0.115610 1.025961
v -0.015630 0.123546 1.027289
v -0.010735 0.124058 1.033282
v -0.003239 0.128925 1.028788
v -0.000516 0.124986 1.024724
v -0.000945 0.127259 1.032631
v 0.001375 0.123164 1.028600
v 0.000443 0.116941 1.028664
v -0.002606 0.114690 1.029156
v -0.005519 0.114101 1.030367
v -0.004903 0.127954 1.035231
v -0.007594 0.126503 1.036040
v -0.009841 0.123416 1.035316
v -0.003187 0.126534 1.038812
v 0.001046 0.124356 1.037992
v 0.000711 0.112216 1.044007
v 0.000212 0.113009 1.039977
v 0.000967 0.113957 1.040131
v 0.001749 0.112619 1.043964
v 0.000964 0.115161 1.034950
v 0.001497 0.115899 1.036448
v 0.002107 0.119484 1.035902
v 0.002800 0.117823 1.040918
v 0.001228 0.122404 1.043361
v 0.002002 0.120555 1.047000
v 0.003619 0.116784 1.044502
v 0.001867 0.122730 1.038775
v 0.002893 0.112731 1.046486
v 0.002474 0.111850 1.047498
v 0.002480 0.120211 1.033897
v -0.002465 0.113104 1.033876
v -0.001710 0.111469 1.040690
v -0.000499 0.110868 1.045599
v 0.000728 0.111990 1.049036
v -0.004265 0.111758 1.040547
v -0.002738 0.110887 1.046279
v -0.001565 0.112140 1.049540
v -0.007131 0.113416 1.041195
v -0.004843 0.112516 1.046432
v -0.008733 0.115229 1.034892
v -0.005764 0.113309 1.034225
v -0.003017 0.113042 1.048935
v 0.003565 0.115156 1.049324
v 0.000977 0.114837 1.050775
v 0.004154 0.115863 1.048038
v 0.000311 0.123427 1.043707
v 0.001078 0.121213 1.048197
v -0.002030 0.124219 1.044336
v -0.000940 0.121141 1.049038
v 0.002319 0.118509 1.050139
v 0.003139 0.118456 1.048453
v -0.008601 0.115434 1.032573
v -0.010097 0.119083 1.033755
v -0.010004 0.119097 1.036215
v -0.008550 0.117042 1.042370
v -0.009260 0.123413 1.037664
v -0.006406 0.125974 1.038619
v -0.004692 0.123440 1.044499
v -0.007273 0.121172 1.044082
v -0.002886 0.120141 1.049358
v -0.005257 0.118367 1.048523
v -0.006190 0.115412 1.047368
v -0.001409 0.117004 1.050933
v 0.000347 0.117710 1.051141
v -0.001121 0.114737 1.050774
v -0.003159 0.116370 1.050294
v -0.003281 0.114807 1.049801
v -0.032969 0.138944 1.007267
v -0.060001 0.054182 0.961554
v -0.057864 0.058226 0.964750
v -0.066757 0.057949 0.978911
v -0.060738 0.060302 0.975816
v -0.071758 0.053137 0.978058
v -0.073940 0.046721 0.969035
v -0.074582 0.049907 0.973861
v -0.057654 0.060266 0.970470
v -0.064291 0.050067 0.960192
v -0.070467 0.046736 0.962802
v -0.058121 0.044303 0.963750
v -0.064894 0.040368 0.966654
v -0.069193 0.039766 0.972505
v -0.071247 0.045301 0.977591
v -0.070136 0.049338 0.980730
v -0.055715 0.051225 0.965776
v -0.054674 0.055552 0.968931
v -0.056502 0.058521 0.974502
v -0.050151 0.049014 0.972027
v -0.048268 0.040727 0.977859
v -0.053826 0.032552 0.995183
v -0.058058 0.035255 0.990355
v -0.055698 0.034409 0.988944
v -0.052210 0.031516 0.993352
v -0.059486 0.035864 0.984796
v -0.057069 0.035802 0.984870
v -0.053663 0.037103 0.981016
v -0.050372 0.034778 0.985484
v -0.049027 0.039463 0.980410
v -0.046057 0.038933 0.983748
v -0.046966 0.032371 0.989596
v -0.048732 0.029645 0.994668
v -0.044203 0.030541 0.993333
v -0.049120 0.030970 0.997628
v -0.054072 0.035281 0.978486
v -0.065417 0.039720 0.984356
v -0.060535 0.037813 0.991541
v -0.055111 0.035650 0.997064
v -0.049388 0.033895 0.999223
v -0.060761 0.042182 0.993033
v -0.054960 0.040138 0.997179
v -0.049404 0.038956 0.998598
v -0.058433 0.046725 0.992903
v -0.053035 0.043676 0.996123
v -0.064880 0.052499 0.983938
v -0.067615 0.046256 0.984906
v -0.049551 0.041498 0.997189
v -0.042946 0.031305 0.996016
v -0.043300 0.034698 0.997607
v -0.044551 0.041828 0.982397
v -0.042588 0.036458 0.987404
v -0.041442 0.039344 0.987606
v -0.044522 0.045899 0.981824
v -0.041206 0.042126 0.988360
v -0.040163 0.035497 0.992042
v -0.041800 0.033580 0.990518
v -0.066533 0.054729 0.981417
v -0.061365 0.058186 0.978591
v -0.060129 0.056287 0.980849
v -0.053733 0.050749 0.989775
v -0.054705 0.056737 0.977982
v -0.051062 0.053467 0.974393
v -0.045537 0.049227 0.983372
v -0.048812 0.051409 0.986166
v -0.043011 0.044892 0.990008
v -0.045498 0.046158 0.991373
v -0.049432 0.045776 0.994357
v -0.042593 0.041348 0.994126
v -0.040394 0.038569 0.993197
v -0.044893 0.039192 0.997342
v -0.044655 0.043179 0.993951
v -0.046740 0.042141 0.996138
v -0.045065 0.132868 1.007555
v -0.044329 0.126416 1.006219
v -0.050755 0.128930 1.004116
v -0.059800 0.131442 1.000264
v -0.066372 0.139631 0.997241
v -0.059350 0.125627 0.996490
v -0.050238 0.123285 1.000749
v -0.040990 0.119959 1.003414
v -0.065534 0.122874 0.988346
f 780 781 779
f 779 781 782
f 783 784 786
f 786 784 785
f 787 782 788
f 788 782 781
f 790 791 789
f 789 791 787
f 792 790 794
f 794 790 793
f 796 797 795
f 795 797 798
f 800 801 799
f 799 801 802
f 804 805 803
f 803 805 806
f 808 809 807
f 807 809 810
f 811 812 814
f 814 812 813
f 815 816 818
f 818 816 817
f 819 820 784
f 784 820 821
f 784 821 785
f 785 821 822
f 823 812 824
f 824 812 811
f 826 827 825
f 825 827 828
f 830 831 829
f 829 831 832
f 834 830 833
f 833 830 829
f 836 837 835
f 835 837 838
f 839 840 782
f 782 840 779
f 842 843 841
f 841 843 844
f 846 847 845
f 845 847 848
f 850 851 849
f 849 851 852
f 854 855 853
f 853 855 856
f 831 857 832
f 832 857 858
f 860 861 859
f 859 861 862
f 863 864 830
f 830 864 831
f 835 838 865
f 865 838 866
f 867 868 821
f 821 868 822
f 821 820 867
f 867 820 869
f 818 817 870
f 870 817 871
f 872 848 842
f 842 848 847
f 791 839 787
f 787 839 782
f 803 806 847
f 847 806 873
f 874 803 846
f 846 803 847
f 876 877 875
f 875 877 878
f 879 880 882
f 882 880 881
f 884 808 883
f 883 808 807
f 829 832 885
f 885 832 886
f 832 858 886
f 886 858 887
f 889 890 888
f 888 890 891
f 893 783 892
f 892 783 894
f 893 819 783
f 783 819 784
f 814 813 889
f 889 813 895
f 813 896 895
f 895 896 897
f 812 898 813
f 813 898 896
f 812 823 898
f 898 823 899
f 903 904 902
f 902 904 905
f 906 907 792
f 792 907 908
f 811 909 824
f 824 909 910
f 911 872 841
f 841 872 842
f 912 913 915
f 915 913 914
f 917 918 916
f 916 918 919
f 855 920 856
f 856 920 921
f 922 923 798
f 798 923 924
f 926 927 925
f 925 927 850
f 929 930 928
f 928 930 931
f 860 879 861
f 861 879 882
f 879 860 933
f 933 860 932
f 934 935 836
f 836 935 837
f 936 846 925
f 925 846 845
f 937 924 793
f 793 924 794
f 846 936 874
f 874 936 938
f 907 844 908
f 908 844 843
f 940 941 939
f 939 941 942
f 944 945 943
f 943 945 946
f 948 949 947
f 947 949 950
f 952 949 951
f 951 949 948
f 954 955 953
f 953 955 956
f 958 959 957
f 957 959 802
f 960 961 799
f 799 961 962
f 859 963 860
f 860 963 932
f 964 965 966
f 966 965 922
f 936 849 938
f 938 849 967
f 968 913 935
f 935 913 837
f 947 950 917
f 917 950 918
f 925 850 936
f 936 850 849
f 970 971 969
f 969 971 972
f 945 944 827
f 827 944 973
f 974 968 828
f 828 968 935
f 975 976 978
f 978 976 977
f 799 802 960
f 960 802 959
f 924 937 798
f 798 937 795
f 960 959 859
f 859 959 963
f 979 963 958
f 958 963 959
f 980 981 861
f 861 981 862
f 983 984 982
f 982 984 863
f 985 800 962
f 962 800 799
f 957 802 986
f 986 802 801
f 986 987 957
f 957 987 983
f 987 988 983
f 983 988 984
f 990 984 989
f 989 984 988
f 957 983 958
f 958 983 982
f 991 954 866
f 866 954 992
f 864 863 990
f 990 863 984
f 971 995 996
f 995 997 996
f 996 997 998
f 997 796 998
f 998 796 795
f 797 999 798
f 798 999 922
f 1000 1001 1003
f 1003 1001 1002
f 953 1004 954
f 954 1004 992
f 1005 865 992
f 992 865 866
f 998 795 1006
f 1006 795 937
f 912 991 838
f 838 991 866
f 916 1007 929
f 929 1007 930
f 971 970 988
f 988 970 989
f 1008 972 996
f 996 972 971
f 1009 1010 1006
f 1006 1010 1008
f 1011 1012 869
f 869 1012 867
f 1013 1014 871
f 871 1014 870
f 1008 1010 1012
f 1012 1010 1015
f 825 1016 826
f 826 1016 1017
f 1018 969 1013
f 1013 969 1014
f 783 786 894
f 894 786 1019
f 1020 1021 967
f 967 1021 938
f 1022 1023 876
f 876 1023 877
f 934 1024 825
f 825 1024 1016
f 854 1025 855
f 855 1025 1026
f 1028 903 1027
f 1027 903 902
f 1030 1031 1029
f 1029 1031 1032
f 889 888 814
f 814 888 1033
f 1034 811 1033
f 1033 811 814
f 1035 1036 932
f 932 1036 933
f 841 947 911
f 911 947 917
f 844 948 841
f 841 948 947
f 951 948 907
f 907 948 844
f 907 906 951
f 951 906 1037
f 906 1038 1037
f 1037 1038 1039
f 991 912 1040
f 1040 912 915
f 1041 1042 964
f 964 1042 965
f 890 1043 891
f 891 1043 1044
f 789 1045 1046
f 1012 1011 1008
f 1008 1011 972
f 931 1047 848
f 848 1047 845
f 953 956 943
f 943 956 919
f 928 931 872
f 872 931 848
f 1049 999 1048
f 1048 999 985
f 1047 931 1050
f 1050 931 930
f 899 823 887
f 887 823 886
f 825 828 934
f 934 828 935
f 835 1051 836
f 836 1051 1052
f 923 1053 1038
f 1038 1053 1039
f 1054 927 921
f 921 927 856
f 926 1047 853
f 853 1047 1050
f 985 1055 1048
f 1048 1055 1056
f 973 974 827
f 827 974 828
f 837 913 838
f 838 913 912
f 861 882 980
f 980 882 1057
f 927 926 856
f 856 926 853
f 1025 1056 1026
f 1026 1056 1055
f 961 960 862
f 862 960 859
f 826 1017 1059
f 1059 1017 1060
f 1005 1001 1061
f 1061 1001 1000
f 1001 1004 1002
f 1002 1004 946
f 1059 1060 1002
f 1002 1060 1003
f 943 946 953
f 953 946 1004
f 1042 1041 916
f 916 1041 1007
f 792 794 906
f 906 794 1038
f 998 1006 996
f 996 1006 1008
f 865 1005 1062
f 1062 1005 1061
f 1038 794 923
f 923 794 924
f 1022 876 1036
f 1036 876 933
f 836 1052 934
f 934 1052 1024
f 885 1063 829
f 829 1063 833
f 1021 1064 938
f 938 1064 874
f 1012 1015 867
f 867 1015 868
f 824 910 885
f 885 910 1063
f 1031 1030 1027
f 1027 1030 1028
f 1064 804 874
f 874 804 803
f 884 883 1065
f 1065 883 1066
f 1050 930 1067
f 1067 930 1007
f 916 929 917
f 917 929 911
f 961 1068 939
f 939 1068 940
f 1069 1070 1055
f 1055 1070 1071
f 929 928 911
f 911 928 872
f 1040 1053 955
f 955 1053 965
f 922 965 923
f 923 965 1053
f 1051 835 1062
f 1062 835 865
f 952 914 968
f 968 914 913
f 889 895 890
f 890 895 816
f 895 897 816
f 816 897 901
f 890 816 1043
f 1043 816 815
f 1065 1066 1032
f 1032 1066 1029
f 1006 937 1009
f 1009 937 793
f 1001 1005 1004
f 1004 1005 992
f 925 845 926
f 926 845 1047
f 1002 946 1059
f 1059 946 945
f 977 941 978
f 978 941 940
f 823 824 886
f 886 824 885
f 1059 945 826
f 826 945 827
f 939 942 1069
f 1069 942 1070
f 816 901 817
f 1071 1072 1055
f 1055 1072 1026
f 1062 1061 1074
f 1074 1061 1073
f 1062 1074 1051
f 1051 1074 1075
f 1052 1051 1076
f 1076 1051 1075
f 1024 1052 1077
f 1077 1052 1076
f 1061 1000 1073
f 1073 1000 1078
f 1000 1003 1078
f 1078 1003 1079
f 1079 1003 1080
f 1080 1003 1060
f 1081 1082 1078
f 1078 1082 1073
f 1084 1085 1083
f 1083 1085 1086
f 1087 1088 1086
f 1086 1088 1083
f 1086 1085 1090
f 1090 1085 1089
f 1091 1092 1090
f 1090 1092 1093
f 1089 1094 1090
f 1090 1094 1091
f 1095 1082 1089
f 1089 1082 1094
f 1093 1087 1090
f 1090 1087 1086
f 1096 1097 1099
f 1099 1097 1098
f 1097 1096 1087
f 1087 1096 1088
f 1089 1085 1095
f 1095 1085 1084
f 1084 1075 1095
f 1095 1075 1074
f 1084 1100 1075
f 1075 1100 1076
f 1083 1101 1084
f 1084 1101 1100
f 1101 1083 1102
f 1102 1083 1088
f 1082 1095 1073
f 1073 1095 1074
f 1096 1103 1088
f 1088 1103 1102
f 1101 1102 1104
f 1104 1102 1105
f 1102 1103 1105
f 1105 1103 1106
f 1104 1105 1107
f 1107 1105 1108
f 1107 1109 1104
f 1104 1109 1110
f 1111 1108 1106
f 1106 1108 1105
f 1101 1104 1100
f 1100 1104 1110
f 1100 1110 1076
f 1076 1110 1077
f 1103 1096 1112
f 1112 1096 1099
f 1091 1094 1113
f 1113 1094 1082
f 1113 1114 1091
f 1091 1114 1092
f 1082 1081 1113
f 1113 1081 1115
f 1114 1113 1116
f 1116 1113 1115
f 1114 1117 1092
f 1092 1117 1118
f 1024 1077 1016
f 1016 1077 1119
f 1017 1120 1060
f 1060 1120 1080
f 1120 1017 1119
f 1119 1017 1016
f 1119 1109 1120
f 1120 1109 1121
f 1109 1107 1121
f 1121 1107 1122
f 1120 1121 1080
f 1080 1121 1123
f 1119 1077 1109
f 1109 1077 1110
f 1124 1079 1123
f 1123 1079 1080
f 1124 1081 1079
f 1079 1081 1078
f 1125 1115 1124
f 1124 1115 1081
f 1125 1124 1126
f 1126 1124 1123
f 1127 1125 1128
f 1128 1125 1126
f 1121 1122 1123
f 1123 1122 1126
f 1122 1129 1126
f 1126 1129 1128
f 1115 1125 1116
f 1116 1125 1127
f 1131 1116 1130
f 1130 1116 1127
f 1130 1133 1132
f 1132 1133 1134
f 1130 1127 1133
f 1133 1127 1128
f 1130 1132 1131
f 1131 1132 1112
f 1131 1112 1117
f 1117 1112 1099
f 1117 1114 1131
f 1131 1114 1116
f 1107 1108 1122
f 1122 1108 1129
f 1134 1129 1111
f 1111 1129 1108
f 1134 1133 1129
f 1129 1133 1128
f 1132 1134 1106
f 1106 1134 1111
f 1106 1103 1132
f 1132 1103 1112
f 1087 1093 1097
f 1097 1093 1098
f 1098 1118 1099
f 1099 1118 1117
f 1098 1093 1118
f 1118 1093 1092
f 915 914 1039
f 1039 914 1037
f 918 944 919
f 919 944 943
f 950 949 973
f 973 949 974
f 949 952 974
f 974 952 968
f 956 955 1042
f 1042 955 965
f 950 973 918
f 918 973 944
f 915 1039 1040
f 1040 1039 1053
f 956 1042 919
f 919 1042 916
f 1040 955 991
f 991 955 954
f 914 952 1037
f 1037 952 951
f 1136 1137 1135
f 1135 1137 1138
f 1140 1141 1139
f 1139 1141 1142
f 1139 1142 1143
f 1143 1142 1144
f 1145 1146 1148
f 1148 1146 1147
f 854 1149 1025
f 1025 1149 1150
f 1151 1152 1140
f 1140 1152 1141
f 1154 1155 1153
f 1153 1155 1156
f 1067 1007 1158
f 1158 1007 1157
f 1159 1157 1041
f 1041 1157 1007
f 1161 1162 1160
f 1160 1162 1163
f 1164 1146 1152
f 1152 1146 1141
f 854 1067 1149
f 1149 1067 1158
f 1155 1154 1137
f 1137 1154 1165
f 1166 1164 1138
f 1138 1164 1152
f 1167 1161 1144
f 1144 1161 1168
f 1170 1171 1169
f 1169 1171 1172
f 1161 1160 1168
f 1168 1160 1173
f 1174 1143 1168
f 1168 1143 1144
f 1167 1144 1145
f 1145 1144 1142
f 1135 1175 1136
f 1136 1175 1176
f 1151 1177 1135
f 1135 1177 1175
f 1167 1145 1178
f 1178 1145 1148
f 1160 1163 1153
f 1153 1163 1150
f 1135 1138 1151
f 1151 1138 1152
f 1139 1179 1140
f 1140 1179 1180
f 1165 1166 1137
f 1137 1166 1138
f 1141 1146 1142
f 1142 1146 1145
f 1136 1176 1181
f 1181 1176 1182
f 1174 1170 1183
f 1183 1170 1169
f 1170 1173 1171
f 1171 1173 1156
f 1171 1181 1172
f 1172 1181 1182
f 1153 1156 1160
f 1160 1156 1173
f 1143 1174 1184
f 1184 1174 1183
f 1140 1180 1151
f 1151 1180 1177
f 1049 1048 1178
f 1178 1048 1162
f 1179 1139 1184
f 1184 1139 1143
f 1159 1147 1164
f 1164 1147 1146
f 1170 1174 1173
f 1173 1174 1168
f 1171 1156 1181
f 1181 1156 1155
f 1181 1155 1136
f 1136 1155 1137
f 1184 1183 1186
f 1186 1183 1185
f 1184 1186 1179
f 1179 1186 1187
f 1179 1187 1180
f 1180 1187 1188
f 1180 1188 1177
f 1177 1188 1189
f 1183 1169 1185
f 1185 1169 1190
f 1169 1172 1190
f 1190 1172 1191
f 1172 1182 1191
f 1191 1182 1192
f 1193 1194 1190
f 1190 1194 1185
f 1196 1197 1195
f 1195 1197 1198
f 1199 1200 1196
f 1196 1200 1197
f 1197 1200 1202
f 1202 1200 1201
f 1203 1204 1202
f 1202 1204 1205
f 1201 1206 1202
f 1202 1206 1203
f 1205 1198 1202
f 1202 1198 1197
f 1198 1207 1195
f 1195 1207 1208
f 1201 1200 1209
f 1209 1200 1199
f 1199 1187 1209
f 1209 1187 1186
f 1199 1210 1187
f 1187 1210 1188
f 1196 1211 1199
f 1199 1211 1210
f 1212 1211 1195
f 1195 1211 1196
f 1209 1194 1201
f 1201 1194 1206
f 1194 1209 1185
f 1185 1209 1186
f 1213 1212 1208
f 1208 1212 1195
f 1211 1212 1214
f 1214 1212 1215
f 1212 1213 1215
f 1215 1213 1216
f 1214 1215 1217
f 1217 1215 1218
f 1217 1219 1214
f 1214 1219 1220
f 1216 1221 1215
f 1215 1221 1218
f 1214 1220 1211
f 1211 1220 1210
f 1210 1220 1188
f 1188 1220 1189
f 1213 1208 1223
f 1223 1208 1222
f 1208 1207 1222
f 1222 1207 1224
f 1203 1206 1225
f 1225 1206 1194
f 1204 1203 1226
f 1226 1203 1225
f 1194 1193 1225
f 1225 1193 1227
f 1225 1227 1226
f 1226 1227 1228
f 1229 1230 1226
f 1226 1230 1204
f 1224 1230 1222
f 1222 1230 1229
f 1177 1189 1175
f 1175 1189 1231
f 1176 1232 1182
f 1182 1232 1192
f 1232 1176 1231
f 1231 1176 1175
f 1231 1219 1232
f 1232 1219 1233
f 1219 1217 1233
f 1233 1217 1234
f 1232 1233 1192
f 1192 1233 1235
f 1219 1231 1220
f 1220 1231 1189
f 1236 1191 1235
f 1235 1191 1192
f 1236 1193 1191
f 1191 1193 1190
f 1236 1237 1193
f 1193 1237 1227
f 1237 1236 1238
f 1238 1236 1235
f 1239 1237 1240
f 1240 1237 1238
f 1233 1234 1235
f 1235 1234 1238
f 1234 1241 1238
f 1238 1241 1240
f 1237 1239 1227
f 1227 1239 1228
f 1243 1228 1242
f 1242 1228 1239
f 1242 1245 1244
f 1244 1245 1246
f 1242 1239 1245
f 1245 1239 1240
f 1242 1244 1243
f 1243 1244 1223
f 1243 1223 1229
f 1229 1223 1222
f 1229 1226 1243
f 1243 1226 1228
f 1217 1218 1234
f 1234 1218 1241
f 1246 1241 1221
f 1221 1241 1218
f 1246 1245 1241
f 1241 1245 1240
f 1244 1246 1216
f 1216 1246 1221
f 1216 1213 1244
f 1244 1213 1223
f 1198 1205 1207
f 1207 1205 1224
f 1224 1205 1230
f 1230 1205 1204
f 1148 1147 966
f 966 1147 964
f 1149 1154 1150
f 1150 1154 1153
f 1158 1157 1165
f 1165 1157 1166
f 1157 1159 1166
f 1166 1159 1164
f 1163 1162 1056
f 1056 1162 1048
f 1158 1165 1149
f 1149 1165 1154
f 1178 1148 1049
f 1049 1148 966
f 1163 1056 1150
f 1150 1056 1025
f 1178 1162 1167
f 1167 1162 1161
f 1147 1159 964
f 964 1159 1041
f 999 1049 922
f 922 1049 966
f 999 797 985
f 985 797 800
f 797 796 800
f 800 796 801
f 796 997 801
f 801 997 986
f 1247 1248 1250
f 1250 1248 1249
f 1252 1253 1251
f 1251 1253 1254
f 1251 1254 1255
f 1255 1254 1256
f 1258 1259 1257
f 1257 1259 1260
f 1261 1262 1252
f 1252 1262 1253
f 1264 1265 1263
f 1263 1265 1266
f 1267 1268 855
f 855 1268 920
f 1269 1267 1026
f 1026 1267 855
f 1271 1272 1270
f 1270 1272 1273
f 1274 1258 1262
f 1262 1258 1253
f 1264 1275 1265
f 1265 1275 1249
f 1276 1274 1250
f 1250 1274 1262
f 1277 1271 1256
f 1256 1271 1278
f 1279 1280 1282
f 1282 1280 1281
f 1271 1270 1278
f 1278 1270 1283
f 1284 1255 1278
f 1278 1255 1256
f 1277 1256 1257
f 1257 1256 1254
f 1247 1285 1248
f 1248 1285 1286
f 1261 1287 1247
f 1247 1287 1285
f 1257 1260 1277
f 1277 1260 1288
f 1270 1273 1263
f 1263 1273 1289
f 1261 1247 1262
f 1262 1247 1250
f 1251 1290 1252
f 1252 1290 1291
f 1275 1276 1249
f 1249 1276 1250
f 1253 1258 1254
f 1254 1258 1257
f 1248 1286 1292
f 1292 1286 1293
f 1284 1280 1294
f 1294 1280 1279
f 1281 1280 1266
f 1266 1280 1283
f 1292 1293 1281
f 1281 1293 1282
f 1263 1266 1270
f 1270 1266 1283
f 1255 1284 1295
f 1295 1284 1294
f 1252 1291 1261
f 1261 1291 1287
f 1288 1070 1272
f 1272 1070 942
f 1290 1251 1295
f 1295 1251 1255
f 1269 1259 1274
f 1274 1259 1258
f 1280 1284 1283
f 1283 1284 1278
f 1281 1266 1292
f 1292 1266 1265
f 1292 1265 1248
f 1248 1265 1249
f 1295 1294 1297
f 1297 1294 1296
f 1295 1297 1290
f 1290 1297 1298
f 1290 1298 1291
f 1291 1298 1299
f 1291 1299 1287
f 1287 1299 1300
f 1294 1279 1296
f 1296 1279 1301
f 1279 1282 1301
f 1301 1282 1302
f 1302 1282 1303
f 1303 1282 1293
f 1304 1305 1301
f 1301 1305 1296
f 1307 1308 1306
f 1306 1308 1309
f 1310 1311 1307
f 1307 1311 1308
f 1308 1311 1313
f 1313 1311 1312
f 1314 1315 1313
f 1313 1315 1316
f 1312 1317 1313
f 1313 1317 1314
f 1316 1309 1313
f 1313 1309 1308
f 1318 1319 1309
f 1309 1319 1306
f 1311 1310 1312
f 1312 1310 1320
f 1310 1298 1320
f 1320 1298 1297
f 1310 1321 1298
f 1298 1321 1299
f 1307 1322 1310
f 1310 1322 1321
f 1322 1307 1323
f 1323 1307 1306
f 1312 1320 1317
f 1317 1320 1305
f 1305 1320 1296
f 1296 1320 1297
f 1319 1324 1306
f 1306 1324 1323
f 1325 1322 1326
f 1326 1322 1323
f 1324 1327 1323
f 1323 1327 1326
f 1328 1325 1329
f 1329 1325 1326
f 1325 1328 1331
f 1331 1328 1330
f 1327 1332 1326
f 1326 1332 1329
f 1322 1325 1321
f 1321 1325 1331
f 1321 1331 1299
f 1299 1331 1300
f 1324 1319 1334
f 1334 1319 1333
f 1319 1318 1333
f 1333 1318 1335
f 1314 1317 1336
f 1336 1317 1305
f 1315 1314 1337
f 1337 1314 1336
f 1305 1304 1336
f 1336 1304 1338
f 1337 1336 1339
f 1339 1336 1338
f 1337 1340 1315
f 1315 1340 1341
f 1335 1341 1333
f 1333 1341 1340
f 1287 1300 1285
f 1285 1300 1342
f 1286 1343 1293
f 1293 1343 1303
f 1343 1286 1342
f 1342 1286 1285
f 1342 1330 1343
f 1343 1330 1344
f 1330 1328 1344
f 1344 1328 1345
f 1343 1344 1303
f 1303 1344 1346
f 1342 1300 1330
f 1330 1300 1331
f 1347 1302 1346
f 1346 1302 1303
f 1347 1304 1302
f 1302 1304 1301
f 1348 1338 1347
f 1347 1338 1304
f 1348 1347 1349
f 1349 1347 1346
f 1350 1348 1351
f 1351 1348 1349
f 1344 1345 1346
f 1346 1345 1349
f 1345 1352 1349
f 1349 1352 1351
f 1348 1350 1338
f 1338 1350 1339
f 1354 1339 1353
f 1353 1339 1350
f 1353 1356 1355
f 1355 1356 1357
f 1353 1350 1356
f 1356 1350 1351
f 1353 1355 1354
f 1354 1355 1334
f 1354 1334 1340
f 1340 1334 1333
f 1340 1337 1354
f 1354 1337 1339
f 1328 1329 1345
f 1345 1329 1352
f 1357 1352 1332
f 1332 1352 1329
f 1357 1356 1352
f 1352 1356 1351
f 1357 1332 1355
f 1355 1332 1327
f 1327 1324 1355
f 1355 1324 1334
f 1309 1316 1318
f 1318 1316 1335
f 1335 1316 1341
f 1341 1316 1315
f 1259 1072 1260
f 1260 1072 1071
f 1358 1264 1289
f 1289 1264 1263
f 1268 1267 1275
f 1275 1267 1276
f 1267 1269 1276
f 1276 1269 1274
f 941 1273 942
f 942 1273 1272
f 1358 1268 1264
f 1264 1268 1275
f 1260 1071 1288
f 1288 1071 1070
f 1273 941 1289
f 1289 941 977
f 1272 1271 1288
f 1288 1271 1277
f 1259 1269 1072
f 1072 1269 1026
f 1360 1361 1359
f 1359 1361 1362
f 1364 1365 1363
f 1363 1365 1366
f 1363 1366 1367
f 1367 1366 1368
f 1370 1371 1369
f 1369 1371 1372
f 1373 1374 1376
f 1376 1374 1375
f 1377 1378 1364
f 1364 1378 1365
f 1379 1380 1382
f 1382 1380 1381
f 1383 1384 1386
f 1386 1384 1385
f 1387 1385 978
f 978 1385 1384
f 1388 1389 1391
f 1391 1389 1390
f 1378 1392 1365
f 1365 1392 1370
f 1374 1383 1375
f 1375 1383 1386
f 1380 1393 1381
f 1381 1393 1361
f 1394 1392 1362
f 1362 1392 1378
f 1389 1396 1395
f 1395 1396 1368
f 1398 1399 1397
f 1397 1399 1400
f 1388 1401 1389
f 1389 1401 1396
f 1402 1367 1396
f 1396 1367 1368
f 1395 1368 1369
f 1369 1368 1366
f 1359 1403 1360
f 1360 1403 1404
f 1377 1405 1359
f 1359 1405 1403
f 1369 1372 1395
f 1395 1372 1406
f 1379 1388 1376
f 1376 1388 1391
f 1359 1362 1377
f 1377 1362 1378
f 1363 1407 1364
f 1364 1407 1408
f 1393 1394 1361
f 1361 1394 1362
f 1365 1370 1366
f 1366 1370 1369
f 1360 1404 1409
f 1409 1404 1410
f 1402 1398 1411
f 1411 1398 1397
f 1399 1398 1382
f 1382 1398 1401
f 1409 1410 1399
f 1399 1410 1400
f 1388 1379 1401
f 1401 1379 1382
f 1367 1402 1412
f 1412 1402 1411
f 1364 1408 1377
f 1377 1408 1405
f 981 980 1406
f 1406 980 1390
f 1407 1363 1412
f 1412 1363 1367
f 1387 1371 1392
f 1392 1371 1370
f 1398 1402 1401
f 1401 1402 1396
f 1409 1399 1381
f 1381 1399 1382
f 1360 1409 1361
f 1361 1409 1381
f 1412 1411 1414
f 1414 1411 1413
f 1412 1414 1407
f 1407 1414 1415
f 1407 1415 1408
f 1408 1415 1416
f 1408 1416 1405
f 1405 1416 1417
f 1411 1397 1413
f 1413 1397 1418
f 1397 1400 1418
f 1418 1400 1419
f 1419 1400 1420
f 1420 1400 1410
f 1422 1413 1421
f 1421 1413 1418
f 1423 1424 1426
f 1426 1424 1425
f 1427 1428 1424
f 1424 1428 1425
f 1425 1428 1430
f 1430 1428 1429
f 1430 1431 1433
f 1433 1431 1432
f 1429 1434 1430
f 1430 1434 1431
f 1433 1426 1430
f 1430 1426 1425
f 1426 1435 1423
f 1423 1435 1436
f 1428 1427 1429
f 1429 1427 1437
f 1427 1415 1437
f 1437 1415 1414
f 1427 1438 1415
f 1415 1438 1416
f 1439 1438 1424
f 1424 1438 1427
f 1440 1439 1423
f 1423 1439 1424
f 1429 1437 1434
f 1434 1437 1422
f 1422 1437 1413
f 1413 1437 1414
f 1441 1440 1436
f 1436 1440 1423
f 1442 1439 1443
f 1443 1439 1440
f 1441 1444 1440
f 1440 1444 1443
f 1445 1442 1446
f 1446 1442 1443
f 1442 1445 1448
f 1448 1445 1447
f 1444 1449 1443
f 1443 1449 1446
f 1439 1442 1438
f 1438 1442 1448
f 1438 1448 1416
f 1416 1448 1417
f 1436 1450 1441
f 1441 1450 1451
f 1436 1435 1450
f 1450 1435 1452
f 1431 1434 1453
f 1453 1434 1422
f 1431 1453 1432
f 1432 1453 1454
f 1453 1422 1455
f 1455 1422 1421
f 1454 1453 1456
f 1456 1453 1455
f 1457 1458 1454
f 1454 1458 1432
f 1452 1458 1450
f 1450 1458 1457
f 1405 1417 1403
f 1403 1417 1459
f 1404 1460 1410
f 1410 1460 1420
f 1459 1460 1403
f 1403 1460 1404
f 1447 1461 1459
f 1459 1461 1460
f 1445 1462 1447
f 1447 1462 1461
f 1460 1461 1420
f 1420 1461 1463
f 1459 1417 1447
f 1447 1417 1448
f 1464 1419 1463
f 1463 1419 1420
f 1419 1464 1418
f 1418 1464 1421
f 1464 1465 1421
f 1421 1465 1455
f 1465 1464 1466
f 1466 1464 1463
f 1467 1465 1468
f 1468 1465 1466
f 1461 1462 1463
f 1463 1462 1466
f 1462 1469 1466
f 1466 1469 1468
f 1465 1467 1455
f 1455 1467 1456
f 1471 1456 1470
f 1470 1456 1467
f 1470 1473 1472
f 1472 1473 1474
f 1470 1467 1473
f 1473 1467 1468
f 1470 1472 1471
f 1471 1472 1451
f 1471 1451 1457
f 1457 1451 1450
f 1457 1454 1471
f 1471 1454 1456
f 1462 1445 1469
f 1469 1445 1446
f 1474 1469 1449
f 1449 1469 1446
f 1474 1473 1469
f 1469 1473 1468
f 1472 1474 1444
f 1444 1474 1449
f 1444 1441 1472
f 1472 1441 1451
f 1426 1433 1435
f 1435 1433 1452
f 1452 1433 1458
f 1458 1433 1432
f 1371 940 1372
f 1372 940 1068
f 1376 1375 1379
f 1379 1375 1380
f 1393 1386 1394
f 1394 1386 1385
f 1385 1387 1394
f 1394 1387 1392
f 1475 1373 1391
f 1391 1373 1376
f 1375 1386 1380
f 1380 1386 1393
f 1372 1068 1406
f 1406 1068 981
f 1406 1390 1395
f 1395 1390 1389
f 1371 1387 940
f 940 1387 978
f 883 807 1476
f 1476 807 1477
f 1046 904 1479
f 1479 904 1478
f 904 903 1478
f 1478 903 1480
f 1030 1481 1028
f 1028 1481 1482
f 810 1046 1483
f 1483 1046 1479
f 1066 883 1484
f 1484 883 1476
f 807 810 1477
f 1477 810 1483
f 1485 1029 1484
f 1484 1029 1066
f 1028 1482 903
f 903 1482 1480
f 1481 1030 1485
f 1485 1030 1029
f 1484 1486 1485
f 1485 1486 1487
f 1485 1487 1481
f 1481 1487 1488
f 1481 1488 1482
f 1482 1488 1489
f 1482 1489 1480
f 1480 1489 1490
f 1484 1476 1486
f 1486 1476 1491
f 1476 1477 1491
f 1491 1477 1492
f 1477 1483 1492
f 1492 1483 1493
f 1495 1486 1494
f 1494 1486 1491
f 1497 1498 1496
f 1496 1498 1499
f 1500 1501 1497
f 1497 1501 1498
f 1502 1503 1501
f 1501 1503 1498
f 1502 1504 1503
f 1503 1504 1505
f 1506 1499 1503
f 1503 1499 1498
f 1499 1506 1507
f 1507 1506 1508
f 1507 1509 1499
f 1499 1509 1496
f 1502 1501 1510
f 1510 1501 1500
f 1500 1488 1510
f 1510 1488 1487
f 1500 1511 1488
f 1488 1511 1489
f 1497 1512 1500
f 1500 1512 1511
f 1512 1497 1513
f 1513 1497 1496
f 1502 1510 1504
f 1504 1510 1495
f 1495 1510 1486
f 1486 1510 1487
f 1509 1514 1496
f 1496 1514 1513
f 1515 1512 1516
f 1516 1512 1513
f 1514 1517 1513
f 1513 1517 1516
f 1518 1515 1519
f 1519 1515 1516
f 1515 1518 1521
f 1521 1518 1520
f 1517 1522 1516
f 1516 1522 1519
f 1512 1515 1511
f 1511 1515 1521
f 1511 1521 1489
f 1489 1521 1490
f 1514 1509 1524
f 1524 1509 1523
f 1509 1507 1523
f 1523 1507 1508
f 1505 1504 1525
f 1525 1504 1495
f 1526 1505 1527
f 1527 1505 1525
f 1525 1495 1528
f 1528 1495 1494
f 1527 1525 1529
f 1529 1525 1528
f 1527 1530 1526
f 1526 1530 1531
f 1508 1531 1523
f 1523 1531 1530
f 1506 1503 1526
f 1526 1503 1505
f 1508 1506 1531
f 1531 1506 1526
f 1478 1480 1532
f 1532 1480 1490
f 1483 1479 1493
f 1493 1479 1533
f 1532 1533 1478
f 1478 1533 1479
f 1520 1534 1532
f 1532 1534 1533
f 1518 1535 1520
f 1520 1535 1534
f 1533 1534 1493
f 1493 1534 1536
f 1532 1490 1520
f 1520 1490 1521
f 1537 1492 1536
f 1536 1492 1493
f 1492 1537 1491
f 1491 1537 1494
f 1537 1538 1494
f 1494 1538 1528
f 1538 1537 1539
f 1539 1537 1536
f 1540 1538 1541
f 1541 1538 1539
f 1534 1535 1536
f 1536 1535 1539
f 1535 1542 1539
f 1539 1542 1541
f 1538 1540 1528
f 1528 1540 1529
f 1544 1529 1543
f 1543 1529 1540
f 1545 1543 1547
f 1547 1543 1546
f 1543 1540 1546
f 1546 1540 1541
f 1543 1545 1544
f 1544 1545 1524
f 1544 1524 1530
f 1530 1524 1523
f 1530 1527 1544
f 1544 1527 1529
f 1535 1518 1542
f 1542 1518 1519
f 1547 1542 1522
f 1522 1542 1519
f 1547 1546 1542
f 1542 1546 1541
f 1545 1547 1517
f 1517 1547 1522
f 1517 1514 1545
f 1545 1514 1524
f 997 995 986
f 986 995 987
f 987 995 988
f 988 995 971
f 976 1358 977
f 977 1358 1289
f 854 853 1067
f 1067 853 1050
f 1055 985 1069
f 1069 985 962
f 1068 961 981
f 981 961 862
f 1268 1358 920
f 920 1358 976
f 920 976 921
f 921 976 975
f 927 1054 850
f 850 1054 851
f 882 881 1057
f 1057 881 1548
f 1548 1374 1057
f 1057 1374 1373
f 1383 1374 1549
f 1549 1374 1548
f 1549 1548 1550
f 1550 1548 881
f 1550 881 1551
f 1551 881 880
f 933 1552 879
f 879 1552 880
f 1551 880 875
f 875 880 1552
f 1553 1551 878
f 878 1551 875
f 1551 1553 1550
f 1550 1553 1554
f 1550 1554 1549
f 1549 1554 1555
f 978 1384 975
f 975 1384 1555
f 967 849 1556
f 1556 849 852
f 875 1552 876
f 876 1552 933
f 961 939 962
f 962 939 1069
f 1555 1054 975
f 975 1054 921
f 1555 1384 1549
f 1549 1384 1383
f 1391 1390 1475
f 1475 1390 980
f 1373 1475 1057
f 1057 1475 980
f 851 1054 1554
f 1554 1054 1555
f 1554 1553 851
f 851 1553 852
f 878 1556 1553
f 1553 1556 852
f 1556 878 967
f 967 878 877
f 1023 1020 877
f 877 1020 967
f 909 811 1034
f 806 779 873
f 873 779 840
f 805 780 806
f 806 780 779
f 1043 893 1044
f 1044 893 892
f 873 840 847
f 847 840 842
f 840 839 842
f 842 839 843
f 839 791 843
f 843 791 908
f 791 790 908
f 908 790 792
f 809 789 810
f 810 789 1046
f 793 790 809
f 809 790 789
f 809 808 793
f 793 808 1009
f 808 884 1009
f 1009 884 1010
f 1065 1015 884
f 884 1015 1010
f 1032 868 1065
f 1065 868 1015
f 1031 822 1032
f 1032 822 868
f 1031 1027 822
f 822 1027 785
f 1045 905 1046
f 1046 905 904
f 788 781 1019
f 1019 781 894
f 781 780 894
f 894 780 892
f 780 805 892
f 892 805 1044
f 805 804 1044
f 1044 804 891
f 804 1064 891
f 891 1064 888
f 1064 1021 888
f 888 1021 1033
f 1021 1020 1033
f 1033 1020 1034
f 1020 1023 1034
f 1034 1023 909
f 1023 1022 909
f 909 1022 910
f 1043 815 893
f 893 815 819
f 819 815 820
f 820 815 818
f 870 869 818
f 818 869 820
f 1014 1011 870
f 870 1011 869
f 969 972 1014
f 1014 972 1011
f 1036 1063 1022
f 1022 1063 910
f 1035 833 1036
f 1036 833 1063
f 1035 932 979
f 979 932 963
f 834 979 982
f 982 979 958
f 833 1035 834
f 834 1035 979
f 982 863 834
f 834 863 830
f 864 900 831
f 831 900 857
f 990 993 864
f 864 993 900
f 989 994 990
f 990 994 993
f 970 1058 989
f 989 1058 994
f 969 1018 970
f 970 1018 1058
f 1027 902 785
f 785 902 786
f 902 905 786
f 786 905 1019
f 905 1045 1019
f 1019 1045 788
f 788 1045 787
f 787 1045 789
