o hand_left
v -0.075378 0.293317 1.112443
v -0.079169 0.302288 1.118453
v -0.070225 0.297130 1.120733
v -0.066640 0.289540 1.113670
v -0.070759 0.315700 1.134046
v -0.063695 0.326068 1.133329
v -0.053114 0.313410 1.133594
v -0.061392 0.306749 1.135098
v -0.059614 0.286553 1.112784
v -0.063183 0.292703 1.121793
v -0.056525 0.287478 1.109657
v -0.054214 0.283933 1.095911
v -0.056730 0.282093 1.102463
v -0.053807 0.278610 1.088989
v -0.056834 0.292124 1.088458
v -0.058822 0.279739 1.080504
v -0.084613 0.295044 1.079229
v -0.098020 0.294047 1.081413
v -0.094772 0.277675 1.077199
v -0.081225 0.280047 1.076165
v -0.113326 0.280961 1.086850
v -0.103181 0.278246 1.081150
v -0.106755 0.294721 1.084060
v -0.115785 0.296105 1.088999
v -0.090802 0.297461 1.113232
v -0.094603 0.306756 1.117688
v -0.089204 0.305851 1.116717
v -0.085392 0.297046 1.112519
v -0.048408 0.291578 1.111875
v -0.050884 0.300407 1.102217
v -0.053373 0.292804 1.103297
v -0.051385 0.288626 1.115511
v -0.108871 0.326391 1.133882
v -0.111616 0.339516 1.131362
v -0.106057 0.341049 1.129754
v -0.104905 0.328744 1.131920
v -0.082671 0.340176 1.129526
v -0.089121 0.347293 1.125271
v -0.083474 0.356501 1.116844
v -0.076293 0.349150 1.117399
v -0.072946 0.333005 1.132522
v -0.067104 0.341327 1.122948
v -0.057437 0.332048 1.124956
v -0.046854 0.317245 1.127327
v -0.124324 0.336851 1.131821
v -0.124066 0.326846 1.134225
v -0.043452 0.235186 1.100601
v -0.048580 0.233592 1.103228
v -0.049798 0.237045 1.101847
v -0.044544 0.237945 1.099288
v -0.137365 0.329471 1.117932
v -0.138346 0.330738 1.107830
v -0.140418 0.337003 1.111065
v -0.137793 0.336722 1.120206
v -0.136626 0.319875 1.115011
v -0.134825 0.322037 1.103886
v -0.041187 0.227730 1.090213
v -0.039229 0.231064 1.093713
v -0.040778 0.234070 1.090232
v -0.043513 0.231167 1.086594
v -0.062672 0.282816 1.106823
v -0.071620 0.284851 1.108835
v -0.059981 0.267149 1.099708
v -0.065616 0.273894 1.102400
v -0.059280 0.276565 1.100737
v -0.055478 0.270972 1.097269
v -0.089052 0.275499 1.106447
v -0.091460 0.286670 1.109629
v -0.085058 0.285906 1.108063
v -0.080599 0.273966 1.104991
v -0.104493 0.285265 1.115356
v -0.101149 0.274358 1.111415
v -0.108900 0.274622 1.115190
v -0.109674 0.282250 1.118217
v -0.093197 0.256879 1.103034
v -0.091264 0.250383 1.100196
v -0.094138 0.249822 1.101041
v -0.096743 0.256945 1.103995
v -0.142289 0.343574 1.113077
v -0.137472 0.343861 1.121753
v -0.130730 0.282370 1.099620
v -0.135378 0.284492 1.109705
v -0.135478 0.272489 1.108167
v -0.130540 0.273303 1.097834
v -0.133199 0.331820 1.098695
v -0.137565 0.337862 1.101310
v -0.046198 0.224211 1.088977
v -0.048690 0.227724 1.085794
v -0.057850 0.334829 1.111871
v -0.044827 0.318336 1.117606
v -0.069483 0.345456 1.108471
v -0.078170 0.352006 1.105726
v -0.083479 0.359115 1.105001
v -0.070333 0.268956 1.102414
v -0.080108 0.288943 1.109520
v -0.095639 0.297370 1.114668
v -0.122622 0.289455 1.127693
v -0.124131 0.299660 1.130985
v -0.114025 0.297611 1.128170
v -0.114990 0.289206 1.125235
v -0.134242 0.282362 1.119259
v -0.127893 0.279736 1.123440
v -0.127070 0.270438 1.120607
v -0.133471 0.271957 1.116889
v -0.042445 0.296199 1.111366
v -0.048365 0.307576 1.102676
v -0.132644 0.328845 1.127518
v -0.131260 0.336571 1.128099
v -0.132046 0.345005 1.127305
v -0.100401 0.316947 1.126258
v -0.102070 0.330408 1.130710
v -0.097647 0.330773 1.130218
v -0.097825 0.317278 1.124557
v -0.082380 0.311593 1.126539
v -0.082452 0.323747 1.132492
v -0.073280 0.304422 1.129149
v -0.098913 0.344875 1.127885
v -0.107661 0.351231 1.130258
v -0.099695 0.354250 1.127292
v -0.117221 0.348820 1.131201
v -0.125899 0.346531 1.130501
v -0.142057 0.345151 1.101107
v -0.092632 0.356267 1.122998
v -0.055054 0.300569 1.134759
v -0.049918 0.295563 1.134818
v -0.054654 0.290785 1.130393
v -0.059781 0.294907 1.129756
v -0.052833 0.270871 1.084186
v -0.052193 0.271037 1.092079
v -0.054167 0.278837 1.096264
v -0.111653 0.315019 1.132910
v -0.124338 0.315910 1.133496
v -0.064391 0.262077 1.099567
v -0.045938 0.235774 1.084134
v -0.042654 0.238720 1.088156
v -0.048620 0.256668 1.084788
v -0.052152 0.253235 1.079815
v -0.066977 0.253299 1.094236
v -0.063106 0.257572 1.098287
v -0.062829 0.254953 1.097437
v -0.066451 0.249773 1.095495
v -0.102902 0.251693 1.104181
v -0.104929 0.257796 1.107196
v -0.078203 0.264403 1.076714
v -0.066381 0.270240 1.072235
v -0.069028 0.281653 1.075682
v -0.096119 0.275749 1.109060
v -0.094818 0.265470 1.106446
v -0.098855 0.265057 1.107701
v -0.072714 0.264795 1.101367
v -0.069435 0.258557 1.098543
v -0.074976 0.259989 1.098982
v -0.078140 0.265620 1.102150
v -0.136809 0.297446 1.110665
v -0.135801 0.295052 1.122078
v -0.040086 0.233998 1.097323
v -0.041239 0.236828 1.094970
v -0.098331 0.286731 1.112105
v -0.072987 0.295027 1.080518
v -0.100790 0.297083 1.116687
v -0.116922 0.259528 1.091728
v -0.118308 0.255774 1.097925
v -0.114555 0.249763 1.096966
v -0.113853 0.250512 1.091126
v -0.061334 0.235325 1.097358
v -0.057592 0.237671 1.101155
v -0.055469 0.234235 1.101706
v -0.058929 0.230814 1.098254
v -0.058383 0.261232 1.098470
v -0.053465 0.264594 1.096072
v -0.052395 0.258759 1.096302
v -0.057853 0.256527 1.097808
v -0.050453 0.264544 1.090248
v -0.048905 0.258900 1.090809
v -0.061786 0.232807 1.091227
v -0.057553 0.231589 1.084962
v -0.064694 0.247287 1.081252
v -0.066830 0.245804 1.088897
v -0.118526 0.310945 1.090022
v -0.127932 0.310105 1.096184
v -0.125460 0.295380 1.095328
v -0.123931 0.281230 1.093721
v -0.121093 0.267723 1.092916
v -0.112392 0.268129 1.084133
v -0.131808 0.296167 1.100503
v -0.073980 0.255803 1.086401
v -0.070120 0.258158 1.078885
v -0.076292 0.258524 1.080516
v -0.106921 0.295504 1.120720
v -0.042604 0.241107 1.093300
v -0.094199 0.348005 1.089243
v -0.107136 0.344550 1.087202
v -0.102640 0.337010 1.086429
v -0.087951 0.340545 1.089448
v -0.051321 0.240547 1.101774
v -0.045573 0.242126 1.099040
v -0.111259 0.255231 1.108293
v -0.108562 0.250183 1.104709
v -0.111404 0.248079 1.102658
v -0.116285 0.251152 1.107384
v -0.132342 0.311028 1.100202
v -0.135462 0.265668 1.106498
v -0.131290 0.266235 1.097483
v -0.129676 0.323121 1.096813
v -0.121766 0.324063 1.090912
v -0.124599 0.333395 1.091846
v -0.098744 0.261674 1.080326
v -0.110800 0.309497 1.086054
v -0.114589 0.323492 1.087978
v -0.117632 0.334639 1.088919
v -0.120663 0.342443 1.089276
v -0.127937 0.340273 1.092548
v -0.051699 0.232740 1.083423
v -0.055067 0.225631 1.087614
v -0.132580 0.348132 1.091940
v -0.123953 0.350240 1.088887
v -0.105635 0.323723 1.085465
v -0.094216 0.324058 1.084046
v -0.102264 0.310112 1.083942
v -0.090782 0.309332 1.082120
v -0.091400 0.265490 1.073464
v -0.051047 0.215115 1.101551
v -0.056284 0.222856 1.095466
v -0.056822 0.226584 1.100004
v -0.052878 0.217333 1.104832
v -0.059125 0.227595 1.093086
v -0.052543 0.222199 1.090995
v -0.076118 0.310082 1.084381
v -0.073270 0.255098 1.095642
v -0.077196 0.326538 1.089204
v -0.059554 0.305473 1.088972
v -0.059891 0.317554 1.094583
v -0.076346 0.343579 1.095611
v -0.062746 0.333162 1.099185
v -0.088774 0.357519 1.095616
v -0.083877 0.349975 1.094904
v -0.050643 0.321144 1.105086
v -0.042620 0.227505 1.107831
v -0.048133 0.226005 1.109057
v -0.098143 0.355484 1.089345
v -0.065554 0.298711 1.129363
v -0.106527 0.305626 1.125175
v -0.101987 0.306335 1.121789
v -0.124404 0.306036 1.132267
v -0.112884 0.305372 1.130163
v -0.038334 0.226640 1.104594
v -0.091284 0.246440 1.096321
v -0.092950 0.249165 1.096118
v -0.047874 0.305933 1.134718
v -0.044135 0.300942 1.134416
v -0.036437 0.301227 1.123134
v -0.038578 0.302282 1.130162
v -0.041765 0.309204 1.129190
v -0.039443 0.308961 1.121721
v -0.102551 0.316209 1.127766
v -0.105959 0.315066 1.129546
v -0.137026 0.309266 1.113139
v -0.135474 0.306348 1.124316
v -0.051452 0.263677 1.083703
v -0.057517 0.269535 1.076985
v -0.055708 0.261459 1.078368
v -0.058894 0.251457 1.077913
v -0.072328 0.253204 1.091367
v -0.069301 0.252846 1.088205
v -0.090829 0.327244 1.131216
v -0.091572 0.315686 1.124223
v -0.058915 0.290810 1.122017
v -0.055047 0.287729 1.122961
v -0.085992 0.267160 1.104052
v -0.092519 0.250872 1.082721
v -0.086465 0.254882 1.076902
v -0.083688 0.259069 1.100554
v -0.037651 0.220206 1.099018
v -0.036834 0.224140 1.102039
v -0.062308 0.260060 1.075754
v -0.106468 0.264554 1.111730
v -0.098998 0.255702 1.085162
v -0.093259 0.246538 1.089245
v -0.133062 0.266023 1.115249
v -0.110611 0.352800 1.087884
v -0.054161 0.230244 1.103625
v -0.052316 0.223107 1.108271
v -0.047987 0.214875 1.098423
v -0.042509 0.216966 1.096526
v -0.133325 0.316892 1.126409
v -0.098858 0.306340 1.119578
v -0.042688 0.309630 1.111071
v -0.038568 0.299270 1.115661
v -0.082759 0.254434 1.098386
v -0.123468 0.261871 1.095770
v -0.110617 0.258624 1.084458
v -0.107662 0.250095 1.084588
v -0.099955 0.249348 1.085075
v -0.094326 0.247900 1.090025
v -0.046364 0.211576 1.102980
v -0.040912 0.213568 1.101151
v -0.036156 0.217062 1.103472
v -0.035515 0.221017 1.105851
v -0.037901 0.224264 1.107759
v -0.049533 0.211806 1.106238
v -0.051065 0.214162 1.109083
v -0.051344 0.220436 1.110626
v -0.048545 0.210152 1.110918
v -0.043799 0.207632 1.110413
v -0.032557 0.213005 1.116955
v -0.034004 0.212967 1.111126
v -0.034538 0.210846 1.112878
v -0.033575 0.209962 1.117770
v -0.033285 0.207717 1.122504
v -0.031886 0.211015 1.122307
v -0.038220 0.209245 1.110361
v -0.037424 0.207443 1.116924
v -0.041535 0.206297 1.117336
v -0.040256 0.204267 1.122412
v -0.036494 0.205024 1.122139
v -0.041679 0.207297 1.112724
v -0.038632 0.209711 1.107923
v -0.033098 0.208476 1.126076
v -0.033561 0.206175 1.125031
v -0.036366 0.204276 1.125205
v -0.036579 0.205315 1.128142
v -0.034327 0.218980 1.110286
v -0.032730 0.215511 1.117856
v -0.033582 0.213455 1.123580
v -0.034668 0.210647 1.127149
v -0.035519 0.217400 1.120342
v -0.036075 0.214869 1.124458
v -0.037489 0.212479 1.127475
v -0.039408 0.218007 1.122214
v -0.039182 0.215237 1.125351
v -0.041134 0.223612 1.112175
v -0.037278 0.222974 1.110356
v -0.039283 0.213720 1.127507
v -0.037997 0.206788 1.129135
v -0.045138 0.207052 1.116606
v -0.043144 0.205530 1.123295
v -0.046993 0.208414 1.117475
v -0.045220 0.206543 1.124012
v -0.041192 0.203910 1.127021
v -0.039340 0.203734 1.125183
v -0.042640 0.225630 1.109446
v -0.048318 0.223821 1.110659
v -0.047206 0.222070 1.113062
v -0.044168 0.216972 1.122737
v -0.050247 0.218779 1.113454
v -0.050035 0.212751 1.113475
v -0.047945 0.210307 1.119684
v -0.047681 0.213326 1.121479
v -0.046009 0.208978 1.124614
v -0.045383 0.211453 1.125131
v -0.042728 0.214234 1.125963
v -0.043467 0.208522 1.127840
v -0.042549 0.205652 1.127655
v -0.039943 0.209638 1.128904
v -0.043846 0.210429 1.127368
v -0.041119 0.211777 1.127720
v -0.065422 0.228061 1.104307
v -0.071061 0.225748 1.106645
v -0.071707 0.227860 1.102693
v -0.066891 0.229641 1.100815
v -0.061024 0.219389 1.093656
v -0.060143 0.224181 1.097878
v -0.061709 0.226031 1.092724
v -0.064314 0.221179 1.088471
v -0.066550 0.214830 1.092305
v -0.070201 0.217532 1.087607
v -0.066768 0.225811 1.085124
v -0.064036 0.230370 1.090169
v -0.072790 0.249038 1.086304
v -0.075752 0.246175 1.080600
v -0.085745 0.245886 1.098948
v -0.087508 0.243237 1.096772
v -0.062303 0.227155 1.101703
v -0.063475 0.228838 1.097377
v -0.080528 0.226158 1.101195
v -0.076705 0.229437 1.103520
v -0.075969 0.225684 1.103974
v -0.078826 0.221396 1.101733
v -0.074965 0.250829 1.094533
v -0.080764 0.248826 1.097026
v -0.072962 0.250325 1.091105
v -0.082152 0.222257 1.095809
v -0.080291 0.220192 1.089386
v -0.088445 0.239197 1.083451
v -0.089951 0.238720 1.089811
v -0.064374 0.232664 1.095256
v -0.071362 0.231663 1.102881
v -0.067046 0.233357 1.100255
v -0.073793 0.222764 1.084859
v -0.076454 0.215069 1.092457
v -0.070052 0.208851 1.111115
v -0.076150 0.214023 1.101964
v -0.076711 0.217988 1.105453
v -0.071615 0.212111 1.114865
v -0.079060 0.217204 1.097706
v -0.072830 0.212621 1.097106
v -0.061627 0.222059 1.116615
v -0.067319 0.219731 1.118476
v -0.057747 0.221336 1.114139
v -0.082304 0.242782 1.079303
v -0.056297 0.214687 1.105939
v -0.055885 0.219416 1.110688
v -0.075362 0.222682 1.107230
v -0.070775 0.216049 1.117939
v -0.067014 0.207717 1.107736
v -0.061311 0.210304 1.103703
v -0.064075 0.205732 1.112597
v -0.058513 0.208064 1.109969
v -0.053787 0.213035 1.111794
v -0.054442 0.218038 1.115096
v -0.057013 0.220244 1.117252
v -0.067395 0.206740 1.115702
v -0.069473 0.210066 1.118841
v -0.069229 0.215251 1.120029
v -0.065972 0.206358 1.122630
v -0.061893 0.204452 1.121265
v -0.050222 0.213267 1.133484
v -0.050898 0.213117 1.127386
v -0.051569 0.210541 1.127718
v -0.050929 0.210499 1.133292
v -0.051470 0.211073 1.121227
v -0.052351 0.209417 1.123103
v -0.055857 0.206432 1.121915
v -0.055144 0.207221 1.128173
v -0.059809 0.205579 1.128271
v -0.058684 0.205057 1.133987
v -0.053986 0.206453 1.134111
v -0.059121 0.205078 1.123760
v -0.051222 0.209757 1.136892
v -0.051555 0.211562 1.138794
v -0.055789 0.206015 1.118482
v -0.052868 0.216704 1.119057
v -0.051669 0.216087 1.128143
v -0.051858 0.215828 1.134851
v -0.053966 0.213035 1.140070
v -0.054818 0.218403 1.129977
v -0.054712 0.217059 1.135941
v -0.056479 0.214204 1.139807
v -0.059331 0.219250 1.131535
v -0.058883 0.217148 1.137003
v -0.060952 0.220734 1.121030
v -0.056284 0.220103 1.119972
v -0.058474 0.215322 1.138916
v -0.054217 0.207690 1.140277
v -0.056434 0.209918 1.141590
v -0.053775 0.207051 1.138518
v -0.061963 0.205427 1.128446
v -0.060633 0.205719 1.134925
v -0.064444 0.206527 1.129511
v -0.062414 0.206703 1.136346
v -0.058572 0.205866 1.139282
v -0.057117 0.205484 1.138394
v -0.061173 0.220681 1.118685
v -0.066394 0.218615 1.119836
v -0.066308 0.218705 1.121731
v -0.064143 0.216765 1.132026
v -0.069134 0.214708 1.121970
v -0.068237 0.209357 1.123214
v -0.066295 0.208693 1.130084
v -0.066543 0.212535 1.131534
v -0.064195 0.207953 1.136798
v -0.064929 0.211098 1.135964
v -0.062631 0.215327 1.136875
v -0.061497 0.208452 1.140622
v -0.059802 0.206786 1.140235
v -0.058121 0.211415 1.141229
v -0.062875 0.210804 1.139311
v -0.060285 0.213437 1.139831
v -0.090171 0.226575 1.104048
v -0.095630 0.225739 1.106152
v -0.096576 0.228569 1.104371
v -0.091361 0.228927 1.101946
v -0.088804 0.220142 1.092928
v -0.086555 0.222569 1.096646
v -0.087949 0.225858 1.093610
v -0.090709 0.224549 1.089058
v -0.093307 0.216514 1.092707
v -0.096216 0.222336 1.087403
v -0.092489 0.229399 1.086544
v -0.089198 0.229535 1.091791
v -0.093323 0.244092 1.090298
v -0.097367 0.243093 1.084936
v -0.087513 0.225028 1.100620
v -0.088654 0.227580 1.098370
v -0.104907 0.228138 1.102957
v -0.100935 0.229947 1.105164
v -0.101485 0.226341 1.104266
v -0.104236 0.223680 1.101779
v -0.095176 0.247120 1.100643
v -0.101211 0.247571 1.102209
v -0.092829 0.245060 1.096369
v -0.106962 0.225986 1.096821
v -0.105360 0.225890 1.089498
v -0.110502 0.240577 1.089695
v -0.111125 0.241748 1.095701
v -0.089001 0.230418 1.097015
v -0.095920 0.231762 1.105009
v -0.090960 0.231701 1.102110
v -0.098810 0.228141 1.085993
v -0.102360 0.220124 1.091004
v -0.096794 0.205314 1.108144
v -0.103223 0.217121 1.098706
v -0.102958 0.220569 1.103660
v -0.097990 0.207890 1.111647
v -0.105077 0.220603 1.096909
v -0.099749 0.215673 1.094339
v -0.086534 0.215957 1.114409
v -0.092006 0.214910 1.115407
v -0.083898 0.215341 1.110801
v -0.104440 0.241736 1.084049
v -0.108262 0.244782 1.101111
v -0.083202 0.210117 1.105264
v -0.082677 0.213361 1.108234
v -0.100522 0.223475 1.105781
v -0.096638 0.211526 1.114489
v -0.093499 0.204863 1.104395
v -0.087781 0.207085 1.102397
v -0.092193 0.201249 1.109056
v -0.086285 0.203342 1.107494
v -0.081739 0.206580 1.109980
v -0.081730 0.210453 1.112620
v -0.083254 0.212777 1.114749
v -0.095757 0.202375 1.112503
v -0.096827 0.205230 1.115151
v -0.095806 0.210443 1.115527
v -0.095314 0.200908 1.116668
v -0.090585 0.198132 1.115536
v -0.080249 0.200623 1.129301
v -0.080603 0.202631 1.123683
v -0.081273 0.201603 1.123468
v -0.080827 0.199037 1.128792
v -0.081163 0.202865 1.116728
v -0.081768 0.201647 1.118290
v -0.084775 0.199467 1.116594
v -0.084634 0.197451 1.122903
v -0.090765 0.197375 1.122703
v -0.089638 0.195854 1.127607
v -0.083998 0.195428 1.128077
v -0.089175 0.198168 1.117331
v -0.081441 0.197340 1.131568
v -0.080088 0.198055 1.132756
v -0.084989 0.199779 1.113945
v -0.080449 0.207816 1.117406
v -0.080198 0.205410 1.124749
v -0.079791 0.203562 1.130522
v -0.081374 0.201277 1.134101
v -0.082558 0.208135 1.126184
v -0.082147 0.205671 1.131071
v -0.083474 0.203520 1.134260
v -0.085596 0.209275 1.127075
v -0.085257 0.206767 1.131253
v -0.086393 0.213137 1.118292
v -0.082750 0.211224 1.117982
v -0.085436 0.204637 1.133591
v -0.084012 0.195288 1.133513
v -0.086143 0.198381 1.135532
v -0.084027 0.195432 1.131780
v -0.092579 0.197747 1.122313
v -0.091719 0.195962 1.128754
v -0.094659 0.199576 1.123138
v -0.093626 0.197804 1.129489
v -0.089108 0.194833 1.132068
v -0.088243 0.194837 1.131203
v -0.086766 0.214198 1.115949
v -0.091894 0.213453 1.116359
v -0.091391 0.212658 1.118350
v -0.090385 0.208703 1.127678
v -0.095345 0.209818 1.117637
v -0.096280 0.203884 1.118978
v -0.095091 0.202517 1.124753
v -0.093898 0.205639 1.126757
v -0.093992 0.200527 1.130217
v -0.093045 0.203270 1.130114
v -0.089474 0.206413 1.131693
v -0.091220 0.199760 1.133245
v -0.090746 0.196795 1.133119
v -0.087353 0.201340 1.135317
v -0.091246 0.202269 1.132948
v -0.088256 0.203504 1.134346
v -0.105543 0.246645 1.102643
v -0.128706 0.228367 1.106911
v -0.131343 0.229252 1.110040
v -0.131155 0.232557 1.110238
v -0.127832 0.232237 1.107723
v -0.132938 0.230816 1.096585
v -0.129612 0.228826 1.099318
v -0.128223 0.233086 1.098960
v -0.131534 0.235041 1.096186
v -0.137778 0.232625 1.097150
v -0.136715 0.236663 1.097187
v -0.130650 0.238283 1.096013
v -0.126999 0.236824 1.099080
v -0.121504 0.251695 1.099073
v -0.125651 0.254771 1.096135
v -0.132562 0.261218 1.112910
v -0.127250 0.259906 1.115732
v -0.129231 0.252664 1.113410
v -0.133482 0.254592 1.111885
v -0.128301 0.228217 1.103054
v -0.126647 0.232057 1.103575
v -0.138586 0.239793 1.110977
v -0.134456 0.237869 1.112501
v -0.134704 0.233804 1.111971
v -0.139146 0.235000 1.111272
v -0.122410 0.257281 1.114077
v -0.118861 0.255711 1.111384
v -0.120247 0.251109 1.110051
v -0.124874 0.250567 1.112400
v -0.118389 0.249211 1.105205
v -0.140849 0.240754 1.107452
v -0.140683 0.241264 1.101463
v -0.136923 0.258204 1.103305
v -0.135902 0.257480 1.108211
v -0.125534 0.235157 1.103397
v -0.130445 0.236267 1.111247
v -0.127037 0.235170 1.108355
v -0.136364 0.240077 1.096638
v -0.141196 0.237067 1.101777
v -0.144616 0.224136 1.108081
v -0.142612 0.232942 1.107753
v -0.139600 0.231587 1.111434
v -0.142775 0.223660 1.110683
v -0.141662 0.236348 1.107585
v -0.142243 0.232932 1.101907
v -0.131052 0.220371 1.107564
v -0.134865 0.221975 1.111052
v -0.130485 0.220102 1.104244
v -0.132157 0.257092 1.096813
v -0.135072 0.221269 1.098306
v -0.131771 0.219804 1.100962
v -0.135106 0.230193 1.111650
v -0.139186 0.223021 1.111969
v -0.144433 0.224060 1.103424
v -0.140436 0.223571 1.098546
v -0.144868 0.219088 1.104228
v -0.140617 0.218898 1.099529
v -0.134731 0.216768 1.099975
v -0.131879 0.217168 1.102606
v -0.130831 0.217747 1.105629
v -0.145054 0.219797 1.108969
v -0.143191 0.220127 1.111476
v -0.139527 0.220662 1.112566
v -0.145205 0.215565 1.110026
v -0.144217 0.212824 1.106101
v -0.134445 0.203841 1.109372
v -0.133994 0.207387 1.107154
v -0.135149 0.207198 1.106748
v -0.135141 0.203423 1.108590
v -0.134940 0.211447 1.103452
v -0.136171 0.210329 1.104063
v -0.139512 0.211799 1.103502
v -0.139487 0.207068 1.106146
v -0.143855 0.208000 1.109284
v -0.143350 0.204130 1.110941
v -0.139726 0.203527 1.107778
v -0.143157 0.211118 1.105837
v -0.136240 0.200941 1.109377
v -0.135539 0.200127 1.110315
v -0.139790 0.213365 1.101998
v -0.131712 0.213365 1.105293
v -0.132164 0.207397 1.108994
v -0.133228 0.202882 1.111264
v -0.135515 0.200079 1.112678
v -0.131598 0.209090 1.110905
v -0.132742 0.203720 1.113427
v -0.135104 0.201146 1.114765
v -0.132439 0.210920 1.113658
v -0.133647 0.205449 1.115270
v -0.132070 0.217063 1.110970
v -0.130980 0.215068 1.108120
v -0.135333 0.202764 1.115568
v -0.139411 0.199401 1.110908
v -0.138686 0.199760 1.113832
v -0.139937 0.200268 1.109623
v -0.144633 0.208689 1.110308
v -0.144001 0.204058 1.112509
v -0.144844 0.209902 1.112568
v -0.143544 0.204608 1.114608
v -0.142356 0.200843 1.112647
v -0.142141 0.201568 1.110872
v -0.131815 0.218525 1.109472
v -0.135076 0.220030 1.111592
v -0.135678 0.218357 1.113074
v -0.135700 0.212299 1.115793
v -0.140213 0.218630 1.113680
v -0.143683 0.217321 1.112313
v -0.143352 0.211034 1.114672
v -0.140351 0.211944 1.116222
v -0.142097 0.205141 1.116241
v -0.139511 0.206445 1.117387
v -0.136172 0.206663 1.117149
v -0.140024 0.201892 1.115922
v -0.141265 0.200977 1.114759
v -0.137955 0.200958 1.115436
v -0.138740 0.203143 1.116802
v -0.137120 0.202965 1.116464
v -0.134845 0.260559 1.109459
v -0.041082 0.284850 1.119279
v -0.045407 0.282509 1.120660
v -0.048476 0.287223 1.137047
v -0.049929 0.282346 1.131755
v -0.043347 0.291981 1.138763
v -0.033963 0.295807 1.132160
v -0.038569 0.295400 1.136377
v -0.048250 0.280850 1.125648
v -0.036206 0.288875 1.119995
v -0.032779 0.293967 1.125020
v -0.032242 0.282256 1.124359
v -0.028182 0.288270 1.128854
v -0.028812 0.292288 1.134872
v -0.036294 0.294139 1.139219
v -0.041295 0.292643 1.140745
v -0.039734 0.280650 1.124329
v -0.044176 0.279510 1.126224
v -0.048447 0.280150 1.130849
v -0.037810 0.274444 1.130565
v -0.029618 0.271998 1.137587
v -0.023730 0.277692 1.156758
v -0.025909 0.281738 1.151350
v -0.024835 0.279256 1.150067
v -0.022384 0.275945 1.155124
v -0.025871 0.283173 1.145763
v -0.025739 0.280647 1.145599
v -0.026379 0.277264 1.141477
v -0.024691 0.273896 1.146640
v -0.028742 0.272513 1.140553
v -0.028537 0.269359 1.144313
v -0.022551 0.270397 1.151369
v -0.020508 0.272503 1.157061
v -0.021045 0.267611 1.155772
v -0.022352 0.273124 1.159939
v -0.024454 0.277894 1.139312
v -0.030165 0.289117 1.145306
v -0.028771 0.284384 1.152451
v -0.027236 0.279130 1.158273
v -0.025650 0.273441 1.161029
v -0.033664 0.284553 1.153626
v -0.031924 0.278767 1.157845
v -0.030871 0.273223 1.159550
v -0.038411 0.281900 1.152819
v -0.035483 0.276557 1.156371
v -0.043923 0.287821 1.142425
v -0.037428 0.291082 1.145008
v -0.033301 0.273191 1.157735
v -0.022453 0.266543 1.158744
v -0.026283 0.267046 1.159704
v -0.031347 0.267841 1.142311
v -0.026493 0.265839 1.148781
v -0.029565 0.264574 1.148395
v -0.035417 0.267864 1.141073
v -0.032480 0.264395 1.148746
v -0.026212 0.263361 1.153939
v -0.023893 0.264953 1.152535
v -0.046657 0.288683 1.139718
v -0.049196 0.283913 1.135557
v -0.047284 0.283555 1.138087
v -0.041984 0.276828 1.148773
v -0.046720 0.278604 1.135075
v -0.042689 0.275318 1.132355
v -0.039020 0.269010 1.142117
v -0.041814 0.272060 1.144844
v -0.035631 0.266318 1.149893
v -0.037196 0.268878 1.151013
v -0.037248 0.272822 1.154160
v -0.032656 0.266062 1.154848
v -0.029574 0.263714 1.154572
v -0.030915 0.268570 1.158466
v -0.034515 0.268071 1.154238
v -0.033809 0.270288 1.156631
v -0.126525 0.265252 1.118601
v -0.120119 0.263748 1.117456
v -0.121380 0.270141 1.120508
v -0.121962 0.279550 1.124187
v -0.128390 0.288222 1.126140
v -0.115539 0.280349 1.121779
v -0.115316 0.270624 1.118219
v -0.113879 0.261650 1.113442
v -0.110215 0.289501 1.121020
f 2 3 1
f 1 3 4
f 5 6 8
f 8 6 7
f 9 4 10
f 10 4 3
f 12 13 11
f 11 13 9
f 14 12 16
f 16 12 15
f 18 19 17
f 17 19 20
f 22 23 21
f 21 23 24
f 26 27 25
f 25 27 28
f 30 31 29
f 29 31 32
f 33 34 36
f 36 34 35
f 37 38 40
f 40 38 39
f 41 42 6
f 6 42 43
f 6 43 7
f 7 43 44
f 45 34 46
f 46 34 33
f 48 49 47
f 47 49 50
f 52 53 51
f 51 53 54
f 56 52 55
f 55 52 51
f 58 59 57
f 57 59 60
f 61 62 4
f 4 62 1
f 64 65 63
f 63 65 66
f 68 69 67
f 67 69 70
f 72 73 71
f 71 73 74
f 76 77 75
f 75 77 78
f 53 79 54
f 54 79 80
f 82 83 81
f 81 83 84
f 85 86 52
f 52 86 53
f 57 60 87
f 87 60 88
f 89 90 43
f 43 90 44
f 43 42 89
f 89 42 91
f 40 39 92
f 92 39 93
f 94 70 64
f 64 70 69
f 13 61 9
f 9 61 4
f 25 28 69
f 69 28 95
f 96 25 68
f 68 25 69
f 98 99 97
f 97 99 100
f 101 102 104
f 104 102 103
f 106 30 105
f 105 30 29
f 51 54 107
f 107 54 108
f 54 80 108
f 108 80 109
f 111 112 110
f 110 112 113
f 115 5 114
f 114 5 116
f 115 41 5
f 5 41 6
f 36 35 111
f 111 35 117
f 35 118 117
f 117 118 119
f 34 120 35
f 35 120 118
f 34 45 120
f 120 45 121
f 125 126 124
f 124 126 127
f 128 129 14
f 14 129 130
f 33 131 46
f 46 131 132
f 133 94 63
f 63 94 64
f 134 135 137
f 137 135 136
f 139 140 138
f 138 140 141
f 77 142 78
f 78 142 143
f 144 145 20
f 20 145 146
f 148 149 147
f 147 149 72
f 151 152 150
f 150 152 153
f 82 101 83
f 83 101 104
f 101 82 155
f 155 82 154
f 156 157 58
f 58 157 59
f 158 68 147
f 147 68 67
f 159 146 15
f 15 146 16
f 68 158 96
f 96 158 160
f 129 66 130
f 130 66 65
f 162 163 161
f 161 163 164
f 166 167 165
f 165 167 168
f 170 171 169
f 169 171 172
f 174 171 173
f 173 171 170
f 176 177 175
f 175 177 178
f 180 181 179
f 179 181 24
f 182 183 21
f 21 183 184
f 81 185 82
f 82 185 154
f 186 187 188
f 188 187 144
f 158 71 160
f 160 71 189
f 190 135 157
f 157 135 59
f 169 172 139
f 139 172 140
f 147 72 158
f 158 72 71
f 192 193 191
f 191 193 194
f 167 166 49
f 49 166 195
f 196 190 50
f 50 190 157
f 197 198 200
f 200 198 199
f 21 24 182
f 182 24 181
f 146 159 20
f 20 159 17
f 182 181 81
f 81 181 185
f 201 185 180
f 180 185 181
f 202 203 83
f 83 203 84
f 205 206 204
f 204 206 85
f 207 22 184
f 184 22 21
f 179 24 208
f 208 24 23
f 208 209 179
f 179 209 205
f 209 210 205
f 205 210 206
f 212 206 211
f 211 206 210
f 179 205 180
f 180 205 204
f 213 176 88
f 88 176 214
f 86 85 212
f 212 85 206
f 193 217 218
f 217 219 218
f 218 219 220
f 219 18 220
f 220 18 17
f 19 221 20
f 20 221 144
f 222 223 225
f 225 223 224
f 175 226 176
f 176 226 214
f 227 87 214
f 214 87 88
f 220 17 228
f 228 17 159
f 134 213 60
f 60 213 88
f 138 229 151
f 151 229 152
f 193 192 210
f 210 192 211
f 230 194 218
f 218 194 193
f 231 232 228
f 228 232 230
f 233 234 91
f 91 234 89
f 235 236 93
f 93 236 92
f 230 232 234
f 234 232 237
f 47 238 48
f 48 238 239
f 240 191 235
f 235 191 236
f 5 8 116
f 116 8 241
f 242 243 189
f 189 243 160
f 244 245 98
f 98 245 99
f 156 246 47
f 47 246 238
f 76 247 77
f 77 247 248
f 250 125 249
f 249 125 124
f 252 253 251
f 251 253 254
f 111 110 36
f 36 110 255
f 256 33 255
f 255 33 36
f 257 258 154
f 154 258 155
f 63 169 133
f 133 169 139
f 66 170 63
f 63 170 169
f 173 170 129
f 129 170 66
f 129 128 173
f 173 128 259
f 128 260 259
f 259 260 261
f 213 134 262
f 262 134 137
f 263 264 186
f 186 264 187
f 112 265 113
f 113 265 266
f 11 267 268
f 234 233 230
f 230 233 194
f 153 269 70
f 70 269 67
f 175 178 165
f 165 178 141
f 150 153 94
f 94 153 70
f 271 221 270
f 270 221 207
f 269 153 272
f 272 153 152
f 121 45 109
f 109 45 108
f 47 50 156
f 156 50 157
f 57 273 58
f 58 273 274
f 145 275 260
f 260 275 261
f 276 149 143
f 143 149 78
f 148 269 75
f 75 269 272
f 207 277 270
f 270 277 278
f 195 196 49
f 49 196 50
f 59 135 60
f 60 135 134
f 83 104 202
f 202 104 279
f 149 148 78
f 78 148 75
f 247 278 248
f 248 278 277
f 183 182 84
f 84 182 81
f 48 239 281
f 281 239 282
f 227 223 283
f 283 223 222
f 223 226 224
f 224 226 168
f 281 282 224
f 224 282 225
f 165 168 175
f 175 168 226
f 264 263 138
f 138 263 229
f 14 16 128
f 128 16 260
f 220 228 218
f 218 228 230
f 87 227 284
f 284 227 283
f 260 16 145
f 145 16 146
f 244 98 258
f 258 98 155
f 58 274 156
f 156 274 246
f 107 285 51
f 51 285 55
f 243 286 160
f 160 286 96
f 234 237 89
f 89 237 90
f 46 132 107
f 107 132 285
f 253 252 249
f 249 252 250
f 286 26 96
f 96 26 25
f 106 105 287
f 287 105 288
f 272 152 289
f 289 152 229
f 138 151 139
f 139 151 133
f 183 290 161
f 161 290 162
f 291 292 277
f 277 292 293
f 151 150 133
f 133 150 94
f 262 275 177
f 177 275 187
f 144 187 145
f 145 187 275
f 273 57 284
f 284 57 87
f 174 136 190
f 190 136 135
f 111 117 112
f 112 117 38
f 117 119 38
f 38 119 123
f 112 38 265
f 265 38 37
f 287 288 254
f 254 288 251
f 228 159 231
f 231 159 15
f 223 227 226
f 226 227 214
f 147 67 148
f 148 67 269
f 224 168 281
f 281 168 167
f 199 163 200
f 200 163 162
f 45 46 108
f 108 46 107
f 281 167 48
f 48 167 49
f 161 164 291
f 291 164 292
f 38 123 39
f 293 294 277
f 277 294 248
f 284 283 296
f 296 283 295
f 284 296 273
f 273 296 297
f 274 273 298
f 298 273 297
f 246 274 299
f 299 274 298
f 283 222 295
f 295 222 300
f 222 225 300
f 300 225 301
f 301 225 302
f 302 225 282
f 303 304 300
f 300 304 295
f 306 307 305
f 305 307 308
f 309 310 308
f 308 310 305
f 308 307 312
f 312 307 311
f 313 314 312
f 312 314 315
f 311 316 312
f 312 316 313
f 317 304 311
f 311 304 316
f 315 309 312
f 312 309 308
f 318 319 321
f 321 319 320
f 319 318 309
f 309 318 310
f 311 307 317
f 317 307 306
f 306 297 317
f 317 297 296
f 306 322 297
f 297 322 298
f 305 323 306
f 306 323 322
f 323 305 324
f 324 305 310
f 304 317 295
f 295 317 296
f 318 325 310
f 310 325 324
f 323 324 326
f 326 324 327
f 324 325 327
f 327 325 328
f 326 327 329
f 329 327 330
f 329 331 326
f 326 331 332
f 333 330 328
f 328 330 327
f 323 326 322
f 322 326 332
f 322 332 298
f 298 332 299
f 325 318 334
f 334 318 321
f 313 316 335
f 335 316 304
f 335 336 313
f 313 336 314
f 304 303 335
f 335 303 337
f 336 335 338
f 338 335 337
f 336 339 314
f 314 339 340
f 246 299 238
f 238 299 341
f 239 342 282
f 282 342 302
f 342 239 341
f 341 239 238
f 341 331 342
f 342 331 343
f 331 329 343
f 343 329 344
f 342 343 302
f 302 343 345
f 341 299 331
f 331 299 332
f 346 301 345
f 345 301 302
f 346 303 301
f 301 303 300
f 347 337 346
f 346 337 303
f 347 346 348
f 348 346 345
f 349 347 350
f 350 347 348
f 343 344 345
f 345 344 348
f 344 351 348
f 348 351 350
f 337 347 338
f 338 347 349
f 353 338 352
f 352 338 349
f 352 355 354
f 354 355 356
f 352 349 355
f 355 349 350
f 352 354 353
f 353 354 334
f 353 334 339
f 339 334 321
f 339 336 353
f 353 336 338
f 329 330 344
f 344 330 351
f 356 351 333
f 333 351 330
f 356 355 351
f 351 355 350
f 354 356 328
f 328 356 333
f 328 325 354
f 354 325 334
f 309 315 319
f 319 315 320
f 320 340 321
f 321 340 339
f 320 315 340
f 340 315 314
f 137 136 261
f 261 136 259
f 140 166 141
f 141 166 165
f 172 171 195
f 195 171 196
f 171 174 196
f 196 174 190
f 178 177 264
f 264 177 187
f 172 195 140
f 140 195 166
f 137 261 262
f 262 261 275
f 178 264 141
f 141 264 138
f 262 177 213
f 213 177 176
f 136 174 259
f 259 174 173
f 358 359 357
f 357 359 360
f 362 363 361
f 361 363 364
f 361 364 365
f 365 364 366
f 367 368 370
f 370 368 369
f 76 371 247
f 247 371 372
f 373 374 362
f 362 374 363
f 376 377 375
f 375 377 378
f 289 229 380
f 380 229 379
f 381 379 263
f 263 379 229
f 383 384 382
f 382 384 385
f 386 368 374
f 374 368 363
f 76 289 371
f 371 289 380
f 377 376 359
f 359 376 387
f 388 386 360
f 360 386 374
f 389 383 366
f 366 383 390
f 392 393 391
f 391 393 394
f 383 382 390
f 390 382 395
f 396 365 390
f 390 365 366
f 389 366 367
f 367 366 364
f 357 397 358
f 358 397 398
f 373 399 357
f 357 399 397
f 389 367 400
f 400 367 370
f 382 385 375
f 375 385 372
f 357 360 373
f 373 360 374
f 361 401 362
f 362 401 402
f 387 388 359
f 359 388 360
f 363 368 364
f 364 368 367
f 358 398 403
f 403 398 404
f 396 392 405
f 405 392 391
f 392 395 393
f 393 395 378
f 393 403 394
f 394 403 404
f 375 378 382
f 382 378 395
f 365 396 406
f 406 396 405
f 362 402 373
f 373 402 399
f 271 270 400
f 400 270 384
f 401 361 406
f 406 361 365
f 381 369 386
f 386 369 368
f 392 396 395
f 395 396 390
f 393 378 403
f 403 378 377
f 403 377 358
f 358 377 359
f 406 405 408
f 408 405 407
f 406 408 401
f 401 408 409
f 401 409 402
f 402 409 410
f 402 410 399
f 399 410 411
f 405 391 407
f 407 391 412
f 391 394 412
f 412 394 413
f 394 404 413
f 413 404 414
f 415 416 412
f 412 416 407
f 418 419 417
f 417 419 420
f 421 422 418
f 418 422 419
f 419 422 424
f 424 422 423
f 425 426 424
f 424 426 427
f 423 428 424
f 424 428 425
f 427 420 424
f 424 420 419
f 420 429 417
f 417 429 430
f 423 422 431
f 431 422 421
f 421 409 431
f 431 409 408
f 421 432 409
f 409 432 410
f 418 433 421
f 421 433 432
f 434 433 417
f 417 433 418
f 431 416 423
f 423 416 428
f 416 431 407
f 407 431 408
f 435 434 430
f 430 434 417
f 433 434 436
f 436 434 437
f 434 435 437
f 437 435 438
f 436 437 439
f 439 437 440
f 439 441 436
f 436 441 442
f 438 443 437
f 437 443 440
f 436 442 433
f 433 442 432
f 432 442 410
f 410 442 411
f 435 430 445
f 445 430 444
f 430 429 444
f 444 429 446
f 425 428 447
f 447 428 416
f 426 425 448
f 448 425 447
f 416 415 447
f 447 415 449
f 447 449 448
f 448 449 450
f 451 452 448
f 448 452 426
f 446 452 444
f 444 452 451
f 399 411 397
f 397 411 453
f 398 454 404
f 404 454 414
f 454 398 453
f 453 398 397
f 453 441 454
f 454 441 455
f 441 439 455
f 455 439 456
f 454 455 414
f 414 455 457
f 441 453 442
f 442 453 411
f 458 413 457
f 457 413 414
f 458 415 413
f 413 415 412
f 458 459 415
f 415 459 449
f 459 458 460
f 460 458 457
f 461 459 462
f 462 459 460
f 455 456 457
f 457 456 460
f 456 463 460
f 460 463 462
f 459 461 449
f 449 461 450
f 465 450 464
f 464 450 461
f 464 467 466
f 466 467 468
f 464 461 467
f 467 461 462
f 464 466 465
f 465 466 445
f 465 445 451
f 451 445 444
f 451 448 465
f 465 448 450
f 439 440 456
f 456 440 463
f 468 463 443
f 443 463 440
f 468 467 463
f 463 467 462
f 466 468 438
f 438 468 443
f 438 435 466
f 466 435 445
f 420 427 429
f 429 427 446
f 446 427 452
f 452 427 426
f 370 369 188
f 188 369 186
f 371 376 372
f 372 376 375
f 380 379 387
f 387 379 388
f 379 381 388
f 388 381 386
f 385 384 278
f 278 384 270
f 380 387 371
f 371 387 376
f 400 370 271
f 271 370 188
f 385 278 372
f 372 278 247
f 400 384 389
f 389 384 383
f 369 381 186
f 186 381 263
f 221 271 144
f 144 271 188
f 221 19 207
f 207 19 22
f 19 18 22
f 22 18 23
f 18 219 23
f 23 219 208
f 469 470 472
f 472 470 471
f 474 475 473
f 473 475 476
f 473 476 477
f 477 476 478
f 480 481 479
f 479 481 482
f 483 484 474
f 474 484 475
f 486 487 485
f 485 487 488
f 489 490 77
f 77 490 142
f 491 489 248
f 248 489 77
f 493 494 492
f 492 494 495
f 496 480 484
f 484 480 475
f 486 497 487
f 487 497 471
f 498 496 472
f 472 496 484
f 499 493 478
f 478 493 500
f 501 502 504
f 504 502 503
f 493 492 500
f 500 492 505
f 506 477 500
f 500 477 478
f 499 478 479
f 479 478 476
f 469 507 470
f 470 507 508
f 483 509 469
f 469 509 507
f 479 482 499
f 499 482 510
f 492 495 485
f 485 495 511
f 483 469 484
f 484 469 472
f 473 512 474
f 474 512 513
f 497 498 471
f 471 498 472
f 475 480 476
f 476 480 479
f 470 508 514
f 514 508 515
f 506 502 516
f 516 502 501
f 503 502 488
f 488 502 505
f 514 515 503
f 503 515 504
f 485 488 492
f 492 488 505
f 477 506 517
f 517 506 516
f 474 513 483
f 483 513 509
f 510 292 494
f 494 292 164
f 512 473 517
f 517 473 477
f 491 481 496
f 496 481 480
f 502 506 505
f 505 506 500
f 503 488 514
f 514 488 487
f 514 487 470
f 470 487 471
f 517 516 519
f 519 516 518
f 517 519 512
f 512 519 520
f 512 520 513
f 513 520 521
f 513 521 509
f 509 521 522
f 516 501 518
f 518 501 523
f 501 504 523
f 523 504 524
f 524 504 525
f 525 504 515
f 526 527 523
f 523 527 518
f 529 530 528
f 528 530 531
f 532 533 529
f 529 533 530
f 530 533 535
f 535 533 534
f 536 537 535
f 535 537 538
f 534 539 535
f 535 539 536
f 538 531 535
f 535 531 530
f 540 541 531
f 531 541 528
f 533 532 534
f 534 532 542
f 532 520 542
f 542 520 519
f 532 543 520
f 520 543 521
f 529 544 532
f 532 544 543
f 544 529 545
f 545 529 528
f 534 542 539
f 539 542 527
f 527 542 518
f 518 542 519
f 541 546 528
f 528 546 545
f 547 544 548
f 548 544 545
f 546 549 545
f 545 549 548
f 550 547 551
f 551 547 548
f 547 550 553
f 553 550 552
f 549 554 548
f 548 554 551
f 544 547 543
f 543 547 553
f 543 553 521
f 521 553 522
f 546 541 556
f 556 541 555
f 541 540 555
f 555 540 557
f 536 539 558
f 558 539 527
f 537 536 559
f 559 536 558
f 527 526 558
f 558 526 560
f 559 558 561
f 561 558 560
f 559 562 537
f 537 562 563
f 557 563 555
f 555 563 562
f 509 522 507
f 507 522 564
f 508 565 515
f 515 565 525
f 565 508 564
f 564 508 507
f 564 552 565
f 565 552 566
f 552 550 566
f 566 550 567
f 565 566 525
f 525 566 568
f 564 522 552
f 552 522 553
f 569 524 568
f 568 524 525
f 569 526 524
f 524 526 523
f 570 560 569
f 569 560 526
f 570 569 571
f 571 569 568
f 572 570 573
f 573 570 571
f 566 567 568
f 568 567 571
f 567 574 571
f 571 574 573
f 570 572 560
f 560 572 561
f 576 561 575
f 575 561 572
f 575 578 577
f 577 578 579
f 575 572 578
f 578 572 573
f 575 577 576
f 576 577 556
f 576 556 562
f 562 556 555
f 562 559 576
f 576 559 561
f 550 551 567
f 567 551 574
f 579 574 554
f 554 574 551
f 579 578 574
f 574 578 573
f 579 554 577
f 577 554 549
f 549 546 577
f 577 546 556
f 531 538 540
f 540 538 557
f 557 538 563
f 563 538 537
f 481 294 482
f 482 294 293
f 580 486 511
f 511 486 485
f 490 489 497
f 497 489 498
f 489 491 498
f 498 491 496
f 163 495 164
f 164 495 494
f 580 490 486
f 486 490 497
f 482 293 510
f 510 293 292
f 495 163 511
f 511 163 199
f 494 493 510
f 510 493 499
f 481 491 294
f 294 491 248
f 582 583 581
f 581 583 584
f 586 587 585
f 585 587 588
f 585 588 589
f 589 588 590
f 592 593 591
f 591 593 594
f 595 596 598
f 598 596 597
f 599 600 586
f 586 600 587
f 601 602 604
f 604 602 603
f 605 606 608
f 608 606 607
f 609 607 200
f 200 607 606
f 610 611 613
f 613 611 612
f 600 614 587
f 587 614 592
f 596 605 597
f 597 605 608
f 602 615 603
f 603 615 583
f 616 614 584
f 584 614 600
f 611 618 617
f 617 618 590
f 620 621 619
f 619 621 622
f 610 623 611
f 611 623 618
f 624 589 618
f 618 589 590
f 617 590 591
f 591 590 588
f 581 625 582
f 582 625 626
f 599 627 581
f 581 627 625
f 591 594 617
f 617 594 628
f 601 610 598
f 598 610 613
f 581 584 599
f 599 584 600
f 585 629 586
f 586 629 630
f 615 616 583
f 583 616 584
f 587 592 588
f 588 592 591
f 582 626 631
f 631 626 632
f 624 620 633
f 633 620 619
f 621 620 604
f 604 620 623
f 631 632 621
f 621 632 622
f 610 601 623
f 623 601 604
f 589 624 634
f 634 624 633
f 586 630 599
f 599 630 627
f 203 202 628
f 628 202 612
f 629 585 634
f 634 585 589
f 609 593 614
f 614 593 592
f 620 624 623
f 623 624 618
f 631 621 603
f 603 621 604
f 582 631 583
f 583 631 603
f 634 633 636
f 636 633 635
f 634 636 629
f 629 636 637
f 629 637 630
f 630 637 638
f 630 638 627
f 627 638 639
f 633 619 635
f 635 619 640
f 619 622 640
f 640 622 641
f 641 622 642
f 642 622 632
f 644 635 643
f 643 635 640
f 645 646 648
f 648 646 647
f 649 650 646
f 646 650 647
f 647 650 652
f 652 650 651
f 652 653 655
f 655 653 654
f 651 656 652
f 652 656 653
f 655 648 652
f 652 648 647
f 648 657 645
f 645 657 658
f 650 649 651
f 651 649 659
f 649 637 659
f 659 637 636
f 649 660 637
f 637 660 638
f 661 660 646
f 646 660 649
f 662 661 645
f 645 661 646
f 651 659 656
f 656 659 644
f 644 659 635
f 635 659 636
f 663 662 658
f 658 662 645
f 664 661 665
f 665 661 662
f 663 666 662
f 662 666 665
f 667 664 668
f 668 664 665
f 664 667 670
f 670 667 669
f 666 671 665
f 665 671 668
f 661 664 660
f 660 664 670
f 660 670 638
f 638 670 639
f 658 672 663
f 663 672 673
f 658 657 672
f 672 657 674
f 653 656 675
f 675 656 644
f 653 675 654
f 654 675 676
f 675 644 677
f 677 644 643
f 676 675 678
f 678 675 677
f 679 680 676
f 676 680 654
f 674 680 672
f 672 680 679
f 627 639 625
f 625 639 681
f 626 682 632
f 632 682 642
f 681 682 625
f 625 682 626
f 669 683 681
f 681 683 682
f 667 684 669
f 669 684 683
f 682 683 642
f 642 683 685
f 681 639 669
f 669 639 670
f 686 641 685
f 685 641 642
f 641 686 640
f 640 686 643
f 686 687 643
f 643 687 677
f 687 686 688
f 688 686 685
f 689 687 690
f 690 687 688
f 683 684 685
f 685 684 688
f 684 691 688
f 688 691 690
f 687 689 677
f 677 689 678
f 693 678 692
f 692 678 689
f 692 695 694
f 694 695 696
f 692 689 695
f 695 689 690
f 692 694 693
f 693 694 673
f 693 673 679
f 679 673 672
f 679 676 693
f 693 676 678
f 684 667 691
f 691 667 668
f 696 691 671
f 671 691 668
f 696 695 691
f 691 695 690
f 694 696 666
f 666 696 671
f 666 663 694
f 694 663 673
f 648 655 657
f 657 655 674
f 674 655 680
f 680 655 654
f 593 162 594
f 594 162 290
f 598 597 601
f 601 597 602
f 615 608 616
f 616 608 607
f 607 609 616
f 616 609 614
f 697 595 613
f 613 595 598
f 597 608 602
f 602 608 615
f 594 290 628
f 628 290 203
f 628 612 617
f 617 612 611
f 593 609 162
f 162 609 200
f 105 29 698
f 698 29 699
f 268 126 701
f 701 126 700
f 126 125 700
f 700 125 702
f 252 703 250
f 250 703 704
f 32 268 705
f 705 268 701
f 288 105 706
f 706 105 698
f 29 32 699
f 699 32 705
f 707 251 706
f 706 251 288
f 250 704 125
f 125 704 702
f 703 252 707
f 707 252 251
f 706 708 707
f 707 708 709
f 707 709 703
f 703 709 710
f 703 710 704
f 704 710 711
f 704 711 702
f 702 711 712
f 706 698 708
f 708 698 713
f 698 699 713
f 713 699 714
f 699 705 714
f 714 705 715
f 717 708 716
f 716 708 713
f 719 720 718
f 718 720 721
f 722 723 719
f 719 723 720
f 724 725 723
f 723 725 720
f 724 726 725
f 725 726 727
f 728 721 725
f 725 721 720
f 721 728 729
f 729 728 730
f 729 731 721
f 721 731 718
f 724 723 732
f 732 723 722
f 722 710 732
f 732 710 709
f 722 733 710
f 710 733 711
f 719 734 722
f 722 734 733
f 734 719 735
f 735 719 718
f 724 732 726
f 726 732 717
f 717 732 708
f 708 732 709
f 731 736 718
f 718 736 735
f 737 734 738
f 738 734 735
f 736 739 735
f 735 739 738
f 740 737 741
f 741 737 738
f 737 740 743
f 743 740 742
f 739 744 738
f 738 744 741
f 734 737 733
f 733 737 743
f 733 743 711
f 711 743 712
f 736 731 746
f 746 731 745
f 731 729 745
f 745 729 730
f 727 726 747
f 747 726 717
f 748 727 749
f 749 727 747
f 747 717 750
f 750 717 716
f 749 747 751
f 751 747 750
f 749 752 748
f 748 752 753
f 730 753 745
f 745 753 752
f 728 725 748
f 748 725 727
f 730 728 753
f 753 728 748
f 700 702 754
f 754 702 712
f 705 701 715
f 715 701 755
f 754 755 700
f 700 755 701
f 742 756 754
f 754 756 755
f 740 757 742
f 742 757 756
f 755 756 715
f 715 756 758
f 754 712 742
f 742 712 743
f 759 714 758
f 758 714 715
f 714 759 713
f 713 759 716
f 759 760 716
f 716 760 750
f 760 759 761
f 761 759 758
f 762 760 763
f 763 760 761
f 756 757 758
f 758 757 761
f 757 764 761
f 761 764 763
f 760 762 750
f 750 762 751
f 766 751 765
f 765 751 762
f 767 765 769
f 769 765 768
f 765 762 768
f 768 762 763
f 765 767 766
f 766 767 746
f 766 746 752
f 752 746 745
f 752 749 766
f 766 749 751
f 757 740 764
f 764 740 741
f 769 764 744
f 744 764 741
f 769 768 764
f 764 768 763
f 767 769 739
f 739 769 744
f 739 736 767
f 767 736 746
f 219 217 208
f 208 217 209
f 209 217 210
f 210 217 193
f 198 580 199
f 199 580 511
f 76 75 289
f 289 75 272
f 277 207 291
f 291 207 184
f 290 183 203
f 203 183 84
f 490 580 142
f 142 580 198
f 142 198 143
f 143 198 197
f 149 276 72
f 72 276 73
f 104 103 279
f 279 103 770
f 770 596 279
f 279 596 595
f 605 596 771
f 771 596 770
f 771 770 772
f 772 770 103
f 772 103 773
f 773 103 102
f 155 774 101
f 101 774 102
f 773 102 97
f 97 102 774
f 775 773 100
f 100 773 97
f 773 775 772
f 772 775 776
f 772 776 771
f 771 776 777
f 200 606 197
f 197 606 777
f 189 71 778
f 778 71 74
f 97 774 98
f 98 774 155
f 183 161 184
f 184 161 291
f 777 276 197
f 197 276 143
f 777 606 771
f 771 606 605
f 613 612 697
f 697 612 202
f 595 697 279
f 279 697 202
f 73 276 776
f 776 276 777
f 776 775 73
f 73 775 74
f 100 778 775
f 775 778 74
f 778 100 189
f 189 100 99
f 245 242 99
f 99 242 189
f 131 33 256
f 28 1 95
f 95 1 62
f 27 2 28
f 28 2 1
f 265 115 266
f 266 115 114
f 95 62 69
f 69 62 64
f 62 61 64
f 64 61 65
f 61 13 65
f 65 13 130
f 13 12 130
f 130 12 14
f 31 11 32
f 32 11 268
f 15 12 31
f 31 12 11
f 31 30 15
f 15 30 231
f 30 106 231
f 231 106 232
f 287 237 106
f 106 237 232
f 254 90 287
f 287 90 237
f 253 44 254
f 254 44 90
f 253 249 44
f 44 249 7
f 267 127 268
f 268 127 126
f 10 3 241
f 241 3 116
f 3 2 116
f 116 2 114
f 2 27 114
f 114 27 266
f 27 26 266
f 266 26 113
f 26 286 113
f 113 286 110
f 286 243 110
f 110 243 255
f 243 242 255
f 255 242 256
f 242 245 256
f 256 245 131
f 245 244 131
f 131 244 132
f 265 37 115
f 115 37 41
f 41 37 42
f 42 37 40
f 92 91 40
f 40 91 42
f 236 233 92
f 92 233 91
f 191 194 236
f 236 194 233
f 258 285 244
f 244 285 132
f 257 55 258
f 258 55 285
f 257 154 201
f 201 154 185
f 56 201 204
f 204 201 180
f 55 257 56
f 56 257 201
f 204 85 56
f 56 85 52
f 86 122 53
f 53 122 79
f 212 215 86
f 86 215 122
f 211 216 212
f 212 216 215
f 192 280 211
f 211 280 216
f 191 240 192
f 192 240 280
f 249 124 7
f 7 124 8
f 124 127 8
f 8 127 241
f 127 267 241
f 241 267 10
f 10 267 9
f 9 267 11
o hand_right
v -0.008645 0.257508 1.134452
v -0.002082 0.264765 1.139951
v -0.011533 0.261134 1.139020
v -0.017539 0.256028 1.134303
v -0.009147 0.272098 1.155939
v -0.014767 0.283296 1.158985
v -0.027810 0.272307 1.153512
v -0.019998 0.264570 1.152513
v -0.024315 0.255221 1.131330
v -0.018927 0.258143 1.137845
v -0.025629 0.257760 1.126343
v -0.031434 0.256193 1.116729
v -0.029701 0.252555 1.123855
v -0.034739 0.251290 1.111182
v -0.027399 0.264663 1.110616
v -0.030294 0.252173 1.102774
v -0.002499 0.260157 1.101894
v 0.010091 0.255334 1.102621
v 0.002403 0.240654 1.096957
v -0.009965 0.246636 1.097681
v 0.022021 0.237841 1.104527
v 0.010948 0.238596 1.099931
v 0.018887 0.253484 1.104332
v 0.028369 0.251965 1.108298
v 0.006633 0.256863 1.135409
v 0.013141 0.264752 1.140542
v 0.008029 0.265926 1.139753
v 0.001522 0.258228 1.134971
v -0.030891 0.261723 1.125600
v -0.029281 0.272094 1.122090
v -0.027783 0.264569 1.121454
v -0.028246 0.257806 1.128224
v 0.032841 0.277711 1.156710
v 0.038564 0.289996 1.155118
v 0.033428 0.292968 1.154414
v 0.029402 0.281169 1.155700
v 0.008687 0.296301 1.158480
v 0.017632 0.303039 1.153541
v 0.014080 0.314502 1.146223
v 0.004608 0.308643 1.147300
v -0.003510 0.289402 1.160641
v -0.007265 0.301272 1.153052
v -0.019992 0.292467 1.153064
v -0.033660 0.278599 1.148895
v 0.050183 0.284346 1.153888
v 0.047666 0.274469 1.155396
v -0.051969 0.207207 1.124044
v -0.046656 0.205160 1.125973
v -0.045372 0.208617 1.124611
v -0.050824 0.210045 1.122692
v 0.059845 0.275769 1.138023
v 0.060256 0.277966 1.128053
v 0.064087 0.283142 1.131591
v 0.062242 0.282407 1.140890
v 0.056563 0.267017 1.134290
v 0.054377 0.270860 1.123715
v -0.055947 0.200184 1.113907
v -0.057272 0.203577 1.117664
v -0.055865 0.206723 1.114037
v -0.053758 0.203669 1.109990
v -0.024150 0.250826 1.129103
v -0.015127 0.250109 1.131216
v -0.032003 0.236989 1.122333
v -0.024487 0.241530 1.124853
v -0.029969 0.246006 1.123670
v -0.035549 0.241835 1.120444
v -0.001155 0.236811 1.126764
v 0.004185 0.246549 1.130755
v -0.002246 0.247633 1.129747
v -0.009820 0.237526 1.126086
v 0.016906 0.241463 1.134878
v 0.010717 0.232377 1.130189
v 0.018655 0.230501 1.133085
v 0.021451 0.237072 1.136838
v -0.002158 0.219047 1.121156
v -0.005472 0.214297 1.118254
v -0.002835 0.212445 1.119508
v 0.001373 0.218159 1.121947
v 0.067705 0.288800 1.133994
v 0.063831 0.289206 1.143120
v 0.040570 0.233253 1.115264
v 0.046441 0.233458 1.124970
v 0.043071 0.221050 1.121983
v 0.037735 0.224096 1.112040
v 0.054815 0.281305 1.119678
v 0.060745 0.285801 1.122329
v -0.051376 0.196338 1.111967
v -0.049006 0.199775 1.108489
v -0.018199 0.299266 1.141610
v -0.034646 0.283587 1.140584
v -0.003626 0.307885 1.139414
v 0.006849 0.312842 1.135988
v 0.014016 0.318722 1.134647
v -0.021260 0.235722 1.124104
v -0.005995 0.251786 1.131785
v 0.011304 0.255267 1.136342
v 0.036654 0.239703 1.145422
v 0.040880 0.248657 1.149525
v 0.030274 0.249487 1.147713
v 0.028921 0.241602 1.143880
v 0.045634 0.230826 1.134547
v 0.039230 0.229691 1.139403
v 0.036090 0.221715 1.135770
v 0.042090 0.221068 1.130994
v -0.036756 0.266181 1.125847
v -0.031101 0.278841 1.124149
v 0.055912 0.275142 1.147969
v 0.056526 0.282864 1.149406
v 0.059347 0.290936 1.149315
v 0.021757 0.271846 1.149683
v 0.026899 0.283587 1.155328
v 0.022357 0.284954 1.155974
v 0.019211 0.273284 1.148732
v 0.002665 0.270121 1.148870
v 0.004501 0.279480 1.158240
v -0.007613 0.263568 1.146980
v 0.027176 0.298467 1.154169
v 0.037607 0.302366 1.155598
v 0.030388 0.307475 1.153945
v 0.046308 0.297670 1.155209
v 0.054041 0.293493 1.153304
v 0.066895 0.291749 1.122309
v 0.023698 0.311574 1.150731
v -0.027020 0.260289 1.149389
v -0.031795 0.256034 1.146965
v -0.026248 0.253781 1.141810
v -0.021786 0.257370 1.143080
v -0.038561 0.243582 1.107002
v -0.038824 0.243152 1.115179
v -0.034166 0.250262 1.118949
v 0.032640 0.266212 1.154305
v 0.045219 0.263947 1.153585
v -0.028743 0.231322 1.121465
v -0.051074 0.208317 1.107373
v -0.053670 0.211506 1.111801
v -0.045825 0.229155 1.108492
v -0.043259 0.225514 1.103042
v -0.027901 0.222775 1.115596
v -0.030454 0.227566 1.120270
v -0.030796 0.225180 1.119413
v -0.027956 0.219687 1.116905
v 0.006166 0.212002 1.122376
v 0.009668 0.217135 1.124712
v -0.017141 0.232043 1.097336
v -0.026999 0.240945 1.094326
v -0.020702 0.251909 1.097944
v 0.005967 0.235097 1.128585
v 0.001925 0.226023 1.125131
v 0.005844 0.224666 1.125906
v -0.020027 0.231315 1.122475
v -0.024785 0.226822 1.119655
v -0.019417 0.226383 1.119467
v -0.014529 0.230510 1.122740
v 0.051025 0.245702 1.127455
v 0.050371 0.242399 1.138732
v -0.055788 0.206358 1.121183
v -0.054686 0.209348 1.118752
v 0.011042 0.244702 1.132461
v -0.012937 0.263663 1.103817
v 0.016329 0.253470 1.137783
v 0.020244 0.215925 1.107983
v 0.020706 0.211965 1.114826
v 0.016269 0.207537 1.115059
v 0.015225 0.208139 1.109086
v -0.034490 0.205873 1.118858
v -0.037589 0.208501 1.123091
v -0.039996 0.205310 1.123747
v -0.037200 0.201709 1.119887
v -0.034514 0.231831 1.121132
v -0.038962 0.236034 1.119354
v -0.040734 0.230300 1.119600
v -0.035479 0.227324 1.120411
v -0.042224 0.236788 1.113834
v -0.044635 0.231085 1.114498
v -0.034964 0.203538 1.112652
v -0.039929 0.202934 1.106844
v -0.031386 0.218007 1.102801
v -0.028604 0.215965 1.110163
v 0.034791 0.265637 1.110584
v 0.044155 0.261832 1.115587
v 0.038078 0.248125 1.113318
v 0.032943 0.234534 1.110095
v 0.026846 0.222147 1.107806
v 0.017474 0.225766 1.100438
v 0.044892 0.246760 1.117861
v -0.022737 0.223342 1.107290
v -0.025634 0.227588 1.100181
v -0.020679 0.225955 1.101368
v 0.022203 0.250002 1.140970
v -0.052920 0.213753 1.116981
v 0.020582 0.307519 1.116290
v 0.032009 0.301193 1.112282
v 0.025728 0.295137 1.111371
v 0.012784 0.302035 1.116796
v -0.043436 0.212001 1.124462
v -0.049274 0.214274 1.122404
v 0.015102 0.213417 1.125862
v 0.011215 0.209308 1.123031
v 0.013534 0.206841 1.121199
v 0.018309 0.208682 1.125365
v 0.048986 0.261187 1.119194
v 0.039809 0.213050 1.121602
v 0.035595 0.216149 1.112397
v 0.049088 0.273959 1.117377
v 0.041229 0.277452 1.112474
v 0.046378 0.285675 1.113950
v 0.002255 0.223854 1.098319
v 0.026652 0.266583 1.107406
v 0.033937 0.278969 1.110283
v 0.039752 0.288885 1.111928
v 0.044667 0.295656 1.112632
v 0.051383 0.291432 1.114904
v -0.045763 0.204691 1.105979
v -0.042691 0.197137 1.109626
v 0.057766 0.297943 1.114513
v 0.049739 0.302407 1.112592
v 0.025159 0.281656 1.108773
v 0.014347 0.285247 1.108817
v 0.018398 0.269529 1.106282
v 0.007160 0.272005 1.105635
v -0.004528 0.230085 1.092361
v -0.045579 0.186615 1.123802
v -0.040746 0.193989 1.117173
v -0.039342 0.197596 1.121649
v -0.043199 0.188662 1.126819
v -0.037870 0.198646 1.114685
v -0.045044 0.193734 1.113227
v -0.005932 0.277016 1.109268
v -0.022719 0.222332 1.116258
v -0.000596 0.292088 1.116383
v -0.021675 0.276972 1.112937
v -0.018734 0.287376 1.120553
v 0.002599 0.307069 1.125304
v -0.012953 0.300063 1.128586
v 0.018165 0.317182 1.124162
v 0.011451 0.311285 1.123819
v -0.027334 0.290139 1.130640
v -0.052456 0.199557 1.131057
v -0.046918 0.197606 1.131597
v 0.026247 0.313670 1.116454
v -0.015844 0.259748 1.144453
v 0.024722 0.259335 1.146375
v 0.020262 0.261591 1.143659
v 0.042821 0.254554 1.151388
v 0.031222 0.256965 1.150529
v -0.057198 0.199046 1.128345
v -0.005949 0.210904 1.114564
v -0.004414 0.212092 1.114898
v -0.034089 0.265198 1.150741
v -0.037766 0.260922 1.147968
v -0.043874 0.265754 1.136832
v -0.042911 0.263707 1.143910
v -0.039566 0.270533 1.146441
v -0.040925 0.273463 1.139365
v 0.023741 0.270242 1.150525
v 0.026866 0.268029 1.151655
v 0.054275 0.256851 1.131251
v 0.052945 0.253096 1.142232
v -0.041884 0.236079 1.107239
v -0.035227 0.241549 1.099856
v -0.038658 0.233435 1.101548
v -0.036996 0.223048 1.100309
v -0.024113 0.220811 1.112335
v -0.026072 0.222168 1.109372
v 0.014310 0.282570 1.157520
v 0.012667 0.273370 1.148723
v -0.022477 0.257054 1.135899
v -0.025121 0.254267 1.134464
v -0.006410 0.229919 1.123881
v -0.005631 0.215184 1.101076
v -0.011284 0.220723 1.096424
v -0.011040 0.223298 1.119927
v -0.058944 0.192724 1.122759
v -0.059173 0.196675 1.125908
v -0.032659 0.231297 1.098067
v 0.013405 0.222306 1.129162
v 0.001087 0.216970 1.103130
v -0.004755 0.210891 1.107287
v 0.039374 0.215513 1.129925
v 0.037459 0.308212 1.113311
v -0.041297 0.201373 1.125594
v -0.043006 0.194427 1.130308
v -0.049039 0.186716 1.121087
v -0.054581 0.189261 1.119794
v 0.053552 0.263564 1.145670
v 0.017138 0.262763 1.141855
v -0.036592 0.278218 1.130718
v -0.040755 0.267288 1.129829
v -0.013413 0.219776 1.117528
v 0.026904 0.215154 1.111450
v 0.013029 0.216887 1.101673
v 0.008262 0.208415 1.103282
v 0.000585 0.208901 1.104439
v -0.004392 0.209105 1.109861
v -0.050454 0.183482 1.125866
v -0.055906 0.186035 1.124429
v -0.060209 0.189970 1.126998
v -0.060303 0.193955 1.129379
v -0.057496 0.196897 1.131149
v -0.046850 0.183495 1.128816
v -0.044827 0.185855 1.131462
v -0.043892 0.192015 1.132766
v -0.047556 0.182330 1.133897
v -0.052684 0.180282 1.134026
v -0.062634 0.187978 1.141080
v -0.061902 0.187051 1.135105
v -0.061349 0.185046 1.137086
v -0.061798 0.184970 1.142196
v -0.061776 0.183428 1.147269
v -0.062911 0.186775 1.146770
v -0.058142 0.182647 1.134398
v -0.058333 0.181872 1.141341
v -0.054337 0.180312 1.141505
v -0.055261 0.179245 1.147040
v -0.058898 0.180382 1.147015
v -0.054611 0.180580 1.136706
v -0.058022 0.182770 1.131658
v -0.061581 0.184630 1.150774
v -0.061414 0.182205 1.149991
v -0.058804 0.180064 1.150207
v -0.058239 0.181413 1.152956
v -0.061068 0.192782 1.133774
v -0.062172 0.190544 1.141731
v -0.060918 0.189161 1.147630
v -0.059743 0.186728 1.151460
v -0.058995 0.192357 1.143827
v -0.058232 0.190394 1.148158
v -0.056742 0.188247 1.151320
v -0.054875 0.192723 1.145316
v -0.055014 0.190479 1.148738
v -0.053745 0.196505 1.134956
v -0.057804 0.196305 1.133422
v -0.054825 0.189262 1.151042
v -0.056622 0.182797 1.153690
v -0.050748 0.180462 1.140316
v -0.052202 0.180226 1.147445
v -0.048646 0.181706 1.140885
v -0.049979 0.181019 1.147849
v -0.053929 0.179381 1.151606
v -0.055928 0.179203 1.149978
v -0.052460 0.197800 1.132432
v -0.046733 0.195583 1.133056
v -0.047673 0.194435 1.135342
v -0.050151 0.191199 1.145487
v -0.044882 0.190923 1.135647
v -0.045593 0.185100 1.136159
v -0.047315 0.183787 1.142824
v -0.047125 0.187027 1.144311
v -0.048906 0.183396 1.148132
v -0.049227 0.185953 1.148414
v -0.051523 0.189128 1.149158
v -0.051159 0.183694 1.151634
v -0.052371 0.180974 1.151889
v -0.054443 0.185332 1.152888
v -0.050632 0.185446 1.150930
v -0.053189 0.187140 1.151350
v -0.031697 0.192276 1.125637
v -0.025863 0.189908 1.127021
v -0.025009 0.193402 1.123717
v -0.030095 0.195174 1.122748
v -0.036792 0.185718 1.114203
v -0.037367 0.189680 1.119100
v -0.036217 0.192790 1.115097
v -0.034175 0.188684 1.109870
v -0.031398 0.181710 1.111689
v -0.028452 0.185411 1.107810
v -0.032055 0.193404 1.106743
v -0.033923 0.197494 1.112442
v -0.024799 0.216089 1.107523
v -0.022818 0.213279 1.101465
v -0.010545 0.211389 1.117676
v -0.009053 0.208779 1.115238
v -0.034950 0.191811 1.123162
v -0.033863 0.194786 1.119636
v -0.016004 0.192036 1.120342
v -0.019328 0.195295 1.123385
v -0.020734 0.190941 1.124027
v -0.018109 0.187159 1.120865
v -0.021472 0.217286 1.115313
v -0.015641 0.214745 1.116608
v -0.023901 0.217095 1.112251
v -0.015502 0.188660 1.114533
v -0.018407 0.187225 1.108378
v -0.010461 0.205225 1.101848
v -0.008006 0.204481 1.107813
v -0.032784 0.199358 1.117597
v -0.024525 0.197777 1.123728
v -0.029221 0.199613 1.122041
v -0.025411 0.190225 1.105216
v -0.021651 0.182308 1.111184
v -0.026200 0.171772 1.127478
v -0.020855 0.179635 1.119633
v -0.020151 0.182811 1.123798
v -0.024540 0.174000 1.131892
v -0.018326 0.183611 1.116333
v -0.024623 0.178963 1.114942
v -0.034730 0.182479 1.136650
v -0.028952 0.180050 1.137585
v -0.038686 0.182254 1.134258
v -0.016827 0.209443 1.099026
v -0.040418 0.177963 1.124780
v -0.040680 0.181280 1.130535
v -0.021580 0.186853 1.126664
v -0.025424 0.176865 1.135914
v -0.029400 0.171332 1.124084
v -0.035434 0.174465 1.121257
v -0.031867 0.168096 1.128236
v -0.037666 0.170739 1.126635
v -0.042508 0.174811 1.130097
v -0.041848 0.178628 1.134727
v -0.039273 0.180204 1.137333
v -0.028430 0.168376 1.131367
v -0.026355 0.170719 1.135310
v -0.026775 0.175351 1.137962
v -0.029504 0.165696 1.137742
v -0.033534 0.164122 1.135995
v -0.044888 0.167588 1.150855
v -0.044540 0.169559 1.145062
v -0.043746 0.167060 1.144481
v -0.044120 0.165080 1.149718
v -0.044224 0.169755 1.138526
v -0.043161 0.167616 1.139733
v -0.039612 0.165410 1.137500
v -0.040051 0.163963 1.143645
v -0.035310 0.162676 1.143022
v -0.036121 0.160150 1.148226
v -0.040873 0.161153 1.148985
v -0.036201 0.163710 1.138651
v -0.043607 0.163167 1.152821
v -0.043225 0.164253 1.155210
v -0.039823 0.166179 1.134136
v -0.043162 0.175915 1.138261
v -0.043830 0.172140 1.146712
v -0.043278 0.169622 1.152936
v -0.040816 0.165346 1.156826
v -0.040674 0.173877 1.149073
v -0.040430 0.170573 1.154266
v -0.038366 0.166682 1.156883
v -0.036137 0.174411 1.150653
v -0.036224 0.170550 1.155143
v -0.035155 0.179574 1.141108
v -0.039817 0.179030 1.140075
v -0.036468 0.168151 1.156349
v -0.040350 0.160245 1.155177
v -0.038152 0.162026 1.157093
v -0.040869 0.160207 1.153316
v -0.033149 0.162595 1.143060
v -0.034146 0.160556 1.149265
v -0.030671 0.163404 1.144321
v -0.032332 0.161106 1.150862
v -0.035978 0.159099 1.153462
v -0.037469 0.158948 1.152544
v -0.035062 0.180492 1.138661
v -0.029740 0.178480 1.138898
v -0.029716 0.177743 1.140910
v -0.031239 0.172208 1.150110
v -0.026736 0.174032 1.139737
v -0.027354 0.168441 1.139193
v -0.028890 0.165360 1.145504
v -0.028717 0.168508 1.148132
v -0.030591 0.162257 1.151644
v -0.030029 0.165546 1.151893
v -0.032436 0.169092 1.154261
v -0.033092 0.161269 1.155499
v -0.034735 0.159717 1.154630
v -0.036542 0.163661 1.157205
v -0.031886 0.164015 1.155014
v -0.034540 0.166170 1.156495
v -0.010498 0.188529 1.127523
v -0.004976 0.187476 1.129218
v -0.003669 0.190719 1.127265
v -0.009118 0.191516 1.125369
v -0.012848 0.182356 1.116325
v -0.014754 0.184878 1.120203
v -0.013417 0.188242 1.117542
v -0.011054 0.186584 1.112821
v -0.008681 0.178411 1.115736
v -0.005822 0.183853 1.110986
v -0.009084 0.190873 1.109739
v -0.011874 0.191797 1.115212
v -0.005850 0.205291 1.111221
v -0.002832 0.203011 1.105640
v -0.013418 0.187177 1.124170
v -0.012268 0.190094 1.122043
v 0.004912 0.189166 1.124413
v 0.001546 0.191741 1.126933
v 0.001043 0.188026 1.126741
v 0.003417 0.185235 1.124217
v -0.002091 0.209155 1.120376
v 0.003975 0.208417 1.121358
v -0.005330 0.207128 1.116911
v 0.005897 0.186342 1.118443
v 0.003451 0.186095 1.111488
v 0.010400 0.199085 1.109262
v 0.011998 0.200645 1.115055
v -0.011457 0.193171 1.120314
v -0.003218 0.194218 1.127126
v -0.008600 0.194579 1.124951
v -0.003124 0.188752 1.108638
v 0.000356 0.181345 1.113857
v -0.005378 0.166310 1.129982
v 0.001679 0.178479 1.121275
v 0.001760 0.181816 1.126273
v -0.004009 0.168474 1.133665
v 0.003712 0.181807 1.119485
v -0.002215 0.177182 1.116959
v -0.014750 0.176763 1.137266
v -0.009364 0.175435 1.138042
v -0.017442 0.176652 1.133690
v 0.003838 0.200511 1.104202
v 0.010412 0.204365 1.120336
v -0.018575 0.171966 1.127832
v -0.018837 0.174976 1.131030
v -0.000367 0.184838 1.128527
v -0.005085 0.171897 1.136768
v -0.008732 0.166297 1.126325
v -0.014328 0.168861 1.124653
v -0.010124 0.162547 1.130571
v -0.015827 0.165017 1.129254
v -0.020172 0.168113 1.132083
v -0.020037 0.171563 1.135063
v -0.018402 0.173563 1.137438
v -0.006625 0.163007 1.134076
v -0.005437 0.165417 1.137086
v -0.006080 0.170604 1.137998
v -0.007205 0.160973 1.138053
v -0.011988 0.158604 1.136488
v -0.022658 0.159217 1.149813
v -0.021948 0.162108 1.144727
v -0.021339 0.161081 1.144356
v -0.022161 0.157698 1.149081
v -0.021099 0.163460 1.138092
v -0.020592 0.161956 1.139352
v -0.017650 0.159967 1.137508
v -0.018148 0.156931 1.143247
v -0.012059 0.156615 1.143246
v -0.013458 0.154349 1.147706
v -0.019106 0.154113 1.147890
v -0.013380 0.158370 1.138137
v -0.021708 0.155563 1.151514
v -0.023090 0.156145 1.152762
v -0.017388 0.160745 1.135141
v -0.021646 0.168244 1.139396
v -0.022271 0.164683 1.146174
v -0.023033 0.161957 1.151496
v -0.021701 0.159042 1.154648
v -0.019871 0.167057 1.148045
v -0.020610 0.163847 1.152449
v -0.019519 0.161148 1.155257
v -0.016846 0.167951 1.149153
v -0.017478 0.164785 1.152893
v -0.015437 0.173252 1.141043
v -0.019202 0.171476 1.140419
v -0.017505 0.162279 1.154863
v -0.019311 0.153120 1.153159
v -0.017146 0.155749 1.155727
v -0.019216 0.153564 1.151474
v -0.010231 0.157002 1.142997
v -0.011411 0.154194 1.148936
v -0.008134 0.158629 1.144132
v -0.009482 0.155861 1.150028
v -0.014199 0.152674 1.151860
v -0.015035 0.152856 1.150979
v -0.014775 0.174742 1.138777
v -0.009748 0.173708 1.139122
v -0.010537 0.172537 1.141163
v -0.012208 0.167050 1.149809
v -0.006768 0.169626 1.140189
v -0.006193 0.163522 1.140738
v -0.007656 0.161250 1.146158
v -0.008821 0.164045 1.148550
v -0.009043 0.158418 1.151181
v -0.009903 0.161171 1.151474
v -0.013359 0.164170 1.153413
v -0.011961 0.157270 1.153915
v -0.012538 0.154389 1.153290
v -0.015817 0.158646 1.156074
v -0.011830 0.159795 1.154025
v -0.014795 0.160915 1.155509
v 0.008108 0.206719 1.121669
v 0.013298 0.187366 1.130417
v 0.016770 0.187041 1.132925
v 0.018163 0.188637 1.132125
v 0.014720 0.190052 1.129882
v 0.015170 0.183734 1.119727
v 0.012127 0.185166 1.123097
v 0.013530 0.188747 1.121017
v 0.016584 0.187459 1.117712
v 0.020205 0.182153 1.119451
v 0.021859 0.185572 1.118067
v 0.018123 0.190794 1.116865
v 0.014974 0.192422 1.120228
v 0.020176 0.207464 1.116968
v 0.024814 0.207549 1.113531
v 0.036009 0.210256 1.129420
v 0.031755 0.212532 1.132536
v 0.029140 0.204137 1.131867
v 0.033434 0.203162 1.129489
v 0.011821 0.186543 1.126864
v 0.012761 0.190034 1.125836
v 0.028281 0.188277 1.130790
v 0.024172 0.189895 1.132921
v 0.022089 0.187554 1.133282
v 0.026144 0.185328 1.132273
v 0.026204 0.212375 1.131801
v 0.022292 0.211904 1.129048
v 0.020665 0.207734 1.129185
v 0.024172 0.204730 1.131405
v 0.017898 0.206952 1.124198
v 0.029834 0.187171 1.126868
v 0.028632 0.187016 1.120885
v 0.036856 0.203829 1.119980
v 0.036442 0.203850 1.125053
v 0.013878 0.192363 1.124806
v 0.019761 0.191404 1.132176
v 0.016045 0.191846 1.129744
v 0.023696 0.188766 1.116729
v 0.026527 0.183750 1.122375
v 0.023610 0.174719 1.132645
v 0.026924 0.181410 1.129270
v 0.024943 0.183505 1.133288
v 0.022859 0.176543 1.135301
v 0.027859 0.183847 1.128259
v 0.024965 0.180312 1.123893
v 0.011050 0.181465 1.134232
v 0.015977 0.180915 1.136569
v 0.009351 0.180686 1.131373
v 0.031440 0.206011 1.114004
v 0.011490 0.176597 1.125324
v 0.009066 0.178625 1.128521
v 0.020663 0.185581 1.134020
v 0.020159 0.178961 1.136889
v 0.021850 0.173441 1.128400
v 0.017043 0.174626 1.124334
v 0.019475 0.170134 1.131187
v 0.014667 0.171513 1.127446
v 0.009115 0.174299 1.129280
v 0.008272 0.177383 1.131541
v 0.008964 0.179440 1.133941
v 0.021862 0.172081 1.135107
v 0.021649 0.174412 1.137233
v 0.019516 0.177627 1.138147
v 0.020069 0.169522 1.137817
v 0.016160 0.167225 1.136059
v 0.005879 0.169383 1.144690
v 0.006443 0.171202 1.140920
v 0.007000 0.170158 1.140612
v 0.005824 0.168382 1.144198
v 0.007626 0.171893 1.135458
v 0.008173 0.170548 1.136566
v 0.011133 0.168988 1.134900
v 0.009791 0.166909 1.139738
v 0.014838 0.165567 1.141360
v 0.013178 0.164060 1.144904
v 0.008834 0.165095 1.143016
v 0.014435 0.166834 1.136885
v 0.005654 0.166321 1.146110
v 0.005124 0.166558 1.147425
v 0.011563 0.169252 1.132586
v 0.007150 0.175931 1.136286
v 0.005938 0.173078 1.142672
v 0.005311 0.170227 1.146951
v 0.006121 0.167340 1.149445
v 0.007256 0.175148 1.143420
v 0.006342 0.171802 1.148354
v 0.007281 0.168999 1.150644
v 0.010045 0.176626 1.144656
v 0.008711 0.172899 1.148861
v 0.011774 0.179858 1.139141
v 0.008726 0.178440 1.137864
v 0.008658 0.170153 1.150410
v 0.007826 0.163678 1.147904
v 0.008775 0.165383 1.150218
v 0.008097 0.163470 1.146300
v 0.016192 0.165797 1.141753
v 0.014285 0.164081 1.146178
v 0.017955 0.167150 1.142951
v 0.015170 0.165441 1.147664
v 0.011479 0.163201 1.148228
v 0.010931 0.163223 1.146380
v 0.011520 0.180493 1.136904
v 0.015417 0.179948 1.137808
v 0.015890 0.178927 1.139932
v 0.014086 0.175956 1.145364
v 0.019711 0.176131 1.139881
v 0.020956 0.172434 1.139033
v 0.018466 0.169537 1.144297
v 0.017505 0.172669 1.145449
v 0.015131 0.167281 1.148907
v 0.014487 0.170250 1.149453
v 0.012044 0.172573 1.149484
v 0.011783 0.166540 1.150651
v 0.011686 0.164726 1.150044
v 0.009574 0.167176 1.150999
v 0.011906 0.168494 1.150848
v 0.010471 0.169362 1.150850
v 0.037124 0.208333 1.125816
v -0.038158 0.252615 1.126827
v -0.033623 0.250356 1.127960
v -0.033085 0.247755 1.145006
v -0.030387 0.245835 1.138475
v -0.039078 0.250885 1.147646
v -0.048222 0.256294 1.141953
v -0.043946 0.254598 1.146224
v -0.031084 0.247068 1.132199
v -0.043517 0.255454 1.128393
v -0.048190 0.257663 1.134513
v -0.047662 0.246478 1.128188
v -0.053491 0.249572 1.134475
v -0.054385 0.250414 1.141937
v -0.047087 0.251447 1.147593
v -0.041974 0.250069 1.149069
v -0.039358 0.246461 1.128876
v -0.034844 0.245413 1.130780
v -0.031442 0.244420 1.136054
v -0.040208 0.237901 1.131642
v -0.047515 0.231273 1.135984
v -0.054370 0.226909 1.155327
v -0.053451 0.233203 1.152123
v -0.053772 0.231411 1.149903
v -0.055096 0.225797 1.153060
v -0.054081 0.236796 1.147474
v -0.053370 0.234739 1.146351
v -0.051892 0.233739 1.141313
v -0.052421 0.228165 1.144751
v -0.048352 0.230547 1.138939
v -0.047605 0.226168 1.141275
v -0.053364 0.222616 1.147583
v -0.055898 0.221521 1.153301
v -0.053986 0.218004 1.150320
v -0.054401 0.221304 1.156294
v -0.054416 0.234709 1.138994
v -0.051924 0.242994 1.150096
v -0.051675 0.235602 1.154542
v -0.051588 0.228339 1.157745
v -0.051406 0.221958 1.157815
v -0.047250 0.236312 1.156339
v -0.047161 0.229303 1.157810
v -0.046522 0.223603 1.157076
v -0.042064 0.235390 1.155234
v -0.043221 0.228802 1.156002
v -0.038359 0.245537 1.149260
v -0.045449 0.246209 1.151799
v -0.044270 0.224880 1.155691
v -0.052400 0.216220 1.152654
v -0.048995 0.217229 1.154121
v -0.044617 0.226320 1.139153
v -0.048453 0.220790 1.143841
v -0.045323 0.220618 1.143326
v -0.040773 0.227720 1.138539
v -0.042564 0.220978 1.143889
v -0.048049 0.216470 1.147502
v -0.050609 0.217830 1.146643
v -0.035829 0.247616 1.147450
v -0.031968 0.245596 1.142087
v -0.033984 0.244307 1.144024
v -0.037329 0.233414 1.150038
v -0.033011 0.241349 1.139147
v -0.035759 0.239038 1.134571
v -0.037702 0.228980 1.140446
v -0.036038 0.230995 1.144529
v -0.040153 0.222864 1.146059
v -0.039415 0.224936 1.148291
v -0.040506 0.226942 1.152720
v -0.042848 0.219908 1.150131
v -0.045036 0.217305 1.148578
v -0.045134 0.220151 1.154199
v -0.041705 0.222286 1.150606
v -0.042966 0.223019 1.153596
v 0.033681 0.217461 1.134074
v 0.027039 0.218222 1.133821
v 0.030328 0.223147 1.136497
v 0.033385 0.230962 1.140978
v 0.041872 0.237303 1.142978
v 0.027045 0.233546 1.139465
v 0.024223 0.225230 1.135008
v 0.019831 0.218151 1.130586
v 0.023978 0.243487 1.140293
f 780 781 779
f 779 781 782
f 783 784 786
f 786 784 785
f 787 782 788
f 788 782 781
f 790 791 789
f 789 791 787
f 792 790 794
f 794 790 793
f 796 797 795
f 795 797 798
f 800 801 799
f 799 801 802
f 804 805 803
f 803 805 806
f 808 809 807
f 807 809 810
f 811 812 814
f 814 812 813
f 815 816 818
f 818 816 817
f 819 820 784
f 784 820 821
f 784 821 785
f 785 821 822
f 823 812 824
f 824 812 811
f 826 827 825
f 825 827 828
f 830 831 829
f 829 831 832
f 834 830 833
f 833 830 829
f 836 837 835
f 835 837 838
f 839 840 782
f 782 840 779
f 842 843 841
f 841 843 844
f 846 847 845
f 845 847 848
f 850 851 849
f 849 851 852
f 854 855 853
f 853 855 856
f 831 857 832
f 832 857 858
f 860 861 859
f 859 861 862
f 863 864 830
f 830 864 831
f 835 838 865
f 865 838 866
f 867 868 821
f 821 868 822
f 821 820 867
f 867 820 869
f 818 817 870
f 870 817 871
f 872 848 842
f 842 848 847
f 791 839 787
f 787 839 782
f 803 806 847
f 847 806 873
f 874 803 846
f 846 803 847
f 876 877 875
f 875 877 878
f 879 880 882
f 882 880 881
f 884 808 883
f 883 808 807
f 829 832 885
f 885 832 886
f 832 858 886
f 886 858 887
f 889 890 888
f 888 890 891
f 893 783 892
f 892 783 894
f 893 819 783
f 783 819 784
f 814 813 889
f 889 813 895
f 813 896 895
f 895 896 897
f 812 898 813
f 813 898 896
f 812 823 898
f 898 823 899
f 903 904 902
f 902 904 905
f 906 907 792
f 792 907 908
f 811 909 824
f 824 909 910
f 911 872 841
f 841 872 842
f 912 913 915
f 915 913 914
f 917 918 916
f 916 918 919
f 855 920 856
f 856 920 921
f 922 923 798
f 798 923 924
f 926 927 925
f 925 927 850
f 929 930 928
f 928 930 931
f 860 879 861
f 861 879 882
f 879 860 933
f 933 860 932
f 934 935 836
f 836 935 837
f 936 846 925
f 925 846 845
f 937 924 793
f 793 924 794
f 846 936 874
f 874 936 938
f 907 844 908
f 908 844 843
f 940 941 939
f 939 941 942
f 944 945 943
f 943 945 946
f 948 949 947
f 947 949 950
f 952 949 951
f 951 949 948
f 954 955 953
f 953 955 956
f 958 959 957
f 957 959 802
f 960 961 799
f 799 961 962
f 859 963 860
f 860 963 932
f 964 965 966
f 966 965 922
f 936 849 938
f 938 849 967
f 968 913 935
f 935 913 837
f 947 950 917
f 917 950 918
f 925 850 936
f 936 850 849
f 970 971 969
f 969 971 972
f 945 944 827
f 827 944 973
f 974 968 828
f 828 968 935
f 975 976 978
f 978 976 977
f 799 802 960
f 960 802 959
f 924 937 798
f 798 937 795
f 960 959 859
f 859 959 963
f 979 963 958
f 958 963 959
f 980 981 861
f 861 981 862
f 983 984 982
f 982 984 863
f 985 800 962
f 962 800 799
f 957 802 986
f 986 802 801
f 986 987 957
f 957 987 983
f 987 988 983
f 983 988 984
f 990 984 989
f 989 984 988
f 957 983 958
f 958 983 982
f 991 954 866
f 866 954 992
f 864 863 990
f 990 863 984
f 971 995 996
f 995 997 996
f 996 997 998
f 997 796 998
f 998 796 795
f 797 999 798
f 798 999 922
f 1000 1001 1003
f 1003 1001 1002
f 953 1004 954
f 954 1004 992
f 1005 865 992
f 992 865 866
f 998 795 1006
f 1006 795 937
f 912 991 838
f 838 991 866
f 916 1007 929
f 929 1007 930
f 971 970 988
f 988 970 989
f 1008 972 996
f 996 972 971
f 1009 1010 1006
f 1006 1010 1008
f 1011 1012 869
f 869 1012 867
f 1013 1014 871
f 871 1014 870
f 1008 1010 1012
f 1012 1010 1015
f 825 1016 826
f 826 1016 1017
f 1018 969 1013
f 1013 969 1014
f 783 786 894
f 894 786 1019
f 1020 1021 967
f 967 1021 938
f 1022 1023 876
f 876 1023 877
f 934 1024 825
f 825 1024 1016
f 854 1025 855
f 855 1025 1026
f 1028 903 1027
f 1027 903 902
f 1030 1031 1029
f 1029 1031 1032
f 889 888 814
f 814 888 1033
f 1034 811 1033
f 1033 811 814
f 1035 1036 932
f 932 1036 933
f 841 947 911
f 911 947 917
f 844 948 841
f 841 948 947
f 951 948 907
f 907 948 844
f 907 906 951
f 951 906 1037
f 906 1038 1037
f 1037 1038 1039
f 991 912 1040
f 1040 912 915
f 1041 1042 964
f 964 1042 965
f 890 1043 891
f 891 1043 1044
f 789 1045 1046
f 1012 1011 1008
f 1008 1011 972
f 931 1047 848
f 848 1047 845
f 953 956 943
f 943 956 919
f 928 931 872
f 872 931 848
f 1049 999 1048
f 1048 999 985
f 1047 931 1050
f 1050 931 930
f 899 823 887
f 887 823 886
f 825 828 934
f 934 828 935
f 835 1051 836
f 836 1051 1052
f 923 1053 1038
f 1038 1053 1039
f 1054 927 921
f 921 927 856
f 926 1047 853
f 853 1047 1050
f 985 1055 1048
f 1048 1055 1056
f 973 974 827
f 827 974 828
f 837 913 838
f 838 913 912
f 861 882 980
f 980 882 1057
f 927 926 856
f 856 926 853
f 1025 1056 1026
f 1026 1056 1055
f 961 960 862
f 862 960 859
f 826 1017 1059
f 1059 1017 1060
f 1005 1001 1061
f 1061 1001 1000
f 1001 1004 1002
f 1002 1004 946
f 1059 1060 1002
f 1002 1060 1003
f 943 946 953
f 953 946 1004
f 1042 1041 916
f 916 1041 1007
f 792 794 906
f 906 794 1038
f 998 1006 996
f 996 1006 1008
f 865 1005 1062
f 1062 1005 1061
f 1038 794 923
f 923 794 924
f 1022 876 1036
f 1036 876 933
f 836 1052 934
f 934 1052 1024
f 885 1063 829
f 829 1063 833
f 1021 1064 938
f 938 1064 874
f 1012 1015 867
f 867 1015 868
f 824 910 885
f 885 910 1063
f 1031 1030 1027
f 1027 1030 1028
f 1064 804 874
f 874 804 803
f 884 883 1065
f 1065 883 1066
f 1050 930 1067
f 1067 930 1007
f 916 929 917
f 917 929 911
f 961 1068 939
f 939 1068 940
f 1069 1070 1055
f 1055 1070 1071
f 929 928 911
f 911 928 872
f 1040 1053 955
f 955 1053 965
f 922 965 923
f 923 965 1053
f 1051 835 1062
f 1062 835 865
f 952 914 968
f 968 914 913
f 889 895 890
f 890 895 816
f 895 897 816
f 816 897 901
f 890 816 1043
f 1043 816 815
f 1065 1066 1032
f 1032 1066 1029
f 1006 937 1009
f 1009 937 793
f 1001 1005 1004
f 1004 1005 992
f 925 845 926
f 926 845 1047
f 1002 946 1059
f 1059 946 945
f 977 941 978
f 978 941 940
f 823 824 886
f 886 824 885
f 1059 945 826
f 826 945 827
f 939 942 1069
f 1069 942 1070
f 816 901 817
f 1071 1072 1055
f 1055 1072 1026
f 1062 1061 1074
f 1074 1061 1073
f 1062 1074 1051
f 1051 1074 1075
f 1052 1051 1076
f 1076 1051 1075
f 1024 1052 1077
f 1077 1052 1076
f 1061 1000 1073
f 1073 1000 1078
f 1000 1003 1078
f 1078 1003 1079
f 1079 1003 1080
f 1080 1003 1060
f 1081 1082 1078
f 1078 1082 1073
f 1084 1085 1083
f 1083 1085 1086
f 1087 1088 1086
f 1086 1088 1083
f 1086 1085 1090
f 1090 1085 1089
f 1091 1092 1090
f 1090 1092 1093
f 1089 1094 1090
f 1090 1094 1091
f 1095 1082 1089
f 1089 1082 1094
f 1093 1087 1090
f 1090 1087 1086
f 1096 1097 1099
f 1099 1097 1098
f 1097 1096 1087
f 1087 1096 1088
f 1089 1085 1095
f 1095 1085 1084
f 1084 1075 1095
f 1095 1075 1074
f 1084 1100 1075
f 1075 1100 1076
f 1083 1101 1084
f 1084 1101 1100
f 1101 1083 1102
f 1102 1083 1088
f 1082 1095 1073
f 1073 1095 1074
f 1096 1103 1088
f 1088 1103 1102
f 1101 1102 1104
f 1104 1102 1105
f 1102 1103 1105
f 1105 1103 1106
f 1104 1105 1107
f 1107 1105 1108
f 1107 1109 1104
f 1104 1109 1110
f 1111 1108 1106
f 1106 1108 1105
f 1101 1104 1100
f 1100 1104 1110
f 1100 1110 1076
f 1076 1110 1077
f 1103 1096 1112
f 1112 1096 1099
f 1091 1094 1113
f 1113 1094 1082
f 1113 1114 1091
f 1091 1114 1092
f 1082 1081 1113
f 1113 1081 1115
f 1114 1113 1116
f 1116 1113 1115
f 1114 1117 1092
f 1092 1117 1118
f 1024 1077 1016
f 1016 1077 1119
f 1017 1120 1060
f 1060 1120 1080
f 1120 1017 1119
f 1119 1017 1016
f 1119 1109 1120
f 1120 1109 1121
f 1109 1107 1121
f 1121 1107 1122
f 1120 1121 1080
f 1080 1121 1123
f 1119 1077 1109
f 1109 1077 1110
f 1124 1079 1123
f 1123 1079 1080
f 1124 1081 1079
f 1079 1081 1078
f 1125 1115 1124
f 1124 1115 1081
f 1125 1124 1126
f 1126 1124 1123
f 1127 1125 1128
f 1128 1125 1126
f 1121 1122 1123
f 1123 1122 1126
f 1122 1129 1126
f 1126 1129 1128
f 1115 1125 1116
f 1116 1125 1127
f 1131 1116 1130
f 1130 1116 1127
f 1130 1133 1132
f 1132 1133 1134
f 1130 1127 1133
f 1133 1127 1128
f 1130 1132 1131
f 1131 1132 1112
f 1131 1112 1117
f 1117 1112 1099
f 1117 1114 1131
f 1131 1114 1116
f 1107 1108 1122
f 1122 1108 1129
f 1134 1129 1111
f 1111 1129 1108
f 1134 1133 1129
f 1129 1133 1128
f 1132 1134 1106
f 1106 1134 1111
f 1106 1103 1132
f 1132 1103 1112
f 1087 1093 1097
f 1097 1093 1098
f 1098 1118 1099
f 1099 1118 1117
f 1098 1093 1118
f 1118 1093 1092
f 915 914 1039
f 1039 914 1037
f 918 944 919
f 919 944 943
f 950 949 973
f 973 949 974
f 949 952 974
f 974 952 968
f 956 955 1042
f 1042 955 965
f 950 973 918
f 918 973 944
f 915 1039 1040
f 1040 1039 1053
f 956 1042 919
f 919 1042 916
f 1040 955 991
f 991 955 954
f 914 952 1037
f 1037 952 951
f 1136 1137 1135
f 1135 1137 1138
f 1140 1141 1139
f 1139 1141 1142
f 1139 1142 1143
f 1143 1142 1144
f 1145 1146 1148
f 1148 1146 1147
f 854 1149 1025
f 1025 1149 1150
f 1151 1152 1140
f 1140 1152 1141
f 1154 1155 1153
f 1153 1155 1156
f 1067 1007 1158
f 1158 1007 1157
f 1159 1157 1041
f 1041 1157 1007
f 1161 1162 1160
f 1160 1162 1163
f 1164 1146 1152
f 1152 1146 1141
f 854 1067 1149
f 1149 1067 1158
f 1155 1154 1137
f 1137 1154 1165
f 1166 1164 1138
f 1138 1164 1152
f 1167 1161 1144
f 1144 1161 1168
f 1170 1171 1169
f 1169 1171 1172
f 1161 1160 1168
f 1168 1160 1173
f 1174 1143 1168
f 1168 1143 1144
f 1167 1144 1145
f 1145 1144 1142
f 1135 1175 1136
f 1136 1175 1176
f 1151 1177 1135
f 1135 1177 1175
f 1167 1145 1178
f 1178 1145 1148
f 1160 1163 1153
f 1153 1163 1150
f 1135 1138 1151
f 1151 1138 1152
f 1139 1179 1140
f 1140 1179 1180
f 1165 1166 1137
f 1137 1166 1138
f 1141 1146 1142
f 1142 1146 1145
f 1136 1176 1181
f 1181 1176 1182
f 1174 1170 1183
f 1183 1170 1169
f 1170 1173 1171
f 1171 1173 1156
f 1171 1181 1172
f 1172 1181 1182
f 1153 1156 1160
f 1160 1156 1173
f 1143 1174 1184
f 1184 1174 1183
f 1140 1180 1151
f 1151 1180 1177
f 1049 1048 1178
f 1178 1048 1162
f 1179 1139 1184
f 1184 1139 1143
f 1159 1147 1164
f 1164 1147 1146
f 1170 1174 1173
f 1173 1174 1168
f 1171 1156 1181
f 1181 1156 1155
f 1181 1155 1136
f 1136 1155 1137
f 1184 1183 1186
f 1186 1183 1185
f 1184 1186 1179
f 1179 1186 1187
f 1179 1187 1180
f 1180 1187 1188
f 1180 1188 1177
f 1177 1188 1189
f 1183 1169 1185
f 1185 1169 1190
f 1169 1172 1190
f 1190 1172 1191
f 1172 1182 1191
f 1191 1182 1192
f 1193 1194 1190
f 1190 1194 1185
f 1196 1197 1195
f 1195 1197 1198
f 1199 1200 1196
f 1196 1200 1197
f 1197 1200 1202
f 1202 1200 1201
f 1203 1204 1202
f 1202 1204 1205
f 1201 1206 1202
f 1202 1206 1203
f 1205 1198 1202
f 1202 1198 1197
f 1198 1207 1195
f 1195 1207 1208
f 1201 1200 1209
f 1209 1200 1199
f 1199 1187 1209
f 1209 1187 1186
f 1199 1210 1187
f 1187 1210 1188
f 1196 1211 1199
f 1199 1211 1210
f 1212 1211 1195
f 1195 1211 1196
f 1209 1194 1201
f 1201 1194 1206
f 1194 1209 1185
f 1185 1209 1186
f 1213 1212 1208
f 1208 1212 1195
f 1211 1212 1214
f 1214 1212 1215
f 1212 1213 1215
f 1215 1213 1216
f 1214 1215 1217
f 1217 1215 1218
f 1217 1219 1214
f 1214 1219 1220
f 1216 1221 1215
f 1215 1221 1218
f 1214 1220 1211
f 1211 1220 1210
f 1210 1220 1188
f 1188 1220 1189
f 1213 1208 1223
f 1223 1208 1222
f 1208 1207 1222
f 1222 1207 1224
f 1203 1206 1225
f 1225 1206 1194
f 1204 1203 1226
f 1226 1203 1225
f 1194 1193 1225
f 1225 1193 1227
f 1225 1227 1226
f 1226 1227 1228
f 1229 1230 1226
f 1226 1230 1204
f 1224 1230 1222
f 1222 1230 1229
f 1177 1189 1175
f 1175 1189 1231
f 1176 1232 1182
f 1182 1232 1192
f 1232 1176 1231
f 1231 1176 1175
f 1231 1219 1232
f 1232 1219 1233
f 1219 1217 1233
f 1233 1217 1234
f 1232 1233 1192
f 1192 1233 1235
f 1219 1231 1220
f 1220 1231 1189
f 1236 1191 1235
f 1235 1191 1192
f 1236 1193 1191
f 1191 1193 1190
f 1236 1237 1193
f 1193 1237 1227
f 1237 1236 1238
f 1238 1236 1235
f 1239 1237 1240
f 1240 1237 1238
f 1233 1234 1235
f 1235 1234 1238
f 1234 1241 1238
f 1238 1241 1240
f 1237 1239 1227
f 1227 1239 1228
f 1243 1228 1242
f 1242 1228 1239
f 1242 1245 1244
f 1244 1245 1246
f 1242 1239 1245
f 1245 1239 1240
f 1242 1244 1243
f 1243 1244 1223
f 1243 1223 1229
f 1229 1223 1222
f 1229 1226 1243
f 1243 1226 1228
f 1217 1218 1234
f 1234 1218 1241
f 1246 1241 1221
f 1221 1241 1218
f 1246 1245 1241
f 1241 1245 1240
f 1244 1246 1216
f 1216 1246 1221
f 1216 1213 1244
f 1244 1213 1223
f 1198 1205 1207
f 1207 1205 1224
f 1224 1205 1230
f 1230 1205 1204
f 1148 1147 966
f 966 1147 964
f 1149 1154 1150
f 1150 1154 1153
f 1158 1157 1165
f 1165 1157 1166
f 1157 1159 1166
f 1166 1159 1164
f 1163 1162 1056
f 1056 1162 1048
f 1158 1165 1149
f 1149 1165 1154
f 1178 1148 1049
f 1049 1148 966
f 1163 1056 1150
f 1150 1056 1025
f 1178 1162 1167
f 1167 1162 1161
f 1147 1159 964
f 964 1159 1041
f 999 1049 922
f 922 1049 966
f 999 797 985
f 985 797 800
f 797 796 800
f 800 796 801
f 796 997 801
f 801 997 986
f 1247 1248 1250
f 1250 1248 1249
f 1252 1253 1251
f 1251 1253 1254
f 1251 1254 1255
f 1255 1254 1256
f 1258 1259 1257
f 1257 1259 1260
f 1261 1262 1252
f 1252 1262 1253
f 1264 1265 1263
f 1263 1265 1266
f 1267 1268 855
f 855 1268 920
f 1269 1267 1026
f 1026 1267 855
f 1271 1272 1270
f 1270 1272 1273
f 1274 1258 1262
f 1262 1258 1253
f 1264 1275 1265
f 1265 1275 1249
f 1276 1274 1250
f 1250 1274 1262
f 1277 1271 1256
f 1256 1271 1278
f 1279 1280 1282
f 1282 1280 1281
f 1271 1270 1278
f 1278 1270 1283
f 1284 1255 1278
f 1278 1255 1256
f 1277 1256 1257
f 1257 1256 1254
f 1247 1285 1248
f 1248 1285 1286
f 1261 1287 1247
f 1247 1287 1285
f 1257 1260 1277
f 1277 1260 1288
f 1270 1273 1263
f 1263 1273 1289
f 1261 1247 1262
f 1262 1247 1250
f 1251 1290 1252
f 1252 1290 1291
f 1275 1276 1249
f 1249 1276 1250
f 1253 1258 1254
f 1254 1258 1257
f 1248 1286 1292
f 1292 1286 1293
f 1284 1280 1294
f 1294 1280 1279
f 1281 1280 1266
f 1266 1280 1283
f 1292 1293 1281
f 1281 1293 1282
f 1263 1266 1270
f 1270 1266 1283
f 1255 1284 1295
f 1295 1284 1294
f 1252 1291 1261
f 1261 1291 1287
f 1288 1070 1272
f 1272 1070 942
f 1290 1251 1295
f 1295 1251 1255
f 1269 1259 1274
f 1274 1259 1258
f 1280 1284 1283
f 1283 1284 1278
f 1281 1266 1292
f 1292 1266 1265
f 1292 1265 1248
f 1248 1265 1249
f 1295 1294 1297
f 1297 1294 1296
f 1295 1297 1290
f 1290 1297 1298
f 1290 1298 1291
f 1291 1298 1299
f 1291 1299 1287
f 1287 1299 1300
f 1294 1279 1296
f 1296 1279 1301
f 1279 1282 1301
f 1301 1282 1302
f 1302 1282 1303
f 1303 1282 1293
f 1304 1305 1301
f 1301 1305 1296
f 1307 1308 1306
f 1306 1308 1309
f 1310 1311 1307
f 1307 1311 1308
f 1308 1311 1313
f 1313 1311 1312
f 1314 1315 1313
f 1313 1315 1316
f 1312 1317 1313
f 1313 1317 1314
f 1316 1309 1313
f 1313 1309 1308
f 1318 1319 1309
f 1309 1319 1306
f 1311 1310 1312
f 1312 1310 1320
f 1310 1298 1320
f 1320 1298 1297
f 1310 1321 1298
f 1298 1321 1299
f 1307 1322 1310
f 1310 1322 1321
f 1322 1307 1323
f 1323 1307 1306
f 1312 1320 1317
f 1317 1320 1305
f 1305 1320 1296
f 1296 1320 1297
f 1319 1324 1306
f 1306 1324 1323
f 1325 1322 1326
f 1326 1322 1323
f 1324 1327 1323
f 1323 1327 1326
f 1328 1325 1329
f 1329 1325 1326
f 1325 1328 1331
f 1331 1328 1330
f 1327 1332 1326
f 1326 1332 1329
f 1322 1325 1321
f 1321 1325 1331
f 1321 1331 1299
f 1299 1331 1300
f 1324 1319 1334
f 1334 1319 1333
f 1319 1318 1333
f 1333 1318 1335
f 1314 1317 1336
f 1336 1317 1305
f 1315 1314 1337
f 1337 1314 1336
f 1305 1304 1336
f 1336 1304 1338
f 1337 1336 1339
f 1339 1336 1338
f 1337 1340 1315
f 1315 1340 1341
f 1335 1341 1333
f 1333 1341 1340
f 1287 1300 1285
f 1285 1300 1342
f 1286 1343 1293
f 1293 1343 1303
f 1343 1286 1342
f 1342 1286 1285
f 1342 1330 1343
f 1343 1330 1344
f 1330 1328 1344
f 1344 1328 1345
f 1343 1344 1303
f 1303 1344 1346
f 1342 1300 1330
f 1330 1300 1331
f 1347 1302 1346
f 1346 1302 1303
f 1347 1304 1302
f 1302 1304 1301
f 1348 1338 1347
f 1347 1338 1304
f 1348 1347 1349
f 1349 1347 1346
f 1350 1348 1351
f 1351 1348 1349
f 1344 1345 1346
f 1346 1345 1349
f 1345 1352 1349
f 1349 1352 1351
f 1348 1350 1338
f 1338 1350 1339
f 1354 1339 1353
f 1353 1339 1350
f 1353 1356 1355
f 1355 1356 1357
f 1353 1350 1356
f 1356 1350 1351
f 1353 1355 1354
f 1354 1355 1334
f 1354 1334 1340
f 1340 1334 1333
f 1340 1337 1354
f 1354 1337 1339
f 1328 1329 1345
f 1345 1329 1352
f 1357 1352 1332
f 1332 1352 1329
f 1357 1356 1352
f 1352 1356 1351
f 1357 1332 1355
f 1355 1332 1327
f 1327 1324 1355
f 1355 1324 1334
f 1309 1316 1318
f 1318 1316 1335
f 1335 1316 1341
f 1341 1316 1315
f 1259 1072 1260
f 1260 1072 1071
f 1358 1264 1289
f 1289 1264 1263
f 1268 1267 1275
f 1275 1267 1276
f 1267 1269 1276
f 1276 1269 1274
f 941 1273 942
f 942 1273 1272
f 1358 1268 1264
f 1264 1268 1275
f 1260 1071 1288
f 1288 1071 1070
f 1273 941 1289
f 1289 941 977
f 1272 1271 1288
f 1288 1271 1277
f 1259 1269 1072
f 1072 1269 1026
f 1360 1361 1359
f 1359 1361 1362
f 1364 1365 1363
f 1363 1365 1366
f 1363 1366 1367
f 1367 1366 1368
f 1370 1371 1369
f 1369 1371 1372
f 1373 1374 1376
f 1376 1374 1375
f 1377 1378 1364
f 1364 1378 1365
f 1379 1380 1382
f 1382 1380 1381
f 1383 1384 1386
f 1386 1384 1385
f 1387 1385 978
f 978 1385 1384
f 1388 1389 1391
f 1391 1389 1390
f 1378 1392 1365
f 1365 1392 1370
f 1374 1383 1375
f 1375 1383 1386
f 1380 1393 1381
f 1381 1393 1361
f 1394 1392 1362
f 1362 1392 1378
f 1389 1396 1395
f 1395 1396 1368
f 1398 1399 1397
f 1397 1399 1400
f 1388 1401 1389
f 1389 1401 1396
f 1402 1367 1396
f 1396 1367 1368
f 1395 1368 1369
f 1369 1368 1366
f 1359 1403 1360
f 1360 1403 1404
f 1377 1405 1359
f 1359 1405 1403
f 1369 1372 1395
f 1395 1372 1406
f 1379 1388 1376
f 1376 1388 1391
f 1359 1362 1377
f 1377 1362 1378
f 1363 1407 1364
f 1364 1407 1408
f 1393 1394 1361
f 1361 1394 1362
f 1365 1370 1366
f 1366 1370 1369
f 1360 1404 1409
f 1409 1404 1410
f 1402 1398 1411
f 1411 1398 1397
f 1399 1398 1382
f 1382 1398 1401
f 1409 1410 1399
f 1399 1410 1400
f 1388 1379 1401
f 1401 1379 1382
f 1367 1402 1412
f 1412 1402 1411
f 1364 1408 1377
f 1377 1408 1405
f 981 980 1406
f 1406 980 1390
f 1407 1363 1412
f 1412 1363 1367
f 1387 1371 1392
f 1392 1371 1370
f 1398 1402 1401
f 1401 1402 1396
f 1409 1399 1381
f 1381 1399 1382
f 1360 1409 1361
f 1361 1409 1381
f 1412 1411 1414
f 1414 1411 1413
f 1412 1414 1407
f 1407 1414 1415
f 1407 1415 1408
f 1408 1415 1416
f 1408 1416 1405
f 1405 1416 1417
f 1411 1397 1413
f 1413 1397 1418
f 1397 1400 1418
f 1418 1400 1419
f 1419 1400 1420
f 1420 1400 1410
f 1422 1413 1421
f 1421 1413 1418
f 1423 1424 1426
f 1426 1424 1425
f 1427 1428 1424
f 1424 1428 1425
f 1425 1428 1430
f 1430 1428 1429
f 1430 1431 1433
f 1433 1431 1432
f 1429 1434 1430
f 1430 1434 1431
f 1433 1426 1430
f 1430 1426 1425
f 1426 1435 1423
f 1423 1435 1436
f 1428 1427 1429
f 1429 1427 1437
f 1427 1415 1437
f 1437 1415 1414
f 1427 1438 1415
f 1415 1438 1416
f 1439 1438 1424
f 1424 1438 1427
f 1440 1439 1423
f 1423 1439 1424
f 1429 1437 1434
f 1434 1437 1422
f 1422 1437 1413
f 1413 1437 1414
f 1441 1440 1436
f 1436 1440 1423
f 1442 1439 1443
f 1443 1439 1440
f 1441 1444 1440
f 1440 1444 1443
f 1445 1442 1446
f 1446 1442 1443
f 1442 1445 1448
f 1448 1445 1447
f 1444 1449 1443
f 1443 1449 1446
f 1439 1442 1438
f 1438 1442 1448
f 1438 1448 1416
f 1416 1448 1417
f 1436 1450 1441
f 1441 1450 1451
f 1436 1435 1450
f 1450 1435 1452
f 1431 1434 1453
f 1453 1434 1422
f 1431 1453 1432
f 1432 1453 1454
f 1453 1422 1455
f 1455 1422 1421
f 1454 1453 1456
f 1456 1453 1455
f 1457 1458 1454
f 1454 1458 1432
f 1452 1458 1450
f 1450 1458 1457
f 1405 1417 1403
f 1403 1417 1459
f 1404 1460 1410
f 1410 1460 1420
f 1459 1460 1403
f 1403 1460 1404
f 1447 1461 1459
f 1459 1461 1460
f 1445 1462 1447
f 1447 1462 1461
f 1460 1461 1420
f 1420 1461 1463
f 1459 1417 1447
f 1447 1417 1448
f 1464 1419 1463
f 1463 1419 1420
f 1419 1464 1418
f 1418 1464 1421
f 1464 1465 1421
f 1421 1465 1455
f 1465 1464 1466
f 1466 1464 1463
f 1467 1465 1468
f 1468 1465 1466
f 1461 1462 1463
f 1463 1462 1466
f 1462 1469 1466
f 1466 1469 1468
f 1465 1467 1455
f 1455 1467 1456
f 1471 1456 1470
f 1470 1456 1467
f 1470 1473 1472
f 1472 1473 1474
f 1470 1467 1473
f 1473 1467 1468
f 1470 1472 1471
f 1471 1472 1451
f 1471 1451 1457
f 1457 1451 1450
f 1457 1454 1471
f 1471 1454 1456
f 1462 1445 1469
f 1469 1445 1446
f 1474 1469 1449
f 1449 1469 1446
f 1474 1473 1469
f 1469 1473 1468
f 1472 1474 1444
f 1444 1474 1449
f 1444 1441 1472
f 1472 1441 1451
f 1426 1433 1435
f 1435 1433 1452
f 1452 1433 1458
f 1458 1433 1432
f 1371 940 1372
f 1372 940 1068
f 1376 1375 1379
f 1379 1375 1380
f 1393 1386 1394
f 1394 1386 1385
f 1385 1387 1394
f 1394 1387 1392
f 1475 1373 1391
f 1391 1373 1376
f 1375 1386 1380
f 1380 1386 1393
f 1372 1068 1406
f 1406 1068 981
f 1406 1390 1395
f 1395 1390 1389
f 1371 1387 940
f 940 1387 978
f 883 807 1476
f 1476 807 1477
f 1046 904 1479
f 1479 904 1478
f 904 903 1478
f 1478 903 1480
f 1030 1481 1028
f 1028 1481 1482
f 810 1046 1483
f 1483 1046 1479
f 1066 883 1484
f 1484 883 1476
f 807 810 1477
f 1477 810 1483
f 1485 1029 1484
f 1484 1029 1066
f 1028 1482 903
f 903 1482 1480
f 1481 1030 1485
f 1485 1030 1029
f 1484 1486 1485
f 1485 1486 1487
f 1485 1487 1481
f 1481 1487 1488
f 1481 1488 1482
f 1482 1488 1489
f 1482 1489 1480
f 1480 1489 1490
f 1484 1476 1486
f 1486 1476 1491
f 1476 1477 1491
f 1491 1477 1492
f 1477 1483 1492
f 1492 1483 1493
f 1495 1486 1494
f 1494 1486 1491
f 1497 1498 1496
f 1496 1498 1499
f 1500 1501 1497
f 1497 1501 1498
f 1502 1503 1501
f 1501 1503 1498
f 1502 1504 1503
f 1503 1504 1505
f 1506 1499 1503
f 1503 1499 1498
f 1499 1506 1507
f 1507 1506 1508
f 1507 1509 1499
f 1499 1509 1496
f 1502 1501 1510
f 1510 1501 1500
f 1500 1488 1510
f 1510 1488 1487
f 1500 1511 1488
f 1488 1511 1489
f 1497 1512 1500
f 1500 1512 1511
f 1512 1497 1513
f 1513 1497 1496
f 1502 1510 1504
f 1504 1510 1495
f 1495 1510 1486
f 1486 1510 1487
f 1509 1514 1496
f 1496 1514 1513
f 1515 1512 1516
f 1516 1512 1513
f 1514 1517 1513
f 1513 1517 1516
f 1518 1515 1519
f 1519 1515 1516
f 1515 1518 1521
f 1521 1518 1520
f 1517 1522 1516
f 1516 1522 1519
f 1512 1515 1511
f 1511 1515 1521
f 1511 1521 1489
f 1489 1521 1490
f 1514 1509 1524
f 1524 1509 1523
f 1509 1507 1523
f 1523 1507 1508
f 1505 1504 1525
f 1525 1504 1495
f 1526 1505 1527
f 1527 1505 1525
f 1525 1495 1528
f 1528 1495 1494
f 1527 1525 1529
f 1529 1525 1528
f 1527 1530 1526
f 1526 1530 1531
f 1508 1531 1523
f 1523 1531 1530
f 1506 1503 1526
f 1526 1503 1505
f 1508 1506 1531
f 1531 1506 1526
f 1478 1480 1532
f 1532 1480 1490
f 1483 1479 1493
f 1493 1479 1533
f 1532 1533 1478
f 1478 1533 1479
f 1520 1534 1532
f 1532 1534 1533
f 1518 1535 1520
f 1520 1535 1534
f 1533 1534 1493
f 1493 1534 1536
f 1532 1490 1520
f 1520 1490 1521
f 1537 1492 1536
f 1536 1492 1493
f 1492 1537 1491
f 1491 1537 1494
f 1537 1538 1494
f 1494 1538 1528
f 1538 1537 1539
f 1539 1537 1536
f 1540 1538 1541
f 1541 1538 1539
f 1534 1535 1536
f 1536 1535 1539
f 1535 1542 1539
f 1539 1542 1541
f 1538 1540 1528
f 1528 1540 1529
f 1544 1529 1543
f 1543 1529 1540
f 1545 1543 1547
f 1547 1543 1546
f 1543 1540 1546
f 1546 1540 1541
f 1543 1545 1544
f 1544 1545 1524
f 1544 1524 1530
f 1530 1524 1523
f 1530 1527 1544
f 1544 1527 1529
f 1535 1518 1542
f 1542 1518 1519
f 1547 1542 1522
f 1522 1542 1519
f 1547 1546 1542
f 1542 1546 1541
f 1545 1547 1517
f 1517 1547 1522
f 1517 1514 1545
f 1545 1514 1524
f 997 995 986
f 986 995 987
f 987 995 988
f 988 995 971
f 976 1358 977
f 977 1358 1289
f 854 853 1067
f 1067 853 1050
f 1055 985 1069
f 1069 985 962
f 1068 961 981
f 981 961 862
f 1268 1358 920
f 920 1358 976
f 920 976 921
f 921 976 975
f 927 1054 850
f 850 1054 851
f 882 881 1057
f 1057 881 1548
f 1548 1374 1057
f 1057 1374 1373
f 1383 1374 1549
f 1549 1374 1548
f 1549 1548 1550
f 1550 1548 881
f 1550 881 1551
f 1551 881 880
f 933 1552 879
f 879 1552 880
f 1551 880 875
f 875 880 1552
f 1553 1551 878
f 878 1551 875
f 1551 1553 1550
f 1550 1553 1554
f 1550 1554 1549
f 1549 1554 1555
f 978 1384 975
f 975 1384 1555
f 967 849 1556
f 1556 849 852
f 875 1552 876
f 876 1552 933
f 961 939 962
f 962 939 1069
f 1555 1054 975
f 975 1054 921
f 1555 1384 1549
f 1549 1384 1383
f 1391 1390 1475
f 1475 1390 980
f 1373 1475 1057
f 1057 1475 980
f 851 1054 1554
f 1554 1054 1555
f 1554 1553 851
f 851 1553 852
f 878 1556 1553
f 1553 1556 852
f 1556 878 967
f 967 878 877
f 1023 1020 877
f 877 1020 967
f 909 811 1034
f 806 779 873
f 873 779 840
f 805 780 806
f 806 780 779
f 1043 893 1044
f 1044 893 892
f 873 840 847
f 847 840 842
f 840 839 842
f 842 839 843
f 839 791 843
f 843 791 908
f 791 790 908
f 908 790 792
f 809 789 810
f 810 789 1046
f 793 790 809
f 809 790 789
f 809 808 793
f 793 808 1009
f 808 884 1009
f 1009 884 1010
f 1065 1015 884
f 884 1015 1010
f 1032 868 1065
f 1065 868 1015
f 1031 822 1032
f 1032 822 868
f 1031 1027 822
f 822 1027 785
f 1045 905 1046
f 1046 905 904
f 788 781 1019
f 1019 781 894
f 781 780 894
f 894 780 892
f 780 805 892
f 892 805 1044
f 805 804 1044
f 1044 804 891
f 804 1064 891
f 891 1064 888
f 1064 1021 888
f 888 1021 1033
f 1021 1020 1033
f 1033 1020 1034
f 1020 1023 1034
f 1034 1023 909
f 1023 1022 909
f 909 1022 910
f 1043 815 893
f 893 815 819
f 819 815 820
f 820 815 818
f 870 869 818
f 818 869 820
f 1014 1011 870
f 870 1011 869
f 969 972 1014
f 1014 972 1011
f 1036 1063 1022
f 1022 1063 910
f 1035 833 1036
f 1036 833 1063
f 1035 932 979
f 979 932 963
f 834 979 982
f 982 979 958
f 833 1035 834
f 834 1035 979
f 982 863 834
f 834 863 830
f 864 900 831
f 831 900 857
f 990 993 864
f 864 993 900
f 989 994 990
f 990 994 993
f 970 1058 989
f 989 1058 994
f 969 1018 970
f 970 1018 1058
f 1027 902 785
f 785 902 786
f 902 905 786
f 786 905 1019
f 905 1045 1019
f 1019 1045 788
f 788 1045 787
f 787 1045 789
