o hand_left
v -0.052182 0.324328 1.148731
v -0.057532 0.333193 1.152536
v -0.049846 0.328349 1.158938
v -0.044359 0.320556 1.153818
v -0.056988 0.347513 1.169692
v -0.051351 0.358251 1.171398
v -0.041607 0.347200 1.176727
v -0.048292 0.339476 1.175178
v -0.036695 0.317540 1.156535
v -0.043260 0.324059 1.163432
v -0.030653 0.318762 1.155836
v -0.025382 0.314863 1.143313
v -0.030840 0.312856 1.147960
v -0.023363 0.309250 1.136941
v -0.024801 0.323050 1.135265
v -0.024973 0.310834 1.127365
v -0.047642 0.325725 1.114635
v -0.060827 0.324944 1.111101
v -0.056639 0.309165 1.109757
v -0.043884 0.311231 1.114145
v -0.077197 0.312498 1.110356
v -0.065755 0.309658 1.109550
v -0.069810 0.325772 1.109879
v -0.080005 0.327370 1.110641
v -0.066947 0.328774 1.142804
v -0.071928 0.338062 1.145089
v -0.066372 0.336825 1.146487
v -0.061583 0.328195 1.144432
v -0.022528 0.326613 1.162045
v -0.023713 0.332961 1.150554
v -0.025477 0.324785 1.151089
v -0.025992 0.322569 1.164445
v -0.091227 0.358506 1.153715
v -0.092392 0.371602 1.150079
v -0.086641 0.372986 1.150828
v -0.086774 0.360662 1.153442
v -0.065829 0.371718 1.159615
v -0.069459 0.378845 1.153285
v -0.060589 0.387876 1.147826
v -0.054769 0.380555 1.151201
v -0.058873 0.364700 1.166352
v -0.049639 0.373045 1.159936
v -0.042941 0.364738 1.166074
v -0.034494 0.352342 1.173192
v -0.104251 0.369134 1.145371
v -0.105223 0.359208 1.147838
v -0.011667 0.260540 1.139413
v -0.016499 0.257322 1.139159
v -0.018659 0.262286 1.139293
v -0.013391 0.264525 1.139278
v -0.110674 0.361597 1.127504
v -0.107434 0.362612 1.117851
v -0.110500 0.368982 1.119858
v -0.111824 0.368899 1.129280
v -0.109023 0.351926 1.125322
v -0.102810 0.353772 1.115845
v -0.006356 0.261396 1.127846
v -0.005772 0.262021 1.132899
v -0.007267 0.266364 1.131388
v -0.008584 0.265753 1.126354
v -0.038587 0.313612 1.149114
v -0.047779 0.315790 1.147058
v -0.033412 0.295907 1.143501
v -0.040097 0.304294 1.143930
v -0.033415 0.306782 1.145173
v -0.028281 0.300184 1.143233
v -0.063157 0.306547 1.137833
v -0.066396 0.317909 1.139484
v -0.059900 0.317003 1.140708
v -0.054876 0.304809 1.139999
v -0.080652 0.316834 1.139417
v -0.076245 0.305717 1.137446
v -0.084837 0.306209 1.137732
v -0.086613 0.313968 1.139977
v -0.065858 0.286972 1.133276
v -0.062770 0.279363 1.129471
v -0.065926 0.279434 1.129089
v -0.069407 0.287238 1.132455
v -0.112873 0.375618 1.120819
v -0.111994 0.376056 1.130699
v -0.098235 0.314108 1.114585
v -0.106522 0.316471 1.121776
v -0.106311 0.304424 1.120697
v -0.097604 0.305116 1.113423
v -0.098994 0.363388 1.111581
v -0.103912 0.369549 1.112092
v -0.010057 0.258843 1.123646
v -0.012722 0.263227 1.122723
v -0.037323 0.367066 1.153933
v -0.028323 0.353625 1.165064
v -0.045437 0.376807 1.145871
v -0.051596 0.383107 1.139829
v -0.055706 0.390168 1.137009
v -0.044515 0.299007 1.142114
v -0.055807 0.320005 1.144042
v -0.071996 0.328820 1.142130
v -0.102121 0.321643 1.143207
v -0.104600 0.331957 1.145391
v -0.094287 0.329678 1.146966
v -0.094166 0.321206 1.144066
v -0.109428 0.314551 1.130983
v -0.105414 0.311924 1.137413
v -0.103679 0.302575 1.135428
v -0.107985 0.304085 1.129449
v -0.018653 0.333124 1.163658
v -0.022827 0.340748 1.151434
v -0.110277 0.361152 1.138188
v -0.109073 0.368859 1.139150
v -0.109273 0.377266 1.137960
v -0.080584 0.348520 1.150279
v -0.083692 0.362159 1.153391
v -0.079523 0.362294 1.154596
v -0.077489 0.348532 1.149688
v -0.063867 0.342439 1.158067
v -0.067003 0.354903 1.162694
v -0.056143 0.335936 1.165089
v -0.079346 0.376616 1.151888
v -0.088066 0.383217 1.150493
v -0.079537 0.386049 1.150958
v -0.097233 0.380968 1.147498
v -0.104929 0.378784 1.143359
v -0.107759 0.376888 1.109956
v -0.071304 0.387874 1.149850
v -0.041510 0.333738 1.178184
v -0.035331 0.330040 1.181394
v -0.035476 0.323887 1.176201
v -0.042078 0.326815 1.172490
v -0.020670 0.301689 1.132009
v -0.023050 0.300746 1.139515
v -0.026580 0.309228 1.143332
v -0.093638 0.347177 1.151914
v -0.105430 0.348265 1.147270
v -0.037092 0.290481 1.141042
v -0.010698 0.269904 1.124936
v -0.009099 0.270798 1.130374
v -0.015824 0.287571 1.130278
v -0.017210 0.285763 1.123904
v -0.036149 0.281472 1.133397
v -0.034258 0.285133 1.138795
v -0.032761 0.282144 1.137102
v -0.034635 0.277532 1.132987
v -0.075130 0.282036 1.129149
v -0.078071 0.288442 1.132105
v -0.041609 0.295726 1.116323
v -0.029510 0.302260 1.117073
v -0.032688 0.312595 1.118809
v -0.070668 0.306972 1.137329
v -0.068642 0.296395 1.135759
v -0.072816 0.296071 1.135195
v -0.046231 0.294695 1.140083
v -0.041478 0.287262 1.138113
v -0.047377 0.289508 1.137032
v -0.051613 0.296082 1.138580
v -0.107926 0.329434 1.121764
v -0.111721 0.327307 1.132613
v -0.007738 0.261964 1.137120
v -0.009269 0.266106 1.136273
v -0.073674 0.318126 1.138936
v -0.037359 0.325633 1.120774
v -0.077537 0.328665 1.141872
v -0.083008 0.291898 1.113379
v -0.086890 0.288220 1.118320
v -0.083136 0.282650 1.117713
v -0.080368 0.283871 1.112404
v -0.028268 0.263113 1.131333
v -0.026071 0.263876 1.136625
v -0.023511 0.259516 1.136289
v -0.025407 0.258334 1.130936
v -0.030157 0.288824 1.141095
v -0.025028 0.292941 1.141193
v -0.023053 0.286444 1.139983
v -0.028328 0.283757 1.139192
v -0.020057 0.293844 1.136652
v -0.018096 0.288031 1.136211
v -0.026604 0.263752 1.124926
v -0.020969 0.265958 1.120186
v -0.028286 0.279533 1.119814
v -0.032155 0.275801 1.125928
v -0.082561 0.342154 1.110084
v -0.093665 0.341588 1.111880
v -0.091411 0.326890 1.112466
v -0.089682 0.312894 1.112111
v -0.087104 0.299627 1.113142
v -0.075568 0.300139 1.108978
v -0.099265 0.327853 1.114560
v -0.040788 0.284880 1.124828
v -0.034398 0.289726 1.119731
v -0.040918 0.289326 1.119241
v -0.084815 0.327276 1.143087
v -0.010659 0.270751 1.135557
v -0.059210 0.378787 1.118553
v -0.070226 0.375454 1.111491
v -0.065983 0.367848 1.112751
v -0.053814 0.371290 1.121398
v -0.020932 0.266725 1.140140
v -0.015008 0.269210 1.140005
v -0.084418 0.286413 1.130465
v -0.080685 0.281442 1.127314
v -0.082758 0.279974 1.124131
v -0.088908 0.283137 1.127384
v -0.099291 0.342663 1.113726
v -0.105908 0.297470 1.119434
v -0.098485 0.298014 1.112964
v -0.095212 0.354609 1.111459
v -0.085570 0.355292 1.109277
v -0.088319 0.364670 1.108797
v -0.061491 0.293264 1.110599
v -0.073936 0.340516 1.109652
v -0.077840 0.354554 1.109547
v -0.080737 0.365745 1.108944
v -0.083467 0.373587 1.107900
v -0.091495 0.371603 1.107968
v -0.015511 0.267636 1.121299
v -0.018505 0.260473 1.121042
v -0.095304 0.379504 1.105389
v -0.086134 0.381411 1.106076
v -0.068638 0.354600 1.110910
v -0.057615 0.354743 1.114277
v -0.065285 0.340964 1.111207
v -0.054062 0.339980 1.114288
v -0.052522 0.298094 1.108925
v -0.014394 0.244439 1.125888
v -0.020414 0.253577 1.125293
v -0.022430 0.253224 1.130727
v -0.016756 0.243368 1.129256
v -0.023773 0.258713 1.125067
v -0.015928 0.256113 1.122302
v -0.041398 0.340686 1.122473
v -0.044083 0.283183 1.133653
v -0.044159 0.357294 1.125937
v -0.027530 0.336505 1.134020
v -0.030547 0.348919 1.138441
v -0.045988 0.374532 1.131589
v -0.035519 0.364733 1.140732
v -0.056658 0.388385 1.126386
v -0.052198 0.380823 1.127807
v -0.027492 0.354363 1.151604
v -0.009432 0.249111 1.139734
v -0.014362 0.246827 1.138613
v -0.062643 0.386302 1.116925
v -0.048410 0.330509 1.169168
v -0.086025 0.337496 1.147108
v -0.080466 0.338014 1.145837
v -0.105222 0.338368 1.146320
v -0.093876 0.337479 1.149094
v -0.004957 0.251108 1.137948
v -0.060980 0.276072 1.123989
v -0.062897 0.279031 1.124491
v -0.036756 0.341158 1.180514
v -0.032335 0.337208 1.182667
v -0.021015 0.340606 1.176149
v -0.026537 0.340661 1.180893
v -0.030131 0.346214 1.177707
v -0.024607 0.346848 1.172045
v -0.083196 0.348009 1.150855
v -0.087066 0.347041 1.151147
v -0.108864 0.341295 1.123676
v -0.112074 0.338645 1.134552
v -0.018738 0.294334 1.130167
v -0.022736 0.301383 1.123629
v -0.020790 0.293251 1.123431
v -0.022569 0.284330 1.119617
v -0.041257 0.281161 1.129161
v -0.035790 0.282400 1.127149
v -0.073837 0.358525 1.158163
v -0.071521 0.346536 1.151893
v -0.037928 0.322501 1.166217
v -0.032031 0.320523 1.169782
v -0.059575 0.297900 1.137203
v -0.056278 0.283284 1.111572
v -0.048734 0.287275 1.110209
v -0.056149 0.289106 1.135056
v -0.002555 0.250606 1.129964
v -0.002800 0.251285 1.134888
v -0.026056 0.292167 1.118886
v -0.081379 0.295827 1.135807
v -0.063691 0.287604 1.113519
v -0.059523 0.278422 1.116359
v -0.107083 0.298030 1.128340
v -0.073483 0.383757 1.110555
v -0.021059 0.253959 1.136116
v -0.017577 0.244968 1.135437
v -0.011170 0.246574 1.123930
v -0.006143 0.249538 1.124906
v -0.110725 0.349196 1.137121
v -0.076678 0.337870 1.145088
v -0.022264 0.346088 1.161157
v -0.018443 0.337849 1.169156
v -0.054301 0.282984 1.132652
v -0.090715 0.294020 1.114632
v -0.074281 0.291142 1.108837
v -0.072245 0.283560 1.108472
v -0.065474 0.281387 1.111666
v -0.062467 0.278259 1.118048
v -0.009579 0.241977 1.124992
v -0.004615 0.244815 1.125931
v -0.000682 0.245583 1.130671
v -0.000847 0.246109 1.135172
v -0.003966 0.246722 1.138389
v -0.012634 0.239408 1.126604
v -0.014508 0.238384 1.129649
v -0.015977 0.241092 1.135242
v -0.011160 0.234831 1.127566
v -0.006211 0.234382 1.125909
v 0.004167 0.232637 1.134181
v 0.002408 0.237336 1.131323
v 0.002389 0.234891 1.130305
v 0.003794 0.230401 1.131766
v 0.004687 0.225340 1.131947
v 0.005402 0.227248 1.134948
v -0.001107 0.235785 1.127517
v 0.000363 0.229520 1.128893
v -0.003478 0.228147 1.127674
v -0.001677 0.223013 1.128115
v 0.001951 0.224054 1.129043
v -0.004018 0.232546 1.126622
v -0.001820 0.237679 1.126980
v 0.004781 0.222696 1.134298
v 0.004732 0.222448 1.131712
v 0.002287 0.221122 1.129787
v 0.001978 0.219020 1.132081
v 0.001043 0.241356 1.135916
v 0.003551 0.233170 1.136720
v 0.003306 0.227189 1.137453
v 0.002882 0.222647 1.136513
v 0.000504 0.231845 1.139249
v 0.000640 0.226900 1.138768
v -0.000164 0.222945 1.137964
v -0.003345 0.230199 1.140185
v -0.002402 0.225993 1.139194
v -0.006696 0.242243 1.139982
v -0.002666 0.243455 1.138875
v -0.002091 0.223307 1.138876
v 0.000327 0.218774 1.133705
v -0.007143 0.228723 1.127779
v -0.004676 0.222454 1.129451
v -0.009110 0.228480 1.129103
v -0.006878 0.222114 1.130530
v -0.002376 0.218739 1.129836
v -0.000562 0.220508 1.128991
v -0.008863 0.246168 1.139589
v -0.013852 0.243562 1.138166
v -0.012220 0.239989 1.138502
v -0.007701 0.228617 1.139069
v -0.014494 0.237399 1.135641
v -0.013028 0.233919 1.130587
v -0.010318 0.227440 1.131562
v -0.010548 0.227471 1.134990
v -0.008060 0.222755 1.132815
v -0.007811 0.223629 1.135270
v -0.005646 0.224558 1.138289
v -0.005344 0.219991 1.134119
v -0.003988 0.218874 1.131598
v -0.002033 0.220052 1.135927
v -0.006045 0.221353 1.135522
v -0.003590 0.222002 1.137120
v -0.037184 0.246130 1.128202
v -0.043115 0.243931 1.127238
v -0.044001 0.249472 1.127090
v -0.038739 0.250718 1.128009
v -0.030816 0.248110 1.116050
v -0.030886 0.248113 1.122194
v -0.031540 0.252410 1.121619
v -0.032541 0.252275 1.114929
v -0.035400 0.246844 1.111335
v -0.037453 0.251486 1.110666
v -0.033533 0.257289 1.114297
v -0.033209 0.257697 1.121539
v -0.040080 0.278006 1.122684
v -0.039849 0.277756 1.115245
v -0.056965 0.273687 1.127574
v -0.057245 0.272157 1.123863
v -0.033652 0.247188 1.126356
v -0.034513 0.251660 1.125880
v -0.052241 0.252009 1.122062
v -0.049859 0.252926 1.126969
v -0.048088 0.247599 1.125128
v -0.049978 0.246681 1.119979
v -0.045700 0.277944 1.129664
v -0.051944 0.276568 1.129221
v -0.042454 0.277670 1.127276
v -0.051371 0.252046 1.115461
v -0.047272 0.253380 1.110037
v -0.052308 0.272792 1.110016
v -0.056222 0.270799 1.115058
v -0.035563 0.256911 1.126787
v -0.045133 0.254330 1.129500
v -0.040174 0.255738 1.129892
v -0.039498 0.256048 1.110143
v -0.044773 0.248183 1.110212
v -0.041536 0.230528 1.114977
v -0.046894 0.241729 1.114540
v -0.047981 0.241230 1.119599
v -0.043283 0.228761 1.119380
v -0.049023 0.246519 1.114325
v -0.042489 0.244008 1.110932
v -0.033963 0.230478 1.128936
v -0.039500 0.228188 1.127640
v -0.030033 0.232109 1.127397
v -0.045185 0.275878 1.109882
v -0.027858 0.236116 1.118120
v -0.027930 0.234249 1.124385
v -0.047005 0.242006 1.124505
v -0.042585 0.227455 1.123965
v -0.038202 0.232535 1.112482
v -0.032233 0.236221 1.112884
v -0.035969 0.227561 1.113364
v -0.030438 0.230455 1.114001
v -0.025883 0.230563 1.119170
v -0.026470 0.229283 1.124766
v -0.028998 0.228022 1.127603
v -0.039112 0.225375 1.115310
v -0.041151 0.223484 1.119251
v -0.041005 0.224304 1.124262
v -0.037491 0.218411 1.116580
v -0.033606 0.219040 1.114506
v -0.020843 0.209987 1.123418
v -0.022008 0.215765 1.122364
v -0.022717 0.214886 1.119958
v -0.021636 0.209531 1.120711
v -0.023212 0.221200 1.119387
v -0.023975 0.218944 1.118254
v -0.027722 0.219162 1.115617
v -0.026507 0.213511 1.117261
v -0.031226 0.212852 1.116172
v -0.029786 0.207303 1.116259
v -0.024950 0.207747 1.117135
v -0.030875 0.217000 1.114980
v -0.021791 0.205909 1.120609
v -0.021904 0.204454 1.122814
v -0.027983 0.222083 1.114953
v -0.024543 0.224959 1.124329
v -0.022644 0.215797 1.125396
v -0.022253 0.209174 1.126283
v -0.024087 0.203402 1.124747
v -0.025525 0.214532 1.128193
v -0.024895 0.208278 1.127949
v -0.026501 0.203781 1.126100
v -0.029748 0.213028 1.129688
v -0.028901 0.207091 1.128709
v -0.032379 0.224193 1.129277
v -0.027805 0.225054 1.128048
v -0.028430 0.204781 1.127234
v -0.024717 0.202073 1.119504
v -0.026664 0.201149 1.122201
v -0.024414 0.203652 1.118464
v -0.033312 0.212475 1.116369
v -0.031634 0.206398 1.117316
v -0.035633 0.211748 1.117769
v -0.033225 0.205213 1.118781
v -0.029297 0.202388 1.117972
v -0.027896 0.203231 1.117234
v -0.033209 0.227122 1.128574
v -0.038345 0.225502 1.127245
v -0.037638 0.222858 1.127896
v -0.034508 0.211855 1.128016
v -0.040434 0.221401 1.124351
v -0.039627 0.218631 1.119581
v -0.037253 0.211668 1.120121
v -0.037152 0.211217 1.124094
v -0.034852 0.204995 1.120328
v -0.035329 0.206471 1.123304
v -0.032685 0.206643 1.127339
v -0.031887 0.201502 1.121166
v -0.030385 0.201610 1.119227
v -0.028251 0.201723 1.123792
v -0.033127 0.203232 1.123393
v -0.030312 0.203411 1.125762
v -0.063393 0.249750 1.123656
v -0.069176 0.249537 1.124686
v -0.069666 0.254000 1.125410
v -0.063866 0.253978 1.124318
v -0.061379 0.251233 1.110776
v -0.059420 0.250353 1.115324
v -0.059455 0.254449 1.115730
v -0.061464 0.256408 1.110920
v -0.066141 0.249677 1.108089
v -0.066811 0.256592 1.108034
v -0.061777 0.261531 1.110408
v -0.059895 0.258846 1.115800
v -0.062158 0.274057 1.117792
v -0.063884 0.275175 1.111121
v -0.060574 0.250043 1.119941
v -0.060676 0.253712 1.120544
v -0.078181 0.257804 1.121312
v -0.075068 0.257967 1.124965
v -0.074748 0.253486 1.123407
v -0.077360 0.253285 1.119952
v -0.067101 0.275899 1.127349
v -0.073282 0.277355 1.126948
v -0.063637 0.273789 1.123734
v -0.078641 0.258199 1.114852
v -0.075012 0.260502 1.108814
v -0.077809 0.274713 1.110446
v -0.080332 0.274794 1.116213
v -0.060782 0.257672 1.121002
v -0.070034 0.258431 1.126658
v -0.064192 0.257749 1.125471
v -0.067552 0.261898 1.108015
v -0.073787 0.254895 1.109040
v -0.073026 0.232810 1.112019
v -0.076913 0.249103 1.113468
v -0.076601 0.248603 1.119372
v -0.074041 0.232074 1.116283
v -0.077876 0.253141 1.114153
v -0.072893 0.249704 1.108791
v -0.062350 0.233722 1.122911
v -0.067833 0.233324 1.123317
v -0.059649 0.235641 1.119897
v -0.070159 0.275618 1.107501
v -0.079439 0.276256 1.122987
v -0.059371 0.235981 1.112343
v -0.058573 0.236004 1.116652
v -0.074110 0.249085 1.122798
v -0.072511 0.232354 1.120577
v -0.069776 0.234590 1.108855
v -0.063871 0.236446 1.108415
v -0.069160 0.229274 1.109626
v -0.063296 0.231294 1.109267
v -0.058477 0.231061 1.112618
v -0.057793 0.231346 1.116987
v -0.058963 0.231162 1.120314
v -0.072181 0.227426 1.112890
v -0.072857 0.226947 1.116801
v -0.071420 0.229978 1.120779
v -0.071616 0.222879 1.114135
v -0.067619 0.222056 1.110503
v -0.055535 0.212178 1.117018
v -0.056416 0.217852 1.116016
v -0.057186 0.217469 1.115107
v -0.056314 0.211679 1.115519
v -0.057853 0.223662 1.113049
v -0.058408 0.221782 1.112736
v -0.061807 0.221876 1.110840
v -0.061090 0.215591 1.112036
v -0.067031 0.215571 1.113121
v -0.065485 0.210609 1.113944
v -0.060011 0.210194 1.112722
v -0.066083 0.220540 1.110970
v -0.056804 0.208451 1.115658
v -0.055190 0.207930 1.116664
v -0.062230 0.224144 1.110165
v -0.056428 0.225957 1.117114
v -0.055550 0.218542 1.118752
v -0.054551 0.212775 1.120080
v -0.055899 0.208518 1.120281
v -0.057207 0.218923 1.122193
v -0.056488 0.213431 1.122578
v -0.057632 0.209566 1.122669
v -0.059870 0.218899 1.124222
v -0.059318 0.213865 1.124204
v -0.061521 0.228713 1.123028
v -0.058100 0.227660 1.120588
v -0.059436 0.210665 1.123659
v -0.059304 0.205683 1.115469
v -0.060684 0.205587 1.119517
v -0.059531 0.207215 1.114650
v -0.068750 0.216114 1.113706
v -0.067363 0.209667 1.115142
v -0.070342 0.216544 1.116079
v -0.068781 0.210098 1.117527
v -0.064505 0.206384 1.115328
v -0.063766 0.207150 1.114666
v -0.062326 0.231376 1.122716
v -0.067345 0.230993 1.123056
v -0.066304 0.228451 1.123544
v -0.064373 0.217967 1.124890
v -0.070521 0.227355 1.121598
v -0.071945 0.222699 1.117854
v -0.070133 0.216874 1.119337
v -0.068302 0.217015 1.122645
v -0.068640 0.211039 1.120193
v -0.067312 0.212682 1.122174
v -0.063295 0.213177 1.124914
v -0.065686 0.208086 1.120518
v -0.065661 0.206551 1.117903
v -0.061482 0.207318 1.122133
v -0.065388 0.209774 1.122432
v -0.062183 0.209349 1.123617
v -0.077477 0.277317 1.125733
v -0.099454 0.260148 1.123067
v -0.102970 0.260824 1.125114
v -0.102889 0.264697 1.125580
v -0.098954 0.264500 1.124387
v -0.100068 0.262976 1.112024
v -0.097815 0.260968 1.115670
v -0.096416 0.265353 1.116122
v -0.098636 0.267236 1.112363
v -0.104815 0.264511 1.110901
v -0.103802 0.268629 1.111451
v -0.097659 0.270468 1.112295
v -0.095295 0.269143 1.116501
v -0.090419 0.283970 1.118194
v -0.093108 0.286862 1.113922
v -0.105825 0.293086 1.126499
v -0.102030 0.291832 1.131186
v -0.102846 0.284784 1.128436
v -0.106172 0.286600 1.125465
v -0.097790 0.260190 1.119597
v -0.096463 0.264288 1.120964
v -0.110134 0.272111 1.123531
v -0.106816 0.270248 1.126414
v -0.106825 0.265889 1.125966
v -0.110715 0.267079 1.123672
v -0.096988 0.289106 1.131554
v -0.092676 0.287464 1.130502
v -0.093427 0.283299 1.128601
v -0.098451 0.282788 1.129225
v -0.089842 0.281624 1.124920
v -0.111053 0.272907 1.119437
v -0.108863 0.273268 1.113924
v -0.106151 0.289913 1.116212
v -0.107029 0.289324 1.121134
v -0.095339 0.267649 1.121092
v -0.102664 0.268600 1.126698
v -0.098449 0.267742 1.125161
v -0.103221 0.271962 1.110893
v -0.109507 0.269064 1.114111
v -0.114511 0.255108 1.118368
v -0.112740 0.264595 1.119238
v -0.111129 0.263024 1.123643
v -0.113632 0.254322 1.121274
v -0.111851 0.268469 1.119309
v -0.110485 0.264814 1.113824
v -0.101662 0.251451 1.121986
v -0.106410 0.252714 1.124123
v -0.100055 0.251541 1.119037
v -0.099346 0.288801 1.111983
v -0.102487 0.253290 1.112080
v -0.100157 0.251591 1.115501
v -0.107028 0.261669 1.125362
v -0.110739 0.253639 1.123580
v -0.112875 0.255488 1.114128
v -0.107605 0.255420 1.110732
v -0.113342 0.250376 1.114303
v -0.107795 0.250900 1.111123
v -0.102378 0.249021 1.113012
v -0.100484 0.249030 1.116420
v -0.100448 0.249140 1.119681
v -0.114983 0.250324 1.118598
v -0.114013 0.250275 1.121526
v -0.111047 0.250789 1.123812
v -0.115022 0.245833 1.119090
v -0.112818 0.243964 1.115142
v -0.103250 0.234883 1.119020
v -0.102658 0.238872 1.117793
v -0.103634 0.238732 1.117010
v -0.103651 0.234595 1.117988
v -0.103092 0.243580 1.114906
v -0.104313 0.242358 1.114834
v -0.107517 0.243723 1.113736
v -0.107631 0.238496 1.115218
v -0.112722 0.238457 1.117145
v -0.112227 0.234262 1.118023
v -0.107873 0.234595 1.115923
v -0.111523 0.242364 1.114758
v -0.104619 0.231922 1.117918
v -0.104083 0.230992 1.118855
v -0.107531 0.245438 1.112719
v -0.100659 0.245225 1.117935
v -0.101382 0.238609 1.120010
v -0.102471 0.233637 1.120944
v -0.104678 0.230449 1.121067
v -0.101505 0.239919 1.122320
v -0.102660 0.234039 1.123298
v -0.104973 0.231082 1.123377
v -0.103204 0.241099 1.125053
v -0.104210 0.235296 1.125127
v -0.102894 0.247760 1.123903
v -0.100886 0.246381 1.121135
v -0.105594 0.232486 1.124384
v -0.107857 0.229906 1.118161
v -0.107972 0.229656 1.121198
v -0.108139 0.230978 1.116965
v -0.113820 0.238886 1.118071
v -0.113257 0.233829 1.119326
v -0.114747 0.239600 1.120417
v -0.113427 0.233941 1.121557
v -0.111320 0.230729 1.119262
v -0.110732 0.231832 1.117778
v -0.102627 0.249349 1.123055
v -0.106610 0.250425 1.124267
v -0.107126 0.248459 1.125080
v -0.107022 0.241827 1.126445
v -0.111523 0.248396 1.124391
v -0.114308 0.247188 1.121924
v -0.113914 0.240383 1.123023
v -0.111496 0.241130 1.125471
v -0.112504 0.234226 1.123617
v -0.110445 0.235425 1.125665
v -0.107228 0.235904 1.126438
v -0.110064 0.231215 1.123222
v -0.110845 0.230484 1.121593
v -0.107839 0.230554 1.123155
v -0.109200 0.232345 1.124664
v -0.107546 0.232364 1.124764
v -0.106584 0.292375 1.122483
v -0.016566 0.324001 1.174162
v -0.019248 0.319300 1.173847
v -0.030722 0.321155 1.185960
v -0.027698 0.316483 1.181479
v -0.029743 0.327218 1.188964
v -0.022130 0.335117 1.185649
v -0.026790 0.332482 1.187991
v -0.023205 0.315946 1.177122
v -0.015110 0.329826 1.176041
v -0.017244 0.334920 1.180719
v -0.013455 0.325804 1.182075
v -0.015763 0.331301 1.185811
v -0.020823 0.332667 1.190470
v -0.026588 0.330809 1.192651
v -0.029813 0.327113 1.193046
v -0.015493 0.320310 1.180348
v -0.018631 0.315921 1.180617
v -0.024218 0.313922 1.182737
v -0.012916 0.315767 1.187595
v -0.007421 0.318491 1.196890
v -0.010170 0.324312 1.215326
v -0.014087 0.326134 1.209949
v -0.011097 0.325603 1.209052
v -0.007529 0.324657 1.214048
v -0.014510 0.327519 1.204747
v -0.012174 0.326238 1.205032
v -0.009280 0.323834 1.201226
v -0.006072 0.322815 1.205739
v -0.006948 0.319271 1.199756
v -0.004860 0.317124 1.202750
v -0.002695 0.321692 1.210270
v -0.003931 0.323567 1.215977
v -0.000344 0.320398 1.214506
v -0.006045 0.321852 1.218297
v -0.009218 0.324856 1.199918
v -0.021897 0.328299 1.201949
v -0.018294 0.325160 1.209580
v -0.013697 0.322001 1.215515
v -0.008433 0.319266 1.218587
v -0.021845 0.321453 1.208796
v -0.016500 0.318301 1.213661
v -0.011532 0.315411 1.215746
v -0.022961 0.316608 1.206628
v -0.017079 0.314668 1.211308
v -0.029692 0.320099 1.194363
v -0.027817 0.325667 1.198882
v -0.013005 0.313874 1.213383
v -0.000655 0.318157 1.216973
v -0.003513 0.315166 1.217248
v -0.005362 0.314158 1.200410
v -0.001159 0.316055 1.206998
v -0.002261 0.312770 1.206120
v -0.007921 0.311364 1.198108
v -0.004181 0.310246 1.205720
v 0.000136 0.313936 1.211805
v 0.000527 0.317062 1.210945
v -0.031170 0.321619 1.190138
v -0.028871 0.316793 1.185717
v -0.027692 0.315128 1.189829
v -0.021236 0.311386 1.202051
v -0.022672 0.311729 1.187699
v -0.016488 0.312545 1.187041
v -0.011444 0.309211 1.197777
v -0.016457 0.308811 1.198922
v -0.007959 0.308854 1.205969
v -0.011190 0.309133 1.206495
v -0.015064 0.311215 1.209082
v -0.006334 0.310245 1.211221
v -0.002419 0.311313 1.211676
v -0.007594 0.312663 1.214981
v -0.009244 0.310169 1.210099
v -0.010780 0.311813 1.212388
v -0.102442 0.297299 1.133981
v -0.096147 0.295653 1.135539
v -0.098460 0.302153 1.137620
v -0.100310 0.311648 1.140494
v -0.106779 0.320468 1.139477
v -0.093455 0.312260 1.140888
v -0.091993 0.302425 1.137987
v -0.088873 0.293201 1.134382
v -0.088084 0.321317 1.142148
f 2 3 1
f 1 3 4
f 5 6 8
f 8 6 7
f 9 4 10
f 10 4 3
f 12 13 11
f 11 13 9
f 14 12 16
f 16 12 15
f 18 19 17
f 17 19 20
f 22 23 21
f 21 23 24
f 26 27 25
f 25 27 28
f 30 31 29
f 29 31 32
f 33 34 36
f 36 34 35
f 37 38 40
f 40 38 39
f 41 42 6
f 6 42 43
f 6 43 7
f 7 43 44
f 45 34 46
f 46 34 33
f 48 49 47
f 47 49 50
f 52 53 51
f 51 53 54
f 56 52 55
f 55 52 51
f 58 59 57
f 57 59 60
f 61 62 4
f 4 62 1
f 64 65 63
f 63 65 66
f 68 69 67
f 67 69 70
f 72 73 71
f 71 73 74
f 76 77 75
f 75 77 78
f 53 79 54
f 54 79 80
f 82 83 81
f 81 83 84
f 85 86 52
f 52 86 53
f 57 60 87
f 87 60 88
f 89 90 43
f 43 90 44
f 43 42 89
f 89 42 91
f 40 39 92
f 92 39 93
f 94 70 64
f 64 70 69
f 13 61 9
f 9 61 4
f 25 28 69
f 69 28 95
f 96 25 68
f 68 25 69
f 98 99 97
f 97 99 100
f 101 102 104
f 104 102 103
f 106 30 105
f 105 30 29
f 51 54 107
f 107 54 108
f 54 80 108
f 108 80 109
f 111 112 110
f 110 112 113
f 115 5 114
f 114 5 116
f 115 41 5
f 5 41 6
f 36 35 111
f 111 35 117
f 35 118 117
f 117 118 119
f 34 120 35
f 35 120 118
f 34 45 120
f 120 45 121
f 125 126 124
f 124 126 127
f 128 129 14
f 14 129 130
f 33 131 46
f 46 131 132
f 133 94 63
f 63 94 64
f 134 135 137
f 137 135 136
f 139 140 138
f 138 140 141
f 77 142 78
f 78 142 143
f 144 145 20
f 20 145 146
f 148 149 147
f 147 149 72
f 151 152 150
f 150 152 153
f 82 101 83
f 83 101 104
f 101 82 155
f 155 82 154
f 156 157 58
f 58 157 59
f 158 68 147
f 147 68 67
f 159 146 15
f 15 146 16
f 68 158 96
f 96 158 160
f 129 66 130
f 130 66 65
f 162 163 161
f 161 163 164
f 166 167 165
f 165 167 168
f 170 171 169
f 169 171 172
f 174 171 173
f 173 171 170
f 176 177 175
f 175 177 178
f 180 181 179
f 179 181 24
f 182 183 21
f 21 183 184
f 81 185 82
f 82 185 154
f 186 187 188
f 188 187 144
f 158 71 160
f 160 71 189
f 190 135 157
f 157 135 59
f 169 172 139
f 139 172 140
f 147 72 158
f 158 72 71
f 192 193 191
f 191 193 194
f 167 166 49
f 49 166 195
f 196 190 50
f 50 190 157
f 197 198 200
f 200 198 199
f 21 24 182
f 182 24 181
f 146 159 20
f 20 159 17
f 182 181 81
f 81 181 185
f 201 185 180
f 180 185 181
f 202 203 83
f 83 203 84
f 205 206 204
f 204 206 85
f 207 22 184
f 184 22 21
f 179 24 208
f 208 24 23
f 208 209 179
f 179 209 205
f 209 210 205
f 205 210 206
f 212 206 211
f 211 206 210
f 179 205 180
f 180 205 204
f 213 176 88
f 88 176 214
f 86 85 212
f 212 85 206
f 193 217 218
f 217 219 218
f 218 219 220
f 219 18 220
f 220 18 17
f 19 221 20
f 20 221 144
f 222 223 225
f 225 223 224
f 175 226 176
f 176 226 214
f 227 87 214
f 214 87 88
f 220 17 228
f 228 17 159
f 134 213 60
f 60 213 88
f 138 229 151
f 151 229 152
f 193 192 210
f 210 192 211
f 230 194 218
f 218 194 193
f 231 232 228
f 228 232 230
f 233 234 91
f 91 234 89
f 235 236 93
f 93 236 92
f 230 232 234
f 234 232 237
f 47 238 48
f 48 238 239
f 240 191 235
f 235 191 236
f 5 8 116
f 116 8 241
f 242 243 189
f 189 243 160
f 244 245 98
f 98 245 99
f 156 246 47
f 47 246 238
f 76 247 77
f 77 247 248
f 250 125 249
f 249 125 124
f 252 253 251
f 251 253 254
f 111 110 36
f 36 110 255
f 256 33 255
f 255 33 36
f 257 258 154
f 154 258 155
f 63 169 133
f 133 169 139
f 66 170 63
f 63 170 169
f 173 170 129
f 129 170 66
f 129 128 173
f 173 128 259
f 128 260 259
f 259 260 261
f 213 134 262
f 262 134 137
f 263 264 186
f 186 264 187
f 112 265 113
f 113 265 266
f 11 267 268
f 234 233 230
f 230 233 194
f 153 269 70
f 70 269 67
f 175 178 165
f 165 178 141
f 150 153 94
f 94 153 70
f 271 221 270
f 270 221 207
f 269 153 272
f 272 153 152
f 121 45 109
f 109 45 108
f 47 50 156
f 156 50 157
f 57 273 58
f 58 273 274
f 145 275 260
f 260 275 261
f 276 149 143
f 143 149 78
f 148 269 75
f 75 269 272
f 207 277 270
f 270 277 278
f 195 196 49
f 49 196 50
f 59 135 60
f 60 135 134
f 83 104 202
f 202 104 279
f 149 148 78
f 78 148 75
f 247 278 248
f 248 278 277
f 183 182 84
f 84 182 81
f 48 239 281
f 281 239 282
f 227 223 283
f 283 223 222
f 223 226 224
f 224 226 168
f 281 282 224
f 224 282 225
f 165 168 175
f 175 168 226
f 264 263 138
f 138 263 229
f 14 16 128
f 128 16 260
f 220 228 218
f 218 228 230
f 87 227 284
f 284 227 283
f 260 16 145
f 145 16 146
f 244 98 258
f 258 98 155
f 58 274 156
f 156 274 246
f 107 285 51
f 51 285 55
f 243 286 160
f 160 286 96
f 234 237 89
f 89 237 90
f 46 132 107
f 107 132 285
f 253 252 249
f 249 252 250
f 286 26 96
f 96 26 25
f 106 105 287
f 287 105 288
f 272 152 289
f 289 152 229
f 138 151 139
f 139 151 133
f 183 290 161
f 161 290 162
f 291 292 277
f 277 292 293
f 151 150 133
f 133 150 94
f 262 275 177
f 177 275 187
f 144 187 145
f 145 187 275
f 273 57 284
f 284 57 87
f 174 136 190
f 190 136 135
f 111 117 112
f 112 117 38
f 117 119 38
f 38 119 123
f 112 38 265
f 265 38 37
f 287 288 254
f 254 288 251
f 228 159 231
f 231 159 15
f 223 227 226
f 226 227 214
f 147 67 148
f 148 67 269
f 224 168 281
f 281 168 167
f 199 163 200
f 200 163 162
f 45 46 108
f 108 46 107
f 281 167 48
f 48 167 49
f 161 164 291
f 291 164 292
f 38 123 39
f 293 294 277
f 277 294 248
f 284 283 296
f 296 283 295
f 284 296 273
f 273 296 297
f 274 273 298
f 298 273 297
f 246 274 299
f 299 274 298
f 283 222 295
f 295 222 300
f 222 225 300
f 300 225 301
f 301 225 302
f 302 225 282
f 303 304 300
f 300 304 295
f 306 307 305
f 305 307 308
f 309 310 308
f 308 310 305
f 308 307 312
f 312 307 311
f 313 314 312
f 312 314 315
f 311 316 312
f 312 316 313
f 317 304 311
f 311 304 316
f 315 309 312
f 312 309 308
f 318 319 321
f 321 319 320
f 319 318 309
f 309 318 310
f 311 307 317
f 317 307 306
f 306 297 317
f 317 297 296
f 306 322 297
f 297 322 298
f 305 323 306
f 306 323 322
f 323 305 324
f 324 305 310
f 304 317 295
f 295 317 296
f 318 325 310
f 310 325 324
f 323 324 326
f 326 324 327
f 324 325 327
f 327 325 328
f 326 327 329
f 329 327 330
f 329 331 326
f 326 331 332
f 333 330 328
f 328 330 327
f 323 326 322
f 322 326 332
f 322 332 298
f 298 332 299
f 325 318 334
f 334 318 321
f 313 316 335
f 335 316 304
f 335 336 313
f 313 336 314
f 304 303 335
f 335 303 337
f 336 335 338
f 338 335 337
f 336 339 314
f 314 339 340
f 246 299 238
f 238 299 341
f 239 342 282
f 282 342 302
f 342 239 341
f 341 239 238
f 341 331 342
f 342 331 343
f 331 329 343
f 343 329 344
f 342 343 302
f 302 343 345
f 341 299 331
f 331 299 332
f 346 301 345
f 345 301 302
f 346 303 301
f 301 303 300
f 347 337 346
f 346 337 303
f 347 346 348
f 348 346 345
f 349 347 350
f 350 347 348
f 343 344 345
f 345 344 348
f 344 351 348
f 348 351 350
f 337 347 338
f 338 347 349
f 353 338 352
f 352 338 349
f 352 355 354
f 354 355 356
f 352 349 355
f 355 349 350
f 352 354 353
f 353 354 334
f 353 334 339
f 339 334 321
f 339 336 353
f 353 336 338
f 329 330 344
f 344 330 351
f 356 351 333
f 333 351 330
f 356 355 351
f 351 355 350
f 354 356 328
f 328 356 333
f 328 325 354
f 354 325 334
f 309 315 319
f 319 315 320
f 320 340 321
f 321 340 339
f 320 315 340
f 340 315 314
f 137 136 261
f 261 136 259
f 140 166 141
f 141 166 165
f 172 171 195
f 195 171 196
f 171 174 196
f 196 174 190
f 178 177 264
f 264 177 187
f 172 195 140
f 140 195 166
f 137 261 262
f 262 261 275
f 178 264 141
f 141 264 138
f 262 177 213
f 213 177 176
f 136 174 259
f 259 174 173
f 358 359 357
f 357 359 360
f 362 363 361
f 361 363 364
f 361 364 365
f 365 364 366
f 367 368 370
f 370 368 369
f 76 371 247
f 247 371 372
f 373 374 362
f 362 374 363
f 376 377 375
f 375 377 378
f 289 229 380
f 380 229 379
f 381 379 263
f 263 379 229
f 383 384 382
f 382 384 385
f 386 368 374
f 374 368 363
f 76 289 371
f 371 289 380
f 377 376 359
f 359 376 387
f 388 386 360
f 360 386 374
f 389 383 366
f 366 383 390
f 392 393 391
f 391 393 394
f 383 382 390
f 390 382 395
f 396 365 390
f 390 365 366
f 389 366 367
f 367 366 364
f 357 397 358
f 358 397 398
f 373 399 357
f 357 399 397
f 389 367 400
f 400 367 370
f 382 385 375
f 375 385 372
f 357 360 373
f 373 360 374
f 361 401 362
f 362 401 402
f 387 388 359
f 359 388 360
f 363 368 364
f 364 368 367
f 358 398 403
f 403 398 404
f 396 392 405
f 405 392 391
f 392 395 393
f 393 395 378
f 393 403 394
f 394 403 404
f 375 378 382
f 382 378 395
f 365 396 406
f 406 396 405
f 362 402 373
f 373 402 399
f 271 270 400
f 400 270 384
f 401 361 406
f 406 361 365
f 381 369 386
f 386 369 368
f 392 396 395
f 395 396 390
f 393 378 403
f 403 378 377
f 403 377 358
f 358 377 359
f 406 405 408
f 408 405 407
f 406 408 401
f 401 408 409
f 401 409 402
f 402 409 410
f 402 410 399
f 399 410 411
f 405 391 407
f 407 391 412
f 391 394 412
f 412 394 413
f 394 404 413
f 413 404 414
f 415 416 412
f 412 416 407
f 418 419 417
f 417 419 420
f 421 422 418
f 418 422 419
f 419 422 424
f 424 422 423
f 425 426 424
f 424 426 427
f 423 428 424
f 424 428 425
f 427 420 424
f 424 420 419
f 420 429 417
f 417 429 430
f 423 422 431
f 431 422 421
f 421 409 431
f 431 409 408
f 421 432 409
f 409 432 410
f 418 433 421
f 421 433 432
f 434 433 417
f 417 433 418
f 431 416 423
f 423 416 428
f 416 431 407
f 407 431 408
f 435 434 430
f 430 434 417
f 433 434 436
f 436 434 437
f 434 435 437
f 437 435 438
f 436 437 439
f 439 437 440
f 439 441 436
f 436 441 442
f 438 443 437
f 437 443 440
f 436 442 433
f 433 442 432
f 432 442 410
f 410 442 411
f 435 430 445
f 445 430 444
f 430 429 444
f 444 429 446
f 425 428 447
f 447 428 416
f 426 425 448
f 448 425 447
f 416 415 447
f 447 415 449
f 447 449 448
f 448 449 450
f 451 452 448
f 448 452 426
f 446 452 444
f 444 452 451
f 399 411 397
f 397 411 453
f 398 454 404
f 404 454 414
f 454 398 453
f 453 398 397
f 453 441 454
f 454 441 455
f 441 439 455
f 455 439 456
f 454 455 414
f 414 455 457
f 441 453 442
f 442 453 411
f 458 413 457
f 457 413 414
f 458 415 413
f 413 415 412
f 458 459 415
f 415 459 449
f 459 458 460
f 460 458 457
f 461 459 462
f 462 459 460
f 455 456 457
f 457 456 460
f 456 463 460
f 460 463 462
f 459 461 449
f 449 461 450
f 465 450 464
f 464 450 461
f 464 467 466
f 466 467 468
f 464 461 467
f 467 461 462
f 464 466 465
f 465 466 445
f 465 445 451
f 451 445 444
f 451 448 465
f 465 448 450
f 439 440 456
f 456 440 463
f 468 463 443
f 443 463 440
f 468 467 463
f 463 467 462
f 466 468 438
f 438 468 443
f 438 435 466
f 466 435 445
f 420 427 429
f 429 427 446
f 446 427 452
f 452 427 426
f 370 369 188
f 188 369 186
f 371 376 372
f 372 376 375
f 380 379 387
f 387 379 388
f 379 381 388
f 388 381 386
f 385 384 278
f 278 384 270
f 380 387 371
f 371 387 376
f 400 370 271
f 271 370 188
f 385 278 372
f 372 278 247
f 400 384 389
f 389 384 383
f 369 381 186
f 186 381 263
f 221 271 144
f 144 271 188
f 221 19 207
f 207 19 22
f 19 18 22
f 22 18 23
f 18 219 23
f 23 219 208
f 469 470 472
f 472 470 471
f 474 475 473
f 473 475 476
f 473 476 477
f 477 476 478
f 480 481 479
f 479 481 482
f 483 484 474
f 474 484 475
f 486 487 485
f 485 487 488
f 489 490 77
f 77 490 142
f 491 489 248
f 248 489 77
f 493 494 492
f 492 494 495
f 496 480 484
f 484 480 475
f 486 497 487
f 487 497 471
f 498 496 472
f 472 496 484
f 499 493 478
f 478 493 500
f 501 502 504
f 504 502 503
f 493 492 500
f 500 492 505
f 506 477 500
f 500 477 478
f 499 478 479
f 479 478 476
f 469 507 470
f 470 507 508
f 483 509 469
f 469 509 507
f 479 482 499
f 499 482 510
f 492 495 485
f 485 495 511
f 483 469 484
f 484 469 472
f 473 512 474
f 474 512 513
f 497 498 471
f 471 498 472
f 475 480 476
f 476 480 479
f 470 508 514
f 514 508 515
f 506 502 516
f 516 502 501
f 503 502 488
f 488 502 505
f 514 515 503
f 503 515 504
f 485 488 492
f 492 488 505
f 477 506 517
f 517 506 516
f 474 513 483
f 483 513 509
f 510 292 494
f 494 292 164
f 512 473 517
f 517 473 477
f 491 481 496
f 496 481 480
f 502 506 505
f 505 506 500
f 503 488 514
f 514 488 487
f 514 487 470
f 470 487 471
f 517 516 519
f 519 516 518
f 517 519 512
f 512 519 520
f 512 520 513
f 513 520 521
f 513 521 509
f 509 521 522
f 516 501 518
f 518 501 523
f 501 504 523
f 523 504 524
f 524 504 525
f 525 504 515
f 526 527 523
f 523 527 518
f 529 530 528
f 528 530 531
f 532 533 529
f 529 533 530
f 530 533 535
f 535 533 534
f 536 537 535
f 535 537 538
f 534 539 535
f 535 539 536
f 538 531 535
f 535 531 530
f 540 541 531
f 531 541 528
f 533 532 534
f 534 532 542
f 532 520 542
f 542 520 519
f 532 543 520
f 520 543 521
f 529 544 532
f 532 544 543
f 544 529 545
f 545 529 528
f 534 542 539
f 539 542 527
f 527 542 518
f 518 542 519
f 541 546 528
f 528 546 545
f 547 544 548
f 548 544 545
f 546 549 545
f 545 549 548
f 550 547 551
f 551 547 548
f 547 550 553
f 553 550 552
f 549 554 548
f 548 554 551
f 544 547 543
f 543 547 553
f 543 553 521
f 521 553 522
f 546 541 556
f 556 541 555
f 541 540 555
f 555 540 557
f 536 539 558
f 558 539 527
f 537 536 559
f 559 536 558
f 527 526 558
f 558 526 560
f 559 558 561
f 561 558 560
f 559 562 537
f 537 562 563
f 557 563 555
f 555 563 562
f 509 522 507
f 507 522 564
f 508 565 515
f 515 565 525
f 565 508 564
f 564 508 507
f 564 552 565
f 565 552 566
f 552 550 566
f 566 550 567
f 565 566 525
f 525 566 568
f 564 522 552
f 552 522 553
f 569 524 568
f 568 524 525
f 569 526 524
f 524 526 523
f 570 560 569
f 569 560 526
f 570 569 571
f 571 569 568
f 572 570 573
f 573 570 571
f 566 567 568
f 568 567 571
f 567 574 571
f 571 574 573
f 570 572 560
f 560 572 561
f 576 561 575
f 575 561 572
f 575 578 577
f 577 578 579
f 575 572 578
f 578 572 573
f 575 577 576
f 576 577 556
f 576 556 562
f 562 556 555
f 562 559 576
f 576 559 561
f 550 551 567
f 567 551 574
f 579 574 554
f 554 574 551
f 579 578 574
f 574 578 573
f 579 554 577
f 577 554 549
f 549 546 577
f 577 546 556
f 531 538 540
f 540 538 557
f 557 538 563
f 563 538 537
f 481 294 482
f 482 294 293
f 580 486 511
f 511 486 485
f 490 489 497
f 497 489 498
f 489 491 498
f 498 491 496
f 163 495 164
f 164 495 494
f 580 490 486
f 486 490 497
f 482 293 510
f 510 293 292
f 495 163 511
f 511 163 199
f 494 493 510
f 510 493 499
f 481 491 294
f 294 491 248
f 582 583 581
f 581 583 584
f 586 587 585
f 585 587 588
f 585 588 589
f 589 588 590
f 592 593 591
f 591 593 594
f 595 596 598
f 598 596 597
f 599 600 586
f 586 600 587
f 601 602 604
f 604 602 603
f 605 606 608
f 608 606 607
f 609 607 200
f 200 607 606
f 610 611 613
f 613 611 612
f 600 614 587
f 587 614 592
f 596 605 597
f 597 605 608
f 602 615 603
f 603 615 583
f 616 614 584
f 584 614 600
f 611 618 617
f 617 618 590
f 620 621 619
f 619 621 622
f 610 623 611
f 611 623 618
f 624 589 618
f 618 589 590
f 617 590 591
f 591 590 588
f 581 625 582
f 582 625 626
f 599 627 581
f 581 627 625
f 591 594 617
f 617 594 628
f 601 610 598
f 598 610 613
f 581 584 599
f 599 584 600
f 585 629 586
f 586 629 630
f 615 616 583
f 583 616 584
f 587 592 588
f 588 592 591
f 582 626 631
f 631 626 632
f 624 620 633
f 633 620 619
f 621 620 604
f 604 620 623
f 631 632 621
f 621 632 622
f 610 601 623
f 623 601 604
f 589 624 634
f 634 624 633
f 586 630 599
f 599 630 627
f 203 202 628
f 628 202 612
f 629 585 634
f 634 585 589
f 609 593 614
f 614 593 592
f 620 624 623
f 623 624 618
f 631 621 603
f 603 621 604
f 582 631 583
f 583 631 603
f 634 633 636
f 636 633 635
f 634 636 629
f 629 636 637
f 629 637 630
f 630 637 638
f 630 638 627
f 627 638 639
f 633 619 635
f 635 619 640
f 619 622 640
f 640 622 641
f 641 622 642
f 642 622 632
f 644 635 643
f 643 635 640
f 645 646 648
f 648 646 647
f 649 650 646
f 646 650 647
f 647 650 652
f 652 650 651
f 652 653 655
f 655 653 654
f 651 656 652
f 652 656 653
f 655 648 652
f 652 648 647
f 648 657 645
f 645 657 658
f 650 649 651
f 651 649 659
f 649 637 659
f 659 637 636
f 649 660 637
f 637 660 638
f 661 660 646
f 646 660 649
f 662 661 645
f 645 661 646
f 651 659 656
f 656 659 644
f 644 659 635
f 635 659 636
f 663 662 658
f 658 662 645
f 664 661 665
f 665 661 662
f 663 666 662
f 662 666 665
f 667 664 668
f 668 664 665
f 664 667 670
f 670 667 669
f 666 671 665
f 665 671 668
f 661 664 660
f 660 664 670
f 660 670 638
f 638 670 639
f 658 672 663
f 663 672 673
f 658 657 672
f 672 657 674
f 653 656 675
f 675 656 644
f 653 675 654
f 654 675 676
f 675 644 677
f 677 644 643
f 676 675 678
f 678 675 677
f 679 680 676
f 676 680 654
f 674 680 672
f 672 680 679
f 627 639 625
f 625 639 681
f 626 682 632
f 632 682 642
f 681 682 625
f 625 682 626
f 669 683 681
f 681 683 682
f 667 684 669
f 669 684 683
f 682 683 642
f 642 683 685
f 681 639 669
f 669 639 670
f 686 641 685
f 685 641 642
f 641 686 640
f 640 686 643
f 686 687 643
f 643 687 677
f 687 686 688
f 688 686 685
f 689 687 690
f 690 687 688
f 683 684 685
f 685 684 688
f 684 691 688
f 688 691 690
f 687 689 677
f 677 689 678
f 693 678 692
f 692 678 689
f 692 695 694
f 694 695 696
f 692 689 695
f 695 689 690
f 692 694 693
f 693 694 673
f 693 673 679
f 679 673 672
f 679 676 693
f 693 676 678
f 684 667 691
f 691 667 668
f 696 691 671
f 671 691 668
f 696 695 691
f 691 695 690
f 694 696 666
f 666 696 671
f 666 663 694
f 694 663 673
f 648 655 657
f 657 655 674
f 674 655 680
f 680 655 654
f 593 162 594
f 594 162 290
f 598 597 601
f 601 597 602
f 615 608 616
f 616 608 607
f 607 609 616
f 616 609 614
f 697 595 613
f 613 595 598
f 597 608 602
f 602 608 615
f 594 290 628
f 628 290 203
f 628 612 617
f 617 612 611
f 593 609 162
f 162 609 200
f 105 29 698
f 698 29 699
f 268 126 701
f 701 126 700
f 126 125 700
f 700 125 702
f 252 703 250
f 250 703 704
f 32 268 705
f 705 268 701
f 288 105 706
f 706 105 698
f 29 32 699
f 699 32 705
f 707 251 706
f 706 251 288
f 250 704 125
f 125 704 702
f 703 252 707
f 707 252 251
f 706 708 707
f 707 708 709
f 707 709 703
f 703 709 710
f 703 710 704
f 704 710 711
f 704 711 702
f 702 711 712
f 706 698 708
f 708 698 713
f 698 699 713
f 713 699 714
f 699 705 714
f 714 705 715
f 717 708 716
f 716 708 713
f 719 720 718
f 718 720 721
f 722 723 719
f 719 723 720
f 724 725 723
f 723 725 720
f 724 726 725
f 725 726 727
f 728 721 725
f 725 721 720
f 721 728 729
f 729 728 730
f 729 731 721
f 721 731 718
f 724 723 732
f 732 723 722
f 722 710 732
f 732 710 709
f 722 733 710
f 710 733 711
f 719 734 722
f 722 734 733
f 734 719 735
f 735 719 718
f 724 732 726
f 726 732 717
f 717 732 708
f 708 732 709
f 731 736 718
f 718 736 735
f 737 734 738
f 738 734 735
f 736 739 735
f 735 739 738
f 740 737 741
f 741 737 738
f 737 740 743
f 743 740 742
f 739 744 738
f 738 744 741
f 734 737 733
f 733 737 743
f 733 743 711
f 711 743 712
f 736 731 746
f 746 731 745
f 731 729 745
f 745 729 730
f 727 726 747
f 747 726 717
f 748 727 749
f 749 727 747
f 747 717 750
f 750 717 716
f 749 747 751
f 751 747 750
f 749 752 748
f 748 752 753
f 730 753 745
f 745 753 752
f 728 725 748
f 748 725 727
f 730 728 753
f 753 728 748
f 700 702 754
f 754 702 712
f 705 701 715
f 715 701 755
f 754 755 700
f 700 755 701
f 742 756 754
f 754 756 755
f 740 757 742
f 742 757 756
f 755 756 715
f 715 756 758
f 754 712 742
f 742 712 743
f 759 714 758
f 758 714 715
f 714 759 713
f 713 759 716
f 759 760 716
f 716 760 750
f 760 759 761
f 761 759 758
f 762 760 763
f 763 760 761
f 756 757 758
f 758 757 761
f 757 764 761
f 761 764 763
f 760 762 750
f 750 762 751
f 766 751 765
f 765 751 762
f 767 765 769
f 769 765 768
f 765 762 768
f 768 762 763
f 765 767 766
f 766 767 746
f 766 746 752
f 752 746 745
f 752 749 766
f 766 749 751
f 757 740 764
f 764 740 741
f 769 764 744
f 744 764 741
f 769 768 764
f 764 768 763
f 767 769 739
f 739 769 744
f 739 736 767
f 767 736 746
f 219 217 208
f 208 217 209
f 209 217 210
f 210 217 193
f 198 580 199
f 199 580 511
f 76 75 289
f 289 75 272
f 277 207 291
f 291 207 184
f 290 183 203
f 203 183 84
f 490 580 142
f 142 580 198
f 142 198 143
f 143 198 197
f 149 276 72
f 72 276 73
f 104 103 279
f 279 103 770
f 770 596 279
f 279 596 595
f 605 596 771
f 771 596 770
f 771 770 772
f 772 770 103
f 772 103 773
f 773 103 102
f 155 774 101
f 101 774 102
f 773 102 97
f 97 102 774
f 775 773 100
f 100 773 97
f 773 775 772
f 772 775 776
f 772 776 771
f 771 776 777
f 200 606 197
f 197 606 777
f 189 71 778
f 778 71 74
f 97 774 98
f 98 774 155
f 183 161 184
f 184 161 291
f 777 276 197
f 197 276 143
f 777 606 771
f 771 606 605
f 613 612 697
f 697 612 202
f 595 697 279
f 279 697 202
f 73 276 776
f 776 276 777
f 776 775 73
f 73 775 74
f 100 778 775
f 775 778 74
f 778 100 189
f 189 100 99
f 245 242 99
f 99 242 189
f 131 33 256
f 28 1 95
f 95 1 62
f 27 2 28
f 28 2 1
f 265 115 266
f 266 115 114
f 95 62 69
f 69 62 64
f 62 61 64
f 64 61 65
f 61 13 65
f 65 13 130
f 13 12 130
f 130 12 14
f 31 11 32
f 32 11 268
f 15 12 31
f 31 12 11
f 31 30 15
f 15 30 231
f 30 106 231
f 231 106 232
f 287 237 106
f 106 237 232
f 254 90 287
f 287 90 237
f 253 44 254
f 254 44 90
f 253 249 44
f 44 249 7
f 267 127 268
f 268 127 126
f 10 3 241
f 241 3 116
f 3 2 116
f 116 2 114
f 2 27 114
f 114 27 266
f 27 26 266
f 266 26 113
f 26 286 113
f 113 286 110
f 286 243 110
f 110 243 255
f 243 242 255
f 255 242 256
f 242 245 256
f 256 245 131
f 245 244 131
f 131 244 132
f 265 37 115
f 115 37 41
f 41 37 42
f 42 37 40
f 92 91 40
f 40 91 42
f 236 233 92
f 92 233 91
f 191 194 236
f 236 194 233
f 258 285 244
f 244 285 132
f 257 55 258
f 258 55 285
f 257 154 201
f 201 154 185
f 56 201 204
f 204 201 180
f 55 257 56
f 56 257 201
f 204 85 56
f 56 85 52
f 86 122 53
f 53 122 79
f 212 215 86
f 86 215 122
f 211 216 212
f 212 216 215
f 192 280 211
f 211 280 216
f 191 240 192
f 192 240 280
f 249 124 7
f 7 124 8
f 124 127 8
f 8 127 241
f 127 267 241
f 241 267 10
f 10 267 9
f 9 267 11
o hand_right
v 0.112399 0.336665 1.111503
v 0.107778 0.346092 1.114008
v 0.102511 0.336451 1.113407
v 0.107217 0.328335 1.109939
v 0.088015 0.352501 1.119217
v 0.078505 0.357442 1.112800
v 0.076454 0.340872 1.112332
v 0.084613 0.339518 1.118598
v 0.104096 0.321813 1.106568
v 0.098868 0.328867 1.112473
v 0.103344 0.321571 1.100830
v 0.110572 0.315630 1.091991
v 0.109766 0.315869 1.099829
v 0.116511 0.310376 1.089272
v 0.112480 0.323433 1.083748
v 0.124068 0.313543 1.083777
v 0.136217 0.340598 1.087263
v 0.145088 0.347967 1.094747
v 0.152609 0.332506 1.096404
v 0.142342 0.326262 1.089443
v 0.159802 0.346793 1.110304
v 0.156363 0.338192 1.102702
v 0.149551 0.353923 1.100074
v 0.152784 0.360844 1.107105
v 0.121000 0.349585 1.117171
v 0.116993 0.359555 1.118696
v 0.114162 0.355258 1.115866
v 0.117749 0.345841 1.114455
v 0.094826 0.321699 1.095967
v 0.096542 0.328890 1.087927
v 0.101592 0.324180 1.092238
v 0.096821 0.320953 1.101166
v 0.109230 0.385524 1.129919
v 0.106469 0.397346 1.123652
v 0.102718 0.395050 1.119644
v 0.106464 0.384770 1.125922
v 0.086896 0.380011 1.111338
v 0.090370 0.389342 1.107270
v 0.086701 0.392655 1.094195
v 0.084706 0.382689 1.094912
v 0.082158 0.368556 1.113091
v 0.078874 0.371619 1.099460
v 0.075143 0.358907 1.101340
v 0.073345 0.340927 1.103206
v 0.116415 0.402911 1.129882
v 0.119531 0.395079 1.135828
v 0.115224 0.273984 1.108125
v 0.119015 0.275967 1.112591
v 0.119309 0.278075 1.111070
v 0.115893 0.275986 1.106782
v 0.136532 0.403506 1.126225
v 0.142056 0.404035 1.117650
v 0.138883 0.410591 1.118591
v 0.132256 0.409749 1.125358
v 0.142108 0.395206 1.127353
v 0.145768 0.394603 1.116512
v 0.120134 0.263118 1.103197
v 0.115824 0.266234 1.103669
v 0.118306 0.268269 1.099931
v 0.123518 0.265707 1.098900
v 0.111328 0.320304 1.106165
v 0.115656 0.327546 1.110815
v 0.121102 0.305992 1.106496
v 0.120132 0.314717 1.107853
v 0.115406 0.312983 1.102871
v 0.117309 0.306424 1.101049
v 0.133552 0.330591 1.119529
v 0.128389 0.341167 1.118718
v 0.125085 0.336503 1.115196
v 0.129104 0.324086 1.115701
v 0.135039 0.348650 1.129016
v 0.139855 0.337758 1.128599
v 0.143093 0.343336 1.134462
v 0.138484 0.349829 1.134524
v 0.146225 0.318141 1.125509
v 0.149373 0.311834 1.125015
v 0.150885 0.313353 1.127984
v 0.148002 0.320624 1.127718
v 0.136076 0.417148 1.118365
v 0.127880 0.415396 1.123681
v 0.165802 0.359807 1.127148
v 0.162270 0.365879 1.136062
v 0.170205 0.354989 1.139613
v 0.172434 0.351148 1.128669
v 0.142894 0.400855 1.107649
v 0.141754 0.408542 1.109037
v 0.126275 0.261965 1.105239
v 0.129582 0.264083 1.101365
v 0.080703 0.361008 1.089108
v 0.076201 0.340902 1.093683
v 0.086294 0.375419 1.086646
v 0.091028 0.385188 1.084883
v 0.091931 0.393690 1.083252
v 0.125884 0.313553 1.111827
v 0.119408 0.336010 1.113181
v 0.123656 0.352616 1.120339
v 0.139436 0.364361 1.144577
v 0.134029 0.373472 1.143963
v 0.129157 0.365412 1.138587
v 0.135270 0.359223 1.139755
v 0.156857 0.364907 1.144427
v 0.150590 0.359917 1.146522
v 0.155992 0.352762 1.147106
v 0.163493 0.356005 1.145836
v 0.088582 0.321643 1.091915
v 0.091072 0.333177 1.085014
v 0.128331 0.401149 1.132684
v 0.123468 0.406494 1.129530
v 0.120526 0.413604 1.125812
v 0.111791 0.372007 1.124199
v 0.104401 0.384206 1.123261
v 0.101430 0.381602 1.121150
v 0.110816 0.370353 1.121691
v 0.101933 0.355553 1.118781
v 0.093329 0.366197 1.119950
v 0.097288 0.344082 1.119063
v 0.096936 0.393583 1.113984
v 0.098833 0.404174 1.116606
v 0.093444 0.401487 1.109931
v 0.106177 0.408106 1.121963
v 0.113742 0.411438 1.125542
v 0.141668 0.417006 1.107682
v 0.089907 0.398440 1.102828
v 0.083535 0.330948 1.117023
v 0.083642 0.323478 1.115699
v 0.091347 0.323322 1.114964
v 0.091736 0.329208 1.115971
v 0.121660 0.303795 1.088320
v 0.117317 0.304274 1.095039
v 0.112961 0.311353 1.095733
v 0.116918 0.378129 1.134722
v 0.125168 0.386553 1.139722
v 0.126491 0.303966 1.109981
v 0.125717 0.270659 1.095665
v 0.119985 0.273034 1.096598
v 0.122487 0.291168 1.091270
v 0.128960 0.288703 1.089733
v 0.134001 0.296175 1.109395
v 0.127335 0.298892 1.109599
v 0.127886 0.296188 1.109297
v 0.133240 0.292510 1.110812
v 0.153657 0.320584 1.133572
v 0.150785 0.327023 1.133267
v 0.146933 0.311539 1.095064
v 0.138385 0.309087 1.084322
v 0.133123 0.320455 1.083287
v 0.136983 0.335416 1.124247
v 0.142034 0.326279 1.125578
v 0.144245 0.328717 1.128245
v 0.129972 0.311460 1.113466
v 0.132067 0.303497 1.112385
v 0.134715 0.308535 1.114117
v 0.132701 0.315652 1.115703
v 0.155733 0.377144 1.132554
v 0.149709 0.375953 1.142661
v 0.114174 0.270302 1.105236
v 0.115474 0.272335 1.102684
v 0.131828 0.345680 1.123373
v 0.127140 0.334067 1.083468
v 0.126278 0.355705 1.124154
v 0.168407 0.332195 1.125343
v 0.165582 0.331032 1.133824
v 0.165990 0.325099 1.134696
v 0.169195 0.323874 1.129109
v 0.131759 0.278607 1.113769
v 0.125988 0.280001 1.114443
v 0.124941 0.277929 1.114070
v 0.130607 0.275489 1.114285
v 0.122368 0.300257 1.106543
v 0.118689 0.300675 1.101382
v 0.119008 0.295702 1.102397
v 0.123241 0.295888 1.106848
v 0.119098 0.298861 1.094805
v 0.118931 0.294009 1.095913
v 0.136095 0.275201 1.109837
v 0.136111 0.270918 1.103251
v 0.139896 0.287995 1.098937
v 0.138122 0.288237 1.106602
v 0.147100 0.374536 1.103121
v 0.150793 0.380140 1.112179
v 0.156766 0.366680 1.116325
v 0.164040 0.353823 1.120029
v 0.169424 0.340940 1.123266
v 0.166631 0.335424 1.112707
v 0.158196 0.371789 1.122788
v 0.143065 0.301769 1.105082
v 0.142411 0.300829 1.096215
v 0.146503 0.305228 1.099979
v 0.129122 0.358621 1.130513
v 0.116698 0.276312 1.100051
v 0.113159 0.389530 1.078466
v 0.124948 0.394195 1.083060
v 0.125678 0.385422 1.083687
v 0.112051 0.380046 1.079239
v 0.119666 0.280297 1.111304
v 0.115985 0.279396 1.105765
v 0.154610 0.329498 1.138333
v 0.157112 0.323166 1.137565
v 0.160918 0.323364 1.138544
v 0.159043 0.329292 1.142628
v 0.151313 0.383966 1.116893
v 0.172128 0.346336 1.143814
v 0.174304 0.343218 1.133368
v 0.145479 0.391616 1.108222
v 0.142691 0.387018 1.099920
v 0.139868 0.396241 1.098036
v 0.160824 0.322304 1.107055
v 0.144408 0.368357 1.097445
v 0.139498 0.381963 1.094943
v 0.135973 0.392759 1.092458
v 0.134340 0.400818 1.090763
v 0.138670 0.403787 1.097122
v 0.131677 0.269600 1.098670
v 0.134263 0.265632 1.106746
v 0.138629 0.412740 1.095260
v 0.133267 0.408932 1.088587
v 0.134434 0.376517 1.089327
v 0.127018 0.369970 1.083590
v 0.139216 0.363526 1.092148
v 0.132444 0.355937 1.086476
v 0.157471 0.320518 1.096746
v 0.126394 0.261971 1.122273
v 0.131951 0.267332 1.114881
v 0.129503 0.272554 1.116407
v 0.126251 0.266100 1.123834
v 0.134172 0.271213 1.111903
v 0.131135 0.263547 1.110620
v 0.120264 0.348402 1.082062
v 0.137666 0.302073 1.112815
v 0.110764 0.362924 1.080245
v 0.107675 0.336105 1.080244
v 0.099219 0.346588 1.080730
v 0.099014 0.376698 1.079017
v 0.091765 0.361332 1.080578
v 0.101518 0.394548 1.077960
v 0.101874 0.385789 1.078630
v 0.085043 0.345865 1.084427
v 0.113480 0.271702 1.117392
v 0.118418 0.273231 1.120726
v 0.112445 0.397768 1.077059
v 0.093906 0.334960 1.117446
v 0.121786 0.366782 1.130080
v 0.120102 0.364215 1.125235
v 0.130541 0.378729 1.142664
v 0.123715 0.370982 1.136761
v 0.111271 0.267666 1.114222
v 0.153961 0.308934 1.123677
v 0.153462 0.311409 1.124142
v 0.076459 0.331288 1.112401
v 0.077042 0.324123 1.111734
v 0.076988 0.320965 1.098663
v 0.074582 0.322045 1.105554
v 0.073469 0.330687 1.104105
v 0.075668 0.329792 1.096553
v 0.112774 0.372976 1.126520
v 0.114706 0.374363 1.129733
v 0.148583 0.386895 1.130132
v 0.142732 0.384806 1.140060
v 0.123468 0.298010 1.089739
v 0.129577 0.304667 1.084782
v 0.130406 0.297493 1.087793
v 0.135915 0.289384 1.092012
v 0.140557 0.298977 1.109809
v 0.138948 0.295933 1.105457
v 0.097853 0.374390 1.120737
v 0.107486 0.364840 1.119443
v 0.096724 0.325480 1.110521
v 0.096432 0.321973 1.109315
v 0.136423 0.321886 1.119640
v 0.160674 0.311126 1.110589
v 0.157812 0.309536 1.102039
v 0.140231 0.313573 1.119045
v 0.114344 0.259824 1.113600
v 0.111573 0.263959 1.113362
v 0.137366 0.298618 1.089212
v 0.147182 0.333833 1.134521
v 0.160950 0.317566 1.114323
v 0.159374 0.309560 1.118265
v 0.165290 0.350348 1.147470
v 0.123231 0.402889 1.081662
v 0.124623 0.275825 1.116381
v 0.123229 0.272240 1.122956
v 0.125048 0.259186 1.119167
v 0.120516 0.258146 1.114826
v 0.134971 0.392008 1.136826
v 0.119127 0.362071 1.122153
v 0.082382 0.332606 1.088755
v 0.082417 0.321590 1.093380
v 0.142661 0.308652 1.118714
v 0.169907 0.336289 1.131303
v 0.168177 0.326660 1.117413
v 0.169292 0.317867 1.122092
v 0.164333 0.312310 1.120061
v 0.158147 0.309112 1.122322
v 0.122195 0.258041 1.124593
v 0.117381 0.256798 1.120706
v 0.111551 0.259120 1.119330
v 0.109413 0.263323 1.118265
v 0.110269 0.267659 1.118092
v 0.123762 0.261303 1.127497
v 0.123720 0.265303 1.128305
v 0.122225 0.271100 1.125626
v 0.121682 0.262458 1.131652
v 0.118006 0.258589 1.132158
v 0.104395 0.262529 1.131771
v 0.107736 0.259569 1.127628
v 0.108023 0.259262 1.130446
v 0.105608 0.261153 1.134509
v 0.104107 0.262174 1.139439
v 0.102291 0.263994 1.136955
v 0.112578 0.257860 1.130127
v 0.109900 0.260103 1.136075
v 0.113771 0.260912 1.137768
v 0.111194 0.261925 1.142650
v 0.107656 0.261059 1.141381
v 0.115321 0.259011 1.133715
v 0.113685 0.256825 1.128021
v 0.102603 0.264753 1.141577
v 0.103764 0.262620 1.142364
v 0.106626 0.262267 1.144134
v 0.105692 0.264813 1.145663
v 0.107200 0.263727 1.123140
v 0.103821 0.264957 1.130866
v 0.103030 0.267085 1.136588
v 0.103348 0.267491 1.141196
v 0.105206 0.268739 1.131955
v 0.104810 0.269497 1.136701
v 0.105554 0.269993 1.140675
v 0.108055 0.271656 1.133545
v 0.107338 0.271373 1.137589
v 0.111844 0.270750 1.122704
v 0.109146 0.267850 1.121100
v 0.107013 0.271539 1.140156
v 0.106442 0.266927 1.145648
v 0.117226 0.262264 1.137291
v 0.113395 0.264336 1.142926
v 0.118394 0.264415 1.137337
v 0.114896 0.266200 1.143115
v 0.110594 0.264664 1.146423
v 0.109503 0.262842 1.144914
v 0.113638 0.271348 1.119651
v 0.118790 0.272661 1.122910
v 0.117461 0.272165 1.125415
v 0.112522 0.272830 1.135285
v 0.120772 0.270977 1.128304
v 0.121706 0.266401 1.132080
v 0.118200 0.267414 1.137893
v 0.116825 0.270605 1.137254
v 0.115012 0.268605 1.142101
v 0.113841 0.270539 1.140799
v 0.110635 0.272193 1.139197
v 0.111671 0.269285 1.144372
v 0.111355 0.266756 1.145967
v 0.107858 0.269555 1.143921
v 0.111859 0.270557 1.142863
v 0.108981 0.270847 1.141842
v 0.146228 0.284531 1.129469
v 0.150431 0.287726 1.133688
v 0.151430 0.286294 1.130577
v 0.148159 0.283701 1.126776
v 0.152756 0.271863 1.126437
v 0.147444 0.275846 1.126561
v 0.150958 0.275294 1.121441
v 0.157615 0.272758 1.121379
v 0.159900 0.272274 1.129024
v 0.164324 0.274332 1.123900
v 0.158534 0.276456 1.116686
v 0.151377 0.278403 1.117946
v 0.147154 0.296074 1.108257
v 0.153787 0.295775 1.105710
v 0.149966 0.305112 1.124029
v 0.154028 0.304764 1.123942
v 0.145614 0.280740 1.127677
v 0.147903 0.279717 1.123755
v 0.158634 0.290284 1.133159
v 0.153116 0.289703 1.132756
v 0.154947 0.288612 1.133477
v 0.160249 0.287426 1.134847
v 0.142787 0.299816 1.114960
v 0.145999 0.303142 1.119597
v 0.143892 0.297568 1.111704
v 0.164885 0.288012 1.130935
v 0.168341 0.283906 1.126233
v 0.164394 0.301033 1.114689
v 0.162112 0.302912 1.120589
v 0.147701 0.281111 1.121100
v 0.148663 0.286732 1.130000
v 0.146253 0.284257 1.125708
v 0.165066 0.279871 1.119533
v 0.166926 0.278826 1.130834
v 0.154872 0.280143 1.147877
v 0.161797 0.282279 1.138797
v 0.158797 0.286573 1.138816
v 0.152821 0.285012 1.148149
v 0.164562 0.283759 1.133954
v 0.162599 0.277203 1.135638
v 0.140136 0.285125 1.140948
v 0.144631 0.288359 1.144452
v 0.138715 0.280891 1.139473
v 0.160753 0.298289 1.107926
v 0.144694 0.271861 1.138505
v 0.139917 0.276729 1.138378
v 0.154891 0.289325 1.136631
v 0.149016 0.288361 1.147148
v 0.154907 0.275761 1.146082
v 0.151633 0.271576 1.140543
v 0.151195 0.275514 1.150838
v 0.147015 0.271749 1.147072
v 0.140227 0.272522 1.144338
v 0.137021 0.277562 1.142715
v 0.137079 0.281581 1.142468
v 0.151772 0.280079 1.152185
v 0.150314 0.284984 1.151685
v 0.147232 0.288151 1.148518
v 0.147983 0.282878 1.156698
v 0.146407 0.278532 1.157268
v 0.127976 0.283177 1.159666
v 0.131144 0.279897 1.155591
v 0.132743 0.279221 1.157659
v 0.129860 0.282032 1.161528
v 0.135142 0.275550 1.152758
v 0.135832 0.276364 1.155254
v 0.140434 0.276238 1.156452
v 0.136850 0.279801 1.160287
v 0.141236 0.281900 1.161334
v 0.138153 0.284250 1.165652
v 0.133742 0.282174 1.164934
v 0.142854 0.278620 1.158601
v 0.128892 0.283912 1.164522
v 0.127588 0.286217 1.164468
v 0.142031 0.273908 1.154319
v 0.134552 0.278169 1.146973
v 0.130071 0.282362 1.153917
v 0.127559 0.286319 1.158669
v 0.128351 0.289201 1.164153
v 0.130745 0.286607 1.153362
v 0.128841 0.289341 1.158415
v 0.129940 0.291195 1.163036
v 0.133285 0.290765 1.153621
v 0.131679 0.292565 1.158919
v 0.138132 0.286467 1.145103
v 0.135299 0.282617 1.144980
v 0.131405 0.292475 1.161546
v 0.130803 0.286659 1.168217
v 0.131073 0.289940 1.167367
v 0.131463 0.284980 1.167513
v 0.142949 0.283205 1.161489
v 0.139038 0.286323 1.165760
v 0.143953 0.285929 1.161345
v 0.139464 0.288754 1.165975
v 0.135521 0.287717 1.168694
v 0.134898 0.286104 1.168427
v 0.139317 0.285258 1.143213
v 0.143725 0.287994 1.145713
v 0.142919 0.289122 1.146976
v 0.137998 0.292712 1.155588
v 0.146830 0.288914 1.150013
v 0.148102 0.286183 1.154881
v 0.144169 0.288526 1.160066
v 0.142022 0.291580 1.158253
v 0.140088 0.290768 1.165254
v 0.139619 0.292394 1.162352
v 0.135530 0.293785 1.160000
v 0.136152 0.291631 1.167559
v 0.135702 0.289510 1.168609
v 0.131899 0.291541 1.165966
v 0.136749 0.292940 1.164915
v 0.133305 0.293100 1.163463
v 0.154400 0.300959 1.144633
v 0.157762 0.304776 1.147693
v 0.158473 0.305172 1.145344
v 0.155959 0.301084 1.142233
v 0.161221 0.290020 1.143075
v 0.156697 0.292240 1.142914
v 0.159081 0.292950 1.138501
v 0.164178 0.291383 1.137273
v 0.165805 0.290650 1.146733
v 0.170017 0.292470 1.139161
v 0.165307 0.294167 1.132550
v 0.159697 0.294773 1.134899
v 0.158596 0.305694 1.125285
v 0.165034 0.305886 1.123607
v 0.154549 0.296523 1.143442
v 0.156305 0.297027 1.140269
v 0.164972 0.308389 1.147815
v 0.160077 0.307749 1.147014
v 0.162936 0.306736 1.148196
v 0.167344 0.305505 1.149256
v 0.152491 0.312437 1.131102
v 0.155431 0.316808 1.134260
v 0.154279 0.308286 1.128581
v 0.170843 0.305767 1.145517
v 0.174213 0.301300 1.140431
v 0.171958 0.314599 1.132948
v 0.168269 0.317679 1.136876
v 0.156279 0.297624 1.137623
v 0.155795 0.305795 1.144216
v 0.154118 0.301706 1.140721
v 0.170859 0.297187 1.134716
v 0.172927 0.296718 1.144679
v 0.162819 0.296332 1.165133
v 0.170111 0.300042 1.151426
v 0.166498 0.304842 1.151612
v 0.161369 0.300645 1.165149
v 0.171510 0.301630 1.148449
v 0.170120 0.294811 1.149496
v 0.148336 0.300397 1.159006
v 0.152728 0.303542 1.160828
v 0.148156 0.296272 1.157389
v 0.170848 0.309455 1.126160
v 0.161847 0.319340 1.138095
v 0.151769 0.289658 1.158672
v 0.148914 0.292870 1.157545
v 0.162578 0.306194 1.150138
v 0.157860 0.303743 1.163647
v 0.161883 0.292009 1.163111
v 0.157704 0.288842 1.159843
v 0.160053 0.292627 1.168734
v 0.155322 0.289619 1.166256
v 0.149702 0.290225 1.165307
v 0.147156 0.293575 1.163799
v 0.146572 0.296975 1.163056
v 0.161189 0.297077 1.170003
v 0.159946 0.300758 1.169269
v 0.157169 0.303113 1.165434
v 0.159994 0.298869 1.173541
v 0.157626 0.294132 1.175148
v 0.143013 0.297973 1.182685
v 0.144622 0.295894 1.177545
v 0.145682 0.295584 1.178187
v 0.144285 0.297148 1.183526
v 0.147865 0.292074 1.172722
v 0.148161 0.292769 1.174746
v 0.152182 0.292283 1.175090
v 0.150353 0.295055 1.180719
v 0.155417 0.298370 1.180354
v 0.153204 0.299885 1.184570
v 0.148669 0.296694 1.185483
v 0.155961 0.294587 1.176385
v 0.144492 0.298318 1.186483
v 0.142562 0.298619 1.186868
v 0.153141 0.291007 1.173030
v 0.144944 0.294433 1.169390
v 0.142740 0.297724 1.176185
v 0.140827 0.300025 1.181354
v 0.141806 0.301900 1.185271
v 0.143019 0.301369 1.174936
v 0.141711 0.302844 1.180019
v 0.142463 0.304422 1.183619
v 0.144673 0.304181 1.174374
v 0.143742 0.305298 1.179116
v 0.147404 0.300996 1.165228
v 0.145306 0.297764 1.166919
v 0.143820 0.305724 1.182253
v 0.146699 0.299895 1.189115
v 0.146345 0.303995 1.188020
v 0.147306 0.298971 1.187762
v 0.156873 0.299360 1.179678
v 0.154458 0.301840 1.185162
v 0.157500 0.301967 1.178657
v 0.154964 0.304391 1.184137
v 0.151592 0.301722 1.188166
v 0.151156 0.300716 1.187638
v 0.148512 0.300435 1.162326
v 0.152659 0.303204 1.163310
v 0.151535 0.303653 1.165600
v 0.148465 0.306892 1.175067
v 0.156098 0.303828 1.167345
v 0.158604 0.302269 1.172641
v 0.155989 0.304683 1.177485
v 0.152889 0.306698 1.176569
v 0.153834 0.306504 1.182594
v 0.151858 0.307180 1.180585
v 0.147050 0.307787 1.179481
v 0.150703 0.306259 1.185254
v 0.151655 0.304381 1.187327
v 0.146107 0.306142 1.185701
v 0.149755 0.307381 1.183240
v 0.146259 0.307226 1.183440
v 0.158378 0.319029 1.136909
v 0.155678 0.322981 1.164345
v 0.158463 0.326033 1.165859
v 0.158980 0.325092 1.165601
v 0.156101 0.322563 1.162902
v 0.161241 0.312981 1.161617
v 0.157076 0.315584 1.162371
v 0.158584 0.314897 1.158328
v 0.162780 0.312826 1.157453
v 0.166685 0.313760 1.162395
v 0.168212 0.314186 1.159278
v 0.163819 0.315427 1.153966
v 0.159295 0.316870 1.154592
v 0.163050 0.328265 1.140180
v 0.168339 0.329880 1.138914
v 0.165969 0.344649 1.150577
v 0.159906 0.344048 1.149357
v 0.162459 0.338028 1.156104
v 0.167482 0.338851 1.156047
v 0.155468 0.319255 1.163241
v 0.155858 0.318955 1.160117
v 0.168231 0.326534 1.166942
v 0.163126 0.327075 1.166506
v 0.162562 0.326806 1.167178
v 0.167282 0.326693 1.168649
v 0.156849 0.339926 1.147208
v 0.156854 0.335450 1.144247
v 0.156940 0.333193 1.148302
v 0.158967 0.334967 1.153988
v 0.158609 0.329306 1.144808
v 0.171615 0.324092 1.164780
v 0.172761 0.319813 1.160569
v 0.174947 0.336997 1.149021
v 0.172062 0.338929 1.152788
v 0.156948 0.318725 1.157869
v 0.159027 0.325732 1.163948
v 0.156877 0.322172 1.162099
v 0.169389 0.316577 1.155577
v 0.171247 0.318552 1.163869
v 0.167845 0.322964 1.174970
v 0.170224 0.323716 1.168887
v 0.167064 0.327560 1.169037
v 0.166364 0.326065 1.174513
v 0.170430 0.323252 1.167562
v 0.169974 0.318461 1.166923
v 0.154241 0.324526 1.169798
v 0.158649 0.327393 1.171367
v 0.153259 0.321297 1.169188
v 0.173025 0.333155 1.141878
v 0.157133 0.314738 1.169825
v 0.153902 0.317932 1.169678
v 0.162246 0.327556 1.167669
v 0.162950 0.327937 1.173194
v 0.167092 0.318246 1.174021
v 0.163094 0.314285 1.170857
v 0.164808 0.318419 1.177817
v 0.160503 0.315015 1.175012
v 0.154339 0.316841 1.173587
v 0.152744 0.320057 1.171942
v 0.152744 0.323202 1.171183
v 0.166302 0.323292 1.177881
v 0.165453 0.326195 1.176766
v 0.162648 0.328067 1.174407
v 0.164558 0.323885 1.181239
v 0.161216 0.320657 1.182612
v 0.149885 0.327538 1.185375
v 0.150620 0.325139 1.181971
v 0.151353 0.324517 1.182715
v 0.150041 0.326661 1.186026
v 0.152316 0.320873 1.178715
v 0.152893 0.321341 1.180401
v 0.156211 0.319621 1.180802
v 0.154640 0.322747 1.184968
v 0.159605 0.324394 1.186542
v 0.157779 0.326574 1.189596
v 0.153579 0.324678 1.188125
v 0.159528 0.320951 1.183408
v 0.149939 0.327397 1.188736
v 0.149242 0.328560 1.189201
v 0.156914 0.317756 1.179469
v 0.151200 0.323359 1.175572
v 0.149638 0.327445 1.181175
v 0.148938 0.329812 1.185737
v 0.149872 0.330845 1.189381
v 0.150536 0.329256 1.179621
v 0.149551 0.331914 1.184941
v 0.150618 0.332820 1.188399
v 0.152920 0.331486 1.178722
v 0.151650 0.333247 1.184046
v 0.154779 0.328485 1.173196
v 0.152155 0.326174 1.173998
v 0.151821 0.333361 1.187176
v 0.152246 0.328150 1.191755
v 0.152672 0.331081 1.191248
v 0.152721 0.326700 1.191142
v 0.160832 0.325028 1.186444
v 0.158703 0.327857 1.190106
v 0.162207 0.326959 1.185704
v 0.159201 0.329900 1.189537
v 0.155854 0.328810 1.192039
v 0.155530 0.327129 1.191185
v 0.154635 0.326745 1.171566
v 0.158291 0.327994 1.172326
v 0.158819 0.329486 1.174154
v 0.156922 0.332489 1.179394
v 0.163040 0.328757 1.176426
v 0.164902 0.326477 1.179222
v 0.162248 0.329316 1.184237
v 0.160760 0.331611 1.182107
v 0.158765 0.331805 1.188529
v 0.157661 0.333513 1.186236
v 0.154915 0.334184 1.184398
v 0.155393 0.332468 1.190219
v 0.155624 0.331109 1.191528
v 0.153097 0.332697 1.189988
v 0.155215 0.333527 1.188596
v 0.153674 0.333687 1.187947
v 0.169712 0.342965 1.149780
v 0.090685 0.309934 1.099053
v 0.094792 0.311355 1.102378
v 0.088131 0.313256 1.118026
v 0.094272 0.312288 1.114222
v 0.081057 0.312429 1.117209
v 0.074932 0.309988 1.107661
v 0.076584 0.312119 1.113034
v 0.096369 0.311595 1.108276
v 0.084711 0.309186 1.097832
v 0.077662 0.309366 1.100902
v 0.086593 0.299791 1.099846
v 0.078400 0.299590 1.103049
v 0.074370 0.300507 1.109350
v 0.076226 0.306060 1.115518
v 0.079725 0.308358 1.118866
v 0.092490 0.304475 1.102556
v 0.095740 0.306934 1.105966
v 0.096175 0.309266 1.112061
v 0.095902 0.298339 1.107955
v 0.092881 0.289466 1.112604
v 0.083619 0.283484 1.129880
v 0.081605 0.288575 1.125405
v 0.083192 0.286818 1.123792
v 0.084511 0.281998 1.127900
v 0.080721 0.290502 1.119909
v 0.082790 0.289241 1.119763
v 0.086320 0.289005 1.115789
v 0.087937 0.284759 1.120186
v 0.091566 0.288611 1.115232
v 0.093823 0.286102 1.118599
v 0.089521 0.280335 1.124044
v 0.086421 0.278353 1.128999
v 0.090841 0.276792 1.127582
v 0.086666 0.279330 1.132138
v 0.084835 0.287914 1.112852
v 0.077723 0.296863 1.120580
v 0.080756 0.291783 1.127157
v 0.084038 0.286522 1.132258
v 0.087937 0.281805 1.134050
v 0.082923 0.295336 1.129321
v 0.086616 0.290141 1.132907
v 0.090694 0.286115 1.133968
v 0.087471 0.297888 1.129605
v 0.090285 0.292164 1.132140
v 0.085693 0.307300 1.121854
v 0.079632 0.303520 1.122312
v 0.092004 0.288442 1.132804
v 0.092255 0.276528 1.130432
v 0.093659 0.279478 1.132320
v 0.096656 0.287903 1.117355
v 0.095439 0.281751 1.122087
v 0.097962 0.283543 1.122424
v 0.098876 0.291357 1.117229
v 0.099607 0.285637 1.123450
v 0.096960 0.279075 1.126631
v 0.094590 0.278465 1.124951
v 0.086006 0.310452 1.119852
v 0.092226 0.310810 1.116802
v 0.091661 0.308452 1.118650
v 0.093776 0.299044 1.126535
v 0.096271 0.306351 1.115340
v 0.097473 0.302293 1.111099
v 0.099763 0.294445 1.119249
v 0.098224 0.297514 1.122602
v 0.099519 0.288737 1.125478
v 0.098064 0.290948 1.127120
v 0.094503 0.292234 1.130322
v 0.097890 0.285091 1.129359
v 0.098330 0.281668 1.128086
v 0.094703 0.284136 1.132523
v 0.097143 0.287687 1.129436
v 0.094764 0.287670 1.131680
v 0.157751 0.348354 1.147566
v 0.153521 0.343507 1.144821
v 0.151106 0.349049 1.144960
v 0.145501 0.356203 1.145078
v 0.145218 0.366777 1.145826
v 0.141634 0.352503 1.140347
v 0.147541 0.345047 1.140671
v 0.151466 0.336944 1.140242
v 0.134034 0.356047 1.134325
f 780 781 779
f 779 781 782
f 783 784 786
f 786 784 785
f 787 782 788
f 788 782 781
f 790 791 789
f 789 791 787
f 792 790 794
f 794 790 793
f 796 797 795
f 795 797 798
f 800 801 799
f 799 801 802
f 804 805 803
f 803 805 806
f 808 809 807
f 807 809 810
f 811 812 814
f 814 812 813
f 815 816 818
f 818 816 817
f 819 820 784
f 784 820 821
f 784 821 785
f 785 821 822
f 823 812 824
f 824 812 811
f 826 827 825
f 825 827 828
f 830 831 829
f 829 831 832
f 834 830 833
f 833 830 829
f 836 837 835
f 835 837 838
f 839 840 782
f 782 840 779
f 842 843 841
f 841 843 844
f 846 847 845
f 845 847 848
f 850 851 849
f 849 851 852
f 854 855 853
f 853 855 856
f 831 857 832
f 832 857 858
f 860 861 859
f 859 861 862
f 863 864 830
f 830 864 831
f 835 838 865
f 865 838 866
f 867 868 821
f 821 868 822
f 821 820 867
f 867 820 869
f 818 817 870
f 870 817 871
f 872 848 842
f 842 848 847
f 791 839 787
f 787 839 782
f 803 806 847
f 847 806 873
f 874 803 846
f 846 803 847
f 876 877 875
f 875 877 878
f 879 880 882
f 882 880 881
f 884 808 883
f 883 808 807
f 829 832 885
f 885 832 886
f 832 858 886
f 886 858 887
f 889 890 888
f 888 890 891
f 893 783 892
f 892 783 894
f 893 819 783
f 783 819 784
f 814 813 889
f 889 813 895
f 813 896 895
f 895 896 897
f 812 898 813
f 813 898 896
f 812 823 898
f 898 823 899
f 903 904 902
f 902 904 905
f 906 907 792
f 792 907 908
f 811 909 824
f 824 909 910
f 911 872 841
f 841 872 842
f 912 913 915
f 915 913 914
f 917 918 916
f 916 918 919
f 855 920 856
f 856 920 921
f 922 923 798
f 798 923 924
f 926 927 925
f 925 927 850
f 929 930 928
f 928 930 931
f 860 879 861
f 861 879 882
f 879 860 933
f 933 860 932
f 934 935 836
f 836 935 837
f 936 846 925
f 925 846 845
f 937 924 793
f 793 924 794
f 846 936 874
f 874 936 938
f 907 844 908
f 908 844 843
f 940 941 939
f 939 941 942
f 944 945 943
f 943 945 946
f 948 949 947
f 947 949 950
f 952 949 951
f 951 949 948
f 954 955 953
f 953 955 956
f 958 959 957
f 957 959 802
f 960 961 799
f 799 961 962
f 859 963 860
f 860 963 932
f 964 965 966
f 966 965 922
f 936 849 938
f 938 849 967
f 968 913 935
f 935 913 837
f 947 950 917
f 917 950 918
f 925 850 936
f 936 850 849
f 970 971 969
f 969 971 972
f 945 944 827
f 827 944 973
f 974 968 828
f 828 968 935
f 975 976 978
f 978 976 977
f 799 802 960
f 960 802 959
f 924 937 798
f 798 937 795
f 960 959 859
f 859 959 963
f 979 963 958
f 958 963 959
f 980 981 861
f 861 981 862
f 983 984 982
f 982 984 863
f 985 800 962
f 962 800 799
f 957 802 986
f 986 802 801
f 986 987 957
f 957 987 983
f 987 988 983
f 983 988 984
f 990 984 989
f 989 984 988
f 957 983 958
f 958 983 982
f 991 954 866
f 866 954 992
f 864 863 990
f 990 863 984
f 971 995 996
f 995 997 996
f 996 997 998
f 997 796 998
f 998 796 795
f 797 999 798
f 798 999 922
f 1000 1001 1003
f 1003 1001 1002
f 953 1004 954
f 954 1004 992
f 1005 865 992
f 992 865 866
f 998 795 1006
f 1006 795 937
f 912 991 838
f 838 991 866
f 916 1007 929
f 929 1007 930
f 971 970 988
f 988 970 989
f 1008 972 996
f 996 972 971
f 1009 1010 1006
f 1006 1010 1008
f 1011 1012 869
f 869 1012 867
f 1013 1014 871
f 871 1014 870
f 1008 1010 1012
f 1012 1010 1015
f 825 1016 826
f 826 1016 1017
f 1018 969 1013
f 1013 969 1014
f 783 786 894
f 894 786 1019
f 1020 1021 967
f 967 1021 938
f 1022 1023 876
f 876 1023 877
f 934 1024 825
f 825 1024 1016
f 854 1025 855
f 855 1025 1026
f 1028 903 1027
f 1027 903 902
f 1030 1031 1029
f 1029 1031 1032
f 889 888 814
f 814 888 1033
f 1034 811 1033
f 1033 811 814
f 1035 1036 932
f 932 1036 933
f 841 947 911
f 911 947 917
f 844 948 841
f 841 948 947
f 951 948 907
f 907 948 844
f 907 906 951
f 951 906 1037
f 906 1038 1037
f 1037 1038 1039
f 991 912 1040
f 1040 912 915
f 1041 1042 964
f 964 1042 965
f 890 1043 891
f 891 1043 1044
f 789 1045 1046
f 1012 1011 1008
f 1008 1011 972
f 931 1047 848
f 848 1047 845
f 953 956 943
f 943 956 919
f 928 931 872
f 872 931 848
f 1049 999 1048
f 1048 999 985
f 1047 931 1050
f 1050 931 930
f 899 823 887
f 887 823 886
f 825 828 934
f 934 828 935
f 835 1051 836
f 836 1051 1052
f 923 1053 1038
f 1038 1053 1039
f 1054 927 921
f 921 927 856
f 926 1047 853
f 853 1047 1050
f 985 1055 1048
f 1048 1055 1056
f 973 974 827
f 827 974 828
f 837 913 838
f 838 913 912
f 861 882 980
f 980 882 1057
f 927 926 856
f 856 926 853
f 1025 1056 1026
f 1026 1056 1055
f 961 960 862
f 862 960 859
f 826 1017 1059
f 1059 1017 1060
f 1005 1001 1061
f 1061 1001 1000
f 1001 1004 1002
f 1002 1004 946
f 1059 1060 1002
f 1002 1060 1003
f 943 946 953
f 953 946 1004
f 1042 1041 916
f 916 1041 1007
f 792 794 906
f 906 794 1038
f 998 1006 996
f 996 1006 1008
f 865 1005 1062
f 1062 1005 1061
f 1038 794 923
f 923 794 924
f 1022 876 1036
f 1036 876 933
f 836 1052 934
f 934 1052 1024
f 885 1063 829
f 829 1063 833
f 1021 1064 938
f 938 1064 874
f 1012 1015 867
f 867 1015 868
f 824 910 885
f 885 910 1063
f 1031 1030 1027
f 1027 1030 1028
f 1064 804 874
f 874 804 803
f 884 883 1065
f 1065 883 1066
f 1050 930 1067
f 1067 930 1007
f 916 929 917
f 917 929 911
f 961 1068 939
f 939 1068 940
f 1069 1070 1055
f 1055 1070 1071
f 929 928 911
f 911 928 872
f 1040 1053 955
f 955 1053 965
f 922 965 923
f 923 965 1053
f 1051 835 1062
f 1062 835 865
f 952 914 968
f 968 914 913
f 889 895 890
f 890 895 816
f 895 897 816
f 816 897 901
f 890 816 1043
f 1043 816 815
f 1065 1066 1032
f 1032 1066 1029
f 1006 937 1009
f 1009 937 793
f 1001 1005 1004
f 1004 1005 992
f 925 845 926
f 926 845 1047
f 1002 946 1059
f 1059 946 945
f 977 941 978
f 978 941 940
f 823 824 886
f 886 824 885
f 1059 945 826
f 826 945 827
f 939 942 1069
f 1069 942 1070
f 816 901 817
f 1071 1072 1055
f 1055 1072 1026
f 1062 1061 1074
f 1074 1061 1073
f 1062 1074 1051
f 1051 1074 1075
f 1052 1051 1076
f 1076 1051 1075
f 1024 1052 1077
f 1077 1052 1076
f 1061 1000 1073
f 1073 1000 1078
f 1000 1003 1078
f 1078 1003 1079
f 1079 1003 1080
f 1080 1003 1060
f 1081 1082 1078
f 1078 1082 1073
f 1084 1085 1083
f 1083 1085 1086
f 1087 1088 1086
f 1086 1088 1083
f 1086 1085 1090
f 1090 1085 1089
f 1091 1092 1090
f 1090 1092 1093
f 1089 1094 1090
f 1090 1094 1091
f 1095 1082 1089
f 1089 1082 1094
f 1093 1087 1090
f 1090 1087 1086
f 1096 1097 1099
f 1099 1097 1098
f 1097 1096 1087
f 1087 1096 1088
f 1089 1085 1095
f 1095 1085 1084
f 1084 1075 1095
f 1095 1075 1074
f 1084 1100 1075
f 1075 1100 1076
f 1083 1101 1084
f 1084 1101 1100
f 1101 1083 1102
f 1102 1083 1088
f 1082 1095 1073
f 1073 1095 1074
f 1096 1103 1088
f 1088 1103 1102
f 1101 1102 1104
f 1104 1102 1105
f 1102 1103 1105
f 1105 1103 1106
f 1104 1105 1107
f 1107 1105 1108
f 1107 1109 1104
f 1104 1109 1110
f 1111 1108 1106
f 1106 1108 1105
f 1101 1104 1100
f 1100 1104 1110
f 1100 1110 1076
f 1076 1110 1077
f 1103 1096 1112
f 1112 1096 1099
f 1091 1094 1113
f 1113 1094 1082
f 1113 1114 1091
f 1091 1114 1092
f 1082 1081 1113
f 1113 1081 1115
f 1114 1113 1116
f 1116 1113 1115
f 1114 1117 1092
f 1092 1117 1118
f 1024 1077 1016
f 1016 1077 1119
f 1017 1120 1060
f 1060 1120 1080
f 1120 1017 1119
f 1119 1017 1016
f 1119 1109 1120
f 1120 1109 1121
f 1109 1107 1121
f 1121 1107 1122
f 1120 1121 1080
f 1080 1121 1123
f 1119 1077 1109
f 1109 1077 1110
f 1124 1079 1123
f 1123 1079 1080
f 1124 1081 1079
f 1079 1081 1078
f 1125 1115 1124
f 1124 1115 1081
f 1125 1124 1126
f 1126 1124 1123
f 1127 1125 1128
f 1128 1125 1126
f 1121 1122 1123
f 1123 1122 1126
f 1122 1129 1126
f 1126 1129 1128
f 1115 1125 1116
f 1116 1125 1127
f 1131 1116 1130
f 1130 1116 1127
f 1130 1133 1132
f 1132 1133 1134
f 1130 1127 1133
f 1133 1127 1128
f 1130 1132 1131
f 1131 1132 1112
f 1131 1112 1117
f 1117 1112 1099
f 1117 1114 1131
f 1131 1114 1116
f 1107 1108 1122
f 1122 1108 1129
f 1134 1129 1111
f 1111 1129 1108
f 1134 1133 1129
f 1129 1133 1128
f 1132 1134 1106
f 1106 1134 1111
f 1106 1103 1132
f 1132 1103 1112
f 1087 1093 1097
f 1097 1093 1098
f 1098 1118 1099
f 1099 1118 1117
f 1098 1093 1118
f 1118 1093 1092
f 915 914 1039
f 1039 914 1037
f 918 944 919
f 919 944 943
f 950 949 973
f 973 949 974
f 949 952 974
f 974 952 968
f 956 955 1042
f 1042 955 965
f 950 973 918
f 918 973 944
f 915 1039 1040
f 1040 1039 1053
f 956 1042 919
f 919 1042 916
f 1040 955 991
f 991 955 954
f 914 952 1037
f 1037 952 951
f 1136 1137 1135
f 1135 1137 1138
f 1140 1141 1139
f 1139 1141 1142
f 1139 1142 1143
f 1143 1142 1144
f 1145 1146 1148
f 1148 1146 1147
f 854 1149 1025
f 1025 1149 1150
f 1151 1152 1140
f 1140 1152 1141
f 1154 1155 1153
f 1153 1155 1156
f 1067 1007 1158
f 1158 1007 1157
f 1159 1157 1041
f 1041 1157 1007
f 1161 1162 1160
f 1160 1162 1163
f 1164 1146 1152
f 1152 1146 1141
f 854 1067 1149
f 1149 1067 1158
f 1155 1154 1137
f 1137 1154 1165
f 1166 1164 1138
f 1138 1164 1152
f 1167 1161 1144
f 1144 1161 1168
f 1170 1171 1169
f 1169 1171 1172
f 1161 1160 1168
f 1168 1160 1173
f 1174 1143 1168
f 1168 1143 1144
f 1167 1144 1145
f 1145 1144 1142
f 1135 1175 1136
f 1136 1175 1176
f 1151 1177 1135
f 1135 1177 1175
f 1167 1145 1178
f 1178 1145 1148
f 1160 1163 1153
f 1153 1163 1150
f 1135 1138 1151
f 1151 1138 1152
f 1139 1179 1140
f 1140 1179 1180
f 1165 1166 1137
f 1137 1166 1138
f 1141 1146 1142
f 1142 1146 1145
f 1136 1176 1181
f 1181 1176 1182
f 1174 1170 1183
f 1183 1170 1169
f 1170 1173 1171
f 1171 1173 1156
f 1171 1181 1172
f 1172 1181 1182
f 1153 1156 1160
f 1160 1156 1173
f 1143 1174 1184
f 1184 1174 1183
f 1140 1180 1151
f 1151 1180 1177
f 1049 1048 1178
f 1178 1048 1162
f 1179 1139 1184
f 1184 1139 1143
f 1159 1147 1164
f 1164 1147 1146
f 1170 1174 1173
f 1173 1174 1168
f 1171 1156 1181
f 1181 1156 1155
f 1181 1155 1136
f 1136 1155 1137
f 1184 1183 1186
f 1186 1183 1185
f 1184 1186 1179
f 1179 1186 1187
f 1179 1187 1180
f 1180 1187 1188
f 1180 1188 1177
f 1177 1188 1189
f 1183 1169 1185
f 1185 1169 1190
f 1169 1172 1190
f 1190 1172 1191
f 1172 1182 1191
f 1191 1182 1192
f 1193 1194 1190
f 1190 1194 1185
f 1196 1197 1195
f 1195 1197 1198
f 1199 1200 1196
f 1196 1200 1197
f 1197 1200 1202
f 1202 1200 1201
f 1203 1204 1202
f 1202 1204 1205
f 1201 1206 1202
f 1202 1206 1203
f 1205 1198 1202
f 1202 1198 1197
f 1198 1207 1195
f 1195 1207 1208
f 1201 1200 1209
f 1209 1200 1199
f 1199 1187 1209
f 1209 1187 1186
f 1199 1210 1187
f 1187 1210 1188
f 1196 1211 1199
f 1199 1211 1210
f 1212 1211 1195
f 1195 1211 1196
f 1209 1194 1201
f 1201 1194 1206
f 1194 1209 1185
f 1185 1209 1186
f 1213 1212 1208
f 1208 1212 1195
f 1211 1212 1214
f 1214 1212 1215
f 1212 1213 1215
f 1215 1213 1216
f 1214 1215 1217
f 1217 1215 1218
f 1217 1219 1214
f 1214 1219 1220
f 1216 1221 1215
f 1215 1221 1218
f 1214 1220 1211
f 1211 1220 1210
f 1210 1220 1188
f 1188 1220 1189
f 1213 1208 1223
f 1223 1208 1222
f 1208 1207 1222
f 1222 1207 1224
f 1203 1206 1225
f 1225 1206 1194
f 1204 1203 1226
f 1226 1203 1225
f 1194 1193 1225
f 1225 1193 1227
f 1225 1227 1226
f 1226 1227 1228
f 1229 1230 1226
f 1226 1230 1204
f 1224 1230 1222
f 1222 1230 1229
f 1177 1189 1175
f 1175 1189 1231
f 1176 1232 1182
f 1182 1232 1192
f 1232 1176 1231
f 1231 1176 1175
f 1231 1219 1232
f 1232 1219 1233
f 1219 1217 1233
f 1233 1217 1234
f 1232 1233 1192
f 1192 1233 1235
f 1219 1231 1220
f 1220 1231 1189
f 1236 1191 1235
f 1235 1191 1192
f 1236 1193 1191
f 1191 1193 1190
f 1236 1237 1193
f 1193 1237 1227
f 1237 1236 1238
f 1238 1236 1235
f 1239 1237 1240
f 1240 1237 1238
f 1233 1234 1235
f 1235 1234 1238
f 1234 1241 1238
f 1238 1241 1240
f 1237 1239 1227
f 1227 1239 1228
f 1243 1228 1242
f 1242 1228 1239
f 1242 1245 1244
f 1244 1245 1246
f 1242 1239 1245
f 1245 1239 1240
f 1242 1244 1243
f 1243 1244 1223
f 1243 1223 1229
f 1229 1223 1222
f 1229 1226 1243
f 1243 1226 1228
f 1217 1218 1234
f 1234 1218 1241
f 1246 1241 1221
f 1221 1241 1218
f 1246 1245 1241
f 1241 1245 1240
f 1244 1246 1216
f 1216 1246 1221
f 1216 1213 1244
f 1244 1213 1223
f 1198 1205 1207
f 1207 1205 1224
f 1224 1205 1230
f 1230 1205 1204
f 1148 1147 966
f 966 1147 964
f 1149 1154 1150
f 1150 1154 1153
f 1158 1157 1165
f 1165 1157 1166
f 1157 1159 1166
f 1166 1159 1164
f 1163 1162 1056
f 1056 1162 1048
f 1158 1165 1149
f 1149 1165 1154
f 1178 1148 1049
f 1049 1148 966
f 1163 1056 1150
f 1150 1056 1025
f 1178 1162 1167
f 1167 1162 1161
f 1147 1159 964
f 964 1159 1041
f 999 1049 922
f 922 1049 966
f 999 797 985
f 985 797 800
f 797 796 800
f 800 796 801
f 796 997 801
f 801 997 986
f 1247 1248 1250
f 1250 1248 1249
f 1252 1253 1251
f 1251 1253 1254
f 1251 1254 1255
f 1255 1254 1256
f 1258 1259 1257
f 1257 1259 1260
f 1261 1262 1252
f 1252 1262 1253
f 1264 1265 1263
f 1263 1265 1266
f 1267 1268 855
f 855 1268 920
f 1269 1267 1026
f 1026 1267 855
f 1271 1272 1270
f 1270 1272 1273
f 1274 1258 1262
f 1262 1258 1253
f 1264 1275 1265
f 1265 1275 1249
f 1276 1274 1250
f 1250 1274 1262
f 1277 1271 1256
f 1256 1271 1278
f 1279 1280 1282
f 1282 1280 1281
f 1271 1270 1278
f 1278 1270 1283
f 1284 1255 1278
f 1278 1255 1256
f 1277 1256 1257
f 1257 1256 1254
f 1247 1285 1248
f 1248 1285 1286
f 1261 1287 1247
f 1247 1287 1285
f 1257 1260 1277
f 1277 1260 1288
f 1270 1273 1263
f 1263 1273 1289
f 1261 1247 1262
f 1262 1247 1250
f 1251 1290 1252
f 1252 1290 1291
f 1275 1276 1249
f 1249 1276 1250
f 1253 1258 1254
f 1254 1258 1257
f 1248 1286 1292
f 1292 1286 1293
f 1284 1280 1294
f 1294 1280 1279
f 1281 1280 1266
f 1266 1280 1283
f 1292 1293 1281
f 1281 1293 1282
f 1263 1266 1270
f 1270 1266 1283
f 1255 1284 1295
f 1295 1284 1294
f 1252 1291 1261
f 1261 1291 1287
f 1288 1070 1272
f 1272 1070 942
f 1290 1251 1295
f 1295 1251 1255
f 1269 1259 1274
f 1274 1259 1258
f 1280 1284 1283
f 1283 1284 1278
f 1281 1266 1292
f 1292 1266 1265
f 1292 1265 1248
f 1248 1265 1249
f 1295 1294 1297
f 1297 1294 1296
f 1295 1297 1290
f 1290 1297 1298
f 1290 1298 1291
f 1291 1298 1299
f 1291 1299 1287
f 1287 1299 1300
f 1294 1279 1296
f 1296 1279 1301
f 1279 1282 1301
f 1301 1282 1302
f 1302 1282 1303
f 1303 1282 1293
f 1304 1305 1301
f 1301 1305 1296
f 1307 1308 1306
f 1306 1308 1309
f 1310 1311 1307
f 1307 1311 1308
f 1308 1311 1313
f 1313 1311 1312
f 1314 1315 1313
f 1313 1315 1316
f 1312 1317 1313
f 1313 1317 1314
f 1316 1309 1313
f 1313 1309 1308
f 1318 1319 1309
f 1309 1319 1306
f 1311 1310 1312
f 1312 1310 1320
f 1310 1298 1320
f 1320 1298 1297
f 1310 1321 1298
f 1298 1321 1299
f 1307 1322 1310
f 1310 1322 1321
f 1322 1307 1323
f 1323 1307 1306
f 1312 1320 1317
f 1317 1320 1305
f 1305 1320 1296
f 1296 1320 1297
f 1319 1324 1306
f 1306 1324 1323
f 1325 1322 1326
f 1326 1322 1323
f 1324 1327 1323
f 1323 1327 1326
f 1328 1325 1329
f 1329 1325 1326
f 1325 1328 1331
f 1331 1328 1330
f 1327 1332 1326
f 1326 1332 1329
f 1322 1325 1321
f 1321 1325 1331
f 1321 1331 1299
f 1299 1331 1300
f 1324 1319 1334
f 1334 1319 1333
f 1319 1318 1333
f 1333 1318 1335
f 1314 1317 1336
f 1336 1317 1305
f 1315 1314 1337
f 1337 1314 1336
f 1305 1304 1336
f 1336 1304 1338
f 1337 1336 1339
f 1339 1336 1338
f 1337 1340 1315
f 1315 1340 1341
f 1335 1341 1333
f 1333 1341 1340
f 1287 1300 1285
f 1285 1300 1342
f 1286 1343 1293
f 1293 1343 1303
f 1343 1286 1342
f 1342 1286 1285
f 1342 1330 1343
f 1343 1330 1344
f 1330 1328 1344
f 1344 1328 1345
f 1343 1344 1303
f 1303 1344 1346
f 1342 1300 1330
f 1330 1300 1331
f 1347 1302 1346
f 1346 1302 1303
f 1347 1304 1302
f 1302 1304 1301
f 1348 1338 1347
f 1347 1338 1304
f 1348 1347 1349
f 1349 1347 1346
f 1350 1348 1351
f 1351 1348 1349
f 1344 1345 1346
f 1346 1345 1349
f 1345 1352 1349
f 1349 1352 1351
f 1348 1350 1338
f 1338 1350 1339
f 1354 1339 1353
f 1353 1339 1350
f 1353 1356 1355
f 1355 1356 1357
f 1353 1350 1356
f 1356 1350 1351
f 1353 1355 1354
f 1354 1355 1334
f 1354 1334 1340
f 1340 1334 1333
f 1340 1337 1354
f 1354 1337 1339
f 1328 1329 1345
f 1345 1329 1352
f 1357 1352 1332
f 1332 1352 1329
f 1357 1356 1352
f 1352 1356 1351
f 1357 1332 1355
f 1355 1332 1327
f 1327 1324 1355
f 1355 1324 1334
f 1309 1316 1318
f 1318 1316 1335
f 1335 1316 1341
f 1341 1316 1315
f 1259 1072 1260
f 1260 1072 1071
f 1358 1264 1289
f 1289 1264 1263
f 1268 1267 1275
f 1275 1267 1276
f 1267 1269 1276
f 1276 1269 1274
f 941 1273 942
f 942 1273 1272
f 1358 1268 1264
f 1264 1268 1275
f 1260 1071 1288
f 1288 1071 1070
f 1273 941 1289
f 1289 941 977
f 1272 1271 1288
f 1288 1271 1277
f 1259 1269 1072
f 1072 1269 1026
f 1360 1361 1359
f 1359 1361 1362
f 1364 1365 1363
f 1363 1365 1366
f 1363 1366 1367
f 1367 1366 1368
f 1370 1371 1369
f 1369 1371 1372
f 1373 1374 1376
f 1376 1374 1375
f 1377 1378 1364
f 1364 1378 1365
f 1379 1380 1382
f 1382 1380 1381
f 1383 1384 1386
f 1386 1384 1385
f 1387 1385 978
f 978 1385 1384
f 1388 1389 1391
f 1391 1389 1390
f 1378 1392 1365
f 1365 1392 1370
f 1374 1383 1375
f 1375 1383 1386
f 1380 1393 1381
f 1381 1393 1361
f 1394 1392 1362
f 1362 1392 1378
f 1389 1396 1395
f 1395 1396 1368
f 1398 1399 1397
f 1397 1399 1400
f 1388 1401 1389
f 1389 1401 1396
f 1402 1367 1396
f 1396 1367 1368
f 1395 1368 1369
f 1369 1368 1366
f 1359 1403 1360
f 1360 1403 1404
f 1377 1405 1359
f 1359 1405 1403
f 1369 1372 1395
f 1395 1372 1406
f 1379 1388 1376
f 1376 1388 1391
f 1359 1362 1377
f 1377 1362 1378
f 1363 1407 1364
f 1364 1407 1408
f 1393 1394 1361
f 1361 1394 1362
f 1365 1370 1366
f 1366 1370 1369
f 1360 1404 1409
f 1409 1404 1410
f 1402 1398 1411
f 1411 1398 1397
f 1399 1398 1382
f 1382 1398 1401
f 1409 1410 1399
f 1399 1410 1400
f 1388 1379 1401
f 1401 1379 1382
f 1367 1402 1412
f 1412 1402 1411
f 1364 1408 1377
f 1377 1408 1405
f 981 980 1406
f 1406 980 1390
f 1407 1363 1412
f 1412 1363 1367
f 1387 1371 1392
f 1392 1371 1370
f 1398 1402 1401
f 1401 1402 1396
f 1409 1399 1381
f 1381 1399 1382
f 1360 1409 1361
f 1361 1409 1381
f 1412 1411 1414
f 1414 1411 1413
f 1412 1414 1407
f 1407 1414 1415
f 1407 1415 1408
f 1408 1415 1416
f 1408 1416 1405
f 1405 1416 1417
f 1411 1397 1413
f 1413 1397 1418
f 1397 1400 1418
f 1418 1400 1419
f 1419 1400 1420
f 1420 1400 1410
f 1422 1413 1421
f 1421 1413 1418
f 1423 1424 1426
f 1426 1424 1425
f 1427 1428 1424
f 1424 1428 1425
f 1425 1428 1430
f 1430 1428 1429
f 1430 1431 1433
f 1433 1431 1432
f 1429 1434 1430
f 1430 1434 1431
f 1433 1426 1430
f 1430 1426 1425
f 1426 1435 1423
f 1423 1435 1436
f 1428 1427 1429
f 1429 1427 1437
f 1427 1415 1437
f 1437 1415 1414
f 1427 1438 1415
f 1415 1438 1416
f 1439 1438 1424
f 1424 1438 1427
f 1440 1439 1423
f 1423 1439 1424
f 1429 1437 1434
f 1434 1437 1422
f 1422 1437 1413
f 1413 1437 1414
f 1441 1440 1436
f 1436 1440 1423
f 1442 1439 1443
f 1443 1439 1440
f 1441 1444 1440
f 1440 1444 1443
f 1445 1442 1446
f 1446 1442 1443
f 1442 1445 1448
f 1448 1445 1447
f 1444 1449 1443
f 1443 1449 1446
f 1439 1442 1438
f 1438 1442 1448
f 1438 1448 1416
f 1416 1448 1417
f 1436 1450 1441
f 1441 1450 1451
f 1436 1435 1450
f 1450 1435 1452
f 1431 1434 1453
f 1453 1434 1422
f 1431 1453 1432
f 1432 1453 1454
f 1453 1422 1455
f 1455 1422 1421
f 1454 1453 1456
f 1456 1453 1455
f 1457 1458 1454
f 1454 1458 1432
f 1452 1458 1450
f 1450 1458 1457
f 1405 1417 1403
f 1403 1417 1459
f 1404 1460 1410
f 1410 1460 1420
f 1459 1460 1403
f 1403 1460 1404
f 1447 1461 1459
f 1459 1461 1460
f 1445 1462 1447
f 1447 1462 1461
f 1460 1461 1420
f 1420 1461 1463
f 1459 1417 1447
f 1447 1417 1448
f 1464 1419 1463
f 1463 1419 1420
f 1419 1464 1418
f 1418 1464 1421
f 1464 1465 1421
f 1421 1465 1455
f 1465 1464 1466
f 1466 1464 1463
f 1467 1465 1468
f 1468 1465 1466
f 1461 1462 1463
f 1463 1462 1466
f 1462 1469 1466
f 1466 1469 1468
f 1465 1467 1455
f 1455 1467 1456
f 1471 1456 1470
f 1470 1456 1467
f 1470 1473 1472
f 1472 1473 1474
f 1470 1467 1473
f 1473 1467 1468
f 1470 1472 1471
f 1471 1472 1451
f 1471 1451 1457
f 1457 1451 1450
f 1457 1454 1471
f 1471 1454 1456
f 1462 1445 1469
f 1469 1445 1446
f 1474 1469 1449
f 1449 1469 1446
f 1474 1473 1469
f 1469 1473 1468
f 1472 1474 1444
f 1444 1474 1449
f 1444 1441 1472
f 1472 1441 1451
f 1426 1433 1435
f 1435 1433 1452
f 1452 1433 1458
f 1458 1433 1432
f 1371 940 1372
f 1372 940 1068
f 1376 1375 1379
f 1379 1375 1380
f 1393 1386 1394
f 1394 1386 1385
f 1385 1387 1394
f 1394 1387 1392
f 1475 1373 1391
f 1391 1373 1376
f 1375 1386 1380
f 1380 1386 1393
f 1372 1068 1406
f 1406 1068 981
f 1406 1390 1395
f 1395 1390 1389
f 1371 1387 940
f 940 1387 978
f 883 807 1476
f 1476 807 1477
f 1046 904 1479
f 1479 904 1478
f 904 903 1478
f 1478 903 1480
f 1030 1481 1028
f 1028 1481 1482
f 810 1046 1483
f 1483 1046 1479
f 1066 883 1484
f 1484 883 1476
f 807 810 1477
f 1477 810 1483
f 1485 1029 1484
f 1484 1029 1066
f 1028 1482 903
f 903 1482 1480
f 1481 1030 1485
f 1485 1030 1029
f 1484 1486 1485
f 1485 1486 1487
f 1485 1487 1481
f 1481 1487 1488
f 1481 1488 1482
f 1482 1488 1489
f 1482 1489 1480
f 1480 1489 1490
f 1484 1476 1486
f 1486 1476 1491
f 1476 1477 1491
f 1491 1477 1492
f 1477 1483 1492
f 1492 1483 1493
f 1495 1486 1494
f 1494 1486 1491
f 1497 1498 1496
f 1496 1498 1499
f 1500 1501 1497
f 1497 1501 1498
f 1502 1503 1501
f 1501 1503 1498
f 1502 1504 1503
f 1503 1504 1505
f 1506 1499 1503
f 1503 1499 1498
f 1499 1506 1507
f 1507 1506 1508
f 1507 1509 1499
f 1499 1509 1496
f 1502 1501 1510
f 1510 1501 1500
f 1500 1488 1510
f 1510 1488 1487
f 1500 1511 1488
f 1488 1511 1489
f 1497 1512 1500
f 1500 1512 1511
f 1512 1497 1513
f 1513 1497 1496
f 1502 1510 1504
f 1504 1510 1495
f 1495 1510 1486
f 1486 1510 1487
f 1509 1514 1496
f 1496 1514 1513
f 1515 1512 1516
f 1516 1512 1513
f 1514 1517 1513
f 1513 1517 1516
f 1518 1515 1519
f 1519 1515 1516
f 1515 1518 1521
f 1521 1518 1520
f 1517 1522 1516
f 1516 1522 1519
f 1512 1515 1511
f 1511 1515 1521
f 1511 1521 1489
f 1489 1521 1490
f 1514 1509 1524
f 1524 1509 1523
f 1509 1507 1523
f 1523 1507 1508
f 1505 1504 1525
f 1525 1504 1495
f 1526 1505 1527
f 1527 1505 1525
f 1525 1495 1528
f 1528 1495 1494
f 1527 1525 1529
f 1529 1525 1528
f 1527 1530 1526
f 1526 1530 1531
f 1508 1531 1523
f 1523 1531 1530
f 1506 1503 1526
f 1526 1503 1505
f 1508 1506 1531
f 1531 1506 1526
f 1478 1480 1532
f 1532 1480 1490
f 1483 1479 1493
f 1493 1479 1533
f 1532 1533 1478
f 1478 1533 1479
f 1520 1534 1532
f 1532 1534 1533
f 1518 1535 1520
f 1520 1535 1534
f 1533 1534 1493
f 1493 1534 1536
f 1532 1490 1520
f 1520 1490 1521
f 1537 1492 1536
f 1536 1492 1493
f 1492 1537 1491
f 1491 1537 1494
f 1537 1538 1494
f 1494 1538 1528
f 1538 1537 1539
f 1539 1537 1536
f 1540 1538 1541
f 1541 1538 1539
f 1534 1535 1536
f 1536 1535 1539
f 1535 1542 1539
f 1539 1542 1541
f 1538 1540 1528
f 1528 1540 1529
f 1544 1529 1543
f 1543 1529 1540
f 1545 1543 1547
f 1547 1543 1546
f 1543 1540 1546
f 1546 1540 1541
f 1543 1545 1544
f 1544 1545 1524
f 1544 1524 1530
f 1530 1524 1523
f 1530 1527 1544
f 1544 1527 1529
f 1535 1518 1542
f 1542 1518 1519
f 1547 1542 1522
f 1522 1542 1519
f 1547 1546 1542
f 1542 1546 1541
f 1545 1547 1517
f 1517 1547 1522
f 1517 1514 1545
f 1545 1514 1524
f 997 995 986
f 986 995 987
f 987 995 988
f 988 995 971
f 976 1358 977
f 977 1358 1289
f 854 853 1067
f 1067 853 1050
f 1055 985 1069
f 1069 985 962
f 1068 961 981
f 981 961 862
f 1268 1358 920
f 920 1358 976
f 920 976 921
f 921 976 975
f 927 1054 850
f 850 1054 851
f 882 881 1057
f 1057 881 1548
f 1548 1374 1057
f 1057 1374 1373
f 1383 1374 1549
f 1549 1374 1548
f 1549 1548 1550
f 1550 1548 881
f 1550 881 1551
f 1551 881 880
f 933 1552 879
f 879 1552 880
f 1551 880 875
f 875 880 1552
f 1553 1551 878
f 878 1551 875
f 1551 1553 1550
f 1550 1553 1554
f 1550 1554 1549
f 1549 1554 1555
f 978 1384 975
f 975 1384 1555
f 967 849 1556
f 1556 849 852
f 875 1552 876
f 876 1552 933
f 961 939 962
f 962 939 1069
f 1555 1054 975
f 975 1054 921
f 1555 1384 1549
f 1549 1384 1383
f 1391 1390 1475
f 1475 1390 980
f 1373 1475 1057
f 1057 1475 980
f 851 1054 1554
f 1554 1054 1555
f 1554 1553 851
f 851 1553 852
f 878 1556 1553
f 1553 1556 852
f 1556 878 967
f 967 878 877
f 1023 1020 877
f 877 1020 967
f 909 811 1034
f 806 779 873
f 873 779 840
f 805 780 806
f 806 780 779
f 1043 893 1044
f 1044 893 892
f 873 840 847
f 847 840 842
f 840 839 842
f 842 839 843
f 839 791 843
f 843 791 908
f 791 790 908
f 908 790 792
f 809 789 810
f 810 789 1046
f 793 790 809
f 809 790 789
f 809 808 793
f 793 808 1009
f 808 884 1009
f 1009 884 1010
f 1065 1015 884
f 884 1015 1010
f 1032 868 1065
f 1065 868 1015
f 1031 822 1032
f 1032 822 868
f 1031 1027 822
f 822 1027 785
f 1045 905 1046
f 1046 905 904
f 788 781 1019
f 1019 781 894
f 781 780 894
f 894 780 892
f 780 805 892
f 892 805 1044
f 805 804 1044
f 1044 804 891
f 804 1064 891
f 891 1064 888
f 1064 1021 888
f 888 1021 1033
f 1021 1020 1033
f 1033 1020 1034
f 1020 1023 1034
f 1034 1023 909
f 1023 1022 909
f 909 1022 910
f 1043 815 893
f 893 815 819
f 819 815 820
f 820 815 818
f 870 869 818
f 818 869 820
f 1014 1011 870
f 870 1011 869
f 969 972 1014
f 1014 972 1011
f 1036 1063 1022
f 1022 1063 910
f 1035 833 1036
f 1036 833 1063
f 1035 932 979
f 979 932 963
f 834 979 982
f 982 979 958
f 833 1035 834
f 834 1035 979
f 982 863 834
f 834 863 830
f 864 900 831
f 831 900 857
f 990 993 864
f 864 993 900
f 989 994 990
f 990 994 993
f 970 1058 989
f 989 1058 994
f 969 1018 970
f 970 1018 1058
f 1027 902 785
f 785 902 786
f 902 905 786
f 786 905 1019
f 905 1045 1019
f 1019 1045 788
f 788 1045 787
f 787 1045 789
