o hand_left
v -0.166737 0.319123 1.067420
v -0.160353 0.328212 1.067325
v -0.159186 0.318036 1.064879
v -0.165111 0.310538 1.063869
v -0.140749 0.328510 1.062955
v -0.134226 0.331352 1.052737
v -0.137928 0.315012 1.052237
v -0.142631 0.315321 1.061660
v -0.166251 0.303658 1.059806
v -0.158993 0.309723 1.062826
v -0.169435 0.302605 1.054509
v -0.178890 0.298958 1.049960
v -0.173939 0.298640 1.056304
v -0.185444 0.294370 1.050339
v -0.183047 0.307407 1.043535
v -0.193816 0.299057 1.049145
v -0.197801 0.327065 1.057510
v -0.200725 0.334910 1.068184
v -0.208692 0.320568 1.073391
v -0.204137 0.313590 1.062430
v -0.205815 0.334980 1.088629
v -0.208041 0.326378 1.080582
v -0.201160 0.341101 1.074890
v -0.199472 0.347978 1.082468
v -0.169067 0.331983 1.076253
v -0.163221 0.341514 1.075433
v -0.162749 0.337592 1.071627
v -0.168157 0.328305 1.072371
v -0.164856 0.300659 1.045652
v -0.168133 0.309554 1.039915
v -0.171384 0.305337 1.046111
v -0.164712 0.299548 1.051329
v -0.147348 0.364951 1.081358
v -0.146189 0.376631 1.074401
v -0.145152 0.374094 1.069099
v -0.146833 0.364105 1.076490
v -0.136837 0.356625 1.054562
v -0.140752 0.367177 1.052457
v -0.143482 0.370687 1.039262
v -0.142752 0.360041 1.039167
v -0.134100 0.343494 1.054199
v -0.137350 0.347070 1.040691
v -0.136400 0.333018 1.041172
v -0.139054 0.315297 1.042864
v -0.150945 0.383103 1.084605
v -0.152023 0.375408 1.091382
v -0.192473 0.254348 1.081876
v -0.192446 0.257386 1.086986
v -0.191769 0.260794 1.084117
v -0.192169 0.257241 1.079431
v -0.170032 0.386634 1.091055
v -0.178840 0.388462 1.086220
v -0.174629 0.394445 1.085472
v -0.165777 0.392274 1.088187
v -0.175562 0.379089 1.094788
v -0.184017 0.379724 1.087086
v -0.204512 0.250397 1.079193
v -0.199423 0.249877 1.078184
v -0.200727 0.253431 1.074804
v -0.205837 0.254767 1.075980
v -0.170919 0.302747 1.062430
v -0.170986 0.310053 1.068466
v -0.180680 0.288261 1.066791
v -0.177921 0.297711 1.067927
v -0.176572 0.295428 1.061177
v -0.180288 0.288088 1.060421
v -0.181674 0.314515 1.084656
v -0.176004 0.324361 1.081312
v -0.175511 0.319611 1.076707
v -0.180614 0.307748 1.079234
v -0.175789 0.331915 1.093469
v -0.181760 0.321722 1.095635
v -0.180951 0.327129 1.102338
v -0.175995 0.333117 1.099973
v -0.191988 0.303567 1.095973
v -0.196151 0.298129 1.096903
v -0.196232 0.299070 1.100337
v -0.192243 0.305924 1.098951
v -0.171316 0.400552 1.083849
v -0.161946 0.397358 1.084557
v -0.200380 0.347370 1.105764
v -0.192292 0.352044 1.112115
v -0.198189 0.342426 1.118908
v -0.205477 0.340062 1.110219
v -0.184803 0.386058 1.077887
v -0.181980 0.393415 1.078504
v -0.208571 0.252939 1.083199
v -0.209374 0.257488 1.080320
v -0.146294 0.337497 1.032874
v -0.145688 0.317029 1.035446
v -0.149121 0.353252 1.032779
v -0.152601 0.364194 1.033278
v -0.153088 0.373143 1.032126
v -0.180936 0.297086 1.073890
v -0.171685 0.318666 1.072214
v -0.169429 0.335011 1.080271
v -0.169708 0.346920 1.108960
v -0.163943 0.355358 1.105670
v -0.163622 0.347132 1.098749
v -0.169304 0.341657 1.102831
v -0.183967 0.349612 1.116971
v -0.178695 0.343513 1.116083
v -0.183993 0.336420 1.119448
v -0.189610 0.341242 1.121505
v -0.160790 0.300388 1.039196
v -0.163765 0.313269 1.034849
v -0.160188 0.382788 1.092786
v -0.156662 0.387616 1.087643
v -0.154842 0.394461 1.082894
v -0.154081 0.352566 1.077602
v -0.146210 0.363446 1.073141
v -0.144703 0.360595 1.069860
v -0.154389 0.351212 1.074860
v -0.151243 0.335737 1.068587
v -0.140713 0.343588 1.065328
v -0.151106 0.323403 1.067461
v -0.142882 0.372136 1.061374
v -0.141939 0.382765 1.064488
v -0.140810 0.379756 1.056090
v -0.145146 0.387319 1.072666
v -0.149446 0.391417 1.079420
v -0.181275 0.401857 1.077175
v -0.141524 0.376642 1.048234
v -0.144962 0.306250 1.060181
v -0.146796 0.298083 1.058672
v -0.154239 0.298916 1.061051
v -0.153206 0.306528 1.063141
v -0.191858 0.287274 1.052657
v -0.184360 0.286233 1.055807
v -0.178730 0.294169 1.054039
v -0.152904 0.358359 1.089337
v -0.156374 0.367473 1.097571
v -0.184061 0.287901 1.072593
v -0.206051 0.259543 1.072981
v -0.200542 0.257875 1.071532
v -0.196203 0.273340 1.061024
v -0.202817 0.274648 1.062603
v -0.193373 0.284376 1.077544
v -0.187159 0.284317 1.074433
v -0.189351 0.282772 1.075907
v -0.194267 0.282864 1.080312
v -0.195098 0.306152 1.106480
v -0.191413 0.312079 1.105206
v -0.207524 0.299535 1.069441
v -0.205749 0.296824 1.056255
v -0.200275 0.307303 1.052937
v -0.181676 0.319389 1.090421
v -0.186866 0.310932 1.094147
v -0.187215 0.313361 1.097601
v -0.184072 0.295651 1.077397
v -0.187698 0.289025 1.077422
v -0.188520 0.293349 1.080534
v -0.185011 0.299881 1.081035
v -0.187210 0.362642 1.105941
v -0.177473 0.359954 1.111964
v -0.195043 0.251479 1.078943
v -0.195521 0.254579 1.075964
v -0.176106 0.328945 1.087003
v -0.193030 0.319908 1.049976
v -0.169462 0.338158 1.084833
v -0.209060 0.321330 1.105656
v -0.204203 0.319335 1.111235
v -0.205237 0.313018 1.112216
v -0.210490 0.312979 1.109047
v -0.198764 0.270300 1.088399
v -0.193595 0.268052 1.086936
v -0.194610 0.264039 1.088795
v -0.199923 0.265652 1.090746
v -0.184299 0.282853 1.069470
v -0.183720 0.281541 1.063124
v -0.186241 0.276658 1.067210
v -0.187216 0.279608 1.072379
v -0.188320 0.279627 1.058902
v -0.190122 0.274371 1.062668
v -0.205205 0.270072 1.086799
v -0.210124 0.266853 1.081899
v -0.207404 0.281259 1.073749
v -0.201897 0.281518 1.079751
v -0.194493 0.360911 1.076154
v -0.192512 0.366391 1.085808
v -0.197506 0.353711 1.092347
v -0.203481 0.341990 1.098940
v -0.208039 0.330147 1.104419
v -0.212209 0.324735 1.094027
v -0.194848 0.358454 1.098587
v -0.200832 0.288807 1.077131
v -0.205642 0.290375 1.068901
v -0.205555 0.292514 1.073893
v -0.168481 0.340982 1.091733
v -0.195107 0.258543 1.072709
v -0.174550 0.372551 1.038123
v -0.182000 0.378546 1.047773
v -0.183622 0.369980 1.048778
v -0.174513 0.362989 1.038362
v -0.190215 0.264498 1.082077
v -0.190463 0.260853 1.076658
v -0.192568 0.314545 1.111346
v -0.196298 0.309049 1.111339
v -0.199368 0.309781 1.113704
v -0.195337 0.314743 1.116408
v -0.190155 0.369935 1.090118
v -0.200818 0.335331 1.123007
v -0.207463 0.333986 1.115237
v -0.188158 0.377256 1.079707
v -0.190400 0.372846 1.071123
v -0.187440 0.381682 1.068038
v -0.212562 0.311022 1.086519
v -0.195847 0.354797 1.069973
v -0.190773 0.367726 1.065294
v -0.187280 0.378055 1.061307
v -0.185414 0.385895 1.058971
v -0.185681 0.389026 1.066601
v -0.209467 0.262832 1.077460
v -0.210441 0.261394 1.085783
v -0.185200 0.398000 1.064853
v -0.184303 0.393915 1.056460
v -0.189909 0.362025 1.058010
v -0.187064 0.354967 1.049469
v -0.194616 0.349664 1.062921
v -0.192581 0.341667 1.054783
v -0.214656 0.309253 1.075982
v -0.205473 0.250218 1.098686
v -0.206383 0.259647 1.092783
v -0.200760 0.261251 1.093575
v -0.201996 0.252298 1.100293
v -0.205891 0.264929 1.089792
v -0.209508 0.256876 1.088671
v -0.185467 0.333136 1.045233
v -0.192624 0.287950 1.081133
v -0.175614 0.346043 1.038861
v -0.178512 0.319359 1.038020
v -0.169090 0.328197 1.034315
v -0.163591 0.357476 1.031919
v -0.159546 0.340925 1.030283
v -0.163932 0.375832 1.032029
v -0.165056 0.367056 1.032873
v -0.156055 0.324427 1.031213
v -0.191482 0.248261 1.090895
v -0.192575 0.251926 1.095255
v -0.173459 0.380693 1.036458
v -0.152228 0.313776 1.065152
v -0.161076 0.348151 1.087711
v -0.162272 0.345778 1.082666
v -0.160778 0.360215 1.102769
v -0.158924 0.352070 1.094447
v -0.193572 0.244786 1.087321
v -0.201273 0.296203 1.097878
v -0.200675 0.297862 1.098065
v -0.139999 0.305663 1.052796
v -0.142036 0.298635 1.052592
v -0.147396 0.297446 1.040481
v -0.142507 0.297539 1.045772
v -0.140594 0.305676 1.044092
v -0.145818 0.306188 1.038193
v -0.153897 0.353348 1.080167
v -0.153925 0.354686 1.083929
v -0.180981 0.371527 1.100363
v -0.171527 0.368036 1.106263
v -0.194678 0.280331 1.057058
v -0.199670 0.289800 1.053277
v -0.201232 0.282446 1.058424
v -0.206899 0.279208 1.066283
v -0.197055 0.286056 1.080415
v -0.199539 0.286288 1.076303
v -0.142679 0.352877 1.067919
v -0.153286 0.345764 1.071354
v -0.159968 0.305016 1.060600
v -0.161265 0.299351 1.058572
v -0.185449 0.306274 1.086223
v -0.212492 0.299788 1.089562
v -0.213830 0.298131 1.081004
v -0.190346 0.298655 1.087533
v -0.201628 0.241975 1.087489
v -0.196736 0.242711 1.086530
v -0.205793 0.286911 1.061583
v -0.186178 0.318165 1.104634
v -0.210407 0.306237 1.092658
v -0.208347 0.297922 1.095464
v -0.192085 0.335860 1.124028
v -0.179866 0.386989 1.045623
v -0.195285 0.260241 1.092114
v -0.195763 0.254115 1.098616
v -0.207419 0.248048 1.095428
v -0.206536 0.244813 1.090344
v -0.165368 0.374370 1.099670
v -0.163146 0.343822 1.079502
v -0.154540 0.311013 1.033929
v -0.154371 0.299174 1.038120
v -0.193450 0.294402 1.088334
v -0.207181 0.326417 1.110932
v -0.213695 0.316313 1.098675
v -0.214851 0.307888 1.102925
v -0.212473 0.301551 1.099076
v -0.206735 0.296826 1.098551
v -0.205604 0.244274 1.099346
v -0.204712 0.241048 1.094351
v -0.199820 0.238393 1.091327
v -0.195470 0.239336 1.090145
v -0.192510 0.242604 1.090551
v -0.203673 0.246409 1.102820
v -0.200386 0.248311 1.103981
v -0.195413 0.251413 1.101304
v -0.201008 0.243783 1.106253
v -0.202007 0.238641 1.105012
v -0.191533 0.230633 1.100277
v -0.196186 0.233012 1.097397
v -0.196319 0.232026 1.099980
v -0.193042 0.229777 1.103079
v -0.190881 0.227425 1.107215
v -0.188673 0.227963 1.104450
v -0.199928 0.234806 1.101212
v -0.196022 0.231887 1.105974
v -0.197256 0.234651 1.108992
v -0.194510 0.231514 1.112720
v -0.193492 0.228808 1.110191
v -0.200084 0.236222 1.105581
v -0.201522 0.235886 1.099663
v -0.187712 0.226922 1.108910
v -0.190031 0.226355 1.109837
v -0.191658 0.227703 1.112478
v -0.188854 0.227814 1.113814
v -0.193124 0.236497 1.093486
v -0.189320 0.231855 1.099459
v -0.186523 0.230350 1.104683
v -0.185852 0.229103 1.109115
v -0.186831 0.234642 1.101310
v -0.185476 0.232967 1.105664
v -0.185010 0.232315 1.109674
v -0.185830 0.237817 1.104096
v -0.185196 0.235564 1.107581
v -0.190204 0.244155 1.095330
v -0.191174 0.240963 1.092633
v -0.184557 0.234434 1.109877
v -0.187469 0.229534 1.114293
v -0.198029 0.238199 1.109918
v -0.193614 0.234385 1.114001
v -0.196895 0.240259 1.110610
v -0.192849 0.236490 1.114917
v -0.191482 0.231177 1.116290
v -0.192599 0.229916 1.114298
v -0.191381 0.246971 1.093105
v -0.192712 0.250583 1.097776
v -0.191701 0.248270 1.099861
v -0.187028 0.241155 1.107450
v -0.194065 0.249063 1.103604
v -0.197776 0.245827 1.107088
v -0.194246 0.241562 1.111369
v -0.190955 0.242501 1.110586
v -0.191022 0.238258 1.114261
v -0.188954 0.238876 1.112808
v -0.186065 0.237895 1.110350
v -0.188402 0.235235 1.115258
v -0.190174 0.233056 1.116354
v -0.186217 0.232639 1.113478
v -0.187631 0.236616 1.114035
v -0.185987 0.234944 1.112079
v -0.196918 0.263454 1.106581
v -0.197518 0.267452 1.111550
v -0.198502 0.270444 1.107550
v -0.197917 0.266794 1.103547
v -0.209484 0.257912 1.103510
v -0.203257 0.258371 1.102728
v -0.205027 0.261345 1.098907
v -0.211849 0.262010 1.100289
v -0.214181 0.261372 1.107589
v -0.215910 0.265982 1.104262
v -0.212785 0.266140 1.096372
v -0.205640 0.265742 1.095098
v -0.203421 0.283056 1.082521
v -0.210425 0.283864 1.083025
v -0.197857 0.292408 1.096717
v -0.201508 0.292662 1.098370
v -0.198955 0.260772 1.104264
v -0.200439 0.263701 1.100658
v -0.203448 0.278290 1.110830
v -0.198834 0.276504 1.108275
v -0.200025 0.273079 1.111441
v -0.204894 0.274246 1.113875
v -0.196216 0.285980 1.086226
v -0.196643 0.289787 1.091272
v -0.198822 0.283931 1.084140
v -0.210154 0.277830 1.110888
v -0.215897 0.275293 1.107882
v -0.215140 0.290854 1.094940
v -0.210243 0.292203 1.099013
v -0.200353 0.267052 1.096598
v -0.196721 0.273059 1.104226
v -0.196773 0.269887 1.100010
v -0.216451 0.270694 1.101078
v -0.215309 0.270265 1.111234
v -0.206772 0.259376 1.124976
v -0.209602 0.268751 1.117612
v -0.204502 0.270062 1.117673
v -0.202116 0.260955 1.126407
v -0.210509 0.273136 1.114253
v -0.213585 0.265787 1.114147
v -0.192698 0.254605 1.118450
v -0.193688 0.258587 1.123252
v -0.194434 0.251436 1.115596
v -0.215203 0.287485 1.087786
v -0.204436 0.249781 1.113005
v -0.197839 0.249924 1.113449
v -0.199840 0.270001 1.115527
v -0.197202 0.260627 1.126183
v -0.209451 0.256893 1.122138
v -0.209658 0.253236 1.115897
v -0.207423 0.252447 1.125372
v -0.207054 0.248922 1.120107
v -0.201889 0.245830 1.116834
v -0.196140 0.247035 1.116829
v -0.193262 0.249415 1.118343
v -0.205137 0.254803 1.128365
v -0.200948 0.256838 1.129895
v -0.196296 0.258088 1.127974
v -0.200956 0.250958 1.133268
v -0.202828 0.247100 1.131448
v -0.188433 0.235351 1.130136
v -0.192181 0.238110 1.126201
v -0.194062 0.237694 1.128047
v -0.190764 0.235136 1.131768
v -0.197488 0.240138 1.123223
v -0.197667 0.239684 1.125773
v -0.200800 0.242250 1.128159
v -0.196429 0.239720 1.131810
v -0.197844 0.243249 1.134920
v -0.194876 0.240050 1.138792
v -0.193559 0.236305 1.135918
v -0.200868 0.244039 1.131658
v -0.189212 0.233905 1.134867
v -0.186641 0.234074 1.135428
v -0.203027 0.243253 1.126038
v -0.194647 0.243980 1.119386
v -0.189454 0.239523 1.125540
v -0.185648 0.237129 1.130547
v -0.184750 0.236176 1.136704
v -0.186691 0.242397 1.127084
v -0.184100 0.239628 1.132003
v -0.184051 0.238845 1.137080
v -0.185275 0.246048 1.129855
v -0.183501 0.242938 1.134645
v -0.190770 0.251888 1.122326
v -0.191633 0.247837 1.119784
v -0.183754 0.241266 1.136790
v -0.188904 0.234671 1.139753
v -0.186371 0.236821 1.140578
v -0.190450 0.234722 1.138633
v -0.197859 0.245032 1.136141
v -0.193807 0.241647 1.140030
v -0.196508 0.247225 1.137446
v -0.192191 0.243020 1.141316
v -0.191039 0.238305 1.142075
v -0.191847 0.237211 1.140958
v -0.192421 0.252989 1.120854
v -0.193598 0.256720 1.124951
v -0.192189 0.255732 1.126297
v -0.187060 0.249319 1.133689
v -0.195267 0.256794 1.129852
v -0.198453 0.253806 1.133143
v -0.194546 0.249352 1.137593
v -0.190690 0.250278 1.136698
v -0.190991 0.244828 1.141839
v -0.189033 0.246733 1.139930
v -0.185090 0.245705 1.137265
v -0.188218 0.241191 1.143063
v -0.189753 0.239327 1.142849
v -0.185441 0.238908 1.140334
v -0.187174 0.243612 1.141525
v -0.184730 0.241948 1.139286
v -0.198861 0.278204 1.118492
v -0.198155 0.282252 1.122639
v -0.198487 0.285300 1.119939
v -0.199360 0.281268 1.115852
v -0.211594 0.275357 1.117348
v -0.206847 0.274114 1.116166
v -0.207660 0.277212 1.112995
v -0.212842 0.279299 1.113352
v -0.214196 0.277279 1.122106
v -0.216098 0.282909 1.117316
v -0.213977 0.283444 1.109727
v -0.208340 0.280662 1.109924
v -0.206951 0.293356 1.101228
v -0.213350 0.295473 1.102176
v -0.202354 0.275623 1.116731
v -0.202834 0.278373 1.114028
v -0.202841 0.292468 1.124092
v -0.199173 0.290518 1.121565
v -0.200528 0.288180 1.124090
v -0.204090 0.289371 1.126249
v -0.197396 0.297497 1.103819
v -0.197504 0.302224 1.107845
v -0.201073 0.294049 1.102395
v -0.209499 0.292763 1.124258
v -0.215690 0.291552 1.120377
v -0.213300 0.304193 1.113344
v -0.207545 0.305644 1.115248
v -0.203158 0.281018 1.111222
v -0.197409 0.287646 1.117366
v -0.198658 0.283501 1.113502
v -0.216492 0.287650 1.113893
v -0.215000 0.286586 1.123482
v -0.207142 0.272077 1.138856
v -0.209771 0.285372 1.129336
v -0.203797 0.286093 1.128941
v -0.202922 0.273467 1.139552
v -0.209923 0.288846 1.127085
v -0.214066 0.282148 1.126662
v -0.195547 0.267405 1.129606
v -0.195664 0.271249 1.133591
v -0.198698 0.265832 1.126752
v -0.216530 0.300009 1.106875
v -0.200953 0.305674 1.113671
v -0.206108 0.264008 1.127155
v -0.201827 0.264483 1.126134
v -0.200288 0.285171 1.126570
v -0.198615 0.273537 1.137807
v -0.210325 0.270033 1.135675
v -0.210520 0.266784 1.130287
v -0.208162 0.266209 1.139168
v -0.208271 0.263007 1.133715
v -0.204304 0.260234 1.130199
v -0.200013 0.261215 1.129009
v -0.196935 0.262893 1.129517
v -0.204816 0.268327 1.142156
v -0.201023 0.269691 1.142422
v -0.197834 0.271567 1.138682
v -0.202221 0.265556 1.144940
v -0.204820 0.260963 1.143340
v -0.193328 0.248401 1.141747
v -0.196350 0.252072 1.138229
v -0.197181 0.252143 1.139159
v -0.194693 0.248220 1.142855
v -0.201357 0.255517 1.135240
v -0.201057 0.254780 1.137076
v -0.203467 0.256692 1.139522
v -0.200078 0.252889 1.143576
v -0.200025 0.257627 1.147389
v -0.197305 0.253814 1.149949
v -0.197409 0.249121 1.146804
v -0.203581 0.259127 1.143355
v -0.193555 0.246676 1.145554
v -0.192195 0.245526 1.144742
v -0.205059 0.258064 1.138198
v -0.197953 0.257168 1.132070
v -0.193840 0.252731 1.136752
v -0.190532 0.249045 1.140221
v -0.189117 0.247570 1.144236
v -0.190972 0.255293 1.137115
v -0.188715 0.251669 1.140655
v -0.187528 0.250249 1.144271
v -0.189464 0.257865 1.138666
v -0.187787 0.254529 1.142001
v -0.193944 0.264264 1.132717
v -0.195411 0.260459 1.131511
v -0.187271 0.252569 1.144520
v -0.193210 0.246796 1.149303
v -0.189624 0.249097 1.149707
v -0.194520 0.247590 1.148454
v -0.199958 0.259386 1.148074
v -0.196193 0.255018 1.151713
v -0.198118 0.261564 1.148533
v -0.194364 0.257088 1.152033
v -0.194424 0.251000 1.152248
v -0.195177 0.250704 1.151297
v -0.195152 0.266102 1.131329
v -0.195392 0.269728 1.134924
v -0.194126 0.267864 1.136035
v -0.189241 0.260935 1.142282
v -0.196276 0.269763 1.139893
v -0.198658 0.266889 1.144818
v -0.195097 0.262686 1.147713
v -0.191687 0.262525 1.145936
v -0.192146 0.258427 1.150874
v -0.190586 0.259119 1.148526
v -0.187540 0.257334 1.145072
v -0.190357 0.254613 1.151046
v -0.192291 0.252801 1.152532
v -0.187907 0.251598 1.148570
v -0.189068 0.256040 1.149341
v -0.187314 0.253811 1.147337
v -0.198443 0.304841 1.111309
v -0.198091 0.297973 1.131791
v -0.196360 0.300520 1.134722
v -0.196529 0.302774 1.133721
v -0.197552 0.300724 1.130107
v -0.209540 0.299062 1.131137
v -0.205530 0.296789 1.129909
v -0.205979 0.299905 1.126971
v -0.209913 0.302094 1.128221
v -0.210995 0.302507 1.134756
v -0.210923 0.305468 1.132422
v -0.209657 0.305257 1.126122
v -0.205468 0.303303 1.124486
v -0.203781 0.316560 1.114851
v -0.207715 0.320568 1.116005
v -0.193972 0.330222 1.125814
v -0.189634 0.327674 1.123158
v -0.192720 0.320972 1.127445
v -0.195830 0.324101 1.129635
v -0.201488 0.296740 1.130235
v -0.200994 0.299471 1.127488
v -0.199272 0.311394 1.138484
v -0.196157 0.308634 1.135960
v -0.196379 0.305506 1.136898
v -0.198707 0.307943 1.140115
v -0.189516 0.323030 1.120102
v -0.191422 0.319661 1.117433
v -0.192736 0.316149 1.119465
v -0.192158 0.317278 1.124193
v -0.197031 0.313809 1.116680
v -0.203486 0.312371 1.138650
v -0.208807 0.311708 1.135881
v -0.204881 0.327899 1.127558
v -0.200107 0.327251 1.129145
v -0.201051 0.301948 1.125687
v -0.195637 0.305791 1.132314
v -0.197042 0.303125 1.129095
v -0.211285 0.308601 1.130648
v -0.208380 0.308332 1.137685
v -0.202594 0.300062 1.147421
v -0.203065 0.306969 1.142343
v -0.198325 0.305749 1.141457
v -0.199383 0.299837 1.146861
v -0.203171 0.308986 1.140571
v -0.208273 0.305367 1.140100
v -0.197159 0.292387 1.136876
v -0.195717 0.295976 1.140738
v -0.199956 0.291022 1.135391
v -0.208927 0.325030 1.120923
v -0.207402 0.291872 1.136958
v -0.203422 0.290254 1.135556
v -0.196352 0.303025 1.138157
v -0.196663 0.298525 1.144416
v -0.206816 0.298628 1.145720
v -0.209628 0.295738 1.140774
v -0.205520 0.294408 1.148138
v -0.208136 0.291846 1.142890
v -0.205103 0.288409 1.138657
v -0.201556 0.288676 1.136925
v -0.198463 0.289756 1.136810
v -0.201347 0.296410 1.149669
v -0.198414 0.296909 1.148796
v -0.196041 0.296691 1.145729
v -0.199875 0.292820 1.151580
v -0.202605 0.288962 1.150285
v -0.194430 0.279034 1.145722
v -0.196858 0.281637 1.143400
v -0.197642 0.281634 1.144370
v -0.195345 0.278611 1.146239
v -0.201250 0.284650 1.141682
v -0.200987 0.284069 1.143355
v -0.203037 0.286144 1.145623
v -0.199852 0.282438 1.148075
v -0.198844 0.285261 1.152643
v -0.196506 0.281955 1.154065
v -0.197894 0.279618 1.150034
v -0.202186 0.287052 1.149842
v -0.194649 0.276768 1.148311
v -0.193377 0.276102 1.148263
v -0.204766 0.287279 1.144834
v -0.198560 0.286096 1.138819
v -0.194452 0.281695 1.142375
v -0.192059 0.278364 1.145578
v -0.191191 0.276689 1.149018
v -0.192734 0.283627 1.141932
v -0.190035 0.279615 1.145568
v -0.189312 0.278162 1.148972
v -0.190836 0.286269 1.142989
v -0.188967 0.281925 1.146400
v -0.194067 0.291096 1.139819
v -0.195908 0.288211 1.138544
v -0.188909 0.279933 1.148901
v -0.194227 0.276535 1.152156
v -0.191325 0.277498 1.152323
v -0.195774 0.277119 1.151918
v -0.198310 0.286380 1.153447
v -0.195306 0.282484 1.155189
v -0.196549 0.288162 1.153986
v -0.193305 0.283463 1.155290
v -0.194012 0.279097 1.154850
v -0.195690 0.279230 1.153851
v -0.195518 0.291781 1.138711
v -0.195069 0.294561 1.141724
v -0.193748 0.293763 1.143305
v -0.190373 0.288951 1.146164
v -0.195060 0.295370 1.147412
v -0.197468 0.294680 1.150463
v -0.194220 0.289415 1.153014
v -0.191760 0.289924 1.150569
v -0.191337 0.284043 1.154358
v -0.189485 0.284926 1.152007
v -0.188416 0.284199 1.148876
v -0.190276 0.280392 1.153488
v -0.191674 0.279527 1.154519
v -0.189758 0.278863 1.151796
v -0.189175 0.281480 1.152220
v -0.188820 0.280806 1.150723
v -0.198119 0.330294 1.126529
v -0.160996 0.286595 1.044442
v -0.163950 0.287395 1.049350
v -0.152594 0.285883 1.060979
v -0.159511 0.286208 1.059795
v -0.146631 0.284724 1.057947
v -0.144601 0.284889 1.047228
v -0.144014 0.285450 1.052741
v -0.163627 0.286792 1.055473
v -0.155940 0.286143 1.041123
v -0.148849 0.285576 1.041837
v -0.158103 0.278262 1.041487
v -0.150435 0.277500 1.042474
v -0.145659 0.276490 1.047446
v -0.144944 0.278226 1.054023
v -0.146717 0.279052 1.058701
v -0.163015 0.280443 1.046107
v -0.165352 0.281644 1.051217
v -0.163703 0.282466 1.057646
v -0.165846 0.273633 1.049612
v -0.162750 0.263852 1.049792
v -0.151328 0.251660 1.059657
v -0.149516 0.258100 1.058146
v -0.151386 0.257115 1.056038
v -0.152450 0.251177 1.057175
v -0.149505 0.262232 1.054347
v -0.151520 0.260789 1.053944
v -0.155873 0.262114 1.051030
v -0.156799 0.256750 1.052301
v -0.161121 0.261876 1.050930
v -0.162893 0.258555 1.052531
v -0.157945 0.251460 1.053512
v -0.154426 0.247731 1.056434
v -0.158912 0.247053 1.054949
v -0.154459 0.247182 1.059700
v -0.155230 0.262403 1.048680
v -0.146366 0.268422 1.056745
v -0.148606 0.260740 1.060874
v -0.151657 0.253520 1.063056
v -0.155514 0.248351 1.062654
v -0.150294 0.263298 1.064351
v -0.153911 0.256646 1.065563
v -0.157987 0.252293 1.064954
v -0.154356 0.265517 1.066309
v -0.157285 0.258848 1.066314
v -0.152219 0.277765 1.062744
v -0.147203 0.273895 1.060572
v -0.159215 0.254969 1.065307
v -0.160073 0.245460 1.057188
v -0.161333 0.246890 1.060493
v -0.165840 0.260503 1.052938
v -0.164137 0.253353 1.053131
v -0.166556 0.254613 1.054854
v -0.167879 0.263672 1.054750
v -0.168041 0.256057 1.057053
v -0.165101 0.249087 1.055844
v -0.162876 0.249435 1.053861
v -0.151754 0.281437 1.061703
v -0.158237 0.283007 1.060964
v -0.158845 0.279545 1.061808
v -0.160706 0.267880 1.065396
v -0.164599 0.278558 1.059164
v -0.166977 0.276056 1.053902
v -0.168396 0.265775 1.058036
v -0.166065 0.267676 1.062042
v -0.167555 0.257934 1.060308
v -0.165802 0.259291 1.062580
v -0.161698 0.259479 1.065515
v -0.165661 0.253054 1.061407
v -0.166319 0.250634 1.058605
v -0.162187 0.250881 1.063173
v -0.164728 0.255484 1.062765
v -0.162117 0.254578 1.064258
v -0.186619 0.332054 1.120941
v -0.185521 0.326978 1.116749
v -0.181923 0.332456 1.115519
v -0.175871 0.339365 1.112509
v -0.173563 0.349928 1.112794
v -0.175482 0.335643 1.106603
v -0.181660 0.328648 1.110121
v -0.187349 0.321090 1.111828
v -0.171307 0.338758 1.097511
f 2 3 1
f 1 3 4
f 5 6 8
f 8 6 7
f 9 4 10
f 10 4 3
f 12 13 11
f 11 13 9
f 14 12 16
f 16 12 15
f 18 19 17
f 17 19 20
f 22 23 21
f 21 23 24
f 26 27 25
f 25 27 28
f 30 31 29
f 29 31 32
f 33 34 36
f 36 34 35
f 37 38 40
f 40 38 39
f 41 42 6
f 6 42 43
f 6 43 7
f 7 43 44
f 45 34 46
f 46 34 33
f 48 49 47
f 47 49 50
f 52 53 51
f 51 53 54
f 56 52 55
f 55 52 51
f 58 59 57
f 57 59 60
f 61 62 4
f 4 62 1
f 64 65 63
f 63 65 66
f 68 69 67
f 67 69 70
f 72 73 71
f 71 73 74
f 76 77 75
f 75 77 78
f 53 79 54
f 54 79 80
f 82 83 81
f 81 83 84
f 85 86 52
f 52 86 53
f 57 60 87
f 87 60 88
f 89 90 43
f 43 90 44
f 43 42 89
f 89 42 91
f 40 39 92
f 92 39 93
f 94 70 64
f 64 70 69
f 13 61 9
f 9 61 4
f 25 28 69
f 69 28 95
f 96 25 68
f 68 25 69
f 98 99 97
f 97 99 100
f 101 102 104
f 104 102 103
f 106 30 105
f 105 30 29
f 51 54 107
f 107 54 108
f 54 80 108
f 108 80 109
f 111 112 110
f 110 112 113
f 115 5 114
f 114 5 116
f 115 41 5
f 5 41 6
f 36 35 111
f 111 35 117
f 35 118 117
f 117 118 119
f 34 120 35
f 35 120 118
f 34 45 120
f 120 45 121
f 125 126 124
f 124 126 127
f 128 129 14
f 14 129 130
f 33 131 46
f 46 131 132
f 133 94 63
f 63 94 64
f 134 135 137
f 137 135 136
f 139 140 138
f 138 140 141
f 77 142 78
f 78 142 143
f 144 145 20
f 20 145 146
f 148 149 147
f 147 149 72
f 151 152 150
f 150 152 153
f 82 101 83
f 83 101 104
f 101 82 155
f 155 82 154
f 156 157 58
f 58 157 59
f 158 68 147
f 147 68 67
f 159 146 15
f 15 146 16
f 68 158 96
f 96 158 160
f 129 66 130
f 130 66 65
f 162 163 161
f 161 163 164
f 166 167 165
f 165 167 168
f 170 171 169
f 169 171 172
f 174 171 173
f 173 171 170
f 176 177 175
f 175 177 178
f 180 181 179
f 179 181 24
f 182 183 21
f 21 183 184
f 81 185 82
f 82 185 154
f 186 187 188
f 188 187 144
f 158 71 160
f 160 71 189
f 190 135 157
f 157 135 59
f 169 172 139
f 139 172 140
f 147 72 158
f 158 72 71
f 192 193 191
f 191 193 194
f 167 166 49
f 49 166 195
f 196 190 50
f 50 190 157
f 197 198 200
f 200 198 199
f 21 24 182
f 182 24 181
f 146 159 20
f 20 159 17
f 182 181 81
f 81 181 185
f 201 185 180
f 180 185 181
f 202 203 83
f 83 203 84
f 205 206 204
f 204 206 85
f 207 22 184
f 184 22 21
f 179 24 208
f 208 24 23
f 208 209 179
f 179 209 205
f 209 210 205
f 205 210 206
f 212 206 211
f 211 206 210
f 179 205 180
f 180 205 204
f 213 176 88
f 88 176 214
f 86 85 212
f 212 85 206
f 193 217 218
f 217 219 218
f 218 219 220
f 219 18 220
f 220 18 17
f 19 221 20
f 20 221 144
f 222 223 225
f 225 223 224
f 175 226 176
f 176 226 214
f 227 87 214
f 214 87 88
f 220 17 228
f 228 17 159
f 134 213 60
f 60 213 88
f 138 229 151
f 151 229 152
f 193 192 210
f 210 192 211
f 230 194 218
f 218 194 193
f 231 232 228
f 228 232 230
f 233 234 91
f 91 234 89
f 235 236 93
f 93 236 92
f 230 232 234
f 234 232 237
f 47 238 48
f 48 238 239
f 240 191 235
f 235 191 236
f 5 8 116
f 116 8 241
f 242 243 189
f 189 243 160
f 244 245 98
f 98 245 99
f 156 246 47
f 47 246 238
f 76 247 77
f 77 247 248
f 250 125 249
f 249 125 124
f 252 253 251
f 251 253 254
f 111 110 36
f 36 110 255
f 256 33 255
f 255 33 36
f 257 258 154
f 154 258 155
f 63 169 133
f 133 169 139
f 66 170 63
f 63 170 169
f 173 170 129
f 129 170 66
f 129 128 173
f 173 128 259
f 128 260 259
f 259 260 261
f 213 134 262
f 262 134 137
f 263 264 186
f 186 264 187
f 112 265 113
f 113 265 266
f 11 267 268
f 234 233 230
f 230 233 194
f 153 269 70
f 70 269 67
f 175 178 165
f 165 178 141
f 150 153 94
f 94 153 70
f 271 221 270
f 270 221 207
f 269 153 272
f 272 153 152
f 121 45 109
f 109 45 108
f 47 50 156
f 156 50 157
f 57 273 58
f 58 273 274
f 145 275 260
f 260 275 261
f 276 149 143
f 143 149 78
f 148 269 75
f 75 269 272
f 207 277 270
f 270 277 278
f 195 196 49
f 49 196 50
f 59 135 60
f 60 135 134
f 83 104 202
f 202 104 279
f 149 148 78
f 78 148 75
f 247 278 248
f 248 278 277
f 183 182 84
f 84 182 81
f 48 239 281
f 281 239 282
f 227 223 283
f 283 223 222
f 223 226 224
f 224 226 168
f 281 282 224
f 224 282 225
f 165 168 175
f 175 168 226
f 264 263 138
f 138 263 229
f 14 16 128
f 128 16 260
f 220 228 218
f 218 228 230
f 87 227 284
f 284 227 283
f 260 16 145
f 145 16 146
f 244 98 258
f 258 98 155
f 58 274 156
f 156 274 246
f 107 285 51
f 51 285 55
f 243 286 160
f 160 286 96
f 234 237 89
f 89 237 90
f 46 132 107
f 107 132 285
f 253 252 249
f 249 252 250
f 286 26 96
f 96 26 25
f 106 105 287
f 287 105 288
f 272 152 289
f 289 152 229
f 138 151 139
f 139 151 133
f 183 290 161
f 161 290 162
f 291 292 277
f 277 292 293
f 151 150 133
f 133 150 94
f 262 275 177
f 177 275 187
f 144 187 145
f 145 187 275
f 273 57 284
f 284 57 87
f 174 136 190
f 190 136 135
f 111 117 112
f 112 117 38
f 117 119 38
f 38 119 123
f 112 38 265
f 265 38 37
f 287 288 254
f 254 288 251
f 228 159 231
f 231 159 15
f 223 227 226
f 226 227 214
f 147 67 148
f 148 67 269
f 224 168 281
f 281 168 167
f 199 163 200
f 200 163 162
f 45 46 108
f 108 46 107
f 281 167 48
f 48 167 49
f 161 164 291
f 291 164 292
f 38 123 39
f 293 294 277
f 277 294 248
f 284 283 296
f 296 283 295
f 284 296 273
f 273 296 297
f 274 273 298
f 298 273 297
f 246 274 299
f 299 274 298
f 283 222 295
f 295 222 300
f 222 225 300
f 300 225 301
f 301 225 302
f 302 225 282
f 303 304 300
f 300 304 295
f 306 307 305
f 305 307 308
f 309 310 308
f 308 310 305
f 308 307 312
f 312 307 311
f 313 314 312
f 312 314 315
f 311 316 312
f 312 316 313
f 317 304 311
f 311 304 316
f 315 309 312
f 312 309 308
f 318 319 321
f 321 319 320
f 319 318 309
f 309 318 310
f 311 307 317
f 317 307 306
f 306 297 317
f 317 297 296
f 306 322 297
f 297 322 298
f 305 323 306
f 306 323 322
f 323 305 324
f 324 305 310
f 304 317 295
f 295 317 296
f 318 325 310
f 310 325 324
f 323 324 326
f 326 324 327
f 324 325 327
f 327 325 328
f 326 327 329
f 329 327 330
f 329 331 326
f 326 331 332
f 333 330 328
f 328 330 327
f 323 326 322
f 322 326 332
f 322 332 298
f 298 332 299
f 325 318 334
f 334 318 321
f 313 316 335
f 335 316 304
f 335 336 313
f 313 336 314
f 304 303 335
f 335 303 337
f 336 335 338
f 338 335 337
f 336 339 314
f 314 339 340
f 246 299 238
f 238 299 341
f 239 342 282
f 282 342 302
f 342 239 341
f 341 239 238
f 341 331 342
f 342 331 343
f 331 329 343
f 343 329 344
f 342 343 302
f 302 343 345
f 341 299 331
f 331 299 332
f 346 301 345
f 345 301 302
f 346 303 301
f 301 303 300
f 347 337 346
f 346 337 303
f 347 346 348
f 348 346 345
f 349 347 350
f 350 347 348
f 343 344 345
f 345 344 348
f 344 351 348
f 348 351 350
f 337 347 338
f 338 347 349
f 353 338 352
f 352 338 349
f 352 355 354
f 354 355 356
f 352 349 355
f 355 349 350
f 352 354 353
f 353 354 334
f 353 334 339
f 339 334 321
f 339 336 353
f 353 336 338
f 329 330 344
f 344 330 351
f 356 351 333
f 333 351 330
f 356 355 351
f 351 355 350
f 354 356 328
f 328 356 333
f 328 325 354
f 354 325 334
f 309 315 319
f 319 315 320
f 320 340 321
f 321 340 339
f 320 315 340
f 340 315 314
f 137 136 261
f 261 136 259
f 140 166 141
f 141 166 165
f 172 171 195
f 195 171 196
f 171 174 196
f 196 174 190
f 178 177 264
f 264 177 187
f 172 195 140
f 140 195 166
f 137 261 262
f 262 261 275
f 178 264 141
f 141 264 138
f 262 177 213
f 213 177 176
f 136 174 259
f 259 174 173
f 358 359 357
f 357 359 360
f 362 363 361
f 361 363 364
f 361 364 365
f 365 364 366
f 367 368 370
f 370 368 369
f 76 371 247
f 247 371 372
f 373 374 362
f 362 374 363
f 376 377 375
f 375 377 378
f 289 229 380
f 380 229 379
f 381 379 263
f 263 379 229
f 383 384 382
f 382 384 385
f 386 368 374
f 374 368 363
f 76 289 371
f 371 289 380
f 377 376 359
f 359 376 387
f 388 386 360
f 360 386 374
f 389 383 366
f 366 383 390
f 392 393 391
f 391 393 394
f 383 382 390
f 390 382 395
f 396 365 390
f 390 365 366
f 389 366 367
f 367 366 364
f 357 397 358
f 358 397 398
f 373 399 357
f 357 399 397
f 389 367 400
f 400 367 370
f 382 385 375
f 375 385 372
f 357 360 373
f 373 360 374
f 361 401 362
f 362 401 402
f 387 388 359
f 359 388 360
f 363 368 364
f 364 368 367
f 358 398 403
f 403 398 404
f 396 392 405
f 405 392 391
f 392 395 393
f 393 395 378
f 393 403 394
f 394 403 404
f 375 378 382
f 382 378 395
f 365 396 406
f 406 396 405
f 362 402 373
f 373 402 399
f 271 270 400
f 400 270 384
f 401 361 406
f 406 361 365
f 381 369 386
f 386 369 368
f 392 396 395
f 395 396 390
f 393 378 403
f 403 378 377
f 403 377 358
f 358 377 359
f 406 405 408
f 408 405 407
f 406 408 401
f 401 408 409
f 401 409 402
f 402 409 410
f 402 410 399
f 399 410 411
f 405 391 407
f 407 391 412
f 391 394 412
f 412 394 413
f 394 404 413
f 413 404 414
f 415 416 412
f 412 416 407
f 418 419 417
f 417 419 420
f 421 422 418
f 418 422 419
f 419 422 424
f 424 422 423
f 425 426 424
f 424 426 427
f 423 428 424
f 424 428 425
f 427 420 424
f 424 420 419
f 420 429 417
f 417 429 430
f 423 422 431
f 431 422 421
f 421 409 431
f 431 409 408
f 421 432 409
f 409 432 410
f 418 433 421
f 421 433 432
f 434 433 417
f 417 433 418
f 431 416 423
f 423 416 428
f 416 431 407
f 407 431 408
f 435 434 430
f 430 434 417
f 433 434 436
f 436 434 437
f 434 435 437
f 437 435 438
f 436 437 439
f 439 437 440
f 439 441 436
f 436 441 442
f 438 443 437
f 437 443 440
f 436 442 433
f 433 442 432
f 432 442 410
f 410 442 411
f 435 430 445
f 445 430 444
f 430 429 444
f 444 429 446
f 425 428 447
f 447 428 416
f 426 425 448
f 448 425 447
f 416 415 447
f 447 415 449
f 447 449 448
f 448 449 450
f 451 452 448
f 448 452 426
f 446 452 444
f 444 452 451
f 399 411 397
f 397 411 453
f 398 454 404
f 404 454 414
f 454 398 453
f 453 398 397
f 453 441 454
f 454 441 455
f 441 439 455
f 455 439 456
f 454 455 414
f 414 455 457
f 441 453 442
f 442 453 411
f 458 413 457
f 457 413 414
f 458 415 413
f 413 415 412
f 458 459 415
f 415 459 449
f 459 458 460
f 460 458 457
f 461 459 462
f 462 459 460
f 455 456 457
f 457 456 460
f 456 463 460
f 460 463 462
f 459 461 449
f 449 461 450
f 465 450 464
f 464 450 461
f 464 467 466
f 466 467 468
f 464 461 467
f 467 461 462
f 464 466 465
f 465 466 445
f 465 445 451
f 451 445 444
f 451 448 465
f 465 448 450
f 439 440 456
f 456 440 463
f 468 463 443
f 443 463 440
f 468 467 463
f 463 467 462
f 466 468 438
f 438 468 443
f 438 435 466
f 466 435 445
f 420 427 429
f 429 427 446
f 446 427 452
f 452 427 426
f 370 369 188
f 188 369 186
f 371 376 372
f 372 376 375
f 380 379 387
f 387 379 388
f 379 381 388
f 388 381 386
f 385 384 278
f 278 384 270
f 380 387 371
f 371 387 376
f 400 370 271
f 271 370 188
f 385 278 372
f 372 278 247
f 400 384 389
f 389 384 383
f 369 381 186
f 186 381 263
f 221 271 144
f 144 271 188
f 221 19 207
f 207 19 22
f 19 18 22
f 22 18 23
f 18 219 23
f 23 219 208
f 469 470 472
f 472 470 471
f 474 475 473
f 473 475 476
f 473 476 477
f 477 476 478
f 480 481 479
f 479 481 482
f 483 484 474
f 474 484 475
f 486 487 485
f 485 487 488
f 489 490 77
f 77 490 142
f 491 489 248
f 248 489 77
f 493 494 492
f 492 494 495
f 496 480 484
f 484 480 475
f 486 497 487
f 487 497 471
f 498 496 472
f 472 496 484
f 499 493 478
f 478 493 500
f 501 502 504
f 504 502 503
f 493 492 500
f 500 492 505
f 506 477 500
f 500 477 478
f 499 478 479
f 479 478 476
f 469 507 470
f 470 507 508
f 483 509 469
f 469 509 507
f 479 482 499
f 499 482 510
f 492 495 485
f 485 495 511
f 483 469 484
f 484 469 472
f 473 512 474
f 474 512 513
f 497 498 471
f 471 498 472
f 475 480 476
f 476 480 479
f 470 508 514
f 514 508 515
f 506 502 516
f 516 502 501
f 503 502 488
f 488 502 505
f 514 515 503
f 503 515 504
f 485 488 492
f 492 488 505
f 477 506 517
f 517 506 516
f 474 513 483
f 483 513 509
f 510 292 494
f 494 292 164
f 512 473 517
f 517 473 477
f 491 481 496
f 496 481 480
f 502 506 505
f 505 506 500
f 503 488 514
f 514 488 487
f 514 487 470
f 470 487 471
f 517 516 519
f 519 516 518
f 517 519 512
f 512 519 520
f 512 520 513
f 513 520 521
f 513 521 509
f 509 521 522
f 516 501 518
f 518 501 523
f 501 504 523
f 523 504 524
f 524 504 525
f 525 504 515
f 526 527 523
f 523 527 518
f 529 530 528
f 528 530 531
f 532 533 529
f 529 533 530
f 530 533 535
f 535 533 534
f 536 537 535
f 535 537 538
f 534 539 535
f 535 539 536
f 538 531 535
f 535 531 530
f 540 541 531
f 531 541 528
f 533 532 534
f 534 532 542
f 532 520 542
f 542 520 519
f 532 543 520
f 520 543 521
f 529 544 532
f 532 544 543
f 544 529 545
f 545 529 528
f 534 542 539
f 539 542 527
f 527 542 518
f 518 542 519
f 541 546 528
f 528 546 545
f 547 544 548
f 548 544 545
f 546 549 545
f 545 549 548
f 550 547 551
f 551 547 548
f 547 550 553
f 553 550 552
f 549 554 548
f 548 554 551
f 544 547 543
f 543 547 553
f 543 553 521
f 521 553 522
f 546 541 556
f 556 541 555
f 541 540 555
f 555 540 557
f 536 539 558
f 558 539 527
f 537 536 559
f 559 536 558
f 527 526 558
f 558 526 560
f 559 558 561
f 561 558 560
f 559 562 537
f 537 562 563
f 557 563 555
f 555 563 562
f 509 522 507
f 507 522 564
f 508 565 515
f 515 565 525
f 565 508 564
f 564 508 507
f 564 552 565
f 565 552 566
f 552 550 566
f 566 550 567
f 565 566 525
f 525 566 568
f 564 522 552
f 552 522 553
f 569 524 568
f 568 524 525
f 569 526 524
f 524 526 523
f 570 560 569
f 569 560 526
f 570 569 571
f 571 569 568
f 572 570 573
f 573 570 571
f 566 567 568
f 568 567 571
f 567 574 571
f 571 574 573
f 570 572 560
f 560 572 561
f 576 561 575
f 575 561 572
f 575 578 577
f 577 578 579
f 575 572 578
f 578 572 573
f 575 577 576
f 576 577 556
f 576 556 562
f 562 556 555
f 562 559 576
f 576 559 561
f 550 551 567
f 567 551 574
f 579 574 554
f 554 574 551
f 579 578 574
f 574 578 573
f 579 554 577
f 577 554 549
f 549 546 577
f 577 546 556
f 531 538 540
f 540 538 557
f 557 538 563
f 563 538 537
f 481 294 482
f 482 294 293
f 580 486 511
f 511 486 485
f 490 489 497
f 497 489 498
f 489 491 498
f 498 491 496
f 163 495 164
f 164 495 494
f 580 490 486
f 486 490 497
f 482 293 510
f 510 293 292
f 495 163 511
f 511 163 199
f 494 493 510
f 510 493 499
f 481 491 294
f 294 491 248
f 582 583 581
f 581 583 584
f 586 587 585
f 585 587 588
f 585 588 589
f 589 588 590
f 592 593 591
f 591 593 594
f 595 596 598
f 598 596 597
f 599 600 586
f 586 600 587
f 601 602 604
f 604 602 603
f 605 606 608
f 608 606 607
f 609 607 200
f 200 607 606
f 610 611 613
f 613 611 612
f 600 614 587
f 587 614 592
f 596 605 597
f 597 605 608
f 602 615 603
f 603 615 583
f 616 614 584
f 584 614 600
f 611 618 617
f 617 618 590
f 620 621 619
f 619 621 622
f 610 623 611
f 611 623 618
f 624 589 618
f 618 589 590
f 617 590 591
f 591 590 588
f 581 625 582
f 582 625 626
f 599 627 581
f 581 627 625
f 591 594 617
f 617 594 628
f 601 610 598
f 598 610 613
f 581 584 599
f 599 584 600
f 585 629 586
f 586 629 630
f 615 616 583
f 583 616 584
f 587 592 588
f 588 592 591
f 582 626 631
f 631 626 632
f 624 620 633
f 633 620 619
f 621 620 604
f 604 620 623
f 631 632 621
f 621 632 622
f 610 601 623
f 623 601 604
f 589 624 634
f 634 624 633
f 586 630 599
f 599 630 627
f 203 202 628
f 628 202 612
f 629 585 634
f 634 585 589
f 609 593 614
f 614 593 592
f 620 624 623
f 623 624 618
f 631 621 603
f 603 621 604
f 582 631 583
f 583 631 603
f 634 633 636
f 636 633 635
f 634 636 629
f 629 636 637
f 629 637 630
f 630 637 638
f 630 638 627
f 627 638 639
f 633 619 635
f 635 619 640
f 619 622 640
f 640 622 641
f 641 622 642
f 642 622 632
f 644 635 643
f 643 635 640
f 645 646 648
f 648 646 647
f 649 650 646
f 646 650 647
f 647 650 652
f 652 650 651
f 652 653 655
f 655 653 654
f 651 656 652
f 652 656 653
f 655 648 652
f 652 648 647
f 648 657 645
f 645 657 658
f 650 649 651
f 651 649 659
f 649 637 659
f 659 637 636
f 649 660 637
f 637 660 638
f 661 660 646
f 646 660 649
f 662 661 645
f 645 661 646
f 651 659 656
f 656 659 644
f 644 659 635
f 635 659 636
f 663 662 658
f 658 662 645
f 664 661 665
f 665 661 662
f 663 666 662
f 662 666 665
f 667 664 668
f 668 664 665
f 664 667 670
f 670 667 669
f 666 671 665
f 665 671 668
f 661 664 660
f 660 664 670
f 660 670 638
f 638 670 639
f 658 672 663
f 663 672 673
f 658 657 672
f 672 657 674
f 653 656 675
f 675 656 644
f 653 675 654
f 654 675 676
f 675 644 677
f 677 644 643
f 676 675 678
f 678 675 677
f 679 680 676
f 676 680 654
f 674 680 672
f 672 680 679
f 627 639 625
f 625 639 681
f 626 682 632
f 632 682 642
f 681 682 625
f 625 682 626
f 669 683 681
f 681 683 682
f 667 684 669
f 669 684 683
f 682 683 642
f 642 683 685
f 681 639 669
f 669 639 670
f 686 641 685
f 685 641 642
f 641 686 640
f 640 686 643
f 686 687 643
f 643 687 677
f 687 686 688
f 688 686 685
f 689 687 690
f 690 687 688
f 683 684 685
f 685 684 688
f 684 691 688
f 688 691 690
f 687 689 677
f 677 689 678
f 693 678 692
f 692 678 689
f 692 695 694
f 694 695 696
f 692 689 695
f 695 689 690
f 692 694 693
f 693 694 673
f 693 673 679
f 679 673 672
f 679 676 693
f 693 676 678
f 684 667 691
f 691 667 668
f 696 691 671
f 671 691 668
f 696 695 691
f 691 695 690
f 694 696 666
f 666 696 671
f 666 663 694
f 694 663 673
f 648 655 657
f 657 655 674
f 674 655 680
f 680 655 654
f 593 162 594
f 594 162 290
f 598 597 601
f 601 597 602
f 615 608 616
f 616 608 607
f 607 609 616
f 616 609 614
f 697 595 613
f 613 595 598
f 597 608 602
f 602 608 615
f 594 290 628
f 628 290 203
f 628 612 617
f 617 612 611
f 593 609 162
f 162 609 200
f 105 29 698
f 698 29 699
f 268 126 701
f 701 126 700
f 126 125 700
f 700 125 702
f 252 703 250
f 250 703 704
f 32 268 705
f 705 268 701
f 288 105 706
f 706 105 698
f 29 32 699
f 699 32 705
f 707 251 706
f 706 251 288
f 250 704 125
f 125 704 702
f 703 252 707
f 707 252 251
f 706 708 707
f 707 708 709
f 707 709 703
f 703 709 710
f 703 710 704
f 704 710 711
f 704 711 702
f 702 711 712
f 706 698 708
f 708 698 713
f 698 699 713
f 713 699 714
f 699 705 714
f 714 705 715
f 717 708 716
f 716 708 713
f 719 720 718
f 718 720 721
f 722 723 719
f 719 723 720
f 724 725 723
f 723 725 720
f 724 726 725
f 725 726 727
f 728 721 725
f 725 721 720
f 721 728 729
f 729 728 730
f 729 731 721
f 721 731 718
f 724 723 732
f 732 723 722
f 722 710 732
f 732 710 709
f 722 733 710
f 710 733 711
f 719 734 722
f 722 734 733
f 734 719 735
f 735 719 718
f 724 732 726
f 726 732 717
f 717 732 708
f 708 732 709
f 731 736 718
f 718 736 735
f 737 734 738
f 738 734 735
f 736 739 735
f 735 739 738
f 740 737 741
f 741 737 738
f 737 740 743
f 743 740 742
f 739 744 738
f 738 744 741
f 734 737 733
f 733 737 743
f 733 743 711
f 711 743 712
f 736 731 746
f 746 731 745
f 731 729 745
f 745 729 730
f 727 726 747
f 747 726 717
f 748 727 749
f 749 727 747
f 747 717 750
f 750 717 716
f 749 747 751
f 751 747 750
f 749 752 748
f 748 752 753
f 730 753 745
f 745 753 752
f 728 725 748
f 748 725 727
f 730 728 753
f 753 728 748
f 700 702 754
f 754 702 712
f 705 701 715
f 715 701 755
f 754 755 700
f 700 755 701
f 742 756 754
f 754 756 755
f 740 757 742
f 742 757 756
f 755 756 715
f 715 756 758
f 754 712 742
f 742 712 743
f 759 714 758
f 758 714 715
f 714 759 713
f 713 759 716
f 759 760 716
f 716 760 750
f 760 759 761
f 761 759 758
f 762 760 763
f 763 760 761
f 756 757 758
f 758 757 761
f 757 764 761
f 761 764 763
f 760 762 750
f 750 762 751
f 766 751 765
f 765 751 762
f 767 765 769
f 769 765 768
f 765 762 768
f 768 762 763
f 765 767 766
f 766 767 746
f 766 746 752
f 752 746 745
f 752 749 766
f 766 749 751
f 757 740 764
f 764 740 741
f 769 764 744
f 744 764 741
f 769 768 764
f 764 768 763
f 767 769 739
f 739 769 744
f 739 736 767
f 767 736 746
f 219 217 208
f 208 217 209
f 209 217 210
f 210 217 193
f 198 580 199
f 199 580 511
f 76 75 289
f 289 75 272
f 277 207 291
f 291 207 184
f 290 183 203
f 203 183 84
f 490 580 142
f 142 580 198
f 142 198 143
f 143 198 197
f 149 276 72
f 72 276 73
f 104 103 279
f 279 103 770
f 770 596 279
f 279 596 595
f 605 596 771
f 771 596 770
f 771 770 772
f 772 770 103
f 772 103 773
f 773 103 102
f 155 774 101
f 101 774 102
f 773 102 97
f 97 102 774
f 775 773 100
f 100 773 97
f 773 775 772
f 772 775 776
f 772 776 771
f 771 776 777
f 200 606 197
f 197 606 777
f 189 71 778
f 778 71 74
f 97 774 98
f 98 774 155
f 183 161 184
f 184 161 291
f 777 276 197
f 197 276 143
f 777 606 771
f 771 606 605
f 613 612 697
f 697 612 202
f 595 697 279
f 279 697 202
f 73 276 776
f 776 276 777
f 776 775 73
f 73 775 74
f 100 778 775
f 775 778 74
f 778 100 189
f 189 100 99
f 245 242 99
f 99 242 189
f 131 33 256
f 28 1 95
f 95 1 62
f 27 2 28
f 28 2 1
f 265 115 266
f 266 115 114
f 95 62 69
f 69 62 64
f 62 61 64
f 64 61 65
f 61 13 65
f 65 13 130
f 13 12 130
f 130 12 14
f 31 11 32
f 32 11 268
f 15 12 31
f 31 12 11
f 31 30 15
f 15 30 231
f 30 106 231
f 231 106 232
f 287 237 106
f 106 237 232
f 254 90 287
f 287 90 237
f 253 44 254
f 254 44 90
f 253 249 44
f 44 249 7
f 267 127 268
f 268 127 126
f 10 3 241
f 241 3 116
f 3 2 116
f 116 2 114
f 2 27 114
f 114 27 266
f 27 26 266
f 266 26 113
f 26 286 113
f 113 286 110
f 286 243 110
f 110 243 255
f 243 242 255
f 255 242 256
f 242 245 256
f 256 245 131
f 245 244 131
f 131 244 132
f 265 37 115
f 115 37 41
f 41 37 42
f 42 37 40
f 92 91 40
f 40 91 42
f 236 233 92
f 92 233 91
f 191 194 236
f 236 194 233
f 258 285 244
f 244 285 132
f 257 55 258
f 258 55 285
f 257 154 201
f 201 154 185
f 56 201 204
f 204 201 180
f 55 257 56
f 56 257 201
f 204 85 56
f 56 85 52
f 86 122 53
f 53 122 79
f 212 215 86
f 86 215 122
f 211 216 212
f 212 216 215
f 192 280 211
f 211 280 216
f 191 240 192
f 192 240 280
f 249 124 7
f 7 124 8
f 124 127 8
f 8 127 241
f 127 267 241
f 241 267 10
f 10 267 9
f 9 267 11
o hand_right
v 0.080412 0.233616 1.067315
v 0.076374 0.243361 1.066692
v 0.069810 0.234314 1.065547
v 0.074601 0.225465 1.065243
v 0.057105 0.253056 1.064283
v 0.050908 0.258048 1.054639
v 0.046038 0.242534 1.055461
v 0.051611 0.240990 1.064088
v 0.071296 0.218476 1.061795
v 0.065213 0.227125 1.064419
v 0.071278 0.216560 1.055891
v 0.081210 0.209341 1.051285
v 0.078479 0.211234 1.058399
v 0.087589 0.203278 1.051636
v 0.086537 0.215430 1.043057
v 0.096767 0.205255 1.048558
v 0.111054 0.231477 1.051602
v 0.118163 0.239362 1.060279
v 0.123327 0.223500 1.066594
v 0.114588 0.217269 1.057699
v 0.127624 0.239756 1.079612
v 0.125611 0.230050 1.072764
v 0.121597 0.245856 1.065762
v 0.123436 0.253716 1.072308
v 0.088761 0.246888 1.073515
v 0.085796 0.257108 1.072151
v 0.083351 0.252366 1.069242
v 0.085971 0.242874 1.070504
v 0.062418 0.217049 1.047551
v 0.069900 0.222811 1.040620
v 0.072461 0.217940 1.046936
v 0.062698 0.216524 1.053230
v 0.078384 0.285328 1.076345
v 0.079103 0.295961 1.067770
v 0.076493 0.293234 1.063173
v 0.076902 0.284005 1.071849
v 0.062413 0.278349 1.052768
v 0.067944 0.286349 1.048594
v 0.068684 0.287525 1.034618
v 0.065465 0.278197 1.036180
v 0.055995 0.268179 1.054585
v 0.057294 0.269105 1.040328
v 0.051423 0.258135 1.042707
v 0.045636 0.241947 1.045943
v 0.087353 0.301836 1.075910
v 0.087575 0.295034 1.083666
v 0.093525 0.162959 1.084415
v 0.095401 0.166075 1.089107
v 0.094394 0.169848 1.086050
v 0.092989 0.166216 1.081712
v 0.107586 0.300286 1.078696
v 0.115420 0.298838 1.072312
v 0.112959 0.305677 1.071214
v 0.104562 0.306565 1.075590
v 0.111513 0.291946 1.082773
v 0.118091 0.289113 1.073843
v 0.103655 0.157422 1.078800
v 0.098475 0.157562 1.079214
v 0.099306 0.160993 1.075314
v 0.104747 0.161523 1.075011
v 0.078924 0.216763 1.064366
v 0.082717 0.224465 1.069173
v 0.086273 0.200712 1.069727
v 0.086178 0.210926 1.069663
v 0.082708 0.208285 1.063618
v 0.084478 0.200057 1.063426
v 0.097645 0.227842 1.082550
v 0.094292 0.238415 1.078597
v 0.091590 0.233435 1.074978
v 0.093734 0.221099 1.078561
v 0.098554 0.247084 1.089192
v 0.101915 0.236015 1.091941
v 0.104033 0.242276 1.097624
v 0.100417 0.248993 1.095251
v 0.106740 0.216223 1.093315
v 0.108669 0.211093 1.094186
v 0.108756 0.212959 1.098105
v 0.107814 0.218982 1.095875
v 0.111192 0.312272 1.069121
v 0.101629 0.312107 1.071771
v 0.129785 0.255353 1.095199
v 0.124591 0.263252 1.101676
v 0.129944 0.252352 1.108944
v 0.134623 0.246522 1.099815
v 0.118762 0.293823 1.063686
v 0.118249 0.301705 1.063461
v 0.109014 0.159404 1.081375
v 0.109697 0.163657 1.078092
v 0.060570 0.257146 1.032729
v 0.051135 0.239786 1.037777
v 0.068565 0.269751 1.030125
v 0.074698 0.278320 1.028458
v 0.077003 0.286160 1.025865
v 0.090082 0.210197 1.075220
v 0.086692 0.232955 1.071346
v 0.090765 0.250263 1.076869
v 0.100204 0.264998 1.102763
v 0.096353 0.274254 1.099121
v 0.092309 0.265723 1.093740
v 0.097030 0.259386 1.097709
v 0.116916 0.264164 1.107983
v 0.109740 0.260064 1.108790
v 0.114065 0.252543 1.112220
v 0.121919 0.254936 1.112757
v 0.057578 0.218172 1.041694
v 0.066404 0.227742 1.035638
v 0.097596 0.299760 1.082545
v 0.094585 0.304775 1.077246
v 0.093827 0.311289 1.071737
v 0.080911 0.270728 1.073837
v 0.075727 0.283089 1.068818
v 0.073324 0.280348 1.066332
v 0.080570 0.268586 1.071445
v 0.070910 0.253972 1.067981
v 0.064211 0.265696 1.064915
v 0.064270 0.243480 1.068099
v 0.072593 0.291194 1.056297
v 0.074849 0.301932 1.057719
v 0.071422 0.298471 1.050163
v 0.080701 0.306233 1.064459
v 0.087217 0.309602 1.069686
v 0.119659 0.309749 1.060892
v 0.069811 0.294459 1.042826
v 0.048943 0.232122 1.063220
v 0.046657 0.224225 1.062479
v 0.053951 0.221791 1.063968
v 0.056630 0.228508 1.065089
v 0.093224 0.195292 1.053732
v 0.086705 0.196633 1.058315
v 0.082302 0.205523 1.056360
v 0.083368 0.278394 1.084355
v 0.090789 0.286978 1.090368
v 0.090463 0.199818 1.074996
v 0.105208 0.166175 1.071883
v 0.099342 0.165553 1.071782
v 0.096700 0.181628 1.061887
v 0.103556 0.181401 1.062087
v 0.099304 0.194149 1.078450
v 0.092976 0.195008 1.076469
v 0.095063 0.192611 1.077402
v 0.100559 0.191588 1.080802
v 0.111114 0.220574 1.103154
v 0.109866 0.225981 1.100969
v 0.115325 0.203884 1.066459
v 0.109952 0.200886 1.053999
v 0.106578 0.211458 1.049986
v 0.100132 0.233162 1.087324
v 0.103495 0.224175 1.091386
v 0.105117 0.226886 1.094228
v 0.093331 0.208355 1.078316
v 0.095012 0.200623 1.078940
v 0.097662 0.205516 1.080663
v 0.096135 0.212628 1.080824
v 0.120720 0.274196 1.094655
v 0.111909 0.275281 1.102419
v 0.094757 0.159740 1.081062
v 0.094838 0.163028 1.077669
v 0.096764 0.243405 1.083345
v 0.102516 0.225030 1.046130
v 0.092536 0.253784 1.080797
v 0.129299 0.227445 1.098313
v 0.124305 0.228291 1.105173
v 0.122784 0.223240 1.107501
v 0.126841 0.220317 1.103736
v 0.103883 0.177957 1.088120
v 0.098148 0.176803 1.087834
v 0.098810 0.172558 1.089742
v 0.104530 0.173335 1.090282
v 0.089084 0.194081 1.072101
v 0.087021 0.192738 1.066000
v 0.089151 0.187231 1.069683
v 0.091692 0.189943 1.074425
v 0.090112 0.189442 1.061057
v 0.091447 0.184034 1.064601
v 0.109558 0.176475 1.085002
v 0.112565 0.172501 1.079155
v 0.111486 0.186824 1.071737
v 0.107385 0.188402 1.078627
v 0.120838 0.266863 1.064721
v 0.122352 0.273756 1.073534
v 0.125226 0.260862 1.081286
v 0.129611 0.248276 1.088897
v 0.132393 0.235668 1.095374
v 0.132122 0.228077 1.085665
v 0.125254 0.266952 1.087029
v 0.106397 0.198130 1.076406
v 0.110885 0.195910 1.067368
v 0.111233 0.198955 1.072454
v 0.093744 0.257585 1.087208
v 0.094597 0.167324 1.074051
v 0.097936 0.279601 1.028721
v 0.108318 0.284114 1.036002
v 0.107712 0.275597 1.038180
v 0.095460 0.270585 1.030577
v 0.093121 0.174144 1.083935
v 0.091479 0.170498 1.078792
v 0.112418 0.228914 1.106586
v 0.113625 0.223256 1.107600
v 0.116688 0.223389 1.109752
v 0.115374 0.229011 1.111758
v 0.121931 0.278334 1.077529
v 0.129738 0.243823 1.114038
v 0.134328 0.239353 1.105357
v 0.119879 0.284678 1.066431
v 0.119129 0.278850 1.058460
v 0.118171 0.287758 1.054416
v 0.126221 0.214817 1.080814
v 0.119205 0.259972 1.059514
v 0.116960 0.273223 1.053573
v 0.115725 0.283610 1.048495
v 0.115704 0.291325 1.045164
v 0.118268 0.295079 1.052046
v 0.110145 0.168729 1.075281
v 0.112594 0.167350 1.082850
v 0.119946 0.303496 1.048931
v 0.116384 0.298930 1.041553
v 0.113183 0.267239 1.047537
v 0.107038 0.260337 1.040854
v 0.115273 0.254652 1.053643
v 0.109602 0.246681 1.047343
v 0.126678 0.210518 1.070489
v 0.110459 0.157453 1.096974
v 0.110498 0.166458 1.090662
v 0.105640 0.168883 1.093000
v 0.107887 0.160040 1.099382
v 0.109806 0.171628 1.087783
v 0.111974 0.163180 1.086073
v 0.098267 0.239385 1.040509
v 0.099802 0.200118 1.081100
v 0.091728 0.254120 1.033674
v 0.084843 0.227777 1.036359
v 0.078206 0.239187 1.032686
v 0.082899 0.268398 1.026741
v 0.073413 0.254530 1.028135
v 0.087717 0.285278 1.023789
v 0.086813 0.276862 1.025880
v 0.063331 0.241172 1.031537
v 0.094699 0.157252 1.093982
v 0.097506 0.160848 1.097500
v 0.098708 0.287428 1.025905
v 0.059815 0.234761 1.066572
v 0.087964 0.266053 1.083241
v 0.087456 0.262750 1.078565
v 0.094077 0.279448 1.095987
v 0.088360 0.271250 1.089449
v 0.095137 0.153472 1.090214
v 0.111853 0.208621 1.095421
v 0.111345 0.210298 1.095976
v 0.043375 0.233518 1.056586
v 0.041752 0.226327 1.056868
v 0.044146 0.221802 1.044525
v 0.040525 0.224423 1.050266
v 0.042579 0.232674 1.047870
v 0.046518 0.230268 1.041451
v 0.081246 0.272103 1.076150
v 0.082266 0.273941 1.079553
v 0.115836 0.283837 1.088673
v 0.107112 0.284016 1.096453
v 0.095956 0.188471 1.058017
v 0.101784 0.195954 1.052765
v 0.103094 0.188996 1.058009
v 0.109174 0.184868 1.064700
v 0.102546 0.197252 1.080214
v 0.105367 0.194270 1.075923
v 0.069256 0.273418 1.065898
v 0.077414 0.262803 1.069106
v 0.062542 0.223255 1.062241
v 0.060253 0.218569 1.060646
v 0.099368 0.219165 1.084728
v 0.121387 0.205602 1.086614
v 0.121012 0.202399 1.077938
v 0.102212 0.210867 1.086297
v 0.102419 0.149621 1.088202
v 0.097587 0.150997 1.088679
v 0.109022 0.192135 1.060050
v 0.106822 0.232761 1.100294
v 0.122584 0.211831 1.088560
v 0.118105 0.206732 1.092962
v 0.122761 0.249164 1.115627
v 0.108198 0.292485 1.032825
v 0.099960 0.168564 1.093107
v 0.101774 0.162680 1.099592
v 0.111164 0.154926 1.093499
v 0.108359 0.151792 1.089229
v 0.101559 0.291059 1.089902
v 0.087150 0.260139 1.075688
v 0.055995 0.230057 1.035918
v 0.050844 0.220098 1.041235
v 0.104095 0.206900 1.086605
v 0.130089 0.232448 1.102944
v 0.130047 0.220256 1.092059
v 0.127335 0.212834 1.098602
v 0.121913 0.207836 1.096167
v 0.114883 0.206715 1.096738
v 0.110431 0.151840 1.098041
v 0.107608 0.148342 1.093991
v 0.101764 0.146149 1.093197
v 0.097251 0.147665 1.093315
v 0.094912 0.151447 1.094100
v 0.109771 0.154413 1.101604
v 0.107244 0.156752 1.103531
v 0.101948 0.160234 1.102319
v 0.108548 0.152547 1.105837
v 0.108939 0.147399 1.104981
v 0.097670 0.139608 1.105499
v 0.100834 0.141492 1.100860
v 0.101884 0.140766 1.103264
v 0.100131 0.138919 1.107551
v 0.099823 0.137015 1.112348
v 0.096694 0.137475 1.110651
v 0.105632 0.143456 1.102705
v 0.103995 0.141115 1.108764
v 0.106355 0.144057 1.110746
v 0.105469 0.141350 1.115465
v 0.103457 0.138469 1.113837
v 0.107479 0.145227 1.106429
v 0.106466 0.144229 1.100672
v 0.097631 0.136897 1.115160
v 0.100109 0.136236 1.115152
v 0.102711 0.137703 1.116724
v 0.100699 0.138143 1.119040
v 0.096519 0.144846 1.097908
v 0.095403 0.140916 1.105437
v 0.094931 0.140021 1.111414
v 0.096096 0.139226 1.115811
v 0.093934 0.144010 1.107708
v 0.094448 0.142781 1.112396
v 0.095603 0.142513 1.116296
v 0.094153 0.147478 1.110244
v 0.094966 0.145548 1.113953
v 0.094570 0.153089 1.099508
v 0.094481 0.149498 1.097203
v 0.095303 0.144650 1.116420
v 0.099679 0.140025 1.119770
v 0.107380 0.147616 1.110914
v 0.105163 0.144396 1.116713
v 0.106642 0.149740 1.111713
v 0.104812 0.146630 1.117596
v 0.104165 0.141538 1.119914
v 0.104364 0.140002 1.117791
v 0.095128 0.156065 1.096353
v 0.098219 0.159628 1.099936
v 0.097796 0.157313 1.102716
v 0.096589 0.150971 1.112481
v 0.101398 0.158171 1.105270
v 0.106063 0.154869 1.107522
v 0.104625 0.151256 1.113255
v 0.101378 0.152333 1.113699
v 0.102931 0.148443 1.117472
v 0.100467 0.149058 1.116879
v 0.096879 0.148057 1.115871
v 0.100960 0.145693 1.119721
v 0.102996 0.143513 1.120273
v 0.098231 0.143104 1.119226
v 0.099779 0.147001 1.118734
v 0.097485 0.145285 1.117795
v 0.091967 0.186349 1.109494
v 0.094785 0.190672 1.113242
v 0.096762 0.191970 1.108664
v 0.094225 0.188195 1.105617
v 0.100007 0.174921 1.108796
v 0.094705 0.178103 1.107462
v 0.097405 0.178926 1.102941
v 0.103864 0.176364 1.104636
v 0.106197 0.176647 1.112148
v 0.109721 0.178742 1.107854
v 0.106642 0.178485 1.099944
v 0.100145 0.181247 1.098204
v 0.105869 0.193952 1.082302
v 0.112248 0.191935 1.082919
v 0.106993 0.207205 1.094462
v 0.110246 0.206467 1.096287
v 0.092301 0.182571 1.108077
v 0.094760 0.183591 1.103706
v 0.105426 0.196631 1.110776
v 0.100418 0.196723 1.108264
v 0.099731 0.194333 1.111887
v 0.104674 0.193666 1.114285
v 0.101414 0.200270 1.085419
v 0.104363 0.204034 1.089710
v 0.102487 0.197056 1.083603
v 0.110949 0.192867 1.111391
v 0.114442 0.187168 1.109431
v 0.120529 0.198066 1.093534
v 0.117536 0.202181 1.097291
v 0.096327 0.185240 1.098955
v 0.096619 0.193900 1.104898
v 0.094846 0.190188 1.101460
v 0.112314 0.181621 1.103748
v 0.111646 0.184359 1.113605
v 0.100325 0.183308 1.129110
v 0.106430 0.187690 1.119551
v 0.102621 0.191260 1.118894
v 0.097063 0.187265 1.129716
v 0.108940 0.190093 1.115332
v 0.108235 0.182331 1.117384
v 0.085091 0.184108 1.123370
v 0.088263 0.188253 1.126862
v 0.084910 0.179837 1.121673
v 0.118140 0.193947 1.086903
v 0.092677 0.172969 1.120246
v 0.087027 0.176349 1.120234
v 0.098334 0.192781 1.116555
v 0.092533 0.189184 1.129261
v 0.101372 0.179119 1.127341
v 0.099248 0.174221 1.122380
v 0.097934 0.177738 1.131714
v 0.095340 0.173229 1.127896
v 0.088783 0.172079 1.125518
v 0.084178 0.175770 1.124828
v 0.082884 0.179538 1.125290
v 0.097231 0.181761 1.133569
v 0.094465 0.185819 1.134112
v 0.090608 0.188266 1.131572
v 0.092872 0.181993 1.139194
v 0.092721 0.177458 1.138918
v 0.074969 0.173526 1.142459
v 0.078650 0.172899 1.137692
v 0.080523 0.172354 1.139519
v 0.077265 0.172794 1.143996
v 0.083641 0.171302 1.133970
v 0.084108 0.171701 1.136556
v 0.088361 0.173228 1.137724
v 0.084203 0.174097 1.142197
v 0.087471 0.177466 1.143691
v 0.084339 0.177290 1.148538
v 0.081084 0.173795 1.147331
v 0.089824 0.175818 1.140299
v 0.076010 0.173427 1.147364
v 0.073897 0.174947 1.147872
v 0.090296 0.172446 1.135254
v 0.081909 0.174575 1.128859
v 0.076688 0.175060 1.136594
v 0.073300 0.176374 1.142236
v 0.073324 0.177964 1.148299
v 0.075705 0.179184 1.136997
v 0.073232 0.179611 1.142679
v 0.073858 0.180631 1.147659
v 0.076430 0.183757 1.138211
v 0.074543 0.183499 1.143882
v 0.082170 0.183844 1.128638
v 0.080903 0.179287 1.127785
v 0.074518 0.182685 1.146489
v 0.077031 0.175799 1.151602
v 0.075823 0.179014 1.151600
v 0.078224 0.174749 1.150509
v 0.088442 0.179324 1.144156
v 0.084295 0.179500 1.149135
v 0.088376 0.182145 1.144572
v 0.083691 0.181787 1.149852
v 0.080903 0.178611 1.152330
v 0.080966 0.176955 1.151696
v 0.083961 0.183684 1.126375
v 0.087240 0.187433 1.129025
v 0.085688 0.187661 1.130938
v 0.080030 0.186923 1.140470
v 0.089478 0.188289 1.133865
v 0.091769 0.185382 1.138089
v 0.087497 0.184809 1.143914
v 0.084268 0.187010 1.142814
v 0.083408 0.184000 1.149627
v 0.082052 0.185846 1.147174
v 0.077597 0.185910 1.145203
v 0.079741 0.182617 1.152179
v 0.080322 0.180303 1.152682
v 0.075785 0.181099 1.150606
v 0.079478 0.184599 1.149865
v 0.076171 0.183611 1.148502
v 0.101122 0.202011 1.120922
v 0.103668 0.206556 1.123466
v 0.105095 0.207822 1.120061
v 0.102834 0.203315 1.117340
v 0.109446 0.191852 1.120995
v 0.104657 0.193418 1.120268
v 0.106650 0.194441 1.116009
v 0.112110 0.193000 1.115662
v 0.113591 0.193077 1.124902
v 0.117606 0.194827 1.118429
v 0.114759 0.194455 1.110892
v 0.108691 0.195769 1.111811
v 0.113282 0.204422 1.100181
v 0.119775 0.202853 1.100660
v 0.102054 0.197420 1.120247
v 0.103657 0.198572 1.116532
v 0.113202 0.211150 1.122473
v 0.108627 0.211111 1.120637
v 0.109100 0.209798 1.123205
v 0.113052 0.209161 1.124815
v 0.108172 0.213254 1.102124
v 0.111048 0.217602 1.105232
v 0.109116 0.208421 1.101251
v 0.118851 0.207554 1.122361
v 0.122502 0.202021 1.119009
v 0.125758 0.212271 1.109759
v 0.122002 0.216891 1.111579
v 0.105067 0.199489 1.112922
v 0.104878 0.209101 1.117249
v 0.103114 0.204483 1.114509
v 0.119940 0.197152 1.113793
v 0.119747 0.199850 1.123187
v 0.108884 0.198324 1.142417
v 0.116137 0.203602 1.128792
v 0.111776 0.207730 1.128111
v 0.106579 0.202210 1.142481
v 0.117654 0.205490 1.125758
v 0.117173 0.197904 1.127501
v 0.094787 0.199550 1.135620
v 0.098129 0.203436 1.137770
v 0.095613 0.195565 1.133686
v 0.125385 0.205829 1.104252
v 0.116311 0.219934 1.110393
v 0.100359 0.189713 1.134875
v 0.097064 0.192421 1.133699
v 0.107895 0.208477 1.126203
v 0.102799 0.204474 1.140817
v 0.109278 0.193912 1.140317
v 0.106183 0.189897 1.136669
v 0.106413 0.193692 1.145223
v 0.103105 0.189724 1.141689
v 0.097506 0.189142 1.139754
v 0.094476 0.192105 1.138271
v 0.093214 0.195394 1.137952
v 0.105971 0.198209 1.147051
v 0.103887 0.201630 1.146683
v 0.101453 0.203773 1.142535
v 0.103278 0.198901 1.150763
v 0.102161 0.193529 1.151303
v 0.085955 0.191660 1.155745
v 0.089198 0.191152 1.150900
v 0.090161 0.190972 1.151691
v 0.087226 0.191024 1.156774
v 0.094051 0.189347 1.146544
v 0.093972 0.189659 1.148572
v 0.097634 0.190236 1.149823
v 0.094153 0.191129 1.155212
v 0.097931 0.195690 1.156491
v 0.094531 0.195632 1.160467
v 0.091041 0.191265 1.159781
v 0.100254 0.193121 1.152180
v 0.086370 0.191586 1.159875
v 0.084413 0.191358 1.159732
v 0.099150 0.189706 1.147941
v 0.091396 0.191542 1.143011
v 0.087192 0.192694 1.149356
v 0.083658 0.193371 1.154173
v 0.083049 0.194582 1.158445
v 0.086559 0.196421 1.148609
v 0.083876 0.196506 1.153435
v 0.083305 0.197472 1.157317
v 0.087327 0.199661 1.148839
v 0.085185 0.199529 1.153363
v 0.092584 0.199228 1.140404
v 0.091188 0.195257 1.141074
v 0.084468 0.199329 1.156499
v 0.087347 0.193129 1.163167
v 0.086000 0.197145 1.162580
v 0.088523 0.192603 1.161969
v 0.099070 0.197176 1.156305
v 0.094914 0.197753 1.161544
v 0.099027 0.200006 1.155768
v 0.094767 0.200476 1.160944
v 0.091532 0.196269 1.163828
v 0.091624 0.195278 1.163085
v 0.094248 0.199371 1.138123
v 0.097479 0.202907 1.139871
v 0.095715 0.202717 1.141837
v 0.089949 0.203095 1.150709
v 0.099568 0.203881 1.144458
v 0.101237 0.202019 1.150080
v 0.097083 0.202425 1.154604
v 0.093815 0.203834 1.153187
v 0.093441 0.202446 1.159384
v 0.091881 0.203084 1.157026
v 0.087481 0.202645 1.154843
v 0.090013 0.200956 1.161266
v 0.090969 0.198977 1.163334
v 0.085688 0.199595 1.160509
v 0.089272 0.202192 1.159162
v 0.086053 0.201106 1.158443
v 0.113509 0.219886 1.108220
v 0.106975 0.217977 1.129924
v 0.108693 0.221323 1.132148
v 0.109486 0.221855 1.131192
v 0.107519 0.219296 1.128127
v 0.114855 0.210019 1.127253
v 0.110284 0.211349 1.127352
v 0.111866 0.212404 1.123702
v 0.116227 0.211122 1.123739
v 0.119352 0.211703 1.129351
v 0.120294 0.213136 1.126645
v 0.117576 0.213968 1.120811
v 0.113011 0.215342 1.120299
v 0.120154 0.226596 1.108688
v 0.125821 0.227436 1.108726
v 0.121690 0.243364 1.118992
v 0.116453 0.243517 1.116720
v 0.115990 0.237088 1.123141
v 0.120837 0.237588 1.124190
v 0.107774 0.214423 1.128302
v 0.108354 0.215808 1.125096
v 0.118078 0.225383 1.133995
v 0.113349 0.225606 1.132542
v 0.112224 0.224142 1.133422
v 0.116358 0.224539 1.135484
v 0.113677 0.239552 1.114425
v 0.113916 0.235063 1.112080
v 0.112532 0.232698 1.115520
v 0.112901 0.234264 1.120599
v 0.114410 0.228519 1.112687
v 0.121758 0.223106 1.132880
v 0.123989 0.218958 1.129063
v 0.129773 0.234902 1.119573
v 0.126096 0.237286 1.122289
v 0.109500 0.217237 1.122859
v 0.110139 0.223966 1.129418
v 0.108381 0.220824 1.126964
v 0.122042 0.215179 1.124105
v 0.122104 0.217439 1.131264
v 0.116858 0.218270 1.142918
v 0.119818 0.221410 1.136558
v 0.115693 0.224250 1.136731
v 0.114610 0.220735 1.142772
v 0.119988 0.221806 1.134922
v 0.121220 0.216210 1.134141
v 0.104477 0.216712 1.135866
v 0.107536 0.220468 1.138593
v 0.104622 0.213469 1.134561
v 0.129786 0.230580 1.112604
v 0.110221 0.208239 1.134860
v 0.106191 0.210279 1.134570
v 0.111505 0.223433 1.134654
v 0.111168 0.221802 1.141174
v 0.117781 0.213785 1.141204
v 0.115736 0.209353 1.136935
v 0.114730 0.212578 1.144938
v 0.112633 0.208481 1.140533
v 0.106715 0.208498 1.138021
v 0.104367 0.211400 1.136649
v 0.103423 0.214515 1.136479
v 0.114426 0.217518 1.146115
v 0.112921 0.220139 1.145391
v 0.110250 0.221508 1.142765
v 0.111763 0.216882 1.149204
v 0.109636 0.212481 1.149068
v 0.096201 0.214339 1.149119
v 0.098610 0.213133 1.145791
v 0.099326 0.212604 1.146651
v 0.096512 0.213416 1.149679
v 0.102542 0.210484 1.142700
v 0.102491 0.210709 1.144540
v 0.106016 0.210179 1.145693
v 0.102392 0.211557 1.149597
v 0.105816 0.214342 1.152841
v 0.102589 0.215033 1.155527
v 0.099926 0.212228 1.152579
v 0.107814 0.211924 1.149362
v 0.095468 0.213439 1.152342
v 0.094286 0.214204 1.152682
v 0.107626 0.209026 1.144330
v 0.101297 0.213182 1.139778
v 0.097069 0.215149 1.145039
v 0.094414 0.216075 1.149448
v 0.093926 0.216499 1.153345
v 0.097536 0.217504 1.144100
v 0.094371 0.218415 1.149151
v 0.094116 0.218808 1.152901
v 0.099037 0.220552 1.144312
v 0.095942 0.220550 1.149164
v 0.103163 0.219628 1.139419
v 0.101438 0.216487 1.139036
v 0.095278 0.220005 1.152207
v 0.096489 0.214200 1.156026
v 0.095875 0.217194 1.156048
v 0.097628 0.213120 1.155437
v 0.106709 0.215424 1.153227
v 0.102817 0.216452 1.156474
v 0.107416 0.217837 1.153243
v 0.102642 0.218657 1.156369
v 0.099398 0.215940 1.157534
v 0.099968 0.214429 1.156423
v 0.103911 0.218301 1.137890
v 0.106655 0.220517 1.139769
v 0.106232 0.221653 1.141734
v 0.102091 0.222649 1.146352
v 0.109761 0.221891 1.144928
v 0.111603 0.219820 1.147791
v 0.106917 0.220382 1.152184
v 0.105211 0.222500 1.149996
v 0.101778 0.220521 1.155501
v 0.100704 0.222286 1.153194
v 0.098412 0.222439 1.150663
v 0.098058 0.219629 1.156127
v 0.098449 0.218134 1.157275
v 0.095958 0.219143 1.155204
v 0.097901 0.220945 1.154664
v 0.096617 0.220733 1.153575
v 0.125302 0.241177 1.119106
v 0.052417 0.206379 1.048612
v 0.056079 0.206748 1.052986
v 0.046835 0.211690 1.065921
v 0.053101 0.208830 1.063935
v 0.040367 0.212813 1.063548
v 0.036478 0.211965 1.053140
v 0.037295 0.213743 1.058539
v 0.056378 0.207139 1.059047
v 0.046978 0.207551 1.046001
v 0.040109 0.210071 1.047340
v 0.045951 0.198317 1.047477
v 0.038057 0.200795 1.049204
v 0.033699 0.202748 1.054651
v 0.035377 0.206885 1.061006
v 0.038271 0.208007 1.065222
v 0.052258 0.200399 1.051506
v 0.055429 0.201825 1.055860
v 0.055048 0.204227 1.062092
v 0.053252 0.194072 1.056842
v 0.047349 0.186723 1.060522
v 0.034469 0.183109 1.075322
v 0.034523 0.188816 1.071277
v 0.035707 0.186735 1.069709
v 0.035117 0.181553 1.073287
v 0.035052 0.191144 1.065943
v 0.036585 0.189278 1.066084
v 0.040547 0.188134 1.062673
v 0.040164 0.183473 1.066430
v 0.045416 0.186195 1.062667
v 0.046358 0.183143 1.065778
v 0.039908 0.178779 1.069856
v 0.035841 0.177559 1.074070
v 0.039721 0.175001 1.072995
v 0.036022 0.178180 1.077235
v 0.039369 0.187542 1.059628
v 0.034027 0.198099 1.066265
v 0.034551 0.192109 1.072957
v 0.035548 0.185719 1.077864
v 0.037673 0.179948 1.079512
v 0.037249 0.194789 1.075397
v 0.038846 0.188461 1.079049
v 0.041397 0.183275 1.080154
v 0.042039 0.195935 1.076419
v 0.042830 0.189432 1.078878
v 0.043511 0.205688 1.069232
v 0.037173 0.203722 1.068409
v 0.043382 0.185240 1.079413
v 0.040608 0.174070 1.075688
v 0.042537 0.176163 1.078067
v 0.049700 0.184002 1.065211
v 0.046160 0.178411 1.068671
v 0.048938 0.179306 1.069605
v 0.052797 0.186624 1.065668
v 0.050988 0.180767 1.071022
v 0.046172 0.175255 1.072894
v 0.043993 0.175552 1.070988
v 0.044297 0.208562 1.067454
v 0.050711 0.207190 1.065836
v 0.049989 0.204783 1.067344
v 0.048605 0.195439 1.074481
v 0.054569 0.201436 1.064748
v 0.055398 0.197212 1.060332
v 0.054278 0.189228 1.068004
v 0.053114 0.192682 1.071205
v 0.051479 0.183603 1.073299
v 0.050496 0.186059 1.074934
v 0.047070 0.188331 1.077732
v 0.048421 0.180388 1.076374
v 0.048044 0.177154 1.074770
v 0.044767 0.180236 1.078959
v 0.048402 0.183151 1.076673
v 0.045880 0.183706 1.078532
v 0.115333 0.248024 1.113848
v 0.111498 0.243306 1.110717
v 0.109543 0.248987 1.109232
v 0.104869 0.256579 1.106399
v 0.105631 0.267149 1.105394
v 0.102082 0.252418 1.101307
v 0.106834 0.244680 1.104650
v 0.109891 0.236441 1.106586
v 0.097001 0.255381 1.092718
f 780 781 779
f 779 781 782
f 783 784 786
f 786 784 785
f 787 782 788
f 788 782 781
f 790 791 789
f 789 791 787
f 792 790 794
f 794 790 793
f 796 797 795
f 795 797 798
f 800 801 799
f 799 801 802
f 804 805 803
f 803 805 806
f 808 809 807
f 807 809 810
f 811 812 814
f 814 812 813
f 815 816 818
f 818 816 817
f 819 820 784
f 784 820 821
f 784 821 785
f 785 821 822
f 823 812 824
f 824 812 811
f 826 827 825
f 825 827 828
f 830 831 829
f 829 831 832
f 834 830 833
f 833 830 829
f 836 837 835
f 835 837 838
f 839 840 782
f 782 840 779
f 842 843 841
f 841 843 844
f 846 847 845
f 845 847 848
f 850 851 849
f 849 851 852
f 854 855 853
f 853 855 856
f 831 857 832
f 832 857 858
f 860 861 859
f 859 861 862
f 863 864 830
f 830 864 831
f 835 838 865
f 865 838 866
f 867 868 821
f 821 868 822
f 821 820 867
f 867 820 869
f 818 817 870
f 870 817 871
f 872 848 842
f 842 848 847
f 791 839 787
f 787 839 782
f 803 806 847
f 847 806 873
f 874 803 846
f 846 803 847
f 876 877 875
f 875 877 878
f 879 880 882
f 882 880 881
f 884 808 883
f 883 808 807
f 829 832 885
f 885 832 886
f 832 858 886
f 886 858 887
f 889 890 888
f 888 890 891
f 893 783 892
f 892 783 894
f 893 819 783
f 783 819 784
f 814 813 889
f 889 813 895
f 813 896 895
f 895 896 897
f 812 898 813
f 813 898 896
f 812 823 898
f 898 823 899
f 903 904 902
f 902 904 905
f 906 907 792
f 792 907 908
f 811 909 824
f 824 909 910
f 911 872 841
f 841 872 842
f 912 913 915
f 915 913 914
f 917 918 916
f 916 918 919
f 855 920 856
f 856 920 921
f 922 923 798
f 798 923 924
f 926 927 925
f 925 927 850
f 929 930 928
f 928 930 931
f 860 879 861
f 861 879 882
f 879 860 933
f 933 860 932
f 934 935 836
f 836 935 837
f 936 846 925
f 925 846 845
f 937 924 793
f 793 924 794
f 846 936 874
f 874 936 938
f 907 844 908
f 908 844 843
f 940 941 939
f 939 941 942
f 944 945 943
f 943 945 946
f 948 949 947
f 947 949 950
f 952 949 951
f 951 949 948
f 954 955 953
f 953 955 956
f 958 959 957
f 957 959 802
f 960 961 799
f 799 961 962
f 859 963 860
f 860 963 932
f 964 965 966
f 966 965 922
f 936 849 938
f 938 849 967
f 968 913 935
f 935 913 837
f 947 950 917
f 917 950 918
f 925 850 936
f 936 850 849
f 970 971 969
f 969 971 972
f 945 944 827
f 827 944 973
f 974 968 828
f 828 968 935
f 975 976 978
f 978 976 977
f 799 802 960
f 960 802 959
f 924 937 798
f 798 937 795
f 960 959 859
f 859 959 963
f 979 963 958
f 958 963 959
f 980 981 861
f 861 981 862
f 983 984 982
f 982 984 863
f 985 800 962
f 962 800 799
f 957 802 986
f 986 802 801
f 986 987 957
f 957 987 983
f 987 988 983
f 983 988 984
f 990 984 989
f 989 984 988
f 957 983 958
f 958 983 982
f 991 954 866
f 866 954 992
f 864 863 990
f 990 863 984
f 971 995 996
f 995 997 996
f 996 997 998
f 997 796 998
f 998 796 795
f 797 999 798
f 798 999 922
f 1000 1001 1003
f 1003 1001 1002
f 953 1004 954
f 954 1004 992
f 1005 865 992
f 992 865 866
f 998 795 1006
f 1006 795 937
f 912 991 838
f 838 991 866
f 916 1007 929
f 929 1007 930
f 971 970 988
f 988 970 989
f 1008 972 996
f 996 972 971
f 1009 1010 1006
f 1006 1010 1008
f 1011 1012 869
f 869 1012 867
f 1013 1014 871
f 871 1014 870
f 1008 1010 1012
f 1012 1010 1015
f 825 1016 826
f 826 1016 1017
f 1018 969 1013
f 1013 969 1014
f 783 786 894
f 894 786 1019
f 1020 1021 967
f 967 1021 938
f 1022 1023 876
f 876 1023 877
f 934 1024 825
f 825 1024 1016
f 854 1025 855
f 855 1025 1026
f 1028 903 1027
f 1027 903 902
f 1030 1031 1029
f 1029 1031 1032
f 889 888 814
f 814 888 1033
f 1034 811 1033
f 1033 811 814
f 1035 1036 932
f 932 1036 933
f 841 947 911
f 911 947 917
f 844 948 841
f 841 948 947
f 951 948 907
f 907 948 844
f 907 906 951
f 951 906 1037
f 906 1038 1037
f 1037 1038 1039
f 991 912 1040
f 1040 912 915
f 1041 1042 964
f 964 1042 965
f 890 1043 891
f 891 1043 1044
f 789 1045 1046
f 1012 1011 1008
f 1008 1011 972
f 931 1047 848
f 848 1047 845
f 953 956 943
f 943 956 919
f 928 931 872
f 872 931 848
f 1049 999 1048
f 1048 999 985
f 1047 931 1050
f 1050 931 930
f 899 823 887
f 887 823 886
f 825 828 934
f 934 828 935
f 835 1051 836
f 836 1051 1052
f 923 1053 1038
f 1038 1053 1039
f 1054 927 921
f 921 927 856
f 926 1047 853
f 853 1047 1050
f 985 1055 1048
f 1048 1055 1056
f 973 974 827
f 827 974 828
f 837 913 838
f 838 913 912
f 861 882 980
f 980 882 1057
f 927 926 856
f 856 926 853
f 1025 1056 1026
f 1026 1056 1055
f 961 960 862
f 862 960 859
f 826 1017 1059
f 1059 1017 1060
f 1005 1001 1061
f 1061 1001 1000
f 1001 1004 1002
f 1002 1004 946
f 1059 1060 1002
f 1002 1060 1003
f 943 946 953
f 953 946 1004
f 1042 1041 916
f 916 1041 1007
f 792 794 906
f 906 794 1038
f 998 1006 996
f 996 1006 1008
f 865 1005 1062
f 1062 1005 1061
f 1038 794 923
f 923 794 924
f 1022 876 1036
f 1036 876 933
f 836 1052 934
f 934 1052 1024
f 885 1063 829
f 829 1063 833
f 1021 1064 938
f 938 1064 874
f 1012 1015 867
f 867 1015 868
f 824 910 885
f 885 910 1063
f 1031 1030 1027
f 1027 1030 1028
f 1064 804 874
f 874 804 803
f 884 883 1065
f 1065 883 1066
f 1050 930 1067
f 1067 930 1007
f 916 929 917
f 917 929 911
f 961 1068 939
f 939 1068 940
f 1069 1070 1055
f 1055 1070 1071
f 929 928 911
f 911 928 872
f 1040 1053 955
f 955 1053 965
f 922 965 923
f 923 965 1053
f 1051 835 1062
f 1062 835 865
f 952 914 968
f 968 914 913
f 889 895 890
f 890 895 816
f 895 897 816
f 816 897 901
f 890 816 1043
f 1043 816 815
f 1065 1066 1032
f 1032 1066 1029
f 1006 937 1009
f 1009 937 793
f 1001 1005 1004
f 1004 1005 992
f 925 845 926
f 926 845 1047
f 1002 946 1059
f 1059 946 945
f 977 941 978
f 978 941 940
f 823 824 886
f 886 824 885
f 1059 945 826
f 826 945 827
f 939 942 1069
f 1069 942 1070
f 816 901 817
f 1071 1072 1055
f 1055 1072 1026
f 1062 1061 1074
f 1074 1061 1073
f 1062 1074 1051
f 1051 1074 1075
f 1052 1051 1076
f 1076 1051 1075
f 1024 1052 1077
f 1077 1052 1076
f 1061 1000 1073
f 1073 1000 1078
f 1000 1003 1078
f 1078 1003 1079
f 1079 1003 1080
f 1080 1003 1060
f 1081 1082 1078
f 1078 1082 1073
f 1084 1085 1083
f 1083 1085 1086
f 1087 1088 1086
f 1086 1088 1083
f 1086 1085 1090
f 1090 1085 1089
f 1091 1092 1090
f 1090 1092 1093
f 1089 1094 1090
f 1090 1094 1091
f 1095 1082 1089
f 1089 1082 1094
f 1093 1087 1090
f 1090 1087 1086
f 1096 1097 1099
f 1099 1097 1098
f 1097 1096 1087
f 1087 1096 1088
f 1089 1085 1095
f 1095 1085 1084
f 1084 1075 1095
f 1095 1075 1074
f 1084 1100 1075
f 1075 1100 1076
f 1083 1101 1084
f 1084 1101 1100
f 1101 1083 1102
f 1102 1083 1088
f 1082 1095 1073
f 1073 1095 1074
f 1096 1103 1088
f 1088 1103 1102
f 1101 1102 1104
f 1104 1102 1105
f 1102 1103 1105
f 1105 1103 1106
f 1104 1105 1107
f 1107 1105 1108
f 1107 1109 1104
f 1104 1109 1110
f 1111 1108 1106
f 1106 1108 1105
f 1101 1104 1100
f 1100 1104 1110
f 1100 1110 1076
f 1076 1110 1077
f 1103 1096 1112
f 1112 1096 1099
f 1091 1094 1113
f 1113 1094 1082
f 1113 1114 1091
f 1091 1114 1092
f 1082 1081 1113
f 1113 1081 1115
f 1114 1113 1116
f 1116 1113 1115
f 1114 1117 1092
f 1092 1117 1118
f 1024 1077 1016
f 1016 1077 1119
f 1017 1120 1060
f 1060 1120 1080
f 1120 1017 1119
f 1119 1017 1016
f 1119 1109 1120
f 1120 1109 1121
f 1109 1107 1121
f 1121 1107 1122
f 1120 1121 1080
f 1080 1121 1123
f 1119 1077 1109
f 1109 1077 1110
f 1124 1079 1123
f 1123 1079 1080
f 1124 1081 1079
f 1079 1081 1078
f 1125 1115 1124
f 1124 1115 1081
f 1125 1124 1126
f 1126 1124 1123
f 1127 1125 1128
f 1128 1125 1126
f 1121 1122 1123
f 1123 1122 1126
f 1122 1129 1126
f 1126 1129 1128
f 1115 1125 1116
f 1116 1125 1127
f 1131 1116 1130
f 1130 1116 1127
f 1130 1133 1132
f 1132 1133 1134
f 1130 1127 1133
f 1133 1127 1128
f 1130 1132 1131
f 1131 1132 1112
f 1131 1112 1117
f 1117 1112 1099
f 1117 1114 1131
f 1131 1114 1116
f 1107 1108 1122
f 1122 1108 1129
f 1134 1129 1111
f 1111 1129 1108
f 1134 1133 1129
f 1129 1133 1128
f 1132 1134 1106
f 1106 1134 1111
f 1106 1103 1132
f 1132 1103 1112
f 1087 1093 1097
f 1097 1093 1098
f 1098 1118 1099
f 1099 1118 1117
f 1098 1093 1118
f 1118 1093 1092
f 915 914 1039
f 1039 914 1037
f 918 944 919
f 919 944 943
f 950 949 973
f 973 949 974
f 949 952 974
f 974 952 968
f 956 955 1042
f 1042 955 965
f 950 973 918
f 918 973 944
f 915 1039 1040
f 1040 1039 1053
f 956 1042 919
f 919 1042 916
f 1040 955 991
f 991 955 954
f 914 952 1037
f 1037 952 951
f 1136 1137 1135
f 1135 1137 1138
f 1140 1141 1139
f 1139 1141 1142
f 1139 1142 1143
f 1143 1142 1144
f 1145 1146 1148
f 1148 1146 1147
f 854 1149 1025
f 1025 1149 1150
f 1151 1152 1140
f 1140 1152 1141
f 1154 1155 1153
f 1153 1155 1156
f 1067 1007 1158
f 1158 1007 1157
f 1159 1157 1041
f 1041 1157 1007
f 1161 1162 1160
f 1160 1162 1163
f 1164 1146 1152
f 1152 1146 1141
f 854 1067 1149
f 1149 1067 1158
f 1155 1154 1137
f 1137 1154 1165
f 1166 1164 1138
f 1138 1164 1152
f 1167 1161 1144
f 1144 1161 1168
f 1170 1171 1169
f 1169 1171 1172
f 1161 1160 1168
f 1168 1160 1173
f 1174 1143 1168
f 1168 1143 1144
f 1167 1144 1145
f 1145 1144 1142
f 1135 1175 1136
f 1136 1175 1176
f 1151 1177 1135
f 1135 1177 1175
f 1167 1145 1178
f 1178 1145 1148
f 1160 1163 1153
f 1153 1163 1150
f 1135 1138 1151
f 1151 1138 1152
f 1139 1179 1140
f 1140 1179 1180
f 1165 1166 1137
f 1137 1166 1138
f 1141 1146 1142
f 1142 1146 1145
f 1136 1176 1181
f 1181 1176 1182
f 1174 1170 1183
f 1183 1170 1169
f 1170 1173 1171
f 1171 1173 1156
f 1171 1181 1172
f 1172 1181 1182
f 1153 1156 1160
f 1160 1156 1173
f 1143 1174 1184
f 1184 1174 1183
f 1140 1180 1151
f 1151 1180 1177
f 1049 1048 1178
f 1178 1048 1162
f 1179 1139 1184
f 1184 1139 1143
f 1159 1147 1164
f 1164 1147 1146
f 1170 1174 1173
f 1173 1174 1168
f 1171 1156 1181
f 1181 1156 1155
f 1181 1155 1136
f 1136 1155 1137
f 1184 1183 1186
f 1186 1183 1185
f 1184 1186 1179
f 1179 1186 1187
f 1179 1187 1180
f 1180 1187 1188
f 1180 1188 1177
f 1177 1188 1189
f 1183 1169 1185
f 1185 1169 1190
f 1169 1172 1190
f 1190 1172 1191
f 1172 1182 1191
f 1191 1182 1192
f 1193 1194 1190
f 1190 1194 1185
f 1196 1197 1195
f 1195 1197 1198
f 1199 1200 1196
f 1196 1200 1197
f 1197 1200 1202
f 1202 1200 1201
f 1203 1204 1202
f 1202 1204 1205
f 1201 1206 1202
f 1202 1206 1203
f 1205 1198 1202
f 1202 1198 1197
f 1198 1207 1195
f 1195 1207 1208
f 1201 1200 1209
f 1209 1200 1199
f 1199 1187 1209
f 1209 1187 1186
f 1199 1210 1187
f 1187 1210 1188
f 1196 1211 1199
f 1199 1211 1210
f 1212 1211 1195
f 1195 1211 1196
f 1209 1194 1201
f 1201 1194 1206
f 1194 1209 1185
f 1185 1209 1186
f 1213 1212 1208
f 1208 1212 1195
f 1211 1212 1214
f 1214 1212 1215
f 1212 1213 1215
f 1215 1213 1216
f 1214 1215 1217
f 1217 1215 1218
f 1217 1219 1214
f 1214 1219 1220
f 1216 1221 1215
f 1215 1221 1218
f 1214 1220 1211
f 1211 1220 1210
f 1210 1220 1188
f 1188 1220 1189
f 1213 1208 1223
f 1223 1208 1222
f 1208 1207 1222
f 1222 1207 1224
f 1203 1206 1225
f 1225 1206 1194
f 1204 1203 1226
f 1226 1203 1225
f 1194 1193 1225
f 1225 1193 1227
f 1225 1227 1226
f 1226 1227 1228
f 1229 1230 1226
f 1226 1230 1204
f 1224 1230 1222
f 1222 1230 1229
f 1177 1189 1175
f 1175 1189 1231
f 1176 1232 1182
f 1182 1232 1192
f 1232 1176 1231
f 1231 1176 1175
f 1231 1219 1232
f 1232 1219 1233
f 1219 1217 1233
f 1233 1217 1234
f 1232 1233 1192
f 1192 1233 1235
f 1219 1231 1220
f 1220 1231 1189
f 1236 1191 1235
f 1235 1191 1192
f 1236 1193 1191
f 1191 1193 1190
f 1236 1237 1193
f 1193 1237 1227
f 1237 1236 1238
f 1238 1236 1235
f 1239 1237 1240
f 1240 1237 1238
f 1233 1234 1235
f 1235 1234 1238
f 1234 1241 1238
f 1238 1241 1240
f 1237 1239 1227
f 1227 1239 1228
f 1243 1228 1242
f 1242 1228 1239
f 1242 1245 1244
f 1244 1245 1246
f 1242 1239 1245
f 1245 1239 1240
f 1242 1244 1243
f 1243 1244 1223
f 1243 1223 1229
f 1229 1223 1222
f 1229 1226 1243
f 1243 1226 1228
f 1217 1218 1234
f 1234 1218 1241
f 1246 1241 1221
f 1221 1241 1218
f 1246 1245 1241
f 1241 1245 1240
f 1244 1246 1216
f 1216 1246 1221
f 1216 1213 1244
f 1244 1213 1223
f 1198 1205 1207
f 1207 1205 1224
f 1224 1205 1230
f 1230 1205 1204
f 1148 1147 966
f 966 1147 964
f 1149 1154 1150
f 1150 1154 1153
f 1158 1157 1165
f 1165 1157 1166
f 1157 1159 1166
f 1166 1159 1164
f 1163 1162 1056
f 1056 1162 1048
f 1158 1165 1149
f 1149 1165 1154
f 1178 1148 1049
f 1049 1148 966
f 1163 1056 1150
f 1150 1056 1025
f 1178 1162 1167
f 1167 1162 1161
f 1147 1159 964
f 964 1159 1041
f 999 1049 922
f 922 1049 966
f 999 797 985
f 985 797 800
f 797 796 800
f 800 796 801
f 796 997 801
f 801 997 986
f 1247 1248 1250
f 1250 1248 1249
f 1252 1253 1251
f 1251 1253 1254
f 1251 1254 1255
f 1255 1254 1256
f 1258 1259 1257
f 1257 1259 1260
f 1261 1262 1252
f 1252 1262 1253
f 1264 1265 1263
f 1263 1265 1266
f 1267 1268 855
f 855 1268 920
f 1269 1267 1026
f 1026 1267 855
f 1271 1272 1270
f 1270 1272 1273
f 1274 1258 1262
f 1262 1258 1253
f 1264 1275 1265
f 1265 1275 1249
f 1276 1274 1250
f 1250 1274 1262
f 1277 1271 1256
f 1256 1271 1278
f 1279 1280 1282
f 1282 1280 1281
f 1271 1270 1278
f 1278 1270 1283
f 1284 1255 1278
f 1278 1255 1256
f 1277 1256 1257
f 1257 1256 1254
f 1247 1285 1248
f 1248 1285 1286
f 1261 1287 1247
f 1247 1287 1285
f 1257 1260 1277
f 1277 1260 1288
f 1270 1273 1263
f 1263 1273 1289
f 1261 1247 1262
f 1262 1247 1250
f 1251 1290 1252
f 1252 1290 1291
f 1275 1276 1249
f 1249 1276 1250
f 1253 1258 1254
f 1254 1258 1257
f 1248 1286 1292
f 1292 1286 1293
f 1284 1280 1294
f 1294 1280 1279
f 1281 1280 1266
f 1266 1280 1283
f 1292 1293 1281
f 1281 1293 1282
f 1263 1266 1270
f 1270 1266 1283
f 1255 1284 1295
f 1295 1284 1294
f 1252 1291 1261
f 1261 1291 1287
f 1288 1070 1272
f 1272 1070 942
f 1290 1251 1295
f 1295 1251 1255
f 1269 1259 1274
f 1274 1259 1258
f 1280 1284 1283
f 1283 1284 1278
f 1281 1266 1292
f 1292 1266 1265
f 1292 1265 1248
f 1248 1265 1249
f 1295 1294 1297
f 1297 1294 1296
f 1295 1297 1290
f 1290 1297 1298
f 1290 1298 1291
f 1291 1298 1299
f 1291 1299 1287
f 1287 1299 1300
f 1294 1279 1296
f 1296 1279 1301
f 1279 1282 1301
f 1301 1282 1302
f 1302 1282 1303
f 1303 1282 1293
f 1304 1305 1301
f 1301 1305 1296
f 1307 1308 1306
f 1306 1308 1309
f 1310 1311 1307
f 1307 1311 1308
f 1308 1311 1313
f 1313 1311 1312
f 1314 1315 1313
f 1313 1315 1316
f 1312 1317 1313
f 1313 1317 1314
f 1316 1309 1313
f 1313 1309 1308
f 1318 1319 1309
f 1309 1319 1306
f 1311 1310 1312
f 1312 1310 1320
f 1310 1298 1320
f 1320 1298 1297
f 1310 1321 1298
f 1298 1321 1299
f 1307 1322 1310
f 1310 1322 1321
f 1322 1307 1323
f 1323 1307 1306
f 1312 1320 1317
f 1317 1320 1305
f 1305 1320 1296
f 1296 1320 1297
f 1319 1324 1306
f 1306 1324 1323
f 1325 1322 1326
f 1326 1322 1323
f 1324 1327 1323
f 1323 1327 1326
f 1328 1325 1329
f 1329 1325 1326
f 1325 1328 1331
f 1331 1328 1330
f 1327 1332 1326
f 1326 1332 1329
f 1322 1325 1321
f 1321 1325 1331
f 1321 1331 1299
f 1299 1331 1300
f 1324 1319 1334
f 1334 1319 1333
f 1319 1318 1333
f 1333 1318 1335
f 1314 1317 1336
f 1336 1317 1305
f 1315 1314 1337
f 1337 1314 1336
f 1305 1304 1336
f 1336 1304 1338
f 1337 1336 1339
f 1339 1336 1338
f 1337 1340 1315
f 1315 1340 1341
f 1335 1341 1333
f 1333 1341 1340
f 1287 1300 1285
f 1285 1300 1342
f 1286 1343 1293
f 1293 1343 1303
f 1343 1286 1342
f 1342 1286 1285
f 1342 1330 1343
f 1343 1330 1344
f 1330 1328 1344
f 1344 1328 1345
f 1343 1344 1303
f 1303 1344 1346
f 1342 1300 1330
f 1330 1300 1331
f 1347 1302 1346
f 1346 1302 1303
f 1347 1304 1302
f 1302 1304 1301
f 1348 1338 1347
f 1347 1338 1304
f 1348 1347 1349
f 1349 1347 1346
f 1350 1348 1351
f 1351 1348 1349
f 1344 1345 1346
f 1346 1345 1349
f 1345 1352 1349
f 1349 1352 1351
f 1348 1350 1338
f 1338 1350 1339
f 1354 1339 1353
f 1353 1339 1350
f 1353 1356 1355
f 1355 1356 1357
f 1353 1350 1356
f 1356 1350 1351
f 1353 1355 1354
f 1354 1355 1334
f 1354 1334 1340
f 1340 1334 1333
f 1340 1337 1354
f 1354 1337 1339
f 1328 1329 1345
f 1345 1329 1352
f 1357 1352 1332
f 1332 1352 1329
f 1357 1356 1352
f 1352 1356 1351
f 1357 1332 1355
f 1355 1332 1327
f 1327 1324 1355
f 1355 1324 1334
f 1309 1316 1318
f 1318 1316 1335
f 1335 1316 1341
f 1341 1316 1315
f 1259 1072 1260
f 1260 1072 1071
f 1358 1264 1289
f 1289 1264 1263
f 1268 1267 1275
f 1275 1267 1276
f 1267 1269 1276
f 1276 1269 1274
f 941 1273 942
f 942 1273 1272
f 1358 1268 1264
f 1264 1268 1275
f 1260 1071 1288
f 1288 1071 1070
f 1273 941 1289
f 1289 941 977
f 1272 1271 1288
f 1288 1271 1277
f 1259 1269 1072
f 1072 1269 1026
f 1360 1361 1359
f 1359 1361 1362
f 1364 1365 1363
f 1363 1365 1366
f 1363 1366 1367
f 1367 1366 1368
f 1370 1371 1369
f 1369 1371 1372
f 1373 1374 1376
f 1376 1374 1375
f 1377 1378 1364
f 1364 1378 1365
f 1379 1380 1382
f 1382 1380 1381
f 1383 1384 1386
f 1386 1384 1385
f 1387 1385 978
f 978 1385 1384
f 1388 1389 1391
f 1391 1389 1390
f 1378 1392 1365
f 1365 1392 1370
f 1374 1383 1375
f 1375 1383 1386
f 1380 1393 1381
f 1381 1393 1361
f 1394 1392 1362
f 1362 1392 1378
f 1389 1396 1395
f 1395 1396 1368
f 1398 1399 1397
f 1397 1399 1400
f 1388 1401 1389
f 1389 1401 1396
f 1402 1367 1396
f 1396 1367 1368
f 1395 1368 1369
f 1369 1368 1366
f 1359 1403 1360
f 1360 1403 1404
f 1377 1405 1359
f 1359 1405 1403
f 1369 1372 1395
f 1395 1372 1406
f 1379 1388 1376
f 1376 1388 1391
f 1359 1362 1377
f 1377 1362 1378
f 1363 1407 1364
f 1364 1407 1408
f 1393 1394 1361
f 1361 1394 1362
f 1365 1370 1366
f 1366 1370 1369
f 1360 1404 1409
f 1409 1404 1410
f 1402 1398 1411
f 1411 1398 1397
f 1399 1398 1382
f 1382 1398 1401
f 1409 1410 1399
f 1399 1410 1400
f 1388 1379 1401
f 1401 1379 1382
f 1367 1402 1412
f 1412 1402 1411
f 1364 1408 1377
f 1377 1408 1405
f 981 980 1406
f 1406 980 1390
f 1407 1363 1412
f 1412 1363 1367
f 1387 1371 1392
f 1392 1371 1370
f 1398 1402 1401
f 1401 1402 1396
f 1409 1399 1381
f 1381 1399 1382
f 1360 1409 1361
f 1361 1409 1381
f 1412 1411 1414
f 1414 1411 1413
f 1412 1414 1407
f 1407 1414 1415
f 1407 1415 1408
f 1408 1415 1416
f 1408 1416 1405
f 1405 1416 1417
f 1411 1397 1413
f 1413 1397 1418
f 1397 1400 1418
f 1418 1400 1419
f 1419 1400 1420
f 1420 1400 1410
f 1422 1413 1421
f 1421 1413 1418
f 1423 1424 1426
f 1426 1424 1425
f 1427 1428 1424
f 1424 1428 1425
f 1425 1428 1430
f 1430 1428 1429
f 1430 1431 1433
f 1433 1431 1432
f 1429 1434 1430
f 1430 1434 1431
f 1433 1426 1430
f 1430 1426 1425
f 1426 1435 1423
f 1423 1435 1436
f 1428 1427 1429
f 1429 1427 1437
f 1427 1415 1437
f 1437 1415 1414
f 1427 1438 1415
f 1415 1438 1416
f 1439 1438 1424
f 1424 1438 1427
f 1440 1439 1423
f 1423 1439 1424
f 1429 1437 1434
f 1434 1437 1422
f 1422 1437 1413
f 1413 1437 1414
f 1441 1440 1436
f 1436 1440 1423
f 1442 1439 1443
f 1443 1439 1440
f 1441 1444 1440
f 1440 1444 1443
f 1445 1442 1446
f 1446 1442 1443
f 1442 1445 1448
f 1448 1445 1447
f 1444 1449 1443
f 1443 1449 1446
f 1439 1442 1438
f 1438 1442 1448
f 1438 1448 1416
f 1416 1448 1417
f 1436 1450 1441
f 1441 1450 1451
f 1436 1435 1450
f 1450 1435 1452
f 1431 1434 1453
f 1453 1434 1422
f 1431 1453 1432
f 1432 1453 1454
f 1453 1422 1455
f 1455 1422 1421
f 1454 1453 1456
f 1456 1453 1455
f 1457 1458 1454
f 1454 1458 1432
f 1452 1458 1450
f 1450 1458 1457
f 1405 1417 1403
f 1403 1417 1459
f 1404 1460 1410
f 1410 1460 1420
f 1459 1460 1403
f 1403 1460 1404
f 1447 1461 1459
f 1459 1461 1460
f 1445 1462 1447
f 1447 1462 1461
f 1460 1461 1420
f 1420 1461 1463
f 1459 1417 1447
f 1447 1417 1448
f 1464 1419 1463
f 1463 1419 1420
f 1419 1464 1418
f 1418 1464 1421
f 1464 1465 1421
f 1421 1465 1455
f 1465 1464 1466
f 1466 1464 1463
f 1467 1465 1468
f 1468 1465 1466
f 1461 1462 1463
f 1463 1462 1466
f 1462 1469 1466
f 1466 1469 1468
f 1465 1467 1455
f 1455 1467 1456
f 1471 1456 1470
f 1470 1456 1467
f 1470 1473 1472
f 1472 1473 1474
f 1470 1467 1473
f 1473 1467 1468
f 1470 1472 1471
f 1471 1472 1451
f 1471 1451 1457
f 1457 1451 1450
f 1457 1454 1471
f 1471 1454 1456
f 1462 1445 1469
f 1469 1445 1446
f 1474 1469 1449
f 1449 1469 1446
f 1474 1473 1469
f 1469 1473 1468
f 1472 1474 1444
f 1444 1474 1449
f 1444 1441 1472
f 1472 1441 1451
f 1426 1433 1435
f 1435 1433 1452
f 1452 1433 1458
f 1458 1433 1432
f 1371 940 1372
f 1372 940 1068
f 1376 1375 1379
f 1379 1375 1380
f 1393 1386 1394
f 1394 1386 1385
f 1385 1387 1394
f 1394 1387 1392
f 1475 1373 1391
f 1391 1373 1376
f 1375 1386 1380
f 1380 1386 1393
f 1372 1068 1406
f 1406 1068 981
f 1406 1390 1395
f 1395 1390 1389
f 1371 1387 940
f 940 1387 978
f 883 807 1476
f 1476 807 1477
f 1046 904 1479
f 1479 904 1478
f 904 903 1478
f 1478 903 1480
f 1030 1481 1028
f 1028 1481 1482
f 810 1046 1483
f 1483 1046 1479
f 1066 883 1484
f 1484 883 1476
f 807 810 1477
f 1477 810 1483
f 1485 1029 1484
f 1484 1029 1066
f 1028 1482 903
f 903 1482 1480
f 1481 1030 1485
f 1485 1030 1029
f 1484 1486 1485
f 1485 1486 1487
f 1485 1487 1481
f 1481 1487 1488
f 1481 1488 1482
f 1482 1488 1489
f 1482 1489 1480
f 1480 1489 1490
f 1484 1476 1486
f 1486 1476 1491
f 1476 1477 1491
f 1491 1477 1492
f 1477 1483 1492
f 1492 1483 1493
f 1495 1486 1494
f 1494 1486 1491
f 1497 1498 1496
f 1496 1498 1499
f 1500 1501 1497
f 1497 1501 1498
f 1502 1503 1501
f 1501 1503 1498
f 1502 1504 1503
f 1503 1504 1505
f 1506 1499 1503
f 1503 1499 1498
f 1499 1506 1507
f 1507 1506 1508
f 1507 1509 1499
f 1499 1509 1496
f 1502 1501 1510
f 1510 1501 1500
f 1500 1488 1510
f 1510 1488 1487
f 1500 1511 1488
f 1488 1511 1489
f 1497 1512 1500
f 1500 1512 1511
f 1512 1497 1513
f 1513 1497 1496
f 1502 1510 1504
f 1504 1510 1495
f 1495 1510 1486
f 1486 1510 1487
f 1509 1514 1496
f 1496 1514 1513
f 1515 1512 1516
f 1516 1512 1513
f 1514 1517 1513
f 1513 1517 1516
f 1518 1515 1519
f 1519 1515 1516
f 1515 1518 1521
f 1521 1518 1520
f 1517 1522 1516
f 1516 1522 1519
f 1512 1515 1511
f 1511 1515 1521
f 1511 1521 1489
f 1489 1521 1490
f 1514 1509 1524
f 1524 1509 1523
f 1509 1507 1523
f 1523 1507 1508
f 1505 1504 1525
f 1525 1504 1495
f 1526 1505 1527
f 1527 1505 1525
f 1525 1495 1528
f 1528 1495 1494
f 1527 1525 1529
f 1529 1525 1528
f 1527 1530 1526
f 1526 1530 1531
f 1508 1531 1523
f 1523 1531 1530
f 1506 1503 1526
f 1526 1503 1505
f 1508 1506 1531
f 1531 1506 1526
f 1478 1480 1532
f 1532 1480 1490
f 1483 1479 1493
f 1493 1479 1533
f 1532 1533 1478
f 1478 1533 1479
f 1520 1534 1532
f 1532 1534 1533
f 1518 1535 1520
f 1520 1535 1534
f 1533 1534 1493
f 1493 1534 1536
f 1532 1490 1520
f 1520 1490 1521
f 1537 1492 1536
f 1536 1492 1493
f 1492 1537 1491
f 1491 1537 1494
f 1537 1538 1494
f 1494 1538 1528
f 1538 1537 1539
f 1539 1537 1536
f 1540 1538 1541
f 1541 1538 1539
f 1534 1535 1536
f 1536 1535 1539
f 1535 1542 1539
f 1539 1542 1541
f 1538 1540 1528
f 1528 1540 1529
f 1544 1529 1543
f 1543 1529 1540
f 1545 1543 1547
f 1547 1543 1546
f 1543 1540 1546
f 1546 1540 1541
f 1543 1545 1544
f 1544 1545 1524
f 1544 1524 1530
f 1530 1524 1523
f 1530 1527 1544
f 1544 1527 1529
f 1535 1518 1542
f 1542 1518 1519
f 1547 1542 1522
f 1522 1542 1519
f 1547 1546 1542
f 1542 1546 1541
f 1545 1547 1517
f 1517 1547 1522
f 1517 1514 1545
f 1545 1514 1524
f 997 995 986
f 986 995 987
f 987 995 988
f 988 995 971
f 976 1358 977
f 977 1358 1289
f 854 853 1067
f 1067 853 1050
f 1055 985 1069
f 1069 985 962
f 1068 961 981
f 981 961 862
f 1268 1358 920
f 920 1358 976
f 920 976 921
f 921 976 975
f 927 1054 850
f 850 1054 851
f 882 881 1057
f 1057 881 1548
f 1548 1374 1057
f 1057 1374 1373
f 1383 1374 1549
f 1549 1374 1548
f 1549 1548 1550
f 1550 1548 881
f 1550 881 1551
f 1551 881 880
f 933 1552 879
f 879 1552 880
f 1551 880 875
f 875 880 1552
f 1553 1551 878
f 878 1551 875
f 1551 1553 1550
f 1550 1553 1554
f 1550 1554 1549
f 1549 1554 1555
f 978 1384 975
f 975 1384 1555
f 967 849 1556
f 1556 849 852
f 875 1552 876
f 876 1552 933
f 961 939 962
f 962 939 1069
f 1555 1054 975
f 975 1054 921
f 1555 1384 1549
f 1549 1384 1383
f 1391 1390 1475
f 1475 1390 980
f 1373 1475 1057
f 1057 1475 980
f 851 1054 1554
f 1554 1054 1555
f 1554 1553 851
f 851 1553 852
f 878 1556 1553
f 1553 1556 852
f 1556 878 967
f 967 878 877
f 1023 1020 877
f 877 1020 967
f 909 811 1034
f 806 779 873
f 873 779 840
f 805 780 806
f 806 780 779
f 1043 893 1044
f 1044 893 892
f 873 840 847
f 847 840 842
f 840 839 842
f 842 839 843
f 839 791 843
f 843 791 908
f 791 790 908
f 908 790 792
f 809 789 810
f 810 789 1046
f 793 790 809
f 809 790 789
f 809 808 793
f 793 808 1009
f 808 884 1009
f 1009 884 1010
f 1065 1015 884
f 884 1015 1010
f 1032 868 1065
f 1065 868 1015
f 1031 822 1032
f 1032 822 868
f 1031 1027 822
f 822 1027 785
f 1045 905 1046
f 1046 905 904
f 788 781 1019
f 1019 781 894
f 781 780 894
f 894 780 892
f 780 805 892
f 892 805 1044
f 805 804 1044
f 1044 804 891
f 804 1064 891
f 891 1064 888
f 1064 1021 888
f 888 1021 1033
f 1021 1020 1033
f 1033 1020 1034
f 1020 1023 1034
f 1034 1023 909
f 1023 1022 909
f 909 1022 910
f 1043 815 893
f 893 815 819
f 819 815 820
f 820 815 818
f 870 869 818
f 818 869 820
f 1014 1011 870
f 870 1011 869
f 969 972 1014
f 1014 972 1011
f 1036 1063 1022
f 1022 1063 910
f 1035 833 1036
f 1036 833 1063
f 1035 932 979
f 979 932 963
f 834 979 982
f 982 979 958
f 833 1035 834
f 834 1035 979
f 982 863 834
f 834 863 830
f 864 900 831
f 831 900 857
f 990 993 864
f 864 993 900
f 989 994 990
f 990 994 993
f 970 1058 989
f 989 1058 994
f 969 1018 970
f 970 1018 1058
f 1027 902 785
f 785 902 786
f 902 905 786
f 786 905 1019
f 905 1045 1019
f 1019 1045 788
f 788 1045 787
f 787 1045 789
