o hand_left
v -0.054103 0.305574 1.145512
v -0.059773 0.315356 1.146634
v -0.052471 0.310432 1.152242
v -0.046683 0.302472 1.150238
v -0.057309 0.329398 1.161528
v -0.050508 0.339794 1.162309
v -0.041124 0.327087 1.167456
v -0.049118 0.320181 1.166368
v -0.039685 0.299120 1.151962
v -0.046262 0.305813 1.156178
v -0.034768 0.298835 1.149106
v -0.028063 0.293849 1.140666
v -0.033129 0.293362 1.146473
v -0.025340 0.287446 1.137071
v -0.027307 0.300219 1.131295
v -0.026814 0.286873 1.127564
v -0.048940 0.298968 1.112957
v -0.062012 0.297366 1.109840
v -0.057925 0.281551 1.112033
v -0.045196 0.284537 1.115749
v -0.078474 0.285181 1.111935
v -0.067065 0.282111 1.111767
v -0.070990 0.297941 1.108454
v -0.081181 0.299735 1.108813
v -0.068286 0.308501 1.139743
v -0.073373 0.318511 1.139813
v -0.068166 0.318067 1.141078
v -0.063124 0.308475 1.141195
v -0.027083 0.303823 1.151689
v -0.026652 0.310985 1.142115
v -0.029281 0.303411 1.143540
v -0.031096 0.300665 1.154326
v -0.092363 0.339932 1.143647
v -0.093465 0.351833 1.137111
v -0.087712 0.353375 1.137622
v -0.087905 0.342117 1.143049
v -0.066184 0.353846 1.148318
v -0.070278 0.359605 1.139590
v -0.061409 0.366931 1.132001
v -0.055251 0.360291 1.137558
v -0.058531 0.347079 1.156830
v -0.049283 0.353940 1.148525
v -0.041648 0.344903 1.156141
v -0.033311 0.330818 1.163537
v -0.105310 0.348405 1.133039
v -0.106333 0.339301 1.137695
v -0.015157 0.241419 1.154619
v -0.020222 0.238637 1.155381
v -0.021987 0.243356 1.153923
v -0.016561 0.245144 1.153230
v -0.111723 0.337022 1.117342
v -0.108459 0.335799 1.107720
v -0.111499 0.342471 1.108214
v -0.112843 0.344541 1.117403
v -0.110109 0.327103 1.117430
v -0.103871 0.326717 1.107796
v -0.009814 0.237971 1.143500
v -0.009169 0.240213 1.148081
v -0.010356 0.243928 1.145211
v -0.011742 0.241795 1.140623
v -0.040411 0.294802 1.148434
v -0.049369 0.296674 1.146466
v -0.034849 0.276820 1.148086
v -0.041510 0.284741 1.146410
v -0.034922 0.287387 1.146760
v -0.029743 0.280720 1.146641
v -0.064496 0.285578 1.140063
v -0.067683 0.297024 1.139084
v -0.061244 0.296440 1.140425
v -0.056233 0.284358 1.142580
v -0.081940 0.296012 1.139230
v -0.077585 0.284716 1.139859
v -0.086173 0.285272 1.140020
v -0.087914 0.293362 1.140417
v -0.067354 0.265494 1.140063
v -0.064209 0.257213 1.138474
v -0.067226 0.257403 1.137816
v -0.070874 0.265603 1.139195
v -0.113842 0.349162 1.107630
v -0.112982 0.351835 1.117153
v -0.099439 0.287898 1.115704
v -0.107755 0.291829 1.122162
v -0.107568 0.280021 1.123908
v -0.098856 0.278986 1.116690
v -0.100000 0.335092 1.101463
v -0.104889 0.341228 1.100543
v -0.013722 0.234434 1.140315
v -0.016080 0.238485 1.137956
v -0.036855 0.345952 1.143401
v -0.027711 0.331271 1.155135
v -0.045606 0.355223 1.133522
v -0.052202 0.360459 1.125677
v -0.056496 0.366776 1.120830
v -0.045892 0.279299 1.145957
v -0.057264 0.300177 1.142802
v -0.073259 0.308309 1.139145
v -0.103381 0.301641 1.141778
v -0.105818 0.312206 1.141535
v -0.095526 0.310298 1.143608
v -0.095437 0.301376 1.142724
v -0.110686 0.292028 1.131543
v -0.106692 0.290863 1.138395
v -0.104979 0.281236 1.138644
v -0.109265 0.281524 1.132508
v -0.021837 0.309234 1.152845
v -0.024740 0.318406 1.142225
v -0.111353 0.339021 1.127846
v -0.110115 0.346740 1.127029
v -0.110270 0.354655 1.123953
v -0.081852 0.329881 1.142756
v -0.084799 0.343730 1.142871
v -0.080554 0.344377 1.144436
v -0.078846 0.330232 1.142323
v -0.065504 0.325268 1.150913
v -0.067525 0.338059 1.154634
v -0.058043 0.317807 1.157116
v -0.080346 0.357213 1.138140
v -0.089089 0.363210 1.134888
v -0.080542 0.366041 1.134823
v -0.098247 0.360380 1.132433
v -0.105933 0.357345 1.128875
v -0.108696 0.347905 1.096779
v -0.072299 0.367504 1.133460
v -0.043027 0.313753 1.168854
v -0.037671 0.308895 1.171311
v -0.039700 0.303224 1.166022
v -0.045292 0.307325 1.163086
v -0.022410 0.279024 1.134883
v -0.024672 0.280161 1.142608
v -0.028389 0.289044 1.143711
v -0.094812 0.328462 1.144435
v -0.106585 0.328518 1.139632
v -0.038670 0.271118 1.147114
v -0.013678 0.245610 1.137999
v -0.011967 0.248056 1.142931
v -0.017812 0.264715 1.137903
v -0.019363 0.261192 1.132292
v -0.038213 0.260717 1.142177
v -0.036144 0.265562 1.146544
v -0.034940 0.262308 1.145832
v -0.037152 0.256824 1.143172
v -0.076466 0.259822 1.137130
v -0.079549 0.266615 1.138520
v -0.043108 0.269887 1.121434
v -0.030862 0.276103 1.120554
v -0.034231 0.286917 1.119385
v -0.072002 0.285900 1.139463
v -0.070043 0.275238 1.140327
v -0.074220 0.274795 1.139857
v -0.047668 0.274679 1.144992
v -0.043121 0.267296 1.145001
v -0.048927 0.268990 1.143172
v -0.053035 0.275570 1.143182
v -0.109100 0.304412 1.119135
v -0.112929 0.304812 1.130164
v -0.011134 0.241715 1.152050
v -0.012338 0.245395 1.149913
v -0.074956 0.297137 1.138484
v -0.039014 0.300317 1.118325
v -0.078782 0.308096 1.138927
v -0.084430 0.265763 1.119520
v -0.088300 0.263268 1.125012
v -0.084429 0.257559 1.125808
v -0.081689 0.257594 1.120436
v -0.031622 0.242236 1.146007
v -0.029344 0.244442 1.150844
v -0.027028 0.240098 1.151886
v -0.029024 0.237372 1.147151
v -0.031891 0.269571 1.147798
v -0.026648 0.273333 1.146770
v -0.024991 0.266771 1.147498
v -0.030417 0.264221 1.147452
v -0.021742 0.272803 1.142099
v -0.020011 0.266971 1.143429
v -0.029992 0.240734 1.139744
v -0.024257 0.240980 1.134654
v -0.030848 0.254608 1.130015
v -0.034914 0.252973 1.136928
v -0.083664 0.314009 1.104895
v -0.094774 0.313918 1.106742
v -0.092589 0.299754 1.110682
v -0.090931 0.286085 1.113556
v -0.088439 0.273387 1.117639
v -0.076983 0.272797 1.113397
v -0.100438 0.301205 1.112489
v -0.042584 0.262028 1.132462
v -0.036222 0.264832 1.126553
v -0.042656 0.264702 1.125808
v -0.086060 0.307038 1.140407
v -0.013500 0.249716 1.147893
v -0.060127 0.351597 1.105015
v -0.071172 0.346711 1.098739
v -0.066973 0.339613 1.101726
v -0.054763 0.345044 1.109601
v -0.023989 0.247886 1.153382
v -0.017918 0.249877 1.152565
v -0.085862 0.264156 1.137292
v -0.081993 0.258649 1.135422
v -0.083956 0.256386 1.132676
v -0.090314 0.260184 1.134909
v -0.100398 0.315411 1.108280
v -0.107167 0.273192 1.124094
v -0.099733 0.272166 1.117678
v -0.096260 0.326501 1.103355
v -0.086609 0.326628 1.101107
v -0.089312 0.335661 1.098496
v -0.062998 0.266315 1.116505
v -0.075044 0.312273 1.104869
v -0.078881 0.325936 1.101562
v -0.081724 0.336709 1.098419
v -0.084414 0.344121 1.095609
v -0.092452 0.342238 1.096100
v -0.018657 0.242592 1.135219
v -0.022075 0.235687 1.137207
v -0.096217 0.349362 1.091778
v -0.087038 0.351337 1.092043
v -0.069684 0.326255 1.102909
v -0.058727 0.327302 1.106185
v -0.066397 0.313032 1.106303
v -0.055246 0.312822 1.109488
v -0.053955 0.270307 1.113604
v -0.019156 0.221856 1.147344
v -0.024425 0.230655 1.143462
v -0.026443 0.232354 1.148651
v -0.021558 0.222269 1.150846
v -0.027426 0.235695 1.141503
v -0.019793 0.231750 1.139901
v -0.042902 0.315503 1.116821
v -0.045806 0.262493 1.141480
v -0.045372 0.332586 1.116915
v -0.029673 0.313184 1.127519
v -0.032021 0.326119 1.129827
v -0.046673 0.350413 1.119361
v -0.036106 0.342037 1.130159
v -0.057506 0.362670 1.110571
v -0.053002 0.355695 1.113954
v -0.027955 0.332068 1.141588
v -0.013692 0.230842 1.158785
v -0.018797 0.228639 1.158461
v -0.063537 0.358492 1.101624
v -0.050892 0.311682 1.160472
v -0.087248 0.317955 1.141988
v -0.081721 0.318247 1.140645
v -0.106416 0.318666 1.140968
v -0.095084 0.318380 1.143900
v -0.009071 0.231762 1.156446
v -0.062245 0.252622 1.134246
v -0.064132 0.256040 1.133481
v -0.036711 0.319908 1.170936
v -0.032970 0.315087 1.172458
v -0.021738 0.316035 1.165015
v -0.026644 0.317157 1.170298
v -0.029364 0.323516 1.167748
v -0.024336 0.323150 1.161742
v -0.084410 0.329188 1.143315
v -0.088253 0.328164 1.143755
v -0.109990 0.316383 1.118264
v -0.113238 0.316291 1.129445
v -0.020472 0.271433 1.135715
v -0.024262 0.276647 1.127187
v -0.022581 0.268617 1.129626
v -0.024853 0.258892 1.128524
v -0.042993 0.259657 1.137746
v -0.037980 0.259914 1.135869
v -0.074752 0.341509 1.149197
v -0.073056 0.329113 1.144888
v -0.041771 0.303158 1.157528
v -0.037236 0.299705 1.159653
v -0.060977 0.277016 1.141395
v -0.057770 0.256536 1.120428
v -0.050186 0.260189 1.117881
v -0.057647 0.268026 1.141299
v -0.006769 0.228313 1.149070
v -0.006915 0.230710 1.153485
v -0.027863 0.266611 1.125412
v -0.082794 0.274662 1.140489
v -0.065288 0.261671 1.120690
v -0.060903 0.252793 1.126368
v -0.108393 0.275379 1.132703
v -0.074386 0.354589 1.095918
v -0.025024 0.234780 1.153536
v -0.022199 0.226028 1.156078
v -0.015781 0.222975 1.144809
v -0.010535 0.225828 1.144725
v -0.111852 0.327140 1.129533
v -0.077987 0.318051 1.139936
v -0.023033 0.322616 1.150852
v -0.020398 0.313218 1.157803
v -0.055895 0.261711 1.140491
v -0.092043 0.268405 1.120182
v -0.075788 0.263995 1.115280
v -0.073597 0.256684 1.116628
v -0.066741 0.255694 1.120155
v -0.063555 0.254262 1.127092
v -0.014600 0.218777 1.147483
v -0.009333 0.221538 1.147304
v -0.005225 0.223754 1.151468
v -0.005271 0.226036 1.155503
v -0.008288 0.228010 1.158277
v -0.017874 0.217296 1.150032
v -0.019772 0.217751 1.153346
v -0.020902 0.222490 1.157447
v -0.016850 0.213484 1.153065
v -0.011963 0.211920 1.151755
v -0.001512 0.213151 1.160457
v -0.002878 0.216288 1.155682
v -0.003200 0.213591 1.155878
v -0.002190 0.210102 1.159291
v -0.001763 0.205565 1.161786
v -0.000770 0.208530 1.163638
v -0.006665 0.213476 1.152821
v -0.005774 0.208320 1.156990
v -0.009773 0.206918 1.156424
v -0.008420 0.202361 1.159261
v -0.004694 0.203358 1.159703
v -0.009924 0.210416 1.153409
v -0.007127 0.215102 1.151288
v -0.001808 0.204201 1.165113
v -0.001970 0.202847 1.162895
v -0.004580 0.201000 1.161718
v -0.005001 0.200170 1.164721
v -0.003783 0.221906 1.158156
v -0.002009 0.214767 1.162528
v -0.002782 0.209758 1.165900
v -0.003646 0.205311 1.167097
v -0.005081 0.214879 1.165366
v -0.005436 0.210296 1.167191
v -0.006632 0.206477 1.168213
v -0.009059 0.214138 1.166912
v -0.008556 0.209923 1.167924
v -0.011308 0.224875 1.161504
v -0.007234 0.225247 1.160001
v -0.008506 0.207368 1.168819
v -0.006622 0.200797 1.166270
v -0.013384 0.207793 1.156122
v -0.011437 0.202725 1.160599
v -0.015347 0.208341 1.157424
v -0.013626 0.203086 1.161662
v -0.009440 0.199352 1.162721
v -0.007505 0.200378 1.161209
v -0.013231 0.228231 1.159627
v -0.018472 0.225697 1.159236
v -0.017111 0.222716 1.161010
v -0.013607 0.212641 1.166492
v -0.019703 0.219436 1.159419
v -0.018704 0.214140 1.156306
v -0.016567 0.208592 1.160134
v -0.016695 0.210117 1.163245
v -0.014679 0.204744 1.163443
v -0.014303 0.206559 1.165288
v -0.011952 0.208514 1.167666
v -0.012181 0.202611 1.165931
v -0.010994 0.200382 1.164197
v -0.008811 0.203149 1.167621
v -0.012717 0.204486 1.166582
v -0.010160 0.205545 1.167797
v -0.036591 0.227248 1.147903
v -0.042390 0.224560 1.147820
v -0.043514 0.229576 1.145802
v -0.038361 0.231375 1.146143
v -0.030149 0.225102 1.135770
v -0.030288 0.227255 1.141544
v -0.031196 0.231187 1.139376
v -0.032180 0.228716 1.133112
v -0.034728 0.222050 1.131770
v -0.037115 0.226224 1.129438
v -0.033550 0.233269 1.130806
v -0.033205 0.236107 1.137488
v -0.041428 0.255157 1.132349
v -0.041215 0.252692 1.125361
v -0.058071 0.251425 1.138589
v -0.058245 0.248827 1.135577
v -0.033102 0.227739 1.145775
v -0.034180 0.231786 1.143708
v -0.051842 0.229680 1.140367
v -0.049489 0.232327 1.144618
v -0.047496 0.226946 1.144675
v -0.049347 0.224216 1.140196
v -0.047036 0.256768 1.139090
v -0.053208 0.254864 1.139157
v -0.043770 0.256083 1.136858
v -0.051008 0.227550 1.134099
v -0.047018 0.227251 1.128437
v -0.053407 0.245611 1.122230
v -0.057179 0.244878 1.127693
v -0.035485 0.236974 1.142729
v -0.044827 0.234774 1.146420
v -0.039980 0.236588 1.146183
v -0.039466 0.230349 1.127434
v -0.044212 0.222498 1.130370
v -0.040268 0.207534 1.141214
v -0.045963 0.217694 1.136774
v -0.047120 0.219040 1.141683
v -0.042138 0.207534 1.145979
v -0.048357 0.222147 1.134931
v -0.041648 0.218748 1.132582
v -0.033004 0.213295 1.154333
v -0.038486 0.210463 1.153901
v -0.029047 0.214337 1.152334
v -0.046433 0.249048 1.121012
v -0.026717 0.214589 1.142207
v -0.026906 0.215211 1.148744
v -0.046208 0.221631 1.145964
v -0.041547 0.208225 1.150775
v -0.036925 0.208632 1.138189
v -0.031071 0.212582 1.137277
v -0.034385 0.204319 1.140753
v -0.028925 0.207582 1.140518
v -0.024532 0.209919 1.145473
v -0.025430 0.211010 1.151187
v -0.028077 0.210931 1.154173
v -0.037678 0.202927 1.143403
v -0.039903 0.202823 1.147785
v -0.039973 0.205638 1.152161
v -0.036071 0.197312 1.147677
v -0.032013 0.197161 1.145624
v -0.020078 0.193615 1.159264
v -0.021063 0.198247 1.155485
v -0.021607 0.196341 1.153697
v -0.020666 0.191968 1.157007
v -0.021907 0.201707 1.150141
v -0.022634 0.199165 1.150101
v -0.026132 0.198042 1.147245
v -0.025129 0.193754 1.151550
v -0.029752 0.192490 1.150473
v -0.028363 0.187677 1.153381
v -0.023647 0.188647 1.154397
v -0.029258 0.195686 1.147410
v -0.020816 0.188684 1.158609
v -0.021121 0.188361 1.161219
v -0.026265 0.200358 1.145031
v -0.023590 0.207099 1.152880
v -0.021932 0.199574 1.158167
v -0.021727 0.194121 1.162089
v -0.023479 0.188210 1.163225
v -0.025056 0.199559 1.161055
v -0.024525 0.193963 1.163765
v -0.026011 0.189064 1.164037
v -0.029443 0.198731 1.162738
v -0.028609 0.193076 1.164622
v -0.031770 0.208177 1.157146
v -0.027119 0.208621 1.155977
v -0.028043 0.190394 1.164408
v -0.023643 0.184650 1.159152
v -0.025828 0.184957 1.161786
v -0.023248 0.185608 1.157537
v -0.031869 0.192172 1.150584
v -0.030293 0.187284 1.154554
v -0.034312 0.192020 1.152038
v -0.032020 0.186789 1.156254
v -0.028044 0.184075 1.157239
v -0.026596 0.184562 1.156330
v -0.032314 0.210315 1.155307
v -0.037390 0.208089 1.154516
v -0.036963 0.206188 1.156107
v -0.034094 0.196696 1.161318
v -0.039563 0.203260 1.153316
v -0.038421 0.198744 1.150205
v -0.036156 0.192917 1.154053
v -0.036410 0.194274 1.157851
v -0.033787 0.187204 1.157571
v -0.034558 0.189832 1.159497
v -0.032285 0.191902 1.163253
v -0.030927 0.184601 1.160219
v -0.029245 0.183890 1.158602
v -0.027554 0.186124 1.162786
v -0.032372 0.187085 1.161281
v -0.029789 0.188432 1.163562
v -0.062394 0.228125 1.139020
v -0.068157 0.227703 1.140185
v -0.069011 0.232172 1.139891
v -0.063234 0.232307 1.138707
v -0.060460 0.226672 1.126150
v -0.058453 0.227057 1.130732
v -0.058878 0.231099 1.130185
v -0.061042 0.231696 1.125102
v -0.065100 0.224155 1.123999
v -0.066370 0.230793 1.122364
v -0.061770 0.236488 1.123446
v -0.059692 0.235283 1.129267
v -0.062948 0.250334 1.127712
v -0.064766 0.249743 1.120999
v -0.059588 0.227759 1.135304
v -0.060035 0.231407 1.135050
v -0.077827 0.234329 1.135243
v -0.074702 0.235576 1.138697
v -0.074041 0.230831 1.138161
v -0.076656 0.229603 1.134877
v -0.068008 0.253936 1.136728
v -0.074258 0.254955 1.136052
v -0.064402 0.251304 1.133627
v -0.078360 0.233146 1.128885
v -0.074910 0.234208 1.122419
v -0.078624 0.248267 1.120699
v -0.081140 0.249566 1.126303
v -0.060454 0.235288 1.134615
v -0.069707 0.236749 1.140118
v -0.063837 0.236190 1.139006
v -0.067554 0.235881 1.121165
v -0.073217 0.228872 1.123847
v -0.070710 0.208146 1.131803
v -0.075828 0.224005 1.129533
v -0.075478 0.224951 1.135374
v -0.071704 0.208471 1.136123
v -0.077157 0.228058 1.129294
v -0.071845 0.223811 1.124795
v -0.060095 0.212541 1.142091
v -0.065565 0.211847 1.142620
v -0.057493 0.213799 1.138688
v -0.071062 0.248919 1.117494
v -0.080330 0.252633 1.132514
v -0.057124 0.212235 1.131308
v -0.056398 0.213386 1.135466
v -0.073041 0.226433 1.138551
v -0.070188 0.209912 1.140239
v -0.067502 0.209299 1.128274
v -0.061664 0.211433 1.127404
v -0.066576 0.204204 1.130286
v -0.060745 0.206367 1.129534
v -0.055952 0.207252 1.132929
v -0.055424 0.208749 1.137103
v -0.056659 0.209439 1.140329
v -0.069660 0.203180 1.133910
v -0.070384 0.203793 1.137815
v -0.069113 0.207821 1.140918
v -0.069001 0.199237 1.136318
v -0.064811 0.197608 1.133144
v -0.052828 0.190429 1.142727
v -0.053731 0.195565 1.140089
v -0.054474 0.194919 1.139320
v -0.053561 0.189522 1.141406
v -0.055129 0.200231 1.135479
v -0.055654 0.198329 1.135736
v -0.058988 0.197780 1.133730
v -0.058242 0.192147 1.136773
v -0.064244 0.192255 1.137604
v -0.062672 0.187842 1.139901
v -0.057137 0.187234 1.139031
v -0.063277 0.196386 1.134096
v -0.054015 0.186456 1.142436
v -0.052444 0.186264 1.143587
v -0.059414 0.199714 1.132359
v -0.053885 0.203614 1.138822
v -0.052965 0.197008 1.142552
v -0.051959 0.191880 1.145508
v -0.053271 0.187824 1.146872
v -0.054792 0.198258 1.145692
v -0.054000 0.193149 1.147653
v -0.055101 0.189446 1.148805
v -0.057535 0.198690 1.147553
v -0.056905 0.193928 1.148998
v -0.059253 0.207659 1.143611
v -0.055753 0.206118 1.141642
v -0.056966 0.190728 1.149379
v -0.056490 0.183682 1.142956
v -0.058016 0.184695 1.146814
v -0.056700 0.184914 1.141743
v -0.066004 0.192867 1.137925
v -0.064579 0.187213 1.141229
v -0.067710 0.193862 1.140034
v -0.066112 0.188228 1.143334
v -0.061702 0.184216 1.142447
v -0.060947 0.184777 1.141634
v -0.060054 0.210151 1.142527
v -0.065088 0.209604 1.142906
v -0.064084 0.207359 1.144059
v -0.062075 0.197853 1.148338
v -0.068228 0.205623 1.142366
v -0.069446 0.200098 1.139963
v -0.067630 0.195088 1.143099
v -0.065908 0.196182 1.146312
v -0.066086 0.189860 1.145644
v -0.064859 0.192017 1.147135
v -0.060926 0.193363 1.149754
v -0.063100 0.187237 1.146897
v -0.062961 0.185052 1.144816
v -0.058929 0.187061 1.148803
v -0.062894 0.189375 1.148276
v -0.059709 0.189384 1.149632
v -0.078446 0.254418 1.134917
v -0.102069 0.236896 1.133691
v -0.105619 0.237976 1.135528
v -0.105393 0.241805 1.135443
v -0.101438 0.241318 1.134379
v -0.102307 0.237984 1.122347
v -0.100210 0.236489 1.126313
v -0.098729 0.240821 1.126128
v -0.100809 0.242209 1.122084
v -0.106988 0.239526 1.120877
v -0.105930 0.243646 1.120860
v -0.099781 0.245292 1.121593
v -0.097524 0.244541 1.125996
v -0.092071 0.259220 1.125417
v -0.094646 0.261417 1.120673
v -0.107230 0.270238 1.131792
v -0.103446 0.269729 1.136649
v -0.104465 0.262336 1.135127
v -0.107709 0.263713 1.131871
v -0.100314 0.236344 1.130303
v -0.098916 0.240495 1.131073
v -0.112302 0.249091 1.132221
v -0.109093 0.247588 1.135418
v -0.109300 0.243134 1.135557
v -0.113123 0.244066 1.133046
v -0.098450 0.267004 1.137534
v -0.094123 0.265163 1.136919
v -0.095046 0.260613 1.135730
v -0.100140 0.260394 1.136289
v -0.091473 0.258114 1.132488
v -0.113164 0.249281 1.128042
v -0.110920 0.248740 1.122551
v -0.107560 0.265406 1.122208
v -0.108451 0.265701 1.127149
v -0.097654 0.243808 1.130787
v -0.105015 0.245867 1.136016
v -0.100778 0.244672 1.134753
v -0.105287 0.246815 1.119842
v -0.111682 0.244595 1.123318
v -0.117243 0.231807 1.129355
v -0.115179 0.241023 1.128857
v -0.113711 0.240140 1.133484
v -0.116467 0.231549 1.132426
v -0.114131 0.244839 1.128521
v -0.112766 0.240351 1.123561
v -0.104524 0.228458 1.134015
v -0.109305 0.230195 1.135760
v -0.102816 0.227969 1.131155
v -0.100808 0.263259 1.118302
v -0.104970 0.228527 1.123908
v -0.102822 0.227389 1.127666
v -0.109663 0.238955 1.135513
v -0.113623 0.231157 1.134937
v -0.115437 0.231377 1.125131
v -0.110018 0.230595 1.122025
v -0.116098 0.226404 1.126147
v -0.110441 0.226110 1.123221
v -0.105115 0.224314 1.125780
v -0.103378 0.224949 1.129216
v -0.103477 0.225720 1.132380
v -0.117933 0.227324 1.130388
v -0.117087 0.227840 1.133338
v -0.114120 0.228626 1.135608
v -0.118296 0.223084 1.131686
v -0.115964 0.220259 1.128444
v -0.107444 0.211840 1.135107
v -0.106443 0.215364 1.133030
v -0.107382 0.215104 1.132253
v -0.107815 0.211356 1.134150
v -0.106293 0.219275 1.129075
v -0.107604 0.218125 1.129253
v -0.110620 0.219396 1.127581
v -0.111263 0.214714 1.130250
v -0.116457 0.215470 1.131725
v -0.116367 0.211630 1.133598
v -0.111876 0.211165 1.131834
v -0.114792 0.218574 1.128589
v -0.108998 0.208824 1.134622
v -0.108607 0.208091 1.135779
v -0.110445 0.220877 1.126076
v -0.103945 0.221416 1.131813
v -0.105335 0.215534 1.135361
v -0.106889 0.211014 1.137328
v -0.109373 0.208109 1.138010
v -0.105508 0.217324 1.137287
v -0.107190 0.211947 1.139499
v -0.109743 0.209264 1.140075
v -0.107291 0.219193 1.139529
v -0.108739 0.213678 1.140865
v -0.106346 0.225309 1.136872
v -0.104280 0.223257 1.134645
v -0.110302 0.210891 1.140689
v -0.112415 0.207142 1.135070
v -0.112728 0.207615 1.138059
v -0.112527 0.207932 1.133643
v -0.117569 0.216154 1.132419
v -0.117504 0.211570 1.134873
v -0.118579 0.217429 1.134439
v -0.117802 0.212204 1.136989
v -0.115844 0.208443 1.135677
v -0.115082 0.209129 1.134037
v -0.105772 0.226674 1.135562
v -0.109658 0.228140 1.136320
v -0.110534 0.226486 1.137565
v -0.111127 0.220453 1.140404
v -0.114948 0.226539 1.136594
v -0.117683 0.224992 1.134231
v -0.117893 0.218718 1.136862
v -0.115605 0.219844 1.139271
v -0.116997 0.212879 1.138989
v -0.114991 0.214369 1.140869
v -0.111787 0.214784 1.141755
v -0.114791 0.209727 1.139500
v -0.115530 0.208703 1.138029
v -0.112633 0.208911 1.139764
v -0.113930 0.211085 1.140706
v -0.112285 0.211003 1.140932
v -0.107988 0.268825 1.127978
v -0.021964 0.299013 1.162060
v -0.025771 0.295279 1.162032
v -0.035574 0.299773 1.175046
v -0.034149 0.294542 1.170327
v -0.032737 0.305366 1.177947
v -0.023375 0.311052 1.174074
v -0.028486 0.309679 1.176770
v -0.030169 0.293002 1.165636
v -0.018877 0.304193 1.163749
v -0.019144 0.309636 1.168625
v -0.017849 0.299778 1.169696
v -0.018095 0.305807 1.173623
v -0.022213 0.308701 1.178504
v -0.028566 0.308499 1.181006
v -0.032753 0.305800 1.181556
v -0.021808 0.295257 1.168144
v -0.026005 0.292056 1.168731
v -0.031758 0.291575 1.171265
v -0.020178 0.290149 1.175281
v -0.013557 0.291206 1.184239
v -0.013579 0.297989 1.202866
v -0.016920 0.300810 1.197458
v -0.014318 0.299312 1.196476
v -0.011046 0.297403 1.201495
v -0.017089 0.302177 1.192175
v -0.015306 0.300200 1.192364
v -0.013494 0.296961 1.188506
v -0.010643 0.294974 1.193123
v -0.012831 0.291820 1.187143
v -0.011410 0.289123 1.190306
v -0.007580 0.292901 1.197712
v -0.007900 0.295266 1.203455
v -0.005558 0.291017 1.202038
v -0.010360 0.294438 1.205933
v -0.013011 0.298000 1.187084
v -0.023992 0.305141 1.189801
v -0.021219 0.301268 1.197393
v -0.017663 0.296988 1.203333
v -0.013463 0.292784 1.206396
v -0.025820 0.298834 1.196996
v -0.021570 0.294295 1.201771
v -0.017740 0.290010 1.203813
v -0.028502 0.294454 1.195077
v -0.023369 0.290904 1.199600
v -0.034421 0.299272 1.182939
v -0.030709 0.304252 1.187174
v -0.019702 0.288932 1.201553
v -0.006535 0.289074 1.204666
v -0.010221 0.287217 1.205107
v -0.012916 0.286430 1.188030
v -0.008113 0.286980 1.194623
v -0.010226 0.284205 1.193864
v -0.016321 0.284539 1.185919
v -0.012846 0.282440 1.193632
v -0.007360 0.284655 1.199568
v -0.005994 0.287454 1.198553
v -0.035820 0.300779 1.178951
v -0.035216 0.295482 1.174560
v -0.034345 0.293946 1.178414
v -0.028655 0.288779 1.190583
v -0.030696 0.289314 1.176140
v -0.024660 0.288234 1.175141
v -0.020337 0.283633 1.185842
v -0.025115 0.284819 1.187292
v -0.016847 0.282354 1.194055
v -0.019788 0.283672 1.194686
v -0.022640 0.286930 1.197388
v -0.014684 0.283292 1.199283
v -0.010628 0.283025 1.199609
v -0.014960 0.286103 1.203025
v -0.017468 0.284117 1.198242
v -0.018317 0.286232 1.200551
v -0.103788 0.275709 1.138350
v -0.097521 0.274361 1.140213
v -0.099798 0.281266 1.140852
v -0.101607 0.291258 1.141443
v -0.108033 0.299672 1.138421
v -0.094762 0.291920 1.141689
v -0.093349 0.281611 1.141131
v -0.090294 0.271696 1.139610
v -0.089352 0.301028 1.140846
f 2 3 1
f 1 3 4
f 5 6 8
f 8 6 7
f 9 4 10
f 10 4 3
f 12 13 11
f 11 13 9
f 14 12 16
f 16 12 15
f 18 19 17
f 17 19 20
f 22 23 21
f 21 23 24
f 26 27 25
f 25 27 28
f 30 31 29
f 29 31 32
f 33 34 36
f 36 34 35
f 37 38 40
f 40 38 39
f 41 42 6
f 6 42 43
f 6 43 7
f 7 43 44
f 45 34 46
f 46 34 33
f 48 49 47
f 47 49 50
f 52 53 51
f 51 53 54
f 56 52 55
f 55 52 51
f 58 59 57
f 57 59 60
f 61 62 4
f 4 62 1
f 64 65 63
f 63 65 66
f 68 69 67
f 67 69 70
f 72 73 71
f 71 73 74
f 76 77 75
f 75 77 78
f 53 79 54
f 54 79 80
f 82 83 81
f 81 83 84
f 85 86 52
f 52 86 53
f 57 60 87
f 87 60 88
f 89 90 43
f 43 90 44
f 43 42 89
f 89 42 91
f 40 39 92
f 92 39 93
f 94 70 64
f 64 70 69
f 13 61 9
f 9 61 4
f 25 28 69
f 69 28 95
f 96 25 68
f 68 25 69
f 98 99 97
f 97 99 100
f 101 102 104
f 104 102 103
f 106 30 105
f 105 30 29
f 51 54 107
f 107 54 108
f 54 80 108
f 108 80 109
f 111 112 110
f 110 112 113
f 115 5 114
f 114 5 116
f 115 41 5
f 5 41 6
f 36 35 111
f 111 35 117
f 35 118 117
f 117 118 119
f 34 120 35
f 35 120 118
f 34 45 120
f 120 45 121
f 125 126 124
f 124 126 127
f 128 129 14
f 14 129 130
f 33 131 46
f 46 131 132
f 133 94 63
f 63 94 64
f 134 135 137
f 137 135 136
f 139 140 138
f 138 140 141
f 77 142 78
f 78 142 143
f 144 145 20
f 20 145 146
f 148 149 147
f 147 149 72
f 151 152 150
f 150 152 153
f 82 101 83
f 83 101 104
f 101 82 155
f 155 82 154
f 156 157 58
f 58 157 59
f 158 68 147
f 147 68 67
f 159 146 15
f 15 146 16
f 68 158 96
f 96 158 160
f 129 66 130
f 130 66 65
f 162 163 161
f 161 163 164
f 166 167 165
f 165 167 168
f 170 171 169
f 169 171 172
f 174 171 173
f 173 171 170
f 176 177 175
f 175 177 178
f 180 181 179
f 179 181 24
f 182 183 21
f 21 183 184
f 81 185 82
f 82 185 154
f 186 187 188
f 188 187 144
f 158 71 160
f 160 71 189
f 190 135 157
f 157 135 59
f 169 172 139
f 139 172 140
f 147 72 158
f 158 72 71
f 192 193 191
f 191 193 194
f 167 166 49
f 49 166 195
f 196 190 50
f 50 190 157
f 197 198 200
f 200 198 199
f 21 24 182
f 182 24 181
f 146 159 20
f 20 159 17
f 182 181 81
f 81 181 185
f 201 185 180
f 180 185 181
f 202 203 83
f 83 203 84
f 205 206 204
f 204 206 85
f 207 22 184
f 184 22 21
f 179 24 208
f 208 24 23
f 208 209 179
f 179 209 205
f 209 210 205
f 205 210 206
f 212 206 211
f 211 206 210
f 179 205 180
f 180 205 204
f 213 176 88
f 88 176 214
f 86 85 212
f 212 85 206
f 193 217 218
f 217 219 218
f 218 219 220
f 219 18 220
f 220 18 17
f 19 221 20
f 20 221 144
f 222 223 225
f 225 223 224
f 175 226 176
f 176 226 214
f 227 87 214
f 214 87 88
f 220 17 228
f 228 17 159
f 134 213 60
f 60 213 88
f 138 229 151
f 151 229 152
f 193 192 210
f 210 192 211
f 230 194 218
f 218 194 193
f 231 232 228
f 228 232 230
f 233 234 91
f 91 234 89
f 235 236 93
f 93 236 92
f 230 232 234
f 234 232 237
f 47 238 48
f 48 238 239
f 240 191 235
f 235 191 236
f 5 8 116
f 116 8 241
f 242 243 189
f 189 243 160
f 244 245 98
f 98 245 99
f 156 246 47
f 47 246 238
f 76 247 77
f 77 247 248
f 250 125 249
f 249 125 124
f 252 253 251
f 251 253 254
f 111 110 36
f 36 110 255
f 256 33 255
f 255 33 36
f 257 258 154
f 154 258 155
f 63 169 133
f 133 169 139
f 66 170 63
f 63 170 169
f 173 170 129
f 129 170 66
f 129 128 173
f 173 128 259
f 128 260 259
f 259 260 261
f 213 134 262
f 262 134 137
f 263 264 186
f 186 264 187
f 112 265 113
f 113 265 266
f 11 267 268
f 234 233 230
f 230 233 194
f 153 269 70
f 70 269 67
f 175 178 165
f 165 178 141
f 150 153 94
f 94 153 70
f 271 221 270
f 270 221 207
f 269 153 272
f 272 153 152
f 121 45 109
f 109 45 108
f 47 50 156
f 156 50 157
f 57 273 58
f 58 273 274
f 145 275 260
f 260 275 261
f 276 149 143
f 143 149 78
f 148 269 75
f 75 269 272
f 207 277 270
f 270 277 278
f 195 196 49
f 49 196 50
f 59 135 60
f 60 135 134
f 83 104 202
f 202 104 279
f 149 148 78
f 78 148 75
f 247 278 248
f 248 278 277
f 183 182 84
f 84 182 81
f 48 239 281
f 281 239 282
f 227 223 283
f 283 223 222
f 223 226 224
f 224 226 168
f 281 282 224
f 224 282 225
f 165 168 175
f 175 168 226
f 264 263 138
f 138 263 229
f 14 16 128
f 128 16 260
f 220 228 218
f 218 228 230
f 87 227 284
f 284 227 283
f 260 16 145
f 145 16 146
f 244 98 258
f 258 98 155
f 58 274 156
f 156 274 246
f 107 285 51
f 51 285 55
f 243 286 160
f 160 286 96
f 234 237 89
f 89 237 90
f 46 132 107
f 107 132 285
f 253 252 249
f 249 252 250
f 286 26 96
f 96 26 25
f 106 105 287
f 287 105 288
f 272 152 289
f 289 152 229
f 138 151 139
f 139 151 133
f 183 290 161
f 161 290 162
f 291 292 277
f 277 292 293
f 151 150 133
f 133 150 94
f 262 275 177
f 177 275 187
f 144 187 145
f 145 187 275
f 273 57 284
f 284 57 87
f 174 136 190
f 190 136 135
f 111 117 112
f 112 117 38
f 117 119 38
f 38 119 123
f 112 38 265
f 265 38 37
f 287 288 254
f 254 288 251
f 228 159 231
f 231 159 15
f 223 227 226
f 226 227 214
f 147 67 148
f 148 67 269
f 224 168 281
f 281 168 167
f 199 163 200
f 200 163 162
f 45 46 108
f 108 46 107
f 281 167 48
f 48 167 49
f 161 164 291
f 291 164 292
f 38 123 39
f 293 294 277
f 277 294 248
f 284 283 296
f 296 283 295
f 284 296 273
f 273 296 297
f 274 273 298
f 298 273 297
f 246 274 299
f 299 274 298
f 283 222 295
f 295 222 300
f 222 225 300
f 300 225 301
f 301 225 302
f 302 225 282
f 303 304 300
f 300 304 295
f 306 307 305
f 305 307 308
f 309 310 308
f 308 310 305
f 308 307 312
f 312 307 311
f 313 314 312
f 312 314 315
f 311 316 312
f 312 316 313
f 317 304 311
f 311 304 316
f 315 309 312
f 312 309 308
f 318 319 321
f 321 319 320
f 319 318 309
f 309 318 310
f 311 307 317
f 317 307 306
f 306 297 317
f 317 297 296
f 306 322 297
f 297 322 298
f 305 323 306
f 306 323 322
f 323 305 324
f 324 305 310
f 304 317 295
f 295 317 296
f 318 325 310
f 310 325 324
f 323 324 326
f 326 324 327
f 324 325 327
f 327 325 328
f 326 327 329
f 329 327 330
f 329 331 326
f 326 331 332
f 333 330 328
f 328 330 327
f 323 326 322
f 322 326 332
f 322 332 298
f 298 332 299
f 325 318 334
f 334 318 321
f 313 316 335
f 335 316 304
f 335 336 313
f 313 336 314
f 304 303 335
f 335 303 337
f 336 335 338
f 338 335 337
f 336 339 314
f 314 339 340
f 246 299 238
f 238 299 341
f 239 342 282
f 282 342 302
f 342 239 341
f 341 239 238
f 341 331 342
f 342 331 343
f 331 329 343
f 343 329 344
f 342 343 302
f 302 343 345
f 341 299 331
f 331 299 332
f 346 301 345
f 345 301 302
f 346 303 301
f 301 303 300
f 347 337 346
f 346 337 303
f 347 346 348
f 348 346 345
f 349 347 350
f 350 347 348
f 343 344 345
f 345 344 348
f 344 351 348
f 348 351 350
f 337 347 338
f 338 347 349
f 353 338 352
f 352 338 349
f 352 355 354
f 354 355 356
f 352 349 355
f 355 349 350
f 352 354 353
f 353 354 334
f 353 334 339
f 339 334 321
f 339 336 353
f 353 336 338
f 329 330 344
f 344 330 351
f 356 351 333
f 333 351 330
f 356 355 351
f 351 355 350
f 354 356 328
f 328 356 333
f 328 325 354
f 354 325 334
f 309 315 319
f 319 315 320
f 320 340 321
f 321 340 339
f 320 315 340
f 340 315 314
f 137 136 261
f 261 136 259
f 140 166 141
f 141 166 165
f 172 171 195
f 195 171 196
f 171 174 196
f 196 174 190
f 178 177 264
f 264 177 187
f 172 195 140
f 140 195 166
f 137 261 262
f 262 261 275
f 178 264 141
f 141 264 138
f 262 177 213
f 213 177 176
f 136 174 259
f 259 174 173
f 358 359 357
f 357 359 360
f 362 363 361
f 361 363 364
f 361 364 365
f 365 364 366
f 367 368 370
f 370 368 369
f 76 371 247
f 247 371 372
f 373 374 362
f 362 374 363
f 376 377 375
f 375 377 378
f 289 229 380
f 380 229 379
f 381 379 263
f 263 379 229
f 383 384 382
f 382 384 385
f 386 368 374
f 374 368 363
f 76 289 371
f 371 289 380
f 377 376 359
f 359 376 387
f 388 386 360
f 360 386 374
f 389 383 366
f 366 383 390
f 392 393 391
f 391 393 394
f 383 382 390
f 390 382 395
f 396 365 390
f 390 365 366
f 389 366 367
f 367 366 364
f 357 397 358
f 358 397 398
f 373 399 357
f 357 399 397
f 389 367 400
f 400 367 370
f 382 385 375
f 375 385 372
f 357 360 373
f 373 360 374
f 361 401 362
f 362 401 402
f 387 388 359
f 359 388 360
f 363 368 364
f 364 368 367
f 358 398 403
f 403 398 404
f 396 392 405
f 405 392 391
f 392 395 393
f 393 395 378
f 393 403 394
f 394 403 404
f 375 378 382
f 382 378 395
f 365 396 406
f 406 396 405
f 362 402 373
f 373 402 399
f 271 270 400
f 400 270 384
f 401 361 406
f 406 361 365
f 381 369 386
f 386 369 368
f 392 396 395
f 395 396 390
f 393 378 403
f 403 378 377
f 403 377 358
f 358 377 359
f 406 405 408
f 408 405 407
f 406 408 401
f 401 408 409
f 401 409 402
f 402 409 410
f 402 410 399
f 399 410 411
f 405 391 407
f 407 391 412
f 391 394 412
f 412 394 413
f 394 404 413
f 413 404 414
f 415 416 412
f 412 416 407
f 418 419 417
f 417 419 420
f 421 422 418
f 418 422 419
f 419 422 424
f 424 422 423
f 425 426 424
f 424 426 427
f 423 428 424
f 424 428 425
f 427 420 424
f 424 420 419
f 420 429 417
f 417 429 430
f 423 422 431
f 431 422 421
f 421 409 431
f 431 409 408
f 421 432 409
f 409 432 410
f 418 433 421
f 421 433 432
f 434 433 417
f 417 433 418
f 431 416 423
f 423 416 428
f 416 431 407
f 407 431 408
f 435 434 430
f 430 434 417
f 433 434 436
f 436 434 437
f 434 435 437
f 437 435 438
f 436 437 439
f 439 437 440
f 439 441 436
f 436 441 442
f 438 443 437
f 437 443 440
f 436 442 433
f 433 442 432
f 432 442 410
f 410 442 411
f 435 430 445
f 445 430 444
f 430 429 444
f 444 429 446
f 425 428 447
f 447 428 416
f 426 425 448
f 448 425 447
f 416 415 447
f 447 415 449
f 447 449 448
f 448 449 450
f 451 452 448
f 448 452 426
f 446 452 444
f 444 452 451
f 399 411 397
f 397 411 453
f 398 454 404
f 404 454 414
f 454 398 453
f 453 398 397
f 453 441 454
f 454 441 455
f 441 439 455
f 455 439 456
f 454 455 414
f 414 455 457
f 441 453 442
f 442 453 411
f 458 413 457
f 457 413 414
f 458 415 413
f 413 415 412
f 458 459 415
f 415 459 449
f 459 458 460
f 460 458 457
f 461 459 462
f 462 459 460
f 455 456 457
f 457 456 460
f 456 463 460
f 460 463 462
f 459 461 449
f 449 461 450
f 465 450 464
f 464 450 461
f 464 467 466
f 466 467 468
f 464 461 467
f 467 461 462
f 464 466 465
f 465 466 445
f 465 445 451
f 451 445 444
f 451 448 465
f 465 448 450
f 439 440 456
f 456 440 463
f 468 463 443
f 443 463 440
f 468 467 463
f 463 467 462
f 466 468 438
f 438 468 443
f 438 435 466
f 466 435 445
f 420 427 429
f 429 427 446
f 446 427 452
f 452 427 426
f 370 369 188
f 188 369 186
f 371 376 372
f 372 376 375
f 380 379 387
f 387 379 388
f 379 381 388
f 388 381 386
f 385 384 278
f 278 384 270
f 380 387 371
f 371 387 376
f 400 370 271
f 271 370 188
f 385 278 372
f 372 278 247
f 400 384 389
f 389 384 383
f 369 381 186
f 186 381 263
f 221 271 144
f 144 271 188
f 221 19 207
f 207 19 22
f 19 18 22
f 22 18 23
f 18 219 23
f 23 219 208
f 469 470 472
f 472 470 471
f 474 475 473
f 473 475 476
f 473 476 477
f 477 476 478
f 480 481 479
f 479 481 482
f 483 484 474
f 474 484 475
f 486 487 485
f 485 487 488
f 489 490 77
f 77 490 142
f 491 489 248
f 248 489 77
f 493 494 492
f 492 494 495
f 496 480 484
f 484 480 475
f 486 497 487
f 487 497 471
f 498 496 472
f 472 496 484
f 499 493 478
f 478 493 500
f 501 502 504
f 504 502 503
f 493 492 500
f 500 492 505
f 506 477 500
f 500 477 478
f 499 478 479
f 479 478 476
f 469 507 470
f 470 507 508
f 483 509 469
f 469 509 507
f 479 482 499
f 499 482 510
f 492 495 485
f 485 495 511
f 483 469 484
f 484 469 472
f 473 512 474
f 474 512 513
f 497 498 471
f 471 498 472
f 475 480 476
f 476 480 479
f 470 508 514
f 514 508 515
f 506 502 516
f 516 502 501
f 503 502 488
f 488 502 505
f 514 515 503
f 503 515 504
f 485 488 492
f 492 488 505
f 477 506 517
f 517 506 516
f 474 513 483
f 483 513 509
f 510 292 494
f 494 292 164
f 512 473 517
f 517 473 477
f 491 481 496
f 496 481 480
f 502 506 505
f 505 506 500
f 503 488 514
f 514 488 487
f 514 487 470
f 470 487 471
f 517 516 519
f 519 516 518
f 517 519 512
f 512 519 520
f 512 520 513
f 513 520 521
f 513 521 509
f 509 521 522
f 516 501 518
f 518 501 523
f 501 504 523
f 523 504 524
f 524 504 525
f 525 504 515
f 526 527 523
f 523 527 518
f 529 530 528
f 528 530 531
f 532 533 529
f 529 533 530
f 530 533 535
f 535 533 534
f 536 537 535
f 535 537 538
f 534 539 535
f 535 539 536
f 538 531 535
f 535 531 530
f 540 541 531
f 531 541 528
f 533 532 534
f 534 532 542
f 532 520 542
f 542 520 519
f 532 543 520
f 520 543 521
f 529 544 532
f 532 544 543
f 544 529 545
f 545 529 528
f 534 542 539
f 539 542 527
f 527 542 518
f 518 542 519
f 541 546 528
f 528 546 545
f 547 544 548
f 548 544 545
f 546 549 545
f 545 549 548
f 550 547 551
f 551 547 548
f 547 550 553
f 553 550 552
f 549 554 548
f 548 554 551
f 544 547 543
f 543 547 553
f 543 553 521
f 521 553 522
f 546 541 556
f 556 541 555
f 541 540 555
f 555 540 557
f 536 539 558
f 558 539 527
f 537 536 559
f 559 536 558
f 527 526 558
f 558 526 560
f 559 558 561
f 561 558 560
f 559 562 537
f 537 562 563
f 557 563 555
f 555 563 562
f 509 522 507
f 507 522 564
f 508 565 515
f 515 565 525
f 565 508 564
f 564 508 507
f 564 552 565
f 565 552 566
f 552 550 566
f 566 550 567
f 565 566 525
f 525 566 568
f 564 522 552
f 552 522 553
f 569 524 568
f 568 524 525
f 569 526 524
f 524 526 523
f 570 560 569
f 569 560 526
f 570 569 571
f 571 569 568
f 572 570 573
f 573 570 571
f 566 567 568
f 568 567 571
f 567 574 571
f 571 574 573
f 570 572 560
f 560 572 561
f 576 561 575
f 575 561 572
f 575 578 577
f 577 578 579
f 575 572 578
f 578 572 573
f 575 577 576
f 576 577 556
f 576 556 562
f 562 556 555
f 562 559 576
f 576 559 561
f 550 551 567
f 567 551 574
f 579 574 554
f 554 574 551
f 579 578 574
f 574 578 573
f 579 554 577
f 577 554 549
f 549 546 577
f 577 546 556
f 531 538 540
f 540 538 557
f 557 538 563
f 563 538 537
f 481 294 482
f 482 294 293
f 580 486 511
f 511 486 485
f 490 489 497
f 497 489 498
f 489 491 498
f 498 491 496
f 163 495 164
f 164 495 494
f 580 490 486
f 486 490 497
f 482 293 510
f 510 293 292
f 495 163 511
f 511 163 199
f 494 493 510
f 510 493 499
f 481 491 294
f 294 491 248
f 582 583 581
f 581 583 584
f 586 587 585
f 585 587 588
f 585 588 589
f 589 588 590
f 592 593 591
f 591 593 594
f 595 596 598
f 598 596 597
f 599 600 586
f 586 600 587
f 601 602 604
f 604 602 603
f 605 606 608
f 608 606 607
f 609 607 200
f 200 607 606
f 610 611 613
f 613 611 612
f 600 614 587
f 587 614 592
f 596 605 597
f 597 605 608
f 602 615 603
f 603 615 583
f 616 614 584
f 584 614 600
f 611 618 617
f 617 618 590
f 620 621 619
f 619 621 622
f 610 623 611
f 611 623 618
f 624 589 618
f 618 589 590
f 617 590 591
f 591 590 588
f 581 625 582
f 582 625 626
f 599 627 581
f 581 627 625
f 591 594 617
f 617 594 628
f 601 610 598
f 598 610 613
f 581 584 599
f 599 584 600
f 585 629 586
f 586 629 630
f 615 616 583
f 583 616 584
f 587 592 588
f 588 592 591
f 582 626 631
f 631 626 632
f 624 620 633
f 633 620 619
f 621 620 604
f 604 620 623
f 631 632 621
f 621 632 622
f 610 601 623
f 623 601 604
f 589 624 634
f 634 624 633
f 586 630 599
f 599 630 627
f 203 202 628
f 628 202 612
f 629 585 634
f 634 585 589
f 609 593 614
f 614 593 592
f 620 624 623
f 623 624 618
f 631 621 603
f 603 621 604
f 582 631 583
f 583 631 603
f 634 633 636
f 636 633 635
f 634 636 629
f 629 636 637
f 629 637 630
f 630 637 638
f 630 638 627
f 627 638 639
f 633 619 635
f 635 619 640
f 619 622 640
f 640 622 641
f 641 622 642
f 642 622 632
f 644 635 643
f 643 635 640
f 645 646 648
f 648 646 647
f 649 650 646
f 646 650 647
f 647 650 652
f 652 650 651
f 652 653 655
f 655 653 654
f 651 656 652
f 652 656 653
f 655 648 652
f 652 648 647
f 648 657 645
f 645 657 658
f 650 649 651
f 651 649 659
f 649 637 659
f 659 637 636
f 649 660 637
f 637 660 638
f 661 660 646
f 646 660 649
f 662 661 645
f 645 661 646
f 651 659 656
f 656 659 644
f 644 659 635
f 635 659 636
f 663 662 658
f 658 662 645
f 664 661 665
f 665 661 662
f 663 666 662
f 662 666 665
f 667 664 668
f 668 664 665
f 664 667 670
f 670 667 669
f 666 671 665
f 665 671 668
f 661 664 660
f 660 664 670
f 660 670 638
f 638 670 639
f 658 672 663
f 663 672 673
f 658 657 672
f 672 657 674
f 653 656 675
f 675 656 644
f 653 675 654
f 654 675 676
f 675 644 677
f 677 644 643
f 676 675 678
f 678 675 677
f 679 680 676
f 676 680 654
f 674 680 672
f 672 680 679
f 627 639 625
f 625 639 681
f 626 682 632
f 632 682 642
f 681 682 625
f 625 682 626
f 669 683 681
f 681 683 682
f 667 684 669
f 669 684 683
f 682 683 642
f 642 683 685
f 681 639 669
f 669 639 670
f 686 641 685
f 685 641 642
f 641 686 640
f 640 686 643
f 686 687 643
f 643 687 677
f 687 686 688
f 688 686 685
f 689 687 690
f 690 687 688
f 683 684 685
f 685 684 688
f 684 691 688
f 688 691 690
f 687 689 677
f 677 689 678
f 693 678 692
f 692 678 689
f 692 695 694
f 694 695 696
f 692 689 695
f 695 689 690
f 692 694 693
f 693 694 673
f 693 673 679
f 679 673 672
f 679 676 693
f 693 676 678
f 684 667 691
f 691 667 668
f 696 691 671
f 671 691 668
f 696 695 691
f 691 695 690
f 694 696 666
f 666 696 671
f 666 663 694
f 694 663 673
f 648 655 657
f 657 655 674
f 674 655 680
f 680 655 654
f 593 162 594
f 594 162 290
f 598 597 601
f 601 597 602
f 615 608 616
f 616 608 607
f 607 609 616
f 616 609 614
f 697 595 613
f 613 595 598
f 597 608 602
f 602 608 615
f 594 290 628
f 628 290 203
f 628 612 617
f 617 612 611
f 593 609 162
f 162 609 200
f 105 29 698
f 698 29 699
f 268 126 701
f 701 126 700
f 126 125 700
f 700 125 702
f 252 703 250
f 250 703 704
f 32 268 705
f 705 268 701
f 288 105 706
f 706 105 698
f 29 32 699
f 699 32 705
f 707 251 706
f 706 251 288
f 250 704 125
f 125 704 702
f 703 252 707
f 707 252 251
f 706 708 707
f 707 708 709
f 707 709 703
f 703 709 710
f 703 710 704
f 704 710 711
f 704 711 702
f 702 711 712
f 706 698 708
f 708 698 713
f 698 699 713
f 713 699 714
f 699 705 714
f 714 705 715
f 717 708 716
f 716 708 713
f 719 720 718
f 718 720 721
f 722 723 719
f 719 723 720
f 724 725 723
f 723 725 720
f 724 726 725
f 725 726 727
f 728 721 725
f 725 721 720
f 721 728 729
f 729 728 730
f 729 731 721
f 721 731 718
f 724 723 732
f 732 723 722
f 722 710 732
f 732 710 709
f 722 733 710
f 710 733 711
f 719 734 722
f 722 734 733
f 734 719 735
f 735 719 718
f 724 732 726
f 726 732 717
f 717 732 708
f 708 732 709
f 731 736 718
f 718 736 735
f 737 734 738
f 738 734 735
f 736 739 735
f 735 739 738
f 740 737 741
f 741 737 738
f 737 740 743
f 743 740 742
f 739 744 738
f 738 744 741
f 734 737 733
f 733 737 743
f 733 743 711
f 711 743 712
f 736 731 746
f 746 731 745
f 731 729 745
f 745 729 730
f 727 726 747
f 747 726 717
f 748 727 749
f 749 727 747
f 747 717 750
f 750 717 716
f 749 747 751
f 751 747 750
f 749 752 748
f 748 752 753
f 730 753 745
f 745 753 752
f 728 725 748
f 748 725 727
f 730 728 753
f 753 728 748
f 700 702 754
f 754 702 712
f 705 701 715
f 715 701 755
f 754 755 700
f 700 755 701
f 742 756 754
f 754 756 755
f 740 757 742
f 742 757 756
f 755 756 715
f 715 756 758
f 754 712 742
f 742 712 743
f 759 714 758
f 758 714 715
f 714 759 713
f 713 759 716
f 759 760 716
f 716 760 750
f 760 759 761
f 761 759 758
f 762 760 763
f 763 760 761
f 756 757 758
f 758 757 761
f 757 764 761
f 761 764 763
f 760 762 750
f 750 762 751
f 766 751 765
f 765 751 762
f 767 765 769
f 769 765 768
f 765 762 768
f 768 762 763
f 765 767 766
f 766 767 746
f 766 746 752
f 752 746 745
f 752 749 766
f 766 749 751
f 757 740 764
f 764 740 741
f 769 764 744
f 744 764 741
f 769 768 764
f 764 768 763
f 767 769 739
f 739 769 744
f 739 736 767
f 767 736 746
f 219 217 208
f 208 217 209
f 209 217 210
f 210 217 193
f 198 580 199
f 199 580 511
f 76 75 289
f 289 75 272
f 277 207 291
f 291 207 184
f 290 183 203
f 203 183 84
f 490 580 142
f 142 580 198
f 142 198 143
f 143 198 197
f 149 276 72
f 72 276 73
f 104 103 279
f 279 103 770
f 770 596 279
f 279 596 595
f 605 596 771
f 771 596 770
f 771 770 772
f 772 770 103
f 772 103 773
f 773 103 102
f 155 774 101
f 101 774 102
f 773 102 97
f 97 102 774
f 775 773 100
f 100 773 97
f 773 775 772
f 772 775 776
f 772 776 771
f 771 776 777
f 200 606 197
f 197 606 777
f 189 71 778
f 778 71 74
f 97 774 98
f 98 774 155
f 183 161 184
f 184 161 291
f 777 276 197
f 197 276 143
f 777 606 771
f 771 606 605
f 613 612 697
f 697 612 202
f 595 697 279
f 279 697 202
f 73 276 776
f 776 276 777
f 776 775 73
f 73 775 74
f 100 778 775
f 775 778 74
f 778 100 189
f 189 100 99
f 245 242 99
f 99 242 189
f 131 33 256
f 28 1 95
f 95 1 62
f 27 2 28
f 28 2 1
f 265 115 266
f 266 115 114
f 95 62 69
f 69 62 64
f 62 61 64
f 64 61 65
f 61 13 65
f 65 13 130
f 13 12 130
f 130 12 14
f 31 11 32
f 32 11 268
f 15 12 31
f 31 12 11
f 31 30 15
f 15 30 231
f 30 106 231
f 231 106 232
f 287 237 106
f 106 237 232
f 254 90 287
f 287 90 237
f 253 44 254
f 254 44 90
f 253 249 44
f 44 249 7
f 267 127 268
f 268 127 126
f 10 3 241
f 241 3 116
f 3 2 116
f 116 2 114
f 2 27 114
f 114 27 266
f 27 26 266
f 266 26 113
f 26 286 113
f 113 286 110
f 286 243 110
f 110 243 255
f 243 242 255
f 255 242 256
f 242 245 256
f 256 245 131
f 245 244 131
f 131 244 132
f 265 37 115
f 115 37 41
f 41 37 42
f 42 37 40
f 92 91 40
f 40 91 42
f 236 233 92
f 92 233 91
f 191 194 236
f 236 194 233
f 258 285 244
f 244 285 132
f 257 55 258
f 258 55 285
f 257 154 201
f 201 154 185
f 56 201 204
f 204 201 180
f 55 257 56
f 56 257 201
f 204 85 56
f 56 85 52
f 86 122 53
f 53 122 79
f 212 215 86
f 86 215 122
f 211 216 212
f 212 216 215
f 192 280 211
f 211 280 216
f 191 240 192
f 192 240 280
f 249 124 7
f 7 124 8
f 124 127 8
f 8 127 241
f 127 267 241
f 241 267 10
f 10 267 9
f 9 267 11
o hand_right
v 0.046988 0.212312 1.150933
v 0.052617 0.220527 1.155544
v 0.042529 0.216907 1.156444
v 0.037600 0.210451 1.151419
v 0.046125 0.233102 1.170151
v 0.041728 0.244774 1.170197
v 0.028829 0.234308 1.168526
v 0.034855 0.225774 1.169252
v 0.029906 0.208746 1.149116
v 0.034427 0.213616 1.156414
v 0.026811 0.210482 1.143823
v 0.023988 0.206792 1.133493
v 0.026129 0.204609 1.140975
v 0.022191 0.200743 1.128398
v 0.028328 0.214094 1.125818
v 0.027158 0.200162 1.120069
v 0.055643 0.209293 1.118521
v 0.068446 0.205477 1.120858
v 0.061471 0.190413 1.118520
v 0.048857 0.195371 1.117035
v 0.080548 0.190151 1.127426
v 0.069866 0.189343 1.122153
v 0.077168 0.204453 1.123357
v 0.086405 0.204237 1.128091
v 0.062822 0.212866 1.152206
v 0.068683 0.221618 1.155846
v 0.063282 0.222000 1.154686
v 0.057514 0.213708 1.151339
v 0.019827 0.217871 1.143234
v 0.024583 0.225106 1.136819
v 0.025139 0.216929 1.137543
v 0.021706 0.213515 1.146401
v 0.087106 0.238680 1.170256
v 0.092518 0.250651 1.166614
v 0.087381 0.253192 1.164984
v 0.083684 0.241655 1.168269
v 0.063704 0.256699 1.166185
v 0.071891 0.262380 1.160774
v 0.068249 0.272002 1.151363
v 0.059518 0.266293 1.152941
v 0.052346 0.250705 1.169680
v 0.048750 0.260370 1.159650
v 0.037496 0.252598 1.162255
v 0.024518 0.240411 1.162637
v 0.104357 0.245357 1.167191
v 0.102051 0.235896 1.170439
v 0.011385 0.160280 1.148141
v 0.017037 0.159359 1.150195
v 0.017763 0.161628 1.148487
v 0.012030 0.162090 1.146619
v 0.115210 0.234281 1.153904
v 0.116214 0.234482 1.143713
v 0.119657 0.240385 1.146391
v 0.117236 0.241414 1.155540
v 0.112344 0.224880 1.151840
v 0.110802 0.226464 1.140559
v 0.007438 0.150026 1.141211
v 0.006064 0.154366 1.143824
v 0.006916 0.156058 1.139599
v 0.009106 0.152136 1.136358
v 0.032156 0.204257 1.146259
v 0.041354 0.204419 1.148597
v 0.025817 0.189051 1.141480
v 0.032862 0.194482 1.143408
v 0.027143 0.198331 1.141279
v 0.022034 0.193209 1.138707
v 0.056211 0.191181 1.147421
v 0.061028 0.201811 1.149620
v 0.054612 0.202372 1.148084
v 0.047610 0.191392 1.146131
v 0.073574 0.198071 1.155376
v 0.067888 0.187842 1.152404
v 0.075610 0.186711 1.156099
v 0.078085 0.194241 1.158433
v 0.055860 0.171808 1.145409
v 0.053176 0.165390 1.141848
v 0.056066 0.163324 1.143242
v 0.059507 0.170811 1.146288
v 0.122939 0.246526 1.147826
v 0.118468 0.248545 1.156460
v 0.098250 0.188468 1.139718
v 0.103598 0.190206 1.149543
v 0.101146 0.178047 1.148716
v 0.096068 0.179553 1.138644
v 0.111213 0.235892 1.134523
v 0.116835 0.241040 1.136583
v 0.012270 0.146116 1.140101
v 0.014100 0.148118 1.135510
v 0.038920 0.256053 1.148997
v 0.023485 0.243220 1.153012
v 0.052163 0.263736 1.144862
v 0.061978 0.268050 1.141068
v 0.068628 0.273724 1.139256
v 0.036340 0.188770 1.143863
v 0.050501 0.206605 1.149137
v 0.067533 0.211762 1.153668
v 0.092560 0.199247 1.167148
v 0.096299 0.209160 1.169551
v 0.085891 0.209104 1.166973
v 0.084972 0.200442 1.164770
v 0.102271 0.189082 1.159189
v 0.095573 0.188212 1.163632
v 0.092821 0.178872 1.161446
v 0.099346 0.178605 1.157437
v 0.015441 0.224030 1.143378
v 0.024010 0.232669 1.137626
v 0.110688 0.235458 1.163532
v 0.110985 0.243300 1.163453
v 0.113557 0.251268 1.161924
v 0.076677 0.230818 1.163690
v 0.081227 0.243779 1.167124
v 0.076855 0.244984 1.166953
v 0.074171 0.231660 1.162137
v 0.057330 0.228290 1.163216
v 0.059776 0.240018 1.169691
v 0.046390 0.222203 1.164161
v 0.081144 0.258270 1.163109
v 0.091152 0.262802 1.164562
v 0.083938 0.267200 1.161481
v 0.099993 0.258486 1.165617
v 0.107953 0.254331 1.165021
v 0.122777 0.247108 1.135740
v 0.077363 0.270329 1.157119
v 0.027311 0.220861 1.167367
v 0.020683 0.216926 1.165797
v 0.024236 0.212002 1.160649
v 0.030703 0.214981 1.161770
v 0.019235 0.192029 1.125487
v 0.018797 0.193182 1.133442
v 0.022651 0.201317 1.136016
v 0.087382 0.226948 1.170184
v 0.100005 0.225143 1.170626
v 0.029521 0.183495 1.141603
v 0.010966 0.156096 1.132571
v 0.008261 0.160072 1.136393
v 0.013584 0.177118 1.129812
v 0.016412 0.172879 1.124917
v 0.031463 0.173537 1.137173
v 0.028821 0.179287 1.140961
v 0.029129 0.176766 1.140525
v 0.032549 0.171255 1.138746
v 0.064957 0.163998 1.146378
v 0.067767 0.170246 1.149276
v 0.041927 0.180833 1.119199
v 0.031964 0.188188 1.113842
v 0.037582 0.199511 1.115746
v 0.063221 0.190099 1.149979
v 0.059603 0.180118 1.148275
v 0.063503 0.178884 1.149489
v 0.037791 0.184074 1.143168
v 0.033609 0.178777 1.140773
v 0.038518 0.178148 1.141514
v 0.043263 0.183498 1.144042
v 0.107693 0.202677 1.149455
v 0.106486 0.201438 1.160998
v 0.007474 0.158264 1.146086
v 0.008016 0.159987 1.143359
v 0.067805 0.200577 1.152039
v 0.044507 0.212301 1.119356
v 0.072528 0.210505 1.155689
v 0.079656 0.169418 1.133537
v 0.080508 0.165968 1.139686
v 0.076218 0.161201 1.138575
v 0.075591 0.161871 1.132607
v 0.028417 0.158003 1.143243
v 0.025199 0.161066 1.147083
v 0.023453 0.158735 1.148019
v 0.026447 0.154363 1.145021
v 0.024386 0.183243 1.141260
v 0.019490 0.186703 1.138853
v 0.018761 0.180737 1.140298
v 0.024312 0.178531 1.141363
v 0.016314 0.186036 1.133490
v 0.014711 0.180192 1.135343
v 0.028069 0.154197 1.137745
v 0.022794 0.151640 1.132676
v 0.029202 0.166777 1.125459
v 0.032431 0.166388 1.132776
v 0.092244 0.218083 1.127776
v 0.101373 0.215736 1.133950
v 0.095826 0.201930 1.134382
v 0.091227 0.188527 1.134055
v 0.085484 0.176125 1.134452
v 0.076567 0.178113 1.126019
v 0.102282 0.201715 1.139453
v 0.035823 0.171508 1.129158
v 0.033570 0.176298 1.121780
v 0.038247 0.174477 1.123145
v 0.078272 0.207959 1.159814
v 0.008959 0.163417 1.141016
v 0.076419 0.259377 1.124087
v 0.088238 0.252952 1.122116
v 0.082217 0.246573 1.122067
v 0.068818 0.253689 1.125126
v 0.018900 0.164018 1.148164
v 0.012788 0.165369 1.145962
v 0.073682 0.166741 1.150332
v 0.070474 0.162171 1.146689
v 0.073240 0.159922 1.144575
v 0.078013 0.162128 1.149261
v 0.105942 0.216012 1.137864
v 0.099406 0.170916 1.147126
v 0.095252 0.172301 1.138608
v 0.105865 0.228050 1.133423
v 0.098217 0.230183 1.127504
v 0.103010 0.238702 1.127577
v 0.061591 0.174373 1.122483
v 0.084304 0.218028 1.124017
v 0.091018 0.230935 1.124679
v 0.096409 0.241178 1.124607
v 0.101049 0.248138 1.124229
v 0.107762 0.244725 1.127663
v 0.016602 0.152692 1.131675
v 0.020891 0.146355 1.136932
v 0.113946 0.251289 1.126358
v 0.105899 0.254948 1.123147
v 0.082248 0.232888 1.122211
v 0.071275 0.235787 1.120893
v 0.076044 0.220295 1.121886
v 0.064713 0.221978 1.120170
v 0.055061 0.179984 1.116272
v 0.019644 0.141627 1.154435
v 0.023554 0.146205 1.145103
v 0.024799 0.151263 1.147931
v 0.022075 0.144822 1.156207
v 0.025861 0.149830 1.141040
v 0.019065 0.144405 1.141757
v 0.050892 0.226666 1.122153
v 0.035509 0.171941 1.138559
v 0.055615 0.243016 1.126042
v 0.034019 0.226885 1.125803
v 0.037093 0.238911 1.131130
v 0.058402 0.259922 1.131630
v 0.043206 0.253451 1.135942
v 0.073268 0.270294 1.129721
v 0.066936 0.264136 1.129981
v 0.029549 0.245206 1.141208
v 0.012141 0.156232 1.157031
v 0.017949 0.154872 1.157715
v 0.081828 0.265712 1.123419
v 0.037321 0.217851 1.162961
v 0.080184 0.218284 1.163348
v 0.075829 0.219717 1.159959
v 0.097983 0.215430 1.170264
v 0.086466 0.217077 1.168269
v 0.007250 0.154433 1.155129
v 0.053497 0.161463 1.137021
v 0.054923 0.162486 1.138199
v 0.021990 0.227949 1.167821
v 0.016784 0.223698 1.166439
v 0.010542 0.228510 1.155476
v 0.012308 0.227418 1.162506
v 0.017580 0.233631 1.162709
v 0.015990 0.235410 1.155208
v 0.078639 0.229674 1.165106
v 0.081748 0.227946 1.166898
v 0.110439 0.214337 1.150912
v 0.108594 0.212725 1.162288
v 0.016750 0.184189 1.127157
v 0.023071 0.188995 1.118803
v 0.020232 0.180963 1.121966
v 0.022899 0.170732 1.122399
v 0.034714 0.169153 1.134199
v 0.033444 0.172094 1.131245
v 0.069132 0.242716 1.168392
v 0.067571 0.231255 1.161793
v 0.029470 0.212371 1.154756
v 0.024520 0.210359 1.153266
v 0.051263 0.183503 1.145808
v 0.054513 0.165775 1.122990
v 0.048849 0.169916 1.118380
v 0.046942 0.175657 1.143027
v 0.005621 0.146396 1.152510
v 0.005330 0.151206 1.153961
v 0.026500 0.178983 1.118795
v 0.070926 0.177062 1.153500
v 0.060700 0.168669 1.127070
v 0.055233 0.162149 1.129244
v 0.097605 0.172447 1.156015
v 0.093395 0.260251 1.122045
v 0.022778 0.156087 1.150601
v 0.022062 0.151571 1.157283
v 0.015982 0.140593 1.152188
v 0.010092 0.142312 1.150556
v 0.108781 0.223608 1.163485
v 0.072754 0.220299 1.157770
v 0.019734 0.236624 1.145179
v 0.012460 0.227533 1.148005
v 0.044721 0.170381 1.140920
v 0.086642 0.170282 1.137142
v 0.072927 0.169512 1.126299
v 0.069143 0.161857 1.126316
v 0.061377 0.161117 1.127364
v 0.056132 0.159715 1.132681
v 0.015109 0.139316 1.158196
v 0.009337 0.140974 1.156533
v 0.005003 0.145461 1.157810
v 0.004817 0.150094 1.158352
v 0.007519 0.153610 1.158527
v 0.018990 0.140639 1.160481
v 0.021086 0.143955 1.161666
v 0.021652 0.150225 1.160361
v 0.018924 0.141608 1.165581
v 0.014011 0.139655 1.167179
v 0.004328 0.149323 1.171767
v 0.004458 0.146035 1.166618
v 0.005380 0.145032 1.169157
v 0.005511 0.147067 1.173876
v 0.006225 0.147769 1.179090
v 0.004781 0.150580 1.177446
v 0.008448 0.141819 1.167253
v 0.009090 0.143986 1.173883
v 0.013190 0.142730 1.174141
v 0.012976 0.144032 1.179697
v 0.009285 0.144975 1.179695
v 0.012369 0.140979 1.169725
v 0.008257 0.140811 1.164710
v 0.006724 0.150320 1.181752
v 0.006992 0.147797 1.181999
v 0.009766 0.146015 1.182698
v 0.010531 0.148380 1.184572
v 0.004685 0.150744 1.162985
v 0.004658 0.151946 1.171261
v 0.006672 0.153158 1.176995
v 0.008460 0.152558 1.181276
v 0.007905 0.154550 1.172011
v 0.009298 0.154573 1.176615
v 0.011303 0.153961 1.180130
v 0.012123 0.155609 1.172668
v 0.012549 0.154976 1.176670
v 0.011759 0.154844 1.161667
v 0.007596 0.153912 1.160826
v 0.013099 0.154832 1.179209
v 0.012108 0.149978 1.184459
v 0.016602 0.142465 1.172533
v 0.015973 0.145167 1.179255
v 0.018653 0.143883 1.172270
v 0.018158 0.146106 1.179007
v 0.014802 0.146077 1.183590
v 0.012651 0.145203 1.182455
v 0.012566 0.155175 1.158830
v 0.018562 0.153576 1.159594
v 0.017994 0.153258 1.162078
v 0.016953 0.154412 1.172794
v 0.021077 0.150249 1.163393
v 0.020897 0.145119 1.166245
v 0.020023 0.146613 1.173005
v 0.020125 0.150185 1.173021
v 0.019074 0.148408 1.178159
v 0.018590 0.150845 1.177423
v 0.016168 0.154001 1.177112
v 0.017218 0.150074 1.181495
v 0.016252 0.147675 1.182990
v 0.013985 0.152009 1.182408
v 0.017532 0.151396 1.180084
v 0.014916 0.153053 1.180119
v 0.031599 0.133103 1.140656
v 0.037642 0.131590 1.142166
v 0.038239 0.136958 1.140870
v 0.032907 0.137726 1.139750
v 0.029512 0.131139 1.127140
v 0.027525 0.132647 1.132755
v 0.028136 0.136914 1.131202
v 0.031323 0.135319 1.125402
v 0.035558 0.129458 1.124560
v 0.037489 0.134186 1.123241
v 0.032373 0.140245 1.123820
v 0.029547 0.142279 1.130189
v 0.035191 0.163096 1.128526
v 0.037719 0.161205 1.121918
v 0.049021 0.160785 1.139308
v 0.050926 0.158632 1.136346
v 0.028825 0.133174 1.137618
v 0.029577 0.137608 1.136214
v 0.047655 0.139054 1.138094
v 0.043676 0.140787 1.141548
v 0.042868 0.135256 1.140834
v 0.046463 0.133407 1.137012
v 0.037751 0.164676 1.136747
v 0.043658 0.163579 1.138477
v 0.035656 0.163849 1.133553
v 0.049022 0.137454 1.131785
v 0.046846 0.137003 1.125222
v 0.051115 0.155972 1.122111
v 0.053153 0.155467 1.128320
v 0.030016 0.143004 1.135868
v 0.038264 0.142133 1.142004
v 0.033365 0.143052 1.140444
v 0.039419 0.138812 1.122221
v 0.044691 0.131761 1.126046
v 0.041290 0.115345 1.134323
v 0.045630 0.126836 1.132407
v 0.045039 0.127803 1.137487
v 0.041679 0.115113 1.139403
v 0.047421 0.131760 1.131628
v 0.042538 0.127486 1.127196
v 0.029516 0.117937 1.144901
v 0.035388 0.116274 1.146008
v 0.026149 0.118457 1.141870
v 0.044532 0.158593 1.119180
v 0.026808 0.119485 1.131586
v 0.024968 0.119349 1.137871
v 0.042393 0.129660 1.141412
v 0.039621 0.115061 1.143811
v 0.038773 0.116131 1.130513
v 0.032698 0.118934 1.128106
v 0.036594 0.111164 1.131943
v 0.030888 0.113336 1.130227
v 0.024899 0.114166 1.133693
v 0.023856 0.114666 1.139436
v 0.025490 0.114693 1.143086
v 0.039197 0.110089 1.135341
v 0.040061 0.109819 1.140149
v 0.038303 0.112010 1.144489
v 0.037641 0.103719 1.138554
v 0.034462 0.103096 1.135370
v 0.020109 0.095753 1.144189
v 0.021175 0.100938 1.141268
v 0.022589 0.099413 1.139609
v 0.021660 0.094545 1.142122
v 0.022812 0.105142 1.136731
v 0.024015 0.102805 1.136747
v 0.028350 0.102701 1.135088
v 0.027051 0.097800 1.138544
v 0.031935 0.097528 1.138885
v 0.030807 0.092200 1.140838
v 0.025905 0.092180 1.140374
v 0.031700 0.100944 1.136068
v 0.022022 0.091166 1.143454
v 0.021604 0.090562 1.145993
v 0.028637 0.105246 1.133230
v 0.022462 0.110350 1.140186
v 0.020922 0.102042 1.144166
v 0.020706 0.096169 1.147418
v 0.023228 0.090562 1.148634
v 0.022982 0.102211 1.147871
v 0.022840 0.096294 1.149882
v 0.025160 0.091740 1.150266
v 0.026740 0.101961 1.150784
v 0.026571 0.096044 1.151926
v 0.028626 0.112333 1.146845
v 0.024524 0.112077 1.144321
v 0.026660 0.093349 1.151355
v 0.025336 0.087662 1.144578
v 0.026520 0.088000 1.147789
v 0.025249 0.088748 1.143002
v 0.033935 0.097573 1.139654
v 0.032339 0.092005 1.142542
v 0.035820 0.097679 1.141773
v 0.033531 0.091618 1.144669
v 0.030119 0.088135 1.144137
v 0.028940 0.088468 1.142849
v 0.029269 0.114736 1.145407
v 0.034710 0.113608 1.146095
v 0.034187 0.111462 1.147353
v 0.031908 0.100993 1.150770
v 0.038027 0.109425 1.145330
v 0.038803 0.105221 1.141766
v 0.036759 0.098617 1.144320
v 0.035591 0.099495 1.148078
v 0.034709 0.092160 1.146500
v 0.034301 0.094606 1.148745
v 0.030641 0.095729 1.151721
v 0.031807 0.088758 1.147912
v 0.030869 0.087985 1.145794
v 0.027583 0.089312 1.149366
v 0.032311 0.091301 1.149550
v 0.028948 0.091856 1.150975
v 0.051185 0.132958 1.143381
v 0.056370 0.132556 1.146096
v 0.057237 0.136981 1.146071
v 0.052023 0.137235 1.143314
v 0.053005 0.131698 1.130466
v 0.049750 0.131980 1.134286
v 0.050282 0.136169 1.133879
v 0.053818 0.136898 1.129634
v 0.058099 0.129245 1.129679
v 0.059750 0.136027 1.128504
v 0.054974 0.141818 1.128261
v 0.051270 0.140518 1.133193
v 0.055169 0.155466 1.133181
v 0.058937 0.155007 1.127354
v 0.049544 0.132602 1.139009
v 0.050000 0.136421 1.138878
v 0.066906 0.138853 1.144097
v 0.062947 0.140038 1.146557
v 0.062548 0.135613 1.145838
v 0.065933 0.134484 1.143423
v 0.057308 0.158636 1.143229
v 0.063429 0.159140 1.144599
v 0.054803 0.156271 1.139167
v 0.069199 0.137892 1.138089
v 0.067810 0.139207 1.130947
v 0.072206 0.152873 1.131178
v 0.072903 0.153782 1.137322
v 0.050505 0.140406 1.138525
v 0.057771 0.141356 1.146523
v 0.052492 0.141054 1.143748
v 0.061196 0.141125 1.127699
v 0.065795 0.133989 1.131866
v 0.061728 0.113218 1.138433
v 0.066771 0.129133 1.137935
v 0.064806 0.129972 1.143474
v 0.061496 0.113462 1.142872
v 0.068007 0.133067 1.138164
v 0.064304 0.128943 1.132283
v 0.048574 0.117026 1.145529
v 0.053725 0.116528 1.147519
v 0.046962 0.118257 1.141572
v 0.065991 0.154018 1.125900
v 0.070254 0.156587 1.143059
v 0.048674 0.116814 1.134373
v 0.046786 0.117863 1.138171
v 0.061540 0.131352 1.145866
v 0.058870 0.114762 1.146451
v 0.059536 0.114329 1.134229
v 0.054114 0.116248 1.131857
v 0.058435 0.109178 1.135839
v 0.052966 0.111048 1.133603
v 0.047436 0.111558 1.135520
v 0.045692 0.112870 1.139340
v 0.045937 0.113537 1.142789
v 0.060464 0.108161 1.140066
v 0.060044 0.108661 1.144008
v 0.057773 0.112500 1.146724
v 0.059472 0.104118 1.142090
v 0.056445 0.102410 1.137852
v 0.042930 0.094072 1.143280
v 0.044152 0.099365 1.141271
v 0.045119 0.098798 1.140708
v 0.044045 0.093278 1.142184
v 0.046432 0.104356 1.137458
v 0.047013 0.102457 1.137778
v 0.050779 0.102217 1.136787
v 0.049630 0.096405 1.139239
v 0.055111 0.096814 1.141729
v 0.053295 0.092241 1.143274
v 0.048305 0.091364 1.140846
v 0.054867 0.101048 1.138290
v 0.044445 0.090227 1.143170
v 0.042614 0.089859 1.143816
v 0.051367 0.104256 1.135702
v 0.044060 0.107494 1.140367
v 0.042635 0.100620 1.143448
v 0.041198 0.095300 1.145768
v 0.042399 0.091280 1.147258
v 0.043423 0.101812 1.147004
v 0.042473 0.096566 1.148450
v 0.043479 0.092887 1.149706
v 0.045486 0.102341 1.149559
v 0.044817 0.097453 1.150587
v 0.047609 0.111695 1.146555
v 0.044909 0.109994 1.143646
v 0.044995 0.094240 1.150839
v 0.046873 0.087587 1.144250
v 0.047179 0.088469 1.148416
v 0.047319 0.088933 1.143220
v 0.056645 0.097521 1.142564
v 0.054804 0.091650 1.145064
v 0.057610 0.098522 1.145089
v 0.055601 0.092646 1.147562
v 0.051951 0.088464 1.145269
v 0.051401 0.089030 1.144308
v 0.048572 0.114405 1.145851
v 0.053303 0.114065 1.147596
v 0.052105 0.111612 1.148341
v 0.049630 0.101705 1.151533
v 0.056625 0.110152 1.147804
v 0.058808 0.104839 1.145700
v 0.056590 0.099574 1.148024
v 0.053956 0.100380 1.150611
v 0.054813 0.094137 1.149832
v 0.053036 0.096119 1.150962
v 0.048464 0.097077 1.152420
v 0.051799 0.091289 1.150051
v 0.052420 0.089235 1.147941
v 0.047305 0.090745 1.150685
v 0.051051 0.093318 1.151392
v 0.047635 0.093052 1.151804
v 0.067713 0.158355 1.144813
v 0.081138 0.136821 1.148635
v 0.084046 0.137072 1.151653
v 0.084809 0.140325 1.151941
v 0.081395 0.140778 1.149621
v 0.085472 0.138154 1.138132
v 0.081822 0.137124 1.140954
v 0.081492 0.141553 1.140733
v 0.085034 0.142369 1.137792
v 0.090564 0.138514 1.138554
v 0.090345 0.142388 1.138626
v 0.085212 0.145814 1.137685
v 0.081483 0.145713 1.141007
v 0.081838 0.161904 1.140858
v 0.086488 0.163318 1.137580
v 0.095685 0.167639 1.153731
v 0.090517 0.167811 1.156877
v 0.089938 0.160475 1.154823
v 0.094417 0.160906 1.153134
v 0.080536 0.136815 1.144772
v 0.079913 0.141038 1.145465
v 0.094229 0.145085 1.152066
v 0.089808 0.144567 1.153847
v 0.088621 0.140691 1.153527
v 0.093113 0.140738 1.152609
v 0.085192 0.166440 1.155571
v 0.081341 0.165758 1.153216
v 0.081216 0.161457 1.151732
v 0.085183 0.159784 1.154042
v 0.078750 0.160356 1.147171
v 0.096355 0.145212 1.148365
v 0.095801 0.145595 1.142484
v 0.098299 0.163014 1.144327
v 0.097386 0.162743 1.149319
v 0.079923 0.144551 1.145488
v 0.085432 0.144254 1.152876
v 0.081780 0.144145 1.150363
v 0.091100 0.145397 1.137978
v 0.094982 0.141898 1.142969
v 0.095601 0.129021 1.149122
v 0.095652 0.138069 1.149019
v 0.092533 0.137405 1.152859
v 0.093783 0.128846 1.151678
v 0.095674 0.141160 1.148754
v 0.095126 0.138058 1.143094
v 0.081656 0.128123 1.148927
v 0.085794 0.128843 1.152292
v 0.080965 0.128102 1.145649
v 0.093282 0.163293 1.138026
v 0.085542 0.128408 1.139658
v 0.082044 0.127631 1.142305
v 0.087928 0.137115 1.153193
v 0.090229 0.128955 1.153010
v 0.095348 0.129100 1.144570
v 0.091283 0.129407 1.139793
v 0.094908 0.124238 1.145192
v 0.090613 0.124904 1.140670
v 0.084495 0.123841 1.141169
v 0.081828 0.124662 1.143780
v 0.080933 0.125278 1.146821
v 0.095307 0.124714 1.149846
v 0.093538 0.125267 1.152399
v 0.090069 0.126391 1.153641
v 0.094833 0.120442 1.150702
v 0.093463 0.118096 1.146665
v 0.082533 0.110458 1.149626
v 0.082573 0.114142 1.147711
v 0.083668 0.113831 1.147238
v 0.083120 0.109997 1.148776
v 0.084014 0.118237 1.144294
v 0.085093 0.116951 1.144765
v 0.088599 0.117915 1.144222
v 0.087916 0.113116 1.146487
v 0.092445 0.113167 1.149511
v 0.091386 0.109353 1.150890
v 0.087640 0.109519 1.147846
v 0.092162 0.116571 1.146320
v 0.083852 0.107368 1.149343
v 0.083055 0.106593 1.150231
v 0.089013 0.119444 1.142850
v 0.081150 0.120541 1.146273
v 0.080815 0.114298 1.149569
v 0.081234 0.109558 1.151451
v 0.083096 0.106392 1.152565
v 0.080567 0.115957 1.151567
v 0.080923 0.110304 1.153676
v 0.082883 0.107345 1.154743
v 0.081703 0.117497 1.154370
v 0.082123 0.111794 1.155577
v 0.082154 0.123922 1.152043
v 0.080769 0.122234 1.149135
v 0.083388 0.108878 1.155618
v 0.086778 0.105323 1.150644
v 0.086193 0.105540 1.153589
v 0.087391 0.106178 1.149448
v 0.093315 0.113676 1.150547
v 0.092038 0.109090 1.152410
v 0.093717 0.114718 1.152885
v 0.091697 0.109550 1.154548
v 0.089945 0.106176 1.152369
v 0.089785 0.107045 1.150683
v 0.082057 0.125742 1.150668
v 0.085589 0.126662 1.152756
v 0.085905 0.124592 1.154091
v 0.085110 0.118274 1.156452
v 0.090416 0.124086 1.154627
v 0.093596 0.122316 1.153090
v 0.092419 0.115942 1.155057
v 0.089618 0.117199 1.156714
v 0.090377 0.110177 1.156249
v 0.088034 0.111764 1.157541
v 0.084804 0.112511 1.157415
v 0.087872 0.107306 1.155764
v 0.088941 0.106309 1.154510
v 0.085693 0.106728 1.155280
v 0.086801 0.108665 1.156760
v 0.085183 0.108760 1.156461
v 0.097479 0.166263 1.150275
v 0.009058 0.212901 1.147822
v 0.012638 0.208882 1.148329
v 0.015206 0.207405 1.164988
v 0.016047 0.204191 1.158561
v 0.011409 0.212457 1.168107
v 0.004679 0.220477 1.163148
v 0.008276 0.217620 1.166932
v 0.014825 0.205002 1.152434
v 0.005589 0.217652 1.149854
v 0.003545 0.221447 1.156106
v -0.000151 0.211522 1.151332
v -0.002349 0.215936 1.157707
v -0.001474 0.216457 1.164914
v 0.004491 0.214464 1.169420
v 0.008411 0.211167 1.170562
v 0.005762 0.207474 1.150389
v 0.009723 0.204147 1.151562
v 0.013533 0.201981 1.156286
v 0.002010 0.199842 1.153396
v -0.006959 0.196943 1.158615
v -0.013708 0.194336 1.177393
v -0.009736 0.199584 1.175031
v -0.011295 0.198584 1.172706
v -0.015259 0.194238 1.175121
v -0.008549 0.203429 1.171014
v -0.009431 0.201472 1.169761
v -0.009156 0.200407 1.164558
v -0.012504 0.196006 1.166960
v -0.008183 0.196358 1.161275
v -0.009720 0.192289 1.162636
v -0.016058 0.191706 1.169038
v -0.018195 0.191182 1.174811
v -0.018777 0.187900 1.171160
v -0.016712 0.189581 1.177430
v -0.010346 0.202354 1.163126
v -0.002791 0.207491 1.173171
v -0.006367 0.200314 1.176977
v -0.010199 0.193584 1.179170
v -0.013730 0.188196 1.178448
v -0.001868 0.198554 1.177701
v -0.005782 0.192178 1.178464
v -0.008663 0.187198 1.177042
v 0.001965 0.195559 1.175591
v -0.002828 0.190214 1.176029
v 0.009895 0.204540 1.169954
v 0.004380 0.207566 1.173617
v -0.006081 0.187386 1.175497
v -0.018316 0.185161 1.172870
v -0.014803 0.183728 1.173905
v -0.007226 0.191069 1.160235
v -0.013308 0.188117 1.164356
v -0.010720 0.186283 1.163448
v -0.003195 0.190408 1.159106
v -0.008028 0.185000 1.163573
v -0.014997 0.183820 1.167283
v -0.016463 0.186530 1.167040
v 0.012780 0.206915 1.168013
v 0.014691 0.203683 1.162192
v 0.012371 0.201672 1.164181
v 0.004564 0.192430 1.169742
v 0.011045 0.198698 1.158988
v 0.006588 0.198294 1.154926
v 0.000426 0.189691 1.160398
v 0.003630 0.190266 1.164076
v -0.004713 0.184930 1.165479
v -0.002689 0.185940 1.167703
v -0.001873 0.187687 1.172324
v -0.008363 0.183267 1.169394
v -0.011845 0.182627 1.167938
v -0.009837 0.184031 1.173692
v -0.005907 0.184591 1.169965
v -0.006314 0.185428 1.173072
v 0.091146 0.173645 1.159712
v 0.084535 0.173579 1.158892
v 0.087108 0.179913 1.161542
v 0.089736 0.189401 1.164456
v 0.097916 0.196664 1.165664
v 0.083536 0.191394 1.162074
v 0.081157 0.181593 1.159355
v 0.077741 0.172743 1.155228
v 0.080232 0.201422 1.160594
f 780 781 779
f 779 781 782
f 783 784 786
f 786 784 785
f 787 782 788
f 788 782 781
f 790 791 789
f 789 791 787
f 792 790 794
f 794 790 793
f 796 797 795
f 795 797 798
f 800 801 799
f 799 801 802
f 804 805 803
f 803 805 806
f 808 809 807
f 807 809 810
f 811 812 814
f 814 812 813
f 815 816 818
f 818 816 817
f 819 820 784
f 784 820 821
f 784 821 785
f 785 821 822
f 823 812 824
f 824 812 811
f 826 827 825
f 825 827 828
f 830 831 829
f 829 831 832
f 834 830 833
f 833 830 829
f 836 837 835
f 835 837 838
f 839 840 782
f 782 840 779
f 842 843 841
f 841 843 844
f 846 847 845
f 845 847 848
f 850 851 849
f 849 851 852
f 854 855 853
f 853 855 856
f 831 857 832
f 832 857 858
f 860 861 859
f 859 861 862
f 863 864 830
f 830 864 831
f 835 838 865
f 865 838 866
f 867 868 821
f 821 868 822
f 821 820 867
f 867 820 869
f 818 817 870
f 870 817 871
f 872 848 842
f 842 848 847
f 791 839 787
f 787 839 782
f 803 806 847
f 847 806 873
f 874 803 846
f 846 803 847
f 876 877 875
f 875 877 878
f 879 880 882
f 882 880 881
f 884 808 883
f 883 808 807
f 829 832 885
f 885 832 886
f 832 858 886
f 886 858 887
f 889 890 888
f 888 890 891
f 893 783 892
f 892 783 894
f 893 819 783
f 783 819 784
f 814 813 889
f 889 813 895
f 813 896 895
f 895 896 897
f 812 898 813
f 813 898 896
f 812 823 898
f 898 823 899
f 903 904 902
f 902 904 905
f 906 907 792
f 792 907 908
f 811 909 824
f 824 909 910
f 911 872 841
f 841 872 842
f 912 913 915
f 915 913 914
f 917 918 916
f 916 918 919
f 855 920 856
f 856 920 921
f 922 923 798
f 798 923 924
f 926 927 925
f 925 927 850
f 929 930 928
f 928 930 931
f 860 879 861
f 861 879 882
f 879 860 933
f 933 860 932
f 934 935 836
f 836 935 837
f 936 846 925
f 925 846 845
f 937 924 793
f 793 924 794
f 846 936 874
f 874 936 938
f 907 844 908
f 908 844 843
f 940 941 939
f 939 941 942
f 944 945 943
f 943 945 946
f 948 949 947
f 947 949 950
f 952 949 951
f 951 949 948
f 954 955 953
f 953 955 956
f 958 959 957
f 957 959 802
f 960 961 799
f 799 961 962
f 859 963 860
f 860 963 932
f 964 965 966
f 966 965 922
f 936 849 938
f 938 849 967
f 968 913 935
f 935 913 837
f 947 950 917
f 917 950 918
f 925 850 936
f 936 850 849
f 970 971 969
f 969 971 972
f 945 944 827
f 827 944 973
f 974 968 828
f 828 968 935
f 975 976 978
f 978 976 977
f 799 802 960
f 960 802 959
f 924 937 798
f 798 937 795
f 960 959 859
f 859 959 963
f 979 963 958
f 958 963 959
f 980 981 861
f 861 981 862
f 983 984 982
f 982 984 863
f 985 800 962
f 962 800 799
f 957 802 986
f 986 802 801
f 986 987 957
f 957 987 983
f 987 988 983
f 983 988 984
f 990 984 989
f 989 984 988
f 957 983 958
f 958 983 982
f 991 954 866
f 866 954 992
f 864 863 990
f 990 863 984
f 971 995 996
f 995 997 996
f 996 997 998
f 997 796 998
f 998 796 795
f 797 999 798
f 798 999 922
f 1000 1001 1003
f 1003 1001 1002
f 953 1004 954
f 954 1004 992
f 1005 865 992
f 992 865 866
f 998 795 1006
f 1006 795 937
f 912 991 838
f 838 991 866
f 916 1007 929
f 929 1007 930
f 971 970 988
f 988 970 989
f 1008 972 996
f 996 972 971
f 1009 1010 1006
f 1006 1010 1008
f 1011 1012 869
f 869 1012 867
f 1013 1014 871
f 871 1014 870
f 1008 1010 1012
f 1012 1010 1015
f 825 1016 826
f 826 1016 1017
f 1018 969 1013
f 1013 969 1014
f 783 786 894
f 894 786 1019
f 1020 1021 967
f 967 1021 938
f 1022 1023 876
f 876 1023 877
f 934 1024 825
f 825 1024 1016
f 854 1025 855
f 855 1025 1026
f 1028 903 1027
f 1027 903 902
f 1030 1031 1029
f 1029 1031 1032
f 889 888 814
f 814 888 1033
f 1034 811 1033
f 1033 811 814
f 1035 1036 932
f 932 1036 933
f 841 947 911
f 911 947 917
f 844 948 841
f 841 948 947
f 951 948 907
f 907 948 844
f 907 906 951
f 951 906 1037
f 906 1038 1037
f 1037 1038 1039
f 991 912 1040
f 1040 912 915
f 1041 1042 964
f 964 1042 965
f 890 1043 891
f 891 1043 1044
f 789 1045 1046
f 1012 1011 1008
f 1008 1011 972
f 931 1047 848
f 848 1047 845
f 953 956 943
f 943 956 919
f 928 931 872
f 872 931 848
f 1049 999 1048
f 1048 999 985
f 1047 931 1050
f 1050 931 930
f 899 823 887
f 887 823 886
f 825 828 934
f 934 828 935
f 835 1051 836
f 836 1051 1052
f 923 1053 1038
f 1038 1053 1039
f 1054 927 921
f 921 927 856
f 926 1047 853
f 853 1047 1050
f 985 1055 1048
f 1048 1055 1056
f 973 974 827
f 827 974 828
f 837 913 838
f 838 913 912
f 861 882 980
f 980 882 1057
f 927 926 856
f 856 926 853
f 1025 1056 1026
f 1026 1056 1055
f 961 960 862
f 862 960 859
f 826 1017 1059
f 1059 1017 1060
f 1005 1001 1061
f 1061 1001 1000
f 1001 1004 1002
f 1002 1004 946
f 1059 1060 1002
f 1002 1060 1003
f 943 946 953
f 953 946 1004
f 1042 1041 916
f 916 1041 1007
f 792 794 906
f 906 794 1038
f 998 1006 996
f 996 1006 1008
f 865 1005 1062
f 1062 1005 1061
f 1038 794 923
f 923 794 924
f 1022 876 1036
f 1036 876 933
f 836 1052 934
f 934 1052 1024
f 885 1063 829
f 829 1063 833
f 1021 1064 938
f 938 1064 874
f 1012 1015 867
f 867 1015 868
f 824 910 885
f 885 910 1063
f 1031 1030 1027
f 1027 1030 1028
f 1064 804 874
f 874 804 803
f 884 883 1065
f 1065 883 1066
f 1050 930 1067
f 1067 930 1007
f 916 929 917
f 917 929 911
f 961 1068 939
f 939 1068 940
f 1069 1070 1055
f 1055 1070 1071
f 929 928 911
f 911 928 872
f 1040 1053 955
f 955 1053 965
f 922 965 923
f 923 965 1053
f 1051 835 1062
f 1062 835 865
f 952 914 968
f 968 914 913
f 889 895 890
f 890 895 816
f 895 897 816
f 816 897 901
f 890 816 1043
f 1043 816 815
f 1065 1066 1032
f 1032 1066 1029
f 1006 937 1009
f 1009 937 793
f 1001 1005 1004
f 1004 1005 992
f 925 845 926
f 926 845 1047
f 1002 946 1059
f 1059 946 945
f 977 941 978
f 978 941 940
f 823 824 886
f 886 824 885
f 1059 945 826
f 826 945 827
f 939 942 1069
f 1069 942 1070
f 816 901 817
f 1071 1072 1055
f 1055 1072 1026
f 1062 1061 1074
f 1074 1061 1073
f 1062 1074 1051
f 1051 1074 1075
f 1052 1051 1076
f 1076 1051 1075
f 1024 1052 1077
f 1077 1052 1076
f 1061 1000 1073
f 1073 1000 1078
f 1000 1003 1078
f 1078 1003 1079
f 1079 1003 1080
f 1080 1003 1060
f 1081 1082 1078
f 1078 1082 1073
f 1084 1085 1083
f 1083 1085 1086
f 1087 1088 1086
f 1086 1088 1083
f 1086 1085 1090
f 1090 1085 1089
f 1091 1092 1090
f 1090 1092 1093
f 1089 1094 1090
f 1090 1094 1091
f 1095 1082 1089
f 1089 1082 1094
f 1093 1087 1090
f 1090 1087 1086
f 1096 1097 1099
f 1099 1097 1098
f 1097 1096 1087
f 1087 1096 1088
f 1089 1085 1095
f 1095 1085 1084
f 1084 1075 1095
f 1095 1075 1074
f 1084 1100 1075
f 1075 1100 1076
f 1083 1101 1084
f 1084 1101 1100
f 1101 1083 1102
f 1102 1083 1088
f 1082 1095 1073
f 1073 1095 1074
f 1096 1103 1088
f 1088 1103 1102
f 1101 1102 1104
f 1104 1102 1105
f 1102 1103 1105
f 1105 1103 1106
f 1104 1105 1107
f 1107 1105 1108
f 1107 1109 1104
f 1104 1109 1110
f 1111 1108 1106
f 1106 1108 1105
f 1101 1104 1100
f 1100 1104 1110
f 1100 1110 1076
f 1076 1110 1077
f 1103 1096 1112
f 1112 1096 1099
f 1091 1094 1113
f 1113 1094 1082
f 1113 1114 1091
f 1091 1114 1092
f 1082 1081 1113
f 1113 1081 1115
f 1114 1113 1116
f 1116 1113 1115
f 1114 1117 1092
f 1092 1117 1118
f 1024 1077 1016
f 1016 1077 1119
f 1017 1120 1060
f 1060 1120 1080
f 1120 1017 1119
f 1119 1017 1016
f 1119 1109 1120
f 1120 1109 1121
f 1109 1107 1121
f 1121 1107 1122
f 1120 1121 1080
f 1080 1121 1123
f 1119 1077 1109
f 1109 1077 1110
f 1124 1079 1123
f 1123 1079 1080
f 1124 1081 1079
f 1079 1081 1078
f 1125 1115 1124
f 1124 1115 1081
f 1125 1124 1126
f 1126 1124 1123
f 1127 1125 1128
f 1128 1125 1126
f 1121 1122 1123
f 1123 1122 1126
f 1122 1129 1126
f 1126 1129 1128
f 1115 1125 1116
f 1116 1125 1127
f 1131 1116 1130
f 1130 1116 1127
f 1130 1133 1132
f 1132 1133 1134
f 1130 1127 1133
f 1133 1127 1128
f 1130 1132 1131
f 1131 1132 1112
f 1131 1112 1117
f 1117 1112 1099
f 1117 1114 1131
f 1131 1114 1116
f 1107 1108 1122
f 1122 1108 1129
f 1134 1129 1111
f 1111 1129 1108
f 1134 1133 1129
f 1129 1133 1128
f 1132 1134 1106
f 1106 1134 1111
f 1106 1103 1132
f 1132 1103 1112
f 1087 1093 1097
f 1097 1093 1098
f 1098 1118 1099
f 1099 1118 1117
f 1098 1093 1118
f 1118 1093 1092
f 915 914 1039
f 1039 914 1037
f 918 944 919
f 919 944 943
f 950 949 973
f 973 949 974
f 949 952 974
f 974 952 968
f 956 955 1042
f 1042 955 965
f 950 973 918
f 918 973 944
f 915 1039 1040
f 1040 1039 1053
f 956 1042 919
f 919 1042 916
f 1040 955 991
f 991 955 954
f 914 952 1037
f 1037 952 951
f 1136 1137 1135
f 1135 1137 1138
f 1140 1141 1139
f 1139 1141 1142
f 1139 1142 1143
f 1143 1142 1144
f 1145 1146 1148
f 1148 1146 1147
f 854 1149 1025
f 1025 1149 1150
f 1151 1152 1140
f 1140 1152 1141
f 1154 1155 1153
f 1153 1155 1156
f 1067 1007 1158
f 1158 1007 1157
f 1159 1157 1041
f 1041 1157 1007
f 1161 1162 1160
f 1160 1162 1163
f 1164 1146 1152
f 1152 1146 1141
f 854 1067 1149
f 1149 1067 1158
f 1155 1154 1137
f 1137 1154 1165
f 1166 1164 1138
f 1138 1164 1152
f 1167 1161 1144
f 1144 1161 1168
f 1170 1171 1169
f 1169 1171 1172
f 1161 1160 1168
f 1168 1160 1173
f 1174 1143 1168
f 1168 1143 1144
f 1167 1144 1145
f 1145 1144 1142
f 1135 1175 1136
f 1136 1175 1176
f 1151 1177 1135
f 1135 1177 1175
f 1167 1145 1178
f 1178 1145 1148
f 1160 1163 1153
f 1153 1163 1150
f 1135 1138 1151
f 1151 1138 1152
f 1139 1179 1140
f 1140 1179 1180
f 1165 1166 1137
f 1137 1166 1138
f 1141 1146 1142
f 1142 1146 1145
f 1136 1176 1181
f 1181 1176 1182
f 1174 1170 1183
f 1183 1170 1169
f 1170 1173 1171
f 1171 1173 1156
f 1171 1181 1172
f 1172 1181 1182
f 1153 1156 1160
f 1160 1156 1173
f 1143 1174 1184
f 1184 1174 1183
f 1140 1180 1151
f 1151 1180 1177
f 1049 1048 1178
f 1178 1048 1162
f 1179 1139 1184
f 1184 1139 1143
f 1159 1147 1164
f 1164 1147 1146
f 1170 1174 1173
f 1173 1174 1168
f 1171 1156 1181
f 1181 1156 1155
f 1181 1155 1136
f 1136 1155 1137
f 1184 1183 1186
f 1186 1183 1185
f 1184 1186 1179
f 1179 1186 1187
f 1179 1187 1180
f 1180 1187 1188
f 1180 1188 1177
f 1177 1188 1189
f 1183 1169 1185
f 1185 1169 1190
f 1169 1172 1190
f 1190 1172 1191
f 1172 1182 1191
f 1191 1182 1192
f 1193 1194 1190
f 1190 1194 1185
f 1196 1197 1195
f 1195 1197 1198
f 1199 1200 1196
f 1196 1200 1197
f 1197 1200 1202
f 1202 1200 1201
f 1203 1204 1202
f 1202 1204 1205
f 1201 1206 1202
f 1202 1206 1203
f 1205 1198 1202
f 1202 1198 1197
f 1198 1207 1195
f 1195 1207 1208
f 1201 1200 1209
f 1209 1200 1199
f 1199 1187 1209
f 1209 1187 1186
f 1199 1210 1187
f 1187 1210 1188
f 1196 1211 1199
f 1199 1211 1210
f 1212 1211 1195
f 1195 1211 1196
f 1209 1194 1201
f 1201 1194 1206
f 1194 1209 1185
f 1185 1209 1186
f 1213 1212 1208
f 1208 1212 1195
f 1211 1212 1214
f 1214 1212 1215
f 1212 1213 1215
f 1215 1213 1216
f 1214 1215 1217
f 1217 1215 1218
f 1217 1219 1214
f 1214 1219 1220
f 1216 1221 1215
f 1215 1221 1218
f 1214 1220 1211
f 1211 1220 1210
f 1210 1220 1188
f 1188 1220 1189
f 1213 1208 1223
f 1223 1208 1222
f 1208 1207 1222
f 1222 1207 1224
f 1203 1206 1225
f 1225 1206 1194
f 1204 1203 1226
f 1226 1203 1225
f 1194 1193 1225
f 1225 1193 1227
f 1225 1227 1226
f 1226 1227 1228
f 1229 1230 1226
f 1226 1230 1204
f 1224 1230 1222
f 1222 1230 1229
f 1177 1189 1175
f 1175 1189 1231
f 1176 1232 1182
f 1182 1232 1192
f 1232 1176 1231
f 1231 1176 1175
f 1231 1219 1232
f 1232 1219 1233
f 1219 1217 1233
f 1233 1217 1234
f 1232 1233 1192
f 1192 1233 1235
f 1219 1231 1220
f 1220 1231 1189
f 1236 1191 1235
f 1235 1191 1192
f 1236 1193 1191
f 1191 1193 1190
f 1236 1237 1193
f 1193 1237 1227
f 1237 1236 1238
f 1238 1236 1235
f 1239 1237 1240
f 1240 1237 1238
f 1233 1234 1235
f 1235 1234 1238
f 1234 1241 1238
f 1238 1241 1240
f 1237 1239 1227
f 1227 1239 1228
f 1243 1228 1242
f 1242 1228 1239
f 1242 1245 1244
f 1244 1245 1246
f 1242 1239 1245
f 1245 1239 1240
f 1242 1244 1243
f 1243 1244 1223
f 1243 1223 1229
f 1229 1223 1222
f 1229 1226 1243
f 1243 1226 1228
f 1217 1218 1234
f 1234 1218 1241
f 1246 1241 1221
f 1221 1241 1218
f 1246 1245 1241
f 1241 1245 1240
f 1244 1246 1216
f 1216 1246 1221
f 1216 1213 1244
f 1244 1213 1223
f 1198 1205 1207
f 1207 1205 1224
f 1224 1205 1230
f 1230 1205 1204
f 1148 1147 966
f 966 1147 964
f 1149 1154 1150
f 1150 1154 1153
f 1158 1157 1165
f 1165 1157 1166
f 1157 1159 1166
f 1166 1159 1164
f 1163 1162 1056
f 1056 1162 1048
f 1158 1165 1149
f 1149 1165 1154
f 1178 1148 1049
f 1049 1148 966
f 1163 1056 1150
f 1150 1056 1025
f 1178 1162 1167
f 1167 1162 1161
f 1147 1159 964
f 964 1159 1041
f 999 1049 922
f 922 1049 966
f 999 797 985
f 985 797 800
f 797 796 800
f 800 796 801
f 796 997 801
f 801 997 986
f 1247 1248 1250
f 1250 1248 1249
f 1252 1253 1251
f 1251 1253 1254
f 1251 1254 1255
f 1255 1254 1256
f 1258 1259 1257
f 1257 1259 1260
f 1261 1262 1252
f 1252 1262 1253
f 1264 1265 1263
f 1263 1265 1266
f 1267 1268 855
f 855 1268 920
f 1269 1267 1026
f 1026 1267 855
f 1271 1272 1270
f 1270 1272 1273
f 1274 1258 1262
f 1262 1258 1253
f 1264 1275 1265
f 1265 1275 1249
f 1276 1274 1250
f 1250 1274 1262
f 1277 1271 1256
f 1256 1271 1278
f 1279 1280 1282
f 1282 1280 1281
f 1271 1270 1278
f 1278 1270 1283
f 1284 1255 1278
f 1278 1255 1256
f 1277 1256 1257
f 1257 1256 1254
f 1247 1285 1248
f 1248 1285 1286
f 1261 1287 1247
f 1247 1287 1285
f 1257 1260 1277
f 1277 1260 1288
f 1270 1273 1263
f 1263 1273 1289
f 1261 1247 1262
f 1262 1247 1250
f 1251 1290 1252
f 1252 1290 1291
f 1275 1276 1249
f 1249 1276 1250
f 1253 1258 1254
f 1254 1258 1257
f 1248 1286 1292
f 1292 1286 1293
f 1284 1280 1294
f 1294 1280 1279
f 1281 1280 1266
f 1266 1280 1283
f 1292 1293 1281
f 1281 1293 1282
f 1263 1266 1270
f 1270 1266 1283
f 1255 1284 1295
f 1295 1284 1294
f 1252 1291 1261
f 1261 1291 1287
f 1288 1070 1272
f 1272 1070 942
f 1290 1251 1295
f 1295 1251 1255
f 1269 1259 1274
f 1274 1259 1258
f 1280 1284 1283
f 1283 1284 1278
f 1281 1266 1292
f 1292 1266 1265
f 1292 1265 1248
f 1248 1265 1249
f 1295 1294 1297
f 1297 1294 1296
f 1295 1297 1290
f 1290 1297 1298
f 1290 1298 1291
f 1291 1298 1299
f 1291 1299 1287
f 1287 1299 1300
f 1294 1279 1296
f 1296 1279 1301
f 1279 1282 1301
f 1301 1282 1302
f 1302 1282 1303
f 1303 1282 1293
f 1304 1305 1301
f 1301 1305 1296
f 1307 1308 1306
f 1306 1308 1309
f 1310 1311 1307
f 1307 1311 1308
f 1308 1311 1313
f 1313 1311 1312
f 1314 1315 1313
f 1313 1315 1316
f 1312 1317 1313
f 1313 1317 1314
f 1316 1309 1313
f 1313 1309 1308
f 1318 1319 1309
f 1309 1319 1306
f 1311 1310 1312
f 1312 1310 1320
f 1310 1298 1320
f 1320 1298 1297
f 1310 1321 1298
f 1298 1321 1299
f 1307 1322 1310
f 1310 1322 1321
f 1322 1307 1323
f 1323 1307 1306
f 1312 1320 1317
f 1317 1320 1305
f 1305 1320 1296
f 1296 1320 1297
f 1319 1324 1306
f 1306 1324 1323
f 1325 1322 1326
f 1326 1322 1323
f 1324 1327 1323
f 1323 1327 1326
f 1328 1325 1329
f 1329 1325 1326
f 1325 1328 1331
f 1331 1328 1330
f 1327 1332 1326
f 1326 1332 1329
f 1322 1325 1321
f 1321 1325 1331
f 1321 1331 1299
f 1299 1331 1300
f 1324 1319 1334
f 1334 1319 1333
f 1319 1318 1333
f 1333 1318 1335
f 1314 1317 1336
f 1336 1317 1305
f 1315 1314 1337
f 1337 1314 1336
f 1305 1304 1336
f 1336 1304 1338
f 1337 1336 1339
f 1339 1336 1338
f 1337 1340 1315
f 1315 1340 1341
f 1335 1341 1333
f 1333 1341 1340
f 1287 1300 1285
f 1285 1300 1342
f 1286 1343 1293
f 1293 1343 1303
f 1343 1286 1342
f 1342 1286 1285
f 1342 1330 1343
f 1343 1330 1344
f 1330 1328 1344
f 1344 1328 1345
f 1343 1344 1303
f 1303 1344 1346
f 1342 1300 1330
f 1330 1300 1331
f 1347 1302 1346
f 1346 1302 1303
f 1347 1304 1302
f 1302 1304 1301
f 1348 1338 1347
f 1347 1338 1304
f 1348 1347 1349
f 1349 1347 1346
f 1350 1348 1351
f 1351 1348 1349
f 1344 1345 1346
f 1346 1345 1349
f 1345 1352 1349
f 1349 1352 1351
f 1348 1350 1338
f 1338 1350 1339
f 1354 1339 1353
f 1353 1339 1350
f 1353 1356 1355
f 1355 1356 1357
f 1353 1350 1356
f 1356 1350 1351
f 1353 1355 1354
f 1354 1355 1334
f 1354 1334 1340
f 1340 1334 1333
f 1340 1337 1354
f 1354 1337 1339
f 1328 1329 1345
f 1345 1329 1352
f 1357 1352 1332
f 1332 1352 1329
f 1357 1356 1352
f 1352 1356 1351
f 1357 1332 1355
f 1355 1332 1327
f 1327 1324 1355
f 1355 1324 1334
f 1309 1316 1318
f 1318 1316 1335
f 1335 1316 1341
f 1341 1316 1315
f 1259 1072 1260
f 1260 1072 1071
f 1358 1264 1289
f 1289 1264 1263
f 1268 1267 1275
f 1275 1267 1276
f 1267 1269 1276
f 1276 1269 1274
f 941 1273 942
f 942 1273 1272
f 1358 1268 1264
f 1264 1268 1275
f 1260 1071 1288
f 1288 1071 1070
f 1273 941 1289
f 1289 941 977
f 1272 1271 1288
f 1288 1271 1277
f 1259 1269 1072
f 1072 1269 1026
f 1360 1361 1359
f 1359 1361 1362
f 1364 1365 1363
f 1363 1365 1366
f 1363 1366 1367
f 1367 1366 1368
f 1370 1371 1369
f 1369 1371 1372
f 1373 1374 1376
f 1376 1374 1375
f 1377 1378 1364
f 1364 1378 1365
f 1379 1380 1382
f 1382 1380 1381
f 1383 1384 1386
f 1386 1384 1385
f 1387 1385 978
f 978 1385 1384
f 1388 1389 1391
f 1391 1389 1390
f 1378 1392 1365
f 1365 1392 1370
f 1374 1383 1375
f 1375 1383 1386
f 1380 1393 1381
f 1381 1393 1361
f 1394 1392 1362
f 1362 1392 1378
f 1389 1396 1395
f 1395 1396 1368
f 1398 1399 1397
f 1397 1399 1400
f 1388 1401 1389
f 1389 1401 1396
f 1402 1367 1396
f 1396 1367 1368
f 1395 1368 1369
f 1369 1368 1366
f 1359 1403 1360
f 1360 1403 1404
f 1377 1405 1359
f 1359 1405 1403
f 1369 1372 1395
f 1395 1372 1406
f 1379 1388 1376
f 1376 1388 1391
f 1359 1362 1377
f 1377 1362 1378
f 1363 1407 1364
f 1364 1407 1408
f 1393 1394 1361
f 1361 1394 1362
f 1365 1370 1366
f 1366 1370 1369
f 1360 1404 1409
f 1409 1404 1410
f 1402 1398 1411
f 1411 1398 1397
f 1399 1398 1382
f 1382 1398 1401
f 1409 1410 1399
f 1399 1410 1400
f 1388 1379 1401
f 1401 1379 1382
f 1367 1402 1412
f 1412 1402 1411
f 1364 1408 1377
f 1377 1408 1405
f 981 980 1406
f 1406 980 1390
f 1407 1363 1412
f 1412 1363 1367
f 1387 1371 1392
f 1392 1371 1370
f 1398 1402 1401
f 1401 1402 1396
f 1409 1399 1381
f 1381 1399 1382
f 1360 1409 1361
f 1361 1409 1381
f 1412 1411 1414
f 1414 1411 1413
f 1412 1414 1407
f 1407 1414 1415
f 1407 1415 1408
f 1408 1415 1416
f 1408 1416 1405
f 1405 1416 1417
f 1411 1397 1413
f 1413 1397 1418
f 1397 1400 1418
f 1418 1400 1419
f 1419 1400 1420
f 1420 1400 1410
f 1422 1413 1421
f 1421 1413 1418
f 1423 1424 1426
f 1426 1424 1425
f 1427 1428 1424
f 1424 1428 1425
f 1425 1428 1430
f 1430 1428 1429
f 1430 1431 1433
f 1433 1431 1432
f 1429 1434 1430
f 1430 1434 1431
f 1433 1426 1430
f 1430 1426 1425
f 1426 1435 1423
f 1423 1435 1436
f 1428 1427 1429
f 1429 1427 1437
f 1427 1415 1437
f 1437 1415 1414
f 1427 1438 1415
f 1415 1438 1416
f 1439 1438 1424
f 1424 1438 1427
f 1440 1439 1423
f 1423 1439 1424
f 1429 1437 1434
f 1434 1437 1422
f 1422 1437 1413
f 1413 1437 1414
f 1441 1440 1436
f 1436 1440 1423
f 1442 1439 1443
f 1443 1439 1440
f 1441 1444 1440
f 1440 1444 1443
f 1445 1442 1446
f 1446 1442 1443
f 1442 1445 1448
f 1448 1445 1447
f 1444 1449 1443
f 1443 1449 1446
f 1439 1442 1438
f 1438 1442 1448
f 1438 1448 1416
f 1416 1448 1417
f 1436 1450 1441
f 1441 1450 1451
f 1436 1435 1450
f 1450 1435 1452
f 1431 1434 1453
f 1453 1434 1422
f 1431 1453 1432
f 1432 1453 1454
f 1453 1422 1455
f 1455 1422 1421
f 1454 1453 1456
f 1456 1453 1455
f 1457 1458 1454
f 1454 1458 1432
f 1452 1458 1450
f 1450 1458 1457
f 1405 1417 1403
f 1403 1417 1459
f 1404 1460 1410
f 1410 1460 1420
f 1459 1460 1403
f 1403 1460 1404
f 1447 1461 1459
f 1459 1461 1460
f 1445 1462 1447
f 1447 1462 1461
f 1460 1461 1420
f 1420 1461 1463
f 1459 1417 1447
f 1447 1417 1448
f 1464 1419 1463
f 1463 1419 1420
f 1419 1464 1418
f 1418 1464 1421
f 1464 1465 1421
f 1421 1465 1455
f 1465 1464 1466
f 1466 1464 1463
f 1467 1465 1468
f 1468 1465 1466
f 1461 1462 1463
f 1463 1462 1466
f 1462 1469 1466
f 1466 1469 1468
f 1465 1467 1455
f 1455 1467 1456
f 1471 1456 1470
f 1470 1456 1467
f 1470 1473 1472
f 1472 1473 1474
f 1470 1467 1473
f 1473 1467 1468
f 1470 1472 1471
f 1471 1472 1451
f 1471 1451 1457
f 1457 1451 1450
f 1457 1454 1471
f 1471 1454 1456
f 1462 1445 1469
f 1469 1445 1446
f 1474 1469 1449
f 1449 1469 1446
f 1474 1473 1469
f 1469 1473 1468
f 1472 1474 1444
f 1444 1474 1449
f 1444 1441 1472
f 1472 1441 1451
f 1426 1433 1435
f 1435 1433 1452
f 1452 1433 1458
f 1458 1433 1432
f 1371 940 1372
f 1372 940 1068
f 1376 1375 1379
f 1379 1375 1380
f 1393 1386 1394
f 1394 1386 1385
f 1385 1387 1394
f 1394 1387 1392
f 1475 1373 1391
f 1391 1373 1376
f 1375 1386 1380
f 1380 1386 1393
f 1372 1068 1406
f 1406 1068 981
f 1406 1390 1395
f 1395 1390 1389
f 1371 1387 940
f 940 1387 978
f 883 807 1476
f 1476 807 1477
f 1046 904 1479
f 1479 904 1478
f 904 903 1478
f 1478 903 1480
f 1030 1481 1028
f 1028 1481 1482
f 810 1046 1483
f 1483 1046 1479
f 1066 883 1484
f 1484 883 1476
f 807 810 1477
f 1477 810 1483
f 1485 1029 1484
f 1484 1029 1066
f 1028 1482 903
f 903 1482 1480
f 1481 1030 1485
f 1485 1030 1029
f 1484 1486 1485
f 1485 1486 1487
f 1485 1487 1481
f 1481 1487 1488
f 1481 1488 1482
f 1482 1488 1489
f 1482 1489 1480
f 1480 1489 1490
f 1484 1476 1486
f 1486 1476 1491
f 1476 1477 1491
f 1491 1477 1492
f 1477 1483 1492
f 1492 1483 1493
f 1495 1486 1494
f 1494 1486 1491
f 1497 1498 1496
f 1496 1498 1499
f 1500 1501 1497
f 1497 1501 1498
f 1502 1503 1501
f 1501 1503 1498
f 1502 1504 1503
f 1503 1504 1505
f 1506 1499 1503
f 1503 1499 1498
f 1499 1506 1507
f 1507 1506 1508
f 1507 1509 1499
f 1499 1509 1496
f 1502 1501 1510
f 1510 1501 1500
f 1500 1488 1510
f 1510 1488 1487
f 1500 1511 1488
f 1488 1511 1489
f 1497 1512 1500
f 1500 1512 1511
f 1512 1497 1513
f 1513 1497 1496
f 1502 1510 1504
f 1504 1510 1495
f 1495 1510 1486
f 1486 1510 1487
f 1509 1514 1496
f 1496 1514 1513
f 1515 1512 1516
f 1516 1512 1513
f 1514 1517 1513
f 1513 1517 1516
f 1518 1515 1519
f 1519 1515 1516
f 1515 1518 1521
f 1521 1518 1520
f 1517 1522 1516
f 1516 1522 1519
f 1512 1515 1511
f 1511 1515 1521
f 1511 1521 1489
f 1489 1521 1490
f 1514 1509 1524
f 1524 1509 1523
f 1509 1507 1523
f 1523 1507 1508
f 1505 1504 1525
f 1525 1504 1495
f 1526 1505 1527
f 1527 1505 1525
f 1525 1495 1528
f 1528 1495 1494
f 1527 1525 1529
f 1529 1525 1528
f 1527 1530 1526
f 1526 1530 1531
f 1508 1531 1523
f 1523 1531 1530
f 1506 1503 1526
f 1526 1503 1505
f 1508 1506 1531
f 1531 1506 1526
f 1478 1480 1532
f 1532 1480 1490
f 1483 1479 1493
f 1493 1479 1533
f 1532 1533 1478
f 1478 1533 1479
f 1520 1534 1532
f 1532 1534 1533
f 1518 1535 1520
f 1520 1535 1534
f 1533 1534 1493
f 1493 1534 1536
f 1532 1490 1520
f 1520 1490 1521
f 1537 1492 1536
f 1536 1492 1493
f 1492 1537 1491
f 1491 1537 1494
f 1537 1538 1494
f 1494 1538 1528
f 1538 1537 1539
f 1539 1537 1536
f 1540 1538 1541
f 1541 1538 1539
f 1534 1535 1536
f 1536 1535 1539
f 1535 1542 1539
f 1539 1542 1541
f 1538 1540 1528
f 1528 1540 1529
f 1544 1529 1543
f 1543 1529 1540
f 1545 1543 1547
f 1547 1543 1546
f 1543 1540 1546
f 1546 1540 1541
f 1543 1545 1544
f 1544 1545 1524
f 1544 1524 1530
f 1530 1524 1523
f 1530 1527 1544
f 1544 1527 1529
f 1535 1518 1542
f 1542 1518 1519
f 1547 1542 1522
f 1522 1542 1519
f 1547 1546 1542
f 1542 1546 1541
f 1545 1547 1517
f 1517 1547 1522
f 1517 1514 1545
f 1545 1514 1524
f 997 995 986
f 986 995 987
f 987 995 988
f 988 995 971
f 976 1358 977
f 977 1358 1289
f 854 853 1067
f 1067 853 1050
f 1055 985 1069
f 1069 985 962
f 1068 961 981
f 981 961 862
f 1268 1358 920
f 920 1358 976
f 920 976 921
f 921 976 975
f 927 1054 850
f 850 1054 851
f 882 881 1057
f 1057 881 1548
f 1548 1374 1057
f 1057 1374 1373
f 1383 1374 1549
f 1549 1374 1548
f 1549 1548 1550
f 1550 1548 881
f 1550 881 1551
f 1551 881 880
f 933 1552 879
f 879 1552 880
f 1551 880 875
f 875 880 1552
f 1553 1551 878
f 878 1551 875
f 1551 1553 1550
f 1550 1553 1554
f 1550 1554 1549
f 1549 1554 1555
f 978 1384 975
f 975 1384 1555
f 967 849 1556
f 1556 849 852
f 875 1552 876
f 876 1552 933
f 961 939 962
f 962 939 1069
f 1555 1054 975
f 975 1054 921
f 1555 1384 1549
f 1549 1384 1383
f 1391 1390 1475
f 1475 1390 980
f 1373 1475 1057
f 1057 1475 980
f 851 1054 1554
f 1554 1054 1555
f 1554 1553 851
f 851 1553 852
f 878 1556 1553
f 1553 1556 852
f 1556 878 967
f 967 878 877
f 1023 1020 877
f 877 1020 967
f 909 811 1034
f 806 779 873
f 873 779 840
f 805 780 806
f 806 780 779
f 1043 893 1044
f 1044 893 892
f 873 840 847
f 847 840 842
f 840 839 842
f 842 839 843
f 839 791 843
f 843 791 908
f 791 790 908
f 908 790 792
f 809 789 810
f 810 789 1046
f 793 790 809
f 809 790 789
f 809 808 793
f 793 808 1009
f 808 884 1009
f 1009 884 1010
f 1065 1015 884
f 884 1015 1010
f 1032 868 1065
f 1065 868 1015
f 1031 822 1032
f 1032 822 868
f 1031 1027 822
f 822 1027 785
f 1045 905 1046
f 1046 905 904
f 788 781 1019
f 1019 781 894
f 781 780 894
f 894 780 892
f 780 805 892
f 892 805 1044
f 805 804 1044
f 1044 804 891
f 804 1064 891
f 891 1064 888
f 1064 1021 888
f 888 1021 1033
f 1021 1020 1033
f 1033 1020 1034
f 1020 1023 1034
f 1034 1023 909
f 1023 1022 909
f 909 1022 910
f 1043 815 893
f 893 815 819
f 819 815 820
f 820 815 818
f 870 869 818
f 818 869 820
f 1014 1011 870
f 870 1011 869
f 969 972 1014
f 1014 972 1011
f 1036 1063 1022
f 1022 1063 910
f 1035 833 1036
f 1036 833 1063
f 1035 932 979
f 979 932 963
f 834 979 982
f 982 979 958
f 833 1035 834
f 834 1035 979
f 982 863 834
f 834 863 830
f 864 900 831
f 831 900 857
f 990 993 864
f 864 993 900
f 989 994 990
f 990 994 993
f 970 1058 989
f 989 1058 994
f 969 1018 970
f 970 1018 1058
f 1027 902 785
f 785 902 786
f 902 905 786
f 786 905 1019
f 905 1045 1019
f 1019 1045 788
f 788 1045 787
f 787 1045 789
