o hand_left
v -0.076683 0.325508 1.102616
v -0.082480 0.335190 1.104977
v -0.074742 0.330837 1.110642
v -0.068823 0.322601 1.107022
v -0.079280 0.350864 1.119536
v -0.072838 0.361272 1.119064
v -0.063078 0.349454 1.124117
v -0.070620 0.342249 1.124353
v -0.061593 0.319518 1.108743
v -0.068091 0.326534 1.114539
v -0.056638 0.319479 1.106255
v -0.050986 0.314579 1.095518
v -0.055444 0.313874 1.101406
v -0.048607 0.308333 1.090788
v -0.051366 0.321028 1.086120
v -0.051153 0.308025 1.081402
v -0.075005 0.319992 1.068995
v -0.088321 0.318241 1.067206
v -0.083623 0.302514 1.068475
v -0.070655 0.305737 1.070958
v -0.104168 0.305443 1.070636
v -0.092733 0.302770 1.069181
v -0.097405 0.318612 1.066832
v -0.107531 0.320105 1.068358
v -0.091439 0.328350 1.097996
v -0.096671 0.338092 1.098935
v -0.091342 0.337596 1.099783
v -0.086141 0.328321 1.098998
v -0.048668 0.325636 1.108956
v -0.049834 0.331975 1.098100
v -0.051889 0.324234 1.100007
v -0.052136 0.322289 1.112219
v -0.115587 0.359138 1.105445
v -0.117665 0.371192 1.099419
v -0.111913 0.372858 1.099279
v -0.111250 0.361425 1.104335
v -0.089603 0.373865 1.106637
v -0.094528 0.379517 1.099008
v -0.086703 0.387198 1.090862
v -0.079973 0.380639 1.095280
v -0.081204 0.367798 1.114100
v -0.073017 0.374540 1.105043
v -0.064867 0.366258 1.111784
v -0.056075 0.353249 1.119041
v -0.129820 0.367581 1.096596
v -0.130127 0.358326 1.101082
v -0.036040 0.260251 1.101758
v -0.040985 0.257283 1.102539
v -0.042935 0.262328 1.102056
v -0.037620 0.264279 1.101114
v -0.137715 0.356465 1.081376
v -0.135514 0.355587 1.071427
v -0.138616 0.362170 1.072447
v -0.138975 0.363957 1.081782
v -0.135910 0.346582 1.080974
v -0.130763 0.346613 1.070718
v -0.031972 0.258839 1.089744
v -0.030824 0.260297 1.094531
v -0.032341 0.264437 1.092438
v -0.034235 0.263031 1.087738
v -0.062518 0.315096 1.103653
v -0.071654 0.316803 1.102440
v -0.056475 0.296904 1.101569
v -0.063557 0.305078 1.100992
v -0.057007 0.307816 1.100885
v -0.051619 0.301020 1.099838
v -0.087148 0.305600 1.097148
v -0.090674 0.316982 1.096874
v -0.084109 0.316490 1.097515
v -0.078624 0.304499 1.098707
v -0.104804 0.315647 1.098561
v -0.100165 0.304472 1.098330
v -0.108700 0.304872 1.099426
v -0.110555 0.312850 1.100311
v -0.089495 0.285621 1.096854
v -0.086577 0.277583 1.094494
v -0.089687 0.277453 1.094567
v -0.093102 0.285659 1.096452
v -0.141151 0.368819 1.072322
v -0.139295 0.371255 1.081763
v -0.124771 0.307408 1.076699
v -0.132340 0.311092 1.084114
v -0.131742 0.298862 1.085451
v -0.123876 0.298218 1.077224
v -0.127796 0.355255 1.064258
v -0.132881 0.361295 1.064064
v -0.036186 0.255795 1.086431
v -0.038828 0.260115 1.085044
v -0.061135 0.366728 1.098626
v -0.051183 0.353266 1.110058
v -0.070663 0.375752 1.089865
v -0.078077 0.380989 1.083168
v -0.083020 0.387352 1.079285
v -0.067825 0.299518 1.100803
v -0.079972 0.320210 1.099644
v -0.096446 0.328103 1.097913
v -0.125975 0.320687 1.103615
v -0.128643 0.331154 1.103990
v -0.118125 0.329457 1.104873
v -0.117949 0.320599 1.103694
v -0.134210 0.311070 1.093806
v -0.129461 0.309955 1.100182
v -0.127558 0.300529 1.099885
v -0.132498 0.300494 1.094204
v -0.043950 0.331610 1.109307
v -0.048436 0.339524 1.097756
v -0.136215 0.358185 1.091832
v -0.135236 0.365959 1.091109
v -0.135900 0.373956 1.088301
v -0.105002 0.349244 1.102995
v -0.108208 0.363095 1.103743
v -0.103859 0.363792 1.104614
v -0.102067 0.349568 1.102147
v -0.088062 0.345492 1.109759
v -0.090027 0.358382 1.113048
v -0.080101 0.338971 1.116139
v -0.104607 0.376851 1.098912
v -0.113793 0.382736 1.097028
v -0.105359 0.385773 1.096033
v -0.123117 0.379747 1.095551
v -0.131092 0.376619 1.092788
v -0.137226 0.367977 1.060942
v -0.097345 0.387475 1.093767
v -0.064175 0.336005 1.126809
v -0.058143 0.331623 1.129249
v -0.059929 0.325224 1.124713
v -0.066386 0.328819 1.121970
v -0.045658 0.300034 1.087509
v -0.047034 0.300712 1.095376
v -0.050908 0.309710 1.097560
v -0.117701 0.347594 1.106179
v -0.129943 0.347486 1.102711
v -0.060298 0.291131 1.100628
v -0.036398 0.266970 1.085815
v -0.034172 0.268745 1.090816
v -0.040546 0.285515 1.088376
v -0.042639 0.282646 1.082616
v -0.060274 0.280890 1.094757
v -0.057851 0.285427 1.099101
v -0.056716 0.282127 1.097793
v -0.059138 0.276937 1.094797
v -0.098913 0.279807 1.095171
v -0.101784 0.286668 1.096892
v -0.067435 0.291089 1.075922
v -0.055693 0.297835 1.074010
v -0.059479 0.308133 1.073780
v -0.094683 0.305773 1.097378
v -0.092386 0.295179 1.097704
v -0.096577 0.294695 1.097675
v -0.069589 0.294877 1.099858
v -0.064896 0.287415 1.098878
v -0.070857 0.289195 1.098020
v -0.075162 0.295762 1.098690
v -0.134272 0.323812 1.081761
v -0.136844 0.323863 1.093181
v -0.032327 0.261065 1.098873
v -0.033797 0.265129 1.097473
v -0.097969 0.316947 1.097084
v -0.064536 0.321208 1.073608
v -0.101954 0.327776 1.098303
v -0.108778 0.285738 1.078442
v -0.111885 0.283201 1.084634
v -0.108058 0.277675 1.084939
v -0.105916 0.277657 1.079172
v -0.053342 0.262199 1.095102
v -0.050551 0.263788 1.099917
v -0.048175 0.259311 1.100099
v -0.050686 0.257315 1.095271
v -0.053500 0.289352 1.100217
v -0.048399 0.293327 1.098953
v -0.046671 0.286492 1.098810
v -0.052047 0.283908 1.099081
v -0.044049 0.293158 1.093785
v -0.042161 0.287139 1.094310
v -0.052368 0.261634 1.088545
v -0.047231 0.262726 1.082928
v -0.054216 0.276242 1.080850
v -0.057507 0.273867 1.087925
v -0.110743 0.334462 1.065193
v -0.121574 0.334043 1.068256
v -0.118668 0.319756 1.071448
v -0.116422 0.305891 1.073618
v -0.113236 0.293110 1.076857
v -0.102168 0.293023 1.071489
v -0.126316 0.320969 1.074142
v -0.065463 0.282297 1.086536
v -0.059919 0.286164 1.079611
v -0.066198 0.285362 1.080181
v -0.109003 0.326513 1.100549
v -0.035164 0.269683 1.096050
v -0.088089 0.372521 1.063740
v -0.099700 0.367624 1.058666
v -0.095038 0.360529 1.060942
v -0.082068 0.365857 1.067438
v -0.044983 0.266986 1.102316
v -0.039042 0.269141 1.101127
v -0.108137 0.284292 1.096565
v -0.104578 0.278717 1.094248
v -0.106903 0.276536 1.091736
v -0.112655 0.280346 1.094971
v -0.127029 0.335355 1.070450
v -0.131167 0.291479 1.085998
v -0.124493 0.290951 1.078626
v -0.123688 0.346701 1.065463
v -0.114357 0.347126 1.062157
v -0.117524 0.356164 1.060138
v -0.087696 0.287004 1.073007
v -0.102145 0.332949 1.064164
v -0.106616 0.346612 1.061725
v -0.110018 0.357398 1.059244
v -0.113161 0.364813 1.056972
v -0.121049 0.362724 1.058300
v -0.041644 0.264322 1.083158
v -0.044830 0.257394 1.084489
v -0.125422 0.369867 1.054634
v -0.116317 0.372054 1.053934
v -0.097333 0.347118 1.062042
v -0.086056 0.348191 1.064090
v -0.093408 0.333884 1.064651
v -0.081947 0.333783 1.066595
v -0.079084 0.291467 1.069322
v -0.040692 0.242153 1.091554
v -0.046463 0.251401 1.089973
v -0.047917 0.252090 1.095565
v -0.042779 0.241831 1.095260
v -0.049686 0.256606 1.089293
v -0.042238 0.253154 1.086166
v -0.068841 0.336229 1.072837
v -0.067800 0.282500 1.095749
v -0.071588 0.353100 1.073427
v -0.054431 0.333848 1.082751
v -0.056895 0.346651 1.085268
v -0.073014 0.371001 1.076116
v -0.061280 0.362528 1.085627
v -0.085091 0.383505 1.069260
v -0.080054 0.376441 1.071758
v -0.052276 0.353004 1.096698
v -0.034247 0.248957 1.103896
v -0.039366 0.246775 1.103628
v -0.092018 0.379476 1.061008
v -0.072495 0.333059 1.119483
v -0.110230 0.337331 1.102587
v -0.104884 0.337759 1.100649
v -0.129429 0.337601 1.103707
v -0.117821 0.337525 1.105368
v -0.029885 0.250361 1.101381
v -0.085263 0.273188 1.089789
v -0.087135 0.276082 1.089865
v -0.058280 0.342846 1.127653
v -0.054053 0.338355 1.129420
v -0.043566 0.339671 1.121017
v -0.048186 0.340818 1.126540
v -0.051601 0.346681 1.123419
v -0.047027 0.346174 1.116982
v -0.107480 0.348559 1.103891
v -0.111244 0.347468 1.104759
v -0.135494 0.335824 1.081424
v -0.137461 0.335353 1.092901
v -0.043466 0.292336 1.087230
v -0.048320 0.298163 1.079810
v -0.046161 0.290052 1.081132
v -0.048443 0.280696 1.079218
v -0.065461 0.279644 1.091562
v -0.060643 0.280597 1.088407
v -0.097654 0.361132 1.108454
v -0.096072 0.348571 1.104073
v -0.063145 0.324179 1.116135
v -0.057712 0.321251 1.118370
v -0.083291 0.297104 1.097836
v -0.081998 0.277446 1.075730
v -0.074773 0.281164 1.072775
v -0.079751 0.288202 1.097107
v -0.028287 0.248314 1.093433
v -0.028028 0.249872 1.098160
v -0.051846 0.288326 1.077409
v -0.105004 0.294488 1.099257
v -0.089334 0.281910 1.077373
v -0.084614 0.273714 1.081747
v -0.131398 0.294352 1.094463
v -0.103375 0.375498 1.056463
v -0.045956 0.253677 1.100586
v -0.042957 0.244551 1.101121
v -0.037589 0.243738 1.088975
v -0.032392 0.246569 1.088966
v -0.136281 0.346244 1.093198
v -0.101243 0.337624 1.099526
v -0.046499 0.344677 1.106115
v -0.042496 0.336231 1.114005
v -0.077974 0.281913 1.095857
v -0.116388 0.287736 1.080159
v -0.100515 0.284173 1.073263
v -0.098225 0.276509 1.074532
v -0.091072 0.275225 1.077347
v -0.087297 0.273775 1.083876
v -0.036039 0.239262 1.090746
v -0.030907 0.241952 1.090756
v -0.026556 0.243346 1.094964
v -0.026288 0.244708 1.099282
v -0.029063 0.246067 1.102567
v -0.039041 0.237199 1.093045
v -0.040685 0.236859 1.096375
v -0.041545 0.240625 1.101478
v -0.037697 0.232798 1.094743
v -0.032933 0.231771 1.092825
v -0.021979 0.231020 1.100518
v -0.023772 0.235194 1.096946
v -0.023980 0.232608 1.096423
v -0.022653 0.228402 1.098619
v -0.021961 0.223426 1.099702
v -0.020908 0.225810 1.102212
v -0.027655 0.233168 1.093772
v -0.026341 0.227199 1.096220
v -0.030321 0.225840 1.095569
v -0.028704 0.220792 1.096863
v -0.024976 0.221780 1.097308
v -0.030763 0.229984 1.093726
v -0.028329 0.234966 1.092918
v -0.021773 0.221269 1.102497
v -0.022052 0.220547 1.100024
v -0.024703 0.219031 1.098576
v -0.024905 0.217422 1.101241
v -0.024569 0.240059 1.100779
v -0.022349 0.232044 1.102944
v -0.022778 0.226334 1.104825
v -0.023473 0.221739 1.104810
v -0.025214 0.231383 1.105893
v -0.025330 0.226448 1.106364
v -0.026369 0.222474 1.106394
v -0.029031 0.230161 1.107411
v -0.028360 0.225814 1.107177
v -0.031853 0.242098 1.105174
v -0.027902 0.242870 1.103562
v -0.028196 0.223112 1.107359
v -0.026416 0.217575 1.102991
v -0.033938 0.226632 1.095824
v -0.031601 0.220666 1.098491
v -0.035794 0.226749 1.097314
v -0.033716 0.220655 1.099769
v -0.029436 0.216973 1.099417
v -0.027629 0.218441 1.098122
v -0.033853 0.246009 1.104243
v -0.039063 0.243462 1.103724
v -0.037571 0.239925 1.104562
v -0.033533 0.228657 1.106943
v -0.040195 0.236988 1.102422
v -0.039334 0.232570 1.098022
v -0.036828 0.226257 1.100013
v -0.036758 0.226937 1.103380
v -0.034669 0.221777 1.101969
v -0.034175 0.223076 1.104185
v -0.031730 0.224430 1.106804
v -0.031972 0.219165 1.103577
v -0.030882 0.217525 1.101226
v -0.028524 0.219373 1.105091
v -0.032496 0.220797 1.104740
v -0.029891 0.221592 1.105998
v -0.060605 0.245309 1.098867
v -0.066563 0.242995 1.098995
v -0.067585 0.248379 1.097659
v -0.062283 0.249791 1.097768
v -0.055404 0.244320 1.086076
v -0.054908 0.245781 1.092032
v -0.055692 0.249888 1.090523
v -0.057274 0.248161 1.084139
v -0.060414 0.242015 1.082211
v -0.062567 0.246395 1.080631
v -0.058435 0.252872 1.082395
v -0.057464 0.255016 1.089265
v -0.064691 0.274992 1.086133
v -0.065149 0.273009 1.079017
v -0.080942 0.271780 1.093388
v -0.081551 0.269437 1.090185
v -0.057282 0.245877 1.096512
v -0.058271 0.250193 1.095083
v -0.076289 0.249597 1.092843
v -0.073486 0.251673 1.097142
v -0.071801 0.246113 1.096553
v -0.074152 0.244012 1.091981
v -0.069637 0.276476 1.093387
v -0.075845 0.274965 1.093819
v -0.066619 0.275714 1.090856
v -0.075987 0.248047 1.086378
v -0.072402 0.248030 1.080449
v -0.077880 0.266862 1.076250
v -0.081288 0.266060 1.081915
v -0.059326 0.255519 1.094727
v -0.068576 0.253647 1.098828
v -0.063625 0.255116 1.098423
v -0.064719 0.250669 1.079214
v -0.069849 0.243085 1.081670
v -0.066014 0.227005 1.090101
v -0.071490 0.237865 1.087597
v -0.072113 0.238601 1.092705
v -0.067353 0.226348 1.094962
v -0.073698 0.242495 1.086483
v -0.067472 0.239171 1.083161
v -0.057191 0.230245 1.102979
v -0.062787 0.227766 1.102738
v -0.053436 0.231416 1.100745
v -0.070883 0.269918 1.074783
v -0.052143 0.233106 1.090611
v -0.051637 0.232763 1.097125
v -0.070677 0.240512 1.097165
v -0.066212 0.226196 1.099661
v -0.062959 0.228347 1.086889
v -0.057026 0.232002 1.085898
v -0.060568 0.223756 1.088601
v -0.054988 0.226694 1.088151
v -0.049941 0.227997 1.092885
v -0.050096 0.228050 1.098704
v -0.052378 0.227510 1.101936
v -0.063561 0.222104 1.091324
v -0.065246 0.221236 1.095813
v -0.064638 0.223234 1.100526
v -0.061806 0.215691 1.093989
v -0.058096 0.215789 1.091504
v -0.044738 0.208732 1.101639
v -0.045929 0.214154 1.099310
v -0.046826 0.212746 1.097228
v -0.045705 0.207676 1.099164
v -0.047286 0.218822 1.095178
v -0.048167 0.216360 1.094665
v -0.052081 0.216042 1.092255
v -0.050770 0.210855 1.095112
v -0.055571 0.210052 1.094516
v -0.054131 0.204631 1.095841
v -0.049245 0.205171 1.096298
v -0.055294 0.213846 1.092337
v -0.045870 0.204119 1.099921
v -0.045855 0.203215 1.102414
v -0.052381 0.218785 1.090857
v -0.048246 0.223635 1.099236
v -0.046364 0.214891 1.102293
v -0.045969 0.208629 1.104698
v -0.047920 0.202683 1.104664
v -0.049069 0.214350 1.105494
v -0.048506 0.208189 1.106682
v -0.050249 0.203409 1.106035
v -0.053205 0.213314 1.107566
v -0.052466 0.207282 1.107937
v -0.055718 0.224152 1.104755
v -0.051250 0.224630 1.103041
v -0.052105 0.204682 1.107015
v -0.048880 0.200181 1.099920
v -0.050662 0.199943 1.102866
v -0.048632 0.201470 1.098516
v -0.057648 0.209781 1.094898
v -0.055913 0.204029 1.097178
v -0.059874 0.209421 1.096581
v -0.057424 0.203230 1.098960
v -0.053549 0.200217 1.098619
v -0.052196 0.200846 1.097622
v -0.056480 0.226918 1.103466
v -0.061702 0.225105 1.102934
v -0.061084 0.222629 1.104076
v -0.058087 0.211867 1.106493
v -0.064161 0.220442 1.101145
v -0.063710 0.216614 1.097016
v -0.061342 0.209915 1.098987
v -0.060988 0.210390 1.102961
v -0.058943 0.203412 1.100617
v -0.059237 0.205549 1.103195
v -0.056340 0.206602 1.106923
v -0.055941 0.200153 1.102079
v -0.054562 0.199770 1.100082
v -0.052149 0.200902 1.104373
v -0.057039 0.202375 1.103909
v -0.054081 0.203045 1.106012
v -0.086742 0.247592 1.096551
v -0.092387 0.247637 1.098180
v -0.092928 0.252120 1.097783
v -0.087268 0.251862 1.096148
v -0.086007 0.245683 1.083598
v -0.083589 0.246006 1.087997
v -0.083714 0.250124 1.087321
v -0.086236 0.250791 1.082394
v -0.090979 0.243478 1.081892
v -0.091867 0.250209 1.080108
v -0.086753 0.255656 1.080616
v -0.084259 0.254433 1.086282
v -0.086863 0.269640 1.084656
v -0.089310 0.269045 1.078168
v -0.084292 0.246903 1.092624
v -0.084449 0.250649 1.092261
v -0.101892 0.254612 1.093758
v -0.098432 0.255708 1.096912
v -0.098161 0.251078 1.096506
v -0.101079 0.249996 1.093501
v -0.090898 0.273657 1.093931
v -0.097130 0.274835 1.093892
v -0.087732 0.270822 1.090587
v -0.102989 0.253387 1.087473
v -0.100050 0.254129 1.080707
v -0.103226 0.268247 1.079179
v -0.105162 0.269685 1.084997
v -0.084619 0.254615 1.091669
v -0.093270 0.256648 1.097908
v -0.087572 0.255774 1.096314
v -0.092765 0.255362 1.078815
v -0.098646 0.248774 1.082230
v -0.097134 0.228174 1.090634
v -0.101147 0.244295 1.088242
v -0.100272 0.245359 1.094021
v -0.097756 0.228647 1.095017
v -0.102155 0.248374 1.088001
v -0.097619 0.243670 1.083208
v -0.085483 0.231942 1.099924
v -0.090910 0.231682 1.100905
v -0.083082 0.232944 1.096274
v -0.095945 0.268504 1.075278
v -0.103650 0.272722 1.091073
v -0.083450 0.231231 1.088907
v -0.082295 0.232404 1.092973
v -0.097464 0.246704 1.096957
v -0.095832 0.230057 1.098946
v -0.094179 0.229015 1.086820
v -0.088323 0.230677 1.085403
v -0.093400 0.223993 1.088919
v -0.087556 0.225771 1.087576
v -0.082449 0.226422 1.090510
v -0.081454 0.227932 1.094592
v -0.082359 0.228718 1.097911
v -0.096178 0.223205 1.092832
v -0.096532 0.223892 1.096774
v -0.094777 0.227893 1.099641
v -0.095506 0.219225 1.095275
v -0.091748 0.217319 1.091758
v -0.079256 0.209596 1.100219
v -0.080180 0.214744 1.097599
v -0.081019 0.214129 1.096908
v -0.080150 0.208703 1.098990
v -0.081782 0.219435 1.093092
v -0.082379 0.217565 1.093412
v -0.085904 0.217162 1.091769
v -0.085136 0.211512 1.094784
v -0.091009 0.211936 1.096197
v -0.089424 0.207428 1.098392
v -0.084036 0.206544 1.097006
v -0.090187 0.216006 1.092569
v -0.080635 0.205667 1.100119
v -0.078966 0.205425 1.101124
v -0.086359 0.219118 1.090432
v -0.080074 0.222789 1.096233
v -0.079116 0.216185 1.099954
v -0.078063 0.211046 1.102885
v -0.079408 0.207069 1.104443
v -0.080548 0.217580 1.103236
v -0.079821 0.212447 1.105195
v -0.080970 0.208809 1.106513
v -0.083070 0.218184 1.105353
v -0.082537 0.213392 1.106799
v -0.084735 0.227184 1.101434
v -0.081512 0.225433 1.099175
v -0.082707 0.210191 1.107241
v -0.083159 0.203017 1.100926
v -0.084259 0.204153 1.104898
v -0.083435 0.204239 1.099707
v -0.092691 0.212648 1.096689
v -0.091218 0.206917 1.099923
v -0.094127 0.213767 1.098934
v -0.092480 0.208046 1.102150
v -0.088363 0.203774 1.100911
v -0.087671 0.204292 1.100010
v -0.085510 0.229640 1.100398
v -0.090508 0.229436 1.101222
v -0.089499 0.227172 1.102329
v -0.087547 0.217592 1.106575
v -0.093862 0.225650 1.101075
v -0.095572 0.220147 1.098923
v -0.093696 0.215033 1.101949
v -0.091634 0.216096 1.104964
v -0.092156 0.209720 1.104411
v -0.090699 0.211842 1.105739
v -0.086482 0.213034 1.107943
v -0.089188 0.206946 1.105421
v -0.089345 0.204712 1.103379
v -0.084872 0.206598 1.106921
v -0.088758 0.209106 1.106730
v -0.085466 0.208982 1.107775
v -0.101432 0.274423 1.093223
v -0.120717 0.256977 1.099040
v -0.124092 0.258100 1.101181
v -0.124346 0.261589 1.100420
v -0.120517 0.261252 1.098848
v -0.122650 0.255984 1.087811
v -0.119865 0.255403 1.091599
v -0.118868 0.259685 1.090383
v -0.121623 0.260149 1.086562
v -0.127622 0.256848 1.086875
v -0.126991 0.260904 1.085989
v -0.121067 0.263415 1.085499
v -0.118151 0.263566 1.089529
v -0.114832 0.278877 1.086221
v -0.118239 0.280367 1.081778
v -0.129998 0.288967 1.093997
v -0.125677 0.289318 1.098264
v -0.126224 0.281512 1.097722
v -0.130029 0.282199 1.094789
v -0.119399 0.255970 1.095545
v -0.118329 0.260210 1.095300
v -0.132618 0.267273 1.097310
v -0.128804 0.266636 1.100153
v -0.128344 0.262583 1.100930
v -0.132578 0.262731 1.098958
v -0.120451 0.287031 1.098708
v -0.116259 0.285236 1.097480
v -0.116725 0.280768 1.096988
v -0.121562 0.280084 1.098411
v -0.113466 0.278420 1.093280
v -0.133985 0.266772 1.093295
v -0.132331 0.265670 1.087669
v -0.131298 0.282896 1.085038
v -0.131621 0.283561 1.090013
v -0.117648 0.263436 1.094298
v -0.124421 0.265527 1.100341
v -0.120374 0.264446 1.098595
v -0.126859 0.264050 1.084469
v -0.132447 0.261746 1.089145
v -0.135674 0.250005 1.098129
v -0.134755 0.259081 1.095713
v -0.132585 0.259188 1.100158
v -0.134466 0.250373 1.101034
v -0.134257 0.262567 1.094589
v -0.133028 0.257662 1.090286
v -0.122178 0.248681 1.101238
v -0.126843 0.250297 1.103375
v -0.120842 0.247827 1.098256
v -0.124833 0.281326 1.080361
v -0.124032 0.246880 1.091430
v -0.121266 0.246630 1.094951
v -0.128192 0.258723 1.101668
v -0.131300 0.250710 1.103097
v -0.134433 0.248977 1.093811
v -0.129466 0.248120 1.090043
v -0.134342 0.244257 1.095759
v -0.129158 0.243985 1.091995
v -0.123407 0.243238 1.093839
v -0.121261 0.244597 1.096814
v -0.120982 0.245882 1.099803
v -0.135639 0.245669 1.100007
v -0.134446 0.246751 1.102645
v -0.131333 0.248226 1.104255
v -0.135218 0.241696 1.102004
v -0.133108 0.238655 1.098802
v -0.122513 0.232299 1.104783
v -0.122372 0.235568 1.102113
v -0.123386 0.235086 1.101550
v -0.122964 0.231628 1.103978
v -0.123434 0.238822 1.097741
v -0.124535 0.237582 1.098271
v -0.127925 0.238247 1.097057
v -0.127460 0.233962 1.100378
v -0.132382 0.234349 1.102683
v -0.131449 0.230837 1.104996
v -0.127300 0.230613 1.102497
v -0.131710 0.237129 1.098918
v -0.123688 0.229070 1.104996
v -0.123007 0.228584 1.106151
v -0.128180 0.239469 1.095441
v -0.120962 0.241609 1.099706
v -0.120923 0.236225 1.104145
v -0.121487 0.231905 1.106950
v -0.123387 0.228867 1.108463
v -0.121003 0.238277 1.105820
v -0.121545 0.233136 1.108999
v -0.123570 0.230294 1.110394
v -0.122614 0.240271 1.108092
v -0.123067 0.234880 1.110391
v -0.122995 0.245992 1.104555
v -0.121063 0.243834 1.102286
v -0.124240 0.231928 1.110879
v -0.126710 0.227101 1.106291
v -0.126582 0.227998 1.109204
v -0.127172 0.227637 1.104813
v -0.133446 0.235017 1.103488
v -0.132340 0.230855 1.106463
v -0.134270 0.236482 1.105482
v -0.132364 0.231778 1.108501
v -0.130143 0.228079 1.107353
v -0.129767 0.228582 1.105514
v -0.122898 0.247139 1.103116
v -0.126821 0.248315 1.104302
v -0.127168 0.246805 1.105836
v -0.126388 0.241225 1.109500
v -0.131611 0.246229 1.105667
v -0.134452 0.244035 1.104088
v -0.133354 0.238213 1.107537
v -0.130857 0.239953 1.109302
v -0.131332 0.232855 1.110213
v -0.129256 0.234843 1.111469
v -0.126038 0.235755 1.111686
v -0.128656 0.230070 1.110715
v -0.129481 0.228744 1.109554
v -0.126388 0.229557 1.110676
v -0.127800 0.231698 1.111550
v -0.126147 0.231844 1.111472
v -0.131133 0.287176 1.090416
v -0.041816 0.322508 1.119781
v -0.045147 0.318313 1.120264
v -0.054280 0.322538 1.133768
v -0.052656 0.317188 1.129273
v -0.051973 0.328601 1.136073
v -0.043831 0.335050 1.131084
v -0.048448 0.333299 1.134270
v -0.048967 0.315777 1.124352
v -0.039273 0.328112 1.120937
v -0.039868 0.333780 1.125473
v -0.037131 0.324202 1.126976
v -0.037915 0.330286 1.130627
v -0.041916 0.332810 1.135818
v -0.047737 0.331992 1.138894
v -0.051439 0.328858 1.139987
v -0.040429 0.319065 1.125988
v -0.044130 0.315332 1.127056
v -0.049555 0.314341 1.130128
v -0.037542 0.314526 1.133137
v -0.030386 0.316763 1.141377
v -0.029558 0.324045 1.159622
v -0.033779 0.326230 1.154589
v -0.031100 0.325092 1.153373
v -0.027115 0.323797 1.158006
v -0.034645 0.327387 1.149350
v -0.032586 0.325697 1.149421
v -0.030716 0.322609 1.145475
v -0.027175 0.321225 1.149721
v -0.029455 0.317596 1.144126
v -0.027387 0.315253 1.147087
v -0.023450 0.319747 1.153938
v -0.023533 0.322175 1.159607
v -0.020787 0.318290 1.157993
v -0.025574 0.321054 1.162316
v -0.030557 0.323603 1.144040
v -0.042076 0.329343 1.147543
v -0.038077 0.326064 1.154893
v -0.033374 0.322479 1.160484
v -0.028329 0.318992 1.163120
v -0.042287 0.323027 1.154937
v -0.036994 0.319249 1.159341
v -0.032402 0.315608 1.161032
v -0.044499 0.318314 1.153358
v -0.038503 0.315621 1.157402
v -0.052149 0.322075 1.141811
v -0.048770 0.327558 1.145553
v -0.034412 0.314222 1.159006
v -0.021171 0.316304 1.160687
v -0.024462 0.313945 1.161546
v -0.028706 0.312308 1.145056
v -0.023412 0.313744 1.150990
v -0.025171 0.310686 1.150515
v -0.031995 0.309900 1.143340
v -0.027525 0.308556 1.150574
v -0.021857 0.311703 1.155800
v -0.021034 0.314634 1.154631
v -0.054052 0.323429 1.137806
v -0.053198 0.318033 1.133545
v -0.051719 0.316606 1.137460
v -0.044315 0.312578 1.149032
v -0.047713 0.312327 1.134960
v -0.041683 0.312001 1.133403
v -0.035828 0.308428 1.143667
v -0.040580 0.309014 1.145517
v -0.031403 0.307914 1.151414
v -0.034420 0.308821 1.152322
v -0.037445 0.311730 1.155214
v -0.028878 0.309290 1.156324
v -0.024824 0.309618 1.156207
v -0.029175 0.312124 1.160010
v -0.031853 0.309689 1.155580
v -0.032756 0.311724 1.157913
v -0.126184 0.295186 1.099539
v -0.119689 0.294131 1.100725
v -0.122097 0.300726 1.101556
v -0.124044 0.310432 1.102720
v -0.130943 0.318686 1.100687
v -0.117198 0.311247 1.102257
v -0.115624 0.301168 1.101178
v -0.112449 0.291624 1.099349
v -0.112102 0.320438 1.101151
f 2 3 1
f 1 3 4
f 5 6 8
f 8 6 7
f 9 4 10
f 10 4 3
f 12 13 11
f 11 13 9
f 14 12 16
f 16 12 15
f 18 19 17
f 17 19 20
f 22 23 21
f 21 23 24
f 26 27 25
f 25 27 28
f 30 31 29
f 29 31 32
f 33 34 36
f 36 34 35
f 37 38 40
f 40 38 39
f 41 42 6
f 6 42 43
f 6 43 7
f 7 43 44
f 45 34 46
f 46 34 33
f 48 49 47
f 47 49 50
f 52 53 51
f 51 53 54
f 56 52 55
f 55 52 51
f 58 59 57
f 57 59 60
f 61 62 4
f 4 62 1
f 64 65 63
f 63 65 66
f 68 69 67
f 67 69 70
f 72 73 71
f 71 73 74
f 76 77 75
f 75 77 78
f 53 79 54
f 54 79 80
f 82 83 81
f 81 83 84
f 85 86 52
f 52 86 53
f 57 60 87
f 87 60 88
f 89 90 43
f 43 90 44
f 43 42 89
f 89 42 91
f 40 39 92
f 92 39 93
f 94 70 64
f 64 70 69
f 13 61 9
f 9 61 4
f 25 28 69
f 69 28 95
f 96 25 68
f 68 25 69
f 98 99 97
f 97 99 100
f 101 102 104
f 104 102 103
f 106 30 105
f 105 30 29
f 51 54 107
f 107 54 108
f 54 80 108
f 108 80 109
f 111 112 110
f 110 112 113
f 115 5 114
f 114 5 116
f 115 41 5
f 5 41 6
f 36 35 111
f 111 35 117
f 35 118 117
f 117 118 119
f 34 120 35
f 35 120 118
f 34 45 120
f 120 45 121
f 125 126 124
f 124 126 127
f 128 129 14
f 14 129 130
f 33 131 46
f 46 131 132
f 133 94 63
f 63 94 64
f 134 135 137
f 137 135 136
f 139 140 138
f 138 140 141
f 77 142 78
f 78 142 143
f 144 145 20
f 20 145 146
f 148 149 147
f 147 149 72
f 151 152 150
f 150 152 153
f 82 101 83
f 83 101 104
f 101 82 155
f 155 82 154
f 156 157 58
f 58 157 59
f 158 68 147
f 147 68 67
f 159 146 15
f 15 146 16
f 68 158 96
f 96 158 160
f 129 66 130
f 130 66 65
f 162 163 161
f 161 163 164
f 166 167 165
f 165 167 168
f 170 171 169
f 169 171 172
f 174 171 173
f 173 171 170
f 176 177 175
f 175 177 178
f 180 181 179
f 179 181 24
f 182 183 21
f 21 183 184
f 81 185 82
f 82 185 154
f 186 187 188
f 188 187 144
f 158 71 160
f 160 71 189
f 190 135 157
f 157 135 59
f 169 172 139
f 139 172 140
f 147 72 158
f 158 72 71
f 192 193 191
f 191 193 194
f 167 166 49
f 49 166 195
f 196 190 50
f 50 190 157
f 197 198 200
f 200 198 199
f 21 24 182
f 182 24 181
f 146 159 20
f 20 159 17
f 182 181 81
f 81 181 185
f 201 185 180
f 180 185 181
f 202 203 83
f 83 203 84
f 205 206 204
f 204 206 85
f 207 22 184
f 184 22 21
f 179 24 208
f 208 24 23
f 208 209 179
f 179 209 205
f 209 210 205
f 205 210 206
f 212 206 211
f 211 206 210
f 179 205 180
f 180 205 204
f 213 176 88
f 88 176 214
f 86 85 212
f 212 85 206
f 193 217 218
f 217 219 218
f 218 219 220
f 219 18 220
f 220 18 17
f 19 221 20
f 20 221 144
f 222 223 225
f 225 223 224
f 175 226 176
f 176 226 214
f 227 87 214
f 214 87 88
f 220 17 228
f 228 17 159
f 134 213 60
f 60 213 88
f 138 229 151
f 151 229 152
f 193 192 210
f 210 192 211
f 230 194 218
f 218 194 193
f 231 232 228
f 228 232 230
f 233 234 91
f 91 234 89
f 235 236 93
f 93 236 92
f 230 232 234
f 234 232 237
f 47 238 48
f 48 238 239
f 240 191 235
f 235 191 236
f 5 8 116
f 116 8 241
f 242 243 189
f 189 243 160
f 244 245 98
f 98 245 99
f 156 246 47
f 47 246 238
f 76 247 77
f 77 247 248
f 250 125 249
f 249 125 124
f 252 253 251
f 251 253 254
f 111 110 36
f 36 110 255
f 256 33 255
f 255 33 36
f 257 258 154
f 154 258 155
f 63 169 133
f 133 169 139
f 66 170 63
f 63 170 169
f 173 170 129
f 129 170 66
f 129 128 173
f 173 128 259
f 128 260 259
f 259 260 261
f 213 134 262
f 262 134 137
f 263 264 186
f 186 264 187
f 112 265 113
f 113 265 266
f 11 267 268
f 234 233 230
f 230 233 194
f 153 269 70
f 70 269 67
f 175 178 165
f 165 178 141
f 150 153 94
f 94 153 70
f 271 221 270
f 270 221 207
f 269 153 272
f 272 153 152
f 121 45 109
f 109 45 108
f 47 50 156
f 156 50 157
f 57 273 58
f 58 273 274
f 145 275 260
f 260 275 261
f 276 149 143
f 143 149 78
f 148 269 75
f 75 269 272
f 207 277 270
f 270 277 278
f 195 196 49
f 49 196 50
f 59 135 60
f 60 135 134
f 83 104 202
f 202 104 279
f 149 148 78
f 78 148 75
f 247 278 248
f 248 278 277
f 183 182 84
f 84 182 81
f 48 239 281
f 281 239 282
f 227 223 283
f 283 223 222
f 223 226 224
f 224 226 168
f 281 282 224
f 224 282 225
f 165 168 175
f 175 168 226
f 264 263 138
f 138 263 229
f 14 16 128
f 128 16 260
f 220 228 218
f 218 228 230
f 87 227 284
f 284 227 283
f 260 16 145
f 145 16 146
f 244 98 258
f 258 98 155
f 58 274 156
f 156 274 246
f 107 285 51
f 51 285 55
f 243 286 160
f 160 286 96
f 234 237 89
f 89 237 90
f 46 132 107
f 107 132 285
f 253 252 249
f 249 252 250
f 286 26 96
f 96 26 25
f 106 105 287
f 287 105 288
f 272 152 289
f 289 152 229
f 138 151 139
f 139 151 133
f 183 290 161
f 161 290 162
f 291 292 277
f 277 292 293
f 151 150 133
f 133 150 94
f 262 275 177
f 177 275 187
f 144 187 145
f 145 187 275
f 273 57 284
f 284 57 87
f 174 136 190
f 190 136 135
f 111 117 112
f 112 117 38
f 117 119 38
f 38 119 123
f 112 38 265
f 265 38 37
f 287 288 254
f 254 288 251
f 228 159 231
f 231 159 15
f 223 227 226
f 226 227 214
f 147 67 148
f 148 67 269
f 224 168 281
f 281 168 167
f 199 163 200
f 200 163 162
f 45 46 108
f 108 46 107
f 281 167 48
f 48 167 49
f 161 164 291
f 291 164 292
f 38 123 39
f 293 294 277
f 277 294 248
f 284 283 296
f 296 283 295
f 284 296 273
f 273 296 297
f 274 273 298
f 298 273 297
f 246 274 299
f 299 274 298
f 283 222 295
f 295 222 300
f 222 225 300
f 300 225 301
f 301 225 302
f 302 225 282
f 303 304 300
f 300 304 295
f 306 307 305
f 305 307 308
f 309 310 308
f 308 310 305
f 308 307 312
f 312 307 311
f 313 314 312
f 312 314 315
f 311 316 312
f 312 316 313
f 317 304 311
f 311 304 316
f 315 309 312
f 312 309 308
f 318 319 321
f 321 319 320
f 319 318 309
f 309 318 310
f 311 307 317
f 317 307 306
f 306 297 317
f 317 297 296
f 306 322 297
f 297 322 298
f 305 323 306
f 306 323 322
f 323 305 324
f 324 305 310
f 304 317 295
f 295 317 296
f 318 325 310
f 310 325 324
f 323 324 326
f 326 324 327
f 324 325 327
f 327 325 328
f 326 327 329
f 329 327 330
f 329 331 326
f 326 331 332
f 333 330 328
f 328 330 327
f 323 326 322
f 322 326 332
f 322 332 298
f 298 332 299
f 325 318 334
f 334 318 321
f 313 316 335
f 335 316 304
f 335 336 313
f 313 336 314
f 304 303 335
f 335 303 337
f 336 335 338
f 338 335 337
f 336 339 314
f 314 339 340
f 246 299 238
f 238 299 341
f 239 342 282
f 282 342 302
f 342 239 341
f 341 239 238
f 341 331 342
f 342 331 343
f 331 329 343
f 343 329 344
f 342 343 302
f 302 343 345
f 341 299 331
f 331 299 332
f 346 301 345
f 345 301 302
f 346 303 301
f 301 303 300
f 347 337 346
f 346 337 303
f 347 346 348
f 348 346 345
f 349 347 350
f 350 347 348
f 343 344 345
f 345 344 348
f 344 351 348
f 348 351 350
f 337 347 338
f 338 347 349
f 353 338 352
f 352 338 349
f 352 355 354
f 354 355 356
f 352 349 355
f 355 349 350
f 352 354 353
f 353 354 334
f 353 334 339
f 339 334 321
f 339 336 353
f 353 336 338
f 329 330 344
f 344 330 351
f 356 351 333
f 333 351 330
f 356 355 351
f 351 355 350
f 354 356 328
f 328 356 333
f 328 325 354
f 354 325 334
f 309 315 319
f 319 315 320
f 320 340 321
f 321 340 339
f 320 315 340
f 340 315 314
f 137 136 261
f 261 136 259
f 140 166 141
f 141 166 165
f 172 171 195
f 195 171 196
f 171 174 196
f 196 174 190
f 178 177 264
f 264 177 187
f 172 195 140
f 140 195 166
f 137 261 262
f 262 261 275
f 178 264 141
f 141 264 138
f 262 177 213
f 213 177 176
f 136 174 259
f 259 174 173
f 358 359 357
f 357 359 360
f 362 363 361
f 361 363 364
f 361 364 365
f 365 364 366
f 367 368 370
f 370 368 369
f 76 371 247
f 247 371 372
f 373 374 362
f 362 374 363
f 376 377 375
f 375 377 378
f 289 229 380
f 380 229 379
f 381 379 263
f 263 379 229
f 383 384 382
f 382 384 385
f 386 368 374
f 374 368 363
f 76 289 371
f 371 289 380
f 377 376 359
f 359 376 387
f 388 386 360
f 360 386 374
f 389 383 366
f 366 383 390
f 392 393 391
f 391 393 394
f 383 382 390
f 390 382 395
f 396 365 390
f 390 365 366
f 389 366 367
f 367 366 364
f 357 397 358
f 358 397 398
f 373 399 357
f 357 399 397
f 389 367 400
f 400 367 370
f 382 385 375
f 375 385 372
f 357 360 373
f 373 360 374
f 361 401 362
f 362 401 402
f 387 388 359
f 359 388 360
f 363 368 364
f 364 368 367
f 358 398 403
f 403 398 404
f 396 392 405
f 405 392 391
f 392 395 393
f 393 395 378
f 393 403 394
f 394 403 404
f 375 378 382
f 382 378 395
f 365 396 406
f 406 396 405
f 362 402 373
f 373 402 399
f 271 270 400
f 400 270 384
f 401 361 406
f 406 361 365
f 381 369 386
f 386 369 368
f 392 396 395
f 395 396 390
f 393 378 403
f 403 378 377
f 403 377 358
f 358 377 359
f 406 405 408
f 408 405 407
f 406 408 401
f 401 408 409
f 401 409 402
f 402 409 410
f 402 410 399
f 399 410 411
f 405 391 407
f 407 391 412
f 391 394 412
f 412 394 413
f 394 404 413
f 413 404 414
f 415 416 412
f 412 416 407
f 418 419 417
f 417 419 420
f 421 422 418
f 418 422 419
f 419 422 424
f 424 422 423
f 425 426 424
f 424 426 427
f 423 428 424
f 424 428 425
f 427 420 424
f 424 420 419
f 420 429 417
f 417 429 430
f 423 422 431
f 431 422 421
f 421 409 431
f 431 409 408
f 421 432 409
f 409 432 410
f 418 433 421
f 421 433 432
f 434 433 417
f 417 433 418
f 431 416 423
f 423 416 428
f 416 431 407
f 407 431 408
f 435 434 430
f 430 434 417
f 433 434 436
f 436 434 437
f 434 435 437
f 437 435 438
f 436 437 439
f 439 437 440
f 439 441 436
f 436 441 442
f 438 443 437
f 437 443 440
f 436 442 433
f 433 442 432
f 432 442 410
f 410 442 411
f 435 430 445
f 445 430 444
f 430 429 444
f 444 429 446
f 425 428 447
f 447 428 416
f 426 425 448
f 448 425 447
f 416 415 447
f 447 415 449
f 447 449 448
f 448 449 450
f 451 452 448
f 448 452 426
f 446 452 444
f 444 452 451
f 399 411 397
f 397 411 453
f 398 454 404
f 404 454 414
f 454 398 453
f 453 398 397
f 453 441 454
f 454 441 455
f 441 439 455
f 455 439 456
f 454 455 414
f 414 455 457
f 441 453 442
f 442 453 411
f 458 413 457
f 457 413 414
f 458 415 413
f 413 415 412
f 458 459 415
f 415 459 449
f 459 458 460
f 460 458 457
f 461 459 462
f 462 459 460
f 455 456 457
f 457 456 460
f 456 463 460
f 460 463 462
f 459 461 449
f 449 461 450
f 465 450 464
f 464 450 461
f 464 467 466
f 466 467 468
f 464 461 467
f 467 461 462
f 464 466 465
f 465 466 445
f 465 445 451
f 451 445 444
f 451 448 465
f 465 448 450
f 439 440 456
f 456 440 463
f 468 463 443
f 443 463 440
f 468 467 463
f 463 467 462
f 466 468 438
f 438 468 443
f 438 435 466
f 466 435 445
f 420 427 429
f 429 427 446
f 446 427 452
f 452 427 426
f 370 369 188
f 188 369 186
f 371 376 372
f 372 376 375
f 380 379 387
f 387 379 388
f 379 381 388
f 388 381 386
f 385 384 278
f 278 384 270
f 380 387 371
f 371 387 376
f 400 370 271
f 271 370 188
f 385 278 372
f 372 278 247
f 400 384 389
f 389 384 383
f 369 381 186
f 186 381 263
f 221 271 144
f 144 271 188
f 221 19 207
f 207 19 22
f 19 18 22
f 22 18 23
f 18 219 23
f 23 219 208
f 469 470 472
f 472 470 471
f 474 475 473
f 473 475 476
f 473 476 477
f 477 476 478
f 480 481 479
f 479 481 482
f 483 484 474
f 474 484 475
f 486 487 485
f 485 487 488
f 489 490 77
f 77 490 142
f 491 489 248
f 248 489 77
f 493 494 492
f 492 494 495
f 496 480 484
f 484 480 475
f 486 497 487
f 487 497 471
f 498 496 472
f 472 496 484
f 499 493 478
f 478 493 500
f 501 502 504
f 504 502 503
f 493 492 500
f 500 492 505
f 506 477 500
f 500 477 478
f 499 478 479
f 479 478 476
f 469 507 470
f 470 507 508
f 483 509 469
f 469 509 507
f 479 482 499
f 499 482 510
f 492 495 485
f 485 495 511
f 483 469 484
f 484 469 472
f 473 512 474
f 474 512 513
f 497 498 471
f 471 498 472
f 475 480 476
f 476 480 479
f 470 508 514
f 514 508 515
f 506 502 516
f 516 502 501
f 503 502 488
f 488 502 505
f 514 515 503
f 503 515 504
f 485 488 492
f 492 488 505
f 477 506 517
f 517 506 516
f 474 513 483
f 483 513 509
f 510 292 494
f 494 292 164
f 512 473 517
f 517 473 477
f 491 481 496
f 496 481 480
f 502 506 505
f 505 506 500
f 503 488 514
f 514 488 487
f 514 487 470
f 470 487 471
f 517 516 519
f 519 516 518
f 517 519 512
f 512 519 520
f 512 520 513
f 513 520 521
f 513 521 509
f 509 521 522
f 516 501 518
f 518 501 523
f 501 504 523
f 523 504 524
f 524 504 525
f 525 504 515
f 526 527 523
f 523 527 518
f 529 530 528
f 528 530 531
f 532 533 529
f 529 533 530
f 530 533 535
f 535 533 534
f 536 537 535
f 535 537 538
f 534 539 535
f 535 539 536
f 538 531 535
f 535 531 530
f 540 541 531
f 531 541 528
f 533 532 534
f 534 532 542
f 532 520 542
f 542 520 519
f 532 543 520
f 520 543 521
f 529 544 532
f 532 544 543
f 544 529 545
f 545 529 528
f 534 542 539
f 539 542 527
f 527 542 518
f 518 542 519
f 541 546 528
f 528 546 545
f 547 544 548
f 548 544 545
f 546 549 545
f 545 549 548
f 550 547 551
f 551 547 548
f 547 550 553
f 553 550 552
f 549 554 548
f 548 554 551
f 544 547 543
f 543 547 553
f 543 553 521
f 521 553 522
f 546 541 556
f 556 541 555
f 541 540 555
f 555 540 557
f 536 539 558
f 558 539 527
f 537 536 559
f 559 536 558
f 527 526 558
f 558 526 560
f 559 558 561
f 561 558 560
f 559 562 537
f 537 562 563
f 557 563 555
f 555 563 562
f 509 522 507
f 507 522 564
f 508 565 515
f 515 565 525
f 565 508 564
f 564 508 507
f 564 552 565
f 565 552 566
f 552 550 566
f 566 550 567
f 565 566 525
f 525 566 568
f 564 522 552
f 552 522 553
f 569 524 568
f 568 524 525
f 569 526 524
f 524 526 523
f 570 560 569
f 569 560 526
f 570 569 571
f 571 569 568
f 572 570 573
f 573 570 571
f 566 567 568
f 568 567 571
f 567 574 571
f 571 574 573
f 570 572 560
f 560 572 561
f 576 561 575
f 575 561 572
f 575 578 577
f 577 578 579
f 575 572 578
f 578 572 573
f 575 577 576
f 576 577 556
f 576 556 562
f 562 556 555
f 562 559 576
f 576 559 561
f 550 551 567
f 567 551 574
f 579 574 554
f 554 574 551
f 579 578 574
f 574 578 573
f 579 554 577
f 577 554 549
f 549 546 577
f 577 546 556
f 531 538 540
f 540 538 557
f 557 538 563
f 563 538 537
f 481 294 482
f 482 294 293
f 580 486 511
f 511 486 485
f 490 489 497
f 497 489 498
f 489 491 498
f 498 491 496
f 163 495 164
f 164 495 494
f 580 490 486
f 486 490 497
f 482 293 510
f 510 293 292
f 495 163 511
f 511 163 199
f 494 493 510
f 510 493 499
f 481 491 294
f 294 491 248
f 582 583 581
f 581 583 584
f 586 587 585
f 585 587 588
f 585 588 589
f 589 588 590
f 592 593 591
f 591 593 594
f 595 596 598
f 598 596 597
f 599 600 586
f 586 600 587
f 601 602 604
f 604 602 603
f 605 606 608
f 608 606 607
f 609 607 200
f 200 607 606
f 610 611 613
f 613 611 612
f 600 614 587
f 587 614 592
f 596 605 597
f 597 605 608
f 602 615 603
f 603 615 583
f 616 614 584
f 584 614 600
f 611 618 617
f 617 618 590
f 620 621 619
f 619 621 622
f 610 623 611
f 611 623 618
f 624 589 618
f 618 589 590
f 617 590 591
f 591 590 588
f 581 625 582
f 582 625 626
f 599 627 581
f 581 627 625
f 591 594 617
f 617 594 628
f 601 610 598
f 598 610 613
f 581 584 599
f 599 584 600
f 585 629 586
f 586 629 630
f 615 616 583
f 583 616 584
f 587 592 588
f 588 592 591
f 582 626 631
f 631 626 632
f 624 620 633
f 633 620 619
f 621 620 604
f 604 620 623
f 631 632 621
f 621 632 622
f 610 601 623
f 623 601 604
f 589 624 634
f 634 624 633
f 586 630 599
f 599 630 627
f 203 202 628
f 628 202 612
f 629 585 634
f 634 585 589
f 609 593 614
f 614 593 592
f 620 624 623
f 623 624 618
f 631 621 603
f 603 621 604
f 582 631 583
f 583 631 603
f 634 633 636
f 636 633 635
f 634 636 629
f 629 636 637
f 629 637 630
f 630 637 638
f 630 638 627
f 627 638 639
f 633 619 635
f 635 619 640
f 619 622 640
f 640 622 641
f 641 622 642
f 642 622 632
f 644 635 643
f 643 635 640
f 645 646 648
f 648 646 647
f 649 650 646
f 646 650 647
f 647 650 652
f 652 650 651
f 652 653 655
f 655 653 654
f 651 656 652
f 652 656 653
f 655 648 652
f 652 648 647
f 648 657 645
f 645 657 658
f 650 649 651
f 651 649 659
f 649 637 659
f 659 637 636
f 649 660 637
f 637 660 638
f 661 660 646
f 646 660 649
f 662 661 645
f 645 661 646
f 651 659 656
f 656 659 644
f 644 659 635
f 635 659 636
f 663 662 658
f 658 662 645
f 664 661 665
f 665 661 662
f 663 666 662
f 662 666 665
f 667 664 668
f 668 664 665
f 664 667 670
f 670 667 669
f 666 671 665
f 665 671 668
f 661 664 660
f 660 664 670
f 660 670 638
f 638 670 639
f 658 672 663
f 663 672 673
f 658 657 672
f 672 657 674
f 653 656 675
f 675 656 644
f 653 675 654
f 654 675 676
f 675 644 677
f 677 644 643
f 676 675 678
f 678 675 677
f 679 680 676
f 676 680 654
f 674 680 672
f 672 680 679
f 627 639 625
f 625 639 681
f 626 682 632
f 632 682 642
f 681 682 625
f 625 682 626
f 669 683 681
f 681 683 682
f 667 684 669
f 669 684 683
f 682 683 642
f 642 683 685
f 681 639 669
f 669 639 670
f 686 641 685
f 685 641 642
f 641 686 640
f 640 686 643
f 686 687 643
f 643 687 677
f 687 686 688
f 688 686 685
f 689 687 690
f 690 687 688
f 683 684 685
f 685 684 688
f 684 691 688
f 688 691 690
f 687 689 677
f 677 689 678
f 693 678 692
f 692 678 689
f 692 695 694
f 694 695 696
f 692 689 695
f 695 689 690
f 692 694 693
f 693 694 673
f 693 673 679
f 679 673 672
f 679 676 693
f 693 676 678
f 684 667 691
f 691 667 668
f 696 691 671
f 671 691 668
f 696 695 691
f 691 695 690
f 694 696 666
f 666 696 671
f 666 663 694
f 694 663 673
f 648 655 657
f 657 655 674
f 674 655 680
f 680 655 654
f 593 162 594
f 594 162 290
f 598 597 601
f 601 597 602
f 615 608 616
f 616 608 607
f 607 609 616
f 616 609 614
f 697 595 613
f 613 595 598
f 597 608 602
f 602 608 615
f 594 290 628
f 628 290 203
f 628 612 617
f 617 612 611
f 593 609 162
f 162 609 200
f 105 29 698
f 698 29 699
f 268 126 701
f 701 126 700
f 126 125 700
f 700 125 702
f 252 703 250
f 250 703 704
f 32 268 705
f 705 268 701
f 288 105 706
f 706 105 698
f 29 32 699
f 699 32 705
f 707 251 706
f 706 251 288
f 250 704 125
f 125 704 702
f 703 252 707
f 707 252 251
f 706 708 707
f 707 708 709
f 707 709 703
f 703 709 710
f 703 710 704
f 704 710 711
f 704 711 702
f 702 711 712
f 706 698 708
f 708 698 713
f 698 699 713
f 713 699 714
f 699 705 714
f 714 705 715
f 717 708 716
f 716 708 713
f 719 720 718
f 718 720 721
f 722 723 719
f 719 723 720
f 724 725 723
f 723 725 720
f 724 726 725
f 725 726 727
f 728 721 725
f 725 721 720
f 721 728 729
f 729 728 730
f 729 731 721
f 721 731 718
f 724 723 732
f 732 723 722
f 722 710 732
f 732 710 709
f 722 733 710
f 710 733 711
f 719 734 722
f 722 734 733
f 734 719 735
f 735 719 718
f 724 732 726
f 726 732 717
f 717 732 708
f 708 732 709
f 731 736 718
f 718 736 735
f 737 734 738
f 738 734 735
f 736 739 735
f 735 739 738
f 740 737 741
f 741 737 738
f 737 740 743
f 743 740 742
f 739 744 738
f 738 744 741
f 734 737 733
f 733 737 743
f 733 743 711
f 711 743 712
f 736 731 746
f 746 731 745
f 731 729 745
f 745 729 730
f 727 726 747
f 747 726 717
f 748 727 749
f 749 727 747
f 747 717 750
f 750 717 716
f 749 747 751
f 751 747 750
f 749 752 748
f 748 752 753
f 730 753 745
f 745 753 752
f 728 725 748
f 748 725 727
f 730 728 753
f 753 728 748
f 700 702 754
f 754 702 712
f 705 701 715
f 715 701 755
f 754 755 700
f 700 755 701
f 742 756 754
f 754 756 755
f 740 757 742
f 742 757 756
f 755 756 715
f 715 756 758
f 754 712 742
f 742 712 743
f 759 714 758
f 758 714 715
f 714 759 713
f 713 759 716
f 759 760 716
f 716 760 750
f 760 759 761
f 761 759 758
f 762 760 763
f 763 760 761
f 756 757 758
f 758 757 761
f 757 764 761
f 761 764 763
f 760 762 750
f 750 762 751
f 766 751 765
f 765 751 762
f 767 765 769
f 769 765 768
f 765 762 768
f 768 762 763
f 765 767 766
f 766 767 746
f 766 746 752
f 752 746 745
f 752 749 766
f 766 749 751
f 757 740 764
f 764 740 741
f 769 764 744
f 744 764 741
f 769 768 764
f 764 768 763
f 767 769 739
f 739 769 744
f 739 736 767
f 767 736 746
f 219 217 208
f 208 217 209
f 209 217 210
f 210 217 193
f 198 580 199
f 199 580 511
f 76 75 289
f 289 75 272
f 277 207 291
f 291 207 184
f 290 183 203
f 203 183 84
f 490 580 142
f 142 580 198
f 142 198 143
f 143 198 197
f 149 276 72
f 72 276 73
f 104 103 279
f 279 103 770
f 770 596 279
f 279 596 595
f 605 596 771
f 771 596 770
f 771 770 772
f 772 770 103
f 772 103 773
f 773 103 102
f 155 774 101
f 101 774 102
f 773 102 97
f 97 102 774
f 775 773 100
f 100 773 97
f 773 775 772
f 772 775 776
f 772 776 771
f 771 776 777
f 200 606 197
f 197 606 777
f 189 71 778
f 778 71 74
f 97 774 98
f 98 774 155
f 183 161 184
f 184 161 291
f 777 276 197
f 197 276 143
f 777 606 771
f 771 606 605
f 613 612 697
f 697 612 202
f 595 697 279
f 279 697 202
f 73 276 776
f 776 276 777
f 776 775 73
f 73 775 74
f 100 778 775
f 775 778 74
f 778 100 189
f 189 100 99
f 245 242 99
f 99 242 189
f 131 33 256
f 28 1 95
f 95 1 62
f 27 2 28
f 28 2 1
f 265 115 266
f 266 115 114
f 95 62 69
f 69 62 64
f 62 61 64
f 64 61 65
f 61 13 65
f 65 13 130
f 13 12 130
f 130 12 14
f 31 11 32
f 32 11 268
f 15 12 31
f 31 12 11
f 31 30 15
f 15 30 231
f 30 106 231
f 231 106 232
f 287 237 106
f 106 237 232
f 254 90 287
f 287 90 237
f 253 44 254
f 254 44 90
f 253 249 44
f 44 249 7
f 267 127 268
f 268 127 126
f 10 3 241
f 241 3 116
f 3 2 116
f 116 2 114
f 2 27 114
f 114 27 266
f 27 26 266
f 266 26 113
f 26 286 113
f 113 286 110
f 286 243 110
f 110 243 255
f 243 242 255
f 255 242 256
f 242 245 256
f 256 245 131
f 245 244 131
f 131 244 132
f 265 37 115
f 115 37 41
f 41 37 42
f 42 37 40
f 92 91 40
f 40 91 42
f 236 233 92
f 92 233 91
f 191 194 236
f 236 194 233
f 258 285 244
f 244 285 132
f 257 55 258
f 258 55 285
f 257 154 201
f 201 154 185
f 56 201 204
f 204 201 180
f 55 257 56
f 56 257 201
f 204 85 56
f 56 85 52
f 86 122 53
f 53 122 79
f 212 215 86
f 86 215 122
f 211 216 212
f 212 216 215
f 192 280 211
f 211 280 216
f 191 240 192
f 192 240 280
f 249 124 7
f 7 124 8
f 124 127 8
f 8 127 241
f 127 267 241
f 241 267 10
f 10 267 9
f 9 267 11
o hand_right
v 0.135830 0.330204 1.159261
v 0.137962 0.340684 1.163009
v 0.128929 0.335410 1.165048
v 0.127195 0.326084 1.159933
v 0.126277 0.356356 1.172772
v 0.119520 0.365455 1.168373
v 0.110019 0.352027 1.169976
v 0.117237 0.346477 1.174276
v 0.120832 0.322418 1.158284
v 0.122045 0.330642 1.165912
v 0.119151 0.322942 1.153112
v 0.118964 0.315156 1.142079
v 0.120108 0.315149 1.149564
v 0.119930 0.307879 1.137527
v 0.122558 0.321513 1.133299
v 0.126438 0.307217 1.130137
v 0.151224 0.323840 1.129155
v 0.163997 0.324758 1.133807
v 0.162297 0.307689 1.133895
v 0.149080 0.308365 1.129953
v 0.178622 0.314978 1.145272
v 0.169735 0.310131 1.138945
v 0.171970 0.326922 1.137613
v 0.179840 0.330332 1.143375
v 0.150610 0.335917 1.161544
v 0.153072 0.346322 1.163790
v 0.148026 0.344630 1.162172
v 0.145471 0.334784 1.160025
v 0.111790 0.327506 1.150697
v 0.114041 0.333656 1.141991
v 0.116891 0.326781 1.145046
v 0.114352 0.325400 1.155263
v 0.163087 0.370847 1.175784
v 0.165702 0.382964 1.170161
v 0.160514 0.383473 1.167291
v 0.159494 0.372191 1.172632
v 0.137807 0.380291 1.163399
v 0.144561 0.386627 1.158439
v 0.140283 0.392624 1.146860
v 0.133511 0.385115 1.148321
v 0.128195 0.373106 1.166814
v 0.123994 0.378179 1.154444
v 0.114853 0.368862 1.157946
v 0.105727 0.353985 1.161661
v 0.178159 0.381720 1.173436
v 0.177863 0.372825 1.178525
v 0.109083 0.267622 1.159645
v 0.113806 0.267393 1.163274
v 0.115156 0.270790 1.161025
v 0.110353 0.270401 1.157652
v 0.193871 0.372200 1.164687
v 0.196657 0.370765 1.154996
v 0.197811 0.377812 1.156570
v 0.193565 0.379765 1.164805
v 0.194125 0.362190 1.164557
v 0.194335 0.361044 1.153186
v 0.109554 0.258002 1.151137
v 0.106635 0.261639 1.153391
v 0.108509 0.264090 1.149461
v 0.112081 0.260775 1.147034
v 0.124941 0.317493 1.154739
v 0.133221 0.320832 1.157638
v 0.124489 0.300344 1.152157
v 0.129072 0.308063 1.153696
v 0.123088 0.309542 1.150253
v 0.120346 0.302920 1.147988
v 0.151143 0.313022 1.161092
v 0.152410 0.324749 1.161328
v 0.146477 0.322961 1.158941
v 0.143214 0.310320 1.158704
v 0.164082 0.326329 1.169372
v 0.162066 0.314620 1.168097
v 0.168849 0.316856 1.172881
v 0.168701 0.324839 1.173807
v 0.156364 0.294989 1.163590
v 0.155536 0.288214 1.162062
v 0.158074 0.287257 1.163731
v 0.159578 0.295530 1.165332
v 0.198996 0.384800 1.156899
v 0.192647 0.386965 1.164154
v 0.193301 0.321074 1.159945
v 0.195638 0.326641 1.169313
v 0.195983 0.314217 1.172250
v 0.193665 0.311516 1.161233
v 0.193331 0.368819 1.145233
v 0.196834 0.375709 1.146683
v 0.115041 0.255058 1.151507
v 0.117581 0.257892 1.147815
v 0.117566 0.368550 1.144466
v 0.105822 0.353122 1.151729
v 0.128749 0.378623 1.139868
v 0.137438 0.384881 1.136751
v 0.142418 0.391894 1.134951
v 0.133918 0.303808 1.155919
v 0.141227 0.325748 1.158581
v 0.155066 0.336700 1.163776
v 0.179350 0.335530 1.182878
v 0.179788 0.346168 1.183326
v 0.170452 0.342475 1.179584
v 0.172300 0.333876 1.179369
v 0.192696 0.327440 1.178803
v 0.185773 0.325854 1.182443
v 0.185437 0.316844 1.182436
v 0.192281 0.316933 1.179807
v 0.105699 0.330731 1.148496
v 0.111168 0.340069 1.140351
v 0.187476 0.373730 1.173069
v 0.185683 0.381111 1.171170
v 0.186248 0.389039 1.168150
v 0.156678 0.358942 1.169943
v 0.156890 0.373180 1.170559
v 0.152642 0.372930 1.169258
v 0.154470 0.358508 1.167836
v 0.139161 0.351929 1.168615
v 0.137698 0.365136 1.170894
v 0.129866 0.344621 1.171454
v 0.153723 0.385945 1.163257
v 0.161544 0.393497 1.165120
v 0.154193 0.394816 1.160120
v 0.170817 0.392356 1.168300
v 0.179543 0.390778 1.169705
v 0.200969 0.383010 1.145178
v 0.148033 0.394908 1.154291
v 0.112404 0.339395 1.173608
v 0.108652 0.332573 1.172594
v 0.114801 0.328687 1.170045
v 0.117879 0.333764 1.170996
v 0.120162 0.299105 1.135235
v 0.118088 0.301292 1.142530
v 0.118870 0.310043 1.144426
v 0.166483 0.360043 1.178608
v 0.178752 0.362270 1.181057
v 0.129079 0.295839 1.154170
v 0.114654 0.264982 1.143832
v 0.110542 0.268439 1.146381
v 0.116417 0.285434 1.139249
v 0.120872 0.281127 1.136031
v 0.132848 0.285917 1.152162
v 0.128306 0.291020 1.154041
v 0.128275 0.288233 1.153910
v 0.132332 0.283019 1.154070
v 0.165409 0.290915 1.168437
v 0.166465 0.298377 1.169914
v 0.146367 0.293109 1.134423
v 0.135663 0.296467 1.126523
v 0.137268 0.308684 1.126911
v 0.157549 0.314713 1.164659
v 0.157131 0.304128 1.164872
v 0.160807 0.304581 1.166872
v 0.136611 0.299772 1.156500
v 0.134235 0.292594 1.155035
v 0.139216 0.294678 1.156000
v 0.141668 0.301344 1.157953
v 0.196286 0.339524 1.166800
v 0.193182 0.340384 1.178098
v 0.106518 0.265318 1.156291
v 0.107948 0.267933 1.153341
v 0.158647 0.326191 1.164815
v 0.139653 0.323178 1.128316
v 0.159698 0.337480 1.166673
v 0.181939 0.296794 1.157294
v 0.181286 0.295581 1.164945
v 0.178577 0.289302 1.164959
v 0.179731 0.288141 1.159021
v 0.127471 0.269208 1.158827
v 0.123010 0.272084 1.161232
v 0.120950 0.268692 1.162435
v 0.125207 0.265069 1.160526
v 0.123509 0.294198 1.152447
v 0.118952 0.296359 1.148442
v 0.118084 0.290756 1.150166
v 0.123270 0.289442 1.153043
v 0.117011 0.294520 1.142508
v 0.115574 0.289182 1.144400
v 0.129078 0.265368 1.153677
v 0.126110 0.262293 1.147348
v 0.133115 0.276792 1.140970
v 0.133942 0.277522 1.148947
v 0.181631 0.345104 1.140565
v 0.189651 0.346852 1.148185
v 0.188133 0.332165 1.151137
v 0.187658 0.317788 1.153534
v 0.185825 0.304615 1.156295
v 0.178785 0.302167 1.146389
v 0.193334 0.334944 1.156865
v 0.140495 0.286164 1.145762
v 0.138289 0.286751 1.136951
v 0.143616 0.287594 1.139785
v 0.164993 0.337699 1.171985
v 0.109511 0.272047 1.150595
v 0.156341 0.377994 1.125113
v 0.169516 0.375376 1.126423
v 0.165553 0.367532 1.127082
v 0.150526 0.370340 1.126333
v 0.116649 0.274488 1.160100
v 0.111372 0.274759 1.156226
v 0.171905 0.297525 1.173330
v 0.170645 0.290756 1.170898
v 0.174080 0.288778 1.170258
v 0.176197 0.294476 1.175188
v 0.193151 0.349246 1.152457
v 0.195070 0.306586 1.175768
v 0.193818 0.304529 1.165239
v 0.190624 0.359660 1.145366
v 0.184005 0.358202 1.138231
v 0.186206 0.367626 1.136889
v 0.166235 0.293776 1.142020
v 0.174863 0.341959 1.135984
v 0.177574 0.356187 1.134428
v 0.179910 0.367368 1.132637
v 0.182479 0.375184 1.131191
v 0.189034 0.374695 1.136135
v 0.120579 0.262432 1.144778
v 0.123622 0.257161 1.151041
v 0.193332 0.382446 1.134111
v 0.185413 0.382800 1.129158
v 0.169238 0.354874 1.130503
v 0.158414 0.353722 1.127074
v 0.166875 0.341159 1.132343
v 0.156075 0.338830 1.128882
v 0.160016 0.294770 1.133106
v 0.118845 0.249911 1.166239
v 0.123854 0.256668 1.159528
v 0.123196 0.261258 1.163119
v 0.119528 0.252797 1.169313
v 0.126521 0.260826 1.156388
v 0.121063 0.254506 1.154850
v 0.141260 0.338878 1.128223
v 0.138156 0.288347 1.154265
v 0.140660 0.356017 1.128239
v 0.124399 0.334852 1.130721
v 0.123071 0.347725 1.132815
v 0.137960 0.373919 1.129360
v 0.124490 0.363901 1.133433
v 0.149421 0.388304 1.127484
v 0.145121 0.380484 1.128133
v 0.112623 0.353613 1.140306
v 0.107611 0.261059 1.168130
v 0.112792 0.260797 1.170640
v 0.159849 0.385527 1.123770
v 0.122293 0.338000 1.171709
v 0.163332 0.348486 1.173194
v 0.159498 0.347784 1.169047
v 0.179559 0.352570 1.182771
v 0.168632 0.350241 1.179026
v 0.104240 0.259002 1.164441
v 0.157264 0.283561 1.159504
v 0.158372 0.285025 1.158848
v 0.105887 0.343518 1.170454
v 0.102481 0.336639 1.170322
v 0.097599 0.334897 1.157918
v 0.097830 0.336352 1.165149
v 0.101242 0.344886 1.163010
v 0.100809 0.343559 1.155191
v 0.158504 0.358872 1.171921
v 0.161549 0.358613 1.174479
v 0.195416 0.351577 1.165864
v 0.191887 0.351706 1.176974
v 0.119164 0.292035 1.136716
v 0.126130 0.296323 1.129668
v 0.124355 0.288842 1.132974
v 0.127868 0.279443 1.135763
v 0.138391 0.284819 1.151017
v 0.136156 0.283959 1.147044
v 0.145939 0.369099 1.170050
v 0.148472 0.356220 1.166897
v 0.118447 0.328595 1.164771
v 0.116724 0.325661 1.163352
v 0.148895 0.304146 1.160644
v 0.160651 0.283804 1.145940
v 0.155325 0.284934 1.138902
v 0.147515 0.295264 1.159177
v 0.105782 0.251834 1.160113
v 0.103692 0.255930 1.162133
v 0.131330 0.287329 1.131965
v 0.167220 0.306372 1.172165
v 0.166104 0.289269 1.148037
v 0.160714 0.282080 1.153124
v 0.191100 0.311079 1.181249
v 0.172432 0.383736 1.125283
v 0.119542 0.265052 1.165263
v 0.117336 0.258689 1.171296
v 0.116611 0.248646 1.162705
v 0.111423 0.249256 1.159410
v 0.188858 0.362124 1.175598
v 0.156881 0.346877 1.166422
v 0.105616 0.343333 1.146097
v 0.101048 0.333333 1.151463
v 0.146962 0.290200 1.158139
v 0.186871 0.300121 1.162721
v 0.177530 0.293279 1.149324
v 0.175705 0.284894 1.151588
v 0.168405 0.282832 1.150440
v 0.161759 0.281716 1.154025
v 0.114534 0.245942 1.167066
v 0.109609 0.246586 1.163618
v 0.103929 0.249303 1.163925
v 0.102058 0.253186 1.165497
v 0.103357 0.256985 1.167458
v 0.116691 0.247077 1.170897
v 0.117009 0.249934 1.173614
v 0.116016 0.256215 1.174024
v 0.114444 0.245811 1.175519
v 0.110291 0.242506 1.174190
v 0.096987 0.246948 1.176242
v 0.100090 0.246260 1.171156
v 0.100329 0.244499 1.173346
v 0.098054 0.244239 1.177886
v 0.096608 0.242751 1.182741
v 0.094974 0.245709 1.181504
v 0.104766 0.243133 1.172341
v 0.102239 0.242280 1.178697
v 0.106142 0.241917 1.180448
v 0.103585 0.240571 1.185324
v 0.100052 0.240625 1.183864
v 0.107572 0.242164 1.175911
v 0.105863 0.243350 1.170028
v 0.095219 0.243995 1.185918
v 0.096256 0.241671 1.185510
v 0.099048 0.240325 1.186875
v 0.098184 0.241794 1.189511
v 0.099975 0.251976 1.169384
v 0.096563 0.249583 1.176662
v 0.095870 0.248604 1.182716
v 0.096088 0.246559 1.186971
v 0.098242 0.252275 1.179452
v 0.097787 0.250532 1.184000
v 0.098447 0.248865 1.187726
v 0.101312 0.253764 1.182201
v 0.100417 0.251512 1.185658
v 0.105386 0.257766 1.172268
v 0.102264 0.256296 1.169592
v 0.099991 0.250373 1.188036
v 0.099020 0.243628 1.190620
v 0.109724 0.243109 1.180621
v 0.105892 0.242406 1.186716
v 0.111096 0.244884 1.181721
v 0.107538 0.243826 1.187789
v 0.103045 0.241062 1.190034
v 0.101914 0.240319 1.187796
v 0.107283 0.259373 1.169940
v 0.112630 0.258872 1.172714
v 0.111123 0.257512 1.175002
v 0.105778 0.253605 1.184257
v 0.114280 0.254890 1.176780
v 0.114766 0.248994 1.177905
v 0.111095 0.247251 1.183733
v 0.109944 0.250444 1.184756
v 0.107822 0.246431 1.188145
v 0.106792 0.248808 1.187968
v 0.103672 0.251195 1.187473
v 0.104420 0.246053 1.190577
v 0.103928 0.243080 1.190693
v 0.100619 0.246702 1.190364
v 0.104718 0.247902 1.189874
v 0.101865 0.248806 1.189159
v 0.136814 0.262016 1.172072
v 0.142434 0.262233 1.175380
v 0.143210 0.263570 1.170924
v 0.138380 0.263142 1.168406
v 0.136465 0.250026 1.164332
v 0.133792 0.255169 1.166783
v 0.135540 0.256123 1.161716
v 0.139869 0.251496 1.159398
v 0.142944 0.247180 1.164832
v 0.146361 0.249747 1.159996
v 0.141367 0.255665 1.154902
v 0.136948 0.260419 1.158130
v 0.140950 0.278961 1.148405
v 0.145390 0.275416 1.144261
v 0.152102 0.283315 1.161773
v 0.154999 0.280760 1.160655
v 0.134444 0.259533 1.169645
v 0.135835 0.260423 1.165319
v 0.152372 0.264719 1.170327
v 0.147607 0.267295 1.171325
v 0.147615 0.263178 1.173101
v 0.151742 0.259411 1.172423
v 0.141247 0.283713 1.155573
v 0.146825 0.284216 1.158745
v 0.140044 0.281593 1.152461
v 0.155603 0.260096 1.166566
v 0.155144 0.255849 1.161099
v 0.158890 0.273170 1.149654
v 0.159518 0.275252 1.155737
v 0.136006 0.264094 1.162226
v 0.142054 0.267585 1.169822
v 0.137797 0.267001 1.166746
v 0.148809 0.254897 1.155862
v 0.152344 0.250626 1.165449
v 0.145086 0.247287 1.184694
v 0.151026 0.251660 1.174685
v 0.149979 0.256348 1.176923
v 0.145247 0.251671 1.187364
v 0.153643 0.254533 1.169873
v 0.148861 0.248251 1.170217
v 0.132871 0.258393 1.185277
v 0.138712 0.258469 1.188228
v 0.129639 0.255973 1.182844
v 0.152767 0.273556 1.144456
v 0.131126 0.247353 1.177063
v 0.128784 0.252789 1.180074
v 0.147187 0.260743 1.177149
v 0.143074 0.255876 1.189032
v 0.142803 0.244635 1.181631
v 0.137217 0.244307 1.176588
v 0.139528 0.243351 1.186902
v 0.134201 0.243209 1.183158
v 0.128499 0.246627 1.182781
v 0.127369 0.252218 1.184049
v 0.129002 0.255576 1.185514
v 0.141979 0.245877 1.189699
v 0.142876 0.250273 1.191563
v 0.141452 0.255179 1.191019
v 0.139293 0.248159 1.196334
v 0.135896 0.244819 1.195456
v 0.120486 0.255107 1.200511
v 0.122499 0.252394 1.195379
v 0.123475 0.250466 1.196933
v 0.121774 0.252863 1.201705
v 0.124735 0.248090 1.191160
v 0.125411 0.247619 1.193591
v 0.129590 0.245324 1.194361
v 0.127447 0.248830 1.199289
v 0.132142 0.248497 1.200732
v 0.129919 0.250509 1.205752
v 0.125205 0.250654 1.204646
v 0.132534 0.245794 1.197021
v 0.121391 0.253970 1.205201
v 0.120900 0.256375 1.206090
v 0.130324 0.243429 1.191568
v 0.125483 0.252302 1.187155
v 0.122466 0.255545 1.194796
v 0.121223 0.258366 1.200713
v 0.122626 0.258829 1.206814
v 0.124615 0.259189 1.195735
v 0.123484 0.260674 1.201427
v 0.124865 0.260341 1.206318
v 0.128472 0.261731 1.197257
v 0.127249 0.262236 1.202816
v 0.132083 0.258557 1.188260
v 0.127852 0.256492 1.186981
v 0.126776 0.261409 1.205243
v 0.123803 0.254457 1.209470
v 0.125198 0.257499 1.209855
v 0.123935 0.253104 1.208144
v 0.134234 0.249009 1.201219
v 0.131439 0.251996 1.206458
v 0.136181 0.251132 1.201958
v 0.132593 0.253961 1.207436
v 0.128455 0.253606 1.209914
v 0.127360 0.252562 1.209151
v 0.132736 0.257371 1.187149
v 0.138049 0.257361 1.189533
v 0.137514 0.258409 1.190382
v 0.133472 0.260932 1.199463
v 0.140939 0.255774 1.192576
v 0.140789 0.251669 1.195714
v 0.137449 0.253767 1.201716
v 0.136649 0.257782 1.201263
v 0.134043 0.255609 1.207557
v 0.134379 0.258123 1.205474
v 0.131223 0.261590 1.204028
v 0.130501 0.257094 1.210333
v 0.129240 0.255095 1.210494
v 0.126613 0.259024 1.209041
v 0.131700 0.258876 1.208266
v 0.128636 0.260679 1.207158
v 0.156306 0.264120 1.172324
v 0.160911 0.264867 1.175999
v 0.162100 0.267339 1.173711
v 0.157839 0.266041 1.170018
v 0.159061 0.255004 1.163700
v 0.155562 0.257826 1.165766
v 0.157489 0.260428 1.162444
v 0.161628 0.258550 1.159421
v 0.163750 0.252351 1.165771
v 0.167531 0.257130 1.159998
v 0.163575 0.262855 1.156167
v 0.158840 0.263647 1.160057
v 0.161409 0.277834 1.155263
v 0.166942 0.276317 1.151671
v 0.155000 0.261329 1.168920
v 0.156499 0.263357 1.166454
v 0.170461 0.268364 1.174804
v 0.165851 0.269865 1.175210
v 0.167014 0.266174 1.175569
v 0.170646 0.263517 1.174827
v 0.159644 0.283945 1.164296
v 0.164887 0.285871 1.167171
v 0.158963 0.280316 1.160399
v 0.174474 0.265169 1.170375
v 0.175196 0.262970 1.163269
v 0.178221 0.277972 1.160113
v 0.176872 0.280771 1.165489
v 0.156937 0.265747 1.164515
v 0.160966 0.270483 1.173193
v 0.157142 0.268667 1.169284
v 0.169832 0.262839 1.157695
v 0.172490 0.257127 1.165518
v 0.163230 0.246178 1.184265
v 0.171249 0.256138 1.173826
v 0.169114 0.260625 1.177256
v 0.163102 0.249779 1.186922
v 0.173225 0.259525 1.171519
v 0.169430 0.253115 1.169292
v 0.150707 0.256386 1.183527
v 0.155586 0.256431 1.186409
v 0.149376 0.254415 1.179647
v 0.174023 0.276303 1.153041
v 0.172225 0.284440 1.168916
v 0.150809 0.247899 1.175930
v 0.149206 0.251688 1.177556
v 0.165859 0.263505 1.177664
v 0.160610 0.253767 1.187942
v 0.161395 0.244166 1.179929
v 0.156362 0.244949 1.175606
v 0.158564 0.241849 1.184901
v 0.153267 0.242649 1.180833
v 0.148039 0.246150 1.180506
v 0.147221 0.250815 1.181644
v 0.147962 0.253746 1.183284
v 0.160904 0.244731 1.188752
v 0.161058 0.248420 1.190394
v 0.159774 0.253240 1.188648
v 0.159050 0.244799 1.192705
v 0.154838 0.241323 1.191275
v 0.140738 0.248667 1.199391
v 0.142858 0.248074 1.193648
v 0.143539 0.247143 1.194066
v 0.141419 0.247070 1.199752
v 0.145459 0.245395 1.187582
v 0.145524 0.245018 1.189607
v 0.148834 0.242526 1.189888
v 0.146709 0.243353 1.196254
v 0.152677 0.243654 1.197925
v 0.150027 0.244286 1.202616
v 0.144438 0.243717 1.201563
v 0.152804 0.241996 1.192357
v 0.141023 0.246752 1.203105
v 0.139459 0.247776 1.203449
v 0.149942 0.241586 1.187465
v 0.144823 0.250252 1.186154
v 0.142264 0.251059 1.193357
v 0.140128 0.251759 1.199106
v 0.140396 0.251361 1.203663
v 0.144180 0.254330 1.194262
v 0.142270 0.254087 1.199411
v 0.142472 0.253575 1.203488
v 0.146848 0.255961 1.195602
v 0.145221 0.255389 1.200081
v 0.150141 0.255860 1.187052
v 0.146856 0.253812 1.186196
v 0.144635 0.254433 1.203014
v 0.142762 0.245878 1.206443
v 0.144365 0.249668 1.207540
v 0.143297 0.245270 1.204912
v 0.154558 0.243913 1.198011
v 0.151643 0.244994 1.204171
v 0.156370 0.246079 1.198712
v 0.153338 0.247047 1.204659
v 0.148035 0.245214 1.206861
v 0.147508 0.244795 1.205855
v 0.150721 0.255694 1.185125
v 0.155579 0.255716 1.187233
v 0.154987 0.255909 1.188691
v 0.151382 0.256138 1.197757
v 0.159011 0.253485 1.190274
v 0.159397 0.248557 1.193954
v 0.156447 0.249515 1.199099
v 0.154923 0.253211 1.199268
v 0.153615 0.249862 1.204291
v 0.152986 0.252315 1.202836
v 0.149207 0.255563 1.201842
v 0.150027 0.250279 1.206458
v 0.149405 0.247491 1.207438
v 0.145783 0.252322 1.206440
v 0.150309 0.252454 1.205185
v 0.147074 0.253924 1.204973
v 0.168972 0.285995 1.169031
v 0.175005 0.277750 1.187344
v 0.176793 0.279723 1.190722
v 0.177995 0.280840 1.189877
v 0.176042 0.279864 1.186026
v 0.182302 0.270794 1.181710
v 0.177823 0.272381 1.182583
v 0.179776 0.274735 1.179441
v 0.184344 0.273566 1.178523
v 0.187196 0.271242 1.183970
v 0.189203 0.274175 1.181635
v 0.185248 0.276688 1.176670
v 0.180593 0.277877 1.177457
v 0.182178 0.291682 1.168945
v 0.187430 0.292870 1.167630
v 0.189519 0.305110 1.182860
v 0.184058 0.306445 1.183193
v 0.184045 0.297812 1.185683
v 0.188938 0.297959 1.185443
v 0.175586 0.275034 1.184597
v 0.176486 0.277446 1.182267
v 0.187248 0.283849 1.192626
v 0.182355 0.284326 1.192015
v 0.180927 0.281769 1.192848
v 0.185254 0.280985 1.194874
v 0.179489 0.303714 1.181230
v 0.177241 0.300612 1.178205
v 0.176972 0.296392 1.179359
v 0.179838 0.296115 1.183491
v 0.177027 0.292749 1.174383
v 0.190834 0.282171 1.190657
v 0.193000 0.279354 1.185579
v 0.195940 0.296903 1.178409
v 0.193265 0.298341 1.182406
v 0.177486 0.279062 1.180664
v 0.178686 0.283526 1.189042
v 0.176815 0.281362 1.185527
v 0.190613 0.277523 1.179359
v 0.191029 0.275962 1.188008
v 0.184168 0.271847 1.199615
v 0.187998 0.276693 1.194857
v 0.184207 0.279546 1.195996
v 0.182188 0.274536 1.200331
v 0.189003 0.278842 1.193109
v 0.189020 0.273041 1.190535
v 0.171982 0.274702 1.192251
v 0.175246 0.276746 1.196205
v 0.171826 0.272172 1.189935
v 0.193361 0.294518 1.170710
v 0.176734 0.266511 1.188379
v 0.173034 0.269067 1.188889
v 0.179835 0.280196 1.193813
v 0.178878 0.276572 1.199183
v 0.184590 0.268205 1.196355
v 0.182260 0.266102 1.190648
v 0.181146 0.266125 1.199370
v 0.178687 0.264258 1.193865
v 0.172826 0.266112 1.191538
v 0.171039 0.269694 1.191252
v 0.170595 0.272785 1.192132
v 0.181504 0.270434 1.202159
v 0.180422 0.273358 1.202366
v 0.178066 0.275911 1.200362
v 0.178610 0.269273 1.204788
v 0.175662 0.265703 1.203256
v 0.162913 0.270165 1.204266
v 0.165158 0.269610 1.200665
v 0.165710 0.268731 1.201306
v 0.163033 0.269094 1.204508
v 0.168613 0.267333 1.196763
v 0.168492 0.267009 1.198614
v 0.171799 0.265406 1.199410
v 0.168378 0.266208 1.203660
v 0.172151 0.267095 1.207509
v 0.169052 0.267541 1.210349
v 0.166006 0.266402 1.206758
v 0.173756 0.265527 1.203407
v 0.161913 0.268477 1.207055
v 0.160903 0.269301 1.207668
v 0.173344 0.264369 1.197668
v 0.168040 0.271017 1.194932
v 0.164059 0.272035 1.200648
v 0.161484 0.272027 1.205190
v 0.160962 0.271279 1.209028
v 0.164994 0.274414 1.200519
v 0.161899 0.274283 1.205653
v 0.161607 0.273505 1.209324
v 0.167049 0.276864 1.201678
v 0.163838 0.275940 1.206310
v 0.171041 0.276739 1.196693
v 0.168801 0.274298 1.195318
v 0.162980 0.274611 1.209019
v 0.162914 0.267796 1.210775
v 0.162913 0.270679 1.211737
v 0.163844 0.266768 1.209818
v 0.173221 0.267746 1.208200
v 0.169509 0.268488 1.211691
v 0.174370 0.269803 1.208962
v 0.169780 0.270579 1.212291
v 0.166043 0.268360 1.212640
v 0.166350 0.267213 1.211101
v 0.171562 0.275721 1.194757
v 0.174474 0.276611 1.197259
v 0.174299 0.277221 1.199467
v 0.170370 0.277524 1.204211
v 0.177708 0.275684 1.202475
v 0.179049 0.272479 1.204443
v 0.174422 0.272589 1.208814
v 0.173261 0.275589 1.207512
v 0.169332 0.272737 1.212096
v 0.168718 0.275312 1.210530
v 0.166585 0.276715 1.208263
v 0.165507 0.272471 1.212507
v 0.165557 0.270653 1.213105
v 0.163393 0.272729 1.211548
v 0.165663 0.274172 1.211555
v 0.164397 0.274581 1.210501
v 0.192414 0.302752 1.181038
v 0.103177 0.318171 1.155102
v 0.108309 0.317646 1.156991
v 0.108006 0.320038 1.173920
v 0.111747 0.317184 1.168314
v 0.101312 0.322304 1.175366
v 0.092083 0.323423 1.168491
v 0.096105 0.324291 1.172906
v 0.111529 0.316607 1.162040
v 0.097403 0.319887 1.156000
v 0.092287 0.322467 1.161218
v 0.095820 0.308944 1.156502
v 0.089166 0.311208 1.162778
v 0.088036 0.312541 1.170318
v 0.094073 0.317005 1.175323
v 0.099039 0.317658 1.177211
v 0.103874 0.311836 1.157230
v 0.108591 0.312893 1.159310
v 0.111468 0.314046 1.165078
v 0.107028 0.304856 1.160866
v 0.103788 0.297233 1.166649
v 0.100822 0.293212 1.186732
v 0.098426 0.298725 1.182885
v 0.098848 0.296808 1.180957
v 0.100618 0.291731 1.184708
v 0.095842 0.300943 1.177871
v 0.097436 0.299380 1.177077
v 0.099012 0.298514 1.172080
v 0.101352 0.293886 1.176084
v 0.103422 0.296922 1.169760
v 0.106253 0.293882 1.172410
v 0.103377 0.289169 1.179515
v 0.101998 0.287734 1.185303
v 0.105136 0.285353 1.182550
v 0.103497 0.288458 1.188005
v 0.095891 0.297671 1.169550
v 0.094760 0.307490 1.179407
v 0.098903 0.301751 1.184693
v 0.102620 0.295863 1.188689
v 0.105814 0.290489 1.189209
v 0.102332 0.304400 1.185818
v 0.105869 0.298655 1.188220
v 0.109095 0.293923 1.187982
v 0.107083 0.305691 1.184433
v 0.109300 0.299699 1.186073
v 0.105151 0.314860 1.177979
v 0.098868 0.313089 1.180358
v 0.110311 0.295838 1.186303
v 0.107316 0.284675 1.184605
v 0.109793 0.287119 1.185647
v 0.108650 0.294920 1.170108
v 0.108153 0.289293 1.175453
v 0.110787 0.290374 1.174750
v 0.111376 0.297610 1.169013
v 0.113055 0.291908 1.174967
v 0.110570 0.286230 1.179283
v 0.107798 0.286251 1.178657
v 0.105533 0.317349 1.176087
v 0.110051 0.316000 1.171066
v 0.109508 0.314482 1.172790
v 0.111874 0.305341 1.179332
v 0.111927 0.311737 1.167997
v 0.110506 0.308147 1.163438
v 0.113631 0.300142 1.170476
v 0.114127 0.303126 1.174071
v 0.114356 0.294771 1.176696
v 0.114121 0.297110 1.178640
v 0.112420 0.298905 1.182855
v 0.113560 0.291573 1.181119
v 0.112821 0.288305 1.179966
v 0.111721 0.291284 1.185255
v 0.113440 0.294170 1.181327
v 0.112170 0.294598 1.184293
v 0.184483 0.311796 1.182551
v 0.178494 0.309805 1.180608
v 0.179887 0.316116 1.181275
v 0.179744 0.325347 1.182218
v 0.185392 0.334497 1.182657
v 0.173845 0.324733 1.178639
v 0.174443 0.315069 1.177904
v 0.173362 0.305647 1.176409
v 0.168420 0.332480 1.174509
f 780 781 779
f 779 781 782
f 783 784 786
f 786 784 785
f 787 782 788
f 788 782 781
f 790 791 789
f 789 791 787
f 792 790 794
f 794 790 793
f 796 797 795
f 795 797 798
f 800 801 799
f 799 801 802
f 804 805 803
f 803 805 806
f 808 809 807
f 807 809 810
f 811 812 814
f 814 812 813
f 815 816 818
f 818 816 817
f 819 820 784
f 784 820 821
f 784 821 785
f 785 821 822
f 823 812 824
f 824 812 811
f 826 827 825
f 825 827 828
f 830 831 829
f 829 831 832
f 834 830 833
f 833 830 829
f 836 837 835
f 835 837 838
f 839 840 782
f 782 840 779
f 842 843 841
f 841 843 844
f 846 847 845
f 845 847 848
f 850 851 849
f 849 851 852
f 854 855 853
f 853 855 856
f 831 857 832
f 832 857 858
f 860 861 859
f 859 861 862
f 863 864 830
f 830 864 831
f 835 838 865
f 865 838 866
f 867 868 821
f 821 868 822
f 821 820 867
f 867 820 869
f 818 817 870
f 870 817 871
f 872 848 842
f 842 848 847
f 791 839 787
f 787 839 782
f 803 806 847
f 847 806 873
f 874 803 846
f 846 803 847
f 876 877 875
f 875 877 878
f 879 880 882
f 882 880 881
f 884 808 883
f 883 808 807
f 829 832 885
f 885 832 886
f 832 858 886
f 886 858 887
f 889 890 888
f 888 890 891
f 893 783 892
f 892 783 894
f 893 819 783
f 783 819 784
f 814 813 889
f 889 813 895
f 813 896 895
f 895 896 897
f 812 898 813
f 813 898 896
f 812 823 898
f 898 823 899
f 903 904 902
f 902 904 905
f 906 907 792
f 792 907 908
f 811 909 824
f 824 909 910
f 911 872 841
f 841 872 842
f 912 913 915
f 915 913 914
f 917 918 916
f 916 918 919
f 855 920 856
f 856 920 921
f 922 923 798
f 798 923 924
f 926 927 925
f 925 927 850
f 929 930 928
f 928 930 931
f 860 879 861
f 861 879 882
f 879 860 933
f 933 860 932
f 934 935 836
f 836 935 837
f 936 846 925
f 925 846 845
f 937 924 793
f 793 924 794
f 846 936 874
f 874 936 938
f 907 844 908
f 908 844 843
f 940 941 939
f 939 941 942
f 944 945 943
f 943 945 946
f 948 949 947
f 947 949 950
f 952 949 951
f 951 949 948
f 954 955 953
f 953 955 956
f 958 959 957
f 957 959 802
f 960 961 799
f 799 961 962
f 859 963 860
f 860 963 932
f 964 965 966
f 966 965 922
f 936 849 938
f 938 849 967
f 968 913 935
f 935 913 837
f 947 950 917
f 917 950 918
f 925 850 936
f 936 850 849
f 970 971 969
f 969 971 972
f 945 944 827
f 827 944 973
f 974 968 828
f 828 968 935
f 975 976 978
f 978 976 977
f 799 802 960
f 960 802 959
f 924 937 798
f 798 937 795
f 960 959 859
f 859 959 963
f 979 963 958
f 958 963 959
f 980 981 861
f 861 981 862
f 983 984 982
f 982 984 863
f 985 800 962
f 962 800 799
f 957 802 986
f 986 802 801
f 986 987 957
f 957 987 983
f 987 988 983
f 983 988 984
f 990 984 989
f 989 984 988
f 957 983 958
f 958 983 982
f 991 954 866
f 866 954 992
f 864 863 990
f 990 863 984
f 971 995 996
f 995 997 996
f 996 997 998
f 997 796 998
f 998 796 795
f 797 999 798
f 798 999 922
f 1000 1001 1003
f 1003 1001 1002
f 953 1004 954
f 954 1004 992
f 1005 865 992
f 992 865 866
f 998 795 1006
f 1006 795 937
f 912 991 838
f 838 991 866
f 916 1007 929
f 929 1007 930
f 971 970 988
f 988 970 989
f 1008 972 996
f 996 972 971
f 1009 1010 1006
f 1006 1010 1008
f 1011 1012 869
f 869 1012 867
f 1013 1014 871
f 871 1014 870
f 1008 1010 1012
f 1012 1010 1015
f 825 1016 826
f 826 1016 1017
f 1018 969 1013
f 1013 969 1014
f 783 786 894
f 894 786 1019
f 1020 1021 967
f 967 1021 938
f 1022 1023 876
f 876 1023 877
f 934 1024 825
f 825 1024 1016
f 854 1025 855
f 855 1025 1026
f 1028 903 1027
f 1027 903 902
f 1030 1031 1029
f 1029 1031 1032
f 889 888 814
f 814 888 1033
f 1034 811 1033
f 1033 811 814
f 1035 1036 932
f 932 1036 933
f 841 947 911
f 911 947 917
f 844 948 841
f 841 948 947
f 951 948 907
f 907 948 844
f 907 906 951
f 951 906 1037
f 906 1038 1037
f 1037 1038 1039
f 991 912 1040
f 1040 912 915
f 1041 1042 964
f 964 1042 965
f 890 1043 891
f 891 1043 1044
f 789 1045 1046
f 1012 1011 1008
f 1008 1011 972
f 931 1047 848
f 848 1047 845
f 953 956 943
f 943 956 919
f 928 931 872
f 872 931 848
f 1049 999 1048
f 1048 999 985
f 1047 931 1050
f 1050 931 930
f 899 823 887
f 887 823 886
f 825 828 934
f 934 828 935
f 835 1051 836
f 836 1051 1052
f 923 1053 1038
f 1038 1053 1039
f 1054 927 921
f 921 927 856
f 926 1047 853
f 853 1047 1050
f 985 1055 1048
f 1048 1055 1056
f 973 974 827
f 827 974 828
f 837 913 838
f 838 913 912
f 861 882 980
f 980 882 1057
f 927 926 856
f 856 926 853
f 1025 1056 1026
f 1026 1056 1055
f 961 960 862
f 862 960 859
f 826 1017 1059
f 1059 1017 1060
f 1005 1001 1061
f 1061 1001 1000
f 1001 1004 1002
f 1002 1004 946
f 1059 1060 1002
f 1002 1060 1003
f 943 946 953
f 953 946 1004
f 1042 1041 916
f 916 1041 1007
f 792 794 906
f 906 794 1038
f 998 1006 996
f 996 1006 1008
f 865 1005 1062
f 1062 1005 1061
f 1038 794 923
f 923 794 924
f 1022 876 1036
f 1036 876 933
f 836 1052 934
f 934 1052 1024
f 885 1063 829
f 829 1063 833
f 1021 1064 938
f 938 1064 874
f 1012 1015 867
f 867 1015 868
f 824 910 885
f 885 910 1063
f 1031 1030 1027
f 1027 1030 1028
f 1064 804 874
f 874 804 803
f 884 883 1065
f 1065 883 1066
f 1050 930 1067
f 1067 930 1007
f 916 929 917
f 917 929 911
f 961 1068 939
f 939 1068 940
f 1069 1070 1055
f 1055 1070 1071
f 929 928 911
f 911 928 872
f 1040 1053 955
f 955 1053 965
f 922 965 923
f 923 965 1053
f 1051 835 1062
f 1062 835 865
f 952 914 968
f 968 914 913
f 889 895 890
f 890 895 816
f 895 897 816
f 816 897 901
f 890 816 1043
f 1043 816 815
f 1065 1066 1032
f 1032 1066 1029
f 1006 937 1009
f 1009 937 793
f 1001 1005 1004
f 1004 1005 992
f 925 845 926
f 926 845 1047
f 1002 946 1059
f 1059 946 945
f 977 941 978
f 978 941 940
f 823 824 886
f 886 824 885
f 1059 945 826
f 826 945 827
f 939 942 1069
f 1069 942 1070
f 816 901 817
f 1071 1072 1055
f 1055 1072 1026
f 1062 1061 1074
f 1074 1061 1073
f 1062 1074 1051
f 1051 1074 1075
f 1052 1051 1076
f 1076 1051 1075
f 1024 1052 1077
f 1077 1052 1076
f 1061 1000 1073
f 1073 1000 1078
f 1000 1003 1078
f 1078 1003 1079
f 1079 1003 1080
f 1080 1003 1060
f 1081 1082 1078
f 1078 1082 1073
f 1084 1085 1083
f 1083 1085 1086
f 1087 1088 1086
f 1086 1088 1083
f 1086 1085 1090
f 1090 1085 1089
f 1091 1092 1090
f 1090 1092 1093
f 1089 1094 1090
f 1090 1094 1091
f 1095 1082 1089
f 1089 1082 1094
f 1093 1087 1090
f 1090 1087 1086
f 1096 1097 1099
f 1099 1097 1098
f 1097 1096 1087
f 1087 1096 1088
f 1089 1085 1095
f 1095 1085 1084
f 1084 1075 1095
f 1095 1075 1074
f 1084 1100 1075
f 1075 1100 1076
f 1083 1101 1084
f 1084 1101 1100
f 1101 1083 1102
f 1102 1083 1088
f 1082 1095 1073
f 1073 1095 1074
f 1096 1103 1088
f 1088 1103 1102
f 1101 1102 1104
f 1104 1102 1105
f 1102 1103 1105
f 1105 1103 1106
f 1104 1105 1107
f 1107 1105 1108
f 1107 1109 1104
f 1104 1109 1110
f 1111 1108 1106
f 1106 1108 1105
f 1101 1104 1100
f 1100 1104 1110
f 1100 1110 1076
f 1076 1110 1077
f 1103 1096 1112
f 1112 1096 1099
f 1091 1094 1113
f 1113 1094 1082
f 1113 1114 1091
f 1091 1114 1092
f 1082 1081 1113
f 1113 1081 1115
f 1114 1113 1116
f 1116 1113 1115
f 1114 1117 1092
f 1092 1117 1118
f 1024 1077 1016
f 1016 1077 1119
f 1017 1120 1060
f 1060 1120 1080
f 1120 1017 1119
f 1119 1017 1016
f 1119 1109 1120
f 1120 1109 1121
f 1109 1107 1121
f 1121 1107 1122
f 1120 1121 1080
f 1080 1121 1123
f 1119 1077 1109
f 1109 1077 1110
f 1124 1079 1123
f 1123 1079 1080
f 1124 1081 1079
f 1079 1081 1078
f 1125 1115 1124
f 1124 1115 1081
f 1125 1124 1126
f 1126 1124 1123
f 1127 1125 1128
f 1128 1125 1126
f 1121 1122 1123
f 1123 1122 1126
f 1122 1129 1126
f 1126 1129 1128
f 1115 1125 1116
f 1116 1125 1127
f 1131 1116 1130
f 1130 1116 1127
f 1130 1133 1132
f 1132 1133 1134
f 1130 1127 1133
f 1133 1127 1128
f 1130 1132 1131
f 1131 1132 1112
f 1131 1112 1117
f 1117 1112 1099
f 1117 1114 1131
f 1131 1114 1116
f 1107 1108 1122
f 1122 1108 1129
f 1134 1129 1111
f 1111 1129 1108
f 1134 1133 1129
f 1129 1133 1128
f 1132 1134 1106
f 1106 1134 1111
f 1106 1103 1132
f 1132 1103 1112
f 1087 1093 1097
f 1097 1093 1098
f 1098 1118 1099
f 1099 1118 1117
f 1098 1093 1118
f 1118 1093 1092
f 915 914 1039
f 1039 914 1037
f 918 944 919
f 919 944 943
f 950 949 973
f 973 949 974
f 949 952 974
f 974 952 968
f 956 955 1042
f 1042 955 965
f 950 973 918
f 918 973 944
f 915 1039 1040
f 1040 1039 1053
f 956 1042 919
f 919 1042 916
f 1040 955 991
f 991 955 954
f 914 952 1037
f 1037 952 951
f 1136 1137 1135
f 1135 1137 1138
f 1140 1141 1139
f 1139 1141 1142
f 1139 1142 1143
f 1143 1142 1144
f 1145 1146 1148
f 1148 1146 1147
f 854 1149 1025
f 1025 1149 1150
f 1151 1152 1140
f 1140 1152 1141
f 1154 1155 1153
f 1153 1155 1156
f 1067 1007 1158
f 1158 1007 1157
f 1159 1157 1041
f 1041 1157 1007
f 1161 1162 1160
f 1160 1162 1163
f 1164 1146 1152
f 1152 1146 1141
f 854 1067 1149
f 1149 1067 1158
f 1155 1154 1137
f 1137 1154 1165
f 1166 1164 1138
f 1138 1164 1152
f 1167 1161 1144
f 1144 1161 1168
f 1170 1171 1169
f 1169 1171 1172
f 1161 1160 1168
f 1168 1160 1173
f 1174 1143 1168
f 1168 1143 1144
f 1167 1144 1145
f 1145 1144 1142
f 1135 1175 1136
f 1136 1175 1176
f 1151 1177 1135
f 1135 1177 1175
f 1167 1145 1178
f 1178 1145 1148
f 1160 1163 1153
f 1153 1163 1150
f 1135 1138 1151
f 1151 1138 1152
f 1139 1179 1140
f 1140 1179 1180
f 1165 1166 1137
f 1137 1166 1138
f 1141 1146 1142
f 1142 1146 1145
f 1136 1176 1181
f 1181 1176 1182
f 1174 1170 1183
f 1183 1170 1169
f 1170 1173 1171
f 1171 1173 1156
f 1171 1181 1172
f 1172 1181 1182
f 1153 1156 1160
f 1160 1156 1173
f 1143 1174 1184
f 1184 1174 1183
f 1140 1180 1151
f 1151 1180 1177
f 1049 1048 1178
f 1178 1048 1162
f 1179 1139 1184
f 1184 1139 1143
f 1159 1147 1164
f 1164 1147 1146
f 1170 1174 1173
f 1173 1174 1168
f 1171 1156 1181
f 1181 1156 1155
f 1181 1155 1136
f 1136 1155 1137
f 1184 1183 1186
f 1186 1183 1185
f 1184 1186 1179
f 1179 1186 1187
f 1179 1187 1180
f 1180 1187 1188
f 1180 1188 1177
f 1177 1188 1189
f 1183 1169 1185
f 1185 1169 1190
f 1169 1172 1190
f 1190 1172 1191
f 1172 1182 1191
f 1191 1182 1192
f 1193 1194 1190
f 1190 1194 1185
f 1196 1197 1195
f 1195 1197 1198
f 1199 1200 1196
f 1196 1200 1197
f 1197 1200 1202
f 1202 1200 1201
f 1203 1204 1202
f 1202 1204 1205
f 1201 1206 1202
f 1202 1206 1203
f 1205 1198 1202
f 1202 1198 1197
f 1198 1207 1195
f 1195 1207 1208
f 1201 1200 1209
f 1209 1200 1199
f 1199 1187 1209
f 1209 1187 1186
f 1199 1210 1187
f 1187 1210 1188
f 1196 1211 1199
f 1199 1211 1210
f 1212 1211 1195
f 1195 1211 1196
f 1209 1194 1201
f 1201 1194 1206
f 1194 1209 1185
f 1185 1209 1186
f 1213 1212 1208
f 1208 1212 1195
f 1211 1212 1214
f 1214 1212 1215
f 1212 1213 1215
f 1215 1213 1216
f 1214 1215 1217
f 1217 1215 1218
f 1217 1219 1214
f 1214 1219 1220
f 1216 1221 1215
f 1215 1221 1218
f 1214 1220 1211
f 1211 1220 1210
f 1210 1220 1188
f 1188 1220 1189
f 1213 1208 1223
f 1223 1208 1222
f 1208 1207 1222
f 1222 1207 1224
f 1203 1206 1225
f 1225 1206 1194
f 1204 1203 1226
f 1226 1203 1225
f 1194 1193 1225
f 1225 1193 1227
f 1225 1227 1226
f 1226 1227 1228
f 1229 1230 1226
f 1226 1230 1204
f 1224 1230 1222
f 1222 1230 1229
f 1177 1189 1175
f 1175 1189 1231
f 1176 1232 1182
f 1182 1232 1192
f 1232 1176 1231
f 1231 1176 1175
f 1231 1219 1232
f 1232 1219 1233
f 1219 1217 1233
f 1233 1217 1234
f 1232 1233 1192
f 1192 1233 1235
f 1219 1231 1220
f 1220 1231 1189
f 1236 1191 1235
f 1235 1191 1192
f 1236 1193 1191
f 1191 1193 1190
f 1236 1237 1193
f 1193 1237 1227
f 1237 1236 1238
f 1238 1236 1235
f 1239 1237 1240
f 1240 1237 1238
f 1233 1234 1235
f 1235 1234 1238
f 1234 1241 1238
f 1238 1241 1240
f 1237 1239 1227
f 1227 1239 1228
f 1243 1228 1242
f 1242 1228 1239
f 1242 1245 1244
f 1244 1245 1246
f 1242 1239 1245
f 1245 1239 1240
f 1242 1244 1243
f 1243 1244 1223
f 1243 1223 1229
f 1229 1223 1222
f 1229 1226 1243
f 1243 1226 1228
f 1217 1218 1234
f 1234 1218 1241
f 1246 1241 1221
f 1221 1241 1218
f 1246 1245 1241
f 1241 1245 1240
f 1244 1246 1216
f 1216 1246 1221
f 1216 1213 1244
f 1244 1213 1223
f 1198 1205 1207
f 1207 1205 1224
f 1224 1205 1230
f 1230 1205 1204
f 1148 1147 966
f 966 1147 964
f 1149 1154 1150
f 1150 1154 1153
f 1158 1157 1165
f 1165 1157 1166
f 1157 1159 1166
f 1166 1159 1164
f 1163 1162 1056
f 1056 1162 1048
f 1158 1165 1149
f 1149 1165 1154
f 1178 1148 1049
f 1049 1148 966
f 1163 1056 1150
f 1150 1056 1025
f 1178 1162 1167
f 1167 1162 1161
f 1147 1159 964
f 964 1159 1041
f 999 1049 922
f 922 1049 966
f 999 797 985
f 985 797 800
f 797 796 800
f 800 796 801
f 796 997 801
f 801 997 986
f 1247 1248 1250
f 1250 1248 1249
f 1252 1253 1251
f 1251 1253 1254
f 1251 1254 1255
f 1255 1254 1256
f 1258 1259 1257
f 1257 1259 1260
f 1261 1262 1252
f 1252 1262 1253
f 1264 1265 1263
f 1263 1265 1266
f 1267 1268 855
f 855 1268 920
f 1269 1267 1026
f 1026 1267 855
f 1271 1272 1270
f 1270 1272 1273
f 1274 1258 1262
f 1262 1258 1253
f 1264 1275 1265
f 1265 1275 1249
f 1276 1274 1250
f 1250 1274 1262
f 1277 1271 1256
f 1256 1271 1278
f 1279 1280 1282
f 1282 1280 1281
f 1271 1270 1278
f 1278 1270 1283
f 1284 1255 1278
f 1278 1255 1256
f 1277 1256 1257
f 1257 1256 1254
f 1247 1285 1248
f 1248 1285 1286
f 1261 1287 1247
f 1247 1287 1285
f 1257 1260 1277
f 1277 1260 1288
f 1270 1273 1263
f 1263 1273 1289
f 1261 1247 1262
f 1262 1247 1250
f 1251 1290 1252
f 1252 1290 1291
f 1275 1276 1249
f 1249 1276 1250
f 1253 1258 1254
f 1254 1258 1257
f 1248 1286 1292
f 1292 1286 1293
f 1284 1280 1294
f 1294 1280 1279
f 1281 1280 1266
f 1266 1280 1283
f 1292 1293 1281
f 1281 1293 1282
f 1263 1266 1270
f 1270 1266 1283
f 1255 1284 1295
f 1295 1284 1294
f 1252 1291 1261
f 1261 1291 1287
f 1288 1070 1272
f 1272 1070 942
f 1290 1251 1295
f 1295 1251 1255
f 1269 1259 1274
f 1274 1259 1258
f 1280 1284 1283
f 1283 1284 1278
f 1281 1266 1292
f 1292 1266 1265
f 1292 1265 1248
f 1248 1265 1249
f 1295 1294 1297
f 1297 1294 1296
f 1295 1297 1290
f 1290 1297 1298
f 1290 1298 1291
f 1291 1298 1299
f 1291 1299 1287
f 1287 1299 1300
f 1294 1279 1296
f 1296 1279 1301
f 1279 1282 1301
f 1301 1282 1302
f 1302 1282 1303
f 1303 1282 1293
f 1304 1305 1301
f 1301 1305 1296
f 1307 1308 1306
f 1306 1308 1309
f 1310 1311 1307
f 1307 1311 1308
f 1308 1311 1313
f 1313 1311 1312
f 1314 1315 1313
f 1313 1315 1316
f 1312 1317 1313
f 1313 1317 1314
f 1316 1309 1313
f 1313 1309 1308
f 1318 1319 1309
f 1309 1319 1306
f 1311 1310 1312
f 1312 1310 1320
f 1310 1298 1320
f 1320 1298 1297
f 1310 1321 1298
f 1298 1321 1299
f 1307 1322 1310
f 1310 1322 1321
f 1322 1307 1323
f 1323 1307 1306
f 1312 1320 1317
f 1317 1320 1305
f 1305 1320 1296
f 1296 1320 1297
f 1319 1324 1306
f 1306 1324 1323
f 1325 1322 1326
f 1326 1322 1323
f 1324 1327 1323
f 1323 1327 1326
f 1328 1325 1329
f 1329 1325 1326
f 1325 1328 1331
f 1331 1328 1330
f 1327 1332 1326
f 1326 1332 1329
f 1322 1325 1321
f 1321 1325 1331
f 1321 1331 1299
f 1299 1331 1300
f 1324 1319 1334
f 1334 1319 1333
f 1319 1318 1333
f 1333 1318 1335
f 1314 1317 1336
f 1336 1317 1305
f 1315 1314 1337
f 1337 1314 1336
f 1305 1304 1336
f 1336 1304 1338
f 1337 1336 1339
f 1339 1336 1338
f 1337 1340 1315
f 1315 1340 1341
f 1335 1341 1333
f 1333 1341 1340
f 1287 1300 1285
f 1285 1300 1342
f 1286 1343 1293
f 1293 1343 1303
f 1343 1286 1342
f 1342 1286 1285
f 1342 1330 1343
f 1343 1330 1344
f 1330 1328 1344
f 1344 1328 1345
f 1343 1344 1303
f 1303 1344 1346
f 1342 1300 1330
f 1330 1300 1331
f 1347 1302 1346
f 1346 1302 1303
f 1347 1304 1302
f 1302 1304 1301
f 1348 1338 1347
f 1347 1338 1304
f 1348 1347 1349
f 1349 1347 1346
f 1350 1348 1351
f 1351 1348 1349
f 1344 1345 1346
f 1346 1345 1349
f 1345 1352 1349
f 1349 1352 1351
f 1348 1350 1338
f 1338 1350 1339
f 1354 1339 1353
f 1353 1339 1350
f 1353 1356 1355
f 1355 1356 1357
f 1353 1350 1356
f 1356 1350 1351
f 1353 1355 1354
f 1354 1355 1334
f 1354 1334 1340
f 1340 1334 1333
f 1340 1337 1354
f 1354 1337 1339
f 1328 1329 1345
f 1345 1329 1352
f 1357 1352 1332
f 1332 1352 1329
f 1357 1356 1352
f 1352 1356 1351
f 1357 1332 1355
f 1355 1332 1327
f 1327 1324 1355
f 1355 1324 1334
f 1309 1316 1318
f 1318 1316 1335
f 1335 1316 1341
f 1341 1316 1315
f 1259 1072 1260
f 1260 1072 1071
f 1358 1264 1289
f 1289 1264 1263
f 1268 1267 1275
f 1275 1267 1276
f 1267 1269 1276
f 1276 1269 1274
f 941 1273 942
f 942 1273 1272
f 1358 1268 1264
f 1264 1268 1275
f 1260 1071 1288
f 1288 1071 1070
f 1273 941 1289
f 1289 941 977
f 1272 1271 1288
f 1288 1271 1277
f 1259 1269 1072
f 1072 1269 1026
f 1360 1361 1359
f 1359 1361 1362
f 1364 1365 1363
f 1363 1365 1366
f 1363 1366 1367
f 1367 1366 1368
f 1370 1371 1369
f 1369 1371 1372
f 1373 1374 1376
f 1376 1374 1375
f 1377 1378 1364
f 1364 1378 1365
f 1379 1380 1382
f 1382 1380 1381
f 1383 1384 1386
f 1386 1384 1385
f 1387 1385 978
f 978 1385 1384
f 1388 1389 1391
f 1391 1389 1390
f 1378 1392 1365
f 1365 1392 1370
f 1374 1383 1375
f 1375 1383 1386
f 1380 1393 1381
f 1381 1393 1361
f 1394 1392 1362
f 1362 1392 1378
f 1389 1396 1395
f 1395 1396 1368
f 1398 1399 1397
f 1397 1399 1400
f 1388 1401 1389
f 1389 1401 1396
f 1402 1367 1396
f 1396 1367 1368
f 1395 1368 1369
f 1369 1368 1366
f 1359 1403 1360
f 1360 1403 1404
f 1377 1405 1359
f 1359 1405 1403
f 1369 1372 1395
f 1395 1372 1406
f 1379 1388 1376
f 1376 1388 1391
f 1359 1362 1377
f 1377 1362 1378
f 1363 1407 1364
f 1364 1407 1408
f 1393 1394 1361
f 1361 1394 1362
f 1365 1370 1366
f 1366 1370 1369
f 1360 1404 1409
f 1409 1404 1410
f 1402 1398 1411
f 1411 1398 1397
f 1399 1398 1382
f 1382 1398 1401
f 1409 1410 1399
f 1399 1410 1400
f 1388 1379 1401
f 1401 1379 1382
f 1367 1402 1412
f 1412 1402 1411
f 1364 1408 1377
f 1377 1408 1405
f 981 980 1406
f 1406 980 1390
f 1407 1363 1412
f 1412 1363 1367
f 1387 1371 1392
f 1392 1371 1370
f 1398 1402 1401
f 1401 1402 1396
f 1409 1399 1381
f 1381 1399 1382
f 1360 1409 1361
f 1361 1409 1381
f 1412 1411 1414
f 1414 1411 1413
f 1412 1414 1407
f 1407 1414 1415
f 1407 1415 1408
f 1408 1415 1416
f 1408 1416 1405
f 1405 1416 1417
f 1411 1397 1413
f 1413 1397 1418
f 1397 1400 1418
f 1418 1400 1419
f 1419 1400 1420
f 1420 1400 1410
f 1422 1413 1421
f 1421 1413 1418
f 1423 1424 1426
f 1426 1424 1425
f 1427 1428 1424
f 1424 1428 1425
f 1425 1428 1430
f 1430 1428 1429
f 1430 1431 1433
f 1433 1431 1432
f 1429 1434 1430
f 1430 1434 1431
f 1433 1426 1430
f 1430 1426 1425
f 1426 1435 1423
f 1423 1435 1436
f 1428 1427 1429
f 1429 1427 1437
f 1427 1415 1437
f 1437 1415 1414
f 1427 1438 1415
f 1415 1438 1416
f 1439 1438 1424
f 1424 1438 1427
f 1440 1439 1423
f 1423 1439 1424
f 1429 1437 1434
f 1434 1437 1422
f 1422 1437 1413
f 1413 1437 1414
f 1441 1440 1436
f 1436 1440 1423
f 1442 1439 1443
f 1443 1439 1440
f 1441 1444 1440
f 1440 1444 1443
f 1445 1442 1446
f 1446 1442 1443
f 1442 1445 1448
f 1448 1445 1447
f 1444 1449 1443
f 1443 1449 1446
f 1439 1442 1438
f 1438 1442 1448
f 1438 1448 1416
f 1416 1448 1417
f 1436 1450 1441
f 1441 1450 1451
f 1436 1435 1450
f 1450 1435 1452
f 1431 1434 1453
f 1453 1434 1422
f 1431 1453 1432
f 1432 1453 1454
f 1453 1422 1455
f 1455 1422 1421
f 1454 1453 1456
f 1456 1453 1455
f 1457 1458 1454
f 1454 1458 1432
f 1452 1458 1450
f 1450 1458 1457
f 1405 1417 1403
f 1403 1417 1459
f 1404 1460 1410
f 1410 1460 1420
f 1459 1460 1403
f 1403 1460 1404
f 1447 1461 1459
f 1459 1461 1460
f 1445 1462 1447
f 1447 1462 1461
f 1460 1461 1420
f 1420 1461 1463
f 1459 1417 1447
f 1447 1417 1448
f 1464 1419 1463
f 1463 1419 1420
f 1419 1464 1418
f 1418 1464 1421
f 1464 1465 1421
f 1421 1465 1455
f 1465 1464 1466
f 1466 1464 1463
f 1467 1465 1468
f 1468 1465 1466
f 1461 1462 1463
f 1463 1462 1466
f 1462 1469 1466
f 1466 1469 1468
f 1465 1467 1455
f 1455 1467 1456
f 1471 1456 1470
f 1470 1456 1467
f 1470 1473 1472
f 1472 1473 1474
f 1470 1467 1473
f 1473 1467 1468
f 1470 1472 1471
f 1471 1472 1451
f 1471 1451 1457
f 1457 1451 1450
f 1457 1454 1471
f 1471 1454 1456
f 1462 1445 1469
f 1469 1445 1446
f 1474 1469 1449
f 1449 1469 1446
f 1474 1473 1469
f 1469 1473 1468
f 1472 1474 1444
f 1444 1474 1449
f 1444 1441 1472
f 1472 1441 1451
f 1426 1433 1435
f 1435 1433 1452
f 1452 1433 1458
f 1458 1433 1432
f 1371 940 1372
f 1372 940 1068
f 1376 1375 1379
f 1379 1375 1380
f 1393 1386 1394
f 1394 1386 1385
f 1385 1387 1394
f 1394 1387 1392
f 1475 1373 1391
f 1391 1373 1376
f 1375 1386 1380
f 1380 1386 1393
f 1372 1068 1406
f 1406 1068 981
f 1406 1390 1395
f 1395 1390 1389
f 1371 1387 940
f 940 1387 978
f 883 807 1476
f 1476 807 1477
f 1046 904 1479
f 1479 904 1478
f 904 903 1478
f 1478 903 1480
f 1030 1481 1028
f 1028 1481 1482
f 810 1046 1483
f 1483 1046 1479
f 1066 883 1484
f 1484 883 1476
f 807 810 1477
f 1477 810 1483
f 1485 1029 1484
f 1484 1029 1066
f 1028 1482 903
f 903 1482 1480
f 1481 1030 1485
f 1485 1030 1029
f 1484 1486 1485
f 1485 1486 1487
f 1485 1487 1481
f 1481 1487 1488
f 1481 1488 1482
f 1482 1488 1489
f 1482 1489 1480
f 1480 1489 1490
f 1484 1476 1486
f 1486 1476 1491
f 1476 1477 1491
f 1491 1477 1492
f 1477 1483 1492
f 1492 1483 1493
f 1495 1486 1494
f 1494 1486 1491
f 1497 1498 1496
f 1496 1498 1499
f 1500 1501 1497
f 1497 1501 1498
f 1502 1503 1501
f 1501 1503 1498
f 1502 1504 1503
f 1503 1504 1505
f 1506 1499 1503
f 1503 1499 1498
f 1499 1506 1507
f 1507 1506 1508
f 1507 1509 1499
f 1499 1509 1496
f 1502 1501 1510
f 1510 1501 1500
f 1500 1488 1510
f 1510 1488 1487
f 1500 1511 1488
f 1488 1511 1489
f 1497 1512 1500
f 1500 1512 1511
f 1512 1497 1513
f 1513 1497 1496
f 1502 1510 1504
f 1504 1510 1495
f 1495 1510 1486
f 1486 1510 1487
f 1509 1514 1496
f 1496 1514 1513
f 1515 1512 1516
f 1516 1512 1513
f 1514 1517 1513
f 1513 1517 1516
f 1518 1515 1519
f 1519 1515 1516
f 1515 1518 1521
f 1521 1518 1520
f 1517 1522 1516
f 1516 1522 1519
f 1512 1515 1511
f 1511 1515 1521
f 1511 1521 1489
f 1489 1521 1490
f 1514 1509 1524
f 1524 1509 1523
f 1509 1507 1523
f 1523 1507 1508
f 1505 1504 1525
f 1525 1504 1495
f 1526 1505 1527
f 1527 1505 1525
f 1525 1495 1528
f 1528 1495 1494
f 1527 1525 1529
f 1529 1525 1528
f 1527 1530 1526
f 1526 1530 1531
f 1508 1531 1523
f 1523 1531 1530
f 1506 1503 1526
f 1526 1503 1505
f 1508 1506 1531
f 1531 1506 1526
f 1478 1480 1532
f 1532 1480 1490
f 1483 1479 1493
f 1493 1479 1533
f 1532 1533 1478
f 1478 1533 1479
f 1520 1534 1532
f 1532 1534 1533
f 1518 1535 1520
f 1520 1535 1534
f 1533 1534 1493
f 1493 1534 1536
f 1532 1490 1520
f 1520 1490 1521
f 1537 1492 1536
f 1536 1492 1493
f 1492 1537 1491
f 1491 1537 1494
f 1537 1538 1494
f 1494 1538 1528
f 1538 1537 1539
f 1539 1537 1536
f 1540 1538 1541
f 1541 1538 1539
f 1534 1535 1536
f 1536 1535 1539
f 1535 1542 1539
f 1539 1542 1541
f 1538 1540 1528
f 1528 1540 1529
f 1544 1529 1543
f 1543 1529 1540
f 1545 1543 1547
f 1547 1543 1546
f 1543 1540 1546
f 1546 1540 1541
f 1543 1545 1544
f 1544 1545 1524
f 1544 1524 1530
f 1530 1524 1523
f 1530 1527 1544
f 1544 1527 1529
f 1535 1518 1542
f 1542 1518 1519
f 1547 1542 1522
f 1522 1542 1519
f 1547 1546 1542
f 1542 1546 1541
f 1545 1547 1517
f 1517 1547 1522
f 1517 1514 1545
f 1545 1514 1524
f 997 995 986
f 986 995 987
f 987 995 988
f 988 995 971
f 976 1358 977
f 977 1358 1289
f 854 853 1067
f 1067 853 1050
f 1055 985 1069
f 1069 985 962
f 1068 961 981
f 981 961 862
f 1268 1358 920
f 920 1358 976
f 920 976 921
f 921 976 975
f 927 1054 850
f 850 1054 851
f 882 881 1057
f 1057 881 1548
f 1548 1374 1057
f 1057 1374 1373
f 1383 1374 1549
f 1549 1374 1548
f 1549 1548 1550
f 1550 1548 881
f 1550 881 1551
f 1551 881 880
f 933 1552 879
f 879 1552 880
f 1551 880 875
f 875 880 1552
f 1553 1551 878
f 878 1551 875
f 1551 1553 1550
f 1550 1553 1554
f 1550 1554 1549
f 1549 1554 1555
f 978 1384 975
f 975 1384 1555
f 967 849 1556
f 1556 849 852
f 875 1552 876
f 876 1552 933
f 961 939 962
f 962 939 1069
f 1555 1054 975
f 975 1054 921
f 1555 1384 1549
f 1549 1384 1383
f 1391 1390 1475
f 1475 1390 980
f 1373 1475 1057
f 1057 1475 980
f 851 1054 1554
f 1554 1054 1555
f 1554 1553 851
f 851 1553 852
f 878 1556 1553
f 1553 1556 852
f 1556 878 967
f 967 878 877
f 1023 1020 877
f 877 1020 967
f 909 811 1034
f 806 779 873
f 873 779 840
f 805 780 806
f 806 780 779
f 1043 893 1044
f 1044 893 892
f 873 840 847
f 847 840 842
f 840 839 842
f 842 839 843
f 839 791 843
f 843 791 908
f 791 790 908
f 908 790 792
f 809 789 810
f 810 789 1046
f 793 790 809
f 809 790 789
f 809 808 793
f 793 808 1009
f 808 884 1009
f 1009 884 1010
f 1065 1015 884
f 884 1015 1010
f 1032 868 1065
f 1065 868 1015
f 1031 822 1032
f 1032 822 868
f 1031 1027 822
f 822 1027 785
f 1045 905 1046
f 1046 905 904
f 788 781 1019
f 1019 781 894
f 781 780 894
f 894 780 892
f 780 805 892
f 892 805 1044
f 805 804 1044
f 1044 804 891
f 804 1064 891
f 891 1064 888
f 1064 1021 888
f 888 1021 1033
f 1021 1020 1033
f 1033 1020 1034
f 1020 1023 1034
f 1034 1023 909
f 1023 1022 909
f 909 1022 910
f 1043 815 893
f 893 815 819
f 819 815 820
f 820 815 818
f 870 869 818
f 818 869 820
f 1014 1011 870
f 870 1011 869
f 969 972 1014
f 1014 972 1011
f 1036 1063 1022
f 1022 1063 910
f 1035 833 1036
f 1036 833 1063
f 1035 932 979
f 979 932 963
f 834 979 982
f 982 979 958
f 833 1035 834
f 834 1035 979
f 982 863 834
f 834 863 830
f 864 900 831
f 831 900 857
f 990 993 864
f 864 993 900
f 989 994 990
f 990 994 993
f 970 1058 989
f 989 1058 994
f 969 1018 970
f 970 1018 1058
f 1027 902 785
f 785 902 786
f 902 905 786
f 786 905 1019
f 905 1045 1019
f 1019 1045 788
f 788 1045 787
f 787 1045 789
