o hand_left
v -0.077062 0.323776 1.109002
v -0.082601 0.333381 1.111773
v -0.074903 0.328691 1.117344
v -0.069232 0.320513 1.113396
v -0.079455 0.348419 1.127121
v -0.072821 0.358822 1.127291
v -0.063157 0.346780 1.132081
v -0.070927 0.339692 1.131809
v -0.062014 0.317320 1.115148
v -0.068360 0.324250 1.121168
v -0.057027 0.317434 1.112977
v -0.051411 0.312803 1.101859
v -0.056022 0.311850 1.107567
v -0.049181 0.306725 1.096730
v -0.051513 0.319729 1.092811
v -0.051577 0.306926 1.087286
v -0.075027 0.320045 1.075147
v -0.088363 0.318689 1.073044
v -0.084036 0.302788 1.073518
v -0.071034 0.305573 1.076383
v -0.104542 0.306106 1.075528
v -0.093153 0.303232 1.074102
v -0.097431 0.319289 1.072542
v -0.107548 0.320935 1.073983
v -0.091795 0.327198 1.104279
v -0.096817 0.336956 1.105649
v -0.091454 0.336251 1.106560
v -0.086481 0.326984 1.105371
v -0.048949 0.323325 1.116497
v -0.049825 0.330087 1.105574
v -0.052082 0.322329 1.107102
v -0.052579 0.320008 1.119541
v -0.115424 0.358074 1.112970
v -0.117134 0.370479 1.107576
v -0.111351 0.372014 1.107623
v -0.111029 0.360301 1.112053
v -0.089207 0.372124 1.115351
v -0.093864 0.378279 1.107991
v -0.085725 0.386257 1.100402
v -0.079221 0.379356 1.104538
v -0.081069 0.365575 1.122554
v -0.072564 0.372687 1.114045
v -0.064591 0.364054 1.120449
v -0.055865 0.350681 1.127444
v -0.129313 0.367300 1.104362
v -0.129898 0.357829 1.108330
v -0.037109 0.258449 1.106033
v -0.042023 0.255425 1.106743
v -0.044027 0.260508 1.106397
v -0.038724 0.262492 1.105497
v -0.137171 0.357199 1.088435
v -0.134816 0.356806 1.078488
v -0.137795 0.363392 1.079813
v -0.138279 0.364683 1.089225
v -0.135567 0.347315 1.087534
v -0.130244 0.347781 1.077376
v -0.033059 0.257401 1.093981
v -0.031915 0.258736 1.098804
v -0.033466 0.262905 1.096831
v -0.035363 0.261614 1.092114
v -0.063174 0.313051 1.109715
v -0.072302 0.314997 1.108432
v -0.057608 0.294985 1.106735
v -0.064493 0.303204 1.106469
v -0.057867 0.305825 1.106605
v -0.052650 0.299082 1.105270
v -0.088000 0.304443 1.102277
v -0.091272 0.315900 1.102560
v -0.084723 0.315226 1.103282
v -0.079532 0.303074 1.103914
v -0.105458 0.314784 1.103938
v -0.101058 0.303531 1.103189
v -0.109603 0.304044 1.104164
v -0.111299 0.312017 1.105438
v -0.090804 0.284560 1.100861
v -0.087993 0.276582 1.098214
v -0.091114 0.276603 1.098208
v -0.094407 0.284709 1.100400
v -0.140184 0.370092 1.080007
v -0.138442 0.371976 1.089596
v -0.125183 0.308240 1.081355
v -0.132827 0.311656 1.088841
v -0.132519 0.299414 1.089456
v -0.124497 0.299052 1.081374
v -0.126980 0.356687 1.071439
v -0.131932 0.362841 1.071488
v -0.037253 0.254414 1.090597
v -0.039942 0.258755 1.089360
v -0.060630 0.365089 1.107482
v -0.050760 0.350955 1.118631
v -0.069976 0.374630 1.099034
v -0.077145 0.380316 1.092531
v -0.081849 0.386968 1.088914
v -0.068893 0.297762 1.105915
v -0.080520 0.318730 1.105682
v -0.096818 0.327073 1.104098
v -0.126598 0.320011 1.108904
v -0.129045 0.330512 1.109797
v -0.118586 0.328533 1.110757
v -0.118581 0.319739 1.109108
v -0.134868 0.311129 1.098471
v -0.130251 0.309537 1.104848
v -0.128565 0.300036 1.104049
v -0.133409 0.300497 1.098283
v -0.044044 0.329173 1.117145
v -0.048222 0.337655 1.105608
v -0.135821 0.358323 1.098992
v -0.134664 0.366098 1.098707
v -0.135107 0.374245 1.096326
v -0.105009 0.348048 1.110156
v -0.107951 0.361912 1.111597
v -0.103615 0.362433 1.112567
v -0.102043 0.348304 1.109368
v -0.088121 0.343465 1.116950
v -0.090025 0.356246 1.120846
v -0.080280 0.336657 1.123145
v -0.103972 0.375849 1.107593
v -0.112978 0.382044 1.105887
v -0.104469 0.384943 1.105199
v -0.122335 0.379349 1.104091
v -0.130325 0.376554 1.101030
v -0.136076 0.369776 1.068661
v -0.096386 0.386591 1.103154
v -0.064548 0.333459 1.134243
v -0.058715 0.329093 1.136779
v -0.060560 0.322889 1.131978
v -0.066812 0.326528 1.129009
v -0.046471 0.298591 1.093014
v -0.047971 0.298934 1.100877
v -0.051608 0.307785 1.103509
v -0.117796 0.346564 1.113044
v -0.129973 0.346917 1.109374
v -0.061496 0.289330 1.105522
v -0.037523 0.265580 1.090275
v -0.035300 0.267231 1.095315
v -0.041610 0.284124 1.093304
v -0.043714 0.281404 1.087469
v -0.061484 0.279381 1.099354
v -0.058999 0.283732 1.103915
v -0.057823 0.280502 1.102579
v -0.060262 0.275395 1.099452
v -0.100324 0.279083 1.098689
v -0.103092 0.285844 1.100701
v -0.068292 0.290587 1.080599
v -0.056356 0.297111 1.079224
v -0.059782 0.307589 1.079530
v -0.095532 0.304767 1.102394
v -0.093480 0.294120 1.102180
v -0.097683 0.293722 1.102058
v -0.070739 0.293221 1.104709
v -0.066148 0.285754 1.103525
v -0.072117 0.287704 1.102535
v -0.076267 0.294285 1.103480
v -0.134432 0.324516 1.087139
v -0.137206 0.324001 1.098493
v -0.033411 0.259373 1.103166
v -0.034917 0.263453 1.101875
v -0.098571 0.316013 1.102647
v -0.064560 0.320804 1.080011
v -0.102341 0.326850 1.104376
v -0.109694 0.286062 1.082123
v -0.112992 0.283222 1.088015
v -0.109233 0.277582 1.088138
v -0.106939 0.277852 1.082467
v -0.054458 0.260585 1.099435
v -0.051664 0.262062 1.104292
v -0.049261 0.257525 1.104373
v -0.051770 0.255642 1.099494
v -0.054628 0.287600 1.105187
v -0.049500 0.291550 1.104106
v -0.047758 0.284816 1.103752
v -0.053150 0.282239 1.103935
v -0.045083 0.291571 1.098962
v -0.043226 0.285589 1.099278
v -0.053477 0.260178 1.092865
v -0.048341 0.261410 1.087277
v -0.055307 0.275074 1.085506
v -0.058618 0.272491 1.092525
v -0.110394 0.335503 1.071541
v -0.121284 0.335165 1.074397
v -0.118742 0.320680 1.076871
v -0.116831 0.306696 1.078329
v -0.113966 0.293670 1.080925
v -0.102827 0.293594 1.075734
v -0.126407 0.321917 1.079502
v -0.066705 0.281397 1.090858
v -0.060956 0.285245 1.084325
v -0.067286 0.284740 1.084591
v -0.109455 0.325624 1.106432
v -0.036281 0.268035 1.100568
v -0.086932 0.373082 1.072517
v -0.098534 0.368712 1.066994
v -0.094068 0.361400 1.068961
v -0.081135 0.366107 1.075952
v -0.046096 0.265204 1.106768
v -0.040155 0.267371 1.105632
v -0.109493 0.283563 1.100063
v -0.105969 0.278098 1.097546
v -0.108246 0.276062 1.094867
v -0.114073 0.279749 1.098075
v -0.126747 0.336479 1.076569
v -0.132077 0.292104 1.089360
v -0.125268 0.291794 1.082193
v -0.123078 0.347993 1.072250
v -0.113682 0.348385 1.069128
v -0.116618 0.357586 1.067545
v -0.088547 0.287158 1.077165
v -0.101813 0.333851 1.070572
v -0.105947 0.347721 1.068798
v -0.109073 0.358698 1.066845
v -0.112016 0.366294 1.064925
v -0.119970 0.364312 1.066006
v -0.042766 0.262999 1.087554
v -0.045926 0.256033 1.088715
v -0.124124 0.371738 1.062660
v -0.114963 0.373757 1.062230
v -0.096663 0.348001 1.069298
v -0.085407 0.348718 1.071590
v -0.093068 0.334561 1.071254
v -0.081643 0.334101 1.073382
v -0.079784 0.291554 1.073812
v -0.041628 0.240609 1.095344
v -0.047496 0.249860 1.094032
v -0.048938 0.250375 1.099645
v -0.043693 0.240150 1.099044
v -0.050768 0.255095 1.093496
v -0.043287 0.251756 1.090261
v -0.068561 0.335955 1.079981
v -0.069170 0.281171 1.100026
v -0.071014 0.352857 1.081432
v -0.054268 0.332792 1.090064
v -0.056545 0.345555 1.093203
v -0.072176 0.370627 1.085029
v -0.060716 0.361523 1.094298
v -0.083809 0.383695 1.078663
v -0.078992 0.376414 1.080859
v -0.051782 0.351303 1.105104
v -0.035176 0.247113 1.107833
v -0.040272 0.244890 1.107527
v -0.090655 0.380256 1.070100
v -0.072814 0.330732 1.126393
v -0.110484 0.336340 1.109028
v -0.105094 0.336745 1.107203
v -0.129688 0.336985 1.109846
v -0.118117 0.336558 1.111690
v -0.030838 0.248630 1.105348
v -0.086628 0.272380 1.093404
v -0.088473 0.275456 1.093538
v -0.058492 0.340135 1.135600
v -0.054441 0.335695 1.137272
v -0.043681 0.336935 1.129162
v -0.048411 0.338070 1.134605
v -0.051590 0.343996 1.131752
v -0.046850 0.343579 1.125462
v -0.107520 0.347402 1.110977
v -0.111320 0.346366 1.111725
v -0.135387 0.336547 1.087419
v -0.137570 0.335504 1.098816
v -0.044464 0.290982 1.092381
v -0.049117 0.297079 1.085158
v -0.047165 0.288922 1.086184
v -0.049524 0.279557 1.084006
v -0.066775 0.278515 1.095812
v -0.061810 0.279316 1.093011
v -0.097521 0.359393 1.116334
v -0.096059 0.347005 1.111319
v -0.063541 0.321945 1.122926
v -0.058294 0.318994 1.125518
v -0.084348 0.295842 1.102562
v -0.083072 0.277269 1.079624
v -0.075726 0.281020 1.076908
v -0.081006 0.286930 1.101409
v -0.029264 0.246835 1.097332
v -0.028992 0.248254 1.102103
v -0.052833 0.287351 1.082363
v -0.106153 0.293578 1.103472
v -0.090361 0.281926 1.081285
v -0.085839 0.273235 1.085430
v -0.132476 0.294312 1.098081
v -0.102001 0.376774 1.065158
v -0.046972 0.251837 1.104701
v -0.043854 0.242700 1.104977
v -0.038550 0.242303 1.092804
v -0.033370 0.245177 1.092841
v -0.136166 0.346332 1.099713
v -0.101429 0.336580 1.106136
v -0.046113 0.342414 1.114473
v -0.042546 0.333647 1.122035
v -0.079363 0.280722 1.099884
v -0.117275 0.288220 1.083717
v -0.101369 0.284617 1.077052
v -0.099152 0.276877 1.077966
v -0.092072 0.275414 1.080887
v -0.088473 0.273598 1.087428
v -0.036915 0.237810 1.094448
v -0.031841 0.240575 1.094502
v -0.027479 0.241935 1.098719
v -0.027191 0.243151 1.103055
v -0.029955 0.244346 1.106394
v -0.039873 0.235616 1.096676
v -0.041490 0.235143 1.100001
v -0.042378 0.238748 1.105209
v -0.038407 0.231175 1.098266
v -0.033608 0.230306 1.096321
v -0.022616 0.229622 1.103999
v -0.024507 0.233834 1.100527
v -0.024655 0.231260 1.099937
v -0.023236 0.227034 1.102041
v -0.022435 0.222049 1.103016
v -0.021426 0.224399 1.105572
v -0.028348 0.231795 1.097300
v -0.026902 0.225799 1.099620
v -0.030851 0.224366 1.098943
v -0.029121 0.219326 1.100139
v -0.025420 0.220389 1.100597
v -0.031387 0.228542 1.097183
v -0.029075 0.233600 1.096489
v -0.022186 0.219832 1.105760
v -0.022460 0.219162 1.103274
v -0.025080 0.217619 1.101805
v -0.025232 0.215944 1.104431
v -0.025401 0.238573 1.104467
v -0.022997 0.230577 1.106453
v -0.023295 0.224817 1.108207
v -0.023884 0.220206 1.108091
v -0.025839 0.229779 1.109396
v -0.025841 0.224835 1.109758
v -0.026789 0.220839 1.109699
v -0.029625 0.228434 1.110890
v -0.028855 0.224112 1.110559
v -0.032699 0.240312 1.108904
v -0.028772 0.241228 1.107318
v -0.028629 0.221411 1.110683
v -0.026736 0.216014 1.106190
v -0.034489 0.225069 1.099216
v -0.032006 0.219099 1.101767
v -0.036349 0.225106 1.100713
v -0.034118 0.219007 1.103044
v -0.029755 0.215434 1.102611
v -0.027990 0.216974 1.101348
v -0.034732 0.244165 1.108088
v -0.039917 0.241556 1.107523
v -0.038383 0.238044 1.108257
v -0.034097 0.226839 1.110396
v -0.040958 0.235111 1.106052
v -0.040028 0.230827 1.101552
v -0.037363 0.224527 1.103410
v -0.037295 0.225131 1.106796
v -0.035090 0.220052 1.105274
v -0.034618 0.221311 1.107517
v -0.032194 0.222660 1.110162
v -0.032326 0.217466 1.106822
v -0.031206 0.215908 1.104433
v -0.028878 0.217718 1.108333
v -0.032884 0.219057 1.108022
v -0.030292 0.219884 1.109291
v -0.061880 0.244154 1.101843
v -0.067827 0.241805 1.101860
v -0.068888 0.247254 1.100723
v -0.063587 0.248678 1.100913
v -0.056604 0.243641 1.089080
v -0.056151 0.244901 1.095073
v -0.056950 0.249033 1.093740
v -0.058475 0.247504 1.087305
v -0.061565 0.241438 1.085116
v -0.063717 0.245834 1.083705
v -0.059637 0.252272 1.085725
v -0.058732 0.254192 1.092667
v -0.065956 0.274231 1.090146
v -0.066326 0.272523 1.082959
v -0.082330 0.270752 1.097040
v -0.082887 0.268528 1.093767
v -0.058545 0.244825 1.099529
v -0.059557 0.249179 1.098280
v -0.077579 0.248610 1.095876
v -0.074822 0.250559 1.100264
v -0.073083 0.245003 1.099505
v -0.075390 0.243038 1.094848
v -0.071003 0.275424 1.097364
v -0.077229 0.273888 1.097639
v -0.067945 0.274776 1.094863
v -0.077207 0.247268 1.089373
v -0.073566 0.247457 1.083484
v -0.079037 0.266489 1.079833
v -0.082517 0.265444 1.085410
v -0.060642 0.254513 1.098126
v -0.069938 0.252494 1.102061
v -0.064982 0.253979 1.101753
v -0.065882 0.250160 1.082417
v -0.070997 0.242473 1.084561
v -0.067104 0.226125 1.092361
v -0.072663 0.237057 1.090257
v -0.073314 0.237601 1.095383
v -0.068467 0.225277 1.097189
v -0.074888 0.241708 1.089305
v -0.068621 0.238545 1.085904
v -0.058372 0.228965 1.105398
v -0.063948 0.226451 1.105039
v -0.054613 0.230247 1.103230
v -0.072005 0.269617 1.078566
v -0.053279 0.232316 1.093181
v -0.052805 0.231738 1.099677
v -0.071908 0.239360 1.099917
v -0.067350 0.224966 1.101887
v -0.064039 0.227614 1.089226
v -0.058127 0.231352 1.088411
v -0.061583 0.222973 1.090748
v -0.056033 0.225991 1.090459
v -0.051031 0.227169 1.095273
v -0.051235 0.227017 1.101098
v -0.053535 0.226343 1.104289
v -0.064588 0.221189 1.093392
v -0.066303 0.220154 1.097841
v -0.065754 0.221989 1.102636
v -0.062779 0.214703 1.095893
v -0.059037 0.214925 1.093438
v -0.045705 0.207746 1.103604
v -0.046932 0.213217 1.101392
v -0.047788 0.211855 1.099262
v -0.046634 0.206747 1.101093
v -0.048292 0.217978 1.097354
v -0.049139 0.215525 1.096766
v -0.053021 0.215229 1.094290
v -0.051686 0.209976 1.097048
v -0.056469 0.209131 1.096368
v -0.054979 0.203691 1.097589
v -0.050108 0.204278 1.098125
v -0.056210 0.212990 1.094276
v -0.046763 0.203168 1.101761
v -0.046763 0.202194 1.104226
v -0.053336 0.218009 1.092931
v -0.049353 0.222643 1.101533
v -0.047407 0.213861 1.104392
v -0.046968 0.207544 1.106647
v -0.048847 0.201575 1.106436
v -0.050142 0.213196 1.107551
v -0.049524 0.207018 1.108590
v -0.051201 0.202236 1.107796
v -0.054293 0.212052 1.109545
v -0.053489 0.206027 1.109769
v -0.056889 0.222898 1.106980
v -0.052407 0.223482 1.105333
v -0.053086 0.203460 1.108786
v -0.049721 0.199193 1.101621
v -0.051533 0.198851 1.104535
v -0.049475 0.200523 1.100256
v -0.058551 0.208826 1.096713
v -0.056767 0.203034 1.098886
v -0.060792 0.208388 1.098365
v -0.058288 0.202165 1.100629
v -0.054372 0.199208 1.100264
v -0.053017 0.199882 1.099303
v -0.057644 0.225653 1.105765
v -0.062848 0.223805 1.105132
v -0.062235 0.221336 1.106197
v -0.059150 0.210572 1.108365
v -0.065263 0.219206 1.103166
v -0.064725 0.215515 1.098933
v -0.062298 0.208794 1.100766
v -0.061996 0.209159 1.104759
v -0.059832 0.202280 1.102267
v -0.060186 0.204341 1.104896
v -0.057345 0.205327 1.108688
v -0.056805 0.199017 1.103686
v -0.055396 0.198708 1.101700
v -0.053049 0.199751 1.106048
v -0.057954 0.201174 1.105558
v -0.055030 0.201825 1.107716
v -0.088154 0.246872 1.098676
v -0.093844 0.246790 1.100166
v -0.094408 0.251291 1.100007
v -0.088709 0.251134 1.098491
v -0.087083 0.245675 1.085668
v -0.084782 0.245781 1.090135
v -0.084935 0.249902 1.089687
v -0.087343 0.250808 1.084750
v -0.091994 0.243532 1.083727
v -0.092897 0.250323 1.082303
v -0.087852 0.255735 1.083241
v -0.085497 0.254221 1.088884
v -0.088050 0.269479 1.088003
v -0.090330 0.269226 1.081434
v -0.085602 0.246421 1.094784
v -0.085790 0.250148 1.094621
v -0.103296 0.253999 1.095928
v -0.099911 0.254941 1.099223
v -0.099604 0.250301 1.098547
v -0.102454 0.249356 1.095405
v -0.092312 0.272986 1.097367
v -0.098534 0.274207 1.097226
v -0.089066 0.270333 1.093967
v -0.104249 0.253094 1.089569
v -0.101143 0.254197 1.082934
v -0.104265 0.268407 1.082050
v -0.106346 0.269551 1.087875
v -0.085970 0.254108 1.094261
v -0.094778 0.255821 1.100385
v -0.089035 0.255024 1.098886
v -0.093809 0.255529 1.081289
v -0.099730 0.248757 1.084158
v -0.098208 0.227722 1.091475
v -0.102338 0.243927 1.089868
v -0.101604 0.244678 1.095710
v -0.098934 0.227957 1.095859
v -0.103381 0.248024 1.089809
v -0.098674 0.243605 1.084896
v -0.086797 0.231086 1.101222
v -0.092248 0.230727 1.102060
v -0.084322 0.232300 1.097694
v -0.096890 0.268846 1.078355
v -0.104976 0.272269 1.094125
v -0.084499 0.230977 1.090245
v -0.083452 0.231940 1.094391
v -0.098885 0.245889 1.098778
v -0.097109 0.229169 1.099903
v -0.095168 0.228791 1.087784
v -0.089288 0.230576 1.086602
v -0.094402 0.223651 1.089622
v -0.088535 0.225532 1.088527
v -0.083503 0.226055 1.091618
v -0.082621 0.227358 1.095797
v -0.083612 0.227971 1.099127
v -0.097276 0.222647 1.093416
v -0.097729 0.223130 1.097378
v -0.096066 0.226983 1.100499
v -0.096642 0.218556 1.095659
v -0.092780 0.216853 1.092147
v -0.080475 0.208762 1.100541
v -0.081350 0.214034 1.098162
v -0.082169 0.213452 1.097420
v -0.081334 0.207932 1.099244
v -0.082858 0.218940 1.093855
v -0.083451 0.217055 1.094067
v -0.086933 0.216725 1.092308
v -0.086218 0.210935 1.095056
v -0.092130 0.211265 1.096331
v -0.090586 0.206665 1.098337
v -0.085159 0.205870 1.097050
v -0.091233 0.215511 1.092933
v -0.081837 0.204842 1.100200
v -0.080196 0.204552 1.101234
v -0.087367 0.218740 1.091056
v -0.081246 0.222135 1.097211
v -0.080354 0.215354 1.100616
v -0.079357 0.210075 1.103306
v -0.080729 0.206021 1.104621
v -0.081882 0.216570 1.103925
v -0.081182 0.211349 1.105637
v -0.082351 0.207646 1.106736
v -0.084463 0.217053 1.106000
v -0.083945 0.212199 1.107216
v -0.086066 0.226234 1.102507
v -0.082778 0.224616 1.100245
v -0.084114 0.208982 1.107488
v -0.084374 0.202149 1.100803
v -0.085582 0.203075 1.104797
v -0.084622 0.203431 1.099643
v -0.093830 0.211943 1.096810
v -0.092418 0.206070 1.099789
v -0.095331 0.212937 1.099072
v -0.093745 0.207076 1.102036
v -0.089580 0.202895 1.100690
v -0.088865 0.203459 1.099837
v -0.086827 0.228750 1.101577
v -0.091844 0.228469 1.102265
v -0.090855 0.226151 1.103278
v -0.088969 0.216382 1.107074
v -0.095179 0.224677 1.101832
v -0.096805 0.219290 1.099350
v -0.094985 0.214046 1.102159
v -0.093005 0.214956 1.105278
v -0.093487 0.208628 1.104389
v -0.092073 0.210682 1.105862
v -0.087918 0.211771 1.108235
v -0.090535 0.205820 1.105332
v -0.090630 0.203698 1.103175
v -0.086257 0.205408 1.106927
v -0.090147 0.207909 1.106763
v -0.086882 0.207740 1.107887
v -0.102814 0.273851 1.096420
v -0.123252 0.256371 1.099602
v -0.126647 0.257405 1.101756
v -0.126753 0.261047 1.101364
v -0.122901 0.260712 1.099884
v -0.124863 0.256587 1.088289
v -0.122219 0.255520 1.092071
v -0.121039 0.259882 1.091378
v -0.123650 0.260818 1.087533
v -0.129771 0.257728 1.087303
v -0.128958 0.261825 1.086862
v -0.122920 0.264088 1.086776
v -0.120141 0.263761 1.090908
v -0.116106 0.278992 1.089110
v -0.119315 0.280935 1.084662
v -0.131178 0.289030 1.097119
v -0.126989 0.288824 1.101552
v -0.127709 0.281240 1.100329
v -0.131390 0.282319 1.097377
v -0.121857 0.255667 1.096063
v -0.120645 0.259905 1.096333
v -0.134644 0.267411 1.098552
v -0.130971 0.266352 1.101434
v -0.130714 0.262154 1.101856
v -0.134856 0.262667 1.099773
v -0.121844 0.286343 1.101952
v -0.117653 0.284555 1.100757
v -0.118255 0.280126 1.099829
v -0.123145 0.279572 1.101038
v -0.114948 0.277927 1.096123
v -0.135910 0.267320 1.094471
v -0.134138 0.266644 1.088818
v -0.132331 0.283813 1.087686
v -0.132780 0.284123 1.092697
v -0.119782 0.263197 1.095677
v -0.126675 0.265025 1.101650
v -0.122597 0.263960 1.099941
v -0.128652 0.265037 1.085630
v -0.134468 0.262600 1.089917
v -0.138433 0.250117 1.097545
v -0.137081 0.259379 1.096119
v -0.135048 0.258942 1.100611
v -0.137299 0.250132 1.100500
v -0.136404 0.262995 1.095355
v -0.135244 0.258439 1.090616
v -0.125089 0.247893 1.100828
v -0.129750 0.249483 1.103009
v -0.123697 0.247292 1.097810
v -0.125810 0.282279 1.083090
v -0.126721 0.247194 1.090846
v -0.124069 0.246461 1.094384
v -0.130730 0.258148 1.102190
v -0.134181 0.250118 1.102662
v -0.137112 0.249489 1.093175
v -0.132067 0.248805 1.089465
v -0.137291 0.244570 1.094635
v -0.132017 0.244455 1.090989
v -0.126347 0.243255 1.092899
v -0.124239 0.244217 1.096049
v -0.123997 0.245182 1.099157
v -0.138652 0.245617 1.098983
v -0.137496 0.246378 1.101752
v -0.134367 0.247537 1.103574
v -0.138478 0.241446 1.100585
v -0.136391 0.238632 1.097167
v -0.126289 0.231281 1.102839
v -0.125915 0.234770 1.100492
v -0.126929 0.234389 1.099859
v -0.126742 0.230711 1.101963
v -0.126683 0.238461 1.096408
v -0.127853 0.237225 1.096796
v -0.131171 0.238155 1.095545
v -0.131006 0.233568 1.098467
v -0.135985 0.233966 1.100650
v -0.135284 0.230224 1.102651
v -0.131065 0.230041 1.100268
v -0.135064 0.237044 1.097183
v -0.127612 0.228108 1.102714
v -0.126994 0.227483 1.103837
v -0.131321 0.239543 1.094026
v -0.124165 0.240932 1.098700
v -0.124509 0.235164 1.102622
v -0.125355 0.230636 1.104991
v -0.127438 0.227565 1.106155
v -0.124560 0.237045 1.104482
v -0.125429 0.231669 1.107144
v -0.127623 0.228808 1.108204
v -0.126164 0.238886 1.106884
v -0.126922 0.233340 1.108649
v -0.126172 0.244908 1.103888
v -0.124258 0.242897 1.101478
v -0.128238 0.230417 1.108822
v -0.130761 0.226167 1.103728
v -0.130692 0.226783 1.106714
v -0.131148 0.226862 1.102296
v -0.137047 0.234601 1.101481
v -0.136223 0.230145 1.104085
v -0.137876 0.235905 1.103578
v -0.136278 0.230871 1.106198
v -0.134181 0.227202 1.104774
v -0.133722 0.227857 1.103005
v -0.125955 0.246187 1.102540
v -0.129849 0.247414 1.103734
v -0.130339 0.245783 1.105122
v -0.129941 0.239873 1.108262
v -0.134805 0.245434 1.104778
v -0.137686 0.243538 1.102913
v -0.136963 0.237386 1.105818
v -0.134458 0.238834 1.107816
v -0.135261 0.231731 1.108033
v -0.133147 0.233493 1.109535
v -0.129899 0.234229 1.109932
v -0.132725 0.228796 1.108351
v -0.133566 0.227626 1.107046
v -0.130481 0.228184 1.108332
v -0.131828 0.230295 1.109361
v -0.130168 0.230369 1.109347
v -0.132258 0.287561 1.093382
v -0.042690 0.319755 1.127401
v -0.046157 0.315718 1.127803
v -0.055542 0.320271 1.141094
v -0.053941 0.314869 1.136636
v -0.053077 0.326257 1.143474
v -0.044485 0.332434 1.138731
v -0.049298 0.330829 1.141793
v -0.050129 0.313338 1.131808
v -0.039961 0.325281 1.128625
v -0.040431 0.331004 1.133170
v -0.038228 0.321365 1.134748
v -0.038824 0.327564 1.138307
v -0.042908 0.330377 1.143273
v -0.048993 0.329805 1.146170
v -0.052871 0.326807 1.147147
v -0.041789 0.316403 1.133712
v -0.045638 0.312883 1.134735
v -0.051173 0.312097 1.137636
v -0.039309 0.311916 1.141041
v -0.032326 0.314090 1.149499
v -0.031886 0.321911 1.167652
v -0.035797 0.324103 1.162350
v -0.033126 0.322799 1.161281
v -0.029393 0.321488 1.166151
v -0.036408 0.325134 1.157032
v -0.034433 0.323350 1.157220
v -0.032551 0.320068 1.153434
v -0.029252 0.318635 1.157923
v -0.031479 0.314946 1.152297
v -0.029626 0.312589 1.155467
v -0.025748 0.317124 1.162381
v -0.025949 0.319764 1.167990
v -0.023307 0.315685 1.166634
v -0.028162 0.318847 1.170656
v -0.032277 0.321034 1.151944
v -0.043687 0.327325 1.154919
v -0.040115 0.324153 1.162518
v -0.035815 0.320560 1.168422
v -0.031054 0.316941 1.171405
v -0.044475 0.321294 1.162523
v -0.039534 0.317441 1.167247
v -0.035194 0.313652 1.169249
v -0.046837 0.316600 1.161003
v -0.041129 0.313794 1.165368
v -0.053880 0.320208 1.149024
v -0.050416 0.325711 1.152751
v -0.037178 0.312277 1.167181
v -0.023923 0.313813 1.169402
v -0.027373 0.311646 1.170182
v -0.031001 0.309642 1.153448
v -0.025887 0.311017 1.159637
v -0.027767 0.308022 1.159167
v -0.034331 0.307329 1.151663
v -0.030218 0.306010 1.159195
v -0.024624 0.309063 1.164613
v -0.023601 0.311913 1.163376
v -0.055604 0.321411 1.145005
v -0.054779 0.315920 1.140887
v -0.053546 0.314641 1.144810
v -0.046725 0.310698 1.156837
v -0.049627 0.310196 1.142572
v -0.043577 0.309594 1.141261
v -0.038240 0.306051 1.151884
v -0.043022 0.306886 1.153554
v -0.034159 0.305578 1.159883
v -0.037169 0.306652 1.160633
v -0.040160 0.309785 1.163330
v -0.031783 0.307006 1.164887
v -0.027709 0.307138 1.164953
v -0.032101 0.309985 1.168482
v -0.034695 0.307512 1.163993
v -0.035601 0.309666 1.166234
v -0.127341 0.294648 1.103347
v -0.120899 0.293353 1.104591
v -0.123137 0.300011 1.105832
v -0.124876 0.309753 1.107492
v -0.131555 0.318279 1.105799
v -0.118010 0.310447 1.107187
v -0.116650 0.300355 1.105592
v -0.113690 0.290804 1.103205
v -0.112694 0.319589 1.106657
f 2 3 1
f 1 3 4
f 5 6 8
f 8 6 7
f 9 4 10
f 10 4 3
f 12 13 11
f 11 13 9
f 14 12 16
f 16 12 15
f 18 19 17
f 17 19 20
f 22 23 21
f 21 23 24
f 26 27 25
f 25 27 28
f 30 31 29
f 29 31 32
f 33 34 36
f 36 34 35
f 37 38 40
f 40 38 39
f 41 42 6
f 6 42 43
f 6 43 7
f 7 43 44
f 45 34 46
f 46 34 33
f 48 49 47
f 47 49 50
f 52 53 51
f 51 53 54
f 56 52 55
f 55 52 51
f 58 59 57
f 57 59 60
f 61 62 4
f 4 62 1
f 64 65 63
f 63 65 66
f 68 69 67
f 67 69 70
f 72 73 71
f 71 73 74
f 76 77 75
f 75 77 78
f 53 79 54
f 54 79 80
f 82 83 81
f 81 83 84
f 85 86 52
f 52 86 53
f 57 60 87
f 87 60 88
f 89 90 43
f 43 90 44
f 43 42 89
f 89 42 91
f 40 39 92
f 92 39 93
f 94 70 64
f 64 70 69
f 13 61 9
f 9 61 4
f 25 28 69
f 69 28 95
f 96 25 68
f 68 25 69
f 98 99 97
f 97 99 100
f 101 102 104
f 104 102 103
f 106 30 105
f 105 30 29
f 51 54 107
f 107 54 108
f 54 80 108
f 108 80 109
f 111 112 110
f 110 112 113
f 115 5 114
f 114 5 116
f 115 41 5
f 5 41 6
f 36 35 111
f 111 35 117
f 35 118 117
f 117 118 119
f 34 120 35
f 35 120 118
f 34 45 120
f 120 45 121
f 125 126 124
f 124 126 127
f 128 129 14
f 14 129 130
f 33 131 46
f 46 131 132
f 133 94 63
f 63 94 64
f 134 135 137
f 137 135 136
f 139 140 138
f 138 140 141
f 77 142 78
f 78 142 143
f 144 145 20
f 20 145 146
f 148 149 147
f 147 149 72
f 151 152 150
f 150 152 153
f 82 101 83
f 83 101 104
f 101 82 155
f 155 82 154
f 156 157 58
f 58 157 59
f 158 68 147
f 147 68 67
f 159 146 15
f 15 146 16
f 68 158 96
f 96 158 160
f 129 66 130
f 130 66 65
f 162 163 161
f 161 163 164
f 166 167 165
f 165 167 168
f 170 171 169
f 169 171 172
f 174 171 173
f 173 171 170
f 176 177 175
f 175 177 178
f 180 181 179
f 179 181 24
f 182 183 21
f 21 183 184
f 81 185 82
f 82 185 154
f 186 187 188
f 188 187 144
f 158 71 160
f 160 71 189
f 190 135 157
f 157 135 59
f 169 172 139
f 139 172 140
f 147 72 158
f 158 72 71
f 192 193 191
f 191 193 194
f 167 166 49
f 49 166 195
f 196 190 50
f 50 190 157
f 197 198 200
f 200 198 199
f 21 24 182
f 182 24 181
f 146 159 20
f 20 159 17
f 182 181 81
f 81 181 185
f 201 185 180
f 180 185 181
f 202 203 83
f 83 203 84
f 205 206 204
f 204 206 85
f 207 22 184
f 184 22 21
f 179 24 208
f 208 24 23
f 208 209 179
f 179 209 205
f 209 210 205
f 205 210 206
f 212 206 211
f 211 206 210
f 179 205 180
f 180 205 204
f 213 176 88
f 88 176 214
f 86 85 212
f 212 85 206
f 193 217 218
f 217 219 218
f 218 219 220
f 219 18 220
f 220 18 17
f 19 221 20
f 20 221 144
f 222 223 225
f 225 223 224
f 175 226 176
f 176 226 214
f 227 87 214
f 214 87 88
f 220 17 228
f 228 17 159
f 134 213 60
f 60 213 88
f 138 229 151
f 151 229 152
f 193 192 210
f 210 192 211
f 230 194 218
f 218 194 193
f 231 232 228
f 228 232 230
f 233 234 91
f 91 234 89
f 235 236 93
f 93 236 92
f 230 232 234
f 234 232 237
f 47 238 48
f 48 238 239
f 240 191 235
f 235 191 236
f 5 8 116
f 116 8 241
f 242 243 189
f 189 243 160
f 244 245 98
f 98 245 99
f 156 246 47
f 47 246 238
f 76 247 77
f 77 247 248
f 250 125 249
f 249 125 124
f 252 253 251
f 251 253 254
f 111 110 36
f 36 110 255
f 256 33 255
f 255 33 36
f 257 258 154
f 154 258 155
f 63 169 133
f 133 169 139
f 66 170 63
f 63 170 169
f 173 170 129
f 129 170 66
f 129 128 173
f 173 128 259
f 128 260 259
f 259 260 261
f 213 134 262
f 262 134 137
f 263 264 186
f 186 264 187
f 112 265 113
f 113 265 266
f 11 267 268
f 234 233 230
f 230 233 194
f 153 269 70
f 70 269 67
f 175 178 165
f 165 178 141
f 150 153 94
f 94 153 70
f 271 221 270
f 270 221 207
f 269 153 272
f 272 153 152
f 121 45 109
f 109 45 108
f 47 50 156
f 156 50 157
f 57 273 58
f 58 273 274
f 145 275 260
f 260 275 261
f 276 149 143
f 143 149 78
f 148 269 75
f 75 269 272
f 207 277 270
f 270 277 278
f 195 196 49
f 49 196 50
f 59 135 60
f 60 135 134
f 83 104 202
f 202 104 279
f 149 148 78
f 78 148 75
f 247 278 248
f 248 278 277
f 183 182 84
f 84 182 81
f 48 239 281
f 281 239 282
f 227 223 283
f 283 223 222
f 223 226 224
f 224 226 168
f 281 282 224
f 224 282 225
f 165 168 175
f 175 168 226
f 264 263 138
f 138 263 229
f 14 16 128
f 128 16 260
f 220 228 218
f 218 228 230
f 87 227 284
f 284 227 283
f 260 16 145
f 145 16 146
f 244 98 258
f 258 98 155
f 58 274 156
f 156 274 246
f 107 285 51
f 51 285 55
f 243 286 160
f 160 286 96
f 234 237 89
f 89 237 90
f 46 132 107
f 107 132 285
f 253 252 249
f 249 252 250
f 286 26 96
f 96 26 25
f 106 105 287
f 287 105 288
f 272 152 289
f 289 152 229
f 138 151 139
f 139 151 133
f 183 290 161
f 161 290 162
f 291 292 277
f 277 292 293
f 151 150 133
f 133 150 94
f 262 275 177
f 177 275 187
f 144 187 145
f 145 187 275
f 273 57 284
f 284 57 87
f 174 136 190
f 190 136 135
f 111 117 112
f 112 117 38
f 117 119 38
f 38 119 123
f 112 38 265
f 265 38 37
f 287 288 254
f 254 288 251
f 228 159 231
f 231 159 15
f 223 227 226
f 226 227 214
f 147 67 148
f 148 67 269
f 224 168 281
f 281 168 167
f 199 163 200
f 200 163 162
f 45 46 108
f 108 46 107
f 281 167 48
f 48 167 49
f 161 164 291
f 291 164 292
f 38 123 39
f 293 294 277
f 277 294 248
f 284 283 296
f 296 283 295
f 284 296 273
f 273 296 297
f 274 273 298
f 298 273 297
f 246 274 299
f 299 274 298
f 283 222 295
f 295 222 300
f 222 225 300
f 300 225 301
f 301 225 302
f 302 225 282
f 303 304 300
f 300 304 295
f 306 307 305
f 305 307 308
f 309 310 308
f 308 310 305
f 308 307 312
f 312 307 311
f 313 314 312
f 312 314 315
f 311 316 312
f 312 316 313
f 317 304 311
f 311 304 316
f 315 309 312
f 312 309 308
f 318 319 321
f 321 319 320
f 319 318 309
f 309 318 310
f 311 307 317
f 317 307 306
f 306 297 317
f 317 297 296
f 306 322 297
f 297 322 298
f 305 323 306
f 306 323 322
f 323 305 324
f 324 305 310
f 304 317 295
f 295 317 296
f 318 325 310
f 310 325 324
f 323 324 326
f 326 324 327
f 324 325 327
f 327 325 328
f 326 327 329
f 329 327 330
f 329 331 326
f 326 331 332
f 333 330 328
f 328 330 327
f 323 326 322
f 322 326 332
f 322 332 298
f 298 332 299
f 325 318 334
f 334 318 321
f 313 316 335
f 335 316 304
f 335 336 313
f 313 336 314
f 304 303 335
f 335 303 337
f 336 335 338
f 338 335 337
f 336 339 314
f 314 339 340
f 246 299 238
f 238 299 341
f 239 342 282
f 282 342 302
f 342 239 341
f 341 239 238
f 341 331 342
f 342 331 343
f 331 329 343
f 343 329 344
f 342 343 302
f 302 343 345
f 341 299 331
f 331 299 332
f 346 301 345
f 345 301 302
f 346 303 301
f 301 303 300
f 347 337 346
f 346 337 303
f 347 346 348
f 348 346 345
f 349 347 350
f 350 347 348
f 343 344 345
f 345 344 348
f 344 351 348
f 348 351 350
f 337 347 338
f 338 347 349
f 353 338 352
f 352 338 349
f 352 355 354
f 354 355 356
f 352 349 355
f 355 349 350
f 352 354 353
f 353 354 334
f 353 334 339
f 339 334 321
f 339 336 353
f 353 336 338
f 329 330 344
f 344 330 351
f 356 351 333
f 333 351 330
f 356 355 351
f 351 355 350
f 354 356 328
f 328 356 333
f 328 325 354
f 354 325 334
f 309 315 319
f 319 315 320
f 320 340 321
f 321 340 339
f 320 315 340
f 340 315 314
f 137 136 261
f 261 136 259
f 140 166 141
f 141 166 165
f 172 171 195
f 195 171 196
f 171 174 196
f 196 174 190
f 178 177 264
f 264 177 187
f 172 195 140
f 140 195 166
f 137 261 262
f 262 261 275
f 178 264 141
f 141 264 138
f 262 177 213
f 213 177 176
f 136 174 259
f 259 174 173
f 358 359 357
f 357 359 360
f 362 363 361
f 361 363 364
f 361 364 365
f 365 364 366
f 367 368 370
f 370 368 369
f 76 371 247
f 247 371 372
f 373 374 362
f 362 374 363
f 376 377 375
f 375 377 378
f 289 229 380
f 380 229 379
f 381 379 263
f 263 379 229
f 383 384 382
f 382 384 385
f 386 368 374
f 374 368 363
f 76 289 371
f 371 289 380
f 377 376 359
f 359 376 387
f 388 386 360
f 360 386 374
f 389 383 366
f 366 383 390
f 392 393 391
f 391 393 394
f 383 382 390
f 390 382 395
f 396 365 390
f 390 365 366
f 389 366 367
f 367 366 364
f 357 397 358
f 358 397 398
f 373 399 357
f 357 399 397
f 389 367 400
f 400 367 370
f 382 385 375
f 375 385 372
f 357 360 373
f 373 360 374
f 361 401 362
f 362 401 402
f 387 388 359
f 359 388 360
f 363 368 364
f 364 368 367
f 358 398 403
f 403 398 404
f 396 392 405
f 405 392 391
f 392 395 393
f 393 395 378
f 393 403 394
f 394 403 404
f 375 378 382
f 382 378 395
f 365 396 406
f 406 396 405
f 362 402 373
f 373 402 399
f 271 270 400
f 400 270 384
f 401 361 406
f 406 361 365
f 381 369 386
f 386 369 368
f 392 396 395
f 395 396 390
f 393 378 403
f 403 378 377
f 403 377 358
f 358 377 359
f 406 405 408
f 408 405 407
f 406 408 401
f 401 408 409
f 401 409 402
f 402 409 410
f 402 410 399
f 399 410 411
f 405 391 407
f 407 391 412
f 391 394 412
f 412 394 413
f 394 404 413
f 413 404 414
f 415 416 412
f 412 416 407
f 418 419 417
f 417 419 420
f 421 422 418
f 418 422 419
f 419 422 424
f 424 422 423
f 425 426 424
f 424 426 427
f 423 428 424
f 424 428 425
f 427 420 424
f 424 420 419
f 420 429 417
f 417 429 430
f 423 422 431
f 431 422 421
f 421 409 431
f 431 409 408
f 421 432 409
f 409 432 410
f 418 433 421
f 421 433 432
f 434 433 417
f 417 433 418
f 431 416 423
f 423 416 428
f 416 431 407
f 407 431 408
f 435 434 430
f 430 434 417
f 433 434 436
f 436 434 437
f 434 435 437
f 437 435 438
f 436 437 439
f 439 437 440
f 439 441 436
f 436 441 442
f 438 443 437
f 437 443 440
f 436 442 433
f 433 442 432
f 432 442 410
f 410 442 411
f 435 430 445
f 445 430 444
f 430 429 444
f 444 429 446
f 425 428 447
f 447 428 416
f 426 425 448
f 448 425 447
f 416 415 447
f 447 415 449
f 447 449 448
f 448 449 450
f 451 452 448
f 448 452 426
f 446 452 444
f 444 452 451
f 399 411 397
f 397 411 453
f 398 454 404
f 404 454 414
f 454 398 453
f 453 398 397
f 453 441 454
f 454 441 455
f 441 439 455
f 455 439 456
f 454 455 414
f 414 455 457
f 441 453 442
f 442 453 411
f 458 413 457
f 457 413 414
f 458 415 413
f 413 415 412
f 458 459 415
f 415 459 449
f 459 458 460
f 460 458 457
f 461 459 462
f 462 459 460
f 455 456 457
f 457 456 460
f 456 463 460
f 460 463 462
f 459 461 449
f 449 461 450
f 465 450 464
f 464 450 461
f 464 467 466
f 466 467 468
f 464 461 467
f 467 461 462
f 464 466 465
f 465 466 445
f 465 445 451
f 451 445 444
f 451 448 465
f 465 448 450
f 439 440 456
f 456 440 463
f 468 463 443
f 443 463 440
f 468 467 463
f 463 467 462
f 466 468 438
f 438 468 443
f 438 435 466
f 466 435 445
f 420 427 429
f 429 427 446
f 446 427 452
f 452 427 426
f 370 369 188
f 188 369 186
f 371 376 372
f 372 376 375
f 380 379 387
f 387 379 388
f 379 381 388
f 388 381 386
f 385 384 278
f 278 384 270
f 380 387 371
f 371 387 376
f 400 370 271
f 271 370 188
f 385 278 372
f 372 278 247
f 400 384 389
f 389 384 383
f 369 381 186
f 186 381 263
f 221 271 144
f 144 271 188
f 221 19 207
f 207 19 22
f 19 18 22
f 22 18 23
f 18 219 23
f 23 219 208
f 469 470 472
f 472 470 471
f 474 475 473
f 473 475 476
f 473 476 477
f 477 476 478
f 480 481 479
f 479 481 482
f 483 484 474
f 474 484 475
f 486 487 485
f 485 487 488
f 489 490 77
f 77 490 142
f 491 489 248
f 248 489 77
f 493 494 492
f 492 494 495
f 496 480 484
f 484 480 475
f 486 497 487
f 487 497 471
f 498 496 472
f 472 496 484
f 499 493 478
f 478 493 500
f 501 502 504
f 504 502 503
f 493 492 500
f 500 492 505
f 506 477 500
f 500 477 478
f 499 478 479
f 479 478 476
f 469 507 470
f 470 507 508
f 483 509 469
f 469 509 507
f 479 482 499
f 499 482 510
f 492 495 485
f 485 495 511
f 483 469 484
f 484 469 472
f 473 512 474
f 474 512 513
f 497 498 471
f 471 498 472
f 475 480 476
f 476 480 479
f 470 508 514
f 514 508 515
f 506 502 516
f 516 502 501
f 503 502 488
f 488 502 505
f 514 515 503
f 503 515 504
f 485 488 492
f 492 488 505
f 477 506 517
f 517 506 516
f 474 513 483
f 483 513 509
f 510 292 494
f 494 292 164
f 512 473 517
f 517 473 477
f 491 481 496
f 496 481 480
f 502 506 505
f 505 506 500
f 503 488 514
f 514 488 487
f 514 487 470
f 470 487 471
f 517 516 519
f 519 516 518
f 517 519 512
f 512 519 520
f 512 520 513
f 513 520 521
f 513 521 509
f 509 521 522
f 516 501 518
f 518 501 523
f 501 504 523
f 523 504 524
f 524 504 525
f 525 504 515
f 526 527 523
f 523 527 518
f 529 530 528
f 528 530 531
f 532 533 529
f 529 533 530
f 530 533 535
f 535 533 534
f 536 537 535
f 535 537 538
f 534 539 535
f 535 539 536
f 538 531 535
f 535 531 530
f 540 541 531
f 531 541 528
f 533 532 534
f 534 532 542
f 532 520 542
f 542 520 519
f 532 543 520
f 520 543 521
f 529 544 532
f 532 544 543
f 544 529 545
f 545 529 528
f 534 542 539
f 539 542 527
f 527 542 518
f 518 542 519
f 541 546 528
f 528 546 545
f 547 544 548
f 548 544 545
f 546 549 545
f 545 549 548
f 550 547 551
f 551 547 548
f 547 550 553
f 553 550 552
f 549 554 548
f 548 554 551
f 544 547 543
f 543 547 553
f 543 553 521
f 521 553 522
f 546 541 556
f 556 541 555
f 541 540 555
f 555 540 557
f 536 539 558
f 558 539 527
f 537 536 559
f 559 536 558
f 527 526 558
f 558 526 560
f 559 558 561
f 561 558 560
f 559 562 537
f 537 562 563
f 557 563 555
f 555 563 562
f 509 522 507
f 507 522 564
f 508 565 515
f 515 565 525
f 565 508 564
f 564 508 507
f 564 552 565
f 565 552 566
f 552 550 566
f 566 550 567
f 565 566 525
f 525 566 568
f 564 522 552
f 552 522 553
f 569 524 568
f 568 524 525
f 569 526 524
f 524 526 523
f 570 560 569
f 569 560 526
f 570 569 571
f 571 569 568
f 572 570 573
f 573 570 571
f 566 567 568
f 568 567 571
f 567 574 571
f 571 574 573
f 570 572 560
f 560 572 561
f 576 561 575
f 575 561 572
f 575 578 577
f 577 578 579
f 575 572 578
f 578 572 573
f 575 577 576
f 576 577 556
f 576 556 562
f 562 556 555
f 562 559 576
f 576 559 561
f 550 551 567
f 567 551 574
f 579 574 554
f 554 574 551
f 579 578 574
f 574 578 573
f 579 554 577
f 577 554 549
f 549 546 577
f 577 546 556
f 531 538 540
f 540 538 557
f 557 538 563
f 563 538 537
f 481 294 482
f 482 294 293
f 580 486 511
f 511 486 485
f 490 489 497
f 497 489 498
f 489 491 498
f 498 491 496
f 163 495 164
f 164 495 494
f 580 490 486
f 486 490 497
f 482 293 510
f 510 293 292
f 495 163 511
f 511 163 199
f 494 493 510
f 510 493 499
f 481 491 294
f 294 491 248
f 582 583 581
f 581 583 584
f 586 587 585
f 585 587 588
f 585 588 589
f 589 588 590
f 592 593 591
f 591 593 594
f 595 596 598
f 598 596 597
f 599 600 586
f 586 600 587
f 601 602 604
f 604 602 603
f 605 606 608
f 608 606 607
f 609 607 200
f 200 607 606
f 610 611 613
f 613 611 612
f 600 614 587
f 587 614 592
f 596 605 597
f 597 605 608
f 602 615 603
f 603 615 583
f 616 614 584
f 584 614 600
f 611 618 617
f 617 618 590
f 620 621 619
f 619 621 622
f 610 623 611
f 611 623 618
f 624 589 618
f 618 589 590
f 617 590 591
f 591 590 588
f 581 625 582
f 582 625 626
f 599 627 581
f 581 627 625
f 591 594 617
f 617 594 628
f 601 610 598
f 598 610 613
f 581 584 599
f 599 584 600
f 585 629 586
f 586 629 630
f 615 616 583
f 583 616 584
f 587 592 588
f 588 592 591
f 582 626 631
f 631 626 632
f 624 620 633
f 633 620 619
f 621 620 604
f 604 620 623
f 631 632 621
f 621 632 622
f 610 601 623
f 623 601 604
f 589 624 634
f 634 624 633
f 586 630 599
f 599 630 627
f 203 202 628
f 628 202 612
f 629 585 634
f 634 585 589
f 609 593 614
f 614 593 592
f 620 624 623
f 623 624 618
f 631 621 603
f 603 621 604
f 582 631 583
f 583 631 603
f 634 633 636
f 636 633 635
f 634 636 629
f 629 636 637
f 629 637 630
f 630 637 638
f 630 638 627
f 627 638 639
f 633 619 635
f 635 619 640
f 619 622 640
f 640 622 641
f 641 622 642
f 642 622 632
f 644 635 643
f 643 635 640
f 645 646 648
f 648 646 647
f 649 650 646
f 646 650 647
f 647 650 652
f 652 650 651
f 652 653 655
f 655 653 654
f 651 656 652
f 652 656 653
f 655 648 652
f 652 648 647
f 648 657 645
f 645 657 658
f 650 649 651
f 651 649 659
f 649 637 659
f 659 637 636
f 649 660 637
f 637 660 638
f 661 660 646
f 646 660 649
f 662 661 645
f 645 661 646
f 651 659 656
f 656 659 644
f 644 659 635
f 635 659 636
f 663 662 658
f 658 662 645
f 664 661 665
f 665 661 662
f 663 666 662
f 662 666 665
f 667 664 668
f 668 664 665
f 664 667 670
f 670 667 669
f 666 671 665
f 665 671 668
f 661 664 660
f 660 664 670
f 660 670 638
f 638 670 639
f 658 672 663
f 663 672 673
f 658 657 672
f 672 657 674
f 653 656 675
f 675 656 644
f 653 675 654
f 654 675 676
f 675 644 677
f 677 644 643
f 676 675 678
f 678 675 677
f 679 680 676
f 676 680 654
f 674 680 672
f 672 680 679
f 627 639 625
f 625 639 681
f 626 682 632
f 632 682 642
f 681 682 625
f 625 682 626
f 669 683 681
f 681 683 682
f 667 684 669
f 669 684 683
f 682 683 642
f 642 683 685
f 681 639 669
f 669 639 670
f 686 641 685
f 685 641 642
f 641 686 640
f 640 686 643
f 686 687 643
f 643 687 677
f 687 686 688
f 688 686 685
f 689 687 690
f 690 687 688
f 683 684 685
f 685 684 688
f 684 691 688
f 688 691 690
f 687 689 677
f 677 689 678
f 693 678 692
f 692 678 689
f 692 695 694
f 694 695 696
f 692 689 695
f 695 689 690
f 692 694 693
f 693 694 673
f 693 673 679
f 679 673 672
f 679 676 693
f 693 676 678
f 684 667 691
f 691 667 668
f 696 691 671
f 671 691 668
f 696 695 691
f 691 695 690
f 694 696 666
f 666 696 671
f 666 663 694
f 694 663 673
f 648 655 657
f 657 655 674
f 674 655 680
f 680 655 654
f 593 162 594
f 594 162 290
f 598 597 601
f 601 597 602
f 615 608 616
f 616 608 607
f 607 609 616
f 616 609 614
f 697 595 613
f 613 595 598
f 597 608 602
f 602 608 615
f 594 290 628
f 628 290 203
f 628 612 617
f 617 612 611
f 593 609 162
f 162 609 200
f 105 29 698
f 698 29 699
f 268 126 701
f 701 126 700
f 126 125 700
f 700 125 702
f 252 703 250
f 250 703 704
f 32 268 705
f 705 268 701
f 288 105 706
f 706 105 698
f 29 32 699
f 699 32 705
f 707 251 706
f 706 251 288
f 250 704 125
f 125 704 702
f 703 252 707
f 707 252 251
f 706 708 707
f 707 708 709
f 707 709 703
f 703 709 710
f 703 710 704
f 704 710 711
f 704 711 702
f 702 711 712
f 706 698 708
f 708 698 713
f 698 699 713
f 713 699 714
f 699 705 714
f 714 705 715
f 717 708 716
f 716 708 713
f 719 720 718
f 718 720 721
f 722 723 719
f 719 723 720
f 724 725 723
f 723 725 720
f 724 726 725
f 725 726 727
f 728 721 725
f 725 721 720
f 721 728 729
f 729 728 730
f 729 731 721
f 721 731 718
f 724 723 732
f 732 723 722
f 722 710 732
f 732 710 709
f 722 733 710
f 710 733 711
f 719 734 722
f 722 734 733
f 734 719 735
f 735 719 718
f 724 732 726
f 726 732 717
f 717 732 708
f 708 732 709
f 731 736 718
f 718 736 735
f 737 734 738
f 738 734 735
f 736 739 735
f 735 739 738
f 740 737 741
f 741 737 738
f 737 740 743
f 743 740 742
f 739 744 738
f 738 744 741
f 734 737 733
f 733 737 743
f 733 743 711
f 711 743 712
f 736 731 746
f 746 731 745
f 731 729 745
f 745 729 730
f 727 726 747
f 747 726 717
f 748 727 749
f 749 727 747
f 747 717 750
f 750 717 716
f 749 747 751
f 751 747 750
f 749 752 748
f 748 752 753
f 730 753 745
f 745 753 752
f 728 725 748
f 748 725 727
f 730 728 753
f 753 728 748
f 700 702 754
f 754 702 712
f 705 701 715
f 715 701 755
f 754 755 700
f 700 755 701
f 742 756 754
f 754 756 755
f 740 757 742
f 742 757 756
f 755 756 715
f 715 756 758
f 754 712 742
f 742 712 743
f 759 714 758
f 758 714 715
f 714 759 713
f 713 759 716
f 759 760 716
f 716 760 750
f 760 759 761
f 761 759 758
f 762 760 763
f 763 760 761
f 756 757 758
f 758 757 761
f 757 764 761
f 761 764 763
f 760 762 750
f 750 762 751
f 766 751 765
f 765 751 762
f 767 765 769
f 769 765 768
f 765 762 768
f 768 762 763
f 765 767 766
f 766 767 746
f 766 746 752
f 752 746 745
f 752 749 766
f 766 749 751
f 757 740 764
f 764 740 741
f 769 764 744
f 744 764 741
f 769 768 764
f 764 768 763
f 767 769 739
f 739 769 744
f 739 736 767
f 767 736 746
f 219 217 208
f 208 217 209
f 209 217 210
f 210 217 193
f 198 580 199
f 199 580 511
f 76 75 289
f 289 75 272
f 277 207 291
f 291 207 184
f 290 183 203
f 203 183 84
f 490 580 142
f 142 580 198
f 142 198 143
f 143 198 197
f 149 276 72
f 72 276 73
f 104 103 279
f 279 103 770
f 770 596 279
f 279 596 595
f 605 596 771
f 771 596 770
f 771 770 772
f 772 770 103
f 772 103 773
f 773 103 102
f 155 774 101
f 101 774 102
f 773 102 97
f 97 102 774
f 775 773 100
f 100 773 97
f 773 775 772
f 772 775 776
f 772 776 771
f 771 776 777
f 200 606 197
f 197 606 777
f 189 71 778
f 778 71 74
f 97 774 98
f 98 774 155
f 183 161 184
f 184 161 291
f 777 276 197
f 197 276 143
f 777 606 771
f 771 606 605
f 613 612 697
f 697 612 202
f 595 697 279
f 279 697 202
f 73 276 776
f 776 276 777
f 776 775 73
f 73 775 74
f 100 778 775
f 775 778 74
f 778 100 189
f 189 100 99
f 245 242 99
f 99 242 189
f 131 33 256
f 28 1 95
f 95 1 62
f 27 2 28
f 28 2 1
f 265 115 266
f 266 115 114
f 95 62 69
f 69 62 64
f 62 61 64
f 64 61 65
f 61 13 65
f 65 13 130
f 13 12 130
f 130 12 14
f 31 11 32
f 32 11 268
f 15 12 31
f 31 12 11
f 31 30 15
f 15 30 231
f 30 106 231
f 231 106 232
f 287 237 106
f 106 237 232
f 254 90 287
f 287 90 237
f 253 44 254
f 254 44 90
f 253 249 44
f 44 249 7
f 267 127 268
f 268 127 126
f 10 3 241
f 241 3 116
f 3 2 116
f 116 2 114
f 2 27 114
f 114 27 266
f 27 26 266
f 266 26 113
f 26 286 113
f 113 286 110
f 286 243 110
f 110 243 255
f 243 242 255
f 255 242 256
f 242 245 256
f 256 245 131
f 245 244 131
f 131 244 132
f 265 37 115
f 115 37 41
f 41 37 42
f 42 37 40
f 92 91 40
f 40 91 42
f 236 233 92
f 92 233 91
f 191 194 236
f 236 194 233
f 258 285 244
f 244 285 132
f 257 55 258
f 258 55 285
f 257 154 201
f 201 154 185
f 56 201 204
f 204 201 180
f 55 257 56
f 56 257 201
f 204 85 56
f 56 85 52
f 86 122 53
f 53 122 79
f 212 215 86
f 86 215 122
f 211 216 212
f 212 216 215
f 192 280 211
f 211 280 216
f 191 240 192
f 192 240 280
f 249 124 7
f 7 124 8
f 124 127 8
f 8 127 241
f 127 267 241
f 241 267 10
f 10 267 9
f 9 267 11
o hand_right
v 0.166747 0.336802 1.162349
v 0.167668 0.347457 1.165611
v 0.158744 0.341594 1.166220
v 0.158334 0.332092 1.161731
v 0.153765 0.362441 1.172641
v 0.147189 0.371055 1.166900
v 0.138199 0.357214 1.167404
v 0.145144 0.352199 1.172984
v 0.152419 0.327794 1.159150
v 0.152058 0.336387 1.166113
v 0.151182 0.327638 1.153749
v 0.153486 0.319737 1.143535
v 0.153519 0.320221 1.151178
v 0.155669 0.312407 1.139771
v 0.158099 0.325918 1.135094
v 0.163289 0.311796 1.133549
v 0.186973 0.329922 1.135522
v 0.198812 0.331842 1.142012
v 0.198172 0.314541 1.142785
v 0.185638 0.314289 1.136888
v 0.212172 0.323405 1.156058
v 0.204592 0.317711 1.148762
v 0.205977 0.334694 1.146846
v 0.212681 0.338874 1.153510
v 0.180678 0.343593 1.166707
v 0.182167 0.354235 1.168672
v 0.177521 0.352119 1.166326
v 0.175899 0.342054 1.164444
v 0.143265 0.331690 1.150010
v 0.147502 0.337695 1.141479
v 0.150042 0.330995 1.145307
v 0.145135 0.329793 1.154994
v 0.188844 0.379927 1.180574
v 0.191608 0.391887 1.174685
v 0.186897 0.391913 1.171062
v 0.185708 0.380867 1.176867
v 0.165136 0.386970 1.164180
v 0.172291 0.393552 1.159870
v 0.169539 0.398707 1.147382
v 0.163031 0.390835 1.148282
v 0.155543 0.379208 1.166473
v 0.153054 0.383585 1.153329
v 0.144044 0.373895 1.155769
v 0.134963 0.358815 1.158575
v 0.203467 0.391625 1.179855
v 0.202895 0.382998 1.185379
v 0.144754 0.272445 1.163241
v 0.148990 0.273024 1.167436
v 0.150155 0.276329 1.165155
v 0.145948 0.275169 1.161203
v 0.220857 0.382706 1.174155
v 0.225162 0.380964 1.165096
v 0.225664 0.388145 1.166389
v 0.220106 0.390238 1.173763
v 0.221716 0.372737 1.174670
v 0.223706 0.371026 1.163552
v 0.147258 0.262135 1.155936
v 0.143716 0.265664 1.157398
v 0.145931 0.268026 1.153468
v 0.150157 0.264896 1.151848
v 0.157409 0.323196 1.157022
v 0.164963 0.327229 1.161046
v 0.158238 0.305996 1.155585
v 0.162184 0.314051 1.157359
v 0.156701 0.314940 1.152901
v 0.154677 0.308012 1.150655
v 0.182580 0.320814 1.167711
v 0.183128 0.332578 1.167446
v 0.177735 0.330287 1.164292
v 0.175268 0.317483 1.164328
v 0.193332 0.335341 1.177033
v 0.192213 0.323507 1.176140
v 0.198062 0.326460 1.181721
v 0.197299 0.334404 1.182182
v 0.188278 0.303535 1.171947
v 0.187842 0.297056 1.170828
v 0.190088 0.296310 1.173242
v 0.191134 0.304441 1.174199
v 0.226389 0.395210 1.166469
v 0.218895 0.397329 1.172548
v 0.224155 0.331213 1.172410
v 0.224680 0.337514 1.181618
v 0.225267 0.325090 1.185326
v 0.224931 0.321524 1.174219
v 0.223485 0.378310 1.155088
v 0.226331 0.385482 1.156619
v 0.152928 0.259800 1.157271
v 0.155755 0.262645 1.153633
v 0.148829 0.373280 1.142961
v 0.136623 0.357626 1.148780
v 0.160053 0.383761 1.139696
v 0.168744 0.390361 1.137532
v 0.173543 0.397560 1.135988
v 0.166842 0.310288 1.160556
v 0.172448 0.332700 1.162941
v 0.184692 0.344776 1.169554
v 0.205848 0.346190 1.192096
v 0.205604 0.356810 1.191988
v 0.197140 0.352347 1.187119
v 0.199490 0.343913 1.187683
v 0.220242 0.338694 1.190497
v 0.212890 0.336965 1.193154
v 0.213105 0.328092 1.193588
v 0.220323 0.328218 1.192010
v 0.137481 0.334895 1.146731
v 0.144640 0.344117 1.139110
v 0.213175 0.384244 1.181379
v 0.211278 0.391392 1.178785
v 0.211851 0.399185 1.175410
v 0.184075 0.367345 1.174587
v 0.183394 0.381572 1.174402
v 0.179382 0.380957 1.172545
v 0.182226 0.366646 1.172209
v 0.167369 0.358789 1.170786
v 0.164790 0.371993 1.172315
v 0.158202 0.350891 1.172243
v 0.180661 0.393733 1.165966
v 0.187682 0.401871 1.168467
v 0.181120 0.402456 1.162366
v 0.196412 0.401495 1.173053
v 0.204896 0.400562 1.175836
v 0.230234 0.392952 1.155311
v 0.175934 0.401854 1.155685
v 0.140374 0.344745 1.171933
v 0.136482 0.337792 1.170826
v 0.142966 0.333767 1.169283
v 0.146572 0.339170 1.170371
v 0.156829 0.303447 1.138222
v 0.153442 0.305899 1.144971
v 0.153414 0.314843 1.146358
v 0.192372 0.369531 1.184518
v 0.203990 0.372667 1.188646
v 0.162729 0.302008 1.158579
v 0.152811 0.269203 1.148656
v 0.148032 0.272433 1.150256
v 0.153521 0.289531 1.142752
v 0.158778 0.285457 1.140593
v 0.167528 0.292409 1.157871
v 0.162362 0.297204 1.158679
v 0.162638 0.294455 1.158761
v 0.167083 0.289688 1.159945
v 0.196412 0.300653 1.178801
v 0.197017 0.308086 1.179606
v 0.183124 0.299122 1.141840
v 0.173621 0.301424 1.132212
v 0.174406 0.313792 1.131982
v 0.188268 0.323108 1.172078
v 0.188409 0.312599 1.172825
v 0.191699 0.313439 1.175318
v 0.169642 0.306503 1.161783
v 0.167898 0.299221 1.160423
v 0.172568 0.301592 1.161924
v 0.174353 0.308431 1.163877
v 0.224887 0.350340 1.178523
v 0.220013 0.351613 1.189157
v 0.142874 0.269579 1.159851
v 0.144426 0.272114 1.156851
v 0.188670 0.334607 1.171732
v 0.175727 0.328535 1.132883
v 0.188774 0.346003 1.173068
v 0.214383 0.306106 1.169751
v 0.212354 0.305513 1.177416
v 0.209851 0.299276 1.177851
v 0.211942 0.297564 1.172295
v 0.162745 0.275815 1.164964
v 0.157712 0.278404 1.166418
v 0.155862 0.274959 1.167526
v 0.160688 0.271659 1.166605
v 0.157638 0.299815 1.156138
v 0.153639 0.301321 1.151325
v 0.152970 0.295727 1.153329
v 0.157736 0.295112 1.157056
v 0.152853 0.298934 1.145311
v 0.151570 0.293524 1.147394
v 0.165466 0.271775 1.160463
v 0.163796 0.267931 1.154066
v 0.170459 0.282653 1.147647
v 0.169982 0.284034 1.155567
v 0.214020 0.353638 1.150138
v 0.220671 0.356288 1.158755
v 0.219601 0.341621 1.162293
v 0.219679 0.327195 1.165414
v 0.218290 0.313936 1.168556
v 0.212935 0.310499 1.157889
v 0.223720 0.345039 1.168567
v 0.175839 0.292700 1.152683
v 0.175255 0.292521 1.143626
v 0.179749 0.293752 1.147262
v 0.193176 0.346843 1.179093
v 0.146053 0.276242 1.153943
v 0.189595 0.384086 1.129145
v 0.202527 0.382357 1.132558
v 0.198963 0.374318 1.133090
v 0.184106 0.376194 1.129959
v 0.151397 0.280070 1.164162
v 0.146780 0.279538 1.159533
v 0.201756 0.307875 1.183990
v 0.201080 0.300939 1.182185
v 0.204590 0.299121 1.182351
v 0.205595 0.305267 1.186867
v 0.223345 0.359123 1.163357
v 0.223729 0.317559 1.189535
v 0.224435 0.314696 1.178878
v 0.221313 0.369003 1.155367
v 0.215959 0.366758 1.147420
v 0.217804 0.376234 1.145860
v 0.201497 0.301370 1.152389
v 0.208218 0.349835 1.144792
v 0.210317 0.364138 1.142821
v 0.212264 0.375354 1.140736
v 0.214583 0.383241 1.139220
v 0.220315 0.383429 1.145108
v 0.158732 0.267320 1.150692
v 0.161259 0.262823 1.157775
v 0.224435 0.391329 1.143285
v 0.217365 0.390919 1.137190
v 0.202776 0.362094 1.137771
v 0.192705 0.360128 1.132828
v 0.200940 0.348347 1.140043
v 0.190954 0.345187 1.135124
v 0.196823 0.301260 1.142405
v 0.155083 0.256366 1.172998
v 0.160391 0.262917 1.166166
v 0.158878 0.267794 1.169117
v 0.155273 0.259684 1.175721
v 0.162978 0.267248 1.163128
v 0.158440 0.260084 1.161456
v 0.176456 0.344354 1.132150
v 0.172024 0.295278 1.160431
v 0.174910 0.361498 1.131149
v 0.159666 0.339297 1.132081
v 0.157336 0.352303 1.133276
v 0.171061 0.379198 1.130914
v 0.157684 0.368662 1.133384
v 0.181826 0.394040 1.129834
v 0.177926 0.386055 1.130349
v 0.145385 0.357939 1.138600
v 0.142897 0.266908 1.172143
v 0.147839 0.267329 1.175235
v 0.192837 0.391728 1.127876
v 0.151081 0.343912 1.171482
v 0.190741 0.357536 1.179395
v 0.187629 0.356375 1.174770
v 0.205089 0.363137 1.191032
v 0.194985 0.359926 1.185837
v 0.140119 0.264123 1.168375
v 0.190112 0.292585 1.169234
v 0.191194 0.293750 1.168794
v 0.133997 0.348677 1.167861
v 0.130704 0.341829 1.167610
v 0.127712 0.339638 1.154716
v 0.126874 0.341467 1.161774
v 0.130398 0.349800 1.159868
v 0.131210 0.348182 1.152162
v 0.185586 0.367500 1.176799
v 0.188213 0.367573 1.179790
v 0.223437 0.362288 1.176775
v 0.218229 0.362759 1.187204
v 0.156111 0.296277 1.140146
v 0.163774 0.300771 1.133909
v 0.162061 0.293303 1.137511
v 0.165858 0.284450 1.141508
v 0.172977 0.291682 1.157634
v 0.171824 0.290383 1.153484
v 0.172812 0.376638 1.172545
v 0.176558 0.363834 1.170457
v 0.148536 0.333836 1.164599
v 0.146174 0.330406 1.163214
v 0.180929 0.311827 1.167430
v 0.195658 0.291682 1.156569
v 0.191561 0.291929 1.148559
v 0.180250 0.302886 1.166265
v 0.142651 0.256604 1.165234
v 0.140065 0.260740 1.166448
v 0.169193 0.292346 1.137643
v 0.197094 0.316010 1.181367
v 0.200413 0.297140 1.158915
v 0.194624 0.290699 1.163827
v 0.219014 0.322502 1.193760
v 0.205108 0.390820 1.131362
v 0.154636 0.271441 1.170359
v 0.152480 0.265649 1.176672
v 0.153316 0.254571 1.169430
v 0.148519 0.254430 1.165496
v 0.214820 0.372889 1.184779
v 0.185498 0.355168 1.171833
v 0.137573 0.347665 1.143758
v 0.132218 0.337707 1.148946
v 0.179981 0.297990 1.165364
v 0.218137 0.309869 1.175658
v 0.211324 0.301769 1.161602
v 0.209183 0.293310 1.164756
v 0.202236 0.290818 1.162663
v 0.195167 0.289941 1.165180
v 0.150688 0.252245 1.173972
v 0.146194 0.252220 1.169921
v 0.140433 0.254694 1.169140
v 0.138254 0.258605 1.169890
v 0.139104 0.262624 1.171486
v 0.152398 0.254001 1.177859
v 0.152328 0.257279 1.180149
v 0.151080 0.263485 1.179528
v 0.149597 0.253436 1.182391
v 0.145614 0.249826 1.181108
v 0.132086 0.254553 1.180744
v 0.135770 0.252967 1.176241
v 0.135742 0.251624 1.178740
v 0.132944 0.252238 1.182966
v 0.130903 0.251686 1.187812
v 0.129421 0.254293 1.185874
v 0.140283 0.250104 1.178511
v 0.136986 0.250478 1.184613
v 0.140640 0.250469 1.186857
v 0.137461 0.250107 1.191564
v 0.134153 0.249864 1.189712
v 0.142638 0.249820 1.182543
v 0.141683 0.249871 1.176266
v 0.129110 0.253451 1.190515
v 0.130187 0.251141 1.190668
v 0.132772 0.250132 1.192582
v 0.131598 0.252026 1.194757
v 0.135838 0.258247 1.173589
v 0.131574 0.257201 1.180661
v 0.130132 0.257355 1.186662
v 0.129823 0.256156 1.191198
v 0.132864 0.260361 1.183147
v 0.131862 0.259516 1.187809
v 0.132076 0.258582 1.191808
v 0.135566 0.262363 1.185958
v 0.134283 0.260807 1.189575
v 0.140693 0.264393 1.176254
v 0.137973 0.262524 1.173410
v 0.133586 0.260145 1.192029
v 0.132272 0.254007 1.195628
v 0.144211 0.251672 1.187248
v 0.139601 0.252159 1.192850
v 0.145450 0.253642 1.188201
v 0.141114 0.253736 1.193859
v 0.136341 0.251461 1.195986
v 0.135495 0.250327 1.193820
v 0.142610 0.265529 1.174078
v 0.147703 0.265734 1.177499
v 0.146110 0.264749 1.179637
v 0.139799 0.262645 1.188515
v 0.149105 0.262563 1.182155
v 0.149571 0.257032 1.184244
v 0.145177 0.256358 1.189751
v 0.143882 0.259668 1.190054
v 0.141346 0.256356 1.193790
v 0.140348 0.258637 1.193077
v 0.137317 0.260867 1.191786
v 0.137660 0.256421 1.195795
v 0.137142 0.253533 1.196370
v 0.133912 0.256976 1.195020
v 0.138052 0.258102 1.194843
v 0.135303 0.258822 1.193628
v 0.169291 0.273211 1.180754
v 0.174337 0.274245 1.184839
v 0.175682 0.274352 1.180482
v 0.171368 0.273304 1.177258
v 0.170122 0.259768 1.175823
v 0.167057 0.265256 1.176724
v 0.169778 0.264931 1.171666
v 0.174519 0.260121 1.171046
v 0.176562 0.257237 1.177910
v 0.180908 0.258761 1.173064
v 0.176661 0.263646 1.166088
v 0.171572 0.268578 1.167676
v 0.176107 0.285865 1.156251
v 0.181373 0.282284 1.153485
v 0.184669 0.292459 1.170605
v 0.187913 0.290115 1.170389
v 0.167292 0.270186 1.178595
v 0.169372 0.269930 1.174365
v 0.184617 0.275688 1.181432
v 0.179635 0.278039 1.181221
v 0.179706 0.274661 1.183368
v 0.183935 0.271018 1.184181
v 0.174925 0.291342 1.162744
v 0.179897 0.292534 1.166663
v 0.174398 0.288847 1.159701
v 0.188640 0.270721 1.179078
v 0.189228 0.265622 1.174387
v 0.193917 0.281621 1.161266
v 0.193492 0.284433 1.167042
v 0.169854 0.272757 1.170870
v 0.174334 0.277678 1.178824
v 0.170692 0.276408 1.175142
v 0.183921 0.263548 1.168344
v 0.185809 0.260999 1.179274
v 0.175416 0.262246 1.197823
v 0.182842 0.264013 1.188050
v 0.181551 0.269075 1.188957
v 0.175394 0.267211 1.199222
v 0.186249 0.265819 1.182978
v 0.181422 0.259689 1.184114
v 0.163572 0.273153 1.193251
v 0.169007 0.274016 1.196990
v 0.160605 0.270132 1.191069
v 0.188667 0.281046 1.155114
v 0.162640 0.260264 1.188069
v 0.160033 0.266287 1.189171
v 0.178823 0.273353 1.187621
v 0.173183 0.271786 1.199228
v 0.173525 0.258911 1.195165
v 0.168728 0.257301 1.189351
v 0.169313 0.259039 1.200095
v 0.164558 0.258039 1.195541
v 0.159170 0.261264 1.193171
v 0.158237 0.266958 1.192503
v 0.159882 0.270542 1.193209
v 0.171562 0.262246 1.202472
v 0.172549 0.266977 1.202968
v 0.171468 0.271546 1.200781
v 0.168243 0.266746 1.207293
v 0.164651 0.263289 1.206990
v 0.149943 0.276250 1.204940
v 0.152281 0.271541 1.201600
v 0.152799 0.270280 1.203911
v 0.150787 0.274540 1.207064
v 0.154524 0.265731 1.199658
v 0.154797 0.266119 1.202222
v 0.158513 0.263879 1.204551
v 0.156142 0.269317 1.207402
v 0.160499 0.269197 1.209762
v 0.157839 0.273299 1.213117
v 0.153425 0.273398 1.211158
v 0.161099 0.265127 1.207409
v 0.150031 0.276978 1.209774
v 0.149706 0.279570 1.209662
v 0.159457 0.260895 1.202719
v 0.156220 0.268251 1.194743
v 0.152683 0.274322 1.199942
v 0.151032 0.279325 1.204097
v 0.151617 0.281990 1.209778
v 0.155099 0.277987 1.199922
v 0.153452 0.281596 1.204355
v 0.154088 0.283031 1.209208
v 0.159034 0.280668 1.201147
v 0.157164 0.283280 1.205806
v 0.163192 0.274118 1.195003
v 0.158982 0.271979 1.193676
v 0.156272 0.283462 1.208207
v 0.151814 0.278894 1.213955
v 0.153521 0.281740 1.213501
v 0.151980 0.277136 1.213234
v 0.162584 0.269663 1.210427
v 0.159415 0.274808 1.213517
v 0.164646 0.271870 1.210731
v 0.160650 0.276927 1.213955
v 0.156178 0.277910 1.215518
v 0.155102 0.276749 1.214977
v 0.163434 0.272648 1.194921
v 0.168377 0.273251 1.198118
v 0.168279 0.274432 1.198043
v 0.163576 0.280358 1.204476
v 0.171138 0.272557 1.201565
v 0.170147 0.269795 1.205752
v 0.166260 0.274183 1.209818
v 0.166040 0.277853 1.207837
v 0.162275 0.278385 1.213794
v 0.163262 0.279912 1.211072
v 0.160831 0.282835 1.207918
v 0.158588 0.281120 1.215098
v 0.157053 0.279440 1.215689
v 0.155229 0.282722 1.212486
v 0.160315 0.281889 1.212823
v 0.157716 0.283377 1.210577
v 0.187176 0.275880 1.184786
v 0.191251 0.277055 1.189004
v 0.192851 0.278884 1.186577
v 0.189156 0.277052 1.182497
v 0.190401 0.265260 1.178472
v 0.186872 0.268560 1.179434
v 0.189568 0.270346 1.175961
v 0.193957 0.267850 1.173983
v 0.194573 0.262867 1.181698
v 0.199607 0.266371 1.175627
v 0.196511 0.271560 1.170438
v 0.191332 0.273015 1.173353
v 0.194624 0.286234 1.166954
v 0.200622 0.284366 1.164600
v 0.186126 0.272604 1.181774
v 0.188183 0.273929 1.179247
v 0.200683 0.279936 1.188946
v 0.196065 0.281447 1.188352
v 0.197356 0.277938 1.189358
v 0.200918 0.275008 1.189639
v 0.191491 0.293401 1.174683
v 0.196167 0.295725 1.178122
v 0.191443 0.289356 1.171225
v 0.205239 0.276108 1.185694
v 0.206945 0.272787 1.179195
v 0.210422 0.287455 1.174492
v 0.208281 0.290878 1.179183
v 0.188877 0.275772 1.177075
v 0.191563 0.281741 1.185525
v 0.188404 0.279378 1.181331
v 0.202485 0.271808 1.172914
v 0.203691 0.267171 1.181819
v 0.190973 0.260520 1.200940
v 0.201115 0.267608 1.190054
v 0.198898 0.272757 1.192265
v 0.190886 0.264600 1.202706
v 0.203666 0.270481 1.187404
v 0.199729 0.263989 1.185891
v 0.179611 0.271217 1.196058
v 0.184044 0.271476 1.199657
v 0.178577 0.268545 1.192495
v 0.207372 0.284738 1.167111
v 0.203154 0.294756 1.181319
v 0.179836 0.261327 1.190416
v 0.178428 0.265468 1.191004
v 0.195825 0.275821 1.191635
v 0.188635 0.268886 1.202471
v 0.189531 0.257748 1.196798
v 0.185156 0.258022 1.191563
v 0.185757 0.256770 1.201739
v 0.181041 0.257120 1.196713
v 0.176360 0.261003 1.194707
v 0.176072 0.265956 1.194626
v 0.176980 0.269039 1.195687
v 0.188071 0.260392 1.205153
v 0.188514 0.264308 1.205816
v 0.187944 0.268620 1.202864
v 0.185816 0.261672 1.208497
v 0.181281 0.258452 1.207342
v 0.167815 0.270098 1.211081
v 0.170337 0.267406 1.206008
v 0.170818 0.266573 1.206757
v 0.168202 0.268593 1.211954
v 0.173027 0.262594 1.201255
v 0.172804 0.262876 1.203329
v 0.175617 0.260066 1.204747
v 0.173045 0.263152 1.210346
v 0.178824 0.263041 1.212746
v 0.175879 0.265506 1.216703
v 0.170371 0.265514 1.215041
v 0.179202 0.259722 1.207856
v 0.167400 0.269381 1.215204
v 0.166036 0.270667 1.215041
v 0.176863 0.258183 1.202813
v 0.173396 0.266980 1.198569
v 0.170303 0.270267 1.204842
v 0.167809 0.272997 1.209884
v 0.167552 0.273991 1.214390
v 0.172655 0.273382 1.205145
v 0.170276 0.274981 1.209854
v 0.169998 0.275701 1.213928
v 0.175415 0.274953 1.206444
v 0.173327 0.275982 1.210599
v 0.179245 0.271833 1.199008
v 0.175914 0.270144 1.198083
v 0.172334 0.276031 1.213559
v 0.168619 0.269296 1.218910
v 0.170779 0.272954 1.219146
v 0.169176 0.268185 1.217707
v 0.180705 0.263002 1.213065
v 0.177420 0.266374 1.218229
v 0.182786 0.265017 1.213485
v 0.179396 0.268184 1.218428
v 0.173643 0.267979 1.220244
v 0.173163 0.267372 1.219328
v 0.179592 0.271021 1.197554
v 0.184187 0.271039 1.200320
v 0.183915 0.271713 1.201267
v 0.179792 0.275139 1.209119
v 0.187384 0.269352 1.203981
v 0.186651 0.265600 1.208795
v 0.183434 0.268429 1.212956
v 0.182621 0.272271 1.211905
v 0.180211 0.270716 1.217363
v 0.180226 0.272735 1.215231
v 0.177161 0.276076 1.212824
v 0.176570 0.272323 1.218786
v 0.175344 0.270064 1.220385
v 0.172770 0.274898 1.217565
v 0.177374 0.273975 1.217034
v 0.174468 0.275776 1.215935
v 0.199891 0.296166 1.180640
v 0.201114 0.290668 1.199420
v 0.202433 0.292882 1.202914
v 0.203657 0.293661 1.202345
v 0.202385 0.292379 1.198231
v 0.208690 0.282696 1.195879
v 0.204247 0.284637 1.195773
v 0.206945 0.286437 1.192886
v 0.211533 0.284957 1.192932
v 0.213209 0.283127 1.198925
v 0.215825 0.285656 1.196859
v 0.212908 0.287942 1.191056
v 0.208267 0.289307 1.190856
v 0.212052 0.302081 1.181728
v 0.217443 0.303146 1.181309
v 0.216986 0.316639 1.195881
v 0.211694 0.318071 1.195081
v 0.210973 0.309606 1.198383
v 0.215845 0.309652 1.198941
v 0.201935 0.287633 1.197081
v 0.203372 0.289581 1.194802
v 0.212338 0.296313 1.206699
v 0.207656 0.296934 1.205107
v 0.206057 0.294727 1.205766
v 0.209871 0.293960 1.208715
v 0.207526 0.315160 1.192608
v 0.205970 0.311630 1.189462
v 0.205224 0.307710 1.191014
v 0.207199 0.307718 1.195601
v 0.206198 0.303638 1.186332
v 0.216164 0.294332 1.205519
v 0.219053 0.291026 1.201099
v 0.223952 0.307981 1.193212
v 0.220667 0.309717 1.196633
v 0.204756 0.290819 1.193380
v 0.204552 0.296034 1.201487
v 0.203314 0.293534 1.197902
v 0.217761 0.288865 1.194571
v 0.216468 0.287978 1.203408
v 0.207454 0.285718 1.213763
v 0.212338 0.289534 1.209519
v 0.208736 0.292784 1.209624
v 0.205748 0.288732 1.213804
v 0.213706 0.291434 1.207861
v 0.213787 0.285460 1.205737
v 0.197310 0.288872 1.203693
v 0.200002 0.291044 1.208075
v 0.197243 0.286096 1.201631
v 0.222681 0.305135 1.185275
v 0.201630 0.279843 1.201596
v 0.198246 0.282806 1.201171
v 0.204900 0.293469 1.206521
v 0.202967 0.290951 1.211799
v 0.208002 0.281647 1.210920
v 0.206615 0.279241 1.204910
v 0.203727 0.280293 1.213444
v 0.202268 0.278136 1.207645
v 0.197187 0.280417 1.203921
v 0.196086 0.284209 1.202951
v 0.195999 0.287410 1.203420
v 0.204278 0.284984 1.215841
v 0.203723 0.287993 1.215544
v 0.202131 0.290519 1.212762
v 0.200851 0.284525 1.217883
v 0.197497 0.281456 1.216063
v 0.186273 0.288654 1.213871
v 0.188918 0.287017 1.210867
v 0.189110 0.286176 1.211730
v 0.186107 0.287643 1.214268
v 0.192361 0.283406 1.208012
v 0.191805 0.283476 1.209877
v 0.194482 0.281320 1.211501
v 0.190642 0.283557 1.214868
v 0.193798 0.284230 1.219292
v 0.190469 0.285811 1.221373
v 0.187897 0.284787 1.217384
v 0.195656 0.281726 1.215821
v 0.184439 0.287719 1.216599
v 0.183564 0.288839 1.216910
v 0.196134 0.279611 1.210175
v 0.192950 0.286860 1.205770
v 0.188439 0.289634 1.210371
v 0.185178 0.290946 1.214278
v 0.183835 0.290984 1.218022
v 0.189853 0.291743 1.210204
v 0.186008 0.293108 1.214564
v 0.184918 0.293027 1.218184
v 0.192151 0.293866 1.211546
v 0.188093 0.294414 1.215439
v 0.196623 0.292103 1.207640
v 0.194243 0.290004 1.206010
v 0.186523 0.293778 1.218053
v 0.184580 0.287466 1.220538
v 0.185114 0.290417 1.221125
v 0.185395 0.286093 1.219896
v 0.194849 0.284740 1.220144
v 0.190892 0.286851 1.222685
v 0.196266 0.286579 1.220919
v 0.191552 0.288901 1.223095
v 0.187392 0.287642 1.222910
v 0.187682 0.286198 1.221611
v 0.196915 0.290465 1.205933
v 0.199255 0.291247 1.208874
v 0.199243 0.292329 1.211007
v 0.195041 0.294201 1.214705
v 0.201767 0.290616 1.214865
v 0.202043 0.287520 1.217399
v 0.196998 0.289263 1.220570
v 0.196818 0.292238 1.218784
v 0.191654 0.291048 1.222586
v 0.191957 0.293436 1.220682
v 0.190591 0.294890 1.217859
v 0.187874 0.291713 1.222208
v 0.187388 0.290043 1.223004
v 0.186066 0.292274 1.220819
v 0.188587 0.293171 1.221140
v 0.187630 0.293673 1.219805
v 0.220112 0.314130 1.194725
v 0.133252 0.322667 1.153406
v 0.138059 0.321945 1.156091
v 0.135161 0.325302 1.172436
v 0.139609 0.322031 1.167702
v 0.128500 0.327845 1.172762
v 0.120677 0.329153 1.164529
v 0.123911 0.329981 1.169449
v 0.140423 0.321067 1.161595
v 0.127513 0.324777 1.153293
v 0.121875 0.327850 1.157482
v 0.125295 0.314491 1.153917
v 0.118290 0.317456 1.158924
v 0.116235 0.319144 1.166018
v 0.121414 0.323014 1.171744
v 0.125973 0.323356 1.174471
v 0.133212 0.316388 1.155730
v 0.137695 0.317113 1.158566
v 0.139782 0.318409 1.164685
v 0.135258 0.309354 1.159945
v 0.130500 0.302218 1.165257
v 0.124039 0.298753 1.184359
v 0.122878 0.304494 1.180353
v 0.123352 0.302491 1.178483
v 0.123934 0.297269 1.182286
v 0.121399 0.306942 1.175077
v 0.122870 0.305148 1.174564
v 0.125118 0.304023 1.169881
v 0.126190 0.299220 1.173948
v 0.129591 0.301906 1.168189
v 0.131585 0.298632 1.171057
v 0.127094 0.294371 1.177481
v 0.124739 0.293171 1.182948
v 0.127922 0.290445 1.180627
v 0.125942 0.293731 1.185844
v 0.122484 0.303516 1.167055
v 0.120864 0.313675 1.176252
v 0.123491 0.307541 1.182140
v 0.125887 0.301212 1.186519
v 0.128298 0.295459 1.187394
v 0.126997 0.309867 1.183672
v 0.129474 0.303661 1.186520
v 0.132103 0.298520 1.186685
v 0.131964 0.310651 1.182968
v 0.133240 0.304341 1.184907
v 0.131799 0.320096 1.176184
v 0.125225 0.318885 1.177623
v 0.133763 0.300311 1.185236
v 0.129674 0.289502 1.182921
v 0.132282 0.291598 1.184376
v 0.134430 0.299367 1.169196
v 0.132410 0.293875 1.174156
v 0.135260 0.294638 1.173908
v 0.137581 0.301752 1.168530
v 0.137662 0.295923 1.174476
v 0.133846 0.290602 1.178208
v 0.131202 0.290962 1.177193
v 0.132480 0.322701 1.174380
v 0.137590 0.320867 1.170227
v 0.136875 0.319099 1.171823
v 0.137362 0.309771 1.178670
v 0.139756 0.315920 1.167509
v 0.138655 0.312263 1.162845
v 0.139879 0.304082 1.170282
v 0.140145 0.307165 1.173854
v 0.139027 0.298641 1.176409
v 0.138786 0.301032 1.178311
v 0.136697 0.303146 1.182214
v 0.137205 0.295565 1.180555
v 0.136235 0.292398 1.179249
v 0.134750 0.295519 1.184346
v 0.137373 0.298202 1.180791
v 0.135733 0.298804 1.183510
v 0.212268 0.323150 1.193923
v 0.206703 0.320790 1.191228
v 0.207749 0.327014 1.191648
v 0.206938 0.336090 1.192079
v 0.211940 0.345528 1.192822
v 0.201661 0.334908 1.187706
v 0.202914 0.325409 1.187576
v 0.202401 0.316087 1.186598
v 0.196476 0.342014 1.182397
f 780 781 779
f 779 781 782
f 783 784 786
f 786 784 785
f 787 782 788
f 788 782 781
f 790 791 789
f 789 791 787
f 792 790 794
f 794 790 793
f 796 797 795
f 795 797 798
f 800 801 799
f 799 801 802
f 804 805 803
f 803 805 806
f 808 809 807
f 807 809 810
f 811 812 814
f 814 812 813
f 815 816 818
f 818 816 817
f 819 820 784
f 784 820 821
f 784 821 785
f 785 821 822
f 823 812 824
f 824 812 811
f 826 827 825
f 825 827 828
f 830 831 829
f 829 831 832
f 834 830 833
f 833 830 829
f 836 837 835
f 835 837 838
f 839 840 782
f 782 840 779
f 842 843 841
f 841 843 844
f 846 847 845
f 845 847 848
f 850 851 849
f 849 851 852
f 854 855 853
f 853 855 856
f 831 857 832
f 832 857 858
f 860 861 859
f 859 861 862
f 863 864 830
f 830 864 831
f 835 838 865
f 865 838 866
f 867 868 821
f 821 868 822
f 821 820 867
f 867 820 869
f 818 817 870
f 870 817 871
f 872 848 842
f 842 848 847
f 791 839 787
f 787 839 782
f 803 806 847
f 847 806 873
f 874 803 846
f 846 803 847
f 876 877 875
f 875 877 878
f 879 880 882
f 882 880 881
f 884 808 883
f 883 808 807
f 829 832 885
f 885 832 886
f 832 858 886
f 886 858 887
f 889 890 888
f 888 890 891
f 893 783 892
f 892 783 894
f 893 819 783
f 783 819 784
f 814 813 889
f 889 813 895
f 813 896 895
f 895 896 897
f 812 898 813
f 813 898 896
f 812 823 898
f 898 823 899
f 903 904 902
f 902 904 905
f 906 907 792
f 792 907 908
f 811 909 824
f 824 909 910
f 911 872 841
f 841 872 842
f 912 913 915
f 915 913 914
f 917 918 916
f 916 918 919
f 855 920 856
f 856 920 921
f 922 923 798
f 798 923 924
f 926 927 925
f 925 927 850
f 929 930 928
f 928 930 931
f 860 879 861
f 861 879 882
f 879 860 933
f 933 860 932
f 934 935 836
f 836 935 837
f 936 846 925
f 925 846 845
f 937 924 793
f 793 924 794
f 846 936 874
f 874 936 938
f 907 844 908
f 908 844 843
f 940 941 939
f 939 941 942
f 944 945 943
f 943 945 946
f 948 949 947
f 947 949 950
f 952 949 951
f 951 949 948
f 954 955 953
f 953 955 956
f 958 959 957
f 957 959 802
f 960 961 799
f 799 961 962
f 859 963 860
f 860 963 932
f 964 965 966
f 966 965 922
f 936 849 938
f 938 849 967
f 968 913 935
f 935 913 837
f 947 950 917
f 917 950 918
f 925 850 936
f 936 850 849
f 970 971 969
f 969 971 972
f 945 944 827
f 827 944 973
f 974 968 828
f 828 968 935
f 975 976 978
f 978 976 977
f 799 802 960
f 960 802 959
f 924 937 798
f 798 937 795
f 960 959 859
f 859 959 963
f 979 963 958
f 958 963 959
f 980 981 861
f 861 981 862
f 983 984 982
f 982 984 863
f 985 800 962
f 962 800 799
f 957 802 986
f 986 802 801
f 986 987 957
f 957 987 983
f 987 988 983
f 983 988 984
f 990 984 989
f 989 984 988
f 957 983 958
f 958 983 982
f 991 954 866
f 866 954 992
f 864 863 990
f 990 863 984
f 971 995 996
f 995 997 996
f 996 997 998
f 997 796 998
f 998 796 795
f 797 999 798
f 798 999 922
f 1000 1001 1003
f 1003 1001 1002
f 953 1004 954
f 954 1004 992
f 1005 865 992
f 992 865 866
f 998 795 1006
f 1006 795 937
f 912 991 838
f 838 991 866
f 916 1007 929
f 929 1007 930
f 971 970 988
f 988 970 989
f 1008 972 996
f 996 972 971
f 1009 1010 1006
f 1006 1010 1008
f 1011 1012 869
f 869 1012 867
f 1013 1014 871
f 871 1014 870
f 1008 1010 1012
f 1012 1010 1015
f 825 1016 826
f 826 1016 1017
f 1018 969 1013
f 1013 969 1014
f 783 786 894
f 894 786 1019
f 1020 1021 967
f 967 1021 938
f 1022 1023 876
f 876 1023 877
f 934 1024 825
f 825 1024 1016
f 854 1025 855
f 855 1025 1026
f 1028 903 1027
f 1027 903 902
f 1030 1031 1029
f 1029 1031 1032
f 889 888 814
f 814 888 1033
f 1034 811 1033
f 1033 811 814
f 1035 1036 932
f 932 1036 933
f 841 947 911
f 911 947 917
f 844 948 841
f 841 948 947
f 951 948 907
f 907 948 844
f 907 906 951
f 951 906 1037
f 906 1038 1037
f 1037 1038 1039
f 991 912 1040
f 1040 912 915
f 1041 1042 964
f 964 1042 965
f 890 1043 891
f 891 1043 1044
f 789 1045 1046
f 1012 1011 1008
f 1008 1011 972
f 931 1047 848
f 848 1047 845
f 953 956 943
f 943 956 919
f 928 931 872
f 872 931 848
f 1049 999 1048
f 1048 999 985
f 1047 931 1050
f 1050 931 930
f 899 823 887
f 887 823 886
f 825 828 934
f 934 828 935
f 835 1051 836
f 836 1051 1052
f 923 1053 1038
f 1038 1053 1039
f 1054 927 921
f 921 927 856
f 926 1047 853
f 853 1047 1050
f 985 1055 1048
f 1048 1055 1056
f 973 974 827
f 827 974 828
f 837 913 838
f 838 913 912
f 861 882 980
f 980 882 1057
f 927 926 856
f 856 926 853
f 1025 1056 1026
f 1026 1056 1055
f 961 960 862
f 862 960 859
f 826 1017 1059
f 1059 1017 1060
f 1005 1001 1061
f 1061 1001 1000
f 1001 1004 1002
f 1002 1004 946
f 1059 1060 1002
f 1002 1060 1003
f 943 946 953
f 953 946 1004
f 1042 1041 916
f 916 1041 1007
f 792 794 906
f 906 794 1038
f 998 1006 996
f 996 1006 1008
f 865 1005 1062
f 1062 1005 1061
f 1038 794 923
f 923 794 924
f 1022 876 1036
f 1036 876 933
f 836 1052 934
f 934 1052 1024
f 885 1063 829
f 829 1063 833
f 1021 1064 938
f 938 1064 874
f 1012 1015 867
f 867 1015 868
f 824 910 885
f 885 910 1063
f 1031 1030 1027
f 1027 1030 1028
f 1064 804 874
f 874 804 803
f 884 883 1065
f 1065 883 1066
f 1050 930 1067
f 1067 930 1007
f 916 929 917
f 917 929 911
f 961 1068 939
f 939 1068 940
f 1069 1070 1055
f 1055 1070 1071
f 929 928 911
f 911 928 872
f 1040 1053 955
f 955 1053 965
f 922 965 923
f 923 965 1053
f 1051 835 1062
f 1062 835 865
f 952 914 968
f 968 914 913
f 889 895 890
f 890 895 816
f 895 897 816
f 816 897 901
f 890 816 1043
f 1043 816 815
f 1065 1066 1032
f 1032 1066 1029
f 1006 937 1009
f 1009 937 793
f 1001 1005 1004
f 1004 1005 992
f 925 845 926
f 926 845 1047
f 1002 946 1059
f 1059 946 945
f 977 941 978
f 978 941 940
f 823 824 886
f 886 824 885
f 1059 945 826
f 826 945 827
f 939 942 1069
f 1069 942 1070
f 816 901 817
f 1071 1072 1055
f 1055 1072 1026
f 1062 1061 1074
f 1074 1061 1073
f 1062 1074 1051
f 1051 1074 1075
f 1052 1051 1076
f 1076 1051 1075
f 1024 1052 1077
f 1077 1052 1076
f 1061 1000 1073
f 1073 1000 1078
f 1000 1003 1078
f 1078 1003 1079
f 1079 1003 1080
f 1080 1003 1060
f 1081 1082 1078
f 1078 1082 1073
f 1084 1085 1083
f 1083 1085 1086
f 1087 1088 1086
f 1086 1088 1083
f 1086 1085 1090
f 1090 1085 1089
f 1091 1092 1090
f 1090 1092 1093
f 1089 1094 1090
f 1090 1094 1091
f 1095 1082 1089
f 1089 1082 1094
f 1093 1087 1090
f 1090 1087 1086
f 1096 1097 1099
f 1099 1097 1098
f 1097 1096 1087
f 1087 1096 1088
f 1089 1085 1095
f 1095 1085 1084
f 1084 1075 1095
f 1095 1075 1074
f 1084 1100 1075
f 1075 1100 1076
f 1083 1101 1084
f 1084 1101 1100
f 1101 1083 1102
f 1102 1083 1088
f 1082 1095 1073
f 1073 1095 1074
f 1096 1103 1088
f 1088 1103 1102
f 1101 1102 1104
f 1104 1102 1105
f 1102 1103 1105
f 1105 1103 1106
f 1104 1105 1107
f 1107 1105 1108
f 1107 1109 1104
f 1104 1109 1110
f 1111 1108 1106
f 1106 1108 1105
f 1101 1104 1100
f 1100 1104 1110
f 1100 1110 1076
f 1076 1110 1077
f 1103 1096 1112
f 1112 1096 1099
f 1091 1094 1113
f 1113 1094 1082
f 1113 1114 1091
f 1091 1114 1092
f 1082 1081 1113
f 1113 1081 1115
f 1114 1113 1116
f 1116 1113 1115
f 1114 1117 1092
f 1092 1117 1118
f 1024 1077 1016
f 1016 1077 1119
f 1017 1120 1060
f 1060 1120 1080
f 1120 1017 1119
f 1119 1017 1016
f 1119 1109 1120
f 1120 1109 1121
f 1109 1107 1121
f 1121 1107 1122
f 1120 1121 1080
f 1080 1121 1123
f 1119 1077 1109
f 1109 1077 1110
f 1124 1079 1123
f 1123 1079 1080
f 1124 1081 1079
f 1079 1081 1078
f 1125 1115 1124
f 1124 1115 1081
f 1125 1124 1126
f 1126 1124 1123
f 1127 1125 1128
f 1128 1125 1126
f 1121 1122 1123
f 1123 1122 1126
f 1122 1129 1126
f 1126 1129 1128
f 1115 1125 1116
f 1116 1125 1127
f 1131 1116 1130
f 1130 1116 1127
f 1130 1133 1132
f 1132 1133 1134
f 1130 1127 1133
f 1133 1127 1128
f 1130 1132 1131
f 1131 1132 1112
f 1131 1112 1117
f 1117 1112 1099
f 1117 1114 1131
f 1131 1114 1116
f 1107 1108 1122
f 1122 1108 1129
f 1134 1129 1111
f 1111 1129 1108
f 1134 1133 1129
f 1129 1133 1128
f 1132 1134 1106
f 1106 1134 1111
f 1106 1103 1132
f 1132 1103 1112
f 1087 1093 1097
f 1097 1093 1098
f 1098 1118 1099
f 1099 1118 1117
f 1098 1093 1118
f 1118 1093 1092
f 915 914 1039
f 1039 914 1037
f 918 944 919
f 919 944 943
f 950 949 973
f 973 949 974
f 949 952 974
f 974 952 968
f 956 955 1042
f 1042 955 965
f 950 973 918
f 918 973 944
f 915 1039 1040
f 1040 1039 1053
f 956 1042 919
f 919 1042 916
f 1040 955 991
f 991 955 954
f 914 952 1037
f 1037 952 951
f 1136 1137 1135
f 1135 1137 1138
f 1140 1141 1139
f 1139 1141 1142
f 1139 1142 1143
f 1143 1142 1144
f 1145 1146 1148
f 1148 1146 1147
f 854 1149 1025
f 1025 1149 1150
f 1151 1152 1140
f 1140 1152 1141
f 1154 1155 1153
f 1153 1155 1156
f 1067 1007 1158
f 1158 1007 1157
f 1159 1157 1041
f 1041 1157 1007
f 1161 1162 1160
f 1160 1162 1163
f 1164 1146 1152
f 1152 1146 1141
f 854 1067 1149
f 1149 1067 1158
f 1155 1154 1137
f 1137 1154 1165
f 1166 1164 1138
f 1138 1164 1152
f 1167 1161 1144
f 1144 1161 1168
f 1170 1171 1169
f 1169 1171 1172
f 1161 1160 1168
f 1168 1160 1173
f 1174 1143 1168
f 1168 1143 1144
f 1167 1144 1145
f 1145 1144 1142
f 1135 1175 1136
f 1136 1175 1176
f 1151 1177 1135
f 1135 1177 1175
f 1167 1145 1178
f 1178 1145 1148
f 1160 1163 1153
f 1153 1163 1150
f 1135 1138 1151
f 1151 1138 1152
f 1139 1179 1140
f 1140 1179 1180
f 1165 1166 1137
f 1137 1166 1138
f 1141 1146 1142
f 1142 1146 1145
f 1136 1176 1181
f 1181 1176 1182
f 1174 1170 1183
f 1183 1170 1169
f 1170 1173 1171
f 1171 1173 1156
f 1171 1181 1172
f 1172 1181 1182
f 1153 1156 1160
f 1160 1156 1173
f 1143 1174 1184
f 1184 1174 1183
f 1140 1180 1151
f 1151 1180 1177
f 1049 1048 1178
f 1178 1048 1162
f 1179 1139 1184
f 1184 1139 1143
f 1159 1147 1164
f 1164 1147 1146
f 1170 1174 1173
f 1173 1174 1168
f 1171 1156 1181
f 1181 1156 1155
f 1181 1155 1136
f 1136 1155 1137
f 1184 1183 1186
f 1186 1183 1185
f 1184 1186 1179
f 1179 1186 1187
f 1179 1187 1180
f 1180 1187 1188
f 1180 1188 1177
f 1177 1188 1189
f 1183 1169 1185
f 1185 1169 1190
f 1169 1172 1190
f 1190 1172 1191
f 1172 1182 1191
f 1191 1182 1192
f 1193 1194 1190
f 1190 1194 1185
f 1196 1197 1195
f 1195 1197 1198
f 1199 1200 1196
f 1196 1200 1197
f 1197 1200 1202
f 1202 1200 1201
f 1203 1204 1202
f 1202 1204 1205
f 1201 1206 1202
f 1202 1206 1203
f 1205 1198 1202
f 1202 1198 1197
f 1198 1207 1195
f 1195 1207 1208
f 1201 1200 1209
f 1209 1200 1199
f 1199 1187 1209
f 1209 1187 1186
f 1199 1210 1187
f 1187 1210 1188
f 1196 1211 1199
f 1199 1211 1210
f 1212 1211 1195
f 1195 1211 1196
f 1209 1194 1201
f 1201 1194 1206
f 1194 1209 1185
f 1185 1209 1186
f 1213 1212 1208
f 1208 1212 1195
f 1211 1212 1214
f 1214 1212 1215
f 1212 1213 1215
f 1215 1213 1216
f 1214 1215 1217
f 1217 1215 1218
f 1217 1219 1214
f 1214 1219 1220
f 1216 1221 1215
f 1215 1221 1218
f 1214 1220 1211
f 1211 1220 1210
f 1210 1220 1188
f 1188 1220 1189
f 1213 1208 1223
f 1223 1208 1222
f 1208 1207 1222
f 1222 1207 1224
f 1203 1206 1225
f 1225 1206 1194
f 1204 1203 1226
f 1226 1203 1225
f 1194 1193 1225
f 1225 1193 1227
f 1225 1227 1226
f 1226 1227 1228
f 1229 1230 1226
f 1226 1230 1204
f 1224 1230 1222
f 1222 1230 1229
f 1177 1189 1175
f 1175 1189 1231
f 1176 1232 1182
f 1182 1232 1192
f 1232 1176 1231
f 1231 1176 1175
f 1231 1219 1232
f 1232 1219 1233
f 1219 1217 1233
f 1233 1217 1234
f 1232 1233 1192
f 1192 1233 1235
f 1219 1231 1220
f 1220 1231 1189
f 1236 1191 1235
f 1235 1191 1192
f 1236 1193 1191
f 1191 1193 1190
f 1236 1237 1193
f 1193 1237 1227
f 1237 1236 1238
f 1238 1236 1235
f 1239 1237 1240
f 1240 1237 1238
f 1233 1234 1235
f 1235 1234 1238
f 1234 1241 1238
f 1238 1241 1240
f 1237 1239 1227
f 1227 1239 1228
f 1243 1228 1242
f 1242 1228 1239
f 1242 1245 1244
f 1244 1245 1246
f 1242 1239 1245
f 1245 1239 1240
f 1242 1244 1243
f 1243 1244 1223
f 1243 1223 1229
f 1229 1223 1222
f 1229 1226 1243
f 1243 1226 1228
f 1217 1218 1234
f 1234 1218 1241
f 1246 1241 1221
f 1221 1241 1218
f 1246 1245 1241
f 1241 1245 1240
f 1244 1246 1216
f 1216 1246 1221
f 1216 1213 1244
f 1244 1213 1223
f 1198 1205 1207
f 1207 1205 1224
f 1224 1205 1230
f 1230 1205 1204
f 1148 1147 966
f 966 1147 964
f 1149 1154 1150
f 1150 1154 1153
f 1158 1157 1165
f 1165 1157 1166
f 1157 1159 1166
f 1166 1159 1164
f 1163 1162 1056
f 1056 1162 1048
f 1158 1165 1149
f 1149 1165 1154
f 1178 1148 1049
f 1049 1148 966
f 1163 1056 1150
f 1150 1056 1025
f 1178 1162 1167
f 1167 1162 1161
f 1147 1159 964
f 964 1159 1041
f 999 1049 922
f 922 1049 966
f 999 797 985
f 985 797 800
f 797 796 800
f 800 796 801
f 796 997 801
f 801 997 986
f 1247 1248 1250
f 1250 1248 1249
f 1252 1253 1251
f 1251 1253 1254
f 1251 1254 1255
f 1255 1254 1256
f 1258 1259 1257
f 1257 1259 1260
f 1261 1262 1252
f 1252 1262 1253
f 1264 1265 1263
f 1263 1265 1266
f 1267 1268 855
f 855 1268 920
f 1269 1267 1026
f 1026 1267 855
f 1271 1272 1270
f 1270 1272 1273
f 1274 1258 1262
f 1262 1258 1253
f 1264 1275 1265
f 1265 1275 1249
f 1276 1274 1250
f 1250 1274 1262
f 1277 1271 1256
f 1256 1271 1278
f 1279 1280 1282
f 1282 1280 1281
f 1271 1270 1278
f 1278 1270 1283
f 1284 1255 1278
f 1278 1255 1256
f 1277 1256 1257
f 1257 1256 1254
f 1247 1285 1248
f 1248 1285 1286
f 1261 1287 1247
f 1247 1287 1285
f 1257 1260 1277
f 1277 1260 1288
f 1270 1273 1263
f 1263 1273 1289
f 1261 1247 1262
f 1262 1247 1250
f 1251 1290 1252
f 1252 1290 1291
f 1275 1276 1249
f 1249 1276 1250
f 1253 1258 1254
f 1254 1258 1257
f 1248 1286 1292
f 1292 1286 1293
f 1284 1280 1294
f 1294 1280 1279
f 1281 1280 1266
f 1266 1280 1283
f 1292 1293 1281
f 1281 1293 1282
f 1263 1266 1270
f 1270 1266 1283
f 1255 1284 1295
f 1295 1284 1294
f 1252 1291 1261
f 1261 1291 1287
f 1288 1070 1272
f 1272 1070 942
f 1290 1251 1295
f 1295 1251 1255
f 1269 1259 1274
f 1274 1259 1258
f 1280 1284 1283
f 1283 1284 1278
f 1281 1266 1292
f 1292 1266 1265
f 1292 1265 1248
f 1248 1265 1249
f 1295 1294 1297
f 1297 1294 1296
f 1295 1297 1290
f 1290 1297 1298
f 1290 1298 1291
f 1291 1298 1299
f 1291 1299 1287
f 1287 1299 1300
f 1294 1279 1296
f 1296 1279 1301
f 1279 1282 1301
f 1301 1282 1302
f 1302 1282 1303
f 1303 1282 1293
f 1304 1305 1301
f 1301 1305 1296
f 1307 1308 1306
f 1306 1308 1309
f 1310 1311 1307
f 1307 1311 1308
f 1308 1311 1313
f 1313 1311 1312
f 1314 1315 1313
f 1313 1315 1316
f 1312 1317 1313
f 1313 1317 1314
f 1316 1309 1313
f 1313 1309 1308
f 1318 1319 1309
f 1309 1319 1306
f 1311 1310 1312
f 1312 1310 1320
f 1310 1298 1320
f 1320 1298 1297
f 1310 1321 1298
f 1298 1321 1299
f 1307 1322 1310
f 1310 1322 1321
f 1322 1307 1323
f 1323 1307 1306
f 1312 1320 1317
f 1317 1320 1305
f 1305 1320 1296
f 1296 1320 1297
f 1319 1324 1306
f 1306 1324 1323
f 1325 1322 1326
f 1326 1322 1323
f 1324 1327 1323
f 1323 1327 1326
f 1328 1325 1329
f 1329 1325 1326
f 1325 1328 1331
f 1331 1328 1330
f 1327 1332 1326
f 1326 1332 1329
f 1322 1325 1321
f 1321 1325 1331
f 1321 1331 1299
f 1299 1331 1300
f 1324 1319 1334
f 1334 1319 1333
f 1319 1318 1333
f 1333 1318 1335
f 1314 1317 1336
f 1336 1317 1305
f 1315 1314 1337
f 1337 1314 1336
f 1305 1304 1336
f 1336 1304 1338
f 1337 1336 1339
f 1339 1336 1338
f 1337 1340 1315
f 1315 1340 1341
f 1335 1341 1333
f 1333 1341 1340
f 1287 1300 1285
f 1285 1300 1342
f 1286 1343 1293
f 1293 1343 1303
f 1343 1286 1342
f 1342 1286 1285
f 1342 1330 1343
f 1343 1330 1344
f 1330 1328 1344
f 1344 1328 1345
f 1343 1344 1303
f 1303 1344 1346
f 1342 1300 1330
f 1330 1300 1331
f 1347 1302 1346
f 1346 1302 1303
f 1347 1304 1302
f 1302 1304 1301
f 1348 1338 1347
f 1347 1338 1304
f 1348 1347 1349
f 1349 1347 1346
f 1350 1348 1351
f 1351 1348 1349
f 1344 1345 1346
f 1346 1345 1349
f 1345 1352 1349
f 1349 1352 1351
f 1348 1350 1338
f 1338 1350 1339
f 1354 1339 1353
f 1353 1339 1350
f 1353 1356 1355
f 1355 1356 1357
f 1353 1350 1356
f 1356 1350 1351
f 1353 1355 1354
f 1354 1355 1334
f 1354 1334 1340
f 1340 1334 1333
f 1340 1337 1354
f 1354 1337 1339
f 1328 1329 1345
f 1345 1329 1352
f 1357 1352 1332
f 1332 1352 1329
f 1357 1356 1352
f 1352 1356 1351
f 1357 1332 1355
f 1355 1332 1327
f 1327 1324 1355
f 1355 1324 1334
f 1309 1316 1318
f 1318 1316 1335
f 1335 1316 1341
f 1341 1316 1315
f 1259 1072 1260
f 1260 1072 1071
f 1358 1264 1289
f 1289 1264 1263
f 1268 1267 1275
f 1275 1267 1276
f 1267 1269 1276
f 1276 1269 1274
f 941 1273 942
f 942 1273 1272
f 1358 1268 1264
f 1264 1268 1275
f 1260 1071 1288
f 1288 1071 1070
f 1273 941 1289
f 1289 941 977
f 1272 1271 1288
f 1288 1271 1277
f 1259 1269 1072
f 1072 1269 1026
f 1360 1361 1359
f 1359 1361 1362
f 1364 1365 1363
f 1363 1365 1366
f 1363 1366 1367
f 1367 1366 1368
f 1370 1371 1369
f 1369 1371 1372
f 1373 1374 1376
f 1376 1374 1375
f 1377 1378 1364
f 1364 1378 1365
f 1379 1380 1382
f 1382 1380 1381
f 1383 1384 1386
f 1386 1384 1385
f 1387 1385 978
f 978 1385 1384
f 1388 1389 1391
f 1391 1389 1390
f 1378 1392 1365
f 1365 1392 1370
f 1374 1383 1375
f 1375 1383 1386
f 1380 1393 1381
f 1381 1393 1361
f 1394 1392 1362
f 1362 1392 1378
f 1389 1396 1395
f 1395 1396 1368
f 1398 1399 1397
f 1397 1399 1400
f 1388 1401 1389
f 1389 1401 1396
f 1402 1367 1396
f 1396 1367 1368
f 1395 1368 1369
f 1369 1368 1366
f 1359 1403 1360
f 1360 1403 1404
f 1377 1405 1359
f 1359 1405 1403
f 1369 1372 1395
f 1395 1372 1406
f 1379 1388 1376
f 1376 1388 1391
f 1359 1362 1377
f 1377 1362 1378
f 1363 1407 1364
f 1364 1407 1408
f 1393 1394 1361
f 1361 1394 1362
f 1365 1370 1366
f 1366 1370 1369
f 1360 1404 1409
f 1409 1404 1410
f 1402 1398 1411
f 1411 1398 1397
f 1399 1398 1382
f 1382 1398 1401
f 1409 1410 1399
f 1399 1410 1400
f 1388 1379 1401
f 1401 1379 1382
f 1367 1402 1412
f 1412 1402 1411
f 1364 1408 1377
f 1377 1408 1405
f 981 980 1406
f 1406 980 1390
f 1407 1363 1412
f 1412 1363 1367
f 1387 1371 1392
f 1392 1371 1370
f 1398 1402 1401
f 1401 1402 1396
f 1409 1399 1381
f 1381 1399 1382
f 1360 1409 1361
f 1361 1409 1381
f 1412 1411 1414
f 1414 1411 1413
f 1412 1414 1407
f 1407 1414 1415
f 1407 1415 1408
f 1408 1415 1416
f 1408 1416 1405
f 1405 1416 1417
f 1411 1397 1413
f 1413 1397 1418
f 1397 1400 1418
f 1418 1400 1419
f 1419 1400 1420
f 1420 1400 1410
f 1422 1413 1421
f 1421 1413 1418
f 1423 1424 1426
f 1426 1424 1425
f 1427 1428 1424
f 1424 1428 1425
f 1425 1428 1430
f 1430 1428 1429
f 1430 1431 1433
f 1433 1431 1432
f 1429 1434 1430
f 1430 1434 1431
f 1433 1426 1430
f 1430 1426 1425
f 1426 1435 1423
f 1423 1435 1436
f 1428 1427 1429
f 1429 1427 1437
f 1427 1415 1437
f 1437 1415 1414
f 1427 1438 1415
f 1415 1438 1416
f 1439 1438 1424
f 1424 1438 1427
f 1440 1439 1423
f 1423 1439 1424
f 1429 1437 1434
f 1434 1437 1422
f 1422 1437 1413
f 1413 1437 1414
f 1441 1440 1436
f 1436 1440 1423
f 1442 1439 1443
f 1443 1439 1440
f 1441 1444 1440
f 1440 1444 1443
f 1445 1442 1446
f 1446 1442 1443
f 1442 1445 1448
f 1448 1445 1447
f 1444 1449 1443
f 1443 1449 1446
f 1439 1442 1438
f 1438 1442 1448
f 1438 1448 1416
f 1416 1448 1417
f 1436 1450 1441
f 1441 1450 1451
f 1436 1435 1450
f 1450 1435 1452
f 1431 1434 1453
f 1453 1434 1422
f 1431 1453 1432
f 1432 1453 1454
f 1453 1422 1455
f 1455 1422 1421
f 1454 1453 1456
f 1456 1453 1455
f 1457 1458 1454
f 1454 1458 1432
f 1452 1458 1450
f 1450 1458 1457
f 1405 1417 1403
f 1403 1417 1459
f 1404 1460 1410
f 1410 1460 1420
f 1459 1460 1403
f 1403 1460 1404
f 1447 1461 1459
f 1459 1461 1460
f 1445 1462 1447
f 1447 1462 1461
f 1460 1461 1420
f 1420 1461 1463
f 1459 1417 1447
f 1447 1417 1448
f 1464 1419 1463
f 1463 1419 1420
f 1419 1464 1418
f 1418 1464 1421
f 1464 1465 1421
f 1421 1465 1455
f 1465 1464 1466
f 1466 1464 1463
f 1467 1465 1468
f 1468 1465 1466
f 1461 1462 1463
f 1463 1462 1466
f 1462 1469 1466
f 1466 1469 1468
f 1465 1467 1455
f 1455 1467 1456
f 1471 1456 1470
f 1470 1456 1467
f 1470 1473 1472
f 1472 1473 1474
f 1470 1467 1473
f 1473 1467 1468
f 1470 1472 1471
f 1471 1472 1451
f 1471 1451 1457
f 1457 1451 1450
f 1457 1454 1471
f 1471 1454 1456
f 1462 1445 1469
f 1469 1445 1446
f 1474 1469 1449
f 1449 1469 1446
f 1474 1473 1469
f 1469 1473 1468
f 1472 1474 1444
f 1444 1474 1449
f 1444 1441 1472
f 1472 1441 1451
f 1426 1433 1435
f 1435 1433 1452
f 1452 1433 1458
f 1458 1433 1432
f 1371 940 1372
f 1372 940 1068
f 1376 1375 1379
f 1379 1375 1380
f 1393 1386 1394
f 1394 1386 1385
f 1385 1387 1394
f 1394 1387 1392
f 1475 1373 1391
f 1391 1373 1376
f 1375 1386 1380
f 1380 1386 1393
f 1372 1068 1406
f 1406 1068 981
f 1406 1390 1395
f 1395 1390 1389
f 1371 1387 940
f 940 1387 978
f 883 807 1476
f 1476 807 1477
f 1046 904 1479
f 1479 904 1478
f 904 903 1478
f 1478 903 1480
f 1030 1481 1028
f 1028 1481 1482
f 810 1046 1483
f 1483 1046 1479
f 1066 883 1484
f 1484 883 1476
f 807 810 1477
f 1477 810 1483
f 1485 1029 1484
f 1484 1029 1066
f 1028 1482 903
f 903 1482 1480
f 1481 1030 1485
f 1485 1030 1029
f 1484 1486 1485
f 1485 1486 1487
f 1485 1487 1481
f 1481 1487 1488
f 1481 1488 1482
f 1482 1488 1489
f 1482 1489 1480
f 1480 1489 1490
f 1484 1476 1486
f 1486 1476 1491
f 1476 1477 1491
f 1491 1477 1492
f 1477 1483 1492
f 1492 1483 1493
f 1495 1486 1494
f 1494 1486 1491
f 1497 1498 1496
f 1496 1498 1499
f 1500 1501 1497
f 1497 1501 1498
f 1502 1503 1501
f 1501 1503 1498
f 1502 1504 1503
f 1503 1504 1505
f 1506 1499 1503
f 1503 1499 1498
f 1499 1506 1507
f 1507 1506 1508
f 1507 1509 1499
f 1499 1509 1496
f 1502 1501 1510
f 1510 1501 1500
f 1500 1488 1510
f 1510 1488 1487
f 1500 1511 1488
f 1488 1511 1489
f 1497 1512 1500
f 1500 1512 1511
f 1512 1497 1513
f 1513 1497 1496
f 1502 1510 1504
f 1504 1510 1495
f 1495 1510 1486
f 1486 1510 1487
f 1509 1514 1496
f 1496 1514 1513
f 1515 1512 1516
f 1516 1512 1513
f 1514 1517 1513
f 1513 1517 1516
f 1518 1515 1519
f 1519 1515 1516
f 1515 1518 1521
f 1521 1518 1520
f 1517 1522 1516
f 1516 1522 1519
f 1512 1515 1511
f 1511 1515 1521
f 1511 1521 1489
f 1489 1521 1490
f 1514 1509 1524
f 1524 1509 1523
f 1509 1507 1523
f 1523 1507 1508
f 1505 1504 1525
f 1525 1504 1495
f 1526 1505 1527
f 1527 1505 1525
f 1525 1495 1528
f 1528 1495 1494
f 1527 1525 1529
f 1529 1525 1528
f 1527 1530 1526
f 1526 1530 1531
f 1508 1531 1523
f 1523 1531 1530
f 1506 1503 1526
f 1526 1503 1505
f 1508 1506 1531
f 1531 1506 1526
f 1478 1480 1532
f 1532 1480 1490
f 1483 1479 1493
f 1493 1479 1533
f 1532 1533 1478
f 1478 1533 1479
f 1520 1534 1532
f 1532 1534 1533
f 1518 1535 1520
f 1520 1535 1534
f 1533 1534 1493
f 1493 1534 1536
f 1532 1490 1520
f 1520 1490 1521
f 1537 1492 1536
f 1536 1492 1493
f 1492 1537 1491
f 1491 1537 1494
f 1537 1538 1494
f 1494 1538 1528
f 1538 1537 1539
f 1539 1537 1536
f 1540 1538 1541
f 1541 1538 1539
f 1534 1535 1536
f 1536 1535 1539
f 1535 1542 1539
f 1539 1542 1541
f 1538 1540 1528
f 1528 1540 1529
f 1544 1529 1543
f 1543 1529 1540
f 1545 1543 1547
f 1547 1543 1546
f 1543 1540 1546
f 1546 1540 1541
f 1543 1545 1544
f 1544 1545 1524
f 1544 1524 1530
f 1530 1524 1523
f 1530 1527 1544
f 1544 1527 1529
f 1535 1518 1542
f 1542 1518 1519
f 1547 1542 1522
f 1522 1542 1519
f 1547 1546 1542
f 1542 1546 1541
f 1545 1547 1517
f 1517 1547 1522
f 1517 1514 1545
f 1545 1514 1524
f 997 995 986
f 986 995 987
f 987 995 988
f 988 995 971
f 976 1358 977
f 977 1358 1289
f 854 853 1067
f 1067 853 1050
f 1055 985 1069
f 1069 985 962
f 1068 961 981
f 981 961 862
f 1268 1358 920
f 920 1358 976
f 920 976 921
f 921 976 975
f 927 1054 850
f 850 1054 851
f 882 881 1057
f 1057 881 1548
f 1548 1374 1057
f 1057 1374 1373
f 1383 1374 1549
f 1549 1374 1548
f 1549 1548 1550
f 1550 1548 881
f 1550 881 1551
f 1551 881 880
f 933 1552 879
f 879 1552 880
f 1551 880 875
f 875 880 1552
f 1553 1551 878
f 878 1551 875
f 1551 1553 1550
f 1550 1553 1554
f 1550 1554 1549
f 1549 1554 1555
f 978 1384 975
f 975 1384 1555
f 967 849 1556
f 1556 849 852
f 875 1552 876
f 876 1552 933
f 961 939 962
f 962 939 1069
f 1555 1054 975
f 975 1054 921
f 1555 1384 1549
f 1549 1384 1383
f 1391 1390 1475
f 1475 1390 980
f 1373 1475 1057
f 1057 1475 980
f 851 1054 1554
f 1554 1054 1555
f 1554 1553 851
f 851 1553 852
f 878 1556 1553
f 1553 1556 852
f 1556 878 967
f 967 878 877
f 1023 1020 877
f 877 1020 967
f 909 811 1034
f 806 779 873
f 873 779 840
f 805 780 806
f 806 780 779
f 1043 893 1044
f 1044 893 892
f 873 840 847
f 847 840 842
f 840 839 842
f 842 839 843
f 839 791 843
f 843 791 908
f 791 790 908
f 908 790 792
f 809 789 810
f 810 789 1046
f 793 790 809
f 809 790 789
f 809 808 793
f 793 808 1009
f 808 884 1009
f 1009 884 1010
f 1065 1015 884
f 884 1015 1010
f 1032 868 1065
f 1065 868 1015
f 1031 822 1032
f 1032 822 868
f 1031 1027 822
f 822 1027 785
f 1045 905 1046
f 1046 905 904
f 788 781 1019
f 1019 781 894
f 781 780 894
f 894 780 892
f 780 805 892
f 892 805 1044
f 805 804 1044
f 1044 804 891
f 804 1064 891
f 891 1064 888
f 1064 1021 888
f 888 1021 1033
f 1021 1020 1033
f 1033 1020 1034
f 1020 1023 1034
f 1034 1023 909
f 1023 1022 909
f 909 1022 910
f 1043 815 893
f 893 815 819
f 819 815 820
f 820 815 818
f 870 869 818
f 818 869 820
f 1014 1011 870
f 870 1011 869
f 969 972 1014
f 1014 972 1011
f 1036 1063 1022
f 1022 1063 910
f 1035 833 1036
f 1036 833 1063
f 1035 932 979
f 979 932 963
f 834 979 982
f 982 979 958
f 833 1035 834
f 834 1035 979
f 982 863 834
f 834 863 830
f 864 900 831
f 831 900 857
f 990 993 864
f 864 993 900
f 989 994 990
f 990 994 993
f 970 1058 989
f 989 1058 994
f 969 1018 970
f 970 1018 1058
f 1027 902 785
f 785 902 786
f 902 905 786
f 786 905 1019
f 905 1045 1019
f 1019 1045 788
f 788 1045 787
f 787 1045 789
