o hand_left
v -0.064244 -0.059358 0.754092
v -0.073000 -0.060227 0.748064
v -0.065974 -0.052559 0.750466
v -0.057959 -0.052205 0.754799
v -0.082440 -0.045181 0.740040
v -0.083334 -0.040736 0.728703
v -0.070962 -0.033277 0.736309
v -0.072299 -0.038130 0.745283
v -0.050483 -0.047940 0.754851
v -0.059611 -0.046735 0.752664
v -0.044362 -0.048212 0.751290
v -0.035339 -0.053053 0.752130
v -0.041776 -0.050315 0.756459
v -0.029285 -0.055417 0.756675
v -0.034519 -0.060626 0.743810
v -0.025578 -0.064405 0.756219
v -0.044887 -0.086327 0.750375
v -0.053314 -0.095052 0.756199
v -0.041653 -0.093511 0.770810
v -0.034895 -0.083733 0.763525
v -0.060070 -0.102704 0.775786
v -0.049543 -0.097451 0.773700
v -0.060224 -0.100239 0.758895
v -0.069165 -0.104553 0.761444
v -0.075366 -0.070471 0.755889
v -0.083985 -0.071925 0.749220
v -0.079766 -0.068571 0.747861
v -0.071613 -0.066930 0.754227
v -0.041822 -0.041478 0.741758
v -0.042869 -0.049864 0.735240
v -0.040969 -0.050291 0.743232
v -0.043356 -0.041236 0.747281
v -0.110258 -0.075936 0.738627
v -0.114095 -0.081488 0.726871
v -0.110493 -0.078290 0.723488
v -0.107545 -0.074286 0.734936
v -0.097577 -0.058727 0.718322
v -0.100417 -0.068042 0.712208
v -0.093862 -0.070433 0.700177
v -0.088078 -0.063119 0.705289
v -0.091294 -0.048439 0.723969
v -0.084694 -0.051198 0.711749
v -0.077657 -0.041928 0.718672
v -0.066598 -0.033183 0.728125
v -0.120341 -0.090668 0.733262
v -0.118813 -0.087576 0.742926
v -0.033384 -0.033689 0.789671
v -0.038026 -0.037637 0.790593
v -0.037487 -0.038697 0.789823
v -0.032843 -0.034885 0.788900
v -0.114335 -0.108099 0.741614
v -0.107568 -0.115012 0.738905
v -0.113158 -0.115620 0.734274
v -0.118668 -0.108097 0.735383
v -0.108574 -0.108079 0.749801
v -0.099825 -0.113451 0.745243
v -0.027858 -0.031358 0.800915
v -0.028537 -0.029806 0.795882
v -0.025354 -0.032766 0.795624
v -0.024176 -0.035504 0.800682
v -0.049573 -0.051605 0.758903
v -0.057148 -0.057063 0.760470
v -0.039025 -0.051326 0.770223
v -0.045657 -0.054695 0.767569
v -0.041508 -0.051562 0.762683
v -0.035675 -0.049825 0.765612
v -0.062140 -0.070298 0.774204
v -0.069481 -0.071684 0.765408
v -0.064532 -0.067652 0.763809
v -0.055991 -0.064434 0.772753
v -0.080453 -0.078190 0.771546
v -0.072091 -0.076742 0.779492
v -0.079315 -0.080803 0.781900
v -0.084503 -0.080239 0.776195
v -0.055501 -0.073644 0.790431
v -0.051202 -0.073938 0.791684
v -0.055154 -0.075290 0.792409
v -0.058903 -0.075507 0.791262
v -0.117865 -0.116790 0.729079
v -0.122038 -0.107921 0.728894
v -0.079954 -0.109776 0.782172
v -0.091184 -0.107713 0.782198
v -0.084579 -0.106471 0.794871
v -0.073427 -0.109883 0.791695
v -0.098247 -0.116587 0.734716
v -0.104497 -0.119316 0.730860
v -0.029751 -0.035479 0.805714
v -0.026273 -0.039246 0.806134
v -0.070097 -0.050908 0.711770
v -0.060059 -0.038164 0.722269
v -0.077269 -0.062713 0.704924
v -0.081641 -0.072246 0.700796
v -0.085810 -0.078110 0.695463
v -0.046782 -0.057641 0.773149
v -0.063814 -0.063552 0.759623
v -0.079081 -0.073237 0.757827
v -0.100996 -0.085945 0.775449
v -0.107604 -0.086346 0.767426
v -0.099364 -0.079613 0.765540
v -0.094969 -0.081148 0.772808
v -0.097700 -0.100541 0.784796
v -0.097293 -0.092321 0.785075
v -0.092034 -0.092666 0.791987
v -0.091370 -0.100329 0.794130
v -0.042030 -0.037756 0.735123
v -0.045749 -0.048530 0.728260
v -0.118923 -0.098607 0.742495
v -0.121128 -0.098269 0.734978
v -0.123780 -0.100546 0.727205
v -0.097098 -0.072496 0.743353
v -0.105822 -0.072882 0.732395
v -0.103304 -0.069401 0.730825
v -0.094615 -0.071406 0.741944
v -0.083384 -0.058391 0.743585
v -0.092906 -0.055052 0.734739
v -0.075082 -0.050245 0.748338
v -0.106720 -0.074135 0.717568
v -0.115067 -0.080693 0.714587
v -0.109577 -0.076677 0.708872
v -0.120087 -0.087216 0.719886
v -0.123440 -0.094043 0.724497
v -0.109119 -0.123990 0.725443
v -0.103172 -0.074091 0.704092
v -0.064406 -0.033617 0.748364
v -0.057737 -0.028565 0.750138
v -0.053726 -0.034492 0.753542
v -0.060270 -0.040033 0.752757
v -0.023972 -0.055168 0.764196
v -0.029976 -0.050233 0.764181
v -0.035519 -0.051153 0.758002
v -0.107346 -0.077137 0.749755
v -0.114898 -0.086838 0.752996
v -0.040504 -0.054159 0.775486
v -0.021753 -0.040014 0.797255
v -0.023190 -0.036425 0.792239
v -0.022144 -0.047335 0.776327
v -0.019496 -0.051807 0.781291
v -0.037657 -0.058343 0.782954
v -0.039821 -0.053599 0.777660
v -0.039853 -0.053826 0.779310
v -0.040117 -0.057145 0.785252
v -0.063487 -0.079813 0.794305
v -0.066575 -0.079686 0.793022
v -0.028997 -0.077968 0.777635
v -0.020384 -0.072792 0.768240
v -0.028120 -0.075313 0.757005
v -0.068014 -0.074305 0.776483
v -0.061971 -0.073606 0.784600
v -0.065131 -0.075905 0.786080
v -0.046211 -0.059490 0.777322
v -0.041201 -0.058090 0.780358
v -0.043723 -0.062006 0.782042
v -0.049852 -0.063134 0.778879
v -0.097600 -0.108866 0.770286
v -0.105228 -0.100704 0.773898
v -0.030269 -0.030822 0.791748
v -0.028436 -0.032605 0.791063
v -0.075104 -0.075514 0.767821
v -0.039473 -0.077134 0.746179
v -0.083306 -0.075908 0.760044
v -0.060835 -0.096063 0.797251
v -0.067035 -0.091582 0.799635
v -0.066701 -0.087066 0.801642
v -0.061488 -0.088915 0.802089
v -0.040502 -0.049065 0.796779
v -0.041691 -0.044700 0.792715
v -0.040281 -0.043231 0.793471
v -0.040179 -0.046530 0.798711
v -0.037994 -0.050170 0.773224
v -0.033731 -0.047790 0.769594
v -0.034105 -0.045880 0.773582
v -0.037997 -0.049540 0.776679
v -0.027771 -0.048281 0.768900
v -0.027595 -0.045546 0.773398
v -0.035897 -0.050950 0.801351
v -0.028819 -0.048558 0.804032
v -0.027084 -0.061152 0.789642
v -0.034864 -0.059878 0.790333
v -0.076709 -0.107837 0.748267
v -0.086168 -0.111310 0.753030
v -0.078796 -0.108448 0.766314
v -0.070976 -0.107110 0.780191
v -0.063248 -0.104162 0.792327
v -0.052259 -0.101442 0.788091
v -0.086590 -0.110540 0.768399
v -0.033097 -0.068164 0.783094
v -0.026485 -0.068995 0.781392
v -0.029898 -0.072231 0.782886
v -0.089199 -0.078100 0.764049
v -0.027405 -0.035143 0.788426
v -0.075674 -0.094625 0.706056
v -0.079763 -0.105338 0.712933
v -0.074323 -0.101239 0.718407
v -0.070303 -0.088591 0.710928
v -0.039106 -0.039313 0.788757
v -0.033620 -0.035958 0.786599
v -0.071699 -0.081736 0.796678
v -0.068014 -0.081278 0.797858
v -0.069534 -0.082607 0.798835
v -0.074095 -0.083374 0.800311
v -0.091945 -0.112501 0.754255
v -0.082058 -0.099514 0.803052
v -0.071499 -0.104407 0.799060
v -0.092051 -0.113780 0.741439
v -0.083621 -0.111399 0.737118
v -0.088931 -0.114343 0.729449
v -0.042277 -0.090870 0.787545
v -0.069126 -0.104009 0.746515
v -0.077370 -0.107589 0.734943
v -0.083432 -0.110923 0.725691
v -0.087823 -0.114228 0.719398
v -0.093491 -0.117512 0.724180
v -0.024244 -0.044289 0.801941
v -0.031727 -0.043844 0.808227
v -0.098060 -0.122604 0.718206
v -0.091814 -0.118111 0.713083
v -0.070771 -0.102218 0.731517
v -0.063866 -0.094523 0.727180
v -0.063168 -0.098809 0.742874
v -0.055418 -0.091115 0.739493
v -0.032304 -0.090829 0.781749
v -0.046745 -0.034896 0.805687
v -0.040102 -0.042754 0.805192
v -0.041823 -0.043842 0.799650
v -0.048439 -0.036897 0.802248
v -0.037399 -0.046933 0.803940
v -0.035479 -0.040142 0.807647
v -0.049715 -0.079034 0.733845
v -0.038626 -0.062811 0.783578
v -0.060099 -0.078861 0.719744
v -0.041844 -0.063963 0.732364
v -0.051119 -0.062069 0.722703
v -0.070504 -0.076087 0.705614
v -0.062600 -0.062386 0.711054
v -0.080756 -0.087897 0.696755
v -0.075540 -0.083313 0.702065
v -0.055691 -0.049728 0.718270
v -0.041618 -0.030256 0.790487
v -0.045305 -0.034786 0.792123
v -0.080168 -0.098702 0.700410
v -0.066919 -0.044604 0.751074
v -0.095644 -0.076492 0.755442
v -0.090897 -0.075038 0.752787
v -0.110797 -0.086523 0.761943
v -0.102733 -0.078488 0.758498
v -0.038080 -0.026451 0.792439
v -0.050624 -0.075022 0.792147
v -0.051866 -0.076312 0.791261
v -0.064617 -0.028726 0.740837
v -0.059256 -0.025015 0.743451
v -0.050254 -0.026378 0.733779
v -0.055741 -0.023816 0.737612
v -0.060957 -0.028132 0.733010
v -0.055402 -0.031369 0.728446
v -0.098994 -0.073253 0.744956
v -0.101732 -0.074704 0.747366
v -0.103788 -0.108499 0.759573
v -0.110584 -0.100103 0.763766
v -0.022822 -0.052162 0.770362
v -0.020365 -0.062207 0.766947
v -0.020140 -0.057818 0.773805
v -0.021116 -0.058291 0.784534
v -0.036069 -0.063924 0.783481
v -0.034137 -0.063552 0.784742
v -0.098762 -0.062706 0.732633
v -0.089970 -0.066617 0.741529
v -0.054231 -0.043707 0.752949
v -0.048286 -0.039460 0.752983
v -0.055852 -0.068386 0.780252
v -0.041760 -0.081144 0.793322
v -0.033708 -0.080818 0.788296
v -0.049227 -0.067707 0.785880
v -0.037052 -0.024584 0.800630
v -0.036956 -0.024697 0.795648
v -0.020848 -0.064475 0.776909
v -0.072449 -0.079313 0.788743
v -0.045703 -0.085845 0.793535
v -0.047296 -0.078515 0.794630
v -0.088761 -0.096850 0.799142
v -0.084795 -0.108775 0.706471
v -0.041882 -0.041905 0.794207
v -0.047716 -0.037963 0.795634
v -0.043352 -0.032541 0.807218
v -0.038526 -0.028656 0.805428
v -0.114546 -0.098221 0.753615
v -0.087572 -0.073970 0.751379
v -0.050494 -0.040269 0.725060
v -0.045458 -0.032209 0.732699
v -0.044668 -0.068947 0.787212
v -0.066369 -0.098637 0.798568
v -0.052045 -0.093852 0.796142
v -0.053027 -0.086163 0.801594
v -0.048664 -0.080810 0.798433
v -0.049412 -0.075780 0.794009
v -0.048573 -0.029274 0.806653
v -0.044129 -0.024822 0.805108
v -0.042445 -0.021166 0.800116
v -0.041342 -0.021871 0.795340
v -0.041394 -0.025085 0.792168
v -0.051562 -0.032204 0.804549
v -0.052387 -0.034225 0.801068
v -0.049845 -0.036310 0.795609
v -0.055481 -0.030787 0.802161
v -0.055820 -0.025627 0.803571
v -0.054445 -0.016161 0.793069
v -0.050536 -0.017623 0.797589
v -0.053481 -0.017608 0.797836
v -0.057334 -0.016359 0.794715
v -0.062144 -0.015409 0.792731
v -0.059476 -0.014947 0.790385
v -0.053498 -0.020734 0.801440
v -0.059241 -0.019345 0.797782
v -0.061139 -0.022989 0.799013
v -0.065829 -0.021108 0.796457
v -0.064367 -0.017734 0.795417
v -0.057235 -0.023505 0.801680
v -0.051280 -0.021200 0.803041
v -0.064140 -0.015355 0.789597
v -0.065060 -0.015204 0.791984
v -0.067059 -0.017338 0.793673
v -0.068496 -0.017780 0.790916
v -0.046054 -0.019572 0.793926
v -0.053445 -0.016998 0.790758
v -0.059062 -0.017196 0.788161
v -0.063709 -0.017454 0.787684
v -0.054596 -0.020074 0.788213
v -0.059267 -0.019963 0.787029
v -0.063289 -0.020665 0.786756
v -0.056316 -0.023953 0.787098
v -0.060304 -0.023040 0.786700
v -0.045996 -0.027374 0.790244
v -0.044268 -0.023587 0.791439
v -0.062843 -0.022723 0.786250
v -0.068458 -0.019548 0.789493
v -0.060850 -0.026637 0.799703
v -0.066174 -0.024221 0.795569
v -0.060887 -0.028746 0.798449
v -0.066381 -0.026438 0.794754
v -0.069529 -0.021834 0.793566
v -0.067990 -0.020034 0.794650
v -0.043427 -0.029777 0.790909
v -0.046970 -0.034485 0.792560
v -0.049019 -0.032736 0.791903
v -0.058326 -0.028253 0.788341
v -0.052045 -0.034718 0.794545
v -0.055855 -0.032816 0.798735
v -0.061368 -0.030109 0.795751
v -0.060588 -0.030660 0.792362
v -0.065347 -0.027838 0.792818
v -0.063957 -0.027946 0.790642
v -0.062145 -0.026154 0.787633
v -0.067407 -0.025278 0.790352
v -0.069046 -0.023611 0.792227
v -0.066712 -0.022209 0.788141
v -0.065892 -0.026162 0.789452
v -0.064692 -0.023936 0.787748
v -0.052088 -0.042329 0.794237
v -0.057222 -0.045710 0.795705
v -0.054125 -0.049240 0.794470
v -0.049827 -0.046107 0.793229
v -0.044325 -0.040592 0.805518
v -0.045614 -0.039569 0.799476
v -0.042188 -0.043265 0.798912
v -0.041383 -0.045435 0.805552
v -0.047297 -0.044676 0.810620
v -0.044562 -0.049841 0.809920
v -0.038333 -0.050587 0.803653
v -0.039361 -0.048170 0.796984
v -0.033751 -0.064429 0.785805
v -0.032263 -0.067983 0.790845
v -0.050618 -0.070117 0.787598
v -0.051758 -0.071360 0.790352
v -0.048811 -0.040614 0.795761
v -0.045710 -0.044171 0.795034
v -0.057677 -0.057418 0.799052
v -0.056352 -0.054718 0.794357
v -0.057688 -0.051721 0.796848
v -0.058686 -0.053863 0.801803
v -0.040940 -0.063760 0.781889
v -0.045499 -0.067245 0.785229
v -0.037261 -0.063385 0.782833
v -0.055176 -0.058720 0.805072
v -0.049734 -0.058248 0.809276
v -0.042871 -0.074501 0.798971
v -0.048855 -0.073633 0.797507
v -0.042741 -0.047677 0.792776
v -0.052566 -0.051288 0.791530
v -0.047880 -0.048858 0.790515
v -0.042301 -0.055394 0.807653
v -0.052076 -0.052835 0.811153
v -0.065287 -0.039203 0.810456
v -0.059392 -0.049518 0.808351
v -0.061274 -0.049418 0.803538
v -0.068365 -0.039201 0.806458
v -0.057014 -0.054148 0.807126
v -0.054455 -0.048032 0.811443
v -0.062875 -0.031318 0.796762
v -0.067675 -0.034805 0.798478
v -0.059121 -0.029166 0.798024
v -0.035557 -0.072223 0.795278
v -0.053255 -0.030656 0.806322
v -0.055759 -0.028950 0.800608
v -0.060694 -0.048268 0.798641
v -0.069615 -0.037420 0.802129
v -0.061406 -0.037910 0.812512
v -0.054935 -0.035114 0.811306
v -0.064485 -0.033191 0.812715
v -0.059170 -0.030000 0.811536
v -0.057349 -0.025652 0.806502
v -0.059406 -0.024938 0.801138
v -0.062110 -0.026169 0.798507
v -0.068289 -0.034489 0.811091
v -0.071394 -0.034853 0.807435
v -0.071227 -0.034612 0.802341
v -0.073403 -0.029548 0.810758
v -0.070582 -0.026785 0.812807
v -0.072850 -0.010706 0.804814
v -0.068367 -0.014627 0.805235
v -0.069258 -0.014976 0.807712
v -0.073370 -0.011354 0.807527
v -0.064019 -0.018555 0.807560
v -0.066216 -0.018183 0.808960
v -0.067610 -0.021683 0.811584
v -0.072019 -0.017681 0.810593
v -0.074841 -0.021463 0.811780
v -0.078842 -0.017437 0.812202
v -0.076154 -0.013489 0.811245
v -0.070988 -0.023339 0.812492
v -0.076517 -0.009659 0.808018
v -0.078037 -0.008857 0.806037
v -0.065097 -0.023442 0.811965
v -0.062086 -0.021145 0.802193
v -0.068986 -0.014929 0.802229
v -0.074542 -0.011273 0.802081
v -0.080232 -0.010062 0.804266
v -0.071842 -0.016544 0.799620
v -0.076819 -0.012974 0.800556
v -0.081263 -0.012242 0.802904
v -0.075425 -0.019320 0.798319
v -0.079925 -0.015771 0.799982
v -0.067313 -0.026974 0.797425
v -0.064102 -0.023647 0.798527
v -0.081499 -0.014332 0.801689
v -0.081125 -0.010266 0.809570
v -0.083176 -0.011301 0.807042
v -0.079516 -0.010885 0.810386
v -0.076221 -0.023070 0.811654
v -0.080645 -0.018493 0.811292
v -0.078208 -0.024564 0.810335
v -0.082623 -0.019164 0.810000
v -0.082962 -0.014430 0.811048
v -0.081464 -0.013724 0.811650
v -0.065226 -0.029082 0.797641
v -0.069136 -0.032698 0.799231
v -0.070983 -0.030896 0.798960
v -0.078667 -0.022927 0.800173
v -0.073245 -0.032860 0.802645
v -0.074637 -0.031209 0.807734
v -0.079352 -0.025747 0.808016
v -0.080114 -0.025147 0.804143
v -0.083799 -0.020349 0.808532
v -0.083114 -0.021321 0.805434
v -0.082073 -0.018886 0.801416
v -0.085369 -0.016014 0.808059
v -0.084309 -0.014893 0.809926
v -0.083649 -0.012852 0.805420
v -0.084769 -0.017811 0.805688
v -0.083458 -0.015346 0.803310
v -0.067163 -0.055525 0.795987
v -0.071400 -0.058676 0.798281
v -0.069291 -0.061869 0.797767
v -0.064886 -0.058897 0.795812
v -0.059161 -0.051828 0.805362
v -0.060554 -0.051268 0.800606
v -0.057718 -0.054936 0.800358
v -0.055563 -0.056491 0.805167
v -0.061955 -0.052585 0.810295
v -0.057549 -0.059022 0.810459
v -0.052585 -0.061218 0.804747
v -0.055185 -0.058764 0.799857
v -0.050929 -0.072033 0.795298
v -0.049282 -0.074326 0.801082
v -0.063591 -0.053023 0.797441
v -0.061222 -0.056273 0.797156
v -0.071988 -0.067028 0.804327
v -0.071439 -0.065317 0.799582
v -0.072027 -0.063719 0.802087
v -0.072003 -0.064378 0.806463
v -0.059086 -0.074282 0.789834
v -0.063800 -0.077140 0.792237
v -0.055055 -0.072031 0.791290
v -0.068510 -0.067573 0.809826
v -0.061818 -0.066959 0.812629
v -0.061337 -0.080265 0.806771
v -0.066470 -0.080499 0.803510
v -0.058964 -0.058993 0.796410
v -0.068333 -0.063492 0.795563
v -0.063676 -0.060741 0.794190
v -0.055433 -0.064530 0.809487
v -0.063584 -0.061568 0.813332
v -0.079124 -0.045227 0.812196
v -0.071093 -0.059422 0.811869
v -0.074040 -0.060746 0.806909
v -0.082054 -0.046921 0.809332
v -0.069470 -0.063371 0.811509
v -0.066293 -0.056435 0.813378
v -0.077257 -0.043436 0.796920
v -0.080780 -0.046499 0.799819
v -0.073120 -0.042014 0.797747
v -0.053076 -0.078013 0.806015
v -0.068760 -0.079515 0.797949
v -0.069391 -0.039369 0.803697
v -0.070849 -0.040447 0.799733
v -0.073829 -0.060587 0.802615
v -0.082905 -0.047712 0.804860
v -0.074635 -0.043409 0.812725
v -0.069851 -0.041134 0.809452
v -0.078529 -0.039350 0.812211
v -0.073858 -0.037002 0.808829
v -0.072951 -0.035204 0.803273
v -0.074271 -0.036781 0.799322
v -0.076389 -0.038719 0.797343
v -0.082898 -0.041390 0.811485
v -0.085192 -0.043113 0.808730
v -0.083915 -0.045787 0.804432
v -0.086459 -0.038687 0.810406
v -0.083523 -0.034093 0.810875
v -0.088032 -0.023428 0.798658
v -0.083613 -0.027060 0.799769
v -0.083932 -0.026912 0.800972
v -0.088177 -0.022957 0.800330
v -0.078544 -0.030207 0.802810
v -0.080204 -0.029290 0.803430
v -0.080954 -0.030587 0.807031
v -0.086005 -0.026803 0.805827
v -0.089335 -0.030979 0.808594
v -0.092755 -0.027338 0.807109
v -0.089958 -0.023110 0.804792
v -0.084149 -0.032481 0.809586
v -0.090962 -0.021293 0.800624
v -0.091007 -0.020397 0.798900
v -0.079046 -0.031901 0.807824
v -0.077805 -0.032562 0.798573
v -0.083790 -0.028153 0.797028
v -0.088327 -0.024531 0.795627
v -0.092350 -0.022805 0.796432
v -0.085760 -0.030949 0.795322
v -0.089774 -0.027250 0.794795
v -0.093348 -0.025587 0.795550
v -0.087939 -0.033452 0.795349
v -0.091486 -0.029999 0.795228
v -0.080756 -0.039900 0.796841
v -0.078847 -0.036153 0.796775
v -0.093770 -0.027852 0.795845
v -0.094235 -0.021025 0.802385
v -0.096596 -0.023646 0.800033
v -0.092840 -0.021777 0.803095
v -0.089999 -0.032627 0.809197
v -0.094857 -0.028427 0.807359
v -0.091466 -0.034915 0.808306
v -0.096208 -0.030625 0.806399
v -0.096107 -0.024690 0.805590
v -0.094914 -0.024419 0.805626
v -0.078952 -0.041847 0.797389
v -0.082015 -0.044831 0.800103
v -0.083581 -0.042965 0.799352
v -0.091161 -0.036028 0.797585
v -0.085675 -0.044058 0.803499
v -0.088315 -0.040400 0.807616
v -0.092484 -0.036446 0.805568
v -0.092878 -0.036854 0.801799
v -0.096544 -0.032314 0.804170
v -0.095479 -0.033402 0.801737
v -0.094251 -0.032404 0.797107
v -0.097493 -0.028779 0.802200
v -0.097575 -0.026648 0.804290
v -0.096705 -0.026389 0.798398
v -0.096867 -0.030494 0.800451
v -0.096115 -0.028743 0.797582
v -0.067276 -0.078740 0.794921
v -0.074569 -0.066340 0.802859
v -0.078123 -0.067107 0.805128
v -0.077686 -0.068104 0.805717
v -0.074259 -0.068257 0.802780
v -0.065128 -0.067840 0.809086
v -0.067248 -0.066258 0.805089
v -0.065683 -0.070202 0.804826
v -0.063865 -0.072152 0.808613
v -0.066593 -0.069517 0.813901
v -0.066116 -0.073503 0.813653
v -0.064438 -0.075837 0.807540
v -0.065940 -0.073636 0.803700
v -0.067863 -0.087254 0.798494
v -0.067343 -0.091618 0.801583
v -0.087838 -0.091274 0.804074
v -0.088252 -0.088522 0.799904
v -0.086144 -0.082476 0.804827
v -0.085302 -0.085449 0.807906
v -0.070709 -0.066014 0.803113
v -0.069785 -0.068976 0.802276
v -0.080644 -0.072414 0.814066
v -0.080938 -0.070477 0.809550
v -0.080216 -0.068883 0.809088
v -0.080913 -0.069691 0.813764
v -0.084889 -0.085142 0.798252
v -0.079476 -0.083950 0.798343
v -0.080395 -0.081493 0.799546
v -0.083388 -0.080170 0.801980
v -0.074352 -0.082440 0.798672
v -0.077511 -0.074452 0.816671
v -0.071750 -0.076636 0.816967
v -0.078408 -0.092983 0.810206
v -0.082593 -0.089884 0.809621
v -0.069376 -0.070830 0.802468
v -0.078354 -0.069689 0.805405
v -0.074721 -0.069215 0.803534
v -0.066358 -0.077846 0.812753
v -0.071847 -0.072585 0.817182
v -0.079563 -0.061293 0.817245
v -0.078150 -0.068779 0.817092
v -0.081338 -0.068347 0.813422
v -0.081987 -0.061742 0.814999
v -0.077721 -0.070909 0.816792
v -0.072513 -0.068705 0.817406
v -0.077301 -0.060287 0.803266
v -0.081103 -0.061614 0.806886
v -0.073969 -0.059559 0.803058
v -0.071271 -0.094563 0.805602
v -0.068718 -0.058933 0.808475
v -0.071079 -0.058512 0.804680
v -0.080499 -0.067560 0.808731
v -0.082777 -0.061965 0.811131
v -0.074856 -0.060542 0.817560
v -0.069523 -0.060400 0.814127
v -0.076240 -0.056053 0.816690
v -0.071169 -0.055918 0.813057
v -0.071120 -0.055163 0.806794
v -0.073245 -0.056607 0.803865
v -0.075921 -0.057986 0.802715
v -0.080855 -0.057585 0.816578
v -0.082972 -0.058788 0.814647
v -0.083406 -0.060248 0.811031
v -0.082340 -0.053860 0.815696
v -0.078948 -0.050708 0.814355
v -0.082617 -0.044940 0.802788
v -0.079686 -0.047921 0.803332
v -0.079511 -0.047401 0.804422
v -0.082037 -0.044232 0.803426
v -0.075455 -0.050793 0.805453
v -0.076454 -0.049577 0.806303
v -0.076028 -0.050198 0.809895
v -0.079521 -0.046282 0.808595
v -0.082911 -0.046996 0.812724
v -0.085235 -0.043809 0.811233
v -0.081843 -0.043251 0.807894
v -0.078908 -0.049310 0.813016
v -0.083464 -0.041837 0.803857
v -0.084451 -0.041395 0.802940
v -0.074297 -0.051341 0.810684
v -0.076479 -0.053641 0.802650
v -0.081239 -0.048705 0.801427
v -0.084498 -0.044701 0.801256
v -0.086748 -0.041875 0.802699
v -0.082685 -0.050809 0.801112
v -0.086344 -0.046058 0.800802
v -0.088478 -0.043444 0.802370
v -0.085104 -0.052927 0.802111
v -0.087896 -0.047893 0.801889
v -0.081368 -0.058165 0.803344
v -0.078827 -0.055958 0.802072
v -0.088967 -0.045098 0.802872
v -0.085678 -0.040063 0.806440
v -0.088322 -0.041217 0.805577
v -0.084310 -0.040523 0.807234
v -0.083850 -0.047698 0.813524
v -0.086838 -0.043948 0.811710
v -0.085783 -0.049248 0.813823
v -0.088686 -0.045022 0.811230
v -0.087436 -0.041248 0.809432
v -0.085547 -0.041594 0.809528
v -0.079633 -0.059203 0.803489
v -0.081890 -0.060333 0.806640
v -0.083682 -0.059064 0.806891
v -0.087355 -0.054011 0.805395
v -0.084781 -0.058510 0.811333
v -0.084101 -0.056279 0.814506
v -0.087450 -0.051046 0.812552
v -0.088436 -0.052835 0.809789
v -0.089981 -0.046147 0.809854
v -0.090522 -0.048135 0.807597
v -0.089814 -0.048931 0.804442
v -0.090094 -0.043424 0.807153
v -0.089309 -0.042057 0.808231
v -0.089555 -0.042839 0.804999
v -0.090528 -0.045047 0.806140
v -0.090029 -0.045118 0.804566
v -0.084655 -0.092970 0.806092
v -0.035753 -0.028007 0.743731
v -0.035966 -0.031045 0.748525
v -0.047119 -0.023424 0.757188
v -0.041993 -0.028132 0.757371
v -0.049656 -0.018341 0.753611
v -0.047385 -0.015901 0.743296
v -0.050140 -0.016560 0.748080
v -0.037966 -0.030908 0.754117
v -0.037852 -0.023896 0.739751
v -0.042802 -0.018716 0.739030
v -0.031496 -0.019652 0.742823
v -0.036848 -0.014014 0.742396
v -0.041424 -0.010618 0.746245
v -0.045409 -0.012189 0.751674
v -0.046338 -0.014459 0.756070
v -0.031190 -0.025052 0.747463
v -0.032172 -0.027920 0.752163
v -0.036101 -0.027989 0.757432
v -0.026461 -0.022431 0.753371
v -0.022957 -0.013366 0.756107
v -0.027457 0.001934 0.766841
v -0.031953 -0.001337 0.762900
v -0.029287 -0.001630 0.761708
v -0.025465 0.001806 0.764999
v -0.032979 -0.003878 0.758021
v -0.030584 -0.004131 0.758559
v -0.027239 -0.007671 0.756357
v -0.023893 -0.004555 0.759569
v -0.023399 -0.010980 0.757474
v -0.020807 -0.009933 0.760456
v -0.020430 -0.001651 0.762745
v -0.021766 0.003062 0.765913
v -0.017696 0.000727 0.765752
v -0.022654 0.003090 0.769037
v -0.026936 -0.007179 0.753896
v -0.039682 -0.006466 0.757491
v -0.035167 -0.002869 0.764300
v -0.029619 0.000068 0.769366
v -0.023744 0.001256 0.771539
v -0.036793 -0.006158 0.766951
v -0.030838 -0.003916 0.771063
v -0.025215 -0.003450 0.772829
v -0.035991 -0.010652 0.768858
v -0.030055 -0.007823 0.771717
v -0.043272 -0.017673 0.761200
v -0.043723 -0.011378 0.759414
v -0.026062 -0.006223 0.772507
v -0.016812 0.000863 0.768514
v -0.018035 -0.001360 0.771286
v -0.020072 -0.013339 0.760793
v -0.017118 -0.007088 0.763047
v -0.016850 -0.009776 0.764693
v -0.021184 -0.017163 0.761815
v -0.017480 -0.012031 0.766509
v -0.014982 -0.004943 0.767145
v -0.015962 -0.003510 0.764785
v -0.045302 -0.019781 0.759085
v -0.041407 -0.025086 0.759214
v -0.039326 -0.023189 0.761128
v -0.032596 -0.016457 0.768567
v -0.033807 -0.026021 0.760231
v -0.028753 -0.025304 0.756753
v -0.023283 -0.019342 0.764211
v -0.027504 -0.019546 0.766722
v -0.020136 -0.013400 0.768721
v -0.023007 -0.013438 0.769954
v -0.027058 -0.011139 0.771696
v -0.018999 -0.008753 0.770960
v -0.016072 -0.007158 0.769375
v -0.020799 -0.005065 0.772562
v -0.021585 -0.010007 0.771171
v -0.023428 -0.007776 0.772287
v -0.089301 -0.091030 0.795252
v -0.085300 -0.086170 0.793346
v -0.089101 -0.087472 0.789579
v -0.094862 -0.086594 0.783233
v -0.102327 -0.091602 0.778145
v -0.089811 -0.082726 0.780084
v -0.084073 -0.083757 0.787031
v -0.078158 -0.082289 0.792632
v -0.089288 -0.079849 0.770430
f 2 3 1
f 1 3 4
f 5 6 8
f 8 6 7
f 9 4 10
f 10 4 3
f 12 13 11
f 11 13 9
f 14 12 16
f 16 12 15
f 18 19 17
f 17 19 20
f 22 23 21
f 21 23 24
f 26 27 25
f 25 27 28
f 30 31 29
f 29 31 32
f 33 34 36
f 36 34 35
f 37 38 40
f 40 38 39
f 41 42 6
f 6 42 43
f 6 43 7
f 7 43 44
f 45 34 46
f 46 34 33
f 48 49 47
f 47 49 50
f 52 53 51
f 51 53 54
f 56 52 55
f 55 52 51
f 58 59 57
f 57 59 60
f 61 62 4
f 4 62 1
f 64 65 63
f 63 65 66
f 68 69 67
f 67 69 70
f 72 73 71
f 71 73 74
f 76 77 75
f 75 77 78
f 53 79 54
f 54 79 80
f 82 83 81
f 81 83 84
f 85 86 52
f 52 86 53
f 57 60 87
f 87 60 88
f 89 90 43
f 43 90 44
f 43 42 89
f 89 42 91
f 40 39 92
f 92 39 93
f 94 70 64
f 64 70 69
f 13 61 9
f 9 61 4
f 25 28 69
f 69 28 95
f 96 25 68
f 68 25 69
f 98 99 97
f 97 99 100
f 101 102 104
f 104 102 103
f 106 30 105
f 105 30 29
f 51 54 107
f 107 54 108
f 54 80 108
f 108 80 109
f 111 112 110
f 110 112 113
f 115 5 114
f 114 5 116
f 115 41 5
f 5 41 6
f 36 35 111
f 111 35 117
f 35 118 117
f 117 118 119
f 34 120 35
f 35 120 118
f 34 45 120
f 120 45 121
f 125 126 124
f 124 126 127
f 128 129 14
f 14 129 130
f 33 131 46
f 46 131 132
f 133 94 63
f 63 94 64
f 134 135 137
f 137 135 136
f 139 140 138
f 138 140 141
f 77 142 78
f 78 142 143
f 144 145 20
f 20 145 146
f 148 149 147
f 147 149 72
f 151 152 150
f 150 152 153
f 82 101 83
f 83 101 104
f 101 82 155
f 155 82 154
f 156 157 58
f 58 157 59
f 158 68 147
f 147 68 67
f 159 146 15
f 15 146 16
f 68 158 96
f 96 158 160
f 129 66 130
f 130 66 65
f 162 163 161
f 161 163 164
f 166 167 165
f 165 167 168
f 170 171 169
f 169 171 172
f 174 171 173
f 173 171 170
f 176 177 175
f 175 177 178
f 180 181 179
f 179 181 24
f 182 183 21
f 21 183 184
f 81 185 82
f 82 185 154
f 186 187 188
f 188 187 144
f 158 71 160
f 160 71 189
f 190 135 157
f 157 135 59
f 169 172 139
f 139 172 140
f 147 72 158
f 158 72 71
f 192 193 191
f 191 193 194
f 167 166 49
f 49 166 195
f 196 190 50
f 50 190 157
f 197 198 200
f 200 198 199
f 21 24 182
f 182 24 181
f 146 159 20
f 20 159 17
f 182 181 81
f 81 181 185
f 201 185 180
f 180 185 181
f 202 203 83
f 83 203 84
f 205 206 204
f 204 206 85
f 207 22 184
f 184 22 21
f 179 24 208
f 208 24 23
f 208 209 179
f 179 209 205
f 209 210 205
f 205 210 206
f 212 206 211
f 211 206 210
f 179 205 180
f 180 205 204
f 213 176 88
f 88 176 214
f 86 85 212
f 212 85 206
f 193 217 218
f 217 219 218
f 218 219 220
f 219 18 220
f 220 18 17
f 19 221 20
f 20 221 144
f 222 223 225
f 225 223 224
f 175 226 176
f 176 226 214
f 227 87 214
f 214 87 88
f 220 17 228
f 228 17 159
f 134 213 60
f 60 213 88
f 138 229 151
f 151 229 152
f 193 192 210
f 210 192 211
f 230 194 218
f 218 194 193
f 231 232 228
f 228 232 230
f 233 234 91
f 91 234 89
f 235 236 93
f 93 236 92
f 230 232 234
f 234 232 237
f 47 238 48
f 48 238 239
f 240 191 235
f 235 191 236
f 5 8 116
f 116 8 241
f 242 243 189
f 189 243 160
f 244 245 98
f 98 245 99
f 156 246 47
f 47 246 238
f 76 247 77
f 77 247 248
f 250 125 249
f 249 125 124
f 252 253 251
f 251 253 254
f 111 110 36
f 36 110 255
f 256 33 255
f 255 33 36
f 257 258 154
f 154 258 155
f 63 169 133
f 133 169 139
f 66 170 63
f 63 170 169
f 173 170 129
f 129 170 66
f 129 128 173
f 173 128 259
f 128 260 259
f 259 260 261
f 213 134 262
f 262 134 137
f 263 264 186
f 186 264 187
f 112 265 113
f 113 265 266
f 11 267 268
f 234 233 230
f 230 233 194
f 153 269 70
f 70 269 67
f 175 178 165
f 165 178 141
f 150 153 94
f 94 153 70
f 271 221 270
f 270 221 207
f 269 153 272
f 272 153 152
f 121 45 109
f 109 45 108
f 47 50 156
f 156 50 157
f 57 273 58
f 58 273 274
f 145 275 260
f 260 275 261
f 276 149 143
f 143 149 78
f 148 269 75
f 75 269 272
f 207 277 270
f 270 277 278
f 195 196 49
f 49 196 50
f 59 135 60
f 60 135 134
f 83 104 202
f 202 104 279
f 149 148 78
f 78 148 75
f 247 278 248
f 248 278 277
f 183 182 84
f 84 182 81
f 48 239 281
f 281 239 282
f 227 223 283
f 283 223 222
f 223 226 224
f 224 226 168
f 281 282 224
f 224 282 225
f 165 168 175
f 175 168 226
f 264 263 138
f 138 263 229
f 14 16 128
f 128 16 260
f 220 228 218
f 218 228 230
f 87 227 284
f 284 227 283
f 260 16 145
f 145 16 146
f 244 98 258
f 258 98 155
f 58 274 156
f 156 274 246
f 107 285 51
f 51 285 55
f 243 286 160
f 160 286 96
f 234 237 89
f 89 237 90
f 46 132 107
f 107 132 285
f 253 252 249
f 249 252 250
f 286 26 96
f 96 26 25
f 106 105 287
f 287 105 288
f 272 152 289
f 289 152 229
f 138 151 139
f 139 151 133
f 183 290 161
f 161 290 162
f 291 292 277
f 277 292 293
f 151 150 133
f 133 150 94
f 262 275 177
f 177 275 187
f 144 187 145
f 145 187 275
f 273 57 284
f 284 57 87
f 174 136 190
f 190 136 135
f 111 117 112
f 112 117 38
f 117 119 38
f 38 119 123
f 112 38 265
f 265 38 37
f 287 288 254
f 254 288 251
f 228 159 231
f 231 159 15
f 223 227 226
f 226 227 214
f 147 67 148
f 148 67 269
f 224 168 281
f 281 168 167
f 199 163 200
f 200 163 162
f 45 46 108
f 108 46 107
f 281 167 48
f 48 167 49
f 161 164 291
f 291 164 292
f 38 123 39
f 293 294 277
f 277 294 248
f 284 283 296
f 296 283 295
f 284 296 273
f 273 296 297
f 274 273 298
f 298 273 297
f 246 274 299
f 299 274 298
f 283 222 295
f 295 222 300
f 222 225 300
f 300 225 301
f 301 225 302
f 302 225 282
f 303 304 300
f 300 304 295
f 306 307 305
f 305 307 308
f 309 310 308
f 308 310 305
f 308 307 312
f 312 307 311
f 313 314 312
f 312 314 315
f 311 316 312
f 312 316 313
f 317 304 311
f 311 304 316
f 315 309 312
f 312 309 308
f 318 319 321
f 321 319 320
f 319 318 309
f 309 318 310
f 311 307 317
f 317 307 306
f 306 297 317
f 317 297 296
f 306 322 297
f 297 322 298
f 305 323 306
f 306 323 322
f 323 305 324
f 324 305 310
f 304 317 295
f 295 317 296
f 318 325 310
f 310 325 324
f 323 324 326
f 326 324 327
f 324 325 327
f 327 325 328
f 326 327 329
f 329 327 330
f 329 331 326
f 326 331 332
f 333 330 328
f 328 330 327
f 323 326 322
f 322 326 332
f 322 332 298
f 298 332 299
f 325 318 334
f 334 318 321
f 313 316 335
f 335 316 304
f 335 336 313
f 313 336 314
f 304 303 335
f 335 303 337
f 336 335 338
f 338 335 337
f 336 339 314
f 314 339 340
f 246 299 238
f 238 299 341
f 239 342 282
f 282 342 302
f 342 239 341
f 341 239 238
f 341 331 342
f 342 331 343
f 331 329 343
f 343 329 344
f 342 343 302
f 302 343 345
f 341 299 331
f 331 299 332
f 346 301 345
f 345 301 302
f 346 303 301
f 301 303 300
f 347 337 346
f 346 337 303
f 347 346 348
f 348 346 345
f 349 347 350
f 350 347 348
f 343 344 345
f 345 344 348
f 344 351 348
f 348 351 350
f 337 347 338
f 338 347 349
f 353 338 352
f 352 338 349
f 352 355 354
f 354 355 356
f 352 349 355
f 355 349 350
f 352 354 353
f 353 354 334
f 353 334 339
f 339 334 321
f 339 336 353
f 353 336 338
f 329 330 344
f 344 330 351
f 356 351 333
f 333 351 330
f 356 355 351
f 351 355 350
f 354 356 328
f 328 356 333
f 328 325 354
f 354 325 334
f 309 315 319
f 319 315 320
f 320 340 321
f 321 340 339
f 320 315 340
f 340 315 314
f 137 136 261
f 261 136 259
f 140 166 141
f 141 166 165
f 172 171 195
f 195 171 196
f 171 174 196
f 196 174 190
f 178 177 264
f 264 177 187
f 172 195 140
f 140 195 166
f 137 261 262
f 262 261 275
f 178 264 141
f 141 264 138
f 262 177 213
f 213 177 176
f 136 174 259
f 259 174 173
f 358 359 357
f 357 359 360
f 362 363 361
f 361 363 364
f 361 364 365
f 365 364 366
f 367 368 370
f 370 368 369
f 76 371 247
f 247 371 372
f 373 374 362
f 362 374 363
f 376 377 375
f 375 377 378
f 289 229 380
f 380 229 379
f 381 379 263
f 263 379 229
f 383 384 382
f 382 384 385
f 386 368 374
f 374 368 363
f 76 289 371
f 371 289 380
f 377 376 359
f 359 376 387
f 388 386 360
f 360 386 374
f 389 383 366
f 366 383 390
f 392 393 391
f 391 393 394
f 383 382 390
f 390 382 395
f 396 365 390
f 390 365 366
f 389 366 367
f 367 366 364
f 357 397 358
f 358 397 398
f 373 399 357
f 357 399 397
f 389 367 400
f 400 367 370
f 382 385 375
f 375 385 372
f 357 360 373
f 373 360 374
f 361 401 362
f 362 401 402
f 387 388 359
f 359 388 360
f 363 368 364
f 364 368 367
f 358 398 403
f 403 398 404
f 396 392 405
f 405 392 391
f 392 395 393
f 393 395 378
f 393 403 394
f 394 403 404
f 375 378 382
f 382 378 395
f 365 396 406
f 406 396 405
f 362 402 373
f 373 402 399
f 271 270 400
f 400 270 384
f 401 361 406
f 406 361 365
f 381 369 386
f 386 369 368
f 392 396 395
f 395 396 390
f 393 378 403
f 403 378 377
f 403 377 358
f 358 377 359
f 406 405 408
f 408 405 407
f 406 408 401
f 401 408 409
f 401 409 402
f 402 409 410
f 402 410 399
f 399 410 411
f 405 391 407
f 407 391 412
f 391 394 412
f 412 394 413
f 394 404 413
f 413 404 414
f 415 416 412
f 412 416 407
f 418 419 417
f 417 419 420
f 421 422 418
f 418 422 419
f 419 422 424
f 424 422 423
f 425 426 424
f 424 426 427
f 423 428 424
f 424 428 425
f 427 420 424
f 424 420 419
f 420 429 417
f 417 429 430
f 423 422 431
f 431 422 421
f 421 409 431
f 431 409 408
f 421 432 409
f 409 432 410
f 418 433 421
f 421 433 432
f 434 433 417
f 417 433 418
f 431 416 423
f 423 416 428
f 416 431 407
f 407 431 408
f 435 434 430
f 430 434 417
f 433 434 436
f 436 434 437
f 434 435 437
f 437 435 438
f 436 437 439
f 439 437 440
f 439 441 436
f 436 441 442
f 438 443 437
f 437 443 440
f 436 442 433
f 433 442 432
f 432 442 410
f 410 442 411
f 435 430 445
f 445 430 444
f 430 429 444
f 444 429 446
f 425 428 447
f 447 428 416
f 426 425 448
f 448 425 447
f 416 415 447
f 447 415 449
f 447 449 448
f 448 449 450
f 451 452 448
f 448 452 426
f 446 452 444
f 444 452 451
f 399 411 397
f 397 411 453
f 398 454 404
f 404 454 414
f 454 398 453
f 453 398 397
f 453 441 454
f 454 441 455
f 441 439 455
f 455 439 456
f 454 455 414
f 414 455 457
f 441 453 442
f 442 453 411
f 458 413 457
f 457 413 414
f 458 415 413
f 413 415 412
f 458 459 415
f 415 459 449
f 459 458 460
f 460 458 457
f 461 459 462
f 462 459 460
f 455 456 457
f 457 456 460
f 456 463 460
f 460 463 462
f 459 461 449
f 449 461 450
f 465 450 464
f 464 450 461
f 464 467 466
f 466 467 468
f 464 461 467
f 467 461 462
f 464 466 465
f 465 466 445
f 465 445 451
f 451 445 444
f 451 448 465
f 465 448 450
f 439 440 456
f 456 440 463
f 468 463 443
f 443 463 440
f 468 467 463
f 463 467 462
f 466 468 438
f 438 468 443
f 438 435 466
f 466 435 445
f 420 427 429
f 429 427 446
f 446 427 452
f 452 427 426
f 370 369 188
f 188 369 186
f 371 376 372
f 372 376 375
f 380 379 387
f 387 379 388
f 379 381 388
f 388 381 386
f 385 384 278
f 278 384 270
f 380 387 371
f 371 387 376
f 400 370 271
f 271 370 188
f 385 278 372
f 372 278 247
f 400 384 389
f 389 384 383
f 369 381 186
f 186 381 263
f 221 271 144
f 144 271 188
f 221 19 207
f 207 19 22
f 19 18 22
f 22 18 23
f 18 219 23
f 23 219 208
f 469 470 472
f 472 470 471
f 474 475 473
f 473 475 476
f 473 476 477
f 477 476 478
f 480 481 479
f 479 481 482
f 483 484 474
f 474 484 475
f 486 487 485
f 485 487 488
f 489 490 77
f 77 490 142
f 491 489 248
f 248 489 77
f 493 494 492
f 492 494 495
f 496 480 484
f 484 480 475
f 486 497 487
f 487 497 471
f 498 496 472
f 472 496 484
f 499 493 478
f 478 493 500
f 501 502 504
f 504 502 503
f 493 492 500
f 500 492 505
f 506 477 500
f 500 477 478
f 499 478 479
f 479 478 476
f 469 507 470
f 470 507 508
f 483 509 469
f 469 509 507
f 479 482 499
f 499 482 510
f 492 495 485
f 485 495 511
f 483 469 484
f 484 469 472
f 473 512 474
f 474 512 513
f 497 498 471
f 471 498 472
f 475 480 476
f 476 480 479
f 470 508 514
f 514 508 515
f 506 502 516
f 516 502 501
f 503 502 488
f 488 502 505
f 514 515 503
f 503 515 504
f 485 488 492
f 492 488 505
f 477 506 517
f 517 506 516
f 474 513 483
f 483 513 509
f 510 292 494
f 494 292 164
f 512 473 517
f 517 473 477
f 491 481 496
f 496 481 480
f 502 506 505
f 505 506 500
f 503 488 514
f 514 488 487
f 514 487 470
f 470 487 471
f 517 516 519
f 519 516 518
f 517 519 512
f 512 519 520
f 512 520 513
f 513 520 521
f 513 521 509
f 509 521 522
f 516 501 518
f 518 501 523
f 501 504 523
f 523 504 524
f 524 504 525
f 525 504 515
f 526 527 523
f 523 527 518
f 529 530 528
f 528 530 531
f 532 533 529
f 529 533 530
f 530 533 535
f 535 533 534
f 536 537 535
f 535 537 538
f 534 539 535
f 535 539 536
f 538 531 535
f 535 531 530
f 540 541 531
f 531 541 528
f 533 532 534
f 534 532 542
f 532 520 542
f 542 520 519
f 532 543 520
f 520 543 521
f 529 544 532
f 532 544 543
f 544 529 545
f 545 529 528
f 534 542 539
f 539 542 527
f 527 542 518
f 518 542 519
f 541 546 528
f 528 546 545
f 547 544 548
f 548 544 545
f 546 549 545
f 545 549 548
f 550 547 551
f 551 547 548
f 547 550 553
f 553 550 552
f 549 554 548
f 548 554 551
f 544 547 543
f 543 547 553
f 543 553 521
f 521 553 522
f 546 541 556
f 556 541 555
f 541 540 555
f 555 540 557
f 536 539 558
f 558 539 527
f 537 536 559
f 559 536 558
f 527 526 558
f 558 526 560
f 559 558 561
f 561 558 560
f 559 562 537
f 537 562 563
f 557 563 555
f 555 563 562
f 509 522 507
f 507 522 564
f 508 565 515
f 515 565 525
f 565 508 564
f 564 508 507
f 564 552 565
f 565 552 566
f 552 550 566
f 566 550 567
f 565 566 525
f 525 566 568
f 564 522 552
f 552 522 553
f 569 524 568
f 568 524 525
f 569 526 524
f 524 526 523
f 570 560 569
f 569 560 526
f 570 569 571
f 571 569 568
f 572 570 573
f 573 570 571
f 566 567 568
f 568 567 571
f 567 574 571
f 571 574 573
f 570 572 560
f 560 572 561
f 576 561 575
f 575 561 572
f 575 578 577
f 577 578 579
f 575 572 578
f 578 572 573
f 575 577 576
f 576 577 556
f 576 556 562
f 562 556 555
f 562 559 576
f 576 559 561
f 550 551 567
f 567 551 574
f 579 574 554
f 554 574 551
f 579 578 574
f 574 578 573
f 579 554 577
f 577 554 549
f 549 546 577
f 577 546 556
f 531 538 540
f 540 538 557
f 557 538 563
f 563 538 537
f 481 294 482
f 482 294 293
f 580 486 511
f 511 486 485
f 490 489 497
f 497 489 498
f 489 491 498
f 498 491 496
f 163 495 164
f 164 495 494
f 580 490 486
f 486 490 497
f 482 293 510
f 510 293 292
f 495 163 511
f 511 163 199
f 494 493 510
f 510 493 499
f 481 491 294
f 294 491 248
f 582 583 581
f 581 583 584
f 586 587 585
f 585 587 588
f 585 588 589
f 589 588 590
f 592 593 591
f 591 593 594
f 595 596 598
f 598 596 597
f 599 600 586
f 586 600 587
f 601 602 604
f 604 602 603
f 605 606 608
f 608 606 607
f 609 607 200
f 200 607 606
f 610 611 613
f 613 611 612
f 600 614 587
f 587 614 592
f 596 605 597
f 597 605 608
f 602 615 603
f 603 615 583
f 616 614 584
f 584 614 600
f 611 618 617
f 617 618 590
f 620 621 619
f 619 621 622
f 610 623 611
f 611 623 618
f 624 589 618
f 618 589 590
f 617 590 591
f 591 590 588
f 581 625 582
f 582 625 626
f 599 627 581
f 581 627 625
f 591 594 617
f 617 594 628
f 601 610 598
f 598 610 613
f 581 584 599
f 599 584 600
f 585 629 586
f 586 629 630
f 615 616 583
f 583 616 584
f 587 592 588
f 588 592 591
f 582 626 631
f 631 626 632
f 624 620 633
f 633 620 619
f 621 620 604
f 604 620 623
f 631 632 621
f 621 632 622
f 610 601 623
f 623 601 604
f 589 624 634
f 634 624 633
f 586 630 599
f 599 630 627
f 203 202 628
f 628 202 612
f 629 585 634
f 634 585 589
f 609 593 614
f 614 593 592
f 620 624 623
f 623 624 618
f 631 621 603
f 603 621 604
f 582 631 583
f 583 631 603
f 634 633 636
f 636 633 635
f 634 636 629
f 629 636 637
f 629 637 630
f 630 637 638
f 630 638 627
f 627 638 639
f 633 619 635
f 635 619 640
f 619 622 640
f 640 622 641
f 641 622 642
f 642 622 632
f 644 635 643
f 643 635 640
f 645 646 648
f 648 646 647
f 649 650 646
f 646 650 647
f 647 650 652
f 652 650 651
f 652 653 655
f 655 653 654
f 651 656 652
f 652 656 653
f 655 648 652
f 652 648 647
f 648 657 645
f 645 657 658
f 650 649 651
f 651 649 659
f 649 637 659
f 659 637 636
f 649 660 637
f 637 660 638
f 661 660 646
f 646 660 649
f 662 661 645
f 645 661 646
f 651 659 656
f 656 659 644
f 644 659 635
f 635 659 636
f 663 662 658
f 658 662 645
f 664 661 665
f 665 661 662
f 663 666 662
f 662 666 665
f 667 664 668
f 668 664 665
f 664 667 670
f 670 667 669
f 666 671 665
f 665 671 668
f 661 664 660
f 660 664 670
f 660 670 638
f 638 670 639
f 658 672 663
f 663 672 673
f 658 657 672
f 672 657 674
f 653 656 675
f 675 656 644
f 653 675 654
f 654 675 676
f 675 644 677
f 677 644 643
f 676 675 678
f 678 675 677
f 679 680 676
f 676 680 654
f 674 680 672
f 672 680 679
f 627 639 625
f 625 639 681
f 626 682 632
f 632 682 642
f 681 682 625
f 625 682 626
f 669 683 681
f 681 683 682
f 667 684 669
f 669 684 683
f 682 683 642
f 642 683 685
f 681 639 669
f 669 639 670
f 686 641 685
f 685 641 642
f 641 686 640
f 640 686 643
f 686 687 643
f 643 687 677
f 687 686 688
f 688 686 685
f 689 687 690
f 690 687 688
f 683 684 685
f 685 684 688
f 684 691 688
f 688 691 690
f 687 689 677
f 677 689 678
f 693 678 692
f 692 678 689
f 692 695 694
f 694 695 696
f 692 689 695
f 695 689 690
f 692 694 693
f 693 694 673
f 693 673 679
f 679 673 672
f 679 676 693
f 693 676 678
f 684 667 691
f 691 667 668
f 696 691 671
f 671 691 668
f 696 695 691
f 691 695 690
f 694 696 666
f 666 696 671
f 666 663 694
f 694 663 673
f 648 655 657
f 657 655 674
f 674 655 680
f 680 655 654
f 593 162 594
f 594 162 290
f 598 597 601
f 601 597 602
f 615 608 616
f 616 608 607
f 607 609 616
f 616 609 614
f 697 595 613
f 613 595 598
f 597 608 602
f 602 608 615
f 594 290 628
f 628 290 203
f 628 612 617
f 617 612 611
f 593 609 162
f 162 609 200
f 105 29 698
f 698 29 699
f 268 126 701
f 701 126 700
f 126 125 700
f 700 125 702
f 252 703 250
f 250 703 704
f 32 268 705
f 705 268 701
f 288 105 706
f 706 105 698
f 29 32 699
f 699 32 705
f 707 251 706
f 706 251 288
f 250 704 125
f 125 704 702
f 703 252 707
f 707 252 251
f 706 708 707
f 707 708 709
f 707 709 703
f 703 709 710
f 703 710 704
f 704 710 711
f 704 711 702
f 702 711 712
f 706 698 708
f 708 698 713
f 698 699 713
f 713 699 714
f 699 705 714
f 714 705 715
f 717 708 716
f 716 708 713
f 719 720 718
f 718 720 721
f 722 723 719
f 719 723 720
f 724 725 723
f 723 725 720
f 724 726 725
f 725 726 727
f 728 721 725
f 725 721 720
f 721 728 729
f 729 728 730
f 729 731 721
f 721 731 718
f 724 723 732
f 732 723 722
f 722 710 732
f 732 710 709
f 722 733 710
f 710 733 711
f 719 734 722
f 722 734 733
f 734 719 735
f 735 719 718
f 724 732 726
f 726 732 717
f 717 732 708
f 708 732 709
f 731 736 718
f 718 736 735
f 737 734 738
f 738 734 735
f 736 739 735
f 735 739 738
f 740 737 741
f 741 737 738
f 737 740 743
f 743 740 742
f 739 744 738
f 738 744 741
f 734 737 733
f 733 737 743
f 733 743 711
f 711 743 712
f 736 731 746
f 746 731 745
f 731 729 745
f 745 729 730
f 727 726 747
f 747 726 717
f 748 727 749
f 749 727 747
f 747 717 750
f 750 717 716
f 749 747 751
f 751 747 750
f 749 752 748
f 748 752 753
f 730 753 745
f 745 753 752
f 728 725 748
f 748 725 727
f 730 728 753
f 753 728 748
f 700 702 754
f 754 702 712
f 705 701 715
f 715 701 755
f 754 755 700
f 700 755 701
f 742 756 754
f 754 756 755
f 740 757 742
f 742 757 756
f 755 756 715
f 715 756 758
f 754 712 742
f 742 712 743
f 759 714 758
f 758 714 715
f 714 759 713
f 713 759 716
f 759 760 716
f 716 760 750
f 760 759 761
f 761 759 758
f 762 760 763
f 763 760 761
f 756 757 758
f 758 757 761
f 757 764 761
f 761 764 763
f 760 762 750
f 750 762 751
f 766 751 765
f 765 751 762
f 767 765 769
f 769 765 768
f 765 762 768
f 768 762 763
f 765 767 766
f 766 767 746
f 766 746 752
f 752 746 745
f 752 749 766
f 766 749 751
f 757 740 764
f 764 740 741
f 769 764 744
f 744 764 741
f 769 768 764
f 764 768 763
f 767 769 739
f 739 769 744
f 739 736 767
f 767 736 746
f 219 217 208
f 208 217 209
f 209 217 210
f 210 217 193
f 198 580 199
f 199 580 511
f 76 75 289
f 289 75 272
f 277 207 291
f 291 207 184
f 290 183 203
f 203 183 84
f 490 580 142
f 142 580 198
f 142 198 143
f 143 198 197
f 149 276 72
f 72 276 73
f 104 103 279
f 279 103 770
f 770 596 279
f 279 596 595
f 605 596 771
f 771 596 770
f 771 770 772
f 772 770 103
f 772 103 773
f 773 103 102
f 155 774 101
f 101 774 102
f 773 102 97
f 97 102 774
f 775 773 100
f 100 773 97
f 773 775 772
f 772 775 776
f 772 776 771
f 771 776 777
f 200 606 197
f 197 606 777
f 189 71 778
f 778 71 74
f 97 774 98
f 98 774 155
f 183 161 184
f 184 161 291
f 777 276 197
f 197 276 143
f 777 606 771
f 771 606 605
f 613 612 697
f 697 612 202
f 595 697 279
f 279 697 202
f 73 276 776
f 776 276 777
f 776 775 73
f 73 775 74
f 100 778 775
f 775 778 74
f 778 100 189
f 189 100 99
f 245 242 99
f 99 242 189
f 131 33 256
f 28 1 95
f 95 1 62
f 27 2 28
f 28 2 1
f 265 115 266
f 266 115 114
f 95 62 69
f 69 62 64
f 62 61 64
f 64 61 65
f 61 13 65
f 65 13 130
f 13 12 130
f 130 12 14
f 31 11 32
f 32 11 268
f 15 12 31
f 31 12 11
f 31 30 15
f 15 30 231
f 30 106 231
f 231 106 232
f 287 237 106
f 106 237 232
f 254 90 287
f 287 90 237
f 253 44 254
f 254 44 90
f 253 249 44
f 44 249 7
f 267 127 268
f 268 127 126
f 10 3 241
f 241 3 116
f 3 2 116
f 116 2 114
f 2 27 114
f 114 27 266
f 27 26 266
f 266 26 113
f 26 286 113
f 113 286 110
f 286 243 110
f 110 243 255
f 243 242 255
f 255 242 256
f 242 245 256
f 256 245 131
f 245 244 131
f 131 244 132
f 265 37 115
f 115 37 41
f 41 37 42
f 42 37 40
f 92 91 40
f 40 91 42
f 236 233 92
f 92 233 91
f 191 194 236
f 236 194 233
f 258 285 244
f 244 285 132
f 257 55 258
f 258 55 285
f 257 154 201
f 201 154 185
f 56 201 204
f 204 201 180
f 55 257 56
f 56 257 201
f 204 85 56
f 56 85 52
f 86 122 53
f 53 122 79
f 212 215 86
f 86 215 122
f 211 216 212
f 212 216 215
f 192 280 211
f 211 280 216
f 191 240 192
f 192 240 280
f 249 124 7
f 7 124 8
f 124 127 8
f 8 127 241
f 127 267 241
f 241 267 10
f 10 267 9
f 9 267 11
o hand_right
v -0.132508 0.072624 0.676426
v -0.133540 0.082789 0.681257
v -0.136344 0.073451 0.680568
v -0.136787 0.065132 0.676832
v -0.141616 0.081795 0.697377
v -0.153567 0.083912 0.701440
v -0.152931 0.066415 0.695803
v -0.142301 0.068430 0.694105
v -0.140482 0.059822 0.674315
v -0.138548 0.066091 0.679781
v -0.143238 0.061303 0.669652
v -0.146758 0.053905 0.660918
v -0.142475 0.053061 0.667757
v -0.145677 0.047195 0.655759
v -0.151296 0.061910 0.654880
v -0.144298 0.050253 0.646934
v -0.133418 0.076821 0.644182
v -0.121873 0.083479 0.643534
v -0.115833 0.067936 0.638138
v -0.127995 0.062077 0.640099
v -0.101187 0.081935 0.644101
v -0.108863 0.073562 0.640474
v -0.114927 0.089175 0.644349
v -0.107581 0.095728 0.647318
v -0.122443 0.083631 0.676022
v -0.124081 0.093967 0.680720
v -0.128281 0.090944 0.680481
v -0.126714 0.080664 0.676121
v -0.147582 0.060231 0.668248
v -0.156654 0.066184 0.665971
v -0.149984 0.063398 0.665197
v -0.142976 0.060480 0.670840
v -0.120210 0.117944 0.695036
v -0.126129 0.129939 0.693360
v -0.131661 0.127858 0.693321
v -0.125092 0.117453 0.694573
v -0.149327 0.110697 0.700078
v -0.149291 0.121869 0.694540
v -0.160897 0.126049 0.688030
v -0.162294 0.114895 0.689843
v -0.151323 0.096765 0.702813
v -0.163538 0.100892 0.696241
v -0.164500 0.084836 0.696480
v -0.161558 0.064911 0.691617
v -0.114701 0.135201 0.690822
v -0.108656 0.127134 0.692184
v -0.118942 0.014364 0.676220
v -0.114728 0.018415 0.677378
v -0.116480 0.020605 0.675173
v -0.120407 0.016132 0.674296
v -0.103585 0.136290 0.674001
v -0.105845 0.137474 0.664225
v -0.107086 0.143875 0.667505
v -0.106870 0.142483 0.676817
v -0.099354 0.128001 0.670394
v -0.104496 0.128229 0.660319
v -0.114117 0.004644 0.669354
v -0.117965 0.006328 0.672361
v -0.119521 0.007675 0.668082
v -0.115543 0.006661 0.664541
v -0.137388 0.056190 0.672480
v -0.131096 0.062609 0.673783
v -0.132809 0.041672 0.666418
v -0.130940 0.049647 0.668215
v -0.137859 0.048239 0.667584
v -0.138494 0.041474 0.665152
v -0.112571 0.064496 0.667735
v -0.116411 0.074949 0.671390
v -0.121332 0.070687 0.671067
v -0.118570 0.058323 0.667936
v -0.104214 0.081671 0.674033
v -0.101451 0.070869 0.669838
v -0.094775 0.075819 0.671844
v -0.097836 0.082444 0.675391
v -0.100047 0.052063 0.661485
v -0.098928 0.046563 0.658666
v -0.095158 0.046110 0.658925
v -0.096883 0.053893 0.661961
v -0.108938 0.150354 0.669721
v -0.110869 0.148116 0.679105
v -0.085359 0.093672 0.652727
v -0.080809 0.098664 0.661622
v -0.073671 0.088165 0.658932
v -0.080519 0.085807 0.650111
v -0.112527 0.134982 0.656655
v -0.112021 0.142522 0.658824
v -0.108377 0.006033 0.667402
v -0.109594 0.008120 0.662858
v -0.169782 0.090335 0.685750
v -0.166720 0.067113 0.684009
v -0.167568 0.107448 0.682925
v -0.165073 0.118781 0.678727
v -0.165212 0.128127 0.676811
v -0.124744 0.048550 0.666863
v -0.126679 0.070621 0.673528
v -0.118210 0.086215 0.676427
v -0.089741 0.096208 0.682425
v -0.093671 0.105357 0.686301
v -0.101015 0.097693 0.685536
v -0.096103 0.091446 0.681664
v -0.078390 0.096801 0.670929
v -0.080963 0.091340 0.676148
v -0.076873 0.083275 0.672672
v -0.073297 0.087459 0.667696
v -0.154024 0.057288 0.668145
v -0.162890 0.068188 0.668052
v -0.104693 0.133437 0.684135
v -0.110042 0.138857 0.685754
v -0.114406 0.146109 0.685725
v -0.123332 0.105480 0.689130
v -0.128563 0.117030 0.694629
v -0.132450 0.114366 0.695858
v -0.126196 0.104422 0.688597
v -0.133842 0.090016 0.689763
v -0.139088 0.097091 0.699379
v -0.134825 0.078073 0.687878
v -0.139801 0.126482 0.693992
v -0.136111 0.137029 0.694424
v -0.144667 0.134638 0.693715
v -0.127134 0.140699 0.693017
v -0.119282 0.143897 0.690279
v -0.112749 0.151009 0.658392
v -0.152236 0.131929 0.691332
v -0.143319 0.060425 0.691156
v -0.141862 0.055070 0.688290
v -0.137616 0.059264 0.683739
v -0.138861 0.063656 0.685031
v -0.141986 0.038613 0.652805
v -0.141580 0.039213 0.660700
v -0.143936 0.047538 0.663395
v -0.111761 0.110417 0.692330
v -0.102319 0.118531 0.690327
v -0.126701 0.041205 0.665133
v -0.118183 0.010302 0.660554
v -0.122445 0.011100 0.664781
v -0.134234 0.025308 0.657501
v -0.129827 0.024118 0.652078
v -0.119610 0.037506 0.660020
v -0.124867 0.039256 0.664851
v -0.122992 0.038429 0.664556
v -0.116825 0.037540 0.662038
v -0.088980 0.052840 0.660686
v -0.090543 0.059501 0.663764
v -0.121239 0.047206 0.640081
v -0.134014 0.044328 0.638161
v -0.138714 0.057179 0.641299
v -0.106656 0.068929 0.668777
v -0.102457 0.059863 0.665483
v -0.098843 0.061925 0.665859
v -0.120722 0.046736 0.665077
v -0.120831 0.041121 0.662762
v -0.116693 0.043820 0.662056
v -0.116411 0.050172 0.664920
v -0.087147 0.109983 0.663774
v -0.083986 0.108009 0.674765
v -0.119905 0.009935 0.674623
v -0.121499 0.011369 0.671658
v -0.110563 0.079111 0.672336
v -0.142399 0.071303 0.647076
v -0.113570 0.089017 0.677263
v -0.085000 0.067200 0.646346
v -0.081084 0.065469 0.651915
v -0.080263 0.058812 0.651753
v -0.081937 0.058618 0.646217
v -0.108188 0.026381 0.667644
v -0.112082 0.026343 0.672008
v -0.110898 0.023207 0.673713
v -0.106144 0.022540 0.670147
v -0.130502 0.038388 0.666365
v -0.136207 0.036380 0.665358
v -0.132431 0.032944 0.666791
v -0.127172 0.035976 0.666547
v -0.138685 0.033381 0.660923
v -0.135147 0.028867 0.662727
v -0.106122 0.022985 0.662388
v -0.107832 0.016735 0.658414
v -0.117197 0.030194 0.649788
v -0.113819 0.033537 0.656262
v -0.113818 0.109307 0.649268
v -0.104660 0.114339 0.653153
v -0.098209 0.101003 0.651260
v -0.091457 0.088537 0.648457
v -0.085932 0.076162 0.646748
v -0.095132 0.070883 0.640383
v -0.092558 0.105562 0.654956
v -0.117363 0.038850 0.650903
v -0.122423 0.038550 0.644623
v -0.118479 0.041090 0.644783
v -0.106984 0.091497 0.679694
v -0.124132 0.014329 0.669168
v -0.154192 0.125198 0.657661
v -0.142577 0.129740 0.652372
v -0.141963 0.121012 0.651868
v -0.154843 0.115734 0.658729
v -0.117967 0.023503 0.674237
v -0.122845 0.019200 0.673319
v -0.084099 0.061356 0.663743
v -0.083828 0.055488 0.660332
v -0.080868 0.055883 0.657746
v -0.078680 0.060891 0.661914
v -0.100880 0.117795 0.656173
v -0.069402 0.080674 0.657653
v -0.075479 0.079689 0.649769
v -0.110687 0.125842 0.654724
v -0.118669 0.121774 0.650779
v -0.121622 0.130991 0.651992
v -0.102897 0.057394 0.638917
v -0.119862 0.103504 0.646939
v -0.124545 0.117041 0.649381
v -0.128357 0.127847 0.650772
v -0.130429 0.135945 0.651229
v -0.122828 0.138538 0.652669
v -0.112301 0.012476 0.658656
v -0.104154 0.012509 0.662934
v -0.123877 0.147561 0.651873
v -0.132466 0.144151 0.650947
v -0.132196 0.111923 0.648914
v -0.141707 0.105937 0.650145
v -0.127306 0.098981 0.646754
v -0.136239 0.091911 0.647313
v -0.112332 0.055410 0.633668
v -0.098611 0.010394 0.679595
v -0.101475 0.015527 0.670495
v -0.104305 0.019663 0.673515
v -0.099453 0.014059 0.681629
v -0.103438 0.018872 0.666169
v -0.103050 0.010592 0.667747
v -0.147862 0.085385 0.652302
v -0.116071 0.039033 0.659397
v -0.155586 0.099232 0.659353
v -0.157115 0.073912 0.657183
v -0.162728 0.082621 0.664730
v -0.164269 0.111341 0.668400
v -0.168232 0.094917 0.672723
v -0.162374 0.129861 0.665965
v -0.162097 0.120874 0.666168
v -0.168990 0.077356 0.674812
v -0.113644 0.012412 0.684849
v -0.109338 0.016288 0.684799
v -0.155332 0.133478 0.657469
v -0.136970 0.069339 0.685812
v -0.112121 0.099620 0.685064
v -0.116862 0.097520 0.682898
v -0.096837 0.110663 0.688127
v -0.105906 0.103287 0.688471
v -0.115317 0.007499 0.683313
v -0.096763 0.043819 0.655005
v -0.096147 0.044492 0.654231
v -0.150616 0.057071 0.692294
v -0.148753 0.052218 0.688951
v -0.155874 0.050331 0.677883
v -0.153498 0.049499 0.684777
v -0.157843 0.055488 0.688068
v -0.161301 0.056308 0.681230
v -0.120725 0.106000 0.689616
v -0.116975 0.107026 0.690310
v -0.093315 0.119674 0.667423
v -0.090281 0.116932 0.678213
v -0.138031 0.031915 0.654653
v -0.138769 0.038667 0.645482
v -0.134380 0.031807 0.648701
v -0.124607 0.027384 0.648184
v -0.116002 0.037174 0.656050
v -0.118021 0.037615 0.653840
v -0.135524 0.106670 0.698073
v -0.130378 0.099571 0.689231
v -0.139809 0.063242 0.678235
v -0.138168 0.061027 0.676782
v -0.110788 0.055967 0.665181
v -0.100774 0.045919 0.642663
v -0.108967 0.044760 0.638933
v -0.108994 0.048094 0.661472
v -0.110322 0.001640 0.679787
v -0.114067 0.004106 0.681941
v -0.129435 0.034794 0.644107
v -0.091882 0.066219 0.668195
v -0.097799 0.052460 0.642975
v -0.096359 0.044353 0.648131
v -0.070507 0.081479 0.666192
v -0.144474 0.138432 0.653094
v -0.108818 0.021024 0.676738
v -0.104612 0.017730 0.683600
v -0.100138 0.006834 0.677615
v -0.104922 0.002905 0.676936
v -0.097577 0.124189 0.681773
v -0.119891 0.095788 0.681509
v -0.163750 0.062924 0.673528
v -0.156217 0.054163 0.671519
v -0.108194 0.044131 0.659190
v -0.080287 0.072591 0.648880
v -0.090745 0.062201 0.640521
v -0.086949 0.053701 0.640849
v -0.091725 0.047904 0.642328
v -0.094200 0.043226 0.647792
v -0.098681 0.005342 0.682991
v -0.103308 0.001618 0.682057
v -0.108993 0.000408 0.684364
v -0.112584 0.002700 0.685943
v -0.113851 0.006903 0.686590
v -0.097056 0.008944 0.685235
v -0.098194 0.012287 0.687000
v -0.103109 0.016342 0.686848
v -0.096736 0.008719 0.690517
v -0.097717 0.003483 0.691773
v -0.109683 0.000216 0.698610
v -0.108117 -0.000767 0.692913
v -0.106282 -0.000960 0.695060
v -0.106771 -0.000397 0.700085
v -0.105785 -0.000120 0.705257
v -0.109181 0.000507 0.704346
v -0.102440 0.000073 0.692469
v -0.102336 0.000859 0.699325
v -0.098976 0.003493 0.699209
v -0.098908 0.003293 0.704866
v -0.101724 0.000779 0.705130
v -0.099048 0.002468 0.694554
v -0.102314 -0.000150 0.689898
v -0.106953 0.001352 0.708426
v -0.104741 0.000131 0.708039
v -0.101618 0.001335 0.708254
v -0.102660 0.002995 0.710675
v -0.112410 0.002436 0.690402
v -0.111693 0.002007 0.698689
v -0.110270 0.003561 0.704482
v -0.107867 0.004087 0.708495
v -0.111754 0.006042 0.699910
v -0.109969 0.006536 0.704413
v -0.107612 0.007342 0.707683
v -0.110026 0.009964 0.700702
v -0.108430 0.009391 0.704517
v -0.111885 0.010699 0.689634
v -0.113682 0.006821 0.688845
v -0.107486 0.009409 0.706997
v -0.103086 0.005219 0.710952
v -0.097206 0.006381 0.697558
v -0.098229 0.006441 0.704709
v -0.097205 0.008878 0.697589
v -0.097790 0.008803 0.704659
v -0.098650 0.005381 0.709134
v -0.099423 0.003291 0.707809
v -0.112254 0.011859 0.686718
v -0.107582 0.015753 0.686840
v -0.107110 0.014870 0.689523
v -0.106349 0.013218 0.700552
v -0.102751 0.015539 0.690128
v -0.098181 0.012175 0.691899
v -0.098412 0.011419 0.698917
v -0.101177 0.013470 0.699732
v -0.099284 0.010953 0.704366
v -0.101642 0.011981 0.704221
v -0.105551 0.011754 0.704721
v -0.100926 0.009881 0.708060
v -0.099245 0.007560 0.708930
v -0.104082 0.008158 0.709432
v -0.102105 0.011053 0.706980
v -0.104872 0.009805 0.707437
v -0.099107 0.021550 0.670343
v -0.093328 0.024672 0.670733
v -0.094725 0.023876 0.666966
v -0.099500 0.021186 0.666596
v -0.096585 0.008613 0.664522
v -0.100264 0.012876 0.667685
v -0.101011 0.012300 0.661751
v -0.096193 0.009331 0.657869
v -0.089707 0.008675 0.662080
v -0.089726 0.010511 0.655540
v -0.098811 0.012970 0.653356
v -0.103264 0.015593 0.658479
v -0.112793 0.032665 0.651613
v -0.109620 0.031730 0.645656
v -0.099926 0.041951 0.659376
v -0.096924 0.041318 0.656807
v -0.100774 0.017813 0.669514
v -0.101575 0.017095 0.664933
v -0.087929 0.027869 0.663410
v -0.092392 0.027939 0.666603
v -0.090232 0.026031 0.666882
v -0.085407 0.024347 0.664627
v -0.111347 0.036911 0.658695
v -0.105760 0.039928 0.659058
v -0.112846 0.034613 0.656001
v -0.084708 0.024793 0.658224
v -0.085361 0.020073 0.653177
v -0.095659 0.036380 0.644442
v -0.093177 0.038691 0.649689
v -0.103974 0.018850 0.662755
v -0.097520 0.025264 0.667726
v -0.102018 0.022608 0.666514
v -0.092189 0.015931 0.650925
v -0.083284 0.015090 0.658250
v -0.081341 0.016219 0.679081
v -0.081766 0.018638 0.667437
v -0.083930 0.023014 0.669333
v -0.082387 0.020960 0.680745
v -0.082691 0.020279 0.661616
v -0.083436 0.013565 0.664721
v -0.096305 0.021744 0.683484
v -0.090590 0.024790 0.683375
v -0.098570 0.017712 0.683154
v -0.103134 0.033733 0.642590
v -0.095239 0.008787 0.678511
v -0.098645 0.013706 0.681507
v -0.088152 0.025906 0.670187
v -0.085576 0.024408 0.682575
v -0.082864 0.012082 0.677688
v -0.088929 0.008205 0.675718
v -0.083106 0.011236 0.683819
v -0.088718 0.008029 0.683015
v -0.095262 0.008994 0.684903
v -0.098250 0.014027 0.685891
v -0.097981 0.018022 0.686015
v -0.081346 0.015367 0.684859
v -0.082093 0.020208 0.685597
v -0.085857 0.023834 0.685121
v -0.081870 0.018006 0.691546
v -0.083408 0.013672 0.692673
v -0.097722 0.018586 0.704144
v -0.097171 0.015598 0.698833
v -0.094892 0.014649 0.699809
v -0.095255 0.017302 0.704718
v -0.095357 0.011424 0.694262
v -0.093576 0.011950 0.696079
v -0.089015 0.011619 0.694820
v -0.090065 0.015138 0.700016
v -0.085644 0.016940 0.698929
v -0.086058 0.019119 0.704340
v -0.090300 0.017235 0.705724
v -0.085783 0.013756 0.695610
v -0.094524 0.019010 0.707891
v -0.095573 0.021249 0.708714
v -0.088769 0.009448 0.692144
v -0.098355 0.014386 0.689973
v -0.098762 0.018219 0.698108
v -0.098424 0.021795 0.703734
v -0.094956 0.024236 0.708328
v -0.098226 0.022441 0.697611
v -0.097327 0.024814 0.703103
v -0.094052 0.026268 0.706714
v -0.095674 0.026459 0.696870
v -0.094479 0.027909 0.702361
v -0.095557 0.022614 0.687129
v -0.098416 0.018903 0.688269
v -0.093466 0.027632 0.704788
v -0.091002 0.021389 0.710363
v -0.091052 0.024712 0.709797
v -0.090867 0.019847 0.709272
v -0.084041 0.018237 0.698294
v -0.085186 0.021171 0.704124
v -0.083091 0.020952 0.697834
v -0.084678 0.023572 0.704269
v -0.086729 0.022396 0.708524
v -0.087471 0.020848 0.708471
v -0.095329 0.021485 0.685475
v -0.090215 0.024039 0.685046
v -0.090371 0.024989 0.686337
v -0.090525 0.028110 0.696344
v -0.085563 0.024446 0.686828
v -0.082428 0.021462 0.690059
v -0.083325 0.023649 0.696819
v -0.085874 0.026833 0.696548
v -0.084273 0.025598 0.703525
v -0.085989 0.027428 0.701399
v -0.090578 0.029029 0.701490
v -0.086506 0.026358 0.707602
v -0.086525 0.024167 0.708521
v -0.090944 0.026390 0.708300
v -0.087212 0.027852 0.705108
v -0.090872 0.028113 0.705564
v -0.081039 0.031190 0.661448
v -0.075902 0.034188 0.662301
v -0.076658 0.035100 0.660197
v -0.080993 0.031572 0.658805
v -0.078808 0.021606 0.653568
v -0.081850 0.023599 0.656844
v -0.082657 0.025306 0.652245
v -0.080099 0.024508 0.647742
v -0.073064 0.021496 0.653248
v -0.074919 0.025456 0.645226
v -0.082297 0.028406 0.644653
v -0.084323 0.027693 0.650166
v -0.091726 0.039755 0.647947
v -0.088716 0.041446 0.642296
v -0.082493 0.027414 0.659552
v -0.082800 0.028378 0.656334
v -0.070734 0.038759 0.658557
v -0.074754 0.037660 0.661177
v -0.071468 0.036366 0.659536
v -0.067716 0.035034 0.657068
v -0.091574 0.044077 0.658039
v -0.087343 0.048553 0.658673
v -0.092169 0.040738 0.654008
v -0.068532 0.037507 0.652378
v -0.070199 0.034845 0.645510
v -0.077269 0.049252 0.645083
v -0.076938 0.051028 0.650808
v -0.084525 0.029126 0.655076
v -0.079587 0.035621 0.661773
v -0.083482 0.032064 0.659625
v -0.076875 0.031634 0.643032
v -0.068458 0.028361 0.647999
v -0.063050 0.022348 0.670375
v -0.065154 0.029306 0.655971
v -0.066982 0.033627 0.659505
v -0.063560 0.026486 0.672000
v -0.066099 0.031847 0.652842
v -0.067372 0.024993 0.653394
v -0.077804 0.027561 0.674789
v -0.072672 0.030049 0.674438
v -0.079578 0.023962 0.672756
v -0.082993 0.045353 0.640489
v -0.080488 0.051529 0.656525
v -0.077032 0.017300 0.670084
v -0.079382 0.020711 0.671628
v -0.070616 0.035204 0.661235
v -0.066830 0.029728 0.673502
v -0.065550 0.018561 0.668228
v -0.071582 0.016316 0.667287
v -0.064257 0.017664 0.674280
v -0.070366 0.015390 0.673992
v -0.075956 0.016676 0.676087
v -0.078293 0.020756 0.676649
v -0.078433 0.024157 0.676971
v -0.062022 0.022166 0.675447
v -0.062878 0.026016 0.675946
v -0.066873 0.029094 0.674551
v -0.061535 0.023324 0.679495
v -0.063741 0.018591 0.681455
v -0.073628 0.023876 0.695060
v -0.074569 0.021806 0.689480
v -0.073423 0.021357 0.689557
v -0.072233 0.022847 0.695196
v -0.074237 0.017946 0.683500
v -0.073092 0.018398 0.685238
v -0.069343 0.017345 0.683793
v -0.068286 0.019933 0.689908
v -0.063287 0.022579 0.687591
v -0.063315 0.024170 0.692631
v -0.067593 0.021602 0.695244
v -0.065015 0.019016 0.683463
v -0.070742 0.023758 0.698024
v -0.072228 0.024293 0.699127
v -0.069232 0.016016 0.681255
v -0.077726 0.021295 0.682013
v -0.076526 0.024071 0.689155
v -0.075714 0.026251 0.694789
v -0.073091 0.027746 0.698171
v -0.076194 0.027797 0.688208
v -0.075058 0.029019 0.693377
v -0.072717 0.030223 0.696475
v -0.074378 0.030493 0.687344
v -0.073176 0.031254 0.691908
v -0.076030 0.027969 0.678489
v -0.077844 0.024925 0.680240
v -0.071777 0.031419 0.694685
v -0.067462 0.024817 0.699677
v -0.067548 0.028987 0.698986
v -0.067545 0.023895 0.698205
v -0.062010 0.023394 0.686466
v -0.061693 0.025848 0.692755
v -0.061348 0.026041 0.685560
v -0.061162 0.028312 0.691789
v -0.063116 0.025987 0.696898
v -0.063818 0.025098 0.696510
v -0.076448 0.027342 0.676359
v -0.071850 0.029595 0.675340
v -0.071681 0.030080 0.676989
v -0.070130 0.032778 0.686328
v -0.066794 0.029714 0.676257
v -0.062518 0.027094 0.679662
v -0.062711 0.029141 0.685305
v -0.065476 0.031868 0.685810
v -0.062440 0.030690 0.690935
v -0.064798 0.031963 0.689873
v -0.069539 0.033272 0.690885
v -0.064251 0.030778 0.694683
v -0.062918 0.028599 0.696188
v -0.068301 0.031277 0.696935
v -0.065679 0.032221 0.693238
v -0.068824 0.032483 0.694820
v -0.083571 0.050955 0.658483
v -0.067627 0.043978 0.662900
v -0.064305 0.045654 0.665005
v -0.064114 0.046783 0.664247
v -0.068055 0.046029 0.662258
v -0.065661 0.042427 0.651612
v -0.068294 0.041660 0.655652
v -0.069378 0.045051 0.653226
v -0.066741 0.046387 0.649348
v -0.060742 0.044564 0.650315
v -0.061159 0.048427 0.648836
v -0.067641 0.049824 0.649280
v -0.070533 0.048410 0.652952
v -0.077937 0.062871 0.652386
v -0.075418 0.066648 0.649070
v -0.068651 0.075580 0.664659
v -0.072272 0.073388 0.668207
v -0.068061 0.066014 0.666261
v -0.064816 0.068491 0.663859
v -0.068760 0.042528 0.659514
v -0.070027 0.045187 0.658301
v -0.056535 0.052742 0.662293
v -0.060403 0.051009 0.664840
v -0.060145 0.048115 0.665008
v -0.055555 0.048864 0.663605
v -0.075602 0.069080 0.667724
v -0.078051 0.065924 0.665668
v -0.076314 0.062330 0.664357
v -0.071806 0.062974 0.665810
v -0.078191 0.060218 0.659368
v -0.055167 0.053614 0.658100
v -0.056589 0.053635 0.652148
v -0.063982 0.072406 0.654925
v -0.063746 0.071493 0.659824
v -0.070403 0.047162 0.657408
v -0.064897 0.049452 0.664425
v -0.067916 0.047583 0.662166
v -0.062273 0.052592 0.648413
v -0.055613 0.049015 0.653168
v -0.051984 0.040282 0.662896
v -0.053220 0.046686 0.659846
v -0.055388 0.047383 0.664096
v -0.053178 0.041780 0.665770
v -0.053892 0.049142 0.659233
v -0.055066 0.045126 0.654748
v -0.065967 0.039700 0.666683
v -0.061187 0.041878 0.668208
v -0.067397 0.037917 0.664166
v -0.069828 0.070513 0.649284
v -0.064468 0.035237 0.657718
v -0.066901 0.035917 0.661433
v -0.060063 0.046603 0.665500
v -0.056550 0.042521 0.667956
v -0.053604 0.037966 0.658877
v -0.059038 0.036600 0.655618
v -0.053617 0.034191 0.661923
v -0.059006 0.032843 0.659125
v -0.064893 0.032731 0.662075
v -0.066723 0.035286 0.664522
v -0.066753 0.037671 0.666667
v -0.051871 0.037571 0.665382
v -0.052803 0.039715 0.667428
v -0.056180 0.041501 0.668696
v -0.051821 0.034870 0.668284
v -0.054514 0.030917 0.667677
v -0.062709 0.029888 0.678255
v -0.063788 0.030995 0.674291
v -0.062847 0.030294 0.673994
v -0.062327 0.028934 0.677887
v -0.064088 0.031101 0.668653
v -0.062779 0.030378 0.669796
v -0.059828 0.030026 0.667528
v -0.059073 0.028572 0.672760
v -0.053875 0.030011 0.673204
v -0.053905 0.028658 0.677167
v -0.058402 0.027215 0.676327
v -0.055629 0.030042 0.668907
v -0.061131 0.027433 0.679974
v -0.061448 0.027652 0.681350
v -0.059941 0.030044 0.664967
v -0.066209 0.034553 0.669386
v -0.064806 0.032743 0.675996
v -0.063202 0.030810 0.680539
v -0.060651 0.029158 0.683015
v -0.064538 0.035241 0.676318
v -0.062849 0.032887 0.681516
v -0.060274 0.031330 0.683731
v -0.062600 0.037965 0.676787
v -0.061270 0.034970 0.681400
v -0.063564 0.040405 0.671041
v -0.065787 0.037679 0.670537
v -0.059715 0.032906 0.683126
v -0.057670 0.026450 0.681439
v -0.057311 0.028826 0.683252
v -0.057633 0.026088 0.679808
v -0.052757 0.030836 0.673236
v -0.052743 0.029390 0.678128
v -0.051688 0.032930 0.673852
v -0.052375 0.031231 0.679214
v -0.054310 0.027765 0.680881
v -0.055094 0.027181 0.679225
v -0.064552 0.040066 0.669018
v -0.060932 0.041404 0.669209
v -0.059458 0.041478 0.670976
v -0.058625 0.039288 0.676587
v -0.054800 0.040748 0.670095
v -0.052115 0.037970 0.669148
v -0.052053 0.035453 0.674892
v -0.054081 0.037963 0.676053
v -0.053057 0.033013 0.680276
v -0.054889 0.035398 0.680741
v -0.058113 0.036302 0.681229
v -0.055251 0.031249 0.682855
v -0.054570 0.029527 0.682444
v -0.057375 0.030868 0.683693
v -0.056036 0.033019 0.682860
v -0.057690 0.033115 0.683162
v -0.066965 0.075441 0.660970
v -0.142287 0.049936 0.667748
v -0.138087 0.052758 0.669077
v -0.135065 0.050395 0.685554
v -0.132336 0.052615 0.679352
v -0.140365 0.046235 0.687782
v -0.149278 0.041658 0.681734
v -0.145800 0.043946 0.686152
v -0.133834 0.053195 0.673266
v -0.147096 0.046521 0.668966
v -0.150784 0.042998 0.674663
v -0.141394 0.039395 0.668176
v -0.146266 0.035377 0.674004
v -0.146925 0.034170 0.681232
v -0.144287 0.039663 0.687301
v -0.140680 0.043133 0.689169
v -0.137327 0.045930 0.669238
v -0.133990 0.049160 0.671363
v -0.131337 0.051216 0.676762
v -0.130014 0.040931 0.670974
v -0.127557 0.030901 0.673801
v -0.125743 0.020134 0.691212
v -0.130877 0.024512 0.689210
v -0.129714 0.023603 0.686721
v -0.125403 0.019230 0.688735
v -0.134598 0.026482 0.685230
v -0.132582 0.026096 0.683890
v -0.131352 0.027557 0.678946
v -0.126747 0.023821 0.681229
v -0.127083 0.029293 0.676382
v -0.122876 0.027436 0.677925
v -0.122364 0.019858 0.682983
v -0.122214 0.016395 0.688183
v -0.118583 0.016668 0.684855
v -0.120944 0.017168 0.691198
v -0.133546 0.026411 0.676849
v -0.138601 0.031225 0.688693
v -0.131782 0.027044 0.691984
v -0.125275 0.022957 0.693935
v -0.119791 0.019825 0.693002
v -0.130038 0.031022 0.694049
v -0.123856 0.027261 0.694426
v -0.118771 0.024960 0.692868
v -0.126821 0.035152 0.693166
v -0.121664 0.030635 0.692872
v -0.134571 0.044185 0.689073
v -0.138228 0.038069 0.691109
v -0.118856 0.027744 0.691885
v -0.116032 0.016764 0.686944
v -0.114921 0.019952 0.688821
v -0.121649 0.030379 0.676159
v -0.118607 0.023630 0.679413
v -0.116875 0.026309 0.679173
v -0.120961 0.034468 0.676053
v -0.115706 0.028799 0.679988
v -0.114445 0.021303 0.682322
v -0.117010 0.019924 0.681505
v -0.135836 0.047635 0.687870
v -0.132511 0.050726 0.682731
v -0.131654 0.048031 0.684198
v -0.123275 0.038949 0.688209
v -0.128870 0.047974 0.679048
v -0.128519 0.044919 0.674075
v -0.120342 0.037523 0.678277
v -0.120965 0.039515 0.682615
v -0.115857 0.031516 0.682563
v -0.117042 0.032897 0.685094
v -0.118979 0.032445 0.689623
v -0.114365 0.027140 0.685819
v -0.113469 0.024164 0.683735
v -0.115378 0.024732 0.689640
v -0.115760 0.029287 0.686746
v -0.116770 0.028164 0.689654
v -0.075018 0.078443 0.670726
v -0.079570 0.073853 0.671030
v -0.081388 0.079921 0.673861
v -0.085377 0.087809 0.678179
v -0.084889 0.098505 0.679545
v -0.091398 0.084567 0.677351
v -0.086922 0.076635 0.673029
v -0.084315 0.068358 0.668484
v -0.100922 0.088677 0.678671
f 780 781 779
f 779 781 782
f 783 784 786
f 786 784 785
f 787 782 788
f 788 782 781
f 790 791 789
f 789 791 787
f 792 790 794
f 794 790 793
f 796 797 795
f 795 797 798
f 800 801 799
f 799 801 802
f 804 805 803
f 803 805 806
f 808 809 807
f 807 809 810
f 811 812 814
f 814 812 813
f 815 816 818
f 818 816 817
f 819 820 784
f 784 820 821
f 784 821 785
f 785 821 822
f 823 812 824
f 824 812 811
f 826 827 825
f 825 827 828
f 830 831 829
f 829 831 832
f 834 830 833
f 833 830 829
f 836 837 835
f 835 837 838
f 839 840 782
f 782 840 779
f 842 843 841
f 841 843 844
f 846 847 845
f 845 847 848
f 850 851 849
f 849 851 852
f 854 855 853
f 853 855 856
f 831 857 832
f 832 857 858
f 860 861 859
f 859 861 862
f 863 864 830
f 830 864 831
f 835 838 865
f 865 838 866
f 867 868 821
f 821 868 822
f 821 820 867
f 867 820 869
f 818 817 870
f 870 817 871
f 872 848 842
f 842 848 847
f 791 839 787
f 787 839 782
f 803 806 847
f 847 806 873
f 874 803 846
f 846 803 847
f 876 877 875
f 875 877 878
f 879 880 882
f 882 880 881
f 884 808 883
f 883 808 807
f 829 832 885
f 885 832 886
f 832 858 886
f 886 858 887
f 889 890 888
f 888 890 891
f 893 783 892
f 892 783 894
f 893 819 783
f 783 819 784
f 814 813 889
f 889 813 895
f 813 896 895
f 895 896 897
f 812 898 813
f 813 898 896
f 812 823 898
f 898 823 899
f 903 904 902
f 902 904 905
f 906 907 792
f 792 907 908
f 811 909 824
f 824 909 910
f 911 872 841
f 841 872 842
f 912 913 915
f 915 913 914
f 917 918 916
f 916 918 919
f 855 920 856
f 856 920 921
f 922 923 798
f 798 923 924
f 926 927 925
f 925 927 850
f 929 930 928
f 928 930 931
f 860 879 861
f 861 879 882
f 879 860 933
f 933 860 932
f 934 935 836
f 836 935 837
f 936 846 925
f 925 846 845
f 937 924 793
f 793 924 794
f 846 936 874
f 874 936 938
f 907 844 908
f 908 844 843
f 940 941 939
f 939 941 942
f 944 945 943
f 943 945 946
f 948 949 947
f 947 949 950
f 952 949 951
f 951 949 948
f 954 955 953
f 953 955 956
f 958 959 957
f 957 959 802
f 960 961 799
f 799 961 962
f 859 963 860
f 860 963 932
f 964 965 966
f 966 965 922
f 936 849 938
f 938 849 967
f 968 913 935
f 935 913 837
f 947 950 917
f 917 950 918
f 925 850 936
f 936 850 849
f 970 971 969
f 969 971 972
f 945 944 827
f 827 944 973
f 974 968 828
f 828 968 935
f 975 976 978
f 978 976 977
f 799 802 960
f 960 802 959
f 924 937 798
f 798 937 795
f 960 959 859
f 859 959 963
f 979 963 958
f 958 963 959
f 980 981 861
f 861 981 862
f 983 984 982
f 982 984 863
f 985 800 962
f 962 800 799
f 957 802 986
f 986 802 801
f 986 987 957
f 957 987 983
f 987 988 983
f 983 988 984
f 990 984 989
f 989 984 988
f 957 983 958
f 958 983 982
f 991 954 866
f 866 954 992
f 864 863 990
f 990 863 984
f 971 995 996
f 995 997 996
f 996 997 998
f 997 796 998
f 998 796 795
f 797 999 798
f 798 999 922
f 1000 1001 1003
f 1003 1001 1002
f 953 1004 954
f 954 1004 992
f 1005 865 992
f 992 865 866
f 998 795 1006
f 1006 795 937
f 912 991 838
f 838 991 866
f 916 1007 929
f 929 1007 930
f 971 970 988
f 988 970 989
f 1008 972 996
f 996 972 971
f 1009 1010 1006
f 1006 1010 1008
f 1011 1012 869
f 869 1012 867
f 1013 1014 871
f 871 1014 870
f 1008 1010 1012
f 1012 1010 1015
f 825 1016 826
f 826 1016 1017
f 1018 969 1013
f 1013 969 1014
f 783 786 894
f 894 786 1019
f 1020 1021 967
f 967 1021 938
f 1022 1023 876
f 876 1023 877
f 934 1024 825
f 825 1024 1016
f 854 1025 855
f 855 1025 1026
f 1028 903 1027
f 1027 903 902
f 1030 1031 1029
f 1029 1031 1032
f 889 888 814
f 814 888 1033
f 1034 811 1033
f 1033 811 814
f 1035 1036 932
f 932 1036 933
f 841 947 911
f 911 947 917
f 844 948 841
f 841 948 947
f 951 948 907
f 907 948 844
f 907 906 951
f 951 906 1037
f 906 1038 1037
f 1037 1038 1039
f 991 912 1040
f 1040 912 915
f 1041 1042 964
f 964 1042 965
f 890 1043 891
f 891 1043 1044
f 789 1045 1046
f 1012 1011 1008
f 1008 1011 972
f 931 1047 848
f 848 1047 845
f 953 956 943
f 943 956 919
f 928 931 872
f 872 931 848
f 1049 999 1048
f 1048 999 985
f 1047 931 1050
f 1050 931 930
f 899 823 887
f 887 823 886
f 825 828 934
f 934 828 935
f 835 1051 836
f 836 1051 1052
f 923 1053 1038
f 1038 1053 1039
f 1054 927 921
f 921 927 856
f 926 1047 853
f 853 1047 1050
f 985 1055 1048
f 1048 1055 1056
f 973 974 827
f 827 974 828
f 837 913 838
f 838 913 912
f 861 882 980
f 980 882 1057
f 927 926 856
f 856 926 853
f 1025 1056 1026
f 1026 1056 1055
f 961 960 862
f 862 960 859
f 826 1017 1059
f 1059 1017 1060
f 1005 1001 1061
f 1061 1001 1000
f 1001 1004 1002
f 1002 1004 946
f 1059 1060 1002
f 1002 1060 1003
f 943 946 953
f 953 946 1004
f 1042 1041 916
f 916 1041 1007
f 792 794 906
f 906 794 1038
f 998 1006 996
f 996 1006 1008
f 865 1005 1062
f 1062 1005 1061
f 1038 794 923
f 923 794 924
f 1022 876 1036
f 1036 876 933
f 836 1052 934
f 934 1052 1024
f 885 1063 829
f 829 1063 833
f 1021 1064 938
f 938 1064 874
f 1012 1015 867
f 867 1015 868
f 824 910 885
f 885 910 1063
f 1031 1030 1027
f 1027 1030 1028
f 1064 804 874
f 874 804 803
f 884 883 1065
f 1065 883 1066
f 1050 930 1067
f 1067 930 1007
f 916 929 917
f 917 929 911
f 961 1068 939
f 939 1068 940
f 1069 1070 1055
f 1055 1070 1071
f 929 928 911
f 911 928 872
f 1040 1053 955
f 955 1053 965
f 922 965 923
f 923 965 1053
f 1051 835 1062
f 1062 835 865
f 952 914 968
f 968 914 913
f 889 895 890
f 890 895 816
f 895 897 816
f 816 897 901
f 890 816 1043
f 1043 816 815
f 1065 1066 1032
f 1032 1066 1029
f 1006 937 1009
f 1009 937 793
f 1001 1005 1004
f 1004 1005 992
f 925 845 926
f 926 845 1047
f 1002 946 1059
f 1059 946 945
f 977 941 978
f 978 941 940
f 823 824 886
f 886 824 885
f 1059 945 826
f 826 945 827
f 939 942 1069
f 1069 942 1070
f 816 901 817
f 1071 1072 1055
f 1055 1072 1026
f 1062 1061 1074
f 1074 1061 1073
f 1062 1074 1051
f 1051 1074 1075
f 1052 1051 1076
f 1076 1051 1075
f 1024 1052 1077
f 1077 1052 1076
f 1061 1000 1073
f 1073 1000 1078
f 1000 1003 1078
f 1078 1003 1079
f 1079 1003 1080
f 1080 1003 1060
f 1081 1082 1078
f 1078 1082 1073
f 1084 1085 1083
f 1083 1085 1086
f 1087 1088 1086
f 1086 1088 1083
f 1086 1085 1090
f 1090 1085 1089
f 1091 1092 1090
f 1090 1092 1093
f 1089 1094 1090
f 1090 1094 1091
f 1095 1082 1089
f 1089 1082 1094
f 1093 1087 1090
f 1090 1087 1086
f 1096 1097 1099
f 1099 1097 1098
f 1097 1096 1087
f 1087 1096 1088
f 1089 1085 1095
f 1095 1085 1084
f 1084 1075 1095
f 1095 1075 1074
f 1084 1100 1075
f 1075 1100 1076
f 1083 1101 1084
f 1084 1101 1100
f 1101 1083 1102
f 1102 1083 1088
f 1082 1095 1073
f 1073 1095 1074
f 1096 1103 1088
f 1088 1103 1102
f 1101 1102 1104
f 1104 1102 1105
f 1102 1103 1105
f 1105 1103 1106
f 1104 1105 1107
f 1107 1105 1108
f 1107 1109 1104
f 1104 1109 1110
f 1111 1108 1106
f 1106 1108 1105
f 1101 1104 1100
f 1100 1104 1110
f 1100 1110 1076
f 1076 1110 1077
f 1103 1096 1112
f 1112 1096 1099
f 1091 1094 1113
f 1113 1094 1082
f 1113 1114 1091
f 1091 1114 1092
f 1082 1081 1113
f 1113 1081 1115
f 1114 1113 1116
f 1116 1113 1115
f 1114 1117 1092
f 1092 1117 1118
f 1024 1077 1016
f 1016 1077 1119
f 1017 1120 1060
f 1060 1120 1080
f 1120 1017 1119
f 1119 1017 1016
f 1119 1109 1120
f 1120 1109 1121
f 1109 1107 1121
f 1121 1107 1122
f 1120 1121 1080
f 1080 1121 1123
f 1119 1077 1109
f 1109 1077 1110
f 1124 1079 1123
f 1123 1079 1080
f 1124 1081 1079
f 1079 1081 1078
f 1125 1115 1124
f 1124 1115 1081
f 1125 1124 1126
f 1126 1124 1123
f 1127 1125 1128
f 1128 1125 1126
f 1121 1122 1123
f 1123 1122 1126
f 1122 1129 1126
f 1126 1129 1128
f 1115 1125 1116
f 1116 1125 1127
f 1131 1116 1130
f 1130 1116 1127
f 1130 1133 1132
f 1132 1133 1134
f 1130 1127 1133
f 1133 1127 1128
f 1130 1132 1131
f 1131 1132 1112
f 1131 1112 1117
f 1117 1112 1099
f 1117 1114 1131
f 1131 1114 1116
f 1107 1108 1122
f 1122 1108 1129
f 1134 1129 1111
f 1111 1129 1108
f 1134 1133 1129
f 1129 1133 1128
f 1132 1134 1106
f 1106 1134 1111
f 1106 1103 1132
f 1132 1103 1112
f 1087 1093 1097
f 1097 1093 1098
f 1098 1118 1099
f 1099 1118 1117
f 1098 1093 1118
f 1118 1093 1092
f 915 914 1039
f 1039 914 1037
f 918 944 919
f 919 944 943
f 950 949 973
f 973 949 974
f 949 952 974
f 974 952 968
f 956 955 1042
f 1042 955 965
f 950 973 918
f 918 973 944
f 915 1039 1040
f 1040 1039 1053
f 956 1042 919
f 919 1042 916
f 1040 955 991
f 991 955 954
f 914 952 1037
f 1037 952 951
f 1136 1137 1135
f 1135 1137 1138
f 1140 1141 1139
f 1139 1141 1142
f 1139 1142 1143
f 1143 1142 1144
f 1145 1146 1148
f 1148 1146 1147
f 854 1149 1025
f 1025 1149 1150
f 1151 1152 1140
f 1140 1152 1141
f 1154 1155 1153
f 1153 1155 1156
f 1067 1007 1158
f 1158 1007 1157
f 1159 1157 1041
f 1041 1157 1007
f 1161 1162 1160
f 1160 1162 1163
f 1164 1146 1152
f 1152 1146 1141
f 854 1067 1149
f 1149 1067 1158
f 1155 1154 1137
f 1137 1154 1165
f 1166 1164 1138
f 1138 1164 1152
f 1167 1161 1144
f 1144 1161 1168
f 1170 1171 1169
f 1169 1171 1172
f 1161 1160 1168
f 1168 1160 1173
f 1174 1143 1168
f 1168 1143 1144
f 1167 1144 1145
f 1145 1144 1142
f 1135 1175 1136
f 1136 1175 1176
f 1151 1177 1135
f 1135 1177 1175
f 1167 1145 1178
f 1178 1145 1148
f 1160 1163 1153
f 1153 1163 1150
f 1135 1138 1151
f 1151 1138 1152
f 1139 1179 1140
f 1140 1179 1180
f 1165 1166 1137
f 1137 1166 1138
f 1141 1146 1142
f 1142 1146 1145
f 1136 1176 1181
f 1181 1176 1182
f 1174 1170 1183
f 1183 1170 1169
f 1170 1173 1171
f 1171 1173 1156
f 1171 1181 1172
f 1172 1181 1182
f 1153 1156 1160
f 1160 1156 1173
f 1143 1174 1184
f 1184 1174 1183
f 1140 1180 1151
f 1151 1180 1177
f 1049 1048 1178
f 1178 1048 1162
f 1179 1139 1184
f 1184 1139 1143
f 1159 1147 1164
f 1164 1147 1146
f 1170 1174 1173
f 1173 1174 1168
f 1171 1156 1181
f 1181 1156 1155
f 1181 1155 1136
f 1136 1155 1137
f 1184 1183 1186
f 1186 1183 1185
f 1184 1186 1179
f 1179 1186 1187
f 1179 1187 1180
f 1180 1187 1188
f 1180 1188 1177
f 1177 1188 1189
f 1183 1169 1185
f 1185 1169 1190
f 1169 1172 1190
f 1190 1172 1191
f 1172 1182 1191
f 1191 1182 1192
f 1193 1194 1190
f 1190 1194 1185
f 1196 1197 1195
f 1195 1197 1198
f 1199 1200 1196
f 1196 1200 1197
f 1197 1200 1202
f 1202 1200 1201
f 1203 1204 1202
f 1202 1204 1205
f 1201 1206 1202
f 1202 1206 1203
f 1205 1198 1202
f 1202 1198 1197
f 1198 1207 1195
f 1195 1207 1208
f 1201 1200 1209
f 1209 1200 1199
f 1199 1187 1209
f 1209 1187 1186
f 1199 1210 1187
f 1187 1210 1188
f 1196 1211 1199
f 1199 1211 1210
f 1212 1211 1195
f 1195 1211 1196
f 1209 1194 1201
f 1201 1194 1206
f 1194 1209 1185
f 1185 1209 1186
f 1213 1212 1208
f 1208 1212 1195
f 1211 1212 1214
f 1214 1212 1215
f 1212 1213 1215
f 1215 1213 1216
f 1214 1215 1217
f 1217 1215 1218
f 1217 1219 1214
f 1214 1219 1220
f 1216 1221 1215
f 1215 1221 1218
f 1214 1220 1211
f 1211 1220 1210
f 1210 1220 1188
f 1188 1220 1189
f 1213 1208 1223
f 1223 1208 1222
f 1208 1207 1222
f 1222 1207 1224
f 1203 1206 1225
f 1225 1206 1194
f 1204 1203 1226
f 1226 1203 1225
f 1194 1193 1225
f 1225 1193 1227
f 1225 1227 1226
f 1226 1227 1228
f 1229 1230 1226
f 1226 1230 1204
f 1224 1230 1222
f 1222 1230 1229
f 1177 1189 1175
f 1175 1189 1231
f 1176 1232 1182
f 1182 1232 1192
f 1232 1176 1231
f 1231 1176 1175
f 1231 1219 1232
f 1232 1219 1233
f 1219 1217 1233
f 1233 1217 1234
f 1232 1233 1192
f 1192 1233 1235
f 1219 1231 1220
f 1220 1231 1189
f 1236 1191 1235
f 1235 1191 1192
f 1236 1193 1191
f 1191 1193 1190
f 1236 1237 1193
f 1193 1237 1227
f 1237 1236 1238
f 1238 1236 1235
f 1239 1237 1240
f 1240 1237 1238
f 1233 1234 1235
f 1235 1234 1238
f 1234 1241 1238
f 1238 1241 1240
f 1237 1239 1227
f 1227 1239 1228
f 1243 1228 1242
f 1242 1228 1239
f 1242 1245 1244
f 1244 1245 1246
f 1242 1239 1245
f 1245 1239 1240
f 1242 1244 1243
f 1243 1244 1223
f 1243 1223 1229
f 1229 1223 1222
f 1229 1226 1243
f 1243 1226 1228
f 1217 1218 1234
f 1234 1218 1241
f 1246 1241 1221
f 1221 1241 1218
f 1246 1245 1241
f 1241 1245 1240
f 1244 1246 1216
f 1216 1246 1221
f 1216 1213 1244
f 1244 1213 1223
f 1198 1205 1207
f 1207 1205 1224
f 1224 1205 1230
f 1230 1205 1204
f 1148 1147 966
f 966 1147 964
f 1149 1154 1150
f 1150 1154 1153
f 1158 1157 1165
f 1165 1157 1166
f 1157 1159 1166
f 1166 1159 1164
f 1163 1162 1056
f 1056 1162 1048
f 1158 1165 1149
f 1149 1165 1154
f 1178 1148 1049
f 1049 1148 966
f 1163 1056 1150
f 1150 1056 1025
f 1178 1162 1167
f 1167 1162 1161
f 1147 1159 964
f 964 1159 1041
f 999 1049 922
f 922 1049 966
f 999 797 985
f 985 797 800
f 797 796 800
f 800 796 801
f 796 997 801
f 801 997 986
f 1247 1248 1250
f 1250 1248 1249
f 1252 1253 1251
f 1251 1253 1254
f 1251 1254 1255
f 1255 1254 1256
f 1258 1259 1257
f 1257 1259 1260
f 1261 1262 1252
f 1252 1262 1253
f 1264 1265 1263
f 1263 1265 1266
f 1267 1268 855
f 855 1268 920
f 1269 1267 1026
f 1026 1267 855
f 1271 1272 1270
f 1270 1272 1273
f 1274 1258 1262
f 1262 1258 1253
f 1264 1275 1265
f 1265 1275 1249
f 1276 1274 1250
f 1250 1274 1262
f 1277 1271 1256
f 1256 1271 1278
f 1279 1280 1282
f 1282 1280 1281
f 1271 1270 1278
f 1278 1270 1283
f 1284 1255 1278
f 1278 1255 1256
f 1277 1256 1257
f 1257 1256 1254
f 1247 1285 1248
f 1248 1285 1286
f 1261 1287 1247
f 1247 1287 1285
f 1257 1260 1277
f 1277 1260 1288
f 1270 1273 1263
f 1263 1273 1289
f 1261 1247 1262
f 1262 1247 1250
f 1251 1290 1252
f 1252 1290 1291
f 1275 1276 1249
f 1249 1276 1250
f 1253 1258 1254
f 1254 1258 1257
f 1248 1286 1292
f 1292 1286 1293
f 1284 1280 1294
f 1294 1280 1279
f 1281 1280 1266
f 1266 1280 1283
f 1292 1293 1281
f 1281 1293 1282
f 1263 1266 1270
f 1270 1266 1283
f 1255 1284 1295
f 1295 1284 1294
f 1252 1291 1261
f 1261 1291 1287
f 1288 1070 1272
f 1272 1070 942
f 1290 1251 1295
f 1295 1251 1255
f 1269 1259 1274
f 1274 1259 1258
f 1280 1284 1283
f 1283 1284 1278
f 1281 1266 1292
f 1292 1266 1265
f 1292 1265 1248
f 1248 1265 1249
f 1295 1294 1297
f 1297 1294 1296
f 1295 1297 1290
f 1290 1297 1298
f 1290 1298 1291
f 1291 1298 1299
f 1291 1299 1287
f 1287 1299 1300
f 1294 1279 1296
f 1296 1279 1301
f 1279 1282 1301
f 1301 1282 1302
f 1302 1282 1303
f 1303 1282 1293
f 1304 1305 1301
f 1301 1305 1296
f 1307 1308 1306
f 1306 1308 1309
f 1310 1311 1307
f 1307 1311 1308
f 1308 1311 1313
f 1313 1311 1312
f 1314 1315 1313
f 1313 1315 1316
f 1312 1317 1313
f 1313 1317 1314
f 1316 1309 1313
f 1313 1309 1308
f 1318 1319 1309
f 1309 1319 1306
f 1311 1310 1312
f 1312 1310 1320
f 1310 1298 1320
f 1320 1298 1297
f 1310 1321 1298
f 1298 1321 1299
f 1307 1322 1310
f 1310 1322 1321
f 1322 1307 1323
f 1323 1307 1306
f 1312 1320 1317
f 1317 1320 1305
f 1305 1320 1296
f 1296 1320 1297
f 1319 1324 1306
f 1306 1324 1323
f 1325 1322 1326
f 1326 1322 1323
f 1324 1327 1323
f 1323 1327 1326
f 1328 1325 1329
f 1329 1325 1326
f 1325 1328 1331
f 1331 1328 1330
f 1327 1332 1326
f 1326 1332 1329
f 1322 1325 1321
f 1321 1325 1331
f 1321 1331 1299
f 1299 1331 1300
f 1324 1319 1334
f 1334 1319 1333
f 1319 1318 1333
f 1333 1318 1335
f 1314 1317 1336
f 1336 1317 1305
f 1315 1314 1337
f 1337 1314 1336
f 1305 1304 1336
f 1336 1304 1338
f 1337 1336 1339
f 1339 1336 1338
f 1337 1340 1315
f 1315 1340 1341
f 1335 1341 1333
f 1333 1341 1340
f 1287 1300 1285
f 1285 1300 1342
f 1286 1343 1293
f 1293 1343 1303
f 1343 1286 1342
f 1342 1286 1285
f 1342 1330 1343
f 1343 1330 1344
f 1330 1328 1344
f 1344 1328 1345
f 1343 1344 1303
f 1303 1344 1346
f 1342 1300 1330
f 1330 1300 1331
f 1347 1302 1346
f 1346 1302 1303
f 1347 1304 1302
f 1302 1304 1301
f 1348 1338 1347
f 1347 1338 1304
f 1348 1347 1349
f 1349 1347 1346
f 1350 1348 1351
f 1351 1348 1349
f 1344 1345 1346
f 1346 1345 1349
f 1345 1352 1349
f 1349 1352 1351
f 1348 1350 1338
f 1338 1350 1339
f 1354 1339 1353
f 1353 1339 1350
f 1353 1356 1355
f 1355 1356 1357
f 1353 1350 1356
f 1356 1350 1351
f 1353 1355 1354
f 1354 1355 1334
f 1354 1334 1340
f 1340 1334 1333
f 1340 1337 1354
f 1354 1337 1339
f 1328 1329 1345
f 1345 1329 1352
f 1357 1352 1332
f 1332 1352 1329
f 1357 1356 1352
f 1352 1356 1351
f 1357 1332 1355
f 1355 1332 1327
f 1327 1324 1355
f 1355 1324 1334
f 1309 1316 1318
f 1318 1316 1335
f 1335 1316 1341
f 1341 1316 1315
f 1259 1072 1260
f 1260 1072 1071
f 1358 1264 1289
f 1289 1264 1263
f 1268 1267 1275
f 1275 1267 1276
f 1267 1269 1276
f 1276 1269 1274
f 941 1273 942
f 942 1273 1272
f 1358 1268 1264
f 1264 1268 1275
f 1260 1071 1288
f 1288 1071 1070
f 1273 941 1289
f 1289 941 977
f 1272 1271 1288
f 1288 1271 1277
f 1259 1269 1072
f 1072 1269 1026
f 1360 1361 1359
f 1359 1361 1362
f 1364 1365 1363
f 1363 1365 1366
f 1363 1366 1367
f 1367 1366 1368
f 1370 1371 1369
f 1369 1371 1372
f 1373 1374 1376
f 1376 1374 1375
f 1377 1378 1364
f 1364 1378 1365
f 1379 1380 1382
f 1382 1380 1381
f 1383 1384 1386
f 1386 1384 1385
f 1387 1385 978
f 978 1385 1384
f 1388 1389 1391
f 1391 1389 1390
f 1378 1392 1365
f 1365 1392 1370
f 1374 1383 1375
f 1375 1383 1386
f 1380 1393 1381
f 1381 1393 1361
f 1394 1392 1362
f 1362 1392 1378
f 1389 1396 1395
f 1395 1396 1368
f 1398 1399 1397
f 1397 1399 1400
f 1388 1401 1389
f 1389 1401 1396
f 1402 1367 1396
f 1396 1367 1368
f 1395 1368 1369
f 1369 1368 1366
f 1359 1403 1360
f 1360 1403 1404
f 1377 1405 1359
f 1359 1405 1403
f 1369 1372 1395
f 1395 1372 1406
f 1379 1388 1376
f 1376 1388 1391
f 1359 1362 1377
f 1377 1362 1378
f 1363 1407 1364
f 1364 1407 1408
f 1393 1394 1361
f 1361 1394 1362
f 1365 1370 1366
f 1366 1370 1369
f 1360 1404 1409
f 1409 1404 1410
f 1402 1398 1411
f 1411 1398 1397
f 1399 1398 1382
f 1382 1398 1401
f 1409 1410 1399
f 1399 1410 1400
f 1388 1379 1401
f 1401 1379 1382
f 1367 1402 1412
f 1412 1402 1411
f 1364 1408 1377
f 1377 1408 1405
f 981 980 1406
f 1406 980 1390
f 1407 1363 1412
f 1412 1363 1367
f 1387 1371 1392
f 1392 1371 1370
f 1398 1402 1401
f 1401 1402 1396
f 1409 1399 1381
f 1381 1399 1382
f 1360 1409 1361
f 1361 1409 1381
f 1412 1411 1414
f 1414 1411 1413
f 1412 1414 1407
f 1407 1414 1415
f 1407 1415 1408
f 1408 1415 1416
f 1408 1416 1405
f 1405 1416 1417
f 1411 1397 1413
f 1413 1397 1418
f 1397 1400 1418
f 1418 1400 1419
f 1419 1400 1420
f 1420 1400 1410
f 1422 1413 1421
f 1421 1413 1418
f 1423 1424 1426
f 1426 1424 1425
f 1427 1428 1424
f 1424 1428 1425
f 1425 1428 1430
f 1430 1428 1429
f 1430 1431 1433
f 1433 1431 1432
f 1429 1434 1430
f 1430 1434 1431
f 1433 1426 1430
f 1430 1426 1425
f 1426 1435 1423
f 1423 1435 1436
f 1428 1427 1429
f 1429 1427 1437
f 1427 1415 1437
f 1437 1415 1414
f 1427 1438 1415
f 1415 1438 1416
f 1439 1438 1424
f 1424 1438 1427
f 1440 1439 1423
f 1423 1439 1424
f 1429 1437 1434
f 1434 1437 1422
f 1422 1437 1413
f 1413 1437 1414
f 1441 1440 1436
f 1436 1440 1423
f 1442 1439 1443
f 1443 1439 1440
f 1441 1444 1440
f 1440 1444 1443
f 1445 1442 1446
f 1446 1442 1443
f 1442 1445 1448
f 1448 1445 1447
f 1444 1449 1443
f 1443 1449 1446
f 1439 1442 1438
f 1438 1442 1448
f 1438 1448 1416
f 1416 1448 1417
f 1436 1450 1441
f 1441 1450 1451
f 1436 1435 1450
f 1450 1435 1452
f 1431 1434 1453
f 1453 1434 1422
f 1431 1453 1432
f 1432 1453 1454
f 1453 1422 1455
f 1455 1422 1421
f 1454 1453 1456
f 1456 1453 1455
f 1457 1458 1454
f 1454 1458 1432
f 1452 1458 1450
f 1450 1458 1457
f 1405 1417 1403
f 1403 1417 1459
f 1404 1460 1410
f 1410 1460 1420
f 1459 1460 1403
f 1403 1460 1404
f 1447 1461 1459
f 1459 1461 1460
f 1445 1462 1447
f 1447 1462 1461
f 1460 1461 1420
f 1420 1461 1463
f 1459 1417 1447
f 1447 1417 1448
f 1464 1419 1463
f 1463 1419 1420
f 1419 1464 1418
f 1418 1464 1421
f 1464 1465 1421
f 1421 1465 1455
f 1465 1464 1466
f 1466 1464 1463
f 1467 1465 1468
f 1468 1465 1466
f 1461 1462 1463
f 1463 1462 1466
f 1462 1469 1466
f 1466 1469 1468
f 1465 1467 1455
f 1455 1467 1456
f 1471 1456 1470
f 1470 1456 1467
f 1470 1473 1472
f 1472 1473 1474
f 1470 1467 1473
f 1473 1467 1468
f 1470 1472 1471
f 1471 1472 1451
f 1471 1451 1457
f 1457 1451 1450
f 1457 1454 1471
f 1471 1454 1456
f 1462 1445 1469
f 1469 1445 1446
f 1474 1469 1449
f 1449 1469 1446
f 1474 1473 1469
f 1469 1473 1468
f 1472 1474 1444
f 1444 1474 1449
f 1444 1441 1472
f 1472 1441 1451
f 1426 1433 1435
f 1435 1433 1452
f 1452 1433 1458
f 1458 1433 1432
f 1371 940 1372
f 1372 940 1068
f 1376 1375 1379
f 1379 1375 1380
f 1393 1386 1394
f 1394 1386 1385
f 1385 1387 1394
f 1394 1387 1392
f 1475 1373 1391
f 1391 1373 1376
f 1375 1386 1380
f 1380 1386 1393
f 1372 1068 1406
f 1406 1068 981
f 1406 1390 1395
f 1395 1390 1389
f 1371 1387 940
f 940 1387 978
f 883 807 1476
f 1476 807 1477
f 1046 904 1479
f 1479 904 1478
f 904 903 1478
f 1478 903 1480
f 1030 1481 1028
f 1028 1481 1482
f 810 1046 1483
f 1483 1046 1479
f 1066 883 1484
f 1484 883 1476
f 807 810 1477
f 1477 810 1483
f 1485 1029 1484
f 1484 1029 1066
f 1028 1482 903
f 903 1482 1480
f 1481 1030 1485
f 1485 1030 1029
f 1484 1486 1485
f 1485 1486 1487
f 1485 1487 1481
f 1481 1487 1488
f 1481 1488 1482
f 1482 1488 1489
f 1482 1489 1480
f 1480 1489 1490
f 1484 1476 1486
f 1486 1476 1491
f 1476 1477 1491
f 1491 1477 1492
f 1477 1483 1492
f 1492 1483 1493
f 1495 1486 1494
f 1494 1486 1491
f 1497 1498 1496
f 1496 1498 1499
f 1500 1501 1497
f 1497 1501 1498
f 1502 1503 1501
f 1501 1503 1498
f 1502 1504 1503
f 1503 1504 1505
f 1506 1499 1503
f 1503 1499 1498
f 1499 1506 1507
f 1507 1506 1508
f 1507 1509 1499
f 1499 1509 1496
f 1502 1501 1510
f 1510 1501 1500
f 1500 1488 1510
f 1510 1488 1487
f 1500 1511 1488
f 1488 1511 1489
f 1497 1512 1500
f 1500 1512 1511
f 1512 1497 1513
f 1513 1497 1496
f 1502 1510 1504
f 1504 1510 1495
f 1495 1510 1486
f 1486 1510 1487
f 1509 1514 1496
f 1496 1514 1513
f 1515 1512 1516
f 1516 1512 1513
f 1514 1517 1513
f 1513 1517 1516
f 1518 1515 1519
f 1519 1515 1516
f 1515 1518 1521
f 1521 1518 1520
f 1517 1522 1516
f 1516 1522 1519
f 1512 1515 1511
f 1511 1515 1521
f 1511 1521 1489
f 1489 1521 1490
f 1514 1509 1524
f 1524 1509 1523
f 1509 1507 1523
f 1523 1507 1508
f 1505 1504 1525
f 1525 1504 1495
f 1526 1505 1527
f 1527 1505 1525
f 1525 1495 1528
f 1528 1495 1494
f 1527 1525 1529
f 1529 1525 1528
f 1527 1530 1526
f 1526 1530 1531
f 1508 1531 1523
f 1523 1531 1530
f 1506 1503 1526
f 1526 1503 1505
f 1508 1506 1531
f 1531 1506 1526
f 1478 1480 1532
f 1532 1480 1490
f 1483 1479 1493
f 1493 1479 1533
f 1532 1533 1478
f 1478 1533 1479
f 1520 1534 1532
f 1532 1534 1533
f 1518 1535 1520
f 1520 1535 1534
f 1533 1534 1493
f 1493 1534 1536
f 1532 1490 1520
f 1520 1490 1521
f 1537 1492 1536
f 1536 1492 1493
f 1492 1537 1491
f 1491 1537 1494
f 1537 1538 1494
f 1494 1538 1528
f 1538 1537 1539
f 1539 1537 1536
f 1540 1538 1541
f 1541 1538 1539
f 1534 1535 1536
f 1536 1535 1539
f 1535 1542 1539
f 1539 1542 1541
f 1538 1540 1528
f 1528 1540 1529
f 1544 1529 1543
f 1543 1529 1540
f 1545 1543 1547
f 1547 1543 1546
f 1543 1540 1546
f 1546 1540 1541
f 1543 1545 1544
f 1544 1545 1524
f 1544 1524 1530
f 1530 1524 1523
f 1530 1527 1544
f 1544 1527 1529
f 1535 1518 1542
f 1542 1518 1519
f 1547 1542 1522
f 1522 1542 1519
f 1547 1546 1542
f 1542 1546 1541
f 1545 1547 1517
f 1517 1547 1522
f 1517 1514 1545
f 1545 1514 1524
f 997 995 986
f 986 995 987
f 987 995 988
f 988 995 971
f 976 1358 977
f 977 1358 1289
f 854 853 1067
f 1067 853 1050
f 1055 985 1069
f 1069 985 962
f 1068 961 981
f 981 961 862
f 1268 1358 920
f 920 1358 976
f 920 976 921
f 921 976 975
f 927 1054 850
f 850 1054 851
f 882 881 1057
f 1057 881 1548
f 1548 1374 1057
f 1057 1374 1373
f 1383 1374 1549
f 1549 1374 1548
f 1549 1548 1550
f 1550 1548 881
f 1550 881 1551
f 1551 881 880
f 933 1552 879
f 879 1552 880
f 1551 880 875
f 875 880 1552
f 1553 1551 878
f 878 1551 875
f 1551 1553 1550
f 1550 1553 1554
f 1550 1554 1549
f 1549 1554 1555
f 978 1384 975
f 975 1384 1555
f 967 849 1556
f 1556 849 852
f 875 1552 876
f 876 1552 933
f 961 939 962
f 962 939 1069
f 1555 1054 975
f 975 1054 921
f 1555 1384 1549
f 1549 1384 1383
f 1391 1390 1475
f 1475 1390 980
f 1373 1475 1057
f 1057 1475 980
f 851 1054 1554
f 1554 1054 1555
f 1554 1553 851
f 851 1553 852
f 878 1556 1553
f 1553 1556 852
f 1556 878 967
f 967 878 877
f 1023 1020 877
f 877 1020 967
f 909 811 1034
f 806 779 873
f 873 779 840
f 805 780 806
f 806 780 779
f 1043 893 1044
f 1044 893 892
f 873 840 847
f 847 840 842
f 840 839 842
f 842 839 843
f 839 791 843
f 843 791 908
f 791 790 908
f 908 790 792
f 809 789 810
f 810 789 1046
f 793 790 809
f 809 790 789
f 809 808 793
f 793 808 1009
f 808 884 1009
f 1009 884 1010
f 1065 1015 884
f 884 1015 1010
f 1032 868 1065
f 1065 868 1015
f 1031 822 1032
f 1032 822 868
f 1031 1027 822
f 822 1027 785
f 1045 905 1046
f 1046 905 904
f 788 781 1019
f 1019 781 894
f 781 780 894
f 894 780 892
f 780 805 892
f 892 805 1044
f 805 804 1044
f 1044 804 891
f 804 1064 891
f 891 1064 888
f 1064 1021 888
f 888 1021 1033
f 1021 1020 1033
f 1033 1020 1034
f 1020 1023 1034
f 1034 1023 909
f 1023 1022 909
f 909 1022 910
f 1043 815 893
f 893 815 819
f 819 815 820
f 820 815 818
f 870 869 818
f 818 869 820
f 1014 1011 870
f 870 1011 869
f 969 972 1014
f 1014 972 1011
f 1036 1063 1022
f 1022 1063 910
f 1035 833 1036
f 1036 833 1063
f 1035 932 979
f 979 932 963
f 834 979 982
f 982 979 958
f 833 1035 834
f 834 1035 979
f 982 863 834
f 834 863 830
f 864 900 831
f 831 900 857
f 990 993 864
f 864 993 900
f 989 994 990
f 990 994 993
f 970 1058 989
f 989 1058 994
f 969 1018 970
f 970 1018 1058
f 1027 902 785
f 785 902 786
f 902 905 786
f 786 905 1019
f 905 1045 1019
f 1019 1045 788
f 788 1045 787
f 787 1045 789
