o hand_left
v -0.068523 -0.073298 0.710657
v -0.079066 -0.070192 0.709257
v -0.070408 -0.064406 0.709059
v -0.060915 -0.067994 0.709081
v -0.087511 -0.051644 0.704641
v -0.090741 -0.046338 0.694089
v -0.074983 -0.042638 0.697039
v -0.075142 -0.047411 0.706163
v -0.053982 -0.065625 0.706640
v -0.063041 -0.060465 0.708853
v -0.051503 -0.067231 0.702027
v -0.043466 -0.075415 0.697493
v -0.045915 -0.071643 0.703556
v -0.037232 -0.080338 0.698040
v -0.048466 -0.081613 0.689555
v -0.038155 -0.089677 0.695708
v -0.063506 -0.104193 0.698429
v -0.071341 -0.110630 0.707211
v -0.056192 -0.113854 0.714665
v -0.049752 -0.106085 0.705432
v -0.072269 -0.117866 0.727202
v -0.062635 -0.116014 0.720711
v -0.077796 -0.113778 0.712607
v -0.085752 -0.115339 0.718851
v -0.080888 -0.081045 0.716591
v -0.091350 -0.078822 0.714362
v -0.087198 -0.076621 0.711517
v -0.077164 -0.078535 0.713601
v -0.050314 -0.060969 0.694563
v -0.055581 -0.067318 0.686492
v -0.051773 -0.069330 0.693371
v -0.050626 -0.060752 0.700204
v -0.119358 -0.072705 0.716384
v -0.129352 -0.074951 0.707606
v -0.126606 -0.072673 0.702899
v -0.118014 -0.071542 0.711788
v -0.111752 -0.058383 0.691582
v -0.119387 -0.065068 0.687799
v -0.119628 -0.067450 0.674320
v -0.110275 -0.063339 0.676003
v -0.101409 -0.051182 0.693342
v -0.100995 -0.054217 0.679716
v -0.089162 -0.048128 0.682587
v -0.072855 -0.043309 0.687919
v -0.135130 -0.082506 0.716208
v -0.128777 -0.081505 0.724101
v -0.004304 -0.067572 0.725887
v -0.005993 -0.069356 0.731225
v -0.008820 -0.070892 0.729192
v -0.006461 -0.069082 0.724235
v -0.132689 -0.101928 0.721160
v -0.130559 -0.110203 0.715829
v -0.137394 -0.108305 0.714184
v -0.138911 -0.099653 0.717533
v -0.124391 -0.104822 0.725901
v -0.120874 -0.112073 0.718046
v 0.006540 -0.073568 0.722377
v 0.003322 -0.069629 0.721569
v 0.001458 -0.073016 0.718816
v 0.003931 -0.077503 0.719778
v -0.051555 -0.071218 0.708572
v -0.059045 -0.074513 0.712973
v -0.036599 -0.076774 0.715547
v -0.045469 -0.076991 0.714523
v -0.043123 -0.074406 0.708567
v -0.035971 -0.075385 0.709154
v -0.061960 -0.087589 0.727440
v -0.072373 -0.085382 0.722610
v -0.067484 -0.082862 0.719019
v -0.055319 -0.083793 0.723437
v -0.081227 -0.088941 0.733063
v -0.070251 -0.091246 0.736723
v -0.076591 -0.093094 0.742221
v -0.083322 -0.090221 0.739121
v -0.050402 -0.094622 0.740405
v -0.043968 -0.096385 0.742576
v -0.046857 -0.096731 0.744027
v -0.053269 -0.095887 0.742288
v -0.143903 -0.107162 0.711641
v -0.144349 -0.097489 0.713218
v -0.088168 -0.119093 0.741897
v -0.096482 -0.113795 0.747293
v -0.085839 -0.117162 0.755739
v -0.079594 -0.122450 0.747504
v -0.125027 -0.114054 0.707958
v -0.132841 -0.114053 0.707325
v 0.007835 -0.078037 0.726393
v 0.004802 -0.081756 0.724062
v -0.087591 -0.058201 0.673756
v -0.070137 -0.049505 0.680651
v -0.100707 -0.066473 0.670702
v -0.109484 -0.073298 0.669248
v -0.117357 -0.076451 0.666655
v -0.044706 -0.080392 0.720519
v -0.067220 -0.078546 0.714986
v -0.084179 -0.082809 0.719939
v -0.099512 -0.090136 0.745632
v -0.108641 -0.087283 0.741172
v -0.100173 -0.083438 0.735868
v -0.093890 -0.087289 0.740601
v -0.098073 -0.105642 0.752615
v -0.094431 -0.098377 0.752870
v -0.086809 -0.101568 0.757191
v -0.088848 -0.109073 0.758458
v -0.050125 -0.056755 0.688372
v -0.059515 -0.064365 0.680845
v -0.132872 -0.091705 0.723875
v -0.137721 -0.089606 0.718155
v -0.143950 -0.089792 0.712415
v -0.105055 -0.074482 0.714705
v -0.117126 -0.070516 0.708626
v -0.114544 -0.068061 0.705886
v -0.103175 -0.074133 0.712284
v -0.089938 -0.064652 0.709012
v -0.100564 -0.058101 0.704211
v -0.079496 -0.058911 0.710354
v -0.124453 -0.069308 0.695721
v -0.134967 -0.072163 0.697008
v -0.131343 -0.069359 0.689357
v -0.139252 -0.077432 0.704072
v -0.142533 -0.083428 0.709783
v -0.140597 -0.116180 0.704564
v -0.127064 -0.068293 0.682189
v -0.066121 -0.045647 0.706754
v -0.057947 -0.044102 0.707237
v -0.056435 -0.051314 0.709648
v -0.063560 -0.053244 0.709821
v -0.029809 -0.083467 0.700445
v -0.032396 -0.077234 0.704540
v -0.040105 -0.074797 0.701902
v -0.112652 -0.076359 0.725109
v -0.121005 -0.083479 0.731379
v -0.035126 -0.080308 0.721171
v 0.000144 -0.080577 0.717165
v -0.002254 -0.075376 0.716155
v -0.017950 -0.080622 0.707283
v -0.015002 -0.086798 0.708182
v -0.027510 -0.086804 0.725150
v -0.030296 -0.081132 0.722788
v -0.027530 -0.081748 0.723550
v -0.024259 -0.085896 0.727314
v -0.054672 -0.098407 0.748944
v -0.060362 -0.097685 0.747213
v -0.036806 -0.105377 0.714750
v -0.032569 -0.100971 0.702117
v -0.043765 -0.099208 0.697591
v -0.067311 -0.089836 0.732128
v -0.058454 -0.092148 0.737089
v -0.061177 -0.093650 0.739867
v -0.042722 -0.083103 0.724027
v -0.034944 -0.084446 0.725429
v -0.039827 -0.086656 0.727211
v -0.046943 -0.085416 0.726469
v -0.107075 -0.111479 0.739412
v -0.108996 -0.102124 0.746027
v -0.000764 -0.067572 0.722643
v -0.002634 -0.069902 0.720422
v -0.077398 -0.087594 0.727307
v -0.057289 -0.096477 0.692782
v -0.087734 -0.084339 0.723810
v -0.060969 -0.116972 0.746692
v -0.062214 -0.111598 0.752242
v -0.056741 -0.108824 0.754751
v -0.053736 -0.113188 0.751882
v -0.010850 -0.081990 0.733757
v -0.012479 -0.076619 0.732674
v -0.008846 -0.075044 0.733818
v -0.006252 -0.080030 0.735548
v -0.030980 -0.077513 0.718170
v -0.030200 -0.075594 0.712059
v -0.025456 -0.075097 0.715110
v -0.026679 -0.077978 0.720172
v -0.026603 -0.077646 0.707072
v -0.022036 -0.076425 0.709788
v -0.006841 -0.086722 0.731752
v -0.001829 -0.088251 0.726342
v -0.016428 -0.094693 0.719334
v -0.018820 -0.090967 0.725765
v -0.098408 -0.114379 0.710482
v -0.105561 -0.115351 0.718961
v -0.093132 -0.116542 0.727505
v -0.080964 -0.119241 0.736085
v -0.068900 -0.120610 0.743563
v -0.061039 -0.121091 0.734397
v -0.099390 -0.116361 0.732815
v -0.031503 -0.096062 0.723544
v -0.027668 -0.099228 0.715286
v -0.032820 -0.101625 0.719774
v -0.091743 -0.085081 0.730036
v -0.005957 -0.071576 0.717871
v -0.110219 -0.096458 0.672010
v -0.114634 -0.106161 0.680117
v -0.106330 -0.104831 0.682557
v -0.101381 -0.093319 0.673924
v -0.012308 -0.071678 0.728012
v -0.010109 -0.069534 0.722368
v -0.063275 -0.099523 0.752839
v -0.057221 -0.100065 0.753677
v -0.056877 -0.102397 0.755852
v -0.063109 -0.101530 0.757799
v -0.110259 -0.114808 0.722586
v -0.077748 -0.115770 0.761354
v -0.073203 -0.121390 0.753380
v -0.116085 -0.114334 0.711198
v -0.109982 -0.114122 0.703575
v -0.118625 -0.114123 0.699080
v -0.048090 -0.115443 0.729292
v -0.091451 -0.112953 0.705521
v -0.104311 -0.112199 0.698815
v -0.114376 -0.112119 0.693221
v -0.121833 -0.112895 0.689567
v -0.125756 -0.114859 0.696423
v 0.000316 -0.085217 0.721599
v 0.003270 -0.085066 0.729811
v -0.133851 -0.117327 0.693136
v -0.129170 -0.114349 0.685719
v -0.098307 -0.108730 0.692780
v -0.091421 -0.103059 0.685837
v -0.086136 -0.109419 0.699619
v -0.078240 -0.104093 0.693232
v -0.044199 -0.115796 0.719288
v 0.009155 -0.072981 0.741572
v 0.002611 -0.080613 0.736686
v -0.002318 -0.077667 0.737719
v 0.005275 -0.071986 0.743316
v -0.001903 -0.083943 0.734290
v 0.006230 -0.081143 0.732213
v -0.071187 -0.093646 0.686009
v -0.033953 -0.088845 0.728304
v -0.085294 -0.088602 0.677613
v -0.059928 -0.081134 0.682098
v -0.070653 -0.075377 0.676998
v -0.099036 -0.081072 0.668944
v -0.085032 -0.071278 0.670622
v -0.116006 -0.087230 0.665817
v -0.107607 -0.085538 0.668109
v -0.071696 -0.061566 0.675002
v -0.000293 -0.062364 0.733861
v -0.001694 -0.065474 0.738502
v -0.117854 -0.097974 0.669005
v -0.070319 -0.055484 0.710194
v -0.100223 -0.080316 0.725078
v -0.096826 -0.080113 0.720588
v -0.113709 -0.085679 0.737597
v -0.105598 -0.080317 0.730967
v 0.003356 -0.061604 0.729976
v -0.040096 -0.099832 0.743384
v -0.043885 -0.099862 0.741566
v -0.065981 -0.040757 0.699603
v -0.058722 -0.039636 0.701050
v -0.052667 -0.043467 0.689910
v -0.055756 -0.039176 0.694822
v -0.063726 -0.040912 0.691216
v -0.060780 -0.045548 0.685660
v -0.106282 -0.074755 0.717060
v -0.108099 -0.075551 0.720469
v -0.116493 -0.107912 0.732534
v -0.117529 -0.098577 0.739214
v -0.024020 -0.083023 0.704151
v -0.028944 -0.091717 0.699999
v -0.022450 -0.089841 0.704641
v -0.015915 -0.092858 0.711807
v -0.030307 -0.091778 0.727059
v -0.026038 -0.092520 0.723147
v -0.108099 -0.063532 0.705289
v -0.098080 -0.070911 0.709884
v -0.058627 -0.058958 0.707747
v -0.053444 -0.057789 0.707178
v -0.053423 -0.088481 0.730365
v -0.038008 -0.110917 0.734353
v -0.035108 -0.111124 0.725742
v -0.045104 -0.090627 0.733010
v 0.011145 -0.065104 0.729764
v 0.007011 -0.062368 0.728965
v -0.023641 -0.096279 0.707751
v -0.067183 -0.095029 0.745748
v -0.045666 -0.111938 0.736286
v -0.038276 -0.106640 0.740838
v -0.083091 -0.109041 0.761860
v -0.122761 -0.106847 0.676588
v -0.005607 -0.073110 0.736430
v -0.000632 -0.069093 0.741944
v 0.011775 -0.072977 0.738111
v 0.012854 -0.070381 0.732734
v -0.124414 -0.094265 0.731854
v -0.094223 -0.079947 0.717852
v -0.060806 -0.055037 0.680803
v -0.051172 -0.050385 0.687442
v -0.040516 -0.092308 0.734820
v -0.066369 -0.117755 0.750537
v -0.053780 -0.118376 0.740919
v -0.046471 -0.114727 0.746669
v -0.041852 -0.110308 0.742735
v -0.040880 -0.103433 0.741545
v 0.013340 -0.068844 0.742024
v 0.014662 -0.066024 0.736716
v 0.012766 -0.060888 0.733641
v 0.008690 -0.058767 0.732349
v 0.004275 -0.059171 0.732879
v 0.010374 -0.068867 0.745457
v 0.006574 -0.067996 0.746551
v 0.000824 -0.066966 0.744040
v 0.009874 -0.065238 0.748647
v 0.014128 -0.062293 0.747507
v 0.011869 -0.049470 0.742512
v 0.013800 -0.054426 0.739746
v 0.014429 -0.053730 0.742394
v 0.013417 -0.049807 0.745364
v 0.013288 -0.046544 0.749410
v 0.011398 -0.045484 0.746589
v 0.015200 -0.058184 0.743670
v 0.014147 -0.053308 0.748300
v 0.013120 -0.056110 0.751299
v 0.013119 -0.051877 0.754928
v 0.014229 -0.049245 0.752418
v 0.014226 -0.059231 0.748008
v 0.015837 -0.060090 0.742048
v 0.011268 -0.043997 0.751002
v 0.013308 -0.045119 0.752003
v 0.013542 -0.047146 0.754646
v 0.011397 -0.045339 0.755887
v 0.009231 -0.054920 0.735805
v 0.009464 -0.048897 0.741650
v 0.008257 -0.045802 0.746748
v 0.008457 -0.044378 0.751122
v 0.005770 -0.049204 0.743431
v 0.005720 -0.047004 0.747684
v 0.005688 -0.046162 0.751641
v 0.002808 -0.050771 0.746143
v 0.003720 -0.048679 0.749564
v 0.001794 -0.058359 0.737627
v 0.004721 -0.056833 0.734982
v 0.003942 -0.047414 0.751820
v 0.009232 -0.045703 0.756281
v 0.011298 -0.059198 0.752203
v 0.010515 -0.053386 0.756141
v 0.009070 -0.059902 0.752813
v 0.008533 -0.054391 0.756988
v 0.011023 -0.049544 0.758371
v 0.012732 -0.049379 0.756454
v 0.000572 -0.061378 0.735724
v -0.000718 -0.064678 0.740504
v 0.000135 -0.062265 0.742206
v 0.001376 -0.053974 0.749458
v 0.001298 -0.064387 0.745935
v 0.006092 -0.064501 0.749365
v 0.006260 -0.059052 0.753481
v 0.003264 -0.057534 0.752638
v 0.006050 -0.054467 0.756283
v 0.004154 -0.053551 0.754804
v 0.002739 -0.050935 0.752314
v 0.006112 -0.050505 0.757212
v 0.008825 -0.050065 0.758364
v 0.006270 -0.047159 0.755423
v 0.004657 -0.051006 0.755989
v 0.004602 -0.048708 0.754030
v -0.012685 -0.081394 0.749207
v -0.015371 -0.083463 0.754665
v -0.016347 -0.086514 0.751293
v -0.013900 -0.084588 0.746889
v -0.000645 -0.088528 0.746996
v -0.004706 -0.083912 0.745723
v -0.005599 -0.088102 0.742477
v -0.002549 -0.093753 0.744582
v -0.000500 -0.093665 0.751850
v -0.003387 -0.098605 0.749185
v -0.006215 -0.096851 0.740712
v -0.009442 -0.090619 0.739145
v -0.026295 -0.096171 0.727985
v -0.023982 -0.102729 0.728319
v -0.036726 -0.095187 0.742908
v -0.035240 -0.098317 0.744364
v -0.009278 -0.081690 0.746894
v -0.010106 -0.085210 0.744009
v -0.020459 -0.093518 0.755532
v -0.021250 -0.088856 0.752805
v -0.017833 -0.088532 0.755477
v -0.015836 -0.092805 0.758416
v -0.031894 -0.091196 0.732084
v -0.034960 -0.093163 0.737474
v -0.029074 -0.092545 0.729748
v -0.016865 -0.099181 0.755940
v -0.012098 -0.103112 0.752930
v -0.027889 -0.109574 0.740526
v -0.030897 -0.105826 0.744868
v -0.013026 -0.086630 0.740519
v -0.019364 -0.085646 0.748479
v -0.016945 -0.084553 0.743993
v -0.008278 -0.101906 0.745806
v -0.007062 -0.099462 0.756329
v -0.003889 -0.083000 0.767931
v -0.008902 -0.092545 0.762192
v -0.013045 -0.089362 0.761784
v -0.008189 -0.080352 0.768662
v -0.011771 -0.096814 0.759115
v -0.004358 -0.094481 0.758789
v -0.009312 -0.070918 0.758446
v -0.011855 -0.073342 0.763748
v -0.005664 -0.070674 0.755650
v -0.025074 -0.108329 0.733062
v 0.002199 -0.077475 0.754689
v -0.002187 -0.072589 0.754057
v -0.016013 -0.086176 0.759058
v -0.011258 -0.076645 0.767467
v -0.000230 -0.083945 0.765291
v 0.002744 -0.083029 0.758635
v 0.001603 -0.078854 0.767962
v 0.004254 -0.077151 0.762351
v 0.003354 -0.072036 0.757964
v -0.001422 -0.068805 0.756781
v -0.005213 -0.068162 0.757750
v -0.001977 -0.078223 0.770613
v -0.006448 -0.076357 0.771223
v -0.010254 -0.074229 0.768458
v -0.002909 -0.071933 0.774032
v 0.001416 -0.071005 0.772569
v -0.000738 -0.053133 0.767322
v 0.000701 -0.058333 0.764554
v 0.001985 -0.058945 0.766781
v 0.000765 -0.054244 0.769445
v 0.003523 -0.063854 0.763018
v 0.003591 -0.063208 0.765520
v 0.003743 -0.066726 0.768641
v 0.001779 -0.061265 0.771016
v -0.000055 -0.064169 0.774480
v -0.000673 -0.059158 0.777279
v 0.001329 -0.056121 0.774091
v 0.002051 -0.067385 0.772126
v 0.000020 -0.051732 0.771981
v -0.001961 -0.050038 0.771924
v 0.005048 -0.069412 0.767093
v -0.000602 -0.065229 0.758838
v -0.002064 -0.057570 0.763320
v -0.003947 -0.052438 0.767093
v -0.004909 -0.050075 0.772771
v -0.006212 -0.057441 0.764266
v -0.006966 -0.052941 0.768223
v -0.007257 -0.051473 0.773059
v -0.010149 -0.058598 0.766725
v -0.010021 -0.054460 0.770762
v -0.009115 -0.067481 0.761169
v -0.005401 -0.065750 0.758709
v -0.009055 -0.053081 0.772802
v -0.001448 -0.051155 0.776621
v -0.004804 -0.050913 0.776882
v -0.000251 -0.052431 0.775892
v -0.001421 -0.065270 0.775726
v -0.002674 -0.059385 0.778269
v -0.004103 -0.065617 0.776751
v -0.004930 -0.059057 0.779180
v -0.002730 -0.054762 0.779433
v -0.001280 -0.054713 0.778511
v -0.008529 -0.069430 0.760310
v -0.010766 -0.071999 0.764853
v -0.011329 -0.070403 0.765527
v -0.011651 -0.061434 0.771018
v -0.010430 -0.072630 0.769691
v -0.006617 -0.072192 0.773420
v -0.006963 -0.065780 0.776495
v -0.010174 -0.064012 0.774785
v -0.007065 -0.059475 0.779487
v -0.009454 -0.059906 0.777278
v -0.011158 -0.057039 0.773769
v -0.006790 -0.054825 0.779851
v -0.004431 -0.054516 0.779919
v -0.006816 -0.051848 0.776500
v -0.008922 -0.056161 0.778237
v -0.009201 -0.053759 0.775456
v -0.035994 -0.084476 0.758892
v -0.039649 -0.086232 0.763066
v -0.040516 -0.088870 0.760939
v -0.036618 -0.087431 0.757093
v -0.024581 -0.089997 0.760630
v -0.027159 -0.086461 0.758305
v -0.027788 -0.090328 0.755712
v -0.025512 -0.095021 0.757263
v -0.024685 -0.092114 0.765946
v -0.026009 -0.099119 0.761811
v -0.027455 -0.099225 0.753928
v -0.029264 -0.093507 0.753038
v -0.038513 -0.101107 0.744097
v -0.036688 -0.107058 0.746145
v -0.031553 -0.084845 0.757834
v -0.032181 -0.087896 0.755814
v -0.043189 -0.094921 0.766104
v -0.043603 -0.091253 0.762858
v -0.041619 -0.091487 0.765490
v -0.039982 -0.094392 0.768504
v -0.047249 -0.095774 0.745657
v -0.051292 -0.097802 0.749580
v -0.042506 -0.096909 0.744490
v -0.039130 -0.100087 0.767418
v -0.033642 -0.104224 0.764810
v -0.045069 -0.110376 0.757156
v -0.049654 -0.106481 0.758296
v -0.033029 -0.089967 0.753423
v -0.042159 -0.088773 0.758382
v -0.037954 -0.087868 0.754805
v -0.029519 -0.103239 0.758488
v -0.030143 -0.099931 0.767780
v -0.030147 -0.080373 0.780081
v -0.033874 -0.094266 0.772417
v -0.038847 -0.091434 0.770705
v -0.034446 -0.079232 0.779611
v -0.035569 -0.097634 0.770301
v -0.028483 -0.094842 0.770598
v -0.034852 -0.072330 0.767414
v -0.037658 -0.074635 0.771615
v -0.030846 -0.073241 0.765497
v -0.039138 -0.111407 0.751260
v -0.052957 -0.101460 0.755939
v -0.023988 -0.075625 0.767786
v -0.027483 -0.073938 0.765692
v -0.040564 -0.089054 0.767522
v -0.037546 -0.077324 0.776686
v -0.025783 -0.081110 0.777732
v -0.022798 -0.079714 0.772199
v -0.025950 -0.075802 0.780306
v -0.023013 -0.074277 0.774735
v -0.024148 -0.070842 0.769870
v -0.028138 -0.069974 0.767495
v -0.031606 -0.069837 0.767214
v -0.030760 -0.075495 0.782220
v -0.034662 -0.074967 0.781341
v -0.037313 -0.075710 0.776945
v -0.032273 -0.071501 0.783668
v -0.027503 -0.068907 0.782548
v -0.032185 -0.053568 0.775866
v -0.029946 -0.058798 0.773920
v -0.029556 -0.058988 0.775070
v -0.031257 -0.053709 0.777341
v -0.026023 -0.064437 0.773147
v -0.026589 -0.063235 0.774652
v -0.025867 -0.065357 0.777969
v -0.028544 -0.059754 0.780232
v -0.031566 -0.063166 0.784258
v -0.033201 -0.058128 0.785334
v -0.030364 -0.054621 0.781990
v -0.027862 -0.066749 0.781852
v -0.032372 -0.051244 0.779312
v -0.032846 -0.049892 0.778033
v -0.024478 -0.067584 0.777516
v -0.028995 -0.065218 0.769243
v -0.032030 -0.058739 0.771757
v -0.034406 -0.053451 0.773592
v -0.036190 -0.050674 0.776688
v -0.035709 -0.059813 0.771430
v -0.037167 -0.055007 0.773621
v -0.038640 -0.052477 0.776451
v -0.038531 -0.061106 0.772699
v -0.039510 -0.056890 0.774872
v -0.035708 -0.069303 0.769400
v -0.032530 -0.067062 0.768292
v -0.039862 -0.054442 0.776847
v -0.033750 -0.050341 0.782718
v -0.037891 -0.051017 0.782112
v -0.032728 -0.051727 0.782445
v -0.032496 -0.064547 0.785104
v -0.035087 -0.058393 0.786718
v -0.035148 -0.065628 0.785216
v -0.037558 -0.059483 0.786702
v -0.035202 -0.053938 0.786247
v -0.034198 -0.054180 0.785597
v -0.034986 -0.071155 0.768699
v -0.037450 -0.073653 0.772497
v -0.038032 -0.071926 0.772921
v -0.041093 -0.063085 0.776327
v -0.038074 -0.073756 0.777383
v -0.035974 -0.071254 0.782527
v -0.038082 -0.065653 0.783565
v -0.040598 -0.064625 0.780757
v -0.039743 -0.060109 0.785031
v -0.040810 -0.060694 0.782420
v -0.041754 -0.058706 0.777966
v -0.039827 -0.055988 0.784178
v -0.037813 -0.054721 0.786010
v -0.040054 -0.052929 0.780725
v -0.041087 -0.057168 0.782327
v -0.041133 -0.054962 0.779627
v -0.053245 -0.099366 0.753211
v -0.051706 -0.091091 0.768089
v -0.054253 -0.091593 0.771475
v -0.054557 -0.092850 0.771210
v -0.052850 -0.092581 0.767111
v -0.043646 -0.099281 0.767349
v -0.045475 -0.095046 0.765945
v -0.046749 -0.098342 0.763630
v -0.045363 -0.102620 0.765018
v -0.044426 -0.102748 0.771353
v -0.046481 -0.105611 0.769770
v -0.048207 -0.104680 0.763500
v -0.049438 -0.100389 0.761801
v -0.060654 -0.108313 0.753915
v -0.061682 -0.113668 0.755128
v -0.077233 -0.107107 0.765129
v -0.077587 -0.102586 0.762464
v -0.070477 -0.100923 0.767608
v -0.070874 -0.105219 0.769545
v -0.048520 -0.092459 0.766351
v -0.049951 -0.094493 0.764204
v -0.057367 -0.099826 0.777502
v -0.057794 -0.095843 0.774652
v -0.056006 -0.094343 0.774890
v -0.055658 -0.097261 0.778657
v -0.073719 -0.100152 0.759929
v -0.069314 -0.100506 0.757874
v -0.066602 -0.098905 0.760032
v -0.067816 -0.098642 0.764385
v -0.062376 -0.101528 0.757107
v -0.055375 -0.103829 0.777448
v -0.051934 -0.107719 0.774287
v -0.068880 -0.114820 0.767006
v -0.070861 -0.110566 0.768918
v -0.050952 -0.096317 0.763368
v -0.056598 -0.093977 0.770361
v -0.053925 -0.093712 0.767234
v -0.049306 -0.108197 0.768086
v -0.049421 -0.104761 0.775817
v -0.048386 -0.093654 0.783548
v -0.051944 -0.099560 0.780254
v -0.055107 -0.095975 0.779229
v -0.051160 -0.091827 0.782973
v -0.053082 -0.101057 0.779040
v -0.047508 -0.101863 0.777540
v -0.050098 -0.086043 0.771661
v -0.052733 -0.087576 0.776171
v -0.047195 -0.086638 0.769930
v -0.064943 -0.116647 0.759847
v -0.041280 -0.091186 0.771470
v -0.043942 -0.087870 0.769962
v -0.055329 -0.093054 0.775396
v -0.053029 -0.089557 0.780313
v -0.044244 -0.095053 0.781430
v -0.041139 -0.095146 0.775826
v -0.042908 -0.090564 0.782820
v -0.040050 -0.090613 0.777166
v -0.041450 -0.086766 0.772393
v -0.044850 -0.085434 0.770848
v -0.048030 -0.084824 0.770994
v -0.047386 -0.089865 0.784815
v -0.050247 -0.088957 0.784131
v -0.052478 -0.088010 0.781074
v -0.046663 -0.085940 0.785892
v -0.042705 -0.084132 0.783793
v -0.045797 -0.072506 0.777799
v -0.045067 -0.076255 0.775923
v -0.044304 -0.076448 0.776869
v -0.044766 -0.072496 0.778218
v -0.042772 -0.081184 0.774682
v -0.042592 -0.080250 0.776230
v -0.041507 -0.082692 0.778750
v -0.042405 -0.077617 0.780579
v -0.044144 -0.078904 0.785521
v -0.044576 -0.074752 0.786385
v -0.042676 -0.073977 0.782048
v -0.042289 -0.082399 0.783044
v -0.044361 -0.070259 0.779951
v -0.045162 -0.069092 0.779821
v -0.040560 -0.084707 0.778158
v -0.046094 -0.081551 0.772245
v -0.047309 -0.075313 0.774980
v -0.047594 -0.070826 0.777586
v -0.047278 -0.068447 0.780689
v -0.049738 -0.076194 0.774935
v -0.049931 -0.070947 0.777819
v -0.049597 -0.068846 0.780910
v -0.052502 -0.077376 0.776498
v -0.051841 -0.072285 0.779056
v -0.052220 -0.083398 0.774289
v -0.049429 -0.082063 0.772436
v -0.050777 -0.070178 0.781149
v -0.044266 -0.069276 0.783684
v -0.047227 -0.068737 0.784040
v -0.043215 -0.070552 0.783512
v -0.045012 -0.079479 0.786501
v -0.045740 -0.074473 0.787589
v -0.047257 -0.080083 0.787374
v -0.047915 -0.074368 0.787891
v -0.045371 -0.070993 0.786734
v -0.044067 -0.072043 0.785754
v -0.051299 -0.084728 0.773318
v -0.052670 -0.086291 0.776747
v -0.053364 -0.084944 0.778203
v -0.053820 -0.078968 0.780124
v -0.052500 -0.086372 0.782498
v -0.049746 -0.086513 0.785280
v -0.049957 -0.080195 0.786768
v -0.052601 -0.079824 0.784586
v -0.049975 -0.074070 0.787146
v -0.052231 -0.074301 0.785076
v -0.053128 -0.073610 0.781903
v -0.049359 -0.070555 0.785690
v -0.047646 -0.070316 0.786515
v -0.049277 -0.069235 0.783788
v -0.050934 -0.071158 0.784670
v -0.051076 -0.070620 0.783093
v -0.075046 -0.110591 0.765635
v -0.038767 -0.052251 0.696822
v -0.040226 -0.055464 0.701256
v -0.045821 -0.044987 0.712581
v -0.043455 -0.051548 0.711422
v -0.045892 -0.038711 0.709722
v -0.043138 -0.035730 0.699514
v -0.045773 -0.035979 0.704534
v -0.041537 -0.055274 0.707114
v -0.038932 -0.047012 0.693824
v -0.040836 -0.039923 0.694369
v -0.029725 -0.046995 0.696420
v -0.031457 -0.038771 0.697420
v -0.033589 -0.033965 0.702275
v -0.038830 -0.034814 0.707955
v -0.040888 -0.037228 0.712051
v -0.033264 -0.052690 0.700395
v -0.035719 -0.055314 0.704589
v -0.038870 -0.054185 0.710324
v -0.028167 -0.054247 0.706527
v -0.020967 -0.049225 0.711100
v -0.018196 -0.036342 0.725849
v -0.023060 -0.035851 0.720908
v -0.020961 -0.037346 0.719765
v -0.016466 -0.037284 0.724155
v -0.024503 -0.036317 0.715275
v -0.022940 -0.038047 0.715783
v -0.021822 -0.042259 0.712746
v -0.017885 -0.042308 0.717255
v -0.020600 -0.047266 0.713235
v -0.018305 -0.048431 0.716859
v -0.013898 -0.042505 0.721438
v -0.012833 -0.038484 0.725623
v -0.010745 -0.042655 0.725139
v -0.013952 -0.038404 0.728589
v -0.020512 -0.041305 0.709718
v -0.031068 -0.034406 0.714391
v -0.026483 -0.035341 0.721985
v -0.021249 -0.036884 0.727918
v -0.016247 -0.039637 0.730567
v -0.029782 -0.037468 0.723979
v -0.024524 -0.039654 0.728700
v -0.020058 -0.042772 0.730742
v -0.031682 -0.041921 0.724947
v -0.025960 -0.043416 0.728481
v -0.040016 -0.042488 0.716517
v -0.037204 -0.036650 0.715723
v -0.022096 -0.044482 0.729737
v -0.010389 -0.043487 0.727903
v -0.013043 -0.044958 0.729926
v -0.019486 -0.051594 0.716263
v -0.014210 -0.048704 0.720507
v -0.015596 -0.051210 0.721346
v -0.022488 -0.054257 0.716374
v -0.017501 -0.052943 0.722537
v -0.011859 -0.048879 0.725155
v -0.011541 -0.046836 0.723208
v -0.042508 -0.042872 0.714449
v -0.041726 -0.049361 0.713369
v -0.039650 -0.049003 0.715067
v -0.031764 -0.048487 0.723368
v -0.036652 -0.054046 0.713208
v -0.032050 -0.055683 0.709552
v -0.025551 -0.055236 0.718278
v -0.029210 -0.053455 0.720780
v -0.020652 -0.052928 0.724281
v -0.023136 -0.051553 0.725428
v -0.025297 -0.047762 0.727675
v -0.017639 -0.050205 0.727732
v -0.014233 -0.050357 0.726709
v -0.017409 -0.046532 0.730178
v -0.020342 -0.049794 0.727550
v -0.020827 -0.047166 0.729201
v -0.082226 -0.102286 0.759206
v -0.077691 -0.098782 0.755964
v -0.083443 -0.097466 0.753908
v -0.091130 -0.093757 0.750160
v -0.101481 -0.095225 0.748701
v -0.086916 -0.091372 0.745084
v -0.079143 -0.095171 0.749335
v -0.070885 -0.097463 0.752105
v -0.089684 -0.087559 0.735917
f 2 3 1
f 1 3 4
f 5 6 8
f 8 6 7
f 9 4 10
f 10 4 3
f 12 13 11
f 11 13 9
f 14 12 16
f 16 12 15
f 18 19 17
f 17 19 20
f 22 23 21
f 21 23 24
f 26 27 25
f 25 27 28
f 30 31 29
f 29 31 32
f 33 34 36
f 36 34 35
f 37 38 40
f 40 38 39
f 41 42 6
f 6 42 43
f 6 43 7
f 7 43 44
f 45 34 46
f 46 34 33
f 48 49 47
f 47 49 50
f 52 53 51
f 51 53 54
f 56 52 55
f 55 52 51
f 58 59 57
f 57 59 60
f 61 62 4
f 4 62 1
f 64 65 63
f 63 65 66
f 68 69 67
f 67 69 70
f 72 73 71
f 71 73 74
f 76 77 75
f 75 77 78
f 53 79 54
f 54 79 80
f 82 83 81
f 81 83 84
f 85 86 52
f 52 86 53
f 57 60 87
f 87 60 88
f 89 90 43
f 43 90 44
f 43 42 89
f 89 42 91
f 40 39 92
f 92 39 93
f 94 70 64
f 64 70 69
f 13 61 9
f 9 61 4
f 25 28 69
f 69 28 95
f 96 25 68
f 68 25 69
f 98 99 97
f 97 99 100
f 101 102 104
f 104 102 103
f 106 30 105
f 105 30 29
f 51 54 107
f 107 54 108
f 54 80 108
f 108 80 109
f 111 112 110
f 110 112 113
f 115 5 114
f 114 5 116
f 115 41 5
f 5 41 6
f 36 35 111
f 111 35 117
f 35 118 117
f 117 118 119
f 34 120 35
f 35 120 118
f 34 45 120
f 120 45 121
f 125 126 124
f 124 126 127
f 128 129 14
f 14 129 130
f 33 131 46
f 46 131 132
f 133 94 63
f 63 94 64
f 134 135 137
f 137 135 136
f 139 140 138
f 138 140 141
f 77 142 78
f 78 142 143
f 144 145 20
f 20 145 146
f 148 149 147
f 147 149 72
f 151 152 150
f 150 152 153
f 82 101 83
f 83 101 104
f 101 82 155
f 155 82 154
f 156 157 58
f 58 157 59
f 158 68 147
f 147 68 67
f 159 146 15
f 15 146 16
f 68 158 96
f 96 158 160
f 129 66 130
f 130 66 65
f 162 163 161
f 161 163 164
f 166 167 165
f 165 167 168
f 170 171 169
f 169 171 172
f 174 171 173
f 173 171 170
f 176 177 175
f 175 177 178
f 180 181 179
f 179 181 24
f 182 183 21
f 21 183 184
f 81 185 82
f 82 185 154
f 186 187 188
f 188 187 144
f 158 71 160
f 160 71 189
f 190 135 157
f 157 135 59
f 169 172 139
f 139 172 140
f 147 72 158
f 158 72 71
f 192 193 191
f 191 193 194
f 167 166 49
f 49 166 195
f 196 190 50
f 50 190 157
f 197 198 200
f 200 198 199
f 21 24 182
f 182 24 181
f 146 159 20
f 20 159 17
f 182 181 81
f 81 181 185
f 201 185 180
f 180 185 181
f 202 203 83
f 83 203 84
f 205 206 204
f 204 206 85
f 207 22 184
f 184 22 21
f 179 24 208
f 208 24 23
f 208 209 179
f 179 209 205
f 209 210 205
f 205 210 206
f 212 206 211
f 211 206 210
f 179 205 180
f 180 205 204
f 213 176 88
f 88 176 214
f 86 85 212
f 212 85 206
f 193 217 218
f 217 219 218
f 218 219 220
f 219 18 220
f 220 18 17
f 19 221 20
f 20 221 144
f 222 223 225
f 225 223 224
f 175 226 176
f 176 226 214
f 227 87 214
f 214 87 88
f 220 17 228
f 228 17 159
f 134 213 60
f 60 213 88
f 138 229 151
f 151 229 152
f 193 192 210
f 210 192 211
f 230 194 218
f 218 194 193
f 231 232 228
f 228 232 230
f 233 234 91
f 91 234 89
f 235 236 93
f 93 236 92
f 230 232 234
f 234 232 237
f 47 238 48
f 48 238 239
f 240 191 235
f 235 191 236
f 5 8 116
f 116 8 241
f 242 243 189
f 189 243 160
f 244 245 98
f 98 245 99
f 156 246 47
f 47 246 238
f 76 247 77
f 77 247 248
f 250 125 249
f 249 125 124
f 252 253 251
f 251 253 254
f 111 110 36
f 36 110 255
f 256 33 255
f 255 33 36
f 257 258 154
f 154 258 155
f 63 169 133
f 133 169 139
f 66 170 63
f 63 170 169
f 173 170 129
f 129 170 66
f 129 128 173
f 173 128 259
f 128 260 259
f 259 260 261
f 213 134 262
f 262 134 137
f 263 264 186
f 186 264 187
f 112 265 113
f 113 265 266
f 11 267 268
f 234 233 230
f 230 233 194
f 153 269 70
f 70 269 67
f 175 178 165
f 165 178 141
f 150 153 94
f 94 153 70
f 271 221 270
f 270 221 207
f 269 153 272
f 272 153 152
f 121 45 109
f 109 45 108
f 47 50 156
f 156 50 157
f 57 273 58
f 58 273 274
f 145 275 260
f 260 275 261
f 276 149 143
f 143 149 78
f 148 269 75
f 75 269 272
f 207 277 270
f 270 277 278
f 195 196 49
f 49 196 50
f 59 135 60
f 60 135 134
f 83 104 202
f 202 104 279
f 149 148 78
f 78 148 75
f 247 278 248
f 248 278 277
f 183 182 84
f 84 182 81
f 48 239 281
f 281 239 282
f 227 223 283
f 283 223 222
f 223 226 224
f 224 226 168
f 281 282 224
f 224 282 225
f 165 168 175
f 175 168 226
f 264 263 138
f 138 263 229
f 14 16 128
f 128 16 260
f 220 228 218
f 218 228 230
f 87 227 284
f 284 227 283
f 260 16 145
f 145 16 146
f 244 98 258
f 258 98 155
f 58 274 156
f 156 274 246
f 107 285 51
f 51 285 55
f 243 286 160
f 160 286 96
f 234 237 89
f 89 237 90
f 46 132 107
f 107 132 285
f 253 252 249
f 249 252 250
f 286 26 96
f 96 26 25
f 106 105 287
f 287 105 288
f 272 152 289
f 289 152 229
f 138 151 139
f 139 151 133
f 183 290 161
f 161 290 162
f 291 292 277
f 277 292 293
f 151 150 133
f 133 150 94
f 262 275 177
f 177 275 187
f 144 187 145
f 145 187 275
f 273 57 284
f 284 57 87
f 174 136 190
f 190 136 135
f 111 117 112
f 112 117 38
f 117 119 38
f 38 119 123
f 112 38 265
f 265 38 37
f 287 288 254
f 254 288 251
f 228 159 231
f 231 159 15
f 223 227 226
f 226 227 214
f 147 67 148
f 148 67 269
f 224 168 281
f 281 168 167
f 199 163 200
f 200 163 162
f 45 46 108
f 108 46 107
f 281 167 48
f 48 167 49
f 161 164 291
f 291 164 292
f 38 123 39
f 293 294 277
f 277 294 248
f 284 283 296
f 296 283 295
f 284 296 273
f 273 296 297
f 274 273 298
f 298 273 297
f 246 274 299
f 299 274 298
f 283 222 295
f 295 222 300
f 222 225 300
f 300 225 301
f 301 225 302
f 302 225 282
f 303 304 300
f 300 304 295
f 306 307 305
f 305 307 308
f 309 310 308
f 308 310 305
f 308 307 312
f 312 307 311
f 313 314 312
f 312 314 315
f 311 316 312
f 312 316 313
f 317 304 311
f 311 304 316
f 315 309 312
f 312 309 308
f 318 319 321
f 321 319 320
f 319 318 309
f 309 318 310
f 311 307 317
f 317 307 306
f 306 297 317
f 317 297 296
f 306 322 297
f 297 322 298
f 305 323 306
f 306 323 322
f 323 305 324
f 324 305 310
f 304 317 295
f 295 317 296
f 318 325 310
f 310 325 324
f 323 324 326
f 326 324 327
f 324 325 327
f 327 325 328
f 326 327 329
f 329 327 330
f 329 331 326
f 326 331 332
f 333 330 328
f 328 330 327
f 323 326 322
f 322 326 332
f 322 332 298
f 298 332 299
f 325 318 334
f 334 318 321
f 313 316 335
f 335 316 304
f 335 336 313
f 313 336 314
f 304 303 335
f 335 303 337
f 336 335 338
f 338 335 337
f 336 339 314
f 314 339 340
f 246 299 238
f 238 299 341
f 239 342 282
f 282 342 302
f 342 239 341
f 341 239 238
f 341 331 342
f 342 331 343
f 331 329 343
f 343 329 344
f 342 343 302
f 302 343 345
f 341 299 331
f 331 299 332
f 346 301 345
f 345 301 302
f 346 303 301
f 301 303 300
f 347 337 346
f 346 337 303
f 347 346 348
f 348 346 345
f 349 347 350
f 350 347 348
f 343 344 345
f 345 344 348
f 344 351 348
f 348 351 350
f 337 347 338
f 338 347 349
f 353 338 352
f 352 338 349
f 352 355 354
f 354 355 356
f 352 349 355
f 355 349 350
f 352 354 353
f 353 354 334
f 353 334 339
f 339 334 321
f 339 336 353
f 353 336 338
f 329 330 344
f 344 330 351
f 356 351 333
f 333 351 330
f 356 355 351
f 351 355 350
f 354 356 328
f 328 356 333
f 328 325 354
f 354 325 334
f 309 315 319
f 319 315 320
f 320 340 321
f 321 340 339
f 320 315 340
f 340 315 314
f 137 136 261
f 261 136 259
f 140 166 141
f 141 166 165
f 172 171 195
f 195 171 196
f 171 174 196
f 196 174 190
f 178 177 264
f 264 177 187
f 172 195 140
f 140 195 166
f 137 261 262
f 262 261 275
f 178 264 141
f 141 264 138
f 262 177 213
f 213 177 176
f 136 174 259
f 259 174 173
f 358 359 357
f 357 359 360
f 362 363 361
f 361 363 364
f 361 364 365
f 365 364 366
f 367 368 370
f 370 368 369
f 76 371 247
f 247 371 372
f 373 374 362
f 362 374 363
f 376 377 375
f 375 377 378
f 289 229 380
f 380 229 379
f 381 379 263
f 263 379 229
f 383 384 382
f 382 384 385
f 386 368 374
f 374 368 363
f 76 289 371
f 371 289 380
f 377 376 359
f 359 376 387
f 388 386 360
f 360 386 374
f 389 383 366
f 366 383 390
f 392 393 391
f 391 393 394
f 383 382 390
f 390 382 395
f 396 365 390
f 390 365 366
f 389 366 367
f 367 366 364
f 357 397 358
f 358 397 398
f 373 399 357
f 357 399 397
f 389 367 400
f 400 367 370
f 382 385 375
f 375 385 372
f 357 360 373
f 373 360 374
f 361 401 362
f 362 401 402
f 387 388 359
f 359 388 360
f 363 368 364
f 364 368 367
f 358 398 403
f 403 398 404
f 396 392 405
f 405 392 391
f 392 395 393
f 393 395 378
f 393 403 394
f 394 403 404
f 375 378 382
f 382 378 395
f 365 396 406
f 406 396 405
f 362 402 373
f 373 402 399
f 271 270 400
f 400 270 384
f 401 361 406
f 406 361 365
f 381 369 386
f 386 369 368
f 392 396 395
f 395 396 390
f 393 378 403
f 403 378 377
f 403 377 358
f 358 377 359
f 406 405 408
f 408 405 407
f 406 408 401
f 401 408 409
f 401 409 402
f 402 409 410
f 402 410 399
f 399 410 411
f 405 391 407
f 407 391 412
f 391 394 412
f 412 394 413
f 394 404 413
f 413 404 414
f 415 416 412
f 412 416 407
f 418 419 417
f 417 419 420
f 421 422 418
f 418 422 419
f 419 422 424
f 424 422 423
f 425 426 424
f 424 426 427
f 423 428 424
f 424 428 425
f 427 420 424
f 424 420 419
f 420 429 417
f 417 429 430
f 423 422 431
f 431 422 421
f 421 409 431
f 431 409 408
f 421 432 409
f 409 432 410
f 418 433 421
f 421 433 432
f 434 433 417
f 417 433 418
f 431 416 423
f 423 416 428
f 416 431 407
f 407 431 408
f 435 434 430
f 430 434 417
f 433 434 436
f 436 434 437
f 434 435 437
f 437 435 438
f 436 437 439
f 439 437 440
f 439 441 436
f 436 441 442
f 438 443 437
f 437 443 440
f 436 442 433
f 433 442 432
f 432 442 410
f 410 442 411
f 435 430 445
f 445 430 444
f 430 429 444
f 444 429 446
f 425 428 447
f 447 428 416
f 426 425 448
f 448 425 447
f 416 415 447
f 447 415 449
f 447 449 448
f 448 449 450
f 451 452 448
f 448 452 426
f 446 452 444
f 444 452 451
f 399 411 397
f 397 411 453
f 398 454 404
f 404 454 414
f 454 398 453
f 453 398 397
f 453 441 454
f 454 441 455
f 441 439 455
f 455 439 456
f 454 455 414
f 414 455 457
f 441 453 442
f 442 453 411
f 458 413 457
f 457 413 414
f 458 415 413
f 413 415 412
f 458 459 415
f 415 459 449
f 459 458 460
f 460 458 457
f 461 459 462
f 462 459 460
f 455 456 457
f 457 456 460
f 456 463 460
f 460 463 462
f 459 461 449
f 449 461 450
f 465 450 464
f 464 450 461
f 464 467 466
f 466 467 468
f 464 461 467
f 467 461 462
f 464 466 465
f 465 466 445
f 465 445 451
f 451 445 444
f 451 448 465
f 465 448 450
f 439 440 456
f 456 440 463
f 468 463 443
f 443 463 440
f 468 467 463
f 463 467 462
f 466 468 438
f 438 468 443
f 438 435 466
f 466 435 445
f 420 427 429
f 429 427 446
f 446 427 452
f 452 427 426
f 370 369 188
f 188 369 186
f 371 376 372
f 372 376 375
f 380 379 387
f 387 379 388
f 379 381 388
f 388 381 386
f 385 384 278
f 278 384 270
f 380 387 371
f 371 387 376
f 400 370 271
f 271 370 188
f 385 278 372
f 372 278 247
f 400 384 389
f 389 384 383
f 369 381 186
f 186 381 263
f 221 271 144
f 144 271 188
f 221 19 207
f 207 19 22
f 19 18 22
f 22 18 23
f 18 219 23
f 23 219 208
f 469 470 472
f 472 470 471
f 474 475 473
f 473 475 476
f 473 476 477
f 477 476 478
f 480 481 479
f 479 481 482
f 483 484 474
f 474 484 475
f 486 487 485
f 485 487 488
f 489 490 77
f 77 490 142
f 491 489 248
f 248 489 77
f 493 494 492
f 492 494 495
f 496 480 484
f 484 480 475
f 486 497 487
f 487 497 471
f 498 496 472
f 472 496 484
f 499 493 478
f 478 493 500
f 501 502 504
f 504 502 503
f 493 492 500
f 500 492 505
f 506 477 500
f 500 477 478
f 499 478 479
f 479 478 476
f 469 507 470
f 470 507 508
f 483 509 469
f 469 509 507
f 479 482 499
f 499 482 510
f 492 495 485
f 485 495 511
f 483 469 484
f 484 469 472
f 473 512 474
f 474 512 513
f 497 498 471
f 471 498 472
f 475 480 476
f 476 480 479
f 470 508 514
f 514 508 515
f 506 502 516
f 516 502 501
f 503 502 488
f 488 502 505
f 514 515 503
f 503 515 504
f 485 488 492
f 492 488 505
f 477 506 517
f 517 506 516
f 474 513 483
f 483 513 509
f 510 292 494
f 494 292 164
f 512 473 517
f 517 473 477
f 491 481 496
f 496 481 480
f 502 506 505
f 505 506 500
f 503 488 514
f 514 488 487
f 514 487 470
f 470 487 471
f 517 516 519
f 519 516 518
f 517 519 512
f 512 519 520
f 512 520 513
f 513 520 521
f 513 521 509
f 509 521 522
f 516 501 518
f 518 501 523
f 501 504 523
f 523 504 524
f 524 504 525
f 525 504 515
f 526 527 523
f 523 527 518
f 529 530 528
f 528 530 531
f 532 533 529
f 529 533 530
f 530 533 535
f 535 533 534
f 536 537 535
f 535 537 538
f 534 539 535
f 535 539 536
f 538 531 535
f 535 531 530
f 540 541 531
f 531 541 528
f 533 532 534
f 534 532 542
f 532 520 542
f 542 520 519
f 532 543 520
f 520 543 521
f 529 544 532
f 532 544 543
f 544 529 545
f 545 529 528
f 534 542 539
f 539 542 527
f 527 542 518
f 518 542 519
f 541 546 528
f 528 546 545
f 547 544 548
f 548 544 545
f 546 549 545
f 545 549 548
f 550 547 551
f 551 547 548
f 547 550 553
f 553 550 552
f 549 554 548
f 548 554 551
f 544 547 543
f 543 547 553
f 543 553 521
f 521 553 522
f 546 541 556
f 556 541 555
f 541 540 555
f 555 540 557
f 536 539 558
f 558 539 527
f 537 536 559
f 559 536 558
f 527 526 558
f 558 526 560
f 559 558 561
f 561 558 560
f 559 562 537
f 537 562 563
f 557 563 555
f 555 563 562
f 509 522 507
f 507 522 564
f 508 565 515
f 515 565 525
f 565 508 564
f 564 508 507
f 564 552 565
f 565 552 566
f 552 550 566
f 566 550 567
f 565 566 525
f 525 566 568
f 564 522 552
f 552 522 553
f 569 524 568
f 568 524 525
f 569 526 524
f 524 526 523
f 570 560 569
f 569 560 526
f 570 569 571
f 571 569 568
f 572 570 573
f 573 570 571
f 566 567 568
f 568 567 571
f 567 574 571
f 571 574 573
f 570 572 560
f 560 572 561
f 576 561 575
f 575 561 572
f 575 578 577
f 577 578 579
f 575 572 578
f 578 572 573
f 575 577 576
f 576 577 556
f 576 556 562
f 562 556 555
f 562 559 576
f 576 559 561
f 550 551 567
f 567 551 574
f 579 574 554
f 554 574 551
f 579 578 574
f 574 578 573
f 579 554 577
f 577 554 549
f 549 546 577
f 577 546 556
f 531 538 540
f 540 538 557
f 557 538 563
f 563 538 537
f 481 294 482
f 482 294 293
f 580 486 511
f 511 486 485
f 490 489 497
f 497 489 498
f 489 491 498
f 498 491 496
f 163 495 164
f 164 495 494
f 580 490 486
f 486 490 497
f 482 293 510
f 510 293 292
f 495 163 511
f 511 163 199
f 494 493 510
f 510 493 499
f 481 491 294
f 294 491 248
f 582 583 581
f 581 583 584
f 586 587 585
f 585 587 588
f 585 588 589
f 589 588 590
f 592 593 591
f 591 593 594
f 595 596 598
f 598 596 597
f 599 600 586
f 586 600 587
f 601 602 604
f 604 602 603
f 605 606 608
f 608 606 607
f 609 607 200
f 200 607 606
f 610 611 613
f 613 611 612
f 600 614 587
f 587 614 592
f 596 605 597
f 597 605 608
f 602 615 603
f 603 615 583
f 616 614 584
f 584 614 600
f 611 618 617
f 617 618 590
f 620 621 619
f 619 621 622
f 610 623 611
f 611 623 618
f 624 589 618
f 618 589 590
f 617 590 591
f 591 590 588
f 581 625 582
f 582 625 626
f 599 627 581
f 581 627 625
f 591 594 617
f 617 594 628
f 601 610 598
f 598 610 613
f 581 584 599
f 599 584 600
f 585 629 586
f 586 629 630
f 615 616 583
f 583 616 584
f 587 592 588
f 588 592 591
f 582 626 631
f 631 626 632
f 624 620 633
f 633 620 619
f 621 620 604
f 604 620 623
f 631 632 621
f 621 632 622
f 610 601 623
f 623 601 604
f 589 624 634
f 634 624 633
f 586 630 599
f 599 630 627
f 203 202 628
f 628 202 612
f 629 585 634
f 634 585 589
f 609 593 614
f 614 593 592
f 620 624 623
f 623 624 618
f 631 621 603
f 603 621 604
f 582 631 583
f 583 631 603
f 634 633 636
f 636 633 635
f 634 636 629
f 629 636 637
f 629 637 630
f 630 637 638
f 630 638 627
f 627 638 639
f 633 619 635
f 635 619 640
f 619 622 640
f 640 622 641
f 641 622 642
f 642 622 632
f 644 635 643
f 643 635 640
f 645 646 648
f 648 646 647
f 649 650 646
f 646 650 647
f 647 650 652
f 652 650 651
f 652 653 655
f 655 653 654
f 651 656 652
f 652 656 653
f 655 648 652
f 652 648 647
f 648 657 645
f 645 657 658
f 650 649 651
f 651 649 659
f 649 637 659
f 659 637 636
f 649 660 637
f 637 660 638
f 661 660 646
f 646 660 649
f 662 661 645
f 645 661 646
f 651 659 656
f 656 659 644
f 644 659 635
f 635 659 636
f 663 662 658
f 658 662 645
f 664 661 665
f 665 661 662
f 663 666 662
f 662 666 665
f 667 664 668
f 668 664 665
f 664 667 670
f 670 667 669
f 666 671 665
f 665 671 668
f 661 664 660
f 660 664 670
f 660 670 638
f 638 670 639
f 658 672 663
f 663 672 673
f 658 657 672
f 672 657 674
f 653 656 675
f 675 656 644
f 653 675 654
f 654 675 676
f 675 644 677
f 677 644 643
f 676 675 678
f 678 675 677
f 679 680 676
f 676 680 654
f 674 680 672
f 672 680 679
f 627 639 625
f 625 639 681
f 626 682 632
f 632 682 642
f 681 682 625
f 625 682 626
f 669 683 681
f 681 683 682
f 667 684 669
f 669 684 683
f 682 683 642
f 642 683 685
f 681 639 669
f 669 639 670
f 686 641 685
f 685 641 642
f 641 686 640
f 640 686 643
f 686 687 643
f 643 687 677
f 687 686 688
f 688 686 685
f 689 687 690
f 690 687 688
f 683 684 685
f 685 684 688
f 684 691 688
f 688 691 690
f 687 689 677
f 677 689 678
f 693 678 692
f 692 678 689
f 692 695 694
f 694 695 696
f 692 689 695
f 695 689 690
f 692 694 693
f 693 694 673
f 693 673 679
f 679 673 672
f 679 676 693
f 693 676 678
f 684 667 691
f 691 667 668
f 696 691 671
f 671 691 668
f 696 695 691
f 691 695 690
f 694 696 666
f 666 696 671
f 666 663 694
f 694 663 673
f 648 655 657
f 657 655 674
f 674 655 680
f 680 655 654
f 593 162 594
f 594 162 290
f 598 597 601
f 601 597 602
f 615 608 616
f 616 608 607
f 607 609 616
f 616 609 614
f 697 595 613
f 613 595 598
f 597 608 602
f 602 608 615
f 594 290 628
f 628 290 203
f 628 612 617
f 617 612 611
f 593 609 162
f 162 609 200
f 105 29 698
f 698 29 699
f 268 126 701
f 701 126 700
f 126 125 700
f 700 125 702
f 252 703 250
f 250 703 704
f 32 268 705
f 705 268 701
f 288 105 706
f 706 105 698
f 29 32 699
f 699 32 705
f 707 251 706
f 706 251 288
f 250 704 125
f 125 704 702
f 703 252 707
f 707 252 251
f 706 708 707
f 707 708 709
f 707 709 703
f 703 709 710
f 703 710 704
f 704 710 711
f 704 711 702
f 702 711 712
f 706 698 708
f 708 698 713
f 698 699 713
f 713 699 714
f 699 705 714
f 714 705 715
f 717 708 716
f 716 708 713
f 719 720 718
f 718 720 721
f 722 723 719
f 719 723 720
f 724 725 723
f 723 725 720
f 724 726 725
f 725 726 727
f 728 721 725
f 725 721 720
f 721 728 729
f 729 728 730
f 729 731 721
f 721 731 718
f 724 723 732
f 732 723 722
f 722 710 732
f 732 710 709
f 722 733 710
f 710 733 711
f 719 734 722
f 722 734 733
f 734 719 735
f 735 719 718
f 724 732 726
f 726 732 717
f 717 732 708
f 708 732 709
f 731 736 718
f 718 736 735
f 737 734 738
f 738 734 735
f 736 739 735
f 735 739 738
f 740 737 741
f 741 737 738
f 737 740 743
f 743 740 742
f 739 744 738
f 738 744 741
f 734 737 733
f 733 737 743
f 733 743 711
f 711 743 712
f 736 731 746
f 746 731 745
f 731 729 745
f 745 729 730
f 727 726 747
f 747 726 717
f 748 727 749
f 749 727 747
f 747 717 750
f 750 717 716
f 749 747 751
f 751 747 750
f 749 752 748
f 748 752 753
f 730 753 745
f 745 753 752
f 728 725 748
f 748 725 727
f 730 728 753
f 753 728 748
f 700 702 754
f 754 702 712
f 705 701 715
f 715 701 755
f 754 755 700
f 700 755 701
f 742 756 754
f 754 756 755
f 740 757 742
f 742 757 756
f 755 756 715
f 715 756 758
f 754 712 742
f 742 712 743
f 759 714 758
f 758 714 715
f 714 759 713
f 713 759 716
f 759 760 716
f 716 760 750
f 760 759 761
f 761 759 758
f 762 760 763
f 763 760 761
f 756 757 758
f 758 757 761
f 757 764 761
f 761 764 763
f 760 762 750
f 750 762 751
f 766 751 765
f 765 751 762
f 767 765 769
f 769 765 768
f 765 762 768
f 768 762 763
f 765 767 766
f 766 767 746
f 766 746 752
f 752 746 745
f 752 749 766
f 766 749 751
f 757 740 764
f 764 740 741
f 769 764 744
f 744 764 741
f 769 768 764
f 764 768 763
f 767 769 739
f 739 769 744
f 739 736 767
f 767 736 746
f 219 217 208
f 208 217 209
f 209 217 210
f 210 217 193
f 198 580 199
f 199 580 511
f 76 75 289
f 289 75 272
f 277 207 291
f 291 207 184
f 290 183 203
f 203 183 84
f 490 580 142
f 142 580 198
f 142 198 143
f 143 198 197
f 149 276 72
f 72 276 73
f 104 103 279
f 279 103 770
f 770 596 279
f 279 596 595
f 605 596 771
f 771 596 770
f 771 770 772
f 772 770 103
f 772 103 773
f 773 103 102
f 155 774 101
f 101 774 102
f 773 102 97
f 97 102 774
f 775 773 100
f 100 773 97
f 773 775 772
f 772 775 776
f 772 776 771
f 771 776 777
f 200 606 197
f 197 606 777
f 189 71 778
f 778 71 74
f 97 774 98
f 98 774 155
f 183 161 184
f 184 161 291
f 777 276 197
f 197 276 143
f 777 606 771
f 771 606 605
f 613 612 697
f 697 612 202
f 595 697 279
f 279 697 202
f 73 276 776
f 776 276 777
f 776 775 73
f 73 775 74
f 100 778 775
f 775 778 74
f 778 100 189
f 189 100 99
f 245 242 99
f 99 242 189
f 131 33 256
f 28 1 95
f 95 1 62
f 27 2 28
f 28 2 1
f 265 115 266
f 266 115 114
f 95 62 69
f 69 62 64
f 62 61 64
f 64 61 65
f 61 13 65
f 65 13 130
f 13 12 130
f 130 12 14
f 31 11 32
f 32 11 268
f 15 12 31
f 31 12 11
f 31 30 15
f 15 30 231
f 30 106 231
f 231 106 232
f 287 237 106
f 106 237 232
f 254 90 287
f 287 90 237
f 253 44 254
f 254 44 90
f 253 249 44
f 44 249 7
f 267 127 268
f 268 127 126
f 10 3 241
f 241 3 116
f 3 2 116
f 116 2 114
f 2 27 114
f 114 27 266
f 27 26 266
f 266 26 113
f 26 286 113
f 113 286 110
f 286 243 110
f 110 243 255
f 243 242 255
f 255 242 256
f 242 245 256
f 256 245 131
f 245 244 131
f 131 244 132
f 265 37 115
f 115 37 41
f 41 37 42
f 42 37 40
f 92 91 40
f 40 91 42
f 236 233 92
f 92 233 91
f 191 194 236
f 236 194 233
f 258 285 244
f 244 285 132
f 257 55 258
f 258 55 285
f 257 154 201
f 201 154 185
f 56 201 204
f 204 201 180
f 55 257 56
f 56 257 201
f 204 85 56
f 56 85 52
f 86 122 53
f 53 122 79
f 212 215 86
f 86 215 122
f 211 216 212
f 212 216 215
f 192 280 211
f 211 280 216
f 191 240 192
f 192 240 280
f 249 124 7
f 7 124 8
f 124 127 8
f 8 127 241
f 127 267 241
f 241 267 10
f 10 267 9
f 9 267 11
o hand_right
v -0.029347 0.017889 0.668360
v -0.037310 0.024530 0.672110
v -0.033917 0.014913 0.673042
v -0.027998 0.008890 0.669184
v -0.048808 0.019135 0.686640
v -0.060439 0.014574 0.687245
v -0.049709 0.001350 0.685668
v -0.041418 0.007999 0.685935
v -0.026605 0.001617 0.667053
v -0.030855 0.007208 0.673208
v -0.027993 -0.000773 0.661801
v -0.024726 -0.005920 0.652659
v -0.022685 -0.003637 0.660081
v -0.018925 -0.008993 0.648170
v -0.031617 -0.001951 0.644770
v -0.017733 -0.004987 0.639526
v -0.025180 0.023041 0.635929
v -0.020468 0.035546 0.637091
v -0.004779 0.027569 0.634553
v -0.011106 0.015319 0.634699
v -0.002827 0.047247 0.641611
v -0.003134 0.036077 0.637598
v -0.018830 0.044255 0.638803
v -0.017886 0.053770 0.642536
v -0.028798 0.033321 0.668662
v -0.037258 0.039967 0.671761
v -0.038152 0.034732 0.670939
v -0.030017 0.028164 0.668166
v -0.033626 -0.006947 0.661125
v -0.041904 -0.003711 0.655077
v -0.034050 -0.002875 0.655804
v -0.029648 -0.004570 0.664156
v -0.052963 0.060368 0.684121
v -0.064452 0.066126 0.679912
v -0.067306 0.061071 0.678803
v -0.056165 0.056991 0.682513
v -0.071956 0.037234 0.682384
v -0.077235 0.045690 0.676182
v -0.086938 0.041994 0.666969
v -0.081653 0.032795 0.669402
v -0.066246 0.025551 0.686542
v -0.076065 0.021716 0.676901
v -0.068272 0.009727 0.679799
v -0.055522 -0.003866 0.680251
v -0.058536 0.077515 0.679438
v -0.049298 0.074931 0.683004
v 0.010779 -0.022348 0.668384
v 0.011844 -0.016451 0.670027
v 0.012041 -0.016004 0.669621
v 0.010976 -0.021832 0.667940
v -0.046837 0.086354 0.665465
v -0.046971 0.086396 0.655399
v -0.052667 0.090407 0.657600
v -0.053843 0.088937 0.666814
v -0.037611 0.082889 0.663698
v -0.039256 0.080322 0.652850
v 0.022010 -0.028490 0.667816
v 0.016723 -0.028855 0.668154
v 0.017737 -0.028509 0.664413
v 0.023109 -0.027368 0.662814
v -0.022113 0.002348 0.665106
v -0.021744 0.011463 0.666849
v -0.008024 -0.005216 0.661450
v -0.012376 0.002046 0.662709
v -0.016530 -0.003397 0.660844
v -0.012224 -0.008808 0.658776
v -0.007855 0.025194 0.664635
v -0.017984 0.030708 0.666315
v -0.018895 0.024266 0.665381
v -0.008537 0.016581 0.664166
v -0.013772 0.043470 0.670856
v -0.004217 0.037119 0.668306
v -0.003043 0.045174 0.671101
v -0.009943 0.048050 0.673452
v 0.009968 0.023755 0.662966
v 0.014137 0.019993 0.661739
v 0.015138 0.022980 0.662867
v 0.010503 0.027376 0.663725
v -0.058618 0.094174 0.658658
v -0.060908 0.090704 0.667563
v 0.000018 0.066338 0.651987
v -0.002619 0.072614 0.660990
v 0.010843 0.068305 0.660935
v 0.010420 0.062833 0.650380
v -0.048631 0.080730 0.646880
v -0.053461 0.086774 0.648276
v 0.027232 -0.024456 0.667991
v 0.028793 -0.023515 0.663174
v -0.072088 0.010673 0.666950
v -0.058536 -0.005351 0.671046
v -0.079438 0.024502 0.662166
v -0.083305 0.034548 0.657558
v -0.088656 0.041533 0.654969
v -0.006643 0.005244 0.662985
v -0.023331 0.020612 0.666649
v -0.027417 0.038013 0.669737
v -0.013879 0.063563 0.680570
v -0.023178 0.067904 0.682646
v -0.023881 0.057257 0.681188
v -0.015595 0.055778 0.679062
v -0.002435 0.072206 0.670979
v -0.002938 0.066095 0.676360
v 0.005060 0.063007 0.674520
v 0.007941 0.068312 0.669538
v -0.039149 -0.011955 0.661243
v -0.049235 -0.004612 0.655871
v -0.048295 0.082837 0.675359
v -0.056086 0.083608 0.675170
v -0.063889 0.086537 0.673415
v -0.045932 0.049035 0.678798
v -0.058466 0.054552 0.681682
v -0.059967 0.050122 0.682012
v -0.047049 0.046444 0.677552
v -0.044517 0.029948 0.679379
v -0.055733 0.032790 0.685984
v -0.038358 0.019375 0.680219
v -0.072718 0.054978 0.677592
v -0.076616 0.065355 0.677962
v -0.081383 0.058219 0.675535
v -0.071815 0.073908 0.678236
v -0.067262 0.081473 0.676985
v -0.059165 0.092969 0.646794
v -0.084831 0.051544 0.671749
v -0.036621 0.000537 0.684366
v -0.032305 -0.005601 0.683147
v -0.028061 -0.001517 0.677961
v -0.031428 0.004357 0.678561
v -0.010737 -0.012695 0.645972
v -0.012358 -0.012398 0.653804
v -0.019649 -0.007909 0.655749
v -0.041339 0.059966 0.684187
v -0.038758 0.072357 0.683473
v -0.002437 -0.002064 0.661800
v 0.020866 -0.025532 0.658093
v 0.015495 -0.027267 0.660740
v 0.001544 -0.019854 0.651564
v 0.007036 -0.017951 0.647452
v 0.006891 -0.001660 0.658373
v 0.000816 -0.003737 0.661930
v 0.002854 -0.003940 0.661922
v 0.008988 -0.001299 0.660953
v 0.015030 0.031984 0.665827
v 0.010643 0.035702 0.666583
v 0.003115 0.008145 0.637565
v -0.004789 -0.001923 0.633287
v -0.016378 0.004456 0.634315
v -0.006507 0.032333 0.666424
v 0.002783 0.028120 0.665075
v 0.003827 0.032050 0.665948
v -0.002070 0.006374 0.662310
v 0.002520 0.001598 0.660828
v 0.003290 0.006682 0.660357
v -0.001204 0.011741 0.662563
v -0.015312 0.077166 0.661205
v -0.014598 0.076916 0.672911
v 0.012641 -0.026714 0.668032
v 0.013123 -0.026502 0.666217
v -0.016469 0.037565 0.668088
v -0.028983 0.012625 0.637510
v -0.025908 0.043050 0.671320
v 0.017502 0.045170 0.651026
v 0.018444 0.045763 0.659099
v 0.021721 0.041492 0.661951
v 0.023316 0.040070 0.656388
v 0.019599 -0.006701 0.667329
v 0.015151 -0.009361 0.670456
v 0.015911 -0.010817 0.669670
v 0.021511 -0.008539 0.668504
v -0.003675 -0.007588 0.661881
v -0.007167 -0.012067 0.659398
v -0.002680 -0.013646 0.661342
v 0.000166 -0.008414 0.662606
v -0.006668 -0.015656 0.654196
v -0.002113 -0.017934 0.656466
v 0.024780 -0.008061 0.663111
v 0.027854 -0.014511 0.659359
v 0.015128 -0.005965 0.648961
v 0.014780 -0.002295 0.655884
v -0.031754 0.060394 0.641881
v -0.028899 0.069821 0.647132
v -0.014901 0.063585 0.647705
v -0.000343 0.058224 0.647176
v 0.012578 0.051950 0.647302
v 0.010232 0.042387 0.640242
v -0.014388 0.070613 0.652061
v 0.008787 0.002792 0.649028
v 0.006842 -0.000251 0.642306
v 0.008117 0.004814 0.642844
v -0.023126 0.048997 0.674880
v 0.011290 -0.025640 0.664442
v -0.073948 0.047130 0.639372
v -0.066852 0.058195 0.636511
v -0.060842 0.051823 0.637023
v -0.068767 0.039328 0.641117
v 0.010991 -0.015254 0.671241
v 0.009097 -0.021139 0.668617
v 0.013443 0.041025 0.669195
v 0.017367 0.036840 0.667976
v 0.019574 0.038886 0.667519
v 0.017198 0.043806 0.670628
v -0.028905 0.074764 0.650544
v 0.018641 0.062883 0.665657
v 0.017751 0.058891 0.654462
v -0.041078 0.074876 0.646341
v -0.043610 0.066970 0.641159
v -0.051861 0.072233 0.640763
v 0.011263 0.027440 0.639788
v -0.032188 0.052231 0.638914
v -0.044754 0.059712 0.638962
v -0.054663 0.065670 0.638391
v -0.061340 0.070662 0.637532
v -0.057604 0.077319 0.640348
v 0.025678 -0.020699 0.658005
v 0.031161 -0.016605 0.665098
v -0.063782 0.083744 0.638388
v -0.067874 0.075795 0.635937
v -0.047220 0.050996 0.637300
v -0.050811 0.040317 0.636873
v -0.034982 0.044075 0.637546
v -0.037407 0.032926 0.636790
v 0.006603 0.020520 0.632380
v 0.024451 -0.014715 0.681914
v 0.026845 -0.012108 0.671908
v 0.021373 -0.009827 0.671471
v 0.021299 -0.011749 0.681446
v 0.026870 -0.010293 0.666979
v 0.029358 -0.017307 0.670210
v -0.043005 0.020013 0.639772
v 0.007515 0.002838 0.658052
v -0.059041 0.025851 0.643199
v -0.044003 0.004178 0.644292
v -0.055713 0.007901 0.649313
v -0.075484 0.029808 0.648531
v -0.069688 0.014563 0.653883
v -0.084966 0.045189 0.645085
v -0.079215 0.038497 0.646072
v -0.061442 0.000679 0.659328
v 0.009355 -0.020349 0.676770
v 0.011370 -0.014585 0.677587
v -0.079914 0.052839 0.638160
v -0.034205 0.010698 0.679275
v -0.033195 0.051749 0.678146
v -0.034869 0.047235 0.675206
v -0.029217 0.069867 0.683261
v -0.031631 0.058329 0.682429
v 0.010962 -0.025690 0.676556
v 0.017700 0.019484 0.659561
v 0.016328 0.021307 0.658787
v -0.042945 -0.005453 0.685179
v -0.038423 -0.010253 0.683916
v -0.042438 -0.017058 0.673092
v -0.041510 -0.015236 0.680088
v -0.048150 -0.010557 0.680404
v -0.049804 -0.012443 0.673078
v -0.044594 0.051040 0.679937
v -0.042658 0.054158 0.681407
v -0.027050 0.080517 0.662761
v -0.025677 0.079575 0.674240
v -0.004200 -0.015795 0.648114
v -0.006925 -0.009740 0.639283
v 0.000022 -0.013024 0.643168
v 0.010567 -0.011852 0.645305
v 0.009700 0.001379 0.654644
v 0.009459 -0.000099 0.652559
v -0.058152 0.042277 0.684124
v -0.047176 0.039908 0.677708
v -0.029355 0.002907 0.671756
v -0.026768 -0.001238 0.670670
v -0.000732 0.019819 0.663438
v 0.018147 0.019887 0.645655
v 0.014126 0.014222 0.639322
v 0.006268 0.014959 0.661170
v 0.018654 -0.028478 0.678701
v 0.013870 -0.028020 0.677437
v 0.003380 -0.007380 0.640117
v 0.005139 0.039707 0.669317
v 0.016763 0.026377 0.646605
v 0.020082 0.020763 0.653091
v 0.013074 0.064613 0.671271
v -0.073829 0.063727 0.635901
v 0.015667 -0.010912 0.671422
v 0.015127 -0.010855 0.678666
v 0.025841 -0.018771 0.680780
v 0.023976 -0.024757 0.678771
v -0.036610 0.080291 0.675538
v -0.035640 0.044043 0.673326
v -0.051784 -0.008977 0.663189
v -0.041929 -0.015080 0.665703
v 0.009637 0.012024 0.659688
v 0.017838 0.050979 0.654209
v 0.018019 0.037820 0.645469
v 0.024947 0.032916 0.651177
v 0.023604 0.025498 0.651480
v 0.020600 0.020710 0.655781
v 0.023446 -0.018827 0.686732
v 0.021695 -0.024555 0.684983
v 0.016485 -0.028025 0.683947
v 0.012357 -0.027643 0.681811
v 0.009906 -0.024626 0.679724
v 0.021944 -0.014507 0.687566
v 0.019076 -0.011913 0.686513
v 0.014643 -0.010872 0.681872
v 0.018661 -0.013576 0.691336
v 0.018385 -0.018242 0.694159
v 0.006127 -0.025483 0.693826
v 0.011462 -0.026763 0.691213
v 0.011217 -0.025546 0.693819
v 0.007198 -0.024251 0.696700
v 0.004139 -0.022434 0.700614
v 0.002327 -0.023767 0.697867
v 0.015465 -0.023349 0.693625
v 0.010495 -0.021200 0.697991
v 0.012283 -0.017343 0.698512
v 0.008379 -0.016296 0.702466
v 0.006803 -0.019738 0.702286
v 0.015757 -0.019201 0.695790
v 0.017425 -0.024034 0.691998
v 0.000785 -0.021076 0.701424
v 0.002820 -0.021112 0.702944
v 0.004541 -0.018537 0.704188
v 0.001785 -0.017109 0.704485
v 0.009501 -0.026713 0.685568
v 0.004301 -0.024935 0.691933
v 0.000839 -0.021685 0.695909
v -0.000459 -0.019192 0.699654
v 0.002487 -0.021301 0.690821
v 0.000437 -0.019030 0.694585
v -0.000409 -0.016479 0.697665
v 0.002205 -0.016961 0.690404
v 0.000786 -0.015826 0.694100
v 0.008269 -0.019601 0.681426
v 0.008625 -0.023929 0.681693
v -0.000289 -0.014799 0.696250
v 0.000844 -0.015381 0.703371
v 0.014017 -0.014378 0.696979
v 0.008298 -0.013329 0.701225
v 0.013434 -0.012268 0.695801
v 0.008119 -0.011139 0.700301
v 0.005116 -0.013483 0.704483
v 0.005950 -0.015915 0.704162
v 0.009456 -0.019497 0.678664
v 0.011631 -0.013633 0.679630
v 0.010693 -0.013692 0.682076
v 0.004140 -0.012414 0.690701
v 0.013142 -0.010835 0.684556
v 0.015908 -0.011109 0.689815
v 0.011118 -0.010443 0.694816
v 0.008192 -0.009875 0.692880
v 0.006848 -0.010115 0.698246
v 0.005112 -0.010405 0.696362
v 0.002138 -0.012365 0.694637
v 0.003386 -0.011016 0.700337
v 0.004409 -0.011981 0.702974
v 0.000621 -0.013694 0.700363
v 0.003075 -0.010809 0.698398
v 0.001123 -0.013106 0.697785
v 0.024689 -0.000943 0.671357
v 0.026818 0.005063 0.673500
v 0.028459 0.003090 0.671077
v 0.026818 -0.001880 0.668971
v 0.036589 -0.009113 0.670323
v 0.030084 -0.008322 0.670659
v 0.033098 -0.009037 0.665394
v 0.039846 -0.007913 0.664363
v 0.042453 -0.004635 0.670999
v 0.044746 -0.002678 0.664614
v 0.037531 -0.006074 0.658883
v 0.030906 -0.007674 0.661656
v 0.015596 0.000584 0.651121
v 0.020160 0.002903 0.646753
v 0.016307 0.014560 0.662722
v 0.019378 0.016454 0.661481
v 0.026031 -0.004914 0.670830
v 0.028386 -0.006220 0.667266
v 0.032249 0.010616 0.670935
v 0.028103 0.007273 0.672316
v 0.030307 0.007686 0.672284
v 0.035447 0.009716 0.672539
v 0.011836 0.003541 0.658233
v 0.013748 0.009331 0.660508
v 0.013033 0.001308 0.655087
v 0.038271 0.011109 0.667565
v 0.042615 0.007856 0.663123
v 0.027354 0.015387 0.650258
v 0.025966 0.017870 0.656077
v 0.026933 -0.006298 0.664998
v 0.025835 0.001693 0.671785
v 0.024689 -0.002926 0.669031
v 0.041141 0.000841 0.658766
v 0.045115 0.004586 0.669205
v 0.035046 0.005481 0.687382
v 0.039391 0.007716 0.676984
v 0.034662 0.009755 0.676656
v 0.030808 0.008429 0.687068
v 0.040860 0.008512 0.671480
v 0.042509 0.002929 0.675132
v 0.019742 0.000334 0.683266
v 0.021961 0.006194 0.684793
v 0.020696 -0.004180 0.683127
v 0.024324 0.008979 0.645907
v 0.030398 -0.008860 0.682910
v 0.023817 -0.007277 0.682745
v 0.029830 0.009433 0.674807
v 0.025829 0.009033 0.686367
v 0.037246 0.001433 0.686693
v 0.036441 -0.005199 0.683367
v 0.034511 0.000612 0.691981
v 0.032983 -0.005477 0.690114
v 0.026883 -0.008961 0.688885
v 0.021487 -0.006953 0.687210
v 0.019310 -0.003699 0.686270
v 0.032733 0.004856 0.692329
v 0.028978 0.008031 0.691401
v 0.024574 0.008314 0.688502
v 0.028371 0.006272 0.697377
v 0.029319 0.002109 0.698925
v 0.012478 -0.003396 0.704593
v 0.016420 -0.005215 0.700383
v 0.018277 -0.004510 0.702151
v 0.014811 -0.002914 0.706164
v 0.021757 -0.007190 0.697419
v 0.022061 -0.005647 0.699561
v 0.025885 -0.002999 0.699758
v 0.021432 -0.001177 0.703689
v 0.023891 0.003049 0.703505
v 0.020610 0.004281 0.708093
v 0.018185 0.000071 0.708607
v 0.026696 0.000649 0.700967
v 0.013293 -0.001223 0.709008
v 0.010929 -0.000101 0.708928
v 0.028131 -0.004413 0.697731
v 0.019473 -0.006771 0.691594
v 0.014070 -0.004177 0.698632
v 0.010290 -0.001322 0.703300
v 0.009789 0.002625 0.708079
v 0.012227 -0.000572 0.697376
v 0.009575 0.001712 0.702380
v 0.009811 0.004814 0.706399
v 0.011966 0.004133 0.696552
v 0.010051 0.005907 0.701828
v 0.017701 0.001352 0.687727
v 0.017476 -0.003290 0.688826
v 0.010099 0.006280 0.704482
v 0.013628 0.002817 0.711820
v 0.011860 0.005403 0.710509
v 0.015035 0.001677 0.711219
v 0.024480 0.005047 0.703109
v 0.020123 0.006457 0.707723
v 0.023812 0.007708 0.702361
v 0.019079 0.008656 0.707472
v 0.016826 0.006339 0.711137
v 0.017225 0.004638 0.711234
v 0.019292 0.000614 0.685782
v 0.021564 0.005734 0.686650
v 0.020267 0.006425 0.688099
v 0.014798 0.008614 0.697142
v 0.023773 0.008991 0.690265
v 0.026589 0.008599 0.695103
v 0.022438 0.009611 0.700730
v 0.018860 0.010481 0.699008
v 0.018378 0.010451 0.706378
v 0.016792 0.010812 0.703478
v 0.012513 0.009192 0.701889
v 0.014955 0.009561 0.709383
v 0.015929 0.007853 0.710767
v 0.011465 0.006815 0.708767
v 0.014424 0.010318 0.706516
v 0.011445 0.008248 0.705842
v 0.024484 0.019168 0.678588
v 0.026357 0.024477 0.680337
v 0.026829 0.024650 0.677759
v 0.025993 0.019248 0.676068
v 0.034629 0.011549 0.677542
v 0.029726 0.011905 0.677786
v 0.031321 0.012322 0.673216
v 0.036281 0.012537 0.671410
v 0.038821 0.014486 0.680112
v 0.041097 0.015929 0.671694
v 0.035459 0.014319 0.666227
v 0.030754 0.013268 0.669567
v 0.023176 0.019112 0.658953
v 0.028170 0.021587 0.655759
v 0.026137 0.015061 0.678006
v 0.027531 0.015301 0.674805
v 0.030942 0.030853 0.678049
v 0.026869 0.027966 0.678526
v 0.030387 0.028420 0.679243
v 0.035000 0.029123 0.679662
v 0.015958 0.023864 0.664969
v 0.016923 0.029636 0.666446
v 0.018831 0.020387 0.662739
v 0.036814 0.030277 0.674928
v 0.040890 0.026282 0.670136
v 0.030984 0.034698 0.661137
v 0.027161 0.036908 0.665269
v 0.026967 0.014998 0.672443
v 0.023795 0.023781 0.677304
v 0.023746 0.018573 0.675137
v 0.039049 0.019772 0.666374
v 0.042743 0.022180 0.675448
v 0.034919 0.022165 0.697457
v 0.039503 0.025633 0.682499
v 0.034373 0.028548 0.682647
v 0.031811 0.025386 0.697305
v 0.040013 0.026930 0.678684
v 0.041299 0.020522 0.681369
v 0.020071 0.018889 0.693177
v 0.022735 0.023737 0.693993
v 0.021563 0.014910 0.691960
v 0.031550 0.027903 0.656022
v 0.021485 0.035867 0.668008
v 0.027723 0.010775 0.693291
v 0.023735 0.012273 0.692283
v 0.030261 0.028063 0.681621
v 0.027353 0.026438 0.695997
v 0.035914 0.017667 0.696028
v 0.033430 0.012591 0.693778
v 0.034299 0.018143 0.701436
v 0.031446 0.013112 0.699676
v 0.026143 0.011090 0.699291
v 0.022325 0.012774 0.697982
v 0.020245 0.015462 0.697218
v 0.033372 0.022623 0.702430
v 0.030623 0.025306 0.701846
v 0.026869 0.025867 0.698066
v 0.031677 0.023630 0.706306
v 0.031886 0.018532 0.708146
v 0.017997 0.015168 0.716976
v 0.019956 0.014019 0.711697
v 0.021074 0.014231 0.712241
v 0.019553 0.015036 0.717718
v 0.024162 0.012135 0.706626
v 0.024234 0.012884 0.708563
v 0.027958 0.014328 0.708598
v 0.025601 0.015913 0.714397
v 0.028416 0.021140 0.713657
v 0.026195 0.021510 0.718162
v 0.023770 0.016645 0.719369
v 0.030273 0.018053 0.709568
v 0.019411 0.016208 0.720689
v 0.017603 0.015625 0.721173
v 0.029283 0.013736 0.706479
v 0.020385 0.012856 0.703561
v 0.017409 0.014794 0.710475
v 0.015083 0.016006 0.715816
v 0.015331 0.018136 0.719685
v 0.015887 0.018076 0.709205
v 0.014452 0.018851 0.714439
v 0.014630 0.020624 0.717990
v 0.016002 0.021280 0.708517
v 0.015012 0.021897 0.713385
v 0.019284 0.019547 0.699117
v 0.018983 0.015811 0.701028
v 0.015102 0.022359 0.716543
v 0.020781 0.018664 0.723141
v 0.018498 0.022082 0.722124
v 0.021680 0.018061 0.721785
v 0.029163 0.022657 0.712864
v 0.026361 0.023839 0.718634
v 0.028447 0.025163 0.711795
v 0.025523 0.026252 0.717577
v 0.024138 0.022476 0.721894
v 0.024230 0.021363 0.721407
v 0.020288 0.019333 0.696144
v 0.022760 0.023708 0.696456
v 0.021701 0.023766 0.699064
v 0.018146 0.025352 0.708948
v 0.025706 0.026090 0.700414
v 0.028930 0.025968 0.705578
v 0.025838 0.026811 0.710769
v 0.022195 0.027213 0.710082
v 0.023477 0.027511 0.716130
v 0.021326 0.027198 0.714276
v 0.016796 0.025554 0.713536
v 0.021058 0.025995 0.719062
v 0.022890 0.024821 0.721053
v 0.017144 0.023818 0.719840
v 0.019585 0.026496 0.717106
v 0.016634 0.024785 0.717555
v 0.018702 0.033610 0.667840
v 0.020298 0.034477 0.684247
v 0.021772 0.038087 0.686120
v 0.022795 0.037581 0.685637
v 0.020785 0.034539 0.682738
v 0.028815 0.028706 0.678899
v 0.024201 0.028975 0.680592
v 0.025101 0.029643 0.676275
v 0.029431 0.029938 0.674417
v 0.033430 0.031653 0.679280
v 0.034072 0.033294 0.675816
v 0.028392 0.032942 0.671595
v 0.024165 0.031904 0.673332
v 0.018588 0.043099 0.662903
v 0.021579 0.046729 0.660360
v 0.017595 0.060211 0.675089
v 0.013285 0.057813 0.676350
v 0.019153 0.052444 0.680193
v 0.022508 0.054795 0.678419
v 0.021438 0.031306 0.682399
v 0.021445 0.031660 0.679261
v 0.030697 0.042969 0.686072
v 0.026030 0.041136 0.686640
v 0.025580 0.040441 0.687187
v 0.030074 0.042249 0.688028
v 0.012363 0.052705 0.675844
v 0.013656 0.048251 0.673100
v 0.015106 0.046542 0.675517
v 0.017136 0.048319 0.679036
v 0.016550 0.043182 0.670391
v 0.034121 0.042639 0.682894
v 0.035900 0.040066 0.677656
v 0.026800 0.056444 0.669255
v 0.024971 0.056692 0.674034
v 0.022247 0.032139 0.677384
v 0.022492 0.038264 0.684536
v 0.021814 0.034764 0.682303
v 0.033078 0.036527 0.672379
v 0.035879 0.037669 0.681009
v 0.032802 0.038151 0.693406
v 0.033652 0.040748 0.687316
v 0.029334 0.042652 0.688646
v 0.030113 0.040126 0.693855
v 0.033976 0.040878 0.685777
v 0.035217 0.036420 0.684300
v 0.019351 0.034079 0.690526
v 0.022234 0.038280 0.692064
v 0.019763 0.030993 0.689325
v 0.024518 0.052156 0.662184
v 0.026042 0.027087 0.688080
v 0.021838 0.028308 0.688987
v 0.024831 0.040772 0.687824
v 0.026110 0.040342 0.693402
v 0.033985 0.034008 0.691584
v 0.031605 0.029230 0.688339
v 0.032940 0.032570 0.695368
v 0.030024 0.028034 0.692802
v 0.023690 0.026882 0.692827
v 0.020562 0.028967 0.692237
v 0.018992 0.031734 0.692268
v 0.032089 0.037264 0.696362
v 0.029738 0.039466 0.696151
v 0.025982 0.040137 0.694833
v 0.031306 0.036429 0.699984
v 0.030508 0.031866 0.701018
v 0.018928 0.031233 0.707724
v 0.019556 0.030297 0.703753
v 0.020665 0.030006 0.704096
v 0.019627 0.030438 0.708029
v 0.021830 0.028277 0.699170
v 0.022651 0.028641 0.700711
v 0.026257 0.028864 0.700020
v 0.024857 0.029821 0.705042
v 0.028707 0.033420 0.706125
v 0.027153 0.033692 0.709895
v 0.024078 0.030260 0.708696
v 0.029241 0.031110 0.702192
v 0.020054 0.030497 0.710742
v 0.019098 0.030993 0.711651
v 0.027160 0.027927 0.698232
v 0.018884 0.030209 0.697079
v 0.017499 0.031788 0.703863
v 0.017263 0.032515 0.708901
v 0.018682 0.033153 0.712385
v 0.017018 0.033988 0.702725
v 0.016593 0.034708 0.708678
v 0.018099 0.035364 0.711945
v 0.017705 0.037167 0.702044
v 0.017482 0.037032 0.707802
v 0.018897 0.036617 0.695447
v 0.018047 0.033233 0.696112
v 0.018510 0.036625 0.710721
v 0.022540 0.031745 0.713302
v 0.021442 0.034450 0.713683
v 0.023374 0.030942 0.712226
v 0.029370 0.034571 0.705972
v 0.027476 0.035114 0.710563
v 0.029367 0.037018 0.705566
v 0.026769 0.037148 0.710567
v 0.025319 0.034084 0.713144
v 0.025511 0.032711 0.711895
v 0.019083 0.035604 0.693148
v 0.021864 0.038365 0.693453
v 0.022030 0.039342 0.695788
v 0.020676 0.039881 0.702173
v 0.026436 0.040479 0.697027
v 0.029785 0.039036 0.698695
v 0.027866 0.039170 0.704821
v 0.024983 0.040624 0.703745
v 0.025247 0.038667 0.710275
v 0.022871 0.039884 0.708851
v 0.019818 0.039364 0.707802
v 0.022738 0.037170 0.712654
v 0.023942 0.035940 0.713410
v 0.020694 0.036223 0.712908
v 0.021611 0.038233 0.711496
v 0.020099 0.037701 0.711201
v 0.020657 0.059864 0.672387
v -0.026971 -0.016655 0.665242
v -0.023715 -0.012471 0.665884
v -0.022811 -0.009728 0.682378
v -0.019792 -0.008468 0.676039
v -0.027205 -0.014280 0.685425
v -0.033889 -0.022297 0.680549
v -0.031735 -0.018175 0.684257
v -0.020394 -0.009772 0.669997
v -0.031045 -0.020782 0.667228
v -0.034583 -0.023452 0.673444
v -0.023853 -0.025986 0.668510
v -0.028046 -0.029103 0.675016
v -0.028914 -0.028412 0.682265
v -0.028201 -0.021611 0.686596
v -0.025707 -0.017095 0.687695
v -0.021206 -0.018938 0.667732
v -0.018878 -0.014442 0.668969
v -0.017492 -0.010438 0.673748
v -0.013110 -0.021005 0.670896
v -0.008539 -0.028791 0.676394
v -0.005047 -0.033820 0.695652
v -0.011000 -0.031458 0.692837
v -0.009578 -0.032717 0.690656
v -0.004454 -0.035266 0.693491
v -0.014896 -0.031520 0.688597
v -0.012778 -0.031810 0.687449
v -0.011683 -0.031452 0.682295
v -0.006555 -0.033331 0.685175
v -0.007867 -0.029577 0.679217
v -0.003533 -0.029916 0.680933
v -0.001531 -0.035504 0.687668
v -0.000730 -0.037293 0.693489
v 0.002741 -0.037070 0.690077
v 0.000277 -0.035478 0.696089
v -0.013331 -0.033484 0.680648
v -0.020159 -0.027121 0.690521
v -0.012586 -0.028527 0.694710
v -0.005304 -0.030344 0.697419
v 0.000764 -0.032282 0.697084
v -0.011978 -0.023881 0.695441
v -0.005010 -0.025869 0.696666
v 0.000530 -0.027306 0.695588
v -0.009885 -0.019561 0.693384
v -0.003706 -0.022657 0.694207
v -0.019701 -0.014290 0.687316
v -0.021709 -0.020180 0.690885
v -0.000210 -0.024983 0.693934
v 0.005132 -0.035913 0.691862
v 0.005500 -0.032219 0.692808
v -0.002915 -0.027360 0.678487
v 0.001347 -0.032121 0.683083
v 0.002440 -0.029296 0.682148
v -0.003180 -0.023412 0.677270
v 0.002990 -0.026461 0.682224
v 0.005760 -0.032572 0.686263
v 0.003602 -0.034624 0.685968
v -0.022209 -0.012041 0.685307
v -0.019304 -0.009637 0.679590
v -0.017345 -0.011400 0.681636
v -0.007207 -0.016512 0.687609
v -0.014169 -0.012052 0.676615
v -0.012753 -0.016170 0.672594
v -0.003370 -0.019808 0.678512
v -0.004758 -0.016921 0.682084
v 0.002160 -0.023283 0.683986
v 0.000611 -0.021592 0.686084
v -0.001390 -0.021205 0.690574
v 0.004497 -0.026183 0.688119
v 0.006056 -0.029307 0.686835
v 0.003961 -0.027641 0.692416
v 0.002611 -0.024226 0.688529
v 0.001796 -0.024734 0.691615
v 0.008828 0.060150 0.674572
v 0.007512 0.053680 0.674592
v 0.002945 0.057143 0.675331
v -0.004787 0.060227 0.678069
v -0.010908 0.068680 0.678343
v -0.007094 0.053761 0.676423
v 0.001249 0.050861 0.673752
v 0.008106 0.046007 0.672055
v -0.016728 0.050732 0.675432
f 780 781 779
f 779 781 782
f 783 784 786
f 786 784 785
f 787 782 788
f 788 782 781
f 790 791 789
f 789 791 787
f 792 790 794
f 794 790 793
f 796 797 795
f 795 797 798
f 800 801 799
f 799 801 802
f 804 805 803
f 803 805 806
f 808 809 807
f 807 809 810
f 811 812 814
f 814 812 813
f 815 816 818
f 818 816 817
f 819 820 784
f 784 820 821
f 784 821 785
f 785 821 822
f 823 812 824
f 824 812 811
f 826 827 825
f 825 827 828
f 830 831 829
f 829 831 832
f 834 830 833
f 833 830 829
f 836 837 835
f 835 837 838
f 839 840 782
f 782 840 779
f 842 843 841
f 841 843 844
f 846 847 845
f 845 847 848
f 850 851 849
f 849 851 852
f 854 855 853
f 853 855 856
f 831 857 832
f 832 857 858
f 860 861 859
f 859 861 862
f 863 864 830
f 830 864 831
f 835 838 865
f 865 838 866
f 867 868 821
f 821 868 822
f 821 820 867
f 867 820 869
f 818 817 870
f 870 817 871
f 872 848 842
f 842 848 847
f 791 839 787
f 787 839 782
f 803 806 847
f 847 806 873
f 874 803 846
f 846 803 847
f 876 877 875
f 875 877 878
f 879 880 882
f 882 880 881
f 884 808 883
f 883 808 807
f 829 832 885
f 885 832 886
f 832 858 886
f 886 858 887
f 889 890 888
f 888 890 891
f 893 783 892
f 892 783 894
f 893 819 783
f 783 819 784
f 814 813 889
f 889 813 895
f 813 896 895
f 895 896 897
f 812 898 813
f 813 898 896
f 812 823 898
f 898 823 899
f 903 904 902
f 902 904 905
f 906 907 792
f 792 907 908
f 811 909 824
f 824 909 910
f 911 872 841
f 841 872 842
f 912 913 915
f 915 913 914
f 917 918 916
f 916 918 919
f 855 920 856
f 856 920 921
f 922 923 798
f 798 923 924
f 926 927 925
f 925 927 850
f 929 930 928
f 928 930 931
f 860 879 861
f 861 879 882
f 879 860 933
f 933 860 932
f 934 935 836
f 836 935 837
f 936 846 925
f 925 846 845
f 937 924 793
f 793 924 794
f 846 936 874
f 874 936 938
f 907 844 908
f 908 844 843
f 940 941 939
f 939 941 942
f 944 945 943
f 943 945 946
f 948 949 947
f 947 949 950
f 952 949 951
f 951 949 948
f 954 955 953
f 953 955 956
f 958 959 957
f 957 959 802
f 960 961 799
f 799 961 962
f 859 963 860
f 860 963 932
f 964 965 966
f 966 965 922
f 936 849 938
f 938 849 967
f 968 913 935
f 935 913 837
f 947 950 917
f 917 950 918
f 925 850 936
f 936 850 849
f 970 971 969
f 969 971 972
f 945 944 827
f 827 944 973
f 974 968 828
f 828 968 935
f 975 976 978
f 978 976 977
f 799 802 960
f 960 802 959
f 924 937 798
f 798 937 795
f 960 959 859
f 859 959 963
f 979 963 958
f 958 963 959
f 980 981 861
f 861 981 862
f 983 984 982
f 982 984 863
f 985 800 962
f 962 800 799
f 957 802 986
f 986 802 801
f 986 987 957
f 957 987 983
f 987 988 983
f 983 988 984
f 990 984 989
f 989 984 988
f 957 983 958
f 958 983 982
f 991 954 866
f 866 954 992
f 864 863 990
f 990 863 984
f 971 995 996
f 995 997 996
f 996 997 998
f 997 796 998
f 998 796 795
f 797 999 798
f 798 999 922
f 1000 1001 1003
f 1003 1001 1002
f 953 1004 954
f 954 1004 992
f 1005 865 992
f 992 865 866
f 998 795 1006
f 1006 795 937
f 912 991 838
f 838 991 866
f 916 1007 929
f 929 1007 930
f 971 970 988
f 988 970 989
f 1008 972 996
f 996 972 971
f 1009 1010 1006
f 1006 1010 1008
f 1011 1012 869
f 869 1012 867
f 1013 1014 871
f 871 1014 870
f 1008 1010 1012
f 1012 1010 1015
f 825 1016 826
f 826 1016 1017
f 1018 969 1013
f 1013 969 1014
f 783 786 894
f 894 786 1019
f 1020 1021 967
f 967 1021 938
f 1022 1023 876
f 876 1023 877
f 934 1024 825
f 825 1024 1016
f 854 1025 855
f 855 1025 1026
f 1028 903 1027
f 1027 903 902
f 1030 1031 1029
f 1029 1031 1032
f 889 888 814
f 814 888 1033
f 1034 811 1033
f 1033 811 814
f 1035 1036 932
f 932 1036 933
f 841 947 911
f 911 947 917
f 844 948 841
f 841 948 947
f 951 948 907
f 907 948 844
f 907 906 951
f 951 906 1037
f 906 1038 1037
f 1037 1038 1039
f 991 912 1040
f 1040 912 915
f 1041 1042 964
f 964 1042 965
f 890 1043 891
f 891 1043 1044
f 789 1045 1046
f 1012 1011 1008
f 1008 1011 972
f 931 1047 848
f 848 1047 845
f 953 956 943
f 943 956 919
f 928 931 872
f 872 931 848
f 1049 999 1048
f 1048 999 985
f 1047 931 1050
f 1050 931 930
f 899 823 887
f 887 823 886
f 825 828 934
f 934 828 935
f 835 1051 836
f 836 1051 1052
f 923 1053 1038
f 1038 1053 1039
f 1054 927 921
f 921 927 856
f 926 1047 853
f 853 1047 1050
f 985 1055 1048
f 1048 1055 1056
f 973 974 827
f 827 974 828
f 837 913 838
f 838 913 912
f 861 882 980
f 980 882 1057
f 927 926 856
f 856 926 853
f 1025 1056 1026
f 1026 1056 1055
f 961 960 862
f 862 960 859
f 826 1017 1059
f 1059 1017 1060
f 1005 1001 1061
f 1061 1001 1000
f 1001 1004 1002
f 1002 1004 946
f 1059 1060 1002
f 1002 1060 1003
f 943 946 953
f 953 946 1004
f 1042 1041 916
f 916 1041 1007
f 792 794 906
f 906 794 1038
f 998 1006 996
f 996 1006 1008
f 865 1005 1062
f 1062 1005 1061
f 1038 794 923
f 923 794 924
f 1022 876 1036
f 1036 876 933
f 836 1052 934
f 934 1052 1024
f 885 1063 829
f 829 1063 833
f 1021 1064 938
f 938 1064 874
f 1012 1015 867
f 867 1015 868
f 824 910 885
f 885 910 1063
f 1031 1030 1027
f 1027 1030 1028
f 1064 804 874
f 874 804 803
f 884 883 1065
f 1065 883 1066
f 1050 930 1067
f 1067 930 1007
f 916 929 917
f 917 929 911
f 961 1068 939
f 939 1068 940
f 1069 1070 1055
f 1055 1070 1071
f 929 928 911
f 911 928 872
f 1040 1053 955
f 955 1053 965
f 922 965 923
f 923 965 1053
f 1051 835 1062
f 1062 835 865
f 952 914 968
f 968 914 913
f 889 895 890
f 890 895 816
f 895 897 816
f 816 897 901
f 890 816 1043
f 1043 816 815
f 1065 1066 1032
f 1032 1066 1029
f 1006 937 1009
f 1009 937 793
f 1001 1005 1004
f 1004 1005 992
f 925 845 926
f 926 845 1047
f 1002 946 1059
f 1059 946 945
f 977 941 978
f 978 941 940
f 823 824 886
f 886 824 885
f 1059 945 826
f 826 945 827
f 939 942 1069
f 1069 942 1070
f 816 901 817
f 1071 1072 1055
f 1055 1072 1026
f 1062 1061 1074
f 1074 1061 1073
f 1062 1074 1051
f 1051 1074 1075
f 1052 1051 1076
f 1076 1051 1075
f 1024 1052 1077
f 1077 1052 1076
f 1061 1000 1073
f 1073 1000 1078
f 1000 1003 1078
f 1078 1003 1079
f 1079 1003 1080
f 1080 1003 1060
f 1081 1082 1078
f 1078 1082 1073
f 1084 1085 1083
f 1083 1085 1086
f 1087 1088 1086
f 1086 1088 1083
f 1086 1085 1090
f 1090 1085 1089
f 1091 1092 1090
f 1090 1092 1093
f 1089 1094 1090
f 1090 1094 1091
f 1095 1082 1089
f 1089 1082 1094
f 1093 1087 1090
f 1090 1087 1086
f 1096 1097 1099
f 1099 1097 1098
f 1097 1096 1087
f 1087 1096 1088
f 1089 1085 1095
f 1095 1085 1084
f 1084 1075 1095
f 1095 1075 1074
f 1084 1100 1075
f 1075 1100 1076
f 1083 1101 1084
f 1084 1101 1100
f 1101 1083 1102
f 1102 1083 1088
f 1082 1095 1073
f 1073 1095 1074
f 1096 1103 1088
f 1088 1103 1102
f 1101 1102 1104
f 1104 1102 1105
f 1102 1103 1105
f 1105 1103 1106
f 1104 1105 1107
f 1107 1105 1108
f 1107 1109 1104
f 1104 1109 1110
f 1111 1108 1106
f 1106 1108 1105
f 1101 1104 1100
f 1100 1104 1110
f 1100 1110 1076
f 1076 1110 1077
f 1103 1096 1112
f 1112 1096 1099
f 1091 1094 1113
f 1113 1094 1082
f 1113 1114 1091
f 1091 1114 1092
f 1082 1081 1113
f 1113 1081 1115
f 1114 1113 1116
f 1116 1113 1115
f 1114 1117 1092
f 1092 1117 1118
f 1024 1077 1016
f 1016 1077 1119
f 1017 1120 1060
f 1060 1120 1080
f 1120 1017 1119
f 1119 1017 1016
f 1119 1109 1120
f 1120 1109 1121
f 1109 1107 1121
f 1121 1107 1122
f 1120 1121 1080
f 1080 1121 1123
f 1119 1077 1109
f 1109 1077 1110
f 1124 1079 1123
f 1123 1079 1080
f 1124 1081 1079
f 1079 1081 1078
f 1125 1115 1124
f 1124 1115 1081
f 1125 1124 1126
f 1126 1124 1123
f 1127 1125 1128
f 1128 1125 1126
f 1121 1122 1123
f 1123 1122 1126
f 1122 1129 1126
f 1126 1129 1128
f 1115 1125 1116
f 1116 1125 1127
f 1131 1116 1130
f 1130 1116 1127
f 1130 1133 1132
f 1132 1133 1134
f 1130 1127 1133
f 1133 1127 1128
f 1130 1132 1131
f 1131 1132 1112
f 1131 1112 1117
f 1117 1112 1099
f 1117 1114 1131
f 1131 1114 1116
f 1107 1108 1122
f 1122 1108 1129
f 1134 1129 1111
f 1111 1129 1108
f 1134 1133 1129
f 1129 1133 1128
f 1132 1134 1106
f 1106 1134 1111
f 1106 1103 1132
f 1132 1103 1112
f 1087 1093 1097
f 1097 1093 1098
f 1098 1118 1099
f 1099 1118 1117
f 1098 1093 1118
f 1118 1093 1092
f 915 914 1039
f 1039 914 1037
f 918 944 919
f 919 944 943
f 950 949 973
f 973 949 974
f 949 952 974
f 974 952 968
f 956 955 1042
f 1042 955 965
f 950 973 918
f 918 973 944
f 915 1039 1040
f 1040 1039 1053
f 956 1042 919
f 919 1042 916
f 1040 955 991
f 991 955 954
f 914 952 1037
f 1037 952 951
f 1136 1137 1135
f 1135 1137 1138
f 1140 1141 1139
f 1139 1141 1142
f 1139 1142 1143
f 1143 1142 1144
f 1145 1146 1148
f 1148 1146 1147
f 854 1149 1025
f 1025 1149 1150
f 1151 1152 1140
f 1140 1152 1141
f 1154 1155 1153
f 1153 1155 1156
f 1067 1007 1158
f 1158 1007 1157
f 1159 1157 1041
f 1041 1157 1007
f 1161 1162 1160
f 1160 1162 1163
f 1164 1146 1152
f 1152 1146 1141
f 854 1067 1149
f 1149 1067 1158
f 1155 1154 1137
f 1137 1154 1165
f 1166 1164 1138
f 1138 1164 1152
f 1167 1161 1144
f 1144 1161 1168
f 1170 1171 1169
f 1169 1171 1172
f 1161 1160 1168
f 1168 1160 1173
f 1174 1143 1168
f 1168 1143 1144
f 1167 1144 1145
f 1145 1144 1142
f 1135 1175 1136
f 1136 1175 1176
f 1151 1177 1135
f 1135 1177 1175
f 1167 1145 1178
f 1178 1145 1148
f 1160 1163 1153
f 1153 1163 1150
f 1135 1138 1151
f 1151 1138 1152
f 1139 1179 1140
f 1140 1179 1180
f 1165 1166 1137
f 1137 1166 1138
f 1141 1146 1142
f 1142 1146 1145
f 1136 1176 1181
f 1181 1176 1182
f 1174 1170 1183
f 1183 1170 1169
f 1170 1173 1171
f 1171 1173 1156
f 1171 1181 1172
f 1172 1181 1182
f 1153 1156 1160
f 1160 1156 1173
f 1143 1174 1184
f 1184 1174 1183
f 1140 1180 1151
f 1151 1180 1177
f 1049 1048 1178
f 1178 1048 1162
f 1179 1139 1184
f 1184 1139 1143
f 1159 1147 1164
f 1164 1147 1146
f 1170 1174 1173
f 1173 1174 1168
f 1171 1156 1181
f 1181 1156 1155
f 1181 1155 1136
f 1136 1155 1137
f 1184 1183 1186
f 1186 1183 1185
f 1184 1186 1179
f 1179 1186 1187
f 1179 1187 1180
f 1180 1187 1188
f 1180 1188 1177
f 1177 1188 1189
f 1183 1169 1185
f 1185 1169 1190
f 1169 1172 1190
f 1190 1172 1191
f 1172 1182 1191
f 1191 1182 1192
f 1193 1194 1190
f 1190 1194 1185
f 1196 1197 1195
f 1195 1197 1198
f 1199 1200 1196
f 1196 1200 1197
f 1197 1200 1202
f 1202 1200 1201
f 1203 1204 1202
f 1202 1204 1205
f 1201 1206 1202
f 1202 1206 1203
f 1205 1198 1202
f 1202 1198 1197
f 1198 1207 1195
f 1195 1207 1208
f 1201 1200 1209
f 1209 1200 1199
f 1199 1187 1209
f 1209 1187 1186
f 1199 1210 1187
f 1187 1210 1188
f 1196 1211 1199
f 1199 1211 1210
f 1212 1211 1195
f 1195 1211 1196
f 1209 1194 1201
f 1201 1194 1206
f 1194 1209 1185
f 1185 1209 1186
f 1213 1212 1208
f 1208 1212 1195
f 1211 1212 1214
f 1214 1212 1215
f 1212 1213 1215
f 1215 1213 1216
f 1214 1215 1217
f 1217 1215 1218
f 1217 1219 1214
f 1214 1219 1220
f 1216 1221 1215
f 1215 1221 1218
f 1214 1220 1211
f 1211 1220 1210
f 1210 1220 1188
f 1188 1220 1189
f 1213 1208 1223
f 1223 1208 1222
f 1208 1207 1222
f 1222 1207 1224
f 1203 1206 1225
f 1225 1206 1194
f 1204 1203 1226
f 1226 1203 1225
f 1194 1193 1225
f 1225 1193 1227
f 1225 1227 1226
f 1226 1227 1228
f 1229 1230 1226
f 1226 1230 1204
f 1224 1230 1222
f 1222 1230 1229
f 1177 1189 1175
f 1175 1189 1231
f 1176 1232 1182
f 1182 1232 1192
f 1232 1176 1231
f 1231 1176 1175
f 1231 1219 1232
f 1232 1219 1233
f 1219 1217 1233
f 1233 1217 1234
f 1232 1233 1192
f 1192 1233 1235
f 1219 1231 1220
f 1220 1231 1189
f 1236 1191 1235
f 1235 1191 1192
f 1236 1193 1191
f 1191 1193 1190
f 1236 1237 1193
f 1193 1237 1227
f 1237 1236 1238
f 1238 1236 1235
f 1239 1237 1240
f 1240 1237 1238
f 1233 1234 1235
f 1235 1234 1238
f 1234 1241 1238
f 1238 1241 1240
f 1237 1239 1227
f 1227 1239 1228
f 1243 1228 1242
f 1242 1228 1239
f 1242 1245 1244
f 1244 1245 1246
f 1242 1239 1245
f 1245 1239 1240
f 1242 1244 1243
f 1243 1244 1223
f 1243 1223 1229
f 1229 1223 1222
f 1229 1226 1243
f 1243 1226 1228
f 1217 1218 1234
f 1234 1218 1241
f 1246 1241 1221
f 1221 1241 1218
f 1246 1245 1241
f 1241 1245 1240
f 1244 1246 1216
f 1216 1246 1221
f 1216 1213 1244
f 1244 1213 1223
f 1198 1205 1207
f 1207 1205 1224
f 1224 1205 1230
f 1230 1205 1204
f 1148 1147 966
f 966 1147 964
f 1149 1154 1150
f 1150 1154 1153
f 1158 1157 1165
f 1165 1157 1166
f 1157 1159 1166
f 1166 1159 1164
f 1163 1162 1056
f 1056 1162 1048
f 1158 1165 1149
f 1149 1165 1154
f 1178 1148 1049
f 1049 1148 966
f 1163 1056 1150
f 1150 1056 1025
f 1178 1162 1167
f 1167 1162 1161
f 1147 1159 964
f 964 1159 1041
f 999 1049 922
f 922 1049 966
f 999 797 985
f 985 797 800
f 797 796 800
f 800 796 801
f 796 997 801
f 801 997 986
f 1247 1248 1250
f 1250 1248 1249
f 1252 1253 1251
f 1251 1253 1254
f 1251 1254 1255
f 1255 1254 1256
f 1258 1259 1257
f 1257 1259 1260
f 1261 1262 1252
f 1252 1262 1253
f 1264 1265 1263
f 1263 1265 1266
f 1267 1268 855
f 855 1268 920
f 1269 1267 1026
f 1026 1267 855
f 1271 1272 1270
f 1270 1272 1273
f 1274 1258 1262
f 1262 1258 1253
f 1264 1275 1265
f 1265 1275 1249
f 1276 1274 1250
f 1250 1274 1262
f 1277 1271 1256
f 1256 1271 1278
f 1279 1280 1282
f 1282 1280 1281
f 1271 1270 1278
f 1278 1270 1283
f 1284 1255 1278
f 1278 1255 1256
f 1277 1256 1257
f 1257 1256 1254
f 1247 1285 1248
f 1248 1285 1286
f 1261 1287 1247
f 1247 1287 1285
f 1257 1260 1277
f 1277 1260 1288
f 1270 1273 1263
f 1263 1273 1289
f 1261 1247 1262
f 1262 1247 1250
f 1251 1290 1252
f 1252 1290 1291
f 1275 1276 1249
f 1249 1276 1250
f 1253 1258 1254
f 1254 1258 1257
f 1248 1286 1292
f 1292 1286 1293
f 1284 1280 1294
f 1294 1280 1279
f 1281 1280 1266
f 1266 1280 1283
f 1292 1293 1281
f 1281 1293 1282
f 1263 1266 1270
f 1270 1266 1283
f 1255 1284 1295
f 1295 1284 1294
f 1252 1291 1261
f 1261 1291 1287
f 1288 1070 1272
f 1272 1070 942
f 1290 1251 1295
f 1295 1251 1255
f 1269 1259 1274
f 1274 1259 1258
f 1280 1284 1283
f 1283 1284 1278
f 1281 1266 1292
f 1292 1266 1265
f 1292 1265 1248
f 1248 1265 1249
f 1295 1294 1297
f 1297 1294 1296
f 1295 1297 1290
f 1290 1297 1298
f 1290 1298 1291
f 1291 1298 1299
f 1291 1299 1287
f 1287 1299 1300
f 1294 1279 1296
f 1296 1279 1301
f 1279 1282 1301
f 1301 1282 1302
f 1302 1282 1303
f 1303 1282 1293
f 1304 1305 1301
f 1301 1305 1296
f 1307 1308 1306
f 1306 1308 1309
f 1310 1311 1307
f 1307 1311 1308
f 1308 1311 1313
f 1313 1311 1312
f 1314 1315 1313
f 1313 1315 1316
f 1312 1317 1313
f 1313 1317 1314
f 1316 1309 1313
f 1313 1309 1308
f 1318 1319 1309
f 1309 1319 1306
f 1311 1310 1312
f 1312 1310 1320
f 1310 1298 1320
f 1320 1298 1297
f 1310 1321 1298
f 1298 1321 1299
f 1307 1322 1310
f 1310 1322 1321
f 1322 1307 1323
f 1323 1307 1306
f 1312 1320 1317
f 1317 1320 1305
f 1305 1320 1296
f 1296 1320 1297
f 1319 1324 1306
f 1306 1324 1323
f 1325 1322 1326
f 1326 1322 1323
f 1324 1327 1323
f 1323 1327 1326
f 1328 1325 1329
f 1329 1325 1326
f 1325 1328 1331
f 1331 1328 1330
f 1327 1332 1326
f 1326 1332 1329
f 1322 1325 1321
f 1321 1325 1331
f 1321 1331 1299
f 1299 1331 1300
f 1324 1319 1334
f 1334 1319 1333
f 1319 1318 1333
f 1333 1318 1335
f 1314 1317 1336
f 1336 1317 1305
f 1315 1314 1337
f 1337 1314 1336
f 1305 1304 1336
f 1336 1304 1338
f 1337 1336 1339
f 1339 1336 1338
f 1337 1340 1315
f 1315 1340 1341
f 1335 1341 1333
f 1333 1341 1340
f 1287 1300 1285
f 1285 1300 1342
f 1286 1343 1293
f 1293 1343 1303
f 1343 1286 1342
f 1342 1286 1285
f 1342 1330 1343
f 1343 1330 1344
f 1330 1328 1344
f 1344 1328 1345
f 1343 1344 1303
f 1303 1344 1346
f 1342 1300 1330
f 1330 1300 1331
f 1347 1302 1346
f 1346 1302 1303
f 1347 1304 1302
f 1302 1304 1301
f 1348 1338 1347
f 1347 1338 1304
f 1348 1347 1349
f 1349 1347 1346
f 1350 1348 1351
f 1351 1348 1349
f 1344 1345 1346
f 1346 1345 1349
f 1345 1352 1349
f 1349 1352 1351
f 1348 1350 1338
f 1338 1350 1339
f 1354 1339 1353
f 1353 1339 1350
f 1353 1356 1355
f 1355 1356 1357
f 1353 1350 1356
f 1356 1350 1351
f 1353 1355 1354
f 1354 1355 1334
f 1354 1334 1340
f 1340 1334 1333
f 1340 1337 1354
f 1354 1337 1339
f 1328 1329 1345
f 1345 1329 1352
f 1357 1352 1332
f 1332 1352 1329
f 1357 1356 1352
f 1352 1356 1351
f 1357 1332 1355
f 1355 1332 1327
f 1327 1324 1355
f 1355 1324 1334
f 1309 1316 1318
f 1318 1316 1335
f 1335 1316 1341
f 1341 1316 1315
f 1259 1072 1260
f 1260 1072 1071
f 1358 1264 1289
f 1289 1264 1263
f 1268 1267 1275
f 1275 1267 1276
f 1267 1269 1276
f 1276 1269 1274
f 941 1273 942
f 942 1273 1272
f 1358 1268 1264
f 1264 1268 1275
f 1260 1071 1288
f 1288 1071 1070
f 1273 941 1289
f 1289 941 977
f 1272 1271 1288
f 1288 1271 1277
f 1259 1269 1072
f 1072 1269 1026
f 1360 1361 1359
f 1359 1361 1362
f 1364 1365 1363
f 1363 1365 1366
f 1363 1366 1367
f 1367 1366 1368
f 1370 1371 1369
f 1369 1371 1372
f 1373 1374 1376
f 1376 1374 1375
f 1377 1378 1364
f 1364 1378 1365
f 1379 1380 1382
f 1382 1380 1381
f 1383 1384 1386
f 1386 1384 1385
f 1387 1385 978
f 978 1385 1384
f 1388 1389 1391
f 1391 1389 1390
f 1378 1392 1365
f 1365 1392 1370
f 1374 1383 1375
f 1375 1383 1386
f 1380 1393 1381
f 1381 1393 1361
f 1394 1392 1362
f 1362 1392 1378
f 1389 1396 1395
f 1395 1396 1368
f 1398 1399 1397
f 1397 1399 1400
f 1388 1401 1389
f 1389 1401 1396
f 1402 1367 1396
f 1396 1367 1368
f 1395 1368 1369
f 1369 1368 1366
f 1359 1403 1360
f 1360 1403 1404
f 1377 1405 1359
f 1359 1405 1403
f 1369 1372 1395
f 1395 1372 1406
f 1379 1388 1376
f 1376 1388 1391
f 1359 1362 1377
f 1377 1362 1378
f 1363 1407 1364
f 1364 1407 1408
f 1393 1394 1361
f 1361 1394 1362
f 1365 1370 1366
f 1366 1370 1369
f 1360 1404 1409
f 1409 1404 1410
f 1402 1398 1411
f 1411 1398 1397
f 1399 1398 1382
f 1382 1398 1401
f 1409 1410 1399
f 1399 1410 1400
f 1388 1379 1401
f 1401 1379 1382
f 1367 1402 1412
f 1412 1402 1411
f 1364 1408 1377
f 1377 1408 1405
f 981 980 1406
f 1406 980 1390
f 1407 1363 1412
f 1412 1363 1367
f 1387 1371 1392
f 1392 1371 1370
f 1398 1402 1401
f 1401 1402 1396
f 1409 1399 1381
f 1381 1399 1382
f 1360 1409 1361
f 1361 1409 1381
f 1412 1411 1414
f 1414 1411 1413
f 1412 1414 1407
f 1407 1414 1415
f 1407 1415 1408
f 1408 1415 1416
f 1408 1416 1405
f 1405 1416 1417
f 1411 1397 1413
f 1413 1397 1418
f 1397 1400 1418
f 1418 1400 1419
f 1419 1400 1420
f 1420 1400 1410
f 1422 1413 1421
f 1421 1413 1418
f 1423 1424 1426
f 1426 1424 1425
f 1427 1428 1424
f 1424 1428 1425
f 1425 1428 1430
f 1430 1428 1429
f 1430 1431 1433
f 1433 1431 1432
f 1429 1434 1430
f 1430 1434 1431
f 1433 1426 1430
f 1430 1426 1425
f 1426 1435 1423
f 1423 1435 1436
f 1428 1427 1429
f 1429 1427 1437
f 1427 1415 1437
f 1437 1415 1414
f 1427 1438 1415
f 1415 1438 1416
f 1439 1438 1424
f 1424 1438 1427
f 1440 1439 1423
f 1423 1439 1424
f 1429 1437 1434
f 1434 1437 1422
f 1422 1437 1413
f 1413 1437 1414
f 1441 1440 1436
f 1436 1440 1423
f 1442 1439 1443
f 1443 1439 1440
f 1441 1444 1440
f 1440 1444 1443
f 1445 1442 1446
f 1446 1442 1443
f 1442 1445 1448
f 1448 1445 1447
f 1444 1449 1443
f 1443 1449 1446
f 1439 1442 1438
f 1438 1442 1448
f 1438 1448 1416
f 1416 1448 1417
f 1436 1450 1441
f 1441 1450 1451
f 1436 1435 1450
f 1450 1435 1452
f 1431 1434 1453
f 1453 1434 1422
f 1431 1453 1432
f 1432 1453 1454
f 1453 1422 1455
f 1455 1422 1421
f 1454 1453 1456
f 1456 1453 1455
f 1457 1458 1454
f 1454 1458 1432
f 1452 1458 1450
f 1450 1458 1457
f 1405 1417 1403
f 1403 1417 1459
f 1404 1460 1410
f 1410 1460 1420
f 1459 1460 1403
f 1403 1460 1404
f 1447 1461 1459
f 1459 1461 1460
f 1445 1462 1447
f 1447 1462 1461
f 1460 1461 1420
f 1420 1461 1463
f 1459 1417 1447
f 1447 1417 1448
f 1464 1419 1463
f 1463 1419 1420
f 1419 1464 1418
f 1418 1464 1421
f 1464 1465 1421
f 1421 1465 1455
f 1465 1464 1466
f 1466 1464 1463
f 1467 1465 1468
f 1468 1465 1466
f 1461 1462 1463
f 1463 1462 1466
f 1462 1469 1466
f 1466 1469 1468
f 1465 1467 1455
f 1455 1467 1456
f 1471 1456 1470
f 1470 1456 1467
f 1470 1473 1472
f 1472 1473 1474
f 1470 1467 1473
f 1473 1467 1468
f 1470 1472 1471
f 1471 1472 1451
f 1471 1451 1457
f 1457 1451 1450
f 1457 1454 1471
f 1471 1454 1456
f 1462 1445 1469
f 1469 1445 1446
f 1474 1469 1449
f 1449 1469 1446
f 1474 1473 1469
f 1469 1473 1468
f 1472 1474 1444
f 1444 1474 1449
f 1444 1441 1472
f 1472 1441 1451
f 1426 1433 1435
f 1435 1433 1452
f 1452 1433 1458
f 1458 1433 1432
f 1371 940 1372
f 1372 940 1068
f 1376 1375 1379
f 1379 1375 1380
f 1393 1386 1394
f 1394 1386 1385
f 1385 1387 1394
f 1394 1387 1392
f 1475 1373 1391
f 1391 1373 1376
f 1375 1386 1380
f 1380 1386 1393
f 1372 1068 1406
f 1406 1068 981
f 1406 1390 1395
f 1395 1390 1389
f 1371 1387 940
f 940 1387 978
f 883 807 1476
f 1476 807 1477
f 1046 904 1479
f 1479 904 1478
f 904 903 1478
f 1478 903 1480
f 1030 1481 1028
f 1028 1481 1482
f 810 1046 1483
f 1483 1046 1479
f 1066 883 1484
f 1484 883 1476
f 807 810 1477
f 1477 810 1483
f 1485 1029 1484
f 1484 1029 1066
f 1028 1482 903
f 903 1482 1480
f 1481 1030 1485
f 1485 1030 1029
f 1484 1486 1485
f 1485 1486 1487
f 1485 1487 1481
f 1481 1487 1488
f 1481 1488 1482
f 1482 1488 1489
f 1482 1489 1480
f 1480 1489 1490
f 1484 1476 1486
f 1486 1476 1491
f 1476 1477 1491
f 1491 1477 1492
f 1477 1483 1492
f 1492 1483 1493
f 1495 1486 1494
f 1494 1486 1491
f 1497 1498 1496
f 1496 1498 1499
f 1500 1501 1497
f 1497 1501 1498
f 1502 1503 1501
f 1501 1503 1498
f 1502 1504 1503
f 1503 1504 1505
f 1506 1499 1503
f 1503 1499 1498
f 1499 1506 1507
f 1507 1506 1508
f 1507 1509 1499
f 1499 1509 1496
f 1502 1501 1510
f 1510 1501 1500
f 1500 1488 1510
f 1510 1488 1487
f 1500 1511 1488
f 1488 1511 1489
f 1497 1512 1500
f 1500 1512 1511
f 1512 1497 1513
f 1513 1497 1496
f 1502 1510 1504
f 1504 1510 1495
f 1495 1510 1486
f 1486 1510 1487
f 1509 1514 1496
f 1496 1514 1513
f 1515 1512 1516
f 1516 1512 1513
f 1514 1517 1513
f 1513 1517 1516
f 1518 1515 1519
f 1519 1515 1516
f 1515 1518 1521
f 1521 1518 1520
f 1517 1522 1516
f 1516 1522 1519
f 1512 1515 1511
f 1511 1515 1521
f 1511 1521 1489
f 1489 1521 1490
f 1514 1509 1524
f 1524 1509 1523
f 1509 1507 1523
f 1523 1507 1508
f 1505 1504 1525
f 1525 1504 1495
f 1526 1505 1527
f 1527 1505 1525
f 1525 1495 1528
f 1528 1495 1494
f 1527 1525 1529
f 1529 1525 1528
f 1527 1530 1526
f 1526 1530 1531
f 1508 1531 1523
f 1523 1531 1530
f 1506 1503 1526
f 1526 1503 1505
f 1508 1506 1531
f 1531 1506 1526
f 1478 1480 1532
f 1532 1480 1490
f 1483 1479 1493
f 1493 1479 1533
f 1532 1533 1478
f 1478 1533 1479
f 1520 1534 1532
f 1532 1534 1533
f 1518 1535 1520
f 1520 1535 1534
f 1533 1534 1493
f 1493 1534 1536
f 1532 1490 1520
f 1520 1490 1521
f 1537 1492 1536
f 1536 1492 1493
f 1492 1537 1491
f 1491 1537 1494
f 1537 1538 1494
f 1494 1538 1528
f 1538 1537 1539
f 1539 1537 1536
f 1540 1538 1541
f 1541 1538 1539
f 1534 1535 1536
f 1536 1535 1539
f 1535 1542 1539
f 1539 1542 1541
f 1538 1540 1528
f 1528 1540 1529
f 1544 1529 1543
f 1543 1529 1540
f 1545 1543 1547
f 1547 1543 1546
f 1543 1540 1546
f 1546 1540 1541
f 1543 1545 1544
f 1544 1545 1524
f 1544 1524 1530
f 1530 1524 1523
f 1530 1527 1544
f 1544 1527 1529
f 1535 1518 1542
f 1542 1518 1519
f 1547 1542 1522
f 1522 1542 1519
f 1547 1546 1542
f 1542 1546 1541
f 1545 1547 1517
f 1517 1547 1522
f 1517 1514 1545
f 1545 1514 1524
f 997 995 986
f 986 995 987
f 987 995 988
f 988 995 971
f 976 1358 977
f 977 1358 1289
f 854 853 1067
f 1067 853 1050
f 1055 985 1069
f 1069 985 962
f 1068 961 981
f 981 961 862
f 1268 1358 920
f 920 1358 976
f 920 976 921
f 921 976 975
f 927 1054 850
f 850 1054 851
f 882 881 1057
f 1057 881 1548
f 1548 1374 1057
f 1057 1374 1373
f 1383 1374 1549
f 1549 1374 1548
f 1549 1548 1550
f 1550 1548 881
f 1550 881 1551
f 1551 881 880
f 933 1552 879
f 879 1552 880
f 1551 880 875
f 875 880 1552
f 1553 1551 878
f 878 1551 875
f 1551 1553 1550
f 1550 1553 1554
f 1550 1554 1549
f 1549 1554 1555
f 978 1384 975
f 975 1384 1555
f 967 849 1556
f 1556 849 852
f 875 1552 876
f 876 1552 933
f 961 939 962
f 962 939 1069
f 1555 1054 975
f 975 1054 921
f 1555 1384 1549
f 1549 1384 1383
f 1391 1390 1475
f 1475 1390 980
f 1373 1475 1057
f 1057 1475 980
f 851 1054 1554
f 1554 1054 1555
f 1554 1553 851
f 851 1553 852
f 878 1556 1553
f 1553 1556 852
f 1556 878 967
f 967 878 877
f 1023 1020 877
f 877 1020 967
f 909 811 1034
f 806 779 873
f 873 779 840
f 805 780 806
f 806 780 779
f 1043 893 1044
f 1044 893 892
f 873 840 847
f 847 840 842
f 840 839 842
f 842 839 843
f 839 791 843
f 843 791 908
f 791 790 908
f 908 790 792
f 809 789 810
f 810 789 1046
f 793 790 809
f 809 790 789
f 809 808 793
f 793 808 1009
f 808 884 1009
f 1009 884 1010
f 1065 1015 884
f 884 1015 1010
f 1032 868 1065
f 1065 868 1015
f 1031 822 1032
f 1032 822 868
f 1031 1027 822
f 822 1027 785
f 1045 905 1046
f 1046 905 904
f 788 781 1019
f 1019 781 894
f 781 780 894
f 894 780 892
f 780 805 892
f 892 805 1044
f 805 804 1044
f 1044 804 891
f 804 1064 891
f 891 1064 888
f 1064 1021 888
f 888 1021 1033
f 1021 1020 1033
f 1033 1020 1034
f 1020 1023 1034
f 1034 1023 909
f 1023 1022 909
f 909 1022 910
f 1043 815 893
f 893 815 819
f 819 815 820
f 820 815 818
f 870 869 818
f 818 869 820
f 1014 1011 870
f 870 1011 869
f 969 972 1014
f 1014 972 1011
f 1036 1063 1022
f 1022 1063 910
f 1035 833 1036
f 1036 833 1063
f 1035 932 979
f 979 932 963
f 834 979 982
f 982 979 958
f 833 1035 834
f 834 1035 979
f 982 863 834
f 834 863 830
f 864 900 831
f 831 900 857
f 990 993 864
f 864 993 900
f 989 994 990
f 990 994 993
f 970 1058 989
f 989 1058 994
f 969 1018 970
f 970 1018 1058
f 1027 902 785
f 785 902 786
f 902 905 786
f 786 905 1019
f 905 1045 1019
f 1019 1045 788
f 788 1045 787
f 787 1045 789
