o hand_left
v 0.005359 -0.023635 0.741261
v 0.014320 -0.028673 0.746350
v 0.005701 -0.024320 0.747682
v -0.002581 -0.021265 0.743784
v 0.014584 -0.028675 0.765163
v 0.011193 -0.037112 0.773569
v -0.002463 -0.027662 0.769396
v 0.003491 -0.021633 0.762935
v -0.009933 -0.020428 0.743236
v -0.001668 -0.020664 0.747996
v -0.013707 -0.023727 0.740196
v -0.022218 -0.026527 0.734042
v -0.018190 -0.021053 0.738062
v -0.027532 -0.024404 0.728849
v -0.020244 -0.036846 0.730641
v -0.026557 -0.028675 0.720476
v -0.000852 -0.038942 0.712938
v 0.010579 -0.035371 0.707178
v 0.000473 -0.023659 0.699866
v -0.010245 -0.027724 0.707042
v 0.020958 -0.019840 0.698321
v 0.009255 -0.021363 0.698596
v 0.019076 -0.033757 0.704764
v 0.029074 -0.031605 0.704113
v 0.019299 -0.024059 0.736204
v 0.027770 -0.029832 0.741126
v 0.023059 -0.030801 0.742818
v 0.014653 -0.025041 0.738219
v -0.019321 -0.027390 0.744203
v -0.017246 -0.038452 0.743694
v -0.017002 -0.031746 0.739632
v -0.016518 -0.022603 0.743478
v 0.052637 -0.036886 0.752348
v 0.058292 -0.049035 0.753596
v 0.053582 -0.051664 0.756024
v 0.049412 -0.040223 0.754109
v 0.032736 -0.051598 0.769646
v 0.039559 -0.060160 0.764866
v 0.034513 -0.072904 0.764402
v 0.025782 -0.066359 0.766427
v 0.022083 -0.043439 0.773353
v 0.016638 -0.056445 0.772519
v 0.004983 -0.047085 0.773615
v -0.008595 -0.034781 0.770086
v 0.068031 -0.045217 0.746199
v 0.065431 -0.035536 0.744620
v -0.042599 0.020709 0.731203
v -0.037329 0.023237 0.730413
v -0.036187 0.019462 0.729813
v -0.041712 0.017589 0.730487
v 0.070390 -0.044216 0.726212
v 0.067362 -0.050043 0.718549
v 0.072597 -0.053663 0.722074
v 0.074207 -0.049299 0.730251
v 0.065194 -0.037465 0.721041
v 0.059780 -0.044816 0.714410
v -0.050533 0.023857 0.721591
v -0.050075 0.021964 0.726373
v -0.049654 0.017854 0.723766
v -0.049393 0.019345 0.718661
v -0.011358 -0.018320 0.739869
v -0.002522 -0.017721 0.738119
v -0.022241 -0.008179 0.731973
v -0.014134 -0.011636 0.732991
v -0.019156 -0.015750 0.735623
v -0.025736 -0.012977 0.733420
v 0.007442 -0.008345 0.724271
v 0.014534 -0.016193 0.729317
v 0.008396 -0.017088 0.731238
v -0.000660 -0.008619 0.727143
v 0.027241 -0.010879 0.726158
v 0.019140 -0.003765 0.721121
v 0.027254 -0.001443 0.719879
v 0.031743 -0.006421 0.724459
v 0.002944 0.006120 0.712996
v -0.001964 0.009708 0.709730
v 0.000226 0.011440 0.708255
v 0.006261 0.007055 0.711795
v 0.077253 -0.058147 0.724925
v 0.077025 -0.054733 0.734123
v 0.041193 -0.012982 0.698852
v 0.050065 -0.009638 0.704689
v 0.045095 0.000676 0.698914
v 0.037016 -0.005776 0.694265
v 0.059617 -0.055886 0.714847
v 0.066406 -0.059395 0.716590
v -0.047419 0.026785 0.717131
v -0.045904 0.022361 0.714536
v 0.002419 -0.057696 0.765727
v -0.012529 -0.042445 0.765284
v 0.015036 -0.067942 0.762312
v 0.023804 -0.074687 0.757728
v 0.030487 -0.081098 0.756392
v -0.011959 -0.006909 0.728968
v 0.006086 -0.019811 0.735869
v 0.023763 -0.022587 0.734668
v 0.048939 -0.006778 0.727127
v 0.055007 -0.013783 0.732431
v 0.044742 -0.014443 0.735018
v 0.041486 -0.008539 0.729293
v 0.052497 -0.003417 0.711806
v 0.048226 0.000091 0.717535
v 0.043198 0.006678 0.712470
v 0.047136 0.004663 0.706492
v -0.023378 -0.031373 0.749041
v -0.017084 -0.043857 0.748665
v 0.070343 -0.039571 0.735706
v 0.072077 -0.046051 0.739605
v 0.075329 -0.053584 0.741589
v 0.039510 -0.033549 0.748327
v 0.047185 -0.042450 0.755672
v 0.043368 -0.043240 0.758400
v 0.036982 -0.035113 0.749067
v 0.022515 -0.030878 0.754407
v 0.027931 -0.036212 0.765004
v 0.012563 -0.024097 0.754121
v 0.048184 -0.056376 0.760210
v 0.058599 -0.060019 0.759075
v 0.051793 -0.064796 0.762284
v 0.066056 -0.056519 0.753794
v 0.072146 -0.053984 0.747827
v 0.072520 -0.065283 0.716592
v 0.044816 -0.069253 0.763591
v -0.004439 -0.017456 0.760877
v -0.011303 -0.013732 0.759577
v -0.009646 -0.013614 0.751852
v -0.002863 -0.016917 0.752264
v -0.033117 -0.018997 0.723903
v -0.030448 -0.015767 0.730714
v -0.024283 -0.020814 0.734781
v 0.050651 -0.027337 0.746044
v 0.061669 -0.026499 0.740018
v -0.020057 -0.003562 0.728018
v -0.047400 0.014152 0.716939
v -0.047942 0.012735 0.722665
v -0.040485 -0.005325 0.722819
v -0.040349 -0.003846 0.716018
v -0.022213 0.002090 0.719926
v -0.022370 -0.000587 0.726651
v -0.023190 0.001345 0.725416
v -0.021946 0.005527 0.720462
v 0.009432 0.012328 0.707085
v 0.014662 0.008652 0.710436
v -0.018058 -0.014082 0.703660
v -0.027484 -0.022225 0.708055
v -0.019585 -0.031223 0.712970
v 0.014463 -0.006585 0.722536
v 0.008781 0.000821 0.717651
v 0.012489 0.002170 0.716302
v -0.011786 -0.003582 0.725475
v -0.017513 -0.000310 0.723292
v -0.012743 -0.000187 0.720830
v -0.006737 -0.003102 0.723388
v 0.056014 -0.020239 0.709551
v 0.059234 -0.012855 0.717817
v -0.047189 0.020545 0.729791
v -0.046677 0.016987 0.728214
v 0.021272 -0.014340 0.727519
v -0.009466 -0.040290 0.719470
v 0.028733 -0.020784 0.733329
v 0.018939 0.001287 0.692774
v 0.021230 0.007079 0.695840
v 0.016127 0.011643 0.695298
v 0.013579 0.008527 0.691101
v -0.028428 0.019553 0.720142
v -0.029538 0.018612 0.725730
v -0.031885 0.022155 0.726131
v -0.031059 0.024161 0.720659
v -0.025399 -0.004032 0.730341
v -0.029724 -0.008189 0.731860
v -0.031777 -0.002895 0.730893
v -0.026931 -0.000103 0.728694
v -0.034605 -0.010644 0.728668
v -0.037101 -0.005165 0.728181
v -0.031240 0.019718 0.714231
v -0.037861 0.018534 0.710814
v -0.030198 0.002542 0.709064
v -0.025218 0.006852 0.713743
v 0.036770 -0.043613 0.708735
v 0.046843 -0.038948 0.708042
v 0.039455 -0.026927 0.703383
v 0.032672 -0.015592 0.697795
v 0.025557 -0.004705 0.693719
v 0.014721 -0.010190 0.692242
v 0.047150 -0.024476 0.704127
v -0.020597 -0.002130 0.710336
v -0.025096 -0.008041 0.707659
v -0.020403 -0.007059 0.705549
v 0.034977 -0.016861 0.732509
v -0.045260 0.012346 0.727576
v 0.029044 -0.078470 0.734475
v 0.037663 -0.075110 0.724609
v 0.031041 -0.069480 0.723830
v 0.021499 -0.072696 0.735540
v -0.034097 0.016027 0.730103
v -0.039970 0.013512 0.731123
v 0.019602 0.011993 0.707438
v 0.014101 0.014366 0.704420
v 0.015141 0.015371 0.700892
v 0.021688 0.015357 0.703316
v 0.052463 -0.037367 0.709024
v 0.041335 0.007333 0.695543
v 0.034940 0.001119 0.691443
v 0.052950 -0.049669 0.712237
v 0.044262 -0.054135 0.712326
v 0.050173 -0.061437 0.714794
v -0.000427 -0.008035 0.694338
v 0.028254 -0.045085 0.709369
v 0.036927 -0.055803 0.713732
v 0.043649 -0.064623 0.716747
v 0.048947 -0.070902 0.718121
v 0.055592 -0.066682 0.715991
v -0.043319 0.016850 0.712713
v -0.040054 0.025042 0.712330
v 0.061842 -0.073255 0.715817
v 0.054151 -0.077464 0.718849
v 0.028559 -0.058135 0.716759
v 0.018847 -0.060564 0.722010
v 0.020554 -0.047535 0.712542
v 0.010182 -0.049129 0.717010
v -0.008214 -0.015425 0.694476
v -0.039314 0.039728 0.722308
v -0.036168 0.030602 0.717165
v -0.032968 0.028766 0.721702
v -0.035946 0.038849 0.724817
v -0.033790 0.025269 0.715424
v -0.041492 0.029502 0.715151
v -0.000156 -0.050956 0.726458
v -0.017505 0.002454 0.717668
v 0.008209 -0.062490 0.736060
v -0.013251 -0.047586 0.735040
v -0.006971 -0.054485 0.744117
v 0.015424 -0.073096 0.748048
v 0.001928 -0.063799 0.753440
v 0.030427 -0.084033 0.745605
v 0.023521 -0.078274 0.745414
v -0.010160 -0.052309 0.756540
v -0.041952 0.030243 0.735009
v -0.036906 0.032224 0.733055
v 0.034872 -0.084424 0.734946
v 0.003870 -0.019989 0.752989
v 0.039990 -0.023537 0.739654
v 0.035121 -0.026298 0.739869
v 0.057927 -0.018618 0.735517
v 0.047226 -0.020265 0.739888
v -0.047267 0.029779 0.734068
v -0.004428 0.011218 0.705192
v -0.002933 0.009626 0.704600
v -0.009367 -0.021487 0.767112
v -0.014658 -0.017837 0.765206
v -0.024036 -0.026640 0.761551
v -0.020137 -0.022156 0.765682
v -0.015141 -0.027880 0.768103
v -0.019037 -0.033227 0.764082
v 0.041485 -0.031838 0.747653
v 0.044559 -0.029595 0.746599
v 0.061185 -0.029201 0.715632
v 0.063684 -0.021515 0.723804
v -0.036710 -0.012287 0.722708
v -0.032866 -0.020056 0.715924
v -0.036012 -0.012036 0.715791
v -0.035785 -0.002739 0.710598
v -0.020423 0.002301 0.714182
v -0.022780 0.000397 0.713835
v 0.036552 -0.040007 0.761785
v 0.031232 -0.034794 0.751612
v -0.006388 -0.019218 0.746716
v -0.011635 -0.016748 0.745539
v 0.001042 -0.002676 0.721167
v -0.007730 0.001456 0.695582
v -0.014079 -0.005003 0.695873
v -0.005185 0.002262 0.716974
v -0.051425 0.033743 0.727660
v -0.050180 0.031144 0.731798
v -0.031932 -0.011539 0.709922
v 0.020342 0.005226 0.715185
v -0.000240 -0.000469 0.695394
v -0.005486 0.007991 0.698702
v 0.043643 0.009595 0.703645
v 0.043607 -0.081520 0.726171
v -0.032998 0.026603 0.727011
v -0.034064 0.034706 0.729632
v -0.043379 0.038701 0.721102
v -0.048677 0.035909 0.722563
v 0.066333 -0.029784 0.730322
v 0.031721 -0.027818 0.739977
v -0.018692 -0.041023 0.756728
v -0.024597 -0.030539 0.754983
v -0.008733 0.004883 0.714384
v 0.026459 0.002024 0.692876
v 0.010388 -0.001916 0.690167
v 0.005638 0.005611 0.688571
v -0.001093 0.005937 0.692111
v -0.004555 0.008825 0.698164
v -0.043513 0.043350 0.724646
v -0.048869 0.040434 0.725842
v -0.051813 0.037700 0.730678
v -0.050735 0.034767 0.734128
v -0.047206 0.032630 0.735785
v -0.039209 0.044225 0.726167
v -0.036286 0.042845 0.728666
v -0.034429 0.037602 0.731425
v -0.038430 0.046899 0.730649
v -0.043435 0.048991 0.731694
v -0.050109 0.043850 0.743405
v -0.051303 0.042946 0.737506
v -0.050306 0.045467 0.738561
v -0.049194 0.047026 0.743308
v -0.047760 0.049968 0.747470
v -0.048748 0.046661 0.748318
v -0.048282 0.046921 0.734442
v -0.046422 0.049700 0.740594
v -0.042723 0.051149 0.739062
v -0.042014 0.053762 0.744111
v -0.045349 0.052749 0.745520
v -0.044404 0.049514 0.734857
v -0.049073 0.045929 0.731884
v -0.046474 0.049862 0.750951
v -0.046708 0.051930 0.749502
v -0.044344 0.053990 0.748320
v -0.042921 0.053512 0.751017
v -0.050392 0.037171 0.737816
v -0.049282 0.041607 0.744613
v -0.046445 0.044619 0.749187
v -0.044386 0.048037 0.751618
v -0.045521 0.040495 0.746094
v -0.043654 0.043572 0.749219
v -0.041474 0.046520 0.751015
v -0.041147 0.040526 0.746311
v -0.040433 0.043633 0.748791
v -0.042750 0.034030 0.737870
v -0.047061 0.033766 0.737646
v -0.039668 0.045459 0.750468
v -0.041077 0.052385 0.751589
v -0.039680 0.050616 0.736911
v -0.038947 0.052907 0.743794
v -0.037420 0.049555 0.737154
v -0.036679 0.052244 0.743702
v -0.039408 0.054953 0.747899
v -0.041773 0.054679 0.746988
v -0.041969 0.032241 0.735646
v -0.036670 0.034435 0.733692
v -0.037074 0.035985 0.735705
v -0.036758 0.041961 0.744573
v -0.034673 0.039321 0.734033
v -0.035679 0.044915 0.732969
v -0.035433 0.048127 0.739132
v -0.034566 0.045503 0.741365
v -0.035395 0.050071 0.744336
v -0.035412 0.047751 0.745429
v -0.037123 0.045005 0.747735
v -0.036466 0.050845 0.748293
v -0.037744 0.053504 0.748117
v -0.039071 0.049717 0.750907
v -0.036038 0.048984 0.748008
v -0.038200 0.047544 0.749655
v -0.026800 0.033004 0.715903
v -0.021245 0.035625 0.714108
v -0.021438 0.031344 0.712203
v -0.026177 0.029364 0.713779
v -0.036286 0.034952 0.705675
v -0.034633 0.033216 0.711476
v -0.034680 0.028696 0.708365
v -0.034971 0.030365 0.701720
v -0.032609 0.037563 0.700058
v -0.030699 0.032495 0.696761
v -0.033393 0.024709 0.700157
v -0.032853 0.023348 0.707198
v -0.023481 0.004431 0.707828
v -0.023917 0.004347 0.700870
v -0.007672 0.012556 0.709969
v -0.007486 0.013817 0.706307
v -0.030718 0.032637 0.714818
v -0.030729 0.028574 0.712253
v -0.014499 0.031232 0.705983
v -0.016259 0.029652 0.710923
v -0.017617 0.033593 0.710150
v -0.016690 0.035817 0.705154
v -0.017808 0.006513 0.713861
v -0.012222 0.009190 0.712163
v -0.021031 0.005486 0.711941
v -0.016140 0.031917 0.699519
v -0.020883 0.030746 0.694676
v -0.013184 0.011389 0.693937
v -0.009191 0.014538 0.697948
v -0.029972 0.023762 0.711889
v -0.020735 0.027680 0.713866
v -0.025326 0.025324 0.714664
v -0.028018 0.026827 0.695423
v -0.023672 0.036591 0.696289
v -0.023139 0.052603 0.708769
v -0.020405 0.042499 0.702474
v -0.017896 0.041006 0.706823
v -0.019681 0.051824 0.712451
v -0.018798 0.037319 0.700048
v -0.025548 0.041398 0.699659
v -0.026316 0.045402 0.723143
v -0.020802 0.047822 0.720882
v -0.030904 0.044983 0.722657
v -0.019536 0.006584 0.695235
v -0.036575 0.046143 0.713994
v -0.034277 0.044862 0.720034
v -0.017731 0.038184 0.711136
v -0.018521 0.050285 0.717049
v -0.027404 0.051898 0.707181
v -0.033715 0.048059 0.708070
v -0.028741 0.056542 0.711095
v -0.034183 0.053397 0.712671
v -0.036757 0.050561 0.718248
v -0.034013 0.048065 0.722768
v -0.030456 0.047239 0.724319
v -0.024403 0.057266 0.712335
v -0.020629 0.055995 0.715180
v -0.019277 0.052343 0.718650
v -0.022846 0.061037 0.718469
v -0.027552 0.062148 0.718392
v -0.031101 0.059114 0.737033
v -0.033068 0.056748 0.731699
v -0.032860 0.059205 0.730709
v -0.031022 0.061487 0.735505
v -0.035484 0.056083 0.725724
v -0.034315 0.058343 0.726186
v -0.032287 0.060583 0.722462
v -0.030065 0.062328 0.728251
v -0.026265 0.063942 0.725613
v -0.024923 0.066634 0.730666
v -0.028701 0.065376 0.733371
v -0.028892 0.062585 0.722009
v -0.029402 0.063604 0.738063
v -0.028069 0.062840 0.740166
v -0.033866 0.059564 0.719480
v -0.034029 0.050399 0.725667
v -0.031509 0.054416 0.733176
v -0.028642 0.057391 0.738448
v -0.025155 0.062066 0.740736
v -0.027529 0.053137 0.734216
v -0.025430 0.056733 0.738573
v -0.022832 0.060912 0.739846
v -0.022721 0.053058 0.733795
v -0.021294 0.057135 0.737605
v -0.025283 0.047869 0.725315
v -0.030007 0.047887 0.726334
v -0.021218 0.059543 0.738649
v -0.025817 0.066869 0.738769
v -0.022928 0.065454 0.739728
v -0.026979 0.066641 0.737291
v -0.024287 0.064148 0.724718
v -0.022713 0.066414 0.730819
v -0.021395 0.063601 0.724966
v -0.020396 0.066102 0.731612
v -0.022726 0.068044 0.735392
v -0.024407 0.067984 0.735164
v -0.026081 0.047511 0.723724
v -0.021259 0.049594 0.721387
v -0.020588 0.049925 0.722642
v -0.018721 0.055589 0.731057
v -0.018713 0.053479 0.719916
v -0.020003 0.058552 0.719164
v -0.019067 0.061932 0.725456
v -0.017539 0.059126 0.728011
v -0.018369 0.065287 0.731627
v -0.017450 0.062160 0.731807
v -0.018327 0.058744 0.735160
v -0.019103 0.066402 0.736175
v -0.021093 0.067660 0.735981
v -0.021313 0.063982 0.739246
v -0.017961 0.063774 0.735373
v -0.019578 0.061622 0.737909
v -0.009373 0.034607 0.703211
v -0.003916 0.036536 0.702540
v -0.002725 0.032965 0.702047
v -0.008167 0.031261 0.702382
v -0.015374 0.034475 0.691912
v -0.015808 0.034151 0.696817
v -0.014632 0.029922 0.695628
v -0.013806 0.028997 0.690314
v -0.012191 0.037671 0.688411
v -0.009776 0.030446 0.685968
v -0.011898 0.023716 0.689457
v -0.013134 0.025801 0.695129
v -0.006219 0.012432 0.697375
v -0.004886 0.011313 0.690870
v -0.013195 0.034090 0.700714
v -0.012138 0.030692 0.699904
v 0.004412 0.032927 0.696926
v 0.002147 0.032070 0.701081
v 0.001174 0.035075 0.699066
v 0.002318 0.036259 0.694967
v -0.000020 0.014146 0.706043
v 0.005972 0.014951 0.704727
v -0.004219 0.014058 0.702889
v 0.003572 0.032225 0.690338
v -0.000330 0.028851 0.685146
v 0.007771 0.016468 0.688115
v 0.010811 0.018047 0.693162
v -0.011354 0.027350 0.699824
v -0.001942 0.030069 0.703742
v -0.007449 0.028607 0.703546
v -0.006803 0.024979 0.685921
v -0.003623 0.034253 0.685476
v -0.007310 0.055188 0.694159
v -0.001127 0.040633 0.689872
v 0.000813 0.040117 0.695496
v -0.004612 0.054872 0.697675
v 0.000896 0.036764 0.689376
v -0.006007 0.039517 0.686938
v -0.012427 0.048607 0.707594
v -0.007432 0.050459 0.705985
v -0.015999 0.047022 0.705376
v 0.000677 0.012622 0.686575
v 0.011090 0.017485 0.699852
v -0.019501 0.048439 0.698842
v -0.018296 0.047237 0.702868
v -0.000137 0.038553 0.699404
v -0.004229 0.053143 0.702038
v -0.011480 0.053391 0.692003
v -0.016810 0.049942 0.693480
v -0.012577 0.058601 0.694783
v -0.017945 0.055279 0.696512
v -0.020545 0.053082 0.701667
v -0.018639 0.051068 0.705518
v -0.016032 0.050413 0.707665
v -0.007953 0.059651 0.696964
v -0.005450 0.058635 0.699947
v -0.004897 0.054269 0.702774
v -0.007756 0.062824 0.700052
v -0.013178 0.064067 0.699702
v -0.018017 0.066612 0.716272
v -0.018736 0.062389 0.712027
v -0.018473 0.063262 0.711214
v -0.018079 0.067846 0.715032
v -0.020161 0.059163 0.706041
v -0.019497 0.060969 0.706638
v -0.017869 0.062555 0.703286
v -0.016797 0.067134 0.707952
v -0.011285 0.067983 0.705466
v -0.011362 0.071412 0.709578
v -0.016463 0.071174 0.711949
v -0.014023 0.064619 0.701773
v -0.017252 0.070676 0.716607
v -0.017921 0.070376 0.718360
v -0.018358 0.061177 0.701029
v -0.019086 0.055109 0.708780
v -0.017985 0.060380 0.714125
v -0.017230 0.064530 0.718512
v -0.015478 0.068339 0.720222
v -0.014674 0.058990 0.715503
v -0.014364 0.063257 0.718900
v -0.012893 0.066751 0.720371
v -0.011327 0.058884 0.715604
v -0.011183 0.062842 0.718320
v -0.011956 0.051972 0.709524
v -0.015858 0.052810 0.709797
v -0.010971 0.065760 0.719455
v -0.014984 0.073728 0.716593
v -0.011600 0.072224 0.718637
v -0.015414 0.072862 0.715158
v -0.009641 0.067766 0.704602
v -0.009139 0.072105 0.709839
v -0.006990 0.066875 0.705249
v -0.006697 0.071125 0.710414
v -0.010912 0.074240 0.713309
v -0.011916 0.073734 0.712866
v -0.012179 0.050389 0.708036
v -0.007552 0.051771 0.706129
v -0.007507 0.053015 0.707484
v -0.006890 0.060280 0.714109
v -0.004835 0.055588 0.704345
v -0.005324 0.061474 0.702796
v -0.005275 0.065093 0.707561
v -0.004816 0.063060 0.710881
v -0.005380 0.069113 0.711881
v -0.005392 0.066522 0.713139
v -0.007302 0.063947 0.716959
v -0.007234 0.070742 0.715251
v -0.008581 0.073228 0.714276
v -0.009704 0.069693 0.719032
v -0.006544 0.068406 0.715884
v -0.008523 0.067499 0.718627
v 0.009729 0.016301 0.702896
v 0.014748 0.034255 0.695387
v 0.018381 0.036234 0.696174
v 0.019913 0.034440 0.696161
v 0.016574 0.031779 0.696146
v 0.013716 0.030703 0.684620
v 0.011820 0.031542 0.688889
v 0.013529 0.027569 0.688901
v 0.015611 0.026628 0.684764
v 0.018164 0.031937 0.682032
v 0.020409 0.028496 0.682429
v 0.017391 0.023764 0.685495
v 0.015344 0.024400 0.689893
v 0.021317 0.010727 0.694530
v 0.024728 0.008619 0.690492
v 0.039717 0.013580 0.701154
v 0.036829 0.014112 0.705933
v 0.033062 0.020225 0.701888
v 0.036325 0.019749 0.698514
v 0.012542 0.032701 0.692618
v 0.013975 0.029420 0.693518
v 0.029298 0.033787 0.692494
v 0.026126 0.033701 0.696108
v 0.023583 0.036222 0.695379
v 0.026776 0.037610 0.692225
v 0.031439 0.014431 0.706893
v 0.027068 0.013979 0.706274
v 0.024872 0.016797 0.703964
v 0.028449 0.019689 0.703171
v 0.020790 0.015052 0.700674
v 0.029865 0.032497 0.688434
v 0.027697 0.029197 0.683858
v 0.037415 0.014360 0.690522
v 0.038206 0.016914 0.694715
v 0.015314 0.027042 0.693802
v 0.022055 0.032033 0.697470
v 0.018303 0.030186 0.696857
v 0.022455 0.025279 0.682760
v 0.025193 0.032896 0.683497
v 0.021904 0.046216 0.687067
v 0.026000 0.039130 0.687276
v 0.025338 0.039754 0.692049
v 0.022187 0.046317 0.690380
v 0.027460 0.036393 0.687854
v 0.022993 0.036555 0.683121
v 0.012100 0.040725 0.695724
v 0.017031 0.043014 0.695790
v 0.009752 0.039506 0.693589
v 0.030966 0.009805 0.688065
v 0.009593 0.039231 0.686020
v 0.008475 0.039401 0.690350
v 0.021910 0.038306 0.695054
v 0.020577 0.045138 0.693780
v 0.019062 0.044486 0.683582
v 0.014140 0.040551 0.682526
v 0.016388 0.048588 0.684804
v 0.011621 0.044565 0.683954
v 0.007574 0.042743 0.688528
v 0.008080 0.041616 0.692283
v 0.009753 0.041503 0.695035
v 0.019864 0.049688 0.688215
v 0.020721 0.049125 0.691115
v 0.019813 0.046836 0.694122
v 0.017854 0.053022 0.689708
v 0.013216 0.053196 0.688390
v 0.005685 0.054558 0.699435
v 0.006155 0.051063 0.697083
v 0.006304 0.051849 0.696158
v 0.005268 0.055098 0.698566
v 0.006599 0.047678 0.692641
v 0.006865 0.049492 0.692723
v 0.008878 0.050282 0.689733
v 0.007782 0.054474 0.693048
v 0.012334 0.057271 0.692250
v 0.010902 0.060244 0.694886
v 0.006866 0.057661 0.695101
v 0.011622 0.053687 0.689367
v 0.004790 0.057833 0.699171
v 0.004600 0.058258 0.700512
v 0.009018 0.048798 0.687829
v 0.007547 0.044893 0.695517
v 0.006556 0.050433 0.699591
v 0.005804 0.055018 0.701866
v 0.006076 0.058897 0.702257
v 0.008537 0.049425 0.700869
v 0.007471 0.054675 0.703474
v 0.007866 0.058387 0.703687
v 0.011792 0.049433 0.701781
v 0.010084 0.054500 0.703748
v 0.013517 0.044259 0.698432
v 0.010031 0.044108 0.697639
v 0.009457 0.057568 0.703689
v 0.006287 0.061363 0.698712
v 0.008075 0.061364 0.701147
v 0.006210 0.060693 0.697201
v 0.013735 0.057548 0.692277
v 0.012156 0.061123 0.695604
v 0.015964 0.057444 0.693351
v 0.013645 0.060993 0.697203
v 0.009601 0.062532 0.697676
v 0.008794 0.061415 0.696328
v 0.012974 0.042788 0.697066
v 0.016553 0.044343 0.696341
v 0.017194 0.046205 0.697340
v 0.015487 0.051099 0.700822
v 0.019867 0.048950 0.694721
v 0.019773 0.051599 0.691842
v 0.017402 0.056382 0.695456
v 0.017671 0.054363 0.698227
v 0.014371 0.060177 0.699115
v 0.014779 0.057975 0.701202
v 0.013206 0.055702 0.703128
v 0.011304 0.061178 0.701188
v 0.010557 0.062305 0.699841
v 0.009489 0.060475 0.702438
v 0.012055 0.059723 0.702264
v 0.010975 0.058772 0.703119
v 0.039576 0.013309 0.697099
v -0.028608 -0.018489 0.746900
v -0.024941 -0.015742 0.743974
v -0.017396 -0.005729 0.754749
v -0.018562 -0.007062 0.747918
v -0.019985 -0.007058 0.761003
v -0.027730 -0.014760 0.763859
v -0.023171 -0.011140 0.764018
v -0.021497 -0.010880 0.744159
v -0.031145 -0.020342 0.752128
v -0.031020 -0.019345 0.759527
v -0.036459 -0.013821 0.750611
v -0.036376 -0.013049 0.758605
v -0.033352 -0.009308 0.763926
v -0.026414 -0.006358 0.764441
v -0.022395 -0.003834 0.762380
v -0.031093 -0.012343 0.745907
v -0.026865 -0.009868 0.743770
v -0.021813 -0.006143 0.745166
v -0.033338 -0.004028 0.744076
v -0.039732 0.003207 0.748057
v -0.039698 0.017941 0.761289
v -0.036935 0.011643 0.762118
v -0.039101 0.011355 0.760202
v -0.041846 0.016999 0.759974
v -0.037314 0.006010 0.761464
v -0.038446 0.006982 0.759549
v -0.039852 0.004594 0.755069
v -0.042032 0.010113 0.754714
v -0.039924 0.005457 0.749926
v -0.040739 0.009648 0.748636
v -0.044448 0.015405 0.754222
v -0.044581 0.019736 0.758416
v -0.046151 0.020092 0.753880
v -0.042366 0.022155 0.758887
v -0.041678 0.002465 0.755554
v -0.031529 0.002859 0.764273
v -0.033266 0.011448 0.763194
v -0.035898 0.018763 0.761297
v -0.039252 0.023139 0.758081
v -0.028904 0.012120 0.761605
v -0.032020 0.018335 0.758951
v -0.035005 0.021882 0.755375
v -0.025970 0.012232 0.757396
v -0.030041 0.017632 0.755336
v -0.020811 0.000522 0.757422
v -0.024810 0.001493 0.763037
v -0.033126 0.020202 0.753848
v -0.045189 0.022977 0.753210
v -0.041603 0.023899 0.752239
v -0.039189 0.008590 0.745609
v -0.043354 0.014582 0.747992
v -0.041220 0.014833 0.745650
v -0.035812 0.007521 0.743459
v -0.038663 0.015255 0.744299
v -0.043863 0.019876 0.747721
v -0.045325 0.018084 0.749606
v -0.018975 -0.002951 0.756978
v -0.018921 -0.004265 0.750316
v -0.020369 -0.001129 0.750869
v -0.025351 0.010545 0.750701
v -0.023106 -0.001691 0.745479
v -0.028516 -0.002935 0.743197
v -0.032035 0.008046 0.743086
v -0.027931 0.009038 0.745414
v -0.035008 0.015711 0.744857
v -0.032464 0.015838 0.746639
v -0.030263 0.017100 0.750871
v -0.037092 0.020103 0.747369
v -0.040732 0.020457 0.746700
v -0.037088 0.022458 0.751216
v -0.034670 0.018910 0.748100
v -0.034072 0.020247 0.750925
v 0.039922 0.010219 0.709713
v 0.033873 0.010055 0.712006
v 0.038393 0.006093 0.715541
v 0.043585 -0.000056 0.721301
v 0.052620 -0.005856 0.722395
v 0.037500 -0.002534 0.723285
v 0.032549 0.003976 0.717314
v 0.026267 0.009252 0.711851
v 0.035828 -0.011253 0.728821
f 2 3 1
f 1 3 4
f 5 6 8
f 8 6 7
f 9 4 10
f 10 4 3
f 12 13 11
f 11 13 9
f 14 12 16
f 16 12 15
f 18 19 17
f 17 19 20
f 22 23 21
f 21 23 24
f 26 27 25
f 25 27 28
f 30 31 29
f 29 31 32
f 33 34 36
f 36 34 35
f 37 38 40
f 40 38 39
f 41 42 6
f 6 42 43
f 6 43 7
f 7 43 44
f 45 34 46
f 46 34 33
f 48 49 47
f 47 49 50
f 52 53 51
f 51 53 54
f 56 52 55
f 55 52 51
f 58 59 57
f 57 59 60
f 61 62 4
f 4 62 1
f 64 65 63
f 63 65 66
f 68 69 67
f 67 69 70
f 72 73 71
f 71 73 74
f 76 77 75
f 75 77 78
f 53 79 54
f 54 79 80
f 82 83 81
f 81 83 84
f 85 86 52
f 52 86 53
f 57 60 87
f 87 60 88
f 89 90 43
f 43 90 44
f 43 42 89
f 89 42 91
f 40 39 92
f 92 39 93
f 94 70 64
f 64 70 69
f 13 61 9
f 9 61 4
f 25 28 69
f 69 28 95
f 96 25 68
f 68 25 69
f 98 99 97
f 97 99 100
f 101 102 104
f 104 102 103
f 106 30 105
f 105 30 29
f 51 54 107
f 107 54 108
f 54 80 108
f 108 80 109
f 111 112 110
f 110 112 113
f 115 5 114
f 114 5 116
f 115 41 5
f 5 41 6
f 36 35 111
f 111 35 117
f 35 118 117
f 117 118 119
f 34 120 35
f 35 120 118
f 34 45 120
f 120 45 121
f 125 126 124
f 124 126 127
f 128 129 14
f 14 129 130
f 33 131 46
f 46 131 132
f 133 94 63
f 63 94 64
f 134 135 137
f 137 135 136
f 139 140 138
f 138 140 141
f 77 142 78
f 78 142 143
f 144 145 20
f 20 145 146
f 148 149 147
f 147 149 72
f 151 152 150
f 150 152 153
f 82 101 83
f 83 101 104
f 101 82 155
f 155 82 154
f 156 157 58
f 58 157 59
f 158 68 147
f 147 68 67
f 159 146 15
f 15 146 16
f 68 158 96
f 96 158 160
f 129 66 130
f 130 66 65
f 162 163 161
f 161 163 164
f 166 167 165
f 165 167 168
f 170 171 169
f 169 171 172
f 174 171 173
f 173 171 170
f 176 177 175
f 175 177 178
f 180 181 179
f 179 181 24
f 182 183 21
f 21 183 184
f 81 185 82
f 82 185 154
f 186 187 188
f 188 187 144
f 158 71 160
f 160 71 189
f 190 135 157
f 157 135 59
f 169 172 139
f 139 172 140
f 147 72 158
f 158 72 71
f 192 193 191
f 191 193 194
f 167 166 49
f 49 166 195
f 196 190 50
f 50 190 157
f 197 198 200
f 200 198 199
f 21 24 182
f 182 24 181
f 146 159 20
f 20 159 17
f 182 181 81
f 81 181 185
f 201 185 180
f 180 185 181
f 202 203 83
f 83 203 84
f 205 206 204
f 204 206 85
f 207 22 184
f 184 22 21
f 179 24 208
f 208 24 23
f 208 209 179
f 179 209 205
f 209 210 205
f 205 210 206
f 212 206 211
f 211 206 210
f 179 205 180
f 180 205 204
f 213 176 88
f 88 176 214
f 86 85 212
f 212 85 206
f 193 217 218
f 217 219 218
f 218 219 220
f 219 18 220
f 220 18 17
f 19 221 20
f 20 221 144
f 222 223 225
f 225 223 224
f 175 226 176
f 176 226 214
f 227 87 214
f 214 87 88
f 220 17 228
f 228 17 159
f 134 213 60
f 60 213 88
f 138 229 151
f 151 229 152
f 193 192 210
f 210 192 211
f 230 194 218
f 218 194 193
f 231 232 228
f 228 232 230
f 233 234 91
f 91 234 89
f 235 236 93
f 93 236 92
f 230 232 234
f 234 232 237
f 47 238 48
f 48 238 239
f 240 191 235
f 235 191 236
f 5 8 116
f 116 8 241
f 242 243 189
f 189 243 160
f 244 245 98
f 98 245 99
f 156 246 47
f 47 246 238
f 76 247 77
f 77 247 248
f 250 125 249
f 249 125 124
f 252 253 251
f 251 253 254
f 111 110 36
f 36 110 255
f 256 33 255
f 255 33 36
f 257 258 154
f 154 258 155
f 63 169 133
f 133 169 139
f 66 170 63
f 63 170 169
f 173 170 129
f 129 170 66
f 129 128 173
f 173 128 259
f 128 260 259
f 259 260 261
f 213 134 262
f 262 134 137
f 263 264 186
f 186 264 187
f 112 265 113
f 113 265 266
f 11 267 268
f 234 233 230
f 230 233 194
f 153 269 70
f 70 269 67
f 175 178 165
f 165 178 141
f 150 153 94
f 94 153 70
f 271 221 270
f 270 221 207
f 269 153 272
f 272 153 152
f 121 45 109
f 109 45 108
f 47 50 156
f 156 50 157
f 57 273 58
f 58 273 274
f 145 275 260
f 260 275 261
f 276 149 143
f 143 149 78
f 148 269 75
f 75 269 272
f 207 277 270
f 270 277 278
f 195 196 49
f 49 196 50
f 59 135 60
f 60 135 134
f 83 104 202
f 202 104 279
f 149 148 78
f 78 148 75
f 247 278 248
f 248 278 277
f 183 182 84
f 84 182 81
f 48 239 281
f 281 239 282
f 227 223 283
f 283 223 222
f 223 226 224
f 224 226 168
f 281 282 224
f 224 282 225
f 165 168 175
f 175 168 226
f 264 263 138
f 138 263 229
f 14 16 128
f 128 16 260
f 220 228 218
f 218 228 230
f 87 227 284
f 284 227 283
f 260 16 145
f 145 16 146
f 244 98 258
f 258 98 155
f 58 274 156
f 156 274 246
f 107 285 51
f 51 285 55
f 243 286 160
f 160 286 96
f 234 237 89
f 89 237 90
f 46 132 107
f 107 132 285
f 253 252 249
f 249 252 250
f 286 26 96
f 96 26 25
f 106 105 287
f 287 105 288
f 272 152 289
f 289 152 229
f 138 151 139
f 139 151 133
f 183 290 161
f 161 290 162
f 291 292 277
f 277 292 293
f 151 150 133
f 133 150 94
f 262 275 177
f 177 275 187
f 144 187 145
f 145 187 275
f 273 57 284
f 284 57 87
f 174 136 190
f 190 136 135
f 111 117 112
f 112 117 38
f 117 119 38
f 38 119 123
f 112 38 265
f 265 38 37
f 287 288 254
f 254 288 251
f 228 159 231
f 231 159 15
f 223 227 226
f 226 227 214
f 147 67 148
f 148 67 269
f 224 168 281
f 281 168 167
f 199 163 200
f 200 163 162
f 45 46 108
f 108 46 107
f 281 167 48
f 48 167 49
f 161 164 291
f 291 164 292
f 38 123 39
f 293 294 277
f 277 294 248
f 284 283 296
f 296 283 295
f 284 296 273
f 273 296 297
f 274 273 298
f 298 273 297
f 246 274 299
f 299 274 298
f 283 222 295
f 295 222 300
f 222 225 300
f 300 225 301
f 301 225 302
f 302 225 282
f 303 304 300
f 300 304 295
f 306 307 305
f 305 307 308
f 309 310 308
f 308 310 305
f 308 307 312
f 312 307 311
f 313 314 312
f 312 314 315
f 311 316 312
f 312 316 313
f 317 304 311
f 311 304 316
f 315 309 312
f 312 309 308
f 318 319 321
f 321 319 320
f 319 318 309
f 309 318 310
f 311 307 317
f 317 307 306
f 306 297 317
f 317 297 296
f 306 322 297
f 297 322 298
f 305 323 306
f 306 323 322
f 323 305 324
f 324 305 310
f 304 317 295
f 295 317 296
f 318 325 310
f 310 325 324
f 323 324 326
f 326 324 327
f 324 325 327
f 327 325 328
f 326 327 329
f 329 327 330
f 329 331 326
f 326 331 332
f 333 330 328
f 328 330 327
f 323 326 322
f 322 326 332
f 322 332 298
f 298 332 299
f 325 318 334
f 334 318 321
f 313 316 335
f 335 316 304
f 335 336 313
f 313 336 314
f 304 303 335
f 335 303 337
f 336 335 338
f 338 335 337
f 336 339 314
f 314 339 340
f 246 299 238
f 238 299 341
f 239 342 282
f 282 342 302
f 342 239 341
f 341 239 238
f 341 331 342
f 342 331 343
f 331 329 343
f 343 329 344
f 342 343 302
f 302 343 345
f 341 299 331
f 331 299 332
f 346 301 345
f 345 301 302
f 346 303 301
f 301 303 300
f 347 337 346
f 346 337 303
f 347 346 348
f 348 346 345
f 349 347 350
f 350 347 348
f 343 344 345
f 345 344 348
f 344 351 348
f 348 351 350
f 337 347 338
f 338 347 349
f 353 338 352
f 352 338 349
f 352 355 354
f 354 355 356
f 352 349 355
f 355 349 350
f 352 354 353
f 353 354 334
f 353 334 339
f 339 334 321
f 339 336 353
f 353 336 338
f 329 330 344
f 344 330 351
f 356 351 333
f 333 351 330
f 356 355 351
f 351 355 350
f 354 356 328
f 328 356 333
f 328 325 354
f 354 325 334
f 309 315 319
f 319 315 320
f 320 340 321
f 321 340 339
f 320 315 340
f 340 315 314
f 137 136 261
f 261 136 259
f 140 166 141
f 141 166 165
f 172 171 195
f 195 171 196
f 171 174 196
f 196 174 190
f 178 177 264
f 264 177 187
f 172 195 140
f 140 195 166
f 137 261 262
f 262 261 275
f 178 264 141
f 141 264 138
f 262 177 213
f 213 177 176
f 136 174 259
f 259 174 173
f 358 359 357
f 357 359 360
f 362 363 361
f 361 363 364
f 361 364 365
f 365 364 366
f 367 368 370
f 370 368 369
f 76 371 247
f 247 371 372
f 373 374 362
f 362 374 363
f 376 377 375
f 375 377 378
f 289 229 380
f 380 229 379
f 381 379 263
f 263 379 229
f 383 384 382
f 382 384 385
f 386 368 374
f 374 368 363
f 76 289 371
f 371 289 380
f 377 376 359
f 359 376 387
f 388 386 360
f 360 386 374
f 389 383 366
f 366 383 390
f 392 393 391
f 391 393 394
f 383 382 390
f 390 382 395
f 396 365 390
f 390 365 366
f 389 366 367
f 367 366 364
f 357 397 358
f 358 397 398
f 373 399 357
f 357 399 397
f 389 367 400
f 400 367 370
f 382 385 375
f 375 385 372
f 357 360 373
f 373 360 374
f 361 401 362
f 362 401 402
f 387 388 359
f 359 388 360
f 363 368 364
f 364 368 367
f 358 398 403
f 403 398 404
f 396 392 405
f 405 392 391
f 392 395 393
f 393 395 378
f 393 403 394
f 394 403 404
f 375 378 382
f 382 378 395
f 365 396 406
f 406 396 405
f 362 402 373
f 373 402 399
f 271 270 400
f 400 270 384
f 401 361 406
f 406 361 365
f 381 369 386
f 386 369 368
f 392 396 395
f 395 396 390
f 393 378 403
f 403 378 377
f 403 377 358
f 358 377 359
f 406 405 408
f 408 405 407
f 406 408 401
f 401 408 409
f 401 409 402
f 402 409 410
f 402 410 399
f 399 410 411
f 405 391 407
f 407 391 412
f 391 394 412
f 412 394 413
f 394 404 413
f 413 404 414
f 415 416 412
f 412 416 407
f 418 419 417
f 417 419 420
f 421 422 418
f 418 422 419
f 419 422 424
f 424 422 423
f 425 426 424
f 424 426 427
f 423 428 424
f 424 428 425
f 427 420 424
f 424 420 419
f 420 429 417
f 417 429 430
f 423 422 431
f 431 422 421
f 421 409 431
f 431 409 408
f 421 432 409
f 409 432 410
f 418 433 421
f 421 433 432
f 434 433 417
f 417 433 418
f 431 416 423
f 423 416 428
f 416 431 407
f 407 431 408
f 435 434 430
f 430 434 417
f 433 434 436
f 436 434 437
f 434 435 437
f 437 435 438
f 436 437 439
f 439 437 440
f 439 441 436
f 436 441 442
f 438 443 437
f 437 443 440
f 436 442 433
f 433 442 432
f 432 442 410
f 410 442 411
f 435 430 445
f 445 430 444
f 430 429 444
f 444 429 446
f 425 428 447
f 447 428 416
f 426 425 448
f 448 425 447
f 416 415 447
f 447 415 449
f 447 449 448
f 448 449 450
f 451 452 448
f 448 452 426
f 446 452 444
f 444 452 451
f 399 411 397
f 397 411 453
f 398 454 404
f 404 454 414
f 454 398 453
f 453 398 397
f 453 441 454
f 454 441 455
f 441 439 455
f 455 439 456
f 454 455 414
f 414 455 457
f 441 453 442
f 442 453 411
f 458 413 457
f 457 413 414
f 458 415 413
f 413 415 412
f 458 459 415
f 415 459 449
f 459 458 460
f 460 458 457
f 461 459 462
f 462 459 460
f 455 456 457
f 457 456 460
f 456 463 460
f 460 463 462
f 459 461 449
f 449 461 450
f 465 450 464
f 464 450 461
f 464 467 466
f 466 467 468
f 464 461 467
f 467 461 462
f 464 466 465
f 465 466 445
f 465 445 451
f 451 445 444
f 451 448 465
f 465 448 450
f 439 440 456
f 456 440 463
f 468 463 443
f 443 463 440
f 468 467 463
f 463 467 462
f 466 468 438
f 438 468 443
f 438 435 466
f 466 435 445
f 420 427 429
f 429 427 446
f 446 427 452
f 452 427 426
f 370 369 188
f 188 369 186
f 371 376 372
f 372 376 375
f 380 379 387
f 387 379 388
f 379 381 388
f 388 381 386
f 385 384 278
f 278 384 270
f 380 387 371
f 371 387 376
f 400 370 271
f 271 370 188
f 385 278 372
f 372 278 247
f 400 384 389
f 389 384 383
f 369 381 186
f 186 381 263
f 221 271 144
f 144 271 188
f 221 19 207
f 207 19 22
f 19 18 22
f 22 18 23
f 18 219 23
f 23 219 208
f 469 470 472
f 472 470 471
f 474 475 473
f 473 475 476
f 473 476 477
f 477 476 478
f 480 481 479
f 479 481 482
f 483 484 474
f 474 484 475
f 486 487 485
f 485 487 488
f 489 490 77
f 77 490 142
f 491 489 248
f 248 489 77
f 493 494 492
f 492 494 495
f 496 480 484
f 484 480 475
f 486 497 487
f 487 497 471
f 498 496 472
f 472 496 484
f 499 493 478
f 478 493 500
f 501 502 504
f 504 502 503
f 493 492 500
f 500 492 505
f 506 477 500
f 500 477 478
f 499 478 479
f 479 478 476
f 469 507 470
f 470 507 508
f 483 509 469
f 469 509 507
f 479 482 499
f 499 482 510
f 492 495 485
f 485 495 511
f 483 469 484
f 484 469 472
f 473 512 474
f 474 512 513
f 497 498 471
f 471 498 472
f 475 480 476
f 476 480 479
f 470 508 514
f 514 508 515
f 506 502 516
f 516 502 501
f 503 502 488
f 488 502 505
f 514 515 503
f 503 515 504
f 485 488 492
f 492 488 505
f 477 506 517
f 517 506 516
f 474 513 483
f 483 513 509
f 510 292 494
f 494 292 164
f 512 473 517
f 517 473 477
f 491 481 496
f 496 481 480
f 502 506 505
f 505 506 500
f 503 488 514
f 514 488 487
f 514 487 470
f 470 487 471
f 517 516 519
f 519 516 518
f 517 519 512
f 512 519 520
f 512 520 513
f 513 520 521
f 513 521 509
f 509 521 522
f 516 501 518
f 518 501 523
f 501 504 523
f 523 504 524
f 524 504 525
f 525 504 515
f 526 527 523
f 523 527 518
f 529 530 528
f 528 530 531
f 532 533 529
f 529 533 530
f 530 533 535
f 535 533 534
f 536 537 535
f 535 537 538
f 534 539 535
f 535 539 536
f 538 531 535
f 535 531 530
f 540 541 531
f 531 541 528
f 533 532 534
f 534 532 542
f 532 520 542
f 542 520 519
f 532 543 520
f 520 543 521
f 529 544 532
f 532 544 543
f 544 529 545
f 545 529 528
f 534 542 539
f 539 542 527
f 527 542 518
f 518 542 519
f 541 546 528
f 528 546 545
f 547 544 548
f 548 544 545
f 546 549 545
f 545 549 548
f 550 547 551
f 551 547 548
f 547 550 553
f 553 550 552
f 549 554 548
f 548 554 551
f 544 547 543
f 543 547 553
f 543 553 521
f 521 553 522
f 546 541 556
f 556 541 555
f 541 540 555
f 555 540 557
f 536 539 558
f 558 539 527
f 537 536 559
f 559 536 558
f 527 526 558
f 558 526 560
f 559 558 561
f 561 558 560
f 559 562 537
f 537 562 563
f 557 563 555
f 555 563 562
f 509 522 507
f 507 522 564
f 508 565 515
f 515 565 525
f 565 508 564
f 564 508 507
f 564 552 565
f 565 552 566
f 552 550 566
f 566 550 567
f 565 566 525
f 525 566 568
f 564 522 552
f 552 522 553
f 569 524 568
f 568 524 525
f 569 526 524
f 524 526 523
f 570 560 569
f 569 560 526
f 570 569 571
f 571 569 568
f 572 570 573
f 573 570 571
f 566 567 568
f 568 567 571
f 567 574 571
f 571 574 573
f 570 572 560
f 560 572 561
f 576 561 575
f 575 561 572
f 575 578 577
f 577 578 579
f 575 572 578
f 578 572 573
f 575 577 576
f 576 577 556
f 576 556 562
f 562 556 555
f 562 559 576
f 576 559 561
f 550 551 567
f 567 551 574
f 579 574 554
f 554 574 551
f 579 578 574
f 574 578 573
f 579 554 577
f 577 554 549
f 549 546 577
f 577 546 556
f 531 538 540
f 540 538 557
f 557 538 563
f 563 538 537
f 481 294 482
f 482 294 293
f 580 486 511
f 511 486 485
f 490 489 497
f 497 489 498
f 489 491 498
f 498 491 496
f 163 495 164
f 164 495 494
f 580 490 486
f 486 490 497
f 482 293 510
f 510 293 292
f 495 163 511
f 511 163 199
f 494 493 510
f 510 493 499
f 481 491 294
f 294 491 248
f 582 583 581
f 581 583 584
f 586 587 585
f 585 587 588
f 585 588 589
f 589 588 590
f 592 593 591
f 591 593 594
f 595 596 598
f 598 596 597
f 599 600 586
f 586 600 587
f 601 602 604
f 604 602 603
f 605 606 608
f 608 606 607
f 609 607 200
f 200 607 606
f 610 611 613
f 613 611 612
f 600 614 587
f 587 614 592
f 596 605 597
f 597 605 608
f 602 615 603
f 603 615 583
f 616 614 584
f 584 614 600
f 611 618 617
f 617 618 590
f 620 621 619
f 619 621 622
f 610 623 611
f 611 623 618
f 624 589 618
f 618 589 590
f 617 590 591
f 591 590 588
f 581 625 582
f 582 625 626
f 599 627 581
f 581 627 625
f 591 594 617
f 617 594 628
f 601 610 598
f 598 610 613
f 581 584 599
f 599 584 600
f 585 629 586
f 586 629 630
f 615 616 583
f 583 616 584
f 587 592 588
f 588 592 591
f 582 626 631
f 631 626 632
f 624 620 633
f 633 620 619
f 621 620 604
f 604 620 623
f 631 632 621
f 621 632 622
f 610 601 623
f 623 601 604
f 589 624 634
f 634 624 633
f 586 630 599
f 599 630 627
f 203 202 628
f 628 202 612
f 629 585 634
f 634 585 589
f 609 593 614
f 614 593 592
f 620 624 623
f 623 624 618
f 631 621 603
f 603 621 604
f 582 631 583
f 583 631 603
f 634 633 636
f 636 633 635
f 634 636 629
f 629 636 637
f 629 637 630
f 630 637 638
f 630 638 627
f 627 638 639
f 633 619 635
f 635 619 640
f 619 622 640
f 640 622 641
f 641 622 642
f 642 622 632
f 644 635 643
f 643 635 640
f 645 646 648
f 648 646 647
f 649 650 646
f 646 650 647
f 647 650 652
f 652 650 651
f 652 653 655
f 655 653 654
f 651 656 652
f 652 656 653
f 655 648 652
f 652 648 647
f 648 657 645
f 645 657 658
f 650 649 651
f 651 649 659
f 649 637 659
f 659 637 636
f 649 660 637
f 637 660 638
f 661 660 646
f 646 660 649
f 662 661 645
f 645 661 646
f 651 659 656
f 656 659 644
f 644 659 635
f 635 659 636
f 663 662 658
f 658 662 645
f 664 661 665
f 665 661 662
f 663 666 662
f 662 666 665
f 667 664 668
f 668 664 665
f 664 667 670
f 670 667 669
f 666 671 665
f 665 671 668
f 661 664 660
f 660 664 670
f 660 670 638
f 638 670 639
f 658 672 663
f 663 672 673
f 658 657 672
f 672 657 674
f 653 656 675
f 675 656 644
f 653 675 654
f 654 675 676
f 675 644 677
f 677 644 643
f 676 675 678
f 678 675 677
f 679 680 676
f 676 680 654
f 674 680 672
f 672 680 679
f 627 639 625
f 625 639 681
f 626 682 632
f 632 682 642
f 681 682 625
f 625 682 626
f 669 683 681
f 681 683 682
f 667 684 669
f 669 684 683
f 682 683 642
f 642 683 685
f 681 639 669
f 669 639 670
f 686 641 685
f 685 641 642
f 641 686 640
f 640 686 643
f 686 687 643
f 643 687 677
f 687 686 688
f 688 686 685
f 689 687 690
f 690 687 688
f 683 684 685
f 685 684 688
f 684 691 688
f 688 691 690
f 687 689 677
f 677 689 678
f 693 678 692
f 692 678 689
f 692 695 694
f 694 695 696
f 692 689 695
f 695 689 690
f 692 694 693
f 693 694 673
f 693 673 679
f 679 673 672
f 679 676 693
f 693 676 678
f 684 667 691
f 691 667 668
f 696 691 671
f 671 691 668
f 696 695 691
f 691 695 690
f 694 696 666
f 666 696 671
f 666 663 694
f 694 663 673
f 648 655 657
f 657 655 674
f 674 655 680
f 680 655 654
f 593 162 594
f 594 162 290
f 598 597 601
f 601 597 602
f 615 608 616
f 616 608 607
f 607 609 616
f 616 609 614
f 697 595 613
f 613 595 598
f 597 608 602
f 602 608 615
f 594 290 628
f 628 290 203
f 628 612 617
f 617 612 611
f 593 609 162
f 162 609 200
f 105 29 698
f 698 29 699
f 268 126 701
f 701 126 700
f 126 125 700
f 700 125 702
f 252 703 250
f 250 703 704
f 32 268 705
f 705 268 701
f 288 105 706
f 706 105 698
f 29 32 699
f 699 32 705
f 707 251 706
f 706 251 288
f 250 704 125
f 125 704 702
f 703 252 707
f 707 252 251
f 706 708 707
f 707 708 709
f 707 709 703
f 703 709 710
f 703 710 704
f 704 710 711
f 704 711 702
f 702 711 712
f 706 698 708
f 708 698 713
f 698 699 713
f 713 699 714
f 699 705 714
f 714 705 715
f 717 708 716
f 716 708 713
f 719 720 718
f 718 720 721
f 722 723 719
f 719 723 720
f 724 725 723
f 723 725 720
f 724 726 725
f 725 726 727
f 728 721 725
f 725 721 720
f 721 728 729
f 729 728 730
f 729 731 721
f 721 731 718
f 724 723 732
f 732 723 722
f 722 710 732
f 732 710 709
f 722 733 710
f 710 733 711
f 719 734 722
f 722 734 733
f 734 719 735
f 735 719 718
f 724 732 726
f 726 732 717
f 717 732 708
f 708 732 709
f 731 736 718
f 718 736 735
f 737 734 738
f 738 734 735
f 736 739 735
f 735 739 738
f 740 737 741
f 741 737 738
f 737 740 743
f 743 740 742
f 739 744 738
f 738 744 741
f 734 737 733
f 733 737 743
f 733 743 711
f 711 743 712
f 736 731 746
f 746 731 745
f 731 729 745
f 745 729 730
f 727 726 747
f 747 726 717
f 748 727 749
f 749 727 747
f 747 717 750
f 750 717 716
f 749 747 751
f 751 747 750
f 749 752 748
f 748 752 753
f 730 753 745
f 745 753 752
f 728 725 748
f 748 725 727
f 730 728 753
f 753 728 748
f 700 702 754
f 754 702 712
f 705 701 715
f 715 701 755
f 754 755 700
f 700 755 701
f 742 756 754
f 754 756 755
f 740 757 742
f 742 757 756
f 755 756 715
f 715 756 758
f 754 712 742
f 742 712 743
f 759 714 758
f 758 714 715
f 714 759 713
f 713 759 716
f 759 760 716
f 716 760 750
f 760 759 761
f 761 759 758
f 762 760 763
f 763 760 761
f 756 757 758
f 758 757 761
f 757 764 761
f 761 764 763
f 760 762 750
f 750 762 751
f 766 751 765
f 765 751 762
f 767 765 769
f 769 765 768
f 765 762 768
f 768 762 763
f 765 767 766
f 766 767 746
f 766 746 752
f 752 746 745
f 752 749 766
f 766 749 751
f 757 740 764
f 764 740 741
f 769 764 744
f 744 764 741
f 769 768 764
f 764 768 763
f 767 769 739
f 739 769 744
f 739 736 767
f 767 736 746
f 219 217 208
f 208 217 209
f 209 217 210
f 210 217 193
f 198 580 199
f 199 580 511
f 76 75 289
f 289 75 272
f 277 207 291
f 291 207 184
f 290 183 203
f 203 183 84
f 490 580 142
f 142 580 198
f 142 198 143
f 143 198 197
f 149 276 72
f 72 276 73
f 104 103 279
f 279 103 770
f 770 596 279
f 279 596 595
f 605 596 771
f 771 596 770
f 771 770 772
f 772 770 103
f 772 103 773
f 773 103 102
f 155 774 101
f 101 774 102
f 773 102 97
f 97 102 774
f 775 773 100
f 100 773 97
f 773 775 772
f 772 775 776
f 772 776 771
f 771 776 777
f 200 606 197
f 197 606 777
f 189 71 778
f 778 71 74
f 97 774 98
f 98 774 155
f 183 161 184
f 184 161 291
f 777 276 197
f 197 276 143
f 777 606 771
f 771 606 605
f 613 612 697
f 697 612 202
f 595 697 279
f 279 697 202
f 73 276 776
f 776 276 777
f 776 775 73
f 73 775 74
f 100 778 775
f 775 778 74
f 778 100 189
f 189 100 99
f 245 242 99
f 99 242 189
f 131 33 256
f 28 1 95
f 95 1 62
f 27 2 28
f 28 2 1
f 265 115 266
f 266 115 114
f 95 62 69
f 69 62 64
f 62 61 64
f 64 61 65
f 61 13 65
f 65 13 130
f 13 12 130
f 130 12 14
f 31 11 32
f 32 11 268
f 15 12 31
f 31 12 11
f 31 30 15
f 15 30 231
f 30 106 231
f 231 106 232
f 287 237 106
f 106 237 232
f 254 90 287
f 287 90 237
f 253 44 254
f 254 44 90
f 253 249 44
f 44 249 7
f 267 127 268
f 268 127 126
f 10 3 241
f 241 3 116
f 3 2 116
f 116 2 114
f 2 27 114
f 114 27 266
f 27 26 266
f 266 26 113
f 26 286 113
f 113 286 110
f 286 243 110
f 110 243 255
f 243 242 255
f 255 242 256
f 242 245 256
f 256 245 131
f 245 244 131
f 131 244 132
f 265 37 115
f 115 37 41
f 41 37 42
f 42 37 40
f 92 91 40
f 40 91 42
f 236 233 92
f 92 233 91
f 191 194 236
f 236 194 233
f 258 285 244
f 244 285 132
f 257 55 258
f 258 55 285
f 257 154 201
f 201 154 185
f 56 201 204
f 204 201 180
f 55 257 56
f 56 257 201
f 204 85 56
f 56 85 52
f 86 122 53
f 53 122 79
f 212 215 86
f 86 215 122
f 211 216 212
f 212 216 215
f 192 280 211
f 211 280 216
f 191 240 192
f 192 240 280
f 249 124 7
f 7 124 8
f 124 127 8
f 8 127 241
f 127 267 241
f 241 267 10
f 10 267 9
f 9 267 11
o hand_right
v -0.114029 0.001270 0.686754
v -0.119685 0.009798 0.690462
v -0.119098 -0.000533 0.691629
v -0.115187 -0.007836 0.687880
v -0.131234 0.008238 0.705750
v -0.143590 0.007331 0.707255
v -0.137326 -0.008466 0.705719
v -0.127508 -0.004680 0.705149
v -0.116100 -0.015358 0.685939
v -0.118380 -0.008889 0.691968
v -0.118717 -0.017371 0.680724
v -0.117088 -0.023399 0.671881
v -0.113970 -0.021529 0.679127
v -0.112261 -0.028113 0.667291
v -0.123121 -0.017848 0.664206
v -0.110491 -0.024712 0.658501
v -0.110388 0.004327 0.654113
v -0.102493 0.015172 0.654565
v -0.089879 0.003178 0.651847
v -0.099055 -0.006972 0.652649
v -0.082954 0.022008 0.658301
v -0.086110 0.011128 0.654567
v -0.098583 0.023200 0.655857
v -0.095041 0.032248 0.659206
v -0.109299 0.016105 0.686385
v -0.115485 0.024862 0.689505
v -0.117776 0.019961 0.688935
v -0.111889 0.011420 0.686162
v -0.126314 -0.021489 0.680255
v -0.133434 -0.016378 0.674957
v -0.125597 -0.017778 0.675178
v -0.121572 -0.020321 0.682925
v -0.124457 0.049119 0.701688
v -0.134186 0.057626 0.697776
v -0.138328 0.053501 0.697010
v -0.128492 0.046690 0.700368
v -0.148856 0.032033 0.701853
v -0.152078 0.041362 0.695526
v -0.162960 0.040149 0.686943
v -0.160215 0.030024 0.689550
v -0.146205 0.019434 0.706268
v -0.157369 0.018211 0.697344
v -0.153025 0.004793 0.700565
v -0.144802 -0.011768 0.700889
v -0.125472 0.066982 0.696573
v -0.117116 0.062107 0.699793
v -0.080747 -0.047153 0.687863
v -0.079227 -0.041389 0.689373
v -0.079786 -0.040655 0.688222
v -0.081289 -0.046433 0.686836
v -0.112638 0.071922 0.681755
v -0.113272 0.071740 0.671685
v -0.117540 0.077197 0.673991
v -0.118582 0.076340 0.683308
v -0.104852 0.065981 0.679775
v -0.107660 0.063719 0.669070
v -0.070102 -0.053693 0.685008
v -0.075203 -0.053897 0.686348
v -0.075231 -0.053488 0.682241
v -0.070092 -0.052605 0.679804
v -0.111416 -0.015720 0.683904
v -0.108463 -0.006935 0.685249
v -0.100193 -0.027494 0.680005
v -0.102218 -0.018715 0.681152
v -0.107802 -0.023076 0.679692
v -0.105064 -0.029932 0.677599
v -0.091452 0.002480 0.681894
v -0.099680 0.010592 0.683738
v -0.102343 0.004617 0.683110
v -0.094454 -0.005617 0.681806
v -0.091891 0.021816 0.687555
v -0.084426 0.012966 0.684991
v -0.080831 0.020353 0.687444
v -0.086761 0.025196 0.689813
v -0.074743 -0.004157 0.679285
v -0.071830 -0.008913 0.677590
v -0.067882 -0.007100 0.679037
v -0.072641 -0.000932 0.680080
v -0.122182 0.082446 0.675158
v -0.124841 0.079953 0.684293
v -0.074749 0.039703 0.667893
v -0.074641 0.046481 0.676806
v -0.063169 0.039516 0.676209
v -0.066332 0.034126 0.666427
v -0.116852 0.066494 0.663465
v -0.119781 0.073658 0.664840
v -0.064907 -0.049846 0.684325
v -0.064373 -0.048933 0.679366
v -0.157292 0.006387 0.687887
v -0.148753 -0.012532 0.691976
v -0.160738 0.021368 0.682700
v -0.161989 0.031818 0.677759
v -0.165405 0.039822 0.675073
v -0.095966 -0.017231 0.681055
v -0.107548 0.002317 0.684721
v -0.106644 0.020290 0.687192
v -0.086143 0.041325 0.696496
v -0.093941 0.048161 0.698724
v -0.097453 0.038124 0.697666
v -0.089896 0.034327 0.695298
v -0.073709 0.046169 0.686617
v -0.075134 0.040414 0.692043
v -0.067892 0.034908 0.690033
v -0.064795 0.039741 0.684996
v -0.132995 -0.024688 0.680925
v -0.140653 -0.015138 0.676197
v -0.114460 0.069209 0.691830
v -0.121727 0.072048 0.691958
v -0.128511 0.076912 0.690435
v -0.120974 0.036155 0.696518
v -0.131371 0.044943 0.699747
v -0.133927 0.041103 0.700332
v -0.122768 0.033903 0.695423
v -0.124576 0.017166 0.697744
v -0.134116 0.023340 0.704787
v -0.121658 0.005129 0.698740
v -0.145204 0.049081 0.696315
v -0.146176 0.060100 0.696416
v -0.152802 0.054457 0.694523
v -0.139256 0.067044 0.696113
v -0.132914 0.073061 0.694353
v -0.123684 0.081107 0.663368
v -0.158111 0.048861 0.691188
v -0.125224 -0.013191 0.703535
v -0.122897 -0.020158 0.701962
v -0.118096 -0.017561 0.696427
v -0.119663 -0.011274 0.697276
v -0.104726 -0.034004 0.664730
v -0.106064 -0.033424 0.672647
v -0.112287 -0.026713 0.674878
v -0.113395 0.045586 0.701253
v -0.107670 0.056771 0.699925
v -0.094192 -0.025626 0.679968
v -0.072815 -0.050520 0.675193
v -0.078039 -0.051877 0.678433
v -0.092228 -0.043404 0.669947
v -0.086938 -0.042066 0.665416
v -0.085034 -0.026637 0.676071
v -0.091259 -0.027500 0.679914
v -0.089078 -0.027621 0.679744
v -0.082826 -0.025526 0.678281
v -0.065243 0.001702 0.681139
v -0.069753 0.006970 0.682367
v -0.087227 -0.017776 0.655228
v -0.097476 -0.025033 0.651640
v -0.106980 -0.015994 0.652949
v -0.088097 0.008998 0.683359
v -0.080264 0.002299 0.681794
v -0.077974 0.005734 0.682501
v -0.091294 -0.017347 0.680122
v -0.088573 -0.023173 0.678647
v -0.086016 -0.018730 0.677950
v -0.088770 -0.012361 0.680087
v -0.085364 0.054300 0.676964
v -0.083951 0.054164 0.688522
v -0.079149 -0.051576 0.687073
v -0.079571 -0.051202 0.684753
v -0.096252 0.016817 0.685153
v -0.116808 -0.004667 0.656306
v -0.103748 0.024781 0.688472
v -0.063104 0.014970 0.665437
v -0.060239 0.015134 0.672662
v -0.057318 0.010045 0.674098
v -0.057283 0.008630 0.668319
v -0.072047 -0.031765 0.684144
v -0.076334 -0.033987 0.687686
v -0.075635 -0.035743 0.687753
v -0.070125 -0.033892 0.685736
v -0.096115 -0.030748 0.680225
v -0.100336 -0.034577 0.677996
v -0.095401 -0.036776 0.679755
v -0.092042 -0.031835 0.680714
v -0.100344 -0.038110 0.672859
v -0.095392 -0.041107 0.674994
v -0.067486 -0.033510 0.679481
v -0.065286 -0.039998 0.675508
v -0.077869 -0.030886 0.665873
v -0.077501 -0.027040 0.672820
v -0.106456 0.042249 0.658724
v -0.100922 0.050700 0.663457
v -0.089364 0.041024 0.663940
v -0.077484 0.032149 0.663361
v -0.067088 0.022842 0.663546
v -0.072230 0.014004 0.656643
v -0.086767 0.047674 0.667966
v -0.081805 -0.024574 0.667050
v -0.085440 -0.025780 0.659953
v -0.082481 -0.022769 0.660782
v -0.099274 0.029827 0.691654
v -0.081755 -0.049926 0.682423
v -0.150625 0.040743 0.658598
v -0.140991 0.049379 0.654916
v -0.136896 0.041645 0.655443
v -0.147643 0.031919 0.660466
v -0.080761 -0.039474 0.688879
v -0.083303 -0.045260 0.686689
v -0.064907 0.011400 0.683703
v -0.061599 0.006170 0.681812
v -0.058476 0.007795 0.680178
v -0.059519 0.013114 0.683777
v -0.099443 0.055514 0.666655
v -0.056086 0.033708 0.677919
v -0.059311 0.029740 0.668540
v -0.111221 0.058819 0.662855
v -0.116052 0.051734 0.658132
v -0.122572 0.059003 0.657854
v -0.074330 -0.001232 0.656065
v -0.109190 0.034419 0.656104
v -0.119215 0.044983 0.656312
v -0.127160 0.053361 0.655900
v -0.132287 0.059934 0.655128
v -0.126749 0.065432 0.657492
v -0.067828 -0.045990 0.674566
v -0.061499 -0.042246 0.680806
v -0.131076 0.073223 0.655551
v -0.137283 0.066592 0.653620
v -0.124003 0.037195 0.655152
v -0.130348 0.027869 0.655373
v -0.114097 0.027268 0.655205
v -0.119437 0.017148 0.655049
v -0.081059 -0.006900 0.649289
v -0.064205 -0.040384 0.698368
v -0.064123 -0.037749 0.688183
v -0.069451 -0.035285 0.688950
v -0.067316 -0.037409 0.698803
v -0.065049 -0.035888 0.683349
v -0.062235 -0.042954 0.686018
v -0.128195 0.006309 0.658854
v -0.082820 -0.023897 0.675943
v -0.141866 0.016421 0.662754
v -0.133468 -0.008536 0.664096
v -0.143428 -0.001549 0.669529
v -0.156277 0.024910 0.668651
v -0.154686 0.008947 0.674495
v -0.161427 0.042021 0.664873
v -0.157641 0.034111 0.665922
v -0.150558 -0.006384 0.680206
v -0.079944 -0.045618 0.696863
v -0.077790 -0.039991 0.697378
v -0.154899 0.047794 0.657396
v -0.120334 -0.004532 0.697975
v -0.108073 0.035311 0.695215
v -0.111046 0.031344 0.692528
v -0.099208 0.051753 0.699466
v -0.104590 0.041325 0.699170
v -0.078566 -0.050956 0.696126
v -0.068179 -0.009929 0.674899
v -0.067018 -0.009045 0.674778
v -0.132880 -0.016956 0.704877
v -0.130009 -0.022799 0.703239
v -0.136660 -0.028225 0.693009
v -0.134674 -0.026629 0.699825
v -0.139660 -0.020351 0.700604
v -0.142361 -0.021796 0.693506
v -0.119112 0.037768 0.697521
v -0.116358 0.040287 0.698776
v -0.095509 0.060759 0.678645
v -0.093797 0.059830 0.690035
v -0.098096 -0.038553 0.666735
v -0.100603 -0.032032 0.657857
v -0.093806 -0.036520 0.661569
v -0.083117 -0.036407 0.662794
v -0.080842 -0.025612 0.672696
v -0.082502 -0.025429 0.670058
v -0.134093 0.033093 0.702664
v -0.124562 0.027573 0.695823
v -0.118522 -0.013479 0.690504
v -0.117388 -0.017860 0.689104
v -0.086088 -0.004727 0.680612
v -0.069098 -0.009936 0.661314
v -0.074708 -0.014668 0.656002
v -0.080835 -0.011519 0.678163
v -0.070592 -0.053945 0.696275
v -0.075558 -0.053405 0.696207
v -0.090083 -0.031478 0.658026
v -0.074084 0.012682 0.685441
v -0.068557 -0.003730 0.662133
v -0.066392 -0.009117 0.668086
v -0.060000 0.035323 0.685291
v -0.146250 0.056568 0.654379
v -0.075055 -0.036130 0.690076
v -0.073902 -0.036408 0.697637
v -0.063170 -0.044406 0.696842
v -0.065434 -0.050281 0.695232
v -0.103948 0.063581 0.691642
v -0.112748 0.028419 0.690825
v -0.143984 -0.018170 0.683729
v -0.136243 -0.026699 0.685590
v -0.078580 -0.015598 0.676577
v -0.060899 0.021303 0.668287
v -0.065112 0.007687 0.659701
v -0.058160 0.001443 0.663209
v -0.060357 -0.005725 0.664721
v -0.062415 -0.010245 0.670215
v -0.063942 -0.044641 0.703002
v -0.065959 -0.050337 0.701439
v -0.071176 -0.053921 0.701625
v -0.075744 -0.053473 0.700716
v -0.078683 -0.050330 0.699491
v -0.065227 -0.040391 0.704395
v -0.068322 -0.037824 0.704285
v -0.073728 -0.036639 0.700985
v -0.067572 -0.039750 0.709004
v -0.067026 -0.044594 0.711549
v -0.078890 -0.052330 0.713744
v -0.074297 -0.053273 0.709854
v -0.073923 -0.052175 0.712525
v -0.077180 -0.051189 0.716369
v -0.079272 -0.049693 0.721023
v -0.081658 -0.050965 0.718692
v -0.069892 -0.049788 0.711466
v -0.073748 -0.048044 0.717034
v -0.072001 -0.044132 0.717317
v -0.074910 -0.043444 0.722174
v -0.076367 -0.046942 0.722188
v -0.069201 -0.045723 0.713733
v -0.068337 -0.050361 0.709330
v -0.082394 -0.048531 0.722711
v -0.080035 -0.048548 0.723699
v -0.078147 -0.045949 0.724679
v -0.080816 -0.044671 0.725715
v -0.077594 -0.052971 0.704915
v -0.081152 -0.051758 0.712378
v -0.083664 -0.048852 0.717268
v -0.084104 -0.046613 0.721399
v -0.083299 -0.048135 0.711974
v -0.084466 -0.046141 0.716252
v -0.084625 -0.043789 0.719626
v -0.083800 -0.043775 0.711907
v -0.084339 -0.042892 0.715909
v -0.079959 -0.045618 0.701679
v -0.079470 -0.049969 0.701602
v -0.084895 -0.042035 0.718337
v -0.082075 -0.042922 0.724971
v -0.070751 -0.041014 0.715589
v -0.075371 -0.040420 0.721163
v -0.071675 -0.038855 0.714704
v -0.075834 -0.038191 0.720439
v -0.077697 -0.040888 0.725114
v -0.076874 -0.043259 0.724456
v -0.079404 -0.045128 0.698817
v -0.077132 -0.039349 0.699464
v -0.077605 -0.039650 0.702003
v -0.081978 -0.039160 0.712018
v -0.074687 -0.036850 0.703947
v -0.070726 -0.037299 0.708360
v -0.074240 -0.037073 0.714422
v -0.077578 -0.036530 0.713283
v -0.077615 -0.037110 0.718825
v -0.079751 -0.037374 0.717402
v -0.083010 -0.039402 0.716348
v -0.080465 -0.038279 0.721656
v -0.078802 -0.039331 0.723912
v -0.083064 -0.041097 0.722195
v -0.081242 -0.037994 0.719865
v -0.083218 -0.040352 0.719604
v -0.062427 -0.027955 0.689687
v -0.059589 -0.022007 0.690770
v -0.058625 -0.024127 0.687771
v -0.060885 -0.029128 0.686695
v -0.051536 -0.037301 0.687705
v -0.057780 -0.035828 0.688931
v -0.055777 -0.037297 0.683332
v -0.049226 -0.036995 0.681303
v -0.045398 -0.033428 0.687015
v -0.044019 -0.032371 0.680264
v -0.052177 -0.035640 0.675883
v -0.058470 -0.036126 0.679589
v -0.074324 -0.027679 0.669220
v -0.069927 -0.026405 0.664231
v -0.070983 -0.013141 0.678508
v -0.067656 -0.011611 0.676632
v -0.061494 -0.032061 0.689386
v -0.059891 -0.033747 0.685423
v -0.054505 -0.017069 0.685731
v -0.058761 -0.019682 0.688022
v -0.056303 -0.019650 0.688197
v -0.050979 -0.018233 0.687474
v -0.077154 -0.023656 0.676126
v -0.074535 -0.018128 0.677309
v -0.076395 -0.026274 0.673263
v -0.048932 -0.017663 0.681715
v -0.045503 -0.021925 0.677359
v -0.060948 -0.014731 0.665131
v -0.061586 -0.011446 0.670519
v -0.061883 -0.033902 0.683121
v -0.061535 -0.024964 0.688555
v -0.063350 -0.029767 0.686752
v -0.048058 -0.029285 0.674354
v -0.042382 -0.024719 0.683573
v -0.049016 -0.021441 0.703143
v -0.046408 -0.020366 0.691851
v -0.050994 -0.017929 0.692110
v -0.052984 -0.018154 0.703353
v -0.045837 -0.020098 0.685899
v -0.044068 -0.025583 0.690028
v -0.065094 -0.025408 0.702306
v -0.062232 -0.019685 0.702914
v -0.064543 -0.029982 0.702375
v -0.065082 -0.021041 0.662167
v -0.055473 -0.035507 0.700877
v -0.061821 -0.033354 0.701713
v -0.056075 -0.017922 0.691158
v -0.057924 -0.017141 0.703525
v -0.047339 -0.025712 0.702432
v -0.049221 -0.032436 0.699976
v -0.049099 -0.026084 0.708126
v -0.051415 -0.032067 0.706956
v -0.057868 -0.035030 0.707060
v -0.063273 -0.032605 0.706273
v -0.065304 -0.029210 0.705562
v -0.050407 -0.021681 0.708527
v -0.053963 -0.018202 0.708092
v -0.058775 -0.017611 0.706006
v -0.053719 -0.019665 0.714261
v -0.052886 -0.023866 0.715858
v -0.068985 -0.027593 0.724498
v -0.065960 -0.029918 0.719787
v -0.063781 -0.029333 0.721193
v -0.066392 -0.027266 0.725638
v -0.061360 -0.032489 0.716103
v -0.060583 -0.030908 0.718079
v -0.056565 -0.028610 0.717514
v -0.060161 -0.026225 0.722014
v -0.057425 -0.022248 0.721222
v -0.059798 -0.020542 0.726229
v -0.062439 -0.024494 0.727336
v -0.055270 -0.025006 0.718382
v -0.067276 -0.025335 0.728606
v -0.069519 -0.024015 0.728868
v -0.054778 -0.030297 0.715236
v -0.064523 -0.032066 0.710759
v -0.068476 -0.028725 0.718395
v -0.071183 -0.025372 0.723481
v -0.070566 -0.021230 0.728091
v -0.070201 -0.025011 0.717283
v -0.071798 -0.022319 0.722543
v -0.070648 -0.019113 0.726323
v -0.070206 -0.020334 0.716281
v -0.071082 -0.018206 0.721715
v -0.066224 -0.023953 0.706829
v -0.066659 -0.028520 0.708196
v -0.070567 -0.017747 0.724313
v -0.066155 -0.021249 0.731126
v -0.067907 -0.018563 0.730009
v -0.064970 -0.022524 0.730354
v -0.056749 -0.020323 0.720634
v -0.060168 -0.018349 0.725833
v -0.057313 -0.017635 0.719871
v -0.061067 -0.016078 0.725650
v -0.062852 -0.018048 0.729756
v -0.062582 -0.019772 0.729866
v -0.065043 -0.024931 0.704798
v -0.062273 -0.019991 0.704903
v -0.063222 -0.019120 0.706480
v -0.066946 -0.016106 0.716174
v -0.059197 -0.016796 0.707881
v -0.055664 -0.017262 0.712186
v -0.058770 -0.015661 0.718400
v -0.062501 -0.014532 0.717249
v -0.061779 -0.014258 0.724608
v -0.063787 -0.013857 0.721996
v -0.068387 -0.015148 0.721211
v -0.064721 -0.014732 0.728191
v -0.063674 -0.016475 0.729471
v -0.068471 -0.017183 0.728289
v -0.065659 -0.014030 0.725412
v -0.068861 -0.015857 0.725337
v -0.051452 -0.011936 0.689075
v -0.048194 -0.007039 0.690359
v -0.048077 -0.007075 0.688082
v -0.050098 -0.012355 0.686694
v -0.043477 -0.021129 0.685715
v -0.047993 -0.019895 0.687095
v -0.047226 -0.019781 0.682257
v -0.043085 -0.020291 0.679248
v -0.038393 -0.018981 0.687133
v -0.038132 -0.017860 0.678061
v -0.045198 -0.018333 0.674745
v -0.048611 -0.018869 0.679361
v -0.058759 -0.012216 0.672181
v -0.054957 -0.010156 0.667309
v -0.050857 -0.016210 0.688131
v -0.049844 -0.016359 0.684936
v -0.043838 -0.001584 0.687360
v -0.047858 -0.004003 0.689051
v -0.043808 -0.003849 0.688519
v -0.039169 -0.003987 0.687792
v -0.063654 -0.006900 0.680283
v -0.061768 -0.001088 0.680868
v -0.061609 -0.010613 0.677299
v -0.039411 -0.002766 0.682608
v -0.037521 -0.007065 0.676687
v -0.049163 0.002444 0.670654
v -0.051323 0.004964 0.675643
v -0.051010 -0.016929 0.683361
v -0.051433 -0.007864 0.688960
v -0.052752 -0.013106 0.686960
v -0.041206 -0.013301 0.673684
v -0.034519 -0.012032 0.681390
v -0.037159 -0.010814 0.705051
v -0.035044 -0.008154 0.689309
v -0.039299 -0.004385 0.690658
v -0.039591 -0.007054 0.705338
v -0.035337 -0.007032 0.685392
v -0.034657 -0.013414 0.687763
v -0.053066 -0.011356 0.703568
v -0.049389 -0.007075 0.703835
v -0.052588 -0.015575 0.702216
v -0.051043 -0.004300 0.666027
v -0.056239 0.004498 0.680036
v -0.047099 -0.020820 0.702442
v -0.050882 -0.018572 0.702177
v -0.043548 -0.004129 0.690598
v -0.043995 -0.005193 0.704841
v -0.037265 -0.015466 0.703514
v -0.041110 -0.020030 0.701774
v -0.037887 -0.014789 0.709305
v -0.042012 -0.019236 0.708109
v -0.047745 -0.020121 0.708526
v -0.051362 -0.017601 0.707705
v -0.052934 -0.014560 0.707183
v -0.037781 -0.010058 0.710197
v -0.040000 -0.006855 0.709832
v -0.044192 -0.005643 0.706661
v -0.038742 -0.008678 0.714202
v -0.039423 -0.013685 0.716261
v -0.052942 -0.013299 0.726778
v -0.051833 -0.015230 0.721379
v -0.050646 -0.015221 0.721777
v -0.051358 -0.013721 0.727345
v -0.048661 -0.018321 0.715994
v -0.048270 -0.017519 0.717896
v -0.044263 -0.016960 0.717428
v -0.045622 -0.014522 0.723358
v -0.041783 -0.010089 0.721971
v -0.043403 -0.008920 0.726678
v -0.046730 -0.013043 0.728475
v -0.041066 -0.013788 0.717909
v -0.050939 -0.012391 0.730274
v -0.052745 -0.012511 0.730967
v -0.043174 -0.017936 0.715150
v -0.052564 -0.016791 0.713338
v -0.054292 -0.013927 0.720381
v -0.055674 -0.011891 0.725851
v -0.054583 -0.009644 0.729547
v -0.055185 -0.010408 0.719097
v -0.055817 -0.009050 0.724358
v -0.054876 -0.007163 0.727756
v -0.054423 -0.007302 0.718255
v -0.054710 -0.006251 0.723074
v -0.052740 -0.010167 0.708898
v -0.053600 -0.013653 0.710928
v -0.054168 -0.005651 0.726141
v -0.048797 -0.010169 0.732430
v -0.050362 -0.006373 0.731402
v -0.048195 -0.011039 0.731059
v -0.040763 -0.008825 0.721029
v -0.042679 -0.006685 0.726973
v -0.040992 -0.006235 0.719929
v -0.043025 -0.004206 0.725875
v -0.044814 -0.007295 0.730584
v -0.045011 -0.008418 0.730163
v -0.052282 -0.010861 0.706091
v -0.048914 -0.007034 0.705841
v -0.049426 -0.006559 0.708287
v -0.051346 -0.003720 0.718136
v -0.044815 -0.005073 0.708935
v -0.040999 -0.005751 0.713674
v -0.043285 -0.004040 0.719081
v -0.046825 -0.002770 0.718727
v -0.044886 -0.002575 0.724560
v -0.047234 -0.002421 0.722938
v -0.052108 -0.003048 0.722768
v -0.047287 -0.003311 0.727814
v -0.045565 -0.004783 0.729708
v -0.051514 -0.004504 0.729110
v -0.048809 -0.002572 0.725978
v -0.052019 -0.003568 0.726823
v -0.059294 0.002691 0.681134
v -0.049115 0.005365 0.695198
v -0.046814 0.008389 0.697200
v -0.045697 0.008279 0.696501
v -0.048605 0.005811 0.693651
v -0.042844 -0.000857 0.687569
v -0.046875 -0.000056 0.690412
v -0.046550 0.001051 0.686012
v -0.042747 0.001132 0.682867
v -0.037734 0.001391 0.686807
v -0.037203 0.003937 0.683113
v -0.043899 0.004009 0.680995
v -0.047451 0.002950 0.683993
v -0.056856 0.013080 0.675980
v -0.054646 0.016887 0.672493
v -0.055689 0.030324 0.686472
v -0.059700 0.027718 0.689193
v -0.052430 0.022289 0.691164
v -0.049384 0.025144 0.688745
v -0.048821 0.002364 0.692896
v -0.049023 0.003110 0.690035
v -0.037892 0.013510 0.694768
v -0.042161 0.011686 0.696652
v -0.042196 0.010613 0.697862
v -0.037297 0.011781 0.697975
v -0.061351 0.022508 0.688956
v -0.061750 0.018264 0.686610
v -0.058713 0.015672 0.687886
v -0.054866 0.018028 0.690579
v -0.058142 0.012281 0.683040
v -0.035362 0.013419 0.690785
v -0.034816 0.011266 0.685108
v -0.047231 0.027120 0.679149
v -0.048003 0.027363 0.684108
v -0.048256 0.003176 0.688330
v -0.046154 0.008969 0.695495
v -0.047459 0.005476 0.693174
v -0.039220 0.007897 0.680309
v -0.033623 0.007478 0.688837
v -0.034864 0.005667 0.702033
v -0.034418 0.008868 0.696507
v -0.037926 0.011179 0.698684
v -0.037030 0.008234 0.703009
v -0.034167 0.010461 0.694607
v -0.034363 0.005047 0.692541
v -0.049406 0.004768 0.700657
v -0.045473 0.008118 0.702227
v -0.049837 0.001755 0.699241
v -0.050911 0.022439 0.673122
v -0.044791 -0.003215 0.696688
v -0.048391 -0.001164 0.698409
v -0.042913 0.010237 0.698560
v -0.041045 0.009371 0.703209
v -0.035002 0.001447 0.699637
v -0.038927 -0.002216 0.696063
v -0.036163 -0.000189 0.703655
v -0.040370 -0.003572 0.700892
v -0.046953 -0.003103 0.701551
v -0.049459 -0.000078 0.701408
v -0.050206 0.003008 0.701690
v -0.035632 0.004692 0.704940
v -0.037253 0.007411 0.705037
v -0.040897 0.009033 0.704089
v -0.036538 0.003930 0.708538
v -0.038862 -0.000097 0.709618
v -0.049759 0.003310 0.716632
v -0.049637 0.001973 0.712632
v -0.048654 0.001404 0.713001
v -0.049291 0.002390 0.716956
v -0.048285 -0.000938 0.708023
v -0.047372 -0.000718 0.709631
v -0.043889 -0.001726 0.708748
v -0.044686 -0.000042 0.713854
v -0.039867 0.002252 0.714628
v -0.041057 0.003218 0.718470
v -0.045096 0.000841 0.717554
v -0.040274 -0.000318 0.710806
v -0.048748 0.002455 0.719705
v -0.049449 0.003287 0.720620
v -0.043204 -0.003062 0.706739
v -0.050552 0.001887 0.706098
v -0.051133 0.004113 0.712772
v -0.050907 0.005166 0.717825
v -0.049176 0.005532 0.721284
v -0.050982 0.006360 0.711667
v -0.050879 0.007450 0.717532
v -0.049062 0.007770 0.720742
v -0.049316 0.009182 0.710945
v -0.049356 0.009366 0.716610
v -0.048623 0.008049 0.704678
v -0.050517 0.005115 0.705285
v -0.048362 0.008827 0.719492
v -0.045859 0.002996 0.722200
v -0.046063 0.005956 0.722420
v -0.045362 0.001876 0.721109
v -0.038847 0.003098 0.714447
v -0.040252 0.004494 0.719093
v -0.038064 0.005334 0.714005
v -0.040258 0.006639 0.719016
v -0.042510 0.004345 0.721807
v -0.042786 0.002889 0.720626
v -0.048942 0.006648 0.702782
v -0.045554 0.008435 0.703150
v -0.044741 0.009613 0.704988
v -0.045516 0.010837 0.710966
v -0.040012 0.009287 0.705915
v -0.037140 0.006895 0.707392
v -0.038753 0.007884 0.713322
v -0.041036 0.010217 0.712354
v -0.041231 0.008548 0.718719
v -0.043139 0.010438 0.717337
v -0.046328 0.010883 0.716459
v -0.044024 0.008082 0.721230
v -0.043233 0.006565 0.722011
v -0.046275 0.007849 0.721613
v -0.044797 0.009402 0.720071
v -0.046452 0.009363 0.719872
v -0.053035 0.030201 0.683375
v -0.122395 -0.032036 0.684233
v -0.117919 -0.029175 0.684454
v -0.114993 -0.026488 0.700747
v -0.112171 -0.026337 0.694203
v -0.120327 -0.029399 0.704210
v -0.129510 -0.034884 0.699902
v -0.125909 -0.031723 0.703397
v -0.113565 -0.027579 0.688249
v -0.127433 -0.034627 0.686537
v -0.131084 -0.035921 0.692987
v -0.122241 -0.041104 0.688084
v -0.126676 -0.042477 0.694628
v -0.126799 -0.041325 0.701745
v -0.123695 -0.035516 0.705916
v -0.119817 -0.032121 0.706734
v -0.117516 -0.035862 0.686830
v -0.113642 -0.032491 0.687738
v -0.110688 -0.028972 0.692132
v -0.110520 -0.040727 0.689691
v -0.108916 -0.049894 0.695079
v -0.106823 -0.056281 0.714026
v -0.111425 -0.051656 0.711573
v -0.110734 -0.053430 0.709307
v -0.107001 -0.057905 0.711832
v -0.115135 -0.050031 0.707620
v -0.113396 -0.051249 0.706338
v -0.112472 -0.051328 0.701131
v -0.108527 -0.055204 0.703624
v -0.108412 -0.051094 0.697777
v -0.104559 -0.053209 0.699161
v -0.104757 -0.059318 0.705798
v -0.104440 -0.061294 0.711637
v -0.101363 -0.062524 0.707999
v -0.102604 -0.059982 0.714182
v -0.114660 -0.052237 0.699799
v -0.118098 -0.043679 0.709673
v -0.111573 -0.048173 0.713439
v -0.105527 -0.052888 0.715681
v -0.100786 -0.057214 0.715064
v -0.109114 -0.044003 0.713987
v -0.103473 -0.048799 0.714788
v -0.099056 -0.052435 0.713429
v -0.105614 -0.040776 0.711674
v -0.101125 -0.046292 0.712206
v -0.113223 -0.031745 0.705883
v -0.116985 -0.036589 0.709853
v -0.098878 -0.049932 0.711772
v -0.098561 -0.062409 0.709685
v -0.096619 -0.059112 0.710554
v -0.103073 -0.051010 0.696641
v -0.100918 -0.057316 0.701007
v -0.098765 -0.055073 0.699957
v -0.101849 -0.047188 0.695359
v -0.097108 -0.052625 0.699959
v -0.096863 -0.059537 0.703956
v -0.099741 -0.060594 0.703795
v -0.115028 -0.028581 0.703901
v -0.111831 -0.027414 0.697951
v -0.110277 -0.029888 0.699993
v -0.102292 -0.038922 0.705664
v -0.107822 -0.031861 0.694861
v -0.108249 -0.036419 0.691047
v -0.100577 -0.043701 0.696500
v -0.100512 -0.040364 0.700038
v -0.096501 -0.049304 0.701703
v -0.097139 -0.047084 0.703839
v -0.098607 -0.045878 0.708426
v -0.095308 -0.053003 0.705752
v -0.095219 -0.056586 0.704459
v -0.096183 -0.054187 0.710114
v -0.096230 -0.050376 0.706215
v -0.097038 -0.050539 0.709343
v -0.064324 0.031232 0.689363
v -0.066925 0.025174 0.689592
v -0.071081 0.029933 0.690999
v -0.078218 0.035404 0.693851
v -0.082089 0.045328 0.694099
v -0.082229 0.029889 0.692486
v -0.074569 0.024492 0.689727
v -0.068586 0.017862 0.687106
v -0.092557 0.029718 0.691902
f 780 781 779
f 779 781 782
f 783 784 786
f 786 784 785
f 787 782 788
f 788 782 781
f 790 791 789
f 789 791 787
f 792 790 794
f 794 790 793
f 796 797 795
f 795 797 798
f 800 801 799
f 799 801 802
f 804 805 803
f 803 805 806
f 808 809 807
f 807 809 810
f 811 812 814
f 814 812 813
f 815 816 818
f 818 816 817
f 819 820 784
f 784 820 821
f 784 821 785
f 785 821 822
f 823 812 824
f 824 812 811
f 826 827 825
f 825 827 828
f 830 831 829
f 829 831 832
f 834 830 833
f 833 830 829
f 836 837 835
f 835 837 838
f 839 840 782
f 782 840 779
f 842 843 841
f 841 843 844
f 846 847 845
f 845 847 848
f 850 851 849
f 849 851 852
f 854 855 853
f 853 855 856
f 831 857 832
f 832 857 858
f 860 861 859
f 859 861 862
f 863 864 830
f 830 864 831
f 835 838 865
f 865 838 866
f 867 868 821
f 821 868 822
f 821 820 867
f 867 820 869
f 818 817 870
f 870 817 871
f 872 848 842
f 842 848 847
f 791 839 787
f 787 839 782
f 803 806 847
f 847 806 873
f 874 803 846
f 846 803 847
f 876 877 875
f 875 877 878
f 879 880 882
f 882 880 881
f 884 808 883
f 883 808 807
f 829 832 885
f 885 832 886
f 832 858 886
f 886 858 887
f 889 890 888
f 888 890 891
f 893 783 892
f 892 783 894
f 893 819 783
f 783 819 784
f 814 813 889
f 889 813 895
f 813 896 895
f 895 896 897
f 812 898 813
f 813 898 896
f 812 823 898
f 898 823 899
f 903 904 902
f 902 904 905
f 906 907 792
f 792 907 908
f 811 909 824
f 824 909 910
f 911 872 841
f 841 872 842
f 912 913 915
f 915 913 914
f 917 918 916
f 916 918 919
f 855 920 856
f 856 920 921
f 922 923 798
f 798 923 924
f 926 927 925
f 925 927 850
f 929 930 928
f 928 930 931
f 860 879 861
f 861 879 882
f 879 860 933
f 933 860 932
f 934 935 836
f 836 935 837
f 936 846 925
f 925 846 845
f 937 924 793
f 793 924 794
f 846 936 874
f 874 936 938
f 907 844 908
f 908 844 843
f 940 941 939
f 939 941 942
f 944 945 943
f 943 945 946
f 948 949 947
f 947 949 950
f 952 949 951
f 951 949 948
f 954 955 953
f 953 955 956
f 958 959 957
f 957 959 802
f 960 961 799
f 799 961 962
f 859 963 860
f 860 963 932
f 964 965 966
f 966 965 922
f 936 849 938
f 938 849 967
f 968 913 935
f 935 913 837
f 947 950 917
f 917 950 918
f 925 850 936
f 936 850 849
f 970 971 969
f 969 971 972
f 945 944 827
f 827 944 973
f 974 968 828
f 828 968 935
f 975 976 978
f 978 976 977
f 799 802 960
f 960 802 959
f 924 937 798
f 798 937 795
f 960 959 859
f 859 959 963
f 979 963 958
f 958 963 959
f 980 981 861
f 861 981 862
f 983 984 982
f 982 984 863
f 985 800 962
f 962 800 799
f 957 802 986
f 986 802 801
f 986 987 957
f 957 987 983
f 987 988 983
f 983 988 984
f 990 984 989
f 989 984 988
f 957 983 958
f 958 983 982
f 991 954 866
f 866 954 992
f 864 863 990
f 990 863 984
f 971 995 996
f 995 997 996
f 996 997 998
f 997 796 998
f 998 796 795
f 797 999 798
f 798 999 922
f 1000 1001 1003
f 1003 1001 1002
f 953 1004 954
f 954 1004 992
f 1005 865 992
f 992 865 866
f 998 795 1006
f 1006 795 937
f 912 991 838
f 838 991 866
f 916 1007 929
f 929 1007 930
f 971 970 988
f 988 970 989
f 1008 972 996
f 996 972 971
f 1009 1010 1006
f 1006 1010 1008
f 1011 1012 869
f 869 1012 867
f 1013 1014 871
f 871 1014 870
f 1008 1010 1012
f 1012 1010 1015
f 825 1016 826
f 826 1016 1017
f 1018 969 1013
f 1013 969 1014
f 783 786 894
f 894 786 1019
f 1020 1021 967
f 967 1021 938
f 1022 1023 876
f 876 1023 877
f 934 1024 825
f 825 1024 1016
f 854 1025 855
f 855 1025 1026
f 1028 903 1027
f 1027 903 902
f 1030 1031 1029
f 1029 1031 1032
f 889 888 814
f 814 888 1033
f 1034 811 1033
f 1033 811 814
f 1035 1036 932
f 932 1036 933
f 841 947 911
f 911 947 917
f 844 948 841
f 841 948 947
f 951 948 907
f 907 948 844
f 907 906 951
f 951 906 1037
f 906 1038 1037
f 1037 1038 1039
f 991 912 1040
f 1040 912 915
f 1041 1042 964
f 964 1042 965
f 890 1043 891
f 891 1043 1044
f 789 1045 1046
f 1012 1011 1008
f 1008 1011 972
f 931 1047 848
f 848 1047 845
f 953 956 943
f 943 956 919
f 928 931 872
f 872 931 848
f 1049 999 1048
f 1048 999 985
f 1047 931 1050
f 1050 931 930
f 899 823 887
f 887 823 886
f 825 828 934
f 934 828 935
f 835 1051 836
f 836 1051 1052
f 923 1053 1038
f 1038 1053 1039
f 1054 927 921
f 921 927 856
f 926 1047 853
f 853 1047 1050
f 985 1055 1048
f 1048 1055 1056
f 973 974 827
f 827 974 828
f 837 913 838
f 838 913 912
f 861 882 980
f 980 882 1057
f 927 926 856
f 856 926 853
f 1025 1056 1026
f 1026 1056 1055
f 961 960 862
f 862 960 859
f 826 1017 1059
f 1059 1017 1060
f 1005 1001 1061
f 1061 1001 1000
f 1001 1004 1002
f 1002 1004 946
f 1059 1060 1002
f 1002 1060 1003
f 943 946 953
f 953 946 1004
f 1042 1041 916
f 916 1041 1007
f 792 794 906
f 906 794 1038
f 998 1006 996
f 996 1006 1008
f 865 1005 1062
f 1062 1005 1061
f 1038 794 923
f 923 794 924
f 1022 876 1036
f 1036 876 933
f 836 1052 934
f 934 1052 1024
f 885 1063 829
f 829 1063 833
f 1021 1064 938
f 938 1064 874
f 1012 1015 867
f 867 1015 868
f 824 910 885
f 885 910 1063
f 1031 1030 1027
f 1027 1030 1028
f 1064 804 874
f 874 804 803
f 884 883 1065
f 1065 883 1066
f 1050 930 1067
f 1067 930 1007
f 916 929 917
f 917 929 911
f 961 1068 939
f 939 1068 940
f 1069 1070 1055
f 1055 1070 1071
f 929 928 911
f 911 928 872
f 1040 1053 955
f 955 1053 965
f 922 965 923
f 923 965 1053
f 1051 835 1062
f 1062 835 865
f 952 914 968
f 968 914 913
f 889 895 890
f 890 895 816
f 895 897 816
f 816 897 901
f 890 816 1043
f 1043 816 815
f 1065 1066 1032
f 1032 1066 1029
f 1006 937 1009
f 1009 937 793
f 1001 1005 1004
f 1004 1005 992
f 925 845 926
f 926 845 1047
f 1002 946 1059
f 1059 946 945
f 977 941 978
f 978 941 940
f 823 824 886
f 886 824 885
f 1059 945 826
f 826 945 827
f 939 942 1069
f 1069 942 1070
f 816 901 817
f 1071 1072 1055
f 1055 1072 1026
f 1062 1061 1074
f 1074 1061 1073
f 1062 1074 1051
f 1051 1074 1075
f 1052 1051 1076
f 1076 1051 1075
f 1024 1052 1077
f 1077 1052 1076
f 1061 1000 1073
f 1073 1000 1078
f 1000 1003 1078
f 1078 1003 1079
f 1079 1003 1080
f 1080 1003 1060
f 1081 1082 1078
f 1078 1082 1073
f 1084 1085 1083
f 1083 1085 1086
f 1087 1088 1086
f 1086 1088 1083
f 1086 1085 1090
f 1090 1085 1089
f 1091 1092 1090
f 1090 1092 1093
f 1089 1094 1090
f 1090 1094 1091
f 1095 1082 1089
f 1089 1082 1094
f 1093 1087 1090
f 1090 1087 1086
f 1096 1097 1099
f 1099 1097 1098
f 1097 1096 1087
f 1087 1096 1088
f 1089 1085 1095
f 1095 1085 1084
f 1084 1075 1095
f 1095 1075 1074
f 1084 1100 1075
f 1075 1100 1076
f 1083 1101 1084
f 1084 1101 1100
f 1101 1083 1102
f 1102 1083 1088
f 1082 1095 1073
f 1073 1095 1074
f 1096 1103 1088
f 1088 1103 1102
f 1101 1102 1104
f 1104 1102 1105
f 1102 1103 1105
f 1105 1103 1106
f 1104 1105 1107
f 1107 1105 1108
f 1107 1109 1104
f 1104 1109 1110
f 1111 1108 1106
f 1106 1108 1105
f 1101 1104 1100
f 1100 1104 1110
f 1100 1110 1076
f 1076 1110 1077
f 1103 1096 1112
f 1112 1096 1099
f 1091 1094 1113
f 1113 1094 1082
f 1113 1114 1091
f 1091 1114 1092
f 1082 1081 1113
f 1113 1081 1115
f 1114 1113 1116
f 1116 1113 1115
f 1114 1117 1092
f 1092 1117 1118
f 1024 1077 1016
f 1016 1077 1119
f 1017 1120 1060
f 1060 1120 1080
f 1120 1017 1119
f 1119 1017 1016
f 1119 1109 1120
f 1120 1109 1121
f 1109 1107 1121
f 1121 1107 1122
f 1120 1121 1080
f 1080 1121 1123
f 1119 1077 1109
f 1109 1077 1110
f 1124 1079 1123
f 1123 1079 1080
f 1124 1081 1079
f 1079 1081 1078
f 1125 1115 1124
f 1124 1115 1081
f 1125 1124 1126
f 1126 1124 1123
f 1127 1125 1128
f 1128 1125 1126
f 1121 1122 1123
f 1123 1122 1126
f 1122 1129 1126
f 1126 1129 1128
f 1115 1125 1116
f 1116 1125 1127
f 1131 1116 1130
f 1130 1116 1127
f 1130 1133 1132
f 1132 1133 1134
f 1130 1127 1133
f 1133 1127 1128
f 1130 1132 1131
f 1131 1132 1112
f 1131 1112 1117
f 1117 1112 1099
f 1117 1114 1131
f 1131 1114 1116
f 1107 1108 1122
f 1122 1108 1129
f 1134 1129 1111
f 1111 1129 1108
f 1134 1133 1129
f 1129 1133 1128
f 1132 1134 1106
f 1106 1134 1111
f 1106 1103 1132
f 1132 1103 1112
f 1087 1093 1097
f 1097 1093 1098
f 1098 1118 1099
f 1099 1118 1117
f 1098 1093 1118
f 1118 1093 1092
f 915 914 1039
f 1039 914 1037
f 918 944 919
f 919 944 943
f 950 949 973
f 973 949 974
f 949 952 974
f 974 952 968
f 956 955 1042
f 1042 955 965
f 950 973 918
f 918 973 944
f 915 1039 1040
f 1040 1039 1053
f 956 1042 919
f 919 1042 916
f 1040 955 991
f 991 955 954
f 914 952 1037
f 1037 952 951
f 1136 1137 1135
f 1135 1137 1138
f 1140 1141 1139
f 1139 1141 1142
f 1139 1142 1143
f 1143 1142 1144
f 1145 1146 1148
f 1148 1146 1147
f 854 1149 1025
f 1025 1149 1150
f 1151 1152 1140
f 1140 1152 1141
f 1154 1155 1153
f 1153 1155 1156
f 1067 1007 1158
f 1158 1007 1157
f 1159 1157 1041
f 1041 1157 1007
f 1161 1162 1160
f 1160 1162 1163
f 1164 1146 1152
f 1152 1146 1141
f 854 1067 1149
f 1149 1067 1158
f 1155 1154 1137
f 1137 1154 1165
f 1166 1164 1138
f 1138 1164 1152
f 1167 1161 1144
f 1144 1161 1168
f 1170 1171 1169
f 1169 1171 1172
f 1161 1160 1168
f 1168 1160 1173
f 1174 1143 1168
f 1168 1143 1144
f 1167 1144 1145
f 1145 1144 1142
f 1135 1175 1136
f 1136 1175 1176
f 1151 1177 1135
f 1135 1177 1175
f 1167 1145 1178
f 1178 1145 1148
f 1160 1163 1153
f 1153 1163 1150
f 1135 1138 1151
f 1151 1138 1152
f 1139 1179 1140
f 1140 1179 1180
f 1165 1166 1137
f 1137 1166 1138
f 1141 1146 1142
f 1142 1146 1145
f 1136 1176 1181
f 1181 1176 1182
f 1174 1170 1183
f 1183 1170 1169
f 1170 1173 1171
f 1171 1173 1156
f 1171 1181 1172
f 1172 1181 1182
f 1153 1156 1160
f 1160 1156 1173
f 1143 1174 1184
f 1184 1174 1183
f 1140 1180 1151
f 1151 1180 1177
f 1049 1048 1178
f 1178 1048 1162
f 1179 1139 1184
f 1184 1139 1143
f 1159 1147 1164
f 1164 1147 1146
f 1170 1174 1173
f 1173 1174 1168
f 1171 1156 1181
f 1181 1156 1155
f 1181 1155 1136
f 1136 1155 1137
f 1184 1183 1186
f 1186 1183 1185
f 1184 1186 1179
f 1179 1186 1187
f 1179 1187 1180
f 1180 1187 1188
f 1180 1188 1177
f 1177 1188 1189
f 1183 1169 1185
f 1185 1169 1190
f 1169 1172 1190
f 1190 1172 1191
f 1172 1182 1191
f 1191 1182 1192
f 1193 1194 1190
f 1190 1194 1185
f 1196 1197 1195
f 1195 1197 1198
f 1199 1200 1196
f 1196 1200 1197
f 1197 1200 1202
f 1202 1200 1201
f 1203 1204 1202
f 1202 1204 1205
f 1201 1206 1202
f 1202 1206 1203
f 1205 1198 1202
f 1202 1198 1197
f 1198 1207 1195
f 1195 1207 1208
f 1201 1200 1209
f 1209 1200 1199
f 1199 1187 1209
f 1209 1187 1186
f 1199 1210 1187
f 1187 1210 1188
f 1196 1211 1199
f 1199 1211 1210
f 1212 1211 1195
f 1195 1211 1196
f 1209 1194 1201
f 1201 1194 1206
f 1194 1209 1185
f 1185 1209 1186
f 1213 1212 1208
f 1208 1212 1195
f 1211 1212 1214
f 1214 1212 1215
f 1212 1213 1215
f 1215 1213 1216
f 1214 1215 1217
f 1217 1215 1218
f 1217 1219 1214
f 1214 1219 1220
f 1216 1221 1215
f 1215 1221 1218
f 1214 1220 1211
f 1211 1220 1210
f 1210 1220 1188
f 1188 1220 1189
f 1213 1208 1223
f 1223 1208 1222
f 1208 1207 1222
f 1222 1207 1224
f 1203 1206 1225
f 1225 1206 1194
f 1204 1203 1226
f 1226 1203 1225
f 1194 1193 1225
f 1225 1193 1227
f 1225 1227 1226
f 1226 1227 1228
f 1229 1230 1226
f 1226 1230 1204
f 1224 1230 1222
f 1222 1230 1229
f 1177 1189 1175
f 1175 1189 1231
f 1176 1232 1182
f 1182 1232 1192
f 1232 1176 1231
f 1231 1176 1175
f 1231 1219 1232
f 1232 1219 1233
f 1219 1217 1233
f 1233 1217 1234
f 1232 1233 1192
f 1192 1233 1235
f 1219 1231 1220
f 1220 1231 1189
f 1236 1191 1235
f 1235 1191 1192
f 1236 1193 1191
f 1191 1193 1190
f 1236 1237 1193
f 1193 1237 1227
f 1237 1236 1238
f 1238 1236 1235
f 1239 1237 1240
f 1240 1237 1238
f 1233 1234 1235
f 1235 1234 1238
f 1234 1241 1238
f 1238 1241 1240
f 1237 1239 1227
f 1227 1239 1228
f 1243 1228 1242
f 1242 1228 1239
f 1242 1245 1244
f 1244 1245 1246
f 1242 1239 1245
f 1245 1239 1240
f 1242 1244 1243
f 1243 1244 1223
f 1243 1223 1229
f 1229 1223 1222
f 1229 1226 1243
f 1243 1226 1228
f 1217 1218 1234
f 1234 1218 1241
f 1246 1241 1221
f 1221 1241 1218
f 1246 1245 1241
f 1241 1245 1240
f 1244 1246 1216
f 1216 1246 1221
f 1216 1213 1244
f 1244 1213 1223
f 1198 1205 1207
f 1207 1205 1224
f 1224 1205 1230
f 1230 1205 1204
f 1148 1147 966
f 966 1147 964
f 1149 1154 1150
f 1150 1154 1153
f 1158 1157 1165
f 1165 1157 1166
f 1157 1159 1166
f 1166 1159 1164
f 1163 1162 1056
f 1056 1162 1048
f 1158 1165 1149
f 1149 1165 1154
f 1178 1148 1049
f 1049 1148 966
f 1163 1056 1150
f 1150 1056 1025
f 1178 1162 1167
f 1167 1162 1161
f 1147 1159 964
f 964 1159 1041
f 999 1049 922
f 922 1049 966
f 999 797 985
f 985 797 800
f 797 796 800
f 800 796 801
f 796 997 801
f 801 997 986
f 1247 1248 1250
f 1250 1248 1249
f 1252 1253 1251
f 1251 1253 1254
f 1251 1254 1255
f 1255 1254 1256
f 1258 1259 1257
f 1257 1259 1260
f 1261 1262 1252
f 1252 1262 1253
f 1264 1265 1263
f 1263 1265 1266
f 1267 1268 855
f 855 1268 920
f 1269 1267 1026
f 1026 1267 855
f 1271 1272 1270
f 1270 1272 1273
f 1274 1258 1262
f 1262 1258 1253
f 1264 1275 1265
f 1265 1275 1249
f 1276 1274 1250
f 1250 1274 1262
f 1277 1271 1256
f 1256 1271 1278
f 1279 1280 1282
f 1282 1280 1281
f 1271 1270 1278
f 1278 1270 1283
f 1284 1255 1278
f 1278 1255 1256
f 1277 1256 1257
f 1257 1256 1254
f 1247 1285 1248
f 1248 1285 1286
f 1261 1287 1247
f 1247 1287 1285
f 1257 1260 1277
f 1277 1260 1288
f 1270 1273 1263
f 1263 1273 1289
f 1261 1247 1262
f 1262 1247 1250
f 1251 1290 1252
f 1252 1290 1291
f 1275 1276 1249
f 1249 1276 1250
f 1253 1258 1254
f 1254 1258 1257
f 1248 1286 1292
f 1292 1286 1293
f 1284 1280 1294
f 1294 1280 1279
f 1281 1280 1266
f 1266 1280 1283
f 1292 1293 1281
f 1281 1293 1282
f 1263 1266 1270
f 1270 1266 1283
f 1255 1284 1295
f 1295 1284 1294
f 1252 1291 1261
f 1261 1291 1287
f 1288 1070 1272
f 1272 1070 942
f 1290 1251 1295
f 1295 1251 1255
f 1269 1259 1274
f 1274 1259 1258
f 1280 1284 1283
f 1283 1284 1278
f 1281 1266 1292
f 1292 1266 1265
f 1292 1265 1248
f 1248 1265 1249
f 1295 1294 1297
f 1297 1294 1296
f 1295 1297 1290
f 1290 1297 1298
f 1290 1298 1291
f 1291 1298 1299
f 1291 1299 1287
f 1287 1299 1300
f 1294 1279 1296
f 1296 1279 1301
f 1279 1282 1301
f 1301 1282 1302
f 1302 1282 1303
f 1303 1282 1293
f 1304 1305 1301
f 1301 1305 1296
f 1307 1308 1306
f 1306 1308 1309
f 1310 1311 1307
f 1307 1311 1308
f 1308 1311 1313
f 1313 1311 1312
f 1314 1315 1313
f 1313 1315 1316
f 1312 1317 1313
f 1313 1317 1314
f 1316 1309 1313
f 1313 1309 1308
f 1318 1319 1309
f 1309 1319 1306
f 1311 1310 1312
f 1312 1310 1320
f 1310 1298 1320
f 1320 1298 1297
f 1310 1321 1298
f 1298 1321 1299
f 1307 1322 1310
f 1310 1322 1321
f 1322 1307 1323
f 1323 1307 1306
f 1312 1320 1317
f 1317 1320 1305
f 1305 1320 1296
f 1296 1320 1297
f 1319 1324 1306
f 1306 1324 1323
f 1325 1322 1326
f 1326 1322 1323
f 1324 1327 1323
f 1323 1327 1326
f 1328 1325 1329
f 1329 1325 1326
f 1325 1328 1331
f 1331 1328 1330
f 1327 1332 1326
f 1326 1332 1329
f 1322 1325 1321
f 1321 1325 1331
f 1321 1331 1299
f 1299 1331 1300
f 1324 1319 1334
f 1334 1319 1333
f 1319 1318 1333
f 1333 1318 1335
f 1314 1317 1336
f 1336 1317 1305
f 1315 1314 1337
f 1337 1314 1336
f 1305 1304 1336
f 1336 1304 1338
f 1337 1336 1339
f 1339 1336 1338
f 1337 1340 1315
f 1315 1340 1341
f 1335 1341 1333
f 1333 1341 1340
f 1287 1300 1285
f 1285 1300 1342
f 1286 1343 1293
f 1293 1343 1303
f 1343 1286 1342
f 1342 1286 1285
f 1342 1330 1343
f 1343 1330 1344
f 1330 1328 1344
f 1344 1328 1345
f 1343 1344 1303
f 1303 1344 1346
f 1342 1300 1330
f 1330 1300 1331
f 1347 1302 1346
f 1346 1302 1303
f 1347 1304 1302
f 1302 1304 1301
f 1348 1338 1347
f 1347 1338 1304
f 1348 1347 1349
f 1349 1347 1346
f 1350 1348 1351
f 1351 1348 1349
f 1344 1345 1346
f 1346 1345 1349
f 1345 1352 1349
f 1349 1352 1351
f 1348 1350 1338
f 1338 1350 1339
f 1354 1339 1353
f 1353 1339 1350
f 1353 1356 1355
f 1355 1356 1357
f 1353 1350 1356
f 1356 1350 1351
f 1353 1355 1354
f 1354 1355 1334
f 1354 1334 1340
f 1340 1334 1333
f 1340 1337 1354
f 1354 1337 1339
f 1328 1329 1345
f 1345 1329 1352
f 1357 1352 1332
f 1332 1352 1329
f 1357 1356 1352
f 1352 1356 1351
f 1357 1332 1355
f 1355 1332 1327
f 1327 1324 1355
f 1355 1324 1334
f 1309 1316 1318
f 1318 1316 1335
f 1335 1316 1341
f 1341 1316 1315
f 1259 1072 1260
f 1260 1072 1071
f 1358 1264 1289
f 1289 1264 1263
f 1268 1267 1275
f 1275 1267 1276
f 1267 1269 1276
f 1276 1269 1274
f 941 1273 942
f 942 1273 1272
f 1358 1268 1264
f 1264 1268 1275
f 1260 1071 1288
f 1288 1071 1070
f 1273 941 1289
f 1289 941 977
f 1272 1271 1288
f 1288 1271 1277
f 1259 1269 1072
f 1072 1269 1026
f 1360 1361 1359
f 1359 1361 1362
f 1364 1365 1363
f 1363 1365 1366
f 1363 1366 1367
f 1367 1366 1368
f 1370 1371 1369
f 1369 1371 1372
f 1373 1374 1376
f 1376 1374 1375
f 1377 1378 1364
f 1364 1378 1365
f 1379 1380 1382
f 1382 1380 1381
f 1383 1384 1386
f 1386 1384 1385
f 1387 1385 978
f 978 1385 1384
f 1388 1389 1391
f 1391 1389 1390
f 1378 1392 1365
f 1365 1392 1370
f 1374 1383 1375
f 1375 1383 1386
f 1380 1393 1381
f 1381 1393 1361
f 1394 1392 1362
f 1362 1392 1378
f 1389 1396 1395
f 1395 1396 1368
f 1398 1399 1397
f 1397 1399 1400
f 1388 1401 1389
f 1389 1401 1396
f 1402 1367 1396
f 1396 1367 1368
f 1395 1368 1369
f 1369 1368 1366
f 1359 1403 1360
f 1360 1403 1404
f 1377 1405 1359
f 1359 1405 1403
f 1369 1372 1395
f 1395 1372 1406
f 1379 1388 1376
f 1376 1388 1391
f 1359 1362 1377
f 1377 1362 1378
f 1363 1407 1364
f 1364 1407 1408
f 1393 1394 1361
f 1361 1394 1362
f 1365 1370 1366
f 1366 1370 1369
f 1360 1404 1409
f 1409 1404 1410
f 1402 1398 1411
f 1411 1398 1397
f 1399 1398 1382
f 1382 1398 1401
f 1409 1410 1399
f 1399 1410 1400
f 1388 1379 1401
f 1401 1379 1382
f 1367 1402 1412
f 1412 1402 1411
f 1364 1408 1377
f 1377 1408 1405
f 981 980 1406
f 1406 980 1390
f 1407 1363 1412
f 1412 1363 1367
f 1387 1371 1392
f 1392 1371 1370
f 1398 1402 1401
f 1401 1402 1396
f 1409 1399 1381
f 1381 1399 1382
f 1360 1409 1361
f 1361 1409 1381
f 1412 1411 1414
f 1414 1411 1413
f 1412 1414 1407
f 1407 1414 1415
f 1407 1415 1408
f 1408 1415 1416
f 1408 1416 1405
f 1405 1416 1417
f 1411 1397 1413
f 1413 1397 1418
f 1397 1400 1418
f 1418 1400 1419
f 1419 1400 1420
f 1420 1400 1410
f 1422 1413 1421
f 1421 1413 1418
f 1423 1424 1426
f 1426 1424 1425
f 1427 1428 1424
f 1424 1428 1425
f 1425 1428 1430
f 1430 1428 1429
f 1430 1431 1433
f 1433 1431 1432
f 1429 1434 1430
f 1430 1434 1431
f 1433 1426 1430
f 1430 1426 1425
f 1426 1435 1423
f 1423 1435 1436
f 1428 1427 1429
f 1429 1427 1437
f 1427 1415 1437
f 1437 1415 1414
f 1427 1438 1415
f 1415 1438 1416
f 1439 1438 1424
f 1424 1438 1427
f 1440 1439 1423
f 1423 1439 1424
f 1429 1437 1434
f 1434 1437 1422
f 1422 1437 1413
f 1413 1437 1414
f 1441 1440 1436
f 1436 1440 1423
f 1442 1439 1443
f 1443 1439 1440
f 1441 1444 1440
f 1440 1444 1443
f 1445 1442 1446
f 1446 1442 1443
f 1442 1445 1448
f 1448 1445 1447
f 1444 1449 1443
f 1443 1449 1446
f 1439 1442 1438
f 1438 1442 1448
f 1438 1448 1416
f 1416 1448 1417
f 1436 1450 1441
f 1441 1450 1451
f 1436 1435 1450
f 1450 1435 1452
f 1431 1434 1453
f 1453 1434 1422
f 1431 1453 1432
f 1432 1453 1454
f 1453 1422 1455
f 1455 1422 1421
f 1454 1453 1456
f 1456 1453 1455
f 1457 1458 1454
f 1454 1458 1432
f 1452 1458 1450
f 1450 1458 1457
f 1405 1417 1403
f 1403 1417 1459
f 1404 1460 1410
f 1410 1460 1420
f 1459 1460 1403
f 1403 1460 1404
f 1447 1461 1459
f 1459 1461 1460
f 1445 1462 1447
f 1447 1462 1461
f 1460 1461 1420
f 1420 1461 1463
f 1459 1417 1447
f 1447 1417 1448
f 1464 1419 1463
f 1463 1419 1420
f 1419 1464 1418
f 1418 1464 1421
f 1464 1465 1421
f 1421 1465 1455
f 1465 1464 1466
f 1466 1464 1463
f 1467 1465 1468
f 1468 1465 1466
f 1461 1462 1463
f 1463 1462 1466
f 1462 1469 1466
f 1466 1469 1468
f 1465 1467 1455
f 1455 1467 1456
f 1471 1456 1470
f 1470 1456 1467
f 1470 1473 1472
f 1472 1473 1474
f 1470 1467 1473
f 1473 1467 1468
f 1470 1472 1471
f 1471 1472 1451
f 1471 1451 1457
f 1457 1451 1450
f 1457 1454 1471
f 1471 1454 1456
f 1462 1445 1469
f 1469 1445 1446
f 1474 1469 1449
f 1449 1469 1446
f 1474 1473 1469
f 1469 1473 1468
f 1472 1474 1444
f 1444 1474 1449
f 1444 1441 1472
f 1472 1441 1451
f 1426 1433 1435
f 1435 1433 1452
f 1452 1433 1458
f 1458 1433 1432
f 1371 940 1372
f 1372 940 1068
f 1376 1375 1379
f 1379 1375 1380
f 1393 1386 1394
f 1394 1386 1385
f 1385 1387 1394
f 1394 1387 1392
f 1475 1373 1391
f 1391 1373 1376
f 1375 1386 1380
f 1380 1386 1393
f 1372 1068 1406
f 1406 1068 981
f 1406 1390 1395
f 1395 1390 1389
f 1371 1387 940
f 940 1387 978
f 883 807 1476
f 1476 807 1477
f 1046 904 1479
f 1479 904 1478
f 904 903 1478
f 1478 903 1480
f 1030 1481 1028
f 1028 1481 1482
f 810 1046 1483
f 1483 1046 1479
f 1066 883 1484
f 1484 883 1476
f 807 810 1477
f 1477 810 1483
f 1485 1029 1484
f 1484 1029 1066
f 1028 1482 903
f 903 1482 1480
f 1481 1030 1485
f 1485 1030 1029
f 1484 1486 1485
f 1485 1486 1487
f 1485 1487 1481
f 1481 1487 1488
f 1481 1488 1482
f 1482 1488 1489
f 1482 1489 1480
f 1480 1489 1490
f 1484 1476 1486
f 1486 1476 1491
f 1476 1477 1491
f 1491 1477 1492
f 1477 1483 1492
f 1492 1483 1493
f 1495 1486 1494
f 1494 1486 1491
f 1497 1498 1496
f 1496 1498 1499
f 1500 1501 1497
f 1497 1501 1498
f 1502 1503 1501
f 1501 1503 1498
f 1502 1504 1503
f 1503 1504 1505
f 1506 1499 1503
f 1503 1499 1498
f 1499 1506 1507
f 1507 1506 1508
f 1507 1509 1499
f 1499 1509 1496
f 1502 1501 1510
f 1510 1501 1500
f 1500 1488 1510
f 1510 1488 1487
f 1500 1511 1488
f 1488 1511 1489
f 1497 1512 1500
f 1500 1512 1511
f 1512 1497 1513
f 1513 1497 1496
f 1502 1510 1504
f 1504 1510 1495
f 1495 1510 1486
f 1486 1510 1487
f 1509 1514 1496
f 1496 1514 1513
f 1515 1512 1516
f 1516 1512 1513
f 1514 1517 1513
f 1513 1517 1516
f 1518 1515 1519
f 1519 1515 1516
f 1515 1518 1521
f 1521 1518 1520
f 1517 1522 1516
f 1516 1522 1519
f 1512 1515 1511
f 1511 1515 1521
f 1511 1521 1489
f 1489 1521 1490
f 1514 1509 1524
f 1524 1509 1523
f 1509 1507 1523
f 1523 1507 1508
f 1505 1504 1525
f 1525 1504 1495
f 1526 1505 1527
f 1527 1505 1525
f 1525 1495 1528
f 1528 1495 1494
f 1527 1525 1529
f 1529 1525 1528
f 1527 1530 1526
f 1526 1530 1531
f 1508 1531 1523
f 1523 1531 1530
f 1506 1503 1526
f 1526 1503 1505
f 1508 1506 1531
f 1531 1506 1526
f 1478 1480 1532
f 1532 1480 1490
f 1483 1479 1493
f 1493 1479 1533
f 1532 1533 1478
f 1478 1533 1479
f 1520 1534 1532
f 1532 1534 1533
f 1518 1535 1520
f 1520 1535 1534
f 1533 1534 1493
f 1493 1534 1536
f 1532 1490 1520
f 1520 1490 1521
f 1537 1492 1536
f 1536 1492 1493
f 1492 1537 1491
f 1491 1537 1494
f 1537 1538 1494
f 1494 1538 1528
f 1538 1537 1539
f 1539 1537 1536
f 1540 1538 1541
f 1541 1538 1539
f 1534 1535 1536
f 1536 1535 1539
f 1535 1542 1539
f 1539 1542 1541
f 1538 1540 1528
f 1528 1540 1529
f 1544 1529 1543
f 1543 1529 1540
f 1545 1543 1547
f 1547 1543 1546
f 1543 1540 1546
f 1546 1540 1541
f 1543 1545 1544
f 1544 1545 1524
f 1544 1524 1530
f 1530 1524 1523
f 1530 1527 1544
f 1544 1527 1529
f 1535 1518 1542
f 1542 1518 1519
f 1547 1542 1522
f 1522 1542 1519
f 1547 1546 1542
f 1542 1546 1541
f 1545 1547 1517
f 1517 1547 1522
f 1517 1514 1545
f 1545 1514 1524
f 997 995 986
f 986 995 987
f 987 995 988
f 988 995 971
f 976 1358 977
f 977 1358 1289
f 854 853 1067
f 1067 853 1050
f 1055 985 1069
f 1069 985 962
f 1068 961 981
f 981 961 862
f 1268 1358 920
f 920 1358 976
f 920 976 921
f 921 976 975
f 927 1054 850
f 850 1054 851
f 882 881 1057
f 1057 881 1548
f 1548 1374 1057
f 1057 1374 1373
f 1383 1374 1549
f 1549 1374 1548
f 1549 1548 1550
f 1550 1548 881
f 1550 881 1551
f 1551 881 880
f 933 1552 879
f 879 1552 880
f 1551 880 875
f 875 880 1552
f 1553 1551 878
f 878 1551 875
f 1551 1553 1550
f 1550 1553 1554
f 1550 1554 1549
f 1549 1554 1555
f 978 1384 975
f 975 1384 1555
f 967 849 1556
f 1556 849 852
f 875 1552 876
f 876 1552 933
f 961 939 962
f 962 939 1069
f 1555 1054 975
f 975 1054 921
f 1555 1384 1549
f 1549 1384 1383
f 1391 1390 1475
f 1475 1390 980
f 1373 1475 1057
f 1057 1475 980
f 851 1054 1554
f 1554 1054 1555
f 1554 1553 851
f 851 1553 852
f 878 1556 1553
f 1553 1556 852
f 1556 878 967
f 967 878 877
f 1023 1020 877
f 877 1020 967
f 909 811 1034
f 806 779 873
f 873 779 840
f 805 780 806
f 806 780 779
f 1043 893 1044
f 1044 893 892
f 873 840 847
f 847 840 842
f 840 839 842
f 842 839 843
f 839 791 843
f 843 791 908
f 791 790 908
f 908 790 792
f 809 789 810
f 810 789 1046
f 793 790 809
f 809 790 789
f 809 808 793
f 793 808 1009
f 808 884 1009
f 1009 884 1010
f 1065 1015 884
f 884 1015 1010
f 1032 868 1065
f 1065 868 1015
f 1031 822 1032
f 1032 822 868
f 1031 1027 822
f 822 1027 785
f 1045 905 1046
f 1046 905 904
f 788 781 1019
f 1019 781 894
f 781 780 894
f 894 780 892
f 780 805 892
f 892 805 1044
f 805 804 1044
f 1044 804 891
f 804 1064 891
f 891 1064 888
f 1064 1021 888
f 888 1021 1033
f 1021 1020 1033
f 1033 1020 1034
f 1020 1023 1034
f 1034 1023 909
f 1023 1022 909
f 909 1022 910
f 1043 815 893
f 893 815 819
f 819 815 820
f 820 815 818
f 870 869 818
f 818 869 820
f 1014 1011 870
f 870 1011 869
f 969 972 1014
f 1014 972 1011
f 1036 1063 1022
f 1022 1063 910
f 1035 833 1036
f 1036 833 1063
f 1035 932 979
f 979 932 963
f 834 979 982
f 982 979 958
f 833 1035 834
f 834 1035 979
f 982 863 834
f 834 863 830
f 864 900 831
f 831 900 857
f 990 993 864
f 864 993 900
f 989 994 990
f 990 994 993
f 970 1058 989
f 989 1058 994
f 969 1018 970
f 970 1018 1058
f 1027 902 785
f 785 902 786
f 902 905 786
f 786 905 1019
f 905 1045 1019
f 1019 1045 788
f 788 1045 787
f 787 1045 789
