o hand_left
v -0.349910 0.615521 0.778262
v -0.343430 0.621905 0.774203
v -0.339931 0.610861 0.775511
v -0.347079 0.605293 0.778729
v -0.322856 0.624096 0.769440
v -0.316126 0.624664 0.759037
v -0.315225 0.609487 0.763485
v -0.320599 0.611259 0.772082
v -0.346146 0.596164 0.777280
v -0.337596 0.602273 0.776343
v -0.346467 0.591609 0.771519
v -0.359286 0.588613 0.770871
v -0.355684 0.592134 0.777318
v -0.367496 0.586278 0.773906
v -0.363353 0.593194 0.761111
v -0.376619 0.588863 0.770822
v -0.381195 0.618674 0.764728
v -0.384561 0.630892 0.770061
v -0.394097 0.620710 0.781745
v -0.388925 0.609100 0.775861
v -0.391526 0.640848 0.788010
v -0.393367 0.629410 0.785100
v -0.385200 0.639561 0.772832
v -0.383861 0.649258 0.776121
v -0.353126 0.632542 0.779826
v -0.347455 0.639951 0.775034
v -0.346975 0.633599 0.773906
v -0.352038 0.626915 0.778353
v -0.336373 0.587026 0.761390
v -0.344431 0.593531 0.755182
v -0.347807 0.591097 0.762565
v -0.336485 0.587508 0.767003
v -0.331427 0.664061 0.769107
v -0.329760 0.670801 0.757388
v -0.328574 0.666041 0.754148
v -0.330960 0.660913 0.765499
v -0.321177 0.645066 0.750369
v -0.324193 0.652492 0.743392
v -0.325860 0.649188 0.729703
v -0.325604 0.640659 0.734555
v -0.318173 0.634969 0.755782
v -0.320198 0.631961 0.741870
v -0.317344 0.622087 0.747632
v -0.315237 0.607094 0.754281
v -0.334890 0.681352 0.762790
v -0.336359 0.677990 0.772386
v -0.350781 0.566694 0.805905
v -0.350263 0.570760 0.810142
v -0.352858 0.573221 0.807173
v -0.353326 0.568612 0.803606
v -0.354105 0.687356 0.765705
v -0.362560 0.686466 0.760204
v -0.358299 0.691361 0.756795
v -0.349671 0.690915 0.760643
v -0.359914 0.682599 0.772388
v -0.367854 0.679234 0.765030
v -0.358409 0.557096 0.809941
v -0.354900 0.558700 0.806471
v -0.359384 0.560148 0.804172
v -0.363171 0.559297 0.807736
v -0.353966 0.599575 0.781422
v -0.354701 0.609301 0.783459
v -0.365300 0.593393 0.790649
v -0.362317 0.599344 0.788638
v -0.360806 0.594343 0.783673
v -0.364329 0.589930 0.785410
v -0.366297 0.621825 0.794859
v -0.360362 0.628686 0.787506
v -0.359711 0.622185 0.785882
v -0.365080 0.613347 0.793494
v -0.360639 0.641235 0.794271
v -0.366862 0.633514 0.800679
v -0.366391 0.641617 0.803714
v -0.361183 0.645548 0.799201
v -0.377492 0.618673 0.809541
v -0.380519 0.615302 0.812603
v -0.379353 0.618128 0.813250
v -0.377198 0.622277 0.810360
v -0.354831 0.695921 0.752535
v -0.345594 0.693609 0.755169
v -0.387144 0.660431 0.796877
v -0.379161 0.667925 0.800041
v -0.386510 0.662153 0.810895
v -0.393843 0.655580 0.804420
v -0.368073 0.680231 0.753910
v -0.365249 0.686965 0.750918
v -0.361040 0.558542 0.815397
v -0.365281 0.561206 0.813182
v -0.326995 0.620829 0.738261
v -0.321559 0.604511 0.746831
v -0.331430 0.632919 0.731952
v -0.334844 0.641384 0.727328
v -0.334932 0.647862 0.721919
v -0.365876 0.602150 0.794007
v -0.355638 0.618854 0.782626
v -0.353625 0.637351 0.781766
v -0.355387 0.662061 0.800546
v -0.349337 0.667724 0.793963
v -0.348655 0.657125 0.791990
v -0.354606 0.654413 0.797845
v -0.370897 0.668401 0.805608
v -0.365226 0.662812 0.807819
v -0.371122 0.658663 0.813679
v -0.377739 0.663259 0.813464
v -0.331603 0.586263 0.755197
v -0.340030 0.596181 0.749019
v -0.344466 0.684990 0.769574
v -0.340657 0.686698 0.762918
v -0.338478 0.690382 0.755530
v -0.338610 0.651045 0.772009
v -0.330492 0.658700 0.763130
v -0.329422 0.654581 0.762006
v -0.339320 0.648039 0.770668
v -0.335475 0.629810 0.772435
v -0.326004 0.637890 0.766205
v -0.332029 0.617910 0.775320
v -0.326218 0.660732 0.748641
v -0.324863 0.671367 0.746022
v -0.323453 0.664715 0.740261
v -0.328410 0.679279 0.750704
v -0.332967 0.686105 0.754305
v -0.364397 0.693665 0.745646
v -0.323955 0.658242 0.734827
v -0.319895 0.601873 0.773069
v -0.318250 0.593674 0.773598
v -0.325945 0.592559 0.775536
v -0.328236 0.600310 0.775748
v -0.373172 0.582981 0.779240
v -0.366748 0.585436 0.781983
v -0.361644 0.588877 0.777624
v -0.337350 0.662253 0.778916
v -0.341120 0.674169 0.781415
v -0.367828 0.595397 0.795859
v -0.367262 0.562840 0.804650
v -0.362945 0.563504 0.800729
v -0.371643 0.576673 0.786924
v -0.377134 0.575378 0.791344
v -0.372543 0.592962 0.801323
v -0.367100 0.593069 0.796811
v -0.366519 0.591540 0.797918
v -0.368959 0.590844 0.804084
v -0.378589 0.626995 0.815928
v -0.376399 0.630822 0.812901
v -0.392473 0.600723 0.789680
v -0.390487 0.590115 0.780195
v -0.384233 0.597863 0.770038
v -0.366535 0.628887 0.797407
v -0.372028 0.623544 0.804374
v -0.372387 0.627409 0.806012
v -0.368784 0.602606 0.797576
v -0.371416 0.597600 0.800323
v -0.373253 0.602573 0.800947
v -0.369594 0.607647 0.798547
v -0.372842 0.673939 0.789639
v -0.363350 0.674704 0.796542
v -0.352338 0.562266 0.804830
v -0.355833 0.563821 0.802496
v -0.360669 0.635456 0.790152
v -0.375669 0.608145 0.761483
v -0.353818 0.642355 0.784163
v -0.394395 0.636731 0.810105
v -0.388606 0.638101 0.815531
v -0.387384 0.632992 0.820106
v -0.392403 0.630501 0.817759
v -0.361593 0.579657 0.813947
v -0.357125 0.579754 0.810090
v -0.354671 0.576014 0.812504
v -0.358563 0.575533 0.816873
v -0.365003 0.591436 0.791612
v -0.364914 0.587846 0.787040
v -0.363180 0.585490 0.788918
v -0.364030 0.589005 0.793934
v -0.368095 0.583465 0.783452
v -0.366573 0.580618 0.785955
v -0.366748 0.575960 0.815829
v -0.370497 0.569564 0.814204
v -0.380310 0.582112 0.803359
v -0.374107 0.586085 0.807053
v -0.378147 0.657485 0.764395
v -0.376554 0.666983 0.770148
v -0.382443 0.659131 0.781933
v -0.389802 0.652016 0.793587
v -0.395716 0.644064 0.804143
v -0.398811 0.634110 0.797952
v -0.380061 0.666451 0.785100
v -0.383595 0.598960 0.798342
v -0.386906 0.591417 0.795105
v -0.389121 0.599107 0.795224
v -0.353144 0.648250 0.788768
v -0.358776 0.566884 0.798973
v -0.356350 0.649542 0.726591
v -0.363982 0.659149 0.731677
v -0.365804 0.652155 0.736722
v -0.356536 0.641549 0.731535
v -0.354626 0.576949 0.804368
v -0.354975 0.572142 0.799970
v -0.376963 0.635748 0.817198
v -0.379219 0.630958 0.819815
v -0.381181 0.631705 0.821621
v -0.378676 0.637808 0.821750
v -0.374383 0.672211 0.772240
v -0.387544 0.655744 0.819024
v -0.394723 0.650912 0.812001
v -0.371618 0.673439 0.759690
v -0.373518 0.665410 0.754332
v -0.370301 0.671613 0.747428
v -0.397629 0.619177 0.798159
v -0.379248 0.649144 0.762002
v -0.373701 0.658133 0.751793
v -0.369866 0.665213 0.743420
v -0.367822 0.670909 0.737586
v -0.368405 0.677328 0.742626
v -0.369636 0.565260 0.810190
v -0.365901 0.565626 0.818240
v -0.367742 0.684276 0.736707
v -0.366493 0.676657 0.731490
v -0.372568 0.649630 0.748323
v -0.369550 0.639425 0.744541
v -0.377770 0.641238 0.758446
v -0.375504 0.630295 0.755392
v -0.400849 0.611564 0.790550
v -0.350915 0.562113 0.827144
v -0.359126 0.567936 0.822235
v -0.355640 0.572116 0.819979
v -0.349034 0.566057 0.826575
v -0.362860 0.571883 0.819183
v -0.361586 0.562991 0.820428
v -0.367601 0.617988 0.751324
v -0.376630 0.600242 0.802129
v -0.357521 0.627076 0.739972
v -0.358428 0.601889 0.750734
v -0.348989 0.609344 0.743585
v -0.345648 0.634907 0.728949
v -0.340287 0.620599 0.734597
v -0.345533 0.649719 0.720111
v -0.346977 0.642940 0.725124
v -0.333763 0.606980 0.741160
v -0.343040 0.565070 0.813326
v -0.344174 0.568881 0.817495
v -0.354988 0.655698 0.721175
v -0.330115 0.607986 0.775887
v -0.345557 0.652488 0.782164
v -0.346587 0.647820 0.778991
v -0.345932 0.670479 0.789251
v -0.343696 0.659271 0.786109
v -0.344033 0.560142 0.811473
v -0.382803 0.613488 0.814018
v -0.382476 0.615652 0.811181
v -0.314038 0.601041 0.766260
v -0.313144 0.594128 0.767685
v -0.316702 0.588068 0.756208
v -0.312476 0.590996 0.761375
v -0.313578 0.598703 0.757756
v -0.318136 0.595989 0.751876
v -0.338186 0.653237 0.773569
v -0.338191 0.656360 0.776024
v -0.365861 0.678832 0.780701
v -0.356768 0.678822 0.787969
v -0.374043 0.581159 0.782911
v -0.381811 0.584199 0.779951
v -0.380798 0.581470 0.785581
v -0.381530 0.578616 0.796292
v -0.378716 0.598128 0.801052
v -0.378301 0.592301 0.801617
v -0.327990 0.646735 0.764208
v -0.338590 0.640672 0.770598
v -0.335756 0.596545 0.774837
v -0.333194 0.590125 0.773456
v -0.370372 0.615622 0.799981
v -0.393332 0.610875 0.807518
v -0.395605 0.605358 0.799888
v -0.375463 0.610164 0.804546
v -0.347934 0.553973 0.815861
v -0.345360 0.556703 0.812486
v -0.385599 0.584458 0.789689
v -0.371570 0.635177 0.809589
v -0.394117 0.618553 0.805727
v -0.388934 0.612321 0.813229
v -0.379536 0.659064 0.818437
v -0.361636 0.665441 0.725743
v -0.351746 0.573365 0.815919
v -0.346370 0.570155 0.821943
v -0.352391 0.558358 0.825520
v -0.351973 0.554725 0.820763
v -0.350076 0.681029 0.779432
v -0.347401 0.644399 0.777248
v -0.328177 0.596337 0.747075
v -0.324060 0.586975 0.753604
v -0.378896 0.608549 0.806476
v -0.393341 0.642907 0.811897
v -0.397952 0.628798 0.806753
v -0.395936 0.622780 0.814299
v -0.393026 0.616468 0.811482
v -0.386652 0.613567 0.810724
v -0.347449 0.557686 0.828405
v -0.346577 0.553711 0.823806
v -0.342468 0.553120 0.819085
v -0.340514 0.555782 0.815511
v -0.340481 0.560026 0.813919
v -0.346044 0.561677 0.829904
v -0.344501 0.565267 0.828934
v -0.343774 0.569175 0.823848
v -0.341827 0.562487 0.831752
v -0.340001 0.557622 0.832098
v -0.328985 0.554271 0.824555
v -0.334742 0.552869 0.823844
v -0.333457 0.553137 0.826272
v -0.328789 0.554027 0.827808
v -0.324623 0.554723 0.830790
v -0.324065 0.555129 0.827271
v -0.337434 0.554144 0.828489
v -0.331456 0.555417 0.831305
v -0.333139 0.558204 0.834041
v -0.328257 0.558329 0.836619
v -0.326582 0.555678 0.834361
v -0.337105 0.556894 0.832075
v -0.339649 0.553522 0.827740
v -0.321505 0.556493 0.830896
v -0.322622 0.555290 0.832862
v -0.323933 0.556567 0.835700
v -0.321556 0.558540 0.835565
v -0.335702 0.555534 0.818326
v -0.328357 0.555945 0.822661
v -0.323878 0.558087 0.826147
v -0.321426 0.559162 0.829884
v -0.327648 0.559978 0.822669
v -0.324411 0.561005 0.826110
v -0.322546 0.562299 0.829473
v -0.327970 0.564043 0.824061
v -0.325186 0.563936 0.827198
v -0.337638 0.563808 0.817003
v -0.337263 0.559753 0.815857
v -0.323416 0.564238 0.829103
v -0.321502 0.560728 0.835036
v -0.335493 0.561002 0.834561
v -0.328918 0.561551 0.836855
v -0.335650 0.563357 0.834257
v -0.329325 0.563925 0.836902
v -0.324834 0.560889 0.838406
v -0.325449 0.558560 0.837394
v -0.341361 0.564928 0.815177
v -0.342713 0.568673 0.819530
v -0.339713 0.567968 0.821099
v -0.329859 0.567384 0.826957
v -0.340736 0.568891 0.825371
v -0.340472 0.565900 0.830646
v -0.334276 0.565872 0.833528
v -0.332629 0.567838 0.831230
v -0.329229 0.565887 0.835198
v -0.328459 0.566794 0.832884
v -0.326447 0.566435 0.829607
v -0.325261 0.565139 0.835394
v -0.324976 0.563024 0.837529
v -0.322602 0.563457 0.833266
v -0.325846 0.566099 0.833736
v -0.324178 0.564831 0.831569
v -0.361683 0.586895 0.821094
v -0.361993 0.591633 0.825320
v -0.365456 0.593025 0.822090
v -0.365018 0.588887 0.818573
v -0.370372 0.576606 0.824878
v -0.365864 0.578997 0.821154
v -0.370167 0.580160 0.818202
v -0.375514 0.578707 0.822634
v -0.374271 0.579273 0.830484
v -0.379035 0.582005 0.827788
v -0.379649 0.581435 0.819034
v -0.374082 0.583023 0.814679
v -0.382596 0.596116 0.801546
v -0.388635 0.595296 0.804112
v -0.378060 0.610313 0.812597
v -0.380054 0.609876 0.815059
v -0.363017 0.583145 0.820297
v -0.366874 0.584398 0.817422
v -0.371489 0.599052 0.827177
v -0.367985 0.598281 0.822906
v -0.366404 0.595860 0.826018
v -0.369859 0.595951 0.830331
v -0.376588 0.601789 0.802902
v -0.377761 0.606326 0.807996
v -0.378512 0.598742 0.801412
v -0.376764 0.596293 0.830232
v -0.381545 0.591291 0.830165
v -0.391398 0.603460 0.816056
v -0.386787 0.606892 0.818696
v -0.369777 0.586279 0.813581
v -0.366312 0.594819 0.818566
v -0.366687 0.590885 0.814979
v -0.382788 0.585556 0.824442
v -0.377551 0.587862 0.833385
v -0.360332 0.585795 0.842713
v -0.369777 0.590399 0.836403
v -0.366321 0.593400 0.833808
v -0.356889 0.589440 0.841215
v -0.373690 0.593075 0.833370
v -0.372952 0.585314 0.835666
v -0.349665 0.584387 0.830235
v -0.350528 0.589088 0.834338
v -0.350632 0.579988 0.829197
v -0.392122 0.598602 0.809197
v -0.358617 0.574009 0.832357
v -0.353415 0.576680 0.829376
v -0.363438 0.594264 0.829647
v -0.353030 0.590788 0.838307
v -0.362468 0.581638 0.842123
v -0.363380 0.576255 0.837043
v -0.357407 0.580761 0.844857
v -0.356933 0.575442 0.840967
v -0.352205 0.573310 0.836063
v -0.348313 0.576312 0.832482
v -0.346932 0.579882 0.831499
v -0.355690 0.584972 0.845343
v -0.352786 0.588641 0.843558
v -0.350441 0.590086 0.839029
v -0.349633 0.586040 0.847771
v -0.349897 0.581596 0.848599
v -0.332166 0.577014 0.844342
v -0.337620 0.575603 0.842148
v -0.338453 0.575742 0.844687
v -0.333513 0.576901 0.846858
v -0.343766 0.573683 0.841563
v -0.343042 0.574714 0.843945
v -0.346386 0.576802 0.846503
v -0.340587 0.578238 0.848269
v -0.342917 0.582138 0.850213
v -0.337883 0.582799 0.852823
v -0.335413 0.578898 0.851178
v -0.346558 0.580037 0.848804
v -0.330859 0.578145 0.848996
v -0.328773 0.579542 0.848120
v -0.349351 0.575578 0.845372
v -0.344380 0.575628 0.835527
v -0.336336 0.577223 0.839814
v -0.330805 0.579523 0.842706
v -0.328183 0.582510 0.847496
v -0.335296 0.581222 0.838724
v -0.330641 0.582761 0.842293
v -0.329045 0.584989 0.846558
v -0.335476 0.586020 0.838965
v -0.331400 0.586920 0.843003
v -0.344560 0.584501 0.833342
v -0.343919 0.579857 0.833079
v -0.330238 0.586760 0.845375
v -0.329921 0.581506 0.852501
v -0.328983 0.584510 0.851187
v -0.331449 0.580326 0.852362
v -0.343673 0.584109 0.850632
v -0.337664 0.585044 0.852819
v -0.343369 0.586947 0.850276
v -0.336877 0.587378 0.852665
v -0.333164 0.584665 0.854190
v -0.333449 0.582942 0.854060
v -0.347133 0.584168 0.832173
v -0.348719 0.588516 0.835407
v -0.346623 0.588990 0.836070
v -0.337736 0.589910 0.841819
v -0.348732 0.590582 0.840133
v -0.349032 0.588919 0.845505
v -0.342901 0.589261 0.848637
v -0.340528 0.590843 0.845734
v -0.336783 0.589422 0.851797
v -0.336738 0.590542 0.848645
v -0.333633 0.589797 0.844947
v -0.332364 0.588400 0.852599
v -0.332558 0.586336 0.853835
v -0.329468 0.586280 0.849826
v -0.333233 0.589755 0.850049
v -0.330844 0.588246 0.847622
v -0.368397 0.607130 0.829045
v -0.369027 0.611989 0.832134
v -0.371328 0.613372 0.829508
v -0.371076 0.608529 0.826593
v -0.377469 0.598589 0.832614
v -0.373199 0.599361 0.830112
v -0.376490 0.600691 0.827030
v -0.381748 0.600292 0.828720
v -0.379577 0.600472 0.837650
v -0.385482 0.603037 0.832924
v -0.385392 0.602476 0.824941
v -0.379348 0.602433 0.823875
v -0.384947 0.611401 0.813227
v -0.391070 0.611566 0.815609
v -0.370198 0.602854 0.828925
v -0.372876 0.604137 0.826330
v -0.376795 0.618596 0.833968
v -0.373156 0.617364 0.830774
v -0.373544 0.616111 0.833628
v -0.376795 0.616211 0.836666
v -0.377527 0.618638 0.813454
v -0.378268 0.623719 0.816468
v -0.379803 0.614188 0.812996
v -0.382804 0.616464 0.835918
v -0.388311 0.611812 0.834282
v -0.391585 0.622552 0.824793
v -0.386611 0.626191 0.825071
v -0.374908 0.605167 0.823562
v -0.371252 0.614454 0.826679
v -0.371554 0.609552 0.824007
v -0.388614 0.606371 0.828950
v -0.385066 0.608423 0.837835
v -0.367696 0.604707 0.851752
v -0.378782 0.611204 0.841736
v -0.374395 0.614490 0.839302
v -0.365010 0.608128 0.850671
v -0.381254 0.613466 0.839267
v -0.381070 0.605862 0.841128
v -0.357335 0.603539 0.839972
v -0.358956 0.607902 0.843019
v -0.359394 0.599776 0.838779
v -0.394385 0.616009 0.820189
v -0.381040 0.627597 0.822283
v -0.364066 0.594833 0.842055
v -0.361145 0.596931 0.839553
v -0.371508 0.614632 0.836077
v -0.361846 0.609717 0.847547
v -0.369491 0.600431 0.850201
v -0.368650 0.596010 0.845869
v -0.365081 0.599776 0.853852
v -0.363843 0.595339 0.849640
v -0.359526 0.593851 0.845871
v -0.356938 0.596275 0.843128
v -0.355505 0.599300 0.842070
v -0.363457 0.604214 0.855047
v -0.361267 0.607239 0.853616
v -0.360233 0.608862 0.848701
v -0.359645 0.604636 0.857396
v -0.359045 0.599175 0.857920
v -0.342675 0.595408 0.856298
v -0.347468 0.595094 0.852999
v -0.348077 0.595100 0.854099
v -0.343552 0.595007 0.857757
v -0.353777 0.593766 0.850911
v -0.352873 0.594160 0.852704
v -0.355777 0.595268 0.855144
v -0.350467 0.595973 0.858763
v -0.352992 0.601031 0.860900
v -0.348450 0.600737 0.863305
v -0.345961 0.595921 0.861846
v -0.357002 0.598581 0.858033
v -0.341597 0.595588 0.860279
v -0.339877 0.595088 0.859492
v -0.357969 0.594858 0.854049
v -0.352343 0.595411 0.846469
v -0.346000 0.596267 0.850718
v -0.340928 0.596685 0.853871
v -0.338712 0.598011 0.857512
v -0.345288 0.599844 0.849507
v -0.341048 0.599777 0.852989
v -0.339020 0.600842 0.856293
v -0.345561 0.603144 0.849731
v -0.341951 0.602936 0.853128
v -0.353501 0.603053 0.843844
v -0.352448 0.598986 0.844311
v -0.340186 0.602793 0.855784
v -0.341164 0.597416 0.863531
v -0.339694 0.601158 0.862137
v -0.342721 0.597000 0.862883
v -0.353967 0.602629 0.861027
v -0.348196 0.602908 0.864268
v -0.353810 0.605398 0.860292
v -0.347989 0.605553 0.863449
v -0.344457 0.601119 0.865301
v -0.344894 0.600122 0.864740
v -0.355899 0.603346 0.842240
v -0.357706 0.607351 0.844802
v -0.355422 0.606999 0.846029
v -0.346896 0.606981 0.852098
v -0.357879 0.608771 0.849774
v -0.357637 0.607386 0.855729
v -0.352152 0.607470 0.858306
v -0.349481 0.608329 0.855719
v -0.347087 0.607254 0.861370
v -0.346414 0.607549 0.858579
v -0.343183 0.606403 0.855035
v -0.343434 0.605402 0.862000
v -0.343817 0.603683 0.864416
v -0.339860 0.603428 0.859894
v -0.343345 0.606421 0.859693
v -0.340748 0.604869 0.857985
v -0.379126 0.626750 0.819630
v -0.371382 0.626352 0.833525
v -0.370809 0.629789 0.836083
v -0.371929 0.631095 0.835409
v -0.372297 0.628353 0.831980
v -0.381771 0.621932 0.834389
v -0.377347 0.621552 0.832754
v -0.379731 0.623675 0.829856
v -0.384077 0.624217 0.831329
v -0.384414 0.624924 0.837863
v -0.386245 0.627470 0.835353
v -0.385248 0.626969 0.828970
v -0.380809 0.626354 0.827270
v -0.385209 0.636248 0.816854
v -0.390093 0.638853 0.817395
v -0.379156 0.654239 0.823778
v -0.374843 0.652599 0.821356
v -0.375020 0.647297 0.828191
v -0.379068 0.649277 0.829529
v -0.373843 0.623444 0.832531
v -0.375042 0.625431 0.829827
v -0.377471 0.637993 0.840198
v -0.373630 0.636374 0.837657
v -0.372748 0.633978 0.838430
v -0.375566 0.635668 0.841851
v -0.373725 0.647690 0.820288
v -0.375653 0.643068 0.819754
v -0.374500 0.641141 0.822550
v -0.373560 0.643369 0.826046
v -0.378202 0.637154 0.820499
v -0.381833 0.637269 0.840483
v -0.386627 0.634325 0.838075
v -0.389034 0.649123 0.826778
v -0.384338 0.650439 0.828462
v -0.376364 0.627012 0.828533
v -0.372272 0.633434 0.834085
v -0.372928 0.630168 0.831653
v -0.388018 0.630222 0.832931
v -0.384579 0.631595 0.840280
v -0.374834 0.628781 0.849369
v -0.378897 0.633232 0.844431
v -0.374379 0.634378 0.842891
v -0.372117 0.630253 0.848174
v -0.379951 0.634740 0.842630
v -0.382708 0.629184 0.842903
v -0.367241 0.623403 0.838437
v -0.367591 0.627761 0.841734
v -0.368912 0.620574 0.837543
v -0.391929 0.643985 0.820714
v -0.375284 0.617685 0.840325
v -0.371293 0.618156 0.838403
v -0.371702 0.632415 0.839386
v -0.369357 0.630067 0.845342
v -0.377728 0.625096 0.848508
v -0.378885 0.620527 0.844205
v -0.374374 0.622741 0.851024
v -0.375053 0.618384 0.846822
v -0.370501 0.616373 0.842547
v -0.368118 0.618273 0.840135
v -0.366395 0.620845 0.839329
v -0.372180 0.627257 0.851409
v -0.370221 0.629200 0.849870
v -0.368196 0.629564 0.846427
v -0.369266 0.625807 0.853643
v -0.368630 0.621048 0.853496
v -0.355766 0.618924 0.850075
v -0.359137 0.618412 0.847611
v -0.359708 0.618164 0.848645
v -0.356163 0.618154 0.850763
v -0.364289 0.616971 0.845852
v -0.363664 0.617262 0.847566
v -0.366755 0.617811 0.849608
v -0.362074 0.618147 0.852287
v -0.363627 0.621866 0.855945
v -0.359842 0.621640 0.857592
v -0.358900 0.618155 0.854403
v -0.367021 0.620058 0.853385
v -0.354554 0.617941 0.853032
v -0.353164 0.618289 0.853034
v -0.368971 0.617111 0.848886
v -0.363271 0.619009 0.842435
v -0.357358 0.619813 0.846328
v -0.353555 0.620003 0.849809
v -0.352041 0.620355 0.853367
v -0.357435 0.622118 0.845321
v -0.352931 0.622176 0.849296
v -0.351649 0.622565 0.852757
v -0.357946 0.625417 0.845551
v -0.353823 0.624646 0.849447
v -0.363335 0.625587 0.841780
v -0.362779 0.622113 0.841384
v -0.352592 0.624008 0.852243
v -0.354373 0.619045 0.856715
v -0.352979 0.621665 0.856318
v -0.355851 0.618388 0.856496
v -0.364050 0.623119 0.856399
v -0.359418 0.623034 0.858392
v -0.364004 0.625611 0.856294
v -0.358656 0.625039 0.858017
v -0.356191 0.621576 0.858665
v -0.357395 0.620333 0.857852
v -0.365123 0.624538 0.840294
v -0.366348 0.627491 0.842586
v -0.364904 0.628441 0.844411
v -0.359641 0.628324 0.847956
v -0.367143 0.629850 0.848425
v -0.368661 0.628500 0.851876
v -0.363128 0.627812 0.854901
v -0.361570 0.629229 0.852192
v -0.357558 0.626507 0.856823
v -0.356666 0.627785 0.854203
v -0.355216 0.627171 0.851247
v -0.354271 0.624587 0.856644
v -0.354769 0.623334 0.857976
v -0.352721 0.623490 0.855339
v -0.354120 0.625736 0.855087
v -0.353281 0.625133 0.853779
v -0.383174 0.653230 0.824443
v -0.326886 0.574675 0.762979
v -0.330175 0.576457 0.767263
v -0.319572 0.581798 0.778701
v -0.326278 0.579621 0.777304
v -0.313085 0.581593 0.776068
v -0.309591 0.578358 0.765960
v -0.310045 0.581244 0.770965
v -0.330029 0.577822 0.772940
v -0.321308 0.574536 0.760073
v -0.313903 0.576108 0.760697
v -0.322017 0.564851 0.762775
v -0.313431 0.566251 0.764000
v -0.308583 0.568393 0.769026
v -0.309548 0.574309 0.774559
v -0.312061 0.576687 0.778514
v -0.327751 0.569290 0.766538
v -0.330265 0.572089 0.770485
v -0.329037 0.575299 0.776187
v -0.329948 0.564778 0.772786
v -0.325561 0.557775 0.778167
v -0.313432 0.555600 0.794071
v -0.312394 0.559930 0.788605
v -0.314006 0.557888 0.787595
v -0.314468 0.553837 0.792515
v -0.312496 0.560831 0.782706
v -0.314395 0.559525 0.783289
v -0.318551 0.558441 0.780105
v -0.319121 0.554978 0.785176
v -0.323682 0.557620 0.780500
v -0.325174 0.555768 0.784422
v -0.319813 0.551433 0.789841
v -0.316012 0.550452 0.794324
v -0.320353 0.548660 0.793874
v -0.315923 0.551807 0.797170
v -0.317513 0.556584 0.776979
v -0.310001 0.567043 0.781408
v -0.311596 0.563300 0.789426
v -0.313749 0.558826 0.795868
v -0.317022 0.554367 0.798883
v -0.313502 0.566847 0.791101
v -0.316264 0.562318 0.796250
v -0.319835 0.558358 0.798586
v -0.317855 0.569121 0.791767
v -0.319928 0.563954 0.795740
v -0.317568 0.576521 0.782858
v -0.311878 0.573402 0.782352
v -0.321347 0.560377 0.797309
v -0.321308 0.548644 0.796625
v -0.322595 0.551564 0.798289
v -0.328216 0.557062 0.783530
v -0.325923 0.552110 0.788557
v -0.328325 0.553697 0.789115
v -0.330662 0.560207 0.783263
v -0.329934 0.555797 0.790047
v -0.326452 0.550221 0.793455
v -0.324386 0.549585 0.791645
v -0.317669 0.578602 0.780716
v -0.324146 0.577984 0.779396
v -0.323991 0.576370 0.781085
v -0.324388 0.569469 0.789905
v -0.329190 0.573665 0.779146
v -0.331097 0.569030 0.775596
v -0.331471 0.563444 0.784902
v -0.329476 0.567104 0.787239
v -0.329709 0.559072 0.791494
v -0.328168 0.561532 0.792489
v -0.324306 0.563549 0.794772
v -0.327347 0.556249 0.795399
v -0.327770 0.552806 0.794702
v -0.323793 0.556004 0.798063
v -0.326703 0.558854 0.794979
v -0.324103 0.559305 0.796743
v -0.373298 0.655495 0.816804
v -0.371436 0.649261 0.815474
v -0.368249 0.653169 0.812057
v -0.361908 0.657391 0.806840
v -0.359586 0.666565 0.802190
v -0.361072 0.651128 0.803595
v -0.367532 0.647009 0.809322
v -0.372426 0.641413 0.814138
v -0.356301 0.649215 0.794632
f 2 3 1
f 1 3 4
f 5 6 8
f 8 6 7
f 9 4 10
f 10 4 3
f 12 13 11
f 11 13 9
f 14 12 16
f 16 12 15
f 18 19 17
f 17 19 20
f 22 23 21
f 21 23 24
f 26 27 25
f 25 27 28
f 30 31 29
f 29 31 32
f 33 34 36
f 36 34 35
f 37 38 40
f 40 38 39
f 41 42 6
f 6 42 43
f 6 43 7
f 7 43 44
f 45 34 46
f 46 34 33
f 48 49 47
f 47 49 50
f 52 53 51
f 51 53 54
f 56 52 55
f 55 52 51
f 58 59 57
f 57 59 60
f 61 62 4
f 4 62 1
f 64 65 63
f 63 65 66
f 68 69 67
f 67 69 70
f 72 73 71
f 71 73 74
f 76 77 75
f 75 77 78
f 53 79 54
f 54 79 80
f 82 83 81
f 81 83 84
f 85 86 52
f 52 86 53
f 57 60 87
f 87 60 88
f 89 90 43
f 43 90 44
f 43 42 89
f 89 42 91
f 40 39 92
f 92 39 93
f 94 70 64
f 64 70 69
f 13 61 9
f 9 61 4
f 25 28 69
f 69 28 95
f 96 25 68
f 68 25 69
f 98 99 97
f 97 99 100
f 101 102 104
f 104 102 103
f 106 30 105
f 105 30 29
f 51 54 107
f 107 54 108
f 54 80 108
f 108 80 109
f 111 112 110
f 110 112 113
f 115 5 114
f 114 5 116
f 115 41 5
f 5 41 6
f 36 35 111
f 111 35 117
f 35 118 117
f 117 118 119
f 34 120 35
f 35 120 118
f 34 45 120
f 120 45 121
f 125 126 124
f 124 126 127
f 128 129 14
f 14 129 130
f 33 131 46
f 46 131 132
f 133 94 63
f 63 94 64
f 134 135 137
f 137 135 136
f 139 140 138
f 138 140 141
f 77 142 78
f 78 142 143
f 144 145 20
f 20 145 146
f 148 149 147
f 147 149 72
f 151 152 150
f 150 152 153
f 82 101 83
f 83 101 104
f 101 82 155
f 155 82 154
f 156 157 58
f 58 157 59
f 158 68 147
f 147 68 67
f 159 146 15
f 15 146 16
f 68 158 96
f 96 158 160
f 129 66 130
f 130 66 65
f 162 163 161
f 161 163 164
f 166 167 165
f 165 167 168
f 170 171 169
f 169 171 172
f 174 171 173
f 173 171 170
f 176 177 175
f 175 177 178
f 180 181 179
f 179 181 24
f 182 183 21
f 21 183 184
f 81 185 82
f 82 185 154
f 186 187 188
f 188 187 144
f 158 71 160
f 160 71 189
f 190 135 157
f 157 135 59
f 169 172 139
f 139 172 140
f 147 72 158
f 158 72 71
f 192 193 191
f 191 193 194
f 167 166 49
f 49 166 195
f 196 190 50
f 50 190 157
f 197 198 200
f 200 198 199
f 21 24 182
f 182 24 181
f 146 159 20
f 20 159 17
f 182 181 81
f 81 181 185
f 201 185 180
f 180 185 181
f 202 203 83
f 83 203 84
f 205 206 204
f 204 206 85
f 207 22 184
f 184 22 21
f 179 24 208
f 208 24 23
f 208 209 179
f 179 209 205
f 209 210 205
f 205 210 206
f 212 206 211
f 211 206 210
f 179 205 180
f 180 205 204
f 213 176 88
f 88 176 214
f 86 85 212
f 212 85 206
f 193 217 218
f 217 219 218
f 218 219 220
f 219 18 220
f 220 18 17
f 19 221 20
f 20 221 144
f 222 223 225
f 225 223 224
f 175 226 176
f 176 226 214
f 227 87 214
f 214 87 88
f 220 17 228
f 228 17 159
f 134 213 60
f 60 213 88
f 138 229 151
f 151 229 152
f 193 192 210
f 210 192 211
f 230 194 218
f 218 194 193
f 231 232 228
f 228 232 230
f 233 234 91
f 91 234 89
f 235 236 93
f 93 236 92
f 230 232 234
f 234 232 237
f 47 238 48
f 48 238 239
f 240 191 235
f 235 191 236
f 5 8 116
f 116 8 241
f 242 243 189
f 189 243 160
f 244 245 98
f 98 245 99
f 156 246 47
f 47 246 238
f 76 247 77
f 77 247 248
f 250 125 249
f 249 125 124
f 252 253 251
f 251 253 254
f 111 110 36
f 36 110 255
f 256 33 255
f 255 33 36
f 257 258 154
f 154 258 155
f 63 169 133
f 133 169 139
f 66 170 63
f 63 170 169
f 173 170 129
f 129 170 66
f 129 128 173
f 173 128 259
f 128 260 259
f 259 260 261
f 213 134 262
f 262 134 137
f 263 264 186
f 186 264 187
f 112 265 113
f 113 265 266
f 11 267 268
f 234 233 230
f 230 233 194
f 153 269 70
f 70 269 67
f 175 178 165
f 165 178 141
f 150 153 94
f 94 153 70
f 271 221 270
f 270 221 207
f 269 153 272
f 272 153 152
f 121 45 109
f 109 45 108
f 47 50 156
f 156 50 157
f 57 273 58
f 58 273 274
f 145 275 260
f 260 275 261
f 276 149 143
f 143 149 78
f 148 269 75
f 75 269 272
f 207 277 270
f 270 277 278
f 195 196 49
f 49 196 50
f 59 135 60
f 60 135 134
f 83 104 202
f 202 104 279
f 149 148 78
f 78 148 75
f 247 278 248
f 248 278 277
f 183 182 84
f 84 182 81
f 48 239 281
f 281 239 282
f 227 223 283
f 283 223 222
f 223 226 224
f 224 226 168
f 281 282 224
f 224 282 225
f 165 168 175
f 175 168 226
f 264 263 138
f 138 263 229
f 14 16 128
f 128 16 260
f 220 228 218
f 218 228 230
f 87 227 284
f 284 227 283
f 260 16 145
f 145 16 146
f 244 98 258
f 258 98 155
f 58 274 156
f 156 274 246
f 107 285 51
f 51 285 55
f 243 286 160
f 160 286 96
f 234 237 89
f 89 237 90
f 46 132 107
f 107 132 285
f 253 252 249
f 249 252 250
f 286 26 96
f 96 26 25
f 106 105 287
f 287 105 288
f 272 152 289
f 289 152 229
f 138 151 139
f 139 151 133
f 183 290 161
f 161 290 162
f 291 292 277
f 277 292 293
f 151 150 133
f 133 150 94
f 262 275 177
f 177 275 187
f 144 187 145
f 145 187 275
f 273 57 284
f 284 57 87
f 174 136 190
f 190 136 135
f 111 117 112
f 112 117 38
f 117 119 38
f 38 119 123
f 112 38 265
f 265 38 37
f 287 288 254
f 254 288 251
f 228 159 231
f 231 159 15
f 223 227 226
f 226 227 214
f 147 67 148
f 148 67 269
f 224 168 281
f 281 168 167
f 199 163 200
f 200 163 162
f 45 46 108
f 108 46 107
f 281 167 48
f 48 167 49
f 161 164 291
f 291 164 292
f 38 123 39
f 293 294 277
f 277 294 248
f 284 283 296
f 296 283 295
f 284 296 273
f 273 296 297
f 274 273 298
f 298 273 297
f 246 274 299
f 299 274 298
f 283 222 295
f 295 222 300
f 222 225 300
f 300 225 301
f 301 225 302
f 302 225 282
f 303 304 300
f 300 304 295
f 306 307 305
f 305 307 308
f 309 310 308
f 308 310 305
f 308 307 312
f 312 307 311
f 313 314 312
f 312 314 315
f 311 316 312
f 312 316 313
f 317 304 311
f 311 304 316
f 315 309 312
f 312 309 308
f 318 319 321
f 321 319 320
f 319 318 309
f 309 318 310
f 311 307 317
f 317 307 306
f 306 297 317
f 317 297 296
f 306 322 297
f 297 322 298
f 305 323 306
f 306 323 322
f 323 305 324
f 324 305 310
f 304 317 295
f 295 317 296
f 318 325 310
f 310 325 324
f 323 324 326
f 326 324 327
f 324 325 327
f 327 325 328
f 326 327 329
f 329 327 330
f 329 331 326
f 326 331 332
f 333 330 328
f 328 330 327
f 323 326 322
f 322 326 332
f 322 332 298
f 298 332 299
f 325 318 334
f 334 318 321
f 313 316 335
f 335 316 304
f 335 336 313
f 313 336 314
f 304 303 335
f 335 303 337
f 336 335 338
f 338 335 337
f 336 339 314
f 314 339 340
f 246 299 238
f 238 299 341
f 239 342 282
f 282 342 302
f 342 239 341
f 341 239 238
f 341 331 342
f 342 331 343
f 331 329 343
f 343 329 344
f 342 343 302
f 302 343 345
f 341 299 331
f 331 299 332
f 346 301 345
f 345 301 302
f 346 303 301
f 301 303 300
f 347 337 346
f 346 337 303
f 347 346 348
f 348 346 345
f 349 347 350
f 350 347 348
f 343 344 345
f 345 344 348
f 344 351 348
f 348 351 350
f 337 347 338
f 338 347 349
f 353 338 352
f 352 338 349
f 352 355 354
f 354 355 356
f 352 349 355
f 355 349 350
f 352 354 353
f 353 354 334
f 353 334 339
f 339 334 321
f 339 336 353
f 353 336 338
f 329 330 344
f 344 330 351
f 356 351 333
f 333 351 330
f 356 355 351
f 351 355 350
f 354 356 328
f 328 356 333
f 328 325 354
f 354 325 334
f 309 315 319
f 319 315 320
f 320 340 321
f 321 340 339
f 320 315 340
f 340 315 314
f 137 136 261
f 261 136 259
f 140 166 141
f 141 166 165
f 172 171 195
f 195 171 196
f 171 174 196
f 196 174 190
f 178 177 264
f 264 177 187
f 172 195 140
f 140 195 166
f 137 261 262
f 262 261 275
f 178 264 141
f 141 264 138
f 262 177 213
f 213 177 176
f 136 174 259
f 259 174 173
f 358 359 357
f 357 359 360
f 362 363 361
f 361 363 364
f 361 364 365
f 365 364 366
f 367 368 370
f 370 368 369
f 76 371 247
f 247 371 372
f 373 374 362
f 362 374 363
f 376 377 375
f 375 377 378
f 289 229 380
f 380 229 379
f 381 379 263
f 263 379 229
f 383 384 382
f 382 384 385
f 386 368 374
f 374 368 363
f 76 289 371
f 371 289 380
f 377 376 359
f 359 376 387
f 388 386 360
f 360 386 374
f 389 383 366
f 366 383 390
f 392 393 391
f 391 393 394
f 383 382 390
f 390 382 395
f 396 365 390
f 390 365 366
f 389 366 367
f 367 366 364
f 357 397 358
f 358 397 398
f 373 399 357
f 357 399 397
f 389 367 400
f 400 367 370
f 382 385 375
f 375 385 372
f 357 360 373
f 373 360 374
f 361 401 362
f 362 401 402
f 387 388 359
f 359 388 360
f 363 368 364
f 364 368 367
f 358 398 403
f 403 398 404
f 396 392 405
f 405 392 391
f 392 395 393
f 393 395 378
f 393 403 394
f 394 403 404
f 375 378 382
f 382 378 395
f 365 396 406
f 406 396 405
f 362 402 373
f 373 402 399
f 271 270 400
f 400 270 384
f 401 361 406
f 406 361 365
f 381 369 386
f 386 369 368
f 392 396 395
f 395 396 390
f 393 378 403
f 403 378 377
f 403 377 358
f 358 377 359
f 406 405 408
f 408 405 407
f 406 408 401
f 401 408 409
f 401 409 402
f 402 409 410
f 402 410 399
f 399 410 411
f 405 391 407
f 407 391 412
f 391 394 412
f 412 394 413
f 394 404 413
f 413 404 414
f 415 416 412
f 412 416 407
f 418 419 417
f 417 419 420
f 421 422 418
f 418 422 419
f 419 422 424
f 424 422 423
f 425 426 424
f 424 426 427
f 423 428 424
f 424 428 425
f 427 420 424
f 424 420 419
f 420 429 417
f 417 429 430
f 423 422 431
f 431 422 421
f 421 409 431
f 431 409 408
f 421 432 409
f 409 432 410
f 418 433 421
f 421 433 432
f 434 433 417
f 417 433 418
f 431 416 423
f 423 416 428
f 416 431 407
f 407 431 408
f 435 434 430
f 430 434 417
f 433 434 436
f 436 434 437
f 434 435 437
f 437 435 438
f 436 437 439
f 439 437 440
f 439 441 436
f 436 441 442
f 438 443 437
f 437 443 440
f 436 442 433
f 433 442 432
f 432 442 410
f 410 442 411
f 435 430 445
f 445 430 444
f 430 429 444
f 444 429 446
f 425 428 447
f 447 428 416
f 426 425 448
f 448 425 447
f 416 415 447
f 447 415 449
f 447 449 448
f 448 449 450
f 451 452 448
f 448 452 426
f 446 452 444
f 444 452 451
f 399 411 397
f 397 411 453
f 398 454 404
f 404 454 414
f 454 398 453
f 453 398 397
f 453 441 454
f 454 441 455
f 441 439 455
f 455 439 456
f 454 455 414
f 414 455 457
f 441 453 442
f 442 453 411
f 458 413 457
f 457 413 414
f 458 415 413
f 413 415 412
f 458 459 415
f 415 459 449
f 459 458 460
f 460 458 457
f 461 459 462
f 462 459 460
f 455 456 457
f 457 456 460
f 456 463 460
f 460 463 462
f 459 461 449
f 449 461 450
f 465 450 464
f 464 450 461
f 464 467 466
f 466 467 468
f 464 461 467
f 467 461 462
f 464 466 465
f 465 466 445
f 465 445 451
f 451 445 444
f 451 448 465
f 465 448 450
f 439 440 456
f 456 440 463
f 468 463 443
f 443 463 440
f 468 467 463
f 463 467 462
f 466 468 438
f 438 468 443
f 438 435 466
f 466 435 445
f 420 427 429
f 429 427 446
f 446 427 452
f 452 427 426
f 370 369 188
f 188 369 186
f 371 376 372
f 372 376 375
f 380 379 387
f 387 379 388
f 379 381 388
f 388 381 386
f 385 384 278
f 278 384 270
f 380 387 371
f 371 387 376
f 400 370 271
f 271 370 188
f 385 278 372
f 372 278 247
f 400 384 389
f 389 384 383
f 369 381 186
f 186 381 263
f 221 271 144
f 144 271 188
f 221 19 207
f 207 19 22
f 19 18 22
f 22 18 23
f 18 219 23
f 23 219 208
f 469 470 472
f 472 470 471
f 474 475 473
f 473 475 476
f 473 476 477
f 477 476 478
f 480 481 479
f 479 481 482
f 483 484 474
f 474 484 475
f 486 487 485
f 485 487 488
f 489 490 77
f 77 490 142
f 491 489 248
f 248 489 77
f 493 494 492
f 492 494 495
f 496 480 484
f 484 480 475
f 486 497 487
f 487 497 471
f 498 496 472
f 472 496 484
f 499 493 478
f 478 493 500
f 501 502 504
f 504 502 503
f 493 492 500
f 500 492 505
f 506 477 500
f 500 477 478
f 499 478 479
f 479 478 476
f 469 507 470
f 470 507 508
f 483 509 469
f 469 509 507
f 479 482 499
f 499 482 510
f 492 495 485
f 485 495 511
f 483 469 484
f 484 469 472
f 473 512 474
f 474 512 513
f 497 498 471
f 471 498 472
f 475 480 476
f 476 480 479
f 470 508 514
f 514 508 515
f 506 502 516
f 516 502 501
f 503 502 488
f 488 502 505
f 514 515 503
f 503 515 504
f 485 488 492
f 492 488 505
f 477 506 517
f 517 506 516
f 474 513 483
f 483 513 509
f 510 292 494
f 494 292 164
f 512 473 517
f 517 473 477
f 491 481 496
f 496 481 480
f 502 506 505
f 505 506 500
f 503 488 514
f 514 488 487
f 514 487 470
f 470 487 471
f 517 516 519
f 519 516 518
f 517 519 512
f 512 519 520
f 512 520 513
f 513 520 521
f 513 521 509
f 509 521 522
f 516 501 518
f 518 501 523
f 501 504 523
f 523 504 524
f 524 504 525
f 525 504 515
f 526 527 523
f 523 527 518
f 529 530 528
f 528 530 531
f 532 533 529
f 529 533 530
f 530 533 535
f 535 533 534
f 536 537 535
f 535 537 538
f 534 539 535
f 535 539 536
f 538 531 535
f 535 531 530
f 540 541 531
f 531 541 528
f 533 532 534
f 534 532 542
f 532 520 542
f 542 520 519
f 532 543 520
f 520 543 521
f 529 544 532
f 532 544 543
f 544 529 545
f 545 529 528
f 534 542 539
f 539 542 527
f 527 542 518
f 518 542 519
f 541 546 528
f 528 546 545
f 547 544 548
f 548 544 545
f 546 549 545
f 545 549 548
f 550 547 551
f 551 547 548
f 547 550 553
f 553 550 552
f 549 554 548
f 548 554 551
f 544 547 543
f 543 547 553
f 543 553 521
f 521 553 522
f 546 541 556
f 556 541 555
f 541 540 555
f 555 540 557
f 536 539 558
f 558 539 527
f 537 536 559
f 559 536 558
f 527 526 558
f 558 526 560
f 559 558 561
f 561 558 560
f 559 562 537
f 537 562 563
f 557 563 555
f 555 563 562
f 509 522 507
f 507 522 564
f 508 565 515
f 515 565 525
f 565 508 564
f 564 508 507
f 564 552 565
f 565 552 566
f 552 550 566
f 566 550 567
f 565 566 525
f 525 566 568
f 564 522 552
f 552 522 553
f 569 524 568
f 568 524 525
f 569 526 524
f 524 526 523
f 570 560 569
f 569 560 526
f 570 569 571
f 571 569 568
f 572 570 573
f 573 570 571
f 566 567 568
f 568 567 571
f 567 574 571
f 571 574 573
f 570 572 560
f 560 572 561
f 576 561 575
f 575 561 572
f 575 578 577
f 577 578 579
f 575 572 578
f 578 572 573
f 575 577 576
f 576 577 556
f 576 556 562
f 562 556 555
f 562 559 576
f 576 559 561
f 550 551 567
f 567 551 574
f 579 574 554
f 554 574 551
f 579 578 574
f 574 578 573
f 579 554 577
f 577 554 549
f 549 546 577
f 577 546 556
f 531 538 540
f 540 538 557
f 557 538 563
f 563 538 537
f 481 294 482
f 482 294 293
f 580 486 511
f 511 486 485
f 490 489 497
f 497 489 498
f 489 491 498
f 498 491 496
f 163 495 164
f 164 495 494
f 580 490 486
f 486 490 497
f 482 293 510
f 510 293 292
f 495 163 511
f 511 163 199
f 494 493 510
f 510 493 499
f 481 491 294
f 294 491 248
f 582 583 581
f 581 583 584
f 586 587 585
f 585 587 588
f 585 588 589
f 589 588 590
f 592 593 591
f 591 593 594
f 595 596 598
f 598 596 597
f 599 600 586
f 586 600 587
f 601 602 604
f 604 602 603
f 605 606 608
f 608 606 607
f 609 607 200
f 200 607 606
f 610 611 613
f 613 611 612
f 600 614 587
f 587 614 592
f 596 605 597
f 597 605 608
f 602 615 603
f 603 615 583
f 616 614 584
f 584 614 600
f 611 618 617
f 617 618 590
f 620 621 619
f 619 621 622
f 610 623 611
f 611 623 618
f 624 589 618
f 618 589 590
f 617 590 591
f 591 590 588
f 581 625 582
f 582 625 626
f 599 627 581
f 581 627 625
f 591 594 617
f 617 594 628
f 601 610 598
f 598 610 613
f 581 584 599
f 599 584 600
f 585 629 586
f 586 629 630
f 615 616 583
f 583 616 584
f 587 592 588
f 588 592 591
f 582 626 631
f 631 626 632
f 624 620 633
f 633 620 619
f 621 620 604
f 604 620 623
f 631 632 621
f 621 632 622
f 610 601 623
f 623 601 604
f 589 624 634
f 634 624 633
f 586 630 599
f 599 630 627
f 203 202 628
f 628 202 612
f 629 585 634
f 634 585 589
f 609 593 614
f 614 593 592
f 620 624 623
f 623 624 618
f 631 621 603
f 603 621 604
f 582 631 583
f 583 631 603
f 634 633 636
f 636 633 635
f 634 636 629
f 629 636 637
f 629 637 630
f 630 637 638
f 630 638 627
f 627 638 639
f 633 619 635
f 635 619 640
f 619 622 640
f 640 622 641
f 641 622 642
f 642 622 632
f 644 635 643
f 643 635 640
f 645 646 648
f 648 646 647
f 649 650 646
f 646 650 647
f 647 650 652
f 652 650 651
f 652 653 655
f 655 653 654
f 651 656 652
f 652 656 653
f 655 648 652
f 652 648 647
f 648 657 645
f 645 657 658
f 650 649 651
f 651 649 659
f 649 637 659
f 659 637 636
f 649 660 637
f 637 660 638
f 661 660 646
f 646 660 649
f 662 661 645
f 645 661 646
f 651 659 656
f 656 659 644
f 644 659 635
f 635 659 636
f 663 662 658
f 658 662 645
f 664 661 665
f 665 661 662
f 663 666 662
f 662 666 665
f 667 664 668
f 668 664 665
f 664 667 670
f 670 667 669
f 666 671 665
f 665 671 668
f 661 664 660
f 660 664 670
f 660 670 638
f 638 670 639
f 658 672 663
f 663 672 673
f 658 657 672
f 672 657 674
f 653 656 675
f 675 656 644
f 653 675 654
f 654 675 676
f 675 644 677
f 677 644 643
f 676 675 678
f 678 675 677
f 679 680 676
f 676 680 654
f 674 680 672
f 672 680 679
f 627 639 625
f 625 639 681
f 626 682 632
f 632 682 642
f 681 682 625
f 625 682 626
f 669 683 681
f 681 683 682
f 667 684 669
f 669 684 683
f 682 683 642
f 642 683 685
f 681 639 669
f 669 639 670
f 686 641 685
f 685 641 642
f 641 686 640
f 640 686 643
f 686 687 643
f 643 687 677
f 687 686 688
f 688 686 685
f 689 687 690
f 690 687 688
f 683 684 685
f 685 684 688
f 684 691 688
f 688 691 690
f 687 689 677
f 677 689 678
f 693 678 692
f 692 678 689
f 692 695 694
f 694 695 696
f 692 689 695
f 695 689 690
f 692 694 693
f 693 694 673
f 693 673 679
f 679 673 672
f 679 676 693
f 693 676 678
f 684 667 691
f 691 667 668
f 696 691 671
f 671 691 668
f 696 695 691
f 691 695 690
f 694 696 666
f 666 696 671
f 666 663 694
f 694 663 673
f 648 655 657
f 657 655 674
f 674 655 680
f 680 655 654
f 593 162 594
f 594 162 290
f 598 597 601
f 601 597 602
f 615 608 616
f 616 608 607
f 607 609 616
f 616 609 614
f 697 595 613
f 613 595 598
f 597 608 602
f 602 608 615
f 594 290 628
f 628 290 203
f 628 612 617
f 617 612 611
f 593 609 162
f 162 609 200
f 105 29 698
f 698 29 699
f 268 126 701
f 701 126 700
f 126 125 700
f 700 125 702
f 252 703 250
f 250 703 704
f 32 268 705
f 705 268 701
f 288 105 706
f 706 105 698
f 29 32 699
f 699 32 705
f 707 251 706
f 706 251 288
f 250 704 125
f 125 704 702
f 703 252 707
f 707 252 251
f 706 708 707
f 707 708 709
f 707 709 703
f 703 709 710
f 703 710 704
f 704 710 711
f 704 711 702
f 702 711 712
f 706 698 708
f 708 698 713
f 698 699 713
f 713 699 714
f 699 705 714
f 714 705 715
f 717 708 716
f 716 708 713
f 719 720 718
f 718 720 721
f 722 723 719
f 719 723 720
f 724 725 723
f 723 725 720
f 724 726 725
f 725 726 727
f 728 721 725
f 725 721 720
f 721 728 729
f 729 728 730
f 729 731 721
f 721 731 718
f 724 723 732
f 732 723 722
f 722 710 732
f 732 710 709
f 722 733 710
f 710 733 711
f 719 734 722
f 722 734 733
f 734 719 735
f 735 719 718
f 724 732 726
f 726 732 717
f 717 732 708
f 708 732 709
f 731 736 718
f 718 736 735
f 737 734 738
f 738 734 735
f 736 739 735
f 735 739 738
f 740 737 741
f 741 737 738
f 737 740 743
f 743 740 742
f 739 744 738
f 738 744 741
f 734 737 733
f 733 737 743
f 733 743 711
f 711 743 712
f 736 731 746
f 746 731 745
f 731 729 745
f 745 729 730
f 727 726 747
f 747 726 717
f 748 727 749
f 749 727 747
f 747 717 750
f 750 717 716
f 749 747 751
f 751 747 750
f 749 752 748
f 748 752 753
f 730 753 745
f 745 753 752
f 728 725 748
f 748 725 727
f 730 728 753
f 753 728 748
f 700 702 754
f 754 702 712
f 705 701 715
f 715 701 755
f 754 755 700
f 700 755 701
f 742 756 754
f 754 756 755
f 740 757 742
f 742 757 756
f 755 756 715
f 715 756 758
f 754 712 742
f 742 712 743
f 759 714 758
f 758 714 715
f 714 759 713
f 713 759 716
f 759 760 716
f 716 760 750
f 760 759 761
f 761 759 758
f 762 760 763
f 763 760 761
f 756 757 758
f 758 757 761
f 757 764 761
f 761 764 763
f 760 762 750
f 750 762 751
f 766 751 765
f 765 751 762
f 767 765 769
f 769 765 768
f 765 762 768
f 768 762 763
f 765 767 766
f 766 767 746
f 766 746 752
f 752 746 745
f 752 749 766
f 766 749 751
f 757 740 764
f 764 740 741
f 769 764 744
f 744 764 741
f 769 768 764
f 764 768 763
f 767 769 739
f 739 769 744
f 739 736 767
f 767 736 746
f 219 217 208
f 208 217 209
f 209 217 210
f 210 217 193
f 198 580 199
f 199 580 511
f 76 75 289
f 289 75 272
f 277 207 291
f 291 207 184
f 290 183 203
f 203 183 84
f 490 580 142
f 142 580 198
f 142 198 143
f 143 198 197
f 149 276 72
f 72 276 73
f 104 103 279
f 279 103 770
f 770 596 279
f 279 596 595
f 605 596 771
f 771 596 770
f 771 770 772
f 772 770 103
f 772 103 773
f 773 103 102
f 155 774 101
f 101 774 102
f 773 102 97
f 97 102 774
f 775 773 100
f 100 773 97
f 773 775 772
f 772 775 776
f 772 776 771
f 771 776 777
f 200 606 197
f 197 606 777
f 189 71 778
f 778 71 74
f 97 774 98
f 98 774 155
f 183 161 184
f 184 161 291
f 777 276 197
f 197 276 143
f 777 606 771
f 771 606 605
f 613 612 697
f 697 612 202
f 595 697 279
f 279 697 202
f 73 276 776
f 776 276 777
f 776 775 73
f 73 775 74
f 100 778 775
f 775 778 74
f 778 100 189
f 189 100 99
f 245 242 99
f 99 242 189
f 131 33 256
f 28 1 95
f 95 1 62
f 27 2 28
f 28 2 1
f 265 115 266
f 266 115 114
f 95 62 69
f 69 62 64
f 62 61 64
f 64 61 65
f 61 13 65
f 65 13 130
f 13 12 130
f 130 12 14
f 31 11 32
f 32 11 268
f 15 12 31
f 31 12 11
f 31 30 15
f 15 30 231
f 30 106 231
f 231 106 232
f 287 237 106
f 106 237 232
f 254 90 287
f 287 90 237
f 253 44 254
f 254 44 90
f 253 249 44
f 44 249 7
f 267 127 268
f 268 127 126
f 10 3 241
f 241 3 116
f 3 2 116
f 116 2 114
f 2 27 114
f 114 27 266
f 27 26 266
f 266 26 113
f 26 286 113
f 113 286 110
f 286 243 110
f 110 243 255
f 243 242 255
f 255 242 256
f 242 245 256
f 256 245 131
f 245 244 131
f 131 244 132
f 265 37 115
f 115 37 41
f 41 37 42
f 42 37 40
f 92 91 40
f 40 91 42
f 236 233 92
f 92 233 91
f 191 194 236
f 236 194 233
f 258 285 244
f 244 285 132
f 257 55 258
f 258 55 285
f 257 154 201
f 201 154 185
f 56 201 204
f 204 201 180
f 55 257 56
f 56 257 201
f 204 85 56
f 56 85 52
f 86 122 53
f 53 122 79
f 212 215 86
f 86 215 122
f 211 216 212
f 212 216 215
f 192 280 211
f 211 280 216
f 191 240 192
f 192 240 280
f 249 124 7
f 7 124 8
f 124 127 8
f 8 127 241
f 127 267 241
f 241 267 10
f 10 267 9
f 9 267 11
o hand_right
v 0.450144 0.277469 0.786551
v 0.454575 0.286581 0.789924
v 0.445876 0.280845 0.790497
v 0.441727 0.273847 0.787830
v 0.448489 0.292778 0.806208
v 0.440854 0.302447 0.810191
v 0.429608 0.288297 0.807482
v 0.438859 0.282808 0.805224
v 0.434767 0.271635 0.786094
v 0.439235 0.276495 0.790866
v 0.432352 0.274369 0.781573
v 0.426393 0.268918 0.773468
v 0.430162 0.266276 0.780279
v 0.424159 0.262130 0.768987
v 0.427036 0.277552 0.766574
v 0.426991 0.263304 0.760085
v 0.450863 0.278259 0.754090
v 0.464212 0.277231 0.752816
v 0.460478 0.260662 0.749507
v 0.447193 0.262893 0.752035
v 0.480761 0.264279 0.753644
v 0.469505 0.261467 0.751096
v 0.473179 0.278135 0.753054
v 0.483081 0.279743 0.755316
v 0.465322 0.281065 0.785118
v 0.469846 0.290798 0.788471
v 0.464351 0.290333 0.788349
v 0.459928 0.280901 0.785430
v 0.426843 0.277175 0.781098
v 0.424333 0.286337 0.777502
v 0.427881 0.279790 0.777015
v 0.430763 0.274717 0.783558
v 0.487038 0.310282 0.800074
v 0.488584 0.323319 0.796909
v 0.482848 0.324604 0.797009
v 0.482735 0.312414 0.799529
v 0.459396 0.320847 0.805197
v 0.465160 0.329462 0.798548
v 0.457371 0.338873 0.791396
v 0.450349 0.330821 0.794441
v 0.450274 0.311123 0.809560
v 0.442188 0.321123 0.802628
v 0.432423 0.309598 0.805424
v 0.421553 0.292461 0.803874
v 0.500893 0.321105 0.793944
v 0.501602 0.311249 0.796369
v 0.424182 0.216045 0.787671
v 0.430031 0.216235 0.788815
v 0.429848 0.219786 0.786948
v 0.424093 0.219027 0.785879
v 0.509974 0.314104 0.777273
v 0.508221 0.315280 0.767376
v 0.510856 0.321613 0.769853
v 0.510758 0.321339 0.779279
v 0.508808 0.304524 0.774714
v 0.504094 0.306457 0.764595
v 0.421824 0.207072 0.778827
v 0.419838 0.210142 0.782505
v 0.419534 0.213164 0.778468
v 0.422035 0.210542 0.774326
v 0.436897 0.266328 0.784586
v 0.446110 0.268222 0.785194
v 0.432952 0.250125 0.780417
v 0.439116 0.256723 0.781282
v 0.432328 0.259370 0.780730
v 0.427904 0.253466 0.778807
v 0.462699 0.258973 0.779307
v 0.465424 0.270121 0.781662
v 0.458894 0.269254 0.781731
v 0.454276 0.257144 0.780133
v 0.479444 0.269311 0.783741
v 0.475608 0.258484 0.780810
v 0.484013 0.259265 0.782340
v 0.485272 0.266652 0.785116
v 0.465989 0.241213 0.775056
v 0.463575 0.235442 0.773057
v 0.466730 0.234118 0.773426
v 0.469682 0.241333 0.775207
v 0.512976 0.328228 0.771260
v 0.510611 0.328447 0.780814
v 0.501073 0.266051 0.760937
v 0.507919 0.268945 0.769274
v 0.507984 0.255751 0.767824
v 0.500644 0.256154 0.758895
v 0.500899 0.316074 0.760013
v 0.505557 0.322269 0.761288
v 0.427164 0.204893 0.776398
v 0.427586 0.208316 0.772298
v 0.430589 0.315831 0.794013
v 0.418166 0.296493 0.796038
v 0.441979 0.327278 0.788635
v 0.449788 0.334379 0.783015
v 0.454413 0.341821 0.779933
v 0.443755 0.252061 0.780331
v 0.454370 0.272381 0.784069
v 0.470360 0.280948 0.785329
v 0.500027 0.274323 0.790596
v 0.501952 0.284385 0.793320
v 0.491525 0.282009 0.793386
v 0.492008 0.273790 0.790352
v 0.509386 0.267273 0.778922
v 0.504484 0.264976 0.784864
v 0.503339 0.256236 0.782412
v 0.508408 0.256620 0.776720
v 0.419961 0.279160 0.781576
v 0.420736 0.292195 0.779437
v 0.507992 0.313428 0.787665
v 0.506563 0.321028 0.788542
v 0.506883 0.329445 0.787571
v 0.477362 0.300780 0.795476
v 0.479690 0.313877 0.799504
v 0.475144 0.313763 0.800853
v 0.474371 0.301150 0.794870
v 0.459013 0.293224 0.797224
v 0.460038 0.303313 0.805874
v 0.450173 0.284460 0.797172
v 0.475437 0.327975 0.797671
v 0.484193 0.334812 0.796985
v 0.475727 0.337474 0.796407
v 0.493634 0.332760 0.795291
v 0.501803 0.330783 0.792283
v 0.509586 0.329624 0.759855
v 0.467815 0.339185 0.794187
v 0.432373 0.277343 0.803710
v 0.429715 0.272310 0.801970
v 0.435147 0.272227 0.796704
v 0.437131 0.276275 0.797005
v 0.422580 0.252897 0.766044
v 0.423608 0.253260 0.774087
v 0.426230 0.261954 0.776528
v 0.489828 0.299147 0.798426
v 0.502105 0.300450 0.795643
v 0.437562 0.245667 0.779366
v 0.422616 0.215545 0.770975
v 0.419665 0.218215 0.775492
v 0.420784 0.236923 0.769679
v 0.423677 0.233648 0.764233
v 0.440141 0.237201 0.774070
v 0.436959 0.241627 0.778826
v 0.437352 0.239216 0.778266
v 0.441467 0.234644 0.775780
v 0.475706 0.236514 0.774911
v 0.478109 0.242979 0.776674
v 0.444768 0.246948 0.753670
v 0.432553 0.252227 0.752021
v 0.435525 0.265089 0.753851
v 0.470137 0.259550 0.779907
v 0.468481 0.249432 0.777804
v 0.472650 0.249324 0.777965
v 0.445961 0.248064 0.778760
v 0.442344 0.242300 0.777139
v 0.447468 0.243153 0.775997
v 0.451418 0.248818 0.778105
v 0.508900 0.282107 0.770236
v 0.510983 0.279983 0.781511
v 0.420634 0.213609 0.785540
v 0.420290 0.216601 0.782706
v 0.472650 0.270475 0.782217
v 0.440243 0.279171 0.757584
v 0.475817 0.280801 0.785956
v 0.486218 0.243421 0.758608
v 0.488689 0.240537 0.765476
v 0.485793 0.234989 0.766378
v 0.484025 0.234808 0.760530
v 0.440168 0.219991 0.779734
v 0.436938 0.221969 0.784158
v 0.435829 0.218401 0.785453
v 0.439181 0.215561 0.781497
v 0.431949 0.244494 0.780033
v 0.426293 0.246880 0.778705
v 0.426491 0.240945 0.779642
v 0.432433 0.239887 0.779822
v 0.422318 0.245961 0.773781
v 0.422005 0.239839 0.775205
v 0.439743 0.216917 0.773923
v 0.434650 0.214041 0.769065
v 0.437107 0.230283 0.762657
v 0.441289 0.230132 0.769598
v 0.485404 0.294702 0.755609
v 0.496005 0.294229 0.759032
v 0.494019 0.279309 0.758699
v 0.492754 0.264666 0.757295
v 0.490464 0.251015 0.756933
v 0.479573 0.251317 0.751301
v 0.501470 0.280386 0.761936
v 0.443338 0.237830 0.764486
v 0.438780 0.240613 0.758263
v 0.443808 0.240373 0.758205
v 0.482816 0.279507 0.788219
v 0.420268 0.221215 0.780239
v 0.460898 0.331121 0.761411
v 0.472728 0.327838 0.755821
v 0.468442 0.320226 0.756371
v 0.455340 0.323851 0.763619
v 0.430557 0.223539 0.786162
v 0.424138 0.223537 0.784910
v 0.484451 0.241233 0.777163
v 0.481404 0.235658 0.774950
v 0.484045 0.233907 0.772838
v 0.488698 0.237719 0.776540
v 0.501225 0.295334 0.761706
v 0.507157 0.246917 0.769171
v 0.501002 0.247894 0.760499
v 0.497335 0.307277 0.759197
v 0.488249 0.307879 0.755616
v 0.490894 0.317267 0.755670
v 0.465562 0.244903 0.751703
v 0.477045 0.293005 0.753909
v 0.480668 0.307055 0.754688
v 0.483486 0.318251 0.754718
v 0.486211 0.326137 0.754139
v 0.494050 0.324243 0.755416
v 0.428564 0.213682 0.769028
v 0.434452 0.208186 0.772640
v 0.498070 0.332176 0.753555
v 0.488982 0.333980 0.752854
v 0.471433 0.306988 0.754684
v 0.460346 0.307468 0.756433
v 0.468315 0.293361 0.754117
v 0.457000 0.292544 0.755353
v 0.456461 0.248350 0.746756
v 0.437507 0.199329 0.787510
v 0.438368 0.207067 0.779961
v 0.438926 0.211370 0.783910
v 0.439335 0.202272 0.790057
v 0.438987 0.211868 0.776738
v 0.434051 0.204849 0.776788
v 0.443797 0.294377 0.760992
v 0.444809 0.237837 0.773555
v 0.445660 0.310996 0.766310
v 0.429243 0.291187 0.767371
v 0.430158 0.302614 0.773897
v 0.445966 0.326827 0.773706
v 0.433635 0.316796 0.780324
v 0.457087 0.340437 0.768972
v 0.452608 0.332996 0.770285
v 0.422197 0.304275 0.785110
v 0.427519 0.209393 0.795149
v 0.433332 0.209606 0.794905
v 0.464405 0.338536 0.760216
v 0.442524 0.279143 0.796620
v 0.483249 0.289597 0.792482
v 0.478011 0.290177 0.790480
v 0.502312 0.290687 0.794461
v 0.490639 0.289620 0.795536
v 0.423026 0.207033 0.793276
v 0.463613 0.231694 0.769516
v 0.464759 0.232913 0.768930
v 0.424827 0.279670 0.805597
v 0.422663 0.274658 0.803159
v 0.414781 0.276593 0.792517
v 0.416774 0.275133 0.799495
v 0.417828 0.282803 0.801856
v 0.414944 0.284952 0.795019
v 0.479803 0.300005 0.796046
v 0.483513 0.298963 0.796731
v 0.509192 0.293966 0.772760
v 0.510743 0.291186 0.783884
v 0.422054 0.244614 0.767363
v 0.425503 0.250998 0.758733
v 0.425192 0.242406 0.761510
v 0.429943 0.232962 0.760750
v 0.443483 0.235514 0.769874
v 0.441283 0.236433 0.767744
v 0.468354 0.309109 0.803664
v 0.467970 0.299137 0.795719
v 0.435854 0.275391 0.790063
v 0.435205 0.272942 0.789402
v 0.459357 0.250651 0.777844
v 0.461210 0.234783 0.755903
v 0.453626 0.237829 0.751907
v 0.456304 0.242638 0.775182
v 0.423007 0.200146 0.788375
v 0.421766 0.203960 0.791335
v 0.430963 0.241821 0.757279
v 0.480887 0.249603 0.779987
v 0.467303 0.238558 0.756532
v 0.464028 0.231544 0.762176
v 0.507249 0.250431 0.776824
v 0.475936 0.336132 0.755471
v 0.436261 0.214569 0.787818
v 0.437871 0.207938 0.793211
v 0.433999 0.197944 0.785373
v 0.427867 0.198177 0.784924
v 0.508755 0.301601 0.786519
v 0.474453 0.290212 0.789197
v 0.416642 0.290285 0.786217
v 0.416408 0.279028 0.785571
v 0.454442 0.238263 0.773483
v 0.493088 0.244714 0.761069
v 0.478421 0.241837 0.753354
v 0.476880 0.232677 0.755537
v 0.469706 0.230887 0.757492
v 0.465368 0.229721 0.763407
v 0.434386 0.194924 0.790258
v 0.428415 0.195208 0.789710
v 0.423471 0.197521 0.792836
v 0.422291 0.201245 0.795156
v 0.424032 0.205084 0.796365
v 0.438047 0.196232 0.792586
v 0.439457 0.199150 0.794859
v 0.438320 0.205324 0.795942
v 0.438497 0.194894 0.797593
v 0.434508 0.191301 0.798405
v 0.423840 0.194866 0.806903
v 0.424009 0.194320 0.800957
v 0.425414 0.192630 0.802693
v 0.425754 0.192317 0.807724
v 0.427031 0.190819 0.812575
v 0.424797 0.193585 0.812410
v 0.428793 0.191557 0.799561
v 0.429850 0.190655 0.806272
v 0.434081 0.190556 0.805826
v 0.434403 0.189142 0.811256
v 0.430653 0.188962 0.811767
v 0.433038 0.190821 0.801222
v 0.428571 0.191781 0.797022
v 0.427327 0.191987 0.816018
v 0.428173 0.189773 0.815102
v 0.431318 0.188678 0.814831
v 0.431792 0.190088 0.817540
v 0.422618 0.199950 0.799630
v 0.423491 0.197431 0.807549
v 0.425969 0.196503 0.813074
v 0.428417 0.194581 0.816549
v 0.426123 0.200239 0.809176
v 0.428110 0.198560 0.813259
v 0.430649 0.197031 0.816070
v 0.430003 0.201960 0.810054
v 0.431118 0.199736 0.813382
v 0.428222 0.206044 0.799637
v 0.424335 0.204390 0.798788
v 0.432028 0.198646 0.815599
v 0.432927 0.191954 0.818101
v 0.437151 0.191982 0.804219
v 0.436945 0.191131 0.811332
v 0.438749 0.193838 0.804527
v 0.438795 0.192650 0.811466
v 0.436257 0.189682 0.815556
v 0.434220 0.188855 0.814200
v 0.428448 0.207776 0.796746
v 0.434536 0.207711 0.796571
v 0.434524 0.206182 0.799156
v 0.434864 0.202148 0.809569
v 0.438321 0.203836 0.799048
v 0.439727 0.198097 0.799564
v 0.439576 0.196208 0.806310
v 0.438870 0.199290 0.807848
v 0.439027 0.195247 0.811683
v 0.437890 0.197522 0.812102
v 0.434836 0.199686 0.813279
v 0.437358 0.194700 0.815437
v 0.437191 0.191729 0.815710
v 0.433968 0.195091 0.817169
v 0.437149 0.196536 0.814739
v 0.434291 0.197229 0.815567
v 0.447583 0.208131 0.784683
v 0.453978 0.207842 0.785392
v 0.453113 0.210329 0.781543
v 0.447704 0.210357 0.781146
v 0.443631 0.198430 0.775108
v 0.442393 0.202764 0.779562
v 0.441995 0.205075 0.774738
v 0.444710 0.201148 0.769803
v 0.449666 0.195871 0.772266
v 0.450870 0.199532 0.767312
v 0.444724 0.206050 0.766075
v 0.442224 0.209886 0.771637
v 0.443771 0.230007 0.765007
v 0.445931 0.227486 0.758901
v 0.459520 0.231102 0.773503
v 0.461547 0.228938 0.770957
v 0.444388 0.206261 0.782879
v 0.443991 0.208393 0.778733
v 0.461408 0.211478 0.777429
v 0.457575 0.213696 0.780674
v 0.457954 0.209535 0.781553
v 0.461257 0.206297 0.778468
v 0.447209 0.232890 0.772290
v 0.453573 0.232579 0.773019
v 0.444747 0.231631 0.769505
v 0.462505 0.207878 0.771858
v 0.459663 0.204951 0.766289
v 0.460144 0.224026 0.758010
v 0.463271 0.224688 0.763671
v 0.443206 0.212522 0.776399
v 0.451929 0.214270 0.781550
v 0.446814 0.214356 0.780342
v 0.451823 0.205150 0.763880
v 0.458555 0.199282 0.770021
v 0.459403 0.191330 0.788574
v 0.461054 0.198396 0.778806
v 0.461187 0.202320 0.782313
v 0.460720 0.194794 0.792168
v 0.461715 0.202256 0.774405
v 0.457228 0.195906 0.774905
v 0.449044 0.200708 0.797137
v 0.455350 0.200338 0.797421
v 0.445150 0.198845 0.795557
v 0.452529 0.225632 0.755813
v 0.443871 0.192363 0.787372
v 0.443197 0.196556 0.792468
v 0.458941 0.206256 0.784739
v 0.459462 0.198053 0.795725
v 0.456177 0.189303 0.785918
v 0.449224 0.189895 0.783670
v 0.455431 0.186473 0.790961
v 0.448994 0.186823 0.789990
v 0.443595 0.189838 0.793442
v 0.443451 0.194572 0.797105
v 0.445607 0.197390 0.798874
v 0.458866 0.188424 0.793311
v 0.460455 0.192056 0.796321
v 0.458864 0.196748 0.798134
v 0.459482 0.187108 0.800109
v 0.456092 0.184058 0.799433
v 0.446027 0.187030 0.815026
v 0.445066 0.187659 0.809063
v 0.446576 0.185480 0.808806
v 0.447471 0.184707 0.814235
v 0.444602 0.186495 0.802721
v 0.446427 0.185120 0.804063
v 0.450218 0.183700 0.801686
v 0.450957 0.183603 0.807906
v 0.455710 0.183727 0.806689
v 0.456374 0.182310 0.812259
v 0.451713 0.181934 0.813650
v 0.454070 0.183439 0.802494
v 0.448926 0.183803 0.817457
v 0.449164 0.185450 0.819494
v 0.449389 0.183610 0.798389
v 0.443494 0.192407 0.801188
v 0.445022 0.190611 0.810072
v 0.447044 0.189855 0.816389
v 0.451200 0.187561 0.820431
v 0.447614 0.193696 0.811480
v 0.449509 0.191903 0.816999
v 0.453024 0.189552 0.819822
v 0.451809 0.195932 0.812109
v 0.453514 0.193370 0.817102
v 0.449988 0.198840 0.801874
v 0.445731 0.196697 0.801799
v 0.454230 0.191363 0.818721
v 0.453179 0.182645 0.819664
v 0.454821 0.185397 0.820793
v 0.452508 0.182043 0.817974
v 0.457741 0.184334 0.806369
v 0.458184 0.183527 0.812839
v 0.459903 0.186118 0.806999
v 0.459846 0.184958 0.813954
v 0.457430 0.182569 0.817443
v 0.455996 0.181770 0.816853
v 0.449574 0.199170 0.799358
v 0.455214 0.198942 0.799008
v 0.455620 0.198758 0.801052
v 0.457024 0.195293 0.811112
v 0.459484 0.195998 0.800056
v 0.460719 0.190602 0.800631
v 0.461014 0.188723 0.807478
v 0.460394 0.192241 0.809418
v 0.461162 0.186722 0.814196
v 0.460591 0.189963 0.813765
v 0.457423 0.193005 0.815846
v 0.459593 0.185908 0.818509
v 0.458498 0.183785 0.818233
v 0.455771 0.187416 0.820335
v 0.459734 0.188689 0.817354
v 0.456704 0.190175 0.818870
v 0.467718 0.210820 0.781340
v 0.473473 0.211063 0.782395
v 0.473683 0.213686 0.779943
v 0.468131 0.212886 0.778615
v 0.465466 0.202549 0.771818
v 0.463576 0.205296 0.775435
v 0.463931 0.208023 0.771896
v 0.466060 0.206238 0.767264
v 0.470265 0.199522 0.771277
v 0.471342 0.204553 0.764989
v 0.466654 0.210680 0.763772
v 0.464314 0.211339 0.769357
v 0.465411 0.225639 0.764662
v 0.468522 0.224203 0.758949
v 0.464806 0.208475 0.778758
v 0.465103 0.210596 0.775992
v 0.481677 0.214228 0.777069
v 0.477931 0.215913 0.779674
v 0.478760 0.212169 0.779195
v 0.481404 0.209453 0.776670
v 0.468413 0.230896 0.773552
v 0.474466 0.232142 0.773872
v 0.465767 0.227787 0.770316
v 0.482880 0.211275 0.771177
v 0.480061 0.209737 0.764568
v 0.482434 0.224696 0.761364
v 0.483944 0.226941 0.766883
v 0.464796 0.213116 0.774236
v 0.472771 0.216910 0.780183
v 0.467451 0.215598 0.778457
v 0.472811 0.210292 0.762228
v 0.478187 0.203871 0.767349
v 0.477602 0.191584 0.787005
v 0.480873 0.202401 0.775118
v 0.480864 0.206483 0.779467
v 0.478881 0.194678 0.789951
v 0.481813 0.205682 0.772377
v 0.476924 0.199815 0.771781
v 0.467102 0.201382 0.793529
v 0.472690 0.201264 0.793683
v 0.464143 0.199986 0.790542
v 0.475398 0.223835 0.756964
v 0.481711 0.230264 0.772198
v 0.463454 0.194062 0.785938
v 0.462867 0.197553 0.788501
v 0.478466 0.209394 0.781485
v 0.477466 0.198414 0.792487
v 0.473956 0.190227 0.784013
v 0.467863 0.191298 0.782792
v 0.474023 0.187222 0.789023
v 0.467882 0.188198 0.788275
v 0.463395 0.190839 0.791101
v 0.463052 0.194781 0.793292
v 0.464420 0.197533 0.794924
v 0.477698 0.189074 0.791697
v 0.478651 0.192250 0.793907
v 0.476934 0.197222 0.793971
v 0.478150 0.187930 0.795921
v 0.473914 0.184394 0.795686
v 0.465292 0.185818 0.810252
v 0.464606 0.187583 0.804737
v 0.465387 0.186647 0.804468
v 0.466017 0.184323 0.809751
v 0.464290 0.187539 0.797926
v 0.465246 0.186521 0.799377
v 0.468303 0.184799 0.797424
v 0.469272 0.183133 0.803611
v 0.475155 0.184054 0.802594
v 0.474921 0.182649 0.807513
v 0.469625 0.181313 0.808726
v 0.472837 0.184288 0.797590
v 0.467285 0.182932 0.812381
v 0.465978 0.183462 0.813729
v 0.468116 0.185048 0.794910
v 0.462793 0.192247 0.798398
v 0.463886 0.190274 0.805711
v 0.464487 0.188707 0.811449
v 0.466877 0.186904 0.814754
v 0.465885 0.193411 0.806644
v 0.466493 0.191197 0.811586
v 0.468538 0.189481 0.814580
v 0.468712 0.195104 0.806993
v 0.469329 0.192812 0.811277
v 0.467766 0.198575 0.797949
v 0.464515 0.196011 0.798355
v 0.470144 0.190873 0.813635
v 0.470358 0.181462 0.813980
v 0.472145 0.184961 0.815571
v 0.470127 0.181563 0.812261
v 0.476782 0.184728 0.801950
v 0.477079 0.183172 0.808353
v 0.478562 0.186931 0.802359
v 0.478694 0.185366 0.808741
v 0.475165 0.181815 0.811905
v 0.474204 0.181635 0.811185
v 0.467763 0.199664 0.795351
v 0.472853 0.199735 0.795077
v 0.472636 0.198898 0.797375
v 0.473432 0.195315 0.806980
v 0.476793 0.196645 0.796316
v 0.478836 0.191137 0.797852
v 0.478664 0.189949 0.803739
v 0.477198 0.192861 0.805720
v 0.478676 0.188129 0.809312
v 0.477216 0.190606 0.809244
v 0.473468 0.193180 0.811168
v 0.476491 0.187054 0.812644
v 0.476538 0.184089 0.812668
v 0.472773 0.188047 0.815152
v 0.476035 0.189485 0.812273
v 0.473141 0.190277 0.814030
v 0.478928 0.231857 0.773772
v 0.488304 0.220619 0.785588
v 0.492039 0.220881 0.787627
v 0.493039 0.221651 0.786410
v 0.489298 0.222482 0.784149
v 0.488807 0.214303 0.776026
v 0.486273 0.216569 0.779439
v 0.487242 0.219108 0.775957
v 0.490017 0.217338 0.772461
v 0.493922 0.212796 0.775175
v 0.495622 0.215734 0.772301
v 0.490960 0.220460 0.770925
v 0.488024 0.222167 0.774375
v 0.489493 0.236474 0.768261
v 0.493459 0.237056 0.764344
v 0.505548 0.244277 0.777795
v 0.501433 0.245998 0.781159
v 0.500985 0.237207 0.782110
v 0.504871 0.236685 0.779229
v 0.486452 0.218878 0.782672
v 0.486970 0.221401 0.780489
v 0.502771 0.221332 0.783890
v 0.498774 0.222958 0.786265
v 0.497132 0.220830 0.787357
v 0.501264 0.218432 0.786505
v 0.496134 0.244410 0.781387
v 0.492116 0.242434 0.779355
v 0.491714 0.238458 0.780230
v 0.496048 0.236734 0.782246
v 0.488614 0.236462 0.775639
v 0.504060 0.219737 0.779938
v 0.502373 0.218414 0.774153
v 0.506715 0.236657 0.769372
v 0.506990 0.237229 0.774361
v 0.487673 0.222748 0.778881
v 0.494091 0.223958 0.785760
v 0.490346 0.223359 0.783567
v 0.496798 0.219400 0.770079
v 0.500720 0.214786 0.776862
v 0.499057 0.209225 0.789742
v 0.501680 0.214021 0.784366
v 0.500319 0.217179 0.787781
v 0.498809 0.211901 0.791789
v 0.502593 0.216224 0.782619
v 0.499096 0.211866 0.779800
v 0.487030 0.217035 0.791107
v 0.492209 0.216881 0.792695
v 0.484889 0.215514 0.788991
v 0.500177 0.237066 0.764081
v 0.485917 0.209679 0.784270
v 0.484176 0.212726 0.787071
v 0.496081 0.219559 0.788524
v 0.496387 0.214895 0.793004
v 0.496529 0.206856 0.786427
v 0.491182 0.207221 0.782959
v 0.494600 0.204840 0.790315
v 0.489239 0.205372 0.787327
v 0.484190 0.209051 0.789159
v 0.483866 0.212747 0.790408
v 0.485032 0.215394 0.791803
v 0.497719 0.207748 0.792904
v 0.497950 0.210638 0.794152
v 0.496058 0.214133 0.794349
v 0.496415 0.206397 0.796459
v 0.492215 0.204059 0.796389
v 0.484165 0.209703 0.805605
v 0.483924 0.210144 0.801427
v 0.484394 0.209032 0.801400
v 0.484008 0.208618 0.805503
v 0.483916 0.208942 0.795955
v 0.484663 0.208006 0.797339
v 0.487142 0.205759 0.795728
v 0.486876 0.205495 0.801131
v 0.492092 0.204381 0.802053
v 0.491236 0.204253 0.806127
v 0.486642 0.204938 0.804927
v 0.490745 0.204132 0.797621
v 0.484236 0.207323 0.807980
v 0.484012 0.208001 0.809209
v 0.487109 0.205189 0.793386
v 0.483695 0.213020 0.795472
v 0.483822 0.212508 0.802508
v 0.484107 0.211270 0.807507
v 0.485406 0.209307 0.810596
v 0.485283 0.214575 0.802247
v 0.485413 0.213117 0.808057
v 0.486792 0.211165 0.810898
v 0.488271 0.216127 0.802342
v 0.487825 0.214120 0.807685
v 0.488827 0.217238 0.795928
v 0.485582 0.215754 0.795796
v 0.488081 0.212065 0.810028
v 0.486705 0.205251 0.810084
v 0.488128 0.207525 0.811418
v 0.486624 0.204531 0.808622
v 0.493465 0.204592 0.802060
v 0.492568 0.204586 0.807060
v 0.495417 0.206085 0.802349
v 0.493748 0.206265 0.807780
v 0.490302 0.204633 0.809801
v 0.489382 0.204110 0.808215
v 0.488107 0.217099 0.793737
v 0.492018 0.216537 0.794052
v 0.492961 0.216266 0.796170
v 0.492334 0.215393 0.802422
v 0.496606 0.213270 0.796283
v 0.497582 0.209422 0.796461
v 0.496238 0.208689 0.802686
v 0.495616 0.212055 0.802901
v 0.493996 0.208377 0.808313
v 0.493527 0.211370 0.807956
v 0.491188 0.213745 0.807704
v 0.491133 0.208519 0.810830
v 0.490895 0.206636 0.810899
v 0.489075 0.209397 0.811376
v 0.491311 0.210394 0.810332
v 0.489927 0.211321 0.810333
v 0.506530 0.242208 0.774346
v 0.424073 0.266466 0.782349
v 0.429141 0.266240 0.783316
v 0.431519 0.264581 0.800223
v 0.434385 0.263730 0.793643
v 0.424910 0.265103 0.803060
v 0.414264 0.266222 0.797764
v 0.419003 0.266504 0.801811
v 0.432959 0.264404 0.787464
v 0.418221 0.266986 0.784091
v 0.413434 0.267329 0.790360
v 0.417948 0.256979 0.784199
v 0.411548 0.257642 0.790761
v 0.410658 0.258258 0.798199
v 0.417209 0.262487 0.803383
v 0.422459 0.263382 0.804578
v 0.425536 0.260549 0.784498
v 0.430114 0.261529 0.786170
v 0.433804 0.262146 0.791262
v 0.428362 0.252538 0.787379
v 0.424709 0.243734 0.792184
v 0.421167 0.237880 0.811971
v 0.419208 0.243754 0.808517
v 0.419591 0.241908 0.806386
v 0.420911 0.236471 0.809800
v 0.416917 0.246491 0.803819
v 0.418397 0.244906 0.802706
v 0.419946 0.244395 0.797642
v 0.421997 0.239320 0.801319
v 0.424396 0.242911 0.795217
v 0.427029 0.239385 0.797675
v 0.423622 0.234064 0.804395
v 0.422015 0.232289 0.810242
v 0.425121 0.229787 0.807311
v 0.423540 0.232880 0.813143
v 0.417083 0.244083 0.795410
v 0.416310 0.253022 0.806198
v 0.419846 0.246744 0.810783
v 0.423108 0.240451 0.814209
v 0.425989 0.234820 0.814482
v 0.423561 0.249299 0.812342
v 0.426659 0.243169 0.814017
v 0.429636 0.238310 0.813443
v 0.428566 0.250583 0.811021
v 0.430344 0.244274 0.812022
v 0.427508 0.260860 0.804707
v 0.420879 0.258658 0.807529
v 0.431060 0.240323 0.811897
v 0.427373 0.228986 0.809606
v 0.430041 0.231420 0.810847
v 0.429554 0.240681 0.795389
v 0.428662 0.234331 0.800481
v 0.431505 0.235478 0.799798
v 0.432382 0.243519 0.794548
v 0.433839 0.236987 0.800199
v 0.430982 0.230809 0.804251
v 0.428091 0.230886 0.803491
v 0.429010 0.263571 0.802733
v 0.433124 0.263132 0.797261
v 0.431778 0.261373 0.799289
v 0.433472 0.250534 0.805666
v 0.433671 0.258947 0.794471
v 0.431997 0.255577 0.790108
v 0.434670 0.246017 0.796264
v 0.435461 0.248673 0.800187
v 0.435274 0.239801 0.802160
v 0.435130 0.242070 0.804270
v 0.433448 0.243597 0.808665
v 0.434261 0.236218 0.806457
v 0.433361 0.232888 0.805124
v 0.432254 0.235671 0.810619
v 0.434286 0.238845 0.806783
v 0.432950 0.239114 0.809805
v 0.501999 0.251400 0.781608
v 0.495525 0.250278 0.782512
v 0.497596 0.256092 0.784067
v 0.498868 0.264712 0.787370
v 0.505229 0.273263 0.787433
v 0.491943 0.265193 0.786886
v 0.491036 0.256132 0.783572
v 0.488278 0.247742 0.780648
v 0.486291 0.273790 0.787627
f 780 781 779
f 779 781 782
f 783 784 786
f 786 784 785
f 787 782 788
f 788 782 781
f 790 791 789
f 789 791 787
f 792 790 794
f 794 790 793
f 796 797 795
f 795 797 798
f 800 801 799
f 799 801 802
f 804 805 803
f 803 805 806
f 808 809 807
f 807 809 810
f 811 812 814
f 814 812 813
f 815 816 818
f 818 816 817
f 819 820 784
f 784 820 821
f 784 821 785
f 785 821 822
f 823 812 824
f 824 812 811
f 826 827 825
f 825 827 828
f 830 831 829
f 829 831 832
f 834 830 833
f 833 830 829
f 836 837 835
f 835 837 838
f 839 840 782
f 782 840 779
f 842 843 841
f 841 843 844
f 846 847 845
f 845 847 848
f 850 851 849
f 849 851 852
f 854 855 853
f 853 855 856
f 831 857 832
f 832 857 858
f 860 861 859
f 859 861 862
f 863 864 830
f 830 864 831
f 835 838 865
f 865 838 866
f 867 868 821
f 821 868 822
f 821 820 867
f 867 820 869
f 818 817 870
f 870 817 871
f 872 848 842
f 842 848 847
f 791 839 787
f 787 839 782
f 803 806 847
f 847 806 873
f 874 803 846
f 846 803 847
f 876 877 875
f 875 877 878
f 879 880 882
f 882 880 881
f 884 808 883
f 883 808 807
f 829 832 885
f 885 832 886
f 832 858 886
f 886 858 887
f 889 890 888
f 888 890 891
f 893 783 892
f 892 783 894
f 893 819 783
f 783 819 784
f 814 813 889
f 889 813 895
f 813 896 895
f 895 896 897
f 812 898 813
f 813 898 896
f 812 823 898
f 898 823 899
f 903 904 902
f 902 904 905
f 906 907 792
f 792 907 908
f 811 909 824
f 824 909 910
f 911 872 841
f 841 872 842
f 912 913 915
f 915 913 914
f 917 918 916
f 916 918 919
f 855 920 856
f 856 920 921
f 922 923 798
f 798 923 924
f 926 927 925
f 925 927 850
f 929 930 928
f 928 930 931
f 860 879 861
f 861 879 882
f 879 860 933
f 933 860 932
f 934 935 836
f 836 935 837
f 936 846 925
f 925 846 845
f 937 924 793
f 793 924 794
f 846 936 874
f 874 936 938
f 907 844 908
f 908 844 843
f 940 941 939
f 939 941 942
f 944 945 943
f 943 945 946
f 948 949 947
f 947 949 950
f 952 949 951
f 951 949 948
f 954 955 953
f 953 955 956
f 958 959 957
f 957 959 802
f 960 961 799
f 799 961 962
f 859 963 860
f 860 963 932
f 964 965 966
f 966 965 922
f 936 849 938
f 938 849 967
f 968 913 935
f 935 913 837
f 947 950 917
f 917 950 918
f 925 850 936
f 936 850 849
f 970 971 969
f 969 971 972
f 945 944 827
f 827 944 973
f 974 968 828
f 828 968 935
f 975 976 978
f 978 976 977
f 799 802 960
f 960 802 959
f 924 937 798
f 798 937 795
f 960 959 859
f 859 959 963
f 979 963 958
f 958 963 959
f 980 981 861
f 861 981 862
f 983 984 982
f 982 984 863
f 985 800 962
f 962 800 799
f 957 802 986
f 986 802 801
f 986 987 957
f 957 987 983
f 987 988 983
f 983 988 984
f 990 984 989
f 989 984 988
f 957 983 958
f 958 983 982
f 991 954 866
f 866 954 992
f 864 863 990
f 990 863 984
f 971 995 996
f 995 997 996
f 996 997 998
f 997 796 998
f 998 796 795
f 797 999 798
f 798 999 922
f 1000 1001 1003
f 1003 1001 1002
f 953 1004 954
f 954 1004 992
f 1005 865 992
f 992 865 866
f 998 795 1006
f 1006 795 937
f 912 991 838
f 838 991 866
f 916 1007 929
f 929 1007 930
f 971 970 988
f 988 970 989
f 1008 972 996
f 996 972 971
f 1009 1010 1006
f 1006 1010 1008
f 1011 1012 869
f 869 1012 867
f 1013 1014 871
f 871 1014 870
f 1008 1010 1012
f 1012 1010 1015
f 825 1016 826
f 826 1016 1017
f 1018 969 1013
f 1013 969 1014
f 783 786 894
f 894 786 1019
f 1020 1021 967
f 967 1021 938
f 1022 1023 876
f 876 1023 877
f 934 1024 825
f 825 1024 1016
f 854 1025 855
f 855 1025 1026
f 1028 903 1027
f 1027 903 902
f 1030 1031 1029
f 1029 1031 1032
f 889 888 814
f 814 888 1033
f 1034 811 1033
f 1033 811 814
f 1035 1036 932
f 932 1036 933
f 841 947 911
f 911 947 917
f 844 948 841
f 841 948 947
f 951 948 907
f 907 948 844
f 907 906 951
f 951 906 1037
f 906 1038 1037
f 1037 1038 1039
f 991 912 1040
f 1040 912 915
f 1041 1042 964
f 964 1042 965
f 890 1043 891
f 891 1043 1044
f 789 1045 1046
f 1012 1011 1008
f 1008 1011 972
f 931 1047 848
f 848 1047 845
f 953 956 943
f 943 956 919
f 928 931 872
f 872 931 848
f 1049 999 1048
f 1048 999 985
f 1047 931 1050
f 1050 931 930
f 899 823 887
f 887 823 886
f 825 828 934
f 934 828 935
f 835 1051 836
f 836 1051 1052
f 923 1053 1038
f 1038 1053 1039
f 1054 927 921
f 921 927 856
f 926 1047 853
f 853 1047 1050
f 985 1055 1048
f 1048 1055 1056
f 973 974 827
f 827 974 828
f 837 913 838
f 838 913 912
f 861 882 980
f 980 882 1057
f 927 926 856
f 856 926 853
f 1025 1056 1026
f 1026 1056 1055
f 961 960 862
f 862 960 859
f 826 1017 1059
f 1059 1017 1060
f 1005 1001 1061
f 1061 1001 1000
f 1001 1004 1002
f 1002 1004 946
f 1059 1060 1002
f 1002 1060 1003
f 943 946 953
f 953 946 1004
f 1042 1041 916
f 916 1041 1007
f 792 794 906
f 906 794 1038
f 998 1006 996
f 996 1006 1008
f 865 1005 1062
f 1062 1005 1061
f 1038 794 923
f 923 794 924
f 1022 876 1036
f 1036 876 933
f 836 1052 934
f 934 1052 1024
f 885 1063 829
f 829 1063 833
f 1021 1064 938
f 938 1064 874
f 1012 1015 867
f 867 1015 868
f 824 910 885
f 885 910 1063
f 1031 1030 1027
f 1027 1030 1028
f 1064 804 874
f 874 804 803
f 884 883 1065
f 1065 883 1066
f 1050 930 1067
f 1067 930 1007
f 916 929 917
f 917 929 911
f 961 1068 939
f 939 1068 940
f 1069 1070 1055
f 1055 1070 1071
f 929 928 911
f 911 928 872
f 1040 1053 955
f 955 1053 965
f 922 965 923
f 923 965 1053
f 1051 835 1062
f 1062 835 865
f 952 914 968
f 968 914 913
f 889 895 890
f 890 895 816
f 895 897 816
f 816 897 901
f 890 816 1043
f 1043 816 815
f 1065 1066 1032
f 1032 1066 1029
f 1006 937 1009
f 1009 937 793
f 1001 1005 1004
f 1004 1005 992
f 925 845 926
f 926 845 1047
f 1002 946 1059
f 1059 946 945
f 977 941 978
f 978 941 940
f 823 824 886
f 886 824 885
f 1059 945 826
f 826 945 827
f 939 942 1069
f 1069 942 1070
f 816 901 817
f 1071 1072 1055
f 1055 1072 1026
f 1062 1061 1074
f 1074 1061 1073
f 1062 1074 1051
f 1051 1074 1075
f 1052 1051 1076
f 1076 1051 1075
f 1024 1052 1077
f 1077 1052 1076
f 1061 1000 1073
f 1073 1000 1078
f 1000 1003 1078
f 1078 1003 1079
f 1079 1003 1080
f 1080 1003 1060
f 1081 1082 1078
f 1078 1082 1073
f 1084 1085 1083
f 1083 1085 1086
f 1087 1088 1086
f 1086 1088 1083
f 1086 1085 1090
f 1090 1085 1089
f 1091 1092 1090
f 1090 1092 1093
f 1089 1094 1090
f 1090 1094 1091
f 1095 1082 1089
f 1089 1082 1094
f 1093 1087 1090
f 1090 1087 1086
f 1096 1097 1099
f 1099 1097 1098
f 1097 1096 1087
f 1087 1096 1088
f 1089 1085 1095
f 1095 1085 1084
f 1084 1075 1095
f 1095 1075 1074
f 1084 1100 1075
f 1075 1100 1076
f 1083 1101 1084
f 1084 1101 1100
f 1101 1083 1102
f 1102 1083 1088
f 1082 1095 1073
f 1073 1095 1074
f 1096 1103 1088
f 1088 1103 1102
f 1101 1102 1104
f 1104 1102 1105
f 1102 1103 1105
f 1105 1103 1106
f 1104 1105 1107
f 1107 1105 1108
f 1107 1109 1104
f 1104 1109 1110
f 1111 1108 1106
f 1106 1108 1105
f 1101 1104 1100
f 1100 1104 1110
f 1100 1110 1076
f 1076 1110 1077
f 1103 1096 1112
f 1112 1096 1099
f 1091 1094 1113
f 1113 1094 1082
f 1113 1114 1091
f 1091 1114 1092
f 1082 1081 1113
f 1113 1081 1115
f 1114 1113 1116
f 1116 1113 1115
f 1114 1117 1092
f 1092 1117 1118
f 1024 1077 1016
f 1016 1077 1119
f 1017 1120 1060
f 1060 1120 1080
f 1120 1017 1119
f 1119 1017 1016
f 1119 1109 1120
f 1120 1109 1121
f 1109 1107 1121
f 1121 1107 1122
f 1120 1121 1080
f 1080 1121 1123
f 1119 1077 1109
f 1109 1077 1110
f 1124 1079 1123
f 1123 1079 1080
f 1124 1081 1079
f 1079 1081 1078
f 1125 1115 1124
f 1124 1115 1081
f 1125 1124 1126
f 1126 1124 1123
f 1127 1125 1128
f 1128 1125 1126
f 1121 1122 1123
f 1123 1122 1126
f 1122 1129 1126
f 1126 1129 1128
f 1115 1125 1116
f 1116 1125 1127
f 1131 1116 1130
f 1130 1116 1127
f 1130 1133 1132
f 1132 1133 1134
f 1130 1127 1133
f 1133 1127 1128
f 1130 1132 1131
f 1131 1132 1112
f 1131 1112 1117
f 1117 1112 1099
f 1117 1114 1131
f 1131 1114 1116
f 1107 1108 1122
f 1122 1108 1129
f 1134 1129 1111
f 1111 1129 1108
f 1134 1133 1129
f 1129 1133 1128
f 1132 1134 1106
f 1106 1134 1111
f 1106 1103 1132
f 1132 1103 1112
f 1087 1093 1097
f 1097 1093 1098
f 1098 1118 1099
f 1099 1118 1117
f 1098 1093 1118
f 1118 1093 1092
f 915 914 1039
f 1039 914 1037
f 918 944 919
f 919 944 943
f 950 949 973
f 973 949 974
f 949 952 974
f 974 952 968
f 956 955 1042
f 1042 955 965
f 950 973 918
f 918 973 944
f 915 1039 1040
f 1040 1039 1053
f 956 1042 919
f 919 1042 916
f 1040 955 991
f 991 955 954
f 914 952 1037
f 1037 952 951
f 1136 1137 1135
f 1135 1137 1138
f 1140 1141 1139
f 1139 1141 1142
f 1139 1142 1143
f 1143 1142 1144
f 1145 1146 1148
f 1148 1146 1147
f 854 1149 1025
f 1025 1149 1150
f 1151 1152 1140
f 1140 1152 1141
f 1154 1155 1153
f 1153 1155 1156
f 1067 1007 1158
f 1158 1007 1157
f 1159 1157 1041
f 1041 1157 1007
f 1161 1162 1160
f 1160 1162 1163
f 1164 1146 1152
f 1152 1146 1141
f 854 1067 1149
f 1149 1067 1158
f 1155 1154 1137
f 1137 1154 1165
f 1166 1164 1138
f 1138 1164 1152
f 1167 1161 1144
f 1144 1161 1168
f 1170 1171 1169
f 1169 1171 1172
f 1161 1160 1168
f 1168 1160 1173
f 1174 1143 1168
f 1168 1143 1144
f 1167 1144 1145
f 1145 1144 1142
f 1135 1175 1136
f 1136 1175 1176
f 1151 1177 1135
f 1135 1177 1175
f 1167 1145 1178
f 1178 1145 1148
f 1160 1163 1153
f 1153 1163 1150
f 1135 1138 1151
f 1151 1138 1152
f 1139 1179 1140
f 1140 1179 1180
f 1165 1166 1137
f 1137 1166 1138
f 1141 1146 1142
f 1142 1146 1145
f 1136 1176 1181
f 1181 1176 1182
f 1174 1170 1183
f 1183 1170 1169
f 1170 1173 1171
f 1171 1173 1156
f 1171 1181 1172
f 1172 1181 1182
f 1153 1156 1160
f 1160 1156 1173
f 1143 1174 1184
f 1184 1174 1183
f 1140 1180 1151
f 1151 1180 1177
f 1049 1048 1178
f 1178 1048 1162
f 1179 1139 1184
f 1184 1139 1143
f 1159 1147 1164
f 1164 1147 1146
f 1170 1174 1173
f 1173 1174 1168
f 1171 1156 1181
f 1181 1156 1155
f 1181 1155 1136
f 1136 1155 1137
f 1184 1183 1186
f 1186 1183 1185
f 1184 1186 1179
f 1179 1186 1187
f 1179 1187 1180
f 1180 1187 1188
f 1180 1188 1177
f 1177 1188 1189
f 1183 1169 1185
f 1185 1169 1190
f 1169 1172 1190
f 1190 1172 1191
f 1172 1182 1191
f 1191 1182 1192
f 1193 1194 1190
f 1190 1194 1185
f 1196 1197 1195
f 1195 1197 1198
f 1199 1200 1196
f 1196 1200 1197
f 1197 1200 1202
f 1202 1200 1201
f 1203 1204 1202
f 1202 1204 1205
f 1201 1206 1202
f 1202 1206 1203
f 1205 1198 1202
f 1202 1198 1197
f 1198 1207 1195
f 1195 1207 1208
f 1201 1200 1209
f 1209 1200 1199
f 1199 1187 1209
f 1209 1187 1186
f 1199 1210 1187
f 1187 1210 1188
f 1196 1211 1199
f 1199 1211 1210
f 1212 1211 1195
f 1195 1211 1196
f 1209 1194 1201
f 1201 1194 1206
f 1194 1209 1185
f 1185 1209 1186
f 1213 1212 1208
f 1208 1212 1195
f 1211 1212 1214
f 1214 1212 1215
f 1212 1213 1215
f 1215 1213 1216
f 1214 1215 1217
f 1217 1215 1218
f 1217 1219 1214
f 1214 1219 1220
f 1216 1221 1215
f 1215 1221 1218
f 1214 1220 1211
f 1211 1220 1210
f 1210 1220 1188
f 1188 1220 1189
f 1213 1208 1223
f 1223 1208 1222
f 1208 1207 1222
f 1222 1207 1224
f 1203 1206 1225
f 1225 1206 1194
f 1204 1203 1226
f 1226 1203 1225
f 1194 1193 1225
f 1225 1193 1227
f 1225 1227 1226
f 1226 1227 1228
f 1229 1230 1226
f 1226 1230 1204
f 1224 1230 1222
f 1222 1230 1229
f 1177 1189 1175
f 1175 1189 1231
f 1176 1232 1182
f 1182 1232 1192
f 1232 1176 1231
f 1231 1176 1175
f 1231 1219 1232
f 1232 1219 1233
f 1219 1217 1233
f 1233 1217 1234
f 1232 1233 1192
f 1192 1233 1235
f 1219 1231 1220
f 1220 1231 1189
f 1236 1191 1235
f 1235 1191 1192
f 1236 1193 1191
f 1191 1193 1190
f 1236 1237 1193
f 1193 1237 1227
f 1237 1236 1238
f 1238 1236 1235
f 1239 1237 1240
f 1240 1237 1238
f 1233 1234 1235
f 1235 1234 1238
f 1234 1241 1238
f 1238 1241 1240
f 1237 1239 1227
f 1227 1239 1228
f 1243 1228 1242
f 1242 1228 1239
f 1242 1245 1244
f 1244 1245 1246
f 1242 1239 1245
f 1245 1239 1240
f 1242 1244 1243
f 1243 1244 1223
f 1243 1223 1229
f 1229 1223 1222
f 1229 1226 1243
f 1243 1226 1228
f 1217 1218 1234
f 1234 1218 1241
f 1246 1241 1221
f 1221 1241 1218
f 1246 1245 1241
f 1241 1245 1240
f 1244 1246 1216
f 1216 1246 1221
f 1216 1213 1244
f 1244 1213 1223
f 1198 1205 1207
f 1207 1205 1224
f 1224 1205 1230
f 1230 1205 1204
f 1148 1147 966
f 966 1147 964
f 1149 1154 1150
f 1150 1154 1153
f 1158 1157 1165
f 1165 1157 1166
f 1157 1159 1166
f 1166 1159 1164
f 1163 1162 1056
f 1056 1162 1048
f 1158 1165 1149
f 1149 1165 1154
f 1178 1148 1049
f 1049 1148 966
f 1163 1056 1150
f 1150 1056 1025
f 1178 1162 1167
f 1167 1162 1161
f 1147 1159 964
f 964 1159 1041
f 999 1049 922
f 922 1049 966
f 999 797 985
f 985 797 800
f 797 796 800
f 800 796 801
f 796 997 801
f 801 997 986
f 1247 1248 1250
f 1250 1248 1249
f 1252 1253 1251
f 1251 1253 1254
f 1251 1254 1255
f 1255 1254 1256
f 1258 1259 1257
f 1257 1259 1260
f 1261 1262 1252
f 1252 1262 1253
f 1264 1265 1263
f 1263 1265 1266
f 1267 1268 855
f 855 1268 920
f 1269 1267 1026
f 1026 1267 855
f 1271 1272 1270
f 1270 1272 1273
f 1274 1258 1262
f 1262 1258 1253
f 1264 1275 1265
f 1265 1275 1249
f 1276 1274 1250
f 1250 1274 1262
f 1277 1271 1256
f 1256 1271 1278
f 1279 1280 1282
f 1282 1280 1281
f 1271 1270 1278
f 1278 1270 1283
f 1284 1255 1278
f 1278 1255 1256
f 1277 1256 1257
f 1257 1256 1254
f 1247 1285 1248
f 1248 1285 1286
f 1261 1287 1247
f 1247 1287 1285
f 1257 1260 1277
f 1277 1260 1288
f 1270 1273 1263
f 1263 1273 1289
f 1261 1247 1262
f 1262 1247 1250
f 1251 1290 1252
f 1252 1290 1291
f 1275 1276 1249
f 1249 1276 1250
f 1253 1258 1254
f 1254 1258 1257
f 1248 1286 1292
f 1292 1286 1293
f 1284 1280 1294
f 1294 1280 1279
f 1281 1280 1266
f 1266 1280 1283
f 1292 1293 1281
f 1281 1293 1282
f 1263 1266 1270
f 1270 1266 1283
f 1255 1284 1295
f 1295 1284 1294
f 1252 1291 1261
f 1261 1291 1287
f 1288 1070 1272
f 1272 1070 942
f 1290 1251 1295
f 1295 1251 1255
f 1269 1259 1274
f 1274 1259 1258
f 1280 1284 1283
f 1283 1284 1278
f 1281 1266 1292
f 1292 1266 1265
f 1292 1265 1248
f 1248 1265 1249
f 1295 1294 1297
f 1297 1294 1296
f 1295 1297 1290
f 1290 1297 1298
f 1290 1298 1291
f 1291 1298 1299
f 1291 1299 1287
f 1287 1299 1300
f 1294 1279 1296
f 1296 1279 1301
f 1279 1282 1301
f 1301 1282 1302
f 1302 1282 1303
f 1303 1282 1293
f 1304 1305 1301
f 1301 1305 1296
f 1307 1308 1306
f 1306 1308 1309
f 1310 1311 1307
f 1307 1311 1308
f 1308 1311 1313
f 1313 1311 1312
f 1314 1315 1313
f 1313 1315 1316
f 1312 1317 1313
f 1313 1317 1314
f 1316 1309 1313
f 1313 1309 1308
f 1318 1319 1309
f 1309 1319 1306
f 1311 1310 1312
f 1312 1310 1320
f 1310 1298 1320
f 1320 1298 1297
f 1310 1321 1298
f 1298 1321 1299
f 1307 1322 1310
f 1310 1322 1321
f 1322 1307 1323
f 1323 1307 1306
f 1312 1320 1317
f 1317 1320 1305
f 1305 1320 1296
f 1296 1320 1297
f 1319 1324 1306
f 1306 1324 1323
f 1325 1322 1326
f 1326 1322 1323
f 1324 1327 1323
f 1323 1327 1326
f 1328 1325 1329
f 1329 1325 1326
f 1325 1328 1331
f 1331 1328 1330
f 1327 1332 1326
f 1326 1332 1329
f 1322 1325 1321
f 1321 1325 1331
f 1321 1331 1299
f 1299 1331 1300
f 1324 1319 1334
f 1334 1319 1333
f 1319 1318 1333
f 1333 1318 1335
f 1314 1317 1336
f 1336 1317 1305
f 1315 1314 1337
f 1337 1314 1336
f 1305 1304 1336
f 1336 1304 1338
f 1337 1336 1339
f 1339 1336 1338
f 1337 1340 1315
f 1315 1340 1341
f 1335 1341 1333
f 1333 1341 1340
f 1287 1300 1285
f 1285 1300 1342
f 1286 1343 1293
f 1293 1343 1303
f 1343 1286 1342
f 1342 1286 1285
f 1342 1330 1343
f 1343 1330 1344
f 1330 1328 1344
f 1344 1328 1345
f 1343 1344 1303
f 1303 1344 1346
f 1342 1300 1330
f 1330 1300 1331
f 1347 1302 1346
f 1346 1302 1303
f 1347 1304 1302
f 1302 1304 1301
f 1348 1338 1347
f 1347 1338 1304
f 1348 1347 1349
f 1349 1347 1346
f 1350 1348 1351
f 1351 1348 1349
f 1344 1345 1346
f 1346 1345 1349
f 1345 1352 1349
f 1349 1352 1351
f 1348 1350 1338
f 1338 1350 1339
f 1354 1339 1353
f 1353 1339 1350
f 1353 1356 1355
f 1355 1356 1357
f 1353 1350 1356
f 1356 1350 1351
f 1353 1355 1354
f 1354 1355 1334
f 1354 1334 1340
f 1340 1334 1333
f 1340 1337 1354
f 1354 1337 1339
f 1328 1329 1345
f 1345 1329 1352
f 1357 1352 1332
f 1332 1352 1329
f 1357 1356 1352
f 1352 1356 1351
f 1357 1332 1355
f 1355 1332 1327
f 1327 1324 1355
f 1355 1324 1334
f 1309 1316 1318
f 1318 1316 1335
f 1335 1316 1341
f 1341 1316 1315
f 1259 1072 1260
f 1260 1072 1071
f 1358 1264 1289
f 1289 1264 1263
f 1268 1267 1275
f 1275 1267 1276
f 1267 1269 1276
f 1276 1269 1274
f 941 1273 942
f 942 1273 1272
f 1358 1268 1264
f 1264 1268 1275
f 1260 1071 1288
f 1288 1071 1070
f 1273 941 1289
f 1289 941 977
f 1272 1271 1288
f 1288 1271 1277
f 1259 1269 1072
f 1072 1269 1026
f 1360 1361 1359
f 1359 1361 1362
f 1364 1365 1363
f 1363 1365 1366
f 1363 1366 1367
f 1367 1366 1368
f 1370 1371 1369
f 1369 1371 1372
f 1373 1374 1376
f 1376 1374 1375
f 1377 1378 1364
f 1364 1378 1365
f 1379 1380 1382
f 1382 1380 1381
f 1383 1384 1386
f 1386 1384 1385
f 1387 1385 978
f 978 1385 1384
f 1388 1389 1391
f 1391 1389 1390
f 1378 1392 1365
f 1365 1392 1370
f 1374 1383 1375
f 1375 1383 1386
f 1380 1393 1381
f 1381 1393 1361
f 1394 1392 1362
f 1362 1392 1378
f 1389 1396 1395
f 1395 1396 1368
f 1398 1399 1397
f 1397 1399 1400
f 1388 1401 1389
f 1389 1401 1396
f 1402 1367 1396
f 1396 1367 1368
f 1395 1368 1369
f 1369 1368 1366
f 1359 1403 1360
f 1360 1403 1404
f 1377 1405 1359
f 1359 1405 1403
f 1369 1372 1395
f 1395 1372 1406
f 1379 1388 1376
f 1376 1388 1391
f 1359 1362 1377
f 1377 1362 1378
f 1363 1407 1364
f 1364 1407 1408
f 1393 1394 1361
f 1361 1394 1362
f 1365 1370 1366
f 1366 1370 1369
f 1360 1404 1409
f 1409 1404 1410
f 1402 1398 1411
f 1411 1398 1397
f 1399 1398 1382
f 1382 1398 1401
f 1409 1410 1399
f 1399 1410 1400
f 1388 1379 1401
f 1401 1379 1382
f 1367 1402 1412
f 1412 1402 1411
f 1364 1408 1377
f 1377 1408 1405
f 981 980 1406
f 1406 980 1390
f 1407 1363 1412
f 1412 1363 1367
f 1387 1371 1392
f 1392 1371 1370
f 1398 1402 1401
f 1401 1402 1396
f 1409 1399 1381
f 1381 1399 1382
f 1360 1409 1361
f 1361 1409 1381
f 1412 1411 1414
f 1414 1411 1413
f 1412 1414 1407
f 1407 1414 1415
f 1407 1415 1408
f 1408 1415 1416
f 1408 1416 1405
f 1405 1416 1417
f 1411 1397 1413
f 1413 1397 1418
f 1397 1400 1418
f 1418 1400 1419
f 1419 1400 1420
f 1420 1400 1410
f 1422 1413 1421
f 1421 1413 1418
f 1423 1424 1426
f 1426 1424 1425
f 1427 1428 1424
f 1424 1428 1425
f 1425 1428 1430
f 1430 1428 1429
f 1430 1431 1433
f 1433 1431 1432
f 1429 1434 1430
f 1430 1434 1431
f 1433 1426 1430
f 1430 1426 1425
f 1426 1435 1423
f 1423 1435 1436
f 1428 1427 1429
f 1429 1427 1437
f 1427 1415 1437
f 1437 1415 1414
f 1427 1438 1415
f 1415 1438 1416
f 1439 1438 1424
f 1424 1438 1427
f 1440 1439 1423
f 1423 1439 1424
f 1429 1437 1434
f 1434 1437 1422
f 1422 1437 1413
f 1413 1437 1414
f 1441 1440 1436
f 1436 1440 1423
f 1442 1439 1443
f 1443 1439 1440
f 1441 1444 1440
f 1440 1444 1443
f 1445 1442 1446
f 1446 1442 1443
f 1442 1445 1448
f 1448 1445 1447
f 1444 1449 1443
f 1443 1449 1446
f 1439 1442 1438
f 1438 1442 1448
f 1438 1448 1416
f 1416 1448 1417
f 1436 1450 1441
f 1441 1450 1451
f 1436 1435 1450
f 1450 1435 1452
f 1431 1434 1453
f 1453 1434 1422
f 1431 1453 1432
f 1432 1453 1454
f 1453 1422 1455
f 1455 1422 1421
f 1454 1453 1456
f 1456 1453 1455
f 1457 1458 1454
f 1454 1458 1432
f 1452 1458 1450
f 1450 1458 1457
f 1405 1417 1403
f 1403 1417 1459
f 1404 1460 1410
f 1410 1460 1420
f 1459 1460 1403
f 1403 1460 1404
f 1447 1461 1459
f 1459 1461 1460
f 1445 1462 1447
f 1447 1462 1461
f 1460 1461 1420
f 1420 1461 1463
f 1459 1417 1447
f 1447 1417 1448
f 1464 1419 1463
f 1463 1419 1420
f 1419 1464 1418
f 1418 1464 1421
f 1464 1465 1421
f 1421 1465 1455
f 1465 1464 1466
f 1466 1464 1463
f 1467 1465 1468
f 1468 1465 1466
f 1461 1462 1463
f 1463 1462 1466
f 1462 1469 1466
f 1466 1469 1468
f 1465 1467 1455
f 1455 1467 1456
f 1471 1456 1470
f 1470 1456 1467
f 1470 1473 1472
f 1472 1473 1474
f 1470 1467 1473
f 1473 1467 1468
f 1470 1472 1471
f 1471 1472 1451
f 1471 1451 1457
f 1457 1451 1450
f 1457 1454 1471
f 1471 1454 1456
f 1462 1445 1469
f 1469 1445 1446
f 1474 1469 1449
f 1449 1469 1446
f 1474 1473 1469
f 1469 1473 1468
f 1472 1474 1444
f 1444 1474 1449
f 1444 1441 1472
f 1472 1441 1451
f 1426 1433 1435
f 1435 1433 1452
f 1452 1433 1458
f 1458 1433 1432
f 1371 940 1372
f 1372 940 1068
f 1376 1375 1379
f 1379 1375 1380
f 1393 1386 1394
f 1394 1386 1385
f 1385 1387 1394
f 1394 1387 1392
f 1475 1373 1391
f 1391 1373 1376
f 1375 1386 1380
f 1380 1386 1393
f 1372 1068 1406
f 1406 1068 981
f 1406 1390 1395
f 1395 1390 1389
f 1371 1387 940
f 940 1387 978
f 883 807 1476
f 1476 807 1477
f 1046 904 1479
f 1479 904 1478
f 904 903 1478
f 1478 903 1480
f 1030 1481 1028
f 1028 1481 1482
f 810 1046 1483
f 1483 1046 1479
f 1066 883 1484
f 1484 883 1476
f 807 810 1477
f 1477 810 1483
f 1485 1029 1484
f 1484 1029 1066
f 1028 1482 903
f 903 1482 1480
f 1481 1030 1485
f 1485 1030 1029
f 1484 1486 1485
f 1485 1486 1487
f 1485 1487 1481
f 1481 1487 1488
f 1481 1488 1482
f 1482 1488 1489
f 1482 1489 1480
f 1480 1489 1490
f 1484 1476 1486
f 1486 1476 1491
f 1476 1477 1491
f 1491 1477 1492
f 1477 1483 1492
f 1492 1483 1493
f 1495 1486 1494
f 1494 1486 1491
f 1497 1498 1496
f 1496 1498 1499
f 1500 1501 1497
f 1497 1501 1498
f 1502 1503 1501
f 1501 1503 1498
f 1502 1504 1503
f 1503 1504 1505
f 1506 1499 1503
f 1503 1499 1498
f 1499 1506 1507
f 1507 1506 1508
f 1507 1509 1499
f 1499 1509 1496
f 1502 1501 1510
f 1510 1501 1500
f 1500 1488 1510
f 1510 1488 1487
f 1500 1511 1488
f 1488 1511 1489
f 1497 1512 1500
f 1500 1512 1511
f 1512 1497 1513
f 1513 1497 1496
f 1502 1510 1504
f 1504 1510 1495
f 1495 1510 1486
f 1486 1510 1487
f 1509 1514 1496
f 1496 1514 1513
f 1515 1512 1516
f 1516 1512 1513
f 1514 1517 1513
f 1513 1517 1516
f 1518 1515 1519
f 1519 1515 1516
f 1515 1518 1521
f 1521 1518 1520
f 1517 1522 1516
f 1516 1522 1519
f 1512 1515 1511
f 1511 1515 1521
f 1511 1521 1489
f 1489 1521 1490
f 1514 1509 1524
f 1524 1509 1523
f 1509 1507 1523
f 1523 1507 1508
f 1505 1504 1525
f 1525 1504 1495
f 1526 1505 1527
f 1527 1505 1525
f 1525 1495 1528
f 1528 1495 1494
f 1527 1525 1529
f 1529 1525 1528
f 1527 1530 1526
f 1526 1530 1531
f 1508 1531 1523
f 1523 1531 1530
f 1506 1503 1526
f 1526 1503 1505
f 1508 1506 1531
f 1531 1506 1526
f 1478 1480 1532
f 1532 1480 1490
f 1483 1479 1493
f 1493 1479 1533
f 1532 1533 1478
f 1478 1533 1479
f 1520 1534 1532
f 1532 1534 1533
f 1518 1535 1520
f 1520 1535 1534
f 1533 1534 1493
f 1493 1534 1536
f 1532 1490 1520
f 1520 1490 1521
f 1537 1492 1536
f 1536 1492 1493
f 1492 1537 1491
f 1491 1537 1494
f 1537 1538 1494
f 1494 1538 1528
f 1538 1537 1539
f 1539 1537 1536
f 1540 1538 1541
f 1541 1538 1539
f 1534 1535 1536
f 1536 1535 1539
f 1535 1542 1539
f 1539 1542 1541
f 1538 1540 1528
f 1528 1540 1529
f 1544 1529 1543
f 1543 1529 1540
f 1545 1543 1547
f 1547 1543 1546
f 1543 1540 1546
f 1546 1540 1541
f 1543 1545 1544
f 1544 1545 1524
f 1544 1524 1530
f 1530 1524 1523
f 1530 1527 1544
f 1544 1527 1529
f 1535 1518 1542
f 1542 1518 1519
f 1547 1542 1522
f 1522 1542 1519
f 1547 1546 1542
f 1542 1546 1541
f 1545 1547 1517
f 1517 1547 1522
f 1517 1514 1545
f 1545 1514 1524
f 997 995 986
f 986 995 987
f 987 995 988
f 988 995 971
f 976 1358 977
f 977 1358 1289
f 854 853 1067
f 1067 853 1050
f 1055 985 1069
f 1069 985 962
f 1068 961 981
f 981 961 862
f 1268 1358 920
f 920 1358 976
f 920 976 921
f 921 976 975
f 927 1054 850
f 850 1054 851
f 882 881 1057
f 1057 881 1548
f 1548 1374 1057
f 1057 1374 1373
f 1383 1374 1549
f 1549 1374 1548
f 1549 1548 1550
f 1550 1548 881
f 1550 881 1551
f 1551 881 880
f 933 1552 879
f 879 1552 880
f 1551 880 875
f 875 880 1552
f 1553 1551 878
f 878 1551 875
f 1551 1553 1550
f 1550 1553 1554
f 1550 1554 1549
f 1549 1554 1555
f 978 1384 975
f 975 1384 1555
f 967 849 1556
f 1556 849 852
f 875 1552 876
f 876 1552 933
f 961 939 962
f 962 939 1069
f 1555 1054 975
f 975 1054 921
f 1555 1384 1549
f 1549 1384 1383
f 1391 1390 1475
f 1475 1390 980
f 1373 1475 1057
f 1057 1475 980
f 851 1054 1554
f 1554 1054 1555
f 1554 1553 851
f 851 1553 852
f 878 1556 1553
f 1553 1556 852
f 1556 878 967
f 967 878 877
f 1023 1020 877
f 877 1020 967
f 909 811 1034
f 806 779 873
f 873 779 840
f 805 780 806
f 806 780 779
f 1043 893 1044
f 1044 893 892
f 873 840 847
f 847 840 842
f 840 839 842
f 842 839 843
f 839 791 843
f 843 791 908
f 791 790 908
f 908 790 792
f 809 789 810
f 810 789 1046
f 793 790 809
f 809 790 789
f 809 808 793
f 793 808 1009
f 808 884 1009
f 1009 884 1010
f 1065 1015 884
f 884 1015 1010
f 1032 868 1065
f 1065 868 1015
f 1031 822 1032
f 1032 822 868
f 1031 1027 822
f 822 1027 785
f 1045 905 1046
f 1046 905 904
f 788 781 1019
f 1019 781 894
f 781 780 894
f 894 780 892
f 780 805 892
f 892 805 1044
f 805 804 1044
f 1044 804 891
f 804 1064 891
f 891 1064 888
f 1064 1021 888
f 888 1021 1033
f 1021 1020 1033
f 1033 1020 1034
f 1020 1023 1034
f 1034 1023 909
f 1023 1022 909
f 909 1022 910
f 1043 815 893
f 893 815 819
f 819 815 820
f 820 815 818
f 870 869 818
f 818 869 820
f 1014 1011 870
f 870 1011 869
f 969 972 1014
f 1014 972 1011
f 1036 1063 1022
f 1022 1063 910
f 1035 833 1036
f 1036 833 1063
f 1035 932 979
f 979 932 963
f 834 979 982
f 982 979 958
f 833 1035 834
f 834 1035 979
f 982 863 834
f 834 863 830
f 864 900 831
f 831 900 857
f 990 993 864
f 864 993 900
f 989 994 990
f 990 994 993
f 970 1058 989
f 989 1058 994
f 969 1018 970
f 970 1018 1058
f 1027 902 785
f 785 902 786
f 902 905 786
f 786 905 1019
f 905 1045 1019
f 1019 1045 788
f 788 1045 787
f 787 1045 789
